  0
SECTION
  2
HEADER
  9
$ANGBASE
  50
0.0
  9
$ANGDIR
  70
1
  9
$MEASUREMENT
  70
1
  0
ENDSEC
  0
SECTION
  2
TABLES
  0
TABLE
  2
LTYPE
  70
4
  0
LTYPE
  5
40F
  2
CONTINUOUS
  70
0
  3
Solid line
  72
65
  73
0
  40
0.0
  0
LTYPE
  5
410
  2
DASHDOT
 70
0
  3
Dash Dot ____ _ ____ _
 72
65
 73
4
 40
2.0
 49
1.25
 49
-0.25
 49
0.25
 49
-0.25
  0
LTYPE
  5
411
  2
DASHED
 70
0
  3
Dashed __ __ __ __ __
 72
65
 73
2
 40
0.75
 49
0.5
 49
-0.25
  0
LTYPE
  5
43B
  2
DOTTED
 70
0
  3
Dotted .  .  .  .
 72
65
 73
2
 40
0.2
 49
0.0
 49
-0.2
  0
ENDTAB
  0
TABLE
  2
STYLE
  70
4
  0
STYLE
  2
KICAD
  70
0
  40
0
  41
1
  42
1
  50
0
  71
0
  3
isocp.shx
  0
STYLE
  2
KICADB
  70
0
  40
0
  41
1
  42
1
  50
0
  71
0
  3
isocp.shx
  0
STYLE
  2
KICADI
  70
0
  40
0
  41
1
  42
1
  50
15
  71
0
  3
isocp.shx
  0
STYLE
  2
KICADBI
  70
0
  40
0
  41
1
  42
1
  50
15
  71
0
  3
isocp.shx
  0
ENDTAB
  0
TABLE
  2
LAYER
  70
35
  0
LAYER
  2
BLACK
  70
0
  62
7
  6
CONTINUOUS
  0
LAYER
  2
GRAY1
  70
0
  62
251
  6
CONTINUOUS
  0
LAYER
  2
GRAY2
  70
0
  62
8
  6
CONTINUOUS
  0
LAYER
  2
GRAY3
  70
0
  62
9
  6
CONTINUOUS
  0
LAYER
  2
WHITE
  70
0
  62
7
  6
CONTINUOUS
  0
LAYER
  2
LYELLOW
  70
0
  62
51
  6
CONTINUOUS
  0
LAYER
  2
LORANGE
  70
0
  62
41
  6
CONTINUOUS
  0
LAYER
  2
BLUE1
  70
0
  62
178
  6
CONTINUOUS
  0
LAYER
  2
GREEN1
  70
0
  62
98
  6
CONTINUOUS
  0
LAYER
  2
CYAN1
  70
0
  62
138
  6
CONTINUOUS
  0
LAYER
  2
RED1
  70
0
  62
18
  6
CONTINUOUS
  0
LAYER
  2
MAGENTA1
  70
0
  62
228
  6
CONTINUOUS
  0
LAYER
  2
BROWN1
  70
0
  62
58
  6
CONTINUOUS
  0
LAYER
  2
ORANGE1
  70
0
  62
34
  6
CONTINUOUS
  0
LAYER
  2
BLUE2
  70
0
  62
5
  6
CONTINUOUS
  0
LAYER
  2
GREEN2
  70
0
  62
3
  6
CONTINUOUS
  0
LAYER
  2
CYAN2
  70
0
  62
4
  6
CONTINUOUS
  0
LAYER
  2
RED2
  70
0
  62
1
  6
CONTINUOUS
  0
LAYER
  2
MAGENTA2
  70
0
  62
6
  6
CONTINUOUS
  0
LAYER
  2
BROWN2
  70
0
  62
54
  6
CONTINUOUS
  0
LAYER
  2
ORANGE2
  70
0
  62
42
  6
CONTINUOUS
  0
LAYER
  2
BLUE3
  70
0
  62
171
  6
CONTINUOUS
  0
LAYER
  2
GREEN3
  70
0
  62
91
  6
CONTINUOUS
  0
LAYER
  2
CYAN3
  70
0
  62
131
  6
CONTINUOUS
  0
LAYER
  2
RED3
  70
0
  62
11
  6
CONTINUOUS
  0
LAYER
  2
MAGENTA3
  70
0
  62
221
  6
CONTINUOUS
  0
LAYER
  2
YELLOW3
  70
0
  62
2
  6
CONTINUOUS
  0
LAYER
  2
ORANGE3
  70
0
  62
32
  6
CONTINUOUS
  0
LAYER
  2
BLUE4
  70
0
  62
5
  6
CONTINUOUS
  0
LAYER
  2
GREEN4
  70
0
  62
3
  6
CONTINUOUS
  0
LAYER
  2
CYAN4
  70
0
  62
4
  6
CONTINUOUS
  0
LAYER
  2
RED4
  70
0
  62
1
  6
CONTINUOUS
  0
LAYER
  2
MAGENTA4
  70
0
  62
6
  6
CONTINUOUS
  0
LAYER
  2
YELLOW4
  70
0
  62
2
  6
CONTINUOUS
  0
LAYER
  2
ORANGE4
  70
0
  62
40
  6
CONTINUOUS
  0
ENDTAB
  0
ENDSEC
  0
SECTION
  2
ENTITIES
0
LINE
8
LYELLOW
6
CONTINUOUS
10
72.5369049999999902
20
-48.0723190000000002
11
72.5369049999999902
21
-47.0723190000000002
0
LINE
8
LYELLOW
6
CONTINUOUS
10
72.5369049999999902
20
-47.0723190000000002
11
72.7749999999999915
21
-47.0723190000000002
0
LINE
8
LYELLOW
6
CONTINUOUS
10
72.7749999999999915
20
-47.0723190000000002
11
72.9178569999999979
21
-47.1199379999999977
0
LINE
8
LYELLOW
6
CONTINUOUS
10
72.9178569999999979
20
-47.1199379999999977
11
73.0130949999999928
21
-47.2151759999999996
0
LINE
8
LYELLOW
6
CONTINUOUS
10
73.0130949999999928
20
-47.2151759999999996
11
73.0607139999999902
21
-47.3104139999999944
0
LINE
8
LYELLOW
6
CONTINUOUS
10
73.0607139999999902
20
-47.3104139999999944
11
73.1083330000000018
21
-47.5008899999999983
0
LINE
8
LYELLOW
6
CONTINUOUS
10
73.1083330000000018
20
-47.5008899999999983
11
73.1083330000000018
21
-47.6437469999999976
0
LINE
8
LYELLOW
6
CONTINUOUS
10
73.1083330000000018
20
-47.6437469999999976
11
73.0607139999999902
21
-47.8342229999999944
0
LINE
8
LYELLOW
6
CONTINUOUS
10
73.0607139999999902
20
-47.8342229999999944
11
73.0130949999999928
21
-47.9294609999999963
0
LINE
8
LYELLOW
6
CONTINUOUS
10
73.0130949999999928
20
-47.9294609999999963
11
72.9178569999999979
21
-48.0246999999999957
0
LINE
8
LYELLOW
6
CONTINUOUS
10
72.9178569999999979
20
-48.0246999999999957
11
72.7749999999999915
21
-48.0723190000000002
0
LINE
8
LYELLOW
6
CONTINUOUS
10
72.7749999999999915
20
-48.0723190000000002
11
72.5369049999999902
21
-48.0723190000000002
0
LINE
8
LYELLOW
6
CONTINUOUS
10
73.4892859999999928
20
-47.1675569999999951
11
73.5369049999999902
21
-47.1199379999999977
0
LINE
8
LYELLOW
6
CONTINUOUS
10
73.5369049999999902
20
-47.1199379999999977
11
73.6321429999999992
21
-47.0723190000000002
0
LINE
8
LYELLOW
6
CONTINUOUS
10
73.6321429999999992
20
-47.0723190000000002
11
73.8702380000000005
21
-47.0723190000000002
0
LINE
8
LYELLOW
6
CONTINUOUS
10
73.8702380000000005
20
-47.0723190000000002
11
73.9654759999999953
21
-47.1199379999999977
0
LINE
8
LYELLOW
6
CONTINUOUS
10
73.9654759999999953
20
-47.1199379999999977
11
74.0130949999999928
21
-47.1675569999999951
0
LINE
8
LYELLOW
6
CONTINUOUS
10
74.0130949999999928
20
-47.1675569999999951
11
74.0607139999999902
21
-47.262794999999997
0
LINE
8
LYELLOW
6
CONTINUOUS
10
74.0607139999999902
20
-47.262794999999997
11
74.0607139999999902
21
-47.3580329999999989
0
LINE
8
LYELLOW
6
CONTINUOUS
10
74.0607139999999902
20
-47.3580329999999989
11
74.0130949999999928
21
-47.5008899999999983
0
LINE
8
LYELLOW
6
CONTINUOUS
10
74.0130949999999928
20
-47.5008899999999983
11
73.4416669999999954
21
-48.0723190000000002
0
LINE
8
LYELLOW
6
CONTINUOUS
10
73.4416669999999954
20
-48.0723190000000002
11
74.0607139999999902
21
-48.0723190000000002
0
LINE
8
LYELLOW
6
CONTINUOUS
10
67.9330949999999945
20
-48.4423189999999977
11
67.9330949999999945
21
-47.4423189999999977
0
LINE
8
LYELLOW
6
CONTINUOUS
10
68.5045229999999918
20
-48.4423189999999977
11
68.0759520000000009
21
-47.8708899999999957
0
LINE
8
LYELLOW
6
CONTINUOUS
10
68.5045229999999918
20
-47.4423189999999977
11
67.9330949999999945
21
-48.0137469999999951
0
LINE
8
LYELLOW
6
CONTINUOUS
10
90.446905000000001
20
-48.0723190000000002
11
90.446905000000001
21
-47.0723190000000002
0
LINE
8
LYELLOW
6
CONTINUOUS
10
90.446905000000001
20
-47.0723190000000002
11
90.6850000000000023
21
-47.0723190000000002
0
LINE
8
LYELLOW
6
CONTINUOUS
10
90.6850000000000023
20
-47.0723190000000002
11
90.8278569999999945
21
-47.1199379999999977
0
LINE
8
LYELLOW
6
CONTINUOUS
10
90.8278569999999945
20
-47.1199379999999977
11
90.9230949999999893
21
-47.2151759999999996
0
LINE
8
LYELLOW
6
CONTINUOUS
10
90.9230949999999893
20
-47.2151759999999996
11
90.970714000000001
21
-47.3104139999999944
0
LINE
8
LYELLOW
6
CONTINUOUS
10
90.970714000000001
20
-47.3104139999999944
11
91.0183329999999984
21
-47.5008899999999983
0
LINE
8
LYELLOW
6
CONTINUOUS
10
91.0183329999999984
20
-47.5008899999999983
11
91.0183329999999984
21
-47.6437469999999976
0
LINE
8
LYELLOW
6
CONTINUOUS
10
91.0183329999999984
20
-47.6437469999999976
11
90.970714000000001
21
-47.8342229999999944
0
LINE
8
LYELLOW
6
CONTINUOUS
10
90.970714000000001
20
-47.8342229999999944
11
90.9230949999999893
21
-47.9294609999999963
0
LINE
8
LYELLOW
6
CONTINUOUS
10
90.9230949999999893
20
-47.9294609999999963
11
90.8278569999999945
21
-48.0246999999999957
0
LINE
8
LYELLOW
6
CONTINUOUS
10
90.8278569999999945
20
-48.0246999999999957
11
90.6850000000000023
21
-48.0723190000000002
0
LINE
8
LYELLOW
6
CONTINUOUS
10
90.6850000000000023
20
-48.0723190000000002
11
90.446905000000001
21
-48.0723190000000002
0
LINE
8
LYELLOW
6
CONTINUOUS
10
91.351666999999992
20
-47.0723190000000002
11
91.970714000000001
21
-47.0723190000000002
0
LINE
8
LYELLOW
6
CONTINUOUS
10
91.970714000000001
20
-47.0723190000000002
11
91.6373809999999906
21
-47.4532710000000009
0
LINE
8
LYELLOW
6
CONTINUOUS
10
91.6373809999999906
20
-47.4532710000000009
11
91.7802379999999971
21
-47.4532710000000009
0
LINE
8
LYELLOW
6
CONTINUOUS
10
91.7802379999999971
20
-47.4532710000000009
11
91.8754759999999919
21
-47.5008899999999983
0
LINE
8
LYELLOW
6
CONTINUOUS
10
91.8754759999999919
20
-47.5008899999999983
11
91.9230949999999893
21
-47.5485089999999957
0
LINE
8
LYELLOW
6
CONTINUOUS
10
91.9230949999999893
20
-47.5485089999999957
11
91.970714000000001
21
-47.6437469999999976
0
LINE
8
LYELLOW
6
CONTINUOUS
10
91.970714000000001
20
-47.6437469999999976
11
91.970714000000001
21
-47.8818419999999989
0
LINE
8
LYELLOW
6
CONTINUOUS
10
91.970714000000001
20
-47.8818419999999989
11
91.9230949999999893
21
-47.9770800000000008
0
LINE
8
LYELLOW
6
CONTINUOUS
10
91.9230949999999893
20
-47.9770800000000008
11
91.8754759999999919
21
-48.0246999999999957
0
LINE
8
LYELLOW
6
CONTINUOUS
10
91.8754759999999919
20
-48.0246999999999957
11
91.7802379999999971
21
-48.0723190000000002
0
LINE
8
LYELLOW
6
CONTINUOUS
10
91.7802379999999971
20
-48.0723190000000002
11
91.4945239999999984
21
-48.0723190000000002
0
LINE
8
LYELLOW
6
CONTINUOUS
10
91.4945239999999984
20
-48.0723190000000002
11
91.3992859999999894
21
-48.0246999999999957
0
LINE
8
LYELLOW
6
CONTINUOUS
10
91.3992859999999894
20
-48.0246999999999957
11
91.351666999999992
21
-47.9770800000000008
0
LINE
8
LYELLOW
6
CONTINUOUS
10
85.843094999999991
20
-48.4423189999999977
11
85.843094999999991
21
-47.4423189999999977
0
LINE
8
LYELLOW
6
CONTINUOUS
10
86.4145230000000026
20
-48.4423189999999977
11
85.9859519999999975
21
-47.8708899999999957
0
LINE
8
LYELLOW
6
CONTINUOUS
10
86.4145230000000026
20
-47.4423189999999977
11
85.843094999999991
21
-48.0137469999999951
0
LINE
8
LYELLOW
6
CONTINUOUS
10
82.6572329999999909
20
-60.3470799999999983
11
82.6096139999999934
21
-60.3947000000000003
0
LINE
8
LYELLOW
6
CONTINUOUS
10
82.6096139999999934
20
-60.3947000000000003
11
82.4667570000000012
21
-60.4423189999999977
0
LINE
8
LYELLOW
6
CONTINUOUS
10
82.4667570000000012
20
-60.4423189999999977
11
82.3715189999999922
21
-60.4423189999999977
0
LINE
8
LYELLOW
6
CONTINUOUS
10
82.3715189999999922
20
-60.4423189999999977
11
82.2286619999999999
21
-60.3947000000000003
0
LINE
8
LYELLOW
6
CONTINUOUS
10
82.2286619999999999
20
-60.3947000000000003
11
82.1334239999999909
21
-60.2994609999999938
0
LINE
8
LYELLOW
6
CONTINUOUS
10
82.1334239999999909
20
-60.2994609999999938
11
82.0858049999999935
21
-60.2042229999999989
0
LINE
8
LYELLOW
6
CONTINUOUS
10
82.0858049999999935
20
-60.2042229999999989
11
82.0381859999999961
21
-60.0137469999999951
0
LINE
8
LYELLOW
6
CONTINUOUS
10
82.0381859999999961
20
-60.0137469999999951
11
82.0381859999999961
21
-59.8708899999999957
0
LINE
8
LYELLOW
6
CONTINUOUS
10
82.0381859999999961
20
-59.8708899999999957
11
82.0858049999999935
21
-59.680413999999999
0
LINE
8
LYELLOW
6
CONTINUOUS
10
82.0858049999999935
20
-59.680413999999999
11
82.1334239999999909
21
-59.585175999999997
0
LINE
8
LYELLOW
6
CONTINUOUS
10
82.1334239999999909
20
-59.585175999999997
11
82.2286619999999999
21
-59.4899379999999951
0
LINE
8
LYELLOW
6
CONTINUOUS
10
82.2286619999999999
20
-59.4899379999999951
11
82.3715189999999922
21
-59.4423189999999977
0
LINE
8
LYELLOW
6
CONTINUOUS
10
82.3715189999999922
20
-59.4423189999999977
11
82.4667570000000012
21
-59.4423189999999977
0
LINE
8
LYELLOW
6
CONTINUOUS
10
82.4667570000000012
20
-59.4423189999999977
11
82.6096139999999934
21
-59.4899379999999951
0
LINE
8
LYELLOW
6
CONTINUOUS
10
82.6096139999999934
20
-59.4899379999999951
11
82.6572329999999909
21
-59.5375569999999996
0
LINE
8
LYELLOW
6
CONTINUOUS
10
83.0381859999999961
20
-59.5375569999999996
11
83.0858049999999935
21
-59.4899379999999951
0
LINE
8
LYELLOW
6
CONTINUOUS
10
83.0858049999999935
20
-59.4899379999999951
11
83.1810430000000025
21
-59.4423189999999977
0
LINE
8
LYELLOW
6
CONTINUOUS
10
83.1810430000000025
20
-59.4423189999999977
11
83.4191379999999896
21
-59.4423189999999977
0
LINE
8
LYELLOW
6
CONTINUOUS
10
83.4191379999999896
20
-59.4423189999999977
11
83.5143759999999986
21
-59.4899379999999951
0
LINE
8
LYELLOW
6
CONTINUOUS
10
83.5143759999999986
20
-59.4899379999999951
11
83.561994999999996
21
-59.5375569999999996
0
LINE
8
LYELLOW
6
CONTINUOUS
10
83.561994999999996
20
-59.5375569999999996
11
83.6096139999999934
21
-59.6327949999999944
0
LINE
8
LYELLOW
6
CONTINUOUS
10
83.6096139999999934
20
-59.6327949999999944
11
83.6096139999999934
21
-59.7280329999999964
0
LINE
8
LYELLOW
6
CONTINUOUS
10
83.6096139999999934
20
-59.7280329999999964
11
83.561994999999996
21
-59.8708899999999957
0
LINE
8
LYELLOW
6
CONTINUOUS
10
83.561994999999996
20
-59.8708899999999957
11
82.9905669999999986
21
-60.4423189999999977
0
LINE
8
LYELLOW
6
CONTINUOUS
10
82.9905669999999986
20
-60.4423189999999977
11
83.6096139999999934
21
-60.4423189999999977
0
LINE
8
LYELLOW
6
CONTINUOUS
10
58.5627329999999944
20
-81.8970800000000025
11
58.515113999999997
21
-81.9446999999999974
0
LINE
8
LYELLOW
6
CONTINUOUS
10
58.515113999999997
20
-81.9446999999999974
11
58.3722569999999976
21
-81.9923189999999948
0
LINE
8
LYELLOW
6
CONTINUOUS
10
58.3722569999999976
20
-81.9923189999999948
11
58.2770189999999957
21
-81.9923189999999948
0
LINE
8
LYELLOW
6
CONTINUOUS
10
58.2770189999999957
20
-81.9923189999999948
11
58.1341619999999963
21
-81.9446999999999974
0
LINE
8
LYELLOW
6
CONTINUOUS
10
58.1341619999999963
20
-81.9446999999999974
11
58.0389239999999944
21
-81.8494609999999909
0
LINE
8
LYELLOW
6
CONTINUOUS
10
58.0389239999999944
20
-81.8494609999999909
11
57.991304999999997
21
-81.7542229999999961
0
LINE
8
LYELLOW
6
CONTINUOUS
10
57.991304999999997
20
-81.7542229999999961
11
57.9436859999999996
21
-81.5637469999999922
0
LINE
8
LYELLOW
6
CONTINUOUS
10
57.9436859999999996
20
-81.5637469999999922
11
57.9436859999999996
21
-81.42089
0
LINE
8
LYELLOW
6
CONTINUOUS
10
57.9436859999999996
20
-81.42089
11
57.991304999999997
21
-81.2304139999999961
0
LINE
8
LYELLOW
6
CONTINUOUS
10
57.991304999999997
20
-81.2304139999999961
11
58.0389239999999944
21
-81.1351760000000013
0
LINE
8
LYELLOW
6
CONTINUOUS
10
58.0389239999999944
20
-81.1351760000000013
11
58.1341619999999963
21
-81.0399379999999923
0
LINE
8
LYELLOW
6
CONTINUOUS
10
58.1341619999999963
20
-81.0399379999999923
11
58.2770189999999957
21
-80.9923189999999948
0
LINE
8
LYELLOW
6
CONTINUOUS
10
58.2770189999999957
20
-80.9923189999999948
11
58.3722569999999976
21
-80.9923189999999948
0
LINE
8
LYELLOW
6
CONTINUOUS
10
58.3722569999999976
20
-80.9923189999999948
11
58.515113999999997
21
-81.0399379999999923
0
LINE
8
LYELLOW
6
CONTINUOUS
10
58.515113999999997
20
-81.0399379999999923
11
58.5627329999999944
21
-81.0875569999999897
0
LINE
8
LYELLOW
6
CONTINUOUS
10
58.8960669999999951
20
-80.9923189999999948
11
59.515113999999997
21
-80.9923189999999948
0
LINE
8
LYELLOW
6
CONTINUOUS
10
59.515113999999997
20
-80.9923189999999948
11
59.1817810000000009
21
-81.3732710000000026
0
LINE
8
LYELLOW
6
CONTINUOUS
10
59.1817810000000009
20
-81.3732710000000026
11
59.3246380000000002
21
-81.3732710000000026
0
LINE
8
LYELLOW
6
CONTINUOUS
10
59.3246380000000002
20
-81.3732710000000026
11
59.419875999999995
21
-81.42089
0
LINE
8
LYELLOW
6
CONTINUOUS
10
59.419875999999995
20
-81.42089
11
59.4674949999999995
21
-81.4685089999999974
0
LINE
8
LYELLOW
6
CONTINUOUS
10
59.4674949999999995
20
-81.4685089999999974
11
59.515113999999997
21
-81.5637469999999922
0
LINE
8
LYELLOW
6
CONTINUOUS
10
59.515113999999997
20
-81.5637469999999922
11
59.515113999999997
21
-81.8018419999999935
0
LINE
8
LYELLOW
6
CONTINUOUS
10
59.515113999999997
20
-81.8018419999999935
11
59.4674949999999995
21
-81.8970800000000025
0
LINE
8
LYELLOW
6
CONTINUOUS
10
59.4674949999999995
20
-81.8970800000000025
11
59.419875999999995
21
-81.9446999999999974
0
LINE
8
LYELLOW
6
CONTINUOUS
10
59.419875999999995
20
-81.9446999999999974
11
59.3246380000000002
21
-81.9923189999999948
0
LINE
8
LYELLOW
6
CONTINUOUS
10
59.3246380000000002
20
-81.9923189999999948
11
59.0389239999999944
21
-81.9923189999999948
0
LINE
8
LYELLOW
6
CONTINUOUS
10
59.0389239999999944
20
-81.9923189999999948
11
58.9436859999999996
21
-81.9446999999999974
0
LINE
8
LYELLOW
6
CONTINUOUS
10
58.9436859999999996
20
-81.9446999999999974
11
58.8960669999999951
21
-81.8970800000000025
0
LINE
8
LYELLOW
6
CONTINUOUS
10
72.5369049999999902
20
-54.3223190000000002
11
72.5369049999999902
21
-53.3223190000000002
0
LINE
8
LYELLOW
6
CONTINUOUS
10
72.5369049999999902
20
-53.3223190000000002
11
72.7749999999999915
21
-53.3223190000000002
0
LINE
8
LYELLOW
6
CONTINUOUS
10
72.7749999999999915
20
-53.3223190000000002
11
72.9178569999999979
21
-53.3699379999999977
0
LINE
8
LYELLOW
6
CONTINUOUS
10
72.9178569999999979
20
-53.3699379999999977
11
73.0130949999999928
21
-53.4651759999999996
0
LINE
8
LYELLOW
6
CONTINUOUS
10
73.0130949999999928
20
-53.4651759999999996
11
73.0607139999999902
21
-53.5604139999999944
0
LINE
8
LYELLOW
6
CONTINUOUS
10
73.0607139999999902
20
-53.5604139999999944
11
73.1083330000000018
21
-53.7508899999999983
0
LINE
8
LYELLOW
6
CONTINUOUS
10
73.1083330000000018
20
-53.7508899999999983
11
73.1083330000000018
21
-53.8937469999999976
0
LINE
8
LYELLOW
6
CONTINUOUS
10
73.1083330000000018
20
-53.8937469999999976
11
73.0607139999999902
21
-54.0842229999999944
0
LINE
8
LYELLOW
6
CONTINUOUS
10
73.0607139999999902
20
-54.0842229999999944
11
73.0130949999999928
21
-54.1794609999999963
0
LINE
8
LYELLOW
6
CONTINUOUS
10
73.0130949999999928
20
-54.1794609999999963
11
72.9178569999999979
21
-54.2746999999999957
0
LINE
8
LYELLOW
6
CONTINUOUS
10
72.9178569999999979
20
-54.2746999999999957
11
72.7749999999999915
21
-54.3223190000000002
0
LINE
8
LYELLOW
6
CONTINUOUS
10
72.7749999999999915
20
-54.3223190000000002
11
72.5369049999999902
21
-54.3223190000000002
0
LINE
8
LYELLOW
6
CONTINUOUS
10
74.0130949999999928
20
-53.3223190000000002
11
73.5369049999999902
21
-53.3223190000000002
0
LINE
8
LYELLOW
6
CONTINUOUS
10
73.5369049999999902
20
-53.3223190000000002
11
73.4892859999999928
21
-53.7985089999999957
0
LINE
8
LYELLOW
6
CONTINUOUS
10
73.4892859999999928
20
-53.7985089999999957
11
73.5369049999999902
21
-53.7508899999999983
0
LINE
8
LYELLOW
6
CONTINUOUS
10
73.5369049999999902
20
-53.7508899999999983
11
73.6321429999999992
21
-53.7032710000000009
0
LINE
8
LYELLOW
6
CONTINUOUS
10
73.6321429999999992
20
-53.7032710000000009
11
73.8702380000000005
21
-53.7032710000000009
0
LINE
8
LYELLOW
6
CONTINUOUS
10
73.8702380000000005
20
-53.7032710000000009
11
73.9654759999999953
21
-53.7508899999999983
0
LINE
8
LYELLOW
6
CONTINUOUS
10
73.9654759999999953
20
-53.7508899999999983
11
74.0130949999999928
21
-53.7985089999999957
0
LINE
8
LYELLOW
6
CONTINUOUS
10
74.0130949999999928
20
-53.7985089999999957
11
74.0607139999999902
21
-53.8937469999999976
0
LINE
8
LYELLOW
6
CONTINUOUS
10
74.0607139999999902
20
-53.8937469999999976
11
74.0607139999999902
21
-54.1318419999999989
0
LINE
8
LYELLOW
6
CONTINUOUS
10
74.0607139999999902
20
-54.1318419999999989
11
74.0130949999999928
21
-54.2270800000000008
0
LINE
8
LYELLOW
6
CONTINUOUS
10
74.0130949999999928
20
-54.2270800000000008
11
73.9654759999999953
21
-54.2746999999999957
0
LINE
8
LYELLOW
6
CONTINUOUS
10
73.9654759999999953
20
-54.2746999999999957
11
73.8702380000000005
21
-54.3223190000000002
0
LINE
8
LYELLOW
6
CONTINUOUS
10
73.8702380000000005
20
-54.3223190000000002
11
73.6321429999999992
21
-54.3223190000000002
0
LINE
8
LYELLOW
6
CONTINUOUS
10
73.6321429999999992
20
-54.3223190000000002
11
73.5369049999999902
21
-54.2746999999999957
0
LINE
8
LYELLOW
6
CONTINUOUS
10
73.5369049999999902
20
-54.2746999999999957
11
73.4892859999999928
21
-54.2270800000000008
0
LINE
8
LYELLOW
6
CONTINUOUS
10
67.9330949999999945
20
-54.6923189999999977
11
67.9330949999999945
21
-53.6923189999999977
0
LINE
8
LYELLOW
6
CONTINUOUS
10
68.5045229999999918
20
-54.6923189999999977
11
68.0759520000000009
21
-54.1208899999999957
0
LINE
8
LYELLOW
6
CONTINUOUS
10
68.5045229999999918
20
-53.6923189999999977
11
67.9330949999999945
21
-54.2637469999999951
0
LINE
8
LYELLOW
6
CONTINUOUS
10
33.106665999999997
20
-51.0673189999999977
11
33.106665999999997
21
-51.7816039999999944
0
LINE
8
LYELLOW
6
CONTINUOUS
10
33.106665999999997
20
-51.7816039999999944
11
33.0590469999999996
21
-51.9244610000000009
0
LINE
8
LYELLOW
6
CONTINUOUS
10
33.0590469999999996
20
-51.9244610000000009
11
32.9638089999999977
21
-52.0197000000000003
0
LINE
8
LYELLOW
6
CONTINUOUS
10
32.9638089999999977
20
-52.0197000000000003
11
32.8209519999999983
21
-52.0673189999999977
0
LINE
8
LYELLOW
6
CONTINUOUS
10
32.8209519999999983
20
-52.0673189999999977
11
32.7257139999999964
21
-52.0673189999999977
0
LINE
8
LYELLOW
6
CONTINUOUS
10
34.106665999999997
20
-52.0673189999999977
11
33.5352379999999997
21
-52.0673189999999977
0
LINE
8
LYELLOW
6
CONTINUOUS
10
33.8209519999999983
20
-52.0673189999999977
11
33.8209519999999983
21
-51.0673189999999977
0
LINE
8
LYELLOW
6
CONTINUOUS
10
33.8209519999999983
20
-51.0673189999999977
11
33.7257139999999964
21
-51.210175999999997
0
LINE
8
LYELLOW
6
CONTINUOUS
10
33.7257139999999964
20
-51.210175999999997
11
33.6304760000000016
21
-51.305413999999999
0
LINE
8
LYELLOW
6
CONTINUOUS
10
33.6304760000000016
20
-51.305413999999999
11
33.5352379999999997
21
-51.3530329999999964
0
LINE
8
LYELLOW
6
CONTINUOUS
10
54.6269050000000007
20
-54.3223190000000002
11
54.6269050000000007
21
-53.3223190000000002
0
LINE
8
LYELLOW
6
CONTINUOUS
10
54.6269050000000007
20
-53.3223190000000002
11
54.8649999999999949
21
-53.3223190000000002
0
LINE
8
LYELLOW
6
CONTINUOUS
10
54.8649999999999949
20
-53.3223190000000002
11
55.0078569999999942
21
-53.3699379999999977
0
LINE
8
LYELLOW
6
CONTINUOUS
10
55.0078569999999942
20
-53.3699379999999977
11
55.1030949999999962
21
-53.4651759999999996
0
LINE
8
LYELLOW
6
CONTINUOUS
10
55.1030949999999962
20
-53.4651759999999996
11
55.1507140000000007
21
-53.5604139999999944
0
LINE
8
LYELLOW
6
CONTINUOUS
10
55.1507140000000007
20
-53.5604139999999944
11
55.1983329999999981
21
-53.7508899999999983
0
LINE
8
LYELLOW
6
CONTINUOUS
10
55.1983329999999981
20
-53.7508899999999983
11
55.1983329999999981
21
-53.8937469999999976
0
LINE
8
LYELLOW
6
CONTINUOUS
10
55.1983329999999981
20
-53.8937469999999976
11
55.1507140000000007
21
-54.0842229999999944
0
LINE
8
LYELLOW
6
CONTINUOUS
10
55.1507140000000007
20
-54.0842229999999944
11
55.1030949999999962
21
-54.1794609999999963
0
LINE
8
LYELLOW
6
CONTINUOUS
10
55.1030949999999962
20
-54.1794609999999963
11
55.0078569999999942
21
-54.2746999999999957
0
LINE
8
LYELLOW
6
CONTINUOUS
10
55.0078569999999942
20
-54.2746999999999957
11
54.8649999999999949
21
-54.3223190000000002
0
LINE
8
LYELLOW
6
CONTINUOUS
10
54.8649999999999949
20
-54.3223190000000002
11
54.6269050000000007
21
-54.3223190000000002
0
LINE
8
LYELLOW
6
CONTINUOUS
10
56.0554759999999987
20
-53.6556519999999963
11
56.0554759999999987
21
-54.3223190000000002
0
LINE
8
LYELLOW
6
CONTINUOUS
10
55.8173809999999975
20
-53.2746999999999957
11
55.5792859999999962
21
-53.9889849999999996
0
LINE
8
LYELLOW
6
CONTINUOUS
10
55.5792859999999962
20
-53.9889849999999996
11
56.1983329999999981
21
-53.9889849999999996
0
LINE
8
LYELLOW
6
CONTINUOUS
10
50.0230949999999979
20
-54.6923189999999977
11
50.0230949999999979
21
-53.6923189999999977
0
LINE
8
LYELLOW
6
CONTINUOUS
10
50.5945229999999952
20
-54.6923189999999977
11
50.1659519999999972
21
-54.1208899999999957
0
LINE
8
LYELLOW
6
CONTINUOUS
10
50.5945229999999952
20
-53.6923189999999977
11
50.0230949999999979
21
-54.2637469999999951
0
LINE
8
LYELLOW
6
CONTINUOUS
10
77.722732999999991
20
-89.8723189999999903
11
77.3893999999999949
21
-89.3961279999999903
0
LINE
8
LYELLOW
6
CONTINUOUS
10
77.1513049999999936
20
-89.8723189999999903
11
77.1513049999999936
21
-88.8723189999999903
0
LINE
8
LYELLOW
6
CONTINUOUS
10
77.1513049999999936
20
-88.8723189999999903
11
77.5322570000000013
21
-88.8723189999999903
0
LINE
8
LYELLOW
6
CONTINUOUS
10
77.5322570000000013
20
-88.8723189999999903
11
77.6274949999999961
21
-88.9199380000000019
0
LINE
8
LYELLOW
6
CONTINUOUS
10
77.6274949999999961
20
-88.9199380000000019
11
77.6751139999999936
21
-88.9675569999999993
0
LINE
8
LYELLOW
6
CONTINUOUS
10
77.6751139999999936
20
-88.9675569999999993
11
77.722732999999991
21
-89.0627949999999942
0
LINE
8
LYELLOW
6
CONTINUOUS
10
77.722732999999991
20
-89.0627949999999942
11
77.722732999999991
21
-89.2056520000000006
0
LINE
8
LYELLOW
6
CONTINUOUS
10
77.722732999999991
20
-89.2056520000000006
11
77.6751139999999936
21
-89.3008899999999954
0
LINE
8
LYELLOW
6
CONTINUOUS
10
77.6751139999999936
20
-89.3008899999999954
11
77.6274949999999961
21
-89.3485089999999929
0
LINE
8
LYELLOW
6
CONTINUOUS
10
77.6274949999999961
20
-89.3485089999999929
11
77.5322570000000013
21
-89.3961279999999903
0
LINE
8
LYELLOW
6
CONTINUOUS
10
77.5322570000000013
20
-89.3961279999999903
11
77.1513049999999936
21
-89.3961279999999903
0
LINE
8
LYELLOW
6
CONTINUOUS
10
78.6751139999999936
20
-89.8723189999999903
11
78.1036859999999962
21
-89.8723189999999903
0
LINE
8
LYELLOW
6
CONTINUOUS
10
78.3893999999999949
20
-89.8723189999999903
11
78.3893999999999949
21
-88.8723189999999903
0
LINE
8
LYELLOW
6
CONTINUOUS
10
78.3893999999999949
20
-88.8723189999999903
11
78.294162
21
-89.0151759999999967
0
LINE
8
LYELLOW
6
CONTINUOUS
10
78.294162
20
-89.0151759999999967
11
78.198923999999991
21
-89.1104139999999916
0
LINE
8
LYELLOW
6
CONTINUOUS
10
78.198923999999991
20
-89.1104139999999916
11
78.1036859999999962
21
-89.158032999999989
0
LINE
8
LYELLOW
6
CONTINUOUS
10
58.5627329999999944
20
-60.3470799999999983
11
58.515113999999997
21
-60.3947000000000003
0
LINE
8
LYELLOW
6
CONTINUOUS
10
58.515113999999997
20
-60.3947000000000003
11
58.3722569999999976
21
-60.4423189999999977
0
LINE
8
LYELLOW
6
CONTINUOUS
10
58.3722569999999976
20
-60.4423189999999977
11
58.2770189999999957
21
-60.4423189999999977
0
LINE
8
LYELLOW
6
CONTINUOUS
10
58.2770189999999957
20
-60.4423189999999977
11
58.1341619999999963
21
-60.3947000000000003
0
LINE
8
LYELLOW
6
CONTINUOUS
10
58.1341619999999963
20
-60.3947000000000003
11
58.0389239999999944
21
-60.2994609999999938
0
LINE
8
LYELLOW
6
CONTINUOUS
10
58.0389239999999944
20
-60.2994609999999938
11
57.991304999999997
21
-60.2042229999999989
0
LINE
8
LYELLOW
6
CONTINUOUS
10
57.991304999999997
20
-60.2042229999999989
11
57.9436859999999996
21
-60.0137469999999951
0
LINE
8
LYELLOW
6
CONTINUOUS
10
57.9436859999999996
20
-60.0137469999999951
11
57.9436859999999996
21
-59.8708899999999957
0
LINE
8
LYELLOW
6
CONTINUOUS
10
57.9436859999999996
20
-59.8708899999999957
11
57.991304999999997
21
-59.680413999999999
0
LINE
8
LYELLOW
6
CONTINUOUS
10
57.991304999999997
20
-59.680413999999999
11
58.0389239999999944
21
-59.585175999999997
0
LINE
8
LYELLOW
6
CONTINUOUS
10
58.0389239999999944
20
-59.585175999999997
11
58.1341619999999963
21
-59.4899379999999951
0
LINE
8
LYELLOW
6
CONTINUOUS
10
58.1341619999999963
20
-59.4899379999999951
11
58.2770189999999957
21
-59.4423189999999977
0
LINE
8
LYELLOW
6
CONTINUOUS
10
58.2770189999999957
20
-59.4423189999999977
11
58.3722569999999976
21
-59.4423189999999977
0
LINE
8
LYELLOW
6
CONTINUOUS
10
58.3722569999999976
20
-59.4423189999999977
11
58.515113999999997
21
-59.4899379999999951
0
LINE
8
LYELLOW
6
CONTINUOUS
10
58.515113999999997
20
-59.4899379999999951
11
58.5627329999999944
21
-59.5375569999999996
0
LINE
8
LYELLOW
6
CONTINUOUS
10
59.515113999999997
20
-60.4423189999999977
11
58.9436859999999996
21
-60.4423189999999977
0
LINE
8
LYELLOW
6
CONTINUOUS
10
59.2293999999999983
20
-60.4423189999999977
11
59.2293999999999983
21
-59.4423189999999977
0
LINE
8
LYELLOW
6
CONTINUOUS
10
59.2293999999999983
20
-59.4423189999999977
11
59.1341619999999963
21
-59.585175999999997
0
LINE
8
LYELLOW
6
CONTINUOUS
10
59.1341619999999963
20
-59.585175999999997
11
59.0389239999999944
21
-59.680413999999999
0
LINE
8
LYELLOW
6
CONTINUOUS
10
59.0389239999999944
20
-59.680413999999999
11
58.9436859999999996
21
-59.7280329999999964
0
LINE
8
LYELLOW
6
CONTINUOUS
10
90.446905000000001
20
-54.3223190000000002
11
90.446905000000001
21
-53.3223190000000002
0
LINE
8
LYELLOW
6
CONTINUOUS
10
90.446905000000001
20
-53.3223190000000002
11
90.6850000000000023
21
-53.3223190000000002
0
LINE
8
LYELLOW
6
CONTINUOUS
10
90.6850000000000023
20
-53.3223190000000002
11
90.8278569999999945
21
-53.3699379999999977
0
LINE
8
LYELLOW
6
CONTINUOUS
10
90.8278569999999945
20
-53.3699379999999977
11
90.9230949999999893
21
-53.4651759999999996
0
LINE
8
LYELLOW
6
CONTINUOUS
10
90.9230949999999893
20
-53.4651759999999996
11
90.970714000000001
21
-53.5604139999999944
0
LINE
8
LYELLOW
6
CONTINUOUS
10
90.970714000000001
20
-53.5604139999999944
11
91.0183329999999984
21
-53.7508899999999983
0
LINE
8
LYELLOW
6
CONTINUOUS
10
91.0183329999999984
20
-53.7508899999999983
11
91.0183329999999984
21
-53.8937469999999976
0
LINE
8
LYELLOW
6
CONTINUOUS
10
91.0183329999999984
20
-53.8937469999999976
11
90.970714000000001
21
-54.0842229999999944
0
LINE
8
LYELLOW
6
CONTINUOUS
10
90.970714000000001
20
-54.0842229999999944
11
90.9230949999999893
21
-54.1794609999999963
0
LINE
8
LYELLOW
6
CONTINUOUS
10
90.9230949999999893
20
-54.1794609999999963
11
90.8278569999999945
21
-54.2746999999999957
0
LINE
8
LYELLOW
6
CONTINUOUS
10
90.8278569999999945
20
-54.2746999999999957
11
90.6850000000000023
21
-54.3223190000000002
0
LINE
8
LYELLOW
6
CONTINUOUS
10
90.6850000000000023
20
-54.3223190000000002
11
90.446905000000001
21
-54.3223190000000002
0
LINE
8
LYELLOW
6
CONTINUOUS
10
91.8754759999999919
20
-53.3223190000000002
11
91.6850000000000023
21
-53.3223190000000002
0
LINE
8
LYELLOW
6
CONTINUOUS
10
91.6850000000000023
20
-53.3223190000000002
11
91.5897619999999932
21
-53.3699379999999977
0
LINE
8
LYELLOW
6
CONTINUOUS
10
91.5897619999999932
20
-53.3699379999999977
11
91.5421429999999958
21
-53.4175569999999951
0
LINE
8
LYELLOW
6
CONTINUOUS
10
91.5421429999999958
20
-53.4175569999999951
11
91.446905000000001
21
-53.5604139999999944
0
LINE
8
LYELLOW
6
CONTINUOUS
10
91.446905000000001
20
-53.5604139999999944
11
91.3992859999999894
21
-53.7508899999999983
0
LINE
8
LYELLOW
6
CONTINUOUS
10
91.3992859999999894
20
-53.7508899999999983
11
91.3992859999999894
21
-54.1318419999999989
0
LINE
8
LYELLOW
6
CONTINUOUS
10
91.3992859999999894
20
-54.1318419999999989
11
91.446905000000001
21
-54.2270800000000008
0
LINE
8
LYELLOW
6
CONTINUOUS
10
91.446905000000001
20
-54.2270800000000008
11
91.4945239999999984
21
-54.2746999999999957
0
LINE
8
LYELLOW
6
CONTINUOUS
10
91.4945239999999984
20
-54.2746999999999957
11
91.5897619999999932
21
-54.3223190000000002
0
LINE
8
LYELLOW
6
CONTINUOUS
10
91.5897619999999932
20
-54.3223190000000002
11
91.7802379999999971
21
-54.3223190000000002
0
LINE
8
LYELLOW
6
CONTINUOUS
10
91.7802379999999971
20
-54.3223190000000002
11
91.8754759999999919
21
-54.2746999999999957
0
LINE
8
LYELLOW
6
CONTINUOUS
10
91.8754759999999919
20
-54.2746999999999957
11
91.9230949999999893
21
-54.2270800000000008
0
LINE
8
LYELLOW
6
CONTINUOUS
10
91.9230949999999893
20
-54.2270800000000008
11
91.970714000000001
21
-54.1318419999999989
0
LINE
8
LYELLOW
6
CONTINUOUS
10
91.970714000000001
20
-54.1318419999999989
11
91.970714000000001
21
-53.8937469999999976
0
LINE
8
LYELLOW
6
CONTINUOUS
10
91.970714000000001
20
-53.8937469999999976
11
91.9230949999999893
21
-53.7985089999999957
0
LINE
8
LYELLOW
6
CONTINUOUS
10
91.9230949999999893
20
-53.7985089999999957
11
91.8754759999999919
21
-53.7508899999999983
0
LINE
8
LYELLOW
6
CONTINUOUS
10
91.8754759999999919
20
-53.7508899999999983
11
91.7802379999999971
21
-53.7032710000000009
0
LINE
8
LYELLOW
6
CONTINUOUS
10
91.7802379999999971
20
-53.7032710000000009
11
91.5897619999999932
21
-53.7032710000000009
0
LINE
8
LYELLOW
6
CONTINUOUS
10
91.5897619999999932
20
-53.7032710000000009
11
91.4945239999999984
21
-53.7508899999999983
0
LINE
8
LYELLOW
6
CONTINUOUS
10
91.4945239999999984
20
-53.7508899999999983
11
91.446905000000001
21
-53.7985089999999957
0
LINE
8
LYELLOW
6
CONTINUOUS
10
91.446905000000001
20
-53.7985089999999957
11
91.3992859999999894
21
-53.8937469999999976
0
LINE
8
LYELLOW
6
CONTINUOUS
10
85.843094999999991
20
-54.6923189999999977
11
85.843094999999991
21
-53.6923189999999977
0
LINE
8
LYELLOW
6
CONTINUOUS
10
86.4145230000000026
20
-54.6923189999999977
11
85.9859519999999975
21
-54.1208899999999957
0
LINE
8
LYELLOW
6
CONTINUOUS
10
86.4145230000000026
20
-53.6923189999999977
11
85.843094999999991
21
-54.2637469999999951
0
LINE
8
LYELLOW
6
CONTINUOUS
10
112.8066659999999928
20
-41.3373190000000008
11
112.8066659999999928
21
-42.0516039999999975
0
LINE
8
LYELLOW
6
CONTINUOUS
10
112.8066659999999928
20
-42.0516039999999975
11
112.7590469999999954
21
-42.1944609999999969
0
LINE
8
LYELLOW
6
CONTINUOUS
10
112.7590469999999954
20
-42.1944609999999969
11
112.6638090000000005
21
-42.2896999999999963
0
LINE
8
LYELLOW
6
CONTINUOUS
10
112.6638090000000005
20
-42.2896999999999963
11
112.5209519999999941
21
-42.3373190000000008
0
LINE
8
LYELLOW
6
CONTINUOUS
10
112.5209519999999941
20
-42.3373190000000008
11
112.4257139999999993
21
-42.3373190000000008
0
LINE
8
LYELLOW
6
CONTINUOUS
10
113.2352379999999954
20
-41.4325569999999956
11
113.2828569999999928
21
-41.3849379999999982
0
LINE
8
LYELLOW
6
CONTINUOUS
10
113.2828569999999928
20
-41.3849379999999982
11
113.3780950000000018
21
-41.3373190000000008
0
LINE
8
LYELLOW
6
CONTINUOUS
10
113.3780950000000018
20
-41.3373190000000008
11
113.6161899999999889
21
-41.3373190000000008
0
LINE
8
LYELLOW
6
CONTINUOUS
10
113.6161899999999889
20
-41.3373190000000008
11
113.711427999999998
21
-41.3849379999999982
0
LINE
8
LYELLOW
6
CONTINUOUS
10
113.711427999999998
20
-41.3849379999999982
11
113.7590469999999954
21
-41.4325569999999956
0
LINE
8
LYELLOW
6
CONTINUOUS
10
113.7590469999999954
20
-41.4325569999999956
11
113.8066659999999928
21
-41.5277949999999976
0
LINE
8
LYELLOW
6
CONTINUOUS
10
113.8066659999999928
20
-41.5277949999999976
11
113.8066659999999928
21
-41.6230329999999995
0
LINE
8
LYELLOW
6
CONTINUOUS
10
113.8066659999999928
20
-41.6230329999999995
11
113.7590469999999954
21
-41.7658899999999988
0
LINE
8
LYELLOW
6
CONTINUOUS
10
113.7590469999999954
20
-41.7658899999999988
11
113.187618999999998
21
-42.3373190000000008
0
LINE
8
LYELLOW
6
CONTINUOUS
10
113.187618999999998
20
-42.3373190000000008
11
113.8066659999999928
21
-42.3373190000000008
0
LINE
8
LYELLOW
6
CONTINUOUS
10
54.6269050000000007
20
-48.0723190000000002
11
54.6269050000000007
21
-47.0723190000000002
0
LINE
8
LYELLOW
6
CONTINUOUS
10
54.6269050000000007
20
-47.0723190000000002
11
54.8649999999999949
21
-47.0723190000000002
0
LINE
8
LYELLOW
6
CONTINUOUS
10
54.8649999999999949
20
-47.0723190000000002
11
55.0078569999999942
21
-47.1199379999999977
0
LINE
8
LYELLOW
6
CONTINUOUS
10
55.0078569999999942
20
-47.1199379999999977
11
55.1030949999999962
21
-47.2151759999999996
0
LINE
8
LYELLOW
6
CONTINUOUS
10
55.1030949999999962
20
-47.2151759999999996
11
55.1507140000000007
21
-47.3104139999999944
0
LINE
8
LYELLOW
6
CONTINUOUS
10
55.1507140000000007
20
-47.3104139999999944
11
55.1983329999999981
21
-47.5008899999999983
0
LINE
8
LYELLOW
6
CONTINUOUS
10
55.1983329999999981
20
-47.5008899999999983
11
55.1983329999999981
21
-47.6437469999999976
0
LINE
8
LYELLOW
6
CONTINUOUS
10
55.1983329999999981
20
-47.6437469999999976
11
55.1507140000000007
21
-47.8342229999999944
0
LINE
8
LYELLOW
6
CONTINUOUS
10
55.1507140000000007
20
-47.8342229999999944
11
55.1030949999999962
21
-47.9294609999999963
0
LINE
8
LYELLOW
6
CONTINUOUS
10
55.1030949999999962
20
-47.9294609999999963
11
55.0078569999999942
21
-48.0246999999999957
0
LINE
8
LYELLOW
6
CONTINUOUS
10
55.0078569999999942
20
-48.0246999999999957
11
54.8649999999999949
21
-48.0723190000000002
0
LINE
8
LYELLOW
6
CONTINUOUS
10
54.8649999999999949
20
-48.0723190000000002
11
54.6269050000000007
21
-48.0723190000000002
0
LINE
8
LYELLOW
6
CONTINUOUS
10
56.1507140000000007
20
-48.0723190000000002
11
55.5792859999999962
21
-48.0723190000000002
0
LINE
8
LYELLOW
6
CONTINUOUS
10
55.8649999999999949
20
-48.0723190000000002
11
55.8649999999999949
21
-47.0723190000000002
0
LINE
8
LYELLOW
6
CONTINUOUS
10
55.8649999999999949
20
-47.0723190000000002
11
55.7697620000000001
21
-47.2151759999999996
0
LINE
8
LYELLOW
6
CONTINUOUS
10
55.7697620000000001
20
-47.2151759999999996
11
55.6745239999999981
21
-47.3104139999999944
0
LINE
8
LYELLOW
6
CONTINUOUS
10
55.6745239999999981
20
-47.3104139999999944
11
55.5792859999999962
21
-47.3580329999999989
0
LINE
8
LYELLOW
6
CONTINUOUS
10
50.0230949999999979
20
-48.4423189999999977
11
50.0230949999999979
21
-47.4423189999999977
0
LINE
8
LYELLOW
6
CONTINUOUS
10
50.5945229999999952
20
-48.4423189999999977
11
50.1659519999999972
21
-47.8708899999999957
0
LINE
8
LYELLOW
6
CONTINUOUS
10
50.5945229999999952
20
-47.4423189999999977
11
50.0230949999999979
21
-48.0137469999999951
0
LINE
8
LYELLOW
6
CONTINUOUS
10
69.5349999999999966
20
-50.0874999999999986
11
70.5549999999999926
21
-50.0874999999999986
0
LINE
8
LYELLOW
6
CONTINUOUS
10
71.3349999999999937
20
-48.6174999999999997
11
71.3349999999999937
21
-51.5574999999999974
0
LINE
8
LYELLOW
6
CONTINUOUS
10
71.4549999999999983
20
-48.6174999999999997
11
71.4549999999999983
21
-51.5574999999999974
0
LINE
8
LYELLOW
6
CONTINUOUS
10
71.5750000000000028
20
-48.6174999999999997
11
71.5750000000000028
21
-51.5574999999999974
0
LINE
8
LYELLOW
6
CONTINUOUS
10
77.0150000000000006
20
-50.0874999999999986
11
75.9949999999999903
21
-50.0874999999999986
0
LINE
8
LYELLOW
6
CONTINUOUS
10
70.5549999999999926
20
-48.6174999999999997
11
75.9949999999999903
21
-48.6174999999999997
0
LINE
8
LYELLOW
6
CONTINUOUS
10
75.9949999999999903
20
-48.6174999999999997
11
75.9949999999999903
21
-51.5574999999999974
0
LINE
8
LYELLOW
6
CONTINUOUS
10
75.9949999999999903
20
-51.5574999999999974
11
70.5549999999999926
21
-51.5574999999999974
0
LINE
8
LYELLOW
6
CONTINUOUS
10
70.5549999999999926
20
-51.5574999999999974
11
70.5549999999999926
21
-48.6174999999999997
0
LINE
8
LYELLOW
6
CONTINUOUS
10
87.4449999999999932
20
-50.0874999999999986
11
88.4649999999999892
21
-50.0874999999999986
0
LINE
8
LYELLOW
6
CONTINUOUS
10
89.2449999999999903
20
-48.6174999999999997
11
89.2449999999999903
21
-51.5574999999999974
0
LINE
8
LYELLOW
6
CONTINUOUS
10
89.3649999999999949
20
-48.6174999999999997
11
89.3649999999999949
21
-51.5574999999999974
0
LINE
8
LYELLOW
6
CONTINUOUS
10
89.4849999999999994
20
-48.6174999999999997
11
89.4849999999999994
21
-51.5574999999999974
0
LINE
8
LYELLOW
6
CONTINUOUS
10
94.9249999999999972
20
-50.0874999999999986
11
93.9050000000000011
21
-50.0874999999999986
0
LINE
8
LYELLOW
6
CONTINUOUS
10
88.4649999999999892
20
-48.6174999999999997
11
93.9050000000000011
21
-48.6174999999999997
0
LINE
8
LYELLOW
6
CONTINUOUS
10
93.9050000000000011
20
-48.6174999999999997
11
93.9050000000000011
21
-51.5574999999999974
0
LINE
8
LYELLOW
6
CONTINUOUS
10
93.9050000000000011
20
-51.5574999999999974
11
88.4649999999999892
21
-51.5574999999999974
0
LINE
8
LYELLOW
6
CONTINUOUS
10
88.4649999999999892
20
-51.5574999999999974
11
88.4649999999999892
21
-48.6174999999999997
0
LINE
8
LYELLOW
6
CONTINUOUS
10
73.0644599999999969
20
-65.1225000000000023
11
74.864459999999994
21
-65.1225000000000023
0
LINE
8
LYELLOW
6
CONTINUOUS
10
73.9644600000000025
20
-64.2224999999999966
11
73.9644600000000025
21
-66.0224999999999937
0
LINE
8
LYELLOW
6
CONTINUOUS
10
82.8238999999999947
20
-61.1574999999999989
11
82.8238999999999947
21
-79.3174999999999955
0
LINE
8
LYELLOW
6
CONTINUOUS
10
82.863900000000001
20
-61.1574999999999989
11
82.863900000000001
21
-79.3174999999999955
0
LINE
8
LYELLOW
6
CONTINUOUS
10
82.903899999999993
20
-61.1574999999999989
11
82.903899999999993
21
-79.3174999999999955
0
LINE
8
LYELLOW
6
CONTINUOUS
10
82.9438999999999993
20
-61.1584999999999965
11
82.9438999999999993
21
-79.3164999999999907
0
LINE
8
LYELLOW
6
CONTINUOUS
10
82.9838999999999913
20
-61.1584999999999965
11
82.9838999999999913
21
-79.3164999999999907
0
LINE
8
LYELLOW
6
CONTINUOUS
10
83.0238999999999976
20
-61.1594999999999942
11
83.0238999999999976
21
-79.3155000000000001
0
LINE
8
LYELLOW
6
CONTINUOUS
10
83.0638999999999896
20
-61.160499999999999
11
83.0638999999999896
21
-79.3144999999999953
0
LINE
8
LYELLOW
6
CONTINUOUS
10
83.1038999999999959
20
-61.1614999999999966
11
83.1038999999999959
21
-79.3134999999999906
0
LINE
8
LYELLOW
6
CONTINUOUS
10
83.1439000000000021
20
-61.1634999999999991
11
83.1439000000000021
21
-79.3114999999999952
0
LINE
8
LYELLOW
6
CONTINUOUS
10
83.1838999999999942
20
-61.1644999999999968
11
83.1838999999999942
21
-79.3104999999999905
0
LINE
8
LYELLOW
6
CONTINUOUS
10
83.2239000000000004
20
-61.1664999999999992
11
83.2239000000000004
21
-79.3084999999999951
0
LINE
8
LYELLOW
6
CONTINUOUS
10
83.2638999999999925
20
-61.1684999999999945
11
83.2638999999999925
21
-79.3064999999999998
0
LINE
8
LYELLOW
6
CONTINUOUS
10
83.3038999999999987
20
-61.170499999999997
11
83.3038999999999987
21
-79.3044999999999902
0
LINE
8
LYELLOW
6
CONTINUOUS
10
83.3438999999999908
20
-61.1724999999999994
11
83.3438999999999908
21
-79.3024999999999949
0
LINE
8
LYELLOW
6
CONTINUOUS
10
83.383899999999997
20
-61.1744999999999948
11
83.383899999999997
21
-79.3004999999999995
0
LINE
8
LYELLOW
6
CONTINUOUS
10
83.4239000000000033
20
-61.1774999999999949
11
83.4239000000000033
21
-79.2974999999999994
0
LINE
8
LYELLOW
6
CONTINUOUS
10
83.4638999999999953
20
-61.1794999999999973
11
83.4638999999999953
21
-79.2954999999999899
0
LINE
8
LYELLOW
6
CONTINUOUS
10
83.5039000000000016
20
-61.1824999999999974
11
83.5039000000000016
21
-79.2924999999999898
0
LINE
8
LYELLOW
6
CONTINUOUS
10
83.5438999999999936
20
-61.1854999999999976
11
83.5438999999999936
21
-79.2894999999999897
0
LINE
8
LYELLOW
6
CONTINUOUS
10
83.5838999999999999
20
-61.1894999999999953
11
83.5838999999999999
21
-79.285499999999999
0
LINE
8
LYELLOW
6
CONTINUOUS
10
83.6238999999999919
20
-61.1924999999999955
11
83.6238999999999919
21
-79.2824999999999989
0
LINE
8
LYELLOW
6
CONTINUOUS
10
83.6638999999999982
20
-61.1965000000000003
11
83.6638999999999982
21
-79.278499999999994
0
LINE
8
LYELLOW
6
CONTINUOUS
10
83.7038999999999902
20
-61.2004999999999981
11
83.7038999999999902
21
-79.2745000000000033
0
LINE
8
LYELLOW
6
CONTINUOUS
10
83.7438999999999965
20
-61.2044999999999959
11
83.7438999999999965
21
-79.2704999999999984
0
LINE
8
LYELLOW
6
CONTINUOUS
10
83.7839000000000027
20
-61.2084999999999937
11
83.7839000000000027
21
-79.2664999999999935
0
LINE
8
LYELLOW
6
CONTINUOUS
10
83.8238999999999947
20
-61.2124999999999986
11
83.8238999999999947
21
-79.2625000000000028
0
LINE
8
LYELLOW
6
CONTINUOUS
10
83.863900000000001
20
-61.2164999999999964
11
83.863900000000001
21
-79.258499999999998
0
LINE
8
LYELLOW
6
CONTINUOUS
10
83.903899999999993
20
-61.2214999999999989
11
83.903899999999993
21
-79.2535000000000025
0
LINE
8
LYELLOW
6
CONTINUOUS
10
83.9438999999999993
20
-61.2264999999999944
11
83.9438999999999993
21
-79.2484999999999928
0
LINE
8
LYELLOW
6
CONTINUOUS
10
83.9838999999999913
20
-61.2314999999999969
11
83.9838999999999913
21
-79.2434999999999974
0
LINE
8
LYELLOW
6
CONTINUOUS
10
84.0238999999999976
20
-61.2364999999999995
11
84.0238999999999976
21
-79.2385000000000019
0
LINE
8
LYELLOW
6
CONTINUOUS
10
84.0638999999999896
20
-61.2424999999999997
11
84.0638999999999896
21
-79.2325000000000017
0
LINE
8
LYELLOW
6
CONTINUOUS
10
84.1038999999999959
20
-61.2474999999999952
11
84.1038999999999959
21
-79.227499999999992
0
LINE
8
LYELLOW
6
CONTINUOUS
10
84.1439000000000021
20
-61.2534999999999954
11
84.1439000000000021
21
-79.2214999999999918
0
LINE
8
LYELLOW
6
CONTINUOUS
10
84.1838999999999942
20
-61.2594999999999956
11
84.1838999999999942
21
-79.2154999999999916
0
LINE
8
LYELLOW
6
CONTINUOUS
10
84.2239000000000004
20
-61.2654999999999959
11
84.2239000000000004
21
-79.2094999999999914
0
LINE
8
LYELLOW
6
CONTINUOUS
10
84.2638999999999925
20
-61.2714999999999961
11
84.2638999999999925
21
-79.2034999999999911
0
LINE
8
LYELLOW
6
CONTINUOUS
10
84.3038999999999987
20
-61.278499999999994
11
84.3038999999999987
21
-79.1965000000000003
0
LINE
8
LYELLOW
6
CONTINUOUS
10
84.3438999999999908
20
-61.285499999999999
11
84.3438999999999908
21
-79.1894999999999953
0
LINE
8
LYELLOW
6
CONTINUOUS
10
84.383899999999997
20
-61.2914999999999992
11
84.383899999999997
21
-79.1834999999999951
0
LINE
8
LYELLOW
6
CONTINUOUS
10
84.4239000000000033
20
-61.2984999999999971
11
84.4239000000000033
21
-79.1764999999999901
0
LINE
8
LYELLOW
6
CONTINUOUS
10
84.4638999999999953
20
-61.3064999999999998
11
84.4638999999999953
21
-79.1684999999999945
0
LINE
8
LYELLOW
6
CONTINUOUS
10
84.5039000000000016
20
-61.3134999999999977
11
84.5039000000000016
21
-79.1614999999999895
0
LINE
8
LYELLOW
6
CONTINUOUS
10
84.5438999999999936
20
-61.3215000000000003
11
84.5438999999999936
21
-79.153499999999994
0
LINE
8
LYELLOW
6
CONTINUOUS
10
84.5838999999999999
20
-61.3284999999999982
11
84.5838999999999999
21
-79.1465000000000032
0
LINE
8
LYELLOW
6
CONTINUOUS
10
84.6238999999999919
20
-61.3364999999999938
11
84.6238999999999919
21
-79.1384999999999934
0
LINE
8
LYELLOW
6
CONTINUOUS
10
84.6638999999999982
20
-61.3454999999999941
11
84.6638999999999982
21
-79.1294999999999931
0
LINE
8
LYELLOW
6
CONTINUOUS
10
84.7038999999999902
20
-61.3534999999999968
11
84.7038999999999902
21
-79.1214999999999975
0
LINE
8
LYELLOW
6
CONTINUOUS
10
84.7438999999999965
20
-61.3614999999999995
11
84.7438999999999965
21
-79.1135000000000019
0
LINE
8
LYELLOW
6
CONTINUOUS
10
84.7839000000000027
20
-61.3704999999999998
11
84.7839000000000027
21
-79.1045000000000016
0
LINE
8
LYELLOW
6
CONTINUOUS
10
84.8238999999999947
20
-61.3795000000000002
11
84.8238999999999947
21
-79.0955000000000013
0
LINE
8
LYELLOW
6
CONTINUOUS
10
84.863900000000001
20
-61.3885000000000005
11
84.863900000000001
21
-79.0865000000000009
0
LINE
8
LYELLOW
6
CONTINUOUS
10
84.903899999999993
20
-61.3974999999999937
11
84.903899999999993
21
-79.0775000000000006
0
LINE
8
LYELLOW
6
CONTINUOUS
10
84.9438999999999993
20
-61.4074999999999989
11
84.9438999999999993
21
-79.0674999999999955
0
LINE
8
LYELLOW
6
CONTINUOUS
10
84.9838999999999913
20
-61.4164999999999992
11
84.9838999999999913
21
-79.0584999999999951
0
LINE
8
LYELLOW
6
CONTINUOUS
10
85.0238999999999976
20
-61.4264999999999972
11
85.0238999999999976
21
-79.04849999999999
0
LINE
8
LYELLOW
6
CONTINUOUS
10
85.0638999999999896
20
-61.4364999999999952
11
85.0638999999999896
21
-79.0384999999999991
0
LINE
8
LYELLOW
6
CONTINUOUS
10
85.1038999999999959
20
-61.447499999999998
11
85.1038999999999959
21
-79.0275000000000034
0
LINE
8
LYELLOW
6
CONTINUOUS
10
85.1439000000000021
20
-61.457499999999996
11
85.1439000000000021
21
-68.7974999999999994
0
LINE
8
LYELLOW
6
CONTINUOUS
10
85.1439000000000021
20
-71.6774999999999949
11
85.1439000000000021
21
-79.0174999999999983
0
LINE
8
LYELLOW
6
CONTINUOUS
10
85.1838999999999942
20
-61.4684999999999988
11
85.1838999999999942
21
-68.7974999999999994
0
LINE
8
LYELLOW
6
CONTINUOUS
10
85.1838999999999942
20
-71.6774999999999949
11
85.1838999999999942
21
-79.0065000000000026
0
LINE
8
LYELLOW
6
CONTINUOUS
10
85.2239000000000004
20
-61.4784999999999968
11
85.2239000000000004
21
-68.7974999999999994
0
LINE
8
LYELLOW
6
CONTINUOUS
10
85.2239000000000004
20
-71.6774999999999949
11
85.2239000000000004
21
-78.9964999999999975
0
LINE
8
LYELLOW
6
CONTINUOUS
10
85.2638999999999925
20
-61.4894999999999996
11
85.2638999999999925
21
-68.7974999999999994
0
LINE
8
LYELLOW
6
CONTINUOUS
10
85.2638999999999925
20
-71.6774999999999949
11
85.2638999999999925
21
-78.9855000000000018
0
LINE
8
LYELLOW
6
CONTINUOUS
10
85.3038999999999987
20
-61.5015000000000001
11
85.3038999999999987
21
-68.7974999999999994
0
LINE
8
LYELLOW
6
CONTINUOUS
10
85.3038999999999987
20
-71.6774999999999949
11
85.3038999999999987
21
-78.9735000000000014
0
LINE
8
LYELLOW
6
CONTINUOUS
10
85.3438999999999908
20
-61.5124999999999957
11
85.3438999999999908
21
-68.7974999999999994
0
LINE
8
LYELLOW
6
CONTINUOUS
10
85.3438999999999908
20
-71.6774999999999949
11
85.3438999999999908
21
-78.9624999999999915
0
LINE
8
LYELLOW
6
CONTINUOUS
10
85.383899999999997
20
-61.5244999999999962
11
85.383899999999997
21
-68.7974999999999994
0
LINE
8
LYELLOW
6
CONTINUOUS
10
85.383899999999997
20
-71.6774999999999949
11
85.383899999999997
21
-78.950499999999991
0
LINE
8
LYELLOW
6
CONTINUOUS
10
85.4238999999999891
20
-61.535499999999999
11
85.4238999999999891
21
-68.7974999999999994
0
LINE
8
LYELLOW
6
CONTINUOUS
10
85.4238999999999891
20
-71.6774999999999949
11
85.4238999999999891
21
-78.9394999999999953
0
LINE
8
LYELLOW
6
CONTINUOUS
10
85.4638999999999953
20
-61.5474999999999994
11
85.4638999999999953
21
-68.7974999999999994
0
LINE
8
LYELLOW
6
CONTINUOUS
10
85.4638999999999953
20
-71.6774999999999949
11
85.4638999999999953
21
-78.9274999999999949
0
LINE
8
LYELLOW
6
CONTINUOUS
10
85.5039000000000016
20
-61.5604999999999976
11
85.5039000000000016
21
-68.7974999999999994
0
LINE
8
LYELLOW
6
CONTINUOUS
10
85.5039000000000016
20
-71.6774999999999949
11
85.5039000000000016
21
-78.9144999999999897
0
LINE
8
LYELLOW
6
CONTINUOUS
10
85.5438999999999936
20
-61.572499999999998
11
85.5438999999999936
21
-68.7974999999999994
0
LINE
8
LYELLOW
6
CONTINUOUS
10
85.5438999999999936
20
-71.6774999999999949
11
85.5438999999999936
21
-78.9025000000000034
0
LINE
8
LYELLOW
6
CONTINUOUS
10
85.5838999999999999
20
-61.5854999999999961
11
85.5838999999999999
21
-68.7974999999999994
0
LINE
8
LYELLOW
6
CONTINUOUS
10
85.5838999999999999
20
-71.6774999999999949
11
85.5838999999999999
21
-78.8894999999999982
0
LINE
8
LYELLOW
6
CONTINUOUS
10
85.6238999999999919
20
-61.5974999999999966
11
85.6238999999999919
21
-68.7974999999999994
0
LINE
8
LYELLOW
6
CONTINUOUS
10
85.6238999999999919
20
-71.6774999999999949
11
85.6238999999999919
21
-78.8774999999999977
0
LINE
8
LYELLOW
6
CONTINUOUS
10
85.6638999999999982
20
-61.6104999999999947
11
85.6638999999999982
21
-68.7974999999999994
0
LINE
8
LYELLOW
6
CONTINUOUS
10
85.6638999999999982
20
-71.6774999999999949
11
85.6638999999999982
21
-78.8644999999999925
0
LINE
8
LYELLOW
6
CONTINUOUS
10
85.7038999999999902
20
-61.6244999999999976
11
85.7038999999999902
21
-68.7974999999999994
0
LINE
8
LYELLOW
6
CONTINUOUS
10
85.7038999999999902
20
-71.6774999999999949
11
85.7038999999999902
21
-78.8504999999999967
0
LINE
8
LYELLOW
6
CONTINUOUS
10
85.7438999999999965
20
-61.6374999999999957
11
85.7438999999999965
21
-68.7974999999999994
0
LINE
8
LYELLOW
6
CONTINUOUS
10
85.7438999999999965
20
-71.6774999999999949
11
85.7438999999999965
21
-78.8374999999999915
0
LINE
8
LYELLOW
6
CONTINUOUS
10
85.7839000000000027
20
-61.6514999999999986
11
85.7839000000000027
21
-68.7974999999999994
0
LINE
8
LYELLOW
6
CONTINUOUS
10
85.7839000000000027
20
-71.6774999999999949
11
85.7839000000000027
21
-78.8234999999999957
0
LINE
8
LYELLOW
6
CONTINUOUS
10
85.8238999999999947
20
-61.6654999999999944
11
85.8238999999999947
21
-68.7974999999999994
0
LINE
8
LYELLOW
6
CONTINUOUS
10
85.8238999999999947
20
-71.6774999999999949
11
85.8238999999999947
21
-78.8094999999999999
0
LINE
8
LYELLOW
6
CONTINUOUS
10
85.863900000000001
20
-61.6794999999999973
11
85.863900000000001
21
-68.7974999999999994
0
LINE
8
LYELLOW
6
CONTINUOUS
10
85.863900000000001
20
-71.6774999999999949
11
85.863900000000001
21
-78.7954999999999899
0
LINE
8
LYELLOW
6
CONTINUOUS
10
85.903899999999993
20
-61.6935000000000002
11
85.903899999999993
21
-68.7974999999999994
0
LINE
8
LYELLOW
6
CONTINUOUS
10
85.903899999999993
20
-71.6774999999999949
11
85.903899999999993
21
-78.7814999999999941
0
LINE
8
LYELLOW
6
CONTINUOUS
10
85.9438999999999993
20
-61.707499999999996
11
85.9438999999999993
21
-68.7974999999999994
0
LINE
8
LYELLOW
6
CONTINUOUS
10
85.9438999999999993
20
-71.6774999999999949
11
85.9438999999999993
21
-78.7674999999999983
0
LINE
8
LYELLOW
6
CONTINUOUS
10
85.9838999999999913
20
-61.7224999999999966
11
85.9838999999999913
21
-68.7974999999999994
0
LINE
8
LYELLOW
6
CONTINUOUS
10
85.9838999999999913
20
-71.6774999999999949
11
85.9838999999999913
21
-78.7524999999999977
0
LINE
8
LYELLOW
6
CONTINUOUS
10
86.0238999999999976
20
-61.7374999999999972
11
86.0238999999999976
21
-68.7974999999999994
0
LINE
8
LYELLOW
6
CONTINUOUS
10
86.0238999999999976
20
-71.6774999999999949
11
86.0238999999999976
21
-78.7374999999999972
0
LINE
8
LYELLOW
6
CONTINUOUS
10
86.0638999999999896
20
-61.7524999999999977
11
86.0638999999999896
21
-68.7974999999999994
0
LINE
8
LYELLOW
6
CONTINUOUS
10
86.0638999999999896
20
-71.6774999999999949
11
86.0638999999999896
21
-78.7224999999999966
0
LINE
8
LYELLOW
6
CONTINUOUS
10
86.1038999999999959
20
-61.7674999999999983
11
86.1038999999999959
21
-68.7974999999999994
0
LINE
8
LYELLOW
6
CONTINUOUS
10
86.1038999999999959
20
-71.6774999999999949
11
86.1038999999999959
21
-78.707499999999996
0
LINE
8
LYELLOW
6
CONTINUOUS
10
86.1439000000000021
20
-61.7834999999999965
11
86.1439000000000021
21
-68.7974999999999994
0
LINE
8
LYELLOW
6
CONTINUOUS
10
86.1439000000000021
20
-71.6774999999999949
11
86.1439000000000021
21
-78.6914999999999907
0
LINE
8
LYELLOW
6
CONTINUOUS
10
86.1838999999999942
20
-61.7994999999999948
11
86.1838999999999942
21
-68.7974999999999994
0
LINE
8
LYELLOW
6
CONTINUOUS
10
86.1838999999999942
20
-71.6774999999999949
11
86.1838999999999942
21
-78.6754999999999995
0
LINE
8
LYELLOW
6
CONTINUOUS
10
86.2239000000000004
20
-61.8144999999999953
11
86.2239000000000004
21
-68.7974999999999994
0
LINE
8
LYELLOW
6
CONTINUOUS
10
86.2239000000000004
20
-71.6774999999999949
11
86.2239000000000004
21
-78.660499999999999
0
LINE
8
LYELLOW
6
CONTINUOUS
10
86.2638999999999925
20
-61.8314999999999984
11
86.2638999999999925
21
-68.7974999999999994
0
LINE
8
LYELLOW
6
CONTINUOUS
10
86.2638999999999925
20
-71.6774999999999949
11
86.2638999999999925
21
-78.6435000000000031
0
LINE
8
LYELLOW
6
CONTINUOUS
10
86.3038999999999987
20
-61.8474999999999966
11
86.3038999999999987
21
-68.7974999999999994
0
LINE
8
LYELLOW
6
CONTINUOUS
10
86.3038999999999987
20
-71.6774999999999949
11
86.3038999999999987
21
-78.6274999999999977
0
LINE
8
LYELLOW
6
CONTINUOUS
10
86.3438999999999908
20
-61.8644999999999996
11
86.3438999999999908
21
-68.7974999999999994
0
LINE
8
LYELLOW
6
CONTINUOUS
10
86.3438999999999908
20
-71.6774999999999949
11
86.3438999999999908
21
-78.6105000000000018
0
LINE
8
LYELLOW
6
CONTINUOUS
10
86.383899999999997
20
-61.8814999999999955
11
86.383899999999997
21
-68.7974999999999994
0
LINE
8
LYELLOW
6
CONTINUOUS
10
86.383899999999997
20
-71.6774999999999949
11
86.383899999999997
21
-78.5934999999999917
0
LINE
8
LYELLOW
6
CONTINUOUS
10
86.4238999999999891
20
-61.8984999999999985
11
86.4238999999999891
21
-68.7974999999999994
0
LINE
8
LYELLOW
6
CONTINUOUS
10
86.4238999999999891
20
-71.6774999999999949
11
86.4238999999999891
21
-78.5764999999999958
0
LINE
8
LYELLOW
6
CONTINUOUS
10
86.4638999999999953
20
-61.9154999999999944
11
86.4638999999999953
21
-68.7974999999999994
0
LINE
8
LYELLOW
6
CONTINUOUS
10
86.4638999999999953
20
-71.6774999999999949
11
86.4638999999999953
21
-78.5594999999999999
0
LINE
8
LYELLOW
6
CONTINUOUS
10
86.5039000000000016
20
-61.9324999999999974
11
86.5039000000000016
21
-68.7974999999999994
0
LINE
8
LYELLOW
6
CONTINUOUS
10
86.5039000000000016
20
-71.6774999999999949
11
86.5039000000000016
21
-78.5424999999999898
0
LINE
8
LYELLOW
6
CONTINUOUS
10
86.5438999999999936
20
-61.9504999999999981
11
86.5438999999999936
21
-68.7974999999999994
0
LINE
8
LYELLOW
6
CONTINUOUS
10
86.5438999999999936
20
-71.6774999999999949
11
86.5438999999999936
21
-78.5245000000000033
0
LINE
8
LYELLOW
6
CONTINUOUS
10
86.5838999999999999
20
-61.9684999999999988
11
86.5838999999999999
21
-68.7974999999999994
0
LINE
8
LYELLOW
6
CONTINUOUS
10
86.5838999999999999
20
-71.6774999999999949
11
86.5838999999999999
21
-78.5065000000000026
0
LINE
8
LYELLOW
6
CONTINUOUS
10
86.6238999999999919
20
-61.9864999999999995
11
86.6238999999999919
21
-68.7974999999999994
0
LINE
8
LYELLOW
6
CONTINUOUS
10
86.6238999999999919
20
-71.6774999999999949
11
86.6238999999999919
21
-78.4885000000000019
0
LINE
8
LYELLOW
6
CONTINUOUS
10
86.6638999999999982
20
-62.0054999999999978
11
86.6638999999999982
21
-68.7974999999999994
0
LINE
8
LYELLOW
6
CONTINUOUS
10
86.6638999999999982
20
-71.6774999999999949
11
86.6638999999999982
21
-78.4694999999999965
0
LINE
8
LYELLOW
6
CONTINUOUS
10
86.7038999999999902
20
-62.0244999999999962
11
86.7038999999999902
21
-68.7974999999999994
0
LINE
8
LYELLOW
6
CONTINUOUS
10
86.7038999999999902
20
-71.6774999999999949
11
86.7038999999999902
21
-78.450499999999991
0
LINE
8
LYELLOW
6
CONTINUOUS
10
86.7438999999999965
20
-62.0424999999999969
11
86.7438999999999965
21
-68.7974999999999994
0
LINE
8
LYELLOW
6
CONTINUOUS
10
86.7438999999999965
20
-71.6774999999999949
11
86.7438999999999965
21
-78.4324999999999903
0
LINE
8
LYELLOW
6
CONTINUOUS
10
86.7839000000000027
20
-62.0625
11
86.7839000000000027
21
-68.7974999999999994
0
LINE
8
LYELLOW
6
CONTINUOUS
10
86.7839000000000027
20
-71.6774999999999949
11
86.7839000000000027
21
-78.4124999999999943
0
LINE
8
LYELLOW
6
CONTINUOUS
10
86.8238999999999947
20
-62.0814999999999984
11
86.8238999999999947
21
-68.7974999999999994
0
LINE
8
LYELLOW
6
CONTINUOUS
10
86.8238999999999947
20
-71.6774999999999949
11
86.8238999999999947
21
-78.3935000000000031
0
LINE
8
LYELLOW
6
CONTINUOUS
10
86.863900000000001
20
-62.1014999999999944
11
86.863900000000001
21
-68.7974999999999994
0
LINE
8
LYELLOW
6
CONTINUOUS
10
86.863900000000001
20
-71.6774999999999949
11
86.863900000000001
21
-78.3734999999999928
0
LINE
8
LYELLOW
6
CONTINUOUS
10
86.903899999999993
20
-62.1214999999999975
11
86.903899999999993
21
-68.7974999999999994
0
LINE
8
LYELLOW
6
CONTINUOUS
10
86.903899999999993
20
-71.6774999999999949
11
86.903899999999993
21
-78.3534999999999968
0
LINE
8
LYELLOW
6
CONTINUOUS
10
86.9438999999999993
20
-62.1415000000000006
11
86.9438999999999993
21
-68.7974999999999994
0
LINE
8
LYELLOW
6
CONTINUOUS
10
86.9438999999999993
20
-71.6774999999999949
11
86.9438999999999993
21
-78.3335000000000008
0
LINE
8
LYELLOW
6
CONTINUOUS
10
86.9838999999999913
20
-62.1614999999999966
11
86.9838999999999913
21
-68.7974999999999994
0
LINE
8
LYELLOW
6
CONTINUOUS
10
86.9838999999999913
20
-71.6774999999999949
11
86.9838999999999913
21
-78.3134999999999906
0
LINE
8
LYELLOW
6
CONTINUOUS
10
87.0238999999999976
20
-62.1824999999999974
11
87.0238999999999976
21
-68.7974999999999994
0
LINE
8
LYELLOW
6
CONTINUOUS
10
87.0238999999999976
20
-71.6774999999999949
11
87.0238999999999976
21
-78.2924999999999898
0
LINE
8
LYELLOW
6
CONTINUOUS
10
87.0638999999999896
20
-62.2034999999999982
11
87.0638999999999896
21
-68.7974999999999994
0
LINE
8
LYELLOW
6
CONTINUOUS
10
87.0638999999999896
20
-71.6774999999999949
11
87.0638999999999896
21
-78.2715000000000032
0
LINE
8
LYELLOW
6
CONTINUOUS
10
87.1038999999999959
20
-62.224499999999999
11
87.1038999999999959
21
-68.7974999999999994
0
LINE
8
LYELLOW
6
CONTINUOUS
10
87.1038999999999959
20
-71.6774999999999949
11
87.1038999999999959
21
-78.2505000000000024
0
LINE
8
LYELLOW
6
CONTINUOUS
10
87.1439000000000021
20
-62.2454999999999998
11
87.1439000000000021
21
-68.7974999999999994
0
LINE
8
LYELLOW
6
CONTINUOUS
10
87.1439000000000021
20
-71.6774999999999949
11
87.1439000000000021
21
-78.2295000000000016
0
LINE
8
LYELLOW
6
CONTINUOUS
10
87.1838999999999942
20
-62.2674999999999983
11
87.1838999999999942
21
-68.7974999999999994
0
LINE
8
LYELLOW
6
CONTINUOUS
10
87.1838999999999942
20
-71.6774999999999949
11
87.1838999999999942
21
-78.207499999999996
0
LINE
8
LYELLOW
6
CONTINUOUS
10
87.2239000000000004
20
-62.2894999999999968
11
87.2239000000000004
21
-68.7974999999999994
0
LINE
8
LYELLOW
6
CONTINUOUS
10
87.2239000000000004
20
-71.6774999999999949
11
87.2239000000000004
21
-78.1854999999999905
0
LINE
8
LYELLOW
6
CONTINUOUS
10
87.2638999999999925
20
-62.3114999999999952
11
87.2638999999999925
21
-68.7974999999999994
0
LINE
8
LYELLOW
6
CONTINUOUS
10
87.2638999999999925
20
-71.6774999999999949
11
87.2638999999999925
21
-78.1634999999999991
0
LINE
8
LYELLOW
6
CONTINUOUS
10
87.3038999999999987
20
-62.3334999999999937
11
87.3038999999999987
21
-68.7974999999999994
0
LINE
8
LYELLOW
6
CONTINUOUS
10
87.3038999999999987
20
-71.6774999999999949
11
87.3038999999999987
21
-78.1414999999999935
0
LINE
8
LYELLOW
6
CONTINUOUS
10
87.3438999999999908
20
-62.3564999999999969
11
87.3438999999999908
21
-68.7974999999999994
0
LINE
8
LYELLOW
6
CONTINUOUS
10
87.3438999999999908
20
-71.6774999999999949
11
87.3438999999999908
21
-78.1184999999999974
0
LINE
8
LYELLOW
6
CONTINUOUS
10
87.383899999999997
20
-62.3795000000000002
11
87.383899999999997
21
-68.7974999999999994
0
LINE
8
LYELLOW
6
CONTINUOUS
10
87.383899999999997
20
-71.6774999999999949
11
87.383899999999997
21
-78.0955000000000013
0
LINE
8
LYELLOW
6
CONTINUOUS
10
87.4238999999999891
20
-62.4024999999999963
11
87.4238999999999891
21
-68.7974999999999994
0
LINE
8
LYELLOW
6
CONTINUOUS
10
87.4238999999999891
20
-71.6774999999999949
11
87.4238999999999891
21
-78.0724999999999909
0
LINE
8
LYELLOW
6
CONTINUOUS
10
87.4638999999999953
20
-62.4264999999999972
11
87.4638999999999953
21
-68.7974999999999994
0
LINE
8
LYELLOW
6
CONTINUOUS
10
87.4638999999999953
20
-71.6774999999999949
11
87.4638999999999953
21
-78.04849999999999
0
LINE
8
LYELLOW
6
CONTINUOUS
10
87.5039000000000016
20
-62.4495000000000005
11
87.5039000000000016
21
-68.7974999999999994
0
LINE
8
LYELLOW
6
CONTINUOUS
10
87.5039000000000016
20
-71.6774999999999949
11
87.5039000000000016
21
-78.0254999999999939
0
LINE
8
LYELLOW
6
CONTINUOUS
10
87.5438999999999936
20
-62.4734999999999943
11
87.5438999999999936
21
-68.7974999999999994
0
LINE
8
LYELLOW
6
CONTINUOUS
10
87.5438999999999936
20
-71.6774999999999949
11
87.5438999999999936
21
-78.001499999999993
0
LINE
8
LYELLOW
6
CONTINUOUS
10
87.5838999999999999
20
-62.4984999999999999
11
87.5838999999999999
21
-68.7974999999999994
0
LINE
8
LYELLOW
6
CONTINUOUS
10
87.5838999999999999
20
-71.6774999999999949
11
87.5838999999999999
21
-77.9765000000000015
0
LINE
8
LYELLOW
6
CONTINUOUS
10
87.6238999999999919
20
-62.5224999999999937
11
87.6238999999999919
21
-68.7974999999999994
0
LINE
8
LYELLOW
6
CONTINUOUS
10
87.6238999999999919
20
-71.6774999999999949
11
87.6238999999999919
21
-77.9525000000000006
0
LINE
8
LYELLOW
6
CONTINUOUS
10
87.6638999999999982
20
-62.5474999999999994
11
87.6638999999999982
21
-68.7974999999999994
0
LINE
8
LYELLOW
6
CONTINUOUS
10
87.6638999999999982
20
-71.6774999999999949
11
87.6638999999999982
21
-77.9274999999999949
0
LINE
8
LYELLOW
6
CONTINUOUS
10
87.7038999999999902
20
-62.572499999999998
11
87.7038999999999902
21
-68.7974999999999994
0
LINE
8
LYELLOW
6
CONTINUOUS
10
87.7038999999999902
20
-71.6774999999999949
11
87.7038999999999902
21
-77.9025000000000034
0
LINE
8
LYELLOW
6
CONTINUOUS
10
87.7438999999999965
20
-62.5984999999999943
11
87.7438999999999965
21
-68.7974999999999994
0
LINE
8
LYELLOW
6
CONTINUOUS
10
87.7438999999999965
20
-71.6774999999999949
11
87.7438999999999965
21
-77.876499999999993
0
LINE
8
LYELLOW
6
CONTINUOUS
10
87.7839000000000027
20
-62.6244999999999976
11
87.7839000000000027
21
-68.7974999999999994
0
LINE
8
LYELLOW
6
CONTINUOUS
10
87.7839000000000027
20
-71.6774999999999949
11
87.7839000000000027
21
-77.8504999999999967
0
LINE
8
LYELLOW
6
CONTINUOUS
10
87.8238999999999947
20
-62.6504999999999939
11
87.8238999999999947
21
-68.7974999999999994
0
LINE
8
LYELLOW
6
CONTINUOUS
10
87.8238999999999947
20
-71.6774999999999949
11
87.8238999999999947
21
-77.8245000000000005
0
LINE
8
LYELLOW
6
CONTINUOUS
10
87.863900000000001
20
-62.6764999999999972
11
87.863900000000001
21
-68.7974999999999994
0
LINE
8
LYELLOW
6
CONTINUOUS
10
87.863900000000001
20
-71.6774999999999949
11
87.863900000000001
21
-77.79849999999999
0
LINE
8
LYELLOW
6
CONTINUOUS
10
87.903899999999993
20
-62.7034999999999982
11
87.903899999999993
21
-68.7974999999999994
0
LINE
8
LYELLOW
6
CONTINUOUS
10
87.903899999999993
20
-71.6774999999999949
11
87.903899999999993
21
-77.7715000000000032
0
LINE
8
LYELLOW
6
CONTINUOUS
10
87.9438999999999993
20
-62.7304999999999993
11
87.9438999999999993
21
-68.7974999999999994
0
LINE
8
LYELLOW
6
CONTINUOUS
10
87.9438999999999993
20
-71.6774999999999949
11
87.9438999999999993
21
-77.7445000000000022
0
LINE
8
LYELLOW
6
CONTINUOUS
10
87.9838999999999913
20
-62.7575000000000003
11
87.9838999999999913
21
-68.7974999999999994
0
LINE
8
LYELLOW
6
CONTINUOUS
10
87.9838999999999913
20
-71.6774999999999949
11
87.9838999999999913
21
-77.7175000000000011
0
LINE
8
LYELLOW
6
CONTINUOUS
10
88.0238999999999976
20
-62.785499999999999
11
88.0238999999999976
21
-77.6894999999999953
0
LINE
8
LYELLOW
6
CONTINUOUS
10
88.0638999999999896
20
-62.8134999999999977
11
88.0638999999999896
21
-77.6614999999999895
0
LINE
8
LYELLOW
6
CONTINUOUS
10
88.1038999999999959
20
-62.8414999999999964
11
88.1038999999999959
21
-77.633499999999998
0
LINE
8
LYELLOW
6
CONTINUOUS
10
88.1439000000000021
20
-62.8694999999999951
11
88.1439000000000021
21
-77.6054999999999922
0
LINE
8
LYELLOW
6
CONTINUOUS
10
88.1838999999999942
20
-62.8984999999999985
11
88.1838999999999942
21
-77.5764999999999958
0
LINE
8
LYELLOW
6
CONTINUOUS
10
88.2239000000000004
20
-62.9284999999999997
11
88.2239000000000004
21
-77.5464999999999947
0
LINE
8
LYELLOW
6
CONTINUOUS
10
88.2638999999999925
20
-62.957499999999996
11
88.2638999999999925
21
-77.5174999999999983
0
LINE
8
LYELLOW
6
CONTINUOUS
10
88.3038999999999987
20
-62.9874999999999972
11
88.3038999999999987
21
-77.4874999999999972
0
LINE
8
LYELLOW
6
CONTINUOUS
10
88.3438999999999908
20
-63.0174999999999983
11
88.3438999999999908
21
-77.457499999999996
0
LINE
8
LYELLOW
6
CONTINUOUS
10
88.383899999999997
20
-63.0484999999999971
11
88.383899999999997
21
-77.4264999999999901
0
LINE
8
LYELLOW
6
CONTINUOUS
10
88.4238999999999891
20
-63.0794999999999959
11
88.4238999999999891
21
-77.3954999999999984
0
LINE
8
LYELLOW
6
CONTINUOUS
10
88.4638999999999953
20
-63.1104999999999947
11
88.4638999999999953
21
-77.3644999999999925
0
LINE
8
LYELLOW
6
CONTINUOUS
10
88.5039000000000016
20
-63.1424999999999983
11
88.5039000000000016
21
-77.332499999999996
0
LINE
8
LYELLOW
6
CONTINUOUS
10
88.5438999999999936
20
-63.1744999999999948
11
88.5438999999999936
21
-77.3004999999999995
0
LINE
8
LYELLOW
6
CONTINUOUS
10
88.5838999999999999
20
-63.2064999999999984
11
88.5838999999999999
21
-77.2685000000000031
0
LINE
8
LYELLOW
6
CONTINUOUS
10
88.6238999999999919
20
-63.2394999999999996
11
88.6238999999999919
21
-77.2355000000000018
0
LINE
8
LYELLOW
6
CONTINUOUS
10
88.6638999999999982
20
-63.2724999999999937
11
88.6638999999999982
21
-77.2025000000000006
0
LINE
8
LYELLOW
6
CONTINUOUS
10
88.7038999999999902
20
-63.3064999999999998
11
88.7038999999999902
21
-77.1684999999999945
0
LINE
8
LYELLOW
6
CONTINUOUS
10
88.7438999999999965
20
-63.3404999999999987
11
88.7438999999999965
21
-77.1345000000000027
0
LINE
8
LYELLOW
6
CONTINUOUS
10
88.7839000000000027
20
-63.3744999999999976
11
88.7839000000000027
21
-77.1004999999999967
0
LINE
8
LYELLOW
6
CONTINUOUS
10
88.8238999999999947
20
-63.4094999999999942
11
88.8238999999999947
21
-77.0655000000000001
0
LINE
8
LYELLOW
6
CONTINUOUS
10
88.863900000000001
20
-63.4444999999999979
11
88.863900000000001
21
-77.0305000000000035
0
LINE
8
LYELLOW
6
CONTINUOUS
10
88.903899999999993
20
-63.4794999999999945
11
88.903899999999993
21
-76.9954999999999927
0
LINE
8
LYELLOW
6
CONTINUOUS
10
88.9438999999999993
20
-63.5154999999999959
11
88.9438999999999993
21
-76.9594999999999914
0
LINE
8
LYELLOW
6
CONTINUOUS
10
88.9838999999999913
20
-63.5524999999999949
11
88.9838999999999913
21
-76.9224999999999994
0
LINE
8
LYELLOW
6
CONTINUOUS
10
89.0238999999999976
20
-63.5894999999999939
11
89.0238999999999976
21
-76.8854999999999933
0
LINE
8
LYELLOW
6
CONTINUOUS
10
89.0638999999999896
20
-63.6265000000000001
11
89.0638999999999896
21
-76.8485000000000014
0
LINE
8
LYELLOW
6
CONTINUOUS
10
89.1038999999999959
20
-63.6644999999999968
11
89.1038999999999959
21
-76.8104999999999905
0
LINE
8
LYELLOW
6
CONTINUOUS
10
89.1439000000000021
20
-63.7025000000000006
11
89.1439000000000021
21
-76.7724999999999937
0
LINE
8
LYELLOW
6
CONTINUOUS
10
89.1838999999999942
20
-63.7414999999999949
11
89.1838999999999942
21
-76.7334999999999923
0
LINE
8
LYELLOW
6
CONTINUOUS
10
89.2239000000000004
20
-63.7804999999999964
11
89.2239000000000004
21
-76.6944999999999908
0
LINE
8
LYELLOW
6
CONTINUOUS
10
89.2638999999999925
20
-63.8194999999999979
11
89.2638999999999925
21
-76.6555000000000035
0
LINE
8
LYELLOW
6
CONTINUOUS
10
89.3038999999999987
20
-63.8604999999999947
11
89.3038999999999987
21
-76.6144999999999925
0
LINE
8
LYELLOW
6
CONTINUOUS
10
89.3438999999999908
20
-63.9004999999999939
11
89.3438999999999908
21
-76.5745000000000005
0
LINE
8
LYELLOW
6
CONTINUOUS
10
89.383899999999997
20
-63.9414999999999978
11
89.383899999999997
21
-76.5335000000000036
0
LINE
8
LYELLOW
6
CONTINUOUS
10
89.4238999999999891
20
-63.9834999999999994
11
89.4238999999999891
21
-76.491500000000002
0
LINE
8
LYELLOW
6
CONTINUOUS
10
89.4638999999999953
20
-64.0254999999999939
11
89.4638999999999953
21
-76.4495000000000005
0
LINE
8
LYELLOW
6
CONTINUOUS
10
89.5039000000000016
20
-64.0685000000000002
11
89.5039000000000016
21
-76.4064999999999941
0
LINE
8
LYELLOW
6
CONTINUOUS
10
89.5438999999999936
20
-64.1114999999999924
11
89.5438999999999936
21
-76.3635000000000019
0
LINE
8
LYELLOW
6
CONTINUOUS
10
89.5838999999999999
20
-64.1555000000000035
11
89.5838999999999999
21
-76.3194999999999908
0
LINE
8
LYELLOW
6
CONTINUOUS
10
89.6238999999999919
20
-64.200499999999991
11
89.6238999999999919
21
-76.2745000000000033
0
LINE
8
LYELLOW
6
CONTINUOUS
10
89.6638999999999982
20
-64.2454999999999927
11
89.6638999999999982
21
-76.2295000000000016
0
LINE
8
LYELLOW
6
CONTINUOUS
10
89.7038999999999902
20
-64.2904999999999944
11
89.7038999999999902
21
-76.1844999999999999
0
LINE
8
LYELLOW
6
CONTINUOUS
10
89.7438999999999965
20
-64.3374999999999915
11
89.7438999999999965
21
-76.1375000000000028
0
LINE
8
LYELLOW
6
CONTINUOUS
10
89.7839000000000027
20
-64.3845000000000027
11
89.7839000000000027
21
-76.0904999999999916
0
LINE
8
LYELLOW
6
CONTINUOUS
10
89.8238999999999947
20
-64.4314999999999998
11
89.8238999999999947
21
-76.0434999999999945
0
LINE
8
LYELLOW
6
CONTINUOUS
10
89.863900000000001
20
-64.4795000000000016
11
89.863900000000001
21
-75.9954999999999927
0
LINE
8
LYELLOW
6
CONTINUOUS
10
89.903899999999993
20
-64.528499999999994
11
89.903899999999993
21
-75.9465000000000003
0
LINE
8
LYELLOW
6
CONTINUOUS
10
89.9438999999999993
20
-64.5784999999999911
11
89.9438999999999993
21
-75.8965000000000032
0
LINE
8
LYELLOW
6
CONTINUOUS
10
89.9838999999999913
20
-64.6285000000000025
11
89.9838999999999913
21
-75.8464999999999918
0
LINE
8
LYELLOW
6
CONTINUOUS
10
90.0238999999999976
20
-64.6794999999999902
11
90.0238999999999976
21
-75.7954999999999899
0
LINE
8
LYELLOW
6
CONTINUOUS
10
90.0638999999999896
20
-64.7314999999999969
11
90.0638999999999896
21
-75.7434999999999974
0
LINE
8
LYELLOW
6
CONTINUOUS
10
90.1038999999999959
20
-64.7844999999999942
11
90.1038999999999959
21
-75.6905000000000001
0
LINE
8
LYELLOW
6
CONTINUOUS
10
90.1439000000000021
20
-64.8374999999999915
11
90.1439000000000021
21
-75.6375000000000028
0
LINE
8
LYELLOW
6
CONTINUOUS
10
90.1838999999999942
20
-64.8914999999999935
11
90.1838999999999942
21
-75.5835000000000008
0
LINE
8
LYELLOW
6
CONTINUOUS
10
90.2239000000000004
20
-64.9465000000000003
11
90.2239000000000004
21
-75.528499999999994
0
LINE
8
LYELLOW
6
CONTINUOUS
10
90.2638999999999925
20
-65.0024999999999977
11
90.2638999999999925
21
-75.4724999999999966
0
LINE
8
LYELLOW
6
CONTINUOUS
10
90.3038999999999987
20
-65.0594999999999999
11
90.3038999999999987
21
-75.4154999999999944
0
LINE
8
LYELLOW
6
CONTINUOUS
10
90.3438999999999908
20
-65.1174999999999926
11
90.3438999999999908
21
-75.3575000000000017
0
LINE
8
LYELLOW
6
CONTINUOUS
10
90.383899999999997
20
-65.1764999999999901
11
90.383899999999997
21
-75.29849999999999
0
LINE
8
LYELLOW
6
CONTINUOUS
10
90.4238999999999891
20
-65.2364999999999924
11
90.4238999999999891
21
-75.2385000000000019
0
LINE
8
LYELLOW
6
CONTINUOUS
10
90.4638999999999953
20
-65.2974999999999994
11
90.4638999999999953
21
-75.1774999999999949
0
LINE
8
LYELLOW
6
CONTINUOUS
10
90.5039000000000016
20
-65.3584999999999923
11
90.5039000000000016
21
-75.116500000000002
0
LINE
8
LYELLOW
6
CONTINUOUS
10
90.5438999999999936
20
-65.4214999999999947
11
90.5438999999999936
21
-75.0534999999999997
0
LINE
8
LYELLOW
6
CONTINUOUS
10
90.5838999999999999
20
-65.4864999999999924
11
90.5838999999999999
21
-74.9885000000000019
0
LINE
8
LYELLOW
6
CONTINUOUS
10
90.6238999999999919
20
-65.5514999999999901
11
90.6238999999999919
21
-74.92349999999999
0
LINE
8
LYELLOW
6
CONTINUOUS
10
90.6638999999999982
20
-65.6184999999999974
11
90.6638999999999982
21
-74.8564999999999969
0
LINE
8
LYELLOW
6
CONTINUOUS
10
90.7038999999999902
20
-65.6864999999999952
11
90.7038999999999902
21
-74.7884999999999991
0
LINE
8
LYELLOW
6
CONTINUOUS
10
90.7438999999999965
20
-65.7554999999999978
11
90.7438999999999965
21
-74.7194999999999965
0
LINE
8
LYELLOW
6
CONTINUOUS
10
90.7839000000000027
20
-65.8264999999999958
11
90.7839000000000027
21
-74.6484999999999985
0
LINE
8
LYELLOW
6
CONTINUOUS
10
90.8238999999999947
20
-65.8984999999999985
11
90.8238999999999947
21
-74.5764999999999958
0
LINE
8
LYELLOW
6
CONTINUOUS
10
90.863900000000001
20
-65.9724999999999966
11
90.863900000000001
21
-74.5024999999999977
0
LINE
8
LYELLOW
6
CONTINUOUS
10
90.903899999999993
20
-66.04849999999999
11
90.903899999999993
21
-74.4264999999999901
0
LINE
8
LYELLOW
6
CONTINUOUS
10
90.9438999999999993
20
-66.1255000000000024
11
90.9438999999999993
21
-74.3494999999999919
0
LINE
8
LYELLOW
6
CONTINUOUS
10
90.9838999999999913
20
-66.2044999999999959
11
90.9838999999999913
21
-74.2704999999999984
0
LINE
8
LYELLOW
6
CONTINUOUS
10
91.0238999999999976
20
-66.285499999999999
11
91.0238999999999976
21
-74.1894999999999953
0
LINE
8
LYELLOW
6
CONTINUOUS
10
91.0638999999999896
20
-66.3684999999999974
11
91.0638999999999896
21
-74.1064999999999969
0
LINE
8
LYELLOW
6
CONTINUOUS
10
91.1038999999999959
20
-66.4544999999999959
11
91.1038999999999959
21
-74.0204999999999984
0
LINE
8
LYELLOW
6
CONTINUOUS
10
91.1439000000000021
20
-66.542500000000004
11
91.1439000000000021
21
-73.9324999999999903
0
LINE
8
LYELLOW
6
CONTINUOUS
10
91.1838999999999942
20
-66.6324999999999932
11
91.1838999999999942
21
-73.8425000000000011
0
LINE
8
LYELLOW
6
CONTINUOUS
10
91.2239000000000004
20
-66.7254999999999967
11
91.2239000000000004
21
-73.7494999999999976
0
LINE
8
LYELLOW
6
CONTINUOUS
10
91.2638999999999925
20
-66.8215000000000003
11
91.2638999999999925
21
-73.653499999999994
0
LINE
8
LYELLOW
6
CONTINUOUS
10
91.3038999999999987
20
-66.9214999999999947
11
91.3038999999999987
21
-73.5534999999999997
0
LINE
8
LYELLOW
6
CONTINUOUS
10
91.3438999999999908
20
-67.0245000000000033
11
91.3438999999999908
21
-73.450499999999991
0
LINE
8
LYELLOW
6
CONTINUOUS
10
91.383899999999997
20
-67.1304999999999978
11
91.383899999999997
21
-73.3444999999999965
0
LINE
8
LYELLOW
6
CONTINUOUS
10
91.4238999999999891
20
-67.241500000000002
11
91.4238999999999891
21
-73.2334999999999923
0
LINE
8
LYELLOW
6
CONTINUOUS
10
91.4638999999999953
20
-67.3575000000000017
11
91.4638999999999953
21
-73.1174999999999926
0
LINE
8
LYELLOW
6
CONTINUOUS
10
91.5039000000000016
20
-67.4784999999999968
11
91.5039000000000016
21
-72.9964999999999975
0
LINE
8
LYELLOW
6
CONTINUOUS
10
91.5438999999999936
20
-67.6064999999999969
11
91.5438999999999936
21
-72.8684999999999974
0
LINE
8
LYELLOW
6
CONTINUOUS
10
91.5838999999999999
20
-67.7404999999999973
11
91.5838999999999999
21
-72.734499999999997
0
LINE
8
LYELLOW
6
CONTINUOUS
10
91.6238999999999919
20
-67.8824999999999932
11
91.6238999999999919
21
-72.5925000000000011
0
LINE
8
LYELLOW
6
CONTINUOUS
10
91.6638999999999982
20
-68.035499999999999
11
91.6638999999999982
21
-72.4394999999999953
0
LINE
8
LYELLOW
6
CONTINUOUS
10
91.7038999999999902
20
-68.1995000000000005
11
91.7038999999999902
21
-72.2754999999999939
0
LINE
8
LYELLOW
6
CONTINUOUS
10
91.7438999999999965
20
-68.3785000000000025
11
91.7438999999999965
21
-72.0964999999999918
0
LINE
8
LYELLOW
6
CONTINUOUS
10
91.7839000000000027
20
-68.5764999999999958
11
91.7839000000000027
21
-71.8984999999999985
0
LINE
8
LYELLOW
6
CONTINUOUS
10
91.8238999999999947
20
-68.8024999999999949
11
91.8238999999999947
21
-71.6724999999999994
0
LINE
8
LYELLOW
6
CONTINUOUS
10
91.863900000000001
20
-69.0724999999999909
11
91.863900000000001
21
-71.4025000000000034
0
LINE
8
LYELLOW
6
CONTINUOUS
10
91.903899999999993
20
-69.4244999999999948
11
91.903899999999993
21
-71.0504999999999995
0
LINE
8
LYELLOW
6
CONTINUOUS
10
91.9438999999999993
20
-70.2775000000000034
11
91.9438999999999993
21
-70.1974999999999909
0
CIRCLE
8
LYELLOW
10
82.8238999999999947
20
-70.2374999999999972
40
9.1199999999999992
0
LINE
8
LYELLOW
6
CONTINUOUS
10
48.9699600000000004
20
-86.6724999999999994
11
50.7699599999999975
21
-86.6724999999999994
0
LINE
8
LYELLOW
6
CONTINUOUS
10
49.869959999999999
20
-85.7724999999999937
11
49.869959999999999
21
-87.5724999999999909
0
LINE
8
LYELLOW
6
CONTINUOUS
10
58.7293999999999983
20
-82.707499999999996
11
58.7293999999999983
21
-100.8674999999999926
0
LINE
8
LYELLOW
6
CONTINUOUS
10
58.7693999999999974
20
-82.707499999999996
11
58.7693999999999974
21
-100.8674999999999926
0
LINE
8
LYELLOW
6
CONTINUOUS
10
58.8093999999999966
20
-82.707499999999996
11
58.8093999999999966
21
-100.8674999999999926
0
LINE
8
LYELLOW
6
CONTINUOUS
10
58.8493999999999957
20
-82.7085000000000008
11
58.8493999999999957
21
-100.866500000000002
0
LINE
8
LYELLOW
6
CONTINUOUS
10
58.8893999999999949
20
-82.7085000000000008
11
58.8893999999999949
21
-100.866500000000002
0
LINE
8
LYELLOW
6
CONTINUOUS
10
58.929399999999994
20
-82.7094999999999914
11
58.929399999999994
21
-100.8654999999999973
0
LINE
8
LYELLOW
6
CONTINUOUS
10
58.9694000000000003
20
-82.7104999999999961
11
58.9694000000000003
21
-100.8644999999999925
0
LINE
8
LYELLOW
6
CONTINUOUS
10
59.0093999999999994
20
-82.7115000000000009
11
59.0093999999999994
21
-100.8635000000000019
0
LINE
8
LYELLOW
6
CONTINUOUS
10
59.0493999999999986
20
-82.7134999999999962
11
59.0493999999999986
21
-100.8614999999999924
0
LINE
8
LYELLOW
6
CONTINUOUS
10
59.0893999999999977
20
-82.714500000000001
11
59.0893999999999977
21
-100.8605000000000018
0
LINE
8
LYELLOW
6
CONTINUOUS
10
59.1293999999999969
20
-82.7164999999999964
11
59.1293999999999969
21
-100.8584999999999923
0
LINE
8
LYELLOW
6
CONTINUOUS
10
59.169399999999996
20
-82.7184999999999917
11
59.169399999999996
21
-100.8564999999999969
0
LINE
8
LYELLOW
6
CONTINUOUS
10
59.2093999999999951
20
-82.7205000000000013
11
59.2093999999999951
21
-100.8545000000000016
0
LINE
8
LYELLOW
6
CONTINUOUS
10
59.2493999999999943
20
-82.7224999999999966
11
59.2493999999999943
21
-100.852499999999992
0
LINE
8
LYELLOW
6
CONTINUOUS
10
59.2894000000000005
20
-82.7244999999999919
11
59.2894000000000005
21
-100.8504999999999967
0
LINE
8
LYELLOW
6
CONTINUOUS
10
59.3293999999999997
20
-82.727499999999992
11
59.3293999999999997
21
-100.8474999999999966
0
LINE
8
LYELLOW
6
CONTINUOUS
10
59.3693999999999988
20
-82.7295000000000016
11
59.3693999999999988
21
-100.8455000000000013
0
LINE
8
LYELLOW
6
CONTINUOUS
10
59.409399999999998
20
-82.7325000000000017
11
59.409399999999998
21
-100.8425000000000011
0
LINE
8
LYELLOW
6
CONTINUOUS
10
59.4493999999999971
20
-82.7355000000000018
11
59.4493999999999971
21
-100.839500000000001
0
LINE
8
LYELLOW
6
CONTINUOUS
10
59.4893999999999963
20
-82.7394999999999925
11
59.4893999999999963
21
-100.8354999999999961
0
LINE
8
LYELLOW
6
CONTINUOUS
10
59.5293999999999954
20
-82.7424999999999926
11
59.5293999999999954
21
-100.832499999999996
0
LINE
8
LYELLOW
6
CONTINUOUS
10
59.5693999999999946
20
-82.7464999999999975
11
59.5693999999999946
21
-100.8284999999999911
0
LINE
8
LYELLOW
6
CONTINUOUS
10
59.6094000000000008
20
-82.7505000000000024
11
59.6094000000000008
21
-100.8245000000000005
0
LINE
8
LYELLOW
6
CONTINUOUS
10
59.6494
20
-82.7544999999999931
11
59.6494
21
-100.8204999999999956
0
LINE
8
LYELLOW
6
CONTINUOUS
10
59.6893999999999991
20
-82.758499999999998
11
59.6893999999999991
21
-100.8164999999999907
0
LINE
8
LYELLOW
6
CONTINUOUS
10
59.7293999999999983
20
-82.7625000000000028
11
59.7293999999999983
21
-100.8125
0
LINE
8
LYELLOW
6
CONTINUOUS
10
59.7693999999999974
20
-82.7664999999999935
11
59.7693999999999974
21
-100.8084999999999951
0
LINE
8
LYELLOW
6
CONTINUOUS
10
59.8093999999999966
20
-82.7715000000000032
11
59.8093999999999966
21
-100.8034999999999997
0
LINE
8
LYELLOW
6
CONTINUOUS
10
59.8493999999999957
20
-82.7764999999999986
11
59.8493999999999957
21
-100.79849999999999
0
LINE
8
LYELLOW
6
CONTINUOUS
10
59.8893999999999949
20
-82.7814999999999941
11
59.8893999999999949
21
-100.7934999999999945
0
LINE
8
LYELLOW
6
CONTINUOUS
10
59.929399999999994
20
-82.7864999999999895
11
59.929399999999994
21
-100.7884999999999991
0
LINE
8
LYELLOW
6
CONTINUOUS
10
59.9694000000000003
20
-82.7924999999999898
11
59.9694000000000003
21
-100.7824999999999989
0
LINE
8
LYELLOW
6
CONTINUOUS
10
60.0093999999999994
20
-82.7974999999999994
11
60.0093999999999994
21
-100.7774999999999892
0
LINE
8
LYELLOW
6
CONTINUOUS
10
60.0493999999999986
20
-82.8034999999999997
11
60.0493999999999986
21
-100.771499999999989
0
LINE
8
LYELLOW
6
CONTINUOUS
10
60.0893999999999977
20
-82.8094999999999999
11
60.0893999999999977
21
-100.7654999999999887
0
LINE
8
LYELLOW
6
CONTINUOUS
10
60.1293999999999969
20
-82.8155000000000001
11
60.1293999999999969
21
-100.7594999999999885
0
LINE
8
LYELLOW
6
CONTINUOUS
10
60.169399999999996
20
-82.8215000000000003
11
60.169399999999996
21
-100.7535000000000025
0
LINE
8
LYELLOW
6
CONTINUOUS
10
60.2093999999999951
20
-82.8284999999999911
11
60.2093999999999951
21
-100.7464999999999975
0
LINE
8
LYELLOW
6
CONTINUOUS
10
60.2493999999999943
20
-82.8354999999999961
11
60.2493999999999943
21
-100.7394999999999925
0
LINE
8
LYELLOW
6
CONTINUOUS
10
60.2894000000000005
20
-82.8414999999999964
11
60.2894000000000005
21
-100.7334999999999923
0
LINE
8
LYELLOW
6
CONTINUOUS
10
60.3293999999999997
20
-82.8485000000000014
11
60.3293999999999997
21
-100.7265000000000015
0
LINE
8
LYELLOW
6
CONTINUOUS
10
60.3693999999999988
20
-82.8564999999999969
11
60.3693999999999988
21
-100.7184999999999917
0
LINE
8
LYELLOW
6
CONTINUOUS
10
60.409399999999998
20
-82.8635000000000019
11
60.409399999999998
21
-100.7115000000000009
0
LINE
8
LYELLOW
6
CONTINUOUS
10
60.4493999999999971
20
-82.8714999999999975
11
60.4493999999999971
21
-100.7034999999999911
0
LINE
8
LYELLOW
6
CONTINUOUS
10
60.4893999999999963
20
-82.8785000000000025
11
60.4893999999999963
21
-100.6965000000000003
0
LINE
8
LYELLOW
6
CONTINUOUS
10
60.5293999999999954
20
-82.8864999999999981
11
60.5293999999999954
21
-100.6884999999999906
0
LINE
8
LYELLOW
6
CONTINUOUS
10
60.5693999999999946
20
-82.8954999999999984
11
60.5693999999999946
21
-100.6794999999999902
0
LINE
8
LYELLOW
6
CONTINUOUS
10
60.6093999999999937
20
-82.903499999999994
11
60.6093999999999937
21
-100.6714999999999947
0
LINE
8
LYELLOW
6
CONTINUOUS
10
60.6494
20
-82.9114999999999895
11
60.6494
21
-100.6634999999999991
0
LINE
8
LYELLOW
6
CONTINUOUS
10
60.6893999999999991
20
-82.9204999999999899
11
60.6893999999999991
21
-100.6544999999999987
0
LINE
8
LYELLOW
6
CONTINUOUS
10
60.7293999999999983
20
-82.9294999999999902
11
60.7293999999999983
21
-100.6454999999999984
0
LINE
8
LYELLOW
6
CONTINUOUS
10
60.7693999999999974
20
-82.9384999999999906
11
60.7693999999999974
21
-100.6364999999999981
0
LINE
8
LYELLOW
6
CONTINUOUS
10
60.8093999999999966
20
-82.9474999999999909
11
60.8093999999999966
21
-100.6274999999999977
0
LINE
8
LYELLOW
6
CONTINUOUS
10
60.8493999999999957
20
-82.957499999999996
11
60.8493999999999957
21
-100.6174999999999926
0
LINE
8
LYELLOW
6
CONTINUOUS
10
60.8893999999999949
20
-82.9664999999999964
11
60.8893999999999949
21
-100.6084999999999923
0
LINE
8
LYELLOW
6
CONTINUOUS
10
60.929399999999994
20
-82.9765000000000015
11
60.929399999999994
21
-100.5985000000000014
0
LINE
8
LYELLOW
6
CONTINUOUS
10
60.9694000000000003
20
-82.9864999999999924
11
60.9694000000000003
21
-100.5884999999999962
0
LINE
8
LYELLOW
6
CONTINUOUS
10
61.0093999999999994
20
-82.9975000000000023
11
61.0093999999999994
21
-100.5775000000000006
0
LINE
8
LYELLOW
6
CONTINUOUS
10
61.0493999999999986
20
-83.0074999999999932
11
61.0493999999999986
21
-90.3474999999999966
0
LINE
8
LYELLOW
6
CONTINUOUS
10
61.0493999999999986
20
-93.227499999999992
11
61.0493999999999986
21
-100.5674999999999955
0
LINE
8
LYELLOW
6
CONTINUOUS
10
61.0893999999999977
20
-83.0185000000000031
11
61.0893999999999977
21
-90.3474999999999966
0
LINE
8
LYELLOW
6
CONTINUOUS
10
61.0893999999999977
20
-93.227499999999992
11
61.0893999999999977
21
-100.5564999999999998
0
LINE
8
LYELLOW
6
CONTINUOUS
10
61.1293999999999969
20
-83.028499999999994
11
61.1293999999999969
21
-90.3474999999999966
0
LINE
8
LYELLOW
6
CONTINUOUS
10
61.1293999999999969
20
-93.227499999999992
11
61.1293999999999969
21
-100.5464999999999947
0
LINE
8
LYELLOW
6
CONTINUOUS
10
61.169399999999996
20
-83.0394999999999897
11
61.169399999999996
21
-90.3474999999999966
0
LINE
8
LYELLOW
6
CONTINUOUS
10
61.169399999999996
20
-93.227499999999992
11
61.169399999999996
21
-100.535499999999999
0
LINE
8
LYELLOW
6
CONTINUOUS
10
61.2093999999999951
20
-83.0514999999999901
11
61.2093999999999951
21
-90.3474999999999966
0
LINE
8
LYELLOW
6
CONTINUOUS
10
61.2093999999999951
20
-93.227499999999992
11
61.2093999999999951
21
-100.5234999999999985
0
LINE
8
LYELLOW
6
CONTINUOUS
10
61.2493999999999943
20
-83.0625
11
61.2493999999999943
21
-90.3474999999999966
0
LINE
8
LYELLOW
6
CONTINUOUS
10
61.2493999999999943
20
-93.227499999999992
11
61.2493999999999943
21
-100.5124999999999886
0
LINE
8
LYELLOW
6
CONTINUOUS
10
61.2894000000000005
20
-83.0745000000000005
11
61.2894000000000005
21
-90.3474999999999966
0
LINE
8
LYELLOW
6
CONTINUOUS
10
61.2894000000000005
20
-93.227499999999992
11
61.2894000000000005
21
-100.5005000000000024
0
LINE
8
LYELLOW
6
CONTINUOUS
10
61.3293999999999997
20
-83.0854999999999961
11
61.3293999999999997
21
-90.3474999999999966
0
LINE
8
LYELLOW
6
CONTINUOUS
10
61.3293999999999997
20
-93.227499999999992
11
61.3293999999999997
21
-100.4894999999999925
0
LINE
8
LYELLOW
6
CONTINUOUS
10
61.3693999999999988
20
-83.0974999999999966
11
61.3693999999999988
21
-90.3474999999999966
0
LINE
8
LYELLOW
6
CONTINUOUS
10
61.3693999999999988
20
-93.227499999999992
11
61.3693999999999988
21
-100.477499999999992
0
LINE
8
LYELLOW
6
CONTINUOUS
10
61.409399999999998
20
-83.1105000000000018
11
61.409399999999998
21
-90.3474999999999966
0
LINE
8
LYELLOW
6
CONTINUOUS
10
61.409399999999998
20
-93.227499999999992
11
61.409399999999998
21
-100.464500000000001
0
LINE
8
LYELLOW
6
CONTINUOUS
10
61.4493999999999971
20
-83.1225000000000023
11
61.4493999999999971
21
-90.3474999999999966
0
LINE
8
LYELLOW
6
CONTINUOUS
10
61.4493999999999971
20
-93.227499999999992
11
61.4493999999999971
21
-100.4525000000000006
0
LINE
8
LYELLOW
6
CONTINUOUS
10
61.4893999999999963
20
-83.1354999999999933
11
61.4893999999999963
21
-90.3474999999999966
0
LINE
8
LYELLOW
6
CONTINUOUS
10
61.4893999999999963
20
-93.227499999999992
11
61.4893999999999963
21
-100.4394999999999953
0
LINE
8
LYELLOW
6
CONTINUOUS
10
61.5293999999999954
20
-83.1474999999999937
11
61.5293999999999954
21
-90.3474999999999966
0
LINE
8
LYELLOW
6
CONTINUOUS
10
61.5293999999999954
20
-93.227499999999992
11
61.5293999999999954
21
-100.4274999999999949
0
LINE
8
LYELLOW
6
CONTINUOUS
10
61.5693999999999946
20
-83.160499999999999
11
61.5693999999999946
21
-90.3474999999999966
0
LINE
8
LYELLOW
6
CONTINUOUS
10
61.5693999999999946
20
-93.227499999999992
11
61.5693999999999946
21
-100.4144999999999897
0
LINE
8
LYELLOW
6
CONTINUOUS
10
61.6093999999999937
20
-83.1744999999999948
11
61.6093999999999937
21
-90.3474999999999966
0
LINE
8
LYELLOW
6
CONTINUOUS
10
61.6093999999999937
20
-93.227499999999992
11
61.6093999999999937
21
-100.4004999999999939
0
LINE
8
LYELLOW
6
CONTINUOUS
10
61.6494
20
-83.1875
11
61.6494
21
-90.3474999999999966
0
LINE
8
LYELLOW
6
CONTINUOUS
10
61.6494
20
-93.227499999999992
11
61.6494
21
-100.3874999999999886
0
LINE
8
LYELLOW
6
CONTINUOUS
10
61.6893999999999991
20
-83.2014999999999958
11
61.6893999999999991
21
-90.3474999999999966
0
LINE
8
LYELLOW
6
CONTINUOUS
10
61.6893999999999991
20
-93.227499999999992
11
61.6893999999999991
21
-100.3734999999999928
0
LINE
8
LYELLOW
6
CONTINUOUS
10
61.7293999999999983
20
-83.2154999999999916
11
61.7293999999999983
21
-90.3474999999999966
0
LINE
8
LYELLOW
6
CONTINUOUS
10
61.7293999999999983
20
-93.227499999999992
11
61.7293999999999983
21
-100.359499999999997
0
LINE
8
LYELLOW
6
CONTINUOUS
10
61.7693999999999974
20
-83.2295000000000016
11
61.7693999999999974
21
-90.3474999999999966
0
LINE
8
LYELLOW
6
CONTINUOUS
10
61.7693999999999974
20
-93.227499999999992
11
61.7693999999999974
21
-100.3455000000000013
0
LINE
8
LYELLOW
6
CONTINUOUS
10
61.8093999999999966
20
-83.2434999999999974
11
61.8093999999999966
21
-90.3474999999999966
0
LINE
8
LYELLOW
6
CONTINUOUS
10
61.8093999999999966
20
-93.227499999999992
11
61.8093999999999966
21
-100.3314999999999912
0
LINE
8
LYELLOW
6
CONTINUOUS
10
61.8493999999999957
20
-83.2574999999999932
11
61.8493999999999957
21
-90.3474999999999966
0
LINE
8
LYELLOW
6
CONTINUOUS
10
61.8493999999999957
20
-93.227499999999992
11
61.8493999999999957
21
-100.3174999999999955
0
LINE
8
LYELLOW
6
CONTINUOUS
10
61.8893999999999949
20
-83.2724999999999937
11
61.8893999999999949
21
-90.3474999999999966
0
LINE
8
LYELLOW
6
CONTINUOUS
10
61.8893999999999949
20
-93.227499999999992
11
61.8893999999999949
21
-100.3024999999999949
0
LINE
8
LYELLOW
6
CONTINUOUS
10
61.929399999999994
20
-83.2874999999999943
11
61.929399999999994
21
-90.3474999999999966
0
LINE
8
LYELLOW
6
CONTINUOUS
10
61.929399999999994
20
-93.227499999999992
11
61.929399999999994
21
-100.2874999999999943
0
LINE
8
LYELLOW
6
CONTINUOUS
10
61.9694000000000003
20
-83.3024999999999949
11
61.9694000000000003
21
-90.3474999999999966
0
LINE
8
LYELLOW
6
CONTINUOUS
10
61.9694000000000003
20
-93.227499999999992
11
61.9694000000000003
21
-100.2724999999999937
0
LINE
8
LYELLOW
6
CONTINUOUS
10
62.0093999999999994
20
-83.3174999999999955
11
62.0093999999999994
21
-90.3474999999999966
0
LINE
8
LYELLOW
6
CONTINUOUS
10
62.0093999999999994
20
-93.227499999999992
11
62.0093999999999994
21
-100.2574999999999932
0
LINE
8
LYELLOW
6
CONTINUOUS
10
62.0493999999999986
20
-83.3335000000000008
11
62.0493999999999986
21
-90.3474999999999966
0
LINE
8
LYELLOW
6
CONTINUOUS
10
62.0493999999999986
20
-93.227499999999992
11
62.0493999999999986
21
-100.241500000000002
0
LINE
8
LYELLOW
6
CONTINUOUS
10
62.0893999999999977
20
-83.3494999999999919
11
62.0893999999999977
21
-90.3474999999999966
0
LINE
8
LYELLOW
6
CONTINUOUS
10
62.0893999999999977
20
-93.227499999999992
11
62.0893999999999977
21
-100.2254999999999967
0
LINE
8
LYELLOW
6
CONTINUOUS
10
62.1293999999999969
20
-83.3644999999999925
11
62.1293999999999969
21
-90.3474999999999966
0
LINE
8
LYELLOW
6
CONTINUOUS
10
62.1293999999999969
20
-93.227499999999992
11
62.1293999999999969
21
-100.2104999999999961
0
LINE
8
LYELLOW
6
CONTINUOUS
10
62.169399999999996
20
-83.3815000000000026
11
62.169399999999996
21
-90.3474999999999966
0
LINE
8
LYELLOW
6
CONTINUOUS
10
62.169399999999996
20
-93.227499999999992
11
62.169399999999996
21
-100.1935000000000002
0
LINE
8
LYELLOW
6
CONTINUOUS
10
62.2093999999999951
20
-83.3974999999999937
11
62.2093999999999951
21
-90.3474999999999966
0
LINE
8
LYELLOW
6
CONTINUOUS
10
62.2093999999999951
20
-93.227499999999992
11
62.2093999999999951
21
-100.1774999999999949
0
LINE
8
LYELLOW
6
CONTINUOUS
10
62.2493999999999943
20
-83.4144999999999897
11
62.2493999999999943
21
-90.3474999999999966
0
LINE
8
LYELLOW
6
CONTINUOUS
10
62.2493999999999943
20
-93.227499999999992
11
62.2493999999999943
21
-100.160499999999999
0
LINE
8
LYELLOW
6
CONTINUOUS
10
62.2894000000000005
20
-83.4314999999999998
11
62.2894000000000005
21
-90.3474999999999966
0
LINE
8
LYELLOW
6
CONTINUOUS
10
62.2894000000000005
20
-93.227499999999992
11
62.2894000000000005
21
-100.1434999999999889
0
LINE
8
LYELLOW
6
CONTINUOUS
10
62.3293999999999997
20
-83.4484999999999957
11
62.3293999999999997
21
-90.3474999999999966
0
LINE
8
LYELLOW
6
CONTINUOUS
10
62.3293999999999997
20
-93.227499999999992
11
62.3293999999999997
21
-100.126499999999993
0
LINE
8
LYELLOW
6
CONTINUOUS
10
62.3693999999999988
20
-83.4654999999999916
11
62.3693999999999988
21
-90.3474999999999966
0
LINE
8
LYELLOW
6
CONTINUOUS
10
62.3693999999999988
20
-93.227499999999992
11
62.3693999999999988
21
-100.109499999999997
0
LINE
8
LYELLOW
6
CONTINUOUS
10
62.409399999999998
20
-83.4825000000000017
11
62.409399999999998
21
-90.3474999999999966
0
LINE
8
LYELLOW
6
CONTINUOUS
10
62.409399999999998
20
-93.227499999999992
11
62.409399999999998
21
-100.0925000000000011
0
LINE
8
LYELLOW
6
CONTINUOUS
10
62.4493999999999971
20
-83.5005000000000024
11
62.4493999999999971
21
-90.3474999999999966
0
LINE
8
LYELLOW
6
CONTINUOUS
10
62.4493999999999971
20
-93.227499999999992
11
62.4493999999999971
21
-100.0745000000000005
0
LINE
8
LYELLOW
6
CONTINUOUS
10
62.4893999999999963
20
-83.5185000000000031
11
62.4893999999999963
21
-90.3474999999999966
0
LINE
8
LYELLOW
6
CONTINUOUS
10
62.4893999999999963
20
-93.227499999999992
11
62.4893999999999963
21
-100.0564999999999998
0
LINE
8
LYELLOW
6
CONTINUOUS
10
62.5293999999999954
20
-83.5364999999999895
11
62.5293999999999954
21
-90.3474999999999966
0
LINE
8
LYELLOW
6
CONTINUOUS
10
62.5293999999999954
20
-93.227499999999992
11
62.5293999999999954
21
-100.0384999999999991
0
LINE
8
LYELLOW
6
CONTINUOUS
10
62.5693999999999946
20
-83.555499999999995
11
62.5693999999999946
21
-90.3474999999999966
0
LINE
8
LYELLOW
6
CONTINUOUS
10
62.5693999999999946
20
-93.227499999999992
11
62.5693999999999946
21
-100.0194999999999936
0
LINE
8
LYELLOW
6
CONTINUOUS
10
62.6093999999999937
20
-83.5745000000000005
11
62.6093999999999937
21
-90.3474999999999966
0
LINE
8
LYELLOW
6
CONTINUOUS
10
62.6093999999999937
20
-93.227499999999992
11
62.6093999999999937
21
-100.0005000000000024
0
LINE
8
LYELLOW
6
CONTINUOUS
10
62.6494
20
-83.5925000000000011
11
62.6494
21
-90.3474999999999966
0
LINE
8
LYELLOW
6
CONTINUOUS
10
62.6494
20
-93.227499999999992
11
62.6494
21
-99.9825000000000017
0
LINE
8
LYELLOW
6
CONTINUOUS
10
62.6893999999999991
20
-83.6124999999999972
11
62.6893999999999991
21
-90.3474999999999966
0
LINE
8
LYELLOW
6
CONTINUOUS
10
62.6893999999999991
20
-93.227499999999992
11
62.6893999999999991
21
-99.9624999999999915
0
LINE
8
LYELLOW
6
CONTINUOUS
10
62.7293999999999983
20
-83.6315000000000026
11
62.7293999999999983
21
-90.3474999999999966
0
LINE
8
LYELLOW
6
CONTINUOUS
10
62.7293999999999983
20
-93.227499999999992
11
62.7293999999999983
21
-99.9435000000000002
0
LINE
8
LYELLOW
6
CONTINUOUS
10
62.7693999999999974
20
-83.6514999999999986
11
62.7693999999999974
21
-90.3474999999999966
0
LINE
8
LYELLOW
6
CONTINUOUS
10
62.7693999999999974
20
-93.227499999999992
11
62.7693999999999974
21
-99.92349999999999
0
LINE
8
LYELLOW
6
CONTINUOUS
10
62.8093999999999966
20
-83.6714999999999947
11
62.8093999999999966
21
-90.3474999999999966
0
LINE
8
LYELLOW
6
CONTINUOUS
10
62.8093999999999966
20
-93.227499999999992
11
62.8093999999999966
21
-99.903499999999994
0
LINE
8
LYELLOW
6
CONTINUOUS
10
62.8493999999999957
20
-83.6914999999999907
11
62.8493999999999957
21
-90.3474999999999966
0
LINE
8
LYELLOW
6
CONTINUOUS
10
62.8493999999999957
20
-93.227499999999992
11
62.8493999999999957
21
-99.883499999999998
0
LINE
8
LYELLOW
6
CONTINUOUS
10
62.8893999999999949
20
-83.7115000000000009
11
62.8893999999999949
21
-90.3474999999999966
0
LINE
8
LYELLOW
6
CONTINUOUS
10
62.8893999999999949
20
-93.227499999999992
11
62.8893999999999949
21
-99.8635000000000019
0
LINE
8
LYELLOW
6
CONTINUOUS
10
62.929399999999994
20
-83.7325000000000017
11
62.929399999999994
21
-90.3474999999999966
0
LINE
8
LYELLOW
6
CONTINUOUS
10
62.929399999999994
20
-93.227499999999992
11
62.929399999999994
21
-99.8425000000000011
0
LINE
8
LYELLOW
6
CONTINUOUS
10
62.9694000000000003
20
-83.7535000000000025
11
62.9694000000000003
21
-90.3474999999999966
0
LINE
8
LYELLOW
6
CONTINUOUS
10
62.9694000000000003
20
-93.227499999999992
11
62.9694000000000003
21
-99.8215000000000003
0
LINE
8
LYELLOW
6
CONTINUOUS
10
63.0093999999999994
20
-83.7745000000000033
11
63.0093999999999994
21
-90.3474999999999966
0
LINE
8
LYELLOW
6
CONTINUOUS
10
63.0093999999999994
20
-93.227499999999992
11
63.0093999999999994
21
-99.8004999999999995
0
LINE
8
LYELLOW
6
CONTINUOUS
10
63.0493999999999986
20
-83.7954999999999899
11
63.0493999999999986
21
-90.3474999999999966
0
LINE
8
LYELLOW
6
CONTINUOUS
10
63.0493999999999986
20
-93.227499999999992
11
63.0493999999999986
21
-99.7794999999999987
0
LINE
8
LYELLOW
6
CONTINUOUS
10
63.0893999999999977
20
-83.8174999999999955
11
63.0893999999999977
21
-90.3474999999999966
0
LINE
8
LYELLOW
6
CONTINUOUS
10
63.0893999999999977
20
-93.227499999999992
11
63.0893999999999977
21
-99.7574999999999932
0
LINE
8
LYELLOW
6
CONTINUOUS
10
63.1293999999999969
20
-83.839500000000001
11
63.1293999999999969
21
-90.3474999999999966
0
LINE
8
LYELLOW
6
CONTINUOUS
10
63.1293999999999969
20
-93.227499999999992
11
63.1293999999999969
21
-99.7355000000000018
0
LINE
8
LYELLOW
6
CONTINUOUS
10
63.169399999999996
20
-83.8614999999999924
11
63.169399999999996
21
-90.3474999999999966
0
LINE
8
LYELLOW
6
CONTINUOUS
10
63.169399999999996
20
-93.227499999999992
11
63.169399999999996
21
-99.7134999999999962
0
LINE
8
LYELLOW
6
CONTINUOUS
10
63.2093999999999951
20
-83.883499999999998
11
63.2093999999999951
21
-90.3474999999999966
0
LINE
8
LYELLOW
6
CONTINUOUS
10
63.2093999999999951
20
-93.227499999999992
11
63.2093999999999951
21
-99.6914999999999907
0
LINE
8
LYELLOW
6
CONTINUOUS
10
63.2493999999999943
20
-83.9064999999999941
11
63.2493999999999943
21
-90.3474999999999966
0
LINE
8
LYELLOW
6
CONTINUOUS
10
63.2493999999999943
20
-93.227499999999992
11
63.2493999999999943
21
-99.6684999999999945
0
LINE
8
LYELLOW
6
CONTINUOUS
10
63.2894000000000005
20
-83.9294999999999902
11
63.2894000000000005
21
-90.3474999999999966
0
LINE
8
LYELLOW
6
CONTINUOUS
10
63.2894000000000005
20
-93.227499999999992
11
63.2894000000000005
21
-99.6454999999999984
0
LINE
8
LYELLOW
6
CONTINUOUS
10
63.3293999999999997
20
-83.9525000000000006
11
63.3293999999999997
21
-90.3474999999999966
0
LINE
8
LYELLOW
6
CONTINUOUS
10
63.3293999999999997
20
-93.227499999999992
11
63.3293999999999997
21
-99.6225000000000023
0
LINE
8
LYELLOW
6
CONTINUOUS
10
63.3693999999999988
20
-83.9765000000000015
11
63.3693999999999988
21
-90.3474999999999966
0
LINE
8
LYELLOW
6
CONTINUOUS
10
63.3693999999999988
20
-93.227499999999992
11
63.3693999999999988
21
-99.5985000000000014
0
LINE
8
LYELLOW
6
CONTINUOUS
10
63.409399999999998
20
-83.9994999999999976
11
63.409399999999998
21
-90.3474999999999966
0
LINE
8
LYELLOW
6
CONTINUOUS
10
63.409399999999998
20
-93.227499999999992
11
63.409399999999998
21
-99.575499999999991
0
LINE
8
LYELLOW
6
CONTINUOUS
10
63.4493999999999971
20
-84.0234999999999985
11
63.4493999999999971
21
-90.3474999999999966
0
LINE
8
LYELLOW
6
CONTINUOUS
10
63.4493999999999971
20
-93.227499999999992
11
63.4493999999999971
21
-99.5514999999999901
0
LINE
8
LYELLOW
6
CONTINUOUS
10
63.4893999999999963
20
-84.04849999999999
11
63.4893999999999963
21
-90.3474999999999966
0
LINE
8
LYELLOW
6
CONTINUOUS
10
63.4893999999999963
20
-93.227499999999992
11
63.4893999999999963
21
-99.5264999999999986
0
LINE
8
LYELLOW
6
CONTINUOUS
10
63.5293999999999954
20
-84.0724999999999909
11
63.5293999999999954
21
-90.3474999999999966
0
LINE
8
LYELLOW
6
CONTINUOUS
10
63.5293999999999954
20
-93.227499999999992
11
63.5293999999999954
21
-99.5024999999999977
0
LINE
8
LYELLOW
6
CONTINUOUS
10
63.5693999999999946
20
-84.0974999999999966
11
63.5693999999999946
21
-90.3474999999999966
0
LINE
8
LYELLOW
6
CONTINUOUS
10
63.5693999999999946
20
-93.227499999999992
11
63.5693999999999946
21
-99.477499999999992
0
LINE
8
LYELLOW
6
CONTINUOUS
10
63.6093999999999937
20
-84.1225000000000023
11
63.6093999999999937
21
-90.3474999999999966
0
LINE
8
LYELLOW
6
CONTINUOUS
10
63.6093999999999937
20
-93.227499999999992
11
63.6093999999999937
21
-99.4525000000000006
0
LINE
8
LYELLOW
6
CONTINUOUS
10
63.6494
20
-84.1484999999999985
11
63.6494
21
-90.3474999999999966
0
LINE
8
LYELLOW
6
CONTINUOUS
10
63.6494
20
-93.227499999999992
11
63.6494
21
-99.4264999999999901
0
LINE
8
LYELLOW
6
CONTINUOUS
10
63.6893999999999991
20
-84.1744999999999948
11
63.6893999999999991
21
-90.3474999999999966
0
LINE
8
LYELLOW
6
CONTINUOUS
10
63.6893999999999991
20
-93.227499999999992
11
63.6893999999999991
21
-99.4004999999999939
0
LINE
8
LYELLOW
6
CONTINUOUS
10
63.7293999999999983
20
-84.200499999999991
11
63.7293999999999983
21
-90.3474999999999966
0
LINE
8
LYELLOW
6
CONTINUOUS
10
63.7293999999999983
20
-93.227499999999992
11
63.7293999999999983
21
-99.3744999999999976
0
LINE
8
LYELLOW
6
CONTINUOUS
10
63.7693999999999974
20
-84.2265000000000015
11
63.7693999999999974
21
-90.3474999999999966
0
LINE
8
LYELLOW
6
CONTINUOUS
10
63.7693999999999974
20
-93.227499999999992
11
63.7693999999999974
21
-99.3485000000000014
0
LINE
8
LYELLOW
6
CONTINUOUS
10
63.8093999999999966
20
-84.2535000000000025
11
63.8093999999999966
21
-90.3474999999999966
0
LINE
8
LYELLOW
6
CONTINUOUS
10
63.8093999999999966
20
-93.227499999999992
11
63.8093999999999966
21
-99.3215000000000003
0
LINE
8
LYELLOW
6
CONTINUOUS
10
63.8493999999999957
20
-84.2804999999999893
11
63.8493999999999957
21
-90.3474999999999966
0
LINE
8
LYELLOW
6
CONTINUOUS
10
63.8493999999999957
20
-93.227499999999992
11
63.8493999999999957
21
-99.2944999999999993
0
LINE
8
LYELLOW
6
CONTINUOUS
10
63.8893999999999949
20
-84.3074999999999903
11
63.8893999999999949
21
-90.3474999999999966
0
LINE
8
LYELLOW
6
CONTINUOUS
10
63.8893999999999949
20
-93.227499999999992
11
63.8893999999999949
21
-99.2674999999999983
0
LINE
8
LYELLOW
6
CONTINUOUS
10
63.929399999999994
20
-84.3354999999999961
11
63.929399999999994
21
-99.2394999999999925
0
LINE
8
LYELLOW
6
CONTINUOUS
10
63.9694000000000003
20
-84.3635000000000019
11
63.9694000000000003
21
-99.2115000000000009
0
LINE
8
LYELLOW
6
CONTINUOUS
10
64.0093999999999994
20
-84.3914999999999935
11
64.0093999999999994
21
-99.1834999999999951
0
LINE
8
LYELLOW
6
CONTINUOUS
10
64.0493999999999915
20
-84.4194999999999993
11
64.0493999999999915
21
-99.1554999999999893
0
LINE
8
LYELLOW
6
CONTINUOUS
10
64.0893999999999977
20
-84.4484999999999957
11
64.0893999999999977
21
-99.126499999999993
0
LINE
8
LYELLOW
6
CONTINUOUS
10
64.129400000000004
20
-84.4784999999999968
11
64.129400000000004
21
-99.0964999999999918
0
LINE
8
LYELLOW
6
CONTINUOUS
10
64.169399999999996
20
-84.5074999999999932
11
64.169399999999996
21
-99.0674999999999955
0
LINE
8
LYELLOW
6
CONTINUOUS
10
64.2094000000000023
20
-84.5374999999999943
11
64.2094000000000023
21
-99.0374999999999943
0
LINE
8
LYELLOW
6
CONTINUOUS
10
64.2493999999999943
20
-84.5674999999999955
11
64.2493999999999943
21
-99.0074999999999932
0
LINE
8
LYELLOW
6
CONTINUOUS
10
64.2894000000000005
20
-84.5985000000000014
11
64.2894000000000005
21
-98.9765000000000015
0
LINE
8
LYELLOW
6
CONTINUOUS
10
64.3293999999999926
20
-84.6294999999999931
11
64.3293999999999926
21
-98.9454999999999956
0
LINE
8
LYELLOW
6
CONTINUOUS
10
64.3693999999999988
20
-84.660499999999999
11
64.3693999999999988
21
-98.9144999999999897
0
LINE
8
LYELLOW
6
CONTINUOUS
10
64.4093999999999909
20
-84.6924999999999955
11
64.4093999999999909
21
-98.8824999999999932
0
LINE
8
LYELLOW
6
CONTINUOUS
10
64.4493999999999971
20
-84.7244999999999919
11
64.4493999999999971
21
-98.8504999999999967
0
LINE
8
LYELLOW
6
CONTINUOUS
10
64.4894000000000034
20
-84.7565000000000026
11
64.4894000000000034
21
-98.8185000000000002
0
LINE
8
LYELLOW
6
CONTINUOUS
10
64.5293999999999954
20
-84.7894999999999897
11
64.5293999999999954
21
-98.785499999999999
0
LINE
8
LYELLOW
6
CONTINUOUS
10
64.5694000000000017
20
-84.8224999999999909
11
64.5694000000000017
21
-98.7524999999999977
0
LINE
8
LYELLOW
6
CONTINUOUS
10
64.6093999999999937
20
-84.8564999999999969
11
64.6093999999999937
21
-98.7184999999999917
0
LINE
8
LYELLOW
6
CONTINUOUS
10
64.6494
20
-84.890500000000003
11
64.6494
21
-98.6844999999999999
0
LINE
8
LYELLOW
6
CONTINUOUS
10
64.689399999999992
20
-84.9244999999999948
11
64.689399999999992
21
-98.6504999999999939
0
LINE
8
LYELLOW
6
CONTINUOUS
10
64.7293999999999983
20
-84.9594999999999914
11
64.7293999999999983
21
-98.6154999999999973
0
LINE
8
LYELLOW
6
CONTINUOUS
10
64.7693999999999903
20
-84.9945000000000022
11
64.7693999999999903
21
-98.5805000000000007
0
LINE
8
LYELLOW
6
CONTINUOUS
10
64.8093999999999966
20
-85.0294999999999987
11
64.8093999999999966
21
-98.5454999999999899
0
LINE
8
LYELLOW
6
CONTINUOUS
10
64.8494000000000028
20
-85.0655000000000001
11
64.8494000000000028
21
-98.5094999999999885
0
LINE
8
LYELLOW
6
CONTINUOUS
10
64.8893999999999949
20
-85.102499999999992
11
64.8893999999999949
21
-98.4724999999999966
0
LINE
8
LYELLOW
6
CONTINUOUS
10
64.9294000000000011
20
-85.1394999999999982
11
64.9294000000000011
21
-98.4354999999999905
0
LINE
8
LYELLOW
6
CONTINUOUS
10
64.9693999999999932
20
-85.1764999999999901
11
64.9693999999999932
21
-98.3984999999999985
0
LINE
8
LYELLOW
6
CONTINUOUS
10
65.0093999999999994
20
-85.214500000000001
11
65.0093999999999994
21
-98.3605000000000018
0
LINE
8
LYELLOW
6
CONTINUOUS
10
65.0493999999999915
20
-85.2524999999999977
11
65.0493999999999915
21
-98.3224999999999909
0
LINE
8
LYELLOW
6
CONTINUOUS
10
65.0893999999999977
20
-85.2914999999999992
11
65.0893999999999977
21
-98.2834999999999894
0
LINE
8
LYELLOW
6
CONTINUOUS
10
65.129400000000004
20
-85.3305000000000007
11
65.129400000000004
21
-98.2445000000000022
0
LINE
8
LYELLOW
6
CONTINUOUS
10
65.169399999999996
20
-85.3695000000000022
11
65.169399999999996
21
-98.2055000000000007
0
LINE
8
LYELLOW
6
CONTINUOUS
10
65.2094000000000023
20
-85.410499999999999
11
65.2094000000000023
21
-98.1644999999999897
0
LINE
8
LYELLOW
6
CONTINUOUS
10
65.2493999999999943
20
-85.450499999999991
11
65.2493999999999943
21
-98.1244999999999976
0
LINE
8
LYELLOW
6
CONTINUOUS
10
65.2894000000000005
20
-85.491500000000002
11
65.2894000000000005
21
-98.0835000000000008
0
LINE
8
LYELLOW
6
CONTINUOUS
10
65.3293999999999926
20
-85.5334999999999894
11
65.3293999999999926
21
-98.0414999999999992
0
LINE
8
LYELLOW
6
CONTINUOUS
10
65.3693999999999988
20
-85.575499999999991
11
65.3693999999999988
21
-97.9994999999999976
0
LINE
8
LYELLOW
6
CONTINUOUS
10
65.4093999999999909
20
-85.6184999999999974
11
65.4093999999999909
21
-97.9564999999999912
0
LINE
8
LYELLOW
6
CONTINUOUS
10
65.4493999999999971
20
-85.6614999999999895
11
65.4493999999999971
21
-97.9134999999999991
0
LINE
8
LYELLOW
6
CONTINUOUS
10
65.4894000000000034
20
-85.7055000000000007
11
65.4894000000000034
21
-97.8695000000000022
0
LINE
8
LYELLOW
6
CONTINUOUS
10
65.5293999999999954
20
-85.7505000000000024
11
65.5293999999999954
21
-97.8245000000000005
0
LINE
8
LYELLOW
6
CONTINUOUS
10
65.5694000000000017
20
-85.7954999999999899
11
65.5694000000000017
21
-97.7794999999999987
0
LINE
8
LYELLOW
6
CONTINUOUS
10
65.6093999999999937
20
-85.8404999999999916
11
65.6093999999999937
21
-97.734499999999997
0
LINE
8
LYELLOW
6
CONTINUOUS
10
65.6494
20
-85.8875000000000028
11
65.6494
21
-97.6875
0
LINE
8
LYELLOW
6
CONTINUOUS
10
65.689399999999992
20
-85.9344999999999999
11
65.689399999999992
21
-97.6404999999999887
0
LINE
8
LYELLOW
6
CONTINUOUS
10
65.7293999999999983
20
-85.9814999999999969
11
65.7293999999999983
21
-97.5934999999999917
0
LINE
8
LYELLOW
6
CONTINUOUS
10
65.7693999999999903
20
-86.0294999999999987
11
65.7693999999999903
21
-97.5454999999999899
0
LINE
8
LYELLOW
6
CONTINUOUS
10
65.8093999999999966
20
-86.0784999999999911
11
65.8093999999999966
21
-97.4964999999999975
0
LINE
8
LYELLOW
6
CONTINUOUS
10
65.8494000000000028
20
-86.1285000000000025
11
65.8494000000000028
21
-97.4465000000000003
0
LINE
8
LYELLOW
6
CONTINUOUS
10
65.8893999999999949
20
-86.1784999999999997
11
65.8893999999999949
21
-97.396499999999989
0
LINE
8
LYELLOW
6
CONTINUOUS
10
65.9294000000000011
20
-86.2295000000000016
11
65.9294000000000011
21
-97.3455000000000013
0
LINE
8
LYELLOW
6
CONTINUOUS
10
65.9693999999999932
20
-86.2814999999999941
11
65.9693999999999932
21
-97.2934999999999945
0
LINE
8
LYELLOW
6
CONTINUOUS
10
66.0093999999999994
20
-86.3344999999999914
11
66.0093999999999994
21
-97.2404999999999973
0
LINE
8
LYELLOW
6
CONTINUOUS
10
66.0493999999999915
20
-86.3875000000000028
11
66.0493999999999915
21
-97.1875
0
LINE
8
LYELLOW
6
CONTINUOUS
10
66.0893999999999977
20
-86.4414999999999907
11
66.0893999999999977
21
-97.133499999999998
0
LINE
8
LYELLOW
6
CONTINUOUS
10
66.129400000000004
20
-86.4964999999999975
11
66.129400000000004
21
-97.0784999999999911
0
LINE
8
LYELLOW
6
CONTINUOUS
10
66.169399999999996
20
-86.5524999999999949
11
66.169399999999996
21
-97.0224999999999937
0
LINE
8
LYELLOW
6
CONTINUOUS
10
66.2094000000000023
20
-86.609499999999997
11
66.2094000000000023
21
-96.9654999999999916
0
LINE
8
LYELLOW
6
CONTINUOUS
10
66.2493999999999943
20
-86.6674999999999898
11
66.2493999999999943
21
-96.9074999999999989
0
LINE
8
LYELLOW
6
CONTINUOUS
10
66.2894000000000005
20
-86.7265000000000015
11
66.2894000000000005
21
-96.8485000000000014
0
LINE
8
LYELLOW
6
CONTINUOUS
10
66.3293999999999926
20
-86.7864999999999895
11
66.3293999999999926
21
-96.7884999999999991
0
LINE
8
LYELLOW
6
CONTINUOUS
10
66.3693999999999988
20
-86.8474999999999966
11
66.3693999999999988
21
-96.727499999999992
0
LINE
8
LYELLOW
6
CONTINUOUS
10
66.4093999999999909
20
-86.9084999999999894
11
66.4093999999999909
21
-96.6664999999999992
0
LINE
8
LYELLOW
6
CONTINUOUS
10
66.4493999999999971
20
-86.9714999999999918
11
66.4493999999999971
21
-96.6034999999999968
0
LINE
8
LYELLOW
6
CONTINUOUS
10
66.4894000000000034
20
-87.0364999999999895
11
66.4894000000000034
21
-96.5384999999999991
0
LINE
8
LYELLOW
6
CONTINUOUS
10
66.5293999999999954
20
-87.1015000000000015
11
66.5293999999999954
21
-96.4735000000000014
0
LINE
8
LYELLOW
6
CONTINUOUS
10
66.5694000000000017
20
-87.1684999999999945
11
66.5694000000000017
21
-96.4064999999999941
0
LINE
8
LYELLOW
6
CONTINUOUS
10
66.6093999999999937
20
-87.2364999999999924
11
66.6093999999999937
21
-96.3384999999999962
0
LINE
8
LYELLOW
6
CONTINUOUS
10
66.6494
20
-87.305499999999995
11
66.6494
21
-96.2694999999999936
0
LINE
8
LYELLOW
6
CONTINUOUS
10
66.689399999999992
20
-87.376499999999993
11
66.689399999999992
21
-96.1984999999999957
0
LINE
8
LYELLOW
6
CONTINUOUS
10
66.7293999999999983
20
-87.4484999999999957
11
66.7293999999999983
21
-96.126499999999993
0
LINE
8
LYELLOW
6
CONTINUOUS
10
66.7693999999999903
20
-87.5224999999999937
11
66.7693999999999903
21
-96.0524999999999949
0
LINE
8
LYELLOW
6
CONTINUOUS
10
66.8093999999999966
20
-87.5985000000000014
11
66.8093999999999966
21
-95.9765000000000015
0
LINE
8
LYELLOW
6
CONTINUOUS
10
66.8494000000000028
20
-87.6754999999999995
11
66.8494000000000028
21
-95.8994999999999891
0
LINE
8
LYELLOW
6
CONTINUOUS
10
66.8893999999999949
20
-87.7544999999999931
11
66.8893999999999949
21
-95.8204999999999956
0
LINE
8
LYELLOW
6
CONTINUOUS
10
66.9294000000000011
20
-87.8354999999999961
11
66.9294000000000011
21
-95.7394999999999925
0
LINE
8
LYELLOW
6
CONTINUOUS
10
66.9693999999999932
20
-87.9184999999999945
11
66.9693999999999932
21
-95.6564999999999941
0
LINE
8
LYELLOW
6
CONTINUOUS
10
67.0093999999999994
20
-88.0044999999999931
11
67.0093999999999994
21
-95.5704999999999956
0
LINE
8
LYELLOW
6
CONTINUOUS
10
67.0493999999999915
20
-88.0925000000000011
11
67.0493999999999915
21
-95.4825000000000017
0
LINE
8
LYELLOW
6
CONTINUOUS
10
67.0893999999999977
20
-88.1824999999999903
11
67.0893999999999977
21
-95.3924999999999983
0
LINE
8
LYELLOW
6
CONTINUOUS
10
67.129400000000004
20
-88.2754999999999939
11
67.129400000000004
21
-95.2994999999999948
0
LINE
8
LYELLOW
6
CONTINUOUS
10
67.169399999999996
20
-88.3714999999999975
11
67.169399999999996
21
-95.2034999999999911
0
LINE
8
LYELLOW
6
CONTINUOUS
10
67.2094000000000023
20
-88.4714999999999918
11
67.2094000000000023
21
-95.1034999999999968
0
LINE
8
LYELLOW
6
CONTINUOUS
10
67.2493999999999943
20
-88.5745000000000005
11
67.2493999999999943
21
-95.0005000000000024
0
LINE
8
LYELLOW
6
CONTINUOUS
10
67.2894000000000005
20
-88.680499999999995
11
67.2894000000000005
21
-94.8944999999999936
0
LINE
8
LYELLOW
6
CONTINUOUS
10
67.3293999999999926
20
-88.7914999999999992
11
67.3293999999999926
21
-94.7834999999999894
0
LINE
8
LYELLOW
6
CONTINUOUS
10
67.3693999999999988
20
-88.9074999999999989
11
67.3693999999999988
21
-94.6674999999999898
0
LINE
8
LYELLOW
6
CONTINUOUS
10
67.4093999999999909
20
-89.028499999999994
11
67.4093999999999909
21
-94.5464999999999947
0
LINE
8
LYELLOW
6
CONTINUOUS
10
67.4493999999999971
20
-89.1564999999999941
11
67.4493999999999971
21
-94.4184999999999945
0
LINE
8
LYELLOW
6
CONTINUOUS
10
67.4894000000000034
20
-89.2904999999999944
11
67.4894000000000034
21
-94.2844999999999942
0
LINE
8
LYELLOW
6
CONTINUOUS
10
67.5293999999999954
20
-89.4324999999999903
11
67.5293999999999954
21
-94.1424999999999983
0
LINE
8
LYELLOW
6
CONTINUOUS
10
67.5694000000000017
20
-89.5854999999999961
11
67.5694000000000017
21
-93.9894999999999925
0
LINE
8
LYELLOW
6
CONTINUOUS
10
67.6093999999999937
20
-89.7494999999999976
11
67.6093999999999937
21
-93.825499999999991
0
LINE
8
LYELLOW
6
CONTINUOUS
10
67.6494
20
-89.9284999999999997
11
67.6494
21
-93.646499999999989
0
LINE
8
LYELLOW
6
CONTINUOUS
10
67.689399999999992
20
-90.126499999999993
11
67.689399999999992
21
-93.4484999999999957
0
LINE
8
LYELLOW
6
CONTINUOUS
10
67.7293999999999983
20
-90.352499999999992
11
67.7293999999999983
21
-93.2224999999999966
0
LINE
8
LYELLOW
6
CONTINUOUS
10
67.7693999999999903
20
-90.6225000000000023
11
67.7693999999999903
21
-92.9525000000000006
0
LINE
8
LYELLOW
6
CONTINUOUS
10
67.8093999999999966
20
-90.9744999999999919
11
67.8093999999999966
21
-92.6004999999999967
0
LINE
8
LYELLOW
6
CONTINUOUS
10
67.8494000000000028
20
-91.8275000000000006
11
67.8494000000000028
21
-91.7475000000000023
0
CIRCLE
8
LYELLOW
10
58.7293999999999983
20
-91.7874999999999943
40
9.1199999999999992
0
LINE
8
LYELLOW
6
CONTINUOUS
10
69.5349999999999966
20
-56.3374999999999986
11
70.5549999999999926
21
-56.3374999999999986
0
LINE
8
LYELLOW
6
CONTINUOUS
10
71.3349999999999937
20
-54.8674999999999997
11
71.3349999999999937
21
-57.8074999999999974
0
LINE
8
LYELLOW
6
CONTINUOUS
10
71.4549999999999983
20
-54.8674999999999997
11
71.4549999999999983
21
-57.8074999999999974
0
LINE
8
LYELLOW
6
CONTINUOUS
10
71.5750000000000028
20
-54.8674999999999997
11
71.5750000000000028
21
-57.8074999999999974
0
LINE
8
LYELLOW
6
CONTINUOUS
10
77.0150000000000006
20
-56.3374999999999986
11
75.9949999999999903
21
-56.3374999999999986
0
LINE
8
LYELLOW
6
CONTINUOUS
10
70.5549999999999926
20
-54.8674999999999997
11
75.9949999999999903
21
-54.8674999999999997
0
LINE
8
LYELLOW
6
CONTINUOUS
10
75.9949999999999903
20
-54.8674999999999997
11
75.9949999999999903
21
-57.8074999999999974
0
LINE
8
LYELLOW
6
CONTINUOUS
10
75.9949999999999903
20
-57.8074999999999974
11
70.5549999999999926
21
-57.8074999999999974
0
LINE
8
LYELLOW
6
CONTINUOUS
10
70.5549999999999926
20
-57.8074999999999974
11
70.5549999999999926
21
-54.8674999999999997
0
LINE
8
LYELLOW
6
CONTINUOUS
10
25.7899999999999991
20
-43.1524999999999963
11
25.7899999999999991
21
-50.7725000000000009
0
LINE
8
LYELLOW
6
CONTINUOUS
10
41.0300000000000011
20
-43.1524999999999963
11
25.7899999999999991
21
-43.1524999999999963
0
LINE
8
LYELLOW
6
CONTINUOUS
10
41.0300000000000011
20
-43.1524999999999963
11
41.0300000000000011
21
-50.7725000000000009
0
LINE
8
LYELLOW
6
CONTINUOUS
10
41.0300000000000011
20
-44.4224999999999994
11
25.7899999999999991
21
-44.4224999999999994
0
LINE
8
LYELLOW
6
CONTINUOUS
10
41.0300000000000011
20
-50.7725000000000009
11
25.7899999999999991
21
-50.7725000000000009
0
LINE
8
LYELLOW
6
CONTINUOUS
10
51.625
20
-56.3374999999999986
11
52.644999999999996
21
-56.3374999999999986
0
LINE
8
LYELLOW
6
CONTINUOUS
10
53.4249999999999972
20
-54.8674999999999997
11
53.4249999999999972
21
-57.8074999999999974
0
LINE
8
LYELLOW
6
CONTINUOUS
10
53.5449999999999946
20
-54.8674999999999997
11
53.5449999999999946
21
-57.8074999999999974
0
LINE
8
LYELLOW
6
CONTINUOUS
10
53.6649999999999991
20
-54.8674999999999997
11
53.6649999999999991
21
-57.8074999999999974
0
LINE
8
LYELLOW
6
CONTINUOUS
10
59.1049999999999969
20
-56.3374999999999986
11
58.0850000000000009
21
-56.3374999999999986
0
LINE
8
LYELLOW
6
CONTINUOUS
10
52.644999999999996
20
-54.8674999999999997
11
58.0850000000000009
21
-54.8674999999999997
0
LINE
8
LYELLOW
6
CONTINUOUS
10
58.0850000000000009
20
-54.8674999999999997
11
58.0850000000000009
21
-57.8074999999999974
0
LINE
8
LYELLOW
6
CONTINUOUS
10
58.0850000000000009
20
-57.8074999999999974
11
52.644999999999996
21
-57.8074999999999974
0
LINE
8
LYELLOW
6
CONTINUOUS
10
52.644999999999996
20
-57.8074999999999974
11
52.644999999999996
21
-54.8674999999999997
0
LINE
8
LYELLOW
6
CONTINUOUS
10
74.6193999999999988
20
-90.4174999999999898
11
81.1593999999999909
21
-90.4174999999999898
0
LINE
8
LYELLOW
6
CONTINUOUS
10
74.6193999999999988
20
-90.7475000000000023
11
74.6193999999999988
21
-90.4174999999999898
0
LINE
8
LYELLOW
6
CONTINUOUS
10
74.6193999999999988
20
-92.8275000000000006
11
74.6193999999999988
21
-93.1574999999999989
0
LINE
8
LYELLOW
6
CONTINUOUS
10
74.6193999999999988
20
-93.1574999999999989
11
81.1593999999999909
21
-93.1574999999999989
0
LINE
8
LYELLOW
6
CONTINUOUS
10
81.1593999999999909
20
-90.4174999999999898
11
81.1593999999999909
21
-90.7475000000000023
0
LINE
8
LYELLOW
6
CONTINUOUS
10
81.1593999999999909
20
-93.1574999999999989
11
81.1593999999999909
21
-92.8275000000000006
0
LINE
8
LYELLOW
6
CONTINUOUS
10
48.9699600000000004
20
-65.1225000000000023
11
50.7699599999999975
21
-65.1225000000000023
0
LINE
8
LYELLOW
6
CONTINUOUS
10
49.869959999999999
20
-64.2224999999999966
11
49.869959999999999
21
-66.0224999999999937
0
LINE
8
LYELLOW
6
CONTINUOUS
10
58.7293999999999983
20
-61.1574999999999989
11
58.7293999999999983
21
-79.3174999999999955
0
LINE
8
LYELLOW
6
CONTINUOUS
10
58.7693999999999974
20
-61.1574999999999989
11
58.7693999999999974
21
-79.3174999999999955
0
LINE
8
LYELLOW
6
CONTINUOUS
10
58.8093999999999966
20
-61.1574999999999989
11
58.8093999999999966
21
-79.3174999999999955
0
LINE
8
LYELLOW
6
CONTINUOUS
10
58.8493999999999957
20
-61.1584999999999965
11
58.8493999999999957
21
-79.3164999999999907
0
LINE
8
LYELLOW
6
CONTINUOUS
10
58.8893999999999949
20
-61.1584999999999965
11
58.8893999999999949
21
-79.3164999999999907
0
LINE
8
LYELLOW
6
CONTINUOUS
10
58.929399999999994
20
-61.1594999999999942
11
58.929399999999994
21
-79.3155000000000001
0
LINE
8
LYELLOW
6
CONTINUOUS
10
58.9694000000000003
20
-61.160499999999999
11
58.9694000000000003
21
-79.3144999999999953
0
LINE
8
LYELLOW
6
CONTINUOUS
10
59.0093999999999994
20
-61.1614999999999966
11
59.0093999999999994
21
-79.3134999999999906
0
LINE
8
LYELLOW
6
CONTINUOUS
10
59.0493999999999986
20
-61.1634999999999991
11
59.0493999999999986
21
-79.3114999999999952
0
LINE
8
LYELLOW
6
CONTINUOUS
10
59.0893999999999977
20
-61.1644999999999968
11
59.0893999999999977
21
-79.3104999999999905
0
LINE
8
LYELLOW
6
CONTINUOUS
10
59.1293999999999969
20
-61.1664999999999992
11
59.1293999999999969
21
-79.3084999999999951
0
LINE
8
LYELLOW
6
CONTINUOUS
10
59.169399999999996
20
-61.1684999999999945
11
59.169399999999996
21
-79.3064999999999998
0
LINE
8
LYELLOW
6
CONTINUOUS
10
59.2093999999999951
20
-61.170499999999997
11
59.2093999999999951
21
-79.3044999999999902
0
LINE
8
LYELLOW
6
CONTINUOUS
10
59.2493999999999943
20
-61.1724999999999994
11
59.2493999999999943
21
-79.3024999999999949
0
LINE
8
LYELLOW
6
CONTINUOUS
10
59.2894000000000005
20
-61.1744999999999948
11
59.2894000000000005
21
-79.3004999999999995
0
LINE
8
LYELLOW
6
CONTINUOUS
10
59.3293999999999997
20
-61.1774999999999949
11
59.3293999999999997
21
-79.2974999999999994
0
LINE
8
LYELLOW
6
CONTINUOUS
10
59.3693999999999988
20
-61.1794999999999973
11
59.3693999999999988
21
-79.2954999999999899
0
LINE
8
LYELLOW
6
CONTINUOUS
10
59.409399999999998
20
-61.1824999999999974
11
59.409399999999998
21
-79.2924999999999898
0
LINE
8
LYELLOW
6
CONTINUOUS
10
59.4493999999999971
20
-61.1854999999999976
11
59.4493999999999971
21
-79.2894999999999897
0
LINE
8
LYELLOW
6
CONTINUOUS
10
59.4893999999999963
20
-61.1894999999999953
11
59.4893999999999963
21
-79.285499999999999
0
LINE
8
LYELLOW
6
CONTINUOUS
10
59.5293999999999954
20
-61.1924999999999955
11
59.5293999999999954
21
-79.2824999999999989
0
LINE
8
LYELLOW
6
CONTINUOUS
10
59.5693999999999946
20
-61.1965000000000003
11
59.5693999999999946
21
-79.278499999999994
0
LINE
8
LYELLOW
6
CONTINUOUS
10
59.6094000000000008
20
-61.2004999999999981
11
59.6094000000000008
21
-79.2745000000000033
0
LINE
8
LYELLOW
6
CONTINUOUS
10
59.6494
20
-61.2044999999999959
11
59.6494
21
-79.2704999999999984
0
LINE
8
LYELLOW
6
CONTINUOUS
10
59.6893999999999991
20
-61.2084999999999937
11
59.6893999999999991
21
-79.2664999999999935
0
LINE
8
LYELLOW
6
CONTINUOUS
10
59.7293999999999983
20
-61.2124999999999986
11
59.7293999999999983
21
-79.2625000000000028
0
LINE
8
LYELLOW
6
CONTINUOUS
10
59.7693999999999974
20
-61.2164999999999964
11
59.7693999999999974
21
-79.258499999999998
0
LINE
8
LYELLOW
6
CONTINUOUS
10
59.8093999999999966
20
-61.2214999999999989
11
59.8093999999999966
21
-79.2535000000000025
0
LINE
8
LYELLOW
6
CONTINUOUS
10
59.8493999999999957
20
-61.2264999999999944
11
59.8493999999999957
21
-79.2484999999999928
0
LINE
8
LYELLOW
6
CONTINUOUS
10
59.8893999999999949
20
-61.2314999999999969
11
59.8893999999999949
21
-79.2434999999999974
0
LINE
8
LYELLOW
6
CONTINUOUS
10
59.929399999999994
20
-61.2364999999999995
11
59.929399999999994
21
-79.2385000000000019
0
LINE
8
LYELLOW
6
CONTINUOUS
10
59.9694000000000003
20
-61.2424999999999997
11
59.9694000000000003
21
-79.2325000000000017
0
LINE
8
LYELLOW
6
CONTINUOUS
10
60.0093999999999994
20
-61.2474999999999952
11
60.0093999999999994
21
-79.227499999999992
0
LINE
8
LYELLOW
6
CONTINUOUS
10
60.0493999999999986
20
-61.2534999999999954
11
60.0493999999999986
21
-79.2214999999999918
0
LINE
8
LYELLOW
6
CONTINUOUS
10
60.0893999999999977
20
-61.2594999999999956
11
60.0893999999999977
21
-79.2154999999999916
0
LINE
8
LYELLOW
6
CONTINUOUS
10
60.1293999999999969
20
-61.2654999999999959
11
60.1293999999999969
21
-79.2094999999999914
0
LINE
8
LYELLOW
6
CONTINUOUS
10
60.169399999999996
20
-61.2714999999999961
11
60.169399999999996
21
-79.2034999999999911
0
LINE
8
LYELLOW
6
CONTINUOUS
10
60.2093999999999951
20
-61.278499999999994
11
60.2093999999999951
21
-79.1965000000000003
0
LINE
8
LYELLOW
6
CONTINUOUS
10
60.2493999999999943
20
-61.285499999999999
11
60.2493999999999943
21
-79.1894999999999953
0
LINE
8
LYELLOW
6
CONTINUOUS
10
60.2894000000000005
20
-61.2914999999999992
11
60.2894000000000005
21
-79.1834999999999951
0
LINE
8
LYELLOW
6
CONTINUOUS
10
60.3293999999999997
20
-61.2984999999999971
11
60.3293999999999997
21
-79.1764999999999901
0
LINE
8
LYELLOW
6
CONTINUOUS
10
60.3693999999999988
20
-61.3064999999999998
11
60.3693999999999988
21
-79.1684999999999945
0
LINE
8
LYELLOW
6
CONTINUOUS
10
60.409399999999998
20
-61.3134999999999977
11
60.409399999999998
21
-79.1614999999999895
0
LINE
8
LYELLOW
6
CONTINUOUS
10
60.4493999999999971
20
-61.3215000000000003
11
60.4493999999999971
21
-79.153499999999994
0
LINE
8
LYELLOW
6
CONTINUOUS
10
60.4893999999999963
20
-61.3284999999999982
11
60.4893999999999963
21
-79.1465000000000032
0
LINE
8
LYELLOW
6
CONTINUOUS
10
60.5293999999999954
20
-61.3364999999999938
11
60.5293999999999954
21
-79.1384999999999934
0
LINE
8
LYELLOW
6
CONTINUOUS
10
60.5693999999999946
20
-61.3454999999999941
11
60.5693999999999946
21
-79.1294999999999931
0
LINE
8
LYELLOW
6
CONTINUOUS
10
60.6093999999999937
20
-61.3534999999999968
11
60.6093999999999937
21
-79.1214999999999975
0
LINE
8
LYELLOW
6
CONTINUOUS
10
60.6494
20
-61.3614999999999995
11
60.6494
21
-79.1135000000000019
0
LINE
8
LYELLOW
6
CONTINUOUS
10
60.6893999999999991
20
-61.3704999999999998
11
60.6893999999999991
21
-79.1045000000000016
0
LINE
8
LYELLOW
6
CONTINUOUS
10
60.7293999999999983
20
-61.3795000000000002
11
60.7293999999999983
21
-79.0955000000000013
0
LINE
8
LYELLOW
6
CONTINUOUS
10
60.7693999999999974
20
-61.3885000000000005
11
60.7693999999999974
21
-79.0865000000000009
0
LINE
8
LYELLOW
6
CONTINUOUS
10
60.8093999999999966
20
-61.3974999999999937
11
60.8093999999999966
21
-79.0775000000000006
0
LINE
8
LYELLOW
6
CONTINUOUS
10
60.8493999999999957
20
-61.4074999999999989
11
60.8493999999999957
21
-79.0674999999999955
0
LINE
8
LYELLOW
6
CONTINUOUS
10
60.8893999999999949
20
-61.4164999999999992
11
60.8893999999999949
21
-79.0584999999999951
0
LINE
8
LYELLOW
6
CONTINUOUS
10
60.929399999999994
20
-61.4264999999999972
11
60.929399999999994
21
-79.04849999999999
0
LINE
8
LYELLOW
6
CONTINUOUS
10
60.9694000000000003
20
-61.4364999999999952
11
60.9694000000000003
21
-79.0384999999999991
0
LINE
8
LYELLOW
6
CONTINUOUS
10
61.0093999999999994
20
-61.447499999999998
11
61.0093999999999994
21
-79.0275000000000034
0
LINE
8
LYELLOW
6
CONTINUOUS
10
61.0493999999999986
20
-61.457499999999996
11
61.0493999999999986
21
-68.7974999999999994
0
LINE
8
LYELLOW
6
CONTINUOUS
10
61.0493999999999986
20
-71.6774999999999949
11
61.0493999999999986
21
-79.0174999999999983
0
LINE
8
LYELLOW
6
CONTINUOUS
10
61.0893999999999977
20
-61.4684999999999988
11
61.0893999999999977
21
-68.7974999999999994
0
LINE
8
LYELLOW
6
CONTINUOUS
10
61.0893999999999977
20
-71.6774999999999949
11
61.0893999999999977
21
-79.0065000000000026
0
LINE
8
LYELLOW
6
CONTINUOUS
10
61.1293999999999969
20
-61.4784999999999968
11
61.1293999999999969
21
-68.7974999999999994
0
LINE
8
LYELLOW
6
CONTINUOUS
10
61.1293999999999969
20
-71.6774999999999949
11
61.1293999999999969
21
-78.9964999999999975
0
LINE
8
LYELLOW
6
CONTINUOUS
10
61.169399999999996
20
-61.4894999999999996
11
61.169399999999996
21
-68.7974999999999994
0
LINE
8
LYELLOW
6
CONTINUOUS
10
61.169399999999996
20
-71.6774999999999949
11
61.169399999999996
21
-78.9855000000000018
0
LINE
8
LYELLOW
6
CONTINUOUS
10
61.2093999999999951
20
-61.5015000000000001
11
61.2093999999999951
21
-68.7974999999999994
0
LINE
8
LYELLOW
6
CONTINUOUS
10
61.2093999999999951
20
-71.6774999999999949
11
61.2093999999999951
21
-78.9735000000000014
0
LINE
8
LYELLOW
6
CONTINUOUS
10
61.2493999999999943
20
-61.5124999999999957
11
61.2493999999999943
21
-68.7974999999999994
0
LINE
8
LYELLOW
6
CONTINUOUS
10
61.2493999999999943
20
-71.6774999999999949
11
61.2493999999999943
21
-78.9624999999999915
0
LINE
8
LYELLOW
6
CONTINUOUS
10
61.2894000000000005
20
-61.5244999999999962
11
61.2894000000000005
21
-68.7974999999999994
0
LINE
8
LYELLOW
6
CONTINUOUS
10
61.2894000000000005
20
-71.6774999999999949
11
61.2894000000000005
21
-78.950499999999991
0
LINE
8
LYELLOW
6
CONTINUOUS
10
61.3293999999999997
20
-61.535499999999999
11
61.3293999999999997
21
-68.7974999999999994
0
LINE
8
LYELLOW
6
CONTINUOUS
10
61.3293999999999997
20
-71.6774999999999949
11
61.3293999999999997
21
-78.9394999999999953
0
LINE
8
LYELLOW
6
CONTINUOUS
10
61.3693999999999988
20
-61.5474999999999994
11
61.3693999999999988
21
-68.7974999999999994
0
LINE
8
LYELLOW
6
CONTINUOUS
10
61.3693999999999988
20
-71.6774999999999949
11
61.3693999999999988
21
-78.9274999999999949
0
LINE
8
LYELLOW
6
CONTINUOUS
10
61.409399999999998
20
-61.5604999999999976
11
61.409399999999998
21
-68.7974999999999994
0
LINE
8
LYELLOW
6
CONTINUOUS
10
61.409399999999998
20
-71.6774999999999949
11
61.409399999999998
21
-78.9144999999999897
0
LINE
8
LYELLOW
6
CONTINUOUS
10
61.4493999999999971
20
-61.572499999999998
11
61.4493999999999971
21
-68.7974999999999994
0
LINE
8
LYELLOW
6
CONTINUOUS
10
61.4493999999999971
20
-71.6774999999999949
11
61.4493999999999971
21
-78.9025000000000034
0
LINE
8
LYELLOW
6
CONTINUOUS
10
61.4893999999999963
20
-61.5854999999999961
11
61.4893999999999963
21
-68.7974999999999994
0
LINE
8
LYELLOW
6
CONTINUOUS
10
61.4893999999999963
20
-71.6774999999999949
11
61.4893999999999963
21
-78.8894999999999982
0
LINE
8
LYELLOW
6
CONTINUOUS
10
61.5293999999999954
20
-61.5974999999999966
11
61.5293999999999954
21
-68.7974999999999994
0
LINE
8
LYELLOW
6
CONTINUOUS
10
61.5293999999999954
20
-71.6774999999999949
11
61.5293999999999954
21
-78.8774999999999977
0
LINE
8
LYELLOW
6
CONTINUOUS
10
61.5693999999999946
20
-61.6104999999999947
11
61.5693999999999946
21
-68.7974999999999994
0
LINE
8
LYELLOW
6
CONTINUOUS
10
61.5693999999999946
20
-71.6774999999999949
11
61.5693999999999946
21
-78.8644999999999925
0
LINE
8
LYELLOW
6
CONTINUOUS
10
61.6093999999999937
20
-61.6244999999999976
11
61.6093999999999937
21
-68.7974999999999994
0
LINE
8
LYELLOW
6
CONTINUOUS
10
61.6093999999999937
20
-71.6774999999999949
11
61.6093999999999937
21
-78.8504999999999967
0
LINE
8
LYELLOW
6
CONTINUOUS
10
61.6494
20
-61.6374999999999957
11
61.6494
21
-68.7974999999999994
0
LINE
8
LYELLOW
6
CONTINUOUS
10
61.6494
20
-71.6774999999999949
11
61.6494
21
-78.8374999999999915
0
LINE
8
LYELLOW
6
CONTINUOUS
10
61.6893999999999991
20
-61.6514999999999986
11
61.6893999999999991
21
-68.7974999999999994
0
LINE
8
LYELLOW
6
CONTINUOUS
10
61.6893999999999991
20
-71.6774999999999949
11
61.6893999999999991
21
-78.8234999999999957
0
LINE
8
LYELLOW
6
CONTINUOUS
10
61.7293999999999983
20
-61.6654999999999944
11
61.7293999999999983
21
-68.7974999999999994
0
LINE
8
LYELLOW
6
CONTINUOUS
10
61.7293999999999983
20
-71.6774999999999949
11
61.7293999999999983
21
-78.8094999999999999
0
LINE
8
LYELLOW
6
CONTINUOUS
10
61.7693999999999974
20
-61.6794999999999973
11
61.7693999999999974
21
-68.7974999999999994
0
LINE
8
LYELLOW
6
CONTINUOUS
10
61.7693999999999974
20
-71.6774999999999949
11
61.7693999999999974
21
-78.7954999999999899
0
LINE
8
LYELLOW
6
CONTINUOUS
10
61.8093999999999966
20
-61.6935000000000002
11
61.8093999999999966
21
-68.7974999999999994
0
LINE
8
LYELLOW
6
CONTINUOUS
10
61.8093999999999966
20
-71.6774999999999949
11
61.8093999999999966
21
-78.7814999999999941
0
LINE
8
LYELLOW
6
CONTINUOUS
10
61.8493999999999957
20
-61.707499999999996
11
61.8493999999999957
21
-68.7974999999999994
0
LINE
8
LYELLOW
6
CONTINUOUS
10
61.8493999999999957
20
-71.6774999999999949
11
61.8493999999999957
21
-78.7674999999999983
0
LINE
8
LYELLOW
6
CONTINUOUS
10
61.8893999999999949
20
-61.7224999999999966
11
61.8893999999999949
21
-68.7974999999999994
0
LINE
8
LYELLOW
6
CONTINUOUS
10
61.8893999999999949
20
-71.6774999999999949
11
61.8893999999999949
21
-78.7524999999999977
0
LINE
8
LYELLOW
6
CONTINUOUS
10
61.929399999999994
20
-61.7374999999999972
11
61.929399999999994
21
-68.7974999999999994
0
LINE
8
LYELLOW
6
CONTINUOUS
10
61.929399999999994
20
-71.6774999999999949
11
61.929399999999994
21
-78.7374999999999972
0
LINE
8
LYELLOW
6
CONTINUOUS
10
61.9694000000000003
20
-61.7524999999999977
11
61.9694000000000003
21
-68.7974999999999994
0
LINE
8
LYELLOW
6
CONTINUOUS
10
61.9694000000000003
20
-71.6774999999999949
11
61.9694000000000003
21
-78.7224999999999966
0
LINE
8
LYELLOW
6
CONTINUOUS
10
62.0093999999999994
20
-61.7674999999999983
11
62.0093999999999994
21
-68.7974999999999994
0
LINE
8
LYELLOW
6
CONTINUOUS
10
62.0093999999999994
20
-71.6774999999999949
11
62.0093999999999994
21
-78.707499999999996
0
LINE
8
LYELLOW
6
CONTINUOUS
10
62.0493999999999986
20
-61.7834999999999965
11
62.0493999999999986
21
-68.7974999999999994
0
LINE
8
LYELLOW
6
CONTINUOUS
10
62.0493999999999986
20
-71.6774999999999949
11
62.0493999999999986
21
-78.6914999999999907
0
LINE
8
LYELLOW
6
CONTINUOUS
10
62.0893999999999977
20
-61.7994999999999948
11
62.0893999999999977
21
-68.7974999999999994
0
LINE
8
LYELLOW
6
CONTINUOUS
10
62.0893999999999977
20
-71.6774999999999949
11
62.0893999999999977
21
-78.6754999999999995
0
LINE
8
LYELLOW
6
CONTINUOUS
10
62.1293999999999969
20
-61.8144999999999953
11
62.1293999999999969
21
-68.7974999999999994
0
LINE
8
LYELLOW
6
CONTINUOUS
10
62.1293999999999969
20
-71.6774999999999949
11
62.1293999999999969
21
-78.660499999999999
0
LINE
8
LYELLOW
6
CONTINUOUS
10
62.169399999999996
20
-61.8314999999999984
11
62.169399999999996
21
-68.7974999999999994
0
LINE
8
LYELLOW
6
CONTINUOUS
10
62.169399999999996
20
-71.6774999999999949
11
62.169399999999996
21
-78.6435000000000031
0
LINE
8
LYELLOW
6
CONTINUOUS
10
62.2093999999999951
20
-61.8474999999999966
11
62.2093999999999951
21
-68.7974999999999994
0
LINE
8
LYELLOW
6
CONTINUOUS
10
62.2093999999999951
20
-71.6774999999999949
11
62.2093999999999951
21
-78.6274999999999977
0
LINE
8
LYELLOW
6
CONTINUOUS
10
62.2493999999999943
20
-61.8644999999999996
11
62.2493999999999943
21
-68.7974999999999994
0
LINE
8
LYELLOW
6
CONTINUOUS
10
62.2493999999999943
20
-71.6774999999999949
11
62.2493999999999943
21
-78.6105000000000018
0
LINE
8
LYELLOW
6
CONTINUOUS
10
62.2894000000000005
20
-61.8814999999999955
11
62.2894000000000005
21
-68.7974999999999994
0
LINE
8
LYELLOW
6
CONTINUOUS
10
62.2894000000000005
20
-71.6774999999999949
11
62.2894000000000005
21
-78.5934999999999917
0
LINE
8
LYELLOW
6
CONTINUOUS
10
62.3293999999999997
20
-61.8984999999999985
11
62.3293999999999997
21
-68.7974999999999994
0
LINE
8
LYELLOW
6
CONTINUOUS
10
62.3293999999999997
20
-71.6774999999999949
11
62.3293999999999997
21
-78.5764999999999958
0
LINE
8
LYELLOW
6
CONTINUOUS
10
62.3693999999999988
20
-61.9154999999999944
11
62.3693999999999988
21
-68.7974999999999994
0
LINE
8
LYELLOW
6
CONTINUOUS
10
62.3693999999999988
20
-71.6774999999999949
11
62.3693999999999988
21
-78.5594999999999999
0
LINE
8
LYELLOW
6
CONTINUOUS
10
62.409399999999998
20
-61.9324999999999974
11
62.409399999999998
21
-68.7974999999999994
0
LINE
8
LYELLOW
6
CONTINUOUS
10
62.409399999999998
20
-71.6774999999999949
11
62.409399999999998
21
-78.5424999999999898
0
LINE
8
LYELLOW
6
CONTINUOUS
10
62.4493999999999971
20
-61.9504999999999981
11
62.4493999999999971
21
-68.7974999999999994
0
LINE
8
LYELLOW
6
CONTINUOUS
10
62.4493999999999971
20
-71.6774999999999949
11
62.4493999999999971
21
-78.5245000000000033
0
LINE
8
LYELLOW
6
CONTINUOUS
10
62.4893999999999963
20
-61.9684999999999988
11
62.4893999999999963
21
-68.7974999999999994
0
LINE
8
LYELLOW
6
CONTINUOUS
10
62.4893999999999963
20
-71.6774999999999949
11
62.4893999999999963
21
-78.5065000000000026
0
LINE
8
LYELLOW
6
CONTINUOUS
10
62.5293999999999954
20
-61.9864999999999995
11
62.5293999999999954
21
-68.7974999999999994
0
LINE
8
LYELLOW
6
CONTINUOUS
10
62.5293999999999954
20
-71.6774999999999949
11
62.5293999999999954
21
-78.4885000000000019
0
LINE
8
LYELLOW
6
CONTINUOUS
10
62.5693999999999946
20
-62.0054999999999978
11
62.5693999999999946
21
-68.7974999999999994
0
LINE
8
LYELLOW
6
CONTINUOUS
10
62.5693999999999946
20
-71.6774999999999949
11
62.5693999999999946
21
-78.4694999999999965
0
LINE
8
LYELLOW
6
CONTINUOUS
10
62.6093999999999937
20
-62.0244999999999962
11
62.6093999999999937
21
-68.7974999999999994
0
LINE
8
LYELLOW
6
CONTINUOUS
10
62.6093999999999937
20
-71.6774999999999949
11
62.6093999999999937
21
-78.450499999999991
0
LINE
8
LYELLOW
6
CONTINUOUS
10
62.6494
20
-62.0424999999999969
11
62.6494
21
-68.7974999999999994
0
LINE
8
LYELLOW
6
CONTINUOUS
10
62.6494
20
-71.6774999999999949
11
62.6494
21
-78.4324999999999903
0
LINE
8
LYELLOW
6
CONTINUOUS
10
62.6893999999999991
20
-62.0625
11
62.6893999999999991
21
-68.7974999999999994
0
LINE
8
LYELLOW
6
CONTINUOUS
10
62.6893999999999991
20
-71.6774999999999949
11
62.6893999999999991
21
-78.4124999999999943
0
LINE
8
LYELLOW
6
CONTINUOUS
10
62.7293999999999983
20
-62.0814999999999984
11
62.7293999999999983
21
-68.7974999999999994
0
LINE
8
LYELLOW
6
CONTINUOUS
10
62.7293999999999983
20
-71.6774999999999949
11
62.7293999999999983
21
-78.3935000000000031
0
LINE
8
LYELLOW
6
CONTINUOUS
10
62.7693999999999974
20
-62.1014999999999944
11
62.7693999999999974
21
-68.7974999999999994
0
LINE
8
LYELLOW
6
CONTINUOUS
10
62.7693999999999974
20
-71.6774999999999949
11
62.7693999999999974
21
-78.3734999999999928
0
LINE
8
LYELLOW
6
CONTINUOUS
10
62.8093999999999966
20
-62.1214999999999975
11
62.8093999999999966
21
-68.7974999999999994
0
LINE
8
LYELLOW
6
CONTINUOUS
10
62.8093999999999966
20
-71.6774999999999949
11
62.8093999999999966
21
-78.3534999999999968
0
LINE
8
LYELLOW
6
CONTINUOUS
10
62.8493999999999957
20
-62.1415000000000006
11
62.8493999999999957
21
-68.7974999999999994
0
LINE
8
LYELLOW
6
CONTINUOUS
10
62.8493999999999957
20
-71.6774999999999949
11
62.8493999999999957
21
-78.3335000000000008
0
LINE
8
LYELLOW
6
CONTINUOUS
10
62.8893999999999949
20
-62.1614999999999966
11
62.8893999999999949
21
-68.7974999999999994
0
LINE
8
LYELLOW
6
CONTINUOUS
10
62.8893999999999949
20
-71.6774999999999949
11
62.8893999999999949
21
-78.3134999999999906
0
LINE
8
LYELLOW
6
CONTINUOUS
10
62.929399999999994
20
-62.1824999999999974
11
62.929399999999994
21
-68.7974999999999994
0
LINE
8
LYELLOW
6
CONTINUOUS
10
62.929399999999994
20
-71.6774999999999949
11
62.929399999999994
21
-78.2924999999999898
0
LINE
8
LYELLOW
6
CONTINUOUS
10
62.9694000000000003
20
-62.2034999999999982
11
62.9694000000000003
21
-68.7974999999999994
0
LINE
8
LYELLOW
6
CONTINUOUS
10
62.9694000000000003
20
-71.6774999999999949
11
62.9694000000000003
21
-78.2715000000000032
0
LINE
8
LYELLOW
6
CONTINUOUS
10
63.0093999999999994
20
-62.224499999999999
11
63.0093999999999994
21
-68.7974999999999994
0
LINE
8
LYELLOW
6
CONTINUOUS
10
63.0093999999999994
20
-71.6774999999999949
11
63.0093999999999994
21
-78.2505000000000024
0
LINE
8
LYELLOW
6
CONTINUOUS
10
63.0493999999999986
20
-62.2454999999999998
11
63.0493999999999986
21
-68.7974999999999994
0
LINE
8
LYELLOW
6
CONTINUOUS
10
63.0493999999999986
20
-71.6774999999999949
11
63.0493999999999986
21
-78.2295000000000016
0
LINE
8
LYELLOW
6
CONTINUOUS
10
63.0893999999999977
20
-62.2674999999999983
11
63.0893999999999977
21
-68.7974999999999994
0
LINE
8
LYELLOW
6
CONTINUOUS
10
63.0893999999999977
20
-71.6774999999999949
11
63.0893999999999977
21
-78.207499999999996
0
LINE
8
LYELLOW
6
CONTINUOUS
10
63.1293999999999969
20
-62.2894999999999968
11
63.1293999999999969
21
-68.7974999999999994
0
LINE
8
LYELLOW
6
CONTINUOUS
10
63.1293999999999969
20
-71.6774999999999949
11
63.1293999999999969
21
-78.1854999999999905
0
LINE
8
LYELLOW
6
CONTINUOUS
10
63.169399999999996
20
-62.3114999999999952
11
63.169399999999996
21
-68.7974999999999994
0
LINE
8
LYELLOW
6
CONTINUOUS
10
63.169399999999996
20
-71.6774999999999949
11
63.169399999999996
21
-78.1634999999999991
0
LINE
8
LYELLOW
6
CONTINUOUS
10
63.2093999999999951
20
-62.3334999999999937
11
63.2093999999999951
21
-68.7974999999999994
0
LINE
8
LYELLOW
6
CONTINUOUS
10
63.2093999999999951
20
-71.6774999999999949
11
63.2093999999999951
21
-78.1414999999999935
0
LINE
8
LYELLOW
6
CONTINUOUS
10
63.2493999999999943
20
-62.3564999999999969
11
63.2493999999999943
21
-68.7974999999999994
0
LINE
8
LYELLOW
6
CONTINUOUS
10
63.2493999999999943
20
-71.6774999999999949
11
63.2493999999999943
21
-78.1184999999999974
0
LINE
8
LYELLOW
6
CONTINUOUS
10
63.2894000000000005
20
-62.3795000000000002
11
63.2894000000000005
21
-68.7974999999999994
0
LINE
8
LYELLOW
6
CONTINUOUS
10
63.2894000000000005
20
-71.6774999999999949
11
63.2894000000000005
21
-78.0955000000000013
0
LINE
8
LYELLOW
6
CONTINUOUS
10
63.3293999999999997
20
-62.4024999999999963
11
63.3293999999999997
21
-68.7974999999999994
0
LINE
8
LYELLOW
6
CONTINUOUS
10
63.3293999999999997
20
-71.6774999999999949
11
63.3293999999999997
21
-78.0724999999999909
0
LINE
8
LYELLOW
6
CONTINUOUS
10
63.3693999999999988
20
-62.4264999999999972
11
63.3693999999999988
21
-68.7974999999999994
0
LINE
8
LYELLOW
6
CONTINUOUS
10
63.3693999999999988
20
-71.6774999999999949
11
63.3693999999999988
21
-78.04849999999999
0
LINE
8
LYELLOW
6
CONTINUOUS
10
63.409399999999998
20
-62.4495000000000005
11
63.409399999999998
21
-68.7974999999999994
0
LINE
8
LYELLOW
6
CONTINUOUS
10
63.409399999999998
20
-71.6774999999999949
11
63.409399999999998
21
-78.0254999999999939
0
LINE
8
LYELLOW
6
CONTINUOUS
10
63.4493999999999971
20
-62.4734999999999943
11
63.4493999999999971
21
-68.7974999999999994
0
LINE
8
LYELLOW
6
CONTINUOUS
10
63.4493999999999971
20
-71.6774999999999949
11
63.4493999999999971
21
-78.001499999999993
0
LINE
8
LYELLOW
6
CONTINUOUS
10
63.4893999999999963
20
-62.4984999999999999
11
63.4893999999999963
21
-68.7974999999999994
0
LINE
8
LYELLOW
6
CONTINUOUS
10
63.4893999999999963
20
-71.6774999999999949
11
63.4893999999999963
21
-77.9765000000000015
0
LINE
8
LYELLOW
6
CONTINUOUS
10
63.5293999999999954
20
-62.5224999999999937
11
63.5293999999999954
21
-68.7974999999999994
0
LINE
8
LYELLOW
6
CONTINUOUS
10
63.5293999999999954
20
-71.6774999999999949
11
63.5293999999999954
21
-77.9525000000000006
0
LINE
8
LYELLOW
6
CONTINUOUS
10
63.5693999999999946
20
-62.5474999999999994
11
63.5693999999999946
21
-68.7974999999999994
0
LINE
8
LYELLOW
6
CONTINUOUS
10
63.5693999999999946
20
-71.6774999999999949
11
63.5693999999999946
21
-77.9274999999999949
0
LINE
8
LYELLOW
6
CONTINUOUS
10
63.6093999999999937
20
-62.572499999999998
11
63.6093999999999937
21
-68.7974999999999994
0
LINE
8
LYELLOW
6
CONTINUOUS
10
63.6093999999999937
20
-71.6774999999999949
11
63.6093999999999937
21
-77.9025000000000034
0
LINE
8
LYELLOW
6
CONTINUOUS
10
63.6494
20
-62.5984999999999943
11
63.6494
21
-68.7974999999999994
0
LINE
8
LYELLOW
6
CONTINUOUS
10
63.6494
20
-71.6774999999999949
11
63.6494
21
-77.876499999999993
0
LINE
8
LYELLOW
6
CONTINUOUS
10
63.6893999999999991
20
-62.6244999999999976
11
63.6893999999999991
21
-68.7974999999999994
0
LINE
8
LYELLOW
6
CONTINUOUS
10
63.6893999999999991
20
-71.6774999999999949
11
63.6893999999999991
21
-77.8504999999999967
0
LINE
8
LYELLOW
6
CONTINUOUS
10
63.7293999999999983
20
-62.6504999999999939
11
63.7293999999999983
21
-68.7974999999999994
0
LINE
8
LYELLOW
6
CONTINUOUS
10
63.7293999999999983
20
-71.6774999999999949
11
63.7293999999999983
21
-77.8245000000000005
0
LINE
8
LYELLOW
6
CONTINUOUS
10
63.7693999999999974
20
-62.6764999999999972
11
63.7693999999999974
21
-68.7974999999999994
0
LINE
8
LYELLOW
6
CONTINUOUS
10
63.7693999999999974
20
-71.6774999999999949
11
63.7693999999999974
21
-77.79849999999999
0
LINE
8
LYELLOW
6
CONTINUOUS
10
63.8093999999999966
20
-62.7034999999999982
11
63.8093999999999966
21
-68.7974999999999994
0
LINE
8
LYELLOW
6
CONTINUOUS
10
63.8093999999999966
20
-71.6774999999999949
11
63.8093999999999966
21
-77.7715000000000032
0
LINE
8
LYELLOW
6
CONTINUOUS
10
63.8493999999999957
20
-62.7304999999999993
11
63.8493999999999957
21
-68.7974999999999994
0
LINE
8
LYELLOW
6
CONTINUOUS
10
63.8493999999999957
20
-71.6774999999999949
11
63.8493999999999957
21
-77.7445000000000022
0
LINE
8
LYELLOW
6
CONTINUOUS
10
63.8893999999999949
20
-62.7575000000000003
11
63.8893999999999949
21
-68.7974999999999994
0
LINE
8
LYELLOW
6
CONTINUOUS
10
63.8893999999999949
20
-71.6774999999999949
11
63.8893999999999949
21
-77.7175000000000011
0
LINE
8
LYELLOW
6
CONTINUOUS
10
63.929399999999994
20
-62.785499999999999
11
63.929399999999994
21
-77.6894999999999953
0
LINE
8
LYELLOW
6
CONTINUOUS
10
63.9694000000000003
20
-62.8134999999999977
11
63.9694000000000003
21
-77.6614999999999895
0
LINE
8
LYELLOW
6
CONTINUOUS
10
64.0093999999999994
20
-62.8414999999999964
11
64.0093999999999994
21
-77.633499999999998
0
LINE
8
LYELLOW
6
CONTINUOUS
10
64.0493999999999915
20
-62.8694999999999951
11
64.0493999999999915
21
-77.6054999999999922
0
LINE
8
LYELLOW
6
CONTINUOUS
10
64.0893999999999977
20
-62.8984999999999985
11
64.0893999999999977
21
-77.5764999999999958
0
LINE
8
LYELLOW
6
CONTINUOUS
10
64.129400000000004
20
-62.9284999999999997
11
64.129400000000004
21
-77.5464999999999947
0
LINE
8
LYELLOW
6
CONTINUOUS
10
64.169399999999996
20
-62.957499999999996
11
64.169399999999996
21
-77.5174999999999983
0
LINE
8
LYELLOW
6
CONTINUOUS
10
64.2094000000000023
20
-62.9874999999999972
11
64.2094000000000023
21
-77.4874999999999972
0
LINE
8
LYELLOW
6
CONTINUOUS
10
64.2493999999999943
20
-63.0174999999999983
11
64.2493999999999943
21
-77.457499999999996
0
LINE
8
LYELLOW
6
CONTINUOUS
10
64.2894000000000005
20
-63.0484999999999971
11
64.2894000000000005
21
-77.4264999999999901
0
LINE
8
LYELLOW
6
CONTINUOUS
10
64.3293999999999926
20
-63.0794999999999959
11
64.3293999999999926
21
-77.3954999999999984
0
LINE
8
LYELLOW
6
CONTINUOUS
10
64.3693999999999988
20
-63.1104999999999947
11
64.3693999999999988
21
-77.3644999999999925
0
LINE
8
LYELLOW
6
CONTINUOUS
10
64.4093999999999909
20
-63.1424999999999983
11
64.4093999999999909
21
-77.332499999999996
0
LINE
8
LYELLOW
6
CONTINUOUS
10
64.4493999999999971
20
-63.1744999999999948
11
64.4493999999999971
21
-77.3004999999999995
0
LINE
8
LYELLOW
6
CONTINUOUS
10
64.4894000000000034
20
-63.2064999999999984
11
64.4894000000000034
21
-77.2685000000000031
0
LINE
8
LYELLOW
6
CONTINUOUS
10
64.5293999999999954
20
-63.2394999999999996
11
64.5293999999999954
21
-77.2355000000000018
0
LINE
8
LYELLOW
6
CONTINUOUS
10
64.5694000000000017
20
-63.2724999999999937
11
64.5694000000000017
21
-77.2025000000000006
0
LINE
8
LYELLOW
6
CONTINUOUS
10
64.6093999999999937
20
-63.3064999999999998
11
64.6093999999999937
21
-77.1684999999999945
0
LINE
8
LYELLOW
6
CONTINUOUS
10
64.6494
20
-63.3404999999999987
11
64.6494
21
-77.1345000000000027
0
LINE
8
LYELLOW
6
CONTINUOUS
10
64.689399999999992
20
-63.3744999999999976
11
64.689399999999992
21
-77.1004999999999967
0
LINE
8
LYELLOW
6
CONTINUOUS
10
64.7293999999999983
20
-63.4094999999999942
11
64.7293999999999983
21
-77.0655000000000001
0
LINE
8
LYELLOW
6
CONTINUOUS
10
64.7693999999999903
20
-63.4444999999999979
11
64.7693999999999903
21
-77.0305000000000035
0
LINE
8
LYELLOW
6
CONTINUOUS
10
64.8093999999999966
20
-63.4794999999999945
11
64.8093999999999966
21
-76.9954999999999927
0
LINE
8
LYELLOW
6
CONTINUOUS
10
64.8494000000000028
20
-63.5154999999999959
11
64.8494000000000028
21
-76.9594999999999914
0
LINE
8
LYELLOW
6
CONTINUOUS
10
64.8893999999999949
20
-63.5524999999999949
11
64.8893999999999949
21
-76.9224999999999994
0
LINE
8
LYELLOW
6
CONTINUOUS
10
64.9294000000000011
20
-63.5894999999999939
11
64.9294000000000011
21
-76.8854999999999933
0
LINE
8
LYELLOW
6
CONTINUOUS
10
64.9693999999999932
20
-63.6265000000000001
11
64.9693999999999932
21
-76.8485000000000014
0
LINE
8
LYELLOW
6
CONTINUOUS
10
65.0093999999999994
20
-63.6644999999999968
11
65.0093999999999994
21
-76.8104999999999905
0
LINE
8
LYELLOW
6
CONTINUOUS
10
65.0493999999999915
20
-63.7025000000000006
11
65.0493999999999915
21
-76.7724999999999937
0
LINE
8
LYELLOW
6
CONTINUOUS
10
65.0893999999999977
20
-63.7414999999999949
11
65.0893999999999977
21
-76.7334999999999923
0
LINE
8
LYELLOW
6
CONTINUOUS
10
65.129400000000004
20
-63.7804999999999964
11
65.129400000000004
21
-76.6944999999999908
0
LINE
8
LYELLOW
6
CONTINUOUS
10
65.169399999999996
20
-63.8194999999999979
11
65.169399999999996
21
-76.6555000000000035
0
LINE
8
LYELLOW
6
CONTINUOUS
10
65.2094000000000023
20
-63.8604999999999947
11
65.2094000000000023
21
-76.6144999999999925
0
LINE
8
LYELLOW
6
CONTINUOUS
10
65.2493999999999943
20
-63.9004999999999939
11
65.2493999999999943
21
-76.5745000000000005
0
LINE
8
LYELLOW
6
CONTINUOUS
10
65.2894000000000005
20
-63.9414999999999978
11
65.2894000000000005
21
-76.5335000000000036
0
LINE
8
LYELLOW
6
CONTINUOUS
10
65.3293999999999926
20
-63.9834999999999994
11
65.3293999999999926
21
-76.491500000000002
0
LINE
8
LYELLOW
6
CONTINUOUS
10
65.3693999999999988
20
-64.0254999999999939
11
65.3693999999999988
21
-76.4495000000000005
0
LINE
8
LYELLOW
6
CONTINUOUS
10
65.4093999999999909
20
-64.0685000000000002
11
65.4093999999999909
21
-76.4064999999999941
0
LINE
8
LYELLOW
6
CONTINUOUS
10
65.4493999999999971
20
-64.1114999999999924
11
65.4493999999999971
21
-76.3635000000000019
0
LINE
8
LYELLOW
6
CONTINUOUS
10
65.4894000000000034
20
-64.1555000000000035
11
65.4894000000000034
21
-76.3194999999999908
0
LINE
8
LYELLOW
6
CONTINUOUS
10
65.5293999999999954
20
-64.200499999999991
11
65.5293999999999954
21
-76.2745000000000033
0
LINE
8
LYELLOW
6
CONTINUOUS
10
65.5694000000000017
20
-64.2454999999999927
11
65.5694000000000017
21
-76.2295000000000016
0
LINE
8
LYELLOW
6
CONTINUOUS
10
65.6093999999999937
20
-64.2904999999999944
11
65.6093999999999937
21
-76.1844999999999999
0
LINE
8
LYELLOW
6
CONTINUOUS
10
65.6494
20
-64.3374999999999915
11
65.6494
21
-76.1375000000000028
0
LINE
8
LYELLOW
6
CONTINUOUS
10
65.689399999999992
20
-64.3845000000000027
11
65.689399999999992
21
-76.0904999999999916
0
LINE
8
LYELLOW
6
CONTINUOUS
10
65.7293999999999983
20
-64.4314999999999998
11
65.7293999999999983
21
-76.0434999999999945
0
LINE
8
LYELLOW
6
CONTINUOUS
10
65.7693999999999903
20
-64.4795000000000016
11
65.7693999999999903
21
-75.9954999999999927
0
LINE
8
LYELLOW
6
CONTINUOUS
10
65.8093999999999966
20
-64.528499999999994
11
65.8093999999999966
21
-75.9465000000000003
0
LINE
8
LYELLOW
6
CONTINUOUS
10
65.8494000000000028
20
-64.5784999999999911
11
65.8494000000000028
21
-75.8965000000000032
0
LINE
8
LYELLOW
6
CONTINUOUS
10
65.8893999999999949
20
-64.6285000000000025
11
65.8893999999999949
21
-75.8464999999999918
0
LINE
8
LYELLOW
6
CONTINUOUS
10
65.9294000000000011
20
-64.6794999999999902
11
65.9294000000000011
21
-75.7954999999999899
0
LINE
8
LYELLOW
6
CONTINUOUS
10
65.9693999999999932
20
-64.7314999999999969
11
65.9693999999999932
21
-75.7434999999999974
0
LINE
8
LYELLOW
6
CONTINUOUS
10
66.0093999999999994
20
-64.7844999999999942
11
66.0093999999999994
21
-75.6905000000000001
0
LINE
8
LYELLOW
6
CONTINUOUS
10
66.0493999999999915
20
-64.8374999999999915
11
66.0493999999999915
21
-75.6375000000000028
0
LINE
8
LYELLOW
6
CONTINUOUS
10
66.0893999999999977
20
-64.8914999999999935
11
66.0893999999999977
21
-75.5835000000000008
0
LINE
8
LYELLOW
6
CONTINUOUS
10
66.129400000000004
20
-64.9465000000000003
11
66.129400000000004
21
-75.528499999999994
0
LINE
8
LYELLOW
6
CONTINUOUS
10
66.169399999999996
20
-65.0024999999999977
11
66.169399999999996
21
-75.4724999999999966
0
LINE
8
LYELLOW
6
CONTINUOUS
10
66.2094000000000023
20
-65.0594999999999999
11
66.2094000000000023
21
-75.4154999999999944
0
LINE
8
LYELLOW
6
CONTINUOUS
10
66.2493999999999943
20
-65.1174999999999926
11
66.2493999999999943
21
-75.3575000000000017
0
LINE
8
LYELLOW
6
CONTINUOUS
10
66.2894000000000005
20
-65.1764999999999901
11
66.2894000000000005
21
-75.29849999999999
0
LINE
8
LYELLOW
6
CONTINUOUS
10
66.3293999999999926
20
-65.2364999999999924
11
66.3293999999999926
21
-75.2385000000000019
0
LINE
8
LYELLOW
6
CONTINUOUS
10
66.3693999999999988
20
-65.2974999999999994
11
66.3693999999999988
21
-75.1774999999999949
0
LINE
8
LYELLOW
6
CONTINUOUS
10
66.4093999999999909
20
-65.3584999999999923
11
66.4093999999999909
21
-75.116500000000002
0
LINE
8
LYELLOW
6
CONTINUOUS
10
66.4493999999999971
20
-65.4214999999999947
11
66.4493999999999971
21
-75.0534999999999997
0
LINE
8
LYELLOW
6
CONTINUOUS
10
66.4894000000000034
20
-65.4864999999999924
11
66.4894000000000034
21
-74.9885000000000019
0
LINE
8
LYELLOW
6
CONTINUOUS
10
66.5293999999999954
20
-65.5514999999999901
11
66.5293999999999954
21
-74.92349999999999
0
LINE
8
LYELLOW
6
CONTINUOUS
10
66.5694000000000017
20
-65.6184999999999974
11
66.5694000000000017
21
-74.8564999999999969
0
LINE
8
LYELLOW
6
CONTINUOUS
10
66.6093999999999937
20
-65.6864999999999952
11
66.6093999999999937
21
-74.7884999999999991
0
LINE
8
LYELLOW
6
CONTINUOUS
10
66.6494
20
-65.7554999999999978
11
66.6494
21
-74.7194999999999965
0
LINE
8
LYELLOW
6
CONTINUOUS
10
66.689399999999992
20
-65.8264999999999958
11
66.689399999999992
21
-74.6484999999999985
0
LINE
8
LYELLOW
6
CONTINUOUS
10
66.7293999999999983
20
-65.8984999999999985
11
66.7293999999999983
21
-74.5764999999999958
0
LINE
8
LYELLOW
6
CONTINUOUS
10
66.7693999999999903
20
-65.9724999999999966
11
66.7693999999999903
21
-74.5024999999999977
0
LINE
8
LYELLOW
6
CONTINUOUS
10
66.8093999999999966
20
-66.04849999999999
11
66.8093999999999966
21
-74.4264999999999901
0
LINE
8
LYELLOW
6
CONTINUOUS
10
66.8494000000000028
20
-66.1255000000000024
11
66.8494000000000028
21
-74.3494999999999919
0
LINE
8
LYELLOW
6
CONTINUOUS
10
66.8893999999999949
20
-66.2044999999999959
11
66.8893999999999949
21
-74.2704999999999984
0
LINE
8
LYELLOW
6
CONTINUOUS
10
66.9294000000000011
20
-66.285499999999999
11
66.9294000000000011
21
-74.1894999999999953
0
LINE
8
LYELLOW
6
CONTINUOUS
10
66.9693999999999932
20
-66.3684999999999974
11
66.9693999999999932
21
-74.1064999999999969
0
LINE
8
LYELLOW
6
CONTINUOUS
10
67.0093999999999994
20
-66.4544999999999959
11
67.0093999999999994
21
-74.0204999999999984
0
LINE
8
LYELLOW
6
CONTINUOUS
10
67.0493999999999915
20
-66.542500000000004
11
67.0493999999999915
21
-73.9324999999999903
0
LINE
8
LYELLOW
6
CONTINUOUS
10
67.0893999999999977
20
-66.6324999999999932
11
67.0893999999999977
21
-73.8425000000000011
0
LINE
8
LYELLOW
6
CONTINUOUS
10
67.129400000000004
20
-66.7254999999999967
11
67.129400000000004
21
-73.7494999999999976
0
LINE
8
LYELLOW
6
CONTINUOUS
10
67.169399999999996
20
-66.8215000000000003
11
67.169399999999996
21
-73.653499999999994
0
LINE
8
LYELLOW
6
CONTINUOUS
10
67.2094000000000023
20
-66.9214999999999947
11
67.2094000000000023
21
-73.5534999999999997
0
LINE
8
LYELLOW
6
CONTINUOUS
10
67.2493999999999943
20
-67.0245000000000033
11
67.2493999999999943
21
-73.450499999999991
0
LINE
8
LYELLOW
6
CONTINUOUS
10
67.2894000000000005
20
-67.1304999999999978
11
67.2894000000000005
21
-73.3444999999999965
0
LINE
8
LYELLOW
6
CONTINUOUS
10
67.3293999999999926
20
-67.241500000000002
11
67.3293999999999926
21
-73.2334999999999923
0
LINE
8
LYELLOW
6
CONTINUOUS
10
67.3693999999999988
20
-67.3575000000000017
11
67.3693999999999988
21
-73.1174999999999926
0
LINE
8
LYELLOW
6
CONTINUOUS
10
67.4093999999999909
20
-67.4784999999999968
11
67.4093999999999909
21
-72.9964999999999975
0
LINE
8
LYELLOW
6
CONTINUOUS
10
67.4493999999999971
20
-67.6064999999999969
11
67.4493999999999971
21
-72.8684999999999974
0
LINE
8
LYELLOW
6
CONTINUOUS
10
67.4894000000000034
20
-67.7404999999999973
11
67.4894000000000034
21
-72.734499999999997
0
LINE
8
LYELLOW
6
CONTINUOUS
10
67.5293999999999954
20
-67.8824999999999932
11
67.5293999999999954
21
-72.5925000000000011
0
LINE
8
LYELLOW
6
CONTINUOUS
10
67.5694000000000017
20
-68.035499999999999
11
67.5694000000000017
21
-72.4394999999999953
0
LINE
8
LYELLOW
6
CONTINUOUS
10
67.6093999999999937
20
-68.1995000000000005
11
67.6093999999999937
21
-72.2754999999999939
0
LINE
8
LYELLOW
6
CONTINUOUS
10
67.6494
20
-68.3785000000000025
11
67.6494
21
-72.0964999999999918
0
LINE
8
LYELLOW
6
CONTINUOUS
10
67.689399999999992
20
-68.5764999999999958
11
67.689399999999992
21
-71.8984999999999985
0
LINE
8
LYELLOW
6
CONTINUOUS
10
67.7293999999999983
20
-68.8024999999999949
11
67.7293999999999983
21
-71.6724999999999994
0
LINE
8
LYELLOW
6
CONTINUOUS
10
67.7693999999999903
20
-69.0724999999999909
11
67.7693999999999903
21
-71.4025000000000034
0
LINE
8
LYELLOW
6
CONTINUOUS
10
67.8093999999999966
20
-69.4244999999999948
11
67.8093999999999966
21
-71.0504999999999995
0
LINE
8
LYELLOW
6
CONTINUOUS
10
67.8494000000000028
20
-70.2775000000000034
11
67.8494000000000028
21
-70.1974999999999909
0
CIRCLE
8
LYELLOW
10
58.7293999999999983
20
-70.2374999999999972
40
9.1199999999999992
0
LINE
8
LYELLOW
6
CONTINUOUS
10
87.4449999999999932
20
-56.3374999999999986
11
88.4649999999999892
21
-56.3374999999999986
0
LINE
8
LYELLOW
6
CONTINUOUS
10
89.2449999999999903
20
-54.8674999999999997
11
89.2449999999999903
21
-57.8074999999999974
0
LINE
8
LYELLOW
6
CONTINUOUS
10
89.3649999999999949
20
-54.8674999999999997
11
89.3649999999999949
21
-57.8074999999999974
0
LINE
8
LYELLOW
6
CONTINUOUS
10
89.4849999999999994
20
-54.8674999999999997
11
89.4849999999999994
21
-57.8074999999999974
0
LINE
8
LYELLOW
6
CONTINUOUS
10
94.9249999999999972
20
-56.3374999999999986
11
93.9050000000000011
21
-56.3374999999999986
0
LINE
8
LYELLOW
6
CONTINUOUS
10
88.4649999999999892
20
-54.8674999999999997
11
93.9050000000000011
21
-54.8674999999999997
0
LINE
8
LYELLOW
6
CONTINUOUS
10
93.9050000000000011
20
-54.8674999999999997
11
93.9050000000000011
21
-57.8074999999999974
0
LINE
8
LYELLOW
6
CONTINUOUS
10
93.9050000000000011
20
-57.8074999999999974
11
88.4649999999999892
21
-57.8074999999999974
0
LINE
8
LYELLOW
6
CONTINUOUS
10
88.4649999999999892
20
-57.8074999999999974
11
88.4649999999999892
21
-54.8674999999999997
0
LINE
8
LYELLOW
6
CONTINUOUS
10
108.0599999999999881
20
-43.1524999999999963
11
108.0599999999999881
21
-50.7725000000000009
0
LINE
8
LYELLOW
6
CONTINUOUS
10
108.0599999999999881
20
-50.7725000000000009
11
118.2199999999999989
21
-50.7725000000000009
0
LINE
8
LYELLOW
6
CONTINUOUS
10
118.2199999999999989
20
-43.1524999999999963
11
108.0599999999999881
21
-43.1524999999999963
0
LINE
8
LYELLOW
6
CONTINUOUS
10
118.2199999999999989
20
-49.5024999999999977
11
108.0599999999999881
21
-49.5024999999999977
0
LINE
8
LYELLOW
6
CONTINUOUS
10
118.2199999999999989
20
-50.7725000000000009
11
118.2199999999999989
21
-43.1524999999999963
0
LINE
8
LYELLOW
6
CONTINUOUS
10
51.625
20
-50.0874999999999986
11
52.644999999999996
21
-50.0874999999999986
0
LINE
8
LYELLOW
6
CONTINUOUS
10
53.4249999999999972
20
-48.6174999999999997
11
53.4249999999999972
21
-51.5574999999999974
0
LINE
8
LYELLOW
6
CONTINUOUS
10
53.5449999999999946
20
-48.6174999999999997
11
53.5449999999999946
21
-51.5574999999999974
0
LINE
8
LYELLOW
6
CONTINUOUS
10
53.6649999999999991
20
-48.6174999999999997
11
53.6649999999999991
21
-51.5574999999999974
0
LINE
8
LYELLOW
6
CONTINUOUS
10
59.1049999999999969
20
-50.0874999999999986
11
58.0850000000000009
21
-50.0874999999999986
0
LINE
8
LYELLOW
6
CONTINUOUS
10
52.644999999999996
20
-48.6174999999999997
11
58.0850000000000009
21
-48.6174999999999997
0
LINE
8
LYELLOW
6
CONTINUOUS
10
58.0850000000000009
20
-48.6174999999999997
11
58.0850000000000009
21
-51.5574999999999974
0
LINE
8
LYELLOW
6
CONTINUOUS
10
58.0850000000000009
20
-51.5574999999999974
11
52.644999999999996
21
-51.5574999999999974
0
LINE
8
LYELLOW
6
CONTINUOUS
10
52.644999999999996
20
-51.5574999999999974
11
52.644999999999996
21
-48.6174999999999997
0
LINE
8
WHITE
6
CONTINUOUS
10
20.
20
-20.
11
124.
21
-20.
0
LINE
8
WHITE
6
CONTINUOUS
10
124.
20
-20.
11
124.
21
-124.
0
LINE
8
WHITE
6
CONTINUOUS
10
124.
20
-124.
11
20.
21
-124.
0
LINE
8
WHITE
6
CONTINUOUS
10
20.
20
-124.
11
20.
21
-20.
  0
ENDSEC
  0
EOF
