  0
SECTION
  2
HEADER
  9
$ANGBASE
  50
0.0
  9
$ANGDIR
  70
1
  9
$MEASUREMENT
  70
1
  0
ENDSEC
  0
SECTION
  2
TABLES
  0
TABLE
  2
LTYPE
  70
4
  0
LTYPE
  5
40F
  2
CONTINUOUS
  70
0
  3
Solid line
  72
65
  73
0
  40
0.0
  0
LTYPE
  5
410
  2
DASHDOT
 70
0
  3
Dash Dot ____ _ ____ _
 72
65
 73
4
 40
2.0
 49
1.25
 49
-0.25
 49
0.25
 49
-0.25
  0
LTYPE
  5
411
  2
DASHED
 70
0
  3
Dashed __ __ __ __ __
 72
65
 73
2
 40
0.75
 49
0.5
 49
-0.25
  0
LTYPE
  5
43B
  2
DOTTED
 70
0
  3
Dotted .  .  .  .
 72
65
 73
2
 40
0.2
 49
0.0
 49
-0.2
  0
ENDTAB
  0
TABLE
  2
STYLE
  70
4
  0
STYLE
  2
KICAD
  70
0
  40
0
  41
1
  42
1
  50
0
  71
0
  3
isocp.shx
  0
STYLE
  2
KICADB
  70
0
  40
0
  41
1
  42
1
  50
0
  71
0
  3
isocp.shx
  0
STYLE
  2
KICADI
  70
0
  40
0
  41
1
  42
1
  50
15
  71
0
  3
isocp.shx
  0
STYLE
  2
KICADBI
  70
0
  40
0
  41
1
  42
1
  50
15
  71
0
  3
isocp.shx
  0
ENDTAB
  0
TABLE
  2
LAYER
  70
35
  0
LAYER
  2
BLACK
  70
0
  62
7
  6
CONTINUOUS
  0
LAYER
  2
GRAY1
  70
0
  62
251
  6
CONTINUOUS
  0
LAYER
  2
GRAY2
  70
0
  62
8
  6
CONTINUOUS
  0
LAYER
  2
GRAY3
  70
0
  62
9
  6
CONTINUOUS
  0
LAYER
  2
WHITE
  70
0
  62
7
  6
CONTINUOUS
  0
LAYER
  2
LYELLOW
  70
0
  62
51
  6
CONTINUOUS
  0
LAYER
  2
LORANGE
  70
0
  62
41
  6
CONTINUOUS
  0
LAYER
  2
BLUE1
  70
0
  62
178
  6
CONTINUOUS
  0
LAYER
  2
GREEN1
  70
0
  62
98
  6
CONTINUOUS
  0
LAYER
  2
CYAN1
  70
0
  62
138
  6
CONTINUOUS
  0
LAYER
  2
RED1
  70
0
  62
18
  6
CONTINUOUS
  0
LAYER
  2
MAGENTA1
  70
0
  62
228
  6
CONTINUOUS
  0
LAYER
  2
BROWN1
  70
0
  62
58
  6
CONTINUOUS
  0
LAYER
  2
ORANGE1
  70
0
  62
34
  6
CONTINUOUS
  0
LAYER
  2
BLUE2
  70
0
  62
5
  6
CONTINUOUS
  0
LAYER
  2
GREEN2
  70
0
  62
3
  6
CONTINUOUS
  0
LAYER
  2
CYAN2
  70
0
  62
4
  6
CONTINUOUS
  0
LAYER
  2
RED2
  70
0
  62
1
  6
CONTINUOUS
  0
LAYER
  2
MAGENTA2
  70
0
  62
6
  6
CONTINUOUS
  0
LAYER
  2
BROWN2
  70
0
  62
54
  6
CONTINUOUS
  0
LAYER
  2
ORANGE2
  70
0
  62
42
  6
CONTINUOUS
  0
LAYER
  2
BLUE3
  70
0
  62
171
  6
CONTINUOUS
  0
LAYER
  2
GREEN3
  70
0
  62
91
  6
CONTINUOUS
  0
LAYER
  2
CYAN3
  70
0
  62
131
  6
CONTINUOUS
  0
LAYER
  2
RED3
  70
0
  62
11
  6
CONTINUOUS
  0
LAYER
  2
MAGENTA3
  70
0
  62
221
  6
CONTINUOUS
  0
LAYER
  2
YELLOW3
  70
0
  62
2
  6
CONTINUOUS
  0
LAYER
  2
ORANGE3
  70
0
  62
32
  6
CONTINUOUS
  0
LAYER
  2
BLUE4
  70
0
  62
5
  6
CONTINUOUS
  0
LAYER
  2
GREEN4
  70
0
  62
3
  6
CONTINUOUS
  0
LAYER
  2
CYAN4
  70
0
  62
4
  6
CONTINUOUS
  0
LAYER
  2
RED4
  70
0
  62
1
  6
CONTINUOUS
  0
LAYER
  2
MAGENTA4
  70
0
  62
6
  6
CONTINUOUS
  0
LAYER
  2
YELLOW4
  70
0
  62
2
  6
CONTINUOUS
  0
LAYER
  2
ORANGE4
  70
0
  62
40
  6
CONTINUOUS
  0
ENDTAB
  0
ENDSEC
  0
SECTION
  2
ENTITIES
0
LINE
8
LYELLOW
6
CONTINUOUS
10
58.716904999999997
20
-48.0098190000000002
11
58.716904999999997
21
-47.0098190000000002
0
LINE
8
LYELLOW
6
CONTINUOUS
10
58.716904999999997
20
-47.0098190000000002
11
58.9549999999999983
21
-47.0098190000000002
0
LINE
8
LYELLOW
6
CONTINUOUS
10
58.9549999999999983
20
-47.0098190000000002
11
59.0978569999999976
21
-47.0574379999999977
0
LINE
8
LYELLOW
6
CONTINUOUS
10
59.0978569999999976
20
-47.0574379999999977
11
59.1930949999999996
21
-47.1526759999999996
0
LINE
8
LYELLOW
6
CONTINUOUS
10
59.1930949999999996
20
-47.1526759999999996
11
59.240713999999997
21
-47.2479139999999944
0
LINE
8
LYELLOW
6
CONTINUOUS
10
59.240713999999997
20
-47.2479139999999944
11
59.2883329999999944
21
-47.4383899999999983
0
LINE
8
LYELLOW
6
CONTINUOUS
10
59.2883329999999944
20
-47.4383899999999983
11
59.2883329999999944
21
-47.5812469999999976
0
LINE
8
LYELLOW
6
CONTINUOUS
10
59.2883329999999944
20
-47.5812469999999976
11
59.240713999999997
21
-47.7717229999999944
0
LINE
8
LYELLOW
6
CONTINUOUS
10
59.240713999999997
20
-47.7717229999999944
11
59.1930949999999996
21
-47.8669609999999963
0
LINE
8
LYELLOW
6
CONTINUOUS
10
59.1930949999999996
20
-47.8669609999999963
11
59.0978569999999976
21
-47.9621999999999957
0
LINE
8
LYELLOW
6
CONTINUOUS
10
59.0978569999999976
20
-47.9621999999999957
11
58.9549999999999983
21
-48.0098190000000002
0
LINE
8
LYELLOW
6
CONTINUOUS
10
58.9549999999999983
20
-48.0098190000000002
11
58.716904999999997
21
-48.0098190000000002
0
LINE
8
LYELLOW
6
CONTINUOUS
10
60.1930949999999996
20
-47.0098190000000002
11
59.716904999999997
21
-47.0098190000000002
0
LINE
8
LYELLOW
6
CONTINUOUS
10
59.716904999999997
20
-47.0098190000000002
11
59.6692859999999996
21
-47.4860089999999957
0
LINE
8
LYELLOW
6
CONTINUOUS
10
59.6692859999999996
20
-47.4860089999999957
11
59.716904999999997
21
-47.4383899999999983
0
LINE
8
LYELLOW
6
CONTINUOUS
10
59.716904999999997
20
-47.4383899999999983
11
59.8121429999999989
21
-47.3907710000000009
0
LINE
8
LYELLOW
6
CONTINUOUS
10
59.8121429999999989
20
-47.3907710000000009
11
60.0502380000000002
21
-47.3907710000000009
0
LINE
8
LYELLOW
6
CONTINUOUS
10
60.0502380000000002
20
-47.3907710000000009
11
60.1454759999999951
21
-47.4383899999999983
0
LINE
8
LYELLOW
6
CONTINUOUS
10
60.1454759999999951
20
-47.4383899999999983
11
60.1930949999999996
21
-47.4860089999999957
0
LINE
8
LYELLOW
6
CONTINUOUS
10
60.1930949999999996
20
-47.4860089999999957
11
60.240713999999997
21
-47.5812469999999976
0
LINE
8
LYELLOW
6
CONTINUOUS
10
60.240713999999997
20
-47.5812469999999976
11
60.240713999999997
21
-47.8193419999999989
0
LINE
8
LYELLOW
6
CONTINUOUS
10
60.240713999999997
20
-47.8193419999999989
11
60.1930949999999996
21
-47.9145800000000008
0
LINE
8
LYELLOW
6
CONTINUOUS
10
60.1930949999999996
20
-47.9145800000000008
11
60.1454759999999951
21
-47.9621999999999957
0
LINE
8
LYELLOW
6
CONTINUOUS
10
60.1454759999999951
20
-47.9621999999999957
11
60.0502380000000002
21
-48.0098190000000002
0
LINE
8
LYELLOW
6
CONTINUOUS
10
60.0502380000000002
20
-48.0098190000000002
11
59.8121429999999989
21
-48.0098190000000002
0
LINE
8
LYELLOW
6
CONTINUOUS
10
59.8121429999999989
20
-48.0098190000000002
11
59.716904999999997
21
-47.9621999999999957
0
LINE
8
LYELLOW
6
CONTINUOUS
10
59.716904999999997
20
-47.9621999999999957
11
59.6692859999999996
21
-47.9145800000000008
0
LINE
8
LYELLOW
6
CONTINUOUS
10
54.1130949999999942
20
-48.3798189999999977
11
54.1130949999999942
21
-47.3798189999999977
0
LINE
8
LYELLOW
6
CONTINUOUS
10
54.6845229999999987
20
-48.3798189999999977
11
54.2559520000000006
21
-47.8083899999999957
0
LINE
8
LYELLOW
6
CONTINUOUS
10
54.6845229999999987
20
-47.3798189999999977
11
54.1130949999999942
21
-47.9512469999999951
0
LINE
8
LYELLOW
6
CONTINUOUS
10
79.6269049999999936
20
-32.1098190000000017
11
79.6269049999999936
21
-31.1098189999999981
0
LINE
8
LYELLOW
6
CONTINUOUS
10
79.6269049999999936
20
-31.1098189999999981
11
79.8649999999999949
21
-31.1098189999999981
0
LINE
8
LYELLOW
6
CONTINUOUS
10
79.8649999999999949
20
-31.1098189999999981
11
80.0078570000000013
21
-31.1574379999999991
0
LINE
8
LYELLOW
6
CONTINUOUS
10
80.0078570000000013
20
-31.1574379999999991
11
80.1030949999999962
21
-31.2526759999999975
0
LINE
8
LYELLOW
6
CONTINUOUS
10
80.1030949999999962
20
-31.2526759999999975
11
80.1507139999999936
21
-31.3479139999999994
0
LINE
8
LYELLOW
6
CONTINUOUS
10
80.1507139999999936
20
-31.3479139999999994
11
80.198332999999991
21
-31.5383899999999997
0
LINE
8
LYELLOW
6
CONTINUOUS
10
80.198332999999991
20
-31.5383899999999997
11
80.198332999999991
21
-31.681246999999999
0
LINE
8
LYELLOW
6
CONTINUOUS
10
80.198332999999991
20
-31.681246999999999
11
80.1507139999999936
21
-31.8717229999999994
0
LINE
8
LYELLOW
6
CONTINUOUS
10
80.1507139999999936
20
-31.8717229999999994
11
80.1030949999999962
21
-31.9669609999999977
0
LINE
8
LYELLOW
6
CONTINUOUS
10
80.1030949999999962
20
-31.9669609999999977
11
80.0078570000000013
21
-32.0621999999999971
0
LINE
8
LYELLOW
6
CONTINUOUS
10
80.0078570000000013
20
-32.0621999999999971
11
79.8649999999999949
21
-32.1098190000000017
0
LINE
8
LYELLOW
6
CONTINUOUS
10
79.8649999999999949
20
-32.1098190000000017
11
79.6269049999999936
21
-32.1098190000000017
0
LINE
8
LYELLOW
6
CONTINUOUS
10
80.5792859999999962
20
-31.205057
11
80.6269049999999936
21
-31.1574379999999991
0
LINE
8
LYELLOW
6
CONTINUOUS
10
80.6269049999999936
20
-31.1574379999999991
11
80.7221430000000026
21
-31.1098189999999981
0
LINE
8
LYELLOW
6
CONTINUOUS
10
80.7221430000000026
20
-31.1098189999999981
11
80.9602379999999897
21
-31.1098189999999981
0
LINE
8
LYELLOW
6
CONTINUOUS
10
80.9602379999999897
20
-31.1098189999999981
11
81.0554759999999987
21
-31.1574379999999991
0
LINE
8
LYELLOW
6
CONTINUOUS
10
81.0554759999999987
20
-31.1574379999999991
11
81.1030949999999962
21
-31.205057
0
LINE
8
LYELLOW
6
CONTINUOUS
10
81.1030949999999962
20
-31.205057
11
81.1507139999999936
21
-31.3002949999999984
0
LINE
8
LYELLOW
6
CONTINUOUS
10
81.1507139999999936
20
-31.3002949999999984
11
81.1507139999999936
21
-31.3955329999999968
0
LINE
8
LYELLOW
6
CONTINUOUS
10
81.1507139999999936
20
-31.3955329999999968
11
81.1030949999999962
21
-31.5383899999999997
0
LINE
8
LYELLOW
6
CONTINUOUS
10
81.1030949999999962
20
-31.5383899999999997
11
80.5316669999999988
21
-32.1098190000000017
0
LINE
8
LYELLOW
6
CONTINUOUS
10
80.5316669999999988
20
-32.1098190000000017
11
81.1507139999999936
21
-32.1098190000000017
0
LINE
8
LYELLOW
6
CONTINUOUS
10
75.0230949999999979
20
-32.4798189999999991
11
75.0230949999999979
21
-31.4798189999999991
0
LINE
8
LYELLOW
6
CONTINUOUS
10
75.5945229999999952
20
-32.4798189999999991
11
75.1659519999999901
21
-31.9083899999999971
0
LINE
8
LYELLOW
6
CONTINUOUS
10
75.5945229999999952
20
-31.4798189999999991
11
75.0230949999999979
21
-32.0512469999999965
0
LINE
8
LYELLOW
6
CONTINUOUS
10
150.306666000000007
20
-26.3748189999999987
11
150.306666000000007
21
-27.089103999999999
0
LINE
8
LYELLOW
6
CONTINUOUS
10
150.306666000000007
20
-27.089103999999999
11
150.2590469999999812
21
-27.2319609999999983
0
LINE
8
LYELLOW
6
CONTINUOUS
10
150.2590469999999812
20
-27.2319609999999983
11
150.1638089999999863
21
-27.3271999999999977
0
LINE
8
LYELLOW
6
CONTINUOUS
10
150.1638089999999863
20
-27.3271999999999977
11
150.0209519999999941
21
-27.3748189999999987
0
LINE
8
LYELLOW
6
CONTINUOUS
10
150.0209519999999941
20
-27.3748189999999987
11
149.9257139999999993
21
-27.3748189999999987
0
LINE
8
LYELLOW
6
CONTINUOUS
10
150.7352379999999812
20
-26.4700569999999971
11
150.782857000000007
21
-26.4224379999999996
0
LINE
8
LYELLOW
6
CONTINUOUS
10
150.782857000000007
20
-26.4224379999999996
11
150.8780950000000018
21
-26.3748189999999987
0
LINE
8
LYELLOW
6
CONTINUOUS
10
150.8780950000000018
20
-26.3748189999999987
11
151.1161899999999889
21
-26.3748189999999987
0
LINE
8
LYELLOW
6
CONTINUOUS
10
151.1161899999999889
20
-26.3748189999999987
11
151.2114279999999837
21
-26.4224379999999996
0
LINE
8
LYELLOW
6
CONTINUOUS
10
151.2114279999999837
20
-26.4224379999999996
11
151.2590469999999812
21
-26.4700569999999971
0
LINE
8
LYELLOW
6
CONTINUOUS
10
151.2590469999999812
20
-26.4700569999999971
11
151.306666000000007
21
-26.565294999999999
0
LINE
8
LYELLOW
6
CONTINUOUS
10
151.306666000000007
20
-26.565294999999999
11
151.306666000000007
21
-26.6605329999999974
0
LINE
8
LYELLOW
6
CONTINUOUS
10
151.306666000000007
20
-26.6605329999999974
11
151.2590469999999812
21
-26.8033900000000003
0
LINE
8
LYELLOW
6
CONTINUOUS
10
151.2590469999999812
20
-26.8033900000000003
11
150.6876189999999838
21
-27.3748189999999987
0
LINE
8
LYELLOW
6
CONTINUOUS
10
150.6876189999999838
20
-27.3748189999999987
11
151.306666000000007
21
-27.3748189999999987
0
LINE
8
LYELLOW
6
CONTINUOUS
10
89.7472329999999943
20
-63.6845799999999969
11
89.6996139999999968
21
-63.7321999999999989
0
LINE
8
LYELLOW
6
CONTINUOUS
10
89.6996139999999968
20
-63.7321999999999989
11
89.5567569999999904
21
-63.7798189999999963
0
LINE
8
LYELLOW
6
CONTINUOUS
10
89.5567569999999904
20
-63.7798189999999963
11
89.4615189999999956
21
-63.7798189999999963
0
LINE
8
LYELLOW
6
CONTINUOUS
10
89.4615189999999956
20
-63.7798189999999963
11
89.3186619999999891
21
-63.7321999999999989
0
LINE
8
LYELLOW
6
CONTINUOUS
10
89.3186619999999891
20
-63.7321999999999989
11
89.2234239999999943
21
-63.6369609999999994
0
LINE
8
LYELLOW
6
CONTINUOUS
10
89.2234239999999943
20
-63.6369609999999994
11
89.1758049999999969
21
-63.5417229999999975
0
LINE
8
LYELLOW
6
CONTINUOUS
10
89.1758049999999969
20
-63.5417229999999975
11
89.1281859999999995
21
-63.3512469999999936
0
LINE
8
LYELLOW
6
CONTINUOUS
10
89.1281859999999995
20
-63.3512469999999936
11
89.1281859999999995
21
-63.2083899999999943
0
LINE
8
LYELLOW
6
CONTINUOUS
10
89.1281859999999995
20
-63.2083899999999943
11
89.1758049999999969
21
-63.0179139999999975
0
LINE
8
LYELLOW
6
CONTINUOUS
10
89.1758049999999969
20
-63.0179139999999975
11
89.2234239999999943
21
-62.9226759999999956
0
LINE
8
LYELLOW
6
CONTINUOUS
10
89.2234239999999943
20
-62.9226759999999956
11
89.3186619999999891
21
-62.8274379999999937
0
LINE
8
LYELLOW
6
CONTINUOUS
10
89.3186619999999891
20
-62.8274379999999937
11
89.4615189999999956
21
-62.7798189999999963
0
LINE
8
LYELLOW
6
CONTINUOUS
10
89.4615189999999956
20
-62.7798189999999963
11
89.5567569999999904
21
-62.7798189999999963
0
LINE
8
LYELLOW
6
CONTINUOUS
10
89.5567569999999904
20
-62.7798189999999963
11
89.6996139999999968
21
-62.8274379999999937
0
LINE
8
LYELLOW
6
CONTINUOUS
10
89.6996139999999968
20
-62.8274379999999937
11
89.7472329999999943
21
-62.8750569999999982
0
LINE
8
LYELLOW
6
CONTINUOUS
10
90.0805670000000021
20
-62.7798189999999963
11
90.6996139999999968
21
-62.7798189999999963
0
LINE
8
LYELLOW
6
CONTINUOUS
10
90.6996139999999968
20
-62.7798189999999963
11
90.3662810000000007
21
-63.1607709999999969
0
LINE
8
LYELLOW
6
CONTINUOUS
10
90.3662810000000007
20
-63.1607709999999969
11
90.509137999999993
21
-63.1607709999999969
0
LINE
8
LYELLOW
6
CONTINUOUS
10
90.509137999999993
20
-63.1607709999999969
11
90.604376000000002
21
-63.2083899999999943
0
LINE
8
LYELLOW
6
CONTINUOUS
10
90.604376000000002
20
-63.2083899999999943
11
90.6519949999999994
21
-63.2560089999999988
0
LINE
8
LYELLOW
6
CONTINUOUS
10
90.6519949999999994
20
-63.2560089999999988
11
90.6996139999999968
21
-63.3512469999999936
0
LINE
8
LYELLOW
6
CONTINUOUS
10
90.6996139999999968
20
-63.3512469999999936
11
90.6996139999999968
21
-63.5893419999999949
0
LINE
8
LYELLOW
6
CONTINUOUS
10
90.6996139999999968
20
-63.5893419999999949
11
90.6519949999999994
21
-63.6845799999999969
0
LINE
8
LYELLOW
6
CONTINUOUS
10
90.6519949999999994
20
-63.6845799999999969
11
90.604376000000002
21
-63.7321999999999989
0
LINE
8
LYELLOW
6
CONTINUOUS
10
90.604376000000002
20
-63.7321999999999989
11
90.509137999999993
21
-63.7798189999999963
0
LINE
8
LYELLOW
6
CONTINUOUS
10
90.509137999999993
20
-63.7798189999999963
11
90.2234239999999943
21
-63.7798189999999963
0
LINE
8
LYELLOW
6
CONTINUOUS
10
90.2234239999999943
20
-63.7798189999999963
11
90.1281859999999995
21
-63.7321999999999989
0
LINE
8
LYELLOW
6
CONTINUOUS
10
90.1281859999999995
20
-63.7321999999999989
11
90.0805670000000021
21
-63.6845799999999969
0
LINE
8
LYELLOW
6
CONTINUOUS
10
121.446905000000001
20
-32.1098190000000017
11
121.446905000000001
21
-31.1098189999999981
0
LINE
8
LYELLOW
6
CONTINUOUS
10
121.446905000000001
20
-31.1098189999999981
11
121.6849999999999881
21
-31.1098189999999981
0
LINE
8
LYELLOW
6
CONTINUOUS
10
121.6849999999999881
20
-31.1098189999999981
11
121.8278569999999945
21
-31.1574379999999991
0
LINE
8
LYELLOW
6
CONTINUOUS
10
121.8278569999999945
20
-31.1574379999999991
11
121.9230949999999893
21
-31.2526759999999975
0
LINE
8
LYELLOW
6
CONTINUOUS
10
121.9230949999999893
20
-31.2526759999999975
11
121.970714000000001
21
-31.3479139999999994
0
LINE
8
LYELLOW
6
CONTINUOUS
10
121.970714000000001
20
-31.3479139999999994
11
122.0183329999999984
21
-31.5383899999999997
0
LINE
8
LYELLOW
6
CONTINUOUS
10
122.0183329999999984
20
-31.5383899999999997
11
122.0183329999999984
21
-31.681246999999999
0
LINE
8
LYELLOW
6
CONTINUOUS
10
122.0183329999999984
20
-31.681246999999999
11
121.970714000000001
21
-31.8717229999999994
0
LINE
8
LYELLOW
6
CONTINUOUS
10
121.970714000000001
20
-31.8717229999999994
11
121.9230949999999893
21
-31.9669609999999977
0
LINE
8
LYELLOW
6
CONTINUOUS
10
121.9230949999999893
20
-31.9669609999999977
11
121.8278569999999945
21
-32.0621999999999971
0
LINE
8
LYELLOW
6
CONTINUOUS
10
121.8278569999999945
20
-32.0621999999999971
11
121.6849999999999881
21
-32.1098190000000017
0
LINE
8
LYELLOW
6
CONTINUOUS
10
121.6849999999999881
20
-32.1098190000000017
11
121.446905000000001
21
-32.1098190000000017
0
LINE
8
LYELLOW
6
CONTINUOUS
10
122.8754759999999919
20
-31.4431519999999978
11
122.8754759999999919
21
-32.1098190000000017
0
LINE
8
LYELLOW
6
CONTINUOUS
10
122.6373809999999906
20
-31.0621999999999971
11
122.3992859999999894
21
-31.7764849999999974
0
LINE
8
LYELLOW
6
CONTINUOUS
10
122.3992859999999894
20
-31.7764849999999974
11
123.0183329999999984
21
-31.7764849999999974
0
LINE
8
LYELLOW
6
CONTINUOUS
10
116.843094999999991
20
-32.4798189999999991
11
116.843094999999991
21
-31.4798189999999991
0
LINE
8
LYELLOW
6
CONTINUOUS
10
117.4145229999999884
20
-32.4798189999999991
11
116.9859519999999975
21
-31.9083899999999971
0
LINE
8
LYELLOW
6
CONTINUOUS
10
117.4145229999999884
20
-31.4798189999999991
11
116.843094999999991
21
-32.0512469999999965
0
LINE
8
LYELLOW
6
CONTINUOUS
10
111.9072329999999909
20
-71.6598189999999988
11
111.5738999999999947
21
-71.1836279999999988
0
LINE
8
LYELLOW
6
CONTINUOUS
10
111.3358049999999935
20
-71.6598189999999988
11
111.3358049999999935
21
-70.6598189999999988
0
LINE
8
LYELLOW
6
CONTINUOUS
10
111.3358049999999935
20
-70.6598189999999988
11
111.7167570000000012
21
-70.6598189999999988
0
LINE
8
LYELLOW
6
CONTINUOUS
10
111.7167570000000012
20
-70.6598189999999988
11
111.811994999999996
21
-70.7074379999999962
0
LINE
8
LYELLOW
6
CONTINUOUS
10
111.811994999999996
20
-70.7074379999999962
11
111.8596139999999934
21
-70.7550569999999936
0
LINE
8
LYELLOW
6
CONTINUOUS
10
111.8596139999999934
20
-70.7550569999999936
11
111.9072329999999909
21
-70.8502950000000027
0
LINE
8
LYELLOW
6
CONTINUOUS
10
111.9072329999999909
20
-70.8502950000000027
11
111.9072329999999909
21
-70.9931519999999949
0
LINE
8
LYELLOW
6
CONTINUOUS
10
111.9072329999999909
20
-70.9931519999999949
11
111.8596139999999934
21
-71.0883899999999898
0
LINE
8
LYELLOW
6
CONTINUOUS
10
111.8596139999999934
20
-71.0883899999999898
11
111.811994999999996
21
-71.1360090000000014
0
LINE
8
LYELLOW
6
CONTINUOUS
10
111.811994999999996
20
-71.1360090000000014
11
111.7167570000000012
21
-71.1836279999999988
0
LINE
8
LYELLOW
6
CONTINUOUS
10
111.7167570000000012
20
-71.1836279999999988
11
111.3358049999999935
21
-71.1836279999999988
0
LINE
8
LYELLOW
6
CONTINUOUS
10
112.8596139999999934
20
-71.6598189999999988
11
112.2881859999999961
21
-71.6598189999999988
0
LINE
8
LYELLOW
6
CONTINUOUS
10
112.5738999999999947
20
-71.6598189999999988
11
112.5738999999999947
21
-70.6598189999999988
0
LINE
8
LYELLOW
6
CONTINUOUS
10
112.5738999999999947
20
-70.6598189999999988
11
112.4786619999999999
21
-70.8026759999999911
0
LINE
8
LYELLOW
6
CONTINUOUS
10
112.4786619999999999
20
-70.8026759999999911
11
112.3834239999999909
21
-70.8979140000000001
0
LINE
8
LYELLOW
6
CONTINUOUS
10
112.3834239999999909
20
-70.8979140000000001
11
112.2881859999999961
21
-70.9455329999999975
0
LINE
8
LYELLOW
6
CONTINUOUS
10
79.6269049999999936
20
-48.0098190000000002
11
79.6269049999999936
21
-47.0098190000000002
0
LINE
8
LYELLOW
6
CONTINUOUS
10
79.6269049999999936
20
-47.0098190000000002
11
79.8649999999999949
21
-47.0098190000000002
0
LINE
8
LYELLOW
6
CONTINUOUS
10
79.8649999999999949
20
-47.0098190000000002
11
80.0078570000000013
21
-47.0574379999999977
0
LINE
8
LYELLOW
6
CONTINUOUS
10
80.0078570000000013
20
-47.0574379999999977
11
80.1030949999999962
21
-47.1526759999999996
0
LINE
8
LYELLOW
6
CONTINUOUS
10
80.1030949999999962
20
-47.1526759999999996
11
80.1507139999999936
21
-47.2479139999999944
0
LINE
8
LYELLOW
6
CONTINUOUS
10
80.1507139999999936
20
-47.2479139999999944
11
80.198332999999991
21
-47.4383899999999983
0
LINE
8
LYELLOW
6
CONTINUOUS
10
80.198332999999991
20
-47.4383899999999983
11
80.198332999999991
21
-47.5812469999999976
0
LINE
8
LYELLOW
6
CONTINUOUS
10
80.198332999999991
20
-47.5812469999999976
11
80.1507139999999936
21
-47.7717229999999944
0
LINE
8
LYELLOW
6
CONTINUOUS
10
80.1507139999999936
20
-47.7717229999999944
11
80.1030949999999962
21
-47.8669609999999963
0
LINE
8
LYELLOW
6
CONTINUOUS
10
80.1030949999999962
20
-47.8669609999999963
11
80.0078570000000013
21
-47.9621999999999957
0
LINE
8
LYELLOW
6
CONTINUOUS
10
80.0078570000000013
20
-47.9621999999999957
11
79.8649999999999949
21
-48.0098190000000002
0
LINE
8
LYELLOW
6
CONTINUOUS
10
79.8649999999999949
20
-48.0098190000000002
11
79.6269049999999936
21
-48.0098190000000002
0
LINE
8
LYELLOW
6
CONTINUOUS
10
81.0554759999999987
20
-47.0098190000000002
11
80.8649999999999949
21
-47.0098190000000002
0
LINE
8
LYELLOW
6
CONTINUOUS
10
80.8649999999999949
20
-47.0098190000000002
11
80.7697620000000001
21
-47.0574379999999977
0
LINE
8
LYELLOW
6
CONTINUOUS
10
80.7697620000000001
20
-47.0574379999999977
11
80.7221430000000026
21
-47.1050569999999951
0
LINE
8
LYELLOW
6
CONTINUOUS
10
80.7221430000000026
20
-47.1050569999999951
11
80.6269049999999936
21
-47.2479139999999944
0
LINE
8
LYELLOW
6
CONTINUOUS
10
80.6269049999999936
20
-47.2479139999999944
11
80.5792859999999962
21
-47.4383899999999983
0
LINE
8
LYELLOW
6
CONTINUOUS
10
80.5792859999999962
20
-47.4383899999999983
11
80.5792859999999962
21
-47.8193419999999989
0
LINE
8
LYELLOW
6
CONTINUOUS
10
80.5792859999999962
20
-47.8193419999999989
11
80.6269049999999936
21
-47.9145800000000008
0
LINE
8
LYELLOW
6
CONTINUOUS
10
80.6269049999999936
20
-47.9145800000000008
11
80.674523999999991
21
-47.9621999999999957
0
LINE
8
LYELLOW
6
CONTINUOUS
10
80.674523999999991
20
-47.9621999999999957
11
80.7697620000000001
21
-48.0098190000000002
0
LINE
8
LYELLOW
6
CONTINUOUS
10
80.7697620000000001
20
-48.0098190000000002
11
80.9602379999999897
21
-48.0098190000000002
0
LINE
8
LYELLOW
6
CONTINUOUS
10
80.9602379999999897
20
-48.0098190000000002
11
81.0554759999999987
21
-47.9621999999999957
0
LINE
8
LYELLOW
6
CONTINUOUS
10
81.0554759999999987
20
-47.9621999999999957
11
81.1030949999999962
21
-47.9145800000000008
0
LINE
8
LYELLOW
6
CONTINUOUS
10
81.1030949999999962
20
-47.9145800000000008
11
81.1507139999999936
21
-47.8193419999999989
0
LINE
8
LYELLOW
6
CONTINUOUS
10
81.1507139999999936
20
-47.8193419999999989
11
81.1507139999999936
21
-47.5812469999999976
0
LINE
8
LYELLOW
6
CONTINUOUS
10
81.1507139999999936
20
-47.5812469999999976
11
81.1030949999999962
21
-47.4860089999999957
0
LINE
8
LYELLOW
6
CONTINUOUS
10
81.1030949999999962
20
-47.4860089999999957
11
81.0554759999999987
21
-47.4383899999999983
0
LINE
8
LYELLOW
6
CONTINUOUS
10
81.0554759999999987
20
-47.4383899999999983
11
80.9602379999999897
21
-47.3907710000000009
0
LINE
8
LYELLOW
6
CONTINUOUS
10
80.9602379999999897
20
-47.3907710000000009
11
80.7697620000000001
21
-47.3907710000000009
0
LINE
8
LYELLOW
6
CONTINUOUS
10
80.7697620000000001
20
-47.3907710000000009
11
80.674523999999991
21
-47.4383899999999983
0
LINE
8
LYELLOW
6
CONTINUOUS
10
80.674523999999991
20
-47.4383899999999983
11
80.6269049999999936
21
-47.4860089999999957
0
LINE
8
LYELLOW
6
CONTINUOUS
10
80.6269049999999936
20
-47.4860089999999957
11
80.5792859999999962
21
-47.5812469999999976
0
LINE
8
LYELLOW
6
CONTINUOUS
10
75.0230949999999979
20
-48.3798189999999977
11
75.0230949999999979
21
-47.3798189999999977
0
LINE
8
LYELLOW
6
CONTINUOUS
10
75.5945229999999952
20
-48.3798189999999977
11
75.1659519999999901
21
-47.8083899999999957
0
LINE
8
LYELLOW
6
CONTINUOUS
10
75.5945229999999952
20
-47.3798189999999977
11
75.0230949999999979
21
-47.9512469999999951
0
LINE
8
LYELLOW
6
CONTINUOUS
10
104.472732999999991
20
-40.1345799999999997
11
104.4251139999999936
21
-40.1822000000000017
0
LINE
8
LYELLOW
6
CONTINUOUS
10
104.4251139999999936
20
-40.1822000000000017
11
104.2822570000000013
21
-40.2298189999999991
0
LINE
8
LYELLOW
6
CONTINUOUS
10
104.2822570000000013
20
-40.2298189999999991
11
104.1870189999999923
21
-40.2298189999999991
0
LINE
8
LYELLOW
6
CONTINUOUS
10
104.1870189999999923
20
-40.2298189999999991
11
104.044162
21
-40.1822000000000017
0
LINE
8
LYELLOW
6
CONTINUOUS
10
104.044162
20
-40.1822000000000017
11
103.948923999999991
21
-40.0869609999999952
0
LINE
8
LYELLOW
6
CONTINUOUS
10
103.948923999999991
20
-40.0869609999999952
11
103.9013049999999936
21
-39.9917230000000004
0
LINE
8
LYELLOW
6
CONTINUOUS
10
103.9013049999999936
20
-39.9917230000000004
11
103.8536859999999962
21
-39.8012469999999965
0
LINE
8
LYELLOW
6
CONTINUOUS
10
103.8536859999999962
20
-39.8012469999999965
11
103.8536859999999962
21
-39.6583899999999971
0
LINE
8
LYELLOW
6
CONTINUOUS
10
103.8536859999999962
20
-39.6583899999999971
11
103.9013049999999936
21
-39.4679140000000004
0
LINE
8
LYELLOW
6
CONTINUOUS
10
103.9013049999999936
20
-39.4679140000000004
11
103.948923999999991
21
-39.3726759999999985
0
LINE
8
LYELLOW
6
CONTINUOUS
10
103.948923999999991
20
-39.3726759999999985
11
104.044162
21
-39.2774379999999965
0
LINE
8
LYELLOW
6
CONTINUOUS
10
104.044162
20
-39.2774379999999965
11
104.1870189999999923
21
-39.2298189999999991
0
LINE
8
LYELLOW
6
CONTINUOUS
10
104.1870189999999923
20
-39.2298189999999991
11
104.2822570000000013
21
-39.2298189999999991
0
LINE
8
LYELLOW
6
CONTINUOUS
10
104.2822570000000013
20
-39.2298189999999991
11
104.4251139999999936
21
-39.2774379999999965
0
LINE
8
LYELLOW
6
CONTINUOUS
10
104.4251139999999936
20
-39.2774379999999965
11
104.472732999999991
21
-39.325057000000001
0
LINE
8
LYELLOW
6
CONTINUOUS
10
105.4251139999999936
20
-40.2298189999999991
11
104.8536859999999962
21
-40.2298189999999991
0
LINE
8
LYELLOW
6
CONTINUOUS
10
105.1393999999999949
20
-40.2298189999999991
11
105.1393999999999949
21
-39.2298189999999991
0
LINE
8
LYELLOW
6
CONTINUOUS
10
105.1393999999999949
20
-39.2298189999999991
11
105.044162
21
-39.3726759999999985
0
LINE
8
LYELLOW
6
CONTINUOUS
10
105.044162
20
-39.3726759999999985
11
104.948923999999991
21
-39.4679140000000004
0
LINE
8
LYELLOW
6
CONTINUOUS
10
104.948923999999991
20
-39.4679140000000004
11
104.8536859999999962
21
-39.5155329999999978
0
LINE
8
LYELLOW
6
CONTINUOUS
10
62.6527329999999978
20
-63.6845799999999969
11
62.6051140000000004
21
-63.7321999999999989
0
LINE
8
LYELLOW
6
CONTINUOUS
10
62.6051140000000004
20
-63.7321999999999989
11
62.4622569999999939
21
-63.7798189999999963
0
LINE
8
LYELLOW
6
CONTINUOUS
10
62.4622569999999939
20
-63.7798189999999963
11
62.3670189999999991
21
-63.7798189999999963
0
LINE
8
LYELLOW
6
CONTINUOUS
10
62.3670189999999991
20
-63.7798189999999963
11
62.2241619999999998
21
-63.7321999999999989
0
LINE
8
LYELLOW
6
CONTINUOUS
10
62.2241619999999998
20
-63.7321999999999989
11
62.1289239999999978
21
-63.6369609999999994
0
LINE
8
LYELLOW
6
CONTINUOUS
10
62.1289239999999978
20
-63.6369609999999994
11
62.0813050000000004
21
-63.5417229999999975
0
LINE
8
LYELLOW
6
CONTINUOUS
10
62.0813050000000004
20
-63.5417229999999975
11
62.0336859999999959
21
-63.3512469999999936
0
LINE
8
LYELLOW
6
CONTINUOUS
10
62.0336859999999959
20
-63.3512469999999936
11
62.0336859999999959
21
-63.2083899999999943
0
LINE
8
LYELLOW
6
CONTINUOUS
10
62.0336859999999959
20
-63.2083899999999943
11
62.0813050000000004
21
-63.0179139999999975
0
LINE
8
LYELLOW
6
CONTINUOUS
10
62.0813050000000004
20
-63.0179139999999975
11
62.1289239999999978
21
-62.9226759999999956
0
LINE
8
LYELLOW
6
CONTINUOUS
10
62.1289239999999978
20
-62.9226759999999956
11
62.2241619999999998
21
-62.8274379999999937
0
LINE
8
LYELLOW
6
CONTINUOUS
10
62.2241619999999998
20
-62.8274379999999937
11
62.3670189999999991
21
-62.7798189999999963
0
LINE
8
LYELLOW
6
CONTINUOUS
10
62.3670189999999991
20
-62.7798189999999963
11
62.4622569999999939
21
-62.7798189999999963
0
LINE
8
LYELLOW
6
CONTINUOUS
10
62.4622569999999939
20
-62.7798189999999963
11
62.6051140000000004
21
-62.8274379999999937
0
LINE
8
LYELLOW
6
CONTINUOUS
10
62.6051140000000004
20
-62.8274379999999937
11
62.6527329999999978
21
-62.8750569999999982
0
LINE
8
LYELLOW
6
CONTINUOUS
10
63.0336859999999959
20
-62.8750569999999982
11
63.0813050000000004
21
-62.8274379999999937
0
LINE
8
LYELLOW
6
CONTINUOUS
10
63.0813050000000004
20
-62.8274379999999937
11
63.1765429999999952
21
-62.7798189999999963
0
LINE
8
LYELLOW
6
CONTINUOUS
10
63.1765429999999952
20
-62.7798189999999963
11
63.4146379999999965
21
-62.7798189999999963
0
LINE
8
LYELLOW
6
CONTINUOUS
10
63.4146379999999965
20
-62.7798189999999963
11
63.5098759999999984
21
-62.8274379999999937
0
LINE
8
LYELLOW
6
CONTINUOUS
10
63.5098759999999984
20
-62.8274379999999937
11
63.5574949999999959
21
-62.8750569999999982
0
LINE
8
LYELLOW
6
CONTINUOUS
10
63.5574949999999959
20
-62.8750569999999982
11
63.6051140000000004
21
-62.9702950000000001
0
LINE
8
LYELLOW
6
CONTINUOUS
10
63.6051140000000004
20
-62.9702950000000001
11
63.6051140000000004
21
-63.065532999999995
0
LINE
8
LYELLOW
6
CONTINUOUS
10
63.6051140000000004
20
-63.065532999999995
11
63.5574949999999959
21
-63.2083899999999943
0
LINE
8
LYELLOW
6
CONTINUOUS
10
63.5574949999999959
20
-63.2083899999999943
11
62.9860669999999985
21
-63.7798189999999963
0
LINE
8
LYELLOW
6
CONTINUOUS
10
62.9860669999999985
20
-63.7798189999999963
11
63.6051140000000004
21
-63.7798189999999963
0
LINE
8
LYELLOW
6
CONTINUOUS
10
34.6966660000000005
20
-36.1048189999999991
11
34.6966660000000005
21
-36.8191039999999958
0
LINE
8
LYELLOW
6
CONTINUOUS
10
34.6966660000000005
20
-36.8191039999999958
11
34.6490469999999959
21
-36.9619609999999952
0
LINE
8
LYELLOW
6
CONTINUOUS
10
34.6490469999999959
20
-36.9619609999999952
11
34.5538090000000011
21
-37.0572000000000017
0
LINE
8
LYELLOW
6
CONTINUOUS
10
34.5538090000000011
20
-37.0572000000000017
11
34.4109520000000018
21
-37.1048189999999991
0
LINE
8
LYELLOW
6
CONTINUOUS
10
34.4109520000000018
20
-37.1048189999999991
11
34.3157139999999998
21
-37.1048189999999991
0
LINE
8
LYELLOW
6
CONTINUOUS
10
35.6966660000000005
20
-37.1048189999999991
11
35.125237999999996
21
-37.1048189999999991
0
LINE
8
LYELLOW
6
CONTINUOUS
10
35.4109520000000018
20
-37.1048189999999991
11
35.4109520000000018
21
-36.1048189999999991
0
LINE
8
LYELLOW
6
CONTINUOUS
10
35.4109520000000018
20
-36.1048189999999991
11
35.3157139999999998
21
-36.2476759999999985
0
LINE
8
LYELLOW
6
CONTINUOUS
10
35.3157139999999998
20
-36.2476759999999985
11
35.2204759999999979
21
-36.3429140000000004
0
LINE
8
LYELLOW
6
CONTINUOUS
10
35.2204759999999979
20
-36.3429140000000004
11
35.125237999999996
21
-36.3905329999999978
0
LINE
8
LYELLOW
6
CONTINUOUS
10
100.5369049999999902
20
-32.1098190000000017
11
100.5369049999999902
21
-31.1098189999999981
0
LINE
8
LYELLOW
6
CONTINUOUS
10
100.5369049999999902
20
-31.1098189999999981
11
100.7749999999999915
21
-31.1098189999999981
0
LINE
8
LYELLOW
6
CONTINUOUS
10
100.7749999999999915
20
-31.1098189999999981
11
100.9178569999999979
21
-31.1574379999999991
0
LINE
8
LYELLOW
6
CONTINUOUS
10
100.9178569999999979
20
-31.1574379999999991
11
101.0130949999999928
21
-31.2526759999999975
0
LINE
8
LYELLOW
6
CONTINUOUS
10
101.0130949999999928
20
-31.2526759999999975
11
101.0607139999999902
21
-31.3479139999999994
0
LINE
8
LYELLOW
6
CONTINUOUS
10
101.0607139999999902
20
-31.3479139999999994
11
101.1083330000000018
21
-31.5383899999999997
0
LINE
8
LYELLOW
6
CONTINUOUS
10
101.1083330000000018
20
-31.5383899999999997
11
101.1083330000000018
21
-31.681246999999999
0
LINE
8
LYELLOW
6
CONTINUOUS
10
101.1083330000000018
20
-31.681246999999999
11
101.0607139999999902
21
-31.8717229999999994
0
LINE
8
LYELLOW
6
CONTINUOUS
10
101.0607139999999902
20
-31.8717229999999994
11
101.0130949999999928
21
-31.9669609999999977
0
LINE
8
LYELLOW
6
CONTINUOUS
10
101.0130949999999928
20
-31.9669609999999977
11
100.9178569999999979
21
-32.0621999999999971
0
LINE
8
LYELLOW
6
CONTINUOUS
10
100.9178569999999979
20
-32.0621999999999971
11
100.7749999999999915
21
-32.1098190000000017
0
LINE
8
LYELLOW
6
CONTINUOUS
10
100.7749999999999915
20
-32.1098190000000017
11
100.5369049999999902
21
-32.1098190000000017
0
LINE
8
LYELLOW
6
CONTINUOUS
10
101.4416669999999954
20
-31.1098189999999981
11
102.0607139999999902
21
-31.1098189999999981
0
LINE
8
LYELLOW
6
CONTINUOUS
10
102.0607139999999902
20
-31.1098189999999981
11
101.7273809999999941
21
-31.4907709999999987
0
LINE
8
LYELLOW
6
CONTINUOUS
10
101.7273809999999941
20
-31.4907709999999987
11
101.8702380000000005
21
-31.4907709999999987
0
LINE
8
LYELLOW
6
CONTINUOUS
10
101.8702380000000005
20
-31.4907709999999987
11
101.9654759999999953
21
-31.5383899999999997
0
LINE
8
LYELLOW
6
CONTINUOUS
10
101.9654759999999953
20
-31.5383899999999997
11
102.0130949999999928
21
-31.5860089999999971
0
LINE
8
LYELLOW
6
CONTINUOUS
10
102.0130949999999928
20
-31.5860089999999971
11
102.0607139999999902
21
-31.681246999999999
0
LINE
8
LYELLOW
6
CONTINUOUS
10
102.0607139999999902
20
-31.681246999999999
11
102.0607139999999902
21
-31.9193420000000003
0
LINE
8
LYELLOW
6
CONTINUOUS
10
102.0607139999999902
20
-31.9193420000000003
11
102.0130949999999928
21
-32.0145799999999952
0
LINE
8
LYELLOW
6
CONTINUOUS
10
102.0130949999999928
20
-32.0145799999999952
11
101.9654759999999953
21
-32.0621999999999971
0
LINE
8
LYELLOW
6
CONTINUOUS
10
101.9654759999999953
20
-32.0621999999999971
11
101.8702380000000005
21
-32.1098190000000017
0
LINE
8
LYELLOW
6
CONTINUOUS
10
101.8702380000000005
20
-32.1098190000000017
11
101.5845240000000018
21
-32.1098190000000017
0
LINE
8
LYELLOW
6
CONTINUOUS
10
101.5845240000000018
20
-32.1098190000000017
11
101.4892859999999928
21
-32.0621999999999971
0
LINE
8
LYELLOW
6
CONTINUOUS
10
101.4892859999999928
20
-32.0621999999999971
11
101.4416669999999954
21
-32.0145799999999952
0
LINE
8
LYELLOW
6
CONTINUOUS
10
95.9330949999999945
20
-32.4798189999999991
11
95.9330949999999945
21
-31.4798189999999991
0
LINE
8
LYELLOW
6
CONTINUOUS
10
96.5045229999999918
20
-32.4798189999999991
11
96.0759520000000009
21
-31.9083899999999971
0
LINE
8
LYELLOW
6
CONTINUOUS
10
96.5045229999999918
20
-31.4798189999999991
11
95.9330949999999945
21
-32.0512469999999965
0
LINE
8
LYELLOW
6
CONTINUOUS
10
58.716904999999997
20
-32.1098190000000017
11
58.716904999999997
21
-31.1098189999999981
0
LINE
8
LYELLOW
6
CONTINUOUS
10
58.716904999999997
20
-31.1098189999999981
11
58.9549999999999983
21
-31.1098189999999981
0
LINE
8
LYELLOW
6
CONTINUOUS
10
58.9549999999999983
20
-31.1098189999999981
11
59.0978569999999976
21
-31.1574379999999991
0
LINE
8
LYELLOW
6
CONTINUOUS
10
59.0978569999999976
20
-31.1574379999999991
11
59.1930949999999996
21
-31.2526759999999975
0
LINE
8
LYELLOW
6
CONTINUOUS
10
59.1930949999999996
20
-31.2526759999999975
11
59.240713999999997
21
-31.3479139999999994
0
LINE
8
LYELLOW
6
CONTINUOUS
10
59.240713999999997
20
-31.3479139999999994
11
59.2883329999999944
21
-31.5383899999999997
0
LINE
8
LYELLOW
6
CONTINUOUS
10
59.2883329999999944
20
-31.5383899999999997
11
59.2883329999999944
21
-31.681246999999999
0
LINE
8
LYELLOW
6
CONTINUOUS
10
59.2883329999999944
20
-31.681246999999999
11
59.240713999999997
21
-31.8717229999999994
0
LINE
8
LYELLOW
6
CONTINUOUS
10
59.240713999999997
20
-31.8717229999999994
11
59.1930949999999996
21
-31.9669609999999977
0
LINE
8
LYELLOW
6
CONTINUOUS
10
59.1930949999999996
20
-31.9669609999999977
11
59.0978569999999976
21
-32.0621999999999971
0
LINE
8
LYELLOW
6
CONTINUOUS
10
59.0978569999999976
20
-32.0621999999999971
11
58.9549999999999983
21
-32.1098190000000017
0
LINE
8
LYELLOW
6
CONTINUOUS
10
58.9549999999999983
20
-32.1098190000000017
11
58.716904999999997
21
-32.1098190000000017
0
LINE
8
LYELLOW
6
CONTINUOUS
10
60.240713999999997
20
-32.1098190000000017
11
59.6692859999999996
21
-32.1098190000000017
0
LINE
8
LYELLOW
6
CONTINUOUS
10
59.9549999999999983
20
-32.1098190000000017
11
59.9549999999999983
21
-31.1098189999999981
0
LINE
8
LYELLOW
6
CONTINUOUS
10
59.9549999999999983
20
-31.1098189999999981
11
59.8597619999999964
21
-31.2526759999999975
0
LINE
8
LYELLOW
6
CONTINUOUS
10
59.8597619999999964
20
-31.2526759999999975
11
59.7645239999999944
21
-31.3479139999999994
0
LINE
8
LYELLOW
6
CONTINUOUS
10
59.7645239999999944
20
-31.3479139999999994
11
59.6692859999999996
21
-31.3955329999999968
0
LINE
8
LYELLOW
6
CONTINUOUS
10
54.1130949999999942
20
-32.4798189999999991
11
54.1130949999999942
21
-31.4798189999999991
0
LINE
8
LYELLOW
6
CONTINUOUS
10
54.6845229999999987
20
-32.4798189999999991
11
54.2559520000000006
21
-31.9083899999999971
0
LINE
8
LYELLOW
6
CONTINUOUS
10
54.6845229999999987
20
-31.4798189999999991
11
54.1130949999999942
21
-32.0512469999999965
0
LINE
8
LYELLOW
6
CONTINUOUS
10
55.7149999999999963
20
-50.0249999999999986
11
56.7349999999999994
21
-50.0249999999999986
0
LINE
8
LYELLOW
6
CONTINUOUS
10
57.5150000000000006
20
-48.5549999999999997
11
57.5150000000000006
21
-51.4949999999999974
0
LINE
8
LYELLOW
6
CONTINUOUS
10
57.634999999999998
20
-48.5549999999999997
11
57.634999999999998
21
-51.4949999999999974
0
LINE
8
LYELLOW
6
CONTINUOUS
10
57.7549999999999955
20
-48.5549999999999997
11
57.7549999999999955
21
-51.4949999999999974
0
LINE
8
LYELLOW
6
CONTINUOUS
10
63.1950000000000003
20
-50.0249999999999986
11
62.1749999999999972
21
-50.0249999999999986
0
LINE
8
LYELLOW
6
CONTINUOUS
10
56.7349999999999994
20
-48.5549999999999997
11
62.1749999999999972
21
-48.5549999999999997
0
LINE
8
LYELLOW
6
CONTINUOUS
10
62.1749999999999972
20
-48.5549999999999997
11
62.1749999999999972
21
-51.4949999999999974
0
LINE
8
LYELLOW
6
CONTINUOUS
10
62.1749999999999972
20
-51.4949999999999974
11
56.7349999999999994
21
-51.4949999999999974
0
LINE
8
LYELLOW
6
CONTINUOUS
10
56.7349999999999994
20
-51.4949999999999974
11
56.7349999999999994
21
-48.5549999999999997
0
LINE
8
LYELLOW
6
CONTINUOUS
10
76.625
20
-34.125
11
77.644999999999996
21
-34.125
0
LINE
8
LYELLOW
6
CONTINUOUS
10
78.4249999999999972
20
-32.6550000000000011
11
78.4249999999999972
21
-35.5949999999999989
0
LINE
8
LYELLOW
6
CONTINUOUS
10
78.5450000000000017
20
-32.6550000000000011
11
78.5450000000000017
21
-35.5949999999999989
0
LINE
8
LYELLOW
6
CONTINUOUS
10
78.664999999999992
20
-32.6550000000000011
11
78.664999999999992
21
-35.5949999999999989
0
LINE
8
LYELLOW
6
CONTINUOUS
10
84.1049999999999898
20
-34.125
11
83.0849999999999937
21
-34.125
0
LINE
8
LYELLOW
6
CONTINUOUS
10
77.644999999999996
20
-32.6550000000000011
11
83.0849999999999937
21
-32.6550000000000011
0
LINE
8
LYELLOW
6
CONTINUOUS
10
83.0849999999999937
20
-32.6550000000000011
11
83.0849999999999937
21
-35.5949999999999989
0
LINE
8
LYELLOW
6
CONTINUOUS
10
83.0849999999999937
20
-35.5949999999999989
11
77.644999999999996
21
-35.5949999999999989
0
LINE
8
LYELLOW
6
CONTINUOUS
10
77.644999999999996
20
-35.5949999999999989
11
77.644999999999996
21
-32.6550000000000011
0
LINE
8
LYELLOW
6
CONTINUOUS
10
145.5600000000000023
20
-28.1899999999999977
11
145.5600000000000023
21
-35.8099999999999952
0
LINE
8
LYELLOW
6
CONTINUOUS
10
145.5600000000000023
20
-35.8099999999999952
11
155.7199999999999989
21
-35.8099999999999952
0
LINE
8
LYELLOW
6
CONTINUOUS
10
155.7199999999999989
20
-28.1899999999999977
11
145.5600000000000023
21
-28.1899999999999977
0
LINE
8
LYELLOW
6
CONTINUOUS
10
155.7199999999999989
20
-34.5399999999999991
11
145.5600000000000023
21
-34.5399999999999991
0
LINE
8
LYELLOW
6
CONTINUOUS
10
155.7199999999999989
20
-35.8099999999999952
11
155.7199999999999989
21
-28.1899999999999977
0
LINE
8
LYELLOW
6
CONTINUOUS
10
80.1544600000000003
20
-68.4599999999999937
11
81.9544599999999974
21
-68.4599999999999937
0
LINE
8
LYELLOW
6
CONTINUOUS
10
81.0544599999999917
20
-67.5600000000000023
11
81.0544599999999917
21
-69.3599999999999994
0
LINE
8
LYELLOW
6
CONTINUOUS
10
89.9138999999999982
20
-64.4949999999999903
11
89.9138999999999982
21
-82.6550000000000011
0
LINE
8
LYELLOW
6
CONTINUOUS
10
89.9538999999999902
20
-64.4949999999999903
11
89.9538999999999902
21
-82.6550000000000011
0
LINE
8
LYELLOW
6
CONTINUOUS
10
89.9938999999999965
20
-64.4949999999999903
11
89.9938999999999965
21
-82.6550000000000011
0
LINE
8
LYELLOW
6
CONTINUOUS
10
90.0339000000000027
20
-64.4959999999999951
11
90.0339000000000027
21
-82.6539999999999964
0
LINE
8
LYELLOW
6
CONTINUOUS
10
90.0738999999999947
20
-64.4959999999999951
11
90.0738999999999947
21
-82.6539999999999964
0
LINE
8
LYELLOW
6
CONTINUOUS
10
90.113900000000001
20
-64.4969999999999999
11
90.113900000000001
21
-82.6529999999999916
0
LINE
8
LYELLOW
6
CONTINUOUS
10
90.153899999999993
20
-64.4979999999999905
11
90.153899999999993
21
-82.652000000000001
0
LINE
8
LYELLOW
6
CONTINUOUS
10
90.1938999999999993
20
-64.4989999999999952
11
90.1938999999999993
21
-82.6509999999999962
0
LINE
8
LYELLOW
6
CONTINUOUS
10
90.2338999999999913
20
-64.5009999999999906
11
90.2338999999999913
21
-82.6490000000000009
0
LINE
8
LYELLOW
6
CONTINUOUS
10
90.2738999999999976
20
-64.5019999999999953
11
90.2738999999999976
21
-82.6479999999999961
0
LINE
8
LYELLOW
6
CONTINUOUS
10
90.3138999999999896
20
-64.5039999999999907
11
90.3138999999999896
21
-82.6460000000000008
0
LINE
8
LYELLOW
6
CONTINUOUS
10
90.3538999999999959
20
-64.5060000000000002
11
90.3538999999999959
21
-82.6439999999999912
0
LINE
8
LYELLOW
6
CONTINUOUS
10
90.3939000000000021
20
-64.5079999999999956
11
90.3939000000000021
21
-82.6419999999999959
0
LINE
8
LYELLOW
6
CONTINUOUS
10
90.4338999999999942
20
-64.5099999999999909
11
90.4338999999999942
21
-82.6400000000000006
0
LINE
8
LYELLOW
6
CONTINUOUS
10
90.4739000000000004
20
-64.5120000000000005
11
90.4739000000000004
21
-82.637999999999991
0
LINE
8
LYELLOW
6
CONTINUOUS
10
90.5138999999999925
20
-64.5150000000000006
11
90.5138999999999925
21
-82.6349999999999909
0
LINE
8
LYELLOW
6
CONTINUOUS
10
90.5538999999999987
20
-64.5169999999999959
11
90.5538999999999987
21
-82.6329999999999956
0
LINE
8
LYELLOW
6
CONTINUOUS
10
90.5938999999999908
20
-64.519999999999996
11
90.5938999999999908
21
-82.6299999999999955
0
LINE
8
LYELLOW
6
CONTINUOUS
10
90.633899999999997
20
-64.5229999999999961
11
90.633899999999997
21
-82.6269999999999953
0
LINE
8
LYELLOW
6
CONTINUOUS
10
90.6738999999999891
20
-64.527000000000001
11
90.6738999999999891
21
-82.6229999999999905
0
LINE
8
LYELLOW
6
CONTINUOUS
10
90.7138999999999953
20
-64.5300000000000011
11
90.7138999999999953
21
-82.6199999999999903
0
LINE
8
LYELLOW
6
CONTINUOUS
10
90.7539000000000016
20
-64.5339999999999918
11
90.7539000000000016
21
-82.6159999999999997
0
LINE
8
LYELLOW
6
CONTINUOUS
10
90.7938999999999936
20
-64.5379999999999967
11
90.7938999999999936
21
-82.6119999999999948
0
LINE
8
LYELLOW
6
CONTINUOUS
10
90.8338999999999999
20
-64.5420000000000016
11
90.8338999999999999
21
-82.6079999999999899
0
LINE
8
LYELLOW
6
CONTINUOUS
10
90.8738999999999919
20
-64.5459999999999923
11
90.8738999999999919
21
-82.6039999999999992
0
LINE
8
LYELLOW
6
CONTINUOUS
10
90.9138999999999982
20
-64.5499999999999972
11
90.9138999999999982
21
-82.5999999999999943
0
LINE
8
LYELLOW
6
CONTINUOUS
10
90.9538999999999902
20
-64.554000000000002
11
90.9538999999999902
21
-82.5959999999999894
0
LINE
8
LYELLOW
6
CONTINUOUS
10
90.9938999999999965
20
-64.5589999999999975
11
90.9938999999999965
21
-82.590999999999994
0
LINE
8
LYELLOW
6
CONTINUOUS
10
91.0339000000000027
20
-64.563999999999993
11
91.0339000000000027
21
-82.5859999999999985
0
LINE
8
LYELLOW
6
CONTINUOUS
10
91.0738999999999947
20
-64.5690000000000026
11
91.0738999999999947
21
-82.5810000000000031
0
LINE
8
LYELLOW
6
CONTINUOUS
10
91.113900000000001
20
-64.5739999999999981
11
91.113900000000001
21
-82.5759999999999934
0
LINE
8
LYELLOW
6
CONTINUOUS
10
91.153899999999993
20
-64.5799999999999983
11
91.153899999999993
21
-82.5699999999999932
0
LINE
8
LYELLOW
6
CONTINUOUS
10
91.1938999999999993
20
-64.5849999999999937
11
91.1938999999999993
21
-82.5649999999999977
0
LINE
8
LYELLOW
6
CONTINUOUS
10
91.2338999999999913
20
-64.590999999999994
11
91.2338999999999913
21
-82.5589999999999975
0
LINE
8
LYELLOW
6
CONTINUOUS
10
91.2738999999999976
20
-64.5969999999999942
11
91.2738999999999976
21
-82.5529999999999973
0
LINE
8
LYELLOW
6
CONTINUOUS
10
91.3138999999999896
20
-64.6029999999999944
11
91.3138999999999896
21
-82.546999999999997
0
LINE
8
LYELLOW
6
CONTINUOUS
10
91.3538999999999959
20
-64.6089999999999947
11
91.3538999999999959
21
-82.5409999999999968
0
LINE
8
LYELLOW
6
CONTINUOUS
10
91.3939000000000021
20
-64.6159999999999997
11
91.3939000000000021
21
-82.5339999999999918
0
LINE
8
LYELLOW
6
CONTINUOUS
10
91.4338999999999942
20
-64.6229999999999905
11
91.4338999999999942
21
-82.527000000000001
0
LINE
8
LYELLOW
6
CONTINUOUS
10
91.4739000000000004
20
-64.6289999999999907
11
91.4739000000000004
21
-82.5210000000000008
0
LINE
8
LYELLOW
6
CONTINUOUS
10
91.5138999999999925
20
-64.6359999999999957
11
91.5138999999999925
21
-82.5139999999999958
0
LINE
8
LYELLOW
6
CONTINUOUS
10
91.5538999999999987
20
-64.6439999999999912
11
91.5538999999999987
21
-82.5060000000000002
0
LINE
8
LYELLOW
6
CONTINUOUS
10
91.5938999999999908
20
-64.6509999999999962
11
91.5938999999999908
21
-82.4989999999999952
0
LINE
8
LYELLOW
6
CONTINUOUS
10
91.633899999999997
20
-64.6589999999999918
11
91.633899999999997
21
-82.4909999999999997
0
LINE
8
LYELLOW
6
CONTINUOUS
10
91.6738999999999891
20
-64.6659999999999968
11
91.6738999999999891
21
-82.4839999999999947
0
LINE
8
LYELLOW
6
CONTINUOUS
10
91.7138999999999953
20
-64.6739999999999924
11
91.7138999999999953
21
-82.4759999999999991
0
LINE
8
LYELLOW
6
CONTINUOUS
10
91.7539000000000016
20
-64.6829999999999927
11
91.7539000000000016
21
-82.4669999999999987
0
LINE
8
LYELLOW
6
CONTINUOUS
10
91.7938999999999936
20
-64.6910000000000025
11
91.7938999999999936
21
-82.4590000000000032
0
LINE
8
LYELLOW
6
CONTINUOUS
10
91.8338999999999999
20
-64.6989999999999981
11
91.8338999999999999
21
-82.4509999999999934
0
LINE
8
LYELLOW
6
CONTINUOUS
10
91.8738999999999919
20
-64.7079999999999984
11
91.8738999999999919
21
-82.4419999999999931
0
LINE
8
LYELLOW
6
CONTINUOUS
10
91.9138999999999982
20
-64.7169999999999987
11
91.9138999999999982
21
-82.4329999999999927
0
LINE
8
LYELLOW
6
CONTINUOUS
10
91.9538999999999902
20
-64.7259999999999991
11
91.9538999999999902
21
-82.4239999999999924
0
LINE
8
LYELLOW
6
CONTINUOUS
10
91.9938999999999965
20
-64.7349999999999994
11
91.9938999999999965
21
-82.414999999999992
0
LINE
8
LYELLOW
6
CONTINUOUS
10
92.0339000000000027
20
-64.7449999999999903
11
92.0339000000000027
21
-82.4050000000000011
0
LINE
8
LYELLOW
6
CONTINUOUS
10
92.0738999999999947
20
-64.7539999999999907
11
92.0738999999999947
21
-82.3960000000000008
0
LINE
8
LYELLOW
6
CONTINUOUS
10
92.113900000000001
20
-64.7639999999999958
11
92.113900000000001
21
-82.3859999999999957
0
LINE
8
LYELLOW
6
CONTINUOUS
10
92.153899999999993
20
-64.7740000000000009
11
92.153899999999993
21
-82.3759999999999906
0
LINE
8
LYELLOW
6
CONTINUOUS
10
92.1938999999999993
20
-64.7849999999999966
11
92.1938999999999993
21
-82.3649999999999949
0
LINE
8
LYELLOW
6
CONTINUOUS
10
92.2338999999999913
20
-64.7950000000000017
11
92.2338999999999913
21
-72.1349999999999909
0
LINE
8
LYELLOW
6
CONTINUOUS
10
92.2338999999999913
20
-75.0150000000000006
11
92.2338999999999913
21
-82.3549999999999898
0
LINE
8
LYELLOW
6
CONTINUOUS
10
92.2738999999999976
20
-64.8059999999999974
11
92.2738999999999976
21
-72.1349999999999909
0
LINE
8
LYELLOW
6
CONTINUOUS
10
92.2738999999999976
20
-75.0150000000000006
11
92.2738999999999976
21
-82.3439999999999941
0
LINE
8
LYELLOW
6
CONTINUOUS
10
92.3138999999999896
20
-64.8160000000000025
11
92.3138999999999896
21
-72.1349999999999909
0
LINE
8
LYELLOW
6
CONTINUOUS
10
92.3138999999999896
20
-75.0150000000000006
11
92.3138999999999896
21
-82.3340000000000032
0
LINE
8
LYELLOW
6
CONTINUOUS
10
92.3538999999999959
20
-64.8269999999999982
11
92.3538999999999959
21
-72.1349999999999909
0
LINE
8
LYELLOW
6
CONTINUOUS
10
92.3538999999999959
20
-75.0150000000000006
11
92.3538999999999959
21
-82.3229999999999933
0
LINE
8
LYELLOW
6
CONTINUOUS
10
92.3939000000000021
20
-64.8389999999999986
11
92.3939000000000021
21
-72.1349999999999909
0
LINE
8
LYELLOW
6
CONTINUOUS
10
92.3939000000000021
20
-75.0150000000000006
11
92.3939000000000021
21
-82.3109999999999928
0
LINE
8
LYELLOW
6
CONTINUOUS
10
92.4338999999999942
20
-64.8499999999999943
11
92.4338999999999942
21
-72.1349999999999909
0
LINE
8
LYELLOW
6
CONTINUOUS
10
92.4338999999999942
20
-75.0150000000000006
11
92.4338999999999942
21
-82.2999999999999972
0
LINE
8
LYELLOW
6
CONTINUOUS
10
92.4739000000000004
20
-64.8619999999999948
11
92.4739000000000004
21
-72.1349999999999909
0
LINE
8
LYELLOW
6
CONTINUOUS
10
92.4739000000000004
20
-75.0150000000000006
11
92.4739000000000004
21
-82.2879999999999967
0
LINE
8
LYELLOW
6
CONTINUOUS
10
92.5138999999999925
20
-64.8729999999999905
11
92.5138999999999925
21
-72.1349999999999909
0
LINE
8
LYELLOW
6
CONTINUOUS
10
92.5138999999999925
20
-75.0150000000000006
11
92.5138999999999925
21
-82.277000000000001
0
LINE
8
LYELLOW
6
CONTINUOUS
10
92.5538999999999987
20
-64.8849999999999909
11
92.5538999999999987
21
-72.1349999999999909
0
LINE
8
LYELLOW
6
CONTINUOUS
10
92.5538999999999987
20
-75.0150000000000006
11
92.5538999999999987
21
-82.2650000000000006
0
LINE
8
LYELLOW
6
CONTINUOUS
10
92.5938999999999908
20
-64.8979999999999961
11
92.5938999999999908
21
-72.1349999999999909
0
LINE
8
LYELLOW
6
CONTINUOUS
10
92.5938999999999908
20
-75.0150000000000006
11
92.5938999999999908
21
-82.2519999999999953
0
LINE
8
LYELLOW
6
CONTINUOUS
10
92.633899999999997
20
-64.9099999999999966
11
92.633899999999997
21
-72.1349999999999909
0
LINE
8
LYELLOW
6
CONTINUOUS
10
92.633899999999997
20
-75.0150000000000006
11
92.633899999999997
21
-82.2399999999999949
0
LINE
8
LYELLOW
6
CONTINUOUS
10
92.6738999999999891
20
-64.9230000000000018
11
92.6738999999999891
21
-72.1349999999999909
0
LINE
8
LYELLOW
6
CONTINUOUS
10
92.6738999999999891
20
-75.0150000000000006
11
92.6738999999999891
21
-82.2269999999999897
0
LINE
8
LYELLOW
6
CONTINUOUS
10
92.7138999999999953
20
-64.9350000000000023
11
92.7138999999999953
21
-72.1349999999999909
0
LINE
8
LYELLOW
6
CONTINUOUS
10
92.7138999999999953
20
-75.0150000000000006
11
92.7138999999999953
21
-82.2149999999999892
0
LINE
8
LYELLOW
6
CONTINUOUS
10
92.7539000000000016
20
-64.9479999999999933
11
92.7539000000000016
21
-72.1349999999999909
0
LINE
8
LYELLOW
6
CONTINUOUS
10
92.7539000000000016
20
-75.0150000000000006
11
92.7539000000000016
21
-82.2019999999999982
0
LINE
8
LYELLOW
6
CONTINUOUS
10
92.7938999999999936
20
-64.9620000000000033
11
92.7938999999999936
21
-72.1349999999999909
0
LINE
8
LYELLOW
6
CONTINUOUS
10
92.7938999999999936
20
-75.0150000000000006
11
92.7938999999999936
21
-82.1880000000000024
0
LINE
8
LYELLOW
6
CONTINUOUS
10
92.8338999999999999
20
-64.9749999999999943
11
92.8338999999999999
21
-72.1349999999999909
0
LINE
8
LYELLOW
6
CONTINUOUS
10
92.8338999999999999
20
-75.0150000000000006
11
92.8338999999999999
21
-82.1749999999999972
0
LINE
8
LYELLOW
6
CONTINUOUS
10
92.8738999999999919
20
-64.9889999999999901
11
92.8738999999999919
21
-72.1349999999999909
0
LINE
8
LYELLOW
6
CONTINUOUS
10
92.8738999999999919
20
-75.0150000000000006
11
92.8738999999999919
21
-82.1610000000000014
0
LINE
8
LYELLOW
6
CONTINUOUS
10
92.9138999999999982
20
-65.0030000000000001
11
92.9138999999999982
21
-72.1349999999999909
0
LINE
8
LYELLOW
6
CONTINUOUS
10
92.9138999999999982
20
-75.0150000000000006
11
92.9138999999999982
21
-82.1469999999999914
0
LINE
8
LYELLOW
6
CONTINUOUS
10
92.9538999999999902
20
-65.0169999999999959
11
92.9538999999999902
21
-72.1349999999999909
0
LINE
8
LYELLOW
6
CONTINUOUS
10
92.9538999999999902
20
-75.0150000000000006
11
92.9538999999999902
21
-82.1329999999999956
0
LINE
8
LYELLOW
6
CONTINUOUS
10
92.9938999999999965
20
-65.0309999999999917
11
92.9938999999999965
21
-72.1349999999999909
0
LINE
8
LYELLOW
6
CONTINUOUS
10
92.9938999999999965
20
-75.0150000000000006
11
92.9938999999999965
21
-82.1189999999999998
0
LINE
8
LYELLOW
6
CONTINUOUS
10
93.0339000000000027
20
-65.0450000000000017
11
93.0339000000000027
21
-72.1349999999999909
0
LINE
8
LYELLOW
6
CONTINUOUS
10
93.0339000000000027
20
-75.0150000000000006
11
93.0339000000000027
21
-82.1049999999999898
0
LINE
8
LYELLOW
6
CONTINUOUS
10
93.0738999999999947
20
-65.0600000000000023
11
93.0738999999999947
21
-72.1349999999999909
0
LINE
8
LYELLOW
6
CONTINUOUS
10
93.0738999999999947
20
-75.0150000000000006
11
93.0738999999999947
21
-82.0899999999999892
0
LINE
8
LYELLOW
6
CONTINUOUS
10
93.113900000000001
20
-65.0750000000000028
11
93.113900000000001
21
-72.1349999999999909
0
LINE
8
LYELLOW
6
CONTINUOUS
10
93.113900000000001
20
-75.0150000000000006
11
93.113900000000001
21
-82.0750000000000028
0
LINE
8
LYELLOW
6
CONTINUOUS
10
93.153899999999993
20
-65.0900000000000034
11
93.153899999999993
21
-72.1349999999999909
0
LINE
8
LYELLOW
6
CONTINUOUS
10
93.153899999999993
20
-75.0150000000000006
11
93.153899999999993
21
-82.0600000000000023
0
LINE
8
LYELLOW
6
CONTINUOUS
10
93.1938999999999993
20
-65.105000000000004
11
93.1938999999999993
21
-72.1349999999999909
0
LINE
8
LYELLOW
6
CONTINUOUS
10
93.1938999999999993
20
-75.0150000000000006
11
93.1938999999999993
21
-82.0450000000000017
0
LINE
8
LYELLOW
6
CONTINUOUS
10
93.2338999999999913
20
-65.1209999999999951
11
93.2338999999999913
21
-72.1349999999999909
0
LINE
8
LYELLOW
6
CONTINUOUS
10
93.2338999999999913
20
-75.0150000000000006
11
93.2338999999999913
21
-82.0289999999999964
0
LINE
8
LYELLOW
6
CONTINUOUS
10
93.2738999999999976
20
-65.1370000000000005
11
93.2738999999999976
21
-72.1349999999999909
0
LINE
8
LYELLOW
6
CONTINUOUS
10
93.2738999999999976
20
-75.0150000000000006
11
93.2738999999999976
21
-82.012999999999991
0
LINE
8
LYELLOW
6
CONTINUOUS
10
93.3138999999999896
20
-65.152000000000001
11
93.3138999999999896
21
-72.1349999999999909
0
LINE
8
LYELLOW
6
CONTINUOUS
10
93.3138999999999896
20
-75.0150000000000006
11
93.3138999999999896
21
-81.9979999999999905
0
LINE
8
LYELLOW
6
CONTINUOUS
10
93.3538999999999959
20
-65.1689999999999969
11
93.3538999999999959
21
-72.1349999999999909
0
LINE
8
LYELLOW
6
CONTINUOUS
10
93.3538999999999959
20
-75.0150000000000006
11
93.3538999999999959
21
-81.9809999999999945
0
LINE
8
LYELLOW
6
CONTINUOUS
10
93.3939000000000021
20
-65.1850000000000023
11
93.3939000000000021
21
-72.1349999999999909
0
LINE
8
LYELLOW
6
CONTINUOUS
10
93.3939000000000021
20
-75.0150000000000006
11
93.3939000000000021
21
-81.9649999999999892
0
LINE
8
LYELLOW
6
CONTINUOUS
10
93.4338999999999942
20
-65.2019999999999982
11
93.4338999999999942
21
-72.1349999999999909
0
LINE
8
LYELLOW
6
CONTINUOUS
10
93.4338999999999942
20
-75.0150000000000006
11
93.4338999999999942
21
-81.9479999999999933
0
LINE
8
LYELLOW
6
CONTINUOUS
10
93.4739000000000004
20
-65.2189999999999941
11
93.4739000000000004
21
-72.1349999999999909
0
LINE
8
LYELLOW
6
CONTINUOUS
10
93.4739000000000004
20
-75.0150000000000006
11
93.4739000000000004
21
-81.9309999999999974
0
LINE
8
LYELLOW
6
CONTINUOUS
10
93.5138999999999925
20
-65.23599999999999
11
93.5138999999999925
21
-72.1349999999999909
0
LINE
8
LYELLOW
6
CONTINUOUS
10
93.5138999999999925
20
-75.0150000000000006
11
93.5138999999999925
21
-81.9140000000000015
0
LINE
8
LYELLOW
6
CONTINUOUS
10
93.5538999999999987
20
-65.2530000000000001
11
93.5538999999999987
21
-72.1349999999999909
0
LINE
8
LYELLOW
6
CONTINUOUS
10
93.5538999999999987
20
-75.0150000000000006
11
93.5538999999999987
21
-81.8969999999999914
0
LINE
8
LYELLOW
6
CONTINUOUS
10
93.5938999999999908
20
-65.269999999999996
11
93.5938999999999908
21
-72.1349999999999909
0
LINE
8
LYELLOW
6
CONTINUOUS
10
93.5938999999999908
20
-75.0150000000000006
11
93.5938999999999908
21
-81.8799999999999955
0
LINE
8
LYELLOW
6
CONTINUOUS
10
93.633899999999997
20
-65.2879999999999967
11
93.633899999999997
21
-72.1349999999999909
0
LINE
8
LYELLOW
6
CONTINUOUS
10
93.633899999999997
20
-75.0150000000000006
11
93.633899999999997
21
-81.8619999999999948
0
LINE
8
LYELLOW
6
CONTINUOUS
10
93.6738999999999891
20
-65.3059999999999974
11
93.6738999999999891
21
-72.1349999999999909
0
LINE
8
LYELLOW
6
CONTINUOUS
10
93.6738999999999891
20
-75.0150000000000006
11
93.6738999999999891
21
-81.8439999999999941
0
LINE
8
LYELLOW
6
CONTINUOUS
10
93.7138999999999953
20
-65.3239999999999981
11
93.7138999999999953
21
-72.1349999999999909
0
LINE
8
LYELLOW
6
CONTINUOUS
10
93.7138999999999953
20
-75.0150000000000006
11
93.7138999999999953
21
-81.8259999999999934
0
LINE
8
LYELLOW
6
CONTINUOUS
10
93.7539000000000016
20
-65.3430000000000035
11
93.7539000000000016
21
-72.1349999999999909
0
LINE
8
LYELLOW
6
CONTINUOUS
10
93.7539000000000016
20
-75.0150000000000006
11
93.7539000000000016
21
-81.8070000000000022
0
LINE
8
LYELLOW
6
CONTINUOUS
10
93.7938999999999936
20
-65.3619999999999948
11
93.7938999999999936
21
-72.1349999999999909
0
LINE
8
LYELLOW
6
CONTINUOUS
10
93.7938999999999936
20
-75.0150000000000006
11
93.7938999999999936
21
-81.7879999999999967
0
LINE
8
LYELLOW
6
CONTINUOUS
10
93.8338999999999999
20
-65.3799999999999955
11
93.8338999999999999
21
-72.1349999999999909
0
LINE
8
LYELLOW
6
CONTINUOUS
10
93.8338999999999999
20
-75.0150000000000006
11
93.8338999999999999
21
-81.769999999999996
0
LINE
8
LYELLOW
6
CONTINUOUS
10
93.8738999999999919
20
-65.3999999999999915
11
93.8738999999999919
21
-72.1349999999999909
0
LINE
8
LYELLOW
6
CONTINUOUS
10
93.8738999999999919
20
-75.0150000000000006
11
93.8738999999999919
21
-81.75
0
LINE
8
LYELLOW
6
CONTINUOUS
10
93.9138999999999982
20
-65.4189999999999969
11
93.9138999999999982
21
-72.1349999999999909
0
LINE
8
LYELLOW
6
CONTINUOUS
10
93.9138999999999982
20
-75.0150000000000006
11
93.9138999999999982
21
-81.7309999999999945
0
LINE
8
LYELLOW
6
CONTINUOUS
10
93.9538999999999902
20
-65.438999999999993
11
93.9538999999999902
21
-72.1349999999999909
0
LINE
8
LYELLOW
6
CONTINUOUS
10
93.9538999999999902
20
-75.0150000000000006
11
93.9538999999999902
21
-81.7109999999999985
0
LINE
8
LYELLOW
6
CONTINUOUS
10
93.9938999999999965
20
-65.4590000000000032
11
93.9938999999999965
21
-72.1349999999999909
0
LINE
8
LYELLOW
6
CONTINUOUS
10
93.9938999999999965
20
-75.0150000000000006
11
93.9938999999999965
21
-81.6910000000000025
0
LINE
8
LYELLOW
6
CONTINUOUS
10
94.0339000000000027
20
-65.4789999999999992
11
94.0339000000000027
21
-72.1349999999999909
0
LINE
8
LYELLOW
6
CONTINUOUS
10
94.0339000000000027
20
-75.0150000000000006
11
94.0339000000000027
21
-81.6709999999999923
0
LINE
8
LYELLOW
6
CONTINUOUS
10
94.0738999999999947
20
-65.4989999999999952
11
94.0738999999999947
21
-72.1349999999999909
0
LINE
8
LYELLOW
6
CONTINUOUS
10
94.0738999999999947
20
-75.0150000000000006
11
94.0738999999999947
21
-81.6509999999999962
0
LINE
8
LYELLOW
6
CONTINUOUS
10
94.113900000000001
20
-65.519999999999996
11
94.113900000000001
21
-72.1349999999999909
0
LINE
8
LYELLOW
6
CONTINUOUS
10
94.113900000000001
20
-75.0150000000000006
11
94.113900000000001
21
-81.6299999999999955
0
LINE
8
LYELLOW
6
CONTINUOUS
10
94.153899999999993
20
-65.5409999999999968
11
94.153899999999993
21
-72.1349999999999909
0
LINE
8
LYELLOW
6
CONTINUOUS
10
94.153899999999993
20
-75.0150000000000006
11
94.153899999999993
21
-81.6089999999999947
0
LINE
8
LYELLOW
6
CONTINUOUS
10
94.1938999999999993
20
-65.5619999999999976
11
94.1938999999999993
21
-72.1349999999999909
0
LINE
8
LYELLOW
6
CONTINUOUS
10
94.1938999999999993
20
-75.0150000000000006
11
94.1938999999999993
21
-81.5879999999999939
0
LINE
8
LYELLOW
6
CONTINUOUS
10
94.2338999999999913
20
-65.5829999999999984
11
94.2338999999999913
21
-72.1349999999999909
0
LINE
8
LYELLOW
6
CONTINUOUS
10
94.2338999999999913
20
-75.0150000000000006
11
94.2338999999999913
21
-81.5669999999999931
0
LINE
8
LYELLOW
6
CONTINUOUS
10
94.2738999999999976
20
-65.605000000000004
11
94.2738999999999976
21
-72.1349999999999909
0
LINE
8
LYELLOW
6
CONTINUOUS
10
94.2738999999999976
20
-75.0150000000000006
11
94.2738999999999976
21
-81.5450000000000017
0
LINE
8
LYELLOW
6
CONTINUOUS
10
94.3138999999999896
20
-65.6269999999999953
11
94.3138999999999896
21
-72.1349999999999909
0
LINE
8
LYELLOW
6
CONTINUOUS
10
94.3138999999999896
20
-75.0150000000000006
11
94.3138999999999896
21
-81.5229999999999961
0
LINE
8
LYELLOW
6
CONTINUOUS
10
94.3538999999999959
20
-65.6490000000000009
11
94.3538999999999959
21
-72.1349999999999909
0
LINE
8
LYELLOW
6
CONTINUOUS
10
94.3538999999999959
20
-75.0150000000000006
11
94.3538999999999959
21
-81.5009999999999906
0
LINE
8
LYELLOW
6
CONTINUOUS
10
94.3939000000000021
20
-65.6709999999999923
11
94.3939000000000021
21
-72.1349999999999909
0
LINE
8
LYELLOW
6
CONTINUOUS
10
94.3939000000000021
20
-75.0150000000000006
11
94.3939000000000021
21
-81.4789999999999992
0
LINE
8
LYELLOW
6
CONTINUOUS
10
94.4338999999999942
20
-65.6940000000000026
11
94.4338999999999942
21
-72.1349999999999909
0
LINE
8
LYELLOW
6
CONTINUOUS
10
94.4338999999999942
20
-75.0150000000000006
11
94.4338999999999942
21
-81.4560000000000031
0
LINE
8
LYELLOW
6
CONTINUOUS
10
94.4739000000000004
20
-65.7169999999999987
11
94.4739000000000004
21
-72.1349999999999909
0
LINE
8
LYELLOW
6
CONTINUOUS
10
94.4739000000000004
20
-75.0150000000000006
11
94.4739000000000004
21
-81.4329999999999927
0
LINE
8
LYELLOW
6
CONTINUOUS
10
94.5138999999999925
20
-65.7399999999999949
11
94.5138999999999925
21
-72.1349999999999909
0
LINE
8
LYELLOW
6
CONTINUOUS
10
94.5138999999999925
20
-75.0150000000000006
11
94.5138999999999925
21
-81.4099999999999966
0
LINE
8
LYELLOW
6
CONTINUOUS
10
94.5538999999999987
20
-65.7639999999999958
11
94.5538999999999987
21
-72.1349999999999909
0
LINE
8
LYELLOW
6
CONTINUOUS
10
94.5538999999999987
20
-75.0150000000000006
11
94.5538999999999987
21
-81.3859999999999957
0
LINE
8
LYELLOW
6
CONTINUOUS
10
94.5938999999999908
20
-65.7869999999999919
11
94.5938999999999908
21
-72.1349999999999909
0
LINE
8
LYELLOW
6
CONTINUOUS
10
94.5938999999999908
20
-75.0150000000000006
11
94.5938999999999908
21
-81.3629999999999995
0
LINE
8
LYELLOW
6
CONTINUOUS
10
94.633899999999997
20
-65.8109999999999928
11
94.633899999999997
21
-72.1349999999999909
0
LINE
8
LYELLOW
6
CONTINUOUS
10
94.633899999999997
20
-75.0150000000000006
11
94.633899999999997
21
-81.3389999999999986
0
LINE
8
LYELLOW
6
CONTINUOUS
10
94.6738999999999891
20
-65.8359999999999985
11
94.6738999999999891
21
-72.1349999999999909
0
LINE
8
LYELLOW
6
CONTINUOUS
10
94.6738999999999891
20
-75.0150000000000006
11
94.6738999999999891
21
-81.313999999999993
0
LINE
8
LYELLOW
6
CONTINUOUS
10
94.7138999999999953
20
-65.8599999999999994
11
94.7138999999999953
21
-72.1349999999999909
0
LINE
8
LYELLOW
6
CONTINUOUS
10
94.7138999999999953
20
-75.0150000000000006
11
94.7138999999999953
21
-81.289999999999992
0
LINE
8
LYELLOW
6
CONTINUOUS
10
94.7539000000000016
20
-65.8849999999999909
11
94.7539000000000016
21
-72.1349999999999909
0
LINE
8
LYELLOW
6
CONTINUOUS
10
94.7539000000000016
20
-75.0150000000000006
11
94.7539000000000016
21
-81.2650000000000006
0
LINE
8
LYELLOW
6
CONTINUOUS
10
94.7938999999999936
20
-65.9099999999999966
11
94.7938999999999936
21
-72.1349999999999909
0
LINE
8
LYELLOW
6
CONTINUOUS
10
94.7938999999999936
20
-75.0150000000000006
11
94.7938999999999936
21
-81.2399999999999949
0
LINE
8
LYELLOW
6
CONTINUOUS
10
94.8338999999999999
20
-65.9359999999999928
11
94.8338999999999999
21
-72.1349999999999909
0
LINE
8
LYELLOW
6
CONTINUOUS
10
94.8338999999999999
20
-75.0150000000000006
11
94.8338999999999999
21
-81.2139999999999986
0
LINE
8
LYELLOW
6
CONTINUOUS
10
94.8738999999999919
20
-65.9620000000000033
11
94.8738999999999919
21
-72.1349999999999909
0
LINE
8
LYELLOW
6
CONTINUOUS
10
94.8738999999999919
20
-75.0150000000000006
11
94.8738999999999919
21
-81.1880000000000024
0
LINE
8
LYELLOW
6
CONTINUOUS
10
94.9138999999999982
20
-65.9879999999999995
11
94.9138999999999982
21
-72.1349999999999909
0
LINE
8
LYELLOW
6
CONTINUOUS
10
94.9138999999999982
20
-75.0150000000000006
11
94.9138999999999982
21
-81.1619999999999919
0
LINE
8
LYELLOW
6
CONTINUOUS
10
94.9538999999999902
20
-66.0139999999999958
11
94.9538999999999902
21
-72.1349999999999909
0
LINE
8
LYELLOW
6
CONTINUOUS
10
94.9538999999999902
20
-75.0150000000000006
11
94.9538999999999902
21
-81.1359999999999957
0
LINE
8
LYELLOW
6
CONTINUOUS
10
94.9938999999999965
20
-66.0409999999999968
11
94.9938999999999965
21
-72.1349999999999909
0
LINE
8
LYELLOW
6
CONTINUOUS
10
94.9938999999999965
20
-75.0150000000000006
11
94.9938999999999965
21
-81.1089999999999947
0
LINE
8
LYELLOW
6
CONTINUOUS
10
95.0339000000000027
20
-66.0679999999999978
11
95.0339000000000027
21
-72.1349999999999909
0
LINE
8
LYELLOW
6
CONTINUOUS
10
95.0339000000000027
20
-75.0150000000000006
11
95.0339000000000027
21
-81.0819999999999936
0
LINE
8
LYELLOW
6
CONTINUOUS
10
95.0738999999999947
20
-66.0949999999999989
11
95.0738999999999947
21
-72.1349999999999909
0
LINE
8
LYELLOW
6
CONTINUOUS
10
95.0738999999999947
20
-75.0150000000000006
11
95.0738999999999947
21
-81.0549999999999926
0
LINE
8
LYELLOW
6
CONTINUOUS
10
95.113900000000001
20
-66.1229999999999905
11
95.113900000000001
21
-81.027000000000001
0
LINE
8
LYELLOW
6
CONTINUOUS
10
95.153899999999993
20
-66.1509999999999962
11
95.153899999999993
21
-80.9989999999999952
0
LINE
8
LYELLOW
6
CONTINUOUS
10
95.1938999999999993
20
-66.179000000000002
11
95.1938999999999993
21
-80.9709999999999894
0
LINE
8
LYELLOW
6
CONTINUOUS
10
95.2338999999999913
20
-66.2069999999999936
11
95.2338999999999913
21
-80.9429999999999978
0
LINE
8
LYELLOW
6
CONTINUOUS
10
95.2738999999999976
20
-66.23599999999999
11
95.2738999999999976
21
-80.9140000000000015
0
LINE
8
LYELLOW
6
CONTINUOUS
10
95.3138999999999896
20
-66.2659999999999911
11
95.3138999999999896
21
-80.8840000000000003
0
LINE
8
LYELLOW
6
CONTINUOUS
10
95.3538999999999959
20
-66.2950000000000017
11
95.3538999999999959
21
-80.8549999999999898
0
LINE
8
LYELLOW
6
CONTINUOUS
10
95.3939000000000021
20
-66.3250000000000028
11
95.3939000000000021
21
-80.8250000000000028
0
LINE
8
LYELLOW
6
CONTINUOUS
10
95.4338999999999942
20
-66.355000000000004
11
95.4338999999999942
21
-80.7950000000000017
0
LINE
8
LYELLOW
6
CONTINUOUS
10
95.4739000000000004
20
-66.3859999999999957
11
95.4739000000000004
21
-80.7639999999999958
0
LINE
8
LYELLOW
6
CONTINUOUS
10
95.5138999999999925
20
-66.4170000000000016
11
95.5138999999999925
21
-80.7329999999999899
0
LINE
8
LYELLOW
6
CONTINUOUS
10
95.5538999999999987
20
-66.4479999999999933
11
95.5538999999999987
21
-80.7019999999999982
0
LINE
8
LYELLOW
6
CONTINUOUS
10
95.5938999999999908
20
-66.480000000000004
11
95.5938999999999908
21
-80.6700000000000017
0
LINE
8
LYELLOW
6
CONTINUOUS
10
95.633899999999997
20
-66.5120000000000005
11
95.633899999999997
21
-80.637999999999991
0
LINE
8
LYELLOW
6
CONTINUOUS
10
95.6738999999999891
20
-66.5439999999999969
11
95.6738999999999891
21
-80.6059999999999945
0
LINE
8
LYELLOW
6
CONTINUOUS
10
95.7138999999999953
20
-66.5769999999999982
11
95.7138999999999953
21
-80.5729999999999933
0
LINE
8
LYELLOW
6
CONTINUOUS
10
95.7539000000000016
20
-66.6099999999999994
11
95.7539000000000016
21
-80.539999999999992
0
LINE
8
LYELLOW
6
CONTINUOUS
10
95.7938999999999936
20
-66.6439999999999912
11
95.7938999999999936
21
-80.5060000000000002
0
LINE
8
LYELLOW
6
CONTINUOUS
10
95.8338999999999999
20
-66.6779999999999973
11
95.8338999999999999
21
-80.4719999999999942
0
LINE
8
LYELLOW
6
CONTINUOUS
10
95.8738999999999919
20
-66.7120000000000033
11
95.8738999999999919
21
-80.4380000000000024
0
LINE
8
LYELLOW
6
CONTINUOUS
10
95.9138999999999982
20
-66.7469999999999999
11
95.9138999999999982
21
-80.4029999999999916
0
LINE
8
LYELLOW
6
CONTINUOUS
10
95.9538999999999902
20
-66.7819999999999965
11
95.9538999999999902
21
-80.367999999999995
0
LINE
8
LYELLOW
6
CONTINUOUS
10
95.9938999999999965
20
-66.8169999999999931
11
95.9938999999999965
21
-80.3329999999999984
0
LINE
8
LYELLOW
6
CONTINUOUS
10
96.0339000000000027
20
-66.8529999999999944
11
96.0339000000000027
21
-80.296999999999997
0
LINE
8
LYELLOW
6
CONTINUOUS
10
96.0738999999999947
20
-66.8900000000000006
11
96.0738999999999947
21
-80.2599999999999909
0
LINE
8
LYELLOW
6
CONTINUOUS
10
96.113900000000001
20
-66.9269999999999925
11
96.113900000000001
21
-80.222999999999999
0
LINE
8
LYELLOW
6
CONTINUOUS
10
96.153899999999993
20
-66.9639999999999986
11
96.153899999999993
21
-80.1859999999999928
0
LINE
8
LYELLOW
6
CONTINUOUS
10
96.1938999999999993
20
-67.0019999999999953
11
96.1938999999999993
21
-80.1479999999999961
0
LINE
8
LYELLOW
6
CONTINUOUS
10
96.2338999999999913
20
-67.039999999999992
11
96.2338999999999913
21
-80.1099999999999994
0
LINE
8
LYELLOW
6
CONTINUOUS
10
96.2738999999999976
20
-67.0789999999999935
11
96.2738999999999976
21
-80.070999999999998
0
LINE
8
LYELLOW
6
CONTINUOUS
10
96.3138999999999896
20
-67.117999999999995
11
96.3138999999999896
21
-80.0319999999999965
0
LINE
8
LYELLOW
6
CONTINUOUS
10
96.3538999999999959
20
-67.1569999999999965
11
96.3538999999999959
21
-79.992999999999995
0
LINE
8
LYELLOW
6
CONTINUOUS
10
96.3939000000000021
20
-67.1979999999999933
11
96.3939000000000021
21
-79.9519999999999982
0
LINE
8
LYELLOW
6
CONTINUOUS
10
96.4338999999999942
20
-67.2379999999999995
11
96.4338999999999942
21
-79.9119999999999919
0
LINE
8
LYELLOW
6
CONTINUOUS
10
96.4739000000000004
20
-67.2789999999999964
11
96.4739000000000004
21
-79.8709999999999951
0
LINE
8
LYELLOW
6
CONTINUOUS
10
96.5138999999999925
20
-67.320999999999998
11
96.5138999999999925
21
-79.8289999999999935
0
LINE
8
LYELLOW
6
CONTINUOUS
10
96.5538999999999987
20
-67.3629999999999995
11
96.5538999999999987
21
-79.7869999999999919
0
LINE
8
LYELLOW
6
CONTINUOUS
10
96.5938999999999908
20
-67.4059999999999917
11
96.5938999999999908
21
-79.7439999999999998
0
LINE
8
LYELLOW
6
CONTINUOUS
10
96.633899999999997
20
-67.4489999999999981
11
96.633899999999997
21
-79.7009999999999934
0
LINE
8
LYELLOW
6
CONTINUOUS
10
96.6738999999999891
20
-67.492999999999995
11
96.6738999999999891
21
-79.6569999999999965
0
LINE
8
LYELLOW
6
CONTINUOUS
10
96.7138999999999953
20
-67.5379999999999967
11
96.7138999999999953
21
-79.6119999999999948
0
LINE
8
LYELLOW
6
CONTINUOUS
10
96.7539000000000016
20
-67.5829999999999984
11
96.7539000000000016
21
-79.5669999999999931
0
LINE
8
LYELLOW
6
CONTINUOUS
10
96.7938999999999936
20
-67.6280000000000001
11
96.7938999999999936
21
-79.5219999999999914
0
LINE
8
LYELLOW
6
CONTINUOUS
10
96.8338999999999999
20
-67.6749999999999972
11
96.8338999999999999
21
-79.4749999999999943
0
LINE
8
LYELLOW
6
CONTINUOUS
10
96.8738999999999919
20
-67.7219999999999942
11
96.8738999999999919
21
-79.4279999999999973
0
LINE
8
LYELLOW
6
CONTINUOUS
10
96.9138999999999982
20
-67.7689999999999912
11
96.9138999999999982
21
-79.3810000000000002
0
LINE
8
LYELLOW
6
CONTINUOUS
10
96.9538999999999902
20
-67.8169999999999931
11
96.9538999999999902
21
-79.3329999999999984
0
LINE
8
LYELLOW
6
CONTINUOUS
10
96.9938999999999965
20
-67.8659999999999997
11
96.9938999999999965
21
-79.2839999999999918
0
LINE
8
LYELLOW
6
CONTINUOUS
10
97.0339000000000027
20
-67.9159999999999968
11
97.0339000000000027
21
-79.2339999999999947
0
LINE
8
LYELLOW
6
CONTINUOUS
10
97.0738999999999947
20
-67.965999999999994
11
97.0738999999999947
21
-79.1839999999999975
0
LINE
8
LYELLOW
6
CONTINUOUS
10
97.113900000000001
20
-68.0169999999999959
11
97.113900000000001
21
-79.1329999999999956
0
LINE
8
LYELLOW
6
CONTINUOUS
10
97.153899999999993
20
-68.0690000000000026
11
97.153899999999993
21
-79.0810000000000031
0
LINE
8
LYELLOW
6
CONTINUOUS
10
97.1938999999999993
20
-68.1219999999999999
11
97.1938999999999993
21
-79.0279999999999916
0
LINE
8
LYELLOW
6
CONTINUOUS
10
97.2338999999999913
20
-68.1749999999999972
11
97.2338999999999913
21
-78.9749999999999943
0
LINE
8
LYELLOW
6
CONTINUOUS
10
97.2738999999999976
20
-68.2289999999999992
11
97.2738999999999976
21
-78.9209999999999923
0
LINE
8
LYELLOW
6
CONTINUOUS
10
97.3138999999999896
20
-68.2839999999999918
11
97.3138999999999896
21
-78.8659999999999997
0
LINE
8
LYELLOW
6
CONTINUOUS
10
97.3538999999999959
20
-68.3400000000000034
11
97.3538999999999959
21
-78.8100000000000023
0
LINE
8
LYELLOW
6
CONTINUOUS
10
97.3939000000000021
20
-68.3969999999999914
11
97.3939000000000021
21
-78.7530000000000001
0
LINE
8
LYELLOW
6
CONTINUOUS
10
97.4338999999999942
20
-68.4549999999999983
11
97.4338999999999942
21
-78.6949999999999932
0
LINE
8
LYELLOW
6
CONTINUOUS
10
97.4739000000000004
20
-68.5139999999999958
11
97.4739000000000004
21
-78.6359999999999957
0
LINE
8
LYELLOW
6
CONTINUOUS
10
97.5138999999999925
20
-68.5739999999999981
11
97.5138999999999925
21
-78.5759999999999934
0
LINE
8
LYELLOW
6
CONTINUOUS
10
97.5538999999999987
20
-68.6349999999999909
11
97.5538999999999987
21
-78.5150000000000006
0
LINE
8
LYELLOW
6
CONTINUOUS
10
97.5938999999999908
20
-68.695999999999998
11
97.5938999999999908
21
-78.4539999999999935
0
LINE
8
LYELLOW
6
CONTINUOUS
10
97.633899999999997
20
-68.7590000000000003
11
97.633899999999997
21
-78.3909999999999911
0
LINE
8
LYELLOW
6
CONTINUOUS
10
97.6738999999999891
20
-68.8239999999999981
11
97.6738999999999891
21
-78.3259999999999934
0
LINE
8
LYELLOW
6
CONTINUOUS
10
97.7138999999999953
20
-68.8889999999999958
11
97.7138999999999953
21
-78.2609999999999957
0
LINE
8
LYELLOW
6
CONTINUOUS
10
97.7539000000000016
20
-68.9560000000000031
11
97.7539000000000016
21
-78.1940000000000026
0
LINE
8
LYELLOW
6
CONTINUOUS
10
97.7938999999999936
20
-69.0240000000000009
11
97.7938999999999936
21
-78.1259999999999906
0
LINE
8
LYELLOW
6
CONTINUOUS
10
97.8338999999999999
20
-69.0930000000000035
11
97.8338999999999999
21
-78.0570000000000022
0
LINE
8
LYELLOW
6
CONTINUOUS
10
97.8738999999999919
20
-69.1640000000000015
11
97.8738999999999919
21
-77.98599999999999
0
LINE
8
LYELLOW
6
CONTINUOUS
10
97.9138999999999982
20
-69.23599999999999
11
97.9138999999999982
21
-77.9140000000000015
0
LINE
8
LYELLOW
6
CONTINUOUS
10
97.9538999999999902
20
-69.3100000000000023
11
97.9538999999999902
21
-77.8400000000000034
0
LINE
8
LYELLOW
6
CONTINUOUS
10
97.9938999999999965
20
-69.3859999999999957
11
97.9938999999999965
21
-77.7639999999999958
0
LINE
8
LYELLOW
6
CONTINUOUS
10
98.0338999999999885
20
-69.4629999999999939
11
98.0338999999999885
21
-77.6869999999999976
0
LINE
8
LYELLOW
6
CONTINUOUS
10
98.0738999999999947
20
-69.5420000000000016
11
98.0738999999999947
21
-77.6079999999999899
0
LINE
8
LYELLOW
6
CONTINUOUS
10
98.113900000000001
20
-69.6229999999999905
11
98.113900000000001
21
-77.527000000000001
0
LINE
8
LYELLOW
6
CONTINUOUS
10
98.153899999999993
20
-69.7060000000000031
11
98.153899999999993
21
-77.4440000000000026
0
LINE
8
LYELLOW
6
CONTINUOUS
10
98.1938999999999993
20
-69.7920000000000016
11
98.1938999999999993
21
-77.3579999999999899
0
LINE
8
LYELLOW
6
CONTINUOUS
10
98.2338999999999913
20
-69.8799999999999955
11
98.2338999999999913
21
-77.269999999999996
0
LINE
8
LYELLOW
6
CONTINUOUS
10
98.2738999999999976
20
-69.9699999999999989
11
98.2738999999999976
21
-77.1799999999999926
0
LINE
8
LYELLOW
6
CONTINUOUS
10
98.3138999999999896
20
-70.0630000000000024
11
98.3138999999999896
21
-77.0870000000000033
0
LINE
8
LYELLOW
6
CONTINUOUS
10
98.3538999999999959
20
-70.1589999999999918
11
98.3538999999999959
21
-76.9909999999999997
0
LINE
8
LYELLOW
6
CONTINUOUS
10
98.3939000000000021
20
-70.2590000000000003
11
98.3939000000000021
21
-76.8909999999999911
0
LINE
8
LYELLOW
6
CONTINUOUS
10
98.4338999999999942
20
-70.3619999999999948
11
98.4338999999999942
21
-76.7879999999999967
0
LINE
8
LYELLOW
6
CONTINUOUS
10
98.4739000000000004
20
-70.4680000000000035
11
98.4739000000000004
21
-76.6820000000000022
0
LINE
8
LYELLOW
6
CONTINUOUS
10
98.5138999999999925
20
-70.5789999999999935
11
98.5138999999999925
21
-76.570999999999998
0
LINE
8
LYELLOW
6
CONTINUOUS
10
98.5538999999999987
20
-70.6949999999999932
11
98.5538999999999987
21
-76.4549999999999983
0
LINE
8
LYELLOW
6
CONTINUOUS
10
98.5938999999999908
20
-70.8160000000000025
11
98.5938999999999908
21
-76.3340000000000032
0
LINE
8
LYELLOW
6
CONTINUOUS
10
98.633899999999997
20
-70.9440000000000026
11
98.633899999999997
21
-76.2060000000000031
0
LINE
8
LYELLOW
6
CONTINUOUS
10
98.6738999999999891
20
-71.078000000000003
11
98.6738999999999891
21
-76.0720000000000027
0
LINE
8
LYELLOW
6
CONTINUOUS
10
98.7138999999999953
20
-71.2199999999999989
11
98.7138999999999953
21
-75.9299999999999926
0
LINE
8
LYELLOW
6
CONTINUOUS
10
98.7539000000000016
20
-71.3729999999999905
11
98.7539000000000016
21
-75.777000000000001
0
LINE
8
LYELLOW
6
CONTINUOUS
10
98.7938999999999936
20
-71.5369999999999919
11
98.7938999999999936
21
-75.6129999999999995
0
LINE
8
LYELLOW
6
CONTINUOUS
10
98.8338999999999999
20
-71.715999999999994
11
98.8338999999999999
21
-75.4339999999999975
0
LINE
8
LYELLOW
6
CONTINUOUS
10
98.8738999999999919
20
-71.9140000000000015
11
98.8738999999999919
21
-75.23599999999999
0
LINE
8
LYELLOW
6
CONTINUOUS
10
98.9138999999999982
20
-72.1400000000000006
11
98.9138999999999982
21
-75.0099999999999909
0
LINE
8
LYELLOW
6
CONTINUOUS
10
98.9538999999999902
20
-72.4099999999999966
11
98.9538999999999902
21
-74.7399999999999949
0
LINE
8
LYELLOW
6
CONTINUOUS
10
98.9938999999999965
20
-72.7620000000000005
11
98.9938999999999965
21
-74.387999999999991
0
LINE
8
LYELLOW
6
CONTINUOUS
10
99.0338999999999885
20
-73.6149999999999949
11
99.0338999999999885
21
-73.5349999999999966
0
CIRCLE
8
LYELLOW
10
89.9138999999999982
20
-73.5750000000000028
40
9.1199999999999992
0
LINE
8
LYELLOW
6
CONTINUOUS
10
118.4449999999999932
20
-34.125
11
119.4649999999999892
21
-34.125
0
LINE
8
LYELLOW
6
CONTINUOUS
10
120.2449999999999903
20
-32.6550000000000011
11
120.2449999999999903
21
-35.5949999999999989
0
LINE
8
LYELLOW
6
CONTINUOUS
10
120.3649999999999949
20
-32.6550000000000011
11
120.3649999999999949
21
-35.5949999999999989
0
LINE
8
LYELLOW
6
CONTINUOUS
10
120.4849999999999994
20
-32.6550000000000011
11
120.4849999999999994
21
-35.5949999999999989
0
LINE
8
LYELLOW
6
CONTINUOUS
10
125.9249999999999972
20
-34.125
11
124.9050000000000011
21
-34.125
0
LINE
8
LYELLOW
6
CONTINUOUS
10
119.4649999999999892
20
-32.6550000000000011
11
124.9050000000000011
21
-32.6550000000000011
0
LINE
8
LYELLOW
6
CONTINUOUS
10
124.9050000000000011
20
-32.6550000000000011
11
124.9050000000000011
21
-35.5949999999999989
0
LINE
8
LYELLOW
6
CONTINUOUS
10
124.9050000000000011
20
-35.5949999999999989
11
119.4649999999999892
21
-35.5949999999999989
0
LINE
8
LYELLOW
6
CONTINUOUS
10
119.4649999999999892
20
-35.5949999999999989
11
119.4649999999999892
21
-32.6550000000000011
0
LINE
8
LYELLOW
6
CONTINUOUS
10
108.8038999999999987
20
-72.2049999999999983
11
115.3438999999999908
21
-72.2049999999999983
0
LINE
8
LYELLOW
6
CONTINUOUS
10
108.8038999999999987
20
-72.5349999999999966
11
108.8038999999999987
21
-72.2049999999999983
0
LINE
8
LYELLOW
6
CONTINUOUS
10
108.8038999999999987
20
-74.6149999999999949
11
108.8038999999999987
21
-74.9449999999999932
0
LINE
8
LYELLOW
6
CONTINUOUS
10
108.8038999999999987
20
-74.9449999999999932
11
115.3438999999999908
21
-74.9449999999999932
0
LINE
8
LYELLOW
6
CONTINUOUS
10
115.3438999999999908
20
-72.2049999999999983
11
115.3438999999999908
21
-72.5349999999999966
0
LINE
8
LYELLOW
6
CONTINUOUS
10
115.3438999999999908
20
-74.9449999999999932
11
115.3438999999999908
21
-74.6149999999999949
0
LINE
8
LYELLOW
6
CONTINUOUS
10
76.625
20
-50.0249999999999986
11
77.644999999999996
21
-50.0249999999999986
0
LINE
8
LYELLOW
6
CONTINUOUS
10
78.4249999999999972
20
-48.5549999999999997
11
78.4249999999999972
21
-51.4949999999999974
0
LINE
8
LYELLOW
6
CONTINUOUS
10
78.5450000000000017
20
-48.5549999999999997
11
78.5450000000000017
21
-51.4949999999999974
0
LINE
8
LYELLOW
6
CONTINUOUS
10
78.664999999999992
20
-48.5549999999999997
11
78.664999999999992
21
-51.4949999999999974
0
LINE
8
LYELLOW
6
CONTINUOUS
10
84.1049999999999898
20
-50.0249999999999986
11
83.0849999999999937
21
-50.0249999999999986
0
LINE
8
LYELLOW
6
CONTINUOUS
10
77.644999999999996
20
-48.5549999999999997
11
83.0849999999999937
21
-48.5549999999999997
0
LINE
8
LYELLOW
6
CONTINUOUS
10
83.0849999999999937
20
-48.5549999999999997
11
83.0849999999999937
21
-51.4949999999999974
0
LINE
8
LYELLOW
6
CONTINUOUS
10
83.0849999999999937
20
-51.4949999999999974
11
77.644999999999996
21
-51.4949999999999974
0
LINE
8
LYELLOW
6
CONTINUOUS
10
77.644999999999996
20
-51.4949999999999974
11
77.644999999999996
21
-48.5549999999999997
0
LINE
8
LYELLOW
6
CONTINUOUS
10
94.879959999999997
20
-44.9099999999999966
11
96.6799599999999941
21
-44.9099999999999966
0
LINE
8
LYELLOW
6
CONTINUOUS
10
95.7799600000000027
20
-44.009999999999998
11
95.7799600000000027
21
-45.8099999999999952
0
LINE
8
LYELLOW
6
CONTINUOUS
10
104.6393999999999949
20
-40.9450000000000003
11
104.6393999999999949
21
-59.1049999999999969
0
LINE
8
LYELLOW
6
CONTINUOUS
10
104.6794000000000011
20
-40.9450000000000003
11
104.6794000000000011
21
-59.1049999999999969
0
LINE
8
LYELLOW
6
CONTINUOUS
10
104.7193999999999932
20
-40.9450000000000003
11
104.7193999999999932
21
-59.1049999999999969
0
LINE
8
LYELLOW
6
CONTINUOUS
10
104.7593999999999994
20
-40.945999999999998
11
104.7593999999999994
21
-59.1039999999999992
0
LINE
8
LYELLOW
6
CONTINUOUS
10
104.7993999999999915
20
-40.945999999999998
11
104.7993999999999915
21
-59.1039999999999992
0
LINE
8
LYELLOW
6
CONTINUOUS
10
104.8393999999999977
20
-40.9469999999999956
11
104.8393999999999977
21
-59.1029999999999944
0
LINE
8
LYELLOW
6
CONTINUOUS
10
104.8793999999999897
20
-40.9480000000000004
11
104.8793999999999897
21
-59.1019999999999968
0
LINE
8
LYELLOW
6
CONTINUOUS
10
104.919399999999996
20
-40.9489999999999981
11
104.919399999999996
21
-59.1009999999999991
0
LINE
8
LYELLOW
6
CONTINUOUS
10
104.9594000000000023
20
-40.9510000000000005
11
104.9594000000000023
21
-59.0989999999999966
0
LINE
8
LYELLOW
6
CONTINUOUS
10
104.9993999999999943
20
-40.9519999999999982
11
104.9993999999999943
21
-59.097999999999999
0
LINE
8
LYELLOW
6
CONTINUOUS
10
105.0394000000000005
20
-40.9540000000000006
11
105.0394000000000005
21
-59.0959999999999965
0
LINE
8
LYELLOW
6
CONTINUOUS
10
105.0793999999999926
20
-40.955999999999996
11
105.0793999999999926
21
-59.0939999999999941
0
LINE
8
LYELLOW
6
CONTINUOUS
10
105.1193999999999988
20
-40.9579999999999984
11
105.1193999999999988
21
-59.0919999999999987
0
LINE
8
LYELLOW
6
CONTINUOUS
10
105.1593999999999909
20
-40.9600000000000009
11
105.1593999999999909
21
-59.0899999999999963
0
LINE
8
LYELLOW
6
CONTINUOUS
10
105.1993999999999971
20
-40.9619999999999962
11
105.1993999999999971
21
-59.0879999999999939
0
LINE
8
LYELLOW
6
CONTINUOUS
10
105.2393999999999892
20
-40.9649999999999963
11
105.2393999999999892
21
-59.0850000000000009
0
LINE
8
LYELLOW
6
CONTINUOUS
10
105.2793999999999954
20
-40.9669999999999987
11
105.2793999999999954
21
-59.0829999999999984
0
LINE
8
LYELLOW
6
CONTINUOUS
10
105.3194000000000017
20
-40.9699999999999989
11
105.3194000000000017
21
-59.0799999999999983
0
LINE
8
LYELLOW
6
CONTINUOUS
10
105.3593999999999937
20
-40.972999999999999
11
105.3593999999999937
21
-59.0769999999999982
0
LINE
8
LYELLOW
6
CONTINUOUS
10
105.3994
20
-40.9769999999999968
11
105.3994
21
-59.0730000000000004
0
LINE
8
LYELLOW
6
CONTINUOUS
10
105.439399999999992
20
-40.9799999999999969
11
105.439399999999992
21
-59.0700000000000003
0
LINE
8
LYELLOW
6
CONTINUOUS
10
105.4793999999999983
20
-40.9839999999999947
11
105.4793999999999983
21
-59.0659999999999954
0
LINE
8
LYELLOW
6
CONTINUOUS
10
105.5193999999999903
20
-40.9879999999999995
11
105.5193999999999903
21
-59.0619999999999976
0
LINE
8
LYELLOW
6
CONTINUOUS
10
105.5593999999999966
20
-40.9919999999999973
11
105.5593999999999966
21
-59.0579999999999998
0
LINE
8
LYELLOW
6
CONTINUOUS
10
105.5993999999999886
20
-40.9959999999999951
11
105.5993999999999886
21
-59.0539999999999949
0
LINE
8
LYELLOW
6
CONTINUOUS
10
105.6393999999999949
20
-41.
11
105.6393999999999949
21
-59.0499999999999972
0
LINE
8
LYELLOW
6
CONTINUOUS
10
105.6794000000000011
20
-41.0039999999999978
11
105.6794000000000011
21
-59.0459999999999994
0
LINE
8
LYELLOW
6
CONTINUOUS
10
105.7193999999999932
20
-41.0090000000000003
11
105.7193999999999932
21
-59.0409999999999968
0
LINE
8
LYELLOW
6
CONTINUOUS
10
105.7593999999999994
20
-41.0139999999999958
11
105.7593999999999994
21
-59.0359999999999943
0
LINE
8
LYELLOW
6
CONTINUOUS
10
105.7993999999999915
20
-41.0189999999999984
11
105.7993999999999915
21
-59.0309999999999988
0
LINE
8
LYELLOW
6
CONTINUOUS
10
105.8393999999999977
20
-41.0240000000000009
11
105.8393999999999977
21
-59.0259999999999962
0
LINE
8
LYELLOW
6
CONTINUOUS
10
105.8793999999999897
20
-41.0300000000000011
11
105.8793999999999897
21
-59.019999999999996
0
LINE
8
LYELLOW
6
CONTINUOUS
10
105.919399999999996
20
-41.0349999999999966
11
105.919399999999996
21
-59.0150000000000006
0
LINE
8
LYELLOW
6
CONTINUOUS
10
105.9594000000000023
20
-41.0409999999999968
11
105.9594000000000023
21
-59.0090000000000003
0
LINE
8
LYELLOW
6
CONTINUOUS
10
105.9993999999999943
20
-41.046999999999997
11
105.9993999999999943
21
-59.0030000000000001
0
LINE
8
LYELLOW
6
CONTINUOUS
10
106.0394000000000005
20
-41.0529999999999973
11
106.0394000000000005
21
-58.9969999999999999
0
LINE
8
LYELLOW
6
CONTINUOUS
10
106.0793999999999926
20
-41.0589999999999975
11
106.0793999999999926
21
-58.9909999999999997
0
LINE
8
LYELLOW
6
CONTINUOUS
10
106.1193999999999988
20
-41.0659999999999954
11
106.1193999999999988
21
-58.9839999999999947
0
LINE
8
LYELLOW
6
CONTINUOUS
10
106.1593999999999909
20
-41.0730000000000004
11
106.1593999999999909
21
-58.9769999999999968
0
LINE
8
LYELLOW
6
CONTINUOUS
10
106.1993999999999971
20
-41.0790000000000006
11
106.1993999999999971
21
-58.9709999999999965
0
LINE
8
LYELLOW
6
CONTINUOUS
10
106.2393999999999892
20
-41.0859999999999985
11
106.2393999999999892
21
-58.9639999999999986
0
LINE
8
LYELLOW
6
CONTINUOUS
10
106.2793999999999954
20
-41.0940000000000012
11
106.2793999999999954
21
-58.955999999999996
0
LINE
8
LYELLOW
6
CONTINUOUS
10
106.3194000000000017
20
-41.1009999999999991
11
106.3194000000000017
21
-58.9489999999999981
0
LINE
8
LYELLOW
6
CONTINUOUS
10
106.3593999999999937
20
-41.1089999999999947
11
106.3593999999999937
21
-58.9409999999999954
0
LINE
8
LYELLOW
6
CONTINUOUS
10
106.3994
20
-41.1159999999999997
11
106.3994
21
-58.9339999999999975
0
LINE
8
LYELLOW
6
CONTINUOUS
10
106.439399999999992
20
-41.1239999999999952
11
106.439399999999992
21
-58.9259999999999948
0
LINE
8
LYELLOW
6
CONTINUOUS
10
106.4793999999999983
20
-41.1329999999999956
11
106.4793999999999983
21
-58.9169999999999945
0
LINE
8
LYELLOW
6
CONTINUOUS
10
106.5193999999999903
20
-41.1409999999999982
11
106.5193999999999903
21
-58.9089999999999989
0
LINE
8
LYELLOW
6
CONTINUOUS
10
106.5593999999999966
20
-41.1490000000000009
11
106.5593999999999966
21
-58.9009999999999962
0
LINE
8
LYELLOW
6
CONTINUOUS
10
106.5993999999999886
20
-41.1580000000000013
11
106.5993999999999886
21
-58.8919999999999959
0
LINE
8
LYELLOW
6
CONTINUOUS
10
106.6393999999999949
20
-41.1670000000000016
11
106.6393999999999949
21
-58.8829999999999956
0
LINE
8
LYELLOW
6
CONTINUOUS
10
106.6794000000000011
20
-41.1759999999999948
11
106.6794000000000011
21
-58.8739999999999952
0
LINE
8
LYELLOW
6
CONTINUOUS
10
106.7193999999999932
20
-41.1849999999999952
11
106.7193999999999932
21
-58.8649999999999949
0
LINE
8
LYELLOW
6
CONTINUOUS
10
106.7593999999999994
20
-41.1950000000000003
11
106.7593999999999994
21
-58.8549999999999969
0
LINE
8
LYELLOW
6
CONTINUOUS
10
106.7993999999999915
20
-41.2040000000000006
11
106.7993999999999915
21
-58.8459999999999965
0
LINE
8
LYELLOW
6
CONTINUOUS
10
106.8393999999999977
20
-41.2139999999999986
11
106.8393999999999977
21
-58.8359999999999985
0
LINE
8
LYELLOW
6
CONTINUOUS
10
106.8793999999999897
20
-41.2239999999999966
11
106.8793999999999897
21
-58.8260000000000005
0
LINE
8
LYELLOW
6
CONTINUOUS
10
106.919399999999996
20
-41.2349999999999994
11
106.919399999999996
21
-58.8149999999999977
0
LINE
8
LYELLOW
6
CONTINUOUS
10
106.9594000000000023
20
-41.2449999999999974
11
106.9594000000000023
21
-48.5850000000000009
0
LINE
8
LYELLOW
6
CONTINUOUS
10
106.9594000000000023
20
-51.4649999999999963
11
106.9594000000000023
21
-58.8049999999999997
0
LINE
8
LYELLOW
6
CONTINUOUS
10
106.9993999999999943
20
-41.2560000000000002
11
106.9993999999999943
21
-48.5850000000000009
0
LINE
8
LYELLOW
6
CONTINUOUS
10
106.9993999999999943
20
-51.4649999999999963
11
106.9993999999999943
21
-58.7939999999999969
0
LINE
8
LYELLOW
6
CONTINUOUS
10
107.0394000000000005
20
-41.2659999999999982
11
107.0394000000000005
21
-48.5850000000000009
0
LINE
8
LYELLOW
6
CONTINUOUS
10
107.0394000000000005
20
-51.4649999999999963
11
107.0394000000000005
21
-58.7839999999999989
0
LINE
8
LYELLOW
6
CONTINUOUS
10
107.0793999999999926
20
-41.277000000000001
11
107.0793999999999926
21
-48.5850000000000009
0
LINE
8
LYELLOW
6
CONTINUOUS
10
107.0793999999999926
20
-51.4649999999999963
11
107.0793999999999926
21
-58.7729999999999961
0
LINE
8
LYELLOW
6
CONTINUOUS
10
107.1193999999999988
20
-41.2890000000000015
11
107.1193999999999988
21
-48.5850000000000009
0
LINE
8
LYELLOW
6
CONTINUOUS
10
107.1193999999999988
20
-51.4649999999999963
11
107.1193999999999988
21
-58.7609999999999957
0
LINE
8
LYELLOW
6
CONTINUOUS
10
107.1593999999999909
20
-41.2999999999999972
11
107.1593999999999909
21
-48.5850000000000009
0
LINE
8
LYELLOW
6
CONTINUOUS
10
107.1593999999999909
20
-51.4649999999999963
11
107.1593999999999909
21
-58.75
0
LINE
8
LYELLOW
6
CONTINUOUS
10
107.1993999999999971
20
-41.3119999999999976
11
107.1993999999999971
21
-48.5850000000000009
0
LINE
8
LYELLOW
6
CONTINUOUS
10
107.1993999999999971
20
-51.4649999999999963
11
107.1993999999999971
21
-58.7379999999999995
0
LINE
8
LYELLOW
6
CONTINUOUS
10
107.2393999999999892
20
-41.3230000000000004
11
107.2393999999999892
21
-48.5850000000000009
0
LINE
8
LYELLOW
6
CONTINUOUS
10
107.2393999999999892
20
-51.4649999999999963
11
107.2393999999999892
21
-58.7269999999999968
0
LINE
8
LYELLOW
6
CONTINUOUS
10
107.2793999999999954
20
-41.3350000000000009
11
107.2793999999999954
21
-48.5850000000000009
0
LINE
8
LYELLOW
6
CONTINUOUS
10
107.2793999999999954
20
-51.4649999999999963
11
107.2793999999999954
21
-58.7149999999999963
0
LINE
8
LYELLOW
6
CONTINUOUS
10
107.3194000000000017
20
-41.347999999999999
11
107.3194000000000017
21
-48.5850000000000009
0
LINE
8
LYELLOW
6
CONTINUOUS
10
107.3194000000000017
20
-51.4649999999999963
11
107.3194000000000017
21
-58.7019999999999982
0
LINE
8
LYELLOW
6
CONTINUOUS
10
107.3593999999999937
20
-41.3599999999999994
11
107.3593999999999937
21
-48.5850000000000009
0
LINE
8
LYELLOW
6
CONTINUOUS
10
107.3593999999999937
20
-51.4649999999999963
11
107.3593999999999937
21
-58.6899999999999977
0
LINE
8
LYELLOW
6
CONTINUOUS
10
107.3994
20
-41.3729999999999976
11
107.3994
21
-48.5850000000000009
0
LINE
8
LYELLOW
6
CONTINUOUS
10
107.3994
20
-51.4649999999999963
11
107.3994
21
-58.6769999999999996
0
LINE
8
LYELLOW
6
CONTINUOUS
10
107.439399999999992
20
-41.384999999999998
11
107.439399999999992
21
-48.5850000000000009
0
LINE
8
LYELLOW
6
CONTINUOUS
10
107.439399999999992
20
-51.4649999999999963
11
107.439399999999992
21
-58.6649999999999991
0
LINE
8
LYELLOW
6
CONTINUOUS
10
107.4793999999999983
20
-41.3979999999999961
11
107.4793999999999983
21
-48.5850000000000009
0
LINE
8
LYELLOW
6
CONTINUOUS
10
107.4793999999999983
20
-51.4649999999999963
11
107.4793999999999983
21
-58.6519999999999939
0
LINE
8
LYELLOW
6
CONTINUOUS
10
107.5193999999999903
20
-41.411999999999999
11
107.5193999999999903
21
-48.5850000000000009
0
LINE
8
LYELLOW
6
CONTINUOUS
10
107.5193999999999903
20
-51.4649999999999963
11
107.5193999999999903
21
-58.6379999999999981
0
LINE
8
LYELLOW
6
CONTINUOUS
10
107.5593999999999966
20
-41.4249999999999972
11
107.5593999999999966
21
-48.5850000000000009
0
LINE
8
LYELLOW
6
CONTINUOUS
10
107.5593999999999966
20
-51.4649999999999963
11
107.5593999999999966
21
-58.625
0
LINE
8
LYELLOW
6
CONTINUOUS
10
107.5993999999999886
20
-41.4390000000000001
11
107.5993999999999886
21
-48.5850000000000009
0
LINE
8
LYELLOW
6
CONTINUOUS
10
107.5993999999999886
20
-51.4649999999999963
11
107.5993999999999886
21
-58.6109999999999971
0
LINE
8
LYELLOW
6
CONTINUOUS
10
107.6393999999999949
20
-41.4529999999999959
11
107.6393999999999949
21
-48.5850000000000009
0
LINE
8
LYELLOW
6
CONTINUOUS
10
107.6393999999999949
20
-51.4649999999999963
11
107.6393999999999949
21
-58.5969999999999942
0
LINE
8
LYELLOW
6
CONTINUOUS
10
107.6794000000000011
20
-41.4669999999999987
11
107.6794000000000011
21
-48.5850000000000009
0
LINE
8
LYELLOW
6
CONTINUOUS
10
107.6794000000000011
20
-51.4649999999999963
11
107.6794000000000011
21
-58.5829999999999984
0
LINE
8
LYELLOW
6
CONTINUOUS
10
107.7193999999999932
20
-41.4810000000000016
11
107.7193999999999932
21
-48.5850000000000009
0
LINE
8
LYELLOW
6
CONTINUOUS
10
107.7193999999999932
20
-51.4649999999999963
11
107.7193999999999932
21
-58.5689999999999955
0
LINE
8
LYELLOW
6
CONTINUOUS
10
107.7593999999999994
20
-41.4949999999999974
11
107.7593999999999994
21
-48.5850000000000009
0
LINE
8
LYELLOW
6
CONTINUOUS
10
107.7593999999999994
20
-51.4649999999999963
11
107.7593999999999994
21
-58.5549999999999997
0
LINE
8
LYELLOW
6
CONTINUOUS
10
107.7993999999999915
20
-41.509999999999998
11
107.7993999999999915
21
-48.5850000000000009
0
LINE
8
LYELLOW
6
CONTINUOUS
10
107.7993999999999915
20
-51.4649999999999963
11
107.7993999999999915
21
-58.5399999999999991
0
LINE
8
LYELLOW
6
CONTINUOUS
10
107.8393999999999977
20
-41.5249999999999986
11
107.8393999999999977
21
-48.5850000000000009
0
LINE
8
LYELLOW
6
CONTINUOUS
10
107.8393999999999977
20
-51.4649999999999963
11
107.8393999999999977
21
-58.5249999999999986
0
LINE
8
LYELLOW
6
CONTINUOUS
10
107.8793999999999897
20
-41.5399999999999991
11
107.8793999999999897
21
-48.5850000000000009
0
LINE
8
LYELLOW
6
CONTINUOUS
10
107.8793999999999897
20
-51.4649999999999963
11
107.8793999999999897
21
-58.509999999999998
0
LINE
8
LYELLOW
6
CONTINUOUS
10
107.919399999999996
20
-41.5549999999999997
11
107.919399999999996
21
-48.5850000000000009
0
LINE
8
LYELLOW
6
CONTINUOUS
10
107.919399999999996
20
-51.4649999999999963
11
107.919399999999996
21
-58.4949999999999974
0
LINE
8
LYELLOW
6
CONTINUOUS
10
107.959399999999988
20
-41.570999999999998
11
107.959399999999988
21
-48.5850000000000009
0
LINE
8
LYELLOW
6
CONTINUOUS
10
107.959399999999988
20
-51.4649999999999963
11
107.959399999999988
21
-58.4789999999999992
0
LINE
8
LYELLOW
6
CONTINUOUS
10
107.9993999999999943
20
-41.5869999999999962
11
107.9993999999999943
21
-48.5850000000000009
0
LINE
8
LYELLOW
6
CONTINUOUS
10
107.9993999999999943
20
-51.4649999999999963
11
107.9993999999999943
21
-58.4629999999999939
0
LINE
8
LYELLOW
6
CONTINUOUS
10
108.0394000000000005
20
-41.6019999999999968
11
108.0394000000000005
21
-48.5850000000000009
0
LINE
8
LYELLOW
6
CONTINUOUS
10
108.0394000000000005
20
-51.4649999999999963
11
108.0394000000000005
21
-58.4480000000000004
0
LINE
8
LYELLOW
6
CONTINUOUS
10
108.0793999999999926
20
-41.6189999999999998
11
108.0793999999999926
21
-48.5850000000000009
0
LINE
8
LYELLOW
6
CONTINUOUS
10
108.0793999999999926
20
-51.4649999999999963
11
108.0793999999999926
21
-58.4309999999999974
0
LINE
8
LYELLOW
6
CONTINUOUS
10
108.1193999999999988
20
-41.634999999999998
11
108.1193999999999988
21
-48.5850000000000009
0
LINE
8
LYELLOW
6
CONTINUOUS
10
108.1193999999999988
20
-51.4649999999999963
11
108.1193999999999988
21
-58.4149999999999991
0
LINE
8
LYELLOW
6
CONTINUOUS
10
108.1593999999999909
20
-41.652000000000001
11
108.1593999999999909
21
-48.5850000000000009
0
LINE
8
LYELLOW
6
CONTINUOUS
10
108.1593999999999909
20
-51.4649999999999963
11
108.1593999999999909
21
-58.3979999999999961
0
LINE
8
LYELLOW
6
CONTINUOUS
10
108.1993999999999971
20
-41.6689999999999969
11
108.1993999999999971
21
-48.5850000000000009
0
LINE
8
LYELLOW
6
CONTINUOUS
10
108.1993999999999971
20
-51.4649999999999963
11
108.1993999999999971
21
-58.3810000000000002
0
LINE
8
LYELLOW
6
CONTINUOUS
10
108.2393999999999892
20
-41.6859999999999999
11
108.2393999999999892
21
-48.5850000000000009
0
LINE
8
LYELLOW
6
CONTINUOUS
10
108.2393999999999892
20
-51.4649999999999963
11
108.2393999999999892
21
-58.3639999999999972
0
LINE
8
LYELLOW
6
CONTINUOUS
10
108.2793999999999954
20
-41.7029999999999959
11
108.2793999999999954
21
-48.5850000000000009
0
LINE
8
LYELLOW
6
CONTINUOUS
10
108.2793999999999954
20
-51.4649999999999963
11
108.2793999999999954
21
-58.3469999999999942
0
LINE
8
LYELLOW
6
CONTINUOUS
10
108.3194000000000017
20
-41.7199999999999989
11
108.3194000000000017
21
-48.5850000000000009
0
LINE
8
LYELLOW
6
CONTINUOUS
10
108.3194000000000017
20
-51.4649999999999963
11
108.3194000000000017
21
-58.3299999999999983
0
LINE
8
LYELLOW
6
CONTINUOUS
10
108.3593999999999937
20
-41.7379999999999995
11
108.3593999999999937
21
-48.5850000000000009
0
LINE
8
LYELLOW
6
CONTINUOUS
10
108.3593999999999937
20
-51.4649999999999963
11
108.3593999999999937
21
-58.3119999999999976
0
LINE
8
LYELLOW
6
CONTINUOUS
10
108.3994
20
-41.7560000000000002
11
108.3994
21
-48.5850000000000009
0
LINE
8
LYELLOW
6
CONTINUOUS
10
108.3994
20
-51.4649999999999963
11
108.3994
21
-58.2939999999999969
0
LINE
8
LYELLOW
6
CONTINUOUS
10
108.439399999999992
20
-41.7740000000000009
11
108.439399999999992
21
-48.5850000000000009
0
LINE
8
LYELLOW
6
CONTINUOUS
10
108.439399999999992
20
-51.4649999999999963
11
108.439399999999992
21
-58.2759999999999962
0
LINE
8
LYELLOW
6
CONTINUOUS
10
108.4793999999999983
20
-41.7929999999999993
11
108.4793999999999983
21
-48.5850000000000009
0
LINE
8
LYELLOW
6
CONTINUOUS
10
108.4793999999999983
20
-51.4649999999999963
11
108.4793999999999983
21
-58.2569999999999979
0
LINE
8
LYELLOW
6
CONTINUOUS
10
108.5193999999999903
20
-41.8119999999999976
11
108.5193999999999903
21
-48.5850000000000009
0
LINE
8
LYELLOW
6
CONTINUOUS
10
108.5193999999999903
20
-51.4649999999999963
11
108.5193999999999903
21
-58.2379999999999995
0
LINE
8
LYELLOW
6
CONTINUOUS
10
108.5593999999999966
20
-41.8299999999999983
11
108.5593999999999966
21
-48.5850000000000009
0
LINE
8
LYELLOW
6
CONTINUOUS
10
108.5593999999999966
20
-51.4649999999999963
11
108.5593999999999966
21
-58.2199999999999989
0
LINE
8
LYELLOW
6
CONTINUOUS
10
108.5993999999999886
20
-41.8500000000000014
11
108.5993999999999886
21
-48.5850000000000009
0
LINE
8
LYELLOW
6
CONTINUOUS
10
108.5993999999999886
20
-51.4649999999999963
11
108.5993999999999886
21
-58.1999999999999957
0
LINE
8
LYELLOW
6
CONTINUOUS
10
108.6393999999999949
20
-41.8689999999999998
11
108.6393999999999949
21
-48.5850000000000009
0
LINE
8
LYELLOW
6
CONTINUOUS
10
108.6393999999999949
20
-51.4649999999999963
11
108.6393999999999949
21
-58.1809999999999974
0
LINE
8
LYELLOW
6
CONTINUOUS
10
108.6794000000000011
20
-41.8889999999999958
11
108.6794000000000011
21
-48.5850000000000009
0
LINE
8
LYELLOW
6
CONTINUOUS
10
108.6794000000000011
20
-51.4649999999999963
11
108.6794000000000011
21
-58.1609999999999943
0
LINE
8
LYELLOW
6
CONTINUOUS
10
108.7193999999999932
20
-41.9089999999999989
11
108.7193999999999932
21
-48.5850000000000009
0
LINE
8
LYELLOW
6
CONTINUOUS
10
108.7193999999999932
20
-51.4649999999999963
11
108.7193999999999932
21
-58.1409999999999982
0
LINE
8
LYELLOW
6
CONTINUOUS
10
108.7593999999999994
20
-41.9289999999999949
11
108.7593999999999994
21
-48.5850000000000009
0
LINE
8
LYELLOW
6
CONTINUOUS
10
108.7593999999999994
20
-51.4649999999999963
11
108.7593999999999994
21
-58.1209999999999951
0
LINE
8
LYELLOW
6
CONTINUOUS
10
108.7993999999999915
20
-41.9489999999999981
11
108.7993999999999915
21
-48.5850000000000009
0
LINE
8
LYELLOW
6
CONTINUOUS
10
108.7993999999999915
20
-51.4649999999999963
11
108.7993999999999915
21
-58.1009999999999991
0
LINE
8
LYELLOW
6
CONTINUOUS
10
108.8393999999999977
20
-41.9699999999999989
11
108.8393999999999977
21
-48.5850000000000009
0
LINE
8
LYELLOW
6
CONTINUOUS
10
108.8393999999999977
20
-51.4649999999999963
11
108.8393999999999977
21
-58.0799999999999983
0
LINE
8
LYELLOW
6
CONTINUOUS
10
108.8793999999999897
20
-41.9909999999999997
11
108.8793999999999897
21
-48.5850000000000009
0
LINE
8
LYELLOW
6
CONTINUOUS
10
108.8793999999999897
20
-51.4649999999999963
11
108.8793999999999897
21
-58.0589999999999975
0
LINE
8
LYELLOW
6
CONTINUOUS
10
108.919399999999996
20
-42.0120000000000005
11
108.919399999999996
21
-48.5850000000000009
0
LINE
8
LYELLOW
6
CONTINUOUS
10
108.919399999999996
20
-51.4649999999999963
11
108.919399999999996
21
-58.0379999999999967
0
LINE
8
LYELLOW
6
CONTINUOUS
10
108.959399999999988
20
-42.0330000000000013
11
108.959399999999988
21
-48.5850000000000009
0
LINE
8
LYELLOW
6
CONTINUOUS
10
108.959399999999988
20
-51.4649999999999963
11
108.959399999999988
21
-58.0169999999999959
0
LINE
8
LYELLOW
6
CONTINUOUS
10
108.9993999999999943
20
-42.0549999999999997
11
108.9993999999999943
21
-48.5850000000000009
0
LINE
8
LYELLOW
6
CONTINUOUS
10
108.9993999999999943
20
-51.4649999999999963
11
108.9993999999999943
21
-57.9949999999999974
0
LINE
8
LYELLOW
6
CONTINUOUS
10
109.0394000000000005
20
-42.0769999999999982
11
109.0394000000000005
21
-48.5850000000000009
0
LINE
8
LYELLOW
6
CONTINUOUS
10
109.0394000000000005
20
-51.4649999999999963
11
109.0394000000000005
21
-57.972999999999999
0
LINE
8
LYELLOW
6
CONTINUOUS
10
109.0793999999999926
20
-42.0989999999999966
11
109.0793999999999926
21
-48.5850000000000009
0
LINE
8
LYELLOW
6
CONTINUOUS
10
109.0793999999999926
20
-51.4649999999999963
11
109.0793999999999926
21
-57.9510000000000005
0
LINE
8
LYELLOW
6
CONTINUOUS
10
109.1193999999999988
20
-42.1209999999999951
11
109.1193999999999988
21
-48.5850000000000009
0
LINE
8
LYELLOW
6
CONTINUOUS
10
109.1193999999999988
20
-51.4649999999999963
11
109.1193999999999988
21
-57.9289999999999949
0
LINE
8
LYELLOW
6
CONTINUOUS
10
109.1593999999999909
20
-42.1439999999999984
11
109.1593999999999909
21
-48.5850000000000009
0
LINE
8
LYELLOW
6
CONTINUOUS
10
109.1593999999999909
20
-51.4649999999999963
11
109.1593999999999909
21
-57.9059999999999988
0
LINE
8
LYELLOW
6
CONTINUOUS
10
109.1993999999999971
20
-42.1670000000000016
11
109.1993999999999971
21
-48.5850000000000009
0
LINE
8
LYELLOW
6
CONTINUOUS
10
109.1993999999999971
20
-51.4649999999999963
11
109.1993999999999971
21
-57.8829999999999956
0
LINE
8
LYELLOW
6
CONTINUOUS
10
109.2393999999999892
20
-42.1899999999999977
11
109.2393999999999892
21
-48.5850000000000009
0
LINE
8
LYELLOW
6
CONTINUOUS
10
109.2393999999999892
20
-51.4649999999999963
11
109.2393999999999892
21
-57.8599999999999994
0
LINE
8
LYELLOW
6
CONTINUOUS
10
109.2793999999999954
20
-42.2139999999999986
11
109.2793999999999954
21
-48.5850000000000009
0
LINE
8
LYELLOW
6
CONTINUOUS
10
109.2793999999999954
20
-51.4649999999999963
11
109.2793999999999954
21
-57.8359999999999985
0
LINE
8
LYELLOW
6
CONTINUOUS
10
109.3194000000000017
20
-42.2369999999999948
11
109.3194000000000017
21
-48.5850000000000009
0
LINE
8
LYELLOW
6
CONTINUOUS
10
109.3194000000000017
20
-51.4649999999999963
11
109.3194000000000017
21
-57.8129999999999953
0
LINE
8
LYELLOW
6
CONTINUOUS
10
109.3593999999999937
20
-42.2609999999999957
11
109.3593999999999937
21
-48.5850000000000009
0
LINE
8
LYELLOW
6
CONTINUOUS
10
109.3593999999999937
20
-51.4649999999999963
11
109.3593999999999937
21
-57.7889999999999944
0
LINE
8
LYELLOW
6
CONTINUOUS
10
109.3994
20
-42.2860000000000014
11
109.3994
21
-48.5850000000000009
0
LINE
8
LYELLOW
6
CONTINUOUS
10
109.3994
20
-51.4649999999999963
11
109.3994
21
-57.7639999999999958
0
LINE
8
LYELLOW
6
CONTINUOUS
10
109.439399999999992
20
-42.3099999999999952
11
109.439399999999992
21
-48.5850000000000009
0
LINE
8
LYELLOW
6
CONTINUOUS
10
109.439399999999992
20
-51.4649999999999963
11
109.439399999999992
21
-57.7399999999999949
0
LINE
8
LYELLOW
6
CONTINUOUS
10
109.4793999999999983
20
-42.3350000000000009
11
109.4793999999999983
21
-48.5850000000000009
0
LINE
8
LYELLOW
6
CONTINUOUS
10
109.4793999999999983
20
-51.4649999999999963
11
109.4793999999999983
21
-57.7149999999999963
0
LINE
8
LYELLOW
6
CONTINUOUS
10
109.5193999999999903
20
-42.3599999999999994
11
109.5193999999999903
21
-48.5850000000000009
0
LINE
8
LYELLOW
6
CONTINUOUS
10
109.5193999999999903
20
-51.4649999999999963
11
109.5193999999999903
21
-57.6899999999999977
0
LINE
8
LYELLOW
6
CONTINUOUS
10
109.5593999999999966
20
-42.3859999999999957
11
109.5593999999999966
21
-48.5850000000000009
0
LINE
8
LYELLOW
6
CONTINUOUS
10
109.5593999999999966
20
-51.4649999999999963
11
109.5593999999999966
21
-57.6639999999999944
0
LINE
8
LYELLOW
6
CONTINUOUS
10
109.5993999999999886
20
-42.411999999999999
11
109.5993999999999886
21
-48.5850000000000009
0
LINE
8
LYELLOW
6
CONTINUOUS
10
109.5993999999999886
20
-51.4649999999999963
11
109.5993999999999886
21
-57.6379999999999981
0
LINE
8
LYELLOW
6
CONTINUOUS
10
109.6393999999999949
20
-42.4379999999999953
11
109.6393999999999949
21
-48.5850000000000009
0
LINE
8
LYELLOW
6
CONTINUOUS
10
109.6393999999999949
20
-51.4649999999999963
11
109.6393999999999949
21
-57.6119999999999948
0
LINE
8
LYELLOW
6
CONTINUOUS
10
109.6794000000000011
20
-42.4639999999999986
11
109.6794000000000011
21
-48.5850000000000009
0
LINE
8
LYELLOW
6
CONTINUOUS
10
109.6794000000000011
20
-51.4649999999999963
11
109.6794000000000011
21
-57.5859999999999985
0
LINE
8
LYELLOW
6
CONTINUOUS
10
109.7193999999999932
20
-42.4909999999999997
11
109.7193999999999932
21
-48.5850000000000009
0
LINE
8
LYELLOW
6
CONTINUOUS
10
109.7193999999999932
20
-51.4649999999999963
11
109.7193999999999932
21
-57.5589999999999975
0
LINE
8
LYELLOW
6
CONTINUOUS
10
109.7593999999999994
20
-42.5180000000000007
11
109.7593999999999994
21
-48.5850000000000009
0
LINE
8
LYELLOW
6
CONTINUOUS
10
109.7593999999999994
20
-51.4649999999999963
11
109.7593999999999994
21
-57.5319999999999965
0
LINE
8
LYELLOW
6
CONTINUOUS
10
109.7993999999999915
20
-42.5449999999999946
11
109.7993999999999915
21
-48.5850000000000009
0
LINE
8
LYELLOW
6
CONTINUOUS
10
109.7993999999999915
20
-51.4649999999999963
11
109.7993999999999915
21
-57.5049999999999955
0
LINE
8
LYELLOW
6
CONTINUOUS
10
109.8393999999999977
20
-42.5730000000000004
11
109.8393999999999977
21
-57.4769999999999968
0
LINE
8
LYELLOW
6
CONTINUOUS
10
109.8793999999999897
20
-42.6009999999999991
11
109.8793999999999897
21
-57.4489999999999981
0
LINE
8
LYELLOW
6
CONTINUOUS
10
109.919399999999996
20
-42.6289999999999978
11
109.919399999999996
21
-57.4209999999999994
0
LINE
8
LYELLOW
6
CONTINUOUS
10
109.959399999999988
20
-42.6569999999999965
11
109.959399999999988
21
-57.3930000000000007
0
LINE
8
LYELLOW
6
CONTINUOUS
10
109.9993999999999943
20
-42.6859999999999999
11
109.9993999999999943
21
-57.3639999999999972
0
LINE
8
LYELLOW
6
CONTINUOUS
10
110.0394000000000005
20
-42.7160000000000011
11
110.0394000000000005
21
-57.3339999999999961
0
LINE
8
LYELLOW
6
CONTINUOUS
10
110.0793999999999926
20
-42.7449999999999974
11
110.0793999999999926
21
-57.3049999999999997
0
LINE
8
LYELLOW
6
CONTINUOUS
10
110.1193999999999988
20
-42.7749999999999986
11
110.1193999999999988
21
-57.2749999999999986
0
LINE
8
LYELLOW
6
CONTINUOUS
10
110.1593999999999909
20
-42.8049999999999997
11
110.1593999999999909
21
-57.2449999999999974
0
LINE
8
LYELLOW
6
CONTINUOUS
10
110.1993999999999971
20
-42.8359999999999985
11
110.1993999999999971
21
-57.2139999999999986
0
LINE
8
LYELLOW
6
CONTINUOUS
10
110.2393999999999892
20
-42.8669999999999973
11
110.2393999999999892
21
-57.1829999999999998
0
LINE
8
LYELLOW
6
CONTINUOUS
10
110.2793999999999954
20
-42.8979999999999961
11
110.2793999999999954
21
-57.1519999999999939
0
LINE
8
LYELLOW
6
CONTINUOUS
10
110.3194000000000017
20
-42.9299999999999997
11
110.3194000000000017
21
-57.1199999999999974
0
LINE
8
LYELLOW
6
CONTINUOUS
10
110.3593999999999937
20
-42.9619999999999962
11
110.3593999999999937
21
-57.088000000000001
0
LINE
8
LYELLOW
6
CONTINUOUS
10
110.3994
20
-42.9939999999999998
11
110.3994
21
-57.0559999999999974
0
LINE
8
LYELLOW
6
CONTINUOUS
10
110.439399999999992
20
-43.027000000000001
11
110.439399999999992
21
-57.0229999999999961
0
LINE
8
LYELLOW
6
CONTINUOUS
10
110.4793999999999983
20
-43.0599999999999952
11
110.4793999999999983
21
-56.9899999999999949
0
LINE
8
LYELLOW
6
CONTINUOUS
10
110.5193999999999903
20
-43.0940000000000012
11
110.5193999999999903
21
-56.955999999999996
0
LINE
8
LYELLOW
6
CONTINUOUS
10
110.5593999999999966
20
-43.1280000000000001
11
110.5593999999999966
21
-56.921999999999997
0
LINE
8
LYELLOW
6
CONTINUOUS
10
110.5993999999999886
20
-43.161999999999999
11
110.5993999999999886
21
-56.8879999999999981
0
LINE
8
LYELLOW
6
CONTINUOUS
10
110.6393999999999949
20
-43.1969999999999956
11
110.6393999999999949
21
-56.8529999999999944
0
LINE
8
LYELLOW
6
CONTINUOUS
10
110.6794000000000011
20
-43.2319999999999993
11
110.6794000000000011
21
-56.8179999999999978
0
LINE
8
LYELLOW
6
CONTINUOUS
10
110.7193999999999932
20
-43.2669999999999959
11
110.7193999999999932
21
-56.7829999999999941
0
LINE
8
LYELLOW
6
CONTINUOUS
10
110.7593999999999994
20
-43.3029999999999973
11
110.7593999999999994
21
-56.7469999999999999
0
LINE
8
LYELLOW
6
CONTINUOUS
10
110.7993999999999915
20
-43.3399999999999963
11
110.7993999999999915
21
-56.7100000000000009
0
LINE
8
LYELLOW
6
CONTINUOUS
10
110.8393999999999977
20
-43.3769999999999953
11
110.8393999999999977
21
-56.6729999999999947
0
LINE
8
LYELLOW
6
CONTINUOUS
10
110.8793999999999897
20
-43.4140000000000015
11
110.8793999999999897
21
-56.6359999999999957
0
LINE
8
LYELLOW
6
CONTINUOUS
10
110.919399999999996
20
-43.4519999999999982
11
110.919399999999996
21
-56.597999999999999
0
LINE
8
LYELLOW
6
CONTINUOUS
10
110.959399999999988
20
-43.4899999999999949
11
110.959399999999988
21
-56.5599999999999952
0
LINE
8
LYELLOW
6
CONTINUOUS
10
110.9993999999999943
20
-43.5289999999999964
11
110.9993999999999943
21
-56.5210000000000008
0
LINE
8
LYELLOW
6
CONTINUOUS
10
111.0394000000000005
20
-43.5679999999999978
11
111.0394000000000005
21
-56.4819999999999993
0
LINE
8
LYELLOW
6
CONTINUOUS
10
111.0793999999999926
20
-43.6069999999999993
11
111.0793999999999926
21
-56.4429999999999978
0
LINE
8
LYELLOW
6
CONTINUOUS
10
111.1193999999999988
20
-43.6479999999999961
11
111.1193999999999988
21
-56.4019999999999939
0
LINE
8
LYELLOW
6
CONTINUOUS
10
111.1593999999999909
20
-43.6879999999999953
11
111.1593999999999909
21
-56.3619999999999948
0
LINE
8
LYELLOW
6
CONTINUOUS
10
111.1993999999999971
20
-43.7289999999999992
11
111.1993999999999971
21
-56.320999999999998
0
LINE
8
LYELLOW
6
CONTINUOUS
10
111.2393999999999892
20
-43.7710000000000008
11
111.2393999999999892
21
-56.2789999999999964
0
LINE
8
LYELLOW
6
CONTINUOUS
10
111.2793999999999954
20
-43.8129999999999953
11
111.2793999999999954
21
-56.2369999999999948
0
LINE
8
LYELLOW
6
CONTINUOUS
10
111.3194000000000017
20
-43.8559999999999945
11
111.3194000000000017
21
-56.1939999999999955
0
LINE
8
LYELLOW
6
CONTINUOUS
10
111.3593999999999937
20
-43.8990000000000009
11
111.3593999999999937
21
-56.1509999999999962
0
LINE
8
LYELLOW
6
CONTINUOUS
10
111.3994
20
-43.9429999999999978
11
111.3994
21
-56.1069999999999993
0
LINE
8
LYELLOW
6
CONTINUOUS
10
111.439399999999992
20
-43.9879999999999995
11
111.439399999999992
21
-56.0619999999999976
0
LINE
8
LYELLOW
6
CONTINUOUS
10
111.4793999999999983
20
-44.0330000000000013
11
111.4793999999999983
21
-56.0169999999999959
0
LINE
8
LYELLOW
6
CONTINUOUS
10
111.5193999999999903
20
-44.0779999999999959
11
111.5193999999999903
21
-55.9719999999999942
0
LINE
8
LYELLOW
6
CONTINUOUS
10
111.5593999999999966
20
-44.125
11
111.5593999999999966
21
-55.9249999999999972
0
LINE
8
LYELLOW
6
CONTINUOUS
10
111.5993999999999886
20
-44.171999999999997
11
111.5993999999999886
21
-55.8780000000000001
0
LINE
8
LYELLOW
6
CONTINUOUS
10
111.6393999999999949
20
-44.2190000000000012
11
111.6393999999999949
21
-55.830999999999996
0
LINE
8
LYELLOW
6
CONTINUOUS
10
111.6794000000000011
20
-44.2669999999999959
11
111.6794000000000011
21
-55.7829999999999941
0
LINE
8
LYELLOW
6
CONTINUOUS
10
111.7193999999999932
20
-44.3159999999999954
11
111.7193999999999932
21
-55.7339999999999947
0
LINE
8
LYELLOW
6
CONTINUOUS
10
111.7593999999999994
20
-44.3659999999999997
11
111.7593999999999994
21
-55.6839999999999975
0
LINE
8
LYELLOW
6
CONTINUOUS
10
111.7993999999999915
20
-44.4159999999999968
11
111.7993999999999915
21
-55.6340000000000003
0
LINE
8
LYELLOW
6
CONTINUOUS
10
111.8393999999999977
20
-44.4669999999999987
11
111.8393999999999977
21
-55.5829999999999984
0
LINE
8
LYELLOW
6
CONTINUOUS
10
111.8793999999999897
20
-44.5189999999999984
11
111.8793999999999897
21
-55.5309999999999988
0
LINE
8
LYELLOW
6
CONTINUOUS
10
111.919399999999996
20
-44.5719999999999956
11
111.919399999999996
21
-55.4779999999999944
0
LINE
8
LYELLOW
6
CONTINUOUS
10
111.959399999999988
20
-44.625
11
111.959399999999988
21
-55.4249999999999972
0
LINE
8
LYELLOW
6
CONTINUOUS
10
111.9993999999999943
20
-44.6789999999999949
11
111.9993999999999943
21
-55.3709999999999951
0
LINE
8
LYELLOW
6
CONTINUOUS
10
112.0394000000000005
20
-44.7339999999999947
11
112.0394000000000005
21
-55.3159999999999954
0
LINE
8
LYELLOW
6
CONTINUOUS
10
112.0793999999999926
20
-44.7899999999999991
11
112.0793999999999926
21
-55.259999999999998
0
LINE
8
LYELLOW
6
CONTINUOUS
10
112.1193999999999988
20
-44.8470000000000013
11
112.1193999999999988
21
-55.2029999999999959
0
LINE
8
LYELLOW
6
CONTINUOUS
10
112.1593999999999909
20
-44.9050000000000011
11
112.1593999999999909
21
-55.144999999999996
0
LINE
8
LYELLOW
6
CONTINUOUS
10
112.1993999999999971
20
-44.9639999999999986
11
112.1993999999999971
21
-55.0859999999999985
0
LINE
8
LYELLOW
6
CONTINUOUS
10
112.2393999999999892
20
-45.0240000000000009
11
112.2393999999999892
21
-55.0259999999999962
0
LINE
8
LYELLOW
6
CONTINUOUS
10
112.2793999999999954
20
-45.0850000000000009
11
112.2793999999999954
21
-54.9649999999999963
0
LINE
8
LYELLOW
6
CONTINUOUS
10
112.3194000000000017
20
-45.1460000000000008
11
112.3194000000000017
21
-54.9039999999999964
0
LINE
8
LYELLOW
6
CONTINUOUS
10
112.3593999999999937
20
-45.2089999999999961
11
112.3593999999999937
21
-54.840999999999994
0
LINE
8
LYELLOW
6
CONTINUOUS
10
112.3994
20
-45.2740000000000009
11
112.3994
21
-54.7759999999999962
0
LINE
8
LYELLOW
6
CONTINUOUS
10
112.439399999999992
20
-45.3389999999999986
11
112.439399999999992
21
-54.7109999999999985
0
LINE
8
LYELLOW
6
CONTINUOUS
10
112.4793999999999983
20
-45.4059999999999988
11
112.4793999999999983
21
-54.6439999999999984
0
LINE
8
LYELLOW
6
CONTINUOUS
10
112.5193999999999903
20
-45.4739999999999966
11
112.5193999999999903
21
-54.5760000000000005
0
LINE
8
LYELLOW
6
CONTINUOUS
10
112.5593999999999966
20
-45.5429999999999993
11
112.5593999999999966
21
-54.5069999999999979
0
LINE
8
LYELLOW
6
CONTINUOUS
10
112.5993999999999886
20
-45.6139999999999972
11
112.5993999999999886
21
-54.4359999999999999
0
LINE
8
LYELLOW
6
CONTINUOUS
10
112.6393999999999949
20
-45.6859999999999999
11
112.6393999999999949
21
-54.3639999999999972
0
LINE
8
LYELLOW
6
CONTINUOUS
10
112.6794000000000011
20
-45.759999999999998
11
112.6794000000000011
21
-54.2899999999999991
0
LINE
8
LYELLOW
6
CONTINUOUS
10
112.7193999999999932
20
-45.8359999999999985
11
112.7193999999999932
21
-54.2139999999999986
0
LINE
8
LYELLOW
6
CONTINUOUS
10
112.7593999999999994
20
-45.9129999999999967
11
112.7593999999999994
21
-54.1370000000000005
0
LINE
8
LYELLOW
6
CONTINUOUS
10
112.7993999999999915
20
-45.9919999999999973
11
112.7993999999999915
21
-54.0579999999999998
0
LINE
8
LYELLOW
6
CONTINUOUS
10
112.8393999999999977
20
-46.0730000000000004
11
112.8393999999999977
21
-53.9769999999999968
0
LINE
8
LYELLOW
6
CONTINUOUS
10
112.8793999999999897
20
-46.1559999999999988
11
112.8793999999999897
21
-53.8939999999999984
0
LINE
8
LYELLOW
6
CONTINUOUS
10
112.919399999999996
20
-46.2419999999999973
11
112.919399999999996
21
-53.8079999999999998
0
LINE
8
LYELLOW
6
CONTINUOUS
10
112.959399999999988
20
-46.3299999999999983
11
112.959399999999988
21
-53.7199999999999989
0
LINE
8
LYELLOW
6
CONTINUOUS
10
112.9993999999999943
20
-46.4199999999999946
11
112.9993999999999943
21
-53.6299999999999955
0
LINE
8
LYELLOW
6
CONTINUOUS
10
113.0394000000000005
20
-46.5129999999999981
11
113.0394000000000005
21
-53.536999999999999
0
LINE
8
LYELLOW
6
CONTINUOUS
10
113.0793999999999926
20
-46.6089999999999947
11
113.0793999999999926
21
-53.4409999999999954
0
LINE
8
LYELLOW
6
CONTINUOUS
10
113.1193999999999988
20
-46.7089999999999961
11
113.1193999999999988
21
-53.3410000000000011
0
LINE
8
LYELLOW
6
CONTINUOUS
10
113.1593999999999909
20
-46.8119999999999976
11
113.1593999999999909
21
-53.2379999999999995
0
LINE
8
LYELLOW
6
CONTINUOUS
10
113.1993999999999971
20
-46.9179999999999993
11
113.1993999999999971
21
-53.1319999999999979
0
LINE
8
LYELLOW
6
CONTINUOUS
10
113.2393999999999892
20
-47.0289999999999964
11
113.2393999999999892
21
-53.0210000000000008
0
LINE
8
LYELLOW
6
CONTINUOUS
10
113.2793999999999954
20
-47.144999999999996
11
113.2793999999999954
21
-52.9050000000000011
0
LINE
8
LYELLOW
6
CONTINUOUS
10
113.3194000000000017
20
-47.2659999999999982
11
113.3194000000000017
21
-52.7839999999999989
0
LINE
8
LYELLOW
6
CONTINUOUS
10
113.3593999999999937
20
-47.3939999999999984
11
113.3593999999999937
21
-52.6559999999999988
0
LINE
8
LYELLOW
6
CONTINUOUS
10
113.3994
20
-47.5279999999999987
11
113.3994
21
-52.5219999999999985
0
LINE
8
LYELLOW
6
CONTINUOUS
10
113.439399999999992
20
-47.6699999999999946
11
113.439399999999992
21
-52.3799999999999955
0
LINE
8
LYELLOW
6
CONTINUOUS
10
113.4793999999999983
20
-47.8230000000000004
11
113.4793999999999983
21
-52.2269999999999968
0
LINE
8
LYELLOW
6
CONTINUOUS
10
113.5193999999999903
20
-47.9869999999999948
11
113.5193999999999903
21
-52.0629999999999953
0
LINE
8
LYELLOW
6
CONTINUOUS
10
113.5593999999999966
20
-48.1659999999999968
11
113.5593999999999966
21
-51.8840000000000003
0
LINE
8
LYELLOW
6
CONTINUOUS
10
113.5993999999999886
20
-48.3639999999999972
11
113.5993999999999886
21
-51.6859999999999999
0
LINE
8
LYELLOW
6
CONTINUOUS
10
113.6393999999999949
20
-48.5899999999999963
11
113.6393999999999949
21
-51.4600000000000009
0
LINE
8
LYELLOW
6
CONTINUOUS
10
113.6794000000000011
20
-48.8599999999999994
11
113.6794000000000011
21
-51.1899999999999977
0
LINE
8
LYELLOW
6
CONTINUOUS
10
113.7193999999999932
20
-49.2119999999999962
11
113.7193999999999932
21
-50.838000000000001
0
LINE
8
LYELLOW
6
CONTINUOUS
10
113.7593999999999994
20
-50.0649999999999977
11
113.7593999999999994
21
-49.9849999999999994
0
CIRCLE
8
LYELLOW
10
104.6393999999999949
20
-50.0249999999999986
40
9.1199999999999992
0
LINE
8
LYELLOW
6
CONTINUOUS
10
53.0599599999999967
20
-68.4599999999999937
11
54.8599600000000009
21
-68.4599999999999937
0
LINE
8
LYELLOW
6
CONTINUOUS
10
53.9599599999999953
20
-67.5600000000000023
11
53.9599599999999953
21
-69.3599999999999994
0
LINE
8
LYELLOW
6
CONTINUOUS
10
62.8193999999999946
20
-64.4949999999999903
11
62.8193999999999946
21
-82.6550000000000011
0
LINE
8
LYELLOW
6
CONTINUOUS
10
62.8593999999999937
20
-64.4949999999999903
11
62.8593999999999937
21
-82.6550000000000011
0
LINE
8
LYELLOW
6
CONTINUOUS
10
62.8994
20
-64.4949999999999903
11
62.8994
21
-82.6550000000000011
0
LINE
8
LYELLOW
6
CONTINUOUS
10
62.9393999999999991
20
-64.4959999999999951
11
62.9393999999999991
21
-82.6539999999999964
0
LINE
8
LYELLOW
6
CONTINUOUS
10
62.9793999999999983
20
-64.4959999999999951
11
62.9793999999999983
21
-82.6539999999999964
0
LINE
8
LYELLOW
6
CONTINUOUS
10
63.0193999999999974
20
-64.4969999999999999
11
63.0193999999999974
21
-82.6529999999999916
0
LINE
8
LYELLOW
6
CONTINUOUS
10
63.0593999999999966
20
-64.4979999999999905
11
63.0593999999999966
21
-82.652000000000001
0
LINE
8
LYELLOW
6
CONTINUOUS
10
63.0993999999999957
20
-64.4989999999999952
11
63.0993999999999957
21
-82.6509999999999962
0
LINE
8
LYELLOW
6
CONTINUOUS
10
63.1393999999999949
20
-64.5009999999999906
11
63.1393999999999949
21
-82.6490000000000009
0
LINE
8
LYELLOW
6
CONTINUOUS
10
63.179399999999994
20
-64.5019999999999953
11
63.179399999999994
21
-82.6479999999999961
0
LINE
8
LYELLOW
6
CONTINUOUS
10
63.2194000000000003
20
-64.5039999999999907
11
63.2194000000000003
21
-82.6460000000000008
0
LINE
8
LYELLOW
6
CONTINUOUS
10
63.2593999999999994
20
-64.5060000000000002
11
63.2593999999999994
21
-82.6439999999999912
0
LINE
8
LYELLOW
6
CONTINUOUS
10
63.2993999999999986
20
-64.5079999999999956
11
63.2993999999999986
21
-82.6419999999999959
0
LINE
8
LYELLOW
6
CONTINUOUS
10
63.3393999999999977
20
-64.5099999999999909
11
63.3393999999999977
21
-82.6400000000000006
0
LINE
8
LYELLOW
6
CONTINUOUS
10
63.3793999999999969
20
-64.5120000000000005
11
63.3793999999999969
21
-82.637999999999991
0
LINE
8
LYELLOW
6
CONTINUOUS
10
63.419399999999996
20
-64.5150000000000006
11
63.419399999999996
21
-82.6349999999999909
0
LINE
8
LYELLOW
6
CONTINUOUS
10
63.4593999999999951
20
-64.5169999999999959
11
63.4593999999999951
21
-82.6329999999999956
0
LINE
8
LYELLOW
6
CONTINUOUS
10
63.4993999999999943
20
-64.519999999999996
11
63.4993999999999943
21
-82.6299999999999955
0
LINE
8
LYELLOW
6
CONTINUOUS
10
63.5394000000000005
20
-64.5229999999999961
11
63.5394000000000005
21
-82.6269999999999953
0
LINE
8
LYELLOW
6
CONTINUOUS
10
63.5793999999999997
20
-64.527000000000001
11
63.5793999999999997
21
-82.6229999999999905
0
LINE
8
LYELLOW
6
CONTINUOUS
10
63.6193999999999988
20
-64.5300000000000011
11
63.6193999999999988
21
-82.6199999999999903
0
LINE
8
LYELLOW
6
CONTINUOUS
10
63.659399999999998
20
-64.5339999999999918
11
63.659399999999998
21
-82.6159999999999997
0
LINE
8
LYELLOW
6
CONTINUOUS
10
63.6993999999999971
20
-64.5379999999999967
11
63.6993999999999971
21
-82.6119999999999948
0
LINE
8
LYELLOW
6
CONTINUOUS
10
63.7393999999999963
20
-64.5420000000000016
11
63.7393999999999963
21
-82.6079999999999899
0
LINE
8
LYELLOW
6
CONTINUOUS
10
63.7793999999999954
20
-64.5459999999999923
11
63.7793999999999954
21
-82.6039999999999992
0
LINE
8
LYELLOW
6
CONTINUOUS
10
63.8193999999999946
20
-64.5499999999999972
11
63.8193999999999946
21
-82.5999999999999943
0
LINE
8
LYELLOW
6
CONTINUOUS
10
63.8593999999999937
20
-64.554000000000002
11
63.8593999999999937
21
-82.5959999999999894
0
LINE
8
LYELLOW
6
CONTINUOUS
10
63.8994
20
-64.5589999999999975
11
63.8994
21
-82.590999999999994
0
LINE
8
LYELLOW
6
CONTINUOUS
10
63.9393999999999991
20
-64.563999999999993
11
63.9393999999999991
21
-82.5859999999999985
0
LINE
8
LYELLOW
6
CONTINUOUS
10
63.9793999999999983
20
-64.5690000000000026
11
63.9793999999999983
21
-82.5810000000000031
0
LINE
8
LYELLOW
6
CONTINUOUS
10
64.0193999999999903
20
-64.5739999999999981
11
64.0193999999999903
21
-82.5759999999999934
0
LINE
8
LYELLOW
6
CONTINUOUS
10
64.0593999999999966
20
-64.5799999999999983
11
64.0593999999999966
21
-82.5699999999999932
0
LINE
8
LYELLOW
6
CONTINUOUS
10
64.0994000000000028
20
-64.5849999999999937
11
64.0994000000000028
21
-82.5649999999999977
0
LINE
8
LYELLOW
6
CONTINUOUS
10
64.1393999999999949
20
-64.590999999999994
11
64.1393999999999949
21
-82.5589999999999975
0
LINE
8
LYELLOW
6
CONTINUOUS
10
64.1794000000000011
20
-64.5969999999999942
11
64.1794000000000011
21
-82.5529999999999973
0
LINE
8
LYELLOW
6
CONTINUOUS
10
64.2193999999999932
20
-64.6029999999999944
11
64.2193999999999932
21
-82.546999999999997
0
LINE
8
LYELLOW
6
CONTINUOUS
10
64.2593999999999994
20
-64.6089999999999947
11
64.2593999999999994
21
-82.5409999999999968
0
LINE
8
LYELLOW
6
CONTINUOUS
10
64.2993999999999915
20
-64.6159999999999997
11
64.2993999999999915
21
-82.5339999999999918
0
LINE
8
LYELLOW
6
CONTINUOUS
10
64.3393999999999977
20
-64.6229999999999905
11
64.3393999999999977
21
-82.527000000000001
0
LINE
8
LYELLOW
6
CONTINUOUS
10
64.379400000000004
20
-64.6289999999999907
11
64.379400000000004
21
-82.5210000000000008
0
LINE
8
LYELLOW
6
CONTINUOUS
10
64.419399999999996
20
-64.6359999999999957
11
64.419399999999996
21
-82.5139999999999958
0
LINE
8
LYELLOW
6
CONTINUOUS
10
64.4594000000000023
20
-64.6439999999999912
11
64.4594000000000023
21
-82.5060000000000002
0
LINE
8
LYELLOW
6
CONTINUOUS
10
64.4993999999999943
20
-64.6509999999999962
11
64.4993999999999943
21
-82.4989999999999952
0
LINE
8
LYELLOW
6
CONTINUOUS
10
64.5394000000000005
20
-64.6589999999999918
11
64.5394000000000005
21
-82.4909999999999997
0
LINE
8
LYELLOW
6
CONTINUOUS
10
64.5793999999999926
20
-64.6659999999999968
11
64.5793999999999926
21
-82.4839999999999947
0
LINE
8
LYELLOW
6
CONTINUOUS
10
64.6193999999999988
20
-64.6739999999999924
11
64.6193999999999988
21
-82.4759999999999991
0
LINE
8
LYELLOW
6
CONTINUOUS
10
64.6593999999999909
20
-64.6829999999999927
11
64.6593999999999909
21
-82.4669999999999987
0
LINE
8
LYELLOW
6
CONTINUOUS
10
64.6993999999999971
20
-64.6910000000000025
11
64.6993999999999971
21
-82.4590000000000032
0
LINE
8
LYELLOW
6
CONTINUOUS
10
64.7394000000000034
20
-64.6989999999999981
11
64.7394000000000034
21
-82.4509999999999934
0
LINE
8
LYELLOW
6
CONTINUOUS
10
64.7793999999999954
20
-64.7079999999999984
11
64.7793999999999954
21
-82.4419999999999931
0
LINE
8
LYELLOW
6
CONTINUOUS
10
64.8194000000000017
20
-64.7169999999999987
11
64.8194000000000017
21
-82.4329999999999927
0
LINE
8
LYELLOW
6
CONTINUOUS
10
64.8593999999999937
20
-64.7259999999999991
11
64.8593999999999937
21
-82.4239999999999924
0
LINE
8
LYELLOW
6
CONTINUOUS
10
64.8994
20
-64.7349999999999994
11
64.8994
21
-82.414999999999992
0
LINE
8
LYELLOW
6
CONTINUOUS
10
64.939399999999992
20
-64.7449999999999903
11
64.939399999999992
21
-82.4050000000000011
0
LINE
8
LYELLOW
6
CONTINUOUS
10
64.9793999999999983
20
-64.7539999999999907
11
64.9793999999999983
21
-82.3960000000000008
0
LINE
8
LYELLOW
6
CONTINUOUS
10
65.0193999999999903
20
-64.7639999999999958
11
65.0193999999999903
21
-82.3859999999999957
0
LINE
8
LYELLOW
6
CONTINUOUS
10
65.0593999999999966
20
-64.7740000000000009
11
65.0593999999999966
21
-82.3759999999999906
0
LINE
8
LYELLOW
6
CONTINUOUS
10
65.0994000000000028
20
-64.7849999999999966
11
65.0994000000000028
21
-82.3649999999999949
0
LINE
8
LYELLOW
6
CONTINUOUS
10
65.1393999999999949
20
-64.7950000000000017
11
65.1393999999999949
21
-72.1349999999999909
0
LINE
8
LYELLOW
6
CONTINUOUS
10
65.1393999999999949
20
-75.0150000000000006
11
65.1393999999999949
21
-82.3549999999999898
0
LINE
8
LYELLOW
6
CONTINUOUS
10
65.1794000000000011
20
-64.8059999999999974
11
65.1794000000000011
21
-72.1349999999999909
0
LINE
8
LYELLOW
6
CONTINUOUS
10
65.1794000000000011
20
-75.0150000000000006
11
65.1794000000000011
21
-82.3439999999999941
0
LINE
8
LYELLOW
6
CONTINUOUS
10
65.2193999999999932
20
-64.8160000000000025
11
65.2193999999999932
21
-72.1349999999999909
0
LINE
8
LYELLOW
6
CONTINUOUS
10
65.2193999999999932
20
-75.0150000000000006
11
65.2193999999999932
21
-82.3340000000000032
0
LINE
8
LYELLOW
6
CONTINUOUS
10
65.2593999999999994
20
-64.8269999999999982
11
65.2593999999999994
21
-72.1349999999999909
0
LINE
8
LYELLOW
6
CONTINUOUS
10
65.2593999999999994
20
-75.0150000000000006
11
65.2593999999999994
21
-82.3229999999999933
0
LINE
8
LYELLOW
6
CONTINUOUS
10
65.2993999999999915
20
-64.8389999999999986
11
65.2993999999999915
21
-72.1349999999999909
0
LINE
8
LYELLOW
6
CONTINUOUS
10
65.2993999999999915
20
-75.0150000000000006
11
65.2993999999999915
21
-82.3109999999999928
0
LINE
8
LYELLOW
6
CONTINUOUS
10
65.3393999999999977
20
-64.8499999999999943
11
65.3393999999999977
21
-72.1349999999999909
0
LINE
8
LYELLOW
6
CONTINUOUS
10
65.3393999999999977
20
-75.0150000000000006
11
65.3393999999999977
21
-82.2999999999999972
0
LINE
8
LYELLOW
6
CONTINUOUS
10
65.379400000000004
20
-64.8619999999999948
11
65.379400000000004
21
-72.1349999999999909
0
LINE
8
LYELLOW
6
CONTINUOUS
10
65.379400000000004
20
-75.0150000000000006
11
65.379400000000004
21
-82.2879999999999967
0
LINE
8
LYELLOW
6
CONTINUOUS
10
65.419399999999996
20
-64.8729999999999905
11
65.419399999999996
21
-72.1349999999999909
0
LINE
8
LYELLOW
6
CONTINUOUS
10
65.419399999999996
20
-75.0150000000000006
11
65.419399999999996
21
-82.277000000000001
0
LINE
8
LYELLOW
6
CONTINUOUS
10
65.4594000000000023
20
-64.8849999999999909
11
65.4594000000000023
21
-72.1349999999999909
0
LINE
8
LYELLOW
6
CONTINUOUS
10
65.4594000000000023
20
-75.0150000000000006
11
65.4594000000000023
21
-82.2650000000000006
0
LINE
8
LYELLOW
6
CONTINUOUS
10
65.4993999999999943
20
-64.8979999999999961
11
65.4993999999999943
21
-72.1349999999999909
0
LINE
8
LYELLOW
6
CONTINUOUS
10
65.4993999999999943
20
-75.0150000000000006
11
65.4993999999999943
21
-82.2519999999999953
0
LINE
8
LYELLOW
6
CONTINUOUS
10
65.5394000000000005
20
-64.9099999999999966
11
65.5394000000000005
21
-72.1349999999999909
0
LINE
8
LYELLOW
6
CONTINUOUS
10
65.5394000000000005
20
-75.0150000000000006
11
65.5394000000000005
21
-82.2399999999999949
0
LINE
8
LYELLOW
6
CONTINUOUS
10
65.5793999999999926
20
-64.9230000000000018
11
65.5793999999999926
21
-72.1349999999999909
0
LINE
8
LYELLOW
6
CONTINUOUS
10
65.5793999999999926
20
-75.0150000000000006
11
65.5793999999999926
21
-82.2269999999999897
0
LINE
8
LYELLOW
6
CONTINUOUS
10
65.6193999999999988
20
-64.9350000000000023
11
65.6193999999999988
21
-72.1349999999999909
0
LINE
8
LYELLOW
6
CONTINUOUS
10
65.6193999999999988
20
-75.0150000000000006
11
65.6193999999999988
21
-82.2149999999999892
0
LINE
8
LYELLOW
6
CONTINUOUS
10
65.6593999999999909
20
-64.9479999999999933
11
65.6593999999999909
21
-72.1349999999999909
0
LINE
8
LYELLOW
6
CONTINUOUS
10
65.6593999999999909
20
-75.0150000000000006
11
65.6593999999999909
21
-82.2019999999999982
0
LINE
8
LYELLOW
6
CONTINUOUS
10
65.6993999999999971
20
-64.9620000000000033
11
65.6993999999999971
21
-72.1349999999999909
0
LINE
8
LYELLOW
6
CONTINUOUS
10
65.6993999999999971
20
-75.0150000000000006
11
65.6993999999999971
21
-82.1880000000000024
0
LINE
8
LYELLOW
6
CONTINUOUS
10
65.7394000000000034
20
-64.9749999999999943
11
65.7394000000000034
21
-72.1349999999999909
0
LINE
8
LYELLOW
6
CONTINUOUS
10
65.7394000000000034
20
-75.0150000000000006
11
65.7394000000000034
21
-82.1749999999999972
0
LINE
8
LYELLOW
6
CONTINUOUS
10
65.7793999999999954
20
-64.9889999999999901
11
65.7793999999999954
21
-72.1349999999999909
0
LINE
8
LYELLOW
6
CONTINUOUS
10
65.7793999999999954
20
-75.0150000000000006
11
65.7793999999999954
21
-82.1610000000000014
0
LINE
8
LYELLOW
6
CONTINUOUS
10
65.8194000000000017
20
-65.0030000000000001
11
65.8194000000000017
21
-72.1349999999999909
0
LINE
8
LYELLOW
6
CONTINUOUS
10
65.8194000000000017
20
-75.0150000000000006
11
65.8194000000000017
21
-82.1469999999999914
0
LINE
8
LYELLOW
6
CONTINUOUS
10
65.8593999999999937
20
-65.0169999999999959
11
65.8593999999999937
21
-72.1349999999999909
0
LINE
8
LYELLOW
6
CONTINUOUS
10
65.8593999999999937
20
-75.0150000000000006
11
65.8593999999999937
21
-82.1329999999999956
0
LINE
8
LYELLOW
6
CONTINUOUS
10
65.8994
20
-65.0309999999999917
11
65.8994
21
-72.1349999999999909
0
LINE
8
LYELLOW
6
CONTINUOUS
10
65.8994
20
-75.0150000000000006
11
65.8994
21
-82.1189999999999998
0
LINE
8
LYELLOW
6
CONTINUOUS
10
65.939399999999992
20
-65.0450000000000017
11
65.939399999999992
21
-72.1349999999999909
0
LINE
8
LYELLOW
6
CONTINUOUS
10
65.939399999999992
20
-75.0150000000000006
11
65.939399999999992
21
-82.1049999999999898
0
LINE
8
LYELLOW
6
CONTINUOUS
10
65.9793999999999983
20
-65.0600000000000023
11
65.9793999999999983
21
-72.1349999999999909
0
LINE
8
LYELLOW
6
CONTINUOUS
10
65.9793999999999983
20
-75.0150000000000006
11
65.9793999999999983
21
-82.0899999999999892
0
LINE
8
LYELLOW
6
CONTINUOUS
10
66.0193999999999903
20
-65.0750000000000028
11
66.0193999999999903
21
-72.1349999999999909
0
LINE
8
LYELLOW
6
CONTINUOUS
10
66.0193999999999903
20
-75.0150000000000006
11
66.0193999999999903
21
-82.0750000000000028
0
LINE
8
LYELLOW
6
CONTINUOUS
10
66.0593999999999966
20
-65.0900000000000034
11
66.0593999999999966
21
-72.1349999999999909
0
LINE
8
LYELLOW
6
CONTINUOUS
10
66.0593999999999966
20
-75.0150000000000006
11
66.0593999999999966
21
-82.0600000000000023
0
LINE
8
LYELLOW
6
CONTINUOUS
10
66.0994000000000028
20
-65.105000000000004
11
66.0994000000000028
21
-72.1349999999999909
0
LINE
8
LYELLOW
6
CONTINUOUS
10
66.0994000000000028
20
-75.0150000000000006
11
66.0994000000000028
21
-82.0450000000000017
0
LINE
8
LYELLOW
6
CONTINUOUS
10
66.1393999999999949
20
-65.1209999999999951
11
66.1393999999999949
21
-72.1349999999999909
0
LINE
8
LYELLOW
6
CONTINUOUS
10
66.1393999999999949
20
-75.0150000000000006
11
66.1393999999999949
21
-82.0289999999999964
0
LINE
8
LYELLOW
6
CONTINUOUS
10
66.1794000000000011
20
-65.1370000000000005
11
66.1794000000000011
21
-72.1349999999999909
0
LINE
8
LYELLOW
6
CONTINUOUS
10
66.1794000000000011
20
-75.0150000000000006
11
66.1794000000000011
21
-82.012999999999991
0
LINE
8
LYELLOW
6
CONTINUOUS
10
66.2193999999999932
20
-65.152000000000001
11
66.2193999999999932
21
-72.1349999999999909
0
LINE
8
LYELLOW
6
CONTINUOUS
10
66.2193999999999932
20
-75.0150000000000006
11
66.2193999999999932
21
-81.9979999999999905
0
LINE
8
LYELLOW
6
CONTINUOUS
10
66.2593999999999994
20
-65.1689999999999969
11
66.2593999999999994
21
-72.1349999999999909
0
LINE
8
LYELLOW
6
CONTINUOUS
10
66.2593999999999994
20
-75.0150000000000006
11
66.2593999999999994
21
-81.9809999999999945
0
LINE
8
LYELLOW
6
CONTINUOUS
10
66.2993999999999915
20
-65.1850000000000023
11
66.2993999999999915
21
-72.1349999999999909
0
LINE
8
LYELLOW
6
CONTINUOUS
10
66.2993999999999915
20
-75.0150000000000006
11
66.2993999999999915
21
-81.9649999999999892
0
LINE
8
LYELLOW
6
CONTINUOUS
10
66.3393999999999977
20
-65.2019999999999982
11
66.3393999999999977
21
-72.1349999999999909
0
LINE
8
LYELLOW
6
CONTINUOUS
10
66.3393999999999977
20
-75.0150000000000006
11
66.3393999999999977
21
-81.9479999999999933
0
LINE
8
LYELLOW
6
CONTINUOUS
10
66.379400000000004
20
-65.2189999999999941
11
66.379400000000004
21
-72.1349999999999909
0
LINE
8
LYELLOW
6
CONTINUOUS
10
66.379400000000004
20
-75.0150000000000006
11
66.379400000000004
21
-81.9309999999999974
0
LINE
8
LYELLOW
6
CONTINUOUS
10
66.419399999999996
20
-65.23599999999999
11
66.419399999999996
21
-72.1349999999999909
0
LINE
8
LYELLOW
6
CONTINUOUS
10
66.419399999999996
20
-75.0150000000000006
11
66.419399999999996
21
-81.9140000000000015
0
LINE
8
LYELLOW
6
CONTINUOUS
10
66.4594000000000023
20
-65.2530000000000001
11
66.4594000000000023
21
-72.1349999999999909
0
LINE
8
LYELLOW
6
CONTINUOUS
10
66.4594000000000023
20
-75.0150000000000006
11
66.4594000000000023
21
-81.8969999999999914
0
LINE
8
LYELLOW
6
CONTINUOUS
10
66.4993999999999943
20
-65.269999999999996
11
66.4993999999999943
21
-72.1349999999999909
0
LINE
8
LYELLOW
6
CONTINUOUS
10
66.4993999999999943
20
-75.0150000000000006
11
66.4993999999999943
21
-81.8799999999999955
0
LINE
8
LYELLOW
6
CONTINUOUS
10
66.5394000000000005
20
-65.2879999999999967
11
66.5394000000000005
21
-72.1349999999999909
0
LINE
8
LYELLOW
6
CONTINUOUS
10
66.5394000000000005
20
-75.0150000000000006
11
66.5394000000000005
21
-81.8619999999999948
0
LINE
8
LYELLOW
6
CONTINUOUS
10
66.5793999999999926
20
-65.3059999999999974
11
66.5793999999999926
21
-72.1349999999999909
0
LINE
8
LYELLOW
6
CONTINUOUS
10
66.5793999999999926
20
-75.0150000000000006
11
66.5793999999999926
21
-81.8439999999999941
0
LINE
8
LYELLOW
6
CONTINUOUS
10
66.6193999999999988
20
-65.3239999999999981
11
66.6193999999999988
21
-72.1349999999999909
0
LINE
8
LYELLOW
6
CONTINUOUS
10
66.6193999999999988
20
-75.0150000000000006
11
66.6193999999999988
21
-81.8259999999999934
0
LINE
8
LYELLOW
6
CONTINUOUS
10
66.6593999999999909
20
-65.3430000000000035
11
66.6593999999999909
21
-72.1349999999999909
0
LINE
8
LYELLOW
6
CONTINUOUS
10
66.6593999999999909
20
-75.0150000000000006
11
66.6593999999999909
21
-81.8070000000000022
0
LINE
8
LYELLOW
6
CONTINUOUS
10
66.6993999999999971
20
-65.3619999999999948
11
66.6993999999999971
21
-72.1349999999999909
0
LINE
8
LYELLOW
6
CONTINUOUS
10
66.6993999999999971
20
-75.0150000000000006
11
66.6993999999999971
21
-81.7879999999999967
0
LINE
8
LYELLOW
6
CONTINUOUS
10
66.7394000000000034
20
-65.3799999999999955
11
66.7394000000000034
21
-72.1349999999999909
0
LINE
8
LYELLOW
6
CONTINUOUS
10
66.7394000000000034
20
-75.0150000000000006
11
66.7394000000000034
21
-81.769999999999996
0
LINE
8
LYELLOW
6
CONTINUOUS
10
66.7793999999999954
20
-65.3999999999999915
11
66.7793999999999954
21
-72.1349999999999909
0
LINE
8
LYELLOW
6
CONTINUOUS
10
66.7793999999999954
20
-75.0150000000000006
11
66.7793999999999954
21
-81.75
0
LINE
8
LYELLOW
6
CONTINUOUS
10
66.8194000000000017
20
-65.4189999999999969
11
66.8194000000000017
21
-72.1349999999999909
0
LINE
8
LYELLOW
6
CONTINUOUS
10
66.8194000000000017
20
-75.0150000000000006
11
66.8194000000000017
21
-81.7309999999999945
0
LINE
8
LYELLOW
6
CONTINUOUS
10
66.8593999999999937
20
-65.438999999999993
11
66.8593999999999937
21
-72.1349999999999909
0
LINE
8
LYELLOW
6
CONTINUOUS
10
66.8593999999999937
20
-75.0150000000000006
11
66.8593999999999937
21
-81.7109999999999985
0
LINE
8
LYELLOW
6
CONTINUOUS
10
66.8994
20
-65.4590000000000032
11
66.8994
21
-72.1349999999999909
0
LINE
8
LYELLOW
6
CONTINUOUS
10
66.8994
20
-75.0150000000000006
11
66.8994
21
-81.6910000000000025
0
LINE
8
LYELLOW
6
CONTINUOUS
10
66.939399999999992
20
-65.4789999999999992
11
66.939399999999992
21
-72.1349999999999909
0
LINE
8
LYELLOW
6
CONTINUOUS
10
66.939399999999992
20
-75.0150000000000006
11
66.939399999999992
21
-81.6709999999999923
0
LINE
8
LYELLOW
6
CONTINUOUS
10
66.9793999999999983
20
-65.4989999999999952
11
66.9793999999999983
21
-72.1349999999999909
0
LINE
8
LYELLOW
6
CONTINUOUS
10
66.9793999999999983
20
-75.0150000000000006
11
66.9793999999999983
21
-81.6509999999999962
0
LINE
8
LYELLOW
6
CONTINUOUS
10
67.0193999999999903
20
-65.519999999999996
11
67.0193999999999903
21
-72.1349999999999909
0
LINE
8
LYELLOW
6
CONTINUOUS
10
67.0193999999999903
20
-75.0150000000000006
11
67.0193999999999903
21
-81.6299999999999955
0
LINE
8
LYELLOW
6
CONTINUOUS
10
67.0593999999999966
20
-65.5409999999999968
11
67.0593999999999966
21
-72.1349999999999909
0
LINE
8
LYELLOW
6
CONTINUOUS
10
67.0593999999999966
20
-75.0150000000000006
11
67.0593999999999966
21
-81.6089999999999947
0
LINE
8
LYELLOW
6
CONTINUOUS
10
67.0994000000000028
20
-65.5619999999999976
11
67.0994000000000028
21
-72.1349999999999909
0
LINE
8
LYELLOW
6
CONTINUOUS
10
67.0994000000000028
20
-75.0150000000000006
11
67.0994000000000028
21
-81.5879999999999939
0
LINE
8
LYELLOW
6
CONTINUOUS
10
67.1393999999999949
20
-65.5829999999999984
11
67.1393999999999949
21
-72.1349999999999909
0
LINE
8
LYELLOW
6
CONTINUOUS
10
67.1393999999999949
20
-75.0150000000000006
11
67.1393999999999949
21
-81.5669999999999931
0
LINE
8
LYELLOW
6
CONTINUOUS
10
67.1794000000000011
20
-65.605000000000004
11
67.1794000000000011
21
-72.1349999999999909
0
LINE
8
LYELLOW
6
CONTINUOUS
10
67.1794000000000011
20
-75.0150000000000006
11
67.1794000000000011
21
-81.5450000000000017
0
LINE
8
LYELLOW
6
CONTINUOUS
10
67.2193999999999932
20
-65.6269999999999953
11
67.2193999999999932
21
-72.1349999999999909
0
LINE
8
LYELLOW
6
CONTINUOUS
10
67.2193999999999932
20
-75.0150000000000006
11
67.2193999999999932
21
-81.5229999999999961
0
LINE
8
LYELLOW
6
CONTINUOUS
10
67.2593999999999994
20
-65.6490000000000009
11
67.2593999999999994
21
-72.1349999999999909
0
LINE
8
LYELLOW
6
CONTINUOUS
10
67.2593999999999994
20
-75.0150000000000006
11
67.2593999999999994
21
-81.5009999999999906
0
LINE
8
LYELLOW
6
CONTINUOUS
10
67.2993999999999915
20
-65.6709999999999923
11
67.2993999999999915
21
-72.1349999999999909
0
LINE
8
LYELLOW
6
CONTINUOUS
10
67.2993999999999915
20
-75.0150000000000006
11
67.2993999999999915
21
-81.4789999999999992
0
LINE
8
LYELLOW
6
CONTINUOUS
10
67.3393999999999977
20
-65.6940000000000026
11
67.3393999999999977
21
-72.1349999999999909
0
LINE
8
LYELLOW
6
CONTINUOUS
10
67.3393999999999977
20
-75.0150000000000006
11
67.3393999999999977
21
-81.4560000000000031
0
LINE
8
LYELLOW
6
CONTINUOUS
10
67.379400000000004
20
-65.7169999999999987
11
67.379400000000004
21
-72.1349999999999909
0
LINE
8
LYELLOW
6
CONTINUOUS
10
67.379400000000004
20
-75.0150000000000006
11
67.379400000000004
21
-81.4329999999999927
0
LINE
8
LYELLOW
6
CONTINUOUS
10
67.419399999999996
20
-65.7399999999999949
11
67.419399999999996
21
-72.1349999999999909
0
LINE
8
LYELLOW
6
CONTINUOUS
10
67.419399999999996
20
-75.0150000000000006
11
67.419399999999996
21
-81.4099999999999966
0
LINE
8
LYELLOW
6
CONTINUOUS
10
67.4594000000000023
20
-65.7639999999999958
11
67.4594000000000023
21
-72.1349999999999909
0
LINE
8
LYELLOW
6
CONTINUOUS
10
67.4594000000000023
20
-75.0150000000000006
11
67.4594000000000023
21
-81.3859999999999957
0
LINE
8
LYELLOW
6
CONTINUOUS
10
67.4993999999999943
20
-65.7869999999999919
11
67.4993999999999943
21
-72.1349999999999909
0
LINE
8
LYELLOW
6
CONTINUOUS
10
67.4993999999999943
20
-75.0150000000000006
11
67.4993999999999943
21
-81.3629999999999995
0
LINE
8
LYELLOW
6
CONTINUOUS
10
67.5394000000000005
20
-65.8109999999999928
11
67.5394000000000005
21
-72.1349999999999909
0
LINE
8
LYELLOW
6
CONTINUOUS
10
67.5394000000000005
20
-75.0150000000000006
11
67.5394000000000005
21
-81.3389999999999986
0
LINE
8
LYELLOW
6
CONTINUOUS
10
67.5793999999999926
20
-65.8359999999999985
11
67.5793999999999926
21
-72.1349999999999909
0
LINE
8
LYELLOW
6
CONTINUOUS
10
67.5793999999999926
20
-75.0150000000000006
11
67.5793999999999926
21
-81.313999999999993
0
LINE
8
LYELLOW
6
CONTINUOUS
10
67.6193999999999988
20
-65.8599999999999994
11
67.6193999999999988
21
-72.1349999999999909
0
LINE
8
LYELLOW
6
CONTINUOUS
10
67.6193999999999988
20
-75.0150000000000006
11
67.6193999999999988
21
-81.289999999999992
0
LINE
8
LYELLOW
6
CONTINUOUS
10
67.6593999999999909
20
-65.8849999999999909
11
67.6593999999999909
21
-72.1349999999999909
0
LINE
8
LYELLOW
6
CONTINUOUS
10
67.6593999999999909
20
-75.0150000000000006
11
67.6593999999999909
21
-81.2650000000000006
0
LINE
8
LYELLOW
6
CONTINUOUS
10
67.6993999999999971
20
-65.9099999999999966
11
67.6993999999999971
21
-72.1349999999999909
0
LINE
8
LYELLOW
6
CONTINUOUS
10
67.6993999999999971
20
-75.0150000000000006
11
67.6993999999999971
21
-81.2399999999999949
0
LINE
8
LYELLOW
6
CONTINUOUS
10
67.7394000000000034
20
-65.9359999999999928
11
67.7394000000000034
21
-72.1349999999999909
0
LINE
8
LYELLOW
6
CONTINUOUS
10
67.7394000000000034
20
-75.0150000000000006
11
67.7394000000000034
21
-81.2139999999999986
0
LINE
8
LYELLOW
6
CONTINUOUS
10
67.7793999999999954
20
-65.9620000000000033
11
67.7793999999999954
21
-72.1349999999999909
0
LINE
8
LYELLOW
6
CONTINUOUS
10
67.7793999999999954
20
-75.0150000000000006
11
67.7793999999999954
21
-81.1880000000000024
0
LINE
8
LYELLOW
6
CONTINUOUS
10
67.8194000000000017
20
-65.9879999999999995
11
67.8194000000000017
21
-72.1349999999999909
0
LINE
8
LYELLOW
6
CONTINUOUS
10
67.8194000000000017
20
-75.0150000000000006
11
67.8194000000000017
21
-81.1619999999999919
0
LINE
8
LYELLOW
6
CONTINUOUS
10
67.8593999999999937
20
-66.0139999999999958
11
67.8593999999999937
21
-72.1349999999999909
0
LINE
8
LYELLOW
6
CONTINUOUS
10
67.8593999999999937
20
-75.0150000000000006
11
67.8593999999999937
21
-81.1359999999999957
0
LINE
8
LYELLOW
6
CONTINUOUS
10
67.8994
20
-66.0409999999999968
11
67.8994
21
-72.1349999999999909
0
LINE
8
LYELLOW
6
CONTINUOUS
10
67.8994
20
-75.0150000000000006
11
67.8994
21
-81.1089999999999947
0
LINE
8
LYELLOW
6
CONTINUOUS
10
67.939399999999992
20
-66.0679999999999978
11
67.939399999999992
21
-72.1349999999999909
0
LINE
8
LYELLOW
6
CONTINUOUS
10
67.939399999999992
20
-75.0150000000000006
11
67.939399999999992
21
-81.0819999999999936
0
LINE
8
LYELLOW
6
CONTINUOUS
10
67.9793999999999983
20
-66.0949999999999989
11
67.9793999999999983
21
-72.1349999999999909
0
LINE
8
LYELLOW
6
CONTINUOUS
10
67.9793999999999983
20
-75.0150000000000006
11
67.9793999999999983
21
-81.0549999999999926
0
LINE
8
LYELLOW
6
CONTINUOUS
10
68.0193999999999903
20
-66.1229999999999905
11
68.0193999999999903
21
-81.027000000000001
0
LINE
8
LYELLOW
6
CONTINUOUS
10
68.0593999999999966
20
-66.1509999999999962
11
68.0593999999999966
21
-80.9989999999999952
0
LINE
8
LYELLOW
6
CONTINUOUS
10
68.0994000000000028
20
-66.179000000000002
11
68.0994000000000028
21
-80.9709999999999894
0
LINE
8
LYELLOW
6
CONTINUOUS
10
68.1393999999999949
20
-66.2069999999999936
11
68.1393999999999949
21
-80.9429999999999978
0
LINE
8
LYELLOW
6
CONTINUOUS
10
68.1794000000000011
20
-66.23599999999999
11
68.1794000000000011
21
-80.9140000000000015
0
LINE
8
LYELLOW
6
CONTINUOUS
10
68.2193999999999932
20
-66.2659999999999911
11
68.2193999999999932
21
-80.8840000000000003
0
LINE
8
LYELLOW
6
CONTINUOUS
10
68.2593999999999994
20
-66.2950000000000017
11
68.2593999999999994
21
-80.8549999999999898
0
LINE
8
LYELLOW
6
CONTINUOUS
10
68.2993999999999915
20
-66.3250000000000028
11
68.2993999999999915
21
-80.8250000000000028
0
LINE
8
LYELLOW
6
CONTINUOUS
10
68.3393999999999977
20
-66.355000000000004
11
68.3393999999999977
21
-80.7950000000000017
0
LINE
8
LYELLOW
6
CONTINUOUS
10
68.379400000000004
20
-66.3859999999999957
11
68.379400000000004
21
-80.7639999999999958
0
LINE
8
LYELLOW
6
CONTINUOUS
10
68.419399999999996
20
-66.4170000000000016
11
68.419399999999996
21
-80.7329999999999899
0
LINE
8
LYELLOW
6
CONTINUOUS
10
68.4594000000000023
20
-66.4479999999999933
11
68.4594000000000023
21
-80.7019999999999982
0
LINE
8
LYELLOW
6
CONTINUOUS
10
68.4993999999999943
20
-66.480000000000004
11
68.4993999999999943
21
-80.6700000000000017
0
LINE
8
LYELLOW
6
CONTINUOUS
10
68.5394000000000005
20
-66.5120000000000005
11
68.5394000000000005
21
-80.637999999999991
0
LINE
8
LYELLOW
6
CONTINUOUS
10
68.5793999999999926
20
-66.5439999999999969
11
68.5793999999999926
21
-80.6059999999999945
0
LINE
8
LYELLOW
6
CONTINUOUS
10
68.6193999999999988
20
-66.5769999999999982
11
68.6193999999999988
21
-80.5729999999999933
0
LINE
8
LYELLOW
6
CONTINUOUS
10
68.6593999999999909
20
-66.6099999999999994
11
68.6593999999999909
21
-80.539999999999992
0
LINE
8
LYELLOW
6
CONTINUOUS
10
68.6993999999999971
20
-66.6439999999999912
11
68.6993999999999971
21
-80.5060000000000002
0
LINE
8
LYELLOW
6
CONTINUOUS
10
68.7394000000000034
20
-66.6779999999999973
11
68.7394000000000034
21
-80.4719999999999942
0
LINE
8
LYELLOW
6
CONTINUOUS
10
68.7793999999999954
20
-66.7120000000000033
11
68.7793999999999954
21
-80.4380000000000024
0
LINE
8
LYELLOW
6
CONTINUOUS
10
68.8194000000000017
20
-66.7469999999999999
11
68.8194000000000017
21
-80.4029999999999916
0
LINE
8
LYELLOW
6
CONTINUOUS
10
68.8593999999999937
20
-66.7819999999999965
11
68.8593999999999937
21
-80.367999999999995
0
LINE
8
LYELLOW
6
CONTINUOUS
10
68.8994
20
-66.8169999999999931
11
68.8994
21
-80.3329999999999984
0
LINE
8
LYELLOW
6
CONTINUOUS
10
68.939399999999992
20
-66.8529999999999944
11
68.939399999999992
21
-80.296999999999997
0
LINE
8
LYELLOW
6
CONTINUOUS
10
68.9793999999999983
20
-66.8900000000000006
11
68.9793999999999983
21
-80.2599999999999909
0
LINE
8
LYELLOW
6
CONTINUOUS
10
69.0193999999999903
20
-66.9269999999999925
11
69.0193999999999903
21
-80.222999999999999
0
LINE
8
LYELLOW
6
CONTINUOUS
10
69.0593999999999966
20
-66.9639999999999986
11
69.0593999999999966
21
-80.1859999999999928
0
LINE
8
LYELLOW
6
CONTINUOUS
10
69.0994000000000028
20
-67.0019999999999953
11
69.0994000000000028
21
-80.1479999999999961
0
LINE
8
LYELLOW
6
CONTINUOUS
10
69.1393999999999949
20
-67.039999999999992
11
69.1393999999999949
21
-80.1099999999999994
0
LINE
8
LYELLOW
6
CONTINUOUS
10
69.1794000000000011
20
-67.0789999999999935
11
69.1794000000000011
21
-80.070999999999998
0
LINE
8
LYELLOW
6
CONTINUOUS
10
69.2193999999999932
20
-67.117999999999995
11
69.2193999999999932
21
-80.0319999999999965
0
LINE
8
LYELLOW
6
CONTINUOUS
10
69.2593999999999994
20
-67.1569999999999965
11
69.2593999999999994
21
-79.992999999999995
0
LINE
8
LYELLOW
6
CONTINUOUS
10
69.2993999999999915
20
-67.1979999999999933
11
69.2993999999999915
21
-79.9519999999999982
0
LINE
8
LYELLOW
6
CONTINUOUS
10
69.3393999999999977
20
-67.2379999999999995
11
69.3393999999999977
21
-79.9119999999999919
0
LINE
8
LYELLOW
6
CONTINUOUS
10
69.379400000000004
20
-67.2789999999999964
11
69.379400000000004
21
-79.8709999999999951
0
LINE
8
LYELLOW
6
CONTINUOUS
10
69.419399999999996
20
-67.320999999999998
11
69.419399999999996
21
-79.8289999999999935
0
LINE
8
LYELLOW
6
CONTINUOUS
10
69.4594000000000023
20
-67.3629999999999995
11
69.4594000000000023
21
-79.7869999999999919
0
LINE
8
LYELLOW
6
CONTINUOUS
10
69.4993999999999943
20
-67.4059999999999917
11
69.4993999999999943
21
-79.7439999999999998
0
LINE
8
LYELLOW
6
CONTINUOUS
10
69.5394000000000005
20
-67.4489999999999981
11
69.5394000000000005
21
-79.7009999999999934
0
LINE
8
LYELLOW
6
CONTINUOUS
10
69.5793999999999926
20
-67.492999999999995
11
69.5793999999999926
21
-79.6569999999999965
0
LINE
8
LYELLOW
6
CONTINUOUS
10
69.6193999999999988
20
-67.5379999999999967
11
69.6193999999999988
21
-79.6119999999999948
0
LINE
8
LYELLOW
6
CONTINUOUS
10
69.6593999999999909
20
-67.5829999999999984
11
69.6593999999999909
21
-79.5669999999999931
0
LINE
8
LYELLOW
6
CONTINUOUS
10
69.6993999999999971
20
-67.6280000000000001
11
69.6993999999999971
21
-79.5219999999999914
0
LINE
8
LYELLOW
6
CONTINUOUS
10
69.7394000000000034
20
-67.6749999999999972
11
69.7394000000000034
21
-79.4749999999999943
0
LINE
8
LYELLOW
6
CONTINUOUS
10
69.7793999999999954
20
-67.7219999999999942
11
69.7793999999999954
21
-79.4279999999999973
0
LINE
8
LYELLOW
6
CONTINUOUS
10
69.8194000000000017
20
-67.7689999999999912
11
69.8194000000000017
21
-79.3810000000000002
0
LINE
8
LYELLOW
6
CONTINUOUS
10
69.8593999999999937
20
-67.8169999999999931
11
69.8593999999999937
21
-79.3329999999999984
0
LINE
8
LYELLOW
6
CONTINUOUS
10
69.8994
20
-67.8659999999999997
11
69.8994
21
-79.2839999999999918
0
LINE
8
LYELLOW
6
CONTINUOUS
10
69.939399999999992
20
-67.9159999999999968
11
69.939399999999992
21
-79.2339999999999947
0
LINE
8
LYELLOW
6
CONTINUOUS
10
69.9793999999999983
20
-67.965999999999994
11
69.9793999999999983
21
-79.1839999999999975
0
LINE
8
LYELLOW
6
CONTINUOUS
10
70.0193999999999903
20
-68.0169999999999959
11
70.0193999999999903
21
-79.1329999999999956
0
LINE
8
LYELLOW
6
CONTINUOUS
10
70.0593999999999966
20
-68.0690000000000026
11
70.0593999999999966
21
-79.0810000000000031
0
LINE
8
LYELLOW
6
CONTINUOUS
10
70.0994000000000028
20
-68.1219999999999999
11
70.0994000000000028
21
-79.0279999999999916
0
LINE
8
LYELLOW
6
CONTINUOUS
10
70.1393999999999949
20
-68.1749999999999972
11
70.1393999999999949
21
-78.9749999999999943
0
LINE
8
LYELLOW
6
CONTINUOUS
10
70.1794000000000011
20
-68.2289999999999992
11
70.1794000000000011
21
-78.9209999999999923
0
LINE
8
LYELLOW
6
CONTINUOUS
10
70.2193999999999932
20
-68.2839999999999918
11
70.2193999999999932
21
-78.8659999999999997
0
LINE
8
LYELLOW
6
CONTINUOUS
10
70.2593999999999994
20
-68.3400000000000034
11
70.2593999999999994
21
-78.8100000000000023
0
LINE
8
LYELLOW
6
CONTINUOUS
10
70.2993999999999915
20
-68.3969999999999914
11
70.2993999999999915
21
-78.7530000000000001
0
LINE
8
LYELLOW
6
CONTINUOUS
10
70.3393999999999977
20
-68.4549999999999983
11
70.3393999999999977
21
-78.6949999999999932
0
LINE
8
LYELLOW
6
CONTINUOUS
10
70.3793999999999897
20
-68.5139999999999958
11
70.3793999999999897
21
-78.6359999999999957
0
LINE
8
LYELLOW
6
CONTINUOUS
10
70.419399999999996
20
-68.5739999999999981
11
70.419399999999996
21
-78.5759999999999934
0
LINE
8
LYELLOW
6
CONTINUOUS
10
70.4594000000000023
20
-68.6349999999999909
11
70.4594000000000023
21
-78.5150000000000006
0
LINE
8
LYELLOW
6
CONTINUOUS
10
70.4993999999999943
20
-68.695999999999998
11
70.4993999999999943
21
-78.4539999999999935
0
LINE
8
LYELLOW
6
CONTINUOUS
10
70.5394000000000005
20
-68.7590000000000003
11
70.5394000000000005
21
-78.3909999999999911
0
LINE
8
LYELLOW
6
CONTINUOUS
10
70.5793999999999926
20
-68.8239999999999981
11
70.5793999999999926
21
-78.3259999999999934
0
LINE
8
LYELLOW
6
CONTINUOUS
10
70.6193999999999988
20
-68.8889999999999958
11
70.6193999999999988
21
-78.2609999999999957
0
LINE
8
LYELLOW
6
CONTINUOUS
10
70.6593999999999909
20
-68.9560000000000031
11
70.6593999999999909
21
-78.1940000000000026
0
LINE
8
LYELLOW
6
CONTINUOUS
10
70.6993999999999971
20
-69.0240000000000009
11
70.6993999999999971
21
-78.1259999999999906
0
LINE
8
LYELLOW
6
CONTINUOUS
10
70.7394000000000034
20
-69.0930000000000035
11
70.7394000000000034
21
-78.0570000000000022
0
LINE
8
LYELLOW
6
CONTINUOUS
10
70.7793999999999954
20
-69.1640000000000015
11
70.7793999999999954
21
-77.98599999999999
0
LINE
8
LYELLOW
6
CONTINUOUS
10
70.8194000000000017
20
-69.23599999999999
11
70.8194000000000017
21
-77.9140000000000015
0
LINE
8
LYELLOW
6
CONTINUOUS
10
70.8593999999999937
20
-69.3100000000000023
11
70.8593999999999937
21
-77.8400000000000034
0
LINE
8
LYELLOW
6
CONTINUOUS
10
70.8994
20
-69.3859999999999957
11
70.8994
21
-77.7639999999999958
0
LINE
8
LYELLOW
6
CONTINUOUS
10
70.939399999999992
20
-69.4629999999999939
11
70.939399999999992
21
-77.6869999999999976
0
LINE
8
LYELLOW
6
CONTINUOUS
10
70.9793999999999983
20
-69.5420000000000016
11
70.9793999999999983
21
-77.6079999999999899
0
LINE
8
LYELLOW
6
CONTINUOUS
10
71.0193999999999903
20
-69.6229999999999905
11
71.0193999999999903
21
-77.527000000000001
0
LINE
8
LYELLOW
6
CONTINUOUS
10
71.0593999999999966
20
-69.7060000000000031
11
71.0593999999999966
21
-77.4440000000000026
0
LINE
8
LYELLOW
6
CONTINUOUS
10
71.0994000000000028
20
-69.7920000000000016
11
71.0994000000000028
21
-77.3579999999999899
0
LINE
8
LYELLOW
6
CONTINUOUS
10
71.1393999999999949
20
-69.8799999999999955
11
71.1393999999999949
21
-77.269999999999996
0
LINE
8
LYELLOW
6
CONTINUOUS
10
71.1794000000000011
20
-69.9699999999999989
11
71.1794000000000011
21
-77.1799999999999926
0
LINE
8
LYELLOW
6
CONTINUOUS
10
71.2193999999999932
20
-70.0630000000000024
11
71.2193999999999932
21
-77.0870000000000033
0
LINE
8
LYELLOW
6
CONTINUOUS
10
71.2593999999999994
20
-70.1589999999999918
11
71.2593999999999994
21
-76.9909999999999997
0
LINE
8
LYELLOW
6
CONTINUOUS
10
71.2993999999999915
20
-70.2590000000000003
11
71.2993999999999915
21
-76.8909999999999911
0
LINE
8
LYELLOW
6
CONTINUOUS
10
71.3393999999999977
20
-70.3619999999999948
11
71.3393999999999977
21
-76.7879999999999967
0
LINE
8
LYELLOW
6
CONTINUOUS
10
71.3793999999999897
20
-70.4680000000000035
11
71.3793999999999897
21
-76.6820000000000022
0
LINE
8
LYELLOW
6
CONTINUOUS
10
71.419399999999996
20
-70.5789999999999935
11
71.419399999999996
21
-76.570999999999998
0
LINE
8
LYELLOW
6
CONTINUOUS
10
71.4594000000000023
20
-70.6949999999999932
11
71.4594000000000023
21
-76.4549999999999983
0
LINE
8
LYELLOW
6
CONTINUOUS
10
71.4993999999999943
20
-70.8160000000000025
11
71.4993999999999943
21
-76.3340000000000032
0
LINE
8
LYELLOW
6
CONTINUOUS
10
71.5394000000000005
20
-70.9440000000000026
11
71.5394000000000005
21
-76.2060000000000031
0
LINE
8
LYELLOW
6
CONTINUOUS
10
71.5793999999999926
20
-71.078000000000003
11
71.5793999999999926
21
-76.0720000000000027
0
LINE
8
LYELLOW
6
CONTINUOUS
10
71.6193999999999988
20
-71.2199999999999989
11
71.6193999999999988
21
-75.9299999999999926
0
LINE
8
LYELLOW
6
CONTINUOUS
10
71.6593999999999909
20
-71.3729999999999905
11
71.6593999999999909
21
-75.777000000000001
0
LINE
8
LYELLOW
6
CONTINUOUS
10
71.6993999999999971
20
-71.5369999999999919
11
71.6993999999999971
21
-75.6129999999999995
0
LINE
8
LYELLOW
6
CONTINUOUS
10
71.7394000000000034
20
-71.715999999999994
11
71.7394000000000034
21
-75.4339999999999975
0
LINE
8
LYELLOW
6
CONTINUOUS
10
71.7793999999999954
20
-71.9140000000000015
11
71.7793999999999954
21
-75.23599999999999
0
LINE
8
LYELLOW
6
CONTINUOUS
10
71.8194000000000017
20
-72.1400000000000006
11
71.8194000000000017
21
-75.0099999999999909
0
LINE
8
LYELLOW
6
CONTINUOUS
10
71.8593999999999937
20
-72.4099999999999966
11
71.8593999999999937
21
-74.7399999999999949
0
LINE
8
LYELLOW
6
CONTINUOUS
10
71.8994
20
-72.7620000000000005
11
71.8994
21
-74.387999999999991
0
LINE
8
LYELLOW
6
CONTINUOUS
10
71.939399999999992
20
-73.6149999999999949
11
71.939399999999992
21
-73.5349999999999966
0
CIRCLE
8
LYELLOW
10
62.8193999999999946
20
-73.5750000000000028
40
9.1199999999999992
0
LINE
8
LYELLOW
6
CONTINUOUS
10
27.379999999999999
20
-28.1899999999999977
11
27.379999999999999
21
-35.8099999999999952
0
LINE
8
LYELLOW
6
CONTINUOUS
10
42.6199999999999974
20
-28.1899999999999977
11
27.379999999999999
21
-28.1899999999999977
0
LINE
8
LYELLOW
6
CONTINUOUS
10
42.6199999999999974
20
-28.1899999999999977
11
42.6199999999999974
21
-35.8099999999999952
0
LINE
8
LYELLOW
6
CONTINUOUS
10
42.6199999999999974
20
-29.4599999999999973
11
27.379999999999999
21
-29.4599999999999973
0
LINE
8
LYELLOW
6
CONTINUOUS
10
42.6199999999999974
20
-35.8099999999999952
11
27.379999999999999
21
-35.8099999999999952
0
LINE
8
LYELLOW
6
CONTINUOUS
10
97.5349999999999966
20
-34.125
11
98.5549999999999926
21
-34.125
0
LINE
8
LYELLOW
6
CONTINUOUS
10
99.3349999999999937
20
-32.6550000000000011
11
99.3349999999999937
21
-35.5949999999999989
0
LINE
8
LYELLOW
6
CONTINUOUS
10
99.4549999999999983
20
-32.6550000000000011
11
99.4549999999999983
21
-35.5949999999999989
0
LINE
8
LYELLOW
6
CONTINUOUS
10
99.5749999999999886
20
-32.6550000000000011
11
99.5749999999999886
21
-35.5949999999999989
0
LINE
8
LYELLOW
6
CONTINUOUS
10
105.0150000000000006
20
-34.125
11
103.9949999999999903
21
-34.125
0
LINE
8
LYELLOW
6
CONTINUOUS
10
98.5549999999999926
20
-32.6550000000000011
11
103.9949999999999903
21
-32.6550000000000011
0
LINE
8
LYELLOW
6
CONTINUOUS
10
103.9949999999999903
20
-32.6550000000000011
11
103.9949999999999903
21
-35.5949999999999989
0
LINE
8
LYELLOW
6
CONTINUOUS
10
103.9949999999999903
20
-35.5949999999999989
11
98.5549999999999926
21
-35.5949999999999989
0
LINE
8
LYELLOW
6
CONTINUOUS
10
98.5549999999999926
20
-35.5949999999999989
11
98.5549999999999926
21
-32.6550000000000011
0
LINE
8
LYELLOW
6
CONTINUOUS
10
55.7149999999999963
20
-34.125
11
56.7349999999999994
21
-34.125
0
LINE
8
LYELLOW
6
CONTINUOUS
10
57.5150000000000006
20
-32.6550000000000011
11
57.5150000000000006
21
-35.5949999999999989
0
LINE
8
LYELLOW
6
CONTINUOUS
10
57.634999999999998
20
-32.6550000000000011
11
57.634999999999998
21
-35.5949999999999989
0
LINE
8
LYELLOW
6
CONTINUOUS
10
57.7549999999999955
20
-32.6550000000000011
11
57.7549999999999955
21
-35.5949999999999989
0
LINE
8
LYELLOW
6
CONTINUOUS
10
63.1950000000000003
20
-34.125
11
62.1749999999999972
21
-34.125
0
LINE
8
LYELLOW
6
CONTINUOUS
10
56.7349999999999994
20
-32.6550000000000011
11
62.1749999999999972
21
-32.6550000000000011
0
LINE
8
LYELLOW
6
CONTINUOUS
10
62.1749999999999972
20
-32.6550000000000011
11
62.1749999999999972
21
-35.5949999999999989
0
LINE
8
LYELLOW
6
CONTINUOUS
10
62.1749999999999972
20
-35.5949999999999989
11
56.7349999999999994
21
-35.5949999999999989
0
LINE
8
LYELLOW
6
CONTINUOUS
10
56.7349999999999994
20
-35.5949999999999989
11
56.7349999999999994
21
-32.6550000000000011
0
LINE
8
WHITE
6
CONTINUOUS
10
20.
20
-20.
11
166.
21
-20.
0
LINE
8
WHITE
6
CONTINUOUS
10
166.
20
-20.
11
166.
21
-94.
0
LINE
8
WHITE
6
CONTINUOUS
10
166.
20
-94.
11
20.
21
-94.
0
LINE
8
WHITE
6
CONTINUOUS
10
20.
20
-94.
11
20.
21
-20.
  0
ENDSEC
  0
EOF
