  0
SECTION
  2
HEADER
  9
$ANGBASE
  50
0.0
  9
$ANGDIR
  70
1
  9
$MEASUREMENT
  70
1
  0
ENDSEC
  0
SECTION
  2
TABLES
  0
TABLE
  2
LTYPE
  70
4
  0
LTYPE
  5
40F
  2
CONTINUOUS
  70
0
  3
Solid line
  72
65
  73
0
  40
0.0
  0
LTYPE
  5
410
  2
DASHDOT
 70
0
  3
Dash Dot ____ _ ____ _
 72
65
 73
4
 40
2.0
 49
1.25
 49
-0.25
 49
0.25
 49
-0.25
  0
LTYPE
  5
411
  2
DASHED
 70
0
  3
Dashed __ __ __ __ __
 72
65
 73
2
 40
0.75
 49
0.5
 49
-0.25
  0
LTYPE
  5
43B
  2
DOTTED
 70
0
  3
Dotted .  .  .  .
 72
65
 73
2
 40
0.2
 49
0.0
 49
-0.2
  0
ENDTAB
  0
TABLE
  2
STYLE
  70
4
  0
STYLE
  2
KICAD
  70
0
  40
0
  41
1
  42
1
  50
0
  71
0
  3
isocp.shx
  0
STYLE
  2
KICADB
  70
0
  40
0
  41
1
  42
1
  50
0
  71
0
  3
isocp.shx
  0
STYLE
  2
KICADI
  70
0
  40
0
  41
1
  42
1
  50
15
  71
0
  3
isocp.shx
  0
STYLE
  2
KICADBI
  70
0
  40
0
  41
1
  42
1
  50
15
  71
0
  3
isocp.shx
  0
ENDTAB
  0
TABLE
  2
LAYER
  70
35
  0
LAYER
  2
BLACK
  70
0
  62
7
  6
CONTINUOUS
  0
LAYER
  2
GRAY1
  70
0
  62
251
  6
CONTINUOUS
  0
LAYER
  2
GRAY2
  70
0
  62
8
  6
CONTINUOUS
  0
LAYER
  2
GRAY3
  70
0
  62
9
  6
CONTINUOUS
  0
LAYER
  2
WHITE
  70
0
  62
7
  6
CONTINUOUS
  0
LAYER
  2
LYELLOW
  70
0
  62
51
  6
CONTINUOUS
  0
LAYER
  2
LORANGE
  70
0
  62
41
  6
CONTINUOUS
  0
LAYER
  2
BLUE1
  70
0
  62
178
  6
CONTINUOUS
  0
LAYER
  2
GREEN1
  70
0
  62
98
  6
CONTINUOUS
  0
LAYER
  2
CYAN1
  70
0
  62
138
  6
CONTINUOUS
  0
LAYER
  2
RED1
  70
0
  62
18
  6
CONTINUOUS
  0
LAYER
  2
MAGENTA1
  70
0
  62
228
  6
CONTINUOUS
  0
LAYER
  2
BROWN1
  70
0
  62
58
  6
CONTINUOUS
  0
LAYER
  2
ORANGE1
  70
0
  62
34
  6
CONTINUOUS
  0
LAYER
  2
BLUE2
  70
0
  62
5
  6
CONTINUOUS
  0
LAYER
  2
GREEN2
  70
0
  62
3
  6
CONTINUOUS
  0
LAYER
  2
CYAN2
  70
0
  62
4
  6
CONTINUOUS
  0
LAYER
  2
RED2
  70
0
  62
1
  6
CONTINUOUS
  0
LAYER
  2
MAGENTA2
  70
0
  62
6
  6
CONTINUOUS
  0
LAYER
  2
BROWN2
  70
0
  62
54
  6
CONTINUOUS
  0
LAYER
  2
ORANGE2
  70
0
  62
42
  6
CONTINUOUS
  0
LAYER
  2
BLUE3
  70
0
  62
171
  6
CONTINUOUS
  0
LAYER
  2
GREEN3
  70
0
  62
91
  6
CONTINUOUS
  0
LAYER
  2
CYAN3
  70
0
  62
131
  6
CONTINUOUS
  0
LAYER
  2
RED3
  70
0
  62
11
  6
CONTINUOUS
  0
LAYER
  2
MAGENTA3
  70
0
  62
221
  6
CONTINUOUS
  0
LAYER
  2
YELLOW3
  70
0
  62
2
  6
CONTINUOUS
  0
LAYER
  2
ORANGE3
  70
0
  62
32
  6
CONTINUOUS
  0
LAYER
  2
BLUE4
  70
0
  62
5
  6
CONTINUOUS
  0
LAYER
  2
GREEN4
  70
0
  62
3
  6
CONTINUOUS
  0
LAYER
  2
CYAN4
  70
0
  62
4
  6
CONTINUOUS
  0
LAYER
  2
RED4
  70
0
  62
1
  6
CONTINUOUS
  0
LAYER
  2
MAGENTA4
  70
0
  62
6
  6
CONTINUOUS
  0
LAYER
  2
YELLOW4
  70
0
  62
2
  6
CONTINUOUS
  0
LAYER
  2
ORANGE4
  70
0
  62
40
  6
CONTINUOUS
  0
ENDTAB
  0
ENDSEC
  0
SECTION
  2
ENTITIES
0
LINE
8
LYELLOW
6
CONTINUOUS
10
40.1527329999999978
20
-56.4095799999999983
11
40.1051140000000004
21
-56.4572000000000003
0
LINE
8
LYELLOW
6
CONTINUOUS
10
40.1051140000000004
20
-56.4572000000000003
11
39.962257000000001
21
-56.5048189999999977
0
LINE
8
LYELLOW
6
CONTINUOUS
10
39.962257000000001
20
-56.5048189999999977
11
39.8670189999999991
21
-56.5048189999999977
0
LINE
8
LYELLOW
6
CONTINUOUS
10
39.8670189999999991
20
-56.5048189999999977
11
39.7241619999999998
21
-56.4572000000000003
0
LINE
8
LYELLOW
6
CONTINUOUS
10
39.7241619999999998
20
-56.4572000000000003
11
39.6289239999999978
21
-56.3619610000000009
0
LINE
8
LYELLOW
6
CONTINUOUS
10
39.6289239999999978
20
-56.3619610000000009
11
39.5813050000000004
21
-56.2667229999999989
0
LINE
8
LYELLOW
6
CONTINUOUS
10
39.5813050000000004
20
-56.2667229999999989
11
39.5336859999999959
21
-56.0762469999999951
0
LINE
8
LYELLOW
6
CONTINUOUS
10
39.5336859999999959
20
-56.0762469999999951
11
39.5336859999999959
21
-55.9333899999999957
0
LINE
8
LYELLOW
6
CONTINUOUS
10
39.5336859999999959
20
-55.9333899999999957
11
39.5813050000000004
21
-55.742913999999999
0
LINE
8
LYELLOW
6
CONTINUOUS
10
39.5813050000000004
20
-55.742913999999999
11
39.6289239999999978
21
-55.647675999999997
0
LINE
8
LYELLOW
6
CONTINUOUS
10
39.6289239999999978
20
-55.647675999999997
11
39.7241619999999998
21
-55.5524379999999951
0
LINE
8
LYELLOW
6
CONTINUOUS
10
39.7241619999999998
20
-55.5524379999999951
11
39.8670189999999991
21
-55.5048189999999977
0
LINE
8
LYELLOW
6
CONTINUOUS
10
39.8670189999999991
20
-55.5048189999999977
11
39.962257000000001
21
-55.5048189999999977
0
LINE
8
LYELLOW
6
CONTINUOUS
10
39.962257000000001
20
-55.5048189999999977
11
40.1051140000000004
21
-55.5524379999999951
0
LINE
8
LYELLOW
6
CONTINUOUS
10
40.1051140000000004
20
-55.5524379999999951
11
40.1527329999999978
21
-55.6000569999999996
0
LINE
8
LYELLOW
6
CONTINUOUS
10
41.1051140000000004
20
-56.5048189999999977
11
40.5336859999999959
21
-56.5048189999999977
0
LINE
8
LYELLOW
6
CONTINUOUS
10
40.8194000000000017
20
-56.5048189999999977
11
40.8194000000000017
21
-55.5048189999999977
0
LINE
8
LYELLOW
6
CONTINUOUS
10
40.8194000000000017
20
-55.5048189999999977
11
40.7241619999999998
21
-55.647675999999997
0
LINE
8
LYELLOW
6
CONTINUOUS
10
40.7241619999999998
20
-55.647675999999997
11
40.6289239999999978
21
-55.742913999999999
0
LINE
8
LYELLOW
6
CONTINUOUS
10
40.6289239999999978
20
-55.742913999999999
11
40.5336859999999959
21
-55.7905329999999964
0
LINE
8
LYELLOW
6
CONTINUOUS
10
40.1527329999999978
20
-77.9595800000000025
11
40.1051140000000004
21
-78.0071999999999974
0
LINE
8
LYELLOW
6
CONTINUOUS
10
40.1051140000000004
20
-78.0071999999999974
11
39.962257000000001
21
-78.0548189999999948
0
LINE
8
LYELLOW
6
CONTINUOUS
10
39.962257000000001
20
-78.0548189999999948
11
39.8670189999999991
21
-78.0548189999999948
0
LINE
8
LYELLOW
6
CONTINUOUS
10
39.8670189999999991
20
-78.0548189999999948
11
39.7241619999999998
21
-78.0071999999999974
0
LINE
8
LYELLOW
6
CONTINUOUS
10
39.7241619999999998
20
-78.0071999999999974
11
39.6289239999999978
21
-77.9119609999999909
0
LINE
8
LYELLOW
6
CONTINUOUS
10
39.6289239999999978
20
-77.9119609999999909
11
39.5813050000000004
21
-77.8167229999999961
0
LINE
8
LYELLOW
6
CONTINUOUS
10
39.5813050000000004
20
-77.8167229999999961
11
39.5336859999999959
21
-77.6262469999999922
0
LINE
8
LYELLOW
6
CONTINUOUS
10
39.5336859999999959
20
-77.6262469999999922
11
39.5336859999999959
21
-77.48339
0
LINE
8
LYELLOW
6
CONTINUOUS
10
39.5336859999999959
20
-77.48339
11
39.5813050000000004
21
-77.2929139999999961
0
LINE
8
LYELLOW
6
CONTINUOUS
10
39.5813050000000004
20
-77.2929139999999961
11
39.6289239999999978
21
-77.1976760000000013
0
LINE
8
LYELLOW
6
CONTINUOUS
10
39.6289239999999978
20
-77.1976760000000013
11
39.7241619999999998
21
-77.1024379999999923
0
LINE
8
LYELLOW
6
CONTINUOUS
10
39.7241619999999998
20
-77.1024379999999923
11
39.8670189999999991
21
-77.0548189999999948
0
LINE
8
LYELLOW
6
CONTINUOUS
10
39.8670189999999991
20
-77.0548189999999948
11
39.962257000000001
21
-77.0548189999999948
0
LINE
8
LYELLOW
6
CONTINUOUS
10
39.962257000000001
20
-77.0548189999999948
11
40.1051140000000004
21
-77.1024379999999923
0
LINE
8
LYELLOW
6
CONTINUOUS
10
40.1051140000000004
20
-77.1024379999999923
11
40.1527329999999978
21
-77.1500569999999897
0
LINE
8
LYELLOW
6
CONTINUOUS
10
40.4860669999999985
20
-77.0548189999999948
11
41.1051140000000004
21
-77.0548189999999948
0
LINE
8
LYELLOW
6
CONTINUOUS
10
41.1051140000000004
20
-77.0548189999999948
11
40.7717809999999972
21
-77.4357710000000026
0
LINE
8
LYELLOW
6
CONTINUOUS
10
40.7717809999999972
20
-77.4357710000000026
11
40.9146379999999965
21
-77.4357710000000026
0
LINE
8
LYELLOW
6
CONTINUOUS
10
40.9146379999999965
20
-77.4357710000000026
11
41.0098759999999984
21
-77.48339
0
LINE
8
LYELLOW
6
CONTINUOUS
10
41.0098759999999984
20
-77.48339
11
41.0574949999999959
21
-77.5310089999999974
0
LINE
8
LYELLOW
6
CONTINUOUS
10
41.0574949999999959
20
-77.5310089999999974
11
41.1051140000000004
21
-77.6262469999999922
0
LINE
8
LYELLOW
6
CONTINUOUS
10
41.1051140000000004
20
-77.6262469999999922
11
41.1051140000000004
21
-77.8643419999999935
0
LINE
8
LYELLOW
6
CONTINUOUS
10
41.1051140000000004
20
-77.8643419999999935
11
41.0574949999999959
21
-77.9595800000000025
0
LINE
8
LYELLOW
6
CONTINUOUS
10
41.0574949999999959
20
-77.9595800000000025
11
41.0098759999999984
21
-78.0071999999999974
0
LINE
8
LYELLOW
6
CONTINUOUS
10
41.0098759999999984
20
-78.0071999999999974
11
40.9146379999999965
21
-78.0548189999999948
0
LINE
8
LYELLOW
6
CONTINUOUS
10
40.9146379999999965
20
-78.0548189999999948
11
40.6289239999999978
21
-78.0548189999999948
0
LINE
8
LYELLOW
6
CONTINUOUS
10
40.6289239999999978
20
-78.0548189999999948
11
40.5336859999999959
21
-78.0071999999999974
0
LINE
8
LYELLOW
6
CONTINUOUS
10
40.5336859999999959
20
-78.0071999999999974
11
40.4860669999999985
21
-77.9595800000000025
0
LINE
8
LYELLOW
6
CONTINUOUS
10
34.6966660000000005
20
-36.1048189999999991
11
34.6966660000000005
21
-36.8191039999999958
0
LINE
8
LYELLOW
6
CONTINUOUS
10
34.6966660000000005
20
-36.8191039999999958
11
34.6490469999999959
21
-36.9619609999999952
0
LINE
8
LYELLOW
6
CONTINUOUS
10
34.6490469999999959
20
-36.9619609999999952
11
34.5538090000000011
21
-37.0572000000000017
0
LINE
8
LYELLOW
6
CONTINUOUS
10
34.5538090000000011
20
-37.0572000000000017
11
34.4109520000000018
21
-37.1048189999999991
0
LINE
8
LYELLOW
6
CONTINUOUS
10
34.4109520000000018
20
-37.1048189999999991
11
34.3157139999999998
21
-37.1048189999999991
0
LINE
8
LYELLOW
6
CONTINUOUS
10
35.6966660000000005
20
-37.1048189999999991
11
35.125237999999996
21
-37.1048189999999991
0
LINE
8
LYELLOW
6
CONTINUOUS
10
35.4109520000000018
20
-37.1048189999999991
11
35.4109520000000018
21
-36.1048189999999991
0
LINE
8
LYELLOW
6
CONTINUOUS
10
35.4109520000000018
20
-36.1048189999999991
11
35.3157139999999998
21
-36.2476759999999985
0
LINE
8
LYELLOW
6
CONTINUOUS
10
35.3157139999999998
20
-36.2476759999999985
11
35.2204759999999979
21
-36.3429140000000004
0
LINE
8
LYELLOW
6
CONTINUOUS
10
35.2204759999999979
20
-36.3429140000000004
11
35.125237999999996
21
-36.3905329999999978
0
LINE
8
LYELLOW
6
CONTINUOUS
10
108.6666659999999922
20
-26.3748189999999987
11
108.6666659999999922
21
-27.089103999999999
0
LINE
8
LYELLOW
6
CONTINUOUS
10
108.6666659999999922
20
-27.089103999999999
11
108.6190469999999948
21
-27.2319609999999983
0
LINE
8
LYELLOW
6
CONTINUOUS
10
108.6190469999999948
20
-27.2319609999999983
11
108.523809
21
-27.3271999999999977
0
LINE
8
LYELLOW
6
CONTINUOUS
10
108.523809
20
-27.3271999999999977
11
108.3809519999999935
21
-27.3748189999999987
0
LINE
8
LYELLOW
6
CONTINUOUS
10
108.3809519999999935
20
-27.3748189999999987
11
108.2857139999999987
21
-27.3748189999999987
0
LINE
8
LYELLOW
6
CONTINUOUS
10
109.0952379999999948
20
-26.4700569999999971
11
109.1428569999999922
21
-26.4224379999999996
0
LINE
8
LYELLOW
6
CONTINUOUS
10
109.1428569999999922
20
-26.4224379999999996
11
109.2380950000000013
21
-26.3748189999999987
0
LINE
8
LYELLOW
6
CONTINUOUS
10
109.2380950000000013
20
-26.3748189999999987
11
109.4761899999999883
21
-26.3748189999999987
0
LINE
8
LYELLOW
6
CONTINUOUS
10
109.4761899999999883
20
-26.3748189999999987
11
109.5714279999999974
21
-26.4224379999999996
0
LINE
8
LYELLOW
6
CONTINUOUS
10
109.5714279999999974
20
-26.4224379999999996
11
109.6190469999999948
21
-26.4700569999999971
0
LINE
8
LYELLOW
6
CONTINUOUS
10
109.6190469999999948
20
-26.4700569999999971
11
109.6666659999999922
21
-26.565294999999999
0
LINE
8
LYELLOW
6
CONTINUOUS
10
109.6666659999999922
20
-26.565294999999999
11
109.6666659999999922
21
-26.6605329999999974
0
LINE
8
LYELLOW
6
CONTINUOUS
10
109.6666659999999922
20
-26.6605329999999974
11
109.6190469999999948
21
-26.8033900000000003
0
LINE
8
LYELLOW
6
CONTINUOUS
10
109.6190469999999948
20
-26.8033900000000003
11
109.0476189999999974
21
-27.3748189999999987
0
LINE
8
LYELLOW
6
CONTINUOUS
10
109.0476189999999974
20
-27.3748189999999987
11
109.6666659999999922
21
-27.3748189999999987
0
LINE
8
LYELLOW
6
CONTINUOUS
10
72.0369049999999902
20
-50.3848190000000002
11
72.0369049999999902
21
-49.3848190000000002
0
LINE
8
LYELLOW
6
CONTINUOUS
10
72.0369049999999902
20
-49.3848190000000002
11
72.2749999999999915
21
-49.3848190000000002
0
LINE
8
LYELLOW
6
CONTINUOUS
10
72.2749999999999915
20
-49.3848190000000002
11
72.4178569999999979
21
-49.4324379999999977
0
LINE
8
LYELLOW
6
CONTINUOUS
10
72.4178569999999979
20
-49.4324379999999977
11
72.5130949999999928
21
-49.5276759999999996
0
LINE
8
LYELLOW
6
CONTINUOUS
10
72.5130949999999928
20
-49.5276759999999996
11
72.5607139999999902
21
-49.6229139999999944
0
LINE
8
LYELLOW
6
CONTINUOUS
10
72.5607139999999902
20
-49.6229139999999944
11
72.6083330000000018
21
-49.8133899999999983
0
LINE
8
LYELLOW
6
CONTINUOUS
10
72.6083330000000018
20
-49.8133899999999983
11
72.6083330000000018
21
-49.9562469999999976
0
LINE
8
LYELLOW
6
CONTINUOUS
10
72.6083330000000018
20
-49.9562469999999976
11
72.5607139999999902
21
-50.1467229999999944
0
LINE
8
LYELLOW
6
CONTINUOUS
10
72.5607139999999902
20
-50.1467229999999944
11
72.5130949999999928
21
-50.2419609999999963
0
LINE
8
LYELLOW
6
CONTINUOUS
10
72.5130949999999928
20
-50.2419609999999963
11
72.4178569999999979
21
-50.3371999999999957
0
LINE
8
LYELLOW
6
CONTINUOUS
10
72.4178569999999979
20
-50.3371999999999957
11
72.2749999999999915
21
-50.3848190000000002
0
LINE
8
LYELLOW
6
CONTINUOUS
10
72.2749999999999915
20
-50.3848190000000002
11
72.0369049999999902
21
-50.3848190000000002
0
LINE
8
LYELLOW
6
CONTINUOUS
10
73.4654759999999953
20
-49.3848190000000002
11
73.2749999999999915
21
-49.3848190000000002
0
LINE
8
LYELLOW
6
CONTINUOUS
10
73.2749999999999915
20
-49.3848190000000002
11
73.1797619999999966
21
-49.4324379999999977
0
LINE
8
LYELLOW
6
CONTINUOUS
10
73.1797619999999966
20
-49.4324379999999977
11
73.1321429999999992
21
-49.4800569999999951
0
LINE
8
LYELLOW
6
CONTINUOUS
10
73.1321429999999992
20
-49.4800569999999951
11
73.0369049999999902
21
-49.6229139999999944
0
LINE
8
LYELLOW
6
CONTINUOUS
10
73.0369049999999902
20
-49.6229139999999944
11
72.9892859999999928
21
-49.8133899999999983
0
LINE
8
LYELLOW
6
CONTINUOUS
10
72.9892859999999928
20
-49.8133899999999983
11
72.9892859999999928
21
-50.1943419999999989
0
LINE
8
LYELLOW
6
CONTINUOUS
10
72.9892859999999928
20
-50.1943419999999989
11
73.0369049999999902
21
-50.2895800000000008
0
LINE
8
LYELLOW
6
CONTINUOUS
10
73.0369049999999902
20
-50.2895800000000008
11
73.0845240000000018
21
-50.3371999999999957
0
LINE
8
LYELLOW
6
CONTINUOUS
10
73.0845240000000018
20
-50.3371999999999957
11
73.1797619999999966
21
-50.3848190000000002
0
LINE
8
LYELLOW
6
CONTINUOUS
10
73.1797619999999966
20
-50.3848190000000002
11
73.3702380000000005
21
-50.3848190000000002
0
LINE
8
LYELLOW
6
CONTINUOUS
10
73.3702380000000005
20
-50.3848190000000002
11
73.4654759999999953
21
-50.3371999999999957
0
LINE
8
LYELLOW
6
CONTINUOUS
10
73.4654759999999953
20
-50.3371999999999957
11
73.5130949999999928
21
-50.2895800000000008
0
LINE
8
LYELLOW
6
CONTINUOUS
10
73.5130949999999928
20
-50.2895800000000008
11
73.5607139999999902
21
-50.1943419999999989
0
LINE
8
LYELLOW
6
CONTINUOUS
10
73.5607139999999902
20
-50.1943419999999989
11
73.5607139999999902
21
-49.9562469999999976
0
LINE
8
LYELLOW
6
CONTINUOUS
10
73.5607139999999902
20
-49.9562469999999976
11
73.5130949999999928
21
-49.8610089999999957
0
LINE
8
LYELLOW
6
CONTINUOUS
10
73.5130949999999928
20
-49.8610089999999957
11
73.4654759999999953
21
-49.8133899999999983
0
LINE
8
LYELLOW
6
CONTINUOUS
10
73.4654759999999953
20
-49.8133899999999983
11
73.3702380000000005
21
-49.7657710000000009
0
LINE
8
LYELLOW
6
CONTINUOUS
10
73.3702380000000005
20
-49.7657710000000009
11
73.1797619999999966
21
-49.7657710000000009
0
LINE
8
LYELLOW
6
CONTINUOUS
10
73.1797619999999966
20
-49.7657710000000009
11
73.0845240000000018
21
-49.8133899999999983
0
LINE
8
LYELLOW
6
CONTINUOUS
10
73.0845240000000018
20
-49.8133899999999983
11
73.0369049999999902
21
-49.8610089999999957
0
LINE
8
LYELLOW
6
CONTINUOUS
10
73.0369049999999902
20
-49.8610089999999957
11
72.9892859999999928
21
-49.9562469999999976
0
LINE
8
LYELLOW
6
CONTINUOUS
10
67.4330949999999945
20
-50.7548189999999977
11
67.4330949999999945
21
-49.7548189999999977
0
LINE
8
LYELLOW
6
CONTINUOUS
10
68.0045229999999918
20
-50.7548189999999977
11
67.5759520000000009
21
-50.1833899999999957
0
LINE
8
LYELLOW
6
CONTINUOUS
10
68.0045229999999918
20
-49.7548189999999977
11
67.4330949999999945
21
-50.3262469999999951
0
LINE
8
LYELLOW
6
CONTINUOUS
10
54.1269050000000007
20
-50.3848190000000002
11
54.1269050000000007
21
-49.3848190000000002
0
LINE
8
LYELLOW
6
CONTINUOUS
10
54.1269050000000007
20
-49.3848190000000002
11
54.3649999999999949
21
-49.3848190000000002
0
LINE
8
LYELLOW
6
CONTINUOUS
10
54.3649999999999949
20
-49.3848190000000002
11
54.5078569999999942
21
-49.4324379999999977
0
LINE
8
LYELLOW
6
CONTINUOUS
10
54.5078569999999942
20
-49.4324379999999977
11
54.6030949999999962
21
-49.5276759999999996
0
LINE
8
LYELLOW
6
CONTINUOUS
10
54.6030949999999962
20
-49.5276759999999996
11
54.6507140000000007
21
-49.6229139999999944
0
LINE
8
LYELLOW
6
CONTINUOUS
10
54.6507140000000007
20
-49.6229139999999944
11
54.6983329999999981
21
-49.8133899999999983
0
LINE
8
LYELLOW
6
CONTINUOUS
10
54.6983329999999981
20
-49.8133899999999983
11
54.6983329999999981
21
-49.9562469999999976
0
LINE
8
LYELLOW
6
CONTINUOUS
10
54.6983329999999981
20
-49.9562469999999976
11
54.6507140000000007
21
-50.1467229999999944
0
LINE
8
LYELLOW
6
CONTINUOUS
10
54.6507140000000007
20
-50.1467229999999944
11
54.6030949999999962
21
-50.2419609999999963
0
LINE
8
LYELLOW
6
CONTINUOUS
10
54.6030949999999962
20
-50.2419609999999963
11
54.5078569999999942
21
-50.3371999999999957
0
LINE
8
LYELLOW
6
CONTINUOUS
10
54.5078569999999942
20
-50.3371999999999957
11
54.3649999999999949
21
-50.3848190000000002
0
LINE
8
LYELLOW
6
CONTINUOUS
10
54.3649999999999949
20
-50.3848190000000002
11
54.1269050000000007
21
-50.3848190000000002
0
LINE
8
LYELLOW
6
CONTINUOUS
10
55.6030949999999962
20
-49.3848190000000002
11
55.1269050000000007
21
-49.3848190000000002
0
LINE
8
LYELLOW
6
CONTINUOUS
10
55.1269050000000007
20
-49.3848190000000002
11
55.0792859999999962
21
-49.8610089999999957
0
LINE
8
LYELLOW
6
CONTINUOUS
10
55.0792859999999962
20
-49.8610089999999957
11
55.1269050000000007
21
-49.8133899999999983
0
LINE
8
LYELLOW
6
CONTINUOUS
10
55.1269050000000007
20
-49.8133899999999983
11
55.2221429999999955
21
-49.7657710000000009
0
LINE
8
LYELLOW
6
CONTINUOUS
10
55.2221429999999955
20
-49.7657710000000009
11
55.4602379999999968
21
-49.7657710000000009
0
LINE
8
LYELLOW
6
CONTINUOUS
10
55.4602379999999968
20
-49.7657710000000009
11
55.5554759999999987
21
-49.8133899999999983
0
LINE
8
LYELLOW
6
CONTINUOUS
10
55.5554759999999987
20
-49.8133899999999983
11
55.6030949999999962
21
-49.8610089999999957
0
LINE
8
LYELLOW
6
CONTINUOUS
10
55.6030949999999962
20
-49.8610089999999957
11
55.6507140000000007
21
-49.9562469999999976
0
LINE
8
LYELLOW
6
CONTINUOUS
10
55.6507140000000007
20
-49.9562469999999976
11
55.6507140000000007
21
-50.1943419999999989
0
LINE
8
LYELLOW
6
CONTINUOUS
10
55.6507140000000007
20
-50.1943419999999989
11
55.6030949999999962
21
-50.2895800000000008
0
LINE
8
LYELLOW
6
CONTINUOUS
10
55.6030949999999962
20
-50.2895800000000008
11
55.5554759999999987
21
-50.3371999999999957
0
LINE
8
LYELLOW
6
CONTINUOUS
10
55.5554759999999987
20
-50.3371999999999957
11
55.4602379999999968
21
-50.3848190000000002
0
LINE
8
LYELLOW
6
CONTINUOUS
10
55.4602379999999968
20
-50.3848190000000002
11
55.2221429999999955
21
-50.3848190000000002
0
LINE
8
LYELLOW
6
CONTINUOUS
10
55.2221429999999955
20
-50.3848190000000002
11
55.1269050000000007
21
-50.3371999999999957
0
LINE
8
LYELLOW
6
CONTINUOUS
10
55.1269050000000007
20
-50.3371999999999957
11
55.0792859999999962
21
-50.2895800000000008
0
LINE
8
LYELLOW
6
CONTINUOUS
10
49.5230949999999979
20
-50.7548189999999977
11
49.5230949999999979
21
-49.7548189999999977
0
LINE
8
LYELLOW
6
CONTINUOUS
10
50.0945229999999952
20
-50.7548189999999977
11
49.6659519999999972
21
-50.1833899999999957
0
LINE
8
LYELLOW
6
CONTINUOUS
10
50.0945229999999952
20
-49.7548189999999977
11
49.5230949999999979
21
-50.3262469999999951
0
LINE
8
LYELLOW
6
CONTINUOUS
10
64.2472329999999943
20
-56.4095799999999983
11
64.1996139999999968
21
-56.4572000000000003
0
LINE
8
LYELLOW
6
CONTINUOUS
10
64.1996139999999968
20
-56.4572000000000003
11
64.0567569999999904
21
-56.5048189999999977
0
LINE
8
LYELLOW
6
CONTINUOUS
10
64.0567569999999904
20
-56.5048189999999977
11
63.9615189999999956
21
-56.5048189999999977
0
LINE
8
LYELLOW
6
CONTINUOUS
10
63.9615189999999956
20
-56.5048189999999977
11
63.8186619999999962
21
-56.4572000000000003
0
LINE
8
LYELLOW
6
CONTINUOUS
10
63.8186619999999962
20
-56.4572000000000003
11
63.7234239999999943
21
-56.3619610000000009
0
LINE
8
LYELLOW
6
CONTINUOUS
10
63.7234239999999943
20
-56.3619610000000009
11
63.6758049999999969
21
-56.2667229999999989
0
LINE
8
LYELLOW
6
CONTINUOUS
10
63.6758049999999969
20
-56.2667229999999989
11
63.6281859999999995
21
-56.0762469999999951
0
LINE
8
LYELLOW
6
CONTINUOUS
10
63.6281859999999995
20
-56.0762469999999951
11
63.6281859999999995
21
-55.9333899999999957
0
LINE
8
LYELLOW
6
CONTINUOUS
10
63.6281859999999995
20
-55.9333899999999957
11
63.6758049999999969
21
-55.742913999999999
0
LINE
8
LYELLOW
6
CONTINUOUS
10
63.6758049999999969
20
-55.742913999999999
11
63.7234239999999943
21
-55.647675999999997
0
LINE
8
LYELLOW
6
CONTINUOUS
10
63.7234239999999943
20
-55.647675999999997
11
63.8186619999999962
21
-55.5524379999999951
0
LINE
8
LYELLOW
6
CONTINUOUS
10
63.8186619999999962
20
-55.5524379999999951
11
63.9615189999999956
21
-55.5048189999999977
0
LINE
8
LYELLOW
6
CONTINUOUS
10
63.9615189999999956
20
-55.5048189999999977
11
64.0567569999999904
21
-55.5048189999999977
0
LINE
8
LYELLOW
6
CONTINUOUS
10
64.0567569999999904
20
-55.5048189999999977
11
64.1996139999999968
21
-55.5524379999999951
0
LINE
8
LYELLOW
6
CONTINUOUS
10
64.1996139999999968
20
-55.5524379999999951
11
64.2472329999999943
21
-55.6000569999999996
0
LINE
8
LYELLOW
6
CONTINUOUS
10
64.6281859999999995
20
-55.6000569999999996
11
64.6758049999999969
21
-55.5524379999999951
0
LINE
8
LYELLOW
6
CONTINUOUS
10
64.6758049999999969
20
-55.5524379999999951
11
64.7710429999999917
21
-55.5048189999999977
0
LINE
8
LYELLOW
6
CONTINUOUS
10
64.7710429999999917
20
-55.5048189999999977
11
65.009137999999993
21
-55.5048189999999977
0
LINE
8
LYELLOW
6
CONTINUOUS
10
65.009137999999993
20
-55.5048189999999977
11
65.104376000000002
21
-55.5524379999999951
0
LINE
8
LYELLOW
6
CONTINUOUS
10
65.104376000000002
20
-55.5524379999999951
11
65.1519949999999994
21
-55.6000569999999996
0
LINE
8
LYELLOW
6
CONTINUOUS
10
65.1519949999999994
20
-55.6000569999999996
11
65.1996139999999968
21
-55.6952949999999944
0
LINE
8
LYELLOW
6
CONTINUOUS
10
65.1996139999999968
20
-55.6952949999999944
11
65.1996139999999968
21
-55.7905329999999964
0
LINE
8
LYELLOW
6
CONTINUOUS
10
65.1996139999999968
20
-55.7905329999999964
11
65.1519949999999994
21
-55.9333899999999957
0
LINE
8
LYELLOW
6
CONTINUOUS
10
65.1519949999999994
20
-55.9333899999999957
11
64.5805670000000021
21
-56.5048189999999977
0
LINE
8
LYELLOW
6
CONTINUOUS
10
64.5805670000000021
20
-56.5048189999999977
11
65.1996139999999968
21
-56.5048189999999977
0
LINE
8
LYELLOW
6
CONTINUOUS
10
72.0369049999999902
20
-44.1348190000000002
11
72.0369049999999902
21
-43.1348190000000002
0
LINE
8
LYELLOW
6
CONTINUOUS
10
72.0369049999999902
20
-43.1348190000000002
11
72.2749999999999915
21
-43.1348190000000002
0
LINE
8
LYELLOW
6
CONTINUOUS
10
72.2749999999999915
20
-43.1348190000000002
11
72.4178569999999979
21
-43.1824379999999977
0
LINE
8
LYELLOW
6
CONTINUOUS
10
72.4178569999999979
20
-43.1824379999999977
11
72.5130949999999928
21
-43.2776759999999996
0
LINE
8
LYELLOW
6
CONTINUOUS
10
72.5130949999999928
20
-43.2776759999999996
11
72.5607139999999902
21
-43.3729140000000015
0
LINE
8
LYELLOW
6
CONTINUOUS
10
72.5607139999999902
20
-43.3729140000000015
11
72.6083330000000018
21
-43.5633899999999983
0
LINE
8
LYELLOW
6
CONTINUOUS
10
72.6083330000000018
20
-43.5633899999999983
11
72.6083330000000018
21
-43.7062469999999976
0
LINE
8
LYELLOW
6
CONTINUOUS
10
72.6083330000000018
20
-43.7062469999999976
11
72.5607139999999902
21
-43.8967230000000015
0
LINE
8
LYELLOW
6
CONTINUOUS
10
72.5607139999999902
20
-43.8967230000000015
11
72.5130949999999928
21
-43.9919609999999963
0
LINE
8
LYELLOW
6
CONTINUOUS
10
72.5130949999999928
20
-43.9919609999999963
11
72.4178569999999979
21
-44.0871999999999957
0
LINE
8
LYELLOW
6
CONTINUOUS
10
72.4178569999999979
20
-44.0871999999999957
11
72.2749999999999915
21
-44.1348190000000002
0
LINE
8
LYELLOW
6
CONTINUOUS
10
72.2749999999999915
20
-44.1348190000000002
11
72.0369049999999902
21
-44.1348190000000002
0
LINE
8
LYELLOW
6
CONTINUOUS
10
72.9416669999999954
20
-43.1348190000000002
11
73.5607139999999902
21
-43.1348190000000002
0
LINE
8
LYELLOW
6
CONTINUOUS
10
73.5607139999999902
20
-43.1348190000000002
11
73.2273809999999941
21
-43.5157710000000009
0
LINE
8
LYELLOW
6
CONTINUOUS
10
73.2273809999999941
20
-43.5157710000000009
11
73.3702380000000005
21
-43.5157710000000009
0
LINE
8
LYELLOW
6
CONTINUOUS
10
73.3702380000000005
20
-43.5157710000000009
11
73.4654759999999953
21
-43.5633899999999983
0
LINE
8
LYELLOW
6
CONTINUOUS
10
73.4654759999999953
20
-43.5633899999999983
11
73.5130949999999928
21
-43.6110089999999957
0
LINE
8
LYELLOW
6
CONTINUOUS
10
73.5130949999999928
20
-43.6110089999999957
11
73.5607139999999902
21
-43.7062469999999976
0
LINE
8
LYELLOW
6
CONTINUOUS
10
73.5607139999999902
20
-43.7062469999999976
11
73.5607139999999902
21
-43.9443419999999989
0
LINE
8
LYELLOW
6
CONTINUOUS
10
73.5607139999999902
20
-43.9443419999999989
11
73.5130949999999928
21
-44.0395800000000008
0
LINE
8
LYELLOW
6
CONTINUOUS
10
73.5130949999999928
20
-44.0395800000000008
11
73.4654759999999953
21
-44.0871999999999957
0
LINE
8
LYELLOW
6
CONTINUOUS
10
73.4654759999999953
20
-44.0871999999999957
11
73.3702380000000005
21
-44.1348190000000002
0
LINE
8
LYELLOW
6
CONTINUOUS
10
73.3702380000000005
20
-44.1348190000000002
11
73.0845240000000018
21
-44.1348190000000002
0
LINE
8
LYELLOW
6
CONTINUOUS
10
73.0845240000000018
20
-44.1348190000000002
11
72.9892859999999928
21
-44.0871999999999957
0
LINE
8
LYELLOW
6
CONTINUOUS
10
72.9892859999999928
20
-44.0871999999999957
11
72.9416669999999954
21
-44.0395800000000008
0
LINE
8
LYELLOW
6
CONTINUOUS
10
67.4330949999999945
20
-44.5048189999999977
11
67.4330949999999945
21
-43.5048189999999977
0
LINE
8
LYELLOW
6
CONTINUOUS
10
68.0045229999999918
20
-44.5048189999999977
11
67.5759520000000009
21
-43.9333899999999957
0
LINE
8
LYELLOW
6
CONTINUOUS
10
68.0045229999999918
20
-43.5048189999999977
11
67.4330949999999945
21
-44.0762469999999951
0
LINE
8
LYELLOW
6
CONTINUOUS
10
36.216904999999997
20
-50.3848190000000002
11
36.216904999999997
21
-49.3848190000000002
0
LINE
8
LYELLOW
6
CONTINUOUS
10
36.216904999999997
20
-49.3848190000000002
11
36.4549999999999983
21
-49.3848190000000002
0
LINE
8
LYELLOW
6
CONTINUOUS
10
36.4549999999999983
20
-49.3848190000000002
11
36.5978569999999976
21
-49.4324379999999977
0
LINE
8
LYELLOW
6
CONTINUOUS
10
36.5978569999999976
20
-49.4324379999999977
11
36.6930949999999996
21
-49.5276759999999996
0
LINE
8
LYELLOW
6
CONTINUOUS
10
36.6930949999999996
20
-49.5276759999999996
11
36.740713999999997
21
-49.6229139999999944
0
LINE
8
LYELLOW
6
CONTINUOUS
10
36.740713999999997
20
-49.6229139999999944
11
36.7883330000000015
21
-49.8133899999999983
0
LINE
8
LYELLOW
6
CONTINUOUS
10
36.7883330000000015
20
-49.8133899999999983
11
36.7883330000000015
21
-49.9562469999999976
0
LINE
8
LYELLOW
6
CONTINUOUS
10
36.7883330000000015
20
-49.9562469999999976
11
36.740713999999997
21
-50.1467229999999944
0
LINE
8
LYELLOW
6
CONTINUOUS
10
36.740713999999997
20
-50.1467229999999944
11
36.6930949999999996
21
-50.2419609999999963
0
LINE
8
LYELLOW
6
CONTINUOUS
10
36.6930949999999996
20
-50.2419609999999963
11
36.5978569999999976
21
-50.3371999999999957
0
LINE
8
LYELLOW
6
CONTINUOUS
10
36.5978569999999976
20
-50.3371999999999957
11
36.4549999999999983
21
-50.3848190000000002
0
LINE
8
LYELLOW
6
CONTINUOUS
10
36.4549999999999983
20
-50.3848190000000002
11
36.216904999999997
21
-50.3848190000000002
0
LINE
8
LYELLOW
6
CONTINUOUS
10
37.6454759999999951
20
-49.7181519999999963
11
37.6454759999999951
21
-50.3848190000000002
0
LINE
8
LYELLOW
6
CONTINUOUS
10
37.4073810000000009
20
-49.3371999999999957
11
37.1692859999999996
21
-50.0514849999999996
0
LINE
8
LYELLOW
6
CONTINUOUS
10
37.1692859999999996
20
-50.0514849999999996
11
37.7883330000000015
21
-50.0514849999999996
0
LINE
8
LYELLOW
6
CONTINUOUS
10
31.6130949999999977
20
-50.7548189999999977
11
31.6130949999999977
21
-49.7548189999999977
0
LINE
8
LYELLOW
6
CONTINUOUS
10
32.1845229999999987
20
-50.7548189999999977
11
31.7559519999999971
21
-50.1833899999999957
0
LINE
8
LYELLOW
6
CONTINUOUS
10
32.1845229999999987
20
-49.7548189999999977
11
31.6130949999999977
21
-50.3262469999999951
0
LINE
8
LYELLOW
6
CONTINUOUS
10
54.1269050000000007
20
-44.1348190000000002
11
54.1269050000000007
21
-43.1348190000000002
0
LINE
8
LYELLOW
6
CONTINUOUS
10
54.1269050000000007
20
-43.1348190000000002
11
54.3649999999999949
21
-43.1348190000000002
0
LINE
8
LYELLOW
6
CONTINUOUS
10
54.3649999999999949
20
-43.1348190000000002
11
54.5078569999999942
21
-43.1824379999999977
0
LINE
8
LYELLOW
6
CONTINUOUS
10
54.5078569999999942
20
-43.1824379999999977
11
54.6030949999999962
21
-43.2776759999999996
0
LINE
8
LYELLOW
6
CONTINUOUS
10
54.6030949999999962
20
-43.2776759999999996
11
54.6507140000000007
21
-43.3729140000000015
0
LINE
8
LYELLOW
6
CONTINUOUS
10
54.6507140000000007
20
-43.3729140000000015
11
54.6983329999999981
21
-43.5633899999999983
0
LINE
8
LYELLOW
6
CONTINUOUS
10
54.6983329999999981
20
-43.5633899999999983
11
54.6983329999999981
21
-43.7062469999999976
0
LINE
8
LYELLOW
6
CONTINUOUS
10
54.6983329999999981
20
-43.7062469999999976
11
54.6507140000000007
21
-43.8967230000000015
0
LINE
8
LYELLOW
6
CONTINUOUS
10
54.6507140000000007
20
-43.8967230000000015
11
54.6030949999999962
21
-43.9919609999999963
0
LINE
8
LYELLOW
6
CONTINUOUS
10
54.6030949999999962
20
-43.9919609999999963
11
54.5078569999999942
21
-44.0871999999999957
0
LINE
8
LYELLOW
6
CONTINUOUS
10
54.5078569999999942
20
-44.0871999999999957
11
54.3649999999999949
21
-44.1348190000000002
0
LINE
8
LYELLOW
6
CONTINUOUS
10
54.3649999999999949
20
-44.1348190000000002
11
54.1269050000000007
21
-44.1348190000000002
0
LINE
8
LYELLOW
6
CONTINUOUS
10
55.0792859999999962
20
-43.2300569999999951
11
55.1269050000000007
21
-43.1824379999999977
0
LINE
8
LYELLOW
6
CONTINUOUS
10
55.1269050000000007
20
-43.1824379999999977
11
55.2221429999999955
21
-43.1348190000000002
0
LINE
8
LYELLOW
6
CONTINUOUS
10
55.2221429999999955
20
-43.1348190000000002
11
55.4602379999999968
21
-43.1348190000000002
0
LINE
8
LYELLOW
6
CONTINUOUS
10
55.4602379999999968
20
-43.1348190000000002
11
55.5554759999999987
21
-43.1824379999999977
0
LINE
8
LYELLOW
6
CONTINUOUS
10
55.5554759999999987
20
-43.1824379999999977
11
55.6030949999999962
21
-43.2300569999999951
0
LINE
8
LYELLOW
6
CONTINUOUS
10
55.6030949999999962
20
-43.2300569999999951
11
55.6507140000000007
21
-43.325294999999997
0
LINE
8
LYELLOW
6
CONTINUOUS
10
55.6507140000000007
20
-43.325294999999997
11
55.6507140000000007
21
-43.4205329999999989
0
LINE
8
LYELLOW
6
CONTINUOUS
10
55.6507140000000007
20
-43.4205329999999989
11
55.6030949999999962
21
-43.5633899999999983
0
LINE
8
LYELLOW
6
CONTINUOUS
10
55.6030949999999962
20
-43.5633899999999983
11
55.0316669999999988
21
-44.1348190000000002
0
LINE
8
LYELLOW
6
CONTINUOUS
10
55.0316669999999988
20
-44.1348190000000002
11
55.6507140000000007
21
-44.1348190000000002
0
LINE
8
LYELLOW
6
CONTINUOUS
10
49.5230949999999979
20
-44.5048189999999977
11
49.5230949999999979
21
-43.5048189999999977
0
LINE
8
LYELLOW
6
CONTINUOUS
10
50.0945229999999952
20
-44.5048189999999977
11
49.6659519999999972
21
-43.9333899999999957
0
LINE
8
LYELLOW
6
CONTINUOUS
10
50.0945229999999952
20
-43.5048189999999977
11
49.5230949999999979
21
-44.0762469999999951
0
LINE
8
LYELLOW
6
CONTINUOUS
10
59.3127329999999944
20
-85.9348189999999903
11
58.9793999999999983
21
-85.4586279999999903
0
LINE
8
LYELLOW
6
CONTINUOUS
10
58.741304999999997
20
-85.9348189999999903
11
58.741304999999997
21
-84.9348189999999903
0
LINE
8
LYELLOW
6
CONTINUOUS
10
58.741304999999997
20
-84.9348189999999903
11
59.1222569999999976
21
-84.9348189999999903
0
LINE
8
LYELLOW
6
CONTINUOUS
10
59.1222569999999976
20
-84.9348189999999903
11
59.2174949999999995
21
-84.9824380000000019
0
LINE
8
LYELLOW
6
CONTINUOUS
10
59.2174949999999995
20
-84.9824380000000019
11
59.265113999999997
21
-85.0300569999999993
0
LINE
8
LYELLOW
6
CONTINUOUS
10
59.265113999999997
20
-85.0300569999999993
11
59.3127329999999944
21
-85.1252949999999942
0
LINE
8
LYELLOW
6
CONTINUOUS
10
59.3127329999999944
20
-85.1252949999999942
11
59.3127329999999944
21
-85.2681520000000006
0
LINE
8
LYELLOW
6
CONTINUOUS
10
59.3127329999999944
20
-85.2681520000000006
11
59.265113999999997
21
-85.3633899999999954
0
LINE
8
LYELLOW
6
CONTINUOUS
10
59.265113999999997
20
-85.3633899999999954
11
59.2174949999999995
21
-85.4110089999999929
0
LINE
8
LYELLOW
6
CONTINUOUS
10
59.2174949999999995
20
-85.4110089999999929
11
59.1222569999999976
21
-85.4586279999999903
0
LINE
8
LYELLOW
6
CONTINUOUS
10
59.1222569999999976
20
-85.4586279999999903
11
58.741304999999997
21
-85.4586279999999903
0
LINE
8
LYELLOW
6
CONTINUOUS
10
60.265113999999997
20
-85.9348189999999903
11
59.6936859999999996
21
-85.9348189999999903
0
LINE
8
LYELLOW
6
CONTINUOUS
10
59.9793999999999983
20
-85.9348189999999903
11
59.9793999999999983
21
-84.9348189999999903
0
LINE
8
LYELLOW
6
CONTINUOUS
10
59.9793999999999983
20
-84.9348189999999903
11
59.8841619999999963
21
-85.0776759999999967
0
LINE
8
LYELLOW
6
CONTINUOUS
10
59.8841619999999963
20
-85.0776759999999967
11
59.7889239999999944
21
-85.1729139999999916
0
LINE
8
LYELLOW
6
CONTINUOUS
10
59.7889239999999944
20
-85.1729139999999916
11
59.6936859999999996
21
-85.2205330000000032
0
LINE
8
LYELLOW
6
CONTINUOUS
10
36.216904999999997
20
-44.1348190000000002
11
36.216904999999997
21
-43.1348190000000002
0
LINE
8
LYELLOW
6
CONTINUOUS
10
36.216904999999997
20
-43.1348190000000002
11
36.4549999999999983
21
-43.1348190000000002
0
LINE
8
LYELLOW
6
CONTINUOUS
10
36.4549999999999983
20
-43.1348190000000002
11
36.5978569999999976
21
-43.1824379999999977
0
LINE
8
LYELLOW
6
CONTINUOUS
10
36.5978569999999976
20
-43.1824379999999977
11
36.6930949999999996
21
-43.2776759999999996
0
LINE
8
LYELLOW
6
CONTINUOUS
10
36.6930949999999996
20
-43.2776759999999996
11
36.740713999999997
21
-43.3729140000000015
0
LINE
8
LYELLOW
6
CONTINUOUS
10
36.740713999999997
20
-43.3729140000000015
11
36.7883330000000015
21
-43.5633899999999983
0
LINE
8
LYELLOW
6
CONTINUOUS
10
36.7883330000000015
20
-43.5633899999999983
11
36.7883330000000015
21
-43.7062469999999976
0
LINE
8
LYELLOW
6
CONTINUOUS
10
36.7883330000000015
20
-43.7062469999999976
11
36.740713999999997
21
-43.8967230000000015
0
LINE
8
LYELLOW
6
CONTINUOUS
10
36.740713999999997
20
-43.8967230000000015
11
36.6930949999999996
21
-43.9919609999999963
0
LINE
8
LYELLOW
6
CONTINUOUS
10
36.6930949999999996
20
-43.9919609999999963
11
36.5978569999999976
21
-44.0871999999999957
0
LINE
8
LYELLOW
6
CONTINUOUS
10
36.5978569999999976
20
-44.0871999999999957
11
36.4549999999999983
21
-44.1348190000000002
0
LINE
8
LYELLOW
6
CONTINUOUS
10
36.4549999999999983
20
-44.1348190000000002
11
36.216904999999997
21
-44.1348190000000002
0
LINE
8
LYELLOW
6
CONTINUOUS
10
37.740713999999997
20
-44.1348190000000002
11
37.1692859999999996
21
-44.1348190000000002
0
LINE
8
LYELLOW
6
CONTINUOUS
10
37.4549999999999983
20
-44.1348190000000002
11
37.4549999999999983
21
-43.1348190000000002
0
LINE
8
LYELLOW
6
CONTINUOUS
10
37.4549999999999983
20
-43.1348190000000002
11
37.3597619999999964
21
-43.2776759999999996
0
LINE
8
LYELLOW
6
CONTINUOUS
10
37.3597619999999964
20
-43.2776759999999996
11
37.2645240000000015
21
-43.3729140000000015
0
LINE
8
LYELLOW
6
CONTINUOUS
10
37.2645240000000015
20
-43.3729140000000015
11
37.1692859999999996
21
-43.4205329999999989
0
LINE
8
LYELLOW
6
CONTINUOUS
10
31.6130949999999977
20
-44.5048189999999977
11
31.6130949999999977
21
-43.5048189999999977
0
LINE
8
LYELLOW
6
CONTINUOUS
10
32.1845229999999987
20
-44.5048189999999977
11
31.7559519999999971
21
-43.9333899999999957
0
LINE
8
LYELLOW
6
CONTINUOUS
10
32.1845229999999987
20
-43.5048189999999977
11
31.6130949999999977
21
-44.0762469999999951
0
LINE
8
LYELLOW
6
CONTINUOUS
10
30.5599600000000002
20
-61.1849999999999952
11
32.3599600000000009
21
-61.1849999999999952
0
LINE
8
LYELLOW
6
CONTINUOUS
10
31.4599599999999988
20
-60.2849999999999966
11
31.4599599999999988
21
-62.0849999999999937
0
LINE
8
LYELLOW
6
CONTINUOUS
10
40.3194000000000017
20
-57.2199999999999989
11
40.3194000000000017
21
-75.3799999999999955
0
LINE
8
LYELLOW
6
CONTINUOUS
10
40.3594000000000008
20
-57.2199999999999989
11
40.3594000000000008
21
-75.3799999999999955
0
LINE
8
LYELLOW
6
CONTINUOUS
10
40.3994
20
-57.2199999999999989
11
40.3994
21
-75.3799999999999955
0
LINE
8
LYELLOW
6
CONTINUOUS
10
40.4393999999999991
20
-57.2209999999999965
11
40.4393999999999991
21
-75.3789999999999907
0
LINE
8
LYELLOW
6
CONTINUOUS
10
40.4793999999999983
20
-57.2209999999999965
11
40.4793999999999983
21
-75.3789999999999907
0
LINE
8
LYELLOW
6
CONTINUOUS
10
40.5193999999999974
20
-57.2219999999999942
11
40.5193999999999974
21
-75.3780000000000001
0
LINE
8
LYELLOW
6
CONTINUOUS
10
40.5593999999999966
20
-57.222999999999999
11
40.5593999999999966
21
-75.3769999999999953
0
LINE
8
LYELLOW
6
CONTINUOUS
10
40.5993999999999957
20
-57.2239999999999966
11
40.5993999999999957
21
-75.3759999999999906
0
LINE
8
LYELLOW
6
CONTINUOUS
10
40.6393999999999949
20
-57.2259999999999991
11
40.6393999999999949
21
-75.3739999999999952
0
LINE
8
LYELLOW
6
CONTINUOUS
10
40.6794000000000011
20
-57.2269999999999968
11
40.6794000000000011
21
-75.3729999999999905
0
LINE
8
LYELLOW
6
CONTINUOUS
10
40.7194000000000003
20
-57.2289999999999992
11
40.7194000000000003
21
-75.3709999999999951
0
LINE
8
LYELLOW
6
CONTINUOUS
10
40.7593999999999994
20
-57.2309999999999945
11
40.7593999999999994
21
-75.3689999999999998
0
LINE
8
LYELLOW
6
CONTINUOUS
10
40.7993999999999986
20
-57.232999999999997
11
40.7993999999999986
21
-75.3669999999999902
0
LINE
8
LYELLOW
6
CONTINUOUS
10
40.8393999999999977
20
-57.2349999999999994
11
40.8393999999999977
21
-75.3649999999999949
0
LINE
8
LYELLOW
6
CONTINUOUS
10
40.8793999999999969
20
-57.2369999999999948
11
40.8793999999999969
21
-75.3629999999999995
0
LINE
8
LYELLOW
6
CONTINUOUS
10
40.919399999999996
20
-57.2399999999999949
11
40.919399999999996
21
-75.3599999999999994
0
LINE
8
LYELLOW
6
CONTINUOUS
10
40.9593999999999951
20
-57.2419999999999973
11
40.9593999999999951
21
-75.3579999999999899
0
LINE
8
LYELLOW
6
CONTINUOUS
10
40.9994000000000014
20
-57.2449999999999974
11
40.9994000000000014
21
-75.3549999999999898
0
LINE
8
LYELLOW
6
CONTINUOUS
10
41.0394000000000005
20
-57.2479999999999976
11
41.0394000000000005
21
-75.3519999999999897
0
LINE
8
LYELLOW
6
CONTINUOUS
10
41.0793999999999997
20
-57.2519999999999953
11
41.0793999999999997
21
-75.347999999999999
0
LINE
8
LYELLOW
6
CONTINUOUS
10
41.1193999999999988
20
-57.2549999999999955
11
41.1193999999999988
21
-75.3449999999999989
0
LINE
8
LYELLOW
6
CONTINUOUS
10
41.159399999999998
20
-57.2590000000000003
11
41.159399999999998
21
-75.340999999999994
0
LINE
8
LYELLOW
6
CONTINUOUS
10
41.1993999999999971
20
-57.2629999999999981
11
41.1993999999999971
21
-75.3370000000000033
0
LINE
8
LYELLOW
6
CONTINUOUS
10
41.2393999999999963
20
-57.2669999999999959
11
41.2393999999999963
21
-75.3329999999999984
0
LINE
8
LYELLOW
6
CONTINUOUS
10
41.2793999999999954
20
-57.2710000000000008
11
41.2793999999999954
21
-75.3289999999999935
0
LINE
8
LYELLOW
6
CONTINUOUS
10
41.3194000000000017
20
-57.2749999999999986
11
41.3194000000000017
21
-75.3250000000000028
0
LINE
8
LYELLOW
6
CONTINUOUS
10
41.3594000000000008
20
-57.2789999999999964
11
41.3594000000000008
21
-75.320999999999998
0
LINE
8
LYELLOW
6
CONTINUOUS
10
41.3994
20
-57.2839999999999989
11
41.3994
21
-75.3160000000000025
0
LINE
8
LYELLOW
6
CONTINUOUS
10
41.4393999999999991
20
-57.2889999999999944
11
41.4393999999999991
21
-75.3109999999999928
0
LINE
8
LYELLOW
6
CONTINUOUS
10
41.4793999999999983
20
-57.2939999999999969
11
41.4793999999999983
21
-75.3059999999999974
0
LINE
8
LYELLOW
6
CONTINUOUS
10
41.5193999999999974
20
-57.2989999999999995
11
41.5193999999999974
21
-75.3010000000000019
0
LINE
8
LYELLOW
6
CONTINUOUS
10
41.5593999999999966
20
-57.3049999999999997
11
41.5593999999999966
21
-75.2950000000000017
0
LINE
8
LYELLOW
6
CONTINUOUS
10
41.5993999999999957
20
-57.3099999999999952
11
41.5993999999999957
21
-75.289999999999992
0
LINE
8
LYELLOW
6
CONTINUOUS
10
41.6393999999999949
20
-57.3159999999999954
11
41.6393999999999949
21
-75.2839999999999918
0
LINE
8
LYELLOW
6
CONTINUOUS
10
41.6794000000000011
20
-57.3219999999999956
11
41.6794000000000011
21
-75.2779999999999916
0
LINE
8
LYELLOW
6
CONTINUOUS
10
41.7194000000000003
20
-57.3279999999999959
11
41.7194000000000003
21
-75.2719999999999914
0
LINE
8
LYELLOW
6
CONTINUOUS
10
41.7593999999999994
20
-57.3339999999999961
11
41.7593999999999994
21
-75.2659999999999911
0
LINE
8
LYELLOW
6
CONTINUOUS
10
41.7993999999999986
20
-57.340999999999994
11
41.7993999999999986
21
-75.2590000000000003
0
LINE
8
LYELLOW
6
CONTINUOUS
10
41.8393999999999977
20
-57.347999999999999
11
41.8393999999999977
21
-75.2519999999999953
0
LINE
8
LYELLOW
6
CONTINUOUS
10
41.8793999999999969
20
-57.3539999999999992
11
41.8793999999999969
21
-75.2459999999999951
0
LINE
8
LYELLOW
6
CONTINUOUS
10
41.919399999999996
20
-57.3609999999999971
11
41.919399999999996
21
-75.2389999999999901
0
LINE
8
LYELLOW
6
CONTINUOUS
10
41.9593999999999951
20
-57.3689999999999998
11
41.9593999999999951
21
-75.2309999999999945
0
LINE
8
LYELLOW
6
CONTINUOUS
10
41.9994000000000014
20
-57.3759999999999977
11
41.9994000000000014
21
-75.2239999999999895
0
LINE
8
LYELLOW
6
CONTINUOUS
10
42.0394000000000005
20
-57.3840000000000003
11
42.0394000000000005
21
-75.215999999999994
0
LINE
8
LYELLOW
6
CONTINUOUS
10
42.0793999999999997
20
-57.3909999999999982
11
42.0793999999999997
21
-75.2090000000000032
0
LINE
8
LYELLOW
6
CONTINUOUS
10
42.1193999999999988
20
-57.3990000000000009
11
42.1193999999999988
21
-75.2009999999999934
0
LINE
8
LYELLOW
6
CONTINUOUS
10
42.159399999999998
20
-57.4079999999999941
11
42.159399999999998
21
-75.1919999999999931
0
LINE
8
LYELLOW
6
CONTINUOUS
10
42.1993999999999971
20
-57.4159999999999968
11
42.1993999999999971
21
-75.1839999999999975
0
LINE
8
LYELLOW
6
CONTINUOUS
10
42.2393999999999963
20
-57.4239999999999995
11
42.2393999999999963
21
-75.1760000000000019
0
LINE
8
LYELLOW
6
CONTINUOUS
10
42.2793999999999954
20
-57.4329999999999998
11
42.2793999999999954
21
-75.1670000000000016
0
LINE
8
LYELLOW
6
CONTINUOUS
10
42.3193999999999946
20
-57.4420000000000002
11
42.3193999999999946
21
-75.1580000000000013
0
LINE
8
LYELLOW
6
CONTINUOUS
10
42.3594000000000008
20
-57.4510000000000005
11
42.3594000000000008
21
-75.1490000000000009
0
LINE
8
LYELLOW
6
CONTINUOUS
10
42.3994
20
-57.4600000000000009
11
42.3994
21
-75.1400000000000006
0
LINE
8
LYELLOW
6
CONTINUOUS
10
42.4393999999999991
20
-57.4699999999999989
11
42.4393999999999991
21
-75.1299999999999955
0
LINE
8
LYELLOW
6
CONTINUOUS
10
42.4793999999999983
20
-57.4789999999999992
11
42.4793999999999983
21
-75.1209999999999951
0
LINE
8
LYELLOW
6
CONTINUOUS
10
42.5193999999999974
20
-57.4889999999999972
11
42.5193999999999974
21
-75.11099999999999
0
LINE
8
LYELLOW
6
CONTINUOUS
10
42.5593999999999966
20
-57.4989999999999952
11
42.5593999999999966
21
-75.1009999999999991
0
LINE
8
LYELLOW
6
CONTINUOUS
10
42.5993999999999957
20
-57.509999999999998
11
42.5993999999999957
21
-75.0900000000000034
0
LINE
8
LYELLOW
6
CONTINUOUS
10
42.6393999999999949
20
-57.519999999999996
11
42.6393999999999949
21
-64.8599999999999994
0
LINE
8
LYELLOW
6
CONTINUOUS
10
42.6393999999999949
20
-67.7399999999999949
11
42.6393999999999949
21
-75.0799999999999983
0
LINE
8
LYELLOW
6
CONTINUOUS
10
42.6794000000000011
20
-57.5309999999999988
11
42.6794000000000011
21
-64.8599999999999994
0
LINE
8
LYELLOW
6
CONTINUOUS
10
42.6794000000000011
20
-67.7399999999999949
11
42.6794000000000011
21
-75.0690000000000026
0
LINE
8
LYELLOW
6
CONTINUOUS
10
42.7194000000000003
20
-57.5409999999999968
11
42.7194000000000003
21
-64.8599999999999994
0
LINE
8
LYELLOW
6
CONTINUOUS
10
42.7194000000000003
20
-67.7399999999999949
11
42.7194000000000003
21
-75.0589999999999975
0
LINE
8
LYELLOW
6
CONTINUOUS
10
42.7593999999999994
20
-57.5519999999999996
11
42.7593999999999994
21
-64.8599999999999994
0
LINE
8
LYELLOW
6
CONTINUOUS
10
42.7593999999999994
20
-67.7399999999999949
11
42.7593999999999994
21
-75.0480000000000018
0
LINE
8
LYELLOW
6
CONTINUOUS
10
42.7993999999999986
20
-57.5640000000000001
11
42.7993999999999986
21
-64.8599999999999994
0
LINE
8
LYELLOW
6
CONTINUOUS
10
42.7993999999999986
20
-67.7399999999999949
11
42.7993999999999986
21
-75.0360000000000014
0
LINE
8
LYELLOW
6
CONTINUOUS
10
42.8393999999999977
20
-57.5749999999999957
11
42.8393999999999977
21
-64.8599999999999994
0
LINE
8
LYELLOW
6
CONTINUOUS
10
42.8393999999999977
20
-67.7399999999999949
11
42.8393999999999977
21
-75.0249999999999915
0
LINE
8
LYELLOW
6
CONTINUOUS
10
42.8793999999999969
20
-57.5869999999999962
11
42.8793999999999969
21
-64.8599999999999994
0
LINE
8
LYELLOW
6
CONTINUOUS
10
42.8793999999999969
20
-67.7399999999999949
11
42.8793999999999969
21
-75.012999999999991
0
LINE
8
LYELLOW
6
CONTINUOUS
10
42.919399999999996
20
-57.597999999999999
11
42.919399999999996
21
-64.8599999999999994
0
LINE
8
LYELLOW
6
CONTINUOUS
10
42.919399999999996
20
-67.7399999999999949
11
42.919399999999996
21
-75.0019999999999953
0
LINE
8
LYELLOW
6
CONTINUOUS
10
42.9593999999999951
20
-57.6099999999999994
11
42.9593999999999951
21
-64.8599999999999994
0
LINE
8
LYELLOW
6
CONTINUOUS
10
42.9593999999999951
20
-67.7399999999999949
11
42.9593999999999951
21
-74.9899999999999949
0
LINE
8
LYELLOW
6
CONTINUOUS
10
42.9994000000000014
20
-57.6229999999999976
11
42.9994000000000014
21
-64.8599999999999994
0
LINE
8
LYELLOW
6
CONTINUOUS
10
42.9994000000000014
20
-67.7399999999999949
11
42.9994000000000014
21
-74.9769999999999897
0
LINE
8
LYELLOW
6
CONTINUOUS
10
43.0394000000000005
20
-57.634999999999998
11
43.0394000000000005
21
-64.8599999999999994
0
LINE
8
LYELLOW
6
CONTINUOUS
10
43.0394000000000005
20
-67.7399999999999949
11
43.0394000000000005
21
-74.9650000000000034
0
LINE
8
LYELLOW
6
CONTINUOUS
10
43.0793999999999997
20
-57.6479999999999961
11
43.0793999999999997
21
-64.8599999999999994
0
LINE
8
LYELLOW
6
CONTINUOUS
10
43.0793999999999997
20
-67.7399999999999949
11
43.0793999999999997
21
-74.9519999999999982
0
LINE
8
LYELLOW
6
CONTINUOUS
10
43.1193999999999988
20
-57.6599999999999966
11
43.1193999999999988
21
-64.8599999999999994
0
LINE
8
LYELLOW
6
CONTINUOUS
10
43.1193999999999988
20
-67.7399999999999949
11
43.1193999999999988
21
-74.9399999999999977
0
LINE
8
LYELLOW
6
CONTINUOUS
10
43.159399999999998
20
-57.6729999999999947
11
43.159399999999998
21
-64.8599999999999994
0
LINE
8
LYELLOW
6
CONTINUOUS
10
43.159399999999998
20
-67.7399999999999949
11
43.159399999999998
21
-74.9269999999999925
0
LINE
8
LYELLOW
6
CONTINUOUS
10
43.1993999999999971
20
-57.6869999999999976
11
43.1993999999999971
21
-64.8599999999999994
0
LINE
8
LYELLOW
6
CONTINUOUS
10
43.1993999999999971
20
-67.7399999999999949
11
43.1993999999999971
21
-74.9129999999999967
0
LINE
8
LYELLOW
6
CONTINUOUS
10
43.2393999999999963
20
-57.6999999999999957
11
43.2393999999999963
21
-64.8599999999999994
0
LINE
8
LYELLOW
6
CONTINUOUS
10
43.2393999999999963
20
-67.7399999999999949
11
43.2393999999999963
21
-74.8999999999999915
0
LINE
8
LYELLOW
6
CONTINUOUS
10
43.2793999999999954
20
-57.7139999999999986
11
43.2793999999999954
21
-64.8599999999999994
0
LINE
8
LYELLOW
6
CONTINUOUS
10
43.2793999999999954
20
-67.7399999999999949
11
43.2793999999999954
21
-74.8859999999999957
0
LINE
8
LYELLOW
6
CONTINUOUS
10
43.3193999999999946
20
-57.7279999999999944
11
43.3193999999999946
21
-64.8599999999999994
0
LINE
8
LYELLOW
6
CONTINUOUS
10
43.3193999999999946
20
-67.7399999999999949
11
43.3193999999999946
21
-74.8719999999999999
0
LINE
8
LYELLOW
6
CONTINUOUS
10
43.3594000000000008
20
-57.7419999999999973
11
43.3594000000000008
21
-64.8599999999999994
0
LINE
8
LYELLOW
6
CONTINUOUS
10
43.3594000000000008
20
-67.7399999999999949
11
43.3594000000000008
21
-74.8579999999999899
0
LINE
8
LYELLOW
6
CONTINUOUS
10
43.3994
20
-57.7560000000000002
11
43.3994
21
-64.8599999999999994
0
LINE
8
LYELLOW
6
CONTINUOUS
10
43.3994
20
-67.7399999999999949
11
43.3994
21
-74.8439999999999941
0
LINE
8
LYELLOW
6
CONTINUOUS
10
43.4393999999999991
20
-57.769999999999996
11
43.4393999999999991
21
-64.8599999999999994
0
LINE
8
LYELLOW
6
CONTINUOUS
10
43.4393999999999991
20
-67.7399999999999949
11
43.4393999999999991
21
-74.8299999999999983
0
LINE
8
LYELLOW
6
CONTINUOUS
10
43.4793999999999983
20
-57.7849999999999966
11
43.4793999999999983
21
-64.8599999999999994
0
LINE
8
LYELLOW
6
CONTINUOUS
10
43.4793999999999983
20
-67.7399999999999949
11
43.4793999999999983
21
-74.8149999999999977
0
LINE
8
LYELLOW
6
CONTINUOUS
10
43.5193999999999974
20
-57.7999999999999972
11
43.5193999999999974
21
-64.8599999999999994
0
LINE
8
LYELLOW
6
CONTINUOUS
10
43.5193999999999974
20
-67.7399999999999949
11
43.5193999999999974
21
-74.7999999999999972
0
LINE
8
LYELLOW
6
CONTINUOUS
10
43.5593999999999966
20
-57.8149999999999977
11
43.5593999999999966
21
-64.8599999999999994
0
LINE
8
LYELLOW
6
CONTINUOUS
10
43.5593999999999966
20
-67.7399999999999949
11
43.5593999999999966
21
-74.7849999999999966
0
LINE
8
LYELLOW
6
CONTINUOUS
10
43.5993999999999957
20
-57.8299999999999983
11
43.5993999999999957
21
-64.8599999999999994
0
LINE
8
LYELLOW
6
CONTINUOUS
10
43.5993999999999957
20
-67.7399999999999949
11
43.5993999999999957
21
-74.769999999999996
0
LINE
8
LYELLOW
6
CONTINUOUS
10
43.6393999999999949
20
-57.8459999999999965
11
43.6393999999999949
21
-64.8599999999999994
0
LINE
8
LYELLOW
6
CONTINUOUS
10
43.6393999999999949
20
-67.7399999999999949
11
43.6393999999999949
21
-74.7539999999999907
0
LINE
8
LYELLOW
6
CONTINUOUS
10
43.6794000000000011
20
-57.8619999999999948
11
43.6794000000000011
21
-64.8599999999999994
0
LINE
8
LYELLOW
6
CONTINUOUS
10
43.6794000000000011
20
-67.7399999999999949
11
43.6794000000000011
21
-74.7379999999999995
0
LINE
8
LYELLOW
6
CONTINUOUS
10
43.7194000000000003
20
-57.8769999999999953
11
43.7194000000000003
21
-64.8599999999999994
0
LINE
8
LYELLOW
6
CONTINUOUS
10
43.7194000000000003
20
-67.7399999999999949
11
43.7194000000000003
21
-74.722999999999999
0
LINE
8
LYELLOW
6
CONTINUOUS
10
43.7593999999999994
20
-57.8939999999999984
11
43.7593999999999994
21
-64.8599999999999994
0
LINE
8
LYELLOW
6
CONTINUOUS
10
43.7593999999999994
20
-67.7399999999999949
11
43.7593999999999994
21
-74.7060000000000031
0
LINE
8
LYELLOW
6
CONTINUOUS
10
43.7993999999999986
20
-57.9099999999999966
11
43.7993999999999986
21
-64.8599999999999994
0
LINE
8
LYELLOW
6
CONTINUOUS
10
43.7993999999999986
20
-67.7399999999999949
11
43.7993999999999986
21
-74.6899999999999977
0
LINE
8
LYELLOW
6
CONTINUOUS
10
43.8393999999999977
20
-57.9269999999999996
11
43.8393999999999977
21
-64.8599999999999994
0
LINE
8
LYELLOW
6
CONTINUOUS
10
43.8393999999999977
20
-67.7399999999999949
11
43.8393999999999977
21
-74.6730000000000018
0
LINE
8
LYELLOW
6
CONTINUOUS
10
43.8793999999999969
20
-57.9439999999999955
11
43.8793999999999969
21
-64.8599999999999994
0
LINE
8
LYELLOW
6
CONTINUOUS
10
43.8793999999999969
20
-67.7399999999999949
11
43.8793999999999969
21
-74.6559999999999917
0
LINE
8
LYELLOW
6
CONTINUOUS
10
43.919399999999996
20
-57.9609999999999985
11
43.919399999999996
21
-64.8599999999999994
0
LINE
8
LYELLOW
6
CONTINUOUS
10
43.919399999999996
20
-67.7399999999999949
11
43.919399999999996
21
-74.6389999999999958
0
LINE
8
LYELLOW
6
CONTINUOUS
10
43.9593999999999951
20
-57.9779999999999944
11
43.9593999999999951
21
-64.8599999999999994
0
LINE
8
LYELLOW
6
CONTINUOUS
10
43.9593999999999951
20
-67.7399999999999949
11
43.9593999999999951
21
-74.6219999999999999
0
LINE
8
LYELLOW
6
CONTINUOUS
10
43.9994000000000014
20
-57.9949999999999974
11
43.9994000000000014
21
-64.8599999999999994
0
LINE
8
LYELLOW
6
CONTINUOUS
10
43.9994000000000014
20
-67.7399999999999949
11
43.9994000000000014
21
-74.6049999999999898
0
LINE
8
LYELLOW
6
CONTINUOUS
10
44.0394000000000005
20
-58.0129999999999981
11
44.0394000000000005
21
-64.8599999999999994
0
LINE
8
LYELLOW
6
CONTINUOUS
10
44.0394000000000005
20
-67.7399999999999949
11
44.0394000000000005
21
-74.5870000000000033
0
LINE
8
LYELLOW
6
CONTINUOUS
10
44.0793999999999997
20
-58.0309999999999988
11
44.0793999999999997
21
-64.8599999999999994
0
LINE
8
LYELLOW
6
CONTINUOUS
10
44.0793999999999997
20
-67.7399999999999949
11
44.0793999999999997
21
-74.5690000000000026
0
LINE
8
LYELLOW
6
CONTINUOUS
10
44.1193999999999988
20
-58.0489999999999995
11
44.1193999999999988
21
-64.8599999999999994
0
LINE
8
LYELLOW
6
CONTINUOUS
10
44.1193999999999988
20
-67.7399999999999949
11
44.1193999999999988
21
-74.5510000000000019
0
LINE
8
LYELLOW
6
CONTINUOUS
10
44.159399999999998
20
-58.0679999999999978
11
44.159399999999998
21
-64.8599999999999994
0
LINE
8
LYELLOW
6
CONTINUOUS
10
44.159399999999998
20
-67.7399999999999949
11
44.159399999999998
21
-74.5319999999999965
0
LINE
8
LYELLOW
6
CONTINUOUS
10
44.1993999999999971
20
-58.0869999999999962
11
44.1993999999999971
21
-64.8599999999999994
0
LINE
8
LYELLOW
6
CONTINUOUS
10
44.1993999999999971
20
-67.7399999999999949
11
44.1993999999999971
21
-74.512999999999991
0
LINE
8
LYELLOW
6
CONTINUOUS
10
44.2393999999999963
20
-58.1049999999999969
11
44.2393999999999963
21
-64.8599999999999994
0
LINE
8
LYELLOW
6
CONTINUOUS
10
44.2393999999999963
20
-67.7399999999999949
11
44.2393999999999963
21
-74.4949999999999903
0
LINE
8
LYELLOW
6
CONTINUOUS
10
44.2793999999999954
20
-58.125
11
44.2793999999999954
21
-64.8599999999999994
0
LINE
8
LYELLOW
6
CONTINUOUS
10
44.2793999999999954
20
-67.7399999999999949
11
44.2793999999999954
21
-74.4749999999999943
0
LINE
8
LYELLOW
6
CONTINUOUS
10
44.3193999999999946
20
-58.1439999999999984
11
44.3193999999999946
21
-64.8599999999999994
0
LINE
8
LYELLOW
6
CONTINUOUS
10
44.3193999999999946
20
-67.7399999999999949
11
44.3193999999999946
21
-74.4560000000000031
0
LINE
8
LYELLOW
6
CONTINUOUS
10
44.3594000000000008
20
-58.1639999999999944
11
44.3594000000000008
21
-64.8599999999999994
0
LINE
8
LYELLOW
6
CONTINUOUS
10
44.3594000000000008
20
-67.7399999999999949
11
44.3594000000000008
21
-74.4359999999999928
0
LINE
8
LYELLOW
6
CONTINUOUS
10
44.3994
20
-58.1839999999999975
11
44.3994
21
-64.8599999999999994
0
LINE
8
LYELLOW
6
CONTINUOUS
10
44.3994
20
-67.7399999999999949
11
44.3994
21
-74.4159999999999968
0
LINE
8
LYELLOW
6
CONTINUOUS
10
44.4393999999999991
20
-58.2040000000000006
11
44.4393999999999991
21
-64.8599999999999994
0
LINE
8
LYELLOW
6
CONTINUOUS
10
44.4393999999999991
20
-67.7399999999999949
11
44.4393999999999991
21
-74.3960000000000008
0
LINE
8
LYELLOW
6
CONTINUOUS
10
44.4793999999999983
20
-58.2239999999999966
11
44.4793999999999983
21
-64.8599999999999994
0
LINE
8
LYELLOW
6
CONTINUOUS
10
44.4793999999999983
20
-67.7399999999999949
11
44.4793999999999983
21
-74.3759999999999906
0
LINE
8
LYELLOW
6
CONTINUOUS
10
44.5193999999999974
20
-58.2449999999999974
11
44.5193999999999974
21
-64.8599999999999994
0
LINE
8
LYELLOW
6
CONTINUOUS
10
44.5193999999999974
20
-67.7399999999999949
11
44.5193999999999974
21
-74.3549999999999898
0
LINE
8
LYELLOW
6
CONTINUOUS
10
44.5593999999999966
20
-58.2659999999999982
11
44.5593999999999966
21
-64.8599999999999994
0
LINE
8
LYELLOW
6
CONTINUOUS
10
44.5593999999999966
20
-67.7399999999999949
11
44.5593999999999966
21
-74.3340000000000032
0
LINE
8
LYELLOW
6
CONTINUOUS
10
44.5993999999999957
20
-58.286999999999999
11
44.5993999999999957
21
-64.8599999999999994
0
LINE
8
LYELLOW
6
CONTINUOUS
10
44.5993999999999957
20
-67.7399999999999949
11
44.5993999999999957
21
-74.3130000000000024
0
LINE
8
LYELLOW
6
CONTINUOUS
10
44.6393999999999949
20
-58.3079999999999998
11
44.6393999999999949
21
-64.8599999999999994
0
LINE
8
LYELLOW
6
CONTINUOUS
10
44.6393999999999949
20
-67.7399999999999949
11
44.6393999999999949
21
-74.2920000000000016
0
LINE
8
LYELLOW
6
CONTINUOUS
10
44.6794000000000011
20
-58.3299999999999983
11
44.6794000000000011
21
-64.8599999999999994
0
LINE
8
LYELLOW
6
CONTINUOUS
10
44.6794000000000011
20
-67.7399999999999949
11
44.6794000000000011
21
-74.269999999999996
0
LINE
8
LYELLOW
6
CONTINUOUS
10
44.7194000000000003
20
-58.3519999999999968
11
44.7194000000000003
21
-64.8599999999999994
0
LINE
8
LYELLOW
6
CONTINUOUS
10
44.7194000000000003
20
-67.7399999999999949
11
44.7194000000000003
21
-74.2479999999999905
0
LINE
8
LYELLOW
6
CONTINUOUS
10
44.7593999999999994
20
-58.3739999999999952
11
44.7593999999999994
21
-64.8599999999999994
0
LINE
8
LYELLOW
6
CONTINUOUS
10
44.7593999999999994
20
-67.7399999999999949
11
44.7593999999999994
21
-74.2259999999999991
0
LINE
8
LYELLOW
6
CONTINUOUS
10
44.7993999999999986
20
-58.3960000000000008
11
44.7993999999999986
21
-64.8599999999999994
0
LINE
8
LYELLOW
6
CONTINUOUS
10
44.7993999999999986
20
-67.7399999999999949
11
44.7993999999999986
21
-74.2039999999999935
0
LINE
8
LYELLOW
6
CONTINUOUS
10
44.8393999999999977
20
-58.4189999999999969
11
44.8393999999999977
21
-64.8599999999999994
0
LINE
8
LYELLOW
6
CONTINUOUS
10
44.8393999999999977
20
-67.7399999999999949
11
44.8393999999999977
21
-74.1809999999999974
0
LINE
8
LYELLOW
6
CONTINUOUS
10
44.8793999999999969
20
-58.4420000000000002
11
44.8793999999999969
21
-64.8599999999999994
0
LINE
8
LYELLOW
6
CONTINUOUS
10
44.8793999999999969
20
-67.7399999999999949
11
44.8793999999999969
21
-74.1580000000000013
0
LINE
8
LYELLOW
6
CONTINUOUS
10
44.919399999999996
20
-58.4649999999999963
11
44.919399999999996
21
-64.8599999999999994
0
LINE
8
LYELLOW
6
CONTINUOUS
10
44.919399999999996
20
-67.7399999999999949
11
44.919399999999996
21
-74.1349999999999909
0
LINE
8
LYELLOW
6
CONTINUOUS
10
44.9593999999999951
20
-58.4889999999999972
11
44.9593999999999951
21
-64.8599999999999994
0
LINE
8
LYELLOW
6
CONTINUOUS
10
44.9593999999999951
20
-67.7399999999999949
11
44.9593999999999951
21
-74.11099999999999
0
LINE
8
LYELLOW
6
CONTINUOUS
10
44.9994000000000014
20
-58.5120000000000005
11
44.9994000000000014
21
-64.8599999999999994
0
LINE
8
LYELLOW
6
CONTINUOUS
10
44.9994000000000014
20
-67.7399999999999949
11
44.9994000000000014
21
-74.0879999999999939
0
LINE
8
LYELLOW
6
CONTINUOUS
10
45.0394000000000005
20
-58.5359999999999943
11
45.0394000000000005
21
-64.8599999999999994
0
LINE
8
LYELLOW
6
CONTINUOUS
10
45.0394000000000005
20
-67.7399999999999949
11
45.0394000000000005
21
-74.063999999999993
0
LINE
8
LYELLOW
6
CONTINUOUS
10
45.0793999999999997
20
-58.5609999999999999
11
45.0793999999999997
21
-64.8599999999999994
0
LINE
8
LYELLOW
6
CONTINUOUS
10
45.0793999999999997
20
-67.7399999999999949
11
45.0793999999999997
21
-74.0390000000000015
0
LINE
8
LYELLOW
6
CONTINUOUS
10
45.1193999999999988
20
-58.5850000000000009
11
45.1193999999999988
21
-64.8599999999999994
0
LINE
8
LYELLOW
6
CONTINUOUS
10
45.1193999999999988
20
-67.7399999999999949
11
45.1193999999999988
21
-74.0150000000000006
0
LINE
8
LYELLOW
6
CONTINUOUS
10
45.159399999999998
20
-58.6099999999999994
11
45.159399999999998
21
-64.8599999999999994
0
LINE
8
LYELLOW
6
CONTINUOUS
10
45.159399999999998
20
-67.7399999999999949
11
45.159399999999998
21
-73.9899999999999949
0
LINE
8
LYELLOW
6
CONTINUOUS
10
45.1993999999999971
20
-58.634999999999998
11
45.1993999999999971
21
-64.8599999999999994
0
LINE
8
LYELLOW
6
CONTINUOUS
10
45.1993999999999971
20
-67.7399999999999949
11
45.1993999999999971
21
-73.9650000000000034
0
LINE
8
LYELLOW
6
CONTINUOUS
10
45.2393999999999963
20
-58.6609999999999943
11
45.2393999999999963
21
-64.8599999999999994
0
LINE
8
LYELLOW
6
CONTINUOUS
10
45.2393999999999963
20
-67.7399999999999949
11
45.2393999999999963
21
-73.938999999999993
0
LINE
8
LYELLOW
6
CONTINUOUS
10
45.2793999999999954
20
-58.6869999999999976
11
45.2793999999999954
21
-64.8599999999999994
0
LINE
8
LYELLOW
6
CONTINUOUS
10
45.2793999999999954
20
-67.7399999999999949
11
45.2793999999999954
21
-73.9129999999999967
0
LINE
8
LYELLOW
6
CONTINUOUS
10
45.3193999999999946
20
-58.7129999999999939
11
45.3193999999999946
21
-64.8599999999999994
0
LINE
8
LYELLOW
6
CONTINUOUS
10
45.3193999999999946
20
-67.7399999999999949
11
45.3193999999999946
21
-73.8870000000000005
0
LINE
8
LYELLOW
6
CONTINUOUS
10
45.3594000000000008
20
-58.7389999999999972
11
45.3594000000000008
21
-64.8599999999999994
0
LINE
8
LYELLOW
6
CONTINUOUS
10
45.3594000000000008
20
-67.7399999999999949
11
45.3594000000000008
21
-73.86099999999999
0
LINE
8
LYELLOW
6
CONTINUOUS
10
45.3994
20
-58.7659999999999982
11
45.3994
21
-64.8599999999999994
0
LINE
8
LYELLOW
6
CONTINUOUS
10
45.3994
20
-67.7399999999999949
11
45.3994
21
-73.8340000000000032
0
LINE
8
LYELLOW
6
CONTINUOUS
10
45.4393999999999991
20
-58.7929999999999993
11
45.4393999999999991
21
-64.8599999999999994
0
LINE
8
LYELLOW
6
CONTINUOUS
10
45.4393999999999991
20
-67.7399999999999949
11
45.4393999999999991
21
-73.8070000000000022
0
LINE
8
LYELLOW
6
CONTINUOUS
10
45.4793999999999983
20
-58.8200000000000003
11
45.4793999999999983
21
-64.8599999999999994
0
LINE
8
LYELLOW
6
CONTINUOUS
10
45.4793999999999983
20
-67.7399999999999949
11
45.4793999999999983
21
-73.7800000000000011
0
LINE
8
LYELLOW
6
CONTINUOUS
10
45.5193999999999974
20
-58.847999999999999
11
45.5193999999999974
21
-73.7519999999999953
0
LINE
8
LYELLOW
6
CONTINUOUS
10
45.5593999999999966
20
-58.8759999999999977
11
45.5593999999999966
21
-73.7240000000000038
0
LINE
8
LYELLOW
6
CONTINUOUS
10
45.5993999999999957
20
-58.9039999999999964
11
45.5993999999999957
21
-73.695999999999998
0
LINE
8
LYELLOW
6
CONTINUOUS
10
45.6393999999999949
20
-58.9319999999999951
11
45.6393999999999949
21
-73.6679999999999922
0
LINE
8
LYELLOW
6
CONTINUOUS
10
45.6794000000000011
20
-58.9609999999999985
11
45.6794000000000011
21
-73.6389999999999958
0
LINE
8
LYELLOW
6
CONTINUOUS
10
45.7194000000000003
20
-58.9909999999999997
11
45.7194000000000003
21
-73.6089999999999947
0
LINE
8
LYELLOW
6
CONTINUOUS
10
45.7593999999999994
20
-59.019999999999996
11
45.7593999999999994
21
-73.5799999999999983
0
LINE
8
LYELLOW
6
CONTINUOUS
10
45.7993999999999986
20
-59.0499999999999972
11
45.7993999999999986
21
-73.5499999999999972
0
LINE
8
LYELLOW
6
CONTINUOUS
10
45.8393999999999977
20
-59.0799999999999983
11
45.8393999999999977
21
-73.519999999999996
0
LINE
8
LYELLOW
6
CONTINUOUS
10
45.8793999999999969
20
-59.1109999999999971
11
45.8793999999999969
21
-73.4889999999999901
0
LINE
8
LYELLOW
6
CONTINUOUS
10
45.919399999999996
20
-59.1419999999999959
11
45.919399999999996
21
-73.4579999999999984
0
LINE
8
LYELLOW
6
CONTINUOUS
10
45.9593999999999951
20
-59.1729999999999947
11
45.9593999999999951
21
-73.4269999999999925
0
LINE
8
LYELLOW
6
CONTINUOUS
10
45.9994000000000014
20
-59.2049999999999983
11
45.9994000000000014
21
-73.394999999999996
0
LINE
8
LYELLOW
6
CONTINUOUS
10
46.0394000000000005
20
-59.2369999999999948
11
46.0394000000000005
21
-73.3629999999999995
0
LINE
8
LYELLOW
6
CONTINUOUS
10
46.0793999999999997
20
-59.2689999999999984
11
46.0793999999999997
21
-73.3310000000000031
0
LINE
8
LYELLOW
6
CONTINUOUS
10
46.1193999999999988
20
-59.3019999999999996
11
46.1193999999999988
21
-73.2980000000000018
0
LINE
8
LYELLOW
6
CONTINUOUS
10
46.159399999999998
20
-59.3350000000000009
11
46.159399999999998
21
-73.2650000000000006
0
LINE
8
LYELLOW
6
CONTINUOUS
10
46.1993999999999971
20
-59.3689999999999998
11
46.1993999999999971
21
-73.2309999999999945
0
LINE
8
LYELLOW
6
CONTINUOUS
10
46.2393999999999963
20
-59.4029999999999987
11
46.2393999999999963
21
-73.1970000000000027
0
LINE
8
LYELLOW
6
CONTINUOUS
10
46.2793999999999954
20
-59.4369999999999976
11
46.2793999999999954
21
-73.1629999999999967
0
LINE
8
LYELLOW
6
CONTINUOUS
10
46.3193999999999946
20
-59.4719999999999942
11
46.3193999999999946
21
-73.1280000000000001
0
LINE
8
LYELLOW
6
CONTINUOUS
10
46.3594000000000008
20
-59.5069999999999979
11
46.3594000000000008
21
-73.0930000000000035
0
LINE
8
LYELLOW
6
CONTINUOUS
10
46.3994
20
-59.5419999999999945
11
46.3994
21
-73.0579999999999927
0
LINE
8
LYELLOW
6
CONTINUOUS
10
46.4393999999999991
20
-59.5779999999999959
11
46.4393999999999991
21
-73.0219999999999914
0
LINE
8
LYELLOW
6
CONTINUOUS
10
46.4793999999999983
20
-59.6149999999999949
11
46.4793999999999983
21
-72.9849999999999994
0
LINE
8
LYELLOW
6
CONTINUOUS
10
46.5193999999999974
20
-59.6519999999999939
11
46.5193999999999974
21
-72.9479999999999933
0
LINE
8
LYELLOW
6
CONTINUOUS
10
46.5593999999999966
20
-59.6890000000000001
11
46.5593999999999966
21
-72.9110000000000014
0
LINE
8
LYELLOW
6
CONTINUOUS
10
46.5993999999999957
20
-59.7269999999999968
11
46.5993999999999957
21
-72.8729999999999905
0
LINE
8
LYELLOW
6
CONTINUOUS
10
46.6393999999999949
20
-59.7650000000000006
11
46.6393999999999949
21
-72.8349999999999937
0
LINE
8
LYELLOW
6
CONTINUOUS
10
46.6794000000000011
20
-59.8039999999999949
11
46.6794000000000011
21
-72.7959999999999923
0
LINE
8
LYELLOW
6
CONTINUOUS
10
46.7194000000000003
20
-59.8429999999999964
11
46.7194000000000003
21
-72.7569999999999908
0
LINE
8
LYELLOW
6
CONTINUOUS
10
46.7593999999999994
20
-59.8819999999999979
11
46.7593999999999994
21
-72.7180000000000035
0
LINE
8
LYELLOW
6
CONTINUOUS
10
46.7993999999999986
20
-59.9229999999999947
11
46.7993999999999986
21
-72.6769999999999925
0
LINE
8
LYELLOW
6
CONTINUOUS
10
46.8393999999999977
20
-59.9629999999999939
11
46.8393999999999977
21
-72.6370000000000005
0
LINE
8
LYELLOW
6
CONTINUOUS
10
46.8793999999999969
20
-60.0039999999999978
11
46.8793999999999969
21
-72.5960000000000036
0
LINE
8
LYELLOW
6
CONTINUOUS
10
46.919399999999996
20
-60.0459999999999994
11
46.919399999999996
21
-72.554000000000002
0
LINE
8
LYELLOW
6
CONTINUOUS
10
46.9593999999999951
20
-60.0879999999999939
11
46.9593999999999951
21
-72.5120000000000005
0
LINE
8
LYELLOW
6
CONTINUOUS
10
46.9994000000000014
20
-60.1310000000000002
11
46.9994000000000014
21
-72.4689999999999941
0
LINE
8
LYELLOW
6
CONTINUOUS
10
47.0394000000000005
20
-60.1739999999999995
11
47.0394000000000005
21
-72.4260000000000019
0
LINE
8
LYELLOW
6
CONTINUOUS
10
47.0793999999999997
20
-60.2179999999999964
11
47.0793999999999997
21
-72.3819999999999908
0
LINE
8
LYELLOW
6
CONTINUOUS
10
47.1193999999999988
20
-60.2629999999999981
11
47.1193999999999988
21
-72.3370000000000033
0
LINE
8
LYELLOW
6
CONTINUOUS
10
47.159399999999998
20
-60.3079999999999998
11
47.159399999999998
21
-72.2920000000000016
0
LINE
8
LYELLOW
6
CONTINUOUS
10
47.1993999999999971
20
-60.3529999999999944
11
47.1993999999999971
21
-72.2469999999999999
0
LINE
8
LYELLOW
6
CONTINUOUS
10
47.2393999999999963
20
-60.3999999999999986
11
47.2393999999999963
21
-72.2000000000000028
0
LINE
8
LYELLOW
6
CONTINUOUS
10
47.2793999999999954
20
-60.4469999999999956
11
47.2793999999999954
21
-72.1529999999999916
0
LINE
8
LYELLOW
6
CONTINUOUS
10
47.3193999999999946
20
-60.4939999999999998
11
47.3193999999999946
21
-72.1059999999999945
0
LINE
8
LYELLOW
6
CONTINUOUS
10
47.3594000000000008
20
-60.5419999999999945
11
47.3594000000000008
21
-72.0579999999999927
0
LINE
8
LYELLOW
6
CONTINUOUS
10
47.3994
20
-60.590999999999994
11
47.3994
21
-72.0090000000000003
0
LINE
8
LYELLOW
6
CONTINUOUS
10
47.4393999999999991
20
-60.6409999999999982
11
47.4393999999999991
21
-71.9590000000000032
0
LINE
8
LYELLOW
6
CONTINUOUS
10
47.4793999999999983
20
-60.6909999999999954
11
47.4793999999999983
21
-71.9089999999999918
0
LINE
8
LYELLOW
6
CONTINUOUS
10
47.5193999999999974
20
-60.7419999999999973
11
47.5193999999999974
21
-71.8579999999999899
0
LINE
8
LYELLOW
6
CONTINUOUS
10
47.5593999999999966
20
-60.7939999999999969
11
47.5593999999999966
21
-71.8059999999999974
0
LINE
8
LYELLOW
6
CONTINUOUS
10
47.5993999999999957
20
-60.8469999999999942
11
47.5993999999999957
21
-71.7530000000000001
0
LINE
8
LYELLOW
6
CONTINUOUS
10
47.6393999999999949
20
-60.8999999999999986
11
47.6393999999999949
21
-71.7000000000000028
0
LINE
8
LYELLOW
6
CONTINUOUS
10
47.6794000000000011
20
-60.9540000000000006
11
47.6794000000000011
21
-71.6460000000000008
0
LINE
8
LYELLOW
6
CONTINUOUS
10
47.7194000000000003
20
-61.0090000000000003
11
47.7194000000000003
21
-71.590999999999994
0
LINE
8
LYELLOW
6
CONTINUOUS
10
47.7593999999999994
20
-61.0649999999999977
11
47.7593999999999994
21
-71.5349999999999966
0
LINE
8
LYELLOW
6
CONTINUOUS
10
47.7993999999999986
20
-61.1219999999999999
11
47.7993999999999986
21
-71.4779999999999944
0
LINE
8
LYELLOW
6
CONTINUOUS
10
47.8393999999999977
20
-61.1799999999999997
11
47.8393999999999977
21
-71.4200000000000017
0
LINE
8
LYELLOW
6
CONTINUOUS
10
47.8793999999999969
20
-61.2389999999999972
11
47.8793999999999969
21
-71.36099999999999
0
LINE
8
LYELLOW
6
CONTINUOUS
10
47.919399999999996
20
-61.2989999999999995
11
47.919399999999996
21
-71.3010000000000019
0
LINE
8
LYELLOW
6
CONTINUOUS
10
47.9593999999999951
20
-61.3599999999999994
11
47.9593999999999951
21
-71.2399999999999949
0
LINE
8
LYELLOW
6
CONTINUOUS
10
47.9993999999999943
20
-61.4209999999999994
11
47.9993999999999943
21
-71.179000000000002
0
LINE
8
LYELLOW
6
CONTINUOUS
10
48.0394000000000005
20
-61.4839999999999947
11
48.0394000000000005
21
-71.1159999999999997
0
LINE
8
LYELLOW
6
CONTINUOUS
10
48.0793999999999997
20
-61.5489999999999995
11
48.0793999999999997
21
-71.0510000000000019
0
LINE
8
LYELLOW
6
CONTINUOUS
10
48.1193999999999988
20
-61.6139999999999972
11
48.1193999999999988
21
-70.98599999999999
0
LINE
8
LYELLOW
6
CONTINUOUS
10
48.159399999999998
20
-61.6809999999999974
11
48.159399999999998
21
-70.9189999999999969
0
LINE
8
LYELLOW
6
CONTINUOUS
10
48.1993999999999971
20
-61.7489999999999952
11
48.1993999999999971
21
-70.8509999999999991
0
LINE
8
LYELLOW
6
CONTINUOUS
10
48.2393999999999963
20
-61.8179999999999978
11
48.2393999999999963
21
-70.7819999999999965
0
LINE
8
LYELLOW
6
CONTINUOUS
10
48.2793999999999954
20
-61.8889999999999958
11
48.2793999999999954
21
-70.7109999999999985
0
LINE
8
LYELLOW
6
CONTINUOUS
10
48.3193999999999946
20
-61.9609999999999985
11
48.3193999999999946
21
-70.6389999999999958
0
LINE
8
LYELLOW
6
CONTINUOUS
10
48.3594000000000008
20
-62.0349999999999966
11
48.3594000000000008
21
-70.5649999999999977
0
LINE
8
LYELLOW
6
CONTINUOUS
10
48.3994
20
-62.1109999999999971
11
48.3994
21
-70.4889999999999901
0
LINE
8
LYELLOW
6
CONTINUOUS
10
48.4393999999999991
20
-62.1879999999999953
11
48.4393999999999991
21
-70.4119999999999919
0
LINE
8
LYELLOW
6
CONTINUOUS
10
48.4793999999999983
20
-62.2669999999999959
11
48.4793999999999983
21
-70.3329999999999984
0
LINE
8
LYELLOW
6
CONTINUOUS
10
48.5193999999999974
20
-62.347999999999999
11
48.5193999999999974
21
-70.2519999999999953
0
LINE
8
LYELLOW
6
CONTINUOUS
10
48.5593999999999966
20
-62.4309999999999974
11
48.5593999999999966
21
-70.1689999999999969
0
LINE
8
LYELLOW
6
CONTINUOUS
10
48.5993999999999957
20
-62.5169999999999959
11
48.5993999999999957
21
-70.0829999999999984
0
LINE
8
LYELLOW
6
CONTINUOUS
10
48.6393999999999949
20
-62.6049999999999969
11
48.6393999999999949
21
-69.9949999999999903
0
LINE
8
LYELLOW
6
CONTINUOUS
10
48.6794000000000011
20
-62.6950000000000003
11
48.6794000000000011
21
-69.9050000000000011
0
LINE
8
LYELLOW
6
CONTINUOUS
10
48.7194000000000003
20
-62.7879999999999967
11
48.7194000000000003
21
-69.8119999999999976
0
LINE
8
LYELLOW
6
CONTINUOUS
10
48.7593999999999994
20
-62.8840000000000003
11
48.7593999999999994
21
-69.715999999999994
0
LINE
8
LYELLOW
6
CONTINUOUS
10
48.7993999999999986
20
-62.9839999999999947
11
48.7993999999999986
21
-69.6159999999999997
0
LINE
8
LYELLOW
6
CONTINUOUS
10
48.8393999999999977
20
-63.0869999999999962
11
48.8393999999999977
21
-69.512999999999991
0
LINE
8
LYELLOW
6
CONTINUOUS
10
48.8793999999999969
20
-63.1929999999999978
11
48.8793999999999969
21
-69.4069999999999965
0
LINE
8
LYELLOW
6
CONTINUOUS
10
48.919399999999996
20
-63.3039999999999949
11
48.919399999999996
21
-69.2959999999999923
0
LINE
8
LYELLOW
6
CONTINUOUS
10
48.9593999999999951
20
-63.4199999999999946
11
48.9593999999999951
21
-69.1799999999999926
0
LINE
8
LYELLOW
6
CONTINUOUS
10
48.9993999999999943
20
-63.5409999999999968
11
48.9993999999999943
21
-69.0589999999999975
0
LINE
8
LYELLOW
6
CONTINUOUS
10
49.0394000000000005
20
-63.6689999999999969
11
49.0394000000000005
21
-68.9309999999999974
0
LINE
8
LYELLOW
6
CONTINUOUS
10
49.0793999999999997
20
-63.8029999999999973
11
49.0793999999999997
21
-68.796999999999997
0
LINE
8
LYELLOW
6
CONTINUOUS
10
49.1193999999999988
20
-63.9450000000000003
11
49.1193999999999988
21
-68.6550000000000011
0
LINE
8
LYELLOW
6
CONTINUOUS
10
49.159399999999998
20
-64.097999999999999
11
49.159399999999998
21
-68.5019999999999953
0
LINE
8
LYELLOW
6
CONTINUOUS
10
49.1993999999999971
20
-64.2620000000000005
11
49.1993999999999971
21
-68.3379999999999939
0
LINE
8
LYELLOW
6
CONTINUOUS
10
49.2393999999999963
20
-64.4410000000000025
11
49.2393999999999963
21
-68.1589999999999918
0
LINE
8
LYELLOW
6
CONTINUOUS
10
49.2793999999999954
20
-64.6389999999999958
11
49.2793999999999954
21
-67.9609999999999985
0
LINE
8
LYELLOW
6
CONTINUOUS
10
49.3193999999999946
20
-64.8649999999999949
11
49.3193999999999946
21
-67.7349999999999994
0
LINE
8
LYELLOW
6
CONTINUOUS
10
49.3594000000000008
20
-65.1349999999999909
11
49.3594000000000008
21
-67.4650000000000034
0
LINE
8
LYELLOW
6
CONTINUOUS
10
49.3994
20
-65.4869999999999948
11
49.3994
21
-67.1129999999999995
0
LINE
8
LYELLOW
6
CONTINUOUS
10
49.4393999999999991
20
-66.3400000000000034
11
49.4393999999999991
21
-66.2599999999999909
0
CIRCLE
8
LYELLOW
10
40.3194000000000017
20
-66.2999999999999972
40
9.1199999999999992
0
LINE
8
LYELLOW
6
CONTINUOUS
10
30.5599600000000002
20
-82.7349999999999994
11
32.3599600000000009
21
-82.7349999999999994
0
LINE
8
LYELLOW
6
CONTINUOUS
10
31.4599599999999988
20
-81.8349999999999937
11
31.4599599999999988
21
-83.6349999999999909
0
LINE
8
LYELLOW
6
CONTINUOUS
10
40.3194000000000017
20
-78.769999999999996
11
40.3194000000000017
21
-96.9299999999999926
0
LINE
8
LYELLOW
6
CONTINUOUS
10
40.3594000000000008
20
-78.769999999999996
11
40.3594000000000008
21
-96.9299999999999926
0
LINE
8
LYELLOW
6
CONTINUOUS
10
40.3994
20
-78.769999999999996
11
40.3994
21
-96.9299999999999926
0
LINE
8
LYELLOW
6
CONTINUOUS
10
40.4393999999999991
20
-78.7710000000000008
11
40.4393999999999991
21
-96.929000000000002
0
LINE
8
LYELLOW
6
CONTINUOUS
10
40.4793999999999983
20
-78.7710000000000008
11
40.4793999999999983
21
-96.929000000000002
0
LINE
8
LYELLOW
6
CONTINUOUS
10
40.5193999999999974
20
-78.7719999999999914
11
40.5193999999999974
21
-96.9279999999999973
0
LINE
8
LYELLOW
6
CONTINUOUS
10
40.5593999999999966
20
-78.7729999999999961
11
40.5593999999999966
21
-96.9269999999999925
0
LINE
8
LYELLOW
6
CONTINUOUS
10
40.5993999999999957
20
-78.7740000000000009
11
40.5993999999999957
21
-96.9260000000000019
0
LINE
8
LYELLOW
6
CONTINUOUS
10
40.6393999999999949
20
-78.7759999999999962
11
40.6393999999999949
21
-96.9239999999999924
0
LINE
8
LYELLOW
6
CONTINUOUS
10
40.6794000000000011
20
-78.777000000000001
11
40.6794000000000011
21
-96.9230000000000018
0
LINE
8
LYELLOW
6
CONTINUOUS
10
40.7194000000000003
20
-78.7789999999999964
11
40.7194000000000003
21
-96.9209999999999923
0
LINE
8
LYELLOW
6
CONTINUOUS
10
40.7593999999999994
20
-78.7809999999999917
11
40.7593999999999994
21
-96.9189999999999969
0
LINE
8
LYELLOW
6
CONTINUOUS
10
40.7993999999999986
20
-78.7830000000000013
11
40.7993999999999986
21
-96.9170000000000016
0
LINE
8
LYELLOW
6
CONTINUOUS
10
40.8393999999999977
20
-78.7849999999999966
11
40.8393999999999977
21
-96.914999999999992
0
LINE
8
LYELLOW
6
CONTINUOUS
10
40.8793999999999969
20
-78.7869999999999919
11
40.8793999999999969
21
-96.9129999999999967
0
LINE
8
LYELLOW
6
CONTINUOUS
10
40.919399999999996
20
-78.789999999999992
11
40.919399999999996
21
-96.9099999999999966
0
LINE
8
LYELLOW
6
CONTINUOUS
10
40.9593999999999951
20
-78.7920000000000016
11
40.9593999999999951
21
-96.9080000000000013
0
LINE
8
LYELLOW
6
CONTINUOUS
10
40.9994000000000014
20
-78.7950000000000017
11
40.9994000000000014
21
-96.9050000000000011
0
LINE
8
LYELLOW
6
CONTINUOUS
10
41.0394000000000005
20
-78.7980000000000018
11
41.0394000000000005
21
-96.902000000000001
0
LINE
8
LYELLOW
6
CONTINUOUS
10
41.0793999999999997
20
-78.8019999999999925
11
41.0793999999999997
21
-96.8979999999999961
0
LINE
8
LYELLOW
6
CONTINUOUS
10
41.1193999999999988
20
-78.8049999999999926
11
41.1193999999999988
21
-96.894999999999996
0
LINE
8
LYELLOW
6
CONTINUOUS
10
41.159399999999998
20
-78.8089999999999975
11
41.159399999999998
21
-96.8909999999999911
0
LINE
8
LYELLOW
6
CONTINUOUS
10
41.1993999999999971
20
-78.8130000000000024
11
41.1993999999999971
21
-96.8870000000000005
0
LINE
8
LYELLOW
6
CONTINUOUS
10
41.2393999999999963
20
-78.8169999999999931
11
41.2393999999999963
21
-96.8829999999999956
0
LINE
8
LYELLOW
6
CONTINUOUS
10
41.2793999999999954
20
-78.820999999999998
11
41.2793999999999954
21
-96.8789999999999907
0
LINE
8
LYELLOW
6
CONTINUOUS
10
41.3194000000000017
20
-78.8250000000000028
11
41.3194000000000017
21
-96.875
0
LINE
8
LYELLOW
6
CONTINUOUS
10
41.3594000000000008
20
-78.8289999999999935
11
41.3594000000000008
21
-96.8709999999999951
0
LINE
8
LYELLOW
6
CONTINUOUS
10
41.3994
20
-78.8340000000000032
11
41.3994
21
-96.8659999999999997
0
LINE
8
LYELLOW
6
CONTINUOUS
10
41.4393999999999991
20
-78.8389999999999986
11
41.4393999999999991
21
-96.86099999999999
0
LINE
8
LYELLOW
6
CONTINUOUS
10
41.4793999999999983
20
-78.8439999999999941
11
41.4793999999999983
21
-96.8559999999999945
0
LINE
8
LYELLOW
6
CONTINUOUS
10
41.5193999999999974
20
-78.8489999999999895
11
41.5193999999999974
21
-96.8509999999999991
0
LINE
8
LYELLOW
6
CONTINUOUS
10
41.5593999999999966
20
-78.8549999999999898
11
41.5593999999999966
21
-96.8449999999999989
0
LINE
8
LYELLOW
6
CONTINUOUS
10
41.5993999999999957
20
-78.8599999999999994
11
41.5993999999999957
21
-96.8399999999999892
0
LINE
8
LYELLOW
6
CONTINUOUS
10
41.6393999999999949
20
-78.8659999999999997
11
41.6393999999999949
21
-96.833999999999989
0
LINE
8
LYELLOW
6
CONTINUOUS
10
41.6794000000000011
20
-78.8719999999999999
11
41.6794000000000011
21
-96.8279999999999887
0
LINE
8
LYELLOW
6
CONTINUOUS
10
41.7194000000000003
20
-78.8780000000000001
11
41.7194000000000003
21
-96.8219999999999885
0
LINE
8
LYELLOW
6
CONTINUOUS
10
41.7593999999999994
20
-78.8840000000000003
11
41.7593999999999994
21
-96.8160000000000025
0
LINE
8
LYELLOW
6
CONTINUOUS
10
41.7993999999999986
20
-78.8909999999999911
11
41.7993999999999986
21
-96.8089999999999975
0
LINE
8
LYELLOW
6
CONTINUOUS
10
41.8393999999999977
20
-78.8979999999999961
11
41.8393999999999977
21
-96.8019999999999925
0
LINE
8
LYELLOW
6
CONTINUOUS
10
41.8793999999999969
20
-78.9039999999999964
11
41.8793999999999969
21
-96.7959999999999923
0
LINE
8
LYELLOW
6
CONTINUOUS
10
41.919399999999996
20
-78.9110000000000014
11
41.919399999999996
21
-96.7890000000000015
0
LINE
8
LYELLOW
6
CONTINUOUS
10
41.9593999999999951
20
-78.9189999999999969
11
41.9593999999999951
21
-96.7809999999999917
0
LINE
8
LYELLOW
6
CONTINUOUS
10
41.9994000000000014
20
-78.9260000000000019
11
41.9994000000000014
21
-96.7740000000000009
0
LINE
8
LYELLOW
6
CONTINUOUS
10
42.0394000000000005
20
-78.9339999999999975
11
42.0394000000000005
21
-96.7659999999999911
0
LINE
8
LYELLOW
6
CONTINUOUS
10
42.0793999999999997
20
-78.9410000000000025
11
42.0793999999999997
21
-96.7590000000000003
0
LINE
8
LYELLOW
6
CONTINUOUS
10
42.1193999999999988
20
-78.9489999999999981
11
42.1193999999999988
21
-96.7509999999999906
0
LINE
8
LYELLOW
6
CONTINUOUS
10
42.159399999999998
20
-78.9579999999999984
11
42.159399999999998
21
-96.7419999999999902
0
LINE
8
LYELLOW
6
CONTINUOUS
10
42.1993999999999971
20
-78.965999999999994
11
42.1993999999999971
21
-96.7339999999999947
0
LINE
8
LYELLOW
6
CONTINUOUS
10
42.2393999999999963
20
-78.9739999999999895
11
42.2393999999999963
21
-96.7259999999999991
0
LINE
8
LYELLOW
6
CONTINUOUS
10
42.2793999999999954
20
-78.9829999999999899
11
42.2793999999999954
21
-96.7169999999999987
0
LINE
8
LYELLOW
6
CONTINUOUS
10
42.3193999999999946
20
-78.9919999999999902
11
42.3193999999999946
21
-96.7079999999999984
0
LINE
8
LYELLOW
6
CONTINUOUS
10
42.3594000000000008
20
-79.0009999999999906
11
42.3594000000000008
21
-96.6989999999999981
0
LINE
8
LYELLOW
6
CONTINUOUS
10
42.3994
20
-79.0099999999999909
11
42.3994
21
-96.6899999999999977
0
LINE
8
LYELLOW
6
CONTINUOUS
10
42.4393999999999991
20
-79.019999999999996
11
42.4393999999999991
21
-96.6799999999999926
0
LINE
8
LYELLOW
6
CONTINUOUS
10
42.4793999999999983
20
-79.0289999999999964
11
42.4793999999999983
21
-96.6709999999999923
0
LINE
8
LYELLOW
6
CONTINUOUS
10
42.5193999999999974
20
-79.0390000000000015
11
42.5193999999999974
21
-96.6610000000000014
0
LINE
8
LYELLOW
6
CONTINUOUS
10
42.5593999999999966
20
-79.0489999999999924
11
42.5593999999999966
21
-96.6509999999999962
0
LINE
8
LYELLOW
6
CONTINUOUS
10
42.5993999999999957
20
-79.0600000000000023
11
42.5993999999999957
21
-96.6400000000000006
0
LINE
8
LYELLOW
6
CONTINUOUS
10
42.6393999999999949
20
-79.0699999999999932
11
42.6393999999999949
21
-86.4099999999999966
0
LINE
8
LYELLOW
6
CONTINUOUS
10
42.6393999999999949
20
-89.289999999999992
11
42.6393999999999949
21
-96.6299999999999955
0
LINE
8
LYELLOW
6
CONTINUOUS
10
42.6794000000000011
20
-79.0810000000000031
11
42.6794000000000011
21
-86.4099999999999966
0
LINE
8
LYELLOW
6
CONTINUOUS
10
42.6794000000000011
20
-89.289999999999992
11
42.6794000000000011
21
-96.6189999999999998
0
LINE
8
LYELLOW
6
CONTINUOUS
10
42.7194000000000003
20
-79.090999999999994
11
42.7194000000000003
21
-86.4099999999999966
0
LINE
8
LYELLOW
6
CONTINUOUS
10
42.7194000000000003
20
-89.289999999999992
11
42.7194000000000003
21
-96.6089999999999947
0
LINE
8
LYELLOW
6
CONTINUOUS
10
42.7593999999999994
20
-79.1019999999999897
11
42.7593999999999994
21
-86.4099999999999966
0
LINE
8
LYELLOW
6
CONTINUOUS
10
42.7593999999999994
20
-89.289999999999992
11
42.7593999999999994
21
-96.597999999999999
0
LINE
8
LYELLOW
6
CONTINUOUS
10
42.7993999999999986
20
-79.1139999999999901
11
42.7993999999999986
21
-86.4099999999999966
0
LINE
8
LYELLOW
6
CONTINUOUS
10
42.7993999999999986
20
-89.289999999999992
11
42.7993999999999986
21
-96.5859999999999985
0
LINE
8
LYELLOW
6
CONTINUOUS
10
42.8393999999999977
20
-79.125
11
42.8393999999999977
21
-86.4099999999999966
0
LINE
8
LYELLOW
6
CONTINUOUS
10
42.8393999999999977
20
-89.289999999999992
11
42.8393999999999977
21
-96.5749999999999886
0
LINE
8
LYELLOW
6
CONTINUOUS
10
42.8793999999999969
20
-79.1370000000000005
11
42.8793999999999969
21
-86.4099999999999966
0
LINE
8
LYELLOW
6
CONTINUOUS
10
42.8793999999999969
20
-89.289999999999992
11
42.8793999999999969
21
-96.5630000000000024
0
LINE
8
LYELLOW
6
CONTINUOUS
10
42.919399999999996
20
-79.1479999999999961
11
42.919399999999996
21
-86.4099999999999966
0
LINE
8
LYELLOW
6
CONTINUOUS
10
42.919399999999996
20
-89.289999999999992
11
42.919399999999996
21
-96.5519999999999925
0
LINE
8
LYELLOW
6
CONTINUOUS
10
42.9593999999999951
20
-79.1599999999999966
11
42.9593999999999951
21
-86.4099999999999966
0
LINE
8
LYELLOW
6
CONTINUOUS
10
42.9593999999999951
20
-89.289999999999992
11
42.9593999999999951
21
-96.539999999999992
0
LINE
8
LYELLOW
6
CONTINUOUS
10
42.9994000000000014
20
-79.1730000000000018
11
42.9994000000000014
21
-86.4099999999999966
0
LINE
8
LYELLOW
6
CONTINUOUS
10
42.9994000000000014
20
-89.289999999999992
11
42.9994000000000014
21
-96.527000000000001
0
LINE
8
LYELLOW
6
CONTINUOUS
10
43.0394000000000005
20
-79.1850000000000023
11
43.0394000000000005
21
-86.4099999999999966
0
LINE
8
LYELLOW
6
CONTINUOUS
10
43.0394000000000005
20
-89.289999999999992
11
43.0394000000000005
21
-96.5150000000000006
0
LINE
8
LYELLOW
6
CONTINUOUS
10
43.0793999999999997
20
-79.1979999999999933
11
43.0793999999999997
21
-86.4099999999999966
0
LINE
8
LYELLOW
6
CONTINUOUS
10
43.0793999999999997
20
-89.289999999999992
11
43.0793999999999997
21
-96.5019999999999953
0
LINE
8
LYELLOW
6
CONTINUOUS
10
43.1193999999999988
20
-79.2099999999999937
11
43.1193999999999988
21
-86.4099999999999966
0
LINE
8
LYELLOW
6
CONTINUOUS
10
43.1193999999999988
20
-89.289999999999992
11
43.1193999999999988
21
-96.4899999999999949
0
LINE
8
LYELLOW
6
CONTINUOUS
10
43.159399999999998
20
-79.222999999999999
11
43.159399999999998
21
-86.4099999999999966
0
LINE
8
LYELLOW
6
CONTINUOUS
10
43.159399999999998
20
-89.289999999999992
11
43.159399999999998
21
-96.4769999999999897
0
LINE
8
LYELLOW
6
CONTINUOUS
10
43.1993999999999971
20
-79.2369999999999948
11
43.1993999999999971
21
-86.4099999999999966
0
LINE
8
LYELLOW
6
CONTINUOUS
10
43.1993999999999971
20
-89.289999999999992
11
43.1993999999999971
21
-96.4629999999999939
0
LINE
8
LYELLOW
6
CONTINUOUS
10
43.2393999999999963
20
-79.25
11
43.2393999999999963
21
-86.4099999999999966
0
LINE
8
LYELLOW
6
CONTINUOUS
10
43.2393999999999963
20
-89.289999999999992
11
43.2393999999999963
21
-96.4499999999999886
0
LINE
8
LYELLOW
6
CONTINUOUS
10
43.2793999999999954
20
-79.2639999999999958
11
43.2793999999999954
21
-86.4099999999999966
0
LINE
8
LYELLOW
6
CONTINUOUS
10
43.2793999999999954
20
-89.289999999999992
11
43.2793999999999954
21
-96.4359999999999928
0
LINE
8
LYELLOW
6
CONTINUOUS
10
43.3193999999999946
20
-79.2779999999999916
11
43.3193999999999946
21
-86.4099999999999966
0
LINE
8
LYELLOW
6
CONTINUOUS
10
43.3193999999999946
20
-89.289999999999992
11
43.3193999999999946
21
-96.421999999999997
0
LINE
8
LYELLOW
6
CONTINUOUS
10
43.3594000000000008
20
-79.2920000000000016
11
43.3594000000000008
21
-86.4099999999999966
0
LINE
8
LYELLOW
6
CONTINUOUS
10
43.3594000000000008
20
-89.289999999999992
11
43.3594000000000008
21
-96.4080000000000013
0
LINE
8
LYELLOW
6
CONTINUOUS
10
43.3994
20
-79.3059999999999974
11
43.3994
21
-86.4099999999999966
0
LINE
8
LYELLOW
6
CONTINUOUS
10
43.3994
20
-89.289999999999992
11
43.3994
21
-96.3939999999999912
0
LINE
8
LYELLOW
6
CONTINUOUS
10
43.4393999999999991
20
-79.3199999999999932
11
43.4393999999999991
21
-86.4099999999999966
0
LINE
8
LYELLOW
6
CONTINUOUS
10
43.4393999999999991
20
-89.289999999999992
11
43.4393999999999991
21
-96.3799999999999955
0
LINE
8
LYELLOW
6
CONTINUOUS
10
43.4793999999999983
20
-79.3349999999999937
11
43.4793999999999983
21
-86.4099999999999966
0
LINE
8
LYELLOW
6
CONTINUOUS
10
43.4793999999999983
20
-89.289999999999992
11
43.4793999999999983
21
-96.3649999999999949
0
LINE
8
LYELLOW
6
CONTINUOUS
10
43.5193999999999974
20
-79.3499999999999943
11
43.5193999999999974
21
-86.4099999999999966
0
LINE
8
LYELLOW
6
CONTINUOUS
10
43.5193999999999974
20
-89.289999999999992
11
43.5193999999999974
21
-96.3499999999999943
0
LINE
8
LYELLOW
6
CONTINUOUS
10
43.5593999999999966
20
-79.3649999999999949
11
43.5593999999999966
21
-86.4099999999999966
0
LINE
8
LYELLOW
6
CONTINUOUS
10
43.5593999999999966
20
-89.289999999999992
11
43.5593999999999966
21
-96.3349999999999937
0
LINE
8
LYELLOW
6
CONTINUOUS
10
43.5993999999999957
20
-79.3799999999999955
11
43.5993999999999957
21
-86.4099999999999966
0
LINE
8
LYELLOW
6
CONTINUOUS
10
43.5993999999999957
20
-89.289999999999992
11
43.5993999999999957
21
-96.3199999999999932
0
LINE
8
LYELLOW
6
CONTINUOUS
10
43.6393999999999949
20
-79.3960000000000008
11
43.6393999999999949
21
-86.4099999999999966
0
LINE
8
LYELLOW
6
CONTINUOUS
10
43.6393999999999949
20
-89.289999999999992
11
43.6393999999999949
21
-96.304000000000002
0
LINE
8
LYELLOW
6
CONTINUOUS
10
43.6794000000000011
20
-79.4119999999999919
11
43.6794000000000011
21
-86.4099999999999966
0
LINE
8
LYELLOW
6
CONTINUOUS
10
43.6794000000000011
20
-89.289999999999992
11
43.6794000000000011
21
-96.2879999999999967
0
LINE
8
LYELLOW
6
CONTINUOUS
10
43.7194000000000003
20
-79.4269999999999925
11
43.7194000000000003
21
-86.4099999999999966
0
LINE
8
LYELLOW
6
CONTINUOUS
10
43.7194000000000003
20
-89.289999999999992
11
43.7194000000000003
21
-96.2729999999999961
0
LINE
8
LYELLOW
6
CONTINUOUS
10
43.7593999999999994
20
-79.4440000000000026
11
43.7593999999999994
21
-86.4099999999999966
0
LINE
8
LYELLOW
6
CONTINUOUS
10
43.7593999999999994
20
-89.289999999999992
11
43.7593999999999994
21
-96.2560000000000002
0
LINE
8
LYELLOW
6
CONTINUOUS
10
43.7993999999999986
20
-79.4599999999999937
11
43.7993999999999986
21
-86.4099999999999966
0
LINE
8
LYELLOW
6
CONTINUOUS
10
43.7993999999999986
20
-89.289999999999992
11
43.7993999999999986
21
-96.2399999999999949
0
LINE
8
LYELLOW
6
CONTINUOUS
10
43.8393999999999977
20
-79.4769999999999897
11
43.8393999999999977
21
-86.4099999999999966
0
LINE
8
LYELLOW
6
CONTINUOUS
10
43.8393999999999977
20
-89.289999999999992
11
43.8393999999999977
21
-96.222999999999999
0
LINE
8
LYELLOW
6
CONTINUOUS
10
43.8793999999999969
20
-79.4939999999999998
11
43.8793999999999969
21
-86.4099999999999966
0
LINE
8
LYELLOW
6
CONTINUOUS
10
43.8793999999999969
20
-89.289999999999992
11
43.8793999999999969
21
-96.2059999999999889
0
LINE
8
LYELLOW
6
CONTINUOUS
10
43.919399999999996
20
-79.5109999999999957
11
43.919399999999996
21
-86.4099999999999966
0
LINE
8
LYELLOW
6
CONTINUOUS
10
43.919399999999996
20
-89.289999999999992
11
43.919399999999996
21
-96.188999999999993
0
LINE
8
LYELLOW
6
CONTINUOUS
10
43.9593999999999951
20
-79.5279999999999916
11
43.9593999999999951
21
-86.4099999999999966
0
LINE
8
LYELLOW
6
CONTINUOUS
10
43.9593999999999951
20
-89.289999999999992
11
43.9593999999999951
21
-96.171999999999997
0
LINE
8
LYELLOW
6
CONTINUOUS
10
43.9994000000000014
20
-79.5450000000000017
11
43.9994000000000014
21
-86.4099999999999966
0
LINE
8
LYELLOW
6
CONTINUOUS
10
43.9994000000000014
20
-89.289999999999992
11
43.9994000000000014
21
-96.1550000000000011
0
LINE
8
LYELLOW
6
CONTINUOUS
10
44.0394000000000005
20
-79.5630000000000024
11
44.0394000000000005
21
-86.4099999999999966
0
LINE
8
LYELLOW
6
CONTINUOUS
10
44.0394000000000005
20
-89.289999999999992
11
44.0394000000000005
21
-96.1370000000000005
0
LINE
8
LYELLOW
6
CONTINUOUS
10
44.0793999999999997
20
-79.5810000000000031
11
44.0793999999999997
21
-86.4099999999999966
0
LINE
8
LYELLOW
6
CONTINUOUS
10
44.0793999999999997
20
-89.289999999999992
11
44.0793999999999997
21
-96.1189999999999998
0
LINE
8
LYELLOW
6
CONTINUOUS
10
44.1193999999999988
20
-79.5989999999999895
11
44.1193999999999988
21
-86.4099999999999966
0
LINE
8
LYELLOW
6
CONTINUOUS
10
44.1193999999999988
20
-89.289999999999992
11
44.1193999999999988
21
-96.1009999999999991
0
LINE
8
LYELLOW
6
CONTINUOUS
10
44.159399999999998
20
-79.617999999999995
11
44.159399999999998
21
-86.4099999999999966
0
LINE
8
LYELLOW
6
CONTINUOUS
10
44.159399999999998
20
-89.289999999999992
11
44.159399999999998
21
-96.0819999999999936
0
LINE
8
LYELLOW
6
CONTINUOUS
10
44.1993999999999971
20
-79.6370000000000005
11
44.1993999999999971
21
-86.4099999999999966
0
LINE
8
LYELLOW
6
CONTINUOUS
10
44.1993999999999971
20
-89.289999999999992
11
44.1993999999999971
21
-96.0630000000000024
0
LINE
8
LYELLOW
6
CONTINUOUS
10
44.2393999999999963
20
-79.6550000000000011
11
44.2393999999999963
21
-86.4099999999999966
0
LINE
8
LYELLOW
6
CONTINUOUS
10
44.2393999999999963
20
-89.289999999999992
11
44.2393999999999963
21
-96.0450000000000017
0
LINE
8
LYELLOW
6
CONTINUOUS
10
44.2793999999999954
20
-79.6749999999999972
11
44.2793999999999954
21
-86.4099999999999966
0
LINE
8
LYELLOW
6
CONTINUOUS
10
44.2793999999999954
20
-89.289999999999992
11
44.2793999999999954
21
-96.0249999999999915
0
LINE
8
LYELLOW
6
CONTINUOUS
10
44.3193999999999946
20
-79.6940000000000026
11
44.3193999999999946
21
-86.4099999999999966
0
LINE
8
LYELLOW
6
CONTINUOUS
10
44.3193999999999946
20
-89.289999999999992
11
44.3193999999999946
21
-96.0060000000000002
0
LINE
8
LYELLOW
6
CONTINUOUS
10
44.3594000000000008
20
-79.7139999999999986
11
44.3594000000000008
21
-86.4099999999999966
0
LINE
8
LYELLOW
6
CONTINUOUS
10
44.3594000000000008
20
-89.289999999999992
11
44.3594000000000008
21
-95.98599999999999
0
LINE
8
LYELLOW
6
CONTINUOUS
10
44.3994
20
-79.7339999999999947
11
44.3994
21
-86.4099999999999966
0
LINE
8
LYELLOW
6
CONTINUOUS
10
44.3994
20
-89.289999999999992
11
44.3994
21
-95.965999999999994
0
LINE
8
LYELLOW
6
CONTINUOUS
10
44.4393999999999991
20
-79.7539999999999907
11
44.4393999999999991
21
-86.4099999999999966
0
LINE
8
LYELLOW
6
CONTINUOUS
10
44.4393999999999991
20
-89.289999999999992
11
44.4393999999999991
21
-95.945999999999998
0
LINE
8
LYELLOW
6
CONTINUOUS
10
44.4793999999999983
20
-79.7740000000000009
11
44.4793999999999983
21
-86.4099999999999966
0
LINE
8
LYELLOW
6
CONTINUOUS
10
44.4793999999999983
20
-89.289999999999992
11
44.4793999999999983
21
-95.9260000000000019
0
LINE
8
LYELLOW
6
CONTINUOUS
10
44.5193999999999974
20
-79.7950000000000017
11
44.5193999999999974
21
-86.4099999999999966
0
LINE
8
LYELLOW
6
CONTINUOUS
10
44.5193999999999974
20
-89.289999999999992
11
44.5193999999999974
21
-95.9050000000000011
0
LINE
8
LYELLOW
6
CONTINUOUS
10
44.5593999999999966
20
-79.8160000000000025
11
44.5593999999999966
21
-86.4099999999999966
0
LINE
8
LYELLOW
6
CONTINUOUS
10
44.5593999999999966
20
-89.289999999999992
11
44.5593999999999966
21
-95.8840000000000003
0
LINE
8
LYELLOW
6
CONTINUOUS
10
44.5993999999999957
20
-79.8370000000000033
11
44.5993999999999957
21
-86.4099999999999966
0
LINE
8
LYELLOW
6
CONTINUOUS
10
44.5993999999999957
20
-89.289999999999992
11
44.5993999999999957
21
-95.8629999999999995
0
LINE
8
LYELLOW
6
CONTINUOUS
10
44.6393999999999949
20
-79.8579999999999899
11
44.6393999999999949
21
-86.4099999999999966
0
LINE
8
LYELLOW
6
CONTINUOUS
10
44.6393999999999949
20
-89.289999999999992
11
44.6393999999999949
21
-95.8419999999999987
0
LINE
8
LYELLOW
6
CONTINUOUS
10
44.6794000000000011
20
-79.8799999999999955
11
44.6794000000000011
21
-86.4099999999999966
0
LINE
8
LYELLOW
6
CONTINUOUS
10
44.6794000000000011
20
-89.289999999999992
11
44.6794000000000011
21
-95.8199999999999932
0
LINE
8
LYELLOW
6
CONTINUOUS
10
44.7194000000000003
20
-79.902000000000001
11
44.7194000000000003
21
-86.4099999999999966
0
LINE
8
LYELLOW
6
CONTINUOUS
10
44.7194000000000003
20
-89.289999999999992
11
44.7194000000000003
21
-95.7980000000000018
0
LINE
8
LYELLOW
6
CONTINUOUS
10
44.7593999999999994
20
-79.9239999999999924
11
44.7593999999999994
21
-86.4099999999999966
0
LINE
8
LYELLOW
6
CONTINUOUS
10
44.7593999999999994
20
-89.289999999999992
11
44.7593999999999994
21
-95.7759999999999962
0
LINE
8
LYELLOW
6
CONTINUOUS
10
44.7993999999999986
20
-79.945999999999998
11
44.7993999999999986
21
-86.4099999999999966
0
LINE
8
LYELLOW
6
CONTINUOUS
10
44.7993999999999986
20
-89.289999999999992
11
44.7993999999999986
21
-95.7539999999999907
0
LINE
8
LYELLOW
6
CONTINUOUS
10
44.8393999999999977
20
-79.9689999999999941
11
44.8393999999999977
21
-86.4099999999999966
0
LINE
8
LYELLOW
6
CONTINUOUS
10
44.8393999999999977
20
-89.289999999999992
11
44.8393999999999977
21
-95.7309999999999945
0
LINE
8
LYELLOW
6
CONTINUOUS
10
44.8793999999999969
20
-79.9919999999999902
11
44.8793999999999969
21
-86.4099999999999966
0
LINE
8
LYELLOW
6
CONTINUOUS
10
44.8793999999999969
20
-89.289999999999992
11
44.8793999999999969
21
-95.7079999999999984
0
LINE
8
LYELLOW
6
CONTINUOUS
10
44.919399999999996
20
-80.0150000000000006
11
44.919399999999996
21
-86.4099999999999966
0
LINE
8
LYELLOW
6
CONTINUOUS
10
44.919399999999996
20
-89.289999999999992
11
44.919399999999996
21
-95.6850000000000023
0
LINE
8
LYELLOW
6
CONTINUOUS
10
44.9593999999999951
20
-80.0390000000000015
11
44.9593999999999951
21
-86.4099999999999966
0
LINE
8
LYELLOW
6
CONTINUOUS
10
44.9593999999999951
20
-89.289999999999992
11
44.9593999999999951
21
-95.6610000000000014
0
LINE
8
LYELLOW
6
CONTINUOUS
10
44.9994000000000014
20
-80.0619999999999976
11
44.9994000000000014
21
-86.4099999999999966
0
LINE
8
LYELLOW
6
CONTINUOUS
10
44.9994000000000014
20
-89.289999999999992
11
44.9994000000000014
21
-95.637999999999991
0
LINE
8
LYELLOW
6
CONTINUOUS
10
45.0394000000000005
20
-80.0859999999999985
11
45.0394000000000005
21
-86.4099999999999966
0
LINE
8
LYELLOW
6
CONTINUOUS
10
45.0394000000000005
20
-89.289999999999992
11
45.0394000000000005
21
-95.6139999999999901
0
LINE
8
LYELLOW
6
CONTINUOUS
10
45.0793999999999997
20
-80.11099999999999
11
45.0793999999999997
21
-86.4099999999999966
0
LINE
8
LYELLOW
6
CONTINUOUS
10
45.0793999999999997
20
-89.289999999999992
11
45.0793999999999997
21
-95.5889999999999986
0
LINE
8
LYELLOW
6
CONTINUOUS
10
45.1193999999999988
20
-80.1349999999999909
11
45.1193999999999988
21
-86.4099999999999966
0
LINE
8
LYELLOW
6
CONTINUOUS
10
45.1193999999999988
20
-89.289999999999992
11
45.1193999999999988
21
-95.5649999999999977
0
LINE
8
LYELLOW
6
CONTINUOUS
10
45.159399999999998
20
-80.1599999999999966
11
45.159399999999998
21
-86.4099999999999966
0
LINE
8
LYELLOW
6
CONTINUOUS
10
45.159399999999998
20
-89.289999999999992
11
45.159399999999998
21
-95.539999999999992
0
LINE
8
LYELLOW
6
CONTINUOUS
10
45.1993999999999971
20
-80.1850000000000023
11
45.1993999999999971
21
-86.4099999999999966
0
LINE
8
LYELLOW
6
CONTINUOUS
10
45.1993999999999971
20
-89.289999999999992
11
45.1993999999999971
21
-95.5150000000000006
0
LINE
8
LYELLOW
6
CONTINUOUS
10
45.2393999999999963
20
-80.2109999999999985
11
45.2393999999999963
21
-86.4099999999999966
0
LINE
8
LYELLOW
6
CONTINUOUS
10
45.2393999999999963
20
-89.289999999999992
11
45.2393999999999963
21
-95.4889999999999901
0
LINE
8
LYELLOW
6
CONTINUOUS
10
45.2793999999999954
20
-80.2369999999999948
11
45.2793999999999954
21
-86.4099999999999966
0
LINE
8
LYELLOW
6
CONTINUOUS
10
45.2793999999999954
20
-89.289999999999992
11
45.2793999999999954
21
-95.4629999999999939
0
LINE
8
LYELLOW
6
CONTINUOUS
10
45.3193999999999946
20
-80.262999999999991
11
45.3193999999999946
21
-86.4099999999999966
0
LINE
8
LYELLOW
6
CONTINUOUS
10
45.3193999999999946
20
-89.289999999999992
11
45.3193999999999946
21
-95.4369999999999976
0
LINE
8
LYELLOW
6
CONTINUOUS
10
45.3594000000000008
20
-80.2890000000000015
11
45.3594000000000008
21
-86.4099999999999966
0
LINE
8
LYELLOW
6
CONTINUOUS
10
45.3594000000000008
20
-89.289999999999992
11
45.3594000000000008
21
-95.4110000000000014
0
LINE
8
LYELLOW
6
CONTINUOUS
10
45.3994
20
-80.3160000000000025
11
45.3994
21
-86.4099999999999966
0
LINE
8
LYELLOW
6
CONTINUOUS
10
45.3994
20
-89.289999999999992
11
45.3994
21
-95.3840000000000003
0
LINE
8
LYELLOW
6
CONTINUOUS
10
45.4393999999999991
20
-80.3429999999999893
11
45.4393999999999991
21
-86.4099999999999966
0
LINE
8
LYELLOW
6
CONTINUOUS
10
45.4393999999999991
20
-89.289999999999992
11
45.4393999999999991
21
-95.3569999999999993
0
LINE
8
LYELLOW
6
CONTINUOUS
10
45.4793999999999983
20
-80.3699999999999903
11
45.4793999999999983
21
-86.4099999999999966
0
LINE
8
LYELLOW
6
CONTINUOUS
10
45.4793999999999983
20
-89.289999999999992
11
45.4793999999999983
21
-95.3299999999999983
0
LINE
8
LYELLOW
6
CONTINUOUS
10
45.5193999999999974
20
-80.3979999999999961
11
45.5193999999999974
21
-95.3019999999999925
0
LINE
8
LYELLOW
6
CONTINUOUS
10
45.5593999999999966
20
-80.4260000000000019
11
45.5593999999999966
21
-95.2740000000000009
0
LINE
8
LYELLOW
6
CONTINUOUS
10
45.5993999999999957
20
-80.4539999999999935
11
45.5993999999999957
21
-95.2459999999999951
0
LINE
8
LYELLOW
6
CONTINUOUS
10
45.6393999999999949
20
-80.4819999999999993
11
45.6393999999999949
21
-95.2179999999999893
0
LINE
8
LYELLOW
6
CONTINUOUS
10
45.6794000000000011
20
-80.5109999999999957
11
45.6794000000000011
21
-95.188999999999993
0
LINE
8
LYELLOW
6
CONTINUOUS
10
45.7194000000000003
20
-80.5409999999999968
11
45.7194000000000003
21
-95.1589999999999918
0
LINE
8
LYELLOW
6
CONTINUOUS
10
45.7593999999999994
20
-80.5699999999999932
11
45.7593999999999994
21
-95.1299999999999955
0
LINE
8
LYELLOW
6
CONTINUOUS
10
45.7993999999999986
20
-80.5999999999999943
11
45.7993999999999986
21
-95.0999999999999943
0
LINE
8
LYELLOW
6
CONTINUOUS
10
45.8393999999999977
20
-80.6299999999999955
11
45.8393999999999977
21
-95.0699999999999932
0
LINE
8
LYELLOW
6
CONTINUOUS
10
45.8793999999999969
20
-80.6610000000000014
11
45.8793999999999969
21
-95.0390000000000015
0
LINE
8
LYELLOW
6
CONTINUOUS
10
45.919399999999996
20
-80.6919999999999931
11
45.919399999999996
21
-95.0079999999999956
0
LINE
8
LYELLOW
6
CONTINUOUS
10
45.9593999999999951
20
-80.722999999999999
11
45.9593999999999951
21
-94.9769999999999897
0
LINE
8
LYELLOW
6
CONTINUOUS
10
45.9994000000000014
20
-80.7549999999999955
11
45.9994000000000014
21
-94.9449999999999932
0
LINE
8
LYELLOW
6
CONTINUOUS
10
46.0394000000000005
20
-80.7869999999999919
11
46.0394000000000005
21
-94.9129999999999967
0
LINE
8
LYELLOW
6
CONTINUOUS
10
46.0793999999999997
20
-80.8190000000000026
11
46.0793999999999997
21
-94.8810000000000002
0
LINE
8
LYELLOW
6
CONTINUOUS
10
46.1193999999999988
20
-80.8519999999999897
11
46.1193999999999988
21
-94.847999999999999
0
LINE
8
LYELLOW
6
CONTINUOUS
10
46.159399999999998
20
-80.8849999999999909
11
46.159399999999998
21
-94.8149999999999977
0
LINE
8
LYELLOW
6
CONTINUOUS
10
46.1993999999999971
20
-80.9189999999999969
11
46.1993999999999971
21
-94.7809999999999917
0
LINE
8
LYELLOW
6
CONTINUOUS
10
46.2393999999999963
20
-80.953000000000003
11
46.2393999999999963
21
-94.7469999999999999
0
LINE
8
LYELLOW
6
CONTINUOUS
10
46.2793999999999954
20
-80.9869999999999948
11
46.2793999999999954
21
-94.7129999999999939
0
LINE
8
LYELLOW
6
CONTINUOUS
10
46.3193999999999946
20
-81.0219999999999914
11
46.3193999999999946
21
-94.6779999999999973
0
LINE
8
LYELLOW
6
CONTINUOUS
10
46.3594000000000008
20
-81.0570000000000022
11
46.3594000000000008
21
-94.6430000000000007
0
LINE
8
LYELLOW
6
CONTINUOUS
10
46.3994
20
-81.0919999999999987
11
46.3994
21
-94.6079999999999899
0
LINE
8
LYELLOW
6
CONTINUOUS
10
46.4393999999999991
20
-81.1280000000000001
11
46.4393999999999991
21
-94.5720000000000027
0
LINE
8
LYELLOW
6
CONTINUOUS
10
46.4793999999999983
20
-81.164999999999992
11
46.4793999999999983
21
-94.5349999999999966
0
LINE
8
LYELLOW
6
CONTINUOUS
10
46.5193999999999974
20
-81.2019999999999982
11
46.5193999999999974
21
-94.4979999999999905
0
LINE
8
LYELLOW
6
CONTINUOUS
10
46.5593999999999966
20
-81.2389999999999901
11
46.5593999999999966
21
-94.4609999999999985
0
LINE
8
LYELLOW
6
CONTINUOUS
10
46.5993999999999957
20
-81.277000000000001
11
46.5993999999999957
21
-94.4230000000000018
0
LINE
8
LYELLOW
6
CONTINUOUS
10
46.6393999999999949
20
-81.3149999999999977
11
46.6393999999999949
21
-94.3849999999999909
0
LINE
8
LYELLOW
6
CONTINUOUS
10
46.6794000000000011
20
-81.3539999999999992
11
46.6794000000000011
21
-94.3459999999999894
0
LINE
8
LYELLOW
6
CONTINUOUS
10
46.7194000000000003
20
-81.3930000000000007
11
46.7194000000000003
21
-94.3070000000000022
0
LINE
8
LYELLOW
6
CONTINUOUS
10
46.7593999999999994
20
-81.4320000000000022
11
46.7593999999999994
21
-94.2680000000000007
0
LINE
8
LYELLOW
6
CONTINUOUS
10
46.7993999999999986
20
-81.472999999999999
11
46.7993999999999986
21
-94.2269999999999897
0
LINE
8
LYELLOW
6
CONTINUOUS
10
46.8393999999999977
20
-81.512999999999991
11
46.8393999999999977
21
-94.1869999999999976
0
LINE
8
LYELLOW
6
CONTINUOUS
10
46.8793999999999969
20
-81.554000000000002
11
46.8793999999999969
21
-94.1460000000000008
0
LINE
8
LYELLOW
6
CONTINUOUS
10
46.919399999999996
20
-81.5959999999999894
11
46.919399999999996
21
-94.1039999999999992
0
LINE
8
LYELLOW
6
CONTINUOUS
10
46.9593999999999951
20
-81.637999999999991
11
46.9593999999999951
21
-94.0619999999999976
0
LINE
8
LYELLOW
6
CONTINUOUS
10
46.9994000000000014
20
-81.6809999999999974
11
46.9994000000000014
21
-94.0189999999999912
0
LINE
8
LYELLOW
6
CONTINUOUS
10
47.0394000000000005
20
-81.7239999999999895
11
47.0394000000000005
21
-93.9759999999999991
0
LINE
8
LYELLOW
6
CONTINUOUS
10
47.0793999999999997
20
-81.7680000000000007
11
47.0793999999999997
21
-93.9320000000000022
0
LINE
8
LYELLOW
6
CONTINUOUS
10
47.1193999999999988
20
-81.8130000000000024
11
47.1193999999999988
21
-93.8870000000000005
0
LINE
8
LYELLOW
6
CONTINUOUS
10
47.159399999999998
20
-81.8579999999999899
11
47.159399999999998
21
-93.8419999999999987
0
LINE
8
LYELLOW
6
CONTINUOUS
10
47.1993999999999971
20
-81.9029999999999916
11
47.1993999999999971
21
-93.796999999999997
0
LINE
8
LYELLOW
6
CONTINUOUS
10
47.2393999999999963
20
-81.9500000000000028
11
47.2393999999999963
21
-93.75
0
LINE
8
LYELLOW
6
CONTINUOUS
10
47.2793999999999954
20
-81.9969999999999999
11
47.2793999999999954
21
-93.7029999999999887
0
LINE
8
LYELLOW
6
CONTINUOUS
10
47.3193999999999946
20
-82.0439999999999969
11
47.3193999999999946
21
-93.6559999999999917
0
LINE
8
LYELLOW
6
CONTINUOUS
10
47.3594000000000008
20
-82.0919999999999987
11
47.3594000000000008
21
-93.6079999999999899
0
LINE
8
LYELLOW
6
CONTINUOUS
10
47.3994
20
-82.1409999999999911
11
47.3994
21
-93.5589999999999975
0
LINE
8
LYELLOW
6
CONTINUOUS
10
47.4393999999999991
20
-82.1910000000000025
11
47.4393999999999991
21
-93.5090000000000003
0
LINE
8
LYELLOW
6
CONTINUOUS
10
47.4793999999999983
20
-82.2409999999999997
11
47.4793999999999983
21
-93.458999999999989
0
LINE
8
LYELLOW
6
CONTINUOUS
10
47.5193999999999974
20
-82.2920000000000016
11
47.5193999999999974
21
-93.4080000000000013
0
LINE
8
LYELLOW
6
CONTINUOUS
10
47.5593999999999966
20
-82.3439999999999941
11
47.5593999999999966
21
-93.3559999999999945
0
LINE
8
LYELLOW
6
CONTINUOUS
10
47.5993999999999957
20
-82.3969999999999914
11
47.5993999999999957
21
-93.3029999999999973
0
LINE
8
LYELLOW
6
CONTINUOUS
10
47.6393999999999949
20
-82.4500000000000028
11
47.6393999999999949
21
-93.25
0
LINE
8
LYELLOW
6
CONTINUOUS
10
47.6794000000000011
20
-82.5039999999999907
11
47.6794000000000011
21
-93.195999999999998
0
LINE
8
LYELLOW
6
CONTINUOUS
10
47.7194000000000003
20
-82.5589999999999975
11
47.7194000000000003
21
-93.1409999999999911
0
LINE
8
LYELLOW
6
CONTINUOUS
10
47.7593999999999994
20
-82.6149999999999949
11
47.7593999999999994
21
-93.0849999999999937
0
LINE
8
LYELLOW
6
CONTINUOUS
10
47.7993999999999986
20
-82.671999999999997
11
47.7993999999999986
21
-93.0279999999999916
0
LINE
8
LYELLOW
6
CONTINUOUS
10
47.8393999999999977
20
-82.7299999999999898
11
47.8393999999999977
21
-92.9699999999999989
0
LINE
8
LYELLOW
6
CONTINUOUS
10
47.8793999999999969
20
-82.7890000000000015
11
47.8793999999999969
21
-92.9110000000000014
0
LINE
8
LYELLOW
6
CONTINUOUS
10
47.919399999999996
20
-82.8489999999999895
11
47.919399999999996
21
-92.8509999999999991
0
LINE
8
LYELLOW
6
CONTINUOUS
10
47.9593999999999951
20
-82.9099999999999966
11
47.9593999999999951
21
-92.789999999999992
0
LINE
8
LYELLOW
6
CONTINUOUS
10
47.9993999999999943
20
-82.9709999999999894
11
47.9993999999999943
21
-92.7289999999999992
0
LINE
8
LYELLOW
6
CONTINUOUS
10
48.0394000000000005
20
-83.0339999999999918
11
48.0394000000000005
21
-92.6659999999999968
0
LINE
8
LYELLOW
6
CONTINUOUS
10
48.0793999999999997
20
-83.0989999999999895
11
48.0793999999999997
21
-92.6009999999999991
0
LINE
8
LYELLOW
6
CONTINUOUS
10
48.1193999999999988
20
-83.1640000000000015
11
48.1193999999999988
21
-92.5360000000000014
0
LINE
8
LYELLOW
6
CONTINUOUS
10
48.159399999999998
20
-83.2309999999999945
11
48.159399999999998
21
-92.4689999999999941
0
LINE
8
LYELLOW
6
CONTINUOUS
10
48.1993999999999971
20
-83.2989999999999924
11
48.1993999999999971
21
-92.4009999999999962
0
LINE
8
LYELLOW
6
CONTINUOUS
10
48.2393999999999963
20
-83.367999999999995
11
48.2393999999999963
21
-92.3319999999999936
0
LINE
8
LYELLOW
6
CONTINUOUS
10
48.2793999999999954
20
-83.438999999999993
11
48.2793999999999954
21
-92.2609999999999957
0
LINE
8
LYELLOW
6
CONTINUOUS
10
48.3193999999999946
20
-83.5109999999999957
11
48.3193999999999946
21
-92.188999999999993
0
LINE
8
LYELLOW
6
CONTINUOUS
10
48.3594000000000008
20
-83.5849999999999937
11
48.3594000000000008
21
-92.1149999999999949
0
LINE
8
LYELLOW
6
CONTINUOUS
10
48.3994
20
-83.6610000000000014
11
48.3994
21
-92.0390000000000015
0
LINE
8
LYELLOW
6
CONTINUOUS
10
48.4393999999999991
20
-83.7379999999999995
11
48.4393999999999991
21
-91.9619999999999891
0
LINE
8
LYELLOW
6
CONTINUOUS
10
48.4793999999999983
20
-83.8169999999999931
11
48.4793999999999983
21
-91.8829999999999956
0
LINE
8
LYELLOW
6
CONTINUOUS
10
48.5193999999999974
20
-83.8979999999999961
11
48.5193999999999974
21
-91.8019999999999925
0
LINE
8
LYELLOW
6
CONTINUOUS
10
48.5593999999999966
20
-83.9809999999999945
11
48.5593999999999966
21
-91.7189999999999941
0
LINE
8
LYELLOW
6
CONTINUOUS
10
48.5993999999999957
20
-84.0669999999999931
11
48.5993999999999957
21
-91.6329999999999956
0
LINE
8
LYELLOW
6
CONTINUOUS
10
48.6393999999999949
20
-84.1550000000000011
11
48.6393999999999949
21
-91.5450000000000017
0
LINE
8
LYELLOW
6
CONTINUOUS
10
48.6794000000000011
20
-84.2449999999999903
11
48.6794000000000011
21
-91.4549999999999983
0
LINE
8
LYELLOW
6
CONTINUOUS
10
48.7194000000000003
20
-84.3379999999999939
11
48.7194000000000003
21
-91.3619999999999948
0
LINE
8
LYELLOW
6
CONTINUOUS
10
48.7593999999999994
20
-84.4339999999999975
11
48.7593999999999994
21
-91.2659999999999911
0
LINE
8
LYELLOW
6
CONTINUOUS
10
48.7993999999999986
20
-84.5339999999999918
11
48.7993999999999986
21
-91.1659999999999968
0
LINE
8
LYELLOW
6
CONTINUOUS
10
48.8393999999999977
20
-84.6370000000000005
11
48.8393999999999977
21
-91.0630000000000024
0
LINE
8
LYELLOW
6
CONTINUOUS
10
48.8793999999999969
20
-84.742999999999995
11
48.8793999999999969
21
-90.9569999999999936
0
LINE
8
LYELLOW
6
CONTINUOUS
10
48.919399999999996
20
-84.8539999999999992
11
48.919399999999996
21
-90.8459999999999894
0
LINE
8
LYELLOW
6
CONTINUOUS
10
48.9593999999999951
20
-84.9699999999999989
11
48.9593999999999951
21
-90.7299999999999898
0
LINE
8
LYELLOW
6
CONTINUOUS
10
48.9993999999999943
20
-85.090999999999994
11
48.9993999999999943
21
-90.6089999999999947
0
LINE
8
LYELLOW
6
CONTINUOUS
10
49.0394000000000005
20
-85.2189999999999941
11
49.0394000000000005
21
-90.4809999999999945
0
LINE
8
LYELLOW
6
CONTINUOUS
10
49.0793999999999997
20
-85.3529999999999944
11
49.0793999999999997
21
-90.3469999999999942
0
LINE
8
LYELLOW
6
CONTINUOUS
10
49.1193999999999988
20
-85.4949999999999903
11
49.1193999999999988
21
-90.2049999999999983
0
LINE
8
LYELLOW
6
CONTINUOUS
10
49.159399999999998
20
-85.6479999999999961
11
49.159399999999998
21
-90.0519999999999925
0
LINE
8
LYELLOW
6
CONTINUOUS
10
49.1993999999999971
20
-85.8119999999999976
11
49.1993999999999971
21
-89.887999999999991
0
LINE
8
LYELLOW
6
CONTINUOUS
10
49.2393999999999963
20
-85.9909999999999997
11
49.2393999999999963
21
-89.708999999999989
0
LINE
8
LYELLOW
6
CONTINUOUS
10
49.2793999999999954
20
-86.188999999999993
11
49.2793999999999954
21
-89.5109999999999957
0
LINE
8
LYELLOW
6
CONTINUOUS
10
49.3193999999999946
20
-86.414999999999992
11
49.3193999999999946
21
-89.2849999999999966
0
LINE
8
LYELLOW
6
CONTINUOUS
10
49.3594000000000008
20
-86.6850000000000023
11
49.3594000000000008
21
-89.0150000000000006
0
LINE
8
LYELLOW
6
CONTINUOUS
10
49.3994
20
-87.0369999999999919
11
49.3994
21
-88.6629999999999967
0
LINE
8
LYELLOW
6
CONTINUOUS
10
49.4393999999999991
20
-87.8900000000000006
11
49.4393999999999991
21
-87.8100000000000023
0
CIRCLE
8
LYELLOW
10
40.3194000000000017
20
-87.8499999999999943
40
9.1199999999999992
0
LINE
8
LYELLOW
6
CONTINUOUS
10
27.379999999999999
20
-28.1899999999999977
11
27.379999999999999
21
-35.8099999999999952
0
LINE
8
LYELLOW
6
CONTINUOUS
10
42.6199999999999974
20
-28.1899999999999977
11
27.379999999999999
21
-28.1899999999999977
0
LINE
8
LYELLOW
6
CONTINUOUS
10
42.6199999999999974
20
-28.1899999999999977
11
42.6199999999999974
21
-35.8099999999999952
0
LINE
8
LYELLOW
6
CONTINUOUS
10
42.6199999999999974
20
-29.4599999999999973
11
27.379999999999999
21
-29.4599999999999973
0
LINE
8
LYELLOW
6
CONTINUOUS
10
42.6199999999999974
20
-35.8099999999999952
11
27.379999999999999
21
-35.8099999999999952
0
LINE
8
LYELLOW
6
CONTINUOUS
10
103.9200000000000017
20
-28.1899999999999977
11
103.9200000000000017
21
-35.8099999999999952
0
LINE
8
LYELLOW
6
CONTINUOUS
10
103.9200000000000017
20
-35.8099999999999952
11
114.0799999999999983
21
-35.8099999999999952
0
LINE
8
LYELLOW
6
CONTINUOUS
10
114.0799999999999983
20
-28.1899999999999977
11
103.9200000000000017
21
-28.1899999999999977
0
LINE
8
LYELLOW
6
CONTINUOUS
10
114.0799999999999983
20
-34.5399999999999991
11
103.9200000000000017
21
-34.5399999999999991
0
LINE
8
LYELLOW
6
CONTINUOUS
10
114.0799999999999983
20
-35.8099999999999952
11
114.0799999999999983
21
-28.1899999999999977
0
LINE
8
LYELLOW
6
CONTINUOUS
10
69.0349999999999966
20
-52.3999999999999986
11
70.0549999999999926
21
-52.3999999999999986
0
LINE
8
LYELLOW
6
CONTINUOUS
10
70.8349999999999937
20
-50.9299999999999997
11
70.8349999999999937
21
-53.8699999999999974
0
LINE
8
LYELLOW
6
CONTINUOUS
10
70.9549999999999983
20
-50.9299999999999997
11
70.9549999999999983
21
-53.8699999999999974
0
LINE
8
LYELLOW
6
CONTINUOUS
10
71.0750000000000028
20
-50.9299999999999997
11
71.0750000000000028
21
-53.8699999999999974
0
LINE
8
LYELLOW
6
CONTINUOUS
10
76.5150000000000006
20
-52.3999999999999986
11
75.4949999999999903
21
-52.3999999999999986
0
LINE
8
LYELLOW
6
CONTINUOUS
10
70.0549999999999926
20
-50.9299999999999997
11
75.4949999999999903
21
-50.9299999999999997
0
LINE
8
LYELLOW
6
CONTINUOUS
10
75.4949999999999903
20
-50.9299999999999997
11
75.4949999999999903
21
-53.8699999999999974
0
LINE
8
LYELLOW
6
CONTINUOUS
10
75.4949999999999903
20
-53.8699999999999974
11
70.0549999999999926
21
-53.8699999999999974
0
LINE
8
LYELLOW
6
CONTINUOUS
10
70.0549999999999926
20
-53.8699999999999974
11
70.0549999999999926
21
-50.9299999999999997
0
LINE
8
LYELLOW
6
CONTINUOUS
10
51.125
20
-52.3999999999999986
11
52.144999999999996
21
-52.3999999999999986
0
LINE
8
LYELLOW
6
CONTINUOUS
10
52.9249999999999972
20
-50.9299999999999997
11
52.9249999999999972
21
-53.8699999999999974
0
LINE
8
LYELLOW
6
CONTINUOUS
10
53.0449999999999946
20
-50.9299999999999997
11
53.0449999999999946
21
-53.8699999999999974
0
LINE
8
LYELLOW
6
CONTINUOUS
10
53.1649999999999991
20
-50.9299999999999997
11
53.1649999999999991
21
-53.8699999999999974
0
LINE
8
LYELLOW
6
CONTINUOUS
10
58.6049999999999969
20
-52.3999999999999986
11
57.5850000000000009
21
-52.3999999999999986
0
LINE
8
LYELLOW
6
CONTINUOUS
10
52.144999999999996
20
-50.9299999999999997
11
57.5850000000000009
21
-50.9299999999999997
0
LINE
8
LYELLOW
6
CONTINUOUS
10
57.5850000000000009
20
-50.9299999999999997
11
57.5850000000000009
21
-53.8699999999999974
0
LINE
8
LYELLOW
6
CONTINUOUS
10
57.5850000000000009
20
-53.8699999999999974
11
52.144999999999996
21
-53.8699999999999974
0
LINE
8
LYELLOW
6
CONTINUOUS
10
52.144999999999996
20
-53.8699999999999974
11
52.144999999999996
21
-50.9299999999999997
0
LINE
8
LYELLOW
6
CONTINUOUS
10
54.6544600000000003
20
-61.1849999999999952
11
56.4544599999999974
21
-61.1849999999999952
0
LINE
8
LYELLOW
6
CONTINUOUS
10
55.5544599999999988
20
-60.2849999999999966
11
55.5544599999999988
21
-62.0849999999999937
0
LINE
8
LYELLOW
6
CONTINUOUS
10
64.4138999999999982
20
-57.2199999999999989
11
64.4138999999999982
21
-75.3799999999999955
0
LINE
8
LYELLOW
6
CONTINUOUS
10
64.4538999999999902
20
-57.2199999999999989
11
64.4538999999999902
21
-75.3799999999999955
0
LINE
8
LYELLOW
6
CONTINUOUS
10
64.4938999999999965
20
-57.2199999999999989
11
64.4938999999999965
21
-75.3799999999999955
0
LINE
8
LYELLOW
6
CONTINUOUS
10
64.5339000000000027
20
-57.2209999999999965
11
64.5339000000000027
21
-75.3789999999999907
0
LINE
8
LYELLOW
6
CONTINUOUS
10
64.5738999999999947
20
-57.2209999999999965
11
64.5738999999999947
21
-75.3789999999999907
0
LINE
8
LYELLOW
6
CONTINUOUS
10
64.613900000000001
20
-57.2219999999999942
11
64.613900000000001
21
-75.3780000000000001
0
LINE
8
LYELLOW
6
CONTINUOUS
10
64.653899999999993
20
-57.222999999999999
11
64.653899999999993
21
-75.3769999999999953
0
LINE
8
LYELLOW
6
CONTINUOUS
10
64.6938999999999993
20
-57.2239999999999966
11
64.6938999999999993
21
-75.3759999999999906
0
LINE
8
LYELLOW
6
CONTINUOUS
10
64.7338999999999913
20
-57.2259999999999991
11
64.7338999999999913
21
-75.3739999999999952
0
LINE
8
LYELLOW
6
CONTINUOUS
10
64.7738999999999976
20
-57.2269999999999968
11
64.7738999999999976
21
-75.3729999999999905
0
LINE
8
LYELLOW
6
CONTINUOUS
10
64.8139000000000038
20
-57.2289999999999992
11
64.8139000000000038
21
-75.3709999999999951
0
LINE
8
LYELLOW
6
CONTINUOUS
10
64.8538999999999959
20
-57.2309999999999945
11
64.8538999999999959
21
-75.3689999999999998
0
LINE
8
LYELLOW
6
CONTINUOUS
10
64.8939000000000021
20
-57.232999999999997
11
64.8939000000000021
21
-75.3669999999999902
0
LINE
8
LYELLOW
6
CONTINUOUS
10
64.9338999999999942
20
-57.2349999999999994
11
64.9338999999999942
21
-75.3649999999999949
0
LINE
8
LYELLOW
6
CONTINUOUS
10
64.9739000000000004
20
-57.2369999999999948
11
64.9739000000000004
21
-75.3629999999999995
0
LINE
8
LYELLOW
6
CONTINUOUS
10
65.0138999999999925
20
-57.2399999999999949
11
65.0138999999999925
21
-75.3599999999999994
0
LINE
8
LYELLOW
6
CONTINUOUS
10
65.0538999999999987
20
-57.2419999999999973
11
65.0538999999999987
21
-75.3579999999999899
0
LINE
8
LYELLOW
6
CONTINUOUS
10
65.0938999999999908
20
-57.2449999999999974
11
65.0938999999999908
21
-75.3549999999999898
0
LINE
8
LYELLOW
6
CONTINUOUS
10
65.133899999999997
20
-57.2479999999999976
11
65.133899999999997
21
-75.3519999999999897
0
LINE
8
LYELLOW
6
CONTINUOUS
10
65.1739000000000033
20
-57.2519999999999953
11
65.1739000000000033
21
-75.347999999999999
0
LINE
8
LYELLOW
6
CONTINUOUS
10
65.2138999999999953
20
-57.2549999999999955
11
65.2138999999999953
21
-75.3449999999999989
0
LINE
8
LYELLOW
6
CONTINUOUS
10
65.2539000000000016
20
-57.2590000000000003
11
65.2539000000000016
21
-75.340999999999994
0
LINE
8
LYELLOW
6
CONTINUOUS
10
65.2938999999999936
20
-57.2629999999999981
11
65.2938999999999936
21
-75.3370000000000033
0
LINE
8
LYELLOW
6
CONTINUOUS
10
65.3338999999999999
20
-57.2669999999999959
11
65.3338999999999999
21
-75.3329999999999984
0
LINE
8
LYELLOW
6
CONTINUOUS
10
65.3738999999999919
20
-57.2710000000000008
11
65.3738999999999919
21
-75.3289999999999935
0
LINE
8
LYELLOW
6
CONTINUOUS
10
65.4138999999999982
20
-57.2749999999999986
11
65.4138999999999982
21
-75.3250000000000028
0
LINE
8
LYELLOW
6
CONTINUOUS
10
65.4538999999999902
20
-57.2789999999999964
11
65.4538999999999902
21
-75.320999999999998
0
LINE
8
LYELLOW
6
CONTINUOUS
10
65.4938999999999965
20
-57.2839999999999989
11
65.4938999999999965
21
-75.3160000000000025
0
LINE
8
LYELLOW
6
CONTINUOUS
10
65.5339000000000027
20
-57.2889999999999944
11
65.5339000000000027
21
-75.3109999999999928
0
LINE
8
LYELLOW
6
CONTINUOUS
10
65.5738999999999947
20
-57.2939999999999969
11
65.5738999999999947
21
-75.3059999999999974
0
LINE
8
LYELLOW
6
CONTINUOUS
10
65.613900000000001
20
-57.2989999999999995
11
65.613900000000001
21
-75.3010000000000019
0
LINE
8
LYELLOW
6
CONTINUOUS
10
65.653899999999993
20
-57.3049999999999997
11
65.653899999999993
21
-75.2950000000000017
0
LINE
8
LYELLOW
6
CONTINUOUS
10
65.6938999999999993
20
-57.3099999999999952
11
65.6938999999999993
21
-75.289999999999992
0
LINE
8
LYELLOW
6
CONTINUOUS
10
65.7338999999999913
20
-57.3159999999999954
11
65.7338999999999913
21
-75.2839999999999918
0
LINE
8
LYELLOW
6
CONTINUOUS
10
65.7738999999999976
20
-57.3219999999999956
11
65.7738999999999976
21
-75.2779999999999916
0
LINE
8
LYELLOW
6
CONTINUOUS
10
65.8139000000000038
20
-57.3279999999999959
11
65.8139000000000038
21
-75.2719999999999914
0
LINE
8
LYELLOW
6
CONTINUOUS
10
65.8538999999999959
20
-57.3339999999999961
11
65.8538999999999959
21
-75.2659999999999911
0
LINE
8
LYELLOW
6
CONTINUOUS
10
65.8939000000000021
20
-57.340999999999994
11
65.8939000000000021
21
-75.2590000000000003
0
LINE
8
LYELLOW
6
CONTINUOUS
10
65.9338999999999942
20
-57.347999999999999
11
65.9338999999999942
21
-75.2519999999999953
0
LINE
8
LYELLOW
6
CONTINUOUS
10
65.9739000000000004
20
-57.3539999999999992
11
65.9739000000000004
21
-75.2459999999999951
0
LINE
8
LYELLOW
6
CONTINUOUS
10
66.0138999999999925
20
-57.3609999999999971
11
66.0138999999999925
21
-75.2389999999999901
0
LINE
8
LYELLOW
6
CONTINUOUS
10
66.0538999999999987
20
-57.3689999999999998
11
66.0538999999999987
21
-75.2309999999999945
0
LINE
8
LYELLOW
6
CONTINUOUS
10
66.0938999999999908
20
-57.3759999999999977
11
66.0938999999999908
21
-75.2239999999999895
0
LINE
8
LYELLOW
6
CONTINUOUS
10
66.133899999999997
20
-57.3840000000000003
11
66.133899999999997
21
-75.215999999999994
0
LINE
8
LYELLOW
6
CONTINUOUS
10
66.1739000000000033
20
-57.3909999999999982
11
66.1739000000000033
21
-75.2090000000000032
0
LINE
8
LYELLOW
6
CONTINUOUS
10
66.2138999999999953
20
-57.3990000000000009
11
66.2138999999999953
21
-75.2009999999999934
0
LINE
8
LYELLOW
6
CONTINUOUS
10
66.2539000000000016
20
-57.4079999999999941
11
66.2539000000000016
21
-75.1919999999999931
0
LINE
8
LYELLOW
6
CONTINUOUS
10
66.2938999999999936
20
-57.4159999999999968
11
66.2938999999999936
21
-75.1839999999999975
0
LINE
8
LYELLOW
6
CONTINUOUS
10
66.3338999999999999
20
-57.4239999999999995
11
66.3338999999999999
21
-75.1760000000000019
0
LINE
8
LYELLOW
6
CONTINUOUS
10
66.3738999999999919
20
-57.4329999999999998
11
66.3738999999999919
21
-75.1670000000000016
0
LINE
8
LYELLOW
6
CONTINUOUS
10
66.4138999999999982
20
-57.4420000000000002
11
66.4138999999999982
21
-75.1580000000000013
0
LINE
8
LYELLOW
6
CONTINUOUS
10
66.4538999999999902
20
-57.4510000000000005
11
66.4538999999999902
21
-75.1490000000000009
0
LINE
8
LYELLOW
6
CONTINUOUS
10
66.4938999999999965
20
-57.4600000000000009
11
66.4938999999999965
21
-75.1400000000000006
0
LINE
8
LYELLOW
6
CONTINUOUS
10
66.5339000000000027
20
-57.4699999999999989
11
66.5339000000000027
21
-75.1299999999999955
0
LINE
8
LYELLOW
6
CONTINUOUS
10
66.5738999999999947
20
-57.4789999999999992
11
66.5738999999999947
21
-75.1209999999999951
0
LINE
8
LYELLOW
6
CONTINUOUS
10
66.613900000000001
20
-57.4889999999999972
11
66.613900000000001
21
-75.11099999999999
0
LINE
8
LYELLOW
6
CONTINUOUS
10
66.653899999999993
20
-57.4989999999999952
11
66.653899999999993
21
-75.1009999999999991
0
LINE
8
LYELLOW
6
CONTINUOUS
10
66.6938999999999993
20
-57.509999999999998
11
66.6938999999999993
21
-75.0900000000000034
0
LINE
8
LYELLOW
6
CONTINUOUS
10
66.7338999999999913
20
-57.519999999999996
11
66.7338999999999913
21
-64.8599999999999994
0
LINE
8
LYELLOW
6
CONTINUOUS
10
66.7338999999999913
20
-67.7399999999999949
11
66.7338999999999913
21
-75.0799999999999983
0
LINE
8
LYELLOW
6
CONTINUOUS
10
66.7738999999999976
20
-57.5309999999999988
11
66.7738999999999976
21
-64.8599999999999994
0
LINE
8
LYELLOW
6
CONTINUOUS
10
66.7738999999999976
20
-67.7399999999999949
11
66.7738999999999976
21
-75.0690000000000026
0
LINE
8
LYELLOW
6
CONTINUOUS
10
66.8139000000000038
20
-57.5409999999999968
11
66.8139000000000038
21
-64.8599999999999994
0
LINE
8
LYELLOW
6
CONTINUOUS
10
66.8139000000000038
20
-67.7399999999999949
11
66.8139000000000038
21
-75.0589999999999975
0
LINE
8
LYELLOW
6
CONTINUOUS
10
66.8538999999999959
20
-57.5519999999999996
11
66.8538999999999959
21
-64.8599999999999994
0
LINE
8
LYELLOW
6
CONTINUOUS
10
66.8538999999999959
20
-67.7399999999999949
11
66.8538999999999959
21
-75.0480000000000018
0
LINE
8
LYELLOW
6
CONTINUOUS
10
66.8939000000000021
20
-57.5640000000000001
11
66.8939000000000021
21
-64.8599999999999994
0
LINE
8
LYELLOW
6
CONTINUOUS
10
66.8939000000000021
20
-67.7399999999999949
11
66.8939000000000021
21
-75.0360000000000014
0
LINE
8
LYELLOW
6
CONTINUOUS
10
66.9338999999999942
20
-57.5749999999999957
11
66.9338999999999942
21
-64.8599999999999994
0
LINE
8
LYELLOW
6
CONTINUOUS
10
66.9338999999999942
20
-67.7399999999999949
11
66.9338999999999942
21
-75.0249999999999915
0
LINE
8
LYELLOW
6
CONTINUOUS
10
66.9739000000000004
20
-57.5869999999999962
11
66.9739000000000004
21
-64.8599999999999994
0
LINE
8
LYELLOW
6
CONTINUOUS
10
66.9739000000000004
20
-67.7399999999999949
11
66.9739000000000004
21
-75.012999999999991
0
LINE
8
LYELLOW
6
CONTINUOUS
10
67.0138999999999925
20
-57.597999999999999
11
67.0138999999999925
21
-64.8599999999999994
0
LINE
8
LYELLOW
6
CONTINUOUS
10
67.0138999999999925
20
-67.7399999999999949
11
67.0138999999999925
21
-75.0019999999999953
0
LINE
8
LYELLOW
6
CONTINUOUS
10
67.0538999999999987
20
-57.6099999999999994
11
67.0538999999999987
21
-64.8599999999999994
0
LINE
8
LYELLOW
6
CONTINUOUS
10
67.0538999999999987
20
-67.7399999999999949
11
67.0538999999999987
21
-74.9899999999999949
0
LINE
8
LYELLOW
6
CONTINUOUS
10
67.0938999999999908
20
-57.6229999999999976
11
67.0938999999999908
21
-64.8599999999999994
0
LINE
8
LYELLOW
6
CONTINUOUS
10
67.0938999999999908
20
-67.7399999999999949
11
67.0938999999999908
21
-74.9769999999999897
0
LINE
8
LYELLOW
6
CONTINUOUS
10
67.133899999999997
20
-57.634999999999998
11
67.133899999999997
21
-64.8599999999999994
0
LINE
8
LYELLOW
6
CONTINUOUS
10
67.133899999999997
20
-67.7399999999999949
11
67.133899999999997
21
-74.9650000000000034
0
LINE
8
LYELLOW
6
CONTINUOUS
10
67.1739000000000033
20
-57.6479999999999961
11
67.1739000000000033
21
-64.8599999999999994
0
LINE
8
LYELLOW
6
CONTINUOUS
10
67.1739000000000033
20
-67.7399999999999949
11
67.1739000000000033
21
-74.9519999999999982
0
LINE
8
LYELLOW
6
CONTINUOUS
10
67.2138999999999953
20
-57.6599999999999966
11
67.2138999999999953
21
-64.8599999999999994
0
LINE
8
LYELLOW
6
CONTINUOUS
10
67.2138999999999953
20
-67.7399999999999949
11
67.2138999999999953
21
-74.9399999999999977
0
LINE
8
LYELLOW
6
CONTINUOUS
10
67.2539000000000016
20
-57.6729999999999947
11
67.2539000000000016
21
-64.8599999999999994
0
LINE
8
LYELLOW
6
CONTINUOUS
10
67.2539000000000016
20
-67.7399999999999949
11
67.2539000000000016
21
-74.9269999999999925
0
LINE
8
LYELLOW
6
CONTINUOUS
10
67.2938999999999936
20
-57.6869999999999976
11
67.2938999999999936
21
-64.8599999999999994
0
LINE
8
LYELLOW
6
CONTINUOUS
10
67.2938999999999936
20
-67.7399999999999949
11
67.2938999999999936
21
-74.9129999999999967
0
LINE
8
LYELLOW
6
CONTINUOUS
10
67.3338999999999999
20
-57.6999999999999957
11
67.3338999999999999
21
-64.8599999999999994
0
LINE
8
LYELLOW
6
CONTINUOUS
10
67.3338999999999999
20
-67.7399999999999949
11
67.3338999999999999
21
-74.8999999999999915
0
LINE
8
LYELLOW
6
CONTINUOUS
10
67.3738999999999919
20
-57.7139999999999986
11
67.3738999999999919
21
-64.8599999999999994
0
LINE
8
LYELLOW
6
CONTINUOUS
10
67.3738999999999919
20
-67.7399999999999949
11
67.3738999999999919
21
-74.8859999999999957
0
LINE
8
LYELLOW
6
CONTINUOUS
10
67.4138999999999982
20
-57.7279999999999944
11
67.4138999999999982
21
-64.8599999999999994
0
LINE
8
LYELLOW
6
CONTINUOUS
10
67.4138999999999982
20
-67.7399999999999949
11
67.4138999999999982
21
-74.8719999999999999
0
LINE
8
LYELLOW
6
CONTINUOUS
10
67.4538999999999902
20
-57.7419999999999973
11
67.4538999999999902
21
-64.8599999999999994
0
LINE
8
LYELLOW
6
CONTINUOUS
10
67.4538999999999902
20
-67.7399999999999949
11
67.4538999999999902
21
-74.8579999999999899
0
LINE
8
LYELLOW
6
CONTINUOUS
10
67.4938999999999965
20
-57.7560000000000002
11
67.4938999999999965
21
-64.8599999999999994
0
LINE
8
LYELLOW
6
CONTINUOUS
10
67.4938999999999965
20
-67.7399999999999949
11
67.4938999999999965
21
-74.8439999999999941
0
LINE
8
LYELLOW
6
CONTINUOUS
10
67.5339000000000027
20
-57.769999999999996
11
67.5339000000000027
21
-64.8599999999999994
0
LINE
8
LYELLOW
6
CONTINUOUS
10
67.5339000000000027
20
-67.7399999999999949
11
67.5339000000000027
21
-74.8299999999999983
0
LINE
8
LYELLOW
6
CONTINUOUS
10
67.5738999999999947
20
-57.7849999999999966
11
67.5738999999999947
21
-64.8599999999999994
0
LINE
8
LYELLOW
6
CONTINUOUS
10
67.5738999999999947
20
-67.7399999999999949
11
67.5738999999999947
21
-74.8149999999999977
0
LINE
8
LYELLOW
6
CONTINUOUS
10
67.613900000000001
20
-57.7999999999999972
11
67.613900000000001
21
-64.8599999999999994
0
LINE
8
LYELLOW
6
CONTINUOUS
10
67.613900000000001
20
-67.7399999999999949
11
67.613900000000001
21
-74.7999999999999972
0
LINE
8
LYELLOW
6
CONTINUOUS
10
67.653899999999993
20
-57.8149999999999977
11
67.653899999999993
21
-64.8599999999999994
0
LINE
8
LYELLOW
6
CONTINUOUS
10
67.653899999999993
20
-67.7399999999999949
11
67.653899999999993
21
-74.7849999999999966
0
LINE
8
LYELLOW
6
CONTINUOUS
10
67.6938999999999993
20
-57.8299999999999983
11
67.6938999999999993
21
-64.8599999999999994
0
LINE
8
LYELLOW
6
CONTINUOUS
10
67.6938999999999993
20
-67.7399999999999949
11
67.6938999999999993
21
-74.769999999999996
0
LINE
8
LYELLOW
6
CONTINUOUS
10
67.7338999999999913
20
-57.8459999999999965
11
67.7338999999999913
21
-64.8599999999999994
0
LINE
8
LYELLOW
6
CONTINUOUS
10
67.7338999999999913
20
-67.7399999999999949
11
67.7338999999999913
21
-74.7539999999999907
0
LINE
8
LYELLOW
6
CONTINUOUS
10
67.7738999999999976
20
-57.8619999999999948
11
67.7738999999999976
21
-64.8599999999999994
0
LINE
8
LYELLOW
6
CONTINUOUS
10
67.7738999999999976
20
-67.7399999999999949
11
67.7738999999999976
21
-74.7379999999999995
0
LINE
8
LYELLOW
6
CONTINUOUS
10
67.8139000000000038
20
-57.8769999999999953
11
67.8139000000000038
21
-64.8599999999999994
0
LINE
8
LYELLOW
6
CONTINUOUS
10
67.8139000000000038
20
-67.7399999999999949
11
67.8139000000000038
21
-74.722999999999999
0
LINE
8
LYELLOW
6
CONTINUOUS
10
67.8538999999999959
20
-57.8939999999999984
11
67.8538999999999959
21
-64.8599999999999994
0
LINE
8
LYELLOW
6
CONTINUOUS
10
67.8538999999999959
20
-67.7399999999999949
11
67.8538999999999959
21
-74.7060000000000031
0
LINE
8
LYELLOW
6
CONTINUOUS
10
67.8939000000000021
20
-57.9099999999999966
11
67.8939000000000021
21
-64.8599999999999994
0
LINE
8
LYELLOW
6
CONTINUOUS
10
67.8939000000000021
20
-67.7399999999999949
11
67.8939000000000021
21
-74.6899999999999977
0
LINE
8
LYELLOW
6
CONTINUOUS
10
67.9338999999999942
20
-57.9269999999999996
11
67.9338999999999942
21
-64.8599999999999994
0
LINE
8
LYELLOW
6
CONTINUOUS
10
67.9338999999999942
20
-67.7399999999999949
11
67.9338999999999942
21
-74.6730000000000018
0
LINE
8
LYELLOW
6
CONTINUOUS
10
67.9739000000000004
20
-57.9439999999999955
11
67.9739000000000004
21
-64.8599999999999994
0
LINE
8
LYELLOW
6
CONTINUOUS
10
67.9739000000000004
20
-67.7399999999999949
11
67.9739000000000004
21
-74.6559999999999917
0
LINE
8
LYELLOW
6
CONTINUOUS
10
68.0138999999999925
20
-57.9609999999999985
11
68.0138999999999925
21
-64.8599999999999994
0
LINE
8
LYELLOW
6
CONTINUOUS
10
68.0138999999999925
20
-67.7399999999999949
11
68.0138999999999925
21
-74.6389999999999958
0
LINE
8
LYELLOW
6
CONTINUOUS
10
68.0538999999999987
20
-57.9779999999999944
11
68.0538999999999987
21
-64.8599999999999994
0
LINE
8
LYELLOW
6
CONTINUOUS
10
68.0538999999999987
20
-67.7399999999999949
11
68.0538999999999987
21
-74.6219999999999999
0
LINE
8
LYELLOW
6
CONTINUOUS
10
68.0938999999999908
20
-57.9949999999999974
11
68.0938999999999908
21
-64.8599999999999994
0
LINE
8
LYELLOW
6
CONTINUOUS
10
68.0938999999999908
20
-67.7399999999999949
11
68.0938999999999908
21
-74.6049999999999898
0
LINE
8
LYELLOW
6
CONTINUOUS
10
68.133899999999997
20
-58.0129999999999981
11
68.133899999999997
21
-64.8599999999999994
0
LINE
8
LYELLOW
6
CONTINUOUS
10
68.133899999999997
20
-67.7399999999999949
11
68.133899999999997
21
-74.5870000000000033
0
LINE
8
LYELLOW
6
CONTINUOUS
10
68.1739000000000033
20
-58.0309999999999988
11
68.1739000000000033
21
-64.8599999999999994
0
LINE
8
LYELLOW
6
CONTINUOUS
10
68.1739000000000033
20
-67.7399999999999949
11
68.1739000000000033
21
-74.5690000000000026
0
LINE
8
LYELLOW
6
CONTINUOUS
10
68.2138999999999953
20
-58.0489999999999995
11
68.2138999999999953
21
-64.8599999999999994
0
LINE
8
LYELLOW
6
CONTINUOUS
10
68.2138999999999953
20
-67.7399999999999949
11
68.2138999999999953
21
-74.5510000000000019
0
LINE
8
LYELLOW
6
CONTINUOUS
10
68.2539000000000016
20
-58.0679999999999978
11
68.2539000000000016
21
-64.8599999999999994
0
LINE
8
LYELLOW
6
CONTINUOUS
10
68.2539000000000016
20
-67.7399999999999949
11
68.2539000000000016
21
-74.5319999999999965
0
LINE
8
LYELLOW
6
CONTINUOUS
10
68.2938999999999936
20
-58.0869999999999962
11
68.2938999999999936
21
-64.8599999999999994
0
LINE
8
LYELLOW
6
CONTINUOUS
10
68.2938999999999936
20
-67.7399999999999949
11
68.2938999999999936
21
-74.512999999999991
0
LINE
8
LYELLOW
6
CONTINUOUS
10
68.3338999999999999
20
-58.1049999999999969
11
68.3338999999999999
21
-64.8599999999999994
0
LINE
8
LYELLOW
6
CONTINUOUS
10
68.3338999999999999
20
-67.7399999999999949
11
68.3338999999999999
21
-74.4949999999999903
0
LINE
8
LYELLOW
6
CONTINUOUS
10
68.3738999999999919
20
-58.125
11
68.3738999999999919
21
-64.8599999999999994
0
LINE
8
LYELLOW
6
CONTINUOUS
10
68.3738999999999919
20
-67.7399999999999949
11
68.3738999999999919
21
-74.4749999999999943
0
LINE
8
LYELLOW
6
CONTINUOUS
10
68.4138999999999982
20
-58.1439999999999984
11
68.4138999999999982
21
-64.8599999999999994
0
LINE
8
LYELLOW
6
CONTINUOUS
10
68.4138999999999982
20
-67.7399999999999949
11
68.4138999999999982
21
-74.4560000000000031
0
LINE
8
LYELLOW
6
CONTINUOUS
10
68.4538999999999902
20
-58.1639999999999944
11
68.4538999999999902
21
-64.8599999999999994
0
LINE
8
LYELLOW
6
CONTINUOUS
10
68.4538999999999902
20
-67.7399999999999949
11
68.4538999999999902
21
-74.4359999999999928
0
LINE
8
LYELLOW
6
CONTINUOUS
10
68.4938999999999965
20
-58.1839999999999975
11
68.4938999999999965
21
-64.8599999999999994
0
LINE
8
LYELLOW
6
CONTINUOUS
10
68.4938999999999965
20
-67.7399999999999949
11
68.4938999999999965
21
-74.4159999999999968
0
LINE
8
LYELLOW
6
CONTINUOUS
10
68.5339000000000027
20
-58.2040000000000006
11
68.5339000000000027
21
-64.8599999999999994
0
LINE
8
LYELLOW
6
CONTINUOUS
10
68.5339000000000027
20
-67.7399999999999949
11
68.5339000000000027
21
-74.3960000000000008
0
LINE
8
LYELLOW
6
CONTINUOUS
10
68.5738999999999947
20
-58.2239999999999966
11
68.5738999999999947
21
-64.8599999999999994
0
LINE
8
LYELLOW
6
CONTINUOUS
10
68.5738999999999947
20
-67.7399999999999949
11
68.5738999999999947
21
-74.3759999999999906
0
LINE
8
LYELLOW
6
CONTINUOUS
10
68.613900000000001
20
-58.2449999999999974
11
68.613900000000001
21
-64.8599999999999994
0
LINE
8
LYELLOW
6
CONTINUOUS
10
68.613900000000001
20
-67.7399999999999949
11
68.613900000000001
21
-74.3549999999999898
0
LINE
8
LYELLOW
6
CONTINUOUS
10
68.653899999999993
20
-58.2659999999999982
11
68.653899999999993
21
-64.8599999999999994
0
LINE
8
LYELLOW
6
CONTINUOUS
10
68.653899999999993
20
-67.7399999999999949
11
68.653899999999993
21
-74.3340000000000032
0
LINE
8
LYELLOW
6
CONTINUOUS
10
68.6938999999999993
20
-58.286999999999999
11
68.6938999999999993
21
-64.8599999999999994
0
LINE
8
LYELLOW
6
CONTINUOUS
10
68.6938999999999993
20
-67.7399999999999949
11
68.6938999999999993
21
-74.3130000000000024
0
LINE
8
LYELLOW
6
CONTINUOUS
10
68.7338999999999913
20
-58.3079999999999998
11
68.7338999999999913
21
-64.8599999999999994
0
LINE
8
LYELLOW
6
CONTINUOUS
10
68.7338999999999913
20
-67.7399999999999949
11
68.7338999999999913
21
-74.2920000000000016
0
LINE
8
LYELLOW
6
CONTINUOUS
10
68.7738999999999976
20
-58.3299999999999983
11
68.7738999999999976
21
-64.8599999999999994
0
LINE
8
LYELLOW
6
CONTINUOUS
10
68.7738999999999976
20
-67.7399999999999949
11
68.7738999999999976
21
-74.269999999999996
0
LINE
8
LYELLOW
6
CONTINUOUS
10
68.8139000000000038
20
-58.3519999999999968
11
68.8139000000000038
21
-64.8599999999999994
0
LINE
8
LYELLOW
6
CONTINUOUS
10
68.8139000000000038
20
-67.7399999999999949
11
68.8139000000000038
21
-74.2479999999999905
0
LINE
8
LYELLOW
6
CONTINUOUS
10
68.8538999999999959
20
-58.3739999999999952
11
68.8538999999999959
21
-64.8599999999999994
0
LINE
8
LYELLOW
6
CONTINUOUS
10
68.8538999999999959
20
-67.7399999999999949
11
68.8538999999999959
21
-74.2259999999999991
0
LINE
8
LYELLOW
6
CONTINUOUS
10
68.8939000000000021
20
-58.3960000000000008
11
68.8939000000000021
21
-64.8599999999999994
0
LINE
8
LYELLOW
6
CONTINUOUS
10
68.8939000000000021
20
-67.7399999999999949
11
68.8939000000000021
21
-74.2039999999999935
0
LINE
8
LYELLOW
6
CONTINUOUS
10
68.9338999999999942
20
-58.4189999999999969
11
68.9338999999999942
21
-64.8599999999999994
0
LINE
8
LYELLOW
6
CONTINUOUS
10
68.9338999999999942
20
-67.7399999999999949
11
68.9338999999999942
21
-74.1809999999999974
0
LINE
8
LYELLOW
6
CONTINUOUS
10
68.9739000000000004
20
-58.4420000000000002
11
68.9739000000000004
21
-64.8599999999999994
0
LINE
8
LYELLOW
6
CONTINUOUS
10
68.9739000000000004
20
-67.7399999999999949
11
68.9739000000000004
21
-74.1580000000000013
0
LINE
8
LYELLOW
6
CONTINUOUS
10
69.0138999999999925
20
-58.4649999999999963
11
69.0138999999999925
21
-64.8599999999999994
0
LINE
8
LYELLOW
6
CONTINUOUS
10
69.0138999999999925
20
-67.7399999999999949
11
69.0138999999999925
21
-74.1349999999999909
0
LINE
8
LYELLOW
6
CONTINUOUS
10
69.0538999999999987
20
-58.4889999999999972
11
69.0538999999999987
21
-64.8599999999999994
0
LINE
8
LYELLOW
6
CONTINUOUS
10
69.0538999999999987
20
-67.7399999999999949
11
69.0538999999999987
21
-74.11099999999999
0
LINE
8
LYELLOW
6
CONTINUOUS
10
69.0938999999999908
20
-58.5120000000000005
11
69.0938999999999908
21
-64.8599999999999994
0
LINE
8
LYELLOW
6
CONTINUOUS
10
69.0938999999999908
20
-67.7399999999999949
11
69.0938999999999908
21
-74.0879999999999939
0
LINE
8
LYELLOW
6
CONTINUOUS
10
69.133899999999997
20
-58.5359999999999943
11
69.133899999999997
21
-64.8599999999999994
0
LINE
8
LYELLOW
6
CONTINUOUS
10
69.133899999999997
20
-67.7399999999999949
11
69.133899999999997
21
-74.063999999999993
0
LINE
8
LYELLOW
6
CONTINUOUS
10
69.1739000000000033
20
-58.5609999999999999
11
69.1739000000000033
21
-64.8599999999999994
0
LINE
8
LYELLOW
6
CONTINUOUS
10
69.1739000000000033
20
-67.7399999999999949
11
69.1739000000000033
21
-74.0390000000000015
0
LINE
8
LYELLOW
6
CONTINUOUS
10
69.2138999999999953
20
-58.5850000000000009
11
69.2138999999999953
21
-64.8599999999999994
0
LINE
8
LYELLOW
6
CONTINUOUS
10
69.2138999999999953
20
-67.7399999999999949
11
69.2138999999999953
21
-74.0150000000000006
0
LINE
8
LYELLOW
6
CONTINUOUS
10
69.2539000000000016
20
-58.6099999999999994
11
69.2539000000000016
21
-64.8599999999999994
0
LINE
8
LYELLOW
6
CONTINUOUS
10
69.2539000000000016
20
-67.7399999999999949
11
69.2539000000000016
21
-73.9899999999999949
0
LINE
8
LYELLOW
6
CONTINUOUS
10
69.2938999999999936
20
-58.634999999999998
11
69.2938999999999936
21
-64.8599999999999994
0
LINE
8
LYELLOW
6
CONTINUOUS
10
69.2938999999999936
20
-67.7399999999999949
11
69.2938999999999936
21
-73.9650000000000034
0
LINE
8
LYELLOW
6
CONTINUOUS
10
69.3338999999999999
20
-58.6609999999999943
11
69.3338999999999999
21
-64.8599999999999994
0
LINE
8
LYELLOW
6
CONTINUOUS
10
69.3338999999999999
20
-67.7399999999999949
11
69.3338999999999999
21
-73.938999999999993
0
LINE
8
LYELLOW
6
CONTINUOUS
10
69.3738999999999919
20
-58.6869999999999976
11
69.3738999999999919
21
-64.8599999999999994
0
LINE
8
LYELLOW
6
CONTINUOUS
10
69.3738999999999919
20
-67.7399999999999949
11
69.3738999999999919
21
-73.9129999999999967
0
LINE
8
LYELLOW
6
CONTINUOUS
10
69.4138999999999982
20
-58.7129999999999939
11
69.4138999999999982
21
-64.8599999999999994
0
LINE
8
LYELLOW
6
CONTINUOUS
10
69.4138999999999982
20
-67.7399999999999949
11
69.4138999999999982
21
-73.8870000000000005
0
LINE
8
LYELLOW
6
CONTINUOUS
10
69.4538999999999902
20
-58.7389999999999972
11
69.4538999999999902
21
-64.8599999999999994
0
LINE
8
LYELLOW
6
CONTINUOUS
10
69.4538999999999902
20
-67.7399999999999949
11
69.4538999999999902
21
-73.86099999999999
0
LINE
8
LYELLOW
6
CONTINUOUS
10
69.4938999999999965
20
-58.7659999999999982
11
69.4938999999999965
21
-64.8599999999999994
0
LINE
8
LYELLOW
6
CONTINUOUS
10
69.4938999999999965
20
-67.7399999999999949
11
69.4938999999999965
21
-73.8340000000000032
0
LINE
8
LYELLOW
6
CONTINUOUS
10
69.5339000000000027
20
-58.7929999999999993
11
69.5339000000000027
21
-64.8599999999999994
0
LINE
8
LYELLOW
6
CONTINUOUS
10
69.5339000000000027
20
-67.7399999999999949
11
69.5339000000000027
21
-73.8070000000000022
0
LINE
8
LYELLOW
6
CONTINUOUS
10
69.5738999999999947
20
-58.8200000000000003
11
69.5738999999999947
21
-64.8599999999999994
0
LINE
8
LYELLOW
6
CONTINUOUS
10
69.5738999999999947
20
-67.7399999999999949
11
69.5738999999999947
21
-73.7800000000000011
0
LINE
8
LYELLOW
6
CONTINUOUS
10
69.613900000000001
20
-58.847999999999999
11
69.613900000000001
21
-73.7519999999999953
0
LINE
8
LYELLOW
6
CONTINUOUS
10
69.653899999999993
20
-58.8759999999999977
11
69.653899999999993
21
-73.7240000000000038
0
LINE
8
LYELLOW
6
CONTINUOUS
10
69.6938999999999993
20
-58.9039999999999964
11
69.6938999999999993
21
-73.695999999999998
0
LINE
8
LYELLOW
6
CONTINUOUS
10
69.7338999999999913
20
-58.9319999999999951
11
69.7338999999999913
21
-73.6679999999999922
0
LINE
8
LYELLOW
6
CONTINUOUS
10
69.7738999999999976
20
-58.9609999999999985
11
69.7738999999999976
21
-73.6389999999999958
0
LINE
8
LYELLOW
6
CONTINUOUS
10
69.8139000000000038
20
-58.9909999999999997
11
69.8139000000000038
21
-73.6089999999999947
0
LINE
8
LYELLOW
6
CONTINUOUS
10
69.8538999999999959
20
-59.019999999999996
11
69.8538999999999959
21
-73.5799999999999983
0
LINE
8
LYELLOW
6
CONTINUOUS
10
69.8939000000000021
20
-59.0499999999999972
11
69.8939000000000021
21
-73.5499999999999972
0
LINE
8
LYELLOW
6
CONTINUOUS
10
69.9338999999999942
20
-59.0799999999999983
11
69.9338999999999942
21
-73.519999999999996
0
LINE
8
LYELLOW
6
CONTINUOUS
10
69.9739000000000004
20
-59.1109999999999971
11
69.9739000000000004
21
-73.4889999999999901
0
LINE
8
LYELLOW
6
CONTINUOUS
10
70.0138999999999925
20
-59.1419999999999959
11
70.0138999999999925
21
-73.4579999999999984
0
LINE
8
LYELLOW
6
CONTINUOUS
10
70.0538999999999987
20
-59.1729999999999947
11
70.0538999999999987
21
-73.4269999999999925
0
LINE
8
LYELLOW
6
CONTINUOUS
10
70.0938999999999908
20
-59.2049999999999983
11
70.0938999999999908
21
-73.394999999999996
0
LINE
8
LYELLOW
6
CONTINUOUS
10
70.133899999999997
20
-59.2369999999999948
11
70.133899999999997
21
-73.3629999999999995
0
LINE
8
LYELLOW
6
CONTINUOUS
10
70.1739000000000033
20
-59.2689999999999984
11
70.1739000000000033
21
-73.3310000000000031
0
LINE
8
LYELLOW
6
CONTINUOUS
10
70.2138999999999953
20
-59.3019999999999996
11
70.2138999999999953
21
-73.2980000000000018
0
LINE
8
LYELLOW
6
CONTINUOUS
10
70.2539000000000016
20
-59.3350000000000009
11
70.2539000000000016
21
-73.2650000000000006
0
LINE
8
LYELLOW
6
CONTINUOUS
10
70.2938999999999936
20
-59.3689999999999998
11
70.2938999999999936
21
-73.2309999999999945
0
LINE
8
LYELLOW
6
CONTINUOUS
10
70.3338999999999999
20
-59.4029999999999987
11
70.3338999999999999
21
-73.1970000000000027
0
LINE
8
LYELLOW
6
CONTINUOUS
10
70.3738999999999919
20
-59.4369999999999976
11
70.3738999999999919
21
-73.1629999999999967
0
LINE
8
LYELLOW
6
CONTINUOUS
10
70.4138999999999982
20
-59.4719999999999942
11
70.4138999999999982
21
-73.1280000000000001
0
LINE
8
LYELLOW
6
CONTINUOUS
10
70.4538999999999902
20
-59.5069999999999979
11
70.4538999999999902
21
-73.0930000000000035
0
LINE
8
LYELLOW
6
CONTINUOUS
10
70.4938999999999965
20
-59.5419999999999945
11
70.4938999999999965
21
-73.0579999999999927
0
LINE
8
LYELLOW
6
CONTINUOUS
10
70.5339000000000027
20
-59.5779999999999959
11
70.5339000000000027
21
-73.0219999999999914
0
LINE
8
LYELLOW
6
CONTINUOUS
10
70.5738999999999947
20
-59.6149999999999949
11
70.5738999999999947
21
-72.9849999999999994
0
LINE
8
LYELLOW
6
CONTINUOUS
10
70.613900000000001
20
-59.6519999999999939
11
70.613900000000001
21
-72.9479999999999933
0
LINE
8
LYELLOW
6
CONTINUOUS
10
70.653899999999993
20
-59.6890000000000001
11
70.653899999999993
21
-72.9110000000000014
0
LINE
8
LYELLOW
6
CONTINUOUS
10
70.6938999999999993
20
-59.7269999999999968
11
70.6938999999999993
21
-72.8729999999999905
0
LINE
8
LYELLOW
6
CONTINUOUS
10
70.7338999999999913
20
-59.7650000000000006
11
70.7338999999999913
21
-72.8349999999999937
0
LINE
8
LYELLOW
6
CONTINUOUS
10
70.7738999999999976
20
-59.8039999999999949
11
70.7738999999999976
21
-72.7959999999999923
0
LINE
8
LYELLOW
6
CONTINUOUS
10
70.8139000000000038
20
-59.8429999999999964
11
70.8139000000000038
21
-72.7569999999999908
0
LINE
8
LYELLOW
6
CONTINUOUS
10
70.8538999999999959
20
-59.8819999999999979
11
70.8538999999999959
21
-72.7180000000000035
0
LINE
8
LYELLOW
6
CONTINUOUS
10
70.8939000000000021
20
-59.9229999999999947
11
70.8939000000000021
21
-72.6769999999999925
0
LINE
8
LYELLOW
6
CONTINUOUS
10
70.9338999999999942
20
-59.9629999999999939
11
70.9338999999999942
21
-72.6370000000000005
0
LINE
8
LYELLOW
6
CONTINUOUS
10
70.9739000000000004
20
-60.0039999999999978
11
70.9739000000000004
21
-72.5960000000000036
0
LINE
8
LYELLOW
6
CONTINUOUS
10
71.0138999999999925
20
-60.0459999999999994
11
71.0138999999999925
21
-72.554000000000002
0
LINE
8
LYELLOW
6
CONTINUOUS
10
71.0538999999999987
20
-60.0879999999999939
11
71.0538999999999987
21
-72.5120000000000005
0
LINE
8
LYELLOW
6
CONTINUOUS
10
71.0938999999999908
20
-60.1310000000000002
11
71.0938999999999908
21
-72.4689999999999941
0
LINE
8
LYELLOW
6
CONTINUOUS
10
71.133899999999997
20
-60.1739999999999995
11
71.133899999999997
21
-72.4260000000000019
0
LINE
8
LYELLOW
6
CONTINUOUS
10
71.1739000000000033
20
-60.2179999999999964
11
71.1739000000000033
21
-72.3819999999999908
0
LINE
8
LYELLOW
6
CONTINUOUS
10
71.2138999999999953
20
-60.2629999999999981
11
71.2138999999999953
21
-72.3370000000000033
0
LINE
8
LYELLOW
6
CONTINUOUS
10
71.2539000000000016
20
-60.3079999999999998
11
71.2539000000000016
21
-72.2920000000000016
0
LINE
8
LYELLOW
6
CONTINUOUS
10
71.2938999999999936
20
-60.3529999999999944
11
71.2938999999999936
21
-72.2469999999999999
0
LINE
8
LYELLOW
6
CONTINUOUS
10
71.3338999999999999
20
-60.3999999999999986
11
71.3338999999999999
21
-72.2000000000000028
0
LINE
8
LYELLOW
6
CONTINUOUS
10
71.3738999999999919
20
-60.4469999999999956
11
71.3738999999999919
21
-72.1529999999999916
0
LINE
8
LYELLOW
6
CONTINUOUS
10
71.4138999999999982
20
-60.4939999999999998
11
71.4138999999999982
21
-72.1059999999999945
0
LINE
8
LYELLOW
6
CONTINUOUS
10
71.4538999999999902
20
-60.5419999999999945
11
71.4538999999999902
21
-72.0579999999999927
0
LINE
8
LYELLOW
6
CONTINUOUS
10
71.4938999999999965
20
-60.590999999999994
11
71.4938999999999965
21
-72.0090000000000003
0
LINE
8
LYELLOW
6
CONTINUOUS
10
71.5339000000000027
20
-60.6409999999999982
11
71.5339000000000027
21
-71.9590000000000032
0
LINE
8
LYELLOW
6
CONTINUOUS
10
71.5738999999999947
20
-60.6909999999999954
11
71.5738999999999947
21
-71.9089999999999918
0
LINE
8
LYELLOW
6
CONTINUOUS
10
71.613900000000001
20
-60.7419999999999973
11
71.613900000000001
21
-71.8579999999999899
0
LINE
8
LYELLOW
6
CONTINUOUS
10
71.653899999999993
20
-60.7939999999999969
11
71.653899999999993
21
-71.8059999999999974
0
LINE
8
LYELLOW
6
CONTINUOUS
10
71.6938999999999993
20
-60.8469999999999942
11
71.6938999999999993
21
-71.7530000000000001
0
LINE
8
LYELLOW
6
CONTINUOUS
10
71.7338999999999913
20
-60.8999999999999986
11
71.7338999999999913
21
-71.7000000000000028
0
LINE
8
LYELLOW
6
CONTINUOUS
10
71.7738999999999976
20
-60.9540000000000006
11
71.7738999999999976
21
-71.6460000000000008
0
LINE
8
LYELLOW
6
CONTINUOUS
10
71.8139000000000038
20
-61.0090000000000003
11
71.8139000000000038
21
-71.590999999999994
0
LINE
8
LYELLOW
6
CONTINUOUS
10
71.8538999999999959
20
-61.0649999999999977
11
71.8538999999999959
21
-71.5349999999999966
0
LINE
8
LYELLOW
6
CONTINUOUS
10
71.8939000000000021
20
-61.1219999999999999
11
71.8939000000000021
21
-71.4779999999999944
0
LINE
8
LYELLOW
6
CONTINUOUS
10
71.9338999999999942
20
-61.1799999999999997
11
71.9338999999999942
21
-71.4200000000000017
0
LINE
8
LYELLOW
6
CONTINUOUS
10
71.9739000000000004
20
-61.2389999999999972
11
71.9739000000000004
21
-71.36099999999999
0
LINE
8
LYELLOW
6
CONTINUOUS
10
72.0138999999999925
20
-61.2989999999999995
11
72.0138999999999925
21
-71.3010000000000019
0
LINE
8
LYELLOW
6
CONTINUOUS
10
72.0538999999999987
20
-61.3599999999999994
11
72.0538999999999987
21
-71.2399999999999949
0
LINE
8
LYELLOW
6
CONTINUOUS
10
72.0938999999999908
20
-61.4209999999999994
11
72.0938999999999908
21
-71.179000000000002
0
LINE
8
LYELLOW
6
CONTINUOUS
10
72.133899999999997
20
-61.4839999999999947
11
72.133899999999997
21
-71.1159999999999997
0
LINE
8
LYELLOW
6
CONTINUOUS
10
72.1739000000000033
20
-61.5489999999999995
11
72.1739000000000033
21
-71.0510000000000019
0
LINE
8
LYELLOW
6
CONTINUOUS
10
72.2138999999999953
20
-61.6139999999999972
11
72.2138999999999953
21
-70.98599999999999
0
LINE
8
LYELLOW
6
CONTINUOUS
10
72.2539000000000016
20
-61.6809999999999974
11
72.2539000000000016
21
-70.9189999999999969
0
LINE
8
LYELLOW
6
CONTINUOUS
10
72.2938999999999936
20
-61.7489999999999952
11
72.2938999999999936
21
-70.8509999999999991
0
LINE
8
LYELLOW
6
CONTINUOUS
10
72.3338999999999999
20
-61.8179999999999978
11
72.3338999999999999
21
-70.7819999999999965
0
LINE
8
LYELLOW
6
CONTINUOUS
10
72.3738999999999919
20
-61.8889999999999958
11
72.3738999999999919
21
-70.7109999999999985
0
LINE
8
LYELLOW
6
CONTINUOUS
10
72.4138999999999982
20
-61.9609999999999985
11
72.4138999999999982
21
-70.6389999999999958
0
LINE
8
LYELLOW
6
CONTINUOUS
10
72.4538999999999902
20
-62.0349999999999966
11
72.4538999999999902
21
-70.5649999999999977
0
LINE
8
LYELLOW
6
CONTINUOUS
10
72.4938999999999965
20
-62.1109999999999971
11
72.4938999999999965
21
-70.4889999999999901
0
LINE
8
LYELLOW
6
CONTINUOUS
10
72.5339000000000027
20
-62.1879999999999953
11
72.5339000000000027
21
-70.4119999999999919
0
LINE
8
LYELLOW
6
CONTINUOUS
10
72.5738999999999947
20
-62.2669999999999959
11
72.5738999999999947
21
-70.3329999999999984
0
LINE
8
LYELLOW
6
CONTINUOUS
10
72.613900000000001
20
-62.347999999999999
11
72.613900000000001
21
-70.2519999999999953
0
LINE
8
LYELLOW
6
CONTINUOUS
10
72.653899999999993
20
-62.4309999999999974
11
72.653899999999993
21
-70.1689999999999969
0
LINE
8
LYELLOW
6
CONTINUOUS
10
72.6938999999999993
20
-62.5169999999999959
11
72.6938999999999993
21
-70.0829999999999984
0
LINE
8
LYELLOW
6
CONTINUOUS
10
72.7338999999999913
20
-62.6049999999999969
11
72.7338999999999913
21
-69.9949999999999903
0
LINE
8
LYELLOW
6
CONTINUOUS
10
72.7738999999999976
20
-62.6950000000000003
11
72.7738999999999976
21
-69.9050000000000011
0
LINE
8
LYELLOW
6
CONTINUOUS
10
72.8138999999999896
20
-62.7879999999999967
11
72.8138999999999896
21
-69.8119999999999976
0
LINE
8
LYELLOW
6
CONTINUOUS
10
72.8538999999999959
20
-62.8840000000000003
11
72.8538999999999959
21
-69.715999999999994
0
LINE
8
LYELLOW
6
CONTINUOUS
10
72.8939000000000021
20
-62.9839999999999947
11
72.8939000000000021
21
-69.6159999999999997
0
LINE
8
LYELLOW
6
CONTINUOUS
10
72.9338999999999942
20
-63.0869999999999962
11
72.9338999999999942
21
-69.512999999999991
0
LINE
8
LYELLOW
6
CONTINUOUS
10
72.9739000000000004
20
-63.1929999999999978
11
72.9739000000000004
21
-69.4069999999999965
0
LINE
8
LYELLOW
6
CONTINUOUS
10
73.0138999999999925
20
-63.3039999999999949
11
73.0138999999999925
21
-69.2959999999999923
0
LINE
8
LYELLOW
6
CONTINUOUS
10
73.0538999999999987
20
-63.4199999999999946
11
73.0538999999999987
21
-69.1799999999999926
0
LINE
8
LYELLOW
6
CONTINUOUS
10
73.0938999999999908
20
-63.5409999999999968
11
73.0938999999999908
21
-69.0589999999999975
0
LINE
8
LYELLOW
6
CONTINUOUS
10
73.133899999999997
20
-63.6689999999999969
11
73.133899999999997
21
-68.9309999999999974
0
LINE
8
LYELLOW
6
CONTINUOUS
10
73.1739000000000033
20
-63.8029999999999973
11
73.1739000000000033
21
-68.796999999999997
0
LINE
8
LYELLOW
6
CONTINUOUS
10
73.2138999999999953
20
-63.9450000000000003
11
73.2138999999999953
21
-68.6550000000000011
0
LINE
8
LYELLOW
6
CONTINUOUS
10
73.2539000000000016
20
-64.097999999999999
11
73.2539000000000016
21
-68.5019999999999953
0
LINE
8
LYELLOW
6
CONTINUOUS
10
73.2938999999999936
20
-64.2620000000000005
11
73.2938999999999936
21
-68.3379999999999939
0
LINE
8
LYELLOW
6
CONTINUOUS
10
73.3338999999999999
20
-64.4410000000000025
11
73.3338999999999999
21
-68.1589999999999918
0
LINE
8
LYELLOW
6
CONTINUOUS
10
73.3738999999999919
20
-64.6389999999999958
11
73.3738999999999919
21
-67.9609999999999985
0
LINE
8
LYELLOW
6
CONTINUOUS
10
73.4138999999999982
20
-64.8649999999999949
11
73.4138999999999982
21
-67.7349999999999994
0
LINE
8
LYELLOW
6
CONTINUOUS
10
73.4538999999999902
20
-65.1349999999999909
11
73.4538999999999902
21
-67.4650000000000034
0
LINE
8
LYELLOW
6
CONTINUOUS
10
73.4938999999999965
20
-65.4869999999999948
11
73.4938999999999965
21
-67.1129999999999995
0
LINE
8
LYELLOW
6
CONTINUOUS
10
73.5339000000000027
20
-66.3400000000000034
11
73.5339000000000027
21
-66.2599999999999909
0
CIRCLE
8
LYELLOW
10
64.4138999999999982
20
-66.2999999999999972
40
9.1199999999999992
0
LINE
8
LYELLOW
6
CONTINUOUS
10
69.0349999999999966
20
-46.1499999999999986
11
70.0549999999999926
21
-46.1499999999999986
0
LINE
8
LYELLOW
6
CONTINUOUS
10
70.8349999999999937
20
-44.6799999999999997
11
70.8349999999999937
21
-47.6199999999999974
0
LINE
8
LYELLOW
6
CONTINUOUS
10
70.9549999999999983
20
-44.6799999999999997
11
70.9549999999999983
21
-47.6199999999999974
0
LINE
8
LYELLOW
6
CONTINUOUS
10
71.0750000000000028
20
-44.6799999999999997
11
71.0750000000000028
21
-47.6199999999999974
0
LINE
8
LYELLOW
6
CONTINUOUS
10
76.5150000000000006
20
-46.1499999999999986
11
75.4949999999999903
21
-46.1499999999999986
0
LINE
8
LYELLOW
6
CONTINUOUS
10
70.0549999999999926
20
-44.6799999999999997
11
75.4949999999999903
21
-44.6799999999999997
0
LINE
8
LYELLOW
6
CONTINUOUS
10
75.4949999999999903
20
-44.6799999999999997
11
75.4949999999999903
21
-47.6199999999999974
0
LINE
8
LYELLOW
6
CONTINUOUS
10
75.4949999999999903
20
-47.6199999999999974
11
70.0549999999999926
21
-47.6199999999999974
0
LINE
8
LYELLOW
6
CONTINUOUS
10
70.0549999999999926
20
-47.6199999999999974
11
70.0549999999999926
21
-44.6799999999999997
0
LINE
8
LYELLOW
6
CONTINUOUS
10
33.2149999999999963
20
-52.3999999999999986
11
34.2349999999999994
21
-52.3999999999999986
0
LINE
8
LYELLOW
6
CONTINUOUS
10
35.0150000000000006
20
-50.9299999999999997
11
35.0150000000000006
21
-53.8699999999999974
0
LINE
8
LYELLOW
6
CONTINUOUS
10
35.134999999999998
20
-50.9299999999999997
11
35.134999999999998
21
-53.8699999999999974
0
LINE
8
LYELLOW
6
CONTINUOUS
10
35.2549999999999955
20
-50.9299999999999997
11
35.2549999999999955
21
-53.8699999999999974
0
LINE
8
LYELLOW
6
CONTINUOUS
10
40.6950000000000003
20
-52.3999999999999986
11
39.6749999999999972
21
-52.3999999999999986
0
LINE
8
LYELLOW
6
CONTINUOUS
10
34.2349999999999994
20
-50.9299999999999997
11
39.6749999999999972
21
-50.9299999999999997
0
LINE
8
LYELLOW
6
CONTINUOUS
10
39.6749999999999972
20
-50.9299999999999997
11
39.6749999999999972
21
-53.8699999999999974
0
LINE
8
LYELLOW
6
CONTINUOUS
10
39.6749999999999972
20
-53.8699999999999974
11
34.2349999999999994
21
-53.8699999999999974
0
LINE
8
LYELLOW
6
CONTINUOUS
10
34.2349999999999994
20
-53.8699999999999974
11
34.2349999999999994
21
-50.9299999999999997
0
LINE
8
LYELLOW
6
CONTINUOUS
10
51.125
20
-46.1499999999999986
11
52.144999999999996
21
-46.1499999999999986
0
LINE
8
LYELLOW
6
CONTINUOUS
10
52.9249999999999972
20
-44.6799999999999997
11
52.9249999999999972
21
-47.6199999999999974
0
LINE
8
LYELLOW
6
CONTINUOUS
10
53.0449999999999946
20
-44.6799999999999997
11
53.0449999999999946
21
-47.6199999999999974
0
LINE
8
LYELLOW
6
CONTINUOUS
10
53.1649999999999991
20
-44.6799999999999997
11
53.1649999999999991
21
-47.6199999999999974
0
LINE
8
LYELLOW
6
CONTINUOUS
10
58.6049999999999969
20
-46.1499999999999986
11
57.5850000000000009
21
-46.1499999999999986
0
LINE
8
LYELLOW
6
CONTINUOUS
10
52.144999999999996
20
-44.6799999999999997
11
57.5850000000000009
21
-44.6799999999999997
0
LINE
8
LYELLOW
6
CONTINUOUS
10
57.5850000000000009
20
-44.6799999999999997
11
57.5850000000000009
21
-47.6199999999999974
0
LINE
8
LYELLOW
6
CONTINUOUS
10
57.5850000000000009
20
-47.6199999999999974
11
52.144999999999996
21
-47.6199999999999974
0
LINE
8
LYELLOW
6
CONTINUOUS
10
52.144999999999996
20
-47.6199999999999974
11
52.144999999999996
21
-44.6799999999999997
0
LINE
8
LYELLOW
6
CONTINUOUS
10
56.2093999999999951
20
-86.4799999999999898
11
62.7493999999999943
21
-86.4799999999999898
0
LINE
8
LYELLOW
6
CONTINUOUS
10
56.2093999999999951
20
-86.8100000000000023
11
56.2093999999999951
21
-86.4799999999999898
0
LINE
8
LYELLOW
6
CONTINUOUS
10
56.2093999999999951
20
-88.8900000000000006
11
56.2093999999999951
21
-89.2199999999999989
0
LINE
8
LYELLOW
6
CONTINUOUS
10
56.2093999999999951
20
-89.2199999999999989
11
62.7493999999999943
21
-89.2199999999999989
0
LINE
8
LYELLOW
6
CONTINUOUS
10
62.7493999999999943
20
-86.4799999999999898
11
62.7493999999999943
21
-86.8100000000000023
0
LINE
8
LYELLOW
6
CONTINUOUS
10
62.7493999999999943
20
-89.2199999999999989
11
62.7493999999999943
21
-88.8900000000000006
0
LINE
8
LYELLOW
6
CONTINUOUS
10
33.2149999999999963
20
-46.1499999999999986
11
34.2349999999999994
21
-46.1499999999999986
0
LINE
8
LYELLOW
6
CONTINUOUS
10
35.0150000000000006
20
-44.6799999999999997
11
35.0150000000000006
21
-47.6199999999999974
0
LINE
8
LYELLOW
6
CONTINUOUS
10
35.134999999999998
20
-44.6799999999999997
11
35.134999999999998
21
-47.6199999999999974
0
LINE
8
LYELLOW
6
CONTINUOUS
10
35.2549999999999955
20
-44.6799999999999997
11
35.2549999999999955
21
-47.6199999999999974
0
LINE
8
LYELLOW
6
CONTINUOUS
10
40.6950000000000003
20
-46.1499999999999986
11
39.6749999999999972
21
-46.1499999999999986
0
LINE
8
LYELLOW
6
CONTINUOUS
10
34.2349999999999994
20
-44.6799999999999997
11
39.6749999999999972
21
-44.6799999999999997
0
LINE
8
LYELLOW
6
CONTINUOUS
10
39.6749999999999972
20
-44.6799999999999997
11
39.6749999999999972
21
-47.6199999999999974
0
LINE
8
LYELLOW
6
CONTINUOUS
10
39.6749999999999972
20
-47.6199999999999974
11
34.2349999999999994
21
-47.6199999999999974
0
LINE
8
LYELLOW
6
CONTINUOUS
10
34.2349999999999994
20
-47.6199999999999974
11
34.2349999999999994
21
-44.6799999999999997
0
LINE
8
WHITE
6
CONTINUOUS
10
20.
20
-20.
11
124.
21
-20.
0
LINE
8
WHITE
6
CONTINUOUS
10
124.
20
-20.
11
124.
21
-124.
0
LINE
8
WHITE
6
CONTINUOUS
10
124.
20
-124.
11
20.
21
-124.
0
LINE
8
WHITE
6
CONTINUOUS
10
20.
20
-124.
11
20.
21
-20.
  0
ENDSEC
  0
EOF
