  0
SECTION
  2
HEADER
  9
$ANGBASE
  50
0.0
  9
$ANGDIR
  70
1
  9
$MEASUREMENT
  70
1
  0
ENDSEC
  0
SECTION
  2
TABLES
  0
TABLE
  2
LTYPE
  70
4
  0
LTYPE
  5
40F
  2
CONTINUOUS
  70
0
  3
Solid line
  72
65
  73
0
  40
0.0
  0
LTYPE
  5
410
  2
DASHDOT
 70
0
  3
Dash Dot ____ _ ____ _
 72
65
 73
4
 40
2.0
 49
1.25
 49
-0.25
 49
0.25
 49
-0.25
  0
LTYPE
  5
411
  2
DASHED
 70
0
  3
Dashed __ __ __ __ __
 72
65
 73
2
 40
0.75
 49
0.5
 49
-0.25
  0
LTYPE
  5
43B
  2
DOTTED
 70
0
  3
Dotted .  .  .  .
 72
65
 73
2
 40
0.2
 49
0.0
 49
-0.2
  0
ENDTAB
  0
TABLE
  2
STYLE
  70
4
  0
STYLE
  2
KICAD
  70
0
  40
0
  41
1
  42
1
  50
0
  71
0
  3
isocp.shx
  0
STYLE
  2
KICADB
  70
0
  40
0
  41
1
  42
1
  50
0
  71
0
  3
isocp.shx
  0
STYLE
  2
KICADI
  70
0
  40
0
  41
1
  42
1
  50
15
  71
0
  3
isocp.shx
  0
STYLE
  2
KICADBI
  70
0
  40
0
  41
1
  42
1
  50
15
  71
0
  3
isocp.shx
  0
ENDTAB
  0
TABLE
  2
LAYER
  70
35
  0
LAYER
  2
BLACK
  70
0
  62
7
  6
CONTINUOUS
  0
LAYER
  2
GRAY1
  70
0
  62
251
  6
CONTINUOUS
  0
LAYER
  2
GRAY2
  70
0
  62
8
  6
CONTINUOUS
  0
LAYER
  2
GRAY3
  70
0
  62
9
  6
CONTINUOUS
  0
LAYER
  2
WHITE
  70
0
  62
7
  6
CONTINUOUS
  0
LAYER
  2
LYELLOW
  70
0
  62
51
  6
CONTINUOUS
  0
LAYER
  2
LORANGE
  70
0
  62
41
  6
CONTINUOUS
  0
LAYER
  2
BLUE1
  70
0
  62
178
  6
CONTINUOUS
  0
LAYER
  2
GREEN1
  70
0
  62
98
  6
CONTINUOUS
  0
LAYER
  2
CYAN1
  70
0
  62
138
  6
CONTINUOUS
  0
LAYER
  2
RED1
  70
0
  62
18
  6
CONTINUOUS
  0
LAYER
  2
MAGENTA1
  70
0
  62
228
  6
CONTINUOUS
  0
LAYER
  2
BROWN1
  70
0
  62
58
  6
CONTINUOUS
  0
LAYER
  2
ORANGE1
  70
0
  62
34
  6
CONTINUOUS
  0
LAYER
  2
BLUE2
  70
0
  62
5
  6
CONTINUOUS
  0
LAYER
  2
GREEN2
  70
0
  62
3
  6
CONTINUOUS
  0
LAYER
  2
CYAN2
  70
0
  62
4
  6
CONTINUOUS
  0
LAYER
  2
RED2
  70
0
  62
1
  6
CONTINUOUS
  0
LAYER
  2
MAGENTA2
  70
0
  62
6
  6
CONTINUOUS
  0
LAYER
  2
BROWN2
  70
0
  62
54
  6
CONTINUOUS
  0
LAYER
  2
ORANGE2
  70
0
  62
42
  6
CONTINUOUS
  0
LAYER
  2
BLUE3
  70
0
  62
171
  6
CONTINUOUS
  0
LAYER
  2
GREEN3
  70
0
  62
91
  6
CONTINUOUS
  0
LAYER
  2
CYAN3
  70
0
  62
131
  6
CONTINUOUS
  0
LAYER
  2
RED3
  70
0
  62
11
  6
CONTINUOUS
  0
LAYER
  2
MAGENTA3
  70
0
  62
221
  6
CONTINUOUS
  0
LAYER
  2
YELLOW3
  70
0
  62
2
  6
CONTINUOUS
  0
LAYER
  2
ORANGE3
  70
0
  62
32
  6
CONTINUOUS
  0
LAYER
  2
BLUE4
  70
0
  62
5
  6
CONTINUOUS
  0
LAYER
  2
GREEN4
  70
0
  62
3
  6
CONTINUOUS
  0
LAYER
  2
CYAN4
  70
0
  62
4
  6
CONTINUOUS
  0
LAYER
  2
RED4
  70
0
  62
1
  6
CONTINUOUS
  0
LAYER
  2
MAGENTA4
  70
0
  62
6
  6
CONTINUOUS
  0
LAYER
  2
YELLOW4
  70
0
  62
2
  6
CONTINUOUS
  0
LAYER
  2
ORANGE4
  70
0
  62
40
  6
CONTINUOUS
  0
ENDTAB
  0
ENDSEC
  0
SECTION
  2
ENTITIES
0
LINE
8
LYELLOW
6
CONTINUOUS
10
111.209818999999996
20
-64.725594000000001
11
110.209818999999996
21
-64.725594000000001
0
LINE
8
LYELLOW
6
CONTINUOUS
10
110.209818999999996
20
-64.725594000000001
11
110.209818999999996
21
-64.4874989999999997
0
LINE
8
LYELLOW
6
CONTINUOUS
10
110.209818999999996
20
-64.4874989999999997
11
110.2574379999999934
21
-64.3446419999999932
0
LINE
8
LYELLOW
6
CONTINUOUS
10
110.2574379999999934
20
-64.3446419999999932
11
110.3526759999999882
21
-64.2494039999999984
0
LINE
8
LYELLOW
6
CONTINUOUS
10
110.3526759999999882
20
-64.2494039999999984
11
110.4479139999999973
21
-64.201785000000001
0
LINE
8
LYELLOW
6
CONTINUOUS
10
110.4479139999999973
20
-64.201785000000001
11
110.6383900000000011
21
-64.1541660000000036
0
LINE
8
LYELLOW
6
CONTINUOUS
10
110.6383900000000011
20
-64.1541660000000036
11
110.7812469999999934
21
-64.1541660000000036
0
LINE
8
LYELLOW
6
CONTINUOUS
10
110.7812469999999934
20
-64.1541660000000036
11
110.9717229999999972
21
-64.201785000000001
0
LINE
8
LYELLOW
6
CONTINUOUS
10
110.9717229999999972
20
-64.201785000000001
11
111.0669609999999921
21
-64.2494039999999984
0
LINE
8
LYELLOW
6
CONTINUOUS
10
111.0669609999999921
20
-64.2494039999999984
11
111.1621999999999986
21
-64.3446419999999932
0
LINE
8
LYELLOW
6
CONTINUOUS
10
111.1621999999999986
20
-64.3446419999999932
11
111.209818999999996
21
-64.4874989999999997
0
LINE
8
LYELLOW
6
CONTINUOUS
10
111.209818999999996
20
-64.4874989999999997
11
111.209818999999996
21
-64.725594000000001
0
LINE
8
LYELLOW
6
CONTINUOUS
10
110.209818999999996
20
-63.8208319999999958
11
110.209818999999996
21
-63.2017849999999939
0
LINE
8
LYELLOW
6
CONTINUOUS
10
110.209818999999996
20
-63.2017849999999939
11
110.5907709999999895
21
-63.5351179999999971
0
LINE
8
LYELLOW
6
CONTINUOUS
10
110.5907709999999895
20
-63.5351179999999971
11
110.5907709999999895
21
-63.3922609999999978
0
LINE
8
LYELLOW
6
CONTINUOUS
10
110.5907709999999895
20
-63.3922609999999978
11
110.6383900000000011
21
-63.2970229999999958
0
LINE
8
LYELLOW
6
CONTINUOUS
10
110.6383900000000011
20
-63.2970229999999958
11
110.6860089999999985
21
-63.2494039999999984
0
LINE
8
LYELLOW
6
CONTINUOUS
10
110.6860089999999985
20
-63.2494039999999984
11
110.7812469999999934
21
-63.2017849999999939
0
LINE
8
LYELLOW
6
CONTINUOUS
10
110.7812469999999934
20
-63.2017849999999939
11
111.0193419999999946
21
-63.2017849999999939
0
LINE
8
LYELLOW
6
CONTINUOUS
10
111.0193419999999946
20
-63.2017849999999939
11
111.1145799999999895
21
-63.2494039999999984
0
LINE
8
LYELLOW
6
CONTINUOUS
10
111.1145799999999895
20
-63.2494039999999984
11
111.1621999999999986
21
-63.2970229999999958
0
LINE
8
LYELLOW
6
CONTINUOUS
10
111.1621999999999986
20
-63.2970229999999958
11
111.209818999999996
21
-63.3922609999999978
0
LINE
8
LYELLOW
6
CONTINUOUS
10
111.209818999999996
20
-63.3922609999999978
11
111.209818999999996
21
-63.6779749999999964
0
LINE
8
LYELLOW
6
CONTINUOUS
10
111.209818999999996
20
-63.6779749999999964
11
111.1621999999999986
21
-63.7732129999999984
0
LINE
8
LYELLOW
6
CONTINUOUS
10
111.1621999999999986
20
-63.7732129999999984
11
111.1145799999999895
21
-63.8208319999999958
0
LINE
8
LYELLOW
6
CONTINUOUS
10
111.5298189999999892
20
-68.0594040000000007
11
110.5298189999999892
21
-68.0594040000000007
0
LINE
8
LYELLOW
6
CONTINUOUS
10
111.5298189999999892
20
-67.4879760000000033
11
110.9583899999999943
21
-67.9165469999999942
0
LINE
8
LYELLOW
6
CONTINUOUS
10
110.5298189999999892
20
-67.4879760000000033
11
111.1012470000000008
21
-68.0594040000000007
0
LINE
8
LYELLOW
6
CONTINUOUS
10
74.959818999999996
20
-53.1541659999999965
11
74.483627999999996
21
-53.4874989999999997
0
LINE
8
LYELLOW
6
CONTINUOUS
10
74.959818999999996
20
-53.725594000000001
11
73.959818999999996
21
-53.725594000000001
0
LINE
8
LYELLOW
6
CONTINUOUS
10
73.959818999999996
20
-53.725594000000001
11
73.959818999999996
21
-53.3446420000000003
0
LINE
8
LYELLOW
6
CONTINUOUS
10
73.959818999999996
20
-53.3446420000000003
11
74.0074379999999934
21
-53.2494039999999984
0
LINE
8
LYELLOW
6
CONTINUOUS
10
74.0074379999999934
20
-53.2494039999999984
11
74.0550569999999908
21
-53.201785000000001
0
LINE
8
LYELLOW
6
CONTINUOUS
10
74.0550569999999908
20
-53.201785000000001
11
74.1502949999999998
21
-53.1541659999999965
0
LINE
8
LYELLOW
6
CONTINUOUS
10
74.1502949999999998
20
-53.1541659999999965
11
74.2931519999999921
21
-53.1541659999999965
0
LINE
8
LYELLOW
6
CONTINUOUS
10
74.2931519999999921
20
-53.1541659999999965
11
74.3883900000000011
21
-53.201785000000001
0
LINE
8
LYELLOW
6
CONTINUOUS
10
74.3883900000000011
20
-53.201785000000001
11
74.4360089999999985
21
-53.2494039999999984
0
LINE
8
LYELLOW
6
CONTINUOUS
10
74.4360089999999985
20
-53.2494039999999984
11
74.483627999999996
21
-53.3446420000000003
0
LINE
8
LYELLOW
6
CONTINUOUS
10
74.483627999999996
20
-53.3446420000000003
11
74.483627999999996
21
-53.725594000000001
0
LINE
8
LYELLOW
6
CONTINUOUS
10
74.0550569999999908
20
-52.7732129999999984
11
74.0074379999999934
21
-52.725594000000001
0
LINE
8
LYELLOW
6
CONTINUOUS
10
74.0074379999999934
20
-52.725594000000001
11
73.959818999999996
21
-52.630355999999999
0
LINE
8
LYELLOW
6
CONTINUOUS
10
73.959818999999996
20
-52.630355999999999
11
73.959818999999996
21
-52.3922609999999978
0
LINE
8
LYELLOW
6
CONTINUOUS
10
73.959818999999996
20
-52.3922609999999978
11
74.0074379999999934
21
-52.2970229999999958
0
LINE
8
LYELLOW
6
CONTINUOUS
10
74.0074379999999934
20
-52.2970229999999958
11
74.0550569999999908
21
-52.2494039999999984
0
LINE
8
LYELLOW
6
CONTINUOUS
10
74.0550569999999908
20
-52.2494039999999984
11
74.1502949999999998
21
-52.201785000000001
0
LINE
8
LYELLOW
6
CONTINUOUS
10
74.1502949999999998
20
-52.201785000000001
11
74.2455329999999947
21
-52.201785000000001
0
LINE
8
LYELLOW
6
CONTINUOUS
10
74.2455329999999947
20
-52.201785000000001
11
74.3883900000000011
21
-52.2494039999999984
0
LINE
8
LYELLOW
6
CONTINUOUS
10
74.3883900000000011
20
-52.2494039999999984
11
74.959818999999996
21
-52.8208319999999958
0
LINE
8
LYELLOW
6
CONTINUOUS
10
74.959818999999996
20
-52.8208319999999958
11
74.959818999999996
21
-52.201785000000001
0
LINE
8
LYELLOW
6
CONTINUOUS
10
60.7083329999999961
20
-71.8470799999999912
11
60.6607139999999987
21
-71.8947000000000003
0
LINE
8
LYELLOW
6
CONTINUOUS
10
60.6607139999999987
20
-71.8947000000000003
11
60.5178569999999993
21
-71.9423189999999977
0
LINE
8
LYELLOW
6
CONTINUOUS
10
60.5178569999999993
20
-71.9423189999999977
11
60.4226189999999974
21
-71.9423189999999977
0
LINE
8
LYELLOW
6
CONTINUOUS
10
60.4226189999999974
20
-71.9423189999999977
11
60.2797619999999981
21
-71.8947000000000003
0
LINE
8
LYELLOW
6
CONTINUOUS
10
60.2797619999999981
20
-71.8947000000000003
11
60.1845239999999961
21
-71.7994609999999938
0
LINE
8
LYELLOW
6
CONTINUOUS
10
60.1845239999999961
20
-71.7994609999999938
11
60.1369049999999987
21
-71.7042229999999989
0
LINE
8
LYELLOW
6
CONTINUOUS
10
60.1369049999999987
20
-71.7042229999999989
11
60.0892859999999942
21
-71.5137469999999951
0
LINE
8
LYELLOW
6
CONTINUOUS
10
60.0892859999999942
20
-71.5137469999999951
11
60.0892859999999942
21
-71.3708900000000028
0
LINE
8
LYELLOW
6
CONTINUOUS
10
60.0892859999999942
20
-71.3708900000000028
11
60.1369049999999987
21
-71.180413999999999
0
LINE
8
LYELLOW
6
CONTINUOUS
10
60.1369049999999987
20
-71.180413999999999
11
60.1845239999999961
21
-71.0851759999999899
0
LINE
8
LYELLOW
6
CONTINUOUS
10
60.1845239999999961
20
-71.0851759999999899
11
60.2797619999999981
21
-70.9899379999999951
0
LINE
8
LYELLOW
6
CONTINUOUS
10
60.2797619999999981
20
-70.9899379999999951
11
60.4226189999999974
21
-70.9423189999999977
0
LINE
8
LYELLOW
6
CONTINUOUS
10
60.4226189999999974
20
-70.9423189999999977
11
60.5178569999999993
21
-70.9423189999999977
0
LINE
8
LYELLOW
6
CONTINUOUS
10
60.5178569999999993
20
-70.9423189999999977
11
60.6607139999999987
21
-70.9899379999999951
0
LINE
8
LYELLOW
6
CONTINUOUS
10
60.6607139999999987
20
-70.9899379999999951
11
60.7083329999999961
21
-71.0375569999999925
0
LINE
8
LYELLOW
6
CONTINUOUS
10
61.6130949999999942
20
-70.9423189999999977
11
61.1369049999999987
21
-70.9423189999999977
0
LINE
8
LYELLOW
6
CONTINUOUS
10
61.1369049999999987
20
-70.9423189999999977
11
61.0892859999999942
21
-71.4185090000000002
0
LINE
8
LYELLOW
6
CONTINUOUS
10
61.0892859999999942
20
-71.4185090000000002
11
61.1369049999999987
21
-71.3708900000000028
0
LINE
8
LYELLOW
6
CONTINUOUS
10
61.1369049999999987
20
-71.3708900000000028
11
61.2321430000000007
21
-71.3232709999999912
0
LINE
8
LYELLOW
6
CONTINUOUS
10
61.2321430000000007
20
-71.3232709999999912
11
61.4702379999999948
21
-71.3232709999999912
0
LINE
8
LYELLOW
6
CONTINUOUS
10
61.4702379999999948
20
-71.3232709999999912
11
61.5654759999999968
21
-71.3708900000000028
0
LINE
8
LYELLOW
6
CONTINUOUS
10
61.5654759999999968
20
-71.3708900000000028
11
61.6130949999999942
21
-71.4185090000000002
0
LINE
8
LYELLOW
6
CONTINUOUS
10
61.6130949999999942
20
-71.4185090000000002
11
61.6607139999999987
21
-71.5137469999999951
0
LINE
8
LYELLOW
6
CONTINUOUS
10
61.6607139999999987
20
-71.5137469999999951
11
61.6607139999999987
21
-71.7518419999999963
0
LINE
8
LYELLOW
6
CONTINUOUS
10
61.6607139999999987
20
-71.7518419999999963
11
61.6130949999999942
21
-71.8470799999999912
0
LINE
8
LYELLOW
6
CONTINUOUS
10
61.6130949999999942
20
-71.8470799999999912
11
61.5654759999999968
21
-71.8947000000000003
0
LINE
8
LYELLOW
6
CONTINUOUS
10
61.5654759999999968
20
-71.8947000000000003
11
61.4702379999999948
21
-71.9423189999999977
0
LINE
8
LYELLOW
6
CONTINUOUS
10
61.4702379999999948
20
-71.9423189999999977
11
61.2321430000000007
21
-71.9423189999999977
0
LINE
8
LYELLOW
6
CONTINUOUS
10
61.2321430000000007
20
-71.9423189999999977
11
61.1369049999999987
21
-71.8947000000000003
0
LINE
8
LYELLOW
6
CONTINUOUS
10
61.1369049999999987
20
-71.8947000000000003
11
61.0892859999999942
21
-71.8470799999999912
0
LINE
8
LYELLOW
6
CONTINUOUS
10
110.959818999999996
20
-50.1541659999999965
11
110.483627999999996
21
-50.4874989999999997
0
LINE
8
LYELLOW
6
CONTINUOUS
10
110.959818999999996
20
-50.725594000000001
11
109.959818999999996
21
-50.725594000000001
0
LINE
8
LYELLOW
6
CONTINUOUS
10
109.959818999999996
20
-50.725594000000001
11
109.959818999999996
21
-50.3446420000000003
0
LINE
8
LYELLOW
6
CONTINUOUS
10
109.959818999999996
20
-50.3446420000000003
11
110.0074379999999934
21
-50.2494039999999984
0
LINE
8
LYELLOW
6
CONTINUOUS
10
110.0074379999999934
20
-50.2494039999999984
11
110.0550569999999908
21
-50.201785000000001
0
LINE
8
LYELLOW
6
CONTINUOUS
10
110.0550569999999908
20
-50.201785000000001
11
110.1502949999999998
21
-50.1541659999999965
0
LINE
8
LYELLOW
6
CONTINUOUS
10
110.1502949999999998
20
-50.1541659999999965
11
110.2931519999999921
21
-50.1541659999999965
0
LINE
8
LYELLOW
6
CONTINUOUS
10
110.2931519999999921
20
-50.1541659999999965
11
110.3883900000000011
21
-50.201785000000001
0
LINE
8
LYELLOW
6
CONTINUOUS
10
110.3883900000000011
20
-50.201785000000001
11
110.4360089999999985
21
-50.2494039999999984
0
LINE
8
LYELLOW
6
CONTINUOUS
10
110.4360089999999985
20
-50.2494039999999984
11
110.483627999999996
21
-50.3446420000000003
0
LINE
8
LYELLOW
6
CONTINUOUS
10
110.483627999999996
20
-50.3446420000000003
11
110.483627999999996
21
-50.725594000000001
0
LINE
8
LYELLOW
6
CONTINUOUS
10
109.959818999999996
20
-49.8208319999999958
11
109.959818999999996
21
-49.201785000000001
0
LINE
8
LYELLOW
6
CONTINUOUS
10
109.959818999999996
20
-49.201785000000001
11
110.3407709999999895
21
-49.5351179999999971
0
LINE
8
LYELLOW
6
CONTINUOUS
10
110.3407709999999895
20
-49.5351179999999971
11
110.3407709999999895
21
-49.3922609999999978
0
LINE
8
LYELLOW
6
CONTINUOUS
10
110.3407709999999895
20
-49.3922609999999978
11
110.3883900000000011
21
-49.2970229999999958
0
LINE
8
LYELLOW
6
CONTINUOUS
10
110.3883900000000011
20
-49.2970229999999958
11
110.4360089999999985
21
-49.2494039999999984
0
LINE
8
LYELLOW
6
CONTINUOUS
10
110.4360089999999985
20
-49.2494039999999984
11
110.5312469999999934
21
-49.201785000000001
0
LINE
8
LYELLOW
6
CONTINUOUS
10
110.5312469999999934
20
-49.201785000000001
11
110.7693419999999946
21
-49.201785000000001
0
LINE
8
LYELLOW
6
CONTINUOUS
10
110.7693419999999946
20
-49.201785000000001
11
110.8645799999999895
21
-49.2494039999999984
0
LINE
8
LYELLOW
6
CONTINUOUS
10
110.8645799999999895
20
-49.2494039999999984
11
110.9121999999999986
21
-49.2970229999999958
0
LINE
8
LYELLOW
6
CONTINUOUS
10
110.9121999999999986
20
-49.2970229999999958
11
110.959818999999996
21
-49.3922609999999978
0
LINE
8
LYELLOW
6
CONTINUOUS
10
110.959818999999996
20
-49.3922609999999978
11
110.959818999999996
21
-49.6779749999999964
0
LINE
8
LYELLOW
6
CONTINUOUS
10
110.959818999999996
20
-49.6779749999999964
11
110.9121999999999986
21
-49.7732129999999984
0
LINE
8
LYELLOW
6
CONTINUOUS
10
110.9121999999999986
20
-49.7732129999999984
11
110.8645799999999895
21
-49.8208319999999958
0
LINE
8
LYELLOW
6
CONTINUOUS
10
78.8056330000000003
20
-95.0970799999999912
11
78.7580140000000029
21
-95.1447000000000003
0
LINE
8
LYELLOW
6
CONTINUOUS
10
78.7580140000000029
20
-95.1447000000000003
11
78.6151569999999964
21
-95.1923189999999977
0
LINE
8
LYELLOW
6
CONTINUOUS
10
78.6151569999999964
20
-95.1923189999999977
11
78.5199190000000016
21
-95.1923189999999977
0
LINE
8
LYELLOW
6
CONTINUOUS
10
78.5199190000000016
20
-95.1923189999999977
11
78.3770619999999951
21
-95.1447000000000003
0
LINE
8
LYELLOW
6
CONTINUOUS
10
78.3770619999999951
20
-95.1447000000000003
11
78.2818240000000003
21
-95.0494609999999938
0
LINE
8
LYELLOW
6
CONTINUOUS
10
78.2818240000000003
20
-95.0494609999999938
11
78.2342050000000029
21
-94.9542229999999989
0
LINE
8
LYELLOW
6
CONTINUOUS
10
78.2342050000000029
20
-94.9542229999999989
11
78.1865859999999913
21
-94.7637469999999951
0
LINE
8
LYELLOW
6
CONTINUOUS
10
78.1865859999999913
20
-94.7637469999999951
11
78.1865859999999913
21
-94.6208899999999886
0
LINE
8
LYELLOW
6
CONTINUOUS
10
78.1865859999999913
20
-94.6208899999999886
11
78.2342050000000029
21
-94.430413999999999
0
LINE
8
LYELLOW
6
CONTINUOUS
10
78.2342050000000029
20
-94.430413999999999
11
78.2818240000000003
21
-94.3351759999999899
0
LINE
8
LYELLOW
6
CONTINUOUS
10
78.2818240000000003
20
-94.3351759999999899
11
78.3770619999999951
21
-94.2399379999999951
0
LINE
8
LYELLOW
6
CONTINUOUS
10
78.3770619999999951
20
-94.2399379999999951
11
78.5199190000000016
21
-94.1923189999999977
0
LINE
8
LYELLOW
6
CONTINUOUS
10
78.5199190000000016
20
-94.1923189999999977
11
78.6151569999999964
21
-94.1923189999999977
0
LINE
8
LYELLOW
6
CONTINUOUS
10
78.6151569999999964
20
-94.1923189999999977
11
78.7580140000000029
21
-94.2399379999999951
0
LINE
8
LYELLOW
6
CONTINUOUS
10
78.7580140000000029
20
-94.2399379999999951
11
78.8056330000000003
21
-94.2875569999999925
0
LINE
8
LYELLOW
6
CONTINUOUS
10
79.1865859999999913
20
-94.2875569999999925
11
79.2342050000000029
21
-94.2399379999999951
0
LINE
8
LYELLOW
6
CONTINUOUS
10
79.2342050000000029
20
-94.2399379999999951
11
79.3294429999999977
21
-94.1923189999999977
0
LINE
8
LYELLOW
6
CONTINUOUS
10
79.3294429999999977
20
-94.1923189999999977
11
79.567537999999999
21
-94.1923189999999977
0
LINE
8
LYELLOW
6
CONTINUOUS
10
79.567537999999999
20
-94.1923189999999977
11
79.6627759999999938
21
-94.2399379999999951
0
LINE
8
LYELLOW
6
CONTINUOUS
10
79.6627759999999938
20
-94.2399379999999951
11
79.7103949999999912
21
-94.2875569999999925
0
LINE
8
LYELLOW
6
CONTINUOUS
10
79.7103949999999912
20
-94.2875569999999925
11
79.7580140000000029
21
-94.3827950000000016
0
LINE
8
LYELLOW
6
CONTINUOUS
10
79.7580140000000029
20
-94.3827950000000016
11
79.7580140000000029
21
-94.4780329999999964
0
LINE
8
LYELLOW
6
CONTINUOUS
10
79.7580140000000029
20
-94.4780329999999964
11
79.7103949999999912
21
-94.6208899999999886
0
LINE
8
LYELLOW
6
CONTINUOUS
10
79.7103949999999912
20
-94.6208899999999886
11
79.1389669999999938
21
-95.1923189999999977
0
LINE
8
LYELLOW
6
CONTINUOUS
10
79.1389669999999938
20
-95.1923189999999977
11
79.7580140000000029
21
-95.1923189999999977
0
LINE
8
LYELLOW
6
CONTINUOUS
10
96.1130950000000013
20
-44.4923189999999948
11
96.1130950000000013
21
-45.3018420000000006
0
LINE
8
LYELLOW
6
CONTINUOUS
10
96.1130950000000013
20
-45.3018420000000006
11
96.1607139999999987
21
-45.3970799999999954
0
LINE
8
LYELLOW
6
CONTINUOUS
10
96.1607139999999987
20
-45.3970799999999954
11
96.2083329999999961
21
-45.4446999999999974
0
LINE
8
LYELLOW
6
CONTINUOUS
10
96.2083329999999961
20
-45.4446999999999974
11
96.3035709999999909
21
-45.4923189999999948
0
LINE
8
LYELLOW
6
CONTINUOUS
10
96.3035709999999909
20
-45.4923189999999948
11
96.4940469999999948
21
-45.4923189999999948
0
LINE
8
LYELLOW
6
CONTINUOUS
10
96.4940469999999948
20
-45.4923189999999948
11
96.5892849999999896
21
-45.4446999999999974
0
LINE
8
LYELLOW
6
CONTINUOUS
10
96.5892849999999896
20
-45.4446999999999974
11
96.6369040000000012
21
-45.3970799999999954
0
LINE
8
LYELLOW
6
CONTINUOUS
10
96.6369040000000012
20
-45.3970799999999954
11
96.6845229999999987
21
-45.3018420000000006
0
LINE
8
LYELLOW
6
CONTINUOUS
10
96.6845229999999987
20
-45.3018420000000006
11
96.6845229999999987
21
-44.4923189999999948
0
LINE
8
LYELLOW
6
CONTINUOUS
10
97.1130950000000013
20
-44.5875569999999968
11
97.1607139999999987
21
-44.5399379999999994
0
LINE
8
LYELLOW
6
CONTINUOUS
10
97.1607139999999987
20
-44.5399379999999994
11
97.2559519999999935
21
-44.4923189999999948
0
LINE
8
LYELLOW
6
CONTINUOUS
10
97.2559519999999935
20
-44.4923189999999948
11
97.4940469999999948
21
-44.4923189999999948
0
LINE
8
LYELLOW
6
CONTINUOUS
10
97.4940469999999948
20
-44.4923189999999948
11
97.5892849999999896
21
-44.5399379999999994
0
LINE
8
LYELLOW
6
CONTINUOUS
10
97.5892849999999896
20
-44.5399379999999994
11
97.6369040000000012
21
-44.5875569999999968
0
LINE
8
LYELLOW
6
CONTINUOUS
10
97.6369040000000012
20
-44.5875569999999968
11
97.6845229999999987
21
-44.6827949999999987
0
LINE
8
LYELLOW
6
CONTINUOUS
10
97.6845229999999987
20
-44.6827949999999987
11
97.6845229999999987
21
-44.7780330000000006
0
LINE
8
LYELLOW
6
CONTINUOUS
10
97.6845229999999987
20
-44.7780330000000006
11
97.6369040000000012
21
-44.92089
0
LINE
8
LYELLOW
6
CONTINUOUS
10
97.6369040000000012
20
-44.92089
11
97.0654759999999897
21
-45.4923189999999948
0
LINE
8
LYELLOW
6
CONTINUOUS
10
97.0654759999999897
20
-45.4923189999999948
11
97.6845229999999987
21
-45.4923189999999948
0
LINE
8
LYELLOW
6
CONTINUOUS
10
75.6098190000000017
20
-36.725594000000001
11
74.6098190000000017
21
-36.725594000000001
0
LINE
8
LYELLOW
6
CONTINUOUS
10
74.6098190000000017
20
-36.725594000000001
11
74.6098190000000017
21
-36.4874989999999997
0
LINE
8
LYELLOW
6
CONTINUOUS
10
74.6098190000000017
20
-36.4874989999999997
11
74.6574379999999991
21
-36.3446420000000003
0
LINE
8
LYELLOW
6
CONTINUOUS
10
74.6574379999999991
20
-36.3446420000000003
11
74.7526759999999939
21
-36.2494039999999984
0
LINE
8
LYELLOW
6
CONTINUOUS
10
74.7526759999999939
20
-36.2494039999999984
11
74.8479140000000029
21
-36.201785000000001
0
LINE
8
LYELLOW
6
CONTINUOUS
10
74.8479140000000029
20
-36.201785000000001
11
75.0383899999999926
21
-36.1541659999999965
0
LINE
8
LYELLOW
6
CONTINUOUS
10
75.0383899999999926
20
-36.1541659999999965
11
75.181246999999999
21
-36.1541659999999965
0
LINE
8
LYELLOW
6
CONTINUOUS
10
75.181246999999999
20
-36.1541659999999965
11
75.3717230000000029
21
-36.201785000000001
0
LINE
8
LYELLOW
6
CONTINUOUS
10
75.3717230000000029
20
-36.201785000000001
11
75.4669609999999977
21
-36.2494039999999984
0
LINE
8
LYELLOW
6
CONTINUOUS
10
75.4669609999999977
20
-36.2494039999999984
11
75.56219999999999
21
-36.3446420000000003
0
LINE
8
LYELLOW
6
CONTINUOUS
10
75.56219999999999
20
-36.3446420000000003
11
75.6098190000000017
21
-36.4874989999999997
0
LINE
8
LYELLOW
6
CONTINUOUS
10
75.6098190000000017
20
-36.4874989999999997
11
75.6098190000000017
21
-36.725594000000001
0
LINE
8
LYELLOW
6
CONTINUOUS
10
75.6098190000000017
20
-35.201785000000001
11
75.6098190000000017
21
-35.7732129999999984
0
LINE
8
LYELLOW
6
CONTINUOUS
10
75.6098190000000017
20
-35.4874989999999997
11
74.6098190000000017
21
-35.4874989999999997
0
LINE
8
LYELLOW
6
CONTINUOUS
10
74.6098190000000017
20
-35.4874989999999997
11
74.7526759999999939
21
-35.5827370000000016
0
LINE
8
LYELLOW
6
CONTINUOUS
10
74.7526759999999939
20
-35.5827370000000016
11
74.8479140000000029
21
-35.6779749999999964
0
LINE
8
LYELLOW
6
CONTINUOUS
10
74.8479140000000029
20
-35.6779749999999964
11
74.8955330000000004
21
-35.7732129999999984
0
LINE
8
LYELLOW
6
CONTINUOUS
10
76.729818999999992
20
-43.8694039999999958
11
75.729818999999992
21
-43.8694039999999958
0
LINE
8
LYELLOW
6
CONTINUOUS
10
76.729818999999992
20
-43.2979759999999985
11
76.1583899999999971
21
-43.7265469999999965
0
LINE
8
LYELLOW
6
CONTINUOUS
10
75.729818999999992
20
-43.2979759999999985
11
76.3012470000000036
21
-43.8694039999999958
0
LINE
8
LYELLOW
6
CONTINUOUS
10
88.7083329999999961
20
-71.8470799999999912
11
88.6607139999999987
21
-71.8947000000000003
0
LINE
8
LYELLOW
6
CONTINUOUS
10
88.6607139999999987
20
-71.8947000000000003
11
88.5178569999999922
21
-71.9423189999999977
0
LINE
8
LYELLOW
6
CONTINUOUS
10
88.5178569999999922
20
-71.9423189999999977
11
88.4226189999999974
21
-71.9423189999999977
0
LINE
8
LYELLOW
6
CONTINUOUS
10
88.4226189999999974
20
-71.9423189999999977
11
88.279761999999991
21
-71.8947000000000003
0
LINE
8
LYELLOW
6
CONTINUOUS
10
88.279761999999991
20
-71.8947000000000003
11
88.1845239999999961
21
-71.7994609999999938
0
LINE
8
LYELLOW
6
CONTINUOUS
10
88.1845239999999961
20
-71.7994609999999938
11
88.1369049999999987
21
-71.7042229999999989
0
LINE
8
LYELLOW
6
CONTINUOUS
10
88.1369049999999987
20
-71.7042229999999989
11
88.0892860000000013
21
-71.5137469999999951
0
LINE
8
LYELLOW
6
CONTINUOUS
10
88.0892860000000013
20
-71.5137469999999951
11
88.0892860000000013
21
-71.3708900000000028
0
LINE
8
LYELLOW
6
CONTINUOUS
10
88.0892860000000013
20
-71.3708900000000028
11
88.1369049999999987
21
-71.180413999999999
0
LINE
8
LYELLOW
6
CONTINUOUS
10
88.1369049999999987
20
-71.180413999999999
11
88.1845239999999961
21
-71.0851759999999899
0
LINE
8
LYELLOW
6
CONTINUOUS
10
88.1845239999999961
20
-71.0851759999999899
11
88.279761999999991
21
-70.9899379999999951
0
LINE
8
LYELLOW
6
CONTINUOUS
10
88.279761999999991
20
-70.9899379999999951
11
88.4226189999999974
21
-70.9423189999999977
0
LINE
8
LYELLOW
6
CONTINUOUS
10
88.4226189999999974
20
-70.9423189999999977
11
88.5178569999999922
21
-70.9423189999999977
0
LINE
8
LYELLOW
6
CONTINUOUS
10
88.5178569999999922
20
-70.9423189999999977
11
88.6607139999999987
21
-70.9899379999999951
0
LINE
8
LYELLOW
6
CONTINUOUS
10
88.6607139999999987
20
-70.9899379999999951
11
88.7083329999999961
21
-71.0375569999999925
0
LINE
8
LYELLOW
6
CONTINUOUS
10
89.0416669999999897
20
-70.9423189999999977
11
89.6607139999999987
21
-70.9423189999999977
0
LINE
8
LYELLOW
6
CONTINUOUS
10
89.6607139999999987
20
-70.9423189999999977
11
89.3273810000000026
21
-71.3232709999999912
0
LINE
8
LYELLOW
6
CONTINUOUS
10
89.3273810000000026
20
-71.3232709999999912
11
89.4702379999999948
21
-71.3232709999999912
0
LINE
8
LYELLOW
6
CONTINUOUS
10
89.4702379999999948
20
-71.3232709999999912
11
89.5654759999999897
21
-71.3708900000000028
0
LINE
8
LYELLOW
6
CONTINUOUS
10
89.5654759999999897
20
-71.3708900000000028
11
89.6130950000000013
21
-71.4185090000000002
0
LINE
8
LYELLOW
6
CONTINUOUS
10
89.6130950000000013
20
-71.4185090000000002
11
89.6607139999999987
21
-71.5137469999999951
0
LINE
8
LYELLOW
6
CONTINUOUS
10
89.6607139999999987
20
-71.5137469999999951
11
89.6607139999999987
21
-71.7518419999999963
0
LINE
8
LYELLOW
6
CONTINUOUS
10
89.6607139999999987
20
-71.7518419999999963
11
89.6130950000000013
21
-71.8470799999999912
0
LINE
8
LYELLOW
6
CONTINUOUS
10
89.6130950000000013
20
-71.8470799999999912
11
89.5654759999999897
21
-71.8947000000000003
0
LINE
8
LYELLOW
6
CONTINUOUS
10
89.5654759999999897
20
-71.8947000000000003
11
89.4702379999999948
21
-71.9423189999999977
0
LINE
8
LYELLOW
6
CONTINUOUS
10
89.4702379999999948
20
-71.9423189999999977
11
89.1845239999999961
21
-71.9423189999999977
0
LINE
8
LYELLOW
6
CONTINUOUS
10
89.1845239999999961
20
-71.9423189999999977
11
89.0892860000000013
21
-71.8947000000000003
0
LINE
8
LYELLOW
6
CONTINUOUS
10
89.0892860000000013
20
-71.8947000000000003
11
89.0416669999999897
21
-71.8470799999999912
0
LINE
8
LYELLOW
6
CONTINUOUS
10
52.7083329999999961
20
-92.4423189999999977
11
52.2321430000000007
21
-92.4423189999999977
0
LINE
8
LYELLOW
6
CONTINUOUS
10
52.2321430000000007
20
-92.4423189999999977
11
52.2321430000000007
21
-91.4423189999999977
0
LINE
8
LYELLOW
6
CONTINUOUS
10
53.5654759999999968
20
-92.4423189999999977
11
52.9940479999999994
21
-92.4423189999999977
0
LINE
8
LYELLOW
6
CONTINUOUS
10
53.2797619999999981
20
-92.4423189999999977
11
53.2797619999999981
21
-91.4423189999999977
0
LINE
8
LYELLOW
6
CONTINUOUS
10
53.2797619999999981
20
-91.4423189999999977
11
53.1845239999999961
21
-91.5851759999999899
0
LINE
8
LYELLOW
6
CONTINUOUS
10
53.1845239999999961
20
-91.5851759999999899
11
53.0892859999999942
21
-91.680413999999999
0
LINE
8
LYELLOW
6
CONTINUOUS
10
53.0892859999999942
20
-91.680413999999999
11
52.9940479999999994
21
-91.7280329999999964
0
LINE
8
LYELLOW
6
CONTINUOUS
10
74.1369049999999987
20
-72.3223189999999931
11
74.1369049999999987
21
-71.3223189999999931
0
LINE
8
LYELLOW
6
CONTINUOUS
10
74.1369049999999987
20
-71.3223189999999931
11
74.375
21
-71.3223189999999931
0
LINE
8
LYELLOW
6
CONTINUOUS
10
74.375
20
-71.3223189999999931
11
74.5178569999999922
21
-71.3699379999999906
0
LINE
8
LYELLOW
6
CONTINUOUS
10
74.5178569999999922
20
-71.3699379999999906
11
74.6130950000000013
21
-71.4651759999999996
0
LINE
8
LYELLOW
6
CONTINUOUS
10
74.6130950000000013
20
-71.4651759999999996
11
74.6607139999999987
21
-71.5604139999999944
0
LINE
8
LYELLOW
6
CONTINUOUS
10
74.6607139999999987
20
-71.5604139999999944
11
74.7083329999999961
21
-71.7508899999999983
0
LINE
8
LYELLOW
6
CONTINUOUS
10
74.7083329999999961
20
-71.7508899999999983
11
74.7083329999999961
21
-71.8937469999999905
0
LINE
8
LYELLOW
6
CONTINUOUS
10
74.7083329999999961
20
-71.8937469999999905
11
74.6607139999999987
21
-72.0842229999999944
0
LINE
8
LYELLOW
6
CONTINUOUS
10
74.6607139999999987
20
-72.0842229999999944
11
74.6130950000000013
21
-72.1794610000000034
0
LINE
8
LYELLOW
6
CONTINUOUS
10
74.6130950000000013
20
-72.1794610000000034
11
74.5178569999999922
21
-72.2746999999999957
0
LINE
8
LYELLOW
6
CONTINUOUS
10
74.5178569999999922
20
-72.2746999999999957
11
74.375
21
-72.3223189999999931
0
LINE
8
LYELLOW
6
CONTINUOUS
10
74.375
20
-72.3223189999999931
11
74.1369049999999987
21
-72.3223189999999931
0
LINE
8
LYELLOW
6
CONTINUOUS
10
75.0892860000000013
20
-71.4175570000000022
11
75.1369049999999987
21
-71.3699379999999906
0
LINE
8
LYELLOW
6
CONTINUOUS
10
75.1369049999999987
20
-71.3699379999999906
11
75.2321429999999935
21
-71.3223189999999931
0
LINE
8
LYELLOW
6
CONTINUOUS
10
75.2321429999999935
20
-71.3223189999999931
11
75.4702379999999948
21
-71.3223189999999931
0
LINE
8
LYELLOW
6
CONTINUOUS
10
75.4702379999999948
20
-71.3223189999999931
11
75.5654759999999897
21
-71.3699379999999906
0
LINE
8
LYELLOW
6
CONTINUOUS
10
75.5654759999999897
20
-71.3699379999999906
11
75.6130950000000013
21
-71.4175570000000022
0
LINE
8
LYELLOW
6
CONTINUOUS
10
75.6130950000000013
20
-71.4175570000000022
11
75.6607139999999987
21
-71.512794999999997
0
LINE
8
LYELLOW
6
CONTINUOUS
10
75.6607139999999987
20
-71.512794999999997
11
75.6607139999999987
21
-71.6080329999999918
0
LINE
8
LYELLOW
6
CONTINUOUS
10
75.6607139999999987
20
-71.6080329999999918
11
75.6130950000000013
21
-71.7508899999999983
0
LINE
8
LYELLOW
6
CONTINUOUS
10
75.6130950000000013
20
-71.7508899999999983
11
75.0416669999999897
21
-72.3223189999999931
0
LINE
8
LYELLOW
6
CONTINUOUS
10
75.0416669999999897
20
-72.3223189999999931
11
75.6607139999999987
21
-72.3223189999999931
0
LINE
8
LYELLOW
6
CONTINUOUS
10
70.803094999999999
20
-72.6423190000000005
11
70.803094999999999
21
-71.6423190000000005
0
LINE
8
LYELLOW
6
CONTINUOUS
10
71.3745229999999964
20
-72.6423190000000005
11
70.9459519999999912
21
-72.0708899999999915
0
LINE
8
LYELLOW
6
CONTINUOUS
10
71.3745229999999964
20
-71.6423190000000005
11
70.803094999999999
21
-72.2137469999999979
0
LINE
8
LYELLOW
6
CONTINUOUS
10
34.5416659999999993
20
-78.522318999999996
11
34.5416659999999993
21
-79.2366039999999998
0
LINE
8
LYELLOW
6
CONTINUOUS
10
34.5416659999999993
20
-79.2366039999999998
11
34.4940470000000019
21
-79.3794609999999921
0
LINE
8
LYELLOW
6
CONTINUOUS
10
34.4940470000000019
20
-79.3794609999999921
11
34.398809
21
-79.4746999999999986
0
LINE
8
LYELLOW
6
CONTINUOUS
10
34.398809
20
-79.4746999999999986
11
34.2559520000000006
21
-79.522318999999996
0
LINE
8
LYELLOW
6
CONTINUOUS
10
34.2559520000000006
20
-79.522318999999996
11
34.1607139999999987
21
-79.522318999999996
0
LINE
8
LYELLOW
6
CONTINUOUS
10
35.4464279999999974
20
-78.8556519999999921
11
35.4464279999999974
21
-79.522318999999996
0
LINE
8
LYELLOW
6
CONTINUOUS
10
35.2083329999999961
20
-78.4746999999999986
11
34.9702380000000019
21
-79.1889850000000024
0
LINE
8
LYELLOW
6
CONTINUOUS
10
34.9702380000000019
20
-79.1889850000000024
11
35.5892849999999967
21
-79.1889850000000024
0
LINE
8
LYELLOW
6
CONTINUOUS
10
34.5416659999999993
20
-34.522318999999996
11
34.5416659999999993
21
-35.2366039999999998
0
LINE
8
LYELLOW
6
CONTINUOUS
10
34.5416659999999993
20
-35.2366039999999998
11
34.4940470000000019
21
-35.3794609999999992
0
LINE
8
LYELLOW
6
CONTINUOUS
10
34.4940470000000019
20
-35.3794609999999992
11
34.398809
21
-35.4746999999999986
0
LINE
8
LYELLOW
6
CONTINUOUS
10
34.398809
20
-35.4746999999999986
11
34.2559520000000006
21
-35.522318999999996
0
LINE
8
LYELLOW
6
CONTINUOUS
10
34.2559520000000006
20
-35.522318999999996
11
34.1607139999999987
21
-35.522318999999996
0
LINE
8
LYELLOW
6
CONTINUOUS
10
35.5416659999999993
20
-35.522318999999996
11
34.9702380000000019
21
-35.522318999999996
0
LINE
8
LYELLOW
6
CONTINUOUS
10
35.2559520000000006
20
-35.522318999999996
11
35.2559520000000006
21
-34.522318999999996
0
LINE
8
LYELLOW
6
CONTINUOUS
10
35.2559520000000006
20
-34.522318999999996
11
35.1607139999999987
21
-34.6651759999999953
0
LINE
8
LYELLOW
6
CONTINUOUS
10
35.1607139999999987
20
-34.6651759999999953
11
35.0654759999999968
21
-34.7604139999999973
0
LINE
8
LYELLOW
6
CONTINUOUS
10
35.0654759999999968
20
-34.7604139999999973
11
34.9702380000000019
21
-34.8080330000000018
0
LINE
8
LYELLOW
6
CONTINUOUS
10
48.8056330000000003
20
-25.0970799999999983
11
48.7580139999999957
21
-25.1447000000000003
0
LINE
8
LYELLOW
6
CONTINUOUS
10
48.7580139999999957
20
-25.1447000000000003
11
48.6151569999999964
21
-25.1923189999999977
0
LINE
8
LYELLOW
6
CONTINUOUS
10
48.6151569999999964
20
-25.1923189999999977
11
48.5199189999999945
21
-25.1923189999999977
0
LINE
8
LYELLOW
6
CONTINUOUS
10
48.5199189999999945
20
-25.1923189999999977
11
48.3770619999999951
21
-25.1447000000000003
0
LINE
8
LYELLOW
6
CONTINUOUS
10
48.3770619999999951
20
-25.1447000000000003
11
48.2818240000000003
21
-25.0494609999999973
0
LINE
8
LYELLOW
6
CONTINUOUS
10
48.2818240000000003
20
-25.0494609999999973
11
48.2342049999999958
21
-24.9542229999999989
0
LINE
8
LYELLOW
6
CONTINUOUS
10
48.2342049999999958
20
-24.9542229999999989
11
48.1865859999999984
21
-24.7637469999999986
0
LINE
8
LYELLOW
6
CONTINUOUS
10
48.1865859999999984
20
-24.7637469999999986
11
48.1865859999999984
21
-24.6208899999999993
0
LINE
8
LYELLOW
6
CONTINUOUS
10
48.1865859999999984
20
-24.6208899999999993
11
48.2342049999999958
21
-24.430413999999999
0
LINE
8
LYELLOW
6
CONTINUOUS
10
48.2342049999999958
20
-24.430413999999999
11
48.2818240000000003
21
-24.3351760000000006
0
LINE
8
LYELLOW
6
CONTINUOUS
10
48.2818240000000003
20
-24.3351760000000006
11
48.3770619999999951
21
-24.2399379999999987
0
LINE
8
LYELLOW
6
CONTINUOUS
10
48.3770619999999951
20
-24.2399379999999987
11
48.5199189999999945
21
-24.1923189999999977
0
LINE
8
LYELLOW
6
CONTINUOUS
10
48.5199189999999945
20
-24.1923189999999977
11
48.6151569999999964
21
-24.1923189999999977
0
LINE
8
LYELLOW
6
CONTINUOUS
10
48.6151569999999964
20
-24.1923189999999977
11
48.7580139999999957
21
-24.2399379999999987
0
LINE
8
LYELLOW
6
CONTINUOUS
10
48.7580139999999957
20
-24.2399379999999987
11
48.8056330000000003
21
-24.2875569999999996
0
LINE
8
LYELLOW
6
CONTINUOUS
10
49.7580139999999957
20
-25.1923189999999977
11
49.1865859999999984
21
-25.1923189999999977
0
LINE
8
LYELLOW
6
CONTINUOUS
10
49.4722999999999971
20
-25.1923189999999977
11
49.4722999999999971
21
-24.1923189999999977
0
LINE
8
LYELLOW
6
CONTINUOUS
10
49.4722999999999971
20
-24.1923189999999977
11
49.3770619999999951
21
-24.3351760000000006
0
LINE
8
LYELLOW
6
CONTINUOUS
10
49.3770619999999951
20
-24.3351760000000006
11
49.2818240000000003
21
-24.430413999999999
0
LINE
8
LYELLOW
6
CONTINUOUS
10
49.2818240000000003
20
-24.430413999999999
11
49.1865859999999984
21
-24.4780329999999999
0
LINE
8
LYELLOW
6
CONTINUOUS
10
34.5416659999999993
20
-55.0973189999999988
11
34.5416659999999993
21
-55.8116039999999956
0
LINE
8
LYELLOW
6
CONTINUOUS
10
34.5416659999999993
20
-55.8116039999999956
11
34.4940470000000019
21
-55.9544609999999949
0
LINE
8
LYELLOW
6
CONTINUOUS
10
34.4940470000000019
20
-55.9544609999999949
11
34.398809
21
-56.0496999999999943
0
LINE
8
LYELLOW
6
CONTINUOUS
10
34.398809
20
-56.0496999999999943
11
34.2559520000000006
21
-56.0973189999999988
0
LINE
8
LYELLOW
6
CONTINUOUS
10
34.2559520000000006
20
-56.0973189999999988
11
34.1607139999999987
21
-56.0973189999999988
0
LINE
8
LYELLOW
6
CONTINUOUS
10
34.9226189999999974
20
-55.0973189999999988
11
35.5416659999999993
21
-55.0973189999999988
0
LINE
8
LYELLOW
6
CONTINUOUS
10
35.5416659999999993
20
-55.0973189999999988
11
35.2083329999999961
21
-55.4782709999999994
0
LINE
8
LYELLOW
6
CONTINUOUS
10
35.2083329999999961
20
-55.4782709999999994
11
35.3511899999999955
21
-55.4782709999999994
0
LINE
8
LYELLOW
6
CONTINUOUS
10
35.3511899999999955
20
-55.4782709999999994
11
35.4464279999999974
21
-55.5258899999999969
0
LINE
8
LYELLOW
6
CONTINUOUS
10
35.4464279999999974
20
-55.5258899999999969
11
35.4940470000000019
21
-55.5735089999999943
0
LINE
8
LYELLOW
6
CONTINUOUS
10
35.4940470000000019
20
-55.5735089999999943
11
35.5416659999999993
21
-55.6687469999999962
0
LINE
8
LYELLOW
6
CONTINUOUS
10
35.5416659999999993
20
-55.6687469999999962
11
35.5416659999999993
21
-55.9068419999999975
0
LINE
8
LYELLOW
6
CONTINUOUS
10
35.5416659999999993
20
-55.9068419999999975
11
35.4940470000000019
21
-56.0020799999999994
0
LINE
8
LYELLOW
6
CONTINUOUS
10
35.4940470000000019
20
-56.0020799999999994
11
35.4464279999999974
21
-56.0496999999999943
0
LINE
8
LYELLOW
6
CONTINUOUS
10
35.4464279999999974
20
-56.0496999999999943
11
35.3511899999999955
21
-56.0973189999999988
0
LINE
8
LYELLOW
6
CONTINUOUS
10
35.3511899999999955
20
-56.0973189999999988
11
35.0654759999999968
21
-56.0973189999999988
0
LINE
8
LYELLOW
6
CONTINUOUS
10
35.0654759999999968
20
-56.0973189999999988
11
34.9702380000000019
21
-56.0496999999999943
0
LINE
8
LYELLOW
6
CONTINUOUS
10
34.9702380000000019
20
-56.0496999999999943
11
34.9226189999999974
21
-56.0020799999999994
0
LINE
8
LYELLOW
6
CONTINUOUS
10
62.1130949999999942
20
-46.5723190000000002
11
62.1130949999999942
21
-47.3818419999999989
0
LINE
8
LYELLOW
6
CONTINUOUS
10
62.1130949999999942
20
-47.3818419999999989
11
62.1607139999999987
21
-47.4770800000000008
0
LINE
8
LYELLOW
6
CONTINUOUS
10
62.1607139999999987
20
-47.4770800000000008
11
62.2083329999999961
21
-47.5246999999999957
0
LINE
8
LYELLOW
6
CONTINUOUS
10
62.2083329999999961
20
-47.5246999999999957
11
62.303570999999998
21
-47.5723190000000002
0
LINE
8
LYELLOW
6
CONTINUOUS
10
62.303570999999998
20
-47.5723190000000002
11
62.4940469999999948
21
-47.5723190000000002
0
LINE
8
LYELLOW
6
CONTINUOUS
10
62.4940469999999948
20
-47.5723190000000002
11
62.5892849999999967
21
-47.5246999999999957
0
LINE
8
LYELLOW
6
CONTINUOUS
10
62.5892849999999967
20
-47.5246999999999957
11
62.6369039999999941
21
-47.4770800000000008
0
LINE
8
LYELLOW
6
CONTINUOUS
10
62.6369039999999941
20
-47.4770800000000008
11
62.6845229999999987
21
-47.3818419999999989
0
LINE
8
LYELLOW
6
CONTINUOUS
10
62.6845229999999987
20
-47.3818419999999989
11
62.6845229999999987
21
-46.5723190000000002
0
LINE
8
LYELLOW
6
CONTINUOUS
10
63.6845229999999987
20
-47.5723190000000002
11
63.1130949999999942
21
-47.5723190000000002
0
LINE
8
LYELLOW
6
CONTINUOUS
10
63.398809
20
-47.5723190000000002
11
63.398809
21
-46.5723190000000002
0
LINE
8
LYELLOW
6
CONTINUOUS
10
63.398809
20
-46.5723190000000002
11
63.303570999999998
21
-46.7151759999999996
0
LINE
8
LYELLOW
6
CONTINUOUS
10
63.303570999999998
20
-46.7151759999999996
11
63.2083329999999961
21
-46.8104139999999944
0
LINE
8
LYELLOW
6
CONTINUOUS
10
63.2083329999999961
20
-46.8104139999999944
11
63.1130949999999942
21
-46.8580329999999989
0
LINE
8
LYELLOW
6
CONTINUOUS
10
48.8056330000000003
20
-69.0970799999999912
11
48.7580139999999957
21
-69.1447000000000003
0
LINE
8
LYELLOW
6
CONTINUOUS
10
48.7580139999999957
20
-69.1447000000000003
11
48.6151569999999964
21
-69.1923189999999977
0
LINE
8
LYELLOW
6
CONTINUOUS
10
48.6151569999999964
20
-69.1923189999999977
11
48.5199189999999945
21
-69.1923189999999977
0
LINE
8
LYELLOW
6
CONTINUOUS
10
48.5199189999999945
20
-69.1923189999999977
11
48.3770619999999951
21
-69.1447000000000003
0
LINE
8
LYELLOW
6
CONTINUOUS
10
48.3770619999999951
20
-69.1447000000000003
11
48.2818240000000003
21
-69.0494609999999938
0
LINE
8
LYELLOW
6
CONTINUOUS
10
48.2818240000000003
20
-69.0494609999999938
11
48.2342049999999958
21
-68.9542229999999989
0
LINE
8
LYELLOW
6
CONTINUOUS
10
48.2342049999999958
20
-68.9542229999999989
11
48.1865859999999984
21
-68.7637469999999951
0
LINE
8
LYELLOW
6
CONTINUOUS
10
48.1865859999999984
20
-68.7637469999999951
11
48.1865859999999984
21
-68.6208900000000028
0
LINE
8
LYELLOW
6
CONTINUOUS
10
48.1865859999999984
20
-68.6208900000000028
11
48.2342049999999958
21
-68.430413999999999
0
LINE
8
LYELLOW
6
CONTINUOUS
10
48.2342049999999958
20
-68.430413999999999
11
48.2818240000000003
21
-68.3351759999999899
0
LINE
8
LYELLOW
6
CONTINUOUS
10
48.2818240000000003
20
-68.3351759999999899
11
48.3770619999999951
21
-68.2399379999999951
0
LINE
8
LYELLOW
6
CONTINUOUS
10
48.3770619999999951
20
-68.2399379999999951
11
48.5199189999999945
21
-68.1923189999999977
0
LINE
8
LYELLOW
6
CONTINUOUS
10
48.5199189999999945
20
-68.1923189999999977
11
48.6151569999999964
21
-68.1923189999999977
0
LINE
8
LYELLOW
6
CONTINUOUS
10
48.6151569999999964
20
-68.1923189999999977
11
48.7580139999999957
21
-68.2399379999999951
0
LINE
8
LYELLOW
6
CONTINUOUS
10
48.7580139999999957
20
-68.2399379999999951
11
48.8056330000000003
21
-68.2875569999999925
0
LINE
8
LYELLOW
6
CONTINUOUS
10
49.6627760000000009
20
-68.5256519999999938
11
49.6627760000000009
21
-69.1923189999999977
0
LINE
8
LYELLOW
6
CONTINUOUS
10
49.4246809999999996
20
-68.1447000000000003
11
49.1865859999999984
21
-68.8589849999999899
0
LINE
8
LYELLOW
6
CONTINUOUS
10
49.1865859999999984
20
-68.8589849999999899
11
49.8056330000000003
21
-68.8589849999999899
0
LINE
8
LYELLOW
6
CONTINUOUS
10
64.7797609999999935
20
-27.3875569999999975
11
64.6845229999999987
21
-27.3399380000000001
0
LINE
8
LYELLOW
6
CONTINUOUS
10
64.6845229999999987
20
-27.3399380000000001
11
64.5892850000000038
21
-27.2446999999999981
0
LINE
8
LYELLOW
6
CONTINUOUS
10
64.5892850000000038
20
-27.2446999999999981
11
64.4464279999999974
21
-27.1018419999999978
0
LINE
8
LYELLOW
6
CONTINUOUS
10
64.4464279999999974
20
-27.1018419999999978
11
64.3511900000000026
21
-27.0542230000000004
0
LINE
8
LYELLOW
6
CONTINUOUS
10
64.3511900000000026
20
-27.0542230000000004
11
64.2559519999999935
21
-27.0542230000000004
0
LINE
8
LYELLOW
6
CONTINUOUS
10
64.3035709999999909
20
-27.2923189999999991
11
64.2083329999999961
21
-27.2446999999999981
0
LINE
8
LYELLOW
6
CONTINUOUS
10
64.2083329999999961
20
-27.2446999999999981
11
64.1130950000000013
21
-27.1494609999999987
0
LINE
8
LYELLOW
6
CONTINUOUS
10
64.1130950000000013
20
-27.1494609999999987
11
64.0654760000000039
21
-26.9589849999999984
0
LINE
8
LYELLOW
6
CONTINUOUS
10
64.0654760000000039
20
-26.9589849999999984
11
64.0654760000000039
21
-26.6256519999999988
0
LINE
8
LYELLOW
6
CONTINUOUS
10
64.0654760000000039
20
-26.6256519999999988
11
64.1130950000000013
21
-26.4351759999999985
0
LINE
8
LYELLOW
6
CONTINUOUS
10
64.1130950000000013
20
-26.4351759999999985
11
64.2083329999999961
21
-26.3399380000000001
0
LINE
8
LYELLOW
6
CONTINUOUS
10
64.2083329999999961
20
-26.3399380000000001
11
64.3035709999999909
21
-26.2923189999999991
0
LINE
8
LYELLOW
6
CONTINUOUS
10
64.3035709999999909
20
-26.2923189999999991
11
64.4940469999999948
21
-26.2923189999999991
0
LINE
8
LYELLOW
6
CONTINUOUS
10
64.4940469999999948
20
-26.2923189999999991
11
64.5892850000000038
21
-26.3399380000000001
0
LINE
8
LYELLOW
6
CONTINUOUS
10
64.5892850000000038
20
-26.3399380000000001
11
64.6845229999999987
21
-26.4351759999999985
0
LINE
8
LYELLOW
6
CONTINUOUS
10
64.6845229999999987
20
-26.4351759999999985
11
64.7321419999999961
21
-26.6256519999999988
0
LINE
8
LYELLOW
6
CONTINUOUS
10
64.7321419999999961
20
-26.6256519999999988
11
64.7321419999999961
21
-26.9589849999999984
0
LINE
8
LYELLOW
6
CONTINUOUS
10
64.7321419999999961
20
-26.9589849999999984
11
64.6845229999999987
21
-27.1494609999999987
0
LINE
8
LYELLOW
6
CONTINUOUS
10
64.6845229999999987
20
-27.1494609999999987
11
64.5892850000000038
21
-27.2446999999999981
0
LINE
8
LYELLOW
6
CONTINUOUS
10
64.5892850000000038
20
-27.2446999999999981
11
64.4940469999999948
21
-27.2923189999999991
0
LINE
8
LYELLOW
6
CONTINUOUS
10
64.4940469999999948
20
-27.2923189999999991
11
64.3035709999999909
21
-27.2923189999999991
0
LINE
8
LYELLOW
6
CONTINUOUS
10
65.6845229999999987
20
-27.2923189999999991
11
65.1130950000000013
21
-27.2923189999999991
0
LINE
8
LYELLOW
6
CONTINUOUS
10
65.398809
20
-27.2923189999999991
11
65.398809
21
-26.2923189999999991
0
LINE
8
LYELLOW
6
CONTINUOUS
10
65.398809
20
-26.2923189999999991
11
65.3035709999999909
21
-26.4351759999999985
0
LINE
8
LYELLOW
6
CONTINUOUS
10
65.3035709999999909
20
-26.4351759999999985
11
65.2083329999999961
21
-26.5304140000000004
0
LINE
8
LYELLOW
6
CONTINUOUS
10
65.2083329999999961
20
-26.5304140000000004
11
65.1130950000000013
21
-26.5780329999999978
0
LINE
8
LYELLOW
6
CONTINUOUS
10
46.959818999999996
20
-51.1541659999999965
11
46.483627999999996
21
-51.4874989999999997
0
LINE
8
LYELLOW
6
CONTINUOUS
10
46.959818999999996
20
-51.725594000000001
11
45.959818999999996
21
-51.725594000000001
0
LINE
8
LYELLOW
6
CONTINUOUS
10
45.959818999999996
20
-51.725594000000001
11
45.959818999999996
21
-51.3446420000000003
0
LINE
8
LYELLOW
6
CONTINUOUS
10
45.959818999999996
20
-51.3446420000000003
11
46.0074380000000005
21
-51.2494039999999984
0
LINE
8
LYELLOW
6
CONTINUOUS
10
46.0074380000000005
20
-51.2494039999999984
11
46.0550569999999979
21
-51.201785000000001
0
LINE
8
LYELLOW
6
CONTINUOUS
10
46.0550569999999979
20
-51.201785000000001
11
46.1502949999999998
21
-51.1541659999999965
0
LINE
8
LYELLOW
6
CONTINUOUS
10
46.1502949999999998
20
-51.1541659999999965
11
46.2931519999999992
21
-51.1541659999999965
0
LINE
8
LYELLOW
6
CONTINUOUS
10
46.2931519999999992
20
-51.1541659999999965
11
46.3883900000000011
21
-51.201785000000001
0
LINE
8
LYELLOW
6
CONTINUOUS
10
46.3883900000000011
20
-51.201785000000001
11
46.4360089999999985
21
-51.2494039999999984
0
LINE
8
LYELLOW
6
CONTINUOUS
10
46.4360089999999985
20
-51.2494039999999984
11
46.483627999999996
21
-51.3446420000000003
0
LINE
8
LYELLOW
6
CONTINUOUS
10
46.483627999999996
20
-51.3446420000000003
11
46.483627999999996
21
-51.725594000000001
0
LINE
8
LYELLOW
6
CONTINUOUS
10
46.959818999999996
20
-50.201785000000001
11
46.959818999999996
21
-50.7732129999999984
0
LINE
8
LYELLOW
6
CONTINUOUS
10
46.959818999999996
20
-50.4874989999999997
11
45.959818999999996
21
-50.4874989999999997
0
LINE
8
LYELLOW
6
CONTINUOUS
10
45.959818999999996
20
-50.4874989999999997
11
46.1026759999999953
21
-50.5827369999999945
0
LINE
8
LYELLOW
6
CONTINUOUS
10
46.1026759999999953
20
-50.5827369999999945
11
46.1979139999999973
21
-50.6779749999999964
0
LINE
8
LYELLOW
6
CONTINUOUS
10
46.1979139999999973
20
-50.6779749999999964
11
46.2455329999999947
21
-50.7732129999999984
0
LINE
8
LYELLOW
6
CONTINUOUS
10
96.5416659999999922
20
-104.522318999999996
11
96.5416659999999922
21
-105.2366039999999998
0
LINE
8
LYELLOW
6
CONTINUOUS
10
96.5416659999999922
20
-105.2366039999999998
11
96.4940469999999948
21
-105.3794609999999921
0
LINE
8
LYELLOW
6
CONTINUOUS
10
96.4940469999999948
20
-105.3794609999999921
11
96.398809
21
-105.4746999999999986
0
LINE
8
LYELLOW
6
CONTINUOUS
10
96.398809
20
-105.4746999999999986
11
96.2559519999999935
21
-105.522318999999996
0
LINE
8
LYELLOW
6
CONTINUOUS
10
96.2559519999999935
20
-105.522318999999996
11
96.1607139999999987
21
-105.522318999999996
0
LINE
8
LYELLOW
6
CONTINUOUS
10
96.9702379999999948
20
-104.6175569999999908
11
97.0178569999999922
21
-104.5699379999999934
0
LINE
8
LYELLOW
6
CONTINUOUS
10
97.0178569999999922
20
-104.5699379999999934
11
97.1130950000000013
21
-104.522318999999996
0
LINE
8
LYELLOW
6
CONTINUOUS
10
97.1130950000000013
20
-104.522318999999996
11
97.3511900000000026
21
-104.522318999999996
0
LINE
8
LYELLOW
6
CONTINUOUS
10
97.3511900000000026
20
-104.522318999999996
11
97.4464279999999974
21
-104.5699379999999934
0
LINE
8
LYELLOW
6
CONTINUOUS
10
97.4464279999999974
20
-104.5699379999999934
11
97.4940469999999948
21
-104.6175569999999908
0
LINE
8
LYELLOW
6
CONTINUOUS
10
97.4940469999999948
20
-104.6175569999999908
11
97.5416659999999922
21
-104.7127949999999998
0
LINE
8
LYELLOW
6
CONTINUOUS
10
97.5416659999999922
20
-104.7127949999999998
11
97.5416659999999922
21
-104.8080329999999947
0
LINE
8
LYELLOW
6
CONTINUOUS
10
97.5416659999999922
20
-104.8080329999999947
11
97.4940469999999948
21
-104.9508900000000011
0
LINE
8
LYELLOW
6
CONTINUOUS
10
97.4940469999999948
20
-104.9508900000000011
11
96.9226189999999974
21
-105.522318999999996
0
LINE
8
LYELLOW
6
CONTINUOUS
10
96.9226189999999974
20
-105.522318999999996
11
97.5416659999999922
21
-105.522318999999996
0
LINE
8
LYELLOW
6
CONTINUOUS
10
100.959818999999996
20
-74.1541660000000036
11
100.483627999999996
21
-74.4874989999999997
0
LINE
8
LYELLOW
6
CONTINUOUS
10
100.959818999999996
20
-74.725594000000001
11
99.959818999999996
21
-74.725594000000001
0
LINE
8
LYELLOW
6
CONTINUOUS
10
99.959818999999996
20
-74.725594000000001
11
99.959818999999996
21
-74.3446419999999932
0
LINE
8
LYELLOW
6
CONTINUOUS
10
99.959818999999996
20
-74.3446419999999932
11
100.0074379999999934
21
-74.2494039999999984
0
LINE
8
LYELLOW
6
CONTINUOUS
10
100.0074379999999934
20
-74.2494039999999984
11
100.0550569999999908
21
-74.201785000000001
0
LINE
8
LYELLOW
6
CONTINUOUS
10
100.0550569999999908
20
-74.201785000000001
11
100.1502949999999998
21
-74.1541660000000036
0
LINE
8
LYELLOW
6
CONTINUOUS
10
100.1502949999999998
20
-74.1541660000000036
11
100.2931519999999921
21
-74.1541660000000036
0
LINE
8
LYELLOW
6
CONTINUOUS
10
100.2931519999999921
20
-74.1541660000000036
11
100.3883900000000011
21
-74.201785000000001
0
LINE
8
LYELLOW
6
CONTINUOUS
10
100.3883900000000011
20
-74.201785000000001
11
100.4360089999999985
21
-74.2494039999999984
0
LINE
8
LYELLOW
6
CONTINUOUS
10
100.4360089999999985
20
-74.2494039999999984
11
100.483627999999996
21
-74.3446419999999932
0
LINE
8
LYELLOW
6
CONTINUOUS
10
100.483627999999996
20
-74.3446419999999932
11
100.483627999999996
21
-74.725594000000001
0
LINE
8
LYELLOW
6
CONTINUOUS
10
100.2931519999999921
20
-73.2970229999999958
11
100.959818999999996
21
-73.2970229999999958
0
LINE
8
LYELLOW
6
CONTINUOUS
10
99.9121999999999986
20
-73.5351179999999971
11
100.6264850000000024
21
-73.7732129999999984
0
LINE
8
LYELLOW
6
CONTINUOUS
10
100.6264850000000024
20
-73.7732129999999984
11
100.6264850000000024
21
-73.1541660000000036
0
LINE
8
LYELLOW
6
CONTINUOUS
10
111.7549999999999955
20
-65.2674999999999983
11
113.9949999999999903
21
-65.2674999999999983
0
LINE
8
LYELLOW
6
CONTINUOUS
10
111.7549999999999955
20
-65.3875000000000028
11
113.9949999999999903
21
-65.3875000000000028
0
LINE
8
LYELLOW
6
CONTINUOUS
10
111.7549999999999955
20
-65.5074999999999932
11
113.9949999999999903
21
-65.5074999999999932
0
LINE
8
LYELLOW
6
CONTINUOUS
10
112.875
20
-61.217499999999994
11
112.875
21
-61.8674999999999997
0
LINE
8
LYELLOW
6
CONTINUOUS
10
112.875
20
-66.7574999999999932
11
112.875
21
-66.1075000000000017
0
LINE
8
LYELLOW
6
CONTINUOUS
10
111.7549999999999955
20
-66.1075000000000017
11
113.9949999999999903
21
-66.1075000000000017
0
LINE
8
LYELLOW
6
CONTINUOUS
10
113.9949999999999903
20
-66.1075000000000017
11
113.9949999999999903
21
-61.8674999999999997
0
LINE
8
LYELLOW
6
CONTINUOUS
10
113.9949999999999903
20
-61.8674999999999997
11
111.7549999999999955
21
-61.8674999999999997
0
LINE
8
LYELLOW
6
CONTINUOUS
10
111.7549999999999955
20
-61.8674999999999997
11
111.7549999999999955
21
-66.1075000000000017
0
LINE
8
LYELLOW
6
CONTINUOUS
10
75.5049999999999955
20
-49.7175000000000011
11
75.8349999999999937
21
-49.7175000000000011
0
LINE
8
LYELLOW
6
CONTINUOUS
10
75.5049999999999955
20
-56.2575000000000003
11
75.5049999999999955
21
-49.7175000000000011
0
LINE
8
LYELLOW
6
CONTINUOUS
10
75.8349999999999937
20
-56.2575000000000003
11
75.5049999999999955
21
-56.2575000000000003
0
LINE
8
LYELLOW
6
CONTINUOUS
10
77.914999999999992
20
-56.2575000000000003
11
78.2449999999999903
21
-56.2575000000000003
0
LINE
8
LYELLOW
6
CONTINUOUS
10
78.2449999999999903
20
-49.7175000000000011
11
77.914999999999992
21
-49.7175000000000011
0
LINE
8
LYELLOW
6
CONTINUOUS
10
78.2449999999999903
20
-56.2575000000000003
11
78.2449999999999903
21
-49.7175000000000011
0
LINE
8
LYELLOW
6
CONTINUOUS
10
58.2549999999999955
20
-72.6174999999999926
11
63.4949999999999974
21
-72.6174999999999926
0
LINE
8
LYELLOW
6
CONTINUOUS
10
58.2549999999999955
20
-72.9544999999999959
11
58.2549999999999955
21
-72.6174999999999926
0
LINE
8
LYELLOW
6
CONTINUOUS
10
58.2549999999999955
20
-75.3575000000000017
11
58.2549999999999955
21
-75.0204999999999984
0
LINE
8
LYELLOW
6
CONTINUOUS
10
63.4949999999999974
20
-72.6174999999999926
11
63.4949999999999974
21
-72.9544999999999959
0
LINE
8
LYELLOW
6
CONTINUOUS
10
63.4949999999999974
20
-75.0204999999999984
11
63.4949999999999974
21
-75.3575000000000017
0
LINE
8
LYELLOW
6
CONTINUOUS
10
63.4949999999999974
20
-75.3575000000000017
11
58.2549999999999955
21
-75.3575000000000017
0
LINE
8
LYELLOW
6
CONTINUOUS
10
111.5049999999999955
20
-46.7175000000000011
11
111.8349999999999937
21
-46.7175000000000011
0
LINE
8
LYELLOW
6
CONTINUOUS
10
111.5049999999999955
20
-53.2575000000000003
11
111.5049999999999955
21
-46.7175000000000011
0
LINE
8
LYELLOW
6
CONTINUOUS
10
111.8349999999999937
20
-53.2575000000000003
11
111.5049999999999955
21
-53.2575000000000003
0
LINE
8
LYELLOW
6
CONTINUOUS
10
113.914999999999992
20
-53.2575000000000003
11
114.2449999999999903
21
-53.2575000000000003
0
LINE
8
LYELLOW
6
CONTINUOUS
10
114.2449999999999903
20
-46.7175000000000011
11
113.914999999999992
21
-46.7175000000000011
0
LINE
8
LYELLOW
6
CONTINUOUS
10
114.2449999999999903
20
-53.2575000000000003
11
114.2449999999999903
21
-46.7175000000000011
0
LINE
8
LYELLOW
6
CONTINUOUS
10
74.5626019999999983
20
-97.6724999999999994
11
75.3626019999999954
21
-97.6724999999999994
0
LINE
8
LYELLOW
6
CONTINUOUS
10
74.9626019999999897
20
-97.2724999999999937
11
74.9626019999999897
21
-98.0724999999999909
0
LINE
8
LYELLOW
6
CONTINUOUS
10
78.97229999999999
20
-95.9074999999999989
11
78.97229999999999
21
-104.0674999999999955
0
LINE
8
LYELLOW
6
CONTINUOUS
10
79.0122999999999962
20
-95.9074999999999989
11
79.0122999999999962
21
-104.0674999999999955
0
LINE
8
LYELLOW
6
CONTINUOUS
10
79.0523000000000025
20
-95.9084999999999894
11
79.0523000000000025
21
-104.0664999999999907
0
LINE
8
LYELLOW
6
CONTINUOUS
10
79.0922999999999945
20
-95.9094999999999942
11
79.0922999999999945
21
-104.0655000000000001
0
LINE
8
LYELLOW
6
CONTINUOUS
10
79.1323000000000008
20
-95.910499999999999
11
79.1323000000000008
21
-104.0644999999999953
0
LINE
8
LYELLOW
6
CONTINUOUS
10
79.1722999999999928
20
-95.9124999999999943
11
79.1722999999999928
21
-104.0625
0
LINE
8
LYELLOW
6
CONTINUOUS
10
79.212299999999999
20
-95.9144999999999897
11
79.212299999999999
21
-104.0604999999999905
0
LINE
8
LYELLOW
6
CONTINUOUS
10
79.2522999999999911
20
-95.9174999999999898
11
79.2522999999999911
21
-104.0574999999999903
0
LINE
8
LYELLOW
6
CONTINUOUS
10
79.2922999999999973
20
-95.9194999999999993
11
79.2922999999999973
21
-104.055499999999995
0
LINE
8
LYELLOW
6
CONTINUOUS
10
79.3322999999999894
20
-95.92349999999999
11
79.3322999999999894
21
-104.0514999999999901
0
LINE
8
LYELLOW
6
CONTINUOUS
10
79.3722999999999956
20
-95.9264999999999901
11
79.3722999999999956
21
-104.04849999999999
0
LINE
8
LYELLOW
6
CONTINUOUS
10
79.4123000000000019
20
-95.9314999999999998
11
79.4123000000000019
21
-104.0434999999999945
0
LINE
8
LYELLOW
6
CONTINUOUS
10
79.4522999999999939
20
-95.9354999999999905
11
79.4522999999999939
21
-104.0394999999999897
0
LINE
8
LYELLOW
6
CONTINUOUS
10
79.4923000000000002
20
-95.9405000000000001
11
79.4923000000000002
21
-104.0344999999999942
0
LINE
8
LYELLOW
6
CONTINUOUS
10
79.5322999999999922
20
-95.9454999999999956
11
79.5322999999999922
21
-104.0294999999999987
0
LINE
8
LYELLOW
6
CONTINUOUS
10
79.5722999999999985
20
-95.9514999999999958
11
79.5722999999999985
21
-104.0234999999999985
0
LINE
8
LYELLOW
6
CONTINUOUS
10
79.6122999999999905
20
-95.957499999999996
11
79.6122999999999905
21
-104.0174999999999983
0
LINE
8
LYELLOW
6
CONTINUOUS
10
79.6522999999999968
20
-95.964500000000001
11
79.6522999999999968
21
-104.0104999999999933
0
LINE
8
LYELLOW
6
CONTINUOUS
10
79.692300000000003
20
-95.9705000000000013
11
79.692300000000003
21
-98.9474999999999909
0
LINE
8
LYELLOW
6
CONTINUOUS
10
79.692300000000003
20
-101.0274999999999892
11
79.692300000000003
21
-104.0044999999999931
0
LINE
8
LYELLOW
6
CONTINUOUS
10
79.7322999999999951
20
-95.9784999999999968
11
79.7322999999999951
21
-98.9474999999999909
0
LINE
8
LYELLOW
6
CONTINUOUS
10
79.7322999999999951
20
-101.0274999999999892
11
79.7322999999999951
21
-103.9964999999999975
0
LINE
8
LYELLOW
6
CONTINUOUS
10
79.7723000000000013
20
-95.9855000000000018
11
79.7723000000000013
21
-98.9474999999999909
0
LINE
8
LYELLOW
6
CONTINUOUS
10
79.7723000000000013
20
-101.0274999999999892
11
79.7723000000000013
21
-103.9894999999999925
0
LINE
8
LYELLOW
6
CONTINUOUS
10
79.8122999999999934
20
-95.9945000000000022
11
79.8122999999999934
21
-98.9474999999999909
0
LINE
8
LYELLOW
6
CONTINUOUS
10
79.8122999999999934
20
-101.0274999999999892
11
79.8122999999999934
21
-103.9804999999999922
0
LINE
8
LYELLOW
6
CONTINUOUS
10
79.8522999999999996
20
-96.0024999999999977
11
79.8522999999999996
21
-98.9474999999999909
0
LINE
8
LYELLOW
6
CONTINUOUS
10
79.8522999999999996
20
-101.0274999999999892
11
79.8522999999999996
21
-103.9724999999999966
0
LINE
8
LYELLOW
6
CONTINUOUS
10
79.8922999999999917
20
-96.0114999999999981
11
79.8922999999999917
21
-98.9474999999999909
0
LINE
8
LYELLOW
6
CONTINUOUS
10
79.8922999999999917
20
-101.0274999999999892
11
79.8922999999999917
21
-103.9634999999999962
0
LINE
8
LYELLOW
6
CONTINUOUS
10
79.9322999999999979
20
-96.0204999999999984
11
79.9322999999999979
21
-98.9474999999999909
0
LINE
8
LYELLOW
6
CONTINUOUS
10
79.9322999999999979
20
-101.0274999999999892
11
79.9322999999999979
21
-103.9544999999999959
0
LINE
8
LYELLOW
6
CONTINUOUS
10
79.97229999999999
20
-96.0304999999999893
11
79.97229999999999
21
-98.9474999999999909
0
LINE
8
LYELLOW
6
CONTINUOUS
10
79.97229999999999
20
-101.0274999999999892
11
79.97229999999999
21
-103.9444999999999908
0
LINE
8
LYELLOW
6
CONTINUOUS
10
80.0122999999999962
20
-96.0404999999999944
11
80.0122999999999962
21
-98.9474999999999909
0
LINE
8
LYELLOW
6
CONTINUOUS
10
80.0122999999999962
20
-101.0274999999999892
11
80.0122999999999962
21
-103.9344999999999999
0
LINE
8
LYELLOW
6
CONTINUOUS
10
80.0523000000000025
20
-96.0514999999999901
11
80.0523000000000025
21
-98.9474999999999909
0
LINE
8
LYELLOW
6
CONTINUOUS
10
80.0523000000000025
20
-101.0274999999999892
11
80.0523000000000025
21
-103.92349999999999
0
LINE
8
LYELLOW
6
CONTINUOUS
10
80.0922999999999945
20
-96.0625
11
80.0922999999999945
21
-98.9474999999999909
0
LINE
8
LYELLOW
6
CONTINUOUS
10
80.0922999999999945
20
-101.0274999999999892
11
80.0922999999999945
21
-103.9124999999999943
0
LINE
8
LYELLOW
6
CONTINUOUS
10
80.1323000000000008
20
-96.0745000000000005
11
80.1323000000000008
21
-98.9474999999999909
0
LINE
8
LYELLOW
6
CONTINUOUS
10
80.1323000000000008
20
-101.0274999999999892
11
80.1323000000000008
21
-103.9004999999999939
0
LINE
8
LYELLOW
6
CONTINUOUS
10
80.1722999999999928
20
-96.0865000000000009
11
80.1722999999999928
21
-98.9474999999999909
0
LINE
8
LYELLOW
6
CONTINUOUS
10
80.1722999999999928
20
-101.0274999999999892
11
80.1722999999999928
21
-103.8884999999999934
0
LINE
8
LYELLOW
6
CONTINUOUS
10
80.212299999999999
20
-96.0985000000000014
11
80.212299999999999
21
-98.9474999999999909
0
LINE
8
LYELLOW
6
CONTINUOUS
10
80.212299999999999
20
-101.0274999999999892
11
80.212299999999999
21
-103.876499999999993
0
LINE
8
LYELLOW
6
CONTINUOUS
10
80.2522999999999911
20
-96.1114999999999924
11
80.2522999999999911
21
-98.9474999999999909
0
LINE
8
LYELLOW
6
CONTINUOUS
10
80.2522999999999911
20
-101.0274999999999892
11
80.2522999999999911
21
-103.8635000000000019
0
LINE
8
LYELLOW
6
CONTINUOUS
10
80.2922999999999973
20
-96.1244999999999976
11
80.2922999999999973
21
-98.9474999999999909
0
LINE
8
LYELLOW
6
CONTINUOUS
10
80.2922999999999973
20
-101.0274999999999892
11
80.2922999999999973
21
-103.8504999999999967
0
LINE
8
LYELLOW
6
CONTINUOUS
10
80.3322999999999894
20
-96.1384999999999934
11
80.3322999999999894
21
-98.9474999999999909
0
LINE
8
LYELLOW
6
CONTINUOUS
10
80.3322999999999894
20
-101.0274999999999892
11
80.3322999999999894
21
-103.8365000000000009
0
LINE
8
LYELLOW
6
CONTINUOUS
10
80.3722999999999956
20
-96.1524999999999892
11
80.3722999999999956
21
-98.9474999999999909
0
LINE
8
LYELLOW
6
CONTINUOUS
10
80.3722999999999956
20
-101.0274999999999892
11
80.3722999999999956
21
-103.8224999999999909
0
LINE
8
LYELLOW
6
CONTINUOUS
10
80.4123000000000019
20
-96.1674999999999898
11
80.4123000000000019
21
-98.9474999999999909
0
LINE
8
LYELLOW
6
CONTINUOUS
10
80.4123000000000019
20
-101.0274999999999892
11
80.4123000000000019
21
-103.8074999999999903
0
LINE
8
LYELLOW
6
CONTINUOUS
10
80.4522999999999939
20
-96.1824999999999903
11
80.4522999999999939
21
-98.9474999999999909
0
LINE
8
LYELLOW
6
CONTINUOUS
10
80.4522999999999939
20
-101.0274999999999892
11
80.4522999999999939
21
-103.7924999999999898
0
LINE
8
LYELLOW
6
CONTINUOUS
10
80.4923000000000002
20
-96.1984999999999957
11
80.4923000000000002
21
-98.9474999999999909
0
LINE
8
LYELLOW
6
CONTINUOUS
10
80.4923000000000002
20
-101.0274999999999892
11
80.4923000000000002
21
-103.7764999999999986
0
LINE
8
LYELLOW
6
CONTINUOUS
10
80.5322999999999922
20
-96.214500000000001
11
80.5322999999999922
21
-98.9474999999999909
0
LINE
8
LYELLOW
6
CONTINUOUS
10
80.5322999999999922
20
-101.0274999999999892
11
80.5322999999999922
21
-103.7604999999999933
0
LINE
8
LYELLOW
6
CONTINUOUS
10
80.5722999999999985
20
-96.2304999999999922
11
80.5722999999999985
21
-98.9474999999999909
0
LINE
8
LYELLOW
6
CONTINUOUS
10
80.5722999999999985
20
-101.0274999999999892
11
80.5722999999999985
21
-103.7445000000000022
0
LINE
8
LYELLOW
6
CONTINUOUS
10
80.6122999999999905
20
-96.2475000000000023
11
80.6122999999999905
21
-98.9474999999999909
0
LINE
8
LYELLOW
6
CONTINUOUS
10
80.6122999999999905
20
-101.0274999999999892
11
80.6122999999999905
21
-103.727499999999992
0
LINE
8
LYELLOW
6
CONTINUOUS
10
80.6522999999999968
20
-96.2654999999999887
11
80.6522999999999968
21
-98.9474999999999909
0
LINE
8
LYELLOW
6
CONTINUOUS
10
80.6522999999999968
20
-101.0274999999999892
11
80.6522999999999968
21
-103.7094999999999914
0
LINE
8
LYELLOW
6
CONTINUOUS
10
80.692300000000003
20
-96.2834999999999894
11
80.692300000000003
21
-98.9474999999999909
0
LINE
8
LYELLOW
6
CONTINUOUS
10
80.692300000000003
20
-101.0274999999999892
11
80.692300000000003
21
-103.6914999999999907
0
LINE
8
LYELLOW
6
CONTINUOUS
10
80.7322999999999951
20
-96.3024999999999949
11
80.7322999999999951
21
-98.9474999999999909
0
LINE
8
LYELLOW
6
CONTINUOUS
10
80.7322999999999951
20
-101.0274999999999892
11
80.7322999999999951
21
-103.6724999999999994
0
LINE
8
LYELLOW
6
CONTINUOUS
10
80.7723000000000013
20
-96.3215000000000003
11
80.7723000000000013
21
-98.9474999999999909
0
LINE
8
LYELLOW
6
CONTINUOUS
10
80.7723000000000013
20
-101.0274999999999892
11
80.7723000000000013
21
-103.653499999999994
0
LINE
8
LYELLOW
6
CONTINUOUS
10
80.8122999999999934
20
-96.3414999999999964
11
80.8122999999999934
21
-98.9474999999999909
0
LINE
8
LYELLOW
6
CONTINUOUS
10
80.8122999999999934
20
-101.0274999999999892
11
80.8122999999999934
21
-103.633499999999998
0
LINE
8
LYELLOW
6
CONTINUOUS
10
80.8522999999999996
20
-96.3614999999999924
11
80.8522999999999996
21
-98.9474999999999909
0
LINE
8
LYELLOW
6
CONTINUOUS
10
80.8522999999999996
20
-101.0274999999999892
11
80.8522999999999996
21
-103.6135000000000019
0
LINE
8
LYELLOW
6
CONTINUOUS
10
80.8922999999999917
20
-96.3824999999999932
11
80.8922999999999917
21
-98.9474999999999909
0
LINE
8
LYELLOW
6
CONTINUOUS
10
80.8922999999999917
20
-101.0274999999999892
11
80.8922999999999917
21
-103.5925000000000011
0
LINE
8
LYELLOW
6
CONTINUOUS
10
80.9322999999999979
20
-96.403499999999994
11
80.9322999999999979
21
-98.9474999999999909
0
LINE
8
LYELLOW
6
CONTINUOUS
10
80.9322999999999979
20
-101.0274999999999892
11
80.9322999999999979
21
-103.5715000000000003
0
LINE
8
LYELLOW
6
CONTINUOUS
10
80.97229999999999
20
-96.4254999999999995
11
80.97229999999999
21
-98.9474999999999909
0
LINE
8
LYELLOW
6
CONTINUOUS
10
80.97229999999999
20
-101.0274999999999892
11
80.97229999999999
21
-103.5494999999999948
0
LINE
8
LYELLOW
6
CONTINUOUS
10
81.0122999999999962
20
-96.4484999999999957
11
81.0122999999999962
21
-98.9474999999999909
0
LINE
8
LYELLOW
6
CONTINUOUS
10
81.0122999999999962
20
-101.0274999999999892
11
81.0122999999999962
21
-103.5264999999999986
0
LINE
8
LYELLOW
6
CONTINUOUS
10
81.0523000000000025
20
-96.4714999999999918
11
81.0523000000000025
21
-98.9474999999999909
0
LINE
8
LYELLOW
6
CONTINUOUS
10
81.0523000000000025
20
-101.0274999999999892
11
81.0523000000000025
21
-103.5034999999999883
0
LINE
8
LYELLOW
6
CONTINUOUS
10
81.0922999999999945
20
-96.4945000000000022
11
81.0922999999999945
21
-98.9474999999999909
0
LINE
8
LYELLOW
6
CONTINUOUS
10
81.0922999999999945
20
-101.0274999999999892
11
81.0922999999999945
21
-103.4804999999999922
0
LINE
8
LYELLOW
6
CONTINUOUS
10
81.1323000000000008
20
-96.5194999999999936
11
81.1323000000000008
21
-98.9474999999999909
0
LINE
8
LYELLOW
6
CONTINUOUS
10
81.1323000000000008
20
-101.0274999999999892
11
81.1323000000000008
21
-103.4555000000000007
0
LINE
8
LYELLOW
6
CONTINUOUS
10
81.1722999999999928
20
-96.5444999999999993
11
81.1722999999999928
21
-98.9474999999999909
0
LINE
8
LYELLOW
6
CONTINUOUS
10
81.1722999999999928
20
-101.0274999999999892
11
81.1722999999999928
21
-103.430499999999995
0
LINE
8
LYELLOW
6
CONTINUOUS
10
81.212299999999999
20
-96.5694999999999908
11
81.212299999999999
21
-98.9474999999999909
0
LINE
8
LYELLOW
6
CONTINUOUS
10
81.212299999999999
20
-101.0274999999999892
11
81.212299999999999
21
-103.4054999999999893
0
LINE
8
LYELLOW
6
CONTINUOUS
10
81.2522999999999911
20
-96.5955000000000013
11
81.2522999999999911
21
-98.9474999999999909
0
LINE
8
LYELLOW
6
CONTINUOUS
10
81.2522999999999911
20
-101.0274999999999892
11
81.2522999999999911
21
-103.3794999999999931
0
LINE
8
LYELLOW
6
CONTINUOUS
10
81.2922999999999973
20
-96.6225000000000023
11
81.2922999999999973
21
-98.9474999999999909
0
LINE
8
LYELLOW
6
CONTINUOUS
10
81.2922999999999973
20
-101.0274999999999892
11
81.2922999999999973
21
-103.352499999999992
0
LINE
8
LYELLOW
6
CONTINUOUS
10
81.3322999999999894
20
-96.6504999999999939
11
81.3322999999999894
21
-98.9474999999999909
0
LINE
8
LYELLOW
6
CONTINUOUS
10
81.3322999999999894
20
-101.0274999999999892
11
81.3322999999999894
21
-103.3245000000000005
0
LINE
8
LYELLOW
6
CONTINUOUS
10
81.3722999999999956
20
-96.6784999999999997
11
81.3722999999999956
21
-98.9474999999999909
0
LINE
8
LYELLOW
6
CONTINUOUS
10
81.3722999999999956
20
-101.0274999999999892
11
81.3722999999999956
21
-103.2964999999999947
0
LINE
8
LYELLOW
6
CONTINUOUS
10
81.4123000000000019
20
-96.707499999999996
11
81.4123000000000019
21
-98.9474999999999909
0
LINE
8
LYELLOW
6
CONTINUOUS
10
81.4123000000000019
20
-101.0274999999999892
11
81.4123000000000019
21
-103.2674999999999983
0
LINE
8
LYELLOW
6
CONTINUOUS
10
81.4522999999999939
20
-96.7374999999999972
11
81.4522999999999939
21
-98.9474999999999909
0
LINE
8
LYELLOW
6
CONTINUOUS
10
81.4522999999999939
20
-101.0274999999999892
11
81.4522999999999939
21
-103.2374999999999972
0
LINE
8
LYELLOW
6
CONTINUOUS
10
81.4923000000000002
20
-96.7684999999999889
11
81.4923000000000002
21
-98.9474999999999909
0
LINE
8
LYELLOW
6
CONTINUOUS
10
81.4923000000000002
20
-101.0274999999999892
11
81.4923000000000002
21
-103.2064999999999912
0
LINE
8
LYELLOW
6
CONTINUOUS
10
81.5322999999999922
20
-96.7994999999999948
11
81.5322999999999922
21
-98.9474999999999909
0
LINE
8
LYELLOW
6
CONTINUOUS
10
81.5322999999999922
20
-101.0274999999999892
11
81.5322999999999922
21
-103.1754999999999995
0
LINE
8
LYELLOW
6
CONTINUOUS
10
81.5722999999999985
20
-96.8314999999999912
11
81.5722999999999985
21
-98.9474999999999909
0
LINE
8
LYELLOW
6
CONTINUOUS
10
81.5722999999999985
20
-101.0274999999999892
11
81.5722999999999985
21
-103.1434999999999889
0
LINE
8
LYELLOW
6
CONTINUOUS
10
81.6122999999999905
20
-96.8644999999999925
11
81.6122999999999905
21
-98.9474999999999909
0
LINE
8
LYELLOW
6
CONTINUOUS
10
81.6122999999999905
20
-101.0274999999999892
11
81.6122999999999905
21
-103.1105000000000018
0
LINE
8
LYELLOW
6
CONTINUOUS
10
81.6522999999999968
20
-96.8984999999999985
11
81.6522999999999968
21
-98.9474999999999909
0
LINE
8
LYELLOW
6
CONTINUOUS
10
81.6522999999999968
20
-101.0274999999999892
11
81.6522999999999968
21
-103.0764999999999958
0
LINE
8
LYELLOW
6
CONTINUOUS
10
81.692300000000003
20
-96.9324999999999903
11
81.692300000000003
21
-98.9474999999999909
0
LINE
8
LYELLOW
6
CONTINUOUS
10
81.692300000000003
20
-101.0274999999999892
11
81.692300000000003
21
-103.0424999999999898
0
LINE
8
LYELLOW
6
CONTINUOUS
10
81.7322999999999951
20
-96.9684999999999917
11
81.7322999999999951
21
-98.9474999999999909
0
LINE
8
LYELLOW
6
CONTINUOUS
10
81.7322999999999951
20
-101.0274999999999892
11
81.7322999999999951
21
-103.0064999999999884
0
LINE
8
LYELLOW
6
CONTINUOUS
10
81.7723000000000013
20
-97.0054999999999978
11
81.7723000000000013
21
-102.9694999999999965
0
LINE
8
LYELLOW
6
CONTINUOUS
10
81.8122999999999934
20
-97.0424999999999898
11
81.8122999999999934
21
-102.9324999999999903
0
LINE
8
LYELLOW
6
CONTINUOUS
10
81.8522999999999996
20
-97.0814999999999912
11
81.8522999999999996
21
-102.8934999999999889
0
LINE
8
LYELLOW
6
CONTINUOUS
10
81.8922999999999917
20
-97.1204999999999927
11
81.8922999999999917
21
-102.8545000000000016
0
LINE
8
LYELLOW
6
CONTINUOUS
10
81.9322999999999979
20
-97.1614999999999895
11
81.9322999999999979
21
-102.8134999999999906
0
LINE
8
LYELLOW
6
CONTINUOUS
10
81.97229999999999
20
-97.2034999999999911
11
81.97229999999999
21
-102.771499999999989
0
LINE
8
LYELLOW
6
CONTINUOUS
10
82.0122999999999962
20
-97.2464999999999975
11
82.0122999999999962
21
-102.7284999999999968
0
LINE
8
LYELLOW
6
CONTINUOUS
10
82.0523000000000025
20
-97.2914999999999992
11
82.0523000000000025
21
-102.6834999999999951
0
LINE
8
LYELLOW
6
CONTINUOUS
10
82.0922999999999945
20
-97.3365000000000009
11
82.0922999999999945
21
-102.6384999999999934
0
LINE
8
LYELLOW
6
CONTINUOUS
10
82.1323000000000008
20
-97.383499999999998
11
82.1323000000000008
21
-102.5914999999999964
0
LINE
8
LYELLOW
6
CONTINUOUS
10
82.1722999999999928
20
-97.4324999999999903
11
82.1722999999999928
21
-102.5424999999999898
0
LINE
8
LYELLOW
6
CONTINUOUS
10
82.212299999999999
20
-97.4825000000000017
11
82.212299999999999
21
-102.4924999999999926
0
LINE
8
LYELLOW
6
CONTINUOUS
10
82.2522999999999911
20
-97.5344999999999942
11
82.2522999999999911
21
-102.4405000000000001
0
LINE
8
LYELLOW
6
CONTINUOUS
10
82.2922999999999973
20
-97.5874999999999915
11
82.2922999999999973
21
-102.3874999999999886
0
LINE
8
LYELLOW
6
CONTINUOUS
10
82.3322999999999894
20
-97.6434999999999889
11
82.3322999999999894
21
-102.3314999999999912
0
LINE
8
LYELLOW
6
CONTINUOUS
10
82.3722999999999956
20
-97.700499999999991
11
82.3722999999999956
21
-102.2744999999999891
0
LINE
8
LYELLOW
6
CONTINUOUS
10
82.4123000000000019
20
-97.7604999999999933
11
82.4123000000000019
21
-102.214500000000001
0
LINE
8
LYELLOW
6
CONTINUOUS
10
82.4522999999999939
20
-97.8224999999999909
11
82.4522999999999939
21
-102.1524999999999892
0
LINE
8
LYELLOW
6
CONTINUOUS
10
82.4923000000000002
20
-97.8864999999999981
11
82.4923000000000002
21
-102.0884999999999962
0
LINE
8
LYELLOW
6
CONTINUOUS
10
82.5322999999999922
20
-97.9534999999999911
11
82.5322999999999922
21
-102.021499999999989
0
LINE
8
LYELLOW
6
CONTINUOUS
10
82.5722999999999985
20
-98.0234999999999985
11
82.5722999999999985
21
-101.9514999999999958
0
LINE
8
LYELLOW
6
CONTINUOUS
10
82.6122999999999905
20
-98.0974999999999966
11
82.6122999999999905
21
-101.8774999999999977
0
LINE
8
LYELLOW
6
CONTINUOUS
10
82.6522999999999968
20
-98.1744999999999948
11
82.6522999999999968
21
-101.8004999999999995
0
LINE
8
LYELLOW
6
CONTINUOUS
10
82.692300000000003
20
-98.2565000000000026
11
82.692300000000003
21
-101.7184999999999917
0
LINE
8
LYELLOW
6
CONTINUOUS
10
82.7322999999999951
20
-98.3434999999999917
11
82.7322999999999951
21
-101.6314999999999884
0
LINE
8
LYELLOW
6
CONTINUOUS
10
82.7723000000000013
20
-98.4354999999999905
11
82.7723000000000013
21
-101.5394999999999897
0
LINE
8
LYELLOW
6
CONTINUOUS
10
82.8122999999999934
20
-98.5344999999999942
11
82.8122999999999934
21
-101.4405000000000001
0
LINE
8
LYELLOW
6
CONTINUOUS
10
82.8522999999999996
20
-98.6414999999999935
11
82.8522999999999996
21
-101.3335000000000008
0
LINE
8
LYELLOW
6
CONTINUOUS
10
82.8922999999999917
20
-98.7594999999999885
11
82.8922999999999917
21
-101.2154999999999916
0
LINE
8
LYELLOW
6
CONTINUOUS
10
82.9322999999999979
20
-98.8904999999999887
11
82.9322999999999979
21
-101.0844999999999914
0
LINE
8
LYELLOW
6
CONTINUOUS
10
82.97229999999999
20
-99.0404999999999944
11
82.97229999999999
21
-100.9344999999999999
0
LINE
8
LYELLOW
6
CONTINUOUS
10
83.0122999999999962
20
-99.2194999999999965
11
83.0122999999999962
21
-100.7554999999999978
0
LINE
8
LYELLOW
6
CONTINUOUS
10
83.0523000000000025
20
-99.4544999999999959
11
83.0523000000000025
21
-100.5204999999999984
0
CIRCLE
8
LYELLOW
10
78.97229999999999
20
-99.9874999999999972
40
4.1200000000000001
0
LINE
8
LYELLOW
6
CONTINUOUS
10
94.625
20
-46.0375000000000014
11
94.625
21
-63.9375
0
LINE
8
LYELLOW
6
CONTINUOUS
10
94.625
20
-63.9375
11
99.125
21
-63.9375
0
LINE
8
LYELLOW
6
CONTINUOUS
10
95.875
20
-46.0375000000000014
11
94.625
21
-46.0375000000000014
0
LINE
8
LYELLOW
6
CONTINUOUS
10
99.125
20
-46.0375000000000014
11
97.875
21
-46.0375000000000014
0
LINE
8
LYELLOW
6
CONTINUOUS
10
99.125
20
-63.9375
11
99.125
21
-46.0375000000000014
0
ARC
8
LYELLOW
10
96.875
20
-46.0375000000000014
40
1.
50
-180.00000000
51
-0.00000000
0
LINE
8
LYELLOW
6
CONTINUOUS
10
76.1550000000000011
20
-39.1924999999999955
11
81.5949999999999989
21
-39.1924999999999955
0
LINE
8
LYELLOW
6
CONTINUOUS
10
76.1550000000000011
20
-39.3125
11
81.5949999999999989
21
-39.3125
0
LINE
8
LYELLOW
6
CONTINUOUS
10
76.1550000000000011
20
-39.4324999999999974
11
81.5949999999999989
21
-39.4324999999999974
0
LINE
8
LYELLOW
6
CONTINUOUS
10
78.875
20
-30.2074999999999996
11
78.875
21
-31.1174999999999997
0
LINE
8
LYELLOW
6
CONTINUOUS
10
78.875
20
-41.7674999999999983
11
78.875
21
-40.8574999999999946
0
LINE
8
LYELLOW
6
CONTINUOUS
10
76.1550000000000011
20
-40.8574999999999946
11
81.5949999999999989
21
-40.8574999999999946
0
LINE
8
LYELLOW
6
CONTINUOUS
10
81.5949999999999989
20
-40.8574999999999946
11
81.5949999999999989
21
-31.1174999999999997
0
LINE
8
LYELLOW
6
CONTINUOUS
10
81.5949999999999989
20
-31.1174999999999997
11
76.1550000000000011
21
-31.1174999999999997
0
LINE
8
LYELLOW
6
CONTINUOUS
10
76.1550000000000011
20
-31.1174999999999997
11
76.1550000000000011
21
-40.8574999999999946
0
LINE
8
LYELLOW
6
CONTINUOUS
10
86.2549999999999955
20
-72.6174999999999926
11
91.4949999999999903
21
-72.6174999999999926
0
LINE
8
LYELLOW
6
CONTINUOUS
10
86.2549999999999955
20
-72.9544999999999959
11
86.2549999999999955
21
-72.6174999999999926
0
LINE
8
LYELLOW
6
CONTINUOUS
10
86.2549999999999955
20
-75.3575000000000017
11
86.2549999999999955
21
-75.0204999999999984
0
LINE
8
LYELLOW
6
CONTINUOUS
10
91.4949999999999903
20
-72.6174999999999926
11
91.4949999999999903
21
-72.9544999999999959
0
LINE
8
LYELLOW
6
CONTINUOUS
10
91.4949999999999903
20
-75.0204999999999984
11
91.4949999999999903
21
-75.3575000000000017
0
LINE
8
LYELLOW
6
CONTINUOUS
10
91.4949999999999903
20
-75.3575000000000017
11
86.2549999999999955
21
-75.3575000000000017
0
LINE
8
LYELLOW
6
CONTINUOUS
10
35.5049999999999955
20
-93.3674999999999926
11
70.2449999999999903
21
-93.3674999999999926
0
LINE
8
LYELLOW
6
CONTINUOUS
10
70.2449999999999903
20
-93.3674999999999926
11
70.2449999999999903
21
-108.6075000000000017
0
LINE
8
LYELLOW
6
CONTINUOUS
10
70.2449999999999903
20
-108.6075000000000017
11
35.5049999999999955
21
-108.6075000000000017
0
LINE
8
LYELLOW
6
CONTINUOUS
10
35.5049999999999955
20
-108.6075000000000017
11
35.5049999999999955
21
-93.3674999999999926
0
LINE
8
LYELLOW
6
CONTINUOUS
10
72.1049999999999898
20
-73.9874999999999972
11
72.7549999999999955
21
-73.9874999999999972
0
LINE
8
LYELLOW
6
CONTINUOUS
10
73.3549999999999898
20
-72.8674999999999926
11
73.3549999999999898
21
-75.1075000000000017
0
LINE
8
LYELLOW
6
CONTINUOUS
10
73.4749999999999943
20
-72.8674999999999926
11
73.4749999999999943
21
-75.1075000000000017
0
LINE
8
LYELLOW
6
CONTINUOUS
10
73.5949999999999989
20
-72.8674999999999926
11
73.5949999999999989
21
-75.1075000000000017
0
LINE
8
LYELLOW
6
CONTINUOUS
10
77.644999999999996
20
-73.9874999999999972
11
76.9949999999999903
21
-73.9874999999999972
0
LINE
8
LYELLOW
6
CONTINUOUS
10
72.7549999999999955
20
-72.8674999999999926
11
76.9949999999999903
21
-72.8674999999999926
0
LINE
8
LYELLOW
6
CONTINUOUS
10
76.9949999999999903
20
-72.8674999999999926
11
76.9949999999999903
21
-75.1075000000000017
0
LINE
8
LYELLOW
6
CONTINUOUS
10
76.9949999999999903
20
-75.1075000000000017
11
72.7549999999999955
21
-75.1075000000000017
0
LINE
8
LYELLOW
6
CONTINUOUS
10
72.7549999999999955
20
-75.1075000000000017
11
72.7549999999999955
21
-72.8674999999999926
0
LINE
8
LYELLOW
6
CONTINUOUS
10
29.7949999999999982
20
-70.1774999999999949
11
29.7949999999999982
21
-77.7974999999999994
0
LINE
8
LYELLOW
6
CONTINUOUS
10
29.7949999999999982
20
-71.4474999999999909
11
39.9549999999999983
21
-71.4474999999999909
0
LINE
8
LYELLOW
6
CONTINUOUS
10
29.7949999999999982
20
-77.7974999999999994
11
39.9549999999999983
21
-77.7974999999999994
0
LINE
8
LYELLOW
6
CONTINUOUS
10
39.9549999999999983
20
-70.1774999999999949
11
29.7949999999999982
21
-70.1774999999999949
0
LINE
8
LYELLOW
6
CONTINUOUS
10
39.9549999999999983
20
-77.7974999999999994
11
39.9549999999999983
21
-70.1774999999999949
0
LINE
8
LYELLOW
6
CONTINUOUS
10
29.7949999999999982
20
-26.1774999999999984
11
29.7949999999999982
21
-33.7974999999999994
0
LINE
8
LYELLOW
6
CONTINUOUS
10
29.7949999999999982
20
-27.447499999999998
11
39.9549999999999983
21
-27.447499999999998
0
LINE
8
LYELLOW
6
CONTINUOUS
10
29.7949999999999982
20
-33.7974999999999994
11
39.9549999999999983
21
-33.7974999999999994
0
LINE
8
LYELLOW
6
CONTINUOUS
10
39.9549999999999983
20
-26.1774999999999984
11
29.7949999999999982
21
-26.1774999999999984
0
LINE
8
LYELLOW
6
CONTINUOUS
10
39.9549999999999983
20
-33.7974999999999994
11
39.9549999999999983
21
-26.1774999999999984
0
LINE
8
LYELLOW
6
CONTINUOUS
10
44.5626019999999983
20
-27.6724999999999994
11
45.3626019999999954
21
-27.6724999999999994
0
LINE
8
LYELLOW
6
CONTINUOUS
10
44.9626019999999968
20
-27.2724999999999973
11
44.9626019999999968
21
-28.072499999999998
0
LINE
8
LYELLOW
6
CONTINUOUS
10
48.9722999999999971
20
-25.9074999999999989
11
48.9722999999999971
21
-34.0674999999999955
0
LINE
8
LYELLOW
6
CONTINUOUS
10
49.0122999999999962
20
-25.9074999999999989
11
49.0122999999999962
21
-34.0674999999999955
0
LINE
8
LYELLOW
6
CONTINUOUS
10
49.0522999999999954
20
-25.9085000000000001
11
49.0522999999999954
21
-34.0664999999999978
0
LINE
8
LYELLOW
6
CONTINUOUS
10
49.0922999999999945
20
-25.9094999999999978
11
49.0922999999999945
21
-34.0655000000000001
0
LINE
8
LYELLOW
6
CONTINUOUS
10
49.1323000000000008
20
-25.910499999999999
11
49.1323000000000008
21
-34.0644999999999953
0
LINE
8
LYELLOW
6
CONTINUOUS
10
49.1722999999999999
20
-25.9124999999999979
11
49.1722999999999999
21
-34.0625
0
LINE
8
LYELLOW
6
CONTINUOUS
10
49.212299999999999
20
-25.9145000000000003
11
49.212299999999999
21
-34.0604999999999976
0
LINE
8
LYELLOW
6
CONTINUOUS
10
49.2522999999999982
20
-25.9175000000000004
11
49.2522999999999982
21
-34.0574999999999974
0
LINE
8
LYELLOW
6
CONTINUOUS
10
49.2922999999999973
20
-25.9194999999999993
11
49.2922999999999973
21
-34.055499999999995
0
LINE
8
LYELLOW
6
CONTINUOUS
10
49.3322999999999965
20
-25.9234999999999971
11
49.3322999999999965
21
-34.0514999999999972
0
LINE
8
LYELLOW
6
CONTINUOUS
10
49.3722999999999956
20
-25.9264999999999972
11
49.3722999999999956
21
-34.0484999999999971
0
LINE
8
LYELLOW
6
CONTINUOUS
10
49.4122999999999948
20
-25.9314999999999998
11
49.4122999999999948
21
-34.0435000000000016
0
LINE
8
LYELLOW
6
CONTINUOUS
10
49.452300000000001
20
-25.9354999999999976
11
49.452300000000001
21
-34.0394999999999968
0
LINE
8
LYELLOW
6
CONTINUOUS
10
49.4923000000000002
20
-25.9405000000000001
11
49.4923000000000002
21
-34.0345000000000013
0
LINE
8
LYELLOW
6
CONTINUOUS
10
49.5322999999999993
20
-25.9454999999999991
11
49.5322999999999993
21
-34.0294999999999987
0
LINE
8
LYELLOW
6
CONTINUOUS
10
49.5722999999999985
20
-25.9514999999999993
11
49.5722999999999985
21
-34.0234999999999985
0
LINE
8
LYELLOW
6
CONTINUOUS
10
49.6122999999999976
20
-25.9574999999999996
11
49.6122999999999976
21
-34.0174999999999983
0
LINE
8
LYELLOW
6
CONTINUOUS
10
49.6522999999999968
20
-25.9644999999999975
11
49.6522999999999968
21
-34.0105000000000004
0
LINE
8
LYELLOW
6
CONTINUOUS
10
49.6922999999999959
20
-25.9704999999999977
11
49.6922999999999959
21
-28.947499999999998
0
LINE
8
LYELLOW
6
CONTINUOUS
10
49.6922999999999959
20
-31.0274999999999999
11
49.6922999999999959
21
-34.0045000000000002
0
LINE
8
LYELLOW
6
CONTINUOUS
10
49.7322999999999951
20
-25.9785000000000004
11
49.7322999999999951
21
-28.947499999999998
0
LINE
8
LYELLOW
6
CONTINUOUS
10
49.7322999999999951
20
-31.0274999999999999
11
49.7322999999999951
21
-33.9964999999999975
0
LINE
8
LYELLOW
6
CONTINUOUS
10
49.7722999999999942
20
-25.9854999999999983
11
49.7722999999999942
21
-28.947499999999998
0
LINE
8
LYELLOW
6
CONTINUOUS
10
49.7722999999999942
20
-31.0274999999999999
11
49.7722999999999942
21
-33.9894999999999996
0
LINE
8
LYELLOW
6
CONTINUOUS
10
49.8123000000000005
20
-25.9944999999999986
11
49.8123000000000005
21
-28.947499999999998
0
LINE
8
LYELLOW
6
CONTINUOUS
10
49.8123000000000005
20
-31.0274999999999999
11
49.8123000000000005
21
-33.9804999999999993
0
LINE
8
LYELLOW
6
CONTINUOUS
10
49.8522999999999996
20
-26.0024999999999977
11
49.8522999999999996
21
-28.947499999999998
0
LINE
8
LYELLOW
6
CONTINUOUS
10
49.8522999999999996
20
-31.0274999999999999
11
49.8522999999999996
21
-33.9724999999999966
0
LINE
8
LYELLOW
6
CONTINUOUS
10
49.8922999999999988
20
-26.0114999999999981
11
49.8922999999999988
21
-28.947499999999998
0
LINE
8
LYELLOW
6
CONTINUOUS
10
49.8922999999999988
20
-31.0274999999999999
11
49.8922999999999988
21
-33.9634999999999962
0
LINE
8
LYELLOW
6
CONTINUOUS
10
49.9322999999999979
20
-26.0204999999999984
11
49.9322999999999979
21
-28.947499999999998
0
LINE
8
LYELLOW
6
CONTINUOUS
10
49.9322999999999979
20
-31.0274999999999999
11
49.9322999999999979
21
-33.9544999999999959
0
LINE
8
LYELLOW
6
CONTINUOUS
10
49.9722999999999971
20
-26.0305
11
49.9722999999999971
21
-28.947499999999998
0
LINE
8
LYELLOW
6
CONTINUOUS
10
49.9722999999999971
20
-31.0274999999999999
11
49.9722999999999971
21
-33.9444999999999979
0
LINE
8
LYELLOW
6
CONTINUOUS
10
50.0122999999999962
20
-26.040499999999998
11
50.0122999999999962
21
-28.947499999999998
0
LINE
8
LYELLOW
6
CONTINUOUS
10
50.0122999999999962
20
-31.0274999999999999
11
50.0122999999999962
21
-33.9344999999999999
0
LINE
8
LYELLOW
6
CONTINUOUS
10
50.0522999999999954
20
-26.0514999999999972
11
50.0522999999999954
21
-28.947499999999998
0
LINE
8
LYELLOW
6
CONTINUOUS
10
50.0522999999999954
20
-31.0274999999999999
11
50.0522999999999954
21
-33.9234999999999971
0
LINE
8
LYELLOW
6
CONTINUOUS
10
50.0922999999999945
20
-26.0625
11
50.0922999999999945
21
-28.947499999999998
0
LINE
8
LYELLOW
6
CONTINUOUS
10
50.0922999999999945
20
-31.0274999999999999
11
50.0922999999999945
21
-33.9125000000000014
0
LINE
8
LYELLOW
6
CONTINUOUS
10
50.1323000000000008
20
-26.0745000000000005
11
50.1323000000000008
21
-28.947499999999998
0
LINE
8
LYELLOW
6
CONTINUOUS
10
50.1323000000000008
20
-31.0274999999999999
11
50.1323000000000008
21
-33.900500000000001
0
LINE
8
LYELLOW
6
CONTINUOUS
10
50.1722999999999999
20
-26.0864999999999974
11
50.1722999999999999
21
-28.947499999999998
0
LINE
8
LYELLOW
6
CONTINUOUS
10
50.1722999999999999
20
-31.0274999999999999
11
50.1722999999999999
21
-33.8885000000000005
0
LINE
8
LYELLOW
6
CONTINUOUS
10
50.212299999999999
20
-26.0984999999999978
11
50.212299999999999
21
-28.947499999999998
0
LINE
8
LYELLOW
6
CONTINUOUS
10
50.212299999999999
20
-31.0274999999999999
11
50.212299999999999
21
-33.8765000000000001
0
LINE
8
LYELLOW
6
CONTINUOUS
10
50.2522999999999982
20
-26.1114999999999995
11
50.2522999999999982
21
-28.947499999999998
0
LINE
8
LYELLOW
6
CONTINUOUS
10
50.2522999999999982
20
-31.0274999999999999
11
50.2522999999999982
21
-33.8635000000000019
0
LINE
8
LYELLOW
6
CONTINUOUS
10
50.2922999999999973
20
-26.1244999999999976
11
50.2922999999999973
21
-28.947499999999998
0
LINE
8
LYELLOW
6
CONTINUOUS
10
50.2922999999999973
20
-31.0274999999999999
11
50.2922999999999973
21
-33.8504999999999967
0
LINE
8
LYELLOW
6
CONTINUOUS
10
50.3322999999999965
20
-26.1385000000000005
11
50.3322999999999965
21
-28.947499999999998
0
LINE
8
LYELLOW
6
CONTINUOUS
10
50.3322999999999965
20
-31.0274999999999999
11
50.3322999999999965
21
-33.8365000000000009
0
LINE
8
LYELLOW
6
CONTINUOUS
10
50.3722999999999956
20
-26.1524999999999999
11
50.3722999999999956
21
-28.947499999999998
0
LINE
8
LYELLOW
6
CONTINUOUS
10
50.3722999999999956
20
-31.0274999999999999
11
50.3722999999999956
21
-33.822499999999998
0
LINE
8
LYELLOW
6
CONTINUOUS
10
50.4122999999999948
20
-26.1675000000000004
11
50.4122999999999948
21
-28.947499999999998
0
LINE
8
LYELLOW
6
CONTINUOUS
10
50.4122999999999948
20
-31.0274999999999999
11
50.4122999999999948
21
-33.8074999999999974
0
LINE
8
LYELLOW
6
CONTINUOUS
10
50.452300000000001
20
-26.1824999999999974
11
50.452300000000001
21
-28.947499999999998
0
LINE
8
LYELLOW
6
CONTINUOUS
10
50.452300000000001
20
-31.0274999999999999
11
50.452300000000001
21
-33.7924999999999969
0
LINE
8
LYELLOW
6
CONTINUOUS
10
50.4923000000000002
20
-26.1984999999999992
11
50.4923000000000002
21
-28.947499999999998
0
LINE
8
LYELLOW
6
CONTINUOUS
10
50.4923000000000002
20
-31.0274999999999999
11
50.4923000000000002
21
-33.7764999999999986
0
LINE
8
LYELLOW
6
CONTINUOUS
10
50.5322999999999993
20
-26.2144999999999975
11
50.5322999999999993
21
-28.947499999999998
0
LINE
8
LYELLOW
6
CONTINUOUS
10
50.5322999999999993
20
-31.0274999999999999
11
50.5322999999999993
21
-33.7605000000000004
0
LINE
8
LYELLOW
6
CONTINUOUS
10
50.5722999999999985
20
-26.2304999999999993
11
50.5722999999999985
21
-28.947499999999998
0
LINE
8
LYELLOW
6
CONTINUOUS
10
50.5722999999999985
20
-31.0274999999999999
11
50.5722999999999985
21
-33.7444999999999951
0
LINE
8
LYELLOW
6
CONTINUOUS
10
50.6122999999999976
20
-26.2474999999999987
11
50.6122999999999976
21
-28.947499999999998
0
LINE
8
LYELLOW
6
CONTINUOUS
10
50.6122999999999976
20
-31.0274999999999999
11
50.6122999999999976
21
-33.7274999999999991
0
LINE
8
LYELLOW
6
CONTINUOUS
10
50.6522999999999968
20
-26.2654999999999994
11
50.6522999999999968
21
-28.947499999999998
0
LINE
8
LYELLOW
6
CONTINUOUS
10
50.6522999999999968
20
-31.0274999999999999
11
50.6522999999999968
21
-33.7094999999999985
0
LINE
8
LYELLOW
6
CONTINUOUS
10
50.6922999999999959
20
-26.2835000000000001
11
50.6922999999999959
21
-28.947499999999998
0
LINE
8
LYELLOW
6
CONTINUOUS
10
50.6922999999999959
20
-31.0274999999999999
11
50.6922999999999959
21
-33.6914999999999978
0
LINE
8
LYELLOW
6
CONTINUOUS
10
50.7322999999999951
20
-26.3024999999999984
11
50.7322999999999951
21
-28.947499999999998
0
LINE
8
LYELLOW
6
CONTINUOUS
10
50.7322999999999951
20
-31.0274999999999999
11
50.7322999999999951
21
-33.6724999999999994
0
LINE
8
LYELLOW
6
CONTINUOUS
10
50.7722999999999942
20
-26.3215000000000003
11
50.7722999999999942
21
-28.947499999999998
0
LINE
8
LYELLOW
6
CONTINUOUS
10
50.7722999999999942
20
-31.0274999999999999
11
50.7722999999999942
21
-33.6535000000000011
0
LINE
8
LYELLOW
6
CONTINUOUS
10
50.8123000000000005
20
-26.3414999999999999
11
50.8123000000000005
21
-28.947499999999998
0
LINE
8
LYELLOW
6
CONTINUOUS
10
50.8123000000000005
20
-31.0274999999999999
11
50.8123000000000005
21
-33.633499999999998
0
LINE
8
LYELLOW
6
CONTINUOUS
10
50.8522999999999996
20
-26.3614999999999995
11
50.8522999999999996
21
-28.947499999999998
0
LINE
8
LYELLOW
6
CONTINUOUS
10
50.8522999999999996
20
-31.0274999999999999
11
50.8522999999999996
21
-33.6135000000000019
0
LINE
8
LYELLOW
6
CONTINUOUS
10
50.8922999999999988
20
-26.3825000000000003
11
50.8922999999999988
21
-28.947499999999998
0
LINE
8
LYELLOW
6
CONTINUOUS
10
50.8922999999999988
20
-31.0274999999999999
11
50.8922999999999988
21
-33.5925000000000011
0
LINE
8
LYELLOW
6
CONTINUOUS
10
50.9322999999999979
20
-26.4034999999999975
11
50.9322999999999979
21
-28.947499999999998
0
LINE
8
LYELLOW
6
CONTINUOUS
10
50.9322999999999979
20
-31.0274999999999999
11
50.9322999999999979
21
-33.5715000000000003
0
LINE
8
LYELLOW
6
CONTINUOUS
10
50.9722999999999971
20
-26.4254999999999995
11
50.9722999999999971
21
-28.947499999999998
0
LINE
8
LYELLOW
6
CONTINUOUS
10
50.9722999999999971
20
-31.0274999999999999
11
50.9722999999999971
21
-33.5495000000000019
0
LINE
8
LYELLOW
6
CONTINUOUS
10
51.0122999999999962
20
-26.4484999999999992
11
51.0122999999999962
21
-28.947499999999998
0
LINE
8
LYELLOW
6
CONTINUOUS
10
51.0122999999999962
20
-31.0274999999999999
11
51.0122999999999962
21
-33.5264999999999986
0
LINE
8
LYELLOW
6
CONTINUOUS
10
51.0522999999999954
20
-26.4714999999999989
11
51.0522999999999954
21
-28.947499999999998
0
LINE
8
LYELLOW
6
CONTINUOUS
10
51.0522999999999954
20
-31.0274999999999999
11
51.0522999999999954
21
-33.5034999999999954
0
LINE
8
LYELLOW
6
CONTINUOUS
10
51.0922999999999945
20
-26.4944999999999986
11
51.0922999999999945
21
-28.947499999999998
0
LINE
8
LYELLOW
6
CONTINUOUS
10
51.0922999999999945
20
-31.0274999999999999
11
51.0922999999999945
21
-33.4804999999999993
0
LINE
8
LYELLOW
6
CONTINUOUS
10
51.1323000000000008
20
-26.5194999999999972
11
51.1323000000000008
21
-28.947499999999998
0
LINE
8
LYELLOW
6
CONTINUOUS
10
51.1323000000000008
20
-31.0274999999999999
11
51.1323000000000008
21
-33.4555000000000007
0
LINE
8
LYELLOW
6
CONTINUOUS
10
51.1722999999999999
20
-26.5444999999999993
11
51.1722999999999999
21
-28.947499999999998
0
LINE
8
LYELLOW
6
CONTINUOUS
10
51.1722999999999999
20
-31.0274999999999999
11
51.1722999999999999
21
-33.430499999999995
0
LINE
8
LYELLOW
6
CONTINUOUS
10
51.212299999999999
20
-26.5694999999999979
11
51.212299999999999
21
-28.947499999999998
0
LINE
8
LYELLOW
6
CONTINUOUS
10
51.212299999999999
20
-31.0274999999999999
11
51.212299999999999
21
-33.4054999999999964
0
LINE
8
LYELLOW
6
CONTINUOUS
10
51.2522999999999982
20
-26.5954999999999977
11
51.2522999999999982
21
-28.947499999999998
0
LINE
8
LYELLOW
6
CONTINUOUS
10
51.2522999999999982
20
-31.0274999999999999
11
51.2522999999999982
21
-33.3795000000000002
0
LINE
8
LYELLOW
6
CONTINUOUS
10
51.2922999999999973
20
-26.6224999999999987
11
51.2922999999999973
21
-28.947499999999998
0
LINE
8
LYELLOW
6
CONTINUOUS
10
51.2922999999999973
20
-31.0274999999999999
11
51.2922999999999973
21
-33.3524999999999991
0
LINE
8
LYELLOW
6
CONTINUOUS
10
51.3322999999999965
20
-26.6504999999999974
11
51.3322999999999965
21
-28.947499999999998
0
LINE
8
LYELLOW
6
CONTINUOUS
10
51.3322999999999965
20
-31.0274999999999999
11
51.3322999999999965
21
-33.3245000000000005
0
LINE
8
LYELLOW
6
CONTINUOUS
10
51.3722999999999956
20
-26.6784999999999997
11
51.3722999999999956
21
-28.947499999999998
0
LINE
8
LYELLOW
6
CONTINUOUS
10
51.3722999999999956
20
-31.0274999999999999
11
51.3722999999999956
21
-33.2965000000000018
0
LINE
8
LYELLOW
6
CONTINUOUS
10
51.4122999999999948
20
-26.7074999999999996
11
51.4122999999999948
21
-28.947499999999998
0
LINE
8
LYELLOW
6
CONTINUOUS
10
51.4122999999999948
20
-31.0274999999999999
11
51.4122999999999948
21
-33.2674999999999983
0
LINE
8
LYELLOW
6
CONTINUOUS
10
51.452300000000001
20
-26.7374999999999972
11
51.452300000000001
21
-28.947499999999998
0
LINE
8
LYELLOW
6
CONTINUOUS
10
51.452300000000001
20
-31.0274999999999999
11
51.452300000000001
21
-33.2374999999999972
0
LINE
8
LYELLOW
6
CONTINUOUS
10
51.4923000000000002
20
-26.7684999999999995
11
51.4923000000000002
21
-28.947499999999998
0
LINE
8
LYELLOW
6
CONTINUOUS
10
51.4923000000000002
20
-31.0274999999999999
11
51.4923000000000002
21
-33.2064999999999984
0
LINE
8
LYELLOW
6
CONTINUOUS
10
51.5322999999999993
20
-26.7994999999999983
11
51.5322999999999993
21
-28.947499999999998
0
LINE
8
LYELLOW
6
CONTINUOUS
10
51.5322999999999993
20
-31.0274999999999999
11
51.5322999999999993
21
-33.1754999999999995
0
LINE
8
LYELLOW
6
CONTINUOUS
10
51.5722999999999985
20
-26.8314999999999984
11
51.5722999999999985
21
-28.947499999999998
0
LINE
8
LYELLOW
6
CONTINUOUS
10
51.5722999999999985
20
-31.0274999999999999
11
51.5722999999999985
21
-33.143499999999996
0
LINE
8
LYELLOW
6
CONTINUOUS
10
51.6122999999999976
20
-26.8644999999999996
11
51.6122999999999976
21
-28.947499999999998
0
LINE
8
LYELLOW
6
CONTINUOUS
10
51.6122999999999976
20
-31.0274999999999999
11
51.6122999999999976
21
-33.1105000000000018
0
LINE
8
LYELLOW
6
CONTINUOUS
10
51.6522999999999968
20
-26.8984999999999985
11
51.6522999999999968
21
-28.947499999999998
0
LINE
8
LYELLOW
6
CONTINUOUS
10
51.6522999999999968
20
-31.0274999999999999
11
51.6522999999999968
21
-33.0764999999999958
0
LINE
8
LYELLOW
6
CONTINUOUS
10
51.6922999999999959
20
-26.9324999999999974
11
51.6922999999999959
21
-28.947499999999998
0
LINE
8
LYELLOW
6
CONTINUOUS
10
51.6922999999999959
20
-31.0274999999999999
11
51.6922999999999959
21
-33.0424999999999969
0
LINE
8
LYELLOW
6
CONTINUOUS
10
51.7322999999999951
20
-26.9684999999999988
11
51.7322999999999951
21
-28.947499999999998
0
LINE
8
LYELLOW
6
CONTINUOUS
10
51.7322999999999951
20
-31.0274999999999999
11
51.7322999999999951
21
-33.0064999999999955
0
LINE
8
LYELLOW
6
CONTINUOUS
10
51.7722999999999942
20
-27.0054999999999978
11
51.7722999999999942
21
-32.9694999999999965
0
LINE
8
LYELLOW
6
CONTINUOUS
10
51.8123000000000005
20
-27.0425000000000004
11
51.8123000000000005
21
-32.9324999999999974
0
LINE
8
LYELLOW
6
CONTINUOUS
10
51.8522999999999996
20
-27.0814999999999984
11
51.8522999999999996
21
-32.893499999999996
0
LINE
8
LYELLOW
6
CONTINUOUS
10
51.8922999999999988
20
-27.1204999999999998
11
51.8922999999999988
21
-32.8545000000000016
0
LINE
8
LYELLOW
6
CONTINUOUS
10
51.9322999999999979
20
-27.1615000000000002
11
51.9322999999999979
21
-32.8134999999999977
0
LINE
8
LYELLOW
6
CONTINUOUS
10
51.9722999999999971
20
-27.2034999999999982
11
51.9722999999999971
21
-32.7714999999999961
0
LINE
8
LYELLOW
6
CONTINUOUS
10
52.0122999999999962
20
-27.2464999999999975
11
52.0122999999999962
21
-32.7284999999999968
0
LINE
8
LYELLOW
6
CONTINUOUS
10
52.0522999999999954
20
-27.2914999999999992
11
52.0522999999999954
21
-32.6834999999999951
0
LINE
8
LYELLOW
6
CONTINUOUS
10
52.0922999999999945
20
-27.3364999999999974
11
52.0922999999999945
21
-32.6385000000000005
0
LINE
8
LYELLOW
6
CONTINUOUS
10
52.1323000000000008
20
-27.383499999999998
11
52.1323000000000008
21
-32.5914999999999964
0
LINE
8
LYELLOW
6
CONTINUOUS
10
52.1722999999999999
20
-27.4324999999999974
11
52.1722999999999999
21
-32.5424999999999969
0
LINE
8
LYELLOW
6
CONTINUOUS
10
52.212299999999999
20
-27.4824999999999982
11
52.212299999999999
21
-32.4924999999999997
0
LINE
8
LYELLOW
6
CONTINUOUS
10
52.2522999999999982
20
-27.5344999999999978
11
52.2522999999999982
21
-32.4405000000000001
0
LINE
8
LYELLOW
6
CONTINUOUS
10
52.2922999999999973
20
-27.5874999999999986
11
52.2922999999999973
21
-32.3874999999999957
0
LINE
8
LYELLOW
6
CONTINUOUS
10
52.3322999999999965
20
-27.6434999999999995
11
52.3322999999999965
21
-32.3314999999999984
0
LINE
8
LYELLOW
6
CONTINUOUS
10
52.3722999999999956
20
-27.7004999999999981
11
52.3722999999999956
21
-32.2744999999999962
0
LINE
8
LYELLOW
6
CONTINUOUS
10
52.4122999999999948
20
-27.7605000000000004
11
52.4122999999999948
21
-32.214500000000001
0
LINE
8
LYELLOW
6
CONTINUOUS
10
52.452300000000001
20
-27.822499999999998
11
52.452300000000001
21
-32.1524999999999963
0
LINE
8
LYELLOW
6
CONTINUOUS
10
52.4923000000000002
20
-27.8864999999999981
11
52.4923000000000002
21
-32.0884999999999962
0
LINE
8
LYELLOW
6
CONTINUOUS
10
52.5322999999999993
20
-27.9534999999999982
11
52.5322999999999993
21
-32.0214999999999961
0
LINE
8
LYELLOW
6
CONTINUOUS
10
52.5722999999999985
20
-28.0234999999999985
11
52.5722999999999985
21
-31.9514999999999993
0
LINE
8
LYELLOW
6
CONTINUOUS
10
52.6122999999999976
20
-28.0975000000000001
11
52.6122999999999976
21
-31.8774999999999977
0
LINE
8
LYELLOW
6
CONTINUOUS
10
52.6522999999999968
20
-28.1744999999999983
11
52.6522999999999968
21
-31.8004999999999995
0
LINE
8
LYELLOW
6
CONTINUOUS
10
52.6922999999999959
20
-28.2564999999999991
11
52.6922999999999959
21
-31.7184999999999988
0
LINE
8
LYELLOW
6
CONTINUOUS
10
52.7322999999999951
20
-28.3434999999999988
11
52.7322999999999951
21
-31.6314999999999991
0
LINE
8
LYELLOW
6
CONTINUOUS
10
52.7722999999999942
20
-28.4354999999999976
11
52.7722999999999942
21
-31.5395000000000003
0
LINE
8
LYELLOW
6
CONTINUOUS
10
52.8123000000000005
20
-28.5344999999999978
11
52.8123000000000005
21
-31.4405000000000001
0
LINE
8
LYELLOW
6
CONTINUOUS
10
52.8522999999999996
20
-28.6414999999999971
11
52.8522999999999996
21
-31.3334999999999972
0
LINE
8
LYELLOW
6
CONTINUOUS
10
52.8922999999999988
20
-28.7594999999999992
11
52.8922999999999988
21
-31.2154999999999987
0
LINE
8
LYELLOW
6
CONTINUOUS
10
52.9322999999999979
20
-28.8904999999999994
11
52.9322999999999979
21
-31.0844999999999985
0
LINE
8
LYELLOW
6
CONTINUOUS
10
52.9722999999999971
20
-29.040499999999998
11
52.9722999999999971
21
-30.9344999999999999
0
LINE
8
LYELLOW
6
CONTINUOUS
10
53.0122999999999962
20
-29.2195
11
53.0122999999999962
21
-30.7554999999999978
0
LINE
8
LYELLOW
6
CONTINUOUS
10
53.0522999999999954
20
-29.4544999999999995
11
53.0522999999999954
21
-30.5204999999999984
0
CIRCLE
8
LYELLOW
10
48.9722999999999971
20
-29.9874999999999972
40
4.1200000000000001
0
LINE
8
LYELLOW
6
CONTINUOUS
10
33.4949999999999974
20
-51.9924999999999997
11
33.4949999999999974
21
-49.3425000000000011
0
LINE
8
LYELLOW
6
CONTINUOUS
10
36.2549999999999955
20
-49.3425000000000011
11
33.4949999999999974
21
-49.3425000000000011
0
LINE
8
LYELLOW
6
CONTINUOUS
10
36.2549999999999955
20
-51.9924999999999997
11
33.4949999999999974
21
-51.9924999999999997
0
LINE
8
LYELLOW
6
CONTINUOUS
10
36.2549999999999955
20
-51.9924999999999997
11
36.2549999999999955
21
-49.3425000000000011
0
LINE
8
LYELLOW
6
CONTINUOUS
10
36.2549999999999955
20
-53.2624999999999957
11
36.2549999999999955
21
-54.6424999999999983
0
LINE
8
LYELLOW
6
CONTINUOUS
10
36.2549999999999955
20
-54.6424999999999983
11
34.875
21
-54.6424999999999983
0
LINE
8
LYELLOW
6
CONTINUOUS
10
60.625
20
-48.1174999999999997
11
60.625
21
-55.8574999999999946
0
LINE
8
LYELLOW
6
CONTINUOUS
10
60.625
20
-55.8574999999999946
11
65.125
21
-55.8574999999999946
0
LINE
8
LYELLOW
6
CONTINUOUS
10
61.875
20
-48.1174999999999997
11
60.625
21
-48.1174999999999997
0
LINE
8
LYELLOW
6
CONTINUOUS
10
65.125
20
-48.1174999999999997
11
63.875
21
-48.1174999999999997
0
LINE
8
LYELLOW
6
CONTINUOUS
10
65.125
20
-55.8574999999999946
11
65.125
21
-48.1174999999999997
0
ARC
8
LYELLOW
10
62.875
20
-48.1174999999999997
40
1.
50
-180.00000000
51
-0.00000000
0
LINE
8
LYELLOW
6
CONTINUOUS
10
44.5626019999999983
20
-71.6724999999999994
11
45.3626019999999954
21
-71.6724999999999994
0
LINE
8
LYELLOW
6
CONTINUOUS
10
44.9626019999999968
20
-71.2724999999999937
11
44.9626019999999968
21
-72.0724999999999909
0
LINE
8
LYELLOW
6
CONTINUOUS
10
48.9722999999999971
20
-69.9074999999999989
11
48.9722999999999971
21
-78.0674999999999955
0
LINE
8
LYELLOW
6
CONTINUOUS
10
49.0122999999999962
20
-69.9074999999999989
11
49.0122999999999962
21
-78.0674999999999955
0
LINE
8
LYELLOW
6
CONTINUOUS
10
49.0522999999999954
20
-69.9085000000000036
11
49.0522999999999954
21
-78.0664999999999907
0
LINE
8
LYELLOW
6
CONTINUOUS
10
49.0922999999999945
20
-69.9094999999999942
11
49.0922999999999945
21
-78.0655000000000001
0
LINE
8
LYELLOW
6
CONTINUOUS
10
49.1323000000000008
20
-69.910499999999999
11
49.1323000000000008
21
-78.0644999999999953
0
LINE
8
LYELLOW
6
CONTINUOUS
10
49.1722999999999999
20
-69.9124999999999943
11
49.1722999999999999
21
-78.0625
0
LINE
8
LYELLOW
6
CONTINUOUS
10
49.212299999999999
20
-69.9145000000000039
11
49.212299999999999
21
-78.0604999999999905
0
LINE
8
LYELLOW
6
CONTINUOUS
10
49.2522999999999982
20
-69.9174999999999898
11
49.2522999999999982
21
-78.0574999999999903
0
LINE
8
LYELLOW
6
CONTINUOUS
10
49.2922999999999973
20
-69.9194999999999993
11
49.2922999999999973
21
-78.055499999999995
0
LINE
8
LYELLOW
6
CONTINUOUS
10
49.3322999999999965
20
-69.92349999999999
11
49.3322999999999965
21
-78.0514999999999901
0
LINE
8
LYELLOW
6
CONTINUOUS
10
49.3722999999999956
20
-69.9264999999999901
11
49.3722999999999956
21
-78.04849999999999
0
LINE
8
LYELLOW
6
CONTINUOUS
10
49.4122999999999948
20
-69.9314999999999998
11
49.4122999999999948
21
-78.0434999999999945
0
LINE
8
LYELLOW
6
CONTINUOUS
10
49.452300000000001
20
-69.9354999999999905
11
49.452300000000001
21
-78.0394999999999897
0
LINE
8
LYELLOW
6
CONTINUOUS
10
49.4923000000000002
20
-69.9405000000000001
11
49.4923000000000002
21
-78.0344999999999942
0
LINE
8
LYELLOW
6
CONTINUOUS
10
49.5322999999999993
20
-69.9454999999999956
11
49.5322999999999993
21
-78.0294999999999987
0
LINE
8
LYELLOW
6
CONTINUOUS
10
49.5722999999999985
20
-69.9514999999999958
11
49.5722999999999985
21
-78.0234999999999985
0
LINE
8
LYELLOW
6
CONTINUOUS
10
49.6122999999999976
20
-69.957499999999996
11
49.6122999999999976
21
-78.0174999999999983
0
LINE
8
LYELLOW
6
CONTINUOUS
10
49.6522999999999968
20
-69.964500000000001
11
49.6522999999999968
21
-78.0104999999999933
0
LINE
8
LYELLOW
6
CONTINUOUS
10
49.6922999999999959
20
-69.9705000000000013
11
49.6922999999999959
21
-72.9474999999999909
0
LINE
8
LYELLOW
6
CONTINUOUS
10
49.6922999999999959
20
-75.0275000000000034
11
49.6922999999999959
21
-78.0044999999999931
0
LINE
8
LYELLOW
6
CONTINUOUS
10
49.7322999999999951
20
-69.9784999999999968
11
49.7322999999999951
21
-72.9474999999999909
0
LINE
8
LYELLOW
6
CONTINUOUS
10
49.7322999999999951
20
-75.0275000000000034
11
49.7322999999999951
21
-77.9964999999999975
0
LINE
8
LYELLOW
6
CONTINUOUS
10
49.7722999999999942
20
-69.9855000000000018
11
49.7722999999999942
21
-72.9474999999999909
0
LINE
8
LYELLOW
6
CONTINUOUS
10
49.7722999999999942
20
-75.0275000000000034
11
49.7722999999999942
21
-77.9894999999999925
0
LINE
8
LYELLOW
6
CONTINUOUS
10
49.8123000000000005
20
-69.9945000000000022
11
49.8123000000000005
21
-72.9474999999999909
0
LINE
8
LYELLOW
6
CONTINUOUS
10
49.8123000000000005
20
-75.0275000000000034
11
49.8123000000000005
21
-77.9804999999999922
0
LINE
8
LYELLOW
6
CONTINUOUS
10
49.8522999999999996
20
-70.0024999999999977
11
49.8522999999999996
21
-72.9474999999999909
0
LINE
8
LYELLOW
6
CONTINUOUS
10
49.8522999999999996
20
-75.0275000000000034
11
49.8522999999999996
21
-77.9724999999999966
0
LINE
8
LYELLOW
6
CONTINUOUS
10
49.8922999999999988
20
-70.0114999999999981
11
49.8922999999999988
21
-72.9474999999999909
0
LINE
8
LYELLOW
6
CONTINUOUS
10
49.8922999999999988
20
-75.0275000000000034
11
49.8922999999999988
21
-77.9634999999999962
0
LINE
8
LYELLOW
6
CONTINUOUS
10
49.9322999999999979
20
-70.0204999999999984
11
49.9322999999999979
21
-72.9474999999999909
0
LINE
8
LYELLOW
6
CONTINUOUS
10
49.9322999999999979
20
-75.0275000000000034
11
49.9322999999999979
21
-77.9544999999999959
0
LINE
8
LYELLOW
6
CONTINUOUS
10
49.9722999999999971
20
-70.0305000000000035
11
49.9722999999999971
21
-72.9474999999999909
0
LINE
8
LYELLOW
6
CONTINUOUS
10
49.9722999999999971
20
-75.0275000000000034
11
49.9722999999999971
21
-77.9444999999999908
0
LINE
8
LYELLOW
6
CONTINUOUS
10
50.0122999999999962
20
-70.0404999999999944
11
50.0122999999999962
21
-72.9474999999999909
0
LINE
8
LYELLOW
6
CONTINUOUS
10
50.0122999999999962
20
-75.0275000000000034
11
50.0122999999999962
21
-77.9344999999999999
0
LINE
8
LYELLOW
6
CONTINUOUS
10
50.0522999999999954
20
-70.0514999999999901
11
50.0522999999999954
21
-72.9474999999999909
0
LINE
8
LYELLOW
6
CONTINUOUS
10
50.0522999999999954
20
-75.0275000000000034
11
50.0522999999999954
21
-77.92349999999999
0
LINE
8
LYELLOW
6
CONTINUOUS
10
50.0922999999999945
20
-70.0625
11
50.0922999999999945
21
-72.9474999999999909
0
LINE
8
LYELLOW
6
CONTINUOUS
10
50.0922999999999945
20
-75.0275000000000034
11
50.0922999999999945
21
-77.9124999999999943
0
LINE
8
LYELLOW
6
CONTINUOUS
10
50.1323000000000008
20
-70.0745000000000005
11
50.1323000000000008
21
-72.9474999999999909
0
LINE
8
LYELLOW
6
CONTINUOUS
10
50.1323000000000008
20
-75.0275000000000034
11
50.1323000000000008
21
-77.9004999999999939
0
LINE
8
LYELLOW
6
CONTINUOUS
10
50.1722999999999999
20
-70.0865000000000009
11
50.1722999999999999
21
-72.9474999999999909
0
LINE
8
LYELLOW
6
CONTINUOUS
10
50.1722999999999999
20
-75.0275000000000034
11
50.1722999999999999
21
-77.8884999999999934
0
LINE
8
LYELLOW
6
CONTINUOUS
10
50.212299999999999
20
-70.0985000000000014
11
50.212299999999999
21
-72.9474999999999909
0
LINE
8
LYELLOW
6
CONTINUOUS
10
50.212299999999999
20
-75.0275000000000034
11
50.212299999999999
21
-77.876499999999993
0
LINE
8
LYELLOW
6
CONTINUOUS
10
50.2522999999999982
20
-70.1114999999999924
11
50.2522999999999982
21
-72.9474999999999909
0
LINE
8
LYELLOW
6
CONTINUOUS
10
50.2522999999999982
20
-75.0275000000000034
11
50.2522999999999982
21
-77.8635000000000019
0
LINE
8
LYELLOW
6
CONTINUOUS
10
50.2922999999999973
20
-70.1244999999999976
11
50.2922999999999973
21
-72.9474999999999909
0
LINE
8
LYELLOW
6
CONTINUOUS
10
50.2922999999999973
20
-75.0275000000000034
11
50.2922999999999973
21
-77.8504999999999967
0
LINE
8
LYELLOW
6
CONTINUOUS
10
50.3322999999999965
20
-70.1384999999999934
11
50.3322999999999965
21
-72.9474999999999909
0
LINE
8
LYELLOW
6
CONTINUOUS
10
50.3322999999999965
20
-75.0275000000000034
11
50.3322999999999965
21
-77.8365000000000009
0
LINE
8
LYELLOW
6
CONTINUOUS
10
50.3722999999999956
20
-70.1525000000000034
11
50.3722999999999956
21
-72.9474999999999909
0
LINE
8
LYELLOW
6
CONTINUOUS
10
50.3722999999999956
20
-75.0275000000000034
11
50.3722999999999956
21
-77.8224999999999909
0
LINE
8
LYELLOW
6
CONTINUOUS
10
50.4122999999999948
20
-70.1674999999999898
11
50.4122999999999948
21
-72.9474999999999909
0
LINE
8
LYELLOW
6
CONTINUOUS
10
50.4122999999999948
20
-75.0275000000000034
11
50.4122999999999948
21
-77.8074999999999903
0
LINE
8
LYELLOW
6
CONTINUOUS
10
50.452300000000001
20
-70.1824999999999903
11
50.452300000000001
21
-72.9474999999999909
0
LINE
8
LYELLOW
6
CONTINUOUS
10
50.452300000000001
20
-75.0275000000000034
11
50.452300000000001
21
-77.7924999999999898
0
LINE
8
LYELLOW
6
CONTINUOUS
10
50.4923000000000002
20
-70.1984999999999957
11
50.4923000000000002
21
-72.9474999999999909
0
LINE
8
LYELLOW
6
CONTINUOUS
10
50.4923000000000002
20
-75.0275000000000034
11
50.4923000000000002
21
-77.7764999999999986
0
LINE
8
LYELLOW
6
CONTINUOUS
10
50.5322999999999993
20
-70.214500000000001
11
50.5322999999999993
21
-72.9474999999999909
0
LINE
8
LYELLOW
6
CONTINUOUS
10
50.5322999999999993
20
-75.0275000000000034
11
50.5322999999999993
21
-77.7604999999999933
0
LINE
8
LYELLOW
6
CONTINUOUS
10
50.5722999999999985
20
-70.2304999999999922
11
50.5722999999999985
21
-72.9474999999999909
0
LINE
8
LYELLOW
6
CONTINUOUS
10
50.5722999999999985
20
-75.0275000000000034
11
50.5722999999999985
21
-77.7445000000000022
0
LINE
8
LYELLOW
6
CONTINUOUS
10
50.6122999999999976
20
-70.2475000000000023
11
50.6122999999999976
21
-72.9474999999999909
0
LINE
8
LYELLOW
6
CONTINUOUS
10
50.6122999999999976
20
-75.0275000000000034
11
50.6122999999999976
21
-77.727499999999992
0
LINE
8
LYELLOW
6
CONTINUOUS
10
50.6522999999999968
20
-70.265500000000003
11
50.6522999999999968
21
-72.9474999999999909
0
LINE
8
LYELLOW
6
CONTINUOUS
10
50.6522999999999968
20
-75.0275000000000034
11
50.6522999999999968
21
-77.7094999999999914
0
LINE
8
LYELLOW
6
CONTINUOUS
10
50.6922999999999959
20
-70.2835000000000036
11
50.6922999999999959
21
-72.9474999999999909
0
LINE
8
LYELLOW
6
CONTINUOUS
10
50.6922999999999959
20
-75.0275000000000034
11
50.6922999999999959
21
-77.6914999999999907
0
LINE
8
LYELLOW
6
CONTINUOUS
10
50.7322999999999951
20
-70.3024999999999949
11
50.7322999999999951
21
-72.9474999999999909
0
LINE
8
LYELLOW
6
CONTINUOUS
10
50.7322999999999951
20
-75.0275000000000034
11
50.7322999999999951
21
-77.6724999999999994
0
LINE
8
LYELLOW
6
CONTINUOUS
10
50.7722999999999942
20
-70.3215000000000003
11
50.7722999999999942
21
-72.9474999999999909
0
LINE
8
LYELLOW
6
CONTINUOUS
10
50.7722999999999942
20
-75.0275000000000034
11
50.7722999999999942
21
-77.653499999999994
0
LINE
8
LYELLOW
6
CONTINUOUS
10
50.8123000000000005
20
-70.3414999999999964
11
50.8123000000000005
21
-72.9474999999999909
0
LINE
8
LYELLOW
6
CONTINUOUS
10
50.8123000000000005
20
-75.0275000000000034
11
50.8123000000000005
21
-77.633499999999998
0
LINE
8
LYELLOW
6
CONTINUOUS
10
50.8522999999999996
20
-70.3614999999999924
11
50.8522999999999996
21
-72.9474999999999909
0
LINE
8
LYELLOW
6
CONTINUOUS
10
50.8522999999999996
20
-75.0275000000000034
11
50.8522999999999996
21
-77.6135000000000019
0
LINE
8
LYELLOW
6
CONTINUOUS
10
50.8922999999999988
20
-70.3824999999999932
11
50.8922999999999988
21
-72.9474999999999909
0
LINE
8
LYELLOW
6
CONTINUOUS
10
50.8922999999999988
20
-75.0275000000000034
11
50.8922999999999988
21
-77.5925000000000011
0
LINE
8
LYELLOW
6
CONTINUOUS
10
50.9322999999999979
20
-70.403499999999994
11
50.9322999999999979
21
-72.9474999999999909
0
LINE
8
LYELLOW
6
CONTINUOUS
10
50.9322999999999979
20
-75.0275000000000034
11
50.9322999999999979
21
-77.5715000000000003
0
LINE
8
LYELLOW
6
CONTINUOUS
10
50.9722999999999971
20
-70.4254999999999995
11
50.9722999999999971
21
-72.9474999999999909
0
LINE
8
LYELLOW
6
CONTINUOUS
10
50.9722999999999971
20
-75.0275000000000034
11
50.9722999999999971
21
-77.5494999999999948
0
LINE
8
LYELLOW
6
CONTINUOUS
10
51.0122999999999962
20
-70.4484999999999957
11
51.0122999999999962
21
-72.9474999999999909
0
LINE
8
LYELLOW
6
CONTINUOUS
10
51.0122999999999962
20
-75.0275000000000034
11
51.0122999999999962
21
-77.5264999999999986
0
LINE
8
LYELLOW
6
CONTINUOUS
10
51.0522999999999954
20
-70.4714999999999918
11
51.0522999999999954
21
-72.9474999999999909
0
LINE
8
LYELLOW
6
CONTINUOUS
10
51.0522999999999954
20
-75.0275000000000034
11
51.0522999999999954
21
-77.5035000000000025
0
LINE
8
LYELLOW
6
CONTINUOUS
10
51.0922999999999945
20
-70.4945000000000022
11
51.0922999999999945
21
-72.9474999999999909
0
LINE
8
LYELLOW
6
CONTINUOUS
10
51.0922999999999945
20
-75.0275000000000034
11
51.0922999999999945
21
-77.4804999999999922
0
LINE
8
LYELLOW
6
CONTINUOUS
10
51.1323000000000008
20
-70.5194999999999936
11
51.1323000000000008
21
-72.9474999999999909
0
LINE
8
LYELLOW
6
CONTINUOUS
10
51.1323000000000008
20
-75.0275000000000034
11
51.1323000000000008
21
-77.4555000000000007
0
LINE
8
LYELLOW
6
CONTINUOUS
10
51.1722999999999999
20
-70.5444999999999993
11
51.1722999999999999
21
-72.9474999999999909
0
LINE
8
LYELLOW
6
CONTINUOUS
10
51.1722999999999999
20
-75.0275000000000034
11
51.1722999999999999
21
-77.430499999999995
0
LINE
8
LYELLOW
6
CONTINUOUS
10
51.212299999999999
20
-70.5694999999999908
11
51.212299999999999
21
-72.9474999999999909
0
LINE
8
LYELLOW
6
CONTINUOUS
10
51.212299999999999
20
-75.0275000000000034
11
51.212299999999999
21
-77.4055000000000035
0
LINE
8
LYELLOW
6
CONTINUOUS
10
51.2522999999999982
20
-70.5955000000000013
11
51.2522999999999982
21
-72.9474999999999909
0
LINE
8
LYELLOW
6
CONTINUOUS
10
51.2522999999999982
20
-75.0275000000000034
11
51.2522999999999982
21
-77.3794999999999931
0
LINE
8
LYELLOW
6
CONTINUOUS
10
51.2922999999999973
20
-70.6225000000000023
11
51.2922999999999973
21
-72.9474999999999909
0
LINE
8
LYELLOW
6
CONTINUOUS
10
51.2922999999999973
20
-75.0275000000000034
11
51.2922999999999973
21
-77.352499999999992
0
LINE
8
LYELLOW
6
CONTINUOUS
10
51.3322999999999965
20
-70.6504999999999939
11
51.3322999999999965
21
-72.9474999999999909
0
LINE
8
LYELLOW
6
CONTINUOUS
10
51.3322999999999965
20
-75.0275000000000034
11
51.3322999999999965
21
-77.3245000000000005
0
LINE
8
LYELLOW
6
CONTINUOUS
10
51.3722999999999956
20
-70.6784999999999997
11
51.3722999999999956
21
-72.9474999999999909
0
LINE
8
LYELLOW
6
CONTINUOUS
10
51.3722999999999956
20
-75.0275000000000034
11
51.3722999999999956
21
-77.2964999999999947
0
LINE
8
LYELLOW
6
CONTINUOUS
10
51.4122999999999948
20
-70.707499999999996
11
51.4122999999999948
21
-72.9474999999999909
0
LINE
8
LYELLOW
6
CONTINUOUS
10
51.4122999999999948
20
-75.0275000000000034
11
51.4122999999999948
21
-77.2674999999999983
0
LINE
8
LYELLOW
6
CONTINUOUS
10
51.452300000000001
20
-70.7374999999999972
11
51.452300000000001
21
-72.9474999999999909
0
LINE
8
LYELLOW
6
CONTINUOUS
10
51.452300000000001
20
-75.0275000000000034
11
51.452300000000001
21
-77.2374999999999972
0
LINE
8
LYELLOW
6
CONTINUOUS
10
51.4923000000000002
20
-70.7685000000000031
11
51.4923000000000002
21
-72.9474999999999909
0
LINE
8
LYELLOW
6
CONTINUOUS
10
51.4923000000000002
20
-75.0275000000000034
11
51.4923000000000002
21
-77.2064999999999912
0
LINE
8
LYELLOW
6
CONTINUOUS
10
51.5322999999999993
20
-70.7994999999999948
11
51.5322999999999993
21
-72.9474999999999909
0
LINE
8
LYELLOW
6
CONTINUOUS
10
51.5322999999999993
20
-75.0275000000000034
11
51.5322999999999993
21
-77.1754999999999995
0
LINE
8
LYELLOW
6
CONTINUOUS
10
51.5722999999999985
20
-70.8314999999999912
11
51.5722999999999985
21
-72.9474999999999909
0
LINE
8
LYELLOW
6
CONTINUOUS
10
51.5722999999999985
20
-75.0275000000000034
11
51.5722999999999985
21
-77.1435000000000031
0
LINE
8
LYELLOW
6
CONTINUOUS
10
51.6122999999999976
20
-70.8644999999999925
11
51.6122999999999976
21
-72.9474999999999909
0
LINE
8
LYELLOW
6
CONTINUOUS
10
51.6122999999999976
20
-75.0275000000000034
11
51.6122999999999976
21
-77.1105000000000018
0
LINE
8
LYELLOW
6
CONTINUOUS
10
51.6522999999999968
20
-70.8984999999999985
11
51.6522999999999968
21
-72.9474999999999909
0
LINE
8
LYELLOW
6
CONTINUOUS
10
51.6522999999999968
20
-75.0275000000000034
11
51.6522999999999968
21
-77.0764999999999958
0
LINE
8
LYELLOW
6
CONTINUOUS
10
51.6922999999999959
20
-70.9324999999999903
11
51.6922999999999959
21
-72.9474999999999909
0
LINE
8
LYELLOW
6
CONTINUOUS
10
51.6922999999999959
20
-75.0275000000000034
11
51.6922999999999959
21
-77.0424999999999898
0
LINE
8
LYELLOW
6
CONTINUOUS
10
51.7322999999999951
20
-70.9684999999999917
11
51.7322999999999951
21
-72.9474999999999909
0
LINE
8
LYELLOW
6
CONTINUOUS
10
51.7322999999999951
20
-75.0275000000000034
11
51.7322999999999951
21
-77.0065000000000026
0
LINE
8
LYELLOW
6
CONTINUOUS
10
51.7722999999999942
20
-71.0054999999999978
11
51.7722999999999942
21
-76.9694999999999965
0
LINE
8
LYELLOW
6
CONTINUOUS
10
51.8123000000000005
20
-71.0424999999999898
11
51.8123000000000005
21
-76.9324999999999903
0
LINE
8
LYELLOW
6
CONTINUOUS
10
51.8522999999999996
20
-71.0814999999999912
11
51.8522999999999996
21
-76.8935000000000031
0
LINE
8
LYELLOW
6
CONTINUOUS
10
51.8922999999999988
20
-71.1204999999999927
11
51.8922999999999988
21
-76.8545000000000016
0
LINE
8
LYELLOW
6
CONTINUOUS
10
51.9322999999999979
20
-71.1615000000000038
11
51.9322999999999979
21
-76.8134999999999906
0
LINE
8
LYELLOW
6
CONTINUOUS
10
51.9722999999999971
20
-71.2034999999999911
11
51.9722999999999971
21
-76.7715000000000032
0
LINE
8
LYELLOW
6
CONTINUOUS
10
52.0122999999999962
20
-71.2464999999999975
11
52.0122999999999962
21
-76.7284999999999968
0
LINE
8
LYELLOW
6
CONTINUOUS
10
52.0522999999999954
20
-71.2914999999999992
11
52.0522999999999954
21
-76.6834999999999951
0
LINE
8
LYELLOW
6
CONTINUOUS
10
52.0922999999999945
20
-71.3365000000000009
11
52.0922999999999945
21
-76.6384999999999934
0
LINE
8
LYELLOW
6
CONTINUOUS
10
52.1323000000000008
20
-71.383499999999998
11
52.1323000000000008
21
-76.5914999999999964
0
LINE
8
LYELLOW
6
CONTINUOUS
10
52.1722999999999999
20
-71.4324999999999903
11
52.1722999999999999
21
-76.5424999999999898
0
LINE
8
LYELLOW
6
CONTINUOUS
10
52.212299999999999
20
-71.4825000000000017
11
52.212299999999999
21
-76.4924999999999926
0
LINE
8
LYELLOW
6
CONTINUOUS
10
52.2522999999999982
20
-71.5344999999999942
11
52.2522999999999982
21
-76.4405000000000001
0
LINE
8
LYELLOW
6
CONTINUOUS
10
52.2922999999999973
20
-71.5874999999999915
11
52.2922999999999973
21
-76.3875000000000028
0
LINE
8
LYELLOW
6
CONTINUOUS
10
52.3322999999999965
20
-71.6435000000000031
11
52.3322999999999965
21
-76.3314999999999912
0
LINE
8
LYELLOW
6
CONTINUOUS
10
52.3722999999999956
20
-71.700499999999991
11
52.3722999999999956
21
-76.2745000000000033
0
LINE
8
LYELLOW
6
CONTINUOUS
10
52.4122999999999948
20
-71.7604999999999933
11
52.4122999999999948
21
-76.214500000000001
0
LINE
8
LYELLOW
6
CONTINUOUS
10
52.452300000000001
20
-71.8224999999999909
11
52.452300000000001
21
-76.1525000000000034
0
LINE
8
LYELLOW
6
CONTINUOUS
10
52.4923000000000002
20
-71.8864999999999981
11
52.4923000000000002
21
-76.0884999999999962
0
LINE
8
LYELLOW
6
CONTINUOUS
10
52.5322999999999993
20
-71.9534999999999911
11
52.5322999999999993
21
-76.0215000000000032
0
LINE
8
LYELLOW
6
CONTINUOUS
10
52.5722999999999985
20
-72.0234999999999985
11
52.5722999999999985
21
-75.9514999999999958
0
LINE
8
LYELLOW
6
CONTINUOUS
10
52.6122999999999976
20
-72.0974999999999966
11
52.6122999999999976
21
-75.8774999999999977
0
LINE
8
LYELLOW
6
CONTINUOUS
10
52.6522999999999968
20
-72.1744999999999948
11
52.6522999999999968
21
-75.8004999999999995
0
LINE
8
LYELLOW
6
CONTINUOUS
10
52.6922999999999959
20
-72.2565000000000026
11
52.6922999999999959
21
-75.7184999999999917
0
LINE
8
LYELLOW
6
CONTINUOUS
10
52.7322999999999951
20
-72.3434999999999917
11
52.7322999999999951
21
-75.6315000000000026
0
LINE
8
LYELLOW
6
CONTINUOUS
10
52.7722999999999942
20
-72.4354999999999905
11
52.7722999999999942
21
-75.5394999999999897
0
LINE
8
LYELLOW
6
CONTINUOUS
10
52.8123000000000005
20
-72.5344999999999942
11
52.8123000000000005
21
-75.4405000000000001
0
LINE
8
LYELLOW
6
CONTINUOUS
10
52.8522999999999996
20
-72.6414999999999935
11
52.8522999999999996
21
-75.3335000000000008
0
LINE
8
LYELLOW
6
CONTINUOUS
10
52.8922999999999988
20
-72.7595000000000027
11
52.8922999999999988
21
-75.2154999999999916
0
LINE
8
LYELLOW
6
CONTINUOUS
10
52.9322999999999979
20
-72.890500000000003
11
52.9322999999999979
21
-75.0844999999999914
0
LINE
8
LYELLOW
6
CONTINUOUS
10
52.9722999999999971
20
-73.0404999999999944
11
52.9722999999999971
21
-74.9344999999999999
0
LINE
8
LYELLOW
6
CONTINUOUS
10
53.0122999999999962
20
-73.2194999999999965
11
53.0122999999999962
21
-74.7554999999999978
0
LINE
8
LYELLOW
6
CONTINUOUS
10
53.0522999999999954
20
-73.4544999999999959
11
53.0522999999999954
21
-74.5204999999999984
0
CIRCLE
8
LYELLOW
10
48.9722999999999971
20
-73.9874999999999972
40
4.1200000000000001
0
LINE
8
LYELLOW
6
CONTINUOUS
10
59.7650000000000006
20
-27.6774999999999984
11
69.9849999999999994
21
-27.6774999999999984
0
LINE
8
LYELLOW
6
CONTINUOUS
10
59.7650000000000006
20
-29.0574999999999974
11
69.9849999999999994
21
-29.0574999999999974
0
LINE
8
LYELLOW
6
CONTINUOUS
10
59.7650000000000006
20
-32.2974999999999994
11
59.7650000000000006
21
-27.6774999999999984
0
LINE
8
LYELLOW
6
CONTINUOUS
10
63.0249999999999986
20
-27.6774999999999984
11
63.0249999999999986
21
-29.0574999999999974
0
LINE
8
LYELLOW
6
CONTINUOUS
10
66.7249999999999943
20
-27.6774999999999984
11
66.7249999999999943
21
-29.0574999999999974
0
LINE
8
LYELLOW
6
CONTINUOUS
10
69.9849999999999994
20
-27.6774999999999984
11
69.9849999999999994
21
-32.2974999999999994
0
LINE
8
LYELLOW
6
CONTINUOUS
10
69.9849999999999994
20
-32.2974999999999994
11
59.7650000000000006
21
-32.2974999999999994
0
LINE
8
LYELLOW
6
CONTINUOUS
10
47.5049999999999955
20
-47.7175000000000011
11
47.8350000000000009
21
-47.7175000000000011
0
LINE
8
LYELLOW
6
CONTINUOUS
10
47.5049999999999955
20
-54.2575000000000003
11
47.5049999999999955
21
-47.7175000000000011
0
LINE
8
LYELLOW
6
CONTINUOUS
10
47.8350000000000009
20
-54.2575000000000003
11
47.5049999999999955
21
-54.2575000000000003
0
LINE
8
LYELLOW
6
CONTINUOUS
10
49.9149999999999991
20
-54.2575000000000003
11
50.2449999999999974
21
-54.2575000000000003
0
LINE
8
LYELLOW
6
CONTINUOUS
10
50.2449999999999974
20
-47.7175000000000011
11
49.9149999999999991
21
-47.7175000000000011
0
LINE
8
LYELLOW
6
CONTINUOUS
10
50.2449999999999974
20
-54.2575000000000003
11
50.2449999999999974
21
-47.7175000000000011
0
LINE
8
LYELLOW
6
CONTINUOUS
10
91.7950000000000017
20
-96.1774999999999949
11
91.7950000000000017
21
-103.7974999999999994
0
LINE
8
LYELLOW
6
CONTINUOUS
10
91.7950000000000017
20
-97.4474999999999909
11
101.9549999999999983
21
-97.4474999999999909
0
LINE
8
LYELLOW
6
CONTINUOUS
10
91.7950000000000017
20
-103.7974999999999994
11
101.9549999999999983
21
-103.7974999999999994
0
LINE
8
LYELLOW
6
CONTINUOUS
10
101.9549999999999983
20
-96.1774999999999949
11
91.7950000000000017
21
-96.1774999999999949
0
LINE
8
LYELLOW
6
CONTINUOUS
10
101.9549999999999983
20
-103.7974999999999994
11
101.9549999999999983
21
-96.1774999999999949
0
LINE
8
LYELLOW
6
CONTINUOUS
10
101.5049999999999955
20
-70.7175000000000011
11
101.8349999999999937
21
-70.7175000000000011
0
LINE
8
LYELLOW
6
CONTINUOUS
10
101.5049999999999955
20
-77.2574999999999932
11
101.5049999999999955
21
-70.7175000000000011
0
LINE
8
LYELLOW
6
CONTINUOUS
10
101.8349999999999937
20
-77.2574999999999932
11
101.5049999999999955
21
-77.2574999999999932
0
LINE
8
LYELLOW
6
CONTINUOUS
10
103.914999999999992
20
-77.2574999999999932
11
104.2449999999999903
21
-77.2574999999999932
0
LINE
8
LYELLOW
6
CONTINUOUS
10
104.2449999999999903
20
-70.7175000000000011
11
103.914999999999992
21
-70.7175000000000011
0
LINE
8
LYELLOW
6
CONTINUOUS
10
104.2449999999999903
20
-77.2574999999999932
11
104.2449999999999903
21
-70.7175000000000011
0
LINE
8
WHITE
6
CONTINUOUS
10
20.
20
-20.
11
124.
21
-20.
0
LINE
8
WHITE
6
CONTINUOUS
10
124.
20
-20.
11
124.
21
-124.
0
LINE
8
WHITE
6
CONTINUOUS
10
124.
20
-124.
11
20.
21
-124.
0
LINE
8
WHITE
6
CONTINUOUS
10
20.
20
-124.
11
20.
21
-20.
  0
ENDSEC
  0
EOF
