M48
; DRILL file {KiCad 9.0.4} date 2026-06-10T15:27:58+0200
; FORMAT={-:-/ absolute / metric / decimal}
; #@! TF.CreationDate,2026-06-10T15:27:58+02:00
; #@! TF.GenerationSoftware,Kicad,Pcbnew,9.0.4
; #@! TF.FileFunction,MixedPlating,1,2
FMAT,2
METRIC
; #@! TA.AperFunction,Plated,PTH,ComponentDrill
T1C0.800
; #@! TA.AperFunction,Plated,PTH,ComponentDrill
T2C1.100
; #@! TA.AperFunction,Plated,PTH,ComponentDrill
T3C1.200
; #@! TA.AperFunction,Plated,PTH,ComponentDrill
T4C1.520
%
G90
G05
T1
X55.669Y-87.85
X63.289Y-87.85
T2
X31.875Y-46.15
X31.875Y-52.4
X42.035Y-46.15
X42.035Y-52.4
X49.785Y-46.15
X49.785Y-52.4
X59.945Y-46.15
X59.945Y-52.4
X67.695Y-46.15
X67.695Y-52.4
X77.855Y-46.15
X77.855Y-52.4
T3
X36.569Y-66.3
X36.569Y-87.85
X44.069Y-66.3
X44.069Y-87.85
X60.664Y-66.3
X68.164Y-66.3
T4
X29.92Y-32.0
X35.0Y-32.0
X40.08Y-32.0
X106.46Y-32.0
X111.54Y-32.0
M30
