%TF.GenerationSoftware,KiCad,Pcbnew,9.0.4*%
%TF.CreationDate,2026-06-10T15:27:58+02:00*%
%TF.ProjectId,rectifier,72656374-6966-4696-9572-2e6b69636164,rev?*%
%TF.SameCoordinates,Original*%
%TF.FileFunction,AssemblyDrawing,Top*%
%FSLAX46Y46*%
G04 Gerber Fmt 4.6, Leading zero omitted, Abs format (unit mm)*
G04 Created by KiCad (PCBNEW 9.0.4) date 2026-06-10 15:27:58*
%MOMM*%
%LPD*%
G01*
G04 APERTURE LIST*
%ADD10C,0.150000*%
%ADD11C,0.100000*%
G04 APERTURE END LIST*
D10*
X36724161Y-76338152D02*
X36724161Y-77004819D01*
X36486066Y-75957200D02*
X36247971Y-76671485D01*
X36247971Y-76671485D02*
X36867018Y-76671485D01*
X37152733Y-76004819D02*
X37819399Y-76004819D01*
X37819399Y-76004819D02*
X37390828Y-77004819D01*
X38390828Y-76004819D02*
X38486066Y-76004819D01*
X38486066Y-76004819D02*
X38581304Y-76052438D01*
X38581304Y-76052438D02*
X38628923Y-76100057D01*
X38628923Y-76100057D02*
X38676542Y-76195295D01*
X38676542Y-76195295D02*
X38724161Y-76385771D01*
X38724161Y-76385771D02*
X38724161Y-76623866D01*
X38724161Y-76623866D02*
X38676542Y-76814342D01*
X38676542Y-76814342D02*
X38628923Y-76909580D01*
X38628923Y-76909580D02*
X38581304Y-76957200D01*
X38581304Y-76957200D02*
X38486066Y-77004819D01*
X38486066Y-77004819D02*
X38390828Y-77004819D01*
X38390828Y-77004819D02*
X38295590Y-76957200D01*
X38295590Y-76957200D02*
X38247971Y-76909580D01*
X38247971Y-76909580D02*
X38200352Y-76814342D01*
X38200352Y-76814342D02*
X38152733Y-76623866D01*
X38152733Y-76623866D02*
X38152733Y-76385771D01*
X38152733Y-76385771D02*
X38200352Y-76195295D01*
X38200352Y-76195295D02*
X38247971Y-76100057D01*
X38247971Y-76100057D02*
X38295590Y-76052438D01*
X38295590Y-76052438D02*
X38390828Y-76004819D01*
X39343209Y-76004819D02*
X39438447Y-76004819D01*
X39438447Y-76004819D02*
X39533685Y-76052438D01*
X39533685Y-76052438D02*
X39581304Y-76100057D01*
X39581304Y-76100057D02*
X39628923Y-76195295D01*
X39628923Y-76195295D02*
X39676542Y-76385771D01*
X39676542Y-76385771D02*
X39676542Y-76623866D01*
X39676542Y-76623866D02*
X39628923Y-76814342D01*
X39628923Y-76814342D02*
X39581304Y-76909580D01*
X39581304Y-76909580D02*
X39533685Y-76957200D01*
X39533685Y-76957200D02*
X39438447Y-77004819D01*
X39438447Y-77004819D02*
X39343209Y-77004819D01*
X39343209Y-77004819D02*
X39247971Y-76957200D01*
X39247971Y-76957200D02*
X39200352Y-76909580D01*
X39200352Y-76909580D02*
X39152733Y-76814342D01*
X39152733Y-76814342D02*
X39105114Y-76623866D01*
X39105114Y-76623866D02*
X39105114Y-76385771D01*
X39105114Y-76385771D02*
X39152733Y-76195295D01*
X39152733Y-76195295D02*
X39200352Y-76100057D01*
X39200352Y-76100057D02*
X39247971Y-76052438D01*
X39247971Y-76052438D02*
X39343209Y-76004819D01*
X40533685Y-76338152D02*
X40533685Y-77004819D01*
X40105114Y-76338152D02*
X40105114Y-76861961D01*
X40105114Y-76861961D02*
X40152733Y-76957200D01*
X40152733Y-76957200D02*
X40247971Y-77004819D01*
X40247971Y-77004819D02*
X40390828Y-77004819D01*
X40390828Y-77004819D02*
X40486066Y-76957200D01*
X40486066Y-76957200D02*
X40533685Y-76909580D01*
X41724161Y-75957200D02*
X40867019Y-77242914D01*
X42533685Y-76004819D02*
X42057495Y-76004819D01*
X42057495Y-76004819D02*
X42009876Y-76481009D01*
X42009876Y-76481009D02*
X42057495Y-76433390D01*
X42057495Y-76433390D02*
X42152733Y-76385771D01*
X42152733Y-76385771D02*
X42390828Y-76385771D01*
X42390828Y-76385771D02*
X42486066Y-76433390D01*
X42486066Y-76433390D02*
X42533685Y-76481009D01*
X42533685Y-76481009D02*
X42581304Y-76576247D01*
X42581304Y-76576247D02*
X42581304Y-76814342D01*
X42581304Y-76814342D02*
X42533685Y-76909580D01*
X42533685Y-76909580D02*
X42486066Y-76957200D01*
X42486066Y-76957200D02*
X42390828Y-77004819D01*
X42390828Y-77004819D02*
X42152733Y-77004819D01*
X42152733Y-77004819D02*
X42057495Y-76957200D01*
X42057495Y-76957200D02*
X42009876Y-76909580D01*
X43200352Y-76004819D02*
X43295590Y-76004819D01*
X43295590Y-76004819D02*
X43390828Y-76052438D01*
X43390828Y-76052438D02*
X43438447Y-76100057D01*
X43438447Y-76100057D02*
X43486066Y-76195295D01*
X43486066Y-76195295D02*
X43533685Y-76385771D01*
X43533685Y-76385771D02*
X43533685Y-76623866D01*
X43533685Y-76623866D02*
X43486066Y-76814342D01*
X43486066Y-76814342D02*
X43438447Y-76909580D01*
X43438447Y-76909580D02*
X43390828Y-76957200D01*
X43390828Y-76957200D02*
X43295590Y-77004819D01*
X43295590Y-77004819D02*
X43200352Y-77004819D01*
X43200352Y-77004819D02*
X43105114Y-76957200D01*
X43105114Y-76957200D02*
X43057495Y-76909580D01*
X43057495Y-76909580D02*
X43009876Y-76814342D01*
X43009876Y-76814342D02*
X42962257Y-76623866D01*
X42962257Y-76623866D02*
X42962257Y-76385771D01*
X42962257Y-76385771D02*
X43009876Y-76195295D01*
X43009876Y-76195295D02*
X43057495Y-76100057D01*
X43057495Y-76100057D02*
X43105114Y-76052438D01*
X43105114Y-76052438D02*
X43200352Y-76004819D01*
X43819400Y-76004819D02*
X44152733Y-77004819D01*
X44152733Y-77004819D02*
X44486066Y-76004819D01*
X40152733Y-66659580D02*
X40105114Y-66707200D01*
X40105114Y-66707200D02*
X39962257Y-66754819D01*
X39962257Y-66754819D02*
X39867019Y-66754819D01*
X39867019Y-66754819D02*
X39724162Y-66707200D01*
X39724162Y-66707200D02*
X39628924Y-66611961D01*
X39628924Y-66611961D02*
X39581305Y-66516723D01*
X39581305Y-66516723D02*
X39533686Y-66326247D01*
X39533686Y-66326247D02*
X39533686Y-66183390D01*
X39533686Y-66183390D02*
X39581305Y-65992914D01*
X39581305Y-65992914D02*
X39628924Y-65897676D01*
X39628924Y-65897676D02*
X39724162Y-65802438D01*
X39724162Y-65802438D02*
X39867019Y-65754819D01*
X39867019Y-65754819D02*
X39962257Y-65754819D01*
X39962257Y-65754819D02*
X40105114Y-65802438D01*
X40105114Y-65802438D02*
X40152733Y-65850057D01*
X41105114Y-66754819D02*
X40533686Y-66754819D01*
X40819400Y-66754819D02*
X40819400Y-65754819D01*
X40819400Y-65754819D02*
X40724162Y-65897676D01*
X40724162Y-65897676D02*
X40628924Y-65992914D01*
X40628924Y-65992914D02*
X40533686Y-66040533D01*
X36724161Y-97888152D02*
X36724161Y-98554819D01*
X36486066Y-97507200D02*
X36247971Y-98221485D01*
X36247971Y-98221485D02*
X36867018Y-98221485D01*
X37152733Y-97554819D02*
X37819399Y-97554819D01*
X37819399Y-97554819D02*
X37390828Y-98554819D01*
X38390828Y-97554819D02*
X38486066Y-97554819D01*
X38486066Y-97554819D02*
X38581304Y-97602438D01*
X38581304Y-97602438D02*
X38628923Y-97650057D01*
X38628923Y-97650057D02*
X38676542Y-97745295D01*
X38676542Y-97745295D02*
X38724161Y-97935771D01*
X38724161Y-97935771D02*
X38724161Y-98173866D01*
X38724161Y-98173866D02*
X38676542Y-98364342D01*
X38676542Y-98364342D02*
X38628923Y-98459580D01*
X38628923Y-98459580D02*
X38581304Y-98507200D01*
X38581304Y-98507200D02*
X38486066Y-98554819D01*
X38486066Y-98554819D02*
X38390828Y-98554819D01*
X38390828Y-98554819D02*
X38295590Y-98507200D01*
X38295590Y-98507200D02*
X38247971Y-98459580D01*
X38247971Y-98459580D02*
X38200352Y-98364342D01*
X38200352Y-98364342D02*
X38152733Y-98173866D01*
X38152733Y-98173866D02*
X38152733Y-97935771D01*
X38152733Y-97935771D02*
X38200352Y-97745295D01*
X38200352Y-97745295D02*
X38247971Y-97650057D01*
X38247971Y-97650057D02*
X38295590Y-97602438D01*
X38295590Y-97602438D02*
X38390828Y-97554819D01*
X39343209Y-97554819D02*
X39438447Y-97554819D01*
X39438447Y-97554819D02*
X39533685Y-97602438D01*
X39533685Y-97602438D02*
X39581304Y-97650057D01*
X39581304Y-97650057D02*
X39628923Y-97745295D01*
X39628923Y-97745295D02*
X39676542Y-97935771D01*
X39676542Y-97935771D02*
X39676542Y-98173866D01*
X39676542Y-98173866D02*
X39628923Y-98364342D01*
X39628923Y-98364342D02*
X39581304Y-98459580D01*
X39581304Y-98459580D02*
X39533685Y-98507200D01*
X39533685Y-98507200D02*
X39438447Y-98554819D01*
X39438447Y-98554819D02*
X39343209Y-98554819D01*
X39343209Y-98554819D02*
X39247971Y-98507200D01*
X39247971Y-98507200D02*
X39200352Y-98459580D01*
X39200352Y-98459580D02*
X39152733Y-98364342D01*
X39152733Y-98364342D02*
X39105114Y-98173866D01*
X39105114Y-98173866D02*
X39105114Y-97935771D01*
X39105114Y-97935771D02*
X39152733Y-97745295D01*
X39152733Y-97745295D02*
X39200352Y-97650057D01*
X39200352Y-97650057D02*
X39247971Y-97602438D01*
X39247971Y-97602438D02*
X39343209Y-97554819D01*
X40533685Y-97888152D02*
X40533685Y-98554819D01*
X40105114Y-97888152D02*
X40105114Y-98411961D01*
X40105114Y-98411961D02*
X40152733Y-98507200D01*
X40152733Y-98507200D02*
X40247971Y-98554819D01*
X40247971Y-98554819D02*
X40390828Y-98554819D01*
X40390828Y-98554819D02*
X40486066Y-98507200D01*
X40486066Y-98507200D02*
X40533685Y-98459580D01*
X41724161Y-97507200D02*
X40867019Y-98792914D01*
X42533685Y-97554819D02*
X42057495Y-97554819D01*
X42057495Y-97554819D02*
X42009876Y-98031009D01*
X42009876Y-98031009D02*
X42057495Y-97983390D01*
X42057495Y-97983390D02*
X42152733Y-97935771D01*
X42152733Y-97935771D02*
X42390828Y-97935771D01*
X42390828Y-97935771D02*
X42486066Y-97983390D01*
X42486066Y-97983390D02*
X42533685Y-98031009D01*
X42533685Y-98031009D02*
X42581304Y-98126247D01*
X42581304Y-98126247D02*
X42581304Y-98364342D01*
X42581304Y-98364342D02*
X42533685Y-98459580D01*
X42533685Y-98459580D02*
X42486066Y-98507200D01*
X42486066Y-98507200D02*
X42390828Y-98554819D01*
X42390828Y-98554819D02*
X42152733Y-98554819D01*
X42152733Y-98554819D02*
X42057495Y-98507200D01*
X42057495Y-98507200D02*
X42009876Y-98459580D01*
X43200352Y-97554819D02*
X43295590Y-97554819D01*
X43295590Y-97554819D02*
X43390828Y-97602438D01*
X43390828Y-97602438D02*
X43438447Y-97650057D01*
X43438447Y-97650057D02*
X43486066Y-97745295D01*
X43486066Y-97745295D02*
X43533685Y-97935771D01*
X43533685Y-97935771D02*
X43533685Y-98173866D01*
X43533685Y-98173866D02*
X43486066Y-98364342D01*
X43486066Y-98364342D02*
X43438447Y-98459580D01*
X43438447Y-98459580D02*
X43390828Y-98507200D01*
X43390828Y-98507200D02*
X43295590Y-98554819D01*
X43295590Y-98554819D02*
X43200352Y-98554819D01*
X43200352Y-98554819D02*
X43105114Y-98507200D01*
X43105114Y-98507200D02*
X43057495Y-98459580D01*
X43057495Y-98459580D02*
X43009876Y-98364342D01*
X43009876Y-98364342D02*
X42962257Y-98173866D01*
X42962257Y-98173866D02*
X42962257Y-97935771D01*
X42962257Y-97935771D02*
X43009876Y-97745295D01*
X43009876Y-97745295D02*
X43057495Y-97650057D01*
X43057495Y-97650057D02*
X43105114Y-97602438D01*
X43105114Y-97602438D02*
X43200352Y-97554819D01*
X43819400Y-97554819D02*
X44152733Y-98554819D01*
X44152733Y-98554819D02*
X44486066Y-97554819D01*
X40152733Y-88209580D02*
X40105114Y-88257200D01*
X40105114Y-88257200D02*
X39962257Y-88304819D01*
X39962257Y-88304819D02*
X39867019Y-88304819D01*
X39867019Y-88304819D02*
X39724162Y-88257200D01*
X39724162Y-88257200D02*
X39628924Y-88161961D01*
X39628924Y-88161961D02*
X39581305Y-88066723D01*
X39581305Y-88066723D02*
X39533686Y-87876247D01*
X39533686Y-87876247D02*
X39533686Y-87733390D01*
X39533686Y-87733390D02*
X39581305Y-87542914D01*
X39581305Y-87542914D02*
X39628924Y-87447676D01*
X39628924Y-87447676D02*
X39724162Y-87352438D01*
X39724162Y-87352438D02*
X39867019Y-87304819D01*
X39867019Y-87304819D02*
X39962257Y-87304819D01*
X39962257Y-87304819D02*
X40105114Y-87352438D01*
X40105114Y-87352438D02*
X40152733Y-87400057D01*
X40486067Y-87304819D02*
X41105114Y-87304819D01*
X41105114Y-87304819D02*
X40771781Y-87685771D01*
X40771781Y-87685771D02*
X40914638Y-87685771D01*
X40914638Y-87685771D02*
X41009876Y-87733390D01*
X41009876Y-87733390D02*
X41057495Y-87781009D01*
X41057495Y-87781009D02*
X41105114Y-87876247D01*
X41105114Y-87876247D02*
X41105114Y-88114342D01*
X41105114Y-88114342D02*
X41057495Y-88209580D01*
X41057495Y-88209580D02*
X41009876Y-88257200D01*
X41009876Y-88257200D02*
X40914638Y-88304819D01*
X40914638Y-88304819D02*
X40628924Y-88304819D01*
X40628924Y-88304819D02*
X40533686Y-88257200D01*
X40533686Y-88257200D02*
X40486067Y-88209580D01*
X30952381Y-26374819D02*
X31571428Y-26374819D01*
X31571428Y-26374819D02*
X31238095Y-26755771D01*
X31238095Y-26755771D02*
X31380952Y-26755771D01*
X31380952Y-26755771D02*
X31476190Y-26803390D01*
X31476190Y-26803390D02*
X31523809Y-26851009D01*
X31523809Y-26851009D02*
X31571428Y-26946247D01*
X31571428Y-26946247D02*
X31571428Y-27184342D01*
X31571428Y-27184342D02*
X31523809Y-27279580D01*
X31523809Y-27279580D02*
X31476190Y-27327200D01*
X31476190Y-27327200D02*
X31380952Y-27374819D01*
X31380952Y-27374819D02*
X31095238Y-27374819D01*
X31095238Y-27374819D02*
X31000000Y-27327200D01*
X31000000Y-27327200D02*
X30952381Y-27279580D01*
X32000000Y-26993866D02*
X32761905Y-26993866D01*
X33095238Y-26708152D02*
X33476190Y-26708152D01*
X33238095Y-27374819D02*
X33238095Y-26517676D01*
X33238095Y-26517676D02*
X33285714Y-26422438D01*
X33285714Y-26422438D02*
X33380952Y-26374819D01*
X33380952Y-26374819D02*
X33476190Y-26374819D01*
X34238095Y-27374819D02*
X34238095Y-26851009D01*
X34238095Y-26851009D02*
X34190476Y-26755771D01*
X34190476Y-26755771D02*
X34095238Y-26708152D01*
X34095238Y-26708152D02*
X33904762Y-26708152D01*
X33904762Y-26708152D02*
X33809524Y-26755771D01*
X34238095Y-27327200D02*
X34142857Y-27374819D01*
X34142857Y-27374819D02*
X33904762Y-27374819D01*
X33904762Y-27374819D02*
X33809524Y-27327200D01*
X33809524Y-27327200D02*
X33761905Y-27231961D01*
X33761905Y-27231961D02*
X33761905Y-27136723D01*
X33761905Y-27136723D02*
X33809524Y-27041485D01*
X33809524Y-27041485D02*
X33904762Y-26993866D01*
X33904762Y-26993866D02*
X34142857Y-26993866D01*
X34142857Y-26993866D02*
X34238095Y-26946247D01*
X34666667Y-27327200D02*
X34761905Y-27374819D01*
X34761905Y-27374819D02*
X34952381Y-27374819D01*
X34952381Y-27374819D02*
X35047619Y-27327200D01*
X35047619Y-27327200D02*
X35095238Y-27231961D01*
X35095238Y-27231961D02*
X35095238Y-27184342D01*
X35095238Y-27184342D02*
X35047619Y-27089104D01*
X35047619Y-27089104D02*
X34952381Y-27041485D01*
X34952381Y-27041485D02*
X34809524Y-27041485D01*
X34809524Y-27041485D02*
X34714286Y-26993866D01*
X34714286Y-26993866D02*
X34666667Y-26898628D01*
X34666667Y-26898628D02*
X34666667Y-26851009D01*
X34666667Y-26851009D02*
X34714286Y-26755771D01*
X34714286Y-26755771D02*
X34809524Y-26708152D01*
X34809524Y-26708152D02*
X34952381Y-26708152D01*
X34952381Y-26708152D02*
X35047619Y-26755771D01*
X35904762Y-27327200D02*
X35809524Y-27374819D01*
X35809524Y-27374819D02*
X35619048Y-27374819D01*
X35619048Y-27374819D02*
X35523810Y-27327200D01*
X35523810Y-27327200D02*
X35476191Y-27231961D01*
X35476191Y-27231961D02*
X35476191Y-26851009D01*
X35476191Y-26851009D02*
X35523810Y-26755771D01*
X35523810Y-26755771D02*
X35619048Y-26708152D01*
X35619048Y-26708152D02*
X35809524Y-26708152D01*
X35809524Y-26708152D02*
X35904762Y-26755771D01*
X35904762Y-26755771D02*
X35952381Y-26851009D01*
X35952381Y-26851009D02*
X35952381Y-26946247D01*
X35952381Y-26946247D02*
X35476191Y-27041485D01*
X37142858Y-27374819D02*
X37142858Y-26708152D01*
X37142858Y-26374819D02*
X37095239Y-26422438D01*
X37095239Y-26422438D02*
X37142858Y-26470057D01*
X37142858Y-26470057D02*
X37190477Y-26422438D01*
X37190477Y-26422438D02*
X37142858Y-26374819D01*
X37142858Y-26374819D02*
X37142858Y-26470057D01*
X37619048Y-26708152D02*
X37619048Y-27374819D01*
X37619048Y-26803390D02*
X37666667Y-26755771D01*
X37666667Y-26755771D02*
X37761905Y-26708152D01*
X37761905Y-26708152D02*
X37904762Y-26708152D01*
X37904762Y-26708152D02*
X38000000Y-26755771D01*
X38000000Y-26755771D02*
X38047619Y-26851009D01*
X38047619Y-26851009D02*
X38047619Y-27374819D01*
X38952381Y-27374819D02*
X38952381Y-26374819D01*
X38952381Y-27327200D02*
X38857143Y-27374819D01*
X38857143Y-27374819D02*
X38666667Y-27374819D01*
X38666667Y-27374819D02*
X38571429Y-27327200D01*
X38571429Y-27327200D02*
X38523810Y-27279580D01*
X38523810Y-27279580D02*
X38476191Y-27184342D01*
X38476191Y-27184342D02*
X38476191Y-26898628D01*
X38476191Y-26898628D02*
X38523810Y-26803390D01*
X38523810Y-26803390D02*
X38571429Y-26755771D01*
X38571429Y-26755771D02*
X38666667Y-26708152D01*
X38666667Y-26708152D02*
X38857143Y-26708152D01*
X38857143Y-26708152D02*
X38952381Y-26755771D01*
X34666666Y-31454819D02*
X34666666Y-32169104D01*
X34666666Y-32169104D02*
X34619047Y-32311961D01*
X34619047Y-32311961D02*
X34523809Y-32407200D01*
X34523809Y-32407200D02*
X34380952Y-32454819D01*
X34380952Y-32454819D02*
X34285714Y-32454819D01*
X35666666Y-32454819D02*
X35095238Y-32454819D01*
X35380952Y-32454819D02*
X35380952Y-31454819D01*
X35380952Y-31454819D02*
X35285714Y-31597676D01*
X35285714Y-31597676D02*
X35190476Y-31692914D01*
X35190476Y-31692914D02*
X35095238Y-31740533D01*
X106904762Y-36534819D02*
X107238095Y-37534819D01*
X107238095Y-37534819D02*
X107571428Y-36534819D01*
X108428571Y-37534819D02*
X107857143Y-37534819D01*
X108142857Y-37534819D02*
X108142857Y-36534819D01*
X108142857Y-36534819D02*
X108047619Y-36677676D01*
X108047619Y-36677676D02*
X107952381Y-36772914D01*
X107952381Y-36772914D02*
X107857143Y-36820533D01*
X110047619Y-36868152D02*
X110047619Y-37534819D01*
X109619048Y-36868152D02*
X109619048Y-37391961D01*
X109619048Y-37391961D02*
X109666667Y-37487200D01*
X109666667Y-37487200D02*
X109761905Y-37534819D01*
X109761905Y-37534819D02*
X109904762Y-37534819D01*
X109904762Y-37534819D02*
X110000000Y-37487200D01*
X110000000Y-37487200D02*
X110047619Y-37439580D01*
X110952381Y-37534819D02*
X110952381Y-36534819D01*
X110952381Y-37487200D02*
X110857143Y-37534819D01*
X110857143Y-37534819D02*
X110666667Y-37534819D01*
X110666667Y-37534819D02*
X110571429Y-37487200D01*
X110571429Y-37487200D02*
X110523810Y-37439580D01*
X110523810Y-37439580D02*
X110476191Y-37344342D01*
X110476191Y-37344342D02*
X110476191Y-37058628D01*
X110476191Y-37058628D02*
X110523810Y-36963390D01*
X110523810Y-36963390D02*
X110571429Y-36915771D01*
X110571429Y-36915771D02*
X110666667Y-36868152D01*
X110666667Y-36868152D02*
X110857143Y-36868152D01*
X110857143Y-36868152D02*
X110952381Y-36915771D01*
X108666666Y-31454819D02*
X108666666Y-32169104D01*
X108666666Y-32169104D02*
X108619047Y-32311961D01*
X108619047Y-32311961D02*
X108523809Y-32407200D01*
X108523809Y-32407200D02*
X108380952Y-32454819D01*
X108380952Y-32454819D02*
X108285714Y-32454819D01*
X109095238Y-31550057D02*
X109142857Y-31502438D01*
X109142857Y-31502438D02*
X109238095Y-31454819D01*
X109238095Y-31454819D02*
X109476190Y-31454819D01*
X109476190Y-31454819D02*
X109571428Y-31502438D01*
X109571428Y-31502438D02*
X109619047Y-31550057D01*
X109619047Y-31550057D02*
X109666666Y-31645295D01*
X109666666Y-31645295D02*
X109666666Y-31740533D01*
X109666666Y-31740533D02*
X109619047Y-31883390D01*
X109619047Y-31883390D02*
X109047619Y-32454819D01*
X109047619Y-32454819D02*
X109666666Y-32454819D01*
X70632142Y-55324819D02*
X70060714Y-55324819D01*
X70346428Y-55324819D02*
X70346428Y-54324819D01*
X70346428Y-54324819D02*
X70251190Y-54467676D01*
X70251190Y-54467676D02*
X70155952Y-54562914D01*
X70155952Y-54562914D02*
X70060714Y-54610533D01*
X71060714Y-55324819D02*
X71060714Y-54324819D01*
X71060714Y-54324819D02*
X71632142Y-55324819D01*
X71632142Y-55324819D02*
X71632142Y-54324819D01*
X72536904Y-54658152D02*
X72536904Y-55324819D01*
X72298809Y-54277200D02*
X72060714Y-54991485D01*
X72060714Y-54991485D02*
X72679761Y-54991485D01*
X73251190Y-54324819D02*
X73346428Y-54324819D01*
X73346428Y-54324819D02*
X73441666Y-54372438D01*
X73441666Y-54372438D02*
X73489285Y-54420057D01*
X73489285Y-54420057D02*
X73536904Y-54515295D01*
X73536904Y-54515295D02*
X73584523Y-54705771D01*
X73584523Y-54705771D02*
X73584523Y-54943866D01*
X73584523Y-54943866D02*
X73536904Y-55134342D01*
X73536904Y-55134342D02*
X73489285Y-55229580D01*
X73489285Y-55229580D02*
X73441666Y-55277200D01*
X73441666Y-55277200D02*
X73346428Y-55324819D01*
X73346428Y-55324819D02*
X73251190Y-55324819D01*
X73251190Y-55324819D02*
X73155952Y-55277200D01*
X73155952Y-55277200D02*
X73108333Y-55229580D01*
X73108333Y-55229580D02*
X73060714Y-55134342D01*
X73060714Y-55134342D02*
X73013095Y-54943866D01*
X73013095Y-54943866D02*
X73013095Y-54705771D01*
X73013095Y-54705771D02*
X73060714Y-54515295D01*
X73060714Y-54515295D02*
X73108333Y-54420057D01*
X73108333Y-54420057D02*
X73155952Y-54372438D01*
X73155952Y-54372438D02*
X73251190Y-54324819D01*
X74203571Y-54324819D02*
X74298809Y-54324819D01*
X74298809Y-54324819D02*
X74394047Y-54372438D01*
X74394047Y-54372438D02*
X74441666Y-54420057D01*
X74441666Y-54420057D02*
X74489285Y-54515295D01*
X74489285Y-54515295D02*
X74536904Y-54705771D01*
X74536904Y-54705771D02*
X74536904Y-54943866D01*
X74536904Y-54943866D02*
X74489285Y-55134342D01*
X74489285Y-55134342D02*
X74441666Y-55229580D01*
X74441666Y-55229580D02*
X74394047Y-55277200D01*
X74394047Y-55277200D02*
X74298809Y-55324819D01*
X74298809Y-55324819D02*
X74203571Y-55324819D01*
X74203571Y-55324819D02*
X74108333Y-55277200D01*
X74108333Y-55277200D02*
X74060714Y-55229580D01*
X74060714Y-55229580D02*
X74013095Y-55134342D01*
X74013095Y-55134342D02*
X73965476Y-54943866D01*
X73965476Y-54943866D02*
X73965476Y-54705771D01*
X73965476Y-54705771D02*
X74013095Y-54515295D01*
X74013095Y-54515295D02*
X74060714Y-54420057D01*
X74060714Y-54420057D02*
X74108333Y-54372438D01*
X74108333Y-54372438D02*
X74203571Y-54324819D01*
X75394047Y-54324819D02*
X75203571Y-54324819D01*
X75203571Y-54324819D02*
X75108333Y-54372438D01*
X75108333Y-54372438D02*
X75060714Y-54420057D01*
X75060714Y-54420057D02*
X74965476Y-54562914D01*
X74965476Y-54562914D02*
X74917857Y-54753390D01*
X74917857Y-54753390D02*
X74917857Y-55134342D01*
X74917857Y-55134342D02*
X74965476Y-55229580D01*
X74965476Y-55229580D02*
X75013095Y-55277200D01*
X75013095Y-55277200D02*
X75108333Y-55324819D01*
X75108333Y-55324819D02*
X75298809Y-55324819D01*
X75298809Y-55324819D02*
X75394047Y-55277200D01*
X75394047Y-55277200D02*
X75441666Y-55229580D01*
X75441666Y-55229580D02*
X75489285Y-55134342D01*
X75489285Y-55134342D02*
X75489285Y-54896247D01*
X75489285Y-54896247D02*
X75441666Y-54801009D01*
X75441666Y-54801009D02*
X75394047Y-54753390D01*
X75394047Y-54753390D02*
X75298809Y-54705771D01*
X75298809Y-54705771D02*
X75108333Y-54705771D01*
X75108333Y-54705771D02*
X75013095Y-54753390D01*
X75013095Y-54753390D02*
X74965476Y-54801009D01*
X74965476Y-54801009D02*
X74917857Y-54896247D01*
X72426905Y-52854819D02*
X72426905Y-51854819D01*
X72426905Y-51854819D02*
X72665000Y-51854819D01*
X72665000Y-51854819D02*
X72807857Y-51902438D01*
X72807857Y-51902438D02*
X72903095Y-51997676D01*
X72903095Y-51997676D02*
X72950714Y-52092914D01*
X72950714Y-52092914D02*
X72998333Y-52283390D01*
X72998333Y-52283390D02*
X72998333Y-52426247D01*
X72998333Y-52426247D02*
X72950714Y-52616723D01*
X72950714Y-52616723D02*
X72903095Y-52711961D01*
X72903095Y-52711961D02*
X72807857Y-52807200D01*
X72807857Y-52807200D02*
X72665000Y-52854819D01*
X72665000Y-52854819D02*
X72426905Y-52854819D01*
X73855476Y-51854819D02*
X73665000Y-51854819D01*
X73665000Y-51854819D02*
X73569762Y-51902438D01*
X73569762Y-51902438D02*
X73522143Y-51950057D01*
X73522143Y-51950057D02*
X73426905Y-52092914D01*
X73426905Y-52092914D02*
X73379286Y-52283390D01*
X73379286Y-52283390D02*
X73379286Y-52664342D01*
X73379286Y-52664342D02*
X73426905Y-52759580D01*
X73426905Y-52759580D02*
X73474524Y-52807200D01*
X73474524Y-52807200D02*
X73569762Y-52854819D01*
X73569762Y-52854819D02*
X73760238Y-52854819D01*
X73760238Y-52854819D02*
X73855476Y-52807200D01*
X73855476Y-52807200D02*
X73903095Y-52759580D01*
X73903095Y-52759580D02*
X73950714Y-52664342D01*
X73950714Y-52664342D02*
X73950714Y-52426247D01*
X73950714Y-52426247D02*
X73903095Y-52331009D01*
X73903095Y-52331009D02*
X73855476Y-52283390D01*
X73855476Y-52283390D02*
X73760238Y-52235771D01*
X73760238Y-52235771D02*
X73569762Y-52235771D01*
X73569762Y-52235771D02*
X73474524Y-52283390D01*
X73474524Y-52283390D02*
X73426905Y-52331009D01*
X73426905Y-52331009D02*
X73379286Y-52426247D01*
X67433095Y-50754819D02*
X67433095Y-49754819D01*
X68004523Y-50754819D02*
X67575952Y-50183390D01*
X68004523Y-49754819D02*
X67433095Y-50326247D01*
X52722142Y-55324819D02*
X52150714Y-55324819D01*
X52436428Y-55324819D02*
X52436428Y-54324819D01*
X52436428Y-54324819D02*
X52341190Y-54467676D01*
X52341190Y-54467676D02*
X52245952Y-54562914D01*
X52245952Y-54562914D02*
X52150714Y-54610533D01*
X53150714Y-55324819D02*
X53150714Y-54324819D01*
X53150714Y-54324819D02*
X53722142Y-55324819D01*
X53722142Y-55324819D02*
X53722142Y-54324819D01*
X54626904Y-54658152D02*
X54626904Y-55324819D01*
X54388809Y-54277200D02*
X54150714Y-54991485D01*
X54150714Y-54991485D02*
X54769761Y-54991485D01*
X55341190Y-54324819D02*
X55436428Y-54324819D01*
X55436428Y-54324819D02*
X55531666Y-54372438D01*
X55531666Y-54372438D02*
X55579285Y-54420057D01*
X55579285Y-54420057D02*
X55626904Y-54515295D01*
X55626904Y-54515295D02*
X55674523Y-54705771D01*
X55674523Y-54705771D02*
X55674523Y-54943866D01*
X55674523Y-54943866D02*
X55626904Y-55134342D01*
X55626904Y-55134342D02*
X55579285Y-55229580D01*
X55579285Y-55229580D02*
X55531666Y-55277200D01*
X55531666Y-55277200D02*
X55436428Y-55324819D01*
X55436428Y-55324819D02*
X55341190Y-55324819D01*
X55341190Y-55324819D02*
X55245952Y-55277200D01*
X55245952Y-55277200D02*
X55198333Y-55229580D01*
X55198333Y-55229580D02*
X55150714Y-55134342D01*
X55150714Y-55134342D02*
X55103095Y-54943866D01*
X55103095Y-54943866D02*
X55103095Y-54705771D01*
X55103095Y-54705771D02*
X55150714Y-54515295D01*
X55150714Y-54515295D02*
X55198333Y-54420057D01*
X55198333Y-54420057D02*
X55245952Y-54372438D01*
X55245952Y-54372438D02*
X55341190Y-54324819D01*
X56293571Y-54324819D02*
X56388809Y-54324819D01*
X56388809Y-54324819D02*
X56484047Y-54372438D01*
X56484047Y-54372438D02*
X56531666Y-54420057D01*
X56531666Y-54420057D02*
X56579285Y-54515295D01*
X56579285Y-54515295D02*
X56626904Y-54705771D01*
X56626904Y-54705771D02*
X56626904Y-54943866D01*
X56626904Y-54943866D02*
X56579285Y-55134342D01*
X56579285Y-55134342D02*
X56531666Y-55229580D01*
X56531666Y-55229580D02*
X56484047Y-55277200D01*
X56484047Y-55277200D02*
X56388809Y-55324819D01*
X56388809Y-55324819D02*
X56293571Y-55324819D01*
X56293571Y-55324819D02*
X56198333Y-55277200D01*
X56198333Y-55277200D02*
X56150714Y-55229580D01*
X56150714Y-55229580D02*
X56103095Y-55134342D01*
X56103095Y-55134342D02*
X56055476Y-54943866D01*
X56055476Y-54943866D02*
X56055476Y-54705771D01*
X56055476Y-54705771D02*
X56103095Y-54515295D01*
X56103095Y-54515295D02*
X56150714Y-54420057D01*
X56150714Y-54420057D02*
X56198333Y-54372438D01*
X56198333Y-54372438D02*
X56293571Y-54324819D01*
X57484047Y-54324819D02*
X57293571Y-54324819D01*
X57293571Y-54324819D02*
X57198333Y-54372438D01*
X57198333Y-54372438D02*
X57150714Y-54420057D01*
X57150714Y-54420057D02*
X57055476Y-54562914D01*
X57055476Y-54562914D02*
X57007857Y-54753390D01*
X57007857Y-54753390D02*
X57007857Y-55134342D01*
X57007857Y-55134342D02*
X57055476Y-55229580D01*
X57055476Y-55229580D02*
X57103095Y-55277200D01*
X57103095Y-55277200D02*
X57198333Y-55324819D01*
X57198333Y-55324819D02*
X57388809Y-55324819D01*
X57388809Y-55324819D02*
X57484047Y-55277200D01*
X57484047Y-55277200D02*
X57531666Y-55229580D01*
X57531666Y-55229580D02*
X57579285Y-55134342D01*
X57579285Y-55134342D02*
X57579285Y-54896247D01*
X57579285Y-54896247D02*
X57531666Y-54801009D01*
X57531666Y-54801009D02*
X57484047Y-54753390D01*
X57484047Y-54753390D02*
X57388809Y-54705771D01*
X57388809Y-54705771D02*
X57198333Y-54705771D01*
X57198333Y-54705771D02*
X57103095Y-54753390D01*
X57103095Y-54753390D02*
X57055476Y-54801009D01*
X57055476Y-54801009D02*
X57007857Y-54896247D01*
X54516905Y-52854819D02*
X54516905Y-51854819D01*
X54516905Y-51854819D02*
X54755000Y-51854819D01*
X54755000Y-51854819D02*
X54897857Y-51902438D01*
X54897857Y-51902438D02*
X54993095Y-51997676D01*
X54993095Y-51997676D02*
X55040714Y-52092914D01*
X55040714Y-52092914D02*
X55088333Y-52283390D01*
X55088333Y-52283390D02*
X55088333Y-52426247D01*
X55088333Y-52426247D02*
X55040714Y-52616723D01*
X55040714Y-52616723D02*
X54993095Y-52711961D01*
X54993095Y-52711961D02*
X54897857Y-52807200D01*
X54897857Y-52807200D02*
X54755000Y-52854819D01*
X54755000Y-52854819D02*
X54516905Y-52854819D01*
X55993095Y-51854819D02*
X55516905Y-51854819D01*
X55516905Y-51854819D02*
X55469286Y-52331009D01*
X55469286Y-52331009D02*
X55516905Y-52283390D01*
X55516905Y-52283390D02*
X55612143Y-52235771D01*
X55612143Y-52235771D02*
X55850238Y-52235771D01*
X55850238Y-52235771D02*
X55945476Y-52283390D01*
X55945476Y-52283390D02*
X55993095Y-52331009D01*
X55993095Y-52331009D02*
X56040714Y-52426247D01*
X56040714Y-52426247D02*
X56040714Y-52664342D01*
X56040714Y-52664342D02*
X55993095Y-52759580D01*
X55993095Y-52759580D02*
X55945476Y-52807200D01*
X55945476Y-52807200D02*
X55850238Y-52854819D01*
X55850238Y-52854819D02*
X55612143Y-52854819D01*
X55612143Y-52854819D02*
X55516905Y-52807200D01*
X55516905Y-52807200D02*
X55469286Y-52759580D01*
X49523095Y-50754819D02*
X49523095Y-49754819D01*
X50094523Y-50754819D02*
X49665952Y-50183390D01*
X50094523Y-49754819D02*
X49523095Y-50326247D01*
X60818661Y-76338152D02*
X60818661Y-77004819D01*
X60580566Y-75957200D02*
X60342471Y-76671485D01*
X60342471Y-76671485D02*
X60961518Y-76671485D01*
X61247233Y-76004819D02*
X61913899Y-76004819D01*
X61913899Y-76004819D02*
X61485328Y-77004819D01*
X62485328Y-76004819D02*
X62580566Y-76004819D01*
X62580566Y-76004819D02*
X62675804Y-76052438D01*
X62675804Y-76052438D02*
X62723423Y-76100057D01*
X62723423Y-76100057D02*
X62771042Y-76195295D01*
X62771042Y-76195295D02*
X62818661Y-76385771D01*
X62818661Y-76385771D02*
X62818661Y-76623866D01*
X62818661Y-76623866D02*
X62771042Y-76814342D01*
X62771042Y-76814342D02*
X62723423Y-76909580D01*
X62723423Y-76909580D02*
X62675804Y-76957200D01*
X62675804Y-76957200D02*
X62580566Y-77004819D01*
X62580566Y-77004819D02*
X62485328Y-77004819D01*
X62485328Y-77004819D02*
X62390090Y-76957200D01*
X62390090Y-76957200D02*
X62342471Y-76909580D01*
X62342471Y-76909580D02*
X62294852Y-76814342D01*
X62294852Y-76814342D02*
X62247233Y-76623866D01*
X62247233Y-76623866D02*
X62247233Y-76385771D01*
X62247233Y-76385771D02*
X62294852Y-76195295D01*
X62294852Y-76195295D02*
X62342471Y-76100057D01*
X62342471Y-76100057D02*
X62390090Y-76052438D01*
X62390090Y-76052438D02*
X62485328Y-76004819D01*
X63437709Y-76004819D02*
X63532947Y-76004819D01*
X63532947Y-76004819D02*
X63628185Y-76052438D01*
X63628185Y-76052438D02*
X63675804Y-76100057D01*
X63675804Y-76100057D02*
X63723423Y-76195295D01*
X63723423Y-76195295D02*
X63771042Y-76385771D01*
X63771042Y-76385771D02*
X63771042Y-76623866D01*
X63771042Y-76623866D02*
X63723423Y-76814342D01*
X63723423Y-76814342D02*
X63675804Y-76909580D01*
X63675804Y-76909580D02*
X63628185Y-76957200D01*
X63628185Y-76957200D02*
X63532947Y-77004819D01*
X63532947Y-77004819D02*
X63437709Y-77004819D01*
X63437709Y-77004819D02*
X63342471Y-76957200D01*
X63342471Y-76957200D02*
X63294852Y-76909580D01*
X63294852Y-76909580D02*
X63247233Y-76814342D01*
X63247233Y-76814342D02*
X63199614Y-76623866D01*
X63199614Y-76623866D02*
X63199614Y-76385771D01*
X63199614Y-76385771D02*
X63247233Y-76195295D01*
X63247233Y-76195295D02*
X63294852Y-76100057D01*
X63294852Y-76100057D02*
X63342471Y-76052438D01*
X63342471Y-76052438D02*
X63437709Y-76004819D01*
X64628185Y-76338152D02*
X64628185Y-77004819D01*
X64199614Y-76338152D02*
X64199614Y-76861961D01*
X64199614Y-76861961D02*
X64247233Y-76957200D01*
X64247233Y-76957200D02*
X64342471Y-77004819D01*
X64342471Y-77004819D02*
X64485328Y-77004819D01*
X64485328Y-77004819D02*
X64580566Y-76957200D01*
X64580566Y-76957200D02*
X64628185Y-76909580D01*
X65818661Y-75957200D02*
X64961519Y-77242914D01*
X66628185Y-76004819D02*
X66151995Y-76004819D01*
X66151995Y-76004819D02*
X66104376Y-76481009D01*
X66104376Y-76481009D02*
X66151995Y-76433390D01*
X66151995Y-76433390D02*
X66247233Y-76385771D01*
X66247233Y-76385771D02*
X66485328Y-76385771D01*
X66485328Y-76385771D02*
X66580566Y-76433390D01*
X66580566Y-76433390D02*
X66628185Y-76481009D01*
X66628185Y-76481009D02*
X66675804Y-76576247D01*
X66675804Y-76576247D02*
X66675804Y-76814342D01*
X66675804Y-76814342D02*
X66628185Y-76909580D01*
X66628185Y-76909580D02*
X66580566Y-76957200D01*
X66580566Y-76957200D02*
X66485328Y-77004819D01*
X66485328Y-77004819D02*
X66247233Y-77004819D01*
X66247233Y-77004819D02*
X66151995Y-76957200D01*
X66151995Y-76957200D02*
X66104376Y-76909580D01*
X67294852Y-76004819D02*
X67390090Y-76004819D01*
X67390090Y-76004819D02*
X67485328Y-76052438D01*
X67485328Y-76052438D02*
X67532947Y-76100057D01*
X67532947Y-76100057D02*
X67580566Y-76195295D01*
X67580566Y-76195295D02*
X67628185Y-76385771D01*
X67628185Y-76385771D02*
X67628185Y-76623866D01*
X67628185Y-76623866D02*
X67580566Y-76814342D01*
X67580566Y-76814342D02*
X67532947Y-76909580D01*
X67532947Y-76909580D02*
X67485328Y-76957200D01*
X67485328Y-76957200D02*
X67390090Y-77004819D01*
X67390090Y-77004819D02*
X67294852Y-77004819D01*
X67294852Y-77004819D02*
X67199614Y-76957200D01*
X67199614Y-76957200D02*
X67151995Y-76909580D01*
X67151995Y-76909580D02*
X67104376Y-76814342D01*
X67104376Y-76814342D02*
X67056757Y-76623866D01*
X67056757Y-76623866D02*
X67056757Y-76385771D01*
X67056757Y-76385771D02*
X67104376Y-76195295D01*
X67104376Y-76195295D02*
X67151995Y-76100057D01*
X67151995Y-76100057D02*
X67199614Y-76052438D01*
X67199614Y-76052438D02*
X67294852Y-76004819D01*
X67913900Y-76004819D02*
X68247233Y-77004819D01*
X68247233Y-77004819D02*
X68580566Y-76004819D01*
X64247233Y-66659580D02*
X64199614Y-66707200D01*
X64199614Y-66707200D02*
X64056757Y-66754819D01*
X64056757Y-66754819D02*
X63961519Y-66754819D01*
X63961519Y-66754819D02*
X63818662Y-66707200D01*
X63818662Y-66707200D02*
X63723424Y-66611961D01*
X63723424Y-66611961D02*
X63675805Y-66516723D01*
X63675805Y-66516723D02*
X63628186Y-66326247D01*
X63628186Y-66326247D02*
X63628186Y-66183390D01*
X63628186Y-66183390D02*
X63675805Y-65992914D01*
X63675805Y-65992914D02*
X63723424Y-65897676D01*
X63723424Y-65897676D02*
X63818662Y-65802438D01*
X63818662Y-65802438D02*
X63961519Y-65754819D01*
X63961519Y-65754819D02*
X64056757Y-65754819D01*
X64056757Y-65754819D02*
X64199614Y-65802438D01*
X64199614Y-65802438D02*
X64247233Y-65850057D01*
X64628186Y-65850057D02*
X64675805Y-65802438D01*
X64675805Y-65802438D02*
X64771043Y-65754819D01*
X64771043Y-65754819D02*
X65009138Y-65754819D01*
X65009138Y-65754819D02*
X65104376Y-65802438D01*
X65104376Y-65802438D02*
X65151995Y-65850057D01*
X65151995Y-65850057D02*
X65199614Y-65945295D01*
X65199614Y-65945295D02*
X65199614Y-66040533D01*
X65199614Y-66040533D02*
X65151995Y-66183390D01*
X65151995Y-66183390D02*
X64580567Y-66754819D01*
X64580567Y-66754819D02*
X65199614Y-66754819D01*
X70632142Y-49074819D02*
X70060714Y-49074819D01*
X70346428Y-49074819D02*
X70346428Y-48074819D01*
X70346428Y-48074819D02*
X70251190Y-48217676D01*
X70251190Y-48217676D02*
X70155952Y-48312914D01*
X70155952Y-48312914D02*
X70060714Y-48360533D01*
X71060714Y-49074819D02*
X71060714Y-48074819D01*
X71060714Y-48074819D02*
X71632142Y-49074819D01*
X71632142Y-49074819D02*
X71632142Y-48074819D01*
X72536904Y-48408152D02*
X72536904Y-49074819D01*
X72298809Y-48027200D02*
X72060714Y-48741485D01*
X72060714Y-48741485D02*
X72679761Y-48741485D01*
X73251190Y-48074819D02*
X73346428Y-48074819D01*
X73346428Y-48074819D02*
X73441666Y-48122438D01*
X73441666Y-48122438D02*
X73489285Y-48170057D01*
X73489285Y-48170057D02*
X73536904Y-48265295D01*
X73536904Y-48265295D02*
X73584523Y-48455771D01*
X73584523Y-48455771D02*
X73584523Y-48693866D01*
X73584523Y-48693866D02*
X73536904Y-48884342D01*
X73536904Y-48884342D02*
X73489285Y-48979580D01*
X73489285Y-48979580D02*
X73441666Y-49027200D01*
X73441666Y-49027200D02*
X73346428Y-49074819D01*
X73346428Y-49074819D02*
X73251190Y-49074819D01*
X73251190Y-49074819D02*
X73155952Y-49027200D01*
X73155952Y-49027200D02*
X73108333Y-48979580D01*
X73108333Y-48979580D02*
X73060714Y-48884342D01*
X73060714Y-48884342D02*
X73013095Y-48693866D01*
X73013095Y-48693866D02*
X73013095Y-48455771D01*
X73013095Y-48455771D02*
X73060714Y-48265295D01*
X73060714Y-48265295D02*
X73108333Y-48170057D01*
X73108333Y-48170057D02*
X73155952Y-48122438D01*
X73155952Y-48122438D02*
X73251190Y-48074819D01*
X74203571Y-48074819D02*
X74298809Y-48074819D01*
X74298809Y-48074819D02*
X74394047Y-48122438D01*
X74394047Y-48122438D02*
X74441666Y-48170057D01*
X74441666Y-48170057D02*
X74489285Y-48265295D01*
X74489285Y-48265295D02*
X74536904Y-48455771D01*
X74536904Y-48455771D02*
X74536904Y-48693866D01*
X74536904Y-48693866D02*
X74489285Y-48884342D01*
X74489285Y-48884342D02*
X74441666Y-48979580D01*
X74441666Y-48979580D02*
X74394047Y-49027200D01*
X74394047Y-49027200D02*
X74298809Y-49074819D01*
X74298809Y-49074819D02*
X74203571Y-49074819D01*
X74203571Y-49074819D02*
X74108333Y-49027200D01*
X74108333Y-49027200D02*
X74060714Y-48979580D01*
X74060714Y-48979580D02*
X74013095Y-48884342D01*
X74013095Y-48884342D02*
X73965476Y-48693866D01*
X73965476Y-48693866D02*
X73965476Y-48455771D01*
X73965476Y-48455771D02*
X74013095Y-48265295D01*
X74013095Y-48265295D02*
X74060714Y-48170057D01*
X74060714Y-48170057D02*
X74108333Y-48122438D01*
X74108333Y-48122438D02*
X74203571Y-48074819D01*
X75394047Y-48074819D02*
X75203571Y-48074819D01*
X75203571Y-48074819D02*
X75108333Y-48122438D01*
X75108333Y-48122438D02*
X75060714Y-48170057D01*
X75060714Y-48170057D02*
X74965476Y-48312914D01*
X74965476Y-48312914D02*
X74917857Y-48503390D01*
X74917857Y-48503390D02*
X74917857Y-48884342D01*
X74917857Y-48884342D02*
X74965476Y-48979580D01*
X74965476Y-48979580D02*
X75013095Y-49027200D01*
X75013095Y-49027200D02*
X75108333Y-49074819D01*
X75108333Y-49074819D02*
X75298809Y-49074819D01*
X75298809Y-49074819D02*
X75394047Y-49027200D01*
X75394047Y-49027200D02*
X75441666Y-48979580D01*
X75441666Y-48979580D02*
X75489285Y-48884342D01*
X75489285Y-48884342D02*
X75489285Y-48646247D01*
X75489285Y-48646247D02*
X75441666Y-48551009D01*
X75441666Y-48551009D02*
X75394047Y-48503390D01*
X75394047Y-48503390D02*
X75298809Y-48455771D01*
X75298809Y-48455771D02*
X75108333Y-48455771D01*
X75108333Y-48455771D02*
X75013095Y-48503390D01*
X75013095Y-48503390D02*
X74965476Y-48551009D01*
X74965476Y-48551009D02*
X74917857Y-48646247D01*
X72426905Y-46604819D02*
X72426905Y-45604819D01*
X72426905Y-45604819D02*
X72665000Y-45604819D01*
X72665000Y-45604819D02*
X72807857Y-45652438D01*
X72807857Y-45652438D02*
X72903095Y-45747676D01*
X72903095Y-45747676D02*
X72950714Y-45842914D01*
X72950714Y-45842914D02*
X72998333Y-46033390D01*
X72998333Y-46033390D02*
X72998333Y-46176247D01*
X72998333Y-46176247D02*
X72950714Y-46366723D01*
X72950714Y-46366723D02*
X72903095Y-46461961D01*
X72903095Y-46461961D02*
X72807857Y-46557200D01*
X72807857Y-46557200D02*
X72665000Y-46604819D01*
X72665000Y-46604819D02*
X72426905Y-46604819D01*
X73331667Y-45604819D02*
X73950714Y-45604819D01*
X73950714Y-45604819D02*
X73617381Y-45985771D01*
X73617381Y-45985771D02*
X73760238Y-45985771D01*
X73760238Y-45985771D02*
X73855476Y-46033390D01*
X73855476Y-46033390D02*
X73903095Y-46081009D01*
X73903095Y-46081009D02*
X73950714Y-46176247D01*
X73950714Y-46176247D02*
X73950714Y-46414342D01*
X73950714Y-46414342D02*
X73903095Y-46509580D01*
X73903095Y-46509580D02*
X73855476Y-46557200D01*
X73855476Y-46557200D02*
X73760238Y-46604819D01*
X73760238Y-46604819D02*
X73474524Y-46604819D01*
X73474524Y-46604819D02*
X73379286Y-46557200D01*
X73379286Y-46557200D02*
X73331667Y-46509580D01*
X67433095Y-44504819D02*
X67433095Y-43504819D01*
X68004523Y-44504819D02*
X67575952Y-43933390D01*
X68004523Y-43504819D02*
X67433095Y-44076247D01*
X34812142Y-55324819D02*
X34240714Y-55324819D01*
X34526428Y-55324819D02*
X34526428Y-54324819D01*
X34526428Y-54324819D02*
X34431190Y-54467676D01*
X34431190Y-54467676D02*
X34335952Y-54562914D01*
X34335952Y-54562914D02*
X34240714Y-54610533D01*
X35240714Y-55324819D02*
X35240714Y-54324819D01*
X35240714Y-54324819D02*
X35812142Y-55324819D01*
X35812142Y-55324819D02*
X35812142Y-54324819D01*
X36716904Y-54658152D02*
X36716904Y-55324819D01*
X36478809Y-54277200D02*
X36240714Y-54991485D01*
X36240714Y-54991485D02*
X36859761Y-54991485D01*
X37431190Y-54324819D02*
X37526428Y-54324819D01*
X37526428Y-54324819D02*
X37621666Y-54372438D01*
X37621666Y-54372438D02*
X37669285Y-54420057D01*
X37669285Y-54420057D02*
X37716904Y-54515295D01*
X37716904Y-54515295D02*
X37764523Y-54705771D01*
X37764523Y-54705771D02*
X37764523Y-54943866D01*
X37764523Y-54943866D02*
X37716904Y-55134342D01*
X37716904Y-55134342D02*
X37669285Y-55229580D01*
X37669285Y-55229580D02*
X37621666Y-55277200D01*
X37621666Y-55277200D02*
X37526428Y-55324819D01*
X37526428Y-55324819D02*
X37431190Y-55324819D01*
X37431190Y-55324819D02*
X37335952Y-55277200D01*
X37335952Y-55277200D02*
X37288333Y-55229580D01*
X37288333Y-55229580D02*
X37240714Y-55134342D01*
X37240714Y-55134342D02*
X37193095Y-54943866D01*
X37193095Y-54943866D02*
X37193095Y-54705771D01*
X37193095Y-54705771D02*
X37240714Y-54515295D01*
X37240714Y-54515295D02*
X37288333Y-54420057D01*
X37288333Y-54420057D02*
X37335952Y-54372438D01*
X37335952Y-54372438D02*
X37431190Y-54324819D01*
X38383571Y-54324819D02*
X38478809Y-54324819D01*
X38478809Y-54324819D02*
X38574047Y-54372438D01*
X38574047Y-54372438D02*
X38621666Y-54420057D01*
X38621666Y-54420057D02*
X38669285Y-54515295D01*
X38669285Y-54515295D02*
X38716904Y-54705771D01*
X38716904Y-54705771D02*
X38716904Y-54943866D01*
X38716904Y-54943866D02*
X38669285Y-55134342D01*
X38669285Y-55134342D02*
X38621666Y-55229580D01*
X38621666Y-55229580D02*
X38574047Y-55277200D01*
X38574047Y-55277200D02*
X38478809Y-55324819D01*
X38478809Y-55324819D02*
X38383571Y-55324819D01*
X38383571Y-55324819D02*
X38288333Y-55277200D01*
X38288333Y-55277200D02*
X38240714Y-55229580D01*
X38240714Y-55229580D02*
X38193095Y-55134342D01*
X38193095Y-55134342D02*
X38145476Y-54943866D01*
X38145476Y-54943866D02*
X38145476Y-54705771D01*
X38145476Y-54705771D02*
X38193095Y-54515295D01*
X38193095Y-54515295D02*
X38240714Y-54420057D01*
X38240714Y-54420057D02*
X38288333Y-54372438D01*
X38288333Y-54372438D02*
X38383571Y-54324819D01*
X39574047Y-54324819D02*
X39383571Y-54324819D01*
X39383571Y-54324819D02*
X39288333Y-54372438D01*
X39288333Y-54372438D02*
X39240714Y-54420057D01*
X39240714Y-54420057D02*
X39145476Y-54562914D01*
X39145476Y-54562914D02*
X39097857Y-54753390D01*
X39097857Y-54753390D02*
X39097857Y-55134342D01*
X39097857Y-55134342D02*
X39145476Y-55229580D01*
X39145476Y-55229580D02*
X39193095Y-55277200D01*
X39193095Y-55277200D02*
X39288333Y-55324819D01*
X39288333Y-55324819D02*
X39478809Y-55324819D01*
X39478809Y-55324819D02*
X39574047Y-55277200D01*
X39574047Y-55277200D02*
X39621666Y-55229580D01*
X39621666Y-55229580D02*
X39669285Y-55134342D01*
X39669285Y-55134342D02*
X39669285Y-54896247D01*
X39669285Y-54896247D02*
X39621666Y-54801009D01*
X39621666Y-54801009D02*
X39574047Y-54753390D01*
X39574047Y-54753390D02*
X39478809Y-54705771D01*
X39478809Y-54705771D02*
X39288333Y-54705771D01*
X39288333Y-54705771D02*
X39193095Y-54753390D01*
X39193095Y-54753390D02*
X39145476Y-54801009D01*
X39145476Y-54801009D02*
X39097857Y-54896247D01*
X36606905Y-52854819D02*
X36606905Y-51854819D01*
X36606905Y-51854819D02*
X36845000Y-51854819D01*
X36845000Y-51854819D02*
X36987857Y-51902438D01*
X36987857Y-51902438D02*
X37083095Y-51997676D01*
X37083095Y-51997676D02*
X37130714Y-52092914D01*
X37130714Y-52092914D02*
X37178333Y-52283390D01*
X37178333Y-52283390D02*
X37178333Y-52426247D01*
X37178333Y-52426247D02*
X37130714Y-52616723D01*
X37130714Y-52616723D02*
X37083095Y-52711961D01*
X37083095Y-52711961D02*
X36987857Y-52807200D01*
X36987857Y-52807200D02*
X36845000Y-52854819D01*
X36845000Y-52854819D02*
X36606905Y-52854819D01*
X38035476Y-52188152D02*
X38035476Y-52854819D01*
X37797381Y-51807200D02*
X37559286Y-52521485D01*
X37559286Y-52521485D02*
X38178333Y-52521485D01*
X31613095Y-50754819D02*
X31613095Y-49754819D01*
X32184523Y-50754819D02*
X31755952Y-50183390D01*
X32184523Y-49754819D02*
X31613095Y-50326247D01*
X52722142Y-49074819D02*
X52150714Y-49074819D01*
X52436428Y-49074819D02*
X52436428Y-48074819D01*
X52436428Y-48074819D02*
X52341190Y-48217676D01*
X52341190Y-48217676D02*
X52245952Y-48312914D01*
X52245952Y-48312914D02*
X52150714Y-48360533D01*
X53150714Y-49074819D02*
X53150714Y-48074819D01*
X53150714Y-48074819D02*
X53722142Y-49074819D01*
X53722142Y-49074819D02*
X53722142Y-48074819D01*
X54626904Y-48408152D02*
X54626904Y-49074819D01*
X54388809Y-48027200D02*
X54150714Y-48741485D01*
X54150714Y-48741485D02*
X54769761Y-48741485D01*
X55341190Y-48074819D02*
X55436428Y-48074819D01*
X55436428Y-48074819D02*
X55531666Y-48122438D01*
X55531666Y-48122438D02*
X55579285Y-48170057D01*
X55579285Y-48170057D02*
X55626904Y-48265295D01*
X55626904Y-48265295D02*
X55674523Y-48455771D01*
X55674523Y-48455771D02*
X55674523Y-48693866D01*
X55674523Y-48693866D02*
X55626904Y-48884342D01*
X55626904Y-48884342D02*
X55579285Y-48979580D01*
X55579285Y-48979580D02*
X55531666Y-49027200D01*
X55531666Y-49027200D02*
X55436428Y-49074819D01*
X55436428Y-49074819D02*
X55341190Y-49074819D01*
X55341190Y-49074819D02*
X55245952Y-49027200D01*
X55245952Y-49027200D02*
X55198333Y-48979580D01*
X55198333Y-48979580D02*
X55150714Y-48884342D01*
X55150714Y-48884342D02*
X55103095Y-48693866D01*
X55103095Y-48693866D02*
X55103095Y-48455771D01*
X55103095Y-48455771D02*
X55150714Y-48265295D01*
X55150714Y-48265295D02*
X55198333Y-48170057D01*
X55198333Y-48170057D02*
X55245952Y-48122438D01*
X55245952Y-48122438D02*
X55341190Y-48074819D01*
X56293571Y-48074819D02*
X56388809Y-48074819D01*
X56388809Y-48074819D02*
X56484047Y-48122438D01*
X56484047Y-48122438D02*
X56531666Y-48170057D01*
X56531666Y-48170057D02*
X56579285Y-48265295D01*
X56579285Y-48265295D02*
X56626904Y-48455771D01*
X56626904Y-48455771D02*
X56626904Y-48693866D01*
X56626904Y-48693866D02*
X56579285Y-48884342D01*
X56579285Y-48884342D02*
X56531666Y-48979580D01*
X56531666Y-48979580D02*
X56484047Y-49027200D01*
X56484047Y-49027200D02*
X56388809Y-49074819D01*
X56388809Y-49074819D02*
X56293571Y-49074819D01*
X56293571Y-49074819D02*
X56198333Y-49027200D01*
X56198333Y-49027200D02*
X56150714Y-48979580D01*
X56150714Y-48979580D02*
X56103095Y-48884342D01*
X56103095Y-48884342D02*
X56055476Y-48693866D01*
X56055476Y-48693866D02*
X56055476Y-48455771D01*
X56055476Y-48455771D02*
X56103095Y-48265295D01*
X56103095Y-48265295D02*
X56150714Y-48170057D01*
X56150714Y-48170057D02*
X56198333Y-48122438D01*
X56198333Y-48122438D02*
X56293571Y-48074819D01*
X57484047Y-48074819D02*
X57293571Y-48074819D01*
X57293571Y-48074819D02*
X57198333Y-48122438D01*
X57198333Y-48122438D02*
X57150714Y-48170057D01*
X57150714Y-48170057D02*
X57055476Y-48312914D01*
X57055476Y-48312914D02*
X57007857Y-48503390D01*
X57007857Y-48503390D02*
X57007857Y-48884342D01*
X57007857Y-48884342D02*
X57055476Y-48979580D01*
X57055476Y-48979580D02*
X57103095Y-49027200D01*
X57103095Y-49027200D02*
X57198333Y-49074819D01*
X57198333Y-49074819D02*
X57388809Y-49074819D01*
X57388809Y-49074819D02*
X57484047Y-49027200D01*
X57484047Y-49027200D02*
X57531666Y-48979580D01*
X57531666Y-48979580D02*
X57579285Y-48884342D01*
X57579285Y-48884342D02*
X57579285Y-48646247D01*
X57579285Y-48646247D02*
X57531666Y-48551009D01*
X57531666Y-48551009D02*
X57484047Y-48503390D01*
X57484047Y-48503390D02*
X57388809Y-48455771D01*
X57388809Y-48455771D02*
X57198333Y-48455771D01*
X57198333Y-48455771D02*
X57103095Y-48503390D01*
X57103095Y-48503390D02*
X57055476Y-48551009D01*
X57055476Y-48551009D02*
X57007857Y-48646247D01*
X54516905Y-46604819D02*
X54516905Y-45604819D01*
X54516905Y-45604819D02*
X54755000Y-45604819D01*
X54755000Y-45604819D02*
X54897857Y-45652438D01*
X54897857Y-45652438D02*
X54993095Y-45747676D01*
X54993095Y-45747676D02*
X55040714Y-45842914D01*
X55040714Y-45842914D02*
X55088333Y-46033390D01*
X55088333Y-46033390D02*
X55088333Y-46176247D01*
X55088333Y-46176247D02*
X55040714Y-46366723D01*
X55040714Y-46366723D02*
X54993095Y-46461961D01*
X54993095Y-46461961D02*
X54897857Y-46557200D01*
X54897857Y-46557200D02*
X54755000Y-46604819D01*
X54755000Y-46604819D02*
X54516905Y-46604819D01*
X55469286Y-45700057D02*
X55516905Y-45652438D01*
X55516905Y-45652438D02*
X55612143Y-45604819D01*
X55612143Y-45604819D02*
X55850238Y-45604819D01*
X55850238Y-45604819D02*
X55945476Y-45652438D01*
X55945476Y-45652438D02*
X55993095Y-45700057D01*
X55993095Y-45700057D02*
X56040714Y-45795295D01*
X56040714Y-45795295D02*
X56040714Y-45890533D01*
X56040714Y-45890533D02*
X55993095Y-46033390D01*
X55993095Y-46033390D02*
X55421667Y-46604819D01*
X55421667Y-46604819D02*
X56040714Y-46604819D01*
X49523095Y-44504819D02*
X49523095Y-43504819D01*
X50094523Y-44504819D02*
X49665952Y-43933390D01*
X50094523Y-43504819D02*
X49523095Y-44076247D01*
X58884161Y-90674819D02*
X58312733Y-90674819D01*
X58598447Y-90674819D02*
X58598447Y-89674819D01*
X58598447Y-89674819D02*
X58503209Y-89817676D01*
X58503209Y-89817676D02*
X58407971Y-89912914D01*
X58407971Y-89912914D02*
X58312733Y-89960533D01*
X59503209Y-89674819D02*
X59598447Y-89674819D01*
X59598447Y-89674819D02*
X59693685Y-89722438D01*
X59693685Y-89722438D02*
X59741304Y-89770057D01*
X59741304Y-89770057D02*
X59788923Y-89865295D01*
X59788923Y-89865295D02*
X59836542Y-90055771D01*
X59836542Y-90055771D02*
X59836542Y-90293866D01*
X59836542Y-90293866D02*
X59788923Y-90484342D01*
X59788923Y-90484342D02*
X59741304Y-90579580D01*
X59741304Y-90579580D02*
X59693685Y-90627200D01*
X59693685Y-90627200D02*
X59598447Y-90674819D01*
X59598447Y-90674819D02*
X59503209Y-90674819D01*
X59503209Y-90674819D02*
X59407971Y-90627200D01*
X59407971Y-90627200D02*
X59360352Y-90579580D01*
X59360352Y-90579580D02*
X59312733Y-90484342D01*
X59312733Y-90484342D02*
X59265114Y-90293866D01*
X59265114Y-90293866D02*
X59265114Y-90055771D01*
X59265114Y-90055771D02*
X59312733Y-89865295D01*
X59312733Y-89865295D02*
X59360352Y-89770057D01*
X59360352Y-89770057D02*
X59407971Y-89722438D01*
X59407971Y-89722438D02*
X59503209Y-89674819D01*
X60265114Y-90674819D02*
X60265114Y-89674819D01*
X60360352Y-90293866D02*
X60646066Y-90674819D01*
X60646066Y-90008152D02*
X60265114Y-90389104D01*
X59312733Y-88304819D02*
X58979400Y-87828628D01*
X58741305Y-88304819D02*
X58741305Y-87304819D01*
X58741305Y-87304819D02*
X59122257Y-87304819D01*
X59122257Y-87304819D02*
X59217495Y-87352438D01*
X59217495Y-87352438D02*
X59265114Y-87400057D01*
X59265114Y-87400057D02*
X59312733Y-87495295D01*
X59312733Y-87495295D02*
X59312733Y-87638152D01*
X59312733Y-87638152D02*
X59265114Y-87733390D01*
X59265114Y-87733390D02*
X59217495Y-87781009D01*
X59217495Y-87781009D02*
X59122257Y-87828628D01*
X59122257Y-87828628D02*
X58741305Y-87828628D01*
X60265114Y-88304819D02*
X59693686Y-88304819D01*
X59979400Y-88304819D02*
X59979400Y-87304819D01*
X59979400Y-87304819D02*
X59884162Y-87447676D01*
X59884162Y-87447676D02*
X59788924Y-87542914D01*
X59788924Y-87542914D02*
X59693686Y-87590533D01*
X34812142Y-49074819D02*
X34240714Y-49074819D01*
X34526428Y-49074819D02*
X34526428Y-48074819D01*
X34526428Y-48074819D02*
X34431190Y-48217676D01*
X34431190Y-48217676D02*
X34335952Y-48312914D01*
X34335952Y-48312914D02*
X34240714Y-48360533D01*
X35240714Y-49074819D02*
X35240714Y-48074819D01*
X35240714Y-48074819D02*
X35812142Y-49074819D01*
X35812142Y-49074819D02*
X35812142Y-48074819D01*
X36716904Y-48408152D02*
X36716904Y-49074819D01*
X36478809Y-48027200D02*
X36240714Y-48741485D01*
X36240714Y-48741485D02*
X36859761Y-48741485D01*
X37431190Y-48074819D02*
X37526428Y-48074819D01*
X37526428Y-48074819D02*
X37621666Y-48122438D01*
X37621666Y-48122438D02*
X37669285Y-48170057D01*
X37669285Y-48170057D02*
X37716904Y-48265295D01*
X37716904Y-48265295D02*
X37764523Y-48455771D01*
X37764523Y-48455771D02*
X37764523Y-48693866D01*
X37764523Y-48693866D02*
X37716904Y-48884342D01*
X37716904Y-48884342D02*
X37669285Y-48979580D01*
X37669285Y-48979580D02*
X37621666Y-49027200D01*
X37621666Y-49027200D02*
X37526428Y-49074819D01*
X37526428Y-49074819D02*
X37431190Y-49074819D01*
X37431190Y-49074819D02*
X37335952Y-49027200D01*
X37335952Y-49027200D02*
X37288333Y-48979580D01*
X37288333Y-48979580D02*
X37240714Y-48884342D01*
X37240714Y-48884342D02*
X37193095Y-48693866D01*
X37193095Y-48693866D02*
X37193095Y-48455771D01*
X37193095Y-48455771D02*
X37240714Y-48265295D01*
X37240714Y-48265295D02*
X37288333Y-48170057D01*
X37288333Y-48170057D02*
X37335952Y-48122438D01*
X37335952Y-48122438D02*
X37431190Y-48074819D01*
X38383571Y-48074819D02*
X38478809Y-48074819D01*
X38478809Y-48074819D02*
X38574047Y-48122438D01*
X38574047Y-48122438D02*
X38621666Y-48170057D01*
X38621666Y-48170057D02*
X38669285Y-48265295D01*
X38669285Y-48265295D02*
X38716904Y-48455771D01*
X38716904Y-48455771D02*
X38716904Y-48693866D01*
X38716904Y-48693866D02*
X38669285Y-48884342D01*
X38669285Y-48884342D02*
X38621666Y-48979580D01*
X38621666Y-48979580D02*
X38574047Y-49027200D01*
X38574047Y-49027200D02*
X38478809Y-49074819D01*
X38478809Y-49074819D02*
X38383571Y-49074819D01*
X38383571Y-49074819D02*
X38288333Y-49027200D01*
X38288333Y-49027200D02*
X38240714Y-48979580D01*
X38240714Y-48979580D02*
X38193095Y-48884342D01*
X38193095Y-48884342D02*
X38145476Y-48693866D01*
X38145476Y-48693866D02*
X38145476Y-48455771D01*
X38145476Y-48455771D02*
X38193095Y-48265295D01*
X38193095Y-48265295D02*
X38240714Y-48170057D01*
X38240714Y-48170057D02*
X38288333Y-48122438D01*
X38288333Y-48122438D02*
X38383571Y-48074819D01*
X39574047Y-48074819D02*
X39383571Y-48074819D01*
X39383571Y-48074819D02*
X39288333Y-48122438D01*
X39288333Y-48122438D02*
X39240714Y-48170057D01*
X39240714Y-48170057D02*
X39145476Y-48312914D01*
X39145476Y-48312914D02*
X39097857Y-48503390D01*
X39097857Y-48503390D02*
X39097857Y-48884342D01*
X39097857Y-48884342D02*
X39145476Y-48979580D01*
X39145476Y-48979580D02*
X39193095Y-49027200D01*
X39193095Y-49027200D02*
X39288333Y-49074819D01*
X39288333Y-49074819D02*
X39478809Y-49074819D01*
X39478809Y-49074819D02*
X39574047Y-49027200D01*
X39574047Y-49027200D02*
X39621666Y-48979580D01*
X39621666Y-48979580D02*
X39669285Y-48884342D01*
X39669285Y-48884342D02*
X39669285Y-48646247D01*
X39669285Y-48646247D02*
X39621666Y-48551009D01*
X39621666Y-48551009D02*
X39574047Y-48503390D01*
X39574047Y-48503390D02*
X39478809Y-48455771D01*
X39478809Y-48455771D02*
X39288333Y-48455771D01*
X39288333Y-48455771D02*
X39193095Y-48503390D01*
X39193095Y-48503390D02*
X39145476Y-48551009D01*
X39145476Y-48551009D02*
X39097857Y-48646247D01*
X36606905Y-46604819D02*
X36606905Y-45604819D01*
X36606905Y-45604819D02*
X36845000Y-45604819D01*
X36845000Y-45604819D02*
X36987857Y-45652438D01*
X36987857Y-45652438D02*
X37083095Y-45747676D01*
X37083095Y-45747676D02*
X37130714Y-45842914D01*
X37130714Y-45842914D02*
X37178333Y-46033390D01*
X37178333Y-46033390D02*
X37178333Y-46176247D01*
X37178333Y-46176247D02*
X37130714Y-46366723D01*
X37130714Y-46366723D02*
X37083095Y-46461961D01*
X37083095Y-46461961D02*
X36987857Y-46557200D01*
X36987857Y-46557200D02*
X36845000Y-46604819D01*
X36845000Y-46604819D02*
X36606905Y-46604819D01*
X38130714Y-46604819D02*
X37559286Y-46604819D01*
X37845000Y-46604819D02*
X37845000Y-45604819D01*
X37845000Y-45604819D02*
X37749762Y-45747676D01*
X37749762Y-45747676D02*
X37654524Y-45842914D01*
X37654524Y-45842914D02*
X37559286Y-45890533D01*
X31613095Y-44504819D02*
X31613095Y-43504819D01*
X32184523Y-44504819D02*
X31755952Y-43933390D01*
X32184523Y-43504819D02*
X31613095Y-44076247D01*
D11*
%TO.C,C1*%
X32582129Y-62352500D02*
X34382129Y-62352500D01*
X33482129Y-61452500D02*
X33482129Y-63252500D01*
X49319400Y-66300000D02*
G75*
G02*
X31319400Y-66300000I-9000000J0D01*
G01*
X31319400Y-66300000D02*
G75*
G02*
X49319400Y-66300000I9000000J0D01*
G01*
%TO.C,C3*%
X32582129Y-83902500D02*
X34382129Y-83902500D01*
X33482129Y-83002500D02*
X33482129Y-84802500D01*
X49319400Y-87850000D02*
G75*
G02*
X31319400Y-87850000I-9000000J0D01*
G01*
X31319400Y-87850000D02*
G75*
G02*
X49319400Y-87850000I9000000J0D01*
G01*
%TO.C,J1*%
X27450000Y-28250000D02*
X42550000Y-28250000D01*
X27450000Y-35750000D02*
X27450000Y-28250000D01*
X42550000Y-28250000D02*
X42550000Y-35750000D01*
X42550000Y-29450000D02*
X27450000Y-29450000D01*
X42550000Y-35750000D02*
X27450000Y-35750000D01*
%TO.C,J2*%
X104000000Y-28250000D02*
X104000000Y-35750000D01*
X104000000Y-35750000D02*
X114000000Y-35750000D01*
X104050000Y-34550000D02*
X113950000Y-34550000D01*
X114000000Y-28250000D02*
X104000000Y-28250000D01*
X114000000Y-35750000D02*
X114000000Y-28250000D01*
%TO.C,D6*%
X67695000Y-52400000D02*
X70175000Y-52400000D01*
X70855000Y-51050000D02*
X70855000Y-53750000D01*
X70955000Y-51050000D02*
X70955000Y-53750000D01*
X71055000Y-51050000D02*
X71055000Y-53750000D01*
X77855000Y-52400000D02*
X75375000Y-52400000D01*
X70175000Y-51050000D02*
X75375000Y-51050000D01*
X75375000Y-53750000D01*
X70175000Y-53750000D01*
X70175000Y-51050000D01*
%TO.C,D5*%
X49785000Y-52400000D02*
X52265000Y-52400000D01*
X52945000Y-51050000D02*
X52945000Y-53750000D01*
X53045000Y-51050000D02*
X53045000Y-53750000D01*
X53145000Y-51050000D02*
X53145000Y-53750000D01*
X59945000Y-52400000D02*
X57465000Y-52400000D01*
X52265000Y-51050000D02*
X57465000Y-51050000D01*
X57465000Y-53750000D01*
X52265000Y-53750000D01*
X52265000Y-51050000D01*
%TO.C,C2*%
X56676629Y-62352500D02*
X58476629Y-62352500D01*
X57576629Y-61452500D02*
X57576629Y-63252500D01*
X73413900Y-66300000D02*
G75*
G02*
X55413900Y-66300000I-9000000J0D01*
G01*
X55413900Y-66300000D02*
G75*
G02*
X73413900Y-66300000I9000000J0D01*
G01*
%TO.C,D3*%
X67695000Y-46150000D02*
X70175000Y-46150000D01*
X70855000Y-44800000D02*
X70855000Y-47500000D01*
X70955000Y-44800000D02*
X70955000Y-47500000D01*
X71055000Y-44800000D02*
X71055000Y-47500000D01*
X77855000Y-46150000D02*
X75375000Y-46150000D01*
X70175000Y-44800000D02*
X75375000Y-44800000D01*
X75375000Y-47500000D01*
X70175000Y-47500000D01*
X70175000Y-44800000D01*
%TO.C,D4*%
X31875000Y-52400000D02*
X34355000Y-52400000D01*
X35035000Y-51050000D02*
X35035000Y-53750000D01*
X35135000Y-51050000D02*
X35135000Y-53750000D01*
X35235000Y-51050000D02*
X35235000Y-53750000D01*
X42035000Y-52400000D02*
X39555000Y-52400000D01*
X34355000Y-51050000D02*
X39555000Y-51050000D01*
X39555000Y-53750000D01*
X34355000Y-53750000D01*
X34355000Y-51050000D01*
%TO.C,D2*%
X49785000Y-46150000D02*
X52265000Y-46150000D01*
X52945000Y-44800000D02*
X52945000Y-47500000D01*
X53045000Y-44800000D02*
X53045000Y-47500000D01*
X53145000Y-44800000D02*
X53145000Y-47500000D01*
X59945000Y-46150000D02*
X57465000Y-46150000D01*
X52265000Y-44800000D02*
X57465000Y-44800000D01*
X57465000Y-47500000D01*
X52265000Y-47500000D01*
X52265000Y-44800000D01*
%TO.C,R1*%
X55669400Y-87850000D02*
X56329400Y-87850000D01*
X63289400Y-87850000D02*
X62629400Y-87850000D01*
X56329400Y-86600000D02*
X62629400Y-86600000D01*
X62629400Y-89100000D01*
X56329400Y-89100000D01*
X56329400Y-86600000D01*
%TO.C,D1*%
X31875000Y-46150000D02*
X34355000Y-46150000D01*
X35035000Y-44800000D02*
X35035000Y-47500000D01*
X35135000Y-44800000D02*
X35135000Y-47500000D01*
X35235000Y-44800000D02*
X35235000Y-47500000D01*
X42035000Y-46150000D02*
X39555000Y-46150000D01*
X34355000Y-44800000D02*
X39555000Y-44800000D01*
X39555000Y-47500000D01*
X34355000Y-47500000D01*
X34355000Y-44800000D01*
%TD*%
M02*
