M48
; DRILL file {KiCad 9.0.4} date 2026-06-11T08:54:49+0200
; FORMAT={-:-/ absolute / metric / decimal}
; #@! TF.CreationDate,2026-06-11T08:54:49+02:00
; #@! TF.GenerationSoftware,Kicad,Pcbnew,9.0.4
; #@! TF.FileFunction,MixedPlating,1,2
FMAT,2
METRIC
; #@! TA.AperFunction,Plated,PTH,ComponentDrill
T1C0.800
; #@! TA.AperFunction,Plated,PTH,ComponentDrill
T2C1.100
; #@! TA.AperFunction,Plated,PTH,ComponentDrill
T3C1.200
; #@! TA.AperFunction,Plated,PTH,ComponentDrill
T4C1.520
%
G90
G05
T1
X74.079Y-91.787
X81.699Y-91.787
T2
X50.285Y-50.087
X50.285Y-56.337
X60.445Y-50.087
X60.445Y-56.337
X68.195Y-50.087
X68.195Y-56.337
X78.355Y-50.087
X78.355Y-56.337
X86.105Y-50.087
X86.105Y-56.337
X96.265Y-50.087
X96.265Y-56.337
T3
X54.979Y-70.237
X54.979Y-91.787
X62.479Y-70.237
X62.479Y-91.787
X79.074Y-70.237
X86.574Y-70.237
T4
X28.33Y-46.962
X33.41Y-46.962
X38.49Y-46.962
X110.6Y-46.962
X115.68Y-46.962
M30
