%TF.GenerationSoftware,KiCad,Pcbnew,9.0.6*%
%TF.CreationDate,2026-06-10T07:38:56+02:00*%
%TF.ProjectId,rectifier,72656374-6966-4696-9572-2e6b69636164,rev?*%
%TF.SameCoordinates,Original*%
%TF.FileFunction,AssemblyDrawing,Top*%
%FSLAX46Y46*%
G04 Gerber Fmt 4.6, Leading zero omitted, Abs format (unit mm)*
G04 Created by KiCad (PCBNEW 9.0.6) date 2026-06-10 07:38:56*
%MOMM*%
%LPD*%
G01*
G04 APERTURE LIST*
%ADD10C,0.150000*%
%ADD11C,0.100000*%
G04 APERTURE END LIST*
D10*
X57312142Y-52949819D02*
X56740714Y-52949819D01*
X57026428Y-52949819D02*
X57026428Y-51949819D01*
X57026428Y-51949819D02*
X56931190Y-52092676D01*
X56931190Y-52092676D02*
X56835952Y-52187914D01*
X56835952Y-52187914D02*
X56740714Y-52235533D01*
X57740714Y-52949819D02*
X57740714Y-51949819D01*
X57740714Y-51949819D02*
X58312142Y-52949819D01*
X58312142Y-52949819D02*
X58312142Y-51949819D01*
X59216904Y-52283152D02*
X59216904Y-52949819D01*
X58978809Y-51902200D02*
X58740714Y-52616485D01*
X58740714Y-52616485D02*
X59359761Y-52616485D01*
X59931190Y-51949819D02*
X60026428Y-51949819D01*
X60026428Y-51949819D02*
X60121666Y-51997438D01*
X60121666Y-51997438D02*
X60169285Y-52045057D01*
X60169285Y-52045057D02*
X60216904Y-52140295D01*
X60216904Y-52140295D02*
X60264523Y-52330771D01*
X60264523Y-52330771D02*
X60264523Y-52568866D01*
X60264523Y-52568866D02*
X60216904Y-52759342D01*
X60216904Y-52759342D02*
X60169285Y-52854580D01*
X60169285Y-52854580D02*
X60121666Y-52902200D01*
X60121666Y-52902200D02*
X60026428Y-52949819D01*
X60026428Y-52949819D02*
X59931190Y-52949819D01*
X59931190Y-52949819D02*
X59835952Y-52902200D01*
X59835952Y-52902200D02*
X59788333Y-52854580D01*
X59788333Y-52854580D02*
X59740714Y-52759342D01*
X59740714Y-52759342D02*
X59693095Y-52568866D01*
X59693095Y-52568866D02*
X59693095Y-52330771D01*
X59693095Y-52330771D02*
X59740714Y-52140295D01*
X59740714Y-52140295D02*
X59788333Y-52045057D01*
X59788333Y-52045057D02*
X59835952Y-51997438D01*
X59835952Y-51997438D02*
X59931190Y-51949819D01*
X60883571Y-51949819D02*
X60978809Y-51949819D01*
X60978809Y-51949819D02*
X61074047Y-51997438D01*
X61074047Y-51997438D02*
X61121666Y-52045057D01*
X61121666Y-52045057D02*
X61169285Y-52140295D01*
X61169285Y-52140295D02*
X61216904Y-52330771D01*
X61216904Y-52330771D02*
X61216904Y-52568866D01*
X61216904Y-52568866D02*
X61169285Y-52759342D01*
X61169285Y-52759342D02*
X61121666Y-52854580D01*
X61121666Y-52854580D02*
X61074047Y-52902200D01*
X61074047Y-52902200D02*
X60978809Y-52949819D01*
X60978809Y-52949819D02*
X60883571Y-52949819D01*
X60883571Y-52949819D02*
X60788333Y-52902200D01*
X60788333Y-52902200D02*
X60740714Y-52854580D01*
X60740714Y-52854580D02*
X60693095Y-52759342D01*
X60693095Y-52759342D02*
X60645476Y-52568866D01*
X60645476Y-52568866D02*
X60645476Y-52330771D01*
X60645476Y-52330771D02*
X60693095Y-52140295D01*
X60693095Y-52140295D02*
X60740714Y-52045057D01*
X60740714Y-52045057D02*
X60788333Y-51997438D01*
X60788333Y-51997438D02*
X60883571Y-51949819D01*
X62074047Y-51949819D02*
X61883571Y-51949819D01*
X61883571Y-51949819D02*
X61788333Y-51997438D01*
X61788333Y-51997438D02*
X61740714Y-52045057D01*
X61740714Y-52045057D02*
X61645476Y-52187914D01*
X61645476Y-52187914D02*
X61597857Y-52378390D01*
X61597857Y-52378390D02*
X61597857Y-52759342D01*
X61597857Y-52759342D02*
X61645476Y-52854580D01*
X61645476Y-52854580D02*
X61693095Y-52902200D01*
X61693095Y-52902200D02*
X61788333Y-52949819D01*
X61788333Y-52949819D02*
X61978809Y-52949819D01*
X61978809Y-52949819D02*
X62074047Y-52902200D01*
X62074047Y-52902200D02*
X62121666Y-52854580D01*
X62121666Y-52854580D02*
X62169285Y-52759342D01*
X62169285Y-52759342D02*
X62169285Y-52521247D01*
X62169285Y-52521247D02*
X62121666Y-52426009D01*
X62121666Y-52426009D02*
X62074047Y-52378390D01*
X62074047Y-52378390D02*
X61978809Y-52330771D01*
X61978809Y-52330771D02*
X61788333Y-52330771D01*
X61788333Y-52330771D02*
X61693095Y-52378390D01*
X61693095Y-52378390D02*
X61645476Y-52426009D01*
X61645476Y-52426009D02*
X61597857Y-52521247D01*
X59106905Y-50479819D02*
X59106905Y-49479819D01*
X59106905Y-49479819D02*
X59345000Y-49479819D01*
X59345000Y-49479819D02*
X59487857Y-49527438D01*
X59487857Y-49527438D02*
X59583095Y-49622676D01*
X59583095Y-49622676D02*
X59630714Y-49717914D01*
X59630714Y-49717914D02*
X59678333Y-49908390D01*
X59678333Y-49908390D02*
X59678333Y-50051247D01*
X59678333Y-50051247D02*
X59630714Y-50241723D01*
X59630714Y-50241723D02*
X59583095Y-50336961D01*
X59583095Y-50336961D02*
X59487857Y-50432200D01*
X59487857Y-50432200D02*
X59345000Y-50479819D01*
X59345000Y-50479819D02*
X59106905Y-50479819D01*
X60583095Y-49479819D02*
X60106905Y-49479819D01*
X60106905Y-49479819D02*
X60059286Y-49956009D01*
X60059286Y-49956009D02*
X60106905Y-49908390D01*
X60106905Y-49908390D02*
X60202143Y-49860771D01*
X60202143Y-49860771D02*
X60440238Y-49860771D01*
X60440238Y-49860771D02*
X60535476Y-49908390D01*
X60535476Y-49908390D02*
X60583095Y-49956009D01*
X60583095Y-49956009D02*
X60630714Y-50051247D01*
X60630714Y-50051247D02*
X60630714Y-50289342D01*
X60630714Y-50289342D02*
X60583095Y-50384580D01*
X60583095Y-50384580D02*
X60535476Y-50432200D01*
X60535476Y-50432200D02*
X60440238Y-50479819D01*
X60440238Y-50479819D02*
X60202143Y-50479819D01*
X60202143Y-50479819D02*
X60106905Y-50432200D01*
X60106905Y-50432200D02*
X60059286Y-50384580D01*
X54113095Y-48379819D02*
X54113095Y-47379819D01*
X54684523Y-48379819D02*
X54255952Y-47808390D01*
X54684523Y-47379819D02*
X54113095Y-47951247D01*
X78222142Y-37049819D02*
X77650714Y-37049819D01*
X77936428Y-37049819D02*
X77936428Y-36049819D01*
X77936428Y-36049819D02*
X77841190Y-36192676D01*
X77841190Y-36192676D02*
X77745952Y-36287914D01*
X77745952Y-36287914D02*
X77650714Y-36335533D01*
X78650714Y-37049819D02*
X78650714Y-36049819D01*
X78650714Y-36049819D02*
X79222142Y-37049819D01*
X79222142Y-37049819D02*
X79222142Y-36049819D01*
X80126904Y-36383152D02*
X80126904Y-37049819D01*
X79888809Y-36002200D02*
X79650714Y-36716485D01*
X79650714Y-36716485D02*
X80269761Y-36716485D01*
X80841190Y-36049819D02*
X80936428Y-36049819D01*
X80936428Y-36049819D02*
X81031666Y-36097438D01*
X81031666Y-36097438D02*
X81079285Y-36145057D01*
X81079285Y-36145057D02*
X81126904Y-36240295D01*
X81126904Y-36240295D02*
X81174523Y-36430771D01*
X81174523Y-36430771D02*
X81174523Y-36668866D01*
X81174523Y-36668866D02*
X81126904Y-36859342D01*
X81126904Y-36859342D02*
X81079285Y-36954580D01*
X81079285Y-36954580D02*
X81031666Y-37002200D01*
X81031666Y-37002200D02*
X80936428Y-37049819D01*
X80936428Y-37049819D02*
X80841190Y-37049819D01*
X80841190Y-37049819D02*
X80745952Y-37002200D01*
X80745952Y-37002200D02*
X80698333Y-36954580D01*
X80698333Y-36954580D02*
X80650714Y-36859342D01*
X80650714Y-36859342D02*
X80603095Y-36668866D01*
X80603095Y-36668866D02*
X80603095Y-36430771D01*
X80603095Y-36430771D02*
X80650714Y-36240295D01*
X80650714Y-36240295D02*
X80698333Y-36145057D01*
X80698333Y-36145057D02*
X80745952Y-36097438D01*
X80745952Y-36097438D02*
X80841190Y-36049819D01*
X81793571Y-36049819D02*
X81888809Y-36049819D01*
X81888809Y-36049819D02*
X81984047Y-36097438D01*
X81984047Y-36097438D02*
X82031666Y-36145057D01*
X82031666Y-36145057D02*
X82079285Y-36240295D01*
X82079285Y-36240295D02*
X82126904Y-36430771D01*
X82126904Y-36430771D02*
X82126904Y-36668866D01*
X82126904Y-36668866D02*
X82079285Y-36859342D01*
X82079285Y-36859342D02*
X82031666Y-36954580D01*
X82031666Y-36954580D02*
X81984047Y-37002200D01*
X81984047Y-37002200D02*
X81888809Y-37049819D01*
X81888809Y-37049819D02*
X81793571Y-37049819D01*
X81793571Y-37049819D02*
X81698333Y-37002200D01*
X81698333Y-37002200D02*
X81650714Y-36954580D01*
X81650714Y-36954580D02*
X81603095Y-36859342D01*
X81603095Y-36859342D02*
X81555476Y-36668866D01*
X81555476Y-36668866D02*
X81555476Y-36430771D01*
X81555476Y-36430771D02*
X81603095Y-36240295D01*
X81603095Y-36240295D02*
X81650714Y-36145057D01*
X81650714Y-36145057D02*
X81698333Y-36097438D01*
X81698333Y-36097438D02*
X81793571Y-36049819D01*
X82984047Y-36049819D02*
X82793571Y-36049819D01*
X82793571Y-36049819D02*
X82698333Y-36097438D01*
X82698333Y-36097438D02*
X82650714Y-36145057D01*
X82650714Y-36145057D02*
X82555476Y-36287914D01*
X82555476Y-36287914D02*
X82507857Y-36478390D01*
X82507857Y-36478390D02*
X82507857Y-36859342D01*
X82507857Y-36859342D02*
X82555476Y-36954580D01*
X82555476Y-36954580D02*
X82603095Y-37002200D01*
X82603095Y-37002200D02*
X82698333Y-37049819D01*
X82698333Y-37049819D02*
X82888809Y-37049819D01*
X82888809Y-37049819D02*
X82984047Y-37002200D01*
X82984047Y-37002200D02*
X83031666Y-36954580D01*
X83031666Y-36954580D02*
X83079285Y-36859342D01*
X83079285Y-36859342D02*
X83079285Y-36621247D01*
X83079285Y-36621247D02*
X83031666Y-36526009D01*
X83031666Y-36526009D02*
X82984047Y-36478390D01*
X82984047Y-36478390D02*
X82888809Y-36430771D01*
X82888809Y-36430771D02*
X82698333Y-36430771D01*
X82698333Y-36430771D02*
X82603095Y-36478390D01*
X82603095Y-36478390D02*
X82555476Y-36526009D01*
X82555476Y-36526009D02*
X82507857Y-36621247D01*
X75023095Y-32479819D02*
X75023095Y-31479819D01*
X75594523Y-32479819D02*
X75165952Y-31908390D01*
X75594523Y-31479819D02*
X75023095Y-32051247D01*
X80016905Y-34579819D02*
X80016905Y-33579819D01*
X80016905Y-33579819D02*
X80255000Y-33579819D01*
X80255000Y-33579819D02*
X80397857Y-33627438D01*
X80397857Y-33627438D02*
X80493095Y-33722676D01*
X80493095Y-33722676D02*
X80540714Y-33817914D01*
X80540714Y-33817914D02*
X80588333Y-34008390D01*
X80588333Y-34008390D02*
X80588333Y-34151247D01*
X80588333Y-34151247D02*
X80540714Y-34341723D01*
X80540714Y-34341723D02*
X80493095Y-34436961D01*
X80493095Y-34436961D02*
X80397857Y-34532200D01*
X80397857Y-34532200D02*
X80255000Y-34579819D01*
X80255000Y-34579819D02*
X80016905Y-34579819D01*
X80969286Y-33675057D02*
X81016905Y-33627438D01*
X81016905Y-33627438D02*
X81112143Y-33579819D01*
X81112143Y-33579819D02*
X81350238Y-33579819D01*
X81350238Y-33579819D02*
X81445476Y-33627438D01*
X81445476Y-33627438D02*
X81493095Y-33675057D01*
X81493095Y-33675057D02*
X81540714Y-33770295D01*
X81540714Y-33770295D02*
X81540714Y-33865533D01*
X81540714Y-33865533D02*
X81493095Y-34008390D01*
X81493095Y-34008390D02*
X80921667Y-34579819D01*
X80921667Y-34579819D02*
X81540714Y-34579819D01*
X148544762Y-36534819D02*
X148878095Y-37534819D01*
X148878095Y-37534819D02*
X149211428Y-36534819D01*
X150068571Y-37534819D02*
X149497143Y-37534819D01*
X149782857Y-37534819D02*
X149782857Y-36534819D01*
X149782857Y-36534819D02*
X149687619Y-36677676D01*
X149687619Y-36677676D02*
X149592381Y-36772914D01*
X149592381Y-36772914D02*
X149497143Y-36820533D01*
X151687619Y-36868152D02*
X151687619Y-37534819D01*
X151259048Y-36868152D02*
X151259048Y-37391961D01*
X151259048Y-37391961D02*
X151306667Y-37487200D01*
X151306667Y-37487200D02*
X151401905Y-37534819D01*
X151401905Y-37534819D02*
X151544762Y-37534819D01*
X151544762Y-37534819D02*
X151640000Y-37487200D01*
X151640000Y-37487200D02*
X151687619Y-37439580D01*
X152592381Y-37534819D02*
X152592381Y-36534819D01*
X152592381Y-37487200D02*
X152497143Y-37534819D01*
X152497143Y-37534819D02*
X152306667Y-37534819D01*
X152306667Y-37534819D02*
X152211429Y-37487200D01*
X152211429Y-37487200D02*
X152163810Y-37439580D01*
X152163810Y-37439580D02*
X152116191Y-37344342D01*
X152116191Y-37344342D02*
X152116191Y-37058628D01*
X152116191Y-37058628D02*
X152163810Y-36963390D01*
X152163810Y-36963390D02*
X152211429Y-36915771D01*
X152211429Y-36915771D02*
X152306667Y-36868152D01*
X152306667Y-36868152D02*
X152497143Y-36868152D01*
X152497143Y-36868152D02*
X152592381Y-36915771D01*
X150306666Y-31454819D02*
X150306666Y-32169104D01*
X150306666Y-32169104D02*
X150259047Y-32311961D01*
X150259047Y-32311961D02*
X150163809Y-32407200D01*
X150163809Y-32407200D02*
X150020952Y-32454819D01*
X150020952Y-32454819D02*
X149925714Y-32454819D01*
X150735238Y-31550057D02*
X150782857Y-31502438D01*
X150782857Y-31502438D02*
X150878095Y-31454819D01*
X150878095Y-31454819D02*
X151116190Y-31454819D01*
X151116190Y-31454819D02*
X151211428Y-31502438D01*
X151211428Y-31502438D02*
X151259047Y-31550057D01*
X151259047Y-31550057D02*
X151306666Y-31645295D01*
X151306666Y-31645295D02*
X151306666Y-31740533D01*
X151306666Y-31740533D02*
X151259047Y-31883390D01*
X151259047Y-31883390D02*
X150687619Y-32454819D01*
X150687619Y-32454819D02*
X151306666Y-32454819D01*
X86318661Y-83613152D02*
X86318661Y-84279819D01*
X86080566Y-83232200D02*
X85842471Y-83946485D01*
X85842471Y-83946485D02*
X86461518Y-83946485D01*
X86747233Y-83279819D02*
X87413899Y-83279819D01*
X87413899Y-83279819D02*
X86985328Y-84279819D01*
X87985328Y-83279819D02*
X88080566Y-83279819D01*
X88080566Y-83279819D02*
X88175804Y-83327438D01*
X88175804Y-83327438D02*
X88223423Y-83375057D01*
X88223423Y-83375057D02*
X88271042Y-83470295D01*
X88271042Y-83470295D02*
X88318661Y-83660771D01*
X88318661Y-83660771D02*
X88318661Y-83898866D01*
X88318661Y-83898866D02*
X88271042Y-84089342D01*
X88271042Y-84089342D02*
X88223423Y-84184580D01*
X88223423Y-84184580D02*
X88175804Y-84232200D01*
X88175804Y-84232200D02*
X88080566Y-84279819D01*
X88080566Y-84279819D02*
X87985328Y-84279819D01*
X87985328Y-84279819D02*
X87890090Y-84232200D01*
X87890090Y-84232200D02*
X87842471Y-84184580D01*
X87842471Y-84184580D02*
X87794852Y-84089342D01*
X87794852Y-84089342D02*
X87747233Y-83898866D01*
X87747233Y-83898866D02*
X87747233Y-83660771D01*
X87747233Y-83660771D02*
X87794852Y-83470295D01*
X87794852Y-83470295D02*
X87842471Y-83375057D01*
X87842471Y-83375057D02*
X87890090Y-83327438D01*
X87890090Y-83327438D02*
X87985328Y-83279819D01*
X88937709Y-83279819D02*
X89032947Y-83279819D01*
X89032947Y-83279819D02*
X89128185Y-83327438D01*
X89128185Y-83327438D02*
X89175804Y-83375057D01*
X89175804Y-83375057D02*
X89223423Y-83470295D01*
X89223423Y-83470295D02*
X89271042Y-83660771D01*
X89271042Y-83660771D02*
X89271042Y-83898866D01*
X89271042Y-83898866D02*
X89223423Y-84089342D01*
X89223423Y-84089342D02*
X89175804Y-84184580D01*
X89175804Y-84184580D02*
X89128185Y-84232200D01*
X89128185Y-84232200D02*
X89032947Y-84279819D01*
X89032947Y-84279819D02*
X88937709Y-84279819D01*
X88937709Y-84279819D02*
X88842471Y-84232200D01*
X88842471Y-84232200D02*
X88794852Y-84184580D01*
X88794852Y-84184580D02*
X88747233Y-84089342D01*
X88747233Y-84089342D02*
X88699614Y-83898866D01*
X88699614Y-83898866D02*
X88699614Y-83660771D01*
X88699614Y-83660771D02*
X88747233Y-83470295D01*
X88747233Y-83470295D02*
X88794852Y-83375057D01*
X88794852Y-83375057D02*
X88842471Y-83327438D01*
X88842471Y-83327438D02*
X88937709Y-83279819D01*
X90128185Y-83613152D02*
X90128185Y-84279819D01*
X89699614Y-83613152D02*
X89699614Y-84136961D01*
X89699614Y-84136961D02*
X89747233Y-84232200D01*
X89747233Y-84232200D02*
X89842471Y-84279819D01*
X89842471Y-84279819D02*
X89985328Y-84279819D01*
X89985328Y-84279819D02*
X90080566Y-84232200D01*
X90080566Y-84232200D02*
X90128185Y-84184580D01*
X91318661Y-83232200D02*
X90461519Y-84517914D01*
X92128185Y-83279819D02*
X91651995Y-83279819D01*
X91651995Y-83279819D02*
X91604376Y-83756009D01*
X91604376Y-83756009D02*
X91651995Y-83708390D01*
X91651995Y-83708390D02*
X91747233Y-83660771D01*
X91747233Y-83660771D02*
X91985328Y-83660771D01*
X91985328Y-83660771D02*
X92080566Y-83708390D01*
X92080566Y-83708390D02*
X92128185Y-83756009D01*
X92128185Y-83756009D02*
X92175804Y-83851247D01*
X92175804Y-83851247D02*
X92175804Y-84089342D01*
X92175804Y-84089342D02*
X92128185Y-84184580D01*
X92128185Y-84184580D02*
X92080566Y-84232200D01*
X92080566Y-84232200D02*
X91985328Y-84279819D01*
X91985328Y-84279819D02*
X91747233Y-84279819D01*
X91747233Y-84279819D02*
X91651995Y-84232200D01*
X91651995Y-84232200D02*
X91604376Y-84184580D01*
X92794852Y-83279819D02*
X92890090Y-83279819D01*
X92890090Y-83279819D02*
X92985328Y-83327438D01*
X92985328Y-83327438D02*
X93032947Y-83375057D01*
X93032947Y-83375057D02*
X93080566Y-83470295D01*
X93080566Y-83470295D02*
X93128185Y-83660771D01*
X93128185Y-83660771D02*
X93128185Y-83898866D01*
X93128185Y-83898866D02*
X93080566Y-84089342D01*
X93080566Y-84089342D02*
X93032947Y-84184580D01*
X93032947Y-84184580D02*
X92985328Y-84232200D01*
X92985328Y-84232200D02*
X92890090Y-84279819D01*
X92890090Y-84279819D02*
X92794852Y-84279819D01*
X92794852Y-84279819D02*
X92699614Y-84232200D01*
X92699614Y-84232200D02*
X92651995Y-84184580D01*
X92651995Y-84184580D02*
X92604376Y-84089342D01*
X92604376Y-84089342D02*
X92556757Y-83898866D01*
X92556757Y-83898866D02*
X92556757Y-83660771D01*
X92556757Y-83660771D02*
X92604376Y-83470295D01*
X92604376Y-83470295D02*
X92651995Y-83375057D01*
X92651995Y-83375057D02*
X92699614Y-83327438D01*
X92699614Y-83327438D02*
X92794852Y-83279819D01*
X93413900Y-83279819D02*
X93747233Y-84279819D01*
X93747233Y-84279819D02*
X94080566Y-83279819D01*
X89747233Y-73934580D02*
X89699614Y-73982200D01*
X89699614Y-73982200D02*
X89556757Y-74029819D01*
X89556757Y-74029819D02*
X89461519Y-74029819D01*
X89461519Y-74029819D02*
X89318662Y-73982200D01*
X89318662Y-73982200D02*
X89223424Y-73886961D01*
X89223424Y-73886961D02*
X89175805Y-73791723D01*
X89175805Y-73791723D02*
X89128186Y-73601247D01*
X89128186Y-73601247D02*
X89128186Y-73458390D01*
X89128186Y-73458390D02*
X89175805Y-73267914D01*
X89175805Y-73267914D02*
X89223424Y-73172676D01*
X89223424Y-73172676D02*
X89318662Y-73077438D01*
X89318662Y-73077438D02*
X89461519Y-73029819D01*
X89461519Y-73029819D02*
X89556757Y-73029819D01*
X89556757Y-73029819D02*
X89699614Y-73077438D01*
X89699614Y-73077438D02*
X89747233Y-73125057D01*
X90080567Y-73029819D02*
X90699614Y-73029819D01*
X90699614Y-73029819D02*
X90366281Y-73410771D01*
X90366281Y-73410771D02*
X90509138Y-73410771D01*
X90509138Y-73410771D02*
X90604376Y-73458390D01*
X90604376Y-73458390D02*
X90651995Y-73506009D01*
X90651995Y-73506009D02*
X90699614Y-73601247D01*
X90699614Y-73601247D02*
X90699614Y-73839342D01*
X90699614Y-73839342D02*
X90651995Y-73934580D01*
X90651995Y-73934580D02*
X90604376Y-73982200D01*
X90604376Y-73982200D02*
X90509138Y-74029819D01*
X90509138Y-74029819D02*
X90223424Y-74029819D01*
X90223424Y-74029819D02*
X90128186Y-73982200D01*
X90128186Y-73982200D02*
X90080567Y-73934580D01*
X120042142Y-37049819D02*
X119470714Y-37049819D01*
X119756428Y-37049819D02*
X119756428Y-36049819D01*
X119756428Y-36049819D02*
X119661190Y-36192676D01*
X119661190Y-36192676D02*
X119565952Y-36287914D01*
X119565952Y-36287914D02*
X119470714Y-36335533D01*
X120470714Y-37049819D02*
X120470714Y-36049819D01*
X120470714Y-36049819D02*
X121042142Y-37049819D01*
X121042142Y-37049819D02*
X121042142Y-36049819D01*
X121946904Y-36383152D02*
X121946904Y-37049819D01*
X121708809Y-36002200D02*
X121470714Y-36716485D01*
X121470714Y-36716485D02*
X122089761Y-36716485D01*
X122661190Y-36049819D02*
X122756428Y-36049819D01*
X122756428Y-36049819D02*
X122851666Y-36097438D01*
X122851666Y-36097438D02*
X122899285Y-36145057D01*
X122899285Y-36145057D02*
X122946904Y-36240295D01*
X122946904Y-36240295D02*
X122994523Y-36430771D01*
X122994523Y-36430771D02*
X122994523Y-36668866D01*
X122994523Y-36668866D02*
X122946904Y-36859342D01*
X122946904Y-36859342D02*
X122899285Y-36954580D01*
X122899285Y-36954580D02*
X122851666Y-37002200D01*
X122851666Y-37002200D02*
X122756428Y-37049819D01*
X122756428Y-37049819D02*
X122661190Y-37049819D01*
X122661190Y-37049819D02*
X122565952Y-37002200D01*
X122565952Y-37002200D02*
X122518333Y-36954580D01*
X122518333Y-36954580D02*
X122470714Y-36859342D01*
X122470714Y-36859342D02*
X122423095Y-36668866D01*
X122423095Y-36668866D02*
X122423095Y-36430771D01*
X122423095Y-36430771D02*
X122470714Y-36240295D01*
X122470714Y-36240295D02*
X122518333Y-36145057D01*
X122518333Y-36145057D02*
X122565952Y-36097438D01*
X122565952Y-36097438D02*
X122661190Y-36049819D01*
X123613571Y-36049819D02*
X123708809Y-36049819D01*
X123708809Y-36049819D02*
X123804047Y-36097438D01*
X123804047Y-36097438D02*
X123851666Y-36145057D01*
X123851666Y-36145057D02*
X123899285Y-36240295D01*
X123899285Y-36240295D02*
X123946904Y-36430771D01*
X123946904Y-36430771D02*
X123946904Y-36668866D01*
X123946904Y-36668866D02*
X123899285Y-36859342D01*
X123899285Y-36859342D02*
X123851666Y-36954580D01*
X123851666Y-36954580D02*
X123804047Y-37002200D01*
X123804047Y-37002200D02*
X123708809Y-37049819D01*
X123708809Y-37049819D02*
X123613571Y-37049819D01*
X123613571Y-37049819D02*
X123518333Y-37002200D01*
X123518333Y-37002200D02*
X123470714Y-36954580D01*
X123470714Y-36954580D02*
X123423095Y-36859342D01*
X123423095Y-36859342D02*
X123375476Y-36668866D01*
X123375476Y-36668866D02*
X123375476Y-36430771D01*
X123375476Y-36430771D02*
X123423095Y-36240295D01*
X123423095Y-36240295D02*
X123470714Y-36145057D01*
X123470714Y-36145057D02*
X123518333Y-36097438D01*
X123518333Y-36097438D02*
X123613571Y-36049819D01*
X124804047Y-36049819D02*
X124613571Y-36049819D01*
X124613571Y-36049819D02*
X124518333Y-36097438D01*
X124518333Y-36097438D02*
X124470714Y-36145057D01*
X124470714Y-36145057D02*
X124375476Y-36287914D01*
X124375476Y-36287914D02*
X124327857Y-36478390D01*
X124327857Y-36478390D02*
X124327857Y-36859342D01*
X124327857Y-36859342D02*
X124375476Y-36954580D01*
X124375476Y-36954580D02*
X124423095Y-37002200D01*
X124423095Y-37002200D02*
X124518333Y-37049819D01*
X124518333Y-37049819D02*
X124708809Y-37049819D01*
X124708809Y-37049819D02*
X124804047Y-37002200D01*
X124804047Y-37002200D02*
X124851666Y-36954580D01*
X124851666Y-36954580D02*
X124899285Y-36859342D01*
X124899285Y-36859342D02*
X124899285Y-36621247D01*
X124899285Y-36621247D02*
X124851666Y-36526009D01*
X124851666Y-36526009D02*
X124804047Y-36478390D01*
X124804047Y-36478390D02*
X124708809Y-36430771D01*
X124708809Y-36430771D02*
X124518333Y-36430771D01*
X124518333Y-36430771D02*
X124423095Y-36478390D01*
X124423095Y-36478390D02*
X124375476Y-36526009D01*
X124375476Y-36526009D02*
X124327857Y-36621247D01*
X121836905Y-34579819D02*
X121836905Y-33579819D01*
X121836905Y-33579819D02*
X122075000Y-33579819D01*
X122075000Y-33579819D02*
X122217857Y-33627438D01*
X122217857Y-33627438D02*
X122313095Y-33722676D01*
X122313095Y-33722676D02*
X122360714Y-33817914D01*
X122360714Y-33817914D02*
X122408333Y-34008390D01*
X122408333Y-34008390D02*
X122408333Y-34151247D01*
X122408333Y-34151247D02*
X122360714Y-34341723D01*
X122360714Y-34341723D02*
X122313095Y-34436961D01*
X122313095Y-34436961D02*
X122217857Y-34532200D01*
X122217857Y-34532200D02*
X122075000Y-34579819D01*
X122075000Y-34579819D02*
X121836905Y-34579819D01*
X123265476Y-33913152D02*
X123265476Y-34579819D01*
X123027381Y-33532200D02*
X122789286Y-34246485D01*
X122789286Y-34246485D02*
X123408333Y-34246485D01*
X116843095Y-32479819D02*
X116843095Y-31479819D01*
X117414523Y-32479819D02*
X116985952Y-31908390D01*
X117414523Y-31479819D02*
X116843095Y-32051247D01*
X111478661Y-76399819D02*
X110907233Y-76399819D01*
X111192947Y-76399819D02*
X111192947Y-75399819D01*
X111192947Y-75399819D02*
X111097709Y-75542676D01*
X111097709Y-75542676D02*
X111002471Y-75637914D01*
X111002471Y-75637914D02*
X110907233Y-75685533D01*
X112097709Y-75399819D02*
X112192947Y-75399819D01*
X112192947Y-75399819D02*
X112288185Y-75447438D01*
X112288185Y-75447438D02*
X112335804Y-75495057D01*
X112335804Y-75495057D02*
X112383423Y-75590295D01*
X112383423Y-75590295D02*
X112431042Y-75780771D01*
X112431042Y-75780771D02*
X112431042Y-76018866D01*
X112431042Y-76018866D02*
X112383423Y-76209342D01*
X112383423Y-76209342D02*
X112335804Y-76304580D01*
X112335804Y-76304580D02*
X112288185Y-76352200D01*
X112288185Y-76352200D02*
X112192947Y-76399819D01*
X112192947Y-76399819D02*
X112097709Y-76399819D01*
X112097709Y-76399819D02*
X112002471Y-76352200D01*
X112002471Y-76352200D02*
X111954852Y-76304580D01*
X111954852Y-76304580D02*
X111907233Y-76209342D01*
X111907233Y-76209342D02*
X111859614Y-76018866D01*
X111859614Y-76018866D02*
X111859614Y-75780771D01*
X111859614Y-75780771D02*
X111907233Y-75590295D01*
X111907233Y-75590295D02*
X111954852Y-75495057D01*
X111954852Y-75495057D02*
X112002471Y-75447438D01*
X112002471Y-75447438D02*
X112097709Y-75399819D01*
X112859614Y-76399819D02*
X112859614Y-75399819D01*
X112954852Y-76018866D02*
X113240566Y-76399819D01*
X113240566Y-75733152D02*
X112859614Y-76114104D01*
X111907233Y-74029819D02*
X111573900Y-73553628D01*
X111335805Y-74029819D02*
X111335805Y-73029819D01*
X111335805Y-73029819D02*
X111716757Y-73029819D01*
X111716757Y-73029819D02*
X111811995Y-73077438D01*
X111811995Y-73077438D02*
X111859614Y-73125057D01*
X111859614Y-73125057D02*
X111907233Y-73220295D01*
X111907233Y-73220295D02*
X111907233Y-73363152D01*
X111907233Y-73363152D02*
X111859614Y-73458390D01*
X111859614Y-73458390D02*
X111811995Y-73506009D01*
X111811995Y-73506009D02*
X111716757Y-73553628D01*
X111716757Y-73553628D02*
X111335805Y-73553628D01*
X112859614Y-74029819D02*
X112288186Y-74029819D01*
X112573900Y-74029819D02*
X112573900Y-73029819D01*
X112573900Y-73029819D02*
X112478662Y-73172676D01*
X112478662Y-73172676D02*
X112383424Y-73267914D01*
X112383424Y-73267914D02*
X112288186Y-73315533D01*
X78222142Y-52949819D02*
X77650714Y-52949819D01*
X77936428Y-52949819D02*
X77936428Y-51949819D01*
X77936428Y-51949819D02*
X77841190Y-52092676D01*
X77841190Y-52092676D02*
X77745952Y-52187914D01*
X77745952Y-52187914D02*
X77650714Y-52235533D01*
X78650714Y-52949819D02*
X78650714Y-51949819D01*
X78650714Y-51949819D02*
X79222142Y-52949819D01*
X79222142Y-52949819D02*
X79222142Y-51949819D01*
X80126904Y-52283152D02*
X80126904Y-52949819D01*
X79888809Y-51902200D02*
X79650714Y-52616485D01*
X79650714Y-52616485D02*
X80269761Y-52616485D01*
X80841190Y-51949819D02*
X80936428Y-51949819D01*
X80936428Y-51949819D02*
X81031666Y-51997438D01*
X81031666Y-51997438D02*
X81079285Y-52045057D01*
X81079285Y-52045057D02*
X81126904Y-52140295D01*
X81126904Y-52140295D02*
X81174523Y-52330771D01*
X81174523Y-52330771D02*
X81174523Y-52568866D01*
X81174523Y-52568866D02*
X81126904Y-52759342D01*
X81126904Y-52759342D02*
X81079285Y-52854580D01*
X81079285Y-52854580D02*
X81031666Y-52902200D01*
X81031666Y-52902200D02*
X80936428Y-52949819D01*
X80936428Y-52949819D02*
X80841190Y-52949819D01*
X80841190Y-52949819D02*
X80745952Y-52902200D01*
X80745952Y-52902200D02*
X80698333Y-52854580D01*
X80698333Y-52854580D02*
X80650714Y-52759342D01*
X80650714Y-52759342D02*
X80603095Y-52568866D01*
X80603095Y-52568866D02*
X80603095Y-52330771D01*
X80603095Y-52330771D02*
X80650714Y-52140295D01*
X80650714Y-52140295D02*
X80698333Y-52045057D01*
X80698333Y-52045057D02*
X80745952Y-51997438D01*
X80745952Y-51997438D02*
X80841190Y-51949819D01*
X81793571Y-51949819D02*
X81888809Y-51949819D01*
X81888809Y-51949819D02*
X81984047Y-51997438D01*
X81984047Y-51997438D02*
X82031666Y-52045057D01*
X82031666Y-52045057D02*
X82079285Y-52140295D01*
X82079285Y-52140295D02*
X82126904Y-52330771D01*
X82126904Y-52330771D02*
X82126904Y-52568866D01*
X82126904Y-52568866D02*
X82079285Y-52759342D01*
X82079285Y-52759342D02*
X82031666Y-52854580D01*
X82031666Y-52854580D02*
X81984047Y-52902200D01*
X81984047Y-52902200D02*
X81888809Y-52949819D01*
X81888809Y-52949819D02*
X81793571Y-52949819D01*
X81793571Y-52949819D02*
X81698333Y-52902200D01*
X81698333Y-52902200D02*
X81650714Y-52854580D01*
X81650714Y-52854580D02*
X81603095Y-52759342D01*
X81603095Y-52759342D02*
X81555476Y-52568866D01*
X81555476Y-52568866D02*
X81555476Y-52330771D01*
X81555476Y-52330771D02*
X81603095Y-52140295D01*
X81603095Y-52140295D02*
X81650714Y-52045057D01*
X81650714Y-52045057D02*
X81698333Y-51997438D01*
X81698333Y-51997438D02*
X81793571Y-51949819D01*
X82984047Y-51949819D02*
X82793571Y-51949819D01*
X82793571Y-51949819D02*
X82698333Y-51997438D01*
X82698333Y-51997438D02*
X82650714Y-52045057D01*
X82650714Y-52045057D02*
X82555476Y-52187914D01*
X82555476Y-52187914D02*
X82507857Y-52378390D01*
X82507857Y-52378390D02*
X82507857Y-52759342D01*
X82507857Y-52759342D02*
X82555476Y-52854580D01*
X82555476Y-52854580D02*
X82603095Y-52902200D01*
X82603095Y-52902200D02*
X82698333Y-52949819D01*
X82698333Y-52949819D02*
X82888809Y-52949819D01*
X82888809Y-52949819D02*
X82984047Y-52902200D01*
X82984047Y-52902200D02*
X83031666Y-52854580D01*
X83031666Y-52854580D02*
X83079285Y-52759342D01*
X83079285Y-52759342D02*
X83079285Y-52521247D01*
X83079285Y-52521247D02*
X83031666Y-52426009D01*
X83031666Y-52426009D02*
X82984047Y-52378390D01*
X82984047Y-52378390D02*
X82888809Y-52330771D01*
X82888809Y-52330771D02*
X82698333Y-52330771D01*
X82698333Y-52330771D02*
X82603095Y-52378390D01*
X82603095Y-52378390D02*
X82555476Y-52426009D01*
X82555476Y-52426009D02*
X82507857Y-52521247D01*
X80016905Y-50479819D02*
X80016905Y-49479819D01*
X80016905Y-49479819D02*
X80255000Y-49479819D01*
X80255000Y-49479819D02*
X80397857Y-49527438D01*
X80397857Y-49527438D02*
X80493095Y-49622676D01*
X80493095Y-49622676D02*
X80540714Y-49717914D01*
X80540714Y-49717914D02*
X80588333Y-49908390D01*
X80588333Y-49908390D02*
X80588333Y-50051247D01*
X80588333Y-50051247D02*
X80540714Y-50241723D01*
X80540714Y-50241723D02*
X80493095Y-50336961D01*
X80493095Y-50336961D02*
X80397857Y-50432200D01*
X80397857Y-50432200D02*
X80255000Y-50479819D01*
X80255000Y-50479819D02*
X80016905Y-50479819D01*
X81445476Y-49479819D02*
X81255000Y-49479819D01*
X81255000Y-49479819D02*
X81159762Y-49527438D01*
X81159762Y-49527438D02*
X81112143Y-49575057D01*
X81112143Y-49575057D02*
X81016905Y-49717914D01*
X81016905Y-49717914D02*
X80969286Y-49908390D01*
X80969286Y-49908390D02*
X80969286Y-50289342D01*
X80969286Y-50289342D02*
X81016905Y-50384580D01*
X81016905Y-50384580D02*
X81064524Y-50432200D01*
X81064524Y-50432200D02*
X81159762Y-50479819D01*
X81159762Y-50479819D02*
X81350238Y-50479819D01*
X81350238Y-50479819D02*
X81445476Y-50432200D01*
X81445476Y-50432200D02*
X81493095Y-50384580D01*
X81493095Y-50384580D02*
X81540714Y-50289342D01*
X81540714Y-50289342D02*
X81540714Y-50051247D01*
X81540714Y-50051247D02*
X81493095Y-49956009D01*
X81493095Y-49956009D02*
X81445476Y-49908390D01*
X81445476Y-49908390D02*
X81350238Y-49860771D01*
X81350238Y-49860771D02*
X81159762Y-49860771D01*
X81159762Y-49860771D02*
X81064524Y-49908390D01*
X81064524Y-49908390D02*
X81016905Y-49956009D01*
X81016905Y-49956009D02*
X80969286Y-50051247D01*
X75023095Y-48379819D02*
X75023095Y-47379819D01*
X75594523Y-48379819D02*
X75165952Y-47808390D01*
X75594523Y-47379819D02*
X75023095Y-47951247D01*
X101044161Y-60063152D02*
X101044161Y-60729819D01*
X100806066Y-59682200D02*
X100567971Y-60396485D01*
X100567971Y-60396485D02*
X101187018Y-60396485D01*
X101472733Y-59729819D02*
X102139399Y-59729819D01*
X102139399Y-59729819D02*
X101710828Y-60729819D01*
X102710828Y-59729819D02*
X102806066Y-59729819D01*
X102806066Y-59729819D02*
X102901304Y-59777438D01*
X102901304Y-59777438D02*
X102948923Y-59825057D01*
X102948923Y-59825057D02*
X102996542Y-59920295D01*
X102996542Y-59920295D02*
X103044161Y-60110771D01*
X103044161Y-60110771D02*
X103044161Y-60348866D01*
X103044161Y-60348866D02*
X102996542Y-60539342D01*
X102996542Y-60539342D02*
X102948923Y-60634580D01*
X102948923Y-60634580D02*
X102901304Y-60682200D01*
X102901304Y-60682200D02*
X102806066Y-60729819D01*
X102806066Y-60729819D02*
X102710828Y-60729819D01*
X102710828Y-60729819D02*
X102615590Y-60682200D01*
X102615590Y-60682200D02*
X102567971Y-60634580D01*
X102567971Y-60634580D02*
X102520352Y-60539342D01*
X102520352Y-60539342D02*
X102472733Y-60348866D01*
X102472733Y-60348866D02*
X102472733Y-60110771D01*
X102472733Y-60110771D02*
X102520352Y-59920295D01*
X102520352Y-59920295D02*
X102567971Y-59825057D01*
X102567971Y-59825057D02*
X102615590Y-59777438D01*
X102615590Y-59777438D02*
X102710828Y-59729819D01*
X103663209Y-59729819D02*
X103758447Y-59729819D01*
X103758447Y-59729819D02*
X103853685Y-59777438D01*
X103853685Y-59777438D02*
X103901304Y-59825057D01*
X103901304Y-59825057D02*
X103948923Y-59920295D01*
X103948923Y-59920295D02*
X103996542Y-60110771D01*
X103996542Y-60110771D02*
X103996542Y-60348866D01*
X103996542Y-60348866D02*
X103948923Y-60539342D01*
X103948923Y-60539342D02*
X103901304Y-60634580D01*
X103901304Y-60634580D02*
X103853685Y-60682200D01*
X103853685Y-60682200D02*
X103758447Y-60729819D01*
X103758447Y-60729819D02*
X103663209Y-60729819D01*
X103663209Y-60729819D02*
X103567971Y-60682200D01*
X103567971Y-60682200D02*
X103520352Y-60634580D01*
X103520352Y-60634580D02*
X103472733Y-60539342D01*
X103472733Y-60539342D02*
X103425114Y-60348866D01*
X103425114Y-60348866D02*
X103425114Y-60110771D01*
X103425114Y-60110771D02*
X103472733Y-59920295D01*
X103472733Y-59920295D02*
X103520352Y-59825057D01*
X103520352Y-59825057D02*
X103567971Y-59777438D01*
X103567971Y-59777438D02*
X103663209Y-59729819D01*
X104853685Y-60063152D02*
X104853685Y-60729819D01*
X104425114Y-60063152D02*
X104425114Y-60586961D01*
X104425114Y-60586961D02*
X104472733Y-60682200D01*
X104472733Y-60682200D02*
X104567971Y-60729819D01*
X104567971Y-60729819D02*
X104710828Y-60729819D01*
X104710828Y-60729819D02*
X104806066Y-60682200D01*
X104806066Y-60682200D02*
X104853685Y-60634580D01*
X106044161Y-59682200D02*
X105187019Y-60967914D01*
X106853685Y-59729819D02*
X106377495Y-59729819D01*
X106377495Y-59729819D02*
X106329876Y-60206009D01*
X106329876Y-60206009D02*
X106377495Y-60158390D01*
X106377495Y-60158390D02*
X106472733Y-60110771D01*
X106472733Y-60110771D02*
X106710828Y-60110771D01*
X106710828Y-60110771D02*
X106806066Y-60158390D01*
X106806066Y-60158390D02*
X106853685Y-60206009D01*
X106853685Y-60206009D02*
X106901304Y-60301247D01*
X106901304Y-60301247D02*
X106901304Y-60539342D01*
X106901304Y-60539342D02*
X106853685Y-60634580D01*
X106853685Y-60634580D02*
X106806066Y-60682200D01*
X106806066Y-60682200D02*
X106710828Y-60729819D01*
X106710828Y-60729819D02*
X106472733Y-60729819D01*
X106472733Y-60729819D02*
X106377495Y-60682200D01*
X106377495Y-60682200D02*
X106329876Y-60634580D01*
X107520352Y-59729819D02*
X107615590Y-59729819D01*
X107615590Y-59729819D02*
X107710828Y-59777438D01*
X107710828Y-59777438D02*
X107758447Y-59825057D01*
X107758447Y-59825057D02*
X107806066Y-59920295D01*
X107806066Y-59920295D02*
X107853685Y-60110771D01*
X107853685Y-60110771D02*
X107853685Y-60348866D01*
X107853685Y-60348866D02*
X107806066Y-60539342D01*
X107806066Y-60539342D02*
X107758447Y-60634580D01*
X107758447Y-60634580D02*
X107710828Y-60682200D01*
X107710828Y-60682200D02*
X107615590Y-60729819D01*
X107615590Y-60729819D02*
X107520352Y-60729819D01*
X107520352Y-60729819D02*
X107425114Y-60682200D01*
X107425114Y-60682200D02*
X107377495Y-60634580D01*
X107377495Y-60634580D02*
X107329876Y-60539342D01*
X107329876Y-60539342D02*
X107282257Y-60348866D01*
X107282257Y-60348866D02*
X107282257Y-60110771D01*
X107282257Y-60110771D02*
X107329876Y-59920295D01*
X107329876Y-59920295D02*
X107377495Y-59825057D01*
X107377495Y-59825057D02*
X107425114Y-59777438D01*
X107425114Y-59777438D02*
X107520352Y-59729819D01*
X108139400Y-59729819D02*
X108472733Y-60729819D01*
X108472733Y-60729819D02*
X108806066Y-59729819D01*
X104472733Y-50384580D02*
X104425114Y-50432200D01*
X104425114Y-50432200D02*
X104282257Y-50479819D01*
X104282257Y-50479819D02*
X104187019Y-50479819D01*
X104187019Y-50479819D02*
X104044162Y-50432200D01*
X104044162Y-50432200D02*
X103948924Y-50336961D01*
X103948924Y-50336961D02*
X103901305Y-50241723D01*
X103901305Y-50241723D02*
X103853686Y-50051247D01*
X103853686Y-50051247D02*
X103853686Y-49908390D01*
X103853686Y-49908390D02*
X103901305Y-49717914D01*
X103901305Y-49717914D02*
X103948924Y-49622676D01*
X103948924Y-49622676D02*
X104044162Y-49527438D01*
X104044162Y-49527438D02*
X104187019Y-49479819D01*
X104187019Y-49479819D02*
X104282257Y-49479819D01*
X104282257Y-49479819D02*
X104425114Y-49527438D01*
X104425114Y-49527438D02*
X104472733Y-49575057D01*
X105425114Y-50479819D02*
X104853686Y-50479819D01*
X105139400Y-50479819D02*
X105139400Y-49479819D01*
X105139400Y-49479819D02*
X105044162Y-49622676D01*
X105044162Y-49622676D02*
X104948924Y-49717914D01*
X104948924Y-49717914D02*
X104853686Y-49765533D01*
X59224161Y-83613152D02*
X59224161Y-84279819D01*
X58986066Y-83232200D02*
X58747971Y-83946485D01*
X58747971Y-83946485D02*
X59367018Y-83946485D01*
X59652733Y-83279819D02*
X60319399Y-83279819D01*
X60319399Y-83279819D02*
X59890828Y-84279819D01*
X60890828Y-83279819D02*
X60986066Y-83279819D01*
X60986066Y-83279819D02*
X61081304Y-83327438D01*
X61081304Y-83327438D02*
X61128923Y-83375057D01*
X61128923Y-83375057D02*
X61176542Y-83470295D01*
X61176542Y-83470295D02*
X61224161Y-83660771D01*
X61224161Y-83660771D02*
X61224161Y-83898866D01*
X61224161Y-83898866D02*
X61176542Y-84089342D01*
X61176542Y-84089342D02*
X61128923Y-84184580D01*
X61128923Y-84184580D02*
X61081304Y-84232200D01*
X61081304Y-84232200D02*
X60986066Y-84279819D01*
X60986066Y-84279819D02*
X60890828Y-84279819D01*
X60890828Y-84279819D02*
X60795590Y-84232200D01*
X60795590Y-84232200D02*
X60747971Y-84184580D01*
X60747971Y-84184580D02*
X60700352Y-84089342D01*
X60700352Y-84089342D02*
X60652733Y-83898866D01*
X60652733Y-83898866D02*
X60652733Y-83660771D01*
X60652733Y-83660771D02*
X60700352Y-83470295D01*
X60700352Y-83470295D02*
X60747971Y-83375057D01*
X60747971Y-83375057D02*
X60795590Y-83327438D01*
X60795590Y-83327438D02*
X60890828Y-83279819D01*
X61843209Y-83279819D02*
X61938447Y-83279819D01*
X61938447Y-83279819D02*
X62033685Y-83327438D01*
X62033685Y-83327438D02*
X62081304Y-83375057D01*
X62081304Y-83375057D02*
X62128923Y-83470295D01*
X62128923Y-83470295D02*
X62176542Y-83660771D01*
X62176542Y-83660771D02*
X62176542Y-83898866D01*
X62176542Y-83898866D02*
X62128923Y-84089342D01*
X62128923Y-84089342D02*
X62081304Y-84184580D01*
X62081304Y-84184580D02*
X62033685Y-84232200D01*
X62033685Y-84232200D02*
X61938447Y-84279819D01*
X61938447Y-84279819D02*
X61843209Y-84279819D01*
X61843209Y-84279819D02*
X61747971Y-84232200D01*
X61747971Y-84232200D02*
X61700352Y-84184580D01*
X61700352Y-84184580D02*
X61652733Y-84089342D01*
X61652733Y-84089342D02*
X61605114Y-83898866D01*
X61605114Y-83898866D02*
X61605114Y-83660771D01*
X61605114Y-83660771D02*
X61652733Y-83470295D01*
X61652733Y-83470295D02*
X61700352Y-83375057D01*
X61700352Y-83375057D02*
X61747971Y-83327438D01*
X61747971Y-83327438D02*
X61843209Y-83279819D01*
X63033685Y-83613152D02*
X63033685Y-84279819D01*
X62605114Y-83613152D02*
X62605114Y-84136961D01*
X62605114Y-84136961D02*
X62652733Y-84232200D01*
X62652733Y-84232200D02*
X62747971Y-84279819D01*
X62747971Y-84279819D02*
X62890828Y-84279819D01*
X62890828Y-84279819D02*
X62986066Y-84232200D01*
X62986066Y-84232200D02*
X63033685Y-84184580D01*
X64224161Y-83232200D02*
X63367019Y-84517914D01*
X65033685Y-83279819D02*
X64557495Y-83279819D01*
X64557495Y-83279819D02*
X64509876Y-83756009D01*
X64509876Y-83756009D02*
X64557495Y-83708390D01*
X64557495Y-83708390D02*
X64652733Y-83660771D01*
X64652733Y-83660771D02*
X64890828Y-83660771D01*
X64890828Y-83660771D02*
X64986066Y-83708390D01*
X64986066Y-83708390D02*
X65033685Y-83756009D01*
X65033685Y-83756009D02*
X65081304Y-83851247D01*
X65081304Y-83851247D02*
X65081304Y-84089342D01*
X65081304Y-84089342D02*
X65033685Y-84184580D01*
X65033685Y-84184580D02*
X64986066Y-84232200D01*
X64986066Y-84232200D02*
X64890828Y-84279819D01*
X64890828Y-84279819D02*
X64652733Y-84279819D01*
X64652733Y-84279819D02*
X64557495Y-84232200D01*
X64557495Y-84232200D02*
X64509876Y-84184580D01*
X65700352Y-83279819D02*
X65795590Y-83279819D01*
X65795590Y-83279819D02*
X65890828Y-83327438D01*
X65890828Y-83327438D02*
X65938447Y-83375057D01*
X65938447Y-83375057D02*
X65986066Y-83470295D01*
X65986066Y-83470295D02*
X66033685Y-83660771D01*
X66033685Y-83660771D02*
X66033685Y-83898866D01*
X66033685Y-83898866D02*
X65986066Y-84089342D01*
X65986066Y-84089342D02*
X65938447Y-84184580D01*
X65938447Y-84184580D02*
X65890828Y-84232200D01*
X65890828Y-84232200D02*
X65795590Y-84279819D01*
X65795590Y-84279819D02*
X65700352Y-84279819D01*
X65700352Y-84279819D02*
X65605114Y-84232200D01*
X65605114Y-84232200D02*
X65557495Y-84184580D01*
X65557495Y-84184580D02*
X65509876Y-84089342D01*
X65509876Y-84089342D02*
X65462257Y-83898866D01*
X65462257Y-83898866D02*
X65462257Y-83660771D01*
X65462257Y-83660771D02*
X65509876Y-83470295D01*
X65509876Y-83470295D02*
X65557495Y-83375057D01*
X65557495Y-83375057D02*
X65605114Y-83327438D01*
X65605114Y-83327438D02*
X65700352Y-83279819D01*
X66319400Y-83279819D02*
X66652733Y-84279819D01*
X66652733Y-84279819D02*
X66986066Y-83279819D01*
X62652733Y-73934580D02*
X62605114Y-73982200D01*
X62605114Y-73982200D02*
X62462257Y-74029819D01*
X62462257Y-74029819D02*
X62367019Y-74029819D01*
X62367019Y-74029819D02*
X62224162Y-73982200D01*
X62224162Y-73982200D02*
X62128924Y-73886961D01*
X62128924Y-73886961D02*
X62081305Y-73791723D01*
X62081305Y-73791723D02*
X62033686Y-73601247D01*
X62033686Y-73601247D02*
X62033686Y-73458390D01*
X62033686Y-73458390D02*
X62081305Y-73267914D01*
X62081305Y-73267914D02*
X62128924Y-73172676D01*
X62128924Y-73172676D02*
X62224162Y-73077438D01*
X62224162Y-73077438D02*
X62367019Y-73029819D01*
X62367019Y-73029819D02*
X62462257Y-73029819D01*
X62462257Y-73029819D02*
X62605114Y-73077438D01*
X62605114Y-73077438D02*
X62652733Y-73125057D01*
X63033686Y-73125057D02*
X63081305Y-73077438D01*
X63081305Y-73077438D02*
X63176543Y-73029819D01*
X63176543Y-73029819D02*
X63414638Y-73029819D01*
X63414638Y-73029819D02*
X63509876Y-73077438D01*
X63509876Y-73077438D02*
X63557495Y-73125057D01*
X63557495Y-73125057D02*
X63605114Y-73220295D01*
X63605114Y-73220295D02*
X63605114Y-73315533D01*
X63605114Y-73315533D02*
X63557495Y-73458390D01*
X63557495Y-73458390D02*
X62986067Y-74029819D01*
X62986067Y-74029819D02*
X63605114Y-74029819D01*
X30952381Y-26374819D02*
X31571428Y-26374819D01*
X31571428Y-26374819D02*
X31238095Y-26755771D01*
X31238095Y-26755771D02*
X31380952Y-26755771D01*
X31380952Y-26755771D02*
X31476190Y-26803390D01*
X31476190Y-26803390D02*
X31523809Y-26851009D01*
X31523809Y-26851009D02*
X31571428Y-26946247D01*
X31571428Y-26946247D02*
X31571428Y-27184342D01*
X31571428Y-27184342D02*
X31523809Y-27279580D01*
X31523809Y-27279580D02*
X31476190Y-27327200D01*
X31476190Y-27327200D02*
X31380952Y-27374819D01*
X31380952Y-27374819D02*
X31095238Y-27374819D01*
X31095238Y-27374819D02*
X31000000Y-27327200D01*
X31000000Y-27327200D02*
X30952381Y-27279580D01*
X32000000Y-26993866D02*
X32761905Y-26993866D01*
X33095238Y-26708152D02*
X33476190Y-26708152D01*
X33238095Y-27374819D02*
X33238095Y-26517676D01*
X33238095Y-26517676D02*
X33285714Y-26422438D01*
X33285714Y-26422438D02*
X33380952Y-26374819D01*
X33380952Y-26374819D02*
X33476190Y-26374819D01*
X34238095Y-27374819D02*
X34238095Y-26851009D01*
X34238095Y-26851009D02*
X34190476Y-26755771D01*
X34190476Y-26755771D02*
X34095238Y-26708152D01*
X34095238Y-26708152D02*
X33904762Y-26708152D01*
X33904762Y-26708152D02*
X33809524Y-26755771D01*
X34238095Y-27327200D02*
X34142857Y-27374819D01*
X34142857Y-27374819D02*
X33904762Y-27374819D01*
X33904762Y-27374819D02*
X33809524Y-27327200D01*
X33809524Y-27327200D02*
X33761905Y-27231961D01*
X33761905Y-27231961D02*
X33761905Y-27136723D01*
X33761905Y-27136723D02*
X33809524Y-27041485D01*
X33809524Y-27041485D02*
X33904762Y-26993866D01*
X33904762Y-26993866D02*
X34142857Y-26993866D01*
X34142857Y-26993866D02*
X34238095Y-26946247D01*
X34666667Y-27327200D02*
X34761905Y-27374819D01*
X34761905Y-27374819D02*
X34952381Y-27374819D01*
X34952381Y-27374819D02*
X35047619Y-27327200D01*
X35047619Y-27327200D02*
X35095238Y-27231961D01*
X35095238Y-27231961D02*
X35095238Y-27184342D01*
X35095238Y-27184342D02*
X35047619Y-27089104D01*
X35047619Y-27089104D02*
X34952381Y-27041485D01*
X34952381Y-27041485D02*
X34809524Y-27041485D01*
X34809524Y-27041485D02*
X34714286Y-26993866D01*
X34714286Y-26993866D02*
X34666667Y-26898628D01*
X34666667Y-26898628D02*
X34666667Y-26851009D01*
X34666667Y-26851009D02*
X34714286Y-26755771D01*
X34714286Y-26755771D02*
X34809524Y-26708152D01*
X34809524Y-26708152D02*
X34952381Y-26708152D01*
X34952381Y-26708152D02*
X35047619Y-26755771D01*
X35904762Y-27327200D02*
X35809524Y-27374819D01*
X35809524Y-27374819D02*
X35619048Y-27374819D01*
X35619048Y-27374819D02*
X35523810Y-27327200D01*
X35523810Y-27327200D02*
X35476191Y-27231961D01*
X35476191Y-27231961D02*
X35476191Y-26851009D01*
X35476191Y-26851009D02*
X35523810Y-26755771D01*
X35523810Y-26755771D02*
X35619048Y-26708152D01*
X35619048Y-26708152D02*
X35809524Y-26708152D01*
X35809524Y-26708152D02*
X35904762Y-26755771D01*
X35904762Y-26755771D02*
X35952381Y-26851009D01*
X35952381Y-26851009D02*
X35952381Y-26946247D01*
X35952381Y-26946247D02*
X35476191Y-27041485D01*
X37142858Y-27374819D02*
X37142858Y-26708152D01*
X37142858Y-26374819D02*
X37095239Y-26422438D01*
X37095239Y-26422438D02*
X37142858Y-26470057D01*
X37142858Y-26470057D02*
X37190477Y-26422438D01*
X37190477Y-26422438D02*
X37142858Y-26374819D01*
X37142858Y-26374819D02*
X37142858Y-26470057D01*
X37619048Y-26708152D02*
X37619048Y-27374819D01*
X37619048Y-26803390D02*
X37666667Y-26755771D01*
X37666667Y-26755771D02*
X37761905Y-26708152D01*
X37761905Y-26708152D02*
X37904762Y-26708152D01*
X37904762Y-26708152D02*
X38000000Y-26755771D01*
X38000000Y-26755771D02*
X38047619Y-26851009D01*
X38047619Y-26851009D02*
X38047619Y-27374819D01*
X38952381Y-27374819D02*
X38952381Y-26374819D01*
X38952381Y-27327200D02*
X38857143Y-27374819D01*
X38857143Y-27374819D02*
X38666667Y-27374819D01*
X38666667Y-27374819D02*
X38571429Y-27327200D01*
X38571429Y-27327200D02*
X38523810Y-27279580D01*
X38523810Y-27279580D02*
X38476191Y-27184342D01*
X38476191Y-27184342D02*
X38476191Y-26898628D01*
X38476191Y-26898628D02*
X38523810Y-26803390D01*
X38523810Y-26803390D02*
X38571429Y-26755771D01*
X38571429Y-26755771D02*
X38666667Y-26708152D01*
X38666667Y-26708152D02*
X38857143Y-26708152D01*
X38857143Y-26708152D02*
X38952381Y-26755771D01*
X34666666Y-31454819D02*
X34666666Y-32169104D01*
X34666666Y-32169104D02*
X34619047Y-32311961D01*
X34619047Y-32311961D02*
X34523809Y-32407200D01*
X34523809Y-32407200D02*
X34380952Y-32454819D01*
X34380952Y-32454819D02*
X34285714Y-32454819D01*
X35666666Y-32454819D02*
X35095238Y-32454819D01*
X35380952Y-32454819D02*
X35380952Y-31454819D01*
X35380952Y-31454819D02*
X35285714Y-31597676D01*
X35285714Y-31597676D02*
X35190476Y-31692914D01*
X35190476Y-31692914D02*
X35095238Y-31740533D01*
X99132142Y-37049819D02*
X98560714Y-37049819D01*
X98846428Y-37049819D02*
X98846428Y-36049819D01*
X98846428Y-36049819D02*
X98751190Y-36192676D01*
X98751190Y-36192676D02*
X98655952Y-36287914D01*
X98655952Y-36287914D02*
X98560714Y-36335533D01*
X99560714Y-37049819D02*
X99560714Y-36049819D01*
X99560714Y-36049819D02*
X100132142Y-37049819D01*
X100132142Y-37049819D02*
X100132142Y-36049819D01*
X101036904Y-36383152D02*
X101036904Y-37049819D01*
X100798809Y-36002200D02*
X100560714Y-36716485D01*
X100560714Y-36716485D02*
X101179761Y-36716485D01*
X101751190Y-36049819D02*
X101846428Y-36049819D01*
X101846428Y-36049819D02*
X101941666Y-36097438D01*
X101941666Y-36097438D02*
X101989285Y-36145057D01*
X101989285Y-36145057D02*
X102036904Y-36240295D01*
X102036904Y-36240295D02*
X102084523Y-36430771D01*
X102084523Y-36430771D02*
X102084523Y-36668866D01*
X102084523Y-36668866D02*
X102036904Y-36859342D01*
X102036904Y-36859342D02*
X101989285Y-36954580D01*
X101989285Y-36954580D02*
X101941666Y-37002200D01*
X101941666Y-37002200D02*
X101846428Y-37049819D01*
X101846428Y-37049819D02*
X101751190Y-37049819D01*
X101751190Y-37049819D02*
X101655952Y-37002200D01*
X101655952Y-37002200D02*
X101608333Y-36954580D01*
X101608333Y-36954580D02*
X101560714Y-36859342D01*
X101560714Y-36859342D02*
X101513095Y-36668866D01*
X101513095Y-36668866D02*
X101513095Y-36430771D01*
X101513095Y-36430771D02*
X101560714Y-36240295D01*
X101560714Y-36240295D02*
X101608333Y-36145057D01*
X101608333Y-36145057D02*
X101655952Y-36097438D01*
X101655952Y-36097438D02*
X101751190Y-36049819D01*
X102703571Y-36049819D02*
X102798809Y-36049819D01*
X102798809Y-36049819D02*
X102894047Y-36097438D01*
X102894047Y-36097438D02*
X102941666Y-36145057D01*
X102941666Y-36145057D02*
X102989285Y-36240295D01*
X102989285Y-36240295D02*
X103036904Y-36430771D01*
X103036904Y-36430771D02*
X103036904Y-36668866D01*
X103036904Y-36668866D02*
X102989285Y-36859342D01*
X102989285Y-36859342D02*
X102941666Y-36954580D01*
X102941666Y-36954580D02*
X102894047Y-37002200D01*
X102894047Y-37002200D02*
X102798809Y-37049819D01*
X102798809Y-37049819D02*
X102703571Y-37049819D01*
X102703571Y-37049819D02*
X102608333Y-37002200D01*
X102608333Y-37002200D02*
X102560714Y-36954580D01*
X102560714Y-36954580D02*
X102513095Y-36859342D01*
X102513095Y-36859342D02*
X102465476Y-36668866D01*
X102465476Y-36668866D02*
X102465476Y-36430771D01*
X102465476Y-36430771D02*
X102513095Y-36240295D01*
X102513095Y-36240295D02*
X102560714Y-36145057D01*
X102560714Y-36145057D02*
X102608333Y-36097438D01*
X102608333Y-36097438D02*
X102703571Y-36049819D01*
X103894047Y-36049819D02*
X103703571Y-36049819D01*
X103703571Y-36049819D02*
X103608333Y-36097438D01*
X103608333Y-36097438D02*
X103560714Y-36145057D01*
X103560714Y-36145057D02*
X103465476Y-36287914D01*
X103465476Y-36287914D02*
X103417857Y-36478390D01*
X103417857Y-36478390D02*
X103417857Y-36859342D01*
X103417857Y-36859342D02*
X103465476Y-36954580D01*
X103465476Y-36954580D02*
X103513095Y-37002200D01*
X103513095Y-37002200D02*
X103608333Y-37049819D01*
X103608333Y-37049819D02*
X103798809Y-37049819D01*
X103798809Y-37049819D02*
X103894047Y-37002200D01*
X103894047Y-37002200D02*
X103941666Y-36954580D01*
X103941666Y-36954580D02*
X103989285Y-36859342D01*
X103989285Y-36859342D02*
X103989285Y-36621247D01*
X103989285Y-36621247D02*
X103941666Y-36526009D01*
X103941666Y-36526009D02*
X103894047Y-36478390D01*
X103894047Y-36478390D02*
X103798809Y-36430771D01*
X103798809Y-36430771D02*
X103608333Y-36430771D01*
X103608333Y-36430771D02*
X103513095Y-36478390D01*
X103513095Y-36478390D02*
X103465476Y-36526009D01*
X103465476Y-36526009D02*
X103417857Y-36621247D01*
X100926905Y-34579819D02*
X100926905Y-33579819D01*
X100926905Y-33579819D02*
X101165000Y-33579819D01*
X101165000Y-33579819D02*
X101307857Y-33627438D01*
X101307857Y-33627438D02*
X101403095Y-33722676D01*
X101403095Y-33722676D02*
X101450714Y-33817914D01*
X101450714Y-33817914D02*
X101498333Y-34008390D01*
X101498333Y-34008390D02*
X101498333Y-34151247D01*
X101498333Y-34151247D02*
X101450714Y-34341723D01*
X101450714Y-34341723D02*
X101403095Y-34436961D01*
X101403095Y-34436961D02*
X101307857Y-34532200D01*
X101307857Y-34532200D02*
X101165000Y-34579819D01*
X101165000Y-34579819D02*
X100926905Y-34579819D01*
X101831667Y-33579819D02*
X102450714Y-33579819D01*
X102450714Y-33579819D02*
X102117381Y-33960771D01*
X102117381Y-33960771D02*
X102260238Y-33960771D01*
X102260238Y-33960771D02*
X102355476Y-34008390D01*
X102355476Y-34008390D02*
X102403095Y-34056009D01*
X102403095Y-34056009D02*
X102450714Y-34151247D01*
X102450714Y-34151247D02*
X102450714Y-34389342D01*
X102450714Y-34389342D02*
X102403095Y-34484580D01*
X102403095Y-34484580D02*
X102355476Y-34532200D01*
X102355476Y-34532200D02*
X102260238Y-34579819D01*
X102260238Y-34579819D02*
X101974524Y-34579819D01*
X101974524Y-34579819D02*
X101879286Y-34532200D01*
X101879286Y-34532200D02*
X101831667Y-34484580D01*
X95933095Y-32479819D02*
X95933095Y-31479819D01*
X96504523Y-32479819D02*
X96075952Y-31908390D01*
X96504523Y-31479819D02*
X95933095Y-32051247D01*
X57312142Y-37049819D02*
X56740714Y-37049819D01*
X57026428Y-37049819D02*
X57026428Y-36049819D01*
X57026428Y-36049819D02*
X56931190Y-36192676D01*
X56931190Y-36192676D02*
X56835952Y-36287914D01*
X56835952Y-36287914D02*
X56740714Y-36335533D01*
X57740714Y-37049819D02*
X57740714Y-36049819D01*
X57740714Y-36049819D02*
X58312142Y-37049819D01*
X58312142Y-37049819D02*
X58312142Y-36049819D01*
X59216904Y-36383152D02*
X59216904Y-37049819D01*
X58978809Y-36002200D02*
X58740714Y-36716485D01*
X58740714Y-36716485D02*
X59359761Y-36716485D01*
X59931190Y-36049819D02*
X60026428Y-36049819D01*
X60026428Y-36049819D02*
X60121666Y-36097438D01*
X60121666Y-36097438D02*
X60169285Y-36145057D01*
X60169285Y-36145057D02*
X60216904Y-36240295D01*
X60216904Y-36240295D02*
X60264523Y-36430771D01*
X60264523Y-36430771D02*
X60264523Y-36668866D01*
X60264523Y-36668866D02*
X60216904Y-36859342D01*
X60216904Y-36859342D02*
X60169285Y-36954580D01*
X60169285Y-36954580D02*
X60121666Y-37002200D01*
X60121666Y-37002200D02*
X60026428Y-37049819D01*
X60026428Y-37049819D02*
X59931190Y-37049819D01*
X59931190Y-37049819D02*
X59835952Y-37002200D01*
X59835952Y-37002200D02*
X59788333Y-36954580D01*
X59788333Y-36954580D02*
X59740714Y-36859342D01*
X59740714Y-36859342D02*
X59693095Y-36668866D01*
X59693095Y-36668866D02*
X59693095Y-36430771D01*
X59693095Y-36430771D02*
X59740714Y-36240295D01*
X59740714Y-36240295D02*
X59788333Y-36145057D01*
X59788333Y-36145057D02*
X59835952Y-36097438D01*
X59835952Y-36097438D02*
X59931190Y-36049819D01*
X60883571Y-36049819D02*
X60978809Y-36049819D01*
X60978809Y-36049819D02*
X61074047Y-36097438D01*
X61074047Y-36097438D02*
X61121666Y-36145057D01*
X61121666Y-36145057D02*
X61169285Y-36240295D01*
X61169285Y-36240295D02*
X61216904Y-36430771D01*
X61216904Y-36430771D02*
X61216904Y-36668866D01*
X61216904Y-36668866D02*
X61169285Y-36859342D01*
X61169285Y-36859342D02*
X61121666Y-36954580D01*
X61121666Y-36954580D02*
X61074047Y-37002200D01*
X61074047Y-37002200D02*
X60978809Y-37049819D01*
X60978809Y-37049819D02*
X60883571Y-37049819D01*
X60883571Y-37049819D02*
X60788333Y-37002200D01*
X60788333Y-37002200D02*
X60740714Y-36954580D01*
X60740714Y-36954580D02*
X60693095Y-36859342D01*
X60693095Y-36859342D02*
X60645476Y-36668866D01*
X60645476Y-36668866D02*
X60645476Y-36430771D01*
X60645476Y-36430771D02*
X60693095Y-36240295D01*
X60693095Y-36240295D02*
X60740714Y-36145057D01*
X60740714Y-36145057D02*
X60788333Y-36097438D01*
X60788333Y-36097438D02*
X60883571Y-36049819D01*
X62074047Y-36049819D02*
X61883571Y-36049819D01*
X61883571Y-36049819D02*
X61788333Y-36097438D01*
X61788333Y-36097438D02*
X61740714Y-36145057D01*
X61740714Y-36145057D02*
X61645476Y-36287914D01*
X61645476Y-36287914D02*
X61597857Y-36478390D01*
X61597857Y-36478390D02*
X61597857Y-36859342D01*
X61597857Y-36859342D02*
X61645476Y-36954580D01*
X61645476Y-36954580D02*
X61693095Y-37002200D01*
X61693095Y-37002200D02*
X61788333Y-37049819D01*
X61788333Y-37049819D02*
X61978809Y-37049819D01*
X61978809Y-37049819D02*
X62074047Y-37002200D01*
X62074047Y-37002200D02*
X62121666Y-36954580D01*
X62121666Y-36954580D02*
X62169285Y-36859342D01*
X62169285Y-36859342D02*
X62169285Y-36621247D01*
X62169285Y-36621247D02*
X62121666Y-36526009D01*
X62121666Y-36526009D02*
X62074047Y-36478390D01*
X62074047Y-36478390D02*
X61978809Y-36430771D01*
X61978809Y-36430771D02*
X61788333Y-36430771D01*
X61788333Y-36430771D02*
X61693095Y-36478390D01*
X61693095Y-36478390D02*
X61645476Y-36526009D01*
X61645476Y-36526009D02*
X61597857Y-36621247D01*
X54113095Y-32479819D02*
X54113095Y-31479819D01*
X54684523Y-32479819D02*
X54255952Y-31908390D01*
X54684523Y-31479819D02*
X54113095Y-32051247D01*
X59106905Y-34579819D02*
X59106905Y-33579819D01*
X59106905Y-33579819D02*
X59345000Y-33579819D01*
X59345000Y-33579819D02*
X59487857Y-33627438D01*
X59487857Y-33627438D02*
X59583095Y-33722676D01*
X59583095Y-33722676D02*
X59630714Y-33817914D01*
X59630714Y-33817914D02*
X59678333Y-34008390D01*
X59678333Y-34008390D02*
X59678333Y-34151247D01*
X59678333Y-34151247D02*
X59630714Y-34341723D01*
X59630714Y-34341723D02*
X59583095Y-34436961D01*
X59583095Y-34436961D02*
X59487857Y-34532200D01*
X59487857Y-34532200D02*
X59345000Y-34579819D01*
X59345000Y-34579819D02*
X59106905Y-34579819D01*
X60630714Y-34579819D02*
X60059286Y-34579819D01*
X60345000Y-34579819D02*
X60345000Y-33579819D01*
X60345000Y-33579819D02*
X60249762Y-33722676D01*
X60249762Y-33722676D02*
X60154524Y-33817914D01*
X60154524Y-33817914D02*
X60059286Y-33865533D01*
D11*
%TO.C,D5*%
X54375000Y-50025000D02*
X56855000Y-50025000D01*
X57535000Y-48675000D02*
X57535000Y-51375000D01*
X57635000Y-48675000D02*
X57635000Y-51375000D01*
X57735000Y-48675000D02*
X57735000Y-51375000D01*
X64535000Y-50025000D02*
X62055000Y-50025000D01*
X56855000Y-48675000D02*
X62055000Y-48675000D01*
X62055000Y-51375000D01*
X56855000Y-51375000D01*
X56855000Y-48675000D01*
%TO.C,D2*%
X75285000Y-34125000D02*
X77765000Y-34125000D01*
X78445000Y-32775000D02*
X78445000Y-35475000D01*
X78545000Y-32775000D02*
X78545000Y-35475000D01*
X78645000Y-32775000D02*
X78645000Y-35475000D01*
X85445000Y-34125000D02*
X82965000Y-34125000D01*
X77765000Y-32775000D02*
X82965000Y-32775000D01*
X82965000Y-35475000D01*
X77765000Y-35475000D01*
X77765000Y-32775000D01*
%TO.C,J2*%
X145640000Y-28250000D02*
X145640000Y-35750000D01*
X145640000Y-35750000D02*
X155640000Y-35750000D01*
X145690000Y-34550000D02*
X155590000Y-34550000D01*
X155640000Y-28250000D02*
X145640000Y-28250000D01*
X155640000Y-35750000D02*
X155640000Y-28250000D01*
%TO.C,C3*%
X82176629Y-69627500D02*
X83976629Y-69627500D01*
X83076629Y-68727500D02*
X83076629Y-70527500D01*
X98913900Y-73575000D02*
G75*
G02*
X80913900Y-73575000I-9000000J0D01*
G01*
X80913900Y-73575000D02*
G75*
G02*
X98913900Y-73575000I9000000J0D01*
G01*
%TO.C,D4*%
X117105000Y-34125000D02*
X119585000Y-34125000D01*
X120265000Y-32775000D02*
X120265000Y-35475000D01*
X120365000Y-32775000D02*
X120365000Y-35475000D01*
X120465000Y-32775000D02*
X120465000Y-35475000D01*
X127265000Y-34125000D02*
X124785000Y-34125000D01*
X119585000Y-32775000D02*
X124785000Y-32775000D01*
X124785000Y-35475000D01*
X119585000Y-35475000D01*
X119585000Y-32775000D01*
%TO.C,R1*%
X108263900Y-73575000D02*
X108923900Y-73575000D01*
X115883900Y-73575000D02*
X115223900Y-73575000D01*
X108923900Y-72325000D02*
X115223900Y-72325000D01*
X115223900Y-74825000D01*
X108923900Y-74825000D01*
X108923900Y-72325000D01*
%TO.C,D6*%
X75285000Y-50025000D02*
X77765000Y-50025000D01*
X78445000Y-48675000D02*
X78445000Y-51375000D01*
X78545000Y-48675000D02*
X78545000Y-51375000D01*
X78645000Y-48675000D02*
X78645000Y-51375000D01*
X85445000Y-50025000D02*
X82965000Y-50025000D01*
X77765000Y-48675000D02*
X82965000Y-48675000D01*
X82965000Y-51375000D01*
X77765000Y-51375000D01*
X77765000Y-48675000D01*
%TO.C,C1*%
X96902129Y-46077500D02*
X98702129Y-46077500D01*
X97802129Y-45177500D02*
X97802129Y-46977500D01*
X113639400Y-50025000D02*
G75*
G02*
X95639400Y-50025000I-9000000J0D01*
G01*
X95639400Y-50025000D02*
G75*
G02*
X113639400Y-50025000I9000000J0D01*
G01*
%TO.C,C2*%
X55082129Y-69627500D02*
X56882129Y-69627500D01*
X55982129Y-68727500D02*
X55982129Y-70527500D01*
X71819400Y-73575000D02*
G75*
G02*
X53819400Y-73575000I-9000000J0D01*
G01*
X53819400Y-73575000D02*
G75*
G02*
X71819400Y-73575000I9000000J0D01*
G01*
%TO.C,J1*%
X27450000Y-28250000D02*
X42550000Y-28250000D01*
X27450000Y-35750000D02*
X27450000Y-28250000D01*
X42550000Y-28250000D02*
X42550000Y-35750000D01*
X42550000Y-29450000D02*
X27450000Y-29450000D01*
X42550000Y-35750000D02*
X27450000Y-35750000D01*
%TO.C,D3*%
X96195000Y-34125000D02*
X98675000Y-34125000D01*
X99355000Y-32775000D02*
X99355000Y-35475000D01*
X99455000Y-32775000D02*
X99455000Y-35475000D01*
X99555000Y-32775000D02*
X99555000Y-35475000D01*
X106355000Y-34125000D02*
X103875000Y-34125000D01*
X98675000Y-32775000D02*
X103875000Y-32775000D01*
X103875000Y-35475000D01*
X98675000Y-35475000D01*
X98675000Y-32775000D01*
%TO.C,D1*%
X54375000Y-34125000D02*
X56855000Y-34125000D01*
X57535000Y-32775000D02*
X57535000Y-35475000D01*
X57635000Y-32775000D02*
X57635000Y-35475000D01*
X57735000Y-32775000D02*
X57735000Y-35475000D01*
X64535000Y-34125000D02*
X62055000Y-34125000D01*
X56855000Y-32775000D02*
X62055000Y-32775000D01*
X62055000Y-35475000D01*
X56855000Y-35475000D01*
X56855000Y-32775000D01*
%TD*%
M02*
