%TF.GenerationSoftware,KiCad,Pcbnew,9.0.6*%
%TF.CreationDate,2026-06-10T07:38:55+02:00*%
%TF.ProjectId,rectifier,72656374-6966-4696-9572-2e6b69636164,rev?*%
%TF.SameCoordinates,Original*%
%TF.FileFunction,Copper,L1,Top*%
%TF.FilePolarity,Positive*%
%FSLAX46Y46*%
G04 Gerber Fmt 4.6, Leading zero omitted, Abs format (unit mm)*
G04 Created by KiCad (PCBNEW 9.0.6) date 2026-06-10 07:38:55*
%MOMM*%
%LPD*%
G01*
G04 APERTURE LIST*
G04 Aperture macros list*
%AMRoundRect*
0 Rectangle with rounded corners*
0 $1 Rounding radius*
0 $2 $3 $4 $5 $6 $7 $8 $9 X,Y pos of 4 corners*
0 Add a 4 corners polygon primitive as box body*
4,1,4,$2,$3,$4,$5,$6,$7,$8,$9,$2,$3,0*
0 Add four circle primitives for the rounded corners*
1,1,$1+$1,$2,$3*
1,1,$1+$1,$4,$5*
1,1,$1+$1,$6,$7*
1,1,$1+$1,$8,$9*
0 Add four rect primitives between the rounded corners*
20,1,$1+$1,$2,$3,$4,$5,0*
20,1,$1+$1,$4,$5,$6,$7,0*
20,1,$1+$1,$6,$7,$8,$9,0*
20,1,$1+$1,$8,$9,$2,$3,0*%
G04 Aperture macros list end*
%TA.AperFunction,ComponentPad*%
%ADD10RoundRect,0.249999X-0.850001X-0.850001X0.850001X-0.850001X0.850001X0.850001X-0.850001X0.850001X0*%
%TD*%
%TA.AperFunction,ComponentPad*%
%ADD11C,2.200000*%
%TD*%
%TA.AperFunction,ComponentPad*%
%ADD12R,3.000000X3.000000*%
%TD*%
%TA.AperFunction,ComponentPad*%
%ADD13C,3.000000*%
%TD*%
%TA.AperFunction,ComponentPad*%
%ADD14RoundRect,0.250001X-0.949999X-0.949999X0.949999X-0.949999X0.949999X0.949999X-0.949999X0.949999X0*%
%TD*%
%TA.AperFunction,ComponentPad*%
%ADD15C,2.400000*%
%TD*%
%TA.AperFunction,ComponentPad*%
%ADD16C,1.600000*%
%TD*%
%TA.AperFunction,Conductor*%
%ADD17C,1.000000*%
%TD*%
G04 APERTURE END LIST*
D10*
%TO.P,D5,1*%
%TO.N,/PH_B*%
X54375000Y-50025000D03*
D11*
%TO.P,D5,2*%
%TO.N,GND*%
X64535000Y-50025000D03*
%TD*%
D10*
%TO.P,D2,1*%
%TO.N,V1*%
X75285000Y-34125000D03*
D11*
%TO.P,D2,2*%
%TO.N,/PH_B*%
X85445000Y-34125000D03*
%TD*%
D12*
%TO.P,J2,1*%
%TO.N,V1*%
X148100000Y-32000000D03*
D13*
%TO.P,J2,2*%
%TO.N,GND*%
X153180000Y-32000000D03*
%TD*%
D14*
%TO.P,C3,1*%
%TO.N,V1*%
X86163900Y-73575000D03*
D15*
%TO.P,C3,2*%
%TO.N,GND*%
X93663900Y-73575000D03*
%TD*%
D10*
%TO.P,D4,1*%
%TO.N,/PH_A*%
X117105000Y-34125000D03*
D11*
%TO.P,D4,2*%
%TO.N,GND*%
X127265000Y-34125000D03*
%TD*%
D16*
%TO.P,R1,1*%
%TO.N,V1*%
X108263900Y-73575000D03*
%TO.P,R1,2*%
%TO.N,GND*%
X115883900Y-73575000D03*
%TD*%
D10*
%TO.P,D6,1*%
%TO.N,/PH_C*%
X75285000Y-50025000D03*
D11*
%TO.P,D6,2*%
%TO.N,GND*%
X85445000Y-50025000D03*
%TD*%
D14*
%TO.P,C1,1*%
%TO.N,V1*%
X100889400Y-50025000D03*
D15*
%TO.P,C1,2*%
%TO.N,GND*%
X108389400Y-50025000D03*
%TD*%
D14*
%TO.P,C2,1*%
%TO.N,V1*%
X59069400Y-73575000D03*
D15*
%TO.P,C2,2*%
%TO.N,GND*%
X66569400Y-73575000D03*
%TD*%
D12*
%TO.P,J1,1*%
%TO.N,/PH_A*%
X40080000Y-32000000D03*
D13*
%TO.P,J1,2*%
%TO.N,/PH_B*%
X35000000Y-32000000D03*
%TO.P,J1,3*%
%TO.N,/PH_C*%
X29920000Y-32000000D03*
%TD*%
D10*
%TO.P,D3,1*%
%TO.N,V1*%
X96195000Y-34125000D03*
D11*
%TO.P,D3,2*%
%TO.N,/PH_C*%
X106355000Y-34125000D03*
%TD*%
D10*
%TO.P,D1,1*%
%TO.N,V1*%
X54375000Y-34125000D03*
D11*
%TO.P,D1,2*%
%TO.N,/PH_A*%
X64535000Y-34125000D03*
%TD*%
D17*
%TO.N,V1*%
X108263900Y-57399500D02*
X100889400Y-50025000D01*
X108263900Y-73575000D02*
X108263900Y-57399500D01*
%TD*%
%TA.AperFunction,NonConductor*%
G36*
X165442539Y-20520185D02*
G01*
X165488294Y-20572989D01*
X165499500Y-20624500D01*
X165499500Y-93375500D01*
X165479815Y-93442539D01*
X165427011Y-93488294D01*
X165375500Y-93499500D01*
X20624500Y-93499500D01*
X20557461Y-93479815D01*
X20511706Y-93427011D01*
X20500500Y-93375500D01*
X20500500Y-72573396D01*
X57068900Y-72573396D01*
X57068900Y-74576602D01*
X57084099Y-74730931D01*
X57144170Y-74928958D01*
X57241713Y-75111448D01*
X57241715Y-75111450D01*
X57372989Y-75271410D01*
X57532949Y-75402684D01*
X57532951Y-75402686D01*
X57715441Y-75500229D01*
X57715443Y-75500229D01*
X57715446Y-75500231D01*
X57913467Y-75560300D01*
X57913466Y-75560300D01*
X57924370Y-75561373D01*
X58067793Y-75575500D01*
X60071006Y-75575499D01*
X60225333Y-75560300D01*
X60423354Y-75500231D01*
X60605850Y-75402685D01*
X60765810Y-75271410D01*
X60897085Y-75111450D01*
X60994631Y-74928954D01*
X61054700Y-74730933D01*
X61069900Y-74576607D01*
X61069899Y-73443872D01*
X64568900Y-73443872D01*
X64568900Y-73706127D01*
X64595523Y-73908339D01*
X64603130Y-73966116D01*
X64662953Y-74189379D01*
X64671002Y-74219418D01*
X64671005Y-74219428D01*
X64771353Y-74461690D01*
X64771358Y-74461700D01*
X64902475Y-74688803D01*
X65062118Y-74896851D01*
X65062126Y-74896860D01*
X65247540Y-75082274D01*
X65247548Y-75082281D01*
X65455596Y-75241924D01*
X65682699Y-75373041D01*
X65682709Y-75373046D01*
X65924971Y-75473394D01*
X65924981Y-75473398D01*
X66178284Y-75541270D01*
X66438280Y-75575500D01*
X66438287Y-75575500D01*
X66700513Y-75575500D01*
X66700520Y-75575500D01*
X66960516Y-75541270D01*
X67213819Y-75473398D01*
X67456097Y-75373043D01*
X67683203Y-75241924D01*
X67891251Y-75082282D01*
X67891255Y-75082277D01*
X67891260Y-75082274D01*
X68076674Y-74896860D01*
X68076677Y-74896855D01*
X68076682Y-74896851D01*
X68236324Y-74688803D01*
X68367443Y-74461697D01*
X68467798Y-74219419D01*
X68535670Y-73966116D01*
X68569900Y-73706120D01*
X68569900Y-73443880D01*
X68535670Y-73183884D01*
X68467798Y-72930581D01*
X68387264Y-72736155D01*
X68367446Y-72688309D01*
X68367441Y-72688300D01*
X68367440Y-72688299D01*
X68301102Y-72573396D01*
X84163400Y-72573396D01*
X84163400Y-74576602D01*
X84178599Y-74730931D01*
X84238670Y-74928958D01*
X84336213Y-75111448D01*
X84336215Y-75111450D01*
X84467489Y-75271410D01*
X84627449Y-75402684D01*
X84627451Y-75402686D01*
X84809941Y-75500229D01*
X84809943Y-75500229D01*
X84809946Y-75500231D01*
X85007967Y-75560300D01*
X85007966Y-75560300D01*
X85018870Y-75561373D01*
X85162293Y-75575500D01*
X87165506Y-75575499D01*
X87319833Y-75560300D01*
X87517854Y-75500231D01*
X87700350Y-75402685D01*
X87860310Y-75271410D01*
X87991585Y-75111450D01*
X88089131Y-74928954D01*
X88149200Y-74730933D01*
X88164400Y-74576607D01*
X88164399Y-73443872D01*
X91663400Y-73443872D01*
X91663400Y-73706127D01*
X91690023Y-73908339D01*
X91697630Y-73966116D01*
X91757453Y-74189379D01*
X91765502Y-74219418D01*
X91765505Y-74219428D01*
X91865853Y-74461690D01*
X91865858Y-74461700D01*
X91996975Y-74688803D01*
X92156618Y-74896851D01*
X92156626Y-74896860D01*
X92342040Y-75082274D01*
X92342048Y-75082281D01*
X92550096Y-75241924D01*
X92777199Y-75373041D01*
X92777209Y-75373046D01*
X93019471Y-75473394D01*
X93019481Y-75473398D01*
X93272784Y-75541270D01*
X93532780Y-75575500D01*
X93532787Y-75575500D01*
X93795013Y-75575500D01*
X93795020Y-75575500D01*
X94055016Y-75541270D01*
X94308319Y-75473398D01*
X94550597Y-75373043D01*
X94777703Y-75241924D01*
X94985751Y-75082282D01*
X94985755Y-75082277D01*
X94985760Y-75082274D01*
X95171174Y-74896860D01*
X95171177Y-74896855D01*
X95171182Y-74896851D01*
X95330824Y-74688803D01*
X95461943Y-74461697D01*
X95562298Y-74219419D01*
X95630170Y-73966116D01*
X95664400Y-73706120D01*
X95664400Y-73443880D01*
X95630170Y-73183884D01*
X95562298Y-72930581D01*
X95481764Y-72736155D01*
X95461946Y-72688309D01*
X95461941Y-72688299D01*
X95330824Y-72461196D01*
X95171181Y-72253148D01*
X95171174Y-72253140D01*
X94985760Y-72067726D01*
X94985751Y-72067718D01*
X94777703Y-71908075D01*
X94550600Y-71776958D01*
X94550590Y-71776953D01*
X94308328Y-71676605D01*
X94308321Y-71676603D01*
X94308319Y-71676602D01*
X94055016Y-71608730D01*
X93997239Y-71601123D01*
X93795027Y-71574500D01*
X93795020Y-71574500D01*
X93532780Y-71574500D01*
X93532772Y-71574500D01*
X93301672Y-71604926D01*
X93272784Y-71608730D01*
X93119624Y-71649769D01*
X93019481Y-71676602D01*
X93019471Y-71676605D01*
X92777209Y-71776953D01*
X92777199Y-71776958D01*
X92550096Y-71908075D01*
X92342048Y-72067718D01*
X92156618Y-72253148D01*
X91996975Y-72461196D01*
X91865858Y-72688299D01*
X91865853Y-72688309D01*
X91765505Y-72930571D01*
X91765502Y-72930581D01*
X91697630Y-73183885D01*
X91663400Y-73443872D01*
X88164399Y-73443872D01*
X88164399Y-72573394D01*
X88149200Y-72419067D01*
X88089131Y-72221046D01*
X88089129Y-72221043D01*
X88089129Y-72221041D01*
X87991586Y-72038551D01*
X87991584Y-72038549D01*
X87860310Y-71878589D01*
X87700350Y-71747315D01*
X87700348Y-71747313D01*
X87517858Y-71649770D01*
X87418843Y-71619734D01*
X87319833Y-71589700D01*
X87319831Y-71589699D01*
X87319833Y-71589699D01*
X87209120Y-71578795D01*
X87165507Y-71574500D01*
X87165503Y-71574500D01*
X85162297Y-71574500D01*
X85007968Y-71589699D01*
X84809941Y-71649770D01*
X84627451Y-71747313D01*
X84627449Y-71747315D01*
X84467489Y-71878589D01*
X84336215Y-72038549D01*
X84336213Y-72038551D01*
X84238670Y-72221041D01*
X84178599Y-72419068D01*
X84163400Y-72573396D01*
X68301102Y-72573396D01*
X68277401Y-72532344D01*
X68236324Y-72461196D01*
X68076681Y-72253148D01*
X68076674Y-72253140D01*
X67891260Y-72067726D01*
X67891251Y-72067718D01*
X67683203Y-71908075D01*
X67456100Y-71776958D01*
X67456090Y-71776953D01*
X67213828Y-71676605D01*
X67213821Y-71676603D01*
X67213819Y-71676602D01*
X66960516Y-71608730D01*
X66902739Y-71601123D01*
X66700527Y-71574500D01*
X66700520Y-71574500D01*
X66438280Y-71574500D01*
X66438272Y-71574500D01*
X66207172Y-71604926D01*
X66178284Y-71608730D01*
X66025124Y-71649769D01*
X65924981Y-71676602D01*
X65924971Y-71676605D01*
X65682709Y-71776953D01*
X65682699Y-71776958D01*
X65455596Y-71908075D01*
X65247548Y-72067718D01*
X65062118Y-72253148D01*
X64902475Y-72461196D01*
X64771358Y-72688299D01*
X64771353Y-72688309D01*
X64671005Y-72930571D01*
X64671002Y-72930581D01*
X64603130Y-73183885D01*
X64568900Y-73443872D01*
X61069899Y-73443872D01*
X61069899Y-72573394D01*
X61054700Y-72419067D01*
X60994631Y-72221046D01*
X60994629Y-72221043D01*
X60994629Y-72221041D01*
X60897086Y-72038551D01*
X60897084Y-72038549D01*
X60765810Y-71878589D01*
X60605850Y-71747315D01*
X60605848Y-71747313D01*
X60423358Y-71649770D01*
X60324343Y-71619734D01*
X60225333Y-71589700D01*
X60225331Y-71589699D01*
X60225333Y-71589699D01*
X60114620Y-71578795D01*
X60071007Y-71574500D01*
X60071003Y-71574500D01*
X58067797Y-71574500D01*
X57913468Y-71589699D01*
X57715441Y-71649770D01*
X57532951Y-71747313D01*
X57532949Y-71747315D01*
X57372989Y-71878589D01*
X57241715Y-72038549D01*
X57241713Y-72038551D01*
X57144170Y-72221041D01*
X57084099Y-72419068D01*
X57068900Y-72573396D01*
X20500500Y-72573396D01*
X20500500Y-49123394D01*
X52474500Y-49123394D01*
X52474500Y-50926604D01*
X52489699Y-51080932D01*
X52489700Y-51080935D01*
X52549768Y-51278955D01*
X52644903Y-51456939D01*
X52647317Y-51461454D01*
X52778589Y-51621410D01*
X52938545Y-51752682D01*
X52938549Y-51752685D01*
X53121045Y-51850232D01*
X53319065Y-51910300D01*
X53319064Y-51910300D01*
X53329968Y-51911373D01*
X53473391Y-51925500D01*
X55276608Y-51925499D01*
X55430935Y-51910300D01*
X55628955Y-51850232D01*
X55811451Y-51752685D01*
X55971410Y-51621410D01*
X56102685Y-51461451D01*
X56200232Y-51278955D01*
X56260300Y-51080935D01*
X56275500Y-50926609D01*
X56275499Y-49900441D01*
X62634500Y-49900441D01*
X62634500Y-50149558D01*
X62634501Y-50149575D01*
X62667017Y-50396561D01*
X62731498Y-50637207D01*
X62826830Y-50867361D01*
X62826837Y-50867376D01*
X62951400Y-51083126D01*
X63103060Y-51280774D01*
X63103066Y-51280781D01*
X63279218Y-51456933D01*
X63279225Y-51456939D01*
X63476873Y-51608599D01*
X63692623Y-51733162D01*
X63692638Y-51733169D01*
X63791825Y-51774253D01*
X63922793Y-51828502D01*
X64163435Y-51892982D01*
X64410435Y-51925500D01*
X64410442Y-51925500D01*
X64659558Y-51925500D01*
X64659565Y-51925500D01*
X64906565Y-51892982D01*
X65147207Y-51828502D01*
X65377373Y-51733164D01*
X65593127Y-51608599D01*
X65790776Y-51456938D01*
X65966938Y-51280776D01*
X66118599Y-51083127D01*
X66243164Y-50867373D01*
X66338502Y-50637207D01*
X66402982Y-50396565D01*
X66435500Y-50149565D01*
X66435500Y-49900435D01*
X66402982Y-49653435D01*
X66338502Y-49412793D01*
X66243169Y-49182638D01*
X66243168Y-49182635D01*
X66243165Y-49182630D01*
X66243164Y-49182627D01*
X66243004Y-49182351D01*
X66243004Y-49182349D01*
X66243002Y-49182347D01*
X66217573Y-49138303D01*
X66208965Y-49123394D01*
X73384500Y-49123394D01*
X73384500Y-50926604D01*
X73399699Y-51080932D01*
X73399700Y-51080935D01*
X73459768Y-51278955D01*
X73554903Y-51456939D01*
X73557317Y-51461454D01*
X73688589Y-51621410D01*
X73848545Y-51752682D01*
X73848549Y-51752685D01*
X74031045Y-51850232D01*
X74229065Y-51910300D01*
X74229064Y-51910300D01*
X74239968Y-51911373D01*
X74383391Y-51925500D01*
X76186608Y-51925499D01*
X76340935Y-51910300D01*
X76538955Y-51850232D01*
X76721451Y-51752685D01*
X76881410Y-51621410D01*
X77012685Y-51461451D01*
X77110232Y-51278955D01*
X77170300Y-51080935D01*
X77185500Y-50926609D01*
X77185499Y-49900441D01*
X83544500Y-49900441D01*
X83544500Y-50149558D01*
X83544501Y-50149575D01*
X83577017Y-50396561D01*
X83641498Y-50637207D01*
X83736830Y-50867361D01*
X83736837Y-50867376D01*
X83861400Y-51083126D01*
X84013060Y-51280774D01*
X84013066Y-51280781D01*
X84189218Y-51456933D01*
X84189225Y-51456939D01*
X84386873Y-51608599D01*
X84602623Y-51733162D01*
X84602638Y-51733169D01*
X84701825Y-51774253D01*
X84832793Y-51828502D01*
X85073435Y-51892982D01*
X85320435Y-51925500D01*
X85320442Y-51925500D01*
X85569558Y-51925500D01*
X85569565Y-51925500D01*
X85816565Y-51892982D01*
X86057207Y-51828502D01*
X86287373Y-51733164D01*
X86503127Y-51608599D01*
X86700776Y-51456938D01*
X86876938Y-51280776D01*
X87028599Y-51083127D01*
X87153164Y-50867373D01*
X87248502Y-50637207D01*
X87312982Y-50396565D01*
X87345500Y-50149565D01*
X87345500Y-49900435D01*
X87312982Y-49653435D01*
X87248502Y-49412793D01*
X87153167Y-49182635D01*
X87153162Y-49182623D01*
X87095269Y-49082349D01*
X87061233Y-49023396D01*
X98888900Y-49023396D01*
X98888900Y-51026602D01*
X98904099Y-51180931D01*
X98964170Y-51378958D01*
X99061713Y-51561448D01*
X99061715Y-51561450D01*
X99192989Y-51721410D01*
X99352949Y-51852684D01*
X99352951Y-51852686D01*
X99535441Y-51950229D01*
X99535443Y-51950229D01*
X99535446Y-51950231D01*
X99733467Y-52010300D01*
X99733466Y-52010300D01*
X99744370Y-52011373D01*
X99887793Y-52025500D01*
X100999352Y-52025499D01*
X101066391Y-52045184D01*
X101087033Y-52061818D01*
X106927081Y-57901866D01*
X106960566Y-57963189D01*
X106963400Y-57989547D01*
X106963400Y-72601761D01*
X106943715Y-72668800D01*
X106939718Y-72674646D01*
X106895032Y-72736151D01*
X106780660Y-72960616D01*
X106702810Y-73200214D01*
X106663400Y-73449038D01*
X106663400Y-73700961D01*
X106702810Y-73949785D01*
X106780660Y-74189383D01*
X106895032Y-74413848D01*
X107043101Y-74617649D01*
X107043105Y-74617654D01*
X107221245Y-74795794D01*
X107221250Y-74795798D01*
X107360339Y-74896851D01*
X107425055Y-74943870D01*
X107568084Y-75016747D01*
X107649516Y-75058239D01*
X107649518Y-75058239D01*
X107649521Y-75058241D01*
X107889115Y-75136090D01*
X108137938Y-75175500D01*
X108137939Y-75175500D01*
X108389861Y-75175500D01*
X108389862Y-75175500D01*
X108638685Y-75136090D01*
X108878279Y-75058241D01*
X109102745Y-74943870D01*
X109306556Y-74795793D01*
X109484693Y-74617656D01*
X109632770Y-74413845D01*
X109747141Y-74189379D01*
X109824990Y-73949785D01*
X109864400Y-73700962D01*
X109864400Y-73449038D01*
X114283400Y-73449038D01*
X114283400Y-73700961D01*
X114322810Y-73949785D01*
X114400660Y-74189383D01*
X114515032Y-74413848D01*
X114663101Y-74617649D01*
X114663105Y-74617654D01*
X114841245Y-74795794D01*
X114841250Y-74795798D01*
X114980339Y-74896851D01*
X115045055Y-74943870D01*
X115188084Y-75016747D01*
X115269516Y-75058239D01*
X115269518Y-75058239D01*
X115269521Y-75058241D01*
X115509115Y-75136090D01*
X115757938Y-75175500D01*
X115757939Y-75175500D01*
X116009861Y-75175500D01*
X116009862Y-75175500D01*
X116258685Y-75136090D01*
X116498279Y-75058241D01*
X116722745Y-74943870D01*
X116926556Y-74795793D01*
X117104693Y-74617656D01*
X117252770Y-74413845D01*
X117367141Y-74189379D01*
X117444990Y-73949785D01*
X117484400Y-73700962D01*
X117484400Y-73449038D01*
X117444990Y-73200215D01*
X117367141Y-72960621D01*
X117367139Y-72960618D01*
X117367139Y-72960616D01*
X117325647Y-72879184D01*
X117252770Y-72736155D01*
X117177351Y-72632349D01*
X117104698Y-72532350D01*
X117104694Y-72532345D01*
X116926554Y-72354205D01*
X116926549Y-72354201D01*
X116722748Y-72206132D01*
X116722747Y-72206131D01*
X116722745Y-72206130D01*
X116652647Y-72170413D01*
X116498283Y-72091760D01*
X116258685Y-72013910D01*
X116009862Y-71974500D01*
X115757938Y-71974500D01*
X115633526Y-71994205D01*
X115509114Y-72013910D01*
X115269516Y-72091760D01*
X115045051Y-72206132D01*
X114841250Y-72354201D01*
X114841245Y-72354205D01*
X114663105Y-72532345D01*
X114663101Y-72532350D01*
X114515032Y-72736151D01*
X114400660Y-72960616D01*
X114322810Y-73200214D01*
X114283400Y-73449038D01*
X109864400Y-73449038D01*
X109824990Y-73200215D01*
X109747141Y-72960621D01*
X109747139Y-72960618D01*
X109747139Y-72960616D01*
X109705647Y-72879184D01*
X109632770Y-72736155D01*
X109626146Y-72727038D01*
X109588082Y-72674646D01*
X109564602Y-72608840D01*
X109564400Y-72601761D01*
X109564400Y-57297148D01*
X109532377Y-57094965D01*
X109469118Y-56900276D01*
X109422653Y-56809085D01*
X109422652Y-56809084D01*
X109376187Y-56717889D01*
X109255866Y-56552281D01*
X102926218Y-50222633D01*
X102911514Y-50195705D01*
X102894922Y-50169887D01*
X102894030Y-50163686D01*
X102892733Y-50161310D01*
X102889899Y-50134952D01*
X102889899Y-49893872D01*
X106388900Y-49893872D01*
X106388900Y-50156127D01*
X106415523Y-50358339D01*
X106423130Y-50416116D01*
X106482371Y-50637207D01*
X106491002Y-50669418D01*
X106491005Y-50669428D01*
X106591353Y-50911690D01*
X106591358Y-50911700D01*
X106722475Y-51138803D01*
X106882118Y-51346851D01*
X106882126Y-51346860D01*
X107067540Y-51532274D01*
X107067548Y-51532281D01*
X107275596Y-51691924D01*
X107502699Y-51823041D01*
X107502709Y-51823046D01*
X107744971Y-51923394D01*
X107744981Y-51923398D01*
X107998284Y-51991270D01*
X108258280Y-52025500D01*
X108258287Y-52025500D01*
X108520513Y-52025500D01*
X108520520Y-52025500D01*
X108780516Y-51991270D01*
X109033819Y-51923398D01*
X109276097Y-51823043D01*
X109503203Y-51691924D01*
X109711251Y-51532282D01*
X109711255Y-51532277D01*
X109711260Y-51532274D01*
X109896674Y-51346860D01*
X109896677Y-51346855D01*
X109896682Y-51346851D01*
X110056324Y-51138803D01*
X110187443Y-50911697D01*
X110287798Y-50669419D01*
X110355670Y-50416116D01*
X110389900Y-50156120D01*
X110389900Y-49893880D01*
X110355670Y-49633884D01*
X110287798Y-49380581D01*
X110287794Y-49380571D01*
X110187446Y-49138309D01*
X110187441Y-49138299D01*
X110056324Y-48911196D01*
X109896681Y-48703148D01*
X109896674Y-48703140D01*
X109711260Y-48517726D01*
X109711251Y-48517718D01*
X109503203Y-48358075D01*
X109276100Y-48226958D01*
X109276090Y-48226953D01*
X109033828Y-48126605D01*
X109033821Y-48126603D01*
X109033819Y-48126602D01*
X108780516Y-48058730D01*
X108722739Y-48051123D01*
X108520527Y-48024500D01*
X108520520Y-48024500D01*
X108258280Y-48024500D01*
X108258272Y-48024500D01*
X108027172Y-48054926D01*
X107998284Y-48058730D01*
X107845124Y-48099769D01*
X107744981Y-48126602D01*
X107744971Y-48126605D01*
X107502709Y-48226953D01*
X107502699Y-48226958D01*
X107275596Y-48358075D01*
X107067548Y-48517718D01*
X106882118Y-48703148D01*
X106722475Y-48911196D01*
X106591358Y-49138299D01*
X106591353Y-49138309D01*
X106491005Y-49380571D01*
X106491002Y-49380581D01*
X106423130Y-49633885D01*
X106388900Y-49893872D01*
X102889899Y-49893872D01*
X102889899Y-49023397D01*
X102884548Y-48969067D01*
X102874700Y-48869067D01*
X102814631Y-48671046D01*
X102814629Y-48671043D01*
X102814629Y-48671041D01*
X102717086Y-48488551D01*
X102717084Y-48488549D01*
X102585810Y-48328589D01*
X102425850Y-48197315D01*
X102425848Y-48197313D01*
X102243358Y-48099770D01*
X102144343Y-48069734D01*
X102045333Y-48039700D01*
X102045331Y-48039699D01*
X102045333Y-48039699D01*
X101934620Y-48028795D01*
X101891007Y-48024500D01*
X101891003Y-48024500D01*
X99887797Y-48024500D01*
X99733468Y-48039699D01*
X99535441Y-48099770D01*
X99352951Y-48197313D01*
X99352949Y-48197315D01*
X99192989Y-48328589D01*
X99061715Y-48488549D01*
X99061713Y-48488551D01*
X98964170Y-48671041D01*
X98904099Y-48869068D01*
X98888900Y-49023396D01*
X87061233Y-49023396D01*
X87028599Y-48966873D01*
X86876939Y-48769225D01*
X86876933Y-48769218D01*
X86700781Y-48593066D01*
X86700774Y-48593060D01*
X86503126Y-48441400D01*
X86287376Y-48316837D01*
X86287361Y-48316830D01*
X86057207Y-48221498D01*
X85966955Y-48197315D01*
X85816565Y-48157018D01*
X85816564Y-48157017D01*
X85816561Y-48157017D01*
X85569575Y-48124501D01*
X85569570Y-48124500D01*
X85569565Y-48124500D01*
X85320435Y-48124500D01*
X85320429Y-48124500D01*
X85320424Y-48124501D01*
X85073438Y-48157017D01*
X84832792Y-48221498D01*
X84602638Y-48316830D01*
X84602623Y-48316837D01*
X84386873Y-48441400D01*
X84189225Y-48593060D01*
X84189218Y-48593066D01*
X84013066Y-48769218D01*
X84013060Y-48769225D01*
X83861400Y-48966873D01*
X83736837Y-49182623D01*
X83736830Y-49182638D01*
X83641498Y-49412792D01*
X83577017Y-49653438D01*
X83544501Y-49900424D01*
X83544500Y-49900441D01*
X77185499Y-49900441D01*
X77185499Y-49123392D01*
X77170300Y-48969065D01*
X77110232Y-48771045D01*
X77012685Y-48588549D01*
X77012682Y-48588545D01*
X76881410Y-48428589D01*
X76721454Y-48297317D01*
X76721452Y-48297316D01*
X76721451Y-48297315D01*
X76538955Y-48199768D01*
X76340935Y-48139700D01*
X76340933Y-48139699D01*
X76340935Y-48139699D01*
X76230222Y-48128795D01*
X76186609Y-48124500D01*
X76186605Y-48124500D01*
X74383395Y-48124500D01*
X74229067Y-48139699D01*
X74031042Y-48199769D01*
X73848545Y-48297317D01*
X73688589Y-48428589D01*
X73557317Y-48588545D01*
X73459769Y-48771042D01*
X73399699Y-48969066D01*
X73384500Y-49123394D01*
X66208965Y-49123394D01*
X66118599Y-48966873D01*
X66043550Y-48869067D01*
X65966939Y-48769225D01*
X65966933Y-48769218D01*
X65790781Y-48593066D01*
X65790774Y-48593060D01*
X65593126Y-48441400D01*
X65377376Y-48316837D01*
X65377361Y-48316830D01*
X65147207Y-48221498D01*
X65056955Y-48197315D01*
X64906565Y-48157018D01*
X64906564Y-48157017D01*
X64906561Y-48157017D01*
X64659575Y-48124501D01*
X64659570Y-48124500D01*
X64659565Y-48124500D01*
X64410435Y-48124500D01*
X64410429Y-48124500D01*
X64410424Y-48124501D01*
X64163438Y-48157017D01*
X63922792Y-48221498D01*
X63692638Y-48316830D01*
X63692623Y-48316837D01*
X63476873Y-48441400D01*
X63279225Y-48593060D01*
X63279218Y-48593066D01*
X63103066Y-48769218D01*
X63103060Y-48769225D01*
X62951400Y-48966873D01*
X62826837Y-49182623D01*
X62826830Y-49182638D01*
X62731498Y-49412792D01*
X62667017Y-49653438D01*
X62634501Y-49900424D01*
X62634500Y-49900441D01*
X56275499Y-49900441D01*
X56275499Y-49123392D01*
X56260300Y-48969065D01*
X56200232Y-48771045D01*
X56102685Y-48588549D01*
X56102682Y-48588545D01*
X55971410Y-48428589D01*
X55811454Y-48297317D01*
X55811452Y-48297316D01*
X55811451Y-48297315D01*
X55628955Y-48199768D01*
X55430935Y-48139700D01*
X55430933Y-48139699D01*
X55430935Y-48139699D01*
X55320222Y-48128795D01*
X55276609Y-48124500D01*
X55276605Y-48124500D01*
X53473395Y-48124500D01*
X53319067Y-48139699D01*
X53121042Y-48199769D01*
X52938545Y-48297317D01*
X52778589Y-48428589D01*
X52647317Y-48588545D01*
X52549769Y-48771042D01*
X52489699Y-48969066D01*
X52474500Y-49123394D01*
X20500500Y-49123394D01*
X20500500Y-31849223D01*
X27619500Y-31849223D01*
X27619500Y-32150776D01*
X27619501Y-32150793D01*
X27658861Y-32449766D01*
X27736913Y-32741060D01*
X27852314Y-33019661D01*
X27852318Y-33019671D01*
X28003099Y-33280831D01*
X28186679Y-33520078D01*
X28186685Y-33520085D01*
X28399914Y-33733314D01*
X28399921Y-33733320D01*
X28639168Y-33916900D01*
X28900328Y-34067681D01*
X28900329Y-34067681D01*
X28900332Y-34067683D01*
X29086072Y-34144619D01*
X29178939Y-34183086D01*
X29178940Y-34183086D01*
X29178942Y-34183087D01*
X29470232Y-34261138D01*
X29769217Y-34300500D01*
X29769224Y-34300500D01*
X30070776Y-34300500D01*
X30070783Y-34300500D01*
X30369768Y-34261138D01*
X30661058Y-34183087D01*
X30939668Y-34067683D01*
X31200832Y-33916900D01*
X31440080Y-33733319D01*
X31653319Y-33520080D01*
X31836900Y-33280832D01*
X31987683Y-33019668D01*
X32103087Y-32741058D01*
X32181138Y-32449768D01*
X32220500Y-32150783D01*
X32220500Y-31849223D01*
X32699500Y-31849223D01*
X32699500Y-32150776D01*
X32699501Y-32150793D01*
X32738861Y-32449766D01*
X32816913Y-32741060D01*
X32932314Y-33019661D01*
X32932318Y-33019671D01*
X33083099Y-33280831D01*
X33266679Y-33520078D01*
X33266685Y-33520085D01*
X33479914Y-33733314D01*
X33479921Y-33733320D01*
X33719168Y-33916900D01*
X33980328Y-34067681D01*
X33980329Y-34067681D01*
X33980332Y-34067683D01*
X34166072Y-34144619D01*
X34258939Y-34183086D01*
X34258940Y-34183086D01*
X34258942Y-34183087D01*
X34550232Y-34261138D01*
X34849217Y-34300500D01*
X34849224Y-34300500D01*
X35150776Y-34300500D01*
X35150783Y-34300500D01*
X35449768Y-34261138D01*
X35741058Y-34183087D01*
X36019668Y-34067683D01*
X36280832Y-33916900D01*
X36520080Y-33733319D01*
X36733319Y-33520080D01*
X36916900Y-33280832D01*
X37067683Y-33019668D01*
X37183087Y-32741058D01*
X37261138Y-32449768D01*
X37300500Y-32150783D01*
X37300500Y-31849217D01*
X37261138Y-31550232D01*
X37183087Y-31258942D01*
X37067683Y-30980332D01*
X36916900Y-30719168D01*
X36769486Y-30527053D01*
X36733320Y-30479921D01*
X36733314Y-30479914D01*
X36708439Y-30455039D01*
X37779500Y-30455039D01*
X37779500Y-33544960D01*
X37794630Y-33679249D01*
X37794631Y-33679254D01*
X37854211Y-33849523D01*
X37896547Y-33916900D01*
X37950184Y-34002262D01*
X38077738Y-34129816D01*
X38230478Y-34225789D01*
X38331500Y-34261138D01*
X38400745Y-34285368D01*
X38400750Y-34285369D01*
X38491246Y-34295565D01*
X38535040Y-34300499D01*
X38535043Y-34300500D01*
X38535046Y-34300500D01*
X41624957Y-34300500D01*
X41624958Y-34300499D01*
X41692104Y-34292934D01*
X41759249Y-34285369D01*
X41759252Y-34285368D01*
X41759255Y-34285368D01*
X41929522Y-34225789D01*
X42082262Y-34129816D01*
X42209816Y-34002262D01*
X42305789Y-33849522D01*
X42365368Y-33679255D01*
X42380500Y-33544954D01*
X42380500Y-33223394D01*
X52474500Y-33223394D01*
X52474500Y-35026604D01*
X52489699Y-35180932D01*
X52489700Y-35180935D01*
X52549768Y-35378955D01*
X52644903Y-35556939D01*
X52647317Y-35561454D01*
X52778589Y-35721410D01*
X52938545Y-35852682D01*
X52938549Y-35852685D01*
X53121045Y-35950232D01*
X53319065Y-36010300D01*
X53319064Y-36010300D01*
X53329968Y-36011373D01*
X53473391Y-36025500D01*
X55276608Y-36025499D01*
X55430935Y-36010300D01*
X55628955Y-35950232D01*
X55811451Y-35852685D01*
X55971410Y-35721410D01*
X56102685Y-35561451D01*
X56200232Y-35378955D01*
X56260300Y-35180935D01*
X56275500Y-35026609D01*
X56275499Y-34000441D01*
X62634500Y-34000441D01*
X62634500Y-34249558D01*
X62634501Y-34249575D01*
X62667017Y-34496561D01*
X62731498Y-34737207D01*
X62826830Y-34967361D01*
X62826837Y-34967376D01*
X62951400Y-35183126D01*
X63103060Y-35380774D01*
X63103066Y-35380781D01*
X63279218Y-35556933D01*
X63279225Y-35556939D01*
X63476873Y-35708599D01*
X63692623Y-35833162D01*
X63692638Y-35833169D01*
X63791825Y-35874253D01*
X63922793Y-35928502D01*
X64163435Y-35992982D01*
X64410435Y-36025500D01*
X64410442Y-36025500D01*
X64659558Y-36025500D01*
X64659565Y-36025500D01*
X64906565Y-35992982D01*
X65147207Y-35928502D01*
X65377373Y-35833164D01*
X65593127Y-35708599D01*
X65790776Y-35556938D01*
X65966938Y-35380776D01*
X66118599Y-35183127D01*
X66243164Y-34967373D01*
X66338502Y-34737207D01*
X66402982Y-34496565D01*
X66435500Y-34249565D01*
X66435500Y-34000435D01*
X66402982Y-33753435D01*
X66338502Y-33512793D01*
X66243169Y-33282638D01*
X66243168Y-33282635D01*
X66243165Y-33282630D01*
X66243164Y-33282627D01*
X66243004Y-33282351D01*
X66243004Y-33282349D01*
X66243002Y-33282347D01*
X66242127Y-33280832D01*
X66208966Y-33223394D01*
X73384500Y-33223394D01*
X73384500Y-35026604D01*
X73399699Y-35180932D01*
X73399700Y-35180935D01*
X73459768Y-35378955D01*
X73554903Y-35556939D01*
X73557317Y-35561454D01*
X73688589Y-35721410D01*
X73848545Y-35852682D01*
X73848549Y-35852685D01*
X74031045Y-35950232D01*
X74229065Y-36010300D01*
X74229064Y-36010300D01*
X74239968Y-36011373D01*
X74383391Y-36025500D01*
X76186608Y-36025499D01*
X76340935Y-36010300D01*
X76538955Y-35950232D01*
X76721451Y-35852685D01*
X76881410Y-35721410D01*
X77012685Y-35561451D01*
X77110232Y-35378955D01*
X77170300Y-35180935D01*
X77185500Y-35026609D01*
X77185499Y-34000441D01*
X83544500Y-34000441D01*
X83544500Y-34249558D01*
X83544501Y-34249575D01*
X83577017Y-34496561D01*
X83641498Y-34737207D01*
X83736830Y-34967361D01*
X83736837Y-34967376D01*
X83861400Y-35183126D01*
X84013060Y-35380774D01*
X84013066Y-35380781D01*
X84189218Y-35556933D01*
X84189225Y-35556939D01*
X84386873Y-35708599D01*
X84602623Y-35833162D01*
X84602638Y-35833169D01*
X84701825Y-35874253D01*
X84832793Y-35928502D01*
X85073435Y-35992982D01*
X85320435Y-36025500D01*
X85320442Y-36025500D01*
X85569558Y-36025500D01*
X85569565Y-36025500D01*
X85816565Y-35992982D01*
X86057207Y-35928502D01*
X86287373Y-35833164D01*
X86503127Y-35708599D01*
X86700776Y-35556938D01*
X86876938Y-35380776D01*
X87028599Y-35183127D01*
X87153164Y-34967373D01*
X87248502Y-34737207D01*
X87312982Y-34496565D01*
X87345500Y-34249565D01*
X87345500Y-34000435D01*
X87312982Y-33753435D01*
X87248502Y-33512793D01*
X87153169Y-33282638D01*
X87153168Y-33282635D01*
X87153165Y-33282630D01*
X87153164Y-33282627D01*
X87153004Y-33282351D01*
X87153004Y-33282349D01*
X87153002Y-33282347D01*
X87152127Y-33280832D01*
X87118966Y-33223394D01*
X94294500Y-33223394D01*
X94294500Y-35026604D01*
X94309699Y-35180932D01*
X94309700Y-35180935D01*
X94369768Y-35378955D01*
X94464903Y-35556939D01*
X94467317Y-35561454D01*
X94598589Y-35721410D01*
X94758545Y-35852682D01*
X94758549Y-35852685D01*
X94941045Y-35950232D01*
X95139065Y-36010300D01*
X95139064Y-36010300D01*
X95149968Y-36011373D01*
X95293391Y-36025500D01*
X97096608Y-36025499D01*
X97250935Y-36010300D01*
X97448955Y-35950232D01*
X97631451Y-35852685D01*
X97791410Y-35721410D01*
X97922685Y-35561451D01*
X98020232Y-35378955D01*
X98080300Y-35180935D01*
X98095500Y-35026609D01*
X98095499Y-34000441D01*
X104454500Y-34000441D01*
X104454500Y-34249558D01*
X104454501Y-34249575D01*
X104487017Y-34496561D01*
X104551498Y-34737207D01*
X104646830Y-34967361D01*
X104646837Y-34967376D01*
X104771400Y-35183126D01*
X104923060Y-35380774D01*
X104923066Y-35380781D01*
X105099218Y-35556933D01*
X105099225Y-35556939D01*
X105296873Y-35708599D01*
X105512623Y-35833162D01*
X105512638Y-35833169D01*
X105611825Y-35874253D01*
X105742793Y-35928502D01*
X105983435Y-35992982D01*
X106230435Y-36025500D01*
X106230442Y-36025500D01*
X106479558Y-36025500D01*
X106479565Y-36025500D01*
X106726565Y-35992982D01*
X106967207Y-35928502D01*
X107197373Y-35833164D01*
X107413127Y-35708599D01*
X107610776Y-35556938D01*
X107786938Y-35380776D01*
X107938599Y-35183127D01*
X108063164Y-34967373D01*
X108158502Y-34737207D01*
X108222982Y-34496565D01*
X108255500Y-34249565D01*
X108255500Y-34000435D01*
X108222982Y-33753435D01*
X108158502Y-33512793D01*
X108063169Y-33282638D01*
X108063168Y-33282635D01*
X108063165Y-33282630D01*
X108063164Y-33282627D01*
X108063004Y-33282351D01*
X108063004Y-33282349D01*
X108063002Y-33282347D01*
X108062127Y-33280832D01*
X108028966Y-33223394D01*
X115204500Y-33223394D01*
X115204500Y-35026604D01*
X115219699Y-35180932D01*
X115219700Y-35180935D01*
X115279768Y-35378955D01*
X115374903Y-35556939D01*
X115377317Y-35561454D01*
X115508589Y-35721410D01*
X115668545Y-35852682D01*
X115668549Y-35852685D01*
X115851045Y-35950232D01*
X116049065Y-36010300D01*
X116049064Y-36010300D01*
X116059968Y-36011373D01*
X116203391Y-36025500D01*
X118006608Y-36025499D01*
X118160935Y-36010300D01*
X118358955Y-35950232D01*
X118541451Y-35852685D01*
X118701410Y-35721410D01*
X118832685Y-35561451D01*
X118930232Y-35378955D01*
X118990300Y-35180935D01*
X119005500Y-35026609D01*
X119005499Y-34000441D01*
X125364500Y-34000441D01*
X125364500Y-34249558D01*
X125364501Y-34249575D01*
X125397017Y-34496561D01*
X125461498Y-34737207D01*
X125556830Y-34967361D01*
X125556837Y-34967376D01*
X125681400Y-35183126D01*
X125833060Y-35380774D01*
X125833066Y-35380781D01*
X126009218Y-35556933D01*
X126009225Y-35556939D01*
X126206873Y-35708599D01*
X126422623Y-35833162D01*
X126422638Y-35833169D01*
X126521825Y-35874253D01*
X126652793Y-35928502D01*
X126893435Y-35992982D01*
X127140435Y-36025500D01*
X127140442Y-36025500D01*
X127389558Y-36025500D01*
X127389565Y-36025500D01*
X127636565Y-35992982D01*
X127877207Y-35928502D01*
X128107373Y-35833164D01*
X128323127Y-35708599D01*
X128520776Y-35556938D01*
X128696938Y-35380776D01*
X128848599Y-35183127D01*
X128973164Y-34967373D01*
X129068502Y-34737207D01*
X129132982Y-34496565D01*
X129165500Y-34249565D01*
X129165500Y-34000435D01*
X129132982Y-33753435D01*
X129068502Y-33512793D01*
X128973167Y-33282635D01*
X128973162Y-33282623D01*
X128848599Y-33066873D01*
X128696939Y-32869225D01*
X128696933Y-32869218D01*
X128520781Y-32693066D01*
X128520774Y-32693060D01*
X128323126Y-32541400D01*
X128107376Y-32416837D01*
X128107361Y-32416830D01*
X127877207Y-32321498D01*
X127636561Y-32257017D01*
X127389575Y-32224501D01*
X127389570Y-32224500D01*
X127389565Y-32224500D01*
X127140435Y-32224500D01*
X127140429Y-32224500D01*
X127140424Y-32224501D01*
X126893438Y-32257017D01*
X126652792Y-32321498D01*
X126422638Y-32416830D01*
X126422623Y-32416837D01*
X126206873Y-32541400D01*
X126009225Y-32693060D01*
X126009218Y-32693066D01*
X125833066Y-32869218D01*
X125833060Y-32869225D01*
X125681400Y-33066873D01*
X125556837Y-33282623D01*
X125556830Y-33282638D01*
X125461498Y-33512792D01*
X125397017Y-33753438D01*
X125364501Y-34000424D01*
X125364500Y-34000441D01*
X119005499Y-34000441D01*
X119005499Y-33223392D01*
X118990300Y-33069065D01*
X118930232Y-32871045D01*
X118832685Y-32688549D01*
X118711924Y-32541401D01*
X118701410Y-32528589D01*
X118541454Y-32397317D01*
X118541452Y-32397316D01*
X118541451Y-32397315D01*
X118358955Y-32299768D01*
X118160935Y-32239700D01*
X118160933Y-32239699D01*
X118160935Y-32239699D01*
X118050222Y-32228795D01*
X118006609Y-32224500D01*
X118006605Y-32224500D01*
X116203395Y-32224500D01*
X116049067Y-32239699D01*
X115851042Y-32299769D01*
X115668545Y-32397317D01*
X115508589Y-32528589D01*
X115377317Y-32688545D01*
X115279769Y-32871042D01*
X115219699Y-33069066D01*
X115204500Y-33223394D01*
X108028966Y-33223394D01*
X107938599Y-33066873D01*
X107902372Y-33019661D01*
X107786939Y-32869225D01*
X107786933Y-32869218D01*
X107610781Y-32693066D01*
X107610774Y-32693060D01*
X107413126Y-32541400D01*
X107197376Y-32416837D01*
X107197361Y-32416830D01*
X106967207Y-32321498D01*
X106726561Y-32257017D01*
X106479575Y-32224501D01*
X106479570Y-32224500D01*
X106479565Y-32224500D01*
X106230435Y-32224500D01*
X106230429Y-32224500D01*
X106230424Y-32224501D01*
X105983438Y-32257017D01*
X105742792Y-32321498D01*
X105512638Y-32416830D01*
X105512623Y-32416837D01*
X105296873Y-32541400D01*
X105099225Y-32693060D01*
X105099218Y-32693066D01*
X104923066Y-32869218D01*
X104923060Y-32869225D01*
X104771400Y-33066873D01*
X104646837Y-33282623D01*
X104646830Y-33282638D01*
X104551498Y-33512792D01*
X104487017Y-33753438D01*
X104454501Y-34000424D01*
X104454500Y-34000441D01*
X98095499Y-34000441D01*
X98095499Y-33223392D01*
X98080300Y-33069065D01*
X98020232Y-32871045D01*
X97922685Y-32688549D01*
X97801924Y-32541401D01*
X97791410Y-32528589D01*
X97631454Y-32397317D01*
X97631452Y-32397316D01*
X97631451Y-32397315D01*
X97448955Y-32299768D01*
X97250935Y-32239700D01*
X97250933Y-32239699D01*
X97250935Y-32239699D01*
X97140222Y-32228795D01*
X97096609Y-32224500D01*
X97096605Y-32224500D01*
X95293395Y-32224500D01*
X95139067Y-32239699D01*
X94941042Y-32299769D01*
X94758545Y-32397317D01*
X94598589Y-32528589D01*
X94467317Y-32688545D01*
X94369769Y-32871042D01*
X94309699Y-33069066D01*
X94294500Y-33223394D01*
X87118966Y-33223394D01*
X87028599Y-33066873D01*
X86992372Y-33019661D01*
X86876939Y-32869225D01*
X86876933Y-32869218D01*
X86700781Y-32693066D01*
X86700774Y-32693060D01*
X86503126Y-32541400D01*
X86287376Y-32416837D01*
X86287361Y-32416830D01*
X86057207Y-32321498D01*
X85816561Y-32257017D01*
X85569575Y-32224501D01*
X85569570Y-32224500D01*
X85569565Y-32224500D01*
X85320435Y-32224500D01*
X85320429Y-32224500D01*
X85320424Y-32224501D01*
X85073438Y-32257017D01*
X84832792Y-32321498D01*
X84602638Y-32416830D01*
X84602623Y-32416837D01*
X84386873Y-32541400D01*
X84189225Y-32693060D01*
X84189218Y-32693066D01*
X84013066Y-32869218D01*
X84013060Y-32869225D01*
X83861400Y-33066873D01*
X83736837Y-33282623D01*
X83736830Y-33282638D01*
X83641498Y-33512792D01*
X83577017Y-33753438D01*
X83544501Y-34000424D01*
X83544500Y-34000441D01*
X77185499Y-34000441D01*
X77185499Y-33223392D01*
X77170300Y-33069065D01*
X77110232Y-32871045D01*
X77012685Y-32688549D01*
X76891924Y-32541401D01*
X76881410Y-32528589D01*
X76721454Y-32397317D01*
X76721452Y-32397316D01*
X76721451Y-32397315D01*
X76538955Y-32299768D01*
X76340935Y-32239700D01*
X76340933Y-32239699D01*
X76340935Y-32239699D01*
X76230222Y-32228795D01*
X76186609Y-32224500D01*
X76186605Y-32224500D01*
X74383395Y-32224500D01*
X74229067Y-32239699D01*
X74031042Y-32299769D01*
X73848545Y-32397317D01*
X73688589Y-32528589D01*
X73557317Y-32688545D01*
X73459769Y-32871042D01*
X73399699Y-33069066D01*
X73384500Y-33223394D01*
X66208966Y-33223394D01*
X66118599Y-33066873D01*
X66082372Y-33019661D01*
X65966939Y-32869225D01*
X65966933Y-32869218D01*
X65790781Y-32693066D01*
X65790774Y-32693060D01*
X65593126Y-32541400D01*
X65377376Y-32416837D01*
X65377361Y-32416830D01*
X65147207Y-32321498D01*
X64906561Y-32257017D01*
X64659575Y-32224501D01*
X64659570Y-32224500D01*
X64659565Y-32224500D01*
X64410435Y-32224500D01*
X64410429Y-32224500D01*
X64410424Y-32224501D01*
X64163438Y-32257017D01*
X63922792Y-32321498D01*
X63692638Y-32416830D01*
X63692623Y-32416837D01*
X63476873Y-32541400D01*
X63279225Y-32693060D01*
X63279218Y-32693066D01*
X63103066Y-32869218D01*
X63103060Y-32869225D01*
X62951400Y-33066873D01*
X62826837Y-33282623D01*
X62826830Y-33282638D01*
X62731498Y-33512792D01*
X62667017Y-33753438D01*
X62634501Y-34000424D01*
X62634500Y-34000441D01*
X56275499Y-34000441D01*
X56275499Y-33223392D01*
X56260300Y-33069065D01*
X56200232Y-32871045D01*
X56102685Y-32688549D01*
X55981924Y-32541401D01*
X55971410Y-32528589D01*
X55811454Y-32397317D01*
X55811452Y-32397316D01*
X55811451Y-32397315D01*
X55628955Y-32299768D01*
X55430935Y-32239700D01*
X55430933Y-32239699D01*
X55430935Y-32239699D01*
X55320222Y-32228795D01*
X55276609Y-32224500D01*
X55276605Y-32224500D01*
X53473395Y-32224500D01*
X53319067Y-32239699D01*
X53121042Y-32299769D01*
X52938545Y-32397317D01*
X52778589Y-32528589D01*
X52647317Y-32688545D01*
X52549769Y-32871042D01*
X52489699Y-33069066D01*
X52474500Y-33223394D01*
X42380500Y-33223394D01*
X42380500Y-30455046D01*
X42380499Y-30455039D01*
X145799500Y-30455039D01*
X145799500Y-33544960D01*
X145814630Y-33679249D01*
X145814631Y-33679254D01*
X145874211Y-33849523D01*
X145916547Y-33916900D01*
X145970184Y-34002262D01*
X146097738Y-34129816D01*
X146250478Y-34225789D01*
X146351500Y-34261138D01*
X146420745Y-34285368D01*
X146420750Y-34285369D01*
X146511246Y-34295565D01*
X146555040Y-34300499D01*
X146555043Y-34300500D01*
X146555046Y-34300500D01*
X149644957Y-34300500D01*
X149644958Y-34300499D01*
X149712104Y-34292934D01*
X149779249Y-34285369D01*
X149779252Y-34285368D01*
X149779255Y-34285368D01*
X149949522Y-34225789D01*
X150102262Y-34129816D01*
X150229816Y-34002262D01*
X150325789Y-33849522D01*
X150385368Y-33679255D01*
X150400500Y-33544954D01*
X150400500Y-31849223D01*
X150879500Y-31849223D01*
X150879500Y-32150776D01*
X150879501Y-32150793D01*
X150918861Y-32449766D01*
X150996913Y-32741060D01*
X151112314Y-33019661D01*
X151112318Y-33019671D01*
X151263099Y-33280831D01*
X151446679Y-33520078D01*
X151446685Y-33520085D01*
X151659914Y-33733314D01*
X151659921Y-33733320D01*
X151899168Y-33916900D01*
X152160328Y-34067681D01*
X152160329Y-34067681D01*
X152160332Y-34067683D01*
X152346072Y-34144619D01*
X152438939Y-34183086D01*
X152438940Y-34183086D01*
X152438942Y-34183087D01*
X152730232Y-34261138D01*
X153029217Y-34300500D01*
X153029224Y-34300500D01*
X153330776Y-34300500D01*
X153330783Y-34300500D01*
X153629768Y-34261138D01*
X153921058Y-34183087D01*
X154199668Y-34067683D01*
X154460832Y-33916900D01*
X154700080Y-33733319D01*
X154913319Y-33520080D01*
X155096900Y-33280832D01*
X155247683Y-33019668D01*
X155363087Y-32741058D01*
X155441138Y-32449768D01*
X155480500Y-32150783D01*
X155480500Y-31849217D01*
X155441138Y-31550232D01*
X155363087Y-31258942D01*
X155247683Y-30980332D01*
X155096900Y-30719168D01*
X154913320Y-30479921D01*
X154913314Y-30479914D01*
X154700085Y-30266685D01*
X154700078Y-30266679D01*
X154460831Y-30083099D01*
X154199671Y-29932318D01*
X154199661Y-29932314D01*
X153921060Y-29816913D01*
X153629766Y-29738861D01*
X153330793Y-29699501D01*
X153330788Y-29699500D01*
X153330783Y-29699500D01*
X153029217Y-29699500D01*
X153029211Y-29699500D01*
X153029206Y-29699501D01*
X152730233Y-29738861D01*
X152438939Y-29816913D01*
X152160338Y-29932314D01*
X152160328Y-29932318D01*
X151899168Y-30083099D01*
X151659921Y-30266679D01*
X151659914Y-30266685D01*
X151446685Y-30479914D01*
X151446679Y-30479921D01*
X151263099Y-30719168D01*
X151112318Y-30980328D01*
X151112314Y-30980338D01*
X150996913Y-31258939D01*
X150918861Y-31550233D01*
X150879501Y-31849206D01*
X150879500Y-31849223D01*
X150400500Y-31849223D01*
X150400500Y-30455046D01*
X150385368Y-30320745D01*
X150325789Y-30150478D01*
X150229816Y-29997738D01*
X150102262Y-29870184D01*
X150017482Y-29816913D01*
X149949523Y-29774211D01*
X149779254Y-29714631D01*
X149779249Y-29714630D01*
X149644960Y-29699500D01*
X149644954Y-29699500D01*
X146555046Y-29699500D01*
X146555039Y-29699500D01*
X146420750Y-29714630D01*
X146420745Y-29714631D01*
X146250476Y-29774211D01*
X146097737Y-29870184D01*
X145970184Y-29997737D01*
X145874211Y-30150476D01*
X145814631Y-30320745D01*
X145814630Y-30320750D01*
X145799500Y-30455039D01*
X42380499Y-30455039D01*
X42365368Y-30320745D01*
X42305789Y-30150478D01*
X42209816Y-29997738D01*
X42082262Y-29870184D01*
X41997482Y-29816913D01*
X41929523Y-29774211D01*
X41759254Y-29714631D01*
X41759249Y-29714630D01*
X41624960Y-29699500D01*
X41624954Y-29699500D01*
X38535046Y-29699500D01*
X38535039Y-29699500D01*
X38400750Y-29714630D01*
X38400745Y-29714631D01*
X38230476Y-29774211D01*
X38077737Y-29870184D01*
X37950184Y-29997737D01*
X37854211Y-30150476D01*
X37794631Y-30320745D01*
X37794630Y-30320750D01*
X37779500Y-30455039D01*
X36708439Y-30455039D01*
X36520085Y-30266685D01*
X36520078Y-30266679D01*
X36280831Y-30083099D01*
X36019671Y-29932318D01*
X36019661Y-29932314D01*
X35741060Y-29816913D01*
X35449766Y-29738861D01*
X35150793Y-29699501D01*
X35150788Y-29699500D01*
X35150783Y-29699500D01*
X34849217Y-29699500D01*
X34849211Y-29699500D01*
X34849206Y-29699501D01*
X34550233Y-29738861D01*
X34258939Y-29816913D01*
X33980338Y-29932314D01*
X33980328Y-29932318D01*
X33719168Y-30083099D01*
X33479921Y-30266679D01*
X33479914Y-30266685D01*
X33266685Y-30479914D01*
X33266679Y-30479921D01*
X33083099Y-30719168D01*
X32932318Y-30980328D01*
X32932314Y-30980338D01*
X32816913Y-31258939D01*
X32738861Y-31550233D01*
X32699501Y-31849206D01*
X32699500Y-31849223D01*
X32220500Y-31849223D01*
X32220500Y-31849217D01*
X32181138Y-31550232D01*
X32103087Y-31258942D01*
X31987683Y-30980332D01*
X31836900Y-30719168D01*
X31653320Y-30479921D01*
X31653314Y-30479914D01*
X31440085Y-30266685D01*
X31440078Y-30266679D01*
X31200831Y-30083099D01*
X30939671Y-29932318D01*
X30939661Y-29932314D01*
X30661060Y-29816913D01*
X30369766Y-29738861D01*
X30070793Y-29699501D01*
X30070788Y-29699500D01*
X30070783Y-29699500D01*
X29769217Y-29699500D01*
X29769211Y-29699500D01*
X29769206Y-29699501D01*
X29470233Y-29738861D01*
X29178939Y-29816913D01*
X28900338Y-29932314D01*
X28900328Y-29932318D01*
X28639168Y-30083099D01*
X28399921Y-30266679D01*
X28399914Y-30266685D01*
X28186685Y-30479914D01*
X28186679Y-30479921D01*
X28003099Y-30719168D01*
X27852318Y-30980328D01*
X27852314Y-30980338D01*
X27736913Y-31258939D01*
X27658861Y-31550233D01*
X27619501Y-31849206D01*
X27619500Y-31849223D01*
X20500500Y-31849223D01*
X20500500Y-20624500D01*
X20520185Y-20557461D01*
X20572989Y-20511706D01*
X20624500Y-20500500D01*
X165375500Y-20500500D01*
X165442539Y-20520185D01*
G37*
%TD.AperFunction*%
M02*
