%TF.GenerationSoftware,KiCad,Pcbnew,9.0.4*%
%TF.CreationDate,2026-06-10T15:27:58+02:00*%
%TF.ProjectId,rectifier,72656374-6966-4696-9572-2e6b69636164,rev?*%
%TF.SameCoordinates,Original*%
%TF.FileFunction,Legend,Top*%
%TF.FilePolarity,Positive*%
%FSLAX46Y46*%
G04 Gerber Fmt 4.6, Leading zero omitted, Abs format (unit mm)*
G04 Created by KiCad (PCBNEW 9.0.4) date 2026-06-10 15:27:58*
%MOMM*%
%LPD*%
G01*
G04 APERTURE LIST*
%ADD10C,0.150000*%
%ADD11C,0.120000*%
G04 APERTURE END LIST*
D10*
X40152733Y-56409580D02*
X40105114Y-56457200D01*
X40105114Y-56457200D02*
X39962257Y-56504819D01*
X39962257Y-56504819D02*
X39867019Y-56504819D01*
X39867019Y-56504819D02*
X39724162Y-56457200D01*
X39724162Y-56457200D02*
X39628924Y-56361961D01*
X39628924Y-56361961D02*
X39581305Y-56266723D01*
X39581305Y-56266723D02*
X39533686Y-56076247D01*
X39533686Y-56076247D02*
X39533686Y-55933390D01*
X39533686Y-55933390D02*
X39581305Y-55742914D01*
X39581305Y-55742914D02*
X39628924Y-55647676D01*
X39628924Y-55647676D02*
X39724162Y-55552438D01*
X39724162Y-55552438D02*
X39867019Y-55504819D01*
X39867019Y-55504819D02*
X39962257Y-55504819D01*
X39962257Y-55504819D02*
X40105114Y-55552438D01*
X40105114Y-55552438D02*
X40152733Y-55600057D01*
X41105114Y-56504819D02*
X40533686Y-56504819D01*
X40819400Y-56504819D02*
X40819400Y-55504819D01*
X40819400Y-55504819D02*
X40724162Y-55647676D01*
X40724162Y-55647676D02*
X40628924Y-55742914D01*
X40628924Y-55742914D02*
X40533686Y-55790533D01*
X40152733Y-77959580D02*
X40105114Y-78007200D01*
X40105114Y-78007200D02*
X39962257Y-78054819D01*
X39962257Y-78054819D02*
X39867019Y-78054819D01*
X39867019Y-78054819D02*
X39724162Y-78007200D01*
X39724162Y-78007200D02*
X39628924Y-77911961D01*
X39628924Y-77911961D02*
X39581305Y-77816723D01*
X39581305Y-77816723D02*
X39533686Y-77626247D01*
X39533686Y-77626247D02*
X39533686Y-77483390D01*
X39533686Y-77483390D02*
X39581305Y-77292914D01*
X39581305Y-77292914D02*
X39628924Y-77197676D01*
X39628924Y-77197676D02*
X39724162Y-77102438D01*
X39724162Y-77102438D02*
X39867019Y-77054819D01*
X39867019Y-77054819D02*
X39962257Y-77054819D01*
X39962257Y-77054819D02*
X40105114Y-77102438D01*
X40105114Y-77102438D02*
X40152733Y-77150057D01*
X40486067Y-77054819D02*
X41105114Y-77054819D01*
X41105114Y-77054819D02*
X40771781Y-77435771D01*
X40771781Y-77435771D02*
X40914638Y-77435771D01*
X40914638Y-77435771D02*
X41009876Y-77483390D01*
X41009876Y-77483390D02*
X41057495Y-77531009D01*
X41057495Y-77531009D02*
X41105114Y-77626247D01*
X41105114Y-77626247D02*
X41105114Y-77864342D01*
X41105114Y-77864342D02*
X41057495Y-77959580D01*
X41057495Y-77959580D02*
X41009876Y-78007200D01*
X41009876Y-78007200D02*
X40914638Y-78054819D01*
X40914638Y-78054819D02*
X40628924Y-78054819D01*
X40628924Y-78054819D02*
X40533686Y-78007200D01*
X40533686Y-78007200D02*
X40486067Y-77959580D01*
X34696666Y-36104819D02*
X34696666Y-36819104D01*
X34696666Y-36819104D02*
X34649047Y-36961961D01*
X34649047Y-36961961D02*
X34553809Y-37057200D01*
X34553809Y-37057200D02*
X34410952Y-37104819D01*
X34410952Y-37104819D02*
X34315714Y-37104819D01*
X35696666Y-37104819D02*
X35125238Y-37104819D01*
X35410952Y-37104819D02*
X35410952Y-36104819D01*
X35410952Y-36104819D02*
X35315714Y-36247676D01*
X35315714Y-36247676D02*
X35220476Y-36342914D01*
X35220476Y-36342914D02*
X35125238Y-36390533D01*
X108666666Y-26374819D02*
X108666666Y-27089104D01*
X108666666Y-27089104D02*
X108619047Y-27231961D01*
X108619047Y-27231961D02*
X108523809Y-27327200D01*
X108523809Y-27327200D02*
X108380952Y-27374819D01*
X108380952Y-27374819D02*
X108285714Y-27374819D01*
X109095238Y-26470057D02*
X109142857Y-26422438D01*
X109142857Y-26422438D02*
X109238095Y-26374819D01*
X109238095Y-26374819D02*
X109476190Y-26374819D01*
X109476190Y-26374819D02*
X109571428Y-26422438D01*
X109571428Y-26422438D02*
X109619047Y-26470057D01*
X109619047Y-26470057D02*
X109666666Y-26565295D01*
X109666666Y-26565295D02*
X109666666Y-26660533D01*
X109666666Y-26660533D02*
X109619047Y-26803390D01*
X109619047Y-26803390D02*
X109047619Y-27374819D01*
X109047619Y-27374819D02*
X109666666Y-27374819D01*
X72036905Y-50384819D02*
X72036905Y-49384819D01*
X72036905Y-49384819D02*
X72275000Y-49384819D01*
X72275000Y-49384819D02*
X72417857Y-49432438D01*
X72417857Y-49432438D02*
X72513095Y-49527676D01*
X72513095Y-49527676D02*
X72560714Y-49622914D01*
X72560714Y-49622914D02*
X72608333Y-49813390D01*
X72608333Y-49813390D02*
X72608333Y-49956247D01*
X72608333Y-49956247D02*
X72560714Y-50146723D01*
X72560714Y-50146723D02*
X72513095Y-50241961D01*
X72513095Y-50241961D02*
X72417857Y-50337200D01*
X72417857Y-50337200D02*
X72275000Y-50384819D01*
X72275000Y-50384819D02*
X72036905Y-50384819D01*
X73465476Y-49384819D02*
X73275000Y-49384819D01*
X73275000Y-49384819D02*
X73179762Y-49432438D01*
X73179762Y-49432438D02*
X73132143Y-49480057D01*
X73132143Y-49480057D02*
X73036905Y-49622914D01*
X73036905Y-49622914D02*
X72989286Y-49813390D01*
X72989286Y-49813390D02*
X72989286Y-50194342D01*
X72989286Y-50194342D02*
X73036905Y-50289580D01*
X73036905Y-50289580D02*
X73084524Y-50337200D01*
X73084524Y-50337200D02*
X73179762Y-50384819D01*
X73179762Y-50384819D02*
X73370238Y-50384819D01*
X73370238Y-50384819D02*
X73465476Y-50337200D01*
X73465476Y-50337200D02*
X73513095Y-50289580D01*
X73513095Y-50289580D02*
X73560714Y-50194342D01*
X73560714Y-50194342D02*
X73560714Y-49956247D01*
X73560714Y-49956247D02*
X73513095Y-49861009D01*
X73513095Y-49861009D02*
X73465476Y-49813390D01*
X73465476Y-49813390D02*
X73370238Y-49765771D01*
X73370238Y-49765771D02*
X73179762Y-49765771D01*
X73179762Y-49765771D02*
X73084524Y-49813390D01*
X73084524Y-49813390D02*
X73036905Y-49861009D01*
X73036905Y-49861009D02*
X72989286Y-49956247D01*
X67433095Y-50754819D02*
X67433095Y-49754819D01*
X68004523Y-50754819D02*
X67575952Y-50183390D01*
X68004523Y-49754819D02*
X67433095Y-50326247D01*
X54126905Y-50384819D02*
X54126905Y-49384819D01*
X54126905Y-49384819D02*
X54365000Y-49384819D01*
X54365000Y-49384819D02*
X54507857Y-49432438D01*
X54507857Y-49432438D02*
X54603095Y-49527676D01*
X54603095Y-49527676D02*
X54650714Y-49622914D01*
X54650714Y-49622914D02*
X54698333Y-49813390D01*
X54698333Y-49813390D02*
X54698333Y-49956247D01*
X54698333Y-49956247D02*
X54650714Y-50146723D01*
X54650714Y-50146723D02*
X54603095Y-50241961D01*
X54603095Y-50241961D02*
X54507857Y-50337200D01*
X54507857Y-50337200D02*
X54365000Y-50384819D01*
X54365000Y-50384819D02*
X54126905Y-50384819D01*
X55603095Y-49384819D02*
X55126905Y-49384819D01*
X55126905Y-49384819D02*
X55079286Y-49861009D01*
X55079286Y-49861009D02*
X55126905Y-49813390D01*
X55126905Y-49813390D02*
X55222143Y-49765771D01*
X55222143Y-49765771D02*
X55460238Y-49765771D01*
X55460238Y-49765771D02*
X55555476Y-49813390D01*
X55555476Y-49813390D02*
X55603095Y-49861009D01*
X55603095Y-49861009D02*
X55650714Y-49956247D01*
X55650714Y-49956247D02*
X55650714Y-50194342D01*
X55650714Y-50194342D02*
X55603095Y-50289580D01*
X55603095Y-50289580D02*
X55555476Y-50337200D01*
X55555476Y-50337200D02*
X55460238Y-50384819D01*
X55460238Y-50384819D02*
X55222143Y-50384819D01*
X55222143Y-50384819D02*
X55126905Y-50337200D01*
X55126905Y-50337200D02*
X55079286Y-50289580D01*
X49523095Y-50754819D02*
X49523095Y-49754819D01*
X50094523Y-50754819D02*
X49665952Y-50183390D01*
X50094523Y-49754819D02*
X49523095Y-50326247D01*
X64247233Y-56409580D02*
X64199614Y-56457200D01*
X64199614Y-56457200D02*
X64056757Y-56504819D01*
X64056757Y-56504819D02*
X63961519Y-56504819D01*
X63961519Y-56504819D02*
X63818662Y-56457200D01*
X63818662Y-56457200D02*
X63723424Y-56361961D01*
X63723424Y-56361961D02*
X63675805Y-56266723D01*
X63675805Y-56266723D02*
X63628186Y-56076247D01*
X63628186Y-56076247D02*
X63628186Y-55933390D01*
X63628186Y-55933390D02*
X63675805Y-55742914D01*
X63675805Y-55742914D02*
X63723424Y-55647676D01*
X63723424Y-55647676D02*
X63818662Y-55552438D01*
X63818662Y-55552438D02*
X63961519Y-55504819D01*
X63961519Y-55504819D02*
X64056757Y-55504819D01*
X64056757Y-55504819D02*
X64199614Y-55552438D01*
X64199614Y-55552438D02*
X64247233Y-55600057D01*
X64628186Y-55600057D02*
X64675805Y-55552438D01*
X64675805Y-55552438D02*
X64771043Y-55504819D01*
X64771043Y-55504819D02*
X65009138Y-55504819D01*
X65009138Y-55504819D02*
X65104376Y-55552438D01*
X65104376Y-55552438D02*
X65151995Y-55600057D01*
X65151995Y-55600057D02*
X65199614Y-55695295D01*
X65199614Y-55695295D02*
X65199614Y-55790533D01*
X65199614Y-55790533D02*
X65151995Y-55933390D01*
X65151995Y-55933390D02*
X64580567Y-56504819D01*
X64580567Y-56504819D02*
X65199614Y-56504819D01*
X72036905Y-44134819D02*
X72036905Y-43134819D01*
X72036905Y-43134819D02*
X72275000Y-43134819D01*
X72275000Y-43134819D02*
X72417857Y-43182438D01*
X72417857Y-43182438D02*
X72513095Y-43277676D01*
X72513095Y-43277676D02*
X72560714Y-43372914D01*
X72560714Y-43372914D02*
X72608333Y-43563390D01*
X72608333Y-43563390D02*
X72608333Y-43706247D01*
X72608333Y-43706247D02*
X72560714Y-43896723D01*
X72560714Y-43896723D02*
X72513095Y-43991961D01*
X72513095Y-43991961D02*
X72417857Y-44087200D01*
X72417857Y-44087200D02*
X72275000Y-44134819D01*
X72275000Y-44134819D02*
X72036905Y-44134819D01*
X72941667Y-43134819D02*
X73560714Y-43134819D01*
X73560714Y-43134819D02*
X73227381Y-43515771D01*
X73227381Y-43515771D02*
X73370238Y-43515771D01*
X73370238Y-43515771D02*
X73465476Y-43563390D01*
X73465476Y-43563390D02*
X73513095Y-43611009D01*
X73513095Y-43611009D02*
X73560714Y-43706247D01*
X73560714Y-43706247D02*
X73560714Y-43944342D01*
X73560714Y-43944342D02*
X73513095Y-44039580D01*
X73513095Y-44039580D02*
X73465476Y-44087200D01*
X73465476Y-44087200D02*
X73370238Y-44134819D01*
X73370238Y-44134819D02*
X73084524Y-44134819D01*
X73084524Y-44134819D02*
X72989286Y-44087200D01*
X72989286Y-44087200D02*
X72941667Y-44039580D01*
X67433095Y-44504819D02*
X67433095Y-43504819D01*
X68004523Y-44504819D02*
X67575952Y-43933390D01*
X68004523Y-43504819D02*
X67433095Y-44076247D01*
X36216905Y-50384819D02*
X36216905Y-49384819D01*
X36216905Y-49384819D02*
X36455000Y-49384819D01*
X36455000Y-49384819D02*
X36597857Y-49432438D01*
X36597857Y-49432438D02*
X36693095Y-49527676D01*
X36693095Y-49527676D02*
X36740714Y-49622914D01*
X36740714Y-49622914D02*
X36788333Y-49813390D01*
X36788333Y-49813390D02*
X36788333Y-49956247D01*
X36788333Y-49956247D02*
X36740714Y-50146723D01*
X36740714Y-50146723D02*
X36693095Y-50241961D01*
X36693095Y-50241961D02*
X36597857Y-50337200D01*
X36597857Y-50337200D02*
X36455000Y-50384819D01*
X36455000Y-50384819D02*
X36216905Y-50384819D01*
X37645476Y-49718152D02*
X37645476Y-50384819D01*
X37407381Y-49337200D02*
X37169286Y-50051485D01*
X37169286Y-50051485D02*
X37788333Y-50051485D01*
X31613095Y-50754819D02*
X31613095Y-49754819D01*
X32184523Y-50754819D02*
X31755952Y-50183390D01*
X32184523Y-49754819D02*
X31613095Y-50326247D01*
X54126905Y-44134819D02*
X54126905Y-43134819D01*
X54126905Y-43134819D02*
X54365000Y-43134819D01*
X54365000Y-43134819D02*
X54507857Y-43182438D01*
X54507857Y-43182438D02*
X54603095Y-43277676D01*
X54603095Y-43277676D02*
X54650714Y-43372914D01*
X54650714Y-43372914D02*
X54698333Y-43563390D01*
X54698333Y-43563390D02*
X54698333Y-43706247D01*
X54698333Y-43706247D02*
X54650714Y-43896723D01*
X54650714Y-43896723D02*
X54603095Y-43991961D01*
X54603095Y-43991961D02*
X54507857Y-44087200D01*
X54507857Y-44087200D02*
X54365000Y-44134819D01*
X54365000Y-44134819D02*
X54126905Y-44134819D01*
X55079286Y-43230057D02*
X55126905Y-43182438D01*
X55126905Y-43182438D02*
X55222143Y-43134819D01*
X55222143Y-43134819D02*
X55460238Y-43134819D01*
X55460238Y-43134819D02*
X55555476Y-43182438D01*
X55555476Y-43182438D02*
X55603095Y-43230057D01*
X55603095Y-43230057D02*
X55650714Y-43325295D01*
X55650714Y-43325295D02*
X55650714Y-43420533D01*
X55650714Y-43420533D02*
X55603095Y-43563390D01*
X55603095Y-43563390D02*
X55031667Y-44134819D01*
X55031667Y-44134819D02*
X55650714Y-44134819D01*
X49523095Y-44504819D02*
X49523095Y-43504819D01*
X50094523Y-44504819D02*
X49665952Y-43933390D01*
X50094523Y-43504819D02*
X49523095Y-44076247D01*
X59312733Y-85934819D02*
X58979400Y-85458628D01*
X58741305Y-85934819D02*
X58741305Y-84934819D01*
X58741305Y-84934819D02*
X59122257Y-84934819D01*
X59122257Y-84934819D02*
X59217495Y-84982438D01*
X59217495Y-84982438D02*
X59265114Y-85030057D01*
X59265114Y-85030057D02*
X59312733Y-85125295D01*
X59312733Y-85125295D02*
X59312733Y-85268152D01*
X59312733Y-85268152D02*
X59265114Y-85363390D01*
X59265114Y-85363390D02*
X59217495Y-85411009D01*
X59217495Y-85411009D02*
X59122257Y-85458628D01*
X59122257Y-85458628D02*
X58741305Y-85458628D01*
X60265114Y-85934819D02*
X59693686Y-85934819D01*
X59979400Y-85934819D02*
X59979400Y-84934819D01*
X59979400Y-84934819D02*
X59884162Y-85077676D01*
X59884162Y-85077676D02*
X59788924Y-85172914D01*
X59788924Y-85172914D02*
X59693686Y-85220533D01*
X36216905Y-44134819D02*
X36216905Y-43134819D01*
X36216905Y-43134819D02*
X36455000Y-43134819D01*
X36455000Y-43134819D02*
X36597857Y-43182438D01*
X36597857Y-43182438D02*
X36693095Y-43277676D01*
X36693095Y-43277676D02*
X36740714Y-43372914D01*
X36740714Y-43372914D02*
X36788333Y-43563390D01*
X36788333Y-43563390D02*
X36788333Y-43706247D01*
X36788333Y-43706247D02*
X36740714Y-43896723D01*
X36740714Y-43896723D02*
X36693095Y-43991961D01*
X36693095Y-43991961D02*
X36597857Y-44087200D01*
X36597857Y-44087200D02*
X36455000Y-44134819D01*
X36455000Y-44134819D02*
X36216905Y-44134819D01*
X37740714Y-44134819D02*
X37169286Y-44134819D01*
X37455000Y-44134819D02*
X37455000Y-43134819D01*
X37455000Y-43134819D02*
X37359762Y-43277676D01*
X37359762Y-43277676D02*
X37264524Y-43372914D01*
X37264524Y-43372914D02*
X37169286Y-43420533D01*
X31613095Y-44504819D02*
X31613095Y-43504819D01*
X32184523Y-44504819D02*
X31755952Y-43933390D01*
X32184523Y-43504819D02*
X31613095Y-44076247D01*
D11*
%TO.C,C1*%
X30559960Y-61185000D02*
X32359960Y-61185000D01*
X31459960Y-60285000D02*
X31459960Y-62085000D01*
X40319400Y-57220000D02*
X40319400Y-75380000D01*
X40359400Y-57220000D02*
X40359400Y-75380000D01*
X40399400Y-57220000D02*
X40399400Y-75380000D01*
X40439400Y-57221000D02*
X40439400Y-75379000D01*
X40479400Y-57221000D02*
X40479400Y-75379000D01*
X40519400Y-57222000D02*
X40519400Y-75378000D01*
X40559400Y-57223000D02*
X40559400Y-75377000D01*
X40599400Y-57224000D02*
X40599400Y-75376000D01*
X40639400Y-57226000D02*
X40639400Y-75374000D01*
X40679400Y-57227000D02*
X40679400Y-75373000D01*
X40719400Y-57229000D02*
X40719400Y-75371000D01*
X40759400Y-57231000D02*
X40759400Y-75369000D01*
X40799400Y-57233000D02*
X40799400Y-75367000D01*
X40839400Y-57235000D02*
X40839400Y-75365000D01*
X40879400Y-57237000D02*
X40879400Y-75363000D01*
X40919400Y-57240000D02*
X40919400Y-75360000D01*
X40959400Y-57242000D02*
X40959400Y-75358000D01*
X40999400Y-57245000D02*
X40999400Y-75355000D01*
X41039400Y-57248000D02*
X41039400Y-75352000D01*
X41079400Y-57252000D02*
X41079400Y-75348000D01*
X41119400Y-57255000D02*
X41119400Y-75345000D01*
X41159400Y-57259000D02*
X41159400Y-75341000D01*
X41199400Y-57263000D02*
X41199400Y-75337000D01*
X41239400Y-57267000D02*
X41239400Y-75333000D01*
X41279400Y-57271000D02*
X41279400Y-75329000D01*
X41319400Y-57275000D02*
X41319400Y-75325000D01*
X41359400Y-57279000D02*
X41359400Y-75321000D01*
X41399400Y-57284000D02*
X41399400Y-75316000D01*
X41439400Y-57289000D02*
X41439400Y-75311000D01*
X41479400Y-57294000D02*
X41479400Y-75306000D01*
X41519400Y-57299000D02*
X41519400Y-75301000D01*
X41559400Y-57305000D02*
X41559400Y-75295000D01*
X41599400Y-57310000D02*
X41599400Y-75290000D01*
X41639400Y-57316000D02*
X41639400Y-75284000D01*
X41679400Y-57322000D02*
X41679400Y-75278000D01*
X41719400Y-57328000D02*
X41719400Y-75272000D01*
X41759400Y-57334000D02*
X41759400Y-75266000D01*
X41799400Y-57341000D02*
X41799400Y-75259000D01*
X41839400Y-57348000D02*
X41839400Y-75252000D01*
X41879400Y-57354000D02*
X41879400Y-75246000D01*
X41919400Y-57361000D02*
X41919400Y-75239000D01*
X41959400Y-57369000D02*
X41959400Y-75231000D01*
X41999400Y-57376000D02*
X41999400Y-75224000D01*
X42039400Y-57384000D02*
X42039400Y-75216000D01*
X42079400Y-57391000D02*
X42079400Y-75209000D01*
X42119400Y-57399000D02*
X42119400Y-75201000D01*
X42159400Y-57408000D02*
X42159400Y-75192000D01*
X42199400Y-57416000D02*
X42199400Y-75184000D01*
X42239400Y-57424000D02*
X42239400Y-75176000D01*
X42279400Y-57433000D02*
X42279400Y-75167000D01*
X42319400Y-57442000D02*
X42319400Y-75158000D01*
X42359400Y-57451000D02*
X42359400Y-75149000D01*
X42399400Y-57460000D02*
X42399400Y-75140000D01*
X42439400Y-57470000D02*
X42439400Y-75130000D01*
X42479400Y-57479000D02*
X42479400Y-75121000D01*
X42519400Y-57489000D02*
X42519400Y-75111000D01*
X42559400Y-57499000D02*
X42559400Y-75101000D01*
X42599400Y-57510000D02*
X42599400Y-75090000D01*
X42639400Y-57520000D02*
X42639400Y-64860000D01*
X42639400Y-67740000D02*
X42639400Y-75080000D01*
X42679400Y-57531000D02*
X42679400Y-64860000D01*
X42679400Y-67740000D02*
X42679400Y-75069000D01*
X42719400Y-57541000D02*
X42719400Y-64860000D01*
X42719400Y-67740000D02*
X42719400Y-75059000D01*
X42759400Y-57552000D02*
X42759400Y-64860000D01*
X42759400Y-67740000D02*
X42759400Y-75048000D01*
X42799400Y-57564000D02*
X42799400Y-64860000D01*
X42799400Y-67740000D02*
X42799400Y-75036000D01*
X42839400Y-57575000D02*
X42839400Y-64860000D01*
X42839400Y-67740000D02*
X42839400Y-75025000D01*
X42879400Y-57587000D02*
X42879400Y-64860000D01*
X42879400Y-67740000D02*
X42879400Y-75013000D01*
X42919400Y-57598000D02*
X42919400Y-64860000D01*
X42919400Y-67740000D02*
X42919400Y-75002000D01*
X42959400Y-57610000D02*
X42959400Y-64860000D01*
X42959400Y-67740000D02*
X42959400Y-74990000D01*
X42999400Y-57623000D02*
X42999400Y-64860000D01*
X42999400Y-67740000D02*
X42999400Y-74977000D01*
X43039400Y-57635000D02*
X43039400Y-64860000D01*
X43039400Y-67740000D02*
X43039400Y-74965000D01*
X43079400Y-57648000D02*
X43079400Y-64860000D01*
X43079400Y-67740000D02*
X43079400Y-74952000D01*
X43119400Y-57660000D02*
X43119400Y-64860000D01*
X43119400Y-67740000D02*
X43119400Y-74940000D01*
X43159400Y-57673000D02*
X43159400Y-64860000D01*
X43159400Y-67740000D02*
X43159400Y-74927000D01*
X43199400Y-57687000D02*
X43199400Y-64860000D01*
X43199400Y-67740000D02*
X43199400Y-74913000D01*
X43239400Y-57700000D02*
X43239400Y-64860000D01*
X43239400Y-67740000D02*
X43239400Y-74900000D01*
X43279400Y-57714000D02*
X43279400Y-64860000D01*
X43279400Y-67740000D02*
X43279400Y-74886000D01*
X43319400Y-57728000D02*
X43319400Y-64860000D01*
X43319400Y-67740000D02*
X43319400Y-74872000D01*
X43359400Y-57742000D02*
X43359400Y-64860000D01*
X43359400Y-67740000D02*
X43359400Y-74858000D01*
X43399400Y-57756000D02*
X43399400Y-64860000D01*
X43399400Y-67740000D02*
X43399400Y-74844000D01*
X43439400Y-57770000D02*
X43439400Y-64860000D01*
X43439400Y-67740000D02*
X43439400Y-74830000D01*
X43479400Y-57785000D02*
X43479400Y-64860000D01*
X43479400Y-67740000D02*
X43479400Y-74815000D01*
X43519400Y-57800000D02*
X43519400Y-64860000D01*
X43519400Y-67740000D02*
X43519400Y-74800000D01*
X43559400Y-57815000D02*
X43559400Y-64860000D01*
X43559400Y-67740000D02*
X43559400Y-74785000D01*
X43599400Y-57830000D02*
X43599400Y-64860000D01*
X43599400Y-67740000D02*
X43599400Y-74770000D01*
X43639400Y-57846000D02*
X43639400Y-64860000D01*
X43639400Y-67740000D02*
X43639400Y-74754000D01*
X43679400Y-57862000D02*
X43679400Y-64860000D01*
X43679400Y-67740000D02*
X43679400Y-74738000D01*
X43719400Y-57877000D02*
X43719400Y-64860000D01*
X43719400Y-67740000D02*
X43719400Y-74723000D01*
X43759400Y-57894000D02*
X43759400Y-64860000D01*
X43759400Y-67740000D02*
X43759400Y-74706000D01*
X43799400Y-57910000D02*
X43799400Y-64860000D01*
X43799400Y-67740000D02*
X43799400Y-74690000D01*
X43839400Y-57927000D02*
X43839400Y-64860000D01*
X43839400Y-67740000D02*
X43839400Y-74673000D01*
X43879400Y-57944000D02*
X43879400Y-64860000D01*
X43879400Y-67740000D02*
X43879400Y-74656000D01*
X43919400Y-57961000D02*
X43919400Y-64860000D01*
X43919400Y-67740000D02*
X43919400Y-74639000D01*
X43959400Y-57978000D02*
X43959400Y-64860000D01*
X43959400Y-67740000D02*
X43959400Y-74622000D01*
X43999400Y-57995000D02*
X43999400Y-64860000D01*
X43999400Y-67740000D02*
X43999400Y-74605000D01*
X44039400Y-58013000D02*
X44039400Y-64860000D01*
X44039400Y-67740000D02*
X44039400Y-74587000D01*
X44079400Y-58031000D02*
X44079400Y-64860000D01*
X44079400Y-67740000D02*
X44079400Y-74569000D01*
X44119400Y-58049000D02*
X44119400Y-64860000D01*
X44119400Y-67740000D02*
X44119400Y-74551000D01*
X44159400Y-58068000D02*
X44159400Y-64860000D01*
X44159400Y-67740000D02*
X44159400Y-74532000D01*
X44199400Y-58087000D02*
X44199400Y-64860000D01*
X44199400Y-67740000D02*
X44199400Y-74513000D01*
X44239400Y-58105000D02*
X44239400Y-64860000D01*
X44239400Y-67740000D02*
X44239400Y-74495000D01*
X44279400Y-58125000D02*
X44279400Y-64860000D01*
X44279400Y-67740000D02*
X44279400Y-74475000D01*
X44319400Y-58144000D02*
X44319400Y-64860000D01*
X44319400Y-67740000D02*
X44319400Y-74456000D01*
X44359400Y-58164000D02*
X44359400Y-64860000D01*
X44359400Y-67740000D02*
X44359400Y-74436000D01*
X44399400Y-58184000D02*
X44399400Y-64860000D01*
X44399400Y-67740000D02*
X44399400Y-74416000D01*
X44439400Y-58204000D02*
X44439400Y-64860000D01*
X44439400Y-67740000D02*
X44439400Y-74396000D01*
X44479400Y-58224000D02*
X44479400Y-64860000D01*
X44479400Y-67740000D02*
X44479400Y-74376000D01*
X44519400Y-58245000D02*
X44519400Y-64860000D01*
X44519400Y-67740000D02*
X44519400Y-74355000D01*
X44559400Y-58266000D02*
X44559400Y-64860000D01*
X44559400Y-67740000D02*
X44559400Y-74334000D01*
X44599400Y-58287000D02*
X44599400Y-64860000D01*
X44599400Y-67740000D02*
X44599400Y-74313000D01*
X44639400Y-58308000D02*
X44639400Y-64860000D01*
X44639400Y-67740000D02*
X44639400Y-74292000D01*
X44679400Y-58330000D02*
X44679400Y-64860000D01*
X44679400Y-67740000D02*
X44679400Y-74270000D01*
X44719400Y-58352000D02*
X44719400Y-64860000D01*
X44719400Y-67740000D02*
X44719400Y-74248000D01*
X44759400Y-58374000D02*
X44759400Y-64860000D01*
X44759400Y-67740000D02*
X44759400Y-74226000D01*
X44799400Y-58396000D02*
X44799400Y-64860000D01*
X44799400Y-67740000D02*
X44799400Y-74204000D01*
X44839400Y-58419000D02*
X44839400Y-64860000D01*
X44839400Y-67740000D02*
X44839400Y-74181000D01*
X44879400Y-58442000D02*
X44879400Y-64860000D01*
X44879400Y-67740000D02*
X44879400Y-74158000D01*
X44919400Y-58465000D02*
X44919400Y-64860000D01*
X44919400Y-67740000D02*
X44919400Y-74135000D01*
X44959400Y-58489000D02*
X44959400Y-64860000D01*
X44959400Y-67740000D02*
X44959400Y-74111000D01*
X44999400Y-58512000D02*
X44999400Y-64860000D01*
X44999400Y-67740000D02*
X44999400Y-74088000D01*
X45039400Y-58536000D02*
X45039400Y-64860000D01*
X45039400Y-67740000D02*
X45039400Y-74064000D01*
X45079400Y-58561000D02*
X45079400Y-64860000D01*
X45079400Y-67740000D02*
X45079400Y-74039000D01*
X45119400Y-58585000D02*
X45119400Y-64860000D01*
X45119400Y-67740000D02*
X45119400Y-74015000D01*
X45159400Y-58610000D02*
X45159400Y-64860000D01*
X45159400Y-67740000D02*
X45159400Y-73990000D01*
X45199400Y-58635000D02*
X45199400Y-64860000D01*
X45199400Y-67740000D02*
X45199400Y-73965000D01*
X45239400Y-58661000D02*
X45239400Y-64860000D01*
X45239400Y-67740000D02*
X45239400Y-73939000D01*
X45279400Y-58687000D02*
X45279400Y-64860000D01*
X45279400Y-67740000D02*
X45279400Y-73913000D01*
X45319400Y-58713000D02*
X45319400Y-64860000D01*
X45319400Y-67740000D02*
X45319400Y-73887000D01*
X45359400Y-58739000D02*
X45359400Y-64860000D01*
X45359400Y-67740000D02*
X45359400Y-73861000D01*
X45399400Y-58766000D02*
X45399400Y-64860000D01*
X45399400Y-67740000D02*
X45399400Y-73834000D01*
X45439400Y-58793000D02*
X45439400Y-64860000D01*
X45439400Y-67740000D02*
X45439400Y-73807000D01*
X45479400Y-58820000D02*
X45479400Y-64860000D01*
X45479400Y-67740000D02*
X45479400Y-73780000D01*
X45519400Y-58848000D02*
X45519400Y-73752000D01*
X45559400Y-58876000D02*
X45559400Y-73724000D01*
X45599400Y-58904000D02*
X45599400Y-73696000D01*
X45639400Y-58932000D02*
X45639400Y-73668000D01*
X45679400Y-58961000D02*
X45679400Y-73639000D01*
X45719400Y-58991000D02*
X45719400Y-73609000D01*
X45759400Y-59020000D02*
X45759400Y-73580000D01*
X45799400Y-59050000D02*
X45799400Y-73550000D01*
X45839400Y-59080000D02*
X45839400Y-73520000D01*
X45879400Y-59111000D02*
X45879400Y-73489000D01*
X45919400Y-59142000D02*
X45919400Y-73458000D01*
X45959400Y-59173000D02*
X45959400Y-73427000D01*
X45999400Y-59205000D02*
X45999400Y-73395000D01*
X46039400Y-59237000D02*
X46039400Y-73363000D01*
X46079400Y-59269000D02*
X46079400Y-73331000D01*
X46119400Y-59302000D02*
X46119400Y-73298000D01*
X46159400Y-59335000D02*
X46159400Y-73265000D01*
X46199400Y-59369000D02*
X46199400Y-73231000D01*
X46239400Y-59403000D02*
X46239400Y-73197000D01*
X46279400Y-59437000D02*
X46279400Y-73163000D01*
X46319400Y-59472000D02*
X46319400Y-73128000D01*
X46359400Y-59507000D02*
X46359400Y-73093000D01*
X46399400Y-59542000D02*
X46399400Y-73058000D01*
X46439400Y-59578000D02*
X46439400Y-73022000D01*
X46479400Y-59615000D02*
X46479400Y-72985000D01*
X46519400Y-59652000D02*
X46519400Y-72948000D01*
X46559400Y-59689000D02*
X46559400Y-72911000D01*
X46599400Y-59727000D02*
X46599400Y-72873000D01*
X46639400Y-59765000D02*
X46639400Y-72835000D01*
X46679400Y-59804000D02*
X46679400Y-72796000D01*
X46719400Y-59843000D02*
X46719400Y-72757000D01*
X46759400Y-59882000D02*
X46759400Y-72718000D01*
X46799400Y-59923000D02*
X46799400Y-72677000D01*
X46839400Y-59963000D02*
X46839400Y-72637000D01*
X46879400Y-60004000D02*
X46879400Y-72596000D01*
X46919400Y-60046000D02*
X46919400Y-72554000D01*
X46959400Y-60088000D02*
X46959400Y-72512000D01*
X46999400Y-60131000D02*
X46999400Y-72469000D01*
X47039400Y-60174000D02*
X47039400Y-72426000D01*
X47079400Y-60218000D02*
X47079400Y-72382000D01*
X47119400Y-60263000D02*
X47119400Y-72337000D01*
X47159400Y-60308000D02*
X47159400Y-72292000D01*
X47199400Y-60353000D02*
X47199400Y-72247000D01*
X47239400Y-60400000D02*
X47239400Y-72200000D01*
X47279400Y-60447000D02*
X47279400Y-72153000D01*
X47319400Y-60494000D02*
X47319400Y-72106000D01*
X47359400Y-60542000D02*
X47359400Y-72058000D01*
X47399400Y-60591000D02*
X47399400Y-72009000D01*
X47439400Y-60641000D02*
X47439400Y-71959000D01*
X47479400Y-60691000D02*
X47479400Y-71909000D01*
X47519400Y-60742000D02*
X47519400Y-71858000D01*
X47559400Y-60794000D02*
X47559400Y-71806000D01*
X47599400Y-60847000D02*
X47599400Y-71753000D01*
X47639400Y-60900000D02*
X47639400Y-71700000D01*
X47679400Y-60954000D02*
X47679400Y-71646000D01*
X47719400Y-61009000D02*
X47719400Y-71591000D01*
X47759400Y-61065000D02*
X47759400Y-71535000D01*
X47799400Y-61122000D02*
X47799400Y-71478000D01*
X47839400Y-61180000D02*
X47839400Y-71420000D01*
X47879400Y-61239000D02*
X47879400Y-71361000D01*
X47919400Y-61299000D02*
X47919400Y-71301000D01*
X47959400Y-61360000D02*
X47959400Y-71240000D01*
X47999400Y-61421000D02*
X47999400Y-71179000D01*
X48039400Y-61484000D02*
X48039400Y-71116000D01*
X48079400Y-61549000D02*
X48079400Y-71051000D01*
X48119400Y-61614000D02*
X48119400Y-70986000D01*
X48159400Y-61681000D02*
X48159400Y-70919000D01*
X48199400Y-61749000D02*
X48199400Y-70851000D01*
X48239400Y-61818000D02*
X48239400Y-70782000D01*
X48279400Y-61889000D02*
X48279400Y-70711000D01*
X48319400Y-61961000D02*
X48319400Y-70639000D01*
X48359400Y-62035000D02*
X48359400Y-70565000D01*
X48399400Y-62111000D02*
X48399400Y-70489000D01*
X48439400Y-62188000D02*
X48439400Y-70412000D01*
X48479400Y-62267000D02*
X48479400Y-70333000D01*
X48519400Y-62348000D02*
X48519400Y-70252000D01*
X48559400Y-62431000D02*
X48559400Y-70169000D01*
X48599400Y-62517000D02*
X48599400Y-70083000D01*
X48639400Y-62605000D02*
X48639400Y-69995000D01*
X48679400Y-62695000D02*
X48679400Y-69905000D01*
X48719400Y-62788000D02*
X48719400Y-69812000D01*
X48759400Y-62884000D02*
X48759400Y-69716000D01*
X48799400Y-62984000D02*
X48799400Y-69616000D01*
X48839400Y-63087000D02*
X48839400Y-69513000D01*
X48879400Y-63193000D02*
X48879400Y-69407000D01*
X48919400Y-63304000D02*
X48919400Y-69296000D01*
X48959400Y-63420000D02*
X48959400Y-69180000D01*
X48999400Y-63541000D02*
X48999400Y-69059000D01*
X49039400Y-63669000D02*
X49039400Y-68931000D01*
X49079400Y-63803000D02*
X49079400Y-68797000D01*
X49119400Y-63945000D02*
X49119400Y-68655000D01*
X49159400Y-64098000D02*
X49159400Y-68502000D01*
X49199400Y-64262000D02*
X49199400Y-68338000D01*
X49239400Y-64441000D02*
X49239400Y-68159000D01*
X49279400Y-64639000D02*
X49279400Y-67961000D01*
X49319400Y-64865000D02*
X49319400Y-67735000D01*
X49359400Y-65135000D02*
X49359400Y-67465000D01*
X49399400Y-65487000D02*
X49399400Y-67113000D01*
X49439400Y-66340000D02*
X49439400Y-66260000D01*
X49439400Y-66300000D02*
G75*
G02*
X31199400Y-66300000I-9120000J0D01*
G01*
X31199400Y-66300000D02*
G75*
G02*
X49439400Y-66300000I9120000J0D01*
G01*
%TO.C,C3*%
X30559960Y-82735000D02*
X32359960Y-82735000D01*
X31459960Y-81835000D02*
X31459960Y-83635000D01*
X40319400Y-78770000D02*
X40319400Y-96930000D01*
X40359400Y-78770000D02*
X40359400Y-96930000D01*
X40399400Y-78770000D02*
X40399400Y-96930000D01*
X40439400Y-78771000D02*
X40439400Y-96929000D01*
X40479400Y-78771000D02*
X40479400Y-96929000D01*
X40519400Y-78772000D02*
X40519400Y-96928000D01*
X40559400Y-78773000D02*
X40559400Y-96927000D01*
X40599400Y-78774000D02*
X40599400Y-96926000D01*
X40639400Y-78776000D02*
X40639400Y-96924000D01*
X40679400Y-78777000D02*
X40679400Y-96923000D01*
X40719400Y-78779000D02*
X40719400Y-96921000D01*
X40759400Y-78781000D02*
X40759400Y-96919000D01*
X40799400Y-78783000D02*
X40799400Y-96917000D01*
X40839400Y-78785000D02*
X40839400Y-96915000D01*
X40879400Y-78787000D02*
X40879400Y-96913000D01*
X40919400Y-78790000D02*
X40919400Y-96910000D01*
X40959400Y-78792000D02*
X40959400Y-96908000D01*
X40999400Y-78795000D02*
X40999400Y-96905000D01*
X41039400Y-78798000D02*
X41039400Y-96902000D01*
X41079400Y-78802000D02*
X41079400Y-96898000D01*
X41119400Y-78805000D02*
X41119400Y-96895000D01*
X41159400Y-78809000D02*
X41159400Y-96891000D01*
X41199400Y-78813000D02*
X41199400Y-96887000D01*
X41239400Y-78817000D02*
X41239400Y-96883000D01*
X41279400Y-78821000D02*
X41279400Y-96879000D01*
X41319400Y-78825000D02*
X41319400Y-96875000D01*
X41359400Y-78829000D02*
X41359400Y-96871000D01*
X41399400Y-78834000D02*
X41399400Y-96866000D01*
X41439400Y-78839000D02*
X41439400Y-96861000D01*
X41479400Y-78844000D02*
X41479400Y-96856000D01*
X41519400Y-78849000D02*
X41519400Y-96851000D01*
X41559400Y-78855000D02*
X41559400Y-96845000D01*
X41599400Y-78860000D02*
X41599400Y-96840000D01*
X41639400Y-78866000D02*
X41639400Y-96834000D01*
X41679400Y-78872000D02*
X41679400Y-96828000D01*
X41719400Y-78878000D02*
X41719400Y-96822000D01*
X41759400Y-78884000D02*
X41759400Y-96816000D01*
X41799400Y-78891000D02*
X41799400Y-96809000D01*
X41839400Y-78898000D02*
X41839400Y-96802000D01*
X41879400Y-78904000D02*
X41879400Y-96796000D01*
X41919400Y-78911000D02*
X41919400Y-96789000D01*
X41959400Y-78919000D02*
X41959400Y-96781000D01*
X41999400Y-78926000D02*
X41999400Y-96774000D01*
X42039400Y-78934000D02*
X42039400Y-96766000D01*
X42079400Y-78941000D02*
X42079400Y-96759000D01*
X42119400Y-78949000D02*
X42119400Y-96751000D01*
X42159400Y-78958000D02*
X42159400Y-96742000D01*
X42199400Y-78966000D02*
X42199400Y-96734000D01*
X42239400Y-78974000D02*
X42239400Y-96726000D01*
X42279400Y-78983000D02*
X42279400Y-96717000D01*
X42319400Y-78992000D02*
X42319400Y-96708000D01*
X42359400Y-79001000D02*
X42359400Y-96699000D01*
X42399400Y-79010000D02*
X42399400Y-96690000D01*
X42439400Y-79020000D02*
X42439400Y-96680000D01*
X42479400Y-79029000D02*
X42479400Y-96671000D01*
X42519400Y-79039000D02*
X42519400Y-96661000D01*
X42559400Y-79049000D02*
X42559400Y-96651000D01*
X42599400Y-79060000D02*
X42599400Y-96640000D01*
X42639400Y-79070000D02*
X42639400Y-86410000D01*
X42639400Y-89290000D02*
X42639400Y-96630000D01*
X42679400Y-79081000D02*
X42679400Y-86410000D01*
X42679400Y-89290000D02*
X42679400Y-96619000D01*
X42719400Y-79091000D02*
X42719400Y-86410000D01*
X42719400Y-89290000D02*
X42719400Y-96609000D01*
X42759400Y-79102000D02*
X42759400Y-86410000D01*
X42759400Y-89290000D02*
X42759400Y-96598000D01*
X42799400Y-79114000D02*
X42799400Y-86410000D01*
X42799400Y-89290000D02*
X42799400Y-96586000D01*
X42839400Y-79125000D02*
X42839400Y-86410000D01*
X42839400Y-89290000D02*
X42839400Y-96575000D01*
X42879400Y-79137000D02*
X42879400Y-86410000D01*
X42879400Y-89290000D02*
X42879400Y-96563000D01*
X42919400Y-79148000D02*
X42919400Y-86410000D01*
X42919400Y-89290000D02*
X42919400Y-96552000D01*
X42959400Y-79160000D02*
X42959400Y-86410000D01*
X42959400Y-89290000D02*
X42959400Y-96540000D01*
X42999400Y-79173000D02*
X42999400Y-86410000D01*
X42999400Y-89290000D02*
X42999400Y-96527000D01*
X43039400Y-79185000D02*
X43039400Y-86410000D01*
X43039400Y-89290000D02*
X43039400Y-96515000D01*
X43079400Y-79198000D02*
X43079400Y-86410000D01*
X43079400Y-89290000D02*
X43079400Y-96502000D01*
X43119400Y-79210000D02*
X43119400Y-86410000D01*
X43119400Y-89290000D02*
X43119400Y-96490000D01*
X43159400Y-79223000D02*
X43159400Y-86410000D01*
X43159400Y-89290000D02*
X43159400Y-96477000D01*
X43199400Y-79237000D02*
X43199400Y-86410000D01*
X43199400Y-89290000D02*
X43199400Y-96463000D01*
X43239400Y-79250000D02*
X43239400Y-86410000D01*
X43239400Y-89290000D02*
X43239400Y-96450000D01*
X43279400Y-79264000D02*
X43279400Y-86410000D01*
X43279400Y-89290000D02*
X43279400Y-96436000D01*
X43319400Y-79278000D02*
X43319400Y-86410000D01*
X43319400Y-89290000D02*
X43319400Y-96422000D01*
X43359400Y-79292000D02*
X43359400Y-86410000D01*
X43359400Y-89290000D02*
X43359400Y-96408000D01*
X43399400Y-79306000D02*
X43399400Y-86410000D01*
X43399400Y-89290000D02*
X43399400Y-96394000D01*
X43439400Y-79320000D02*
X43439400Y-86410000D01*
X43439400Y-89290000D02*
X43439400Y-96380000D01*
X43479400Y-79335000D02*
X43479400Y-86410000D01*
X43479400Y-89290000D02*
X43479400Y-96365000D01*
X43519400Y-79350000D02*
X43519400Y-86410000D01*
X43519400Y-89290000D02*
X43519400Y-96350000D01*
X43559400Y-79365000D02*
X43559400Y-86410000D01*
X43559400Y-89290000D02*
X43559400Y-96335000D01*
X43599400Y-79380000D02*
X43599400Y-86410000D01*
X43599400Y-89290000D02*
X43599400Y-96320000D01*
X43639400Y-79396000D02*
X43639400Y-86410000D01*
X43639400Y-89290000D02*
X43639400Y-96304000D01*
X43679400Y-79412000D02*
X43679400Y-86410000D01*
X43679400Y-89290000D02*
X43679400Y-96288000D01*
X43719400Y-79427000D02*
X43719400Y-86410000D01*
X43719400Y-89290000D02*
X43719400Y-96273000D01*
X43759400Y-79444000D02*
X43759400Y-86410000D01*
X43759400Y-89290000D02*
X43759400Y-96256000D01*
X43799400Y-79460000D02*
X43799400Y-86410000D01*
X43799400Y-89290000D02*
X43799400Y-96240000D01*
X43839400Y-79477000D02*
X43839400Y-86410000D01*
X43839400Y-89290000D02*
X43839400Y-96223000D01*
X43879400Y-79494000D02*
X43879400Y-86410000D01*
X43879400Y-89290000D02*
X43879400Y-96206000D01*
X43919400Y-79511000D02*
X43919400Y-86410000D01*
X43919400Y-89290000D02*
X43919400Y-96189000D01*
X43959400Y-79528000D02*
X43959400Y-86410000D01*
X43959400Y-89290000D02*
X43959400Y-96172000D01*
X43999400Y-79545000D02*
X43999400Y-86410000D01*
X43999400Y-89290000D02*
X43999400Y-96155000D01*
X44039400Y-79563000D02*
X44039400Y-86410000D01*
X44039400Y-89290000D02*
X44039400Y-96137000D01*
X44079400Y-79581000D02*
X44079400Y-86410000D01*
X44079400Y-89290000D02*
X44079400Y-96119000D01*
X44119400Y-79599000D02*
X44119400Y-86410000D01*
X44119400Y-89290000D02*
X44119400Y-96101000D01*
X44159400Y-79618000D02*
X44159400Y-86410000D01*
X44159400Y-89290000D02*
X44159400Y-96082000D01*
X44199400Y-79637000D02*
X44199400Y-86410000D01*
X44199400Y-89290000D02*
X44199400Y-96063000D01*
X44239400Y-79655000D02*
X44239400Y-86410000D01*
X44239400Y-89290000D02*
X44239400Y-96045000D01*
X44279400Y-79675000D02*
X44279400Y-86410000D01*
X44279400Y-89290000D02*
X44279400Y-96025000D01*
X44319400Y-79694000D02*
X44319400Y-86410000D01*
X44319400Y-89290000D02*
X44319400Y-96006000D01*
X44359400Y-79714000D02*
X44359400Y-86410000D01*
X44359400Y-89290000D02*
X44359400Y-95986000D01*
X44399400Y-79734000D02*
X44399400Y-86410000D01*
X44399400Y-89290000D02*
X44399400Y-95966000D01*
X44439400Y-79754000D02*
X44439400Y-86410000D01*
X44439400Y-89290000D02*
X44439400Y-95946000D01*
X44479400Y-79774000D02*
X44479400Y-86410000D01*
X44479400Y-89290000D02*
X44479400Y-95926000D01*
X44519400Y-79795000D02*
X44519400Y-86410000D01*
X44519400Y-89290000D02*
X44519400Y-95905000D01*
X44559400Y-79816000D02*
X44559400Y-86410000D01*
X44559400Y-89290000D02*
X44559400Y-95884000D01*
X44599400Y-79837000D02*
X44599400Y-86410000D01*
X44599400Y-89290000D02*
X44599400Y-95863000D01*
X44639400Y-79858000D02*
X44639400Y-86410000D01*
X44639400Y-89290000D02*
X44639400Y-95842000D01*
X44679400Y-79880000D02*
X44679400Y-86410000D01*
X44679400Y-89290000D02*
X44679400Y-95820000D01*
X44719400Y-79902000D02*
X44719400Y-86410000D01*
X44719400Y-89290000D02*
X44719400Y-95798000D01*
X44759400Y-79924000D02*
X44759400Y-86410000D01*
X44759400Y-89290000D02*
X44759400Y-95776000D01*
X44799400Y-79946000D02*
X44799400Y-86410000D01*
X44799400Y-89290000D02*
X44799400Y-95754000D01*
X44839400Y-79969000D02*
X44839400Y-86410000D01*
X44839400Y-89290000D02*
X44839400Y-95731000D01*
X44879400Y-79992000D02*
X44879400Y-86410000D01*
X44879400Y-89290000D02*
X44879400Y-95708000D01*
X44919400Y-80015000D02*
X44919400Y-86410000D01*
X44919400Y-89290000D02*
X44919400Y-95685000D01*
X44959400Y-80039000D02*
X44959400Y-86410000D01*
X44959400Y-89290000D02*
X44959400Y-95661000D01*
X44999400Y-80062000D02*
X44999400Y-86410000D01*
X44999400Y-89290000D02*
X44999400Y-95638000D01*
X45039400Y-80086000D02*
X45039400Y-86410000D01*
X45039400Y-89290000D02*
X45039400Y-95614000D01*
X45079400Y-80111000D02*
X45079400Y-86410000D01*
X45079400Y-89290000D02*
X45079400Y-95589000D01*
X45119400Y-80135000D02*
X45119400Y-86410000D01*
X45119400Y-89290000D02*
X45119400Y-95565000D01*
X45159400Y-80160000D02*
X45159400Y-86410000D01*
X45159400Y-89290000D02*
X45159400Y-95540000D01*
X45199400Y-80185000D02*
X45199400Y-86410000D01*
X45199400Y-89290000D02*
X45199400Y-95515000D01*
X45239400Y-80211000D02*
X45239400Y-86410000D01*
X45239400Y-89290000D02*
X45239400Y-95489000D01*
X45279400Y-80237000D02*
X45279400Y-86410000D01*
X45279400Y-89290000D02*
X45279400Y-95463000D01*
X45319400Y-80263000D02*
X45319400Y-86410000D01*
X45319400Y-89290000D02*
X45319400Y-95437000D01*
X45359400Y-80289000D02*
X45359400Y-86410000D01*
X45359400Y-89290000D02*
X45359400Y-95411000D01*
X45399400Y-80316000D02*
X45399400Y-86410000D01*
X45399400Y-89290000D02*
X45399400Y-95384000D01*
X45439400Y-80343000D02*
X45439400Y-86410000D01*
X45439400Y-89290000D02*
X45439400Y-95357000D01*
X45479400Y-80370000D02*
X45479400Y-86410000D01*
X45479400Y-89290000D02*
X45479400Y-95330000D01*
X45519400Y-80398000D02*
X45519400Y-95302000D01*
X45559400Y-80426000D02*
X45559400Y-95274000D01*
X45599400Y-80454000D02*
X45599400Y-95246000D01*
X45639400Y-80482000D02*
X45639400Y-95218000D01*
X45679400Y-80511000D02*
X45679400Y-95189000D01*
X45719400Y-80541000D02*
X45719400Y-95159000D01*
X45759400Y-80570000D02*
X45759400Y-95130000D01*
X45799400Y-80600000D02*
X45799400Y-95100000D01*
X45839400Y-80630000D02*
X45839400Y-95070000D01*
X45879400Y-80661000D02*
X45879400Y-95039000D01*
X45919400Y-80692000D02*
X45919400Y-95008000D01*
X45959400Y-80723000D02*
X45959400Y-94977000D01*
X45999400Y-80755000D02*
X45999400Y-94945000D01*
X46039400Y-80787000D02*
X46039400Y-94913000D01*
X46079400Y-80819000D02*
X46079400Y-94881000D01*
X46119400Y-80852000D02*
X46119400Y-94848000D01*
X46159400Y-80885000D02*
X46159400Y-94815000D01*
X46199400Y-80919000D02*
X46199400Y-94781000D01*
X46239400Y-80953000D02*
X46239400Y-94747000D01*
X46279400Y-80987000D02*
X46279400Y-94713000D01*
X46319400Y-81022000D02*
X46319400Y-94678000D01*
X46359400Y-81057000D02*
X46359400Y-94643000D01*
X46399400Y-81092000D02*
X46399400Y-94608000D01*
X46439400Y-81128000D02*
X46439400Y-94572000D01*
X46479400Y-81165000D02*
X46479400Y-94535000D01*
X46519400Y-81202000D02*
X46519400Y-94498000D01*
X46559400Y-81239000D02*
X46559400Y-94461000D01*
X46599400Y-81277000D02*
X46599400Y-94423000D01*
X46639400Y-81315000D02*
X46639400Y-94385000D01*
X46679400Y-81354000D02*
X46679400Y-94346000D01*
X46719400Y-81393000D02*
X46719400Y-94307000D01*
X46759400Y-81432000D02*
X46759400Y-94268000D01*
X46799400Y-81473000D02*
X46799400Y-94227000D01*
X46839400Y-81513000D02*
X46839400Y-94187000D01*
X46879400Y-81554000D02*
X46879400Y-94146000D01*
X46919400Y-81596000D02*
X46919400Y-94104000D01*
X46959400Y-81638000D02*
X46959400Y-94062000D01*
X46999400Y-81681000D02*
X46999400Y-94019000D01*
X47039400Y-81724000D02*
X47039400Y-93976000D01*
X47079400Y-81768000D02*
X47079400Y-93932000D01*
X47119400Y-81813000D02*
X47119400Y-93887000D01*
X47159400Y-81858000D02*
X47159400Y-93842000D01*
X47199400Y-81903000D02*
X47199400Y-93797000D01*
X47239400Y-81950000D02*
X47239400Y-93750000D01*
X47279400Y-81997000D02*
X47279400Y-93703000D01*
X47319400Y-82044000D02*
X47319400Y-93656000D01*
X47359400Y-82092000D02*
X47359400Y-93608000D01*
X47399400Y-82141000D02*
X47399400Y-93559000D01*
X47439400Y-82191000D02*
X47439400Y-93509000D01*
X47479400Y-82241000D02*
X47479400Y-93459000D01*
X47519400Y-82292000D02*
X47519400Y-93408000D01*
X47559400Y-82344000D02*
X47559400Y-93356000D01*
X47599400Y-82397000D02*
X47599400Y-93303000D01*
X47639400Y-82450000D02*
X47639400Y-93250000D01*
X47679400Y-82504000D02*
X47679400Y-93196000D01*
X47719400Y-82559000D02*
X47719400Y-93141000D01*
X47759400Y-82615000D02*
X47759400Y-93085000D01*
X47799400Y-82672000D02*
X47799400Y-93028000D01*
X47839400Y-82730000D02*
X47839400Y-92970000D01*
X47879400Y-82789000D02*
X47879400Y-92911000D01*
X47919400Y-82849000D02*
X47919400Y-92851000D01*
X47959400Y-82910000D02*
X47959400Y-92790000D01*
X47999400Y-82971000D02*
X47999400Y-92729000D01*
X48039400Y-83034000D02*
X48039400Y-92666000D01*
X48079400Y-83099000D02*
X48079400Y-92601000D01*
X48119400Y-83164000D02*
X48119400Y-92536000D01*
X48159400Y-83231000D02*
X48159400Y-92469000D01*
X48199400Y-83299000D02*
X48199400Y-92401000D01*
X48239400Y-83368000D02*
X48239400Y-92332000D01*
X48279400Y-83439000D02*
X48279400Y-92261000D01*
X48319400Y-83511000D02*
X48319400Y-92189000D01*
X48359400Y-83585000D02*
X48359400Y-92115000D01*
X48399400Y-83661000D02*
X48399400Y-92039000D01*
X48439400Y-83738000D02*
X48439400Y-91962000D01*
X48479400Y-83817000D02*
X48479400Y-91883000D01*
X48519400Y-83898000D02*
X48519400Y-91802000D01*
X48559400Y-83981000D02*
X48559400Y-91719000D01*
X48599400Y-84067000D02*
X48599400Y-91633000D01*
X48639400Y-84155000D02*
X48639400Y-91545000D01*
X48679400Y-84245000D02*
X48679400Y-91455000D01*
X48719400Y-84338000D02*
X48719400Y-91362000D01*
X48759400Y-84434000D02*
X48759400Y-91266000D01*
X48799400Y-84534000D02*
X48799400Y-91166000D01*
X48839400Y-84637000D02*
X48839400Y-91063000D01*
X48879400Y-84743000D02*
X48879400Y-90957000D01*
X48919400Y-84854000D02*
X48919400Y-90846000D01*
X48959400Y-84970000D02*
X48959400Y-90730000D01*
X48999400Y-85091000D02*
X48999400Y-90609000D01*
X49039400Y-85219000D02*
X49039400Y-90481000D01*
X49079400Y-85353000D02*
X49079400Y-90347000D01*
X49119400Y-85495000D02*
X49119400Y-90205000D01*
X49159400Y-85648000D02*
X49159400Y-90052000D01*
X49199400Y-85812000D02*
X49199400Y-89888000D01*
X49239400Y-85991000D02*
X49239400Y-89709000D01*
X49279400Y-86189000D02*
X49279400Y-89511000D01*
X49319400Y-86415000D02*
X49319400Y-89285000D01*
X49359400Y-86685000D02*
X49359400Y-89015000D01*
X49399400Y-87037000D02*
X49399400Y-88663000D01*
X49439400Y-87890000D02*
X49439400Y-87810000D01*
X49439400Y-87850000D02*
G75*
G02*
X31199400Y-87850000I-9120000J0D01*
G01*
X31199400Y-87850000D02*
G75*
G02*
X49439400Y-87850000I9120000J0D01*
G01*
%TO.C,J1*%
X27380000Y-28190000D02*
X27380000Y-35810000D01*
X42620000Y-28190000D02*
X27380000Y-28190000D01*
X42620000Y-28190000D02*
X42620000Y-35810000D01*
X42620000Y-29460000D02*
X27380000Y-29460000D01*
X42620000Y-35810000D02*
X27380000Y-35810000D01*
%TO.C,J2*%
X103920000Y-28190000D02*
X103920000Y-35810000D01*
X103920000Y-35810000D02*
X114080000Y-35810000D01*
X114080000Y-28190000D02*
X103920000Y-28190000D01*
X114080000Y-34540000D02*
X103920000Y-34540000D01*
X114080000Y-35810000D02*
X114080000Y-28190000D01*
%TO.C,D6*%
X69035000Y-52400000D02*
X70055000Y-52400000D01*
X70835000Y-50930000D02*
X70835000Y-53870000D01*
X70955000Y-50930000D02*
X70955000Y-53870000D01*
X71075000Y-50930000D02*
X71075000Y-53870000D01*
X76515000Y-52400000D02*
X75495000Y-52400000D01*
X70055000Y-50930000D02*
X75495000Y-50930000D01*
X75495000Y-53870000D01*
X70055000Y-53870000D01*
X70055000Y-50930000D01*
%TO.C,D5*%
X51125000Y-52400000D02*
X52145000Y-52400000D01*
X52925000Y-50930000D02*
X52925000Y-53870000D01*
X53045000Y-50930000D02*
X53045000Y-53870000D01*
X53165000Y-50930000D02*
X53165000Y-53870000D01*
X58605000Y-52400000D02*
X57585000Y-52400000D01*
X52145000Y-50930000D02*
X57585000Y-50930000D01*
X57585000Y-53870000D01*
X52145000Y-53870000D01*
X52145000Y-50930000D01*
%TO.C,C2*%
X54654460Y-61185000D02*
X56454460Y-61185000D01*
X55554460Y-60285000D02*
X55554460Y-62085000D01*
X64413900Y-57220000D02*
X64413900Y-75380000D01*
X64453900Y-57220000D02*
X64453900Y-75380000D01*
X64493900Y-57220000D02*
X64493900Y-75380000D01*
X64533900Y-57221000D02*
X64533900Y-75379000D01*
X64573900Y-57221000D02*
X64573900Y-75379000D01*
X64613900Y-57222000D02*
X64613900Y-75378000D01*
X64653900Y-57223000D02*
X64653900Y-75377000D01*
X64693900Y-57224000D02*
X64693900Y-75376000D01*
X64733900Y-57226000D02*
X64733900Y-75374000D01*
X64773900Y-57227000D02*
X64773900Y-75373000D01*
X64813900Y-57229000D02*
X64813900Y-75371000D01*
X64853900Y-57231000D02*
X64853900Y-75369000D01*
X64893900Y-57233000D02*
X64893900Y-75367000D01*
X64933900Y-57235000D02*
X64933900Y-75365000D01*
X64973900Y-57237000D02*
X64973900Y-75363000D01*
X65013900Y-57240000D02*
X65013900Y-75360000D01*
X65053900Y-57242000D02*
X65053900Y-75358000D01*
X65093900Y-57245000D02*
X65093900Y-75355000D01*
X65133900Y-57248000D02*
X65133900Y-75352000D01*
X65173900Y-57252000D02*
X65173900Y-75348000D01*
X65213900Y-57255000D02*
X65213900Y-75345000D01*
X65253900Y-57259000D02*
X65253900Y-75341000D01*
X65293900Y-57263000D02*
X65293900Y-75337000D01*
X65333900Y-57267000D02*
X65333900Y-75333000D01*
X65373900Y-57271000D02*
X65373900Y-75329000D01*
X65413900Y-57275000D02*
X65413900Y-75325000D01*
X65453900Y-57279000D02*
X65453900Y-75321000D01*
X65493900Y-57284000D02*
X65493900Y-75316000D01*
X65533900Y-57289000D02*
X65533900Y-75311000D01*
X65573900Y-57294000D02*
X65573900Y-75306000D01*
X65613900Y-57299000D02*
X65613900Y-75301000D01*
X65653900Y-57305000D02*
X65653900Y-75295000D01*
X65693900Y-57310000D02*
X65693900Y-75290000D01*
X65733900Y-57316000D02*
X65733900Y-75284000D01*
X65773900Y-57322000D02*
X65773900Y-75278000D01*
X65813900Y-57328000D02*
X65813900Y-75272000D01*
X65853900Y-57334000D02*
X65853900Y-75266000D01*
X65893900Y-57341000D02*
X65893900Y-75259000D01*
X65933900Y-57348000D02*
X65933900Y-75252000D01*
X65973900Y-57354000D02*
X65973900Y-75246000D01*
X66013900Y-57361000D02*
X66013900Y-75239000D01*
X66053900Y-57369000D02*
X66053900Y-75231000D01*
X66093900Y-57376000D02*
X66093900Y-75224000D01*
X66133900Y-57384000D02*
X66133900Y-75216000D01*
X66173900Y-57391000D02*
X66173900Y-75209000D01*
X66213900Y-57399000D02*
X66213900Y-75201000D01*
X66253900Y-57408000D02*
X66253900Y-75192000D01*
X66293900Y-57416000D02*
X66293900Y-75184000D01*
X66333900Y-57424000D02*
X66333900Y-75176000D01*
X66373900Y-57433000D02*
X66373900Y-75167000D01*
X66413900Y-57442000D02*
X66413900Y-75158000D01*
X66453900Y-57451000D02*
X66453900Y-75149000D01*
X66493900Y-57460000D02*
X66493900Y-75140000D01*
X66533900Y-57470000D02*
X66533900Y-75130000D01*
X66573900Y-57479000D02*
X66573900Y-75121000D01*
X66613900Y-57489000D02*
X66613900Y-75111000D01*
X66653900Y-57499000D02*
X66653900Y-75101000D01*
X66693900Y-57510000D02*
X66693900Y-75090000D01*
X66733900Y-57520000D02*
X66733900Y-64860000D01*
X66733900Y-67740000D02*
X66733900Y-75080000D01*
X66773900Y-57531000D02*
X66773900Y-64860000D01*
X66773900Y-67740000D02*
X66773900Y-75069000D01*
X66813900Y-57541000D02*
X66813900Y-64860000D01*
X66813900Y-67740000D02*
X66813900Y-75059000D01*
X66853900Y-57552000D02*
X66853900Y-64860000D01*
X66853900Y-67740000D02*
X66853900Y-75048000D01*
X66893900Y-57564000D02*
X66893900Y-64860000D01*
X66893900Y-67740000D02*
X66893900Y-75036000D01*
X66933900Y-57575000D02*
X66933900Y-64860000D01*
X66933900Y-67740000D02*
X66933900Y-75025000D01*
X66973900Y-57587000D02*
X66973900Y-64860000D01*
X66973900Y-67740000D02*
X66973900Y-75013000D01*
X67013900Y-57598000D02*
X67013900Y-64860000D01*
X67013900Y-67740000D02*
X67013900Y-75002000D01*
X67053900Y-57610000D02*
X67053900Y-64860000D01*
X67053900Y-67740000D02*
X67053900Y-74990000D01*
X67093900Y-57623000D02*
X67093900Y-64860000D01*
X67093900Y-67740000D02*
X67093900Y-74977000D01*
X67133900Y-57635000D02*
X67133900Y-64860000D01*
X67133900Y-67740000D02*
X67133900Y-74965000D01*
X67173900Y-57648000D02*
X67173900Y-64860000D01*
X67173900Y-67740000D02*
X67173900Y-74952000D01*
X67213900Y-57660000D02*
X67213900Y-64860000D01*
X67213900Y-67740000D02*
X67213900Y-74940000D01*
X67253900Y-57673000D02*
X67253900Y-64860000D01*
X67253900Y-67740000D02*
X67253900Y-74927000D01*
X67293900Y-57687000D02*
X67293900Y-64860000D01*
X67293900Y-67740000D02*
X67293900Y-74913000D01*
X67333900Y-57700000D02*
X67333900Y-64860000D01*
X67333900Y-67740000D02*
X67333900Y-74900000D01*
X67373900Y-57714000D02*
X67373900Y-64860000D01*
X67373900Y-67740000D02*
X67373900Y-74886000D01*
X67413900Y-57728000D02*
X67413900Y-64860000D01*
X67413900Y-67740000D02*
X67413900Y-74872000D01*
X67453900Y-57742000D02*
X67453900Y-64860000D01*
X67453900Y-67740000D02*
X67453900Y-74858000D01*
X67493900Y-57756000D02*
X67493900Y-64860000D01*
X67493900Y-67740000D02*
X67493900Y-74844000D01*
X67533900Y-57770000D02*
X67533900Y-64860000D01*
X67533900Y-67740000D02*
X67533900Y-74830000D01*
X67573900Y-57785000D02*
X67573900Y-64860000D01*
X67573900Y-67740000D02*
X67573900Y-74815000D01*
X67613900Y-57800000D02*
X67613900Y-64860000D01*
X67613900Y-67740000D02*
X67613900Y-74800000D01*
X67653900Y-57815000D02*
X67653900Y-64860000D01*
X67653900Y-67740000D02*
X67653900Y-74785000D01*
X67693900Y-57830000D02*
X67693900Y-64860000D01*
X67693900Y-67740000D02*
X67693900Y-74770000D01*
X67733900Y-57846000D02*
X67733900Y-64860000D01*
X67733900Y-67740000D02*
X67733900Y-74754000D01*
X67773900Y-57862000D02*
X67773900Y-64860000D01*
X67773900Y-67740000D02*
X67773900Y-74738000D01*
X67813900Y-57877000D02*
X67813900Y-64860000D01*
X67813900Y-67740000D02*
X67813900Y-74723000D01*
X67853900Y-57894000D02*
X67853900Y-64860000D01*
X67853900Y-67740000D02*
X67853900Y-74706000D01*
X67893900Y-57910000D02*
X67893900Y-64860000D01*
X67893900Y-67740000D02*
X67893900Y-74690000D01*
X67933900Y-57927000D02*
X67933900Y-64860000D01*
X67933900Y-67740000D02*
X67933900Y-74673000D01*
X67973900Y-57944000D02*
X67973900Y-64860000D01*
X67973900Y-67740000D02*
X67973900Y-74656000D01*
X68013900Y-57961000D02*
X68013900Y-64860000D01*
X68013900Y-67740000D02*
X68013900Y-74639000D01*
X68053900Y-57978000D02*
X68053900Y-64860000D01*
X68053900Y-67740000D02*
X68053900Y-74622000D01*
X68093900Y-57995000D02*
X68093900Y-64860000D01*
X68093900Y-67740000D02*
X68093900Y-74605000D01*
X68133900Y-58013000D02*
X68133900Y-64860000D01*
X68133900Y-67740000D02*
X68133900Y-74587000D01*
X68173900Y-58031000D02*
X68173900Y-64860000D01*
X68173900Y-67740000D02*
X68173900Y-74569000D01*
X68213900Y-58049000D02*
X68213900Y-64860000D01*
X68213900Y-67740000D02*
X68213900Y-74551000D01*
X68253900Y-58068000D02*
X68253900Y-64860000D01*
X68253900Y-67740000D02*
X68253900Y-74532000D01*
X68293900Y-58087000D02*
X68293900Y-64860000D01*
X68293900Y-67740000D02*
X68293900Y-74513000D01*
X68333900Y-58105000D02*
X68333900Y-64860000D01*
X68333900Y-67740000D02*
X68333900Y-74495000D01*
X68373900Y-58125000D02*
X68373900Y-64860000D01*
X68373900Y-67740000D02*
X68373900Y-74475000D01*
X68413900Y-58144000D02*
X68413900Y-64860000D01*
X68413900Y-67740000D02*
X68413900Y-74456000D01*
X68453900Y-58164000D02*
X68453900Y-64860000D01*
X68453900Y-67740000D02*
X68453900Y-74436000D01*
X68493900Y-58184000D02*
X68493900Y-64860000D01*
X68493900Y-67740000D02*
X68493900Y-74416000D01*
X68533900Y-58204000D02*
X68533900Y-64860000D01*
X68533900Y-67740000D02*
X68533900Y-74396000D01*
X68573900Y-58224000D02*
X68573900Y-64860000D01*
X68573900Y-67740000D02*
X68573900Y-74376000D01*
X68613900Y-58245000D02*
X68613900Y-64860000D01*
X68613900Y-67740000D02*
X68613900Y-74355000D01*
X68653900Y-58266000D02*
X68653900Y-64860000D01*
X68653900Y-67740000D02*
X68653900Y-74334000D01*
X68693900Y-58287000D02*
X68693900Y-64860000D01*
X68693900Y-67740000D02*
X68693900Y-74313000D01*
X68733900Y-58308000D02*
X68733900Y-64860000D01*
X68733900Y-67740000D02*
X68733900Y-74292000D01*
X68773900Y-58330000D02*
X68773900Y-64860000D01*
X68773900Y-67740000D02*
X68773900Y-74270000D01*
X68813900Y-58352000D02*
X68813900Y-64860000D01*
X68813900Y-67740000D02*
X68813900Y-74248000D01*
X68853900Y-58374000D02*
X68853900Y-64860000D01*
X68853900Y-67740000D02*
X68853900Y-74226000D01*
X68893900Y-58396000D02*
X68893900Y-64860000D01*
X68893900Y-67740000D02*
X68893900Y-74204000D01*
X68933900Y-58419000D02*
X68933900Y-64860000D01*
X68933900Y-67740000D02*
X68933900Y-74181000D01*
X68973900Y-58442000D02*
X68973900Y-64860000D01*
X68973900Y-67740000D02*
X68973900Y-74158000D01*
X69013900Y-58465000D02*
X69013900Y-64860000D01*
X69013900Y-67740000D02*
X69013900Y-74135000D01*
X69053900Y-58489000D02*
X69053900Y-64860000D01*
X69053900Y-67740000D02*
X69053900Y-74111000D01*
X69093900Y-58512000D02*
X69093900Y-64860000D01*
X69093900Y-67740000D02*
X69093900Y-74088000D01*
X69133900Y-58536000D02*
X69133900Y-64860000D01*
X69133900Y-67740000D02*
X69133900Y-74064000D01*
X69173900Y-58561000D02*
X69173900Y-64860000D01*
X69173900Y-67740000D02*
X69173900Y-74039000D01*
X69213900Y-58585000D02*
X69213900Y-64860000D01*
X69213900Y-67740000D02*
X69213900Y-74015000D01*
X69253900Y-58610000D02*
X69253900Y-64860000D01*
X69253900Y-67740000D02*
X69253900Y-73990000D01*
X69293900Y-58635000D02*
X69293900Y-64860000D01*
X69293900Y-67740000D02*
X69293900Y-73965000D01*
X69333900Y-58661000D02*
X69333900Y-64860000D01*
X69333900Y-67740000D02*
X69333900Y-73939000D01*
X69373900Y-58687000D02*
X69373900Y-64860000D01*
X69373900Y-67740000D02*
X69373900Y-73913000D01*
X69413900Y-58713000D02*
X69413900Y-64860000D01*
X69413900Y-67740000D02*
X69413900Y-73887000D01*
X69453900Y-58739000D02*
X69453900Y-64860000D01*
X69453900Y-67740000D02*
X69453900Y-73861000D01*
X69493900Y-58766000D02*
X69493900Y-64860000D01*
X69493900Y-67740000D02*
X69493900Y-73834000D01*
X69533900Y-58793000D02*
X69533900Y-64860000D01*
X69533900Y-67740000D02*
X69533900Y-73807000D01*
X69573900Y-58820000D02*
X69573900Y-64860000D01*
X69573900Y-67740000D02*
X69573900Y-73780000D01*
X69613900Y-58848000D02*
X69613900Y-73752000D01*
X69653900Y-58876000D02*
X69653900Y-73724000D01*
X69693900Y-58904000D02*
X69693900Y-73696000D01*
X69733900Y-58932000D02*
X69733900Y-73668000D01*
X69773900Y-58961000D02*
X69773900Y-73639000D01*
X69813900Y-58991000D02*
X69813900Y-73609000D01*
X69853900Y-59020000D02*
X69853900Y-73580000D01*
X69893900Y-59050000D02*
X69893900Y-73550000D01*
X69933900Y-59080000D02*
X69933900Y-73520000D01*
X69973900Y-59111000D02*
X69973900Y-73489000D01*
X70013900Y-59142000D02*
X70013900Y-73458000D01*
X70053900Y-59173000D02*
X70053900Y-73427000D01*
X70093900Y-59205000D02*
X70093900Y-73395000D01*
X70133900Y-59237000D02*
X70133900Y-73363000D01*
X70173900Y-59269000D02*
X70173900Y-73331000D01*
X70213900Y-59302000D02*
X70213900Y-73298000D01*
X70253900Y-59335000D02*
X70253900Y-73265000D01*
X70293900Y-59369000D02*
X70293900Y-73231000D01*
X70333900Y-59403000D02*
X70333900Y-73197000D01*
X70373900Y-59437000D02*
X70373900Y-73163000D01*
X70413900Y-59472000D02*
X70413900Y-73128000D01*
X70453900Y-59507000D02*
X70453900Y-73093000D01*
X70493900Y-59542000D02*
X70493900Y-73058000D01*
X70533900Y-59578000D02*
X70533900Y-73022000D01*
X70573900Y-59615000D02*
X70573900Y-72985000D01*
X70613900Y-59652000D02*
X70613900Y-72948000D01*
X70653900Y-59689000D02*
X70653900Y-72911000D01*
X70693900Y-59727000D02*
X70693900Y-72873000D01*
X70733900Y-59765000D02*
X70733900Y-72835000D01*
X70773900Y-59804000D02*
X70773900Y-72796000D01*
X70813900Y-59843000D02*
X70813900Y-72757000D01*
X70853900Y-59882000D02*
X70853900Y-72718000D01*
X70893900Y-59923000D02*
X70893900Y-72677000D01*
X70933900Y-59963000D02*
X70933900Y-72637000D01*
X70973900Y-60004000D02*
X70973900Y-72596000D01*
X71013900Y-60046000D02*
X71013900Y-72554000D01*
X71053900Y-60088000D02*
X71053900Y-72512000D01*
X71093900Y-60131000D02*
X71093900Y-72469000D01*
X71133900Y-60174000D02*
X71133900Y-72426000D01*
X71173900Y-60218000D02*
X71173900Y-72382000D01*
X71213900Y-60263000D02*
X71213900Y-72337000D01*
X71253900Y-60308000D02*
X71253900Y-72292000D01*
X71293900Y-60353000D02*
X71293900Y-72247000D01*
X71333900Y-60400000D02*
X71333900Y-72200000D01*
X71373900Y-60447000D02*
X71373900Y-72153000D01*
X71413900Y-60494000D02*
X71413900Y-72106000D01*
X71453900Y-60542000D02*
X71453900Y-72058000D01*
X71493900Y-60591000D02*
X71493900Y-72009000D01*
X71533900Y-60641000D02*
X71533900Y-71959000D01*
X71573900Y-60691000D02*
X71573900Y-71909000D01*
X71613900Y-60742000D02*
X71613900Y-71858000D01*
X71653900Y-60794000D02*
X71653900Y-71806000D01*
X71693900Y-60847000D02*
X71693900Y-71753000D01*
X71733900Y-60900000D02*
X71733900Y-71700000D01*
X71773900Y-60954000D02*
X71773900Y-71646000D01*
X71813900Y-61009000D02*
X71813900Y-71591000D01*
X71853900Y-61065000D02*
X71853900Y-71535000D01*
X71893900Y-61122000D02*
X71893900Y-71478000D01*
X71933900Y-61180000D02*
X71933900Y-71420000D01*
X71973900Y-61239000D02*
X71973900Y-71361000D01*
X72013900Y-61299000D02*
X72013900Y-71301000D01*
X72053900Y-61360000D02*
X72053900Y-71240000D01*
X72093900Y-61421000D02*
X72093900Y-71179000D01*
X72133900Y-61484000D02*
X72133900Y-71116000D01*
X72173900Y-61549000D02*
X72173900Y-71051000D01*
X72213900Y-61614000D02*
X72213900Y-70986000D01*
X72253900Y-61681000D02*
X72253900Y-70919000D01*
X72293900Y-61749000D02*
X72293900Y-70851000D01*
X72333900Y-61818000D02*
X72333900Y-70782000D01*
X72373900Y-61889000D02*
X72373900Y-70711000D01*
X72413900Y-61961000D02*
X72413900Y-70639000D01*
X72453900Y-62035000D02*
X72453900Y-70565000D01*
X72493900Y-62111000D02*
X72493900Y-70489000D01*
X72533900Y-62188000D02*
X72533900Y-70412000D01*
X72573900Y-62267000D02*
X72573900Y-70333000D01*
X72613900Y-62348000D02*
X72613900Y-70252000D01*
X72653900Y-62431000D02*
X72653900Y-70169000D01*
X72693900Y-62517000D02*
X72693900Y-70083000D01*
X72733900Y-62605000D02*
X72733900Y-69995000D01*
X72773900Y-62695000D02*
X72773900Y-69905000D01*
X72813900Y-62788000D02*
X72813900Y-69812000D01*
X72853900Y-62884000D02*
X72853900Y-69716000D01*
X72893900Y-62984000D02*
X72893900Y-69616000D01*
X72933900Y-63087000D02*
X72933900Y-69513000D01*
X72973900Y-63193000D02*
X72973900Y-69407000D01*
X73013900Y-63304000D02*
X73013900Y-69296000D01*
X73053900Y-63420000D02*
X73053900Y-69180000D01*
X73093900Y-63541000D02*
X73093900Y-69059000D01*
X73133900Y-63669000D02*
X73133900Y-68931000D01*
X73173900Y-63803000D02*
X73173900Y-68797000D01*
X73213900Y-63945000D02*
X73213900Y-68655000D01*
X73253900Y-64098000D02*
X73253900Y-68502000D01*
X73293900Y-64262000D02*
X73293900Y-68338000D01*
X73333900Y-64441000D02*
X73333900Y-68159000D01*
X73373900Y-64639000D02*
X73373900Y-67961000D01*
X73413900Y-64865000D02*
X73413900Y-67735000D01*
X73453900Y-65135000D02*
X73453900Y-67465000D01*
X73493900Y-65487000D02*
X73493900Y-67113000D01*
X73533900Y-66340000D02*
X73533900Y-66260000D01*
X73533900Y-66300000D02*
G75*
G02*
X55293900Y-66300000I-9120000J0D01*
G01*
X55293900Y-66300000D02*
G75*
G02*
X73533900Y-66300000I9120000J0D01*
G01*
%TO.C,D3*%
X69035000Y-46150000D02*
X70055000Y-46150000D01*
X70835000Y-44680000D02*
X70835000Y-47620000D01*
X70955000Y-44680000D02*
X70955000Y-47620000D01*
X71075000Y-44680000D02*
X71075000Y-47620000D01*
X76515000Y-46150000D02*
X75495000Y-46150000D01*
X70055000Y-44680000D02*
X75495000Y-44680000D01*
X75495000Y-47620000D01*
X70055000Y-47620000D01*
X70055000Y-44680000D01*
%TO.C,D4*%
X33215000Y-52400000D02*
X34235000Y-52400000D01*
X35015000Y-50930000D02*
X35015000Y-53870000D01*
X35135000Y-50930000D02*
X35135000Y-53870000D01*
X35255000Y-50930000D02*
X35255000Y-53870000D01*
X40695000Y-52400000D02*
X39675000Y-52400000D01*
X34235000Y-50930000D02*
X39675000Y-50930000D01*
X39675000Y-53870000D01*
X34235000Y-53870000D01*
X34235000Y-50930000D01*
%TO.C,D2*%
X51125000Y-46150000D02*
X52145000Y-46150000D01*
X52925000Y-44680000D02*
X52925000Y-47620000D01*
X53045000Y-44680000D02*
X53045000Y-47620000D01*
X53165000Y-44680000D02*
X53165000Y-47620000D01*
X58605000Y-46150000D02*
X57585000Y-46150000D01*
X52145000Y-44680000D02*
X57585000Y-44680000D01*
X57585000Y-47620000D01*
X52145000Y-47620000D01*
X52145000Y-44680000D01*
%TO.C,R1*%
X56209400Y-86480000D02*
X62749400Y-86480000D01*
X56209400Y-86810000D02*
X56209400Y-86480000D01*
X56209400Y-88890000D02*
X56209400Y-89220000D01*
X56209400Y-89220000D02*
X62749400Y-89220000D01*
X62749400Y-86480000D02*
X62749400Y-86810000D01*
X62749400Y-89220000D02*
X62749400Y-88890000D01*
%TO.C,D1*%
X33215000Y-46150000D02*
X34235000Y-46150000D01*
X35015000Y-44680000D02*
X35015000Y-47620000D01*
X35135000Y-44680000D02*
X35135000Y-47620000D01*
X35255000Y-44680000D02*
X35255000Y-47620000D01*
X40695000Y-46150000D02*
X39675000Y-46150000D01*
X34235000Y-44680000D02*
X39675000Y-44680000D01*
X39675000Y-47620000D01*
X34235000Y-47620000D01*
X34235000Y-44680000D01*
%TD*%
M02*
