%TF.GenerationSoftware,KiCad,Pcbnew,9.0.4*%
%TF.CreationDate,2026-06-10T15:27:58+02:00*%
%TF.ProjectId,rectifier,72656374-6966-4696-9572-2e6b69636164,rev?*%
%TF.SameCoordinates,Original*%
%TF.FileFunction,Copper,L2,Bot*%
%TF.FilePolarity,Positive*%
%FSLAX46Y46*%
G04 Gerber Fmt 4.6, Leading zero omitted, Abs format (unit mm)*
G04 Created by KiCad (PCBNEW 9.0.4) date 2026-06-10 15:27:58*
%MOMM*%
%LPD*%
G01*
G04 APERTURE LIST*
G04 Aperture macros list*
%AMRoundRect*
0 Rectangle with rounded corners*
0 $1 Rounding radius*
0 $2 $3 $4 $5 $6 $7 $8 $9 X,Y pos of 4 corners*
0 Add a 4 corners polygon primitive as box body*
4,1,4,$2,$3,$4,$5,$6,$7,$8,$9,$2,$3,0*
0 Add four circle primitives for the rounded corners*
1,1,$1+$1,$2,$3*
1,1,$1+$1,$4,$5*
1,1,$1+$1,$6,$7*
1,1,$1+$1,$8,$9*
0 Add four rect primitives between the rounded corners*
20,1,$1+$1,$2,$3,$4,$5,0*
20,1,$1+$1,$4,$5,$6,$7,0*
20,1,$1+$1,$6,$7,$8,$9,0*
20,1,$1+$1,$8,$9,$2,$3,0*%
G04 Aperture macros list end*
%TA.AperFunction,ComponentPad*%
%ADD10RoundRect,0.250001X-0.949999X-0.949999X0.949999X-0.949999X0.949999X0.949999X-0.949999X0.949999X0*%
%TD*%
%TA.AperFunction,ComponentPad*%
%ADD11C,2.400000*%
%TD*%
%TA.AperFunction,ComponentPad*%
%ADD12R,3.000000X3.000000*%
%TD*%
%TA.AperFunction,ComponentPad*%
%ADD13C,3.000000*%
%TD*%
%TA.AperFunction,ComponentPad*%
%ADD14RoundRect,0.249999X-0.850001X-0.850001X0.850001X-0.850001X0.850001X0.850001X-0.850001X0.850001X0*%
%TD*%
%TA.AperFunction,ComponentPad*%
%ADD15C,2.200000*%
%TD*%
%TA.AperFunction,ComponentPad*%
%ADD16C,1.600000*%
%TD*%
%TA.AperFunction,Conductor*%
%ADD17C,1.000000*%
%TD*%
G04 APERTURE END LIST*
D10*
%TO.P,C1,1*%
%TO.N,V1*%
X36569400Y-66300000D03*
D11*
%TO.P,C1,2*%
%TO.N,GND*%
X44069400Y-66300000D03*
%TD*%
D10*
%TO.P,C3,1*%
%TO.N,V1*%
X36569400Y-87850000D03*
D11*
%TO.P,C3,2*%
%TO.N,GND*%
X44069400Y-87850000D03*
%TD*%
D12*
%TO.P,J1,1*%
%TO.N,/PH_A*%
X40080000Y-32000000D03*
D13*
%TO.P,J1,2*%
%TO.N,/PH_B*%
X35000000Y-32000000D03*
%TO.P,J1,3*%
%TO.N,/PH_C*%
X29920000Y-32000000D03*
%TD*%
D12*
%TO.P,J2,1*%
%TO.N,V1*%
X106460000Y-32000000D03*
D13*
%TO.P,J2,2*%
%TO.N,GND*%
X111540000Y-32000000D03*
%TD*%
D14*
%TO.P,D6,1*%
%TO.N,/PH_C*%
X67695000Y-52400000D03*
D15*
%TO.P,D6,2*%
%TO.N,GND*%
X77855000Y-52400000D03*
%TD*%
D14*
%TO.P,D5,1*%
%TO.N,/PH_B*%
X49785000Y-52400000D03*
D15*
%TO.P,D5,2*%
%TO.N,GND*%
X59945000Y-52400000D03*
%TD*%
D10*
%TO.P,C2,1*%
%TO.N,V1*%
X60663900Y-66300000D03*
D11*
%TO.P,C2,2*%
%TO.N,GND*%
X68163900Y-66300000D03*
%TD*%
D14*
%TO.P,D3,1*%
%TO.N,V1*%
X67695000Y-46150000D03*
D15*
%TO.P,D3,2*%
%TO.N,/PH_C*%
X77855000Y-46150000D03*
%TD*%
D14*
%TO.P,D4,1*%
%TO.N,/PH_A*%
X31875000Y-52400000D03*
D15*
%TO.P,D4,2*%
%TO.N,GND*%
X42035000Y-52400000D03*
%TD*%
D14*
%TO.P,D2,1*%
%TO.N,V1*%
X49785000Y-46150000D03*
D15*
%TO.P,D2,2*%
%TO.N,/PH_B*%
X59945000Y-46150000D03*
%TD*%
D16*
%TO.P,R1,1*%
%TO.N,V1*%
X55669400Y-87850000D03*
%TO.P,R1,2*%
%TO.N,GND*%
X63289400Y-87850000D03*
%TD*%
D14*
%TO.P,D1,1*%
%TO.N,V1*%
X31875000Y-46150000D03*
D15*
%TO.P,D1,2*%
%TO.N,/PH_A*%
X42035000Y-46150000D03*
%TD*%
D17*
%TO.N,/PH_A*%
X35785000Y-52400000D02*
X31875000Y-52400000D01*
X31875000Y-52400000D02*
X29470900Y-49995900D01*
X42035000Y-46150000D02*
X35785000Y-52400000D01*
X29470900Y-49995900D02*
X29470900Y-44622800D01*
X29470900Y-44622800D02*
X39292000Y-34801700D01*
X39292000Y-34801700D02*
X40080000Y-34801700D01*
X40080000Y-32000000D02*
X40080000Y-34801700D01*
%TO.N,/PH_B*%
X30355300Y-54823400D02*
X27663400Y-52131500D01*
X27663400Y-39336600D02*
X35000000Y-32000000D01*
X59945000Y-46150000D02*
X53695000Y-52400000D01*
X47342700Y-49957700D02*
X41040800Y-49957700D01*
X53695000Y-52400000D02*
X49785000Y-52400000D01*
X49785000Y-52400000D02*
X47342700Y-49957700D01*
X27663400Y-52131500D02*
X27663400Y-39336600D01*
X41040800Y-49957700D02*
X36175100Y-54823400D01*
X36175100Y-54823400D02*
X30355300Y-54823400D01*
%TO.N,/PH_C*%
X71570500Y-48524500D02*
X71570500Y-46150000D01*
X71570500Y-46150000D02*
X77855000Y-46150000D01*
X32729400Y-29190600D02*
X29920000Y-32000000D01*
X71570500Y-46101800D02*
X54659300Y-29190600D01*
X67695000Y-52400000D02*
X71570500Y-48524500D01*
X54659300Y-29190600D02*
X32729400Y-29190600D01*
X71570500Y-46150000D02*
X71570500Y-46101800D01*
%TO.N,GND*%
X77855000Y-56608900D02*
X77855000Y-52400000D01*
X61155200Y-85715800D02*
X52633300Y-85715800D01*
X44449000Y-54814000D02*
X57531000Y-54814000D01*
X52633300Y-85715800D02*
X52633300Y-68830800D01*
X91140000Y-52400000D02*
X111540000Y-32000000D01*
X44449000Y-54814000D02*
X44449000Y-65920400D01*
X65633100Y-68830800D02*
X52633300Y-68830800D01*
X47359400Y-68830800D02*
X44449000Y-65920400D01*
X42035000Y-52400000D02*
X44449000Y-54814000D01*
X52633300Y-85715800D02*
X46203600Y-85715800D01*
X77855000Y-52400000D02*
X91140000Y-52400000D01*
X68163900Y-66300000D02*
X65633100Y-68830800D01*
X46203600Y-85715800D02*
X44069400Y-87850000D01*
X68163900Y-66300000D02*
X77855000Y-56608900D01*
X63289400Y-87850000D02*
X61155200Y-85715800D01*
X52633300Y-68830800D02*
X47359400Y-68830800D01*
X44449000Y-65920400D02*
X44069400Y-66300000D01*
X57531000Y-54814000D02*
X59945000Y-52400000D01*
%TO.N,V1*%
X55669400Y-87850000D02*
X53124800Y-90394600D01*
X34319700Y-43705300D02*
X49785000Y-43705300D01*
X103658300Y-32000000D02*
X86338600Y-49319700D01*
X67695000Y-46150000D02*
X65289500Y-48555500D01*
X36569400Y-87850000D02*
X36569400Y-66300000D01*
X49785000Y-43705300D02*
X65250300Y-43705300D01*
X65250300Y-43705300D02*
X67695000Y-46150000D01*
X65289500Y-48555500D02*
X65289500Y-54848600D01*
X31875000Y-46150000D02*
X34319700Y-43705300D01*
X74677400Y-49319700D02*
X69148500Y-54848600D01*
X106460000Y-32000000D02*
X103658300Y-32000000D01*
X39114000Y-90394600D02*
X36569400Y-87850000D01*
X49785000Y-43705300D02*
X49785000Y-46150000D01*
X69148500Y-54848600D02*
X65289500Y-54848600D01*
X53124800Y-90394600D02*
X39114000Y-90394600D01*
X65289500Y-54848600D02*
X60663900Y-59474200D01*
X86338600Y-49319700D02*
X74677400Y-49319700D01*
X60663900Y-59474200D02*
X60663900Y-66300000D01*
%TD*%
%TA.AperFunction,NonConductor*%
G36*
X123442539Y-20520185D02*
G01*
X123488294Y-20572989D01*
X123499500Y-20624500D01*
X123499500Y-123375500D01*
X123479815Y-123442539D01*
X123427011Y-123488294D01*
X123375500Y-123499500D01*
X20624500Y-123499500D01*
X20557461Y-123479815D01*
X20511706Y-123427011D01*
X20500500Y-123375500D01*
X20500500Y-39234248D01*
X26362900Y-39234248D01*
X26362900Y-52233851D01*
X26394922Y-52436035D01*
X26414938Y-52497634D01*
X26423688Y-52524565D01*
X26458180Y-52630719D01*
X26458181Y-52630720D01*
X26495789Y-52704532D01*
X26495791Y-52704534D01*
X26551113Y-52813111D01*
X26671434Y-52978719D01*
X26671436Y-52978721D01*
X29508086Y-55815371D01*
X29660746Y-55926283D01*
X29673690Y-55935687D01*
X29760983Y-55980165D01*
X29856076Y-56028618D01*
X29856078Y-56028618D01*
X29856081Y-56028620D01*
X29933636Y-56053819D01*
X30050765Y-56091877D01*
X30143299Y-56106533D01*
X30252948Y-56123900D01*
X30252949Y-56123900D01*
X36277451Y-56123900D01*
X36277452Y-56123900D01*
X36479635Y-56091877D01*
X36596761Y-56053820D01*
X36674319Y-56028620D01*
X36765514Y-55982153D01*
X36856711Y-55935687D01*
X37022319Y-55815366D01*
X39993829Y-52843854D01*
X40055150Y-52810371D01*
X40124842Y-52815355D01*
X40180775Y-52857227D01*
X40201283Y-52899443D01*
X40231498Y-53012207D01*
X40326830Y-53242361D01*
X40326837Y-53242376D01*
X40451400Y-53458126D01*
X40603060Y-53655774D01*
X40603066Y-53655781D01*
X40779218Y-53831933D01*
X40779225Y-53831939D01*
X40976873Y-53983599D01*
X41192623Y-54108162D01*
X41192638Y-54108169D01*
X41291825Y-54149253D01*
X41422793Y-54203502D01*
X41663435Y-54267982D01*
X41910435Y-54300500D01*
X42044953Y-54300500D01*
X42111992Y-54320185D01*
X42132634Y-54336819D01*
X43112181Y-55316365D01*
X43145666Y-55377688D01*
X43148500Y-55404046D01*
X43148500Y-64450112D01*
X43128815Y-64517151D01*
X43086500Y-64557499D01*
X42955596Y-64633075D01*
X42747548Y-64792718D01*
X42562118Y-64978148D01*
X42402475Y-65186196D01*
X42271358Y-65413299D01*
X42271353Y-65413309D01*
X42171005Y-65655571D01*
X42171002Y-65655581D01*
X42103130Y-65908885D01*
X42068900Y-66168872D01*
X42068900Y-66431127D01*
X42095523Y-66633339D01*
X42103130Y-66691116D01*
X42171002Y-66944418D01*
X42171005Y-66944428D01*
X42271353Y-67186690D01*
X42271358Y-67186700D01*
X42402475Y-67413803D01*
X42562118Y-67621851D01*
X42562126Y-67621860D01*
X42747540Y-67807274D01*
X42747548Y-67807281D01*
X42955596Y-67966924D01*
X43182699Y-68098041D01*
X43182709Y-68098046D01*
X43360461Y-68171673D01*
X43424981Y-68198398D01*
X43678284Y-68266270D01*
X43938280Y-68300500D01*
X43938287Y-68300500D01*
X44200513Y-68300500D01*
X44200520Y-68300500D01*
X44460516Y-68266270D01*
X44713819Y-68198398D01*
X44760305Y-68179142D01*
X44829770Y-68171673D01*
X44892250Y-68202946D01*
X44895437Y-68206022D01*
X46512181Y-69822766D01*
X46677789Y-69943087D01*
X46768985Y-69989553D01*
X46860181Y-70036020D01*
X46957523Y-70067648D01*
X47054865Y-70099277D01*
X47257048Y-70131300D01*
X51208800Y-70131300D01*
X51275839Y-70150985D01*
X51321594Y-70203789D01*
X51332800Y-70255300D01*
X51332800Y-84291300D01*
X51313115Y-84358339D01*
X51260311Y-84404094D01*
X51208800Y-84415300D01*
X46101248Y-84415300D01*
X46033854Y-84425974D01*
X45899064Y-84447323D01*
X45704384Y-84510577D01*
X45704381Y-84510578D01*
X45521986Y-84603515D01*
X45356386Y-84723828D01*
X45356382Y-84723832D01*
X45211631Y-84868584D01*
X44267033Y-85813181D01*
X44205710Y-85846666D01*
X44179352Y-85849500D01*
X43938272Y-85849500D01*
X43707172Y-85879926D01*
X43678284Y-85883730D01*
X43424981Y-85951602D01*
X43424971Y-85951605D01*
X43182709Y-86051953D01*
X43182699Y-86051958D01*
X42955596Y-86183075D01*
X42747548Y-86342718D01*
X42562118Y-86528148D01*
X42402475Y-86736196D01*
X42271358Y-86963299D01*
X42271353Y-86963309D01*
X42171005Y-87205571D01*
X42171002Y-87205581D01*
X42103130Y-87458885D01*
X42068900Y-87718872D01*
X42068900Y-87981127D01*
X42082103Y-88081407D01*
X42103130Y-88241116D01*
X42162954Y-88464383D01*
X42171002Y-88494418D01*
X42171005Y-88494428D01*
X42271353Y-88736690D01*
X42271358Y-88736700D01*
X42370316Y-88908100D01*
X42386789Y-88976000D01*
X42363936Y-89042027D01*
X42309015Y-89085218D01*
X42262929Y-89094100D01*
X39704046Y-89094100D01*
X39637007Y-89074415D01*
X39616365Y-89057781D01*
X38606218Y-88047634D01*
X38572733Y-87986311D01*
X38569899Y-87959953D01*
X38569899Y-86848397D01*
X38554700Y-86694068D01*
X38494629Y-86496041D01*
X38397086Y-86313551D01*
X38397084Y-86313549D01*
X38265810Y-86153589D01*
X38105850Y-86022315D01*
X38105848Y-86022313D01*
X37935447Y-85931232D01*
X37885602Y-85882270D01*
X37869900Y-85821874D01*
X37869900Y-68328125D01*
X37889585Y-68261086D01*
X37935447Y-68218767D01*
X37959292Y-68206022D01*
X38105850Y-68127685D01*
X38265810Y-67996410D01*
X38397085Y-67836450D01*
X38494631Y-67653954D01*
X38554700Y-67455933D01*
X38569900Y-67301607D01*
X38569899Y-65298394D01*
X38554700Y-65144067D01*
X38494631Y-64946046D01*
X38494629Y-64946043D01*
X38494629Y-64946041D01*
X38397086Y-64763551D01*
X38397084Y-64763549D01*
X38265810Y-64603589D01*
X38105850Y-64472315D01*
X38105848Y-64472313D01*
X37923358Y-64374770D01*
X37824343Y-64344734D01*
X37725333Y-64314700D01*
X37725331Y-64314699D01*
X37725333Y-64314699D01*
X37606664Y-64303012D01*
X37571007Y-64299500D01*
X37571003Y-64299500D01*
X35567797Y-64299500D01*
X35413468Y-64314699D01*
X35215441Y-64374770D01*
X35032951Y-64472313D01*
X35032949Y-64472315D01*
X34872989Y-64603589D01*
X34741715Y-64763549D01*
X34741713Y-64763551D01*
X34644170Y-64946041D01*
X34584099Y-65144068D01*
X34568900Y-65298396D01*
X34568900Y-67301602D01*
X34584099Y-67455931D01*
X34644170Y-67653958D01*
X34741713Y-67836448D01*
X34741715Y-67836450D01*
X34872989Y-67996410D01*
X35032949Y-68127684D01*
X35032951Y-68127686D01*
X35115246Y-68171673D01*
X35179508Y-68206022D01*
X35203353Y-68218767D01*
X35253197Y-68267729D01*
X35268900Y-68328125D01*
X35268900Y-85821874D01*
X35249215Y-85888913D01*
X35203353Y-85931232D01*
X35032951Y-86022313D01*
X35032949Y-86022315D01*
X34872989Y-86153589D01*
X34741715Y-86313549D01*
X34741713Y-86313551D01*
X34644170Y-86496041D01*
X34584099Y-86694068D01*
X34568900Y-86848396D01*
X34568900Y-88851602D01*
X34584099Y-89005931D01*
X34644170Y-89203958D01*
X34741713Y-89386448D01*
X34741715Y-89386450D01*
X34872989Y-89546410D01*
X35032949Y-89677684D01*
X35032951Y-89677686D01*
X35215441Y-89775229D01*
X35215443Y-89775229D01*
X35215446Y-89775231D01*
X35413467Y-89835300D01*
X35413466Y-89835300D01*
X35424370Y-89836373D01*
X35567793Y-89850500D01*
X36679352Y-89850499D01*
X36746391Y-89870184D01*
X36767033Y-89886818D01*
X38118908Y-91238692D01*
X38118922Y-91238707D01*
X38122033Y-91241818D01*
X38122034Y-91241819D01*
X38266781Y-91386566D01*
X38266784Y-91386568D01*
X38266787Y-91386571D01*
X38297597Y-91408955D01*
X38349585Y-91446726D01*
X38432389Y-91506887D01*
X38523585Y-91553353D01*
X38527929Y-91555566D01*
X38527930Y-91555567D01*
X38614780Y-91599820D01*
X38614786Y-91599822D01*
X38665147Y-91616184D01*
X38712121Y-91631447D01*
X38712122Y-91631448D01*
X38758974Y-91646671D01*
X38809465Y-91663077D01*
X38910557Y-91679088D01*
X39011648Y-91695100D01*
X39011649Y-91695100D01*
X53227151Y-91695100D01*
X53227152Y-91695100D01*
X53429335Y-91663077D01*
X53526676Y-91631448D01*
X53624019Y-91599820D01*
X53715214Y-91553353D01*
X53806411Y-91506887D01*
X53972019Y-91386566D01*
X55900809Y-89457773D01*
X55962130Y-89424290D01*
X55969049Y-89422989D01*
X56044185Y-89411090D01*
X56283779Y-89333241D01*
X56508245Y-89218870D01*
X56712056Y-89070793D01*
X56890193Y-88892656D01*
X57038270Y-88688845D01*
X57152641Y-88464379D01*
X57230490Y-88224785D01*
X57269900Y-87975962D01*
X57269900Y-87724038D01*
X57230490Y-87475215D01*
X57152641Y-87235621D01*
X57152639Y-87235618D01*
X57152638Y-87235613D01*
X57132757Y-87196594D01*
X57119861Y-87127924D01*
X57146138Y-87063184D01*
X57203245Y-87022928D01*
X57243242Y-87016300D01*
X60565153Y-87016300D01*
X60632192Y-87035985D01*
X60652834Y-87052619D01*
X61681623Y-88081407D01*
X61715108Y-88142730D01*
X61716415Y-88149689D01*
X61728309Y-88224782D01*
X61806160Y-88464381D01*
X61920532Y-88688848D01*
X62068601Y-88892649D01*
X62068605Y-88892654D01*
X62246745Y-89070794D01*
X62246750Y-89070798D01*
X62278823Y-89094100D01*
X62450555Y-89218870D01*
X62593584Y-89291747D01*
X62675016Y-89333239D01*
X62675018Y-89333239D01*
X62675021Y-89333241D01*
X62914615Y-89411090D01*
X63163438Y-89450500D01*
X63163439Y-89450500D01*
X63415361Y-89450500D01*
X63415362Y-89450500D01*
X63664185Y-89411090D01*
X63903779Y-89333241D01*
X64128245Y-89218870D01*
X64332056Y-89070793D01*
X64510193Y-88892656D01*
X64658270Y-88688845D01*
X64772641Y-88464379D01*
X64850490Y-88224785D01*
X64889900Y-87975962D01*
X64889900Y-87724038D01*
X64850490Y-87475215D01*
X64772641Y-87235621D01*
X64772639Y-87235618D01*
X64772639Y-87235616D01*
X64697826Y-87088789D01*
X64658270Y-87011155D01*
X64540019Y-86848396D01*
X64510198Y-86807350D01*
X64510194Y-86807345D01*
X64332054Y-86629205D01*
X64332049Y-86629201D01*
X64128248Y-86481132D01*
X64128247Y-86481131D01*
X64128245Y-86481130D01*
X63903779Y-86366759D01*
X63664185Y-86288910D01*
X63664183Y-86288909D01*
X63589089Y-86277015D01*
X63525954Y-86247085D01*
X63520807Y-86242223D01*
X62002421Y-84723836D01*
X62002420Y-84723835D01*
X62002419Y-84723834D01*
X61836811Y-84603513D01*
X61745614Y-84557046D01*
X61654423Y-84510581D01*
X61607715Y-84495404D01*
X61557076Y-84478951D01*
X61533203Y-84471194D01*
X61459735Y-84447322D01*
X61285195Y-84419678D01*
X61257552Y-84415300D01*
X61257551Y-84415300D01*
X54057800Y-84415300D01*
X53990761Y-84395615D01*
X53945006Y-84342811D01*
X53933800Y-84291300D01*
X53933800Y-70255300D01*
X53953485Y-70188261D01*
X54006289Y-70142506D01*
X54057800Y-70131300D01*
X65735451Y-70131300D01*
X65735452Y-70131300D01*
X65937635Y-70099277D01*
X66034976Y-70067648D01*
X66132319Y-70036020D01*
X66223514Y-69989553D01*
X66314711Y-69943087D01*
X66480319Y-69822766D01*
X67966265Y-68336818D01*
X68027588Y-68303334D01*
X68053946Y-68300500D01*
X68295013Y-68300500D01*
X68295020Y-68300500D01*
X68555016Y-68266270D01*
X68808319Y-68198398D01*
X69050597Y-68098043D01*
X69277703Y-67966924D01*
X69485751Y-67807282D01*
X69485755Y-67807277D01*
X69485760Y-67807274D01*
X69671174Y-67621860D01*
X69671177Y-67621855D01*
X69671182Y-67621851D01*
X69830824Y-67413803D01*
X69961943Y-67186697D01*
X70062298Y-66944419D01*
X70130170Y-66691116D01*
X70164400Y-66431120D01*
X70164400Y-66190046D01*
X70184085Y-66123007D01*
X70200719Y-66102365D01*
X72039903Y-64263181D01*
X78846966Y-57456119D01*
X78967287Y-57290511D01*
X79013753Y-57199314D01*
X79060220Y-57108119D01*
X79123477Y-56913434D01*
X79155500Y-56711252D01*
X79155500Y-53838576D01*
X79164144Y-53809135D01*
X79170668Y-53779149D01*
X79174422Y-53774133D01*
X79175185Y-53771537D01*
X79191819Y-53750895D01*
X79205895Y-53736819D01*
X79267218Y-53703334D01*
X79293576Y-53700500D01*
X91242351Y-53700500D01*
X91242352Y-53700500D01*
X91444535Y-53668477D01*
X91628262Y-53608780D01*
X91639219Y-53605220D01*
X91756381Y-53545523D01*
X91821611Y-53512287D01*
X91987219Y-53391966D01*
X111071572Y-34307610D01*
X111132893Y-34274127D01*
X111175432Y-34272354D01*
X111376408Y-34298813D01*
X111389201Y-34300498D01*
X111389217Y-34300500D01*
X111389224Y-34300500D01*
X111690776Y-34300500D01*
X111690783Y-34300500D01*
X111989768Y-34261138D01*
X112281058Y-34183087D01*
X112559668Y-34067683D01*
X112820832Y-33916900D01*
X113060080Y-33733319D01*
X113273319Y-33520080D01*
X113456900Y-33280832D01*
X113607683Y-33019668D01*
X113723087Y-32741058D01*
X113801138Y-32449768D01*
X113840500Y-32150783D01*
X113840500Y-31849217D01*
X113801138Y-31550232D01*
X113723087Y-31258942D01*
X113607683Y-30980332D01*
X113554209Y-30887713D01*
X113456900Y-30719168D01*
X113273320Y-30479921D01*
X113273314Y-30479914D01*
X113060085Y-30266685D01*
X113060078Y-30266679D01*
X112820831Y-30083099D01*
X112559671Y-29932318D01*
X112559661Y-29932314D01*
X112281060Y-29816913D01*
X111989766Y-29738861D01*
X111690793Y-29699501D01*
X111690788Y-29699500D01*
X111690783Y-29699500D01*
X111389217Y-29699500D01*
X111389211Y-29699500D01*
X111389206Y-29699501D01*
X111090233Y-29738861D01*
X110798939Y-29816913D01*
X110520338Y-29932314D01*
X110520328Y-29932318D01*
X110259168Y-30083099D01*
X110019921Y-30266679D01*
X110019914Y-30266685D01*
X109806685Y-30479914D01*
X109806679Y-30479921D01*
X109623099Y-30719168D01*
X109472318Y-30980328D01*
X109472314Y-30980338D01*
X109356913Y-31258939D01*
X109278861Y-31550233D01*
X109239501Y-31849206D01*
X109239500Y-31849223D01*
X109239500Y-32150776D01*
X109239501Y-32150793D01*
X109267644Y-32364562D01*
X109256878Y-32433597D01*
X109232386Y-32468428D01*
X108972181Y-32728634D01*
X108910858Y-32762119D01*
X108841167Y-32757135D01*
X108785233Y-32715264D01*
X108760816Y-32649799D01*
X108760500Y-32640953D01*
X108760500Y-30455043D01*
X108760499Y-30455039D01*
X108745369Y-30320750D01*
X108745368Y-30320745D01*
X108685789Y-30150478D01*
X108589816Y-29997738D01*
X108462262Y-29870184D01*
X108377482Y-29816913D01*
X108309523Y-29774211D01*
X108139254Y-29714631D01*
X108139249Y-29714630D01*
X108004960Y-29699500D01*
X108004954Y-29699500D01*
X104915046Y-29699500D01*
X104915039Y-29699500D01*
X104780750Y-29714630D01*
X104780745Y-29714631D01*
X104610476Y-29774211D01*
X104457737Y-29870184D01*
X104330184Y-29997737D01*
X104234211Y-30150476D01*
X104174631Y-30320745D01*
X104174630Y-30320750D01*
X104159500Y-30455039D01*
X104159500Y-30575500D01*
X104139815Y-30642539D01*
X104087011Y-30688294D01*
X104035500Y-30699500D01*
X103555948Y-30699500D01*
X103488554Y-30710174D01*
X103353764Y-30731523D01*
X103159084Y-30794777D01*
X103159081Y-30794778D01*
X102976686Y-30887715D01*
X102811086Y-31008028D01*
X102811082Y-31008032D01*
X85836234Y-47982881D01*
X85774911Y-48016366D01*
X85748553Y-48019200D01*
X78881226Y-48019200D01*
X78814187Y-47999515D01*
X78768432Y-47946711D01*
X78758488Y-47877553D01*
X78787513Y-47813997D01*
X78819226Y-47787813D01*
X78863109Y-47762476D01*
X78913127Y-47733599D01*
X79110776Y-47581938D01*
X79286938Y-47405776D01*
X79438599Y-47208127D01*
X79563164Y-46992373D01*
X79658502Y-46762207D01*
X79722982Y-46521565D01*
X79755500Y-46274565D01*
X79755500Y-46025435D01*
X79722982Y-45778435D01*
X79658502Y-45537793D01*
X79563164Y-45307627D01*
X79438599Y-45091873D01*
X79383220Y-45019701D01*
X79286939Y-44894225D01*
X79286933Y-44894218D01*
X79110781Y-44718066D01*
X79110774Y-44718060D01*
X78913126Y-44566400D01*
X78697376Y-44441837D01*
X78697361Y-44441830D01*
X78467207Y-44346498D01*
X78226561Y-44282017D01*
X77979575Y-44249501D01*
X77979570Y-44249500D01*
X77979565Y-44249500D01*
X77730435Y-44249500D01*
X77730429Y-44249500D01*
X77730424Y-44249501D01*
X77483438Y-44282017D01*
X77242792Y-44346498D01*
X77012638Y-44441830D01*
X77012623Y-44441837D01*
X76796873Y-44566400D01*
X76599226Y-44718059D01*
X76551666Y-44765620D01*
X76504103Y-44813182D01*
X76442783Y-44846666D01*
X76416424Y-44849500D01*
X72208747Y-44849500D01*
X72141708Y-44829815D01*
X72121066Y-44813181D01*
X55506521Y-28198636D01*
X55506519Y-28198634D01*
X55340911Y-28078313D01*
X55249714Y-28031846D01*
X55158523Y-27985381D01*
X55111815Y-27970204D01*
X55061176Y-27953751D01*
X55037303Y-27945994D01*
X54963835Y-27922122D01*
X54789295Y-27894478D01*
X54761652Y-27890100D01*
X32627048Y-27890100D01*
X32559654Y-27900774D01*
X32424864Y-27922123D01*
X32230184Y-27985377D01*
X32230181Y-27985378D01*
X32047786Y-28078315D01*
X31882186Y-28198628D01*
X31882182Y-28198632D01*
X31737431Y-28343384D01*
X30388428Y-29692386D01*
X30327105Y-29725871D01*
X30284562Y-29727644D01*
X30070793Y-29699501D01*
X30070788Y-29699500D01*
X30070783Y-29699500D01*
X29769217Y-29699500D01*
X29769211Y-29699500D01*
X29769206Y-29699501D01*
X29470233Y-29738861D01*
X29178939Y-29816913D01*
X28900338Y-29932314D01*
X28900328Y-29932318D01*
X28639168Y-30083099D01*
X28399921Y-30266679D01*
X28399914Y-30266685D01*
X28186685Y-30479914D01*
X28186679Y-30479921D01*
X28003099Y-30719168D01*
X27852318Y-30980328D01*
X27852314Y-30980338D01*
X27736913Y-31258939D01*
X27658861Y-31550233D01*
X27619501Y-31849206D01*
X27619500Y-31849223D01*
X27619500Y-32150776D01*
X27619501Y-32150793D01*
X27658861Y-32449766D01*
X27736913Y-32741060D01*
X27852314Y-33019661D01*
X27852318Y-33019671D01*
X28003099Y-33280831D01*
X28186679Y-33520078D01*
X28186685Y-33520085D01*
X28399914Y-33733314D01*
X28399921Y-33733320D01*
X28639168Y-33916900D01*
X28900328Y-34067681D01*
X28900329Y-34067681D01*
X28900332Y-34067683D01*
X29086072Y-34144619D01*
X29178939Y-34183086D01*
X29178940Y-34183086D01*
X29178942Y-34183087D01*
X29470232Y-34261138D01*
X29769217Y-34300500D01*
X29769224Y-34300500D01*
X30070776Y-34300500D01*
X30070783Y-34300500D01*
X30369768Y-34261138D01*
X30646633Y-34186952D01*
X30716480Y-34188615D01*
X30774343Y-34227777D01*
X30801847Y-34292006D01*
X30790261Y-34360908D01*
X30766405Y-34394408D01*
X26671436Y-38489378D01*
X26551113Y-38654988D01*
X26504646Y-38746185D01*
X26504645Y-38746184D01*
X26458179Y-38837381D01*
X26458179Y-38837382D01*
X26394923Y-39032061D01*
X26394923Y-39032064D01*
X26362900Y-39234248D01*
X20500500Y-39234248D01*
X20500500Y-20624500D01*
X20520185Y-20557461D01*
X20572989Y-20511706D01*
X20624500Y-20500500D01*
X123375500Y-20500500D01*
X123442539Y-20520185D01*
G37*
%TD.AperFunction*%
%TA.AperFunction,NonConductor*%
G36*
X32736607Y-31125089D02*
G01*
X32792540Y-31166961D01*
X32816957Y-31232425D01*
X32813048Y-31273364D01*
X32738861Y-31550233D01*
X32699501Y-31849206D01*
X32699500Y-31849223D01*
X32699500Y-32150776D01*
X32699501Y-32150793D01*
X32727644Y-32364561D01*
X32716878Y-32433596D01*
X32692386Y-32468427D01*
X32314408Y-32846405D01*
X32253085Y-32879890D01*
X32183393Y-32874906D01*
X32127460Y-32833034D01*
X32103043Y-32767570D01*
X32106951Y-32726635D01*
X32181138Y-32449768D01*
X32220500Y-32150783D01*
X32220500Y-31849217D01*
X32192354Y-31635434D01*
X32203119Y-31566402D01*
X32227609Y-31531573D01*
X32605594Y-31153588D01*
X32666915Y-31120105D01*
X32736607Y-31125089D01*
G37*
%TD.AperFunction*%
%TA.AperFunction,NonConductor*%
G36*
X54136292Y-30510785D02*
G01*
X54156934Y-30527419D01*
X65970836Y-42341321D01*
X66004321Y-42402644D01*
X65999337Y-42472336D01*
X65957465Y-42528269D01*
X65892001Y-42552686D01*
X65826860Y-42539487D01*
X65749523Y-42500081D01*
X65702815Y-42484904D01*
X65652176Y-42468451D01*
X65628303Y-42460694D01*
X65554835Y-42436822D01*
X65366870Y-42407052D01*
X65352652Y-42404800D01*
X49887352Y-42404800D01*
X34422052Y-42404800D01*
X34217348Y-42404800D01*
X34203130Y-42407052D01*
X34015163Y-42436823D01*
X33917823Y-42468450D01*
X33917823Y-42468451D01*
X33865052Y-42485597D01*
X33820474Y-42500082D01*
X33729284Y-42546546D01*
X33729251Y-42546563D01*
X33727609Y-42547399D01*
X33658935Y-42560274D01*
X33594203Y-42533978D01*
X33553964Y-42476859D01*
X33550993Y-42407052D01*
X33583665Y-42349218D01*
X39794365Y-36138519D01*
X39855688Y-36105034D01*
X39882046Y-36102200D01*
X40182351Y-36102200D01*
X40182352Y-36102200D01*
X40384534Y-36070177D01*
X40579219Y-36006920D01*
X40761610Y-35913987D01*
X40854590Y-35846432D01*
X40927213Y-35793671D01*
X40927215Y-35793668D01*
X40927219Y-35793666D01*
X41071966Y-35648919D01*
X41071968Y-35648915D01*
X41071971Y-35648913D01*
X41124732Y-35576290D01*
X41192287Y-35483310D01*
X41285220Y-35300919D01*
X41348477Y-35106234D01*
X41380500Y-34904052D01*
X41380500Y-34424500D01*
X41400185Y-34357461D01*
X41452989Y-34311706D01*
X41504500Y-34300500D01*
X41624957Y-34300500D01*
X41624958Y-34300499D01*
X41700341Y-34292006D01*
X41759249Y-34285369D01*
X41759252Y-34285368D01*
X41759255Y-34285368D01*
X41929522Y-34225789D01*
X42082262Y-34129816D01*
X42209816Y-34002262D01*
X42305789Y-33849522D01*
X42365368Y-33679255D01*
X42380500Y-33544954D01*
X42380500Y-30615100D01*
X42400185Y-30548061D01*
X42452989Y-30502306D01*
X42504500Y-30491100D01*
X54069253Y-30491100D01*
X54136292Y-30510785D01*
G37*
%TD.AperFunction*%
%TA.AperFunction,NonConductor*%
G36*
X37722539Y-30510785D02*
G01*
X37768294Y-30563589D01*
X37779500Y-30615100D01*
X37779500Y-33544960D01*
X37794630Y-33679249D01*
X37794631Y-33679254D01*
X37854211Y-33849523D01*
X37950184Y-34002262D01*
X38013537Y-34065615D01*
X38047022Y-34126938D01*
X38042038Y-34196630D01*
X38013537Y-34240977D01*
X29175581Y-43078934D01*
X29114258Y-43112419D01*
X29044566Y-43107435D01*
X28988633Y-43065563D01*
X28964216Y-43000099D01*
X28963900Y-42991253D01*
X28963900Y-39926646D01*
X28983585Y-39859607D01*
X29000214Y-39838970D01*
X34531573Y-34307610D01*
X34592894Y-34274127D01*
X34635433Y-34272354D01*
X34836813Y-34298866D01*
X34849201Y-34300498D01*
X34849217Y-34300500D01*
X34849224Y-34300500D01*
X35150776Y-34300500D01*
X35150783Y-34300500D01*
X35449768Y-34261138D01*
X35741058Y-34183087D01*
X36019668Y-34067683D01*
X36280832Y-33916900D01*
X36520080Y-33733319D01*
X36733319Y-33520080D01*
X36916900Y-33280832D01*
X37067683Y-33019668D01*
X37183087Y-32741058D01*
X37261138Y-32449768D01*
X37300500Y-32150783D01*
X37300500Y-31849217D01*
X37261138Y-31550232D01*
X37183087Y-31258942D01*
X37067683Y-30980332D01*
X37014211Y-30887715D01*
X36916901Y-30719169D01*
X36894968Y-30690585D01*
X36869775Y-30625416D01*
X36883814Y-30556971D01*
X36932628Y-30506982D01*
X36993345Y-30491100D01*
X37655500Y-30491100D01*
X37722539Y-30510785D01*
G37*
%TD.AperFunction*%
%TA.AperFunction,NonConductor*%
G36*
X76445863Y-47459144D02*
G01*
X76475851Y-47465668D01*
X76480866Y-47469422D01*
X76483463Y-47470185D01*
X76504100Y-47486814D01*
X76591786Y-47574500D01*
X76599226Y-47581940D01*
X76796873Y-47733599D01*
X76890774Y-47787813D01*
X76938990Y-47838380D01*
X76952213Y-47906987D01*
X76926245Y-47971852D01*
X76869331Y-48012380D01*
X76828774Y-48019200D01*
X74575048Y-48019200D01*
X74556530Y-48022133D01*
X74372865Y-48051222D01*
X74178176Y-48114481D01*
X73995789Y-48207413D01*
X73965817Y-48229189D01*
X73935844Y-48250966D01*
X73935843Y-48250967D01*
X73830184Y-48327730D01*
X73830182Y-48327732D01*
X72956918Y-49200995D01*
X72895595Y-49234480D01*
X72825903Y-49229496D01*
X72769970Y-49187624D01*
X72745553Y-49122160D01*
X72758753Y-49057018D01*
X72775721Y-49023718D01*
X72838977Y-48829034D01*
X72871000Y-48626851D01*
X72871000Y-48422148D01*
X72871000Y-47574500D01*
X72890685Y-47507461D01*
X72943489Y-47461706D01*
X72995000Y-47450500D01*
X76416424Y-47450500D01*
X76445863Y-47459144D01*
G37*
%TD.AperFunction*%
%TA.AperFunction,NonConductor*%
G36*
X69800702Y-46171633D02*
G01*
X69807180Y-46177665D01*
X70233681Y-46604166D01*
X70267166Y-46665489D01*
X70270000Y-46691847D01*
X70270000Y-47934452D01*
X70250315Y-48001491D01*
X70233681Y-48022133D01*
X67792632Y-50463181D01*
X67731309Y-50496666D01*
X67704951Y-50499500D01*
X66793395Y-50499500D01*
X66726153Y-50506123D01*
X66657507Y-50493104D01*
X66606797Y-50445038D01*
X66590000Y-50382720D01*
X66590000Y-49145545D01*
X66609685Y-49078506D01*
X66626314Y-49057868D01*
X67597365Y-48086817D01*
X67658688Y-48053333D01*
X67685046Y-48050499D01*
X68596605Y-48050499D01*
X68596608Y-48050499D01*
X68750935Y-48035300D01*
X68948955Y-47975232D01*
X69131451Y-47877685D01*
X69291410Y-47746410D01*
X69422685Y-47586451D01*
X69520232Y-47403955D01*
X69580300Y-47205935D01*
X69595500Y-47051609D01*
X69595499Y-46265345D01*
X69615183Y-46198307D01*
X69667987Y-46152552D01*
X69737146Y-46142608D01*
X69800702Y-46171633D01*
G37*
%TD.AperFunction*%
%TA.AperFunction,NonConductor*%
G36*
X104087484Y-33512513D02*
G01*
X104143417Y-33554385D01*
X104167370Y-33614811D01*
X104174630Y-33679250D01*
X104174631Y-33679254D01*
X104234211Y-33849523D01*
X104276547Y-33916900D01*
X104330184Y-34002262D01*
X104457738Y-34129816D01*
X104610478Y-34225789D01*
X104653883Y-34240977D01*
X104780745Y-34285368D01*
X104780750Y-34285369D01*
X104871246Y-34295565D01*
X104915040Y-34300499D01*
X104915043Y-34300500D01*
X104915046Y-34300500D01*
X107100954Y-34300500D01*
X107167993Y-34320185D01*
X107213748Y-34372989D01*
X107223692Y-34442147D01*
X107194667Y-34505703D01*
X107188635Y-34512180D01*
X98709562Y-42991253D01*
X90637634Y-51063181D01*
X90576311Y-51096666D01*
X90549953Y-51099500D01*
X79293576Y-51099500D01*
X79226537Y-51079815D01*
X79205899Y-51063185D01*
X79110776Y-50968062D01*
X79110775Y-50968061D01*
X79110773Y-50968059D01*
X78947239Y-50842576D01*
X78906036Y-50786148D01*
X78901881Y-50716402D01*
X78936093Y-50655482D01*
X78997810Y-50622729D01*
X79022725Y-50620200D01*
X86440951Y-50620200D01*
X86440952Y-50620200D01*
X86643135Y-50588177D01*
X86740476Y-50556548D01*
X86837819Y-50524920D01*
X86929014Y-50478453D01*
X87020211Y-50431987D01*
X87185819Y-50311666D01*
X103956471Y-33541012D01*
X104017792Y-33507529D01*
X104087484Y-33512513D01*
G37*
%TD.AperFunction*%
%TA.AperFunction,NonConductor*%
G36*
X47786077Y-45010057D02*
G01*
X47801172Y-45009383D01*
X47818922Y-45019701D01*
X47838619Y-45025485D01*
X47848512Y-45036902D01*
X47861577Y-45044497D01*
X47870931Y-45062775D01*
X47884374Y-45078289D01*
X47887031Y-45094234D01*
X47893408Y-45106695D01*
X47894983Y-45141953D01*
X47894983Y-45141954D01*
X47884500Y-45248394D01*
X47884500Y-47051604D01*
X47899699Y-47205932D01*
X47899700Y-47205935D01*
X47959768Y-47403955D01*
X48054903Y-47581939D01*
X48057317Y-47586454D01*
X48188589Y-47746410D01*
X48348388Y-47877553D01*
X48348549Y-47877685D01*
X48531045Y-47975232D01*
X48729065Y-48035300D01*
X48729064Y-48035300D01*
X48739968Y-48036373D01*
X48883391Y-48050500D01*
X50686608Y-48050499D01*
X50840935Y-48035300D01*
X51038955Y-47975232D01*
X51221451Y-47877685D01*
X51381410Y-47746410D01*
X51512685Y-47586451D01*
X51610232Y-47403955D01*
X51670300Y-47205935D01*
X51685500Y-47051609D01*
X51685499Y-45248392D01*
X51675016Y-45141952D01*
X51688035Y-45073307D01*
X51736100Y-45022597D01*
X51798419Y-45005800D01*
X58196321Y-45005800D01*
X58263360Y-45025485D01*
X58309115Y-45078289D01*
X58319059Y-45147447D01*
X58303708Y-45191800D01*
X58236837Y-45307623D01*
X58236830Y-45307638D01*
X58141498Y-45537792D01*
X58077017Y-45778438D01*
X58044501Y-46025424D01*
X58044500Y-46025441D01*
X58044500Y-46159953D01*
X58024815Y-46226992D01*
X58008181Y-46247634D01*
X53192634Y-51063181D01*
X53131311Y-51096666D01*
X53104953Y-51099500D01*
X51659675Y-51099500D01*
X51592636Y-51079815D01*
X51550318Y-51033955D01*
X51512685Y-50963549D01*
X51512682Y-50963545D01*
X51381410Y-50803589D01*
X51221454Y-50672317D01*
X51221452Y-50672316D01*
X51221451Y-50672315D01*
X51038955Y-50574768D01*
X50840935Y-50514700D01*
X50840933Y-50514699D01*
X50840935Y-50514699D01*
X50721806Y-50502966D01*
X50686609Y-50499500D01*
X50686606Y-50499500D01*
X49775046Y-50499500D01*
X49708007Y-50479815D01*
X49687365Y-50463181D01*
X48189921Y-48965736D01*
X48189920Y-48965735D01*
X48189919Y-48965734D01*
X48024311Y-48845413D01*
X47933114Y-48798946D01*
X47841923Y-48752481D01*
X47795215Y-48737304D01*
X47744576Y-48720851D01*
X47720703Y-48713094D01*
X47647235Y-48689222D01*
X47472695Y-48661578D01*
X47445052Y-48657200D01*
X47445051Y-48657200D01*
X41666346Y-48657200D01*
X41599307Y-48637515D01*
X41553552Y-48584711D01*
X41543608Y-48515553D01*
X41572633Y-48451997D01*
X41578665Y-48445519D01*
X41937365Y-48086819D01*
X41998688Y-48053334D01*
X42025046Y-48050500D01*
X42159558Y-48050500D01*
X42159565Y-48050500D01*
X42406565Y-48017982D01*
X42647207Y-47953502D01*
X42877373Y-47858164D01*
X43093127Y-47733599D01*
X43290776Y-47581938D01*
X43466938Y-47405776D01*
X43618599Y-47208127D01*
X43743164Y-46992373D01*
X43838502Y-46762207D01*
X43902982Y-46521565D01*
X43935500Y-46274565D01*
X43935500Y-46025435D01*
X43902982Y-45778435D01*
X43838502Y-45537793D01*
X43743164Y-45307627D01*
X43708965Y-45248392D01*
X43676292Y-45191800D01*
X43659819Y-45123899D01*
X43682672Y-45057872D01*
X43737593Y-45014682D01*
X43783679Y-45005800D01*
X47771580Y-45005800D01*
X47786077Y-45010057D01*
G37*
%TD.AperFunction*%
%TA.AperFunction,NonConductor*%
G36*
X40353360Y-45025485D02*
G01*
X40399115Y-45078289D01*
X40409059Y-45147447D01*
X40393708Y-45191800D01*
X40326837Y-45307623D01*
X40326830Y-45307638D01*
X40231498Y-45537792D01*
X40167017Y-45778438D01*
X40134501Y-46025424D01*
X40134500Y-46025441D01*
X40134500Y-46159953D01*
X40114815Y-46226992D01*
X40098181Y-46247634D01*
X35282634Y-51063181D01*
X35221311Y-51096666D01*
X35194953Y-51099500D01*
X33749675Y-51099500D01*
X33682636Y-51079815D01*
X33640318Y-51033955D01*
X33602685Y-50963549D01*
X33602682Y-50963545D01*
X33471410Y-50803589D01*
X33311454Y-50672317D01*
X33311452Y-50672316D01*
X33311451Y-50672315D01*
X33128955Y-50574768D01*
X32930935Y-50514700D01*
X32930933Y-50514699D01*
X32930935Y-50514699D01*
X32811806Y-50502966D01*
X32776609Y-50499500D01*
X32776606Y-50499500D01*
X31865046Y-50499500D01*
X31798007Y-50479815D01*
X31777365Y-50463181D01*
X30807719Y-49493534D01*
X30774234Y-49432211D01*
X30771400Y-49405853D01*
X30771400Y-48167418D01*
X30791085Y-48100379D01*
X30843889Y-48054624D01*
X30907552Y-48044015D01*
X30973391Y-48050500D01*
X32776608Y-48050499D01*
X32930935Y-48035300D01*
X33128955Y-47975232D01*
X33311451Y-47877685D01*
X33471410Y-47746410D01*
X33602685Y-47586451D01*
X33700232Y-47403955D01*
X33760300Y-47205935D01*
X33775500Y-47051609D01*
X33775499Y-46140045D01*
X33795183Y-46073007D01*
X33811813Y-46052370D01*
X34822066Y-45042119D01*
X34883389Y-45008634D01*
X34909747Y-45005800D01*
X40286321Y-45005800D01*
X40353360Y-45025485D01*
G37*
%TD.AperFunction*%
%TA.AperFunction,NonConductor*%
G36*
X46819692Y-51277885D02*
G01*
X46840334Y-51294519D01*
X47848181Y-52302365D01*
X47881666Y-52363688D01*
X47884500Y-52390046D01*
X47884500Y-53301604D01*
X47891960Y-53377347D01*
X47878940Y-53445993D01*
X47830875Y-53496703D01*
X47768557Y-53513500D01*
X45039046Y-53513500D01*
X44972007Y-53493815D01*
X44951365Y-53477181D01*
X43971819Y-52497634D01*
X43938334Y-52436311D01*
X43935500Y-52409953D01*
X43935500Y-52275441D01*
X43935500Y-52275435D01*
X43902982Y-52028435D01*
X43838502Y-51787793D01*
X43784253Y-51656825D01*
X43743169Y-51557638D01*
X43743166Y-51557632D01*
X43743164Y-51557627D01*
X43677676Y-51444199D01*
X43661204Y-51376300D01*
X43684057Y-51310273D01*
X43738978Y-51267082D01*
X43785064Y-51258200D01*
X46752653Y-51258200D01*
X46819692Y-51277885D01*
G37*
%TD.AperFunction*%
%TA.AperFunction,NonConductor*%
G36*
X76716038Y-50628645D02*
G01*
X76745403Y-50634669D01*
X76749209Y-50638386D01*
X76754314Y-50639885D01*
X76773940Y-50662535D01*
X76795393Y-50683483D01*
X76796586Y-50688669D01*
X76800069Y-50692689D01*
X76804334Y-50722353D01*
X76811056Y-50751574D01*
X76809255Y-50756581D01*
X76810013Y-50761847D01*
X76797559Y-50789115D01*
X76787419Y-50817324D01*
X76782268Y-50822598D01*
X76780988Y-50825403D01*
X76762761Y-50842576D01*
X76599225Y-50968060D01*
X76599218Y-50968066D01*
X76423066Y-51144218D01*
X76423060Y-51144225D01*
X76271400Y-51341873D01*
X76146837Y-51557623D01*
X76146830Y-51557638D01*
X76051498Y-51787792D01*
X75987017Y-52028438D01*
X75954501Y-52275424D01*
X75954500Y-52275441D01*
X75954500Y-52524564D01*
X75987017Y-52771561D01*
X76051498Y-53012207D01*
X76146830Y-53242361D01*
X76146837Y-53242376D01*
X76271400Y-53458126D01*
X76423059Y-53655773D01*
X76423060Y-53655774D01*
X76423062Y-53655776D01*
X76518182Y-53750896D01*
X76551666Y-53812217D01*
X76554500Y-53838576D01*
X76554500Y-56018852D01*
X76534815Y-56085891D01*
X76518181Y-56106533D01*
X68361533Y-64263181D01*
X68300210Y-64296666D01*
X68273852Y-64299500D01*
X68032772Y-64299500D01*
X67801672Y-64329926D01*
X67772784Y-64333730D01*
X67519481Y-64401602D01*
X67519471Y-64401605D01*
X67277209Y-64501953D01*
X67277199Y-64501958D01*
X67050096Y-64633075D01*
X66842048Y-64792718D01*
X66656618Y-64978148D01*
X66496975Y-65186196D01*
X66365858Y-65413299D01*
X66365853Y-65413309D01*
X66265505Y-65655571D01*
X66265502Y-65655581D01*
X66197630Y-65908885D01*
X66163400Y-66168872D01*
X66163400Y-66409952D01*
X66143715Y-66476991D01*
X66127081Y-66497633D01*
X65130734Y-67493981D01*
X65069411Y-67527466D01*
X65043053Y-67530300D01*
X62778689Y-67530300D01*
X62711650Y-67510615D01*
X62665895Y-67457811D01*
X62655286Y-67394147D01*
X62657909Y-67367502D01*
X62664400Y-67301607D01*
X62664399Y-65298394D01*
X62649200Y-65144067D01*
X62589131Y-64946046D01*
X62589129Y-64946043D01*
X62589129Y-64946041D01*
X62491586Y-64763551D01*
X62491584Y-64763549D01*
X62360310Y-64603589D01*
X62200350Y-64472315D01*
X62200348Y-64472313D01*
X62029947Y-64381232D01*
X61980102Y-64332270D01*
X61964400Y-64271874D01*
X61964400Y-60064247D01*
X61984085Y-59997208D01*
X62000719Y-59976566D01*
X65791866Y-56185419D01*
X65853189Y-56151934D01*
X65879547Y-56149100D01*
X69250851Y-56149100D01*
X69250852Y-56149100D01*
X69453035Y-56117077D01*
X69559522Y-56082477D01*
X69647719Y-56053820D01*
X69738914Y-56007353D01*
X69830111Y-55960887D01*
X69995719Y-55840566D01*
X75179766Y-50656519D01*
X75241089Y-50623034D01*
X75267447Y-50620200D01*
X76687275Y-50620200D01*
X76716038Y-50628645D01*
G37*
%TD.AperFunction*%
%TA.AperFunction,NonConductor*%
G36*
X64727292Y-45025485D02*
G01*
X64747934Y-45042119D01*
X65758181Y-46052366D01*
X65772884Y-46079293D01*
X65789477Y-46105112D01*
X65790368Y-46111312D01*
X65791666Y-46113689D01*
X65794500Y-46140046D01*
X65794500Y-46159953D01*
X65774815Y-46226992D01*
X65758181Y-46247634D01*
X64297536Y-47708278D01*
X64297531Y-47708284D01*
X64177215Y-47873885D01*
X64177207Y-47873898D01*
X64175281Y-47877680D01*
X64175279Y-47877685D01*
X64084281Y-48056276D01*
X64021022Y-48250965D01*
X63989000Y-48453148D01*
X63989000Y-54258553D01*
X63969315Y-54325592D01*
X63952681Y-54346234D01*
X59671936Y-58626978D01*
X59551613Y-58792588D01*
X59505146Y-58883785D01*
X59505145Y-58883784D01*
X59458679Y-58974981D01*
X59458679Y-58974982D01*
X59395423Y-59169661D01*
X59395423Y-59169664D01*
X59363400Y-59371848D01*
X59363400Y-64271874D01*
X59343715Y-64338913D01*
X59297853Y-64381232D01*
X59127451Y-64472313D01*
X59127449Y-64472315D01*
X58967489Y-64603589D01*
X58836215Y-64763549D01*
X58836213Y-64763551D01*
X58738670Y-64946041D01*
X58678599Y-65144068D01*
X58663400Y-65298396D01*
X58663400Y-67301602D01*
X58672515Y-67394147D01*
X58659496Y-67462793D01*
X58611430Y-67513503D01*
X58549112Y-67530300D01*
X47949447Y-67530300D01*
X47882408Y-67510615D01*
X47861766Y-67493981D01*
X45945946Y-65578161D01*
X45919066Y-65537932D01*
X45867448Y-65413314D01*
X45867445Y-65413308D01*
X45867443Y-65413303D01*
X45801103Y-65298397D01*
X45766113Y-65237791D01*
X45749500Y-65175792D01*
X45749500Y-56238500D01*
X45769185Y-56171461D01*
X45821989Y-56125706D01*
X45873500Y-56114500D01*
X57633351Y-56114500D01*
X57633352Y-56114500D01*
X57835535Y-56082477D01*
X57932876Y-56050848D01*
X58030219Y-56019220D01*
X58144704Y-55960887D01*
X58212611Y-55926287D01*
X58378219Y-55805966D01*
X59847365Y-54336818D01*
X59908688Y-54303334D01*
X59935046Y-54300500D01*
X60069558Y-54300500D01*
X60069565Y-54300500D01*
X60316565Y-54267982D01*
X60557207Y-54203502D01*
X60787373Y-54108164D01*
X61003127Y-53983599D01*
X61200776Y-53831938D01*
X61376938Y-53655776D01*
X61528599Y-53458127D01*
X61653164Y-53242373D01*
X61748502Y-53012207D01*
X61812982Y-52771565D01*
X61845500Y-52524565D01*
X61845500Y-52275435D01*
X61812982Y-52028435D01*
X61748502Y-51787793D01*
X61694253Y-51656825D01*
X61653169Y-51557638D01*
X61653162Y-51557623D01*
X61528599Y-51341873D01*
X61376939Y-51144225D01*
X61376933Y-51144218D01*
X61200781Y-50968066D01*
X61200774Y-50968060D01*
X61003126Y-50816400D01*
X60787376Y-50691837D01*
X60787361Y-50691830D01*
X60557207Y-50596498D01*
X60316561Y-50532017D01*
X60069575Y-50499501D01*
X60069570Y-50499500D01*
X60069565Y-50499500D01*
X59820435Y-50499500D01*
X59820429Y-50499500D01*
X59820424Y-50499501D01*
X59573438Y-50532017D01*
X59332792Y-50596498D01*
X59102638Y-50691830D01*
X59102623Y-50691837D01*
X58886873Y-50816400D01*
X58689225Y-50968060D01*
X58689218Y-50968066D01*
X58513066Y-51144218D01*
X58513060Y-51144225D01*
X58361400Y-51341873D01*
X58236837Y-51557623D01*
X58236830Y-51557638D01*
X58141498Y-51787792D01*
X58077017Y-52028438D01*
X58044501Y-52275424D01*
X58044500Y-52275441D01*
X58044500Y-52409953D01*
X58024815Y-52476992D01*
X58008181Y-52497634D01*
X57028634Y-53477181D01*
X56967311Y-53510666D01*
X56940953Y-53513500D01*
X54720047Y-53513500D01*
X54653008Y-53493815D01*
X54607253Y-53441011D01*
X54597309Y-53371853D01*
X54626334Y-53308297D01*
X54632366Y-53301819D01*
X59847365Y-48086819D01*
X59908688Y-48053334D01*
X59935046Y-48050500D01*
X60069558Y-48050500D01*
X60069565Y-48050500D01*
X60316565Y-48017982D01*
X60557207Y-47953502D01*
X60787373Y-47858164D01*
X61003127Y-47733599D01*
X61200776Y-47581938D01*
X61376938Y-47405776D01*
X61528599Y-47208127D01*
X61653164Y-46992373D01*
X61748502Y-46762207D01*
X61812982Y-46521565D01*
X61845500Y-46274565D01*
X61845500Y-46025435D01*
X61812982Y-45778435D01*
X61748502Y-45537793D01*
X61653164Y-45307627D01*
X61618965Y-45248392D01*
X61586292Y-45191800D01*
X61569819Y-45123899D01*
X61592672Y-45057872D01*
X61647593Y-45014682D01*
X61693679Y-45005800D01*
X64660253Y-45005800D01*
X64727292Y-45025485D01*
G37*
%TD.AperFunction*%
%TA.AperFunction,NonConductor*%
G36*
X54162597Y-87035985D02*
G01*
X54208352Y-87088789D01*
X54218296Y-87157947D01*
X54206043Y-87196594D01*
X54186161Y-87235615D01*
X54108309Y-87475216D01*
X54096415Y-87550310D01*
X54066485Y-87613444D01*
X54061623Y-87618591D01*
X52622434Y-89057781D01*
X52561111Y-89091266D01*
X52534753Y-89094100D01*
X45875871Y-89094100D01*
X45808832Y-89074415D01*
X45763077Y-89021611D01*
X45753133Y-88952453D01*
X45768484Y-88908100D01*
X45867441Y-88736700D01*
X45867446Y-88736690D01*
X45967794Y-88494428D01*
X45967798Y-88494419D01*
X46035670Y-88241116D01*
X46069900Y-87981120D01*
X46069900Y-87740046D01*
X46089585Y-87673007D01*
X46106219Y-87652365D01*
X46705965Y-87052619D01*
X46767288Y-87019134D01*
X46793646Y-87016300D01*
X52530948Y-87016300D01*
X54095558Y-87016300D01*
X54162597Y-87035985D01*
G37*
%TD.AperFunction*%
M02*
