%TF.GenerationSoftware,KiCad,Pcbnew,9.0.6*%
%TF.CreationDate,2026-06-10T06:20:17+02:00*%
%TF.ProjectId,boost,626f6f73-742e-46b6-9963-61645f706362,rev?*%
%TF.SameCoordinates,Original*%
%TF.FileFunction,Copper,L2,Bot*%
%TF.FilePolarity,Positive*%
%FSLAX46Y46*%
G04 Gerber Fmt 4.6, Leading zero omitted, Abs format (unit mm)*
G04 Created by KiCad (PCBNEW 9.0.6) date 2026-06-10 06:20:17*
%MOMM*%
%LPD*%
G01*
G04 APERTURE LIST*
G04 Aperture macros list*
%AMRoundRect*
0 Rectangle with rounded corners*
0 $1 Rounding radius*
0 $2 $3 $4 $5 $6 $7 $8 $9 X,Y pos of 4 corners*
0 Add a 4 corners polygon primitive as box body*
4,1,4,$2,$3,$4,$5,$6,$7,$8,$9,$2,$3,0*
0 Add four circle primitives for the rounded corners*
1,1,$1+$1,$2,$3*
1,1,$1+$1,$4,$5*
1,1,$1+$1,$6,$7*
1,1,$1+$1,$8,$9*
0 Add four rect primitives between the rounded corners*
20,1,$1+$1,$2,$3,$4,$5,0*
20,1,$1+$1,$4,$5,$6,$7,0*
20,1,$1+$1,$6,$7,$8,$9,0*
20,1,$1+$1,$8,$9,$2,$3,0*%
G04 Aperture macros list end*
%ADD10C,0.300000*%
%TA.AperFunction,NonConductor*%
%ADD11C,0.300000*%
%TD*%
%TA.AperFunction,ComponentPad*%
%ADD12RoundRect,0.250000X-0.550000X-0.550000X0.550000X-0.550000X0.550000X0.550000X-0.550000X0.550000X0*%
%TD*%
%TA.AperFunction,ComponentPad*%
%ADD13C,1.600000*%
%TD*%
%TA.AperFunction,ComponentPad*%
%ADD14C,2.600000*%
%TD*%
%TA.AperFunction,ComponentPad*%
%ADD15R,1.700000X2.000000*%
%TD*%
%TA.AperFunction,ComponentPad*%
%ADD16O,1.700000X2.000000*%
%TD*%
%TA.AperFunction,ComponentPad*%
%ADD17R,1.700000X1.700000*%
%TD*%
%TA.AperFunction,ComponentPad*%
%ADD18C,1.700000*%
%TD*%
%TA.AperFunction,ComponentPad*%
%ADD19RoundRect,0.250000X-0.950000X-0.550000X0.950000X-0.550000X0.950000X0.550000X-0.950000X0.550000X0*%
%TD*%
%TA.AperFunction,ComponentPad*%
%ADD20O,2.400000X1.600000*%
%TD*%
%TA.AperFunction,ComponentPad*%
%ADD21R,3.000000X3.000000*%
%TD*%
%TA.AperFunction,ComponentPad*%
%ADD22C,3.000000*%
%TD*%
%TA.AperFunction,ComponentPad*%
%ADD23RoundRect,0.249999X-0.850001X-0.850001X0.850001X-0.850001X0.850001X0.850001X-0.850001X0.850001X0*%
%TD*%
%TA.AperFunction,ComponentPad*%
%ADD24C,2.200000*%
%TD*%
%TA.AperFunction,Conductor*%
%ADD25C,1.000000*%
%TD*%
G04 APERTURE END LIST*
D10*
D11*
X58134999Y-60578328D02*
X58634999Y-59864042D01*
X58992142Y-60578328D02*
X58992142Y-59078328D01*
X58992142Y-59078328D02*
X58420713Y-59078328D01*
X58420713Y-59078328D02*
X58277856Y-59149757D01*
X58277856Y-59149757D02*
X58206427Y-59221185D01*
X58206427Y-59221185D02*
X58134999Y-59364042D01*
X58134999Y-59364042D02*
X58134999Y-59578328D01*
X58134999Y-59578328D02*
X58206427Y-59721185D01*
X58206427Y-59721185D02*
X58277856Y-59792614D01*
X58277856Y-59792614D02*
X58420713Y-59864042D01*
X58420713Y-59864042D02*
X58992142Y-59864042D01*
X57563570Y-59221185D02*
X57492142Y-59149757D01*
X57492142Y-59149757D02*
X57349285Y-59078328D01*
X57349285Y-59078328D02*
X56992142Y-59078328D01*
X56992142Y-59078328D02*
X56849285Y-59149757D01*
X56849285Y-59149757D02*
X56777856Y-59221185D01*
X56777856Y-59221185D02*
X56706427Y-59364042D01*
X56706427Y-59364042D02*
X56706427Y-59506900D01*
X56706427Y-59506900D02*
X56777856Y-59721185D01*
X56777856Y-59721185D02*
X57634999Y-60578328D01*
X57634999Y-60578328D02*
X56706427Y-60578328D01*
D10*
D11*
X93429699Y-56228328D02*
X93929699Y-55514042D01*
X94286842Y-56228328D02*
X94286842Y-54728328D01*
X94286842Y-54728328D02*
X93715413Y-54728328D01*
X93715413Y-54728328D02*
X93572556Y-54799757D01*
X93572556Y-54799757D02*
X93501127Y-54871185D01*
X93501127Y-54871185D02*
X93429699Y-55014042D01*
X93429699Y-55014042D02*
X93429699Y-55228328D01*
X93429699Y-55228328D02*
X93501127Y-55371185D01*
X93501127Y-55371185D02*
X93572556Y-55442614D01*
X93572556Y-55442614D02*
X93715413Y-55514042D01*
X93715413Y-55514042D02*
X94286842Y-55514042D01*
X92001127Y-56228328D02*
X92858270Y-56228328D01*
X92429699Y-56228328D02*
X92429699Y-54728328D01*
X92429699Y-54728328D02*
X92572556Y-54942614D01*
X92572556Y-54942614D02*
X92715413Y-55085471D01*
X92715413Y-55085471D02*
X92858270Y-55156900D01*
D10*
D11*
X125529999Y-49998328D02*
X125529999Y-51069757D01*
X125529999Y-51069757D02*
X125601428Y-51284042D01*
X125601428Y-51284042D02*
X125744285Y-51426900D01*
X125744285Y-51426900D02*
X125958571Y-51498328D01*
X125958571Y-51498328D02*
X126101428Y-51498328D01*
X124172857Y-50498328D02*
X124172857Y-51498328D01*
X124529999Y-49926900D02*
X124887142Y-50998328D01*
X124887142Y-50998328D02*
X123958571Y-50998328D01*
D10*
D11*
X50907142Y-33628328D02*
X50907142Y-32128328D01*
X50907142Y-32128328D02*
X50549999Y-32128328D01*
X50549999Y-32128328D02*
X50335713Y-32199757D01*
X50335713Y-32199757D02*
X50192856Y-32342614D01*
X50192856Y-32342614D02*
X50121427Y-32485471D01*
X50121427Y-32485471D02*
X50049999Y-32771185D01*
X50049999Y-32771185D02*
X50049999Y-32985471D01*
X50049999Y-32985471D02*
X50121427Y-33271185D01*
X50121427Y-33271185D02*
X50192856Y-33414042D01*
X50192856Y-33414042D02*
X50335713Y-33556900D01*
X50335713Y-33556900D02*
X50549999Y-33628328D01*
X50549999Y-33628328D02*
X50907142Y-33628328D01*
X48621427Y-33628328D02*
X49478570Y-33628328D01*
X49049999Y-33628328D02*
X49049999Y-32128328D01*
X49049999Y-32128328D02*
X49192856Y-32342614D01*
X49192856Y-32342614D02*
X49335713Y-32485471D01*
X49335713Y-32485471D02*
X49478570Y-32556900D01*
D10*
D11*
X132504999Y-31178328D02*
X132504999Y-32249757D01*
X132504999Y-32249757D02*
X132576428Y-32464042D01*
X132576428Y-32464042D02*
X132719285Y-32606900D01*
X132719285Y-32606900D02*
X132933571Y-32678328D01*
X132933571Y-32678328D02*
X133076428Y-32678328D01*
X131862142Y-31321185D02*
X131790714Y-31249757D01*
X131790714Y-31249757D02*
X131647857Y-31178328D01*
X131647857Y-31178328D02*
X131290714Y-31178328D01*
X131290714Y-31178328D02*
X131147857Y-31249757D01*
X131147857Y-31249757D02*
X131076428Y-31321185D01*
X131076428Y-31321185D02*
X131004999Y-31464042D01*
X131004999Y-31464042D02*
X131004999Y-31606900D01*
X131004999Y-31606900D02*
X131076428Y-31821185D01*
X131076428Y-31821185D02*
X131933571Y-32678328D01*
X131933571Y-32678328D02*
X131004999Y-32678328D01*
D10*
D11*
X35499999Y-36903328D02*
X35499999Y-37974757D01*
X35499999Y-37974757D02*
X35571428Y-38189042D01*
X35571428Y-38189042D02*
X35714285Y-38331900D01*
X35714285Y-38331900D02*
X35928571Y-38403328D01*
X35928571Y-38403328D02*
X36071428Y-38403328D01*
X33999999Y-38403328D02*
X34857142Y-38403328D01*
X34428571Y-38403328D02*
X34428571Y-36903328D01*
X34428571Y-36903328D02*
X34571428Y-37117614D01*
X34571428Y-37117614D02*
X34714285Y-37260471D01*
X34714285Y-37260471D02*
X34857142Y-37331900D01*
D10*
D11*
X67758985Y-47328328D02*
X67758985Y-45828328D01*
X67758985Y-45828328D02*
X67258985Y-46899757D01*
X67258985Y-46899757D02*
X66758985Y-45828328D01*
X66758985Y-45828328D02*
X66758985Y-47328328D01*
X65258984Y-47328328D02*
X66116127Y-47328328D01*
X65687556Y-47328328D02*
X65687556Y-45828328D01*
X65687556Y-45828328D02*
X65830413Y-46042614D01*
X65830413Y-46042614D02*
X65973270Y-46185471D01*
X65973270Y-46185471D02*
X66116127Y-46256900D01*
D10*
D11*
X32004999Y-45228328D02*
X32004999Y-46299757D01*
X32004999Y-46299757D02*
X32076428Y-46514042D01*
X32076428Y-46514042D02*
X32219285Y-46656900D01*
X32219285Y-46656900D02*
X32433571Y-46728328D01*
X32433571Y-46728328D02*
X32576428Y-46728328D01*
X31433571Y-45228328D02*
X30504999Y-45228328D01*
X30504999Y-45228328D02*
X31004999Y-45799757D01*
X31004999Y-45799757D02*
X30790714Y-45799757D01*
X30790714Y-45799757D02*
X30647857Y-45871185D01*
X30647857Y-45871185D02*
X30576428Y-45942614D01*
X30576428Y-45942614D02*
X30504999Y-46085471D01*
X30504999Y-46085471D02*
X30504999Y-46442614D01*
X30504999Y-46442614D02*
X30576428Y-46585471D01*
X30576428Y-46585471D02*
X30647857Y-46656900D01*
X30647857Y-46656900D02*
X30790714Y-46728328D01*
X30790714Y-46728328D02*
X31219285Y-46728328D01*
X31219285Y-46728328D02*
X31362142Y-46656900D01*
X31362142Y-46656900D02*
X31433571Y-46585471D01*
D10*
D11*
X57622350Y-46885471D02*
X57693778Y-46956900D01*
X57693778Y-46956900D02*
X57908064Y-47028328D01*
X57908064Y-47028328D02*
X58050921Y-47028328D01*
X58050921Y-47028328D02*
X58265207Y-46956900D01*
X58265207Y-46956900D02*
X58408064Y-46814042D01*
X58408064Y-46814042D02*
X58479493Y-46671185D01*
X58479493Y-46671185D02*
X58550921Y-46385471D01*
X58550921Y-46385471D02*
X58550921Y-46171185D01*
X58550921Y-46171185D02*
X58479493Y-45885471D01*
X58479493Y-45885471D02*
X58408064Y-45742614D01*
X58408064Y-45742614D02*
X58265207Y-45599757D01*
X58265207Y-45599757D02*
X58050921Y-45528328D01*
X58050921Y-45528328D02*
X57908064Y-45528328D01*
X57908064Y-45528328D02*
X57693778Y-45599757D01*
X57693778Y-45599757D02*
X57622350Y-45671185D01*
X56193778Y-47028328D02*
X57050921Y-47028328D01*
X56622350Y-47028328D02*
X56622350Y-45528328D01*
X56622350Y-45528328D02*
X56765207Y-45742614D01*
X56765207Y-45742614D02*
X56908064Y-45885471D01*
X56908064Y-45885471D02*
X57050921Y-45956900D01*
D10*
D11*
X86409999Y-38453328D02*
X87124285Y-38453328D01*
X87124285Y-38453328D02*
X87124285Y-36953328D01*
X85124284Y-38453328D02*
X85981427Y-38453328D01*
X85552856Y-38453328D02*
X85552856Y-36953328D01*
X85552856Y-36953328D02*
X85695713Y-37167614D01*
X85695713Y-37167614D02*
X85838570Y-37310471D01*
X85838570Y-37310471D02*
X85981427Y-37381900D01*
D12*
%TO.P,C1,1*%
%TO.N,/VOUT_V2*%
X55719700Y-52325000D03*
D13*
%TO.P,C1,2*%
%TO.N,GND*%
X59219700Y-52325000D03*
%TD*%
D14*
%TO.P,L1,1*%
%TO.N,/VIN_5V*%
X76685000Y-37775000D03*
%TO.P,L1,2*%
%TO.N,Net-(D1-A)*%
X81685000Y-37775000D03*
%TD*%
D15*
%TO.P,M1,1*%
%TO.N,GATE*%
X72479700Y-53275000D03*
D16*
%TO.P,M1,2*%
%TO.N,Net-(D1-A)*%
X75019700Y-53275000D03*
%TO.P,M1,3*%
%TO.N,GND*%
X77559700Y-53275000D03*
%TD*%
D13*
%TO.P,R2,1*%
%TO.N,GATE*%
X54075000Y-63125000D03*
%TO.P,R2,2*%
%TO.N,GND*%
X61695000Y-63125000D03*
%TD*%
D17*
%TO.P,J3,1*%
%TO.N,PWM*%
X35000000Y-47325000D03*
D18*
%TO.P,J3,2*%
%TO.N,GND_MCU*%
X35000000Y-44785000D03*
%TD*%
D17*
%TO.P,J4,1*%
%TO.N,+12V*%
X125030000Y-44775000D03*
D18*
%TO.P,J4,2*%
%TO.N,GND*%
X125030000Y-47315000D03*
%TD*%
D19*
%TO.P,U1,1*%
%TO.N,Net-(R1-Pad2)*%
X93935000Y-35235000D03*
D20*
%TO.P,U1,2*%
%TO.N,GND_MCU*%
X93935000Y-37775000D03*
%TO.P,U1,3*%
%TO.N,N/C*%
X93935000Y-40315000D03*
%TO.P,U1,4*%
%TO.N,GATE*%
X101555000Y-40315000D03*
%TO.P,U1,5*%
%TO.N,+12V*%
X101555000Y-37775000D03*
%TO.P,U1,6*%
%TO.N,N/C*%
X101555000Y-35235000D03*
%TD*%
D13*
%TO.P,R1,1*%
%TO.N,PWM*%
X89369700Y-52325000D03*
%TO.P,R1,2*%
%TO.N,Net-(R1-Pad2)*%
X96989700Y-52325000D03*
%TD*%
D21*
%TO.P,J1,1*%
%TO.N,/VIN_5V*%
X37540000Y-32000000D03*
D22*
%TO.P,J1,2*%
%TO.N,GND*%
X32460000Y-32000000D03*
%TD*%
D23*
%TO.P,D1,1*%
%TO.N,/VOUT_V2*%
X54375000Y-37775000D03*
D24*
%TO.P,D1,2*%
%TO.N,Net-(D1-A)*%
X64535000Y-37775000D03*
%TD*%
D21*
%TO.P,J2,1*%
%TO.N,/VOUT_V2*%
X122490000Y-32000000D03*
D22*
%TO.P,J2,2*%
%TO.N,GND*%
X127570000Y-32000000D03*
%TD*%
D25*
%TO.N,+12V*%
X125030000Y-44775000D02*
X122878300Y-44775000D01*
X115878300Y-37775000D02*
X122878300Y-44775000D01*
X101555000Y-37775000D02*
X115878300Y-37775000D01*
%TO.N,/VIN_5V*%
X48551300Y-40209600D02*
X40341700Y-32000000D01*
X37540000Y-32000000D02*
X40341700Y-32000000D01*
X74250400Y-40209600D02*
X48551300Y-40209600D01*
X76685000Y-37775000D02*
X74250400Y-40209600D01*
%TO.N,/VOUT_V2*%
X119688300Y-32000000D02*
X60150000Y-32000000D01*
X122490000Y-32000000D02*
X119688300Y-32000000D01*
X60150000Y-32000000D02*
X54375000Y-37775000D01*
%TO.N,GATE*%
X72479700Y-53275000D02*
X72479700Y-50973300D01*
X54075000Y-63125000D02*
X53593400Y-62643400D01*
X53593400Y-62643400D02*
X53593400Y-51094600D01*
X53593400Y-51094600D02*
X54465800Y-50222200D01*
X54465800Y-50222200D02*
X72479700Y-50222200D01*
X72479700Y-50222200D02*
X72479700Y-50973300D01*
%TO.N,GND*%
X77559700Y-55576700D02*
X69243300Y-55576700D01*
X124766800Y-29196800D02*
X35263200Y-29196800D01*
X126042300Y-47315000D02*
X127570000Y-45787300D01*
X77559700Y-53275000D02*
X77559700Y-55576700D01*
X69243300Y-55576700D02*
X65857400Y-58962600D01*
X77559700Y-53275000D02*
X79711400Y-53275000D01*
X125030000Y-47315000D02*
X126042300Y-47315000D01*
X127570000Y-32000000D02*
X124766800Y-29196800D01*
X65857400Y-58962600D02*
X61695000Y-63125000D01*
X79711400Y-53275000D02*
X85671400Y-47315000D01*
X35263200Y-29196800D02*
X32460000Y-32000000D01*
X59219700Y-52325000D02*
X65857400Y-58962600D01*
X85671400Y-47315000D02*
X125030000Y-47315000D01*
X127570000Y-45787300D02*
X127570000Y-32000000D01*
%TO.N,Net-(D1-A)*%
X75019700Y-53275000D02*
X75019700Y-44440300D01*
X79035800Y-35125800D02*
X81685000Y-37775000D01*
X75019700Y-44440300D02*
X81685000Y-37775000D01*
X64535000Y-37775000D02*
X67184200Y-35125800D01*
X67184200Y-35125800D02*
X79035800Y-35125800D01*
%TO.N,PWM*%
X76447800Y-65246900D02*
X53192900Y-65246900D01*
X53192900Y-65246900D02*
X37151700Y-49205700D01*
X35000000Y-47325000D02*
X37151700Y-47325000D01*
X89369700Y-52325000D02*
X76447800Y-65246900D01*
X37151700Y-49205700D02*
X37151700Y-47325000D01*
%TD*%
%TA.AperFunction,NonConductor*%
G36*
X140442539Y-20520185D02*
G01*
X140488294Y-20572989D01*
X140499500Y-20624500D01*
X140499500Y-75375500D01*
X140479815Y-75442539D01*
X140427011Y-75488294D01*
X140375500Y-75499500D01*
X20624500Y-75499500D01*
X20557461Y-75479815D01*
X20511706Y-75427011D01*
X20500500Y-75375500D01*
X20500500Y-44271187D01*
X29547774Y-44271187D01*
X29547774Y-47685553D01*
X33225500Y-47685553D01*
X33292539Y-47705238D01*
X33338294Y-47758042D01*
X33349500Y-47809553D01*
X33349500Y-48219960D01*
X33364630Y-48354249D01*
X33364631Y-48354254D01*
X33424211Y-48524523D01*
X33488578Y-48626961D01*
X33520184Y-48677262D01*
X33647738Y-48804816D01*
X33721217Y-48850986D01*
X33797307Y-48898797D01*
X33800478Y-48900789D01*
X33951752Y-48953722D01*
X33970745Y-48960368D01*
X33970750Y-48960369D01*
X34053347Y-48969675D01*
X34105040Y-48975499D01*
X34105043Y-48975500D01*
X34105046Y-48975500D01*
X35727200Y-48975500D01*
X35794239Y-48995185D01*
X35839994Y-49047989D01*
X35851200Y-49099500D01*
X35851200Y-49308052D01*
X35865936Y-49401088D01*
X35883223Y-49510235D01*
X35883223Y-49510238D01*
X35946478Y-49704916D01*
X35946480Y-49704919D01*
X35955683Y-49722981D01*
X36039413Y-49887311D01*
X36159734Y-50052919D01*
X36159735Y-50052920D01*
X36159736Y-50052921D01*
X52197808Y-66090992D01*
X52197822Y-66091007D01*
X52200933Y-66094118D01*
X52200934Y-66094119D01*
X52345681Y-66238866D01*
X52345684Y-66238868D01*
X52345688Y-66238872D01*
X52495868Y-66347982D01*
X52511290Y-66359187D01*
X52598135Y-66403437D01*
X52693681Y-66452121D01*
X52693684Y-66452122D01*
X52791021Y-66483748D01*
X52888366Y-66515377D01*
X53090548Y-66547400D01*
X53090549Y-66547400D01*
X76550151Y-66547400D01*
X76550152Y-66547400D01*
X76752335Y-66515377D01*
X76849676Y-66483748D01*
X76947019Y-66452120D01*
X77038214Y-66405653D01*
X77129411Y-66359187D01*
X77295019Y-66238866D01*
X86347229Y-57186655D01*
X91045627Y-57186655D01*
X95242342Y-57186655D01*
X95242342Y-53769984D01*
X91045627Y-53769984D01*
X91045627Y-57186655D01*
X86347229Y-57186655D01*
X89601110Y-53932773D01*
X89662431Y-53899290D01*
X89669345Y-53897990D01*
X89744485Y-53886090D01*
X89984079Y-53808241D01*
X90208545Y-53693870D01*
X90261913Y-53655095D01*
X90312554Y-53618304D01*
X90412349Y-53545798D01*
X90412347Y-53545798D01*
X90412356Y-53545793D01*
X90590493Y-53367656D01*
X90738570Y-53163845D01*
X90852941Y-52939379D01*
X90930790Y-52699785D01*
X90970200Y-52450962D01*
X90970200Y-52199038D01*
X95389200Y-52199038D01*
X95389200Y-52450961D01*
X95428610Y-52699785D01*
X95506460Y-52939383D01*
X95620832Y-53163848D01*
X95768901Y-53367649D01*
X95768905Y-53367654D01*
X95947045Y-53545794D01*
X95947050Y-53545798D01*
X96046847Y-53618304D01*
X96150855Y-53693870D01*
X96266286Y-53752685D01*
X96375316Y-53808239D01*
X96375318Y-53808239D01*
X96375321Y-53808241D01*
X96614915Y-53886090D01*
X96863738Y-53925500D01*
X96863739Y-53925500D01*
X97115661Y-53925500D01*
X97115662Y-53925500D01*
X97364485Y-53886090D01*
X97604079Y-53808241D01*
X97828545Y-53693870D01*
X98032356Y-53545793D01*
X98210493Y-53367656D01*
X98358570Y-53163845D01*
X98472941Y-52939379D01*
X98550790Y-52699785D01*
X98590200Y-52450962D01*
X98590200Y-52199038D01*
X98550790Y-51950215D01*
X98472941Y-51710621D01*
X98472939Y-51710618D01*
X98472939Y-51710616D01*
X98414244Y-51595421D01*
X98358570Y-51486155D01*
X98339652Y-51460117D01*
X98210498Y-51282350D01*
X98210494Y-51282345D01*
X98032354Y-51104205D01*
X98032349Y-51104201D01*
X97828548Y-50956132D01*
X97828547Y-50956131D01*
X97828545Y-50956130D01*
X97758447Y-50920413D01*
X97604083Y-50841760D01*
X97364485Y-50763910D01*
X97115662Y-50724500D01*
X96863738Y-50724500D01*
X96739326Y-50744205D01*
X96614914Y-50763910D01*
X96375316Y-50841760D01*
X96150851Y-50956132D01*
X95947050Y-51104201D01*
X95947045Y-51104205D01*
X95768905Y-51282345D01*
X95768901Y-51282350D01*
X95620832Y-51486151D01*
X95506460Y-51710616D01*
X95428610Y-51950214D01*
X95389200Y-52199038D01*
X90970200Y-52199038D01*
X90930790Y-51950215D01*
X90852941Y-51710621D01*
X90852939Y-51710618D01*
X90852939Y-51710616D01*
X90794244Y-51595421D01*
X90738570Y-51486155D01*
X90719652Y-51460117D01*
X90590498Y-51282350D01*
X90590494Y-51282345D01*
X90412354Y-51104205D01*
X90412349Y-51104201D01*
X90208548Y-50956132D01*
X90208547Y-50956131D01*
X90208545Y-50956130D01*
X90138447Y-50920413D01*
X89984083Y-50841760D01*
X89744485Y-50763910D01*
X89495662Y-50724500D01*
X89243738Y-50724500D01*
X89119326Y-50744205D01*
X88994914Y-50763910D01*
X88755316Y-50841760D01*
X88530851Y-50956132D01*
X88327050Y-51104201D01*
X88327045Y-51104205D01*
X88148905Y-51282345D01*
X88148901Y-51282350D01*
X88000832Y-51486151D01*
X87886460Y-51710618D01*
X87808609Y-51950217D01*
X87796715Y-52025309D01*
X87766785Y-52088443D01*
X87761923Y-52093590D01*
X75945434Y-63910081D01*
X75884111Y-63943566D01*
X75857753Y-63946400D01*
X63275109Y-63946400D01*
X63208070Y-63926715D01*
X63162315Y-63873911D01*
X63152371Y-63804753D01*
X63164624Y-63766106D01*
X63178238Y-63739386D01*
X63178238Y-63739382D01*
X63178241Y-63739379D01*
X63256090Y-63499785D01*
X63267984Y-63424687D01*
X63297911Y-63361557D01*
X63302758Y-63356425D01*
X66698386Y-59960796D01*
X66700741Y-59958445D01*
X66700757Y-59958436D01*
X66707182Y-59952563D01*
X66710838Y-59948347D01*
X66778514Y-59880670D01*
X69745665Y-56913519D01*
X69806988Y-56880034D01*
X69833346Y-56877200D01*
X77662051Y-56877200D01*
X77662052Y-56877200D01*
X77864234Y-56845177D01*
X78058919Y-56781920D01*
X78241310Y-56688987D01*
X78334290Y-56621432D01*
X78406913Y-56568671D01*
X78406915Y-56568668D01*
X78406919Y-56568666D01*
X78551666Y-56423919D01*
X78551668Y-56423915D01*
X78551671Y-56423913D01*
X78604432Y-56351290D01*
X78671987Y-56258310D01*
X78764920Y-56075919D01*
X78828177Y-55881234D01*
X78860200Y-55679052D01*
X78860200Y-54699500D01*
X78879885Y-54632461D01*
X78932689Y-54586706D01*
X78984200Y-54575500D01*
X79813751Y-54575500D01*
X79813752Y-54575500D01*
X80015935Y-54543477D01*
X80113276Y-54511848D01*
X80210619Y-54480220D01*
X80309081Y-54430051D01*
X80393011Y-54387287D01*
X80558619Y-54266966D01*
X86173765Y-48651818D01*
X86235088Y-48618334D01*
X86261446Y-48615500D01*
X123971696Y-48615500D01*
X123990730Y-48621089D01*
X124010557Y-48621747D01*
X124034158Y-48633841D01*
X124038735Y-48635185D01*
X124042158Y-48637465D01*
X124043375Y-48638305D01*
X124164949Y-48726634D01*
X124189105Y-48738942D01*
X124195908Y-48743640D01*
X124212905Y-48764623D01*
X124232537Y-48783165D01*
X124234568Y-48791366D01*
X124239887Y-48797933D01*
X124242841Y-48824776D01*
X124249332Y-48850986D01*
X124246606Y-48858983D01*
X124247531Y-48867383D01*
X124235504Y-48891561D01*
X124226794Y-48917121D01*
X124220177Y-48922375D01*
X124216414Y-48929941D01*
X124193225Y-48943778D01*
X124172079Y-48960572D01*
X124161684Y-48962601D01*
X124156416Y-48965745D01*
X124147153Y-48965437D01*
X124125446Y-48969675D01*
X123003071Y-48969675D01*
X123003071Y-52455553D01*
X127056928Y-52455553D01*
X127056928Y-48969675D01*
X125934554Y-48969675D01*
X125902933Y-48960390D01*
X125871011Y-48952156D01*
X125869561Y-48950590D01*
X125867515Y-48949990D01*
X125845940Y-48925091D01*
X125823530Y-48900899D01*
X125823156Y-48898797D01*
X125821760Y-48897186D01*
X125817070Y-48864571D01*
X125811298Y-48832108D01*
X125812119Y-48830138D01*
X125811816Y-48828028D01*
X125825510Y-48798040D01*
X125838200Y-48767625D01*
X125840105Y-48766081D01*
X125840841Y-48764472D01*
X125864092Y-48743640D01*
X125870894Y-48738942D01*
X125895051Y-48726634D01*
X126016624Y-48638305D01*
X126017842Y-48637465D01*
X126049669Y-48626961D01*
X126081225Y-48615702D01*
X126084028Y-48615622D01*
X126084192Y-48615568D01*
X126084364Y-48615612D01*
X126088304Y-48615500D01*
X126144651Y-48615500D01*
X126144652Y-48615500D01*
X126346835Y-48583477D01*
X126444176Y-48551848D01*
X126541519Y-48520220D01*
X126632714Y-48473753D01*
X126723911Y-48427287D01*
X126889519Y-48306966D01*
X128561966Y-46634519D01*
X128682287Y-46468911D01*
X128751519Y-46333034D01*
X128775220Y-46286519D01*
X128826966Y-46127262D01*
X128838477Y-46091835D01*
X128870500Y-45889652D01*
X128870500Y-45684948D01*
X128870500Y-33962958D01*
X128890185Y-33895919D01*
X128919014Y-33864582D01*
X128928474Y-33857323D01*
X129090080Y-33733319D01*
X129303319Y-33520080D01*
X129486900Y-33280832D01*
X129637683Y-33019668D01*
X129753087Y-32741058D01*
X129803999Y-32551050D01*
X129840364Y-32491390D01*
X129903211Y-32460861D01*
X129972587Y-32469156D01*
X130026464Y-32513641D01*
X130047739Y-32580193D01*
X130047774Y-32583144D01*
X130047774Y-33635553D01*
X134031928Y-33635553D01*
X134031928Y-30221103D01*
X130047774Y-30221103D01*
X130047774Y-31416855D01*
X130028089Y-31483894D01*
X129975285Y-31529649D01*
X129906127Y-31539593D01*
X129842571Y-31510568D01*
X129804797Y-31451790D01*
X129803999Y-31448949D01*
X129753087Y-31258942D01*
X129637683Y-30980332D01*
X129584209Y-30887713D01*
X129486900Y-30719168D01*
X129303320Y-30479921D01*
X129303314Y-30479914D01*
X129090085Y-30266685D01*
X129090078Y-30266679D01*
X128850831Y-30083099D01*
X128589671Y-29932318D01*
X128589661Y-29932314D01*
X128311060Y-29816913D01*
X128019766Y-29738861D01*
X127720793Y-29699501D01*
X127720788Y-29699500D01*
X127720783Y-29699500D01*
X127419217Y-29699500D01*
X127419211Y-29699500D01*
X127419206Y-29699501D01*
X127205437Y-29727644D01*
X127136402Y-29716878D01*
X127101571Y-29692386D01*
X125614021Y-28204836D01*
X125614019Y-28204834D01*
X125448411Y-28084513D01*
X125357214Y-28038046D01*
X125266023Y-27991581D01*
X125219315Y-27976404D01*
X125168676Y-27959951D01*
X125144803Y-27952194D01*
X125071335Y-27928322D01*
X124896795Y-27900678D01*
X124869152Y-27896300D01*
X35160848Y-27896300D01*
X35136529Y-27900151D01*
X34958665Y-27928322D01*
X34763976Y-27991581D01*
X34625480Y-28062149D01*
X34581590Y-28084513D01*
X34581589Y-28084514D01*
X34573691Y-28090252D01*
X34573690Y-28090251D01*
X34573690Y-28090252D01*
X34415986Y-28204828D01*
X34415982Y-28204832D01*
X32928427Y-29692386D01*
X32867104Y-29725871D01*
X32824561Y-29727644D01*
X32610793Y-29699501D01*
X32610788Y-29699500D01*
X32610783Y-29699500D01*
X32309217Y-29699500D01*
X32309211Y-29699500D01*
X32309206Y-29699501D01*
X32010233Y-29738861D01*
X31718939Y-29816913D01*
X31440338Y-29932314D01*
X31440328Y-29932318D01*
X31179168Y-30083099D01*
X30939921Y-30266679D01*
X30939914Y-30266685D01*
X30726685Y-30479914D01*
X30726679Y-30479921D01*
X30543099Y-30719168D01*
X30392318Y-30980328D01*
X30392314Y-30980338D01*
X30276913Y-31258939D01*
X30198861Y-31550233D01*
X30159501Y-31849206D01*
X30159500Y-31849223D01*
X30159500Y-32150776D01*
X30159501Y-32150793D01*
X30198861Y-32449766D01*
X30276913Y-32741060D01*
X30392314Y-33019661D01*
X30392318Y-33019671D01*
X30543099Y-33280831D01*
X30726679Y-33520078D01*
X30726685Y-33520085D01*
X30939914Y-33733314D01*
X30939921Y-33733320D01*
X31179168Y-33916900D01*
X31440328Y-34067681D01*
X31440329Y-34067681D01*
X31440332Y-34067683D01*
X31600020Y-34133828D01*
X31718939Y-34183086D01*
X31718940Y-34183086D01*
X31718942Y-34183087D01*
X32010232Y-34261138D01*
X32309217Y-34300500D01*
X32309224Y-34300500D01*
X32610776Y-34300500D01*
X32610783Y-34300500D01*
X32909768Y-34261138D01*
X33201058Y-34183087D01*
X33479668Y-34067683D01*
X33740832Y-33916900D01*
X33980080Y-33733319D01*
X34193319Y-33520080D01*
X34376900Y-33280832D01*
X34527683Y-33019668D01*
X34643087Y-32741058D01*
X34721138Y-32449768D01*
X34760500Y-32150783D01*
X34760500Y-31849217D01*
X34732354Y-31635434D01*
X34743119Y-31566403D01*
X34767609Y-31531574D01*
X35027820Y-31271364D01*
X35089142Y-31237880D01*
X35158834Y-31242864D01*
X35214767Y-31284736D01*
X35239184Y-31350200D01*
X35239500Y-31359046D01*
X35239500Y-33544960D01*
X35254630Y-33679249D01*
X35254631Y-33679254D01*
X35299442Y-33807315D01*
X35314211Y-33849522D01*
X35410184Y-34002262D01*
X35537738Y-34129816D01*
X35690478Y-34225789D01*
X35848385Y-34281043D01*
X35860745Y-34285368D01*
X35860750Y-34285369D01*
X35951246Y-34295565D01*
X35995040Y-34300499D01*
X35995043Y-34300500D01*
X35995046Y-34300500D01*
X39084957Y-34300500D01*
X39084958Y-34300499D01*
X39152104Y-34292934D01*
X39219249Y-34285369D01*
X39219252Y-34285368D01*
X39219255Y-34285368D01*
X39389522Y-34225789D01*
X39542262Y-34129816D01*
X39669816Y-34002262D01*
X39765789Y-33849522D01*
X39825368Y-33679255D01*
X39825971Y-33673910D01*
X39832629Y-33614813D01*
X39859695Y-33550398D01*
X39917289Y-33510843D01*
X39987126Y-33508704D01*
X40043530Y-33541014D01*
X47556208Y-41053692D01*
X47556222Y-41053707D01*
X47559333Y-41056818D01*
X47559334Y-41056819D01*
X47704081Y-41201566D01*
X47704084Y-41201568D01*
X47704088Y-41201572D01*
X47854268Y-41310682D01*
X47869690Y-41321887D01*
X47960884Y-41368353D01*
X48052081Y-41414821D01*
X48052084Y-41414822D01*
X48149424Y-41446449D01*
X48246766Y-41478077D01*
X48448948Y-41510100D01*
X48448949Y-41510100D01*
X74352751Y-41510100D01*
X74352752Y-41510100D01*
X74554935Y-41478077D01*
X74710449Y-41427547D01*
X74749619Y-41414820D01*
X74840814Y-41368353D01*
X74932011Y-41321887D01*
X75097619Y-41201566D01*
X76394830Y-39904353D01*
X76456151Y-39870870D01*
X76498691Y-39869097D01*
X76547326Y-39875500D01*
X76547333Y-39875500D01*
X76822667Y-39875500D01*
X76822674Y-39875500D01*
X77095666Y-39839560D01*
X77361632Y-39768295D01*
X77616021Y-39662923D01*
X77616031Y-39662916D01*
X77616902Y-39662488D01*
X77617195Y-39662436D01*
X77619771Y-39661370D01*
X77620009Y-39661946D01*
X77685733Y-39650485D01*
X77750127Y-39677600D01*
X77789638Y-39735225D01*
X77791724Y-39805063D01*
X77759438Y-39861376D01*
X74027736Y-43593078D01*
X74027731Y-43593084D01*
X73907416Y-43758684D01*
X73907408Y-43758696D01*
X73895329Y-43782405D01*
X73895009Y-43783034D01*
X73814480Y-43941081D01*
X73814480Y-43941082D01*
X73810179Y-43954318D01*
X73810174Y-43954329D01*
X73761743Y-44103389D01*
X73751223Y-44135763D01*
X73751222Y-44135771D01*
X73719200Y-44337948D01*
X73719200Y-49334049D01*
X73699515Y-49401088D01*
X73646711Y-49446843D01*
X73577553Y-49456787D01*
X73513997Y-49427762D01*
X73494882Y-49406934D01*
X73471671Y-49374986D01*
X73326913Y-49230228D01*
X73161313Y-49109915D01*
X73161312Y-49109914D01*
X73161310Y-49109913D01*
X73070112Y-49063445D01*
X72978923Y-49016981D01*
X72784234Y-48953722D01*
X72609695Y-48926078D01*
X72582052Y-48921700D01*
X54568152Y-48921700D01*
X54363448Y-48921700D01*
X54316579Y-48929123D01*
X54161268Y-48953722D01*
X54161267Y-48953722D01*
X54094243Y-48975500D01*
X53966583Y-49016978D01*
X53875384Y-49063445D01*
X53875385Y-49063446D01*
X53784188Y-49109913D01*
X53618578Y-49230236D01*
X52601436Y-50247378D01*
X52481113Y-50412988D01*
X52434646Y-50504185D01*
X52434645Y-50504184D01*
X52387733Y-50596255D01*
X52386672Y-50600020D01*
X52324922Y-50790067D01*
X52324922Y-50790068D01*
X52312112Y-50870948D01*
X52312112Y-50870949D01*
X52292900Y-50992243D01*
X52292900Y-62208353D01*
X52273215Y-62275392D01*
X52220411Y-62321147D01*
X52151253Y-62331091D01*
X52087697Y-62302066D01*
X52081219Y-62296034D01*
X38488519Y-48703334D01*
X38455034Y-48642011D01*
X38452200Y-48615653D01*
X38452200Y-48283828D01*
X64303484Y-48283828D01*
X68715646Y-48283828D01*
X68715646Y-44869984D01*
X64303484Y-44869984D01*
X64303484Y-48283828D01*
X38452200Y-48283828D01*
X38452200Y-47985553D01*
X55238278Y-47985553D01*
X59509125Y-47985553D01*
X59509125Y-44569984D01*
X55238278Y-44569984D01*
X55238278Y-47985553D01*
X38452200Y-47985553D01*
X38452200Y-47222648D01*
X38420177Y-47020465D01*
X38356918Y-46825776D01*
X38323203Y-46759607D01*
X38263987Y-46643390D01*
X38256256Y-46632749D01*
X38143671Y-46477786D01*
X37998913Y-46333028D01*
X37833313Y-46212715D01*
X37833312Y-46212714D01*
X37833310Y-46212713D01*
X37776353Y-46183691D01*
X37650923Y-46119781D01*
X37456234Y-46056522D01*
X37281695Y-46028878D01*
X37254052Y-46024500D01*
X37254051Y-46024500D01*
X36580810Y-46024500D01*
X36550841Y-46015700D01*
X36520376Y-46008776D01*
X36516729Y-46005683D01*
X36513771Y-46004815D01*
X36492319Y-45987364D01*
X36483113Y-45977986D01*
X36479816Y-45972738D01*
X36378986Y-45871908D01*
X36378613Y-45871528D01*
X36362387Y-45841147D01*
X36345938Y-45811022D01*
X36345980Y-45810426D01*
X36345698Y-45809897D01*
X36348471Y-45775589D01*
X36350922Y-45741330D01*
X36351298Y-45740628D01*
X36351329Y-45740254D01*
X36351904Y-45739500D01*
X36366786Y-45711778D01*
X36411634Y-45650051D01*
X36529579Y-45418572D01*
X36609860Y-45171493D01*
X36642833Y-44963306D01*
X36650500Y-44914902D01*
X36650500Y-44655097D01*
X36631957Y-44538020D01*
X36609860Y-44398506D01*
X36529577Y-44151423D01*
X36486787Y-44067445D01*
X36411634Y-43919949D01*
X36258931Y-43709771D01*
X36075229Y-43526069D01*
X36004250Y-43474500D01*
X35865054Y-43373368D01*
X35865053Y-43373367D01*
X35865051Y-43373366D01*
X35792764Y-43336534D01*
X35633576Y-43255422D01*
X35386493Y-43175140D01*
X35129902Y-43134500D01*
X35129897Y-43134500D01*
X34870103Y-43134500D01*
X34870098Y-43134500D01*
X34613506Y-43175140D01*
X34366423Y-43255422D01*
X34134945Y-43373368D01*
X33924774Y-43526066D01*
X33924768Y-43526071D01*
X33741071Y-43709768D01*
X33741066Y-43709774D01*
X33588368Y-43919945D01*
X33470422Y-44151425D01*
X33459349Y-44185505D01*
X33419911Y-44243181D01*
X33355553Y-44270379D01*
X33341418Y-44271187D01*
X29547774Y-44271187D01*
X20500500Y-44271187D01*
X20500500Y-39360553D01*
X33044499Y-39360553D01*
X37026928Y-39360553D01*
X37026928Y-35944984D01*
X33044499Y-35944984D01*
X33044499Y-39360553D01*
X20500500Y-39360553D01*
X20500500Y-20624500D01*
X20520185Y-20557461D01*
X20572989Y-20511706D01*
X20624500Y-20500500D01*
X140375500Y-20500500D01*
X140442539Y-20520185D01*
G37*
%TD.AperFunction*%
%TA.AperFunction,NonConductor*%
G36*
X78771376Y-36700561D02*
G01*
X79555643Y-37484828D01*
X79589128Y-37546151D01*
X79590902Y-37588691D01*
X79584502Y-37637315D01*
X79584500Y-37637329D01*
X79584500Y-37912667D01*
X79584501Y-37912684D01*
X79590902Y-37961304D01*
X79580136Y-38030339D01*
X79555644Y-38065170D01*
X78771376Y-38849438D01*
X78710053Y-38882923D01*
X78640361Y-38877939D01*
X78584428Y-38836067D01*
X78560011Y-38770603D01*
X78571884Y-38709984D01*
X78571370Y-38709771D01*
X78572424Y-38707224D01*
X78572488Y-38706902D01*
X78572919Y-38706028D01*
X78572923Y-38706021D01*
X78678295Y-38451632D01*
X78749560Y-38185666D01*
X78785500Y-37912674D01*
X78785500Y-37637326D01*
X78749560Y-37364334D01*
X78678295Y-37098368D01*
X78585106Y-36873391D01*
X78572920Y-36843971D01*
X78572484Y-36843087D01*
X78572433Y-36842795D01*
X78571370Y-36840229D01*
X78571944Y-36839991D01*
X78560486Y-36774255D01*
X78587607Y-36709864D01*
X78645235Y-36670357D01*
X78715074Y-36668278D01*
X78771376Y-36700561D01*
G37*
%TD.AperFunction*%
%TA.AperFunction,NonConductor*%
G36*
X74890489Y-36445985D02*
G01*
X74936244Y-36498789D01*
X74946188Y-36567947D01*
X74930837Y-36612300D01*
X74797080Y-36843971D01*
X74797075Y-36843982D01*
X74691704Y-37098369D01*
X74620441Y-37364331D01*
X74620438Y-37364344D01*
X74584501Y-37637315D01*
X74584500Y-37637326D01*
X74584500Y-37912674D01*
X74590070Y-37954985D01*
X74590902Y-37961306D01*
X74580134Y-38030341D01*
X74555643Y-38065170D01*
X73748034Y-38872781D01*
X73686711Y-38906266D01*
X73660353Y-38909100D01*
X66289510Y-38909100D01*
X66222471Y-38889415D01*
X66176716Y-38836611D01*
X66166772Y-38767453D01*
X66182123Y-38723100D01*
X66243162Y-38617376D01*
X66243164Y-38617373D01*
X66338502Y-38387207D01*
X66402982Y-38146565D01*
X66435500Y-37899565D01*
X66435500Y-37765046D01*
X66455185Y-37698007D01*
X66471819Y-37677365D01*
X67686565Y-36462619D01*
X67747888Y-36429134D01*
X67774246Y-36426300D01*
X74823450Y-36426300D01*
X74890489Y-36445985D01*
G37*
%TD.AperFunction*%
%TA.AperFunction,NonConductor*%
G36*
X59797173Y-30501337D02*
G01*
X59811479Y-30500516D01*
X59830027Y-30510984D01*
X59850462Y-30516985D01*
X59859845Y-30527813D01*
X59872326Y-30534858D01*
X59882270Y-30553694D01*
X59896217Y-30569789D01*
X59898256Y-30583972D01*
X59904947Y-30596645D01*
X59903129Y-30617864D01*
X59906161Y-30638947D01*
X59900207Y-30651982D01*
X59898985Y-30666260D01*
X59885984Y-30683128D01*
X59877136Y-30702503D01*
X59864693Y-30710752D01*
X59856333Y-30721600D01*
X59825122Y-30738078D01*
X59823418Y-30738686D01*
X59748123Y-30763151D01*
X59650781Y-30794780D01*
X59621464Y-30809718D01*
X59614373Y-30813330D01*
X59614373Y-30813331D01*
X59468387Y-30887714D01*
X59468384Y-30887716D01*
X59302778Y-31008036D01*
X54472632Y-35838181D01*
X54411309Y-35871666D01*
X54384951Y-35874500D01*
X53473395Y-35874500D01*
X53319067Y-35889699D01*
X53121042Y-35949769D01*
X52938545Y-36047317D01*
X52778589Y-36178589D01*
X52647317Y-36338545D01*
X52549769Y-36521042D01*
X52549768Y-36521044D01*
X52549768Y-36521045D01*
X52542898Y-36543691D01*
X52489699Y-36719066D01*
X52483399Y-36783036D01*
X52477514Y-36842795D01*
X52474500Y-36873394D01*
X52474500Y-38676604D01*
X52483989Y-38772947D01*
X52470970Y-38841593D01*
X52422904Y-38892303D01*
X52360586Y-38909100D01*
X49141346Y-38909100D01*
X49074307Y-38889415D01*
X49053665Y-38872781D01*
X44766438Y-34585553D01*
X47665927Y-34585553D01*
X51862642Y-34585553D01*
X51862642Y-31169984D01*
X47665927Y-31169984D01*
X47665927Y-34585553D01*
X44766438Y-34585553D01*
X41387188Y-31206303D01*
X41188921Y-31008036D01*
X41188920Y-31008035D01*
X41188919Y-31008034D01*
X41023311Y-30887713D01*
X40870236Y-30809718D01*
X40869247Y-30809214D01*
X40840924Y-30794782D01*
X40840921Y-30794781D01*
X40840919Y-30794780D01*
X40743576Y-30763151D01*
X40669958Y-30739231D01*
X40612283Y-30699793D01*
X40585085Y-30635434D01*
X40597000Y-30566588D01*
X40644244Y-30515112D01*
X40708277Y-30497300D01*
X59783423Y-30497300D01*
X59797173Y-30501337D01*
G37*
%TD.AperFunction*%
%TA.AperFunction,NonConductor*%
G36*
X124995703Y-31265334D02*
G01*
X125002181Y-31271366D01*
X125262386Y-31531571D01*
X125295871Y-31592894D01*
X125297644Y-31635437D01*
X125269501Y-31849206D01*
X125269500Y-31849223D01*
X125269500Y-32150776D01*
X125269501Y-32150793D01*
X125308861Y-32449766D01*
X125386913Y-32741060D01*
X125502314Y-33019661D01*
X125502318Y-33019671D01*
X125653099Y-33280831D01*
X125836679Y-33520078D01*
X125836685Y-33520085D01*
X126049914Y-33733314D01*
X126049921Y-33733320D01*
X126073953Y-33751760D01*
X126211524Y-33857322D01*
X126220986Y-33864582D01*
X126262189Y-33921010D01*
X126269500Y-33962958D01*
X126269500Y-43038437D01*
X126249815Y-43105476D01*
X126197011Y-43151231D01*
X126127853Y-43161175D01*
X126104547Y-43155479D01*
X126059260Y-43139633D01*
X126059249Y-43139630D01*
X125924960Y-43124500D01*
X125924954Y-43124500D01*
X124135046Y-43124500D01*
X124135039Y-43124500D01*
X124000750Y-43139630D01*
X124000745Y-43139631D01*
X123830476Y-43199211D01*
X123677739Y-43295183D01*
X123545384Y-43427538D01*
X123484061Y-43461022D01*
X123414369Y-43456038D01*
X123370022Y-43427537D01*
X116725521Y-36783036D01*
X116725519Y-36783034D01*
X116559911Y-36662713D01*
X116473272Y-36618568D01*
X116473267Y-36618566D01*
X116468714Y-36616246D01*
X116377519Y-36569780D01*
X116268695Y-36534421D01*
X116264308Y-36532995D01*
X116264297Y-36532991D01*
X116182832Y-36506522D01*
X116006803Y-36478642D01*
X115980652Y-36474500D01*
X115980651Y-36474500D01*
X103276142Y-36474500D01*
X103209103Y-36454815D01*
X103163348Y-36402011D01*
X103153404Y-36332853D01*
X103175824Y-36277615D01*
X103264103Y-36156106D01*
X103323870Y-36073845D01*
X103438241Y-35849379D01*
X103516090Y-35609785D01*
X103555500Y-35360962D01*
X103555500Y-35109038D01*
X103516090Y-34860215D01*
X103438241Y-34620621D01*
X103438239Y-34620618D01*
X103438239Y-34620616D01*
X103396747Y-34539184D01*
X103323870Y-34396155D01*
X103254372Y-34300499D01*
X103175798Y-34192350D01*
X103175794Y-34192345D01*
X102997654Y-34014205D01*
X102997649Y-34014201D01*
X102793848Y-33866132D01*
X102793847Y-33866131D01*
X102793845Y-33866130D01*
X102678418Y-33807317D01*
X102569383Y-33751760D01*
X102329785Y-33673910D01*
X102176930Y-33649700D01*
X102080962Y-33634500D01*
X101029038Y-33634500D01*
X100933076Y-33649699D01*
X100780214Y-33673910D01*
X100540616Y-33751760D01*
X100316151Y-33866132D01*
X100112350Y-34014201D01*
X100112345Y-34014205D01*
X99934205Y-34192345D01*
X99934201Y-34192350D01*
X99786132Y-34396151D01*
X99671760Y-34620616D01*
X99593910Y-34860214D01*
X99554500Y-35109038D01*
X99554500Y-35360961D01*
X99593910Y-35609785D01*
X99671760Y-35849383D01*
X99743884Y-35990932D01*
X99782559Y-36066837D01*
X99786132Y-36073848D01*
X99934201Y-36277649D01*
X99934205Y-36277654D01*
X100073870Y-36417319D01*
X100107355Y-36478642D01*
X100102371Y-36548334D01*
X100073870Y-36592681D01*
X99934205Y-36732345D01*
X99934201Y-36732350D01*
X99786132Y-36936151D01*
X99671760Y-37160616D01*
X99593910Y-37400214D01*
X99573660Y-37528068D01*
X99554500Y-37649038D01*
X99554500Y-37900962D01*
X99574992Y-38030341D01*
X99593910Y-38149785D01*
X99671760Y-38389383D01*
X99786132Y-38613848D01*
X99934201Y-38817649D01*
X99934205Y-38817654D01*
X100073870Y-38957319D01*
X100107355Y-39018642D01*
X100102371Y-39088334D01*
X100073870Y-39132681D01*
X99934205Y-39272345D01*
X99934201Y-39272350D01*
X99786132Y-39476151D01*
X99671760Y-39700616D01*
X99593910Y-39940214D01*
X99554500Y-40189038D01*
X99554500Y-40440961D01*
X99593910Y-40689785D01*
X99671760Y-40929383D01*
X99786132Y-41153848D01*
X99934201Y-41357649D01*
X99934205Y-41357654D01*
X100112345Y-41535794D01*
X100112350Y-41535798D01*
X100290117Y-41664952D01*
X100316155Y-41683870D01*
X100459184Y-41756747D01*
X100540616Y-41798239D01*
X100540618Y-41798239D01*
X100540621Y-41798241D01*
X100780215Y-41876090D01*
X101029038Y-41915500D01*
X101029039Y-41915500D01*
X102080961Y-41915500D01*
X102080962Y-41915500D01*
X102329785Y-41876090D01*
X102569379Y-41798241D01*
X102793845Y-41683870D01*
X102997656Y-41535793D01*
X103175793Y-41357656D01*
X103323870Y-41153845D01*
X103438241Y-40929379D01*
X103516090Y-40689785D01*
X103555500Y-40440962D01*
X103555500Y-40189038D01*
X103516090Y-39940215D01*
X103438241Y-39700621D01*
X103438239Y-39700618D01*
X103438239Y-39700616D01*
X103396747Y-39619184D01*
X103323870Y-39476155D01*
X103313227Y-39461506D01*
X103175824Y-39272385D01*
X103152344Y-39206579D01*
X103168170Y-39138525D01*
X103218276Y-39089830D01*
X103276142Y-39075500D01*
X115288253Y-39075500D01*
X115355292Y-39095185D01*
X115375934Y-39111819D01*
X122031081Y-45766966D01*
X122031084Y-45766968D01*
X122063035Y-45790182D01*
X122105701Y-45845512D01*
X122111680Y-45915125D01*
X122079074Y-45976920D01*
X122018236Y-46011277D01*
X121990150Y-46014500D01*
X85569048Y-46014500D01*
X85505912Y-46024500D01*
X85366868Y-46046522D01*
X85366867Y-46046522D01*
X85277683Y-46075499D01*
X85277684Y-46075500D01*
X85172181Y-46109780D01*
X85137870Y-46127261D01*
X85137871Y-46127262D01*
X84989788Y-46202713D01*
X84918076Y-46254816D01*
X84918075Y-46254817D01*
X84824180Y-46323034D01*
X79209034Y-51938181D01*
X79147711Y-51971666D01*
X79121353Y-51974500D01*
X78794722Y-51974500D01*
X78727683Y-51954815D01*
X78707041Y-51938181D01*
X78634931Y-51866071D01*
X78634925Y-51866066D01*
X78424754Y-51713368D01*
X78424753Y-51713367D01*
X78424751Y-51713366D01*
X78352464Y-51676534D01*
X78193276Y-51595422D01*
X77946193Y-51515140D01*
X77689602Y-51474500D01*
X77689597Y-51474500D01*
X77429803Y-51474500D01*
X77429798Y-51474500D01*
X77173206Y-51515140D01*
X76926123Y-51595422D01*
X76694645Y-51713368D01*
X76517085Y-51842373D01*
X76451279Y-51865853D01*
X76383225Y-51850027D01*
X76334530Y-51799922D01*
X76320200Y-51742055D01*
X76320200Y-45030345D01*
X76339885Y-44963306D01*
X76356514Y-44942669D01*
X81394829Y-39904353D01*
X81456150Y-39870870D01*
X81498693Y-39869097D01*
X81547326Y-39875500D01*
X81547327Y-39875500D01*
X81822667Y-39875500D01*
X81822674Y-39875500D01*
X82095666Y-39839560D01*
X82361632Y-39768295D01*
X82616021Y-39662923D01*
X82616775Y-39662488D01*
X82637564Y-39650485D01*
X82854479Y-39525249D01*
X83006203Y-39408828D01*
X84168784Y-39408828D01*
X88079785Y-39408828D01*
X88079785Y-35994984D01*
X84168784Y-35994984D01*
X84168784Y-39408828D01*
X83006203Y-39408828D01*
X83072928Y-39357628D01*
X83267628Y-39162928D01*
X83435249Y-38944479D01*
X83572923Y-38706021D01*
X83678295Y-38451632D01*
X83749560Y-38185666D01*
X83785500Y-37912674D01*
X83785500Y-37637326D01*
X83749560Y-37364334D01*
X83678295Y-37098368D01*
X83572923Y-36843979D01*
X83572921Y-36843976D01*
X83572919Y-36843971D01*
X83500804Y-36719066D01*
X83435249Y-36605521D01*
X83267628Y-36387072D01*
X83267623Y-36387066D01*
X83072933Y-36192376D01*
X83072926Y-36192370D01*
X82876956Y-36041998D01*
X82854483Y-36024754D01*
X82854482Y-36024753D01*
X82854479Y-36024751D01*
X82716319Y-35944984D01*
X82616028Y-35887080D01*
X82616017Y-35887075D01*
X82361630Y-35781704D01*
X82228649Y-35746072D01*
X82095666Y-35710440D01*
X82095660Y-35710439D01*
X82095655Y-35710438D01*
X81822684Y-35674501D01*
X81822679Y-35674500D01*
X81822674Y-35674500D01*
X81547326Y-35674500D01*
X81524174Y-35677547D01*
X81498691Y-35680902D01*
X81429656Y-35670134D01*
X81394828Y-35645643D01*
X80382577Y-34633392D01*
X91934500Y-34633392D01*
X91934500Y-35836608D01*
X91937953Y-35871666D01*
X91949699Y-35990932D01*
X91972724Y-36066836D01*
X92009768Y-36188954D01*
X92107315Y-36371450D01*
X92195285Y-36478642D01*
X92238590Y-36531410D01*
X92287049Y-36571180D01*
X92326383Y-36628926D01*
X92328254Y-36698770D01*
X92308703Y-36739918D01*
X92166129Y-36936155D01*
X92051760Y-37160616D01*
X91973910Y-37400214D01*
X91953660Y-37528068D01*
X91934500Y-37649038D01*
X91934500Y-37900962D01*
X91954992Y-38030341D01*
X91973910Y-38149785D01*
X92051760Y-38389383D01*
X92166132Y-38613848D01*
X92314201Y-38817649D01*
X92314205Y-38817654D01*
X92453870Y-38957319D01*
X92487355Y-39018642D01*
X92482371Y-39088334D01*
X92453870Y-39132681D01*
X92314205Y-39272345D01*
X92314201Y-39272350D01*
X92166132Y-39476151D01*
X92051760Y-39700616D01*
X91973910Y-39940214D01*
X91934500Y-40189038D01*
X91934500Y-40440961D01*
X91973910Y-40689785D01*
X92051760Y-40929383D01*
X92166132Y-41153848D01*
X92314201Y-41357649D01*
X92314205Y-41357654D01*
X92492345Y-41535794D01*
X92492350Y-41535798D01*
X92670117Y-41664952D01*
X92696155Y-41683870D01*
X92839184Y-41756747D01*
X92920616Y-41798239D01*
X92920618Y-41798239D01*
X92920621Y-41798241D01*
X93160215Y-41876090D01*
X93409038Y-41915500D01*
X93409039Y-41915500D01*
X94460961Y-41915500D01*
X94460962Y-41915500D01*
X94709785Y-41876090D01*
X94949379Y-41798241D01*
X95173845Y-41683870D01*
X95377656Y-41535793D01*
X95555793Y-41357656D01*
X95703870Y-41153845D01*
X95818241Y-40929379D01*
X95896090Y-40689785D01*
X95935500Y-40440962D01*
X95935500Y-40189038D01*
X95896090Y-39940215D01*
X95818241Y-39700621D01*
X95818239Y-39700618D01*
X95818239Y-39700616D01*
X95776747Y-39619184D01*
X95703870Y-39476155D01*
X95654954Y-39408828D01*
X95555798Y-39272350D01*
X95555794Y-39272345D01*
X95416130Y-39132681D01*
X95382645Y-39071358D01*
X95387629Y-39001666D01*
X95416130Y-38957319D01*
X95484034Y-38889415D01*
X95555793Y-38817656D01*
X95703870Y-38613845D01*
X95818241Y-38389379D01*
X95896090Y-38149785D01*
X95935500Y-37900962D01*
X95935500Y-37649038D01*
X95896090Y-37400215D01*
X95818241Y-37160621D01*
X95818239Y-37160618D01*
X95818239Y-37160616D01*
X95776747Y-37079184D01*
X95703870Y-36936155D01*
X95561296Y-36739918D01*
X95537816Y-36674112D01*
X95553641Y-36606058D01*
X95582948Y-36571181D01*
X95631410Y-36531410D01*
X95762685Y-36371450D01*
X95860232Y-36188954D01*
X95920300Y-35990934D01*
X95935500Y-35836608D01*
X95935500Y-34633392D01*
X95920300Y-34479066D01*
X95860232Y-34281046D01*
X95762685Y-34098550D01*
X95692899Y-34013515D01*
X95631410Y-33938589D01*
X95471452Y-33807317D01*
X95471453Y-33807317D01*
X95471450Y-33807315D01*
X95288954Y-33709768D01*
X95090934Y-33649700D01*
X95090932Y-33649699D01*
X95090934Y-33649699D01*
X94971805Y-33637966D01*
X94936608Y-33634500D01*
X92933392Y-33634500D01*
X92895298Y-33638251D01*
X92779067Y-33649699D01*
X92581043Y-33709769D01*
X92502487Y-33751759D01*
X92398550Y-33807315D01*
X92398548Y-33807316D01*
X92398547Y-33807317D01*
X92238589Y-33938589D01*
X92107317Y-34098547D01*
X92107315Y-34098550D01*
X92088456Y-34133832D01*
X92009769Y-34281043D01*
X91949699Y-34479067D01*
X91939212Y-34585553D01*
X91934500Y-34633392D01*
X80382577Y-34633392D01*
X79883021Y-34133836D01*
X79883019Y-34133834D01*
X79717411Y-34013513D01*
X79626214Y-33967046D01*
X79618191Y-33962958D01*
X79535023Y-33920581D01*
X79477245Y-33901808D01*
X79437676Y-33888951D01*
X79413803Y-33881194D01*
X79340335Y-33857322D01*
X79165795Y-33829678D01*
X79138152Y-33825300D01*
X67081848Y-33825300D01*
X66928919Y-33849522D01*
X66879664Y-33857323D01*
X66684987Y-33920576D01*
X66649633Y-33938589D01*
X66649634Y-33938590D01*
X66502586Y-34013515D01*
X66336986Y-34133828D01*
X66336982Y-34133832D01*
X64632634Y-35838181D01*
X64571311Y-35871666D01*
X64544953Y-35874500D01*
X64410435Y-35874500D01*
X64410429Y-35874500D01*
X64410424Y-35874501D01*
X64163438Y-35907017D01*
X63922792Y-35971498D01*
X63692638Y-36066830D01*
X63692623Y-36066837D01*
X63476873Y-36191400D01*
X63279225Y-36343060D01*
X63279218Y-36343066D01*
X63103066Y-36519218D01*
X63103060Y-36519225D01*
X62951400Y-36716873D01*
X62826837Y-36932623D01*
X62826830Y-36932638D01*
X62731498Y-37162792D01*
X62667017Y-37403438D01*
X62634501Y-37650424D01*
X62634500Y-37650441D01*
X62634500Y-37899558D01*
X62634501Y-37899575D01*
X62667017Y-38146561D01*
X62731498Y-38387207D01*
X62826830Y-38617361D01*
X62826837Y-38617376D01*
X62887877Y-38723100D01*
X62904350Y-38791001D01*
X62881497Y-38857027D01*
X62826576Y-38900218D01*
X62780490Y-38909100D01*
X56389414Y-38909100D01*
X56322375Y-38889415D01*
X56276620Y-38836611D01*
X56266011Y-38772946D01*
X56266242Y-38770603D01*
X56275500Y-38676609D01*
X56275499Y-37765045D01*
X56295183Y-37698007D01*
X56311813Y-37677370D01*
X60652366Y-33336819D01*
X60713689Y-33303334D01*
X60740047Y-33300500D01*
X119585948Y-33300500D01*
X120065500Y-33300500D01*
X120132539Y-33320185D01*
X120178294Y-33372989D01*
X120189500Y-33424500D01*
X120189500Y-33544960D01*
X120204630Y-33679249D01*
X120204631Y-33679254D01*
X120249442Y-33807315D01*
X120264211Y-33849522D01*
X120360184Y-34002262D01*
X120487738Y-34129816D01*
X120640478Y-34225789D01*
X120798385Y-34281043D01*
X120810745Y-34285368D01*
X120810750Y-34285369D01*
X120901246Y-34295565D01*
X120945040Y-34300499D01*
X120945043Y-34300500D01*
X120945046Y-34300500D01*
X124034957Y-34300500D01*
X124034958Y-34300499D01*
X124102104Y-34292934D01*
X124169249Y-34285369D01*
X124169252Y-34285368D01*
X124169255Y-34285368D01*
X124339522Y-34225789D01*
X124492262Y-34129816D01*
X124619816Y-34002262D01*
X124715789Y-33849522D01*
X124775368Y-33679255D01*
X124775971Y-33673910D01*
X124782934Y-33612104D01*
X124790500Y-33544954D01*
X124790500Y-31359046D01*
X124810185Y-31292008D01*
X124862989Y-31246253D01*
X124932147Y-31236309D01*
X124995703Y-31265334D01*
G37*
%TD.AperFunction*%
%TA.AperFunction,NonConductor*%
G36*
X71017599Y-51542385D02*
G01*
X71063354Y-51595189D01*
X71073298Y-51664347D01*
X71044273Y-51727903D01*
X71038241Y-51734381D01*
X70999884Y-51772737D01*
X70903911Y-51925476D01*
X70844331Y-52095745D01*
X70844330Y-52095750D01*
X70829200Y-52230039D01*
X70829200Y-54152200D01*
X70809515Y-54219239D01*
X70756711Y-54264994D01*
X70705200Y-54276200D01*
X69140948Y-54276200D01*
X69053498Y-54290051D01*
X68938764Y-54308223D01*
X68744084Y-54371477D01*
X68744081Y-54371478D01*
X68629129Y-54430051D01*
X68561686Y-54464415D01*
X68396086Y-54584728D01*
X68396082Y-54584732D01*
X68251331Y-54729484D01*
X65945073Y-57035741D01*
X65883750Y-57069226D01*
X65814058Y-57064242D01*
X65769712Y-57035743D01*
X62631905Y-53897982D01*
X60827473Y-52093577D01*
X60793988Y-52032254D01*
X60792681Y-52025292D01*
X60780790Y-51950215D01*
X60780790Y-51950214D01*
X60745750Y-51842373D01*
X60702941Y-51710621D01*
X60702938Y-51710615D01*
X60699054Y-51702991D01*
X60686160Y-51634322D01*
X60712439Y-51569582D01*
X60769547Y-51529327D01*
X60809541Y-51522700D01*
X70950560Y-51522700D01*
X71017599Y-51542385D01*
G37*
%TD.AperFunction*%
%TA.AperFunction,NonConductor*%
G36*
X57696898Y-51542385D02*
G01*
X57742653Y-51595189D01*
X57752597Y-51664347D01*
X57740346Y-51702991D01*
X57736461Y-51710615D01*
X57658610Y-51950214D01*
X57619200Y-52199038D01*
X57619200Y-52450961D01*
X57658610Y-52699785D01*
X57736460Y-52939383D01*
X57850832Y-53163848D01*
X57998901Y-53367649D01*
X57998905Y-53367654D01*
X58177045Y-53545794D01*
X58177050Y-53545798D01*
X58276847Y-53618304D01*
X58380855Y-53693870D01*
X58496286Y-53752685D01*
X58605316Y-53808239D01*
X58605318Y-53808239D01*
X58605321Y-53808241D01*
X58733749Y-53849970D01*
X58844914Y-53886090D01*
X58920017Y-53897985D01*
X58983152Y-53927914D01*
X58988301Y-53932776D01*
X63930525Y-58874926D01*
X63964010Y-58936249D01*
X63959026Y-59005941D01*
X63930525Y-59050289D01*
X61463590Y-61517223D01*
X61402267Y-61550708D01*
X61395309Y-61552015D01*
X61320217Y-61563909D01*
X61080618Y-61641760D01*
X60856151Y-61756132D01*
X60652350Y-61904201D01*
X60652345Y-61904205D01*
X60474205Y-62082345D01*
X60474201Y-62082350D01*
X60326132Y-62286151D01*
X60211760Y-62510616D01*
X60133910Y-62750214D01*
X60094500Y-62999038D01*
X60094500Y-63250961D01*
X60133910Y-63499785D01*
X60211761Y-63739386D01*
X60225376Y-63766106D01*
X60238272Y-63834776D01*
X60211995Y-63899516D01*
X60154888Y-63939772D01*
X60114891Y-63946400D01*
X55655109Y-63946400D01*
X55588070Y-63926715D01*
X55542315Y-63873911D01*
X55532371Y-63804753D01*
X55544624Y-63766106D01*
X55558238Y-63739386D01*
X55558238Y-63739382D01*
X55558241Y-63739379D01*
X55636090Y-63499785D01*
X55675500Y-63250962D01*
X55675500Y-62999038D01*
X55636090Y-62750215D01*
X55558241Y-62510621D01*
X55558239Y-62510618D01*
X55558239Y-62510616D01*
X55516747Y-62429184D01*
X55443870Y-62286155D01*
X55387344Y-62208353D01*
X55295798Y-62082350D01*
X55295794Y-62082345D01*
X55117654Y-61904205D01*
X55117649Y-61904201D01*
X54945015Y-61778776D01*
X54902349Y-61723447D01*
X54893900Y-61678458D01*
X54893900Y-61536655D01*
X55749202Y-61536655D01*
X59947642Y-61536655D01*
X59947642Y-58121103D01*
X55749202Y-58121103D01*
X55749202Y-61536655D01*
X54893900Y-61536655D01*
X54893900Y-54040231D01*
X54913585Y-53973192D01*
X54966389Y-53927437D01*
X55030051Y-53916828D01*
X55118092Y-53925500D01*
X55118097Y-53925500D01*
X56321305Y-53925500D01*
X56321308Y-53925500D01*
X56475634Y-53910300D01*
X56673654Y-53850232D01*
X56856150Y-53752685D01*
X57016110Y-53621410D01*
X57147385Y-53461450D01*
X57244932Y-53278954D01*
X57305000Y-53080934D01*
X57320200Y-52926608D01*
X57320200Y-51723392D01*
X57313843Y-51658853D01*
X57316658Y-51644009D01*
X57314508Y-51629053D01*
X57323036Y-51610377D01*
X57326862Y-51590208D01*
X57337255Y-51579241D01*
X57343533Y-51565497D01*
X57360803Y-51554398D01*
X57374926Y-51539498D01*
X57390535Y-51535290D01*
X57402311Y-51527723D01*
X57437246Y-51522700D01*
X57629859Y-51522700D01*
X57696898Y-51542385D01*
G37*
%TD.AperFunction*%
M02*
