M48
; DRILL file {KiCad 9.0.4} date 2026-06-10T15:27:45+0200
; FORMAT={-:-/ absolute / metric / decimal}
; #@! TF.CreationDate,2026-06-10T15:27:45+02:00
; #@! TF.GenerationSoftware,Kicad,Pcbnew,9.0.4
; #@! TF.FileFunction,MixedPlating,1,2
FMAT,2
METRIC
; #@! TA.AperFunction,Plated,PTH,ComponentDrill
T1C0.800
; #@! TA.AperFunction,Plated,PTH,ComponentDrill
T2C1.000
; #@! TA.AperFunction,Plated,PTH,ComponentDrill
T3C1.100
; #@! TA.AperFunction,Plated,PTH,ComponentDrill
T4C1.520
; #@! TA.AperFunction,Plated,PTH,ComponentDrill
T5C2.000
%
G90
G05
T1
X31.575Y-107.25
X31.975Y-95.91
X31.975Y-98.45
X31.975Y-100.99
X39.195Y-107.25
X39.595Y-95.91
X39.595Y-98.45
X39.595Y-100.99
X48.79Y-98.45
X52.29Y-98.45
X76.44Y-98.45
X84.06Y-98.45
T2
X35.0Y-42.785
X35.0Y-45.325
X109.0Y-42.775
X109.0Y-45.315
T3
X31.875Y-73.875
X42.035Y-73.875
X62.55Y-99.4
X65.09Y-99.4
X67.63Y-99.4
T4
X32.46Y-32.0
X37.54Y-32.0
X106.46Y-32.0
X111.54Y-32.0
T5
X51.835Y-73.875
X80.035Y-73.875
M30
