%TF.GenerationSoftware,KiCad,Pcbnew,9.0.6*%
%TF.CreationDate,2026-06-10T06:20:17+02:00*%
%TF.ProjectId,boost,626f6f73-742e-46b6-9963-61645f706362,rev?*%
%TF.SameCoordinates,Original*%
%TF.FileFunction,Legend,Top*%
%TF.FilePolarity,Positive*%
%FSLAX46Y46*%
G04 Gerber Fmt 4.6, Leading zero omitted, Abs format (unit mm)*
G04 Created by KiCad (PCBNEW 9.0.6) date 2026-06-10 06:20:17*
%MOMM*%
%LPD*%
G01*
G04 APERTURE LIST*
%ADD10C,0.150000*%
%ADD11C,0.120000*%
G04 APERTURE END LIST*
D10*
X57303033Y-47434580D02*
X57255414Y-47482200D01*
X57255414Y-47482200D02*
X57112557Y-47529819D01*
X57112557Y-47529819D02*
X57017319Y-47529819D01*
X57017319Y-47529819D02*
X56874462Y-47482200D01*
X56874462Y-47482200D02*
X56779224Y-47386961D01*
X56779224Y-47386961D02*
X56731605Y-47291723D01*
X56731605Y-47291723D02*
X56683986Y-47101247D01*
X56683986Y-47101247D02*
X56683986Y-46958390D01*
X56683986Y-46958390D02*
X56731605Y-46767914D01*
X56731605Y-46767914D02*
X56779224Y-46672676D01*
X56779224Y-46672676D02*
X56874462Y-46577438D01*
X56874462Y-46577438D02*
X57017319Y-46529819D01*
X57017319Y-46529819D02*
X57112557Y-46529819D01*
X57112557Y-46529819D02*
X57255414Y-46577438D01*
X57255414Y-46577438D02*
X57303033Y-46625057D01*
X58255414Y-47529819D02*
X57683986Y-47529819D01*
X57969700Y-47529819D02*
X57969700Y-46529819D01*
X57969700Y-46529819D02*
X57874462Y-46672676D01*
X57874462Y-46672676D02*
X57779224Y-46767914D01*
X57779224Y-46767914D02*
X57683986Y-46815533D01*
X79018333Y-31979819D02*
X78542143Y-31979819D01*
X78542143Y-31979819D02*
X78542143Y-30979819D01*
X79875476Y-31979819D02*
X79304048Y-31979819D01*
X79589762Y-31979819D02*
X79589762Y-30979819D01*
X79589762Y-30979819D02*
X79494524Y-31122676D01*
X79494524Y-31122676D02*
X79399286Y-31217914D01*
X79399286Y-31217914D02*
X79304048Y-31265533D01*
X74210176Y-49629819D02*
X74210176Y-48629819D01*
X74210176Y-48629819D02*
X74543509Y-49344104D01*
X74543509Y-49344104D02*
X74876842Y-48629819D01*
X74876842Y-48629819D02*
X74876842Y-49629819D01*
X75876842Y-49629819D02*
X75305414Y-49629819D01*
X75591128Y-49629819D02*
X75591128Y-48629819D01*
X75591128Y-48629819D02*
X75495890Y-48772676D01*
X75495890Y-48772676D02*
X75400652Y-48867914D01*
X75400652Y-48867914D02*
X75305414Y-48915533D01*
X57718333Y-61209819D02*
X57385000Y-60733628D01*
X57146905Y-61209819D02*
X57146905Y-60209819D01*
X57146905Y-60209819D02*
X57527857Y-60209819D01*
X57527857Y-60209819D02*
X57623095Y-60257438D01*
X57623095Y-60257438D02*
X57670714Y-60305057D01*
X57670714Y-60305057D02*
X57718333Y-60400295D01*
X57718333Y-60400295D02*
X57718333Y-60543152D01*
X57718333Y-60543152D02*
X57670714Y-60638390D01*
X57670714Y-60638390D02*
X57623095Y-60686009D01*
X57623095Y-60686009D02*
X57527857Y-60733628D01*
X57527857Y-60733628D02*
X57146905Y-60733628D01*
X58099286Y-60305057D02*
X58146905Y-60257438D01*
X58146905Y-60257438D02*
X58242143Y-60209819D01*
X58242143Y-60209819D02*
X58480238Y-60209819D01*
X58480238Y-60209819D02*
X58575476Y-60257438D01*
X58575476Y-60257438D02*
X58623095Y-60305057D01*
X58623095Y-60305057D02*
X58670714Y-60400295D01*
X58670714Y-60400295D02*
X58670714Y-60495533D01*
X58670714Y-60495533D02*
X58623095Y-60638390D01*
X58623095Y-60638390D02*
X58051667Y-61209819D01*
X58051667Y-61209819D02*
X58670714Y-61209819D01*
X34666666Y-49159819D02*
X34666666Y-49874104D01*
X34666666Y-49874104D02*
X34619047Y-50016961D01*
X34619047Y-50016961D02*
X34523809Y-50112200D01*
X34523809Y-50112200D02*
X34380952Y-50159819D01*
X34380952Y-50159819D02*
X34285714Y-50159819D01*
X35047619Y-49159819D02*
X35666666Y-49159819D01*
X35666666Y-49159819D02*
X35333333Y-49540771D01*
X35333333Y-49540771D02*
X35476190Y-49540771D01*
X35476190Y-49540771D02*
X35571428Y-49588390D01*
X35571428Y-49588390D02*
X35619047Y-49636009D01*
X35619047Y-49636009D02*
X35666666Y-49731247D01*
X35666666Y-49731247D02*
X35666666Y-49969342D01*
X35666666Y-49969342D02*
X35619047Y-50064580D01*
X35619047Y-50064580D02*
X35571428Y-50112200D01*
X35571428Y-50112200D02*
X35476190Y-50159819D01*
X35476190Y-50159819D02*
X35190476Y-50159819D01*
X35190476Y-50159819D02*
X35095238Y-50112200D01*
X35095238Y-50112200D02*
X35047619Y-50064580D01*
X124696666Y-41849819D02*
X124696666Y-42564104D01*
X124696666Y-42564104D02*
X124649047Y-42706961D01*
X124649047Y-42706961D02*
X124553809Y-42802200D01*
X124553809Y-42802200D02*
X124410952Y-42849819D01*
X124410952Y-42849819D02*
X124315714Y-42849819D01*
X125601428Y-42183152D02*
X125601428Y-42849819D01*
X125363333Y-41802200D02*
X125125238Y-42516485D01*
X125125238Y-42516485D02*
X125744285Y-42516485D01*
X96983095Y-32359819D02*
X96983095Y-33169342D01*
X96983095Y-33169342D02*
X97030714Y-33264580D01*
X97030714Y-33264580D02*
X97078333Y-33312200D01*
X97078333Y-33312200D02*
X97173571Y-33359819D01*
X97173571Y-33359819D02*
X97364047Y-33359819D01*
X97364047Y-33359819D02*
X97459285Y-33312200D01*
X97459285Y-33312200D02*
X97506904Y-33264580D01*
X97506904Y-33264580D02*
X97554523Y-33169342D01*
X97554523Y-33169342D02*
X97554523Y-32359819D01*
X98554523Y-33359819D02*
X97983095Y-33359819D01*
X98268809Y-33359819D02*
X98268809Y-32359819D01*
X98268809Y-32359819D02*
X98173571Y-32502676D01*
X98173571Y-32502676D02*
X98078333Y-32597914D01*
X98078333Y-32597914D02*
X97983095Y-32645533D01*
X93013033Y-50409819D02*
X92679700Y-49933628D01*
X92441605Y-50409819D02*
X92441605Y-49409819D01*
X92441605Y-49409819D02*
X92822557Y-49409819D01*
X92822557Y-49409819D02*
X92917795Y-49457438D01*
X92917795Y-49457438D02*
X92965414Y-49505057D01*
X92965414Y-49505057D02*
X93013033Y-49600295D01*
X93013033Y-49600295D02*
X93013033Y-49743152D01*
X93013033Y-49743152D02*
X92965414Y-49838390D01*
X92965414Y-49838390D02*
X92917795Y-49886009D01*
X92917795Y-49886009D02*
X92822557Y-49933628D01*
X92822557Y-49933628D02*
X92441605Y-49933628D01*
X93965414Y-50409819D02*
X93393986Y-50409819D01*
X93679700Y-50409819D02*
X93679700Y-49409819D01*
X93679700Y-49409819D02*
X93584462Y-49552676D01*
X93584462Y-49552676D02*
X93489224Y-49647914D01*
X93489224Y-49647914D02*
X93393986Y-49695533D01*
X34666666Y-36534819D02*
X34666666Y-37249104D01*
X34666666Y-37249104D02*
X34619047Y-37391961D01*
X34619047Y-37391961D02*
X34523809Y-37487200D01*
X34523809Y-37487200D02*
X34380952Y-37534819D01*
X34380952Y-37534819D02*
X34285714Y-37534819D01*
X35666666Y-37534819D02*
X35095238Y-37534819D01*
X35380952Y-37534819D02*
X35380952Y-36534819D01*
X35380952Y-36534819D02*
X35285714Y-36677676D01*
X35285714Y-36677676D02*
X35190476Y-36772914D01*
X35190476Y-36772914D02*
X35095238Y-36820533D01*
X58716905Y-35759819D02*
X58716905Y-34759819D01*
X58716905Y-34759819D02*
X58955000Y-34759819D01*
X58955000Y-34759819D02*
X59097857Y-34807438D01*
X59097857Y-34807438D02*
X59193095Y-34902676D01*
X59193095Y-34902676D02*
X59240714Y-34997914D01*
X59240714Y-34997914D02*
X59288333Y-35188390D01*
X59288333Y-35188390D02*
X59288333Y-35331247D01*
X59288333Y-35331247D02*
X59240714Y-35521723D01*
X59240714Y-35521723D02*
X59193095Y-35616961D01*
X59193095Y-35616961D02*
X59097857Y-35712200D01*
X59097857Y-35712200D02*
X58955000Y-35759819D01*
X58955000Y-35759819D02*
X58716905Y-35759819D01*
X60240714Y-35759819D02*
X59669286Y-35759819D01*
X59955000Y-35759819D02*
X59955000Y-34759819D01*
X59955000Y-34759819D02*
X59859762Y-34902676D01*
X59859762Y-34902676D02*
X59764524Y-34997914D01*
X59764524Y-34997914D02*
X59669286Y-35045533D01*
X54113095Y-36129819D02*
X54113095Y-35129819D01*
X54684523Y-36129819D02*
X54255952Y-35558390D01*
X54684523Y-35129819D02*
X54113095Y-35701247D01*
X124696666Y-26374819D02*
X124696666Y-27089104D01*
X124696666Y-27089104D02*
X124649047Y-27231961D01*
X124649047Y-27231961D02*
X124553809Y-27327200D01*
X124553809Y-27327200D02*
X124410952Y-27374819D01*
X124410952Y-27374819D02*
X124315714Y-27374819D01*
X125125238Y-26470057D02*
X125172857Y-26422438D01*
X125172857Y-26422438D02*
X125268095Y-26374819D01*
X125268095Y-26374819D02*
X125506190Y-26374819D01*
X125506190Y-26374819D02*
X125601428Y-26422438D01*
X125601428Y-26422438D02*
X125649047Y-26470057D01*
X125649047Y-26470057D02*
X125696666Y-26565295D01*
X125696666Y-26565295D02*
X125696666Y-26660533D01*
X125696666Y-26660533D02*
X125649047Y-26803390D01*
X125649047Y-26803390D02*
X125077619Y-27374819D01*
X125077619Y-27374819D02*
X125696666Y-27374819D01*
D11*
%TO.C,C1*%
X53060002Y-50010000D02*
X53860002Y-50010000D01*
X53460002Y-49610000D02*
X53460002Y-50410000D01*
X57469700Y-48245000D02*
X57469700Y-56405000D01*
X57509700Y-48245000D02*
X57509700Y-56405000D01*
X57549700Y-48246000D02*
X57549700Y-56404000D01*
X57589700Y-48247000D02*
X57589700Y-56403000D01*
X57629700Y-48248000D02*
X57629700Y-56402000D01*
X57669700Y-48250000D02*
X57669700Y-56400000D01*
X57709700Y-48252000D02*
X57709700Y-56398000D01*
X57749700Y-48255000D02*
X57749700Y-56395000D01*
X57789700Y-48257000D02*
X57789700Y-56393000D01*
X57829700Y-48261000D02*
X57829700Y-56389000D01*
X57869700Y-48264000D02*
X57869700Y-56386000D01*
X57909700Y-48269000D02*
X57909700Y-56381000D01*
X57949700Y-48273000D02*
X57949700Y-56377000D01*
X57989700Y-48278000D02*
X57989700Y-56372000D01*
X58029700Y-48283000D02*
X58029700Y-56367000D01*
X58069700Y-48289000D02*
X58069700Y-56361000D01*
X58109700Y-48295000D02*
X58109700Y-56355000D01*
X58149700Y-48302000D02*
X58149700Y-56348000D01*
X58189700Y-48308000D02*
X58189700Y-51285000D01*
X58189700Y-53365000D02*
X58189700Y-56342000D01*
X58229700Y-48316000D02*
X58229700Y-51285000D01*
X58229700Y-53365000D02*
X58229700Y-56334000D01*
X58269700Y-48323000D02*
X58269700Y-51285000D01*
X58269700Y-53365000D02*
X58269700Y-56327000D01*
X58309700Y-48332000D02*
X58309700Y-51285000D01*
X58309700Y-53365000D02*
X58309700Y-56318000D01*
X58349700Y-48340000D02*
X58349700Y-51285000D01*
X58349700Y-53365000D02*
X58349700Y-56310000D01*
X58389700Y-48349000D02*
X58389700Y-51285000D01*
X58389700Y-53365000D02*
X58389700Y-56301000D01*
X58429700Y-48358000D02*
X58429700Y-51285000D01*
X58429700Y-53365000D02*
X58429700Y-56292000D01*
X58469700Y-48368000D02*
X58469700Y-51285000D01*
X58469700Y-53365000D02*
X58469700Y-56282000D01*
X58509700Y-48378000D02*
X58509700Y-51285000D01*
X58509700Y-53365000D02*
X58509700Y-56272000D01*
X58549700Y-48389000D02*
X58549700Y-51285000D01*
X58549700Y-53365000D02*
X58549700Y-56261000D01*
X58589700Y-48400000D02*
X58589700Y-51285000D01*
X58589700Y-53365000D02*
X58589700Y-56250000D01*
X58629700Y-48412000D02*
X58629700Y-51285000D01*
X58629700Y-53365000D02*
X58629700Y-56238000D01*
X58669700Y-48424000D02*
X58669700Y-51285000D01*
X58669700Y-53365000D02*
X58669700Y-56226000D01*
X58709700Y-48436000D02*
X58709700Y-51285000D01*
X58709700Y-53365000D02*
X58709700Y-56214000D01*
X58749700Y-48449000D02*
X58749700Y-51285000D01*
X58749700Y-53365000D02*
X58749700Y-56201000D01*
X58789700Y-48462000D02*
X58789700Y-51285000D01*
X58789700Y-53365000D02*
X58789700Y-56188000D01*
X58829700Y-48476000D02*
X58829700Y-51285000D01*
X58829700Y-53365000D02*
X58829700Y-56174000D01*
X58869700Y-48490000D02*
X58869700Y-51285000D01*
X58869700Y-53365000D02*
X58869700Y-56160000D01*
X58909700Y-48505000D02*
X58909700Y-51285000D01*
X58909700Y-53365000D02*
X58909700Y-56145000D01*
X58949700Y-48520000D02*
X58949700Y-51285000D01*
X58949700Y-53365000D02*
X58949700Y-56130000D01*
X58989700Y-48536000D02*
X58989700Y-51285000D01*
X58989700Y-53365000D02*
X58989700Y-56114000D01*
X59029700Y-48552000D02*
X59029700Y-51285000D01*
X59029700Y-53365000D02*
X59029700Y-56098000D01*
X59069700Y-48568000D02*
X59069700Y-51285000D01*
X59069700Y-53365000D02*
X59069700Y-56082000D01*
X59109700Y-48585000D02*
X59109700Y-51285000D01*
X59109700Y-53365000D02*
X59109700Y-56065000D01*
X59149700Y-48603000D02*
X59149700Y-51285000D01*
X59149700Y-53365000D02*
X59149700Y-56047000D01*
X59189700Y-48621000D02*
X59189700Y-51285000D01*
X59189700Y-53365000D02*
X59189700Y-56029000D01*
X59229700Y-48640000D02*
X59229700Y-51285000D01*
X59229700Y-53365000D02*
X59229700Y-56010000D01*
X59269700Y-48659000D02*
X59269700Y-51285000D01*
X59269700Y-53365000D02*
X59269700Y-55991000D01*
X59309700Y-48679000D02*
X59309700Y-51285000D01*
X59309700Y-53365000D02*
X59309700Y-55971000D01*
X59349700Y-48699000D02*
X59349700Y-51285000D01*
X59349700Y-53365000D02*
X59349700Y-55951000D01*
X59389700Y-48720000D02*
X59389700Y-51285000D01*
X59389700Y-53365000D02*
X59389700Y-55930000D01*
X59429700Y-48741000D02*
X59429700Y-51285000D01*
X59429700Y-53365000D02*
X59429700Y-55909000D01*
X59469700Y-48763000D02*
X59469700Y-51285000D01*
X59469700Y-53365000D02*
X59469700Y-55887000D01*
X59509700Y-48786000D02*
X59509700Y-51285000D01*
X59509700Y-53365000D02*
X59509700Y-55864000D01*
X59549700Y-48809000D02*
X59549700Y-51285000D01*
X59549700Y-53365000D02*
X59549700Y-55841000D01*
X59589700Y-48832000D02*
X59589700Y-51285000D01*
X59589700Y-53365000D02*
X59589700Y-55818000D01*
X59629700Y-48857000D02*
X59629700Y-51285000D01*
X59629700Y-53365000D02*
X59629700Y-55793000D01*
X59669700Y-48882000D02*
X59669700Y-51285000D01*
X59669700Y-53365000D02*
X59669700Y-55768000D01*
X59709700Y-48907000D02*
X59709700Y-51285000D01*
X59709700Y-53365000D02*
X59709700Y-55743000D01*
X59749700Y-48933000D02*
X59749700Y-51285000D01*
X59749700Y-53365000D02*
X59749700Y-55717000D01*
X59789700Y-48960000D02*
X59789700Y-51285000D01*
X59789700Y-53365000D02*
X59789700Y-55690000D01*
X59829700Y-48988000D02*
X59829700Y-51285000D01*
X59829700Y-53365000D02*
X59829700Y-55662000D01*
X59869700Y-49016000D02*
X59869700Y-51285000D01*
X59869700Y-53365000D02*
X59869700Y-55634000D01*
X59909700Y-49045000D02*
X59909700Y-51285000D01*
X59909700Y-53365000D02*
X59909700Y-55605000D01*
X59949700Y-49075000D02*
X59949700Y-51285000D01*
X59949700Y-53365000D02*
X59949700Y-55575000D01*
X59989700Y-49106000D02*
X59989700Y-51285000D01*
X59989700Y-53365000D02*
X59989700Y-55544000D01*
X60029700Y-49137000D02*
X60029700Y-51285000D01*
X60029700Y-53365000D02*
X60029700Y-55513000D01*
X60069700Y-49169000D02*
X60069700Y-51285000D01*
X60069700Y-53365000D02*
X60069700Y-55481000D01*
X60109700Y-49202000D02*
X60109700Y-51285000D01*
X60109700Y-53365000D02*
X60109700Y-55448000D01*
X60149700Y-49236000D02*
X60149700Y-51285000D01*
X60149700Y-53365000D02*
X60149700Y-55414000D01*
X60189700Y-49270000D02*
X60189700Y-51285000D01*
X60189700Y-53365000D02*
X60189700Y-55380000D01*
X60229700Y-49306000D02*
X60229700Y-51285000D01*
X60229700Y-53365000D02*
X60229700Y-55344000D01*
X60269700Y-49343000D02*
X60269700Y-55307000D01*
X60309700Y-49380000D02*
X60309700Y-55270000D01*
X60349700Y-49419000D02*
X60349700Y-55231000D01*
X60389700Y-49458000D02*
X60389700Y-55192000D01*
X60429700Y-49499000D02*
X60429700Y-55151000D01*
X60469700Y-49541000D02*
X60469700Y-55109000D01*
X60509700Y-49584000D02*
X60509700Y-55066000D01*
X60549700Y-49629000D02*
X60549700Y-55021000D01*
X60589700Y-49674000D02*
X60589700Y-54976000D01*
X60629700Y-49721000D02*
X60629700Y-54929000D01*
X60669700Y-49770000D02*
X60669700Y-54880000D01*
X60709700Y-49820000D02*
X60709700Y-54830000D01*
X60749700Y-49872000D02*
X60749700Y-54778000D01*
X60789700Y-49925000D02*
X60789700Y-54725000D01*
X60829700Y-49981000D02*
X60829700Y-54669000D01*
X60869700Y-50038000D02*
X60869700Y-54612000D01*
X60909700Y-50098000D02*
X60909700Y-54552000D01*
X60949700Y-50160000D02*
X60949700Y-54490000D01*
X60989700Y-50224000D02*
X60989700Y-54426000D01*
X61029700Y-50291000D02*
X61029700Y-54359000D01*
X61069700Y-50361000D02*
X61069700Y-54289000D01*
X61109700Y-50435000D02*
X61109700Y-54215000D01*
X61149700Y-50512000D02*
X61149700Y-54138000D01*
X61189700Y-50594000D02*
X61189700Y-54056000D01*
X61229700Y-50681000D02*
X61229700Y-53969000D01*
X61269700Y-50773000D02*
X61269700Y-53877000D01*
X61309700Y-50872000D02*
X61309700Y-53778000D01*
X61349700Y-50979000D02*
X61349700Y-53671000D01*
X61389700Y-51097000D02*
X61389700Y-53553000D01*
X61429700Y-51228000D02*
X61429700Y-53422000D01*
X61469700Y-51378000D02*
X61469700Y-53272000D01*
X61509700Y-51557000D02*
X61509700Y-53093000D01*
X61549700Y-51792000D02*
X61549700Y-52858000D01*
X61589700Y-52325000D02*
G75*
G02*
X53349700Y-52325000I-4120000J0D01*
G01*
X53349700Y-52325000D02*
G75*
G02*
X61589700Y-52325000I4120000J0D01*
G01*
%TO.C,L1*%
X84305000Y-37775000D02*
G75*
G02*
X74065000Y-37775000I-5120000J0D01*
G01*
X74065000Y-37775000D02*
G75*
G02*
X84305000Y-37775000I5120000J0D01*
G01*
%TO.C,M1*%
X69909700Y-50015000D02*
X80129700Y-50015000D01*
X69909700Y-51395000D02*
X80129700Y-51395000D01*
X69909700Y-54635000D02*
X69909700Y-50015000D01*
X73169700Y-50015000D02*
X73169700Y-51395000D01*
X76869700Y-50015000D02*
X76869700Y-51395000D01*
X80129700Y-50015000D02*
X80129700Y-54635000D01*
X80129700Y-54635000D02*
X69909700Y-54635000D01*
%TO.C,R2*%
X54615000Y-61755000D02*
X61155000Y-61755000D01*
X54615000Y-62085000D02*
X54615000Y-61755000D01*
X54615000Y-64165000D02*
X54615000Y-64495000D01*
X54615000Y-64495000D02*
X61155000Y-64495000D01*
X61155000Y-61755000D02*
X61155000Y-62085000D01*
X61155000Y-64495000D02*
X61155000Y-64165000D01*
%TO.C,J3*%
X33620000Y-46055000D02*
X33620000Y-43405000D01*
X36380000Y-43405000D02*
X33620000Y-43405000D01*
X36380000Y-46055000D02*
X33620000Y-46055000D01*
X36380000Y-46055000D02*
X36380000Y-43405000D01*
X36380000Y-47325000D02*
X36380000Y-48705000D01*
X36380000Y-48705000D02*
X35000000Y-48705000D01*
%TO.C,J4*%
X123650000Y-43395000D02*
X125030000Y-43395000D01*
X123650000Y-44775000D02*
X123650000Y-43395000D01*
X123650000Y-46045000D02*
X123650000Y-48695000D01*
X123650000Y-46045000D02*
X126410000Y-46045000D01*
X123650000Y-48695000D02*
X126410000Y-48695000D01*
X126410000Y-46045000D02*
X126410000Y-48695000D01*
%TO.C,U1*%
X95495000Y-33905000D02*
X95495000Y-41645000D01*
X95495000Y-41645000D02*
X99995000Y-41645000D01*
X96745000Y-33905000D02*
X95495000Y-33905000D01*
X99995000Y-33905000D02*
X98745000Y-33905000D01*
X99995000Y-41645000D02*
X99995000Y-33905000D01*
X98745000Y-33905000D02*
G75*
G02*
X96745000Y-33905000I-1000000J0D01*
G01*
%TO.C,R1*%
X89909700Y-50955000D02*
X96449700Y-50955000D01*
X89909700Y-51285000D02*
X89909700Y-50955000D01*
X89909700Y-53365000D02*
X89909700Y-53695000D01*
X89909700Y-53695000D02*
X96449700Y-53695000D01*
X96449700Y-50955000D02*
X96449700Y-51285000D01*
X96449700Y-53695000D02*
X96449700Y-53365000D01*
%TO.C,J1*%
X29920000Y-28190000D02*
X29920000Y-35810000D01*
X29920000Y-29460000D02*
X40080000Y-29460000D01*
X29920000Y-35810000D02*
X40080000Y-35810000D01*
X40080000Y-28190000D02*
X29920000Y-28190000D01*
X40080000Y-35810000D02*
X40080000Y-28190000D01*
%TO.C,D1*%
X55715000Y-37775000D02*
X56735000Y-37775000D01*
X57515000Y-36305000D02*
X57515000Y-39245000D01*
X57635000Y-36305000D02*
X57635000Y-39245000D01*
X57755000Y-36305000D02*
X57755000Y-39245000D01*
X63195000Y-37775000D02*
X62175000Y-37775000D01*
X56735000Y-36305000D02*
X62175000Y-36305000D01*
X62175000Y-39245000D01*
X56735000Y-39245000D01*
X56735000Y-36305000D01*
%TO.C,J2*%
X119950000Y-28190000D02*
X119950000Y-35810000D01*
X119950000Y-35810000D02*
X130110000Y-35810000D01*
X130110000Y-28190000D02*
X119950000Y-28190000D01*
X130110000Y-34540000D02*
X119950000Y-34540000D01*
X130110000Y-35810000D02*
X130110000Y-28190000D01*
%TD*%
M02*
