%TF.GenerationSoftware,KiCad,Pcbnew,9.0.4*%
%TF.CreationDate,2026-06-10T11:39:34+02:00*%
%TF.ProjectId,boost,626f6f73-742e-46b6-9963-61645f706362,rev?*%
%TF.SameCoordinates,Original*%
%TF.FileFunction,Copper,L2,Bot*%
%TF.FilePolarity,Positive*%
%FSLAX46Y46*%
G04 Gerber Fmt 4.6, Leading zero omitted, Abs format (unit mm)*
G04 Created by KiCad (PCBNEW 9.0.4) date 2026-06-10 11:39:34*
%MOMM*%
%LPD*%
G01*
G04 APERTURE LIST*
G04 Aperture macros list*
%AMRoundRect*
0 Rectangle with rounded corners*
0 $1 Rounding radius*
0 $2 $3 $4 $5 $6 $7 $8 $9 X,Y pos of 4 corners*
0 Add a 4 corners polygon primitive as box body*
4,1,4,$2,$3,$4,$5,$6,$7,$8,$9,$2,$3,0*
0 Add four circle primitives for the rounded corners*
1,1,$1+$1,$2,$3*
1,1,$1+$1,$4,$5*
1,1,$1+$1,$6,$7*
1,1,$1+$1,$8,$9*
0 Add four rect primitives between the rounded corners*
20,1,$1+$1,$2,$3,$4,$5,0*
20,1,$1+$1,$4,$5,$6,$7,0*
20,1,$1+$1,$6,$7,$8,$9,0*
20,1,$1+$1,$8,$9,$2,$3,0*%
G04 Aperture macros list end*
%TA.AperFunction,ComponentPad*%
%ADD10R,1.700000X1.700000*%
%TD*%
%TA.AperFunction,ComponentPad*%
%ADD11C,1.700000*%
%TD*%
%TA.AperFunction,ComponentPad*%
%ADD12R,1.700000X2.000000*%
%TD*%
%TA.AperFunction,ComponentPad*%
%ADD13O,1.700000X2.000000*%
%TD*%
%TA.AperFunction,ComponentPad*%
%ADD14RoundRect,0.250000X-0.950000X-0.550000X0.950000X-0.550000X0.950000X0.550000X-0.950000X0.550000X0*%
%TD*%
%TA.AperFunction,ComponentPad*%
%ADD15O,2.400000X1.600000*%
%TD*%
%TA.AperFunction,ComponentPad*%
%ADD16R,3.000000X3.000000*%
%TD*%
%TA.AperFunction,ComponentPad*%
%ADD17C,3.000000*%
%TD*%
%TA.AperFunction,ComponentPad*%
%ADD18C,1.600000*%
%TD*%
%TA.AperFunction,ComponentPad*%
%ADD19C,4.000000*%
%TD*%
%TA.AperFunction,ComponentPad*%
%ADD20RoundRect,0.250000X-0.550000X-0.550000X0.550000X-0.550000X0.550000X0.550000X-0.550000X0.550000X0*%
%TD*%
%TA.AperFunction,ComponentPad*%
%ADD21RoundRect,0.249999X-0.850001X-0.850001X0.850001X-0.850001X0.850001X0.850001X-0.850001X0.850001X0*%
%TD*%
%TA.AperFunction,ComponentPad*%
%ADD22C,2.200000*%
%TD*%
%TA.AperFunction,Conductor*%
%ADD23C,1.000000*%
%TD*%
G04 APERTURE END LIST*
D10*
%TO.P,J3,1*%
%TO.N,PWM*%
X35000000Y-47325000D03*
D11*
%TO.P,J3,2*%
%TO.N,GND_MCU*%
X35000000Y-44785000D03*
%TD*%
D12*
%TO.P,M1,1*%
%TO.N,GATE*%
X72479700Y-77325000D03*
D13*
%TO.P,M1,2*%
%TO.N,Net-(D1-A)*%
X75019700Y-77325000D03*
%TO.P,M1,3*%
%TO.N,GND*%
X77559700Y-77325000D03*
%TD*%
D14*
%TO.P,U1,1*%
%TO.N,Net-(R1-Pad2)*%
X118435000Y-47260000D03*
D15*
%TO.P,U1,2*%
%TO.N,GND_MCU*%
X118435000Y-49800000D03*
%TO.P,U1,3*%
%TO.N,N/C*%
X118435000Y-52340000D03*
%TO.P,U1,4*%
%TO.N,GATE*%
X126055000Y-52340000D03*
%TO.P,U1,5*%
%TO.N,+12V*%
X126055000Y-49800000D03*
%TO.P,U1,6*%
%TO.N,N/C*%
X126055000Y-47260000D03*
%TD*%
D16*
%TO.P,J1,1*%
%TO.N,/VIN_5V*%
X37540000Y-32000000D03*
D17*
%TO.P,J1,2*%
%TO.N,GND*%
X32460000Y-32000000D03*
%TD*%
D18*
%TO.P,R1,1*%
%TO.N,PWM*%
X89369700Y-76375000D03*
%TO.P,R1,2*%
%TO.N,Net-(R1-Pad2)*%
X96989700Y-76375000D03*
%TD*%
%TO.P,R2,1*%
%TO.N,GATE*%
X107139700Y-76375000D03*
%TO.P,R2,2*%
%TO.N,GND*%
X114759700Y-76375000D03*
%TD*%
D19*
%TO.P,L1,1*%
%TO.N,/VIN_5V*%
X77335000Y-49800000D03*
%TO.P,L1,2*%
%TO.N,Net-(D1-A)*%
X105535000Y-49800000D03*
%TD*%
D10*
%TO.P,J4,1*%
%TO.N,+12V*%
X149530000Y-44775000D03*
D11*
%TO.P,J4,2*%
%TO.N,GND*%
X149530000Y-47315000D03*
%TD*%
D16*
%TO.P,J2,1*%
%TO.N,/VOUT_V2*%
X146990000Y-32000000D03*
D17*
%TO.P,J2,2*%
%TO.N,GND*%
X152070000Y-32000000D03*
%TD*%
D20*
%TO.P,C1,1*%
%TO.N,/VOUT_V2*%
X55719700Y-76375000D03*
D18*
%TO.P,C1,2*%
%TO.N,GND*%
X59219700Y-76375000D03*
%TD*%
D21*
%TO.P,D1,1*%
%TO.N,/VOUT_V2*%
X54375000Y-49800000D03*
D22*
%TO.P,D1,2*%
%TO.N,Net-(D1-A)*%
X64535000Y-49800000D03*
%TD*%
D23*
%TO.N,+12V*%
X149530000Y-44775000D02*
X141924600Y-44775000D01*
X141924600Y-44775000D02*
X136899600Y-49800000D01*
X136899600Y-49800000D02*
X126055000Y-49800000D01*
%TO.N,/VIN_5V*%
X80636700Y-53101700D02*
X106977500Y-53101700D01*
X91494200Y-75515600D02*
X91494200Y-77271900D01*
X37540000Y-32000000D02*
X37540000Y-34801700D01*
X90283300Y-78482800D02*
X88449200Y-78482800D01*
X80757800Y-64779200D02*
X91494200Y-75515600D01*
X91494200Y-77271900D02*
X90283300Y-78482800D01*
X106977500Y-53101700D02*
X108843600Y-51235600D01*
X81267900Y-71301500D02*
X52870600Y-71301500D01*
X31037300Y-49468200D02*
X31037300Y-41304400D01*
X66217300Y-44647900D02*
X62132800Y-48732400D01*
X62132800Y-48732400D02*
X62132800Y-50794300D01*
X52870600Y-71301500D02*
X31037300Y-49468200D01*
X77335000Y-49800000D02*
X80636700Y-53101700D01*
X105129800Y-44647900D02*
X66217300Y-44647900D01*
X88449200Y-78482800D02*
X81267900Y-71301500D01*
X108843600Y-51235600D02*
X108843600Y-48361700D01*
X62132800Y-50794300D02*
X76117700Y-64779200D01*
X108843600Y-48361700D02*
X105129800Y-44647900D01*
X76117700Y-64779200D02*
X80757800Y-64779200D01*
X31037300Y-41304400D02*
X37540000Y-34801700D01*
%TO.N,/VOUT_V2*%
X32848300Y-43881200D02*
X32848300Y-48715300D01*
X44729500Y-32000000D02*
X32848300Y-43881200D01*
X32848300Y-48715300D02*
X33933000Y-49800000D01*
X33933000Y-49800000D02*
X54375000Y-49800000D01*
X146990000Y-32000000D02*
X44729500Y-32000000D01*
%TO.N,GATE*%
X72479700Y-77325000D02*
X72479700Y-75023300D01*
X79893600Y-75023300D02*
X86956500Y-82086200D01*
X72479700Y-75023300D02*
X79893600Y-75023300D01*
X86956500Y-82086200D02*
X101428500Y-82086200D01*
X123553300Y-59961400D02*
X107139700Y-76375000D01*
X123553300Y-52340000D02*
X123553300Y-59961400D01*
X104998000Y-78516700D02*
X107139700Y-76375000D01*
X126055000Y-52340000D02*
X123553300Y-52340000D01*
X101428500Y-82086200D02*
X107139700Y-76375000D01*
%TO.N,GND*%
X114759700Y-76375000D02*
X114759800Y-76375100D01*
X32460000Y-32000000D02*
X35261700Y-29198300D01*
X64273100Y-81428400D02*
X75849400Y-81428400D01*
X35261700Y-29198300D02*
X149268300Y-29198300D01*
X77559700Y-79626700D02*
X81820900Y-83887900D01*
X59219700Y-76375000D02*
X64273100Y-81428400D01*
X81820900Y-83887900D02*
X107246800Y-83887900D01*
X150605100Y-47315000D02*
X149530000Y-47315000D01*
X77559600Y-79626700D02*
X77559700Y-79626700D01*
X143819700Y-47315000D02*
X114759700Y-76375000D01*
X107246800Y-83887900D02*
X114759700Y-76375000D01*
X75849400Y-81428400D02*
X77559600Y-79718200D01*
X77559600Y-79718200D02*
X77559600Y-79626700D01*
X152070000Y-45850100D02*
X150605100Y-47315000D01*
X77559700Y-77325000D02*
X77559700Y-79626700D01*
X149268300Y-29198300D02*
X152070000Y-32000000D01*
X149530000Y-47315000D02*
X143819700Y-47315000D01*
X152070000Y-32000000D02*
X152070000Y-45850100D01*
%TO.N,GND_MCU*%
X115933300Y-49800000D02*
X108923300Y-42790000D01*
X108923300Y-42790000D02*
X36995000Y-42790000D01*
X36995000Y-42790000D02*
X35000000Y-44785000D01*
X118435000Y-49800000D02*
X115933300Y-49800000D01*
%TO.N,Net-(D1-A)*%
X93295900Y-74769200D02*
X68326700Y-49800000D01*
X87702800Y-80284500D02*
X91029600Y-80284500D01*
X70317300Y-74626900D02*
X71756500Y-73187700D01*
X68326700Y-49800000D02*
X64535000Y-49800000D01*
X80606000Y-73187700D02*
X87702800Y-80284500D01*
X75019700Y-77325000D02*
X75019700Y-79626700D01*
X71756500Y-73187700D02*
X80606000Y-73187700D01*
X64535000Y-49800000D02*
X67863400Y-46471600D01*
X70317300Y-78853500D02*
X70317300Y-74626900D01*
X71090500Y-79626700D02*
X70317300Y-78853500D01*
X75019700Y-79626700D02*
X71090500Y-79626700D01*
X91029600Y-80284500D02*
X93295900Y-78018200D01*
X93295900Y-78018200D02*
X93295900Y-74769200D01*
X102206600Y-46471600D02*
X105535000Y-49800000D01*
X67863400Y-46471600D02*
X102206600Y-46471600D01*
%TO.N,Net-(R1-Pad2)*%
X118435000Y-47260000D02*
X119273100Y-47260000D01*
X97832200Y-76375000D02*
X96989700Y-76375000D01*
X120936700Y-48923600D02*
X120936700Y-53270500D01*
X120936700Y-53270500D02*
X97832200Y-76375000D01*
X119273100Y-47260000D02*
X120936700Y-48923600D01*
%TO.N,PWM*%
X89369700Y-76375000D02*
X82408300Y-69413600D01*
X55860700Y-47325000D02*
X35000000Y-47325000D01*
X77949300Y-69413600D02*
X55860700Y-47325000D01*
X82408300Y-69413600D02*
X77949300Y-69413600D01*
%TD*%
%TA.AperFunction,NonConductor*%
G36*
X164442539Y-20520185D02*
G01*
X164488294Y-20572989D01*
X164499500Y-20624500D01*
X164499500Y-91375500D01*
X164479815Y-91442539D01*
X164427011Y-91488294D01*
X164375500Y-91499500D01*
X20624500Y-91499500D01*
X20557461Y-91479815D01*
X20511706Y-91427011D01*
X20500500Y-91375500D01*
X20500500Y-75773392D01*
X54119200Y-75773392D01*
X54119200Y-76976608D01*
X54124202Y-77027398D01*
X54134399Y-77130932D01*
X54134400Y-77130934D01*
X54194468Y-77328954D01*
X54292015Y-77511450D01*
X54292017Y-77511452D01*
X54423289Y-77671410D01*
X54511580Y-77743867D01*
X54583250Y-77802685D01*
X54765746Y-77900232D01*
X54963766Y-77960300D01*
X54963765Y-77960300D01*
X55002347Y-77964100D01*
X55118092Y-77975500D01*
X55118095Y-77975500D01*
X56321305Y-77975500D01*
X56321308Y-77975500D01*
X56475634Y-77960300D01*
X56673654Y-77900232D01*
X56856150Y-77802685D01*
X57016110Y-77671410D01*
X57147385Y-77511450D01*
X57244932Y-77328954D01*
X57305000Y-77130934D01*
X57320200Y-76976608D01*
X57320200Y-75773392D01*
X57305000Y-75619066D01*
X57244932Y-75421046D01*
X57147385Y-75238550D01*
X57078162Y-75154201D01*
X57016110Y-75078589D01*
X56856152Y-74947317D01*
X56856153Y-74947317D01*
X56856150Y-74947315D01*
X56673654Y-74849768D01*
X56475634Y-74789700D01*
X56475632Y-74789699D01*
X56475634Y-74789699D01*
X56356505Y-74777966D01*
X56321308Y-74774500D01*
X55118092Y-74774500D01*
X55079998Y-74778251D01*
X54963767Y-74789699D01*
X54765743Y-74849769D01*
X54687187Y-74891759D01*
X54583250Y-74947315D01*
X54583248Y-74947316D01*
X54583247Y-74947317D01*
X54423289Y-75078589D01*
X54292017Y-75238547D01*
X54194469Y-75421043D01*
X54134399Y-75619067D01*
X54122951Y-75735298D01*
X54119200Y-75773392D01*
X20500500Y-75773392D01*
X20500500Y-41202048D01*
X29736800Y-41202048D01*
X29736800Y-49570551D01*
X29768822Y-49772731D01*
X29768822Y-49772732D01*
X29786646Y-49827588D01*
X29832078Y-49967416D01*
X29832080Y-49967419D01*
X29864160Y-50030380D01*
X29925013Y-50149811D01*
X30045334Y-50315419D01*
X52023381Y-72293466D01*
X52188989Y-72413787D01*
X52280185Y-72460253D01*
X52371381Y-72506720D01*
X52468723Y-72538348D01*
X52566065Y-72569977D01*
X52768248Y-72602000D01*
X70203653Y-72602000D01*
X70270692Y-72621685D01*
X70316447Y-72674489D01*
X70326391Y-72743647D01*
X70297366Y-72807203D01*
X70291334Y-72813681D01*
X69325336Y-73779678D01*
X69205013Y-73945288D01*
X69161171Y-74031334D01*
X69111632Y-74128558D01*
X69110572Y-74132320D01*
X69048823Y-74322366D01*
X69022557Y-74488200D01*
X69016800Y-74524548D01*
X69016800Y-78955851D01*
X69033772Y-79063011D01*
X69048823Y-79158035D01*
X69050895Y-79164411D01*
X69112080Y-79352719D01*
X69117787Y-79363919D01*
X69205013Y-79535111D01*
X69325334Y-79700719D01*
X69325336Y-79700721D01*
X69540834Y-79916219D01*
X69574319Y-79977542D01*
X69569335Y-80047234D01*
X69527463Y-80103167D01*
X69461999Y-80127584D01*
X69453153Y-80127900D01*
X64863146Y-80127900D01*
X64796107Y-80108215D01*
X64775465Y-80091581D01*
X62804436Y-78120552D01*
X60827475Y-76143590D01*
X60793990Y-76082267D01*
X60792683Y-76075306D01*
X60780790Y-76000214D01*
X60744670Y-75889049D01*
X60702941Y-75760621D01*
X60702939Y-75760618D01*
X60702939Y-75760616D01*
X60661447Y-75679184D01*
X60588570Y-75536155D01*
X60504939Y-75421046D01*
X60440498Y-75332350D01*
X60440494Y-75332345D01*
X60262354Y-75154205D01*
X60262349Y-75154201D01*
X60058548Y-75006132D01*
X60058547Y-75006131D01*
X60058545Y-75006130D01*
X59943118Y-74947317D01*
X59834083Y-74891760D01*
X59594485Y-74813910D01*
X59548837Y-74806680D01*
X59345662Y-74774500D01*
X59093738Y-74774500D01*
X58997776Y-74789699D01*
X58844914Y-74813910D01*
X58605316Y-74891760D01*
X58380851Y-75006132D01*
X58177050Y-75154201D01*
X58177045Y-75154205D01*
X57998905Y-75332345D01*
X57998901Y-75332350D01*
X57850832Y-75536151D01*
X57736460Y-75760616D01*
X57732309Y-75773392D01*
X57658610Y-76000215D01*
X57619200Y-76249038D01*
X57619200Y-76500962D01*
X57635901Y-76606408D01*
X57658610Y-76749785D01*
X57736460Y-76989383D01*
X57850832Y-77213848D01*
X57998901Y-77417649D01*
X57998905Y-77417654D01*
X58177044Y-77595793D01*
X58177050Y-77595798D01*
X58314154Y-77695409D01*
X58380855Y-77743870D01*
X58496286Y-77802685D01*
X58605316Y-77858239D01*
X58605318Y-77858239D01*
X58605321Y-77858241D01*
X58733749Y-77899970D01*
X58844914Y-77936090D01*
X58884139Y-77942302D01*
X58920006Y-77947983D01*
X58983141Y-77977912D01*
X58988290Y-77982775D01*
X63278008Y-82272492D01*
X63278022Y-82272507D01*
X63281133Y-82275618D01*
X63281134Y-82275619D01*
X63425881Y-82420366D01*
X63425884Y-82420368D01*
X63425887Y-82420371D01*
X63470556Y-82452824D01*
X63508685Y-82480526D01*
X63591489Y-82540687D01*
X63675008Y-82583242D01*
X63773881Y-82633621D01*
X63773887Y-82633623D01*
X63924871Y-82682680D01*
X63924872Y-82682680D01*
X63946719Y-82689778D01*
X63968565Y-82696877D01*
X64069657Y-82712888D01*
X64170748Y-82728900D01*
X64170749Y-82728900D01*
X75951751Y-82728900D01*
X75951752Y-82728900D01*
X76153935Y-82696877D01*
X76251276Y-82665248D01*
X76348619Y-82633620D01*
X76443221Y-82585418D01*
X76531011Y-82540687D01*
X76696619Y-82420366D01*
X77517719Y-81599264D01*
X77579042Y-81565780D01*
X77648733Y-81570764D01*
X77693081Y-81599265D01*
X80825808Y-84731992D01*
X80825822Y-84732007D01*
X80828933Y-84735118D01*
X80828934Y-84735119D01*
X80973681Y-84879866D01*
X80973684Y-84879868D01*
X80973687Y-84879871D01*
X81004497Y-84902255D01*
X81056485Y-84940026D01*
X81139289Y-85000187D01*
X81230485Y-85046653D01*
X81234829Y-85048866D01*
X81234830Y-85048867D01*
X81321680Y-85093120D01*
X81321686Y-85093122D01*
X81372047Y-85109484D01*
X81419021Y-85124747D01*
X81419022Y-85124748D01*
X81465874Y-85139971D01*
X81516365Y-85156377D01*
X81617457Y-85172388D01*
X81718548Y-85188400D01*
X81718549Y-85188400D01*
X107349151Y-85188400D01*
X107349152Y-85188400D01*
X107551335Y-85156377D01*
X107648676Y-85124748D01*
X107746019Y-85093120D01*
X107837214Y-85046653D01*
X107928411Y-85000187D01*
X108094019Y-84879866D01*
X114991110Y-77982773D01*
X115052431Y-77949290D01*
X115059345Y-77947990D01*
X115134485Y-77936090D01*
X115374079Y-77858241D01*
X115598545Y-77743870D01*
X115802356Y-77595793D01*
X115980493Y-77417656D01*
X116128570Y-77213845D01*
X116242941Y-76989379D01*
X116320790Y-76749785D01*
X116332684Y-76674687D01*
X116362611Y-76611557D01*
X116367457Y-76606426D01*
X144322066Y-48651819D01*
X144383389Y-48618334D01*
X144409747Y-48615500D01*
X148471696Y-48615500D01*
X148538735Y-48635185D01*
X148544581Y-48639182D01*
X148611379Y-48687713D01*
X148664949Y-48726634D01*
X148812445Y-48801787D01*
X148896423Y-48844577D01*
X148896425Y-48844577D01*
X148896428Y-48844579D01*
X149143507Y-48924860D01*
X149275706Y-48945797D01*
X149400098Y-48965500D01*
X149400103Y-48965500D01*
X149659902Y-48965500D01*
X149773298Y-48947539D01*
X149916493Y-48924860D01*
X150163572Y-48844579D01*
X150395051Y-48726634D01*
X150498025Y-48651819D01*
X150515419Y-48639182D01*
X150581225Y-48615702D01*
X150588304Y-48615500D01*
X150707451Y-48615500D01*
X150707452Y-48615500D01*
X150909635Y-48583477D01*
X151006976Y-48551848D01*
X151104319Y-48520220D01*
X151195514Y-48473753D01*
X151286711Y-48427287D01*
X151452319Y-48306966D01*
X153061966Y-46697319D01*
X153148373Y-46578389D01*
X153182287Y-46531710D01*
X153275220Y-46349319D01*
X153338477Y-46154634D01*
X153370500Y-45952452D01*
X153370500Y-33962958D01*
X153390185Y-33895919D01*
X153419014Y-33864582D01*
X153438641Y-33849522D01*
X153590080Y-33733319D01*
X153803319Y-33520080D01*
X153986900Y-33280832D01*
X154137683Y-33019668D01*
X154253087Y-32741058D01*
X154331138Y-32449768D01*
X154370500Y-32150783D01*
X154370500Y-31849217D01*
X154331138Y-31550232D01*
X154253087Y-31258942D01*
X154137683Y-30980332D01*
X154084209Y-30887713D01*
X153986900Y-30719168D01*
X153803320Y-30479921D01*
X153803314Y-30479914D01*
X153590085Y-30266685D01*
X153590078Y-30266679D01*
X153350831Y-30083099D01*
X153089671Y-29932318D01*
X153089661Y-29932314D01*
X152811060Y-29816913D01*
X152519766Y-29738861D01*
X152220793Y-29699501D01*
X152220788Y-29699500D01*
X152220783Y-29699500D01*
X151919217Y-29699500D01*
X151919211Y-29699500D01*
X151919206Y-29699501D01*
X151705437Y-29727644D01*
X151636402Y-29716878D01*
X151601571Y-29692386D01*
X150115521Y-28206336D01*
X150115519Y-28206334D01*
X149949911Y-28086013D01*
X149858714Y-28039546D01*
X149858712Y-28039545D01*
X149767523Y-27993081D01*
X149720815Y-27977904D01*
X149670176Y-27961451D01*
X149646303Y-27953694D01*
X149572835Y-27929822D01*
X149398295Y-27902178D01*
X149370652Y-27897800D01*
X35364051Y-27897800D01*
X35159348Y-27897800D01*
X35091953Y-27908474D01*
X34957163Y-27929823D01*
X34859823Y-27961450D01*
X34859823Y-27961451D01*
X34807052Y-27978597D01*
X34762474Y-27993082D01*
X34671284Y-28039545D01*
X34671285Y-28039546D01*
X34580088Y-28086013D01*
X34414478Y-28206336D01*
X32928427Y-29692386D01*
X32867104Y-29725871D01*
X32824561Y-29727644D01*
X32610793Y-29699501D01*
X32610788Y-29699500D01*
X32610783Y-29699500D01*
X32309217Y-29699500D01*
X32309211Y-29699500D01*
X32309206Y-29699501D01*
X32010233Y-29738861D01*
X31718939Y-29816913D01*
X31440338Y-29932314D01*
X31440328Y-29932318D01*
X31179168Y-30083099D01*
X30939921Y-30266679D01*
X30939914Y-30266685D01*
X30726685Y-30479914D01*
X30726679Y-30479921D01*
X30543099Y-30719168D01*
X30392318Y-30980328D01*
X30392314Y-30980338D01*
X30276913Y-31258939D01*
X30198861Y-31550233D01*
X30159501Y-31849206D01*
X30159500Y-31849223D01*
X30159500Y-32150776D01*
X30159501Y-32150793D01*
X30198861Y-32449766D01*
X30276913Y-32741060D01*
X30392314Y-33019661D01*
X30392318Y-33019671D01*
X30543099Y-33280831D01*
X30726679Y-33520078D01*
X30726685Y-33520085D01*
X30939914Y-33733314D01*
X30939921Y-33733320D01*
X31179168Y-33916900D01*
X31440328Y-34067681D01*
X31440329Y-34067681D01*
X31440332Y-34067683D01*
X31626072Y-34144619D01*
X31718939Y-34183086D01*
X31718940Y-34183086D01*
X31718942Y-34183087D01*
X32010232Y-34261138D01*
X32309217Y-34300500D01*
X32309224Y-34300500D01*
X32610776Y-34300500D01*
X32610783Y-34300500D01*
X32909768Y-34261138D01*
X33201058Y-34183087D01*
X33479668Y-34067683D01*
X33740832Y-33916900D01*
X33980080Y-33733319D01*
X34193319Y-33520080D01*
X34376900Y-33280832D01*
X34527683Y-33019668D01*
X34643087Y-32741058D01*
X34721138Y-32449768D01*
X34760500Y-32150783D01*
X34760500Y-31849217D01*
X34732354Y-31635434D01*
X34743119Y-31566403D01*
X34767609Y-31531574D01*
X35027820Y-31271364D01*
X35089142Y-31237880D01*
X35158834Y-31242864D01*
X35214767Y-31284736D01*
X35239184Y-31350200D01*
X35239500Y-31359046D01*
X35239500Y-33544960D01*
X35254630Y-33679249D01*
X35254631Y-33679254D01*
X35314211Y-33849523D01*
X35410184Y-34002262D01*
X35537738Y-34129816D01*
X35690478Y-34225789D01*
X35791500Y-34261138D01*
X35860745Y-34285368D01*
X35860749Y-34285369D01*
X35925187Y-34292629D01*
X35989601Y-34319695D01*
X36029156Y-34377289D01*
X36031295Y-34447126D01*
X35998985Y-34503530D01*
X30045336Y-40457178D01*
X29925013Y-40622788D01*
X29878546Y-40713985D01*
X29878545Y-40713984D01*
X29832079Y-40805181D01*
X29832079Y-40805182D01*
X29768823Y-40999861D01*
X29768823Y-40999864D01*
X29736800Y-41202048D01*
X20500500Y-41202048D01*
X20500500Y-20624500D01*
X20520185Y-20557461D01*
X20572989Y-20511706D01*
X20624500Y-20500500D01*
X164375500Y-20500500D01*
X164442539Y-20520185D01*
G37*
%TD.AperFunction*%
%TA.AperFunction,NonConductor*%
G36*
X44372019Y-30502826D02*
G01*
X44386289Y-30501998D01*
X44404878Y-30512475D01*
X44425346Y-30518485D01*
X44434703Y-30529284D01*
X44447157Y-30536303D01*
X44457131Y-30555167D01*
X44471101Y-30571289D01*
X44473134Y-30585434D01*
X44479816Y-30598070D01*
X44478008Y-30619329D01*
X44481045Y-30640447D01*
X44475107Y-30653447D01*
X44473897Y-30667689D01*
X44460882Y-30684595D01*
X44452020Y-30704003D01*
X44439611Y-30712230D01*
X44431279Y-30723055D01*
X44400078Y-30739553D01*
X44398367Y-30740164D01*
X44327623Y-30763151D01*
X44230281Y-30794780D01*
X44200964Y-30809718D01*
X44193903Y-30813315D01*
X44193902Y-30813316D01*
X44047887Y-30887714D01*
X44047884Y-30887716D01*
X43882278Y-31008036D01*
X32549481Y-42340834D01*
X32488158Y-42374319D01*
X32418466Y-42369335D01*
X32362533Y-42327463D01*
X32338116Y-42261999D01*
X32337800Y-42253153D01*
X32337800Y-41894445D01*
X32357485Y-41827406D01*
X32374114Y-41806769D01*
X38380150Y-35800732D01*
X38380157Y-35800727D01*
X38387217Y-35793667D01*
X38387219Y-35793666D01*
X38531966Y-35648919D01*
X38531968Y-35648915D01*
X38531971Y-35648913D01*
X38652286Y-35483311D01*
X38652287Y-35483310D01*
X38743014Y-35305248D01*
X38744919Y-35301845D01*
X38745220Y-35300919D01*
X38745221Y-35300918D01*
X38808477Y-35106234D01*
X38840501Y-34904051D01*
X38840501Y-34699348D01*
X38840501Y-34694947D01*
X38840500Y-34694932D01*
X38840500Y-34424500D01*
X38860185Y-34357461D01*
X38912989Y-34311706D01*
X38964500Y-34300500D01*
X39084957Y-34300500D01*
X39084958Y-34300499D01*
X39152104Y-34292934D01*
X39219249Y-34285369D01*
X39219252Y-34285368D01*
X39219255Y-34285368D01*
X39389522Y-34225789D01*
X39542262Y-34129816D01*
X39669816Y-34002262D01*
X39765789Y-33849522D01*
X39825368Y-33679255D01*
X39840500Y-33544954D01*
X39840500Y-30622800D01*
X39860185Y-30555761D01*
X39912989Y-30510006D01*
X39964500Y-30498800D01*
X44358307Y-30498800D01*
X44372019Y-30502826D01*
G37*
%TD.AperFunction*%
%TA.AperFunction,NonConductor*%
G36*
X104606792Y-45968085D02*
G01*
X104627434Y-45984719D01*
X105433360Y-46790645D01*
X105466845Y-46851968D01*
X105461861Y-46921660D01*
X105419989Y-46977593D01*
X105359563Y-47001546D01*
X105065172Y-47034716D01*
X105065156Y-47034718D01*
X104760501Y-47104253D01*
X104690762Y-47099980D01*
X104645228Y-47071043D01*
X103734266Y-46160081D01*
X103700781Y-46098758D01*
X103705765Y-46029066D01*
X103747637Y-45973133D01*
X103813101Y-45948716D01*
X103821947Y-45948400D01*
X104539753Y-45948400D01*
X104606792Y-45968085D01*
G37*
%TD.AperFunction*%
%TA.AperFunction,NonConductor*%
G36*
X64703192Y-44110185D02*
G01*
X64748947Y-44162989D01*
X64758891Y-44232147D01*
X64729866Y-44295703D01*
X64723834Y-44302181D01*
X61140836Y-47885178D01*
X61020516Y-48050784D01*
X61020514Y-48050787D01*
X60992627Y-48105517D01*
X60992612Y-48105548D01*
X60991761Y-48107219D01*
X60927580Y-48233181D01*
X60919078Y-48259348D01*
X60916661Y-48266783D01*
X60916659Y-48266790D01*
X60864322Y-48427868D01*
X60848111Y-48530220D01*
X60848111Y-48530221D01*
X60832300Y-48630043D01*
X60832300Y-50158053D01*
X60812615Y-50225092D01*
X60759811Y-50270847D01*
X60690653Y-50280791D01*
X60627097Y-50251766D01*
X60620619Y-50245734D01*
X56707921Y-46333036D01*
X56707919Y-46333034D01*
X56542311Y-46212713D01*
X56522685Y-46202713D01*
X56455609Y-46168536D01*
X56455605Y-46168534D01*
X56451114Y-46166246D01*
X56359919Y-46119780D01*
X56254416Y-46085500D01*
X56249963Y-46084053D01*
X56249953Y-46084049D01*
X56165232Y-46056522D01*
X55991880Y-46029066D01*
X55963052Y-46024500D01*
X55963051Y-46024500D01*
X36580810Y-46024500D01*
X36550841Y-46015700D01*
X36520376Y-46008776D01*
X36516729Y-46005683D01*
X36513771Y-46004815D01*
X36492319Y-45987364D01*
X36483113Y-45977986D01*
X36479816Y-45972738D01*
X36378986Y-45871908D01*
X36378613Y-45871528D01*
X36362387Y-45841147D01*
X36345938Y-45811022D01*
X36345980Y-45810426D01*
X36345698Y-45809897D01*
X36348471Y-45775589D01*
X36350922Y-45741330D01*
X36351298Y-45740628D01*
X36351329Y-45740254D01*
X36351904Y-45739500D01*
X36366786Y-45711778D01*
X36411634Y-45650051D01*
X36529579Y-45418572D01*
X36609860Y-45171493D01*
X36633134Y-45024541D01*
X36663063Y-44961406D01*
X36667908Y-44956275D01*
X37497366Y-44126819D01*
X37558689Y-44093334D01*
X37585047Y-44090500D01*
X64636153Y-44090500D01*
X64703192Y-44110185D01*
G37*
%TD.AperFunction*%
%TA.AperFunction,NonConductor*%
G36*
X149495703Y-31265334D02*
G01*
X149502181Y-31271366D01*
X149762386Y-31531571D01*
X149795871Y-31592894D01*
X149797644Y-31635437D01*
X149769501Y-31849206D01*
X149769500Y-31849223D01*
X149769500Y-32150776D01*
X149769501Y-32150793D01*
X149808861Y-32449766D01*
X149886913Y-32741060D01*
X150002314Y-33019661D01*
X150002318Y-33019671D01*
X150153099Y-33280831D01*
X150336679Y-33520078D01*
X150336685Y-33520085D01*
X150549914Y-33733314D01*
X150549921Y-33733320D01*
X150720986Y-33864582D01*
X150762189Y-33921010D01*
X150769500Y-33962958D01*
X150769500Y-43038437D01*
X150749815Y-43105476D01*
X150697011Y-43151231D01*
X150627853Y-43161175D01*
X150604547Y-43155479D01*
X150559260Y-43139633D01*
X150559249Y-43139630D01*
X150424960Y-43124500D01*
X150424954Y-43124500D01*
X148635046Y-43124500D01*
X148635039Y-43124500D01*
X148500750Y-43139630D01*
X148500745Y-43139631D01*
X148330476Y-43199211D01*
X148177737Y-43295184D01*
X148050183Y-43422738D01*
X148046135Y-43427815D01*
X147988946Y-43467954D01*
X147949190Y-43474500D01*
X142026951Y-43474500D01*
X141822248Y-43474500D01*
X141775379Y-43481923D01*
X141620068Y-43506522D01*
X141620067Y-43506522D01*
X141530536Y-43535613D01*
X141425383Y-43569778D01*
X141334184Y-43616245D01*
X141334185Y-43616246D01*
X141242988Y-43662713D01*
X141077378Y-43783036D01*
X136397234Y-48463181D01*
X136335911Y-48496666D01*
X136309553Y-48499500D01*
X127776142Y-48499500D01*
X127709103Y-48479815D01*
X127663348Y-48427011D01*
X127653404Y-48357853D01*
X127675824Y-48302615D01*
X127767177Y-48176877D01*
X127823870Y-48098845D01*
X127938241Y-47874379D01*
X128016090Y-47634785D01*
X128055500Y-47385962D01*
X128055500Y-47134038D01*
X128016090Y-46885215D01*
X127938241Y-46645621D01*
X127938239Y-46645618D01*
X127938239Y-46645616D01*
X127886998Y-46545051D01*
X127823870Y-46421155D01*
X127740239Y-46306046D01*
X127675798Y-46217350D01*
X127675794Y-46217345D01*
X127497654Y-46039205D01*
X127497649Y-46039201D01*
X127293848Y-45891132D01*
X127293847Y-45891131D01*
X127293845Y-45891130D01*
X127178418Y-45832317D01*
X127069383Y-45776760D01*
X126829785Y-45698910D01*
X126676930Y-45674700D01*
X126580962Y-45659500D01*
X125529038Y-45659500D01*
X125433076Y-45674699D01*
X125280214Y-45698910D01*
X125040616Y-45776760D01*
X124816151Y-45891132D01*
X124612350Y-46039201D01*
X124612345Y-46039205D01*
X124434205Y-46217345D01*
X124434201Y-46217350D01*
X124286132Y-46421151D01*
X124171760Y-46645616D01*
X124093910Y-46885214D01*
X124054500Y-47134038D01*
X124054500Y-47385961D01*
X124093910Y-47634785D01*
X124171760Y-47874383D01*
X124286132Y-48098848D01*
X124434201Y-48302649D01*
X124434205Y-48302654D01*
X124573870Y-48442319D01*
X124607355Y-48503642D01*
X124602371Y-48573334D01*
X124573870Y-48617681D01*
X124434205Y-48757345D01*
X124434201Y-48757350D01*
X124286132Y-48961151D01*
X124171760Y-49185616D01*
X124093910Y-49425214D01*
X124054500Y-49674038D01*
X124054500Y-49925961D01*
X124093910Y-50174785D01*
X124171760Y-50414383D01*
X124250413Y-50568747D01*
X124280832Y-50628448D01*
X124286132Y-50638848D01*
X124434176Y-50842615D01*
X124457656Y-50908421D01*
X124441830Y-50976475D01*
X124391724Y-51025170D01*
X124333858Y-51039500D01*
X123655652Y-51039500D01*
X123450948Y-51039500D01*
X123426629Y-51043351D01*
X123248765Y-51071522D01*
X123054076Y-51134781D01*
X122871686Y-51227715D01*
X122706086Y-51348028D01*
X122561332Y-51492782D01*
X122561328Y-51492787D01*
X122461518Y-51630165D01*
X122406188Y-51672831D01*
X122336575Y-51678810D01*
X122274780Y-51646204D01*
X122240423Y-51585366D01*
X122237200Y-51557280D01*
X122237200Y-48821248D01*
X122205178Y-48619072D01*
X122205177Y-48619071D01*
X122205177Y-48619066D01*
X122196863Y-48593477D01*
X122176238Y-48530000D01*
X122141923Y-48424386D01*
X122110606Y-48362924D01*
X122048987Y-48241990D01*
X122018116Y-48199500D01*
X122018116Y-48199499D01*
X121928669Y-48076385D01*
X121928668Y-48076384D01*
X121928666Y-48076381D01*
X121783919Y-47931634D01*
X121783918Y-47931633D01*
X121780807Y-47928522D01*
X121780792Y-47928508D01*
X120458659Y-46606374D01*
X120425174Y-46545051D01*
X120422937Y-46530844D01*
X120420300Y-46504069D01*
X120420300Y-46504066D01*
X120360232Y-46306046D01*
X120262685Y-46123550D01*
X120193462Y-46039201D01*
X120131410Y-45963589D01*
X119971452Y-45832317D01*
X119971453Y-45832317D01*
X119971450Y-45832315D01*
X119799917Y-45740628D01*
X119788956Y-45734769D01*
X119788955Y-45734768D01*
X119788954Y-45734768D01*
X119590934Y-45674700D01*
X119590932Y-45674699D01*
X119590934Y-45674699D01*
X119471805Y-45662966D01*
X119436608Y-45659500D01*
X117433392Y-45659500D01*
X117395298Y-45663251D01*
X117279067Y-45674699D01*
X117081043Y-45734769D01*
X117004676Y-45775589D01*
X116898550Y-45832315D01*
X116898548Y-45832316D01*
X116898547Y-45832317D01*
X116738589Y-45963589D01*
X116607317Y-46123547D01*
X116509769Y-46306043D01*
X116449699Y-46504067D01*
X116439623Y-46606374D01*
X116434500Y-46658392D01*
X116434500Y-47861608D01*
X116436822Y-47885181D01*
X116449699Y-48015932D01*
X116460272Y-48050787D01*
X116505383Y-48199500D01*
X116506856Y-48204353D01*
X116507479Y-48274220D01*
X116470231Y-48333333D01*
X116406936Y-48362924D01*
X116337692Y-48353597D01*
X116300514Y-48328029D01*
X109770521Y-41798036D01*
X109770519Y-41798034D01*
X109604911Y-41677713D01*
X109513714Y-41631246D01*
X109422523Y-41584781D01*
X109375815Y-41569604D01*
X109325176Y-41553151D01*
X109301303Y-41545394D01*
X109227835Y-41521522D01*
X109053295Y-41493878D01*
X109025652Y-41489500D01*
X109025651Y-41489500D01*
X37378547Y-41489500D01*
X37311508Y-41469815D01*
X37265753Y-41417011D01*
X37255809Y-41347853D01*
X37284834Y-41284297D01*
X37290866Y-41277819D01*
X45231866Y-33336819D01*
X45293189Y-33303334D01*
X45319547Y-33300500D01*
X144565500Y-33300500D01*
X144632539Y-33320185D01*
X144678294Y-33372989D01*
X144689500Y-33424500D01*
X144689500Y-33544960D01*
X144704630Y-33679249D01*
X144704631Y-33679254D01*
X144764211Y-33849523D01*
X144860184Y-34002262D01*
X144987738Y-34129816D01*
X145140478Y-34225789D01*
X145241500Y-34261138D01*
X145310745Y-34285368D01*
X145310750Y-34285369D01*
X145401246Y-34295565D01*
X145445040Y-34300499D01*
X145445043Y-34300500D01*
X145445046Y-34300500D01*
X148534957Y-34300500D01*
X148534958Y-34300499D01*
X148602104Y-34292934D01*
X148669249Y-34285369D01*
X148669252Y-34285368D01*
X148669255Y-34285368D01*
X148839522Y-34225789D01*
X148992262Y-34129816D01*
X149119816Y-34002262D01*
X149215789Y-33849522D01*
X149275368Y-33679255D01*
X149290500Y-33544954D01*
X149290500Y-31359046D01*
X149310185Y-31292008D01*
X149362989Y-31246253D01*
X149432147Y-31236309D01*
X149495703Y-31265334D01*
G37*
%TD.AperFunction*%
%TA.AperFunction,NonConductor*%
G36*
X101683592Y-47791785D02*
G01*
X101704234Y-47808419D01*
X102806043Y-48910228D01*
X102839528Y-48971551D01*
X102839253Y-49025501D01*
X102769718Y-49330156D01*
X102769716Y-49330172D01*
X102734500Y-49642722D01*
X102734500Y-49957277D01*
X102769716Y-50269827D01*
X102769718Y-50269843D01*
X102839710Y-50576499D01*
X102839711Y-50576501D01*
X102943598Y-50873395D01*
X103080072Y-51156786D01*
X103090253Y-51172989D01*
X103247423Y-51423123D01*
X103330809Y-51527685D01*
X103388388Y-51599887D01*
X103414797Y-51664574D01*
X103402040Y-51733269D01*
X103354170Y-51784163D01*
X103291441Y-51801200D01*
X81226747Y-51801200D01*
X81159708Y-51781515D01*
X81139066Y-51764881D01*
X80063956Y-50689771D01*
X80030471Y-50628448D01*
X80030746Y-50574497D01*
X80057469Y-50457415D01*
X80100282Y-50269840D01*
X80135500Y-49957273D01*
X80135500Y-49642727D01*
X80100282Y-49330160D01*
X80030289Y-49023500D01*
X79926402Y-48726606D01*
X79789926Y-48443211D01*
X79622577Y-48176877D01*
X79494229Y-48015934D01*
X79460320Y-47973413D01*
X79433911Y-47908726D01*
X79446668Y-47840031D01*
X79494538Y-47789137D01*
X79557267Y-47772100D01*
X101616553Y-47772100D01*
X101683592Y-47791785D01*
G37*
%TD.AperFunction*%
%TA.AperFunction,NonConductor*%
G36*
X67803692Y-51120185D02*
G01*
X67824334Y-51136819D01*
X79954534Y-63267019D01*
X79988019Y-63328342D01*
X79983035Y-63398034D01*
X79941163Y-63453967D01*
X79875699Y-63478384D01*
X79866853Y-63478700D01*
X76707747Y-63478700D01*
X76640708Y-63459015D01*
X76620066Y-63442381D01*
X65010404Y-51832719D01*
X64976919Y-51771396D01*
X64981903Y-51701704D01*
X65023775Y-51645771D01*
X65065989Y-51625264D01*
X65147207Y-51603502D01*
X65377373Y-51508164D01*
X65593127Y-51383599D01*
X65790776Y-51231938D01*
X65885896Y-51136817D01*
X65947217Y-51103334D01*
X65973576Y-51100500D01*
X67736653Y-51100500D01*
X67803692Y-51120185D01*
G37*
%TD.AperFunction*%
%TA.AperFunction,NonConductor*%
G36*
X80234792Y-66099385D02*
G01*
X80255434Y-66116019D01*
X82040834Y-67901419D01*
X82074319Y-67962742D01*
X82069335Y-68032434D01*
X82027463Y-68088367D01*
X81961999Y-68112784D01*
X81953153Y-68113100D01*
X78539346Y-68113100D01*
X78472307Y-68093415D01*
X78451665Y-68076781D01*
X76666265Y-66291381D01*
X76632780Y-66230058D01*
X76637764Y-66160366D01*
X76679636Y-66104433D01*
X76745100Y-66080016D01*
X76753946Y-66079700D01*
X80167753Y-66079700D01*
X80234792Y-66099385D01*
G37*
%TD.AperFunction*%
%TA.AperFunction,NonConductor*%
G36*
X56480702Y-49784633D02*
G01*
X56487180Y-49790665D01*
X76485835Y-69789319D01*
X76519320Y-69850642D01*
X76514336Y-69920334D01*
X76472464Y-69976267D01*
X76407000Y-70000684D01*
X76398154Y-70001000D01*
X53460647Y-70001000D01*
X53393608Y-69981315D01*
X53372966Y-69964681D01*
X34720466Y-51312181D01*
X34686981Y-51250858D01*
X34691965Y-51181166D01*
X34733837Y-51125233D01*
X34799301Y-51100816D01*
X34808147Y-51100500D01*
X52500325Y-51100500D01*
X52567364Y-51120185D01*
X52609681Y-51166044D01*
X52644711Y-51231579D01*
X52647317Y-51236454D01*
X52778589Y-51396410D01*
X52938545Y-51527682D01*
X52938549Y-51527685D01*
X53121045Y-51625232D01*
X53319065Y-51685300D01*
X53319064Y-51685300D01*
X53329968Y-51686373D01*
X53473391Y-51700500D01*
X55276608Y-51700499D01*
X55430935Y-51685300D01*
X55628955Y-51625232D01*
X55811451Y-51527685D01*
X55971410Y-51396410D01*
X56102685Y-51236451D01*
X56200232Y-51053955D01*
X56260300Y-50855935D01*
X56275500Y-50701609D01*
X56275499Y-49878345D01*
X56295183Y-49811307D01*
X56347987Y-49765552D01*
X56417146Y-49755608D01*
X56480702Y-49784633D01*
G37*
%TD.AperFunction*%
%TA.AperFunction,NonConductor*%
G36*
X108400292Y-44110185D02*
G01*
X108420934Y-44126819D01*
X115086081Y-50791966D01*
X115251689Y-50912287D01*
X115335619Y-50955051D01*
X115434081Y-51005220D01*
X115482010Y-51020793D01*
X115628765Y-51068477D01*
X115830948Y-51100500D01*
X116713858Y-51100500D01*
X116780897Y-51120185D01*
X116826652Y-51172989D01*
X116836596Y-51242147D01*
X116814176Y-51297385D01*
X116666132Y-51501151D01*
X116551760Y-51725616D01*
X116473910Y-51965214D01*
X116434500Y-52214038D01*
X116434500Y-52465961D01*
X116473910Y-52714785D01*
X116551760Y-52954383D01*
X116630413Y-53108747D01*
X116660680Y-53168149D01*
X116666132Y-53178848D01*
X116814201Y-53382649D01*
X116814205Y-53382654D01*
X116992345Y-53560794D01*
X116992350Y-53560798D01*
X117170117Y-53689952D01*
X117196155Y-53708870D01*
X117315578Y-53769719D01*
X117420616Y-53823239D01*
X117420618Y-53823239D01*
X117420621Y-53823241D01*
X117660215Y-53901090D01*
X117909038Y-53940500D01*
X118128153Y-53940500D01*
X118195192Y-53960185D01*
X118240947Y-54012989D01*
X118250891Y-54082147D01*
X118221866Y-54145703D01*
X118215834Y-54152181D01*
X97561333Y-74806680D01*
X97500010Y-74840165D01*
X97435334Y-74836930D01*
X97409301Y-74828471D01*
X97364486Y-74813910D01*
X97211624Y-74789699D01*
X97115662Y-74774500D01*
X96863738Y-74774500D01*
X96767776Y-74789699D01*
X96614914Y-74813910D01*
X96375316Y-74891760D01*
X96150851Y-75006132D01*
X95947050Y-75154201D01*
X95947045Y-75154205D01*
X95768905Y-75332345D01*
X95768901Y-75332350D01*
X95620832Y-75536151D01*
X95506460Y-75760616D01*
X95502309Y-75773392D01*
X95428610Y-76000215D01*
X95389200Y-76249038D01*
X95389200Y-76500962D01*
X95405901Y-76606408D01*
X95428610Y-76749785D01*
X95506460Y-76989383D01*
X95620832Y-77213848D01*
X95768901Y-77417649D01*
X95768905Y-77417654D01*
X95947044Y-77595793D01*
X95947050Y-77595798D01*
X96084154Y-77695409D01*
X96150855Y-77743870D01*
X96266286Y-77802685D01*
X96375316Y-77858239D01*
X96375318Y-77858239D01*
X96375321Y-77858241D01*
X96614915Y-77936090D01*
X96863738Y-77975500D01*
X96863739Y-77975500D01*
X97115661Y-77975500D01*
X97115662Y-77975500D01*
X97364485Y-77936090D01*
X97604079Y-77858241D01*
X97828545Y-77743870D01*
X97895247Y-77695407D01*
X97948731Y-77673254D01*
X98096601Y-77649833D01*
X98136730Y-77643478D01*
X98136730Y-77643477D01*
X98136735Y-77643477D01*
X98283490Y-77595793D01*
X98331419Y-77580220D01*
X98466388Y-77511450D01*
X98513811Y-77487287D01*
X98679419Y-77366966D01*
X121928666Y-54117719D01*
X122028482Y-53980334D01*
X122083812Y-53937668D01*
X122153425Y-53931689D01*
X122215220Y-53964295D01*
X122249577Y-54025133D01*
X122252800Y-54053219D01*
X122252800Y-59371352D01*
X122233115Y-59438391D01*
X122216481Y-59459033D01*
X106908290Y-74767223D01*
X106846967Y-74800708D01*
X106840009Y-74802015D01*
X106764917Y-74813909D01*
X106525318Y-74891760D01*
X106300851Y-75006132D01*
X106097050Y-75154201D01*
X106097045Y-75154205D01*
X105918905Y-75332345D01*
X105918901Y-75332350D01*
X105770832Y-75536151D01*
X105656460Y-75760618D01*
X105578609Y-76000217D01*
X105566715Y-76075309D01*
X105536785Y-76138443D01*
X105531923Y-76143590D01*
X100926134Y-80749381D01*
X100864811Y-80782866D01*
X100838453Y-80785700D01*
X92666947Y-80785700D01*
X92599908Y-80766015D01*
X92554153Y-80713211D01*
X92544209Y-80644053D01*
X92573234Y-80580497D01*
X92579266Y-80574019D01*
X93237066Y-79916219D01*
X94287866Y-78865419D01*
X94408187Y-78699811D01*
X94466608Y-78585152D01*
X94501120Y-78517419D01*
X94552846Y-78358223D01*
X94564377Y-78322735D01*
X94596400Y-78120552D01*
X94596400Y-77915849D01*
X94596400Y-74666848D01*
X94573717Y-74523634D01*
X94564377Y-74464665D01*
X94518141Y-74322366D01*
X94501120Y-74269981D01*
X94501118Y-74269978D01*
X94501118Y-74269976D01*
X94454653Y-74178785D01*
X94454652Y-74178784D01*
X94428615Y-74127682D01*
X94408187Y-74087589D01*
X94287866Y-73921981D01*
X69173919Y-48808034D01*
X69008311Y-48687713D01*
X68877341Y-48620981D01*
X68825919Y-48594780D01*
X68720416Y-48560500D01*
X68717099Y-48559422D01*
X68717083Y-48559416D01*
X68631232Y-48531522D01*
X68455203Y-48503642D01*
X68429052Y-48499500D01*
X68429051Y-48499500D01*
X67974047Y-48499500D01*
X67907008Y-48479815D01*
X67861253Y-48427011D01*
X67851309Y-48357853D01*
X67880334Y-48294297D01*
X67886366Y-48287819D01*
X68365766Y-47808419D01*
X68427089Y-47774934D01*
X68453447Y-47772100D01*
X75112733Y-47772100D01*
X75179772Y-47791785D01*
X75225527Y-47844589D01*
X75235471Y-47913747D01*
X75209680Y-47973413D01*
X75047422Y-48176878D01*
X74880072Y-48443213D01*
X74743598Y-48726604D01*
X74639711Y-49023498D01*
X74639710Y-49023500D01*
X74569718Y-49330156D01*
X74569716Y-49330172D01*
X74534500Y-49642722D01*
X74534500Y-49957277D01*
X74569716Y-50269827D01*
X74569718Y-50269843D01*
X74639710Y-50576499D01*
X74639711Y-50576501D01*
X74743598Y-50873395D01*
X74880072Y-51156786D01*
X74890253Y-51172989D01*
X75047423Y-51423123D01*
X75243539Y-51669044D01*
X75465956Y-51891461D01*
X75711877Y-52087577D01*
X75978211Y-52254926D01*
X76261606Y-52391402D01*
X76558500Y-52495289D01*
X76865160Y-52565282D01*
X77177723Y-52600499D01*
X77177724Y-52600500D01*
X77177727Y-52600500D01*
X77492276Y-52600500D01*
X77492276Y-52600499D01*
X77804840Y-52565282D01*
X78109497Y-52495746D01*
X78179236Y-52500019D01*
X78224771Y-52528956D01*
X79789481Y-54093666D01*
X79955089Y-54213987D01*
X80046285Y-54260453D01*
X80137481Y-54306920D01*
X80234823Y-54338548D01*
X80332165Y-54370177D01*
X80534348Y-54402200D01*
X80534349Y-54402200D01*
X107079851Y-54402200D01*
X107079852Y-54402200D01*
X107282035Y-54370177D01*
X107379376Y-54338548D01*
X107476719Y-54306920D01*
X107567914Y-54260453D01*
X107659111Y-54213987D01*
X107824719Y-54093666D01*
X109835566Y-52082819D01*
X109955887Y-51917211D01*
X110022606Y-51786266D01*
X110048820Y-51734819D01*
X110084427Y-51625232D01*
X110112077Y-51540135D01*
X110144100Y-51337952D01*
X110144100Y-51133248D01*
X110144100Y-48259348D01*
X110139956Y-48233182D01*
X110112077Y-48057165D01*
X110065787Y-47914700D01*
X110048820Y-47862481D01*
X110048818Y-47862478D01*
X110048818Y-47862476D01*
X109970383Y-47708539D01*
X109955886Y-47680088D01*
X109835566Y-47514481D01*
X106623266Y-44302181D01*
X106589781Y-44240858D01*
X106594765Y-44171166D01*
X106636637Y-44115233D01*
X106702101Y-44090816D01*
X106710947Y-44090500D01*
X108333253Y-44090500D01*
X108400292Y-44110185D01*
G37*
%TD.AperFunction*%
%TA.AperFunction,NonConductor*%
G36*
X142998589Y-46095185D02*
G01*
X143044344Y-46147989D01*
X143054288Y-46217147D01*
X143025263Y-46280703D01*
X143004435Y-46299818D01*
X142972484Y-46323031D01*
X142972478Y-46323036D01*
X114528290Y-74767223D01*
X114466967Y-74800708D01*
X114460009Y-74802015D01*
X114384917Y-74813909D01*
X114145318Y-74891760D01*
X113920851Y-75006132D01*
X113717050Y-75154201D01*
X113717045Y-75154205D01*
X113538905Y-75332345D01*
X113538901Y-75332350D01*
X113390832Y-75536151D01*
X113276460Y-75760618D01*
X113198609Y-76000217D01*
X113186715Y-76075309D01*
X113156785Y-76138443D01*
X113151923Y-76143590D01*
X106744434Y-82551081D01*
X106683111Y-82584566D01*
X106656753Y-82587400D01*
X103065847Y-82587400D01*
X102998808Y-82567715D01*
X102953053Y-82514911D01*
X102943109Y-82445753D01*
X102972134Y-82382197D01*
X102978166Y-82375719D01*
X103842301Y-81511584D01*
X107371110Y-77982773D01*
X107432431Y-77949290D01*
X107439345Y-77947990D01*
X107514485Y-77936090D01*
X107754079Y-77858241D01*
X107978545Y-77743870D01*
X108182356Y-77595793D01*
X108360493Y-77417656D01*
X108508570Y-77213845D01*
X108622941Y-76989379D01*
X108700790Y-76749785D01*
X108712684Y-76674687D01*
X108742611Y-76611557D01*
X108747457Y-76606426D01*
X124393450Y-60960432D01*
X124393457Y-60960427D01*
X124400517Y-60953367D01*
X124400519Y-60953366D01*
X124545266Y-60808619D01*
X124545268Y-60808615D01*
X124545271Y-60808613D01*
X124665586Y-60643011D01*
X124665587Y-60643010D01*
X124756314Y-60464948D01*
X124758219Y-60461545D01*
X124758520Y-60460619D01*
X124758521Y-60460618D01*
X124821777Y-60265934D01*
X124853800Y-60063751D01*
X124853800Y-59859048D01*
X124853800Y-53930400D01*
X124873485Y-53863361D01*
X124926289Y-53817606D01*
X124995447Y-53807662D01*
X125034098Y-53819917D01*
X125040621Y-53823241D01*
X125280215Y-53901090D01*
X125529038Y-53940500D01*
X125529039Y-53940500D01*
X126580961Y-53940500D01*
X126580962Y-53940500D01*
X126829785Y-53901090D01*
X127069379Y-53823241D01*
X127293845Y-53708870D01*
X127497656Y-53560793D01*
X127675793Y-53382656D01*
X127823870Y-53178845D01*
X127938241Y-52954379D01*
X128016090Y-52714785D01*
X128055500Y-52465962D01*
X128055500Y-52214038D01*
X128016090Y-51965215D01*
X127938241Y-51725621D01*
X127938239Y-51725618D01*
X127938239Y-51725616D01*
X127874176Y-51599887D01*
X127823870Y-51501155D01*
X127767177Y-51423123D01*
X127675824Y-51297385D01*
X127652344Y-51231579D01*
X127668170Y-51163525D01*
X127718276Y-51114830D01*
X127776142Y-51100500D01*
X137001951Y-51100500D01*
X137001952Y-51100500D01*
X137204135Y-51068477D01*
X137350890Y-51020793D01*
X137398819Y-51005220D01*
X137497281Y-50955051D01*
X137581211Y-50912287D01*
X137746819Y-50791966D01*
X142426966Y-46111819D01*
X142488289Y-46078334D01*
X142514647Y-46075500D01*
X142931550Y-46075500D01*
X142998589Y-46095185D01*
G37*
%TD.AperFunction*%
%TA.AperFunction,NonConductor*%
G36*
X79370592Y-76343485D02*
G01*
X79391234Y-76360119D01*
X85406834Y-82375719D01*
X85440319Y-82437042D01*
X85435335Y-82506734D01*
X85393463Y-82562667D01*
X85327999Y-82587084D01*
X85319153Y-82587400D01*
X82410946Y-82587400D01*
X82343907Y-82567715D01*
X82323265Y-82551081D01*
X78896519Y-79124334D01*
X78863034Y-79063011D01*
X78860200Y-79036653D01*
X78860200Y-78533303D01*
X78879885Y-78466264D01*
X78883864Y-78460442D01*
X78971334Y-78340051D01*
X79089279Y-78108572D01*
X79169560Y-77861493D01*
X79199666Y-77671410D01*
X79210200Y-77604902D01*
X79210200Y-77045097D01*
X79188647Y-76909021D01*
X79169560Y-76788507D01*
X79089279Y-76541428D01*
X79070255Y-76504092D01*
X79069747Y-76501389D01*
X79067947Y-76499311D01*
X79063338Y-76467261D01*
X79057360Y-76435426D01*
X79058394Y-76432876D01*
X79058003Y-76430153D01*
X79071456Y-76400694D01*
X79083636Y-76370685D01*
X79085885Y-76369099D01*
X79087028Y-76366597D01*
X79114271Y-76349088D01*
X79140743Y-76330428D01*
X79144199Y-76329855D01*
X79145806Y-76328823D01*
X79180741Y-76323800D01*
X79303553Y-76323800D01*
X79370592Y-76343485D01*
G37*
%TD.AperFunction*%
M02*
