%TF.GenerationSoftware,KiCad,Pcbnew,9.0.6*%
%TF.CreationDate,2026-06-10T01:14:44+02:00*%
%TF.ProjectId,boost,626f6f73-742e-46b6-9963-61645f706362,rev?*%
%TF.SameCoordinates,Original*%
%TF.FileFunction,Copper,L2,Bot*%
%TF.FilePolarity,Positive*%
%FSLAX46Y46*%
G04 Gerber Fmt 4.6, Leading zero omitted, Abs format (unit mm)*
G04 Created by KiCad (PCBNEW 9.0.6) date 2026-06-10 01:14:44*
%MOMM*%
%LPD*%
G01*
G04 APERTURE LIST*
G04 Aperture macros list*
%AMRoundRect*
0 Rectangle with rounded corners*
0 $1 Rounding radius*
0 $2 $3 $4 $5 $6 $7 $8 $9 X,Y pos of 4 corners*
0 Add a 4 corners polygon primitive as box body*
4,1,4,$2,$3,$4,$5,$6,$7,$8,$9,$2,$3,0*
0 Add four circle primitives for the rounded corners*
1,1,$1+$1,$2,$3*
1,1,$1+$1,$4,$5*
1,1,$1+$1,$6,$7*
1,1,$1+$1,$8,$9*
0 Add four rect primitives between the rounded corners*
20,1,$1+$1,$2,$3,$4,$5,0*
20,1,$1+$1,$4,$5,$6,$7,0*
20,1,$1+$1,$6,$7,$8,$9,0*
20,1,$1+$1,$8,$9,$2,$3,0*%
G04 Aperture macros list end*
%TA.AperFunction,ComponentPad*%
%ADD10R,3.000000X3.000000*%
%TD*%
%TA.AperFunction,ComponentPad*%
%ADD11C,3.000000*%
%TD*%
%TA.AperFunction,ComponentPad*%
%ADD12R,1.700000X1.700000*%
%TD*%
%TA.AperFunction,ComponentPad*%
%ADD13C,1.700000*%
%TD*%
%TA.AperFunction,ComponentPad*%
%ADD14C,1.600000*%
%TD*%
%TA.AperFunction,ComponentPad*%
%ADD15RoundRect,0.250000X-0.950000X-0.550000X0.950000X-0.550000X0.950000X0.550000X-0.950000X0.550000X0*%
%TD*%
%TA.AperFunction,ComponentPad*%
%ADD16O,2.400000X1.600000*%
%TD*%
%TA.AperFunction,ComponentPad*%
%ADD17RoundRect,0.249999X-0.850001X-0.850001X0.850001X-0.850001X0.850001X0.850001X-0.850001X0.850001X0*%
%TD*%
%TA.AperFunction,ComponentPad*%
%ADD18C,2.200000*%
%TD*%
%TA.AperFunction,ComponentPad*%
%ADD19R,1.700000X2.000000*%
%TD*%
%TA.AperFunction,ComponentPad*%
%ADD20O,1.700000X2.000000*%
%TD*%
%TA.AperFunction,ComponentPad*%
%ADD21RoundRect,0.250000X-0.550000X-0.550000X0.550000X-0.550000X0.550000X0.550000X-0.550000X0.550000X0*%
%TD*%
%TA.AperFunction,ComponentPad*%
%ADD22C,2.600000*%
%TD*%
%TA.AperFunction,Conductor*%
%ADD23C,1.000000*%
%TD*%
G04 APERTURE END LIST*
D10*
%TO.P,J1,1*%
%TO.N,/VIN_5V*%
X37540000Y-32000000D03*
D11*
%TO.P,J1,2*%
%TO.N,GND*%
X32460000Y-32000000D03*
%TD*%
D12*
%TO.P,J3,1*%
%TO.N,PWM*%
X35000000Y-47325000D03*
D13*
%TO.P,J3,2*%
%TO.N,GND_MCU*%
X35000000Y-44785000D03*
%TD*%
D14*
%TO.P,R1,1*%
%TO.N,PWM*%
X89369700Y-52325000D03*
%TO.P,R1,2*%
%TO.N,Net-(R1-Pad2)*%
X96989700Y-52325000D03*
%TD*%
D15*
%TO.P,U1,1*%
%TO.N,Net-(R1-Pad2)*%
X93935000Y-35235000D03*
D16*
%TO.P,U1,2*%
%TO.N,GND_MCU*%
X93935000Y-37775000D03*
%TO.P,U1,3*%
%TO.N,N/C*%
X93935000Y-40315000D03*
%TO.P,U1,4*%
%TO.N,GATE*%
X101555000Y-40315000D03*
%TO.P,U1,5*%
%TO.N,+12V*%
X101555000Y-37775000D03*
%TO.P,U1,6*%
%TO.N,N/C*%
X101555000Y-35235000D03*
%TD*%
D17*
%TO.P,D1,1*%
%TO.N,/VOUT_V2*%
X54375000Y-37775000D03*
D18*
%TO.P,D1,2*%
%TO.N,Net-(D1-A)*%
X64535000Y-37775000D03*
%TD*%
D10*
%TO.P,J2,1*%
%TO.N,/VOUT_V2*%
X122490000Y-32000000D03*
D11*
%TO.P,J2,2*%
%TO.N,GND*%
X127570000Y-32000000D03*
%TD*%
D14*
%TO.P,R2,1*%
%TO.N,GATE*%
X54075000Y-63125000D03*
%TO.P,R2,2*%
%TO.N,GND*%
X61695000Y-63125000D03*
%TD*%
D19*
%TO.P,M1,1*%
%TO.N,GATE*%
X72479700Y-53275000D03*
D20*
%TO.P,M1,2*%
%TO.N,Net-(D1-A)*%
X75019700Y-53275000D03*
%TO.P,M1,3*%
%TO.N,GND*%
X77559700Y-53275000D03*
%TD*%
D12*
%TO.P,J4,1*%
%TO.N,+12V*%
X125030000Y-44775000D03*
D13*
%TO.P,J4,2*%
%TO.N,GND*%
X125030000Y-47315000D03*
%TD*%
D21*
%TO.P,C1,1*%
%TO.N,/VOUT_V2*%
X55719700Y-52325000D03*
D14*
%TO.P,C1,2*%
%TO.N,GND*%
X59219700Y-52325000D03*
%TD*%
D22*
%TO.P,L1,1*%
%TO.N,/VIN_5V*%
X76685000Y-37775000D03*
%TO.P,L1,2*%
%TO.N,Net-(D1-A)*%
X81685000Y-37775000D03*
%TD*%
D23*
%TO.N,+12V*%
X115878300Y-37775000D02*
X101555000Y-37775000D01*
X125030000Y-44775000D02*
X122878300Y-44775000D01*
X122878300Y-44775000D02*
X115878300Y-37775000D01*
%TO.N,/VIN_5V*%
X35951200Y-54432100D02*
X31023300Y-49504200D01*
X31023300Y-41318400D02*
X37540000Y-34801700D01*
X37540000Y-32000000D02*
X37540000Y-34801700D01*
X60124900Y-54432100D02*
X35951200Y-54432100D01*
X31023300Y-49504200D02*
X31023300Y-41318400D01*
X76685000Y-37775000D02*
X76685000Y-37872000D01*
X76685000Y-37872000D02*
X60124900Y-54432100D01*
%TO.N,/VOUT_V2*%
X54375000Y-49498200D02*
X54375000Y-37775000D01*
X122490000Y-32000000D02*
X119688300Y-32000000D01*
X33565300Y-49498200D02*
X32825000Y-48757900D01*
X55719700Y-52325000D02*
X55719700Y-50842900D01*
X32825000Y-48757900D02*
X32825000Y-43864600D01*
X32825000Y-43864600D02*
X48799400Y-27890200D01*
X115578500Y-27890200D02*
X119688300Y-32000000D01*
X48799400Y-27890200D02*
X115578500Y-27890200D01*
X55719700Y-50842900D02*
X54375000Y-49498200D01*
X54375000Y-49498200D02*
X33565300Y-49498200D01*
%TO.N,GATE*%
X99053300Y-50773600D02*
X99053300Y-40315000D01*
X54075000Y-63125000D02*
X56198600Y-65248600D01*
X99130300Y-53158800D02*
X99130300Y-50850600D01*
X99130300Y-50850600D02*
X99053300Y-50773600D01*
X101555000Y-40315000D02*
X99053300Y-40315000D01*
X87040500Y-65248600D02*
X99130300Y-53158800D01*
X56198600Y-65248600D02*
X87040500Y-65248600D01*
X63925000Y-53275000D02*
X72479700Y-53275000D01*
X54075000Y-63125000D02*
X63925000Y-53275000D01*
%TO.N,GND*%
X70009900Y-63125000D02*
X61695000Y-63125000D01*
X59219700Y-39693700D02*
X65618100Y-33295300D01*
X127570000Y-32000000D02*
X127570000Y-45875200D01*
X84333200Y-36743100D02*
X84333200Y-48653200D01*
X127570000Y-32000000D02*
X121658500Y-26088500D01*
X126130200Y-47315000D02*
X125030000Y-47315000D01*
X84333200Y-48653200D02*
X79711400Y-53275000D01*
X59219700Y-52325000D02*
X59219700Y-39693700D01*
X121658500Y-26088500D02*
X38371500Y-26088500D01*
X80885400Y-33295300D02*
X84333200Y-36743100D01*
X65618100Y-33295300D02*
X80885400Y-33295300D01*
X127570000Y-45875200D02*
X126130200Y-47315000D01*
X77559700Y-55575200D02*
X70009900Y-63125000D01*
X77559700Y-53275000D02*
X79711400Y-53275000D01*
X77559700Y-53275000D02*
X77559700Y-55575200D01*
X38371500Y-26088500D02*
X32460000Y-32000000D01*
%TO.N,GND_MCU*%
X90540700Y-37775000D02*
X93935000Y-37775000D01*
X35000000Y-44785000D02*
X50093100Y-29691900D01*
X50093100Y-29691900D02*
X82457600Y-29691900D01*
X82457600Y-29691900D02*
X90540700Y-37775000D01*
%TO.N,Net-(D1-A)*%
X79052600Y-35142600D02*
X81685000Y-37775000D01*
X67167400Y-35142600D02*
X79052600Y-35142600D01*
X75019700Y-44440300D02*
X81685000Y-37775000D01*
X75019700Y-53275000D02*
X75019700Y-44440300D01*
X64535000Y-37775000D02*
X67167400Y-35142600D01*
%TO.N,Net-(R1-Pad2)*%
X94846000Y-35235000D02*
X96989700Y-37378700D01*
X93935000Y-35235000D02*
X94846000Y-35235000D01*
X96989700Y-37378700D02*
X96989700Y-52325000D01*
%TO.N,PWM*%
X89369700Y-39152000D02*
X81711300Y-31493600D01*
X81711300Y-31493600D02*
X56698800Y-31493600D01*
X40867400Y-47325000D02*
X35000000Y-47325000D01*
X56698800Y-31493600D02*
X40867400Y-47325000D01*
X89369700Y-52325000D02*
X89369700Y-39152000D01*
%TD*%
%TA.AperFunction,NonConductor*%
G36*
X140442539Y-20520185D02*
G01*
X140488294Y-20572989D01*
X140499500Y-20624500D01*
X140499500Y-75375500D01*
X140479815Y-75442539D01*
X140427011Y-75488294D01*
X140375500Y-75499500D01*
X20624500Y-75499500D01*
X20557461Y-75479815D01*
X20511706Y-75427011D01*
X20500500Y-75375500D01*
X20500500Y-41216048D01*
X29722800Y-41216048D01*
X29722800Y-49606551D01*
X29754822Y-49808731D01*
X29754823Y-49808736D01*
X29770966Y-49858420D01*
X29770967Y-49858420D01*
X29818080Y-50003419D01*
X29818081Y-50003420D01*
X29818082Y-50003424D01*
X29829778Y-50026377D01*
X29911013Y-50185811D01*
X30031334Y-50351419D01*
X35103981Y-55424066D01*
X35269589Y-55544387D01*
X35360785Y-55590853D01*
X35451981Y-55637320D01*
X35549323Y-55668948D01*
X35646665Y-55700577D01*
X35848848Y-55732600D01*
X59328854Y-55732600D01*
X59395893Y-55752285D01*
X59441648Y-55805089D01*
X59451592Y-55874247D01*
X59422567Y-55937803D01*
X59416535Y-55944281D01*
X53843590Y-61517223D01*
X53782267Y-61550708D01*
X53775309Y-61552015D01*
X53700217Y-61563909D01*
X53460618Y-61641760D01*
X53236151Y-61756132D01*
X53032350Y-61904201D01*
X53032345Y-61904205D01*
X52854205Y-62082345D01*
X52854201Y-62082350D01*
X52706132Y-62286151D01*
X52591760Y-62510616D01*
X52513910Y-62750214D01*
X52474500Y-62999038D01*
X52474500Y-63250961D01*
X52513910Y-63499785D01*
X52591760Y-63739383D01*
X52706132Y-63963848D01*
X52854201Y-64167649D01*
X52854205Y-64167654D01*
X53032345Y-64345794D01*
X53032350Y-64345798D01*
X53210117Y-64474952D01*
X53236155Y-64493870D01*
X53379184Y-64566747D01*
X53460616Y-64608239D01*
X53460618Y-64608239D01*
X53460621Y-64608241D01*
X53589049Y-64649970D01*
X53700214Y-64686090D01*
X53739439Y-64692302D01*
X53775306Y-64697983D01*
X53838441Y-64727912D01*
X53843590Y-64732775D01*
X55351381Y-66240566D01*
X55516989Y-66360887D01*
X55608185Y-66407353D01*
X55699381Y-66453820D01*
X55796723Y-66485448D01*
X55894065Y-66517077D01*
X56096248Y-66549100D01*
X56096249Y-66549100D01*
X87142851Y-66549100D01*
X87142852Y-66549100D01*
X87345035Y-66517077D01*
X87442376Y-66485448D01*
X87539719Y-66453820D01*
X87630914Y-66407353D01*
X87722111Y-66360887D01*
X87887719Y-66240566D01*
X100122266Y-54006019D01*
X100242587Y-53840411D01*
X100317253Y-53693870D01*
X100335520Y-53658019D01*
X100371984Y-53545793D01*
X100398777Y-53463335D01*
X100430800Y-53261152D01*
X100430800Y-53056449D01*
X100430800Y-50748248D01*
X100398777Y-50546066D01*
X100398776Y-50546064D01*
X100398777Y-50546064D01*
X100359869Y-50426320D01*
X100353800Y-50388001D01*
X100353800Y-41905400D01*
X100373485Y-41838361D01*
X100426289Y-41792606D01*
X100495447Y-41782662D01*
X100534098Y-41794917D01*
X100540621Y-41798241D01*
X100780215Y-41876090D01*
X101029038Y-41915500D01*
X101029039Y-41915500D01*
X102080961Y-41915500D01*
X102080962Y-41915500D01*
X102329785Y-41876090D01*
X102569379Y-41798241D01*
X102793845Y-41683870D01*
X102997656Y-41535793D01*
X103175793Y-41357656D01*
X103323870Y-41153845D01*
X103438241Y-40929379D01*
X103516090Y-40689785D01*
X103555500Y-40440962D01*
X103555500Y-40189038D01*
X103516090Y-39940215D01*
X103438241Y-39700621D01*
X103438239Y-39700618D01*
X103438239Y-39700616D01*
X103354423Y-39536119D01*
X103323870Y-39476155D01*
X103309200Y-39455963D01*
X103175824Y-39272385D01*
X103152344Y-39206579D01*
X103168170Y-39138525D01*
X103218276Y-39089830D01*
X103276142Y-39075500D01*
X115288253Y-39075500D01*
X115355292Y-39095185D01*
X115375934Y-39111819D01*
X122031081Y-45766966D01*
X122196689Y-45887287D01*
X122287885Y-45933753D01*
X122379081Y-45980220D01*
X122476423Y-46011848D01*
X122573765Y-46043477D01*
X122775948Y-46075500D01*
X123449190Y-46075500D01*
X123479158Y-46084299D01*
X123509624Y-46091224D01*
X123513270Y-46094316D01*
X123516229Y-46095185D01*
X123537681Y-46112636D01*
X123546886Y-46122013D01*
X123550184Y-46127262D01*
X123651012Y-46228090D01*
X123651386Y-46228471D01*
X123667611Y-46258851D01*
X123684061Y-46288977D01*
X123684018Y-46289572D01*
X123684301Y-46290102D01*
X123681527Y-46324409D01*
X123679077Y-46358669D01*
X123678700Y-46359370D01*
X123678670Y-46359745D01*
X123678094Y-46360498D01*
X123663214Y-46388219D01*
X123618367Y-46449946D01*
X123500422Y-46681423D01*
X123420140Y-46928506D01*
X123379500Y-47185097D01*
X123379500Y-47444902D01*
X123420140Y-47701493D01*
X123500422Y-47948576D01*
X123558803Y-48063153D01*
X123618366Y-48180051D01*
X123771069Y-48390229D01*
X123954771Y-48573931D01*
X124164949Y-48726634D01*
X124312445Y-48801787D01*
X124396423Y-48844577D01*
X124396425Y-48844577D01*
X124396428Y-48844579D01*
X124643507Y-48924860D01*
X124775706Y-48945797D01*
X124900098Y-48965500D01*
X124900103Y-48965500D01*
X125159902Y-48965500D01*
X125273298Y-48947539D01*
X125416493Y-48924860D01*
X125663572Y-48844579D01*
X125895051Y-48726634D01*
X125977806Y-48666508D01*
X126015419Y-48639182D01*
X126081225Y-48615702D01*
X126088304Y-48615500D01*
X126232551Y-48615500D01*
X126232552Y-48615500D01*
X126434735Y-48583477D01*
X126535153Y-48550849D01*
X126629419Y-48520220D01*
X126720614Y-48473753D01*
X126811811Y-48427287D01*
X126977419Y-48306966D01*
X128410150Y-46874232D01*
X128410157Y-46874227D01*
X128417217Y-46867167D01*
X128417219Y-46867166D01*
X128561966Y-46722419D01*
X128561968Y-46722415D01*
X128561971Y-46722413D01*
X128614732Y-46649790D01*
X128682287Y-46556810D01*
X128775221Y-46374418D01*
X128838477Y-46179734D01*
X128864648Y-46014500D01*
X128870500Y-45977552D01*
X128870500Y-33962958D01*
X128890185Y-33895919D01*
X128919014Y-33864582D01*
X128938641Y-33849522D01*
X129090080Y-33733319D01*
X129303319Y-33520080D01*
X129486900Y-33280832D01*
X129637683Y-33019668D01*
X129753087Y-32741058D01*
X129831138Y-32449768D01*
X129870500Y-32150783D01*
X129870500Y-31849217D01*
X129831138Y-31550232D01*
X129753087Y-31258942D01*
X129637683Y-30980332D01*
X129486900Y-30719168D01*
X129303319Y-30479920D01*
X129303314Y-30479914D01*
X129090085Y-30266685D01*
X129090078Y-30266679D01*
X128850831Y-30083099D01*
X128589671Y-29932318D01*
X128589661Y-29932314D01*
X128311060Y-29816913D01*
X128019766Y-29738861D01*
X127720793Y-29699501D01*
X127720788Y-29699500D01*
X127720783Y-29699500D01*
X127419217Y-29699500D01*
X127419211Y-29699500D01*
X127419206Y-29699501D01*
X127205437Y-29727644D01*
X127136402Y-29716878D01*
X127101571Y-29692386D01*
X122505721Y-25096536D01*
X122505719Y-25096534D01*
X122340111Y-24976213D01*
X122248914Y-24929746D01*
X122157723Y-24883281D01*
X122111015Y-24868104D01*
X122060376Y-24851651D01*
X122036503Y-24843894D01*
X121963035Y-24820022D01*
X121788495Y-24792378D01*
X121760852Y-24788000D01*
X38269148Y-24788000D01*
X38244829Y-24791851D01*
X38066965Y-24820022D01*
X37872276Y-24883281D01*
X37733780Y-24953849D01*
X37689890Y-24976213D01*
X37689889Y-24976214D01*
X37681991Y-24981952D01*
X37681990Y-24981951D01*
X37681990Y-24981952D01*
X37524286Y-25096528D01*
X37524282Y-25096532D01*
X32928427Y-29692386D01*
X32867104Y-29725871D01*
X32824561Y-29727644D01*
X32610793Y-29699501D01*
X32610788Y-29699500D01*
X32610783Y-29699500D01*
X32309217Y-29699500D01*
X32309211Y-29699500D01*
X32309206Y-29699501D01*
X32010233Y-29738861D01*
X31718939Y-29816913D01*
X31440338Y-29932314D01*
X31440328Y-29932318D01*
X31179168Y-30083099D01*
X30939921Y-30266679D01*
X30939914Y-30266685D01*
X30726685Y-30479914D01*
X30726679Y-30479921D01*
X30543099Y-30719168D01*
X30392318Y-30980328D01*
X30392314Y-30980338D01*
X30276913Y-31258939D01*
X30198861Y-31550233D01*
X30159501Y-31849206D01*
X30159500Y-31849223D01*
X30159500Y-32150776D01*
X30159501Y-32150793D01*
X30198861Y-32449766D01*
X30276913Y-32741060D01*
X30392314Y-33019661D01*
X30392318Y-33019671D01*
X30543099Y-33280831D01*
X30726679Y-33520078D01*
X30726685Y-33520085D01*
X30939914Y-33733314D01*
X30939921Y-33733320D01*
X31179168Y-33916900D01*
X31440328Y-34067681D01*
X31440329Y-34067681D01*
X31440332Y-34067683D01*
X31626072Y-34144619D01*
X31718939Y-34183086D01*
X31718940Y-34183086D01*
X31718942Y-34183087D01*
X32010232Y-34261138D01*
X32309217Y-34300500D01*
X32309224Y-34300500D01*
X32610776Y-34300500D01*
X32610783Y-34300500D01*
X32909768Y-34261138D01*
X33201058Y-34183087D01*
X33479668Y-34067683D01*
X33740832Y-33916900D01*
X33980080Y-33733319D01*
X34193319Y-33520080D01*
X34376900Y-33280832D01*
X34527683Y-33019668D01*
X34643087Y-32741058D01*
X34721138Y-32449768D01*
X34760500Y-32150783D01*
X34760500Y-31849217D01*
X34732354Y-31635434D01*
X34743119Y-31566403D01*
X34767609Y-31531574D01*
X35027820Y-31271364D01*
X35089142Y-31237880D01*
X35158834Y-31242864D01*
X35214767Y-31284736D01*
X35239184Y-31350200D01*
X35239500Y-31359046D01*
X35239500Y-33544960D01*
X35254630Y-33679249D01*
X35254631Y-33679254D01*
X35314211Y-33849523D01*
X35410184Y-34002262D01*
X35537738Y-34129816D01*
X35690478Y-34225789D01*
X35791500Y-34261138D01*
X35860745Y-34285368D01*
X35860750Y-34285369D01*
X35925186Y-34292629D01*
X35989600Y-34319695D01*
X36029155Y-34377290D01*
X36031293Y-34447127D01*
X35998984Y-34503530D01*
X30031336Y-40471178D01*
X29911013Y-40636788D01*
X29864546Y-40727985D01*
X29864545Y-40727984D01*
X29818079Y-40819181D01*
X29818079Y-40819182D01*
X29754823Y-41013861D01*
X29754823Y-41013864D01*
X29722800Y-41216048D01*
X20500500Y-41216048D01*
X20500500Y-20624500D01*
X20520185Y-20557461D01*
X20572989Y-20511706D01*
X20624500Y-20500500D01*
X140375500Y-20500500D01*
X140442539Y-20520185D01*
G37*
%TD.AperFunction*%
%TA.AperFunction,NonConductor*%
G36*
X121135492Y-27408685D02*
G01*
X121156134Y-27425319D01*
X123218634Y-29487819D01*
X123252119Y-29549142D01*
X123247135Y-29618834D01*
X123205263Y-29674767D01*
X123139799Y-29699184D01*
X123130953Y-29699500D01*
X120945039Y-29699500D01*
X120810750Y-29714630D01*
X120810745Y-29714631D01*
X120640476Y-29774211D01*
X120487737Y-29870184D01*
X120360184Y-29997737D01*
X120264211Y-30150476D01*
X120204631Y-30320745D01*
X120204631Y-30320748D01*
X120197370Y-30385188D01*
X120170303Y-30449601D01*
X120112708Y-30489156D01*
X120042871Y-30491293D01*
X119986469Y-30458984D01*
X117128166Y-27600681D01*
X117094681Y-27539358D01*
X117099665Y-27469666D01*
X117141537Y-27413733D01*
X117207001Y-27389316D01*
X117215847Y-27389000D01*
X121068453Y-27389000D01*
X121135492Y-27408685D01*
G37*
%TD.AperFunction*%
%TA.AperFunction,NonConductor*%
G36*
X78771376Y-36700561D02*
G01*
X79555643Y-37484828D01*
X79589128Y-37546151D01*
X79590902Y-37588691D01*
X79584502Y-37637315D01*
X79584500Y-37637329D01*
X79584500Y-37912667D01*
X79584501Y-37912684D01*
X79590902Y-37961304D01*
X79580136Y-38030339D01*
X79555644Y-38065170D01*
X78771376Y-38849438D01*
X78710053Y-38882923D01*
X78640361Y-38877939D01*
X78584428Y-38836067D01*
X78560011Y-38770603D01*
X78571884Y-38709984D01*
X78571370Y-38709771D01*
X78572424Y-38707224D01*
X78572488Y-38706902D01*
X78572916Y-38706031D01*
X78572923Y-38706021D01*
X78678295Y-38451632D01*
X78749560Y-38185666D01*
X78785500Y-37912674D01*
X78785500Y-37637326D01*
X78749560Y-37364334D01*
X78678295Y-37098368D01*
X78587629Y-36879482D01*
X78572920Y-36843971D01*
X78572484Y-36843087D01*
X78572433Y-36842795D01*
X78571370Y-36840229D01*
X78571944Y-36839991D01*
X78560486Y-36774255D01*
X78587607Y-36709864D01*
X78645235Y-36670357D01*
X78715074Y-36668278D01*
X78771376Y-36700561D01*
G37*
%TD.AperFunction*%
%TA.AperFunction,NonConductor*%
G36*
X47229092Y-27408685D02*
G01*
X47274847Y-27461489D01*
X47284791Y-27530647D01*
X47255766Y-27594203D01*
X47249734Y-27600681D01*
X32535481Y-42314934D01*
X32474158Y-42348419D01*
X32404466Y-42343435D01*
X32348533Y-42301563D01*
X32324116Y-42236099D01*
X32323800Y-42227253D01*
X32323800Y-41908447D01*
X32343485Y-41841408D01*
X32360119Y-41820766D01*
X35410282Y-38770603D01*
X38531967Y-35648918D01*
X38652287Y-35483310D01*
X38745221Y-35300918D01*
X38808477Y-35106234D01*
X38840501Y-34904051D01*
X38840501Y-34699348D01*
X38840501Y-34694947D01*
X38840500Y-34694932D01*
X38840500Y-34424500D01*
X38860185Y-34357461D01*
X38912989Y-34311706D01*
X38964500Y-34300500D01*
X39084957Y-34300500D01*
X39084958Y-34300499D01*
X39152104Y-34292934D01*
X39219249Y-34285369D01*
X39219252Y-34285368D01*
X39219255Y-34285368D01*
X39389522Y-34225789D01*
X39542262Y-34129816D01*
X39669816Y-34002262D01*
X39765789Y-33849522D01*
X39825368Y-33679255D01*
X39825971Y-33673910D01*
X39840499Y-33544960D01*
X39840500Y-33544956D01*
X39840500Y-30455043D01*
X39840499Y-30455039D01*
X39825369Y-30320750D01*
X39825368Y-30320745D01*
X39765789Y-30150478D01*
X39669816Y-29997738D01*
X39542262Y-29870184D01*
X39457482Y-29816913D01*
X39389523Y-29774211D01*
X39219254Y-29714631D01*
X39219249Y-29714630D01*
X39084960Y-29699500D01*
X39084954Y-29699500D01*
X36899047Y-29699500D01*
X36832008Y-29679815D01*
X36786253Y-29627011D01*
X36776309Y-29557853D01*
X36805334Y-29494297D01*
X36811366Y-29487819D01*
X38873866Y-27425319D01*
X38935189Y-27391834D01*
X38961547Y-27389000D01*
X47162053Y-27389000D01*
X47229092Y-27408685D01*
G37*
%TD.AperFunction*%
%TA.AperFunction,NonConductor*%
G36*
X115055492Y-29210385D02*
G01*
X115076134Y-29227019D01*
X118841081Y-32991966D01*
X119006689Y-33112287D01*
X119097885Y-33158753D01*
X119189081Y-33205220D01*
X119286423Y-33236848D01*
X119383765Y-33268477D01*
X119585948Y-33300500D01*
X119790652Y-33300500D01*
X120065500Y-33300500D01*
X120132539Y-33320185D01*
X120178294Y-33372989D01*
X120189500Y-33424500D01*
X120189500Y-33544960D01*
X120204630Y-33679249D01*
X120204631Y-33679254D01*
X120264211Y-33849523D01*
X120360184Y-34002262D01*
X120487738Y-34129816D01*
X120640478Y-34225789D01*
X120741500Y-34261138D01*
X120810745Y-34285368D01*
X120810750Y-34285369D01*
X120901246Y-34295565D01*
X120945040Y-34300499D01*
X120945043Y-34300500D01*
X120945046Y-34300500D01*
X124034957Y-34300500D01*
X124034958Y-34300499D01*
X124102104Y-34292934D01*
X124169249Y-34285369D01*
X124169252Y-34285368D01*
X124169255Y-34285368D01*
X124339522Y-34225789D01*
X124492262Y-34129816D01*
X124619816Y-34002262D01*
X124715789Y-33849522D01*
X124775368Y-33679255D01*
X124775971Y-33673910D01*
X124790499Y-33544960D01*
X124790500Y-33544956D01*
X124790500Y-31359047D01*
X124810185Y-31292008D01*
X124862989Y-31246253D01*
X124932147Y-31236309D01*
X124995703Y-31265334D01*
X125002181Y-31271366D01*
X125262386Y-31531571D01*
X125295871Y-31592894D01*
X125297644Y-31635437D01*
X125269501Y-31849206D01*
X125269500Y-31849223D01*
X125269500Y-32150776D01*
X125269501Y-32150793D01*
X125308861Y-32449766D01*
X125386913Y-32741060D01*
X125502314Y-33019661D01*
X125502318Y-33019671D01*
X125653099Y-33280831D01*
X125836679Y-33520078D01*
X125836685Y-33520085D01*
X126049914Y-33733314D01*
X126049921Y-33733320D01*
X126220986Y-33864582D01*
X126262189Y-33921010D01*
X126269500Y-33962958D01*
X126269500Y-43038437D01*
X126249815Y-43105476D01*
X126197011Y-43151231D01*
X126127853Y-43161175D01*
X126104547Y-43155479D01*
X126059260Y-43139633D01*
X126059249Y-43139630D01*
X125924960Y-43124500D01*
X125924954Y-43124500D01*
X124135046Y-43124500D01*
X124135039Y-43124500D01*
X124000750Y-43139630D01*
X124000745Y-43139631D01*
X123830476Y-43199211D01*
X123677739Y-43295183D01*
X123545384Y-43427538D01*
X123484061Y-43461022D01*
X123414369Y-43456038D01*
X123370022Y-43427537D01*
X116725521Y-36783036D01*
X116725519Y-36783034D01*
X116559911Y-36662713D01*
X116468714Y-36616246D01*
X116377519Y-36569780D01*
X116259647Y-36531481D01*
X116182835Y-36506523D01*
X116182832Y-36506522D01*
X116006803Y-36478642D01*
X115980652Y-36474500D01*
X115980651Y-36474500D01*
X103276142Y-36474500D01*
X103209103Y-36454815D01*
X103163348Y-36402011D01*
X103153404Y-36332853D01*
X103175824Y-36277615D01*
X103264103Y-36156106D01*
X103323870Y-36073845D01*
X103438241Y-35849379D01*
X103516090Y-35609785D01*
X103555500Y-35360962D01*
X103555500Y-35109038D01*
X103516090Y-34860215D01*
X103438241Y-34620621D01*
X103438239Y-34620618D01*
X103438239Y-34620616D01*
X103370759Y-34488180D01*
X103323870Y-34396155D01*
X103268319Y-34319695D01*
X103175798Y-34192350D01*
X103175794Y-34192345D01*
X102997654Y-34014205D01*
X102997649Y-34014201D01*
X102793848Y-33866132D01*
X102793847Y-33866131D01*
X102793845Y-33866130D01*
X102678418Y-33807317D01*
X102569383Y-33751760D01*
X102329785Y-33673910D01*
X102176930Y-33649700D01*
X102080962Y-33634500D01*
X101029038Y-33634500D01*
X100933076Y-33649699D01*
X100780214Y-33673910D01*
X100540616Y-33751760D01*
X100316151Y-33866132D01*
X100112350Y-34014201D01*
X100112345Y-34014205D01*
X99934205Y-34192345D01*
X99934201Y-34192350D01*
X99786132Y-34396151D01*
X99671760Y-34620616D01*
X99593910Y-34860214D01*
X99554500Y-35109038D01*
X99554500Y-35360961D01*
X99593910Y-35609785D01*
X99671760Y-35849383D01*
X99722910Y-35949769D01*
X99772613Y-36047317D01*
X99786132Y-36073848D01*
X99934201Y-36277649D01*
X99934205Y-36277654D01*
X100073870Y-36417319D01*
X100107355Y-36478642D01*
X100102371Y-36548334D01*
X100073870Y-36592681D01*
X99934205Y-36732345D01*
X99934201Y-36732350D01*
X99786132Y-36936151D01*
X99671760Y-37160616D01*
X99593910Y-37400214D01*
X99580084Y-37487508D01*
X99554500Y-37649038D01*
X99554500Y-37900962D01*
X99577633Y-38047019D01*
X99593910Y-38149785D01*
X99671760Y-38389383D01*
X99786132Y-38613848D01*
X99934176Y-38817615D01*
X99957656Y-38883421D01*
X99941830Y-38951475D01*
X99891724Y-39000170D01*
X99833858Y-39014500D01*
X99155652Y-39014500D01*
X98950948Y-39014500D01*
X98926629Y-39018351D01*
X98748765Y-39046522D01*
X98554076Y-39109781D01*
X98470495Y-39152369D01*
X98401826Y-39165265D01*
X98337085Y-39138989D01*
X98296828Y-39081882D01*
X98290200Y-39041884D01*
X98290200Y-37276348D01*
X98271870Y-37160621D01*
X98258177Y-37074166D01*
X98213335Y-36936155D01*
X98194921Y-36879482D01*
X98194921Y-36879481D01*
X98113185Y-36719067D01*
X98101987Y-36697090D01*
X98077011Y-36662713D01*
X97981666Y-36531481D01*
X97836919Y-36386734D01*
X97836918Y-36386733D01*
X97833807Y-36383622D01*
X97833792Y-36383608D01*
X95938365Y-34488180D01*
X95907386Y-34436496D01*
X95860232Y-34281046D01*
X95762685Y-34098550D01*
X95683664Y-34002262D01*
X95631410Y-33938589D01*
X95471452Y-33807317D01*
X95471453Y-33807317D01*
X95471450Y-33807315D01*
X95288954Y-33709768D01*
X95090934Y-33649700D01*
X95090932Y-33649699D01*
X95090934Y-33649699D01*
X94971805Y-33637966D01*
X94936608Y-33634500D01*
X92933392Y-33634500D01*
X92895298Y-33638251D01*
X92779067Y-33649699D01*
X92581043Y-33709769D01*
X92502487Y-33751759D01*
X92398550Y-33807315D01*
X92398548Y-33807316D01*
X92398547Y-33807317D01*
X92238589Y-33938589D01*
X92107317Y-34098547D01*
X92107315Y-34098550D01*
X92090603Y-34129816D01*
X92009769Y-34281043D01*
X91949699Y-34479067D01*
X91948802Y-34488180D01*
X91934500Y-34633392D01*
X91934500Y-35836608D01*
X91938232Y-35874500D01*
X91949699Y-35990932D01*
X92009769Y-36188958D01*
X92064872Y-36292047D01*
X92079114Y-36360449D01*
X92054114Y-36425693D01*
X91997809Y-36467064D01*
X91955514Y-36474500D01*
X91130746Y-36474500D01*
X91063707Y-36454815D01*
X91043065Y-36438181D01*
X84007266Y-29402381D01*
X83973781Y-29341058D01*
X83978765Y-29271366D01*
X84020637Y-29215433D01*
X84086101Y-29191016D01*
X84094947Y-29190700D01*
X114988453Y-29190700D01*
X115055492Y-29210385D01*
G37*
%TD.AperFunction*%
%TA.AperFunction,NonConductor*%
G36*
X55128493Y-31012085D02*
G01*
X55174248Y-31064889D01*
X55184192Y-31134047D01*
X55155167Y-31197603D01*
X55149135Y-31204081D01*
X40365034Y-45988181D01*
X40303711Y-46021666D01*
X40277353Y-46024500D01*
X36580810Y-46024500D01*
X36550841Y-46015700D01*
X36520376Y-46008776D01*
X36516729Y-46005683D01*
X36513771Y-46004815D01*
X36492319Y-45987364D01*
X36483113Y-45977986D01*
X36479816Y-45972738D01*
X36378986Y-45871908D01*
X36378613Y-45871528D01*
X36362387Y-45841147D01*
X36345938Y-45811022D01*
X36345980Y-45810426D01*
X36345698Y-45809897D01*
X36348471Y-45775589D01*
X36350922Y-45741330D01*
X36351298Y-45740628D01*
X36351329Y-45740254D01*
X36351904Y-45739500D01*
X36366786Y-45711778D01*
X36411634Y-45650051D01*
X36529579Y-45418572D01*
X36609860Y-45171493D01*
X36633134Y-45024541D01*
X36663063Y-44961406D01*
X36667908Y-44956275D01*
X50595465Y-31028719D01*
X50656788Y-30995234D01*
X50683146Y-30992400D01*
X55061454Y-30992400D01*
X55128493Y-31012085D01*
G37*
%TD.AperFunction*%
%TA.AperFunction,NonConductor*%
G36*
X52393834Y-37740262D02*
G01*
X52449767Y-37782134D01*
X52474184Y-37847598D01*
X52474500Y-37856444D01*
X52474500Y-38676604D01*
X52489699Y-38830932D01*
X52489700Y-38830935D01*
X52549768Y-39028955D01*
X52644903Y-39206939D01*
X52647317Y-39211454D01*
X52778589Y-39371410D01*
X52938546Y-39502683D01*
X52938547Y-39502683D01*
X52938549Y-39502685D01*
X53008954Y-39540317D01*
X53058797Y-39589277D01*
X53074500Y-39649674D01*
X53074500Y-48073700D01*
X53054815Y-48140739D01*
X53002011Y-48186494D01*
X52950500Y-48197700D01*
X42133247Y-48197700D01*
X42066208Y-48178015D01*
X42020453Y-48125211D01*
X42010509Y-48056053D01*
X42039534Y-47992497D01*
X42045566Y-47986019D01*
X43742608Y-46288977D01*
X52262821Y-37768761D01*
X52324142Y-37735278D01*
X52393834Y-37740262D01*
G37*
%TD.AperFunction*%
%TA.AperFunction,NonConductor*%
G36*
X74880789Y-36462785D02*
G01*
X74926544Y-36515589D01*
X74936488Y-36584747D01*
X74921137Y-36629100D01*
X74797080Y-36843971D01*
X74797075Y-36843982D01*
X74691704Y-37098369D01*
X74620441Y-37364331D01*
X74620438Y-37364344D01*
X74584501Y-37637315D01*
X74584500Y-37637332D01*
X74584500Y-37912674D01*
X74602186Y-38047019D01*
X74591420Y-38116055D01*
X74566928Y-38150885D01*
X60920637Y-51797176D01*
X60859314Y-51830661D01*
X60789622Y-51825677D01*
X60733689Y-51783805D01*
X60715025Y-51747813D01*
X60702941Y-51710621D01*
X60588570Y-51486155D01*
X60566281Y-51455476D01*
X60543882Y-51424646D01*
X60520402Y-51358840D01*
X60520200Y-51351761D01*
X60520200Y-40283746D01*
X60539885Y-40216707D01*
X60556514Y-40196070D01*
X62502261Y-38250322D01*
X62563582Y-38216839D01*
X62633274Y-38221823D01*
X62689207Y-38263695D01*
X62709715Y-38305911D01*
X62731498Y-38387207D01*
X62826830Y-38617361D01*
X62826837Y-38617376D01*
X62951400Y-38833126D01*
X63103060Y-39030774D01*
X63103066Y-39030781D01*
X63279218Y-39206933D01*
X63279225Y-39206939D01*
X63476873Y-39358599D01*
X63692623Y-39483162D01*
X63692638Y-39483169D01*
X63765302Y-39513267D01*
X63922793Y-39578502D01*
X64163435Y-39642982D01*
X64410435Y-39675500D01*
X64410442Y-39675500D01*
X64659558Y-39675500D01*
X64659565Y-39675500D01*
X64906565Y-39642982D01*
X65147207Y-39578502D01*
X65377373Y-39483164D01*
X65593127Y-39358599D01*
X65790776Y-39206938D01*
X65966938Y-39030776D01*
X66118599Y-38833127D01*
X66243164Y-38617373D01*
X66338502Y-38387207D01*
X66402982Y-38146565D01*
X66435500Y-37899565D01*
X66435500Y-37765046D01*
X66455185Y-37698007D01*
X66471819Y-37677365D01*
X67669765Y-36479419D01*
X67731088Y-36445934D01*
X67757446Y-36443100D01*
X74813750Y-36443100D01*
X74880789Y-36462785D01*
G37*
%TD.AperFunction*%
%TA.AperFunction,NonConductor*%
G36*
X82980627Y-39536119D02*
G01*
X83023817Y-39591040D01*
X83032700Y-39637127D01*
X83032700Y-48063153D01*
X83013015Y-48130192D01*
X82996381Y-48150834D01*
X79209034Y-51938181D01*
X79147711Y-51971666D01*
X79121353Y-51974500D01*
X78794722Y-51974500D01*
X78727683Y-51954815D01*
X78707041Y-51938181D01*
X78634931Y-51866071D01*
X78634925Y-51866066D01*
X78424754Y-51713368D01*
X78424753Y-51713367D01*
X78424751Y-51713366D01*
X78352464Y-51676534D01*
X78193276Y-51595422D01*
X77946193Y-51515140D01*
X77689602Y-51474500D01*
X77689597Y-51474500D01*
X77429803Y-51474500D01*
X77429798Y-51474500D01*
X77173206Y-51515140D01*
X76926123Y-51595422D01*
X76694645Y-51713368D01*
X76517085Y-51842373D01*
X76451279Y-51865853D01*
X76383225Y-51850027D01*
X76334530Y-51799922D01*
X76320200Y-51742055D01*
X76320200Y-45030345D01*
X76339885Y-44963306D01*
X76356514Y-44942669D01*
X81394829Y-39904353D01*
X81456150Y-39870870D01*
X81498693Y-39869097D01*
X81547326Y-39875500D01*
X81547327Y-39875500D01*
X81822667Y-39875500D01*
X81822674Y-39875500D01*
X82095666Y-39839560D01*
X82361632Y-39768295D01*
X82616021Y-39662923D01*
X82616775Y-39662488D01*
X82743579Y-39589277D01*
X82846700Y-39529739D01*
X82914600Y-39513267D01*
X82980627Y-39536119D01*
G37*
%TD.AperFunction*%
%TA.AperFunction,NonConductor*%
G36*
X77750127Y-39677600D02*
G01*
X77789638Y-39735225D01*
X77791724Y-39805063D01*
X77759438Y-39861376D01*
X74031443Y-43589371D01*
X74031440Y-43589374D01*
X74027734Y-43593081D01*
X73907413Y-43758689D01*
X73905600Y-43762248D01*
X73901335Y-43770618D01*
X73901331Y-43770624D01*
X73814032Y-43941958D01*
X73812972Y-43945720D01*
X73761743Y-44103389D01*
X73751223Y-44135763D01*
X73751222Y-44135771D01*
X73719200Y-44337948D01*
X73719200Y-51388437D01*
X73699515Y-51455476D01*
X73646711Y-51501231D01*
X73577553Y-51511175D01*
X73554247Y-51505479D01*
X73508960Y-51489633D01*
X73508949Y-51489630D01*
X73374660Y-51474500D01*
X73374654Y-51474500D01*
X71584746Y-51474500D01*
X71584739Y-51474500D01*
X71450450Y-51489630D01*
X71450445Y-51489631D01*
X71280176Y-51549211D01*
X71127437Y-51645184D01*
X70999884Y-51772737D01*
X70909570Y-51916472D01*
X70857235Y-51962763D01*
X70804576Y-51974500D01*
X64721047Y-51974500D01*
X64654008Y-51954815D01*
X64608253Y-51902011D01*
X64598309Y-51832853D01*
X64627334Y-51769297D01*
X64633366Y-51762819D01*
X76484365Y-39911819D01*
X76545688Y-39878334D01*
X76572046Y-39875500D01*
X76822667Y-39875500D01*
X76822674Y-39875500D01*
X77095666Y-39839560D01*
X77361632Y-39768295D01*
X77616021Y-39662923D01*
X77616031Y-39662916D01*
X77616902Y-39662488D01*
X77617195Y-39662436D01*
X77619771Y-39661370D01*
X77620009Y-39661946D01*
X77685733Y-39650485D01*
X77750127Y-39677600D01*
G37*
%TD.AperFunction*%
%TA.AperFunction,NonConductor*%
G36*
X64047792Y-32813785D02*
G01*
X64093547Y-32866589D01*
X64103491Y-32935747D01*
X64074466Y-32999303D01*
X64068434Y-33005781D01*
X58227736Y-38846478D01*
X58107413Y-39012088D01*
X58066571Y-39092246D01*
X58014481Y-39194476D01*
X58012849Y-39199500D01*
X57995027Y-39254351D01*
X57989181Y-39272344D01*
X57972711Y-39323033D01*
X57951222Y-39389168D01*
X57951222Y-39389169D01*
X57919200Y-39591348D01*
X57919200Y-51351761D01*
X57899515Y-51418800D01*
X57895518Y-51424646D01*
X57850832Y-51486151D01*
X57736460Y-51710616D01*
X57658610Y-51950214D01*
X57645919Y-52030340D01*
X57619200Y-52199038D01*
X57619200Y-52450962D01*
X57658610Y-52699785D01*
X57736459Y-52939379D01*
X57736461Y-52939382D01*
X57736462Y-52939386D01*
X57742536Y-52951308D01*
X57743043Y-52954011D01*
X57744844Y-52956089D01*
X57749452Y-52988140D01*
X57755431Y-53019977D01*
X57754396Y-53022525D01*
X57754788Y-53025247D01*
X57741333Y-53054707D01*
X57729153Y-53084717D01*
X57726905Y-53086301D01*
X57725763Y-53088803D01*
X57698520Y-53106310D01*
X57672046Y-53124973D01*
X57668589Y-53125545D01*
X57666985Y-53126577D01*
X57632050Y-53131600D01*
X57436823Y-53131600D01*
X57369784Y-53111915D01*
X57324029Y-53059111D01*
X57313420Y-52995446D01*
X57318941Y-52939386D01*
X57320200Y-52926608D01*
X57320200Y-51723392D01*
X57305000Y-51569066D01*
X57244932Y-51371046D01*
X57244930Y-51371043D01*
X57244930Y-51371041D01*
X57147388Y-51188555D01*
X57147387Y-51188553D01*
X57147385Y-51188550D01*
X57048346Y-51067869D01*
X57021034Y-51003559D01*
X57020200Y-50989205D01*
X57020200Y-50740548D01*
X56989397Y-50546064D01*
X56988178Y-50538373D01*
X56988177Y-50538365D01*
X56927422Y-50351381D01*
X56924920Y-50343681D01*
X56883172Y-50261746D01*
X56841424Y-50179810D01*
X56831989Y-50161293D01*
X56831986Y-50161287D01*
X56733968Y-50026377D01*
X56711666Y-49995681D01*
X55711819Y-48995834D01*
X55678334Y-48934511D01*
X55675500Y-48908153D01*
X55675500Y-39649674D01*
X55695185Y-39582635D01*
X55741045Y-39540317D01*
X55811451Y-39502685D01*
X55971410Y-39371410D01*
X56102685Y-39211451D01*
X56200232Y-39028955D01*
X56260300Y-38830935D01*
X56275500Y-38676609D01*
X56275499Y-36873392D01*
X56260300Y-36719065D01*
X56200232Y-36521045D01*
X56102685Y-36338549D01*
X56102682Y-36338545D01*
X55971410Y-36178589D01*
X55811454Y-36047317D01*
X55811452Y-36047316D01*
X55811451Y-36047315D01*
X55628955Y-35949768D01*
X55430935Y-35889700D01*
X55430933Y-35889699D01*
X55430935Y-35889699D01*
X55311806Y-35877966D01*
X55276609Y-35874500D01*
X55276606Y-35874500D01*
X54456445Y-35874500D01*
X54389406Y-35854815D01*
X54343651Y-35802011D01*
X54333707Y-35732853D01*
X54362732Y-35669297D01*
X54368764Y-35662819D01*
X55711889Y-34319695D01*
X57201165Y-32830419D01*
X57262488Y-32796934D01*
X57288846Y-32794100D01*
X63980753Y-32794100D01*
X64047792Y-32813785D01*
G37*
%TD.AperFunction*%
%TA.AperFunction,NonConductor*%
G36*
X53851992Y-50818385D02*
G01*
X53872634Y-50835019D01*
X54204048Y-51166433D01*
X54237533Y-51227756D01*
X54232549Y-51297448D01*
X54225725Y-51312567D01*
X54194471Y-51371038D01*
X54194470Y-51371041D01*
X54194469Y-51371043D01*
X54194468Y-51371046D01*
X54179982Y-51418800D01*
X54134399Y-51569067D01*
X54126903Y-51645184D01*
X54119200Y-51723392D01*
X54119200Y-52926608D01*
X54120459Y-52939386D01*
X54125980Y-52995446D01*
X54112961Y-53064092D01*
X54064896Y-53114802D01*
X54002577Y-53131600D01*
X36541247Y-53131600D01*
X36474208Y-53111915D01*
X36453566Y-53095281D01*
X34368666Y-51010381D01*
X34335181Y-50949058D01*
X34340165Y-50879366D01*
X34382037Y-50823433D01*
X34447501Y-50799016D01*
X34456347Y-50798700D01*
X53784953Y-50798700D01*
X53851992Y-50818385D01*
G37*
%TD.AperFunction*%
%TA.AperFunction,NonConductor*%
G36*
X85838903Y-37460834D02*
G01*
X85845381Y-37466866D01*
X88032881Y-39654366D01*
X88066366Y-39715689D01*
X88069200Y-39742047D01*
X88069200Y-51351761D01*
X88049515Y-51418800D01*
X88045518Y-51424646D01*
X88000832Y-51486151D01*
X87886460Y-51710616D01*
X87808610Y-51950214D01*
X87769200Y-52199038D01*
X87769200Y-52450961D01*
X87808610Y-52699785D01*
X87886460Y-52939383D01*
X87945221Y-53054707D01*
X87984400Y-53131600D01*
X88000832Y-53163848D01*
X88148901Y-53367649D01*
X88148905Y-53367654D01*
X88327045Y-53545794D01*
X88327050Y-53545798D01*
X88481510Y-53658019D01*
X88530855Y-53693870D01*
X88673884Y-53766747D01*
X88755316Y-53808239D01*
X88755318Y-53808239D01*
X88755321Y-53808241D01*
X88994915Y-53886090D01*
X89243738Y-53925500D01*
X89243739Y-53925500D01*
X89495661Y-53925500D01*
X89495662Y-53925500D01*
X89744485Y-53886090D01*
X89984079Y-53808241D01*
X90208545Y-53693870D01*
X90412356Y-53545793D01*
X90590493Y-53367656D01*
X90738570Y-53163845D01*
X90852941Y-52939379D01*
X90930790Y-52699785D01*
X90970200Y-52450962D01*
X90970200Y-52199038D01*
X90930790Y-51950215D01*
X90852941Y-51710621D01*
X90852939Y-51710618D01*
X90852939Y-51710616D01*
X90783497Y-51574330D01*
X90738570Y-51486155D01*
X90716281Y-51455476D01*
X90693882Y-51424646D01*
X90670402Y-51358840D01*
X90670200Y-51351761D01*
X90670200Y-39199500D01*
X90689885Y-39132461D01*
X90742689Y-39086706D01*
X90794200Y-39075500D01*
X92213858Y-39075500D01*
X92280897Y-39095185D01*
X92326652Y-39147989D01*
X92336596Y-39217147D01*
X92314176Y-39272385D01*
X92166132Y-39476151D01*
X92051760Y-39700616D01*
X91973910Y-39940214D01*
X91934500Y-40189038D01*
X91934500Y-40440961D01*
X91973910Y-40689785D01*
X92051760Y-40929383D01*
X92166132Y-41153848D01*
X92314201Y-41357649D01*
X92314205Y-41357654D01*
X92492345Y-41535794D01*
X92492350Y-41535798D01*
X92670117Y-41664952D01*
X92696155Y-41683870D01*
X92839184Y-41756747D01*
X92920616Y-41798239D01*
X92920618Y-41798239D01*
X92920621Y-41798241D01*
X93160215Y-41876090D01*
X93409038Y-41915500D01*
X93409039Y-41915500D01*
X94460961Y-41915500D01*
X94460962Y-41915500D01*
X94709785Y-41876090D01*
X94949379Y-41798241D01*
X95173845Y-41683870D01*
X95377656Y-41535793D01*
X95477519Y-41435930D01*
X95538842Y-41402445D01*
X95608534Y-41407429D01*
X95664467Y-41449301D01*
X95688884Y-41514765D01*
X95689200Y-41523611D01*
X95689200Y-51351761D01*
X95669515Y-51418800D01*
X95665518Y-51424646D01*
X95620832Y-51486151D01*
X95506460Y-51710616D01*
X95428610Y-51950214D01*
X95389200Y-52199038D01*
X95389200Y-52450961D01*
X95428610Y-52699785D01*
X95506460Y-52939383D01*
X95565221Y-53054707D01*
X95604400Y-53131600D01*
X95620832Y-53163848D01*
X95768901Y-53367649D01*
X95768905Y-53367654D01*
X95947045Y-53545794D01*
X95947050Y-53545798D01*
X96101510Y-53658019D01*
X96150855Y-53693870D01*
X96297590Y-53768635D01*
X96375320Y-53808241D01*
X96375326Y-53808243D01*
X96383906Y-53811031D01*
X96441582Y-53850468D01*
X96468781Y-53914826D01*
X96456867Y-53983673D01*
X96433270Y-54016643D01*
X86538134Y-63911781D01*
X86476811Y-63945266D01*
X86450453Y-63948100D01*
X71325347Y-63948100D01*
X71258308Y-63928415D01*
X71212553Y-63875611D01*
X71202609Y-63806453D01*
X71231634Y-63742897D01*
X71237666Y-63736419D01*
X72223871Y-62750214D01*
X78399850Y-56574232D01*
X78399857Y-56574227D01*
X78406917Y-56567167D01*
X78406919Y-56567166D01*
X78551666Y-56422419D01*
X78551668Y-56422415D01*
X78551671Y-56422413D01*
X78671986Y-56256811D01*
X78671987Y-56256810D01*
X78762714Y-56078748D01*
X78764619Y-56075345D01*
X78764920Y-56074419D01*
X78764921Y-56074418D01*
X78828177Y-55879734D01*
X78860201Y-55677551D01*
X78860201Y-55472848D01*
X78860201Y-55468447D01*
X78860200Y-55468432D01*
X78860200Y-54699500D01*
X78879885Y-54632461D01*
X78932689Y-54586706D01*
X78984200Y-54575500D01*
X79813751Y-54575500D01*
X79813752Y-54575500D01*
X80015935Y-54543477D01*
X80113276Y-54511848D01*
X80210619Y-54480220D01*
X80314525Y-54427277D01*
X80393011Y-54387287D01*
X80558619Y-54266966D01*
X85325166Y-49500419D01*
X85445487Y-49334811D01*
X85514347Y-49199665D01*
X85538420Y-49152419D01*
X85588275Y-48998981D01*
X85601677Y-48957735D01*
X85633700Y-48755552D01*
X85633700Y-48550849D01*
X85633700Y-37554547D01*
X85653385Y-37487508D01*
X85706189Y-37441753D01*
X85775347Y-37431809D01*
X85838903Y-37460834D01*
G37*
%TD.AperFunction*%
%TA.AperFunction,NonConductor*%
G36*
X70871615Y-54595185D02*
G01*
X70909569Y-54633527D01*
X70999884Y-54777262D01*
X71127438Y-54904816D01*
X71280178Y-55000789D01*
X71382277Y-55036515D01*
X71450445Y-55060368D01*
X71450450Y-55060369D01*
X71540946Y-55070565D01*
X71584740Y-55075499D01*
X71584743Y-55075500D01*
X71584746Y-55075500D01*
X73374657Y-55075500D01*
X73374658Y-55075499D01*
X73441804Y-55067934D01*
X73508949Y-55060369D01*
X73508952Y-55060368D01*
X73508955Y-55060368D01*
X73679222Y-55000789D01*
X73831962Y-54904816D01*
X73932355Y-54804423D01*
X73993678Y-54770938D01*
X74063370Y-54775922D01*
X74092918Y-54791783D01*
X74154649Y-54836634D01*
X74264012Y-54892357D01*
X74386123Y-54954577D01*
X74386125Y-54954577D01*
X74386128Y-54954579D01*
X74633207Y-55034860D01*
X74765406Y-55055797D01*
X74889798Y-55075500D01*
X74889803Y-55075500D01*
X75149602Y-55075500D01*
X75262998Y-55057539D01*
X75406193Y-55034860D01*
X75653272Y-54954579D01*
X75884751Y-54836634D01*
X76062317Y-54707624D01*
X76074174Y-54703394D01*
X76083689Y-54695150D01*
X76106454Y-54691876D01*
X76128121Y-54684146D01*
X76140385Y-54686997D01*
X76152847Y-54685206D01*
X76173769Y-54694760D01*
X76196175Y-54699971D01*
X76204950Y-54709000D01*
X76216403Y-54714231D01*
X76228839Y-54733582D01*
X76244869Y-54750077D01*
X76248273Y-54763822D01*
X76254177Y-54773009D01*
X76259200Y-54807944D01*
X76259200Y-54985153D01*
X76239515Y-55052192D01*
X76222881Y-55072834D01*
X69507534Y-61788181D01*
X69446211Y-61821666D01*
X69419853Y-61824500D01*
X62668238Y-61824500D01*
X62601199Y-61804815D01*
X62595362Y-61800824D01*
X62533845Y-61756130D01*
X62309383Y-61641760D01*
X62069785Y-61563910D01*
X62069779Y-61563909D01*
X61820962Y-61524500D01*
X61569038Y-61524500D01*
X61444626Y-61544205D01*
X61320214Y-61563910D01*
X61080616Y-61641760D01*
X60856151Y-61756132D01*
X60652350Y-61904201D01*
X60652345Y-61904205D01*
X60474205Y-62082345D01*
X60474201Y-62082350D01*
X60326132Y-62286151D01*
X60211760Y-62510616D01*
X60133910Y-62750214D01*
X60094500Y-62999038D01*
X60094500Y-63250961D01*
X60133910Y-63499785D01*
X60211761Y-63739385D01*
X60226242Y-63767804D01*
X60239139Y-63836473D01*
X60212863Y-63901214D01*
X60155757Y-63941471D01*
X60115758Y-63948100D01*
X56788647Y-63948100D01*
X56721608Y-63928415D01*
X56700966Y-63911781D01*
X56001865Y-63212680D01*
X55968380Y-63151357D01*
X55973364Y-63081665D01*
X56001865Y-63037318D01*
X64427365Y-54611819D01*
X64488688Y-54578334D01*
X64515046Y-54575500D01*
X70804576Y-54575500D01*
X70871615Y-54595185D01*
G37*
%TD.AperFunction*%
M02*
