  0
SECTION
  2
HEADER
  9
$ANGBASE
  50
0.0
  9
$ANGDIR
  70
1
  9
$MEASUREMENT
  70
1
  0
ENDSEC
  0
SECTION
  2
TABLES
  0
TABLE
  2
LTYPE
  70
4
  0
LTYPE
  5
40F
  2
CONTINUOUS
  70
0
  3
Solid line
  72
65
  73
0
  40
0.0
  0
LTYPE
  5
410
  2
DASHDOT
 70
0
  3
Dash Dot ____ _ ____ _
 72
65
 73
4
 40
2.0
 49
1.25
 49
-0.25
 49
0.25
 49
-0.25
  0
LTYPE
  5
411
  2
DASHED
 70
0
  3
Dashed __ __ __ __ __
 72
65
 73
2
 40
0.75
 49
0.5
 49
-0.25
  0
LTYPE
  5
43B
  2
DOTTED
 70
0
  3
Dotted .  .  .  .
 72
65
 73
2
 40
0.2
 49
0.0
 49
-0.2
  0
ENDTAB
  0
TABLE
  2
STYLE
  70
4
  0
STYLE
  2
KICAD
  70
0
  40
0
  41
1
  42
1
  50
0
  71
0
  3
isocp.shx
  0
STYLE
  2
KICADB
  70
0
  40
0
  41
1
  42
1
  50
0
  71
0
  3
isocp.shx
  0
STYLE
  2
KICADI
  70
0
  40
0
  41
1
  42
1
  50
15
  71
0
  3
isocp.shx
  0
STYLE
  2
KICADBI
  70
0
  40
0
  41
1
  42
1
  50
15
  71
0
  3
isocp.shx
  0
ENDTAB
  0
TABLE
  2
LAYER
  70
35
  0
LAYER
  2
BLACK
  70
0
  62
7
  6
CONTINUOUS
  0
LAYER
  2
GRAY1
  70
0
  62
251
  6
CONTINUOUS
  0
LAYER
  2
GRAY2
  70
0
  62
8
  6
CONTINUOUS
  0
LAYER
  2
GRAY3
  70
0
  62
9
  6
CONTINUOUS
  0
LAYER
  2
WHITE
  70
0
  62
7
  6
CONTINUOUS
  0
LAYER
  2
LYELLOW
  70
0
  62
51
  6
CONTINUOUS
  0
LAYER
  2
LORANGE
  70
0
  62
41
  6
CONTINUOUS
  0
LAYER
  2
BLUE1
  70
0
  62
178
  6
CONTINUOUS
  0
LAYER
  2
GREEN1
  70
0
  62
98
  6
CONTINUOUS
  0
LAYER
  2
CYAN1
  70
0
  62
138
  6
CONTINUOUS
  0
LAYER
  2
RED1
  70
0
  62
18
  6
CONTINUOUS
  0
LAYER
  2
MAGENTA1
  70
0
  62
228
  6
CONTINUOUS
  0
LAYER
  2
BROWN1
  70
0
  62
58
  6
CONTINUOUS
  0
LAYER
  2
ORANGE1
  70
0
  62
34
  6
CONTINUOUS
  0
LAYER
  2
BLUE2
  70
0
  62
5
  6
CONTINUOUS
  0
LAYER
  2
GREEN2
  70
0
  62
3
  6
CONTINUOUS
  0
LAYER
  2
CYAN2
  70
0
  62
4
  6
CONTINUOUS
  0
LAYER
  2
RED2
  70
0
  62
1
  6
CONTINUOUS
  0
LAYER
  2
MAGENTA2
  70
0
  62
6
  6
CONTINUOUS
  0
LAYER
  2
BROWN2
  70
0
  62
54
  6
CONTINUOUS
  0
LAYER
  2
ORANGE2
  70
0
  62
42
  6
CONTINUOUS
  0
LAYER
  2
BLUE3
  70
0
  62
171
  6
CONTINUOUS
  0
LAYER
  2
GREEN3
  70
0
  62
91
  6
CONTINUOUS
  0
LAYER
  2
CYAN3
  70
0
  62
131
  6
CONTINUOUS
  0
LAYER
  2
RED3
  70
0
  62
11
  6
CONTINUOUS
  0
LAYER
  2
MAGENTA3
  70
0
  62
221
  6
CONTINUOUS
  0
LAYER
  2
YELLOW3
  70
0
  62
2
  6
CONTINUOUS
  0
LAYER
  2
ORANGE3
  70
0
  62
32
  6
CONTINUOUS
  0
LAYER
  2
BLUE4
  70
0
  62
5
  6
CONTINUOUS
  0
LAYER
  2
GREEN4
  70
0
  62
3
  6
CONTINUOUS
  0
LAYER
  2
CYAN4
  70
0
  62
4
  6
CONTINUOUS
  0
LAYER
  2
RED4
  70
0
  62
1
  6
CONTINUOUS
  0
LAYER
  2
MAGENTA4
  70
0
  62
6
  6
CONTINUOUS
  0
LAYER
  2
YELLOW4
  70
0
  62
2
  6
CONTINUOUS
  0
LAYER
  2
ORANGE4
  70
0
  62
40
  6
CONTINUOUS
  0
ENDTAB
  0
ENDSEC
  0
SECTION
  2
ENTITIES
0
LINE
8
LYELLOW
6
CONTINUOUS
10
94.6630949999999984
20
-31.1698189999999968
11
94.6630949999999984
21
-31.979341999999999
0
LINE
8
LYELLOW
6
CONTINUOUS
10
94.6630949999999984
20
-31.979341999999999
11
94.7107139999999958
21
-32.0745799999999974
0
LINE
8
LYELLOW
6
CONTINUOUS
10
94.7107139999999958
20
-32.0745799999999974
11
94.7583329999999933
21
-32.1221999999999994
0
LINE
8
LYELLOW
6
CONTINUOUS
10
94.7583329999999933
20
-32.1221999999999994
11
94.8535710000000023
21
-32.1698189999999968
0
LINE
8
LYELLOW
6
CONTINUOUS
10
94.8535710000000023
20
-32.1698189999999968
11
95.044046999999992
21
-32.1698189999999968
0
LINE
8
LYELLOW
6
CONTINUOUS
10
95.044046999999992
20
-32.1698189999999968
11
95.139285000000001
21
-32.1221999999999994
0
LINE
8
LYELLOW
6
CONTINUOUS
10
95.139285000000001
20
-32.1221999999999994
11
95.1869039999999984
21
-32.0745799999999974
0
LINE
8
LYELLOW
6
CONTINUOUS
10
95.1869039999999984
20
-32.0745799999999974
11
95.2345229999999958
21
-31.979341999999999
0
LINE
8
LYELLOW
6
CONTINUOUS
10
95.2345229999999958
20
-31.979341999999999
11
95.2345229999999958
21
-31.1698189999999968
0
LINE
8
LYELLOW
6
CONTINUOUS
10
96.139285000000001
20
-31.503152
11
96.139285000000001
21
-32.1698189999999968
0
LINE
8
LYELLOW
6
CONTINUOUS
10
95.9011899999999997
20
-31.1221999999999994
11
95.6630949999999984
21
-31.8364849999999997
0
LINE
8
LYELLOW
6
CONTINUOUS
10
95.6630949999999984
20
-31.8364849999999997
11
96.2821419999999932
21
-31.8364849999999997
0
LINE
8
LYELLOW
6
CONTINUOUS
10
57.5230949999999979
20
-31.1698189999999968
11
57.5230949999999979
21
-31.979341999999999
0
LINE
8
LYELLOW
6
CONTINUOUS
10
57.5230949999999979
20
-31.979341999999999
11
57.5707139999999953
21
-32.0745799999999974
0
LINE
8
LYELLOW
6
CONTINUOUS
10
57.5707139999999953
20
-32.0745799999999974
11
57.6183329999999998
21
-32.1221999999999994
0
LINE
8
LYELLOW
6
CONTINUOUS
10
57.6183329999999998
20
-32.1221999999999994
11
57.7135709999999946
21
-32.1698189999999968
0
LINE
8
LYELLOW
6
CONTINUOUS
10
57.7135709999999946
20
-32.1698189999999968
11
57.9040469999999985
21
-32.1698189999999968
0
LINE
8
LYELLOW
6
CONTINUOUS
10
57.9040469999999985
20
-32.1698189999999968
11
57.9992850000000004
21
-32.1221999999999994
0
LINE
8
LYELLOW
6
CONTINUOUS
10
57.9992850000000004
20
-32.1221999999999994
11
58.0469039999999978
21
-32.0745799999999974
0
LINE
8
LYELLOW
6
CONTINUOUS
10
58.0469039999999978
20
-32.0745799999999974
11
58.0945229999999952
21
-31.979341999999999
0
LINE
8
LYELLOW
6
CONTINUOUS
10
58.0945229999999952
20
-31.979341999999999
11
58.0945229999999952
21
-31.1698189999999968
0
LINE
8
LYELLOW
6
CONTINUOUS
10
59.0945229999999952
20
-32.1698189999999968
11
58.5230949999999979
21
-32.1698189999999968
0
LINE
8
LYELLOW
6
CONTINUOUS
10
58.8088089999999966
20
-32.1698189999999968
11
58.8088089999999966
21
-31.1698189999999968
0
LINE
8
LYELLOW
6
CONTINUOUS
10
58.8088089999999966
20
-31.1698189999999968
11
58.7135709999999946
21
-31.3126759999999997
0
LINE
8
LYELLOW
6
CONTINUOUS
10
58.7135709999999946
20
-31.3126759999999997
11
58.6183329999999998
21
-31.4079139999999981
0
LINE
8
LYELLOW
6
CONTINUOUS
10
58.6183329999999998
20
-31.4079139999999981
11
58.5230949999999979
21
-31.4555329999999991
0
LINE
8
LYELLOW
6
CONTINUOUS
10
57.7183329999999941
20
-47.8198189999999954
11
57.384999999999998
21
-47.3436279999999954
0
LINE
8
LYELLOW
6
CONTINUOUS
10
57.1469049999999967
20
-47.8198189999999954
11
57.1469049999999967
21
-46.8198189999999954
0
LINE
8
LYELLOW
6
CONTINUOUS
10
57.1469049999999967
20
-46.8198189999999954
11
57.5278569999999974
21
-46.8198189999999954
0
LINE
8
LYELLOW
6
CONTINUOUS
10
57.5278569999999974
20
-46.8198189999999954
11
57.6230949999999993
21
-46.8674379999999999
0
LINE
8
LYELLOW
6
CONTINUOUS
10
57.6230949999999993
20
-46.8674379999999999
11
57.6707139999999967
21
-46.9150569999999973
0
LINE
8
LYELLOW
6
CONTINUOUS
10
57.6707139999999967
20
-46.9150569999999973
11
57.7183329999999941
21
-47.0102949999999993
0
LINE
8
LYELLOW
6
CONTINUOUS
10
57.7183329999999941
20
-47.0102949999999993
11
57.7183329999999941
21
-47.1531519999999986
0
LINE
8
LYELLOW
6
CONTINUOUS
10
57.7183329999999941
20
-47.1531519999999986
11
57.6707139999999967
21
-47.2483900000000006
0
LINE
8
LYELLOW
6
CONTINUOUS
10
57.6707139999999967
20
-47.2483900000000006
11
57.6230949999999993
21
-47.296008999999998
0
LINE
8
LYELLOW
6
CONTINUOUS
10
57.6230949999999993
20
-47.296008999999998
11
57.5278569999999974
21
-47.3436279999999954
0
LINE
8
LYELLOW
6
CONTINUOUS
10
57.5278569999999974
20
-47.3436279999999954
11
57.1469049999999967
21
-47.3436279999999954
0
LINE
8
LYELLOW
6
CONTINUOUS
10
58.6707139999999967
20
-47.8198189999999954
11
58.0992859999999993
21
-47.8198189999999954
0
LINE
8
LYELLOW
6
CONTINUOUS
10
58.384999999999998
20
-47.8198189999999954
11
58.384999999999998
21
-46.8198189999999954
0
LINE
8
LYELLOW
6
CONTINUOUS
10
58.384999999999998
20
-46.8198189999999954
11
58.2897619999999961
21
-46.9626759999999948
0
LINE
8
LYELLOW
6
CONTINUOUS
10
58.2897619999999961
20
-46.9626759999999948
11
58.1945239999999941
21
-47.0579139999999967
0
LINE
8
LYELLOW
6
CONTINUOUS
10
58.1945239999999941
20
-47.0579139999999967
11
58.0992859999999993
21
-47.1055330000000012
0
LINE
8
LYELLOW
6
CONTINUOUS
10
76.093094999999991
20
-31.1698189999999968
11
76.093094999999991
21
-31.979341999999999
0
LINE
8
LYELLOW
6
CONTINUOUS
10
76.093094999999991
20
-31.979341999999999
11
76.1407140000000027
21
-32.0745799999999974
0
LINE
8
LYELLOW
6
CONTINUOUS
10
76.1407140000000027
20
-32.0745799999999974
11
76.1883330000000001
21
-32.1221999999999994
0
LINE
8
LYELLOW
6
CONTINUOUS
10
76.1883330000000001
20
-32.1221999999999994
11
76.2835709999999949
21
-32.1698189999999968
0
LINE
8
LYELLOW
6
CONTINUOUS
10
76.2835709999999949
20
-32.1698189999999968
11
76.4740469999999988
21
-32.1698189999999968
0
LINE
8
LYELLOW
6
CONTINUOUS
10
76.4740469999999988
20
-32.1698189999999968
11
76.5692849999999936
21
-32.1221999999999994
0
LINE
8
LYELLOW
6
CONTINUOUS
10
76.5692849999999936
20
-32.1221999999999994
11
76.616903999999991
21
-32.0745799999999974
0
LINE
8
LYELLOW
6
CONTINUOUS
10
76.616903999999991
20
-32.0745799999999974
11
76.6645230000000026
21
-31.979341999999999
0
LINE
8
LYELLOW
6
CONTINUOUS
10
76.6645230000000026
20
-31.979341999999999
11
76.6645230000000026
21
-31.1698189999999968
0
LINE
8
LYELLOW
6
CONTINUOUS
10
77.0454759999999936
20
-31.1698189999999968
11
77.6645230000000026
21
-31.1698189999999968
0
LINE
8
LYELLOW
6
CONTINUOUS
10
77.6645230000000026
20
-31.1698189999999968
11
77.3311899999999923
21
-31.5507709999999975
0
LINE
8
LYELLOW
6
CONTINUOUS
10
77.3311899999999923
20
-31.5507709999999975
11
77.4740469999999988
21
-31.5507709999999975
0
LINE
8
LYELLOW
6
CONTINUOUS
10
77.4740469999999988
20
-31.5507709999999975
11
77.5692849999999936
21
-31.5983899999999984
0
LINE
8
LYELLOW
6
CONTINUOUS
10
77.5692849999999936
20
-31.5983899999999984
11
77.616903999999991
21
-31.6460089999999994
0
LINE
8
LYELLOW
6
CONTINUOUS
10
77.616903999999991
20
-31.6460089999999994
11
77.6645230000000026
21
-31.7412469999999978
0
LINE
8
LYELLOW
6
CONTINUOUS
10
77.6645230000000026
20
-31.7412469999999978
11
77.6645230000000026
21
-31.979341999999999
0
LINE
8
LYELLOW
6
CONTINUOUS
10
77.6645230000000026
20
-31.979341999999999
11
77.616903999999991
21
-32.0745799999999974
0
LINE
8
LYELLOW
6
CONTINUOUS
10
77.616903999999991
20
-32.0745799999999974
11
77.5692849999999936
21
-32.1221999999999994
0
LINE
8
LYELLOW
6
CONTINUOUS
10
77.5692849999999936
20
-32.1221999999999994
11
77.4740469999999988
21
-32.1698189999999968
0
LINE
8
LYELLOW
6
CONTINUOUS
10
77.4740469999999988
20
-32.1698189999999968
11
77.1883330000000001
21
-32.1698189999999968
0
LINE
8
LYELLOW
6
CONTINUOUS
10
77.1883330000000001
20
-32.1698189999999968
11
77.093094999999991
21
-32.1221999999999994
0
LINE
8
LYELLOW
6
CONTINUOUS
10
77.093094999999991
20
-32.1221999999999994
11
77.0454759999999936
21
-32.0745799999999974
0
LINE
8
LYELLOW
6
CONTINUOUS
10
122.3766660000000002
20
-27.7998189999999994
11
122.3766660000000002
21
-28.5141039999999997
0
LINE
8
LYELLOW
6
CONTINUOUS
10
122.3766660000000002
20
-28.5141039999999997
11
122.3290469999999885
21
-28.656960999999999
0
LINE
8
LYELLOW
6
CONTINUOUS
10
122.3290469999999885
20
-28.656960999999999
11
122.2338089999999937
21
-28.7521999999999984
0
LINE
8
LYELLOW
6
CONTINUOUS
10
122.2338089999999937
20
-28.7521999999999984
11
122.0909520000000015
21
-28.7998189999999994
0
LINE
8
LYELLOW
6
CONTINUOUS
10
122.0909520000000015
20
-28.7998189999999994
11
121.9957139999999924
21
-28.7998189999999994
0
LINE
8
LYELLOW
6
CONTINUOUS
10
122.8052379999999886
20
-27.8950569999999978
11
122.8528570000000002
21
-27.8474380000000004
0
LINE
8
LYELLOW
6
CONTINUOUS
10
122.8528570000000002
20
-27.8474380000000004
11
122.948094999999995
21
-27.7998189999999994
0
LINE
8
LYELLOW
6
CONTINUOUS
10
122.948094999999995
20
-27.7998189999999994
11
123.1861899999999963
21
-27.7998189999999994
0
LINE
8
LYELLOW
6
CONTINUOUS
10
123.1861899999999963
20
-27.7998189999999994
11
123.2814279999999911
21
-27.8474380000000004
0
LINE
8
LYELLOW
6
CONTINUOUS
10
123.2814279999999911
20
-27.8474380000000004
11
123.3290469999999885
21
-27.8950569999999978
0
LINE
8
LYELLOW
6
CONTINUOUS
10
123.3290469999999885
20
-27.8950569999999978
11
123.3766660000000002
21
-27.9902949999999997
0
LINE
8
LYELLOW
6
CONTINUOUS
10
123.3766660000000002
20
-27.9902949999999997
11
123.3766660000000002
21
-28.0855329999999981
0
LINE
8
LYELLOW
6
CONTINUOUS
10
123.3766660000000002
20
-28.0855329999999981
11
123.3290469999999885
21
-28.2283899999999974
0
LINE
8
LYELLOW
6
CONTINUOUS
10
123.3290469999999885
20
-28.2283899999999974
11
122.7576189999999912
21
-28.7998189999999994
0
LINE
8
LYELLOW
6
CONTINUOUS
10
122.7576189999999912
20
-28.7998189999999994
11
123.3766660000000002
21
-28.7998189999999994
0
LINE
8
LYELLOW
6
CONTINUOUS
10
75.4883329999999972
20
-55.8698189999999997
11
75.1550000000000011
21
-55.3936279999999996
0
LINE
8
LYELLOW
6
CONTINUOUS
10
74.9169049999999999
20
-55.8698189999999997
11
74.9169049999999999
21
-54.8698189999999997
0
LINE
8
LYELLOW
6
CONTINUOUS
10
74.9169049999999999
20
-54.8698189999999997
11
75.2978569999999934
21
-54.8698189999999997
0
LINE
8
LYELLOW
6
CONTINUOUS
10
75.2978569999999934
20
-54.8698189999999997
11
75.3930950000000024
21
-54.9174379999999971
0
LINE
8
LYELLOW
6
CONTINUOUS
10
75.3930950000000024
20
-54.9174379999999971
11
75.4407139999999998
21
-54.9650569999999945
0
LINE
8
LYELLOW
6
CONTINUOUS
10
75.4407139999999998
20
-54.9650569999999945
11
75.4883329999999972
21
-55.0602949999999964
0
LINE
8
LYELLOW
6
CONTINUOUS
10
75.4883329999999972
20
-55.0602949999999964
11
75.4883329999999972
21
-55.2031519999999958
0
LINE
8
LYELLOW
6
CONTINUOUS
10
75.4883329999999972
20
-55.2031519999999958
11
75.4407139999999998
21
-55.2983899999999977
0
LINE
8
LYELLOW
6
CONTINUOUS
10
75.4407139999999998
20
-55.2983899999999977
11
75.3930950000000024
21
-55.3460089999999951
0
LINE
8
LYELLOW
6
CONTINUOUS
10
75.3930950000000024
20
-55.3460089999999951
11
75.2978569999999934
21
-55.3936279999999996
0
LINE
8
LYELLOW
6
CONTINUOUS
10
75.2978569999999934
20
-55.3936279999999996
11
74.9169049999999999
21
-55.3936279999999996
0
LINE
8
LYELLOW
6
CONTINUOUS
10
76.3930950000000024
20
-54.8698189999999997
11
75.9169049999999999
21
-54.8698189999999997
0
LINE
8
LYELLOW
6
CONTINUOUS
10
75.9169049999999999
20
-54.8698189999999997
11
75.8692860000000024
21
-55.3460089999999951
0
LINE
8
LYELLOW
6
CONTINUOUS
10
75.8692860000000024
20
-55.3460089999999951
11
75.9169049999999999
21
-55.2983899999999977
0
LINE
8
LYELLOW
6
CONTINUOUS
10
75.9169049999999999
20
-55.2983899999999977
11
76.0121429999999947
21
-55.2507710000000003
0
LINE
8
LYELLOW
6
CONTINUOUS
10
76.0121429999999947
20
-55.2507710000000003
11
76.250237999999996
21
-55.2507710000000003
0
LINE
8
LYELLOW
6
CONTINUOUS
10
76.250237999999996
20
-55.2507710000000003
11
76.3454759999999908
21
-55.2983899999999977
0
LINE
8
LYELLOW
6
CONTINUOUS
10
76.3454759999999908
20
-55.2983899999999977
11
76.3930950000000024
21
-55.3460089999999951
0
LINE
8
LYELLOW
6
CONTINUOUS
10
76.3930950000000024
20
-55.3460089999999951
11
76.4407139999999998
21
-55.4412469999999971
0
LINE
8
LYELLOW
6
CONTINUOUS
10
76.4407139999999998
20
-55.4412469999999971
11
76.4407139999999998
21
-55.6793419999999983
0
LINE
8
LYELLOW
6
CONTINUOUS
10
76.4407139999999998
20
-55.6793419999999983
11
76.3930950000000024
21
-55.7745800000000003
0
LINE
8
LYELLOW
6
CONTINUOUS
10
76.3930950000000024
20
-55.7745800000000003
11
76.3454759999999908
21
-55.8221999999999952
0
LINE
8
LYELLOW
6
CONTINUOUS
10
76.3454759999999908
20
-55.8221999999999952
11
76.250237999999996
21
-55.8698189999999997
0
LINE
8
LYELLOW
6
CONTINUOUS
10
76.250237999999996
20
-55.8698189999999997
11
76.0121429999999947
21
-55.8698189999999997
0
LINE
8
LYELLOW
6
CONTINUOUS
10
76.0121429999999947
20
-55.8698189999999997
11
75.9169049999999999
21
-55.8221999999999952
0
LINE
8
LYELLOW
6
CONTINUOUS
10
75.9169049999999999
20
-55.8221999999999952
11
75.8692860000000024
21
-55.7745800000000003
0
LINE
8
LYELLOW
6
CONTINUOUS
10
57.7183329999999941
20
-55.8698189999999997
11
57.384999999999998
21
-55.3936279999999996
0
LINE
8
LYELLOW
6
CONTINUOUS
10
57.1469049999999967
20
-55.8698189999999997
11
57.1469049999999967
21
-54.8698189999999997
0
LINE
8
LYELLOW
6
CONTINUOUS
10
57.1469049999999967
20
-54.8698189999999997
11
57.5278569999999974
21
-54.8698189999999997
0
LINE
8
LYELLOW
6
CONTINUOUS
10
57.5278569999999974
20
-54.8698189999999997
11
57.6230949999999993
21
-54.9174379999999971
0
LINE
8
LYELLOW
6
CONTINUOUS
10
57.6230949999999993
20
-54.9174379999999971
11
57.6707139999999967
21
-54.9650569999999945
0
LINE
8
LYELLOW
6
CONTINUOUS
10
57.6707139999999967
20
-54.9650569999999945
11
57.7183329999999941
21
-55.0602949999999964
0
LINE
8
LYELLOW
6
CONTINUOUS
10
57.7183329999999941
20
-55.0602949999999964
11
57.7183329999999941
21
-55.2031519999999958
0
LINE
8
LYELLOW
6
CONTINUOUS
10
57.7183329999999941
20
-55.2031519999999958
11
57.6707139999999967
21
-55.2983899999999977
0
LINE
8
LYELLOW
6
CONTINUOUS
10
57.6707139999999967
20
-55.2983899999999977
11
57.6230949999999993
21
-55.3460089999999951
0
LINE
8
LYELLOW
6
CONTINUOUS
10
57.6230949999999993
20
-55.3460089999999951
11
57.5278569999999974
21
-55.3936279999999996
0
LINE
8
LYELLOW
6
CONTINUOUS
10
57.5278569999999974
20
-55.3936279999999996
11
57.1469049999999967
21
-55.3936279999999996
0
LINE
8
LYELLOW
6
CONTINUOUS
10
58.5754759999999948
20
-55.2031519999999958
11
58.5754759999999948
21
-55.8698189999999997
0
LINE
8
LYELLOW
6
CONTINUOUS
10
58.3373810000000006
20
-54.8221999999999952
11
58.0992859999999993
21
-55.536484999999999
0
LINE
8
LYELLOW
6
CONTINUOUS
10
58.0992859999999993
20
-55.536484999999999
11
58.7183329999999941
21
-55.536484999999999
0
LINE
8
LYELLOW
6
CONTINUOUS
10
93.2583329999999933
20
-47.8198189999999954
11
92.9249999999999972
21
-47.3436279999999954
0
LINE
8
LYELLOW
6
CONTINUOUS
10
92.6869049999999959
20
-47.8198189999999954
11
92.6869049999999959
21
-46.8198189999999954
0
LINE
8
LYELLOW
6
CONTINUOUS
10
92.6869049999999959
20
-46.8198189999999954
11
93.0678569999999894
21
-46.8198189999999954
0
LINE
8
LYELLOW
6
CONTINUOUS
10
93.0678569999999894
20
-46.8198189999999954
11
93.1630949999999984
21
-46.8674379999999999
0
LINE
8
LYELLOW
6
CONTINUOUS
10
93.1630949999999984
20
-46.8674379999999999
11
93.2107139999999958
21
-46.9150569999999973
0
LINE
8
LYELLOW
6
CONTINUOUS
10
93.2107139999999958
20
-46.9150569999999973
11
93.2583329999999933
21
-47.0102949999999993
0
LINE
8
LYELLOW
6
CONTINUOUS
10
93.2583329999999933
20
-47.0102949999999993
11
93.2583329999999933
21
-47.1531519999999986
0
LINE
8
LYELLOW
6
CONTINUOUS
10
93.2583329999999933
20
-47.1531519999999986
11
93.2107139999999958
21
-47.2483900000000006
0
LINE
8
LYELLOW
6
CONTINUOUS
10
93.2107139999999958
20
-47.2483900000000006
11
93.1630949999999984
21
-47.296008999999998
0
LINE
8
LYELLOW
6
CONTINUOUS
10
93.1630949999999984
20
-47.296008999999998
11
93.0678569999999894
21
-47.3436279999999954
0
LINE
8
LYELLOW
6
CONTINUOUS
10
93.0678569999999894
20
-47.3436279999999954
11
92.6869049999999959
21
-47.3436279999999954
0
LINE
8
LYELLOW
6
CONTINUOUS
10
93.5916670000000011
20
-46.8198189999999954
11
94.2107139999999958
21
-46.8198189999999954
0
LINE
8
LYELLOW
6
CONTINUOUS
10
94.2107139999999958
20
-46.8198189999999954
11
93.8773809999999997
21
-47.200770999999996
0
LINE
8
LYELLOW
6
CONTINUOUS
10
93.8773809999999997
20
-47.200770999999996
11
94.020237999999992
21
-47.200770999999996
0
LINE
8
LYELLOW
6
CONTINUOUS
10
94.020237999999992
20
-47.200770999999996
11
94.115476000000001
21
-47.2483900000000006
0
LINE
8
LYELLOW
6
CONTINUOUS
10
94.115476000000001
20
-47.2483900000000006
11
94.1630949999999984
21
-47.296008999999998
0
LINE
8
LYELLOW
6
CONTINUOUS
10
94.1630949999999984
20
-47.296008999999998
11
94.2107139999999958
21
-47.3912469999999999
0
LINE
8
LYELLOW
6
CONTINUOUS
10
94.2107139999999958
20
-47.3912469999999999
11
94.2107139999999958
21
-47.6293420000000012
0
LINE
8
LYELLOW
6
CONTINUOUS
10
94.2107139999999958
20
-47.6293420000000012
11
94.1630949999999984
21
-47.724579999999996
0
LINE
8
LYELLOW
6
CONTINUOUS
10
94.1630949999999984
20
-47.724579999999996
11
94.115476000000001
21
-47.772199999999998
0
LINE
8
LYELLOW
6
CONTINUOUS
10
94.115476000000001
20
-47.772199999999998
11
94.020237999999992
21
-47.8198189999999954
0
LINE
8
LYELLOW
6
CONTINUOUS
10
94.020237999999992
20
-47.8198189999999954
11
93.7345239999999933
21
-47.8198189999999954
0
LINE
8
LYELLOW
6
CONTINUOUS
10
93.7345239999999933
20
-47.8198189999999954
11
93.6392859999999985
21
-47.772199999999998
0
LINE
8
LYELLOW
6
CONTINUOUS
10
93.6392859999999985
20
-47.772199999999998
11
93.5916670000000011
21
-47.724579999999996
0
LINE
8
LYELLOW
6
CONTINUOUS
10
75.4883329999999972
20
-47.8198189999999954
11
75.1550000000000011
21
-47.3436279999999954
0
LINE
8
LYELLOW
6
CONTINUOUS
10
74.9169049999999999
20
-47.8198189999999954
11
74.9169049999999999
21
-46.8198189999999954
0
LINE
8
LYELLOW
6
CONTINUOUS
10
74.9169049999999999
20
-46.8198189999999954
11
75.2978569999999934
21
-46.8198189999999954
0
LINE
8
LYELLOW
6
CONTINUOUS
10
75.2978569999999934
20
-46.8198189999999954
11
75.3930950000000024
21
-46.8674379999999999
0
LINE
8
LYELLOW
6
CONTINUOUS
10
75.3930950000000024
20
-46.8674379999999999
11
75.4407139999999998
21
-46.9150569999999973
0
LINE
8
LYELLOW
6
CONTINUOUS
10
75.4407139999999998
20
-46.9150569999999973
11
75.4883329999999972
21
-47.0102949999999993
0
LINE
8
LYELLOW
6
CONTINUOUS
10
75.4883329999999972
20
-47.0102949999999993
11
75.4883329999999972
21
-47.1531519999999986
0
LINE
8
LYELLOW
6
CONTINUOUS
10
75.4883329999999972
20
-47.1531519999999986
11
75.4407139999999998
21
-47.2483900000000006
0
LINE
8
LYELLOW
6
CONTINUOUS
10
75.4407139999999998
20
-47.2483900000000006
11
75.3930950000000024
21
-47.296008999999998
0
LINE
8
LYELLOW
6
CONTINUOUS
10
75.3930950000000024
20
-47.296008999999998
11
75.2978569999999934
21
-47.3436279999999954
0
LINE
8
LYELLOW
6
CONTINUOUS
10
75.2978569999999934
20
-47.3436279999999954
11
74.9169049999999999
21
-47.3436279999999954
0
LINE
8
LYELLOW
6
CONTINUOUS
10
75.8692860000000024
20
-46.9150569999999973
11
75.9169049999999999
21
-46.8674379999999999
0
LINE
8
LYELLOW
6
CONTINUOUS
10
75.9169049999999999
20
-46.8674379999999999
11
76.0121429999999947
21
-46.8198189999999954
0
LINE
8
LYELLOW
6
CONTINUOUS
10
76.0121429999999947
20
-46.8198189999999954
11
76.250237999999996
21
-46.8198189999999954
0
LINE
8
LYELLOW
6
CONTINUOUS
10
76.250237999999996
20
-46.8198189999999954
11
76.3454759999999908
21
-46.8674379999999999
0
LINE
8
LYELLOW
6
CONTINUOUS
10
76.3454759999999908
20
-46.8674379999999999
11
76.3930950000000024
21
-46.9150569999999973
0
LINE
8
LYELLOW
6
CONTINUOUS
10
76.3930950000000024
20
-46.9150569999999973
11
76.4407139999999998
21
-47.0102949999999993
0
LINE
8
LYELLOW
6
CONTINUOUS
10
76.4407139999999998
20
-47.0102949999999993
11
76.4407139999999998
21
-47.1055330000000012
0
LINE
8
LYELLOW
6
CONTINUOUS
10
76.4407139999999998
20
-47.1055330000000012
11
76.3930950000000024
21
-47.2483900000000006
0
LINE
8
LYELLOW
6
CONTINUOUS
10
76.3930950000000024
20
-47.2483900000000006
11
75.8216669999999908
21
-47.8198189999999954
0
LINE
8
LYELLOW
6
CONTINUOUS
10
75.8216669999999908
20
-47.8198189999999954
11
76.4407139999999998
21
-47.8198189999999954
0
LINE
8
LYELLOW
6
CONTINUOUS
10
34.6666659999999993
20
-36.3748189999999951
11
34.6666659999999993
21
-37.089103999999999
0
LINE
8
LYELLOW
6
CONTINUOUS
10
34.6666659999999993
20
-37.089103999999999
11
34.6190470000000019
21
-37.2319609999999983
0
LINE
8
LYELLOW
6
CONTINUOUS
10
34.6190470000000019
20
-37.2319609999999983
11
34.523809
21
-37.3271999999999977
0
LINE
8
LYELLOW
6
CONTINUOUS
10
34.523809
20
-37.3271999999999977
11
34.3809520000000006
21
-37.3748189999999951
0
LINE
8
LYELLOW
6
CONTINUOUS
10
34.3809520000000006
20
-37.3748189999999951
11
34.2857139999999987
21
-37.3748189999999951
0
LINE
8
LYELLOW
6
CONTINUOUS
10
35.6666659999999993
20
-37.3748189999999951
11
35.0952380000000019
21
-37.3748189999999951
0
LINE
8
LYELLOW
6
CONTINUOUS
10
35.3809520000000006
20
-37.3748189999999951
11
35.3809520000000006
21
-36.3748189999999951
0
LINE
8
LYELLOW
6
CONTINUOUS
10
35.3809520000000006
20
-36.3748189999999951
11
35.2857139999999987
21
-36.5176760000000016
0
LINE
8
LYELLOW
6
CONTINUOUS
10
35.2857139999999987
20
-36.5176760000000016
11
35.1904759999999968
21
-36.6129139999999964
0
LINE
8
LYELLOW
6
CONTINUOUS
10
35.1904759999999968
20
-36.6129139999999964
11
35.0952380000000019
21
-36.6605330000000009
0
LINE
8
LYELLOW
6
CONTINUOUS
10
93.1749999999999972
20
-32.7149999999999963
11
93.1749999999999972
21
-42.9949999999999974
0
LINE
8
LYELLOW
6
CONTINUOUS
10
93.1749999999999972
20
-42.9949999999999974
11
97.6749999999999972
21
-42.9949999999999974
0
LINE
8
LYELLOW
6
CONTINUOUS
10
94.4249999999999972
20
-32.7149999999999963
11
93.1749999999999972
21
-32.7149999999999963
0
LINE
8
LYELLOW
6
CONTINUOUS
10
97.6749999999999972
20
-32.7149999999999963
11
96.4249999999999972
21
-32.7149999999999963
0
LINE
8
LYELLOW
6
CONTINUOUS
10
97.6749999999999972
20
-42.9949999999999974
11
97.6749999999999972
21
-32.7149999999999963
0
ARC
8
LYELLOW
10
95.4249999999999972
20
-32.7149999999999963
40
1.
50
-180.00000000
51
-0.00000000
0
LINE
8
LYELLOW
6
CONTINUOUS
10
56.0349999999999966
20
-32.7149999999999963
11
56.0349999999999966
21
-42.9949999999999974
0
LINE
8
LYELLOW
6
CONTINUOUS
10
56.0349999999999966
20
-42.9949999999999974
11
60.5349999999999966
21
-42.9949999999999974
0
LINE
8
LYELLOW
6
CONTINUOUS
10
57.2849999999999966
20
-32.7149999999999963
11
56.0349999999999966
21
-32.7149999999999963
0
LINE
8
LYELLOW
6
CONTINUOUS
10
60.5349999999999966
20
-32.7149999999999963
11
59.2849999999999966
21
-32.7149999999999963
0
LINE
8
LYELLOW
6
CONTINUOUS
10
60.5349999999999966
20
-42.9949999999999974
11
60.5349999999999966
21
-32.7149999999999963
0
ARC
8
LYELLOW
10
58.2849999999999966
20
-32.7149999999999963
40
1.
50
-180.00000000
51
-0.00000000
0
LINE
8
LYELLOW
6
CONTINUOUS
10
54.6149999999999949
20
-48.3649999999999949
11
61.154999999999994
21
-48.3649999999999949
0
LINE
8
LYELLOW
6
CONTINUOUS
10
54.6149999999999949
20
-48.6950000000000003
11
54.6149999999999949
21
-48.3649999999999949
0
LINE
8
LYELLOW
6
CONTINUOUS
10
54.6149999999999949
20
-50.7749999999999986
11
54.6149999999999949
21
-51.1049999999999969
0
LINE
8
LYELLOW
6
CONTINUOUS
10
54.6149999999999949
20
-51.1049999999999969
11
61.154999999999994
21
-51.1049999999999969
0
LINE
8
LYELLOW
6
CONTINUOUS
10
61.154999999999994
20
-48.3649999999999949
11
61.154999999999994
21
-48.6950000000000003
0
LINE
8
LYELLOW
6
CONTINUOUS
10
61.154999999999994
20
-51.1049999999999969
11
61.154999999999994
21
-50.7749999999999986
0
LINE
8
LYELLOW
6
CONTINUOUS
10
74.6049999999999898
20
-32.7149999999999963
11
74.6049999999999898
21
-42.9949999999999974
0
LINE
8
LYELLOW
6
CONTINUOUS
10
74.6049999999999898
20
-42.9949999999999974
11
79.1049999999999898
21
-42.9949999999999974
0
LINE
8
LYELLOW
6
CONTINUOUS
10
75.8549999999999898
20
-32.7149999999999963
11
74.6049999999999898
21
-32.7149999999999963
0
LINE
8
LYELLOW
6
CONTINUOUS
10
79.1049999999999898
20
-32.7149999999999963
11
77.8549999999999898
21
-32.7149999999999963
0
LINE
8
LYELLOW
6
CONTINUOUS
10
79.1049999999999898
20
-42.9949999999999974
11
79.1049999999999898
21
-32.7149999999999963
0
ARC
8
LYELLOW
10
76.8549999999999898
20
-32.7149999999999963
40
1.
50
-180.00000000
51
-0.00000000
0
LINE
8
LYELLOW
6
CONTINUOUS
10
121.3299999999999983
20
-29.3449999999999989
11
122.7099999999999937
21
-29.3449999999999989
0
LINE
8
LYELLOW
6
CONTINUOUS
10
121.3299999999999983
20
-30.7249999999999979
11
121.3299999999999983
21
-29.3449999999999989
0
LINE
8
LYELLOW
6
CONTINUOUS
10
121.3299999999999983
20
-31.9949999999999974
11
121.3299999999999983
21
-34.644999999999996
0
LINE
8
LYELLOW
6
CONTINUOUS
10
121.3299999999999983
20
-31.9949999999999974
11
124.0899999999999892
21
-31.9949999999999974
0
LINE
8
LYELLOW
6
CONTINUOUS
10
121.3299999999999983
20
-34.644999999999996
11
124.0899999999999892
21
-34.644999999999996
0
LINE
8
LYELLOW
6
CONTINUOUS
10
124.0899999999999892
20
-31.9949999999999974
11
124.0899999999999892
21
-34.644999999999996
0
LINE
8
LYELLOW
6
CONTINUOUS
10
72.3849999999999909
20
-56.4149999999999991
11
78.9249999999999972
21
-56.4149999999999991
0
LINE
8
LYELLOW
6
CONTINUOUS
10
72.3849999999999909
20
-56.7449999999999974
11
72.3849999999999909
21
-56.4149999999999991
0
LINE
8
LYELLOW
6
CONTINUOUS
10
72.3849999999999909
20
-58.8249999999999957
11
72.3849999999999909
21
-59.154999999999994
0
LINE
8
LYELLOW
6
CONTINUOUS
10
72.3849999999999909
20
-59.154999999999994
11
78.9249999999999972
21
-59.154999999999994
0
LINE
8
LYELLOW
6
CONTINUOUS
10
78.9249999999999972
20
-56.4149999999999991
11
78.9249999999999972
21
-56.7449999999999974
0
LINE
8
LYELLOW
6
CONTINUOUS
10
78.9249999999999972
20
-59.154999999999994
11
78.9249999999999972
21
-58.8249999999999957
0
LINE
8
LYELLOW
6
CONTINUOUS
10
54.6149999999999949
20
-56.4149999999999991
11
61.154999999999994
21
-56.4149999999999991
0
LINE
8
LYELLOW
6
CONTINUOUS
10
54.6149999999999949
20
-56.7449999999999974
11
54.6149999999999949
21
-56.4149999999999991
0
LINE
8
LYELLOW
6
CONTINUOUS
10
54.6149999999999949
20
-58.8249999999999957
11
54.6149999999999949
21
-59.154999999999994
0
LINE
8
LYELLOW
6
CONTINUOUS
10
54.6149999999999949
20
-59.154999999999994
11
61.154999999999994
21
-59.154999999999994
0
LINE
8
LYELLOW
6
CONTINUOUS
10
61.154999999999994
20
-56.4149999999999991
11
61.154999999999994
21
-56.7449999999999974
0
LINE
8
LYELLOW
6
CONTINUOUS
10
61.154999999999994
20
-59.154999999999994
11
61.154999999999994
21
-58.8249999999999957
0
LINE
8
LYELLOW
6
CONTINUOUS
10
90.1550000000000011
20
-48.3649999999999949
11
96.6949999999999932
21
-48.3649999999999949
0
LINE
8
LYELLOW
6
CONTINUOUS
10
90.1550000000000011
20
-48.6950000000000003
11
90.1550000000000011
21
-48.3649999999999949
0
LINE
8
LYELLOW
6
CONTINUOUS
10
90.1550000000000011
20
-50.7749999999999986
11
90.1550000000000011
21
-51.1049999999999969
0
LINE
8
LYELLOW
6
CONTINUOUS
10
90.1550000000000011
20
-51.1049999999999969
11
96.6949999999999932
21
-51.1049999999999969
0
LINE
8
LYELLOW
6
CONTINUOUS
10
96.6949999999999932
20
-48.3649999999999949
11
96.6949999999999932
21
-48.6950000000000003
0
LINE
8
LYELLOW
6
CONTINUOUS
10
96.6949999999999932
20
-51.1049999999999969
11
96.6949999999999932
21
-50.7749999999999986
0
LINE
8
LYELLOW
6
CONTINUOUS
10
72.3849999999999909
20
-48.3649999999999949
11
78.9249999999999972
21
-48.3649999999999949
0
LINE
8
LYELLOW
6
CONTINUOUS
10
72.3849999999999909
20
-48.6950000000000003
11
72.3849999999999909
21
-48.3649999999999949
0
LINE
8
LYELLOW
6
CONTINUOUS
10
72.3849999999999909
20
-50.7749999999999986
11
72.3849999999999909
21
-51.1049999999999969
0
LINE
8
LYELLOW
6
CONTINUOUS
10
72.3849999999999909
20
-51.1049999999999969
11
78.9249999999999972
21
-51.1049999999999969
0
LINE
8
LYELLOW
6
CONTINUOUS
10
78.9249999999999972
20
-48.3649999999999949
11
78.9249999999999972
21
-48.6950000000000003
0
LINE
8
LYELLOW
6
CONTINUOUS
10
78.9249999999999972
20
-51.1049999999999969
11
78.9249999999999972
21
-50.7749999999999986
0
LINE
8
LYELLOW
6
CONTINUOUS
10
33.6199999999999974
20
-33.269999999999996
11
33.6199999999999974
21
-28.0799999999999983
0
LINE
8
LYELLOW
6
CONTINUOUS
10
36.3799999999999955
20
-28.0799999999999983
11
33.6199999999999974
21
-28.0799999999999983
0
LINE
8
LYELLOW
6
CONTINUOUS
10
36.3799999999999955
20
-33.269999999999996
11
33.6199999999999974
21
-33.269999999999996
0
LINE
8
LYELLOW
6
CONTINUOUS
10
36.3799999999999955
20
-33.269999999999996
11
36.3799999999999955
21
-28.0799999999999983
0
LINE
8
LYELLOW
6
CONTINUOUS
10
36.3799999999999955
20
-34.5399999999999991
11
36.3799999999999955
21
-35.9200000000000017
0
LINE
8
LYELLOW
6
CONTINUOUS
10
36.3799999999999955
20
-35.9200000000000017
11
35.
21
-35.9200000000000017
0
LINE
8
WHITE
6
CONTINUOUS
10
20.
20
-20.
11
138.
21
-20.
0
LINE
8
WHITE
6
CONTINUOUS
10
138.
20
-20.
11
138.
21
-70.
0
LINE
8
WHITE
6
CONTINUOUS
10
138.
20
-70.
11
20.
21
-70.
0
LINE
8
WHITE
6
CONTINUOUS
10
20.
20
-70.
11
20.
21
-20.
  0
ENDSEC
  0
EOF
