  0
SECTION
  2
HEADER
  9
$ANGBASE
  50
0.0
  9
$ANGDIR
  70
1
  9
$MEASUREMENT
  70
1
  0
ENDSEC
  0
SECTION
  2
TABLES
  0
TABLE
  2
LTYPE
  70
4
  0
LTYPE
  5
40F
  2
CONTINUOUS
  70
0
  3
Solid line
  72
65
  73
0
  40
0.0
  0
LTYPE
  5
410
  2
DASHDOT
 70
0
  3
Dash Dot ____ _ ____ _
 72
65
 73
4
 40
2.0
 49
1.25
 49
-0.25
 49
0.25
 49
-0.25
  0
LTYPE
  5
411
  2
DASHED
 70
0
  3
Dashed __ __ __ __ __
 72
65
 73
2
 40
0.75
 49
0.5
 49
-0.25
  0
LTYPE
  5
43B
  2
DOTTED
 70
0
  3
Dotted .  .  .  .
 72
65
 73
2
 40
0.2
 49
0.0
 49
-0.2
  0
ENDTAB
  0
TABLE
  2
STYLE
  70
4
  0
STYLE
  2
KICAD
  70
0
  40
0
  41
1
  42
1
  50
0
  71
0
  3
isocp.shx
  0
STYLE
  2
KICADB
  70
0
  40
0
  41
1
  42
1
  50
0
  71
0
  3
isocp.shx
  0
STYLE
  2
KICADI
  70
0
  40
0
  41
1
  42
1
  50
15
  71
0
  3
isocp.shx
  0
STYLE
  2
KICADBI
  70
0
  40
0
  41
1
  42
1
  50
15
  71
0
  3
isocp.shx
  0
ENDTAB
  0
TABLE
  2
LAYER
  70
35
  0
LAYER
  2
BLACK
  70
0
  62
7
  6
CONTINUOUS
  0
LAYER
  2
GRAY1
  70
0
  62
251
  6
CONTINUOUS
  0
LAYER
  2
GRAY2
  70
0
  62
8
  6
CONTINUOUS
  0
LAYER
  2
GRAY3
  70
0
  62
9
  6
CONTINUOUS
  0
LAYER
  2
WHITE
  70
0
  62
7
  6
CONTINUOUS
  0
LAYER
  2
LYELLOW
  70
0
  62
51
  6
CONTINUOUS
  0
LAYER
  2
LORANGE
  70
0
  62
41
  6
CONTINUOUS
  0
LAYER
  2
BLUE1
  70
0
  62
178
  6
CONTINUOUS
  0
LAYER
  2
GREEN1
  70
0
  62
98
  6
CONTINUOUS
  0
LAYER
  2
CYAN1
  70
0
  62
138
  6
CONTINUOUS
  0
LAYER
  2
RED1
  70
0
  62
18
  6
CONTINUOUS
  0
LAYER
  2
MAGENTA1
  70
0
  62
228
  6
CONTINUOUS
  0
LAYER
  2
BROWN1
  70
0
  62
58
  6
CONTINUOUS
  0
LAYER
  2
ORANGE1
  70
0
  62
34
  6
CONTINUOUS
  0
LAYER
  2
BLUE2
  70
0
  62
5
  6
CONTINUOUS
  0
LAYER
  2
GREEN2
  70
0
  62
3
  6
CONTINUOUS
  0
LAYER
  2
CYAN2
  70
0
  62
4
  6
CONTINUOUS
  0
LAYER
  2
RED2
  70
0
  62
1
  6
CONTINUOUS
  0
LAYER
  2
MAGENTA2
  70
0
  62
6
  6
CONTINUOUS
  0
LAYER
  2
BROWN2
  70
0
  62
54
  6
CONTINUOUS
  0
LAYER
  2
ORANGE2
  70
0
  62
42
  6
CONTINUOUS
  0
LAYER
  2
BLUE3
  70
0
  62
171
  6
CONTINUOUS
  0
LAYER
  2
GREEN3
  70
0
  62
91
  6
CONTINUOUS
  0
LAYER
  2
CYAN3
  70
0
  62
131
  6
CONTINUOUS
  0
LAYER
  2
RED3
  70
0
  62
11
  6
CONTINUOUS
  0
LAYER
  2
MAGENTA3
  70
0
  62
221
  6
CONTINUOUS
  0
LAYER
  2
YELLOW3
  70
0
  62
2
  6
CONTINUOUS
  0
LAYER
  2
ORANGE3
  70
0
  62
32
  6
CONTINUOUS
  0
LAYER
  2
BLUE4
  70
0
  62
5
  6
CONTINUOUS
  0
LAYER
  2
GREEN4
  70
0
  62
3
  6
CONTINUOUS
  0
LAYER
  2
CYAN4
  70
0
  62
4
  6
CONTINUOUS
  0
LAYER
  2
RED4
  70
0
  62
1
  6
CONTINUOUS
  0
LAYER
  2
MAGENTA4
  70
0
  62
6
  6
CONTINUOUS
  0
LAYER
  2
YELLOW4
  70
0
  62
2
  6
CONTINUOUS
  0
LAYER
  2
ORANGE4
  70
0
  62
40
  6
CONTINUOUS
  0
ENDTAB
  0
ENDSEC
  0
SECTION
  2
ENTITIES
0
LINE
8
LYELLOW
6
CONTINUOUS
10
50.5930949999999982
20
-43.5048189999999977
11
50.5930949999999982
21
-44.3143419999999963
0
LINE
8
LYELLOW
6
CONTINUOUS
10
50.5930949999999982
20
-44.3143419999999963
11
50.6407139999999956
21
-44.4095799999999983
0
LINE
8
LYELLOW
6
CONTINUOUS
10
50.6407139999999956
20
-44.4095799999999983
11
50.6883330000000001
21
-44.4572000000000003
0
LINE
8
LYELLOW
6
CONTINUOUS
10
50.6883330000000001
20
-44.4572000000000003
11
50.7835709999999949
21
-44.5048189999999977
0
LINE
8
LYELLOW
6
CONTINUOUS
10
50.7835709999999949
20
-44.5048189999999977
11
50.9740469999999988
21
-44.5048189999999977
0
LINE
8
LYELLOW
6
CONTINUOUS
10
50.9740469999999988
20
-44.5048189999999977
11
51.0692850000000007
21
-44.4572000000000003
0
LINE
8
LYELLOW
6
CONTINUOUS
10
51.0692850000000007
20
-44.4572000000000003
11
51.1169039999999981
21
-44.4095799999999983
0
LINE
8
LYELLOW
6
CONTINUOUS
10
51.1169039999999981
20
-44.4095799999999983
11
51.1645229999999955
21
-44.3143419999999963
0
LINE
8
LYELLOW
6
CONTINUOUS
10
51.1645229999999955
20
-44.3143419999999963
11
51.1645229999999955
21
-43.5048189999999977
0
LINE
8
LYELLOW
6
CONTINUOUS
10
51.5454760000000007
20
-43.5048189999999977
11
52.1645229999999955
21
-43.5048189999999977
0
LINE
8
LYELLOW
6
CONTINUOUS
10
52.1645229999999955
20
-43.5048189999999977
11
51.8311899999999994
21
-43.8857709999999983
0
LINE
8
LYELLOW
6
CONTINUOUS
10
51.8311899999999994
20
-43.8857709999999983
11
51.9740469999999988
21
-43.8857709999999983
0
LINE
8
LYELLOW
6
CONTINUOUS
10
51.9740469999999988
20
-43.8857709999999983
11
52.0692850000000007
21
-43.9333899999999957
0
LINE
8
LYELLOW
6
CONTINUOUS
10
52.0692850000000007
20
-43.9333899999999957
11
52.1169039999999981
21
-43.9810090000000002
0
LINE
8
LYELLOW
6
CONTINUOUS
10
52.1169039999999981
20
-43.9810090000000002
11
52.1645229999999955
21
-44.0762469999999951
0
LINE
8
LYELLOW
6
CONTINUOUS
10
52.1645229999999955
20
-44.0762469999999951
11
52.1645229999999955
21
-44.3143419999999963
0
LINE
8
LYELLOW
6
CONTINUOUS
10
52.1645229999999955
20
-44.3143419999999963
11
52.1169039999999981
21
-44.4095799999999983
0
LINE
8
LYELLOW
6
CONTINUOUS
10
52.1169039999999981
20
-44.4095799999999983
11
52.0692850000000007
21
-44.4572000000000003
0
LINE
8
LYELLOW
6
CONTINUOUS
10
52.0692850000000007
20
-44.4572000000000003
11
51.9740469999999988
21
-44.5048189999999977
0
LINE
8
LYELLOW
6
CONTINUOUS
10
51.9740469999999988
20
-44.5048189999999977
11
51.6883330000000001
21
-44.5048189999999977
0
LINE
8
LYELLOW
6
CONTINUOUS
10
51.6883330000000001
20
-44.5048189999999977
11
51.5930949999999982
21
-44.4572000000000003
0
LINE
8
LYELLOW
6
CONTINUOUS
10
51.5930949999999982
20
-44.4572000000000003
11
51.5454760000000007
21
-44.4095799999999983
0
LINE
8
LYELLOW
6
CONTINUOUS
10
35.2183330000000012
20
-77.9148189999999943
11
34.884999999999998
21
-77.4386279999999942
0
LINE
8
LYELLOW
6
CONTINUOUS
10
34.6469049999999967
20
-77.9148189999999943
11
34.6469049999999967
21
-76.9148189999999943
0
LINE
8
LYELLOW
6
CONTINUOUS
10
34.6469049999999967
20
-76.9148189999999943
11
35.0278569999999974
21
-76.9148189999999943
0
LINE
8
LYELLOW
6
CONTINUOUS
10
35.0278569999999974
20
-76.9148189999999943
11
35.1230949999999993
21
-76.9624379999999917
0
LINE
8
LYELLOW
6
CONTINUOUS
10
35.1230949999999993
20
-76.9624379999999917
11
35.1707139999999967
21
-77.0100570000000033
0
LINE
8
LYELLOW
6
CONTINUOUS
10
35.1707139999999967
20
-77.0100570000000033
11
35.2183330000000012
21
-77.1052949999999981
0
LINE
8
LYELLOW
6
CONTINUOUS
10
35.2183330000000012
20
-77.1052949999999981
11
35.2183330000000012
21
-77.2481519999999904
0
LINE
8
LYELLOW
6
CONTINUOUS
10
35.2183330000000012
20
-77.2481519999999904
11
35.1707139999999967
21
-77.3433899999999994
0
LINE
8
LYELLOW
6
CONTINUOUS
10
35.1707139999999967
20
-77.3433899999999994
11
35.1230949999999993
21
-77.3910089999999968
0
LINE
8
LYELLOW
6
CONTINUOUS
10
35.1230949999999993
20
-77.3910089999999968
11
35.0278569999999974
21
-77.4386279999999942
0
LINE
8
LYELLOW
6
CONTINUOUS
10
35.0278569999999974
20
-77.4386279999999942
11
34.6469049999999967
21
-77.4386279999999942
0
LINE
8
LYELLOW
6
CONTINUOUS
10
36.0754760000000019
20
-77.2481519999999904
11
36.0754760000000019
21
-77.9148189999999943
0
LINE
8
LYELLOW
6
CONTINUOUS
10
35.8373810000000006
20
-76.8671999999999969
11
35.5992859999999993
21
-77.5814850000000007
0
LINE
8
LYELLOW
6
CONTINUOUS
10
35.5992859999999993
20
-77.5814850000000007
11
36.2183330000000012
21
-77.5814850000000007
0
LINE
8
LYELLOW
6
CONTINUOUS
10
49.9883329999999972
20
-71.8648189999999971
11
49.6550000000000011
21
-71.3886279999999971
0
LINE
8
LYELLOW
6
CONTINUOUS
10
49.4169049999999999
20
-71.8648189999999971
11
49.4169049999999999
21
-70.8648189999999971
0
LINE
8
LYELLOW
6
CONTINUOUS
10
49.4169049999999999
20
-70.8648189999999971
11
49.7978570000000005
21
-70.8648189999999971
0
LINE
8
LYELLOW
6
CONTINUOUS
10
49.7978570000000005
20
-70.8648189999999971
11
49.8930949999999953
21
-70.9124379999999945
0
LINE
8
LYELLOW
6
CONTINUOUS
10
49.8930949999999953
20
-70.9124379999999945
11
49.9407139999999998
21
-70.9600569999999919
0
LINE
8
LYELLOW
6
CONTINUOUS
10
49.9407139999999998
20
-70.9600569999999919
11
49.9883329999999972
21
-71.055295000000001
0
LINE
8
LYELLOW
6
CONTINUOUS
10
49.9883329999999972
20
-71.055295000000001
11
49.9883329999999972
21
-71.1981519999999932
0
LINE
8
LYELLOW
6
CONTINUOUS
10
49.9883329999999972
20
-71.1981519999999932
11
49.9407139999999998
21
-71.2933900000000023
0
LINE
8
LYELLOW
6
CONTINUOUS
10
49.9407139999999998
20
-71.2933900000000023
11
49.8930949999999953
21
-71.3410089999999997
0
LINE
8
LYELLOW
6
CONTINUOUS
10
49.8930949999999953
20
-71.3410089999999997
11
49.7978570000000005
21
-71.3886279999999971
0
LINE
8
LYELLOW
6
CONTINUOUS
10
49.7978570000000005
20
-71.3886279999999971
11
49.4169049999999999
21
-71.3886279999999971
0
LINE
8
LYELLOW
6
CONTINUOUS
10
50.3216669999999979
20
-70.8648189999999971
11
50.9407139999999998
21
-70.8648189999999971
0
LINE
8
LYELLOW
6
CONTINUOUS
10
50.9407139999999998
20
-70.8648189999999971
11
50.6073809999999966
21
-71.2457709999999906
0
LINE
8
LYELLOW
6
CONTINUOUS
10
50.6073809999999966
20
-71.2457709999999906
11
50.750237999999996
21
-71.2457709999999906
0
LINE
8
LYELLOW
6
CONTINUOUS
10
50.750237999999996
20
-71.2457709999999906
11
50.8454759999999979
21
-71.2933900000000023
0
LINE
8
LYELLOW
6
CONTINUOUS
10
50.8454759999999979
20
-71.2933900000000023
11
50.8930949999999953
21
-71.3410089999999997
0
LINE
8
LYELLOW
6
CONTINUOUS
10
50.8930949999999953
20
-71.3410089999999997
11
50.9407139999999998
21
-71.4362469999999945
0
LINE
8
LYELLOW
6
CONTINUOUS
10
50.9407139999999998
20
-71.4362469999999945
11
50.9407139999999998
21
-71.6743419999999958
0
LINE
8
LYELLOW
6
CONTINUOUS
10
50.9407139999999998
20
-71.6743419999999958
11
50.8930949999999953
21
-71.7695799999999906
0
LINE
8
LYELLOW
6
CONTINUOUS
10
50.8930949999999953
20
-71.7695799999999906
11
50.8454759999999979
21
-71.8171999999999997
0
LINE
8
LYELLOW
6
CONTINUOUS
10
50.8454759999999979
20
-71.8171999999999997
11
50.750237999999996
21
-71.8648189999999971
0
LINE
8
LYELLOW
6
CONTINUOUS
10
50.750237999999996
20
-71.8648189999999971
11
50.4645239999999973
21
-71.8648189999999971
0
LINE
8
LYELLOW
6
CONTINUOUS
10
50.4645239999999973
20
-71.8648189999999971
11
50.3692859999999953
21
-71.8171999999999997
0
LINE
8
LYELLOW
6
CONTINUOUS
10
50.3692859999999953
20
-71.8171999999999997
11
50.3216669999999979
21
-71.7695799999999906
0
LINE
8
LYELLOW
6
CONTINUOUS
10
50.7883329999999944
20
-61.9848189999999946
11
50.4549999999999983
21
-61.5086279999999945
0
LINE
8
LYELLOW
6
CONTINUOUS
10
50.216904999999997
20
-61.9848189999999946
11
50.216904999999997
21
-60.9848189999999946
0
LINE
8
LYELLOW
6
CONTINUOUS
10
50.216904999999997
20
-60.9848189999999946
11
50.5978569999999976
21
-60.9848189999999946
0
LINE
8
LYELLOW
6
CONTINUOUS
10
50.5978569999999976
20
-60.9848189999999946
11
50.6930949999999996
21
-61.0324379999999991
0
LINE
8
LYELLOW
6
CONTINUOUS
10
50.6930949999999996
20
-61.0324379999999991
11
50.740713999999997
21
-61.0800569999999965
0
LINE
8
LYELLOW
6
CONTINUOUS
10
50.740713999999997
20
-61.0800569999999965
11
50.7883329999999944
21
-61.1752949999999984
0
LINE
8
LYELLOW
6
CONTINUOUS
10
50.7883329999999944
20
-61.1752949999999984
11
50.7883329999999944
21
-61.3181519999999978
0
LINE
8
LYELLOW
6
CONTINUOUS
10
50.7883329999999944
20
-61.3181519999999978
11
50.740713999999997
21
-61.4133899999999997
0
LINE
8
LYELLOW
6
CONTINUOUS
10
50.740713999999997
20
-61.4133899999999997
11
50.6930949999999996
21
-61.4610089999999971
0
LINE
8
LYELLOW
6
CONTINUOUS
10
50.6930949999999996
20
-61.4610089999999971
11
50.5978569999999976
21
-61.5086279999999945
0
LINE
8
LYELLOW
6
CONTINUOUS
10
50.5978569999999976
20
-61.5086279999999945
11
50.216904999999997
21
-61.5086279999999945
0
LINE
8
LYELLOW
6
CONTINUOUS
10
51.740713999999997
20
-61.9848189999999946
11
51.1692859999999996
21
-61.9848189999999946
0
LINE
8
LYELLOW
6
CONTINUOUS
10
51.4549999999999983
20
-61.9848189999999946
11
51.4549999999999983
21
-60.9848189999999946
0
LINE
8
LYELLOW
6
CONTINUOUS
10
51.4549999999999983
20
-60.9848189999999946
11
51.3597619999999964
21
-61.1276759999999939
0
LINE
8
LYELLOW
6
CONTINUOUS
10
51.3597619999999964
20
-61.1276759999999939
11
51.2645239999999944
21
-61.2229139999999958
0
LINE
8
LYELLOW
6
CONTINUOUS
10
51.2645239999999944
20
-61.2229139999999958
11
51.1692859999999996
21
-61.2705330000000004
0
LINE
8
LYELLOW
6
CONTINUOUS
10
108.6666659999999922
20
-27.7998189999999994
11
108.6666659999999922
21
-28.5141039999999997
0
LINE
8
LYELLOW
6
CONTINUOUS
10
108.6666659999999922
20
-28.5141039999999997
11
108.6190469999999948
21
-28.656960999999999
0
LINE
8
LYELLOW
6
CONTINUOUS
10
108.6190469999999948
20
-28.656960999999999
11
108.523809
21
-28.7521999999999984
0
LINE
8
LYELLOW
6
CONTINUOUS
10
108.523809
20
-28.7521999999999984
11
108.3809519999999935
21
-28.7998189999999994
0
LINE
8
LYELLOW
6
CONTINUOUS
10
108.3809519999999935
20
-28.7998189999999994
11
108.2857139999999987
21
-28.7998189999999994
0
LINE
8
LYELLOW
6
CONTINUOUS
10
109.0952379999999948
20
-27.8950569999999978
11
109.1428569999999922
21
-27.8474380000000004
0
LINE
8
LYELLOW
6
CONTINUOUS
10
109.1428569999999922
20
-27.8474380000000004
11
109.2380950000000013
21
-27.7998189999999994
0
LINE
8
LYELLOW
6
CONTINUOUS
10
109.2380950000000013
20
-27.7998189999999994
11
109.4761899999999883
21
-27.7998189999999994
0
LINE
8
LYELLOW
6
CONTINUOUS
10
109.4761899999999883
20
-27.7998189999999994
11
109.5714279999999974
21
-27.8474380000000004
0
LINE
8
LYELLOW
6
CONTINUOUS
10
109.5714279999999974
20
-27.8474380000000004
11
109.6190469999999948
21
-27.8950569999999978
0
LINE
8
LYELLOW
6
CONTINUOUS
10
109.6190469999999948
20
-27.8950569999999978
11
109.6666659999999922
21
-27.9902949999999997
0
LINE
8
LYELLOW
6
CONTINUOUS
10
109.6666659999999922
20
-27.9902949999999997
11
109.6666659999999922
21
-28.0855329999999981
0
LINE
8
LYELLOW
6
CONTINUOUS
10
109.6666659999999922
20
-28.0855329999999981
11
109.6190469999999948
21
-28.2283899999999974
0
LINE
8
LYELLOW
6
CONTINUOUS
10
109.6190469999999948
20
-28.2283899999999974
11
109.0476189999999974
21
-28.7998189999999994
0
LINE
8
LYELLOW
6
CONTINUOUS
10
109.0476189999999974
20
-28.7998189999999994
11
109.6666659999999922
21
-28.7998189999999994
0
LINE
8
LYELLOW
6
CONTINUOUS
10
35.0230949999999979
20
-57.2148189999999985
11
35.0230949999999979
21
-58.0243419999999972
0
LINE
8
LYELLOW
6
CONTINUOUS
10
35.0230949999999979
20
-58.0243419999999972
11
35.0707139999999953
21
-58.1195799999999991
0
LINE
8
LYELLOW
6
CONTINUOUS
10
35.0707139999999953
20
-58.1195799999999991
11
35.1183329999999998
21
-58.167199999999994
0
LINE
8
LYELLOW
6
CONTINUOUS
10
35.1183329999999998
20
-58.167199999999994
11
35.2135710000000017
21
-58.2148189999999985
0
LINE
8
LYELLOW
6
CONTINUOUS
10
35.2135710000000017
20
-58.2148189999999985
11
35.4040469999999985
21
-58.2148189999999985
0
LINE
8
LYELLOW
6
CONTINUOUS
10
35.4040469999999985
20
-58.2148189999999985
11
35.4992850000000004
21
-58.167199999999994
0
LINE
8
LYELLOW
6
CONTINUOUS
10
35.4992850000000004
20
-58.167199999999994
11
35.5469039999999978
21
-58.1195799999999991
0
LINE
8
LYELLOW
6
CONTINUOUS
10
35.5469039999999978
20
-58.1195799999999991
11
35.5945229999999952
21
-58.0243419999999972
0
LINE
8
LYELLOW
6
CONTINUOUS
10
35.5945229999999952
20
-58.0243419999999972
11
35.5945229999999952
21
-57.2148189999999985
0
LINE
8
LYELLOW
6
CONTINUOUS
10
36.4992850000000004
20
-57.5481519999999946
11
36.4992850000000004
21
-58.2148189999999985
0
LINE
8
LYELLOW
6
CONTINUOUS
10
36.2611899999999991
20
-57.167199999999994
11
36.0230949999999979
21
-57.8814849999999979
0
LINE
8
LYELLOW
6
CONTINUOUS
10
36.0230949999999979
20
-57.8814849999999979
11
36.6421419999999998
21
-57.8814849999999979
0
LINE
8
LYELLOW
6
CONTINUOUS
10
35.2183330000000012
20
-71.8648189999999971
11
34.884999999999998
21
-71.3886279999999971
0
LINE
8
LYELLOW
6
CONTINUOUS
10
34.6469049999999967
20
-71.8648189999999971
11
34.6469049999999967
21
-70.8648189999999971
0
LINE
8
LYELLOW
6
CONTINUOUS
10
34.6469049999999967
20
-70.8648189999999971
11
35.0278569999999974
21
-70.8648189999999971
0
LINE
8
LYELLOW
6
CONTINUOUS
10
35.0278569999999974
20
-70.8648189999999971
11
35.1230949999999993
21
-70.9124379999999945
0
LINE
8
LYELLOW
6
CONTINUOUS
10
35.1230949999999993
20
-70.9124379999999945
11
35.1707139999999967
21
-70.9600569999999919
0
LINE
8
LYELLOW
6
CONTINUOUS
10
35.1707139999999967
20
-70.9600569999999919
11
35.2183330000000012
21
-71.055295000000001
0
LINE
8
LYELLOW
6
CONTINUOUS
10
35.2183330000000012
20
-71.055295000000001
11
35.2183330000000012
21
-71.1981519999999932
0
LINE
8
LYELLOW
6
CONTINUOUS
10
35.2183330000000012
20
-71.1981519999999932
11
35.1707139999999967
21
-71.2933900000000023
0
LINE
8
LYELLOW
6
CONTINUOUS
10
35.1707139999999967
20
-71.2933900000000023
11
35.1230949999999993
21
-71.3410089999999997
0
LINE
8
LYELLOW
6
CONTINUOUS
10
35.1230949999999993
20
-71.3410089999999997
11
35.0278569999999974
21
-71.3886279999999971
0
LINE
8
LYELLOW
6
CONTINUOUS
10
35.0278569999999974
20
-71.3886279999999971
11
34.6469049999999967
21
-71.3886279999999971
0
LINE
8
LYELLOW
6
CONTINUOUS
10
35.5992859999999993
20
-70.9600569999999919
11
35.6469049999999967
21
-70.9124379999999945
0
LINE
8
LYELLOW
6
CONTINUOUS
10
35.6469049999999967
20
-70.9124379999999945
11
35.7421429999999987
21
-70.8648189999999971
0
LINE
8
LYELLOW
6
CONTINUOUS
10
35.7421429999999987
20
-70.8648189999999971
11
35.9802379999999999
21
-70.8648189999999971
0
LINE
8
LYELLOW
6
CONTINUOUS
10
35.9802379999999999
20
-70.8648189999999971
11
36.0754760000000019
21
-70.9124379999999945
0
LINE
8
LYELLOW
6
CONTINUOUS
10
36.0754760000000019
20
-70.9124379999999945
11
36.1230949999999993
21
-70.9600569999999919
0
LINE
8
LYELLOW
6
CONTINUOUS
10
36.1230949999999993
20
-70.9600569999999919
11
36.1707139999999967
21
-71.055295000000001
0
LINE
8
LYELLOW
6
CONTINUOUS
10
36.1707139999999967
20
-71.055295000000001
11
36.1707139999999967
21
-71.1505329999999958
0
LINE
8
LYELLOW
6
CONTINUOUS
10
36.1707139999999967
20
-71.1505329999999958
11
36.1230949999999993
21
-71.2933900000000023
0
LINE
8
LYELLOW
6
CONTINUOUS
10
36.1230949999999993
20
-71.2933900000000023
11
35.5516670000000019
21
-71.8648189999999971
0
LINE
8
LYELLOW
6
CONTINUOUS
10
35.5516670000000019
20
-71.8648189999999971
11
36.1707139999999967
21
-71.8648189999999971
0
LINE
8
LYELLOW
6
CONTINUOUS
10
49.9883329999999972
20
-77.9148189999999943
11
49.6550000000000011
21
-77.4386279999999942
0
LINE
8
LYELLOW
6
CONTINUOUS
10
49.4169049999999999
20
-77.9148189999999943
11
49.4169049999999999
21
-76.9148189999999943
0
LINE
8
LYELLOW
6
CONTINUOUS
10
49.4169049999999999
20
-76.9148189999999943
11
49.7978570000000005
21
-76.9148189999999943
0
LINE
8
LYELLOW
6
CONTINUOUS
10
49.7978570000000005
20
-76.9148189999999943
11
49.8930949999999953
21
-76.9624379999999917
0
LINE
8
LYELLOW
6
CONTINUOUS
10
49.8930949999999953
20
-76.9624379999999917
11
49.9407139999999998
21
-77.0100570000000033
0
LINE
8
LYELLOW
6
CONTINUOUS
10
49.9407139999999998
20
-77.0100570000000033
11
49.9883329999999972
21
-77.1052949999999981
0
LINE
8
LYELLOW
6
CONTINUOUS
10
49.9883329999999972
20
-77.1052949999999981
11
49.9883329999999972
21
-77.2481519999999904
0
LINE
8
LYELLOW
6
CONTINUOUS
10
49.9883329999999972
20
-77.2481519999999904
11
49.9407139999999998
21
-77.3433899999999994
0
LINE
8
LYELLOW
6
CONTINUOUS
10
49.9407139999999998
20
-77.3433899999999994
11
49.8930949999999953
21
-77.3910089999999968
0
LINE
8
LYELLOW
6
CONTINUOUS
10
49.8930949999999953
20
-77.3910089999999968
11
49.7978570000000005
21
-77.4386279999999942
0
LINE
8
LYELLOW
6
CONTINUOUS
10
49.7978570000000005
20
-77.4386279999999942
11
49.4169049999999999
21
-77.4386279999999942
0
LINE
8
LYELLOW
6
CONTINUOUS
10
50.8930949999999953
20
-76.9148189999999943
11
50.4169049999999999
21
-76.9148189999999943
0
LINE
8
LYELLOW
6
CONTINUOUS
10
50.4169049999999999
20
-76.9148189999999943
11
50.3692859999999953
21
-77.3910089999999968
0
LINE
8
LYELLOW
6
CONTINUOUS
10
50.3692859999999953
20
-77.3910089999999968
11
50.4169049999999999
21
-77.3433899999999994
0
LINE
8
LYELLOW
6
CONTINUOUS
10
50.4169049999999999
20
-77.3433899999999994
11
50.5121429999999947
21
-77.295771000000002
0
LINE
8
LYELLOW
6
CONTINUOUS
10
50.5121429999999947
20
-77.295771000000002
11
50.750237999999996
21
-77.295771000000002
0
LINE
8
LYELLOW
6
CONTINUOUS
10
50.750237999999996
20
-77.295771000000002
11
50.8454759999999979
21
-77.3433899999999994
0
LINE
8
LYELLOW
6
CONTINUOUS
10
50.8454759999999979
20
-77.3433899999999994
11
50.8930949999999953
21
-77.3910089999999968
0
LINE
8
LYELLOW
6
CONTINUOUS
10
50.8930949999999953
20
-77.3910089999999968
11
50.9407139999999998
21
-77.4862469999999917
0
LINE
8
LYELLOW
6
CONTINUOUS
10
50.9407139999999998
20
-77.4862469999999917
11
50.9407139999999998
21
-77.7243419999999929
0
LINE
8
LYELLOW
6
CONTINUOUS
10
50.9407139999999998
20
-77.7243419999999929
11
50.8930949999999953
21
-77.819580000000002
0
LINE
8
LYELLOW
6
CONTINUOUS
10
50.8930949999999953
20
-77.819580000000002
11
50.8454759999999979
21
-77.8671999999999969
0
LINE
8
LYELLOW
6
CONTINUOUS
10
50.8454759999999979
20
-77.8671999999999969
11
50.750237999999996
21
-77.9148189999999943
0
LINE
8
LYELLOW
6
CONTINUOUS
10
50.750237999999996
20
-77.9148189999999943
11
50.5121429999999947
21
-77.9148189999999943
0
LINE
8
LYELLOW
6
CONTINUOUS
10
50.5121429999999947
20
-77.9148189999999943
11
50.4169049999999999
21
-77.8671999999999969
0
LINE
8
LYELLOW
6
CONTINUOUS
10
50.4169049999999999
20
-77.8671999999999969
11
50.3692859999999953
21
-77.819580000000002
0
LINE
8
LYELLOW
6
CONTINUOUS
10
35.0230949999999979
20
-43.5048189999999977
11
35.0230949999999979
21
-44.3143419999999963
0
LINE
8
LYELLOW
6
CONTINUOUS
10
35.0230949999999979
20
-44.3143419999999963
11
35.0707139999999953
21
-44.4095799999999983
0
LINE
8
LYELLOW
6
CONTINUOUS
10
35.0707139999999953
20
-44.4095799999999983
11
35.1183329999999998
21
-44.4572000000000003
0
LINE
8
LYELLOW
6
CONTINUOUS
10
35.1183329999999998
20
-44.4572000000000003
11
35.2135710000000017
21
-44.5048189999999977
0
LINE
8
LYELLOW
6
CONTINUOUS
10
35.2135710000000017
20
-44.5048189999999977
11
35.4040469999999985
21
-44.5048189999999977
0
LINE
8
LYELLOW
6
CONTINUOUS
10
35.4040469999999985
20
-44.5048189999999977
11
35.4992850000000004
21
-44.4572000000000003
0
LINE
8
LYELLOW
6
CONTINUOUS
10
35.4992850000000004
20
-44.4572000000000003
11
35.5469039999999978
21
-44.4095799999999983
0
LINE
8
LYELLOW
6
CONTINUOUS
10
35.5469039999999978
20
-44.4095799999999983
11
35.5945229999999952
21
-44.3143419999999963
0
LINE
8
LYELLOW
6
CONTINUOUS
10
35.5945229999999952
20
-44.3143419999999963
11
35.5945229999999952
21
-43.5048189999999977
0
LINE
8
LYELLOW
6
CONTINUOUS
10
36.5945229999999952
20
-44.5048189999999977
11
36.0230949999999979
21
-44.5048189999999977
0
LINE
8
LYELLOW
6
CONTINUOUS
10
36.3088089999999966
20
-44.5048189999999977
11
36.3088089999999966
21
-43.5048189999999977
0
LINE
8
LYELLOW
6
CONTINUOUS
10
36.3088089999999966
20
-43.5048189999999977
11
36.2135710000000017
21
-43.647675999999997
0
LINE
8
LYELLOW
6
CONTINUOUS
10
36.2135710000000017
20
-43.647675999999997
11
36.1183329999999998
21
-43.742913999999999
0
LINE
8
LYELLOW
6
CONTINUOUS
10
36.1183329999999998
20
-43.742913999999999
11
36.0230949999999979
21
-43.7905329999999964
0
LINE
8
LYELLOW
6
CONTINUOUS
10
34.6666659999999993
20
-36.3748189999999951
11
34.6666659999999993
21
-37.089103999999999
0
LINE
8
LYELLOW
6
CONTINUOUS
10
34.6666659999999993
20
-37.089103999999999
11
34.6190470000000019
21
-37.2319609999999983
0
LINE
8
LYELLOW
6
CONTINUOUS
10
34.6190470000000019
20
-37.2319609999999983
11
34.523809
21
-37.3271999999999977
0
LINE
8
LYELLOW
6
CONTINUOUS
10
34.523809
20
-37.3271999999999977
11
34.3809520000000006
21
-37.3748189999999951
0
LINE
8
LYELLOW
6
CONTINUOUS
10
34.3809520000000006
20
-37.3748189999999951
11
34.2857139999999987
21
-37.3748189999999951
0
LINE
8
LYELLOW
6
CONTINUOUS
10
35.6666659999999993
20
-37.3748189999999951
11
35.0952380000000019
21
-37.3748189999999951
0
LINE
8
LYELLOW
6
CONTINUOUS
10
35.3809520000000006
20
-37.3748189999999951
11
35.3809520000000006
21
-36.3748189999999951
0
LINE
8
LYELLOW
6
CONTINUOUS
10
35.3809520000000006
20
-36.3748189999999951
11
35.2857139999999987
21
-36.5176760000000016
0
LINE
8
LYELLOW
6
CONTINUOUS
10
35.2857139999999987
20
-36.5176760000000016
11
35.1904759999999968
21
-36.6129139999999964
0
LINE
8
LYELLOW
6
CONTINUOUS
10
35.1904759999999968
20
-36.6129139999999964
11
35.0952380000000019
21
-36.6605330000000009
0
LINE
8
LYELLOW
6
CONTINUOUS
10
49.1049999999999969
20
-45.0499999999999972
11
49.1049999999999969
21
-55.3299999999999983
0
LINE
8
LYELLOW
6
CONTINUOUS
10
49.1049999999999969
20
-55.3299999999999983
11
53.6049999999999969
21
-55.3299999999999983
0
LINE
8
LYELLOW
6
CONTINUOUS
10
50.3549999999999969
20
-45.0499999999999972
11
49.1049999999999969
21
-45.0499999999999972
0
LINE
8
LYELLOW
6
CONTINUOUS
10
53.6049999999999969
20
-45.0499999999999972
11
52.3549999999999969
21
-45.0499999999999972
0
LINE
8
LYELLOW
6
CONTINUOUS
10
53.6049999999999969
20
-55.3299999999999983
11
53.6049999999999969
21
-45.0499999999999972
0
ARC
8
LYELLOW
10
51.3549999999999969
20
-45.0499999999999972
40
1.
50
-180.00000000
51
-0.00000000
0
LINE
8
LYELLOW
6
CONTINUOUS
10
32.115000000000002
20
-78.4599999999999937
11
38.6550000000000011
21
-78.4599999999999937
0
LINE
8
LYELLOW
6
CONTINUOUS
10
32.115000000000002
20
-78.789999999999992
11
32.115000000000002
21
-78.4599999999999937
0
LINE
8
LYELLOW
6
CONTINUOUS
10
32.115000000000002
20
-80.8699999999999903
11
32.115000000000002
21
-81.2000000000000028
0
LINE
8
LYELLOW
6
CONTINUOUS
10
32.115000000000002
20
-81.2000000000000028
11
38.6550000000000011
21
-81.2000000000000028
0
LINE
8
LYELLOW
6
CONTINUOUS
10
38.6550000000000011
20
-78.4599999999999937
11
38.6550000000000011
21
-78.789999999999992
0
LINE
8
LYELLOW
6
CONTINUOUS
10
38.6550000000000011
20
-81.2000000000000028
11
38.6550000000000011
21
-80.8699999999999903
0
LINE
8
LYELLOW
6
CONTINUOUS
10
46.884999999999998
20
-72.4099999999999966
11
53.4249999999999972
21
-72.4099999999999966
0
LINE
8
LYELLOW
6
CONTINUOUS
10
46.884999999999998
20
-72.7399999999999949
11
46.884999999999998
21
-72.4099999999999966
0
LINE
8
LYELLOW
6
CONTINUOUS
10
46.884999999999998
20
-74.8199999999999932
11
46.884999999999998
21
-75.1499999999999915
0
LINE
8
LYELLOW
6
CONTINUOUS
10
46.884999999999998
20
-75.1499999999999915
11
53.4249999999999972
21
-75.1499999999999915
0
LINE
8
LYELLOW
6
CONTINUOUS
10
53.4249999999999972
20
-72.4099999999999966
11
53.4249999999999972
21
-72.7399999999999949
0
LINE
8
LYELLOW
6
CONTINUOUS
10
53.4249999999999972
20
-75.1499999999999915
11
53.4249999999999972
21
-74.8199999999999932
0
LINE
8
LYELLOW
6
CONTINUOUS
10
47.6849999999999952
20
-62.529999999999994
11
54.2249999999999943
21
-62.529999999999994
0
LINE
8
LYELLOW
6
CONTINUOUS
10
47.6849999999999952
20
-62.8599999999999994
11
47.6849999999999952
21
-62.529999999999994
0
LINE
8
LYELLOW
6
CONTINUOUS
10
47.6849999999999952
20
-64.9399999999999977
11
47.6849999999999952
21
-65.269999999999996
0
LINE
8
LYELLOW
6
CONTINUOUS
10
47.6849999999999952
20
-65.269999999999996
11
54.2249999999999943
21
-65.269999999999996
0
LINE
8
LYELLOW
6
CONTINUOUS
10
54.2249999999999943
20
-62.529999999999994
11
54.2249999999999943
21
-62.8599999999999994
0
LINE
8
LYELLOW
6
CONTINUOUS
10
54.2249999999999943
20
-65.269999999999996
11
54.2249999999999943
21
-64.9399999999999977
0
LINE
8
LYELLOW
6
CONTINUOUS
10
107.6199999999999903
20
-29.3449999999999989
11
109.
21
-29.3449999999999989
0
LINE
8
LYELLOW
6
CONTINUOUS
10
107.6199999999999903
20
-30.7249999999999979
11
107.6199999999999903
21
-29.3449999999999989
0
LINE
8
LYELLOW
6
CONTINUOUS
10
107.6199999999999903
20
-31.9949999999999974
11
107.6199999999999903
21
-34.644999999999996
0
LINE
8
LYELLOW
6
CONTINUOUS
10
107.6199999999999903
20
-31.9949999999999974
11
110.3799999999999955
21
-31.9949999999999974
0
LINE
8
LYELLOW
6
CONTINUOUS
10
107.6199999999999903
20
-34.644999999999996
11
110.3799999999999955
21
-34.644999999999996
0
LINE
8
LYELLOW
6
CONTINUOUS
10
110.3799999999999955
20
-31.9949999999999974
11
110.3799999999999955
21
-34.644999999999996
0
LINE
8
LYELLOW
6
CONTINUOUS
10
33.5349999999999966
20
-58.759999999999998
11
33.5349999999999966
21
-69.039999999999992
0
LINE
8
LYELLOW
6
CONTINUOUS
10
33.5349999999999966
20
-69.039999999999992
11
38.0349999999999966
21
-69.039999999999992
0
LINE
8
LYELLOW
6
CONTINUOUS
10
34.7849999999999966
20
-58.759999999999998
11
33.5349999999999966
21
-58.759999999999998
0
LINE
8
LYELLOW
6
CONTINUOUS
10
38.0349999999999966
20
-58.759999999999998
11
36.7849999999999966
21
-58.759999999999998
0
LINE
8
LYELLOW
6
CONTINUOUS
10
38.0349999999999966
20
-69.039999999999992
11
38.0349999999999966
21
-58.759999999999998
0
ARC
8
LYELLOW
10
35.7849999999999966
20
-58.759999999999998
40
1.
50
-180.00000000
51
-0.00000000
0
LINE
8
LYELLOW
6
CONTINUOUS
10
32.115000000000002
20
-72.4099999999999966
11
38.6550000000000011
21
-72.4099999999999966
0
LINE
8
LYELLOW
6
CONTINUOUS
10
32.115000000000002
20
-72.7399999999999949
11
32.115000000000002
21
-72.4099999999999966
0
LINE
8
LYELLOW
6
CONTINUOUS
10
32.115000000000002
20
-74.8199999999999932
11
32.115000000000002
21
-75.1499999999999915
0
LINE
8
LYELLOW
6
CONTINUOUS
10
32.115000000000002
20
-75.1499999999999915
11
38.6550000000000011
21
-75.1499999999999915
0
LINE
8
LYELLOW
6
CONTINUOUS
10
38.6550000000000011
20
-72.4099999999999966
11
38.6550000000000011
21
-72.7399999999999949
0
LINE
8
LYELLOW
6
CONTINUOUS
10
38.6550000000000011
20
-75.1499999999999915
11
38.6550000000000011
21
-74.8199999999999932
0
LINE
8
LYELLOW
6
CONTINUOUS
10
46.884999999999998
20
-78.4599999999999937
11
53.4249999999999972
21
-78.4599999999999937
0
LINE
8
LYELLOW
6
CONTINUOUS
10
46.884999999999998
20
-78.789999999999992
11
46.884999999999998
21
-78.4599999999999937
0
LINE
8
LYELLOW
6
CONTINUOUS
10
46.884999999999998
20
-80.8699999999999903
11
46.884999999999998
21
-81.2000000000000028
0
LINE
8
LYELLOW
6
CONTINUOUS
10
46.884999999999998
20
-81.2000000000000028
11
53.4249999999999972
21
-81.2000000000000028
0
LINE
8
LYELLOW
6
CONTINUOUS
10
53.4249999999999972
20
-78.4599999999999937
11
53.4249999999999972
21
-78.789999999999992
0
LINE
8
LYELLOW
6
CONTINUOUS
10
53.4249999999999972
20
-81.2000000000000028
11
53.4249999999999972
21
-80.8699999999999903
0
LINE
8
LYELLOW
6
CONTINUOUS
10
33.5349999999999966
20
-45.0499999999999972
11
33.5349999999999966
21
-55.3299999999999983
0
LINE
8
LYELLOW
6
CONTINUOUS
10
33.5349999999999966
20
-55.3299999999999983
11
38.0349999999999966
21
-55.3299999999999983
0
LINE
8
LYELLOW
6
CONTINUOUS
10
34.7849999999999966
20
-45.0499999999999972
11
33.5349999999999966
21
-45.0499999999999972
0
LINE
8
LYELLOW
6
CONTINUOUS
10
38.0349999999999966
20
-45.0499999999999972
11
36.7849999999999966
21
-45.0499999999999972
0
LINE
8
LYELLOW
6
CONTINUOUS
10
38.0349999999999966
20
-55.3299999999999983
11
38.0349999999999966
21
-45.0499999999999972
0
ARC
8
LYELLOW
10
35.7849999999999966
20
-45.0499999999999972
40
1.
50
-180.00000000
51
-0.00000000
0
LINE
8
LYELLOW
6
CONTINUOUS
10
33.6199999999999974
20
-33.269999999999996
11
33.6199999999999974
21
-28.0799999999999983
0
LINE
8
LYELLOW
6
CONTINUOUS
10
36.3799999999999955
20
-28.0799999999999983
11
33.6199999999999974
21
-28.0799999999999983
0
LINE
8
LYELLOW
6
CONTINUOUS
10
36.3799999999999955
20
-33.269999999999996
11
33.6199999999999974
21
-33.269999999999996
0
LINE
8
LYELLOW
6
CONTINUOUS
10
36.3799999999999955
20
-33.269999999999996
11
36.3799999999999955
21
-28.0799999999999983
0
LINE
8
LYELLOW
6
CONTINUOUS
10
36.3799999999999955
20
-34.5399999999999991
11
36.3799999999999955
21
-35.9200000000000017
0
LINE
8
LYELLOW
6
CONTINUOUS
10
36.3799999999999955
20
-35.9200000000000017
11
35.
21
-35.9200000000000017
0
LINE
8
WHITE
6
CONTINUOUS
10
20.
20
-20.
11
124.
21
-20.
0
LINE
8
WHITE
6
CONTINUOUS
10
124.
20
-20.
11
124.
21
-124.
0
LINE
8
WHITE
6
CONTINUOUS
10
124.
20
-124.
11
20.
21
-124.
0
LINE
8
WHITE
6
CONTINUOUS
10
20.
20
-124.
11
20.
21
-20.
  0
ENDSEC
  0
EOF
