  0
SECTION
  2
HEADER
  9
$ANGBASE
  50
0.0
  9
$ANGDIR
  70
1
  9
$MEASUREMENT
  70
1
  0
ENDSEC
  0
SECTION
  2
TABLES
  0
TABLE
  2
LTYPE
  70
4
  0
LTYPE
  5
40F
  2
CONTINUOUS
  70
0
  3
Solid line
  72
65
  73
0
  40
0.0
  0
LTYPE
  5
410
  2
DASHDOT
 70
0
  3
Dash Dot ____ _ ____ _
 72
65
 73
4
 40
2.0
 49
1.25
 49
-0.25
 49
0.25
 49
-0.25
  0
LTYPE
  5
411
  2
DASHED
 70
0
  3
Dashed __ __ __ __ __
 72
65
 73
2
 40
0.75
 49
0.5
 49
-0.25
  0
LTYPE
  5
43B
  2
DOTTED
 70
0
  3
Dotted .  .  .  .
 72
65
 73
2
 40
0.2
 49
0.0
 49
-0.2
  0
ENDTAB
  0
TABLE
  2
STYLE
  70
4
  0
STYLE
  2
KICAD
  70
0
  40
0
  41
1
  42
1
  50
0
  71
0
  3
isocp.shx
  0
STYLE
  2
KICADB
  70
0
  40
0
  41
1
  42
1
  50
0
  71
0
  3
isocp.shx
  0
STYLE
  2
KICADI
  70
0
  40
0
  41
1
  42
1
  50
15
  71
0
  3
isocp.shx
  0
STYLE
  2
KICADBI
  70
0
  40
0
  41
1
  42
1
  50
15
  71
0
  3
isocp.shx
  0
ENDTAB
  0
TABLE
  2
LAYER
  70
35
  0
LAYER
  2
BLACK
  70
0
  62
7
  6
CONTINUOUS
  0
LAYER
  2
GRAY1
  70
0
  62
251
  6
CONTINUOUS
  0
LAYER
  2
GRAY2
  70
0
  62
8
  6
CONTINUOUS
  0
LAYER
  2
GRAY3
  70
0
  62
9
  6
CONTINUOUS
  0
LAYER
  2
WHITE
  70
0
  62
7
  6
CONTINUOUS
  0
LAYER
  2
LYELLOW
  70
0
  62
51
  6
CONTINUOUS
  0
LAYER
  2
LORANGE
  70
0
  62
41
  6
CONTINUOUS
  0
LAYER
  2
BLUE1
  70
0
  62
178
  6
CONTINUOUS
  0
LAYER
  2
GREEN1
  70
0
  62
98
  6
CONTINUOUS
  0
LAYER
  2
CYAN1
  70
0
  62
138
  6
CONTINUOUS
  0
LAYER
  2
RED1
  70
0
  62
18
  6
CONTINUOUS
  0
LAYER
  2
MAGENTA1
  70
0
  62
228
  6
CONTINUOUS
  0
LAYER
  2
BROWN1
  70
0
  62
58
  6
CONTINUOUS
  0
LAYER
  2
ORANGE1
  70
0
  62
34
  6
CONTINUOUS
  0
LAYER
  2
BLUE2
  70
0
  62
5
  6
CONTINUOUS
  0
LAYER
  2
GREEN2
  70
0
  62
3
  6
CONTINUOUS
  0
LAYER
  2
CYAN2
  70
0
  62
4
  6
CONTINUOUS
  0
LAYER
  2
RED2
  70
0
  62
1
  6
CONTINUOUS
  0
LAYER
  2
MAGENTA2
  70
0
  62
6
  6
CONTINUOUS
  0
LAYER
  2
BROWN2
  70
0
  62
54
  6
CONTINUOUS
  0
LAYER
  2
ORANGE2
  70
0
  62
42
  6
CONTINUOUS
  0
LAYER
  2
BLUE3
  70
0
  62
171
  6
CONTINUOUS
  0
LAYER
  2
GREEN3
  70
0
  62
91
  6
CONTINUOUS
  0
LAYER
  2
CYAN3
  70
0
  62
131
  6
CONTINUOUS
  0
LAYER
  2
RED3
  70
0
  62
11
  6
CONTINUOUS
  0
LAYER
  2
MAGENTA3
  70
0
  62
221
  6
CONTINUOUS
  0
LAYER
  2
YELLOW3
  70
0
  62
2
  6
CONTINUOUS
  0
LAYER
  2
ORANGE3
  70
0
  62
32
  6
CONTINUOUS
  0
LAYER
  2
BLUE4
  70
0
  62
5
  6
CONTINUOUS
  0
LAYER
  2
GREEN4
  70
0
  62
3
  6
CONTINUOUS
  0
LAYER
  2
CYAN4
  70
0
  62
4
  6
CONTINUOUS
  0
LAYER
  2
RED4
  70
0
  62
1
  6
CONTINUOUS
  0
LAYER
  2
MAGENTA4
  70
0
  62
6
  6
CONTINUOUS
  0
LAYER
  2
YELLOW4
  70
0
  62
2
  6
CONTINUOUS
  0
LAYER
  2
ORANGE4
  70
0
  62
40
  6
CONTINUOUS
  0
ENDTAB
  0
ENDSEC
  0
SECTION
  2
ENTITIES
0
LINE
8
LYELLOW
6
CONTINUOUS
10
63.6483329999999938
20
-89.7373189999999994
11
63.3149999999999977
21
-89.2611279999999994
0
LINE
8
LYELLOW
6
CONTINUOUS
10
63.0769049999999964
20
-89.7373189999999994
11
63.0769049999999964
21
-88.7373189999999994
0
LINE
8
LYELLOW
6
CONTINUOUS
10
63.0769049999999964
20
-88.7373189999999994
11
63.4578569999999971
21
-88.7373189999999994
0
LINE
8
LYELLOW
6
CONTINUOUS
10
63.4578569999999971
20
-88.7373189999999994
11
63.553094999999999
21
-88.7849379999999968
0
LINE
8
LYELLOW
6
CONTINUOUS
10
63.553094999999999
20
-88.7849379999999968
11
63.6007139999999964
21
-88.8325569999999942
0
LINE
8
LYELLOW
6
CONTINUOUS
10
63.6007139999999964
20
-88.8325569999999942
11
63.6483329999999938
21
-88.927794999999989
0
LINE
8
LYELLOW
6
CONTINUOUS
10
63.6483329999999938
20
-88.927794999999989
11
63.6483329999999938
21
-89.0706519999999955
0
LINE
8
LYELLOW
6
CONTINUOUS
10
63.6483329999999938
20
-89.0706519999999955
11
63.6007139999999964
21
-89.1658899999999903
0
LINE
8
LYELLOW
6
CONTINUOUS
10
63.6007139999999964
20
-89.1658899999999903
11
63.553094999999999
21
-89.2135090000000019
0
LINE
8
LYELLOW
6
CONTINUOUS
10
63.553094999999999
20
-89.2135090000000019
11
63.4578569999999971
21
-89.2611279999999994
0
LINE
8
LYELLOW
6
CONTINUOUS
10
63.4578569999999971
20
-89.2611279999999994
11
63.0769049999999964
21
-89.2611279999999994
0
LINE
8
LYELLOW
6
CONTINUOUS
10
64.5054760000000016
20
-89.0706519999999955
11
64.5054760000000016
21
-89.7373189999999994
0
LINE
8
LYELLOW
6
CONTINUOUS
10
64.2673810000000003
20
-88.689700000000002
11
64.029285999999999
21
-89.4039849999999916
0
LINE
8
LYELLOW
6
CONTINUOUS
10
64.029285999999999
20
-89.4039849999999916
11
64.6483329999999938
21
-89.4039849999999916
0
LINE
8
LYELLOW
6
CONTINUOUS
10
79.2183330000000012
20
-73.8073189999999926
11
78.8849999999999909
21
-73.3311279999999925
0
LINE
8
LYELLOW
6
CONTINUOUS
10
78.6469049999999896
20
-73.8073189999999926
11
78.6469049999999896
21
-72.8073189999999926
0
LINE
8
LYELLOW
6
CONTINUOUS
10
78.6469049999999896
20
-72.8073189999999926
11
79.0278569999999974
21
-72.8073189999999926
0
LINE
8
LYELLOW
6
CONTINUOUS
10
79.0278569999999974
20
-72.8073189999999926
11
79.1230949999999922
21
-72.85493799999999
0
LINE
8
LYELLOW
6
CONTINUOUS
10
79.1230949999999922
20
-72.85493799999999
11
79.1707139999999896
21
-72.9025570000000016
0
LINE
8
LYELLOW
6
CONTINUOUS
10
79.1707139999999896
20
-72.9025570000000016
11
79.2183330000000012
21
-72.9977949999999964
0
LINE
8
LYELLOW
6
CONTINUOUS
10
79.2183330000000012
20
-72.9977949999999964
11
79.2183330000000012
21
-73.1406520000000029
0
LINE
8
LYELLOW
6
CONTINUOUS
10
79.2183330000000012
20
-73.1406520000000029
11
79.1707139999999896
21
-73.2358899999999977
0
LINE
8
LYELLOW
6
CONTINUOUS
10
79.1707139999999896
20
-73.2358899999999977
11
79.1230949999999922
21
-73.2835089999999951
0
LINE
8
LYELLOW
6
CONTINUOUS
10
79.1230949999999922
20
-73.2835089999999951
11
79.0278569999999974
21
-73.3311279999999925
0
LINE
8
LYELLOW
6
CONTINUOUS
10
79.0278569999999974
20
-73.3311279999999925
11
78.6469049999999896
21
-73.3311279999999925
0
LINE
8
LYELLOW
6
CONTINUOUS
10
80.1707139999999896
20
-73.8073189999999926
11
79.5992859999999922
21
-73.8073189999999926
0
LINE
8
LYELLOW
6
CONTINUOUS
10
79.8849999999999909
20
-73.8073189999999926
11
79.8849999999999909
21
-72.8073189999999926
0
LINE
8
LYELLOW
6
CONTINUOUS
10
79.8849999999999909
20
-72.8073189999999926
11
79.7897619999999961
21
-72.950175999999999
0
LINE
8
LYELLOW
6
CONTINUOUS
10
79.7897619999999961
20
-72.950175999999999
11
79.6945240000000013
21
-73.0454139999999938
0
LINE
8
LYELLOW
6
CONTINUOUS
10
79.6945240000000013
20
-73.0454139999999938
11
79.5992859999999922
21
-73.0930329999999913
0
LINE
8
LYELLOW
6
CONTINUOUS
10
78.4183329999999899
20
-89.7373189999999994
11
78.0849999999999937
21
-89.2611279999999994
0
LINE
8
LYELLOW
6
CONTINUOUS
10
77.8469049999999925
20
-89.7373189999999994
11
77.8469049999999925
21
-88.7373189999999994
0
LINE
8
LYELLOW
6
CONTINUOUS
10
77.8469049999999925
20
-88.7373189999999994
11
78.2278570000000002
21
-88.7373189999999994
0
LINE
8
LYELLOW
6
CONTINUOUS
10
78.2278570000000002
20
-88.7373189999999994
11
78.323094999999995
21
-88.7849379999999968
0
LINE
8
LYELLOW
6
CONTINUOUS
10
78.323094999999995
20
-88.7849379999999968
11
78.3707139999999924
21
-88.8325569999999942
0
LINE
8
LYELLOW
6
CONTINUOUS
10
78.3707139999999924
20
-88.8325569999999942
11
78.4183329999999899
21
-88.927794999999989
0
LINE
8
LYELLOW
6
CONTINUOUS
10
78.4183329999999899
20
-88.927794999999989
11
78.4183329999999899
21
-89.0706519999999955
0
LINE
8
LYELLOW
6
CONTINUOUS
10
78.4183329999999899
20
-89.0706519999999955
11
78.3707139999999924
21
-89.1658899999999903
0
LINE
8
LYELLOW
6
CONTINUOUS
10
78.3707139999999924
20
-89.1658899999999903
11
78.323094999999995
21
-89.2135090000000019
0
LINE
8
LYELLOW
6
CONTINUOUS
10
78.323094999999995
20
-89.2135090000000019
11
78.2278570000000002
21
-89.2611279999999994
0
LINE
8
LYELLOW
6
CONTINUOUS
10
78.2278570000000002
20
-89.2611279999999994
11
77.8469049999999925
21
-89.2611279999999994
0
LINE
8
LYELLOW
6
CONTINUOUS
10
79.323094999999995
20
-88.7373189999999994
11
78.8469049999999925
21
-88.7373189999999994
0
LINE
8
LYELLOW
6
CONTINUOUS
10
78.8469049999999925
20
-88.7373189999999994
11
78.7992859999999951
21
-89.2135090000000019
0
LINE
8
LYELLOW
6
CONTINUOUS
10
78.7992859999999951
20
-89.2135090000000019
11
78.8469049999999925
21
-89.1658899999999903
0
LINE
8
LYELLOW
6
CONTINUOUS
10
78.8469049999999925
20
-89.1658899999999903
11
78.9421430000000015
21
-89.1182709999999929
0
LINE
8
LYELLOW
6
CONTINUOUS
10
78.9421430000000015
20
-89.1182709999999929
11
79.1802380000000028
21
-89.1182709999999929
0
LINE
8
LYELLOW
6
CONTINUOUS
10
79.1802380000000028
20
-89.1182709999999929
11
79.2754759999999976
21
-89.1658899999999903
0
LINE
8
LYELLOW
6
CONTINUOUS
10
79.2754759999999976
20
-89.1658899999999903
11
79.323094999999995
21
-89.2135090000000019
0
LINE
8
LYELLOW
6
CONTINUOUS
10
79.323094999999995
20
-89.2135090000000019
11
79.3707139999999924
21
-89.3087469999999968
0
LINE
8
LYELLOW
6
CONTINUOUS
10
79.3707139999999924
20
-89.3087469999999968
11
79.3707139999999924
21
-89.5468419999999981
0
LINE
8
LYELLOW
6
CONTINUOUS
10
79.3707139999999924
20
-89.5468419999999981
11
79.323094999999995
21
-89.6420799999999929
0
LINE
8
LYELLOW
6
CONTINUOUS
10
79.323094999999995
20
-89.6420799999999929
11
79.2754759999999976
21
-89.689700000000002
0
LINE
8
LYELLOW
6
CONTINUOUS
10
79.2754759999999976
20
-89.689700000000002
11
79.1802380000000028
21
-89.7373189999999994
0
LINE
8
LYELLOW
6
CONTINUOUS
10
79.1802380000000028
20
-89.7373189999999994
11
78.9421430000000015
21
-89.7373189999999994
0
LINE
8
LYELLOW
6
CONTINUOUS
10
78.9421430000000015
20
-89.7373189999999994
11
78.8469049999999925
21
-89.689700000000002
0
LINE
8
LYELLOW
6
CONTINUOUS
10
78.8469049999999925
20
-89.689700000000002
11
78.7992859999999951
21
-89.6420799999999929
0
LINE
8
LYELLOW
6
CONTINUOUS
10
43.096665999999999
20
-59.532318999999994
11
43.096665999999999
21
-60.2466039999999978
0
LINE
8
LYELLOW
6
CONTINUOUS
10
43.096665999999999
20
-60.2466039999999978
11
43.0490469999999945
21
-60.3894609999999972
0
LINE
8
LYELLOW
6
CONTINUOUS
10
43.0490469999999945
20
-60.3894609999999972
11
42.9538089999999997
21
-60.4846999999999966
0
LINE
8
LYELLOW
6
CONTINUOUS
10
42.9538089999999997
20
-60.4846999999999966
11
42.8109520000000003
21
-60.532318999999994
0
LINE
8
LYELLOW
6
CONTINUOUS
10
42.8109520000000003
20
-60.532318999999994
11
42.7157139999999984
21
-60.532318999999994
0
LINE
8
LYELLOW
6
CONTINUOUS
10
44.096665999999999
20
-60.532318999999994
11
43.5252379999999945
21
-60.532318999999994
0
LINE
8
LYELLOW
6
CONTINUOUS
10
43.8109520000000003
20
-60.532318999999994
11
43.8109520000000003
21
-59.532318999999994
0
LINE
8
LYELLOW
6
CONTINUOUS
10
43.8109520000000003
20
-59.532318999999994
11
43.7157139999999984
21
-59.6751760000000004
0
LINE
8
LYELLOW
6
CONTINUOUS
10
43.7157139999999984
20
-59.6751760000000004
11
43.6204759999999965
21
-59.7704139999999953
0
LINE
8
LYELLOW
6
CONTINUOUS
10
43.6204759999999965
20
-59.7704139999999953
11
43.5252379999999945
21
-59.8180329999999998
0
LINE
8
LYELLOW
6
CONTINUOUS
10
78.4183329999999899
20
-83.6873190000000022
11
78.0849999999999937
21
-83.2111280000000022
0
LINE
8
LYELLOW
6
CONTINUOUS
10
77.8469049999999925
20
-83.6873190000000022
11
77.8469049999999925
21
-82.6873190000000022
0
LINE
8
LYELLOW
6
CONTINUOUS
10
77.8469049999999925
20
-82.6873190000000022
11
78.2278570000000002
21
-82.6873190000000022
0
LINE
8
LYELLOW
6
CONTINUOUS
10
78.2278570000000002
20
-82.6873190000000022
11
78.323094999999995
21
-82.7349379999999996
0
LINE
8
LYELLOW
6
CONTINUOUS
10
78.323094999999995
20
-82.7349379999999996
11
78.3707139999999924
21
-82.7825569999999971
0
LINE
8
LYELLOW
6
CONTINUOUS
10
78.3707139999999924
20
-82.7825569999999971
11
78.4183329999999899
21
-82.8777949999999919
0
LINE
8
LYELLOW
6
CONTINUOUS
10
78.4183329999999899
20
-82.8777949999999919
11
78.4183329999999899
21
-83.0206519999999983
0
LINE
8
LYELLOW
6
CONTINUOUS
10
78.4183329999999899
20
-83.0206519999999983
11
78.3707139999999924
21
-83.1158899999999932
0
LINE
8
LYELLOW
6
CONTINUOUS
10
78.3707139999999924
20
-83.1158899999999932
11
78.323094999999995
21
-83.1635089999999906
0
LINE
8
LYELLOW
6
CONTINUOUS
10
78.323094999999995
20
-83.1635089999999906
11
78.2278570000000002
21
-83.2111280000000022
0
LINE
8
LYELLOW
6
CONTINUOUS
10
78.2278570000000002
20
-83.2111280000000022
11
77.8469049999999925
21
-83.2111280000000022
0
LINE
8
LYELLOW
6
CONTINUOUS
10
78.7516669999999976
20
-82.6873190000000022
11
79.3707139999999924
21
-82.6873190000000022
0
LINE
8
LYELLOW
6
CONTINUOUS
10
79.3707139999999924
20
-82.6873190000000022
11
79.0373809999999963
21
-83.0682709999999958
0
LINE
8
LYELLOW
6
CONTINUOUS
10
79.0373809999999963
20
-83.0682709999999958
11
79.1802380000000028
21
-83.0682709999999958
0
LINE
8
LYELLOW
6
CONTINUOUS
10
79.1802380000000028
20
-83.0682709999999958
11
79.2754759999999976
21
-83.1158899999999932
0
LINE
8
LYELLOW
6
CONTINUOUS
10
79.2754759999999976
20
-83.1158899999999932
11
79.323094999999995
21
-83.1635089999999906
0
LINE
8
LYELLOW
6
CONTINUOUS
10
79.323094999999995
20
-83.1635089999999906
11
79.3707139999999924
21
-83.2587469999999996
0
LINE
8
LYELLOW
6
CONTINUOUS
10
79.3707139999999924
20
-83.2587469999999996
11
79.3707139999999924
21
-83.4968420000000009
0
LINE
8
LYELLOW
6
CONTINUOUS
10
79.3707139999999924
20
-83.4968420000000009
11
79.323094999999995
21
-83.5920799999999957
0
LINE
8
LYELLOW
6
CONTINUOUS
10
79.323094999999995
20
-83.5920799999999957
11
79.2754759999999976
21
-83.6396999999999906
0
LINE
8
LYELLOW
6
CONTINUOUS
10
79.2754759999999976
20
-83.6396999999999906
11
79.1802380000000028
21
-83.6873190000000022
0
LINE
8
LYELLOW
6
CONTINUOUS
10
79.1802380000000028
20
-83.6873190000000022
11
78.8945239999999899
21
-83.6873190000000022
0
LINE
8
LYELLOW
6
CONTINUOUS
10
78.8945239999999899
20
-83.6873190000000022
11
78.7992859999999951
21
-83.6396999999999906
0
LINE
8
LYELLOW
6
CONTINUOUS
10
78.7992859999999951
20
-83.6396999999999906
11
78.7516669999999976
21
-83.5920799999999957
0
LINE
8
LYELLOW
6
CONTINUOUS
10
63.6483329999999938
20
-83.6873190000000022
11
63.3149999999999977
21
-83.2111280000000022
0
LINE
8
LYELLOW
6
CONTINUOUS
10
63.0769049999999964
20
-83.6873190000000022
11
63.0769049999999964
21
-82.6873190000000022
0
LINE
8
LYELLOW
6
CONTINUOUS
10
63.0769049999999964
20
-82.6873190000000022
11
63.4578569999999971
21
-82.6873190000000022
0
LINE
8
LYELLOW
6
CONTINUOUS
10
63.4578569999999971
20
-82.6873190000000022
11
63.553094999999999
21
-82.7349379999999996
0
LINE
8
LYELLOW
6
CONTINUOUS
10
63.553094999999999
20
-82.7349379999999996
11
63.6007139999999964
21
-82.7825569999999971
0
LINE
8
LYELLOW
6
CONTINUOUS
10
63.6007139999999964
20
-82.7825569999999971
11
63.6483329999999938
21
-82.8777949999999919
0
LINE
8
LYELLOW
6
CONTINUOUS
10
63.6483329999999938
20
-82.8777949999999919
11
63.6483329999999938
21
-83.0206519999999983
0
LINE
8
LYELLOW
6
CONTINUOUS
10
63.6483329999999938
20
-83.0206519999999983
11
63.6007139999999964
21
-83.1158899999999932
0
LINE
8
LYELLOW
6
CONTINUOUS
10
63.6007139999999964
20
-83.1158899999999932
11
63.553094999999999
21
-83.1635089999999906
0
LINE
8
LYELLOW
6
CONTINUOUS
10
63.553094999999999
20
-83.1635089999999906
11
63.4578569999999971
21
-83.2111280000000022
0
LINE
8
LYELLOW
6
CONTINUOUS
10
63.4578569999999971
20
-83.2111280000000022
11
63.0769049999999964
21
-83.2111280000000022
0
LINE
8
LYELLOW
6
CONTINUOUS
10
64.029285999999999
20
-82.7825569999999971
11
64.0769049999999964
21
-82.7349379999999996
0
LINE
8
LYELLOW
6
CONTINUOUS
10
64.0769049999999964
20
-82.7349379999999996
11
64.1721429999999913
21
-82.6873190000000022
0
LINE
8
LYELLOW
6
CONTINUOUS
10
64.1721429999999913
20
-82.6873190000000022
11
64.4102379999999926
21
-82.6873190000000022
0
LINE
8
LYELLOW
6
CONTINUOUS
10
64.4102379999999926
20
-82.6873190000000022
11
64.5054760000000016
21
-82.7349379999999996
0
LINE
8
LYELLOW
6
CONTINUOUS
10
64.5054760000000016
20
-82.7349379999999996
11
64.553094999999999
21
-82.7825569999999971
0
LINE
8
LYELLOW
6
CONTINUOUS
10
64.553094999999999
20
-82.7825569999999971
11
64.6007139999999964
21
-82.8777949999999919
0
LINE
8
LYELLOW
6
CONTINUOUS
10
64.6007139999999964
20
-82.8777949999999919
11
64.6007139999999964
21
-82.9730330000000009
0
LINE
8
LYELLOW
6
CONTINUOUS
10
64.6007139999999964
20
-82.9730330000000009
11
64.553094999999999
21
-83.1158899999999932
0
LINE
8
LYELLOW
6
CONTINUOUS
10
64.553094999999999
20
-83.1158899999999932
11
63.9816669999999945
21
-83.6873190000000022
0
LINE
8
LYELLOW
6
CONTINUOUS
10
63.9816669999999945
20
-83.6873190000000022
11
64.6007139999999964
21
-83.6873190000000022
0
LINE
8
LYELLOW
6
CONTINUOUS
10
100.2366659999999996
20
-50.9573189999999983
11
100.2366659999999996
21
-51.671603999999995
0
LINE
8
LYELLOW
6
CONTINUOUS
10
100.2366659999999996
20
-51.671603999999995
11
100.1890470000000022
21
-51.8144609999999943
0
LINE
8
LYELLOW
6
CONTINUOUS
10
100.1890470000000022
20
-51.8144609999999943
11
100.0938089999999931
21
-51.9097000000000008
0
LINE
8
LYELLOW
6
CONTINUOUS
10
100.0938089999999931
20
-51.9097000000000008
11
99.9509520000000009
21
-51.9573189999999983
0
LINE
8
LYELLOW
6
CONTINUOUS
10
99.9509520000000009
20
-51.9573189999999983
11
99.8557139999999919
21
-51.9573189999999983
0
LINE
8
LYELLOW
6
CONTINUOUS
10
100.6652380000000022
20
-51.0525570000000002
11
100.7128569999999996
21
-51.0049379999999957
0
LINE
8
LYELLOW
6
CONTINUOUS
10
100.7128569999999996
20
-51.0049379999999957
11
100.8080949999999945
21
-50.9573189999999983
0
LINE
8
LYELLOW
6
CONTINUOUS
10
100.8080949999999945
20
-50.9573189999999983
11
101.0461899999999957
21
-50.9573189999999983
0
LINE
8
LYELLOW
6
CONTINUOUS
10
101.0461899999999957
20
-50.9573189999999983
11
101.1414279999999906
21
-51.0049379999999957
0
LINE
8
LYELLOW
6
CONTINUOUS
10
101.1414279999999906
20
-51.0049379999999957
11
101.1890470000000022
21
-51.0525570000000002
0
LINE
8
LYELLOW
6
CONTINUOUS
10
101.1890470000000022
20
-51.0525570000000002
11
101.2366659999999996
21
-51.147794999999995
0
LINE
8
LYELLOW
6
CONTINUOUS
10
101.2366659999999996
20
-51.147794999999995
11
101.2366659999999996
21
-51.2430329999999969
0
LINE
8
LYELLOW
6
CONTINUOUS
10
101.2366659999999996
20
-51.2430329999999969
11
101.1890470000000022
21
-51.3858899999999963
0
LINE
8
LYELLOW
6
CONTINUOUS
10
101.1890470000000022
20
-51.3858899999999963
11
100.6176189999999906
21
-51.9573189999999983
0
LINE
8
LYELLOW
6
CONTINUOUS
10
100.6176189999999906
20
-51.9573189999999983
11
101.2366659999999996
21
-51.9573189999999983
0
LINE
8
LYELLOW
6
CONTINUOUS
10
79.0230949999999979
20
-55.3273189999999957
11
79.0230949999999979
21
-56.1368419999999944
0
LINE
8
LYELLOW
6
CONTINUOUS
10
79.0230949999999979
20
-56.1368419999999944
11
79.0707139999999953
21
-56.2320799999999963
0
LINE
8
LYELLOW
6
CONTINUOUS
10
79.0707139999999953
20
-56.2320799999999963
11
79.1183329999999927
21
-56.2796999999999983
0
LINE
8
LYELLOW
6
CONTINUOUS
10
79.1183329999999927
20
-56.2796999999999983
11
79.2135710000000017
21
-56.3273189999999957
0
LINE
8
LYELLOW
6
CONTINUOUS
10
79.2135710000000017
20
-56.3273189999999957
11
79.4040469999999914
21
-56.3273189999999957
0
LINE
8
LYELLOW
6
CONTINUOUS
10
79.4040469999999914
20
-56.3273189999999957
11
79.4992850000000004
21
-56.2796999999999983
0
LINE
8
LYELLOW
6
CONTINUOUS
10
79.4992850000000004
20
-56.2796999999999983
11
79.5469039999999978
21
-56.2320799999999963
0
LINE
8
LYELLOW
6
CONTINUOUS
10
79.5469039999999978
20
-56.2320799999999963
11
79.5945229999999952
21
-56.1368419999999944
0
LINE
8
LYELLOW
6
CONTINUOUS
10
79.5945229999999952
20
-56.1368419999999944
11
79.5945229999999952
21
-55.3273189999999957
0
LINE
8
LYELLOW
6
CONTINUOUS
10
79.9754760000000005
20
-55.3273189999999957
11
80.5945229999999952
21
-55.3273189999999957
0
LINE
8
LYELLOW
6
CONTINUOUS
10
80.5945229999999952
20
-55.3273189999999957
11
80.2611899999999991
21
-55.7082709999999963
0
LINE
8
LYELLOW
6
CONTINUOUS
10
80.2611899999999991
20
-55.7082709999999963
11
80.4040469999999914
21
-55.7082709999999963
0
LINE
8
LYELLOW
6
CONTINUOUS
10
80.4040469999999914
20
-55.7082709999999963
11
80.4992850000000004
21
-55.7558900000000008
0
LINE
8
LYELLOW
6
CONTINUOUS
10
80.4992850000000004
20
-55.7558900000000008
11
80.5469039999999978
21
-55.8035089999999983
0
LINE
8
LYELLOW
6
CONTINUOUS
10
80.5469039999999978
20
-55.8035089999999983
11
80.5945229999999952
21
-55.8987470000000002
0
LINE
8
LYELLOW
6
CONTINUOUS
10
80.5945229999999952
20
-55.8987470000000002
11
80.5945229999999952
21
-56.1368419999999944
0
LINE
8
LYELLOW
6
CONTINUOUS
10
80.5945229999999952
20
-56.1368419999999944
11
80.5469039999999978
21
-56.2320799999999963
0
LINE
8
LYELLOW
6
CONTINUOUS
10
80.5469039999999978
20
-56.2320799999999963
11
80.4992850000000004
21
-56.2796999999999983
0
LINE
8
LYELLOW
6
CONTINUOUS
10
80.4992850000000004
20
-56.2796999999999983
11
80.4040469999999914
21
-56.3273189999999957
0
LINE
8
LYELLOW
6
CONTINUOUS
10
80.4040469999999914
20
-56.3273189999999957
11
80.1183329999999927
21
-56.3273189999999957
0
LINE
8
LYELLOW
6
CONTINUOUS
10
80.1183329999999927
20
-56.3273189999999957
11
80.0230949999999979
21
-56.2796999999999983
0
LINE
8
LYELLOW
6
CONTINUOUS
10
80.0230949999999979
20
-56.2796999999999983
11
79.9754760000000005
21
-56.2320799999999963
0
LINE
8
LYELLOW
6
CONTINUOUS
10
63.4530949999999976
20
-55.3273189999999957
11
63.4530949999999976
21
-56.1368419999999944
0
LINE
8
LYELLOW
6
CONTINUOUS
10
63.4530949999999976
20
-56.1368419999999944
11
63.500713999999995
21
-56.2320799999999963
0
LINE
8
LYELLOW
6
CONTINUOUS
10
63.500713999999995
20
-56.2320799999999963
11
63.5483329999999995
21
-56.2796999999999983
0
LINE
8
LYELLOW
6
CONTINUOUS
10
63.5483329999999995
20
-56.2796999999999983
11
63.6435709999999943
21
-56.3273189999999957
0
LINE
8
LYELLOW
6
CONTINUOUS
10
63.6435709999999943
20
-56.3273189999999957
11
63.8340469999999982
21
-56.3273189999999957
0
LINE
8
LYELLOW
6
CONTINUOUS
10
63.8340469999999982
20
-56.3273189999999957
11
63.9292850000000001
21
-56.2796999999999983
0
LINE
8
LYELLOW
6
CONTINUOUS
10
63.9292850000000001
20
-56.2796999999999983
11
63.9769039999999976
21
-56.2320799999999963
0
LINE
8
LYELLOW
6
CONTINUOUS
10
63.9769039999999976
20
-56.2320799999999963
11
64.0245230000000021
21
-56.1368419999999944
0
LINE
8
LYELLOW
6
CONTINUOUS
10
64.0245230000000021
20
-56.1368419999999944
11
64.0245230000000021
21
-55.3273189999999957
0
LINE
8
LYELLOW
6
CONTINUOUS
10
65.0245230000000021
20
-56.3273189999999957
11
64.4530949999999905
21
-56.3273189999999957
0
LINE
8
LYELLOW
6
CONTINUOUS
10
64.7388090000000034
20
-56.3273189999999957
11
64.7388090000000034
21
-55.3273189999999957
0
LINE
8
LYELLOW
6
CONTINUOUS
10
64.7388090000000034
20
-55.3273189999999957
11
64.6435709999999943
21
-55.470175999999995
0
LINE
8
LYELLOW
6
CONTINUOUS
10
64.6435709999999943
20
-55.470175999999995
11
64.5483329999999995
21
-55.565413999999997
0
LINE
8
LYELLOW
6
CONTINUOUS
10
64.5483329999999995
20
-55.565413999999997
11
64.4530949999999905
21
-55.6130329999999944
0
LINE
8
LYELLOW
6
CONTINUOUS
10
63.4530949999999976
20
-69.0373189999999965
11
63.4530949999999976
21
-69.8468419999999952
0
LINE
8
LYELLOW
6
CONTINUOUS
10
63.4530949999999976
20
-69.8468419999999952
11
63.500713999999995
21
-69.94207999999999
0
LINE
8
LYELLOW
6
CONTINUOUS
10
63.500713999999995
20
-69.94207999999999
11
63.5483329999999995
21
-69.9896999999999991
0
LINE
8
LYELLOW
6
CONTINUOUS
10
63.5483329999999995
20
-69.9896999999999991
11
63.6435709999999943
21
-70.0373189999999965
0
LINE
8
LYELLOW
6
CONTINUOUS
10
63.6435709999999943
20
-70.0373189999999965
11
63.8340469999999982
21
-70.0373189999999965
0
LINE
8
LYELLOW
6
CONTINUOUS
10
63.8340469999999982
20
-70.0373189999999965
11
63.9292850000000001
21
-69.9896999999999991
0
LINE
8
LYELLOW
6
CONTINUOUS
10
63.9292850000000001
20
-69.9896999999999991
11
63.9769039999999976
21
-69.94207999999999
0
LINE
8
LYELLOW
6
CONTINUOUS
10
63.9769039999999976
20
-69.94207999999999
11
64.0245230000000021
21
-69.8468419999999952
0
LINE
8
LYELLOW
6
CONTINUOUS
10
64.0245230000000021
20
-69.8468419999999952
11
64.0245230000000021
21
-69.0373189999999965
0
LINE
8
LYELLOW
6
CONTINUOUS
10
64.929284999999993
20
-69.3706519999999927
11
64.929284999999993
21
-70.0373189999999965
0
LINE
8
LYELLOW
6
CONTINUOUS
10
64.6911899999999918
20
-68.9896999999999991
11
64.4530949999999905
21
-69.703985000000003
0
LINE
8
LYELLOW
6
CONTINUOUS
10
64.4530949999999905
20
-69.703985000000003
11
65.0721419999999995
21
-69.703985000000003
0
LINE
8
LYELLOW
6
CONTINUOUS
10
60.5449999999999946
20
-90.2824999999999989
11
67.0849999999999937
21
-90.2824999999999989
0
LINE
8
LYELLOW
6
CONTINUOUS
10
60.5449999999999946
20
-90.6124999999999972
11
60.5449999999999946
21
-90.2824999999999989
0
LINE
8
LYELLOW
6
CONTINUOUS
10
60.5449999999999946
20
-92.6924999999999955
11
60.5449999999999946
21
-93.0224999999999937
0
LINE
8
LYELLOW
6
CONTINUOUS
10
60.5449999999999946
20
-93.0224999999999937
11
67.0849999999999937
21
-93.0224999999999937
0
LINE
8
LYELLOW
6
CONTINUOUS
10
67.0849999999999937
20
-90.2824999999999989
11
67.0849999999999937
21
-90.6124999999999972
0
LINE
8
LYELLOW
6
CONTINUOUS
10
67.0849999999999937
20
-93.0224999999999937
11
67.0849999999999937
21
-92.6924999999999955
0
LINE
8
LYELLOW
6
CONTINUOUS
10
76.1149999999999949
20
-74.352499999999992
11
82.6550000000000011
21
-74.352499999999992
0
LINE
8
LYELLOW
6
CONTINUOUS
10
76.1149999999999949
20
-74.6824999999999903
11
76.1149999999999949
21
-74.352499999999992
0
LINE
8
LYELLOW
6
CONTINUOUS
10
76.1149999999999949
20
-76.7625000000000028
11
76.1149999999999949
21
-77.0925000000000011
0
LINE
8
LYELLOW
6
CONTINUOUS
10
76.1149999999999949
20
-77.0925000000000011
11
82.6550000000000011
21
-77.0925000000000011
0
LINE
8
LYELLOW
6
CONTINUOUS
10
82.6550000000000011
20
-74.352499999999992
11
82.6550000000000011
21
-74.6824999999999903
0
LINE
8
LYELLOW
6
CONTINUOUS
10
82.6550000000000011
20
-77.0925000000000011
11
82.6550000000000011
21
-76.7625000000000028
0
LINE
8
LYELLOW
6
CONTINUOUS
10
75.3149999999999977
20
-90.2824999999999989
11
81.8549999999999898
21
-90.2824999999999989
0
LINE
8
LYELLOW
6
CONTINUOUS
10
75.3149999999999977
20
-90.6124999999999972
11
75.3149999999999977
21
-90.2824999999999989
0
LINE
8
LYELLOW
6
CONTINUOUS
10
75.3149999999999977
20
-92.6924999999999955
11
75.3149999999999977
21
-93.0224999999999937
0
LINE
8
LYELLOW
6
CONTINUOUS
10
75.3149999999999977
20
-93.0224999999999937
11
81.8549999999999898
21
-93.0224999999999937
0
LINE
8
LYELLOW
6
CONTINUOUS
10
81.8549999999999898
20
-90.2824999999999989
11
81.8549999999999898
21
-90.6124999999999972
0
LINE
8
LYELLOW
6
CONTINUOUS
10
81.8549999999999898
20
-93.0224999999999937
11
81.8549999999999898
21
-92.6924999999999955
0
LINE
8
LYELLOW
6
CONTINUOUS
10
42.0499999999999972
20
-56.4274999999999949
11
42.0499999999999972
21
-51.2374999999999972
0
LINE
8
LYELLOW
6
CONTINUOUS
10
44.8099999999999952
20
-51.2374999999999972
11
42.0499999999999972
21
-51.2374999999999972
0
LINE
8
LYELLOW
6
CONTINUOUS
10
44.8099999999999952
20
-56.4274999999999949
11
42.0499999999999972
21
-56.4274999999999949
0
LINE
8
LYELLOW
6
CONTINUOUS
10
44.8099999999999952
20
-56.4274999999999949
11
44.8099999999999952
21
-51.2374999999999972
0
LINE
8
LYELLOW
6
CONTINUOUS
10
44.8099999999999952
20
-57.697499999999998
11
44.8099999999999952
21
-59.0775000000000006
0
LINE
8
LYELLOW
6
CONTINUOUS
10
44.8099999999999952
20
-59.0775000000000006
11
43.4299999999999997
21
-59.0775000000000006
0
LINE
8
LYELLOW
6
CONTINUOUS
10
75.3149999999999977
20
-84.2325000000000017
11
81.8549999999999898
21
-84.2325000000000017
0
LINE
8
LYELLOW
6
CONTINUOUS
10
75.3149999999999977
20
-84.5625
11
75.3149999999999977
21
-84.2325000000000017
0
LINE
8
LYELLOW
6
CONTINUOUS
10
75.3149999999999977
20
-86.6424999999999983
11
75.3149999999999977
21
-86.9724999999999966
0
LINE
8
LYELLOW
6
CONTINUOUS
10
75.3149999999999977
20
-86.9724999999999966
11
81.8549999999999898
21
-86.9724999999999966
0
LINE
8
LYELLOW
6
CONTINUOUS
10
81.8549999999999898
20
-84.2325000000000017
11
81.8549999999999898
21
-84.5625
0
LINE
8
LYELLOW
6
CONTINUOUS
10
81.8549999999999898
20
-86.9724999999999966
11
81.8549999999999898
21
-86.6424999999999983
0
LINE
8
LYELLOW
6
CONTINUOUS
10
60.5449999999999946
20
-84.2325000000000017
11
67.0849999999999937
21
-84.2325000000000017
0
LINE
8
LYELLOW
6
CONTINUOUS
10
60.5449999999999946
20
-84.5625
11
60.5449999999999946
21
-84.2325000000000017
0
LINE
8
LYELLOW
6
CONTINUOUS
10
60.5449999999999946
20
-86.6424999999999983
11
60.5449999999999946
21
-86.9724999999999966
0
LINE
8
LYELLOW
6
CONTINUOUS
10
60.5449999999999946
20
-86.9724999999999966
11
67.0849999999999937
21
-86.9724999999999966
0
LINE
8
LYELLOW
6
CONTINUOUS
10
67.0849999999999937
20
-84.2325000000000017
11
67.0849999999999937
21
-84.5625
0
LINE
8
LYELLOW
6
CONTINUOUS
10
67.0849999999999937
20
-86.9724999999999966
11
67.0849999999999937
21
-86.6424999999999983
0
LINE
8
LYELLOW
6
CONTINUOUS
10
99.1899999999999977
20
-52.5024999999999977
11
100.5699999999999932
21
-52.5024999999999977
0
LINE
8
LYELLOW
6
CONTINUOUS
10
99.1899999999999977
20
-53.8825000000000003
11
99.1899999999999977
21
-52.5024999999999977
0
LINE
8
LYELLOW
6
CONTINUOUS
10
99.1899999999999977
20
-55.1524999999999963
11
99.1899999999999977
21
-57.8024999999999949
0
LINE
8
LYELLOW
6
CONTINUOUS
10
99.1899999999999977
20
-55.1524999999999963
11
101.9499999999999886
21
-55.1524999999999963
0
LINE
8
LYELLOW
6
CONTINUOUS
10
99.1899999999999977
20
-57.8024999999999949
11
101.9499999999999886
21
-57.8024999999999949
0
LINE
8
LYELLOW
6
CONTINUOUS
10
101.9499999999999886
20
-55.1524999999999963
11
101.9499999999999886
21
-57.8024999999999949
0
LINE
8
LYELLOW
6
CONTINUOUS
10
77.5349999999999966
20
-56.8724999999999952
11
77.5349999999999966
21
-67.1525000000000034
0
LINE
8
LYELLOW
6
CONTINUOUS
10
77.5349999999999966
20
-67.1525000000000034
11
82.0349999999999966
21
-67.1525000000000034
0
LINE
8
LYELLOW
6
CONTINUOUS
10
78.7849999999999966
20
-56.8724999999999952
11
77.5349999999999966
21
-56.8724999999999952
0
LINE
8
LYELLOW
6
CONTINUOUS
10
82.0349999999999966
20
-56.8724999999999952
11
80.7849999999999966
21
-56.8724999999999952
0
LINE
8
LYELLOW
6
CONTINUOUS
10
82.0349999999999966
20
-67.1525000000000034
11
82.0349999999999966
21
-56.8724999999999952
0
ARC
8
LYELLOW
10
79.7849999999999966
20
-56.8724999999999952
40
1.
50
-180.00000000
51
-0.00000000
0
LINE
8
LYELLOW
6
CONTINUOUS
10
61.9649999999999963
20
-56.8724999999999952
11
61.9649999999999963
21
-67.1525000000000034
0
LINE
8
LYELLOW
6
CONTINUOUS
10
61.9649999999999963
20
-67.1525000000000034
11
66.4650000000000034
21
-67.1525000000000034
0
LINE
8
LYELLOW
6
CONTINUOUS
10
63.2149999999999963
20
-56.8724999999999952
11
61.9649999999999963
21
-56.8724999999999952
0
LINE
8
LYELLOW
6
CONTINUOUS
10
66.4650000000000034
20
-56.8724999999999952
11
65.2150000000000034
21
-56.8724999999999952
0
LINE
8
LYELLOW
6
CONTINUOUS
10
66.4650000000000034
20
-67.1525000000000034
11
66.4650000000000034
21
-56.8724999999999952
0
ARC
8
LYELLOW
10
64.2150000000000034
20
-56.8724999999999952
40
1.
50
-180.00000000
51
-0.00000000
0
LINE
8
LYELLOW
6
CONTINUOUS
10
61.9649999999999963
20
-70.582499999999996
11
61.9649999999999963
21
-80.8624999999999972
0
LINE
8
LYELLOW
6
CONTINUOUS
10
61.9649999999999963
20
-80.8624999999999972
11
66.4650000000000034
21
-80.8624999999999972
0
LINE
8
LYELLOW
6
CONTINUOUS
10
63.2149999999999963
20
-70.582499999999996
11
61.9649999999999963
21
-70.582499999999996
0
LINE
8
LYELLOW
6
CONTINUOUS
10
66.4650000000000034
20
-70.582499999999996
11
65.2150000000000034
21
-70.582499999999996
0
LINE
8
LYELLOW
6
CONTINUOUS
10
66.4650000000000034
20
-80.8624999999999972
11
66.4650000000000034
21
-70.582499999999996
0
ARC
8
LYELLOW
10
64.2150000000000034
20
-70.582499999999996
40
1.
50
-180.00000000
51
-0.00000000
0
LINE
8
WHITE
6
CONTINUOUS
10
20.
20
-20.
11
124.
21
-20.
0
LINE
8
WHITE
6
CONTINUOUS
10
124.
20
-20.
11
124.
21
-124.
0
LINE
8
WHITE
6
CONTINUOUS
10
124.
20
-124.
11
20.
21
-124.
0
LINE
8
WHITE
6
CONTINUOUS
10
20.
20
-124.
11
20.
21
-20.
  0
ENDSEC
  0
EOF
