  0
SECTION
  2
HEADER
  9
$ACADVER
  1
AC1018
  9
$HANDSEED
  5
FFFFFFFF
  9
$ANGBASE
  50
0.0
  9
$ANGDIR
  70
1
  9
$MEASUREMENT
  70
1
  9
$INSUNITS
  70
4
  0
ENDSEC
  0
SECTION
  2
TABLES
  0
TABLE
  2
APPID
  5
1
330
0
100
AcDbSymbolTable
 70
1
  0
APPID
  5
2
330
1
100
AcDbSymbolTableRecord
100
AcDbRegAppTableRecord
  2
ACAD
 70
0
  0
ENDTAB
  0
TABLE
  2
LTYPE
  5
3
330
0
100
AcDbSymbolTable
 70
6
  0
LTYPE
  5
4
330
3
100
AcDbSymbolTableRecord
100
AcDbLinetypeTableRecord
  2
ByBlock
 70
0
  3

 72
65
 73
0
 40
0
  0
LTYPE
  5
5
330
3
100
AcDbSymbolTableRecord
100
AcDbLinetypeTableRecord
  2
ByLayer
 70
0
  3

 72
65
 73
0
 40
0
  0
LTYPE
  5
6
330
3
100
AcDbSymbolTableRecord
100
AcDbLinetypeTableRecord
  2
CONTINUOUS
 70
0
  3
Solid line
 72
65
 73
0
 40
0
  0
LTYPE
  5
7
330
3
100
AcDbSymbolTableRecord
100
AcDbLinetypeTableRecord
  2
DASHDOT
 70
0
  3
Dash Dot ____ _ ____ _
 72
65
 73
4
 40
2
 49
1.25
 74
0
 49
-0.25
 74
0
 49
0.25
 74
0
 49
-0.25
 74
0
  0
LTYPE
  5
8
330
3
100
AcDbSymbolTableRecord
100
AcDbLinetypeTableRecord
  2
DASHED
 70
0
  3
Dashed __ __ __ __ __
 72
65
 73
2
 40
0.75
 49
0.5
 74
0
 49
-0.25
 74
0
  0
LTYPE
  5
9
330
3
100
AcDbSymbolTableRecord
100
AcDbLinetypeTableRecord
  2
DOTTED
 70
0
  3
Dotted .  .  .  .
 72
65
 73
2
 40
0.2
 49
0.0
 74
0
 49
-0.2
 74
0
  0
ENDTAB
  0
TABLE
  2
STYLE
  5
A
330
0
100
AcDbSymbolTable
 70
4
  0
STYLE
  5
B
330
A
100
AcDbSymbolTableRecord
100
AcDbTextStyleTableRecord
  2
KICAD
 70
0
 40
0
 41
1
 42
1
 50
0
 71
0
  3
isocp.shx
  0
STYLE
  5
C
330
A
100
AcDbSymbolTableRecord
100
AcDbTextStyleTableRecord
  2
KICADB
 70
0
 40
0
 41
1
 42
1
 50
0
 71
0
  3
isocp.shx
  0
STYLE
  5
D
330
A
100
AcDbSymbolTableRecord
100
AcDbTextStyleTableRecord
  2
KICADI
 70
0
 40
0
 41
1
 42
1
 50
15
 71
0
  3
isocp.shx
  0
STYLE
  5
E
330
A
100
AcDbSymbolTableRecord
100
AcDbTextStyleTableRecord
  2
KICADBI
 70
0
 40
0
 41
1
 42
1
 50
15
 71
0
  3
isocp.shx
  0
ENDTAB
  0
TABLE
  2
LAYER
  5
F
330
0
100
AcDbSymbolTable
 70
3
  0
LAYER
  5
12
330
F
100
AcDbSymbolTableRecord
100
AcDbLayerTableRecord
  2
0
 70
0
 62
7
  6
CONTINUOUS
390
10
  0
LAYER
  5
13
330
F
100
AcDbSymbolTableRecord
100
AcDbLayerTableRecord
  2
F.Silkscreen
 70
0
 62
41
420
15920545
  6
CONTINUOUS
390
10
  0
LAYER
  5
14
330
F
100
AcDbSymbolTableRecord
100
AcDbLayerTableRecord
  2
Edge.Cuts
 70
0
 62
254
420
13685453
  6
CONTINUOUS
390
10
  0
ENDTAB
  0
TABLE
  2
VPORT
  5
15
330
0
100
AcDbSymbolTable
 70
0
  0
ENDTAB
  0
TABLE
  2
VIEW
  5
16
330
0
100
AcDbSymbolTable
 70
0
  0
ENDTAB
  0
TABLE
  2
UCS
  5
17
330
0
100
AcDbSymbolTable
 70
0
  0
ENDTAB
  0
TABLE
  2
DIMSTYLE
  5
18
330
0
100
AcDbSymbolTable
 70
1
100
AcDbDimStyleTable
 71
0
  0
DIMSTYLE
105
19
330
18
100
AcDbSymbolTableRecord
100
AcDbDimStyleTableRecord
  2
Standard
 70
0
  0
ENDTAB
  0
TABLE
  2
BLOCK_RECORD
  5
1A
330
0
100
AcDbSymbolTable
 70
3
  0
BLOCK_RECORD
  5
1B
330
1A
100
AcDbSymbolTableRecord
100
AcDbBlockTableRecord
  2
*Model_Space
340
1E
 70
0
280
1
281
0
  0
BLOCK_RECORD
  5
1C
330
1A
100
AcDbSymbolTableRecord
100
AcDbBlockTableRecord
  2
*Paper_Space
340
1F
 70
0
280
1
281
0
  0
BLOCK_RECORD
  5
1D
330
1A
100
AcDbSymbolTableRecord
100
AcDbBlockTableRecord
  2
*Paper_Space0
340
20
 70
0
280
1
281
0
  0
ENDTAB
  0
ENDSEC
  0
SECTION
  2
BLOCKS
  0
BLOCK
  5
24
330
1B
100
AcDbEntity
  8
0
100
AcDbBlockBegin
  2
*Model_Space
 70
0
 10
0.0
 20
0.0
 30
0.0
  3
*Model_Space
  1

  0
ENDBLK
  5
23
330
1B
100
AcDbEntity
  8
0
100
AcDbBlockEnd
  0
BLOCK
  5
26
330
1C
100
AcDbEntity
 67
1
  8
0
100
AcDbBlockBegin
  2
*Paper_Space
 70
0
 10
0.0
 20
0.0
 30
0.0
  3
*Paper_Space
  1

  0
ENDBLK
  5
25
330
1C
100
AcDbEntity
 67
1
  8
0
100
AcDbBlockEnd
  0
BLOCK
  5
28
330
1D
100
AcDbEntity
 67
1
  8
0
100
AcDbBlockBegin
  2
*Paper_Space0
 70
0
 10
0.0
 20
0.0
 30
0.0
  3
*Paper_Space0
  1

  0
ENDBLK
  5
27
330
1D
100
AcDbEntity
 67
1
  8
0
100
AcDbBlockEnd
  0
ENDSEC
  0
SECTION
  2
ENTITIES
  0
LINE
  5
29
330
1B
100
AcDbEntity
  8
F.Silkscreen
  6
CONTINUOUS
100
AcDbLine
 10
74.6698189999999897
 20
-50.1833329999999975
 30
0
 11
75.3841039999999936
 21
-50.1833329999999975
 31
0
  0
LINE
  5
2A
330
1B
100
AcDbEntity
  8
F.Silkscreen
  6
CONTINUOUS
100
AcDbLine
 10
75.3841039999999936
 20
-50.1833329999999975
 30
0
 11
75.526961
 21
-50.2309519999999949
 31
0
  0
LINE
  5
2B
330
1B
100
AcDbEntity
  8
F.Silkscreen
  6
CONTINUOUS
100
AcDbLine
 10
75.526961
 20
-50.2309519999999949
 30
0
 11
75.6221999999999923
 21
-50.3261899999999969
 31
0
  0
LINE
  5
2C
330
1B
100
AcDbEntity
  8
F.Silkscreen
  6
CONTINUOUS
100
AcDbLine
 10
75.6221999999999923
 20
-50.3261899999999969
 30
0
 11
75.6698189999999897
 21
-50.4690469999999962
 31
0
  0
LINE
  5
2D
330
1B
100
AcDbEntity
  8
F.Silkscreen
  6
CONTINUOUS
100
AcDbLine
 10
75.6698189999999897
 20
-50.4690469999999962
 30
0
 11
75.6698189999999897
 21
-50.5642849999999981
 31
0
  0
LINE
  5
2E
330
1B
100
AcDbEntity
  8
F.Silkscreen
  6
CONTINUOUS
100
AcDbLine
 10
75.6698189999999897
 20
-49.1833329999999975
 30
0
 11
75.6698189999999897
 21
-49.7547609999999949
 31
0
  0
LINE
  5
2F
330
1B
100
AcDbEntity
  8
F.Silkscreen
  6
CONTINUOUS
100
AcDbLine
 10
75.6698189999999897
 20
-49.4690469999999962
 30
0
 11
74.6698189999999897
 21
-49.4690469999999962
 31
0
  0
LINE
  5
30
330
1B
100
AcDbEntity
  8
F.Silkscreen
  6
CONTINUOUS
100
AcDbLine
 10
74.6698189999999897
 20
-49.4690469999999962
 30
0
 11
74.8126759999999962
 21
-49.5642849999999981
 31
0
  0
LINE
  5
31
330
1B
100
AcDbEntity
  8
F.Silkscreen
  6
CONTINUOUS
100
AcDbLine
 10
74.8126759999999962
 20
-49.5642849999999981
 30
0
 11
74.907913999999991
 21
-49.6595230000000001
 31
0
  0
LINE
  5
32
330
1B
100
AcDbEntity
  8
F.Silkscreen
  6
CONTINUOUS
100
AcDbLine
 10
74.907913999999991
 20
-49.6595230000000001
 30
0
 11
74.9555330000000026
 21
-49.7547609999999949
 31
0
  0
LINE
  5
33
330
1B
100
AcDbEntity
  8
F.Silkscreen
  6
CONTINUOUS
100
AcDbLine
 10
102.5633330000000001
 20
-55.9895799999999966
 30
0
 11
102.5157139999999885
 21
-56.0371999999999986
 31
0
  0
LINE
  5
34
330
1B
100
AcDbEntity
  8
F.Silkscreen
  6
CONTINUOUS
100
AcDbLine
 10
102.5157139999999885
 20
-56.0371999999999986
 30
0
 11
102.3728569999999962
 21
-56.084818999999996
 31
0
  0
LINE
  5
35
330
1B
100
AcDbEntity
  8
F.Silkscreen
  6
CONTINUOUS
100
AcDbLine
 10
102.3728569999999962
 20
-56.084818999999996
 30
0
 11
102.2776190000000014
 21
-56.084818999999996
 31
0
  0
LINE
  5
36
330
1B
100
AcDbEntity
  8
F.Silkscreen
  6
CONTINUOUS
100
AcDbLine
 10
102.2776190000000014
 20
-56.084818999999996
 30
0
 11
102.1347619999999949
 21
-56.0371999999999986
 31
0
  0
LINE
  5
37
330
1B
100
AcDbEntity
  8
F.Silkscreen
  6
CONTINUOUS
100
AcDbLine
 10
102.1347619999999949
 20
-56.0371999999999986
 30
0
 11
102.0395240000000001
 21
-55.9419609999999992
 31
0
  0
LINE
  5
38
330
1B
100
AcDbEntity
  8
F.Silkscreen
  6
CONTINUOUS
100
AcDbLine
 10
102.0395240000000001
 20
-55.9419609999999992
 30
0
 11
101.9919049999999885
 21
-55.8467229999999972
 31
0
  0
LINE
  5
39
330
1B
100
AcDbEntity
  8
F.Silkscreen
  6
CONTINUOUS
100
AcDbLine
 10
101.9919049999999885
 20
-55.8467229999999972
 30
0
 11
101.9442859999999911
 21
-55.6562470000000005
 31
0
  0
LINE
  5
3A
330
1B
100
AcDbEntity
  8
F.Silkscreen
  6
CONTINUOUS
100
AcDbLine
 10
101.9442859999999911
 20
-55.6562470000000005
 30
0
 11
101.9442859999999911
 21
-55.513389999999994
 31
0
  0
LINE
  5
3B
330
1B
100
AcDbEntity
  8
F.Silkscreen
  6
CONTINUOUS
100
AcDbLine
 10
101.9442859999999911
 20
-55.513389999999994
 30
0
 11
101.9919049999999885
 21
-55.3229139999999973
 31
0
  0
LINE
  5
3C
330
1B
100
AcDbEntity
  8
F.Silkscreen
  6
CONTINUOUS
100
AcDbLine
 10
101.9919049999999885
 20
-55.3229139999999973
 30
0
 11
102.0395240000000001
 21
-55.2276759999999953
 31
0
  0
LINE
  5
3D
330
1B
100
AcDbEntity
  8
F.Silkscreen
  6
CONTINUOUS
100
AcDbLine
 10
102.0395240000000001
 20
-55.2276759999999953
 30
0
 11
102.1347619999999949
 21
-55.1324380000000005
 31
0
  0
LINE
  5
3E
330
1B
100
AcDbEntity
  8
F.Silkscreen
  6
CONTINUOUS
100
AcDbLine
 10
102.1347619999999949
 20
-55.1324380000000005
 30
0
 11
102.2776190000000014
 21
-55.084818999999996
 31
0
  0
LINE
  5
3F
330
1B
100
AcDbEntity
  8
F.Silkscreen
  6
CONTINUOUS
100
AcDbLine
 10
102.2776190000000014
 20
-55.084818999999996
 30
0
 11
102.3728569999999962
 21
-55.084818999999996
 31
0
  0
LINE
  5
40
330
1B
100
AcDbEntity
  8
F.Silkscreen
  6
CONTINUOUS
100
AcDbLine
 10
102.3728569999999962
 20
-55.084818999999996
 30
0
 11
102.5157139999999885
 21
-55.1324380000000005
 31
0
  0
LINE
  5
41
330
1B
100
AcDbEntity
  8
F.Silkscreen
  6
CONTINUOUS
100
AcDbLine
 10
102.5157139999999885
 20
-55.1324380000000005
 30
0
 11
102.5633330000000001
 21
-55.1800569999999979
 31
0
  0
LINE
  5
42
330
1B
100
AcDbEntity
  8
F.Silkscreen
  6
CONTINUOUS
100
AcDbLine
 10
103.5157139999999885
 20
-56.084818999999996
 30
0
 11
102.9442859999999911
 21
-56.084818999999996
 31
0
  0
LINE
  5
43
330
1B
100
AcDbEntity
  8
F.Silkscreen
  6
CONTINUOUS
100
AcDbLine
 10
103.2299999999999898
 20
-56.084818999999996
 30
0
 11
103.2299999999999898
 21
-55.084818999999996
 31
0
  0
LINE
  5
44
330
1B
100
AcDbEntity
  8
F.Silkscreen
  6
CONTINUOUS
100
AcDbLine
 10
103.2299999999999898
 20
-55.084818999999996
 30
0
 11
103.1347619999999949
 21
-55.2276759999999953
 31
0
  0
LINE
  5
45
330
1B
100
AcDbEntity
  8
F.Silkscreen
  6
CONTINUOUS
100
AcDbLine
 10
103.1347619999999949
 20
-55.2276759999999953
 30
0
 11
103.0395240000000001
 21
-55.3229139999999973
 31
0
  0
LINE
  5
46
330
1B
100
AcDbEntity
  8
F.Silkscreen
  6
CONTINUOUS
100
AcDbLine
 10
103.0395240000000001
 20
-55.3229139999999973
 30
0
 11
102.9442859999999911
 21
-55.3705329999999947
 31
0
  0
LINE
  5
47
330
1B
100
AcDbEntity
  8
F.Silkscreen
  6
CONTINUOUS
100
AcDbLine
 10
79.3481519999999989
 20
-81.7680939999999907
 30
0
 11
78.3481519999999989
 21
-81.7680939999999907
 31
0
  0
LINE
  5
48
330
1B
100
AcDbEntity
  8
F.Silkscreen
  6
CONTINUOUS
100
AcDbLine
 10
78.3481519999999989
 20
-81.7680939999999907
 30
0
 11
78.3481519999999989
 21
-81.5299989999999895
 31
0
  0
LINE
  5
49
330
1B
100
AcDbEntity
  8
F.Silkscreen
  6
CONTINUOUS
100
AcDbLine
 10
78.3481519999999989
 20
-81.5299989999999895
 30
0
 11
78.3957709999999963
 21
-81.3871419999999972
 31
0
  0
LINE
  5
4A
330
1B
100
AcDbEntity
  8
F.Silkscreen
  6
CONTINUOUS
100
AcDbLine
 10
78.3957709999999963
 20
-81.3871419999999972
 30
0
 11
78.4910089999999911
 21
-81.2919040000000024
 31
0
  0
LINE
  5
4B
330
1B
100
AcDbEntity
  8
F.Silkscreen
  6
CONTINUOUS
100
AcDbLine
 10
78.4910089999999911
 20
-81.2919040000000024
 30
0
 11
78.5862470000000002
 21
-81.2442849999999908
 31
0
  0
LINE
  5
4C
330
1B
100
AcDbEntity
  8
F.Silkscreen
  6
CONTINUOUS
100
AcDbLine
 10
78.5862470000000002
 20
-81.2442849999999908
 30
0
 11
78.7767229999999898
 21
-81.1966659999999933
 31
0
  0
LINE
  5
4D
330
1B
100
AcDbEntity
  8
F.Silkscreen
  6
CONTINUOUS
100
AcDbLine
 10
78.7767229999999898
 20
-81.1966659999999933
 30
0
 11
78.9195799999999963
 21
-81.1966659999999933
 31
0
  0
LINE
  5
4E
330
1B
100
AcDbEntity
  8
F.Silkscreen
  6
CONTINUOUS
100
AcDbLine
 10
78.9195799999999963
 20
-81.1966659999999933
 30
0
 11
79.1100560000000002
 21
-81.2442849999999908
 31
0
  0
LINE
  5
4F
330
1B
100
AcDbEntity
  8
F.Silkscreen
  6
CONTINUOUS
100
AcDbLine
 10
79.1100560000000002
 20
-81.2442849999999908
 30
0
 11
79.205293999999995
 21
-81.2919040000000024
 31
0
  0
LINE
  5
50
330
1B
100
AcDbEntity
  8
F.Silkscreen
  6
CONTINUOUS
100
AcDbLine
 10
79.205293999999995
 20
-81.2919040000000024
 30
0
 11
79.3005330000000015
 21
-81.3871419999999972
 31
0
  0
LINE
  5
51
330
1B
100
AcDbEntity
  8
F.Silkscreen
  6
CONTINUOUS
100
AcDbLine
 10
79.3005330000000015
 20
-81.3871419999999972
 30
0
 11
79.3481519999999989
 21
-81.5299989999999895
 31
0
  0
LINE
  5
52
330
1B
100
AcDbEntity
  8
F.Silkscreen
  6
CONTINUOUS
100
AcDbLine
 10
79.3481519999999989
 20
-81.5299989999999895
 30
0
 11
79.3481519999999989
 21
-81.7680939999999907
 31
0
  0
LINE
  5
53
330
1B
100
AcDbEntity
  8
F.Silkscreen
  6
CONTINUOUS
100
AcDbLine
 10
78.4433899999999937
 20
-80.8157130000000024
 30
0
 11
78.3957709999999963
 21
-80.7680939999999907
 31
0
  0
LINE
  5
54
330
1B
100
AcDbEntity
  8
F.Silkscreen
  6
CONTINUOUS
100
AcDbLine
 10
78.3957709999999963
 20
-80.7680939999999907
 30
0
 11
78.3481519999999989
 21
-80.6728559999999959
 31
0
  0
LINE
  5
55
330
1B
100
AcDbEntity
  8
F.Silkscreen
  6
CONTINUOUS
100
AcDbLine
 10
78.3481519999999989
 20
-80.6728559999999959
 30
0
 11
78.3481519999999989
 21
-80.4347609999999946
 31
0
  0
LINE
  5
56
330
1B
100
AcDbEntity
  8
F.Silkscreen
  6
CONTINUOUS
100
AcDbLine
 10
78.3481519999999989
 20
-80.4347609999999946
 30
0
 11
78.3957709999999963
 21
-80.3395229999999998
 31
0
  0
LINE
  5
57
330
1B
100
AcDbEntity
  8
F.Silkscreen
  6
CONTINUOUS
100
AcDbLine
 10
78.3957709999999963
 20
-80.3395229999999998
 30
0
 11
78.4433899999999937
 21
-80.2919040000000024
 31
0
  0
LINE
  5
58
330
1B
100
AcDbEntity
  8
F.Silkscreen
  6
CONTINUOUS
100
AcDbLine
 10
78.4433899999999937
 20
-80.2919040000000024
 30
0
 11
78.5386280000000028
 21
-80.2442849999999908
 31
0
  0
LINE
  5
59
330
1B
100
AcDbEntity
  8
F.Silkscreen
  6
CONTINUOUS
100
AcDbLine
 10
78.5386280000000028
 20
-80.2442849999999908
 30
0
 11
78.6338659999999976
 21
-80.2442849999999908
 31
0
  0
LINE
  5
5A
330
1B
100
AcDbEntity
  8
F.Silkscreen
  6
CONTINUOUS
100
AcDbLine
 10
78.6338659999999976
 20
-80.2442849999999908
 30
0
 11
78.7767229999999898
 21
-80.2919040000000024
 31
0
  0
LINE
  5
5B
330
1B
100
AcDbEntity
  8
F.Silkscreen
  6
CONTINUOUS
100
AcDbLine
 10
78.7767229999999898
 20
-80.2919040000000024
 30
0
 11
79.3481519999999989
 21
-80.8633319999999998
 31
0
  0
LINE
  5
5C
330
1B
100
AcDbEntity
  8
F.Silkscreen
  6
CONTINUOUS
100
AcDbLine
 10
79.3481519999999989
 20
-80.8633319999999998
 30
0
 11
79.3481519999999989
 21
-80.2442849999999908
 31
0
  0
LINE
  5
5D
330
1B
100
AcDbEntity
  8
F.Silkscreen
  6
CONTINUOUS
100
AcDbLine
 10
79.7181520000000035
 20
-86.3719040000000007
 30
0
 11
78.7181520000000035
 21
-86.3719040000000007
 31
0
  0
LINE
  5
5E
330
1B
100
AcDbEntity
  8
F.Silkscreen
  6
CONTINUOUS
100
AcDbLine
 10
79.7181520000000035
 20
-85.8004759999999891
 30
0
 11
79.1467229999999944
 21
-86.2290469999999942
 31
0
  0
LINE
  5
5F
330
1B
100
AcDbEntity
  8
F.Silkscreen
  6
CONTINUOUS
100
AcDbLine
 10
78.7181520000000035
 20
-85.8004759999999891
 30
0
 11
79.2895800000000008
 21
-86.3719040000000007
 31
0
  0
LINE
  5
60
330
1B
100
AcDbEntity
  8
F.Silkscreen
  6
CONTINUOUS
100
AcDbLine
 10
99.1466659999999962
 20
-44.834818999999996
 30
0
 11
99.1466659999999962
 21
-45.5491039999999998
 31
0
  0
LINE
  5
61
330
1B
100
AcDbEntity
  8
F.Silkscreen
  6
CONTINUOUS
100
AcDbLine
 10
99.1466659999999962
 20
-45.5491039999999998
 30
0
 11
99.0990469999999988
 21
-45.6919609999999992
 31
0
  0
LINE
  5
62
330
1B
100
AcDbEntity
  8
F.Silkscreen
  6
CONTINUOUS
100
AcDbLine
 10
99.0990469999999988
 20
-45.6919609999999992
 30
0
 11
99.0038089999999897
 21
-45.7871999999999986
 31
0
  0
LINE
  5
63
330
1B
100
AcDbEntity
  8
F.Silkscreen
  6
CONTINUOUS
100
AcDbLine
 10
99.0038089999999897
 20
-45.7871999999999986
 30
0
 11
98.8609519999999975
 21
-45.834818999999996
 31
0
  0
LINE
  5
64
330
1B
100
AcDbEntity
  8
F.Silkscreen
  6
CONTINUOUS
100
AcDbLine
 10
98.8609519999999975
 20
-45.834818999999996
 30
0
 11
98.7657139999999885
 21
-45.834818999999996
 31
0
  0
LINE
  5
65
330
1B
100
AcDbEntity
  8
F.Silkscreen
  6
CONTINUOUS
100
AcDbLine
 10
99.5752379999999988
 20
-44.9300569999999979
 30
0
 11
99.6228569999999962
 21
-44.8824380000000005
 31
0
  0
LINE
  5
66
330
1B
100
AcDbEntity
  8
F.Silkscreen
  6
CONTINUOUS
100
AcDbLine
 10
99.6228569999999962
 20
-44.8824380000000005
 30
0
 11
99.718094999999991
 21
-44.834818999999996
 31
0
  0
LINE
  5
67
330
1B
100
AcDbEntity
  8
F.Silkscreen
  6
CONTINUOUS
100
AcDbLine
 10
99.718094999999991
 20
-44.834818999999996
 30
0
 11
99.9561899999999923
 21
-44.834818999999996
 31
0
  0
LINE
  5
68
330
1B
100
AcDbEntity
  8
F.Silkscreen
  6
CONTINUOUS
100
AcDbLine
 10
99.9561899999999923
 20
-44.834818999999996
 30
0
 11
100.0514280000000014
 21
-44.8824380000000005
 31
0
  0
LINE
  5
69
330
1B
100
AcDbEntity
  8
F.Silkscreen
  6
CONTINUOUS
100
AcDbLine
 10
100.0514280000000014
 20
-44.8824380000000005
 30
0
 11
100.0990469999999988
 21
-44.9300569999999979
 31
0
  0
LINE
  5
6A
330
1B
100
AcDbEntity
  8
F.Silkscreen
  6
CONTINUOUS
100
AcDbLine
 10
100.0990469999999988
 20
-44.9300569999999979
 30
0
 11
100.1466659999999962
 21
-45.0252949999999998
 31
0
  0
LINE
  5
6B
330
1B
100
AcDbEntity
  8
F.Silkscreen
  6
CONTINUOUS
100
AcDbLine
 10
100.1466659999999962
 20
-45.0252949999999998
 30
0
 11
100.1466659999999962
 21
-45.1205329999999947
 31
0
  0
LINE
  5
6C
330
1B
100
AcDbEntity
  8
F.Silkscreen
  6
CONTINUOUS
100
AcDbLine
 10
100.1466659999999962
 20
-45.1205329999999947
 30
0
 11
100.0990469999999988
 21
-45.2633900000000011
 31
0
  0
LINE
  5
6D
330
1B
100
AcDbEntity
  8
F.Silkscreen
  6
CONTINUOUS
100
AcDbLine
 10
100.0990469999999988
 20
-45.2633900000000011
 30
0
 11
99.5276190000000014
 21
-45.834818999999996
 31
0
  0
LINE
  5
6E
330
1B
100
AcDbEntity
  8
F.Silkscreen
  6
CONTINUOUS
100
AcDbLine
 10
99.5276190000000014
 20
-45.834818999999996
 30
0
 11
100.1466659999999962
 21
-45.834818999999996
 31
0
  0
LINE
  5
6F
330
1B
100
AcDbEntity
  8
F.Silkscreen
  6
CONTINUOUS
100
AcDbLine
 10
72.314819
 20
-81.1966659999999933
 30
0
 11
71.8386279999999999
 21
-81.5299989999999895
 31
0
  0
LINE
  5
70
330
1B
100
AcDbEntity
  8
F.Silkscreen
  6
CONTINUOUS
100
AcDbLine
 10
72.314819
 20
-81.7680939999999907
 30
0
 11
71.314819
 21
-81.7680939999999907
 31
0
  0
LINE
  5
71
330
1B
100
AcDbEntity
  8
F.Silkscreen
  6
CONTINUOUS
100
AcDbLine
 10
71.314819
 20
-81.7680939999999907
 30
0
 11
71.314819
 21
-81.3871419999999972
 31
0
  0
LINE
  5
72
330
1B
100
AcDbEntity
  8
F.Silkscreen
  6
CONTINUOUS
100
AcDbLine
 10
71.314819
 20
-81.3871419999999972
 30
0
 11
71.3624379999999974
 21
-81.2919040000000024
 31
0
  0
LINE
  5
73
330
1B
100
AcDbEntity
  8
F.Silkscreen
  6
CONTINUOUS
100
AcDbLine
 10
71.3624379999999974
 20
-81.2919040000000024
 30
0
 11
71.4100569999999948
 21
-81.2442849999999908
 31
0
  0
LINE
  5
74
330
1B
100
AcDbEntity
  8
F.Silkscreen
  6
CONTINUOUS
100
AcDbLine
 10
71.4100569999999948
 20
-81.2442849999999908
 30
0
 11
71.5052950000000038
 21
-81.1966659999999933
 31
0
  0
LINE
  5
75
330
1B
100
AcDbEntity
  8
F.Silkscreen
  6
CONTINUOUS
100
AcDbLine
 10
71.5052950000000038
 20
-81.1966659999999933
 30
0
 11
71.6481519999999961
 21
-81.1966659999999933
 31
0
  0
LINE
  5
76
330
1B
100
AcDbEntity
  8
F.Silkscreen
  6
CONTINUOUS
100
AcDbLine
 10
71.6481519999999961
 20
-81.1966659999999933
 30
0
 11
71.7433899999999909
 21
-81.2442849999999908
 31
0
  0
LINE
  5
77
330
1B
100
AcDbEntity
  8
F.Silkscreen
  6
CONTINUOUS
100
AcDbLine
 10
71.7433899999999909
 20
-81.2442849999999908
 30
0
 11
71.7910090000000025
 21
-81.2919040000000024
 31
0
  0
LINE
  5
78
330
1B
100
AcDbEntity
  8
F.Silkscreen
  6
CONTINUOUS
100
AcDbLine
 10
71.7910090000000025
 20
-81.2919040000000024
 30
0
 11
71.8386279999999999
 21
-81.3871419999999972
 31
0
  0
LINE
  5
79
330
1B
100
AcDbEntity
  8
F.Silkscreen
  6
CONTINUOUS
100
AcDbLine
 10
71.8386279999999999
 20
-81.3871419999999972
 30
0
 11
71.8386279999999999
 21
-81.7680939999999907
 31
0
  0
LINE
  5
7A
330
1B
100
AcDbEntity
  8
F.Silkscreen
  6
CONTINUOUS
100
AcDbLine
 10
71.4100569999999948
 20
-80.8157130000000024
 30
0
 11
71.3624379999999974
 21
-80.7680939999999907
 31
0
  0
LINE
  5
7B
330
1B
100
AcDbEntity
  8
F.Silkscreen
  6
CONTINUOUS
100
AcDbLine
 10
71.3624379999999974
 20
-80.7680939999999907
 30
0
 11
71.314819
 21
-80.6728559999999959
 31
0
  0
LINE
  5
7C
330
1B
100
AcDbEntity
  8
F.Silkscreen
  6
CONTINUOUS
100
AcDbLine
 10
71.314819
 20
-80.6728559999999959
 30
0
 11
71.314819
 21
-80.4347609999999946
 31
0
  0
LINE
  5
7D
330
1B
100
AcDbEntity
  8
F.Silkscreen
  6
CONTINUOUS
100
AcDbLine
 10
71.314819
 20
-80.4347609999999946
 30
0
 11
71.3624379999999974
 21
-80.3395229999999998
 31
0
  0
LINE
  5
7E
330
1B
100
AcDbEntity
  8
F.Silkscreen
  6
CONTINUOUS
100
AcDbLine
 10
71.3624379999999974
 20
-80.3395229999999998
 30
0
 11
71.4100569999999948
 21
-80.2919040000000024
 31
0
  0
LINE
  5
7F
330
1B
100
AcDbEntity
  8
F.Silkscreen
  6
CONTINUOUS
100
AcDbLine
 10
71.4100569999999948
 20
-80.2919040000000024
 30
0
 11
71.5052950000000038
 21
-80.2442849999999908
 31
0
  0
LINE
  5
80
330
1B
100
AcDbEntity
  8
F.Silkscreen
  6
CONTINUOUS
100
AcDbLine
 10
71.5052950000000038
 20
-80.2442849999999908
 30
0
 11
71.6005329999999987
 21
-80.2442849999999908
 31
0
  0
LINE
  5
81
330
1B
100
AcDbEntity
  8
F.Silkscreen
  6
CONTINUOUS
100
AcDbLine
 10
71.6005329999999987
 20
-80.2442849999999908
 30
0
 11
71.7433899999999909
 21
-80.2919040000000024
 31
0
  0
LINE
  5
82
330
1B
100
AcDbEntity
  8
F.Silkscreen
  6
CONTINUOUS
100
AcDbLine
 10
71.7433899999999909
 20
-80.2919040000000024
 30
0
 11
72.314819
 21
-80.8633319999999998
 31
0
  0
LINE
  5
83
330
1B
100
AcDbEntity
  8
F.Silkscreen
  6
CONTINUOUS
100
AcDbLine
 10
72.314819
 20
-80.8633319999999998
 30
0
 11
72.314819
 21
-80.2442849999999908
 31
0
  0
LINE
  5
84
330
1B
100
AcDbEntity
  8
F.Silkscreen
  6
CONTINUOUS
100
AcDbLine
 10
74.564819
 20
-60.8066659999999999
 30
0
 11
74.0886279999999999
 21
-61.139998999999996
 31
0
  0
LINE
  5
85
330
1B
100
AcDbEntity
  8
F.Silkscreen
  6
CONTINUOUS
100
AcDbLine
 10
74.564819
 20
-61.3780939999999973
 30
0
 11
73.564819
 21
-61.3780939999999973
 31
0
  0
LINE
  5
86
330
1B
100
AcDbEntity
  8
F.Silkscreen
  6
CONTINUOUS
100
AcDbLine
 10
73.564819
 20
-61.3780939999999973
 30
0
 11
73.564819
 21
-60.9971419999999966
 31
0
  0
LINE
  5
87
330
1B
100
AcDbEntity
  8
F.Silkscreen
  6
CONTINUOUS
100
AcDbLine
 10
73.564819
 20
-60.9971419999999966
 30
0
 11
73.6124379999999974
 21
-60.9019039999999947
 31
0
  0
LINE
  5
88
330
1B
100
AcDbEntity
  8
F.Silkscreen
  6
CONTINUOUS
100
AcDbLine
 10
73.6124379999999974
 20
-60.9019039999999947
 30
0
 11
73.6600569999999948
 21
-60.8542849999999973
 31
0
  0
LINE
  5
89
330
1B
100
AcDbEntity
  8
F.Silkscreen
  6
CONTINUOUS
100
AcDbLine
 10
73.6600569999999948
 20
-60.8542849999999973
 30
0
 11
73.7552949999999896
 21
-60.8066659999999999
 31
0
  0
LINE
  5
8A
330
1B
100
AcDbEntity
  8
F.Silkscreen
  6
CONTINUOUS
100
AcDbLine
 10
73.7552949999999896
 20
-60.8066659999999999
 30
0
 11
73.8981519999999961
 21
-60.8066659999999999
 31
0
  0
LINE
  5
8B
330
1B
100
AcDbEntity
  8
F.Silkscreen
  6
CONTINUOUS
100
AcDbLine
 10
73.8981519999999961
 20
-60.8066659999999999
 30
0
 11
73.9933899999999909
 21
-60.8542849999999973
 31
0
  0
LINE
  5
8C
330
1B
100
AcDbEntity
  8
F.Silkscreen
  6
CONTINUOUS
100
AcDbLine
 10
73.9933899999999909
 20
-60.8542849999999973
 30
0
 11
74.0410090000000025
 21
-60.9019039999999947
 31
0
  0
LINE
  5
8D
330
1B
100
AcDbEntity
  8
F.Silkscreen
  6
CONTINUOUS
100
AcDbLine
 10
74.0410090000000025
 20
-60.9019039999999947
 30
0
 11
74.0886279999999999
 21
-60.9971419999999966
 31
0
  0
LINE
  5
8E
330
1B
100
AcDbEntity
  8
F.Silkscreen
  6
CONTINUOUS
100
AcDbLine
 10
74.0886279999999999
 20
-60.9971419999999966
 30
0
 11
74.0886279999999999
 21
-61.3780939999999973
 31
0
  0
LINE
  5
8F
330
1B
100
AcDbEntity
  8
F.Silkscreen
  6
CONTINUOUS
100
AcDbLine
 10
74.564819
 20
-59.8542849999999973
 30
0
 11
74.564819
 21
-60.4257129999999947
 31
0
  0
LINE
  5
90
330
1B
100
AcDbEntity
  8
F.Silkscreen
  6
CONTINUOUS
100
AcDbLine
 10
74.564819
 20
-60.139998999999996
 30
0
 11
73.564819
 21
-60.139998999999996
 31
0
  0
LINE
  5
91
330
1B
100
AcDbEntity
  8
F.Silkscreen
  6
CONTINUOUS
100
AcDbLine
 10
73.564819
 20
-60.139998999999996
 30
0
 11
73.7076759999999922
 21
-60.2352369999999979
 31
0
  0
LINE
  5
92
330
1B
100
AcDbEntity
  8
F.Silkscreen
  6
CONTINUOUS
100
AcDbLine
 10
73.7076759999999922
 20
-60.2352369999999979
 30
0
 11
73.8029140000000012
 21
-60.3304749999999999
 31
0
  0
LINE
  5
93
330
1B
100
AcDbEntity
  8
F.Silkscreen
  6
CONTINUOUS
100
AcDbLine
 10
73.8029140000000012
 20
-60.3304749999999999
 30
0
 11
73.8505329999999987
 21
-60.4257129999999947
 31
0
  0
LINE
  5
94
330
1B
100
AcDbEntity
  8
F.Silkscreen
  6
CONTINUOUS
100
AcDbLine
 10
82.8104759999999942
 20
-55.4748189999999965
 30
0
 11
82.8104759999999942
 21
-54.4748189999999965
 31
0
  0
LINE
  5
95
330
1B
100
AcDbEntity
  8
F.Silkscreen
  6
CONTINUOUS
100
AcDbLine
 10
82.8104759999999942
 20
-54.4748189999999965
 30
0
 11
83.1438089999999903
 21
-55.1891040000000004
 31
0
  0
LINE
  5
96
330
1B
100
AcDbEntity
  8
F.Silkscreen
  6
CONTINUOUS
100
AcDbLine
 10
83.1438089999999903
 20
-55.1891040000000004
 30
0
 11
83.4771420000000006
 21
-54.4748189999999965
 31
0
  0
LINE
  5
97
330
1B
100
AcDbEntity
  8
F.Silkscreen
  6
CONTINUOUS
100
AcDbLine
 10
83.4771420000000006
 20
-54.4748189999999965
 30
0
 11
83.4771420000000006
 21
-55.4748189999999965
 31
0
  0
LINE
  5
98
330
1B
100
AcDbEntity
  8
F.Silkscreen
  6
CONTINUOUS
100
AcDbLine
 10
84.4771420000000006
 20
-55.4748189999999965
 30
0
 11
83.9057140000000032
 21
-55.4748189999999965
 31
0
  0
LINE
  5
99
330
1B
100
AcDbEntity
  8
F.Silkscreen
  6
CONTINUOUS
100
AcDbLine
 10
84.1914280000000019
 20
-55.4748189999999965
 30
0
 11
84.1914280000000019
 21
-54.4748189999999965
 31
0
  0
LINE
  5
9A
330
1B
100
AcDbEntity
  8
F.Silkscreen
  6
CONTINUOUS
100
AcDbLine
 10
84.1914280000000019
 20
-54.4748189999999965
 30
0
 11
84.0961899999999929
 21
-54.6176759999999959
 31
0
  0
LINE
  5
9B
330
1B
100
AcDbEntity
  8
F.Silkscreen
  6
CONTINUOUS
100
AcDbLine
 10
84.0961899999999929
 20
-54.6176759999999959
 30
0
 11
84.0009519999999981
 21
-54.7129139999999978
 31
0
  0
LINE
  5
9C
330
1B
100
AcDbEntity
  8
F.Silkscreen
  6
CONTINUOUS
100
AcDbLine
 10
84.0009519999999981
 20
-54.7129139999999978
 30
0
 11
83.9057140000000032
 21
-54.7605329999999952
 31
0
  0
LINE
  5
9D
330
1B
100
AcDbEntity
  8
F.Silkscreen
  6
CONTINUOUS
100
AcDbLine
 10
94.8448190000000011
 20
-62.3680939999999993
 30
0
 11
93.8448190000000011
 21
-62.3680939999999993
 31
0
  0
LINE
  5
9E
330
1B
100
AcDbEntity
  8
F.Silkscreen
  6
CONTINUOUS
100
AcDbLine
 10
93.8448190000000011
 20
-62.3680939999999993
 30
0
 11
93.8448190000000011
 21
-62.129998999999998
 31
0
  0
LINE
  5
9F
330
1B
100
AcDbEntity
  8
F.Silkscreen
  6
CONTINUOUS
100
AcDbLine
 10
93.8448190000000011
 20
-62.129998999999998
 30
0
 11
93.8924379999999985
 21
-61.9871419999999986
 31
0
  0
LINE
  5
A0
330
1B
100
AcDbEntity
  8
F.Silkscreen
  6
CONTINUOUS
100
AcDbLine
 10
93.8924379999999985
 20
-61.9871419999999986
 30
0
 11
93.9876759999999933
 21
-61.8919039999999967
 31
0
  0
LINE
  5
A1
330
1B
100
AcDbEntity
  8
F.Silkscreen
  6
CONTINUOUS
100
AcDbLine
 10
93.9876759999999933
 20
-61.8919039999999967
 30
0
 11
94.0829140000000024
 21
-61.8442849999999993
 31
0
  0
LINE
  5
A2
330
1B
100
AcDbEntity
  8
F.Silkscreen
  6
CONTINUOUS
100
AcDbLine
 10
94.0829140000000024
 20
-61.8442849999999993
 30
0
 11
94.273389999999992
 21
-61.7966659999999948
 31
0
  0
LINE
  5
A3
330
1B
100
AcDbEntity
  8
F.Silkscreen
  6
CONTINUOUS
100
AcDbLine
 10
94.273389999999992
 20
-61.7966659999999948
 30
0
 11
94.4162469999999985
 21
-61.7966659999999948
 31
0
  0
LINE
  5
A4
330
1B
100
AcDbEntity
  8
F.Silkscreen
  6
CONTINUOUS
100
AcDbLine
 10
94.4162469999999985
 20
-61.7966659999999948
 30
0
 11
94.6067230000000023
 21
-61.8442849999999993
 31
0
  0
LINE
  5
A5
330
1B
100
AcDbEntity
  8
F.Silkscreen
  6
CONTINUOUS
100
AcDbLine
 10
94.6067230000000023
 20
-61.8442849999999993
 30
0
 11
94.7019609999999972
 21
-61.8919039999999967
 31
0
  0
LINE
  5
A6
330
1B
100
AcDbEntity
  8
F.Silkscreen
  6
CONTINUOUS
100
AcDbLine
 10
94.7019609999999972
 20
-61.8919039999999967
 30
0
 11
94.7971999999999895
 21
-61.9871419999999986
 31
0
  0
LINE
  5
A7
330
1B
100
AcDbEntity
  8
F.Silkscreen
  6
CONTINUOUS
100
AcDbLine
 10
94.7971999999999895
 20
-61.9871419999999986
 30
0
 11
94.8448190000000011
 21
-62.129998999999998
 31
0
  0
LINE
  5
A8
330
1B
100
AcDbEntity
  8
F.Silkscreen
  6
CONTINUOUS
100
AcDbLine
 10
94.8448190000000011
 20
-62.129998999999998
 30
0
 11
94.8448190000000011
 21
-62.3680939999999993
 31
0
  0
LINE
  5
A9
330
1B
100
AcDbEntity
  8
F.Silkscreen
  6
CONTINUOUS
100
AcDbLine
 10
94.8448190000000011
 20
-60.8442849999999993
 30
0
 11
94.8448190000000011
 21
-61.4157129999999967
 31
0
  0
LINE
  5
AA
330
1B
100
AcDbEntity
  8
F.Silkscreen
  6
CONTINUOUS
100
AcDbLine
 10
94.8448190000000011
 20
-61.129998999999998
 30
0
 11
93.8448190000000011
 21
-61.129998999999998
 31
0
  0
LINE
  5
AB
330
1B
100
AcDbEntity
  8
F.Silkscreen
  6
CONTINUOUS
100
AcDbLine
 10
93.8448190000000011
 20
-61.129998999999998
 30
0
 11
93.9876759999999933
 21
-61.2252369999999999
 31
0
  0
LINE
  5
AC
330
1B
100
AcDbEntity
  8
F.Silkscreen
  6
CONTINUOUS
100
AcDbLine
 10
93.9876759999999933
 20
-61.2252369999999999
 30
0
 11
94.0829140000000024
 21
-61.3204749999999947
 31
0
  0
LINE
  5
AD
330
1B
100
AcDbEntity
  8
F.Silkscreen
  6
CONTINUOUS
100
AcDbLine
 10
94.0829140000000024
 20
-61.3204749999999947
 30
0
 11
94.1305329999999998
 21
-61.4157129999999967
 31
0
  0
LINE
  5
AE
330
1B
100
AcDbEntity
  8
F.Silkscreen
  6
CONTINUOUS
100
AcDbLine
 10
94.4748189999999965
 20
-56.8119039999999984
 30
0
 11
93.4748189999999965
 21
-56.8119039999999984
 31
0
  0
LINE
  5
AF
330
1B
100
AcDbEntity
  8
F.Silkscreen
  6
CONTINUOUS
100
AcDbLine
 10
94.4748189999999965
 20
-56.2404759999999939
 30
0
 11
93.9033900000000017
 21
-56.6690469999999991
 31
0
  0
LINE
  5
B0
330
1B
100
AcDbEntity
  8
F.Silkscreen
  6
CONTINUOUS
100
AcDbLine
 10
93.4748189999999965
 20
-56.2404759999999939
 30
0
 11
94.0462469999999939
 21
-56.8119039999999984
 31
0
  0
LINE
  5
B1
330
1B
100
AcDbEntity
  8
F.Silkscreen
  6
CONTINUOUS
100
AcDbLine
 10
62.7881519999999966
 20
-81.1966659999999933
 30
0
 11
62.3119609999999966
 21
-81.5299989999999895
 31
0
  0
LINE
  5
B2
330
1B
100
AcDbEntity
  8
F.Silkscreen
  6
CONTINUOUS
100
AcDbLine
 10
62.7881519999999966
 20
-81.7680939999999907
 30
0
 11
61.7881519999999966
 21
-81.7680939999999907
 31
0
  0
LINE
  5
B3
330
1B
100
AcDbEntity
  8
F.Silkscreen
  6
CONTINUOUS
100
AcDbLine
 10
61.7881519999999966
 20
-81.7680939999999907
 30
0
 11
61.7881519999999966
 21
-81.3871419999999972
 31
0
  0
LINE
  5
B4
330
1B
100
AcDbEntity
  8
F.Silkscreen
  6
CONTINUOUS
100
AcDbLine
 10
61.7881519999999966
 20
-81.3871419999999972
 30
0
 11
61.835770999999994
 21
-81.2919040000000024
 31
0
  0
LINE
  5
B5
330
1B
100
AcDbEntity
  8
F.Silkscreen
  6
CONTINUOUS
100
AcDbLine
 10
61.835770999999994
 20
-81.2919040000000024
 30
0
 11
61.8833899999999986
 21
-81.2442849999999908
 31
0
  0
LINE
  5
B6
330
1B
100
AcDbEntity
  8
F.Silkscreen
  6
CONTINUOUS
100
AcDbLine
 10
61.8833899999999986
 20
-81.2442849999999908
 30
0
 11
61.9786280000000005
 21
-81.1966659999999933
 31
0
  0
LINE
  5
B7
330
1B
100
AcDbEntity
  8
F.Silkscreen
  6
CONTINUOUS
100
AcDbLine
 10
61.9786280000000005
 20
-81.1966659999999933
 30
0
 11
62.1214849999999998
 21
-81.1966659999999933
 31
0
  0
LINE
  5
B8
330
1B
100
AcDbEntity
  8
F.Silkscreen
  6
CONTINUOUS
100
AcDbLine
 10
62.1214849999999998
 20
-81.1966659999999933
 30
0
 11
62.2167229999999947
 21
-81.2442849999999908
 31
0
  0
LINE
  5
B9
330
1B
100
AcDbEntity
  8
F.Silkscreen
  6
CONTINUOUS
100
AcDbLine
 10
62.2167229999999947
 20
-81.2442849999999908
 30
0
 11
62.2643419999999992
 21
-81.2919040000000024
 31
0
  0
LINE
  5
BA
330
1B
100
AcDbEntity
  8
F.Silkscreen
  6
CONTINUOUS
100
AcDbLine
 10
62.2643419999999992
 20
-81.2919040000000024
 30
0
 11
62.3119609999999966
 21
-81.3871419999999972
 31
0
  0
LINE
  5
BB
330
1B
100
AcDbEntity
  8
F.Silkscreen
  6
CONTINUOUS
100
AcDbLine
 10
62.3119609999999966
 20
-81.3871419999999972
 30
0
 11
62.3119609999999966
 21
-81.7680939999999907
 31
0
  0
LINE
  5
BC
330
1B
100
AcDbEntity
  8
F.Silkscreen
  6
CONTINUOUS
100
AcDbLine
 10
61.7881519999999966
 20
-80.8633319999999998
 30
0
 11
61.7881519999999966
 21
-80.2442849999999908
 31
0
  0
LINE
  5
BD
330
1B
100
AcDbEntity
  8
F.Silkscreen
  6
CONTINUOUS
100
AcDbLine
 10
61.7881519999999966
 20
-80.2442849999999908
 30
0
 11
62.1691039999999973
 21
-80.5776180000000011
 31
0
  0
LINE
  5
BE
330
1B
100
AcDbEntity
  8
F.Silkscreen
  6
CONTINUOUS
100
AcDbLine
 10
62.1691039999999973
 20
-80.5776180000000011
 30
0
 11
62.1691039999999973
 21
-80.4347609999999946
 31
0
  0
LINE
  5
BF
330
1B
100
AcDbEntity
  8
F.Silkscreen
  6
CONTINUOUS
100
AcDbLine
 10
62.1691039999999973
 20
-80.4347609999999946
 30
0
 11
62.2167229999999947
 21
-80.3395229999999998
 31
0
  0
LINE
  5
C0
330
1B
100
AcDbEntity
  8
F.Silkscreen
  6
CONTINUOUS
100
AcDbLine
 10
62.2167229999999947
 20
-80.3395229999999998
 30
0
 11
62.2643419999999992
 21
-80.2919040000000024
 31
0
  0
LINE
  5
C1
330
1B
100
AcDbEntity
  8
F.Silkscreen
  6
CONTINUOUS
100
AcDbLine
 10
62.2643419999999992
 20
-80.2919040000000024
 30
0
 11
62.359579999999994
 21
-80.2442849999999908
 31
0
  0
LINE
  5
C2
330
1B
100
AcDbEntity
  8
F.Silkscreen
  6
CONTINUOUS
100
AcDbLine
 10
62.359579999999994
 20
-80.2442849999999908
 30
0
 11
62.5976749999999953
 21
-80.2442849999999908
 31
0
  0
LINE
  5
C3
330
1B
100
AcDbEntity
  8
F.Silkscreen
  6
CONTINUOUS
100
AcDbLine
 10
62.5976749999999953
 20
-80.2442849999999908
 30
0
 11
62.6929129999999972
 21
-80.2919040000000024
 31
0
  0
LINE
  5
C4
330
1B
100
AcDbEntity
  8
F.Silkscreen
  6
CONTINUOUS
100
AcDbLine
 10
62.6929129999999972
 20
-80.2919040000000024
 30
0
 11
62.7405329999999992
 21
-80.3395229999999998
 31
0
  0
LINE
  5
C5
330
1B
100
AcDbEntity
  8
F.Silkscreen
  6
CONTINUOUS
100
AcDbLine
 10
62.7405329999999992
 20
-80.3395229999999998
 30
0
 11
62.7881519999999966
 21
-80.4347609999999946
 31
0
  0
LINE
  5
C6
330
1B
100
AcDbEntity
  8
F.Silkscreen
  6
CONTINUOUS
100
AcDbLine
 10
62.7881519999999966
 20
-80.4347609999999946
 30
0
 11
62.7881519999999966
 21
-80.7204749999999933
 31
0
  0
LINE
  5
C7
330
1B
100
AcDbEntity
  8
F.Silkscreen
  6
CONTINUOUS
100
AcDbLine
 10
62.7881519999999966
 20
-80.7204749999999933
 30
0
 11
62.7405329999999992
 21
-80.8157130000000024
 31
0
  0
LINE
  5
C8
330
1B
100
AcDbEntity
  8
F.Silkscreen
  6
CONTINUOUS
100
AcDbLine
 10
62.7405329999999992
 20
-80.8157130000000024
 30
0
 11
62.6929129999999972
 21
-80.8633319999999998
 31
0
  0
LINE
  5
C9
330
1B
100
AcDbEntity
  8
F.Silkscreen
  6
CONTINUOUS
100
AcDbLine
 10
69.9214849999999899
 20
-81.1966659999999933
 30
0
 11
69.4452939999999899
 21
-81.5299989999999895
 31
0
  0
LINE
  5
CA
330
1B
100
AcDbEntity
  8
F.Silkscreen
  6
CONTINUOUS
100
AcDbLine
 10
69.9214849999999899
 20
-81.7680939999999907
 30
0
 11
68.9214849999999899
 21
-81.7680939999999907
 31
0
  0
LINE
  5
CB
330
1B
100
AcDbEntity
  8
F.Silkscreen
  6
CONTINUOUS
100
AcDbLine
 10
68.9214849999999899
 20
-81.7680939999999907
 30
0
 11
68.9214849999999899
 21
-81.3871419999999972
 31
0
  0
LINE
  5
CC
330
1B
100
AcDbEntity
  8
F.Silkscreen
  6
CONTINUOUS
100
AcDbLine
 10
68.9214849999999899
 20
-81.3871419999999972
 30
0
 11
68.9691040000000015
 21
-81.2919040000000024
 31
0
  0
LINE
  5
CD
330
1B
100
AcDbEntity
  8
F.Silkscreen
  6
CONTINUOUS
100
AcDbLine
 10
68.9691040000000015
 20
-81.2919040000000024
 30
0
 11
69.0167229999999989
 21
-81.2442849999999908
 31
0
  0
LINE
  5
CE
330
1B
100
AcDbEntity
  8
F.Silkscreen
  6
CONTINUOUS
100
AcDbLine
 10
69.0167229999999989
 20
-81.2442849999999908
 30
0
 11
69.1119609999999938
 21
-81.1966659999999933
 31
0
  0
LINE
  5
CF
330
1B
100
AcDbEntity
  8
F.Silkscreen
  6
CONTINUOUS
100
AcDbLine
 10
69.1119609999999938
 20
-81.1966659999999933
 30
0
 11
69.2548180000000002
 21
-81.1966659999999933
 31
0
  0
LINE
  5
D0
330
1B
100
AcDbEntity
  8
F.Silkscreen
  6
CONTINUOUS
100
AcDbLine
 10
69.2548180000000002
 20
-81.1966659999999933
 30
0
 11
69.350055999999995
 21
-81.2442849999999908
 31
0
  0
LINE
  5
D1
330
1B
100
AcDbEntity
  8
F.Silkscreen
  6
CONTINUOUS
100
AcDbLine
 10
69.350055999999995
 20
-81.2442849999999908
 30
0
 11
69.3976749999999925
 21
-81.2919040000000024
 31
0
  0
LINE
  5
D2
330
1B
100
AcDbEntity
  8
F.Silkscreen
  6
CONTINUOUS
100
AcDbLine
 10
69.3976749999999925
 20
-81.2919040000000024
 30
0
 11
69.4452939999999899
 21
-81.3871419999999972
 31
0
  0
LINE
  5
D3
330
1B
100
AcDbEntity
  8
F.Silkscreen
  6
CONTINUOUS
100
AcDbLine
 10
69.4452939999999899
 20
-81.3871419999999972
 30
0
 11
69.4452939999999899
 21
-81.7680939999999907
 31
0
  0
LINE
  5
D4
330
1B
100
AcDbEntity
  8
F.Silkscreen
  6
CONTINUOUS
100
AcDbLine
 10
69.2548180000000002
 20
-80.3395229999999998
 30
0
 11
69.9214849999999899
 21
-80.3395229999999998
 31
0
  0
LINE
  5
D5
330
1B
100
AcDbEntity
  8
F.Silkscreen
  6
CONTINUOUS
100
AcDbLine
 10
68.8738659999999925
 20
-80.5776180000000011
 30
0
 11
69.5881509999999963
 21
-80.8157130000000024
 31
0
  0
LINE
  5
D6
330
1B
100
AcDbEntity
  8
F.Silkscreen
  6
CONTINUOUS
100
AcDbLine
 10
69.5881509999999963
 20
-80.8157130000000024
 30
0
 11
69.5881509999999963
 21
-80.1966659999999933
 31
0
  0
LINE
  5
D7
330
1B
100
AcDbEntity
  8
F.Silkscreen
  6
CONTINUOUS
100
AcDbLine
 10
81.3947610000000026
 20
-67.0500569999999954
 30
0
 11
81.2995229999999935
 21
-67.0024379999999979
 31
0
  0
LINE
  5
D8
330
1B
100
AcDbEntity
  8
F.Silkscreen
  6
CONTINUOUS
100
AcDbLine
 10
81.2995229999999935
 20
-67.0024379999999979
 30
0
 11
81.2042849999999987
 21
-66.9072000000000031
 31
0
  0
LINE
  5
D9
330
1B
100
AcDbEntity
  8
F.Silkscreen
  6
CONTINUOUS
100
AcDbLine
 10
81.2042849999999987
 20
-66.9072000000000031
 30
0
 11
81.0614279999999923
 21
-66.7643419999999992
 31
0
  0
LINE
  5
DA
330
1B
100
AcDbEntity
  8
F.Silkscreen
  6
CONTINUOUS
100
AcDbLine
 10
81.0614279999999923
 20
-66.7643419999999992
 30
0
 11
80.9661899999999974
 21
-66.7167230000000018
 31
0
  0
LINE
  5
DB
330
1B
100
AcDbEntity
  8
F.Silkscreen
  6
CONTINUOUS
100
AcDbLine
 10
80.9661899999999974
 20
-66.7167230000000018
 30
0
 11
80.8709520000000026
 21
-66.7167230000000018
 31
0
  0
LINE
  5
DC
330
1B
100
AcDbEntity
  8
F.Silkscreen
  6
CONTINUOUS
100
AcDbLine
 10
80.918571
 20
-66.9548190000000005
 30
0
 11
80.823332999999991
 21
-66.9072000000000031
 31
0
  0
LINE
  5
DD
330
1B
100
AcDbEntity
  8
F.Silkscreen
  6
CONTINUOUS
100
AcDbLine
 10
80.823332999999991
 20
-66.9072000000000031
 30
0
 11
80.7280949999999962
 21
-66.8119609999999966
 31
0
  0
LINE
  5
DE
330
1B
100
AcDbEntity
  8
F.Silkscreen
  6
CONTINUOUS
100
AcDbLine
 10
80.7280949999999962
 20
-66.8119609999999966
 30
0
 11
80.6804759999999987
 21
-66.6214849999999927
 31
0
  0
LINE
  5
DF
330
1B
100
AcDbEntity
  8
F.Silkscreen
  6
CONTINUOUS
100
AcDbLine
 10
80.6804759999999987
 20
-66.6214849999999927
 30
0
 11
80.6804759999999987
 21
-66.2881519999999966
 31
0
  0
LINE
  5
E0
330
1B
100
AcDbEntity
  8
F.Silkscreen
  6
CONTINUOUS
100
AcDbLine
 10
80.6804759999999987
 20
-66.2881519999999966
 30
0
 11
80.7280949999999962
 21
-66.0976759999999928
 31
0
  0
LINE
  5
E1
330
1B
100
AcDbEntity
  8
F.Silkscreen
  6
CONTINUOUS
100
AcDbLine
 10
80.7280949999999962
 20
-66.0976759999999928
 30
0
 11
80.823332999999991
 21
-66.0024379999999979
 31
0
  0
LINE
  5
E2
330
1B
100
AcDbEntity
  8
F.Silkscreen
  6
CONTINUOUS
100
AcDbLine
 10
80.823332999999991
 20
-66.0024379999999979
 30
0
 11
80.918571
 21
-65.9548190000000005
 31
0
  0
LINE
  5
E3
330
1B
100
AcDbEntity
  8
F.Silkscreen
  6
CONTINUOUS
100
AcDbLine
 10
80.918571
 20
-65.9548190000000005
 30
0
 11
81.1090469999999897
 21
-65.9548190000000005
 31
0
  0
LINE
  5
E4
330
1B
100
AcDbEntity
  8
F.Silkscreen
  6
CONTINUOUS
100
AcDbLine
 10
81.1090469999999897
 20
-65.9548190000000005
 30
0
 11
81.2042849999999987
 21
-66.0024379999999979
 31
0
  0
LINE
  5
E5
330
1B
100
AcDbEntity
  8
F.Silkscreen
  6
CONTINUOUS
100
AcDbLine
 10
81.2042849999999987
 20
-66.0024379999999979
 30
0
 11
81.2995229999999935
 21
-66.0976759999999928
 31
0
  0
LINE
  5
E6
330
1B
100
AcDbEntity
  8
F.Silkscreen
  6
CONTINUOUS
100
AcDbLine
 10
81.2995229999999935
 20
-66.0976759999999928
 30
0
 11
81.347141999999991
 21
-66.2881519999999966
 31
0
  0
LINE
  5
E7
330
1B
100
AcDbEntity
  8
F.Silkscreen
  6
CONTINUOUS
100
AcDbLine
 10
81.347141999999991
 20
-66.2881519999999966
 30
0
 11
81.347141999999991
 21
-66.6214849999999927
 31
0
  0
LINE
  5
E8
330
1B
100
AcDbEntity
  8
F.Silkscreen
  6
CONTINUOUS
100
AcDbLine
 10
81.347141999999991
 20
-66.6214849999999927
 30
0
 11
81.2995229999999935
 21
-66.8119609999999966
 31
0
  0
LINE
  5
E9
330
1B
100
AcDbEntity
  8
F.Silkscreen
  6
CONTINUOUS
100
AcDbLine
 10
81.2995229999999935
 20
-66.8119609999999966
 30
0
 11
81.2042849999999987
 21
-66.9072000000000031
 31
0
  0
LINE
  5
EA
330
1B
100
AcDbEntity
  8
F.Silkscreen
  6
CONTINUOUS
100
AcDbLine
 10
81.2042849999999987
 20
-66.9072000000000031
 30
0
 11
81.1090469999999897
 21
-66.9548190000000005
 31
0
  0
LINE
  5
EB
330
1B
100
AcDbEntity
  8
F.Silkscreen
  6
CONTINUOUS
100
AcDbLine
 10
81.1090469999999897
 20
-66.9548190000000005
 30
0
 11
80.918571
 21
-66.9548190000000005
 31
0
  0
LINE
  5
EC
330
1B
100
AcDbEntity
  8
F.Silkscreen
  6
CONTINUOUS
100
AcDbLine
 10
82.2995229999999935
 20
-66.9548190000000005
 30
0
 11
81.7280949999999962
 21
-66.9548190000000005
 31
0
  0
LINE
  5
ED
330
1B
100
AcDbEntity
  8
F.Silkscreen
  6
CONTINUOUS
100
AcDbLine
 10
82.0138089999999949
 20
-66.9548190000000005
 30
0
 11
82.0138089999999949
 21
-65.9548190000000005
 31
0
  0
LINE
  5
EE
330
1B
100
AcDbEntity
  8
F.Silkscreen
  6
CONTINUOUS
100
AcDbLine
 10
82.0138089999999949
 20
-65.9548190000000005
 30
0
 11
81.918571
 21
-66.0976759999999928
 31
0
  0
LINE
  5
EF
330
1B
100
AcDbEntity
  8
F.Silkscreen
  6
CONTINUOUS
100
AcDbLine
 10
81.918571
 20
-66.0976759999999928
 30
0
 11
81.823332999999991
 21
-66.1929140000000018
 31
0
  0
LINE
  5
F0
330
1B
100
AcDbEntity
  8
F.Silkscreen
  6
CONTINUOUS
100
AcDbLine
 10
81.823332999999991
 20
-66.1929140000000018
 30
0
 11
81.7280949999999962
 21
-66.2405329999999992
 31
0
  0
LINE
  5
F1
330
1B
100
AcDbEntity
  8
F.Silkscreen
  6
CONTINUOUS
100
AcDbLine
 10
109.4195799999999963
 20
-61.4366659999999953
 30
0
 11
109.4671999999999912
 21
-61.4842849999999999
 31
0
  0
LINE
  5
F2
330
1B
100
AcDbEntity
  8
F.Silkscreen
  6
CONTINUOUS
100
AcDbLine
 10
109.4671999999999912
 20
-61.4842849999999999
 30
0
 11
109.5148189999999886
 21
-61.6271419999999992
 31
0
  0
LINE
  5
F3
330
1B
100
AcDbEntity
  8
F.Silkscreen
  6
CONTINUOUS
100
AcDbLine
 10
109.5148189999999886
 20
-61.6271419999999992
 30
0
 11
109.5148189999999886
 21
-61.722379999999994
 31
0
  0
LINE
  5
F4
330
1B
100
AcDbEntity
  8
F.Silkscreen
  6
CONTINUOUS
100
AcDbLine
 10
109.5148189999999886
 20
-61.722379999999994
 30
0
 11
109.4671999999999912
 21
-61.8652370000000005
 31
0
  0
LINE
  5
F5
330
1B
100
AcDbEntity
  8
F.Silkscreen
  6
CONTINUOUS
100
AcDbLine
 10
109.4671999999999912
 20
-61.8652370000000005
 30
0
 11
109.3719609999999989
 21
-61.9604749999999953
 31
0
  0
LINE
  5
F6
330
1B
100
AcDbEntity
  8
F.Silkscreen
  6
CONTINUOUS
100
AcDbLine
 10
109.3719609999999989
 20
-61.9604749999999953
 30
0
 11
109.2767229999999898
 21
-62.0080939999999998
 31
0
  0
LINE
  5
F7
330
1B
100
AcDbEntity
  8
F.Silkscreen
  6
CONTINUOUS
100
AcDbLine
 10
109.2767229999999898
 20
-62.0080939999999998
 30
0
 11
109.0862470000000002
 21
-62.0557129999999972
 31
0
  0
LINE
  5
F8
330
1B
100
AcDbEntity
  8
F.Silkscreen
  6
CONTINUOUS
100
AcDbLine
 10
109.0862470000000002
 20
-62.0557129999999972
 30
0
 11
108.9433899999999937
 21
-62.0557129999999972
 31
0
  0
LINE
  5
F9
330
1B
100
AcDbEntity
  8
F.Silkscreen
  6
CONTINUOUS
100
AcDbLine
 10
108.9433899999999937
 20
-62.0557129999999972
 30
0
 11
108.7529139999999899
 21
-62.0080939999999998
 31
0
  0
LINE
  5
FA
330
1B
100
AcDbEntity
  8
F.Silkscreen
  6
CONTINUOUS
100
AcDbLine
 10
108.7529139999999899
 20
-62.0080939999999998
 30
0
 11
108.657675999999995
 21
-61.9604749999999953
 31
0
  0
LINE
  5
FB
330
1B
100
AcDbEntity
  8
F.Silkscreen
  6
CONTINUOUS
100
AcDbLine
 10
108.657675999999995
 20
-61.9604749999999953
 30
0
 11
108.5624380000000002
 21
-61.8652370000000005
 31
0
  0
LINE
  5
FC
330
1B
100
AcDbEntity
  8
F.Silkscreen
  6
CONTINUOUS
100
AcDbLine
 10
108.5624380000000002
 20
-61.8652370000000005
 30
0
 11
108.5148189999999886
 21
-61.722379999999994
 31
0
  0
LINE
  5
FD
330
1B
100
AcDbEntity
  8
F.Silkscreen
  6
CONTINUOUS
100
AcDbLine
 10
108.5148189999999886
 20
-61.722379999999994
 30
0
 11
108.5148189999999886
 21
-61.6271419999999992
 31
0
  0
LINE
  5
FE
330
1B
100
AcDbEntity
  8
F.Silkscreen
  6
CONTINUOUS
100
AcDbLine
 10
108.5148189999999886
 20
-61.6271419999999992
 30
0
 11
108.5624380000000002
 21
-61.4842849999999999
 31
0
  0
LINE
  5
FF
330
1B
100
AcDbEntity
  8
F.Silkscreen
  6
CONTINUOUS
100
AcDbLine
 10
108.5624380000000002
 20
-61.4842849999999999
 30
0
 11
108.6100569999999976
 21
-61.4366659999999953
 31
0
  0
LINE
  5
100
330
1B
100
AcDbEntity
  8
F.Silkscreen
  6
CONTINUOUS
100
AcDbLine
 10
108.6100569999999976
 20
-61.0557129999999972
 30
0
 11
108.5624380000000002
 21
-61.0080939999999998
 31
0
  0
LINE
  5
101
330
1B
100
AcDbEntity
  8
F.Silkscreen
  6
CONTINUOUS
100
AcDbLine
 10
108.5624380000000002
 20
-61.0080939999999998
 30
0
 11
108.5148189999999886
 21
-60.9128559999999979
 31
0
  0
LINE
  5
102
330
1B
100
AcDbEntity
  8
F.Silkscreen
  6
CONTINUOUS
100
AcDbLine
 10
108.5148189999999886
 20
-60.9128559999999979
 30
0
 11
108.5148189999999886
 21
-60.6747609999999966
 31
0
  0
LINE
  5
103
330
1B
100
AcDbEntity
  8
F.Silkscreen
  6
CONTINUOUS
100
AcDbLine
 10
108.5148189999999886
 20
-60.6747609999999966
 30
0
 11
108.5624380000000002
 21
-60.5795229999999947
 31
0
  0
LINE
  5
104
330
1B
100
AcDbEntity
  8
F.Silkscreen
  6
CONTINUOUS
100
AcDbLine
 10
108.5624380000000002
 20
-60.5795229999999947
 30
0
 11
108.6100569999999976
 21
-60.5319039999999973
 31
0
  0
LINE
  5
105
330
1B
100
AcDbEntity
  8
F.Silkscreen
  6
CONTINUOUS
100
AcDbLine
 10
108.6100569999999976
 20
-60.5319039999999973
 30
0
 11
108.7052949999999925
 21
-60.4842849999999999
 31
0
  0
LINE
  5
106
330
1B
100
AcDbEntity
  8
F.Silkscreen
  6
CONTINUOUS
100
AcDbLine
 10
108.7052949999999925
 20
-60.4842849999999999
 30
0
 11
108.8005330000000015
 21
-60.4842849999999999
 31
0
  0
LINE
  5
107
330
1B
100
AcDbEntity
  8
F.Silkscreen
  6
CONTINUOUS
100
AcDbLine
 10
108.8005330000000015
 20
-60.4842849999999999
 30
0
 11
108.9433899999999937
 21
-60.5319039999999973
 31
0
  0
LINE
  5
108
330
1B
100
AcDbEntity
  8
F.Silkscreen
  6
CONTINUOUS
100
AcDbLine
 10
108.9433899999999937
 20
-60.5319039999999973
 30
0
 11
109.5148189999999886
 21
-61.1033319999999947
 31
0
  0
LINE
  5
109
330
1B
100
AcDbEntity
  8
F.Silkscreen
  6
CONTINUOUS
100
AcDbLine
 10
109.5148189999999886
 20
-61.1033319999999947
 30
0
 11
109.5148189999999886
 21
-60.4842849999999999
 31
0
  0
LINE
  5
10A
330
1B
100
AcDbEntity
  8
F.Silkscreen
  6
CONTINUOUS
100
AcDbLine
 10
99.3180949999999996
 20
-68.9148189999999943
 30
0
 11
99.3180949999999996
 21
-69.7243419999999929
 31
0
  0
LINE
  5
10B
330
1B
100
AcDbEntity
  8
F.Silkscreen
  6
CONTINUOUS
100
AcDbLine
 10
99.3180949999999996
 20
-69.7243419999999929
 30
0
 11
99.365713999999997
 21
-69.819580000000002
 31
0
  0
LINE
  5
10C
330
1B
100
AcDbEntity
  8
F.Silkscreen
  6
CONTINUOUS
100
AcDbLine
 10
99.365713999999997
 20
-69.819580000000002
 30
0
 11
99.4133329999999944
 21
-69.8671999999999969
 31
0
  0
LINE
  5
10D
330
1B
100
AcDbEntity
  8
F.Silkscreen
  6
CONTINUOUS
100
AcDbLine
 10
99.4133329999999944
 20
-69.8671999999999969
 30
0
 11
99.5085709999999892
 21
-69.9148189999999943
 31
0
  0
LINE
  5
10E
330
1B
100
AcDbEntity
  8
F.Silkscreen
  6
CONTINUOUS
100
AcDbLine
 10
99.5085709999999892
 20
-69.9148189999999943
 30
0
 11
99.6990469999999931
 21
-69.9148189999999943
 31
0
  0
LINE
  5
10F
330
1B
100
AcDbEntity
  8
F.Silkscreen
  6
CONTINUOUS
100
AcDbLine
 10
99.6990469999999931
 20
-69.9148189999999943
 30
0
 11
99.7942850000000021
 21
-69.8671999999999969
 31
0
  0
LINE
  5
110
330
1B
100
AcDbEntity
  8
F.Silkscreen
  6
CONTINUOUS
100
AcDbLine
 10
99.7942850000000021
 20
-69.8671999999999969
 30
0
 11
99.8419039999999995
 21
-69.819580000000002
 31
0
  0
LINE
  5
111
330
1B
100
AcDbEntity
  8
F.Silkscreen
  6
CONTINUOUS
100
AcDbLine
 10
99.8419039999999995
 20
-69.819580000000002
 30
0
 11
99.889522999999997
 21
-69.7243419999999929
 31
0
  0
LINE
  5
112
330
1B
100
AcDbEntity
  8
F.Silkscreen
  6
CONTINUOUS
100
AcDbLine
 10
99.889522999999997
 20
-69.7243419999999929
 30
0
 11
99.889522999999997
 21
-68.9148189999999943
 31
0
  0
LINE
  5
113
330
1B
100
AcDbEntity
  8
F.Silkscreen
  6
CONTINUOUS
100
AcDbLine
 10
100.3180949999999996
 20
-69.0100570000000033
 30
0
 11
100.365713999999997
 21
-68.9624379999999917
 31
0
  0
LINE
  5
114
330
1B
100
AcDbEntity
  8
F.Silkscreen
  6
CONTINUOUS
100
AcDbLine
 10
100.365713999999997
 20
-68.9624379999999917
 30
0
 11
100.4609519999999918
 21
-68.9148189999999943
 31
0
  0
LINE
  5
115
330
1B
100
AcDbEntity
  8
F.Silkscreen
  6
CONTINUOUS
100
AcDbLine
 10
100.4609519999999918
 20
-68.9148189999999943
 30
0
 11
100.6990469999999931
 21
-68.9148189999999943
 31
0
  0
LINE
  5
116
330
1B
100
AcDbEntity
  8
F.Silkscreen
  6
CONTINUOUS
100
AcDbLine
 10
100.6990469999999931
 20
-68.9148189999999943
 30
0
 11
100.7942850000000021
 21
-68.9624379999999917
 31
0
  0
LINE
  5
117
330
1B
100
AcDbEntity
  8
F.Silkscreen
  6
CONTINUOUS
100
AcDbLine
 10
100.7942850000000021
 20
-68.9624379999999917
 30
0
 11
100.8419039999999995
 21
-69.0100570000000033
 31
0
  0
LINE
  5
118
330
1B
100
AcDbEntity
  8
F.Silkscreen
  6
CONTINUOUS
100
AcDbLine
 10
100.8419039999999995
 20
-69.0100570000000033
 30
0
 11
100.889522999999997
 21
-69.1052949999999981
 31
0
  0
LINE
  5
119
330
1B
100
AcDbEntity
  8
F.Silkscreen
  6
CONTINUOUS
100
AcDbLine
 10
100.889522999999997
 20
-69.1052949999999981
 30
0
 11
100.889522999999997
 21
-69.200532999999993
 31
0
  0
LINE
  5
11A
330
1B
100
AcDbEntity
  8
F.Silkscreen
  6
CONTINUOUS
100
AcDbLine
 10
100.889522999999997
 20
-69.200532999999993
 30
0
 11
100.8419039999999995
 21
-69.3433899999999994
 31
0
  0
LINE
  5
11B
330
1B
100
AcDbEntity
  8
F.Silkscreen
  6
CONTINUOUS
100
AcDbLine
 10
100.8419039999999995
 20
-69.3433899999999994
 30
0
 11
100.2704760000000022
 21
-69.9148189999999943
 31
0
  0
LINE
  5
11C
330
1B
100
AcDbEntity
  8
F.Silkscreen
  6
CONTINUOUS
100
AcDbLine
 10
100.2704760000000022
 20
-69.9148189999999943
 30
0
 11
100.889522999999997
 21
-69.9148189999999943
 31
0
  0
LINE
  5
11D
330
1B
100
AcDbEntity
  8
F.Silkscreen
  6
CONTINUOUS
100
AcDbLine
 10
58.3780949999999947
 20
-66.5548189999999948
 30
0
 11
58.3780949999999947
 21
-67.3643419999999935
 31
0
  0
LINE
  5
11E
330
1B
100
AcDbEntity
  8
F.Silkscreen
  6
CONTINUOUS
100
AcDbLine
 10
58.3780949999999947
 20
-67.3643419999999935
 30
0
 11
58.4257139999999993
 21
-67.4595800000000025
 31
0
  0
LINE
  5
11F
330
1B
100
AcDbEntity
  8
F.Silkscreen
  6
CONTINUOUS
100
AcDbLine
 10
58.4257139999999993
 20
-67.4595800000000025
 30
0
 11
58.4733329999999967
 21
-67.5071999999999974
 31
0
  0
LINE
  5
120
330
1B
100
AcDbEntity
  8
F.Silkscreen
  6
CONTINUOUS
100
AcDbLine
 10
58.4733329999999967
 20
-67.5071999999999974
 30
0
 11
58.5685709999999986
 21
-67.5548189999999948
 31
0
  0
LINE
  5
121
330
1B
100
AcDbEntity
  8
F.Silkscreen
  6
CONTINUOUS
100
AcDbLine
 10
58.5685709999999986
 20
-67.5548189999999948
 30
0
 11
58.7590469999999954
 21
-67.5548189999999948
 31
0
  0
LINE
  5
122
330
1B
100
AcDbEntity
  8
F.Silkscreen
  6
CONTINUOUS
100
AcDbLine
 10
58.7590469999999954
 20
-67.5548189999999948
 30
0
 11
58.8542849999999973
 21
-67.5071999999999974
 31
0
  0
LINE
  5
123
330
1B
100
AcDbEntity
  8
F.Silkscreen
  6
CONTINUOUS
100
AcDbLine
 10
58.8542849999999973
 20
-67.5071999999999974
 30
0
 11
58.9019039999999947
 21
-67.4595800000000025
 31
0
  0
LINE
  5
124
330
1B
100
AcDbEntity
  8
F.Silkscreen
  6
CONTINUOUS
100
AcDbLine
 10
58.9019039999999947
 20
-67.4595800000000025
 30
0
 11
58.9495229999999992
 21
-67.3643419999999935
 31
0
  0
LINE
  5
125
330
1B
100
AcDbEntity
  8
F.Silkscreen
  6
CONTINUOUS
100
AcDbLine
 10
58.9495229999999992
 20
-67.3643419999999935
 30
0
 11
58.9495229999999992
 21
-66.5548189999999948
 31
0
  0
LINE
  5
126
330
1B
100
AcDbEntity
  8
F.Silkscreen
  6
CONTINUOUS
100
AcDbLine
 10
59.9495229999999992
 20
-67.5548189999999948
 30
0
 11
59.3780949999999947
 21
-67.5548189999999948
 31
0
  0
LINE
  5
127
330
1B
100
AcDbEntity
  8
F.Silkscreen
  6
CONTINUOUS
100
AcDbLine
 10
59.6638090000000005
 20
-67.5548189999999948
 30
0
 11
59.6638090000000005
 21
-66.5548189999999948
 31
0
  0
LINE
  5
128
330
1B
100
AcDbEntity
  8
F.Silkscreen
  6
CONTINUOUS
100
AcDbLine
 10
59.6638090000000005
 20
-66.5548189999999948
 30
0
 11
59.5685709999999986
 21
-66.6976760000000013
 31
0
  0
LINE
  5
129
330
1B
100
AcDbEntity
  8
F.Silkscreen
  6
CONTINUOUS
100
AcDbLine
 10
59.5685709999999986
 20
-66.6976760000000013
 30
0
 11
59.4733329999999967
 21
-66.7929139999999961
 31
0
  0
LINE
  5
12A
330
1B
100
AcDbEntity
  8
F.Silkscreen
  6
CONTINUOUS
100
AcDbLine
 10
59.4733329999999967
 20
-66.7929139999999961
 30
0
 11
59.3780949999999947
 21
-66.8405329999999935
 31
0
  0
LINE
  5
12B
330
1B
100
AcDbEntity
  8
F.Silkscreen
  6
CONTINUOUS
100
AcDbLine
 10
68.914999999999992
 20
-48.4699999999999989
 30
0
 11
68.914999999999992
 21
-51.2299999999999969
 31
0
  0
LINE
  5
12C
330
1B
100
AcDbEntity
  8
F.Silkscreen
  6
CONTINUOUS
100
AcDbLine
 10
71.5649999999999977
 20
-48.4699999999999989
 30
0
 11
68.914999999999992
 21
-48.4699999999999989
 31
0
  0
LINE
  5
12D
330
1B
100
AcDbEntity
  8
F.Silkscreen
  6
CONTINUOUS
100
AcDbLine
 10
71.5649999999999977
 20
-48.4699999999999989
 30
0
 11
71.5649999999999977
 21
-51.2299999999999969
 31
0
  0
LINE
  5
12E
330
1B
100
AcDbEntity
  8
F.Silkscreen
  6
CONTINUOUS
100
AcDbLine
 10
71.5649999999999977
 20
-51.2299999999999969
 30
0
 11
68.914999999999992
 21
-51.2299999999999969
 31
0
  0
LINE
  5
12F
330
1B
100
AcDbEntity
  8
F.Silkscreen
  6
CONTINUOUS
100
AcDbLine
 10
72.8349999999999937
 20
-48.4699999999999989
 30
0
 11
74.2150000000000034
 21
-48.4699999999999989
 31
0
  0
LINE
  5
130
330
1B
100
AcDbEntity
  8
F.Silkscreen
  6
CONTINUOUS
100
AcDbLine
 10
74.2150000000000034
 20
-48.4699999999999989
 30
0
 11
74.2150000000000034
 21
-49.8499999999999943
 31
0
  0
LINE
  5
131
330
1B
100
AcDbEntity
  8
F.Silkscreen
  6
CONTINUOUS
100
AcDbLine
 10
98.3203019999999981
 20
-58.5649999999999977
 30
0
 11
99.1203019999999952
 21
-58.5649999999999977
 31
0
  0
LINE
  5
132
330
1B
100
AcDbEntity
  8
F.Silkscreen
  6
CONTINUOUS
100
AcDbLine
 10
98.7203019999999896
 20
-58.1649999999999991
 30
0
 11
98.7203019999999896
 21
-58.9649999999999963
 31
0
  0
LINE
  5
133
330
1B
100
AcDbEntity
  8
F.Silkscreen
  6
CONTINUOUS
100
AcDbLine
 10
102.7299999999999898
 20
-56.7999999999999972
 30
0
 11
102.7299999999999898
 21
-64.9599999999999937
 31
0
  0
LINE
  5
134
330
1B
100
AcDbEntity
  8
F.Silkscreen
  6
CONTINUOUS
100
AcDbLine
 10
102.769999999999996
 20
-56.7999999999999972
 30
0
 11
102.769999999999996
 21
-64.9599999999999937
 31
0
  0
LINE
  5
135
330
1B
100
AcDbEntity
  8
F.Silkscreen
  6
CONTINUOUS
100
AcDbLine
 10
102.8100000000000023
 20
-56.8009999999999948
 30
0
 11
102.8100000000000023
 21
-64.9590000000000032
 31
0
  0
LINE
  5
136
330
1B
100
AcDbEntity
  8
F.Silkscreen
  6
CONTINUOUS
100
AcDbLine
 10
102.8499999999999943
 20
-56.8019999999999996
 30
0
 11
102.8499999999999943
 21
-64.9579999999999984
 31
0
  0
LINE
  5
137
330
1B
100
AcDbEntity
  8
F.Silkscreen
  6
CONTINUOUS
100
AcDbLine
 10
102.8900000000000006
 20
-56.8029999999999973
 30
0
 11
102.8900000000000006
 21
-64.9569999999999936
 31
0
  0
LINE
  5
138
330
1B
100
AcDbEntity
  8
F.Silkscreen
  6
CONTINUOUS
100
AcDbLine
 10
102.9299999999999926
 20
-56.8049999999999997
 30
0
 11
102.9299999999999926
 21
-64.9549999999999983
 31
0
  0
LINE
  5
139
330
1B
100
AcDbEntity
  8
F.Silkscreen
  6
CONTINUOUS
100
AcDbLine
 10
102.9699999999999989
 20
-56.8069999999999951
 30
0
 11
102.9699999999999989
 21
-64.953000000000003
 31
0
  0
LINE
  5
13A
330
1B
100
AcDbEntity
  8
F.Silkscreen
  6
CONTINUOUS
100
AcDbLine
 10
103.0099999999999909
 20
-56.8099999999999952
 30
0
 11
103.0099999999999909
 21
-64.9500000000000028
 31
0
  0
LINE
  5
13B
330
1B
100
AcDbEntity
  8
F.Silkscreen
  6
CONTINUOUS
100
AcDbLine
 10
103.0499999999999972
 20
-56.8119999999999976
 30
0
 11
103.0499999999999972
 21
-64.9479999999999933
 31
0
  0
LINE
  5
13C
330
1B
100
AcDbEntity
  8
F.Silkscreen
  6
CONTINUOUS
100
AcDbLine
 10
103.0899999999999892
 20
-56.8159999999999954
 30
0
 11
103.0899999999999892
 21
-64.9440000000000026
 31
0
  0
LINE
  5
13D
330
1B
100
AcDbEntity
  8
F.Silkscreen
  6
CONTINUOUS
100
AcDbLine
 10
103.1299999999999955
 20
-56.8189999999999955
 30
0
 11
103.1299999999999955
 21
-64.9410000000000025
 31
0
  0
LINE
  5
13E
330
1B
100
AcDbEntity
  8
F.Silkscreen
  6
CONTINUOUS
100
AcDbLine
 10
103.1700000000000017
 20
-56.8239999999999981
 30
0
 11
103.1700000000000017
 21
-64.9359999999999928
 31
0
  0
LINE
  5
13F
330
1B
100
AcDbEntity
  8
F.Silkscreen
  6
CONTINUOUS
100
AcDbLine
 10
103.2099999999999937
 20
-56.8279999999999959
 30
0
 11
103.2099999999999937
 21
-64.9320000000000022
 31
0
  0
LINE
  5
140
330
1B
100
AcDbEntity
  8
F.Silkscreen
  6
CONTINUOUS
100
AcDbLine
 10
103.25
 20
-56.8329999999999984
 30
0
 11
103.25
 21
-64.9269999999999925
 31
0
  0
LINE
  5
141
330
1B
100
AcDbEntity
  8
F.Silkscreen
  6
CONTINUOUS
100
AcDbLine
 10
103.289999999999992
 20
-56.838000000000001
 30
0
 11
103.289999999999992
 21
-64.921999999999997
 31
0
  0
LINE
  5
142
330
1B
100
AcDbEntity
  8
F.Silkscreen
  6
CONTINUOUS
100
AcDbLine
 10
103.3299999999999983
 20
-56.8439999999999941
 30
0
 11
103.3299999999999983
 21
-64.9159999999999968
 31
0
  0
LINE
  5
143
330
1B
100
AcDbEntity
  8
F.Silkscreen
  6
CONTINUOUS
100
AcDbLine
 10
103.3699999999999903
 20
-56.8499999999999943
 30
0
 11
103.3699999999999903
 21
-64.9099999999999966
 31
0
  0
LINE
  5
144
330
1B
100
AcDbEntity
  8
F.Silkscreen
  6
CONTINUOUS
100
AcDbLine
 10
103.4099999999999966
 20
-56.8569999999999993
 30
0
 11
103.4099999999999966
 21
-64.9029999999999916
 31
0
  0
LINE
  5
145
330
1B
100
AcDbEntity
  8
F.Silkscreen
  6
CONTINUOUS
100
AcDbLine
 10
103.4499999999999886
 20
-56.8629999999999995
 30
0
 11
103.4499999999999886
 21
-59.8399999999999963
 31
0
  0
LINE
  5
146
330
1B
100
AcDbEntity
  8
F.Silkscreen
  6
CONTINUOUS
100
AcDbLine
 10
103.4499999999999886
 20
-61.9199999999999946
 30
0
 11
103.4499999999999886
 21
-64.8969999999999914
 31
0
  0
LINE
  5
147
330
1B
100
AcDbEntity
  8
F.Silkscreen
  6
CONTINUOUS
100
AcDbLine
 10
103.4899999999999949
 20
-56.8709999999999951
 30
0
 11
103.4899999999999949
 21
-59.8399999999999963
 31
0
  0
LINE
  5
148
330
1B
100
AcDbEntity
  8
F.Silkscreen
  6
CONTINUOUS
100
AcDbLine
 10
103.4899999999999949
 20
-61.9199999999999946
 30
0
 11
103.4899999999999949
 21
-64.8889999999999958
 31
0
  0
LINE
  5
149
330
1B
100
AcDbEntity
  8
F.Silkscreen
  6
CONTINUOUS
100
AcDbLine
 10
103.5300000000000011
 20
-56.8780000000000001
 30
0
 11
103.5300000000000011
 21
-59.8399999999999963
 31
0
  0
LINE
  5
14A
330
1B
100
AcDbEntity
  8
F.Silkscreen
  6
CONTINUOUS
100
AcDbLine
 10
103.5300000000000011
 20
-61.9199999999999946
 30
0
 11
103.5300000000000011
 21
-64.8819999999999908
 31
0
  0
LINE
  5
14B
330
1B
100
AcDbEntity
  8
F.Silkscreen
  6
CONTINUOUS
100
AcDbLine
 10
103.5699999999999932
 20
-56.8870000000000005
 30
0
 11
103.5699999999999932
 21
-59.8399999999999963
 31
0
  0
LINE
  5
14C
330
1B
100
AcDbEntity
  8
F.Silkscreen
  6
CONTINUOUS
100
AcDbLine
 10
103.5699999999999932
 20
-61.9199999999999946
 30
0
 11
103.5699999999999932
 21
-64.8729999999999905
 31
0
  0
LINE
  5
14D
330
1B
100
AcDbEntity
  8
F.Silkscreen
  6
CONTINUOUS
100
AcDbLine
 10
103.6099999999999994
 20
-56.894999999999996
 30
0
 11
103.6099999999999994
 21
-59.8399999999999963
 31
0
  0
LINE
  5
14E
330
1B
100
AcDbEntity
  8
F.Silkscreen
  6
CONTINUOUS
100
AcDbLine
 10
103.6099999999999994
 20
-61.9199999999999946
 30
0
 11
103.6099999999999994
 21
-64.8649999999999949
 31
0
  0
LINE
  5
14F
330
1B
100
AcDbEntity
  8
F.Silkscreen
  6
CONTINUOUS
100
AcDbLine
 10
103.6499999999999915
 20
-56.9039999999999964
 30
0
 11
103.6499999999999915
 21
-59.8399999999999963
 31
0
  0
LINE
  5
150
330
1B
100
AcDbEntity
  8
F.Silkscreen
  6
CONTINUOUS
100
AcDbLine
 10
103.6499999999999915
 20
-61.9199999999999946
 30
0
 11
103.6499999999999915
 21
-64.8559999999999945
 31
0
  0
LINE
  5
151
330
1B
100
AcDbEntity
  8
F.Silkscreen
  6
CONTINUOUS
100
AcDbLine
 10
103.6899999999999977
 20
-56.9129999999999967
 30
0
 11
103.6899999999999977
 21
-59.8399999999999963
 31
0
  0
LINE
  5
152
330
1B
100
AcDbEntity
  8
F.Silkscreen
  6
CONTINUOUS
100
AcDbLine
 10
103.6899999999999977
 20
-61.9199999999999946
 30
0
 11
103.6899999999999977
 21
-64.8469999999999942
 31
0
  0
LINE
  5
153
330
1B
100
AcDbEntity
  8
F.Silkscreen
  6
CONTINUOUS
100
AcDbLine
 10
103.7299999999999898
 20
-56.9229999999999947
 30
0
 11
103.7299999999999898
 21
-59.8399999999999963
 31
0
  0
LINE
  5
154
330
1B
100
AcDbEntity
  8
F.Silkscreen
  6
CONTINUOUS
100
AcDbLine
 10
103.7299999999999898
 20
-61.9199999999999946
 30
0
 11
103.7299999999999898
 21
-64.8370000000000033
 31
0
  0
LINE
  5
155
330
1B
100
AcDbEntity
  8
F.Silkscreen
  6
CONTINUOUS
100
AcDbLine
 10
103.769999999999996
 20
-56.9329999999999998
 30
0
 11
103.769999999999996
 21
-59.8399999999999963
 31
0
  0
LINE
  5
156
330
1B
100
AcDbEntity
  8
F.Silkscreen
  6
CONTINUOUS
100
AcDbLine
 10
103.769999999999996
 20
-61.9199999999999946
 30
0
 11
103.769999999999996
 21
-64.8269999999999982
 31
0
  0
LINE
  5
157
330
1B
100
AcDbEntity
  8
F.Silkscreen
  6
CONTINUOUS
100
AcDbLine
 10
103.8100000000000023
 20
-56.9439999999999955
 30
0
 11
103.8100000000000023
 21
-59.8399999999999963
 31
0
  0
LINE
  5
158
330
1B
100
AcDbEntity
  8
F.Silkscreen
  6
CONTINUOUS
100
AcDbLine
 10
103.8100000000000023
 20
-61.9199999999999946
 30
0
 11
103.8100000000000023
 21
-64.8160000000000025
 31
0
  0
LINE
  5
159
330
1B
100
AcDbEntity
  8
F.Silkscreen
  6
CONTINUOUS
100
AcDbLine
 10
103.8499999999999943
 20
-56.9549999999999983
 30
0
 11
103.8499999999999943
 21
-59.8399999999999963
 31
0
  0
LINE
  5
15A
330
1B
100
AcDbEntity
  8
F.Silkscreen
  6
CONTINUOUS
100
AcDbLine
 10
103.8499999999999943
 20
-61.9199999999999946
 30
0
 11
103.8499999999999943
 21
-64.8049999999999926
 31
0
  0
LINE
  5
15B
330
1B
100
AcDbEntity
  8
F.Silkscreen
  6
CONTINUOUS
100
AcDbLine
 10
103.8900000000000006
 20
-56.9669999999999987
 30
0
 11
103.8900000000000006
 21
-59.8399999999999963
 31
0
  0
LINE
  5
15C
330
1B
100
AcDbEntity
  8
F.Silkscreen
  6
CONTINUOUS
100
AcDbLine
 10
103.8900000000000006
 20
-61.9199999999999946
 30
0
 11
103.8900000000000006
 21
-64.7929999999999922
 31
0
  0
LINE
  5
15D
330
1B
100
AcDbEntity
  8
F.Silkscreen
  6
CONTINUOUS
100
AcDbLine
 10
103.9299999999999926
 20
-56.9789999999999992
 30
0
 11
103.9299999999999926
 21
-59.8399999999999963
 31
0
  0
LINE
  5
15E
330
1B
100
AcDbEntity
  8
F.Silkscreen
  6
CONTINUOUS
100
AcDbLine
 10
103.9299999999999926
 20
-61.9199999999999946
 30
0
 11
103.9299999999999926
 21
-64.7809999999999917
 31
0
  0
LINE
  5
15F
330
1B
100
AcDbEntity
  8
F.Silkscreen
  6
CONTINUOUS
100
AcDbLine
 10
103.9699999999999989
 20
-56.9909999999999997
 30
0
 11
103.9699999999999989
 21
-59.8399999999999963
 31
0
  0
LINE
  5
160
330
1B
100
AcDbEntity
  8
F.Silkscreen
  6
CONTINUOUS
100
AcDbLine
 10
103.9699999999999989
 20
-61.9199999999999946
 30
0
 11
103.9699999999999989
 21
-64.7689999999999912
 31
0
  0
LINE
  5
161
330
1B
100
AcDbEntity
  8
F.Silkscreen
  6
CONTINUOUS
100
AcDbLine
 10
104.0099999999999909
 20
-57.0039999999999978
 30
0
 11
104.0099999999999909
 21
-59.8399999999999963
 31
0
  0
LINE
  5
162
330
1B
100
AcDbEntity
  8
F.Silkscreen
  6
CONTINUOUS
100
AcDbLine
 10
104.0099999999999909
 20
-61.9199999999999946
 30
0
 11
104.0099999999999909
 21
-64.7560000000000002
 31
0
  0
LINE
  5
163
330
1B
100
AcDbEntity
  8
F.Silkscreen
  6
CONTINUOUS
100
AcDbLine
 10
104.0499999999999972
 20
-57.0169999999999959
 30
0
 11
104.0499999999999972
 21
-59.8399999999999963
 31
0
  0
LINE
  5
164
330
1B
100
AcDbEntity
  8
F.Silkscreen
  6
CONTINUOUS
100
AcDbLine
 10
104.0499999999999972
 20
-61.9199999999999946
 30
0
 11
104.0499999999999972
 21
-64.742999999999995
 31
0
  0
LINE
  5
165
330
1B
100
AcDbEntity
  8
F.Silkscreen
  6
CONTINUOUS
100
AcDbLine
 10
104.0899999999999892
 20
-57.0309999999999988
 30
0
 11
104.0899999999999892
 21
-59.8399999999999963
 31
0
  0
LINE
  5
166
330
1B
100
AcDbEntity
  8
F.Silkscreen
  6
CONTINUOUS
100
AcDbLine
 10
104.0899999999999892
 20
-61.9199999999999946
 30
0
 11
104.0899999999999892
 21
-64.7289999999999992
 31
0
  0
LINE
  5
167
330
1B
100
AcDbEntity
  8
F.Silkscreen
  6
CONTINUOUS
100
AcDbLine
 10
104.1299999999999955
 20
-57.0449999999999946
 30
0
 11
104.1299999999999955
 21
-59.8399999999999963
 31
0
  0
LINE
  5
168
330
1B
100
AcDbEntity
  8
F.Silkscreen
  6
CONTINUOUS
100
AcDbLine
 10
104.1299999999999955
 20
-61.9199999999999946
 30
0
 11
104.1299999999999955
 21
-64.7150000000000034
 31
0
  0
LINE
  5
169
330
1B
100
AcDbEntity
  8
F.Silkscreen
  6
CONTINUOUS
100
AcDbLine
 10
104.1700000000000017
 20
-57.0599999999999952
 30
0
 11
104.1700000000000017
 21
-59.8399999999999963
 31
0
  0
LINE
  5
16A
330
1B
100
AcDbEntity
  8
F.Silkscreen
  6
CONTINUOUS
100
AcDbLine
 10
104.1700000000000017
 20
-61.9199999999999946
 30
0
 11
104.1700000000000017
 21
-64.7000000000000028
 31
0
  0
LINE
  5
16B
330
1B
100
AcDbEntity
  8
F.Silkscreen
  6
CONTINUOUS
100
AcDbLine
 10
104.2099999999999937
 20
-57.0749999999999957
 30
0
 11
104.2099999999999937
 21
-59.8399999999999963
 31
0
  0
LINE
  5
16C
330
1B
100
AcDbEntity
  8
F.Silkscreen
  6
CONTINUOUS
100
AcDbLine
 10
104.2099999999999937
 20
-61.9199999999999946
 30
0
 11
104.2099999999999937
 21
-64.6850000000000023
 31
0
  0
LINE
  5
16D
330
1B
100
AcDbEntity
  8
F.Silkscreen
  6
CONTINUOUS
100
AcDbLine
 10
104.25
 20
-57.090999999999994
 30
0
 11
104.25
 21
-59.8399999999999963
 31
0
  0
LINE
  5
16E
330
1B
100
AcDbEntity
  8
F.Silkscreen
  6
CONTINUOUS
100
AcDbLine
 10
104.25
 20
-61.9199999999999946
 30
0
 11
104.25
 21
-64.6689999999999969
 31
0
  0
LINE
  5
16F
330
1B
100
AcDbEntity
  8
F.Silkscreen
  6
CONTINUOUS
100
AcDbLine
 10
104.289999999999992
 20
-57.1069999999999993
 30
0
 11
104.289999999999992
 21
-59.8399999999999963
 31
0
  0
LINE
  5
170
330
1B
100
AcDbEntity
  8
F.Silkscreen
  6
CONTINUOUS
100
AcDbLine
 10
104.289999999999992
 20
-61.9199999999999946
 30
0
 11
104.289999999999992
 21
-64.6529999999999916
 31
0
  0
LINE
  5
171
330
1B
100
AcDbEntity
  8
F.Silkscreen
  6
CONTINUOUS
100
AcDbLine
 10
104.3299999999999983
 20
-57.1229999999999976
 30
0
 11
104.3299999999999983
 21
-59.8399999999999963
 31
0
  0
LINE
  5
172
330
1B
100
AcDbEntity
  8
F.Silkscreen
  6
CONTINUOUS
100
AcDbLine
 10
104.3299999999999983
 20
-61.9199999999999946
 30
0
 11
104.3299999999999983
 21
-64.6370000000000005
 31
0
  0
LINE
  5
173
330
1B
100
AcDbEntity
  8
F.Silkscreen
  6
CONTINUOUS
100
AcDbLine
 10
104.3699999999999903
 20
-57.1400000000000006
 30
0
 11
104.3699999999999903
 21
-59.8399999999999963
 31
0
  0
LINE
  5
174
330
1B
100
AcDbEntity
  8
F.Silkscreen
  6
CONTINUOUS
100
AcDbLine
 10
104.3699999999999903
 20
-61.9199999999999946
 30
0
 11
104.3699999999999903
 21
-64.6199999999999903
 31
0
  0
LINE
  5
175
330
1B
100
AcDbEntity
  8
F.Silkscreen
  6
CONTINUOUS
100
AcDbLine
 10
104.4099999999999966
 20
-57.1579999999999941
 30
0
 11
104.4099999999999966
 21
-59.8399999999999963
 31
0
  0
LINE
  5
176
330
1B
100
AcDbEntity
  8
F.Silkscreen
  6
CONTINUOUS
100
AcDbLine
 10
104.4099999999999966
 20
-61.9199999999999946
 30
0
 11
104.4099999999999966
 21
-64.6020000000000039
 31
0
  0
LINE
  5
177
330
1B
100
AcDbEntity
  8
F.Silkscreen
  6
CONTINUOUS
100
AcDbLine
 10
104.4499999999999886
 20
-57.1759999999999948
 30
0
 11
104.4499999999999886
 21
-59.8399999999999963
 31
0
  0
LINE
  5
178
330
1B
100
AcDbEntity
  8
F.Silkscreen
  6
CONTINUOUS
100
AcDbLine
 10
104.4499999999999886
 20
-61.9199999999999946
 30
0
 11
104.4499999999999886
 21
-64.5840000000000032
 31
0
  0
LINE
  5
179
330
1B
100
AcDbEntity
  8
F.Silkscreen
  6
CONTINUOUS
100
AcDbLine
 10
104.4899999999999949
 20
-57.1950000000000003
 30
0
 11
104.4899999999999949
 21
-59.8399999999999963
 31
0
  0
LINE
  5
17A
330
1B
100
AcDbEntity
  8
F.Silkscreen
  6
CONTINUOUS
100
AcDbLine
 10
104.4899999999999949
 20
-61.9199999999999946
 30
0
 11
104.4899999999999949
 21
-64.5649999999999977
 31
0
  0
LINE
  5
17B
330
1B
100
AcDbEntity
  8
F.Silkscreen
  6
CONTINUOUS
100
AcDbLine
 10
104.5300000000000011
 20
-57.2139999999999986
 30
0
 11
104.5300000000000011
 21
-59.8399999999999963
 31
0
  0
LINE
  5
17C
330
1B
100
AcDbEntity
  8
F.Silkscreen
  6
CONTINUOUS
100
AcDbLine
 10
104.5300000000000011
 20
-61.9199999999999946
 30
0
 11
104.5300000000000011
 21
-64.5459999999999923
 31
0
  0
LINE
  5
17D
330
1B
100
AcDbEntity
  8
F.Silkscreen
  6
CONTINUOUS
100
AcDbLine
 10
104.5699999999999932
 20
-57.2339999999999947
 30
0
 11
104.5699999999999932
 21
-59.8399999999999963
 31
0
  0
LINE
  5
17E
330
1B
100
AcDbEntity
  8
F.Silkscreen
  6
CONTINUOUS
100
AcDbLine
 10
104.5699999999999932
 20
-61.9199999999999946
 30
0
 11
104.5699999999999932
 21
-64.5259999999999962
 31
0
  0
LINE
  5
17F
330
1B
100
AcDbEntity
  8
F.Silkscreen
  6
CONTINUOUS
100
AcDbLine
 10
104.6099999999999994
 20
-57.2539999999999978
 30
0
 11
104.6099999999999994
 21
-59.8399999999999963
 31
0
  0
LINE
  5
180
330
1B
100
AcDbEntity
  8
F.Silkscreen
  6
CONTINUOUS
100
AcDbLine
 10
104.6099999999999994
 20
-61.9199999999999946
 30
0
 11
104.6099999999999994
 21
-64.5060000000000002
 31
0
  0
LINE
  5
181
330
1B
100
AcDbEntity
  8
F.Silkscreen
  6
CONTINUOUS
100
AcDbLine
 10
104.6499999999999915
 20
-57.2749999999999986
 30
0
 11
104.6499999999999915
 21
-59.8399999999999963
 31
0
  0
LINE
  5
182
330
1B
100
AcDbEntity
  8
F.Silkscreen
  6
CONTINUOUS
100
AcDbLine
 10
104.6499999999999915
 20
-61.9199999999999946
 30
0
 11
104.6499999999999915
 21
-64.4849999999999994
 31
0
  0
LINE
  5
183
330
1B
100
AcDbEntity
  8
F.Silkscreen
  6
CONTINUOUS
100
AcDbLine
 10
104.6899999999999977
 20
-57.2959999999999994
 30
0
 11
104.6899999999999977
 21
-59.8399999999999963
 31
0
  0
LINE
  5
184
330
1B
100
AcDbEntity
  8
F.Silkscreen
  6
CONTINUOUS
100
AcDbLine
 10
104.6899999999999977
 20
-61.9199999999999946
 30
0
 11
104.6899999999999977
 21
-64.4639999999999986
 31
0
  0
LINE
  5
185
330
1B
100
AcDbEntity
  8
F.Silkscreen
  6
CONTINUOUS
100
AcDbLine
 10
104.7299999999999898
 20
-57.3179999999999978
 30
0
 11
104.7299999999999898
 21
-59.8399999999999963
 31
0
  0
LINE
  5
186
330
1B
100
AcDbEntity
  8
F.Silkscreen
  6
CONTINUOUS
100
AcDbLine
 10
104.7299999999999898
 20
-61.9199999999999946
 30
0
 11
104.7299999999999898
 21
-64.4419999999999931
 31
0
  0
LINE
  5
187
330
1B
100
AcDbEntity
  8
F.Silkscreen
  6
CONTINUOUS
100
AcDbLine
 10
104.769999999999996
 20
-57.340999999999994
 30
0
 11
104.769999999999996
 21
-59.8399999999999963
 31
0
  0
LINE
  5
188
330
1B
100
AcDbEntity
  8
F.Silkscreen
  6
CONTINUOUS
100
AcDbLine
 10
104.769999999999996
 20
-61.9199999999999946
 30
0
 11
104.769999999999996
 21
-64.4189999999999969
 31
0
  0
LINE
  5
189
330
1B
100
AcDbEntity
  8
F.Silkscreen
  6
CONTINUOUS
100
AcDbLine
 10
104.8100000000000023
 20
-57.3639999999999972
 30
0
 11
104.8100000000000023
 21
-59.8399999999999963
 31
0
  0
LINE
  5
18A
330
1B
100
AcDbEntity
  8
F.Silkscreen
  6
CONTINUOUS
100
AcDbLine
 10
104.8100000000000023
 20
-61.9199999999999946
 30
0
 11
104.8100000000000023
 21
-64.3960000000000008
 31
0
  0
LINE
  5
18B
330
1B
100
AcDbEntity
  8
F.Silkscreen
  6
CONTINUOUS
100
AcDbLine
 10
104.8499999999999943
 20
-57.3870000000000005
 30
0
 11
104.8499999999999943
 21
-59.8399999999999963
 31
0
  0
LINE
  5
18C
330
1B
100
AcDbEntity
  8
F.Silkscreen
  6
CONTINUOUS
100
AcDbLine
 10
104.8499999999999943
 20
-61.9199999999999946
 30
0
 11
104.8499999999999943
 21
-64.3729999999999905
 31
0
  0
LINE
  5
18D
330
1B
100
AcDbEntity
  8
F.Silkscreen
  6
CONTINUOUS
100
AcDbLine
 10
104.8900000000000006
 20
-57.411999999999999
 30
0
 11
104.8900000000000006
 21
-59.8399999999999963
 31
0
  0
LINE
  5
18E
330
1B
100
AcDbEntity
  8
F.Silkscreen
  6
CONTINUOUS
100
AcDbLine
 10
104.8900000000000006
 20
-61.9199999999999946
 30
0
 11
104.8900000000000006
 21
-64.347999999999999
 31
0
  0
LINE
  5
18F
330
1B
100
AcDbEntity
  8
F.Silkscreen
  6
CONTINUOUS
100
AcDbLine
 10
104.9299999999999926
 20
-57.4369999999999976
 30
0
 11
104.9299999999999926
 21
-59.8399999999999963
 31
0
  0
LINE
  5
190
330
1B
100
AcDbEntity
  8
F.Silkscreen
  6
CONTINUOUS
100
AcDbLine
 10
104.9299999999999926
 20
-61.9199999999999946
 30
0
 11
104.9299999999999926
 21
-64.3229999999999933
 31
0
  0
LINE
  5
191
330
1B
100
AcDbEntity
  8
F.Silkscreen
  6
CONTINUOUS
100
AcDbLine
 10
104.9699999999999989
 20
-57.4619999999999962
 30
0
 11
104.9699999999999989
 21
-59.8399999999999963
 31
0
  0
LINE
  5
192
330
1B
100
AcDbEntity
  8
F.Silkscreen
  6
CONTINUOUS
100
AcDbLine
 10
104.9699999999999989
 20
-61.9199999999999946
 30
0
 11
104.9699999999999989
 21
-64.2980000000000018
 31
0
  0
LINE
  5
193
330
1B
100
AcDbEntity
  8
F.Silkscreen
  6
CONTINUOUS
100
AcDbLine
 10
105.0099999999999909
 20
-57.4879999999999995
 30
0
 11
105.0099999999999909
 21
-59.8399999999999963
 31
0
  0
LINE
  5
194
330
1B
100
AcDbEntity
  8
F.Silkscreen
  6
CONTINUOUS
100
AcDbLine
 10
105.0099999999999909
 20
-61.9199999999999946
 30
0
 11
105.0099999999999909
 21
-64.2719999999999914
 31
0
  0
LINE
  5
195
330
1B
100
AcDbEntity
  8
F.Silkscreen
  6
CONTINUOUS
100
AcDbLine
 10
105.0499999999999972
 20
-57.5150000000000006
 30
0
 11
105.0499999999999972
 21
-59.8399999999999963
 31
0
  0
LINE
  5
196
330
1B
100
AcDbEntity
  8
F.Silkscreen
  6
CONTINUOUS
100
AcDbLine
 10
105.0499999999999972
 20
-61.9199999999999946
 30
0
 11
105.0499999999999972
 21
-64.2449999999999903
 31
0
  0
LINE
  5
197
330
1B
100
AcDbEntity
  8
F.Silkscreen
  6
CONTINUOUS
100
AcDbLine
 10
105.0899999999999892
 20
-57.5429999999999993
 30
0
 11
105.0899999999999892
 21
-59.8399999999999963
 31
0
  0
LINE
  5
198
330
1B
100
AcDbEntity
  8
F.Silkscreen
  6
CONTINUOUS
100
AcDbLine
 10
105.0899999999999892
 20
-61.9199999999999946
 30
0
 11
105.0899999999999892
 21
-64.2169999999999987
 31
0
  0
LINE
  5
199
330
1B
100
AcDbEntity
  8
F.Silkscreen
  6
CONTINUOUS
100
AcDbLine
 10
105.1299999999999955
 20
-57.570999999999998
 30
0
 11
105.1299999999999955
 21
-59.8399999999999963
 31
0
  0
LINE
  5
19A
330
1B
100
AcDbEntity
  8
F.Silkscreen
  6
CONTINUOUS
100
AcDbLine
 10
105.1299999999999955
 20
-61.9199999999999946
 30
0
 11
105.1299999999999955
 21
-64.188999999999993
 31
0
  0
LINE
  5
19B
330
1B
100
AcDbEntity
  8
F.Silkscreen
  6
CONTINUOUS
100
AcDbLine
 10
105.1700000000000017
 20
-57.5999999999999943
 30
0
 11
105.1700000000000017
 21
-59.8399999999999963
 31
0
  0
LINE
  5
19C
330
1B
100
AcDbEntity
  8
F.Silkscreen
  6
CONTINUOUS
100
AcDbLine
 10
105.1700000000000017
 20
-61.9199999999999946
 30
0
 11
105.1700000000000017
 21
-64.1599999999999966
 31
0
  0
LINE
  5
19D
330
1B
100
AcDbEntity
  8
F.Silkscreen
  6
CONTINUOUS
100
AcDbLine
 10
105.2099999999999937
 20
-57.6299999999999955
 30
0
 11
105.2099999999999937
 21
-59.8399999999999963
 31
0
  0
LINE
  5
19E
330
1B
100
AcDbEntity
  8
F.Silkscreen
  6
CONTINUOUS
100
AcDbLine
 10
105.2099999999999937
 20
-61.9199999999999946
 30
0
 11
105.2099999999999937
 21
-64.1299999999999955
 31
0
  0
LINE
  5
19F
330
1B
100
AcDbEntity
  8
F.Silkscreen
  6
CONTINUOUS
100
AcDbLine
 10
105.25
 20
-57.6609999999999943
 30
0
 11
105.25
 21
-59.8399999999999963
 31
0
  0
LINE
  5
1A0
330
1B
100
AcDbEntity
  8
F.Silkscreen
  6
CONTINUOUS
100
AcDbLine
 10
105.25
 20
-61.9199999999999946
 30
0
 11
105.25
 21
-64.0990000000000038
 31
0
  0
LINE
  5
1A1
330
1B
100
AcDbEntity
  8
F.Silkscreen
  6
CONTINUOUS
100
AcDbLine
 10
105.289999999999992
 20
-57.6920000000000002
 30
0
 11
105.289999999999992
 21
-59.8399999999999963
 31
0
  0
LINE
  5
1A2
330
1B
100
AcDbEntity
  8
F.Silkscreen
  6
CONTINUOUS
100
AcDbLine
 10
105.289999999999992
 20
-61.9199999999999946
 30
0
 11
105.289999999999992
 21
-64.0679999999999978
 31
0
  0
LINE
  5
1A3
330
1B
100
AcDbEntity
  8
F.Silkscreen
  6
CONTINUOUS
100
AcDbLine
 10
105.3299999999999983
 20
-57.7239999999999966
 30
0
 11
105.3299999999999983
 21
-59.8399999999999963
 31
0
  0
LINE
  5
1A4
330
1B
100
AcDbEntity
  8
F.Silkscreen
  6
CONTINUOUS
100
AcDbLine
 10
105.3299999999999983
 20
-61.9199999999999946
 30
0
 11
105.3299999999999983
 21
-64.0360000000000014
 31
0
  0
LINE
  5
1A5
330
1B
100
AcDbEntity
  8
F.Silkscreen
  6
CONTINUOUS
100
AcDbLine
 10
105.3699999999999903
 20
-57.7569999999999979
 30
0
 11
105.3699999999999903
 21
-59.8399999999999963
 31
0
  0
LINE
  5
1A6
330
1B
100
AcDbEntity
  8
F.Silkscreen
  6
CONTINUOUS
100
AcDbLine
 10
105.3699999999999903
 20
-61.9199999999999946
 30
0
 11
105.3699999999999903
 21
-64.0030000000000001
 31
0
  0
LINE
  5
1A7
330
1B
100
AcDbEntity
  8
F.Silkscreen
  6
CONTINUOUS
100
AcDbLine
 10
105.4099999999999966
 20
-57.7909999999999968
 30
0
 11
105.4099999999999966
 21
-59.8399999999999963
 31
0
  0
LINE
  5
1A8
330
1B
100
AcDbEntity
  8
F.Silkscreen
  6
CONTINUOUS
100
AcDbLine
 10
105.4099999999999966
 20
-61.9199999999999946
 30
0
 11
105.4099999999999966
 21
-63.9689999999999941
 31
0
  0
LINE
  5
1A9
330
1B
100
AcDbEntity
  8
F.Silkscreen
  6
CONTINUOUS
100
AcDbLine
 10
105.4499999999999886
 20
-57.8249999999999957
 30
0
 11
105.4499999999999886
 21
-59.8399999999999963
 31
0
  0
LINE
  5
1AA
330
1B
100
AcDbEntity
  8
F.Silkscreen
  6
CONTINUOUS
100
AcDbLine
 10
105.4499999999999886
 20
-61.9199999999999946
 30
0
 11
105.4499999999999886
 21
-63.9349999999999952
 31
0
  0
LINE
  5
1AB
330
1B
100
AcDbEntity
  8
F.Silkscreen
  6
CONTINUOUS
100
AcDbLine
 10
105.4899999999999949
 20
-57.8609999999999971
 30
0
 11
105.4899999999999949
 21
-59.8399999999999963
 31
0
  0
LINE
  5
1AC
330
1B
100
AcDbEntity
  8
F.Silkscreen
  6
CONTINUOUS
100
AcDbLine
 10
105.4899999999999949
 20
-61.9199999999999946
 30
0
 11
105.4899999999999949
 21
-63.8989999999999938
 31
0
  0
LINE
  5
1AD
330
1B
100
AcDbEntity
  8
F.Silkscreen
  6
CONTINUOUS
100
AcDbLine
 10
105.5300000000000011
 20
-57.8979999999999961
 30
0
 11
105.5300000000000011
 21
-63.8619999999999948
 31
0
  0
LINE
  5
1AE
330
1B
100
AcDbEntity
  8
F.Silkscreen
  6
CONTINUOUS
100
AcDbLine
 10
105.5699999999999932
 20
-57.9349999999999952
 30
0
 11
105.5699999999999932
 21
-63.8249999999999957
 31
0
  0
LINE
  5
1AF
330
1B
100
AcDbEntity
  8
F.Silkscreen
  6
CONTINUOUS
100
AcDbLine
 10
105.6099999999999994
 20
-57.9739999999999966
 30
0
 11
105.6099999999999994
 21
-63.7859999999999943
 31
0
  0
LINE
  5
1B0
330
1B
100
AcDbEntity
  8
F.Silkscreen
  6
CONTINUOUS
100
AcDbLine
 10
105.6499999999999915
 20
-58.0129999999999981
 30
0
 11
105.6499999999999915
 21
-63.7469999999999999
 31
0
  0
LINE
  5
1B1
330
1B
100
AcDbEntity
  8
F.Silkscreen
  6
CONTINUOUS
100
AcDbLine
 10
105.6899999999999977
 20
-58.0539999999999949
 30
0
 11
105.6899999999999977
 21
-63.705999999999996
 31
0
  0
LINE
  5
1B2
330
1B
100
AcDbEntity
  8
F.Silkscreen
  6
CONTINUOUS
100
AcDbLine
 10
105.7299999999999898
 20
-58.0959999999999965
 30
0
 11
105.7299999999999898
 21
-63.6639999999999944
 31
0
  0
LINE
  5
1B3
330
1B
100
AcDbEntity
  8
F.Silkscreen
  6
CONTINUOUS
100
AcDbLine
 10
105.769999999999996
 20
-58.1389999999999958
 30
0
 11
105.769999999999996
 21
-63.6209999999999951
 31
0
  0
LINE
  5
1B4
330
1B
100
AcDbEntity
  8
F.Silkscreen
  6
CONTINUOUS
100
AcDbLine
 10
105.8100000000000023
 20
-58.1839999999999975
 30
0
 11
105.8100000000000023
 21
-63.5760000000000005
 31
0
  0
LINE
  5
1B5
330
1B
100
AcDbEntity
  8
F.Silkscreen
  6
CONTINUOUS
100
AcDbLine
 10
105.8499999999999943
 20
-58.2289999999999992
 30
0
 11
105.8499999999999943
 21
-63.5309999999999988
 31
0
  0
LINE
  5
1B6
330
1B
100
AcDbEntity
  8
F.Silkscreen
  6
CONTINUOUS
100
AcDbLine
 10
105.8900000000000006
 20
-58.2759999999999962
 30
0
 11
105.8900000000000006
 21
-63.4839999999999947
 31
0
  0
LINE
  5
1B7
330
1B
100
AcDbEntity
  8
F.Silkscreen
  6
CONTINUOUS
100
AcDbLine
 10
105.9299999999999926
 20
-58.3249999999999957
 30
0
 11
105.9299999999999926
 21
-63.4349999999999952
 31
0
  0
LINE
  5
1B8
330
1B
100
AcDbEntity
  8
F.Silkscreen
  6
CONTINUOUS
100
AcDbLine
 10
105.9699999999999989
 20
-58.375
 30
0
 11
105.9699999999999989
 21
-63.384999999999998
 31
0
  0
LINE
  5
1B9
330
1B
100
AcDbEntity
  8
F.Silkscreen
  6
CONTINUOUS
100
AcDbLine
 10
106.0099999999999909
 20
-58.4269999999999996
 30
0
 11
106.0099999999999909
 21
-63.3329999999999984
 31
0
  0
LINE
  5
1BA
330
1B
100
AcDbEntity
  8
F.Silkscreen
  6
CONTINUOUS
100
AcDbLine
 10
106.0499999999999972
 20
-58.4799999999999969
 30
0
 11
106.0499999999999972
 21
-63.279999999999994
 31
0
  0
LINE
  5
1BB
330
1B
100
AcDbEntity
  8
F.Silkscreen
  6
CONTINUOUS
100
AcDbLine
 10
106.0899999999999892
 20
-58.5359999999999943
 30
0
 11
106.0899999999999892
 21
-63.2239999999999966
 31
0
  0
LINE
  5
1BC
330
1B
100
AcDbEntity
  8
F.Silkscreen
  6
CONTINUOUS
100
AcDbLine
 10
106.1299999999999955
 20
-58.5929999999999964
 30
0
 11
106.1299999999999955
 21
-63.1669999999999945
 31
0
  0
LINE
  5
1BD
330
1B
100
AcDbEntity
  8
F.Silkscreen
  6
CONTINUOUS
100
AcDbLine
 10
106.1700000000000017
 20
-58.6529999999999987
 30
0
 11
106.1700000000000017
 21
-63.1069999999999993
 31
0
  0
LINE
  5
1BE
330
1B
100
AcDbEntity
  8
F.Silkscreen
  6
CONTINUOUS
100
AcDbLine
 10
106.2099999999999937
 20
-58.7149999999999963
 30
0
 11
106.2099999999999937
 21
-63.0449999999999946
 31
0
  0
LINE
  5
1BF
330
1B
100
AcDbEntity
  8
F.Silkscreen
  6
CONTINUOUS
100
AcDbLine
 10
106.25
 20
-58.7789999999999964
 30
0
 11
106.25
 21
-62.9809999999999945
 31
0
  0
LINE
  5
1C0
330
1B
100
AcDbEntity
  8
F.Silkscreen
  6
CONTINUOUS
100
AcDbLine
 10
106.289999999999992
 20
-58.8459999999999965
 30
0
 11
106.289999999999992
 21
-62.9139999999999944
 31
0
  0
LINE
  5
1C1
330
1B
100
AcDbEntity
  8
F.Silkscreen
  6
CONTINUOUS
100
AcDbLine
 10
106.3299999999999983
 20
-58.9159999999999968
 30
0
 11
106.3299999999999983
 21
-62.8439999999999941
 31
0
  0
LINE
  5
1C2
330
1B
100
AcDbEntity
  8
F.Silkscreen
  6
CONTINUOUS
100
AcDbLine
 10
106.3699999999999903
 20
-58.9899999999999949
 30
0
 11
106.3699999999999903
 21
-62.769999999999996
 31
0
  0
LINE
  5
1C3
330
1B
100
AcDbEntity
  8
F.Silkscreen
  6
CONTINUOUS
100
AcDbLine
 10
106.4099999999999966
 20
-59.0670000000000002
 30
0
 11
106.4099999999999966
 21
-62.6929999999999978
 31
0
  0
LINE
  5
1C4
330
1B
100
AcDbEntity
  8
F.Silkscreen
  6
CONTINUOUS
100
AcDbLine
 10
106.4499999999999886
 20
-59.1489999999999938
 30
0
 11
106.4499999999999886
 21
-62.6109999999999971
 31
0
  0
LINE
  5
1C5
330
1B
100
AcDbEntity
  8
F.Silkscreen
  6
CONTINUOUS
100
AcDbLine
 10
106.4899999999999949
 20
-59.2359999999999971
 30
0
 11
106.4899999999999949
 21
-62.5239999999999938
 31
0
  0
LINE
  5
1C6
330
1B
100
AcDbEntity
  8
F.Silkscreen
  6
CONTINUOUS
100
AcDbLine
 10
106.5300000000000011
 20
-59.3279999999999959
 30
0
 11
106.5300000000000011
 21
-62.4319999999999951
 31
0
  0
LINE
  5
1C7
330
1B
100
AcDbEntity
  8
F.Silkscreen
  6
CONTINUOUS
100
AcDbLine
 10
106.5699999999999932
 20
-59.4269999999999996
 30
0
 11
106.5699999999999932
 21
-62.3329999999999984
 31
0
  0
LINE
  5
1C8
330
1B
100
AcDbEntity
  8
F.Silkscreen
  6
CONTINUOUS
100
AcDbLine
 10
106.6099999999999994
 20
-59.5339999999999989
 30
0
 11
106.6099999999999994
 21
-62.2259999999999991
 31
0
  0
LINE
  5
1C9
330
1B
100
AcDbEntity
  8
F.Silkscreen
  6
CONTINUOUS
100
AcDbLine
 10
106.6499999999999915
 20
-59.6519999999999939
 30
0
 11
106.6499999999999915
 21
-62.107999999999997
 31
0
  0
LINE
  5
1CA
330
1B
100
AcDbEntity
  8
F.Silkscreen
  6
CONTINUOUS
100
AcDbLine
 10
106.6899999999999977
 20
-59.7829999999999941
 30
0
 11
106.6899999999999977
 21
-61.9769999999999968
 31
0
  0
LINE
  5
1CB
330
1B
100
AcDbEntity
  8
F.Silkscreen
  6
CONTINUOUS
100
AcDbLine
 10
106.7299999999999898
 20
-59.9329999999999998
 30
0
 11
106.7299999999999898
 21
-61.8269999999999982
 31
0
  0
LINE
  5
1CC
330
1B
100
AcDbEntity
  8
F.Silkscreen
  6
CONTINUOUS
100
AcDbLine
 10
106.769999999999996
 20
-60.1119999999999948
 30
0
 11
106.769999999999996
 21
-61.6479999999999961
 31
0
  0
LINE
  5
1CD
330
1B
100
AcDbEntity
  8
F.Silkscreen
  6
CONTINUOUS
100
AcDbLine
 10
106.8099999999999881
 20
-60.3469999999999942
 30
0
 11
106.8099999999999881
 21
-61.4129999999999967
 31
0
  0
CIRCLE
  5
1CE
330
1B
100
AcDbEntity
  8
F.Silkscreen
100
AcDbCircle
 10
102.7299999999999898
 20
-60.8799999999999955
 30
0
 40
4.1200000000000001
  0
LINE
  5
1CF
330
1B
100
AcDbEntity
  8
F.Silkscreen
  6
CONTINUOUS
100
AcDbLine
 10
79.8933329999999984
 20
-82.7299999999999898
 30
0
 11
82.8333329999999961
 21
-82.7299999999999898
 31
0
  0
LINE
  5
1D0
330
1B
100
AcDbEntity
  8
F.Silkscreen
  6
CONTINUOUS
100
AcDbLine
 10
79.8933329999999984
 20
-82.8499999999999943
 30
0
 11
82.8333329999999961
 21
-82.8499999999999943
 31
0
  0
LINE
  5
1D1
330
1B
100
AcDbEntity
  8
F.Silkscreen
  6
CONTINUOUS
100
AcDbLine
 10
79.8933329999999984
 20
-82.9699999999999989
 30
0
 11
82.8333329999999961
 21
-82.9699999999999989
 31
0
  0
LINE
  5
1D2
330
1B
100
AcDbEntity
  8
F.Silkscreen
  6
CONTINUOUS
100
AcDbLine
 10
81.3633329999999972
 20
-77.289999999999992
 30
0
 11
81.3633329999999972
 21
-78.3100000000000023
 31
0
  0
LINE
  5
1D3
330
1B
100
AcDbEntity
  8
F.Silkscreen
  6
CONTINUOUS
100
AcDbLine
 10
81.3633329999999972
 20
-84.769999999999996
 30
0
 11
81.3633329999999972
 21
-83.75
 31
0
  0
LINE
  5
1D4
330
1B
100
AcDbEntity
  8
F.Silkscreen
  6
CONTINUOUS
100
AcDbLine
 10
79.8933329999999984
 20
-78.3100000000000023
 30
0
 11
82.8333329999999961
 21
-78.3100000000000023
 31
0
  0
LINE
  5
1D5
330
1B
100
AcDbEntity
  8
F.Silkscreen
  6
CONTINUOUS
100
AcDbLine
 10
82.8333329999999961
 20
-78.3100000000000023
 30
0
 11
82.8333329999999961
 21
-83.75
 31
0
  0
LINE
  5
1D6
330
1B
100
AcDbEntity
  8
F.Silkscreen
  6
CONTINUOUS
100
AcDbLine
 10
82.8333329999999961
 20
-83.75
 30
0
 11
79.8933329999999984
 21
-83.75
 31
0
  0
LINE
  5
1D7
330
1B
100
AcDbEntity
  8
F.Silkscreen
  6
CONTINUOUS
100
AcDbLine
 10
79.8933329999999984
 20
-83.75
 30
0
 11
79.8933329999999984
 21
-78.3100000000000023
 31
0
  0
LINE
  5
1D8
330
1B
100
AcDbEntity
  8
F.Silkscreen
  6
CONTINUOUS
100
AcDbLine
 10
91.8900000000000006
 20
-46.2199999999999989
 30
0
 11
107.1299999999999955
 21
-46.2199999999999989
 31
0
  0
LINE
  5
1D9
330
1B
100
AcDbEntity
  8
F.Silkscreen
  6
CONTINUOUS
100
AcDbLine
 10
91.8900000000000006
 20
-52.5700000000000003
 30
0
 11
107.1299999999999955
 21
-52.5700000000000003
 31
0
  0
LINE
  5
1DA
330
1B
100
AcDbEntity
  8
F.Silkscreen
  6
CONTINUOUS
100
AcDbLine
 10
91.8900000000000006
 20
-53.8399999999999963
 30
0
 11
91.8900000000000006
 21
-46.2199999999999989
 31
0
  0
LINE
  5
1DB
330
1B
100
AcDbEntity
  8
F.Silkscreen
  6
CONTINUOUS
100
AcDbLine
 10
91.8900000000000006
 20
-53.8399999999999963
 30
0
 11
107.1299999999999955
 21
-53.8399999999999963
 31
0
  0
LINE
  5
1DC
330
1B
100
AcDbEntity
  8
F.Silkscreen
  6
CONTINUOUS
100
AcDbLine
 10
107.1299999999999955
 20
-53.8399999999999963
 30
0
 11
107.1299999999999955
 21
-46.2199999999999989
 31
0
  0
LINE
  5
1DD
330
1B
100
AcDbEntity
  8
F.Silkscreen
  6
CONTINUOUS
100
AcDbLine
 10
72.8599999999999994
 20
-77.7599999999999909
 30
0
 11
73.1899999999999977
 21
-77.7599999999999909
 31
0
  0
LINE
  5
1DE
330
1B
100
AcDbEntity
  8
F.Silkscreen
  6
CONTINUOUS
100
AcDbLine
 10
72.8599999999999994
 20
-84.2999999999999972
 30
0
 11
72.8599999999999994
 21
-77.7599999999999909
 31
0
  0
LINE
  5
1DF
330
1B
100
AcDbEntity
  8
F.Silkscreen
  6
CONTINUOUS
100
AcDbLine
 10
73.1899999999999977
 20
-84.2999999999999972
 30
0
 11
72.8599999999999994
 21
-84.2999999999999972
 31
0
  0
LINE
  5
1E0
330
1B
100
AcDbEntity
  8
F.Silkscreen
  6
CONTINUOUS
100
AcDbLine
 10
75.269999999999996
 20
-84.2999999999999972
 30
0
 11
75.5999999999999943
 21
-84.2999999999999972
 31
0
  0
LINE
  5
1E1
330
1B
100
AcDbEntity
  8
F.Silkscreen
  6
CONTINUOUS
100
AcDbLine
 10
75.5999999999999943
 20
-77.7599999999999909
 30
0
 11
75.269999999999996
 21
-77.7599999999999909
 31
0
  0
LINE
  5
1E2
330
1B
100
AcDbEntity
  8
F.Silkscreen
  6
CONTINUOUS
100
AcDbLine
 10
75.5999999999999943
 20
-84.2999999999999972
 30
0
 11
75.5999999999999943
 21
-77.7599999999999909
 31
0
  0
LINE
  5
1E3
330
1B
100
AcDbEntity
  8
F.Silkscreen
  6
CONTINUOUS
100
AcDbLine
 10
70.3699999999999903
 20
-57.3699999999999974
 30
0
 11
70.3699999999999903
 21
-63.9099999999999966
 31
0
  0
LINE
  5
1E4
330
1B
100
AcDbEntity
  8
F.Silkscreen
  6
CONTINUOUS
100
AcDbLine
 10
70.3699999999999903
 20
-63.9099999999999966
 30
0
 11
70.7000000000000028
 21
-63.9099999999999966
 31
0
  0
LINE
  5
1E5
330
1B
100
AcDbEntity
  8
F.Silkscreen
  6
CONTINUOUS
100
AcDbLine
 10
70.7000000000000028
 20
-57.3699999999999974
 30
0
 11
70.3699999999999903
 21
-57.3699999999999974
 31
0
  0
LINE
  5
1E6
330
1B
100
AcDbEntity
  8
F.Silkscreen
  6
CONTINUOUS
100
AcDbLine
 10
72.7800000000000011
 20
-57.3699999999999974
 30
0
 11
73.1099999999999994
 21
-57.3699999999999974
 31
0
  0
LINE
  5
1E7
330
1B
100
AcDbEntity
  8
F.Silkscreen
  6
CONTINUOUS
100
AcDbLine
 10
73.1099999999999994
 20
-57.3699999999999974
 30
0
 11
73.1099999999999994
 21
-63.9099999999999966
 31
0
  0
LINE
  5
1E8
330
1B
100
AcDbEntity
  8
F.Silkscreen
  6
CONTINUOUS
100
AcDbLine
 10
73.1099999999999994
 20
-63.9099999999999966
 30
0
 11
72.7800000000000011
 21
-63.9099999999999966
 31
0
  0
LINE
  5
1E9
330
1B
100
AcDbEntity
  8
F.Silkscreen
  6
CONTINUOUS
100
AcDbLine
 10
78.539999999999992
 20
-46.1299999999999955
 30
0
 11
78.539999999999992
 21
-53.75
 31
0
  0
LINE
  5
1EA
330
1B
100
AcDbEntity
  8
F.Silkscreen
  6
CONTINUOUS
100
AcDbLine
 10
78.539999999999992
 20
-47.3999999999999986
 30
0
 11
88.7000000000000028
 21
-47.3999999999999986
 31
0
  0
LINE
  5
1EB
330
1B
100
AcDbEntity
  8
F.Silkscreen
  6
CONTINUOUS
100
AcDbLine
 10
78.539999999999992
 20
-53.75
 30
0
 11
88.7000000000000028
 21
-53.75
 31
0
  0
LINE
  5
1EC
330
1B
100
AcDbEntity
  8
F.Silkscreen
  6
CONTINUOUS
100
AcDbLine
 10
88.7000000000000028
 20
-46.1299999999999955
 30
0
 11
78.539999999999992
 21
-46.1299999999999955
 31
0
  0
LINE
  5
1ED
330
1B
100
AcDbEntity
  8
F.Silkscreen
  6
CONTINUOUS
100
AcDbLine
 10
88.7000000000000028
 20
-53.75
 30
0
 11
88.7000000000000028
 21
-46.1299999999999955
 31
0
  0
LINE
  5
1EE
330
1B
100
AcDbEntity
  8
F.Silkscreen
  6
CONTINUOUS
100
AcDbLine
 10
91.9200000000000017
 20
-57.8900000000000006
 30
0
 11
91.9200000000000017
 21
-58.9099999999999966
 31
0
  0
LINE
  5
1EF
330
1B
100
AcDbEntity
  8
F.Silkscreen
  6
CONTINUOUS
100
AcDbLine
 10
91.9200000000000017
 20
-65.3699999999999903
 30
0
 11
91.9200000000000017
 21
-64.3499999999999943
 31
0
  0
LINE
  5
1F0
330
1B
100
AcDbEntity
  8
F.Silkscreen
  6
CONTINUOUS
100
AcDbLine
 10
93.3900000000000006
 20
-59.6899999999999977
 30
0
 11
90.4500000000000028
 21
-59.6899999999999977
 31
0
  0
LINE
  5
1F1
330
1B
100
AcDbEntity
  8
F.Silkscreen
  6
CONTINUOUS
100
AcDbLine
 10
93.3900000000000006
 20
-59.8099999999999952
 30
0
 11
90.4500000000000028
 21
-59.8099999999999952
 31
0
  0
LINE
  5
1F2
330
1B
100
AcDbEntity
  8
F.Silkscreen
  6
CONTINUOUS
100
AcDbLine
 10
93.3900000000000006
 20
-59.9299999999999997
 30
0
 11
90.4500000000000028
 21
-59.9299999999999997
 31
0
  0
LINE
  5
1F3
330
1B
100
AcDbEntity
  8
F.Silkscreen
  6
CONTINUOUS
100
AcDbLine
 10
90.4500000000000028
 20
-58.9099999999999966
 30
0
 11
93.3900000000000006
 21
-58.9099999999999966
 31
0
  0
LINE
  5
1F4
330
1B
100
AcDbEntity
  8
F.Silkscreen
  6
CONTINUOUS
100
AcDbLine
 10
93.3900000000000006
 20
-58.9099999999999966
 30
0
 11
93.3900000000000006
 21
-64.3499999999999943
 31
0
  0
LINE
  5
1F5
330
1B
100
AcDbEntity
  8
F.Silkscreen
  6
CONTINUOUS
100
AcDbLine
 10
93.3900000000000006
 20
-64.3499999999999943
 30
0
 11
90.4500000000000028
 21
-64.3499999999999943
 31
0
  0
LINE
  5
1F6
330
1B
100
AcDbEntity
  8
F.Silkscreen
  6
CONTINUOUS
100
AcDbLine
 10
90.4500000000000028
 20
-64.3499999999999943
 30
0
 11
90.4500000000000028
 21
-58.9099999999999966
 31
0
  0
LINE
  5
1F7
330
1B
100
AcDbEntity
  8
F.Silkscreen
  6
CONTINUOUS
100
AcDbLine
 10
58.5933329999999941
 20
-77.7599999999999909
 30
0
 11
58.5933329999999941
 21
-84.2999999999999972
 31
0
  0
LINE
  5
1F8
330
1B
100
AcDbEntity
  8
F.Silkscreen
  6
CONTINUOUS
100
AcDbLine
 10
58.5933329999999941
 20
-84.2999999999999972
 30
0
 11
58.9233329999999995
 21
-84.2999999999999972
 31
0
  0
LINE
  5
1F9
330
1B
100
AcDbEntity
  8
F.Silkscreen
  6
CONTINUOUS
100
AcDbLine
 10
58.9233329999999995
 20
-77.7599999999999909
 30
0
 11
58.5933329999999941
 21
-77.7599999999999909
 31
0
  0
LINE
  5
1FA
330
1B
100
AcDbEntity
  8
F.Silkscreen
  6
CONTINUOUS
100
AcDbLine
 10
61.0033329999999978
 20
-77.7599999999999909
 30
0
 11
61.3333329999999961
 21
-77.7599999999999909
 31
0
  0
LINE
  5
1FB
330
1B
100
AcDbEntity
  8
F.Silkscreen
  6
CONTINUOUS
100
AcDbLine
 10
61.3333329999999961
 20
-77.7599999999999909
 30
0
 11
61.3333329999999961
 21
-84.2999999999999972
 31
0
  0
LINE
  5
1FC
330
1B
100
AcDbEntity
  8
F.Silkscreen
  6
CONTINUOUS
100
AcDbLine
 10
61.3333329999999961
 20
-84.2999999999999972
 30
0
 11
61.0033329999999978
 21
-84.2999999999999972
 31
0
  0
LINE
  5
1FD
330
1B
100
AcDbEntity
  8
F.Silkscreen
  6
CONTINUOUS
100
AcDbLine
 10
65.7266659999999945
 20
-77.7599999999999909
 30
0
 11
65.7266659999999945
 21
-84.2999999999999972
 31
0
  0
LINE
  5
1FE
330
1B
100
AcDbEntity
  8
F.Silkscreen
  6
CONTINUOUS
100
AcDbLine
 10
65.7266659999999945
 20
-84.2999999999999972
 30
0
 11
66.0566659999999928
 21
-84.2999999999999972
 31
0
  0
LINE
  5
1FF
330
1B
100
AcDbEntity
  8
F.Silkscreen
  6
CONTINUOUS
100
AcDbLine
 10
66.0566659999999928
 20
-77.7599999999999909
 30
0
 11
65.7266659999999945
 21
-77.7599999999999909
 31
0
  0
LINE
  5
200
330
1B
100
AcDbEntity
  8
F.Silkscreen
  6
CONTINUOUS
100
AcDbLine
 10
68.1366659999999911
 20
-77.7599999999999909
 30
0
 11
68.4666660000000036
 21
-77.7599999999999909
 31
0
  0
LINE
  5
201
330
1B
100
AcDbEntity
  8
F.Silkscreen
  6
CONTINUOUS
100
AcDbLine
 10
68.4666660000000036
 20
-77.7599999999999909
 30
0
 11
68.4666660000000036
 21
-84.2999999999999972
 31
0
  0
LINE
  5
202
330
1B
100
AcDbEntity
  8
F.Silkscreen
  6
CONTINUOUS
100
AcDbLine
 10
68.4666660000000036
 20
-84.2999999999999972
 30
0
 11
68.1366659999999911
 21
-84.2999999999999972
 31
0
  0
LINE
  5
203
330
1B
100
AcDbEntity
  8
F.Silkscreen
  6
CONTINUOUS
100
AcDbLine
 10
76.3799999999999955
 20
-61.0399999999999991
 30
0
 11
86.5999999999999943
 21
-61.0399999999999991
 31
0
  0
LINE
  5
204
330
1B
100
AcDbEntity
  8
F.Silkscreen
  6
CONTINUOUS
100
AcDbLine
 10
76.3799999999999955
 20
-65.6599999999999966
 30
0
 11
76.3799999999999955
 21
-61.0399999999999991
 31
0
  0
LINE
  5
205
330
1B
100
AcDbEntity
  8
F.Silkscreen
  6
CONTINUOUS
100
AcDbLine
 10
79.6400000000000006
 20
-65.6599999999999966
 30
0
 11
79.6400000000000006
 21
-64.2800000000000011
 31
0
  0
LINE
  5
206
330
1B
100
AcDbEntity
  8
F.Silkscreen
  6
CONTINUOUS
100
AcDbLine
 10
83.3399999999999892
 20
-65.6599999999999966
 30
0
 11
83.3399999999999892
 21
-64.2800000000000011
 31
0
  0
LINE
  5
207
330
1B
100
AcDbEntity
  8
F.Silkscreen
  6
CONTINUOUS
100
AcDbLine
 10
86.5999999999999943
 20
-61.0399999999999991
 30
0
 11
86.5999999999999943
 21
-65.6599999999999966
 31
0
  0
LINE
  5
208
330
1B
100
AcDbEntity
  8
F.Silkscreen
  6
CONTINUOUS
100
AcDbLine
 10
86.5999999999999943
 20
-64.2800000000000011
 30
0
 11
76.3799999999999955
 21
-64.2800000000000011
 31
0
  0
LINE
  5
209
330
1B
100
AcDbEntity
  8
F.Silkscreen
  6
CONTINUOUS
100
AcDbLine
 10
86.5999999999999943
 20
-65.6599999999999966
 30
0
 11
76.3799999999999955
 21
-65.6599999999999966
 31
0
  0
LINE
  5
20A
330
1B
100
AcDbEntity
  8
F.Silkscreen
  6
CONTINUOUS
100
AcDbLine
 10
110.1899999999999977
 20
-58.6499999999999986
 30
0
 11
110.527000000000001
 21
-58.6499999999999986
 31
0
  0
LINE
  5
20B
330
1B
100
AcDbEntity
  8
F.Silkscreen
  6
CONTINUOUS
100
AcDbLine
 10
110.1899999999999977
 20
-63.8900000000000006
 30
0
 11
110.1899999999999977
 21
-58.6499999999999986
 31
0
  0
LINE
  5
20C
330
1B
100
AcDbEntity
  8
F.Silkscreen
  6
CONTINUOUS
100
AcDbLine
 10
110.527000000000001
 20
-63.8900000000000006
 30
0
 11
110.1899999999999977
 21
-63.8900000000000006
 31
0
  0
LINE
  5
20D
330
1B
100
AcDbEntity
  8
F.Silkscreen
  6
CONTINUOUS
100
AcDbLine
 10
112.5929999999999893
 20
-58.6499999999999986
 30
0
 11
112.9299999999999926
 21
-58.6499999999999986
 31
0
  0
LINE
  5
20E
330
1B
100
AcDbEntity
  8
F.Silkscreen
  6
CONTINUOUS
100
AcDbLine
 10
112.9299999999999926
 20
-58.6499999999999986
 30
0
 11
112.9299999999999926
 21
-63.8900000000000006
 31
0
  0
LINE
  5
20F
330
1B
100
AcDbEntity
  8
F.Silkscreen
  6
CONTINUOUS
100
AcDbLine
 10
112.9299999999999926
 20
-63.8900000000000006
 30
0
 11
112.5929999999999893
 21
-63.8900000000000006
 31
0
  0
LINE
  5
210
330
1B
100
AcDbEntity
  8
F.Silkscreen
  6
CONTINUOUS
100
AcDbLine
 10
97.8299999999999983
 20
-70.4599999999999937
 30
0
 11
97.8299999999999983
 21
-88.3599999999999994
 31
0
  0
LINE
  5
211
330
1B
100
AcDbEntity
  8
F.Silkscreen
  6
CONTINUOUS
100
AcDbLine
 10
97.8299999999999983
 20
-88.3599999999999994
 30
0
 11
102.3299999999999983
 21
-88.3599999999999994
 31
0
  0
LINE
  5
212
330
1B
100
AcDbEntity
  8
F.Silkscreen
  6
CONTINUOUS
100
AcDbLine
 10
99.0799999999999983
 20
-70.4599999999999937
 30
0
 11
97.8299999999999983
 21
-70.4599999999999937
 31
0
  0
LINE
  5
213
330
1B
100
AcDbEntity
  8
F.Silkscreen
  6
CONTINUOUS
100
AcDbLine
 10
102.3299999999999983
 20
-70.4599999999999937
 30
0
 11
101.0799999999999983
 21
-70.4599999999999937
 31
0
  0
LINE
  5
214
330
1B
100
AcDbEntity
  8
F.Silkscreen
  6
CONTINUOUS
100
AcDbLine
 10
102.3299999999999983
 20
-88.3599999999999994
 30
0
 11
102.3299999999999983
 21
-70.4599999999999937
 31
0
  0
ARC
  5
215
330
1B
100
AcDbEntity
  8
F.Silkscreen
100
AcDbCircle
 10
100.0799999999999983
 20
-70.4599999999999937
 30
0
 40
1.
100
AcDbArc
 50
-180.00000000
 51
-0.00000000
  0
LINE
  5
216
330
1B
100
AcDbEntity
  8
F.Silkscreen
  6
CONTINUOUS
100
AcDbLine
 10
56.8900000000000006
 20
-55.8200000000000003
 30
0
 11
56.8900000000000006
 21
-66.0999999999999943
 31
0
  0
LINE
  5
217
330
1B
100
AcDbEntity
  8
F.Silkscreen
  6
CONTINUOUS
100
AcDbLine
 10
56.8900000000000006
 20
-66.0999999999999943
 30
0
 11
58.1400000000000006
 21
-66.0999999999999943
 31
0
  0
LINE
  5
218
330
1B
100
AcDbEntity
  8
F.Silkscreen
  6
CONTINUOUS
100
AcDbLine
 10
60.1400000000000006
 20
-66.0999999999999943
 30
0
 11
61.3900000000000006
 21
-66.0999999999999943
 31
0
  0
LINE
  5
219
330
1B
100
AcDbEntity
  8
F.Silkscreen
  6
CONTINUOUS
100
AcDbLine
 10
61.3900000000000006
 20
-55.8200000000000003
 30
0
 11
56.8900000000000006
 21
-55.8200000000000003
 31
0
  0
LINE
  5
21A
330
1B
100
AcDbEntity
  8
F.Silkscreen
  6
CONTINUOUS
100
AcDbLine
 10
61.3900000000000006
 20
-66.0999999999999943
 30
0
 11
61.3900000000000006
 21
-55.8200000000000003
 31
0
  0
ARC
  5
21B
330
1B
100
AcDbEntity
  8
F.Silkscreen
100
AcDbCircle
 10
59.1400000000000006
 20
-66.0999999999999943
 30
0
 40
1.
100
AcDbArc
 50
0.00000000
 51
180.00000000
  0
ARC
  5
21C
330
1B
100
AcDbEntity
  8
Edge.Cuts
100
AcDbCircle
 10
54.0799999999999983
 20
-44.019999999999996
 30
0
 40
4.
100
AcDbArc
 50
90.00000000
 51
180.00000000
  0
LINE
  5
21D
330
1B
100
AcDbEntity
  8
Edge.Cuts
  6
CONTINUOUS
100
AcDbLine
 10
50.0799999999999983
 20
-97.3599999999999994
 30
0
 11
50.0799999999999983
 21
-44.019999999999996
 31
0
  0
LINE
  5
21E
330
1B
100
AcDbEntity
  8
Edge.Cuts
  6
CONTINUOUS
100
AcDbLine
 10
54.0799999999999983
 20
-40.019999999999996
 30
0
 11
114.7999999999999972
 21
-40.019999999999996
 31
0
  0
ARC
  5
21F
330
1B
100
AcDbEntity
  8
Edge.Cuts
100
AcDbCircle
 10
54.0799999999999983
 20
-97.3599999999999994
 30
0
 40
4.
100
AcDbArc
 50
-180.00000000
 51
-90.00000000
  0
ARC
  5
220
330
1B
100
AcDbEntity
  8
Edge.Cuts
100
AcDbCircle
 10
114.7999999999999972
 20
-44.019999999999996
 30
0
 40
4.
100
AcDbArc
 50
0.00000000
 51
90.00000000
  0
LINE
  5
221
330
1B
100
AcDbEntity
  8
Edge.Cuts
  6
CONTINUOUS
100
AcDbLine
 10
114.7999999999999972
 20
-101.3599999999999994
 30
0
 11
54.0799999999999983
 21
-101.3599999999999994
 31
0
  0
LINE
  5
222
330
1B
100
AcDbEntity
  8
Edge.Cuts
  6
CONTINUOUS
100
AcDbLine
 10
118.7999999999999972
 20
-44.019999999999996
 30
0
 11
118.7999999999999972
 21
-97.3599999999999994
 31
0
  0
ARC
  5
223
330
1B
100
AcDbEntity
  8
Edge.Cuts
100
AcDbCircle
 10
114.7999999999999972
 20
-97.3599999999999994
 30
0
 40
4.
100
AcDbArc
 50
-90.00000000
 51
-0.00000000
  0
ENDSEC
  0
SECTION
  2
OBJECTS
  0
DICTIONARY
  5
21
330
0
100
AcDbDictionary
281
1
  3
ACAD_GROUP
350
224
  3
ACAD_LAYOUT
350
22
  3
ACAD_PLOTSTYLENAME
350
11
  0
DICTIONARY
  5
224
330
21
100
AcDbDictionary
281
1
  0
ACDBDICTIONARYWDFLT
  5
11
330
21
100
AcDbDictionary
281
1
  3
Normal
350
10
100
AcDbDictionaryWithDefault
340
10
  0
ACDBPLACEHOLDER
  5
10
330
11
  0
DICTIONARY
  5
22
330
21
100
AcDbDictionary
281
1
  3
Model
350
1E
  3
Layout1
350
1F
  3
Layout2
350
20
  0
LAYOUT
  5
1E
330
22
100
AcDbPlotSettings
  1

  2
none_device
  4
A3
  6

 40
0.0
 41
0.0
 42
0.0
 43
0.0
 44
420.0
 45
297.0
 46
0.0
 47
0.0
 48
0.0
 49
0.0
140
0.0
141
0.0
142
1.0
143
1.0
 70
1024
 72
1
 73
0
 74
5
  7

 75
16
 76
0
 77
2
 78
300
147
1.0
148
0.0
149
0.0
100
AcDbLayout
  1
Model
 70
1
 71
0
 10
0.0
 20
0.0
 11
420.0
 21
297.0
 12
0.0
 22
0.0
 32
0.0
 14
1e+20
 24
1e+20
 34
1e+20
 15
-1e+20
 25
-1e+20
 35
-1e+20
146
0.0
 13
0.0
 23
0.0
 33
0.0
 16
1.0
 26
0.0
 36
0.0
 17
0.0
 27
1.0
 37
0.0
 76
0
330
1B
  0
LAYOUT
  5
1F
330
22
100
AcDbPlotSettings
  1

  2
none_device
  4
A3
  6

 40
0.0
 41
0.0
 42
0.0
 43
0.0
 44
420.0
 45
297.0
 46
0.0
 47
0.0
 48
0.0
 49
0.0
140
0.0
141
0.0
142
1.0
143
1.0
 70
0
 72
1
 73
0
 74
5
  7

 75
16
 76
0
 77
2
 78
300
147
1.0
148
0.0
149
0.0
100
AcDbLayout
  1
Layout1
 70
1
 71
1
 10
0.0
 20
0.0
 11
420.0
 21
297.0
 12
0.0
 22
0.0
 32
0.0
 14
1e+20
 24
1e+20
 34
1e+20
 15
-1e+20
 25
-1e+20
 35
-1e+20
146
0.0
 13
0.0
 23
0.0
 33
0.0
 16
1.0
 26
0.0
 36
0.0
 17
0.0
 27
1.0
 37
0.0
 76
0
330
1C
  0
LAYOUT
  5
20
330
22
100
AcDbPlotSettings
  1

  2
none_device
  4
A3
  6

 40
0.0
 41
0.0
 42
0.0
 43
0.0
 44
420.0
 45
297.0
 46
0.0
 47
0.0
 48
0.0
 49
0.0
140
0.0
141
0.0
142
1.0
143
1.0
 70
0
 72
1
 73
0
 74
5
  7

 75
16
 76
0
 77
2
 78
300
147
1.0
148
0.0
149
0.0
100
AcDbLayout
  1
Layout2
 70
1
 71
2
 10
0.0
 20
0.0
 11
420.0
 21
297.0
 12
0.0
 22
0.0
 32
0.0
 14
1e+20
 24
1e+20
 34
1e+20
 15
-1e+20
 25
-1e+20
 35
-1e+20
146
0.0
 13
0.0
 23
0.0
 33
0.0
 16
1.0
 26
0.0
 36
0.0
 17
0.0
 27
1.0
 37
0.0
 76
0
330
1D
  0
ENDSEC
  0
EOF
