  0
SECTION
  2
HEADER
  9
$ANGBASE
  50
0.0
  9
$ANGDIR
  70
1
  9
$MEASUREMENT
  70
1
  0
ENDSEC
  0
SECTION
  2
TABLES
  0
TABLE
  2
LTYPE
  70
4
  0
LTYPE
  5
40F
  2
CONTINUOUS
  70
0
  3
Solid line
  72
65
  73
0
  40
0.0
  0
LTYPE
  5
410
  2
DASHDOT
 70
0
  3
Dash Dot ____ _ ____ _
 72
65
 73
4
 40
2.0
 49
1.25
 49
-0.25
 49
0.25
 49
-0.25
  0
LTYPE
  5
411
  2
DASHED
 70
0
  3
Dashed __ __ __ __ __
 72
65
 73
2
 40
0.75
 49
0.5
 49
-0.25
  0
LTYPE
  5
43B
  2
DOTTED
 70
0
  3
Dotted .  .  .  .
 72
65
 73
2
 40
0.2
 49
0.0
 49
-0.2
  0
ENDTAB
  0
TABLE
  2
STYLE
  70
4
  0
STYLE
  2
KICAD
  70
0
  40
0
  41
1
  42
1
  50
0
  71
0
  3
isocp.shx
  0
STYLE
  2
KICADB
  70
0
  40
0
  41
1
  42
1
  50
0
  71
0
  3
isocp.shx
  0
STYLE
  2
KICADI
  70
0
  40
0
  41
1
  42
1
  50
15
  71
0
  3
isocp.shx
  0
STYLE
  2
KICADBI
  70
0
  40
0
  41
1
  42
1
  50
15
  71
0
  3
isocp.shx
  0
ENDTAB
  0
TABLE
  2
LAYER
  70
35
  0
LAYER
  2
BLACK
  70
0
  62
7
  6
CONTINUOUS
  0
LAYER
  2
GRAY1
  70
0
  62
251
  6
CONTINUOUS
  0
LAYER
  2
GRAY2
  70
0
  62
8
  6
CONTINUOUS
  0
LAYER
  2
GRAY3
  70
0
  62
9
  6
CONTINUOUS
  0
LAYER
  2
WHITE
  70
0
  62
7
  6
CONTINUOUS
  0
LAYER
  2
LYELLOW
  70
0
  62
51
  6
CONTINUOUS
  0
LAYER
  2
LORANGE
  70
0
  62
41
  6
CONTINUOUS
  0
LAYER
  2
BLUE1
  70
0
  62
178
  6
CONTINUOUS
  0
LAYER
  2
GREEN1
  70
0
  62
98
  6
CONTINUOUS
  0
LAYER
  2
CYAN1
  70
0
  62
138
  6
CONTINUOUS
  0
LAYER
  2
RED1
  70
0
  62
18
  6
CONTINUOUS
  0
LAYER
  2
MAGENTA1
  70
0
  62
228
  6
CONTINUOUS
  0
LAYER
  2
BROWN1
  70
0
  62
58
  6
CONTINUOUS
  0
LAYER
  2
ORANGE1
  70
0
  62
34
  6
CONTINUOUS
  0
LAYER
  2
BLUE2
  70
0
  62
5
  6
CONTINUOUS
  0
LAYER
  2
GREEN2
  70
0
  62
3
  6
CONTINUOUS
  0
LAYER
  2
CYAN2
  70
0
  62
4
  6
CONTINUOUS
  0
LAYER
  2
RED2
  70
0
  62
1
  6
CONTINUOUS
  0
LAYER
  2
MAGENTA2
  70
0
  62
6
  6
CONTINUOUS
  0
LAYER
  2
BROWN2
  70
0
  62
54
  6
CONTINUOUS
  0
LAYER
  2
ORANGE2
  70
0
  62
42
  6
CONTINUOUS
  0
LAYER
  2
BLUE3
  70
0
  62
171
  6
CONTINUOUS
  0
LAYER
  2
GREEN3
  70
0
  62
91
  6
CONTINUOUS
  0
LAYER
  2
CYAN3
  70
0
  62
131
  6
CONTINUOUS
  0
LAYER
  2
RED3
  70
0
  62
11
  6
CONTINUOUS
  0
LAYER
  2
MAGENTA3
  70
0
  62
221
  6
CONTINUOUS
  0
LAYER
  2
YELLOW3
  70
0
  62
2
  6
CONTINUOUS
  0
LAYER
  2
ORANGE3
  70
0
  62
32
  6
CONTINUOUS
  0
LAYER
  2
BLUE4
  70
0
  62
5
  6
CONTINUOUS
  0
LAYER
  2
GREEN4
  70
0
  62
3
  6
CONTINUOUS
  0
LAYER
  2
CYAN4
  70
0
  62
4
  6
CONTINUOUS
  0
LAYER
  2
RED4
  70
0
  62
1
  6
CONTINUOUS
  0
LAYER
  2
MAGENTA4
  70
0
  62
6
  6
CONTINUOUS
  0
LAYER
  2
YELLOW4
  70
0
  62
2
  6
CONTINUOUS
  0
LAYER
  2
ORANGE4
  70
0
  62
40
  6
CONTINUOUS
  0
ENDTAB
  0
ENDSEC
  0
SECTION
  2
ENTITIES
0
LINE
8
LYELLOW
6
CONTINUOUS
10
51.6098189999999946
20
-50.3333329999999961
11
52.3241039999999984
21
-50.3333329999999961
0
LINE
8
LYELLOW
6
CONTINUOUS
10
52.3241039999999984
20
-50.3333329999999961
11
52.4669609999999977
21
-50.3809520000000006
0
LINE
8
LYELLOW
6
CONTINUOUS
10
52.4669609999999977
20
-50.3809520000000006
11
52.5621999999999971
21
-50.4761899999999955
0
LINE
8
LYELLOW
6
CONTINUOUS
10
52.5621999999999971
20
-50.4761899999999955
11
52.6098189999999946
21
-50.6190469999999948
0
LINE
8
LYELLOW
6
CONTINUOUS
10
52.6098189999999946
20
-50.6190469999999948
11
52.6098189999999946
21
-50.7142849999999967
0
LINE
8
LYELLOW
6
CONTINUOUS
10
52.6098189999999946
20
-49.3333329999999961
11
52.6098189999999946
21
-49.9047610000000006
0
LINE
8
LYELLOW
6
CONTINUOUS
10
52.6098189999999946
20
-49.6190469999999948
11
51.6098189999999946
21
-49.6190469999999948
0
LINE
8
LYELLOW
6
CONTINUOUS
10
51.6098189999999946
20
-49.6190469999999948
11
51.752676000000001
21
-49.7142849999999967
0
LINE
8
LYELLOW
6
CONTINUOUS
10
51.752676000000001
20
-49.7142849999999967
11
51.8479139999999958
21
-49.8095229999999987
0
LINE
8
LYELLOW
6
CONTINUOUS
10
51.8479139999999958
20
-49.8095229999999987
11
51.8955330000000004
21
-49.9047610000000006
0
LINE
8
LYELLOW
6
CONTINUOUS
10
34.8030329999999992
20
-83.5595799999999969
11
34.7554140000000018
21
-83.6071999999999917
0
LINE
8
LYELLOW
6
CONTINUOUS
10
34.7554140000000018
20
-83.6071999999999917
11
34.6125569999999954
21
-83.6548189999999892
0
LINE
8
LYELLOW
6
CONTINUOUS
10
34.6125569999999954
20
-83.6548189999999892
11
34.5173190000000005
21
-83.6548189999999892
0
LINE
8
LYELLOW
6
CONTINUOUS
10
34.5173190000000005
20
-83.6548189999999892
11
34.3744620000000012
21
-83.6071999999999917
0
LINE
8
LYELLOW
6
CONTINUOUS
10
34.3744620000000012
20
-83.6071999999999917
11
34.2792239999999993
21
-83.5119609999999994
0
LINE
8
LYELLOW
6
CONTINUOUS
10
34.2792239999999993
20
-83.5119609999999994
11
34.2316050000000018
21
-83.4167229999999904
0
LINE
8
LYELLOW
6
CONTINUOUS
10
34.2316050000000018
20
-83.4167229999999904
11
34.1839859999999973
21
-83.2262470000000008
0
LINE
8
LYELLOW
6
CONTINUOUS
10
34.1839859999999973
20
-83.2262470000000008
11
34.1839859999999973
21
-83.0833899999999943
0
LINE
8
LYELLOW
6
CONTINUOUS
10
34.1839859999999973
20
-83.0833899999999943
11
34.2316050000000018
21
-82.8929139999999904
0
LINE
8
LYELLOW
6
CONTINUOUS
10
34.2316050000000018
20
-82.8929139999999904
11
34.2792239999999993
21
-82.7976759999999956
0
LINE
8
LYELLOW
6
CONTINUOUS
10
34.2792239999999993
20
-82.7976759999999956
11
34.3744620000000012
21
-82.7024380000000008
0
LINE
8
LYELLOW
6
CONTINUOUS
10
34.3744620000000012
20
-82.7024380000000008
11
34.5173190000000005
21
-82.6548189999999892
0
LINE
8
LYELLOW
6
CONTINUOUS
10
34.5173190000000005
20
-82.6548189999999892
11
34.6125569999999954
21
-82.6548189999999892
0
LINE
8
LYELLOW
6
CONTINUOUS
10
34.6125569999999954
20
-82.6548189999999892
11
34.7554140000000018
21
-82.7024380000000008
0
LINE
8
LYELLOW
6
CONTINUOUS
10
34.7554140000000018
20
-82.7024380000000008
11
34.8030329999999992
21
-82.7500569999999982
0
LINE
8
LYELLOW
6
CONTINUOUS
10
35.7554140000000018
20
-83.6548189999999892
11
35.1839859999999973
21
-83.6548189999999892
0
LINE
8
LYELLOW
6
CONTINUOUS
10
35.469699999999996
20
-83.6548189999999892
11
35.469699999999996
21
-82.6548189999999892
0
LINE
8
LYELLOW
6
CONTINUOUS
10
35.469699999999996
20
-82.6548189999999892
11
35.3744620000000012
21
-82.7976759999999956
0
LINE
8
LYELLOW
6
CONTINUOUS
10
35.3744620000000012
20
-82.7976759999999956
11
35.2792239999999993
21
-82.8929139999999904
0
LINE
8
LYELLOW
6
CONTINUOUS
10
35.2792239999999993
20
-82.8929139999999904
11
35.1839859999999973
21
-82.9405330000000021
0
LINE
8
LYELLOW
6
CONTINUOUS
10
54.1269050000000007
20
-56.1848189999999974
11
54.1269050000000007
21
-55.1848189999999974
0
LINE
8
LYELLOW
6
CONTINUOUS
10
54.1269050000000007
20
-55.1848189999999974
11
54.3649999999999949
21
-55.1848189999999974
0
LINE
8
LYELLOW
6
CONTINUOUS
10
54.3649999999999949
20
-55.1848189999999974
11
54.5078569999999942
21
-55.2324379999999948
0
LINE
8
LYELLOW
6
CONTINUOUS
10
54.5078569999999942
20
-55.2324379999999948
11
54.6030949999999962
21
-55.3276759999999967
0
LINE
8
LYELLOW
6
CONTINUOUS
10
54.6030949999999962
20
-55.3276759999999967
11
54.6507140000000007
21
-55.4229139999999987
0
LINE
8
LYELLOW
6
CONTINUOUS
10
54.6507140000000007
20
-55.4229139999999987
11
54.6983329999999981
21
-55.6133899999999954
0
LINE
8
LYELLOW
6
CONTINUOUS
10
54.6983329999999981
20
-55.6133899999999954
11
54.6983329999999981
21
-55.7562469999999948
0
LINE
8
LYELLOW
6
CONTINUOUS
10
54.6983329999999981
20
-55.7562469999999948
11
54.6507140000000007
21
-55.9467229999999986
0
LINE
8
LYELLOW
6
CONTINUOUS
10
54.6507140000000007
20
-55.9467229999999986
11
54.6030949999999962
21
-56.0419610000000006
0
LINE
8
LYELLOW
6
CONTINUOUS
10
54.6030949999999962
20
-56.0419610000000006
11
54.5078569999999942
21
-56.1372
0
LINE
8
LYELLOW
6
CONTINUOUS
10
54.5078569999999942
20
-56.1372
11
54.3649999999999949
21
-56.1848189999999974
0
LINE
8
LYELLOW
6
CONTINUOUS
10
54.3649999999999949
20
-56.1848189999999974
11
54.1269050000000007
21
-56.1848189999999974
0
LINE
8
LYELLOW
6
CONTINUOUS
10
55.0792859999999962
20
-55.2800569999999993
11
55.1269050000000007
21
-55.2324379999999948
0
LINE
8
LYELLOW
6
CONTINUOUS
10
55.1269050000000007
20
-55.2324379999999948
11
55.2221429999999955
21
-55.1848189999999974
0
LINE
8
LYELLOW
6
CONTINUOUS
10
55.2221429999999955
20
-55.1848189999999974
11
55.4602379999999968
21
-55.1848189999999974
0
LINE
8
LYELLOW
6
CONTINUOUS
10
55.4602379999999968
20
-55.1848189999999974
11
55.5554759999999987
21
-55.2324379999999948
0
LINE
8
LYELLOW
6
CONTINUOUS
10
55.5554759999999987
20
-55.2324379999999948
11
55.6030949999999962
21
-55.2800569999999993
0
LINE
8
LYELLOW
6
CONTINUOUS
10
55.6030949999999962
20
-55.2800569999999993
11
55.6507140000000007
21
-55.3752949999999942
0
LINE
8
LYELLOW
6
CONTINUOUS
10
55.6507140000000007
20
-55.3752949999999942
11
55.6507140000000007
21
-55.4705329999999961
0
LINE
8
LYELLOW
6
CONTINUOUS
10
55.6507140000000007
20
-55.4705329999999961
11
55.6030949999999962
21
-55.6133899999999954
0
LINE
8
LYELLOW
6
CONTINUOUS
10
55.6030949999999962
20
-55.6133899999999954
11
55.0316669999999988
21
-56.1848189999999974
0
LINE
8
LYELLOW
6
CONTINUOUS
10
55.0316669999999988
20
-56.1848189999999974
11
55.6507140000000007
21
-56.1848189999999974
0
LINE
8
LYELLOW
6
CONTINUOUS
10
49.5230949999999979
20
-56.5548189999999948
11
49.5230949999999979
21
-55.5548189999999948
0
LINE
8
LYELLOW
6
CONTINUOUS
10
50.0945229999999952
20
-56.5548189999999948
11
49.6659519999999972
21
-55.98339
0
LINE
8
LYELLOW
6
CONTINUOUS
10
50.0945229999999952
20
-55.5548189999999948
11
49.5230949999999979
21
-56.1262469999999993
0
LINE
8
LYELLOW
6
CONTINUOUS
10
81.6548190000000034
20
-49.303332999999995
11
82.369103999999993
21
-49.303332999999995
0
LINE
8
LYELLOW
6
CONTINUOUS
10
82.369103999999993
20
-49.303332999999995
11
82.5119609999999994
21
-49.3509519999999995
0
LINE
8
LYELLOW
6
CONTINUOUS
10
82.5119609999999994
20
-49.3509519999999995
11
82.6071999999999917
21
-49.4461899999999943
0
LINE
8
LYELLOW
6
CONTINUOUS
10
82.6071999999999917
20
-49.4461899999999943
11
82.6548189999999892
21
-49.5890470000000008
0
LINE
8
LYELLOW
6
CONTINUOUS
10
82.6548189999999892
20
-49.5890470000000008
11
82.6548189999999892
21
-49.6842849999999956
0
LINE
8
LYELLOW
6
CONTINUOUS
10
81.7500569999999982
20
-48.8747609999999995
11
81.7024380000000008
21
-48.8271419999999949
0
LINE
8
LYELLOW
6
CONTINUOUS
10
81.7024380000000008
20
-48.8271419999999949
11
81.6548190000000034
21
-48.7319040000000001
0
LINE
8
LYELLOW
6
CONTINUOUS
10
81.6548190000000034
20
-48.7319040000000001
11
81.6548190000000034
21
-48.4938089999999988
0
LINE
8
LYELLOW
6
CONTINUOUS
10
81.6548190000000034
20
-48.4938089999999988
11
81.7024380000000008
21
-48.3985709999999969
0
LINE
8
LYELLOW
6
CONTINUOUS
10
81.7024380000000008
20
-48.3985709999999969
11
81.7500569999999982
21
-48.3509519999999995
0
LINE
8
LYELLOW
6
CONTINUOUS
10
81.7500569999999982
20
-48.3509519999999995
11
81.845294999999993
21
-48.303332999999995
0
LINE
8
LYELLOW
6
CONTINUOUS
10
81.845294999999993
20
-48.303332999999995
11
81.9405330000000021
21
-48.303332999999995
0
LINE
8
LYELLOW
6
CONTINUOUS
10
81.9405330000000021
20
-48.303332999999995
11
82.0833899999999943
21
-48.3509519999999995
0
LINE
8
LYELLOW
6
CONTINUOUS
10
82.0833899999999943
20
-48.3509519999999995
11
82.6548189999999892
21
-48.9223799999999969
0
LINE
8
LYELLOW
6
CONTINUOUS
10
82.6548189999999892
20
-48.9223799999999969
11
82.6548189999999892
21
-48.303332999999995
0
LINE
8
LYELLOW
6
CONTINUOUS
10
35.2183330000000012
20
-95.334818999999996
11
34.884999999999998
21
-94.858627999999996
0
LINE
8
LYELLOW
6
CONTINUOUS
10
34.6469049999999967
20
-95.334818999999996
11
34.6469049999999967
21
-94.334818999999996
0
LINE
8
LYELLOW
6
CONTINUOUS
10
34.6469049999999967
20
-94.334818999999996
11
35.0278569999999974
21
-94.334818999999996
0
LINE
8
LYELLOW
6
CONTINUOUS
10
35.0278569999999974
20
-94.334818999999996
11
35.1230949999999993
21
-94.3824379999999934
0
LINE
8
LYELLOW
6
CONTINUOUS
10
35.1230949999999993
20
-94.3824379999999934
11
35.1707139999999967
21
-94.4300569999999908
0
LINE
8
LYELLOW
6
CONTINUOUS
10
35.1707139999999967
20
-94.4300569999999908
11
35.2183330000000012
21
-94.5252949999999998
0
LINE
8
LYELLOW
6
CONTINUOUS
10
35.2183330000000012
20
-94.5252949999999998
11
35.2183330000000012
21
-94.6681519999999921
0
LINE
8
LYELLOW
6
CONTINUOUS
10
35.2183330000000012
20
-94.6681519999999921
11
35.1707139999999967
21
-94.7633900000000011
0
LINE
8
LYELLOW
6
CONTINUOUS
10
35.1707139999999967
20
-94.7633900000000011
11
35.1230949999999993
21
-94.8110089999999985
0
LINE
8
LYELLOW
6
CONTINUOUS
10
35.1230949999999993
20
-94.8110089999999985
11
35.0278569999999974
21
-94.858627999999996
0
LINE
8
LYELLOW
6
CONTINUOUS
10
35.0278569999999974
20
-94.858627999999996
11
34.6469049999999967
21
-94.858627999999996
0
LINE
8
LYELLOW
6
CONTINUOUS
10
35.5992859999999993
20
-94.4300569999999908
11
35.6469049999999967
21
-94.3824379999999934
0
LINE
8
LYELLOW
6
CONTINUOUS
10
35.6469049999999967
20
-94.3824379999999934
11
35.7421429999999987
21
-94.334818999999996
0
LINE
8
LYELLOW
6
CONTINUOUS
10
35.7421429999999987
20
-94.334818999999996
11
35.9802379999999999
21
-94.334818999999996
0
LINE
8
LYELLOW
6
CONTINUOUS
10
35.9802379999999999
20
-94.334818999999996
11
36.0754760000000019
21
-94.3824379999999934
0
LINE
8
LYELLOW
6
CONTINUOUS
10
36.0754760000000019
20
-94.3824379999999934
11
36.1230949999999993
21
-94.4300569999999908
0
LINE
8
LYELLOW
6
CONTINUOUS
10
36.1230949999999993
20
-94.4300569999999908
11
36.1707139999999967
21
-94.5252949999999998
0
LINE
8
LYELLOW
6
CONTINUOUS
10
36.1707139999999967
20
-94.5252949999999998
11
36.1707139999999967
21
-94.6205329999999947
0
LINE
8
LYELLOW
6
CONTINUOUS
10
36.1707139999999967
20
-94.6205329999999947
11
36.1230949999999993
21
-94.7633900000000011
0
LINE
8
LYELLOW
6
CONTINUOUS
10
36.1230949999999993
20
-94.7633900000000011
11
35.5516670000000019
21
-95.334818999999996
0
LINE
8
LYELLOW
6
CONTINUOUS
10
35.5516670000000019
20
-95.334818999999996
11
36.1707139999999967
21
-95.334818999999996
0
LINE
8
LYELLOW
6
CONTINUOUS
10
61.1130329999999944
20
-86.5348189999999988
11
60.7796999999999983
21
-86.0586279999999988
0
LINE
8
LYELLOW
6
CONTINUOUS
10
60.541604999999997
20
-86.5348189999999988
11
60.541604999999997
21
-85.5348189999999988
0
LINE
8
LYELLOW
6
CONTINUOUS
10
60.541604999999997
20
-85.5348189999999988
11
60.9225569999999976
21
-85.5348189999999988
0
LINE
8
LYELLOW
6
CONTINUOUS
10
60.9225569999999976
20
-85.5348189999999988
11
61.0177949999999996
21
-85.5824379999999962
0
LINE
8
LYELLOW
6
CONTINUOUS
10
61.0177949999999996
20
-85.5824379999999962
11
61.065413999999997
21
-85.6300569999999936
0
LINE
8
LYELLOW
6
CONTINUOUS
10
61.065413999999997
20
-85.6300569999999936
11
61.1130329999999944
21
-85.7252950000000027
0
LINE
8
LYELLOW
6
CONTINUOUS
10
61.1130329999999944
20
-85.7252950000000027
11
61.1130329999999944
21
-85.8681519999999949
0
LINE
8
LYELLOW
6
CONTINUOUS
10
61.1130329999999944
20
-85.8681519999999949
11
61.065413999999997
21
-85.9633899999999898
0
LINE
8
LYELLOW
6
CONTINUOUS
10
61.065413999999997
20
-85.9633899999999898
11
61.0177949999999996
21
-86.0110090000000014
0
LINE
8
LYELLOW
6
CONTINUOUS
10
61.0177949999999996
20
-86.0110090000000014
11
60.9225569999999976
21
-86.0586279999999988
0
LINE
8
LYELLOW
6
CONTINUOUS
10
60.9225569999999976
20
-86.0586279999999988
11
60.541604999999997
21
-86.0586279999999988
0
LINE
8
LYELLOW
6
CONTINUOUS
10
62.065413999999997
20
-86.5348189999999988
11
61.4939859999999996
21
-86.5348189999999988
0
LINE
8
LYELLOW
6
CONTINUOUS
10
61.7796999999999983
20
-86.5348189999999988
11
61.7796999999999983
21
-85.5348189999999988
0
LINE
8
LYELLOW
6
CONTINUOUS
10
61.7796999999999983
20
-85.5348189999999988
11
61.6844619999999964
21
-85.6776759999999911
0
LINE
8
LYELLOW
6
CONTINUOUS
10
61.6844619999999964
20
-85.6776759999999911
11
61.5892239999999944
21
-85.7729140000000001
0
LINE
8
LYELLOW
6
CONTINUOUS
10
61.5892239999999944
20
-85.7729140000000001
11
61.4939859999999996
21
-85.8205329999999975
0
LINE
8
LYELLOW
6
CONTINUOUS
10
71.0348189999999988
20
-49.8095229999999987
11
70.0348189999999988
21
-49.8095229999999987
0
LINE
8
LYELLOW
6
CONTINUOUS
10
70.0348189999999988
20
-49.8095229999999987
11
70.7491040000000027
21
-49.4761899999999955
0
LINE
8
LYELLOW
6
CONTINUOUS
10
70.7491040000000027
20
-49.4761899999999955
11
70.0348189999999988
21
-49.1428569999999993
0
LINE
8
LYELLOW
6
CONTINUOUS
10
70.0348189999999988
20
-49.1428569999999993
11
71.0348189999999988
21
-49.1428569999999993
0
LINE
8
LYELLOW
6
CONTINUOUS
10
71.0348189999999988
20
-48.1428569999999993
11
71.0348189999999988
21
-48.7142849999999967
0
LINE
8
LYELLOW
6
CONTINUOUS
10
71.0348189999999988
20
-48.428570999999998
11
70.0348189999999988
21
-48.428570999999998
0
LINE
8
LYELLOW
6
CONTINUOUS
10
70.0348189999999988
20
-48.428570999999998
11
70.1776759999999911
21
-48.523809
0
LINE
8
LYELLOW
6
CONTINUOUS
10
70.1776759999999911
20
-48.523809
11
70.2729140000000001
21
-48.6190469999999948
0
LINE
8
LYELLOW
6
CONTINUOUS
10
70.2729140000000001
20
-48.6190469999999948
11
70.3205329999999975
21
-48.7142849999999967
0
LINE
8
LYELLOW
6
CONTINUOUS
10
36.216904999999997
20
-56.1848189999999974
11
36.216904999999997
21
-55.1848189999999974
0
LINE
8
LYELLOW
6
CONTINUOUS
10
36.216904999999997
20
-55.1848189999999974
11
36.4549999999999983
21
-55.1848189999999974
0
LINE
8
LYELLOW
6
CONTINUOUS
10
36.4549999999999983
20
-55.1848189999999974
11
36.5978569999999976
21
-55.2324379999999948
0
LINE
8
LYELLOW
6
CONTINUOUS
10
36.5978569999999976
20
-55.2324379999999948
11
36.6930949999999996
21
-55.3276759999999967
0
LINE
8
LYELLOW
6
CONTINUOUS
10
36.6930949999999996
20
-55.3276759999999967
11
36.740713999999997
21
-55.4229139999999987
0
LINE
8
LYELLOW
6
CONTINUOUS
10
36.740713999999997
20
-55.4229139999999987
11
36.7883330000000015
21
-55.6133899999999954
0
LINE
8
LYELLOW
6
CONTINUOUS
10
36.7883330000000015
20
-55.6133899999999954
11
36.7883330000000015
21
-55.7562469999999948
0
LINE
8
LYELLOW
6
CONTINUOUS
10
36.7883330000000015
20
-55.7562469999999948
11
36.740713999999997
21
-55.9467229999999986
0
LINE
8
LYELLOW
6
CONTINUOUS
10
36.740713999999997
20
-55.9467229999999986
11
36.6930949999999996
21
-56.0419610000000006
0
LINE
8
LYELLOW
6
CONTINUOUS
10
36.6930949999999996
20
-56.0419610000000006
11
36.5978569999999976
21
-56.1372
0
LINE
8
LYELLOW
6
CONTINUOUS
10
36.5978569999999976
20
-56.1372
11
36.4549999999999983
21
-56.1848189999999974
0
LINE
8
LYELLOW
6
CONTINUOUS
10
36.4549999999999983
20
-56.1848189999999974
11
36.216904999999997
21
-56.1848189999999974
0
LINE
8
LYELLOW
6
CONTINUOUS
10
37.740713999999997
20
-56.1848189999999974
11
37.1692859999999996
21
-56.1848189999999974
0
LINE
8
LYELLOW
6
CONTINUOUS
10
37.4549999999999983
20
-56.1848189999999974
11
37.4549999999999983
21
-55.1848189999999974
0
LINE
8
LYELLOW
6
CONTINUOUS
10
37.4549999999999983
20
-55.1848189999999974
11
37.3597619999999964
21
-55.3276759999999967
0
LINE
8
LYELLOW
6
CONTINUOUS
10
37.3597619999999964
20
-55.3276759999999967
11
37.2645240000000015
21
-55.4229139999999987
0
LINE
8
LYELLOW
6
CONTINUOUS
10
37.2645240000000015
20
-55.4229139999999987
11
37.1692859999999996
21
-55.4705329999999961
0
LINE
8
LYELLOW
6
CONTINUOUS
10
31.6130949999999977
20
-56.5548189999999948
11
31.6130949999999977
21
-55.5548189999999948
0
LINE
8
LYELLOW
6
CONTINUOUS
10
32.1845229999999987
20
-56.5548189999999948
11
31.7559519999999971
21
-55.98339
0
LINE
8
LYELLOW
6
CONTINUOUS
10
32.1845229999999987
20
-55.5548189999999948
11
31.6130949999999977
21
-56.1262469999999993
0
LINE
8
LYELLOW
6
CONTINUOUS
10
49.9883329999999972
20
-95.334818999999996
11
49.6550000000000011
21
-94.858627999999996
0
LINE
8
LYELLOW
6
CONTINUOUS
10
49.4169049999999999
20
-95.334818999999996
11
49.4169049999999999
21
-94.334818999999996
0
LINE
8
LYELLOW
6
CONTINUOUS
10
49.4169049999999999
20
-94.334818999999996
11
49.7978570000000005
21
-94.334818999999996
0
LINE
8
LYELLOW
6
CONTINUOUS
10
49.7978570000000005
20
-94.334818999999996
11
49.8930949999999953
21
-94.3824379999999934
0
LINE
8
LYELLOW
6
CONTINUOUS
10
49.8930949999999953
20
-94.3824379999999934
11
49.9407139999999998
21
-94.4300569999999908
0
LINE
8
LYELLOW
6
CONTINUOUS
10
49.9407139999999998
20
-94.4300569999999908
11
49.9883329999999972
21
-94.5252949999999998
0
LINE
8
LYELLOW
6
CONTINUOUS
10
49.9883329999999972
20
-94.5252949999999998
11
49.9883329999999972
21
-94.6681519999999921
0
LINE
8
LYELLOW
6
CONTINUOUS
10
49.9883329999999972
20
-94.6681519999999921
11
49.9407139999999998
21
-94.7633900000000011
0
LINE
8
LYELLOW
6
CONTINUOUS
10
49.9407139999999998
20
-94.7633900000000011
11
49.8930949999999953
21
-94.8110089999999985
0
LINE
8
LYELLOW
6
CONTINUOUS
10
49.8930949999999953
20
-94.8110089999999985
11
49.7978570000000005
21
-94.858627999999996
0
LINE
8
LYELLOW
6
CONTINUOUS
10
49.7978570000000005
20
-94.858627999999996
11
49.4169049999999999
21
-94.858627999999996
0
LINE
8
LYELLOW
6
CONTINUOUS
10
50.3216669999999979
20
-94.334818999999996
11
50.9407139999999998
21
-94.334818999999996
0
LINE
8
LYELLOW
6
CONTINUOUS
10
50.9407139999999998
20
-94.334818999999996
11
50.6073809999999966
21
-94.7157709999999895
0
LINE
8
LYELLOW
6
CONTINUOUS
10
50.6073809999999966
20
-94.7157709999999895
11
50.750237999999996
21
-94.7157709999999895
0
LINE
8
LYELLOW
6
CONTINUOUS
10
50.750237999999996
20
-94.7157709999999895
11
50.8454759999999979
21
-94.7633900000000011
0
LINE
8
LYELLOW
6
CONTINUOUS
10
50.8454759999999979
20
-94.7633900000000011
11
50.8930949999999953
21
-94.8110089999999985
0
LINE
8
LYELLOW
6
CONTINUOUS
10
50.8930949999999953
20
-94.8110089999999985
11
50.9407139999999998
21
-94.9062469999999934
0
LINE
8
LYELLOW
6
CONTINUOUS
10
50.9407139999999998
20
-94.9062469999999934
11
50.9407139999999998
21
-95.1443419999999946
0
LINE
8
LYELLOW
6
CONTINUOUS
10
50.9407139999999998
20
-95.1443419999999946
11
50.8930949999999953
21
-95.2395799999999895
0
LINE
8
LYELLOW
6
CONTINUOUS
10
50.8930949999999953
20
-95.2395799999999895
11
50.8454759999999979
21
-95.2871999999999986
0
LINE
8
LYELLOW
6
CONTINUOUS
10
50.8454759999999979
20
-95.2871999999999986
11
50.750237999999996
21
-95.334818999999996
0
LINE
8
LYELLOW
6
CONTINUOUS
10
50.750237999999996
20
-95.334818999999996
11
50.4645239999999973
21
-95.334818999999996
0
LINE
8
LYELLOW
6
CONTINUOUS
10
50.4645239999999973
20
-95.334818999999996
11
50.3692859999999953
21
-95.2871999999999986
0
LINE
8
LYELLOW
6
CONTINUOUS
10
50.3692859999999953
20
-95.2871999999999986
11
50.3216669999999979
21
-95.2395799999999895
0
LINE
8
LYELLOW
6
CONTINUOUS
10
64.7583329999999933
20
-95.334818999999996
11
64.4249999999999972
21
-94.858627999999996
0
LINE
8
LYELLOW
6
CONTINUOUS
10
64.1869049999999959
20
-95.334818999999996
11
64.1869049999999959
21
-94.334818999999996
0
LINE
8
LYELLOW
6
CONTINUOUS
10
64.1869049999999959
20
-94.334818999999996
11
64.5678570000000036
21
-94.334818999999996
0
LINE
8
LYELLOW
6
CONTINUOUS
10
64.5678570000000036
20
-94.334818999999996
11
64.6630949999999984
21
-94.3824379999999934
0
LINE
8
LYELLOW
6
CONTINUOUS
10
64.6630949999999984
20
-94.3824379999999934
11
64.7107139999999958
21
-94.4300569999999908
0
LINE
8
LYELLOW
6
CONTINUOUS
10
64.7107139999999958
20
-94.4300569999999908
11
64.7583329999999933
21
-94.5252949999999998
0
LINE
8
LYELLOW
6
CONTINUOUS
10
64.7583329999999933
20
-94.5252949999999998
11
64.7583329999999933
21
-94.6681519999999921
0
LINE
8
LYELLOW
6
CONTINUOUS
10
64.7583329999999933
20
-94.6681519999999921
11
64.7107139999999958
21
-94.7633900000000011
0
LINE
8
LYELLOW
6
CONTINUOUS
10
64.7107139999999958
20
-94.7633900000000011
11
64.6630949999999984
21
-94.8110089999999985
0
LINE
8
LYELLOW
6
CONTINUOUS
10
64.6630949999999984
20
-94.8110089999999985
11
64.5678570000000036
21
-94.858627999999996
0
LINE
8
LYELLOW
6
CONTINUOUS
10
64.5678570000000036
20
-94.858627999999996
11
64.1869049999999959
21
-94.858627999999996
0
LINE
8
LYELLOW
6
CONTINUOUS
10
65.615476000000001
20
-94.6681519999999921
11
65.615476000000001
21
-95.334818999999996
0
LINE
8
LYELLOW
6
CONTINUOUS
10
65.3773809999999997
20
-94.2871999999999986
11
65.1392859999999985
21
-95.0014850000000024
0
LINE
8
LYELLOW
6
CONTINUOUS
10
65.1392859999999985
20
-95.0014850000000024
11
65.7583329999999933
21
-95.0014850000000024
0
LINE
8
LYELLOW
6
CONTINUOUS
10
35.6797609999999992
20
-69.4000570000000039
11
35.5845229999999972
21
-69.3524379999999923
0
LINE
8
LYELLOW
6
CONTINUOUS
10
35.5845229999999972
20
-69.3524379999999923
11
35.4892849999999953
21
-69.2571999999999974
0
LINE
8
LYELLOW
6
CONTINUOUS
10
35.4892849999999953
20
-69.2571999999999974
11
35.346427999999996
21
-69.1143419999999935
0
LINE
8
LYELLOW
6
CONTINUOUS
10
35.346427999999996
20
-69.1143419999999935
11
35.2511900000000011
21
-69.0667229999999961
0
LINE
8
LYELLOW
6
CONTINUOUS
10
35.2511900000000011
20
-69.0667229999999961
11
35.1559519999999992
21
-69.0667229999999961
0
LINE
8
LYELLOW
6
CONTINUOUS
10
35.2035709999999966
20
-69.3048189999999948
11
35.1083330000000018
21
-69.2571999999999974
0
LINE
8
LYELLOW
6
CONTINUOUS
10
35.1083330000000018
20
-69.2571999999999974
11
35.0130949999999999
21
-69.1619609999999909
0
LINE
8
LYELLOW
6
CONTINUOUS
10
35.0130949999999999
20
-69.1619609999999909
11
34.9654759999999953
21
-68.9714850000000013
0
LINE
8
LYELLOW
6
CONTINUOUS
10
34.9654759999999953
20
-68.9714850000000013
11
34.9654759999999953
21
-68.6381519999999909
0
LINE
8
LYELLOW
6
CONTINUOUS
10
34.9654759999999953
20
-68.6381519999999909
11
35.0130949999999999
21
-68.4476760000000013
0
LINE
8
LYELLOW
6
CONTINUOUS
10
35.0130949999999999
20
-68.4476760000000013
11
35.1083330000000018
21
-68.3524379999999923
0
LINE
8
LYELLOW
6
CONTINUOUS
10
35.1083330000000018
20
-68.3524379999999923
11
35.2035709999999966
21
-68.3048189999999948
0
LINE
8
LYELLOW
6
CONTINUOUS
10
35.2035709999999966
20
-68.3048189999999948
11
35.3940470000000005
21
-68.3048189999999948
0
LINE
8
LYELLOW
6
CONTINUOUS
10
35.3940470000000005
20
-68.3048189999999948
11
35.4892849999999953
21
-68.3524379999999923
0
LINE
8
LYELLOW
6
CONTINUOUS
10
35.4892849999999953
20
-68.3524379999999923
11
35.5845229999999972
21
-68.4476760000000013
0
LINE
8
LYELLOW
6
CONTINUOUS
10
35.5845229999999972
20
-68.4476760000000013
11
35.6321420000000018
21
-68.6381519999999909
0
LINE
8
LYELLOW
6
CONTINUOUS
10
35.6321420000000018
20
-68.6381519999999909
11
35.6321420000000018
21
-68.9714850000000013
0
LINE
8
LYELLOW
6
CONTINUOUS
10
35.6321420000000018
20
-68.9714850000000013
11
35.5845229999999972
21
-69.1619609999999909
0
LINE
8
LYELLOW
6
CONTINUOUS
10
35.5845229999999972
20
-69.1619609999999909
11
35.4892849999999953
21
-69.2571999999999974
0
LINE
8
LYELLOW
6
CONTINUOUS
10
35.4892849999999953
20
-69.2571999999999974
11
35.3940470000000005
21
-69.3048189999999948
0
LINE
8
LYELLOW
6
CONTINUOUS
10
35.3940470000000005
20
-69.3048189999999948
11
35.2035709999999966
21
-69.3048189999999948
0
LINE
8
LYELLOW
6
CONTINUOUS
10
36.5845229999999972
20
-69.3048189999999948
11
36.0130949999999999
21
-69.3048189999999948
0
LINE
8
LYELLOW
6
CONTINUOUS
10
36.2988089999999985
20
-69.3048189999999948
11
36.2988089999999985
21
-68.3048189999999948
0
LINE
8
LYELLOW
6
CONTINUOUS
10
36.2988089999999985
20
-68.3048189999999948
11
36.2035709999999966
21
-68.4476760000000013
0
LINE
8
LYELLOW
6
CONTINUOUS
10
36.2035709999999966
20
-68.4476760000000013
11
36.1083330000000018
21
-68.5429139999999961
0
LINE
8
LYELLOW
6
CONTINUOUS
10
36.1083330000000018
20
-68.5429139999999961
11
36.0130949999999999
21
-68.5905329999999935
0
LINE
8
LYELLOW
6
CONTINUOUS
10
47.6530330000000006
20
-86.3095799999999969
11
47.6054139999999961
21
-86.3571999999999917
0
LINE
8
LYELLOW
6
CONTINUOUS
10
47.6054139999999961
20
-86.3571999999999917
11
47.4625569999999968
21
-86.4048189999999892
0
LINE
8
LYELLOW
6
CONTINUOUS
10
47.4625569999999968
20
-86.4048189999999892
11
47.3673189999999948
21
-86.4048189999999892
0
LINE
8
LYELLOW
6
CONTINUOUS
10
47.3673189999999948
20
-86.4048189999999892
11
47.2244619999999955
21
-86.3571999999999917
0
LINE
8
LYELLOW
6
CONTINUOUS
10
47.2244619999999955
20
-86.3571999999999917
11
47.1292240000000007
21
-86.2619609999999994
0
LINE
8
LYELLOW
6
CONTINUOUS
10
47.1292240000000007
20
-86.2619609999999994
11
47.0816049999999962
21
-86.1667229999999904
0
LINE
8
LYELLOW
6
CONTINUOUS
10
47.0816049999999962
20
-86.1667229999999904
11
47.0339859999999987
21
-85.9762470000000008
0
LINE
8
LYELLOW
6
CONTINUOUS
10
47.0339859999999987
20
-85.9762470000000008
11
47.0339859999999987
21
-85.8333899999999943
0
LINE
8
LYELLOW
6
CONTINUOUS
10
47.0339859999999987
20
-85.8333899999999943
11
47.0816049999999962
21
-85.6429139999999904
0
LINE
8
LYELLOW
6
CONTINUOUS
10
47.0816049999999962
20
-85.6429139999999904
11
47.1292240000000007
21
-85.5476759999999956
0
LINE
8
LYELLOW
6
CONTINUOUS
10
47.1292240000000007
20
-85.5476759999999956
11
47.2244619999999955
21
-85.4524380000000008
0
LINE
8
LYELLOW
6
CONTINUOUS
10
47.2244619999999955
20
-85.4524380000000008
11
47.3673189999999948
21
-85.4048189999999892
0
LINE
8
LYELLOW
6
CONTINUOUS
10
47.3673189999999948
20
-85.4048189999999892
11
47.4625569999999968
21
-85.4048189999999892
0
LINE
8
LYELLOW
6
CONTINUOUS
10
47.4625569999999968
20
-85.4048189999999892
11
47.6054139999999961
21
-85.4524380000000008
0
LINE
8
LYELLOW
6
CONTINUOUS
10
47.6054139999999961
20
-85.4524380000000008
11
47.6530330000000006
21
-85.5000569999999982
0
LINE
8
LYELLOW
6
CONTINUOUS
10
48.0339859999999987
20
-85.5000569999999982
11
48.0816049999999962
21
-85.4524380000000008
0
LINE
8
LYELLOW
6
CONTINUOUS
10
48.0816049999999962
20
-85.4524380000000008
11
48.1768429999999981
21
-85.4048189999999892
0
LINE
8
LYELLOW
6
CONTINUOUS
10
48.1768429999999981
20
-85.4048189999999892
11
48.4149379999999994
21
-85.4048189999999892
0
LINE
8
LYELLOW
6
CONTINUOUS
10
48.4149379999999994
20
-85.4048189999999892
11
48.5101760000000013
21
-85.4524380000000008
0
LINE
8
LYELLOW
6
CONTINUOUS
10
48.5101760000000013
20
-85.4524380000000008
11
48.5577949999999987
21
-85.5000569999999982
0
LINE
8
LYELLOW
6
CONTINUOUS
10
48.5577949999999987
20
-85.5000569999999982
11
48.6054139999999961
21
-85.595294999999993
0
LINE
8
LYELLOW
6
CONTINUOUS
10
48.6054139999999961
20
-85.595294999999993
11
48.6054139999999961
21
-85.6905330000000021
0
LINE
8
LYELLOW
6
CONTINUOUS
10
48.6054139999999961
20
-85.6905330000000021
11
48.5577949999999987
21
-85.8333899999999943
0
LINE
8
LYELLOW
6
CONTINUOUS
10
48.5577949999999987
20
-85.8333899999999943
11
47.9863670000000013
21
-86.4048189999999892
0
LINE
8
LYELLOW
6
CONTINUOUS
10
47.9863670000000013
20
-86.4048189999999892
11
48.6054139999999961
21
-86.4048189999999892
0
LINE
8
LYELLOW
6
CONTINUOUS
10
66.1430950000000024
20
-61.5048189999999977
11
66.1430950000000024
21
-62.3143419999999963
0
LINE
8
LYELLOW
6
CONTINUOUS
10
66.1430950000000024
20
-62.3143419999999963
11
66.1907139999999998
21
-62.4095799999999983
0
LINE
8
LYELLOW
6
CONTINUOUS
10
66.1907139999999998
20
-62.4095799999999983
11
66.2383329999999972
21
-62.4572000000000003
0
LINE
8
LYELLOW
6
CONTINUOUS
10
66.2383329999999972
20
-62.4572000000000003
11
66.3335709999999921
21
-62.5048189999999977
0
LINE
8
LYELLOW
6
CONTINUOUS
10
66.3335709999999921
20
-62.5048189999999977
11
66.5240469999999959
21
-62.5048189999999977
0
LINE
8
LYELLOW
6
CONTINUOUS
10
66.5240469999999959
20
-62.5048189999999977
11
66.6192849999999908
21
-62.4572000000000003
0
LINE
8
LYELLOW
6
CONTINUOUS
10
66.6192849999999908
20
-62.4572000000000003
11
66.6669040000000024
21
-62.4095799999999983
0
LINE
8
LYELLOW
6
CONTINUOUS
10
66.6669040000000024
20
-62.4095799999999983
11
66.7145229999999998
21
-62.3143419999999963
0
LINE
8
LYELLOW
6
CONTINUOUS
10
66.7145229999999998
20
-62.3143419999999963
11
66.7145229999999998
21
-61.5048189999999977
0
LINE
8
LYELLOW
6
CONTINUOUS
10
67.1430950000000024
20
-61.6000569999999996
11
67.1907139999999998
21
-61.5524379999999951
0
LINE
8
LYELLOW
6
CONTINUOUS
10
67.1907139999999998
20
-61.5524379999999951
11
67.2859519999999947
21
-61.5048189999999977
0
LINE
8
LYELLOW
6
CONTINUOUS
10
67.2859519999999947
20
-61.5048189999999977
11
67.5240469999999959
21
-61.5048189999999977
0
LINE
8
LYELLOW
6
CONTINUOUS
10
67.5240469999999959
20
-61.5048189999999977
11
67.6192849999999908
21
-61.5524379999999951
0
LINE
8
LYELLOW
6
CONTINUOUS
10
67.6192849999999908
20
-61.5524379999999951
11
67.6669040000000024
21
-61.6000569999999996
0
LINE
8
LYELLOW
6
CONTINUOUS
10
67.6669040000000024
20
-61.6000569999999996
11
67.7145229999999998
21
-61.6952949999999944
0
LINE
8
LYELLOW
6
CONTINUOUS
10
67.7145229999999998
20
-61.6952949999999944
11
67.7145229999999998
21
-61.7905329999999964
0
LINE
8
LYELLOW
6
CONTINUOUS
10
67.7145229999999998
20
-61.7905329999999964
11
67.6669040000000024
21
-61.9333899999999957
0
LINE
8
LYELLOW
6
CONTINUOUS
10
67.6669040000000024
20
-61.9333899999999957
11
67.0954759999999908
21
-62.5048189999999977
0
LINE
8
LYELLOW
6
CONTINUOUS
10
67.0954759999999908
20
-62.5048189999999977
11
67.7145229999999998
21
-62.5048189999999977
0
LINE
8
LYELLOW
6
CONTINUOUS
10
50.573094999999995
20
-65.314819
11
50.573094999999995
21
-66.1243419999999986
0
LINE
8
LYELLOW
6
CONTINUOUS
10
50.573094999999995
20
-66.1243419999999986
11
50.6207139999999995
21
-66.2195799999999934
0
LINE
8
LYELLOW
6
CONTINUOUS
10
50.6207139999999995
20
-66.2195799999999934
11
50.668332999999997
21
-66.2672000000000025
0
LINE
8
LYELLOW
6
CONTINUOUS
10
50.668332999999997
20
-66.2672000000000025
11
50.7635709999999989
21
-66.314819
0
LINE
8
LYELLOW
6
CONTINUOUS
10
50.7635709999999989
20
-66.314819
11
50.9540469999999956
21
-66.314819
0
LINE
8
LYELLOW
6
CONTINUOUS
10
50.9540469999999956
20
-66.314819
11
51.0492849999999976
21
-66.2672000000000025
0
LINE
8
LYELLOW
6
CONTINUOUS
10
51.0492849999999976
20
-66.2672000000000025
11
51.096903999999995
21
-66.2195799999999934
0
LINE
8
LYELLOW
6
CONTINUOUS
10
51.096903999999995
20
-66.2195799999999934
11
51.1445229999999995
21
-66.1243419999999986
0
LINE
8
LYELLOW
6
CONTINUOUS
10
51.1445229999999995
20
-66.1243419999999986
11
51.1445229999999995
21
-65.314819
0
LINE
8
LYELLOW
6
CONTINUOUS
10
52.1445229999999995
20
-66.314819
11
51.573094999999995
21
-66.314819
0
LINE
8
LYELLOW
6
CONTINUOUS
10
51.8588090000000008
20
-66.314819
11
51.8588090000000008
21
-65.314819
0
LINE
8
LYELLOW
6
CONTINUOUS
10
51.8588090000000008
20
-65.314819
11
51.7635709999999989
21
-65.4576759999999922
0
LINE
8
LYELLOW
6
CONTINUOUS
10
51.7635709999999989
20
-65.4576759999999922
11
51.668332999999997
21
-65.5529140000000012
0
LINE
8
LYELLOW
6
CONTINUOUS
10
51.668332999999997
20
-65.5529140000000012
11
51.573094999999995
21
-65.6005329999999987
0
LINE
8
LYELLOW
6
CONTINUOUS
10
45.8549999999999969
20
-48.6199999999999974
11
45.8549999999999969
21
-51.3799999999999955
0
LINE
8
LYELLOW
6
CONTINUOUS
10
48.5049999999999955
20
-48.6199999999999974
11
45.8549999999999969
21
-48.6199999999999974
0
LINE
8
LYELLOW
6
CONTINUOUS
10
48.5049999999999955
20
-48.6199999999999974
11
48.5049999999999955
21
-51.3799999999999955
0
LINE
8
LYELLOW
6
CONTINUOUS
10
48.5049999999999955
20
-51.3799999999999955
11
45.8549999999999969
21
-51.3799999999999955
0
LINE
8
LYELLOW
6
CONTINUOUS
10
49.7749999999999986
20
-48.6199999999999974
11
51.1550000000000011
21
-48.6199999999999974
0
LINE
8
LYELLOW
6
CONTINUOUS
10
51.1550000000000011
20
-48.6199999999999974
11
51.1550000000000011
21
-50.
0
LINE
8
LYELLOW
6
CONTINUOUS
10
30.5600019999999972
20
-86.1349999999999909
11
31.3600019999999979
21
-86.1349999999999909
0
LINE
8
LYELLOW
6
CONTINUOUS
10
30.9600019999999994
20
-85.7349999999999994
11
30.9600019999999994
21
-86.5349999999999966
0
LINE
8
LYELLOW
6
CONTINUOUS
10
34.969699999999996
20
-84.3699999999999903
11
34.969699999999996
21
-92.5300000000000011
0
LINE
8
LYELLOW
6
CONTINUOUS
10
35.0096999999999952
20
-84.3699999999999903
11
35.0096999999999952
21
-92.5300000000000011
0
LINE
8
LYELLOW
6
CONTINUOUS
10
35.0497000000000014
20
-84.3709999999999951
11
35.0497000000000014
21
-92.5289999999999964
0
LINE
8
LYELLOW
6
CONTINUOUS
10
35.0897000000000006
20
-84.3719999999999999
11
35.0897000000000006
21
-92.5279999999999916
0
LINE
8
LYELLOW
6
CONTINUOUS
10
35.1296999999999997
20
-84.3729999999999905
11
35.1296999999999997
21
-92.527000000000001
0
LINE
8
LYELLOW
6
CONTINUOUS
10
35.1696999999999989
20
-84.375
11
35.1696999999999989
21
-92.5249999999999915
0
LINE
8
LYELLOW
6
CONTINUOUS
10
35.209699999999998
20
-84.3769999999999953
11
35.209699999999998
21
-92.5229999999999961
0
LINE
8
LYELLOW
6
CONTINUOUS
10
35.2496999999999971
20
-84.3799999999999955
11
35.2496999999999971
21
-92.519999999999996
0
LINE
8
LYELLOW
6
CONTINUOUS
10
35.2896999999999963
20
-84.3819999999999908
11
35.2896999999999963
21
-92.5180000000000007
0
LINE
8
LYELLOW
6
CONTINUOUS
10
35.3296999999999954
20
-84.3859999999999957
11
35.3296999999999954
21
-92.5139999999999958
0
LINE
8
LYELLOW
6
CONTINUOUS
10
35.3697000000000017
20
-84.3889999999999958
11
35.3697000000000017
21
-92.5109999999999957
0
LINE
8
LYELLOW
6
CONTINUOUS
10
35.4097000000000008
20
-84.3939999999999912
11
35.4097000000000008
21
-92.5060000000000002
0
LINE
8
LYELLOW
6
CONTINUOUS
10
35.4497
20
-84.3979999999999961
11
35.4497
21
-92.5019999999999953
0
LINE
8
LYELLOW
6
CONTINUOUS
10
35.4896999999999991
20
-84.4029999999999916
11
35.4896999999999991
21
-92.4969999999999999
0
LINE
8
LYELLOW
6
CONTINUOUS
10
35.5296999999999983
20
-84.4080000000000013
11
35.5296999999999983
21
-92.4919999999999902
0
LINE
8
LYELLOW
6
CONTINUOUS
10
35.5696999999999974
20
-84.4140000000000015
11
35.5696999999999974
21
-92.48599999999999
0
LINE
8
LYELLOW
6
CONTINUOUS
10
35.6096999999999966
20
-84.4200000000000017
11
35.6096999999999966
21
-92.4799999999999898
0
LINE
8
LYELLOW
6
CONTINUOUS
10
35.6496999999999957
20
-84.4269999999999925
11
35.6496999999999957
21
-92.472999999999999
0
LINE
8
LYELLOW
6
CONTINUOUS
10
35.6896999999999949
20
-84.4329999999999927
11
35.6896999999999949
21
-87.4099999999999966
0
LINE
8
LYELLOW
6
CONTINUOUS
10
35.6896999999999949
20
-89.4899999999999949
11
35.6896999999999949
21
-92.4669999999999987
0
LINE
8
LYELLOW
6
CONTINUOUS
10
35.7297000000000011
20
-84.4410000000000025
11
35.7297000000000011
21
-87.4099999999999966
0
LINE
8
LYELLOW
6
CONTINUOUS
10
35.7297000000000011
20
-89.4899999999999949
11
35.7297000000000011
21
-92.458999999999989
0
LINE
8
LYELLOW
6
CONTINUOUS
10
35.7697000000000003
20
-84.4479999999999933
11
35.7697000000000003
21
-87.4099999999999966
0
LINE
8
LYELLOW
6
CONTINUOUS
10
35.7697000000000003
20
-89.4899999999999949
11
35.7697000000000003
21
-92.4519999999999982
0
LINE
8
LYELLOW
6
CONTINUOUS
10
35.8096999999999994
20
-84.4569999999999936
11
35.8096999999999994
21
-87.4099999999999966
0
LINE
8
LYELLOW
6
CONTINUOUS
10
35.8096999999999994
20
-89.4899999999999949
11
35.8096999999999994
21
-92.4429999999999978
0
LINE
8
LYELLOW
6
CONTINUOUS
10
35.8496999999999986
20
-84.4649999999999892
11
35.8496999999999986
21
-87.4099999999999966
0
LINE
8
LYELLOW
6
CONTINUOUS
10
35.8496999999999986
20
-89.4899999999999949
11
35.8496999999999986
21
-92.4350000000000023
0
LINE
8
LYELLOW
6
CONTINUOUS
10
35.8896999999999977
20
-84.4739999999999895
11
35.8896999999999977
21
-87.4099999999999966
0
LINE
8
LYELLOW
6
CONTINUOUS
10
35.8896999999999977
20
-89.4899999999999949
11
35.8896999999999977
21
-92.4260000000000019
0
LINE
8
LYELLOW
6
CONTINUOUS
10
35.9296999999999969
20
-84.4829999999999899
11
35.9296999999999969
21
-87.4099999999999966
0
LINE
8
LYELLOW
6
CONTINUOUS
10
35.9296999999999969
20
-89.4899999999999949
11
35.9296999999999969
21
-92.4170000000000016
0
LINE
8
LYELLOW
6
CONTINUOUS
10
35.969699999999996
20
-84.492999999999995
11
35.969699999999996
21
-87.4099999999999966
0
LINE
8
LYELLOW
6
CONTINUOUS
10
35.969699999999996
20
-89.4899999999999949
11
35.969699999999996
21
-92.4069999999999965
0
LINE
8
LYELLOW
6
CONTINUOUS
10
36.0096999999999952
20
-84.5030000000000001
11
36.0096999999999952
21
-87.4099999999999966
0
LINE
8
LYELLOW
6
CONTINUOUS
10
36.0096999999999952
20
-89.4899999999999949
11
36.0096999999999952
21
-92.3969999999999914
0
LINE
8
LYELLOW
6
CONTINUOUS
10
36.0497000000000014
20
-84.5139999999999958
11
36.0497000000000014
21
-87.4099999999999966
0
LINE
8
LYELLOW
6
CONTINUOUS
10
36.0497000000000014
20
-89.4899999999999949
11
36.0497000000000014
21
-92.3859999999999957
0
LINE
8
LYELLOW
6
CONTINUOUS
10
36.0897000000000006
20
-84.5249999999999915
11
36.0897000000000006
21
-87.4099999999999966
0
LINE
8
LYELLOW
6
CONTINUOUS
10
36.0897000000000006
20
-89.4899999999999949
11
36.0897000000000006
21
-92.375
0
LINE
8
LYELLOW
6
CONTINUOUS
10
36.1296999999999997
20
-84.5369999999999919
11
36.1296999999999997
21
-87.4099999999999966
0
LINE
8
LYELLOW
6
CONTINUOUS
10
36.1296999999999997
20
-89.4899999999999949
11
36.1296999999999997
21
-92.3629999999999995
0
LINE
8
LYELLOW
6
CONTINUOUS
10
36.1696999999999989
20
-84.5489999999999924
11
36.1696999999999989
21
-87.4099999999999966
0
LINE
8
LYELLOW
6
CONTINUOUS
10
36.1696999999999989
20
-89.4899999999999949
11
36.1696999999999989
21
-92.3509999999999991
0
LINE
8
LYELLOW
6
CONTINUOUS
10
36.209699999999998
20
-84.5609999999999928
11
36.209699999999998
21
-87.4099999999999966
0
LINE
8
LYELLOW
6
CONTINUOUS
10
36.209699999999998
20
-89.4899999999999949
11
36.209699999999998
21
-92.3389999999999986
0
LINE
8
LYELLOW
6
CONTINUOUS
10
36.2496999999999971
20
-84.5739999999999981
11
36.2496999999999971
21
-87.4099999999999966
0
LINE
8
LYELLOW
6
CONTINUOUS
10
36.2496999999999971
20
-89.4899999999999949
11
36.2496999999999971
21
-92.3259999999999934
0
LINE
8
LYELLOW
6
CONTINUOUS
10
36.2896999999999963
20
-84.5869999999999891
11
36.2896999999999963
21
-87.4099999999999966
0
LINE
8
LYELLOW
6
CONTINUOUS
10
36.2896999999999963
20
-89.4899999999999949
11
36.2896999999999963
21
-92.3130000000000024
0
LINE
8
LYELLOW
6
CONTINUOUS
10
36.3296999999999954
20
-84.6009999999999991
11
36.3296999999999954
21
-87.4099999999999966
0
LINE
8
LYELLOW
6
CONTINUOUS
10
36.3296999999999954
20
-89.4899999999999949
11
36.3296999999999954
21
-92.2989999999999924
0
LINE
8
LYELLOW
6
CONTINUOUS
10
36.3697000000000017
20
-84.6149999999999949
11
36.3697000000000017
21
-87.4099999999999966
0
LINE
8
LYELLOW
6
CONTINUOUS
10
36.3697000000000017
20
-89.4899999999999949
11
36.3697000000000017
21
-92.2849999999999966
0
LINE
8
LYELLOW
6
CONTINUOUS
10
36.4097000000000008
20
-84.6299999999999955
11
36.4097000000000008
21
-87.4099999999999966
0
LINE
8
LYELLOW
6
CONTINUOUS
10
36.4097000000000008
20
-89.4899999999999949
11
36.4097000000000008
21
-92.269999999999996
0
LINE
8
LYELLOW
6
CONTINUOUS
10
36.4497
20
-84.644999999999996
11
36.4497
21
-87.4099999999999966
0
LINE
8
LYELLOW
6
CONTINUOUS
10
36.4497
20
-89.4899999999999949
11
36.4497
21
-92.2549999999999955
0
LINE
8
LYELLOW
6
CONTINUOUS
10
36.4896999999999991
20
-84.6610000000000014
11
36.4896999999999991
21
-87.4099999999999966
0
LINE
8
LYELLOW
6
CONTINUOUS
10
36.4896999999999991
20
-89.4899999999999949
11
36.4896999999999991
21
-92.2389999999999901
0
LINE
8
LYELLOW
6
CONTINUOUS
10
36.5296999999999983
20
-84.6769999999999925
11
36.5296999999999983
21
-87.4099999999999966
0
LINE
8
LYELLOW
6
CONTINUOUS
10
36.5296999999999983
20
-89.4899999999999949
11
36.5296999999999983
21
-92.222999999999999
0
LINE
8
LYELLOW
6
CONTINUOUS
10
36.5696999999999974
20
-84.6929999999999978
11
36.5696999999999974
21
-87.4099999999999966
0
LINE
8
LYELLOW
6
CONTINUOUS
10
36.5696999999999974
20
-89.4899999999999949
11
36.5696999999999974
21
-92.2069999999999936
0
LINE
8
LYELLOW
6
CONTINUOUS
10
36.6096999999999966
20
-84.7099999999999937
11
36.6096999999999966
21
-87.4099999999999966
0
LINE
8
LYELLOW
6
CONTINUOUS
10
36.6096999999999966
20
-89.4899999999999949
11
36.6096999999999966
21
-92.1899999999999977
0
LINE
8
LYELLOW
6
CONTINUOUS
10
36.6496999999999957
20
-84.7279999999999944
11
36.6496999999999957
21
-87.4099999999999966
0
LINE
8
LYELLOW
6
CONTINUOUS
10
36.6496999999999957
20
-89.4899999999999949
11
36.6496999999999957
21
-92.171999999999997
0
LINE
8
LYELLOW
6
CONTINUOUS
10
36.6896999999999949
20
-84.7459999999999951
11
36.6896999999999949
21
-87.4099999999999966
0
LINE
8
LYELLOW
6
CONTINUOUS
10
36.6896999999999949
20
-89.4899999999999949
11
36.6896999999999949
21
-92.1539999999999964
0
LINE
8
LYELLOW
6
CONTINUOUS
10
36.7297000000000011
20
-84.7650000000000006
11
36.7297000000000011
21
-87.4099999999999966
0
LINE
8
LYELLOW
6
CONTINUOUS
10
36.7297000000000011
20
-89.4899999999999949
11
36.7297000000000011
21
-92.1349999999999909
0
LINE
8
LYELLOW
6
CONTINUOUS
10
36.7697000000000003
20
-84.7839999999999918
11
36.7697000000000003
21
-87.4099999999999966
0
LINE
8
LYELLOW
6
CONTINUOUS
10
36.7697000000000003
20
-89.4899999999999949
11
36.7697000000000003
21
-92.1159999999999997
0
LINE
8
LYELLOW
6
CONTINUOUS
10
36.8096999999999994
20
-84.804000000000002
11
36.8096999999999994
21
-87.4099999999999966
0
LINE
8
LYELLOW
6
CONTINUOUS
10
36.8096999999999994
20
-89.4899999999999949
11
36.8096999999999994
21
-92.0959999999999894
0
LINE
8
LYELLOW
6
CONTINUOUS
10
36.8496999999999986
20
-84.8239999999999981
11
36.8496999999999986
21
-87.4099999999999966
0
LINE
8
LYELLOW
6
CONTINUOUS
10
36.8496999999999986
20
-89.4899999999999949
11
36.8496999999999986
21
-92.0759999999999934
0
LINE
8
LYELLOW
6
CONTINUOUS
10
36.8896999999999977
20
-84.8449999999999989
11
36.8896999999999977
21
-87.4099999999999966
0
LINE
8
LYELLOW
6
CONTINUOUS
10
36.8896999999999977
20
-89.4899999999999949
11
36.8896999999999977
21
-92.0549999999999926
0
LINE
8
LYELLOW
6
CONTINUOUS
10
36.9296999999999969
20
-84.8659999999999997
11
36.9296999999999969
21
-87.4099999999999966
0
LINE
8
LYELLOW
6
CONTINUOUS
10
36.9296999999999969
20
-89.4899999999999949
11
36.9296999999999969
21
-92.0339999999999918
0
LINE
8
LYELLOW
6
CONTINUOUS
10
36.969699999999996
20
-84.887999999999991
11
36.969699999999996
21
-87.4099999999999966
0
LINE
8
LYELLOW
6
CONTINUOUS
10
36.969699999999996
20
-89.4899999999999949
11
36.969699999999996
21
-92.0120000000000005
0
LINE
8
LYELLOW
6
CONTINUOUS
10
37.0096999999999952
20
-84.9110000000000014
11
37.0096999999999952
21
-87.4099999999999966
0
LINE
8
LYELLOW
6
CONTINUOUS
10
37.0096999999999952
20
-89.4899999999999949
11
37.0096999999999952
21
-91.9889999999999901
0
LINE
8
LYELLOW
6
CONTINUOUS
10
37.0497000000000014
20
-84.9339999999999975
11
37.0497000000000014
21
-87.4099999999999966
0
LINE
8
LYELLOW
6
CONTINUOUS
10
37.0497000000000014
20
-89.4899999999999949
11
37.0497000000000014
21
-91.965999999999994
0
LINE
8
LYELLOW
6
CONTINUOUS
10
37.0897000000000006
20
-84.9569999999999936
11
37.0897000000000006
21
-87.4099999999999966
0
LINE
8
LYELLOW
6
CONTINUOUS
10
37.0897000000000006
20
-89.4899999999999949
11
37.0897000000000006
21
-91.9429999999999978
0
LINE
8
LYELLOW
6
CONTINUOUS
10
37.1296999999999997
20
-84.9819999999999993
11
37.1296999999999997
21
-87.4099999999999966
0
LINE
8
LYELLOW
6
CONTINUOUS
10
37.1296999999999997
20
-89.4899999999999949
11
37.1296999999999997
21
-91.9179999999999922
0
LINE
8
LYELLOW
6
CONTINUOUS
10
37.1696999999999989
20
-85.0069999999999908
11
37.1696999999999989
21
-87.4099999999999966
0
LINE
8
LYELLOW
6
CONTINUOUS
10
37.1696999999999989
20
-89.4899999999999949
11
37.1696999999999989
21
-91.8930000000000007
0
LINE
8
LYELLOW
6
CONTINUOUS
10
37.209699999999998
20
-85.0319999999999965
11
37.209699999999998
21
-87.4099999999999966
0
LINE
8
LYELLOW
6
CONTINUOUS
10
37.209699999999998
20
-89.4899999999999949
11
37.209699999999998
21
-91.867999999999995
0
LINE
8
LYELLOW
6
CONTINUOUS
10
37.2496999999999971
20
-85.0579999999999927
11
37.2496999999999971
21
-87.4099999999999966
0
LINE
8
LYELLOW
6
CONTINUOUS
10
37.2496999999999971
20
-89.4899999999999949
11
37.2496999999999971
21
-91.8419999999999987
0
LINE
8
LYELLOW
6
CONTINUOUS
10
37.2896999999999963
20
-85.0849999999999937
11
37.2896999999999963
21
-87.4099999999999966
0
LINE
8
LYELLOW
6
CONTINUOUS
10
37.2896999999999963
20
-89.4899999999999949
11
37.2896999999999963
21
-91.8149999999999977
0
LINE
8
LYELLOW
6
CONTINUOUS
10
37.3296999999999954
20
-85.1129999999999995
11
37.3296999999999954
21
-87.4099999999999966
0
LINE
8
LYELLOW
6
CONTINUOUS
10
37.3296999999999954
20
-89.4899999999999949
11
37.3296999999999954
21
-91.7869999999999919
0
LINE
8
LYELLOW
6
CONTINUOUS
10
37.3697000000000017
20
-85.1409999999999911
11
37.3697000000000017
21
-87.4099999999999966
0
LINE
8
LYELLOW
6
CONTINUOUS
10
37.3697000000000017
20
-89.4899999999999949
11
37.3697000000000017
21
-91.7590000000000003
0
LINE
8
LYELLOW
6
CONTINUOUS
10
37.4097000000000008
20
-85.1700000000000017
11
37.4097000000000008
21
-87.4099999999999966
0
LINE
8
LYELLOW
6
CONTINUOUS
10
37.4097000000000008
20
-89.4899999999999949
11
37.4097000000000008
21
-91.7299999999999898
0
LINE
8
LYELLOW
6
CONTINUOUS
10
37.4497
20
-85.2000000000000028
11
37.4497
21
-87.4099999999999966
0
LINE
8
LYELLOW
6
CONTINUOUS
10
37.4497
20
-89.4899999999999949
11
37.4497
21
-91.7000000000000028
0
LINE
8
LYELLOW
6
CONTINUOUS
10
37.4896999999999991
20
-85.2309999999999945
11
37.4896999999999991
21
-87.4099999999999966
0
LINE
8
LYELLOW
6
CONTINUOUS
10
37.4896999999999991
20
-89.4899999999999949
11
37.4896999999999991
21
-91.6689999999999969
0
LINE
8
LYELLOW
6
CONTINUOUS
10
37.5296999999999983
20
-85.2620000000000005
11
37.5296999999999983
21
-87.4099999999999966
0
LINE
8
LYELLOW
6
CONTINUOUS
10
37.5296999999999983
20
-89.4899999999999949
11
37.5296999999999983
21
-91.637999999999991
0
LINE
8
LYELLOW
6
CONTINUOUS
10
37.5696999999999974
20
-85.2939999999999969
11
37.5696999999999974
21
-87.4099999999999966
0
LINE
8
LYELLOW
6
CONTINUOUS
10
37.5696999999999974
20
-89.4899999999999949
11
37.5696999999999974
21
-91.6059999999999945
0
LINE
8
LYELLOW
6
CONTINUOUS
10
37.6096999999999966
20
-85.3269999999999982
11
37.6096999999999966
21
-87.4099999999999966
0
LINE
8
LYELLOW
6
CONTINUOUS
10
37.6096999999999966
20
-89.4899999999999949
11
37.6096999999999966
21
-91.5729999999999933
0
LINE
8
LYELLOW
6
CONTINUOUS
10
37.6496999999999957
20
-85.36099999999999
11
37.6496999999999957
21
-87.4099999999999966
0
LINE
8
LYELLOW
6
CONTINUOUS
10
37.6496999999999957
20
-89.4899999999999949
11
37.6496999999999957
21
-91.5390000000000015
0
LINE
8
LYELLOW
6
CONTINUOUS
10
37.6896999999999949
20
-85.394999999999996
11
37.6896999999999949
21
-87.4099999999999966
0
LINE
8
LYELLOW
6
CONTINUOUS
10
37.6896999999999949
20
-89.4899999999999949
11
37.6896999999999949
21
-91.5049999999999955
0
LINE
8
LYELLOW
6
CONTINUOUS
10
37.7297000000000011
20
-85.4309999999999974
11
37.7297000000000011
21
-87.4099999999999966
0
LINE
8
LYELLOW
6
CONTINUOUS
10
37.7297000000000011
20
-89.4899999999999949
11
37.7297000000000011
21
-91.4689999999999941
0
LINE
8
LYELLOW
6
CONTINUOUS
10
37.7697000000000003
20
-85.4679999999999893
11
37.7697000000000003
21
-91.4320000000000022
0
LINE
8
LYELLOW
6
CONTINUOUS
10
37.8096999999999994
20
-85.5049999999999955
11
37.8096999999999994
21
-91.394999999999996
0
LINE
8
LYELLOW
6
CONTINUOUS
10
37.8496999999999986
20
-85.5439999999999969
11
37.8496999999999986
21
-91.3559999999999945
0
LINE
8
LYELLOW
6
CONTINUOUS
10
37.8896999999999977
20
-85.5829999999999984
11
37.8896999999999977
21
-91.3169999999999931
0
LINE
8
LYELLOW
6
CONTINUOUS
10
37.9296999999999969
20
-85.6239999999999952
11
37.9296999999999969
21
-91.2759999999999962
0
LINE
8
LYELLOW
6
CONTINUOUS
10
37.969699999999996
20
-85.6659999999999968
11
37.969699999999996
21
-91.2339999999999947
0
LINE
8
LYELLOW
6
CONTINUOUS
10
38.0096999999999952
20
-85.7090000000000032
11
38.0096999999999952
21
-91.1910000000000025
0
LINE
8
LYELLOW
6
CONTINUOUS
10
38.0497000000000014
20
-85.7539999999999907
11
38.0497000000000014
21
-91.1460000000000008
0
LINE
8
LYELLOW
6
CONTINUOUS
10
38.0897000000000006
20
-85.7989999999999924
11
38.0897000000000006
21
-91.1009999999999991
0
LINE
8
LYELLOW
6
CONTINUOUS
10
38.1296999999999997
20
-85.8459999999999894
11
38.1296999999999997
21
-91.054000000000002
0
LINE
8
LYELLOW
6
CONTINUOUS
10
38.1696999999999989
20
-85.894999999999996
11
38.1696999999999989
21
-91.0049999999999955
0
LINE
8
LYELLOW
6
CONTINUOUS
10
38.209699999999998
20
-85.9449999999999932
11
38.209699999999998
21
-90.9549999999999983
0
LINE
8
LYELLOW
6
CONTINUOUS
10
38.2496999999999971
20
-85.9969999999999999
11
38.2496999999999971
21
-90.9029999999999916
0
LINE
8
LYELLOW
6
CONTINUOUS
10
38.2896999999999963
20
-86.0499999999999972
11
38.2896999999999963
21
-90.8499999999999943
0
LINE
8
LYELLOW
6
CONTINUOUS
10
38.3296999999999954
20
-86.1059999999999945
11
38.3296999999999954
21
-90.7939999999999969
0
LINE
8
LYELLOW
6
CONTINUOUS
10
38.3697000000000017
20
-86.1629999999999967
11
38.3697000000000017
21
-90.7369999999999948
0
LINE
8
LYELLOW
6
CONTINUOUS
10
38.4097000000000008
20
-86.222999999999999
11
38.4097000000000008
21
-90.6769999999999925
0
LINE
8
LYELLOW
6
CONTINUOUS
10
38.4497
20
-86.2849999999999966
11
38.4497
21
-90.6149999999999949
0
LINE
8
LYELLOW
6
CONTINUOUS
10
38.4896999999999991
20
-86.3489999999999895
11
38.4896999999999991
21
-90.5510000000000019
0
LINE
8
LYELLOW
6
CONTINUOUS
10
38.5296999999999983
20
-86.4159999999999968
11
38.5296999999999983
21
-90.4839999999999947
0
LINE
8
LYELLOW
6
CONTINUOUS
10
38.5696999999999974
20
-86.48599999999999
11
38.5696999999999974
21
-90.4140000000000015
0
LINE
8
LYELLOW
6
CONTINUOUS
10
38.6096999999999966
20
-86.5600000000000023
11
38.6096999999999966
21
-90.3399999999999892
0
LINE
8
LYELLOW
6
CONTINUOUS
10
38.6496999999999957
20
-86.6370000000000005
11
38.6496999999999957
21
-90.262999999999991
0
LINE
8
LYELLOW
6
CONTINUOUS
10
38.6896999999999949
20
-86.7189999999999941
11
38.6896999999999949
21
-90.1809999999999974
0
LINE
8
LYELLOW
6
CONTINUOUS
10
38.7297000000000011
20
-86.8059999999999974
11
38.7297000000000011
21
-90.0939999999999941
0
LINE
8
LYELLOW
6
CONTINUOUS
10
38.7697000000000003
20
-86.8979999999999961
11
38.7697000000000003
21
-90.0019999999999953
0
LINE
8
LYELLOW
6
CONTINUOUS
10
38.8096999999999994
20
-86.9969999999999999
11
38.8096999999999994
21
-89.9029999999999916
0
LINE
8
LYELLOW
6
CONTINUOUS
10
38.8496999999999986
20
-87.1039999999999992
11
38.8496999999999986
21
-89.7959999999999923
0
LINE
8
LYELLOW
6
CONTINUOUS
10
38.8896999999999977
20
-87.2219999999999942
11
38.8896999999999977
21
-89.6779999999999973
0
LINE
8
LYELLOW
6
CONTINUOUS
10
38.9296999999999969
20
-87.3529999999999944
11
38.9296999999999969
21
-89.546999999999997
0
LINE
8
LYELLOW
6
CONTINUOUS
10
38.969699999999996
20
-87.5030000000000001
11
38.969699999999996
21
-89.3969999999999914
0
LINE
8
LYELLOW
6
CONTINUOUS
10
39.0096999999999952
20
-87.6820000000000022
11
39.0096999999999952
21
-89.2179999999999893
0
LINE
8
LYELLOW
6
CONTINUOUS
10
39.0497000000000014
20
-87.9170000000000016
11
39.0497000000000014
21
-88.9829999999999899
0
CIRCLE
8
LYELLOW
10
34.969699999999996
20
-88.4500000000000028
40
4.1200000000000001
0
LINE
8
LYELLOW
6
CONTINUOUS
10
51.125
20
-58.1999999999999957
11
52.144999999999996
21
-58.1999999999999957
0
LINE
8
LYELLOW
6
CONTINUOUS
10
52.9249999999999972
20
-56.7299999999999969
11
52.9249999999999972
21
-59.6699999999999946
0
LINE
8
LYELLOW
6
CONTINUOUS
10
53.0449999999999946
20
-56.7299999999999969
11
53.0449999999999946
21
-59.6699999999999946
0
LINE
8
LYELLOW
6
CONTINUOUS
10
53.1649999999999991
20
-56.7299999999999969
11
53.1649999999999991
21
-59.6699999999999946
0
LINE
8
LYELLOW
6
CONTINUOUS
10
58.6049999999999969
20
-58.1999999999999957
11
57.5850000000000009
21
-58.1999999999999957
0
LINE
8
LYELLOW
6
CONTINUOUS
10
52.144999999999996
20
-56.7299999999999969
11
57.5850000000000009
21
-56.7299999999999969
0
LINE
8
LYELLOW
6
CONTINUOUS
10
57.5850000000000009
20
-56.7299999999999969
11
57.5850000000000009
21
-59.6699999999999946
0
LINE
8
LYELLOW
6
CONTINUOUS
10
57.5850000000000009
20
-59.6699999999999946
11
52.144999999999996
21
-59.6699999999999946
0
LINE
8
LYELLOW
6
CONTINUOUS
10
52.144999999999996
20
-59.6699999999999946
11
52.144999999999996
21
-56.7299999999999969
0
LINE
8
LYELLOW
6
CONTINUOUS
10
73.7399999999999949
20
-41.3799999999999955
11
73.7399999999999949
21
-56.6199999999999974
0
LINE
8
LYELLOW
6
CONTINUOUS
10
73.7399999999999949
20
-41.3799999999999955
11
81.3599999999999994
21
-41.3799999999999955
0
LINE
8
LYELLOW
6
CONTINUOUS
10
73.7399999999999949
20
-56.6199999999999974
11
81.3599999999999994
21
-56.6199999999999974
0
LINE
8
LYELLOW
6
CONTINUOUS
10
75.0099999999999909
20
-41.3799999999999955
11
75.0099999999999909
21
-56.6199999999999974
0
LINE
8
LYELLOW
6
CONTINUOUS
10
81.3599999999999994
20
-41.3799999999999955
11
81.3599999999999994
21
-56.6199999999999974
0
LINE
8
LYELLOW
6
CONTINUOUS
10
32.115000000000002
20
-95.8799999999999955
11
38.6550000000000011
21
-95.8799999999999955
0
LINE
8
LYELLOW
6
CONTINUOUS
10
32.115000000000002
20
-96.2099999999999937
11
32.115000000000002
21
-95.8799999999999955
0
LINE
8
LYELLOW
6
CONTINUOUS
10
32.115000000000002
20
-98.289999999999992
11
32.115000000000002
21
-98.6199999999999903
0
LINE
8
LYELLOW
6
CONTINUOUS
10
32.115000000000002
20
-98.6199999999999903
11
38.6550000000000011
21
-98.6199999999999903
0
LINE
8
LYELLOW
6
CONTINUOUS
10
38.6550000000000011
20
-95.8799999999999955
11
38.6550000000000011
21
-96.2099999999999937
0
LINE
8
LYELLOW
6
CONTINUOUS
10
38.6550000000000011
20
-98.6199999999999903
11
38.6550000000000011
21
-98.289999999999992
0
LINE
8
LYELLOW
6
CONTINUOUS
10
58.0096999999999952
20
-87.0799999999999983
11
64.5497000000000014
21
-87.0799999999999983
0
LINE
8
LYELLOW
6
CONTINUOUS
10
58.0096999999999952
20
-87.4099999999999966
11
58.0096999999999952
21
-87.0799999999999983
0
LINE
8
LYELLOW
6
CONTINUOUS
10
58.0096999999999952
20
-89.4899999999999949
11
58.0096999999999952
21
-89.8199999999999932
0
LINE
8
LYELLOW
6
CONTINUOUS
10
58.0096999999999952
20
-89.8199999999999932
11
64.5497000000000014
21
-89.8199999999999932
0
LINE
8
LYELLOW
6
CONTINUOUS
10
64.5497000000000014
20
-87.0799999999999983
11
64.5497000000000014
21
-87.4099999999999966
0
LINE
8
LYELLOW
6
CONTINUOUS
10
64.5497000000000014
20
-89.8199999999999932
11
64.5497000000000014
21
-89.4899999999999949
0
LINE
8
LYELLOW
6
CONTINUOUS
10
61.6899999999999977
20
-43.9199999999999946
11
61.6899999999999977
21
-54.0799999999999983
0
LINE
8
LYELLOW
6
CONTINUOUS
10
61.6899999999999977
20
-54.0799999999999983
11
69.3100000000000023
21
-54.0799999999999983
0
LINE
8
LYELLOW
6
CONTINUOUS
10
62.9599999999999937
20
-54.0799999999999983
11
62.9599999999999937
21
-43.9199999999999946
0
LINE
8
LYELLOW
6
CONTINUOUS
10
69.3100000000000023
20
-43.9199999999999946
11
61.6899999999999977
21
-43.9199999999999946
0
LINE
8
LYELLOW
6
CONTINUOUS
10
69.3100000000000023
20
-54.0799999999999983
11
69.3100000000000023
21
-43.9199999999999946
0
LINE
8
LYELLOW
6
CONTINUOUS
10
33.2149999999999963
20
-58.1999999999999957
11
34.2349999999999994
21
-58.1999999999999957
0
LINE
8
LYELLOW
6
CONTINUOUS
10
35.0150000000000006
20
-56.7299999999999969
11
35.0150000000000006
21
-59.6699999999999946
0
LINE
8
LYELLOW
6
CONTINUOUS
10
35.134999999999998
20
-56.7299999999999969
11
35.134999999999998
21
-59.6699999999999946
0
LINE
8
LYELLOW
6
CONTINUOUS
10
35.2549999999999955
20
-56.7299999999999969
11
35.2549999999999955
21
-59.6699999999999946
0
LINE
8
LYELLOW
6
CONTINUOUS
10
40.6950000000000003
20
-58.1999999999999957
11
39.6749999999999972
21
-58.1999999999999957
0
LINE
8
LYELLOW
6
CONTINUOUS
10
34.2349999999999994
20
-56.7299999999999969
11
39.6749999999999972
21
-56.7299999999999969
0
LINE
8
LYELLOW
6
CONTINUOUS
10
39.6749999999999972
20
-56.7299999999999969
11
39.6749999999999972
21
-59.6699999999999946
0
LINE
8
LYELLOW
6
CONTINUOUS
10
39.6749999999999972
20
-59.6699999999999946
11
34.2349999999999994
21
-59.6699999999999946
0
LINE
8
LYELLOW
6
CONTINUOUS
10
34.2349999999999994
20
-59.6699999999999946
11
34.2349999999999994
21
-56.7299999999999969
0
LINE
8
LYELLOW
6
CONTINUOUS
10
46.884999999999998
20
-95.8799999999999955
11
53.4249999999999972
21
-95.8799999999999955
0
LINE
8
LYELLOW
6
CONTINUOUS
10
46.884999999999998
20
-96.2099999999999937
11
46.884999999999998
21
-95.8799999999999955
0
LINE
8
LYELLOW
6
CONTINUOUS
10
46.884999999999998
20
-98.289999999999992
11
46.884999999999998
21
-98.6199999999999903
0
LINE
8
LYELLOW
6
CONTINUOUS
10
46.884999999999998
20
-98.6199999999999903
11
53.4249999999999972
21
-98.6199999999999903
0
LINE
8
LYELLOW
6
CONTINUOUS
10
53.4249999999999972
20
-95.8799999999999955
11
53.4249999999999972
21
-96.2099999999999937
0
LINE
8
LYELLOW
6
CONTINUOUS
10
53.4249999999999972
20
-98.6199999999999903
11
53.4249999999999972
21
-98.289999999999992
0
LINE
8
LYELLOW
6
CONTINUOUS
10
61.654999999999994
20
-95.8799999999999955
11
68.1949999999999932
21
-95.8799999999999955
0
LINE
8
LYELLOW
6
CONTINUOUS
10
61.654999999999994
20
-96.2099999999999937
11
61.654999999999994
21
-95.8799999999999955
0
LINE
8
LYELLOW
6
CONTINUOUS
10
61.654999999999994
20
-98.289999999999992
11
61.654999999999994
21
-98.6199999999999903
0
LINE
8
LYELLOW
6
CONTINUOUS
10
61.654999999999994
20
-98.6199999999999903
11
68.1949999999999932
21
-98.6199999999999903
0
LINE
8
LYELLOW
6
CONTINUOUS
10
68.1949999999999932
20
-95.8799999999999955
11
68.1949999999999932
21
-96.2099999999999937
0
LINE
8
LYELLOW
6
CONTINUOUS
10
68.1949999999999932
20
-98.6199999999999903
11
68.1949999999999932
21
-98.289999999999992
0
LINE
8
LYELLOW
6
CONTINUOUS
10
30.6649999999999991
20
-69.6899999999999977
11
40.884999999999998
21
-69.6899999999999977
0
LINE
8
LYELLOW
6
CONTINUOUS
10
30.6649999999999991
20
-71.0699999999999932
11
40.884999999999998
21
-71.0699999999999932
0
LINE
8
LYELLOW
6
CONTINUOUS
10
30.6649999999999991
20
-74.3100000000000023
11
30.6649999999999991
21
-69.6899999999999977
0
LINE
8
LYELLOW
6
CONTINUOUS
10
33.9249999999999972
20
-69.6899999999999977
11
33.9249999999999972
21
-71.0699999999999932
0
LINE
8
LYELLOW
6
CONTINUOUS
10
37.625
20
-69.6899999999999977
11
37.625
21
-71.0699999999999932
0
LINE
8
LYELLOW
6
CONTINUOUS
10
40.884999999999998
20
-69.6899999999999977
11
40.884999999999998
21
-74.3100000000000023
0
LINE
8
LYELLOW
6
CONTINUOUS
10
40.884999999999998
20
-74.3100000000000023
11
30.6649999999999991
21
-74.3100000000000023
0
LINE
8
LYELLOW
6
CONTINUOUS
10
45.1997
20
-87.0799999999999983
11
50.4396999999999949
21
-87.0799999999999983
0
LINE
8
LYELLOW
6
CONTINUOUS
10
45.1997
20
-87.4170000000000016
11
45.1997
21
-87.0799999999999983
0
LINE
8
LYELLOW
6
CONTINUOUS
10
45.1997
20
-89.8199999999999932
11
45.1997
21
-89.4829999999999899
0
LINE
8
LYELLOW
6
CONTINUOUS
10
50.4396999999999949
20
-87.0799999999999983
11
50.4396999999999949
21
-87.4170000000000016
0
LINE
8
LYELLOW
6
CONTINUOUS
10
50.4396999999999949
20
-89.4829999999999899
11
50.4396999999999949
21
-89.8199999999999932
0
LINE
8
LYELLOW
6
CONTINUOUS
10
50.4396999999999949
20
-89.8199999999999932
11
45.1997
21
-89.8199999999999932
0
LINE
8
LYELLOW
6
CONTINUOUS
10
64.6550000000000011
20
-63.0499999999999972
11
64.6550000000000011
21
-80.9500000000000028
0
LINE
8
LYELLOW
6
CONTINUOUS
10
64.6550000000000011
20
-80.9500000000000028
11
69.1550000000000011
21
-80.9500000000000028
0
LINE
8
LYELLOW
6
CONTINUOUS
10
65.9050000000000011
20
-63.0499999999999972
11
64.6550000000000011
21
-63.0499999999999972
0
LINE
8
LYELLOW
6
CONTINUOUS
10
69.1550000000000011
20
-63.0499999999999972
11
67.9050000000000011
21
-63.0499999999999972
0
LINE
8
LYELLOW
6
CONTINUOUS
10
69.1550000000000011
20
-80.9500000000000028
11
69.1550000000000011
21
-63.0499999999999972
0
ARC
8
LYELLOW
10
66.9050000000000011
20
-63.0499999999999972
40
1.
50
-180.00000000
51
-0.00000000
0
LINE
8
LYELLOW
6
CONTINUOUS
10
49.0850000000000009
20
-66.8599999999999994
11
49.0850000000000009
21
-77.1400000000000006
0
LINE
8
LYELLOW
6
CONTINUOUS
10
49.0850000000000009
20
-77.1400000000000006
11
53.5850000000000009
21
-77.1400000000000006
0
LINE
8
LYELLOW
6
CONTINUOUS
10
50.3350000000000009
20
-66.8599999999999994
11
49.0850000000000009
21
-66.8599999999999994
0
LINE
8
LYELLOW
6
CONTINUOUS
10
53.5850000000000009
20
-66.8599999999999994
11
52.3350000000000009
21
-66.8599999999999994
0
LINE
8
LYELLOW
6
CONTINUOUS
10
53.5850000000000009
20
-77.1400000000000006
11
53.5850000000000009
21
-66.8599999999999994
0
ARC
8
LYELLOW
10
51.3350000000000009
20
-66.8599999999999994
40
1.
50
-180.00000000
51
-0.00000000
0
LINE
8
WHITE
6
CONTINUOUS
10
20.
20
-20.
11
124.
21
-20.
0
LINE
8
WHITE
6
CONTINUOUS
10
124.
20
-20.
11
124.
21
-124.
0
LINE
8
WHITE
6
CONTINUOUS
10
124.
20
-124.
11
20.
21
-124.
0
LINE
8
WHITE
6
CONTINUOUS
10
20.
20
-124.
11
20.
21
-20.
  0
ENDSEC
  0
EOF
