  0
SECTION
  2
HEADER
  9
$ANGBASE
  50
0.0
  9
$ANGDIR
  70
1
  9
$MEASUREMENT
  70
1
  0
ENDSEC
  0
SECTION
  2
TABLES
  0
TABLE
  2
LTYPE
  70
4
  0
LTYPE
  5
40F
  2
CONTINUOUS
  70
0
  3
Solid line
  72
65
  73
0
  40
0.0
  0
LTYPE
  5
410
  2
DASHDOT
 70
0
  3
Dash Dot ____ _ ____ _
 72
65
 73
4
 40
2.0
 49
1.25
 49
-0.25
 49
0.25
 49
-0.25
  0
LTYPE
  5
411
  2
DASHED
 70
0
  3
Dashed __ __ __ __ __
 72
65
 73
2
 40
0.75
 49
0.5
 49
-0.25
  0
LTYPE
  5
43B
  2
DOTTED
 70
0
  3
Dotted .  .  .  .
 72
65
 73
2
 40
0.2
 49
0.0
 49
-0.2
  0
ENDTAB
  0
TABLE
  2
STYLE
  70
4
  0
STYLE
  2
KICAD
  70
0
  40
0
  41
1
  42
1
  50
0
  71
0
  3
isocp.shx
  0
STYLE
  2
KICADB
  70
0
  40
0
  41
1
  42
1
  50
0
  71
0
  3
isocp.shx
  0
STYLE
  2
KICADI
  70
0
  40
0
  41
1
  42
1
  50
15
  71
0
  3
isocp.shx
  0
STYLE
  2
KICADBI
  70
0
  40
0
  41
1
  42
1
  50
15
  71
0
  3
isocp.shx
  0
ENDTAB
  0
TABLE
  2
LAYER
  70
35
  0
LAYER
  2
BLACK
  70
0
  62
7
  6
CONTINUOUS
  0
LAYER
  2
GRAY1
  70
0
  62
251
  6
CONTINUOUS
  0
LAYER
  2
GRAY2
  70
0
  62
8
  6
CONTINUOUS
  0
LAYER
  2
GRAY3
  70
0
  62
9
  6
CONTINUOUS
  0
LAYER
  2
WHITE
  70
0
  62
7
  6
CONTINUOUS
  0
LAYER
  2
LYELLOW
  70
0
  62
51
  6
CONTINUOUS
  0
LAYER
  2
LORANGE
  70
0
  62
41
  6
CONTINUOUS
  0
LAYER
  2
BLUE1
  70
0
  62
178
  6
CONTINUOUS
  0
LAYER
  2
GREEN1
  70
0
  62
98
  6
CONTINUOUS
  0
LAYER
  2
CYAN1
  70
0
  62
138
  6
CONTINUOUS
  0
LAYER
  2
RED1
  70
0
  62
18
  6
CONTINUOUS
  0
LAYER
  2
MAGENTA1
  70
0
  62
228
  6
CONTINUOUS
  0
LAYER
  2
BROWN1
  70
0
  62
58
  6
CONTINUOUS
  0
LAYER
  2
ORANGE1
  70
0
  62
34
  6
CONTINUOUS
  0
LAYER
  2
BLUE2
  70
0
  62
5
  6
CONTINUOUS
  0
LAYER
  2
GREEN2
  70
0
  62
3
  6
CONTINUOUS
  0
LAYER
  2
CYAN2
  70
0
  62
4
  6
CONTINUOUS
  0
LAYER
  2
RED2
  70
0
  62
1
  6
CONTINUOUS
  0
LAYER
  2
MAGENTA2
  70
0
  62
6
  6
CONTINUOUS
  0
LAYER
  2
BROWN2
  70
0
  62
54
  6
CONTINUOUS
  0
LAYER
  2
ORANGE2
  70
0
  62
42
  6
CONTINUOUS
  0
LAYER
  2
BLUE3
  70
0
  62
171
  6
CONTINUOUS
  0
LAYER
  2
GREEN3
  70
0
  62
91
  6
CONTINUOUS
  0
LAYER
  2
CYAN3
  70
0
  62
131
  6
CONTINUOUS
  0
LAYER
  2
RED3
  70
0
  62
11
  6
CONTINUOUS
  0
LAYER
  2
MAGENTA3
  70
0
  62
221
  6
CONTINUOUS
  0
LAYER
  2
YELLOW3
  70
0
  62
2
  6
CONTINUOUS
  0
LAYER
  2
ORANGE3
  70
0
  62
32
  6
CONTINUOUS
  0
LAYER
  2
BLUE4
  70
0
  62
5
  6
CONTINUOUS
  0
LAYER
  2
GREEN4
  70
0
  62
3
  6
CONTINUOUS
  0
LAYER
  2
CYAN4
  70
0
  62
4
  6
CONTINUOUS
  0
LAYER
  2
RED4
  70
0
  62
1
  6
CONTINUOUS
  0
LAYER
  2
MAGENTA4
  70
0
  62
6
  6
CONTINUOUS
  0
LAYER
  2
YELLOW4
  70
0
  62
2
  6
CONTINUOUS
  0
LAYER
  2
ORANGE4
  70
0
  62
40
  6
CONTINUOUS
  0
ENDTAB
  0
ENDSEC
  0
SECTION
  2
ENTITIES
0
LINE
8
LYELLOW
6
CONTINUOUS
10
137.2704760000000022
20
-41.4248189999999994
11
137.2704760000000022
21
-40.4248189999999994
0
LINE
8
LYELLOW
6
CONTINUOUS
10
137.2704760000000022
20
-40.4248189999999994
11
137.6038089999999841
21
-41.1391039999999961
0
LINE
8
LYELLOW
6
CONTINUOUS
10
137.6038089999999841
20
-41.1391039999999961
11
137.9371419999999944
21
-40.4248189999999994
0
LINE
8
LYELLOW
6
CONTINUOUS
10
137.9371419999999944
20
-40.4248189999999994
11
137.9371419999999944
21
-41.4248189999999994
0
LINE
8
LYELLOW
6
CONTINUOUS
10
138.9371419999999944
20
-41.4248189999999994
11
138.365713999999997
21
-41.4248189999999994
0
LINE
8
LYELLOW
6
CONTINUOUS
10
138.6514279999999815
20
-41.4248189999999994
11
138.6514279999999815
21
-40.4248189999999994
0
LINE
8
LYELLOW
6
CONTINUOUS
10
138.6514279999999815
20
-40.4248189999999994
11
138.5561899999999866
21
-40.5676759999999987
0
LINE
8
LYELLOW
6
CONTINUOUS
10
138.5561899999999866
20
-40.5676759999999987
11
138.4609519999999918
21
-40.6629140000000007
0
LINE
8
LYELLOW
6
CONTINUOUS
10
138.4609519999999918
20
-40.6629140000000007
11
138.365713999999997
21
-40.7105329999999981
0
LINE
8
LYELLOW
6
CONTINUOUS
10
57.7183329999999941
20
-65.4098189999999988
11
57.384999999999998
21
-64.9336279999999988
0
LINE
8
LYELLOW
6
CONTINUOUS
10
57.1469049999999967
20
-65.4098189999999988
11
57.1469049999999967
21
-64.4098189999999988
0
LINE
8
LYELLOW
6
CONTINUOUS
10
57.1469049999999967
20
-64.4098189999999988
11
57.5278569999999974
21
-64.4098189999999988
0
LINE
8
LYELLOW
6
CONTINUOUS
10
57.5278569999999974
20
-64.4098189999999988
11
57.6230949999999993
21
-64.4574379999999962
0
LINE
8
LYELLOW
6
CONTINUOUS
10
57.6230949999999993
20
-64.4574379999999962
11
57.6707139999999967
21
-64.5050569999999936
0
LINE
8
LYELLOW
6
CONTINUOUS
10
57.6707139999999967
20
-64.5050569999999936
11
57.7183329999999941
21
-64.6002950000000027
0
LINE
8
LYELLOW
6
CONTINUOUS
10
57.7183329999999941
20
-64.6002950000000027
11
57.7183329999999941
21
-64.7431519999999949
0
LINE
8
LYELLOW
6
CONTINUOUS
10
57.7183329999999941
20
-64.7431519999999949
11
57.6707139999999967
21
-64.838390000000004
0
LINE
8
LYELLOW
6
CONTINUOUS
10
57.6707139999999967
20
-64.838390000000004
11
57.6230949999999993
21
-64.8860090000000014
0
LINE
8
LYELLOW
6
CONTINUOUS
10
57.6230949999999993
20
-64.8860090000000014
11
57.5278569999999974
21
-64.9336279999999988
0
LINE
8
LYELLOW
6
CONTINUOUS
10
57.5278569999999974
20
-64.9336279999999988
11
57.1469049999999967
21
-64.9336279999999988
0
LINE
8
LYELLOW
6
CONTINUOUS
10
58.6707139999999967
20
-65.4098189999999988
11
58.0992859999999993
21
-65.4098189999999988
0
LINE
8
LYELLOW
6
CONTINUOUS
10
58.384999999999998
20
-65.4098189999999988
11
58.384999999999998
21
-64.4098189999999988
0
LINE
8
LYELLOW
6
CONTINUOUS
10
58.384999999999998
20
-64.4098189999999988
11
58.2897619999999961
21
-64.5526759999999911
0
LINE
8
LYELLOW
6
CONTINUOUS
10
58.2897619999999961
20
-64.5526759999999911
11
58.1945239999999941
21
-64.6479140000000001
0
LINE
8
LYELLOW
6
CONTINUOUS
10
58.1945239999999941
20
-64.6479140000000001
11
58.0992859999999993
21
-64.6955329999999975
0
LINE
8
LYELLOW
6
CONTINUOUS
10
75.4883329999999972
20
-65.4098189999999988
11
75.1550000000000011
21
-64.9336279999999988
0
LINE
8
LYELLOW
6
CONTINUOUS
10
74.9169049999999999
20
-65.4098189999999988
11
74.9169049999999999
21
-64.4098189999999988
0
LINE
8
LYELLOW
6
CONTINUOUS
10
74.9169049999999999
20
-64.4098189999999988
11
75.2978569999999934
21
-64.4098189999999988
0
LINE
8
LYELLOW
6
CONTINUOUS
10
75.2978569999999934
20
-64.4098189999999988
11
75.3930950000000024
21
-64.4574379999999962
0
LINE
8
LYELLOW
6
CONTINUOUS
10
75.3930950000000024
20
-64.4574379999999962
11
75.4407139999999998
21
-64.5050569999999936
0
LINE
8
LYELLOW
6
CONTINUOUS
10
75.4407139999999998
20
-64.5050569999999936
11
75.4883329999999972
21
-64.6002950000000027
0
LINE
8
LYELLOW
6
CONTINUOUS
10
75.4883329999999972
20
-64.6002950000000027
11
75.4883329999999972
21
-64.7431519999999949
0
LINE
8
LYELLOW
6
CONTINUOUS
10
75.4883329999999972
20
-64.7431519999999949
11
75.4407139999999998
21
-64.838390000000004
0
LINE
8
LYELLOW
6
CONTINUOUS
10
75.4407139999999998
20
-64.838390000000004
11
75.3930950000000024
21
-64.8860090000000014
0
LINE
8
LYELLOW
6
CONTINUOUS
10
75.3930950000000024
20
-64.8860090000000014
11
75.2978569999999934
21
-64.9336279999999988
0
LINE
8
LYELLOW
6
CONTINUOUS
10
75.2978569999999934
20
-64.9336279999999988
11
74.9169049999999999
21
-64.9336279999999988
0
LINE
8
LYELLOW
6
CONTINUOUS
10
75.8692860000000024
20
-64.5050569999999936
11
75.9169049999999999
21
-64.4574379999999962
0
LINE
8
LYELLOW
6
CONTINUOUS
10
75.9169049999999999
20
-64.4574379999999962
11
76.0121429999999947
21
-64.4098189999999988
0
LINE
8
LYELLOW
6
CONTINUOUS
10
76.0121429999999947
20
-64.4098189999999988
11
76.250237999999996
21
-64.4098189999999988
0
LINE
8
LYELLOW
6
CONTINUOUS
10
76.250237999999996
20
-64.4098189999999988
11
76.3454759999999908
21
-64.4574379999999962
0
LINE
8
LYELLOW
6
CONTINUOUS
10
76.3454759999999908
20
-64.4574379999999962
11
76.3930950000000024
21
-64.5050569999999936
0
LINE
8
LYELLOW
6
CONTINUOUS
10
76.3930950000000024
20
-64.5050569999999936
11
76.4407139999999998
21
-64.6002950000000027
0
LINE
8
LYELLOW
6
CONTINUOUS
10
76.4407139999999998
20
-64.6002950000000027
11
76.4407139999999998
21
-64.6955329999999975
0
LINE
8
LYELLOW
6
CONTINUOUS
10
76.4407139999999998
20
-64.6955329999999975
11
76.3930950000000024
21
-64.838390000000004
0
LINE
8
LYELLOW
6
CONTINUOUS
10
76.3930950000000024
20
-64.838390000000004
11
75.8216669999999908
21
-65.4098189999999988
0
LINE
8
LYELLOW
6
CONTINUOUS
10
75.8216669999999908
20
-65.4098189999999988
11
76.4407139999999998
21
-65.4098189999999988
0
LINE
8
LYELLOW
6
CONTINUOUS
10
57.5230949999999979
20
-44.939819
11
57.5230949999999979
21
-45.7493419999999986
0
LINE
8
LYELLOW
6
CONTINUOUS
10
57.5230949999999979
20
-45.7493419999999986
11
57.5707139999999953
21
-45.8445800000000006
0
LINE
8
LYELLOW
6
CONTINUOUS
10
57.5707139999999953
20
-45.8445800000000006
11
57.6183329999999998
21
-45.8921999999999954
0
LINE
8
LYELLOW
6
CONTINUOUS
10
57.6183329999999998
20
-45.8921999999999954
11
57.7135709999999946
21
-45.939819
0
LINE
8
LYELLOW
6
CONTINUOUS
10
57.7135709999999946
20
-45.939819
11
57.9040469999999985
21
-45.939819
0
LINE
8
LYELLOW
6
CONTINUOUS
10
57.9040469999999985
20
-45.939819
11
57.9992850000000004
21
-45.8921999999999954
0
LINE
8
LYELLOW
6
CONTINUOUS
10
57.9992850000000004
20
-45.8921999999999954
11
58.0469039999999978
21
-45.8445800000000006
0
LINE
8
LYELLOW
6
CONTINUOUS
10
58.0469039999999978
20
-45.8445800000000006
11
58.0945229999999952
21
-45.7493419999999986
0
LINE
8
LYELLOW
6
CONTINUOUS
10
58.0945229999999952
20
-45.7493419999999986
11
58.0945229999999952
21
-44.939819
0
LINE
8
LYELLOW
6
CONTINUOUS
10
59.0945229999999952
20
-45.939819
11
58.5230949999999979
21
-45.939819
0
LINE
8
LYELLOW
6
CONTINUOUS
10
58.8088089999999966
20
-45.939819
11
58.8088089999999966
21
-44.939819
0
LINE
8
LYELLOW
6
CONTINUOUS
10
58.8088089999999966
20
-44.939819
11
58.7135709999999946
21
-45.0826759999999993
0
LINE
8
LYELLOW
6
CONTINUOUS
10
58.7135709999999946
20
-45.0826759999999993
11
58.6183329999999998
21
-45.1779140000000012
0
LINE
8
LYELLOW
6
CONTINUOUS
10
58.6183329999999998
20
-45.1779140000000012
11
58.5230949999999979
21
-45.2255329999999987
0
LINE
8
LYELLOW
6
CONTINUOUS
10
111.0283329999999893
20
-65.4098189999999988
11
110.6949999999999932
21
-64.9336279999999988
0
LINE
8
LYELLOW
6
CONTINUOUS
10
110.4569049999999919
20
-65.4098189999999988
11
110.4569049999999919
21
-64.4098189999999988
0
LINE
8
LYELLOW
6
CONTINUOUS
10
110.4569049999999919
20
-64.4098189999999988
11
110.8378569999999996
21
-64.4098189999999988
0
LINE
8
LYELLOW
6
CONTINUOUS
10
110.8378569999999996
20
-64.4098189999999988
11
110.9330949999999945
21
-64.4574379999999962
0
LINE
8
LYELLOW
6
CONTINUOUS
10
110.9330949999999945
20
-64.4574379999999962
11
110.9807139999999919
21
-64.5050569999999936
0
LINE
8
LYELLOW
6
CONTINUOUS
10
110.9807139999999919
20
-64.5050569999999936
11
111.0283329999999893
21
-64.6002950000000027
0
LINE
8
LYELLOW
6
CONTINUOUS
10
111.0283329999999893
20
-64.6002950000000027
11
111.0283329999999893
21
-64.7431519999999949
0
LINE
8
LYELLOW
6
CONTINUOUS
10
111.0283329999999893
20
-64.7431519999999949
11
110.9807139999999919
21
-64.838390000000004
0
LINE
8
LYELLOW
6
CONTINUOUS
10
110.9807139999999919
20
-64.838390000000004
11
110.9330949999999945
21
-64.8860090000000014
0
LINE
8
LYELLOW
6
CONTINUOUS
10
110.9330949999999945
20
-64.8860090000000014
11
110.8378569999999996
21
-64.9336279999999988
0
LINE
8
LYELLOW
6
CONTINUOUS
10
110.8378569999999996
20
-64.9336279999999988
11
110.4569049999999919
21
-64.9336279999999988
0
LINE
8
LYELLOW
6
CONTINUOUS
10
111.885475999999997
20
-64.7431519999999949
11
111.885475999999997
21
-65.4098189999999988
0
LINE
8
LYELLOW
6
CONTINUOUS
10
111.6473809999999958
20
-64.3622000000000014
11
111.4092859999999945
21
-65.076484999999991
0
LINE
8
LYELLOW
6
CONTINUOUS
10
111.4092859999999945
20
-65.076484999999991
11
112.0283329999999893
21
-65.076484999999991
0
LINE
8
LYELLOW
6
CONTINUOUS
10
79.6269049999999936
20
-32.959818999999996
11
79.6269049999999936
21
-31.9598189999999995
0
LINE
8
LYELLOW
6
CONTINUOUS
10
79.6269049999999936
20
-31.9598189999999995
11
79.8649999999999949
21
-31.9598189999999995
0
LINE
8
LYELLOW
6
CONTINUOUS
10
79.8649999999999949
20
-31.9598189999999995
11
80.0078570000000013
21
-32.0074380000000005
0
LINE
8
LYELLOW
6
CONTINUOUS
10
80.0078570000000013
20
-32.0074380000000005
11
80.1030949999999962
21
-32.1026759999999953
0
LINE
8
LYELLOW
6
CONTINUOUS
10
80.1030949999999962
20
-32.1026759999999953
11
80.1507139999999936
21
-32.1979139999999973
0
LINE
8
LYELLOW
6
CONTINUOUS
10
80.1507139999999936
20
-32.1979139999999973
11
80.198332999999991
21
-32.3883900000000011
0
LINE
8
LYELLOW
6
CONTINUOUS
10
80.198332999999991
20
-32.3883900000000011
11
80.198332999999991
21
-32.5312470000000005
0
LINE
8
LYELLOW
6
CONTINUOUS
10
80.198332999999991
20
-32.5312470000000005
11
80.1507139999999936
21
-32.7217229999999972
0
LINE
8
LYELLOW
6
CONTINUOUS
10
80.1507139999999936
20
-32.7217229999999972
11
80.1030949999999962
21
-32.8169609999999992
0
LINE
8
LYELLOW
6
CONTINUOUS
10
80.1030949999999962
20
-32.8169609999999992
11
80.0078570000000013
21
-32.9121999999999986
0
LINE
8
LYELLOW
6
CONTINUOUS
10
80.0078570000000013
20
-32.9121999999999986
11
79.8649999999999949
21
-32.959818999999996
0
LINE
8
LYELLOW
6
CONTINUOUS
10
79.8649999999999949
20
-32.959818999999996
11
79.6269049999999936
21
-32.959818999999996
0
LINE
8
LYELLOW
6
CONTINUOUS
10
80.5792859999999962
20
-32.0550569999999979
11
80.6269049999999936
21
-32.0074380000000005
0
LINE
8
LYELLOW
6
CONTINUOUS
10
80.6269049999999936
20
-32.0074380000000005
11
80.7221430000000026
21
-31.9598189999999995
0
LINE
8
LYELLOW
6
CONTINUOUS
10
80.7221430000000026
20
-31.9598189999999995
11
80.9602379999999897
21
-31.9598189999999995
0
LINE
8
LYELLOW
6
CONTINUOUS
10
80.9602379999999897
20
-31.9598189999999995
11
81.0554759999999987
21
-32.0074380000000005
0
LINE
8
LYELLOW
6
CONTINUOUS
10
81.0554759999999987
20
-32.0074380000000005
11
81.1030949999999962
21
-32.0550569999999979
0
LINE
8
LYELLOW
6
CONTINUOUS
10
81.1030949999999962
20
-32.0550569999999979
11
81.1507139999999936
21
-32.1502949999999998
0
LINE
8
LYELLOW
6
CONTINUOUS
10
81.1507139999999936
20
-32.1502949999999998
11
81.1507139999999936
21
-32.2455330000000018
0
LINE
8
LYELLOW
6
CONTINUOUS
10
81.1507139999999936
20
-32.2455330000000018
11
81.1030949999999962
21
-32.3883900000000011
0
LINE
8
LYELLOW
6
CONTINUOUS
10
81.1030949999999962
20
-32.3883900000000011
11
80.5316669999999988
21
-32.959818999999996
0
LINE
8
LYELLOW
6
CONTINUOUS
10
80.5316669999999988
20
-32.959818999999996
11
81.1507139999999936
21
-32.959818999999996
0
LINE
8
LYELLOW
6
CONTINUOUS
10
75.0230949999999979
20
-33.3298190000000005
11
75.0230949999999979
21
-32.3298190000000005
0
LINE
8
LYELLOW
6
CONTINUOUS
10
75.5945229999999952
20
-33.3298190000000005
11
75.1659519999999901
21
-32.7583899999999986
0
LINE
8
LYELLOW
6
CONTINUOUS
10
75.5945229999999952
20
-32.3298190000000005
11
75.0230949999999979
21
-32.9012469999999979
0
LINE
8
LYELLOW
6
CONTINUOUS
10
93.2583329999999933
20
-65.4098189999999988
11
92.9249999999999972
21
-64.9336279999999988
0
LINE
8
LYELLOW
6
CONTINUOUS
10
92.6869049999999959
20
-65.4098189999999988
11
92.6869049999999959
21
-64.4098189999999988
0
LINE
8
LYELLOW
6
CONTINUOUS
10
92.6869049999999959
20
-64.4098189999999988
11
93.0678569999999894
21
-64.4098189999999988
0
LINE
8
LYELLOW
6
CONTINUOUS
10
93.0678569999999894
20
-64.4098189999999988
11
93.1630949999999984
21
-64.4574379999999962
0
LINE
8
LYELLOW
6
CONTINUOUS
10
93.1630949999999984
20
-64.4574379999999962
11
93.2107139999999958
21
-64.5050569999999936
0
LINE
8
LYELLOW
6
CONTINUOUS
10
93.2107139999999958
20
-64.5050569999999936
11
93.2583329999999933
21
-64.6002950000000027
0
LINE
8
LYELLOW
6
CONTINUOUS
10
93.2583329999999933
20
-64.6002950000000027
11
93.2583329999999933
21
-64.7431519999999949
0
LINE
8
LYELLOW
6
CONTINUOUS
10
93.2583329999999933
20
-64.7431519999999949
11
93.2107139999999958
21
-64.838390000000004
0
LINE
8
LYELLOW
6
CONTINUOUS
10
93.2107139999999958
20
-64.838390000000004
11
93.1630949999999984
21
-64.8860090000000014
0
LINE
8
LYELLOW
6
CONTINUOUS
10
93.1630949999999984
20
-64.8860090000000014
11
93.0678569999999894
21
-64.9336279999999988
0
LINE
8
LYELLOW
6
CONTINUOUS
10
93.0678569999999894
20
-64.9336279999999988
11
92.6869049999999959
21
-64.9336279999999988
0
LINE
8
LYELLOW
6
CONTINUOUS
10
93.5916670000000011
20
-64.4098189999999988
11
94.2107139999999958
21
-64.4098189999999988
0
LINE
8
LYELLOW
6
CONTINUOUS
10
94.2107139999999958
20
-64.4098189999999988
11
93.8773809999999997
21
-64.7907709999999923
0
LINE
8
LYELLOW
6
CONTINUOUS
10
93.8773809999999997
20
-64.7907709999999923
11
94.020237999999992
21
-64.7907709999999923
0
LINE
8
LYELLOW
6
CONTINUOUS
10
94.020237999999992
20
-64.7907709999999923
11
94.115476000000001
21
-64.838390000000004
0
LINE
8
LYELLOW
6
CONTINUOUS
10
94.115476000000001
20
-64.838390000000004
11
94.1630949999999984
21
-64.8860090000000014
0
LINE
8
LYELLOW
6
CONTINUOUS
10
94.1630949999999984
20
-64.8860090000000014
11
94.2107139999999958
21
-64.9812469999999962
0
LINE
8
LYELLOW
6
CONTINUOUS
10
94.2107139999999958
20
-64.9812469999999962
11
94.2107139999999958
21
-65.2193419999999975
0
LINE
8
LYELLOW
6
CONTINUOUS
10
94.2107139999999958
20
-65.2193419999999975
11
94.1630949999999984
21
-65.3145799999999923
0
LINE
8
LYELLOW
6
CONTINUOUS
10
94.1630949999999984
20
-65.3145799999999923
11
94.115476000000001
21
-65.3622000000000014
0
LINE
8
LYELLOW
6
CONTINUOUS
10
94.115476000000001
20
-65.3622000000000014
11
94.020237999999992
21
-65.4098189999999988
0
LINE
8
LYELLOW
6
CONTINUOUS
10
94.020237999999992
20
-65.4098189999999988
11
93.7345239999999933
21
-65.4098189999999988
0
LINE
8
LYELLOW
6
CONTINUOUS
10
93.7345239999999933
20
-65.4098189999999988
11
93.6392859999999985
21
-65.3622000000000014
0
LINE
8
LYELLOW
6
CONTINUOUS
10
93.6392859999999985
20
-65.3622000000000014
11
93.5916670000000011
21
-65.3145799999999923
0
LINE
8
LYELLOW
6
CONTINUOUS
10
137.7166660000000036
20
-26.8048189999999984
11
137.7166660000000036
21
-27.5191039999999987
0
LINE
8
LYELLOW
6
CONTINUOUS
10
137.7166660000000036
20
-27.5191039999999987
11
137.6690470000000062
21
-27.661960999999998
0
LINE
8
LYELLOW
6
CONTINUOUS
10
137.6690470000000062
20
-27.661960999999998
11
137.5738089999999829
21
-27.7571999999999974
0
LINE
8
LYELLOW
6
CONTINUOUS
10
137.5738089999999829
20
-27.7571999999999974
11
137.4309519999999907
21
-27.8048189999999984
0
LINE
8
LYELLOW
6
CONTINUOUS
10
137.4309519999999907
20
-27.8048189999999984
11
137.3357139999999958
21
-27.8048189999999984
0
LINE
8
LYELLOW
6
CONTINUOUS
10
138.1452380000000062
20
-26.9000570000000003
11
138.1928570000000036
21
-26.8524379999999994
0
LINE
8
LYELLOW
6
CONTINUOUS
10
138.1928570000000036
20
-26.8524379999999994
11
138.2880949999999984
21
-26.8048189999999984
0
LINE
8
LYELLOW
6
CONTINUOUS
10
138.2880949999999984
20
-26.8048189999999984
11
138.5261899999999855
21
-26.8048189999999984
0
LINE
8
LYELLOW
6
CONTINUOUS
10
138.5261899999999855
20
-26.8048189999999984
11
138.6214279999999803
21
-26.8524379999999994
0
LINE
8
LYELLOW
6
CONTINUOUS
10
138.6214279999999803
20
-26.8524379999999994
11
138.6690470000000062
21
-26.9000570000000003
0
LINE
8
LYELLOW
6
CONTINUOUS
10
138.6690470000000062
20
-26.9000570000000003
11
138.7166660000000036
21
-26.9952949999999987
0
LINE
8
LYELLOW
6
CONTINUOUS
10
138.7166660000000036
20
-26.9952949999999987
11
138.7166660000000036
21
-27.0905329999999971
0
LINE
8
LYELLOW
6
CONTINUOUS
10
138.7166660000000036
20
-27.0905329999999971
11
138.6690470000000062
21
-27.23339
0
LINE
8
LYELLOW
6
CONTINUOUS
10
138.6690470000000062
20
-27.23339
11
138.0976189999999804
21
-27.8048189999999984
0
LINE
8
LYELLOW
6
CONTINUOUS
10
138.0976189999999804
20
-27.8048189999999984
11
138.7166660000000036
21
-27.8048189999999984
0
LINE
8
LYELLOW
6
CONTINUOUS
10
34.6666659999999993
20
-35.1098190000000017
11
34.6666659999999993
21
-35.8241039999999984
0
LINE
8
LYELLOW
6
CONTINUOUS
10
34.6666659999999993
20
-35.8241039999999984
11
34.6190470000000019
21
-35.9669609999999977
0
LINE
8
LYELLOW
6
CONTINUOUS
10
34.6190470000000019
20
-35.9669609999999977
11
34.523809
21
-36.0621999999999971
0
LINE
8
LYELLOW
6
CONTINUOUS
10
34.523809
20
-36.0621999999999971
11
34.3809520000000006
21
-36.1098190000000017
0
LINE
8
LYELLOW
6
CONTINUOUS
10
34.3809520000000006
20
-36.1098190000000017
11
34.2857139999999987
21
-36.1098190000000017
0
LINE
8
LYELLOW
6
CONTINUOUS
10
35.6666659999999993
20
-36.1098190000000017
11
35.0952380000000019
21
-36.1098190000000017
0
LINE
8
LYELLOW
6
CONTINUOUS
10
35.3809520000000006
20
-36.1098190000000017
11
35.3809520000000006
21
-35.1098190000000017
0
LINE
8
LYELLOW
6
CONTINUOUS
10
35.3809520000000006
20
-35.1098190000000017
11
35.2857139999999987
21
-35.252676000000001
0
LINE
8
LYELLOW
6
CONTINUOUS
10
35.2857139999999987
20
-35.252676000000001
11
35.1904759999999968
21
-35.3479139999999958
0
LINE
8
LYELLOW
6
CONTINUOUS
10
35.1904759999999968
20
-35.3479139999999958
11
35.0952380000000019
21
-35.3955330000000004
0
LINE
8
LYELLOW
6
CONTINUOUS
10
99.9997609999999924
20
-32.3750569999999982
11
99.9045229999999975
21
-32.3274380000000008
0
LINE
8
LYELLOW
6
CONTINUOUS
10
99.9045229999999975
20
-32.3274380000000008
11
99.8092849999999885
21
-32.2321999999999989
0
LINE
8
LYELLOW
6
CONTINUOUS
10
99.8092849999999885
20
-32.2321999999999989
11
99.6664279999999962
21
-32.089342000000002
0
LINE
8
LYELLOW
6
CONTINUOUS
10
99.6664279999999962
20
-32.089342000000002
11
99.5711900000000014
21
-32.0417229999999975
0
LINE
8
LYELLOW
6
CONTINUOUS
10
99.5711900000000014
20
-32.0417229999999975
11
99.4759519999999924
21
-32.0417229999999975
0
LINE
8
LYELLOW
6
CONTINUOUS
10
99.5235709999999898
20
-32.2798189999999963
11
99.428332999999995
21
-32.2321999999999989
0
LINE
8
LYELLOW
6
CONTINUOUS
10
99.428332999999995
20
-32.2321999999999989
11
99.3330950000000001
21
-32.1369609999999994
0
LINE
8
LYELLOW
6
CONTINUOUS
10
99.3330950000000001
20
-32.1369609999999994
11
99.2854759999999885
21
-31.9464849999999991
0
LINE
8
LYELLOW
6
CONTINUOUS
10
99.2854759999999885
20
-31.9464849999999991
11
99.2854759999999885
21
-31.6131519999999995
0
LINE
8
LYELLOW
6
CONTINUOUS
10
99.2854759999999885
20
-31.6131519999999995
11
99.3330950000000001
21
-31.4226759999999992
0
LINE
8
LYELLOW
6
CONTINUOUS
10
99.3330950000000001
20
-31.4226759999999992
11
99.428332999999995
21
-31.3274379999999972
0
LINE
8
LYELLOW
6
CONTINUOUS
10
99.428332999999995
20
-31.3274379999999972
11
99.5235709999999898
21
-31.2798189999999998
0
LINE
8
LYELLOW
6
CONTINUOUS
10
99.5235709999999898
20
-31.2798189999999998
11
99.7140469999999937
21
-31.2798189999999998
0
LINE
8
LYELLOW
6
CONTINUOUS
10
99.7140469999999937
20
-31.2798189999999998
11
99.8092849999999885
21
-31.3274379999999972
0
LINE
8
LYELLOW
6
CONTINUOUS
10
99.8092849999999885
20
-31.3274379999999972
11
99.9045229999999975
21
-31.4226759999999992
0
LINE
8
LYELLOW
6
CONTINUOUS
10
99.9045229999999975
20
-31.4226759999999992
11
99.9521419999999949
21
-31.6131519999999995
0
LINE
8
LYELLOW
6
CONTINUOUS
10
99.9521419999999949
20
-31.6131519999999995
11
99.9521419999999949
21
-31.9464849999999991
0
LINE
8
LYELLOW
6
CONTINUOUS
10
99.9521419999999949
20
-31.9464849999999991
11
99.9045229999999975
21
-32.1369609999999994
0
LINE
8
LYELLOW
6
CONTINUOUS
10
99.9045229999999975
20
-32.1369609999999994
11
99.8092849999999885
21
-32.2321999999999989
0
LINE
8
LYELLOW
6
CONTINUOUS
10
99.8092849999999885
20
-32.2321999999999989
11
99.7140469999999937
21
-32.2798189999999963
0
LINE
8
LYELLOW
6
CONTINUOUS
10
99.7140469999999937
20
-32.2798189999999963
11
99.5235709999999898
21
-32.2798189999999963
0
LINE
8
LYELLOW
6
CONTINUOUS
10
100.9045229999999975
20
-32.2798189999999963
11
100.3330950000000001
21
-32.2798189999999963
0
LINE
8
LYELLOW
6
CONTINUOUS
10
100.6188089999999988
20
-32.2798189999999963
11
100.6188089999999988
21
-31.2798189999999998
0
LINE
8
LYELLOW
6
CONTINUOUS
10
100.6188089999999988
20
-31.2798189999999998
11
100.5235709999999898
21
-31.4226759999999992
0
LINE
8
LYELLOW
6
CONTINUOUS
10
100.5235709999999898
20
-31.4226759999999992
11
100.428332999999995
21
-31.5179139999999975
0
LINE
8
LYELLOW
6
CONTINUOUS
10
100.428332999999995
20
-31.5179139999999975
11
100.3330950000000001
21
-31.5655329999999985
0
LINE
8
LYELLOW
6
CONTINUOUS
10
110.2930329999999941
20
-49.4845800000000011
11
110.2454139999999967
21
-49.532199999999996
0
LINE
8
LYELLOW
6
CONTINUOUS
10
110.2454139999999967
20
-49.532199999999996
11
110.1025569999999902
21
-49.5798190000000005
0
LINE
8
LYELLOW
6
CONTINUOUS
10
110.1025569999999902
20
-49.5798190000000005
11
110.0073189999999954
21
-49.5798190000000005
0
LINE
8
LYELLOW
6
CONTINUOUS
10
110.0073189999999954
20
-49.5798190000000005
11
109.864461999999989
21
-49.532199999999996
0
LINE
8
LYELLOW
6
CONTINUOUS
10
109.864461999999989
20
-49.532199999999996
11
109.7692239999999941
21
-49.4369609999999966
0
LINE
8
LYELLOW
6
CONTINUOUS
10
109.7692239999999941
20
-49.4369609999999966
11
109.7216049999999967
21
-49.3417229999999947
0
LINE
8
LYELLOW
6
CONTINUOUS
10
109.7216049999999967
20
-49.3417229999999947
11
109.6739859999999993
21
-49.1512469999999979
0
LINE
8
LYELLOW
6
CONTINUOUS
10
109.6739859999999993
20
-49.1512469999999979
11
109.6739859999999993
21
-49.0083899999999986
0
LINE
8
LYELLOW
6
CONTINUOUS
10
109.6739859999999993
20
-49.0083899999999986
11
109.7216049999999967
21
-48.8179139999999947
0
LINE
8
LYELLOW
6
CONTINUOUS
10
109.7216049999999967
20
-48.8179139999999947
11
109.7692239999999941
21
-48.7226759999999999
0
LINE
8
LYELLOW
6
CONTINUOUS
10
109.7692239999999941
20
-48.7226759999999999
11
109.864461999999989
21
-48.6274379999999979
0
LINE
8
LYELLOW
6
CONTINUOUS
10
109.864461999999989
20
-48.6274379999999979
11
110.0073189999999954
21
-48.5798190000000005
0
LINE
8
LYELLOW
6
CONTINUOUS
10
110.0073189999999954
20
-48.5798190000000005
11
110.1025569999999902
21
-48.5798190000000005
0
LINE
8
LYELLOW
6
CONTINUOUS
10
110.1025569999999902
20
-48.5798190000000005
11
110.2454139999999967
21
-48.6274379999999979
0
LINE
8
LYELLOW
6
CONTINUOUS
10
110.2454139999999967
20
-48.6274379999999979
11
110.2930329999999941
21
-48.6750569999999954
0
LINE
8
LYELLOW
6
CONTINUOUS
10
110.6739859999999993
20
-48.6750569999999954
11
110.7216049999999967
21
-48.6274379999999979
0
LINE
8
LYELLOW
6
CONTINUOUS
10
110.7216049999999967
20
-48.6274379999999979
11
110.8168429999999915
21
-48.5798190000000005
0
LINE
8
LYELLOW
6
CONTINUOUS
10
110.8168429999999915
20
-48.5798190000000005
11
111.0549379999999928
21
-48.5798190000000005
0
LINE
8
LYELLOW
6
CONTINUOUS
10
111.0549379999999928
20
-48.5798190000000005
11
111.1501760000000019
21
-48.6274379999999979
0
LINE
8
LYELLOW
6
CONTINUOUS
10
111.1501760000000019
20
-48.6274379999999979
11
111.1977949999999993
21
-48.6750569999999954
0
LINE
8
LYELLOW
6
CONTINUOUS
10
111.1977949999999993
20
-48.6750569999999954
11
111.2454139999999967
21
-48.7702949999999973
0
LINE
8
LYELLOW
6
CONTINUOUS
10
111.2454139999999967
20
-48.7702949999999973
11
111.2454139999999967
21
-48.8655329999999992
0
LINE
8
LYELLOW
6
CONTINUOUS
10
111.2454139999999967
20
-48.8655329999999992
11
111.1977949999999993
21
-49.0083899999999986
0
LINE
8
LYELLOW
6
CONTINUOUS
10
111.1977949999999993
20
-49.0083899999999986
11
110.6263670000000019
21
-49.5798190000000005
0
LINE
8
LYELLOW
6
CONTINUOUS
10
110.6263670000000019
20
-49.5798190000000005
11
111.2454139999999967
21
-49.5798190000000005
0
LINE
8
LYELLOW
6
CONTINUOUS
10
94.4430329999999998
20
-46.7345800000000011
11
94.3954140000000024
21
-46.782199999999996
0
LINE
8
LYELLOW
6
CONTINUOUS
10
94.3954140000000024
20
-46.782199999999996
11
94.2525569999999959
21
-46.8298190000000005
0
LINE
8
LYELLOW
6
CONTINUOUS
10
94.2525569999999959
20
-46.8298190000000005
11
94.1573190000000011
21
-46.8298190000000005
0
LINE
8
LYELLOW
6
CONTINUOUS
10
94.1573190000000011
20
-46.8298190000000005
11
94.0144619999999946
21
-46.782199999999996
0
LINE
8
LYELLOW
6
CONTINUOUS
10
94.0144619999999946
20
-46.782199999999996
11
93.9192239999999998
21
-46.6869609999999966
0
LINE
8
LYELLOW
6
CONTINUOUS
10
93.9192239999999998
20
-46.6869609999999966
11
93.8716050000000024
21
-46.5917229999999947
0
LINE
8
LYELLOW
6
CONTINUOUS
10
93.8716050000000024
20
-46.5917229999999947
11
93.8239859999999908
21
-46.4012469999999979
0
LINE
8
LYELLOW
6
CONTINUOUS
10
93.8239859999999908
20
-46.4012469999999979
11
93.8239859999999908
21
-46.2583899999999986
0
LINE
8
LYELLOW
6
CONTINUOUS
10
93.8239859999999908
20
-46.2583899999999986
11
93.8716050000000024
21
-46.0679139999999947
0
LINE
8
LYELLOW
6
CONTINUOUS
10
93.8716050000000024
20
-46.0679139999999947
11
93.9192239999999998
21
-45.9726759999999999
0
LINE
8
LYELLOW
6
CONTINUOUS
10
93.9192239999999998
20
-45.9726759999999999
11
94.0144619999999946
21
-45.8774379999999979
0
LINE
8
LYELLOW
6
CONTINUOUS
10
94.0144619999999946
20
-45.8774379999999979
11
94.1573190000000011
21
-45.8298190000000005
0
LINE
8
LYELLOW
6
CONTINUOUS
10
94.1573190000000011
20
-45.8298190000000005
11
94.2525569999999959
21
-45.8298190000000005
0
LINE
8
LYELLOW
6
CONTINUOUS
10
94.2525569999999959
20
-45.8298190000000005
11
94.3954140000000024
21
-45.8774379999999979
0
LINE
8
LYELLOW
6
CONTINUOUS
10
94.3954140000000024
20
-45.8774379999999979
11
94.4430329999999998
21
-45.9250569999999954
0
LINE
8
LYELLOW
6
CONTINUOUS
10
95.3954140000000024
20
-46.8298190000000005
11
94.8239859999999908
21
-46.8298190000000005
0
LINE
8
LYELLOW
6
CONTINUOUS
10
95.1096999999999895
20
-46.8298190000000005
11
95.1096999999999895
21
-45.8298190000000005
0
LINE
8
LYELLOW
6
CONTINUOUS
10
95.1096999999999895
20
-45.8298190000000005
11
95.0144619999999946
21
-45.9726759999999999
0
LINE
8
LYELLOW
6
CONTINUOUS
10
95.0144619999999946
20
-45.9726759999999999
11
94.9192239999999998
21
-46.0679139999999947
0
LINE
8
LYELLOW
6
CONTINUOUS
10
94.9192239999999998
20
-46.0679139999999947
11
94.8239859999999908
21
-46.1155329999999992
0
LINE
8
LYELLOW
6
CONTINUOUS
10
76.093094999999991
20
-41.1298189999999977
11
76.093094999999991
21
-41.9393419999999963
0
LINE
8
LYELLOW
6
CONTINUOUS
10
76.093094999999991
20
-41.9393419999999963
11
76.1407140000000027
21
-42.0345799999999983
0
LINE
8
LYELLOW
6
CONTINUOUS
10
76.1407140000000027
20
-42.0345799999999983
11
76.1883330000000001
21
-42.0822000000000003
0
LINE
8
LYELLOW
6
CONTINUOUS
10
76.1883330000000001
20
-42.0822000000000003
11
76.2835709999999949
21
-42.1298189999999977
0
LINE
8
LYELLOW
6
CONTINUOUS
10
76.2835709999999949
20
-42.1298189999999977
11
76.4740469999999988
21
-42.1298189999999977
0
LINE
8
LYELLOW
6
CONTINUOUS
10
76.4740469999999988
20
-42.1298189999999977
11
76.5692849999999936
21
-42.0822000000000003
0
LINE
8
LYELLOW
6
CONTINUOUS
10
76.5692849999999936
20
-42.0822000000000003
11
76.616903999999991
21
-42.0345799999999983
0
LINE
8
LYELLOW
6
CONTINUOUS
10
76.616903999999991
20
-42.0345799999999983
11
76.6645230000000026
21
-41.9393419999999963
0
LINE
8
LYELLOW
6
CONTINUOUS
10
76.6645230000000026
20
-41.9393419999999963
11
76.6645230000000026
21
-41.1298189999999977
0
LINE
8
LYELLOW
6
CONTINUOUS
10
77.093094999999991
20
-41.2250569999999996
11
77.1407140000000027
21
-41.1774379999999951
0
LINE
8
LYELLOW
6
CONTINUOUS
10
77.1407140000000027
20
-41.1774379999999951
11
77.2359519999999975
21
-41.1298189999999977
0
LINE
8
LYELLOW
6
CONTINUOUS
10
77.2359519999999975
20
-41.1298189999999977
11
77.4740469999999988
21
-41.1298189999999977
0
LINE
8
LYELLOW
6
CONTINUOUS
10
77.4740469999999988
20
-41.1298189999999977
11
77.5692849999999936
21
-41.1774379999999951
0
LINE
8
LYELLOW
6
CONTINUOUS
10
77.5692849999999936
20
-41.1774379999999951
11
77.616903999999991
21
-41.2250569999999996
0
LINE
8
LYELLOW
6
CONTINUOUS
10
77.616903999999991
20
-41.2250569999999996
11
77.6645230000000026
21
-41.3202950000000016
0
LINE
8
LYELLOW
6
CONTINUOUS
10
77.6645230000000026
20
-41.3202950000000016
11
77.6645230000000026
21
-41.4155329999999964
0
LINE
8
LYELLOW
6
CONTINUOUS
10
77.6645230000000026
20
-41.4155329999999964
11
77.616903999999991
21
-41.5583899999999957
0
LINE
8
LYELLOW
6
CONTINUOUS
10
77.616903999999991
20
-41.5583899999999957
11
77.0454759999999936
21
-42.1298189999999977
0
LINE
8
LYELLOW
6
CONTINUOUS
10
77.0454759999999936
20
-42.1298189999999977
11
77.6645230000000026
21
-42.1298189999999977
0
LINE
8
LYELLOW
6
CONTINUOUS
10
58.716904999999997
20
-32.959818999999996
11
58.716904999999997
21
-31.9598189999999995
0
LINE
8
LYELLOW
6
CONTINUOUS
10
58.716904999999997
20
-31.9598189999999995
11
58.9549999999999983
21
-31.9598189999999995
0
LINE
8
LYELLOW
6
CONTINUOUS
10
58.9549999999999983
20
-31.9598189999999995
11
59.0978569999999976
21
-32.0074380000000005
0
LINE
8
LYELLOW
6
CONTINUOUS
10
59.0978569999999976
20
-32.0074380000000005
11
59.1930949999999996
21
-32.1026759999999953
0
LINE
8
LYELLOW
6
CONTINUOUS
10
59.1930949999999996
20
-32.1026759999999953
11
59.240713999999997
21
-32.1979139999999973
0
LINE
8
LYELLOW
6
CONTINUOUS
10
59.240713999999997
20
-32.1979139999999973
11
59.2883329999999944
21
-32.3883900000000011
0
LINE
8
LYELLOW
6
CONTINUOUS
10
59.2883329999999944
20
-32.3883900000000011
11
59.2883329999999944
21
-32.5312470000000005
0
LINE
8
LYELLOW
6
CONTINUOUS
10
59.2883329999999944
20
-32.5312470000000005
11
59.240713999999997
21
-32.7217229999999972
0
LINE
8
LYELLOW
6
CONTINUOUS
10
59.240713999999997
20
-32.7217229999999972
11
59.1930949999999996
21
-32.8169609999999992
0
LINE
8
LYELLOW
6
CONTINUOUS
10
59.1930949999999996
20
-32.8169609999999992
11
59.0978569999999976
21
-32.9121999999999986
0
LINE
8
LYELLOW
6
CONTINUOUS
10
59.0978569999999976
20
-32.9121999999999986
11
58.9549999999999983
21
-32.959818999999996
0
LINE
8
LYELLOW
6
CONTINUOUS
10
58.9549999999999983
20
-32.959818999999996
11
58.716904999999997
21
-32.959818999999996
0
LINE
8
LYELLOW
6
CONTINUOUS
10
60.240713999999997
20
-32.959818999999996
11
59.6692859999999996
21
-32.959818999999996
0
LINE
8
LYELLOW
6
CONTINUOUS
10
59.9549999999999983
20
-32.959818999999996
11
59.9549999999999983
21
-31.9598189999999995
0
LINE
8
LYELLOW
6
CONTINUOUS
10
59.9549999999999983
20
-31.9598189999999995
11
59.8597619999999964
21
-32.1026759999999953
0
LINE
8
LYELLOW
6
CONTINUOUS
10
59.8597619999999964
20
-32.1026759999999953
11
59.7645239999999944
21
-32.1979139999999973
0
LINE
8
LYELLOW
6
CONTINUOUS
10
59.7645239999999944
20
-32.1979139999999973
11
59.6692859999999996
21
-32.2455330000000018
0
LINE
8
LYELLOW
6
CONTINUOUS
10
54.1130949999999942
20
-33.3298190000000005
11
54.1130949999999942
21
-32.3298190000000005
0
LINE
8
LYELLOW
6
CONTINUOUS
10
54.6845229999999987
20
-33.3298190000000005
11
54.2559520000000006
21
-32.7583899999999986
0
LINE
8
LYELLOW
6
CONTINUOUS
10
54.6845229999999987
20
-32.3298190000000005
11
54.1130949999999942
21
-32.9012469999999979
0
LINE
8
LYELLOW
6
CONTINUOUS
10
133.
20
-42.2399999999999949
11
133.
21
-49.8599999999999994
0
LINE
8
LYELLOW
6
CONTINUOUS
10
133.
20
-49.8599999999999994
11
143.1599999999999966
21
-49.8599999999999994
0
LINE
8
LYELLOW
6
CONTINUOUS
10
143.1599999999999966
20
-42.2399999999999949
11
133.
21
-42.2399999999999949
0
LINE
8
LYELLOW
6
CONTINUOUS
10
143.1599999999999966
20
-48.5899999999999963
11
133.
21
-48.5899999999999963
0
LINE
8
LYELLOW
6
CONTINUOUS
10
143.1599999999999966
20
-49.8599999999999994
11
143.1599999999999966
21
-42.2399999999999949
0
LINE
8
LYELLOW
6
CONTINUOUS
10
54.6149999999999949
20
-65.9549999999999983
11
61.154999999999994
21
-65.9549999999999983
0
LINE
8
LYELLOW
6
CONTINUOUS
10
54.6149999999999949
20
-66.2849999999999966
11
54.6149999999999949
21
-65.9549999999999983
0
LINE
8
LYELLOW
6
CONTINUOUS
10
54.6149999999999949
20
-68.3649999999999949
11
54.6149999999999949
21
-68.6949999999999932
0
LINE
8
LYELLOW
6
CONTINUOUS
10
54.6149999999999949
20
-68.6949999999999932
11
61.154999999999994
21
-68.6949999999999932
0
LINE
8
LYELLOW
6
CONTINUOUS
10
61.154999999999994
20
-65.9549999999999983
11
61.154999999999994
21
-66.2849999999999966
0
LINE
8
LYELLOW
6
CONTINUOUS
10
61.154999999999994
20
-68.6949999999999932
11
61.154999999999994
21
-68.3649999999999949
0
LINE
8
LYELLOW
6
CONTINUOUS
10
72.3849999999999909
20
-65.9549999999999983
11
78.9249999999999972
21
-65.9549999999999983
0
LINE
8
LYELLOW
6
CONTINUOUS
10
72.3849999999999909
20
-66.2849999999999966
11
72.3849999999999909
21
-65.9549999999999983
0
LINE
8
LYELLOW
6
CONTINUOUS
10
72.3849999999999909
20
-68.3649999999999949
11
72.3849999999999909
21
-68.6949999999999932
0
LINE
8
LYELLOW
6
CONTINUOUS
10
72.3849999999999909
20
-68.6949999999999932
11
78.9249999999999972
21
-68.6949999999999932
0
LINE
8
LYELLOW
6
CONTINUOUS
10
78.9249999999999972
20
-65.9549999999999983
11
78.9249999999999972
21
-66.2849999999999966
0
LINE
8
LYELLOW
6
CONTINUOUS
10
78.9249999999999972
20
-68.6949999999999932
11
78.9249999999999972
21
-68.3649999999999949
0
LINE
8
LYELLOW
6
CONTINUOUS
10
56.0349999999999966
20
-46.4849999999999994
11
56.0349999999999966
21
-56.7650000000000006
0
LINE
8
LYELLOW
6
CONTINUOUS
10
56.0349999999999966
20
-56.7650000000000006
11
60.5349999999999966
21
-56.7650000000000006
0
LINE
8
LYELLOW
6
CONTINUOUS
10
57.2849999999999966
20
-46.4849999999999994
11
56.0349999999999966
21
-46.4849999999999994
0
LINE
8
LYELLOW
6
CONTINUOUS
10
60.5349999999999966
20
-46.4849999999999994
11
59.2849999999999966
21
-46.4849999999999994
0
LINE
8
LYELLOW
6
CONTINUOUS
10
60.5349999999999966
20
-56.7650000000000006
11
60.5349999999999966
21
-46.4849999999999994
0
ARC
8
LYELLOW
10
58.2849999999999966
20
-46.4849999999999994
40
1.
50
-180.00000000
51
-0.00000000
0
LINE
8
LYELLOW
6
CONTINUOUS
10
107.9249999999999972
20
-65.9549999999999983
11
114.4649999999999892
21
-65.9549999999999983
0
LINE
8
LYELLOW
6
CONTINUOUS
10
107.9249999999999972
20
-66.2849999999999966
11
107.9249999999999972
21
-65.9549999999999983
0
LINE
8
LYELLOW
6
CONTINUOUS
10
107.9249999999999972
20
-68.3649999999999949
11
107.9249999999999972
21
-68.6949999999999932
0
LINE
8
LYELLOW
6
CONTINUOUS
10
107.9249999999999972
20
-68.6949999999999932
11
114.4649999999999892
21
-68.6949999999999932
0
LINE
8
LYELLOW
6
CONTINUOUS
10
114.4649999999999892
20
-65.9549999999999983
11
114.4649999999999892
21
-66.2849999999999966
0
LINE
8
LYELLOW
6
CONTINUOUS
10
114.4649999999999892
20
-68.6949999999999932
11
114.4649999999999892
21
-68.3649999999999949
0
LINE
8
LYELLOW
6
CONTINUOUS
10
76.625
20
-34.9750000000000014
11
77.644999999999996
21
-34.9750000000000014
0
LINE
8
LYELLOW
6
CONTINUOUS
10
78.4249999999999972
20
-33.5049999999999955
11
78.4249999999999972
21
-36.4450000000000003
0
LINE
8
LYELLOW
6
CONTINUOUS
10
78.5450000000000017
20
-33.5049999999999955
11
78.5450000000000017
21
-36.4450000000000003
0
LINE
8
LYELLOW
6
CONTINUOUS
10
78.664999999999992
20
-33.5049999999999955
11
78.664999999999992
21
-36.4450000000000003
0
LINE
8
LYELLOW
6
CONTINUOUS
10
84.1049999999999898
20
-34.9750000000000014
11
83.0849999999999937
21
-34.9750000000000014
0
LINE
8
LYELLOW
6
CONTINUOUS
10
77.644999999999996
20
-33.5049999999999955
11
83.0849999999999937
21
-33.5049999999999955
0
LINE
8
LYELLOW
6
CONTINUOUS
10
83.0849999999999937
20
-33.5049999999999955
11
83.0849999999999937
21
-36.4450000000000003
0
LINE
8
LYELLOW
6
CONTINUOUS
10
83.0849999999999937
20
-36.4450000000000003
11
77.644999999999996
21
-36.4450000000000003
0
LINE
8
LYELLOW
6
CONTINUOUS
10
77.644999999999996
20
-36.4450000000000003
11
77.644999999999996
21
-33.5049999999999955
0
LINE
8
LYELLOW
6
CONTINUOUS
10
90.1550000000000011
20
-65.9549999999999983
11
96.6949999999999932
21
-65.9549999999999983
0
LINE
8
LYELLOW
6
CONTINUOUS
10
90.1550000000000011
20
-66.2849999999999966
11
90.1550000000000011
21
-65.9549999999999983
0
LINE
8
LYELLOW
6
CONTINUOUS
10
90.1550000000000011
20
-68.3649999999999949
11
90.1550000000000011
21
-68.6949999999999932
0
LINE
8
LYELLOW
6
CONTINUOUS
10
90.1550000000000011
20
-68.6949999999999932
11
96.6949999999999932
21
-68.6949999999999932
0
LINE
8
LYELLOW
6
CONTINUOUS
10
96.6949999999999932
20
-65.9549999999999983
11
96.6949999999999932
21
-66.2849999999999966
0
LINE
8
LYELLOW
6
CONTINUOUS
10
96.6949999999999932
20
-68.6949999999999932
11
96.6949999999999932
21
-68.3649999999999949
0
LINE
8
LYELLOW
6
CONTINUOUS
10
130.460000000000008
20
-28.1899999999999977
11
145.6999999999999886
21
-28.1899999999999977
0
LINE
8
LYELLOW
6
CONTINUOUS
10
130.460000000000008
20
-34.5399999999999991
11
145.6999999999999886
21
-34.5399999999999991
0
LINE
8
LYELLOW
6
CONTINUOUS
10
130.460000000000008
20
-35.8099999999999952
11
130.460000000000008
21
-28.1899999999999977
0
LINE
8
LYELLOW
6
CONTINUOUS
10
130.460000000000008
20
-35.8099999999999952
11
145.6999999999999886
21
-35.8099999999999952
0
LINE
8
LYELLOW
6
CONTINUOUS
10
145.6999999999999886
20
-35.8099999999999952
11
145.6999999999999886
21
-28.1899999999999977
0
LINE
8
LYELLOW
6
CONTINUOUS
10
33.6199999999999974
20
-32.0049999999999955
11
33.6199999999999974
21
-29.3550000000000004
0
LINE
8
LYELLOW
6
CONTINUOUS
10
36.3799999999999955
20
-29.3550000000000004
11
33.6199999999999974
21
-29.3550000000000004
0
LINE
8
LYELLOW
6
CONTINUOUS
10
36.3799999999999955
20
-32.0049999999999955
11
33.6199999999999974
21
-32.0049999999999955
0
LINE
8
LYELLOW
6
CONTINUOUS
10
36.3799999999999955
20
-32.0049999999999955
11
36.3799999999999955
21
-29.3550000000000004
0
LINE
8
LYELLOW
6
CONTINUOUS
10
36.3799999999999955
20
-33.2749999999999986
11
36.3799999999999955
21
-34.6550000000000011
0
LINE
8
LYELLOW
6
CONTINUOUS
10
36.3799999999999955
20
-34.6550000000000011
11
35.
21
-34.6550000000000011
0
LINE
8
LYELLOW
6
CONTINUOUS
10
94.9849999999999994
20
-32.6649999999999991
11
105.2049999999999983
21
-32.6649999999999991
0
LINE
8
LYELLOW
6
CONTINUOUS
10
94.9849999999999994
20
-34.0450000000000017
11
105.2049999999999983
21
-34.0450000000000017
0
LINE
8
LYELLOW
6
CONTINUOUS
10
94.9849999999999994
20
-37.2849999999999966
11
94.9849999999999994
21
-32.6649999999999991
0
LINE
8
LYELLOW
6
CONTINUOUS
10
98.2449999999999903
20
-32.6649999999999991
11
98.2449999999999903
21
-34.0450000000000017
0
LINE
8
LYELLOW
6
CONTINUOUS
10
101.9449999999999932
20
-32.6649999999999991
11
101.9449999999999932
21
-34.0450000000000017
0
LINE
8
LYELLOW
6
CONTINUOUS
10
105.2049999999999983
20
-32.6649999999999991
11
105.2049999999999983
21
-37.2849999999999966
0
LINE
8
LYELLOW
6
CONTINUOUS
10
105.2049999999999983
20
-37.2849999999999966
11
94.9849999999999994
21
-37.2849999999999966
0
LINE
8
LYELLOW
6
CONTINUOUS
10
107.8396999999999935
20
-50.2549999999999955
11
113.0796999999999883
21
-50.2549999999999955
0
LINE
8
LYELLOW
6
CONTINUOUS
10
107.8396999999999935
20
-50.5919999999999987
11
107.8396999999999935
21
-50.2549999999999955
0
LINE
8
LYELLOW
6
CONTINUOUS
10
107.8396999999999935
20
-52.9949999999999974
11
107.8396999999999935
21
-52.6579999999999941
0
LINE
8
LYELLOW
6
CONTINUOUS
10
113.0796999999999883
20
-50.2549999999999955
11
113.0796999999999883
21
-50.5919999999999987
0
LINE
8
LYELLOW
6
CONTINUOUS
10
113.0796999999999883
20
-52.6579999999999941
11
113.0796999999999883
21
-52.9949999999999974
0
LINE
8
LYELLOW
6
CONTINUOUS
10
113.0796999999999883
20
-52.9949999999999974
11
107.8396999999999935
21
-52.9949999999999974
0
LINE
8
LYELLOW
6
CONTINUOUS
10
90.2000019999999978
20
-49.3099999999999952
11
91.000001999999995
21
-49.3099999999999952
0
LINE
8
LYELLOW
6
CONTINUOUS
10
90.6000019999999893
20
-48.9099999999999966
11
90.6000019999999893
21
-49.7100000000000009
0
LINE
8
LYELLOW
6
CONTINUOUS
10
94.6096999999999895
20
-47.5449999999999946
11
94.6096999999999895
21
-55.7049999999999983
0
LINE
8
LYELLOW
6
CONTINUOUS
10
94.6496999999999957
20
-47.5449999999999946
11
94.6496999999999957
21
-55.7049999999999983
0
LINE
8
LYELLOW
6
CONTINUOUS
10
94.689700000000002
20
-47.5459999999999994
11
94.689700000000002
21
-55.7040000000000006
0
LINE
8
LYELLOW
6
CONTINUOUS
10
94.729699999999994
20
-47.546999999999997
11
94.729699999999994
21
-55.7029999999999959
0
LINE
8
LYELLOW
6
CONTINUOUS
10
94.7697000000000003
20
-47.5479999999999947
11
94.7697000000000003
21
-55.7019999999999982
0
LINE
8
LYELLOW
6
CONTINUOUS
10
94.8096999999999923
20
-47.5499999999999972
11
94.8096999999999923
21
-55.6999999999999957
0
LINE
8
LYELLOW
6
CONTINUOUS
10
94.8496999999999986
20
-47.5519999999999996
11
94.8496999999999986
21
-55.6980000000000004
0
LINE
8
LYELLOW
6
CONTINUOUS
10
94.8896999999999906
20
-47.5549999999999997
11
94.8896999999999906
21
-55.6950000000000003
0
LINE
8
LYELLOW
6
CONTINUOUS
10
94.9296999999999969
20
-47.5569999999999951
11
94.9296999999999969
21
-55.6929999999999978
0
LINE
8
LYELLOW
6
CONTINUOUS
10
94.9696999999999889
20
-47.5609999999999999
11
94.9696999999999889
21
-55.6890000000000001
0
LINE
8
LYELLOW
6
CONTINUOUS
10
95.0096999999999952
20
-47.5640000000000001
11
95.0096999999999952
21
-55.6859999999999999
0
LINE
8
LYELLOW
6
CONTINUOUS
10
95.0497000000000014
20
-47.5689999999999955
11
95.0497000000000014
21
-55.6809999999999974
0
LINE
8
LYELLOW
6
CONTINUOUS
10
95.0896999999999935
20
-47.5730000000000004
11
95.0896999999999935
21
-55.6769999999999996
0
LINE
8
LYELLOW
6
CONTINUOUS
10
95.1296999999999997
20
-47.5779999999999959
11
95.1296999999999997
21
-55.671999999999997
0
LINE
8
LYELLOW
6
CONTINUOUS
10
95.1696999999999917
20
-47.5829999999999984
11
95.1696999999999917
21
-55.6669999999999945
0
LINE
8
LYELLOW
6
CONTINUOUS
10
95.209699999999998
20
-47.5889999999999986
11
95.209699999999998
21
-55.6609999999999943
0
LINE
8
LYELLOW
6
CONTINUOUS
10
95.24969999999999
20
-47.5949999999999989
11
95.24969999999999
21
-55.654999999999994
0
LINE
8
LYELLOW
6
CONTINUOUS
10
95.2896999999999963
20
-47.6019999999999968
11
95.2896999999999963
21
-55.6479999999999961
0
LINE
8
LYELLOW
6
CONTINUOUS
10
95.3297000000000025
20
-47.607999999999997
11
95.3297000000000025
21
-50.5850000000000009
0
LINE
8
LYELLOW
6
CONTINUOUS
10
95.3297000000000025
20
-52.6649999999999991
11
95.3297000000000025
21
-55.6419999999999959
0
LINE
8
LYELLOW
6
CONTINUOUS
10
95.3696999999999946
20
-47.6159999999999997
11
95.3696999999999946
21
-50.5850000000000009
0
LINE
8
LYELLOW
6
CONTINUOUS
10
95.3696999999999946
20
-52.6649999999999991
11
95.3696999999999946
21
-55.6340000000000003
0
LINE
8
LYELLOW
6
CONTINUOUS
10
95.4097000000000008
20
-47.6229999999999976
11
95.4097000000000008
21
-50.5850000000000009
0
LINE
8
LYELLOW
6
CONTINUOUS
10
95.4097000000000008
20
-52.6649999999999991
11
95.4097000000000008
21
-55.6269999999999953
0
LINE
8
LYELLOW
6
CONTINUOUS
10
95.4496999999999929
20
-47.6319999999999979
11
95.4496999999999929
21
-50.5850000000000009
0
LINE
8
LYELLOW
6
CONTINUOUS
10
95.4496999999999929
20
-52.6649999999999991
11
95.4496999999999929
21
-55.617999999999995
0
LINE
8
LYELLOW
6
CONTINUOUS
10
95.4896999999999991
20
-47.6400000000000006
11
95.4896999999999991
21
-50.5850000000000009
0
LINE
8
LYELLOW
6
CONTINUOUS
10
95.4896999999999991
20
-52.6649999999999991
11
95.4896999999999991
21
-55.6099999999999994
0
LINE
8
LYELLOW
6
CONTINUOUS
10
95.5296999999999912
20
-47.6490000000000009
11
95.5296999999999912
21
-50.5850000000000009
0
LINE
8
LYELLOW
6
CONTINUOUS
10
95.5296999999999912
20
-52.6649999999999991
11
95.5296999999999912
21
-55.6009999999999991
0
LINE
8
LYELLOW
6
CONTINUOUS
10
95.5696999999999974
20
-47.6580000000000013
11
95.5696999999999974
21
-50.5850000000000009
0
LINE
8
LYELLOW
6
CONTINUOUS
10
95.5696999999999974
20
-52.6649999999999991
11
95.5696999999999974
21
-55.5919999999999987
0
LINE
8
LYELLOW
6
CONTINUOUS
10
95.6096999999999895
20
-47.6679999999999993
11
95.6096999999999895
21
-50.5850000000000009
0
LINE
8
LYELLOW
6
CONTINUOUS
10
95.6096999999999895
20
-52.6649999999999991
11
95.6096999999999895
21
-55.5820000000000007
0
LINE
8
LYELLOW
6
CONTINUOUS
10
95.6496999999999957
20
-47.6779999999999973
11
95.6496999999999957
21
-50.5850000000000009
0
LINE
8
LYELLOW
6
CONTINUOUS
10
95.6496999999999957
20
-52.6649999999999991
11
95.6496999999999957
21
-55.5719999999999956
0
LINE
8
LYELLOW
6
CONTINUOUS
10
95.689700000000002
20
-47.6890000000000001
11
95.689700000000002
21
-50.5850000000000009
0
LINE
8
LYELLOW
6
CONTINUOUS
10
95.689700000000002
20
-52.6649999999999991
11
95.689700000000002
21
-55.5609999999999999
0
LINE
8
LYELLOW
6
CONTINUOUS
10
95.729699999999994
20
-47.6999999999999957
11
95.729699999999994
21
-50.5850000000000009
0
LINE
8
LYELLOW
6
CONTINUOUS
10
95.729699999999994
20
-52.6649999999999991
11
95.729699999999994
21
-55.5499999999999972
0
LINE
8
LYELLOW
6
CONTINUOUS
10
95.7697000000000003
20
-47.7119999999999962
11
95.7697000000000003
21
-50.5850000000000009
0
LINE
8
LYELLOW
6
CONTINUOUS
10
95.7697000000000003
20
-52.6649999999999991
11
95.7697000000000003
21
-55.5379999999999967
0
LINE
8
LYELLOW
6
CONTINUOUS
10
95.8096999999999923
20
-47.7239999999999966
11
95.8096999999999923
21
-50.5850000000000009
0
LINE
8
LYELLOW
6
CONTINUOUS
10
95.8096999999999923
20
-52.6649999999999991
11
95.8096999999999923
21
-55.5259999999999962
0
LINE
8
LYELLOW
6
CONTINUOUS
10
95.8496999999999986
20
-47.7359999999999971
11
95.8496999999999986
21
-50.5850000000000009
0
LINE
8
LYELLOW
6
CONTINUOUS
10
95.8496999999999986
20
-52.6649999999999991
11
95.8496999999999986
21
-55.5139999999999958
0
LINE
8
LYELLOW
6
CONTINUOUS
10
95.8896999999999906
20
-47.7489999999999952
11
95.8896999999999906
21
-50.5850000000000009
0
LINE
8
LYELLOW
6
CONTINUOUS
10
95.8896999999999906
20
-52.6649999999999991
11
95.8896999999999906
21
-55.5009999999999977
0
LINE
8
LYELLOW
6
CONTINUOUS
10
95.9296999999999969
20
-47.7620000000000005
11
95.9296999999999969
21
-50.5850000000000009
0
LINE
8
LYELLOW
6
CONTINUOUS
10
95.9296999999999969
20
-52.6649999999999991
11
95.9296999999999969
21
-55.4879999999999995
0
LINE
8
LYELLOW
6
CONTINUOUS
10
95.9696999999999889
20
-47.7759999999999962
11
95.9696999999999889
21
-50.5850000000000009
0
LINE
8
LYELLOW
6
CONTINUOUS
10
95.9696999999999889
20
-52.6649999999999991
11
95.9696999999999889
21
-55.4739999999999966
0
LINE
8
LYELLOW
6
CONTINUOUS
10
96.0096999999999952
20
-47.7899999999999991
11
96.0096999999999952
21
-50.5850000000000009
0
LINE
8
LYELLOW
6
CONTINUOUS
10
96.0096999999999952
20
-52.6649999999999991
11
96.0096999999999952
21
-55.4600000000000009
0
LINE
8
LYELLOW
6
CONTINUOUS
10
96.0497000000000014
20
-47.8049999999999997
11
96.0497000000000014
21
-50.5850000000000009
0
LINE
8
LYELLOW
6
CONTINUOUS
10
96.0497000000000014
20
-52.6649999999999991
11
96.0497000000000014
21
-55.4450000000000003
0
LINE
8
LYELLOW
6
CONTINUOUS
10
96.0896999999999935
20
-47.8200000000000003
11
96.0896999999999935
21
-50.5850000000000009
0
LINE
8
LYELLOW
6
CONTINUOUS
10
96.0896999999999935
20
-52.6649999999999991
11
96.0896999999999935
21
-55.4299999999999997
0
LINE
8
LYELLOW
6
CONTINUOUS
10
96.1296999999999997
20
-47.8359999999999985
11
96.1296999999999997
21
-50.5850000000000009
0
LINE
8
LYELLOW
6
CONTINUOUS
10
96.1296999999999997
20
-52.6649999999999991
11
96.1296999999999997
21
-55.4139999999999944
0
LINE
8
LYELLOW
6
CONTINUOUS
10
96.1696999999999917
20
-47.8519999999999968
11
96.1696999999999917
21
-50.5850000000000009
0
LINE
8
LYELLOW
6
CONTINUOUS
10
96.1696999999999917
20
-52.6649999999999991
11
96.1696999999999917
21
-55.3979999999999961
0
LINE
8
LYELLOW
6
CONTINUOUS
10
96.209699999999998
20
-47.867999999999995
11
96.209699999999998
21
-50.5850000000000009
0
LINE
8
LYELLOW
6
CONTINUOUS
10
96.209699999999998
20
-52.6649999999999991
11
96.209699999999998
21
-55.3819999999999979
0
LINE
8
LYELLOW
6
CONTINUOUS
10
96.24969999999999
20
-47.884999999999998
11
96.24969999999999
21
-50.5850000000000009
0
LINE
8
LYELLOW
6
CONTINUOUS
10
96.24969999999999
20
-52.6649999999999991
11
96.24969999999999
21
-55.3649999999999949
0
LINE
8
LYELLOW
6
CONTINUOUS
10
96.2896999999999963
20
-47.9029999999999987
11
96.2896999999999963
21
-50.5850000000000009
0
LINE
8
LYELLOW
6
CONTINUOUS
10
96.2896999999999963
20
-52.6649999999999991
11
96.2896999999999963
21
-55.3469999999999942
0
LINE
8
LYELLOW
6
CONTINUOUS
10
96.3297000000000025
20
-47.9209999999999994
11
96.3297000000000025
21
-50.5850000000000009
0
LINE
8
LYELLOW
6
CONTINUOUS
10
96.3297000000000025
20
-52.6649999999999991
11
96.3297000000000025
21
-55.3290000000000006
0
LINE
8
LYELLOW
6
CONTINUOUS
10
96.3696999999999946
20
-47.9399999999999977
11
96.3696999999999946
21
-50.5850000000000009
0
LINE
8
LYELLOW
6
CONTINUOUS
10
96.3696999999999946
20
-52.6649999999999991
11
96.3696999999999946
21
-55.3099999999999952
0
LINE
8
LYELLOW
6
CONTINUOUS
10
96.4097000000000008
20
-47.9589999999999961
11
96.4097000000000008
21
-50.5850000000000009
0
LINE
8
LYELLOW
6
CONTINUOUS
10
96.4097000000000008
20
-52.6649999999999991
11
96.4097000000000008
21
-55.2909999999999968
0
LINE
8
LYELLOW
6
CONTINUOUS
10
96.4496999999999929
20
-47.9789999999999992
11
96.4496999999999929
21
-50.5850000000000009
0
LINE
8
LYELLOW
6
CONTINUOUS
10
96.4496999999999929
20
-52.6649999999999991
11
96.4496999999999929
21
-55.2710000000000008
0
LINE
8
LYELLOW
6
CONTINUOUS
10
96.4896999999999991
20
-47.9989999999999952
11
96.4896999999999991
21
-50.5850000000000009
0
LINE
8
LYELLOW
6
CONTINUOUS
10
96.4896999999999991
20
-52.6649999999999991
11
96.4896999999999991
21
-55.2509999999999977
0
LINE
8
LYELLOW
6
CONTINUOUS
10
96.5296999999999912
20
-48.019999999999996
11
96.5296999999999912
21
-50.5850000000000009
0
LINE
8
LYELLOW
6
CONTINUOUS
10
96.5296999999999912
20
-52.6649999999999991
11
96.5296999999999912
21
-55.2299999999999969
0
LINE
8
LYELLOW
6
CONTINUOUS
10
96.5696999999999974
20
-48.0409999999999968
11
96.5696999999999974
21
-50.5850000000000009
0
LINE
8
LYELLOW
6
CONTINUOUS
10
96.5696999999999974
20
-52.6649999999999991
11
96.5696999999999974
21
-55.2089999999999961
0
LINE
8
LYELLOW
6
CONTINUOUS
10
96.6096999999999895
20
-48.0629999999999953
11
96.6096999999999895
21
-50.5850000000000009
0
LINE
8
LYELLOW
6
CONTINUOUS
10
96.6096999999999895
20
-52.6649999999999991
11
96.6096999999999895
21
-55.1869999999999976
0
LINE
8
LYELLOW
6
CONTINUOUS
10
96.6496999999999957
20
-48.0859999999999985
11
96.6496999999999957
21
-50.5850000000000009
0
LINE
8
LYELLOW
6
CONTINUOUS
10
96.6496999999999957
20
-52.6649999999999991
11
96.6496999999999957
21
-55.1639999999999944
0
LINE
8
LYELLOW
6
CONTINUOUS
10
96.689700000000002
20
-48.1089999999999947
11
96.689700000000002
21
-50.5850000000000009
0
LINE
8
LYELLOW
6
CONTINUOUS
10
96.689700000000002
20
-52.6649999999999991
11
96.689700000000002
21
-55.1409999999999982
0
LINE
8
LYELLOW
6
CONTINUOUS
10
96.729699999999994
20
-48.1319999999999979
11
96.729699999999994
21
-50.5850000000000009
0
LINE
8
LYELLOW
6
CONTINUOUS
10
96.729699999999994
20
-52.6649999999999991
11
96.729699999999994
21
-55.117999999999995
0
LINE
8
LYELLOW
6
CONTINUOUS
10
96.7697000000000003
20
-48.1569999999999965
11
96.7697000000000003
21
-50.5850000000000009
0
LINE
8
LYELLOW
6
CONTINUOUS
10
96.7697000000000003
20
-52.6649999999999991
11
96.7697000000000003
21
-55.0929999999999964
0
LINE
8
LYELLOW
6
CONTINUOUS
10
96.8096999999999923
20
-48.1819999999999951
11
96.8096999999999923
21
-50.5850000000000009
0
LINE
8
LYELLOW
6
CONTINUOUS
10
96.8096999999999923
20
-52.6649999999999991
11
96.8096999999999923
21
-55.0679999999999978
0
LINE
8
LYELLOW
6
CONTINUOUS
10
96.8496999999999986
20
-48.2070000000000007
11
96.8496999999999986
21
-50.5850000000000009
0
LINE
8
LYELLOW
6
CONTINUOUS
10
96.8496999999999986
20
-52.6649999999999991
11
96.8496999999999986
21
-55.0429999999999993
0
LINE
8
LYELLOW
6
CONTINUOUS
10
96.8896999999999906
20
-48.232999999999997
11
96.8896999999999906
21
-50.5850000000000009
0
LINE
8
LYELLOW
6
CONTINUOUS
10
96.8896999999999906
20
-52.6649999999999991
11
96.8896999999999906
21
-55.0169999999999959
0
LINE
8
LYELLOW
6
CONTINUOUS
10
96.9296999999999969
20
-48.259999999999998
11
96.9296999999999969
21
-50.5850000000000009
0
LINE
8
LYELLOW
6
CONTINUOUS
10
96.9296999999999969
20
-52.6649999999999991
11
96.9296999999999969
21
-54.9899999999999949
0
LINE
8
LYELLOW
6
CONTINUOUS
10
96.9696999999999889
20
-48.2879999999999967
11
96.9696999999999889
21
-50.5850000000000009
0
LINE
8
LYELLOW
6
CONTINUOUS
10
96.9696999999999889
20
-52.6649999999999991
11
96.9696999999999889
21
-54.9619999999999962
0
LINE
8
LYELLOW
6
CONTINUOUS
10
97.0096999999999952
20
-48.3159999999999954
11
97.0096999999999952
21
-50.5850000000000009
0
LINE
8
LYELLOW
6
CONTINUOUS
10
97.0096999999999952
20
-52.6649999999999991
11
97.0096999999999952
21
-54.9339999999999975
0
LINE
8
LYELLOW
6
CONTINUOUS
10
97.0497000000000014
20
-48.3449999999999989
11
97.0497000000000014
21
-50.5850000000000009
0
LINE
8
LYELLOW
6
CONTINUOUS
10
97.0497000000000014
20
-52.6649999999999991
11
97.0497000000000014
21
-54.904999999999994
0
LINE
8
LYELLOW
6
CONTINUOUS
10
97.0896999999999935
20
-48.375
11
97.0896999999999935
21
-50.5850000000000009
0
LINE
8
LYELLOW
6
CONTINUOUS
10
97.0896999999999935
20
-52.6649999999999991
11
97.0896999999999935
21
-54.875
0
LINE
8
LYELLOW
6
CONTINUOUS
10
97.1296999999999997
20
-48.4059999999999988
11
97.1296999999999997
21
-50.5850000000000009
0
LINE
8
LYELLOW
6
CONTINUOUS
10
97.1296999999999997
20
-52.6649999999999991
11
97.1296999999999997
21
-54.8439999999999941
0
LINE
8
LYELLOW
6
CONTINUOUS
10
97.1696999999999917
20
-48.4369999999999976
11
97.1696999999999917
21
-50.5850000000000009
0
LINE
8
LYELLOW
6
CONTINUOUS
10
97.1696999999999917
20
-52.6649999999999991
11
97.1696999999999917
21
-54.8129999999999953
0
LINE
8
LYELLOW
6
CONTINUOUS
10
97.209699999999998
20
-48.4690000000000012
11
97.209699999999998
21
-50.5850000000000009
0
LINE
8
LYELLOW
6
CONTINUOUS
10
97.209699999999998
20
-52.6649999999999991
11
97.209699999999998
21
-54.7809999999999988
0
LINE
8
LYELLOW
6
CONTINUOUS
10
97.24969999999999
20
-48.5019999999999953
11
97.24969999999999
21
-50.5850000000000009
0
LINE
8
LYELLOW
6
CONTINUOUS
10
97.24969999999999
20
-52.6649999999999991
11
97.24969999999999
21
-54.7479999999999976
0
LINE
8
LYELLOW
6
CONTINUOUS
10
97.2896999999999963
20
-48.5359999999999943
11
97.2896999999999963
21
-50.5850000000000009
0
LINE
8
LYELLOW
6
CONTINUOUS
10
97.2896999999999963
20
-52.6649999999999991
11
97.2896999999999963
21
-54.7139999999999986
0
LINE
8
LYELLOW
6
CONTINUOUS
10
97.3297000000000025
20
-48.5700000000000003
11
97.3297000000000025
21
-50.5850000000000009
0
LINE
8
LYELLOW
6
CONTINUOUS
10
97.3297000000000025
20
-52.6649999999999991
11
97.3297000000000025
21
-54.6799999999999997
0
LINE
8
LYELLOW
6
CONTINUOUS
10
97.3696999999999946
20
-48.6059999999999945
11
97.3696999999999946
21
-50.5850000000000009
0
LINE
8
LYELLOW
6
CONTINUOUS
10
97.3696999999999946
20
-52.6649999999999991
11
97.3696999999999946
21
-54.6439999999999984
0
LINE
8
LYELLOW
6
CONTINUOUS
10
97.4097000000000008
20
-48.6430000000000007
11
97.4097000000000008
21
-54.6069999999999993
0
LINE
8
LYELLOW
6
CONTINUOUS
10
97.4496999999999929
20
-48.6799999999999997
11
97.4496999999999929
21
-54.5700000000000003
0
LINE
8
LYELLOW
6
CONTINUOUS
10
97.4896999999999991
20
-48.7190000000000012
11
97.4896999999999991
21
-54.5309999999999988
0
LINE
8
LYELLOW
6
CONTINUOUS
10
97.5296999999999912
20
-48.7579999999999956
11
97.5296999999999912
21
-54.4919999999999973
0
LINE
8
LYELLOW
6
CONTINUOUS
10
97.5696999999999974
20
-48.7989999999999995
11
97.5696999999999974
21
-54.4510000000000005
0
LINE
8
LYELLOW
6
CONTINUOUS
10
97.6096999999999895
20
-48.8410000000000011
11
97.6096999999999895
21
-54.4089999999999989
0
LINE
8
LYELLOW
6
CONTINUOUS
10
97.6496999999999957
20
-48.8840000000000003
11
97.6496999999999957
21
-54.3659999999999997
0
LINE
8
LYELLOW
6
CONTINUOUS
10
97.689700000000002
20
-48.9289999999999949
11
97.689700000000002
21
-54.320999999999998
0
LINE
8
LYELLOW
6
CONTINUOUS
10
97.729699999999994
20
-48.9739999999999966
11
97.729699999999994
21
-54.2759999999999962
0
LINE
8
LYELLOW
6
CONTINUOUS
10
97.7697000000000003
20
-49.0210000000000008
11
97.7697000000000003
21
-54.2289999999999992
0
LINE
8
LYELLOW
6
CONTINUOUS
10
97.8096999999999923
20
-49.0700000000000003
11
97.8096999999999923
21
-54.1799999999999997
0
LINE
8
LYELLOW
6
CONTINUOUS
10
97.8496999999999986
20
-49.1199999999999974
11
97.8496999999999986
21
-54.1299999999999955
0
LINE
8
LYELLOW
6
CONTINUOUS
10
97.8896999999999906
20
-49.171999999999997
11
97.8896999999999906
21
-54.0779999999999959
0
LINE
8
LYELLOW
6
CONTINUOUS
10
97.9296999999999969
20
-49.2249999999999943
11
97.9296999999999969
21
-54.0249999999999986
0
LINE
8
LYELLOW
6
CONTINUOUS
10
97.9696999999999889
20
-49.2809999999999988
11
97.9696999999999889
21
-53.9689999999999941
0
LINE
8
LYELLOW
6
CONTINUOUS
10
98.0096999999999952
20
-49.338000000000001
11
98.0096999999999952
21
-53.911999999999999
0
LINE
8
LYELLOW
6
CONTINUOUS
10
98.0497000000000014
20
-49.3979999999999961
11
98.0497000000000014
21
-53.8519999999999968
0
LINE
8
LYELLOW
6
CONTINUOUS
10
98.0896999999999935
20
-49.4600000000000009
11
98.0896999999999935
21
-53.7899999999999991
0
LINE
8
LYELLOW
6
CONTINUOUS
10
98.1296999999999997
20
-49.5240000000000009
11
98.1296999999999997
21
-53.7259999999999991
0
LINE
8
LYELLOW
6
CONTINUOUS
10
98.1696999999999917
20
-49.5910000000000011
11
98.1696999999999917
21
-53.6589999999999989
0
LINE
8
LYELLOW
6
CONTINUOUS
10
98.209699999999998
20
-49.6609999999999943
11
98.209699999999998
21
-53.5889999999999986
0
LINE
8
LYELLOW
6
CONTINUOUS
10
98.24969999999999
20
-49.7349999999999994
11
98.24969999999999
21
-53.5150000000000006
0
LINE
8
LYELLOW
6
CONTINUOUS
10
98.2896999999999963
20
-49.8119999999999976
11
98.2896999999999963
21
-53.4379999999999953
0
LINE
8
LYELLOW
6
CONTINUOUS
10
98.3297000000000025
20
-49.8939999999999984
11
98.3297000000000025
21
-53.3559999999999945
0
LINE
8
LYELLOW
6
CONTINUOUS
10
98.3696999999999946
20
-49.9809999999999945
11
98.3696999999999946
21
-53.2689999999999984
0
LINE
8
LYELLOW
6
CONTINUOUS
10
98.4097000000000008
20
-50.0730000000000004
11
98.4097000000000008
21
-53.1769999999999996
0
LINE
8
LYELLOW
6
CONTINUOUS
10
98.4496999999999929
20
-50.171999999999997
11
98.4496999999999929
21
-53.0779999999999959
0
LINE
8
LYELLOW
6
CONTINUOUS
10
98.4896999999999991
20
-50.2789999999999964
11
98.4896999999999991
21
-52.9709999999999965
0
LINE
8
LYELLOW
6
CONTINUOUS
10
98.5296999999999912
20
-50.3969999999999985
11
98.5296999999999912
21
-52.8529999999999944
0
LINE
8
LYELLOW
6
CONTINUOUS
10
98.5696999999999974
20
-50.5279999999999987
11
98.5696999999999974
21
-52.7219999999999942
0
LINE
8
LYELLOW
6
CONTINUOUS
10
98.6096999999999895
20
-50.6779999999999973
11
98.6096999999999895
21
-52.5719999999999956
0
LINE
8
LYELLOW
6
CONTINUOUS
10
98.6496999999999957
20
-50.8569999999999993
11
98.6496999999999957
21
-52.3930000000000007
0
LINE
8
LYELLOW
6
CONTINUOUS
10
98.689700000000002
20
-51.0919999999999987
11
98.689700000000002
21
-52.1579999999999941
0
CIRCLE
8
LYELLOW
10
94.6096999999999895
20
-51.625
40
4.1200000000000001
0
LINE
8
LYELLOW
6
CONTINUOUS
10
74.6049999999999898
20
-42.6749999999999972
11
74.6049999999999898
21
-60.5749999999999957
0
LINE
8
LYELLOW
6
CONTINUOUS
10
74.6049999999999898
20
-60.5749999999999957
11
79.1049999999999898
21
-60.5749999999999957
0
LINE
8
LYELLOW
6
CONTINUOUS
10
75.8549999999999898
20
-42.6749999999999972
11
74.6049999999999898
21
-42.6749999999999972
0
LINE
8
LYELLOW
6
CONTINUOUS
10
79.1049999999999898
20
-42.6749999999999972
11
77.8549999999999898
21
-42.6749999999999972
0
LINE
8
LYELLOW
6
CONTINUOUS
10
79.1049999999999898
20
-60.5749999999999957
11
79.1049999999999898
21
-42.6749999999999972
0
ARC
8
LYELLOW
10
76.8549999999999898
20
-42.6749999999999972
40
1.
50
-180.00000000
51
-0.00000000
0
LINE
8
LYELLOW
6
CONTINUOUS
10
55.7149999999999963
20
-34.9750000000000014
11
56.7349999999999994
21
-34.9750000000000014
0
LINE
8
LYELLOW
6
CONTINUOUS
10
57.5150000000000006
20
-33.5049999999999955
11
57.5150000000000006
21
-36.4450000000000003
0
LINE
8
LYELLOW
6
CONTINUOUS
10
57.634999999999998
20
-33.5049999999999955
11
57.634999999999998
21
-36.4450000000000003
0
LINE
8
LYELLOW
6
CONTINUOUS
10
57.7549999999999955
20
-33.5049999999999955
11
57.7549999999999955
21
-36.4450000000000003
0
LINE
8
LYELLOW
6
CONTINUOUS
10
63.1950000000000003
20
-34.9750000000000014
11
62.1749999999999972
21
-34.9750000000000014
0
LINE
8
LYELLOW
6
CONTINUOUS
10
56.7349999999999994
20
-33.5049999999999955
11
62.1749999999999972
21
-33.5049999999999955
0
LINE
8
LYELLOW
6
CONTINUOUS
10
62.1749999999999972
20
-33.5049999999999955
11
62.1749999999999972
21
-36.4450000000000003
0
LINE
8
LYELLOW
6
CONTINUOUS
10
62.1749999999999972
20
-36.4450000000000003
11
56.7349999999999994
21
-36.4450000000000003
0
LINE
8
LYELLOW
6
CONTINUOUS
10
56.7349999999999994
20
-36.4450000000000003
11
56.7349999999999994
21
-33.5049999999999955
0
LINE
8
WHITE
6
CONTINUOUS
10
20.
20
-20.
11
154.
21
-20.
0
LINE
8
WHITE
6
CONTINUOUS
10
154.
20
-20.
11
154.
21
-80.
0
LINE
8
WHITE
6
CONTINUOUS
10
154.
20
-80.
11
20.
21
-80.
0
LINE
8
WHITE
6
CONTINUOUS
10
20.
20
-80.
11
20.
21
-20.
  0
ENDSEC
  0
EOF
