%TF.GenerationSoftware,KiCad,Pcbnew,9.0.6*%
%TF.CreationDate,2026-06-10T07:56:47+02:00*%
%TF.ProjectId,buck,6275636b-2e6b-4696-9361-645f70636258,rev?*%
%TF.SameCoordinates,Original*%
%TF.FileFunction,Copper,L2,Bot*%
%TF.FilePolarity,Positive*%
%FSLAX46Y46*%
G04 Gerber Fmt 4.6, Leading zero omitted, Abs format (unit mm)*
G04 Created by KiCad (PCBNEW 9.0.6) date 2026-06-10 07:56:47*
%MOMM*%
%LPD*%
G01*
G04 APERTURE LIST*
G04 Aperture macros list*
%AMRoundRect*
0 Rectangle with rounded corners*
0 $1 Rounding radius*
0 $2 $3 $4 $5 $6 $7 $8 $9 X,Y pos of 4 corners*
0 Add a 4 corners polygon primitive as box body*
4,1,4,$2,$3,$4,$5,$6,$7,$8,$9,$2,$3,0*
0 Add four circle primitives for the rounded corners*
1,1,$1+$1,$2,$3*
1,1,$1+$1,$4,$5*
1,1,$1+$1,$6,$7*
1,1,$1+$1,$8,$9*
0 Add four rect primitives between the rounded corners*
20,1,$1+$1,$2,$3,$4,$5,0*
20,1,$1+$1,$4,$5,$6,$7,0*
20,1,$1+$1,$6,$7,$8,$9,0*
20,1,$1+$1,$8,$9,$2,$3,0*%
G04 Aperture macros list end*
%TA.AperFunction,ComponentPad*%
%ADD10R,1.700000X1.700000*%
%TD*%
%TA.AperFunction,ComponentPad*%
%ADD11C,1.700000*%
%TD*%
%TA.AperFunction,ComponentPad*%
%ADD12R,1.700000X2.000000*%
%TD*%
%TA.AperFunction,ComponentPad*%
%ADD13O,1.700000X2.000000*%
%TD*%
%TA.AperFunction,ComponentPad*%
%ADD14RoundRect,0.250000X-0.550000X-0.550000X0.550000X-0.550000X0.550000X0.550000X-0.550000X0.550000X0*%
%TD*%
%TA.AperFunction,ComponentPad*%
%ADD15C,1.600000*%
%TD*%
%TA.AperFunction,ComponentPad*%
%ADD16C,2.600000*%
%TD*%
%TA.AperFunction,ComponentPad*%
%ADD17R,3.000000X3.000000*%
%TD*%
%TA.AperFunction,ComponentPad*%
%ADD18C,3.000000*%
%TD*%
%TA.AperFunction,ComponentPad*%
%ADD19RoundRect,0.249999X-0.850001X-0.850001X0.850001X-0.850001X0.850001X0.850001X-0.850001X0.850001X0*%
%TD*%
%TA.AperFunction,ComponentPad*%
%ADD20C,2.200000*%
%TD*%
%TA.AperFunction,ComponentPad*%
%ADD21RoundRect,0.250000X-0.950000X-0.550000X0.950000X-0.550000X0.950000X0.550000X-0.950000X0.550000X0*%
%TD*%
%TA.AperFunction,ComponentPad*%
%ADD22O,2.400000X1.600000*%
%TD*%
%TA.AperFunction,Conductor*%
%ADD23C,1.000000*%
%TD*%
G04 APERTURE END LIST*
D10*
%TO.P,J3,1*%
%TO.N,PWM*%
X35000000Y-47325000D03*
D11*
%TO.P,J3,2*%
%TO.N,GND_MCU*%
X35000000Y-44785000D03*
%TD*%
D12*
%TO.P,M1,1*%
%TO.N,GATE*%
X72479700Y-53275000D03*
D13*
%TO.P,M1,2*%
%TO.N,/VIN_15V*%
X75019700Y-53275000D03*
%TO.P,M1,3*%
%TO.N,/SW*%
X77559700Y-53275000D03*
%TD*%
D10*
%TO.P,J4,1*%
%TO.N,+12V_SW*%
X125030000Y-44775000D03*
D11*
%TO.P,J4,2*%
%TO.N,/SW*%
X125030000Y-47315000D03*
%TD*%
D14*
%TO.P,C1,1*%
%TO.N,/VOUT_5V*%
X55719700Y-52325000D03*
D15*
%TO.P,C1,2*%
%TO.N,/GND*%
X59219700Y-52325000D03*
%TD*%
%TO.P,R1,1*%
%TO.N,PWM*%
X89369700Y-52325000D03*
%TO.P,R1,2*%
%TO.N,Net-(R1-Pad2)*%
X96989700Y-52325000D03*
%TD*%
D16*
%TO.P,L1,1*%
%TO.N,/SW*%
X76685000Y-37775000D03*
%TO.P,L1,2*%
%TO.N,/VOUT_5V*%
X81685000Y-37775000D03*
%TD*%
D15*
%TO.P,R2,1*%
%TO.N,GATE*%
X54075000Y-63125000D03*
%TO.P,R2,2*%
%TO.N,/SW*%
X61695000Y-63125000D03*
%TD*%
D17*
%TO.P,J2,1*%
%TO.N,/VOUT_5V*%
X122490000Y-32000000D03*
D18*
%TO.P,J2,2*%
%TO.N,/GND*%
X127570000Y-32000000D03*
%TD*%
D17*
%TO.P,J1,1*%
%TO.N,/VIN_15V*%
X37540000Y-32000000D03*
D18*
%TO.P,J1,2*%
%TO.N,/GND*%
X32460000Y-32000000D03*
%TD*%
D19*
%TO.P,D1,1*%
%TO.N,/SW*%
X54375000Y-37775000D03*
D20*
%TO.P,D1,2*%
%TO.N,/GND*%
X64535000Y-37775000D03*
%TD*%
D21*
%TO.P,U1,1*%
%TO.N,Net-(R1-Pad2)*%
X93935000Y-35235000D03*
D22*
%TO.P,U1,2*%
%TO.N,GND_MCU*%
X93935000Y-37775000D03*
%TO.P,U1,3*%
%TO.N,N/C*%
X93935000Y-40315000D03*
%TO.P,U1,4*%
%TO.N,GATE*%
X101555000Y-40315000D03*
%TO.P,U1,5*%
%TO.N,+12V_SW*%
X101555000Y-37775000D03*
%TO.P,U1,6*%
%TO.N,N/C*%
X101555000Y-35235000D03*
%TD*%
D23*
%TO.N,+12V_SW*%
X115878300Y-37775000D02*
X122878300Y-44775000D01*
X101555000Y-37775000D02*
X115878300Y-37775000D01*
X125030000Y-44775000D02*
X122878300Y-44775000D01*
%TO.N,/GND*%
X35819200Y-35359200D02*
X62119200Y-35359200D01*
X32460000Y-32000000D02*
X35819200Y-35359200D01*
X127570000Y-32000000D02*
X124768300Y-29198300D01*
X73111700Y-29198300D02*
X64535000Y-37775000D01*
X62119200Y-35359200D02*
X64535000Y-37775000D01*
X124768300Y-29198300D02*
X73111700Y-29198300D01*
%TO.N,/SW*%
X76685000Y-37775000D02*
X74261000Y-40199000D01*
X77559700Y-55576700D02*
X78305900Y-56322900D01*
X56799000Y-40199000D02*
X54375000Y-37775000D01*
X70011400Y-63125000D02*
X77559700Y-55576700D01*
X78305900Y-56322900D02*
X116022100Y-56322900D01*
X116022100Y-56322900D02*
X125030000Y-47315000D01*
X61695000Y-63125000D02*
X70011400Y-63125000D01*
X77559700Y-53275000D02*
X77559700Y-55576700D01*
X74261000Y-40199000D02*
X56799000Y-40199000D01*
%TO.N,/VIN_15V*%
X46754800Y-65226700D02*
X56621100Y-65226700D01*
X68422300Y-61023300D02*
X75019700Y-54425900D01*
X31302200Y-29177000D02*
X29611500Y-30867700D01*
X60824500Y-61023300D02*
X68422300Y-61023300D01*
X34717000Y-29177000D02*
X31302200Y-29177000D01*
X29611500Y-48083400D02*
X46754800Y-65226700D01*
X75019700Y-54425900D02*
X75019700Y-53275000D01*
X56621100Y-65226700D02*
X60824500Y-61023300D01*
X37540000Y-32000000D02*
X34717000Y-29177000D01*
X29611500Y-30867700D02*
X29611500Y-48083400D01*
%TO.N,/VOUT_5V*%
X34424700Y-42316500D02*
X77143500Y-42316500D01*
X77143500Y-42316500D02*
X81685000Y-37775000D01*
X87460000Y-32000000D02*
X81685000Y-37775000D01*
X122490000Y-32000000D02*
X87460000Y-32000000D01*
X32848300Y-43892900D02*
X34424700Y-42316500D01*
X36444400Y-52325000D02*
X32848300Y-48728900D01*
X55719700Y-52325000D02*
X36444400Y-52325000D01*
X32848300Y-48728900D02*
X32848300Y-43892900D01*
%TO.N,GATE*%
X99054800Y-40316500D02*
X99053300Y-40315000D01*
X72479700Y-53275000D02*
X72479700Y-50973300D01*
X100855000Y-51442200D02*
X100855000Y-41668900D01*
X99054800Y-40320700D02*
X99054800Y-40316500D01*
X87944700Y-54451700D02*
X97845500Y-54451700D01*
X63925000Y-53275000D02*
X72479700Y-53275000D01*
X72479700Y-50973300D02*
X84466300Y-50973300D01*
X101555000Y-40315000D02*
X99053300Y-40315000D01*
X97845500Y-54451700D02*
X100855000Y-51442200D01*
X100855000Y-41668900D02*
X99799600Y-40613500D01*
X99347600Y-40613500D02*
X99054800Y-40320700D01*
X99799600Y-40613500D02*
X99347600Y-40613500D01*
X54075000Y-63125000D02*
X63925000Y-53275000D01*
X84466300Y-50973300D02*
X87944700Y-54451700D01*
%TO.N,GND_MCU*%
X35000000Y-44785000D02*
X78354300Y-44785000D01*
X78354300Y-44785000D02*
X85364300Y-37775000D01*
X85364300Y-37775000D02*
X93935000Y-37775000D01*
%TO.N,Net-(R1-Pad2)*%
X96989700Y-37447900D02*
X96989700Y-52325000D01*
X94776800Y-35235000D02*
X96989700Y-37447900D01*
X93935000Y-35235000D02*
X94776800Y-35235000D01*
%TO.N,PWM*%
X84369700Y-47325000D02*
X89369700Y-52325000D01*
X35000000Y-47325000D02*
X84369700Y-47325000D01*
%TD*%
%TA.AperFunction,NonConductor*%
G36*
X140442539Y-20520185D02*
G01*
X140488294Y-20572989D01*
X140499500Y-20624500D01*
X140499500Y-75375500D01*
X140479815Y-75442539D01*
X140427011Y-75488294D01*
X140375500Y-75499500D01*
X20624500Y-75499500D01*
X20557461Y-75479815D01*
X20511706Y-75427011D01*
X20500500Y-75375500D01*
X20500500Y-30765348D01*
X28311000Y-30765348D01*
X28311000Y-48185751D01*
X28343022Y-48387930D01*
X28343022Y-48387933D01*
X28358392Y-48435236D01*
X28358397Y-48435250D01*
X28359059Y-48437287D01*
X28406280Y-48582619D01*
X28423034Y-48615500D01*
X28426473Y-48622250D01*
X28426474Y-48622252D01*
X28451916Y-48672185D01*
X28499213Y-48765011D01*
X28619534Y-48930619D01*
X28619536Y-48930621D01*
X45907586Y-66218671D01*
X46062549Y-66331256D01*
X46073190Y-66338987D01*
X46164385Y-66385453D01*
X46255576Y-66431918D01*
X46255578Y-66431918D01*
X46255581Y-66431920D01*
X46352922Y-66463548D01*
X46450265Y-66495177D01*
X46551357Y-66511188D01*
X46652448Y-66527200D01*
X46652449Y-66527200D01*
X56723451Y-66527200D01*
X56723452Y-66527200D01*
X56925635Y-66495177D01*
X57022976Y-66463548D01*
X57120319Y-66431920D01*
X57211514Y-66385453D01*
X57302711Y-66338987D01*
X57468319Y-66218666D01*
X60003898Y-63683085D01*
X60065219Y-63649602D01*
X60134911Y-63654586D01*
X60190844Y-63696458D01*
X60209508Y-63732450D01*
X60211760Y-63739381D01*
X60326132Y-63963848D01*
X60474201Y-64167649D01*
X60474205Y-64167654D01*
X60652344Y-64345793D01*
X60652350Y-64345798D01*
X60794647Y-64449182D01*
X60856155Y-64493870D01*
X60999184Y-64566747D01*
X61080616Y-64608239D01*
X61080618Y-64608239D01*
X61080621Y-64608241D01*
X61320215Y-64686090D01*
X61569038Y-64725500D01*
X61569039Y-64725500D01*
X61820961Y-64725500D01*
X61820962Y-64725500D01*
X62069785Y-64686090D01*
X62309379Y-64608241D01*
X62533845Y-64493870D01*
X62595353Y-64449181D01*
X62661158Y-64425702D01*
X62668238Y-64425500D01*
X70113751Y-64425500D01*
X70113752Y-64425500D01*
X70315935Y-64393477D01*
X70462690Y-64345793D01*
X70510619Y-64330220D01*
X70601814Y-64283753D01*
X70693011Y-64237287D01*
X70858619Y-64116966D01*
X77505012Y-57470571D01*
X77526700Y-57458728D01*
X77546058Y-57443357D01*
X77556830Y-57442276D01*
X77566333Y-57437088D01*
X77590987Y-57438851D01*
X77615578Y-57436385D01*
X77631269Y-57441731D01*
X77636025Y-57442072D01*
X77648963Y-57447759D01*
X77715485Y-57481653D01*
X77715487Y-57481654D01*
X77806680Y-57528120D01*
X77806686Y-57528122D01*
X77857047Y-57544484D01*
X77904021Y-57559747D01*
X77904022Y-57559748D01*
X77928358Y-57567655D01*
X78001365Y-57591377D01*
X78203548Y-57623400D01*
X78203549Y-57623400D01*
X116124451Y-57623400D01*
X116124452Y-57623400D01*
X116326635Y-57591377D01*
X116423976Y-57559748D01*
X116521319Y-57528120D01*
X116612514Y-57481653D01*
X116703711Y-57435187D01*
X116869319Y-57314866D01*
X125201259Y-48982924D01*
X125262580Y-48949441D01*
X125269541Y-48948134D01*
X125362403Y-48933426D01*
X125416493Y-48924860D01*
X125663572Y-48844579D01*
X125895051Y-48726634D01*
X126105229Y-48573931D01*
X126288931Y-48390229D01*
X126441634Y-48180051D01*
X126559579Y-47948572D01*
X126639860Y-47701493D01*
X126668651Y-47519711D01*
X126680500Y-47444902D01*
X126680500Y-47185097D01*
X126658947Y-47049021D01*
X126639860Y-46928507D01*
X126559579Y-46681428D01*
X126559577Y-46681425D01*
X126559577Y-46681423D01*
X126441633Y-46449948D01*
X126441632Y-46449946D01*
X126396785Y-46388219D01*
X126373306Y-46322416D01*
X126389131Y-46254362D01*
X126409423Y-46227655D01*
X126424365Y-46212713D01*
X126509816Y-46127262D01*
X126605789Y-45974522D01*
X126665368Y-45804255D01*
X126668443Y-45776968D01*
X126680499Y-45669960D01*
X126680500Y-45669956D01*
X126680500Y-43880043D01*
X126680499Y-43880039D01*
X126665369Y-43745750D01*
X126665368Y-43745745D01*
X126605788Y-43575476D01*
X126530740Y-43456038D01*
X126509816Y-43422738D01*
X126382262Y-43295184D01*
X126318980Y-43255421D01*
X126229523Y-43199211D01*
X126059254Y-43139631D01*
X126059249Y-43139630D01*
X125924960Y-43124500D01*
X125924954Y-43124500D01*
X124135046Y-43124500D01*
X124135039Y-43124500D01*
X124000750Y-43139630D01*
X124000745Y-43139631D01*
X123830476Y-43199211D01*
X123677739Y-43295183D01*
X123545384Y-43427538D01*
X123484061Y-43461022D01*
X123414369Y-43456038D01*
X123370022Y-43427537D01*
X116725521Y-36783036D01*
X116725519Y-36783034D01*
X116559911Y-36662713D01*
X116491149Y-36627677D01*
X116473272Y-36618568D01*
X116473267Y-36618566D01*
X116468714Y-36616246D01*
X116377519Y-36569780D01*
X116268695Y-36534421D01*
X116264308Y-36532995D01*
X116264297Y-36532991D01*
X116182832Y-36506522D01*
X116006803Y-36478642D01*
X115980652Y-36474500D01*
X115980651Y-36474500D01*
X103276142Y-36474500D01*
X103209103Y-36454815D01*
X103163348Y-36402011D01*
X103153404Y-36332853D01*
X103175824Y-36277615D01*
X103264103Y-36156106D01*
X103323870Y-36073845D01*
X103438241Y-35849379D01*
X103516090Y-35609785D01*
X103555500Y-35360962D01*
X103555500Y-35109038D01*
X103516090Y-34860215D01*
X103438241Y-34620621D01*
X103438239Y-34620618D01*
X103438239Y-34620616D01*
X103384907Y-34515947D01*
X103323870Y-34396155D01*
X103254372Y-34300499D01*
X103175798Y-34192350D01*
X103175793Y-34192344D01*
X102997654Y-34014205D01*
X102997649Y-34014201D01*
X102793848Y-33866132D01*
X102793847Y-33866131D01*
X102793845Y-33866130D01*
X102678418Y-33807317D01*
X102569383Y-33751760D01*
X102329785Y-33673910D01*
X102176930Y-33649700D01*
X102080962Y-33634500D01*
X101029038Y-33634500D01*
X100933076Y-33649699D01*
X100780214Y-33673910D01*
X100540616Y-33751760D01*
X100316151Y-33866132D01*
X100112350Y-34014201D01*
X100112345Y-34014205D01*
X99934207Y-34192344D01*
X99934201Y-34192350D01*
X99786132Y-34396151D01*
X99671760Y-34620616D01*
X99593910Y-34860214D01*
X99554500Y-35109038D01*
X99554500Y-35360961D01*
X99593910Y-35609785D01*
X99671760Y-35849383D01*
X99743884Y-35990932D01*
X99761115Y-36024751D01*
X99786132Y-36073848D01*
X99934201Y-36277649D01*
X99934205Y-36277654D01*
X100073870Y-36417319D01*
X100107355Y-36478642D01*
X100102371Y-36548334D01*
X100073870Y-36592681D01*
X99934205Y-36732345D01*
X99934201Y-36732350D01*
X99786132Y-36936151D01*
X99671760Y-37160616D01*
X99593910Y-37400214D01*
X99554500Y-37649038D01*
X99554500Y-37900961D01*
X99593910Y-38149785D01*
X99671760Y-38389383D01*
X99786132Y-38613848D01*
X99934176Y-38817615D01*
X99957656Y-38883421D01*
X99941830Y-38951475D01*
X99891724Y-39000170D01*
X99833858Y-39014500D01*
X99155652Y-39014500D01*
X98950948Y-39014500D01*
X98904079Y-39021923D01*
X98748768Y-39046522D01*
X98748767Y-39046522D01*
X98659583Y-39075499D01*
X98659584Y-39075500D01*
X98554071Y-39109783D01*
X98523230Y-39125498D01*
X98523228Y-39125500D01*
X98470494Y-39152369D01*
X98401825Y-39165265D01*
X98337085Y-39138988D01*
X98296828Y-39081882D01*
X98290200Y-39041884D01*
X98290200Y-37345548D01*
X98258177Y-37143369D01*
X98258177Y-37143368D01*
X98258177Y-37143366D01*
X98241938Y-37093389D01*
X98196427Y-36953320D01*
X98195365Y-36949554D01*
X98110519Y-36783034D01*
X98110519Y-36783033D01*
X98101990Y-36766293D01*
X98077325Y-36732345D01*
X97981666Y-36600681D01*
X95958255Y-34577270D01*
X95924770Y-34515947D01*
X95922533Y-34501741D01*
X95920300Y-34479069D01*
X95920300Y-34479066D01*
X95860232Y-34281046D01*
X95762685Y-34098550D01*
X95683664Y-34002262D01*
X95631410Y-33938589D01*
X95471452Y-33807317D01*
X95471453Y-33807317D01*
X95471450Y-33807315D01*
X95288954Y-33709768D01*
X95090934Y-33649700D01*
X95090932Y-33649699D01*
X95090934Y-33649699D01*
X94971805Y-33637966D01*
X94936608Y-33634500D01*
X92933392Y-33634500D01*
X92895298Y-33638251D01*
X92779067Y-33649699D01*
X92581043Y-33709769D01*
X92502487Y-33751759D01*
X92398550Y-33807315D01*
X92398548Y-33807316D01*
X92398547Y-33807317D01*
X92238589Y-33938589D01*
X92113739Y-34090722D01*
X92107315Y-34098550D01*
X92090603Y-34129816D01*
X92009769Y-34281043D01*
X91949699Y-34479067D01*
X91938251Y-34595298D01*
X91934500Y-34633392D01*
X91934500Y-35836608D01*
X91937737Y-35869477D01*
X91949699Y-35990932D01*
X92009769Y-36188958D01*
X92064872Y-36292047D01*
X92079114Y-36360449D01*
X92054114Y-36425693D01*
X91997809Y-36467064D01*
X91955514Y-36474500D01*
X85261948Y-36474500D01*
X85119327Y-36497088D01*
X85050034Y-36488133D01*
X84996582Y-36443137D01*
X84975943Y-36376385D01*
X84994668Y-36309071D01*
X85012244Y-36286940D01*
X87962366Y-33336819D01*
X88023689Y-33303334D01*
X88050047Y-33300500D01*
X120065500Y-33300500D01*
X120132539Y-33320185D01*
X120178294Y-33372989D01*
X120189500Y-33424500D01*
X120189500Y-33544960D01*
X120204630Y-33679249D01*
X120204631Y-33679254D01*
X120264211Y-33849523D01*
X120320176Y-33938590D01*
X120360184Y-34002262D01*
X120487738Y-34129816D01*
X120640478Y-34225789D01*
X120741500Y-34261138D01*
X120810745Y-34285368D01*
X120810750Y-34285369D01*
X120901246Y-34295565D01*
X120945040Y-34300499D01*
X120945043Y-34300500D01*
X120945046Y-34300500D01*
X124034957Y-34300500D01*
X124034958Y-34300499D01*
X124102104Y-34292934D01*
X124169249Y-34285369D01*
X124169252Y-34285368D01*
X124169255Y-34285368D01*
X124339522Y-34225789D01*
X124492262Y-34129816D01*
X124619816Y-34002262D01*
X124715789Y-33849522D01*
X124775368Y-33679255D01*
X124775971Y-33673910D01*
X124790499Y-33544960D01*
X124790500Y-33544956D01*
X124790500Y-31359047D01*
X124810185Y-31292008D01*
X124862989Y-31246253D01*
X124932147Y-31236309D01*
X124995703Y-31265334D01*
X125002181Y-31271366D01*
X125262386Y-31531571D01*
X125295871Y-31592894D01*
X125297644Y-31635437D01*
X125269501Y-31849206D01*
X125269500Y-31849223D01*
X125269500Y-32150776D01*
X125269501Y-32150793D01*
X125308861Y-32449766D01*
X125386913Y-32741060D01*
X125502314Y-33019661D01*
X125502318Y-33019671D01*
X125653099Y-33280831D01*
X125836679Y-33520078D01*
X125836685Y-33520085D01*
X126049914Y-33733314D01*
X126049921Y-33733320D01*
X126289168Y-33916900D01*
X126550328Y-34067681D01*
X126550329Y-34067681D01*
X126550332Y-34067683D01*
X126736072Y-34144619D01*
X126828939Y-34183086D01*
X126828940Y-34183086D01*
X126828942Y-34183087D01*
X127120232Y-34261138D01*
X127419217Y-34300500D01*
X127419224Y-34300500D01*
X127720776Y-34300500D01*
X127720783Y-34300500D01*
X128019768Y-34261138D01*
X128311058Y-34183087D01*
X128589668Y-34067683D01*
X128850832Y-33916900D01*
X129090080Y-33733319D01*
X129303319Y-33520080D01*
X129486900Y-33280832D01*
X129637683Y-33019668D01*
X129753087Y-32741058D01*
X129831138Y-32449768D01*
X129870500Y-32150783D01*
X129870500Y-31849217D01*
X129831138Y-31550232D01*
X129753087Y-31258942D01*
X129637683Y-30980332D01*
X129584209Y-30887713D01*
X129486900Y-30719168D01*
X129303320Y-30479921D01*
X129303314Y-30479914D01*
X129090085Y-30266685D01*
X129090078Y-30266679D01*
X128850831Y-30083099D01*
X128589671Y-29932318D01*
X128589661Y-29932314D01*
X128311060Y-29816913D01*
X128019766Y-29738861D01*
X127720793Y-29699501D01*
X127720788Y-29699500D01*
X127720783Y-29699500D01*
X127419217Y-29699500D01*
X127419211Y-29699500D01*
X127419206Y-29699501D01*
X127205437Y-29727644D01*
X127136402Y-29716878D01*
X127101571Y-29692386D01*
X125615521Y-28206336D01*
X125615519Y-28206334D01*
X125449911Y-28086013D01*
X125358714Y-28039546D01*
X125267523Y-27993081D01*
X125201959Y-27971778D01*
X125170176Y-27961451D01*
X125146303Y-27953694D01*
X125072835Y-27929822D01*
X124898295Y-27902178D01*
X124870652Y-27897800D01*
X73009348Y-27897800D01*
X72985029Y-27901651D01*
X72807165Y-27929822D01*
X72612476Y-27993081D01*
X72473980Y-28063649D01*
X72430090Y-28086013D01*
X72430089Y-28086014D01*
X72422191Y-28091752D01*
X72422190Y-28091751D01*
X72422190Y-28091752D01*
X72264486Y-28206328D01*
X72264482Y-28206332D01*
X64632634Y-35838181D01*
X64605706Y-35852884D01*
X64579888Y-35869477D01*
X64573687Y-35870368D01*
X64571311Y-35871666D01*
X64544953Y-35874500D01*
X64525047Y-35874500D01*
X64458008Y-35854815D01*
X64437366Y-35838181D01*
X62966421Y-34367236D01*
X62966419Y-34367234D01*
X62800811Y-34246913D01*
X62693712Y-34192344D01*
X62693710Y-34192342D01*
X62643516Y-34166768D01*
X62618419Y-34153980D01*
X62521076Y-34122351D01*
X62497203Y-34114594D01*
X62423735Y-34090722D01*
X62249195Y-34063078D01*
X62221552Y-34058700D01*
X62221551Y-34058700D01*
X39858715Y-34058700D01*
X39791676Y-34039015D01*
X39745921Y-33986211D01*
X39735977Y-33917053D01*
X39753722Y-33868727D01*
X39765788Y-33849524D01*
X39765789Y-33849522D01*
X39825368Y-33679255D01*
X39825971Y-33673910D01*
X39840499Y-33544960D01*
X39840500Y-33544956D01*
X39840500Y-30455043D01*
X39840499Y-30455039D01*
X39825369Y-30320750D01*
X39825368Y-30320745D01*
X39765789Y-30150478D01*
X39669816Y-29997738D01*
X39542262Y-29870184D01*
X39457482Y-29816913D01*
X39389523Y-29774211D01*
X39219254Y-29714631D01*
X39219249Y-29714630D01*
X39084960Y-29699500D01*
X39084954Y-29699500D01*
X37130046Y-29699500D01*
X37063007Y-29679815D01*
X37042365Y-29663181D01*
X35564221Y-28185036D01*
X35564220Y-28185035D01*
X35564219Y-28185034D01*
X35398611Y-28064713D01*
X35307414Y-28018246D01*
X35216219Y-27971780D01*
X35087089Y-27929823D01*
X35021535Y-27908523D01*
X35021532Y-27908522D01*
X34866220Y-27883923D01*
X34819352Y-27876500D01*
X31199848Y-27876500D01*
X31199844Y-27876500D01*
X31102722Y-27891883D01*
X31098757Y-27892511D01*
X30997665Y-27908523D01*
X30932111Y-27929823D01*
X30926670Y-27931590D01*
X30926665Y-27931592D01*
X30802983Y-27971778D01*
X30711784Y-28018245D01*
X30711785Y-28018246D01*
X30620596Y-28064709D01*
X30620592Y-28064711D01*
X30620589Y-28064713D01*
X30620585Y-28064716D01*
X30591269Y-28086015D01*
X30454987Y-28185028D01*
X30454982Y-28185032D01*
X28619536Y-30020478D01*
X28619531Y-30020484D01*
X28499213Y-30186088D01*
X28497088Y-30190260D01*
X28497085Y-30190266D01*
X28406281Y-30368476D01*
X28343022Y-30563165D01*
X28311000Y-30765348D01*
X20500500Y-30765348D01*
X20500500Y-20624500D01*
X20520185Y-20557461D01*
X20572989Y-20511706D01*
X20624500Y-20500500D01*
X140375500Y-20500500D01*
X140442539Y-20520185D01*
G37*
%TD.AperFunction*%
%TA.AperFunction,NonConductor*%
G36*
X34820907Y-31129736D02*
G01*
X34854407Y-31153592D01*
X35203181Y-31502365D01*
X35236666Y-31563688D01*
X35239500Y-31590046D01*
X35239500Y-32640953D01*
X35219815Y-32707992D01*
X35167011Y-32753747D01*
X35097853Y-32763691D01*
X35034297Y-32734666D01*
X35027819Y-32728634D01*
X34767612Y-32468427D01*
X34734127Y-32407104D01*
X34732354Y-32364565D01*
X34760500Y-32150783D01*
X34760500Y-31849217D01*
X34721138Y-31550232D01*
X34646951Y-31273362D01*
X34648614Y-31203517D01*
X34687776Y-31145654D01*
X34752005Y-31118150D01*
X34820907Y-31129736D01*
G37*
%TD.AperFunction*%
%TA.AperFunction,NonConductor*%
G36*
X87104246Y-30503333D02*
G01*
X87120330Y-30502874D01*
X87137080Y-30512974D01*
X87155846Y-30518485D01*
X87166381Y-30530643D01*
X87180163Y-30538954D01*
X87188794Y-30556509D01*
X87201601Y-30571289D01*
X87203890Y-30587213D01*
X87210991Y-30601655D01*
X87208761Y-30621086D01*
X87211545Y-30640447D01*
X87204860Y-30655084D01*
X87203026Y-30671070D01*
X87190645Y-30686211D01*
X87182520Y-30704003D01*
X87168491Y-30713304D01*
X87158798Y-30725159D01*
X87127125Y-30740731D01*
X87058123Y-30763150D01*
X87058123Y-30763151D01*
X86960781Y-30794780D01*
X86960779Y-30794780D01*
X86960779Y-30794781D01*
X86960775Y-30794782D01*
X86931985Y-30809452D01*
X86931464Y-30809718D01*
X86783902Y-30884903D01*
X86778387Y-30887714D01*
X86778384Y-30887716D01*
X86612778Y-31008036D01*
X81975170Y-35645643D01*
X81913847Y-35679128D01*
X81871306Y-35680902D01*
X81857829Y-35679128D01*
X81822674Y-35674500D01*
X81547326Y-35674500D01*
X81547320Y-35674500D01*
X81547315Y-35674501D01*
X81274344Y-35710438D01*
X81274337Y-35710439D01*
X81274334Y-35710440D01*
X81218125Y-35725500D01*
X81008369Y-35781704D01*
X80753982Y-35887075D01*
X80753971Y-35887080D01*
X80515516Y-36024754D01*
X80297073Y-36192370D01*
X80297066Y-36192376D01*
X80102376Y-36387066D01*
X80102370Y-36387073D01*
X79934754Y-36605516D01*
X79797080Y-36843971D01*
X79797075Y-36843982D01*
X79691704Y-37098369D01*
X79620441Y-37364331D01*
X79620438Y-37364344D01*
X79584501Y-37637315D01*
X79584500Y-37637326D01*
X79584500Y-37912674D01*
X79590070Y-37954985D01*
X79590902Y-37961306D01*
X79580134Y-38030341D01*
X79555643Y-38065170D01*
X78771376Y-38849437D01*
X78710053Y-38882922D01*
X78640361Y-38877938D01*
X78584428Y-38836066D01*
X78560011Y-38770602D01*
X78571886Y-38709985D01*
X78571370Y-38709771D01*
X78572430Y-38707211D01*
X78572493Y-38706891D01*
X78572910Y-38706043D01*
X78572923Y-38706021D01*
X78678295Y-38451632D01*
X78749560Y-38185666D01*
X78785500Y-37912674D01*
X78785500Y-37637326D01*
X78749560Y-37364334D01*
X78678295Y-37098368D01*
X78572923Y-36843979D01*
X78572921Y-36843976D01*
X78572919Y-36843971D01*
X78505505Y-36727208D01*
X78435249Y-36605521D01*
X78356948Y-36503477D01*
X78267629Y-36387073D01*
X78267623Y-36387066D01*
X78072933Y-36192376D01*
X78072926Y-36192370D01*
X77854483Y-36024754D01*
X77854482Y-36024753D01*
X77854479Y-36024751D01*
X77759407Y-35969861D01*
X77616028Y-35887080D01*
X77616017Y-35887075D01*
X77361630Y-35781704D01*
X77228649Y-35746072D01*
X77095666Y-35710440D01*
X77095660Y-35710439D01*
X77095655Y-35710438D01*
X76822684Y-35674501D01*
X76822679Y-35674500D01*
X76822674Y-35674500D01*
X76547326Y-35674500D01*
X76547320Y-35674500D01*
X76547315Y-35674501D01*
X76274344Y-35710438D01*
X76274337Y-35710439D01*
X76274334Y-35710440D01*
X76218125Y-35725500D01*
X76008369Y-35781704D01*
X75753982Y-35887075D01*
X75753971Y-35887080D01*
X75515516Y-36024754D01*
X75297073Y-36192370D01*
X75297066Y-36192376D01*
X75102376Y-36387066D01*
X75102370Y-36387073D01*
X74934754Y-36605516D01*
X74797080Y-36843971D01*
X74797075Y-36843982D01*
X74691704Y-37098369D01*
X74620441Y-37364331D01*
X74620438Y-37364344D01*
X74584501Y-37637315D01*
X74584500Y-37637326D01*
X74584500Y-37912674D01*
X74590070Y-37954985D01*
X74590902Y-37961306D01*
X74580134Y-38030341D01*
X74555643Y-38065170D01*
X73758634Y-38862181D01*
X73697311Y-38895666D01*
X73670953Y-38898500D01*
X66295630Y-38898500D01*
X66228591Y-38878815D01*
X66182836Y-38826011D01*
X66172892Y-38756853D01*
X66188243Y-38712500D01*
X66218188Y-38660632D01*
X66243164Y-38617373D01*
X66338502Y-38387207D01*
X66402982Y-38146565D01*
X66435500Y-37899565D01*
X66435500Y-37765047D01*
X66455185Y-37698008D01*
X66471819Y-37677366D01*
X73614066Y-30535119D01*
X73675389Y-30501634D01*
X73701747Y-30498800D01*
X87088807Y-30498800D01*
X87104246Y-30503333D01*
G37*
%TD.AperFunction*%
%TA.AperFunction,NonConductor*%
G36*
X61596192Y-36679385D02*
G01*
X61616834Y-36696019D01*
X62598181Y-37677366D01*
X62631666Y-37738689D01*
X62634500Y-37765047D01*
X62634500Y-37899558D01*
X62634501Y-37899575D01*
X62667017Y-38146561D01*
X62731498Y-38387207D01*
X62826830Y-38617361D01*
X62826837Y-38617376D01*
X62881757Y-38712500D01*
X62898230Y-38780401D01*
X62875377Y-38846427D01*
X62820456Y-38889618D01*
X62774370Y-38898500D01*
X57389046Y-38898500D01*
X57322007Y-38878815D01*
X57301365Y-38862181D01*
X56311818Y-37872633D01*
X56278333Y-37811310D01*
X56275499Y-37784952D01*
X56275499Y-36873396D01*
X56275499Y-36873391D01*
X56267862Y-36795851D01*
X56280881Y-36727208D01*
X56328946Y-36676498D01*
X56391265Y-36659700D01*
X61529153Y-36659700D01*
X61596192Y-36679385D01*
G37*
%TD.AperFunction*%
%TA.AperFunction,NonConductor*%
G36*
X77750117Y-39677593D02*
G01*
X77789634Y-39735214D01*
X77791726Y-39805053D01*
X77759437Y-39861376D01*
X76641134Y-40979681D01*
X76579811Y-41013166D01*
X76553453Y-41016000D01*
X75582547Y-41016000D01*
X75515508Y-40996315D01*
X75469753Y-40943511D01*
X75459809Y-40874353D01*
X75488834Y-40810797D01*
X75494866Y-40804319D01*
X75629994Y-40669190D01*
X76394830Y-39904353D01*
X76456151Y-39870870D01*
X76498691Y-39869097D01*
X76547326Y-39875500D01*
X76547333Y-39875500D01*
X76822667Y-39875500D01*
X76822674Y-39875500D01*
X77095666Y-39839560D01*
X77361632Y-39768295D01*
X77616021Y-39662923D01*
X77616043Y-39662910D01*
X77616891Y-39662493D01*
X77617182Y-39662442D01*
X77619771Y-39661370D01*
X77620010Y-39661948D01*
X77685721Y-39650484D01*
X77750117Y-39677593D01*
G37*
%TD.AperFunction*%
%TA.AperFunction,NonConductor*%
G36*
X31111486Y-33864966D02*
G01*
X31179168Y-33916900D01*
X31440328Y-34067681D01*
X31440329Y-34067681D01*
X31440332Y-34067683D01*
X31626072Y-34144619D01*
X31718939Y-34183086D01*
X31718940Y-34183086D01*
X31718942Y-34183087D01*
X32010232Y-34261138D01*
X32309217Y-34300500D01*
X32309224Y-34300500D01*
X32610776Y-34300500D01*
X32610783Y-34300500D01*
X32824563Y-34272354D01*
X32893595Y-34283119D01*
X32928427Y-34307612D01*
X34971981Y-36351166D01*
X35137589Y-36471487D01*
X35200374Y-36503477D01*
X35319980Y-36564420D01*
X35319986Y-36564422D01*
X35370347Y-36580784D01*
X35417321Y-36596047D01*
X35417322Y-36596048D01*
X35441658Y-36603955D01*
X35514665Y-36627677D01*
X35716848Y-36659700D01*
X35921551Y-36659700D01*
X52358734Y-36659700D01*
X52425773Y-36679385D01*
X52471528Y-36732189D01*
X52482137Y-36795854D01*
X52474500Y-36873394D01*
X52474500Y-38676604D01*
X52489699Y-38830932D01*
X52489700Y-38830935D01*
X52549768Y-39028955D01*
X52642644Y-39202713D01*
X52647317Y-39211454D01*
X52778589Y-39371410D01*
X52881618Y-39455963D01*
X52938549Y-39502685D01*
X53121045Y-39600232D01*
X53319065Y-39660300D01*
X53319064Y-39660300D01*
X53329929Y-39661370D01*
X53473391Y-39675500D01*
X54384952Y-39675499D01*
X54451991Y-39695183D01*
X54472633Y-39711818D01*
X55565135Y-40804319D01*
X55598620Y-40865642D01*
X55593636Y-40935334D01*
X55551764Y-40991267D01*
X55486300Y-41015684D01*
X55477454Y-41016000D01*
X34527051Y-41016000D01*
X34322348Y-41016000D01*
X34254953Y-41026674D01*
X34120163Y-41048023D01*
X34022823Y-41079650D01*
X34022823Y-41079651D01*
X33925481Y-41111280D01*
X33925479Y-41111280D01*
X33925479Y-41111281D01*
X33841942Y-41153844D01*
X33841943Y-41153845D01*
X33743087Y-41204214D01*
X33743084Y-41204216D01*
X33577478Y-41324536D01*
X31856336Y-43045678D01*
X31736016Y-43211284D01*
X31736014Y-43211287D01*
X31713527Y-43255421D01*
X31643081Y-43393676D01*
X31616820Y-43474501D01*
X31579822Y-43588364D01*
X31560594Y-43709771D01*
X31547800Y-43790548D01*
X31547800Y-47881153D01*
X31528115Y-47948192D01*
X31475311Y-47993947D01*
X31406153Y-48003891D01*
X31342597Y-47974866D01*
X31336119Y-47968834D01*
X30948319Y-47581034D01*
X30914834Y-47519711D01*
X30912000Y-47493353D01*
X30912000Y-33963342D01*
X30931685Y-33896303D01*
X30984489Y-33850548D01*
X31053647Y-33840604D01*
X31111486Y-33864966D01*
G37*
%TD.AperFunction*%
%TA.AperFunction,NonConductor*%
G36*
X98418514Y-41573825D02*
G01*
X98431847Y-41571909D01*
X98451990Y-41581108D01*
X98473627Y-41585815D01*
X98491352Y-41599083D01*
X98495403Y-41600934D01*
X98499041Y-41604322D01*
X98500384Y-41605469D01*
X98581317Y-41664269D01*
X98608296Y-41683870D01*
X98665990Y-41725787D01*
X98755447Y-41771367D01*
X98848381Y-41818721D01*
X98848384Y-41818722D01*
X98945724Y-41850349D01*
X99043066Y-41881977D01*
X99224070Y-41910645D01*
X99287204Y-41940574D01*
X99292352Y-41945437D01*
X99518181Y-42171266D01*
X99551666Y-42232589D01*
X99554500Y-42258947D01*
X99554500Y-50852153D01*
X99534815Y-50919192D01*
X99518181Y-50939834D01*
X98683330Y-51774684D01*
X98622007Y-51808169D01*
X98552315Y-51803185D01*
X98496382Y-51761313D01*
X98477718Y-51725321D01*
X98472942Y-51710623D01*
X98439599Y-51645184D01*
X98358570Y-51486155D01*
X98351946Y-51477038D01*
X98313882Y-51424646D01*
X98290402Y-51358840D01*
X98290200Y-51351761D01*
X98290200Y-41694647D01*
X98296438Y-41673401D01*
X98298018Y-41651313D01*
X98306090Y-41640529D01*
X98309885Y-41627608D01*
X98326618Y-41613108D01*
X98339890Y-41595380D01*
X98352510Y-41590672D01*
X98362689Y-41581853D01*
X98384606Y-41578701D01*
X98405354Y-41570963D01*
X98418514Y-41573825D01*
G37*
%TD.AperFunction*%
%TA.AperFunction,NonConductor*%
G36*
X92280897Y-39095185D02*
G01*
X92326652Y-39147989D01*
X92336596Y-39217147D01*
X92314176Y-39272385D01*
X92166132Y-39476151D01*
X92051760Y-39700616D01*
X91973910Y-39940214D01*
X91934500Y-40189038D01*
X91934500Y-40440961D01*
X91973910Y-40689785D01*
X92051760Y-40929383D01*
X92112211Y-41048023D01*
X92166129Y-41153844D01*
X92166132Y-41153848D01*
X92314201Y-41357649D01*
X92314205Y-41357654D01*
X92492345Y-41535794D01*
X92492350Y-41535798D01*
X92588245Y-41605469D01*
X92696155Y-41683870D01*
X92839184Y-41756747D01*
X92920616Y-41798239D01*
X92920618Y-41798239D01*
X92920621Y-41798241D01*
X93160215Y-41876090D01*
X93409038Y-41915500D01*
X93409039Y-41915500D01*
X94460961Y-41915500D01*
X94460962Y-41915500D01*
X94709785Y-41876090D01*
X94949379Y-41798241D01*
X95173845Y-41683870D01*
X95377656Y-41535793D01*
X95477519Y-41435930D01*
X95538842Y-41402445D01*
X95608534Y-41407429D01*
X95664467Y-41449301D01*
X95688884Y-41514765D01*
X95689200Y-41523611D01*
X95689200Y-51351761D01*
X95669515Y-51418800D01*
X95665518Y-51424646D01*
X95620832Y-51486151D01*
X95506460Y-51710616D01*
X95428610Y-51950214D01*
X95412842Y-52049771D01*
X95389200Y-52199038D01*
X95389200Y-52450962D01*
X95428610Y-52699785D01*
X95506461Y-52939386D01*
X95522522Y-52970906D01*
X95535418Y-53039575D01*
X95509141Y-53104315D01*
X95452035Y-53144572D01*
X95412037Y-53151200D01*
X90947363Y-53151200D01*
X90880324Y-53131515D01*
X90834569Y-53078711D01*
X90824625Y-53009553D01*
X90836878Y-52970906D01*
X90852938Y-52939386D01*
X90852938Y-52939382D01*
X90852941Y-52939379D01*
X90930790Y-52699785D01*
X90970200Y-52450962D01*
X90970200Y-52199038D01*
X90930790Y-51950215D01*
X90852941Y-51710621D01*
X90852939Y-51710618D01*
X90852939Y-51710616D01*
X90802298Y-51611229D01*
X90738570Y-51486155D01*
X90654939Y-51371046D01*
X90590498Y-51282350D01*
X90590494Y-51282345D01*
X90412354Y-51104205D01*
X90412349Y-51104201D01*
X90208548Y-50956132D01*
X90208547Y-50956131D01*
X90208545Y-50956130D01*
X89984079Y-50841759D01*
X89744485Y-50763910D01*
X89744483Y-50763909D01*
X89669389Y-50752015D01*
X89606254Y-50722085D01*
X89601107Y-50717223D01*
X85216921Y-46333036D01*
X85216920Y-46333035D01*
X85216919Y-46333034D01*
X85051311Y-46212713D01*
X84964609Y-46168536D01*
X84964605Y-46168534D01*
X84960114Y-46166246D01*
X84868919Y-46119780D01*
X84763416Y-46085500D01*
X84758963Y-46084053D01*
X84758953Y-46084049D01*
X84674232Y-46056522D01*
X84518920Y-46031923D01*
X84472052Y-46024500D01*
X84472051Y-46024500D01*
X79242450Y-46024500D01*
X79175411Y-46004815D01*
X79129656Y-45952011D01*
X79119712Y-45882853D01*
X79148737Y-45819297D01*
X79169565Y-45800182D01*
X79173002Y-45797684D01*
X79201519Y-45776966D01*
X85866666Y-39111819D01*
X85927989Y-39078334D01*
X85954347Y-39075500D01*
X92213858Y-39075500D01*
X92280897Y-39095185D01*
G37*
%TD.AperFunction*%
%TA.AperFunction,NonConductor*%
G36*
X115355292Y-39095185D02*
G01*
X115375934Y-39111819D01*
X122031081Y-45766966D01*
X122196689Y-45887287D01*
X122287885Y-45933753D01*
X122379081Y-45980220D01*
X122476423Y-46011848D01*
X122573765Y-46043477D01*
X122775948Y-46075500D01*
X123449190Y-46075500D01*
X123479158Y-46084299D01*
X123509624Y-46091224D01*
X123513270Y-46094316D01*
X123516229Y-46095185D01*
X123537681Y-46112636D01*
X123546886Y-46122013D01*
X123550184Y-46127262D01*
X123651012Y-46228090D01*
X123651386Y-46228471D01*
X123667611Y-46258851D01*
X123684061Y-46288977D01*
X123684018Y-46289572D01*
X123684301Y-46290102D01*
X123681527Y-46324409D01*
X123679077Y-46358669D01*
X123678700Y-46359370D01*
X123678670Y-46359745D01*
X123678094Y-46360498D01*
X123663214Y-46388219D01*
X123618367Y-46449946D01*
X123500422Y-46681423D01*
X123420139Y-46928506D01*
X123396865Y-47075457D01*
X123366936Y-47138592D01*
X123362073Y-47143740D01*
X115519734Y-54986081D01*
X115458411Y-55019566D01*
X115432053Y-55022400D01*
X99413347Y-55022400D01*
X99346308Y-55002715D01*
X99300553Y-54949911D01*
X99290609Y-54880753D01*
X99319634Y-54817197D01*
X99325666Y-54810719D01*
X99720121Y-54416264D01*
X101695150Y-52441232D01*
X101695157Y-52441227D01*
X101702217Y-52434167D01*
X101702219Y-52434166D01*
X101846966Y-52289419D01*
X101846968Y-52289415D01*
X101846971Y-52289413D01*
X101939021Y-52162715D01*
X101967287Y-52123810D01*
X102005012Y-52049771D01*
X102060221Y-51941418D01*
X102123477Y-51746734D01*
X102131544Y-51695801D01*
X102155500Y-51544552D01*
X102155500Y-42009599D01*
X102175185Y-41942560D01*
X102227989Y-41896805D01*
X102260092Y-41887128D01*
X102329785Y-41876090D01*
X102569379Y-41798241D01*
X102793845Y-41683870D01*
X102997656Y-41535793D01*
X103175793Y-41357656D01*
X103323870Y-41153845D01*
X103438241Y-40929379D01*
X103516090Y-40689785D01*
X103555500Y-40440962D01*
X103555500Y-40189038D01*
X103516090Y-39940215D01*
X103438241Y-39700621D01*
X103438239Y-39700618D01*
X103438239Y-39700616D01*
X103387089Y-39600230D01*
X103323870Y-39476155D01*
X103309200Y-39455963D01*
X103175824Y-39272385D01*
X103152344Y-39206579D01*
X103168170Y-39138525D01*
X103218276Y-39089830D01*
X103276142Y-39075500D01*
X115288253Y-39075500D01*
X115355292Y-39095185D01*
G37*
%TD.AperFunction*%
%TA.AperFunction,NonConductor*%
G36*
X83943292Y-52293485D02*
G01*
X83963934Y-52310119D01*
X86464534Y-54810719D01*
X86498019Y-54872042D01*
X86493035Y-54941734D01*
X86451163Y-54997667D01*
X86385699Y-55022084D01*
X86376853Y-55022400D01*
X78984200Y-55022400D01*
X78917161Y-55002715D01*
X78871406Y-54949911D01*
X78860200Y-54898400D01*
X78860200Y-54483303D01*
X78879885Y-54416264D01*
X78883864Y-54410442D01*
X78971334Y-54290051D01*
X79089279Y-54058572D01*
X79169560Y-53811493D01*
X79199666Y-53621410D01*
X79210200Y-53554902D01*
X79210200Y-52995097D01*
X79188647Y-52859021D01*
X79169560Y-52738507D01*
X79089279Y-52491428D01*
X79070255Y-52454092D01*
X79057360Y-52385426D01*
X79083636Y-52320685D01*
X79140743Y-52280428D01*
X79180741Y-52273800D01*
X83876253Y-52273800D01*
X83943292Y-52293485D01*
G37*
%TD.AperFunction*%
%TA.AperFunction,NonConductor*%
G36*
X70871615Y-54595185D02*
G01*
X70909569Y-54633527D01*
X70999884Y-54777262D01*
X71127438Y-54904816D01*
X71280178Y-55000789D01*
X71333840Y-55019566D01*
X71450445Y-55060368D01*
X71450450Y-55060369D01*
X71540946Y-55070565D01*
X71584740Y-55075499D01*
X71584743Y-55075500D01*
X71584746Y-55075500D01*
X72231554Y-55075500D01*
X72298593Y-55095185D01*
X72344348Y-55147989D01*
X72354292Y-55217147D01*
X72325267Y-55280703D01*
X72319235Y-55287180D01*
X70078295Y-57528120D01*
X67919934Y-59686481D01*
X67858611Y-59719966D01*
X67832253Y-59722800D01*
X60926851Y-59722800D01*
X60722148Y-59722800D01*
X60654753Y-59733474D01*
X60519963Y-59754823D01*
X60422623Y-59786450D01*
X60422623Y-59786451D01*
X60369852Y-59803597D01*
X60325274Y-59818082D01*
X60234084Y-59864545D01*
X60234085Y-59864546D01*
X60142888Y-59911013D01*
X59977278Y-60031336D01*
X56118734Y-63889881D01*
X56057411Y-63923366D01*
X56031053Y-63926200D01*
X55665401Y-63926200D01*
X55598362Y-63906515D01*
X55552607Y-63853711D01*
X55542663Y-63784553D01*
X55554916Y-63745905D01*
X55558239Y-63739383D01*
X55558240Y-63739381D01*
X55558241Y-63739379D01*
X55636090Y-63499785D01*
X55647984Y-63424687D01*
X55677911Y-63361557D01*
X55682757Y-63356426D01*
X64427365Y-54611819D01*
X64488688Y-54578334D01*
X64515046Y-54575500D01*
X70804576Y-54575500D01*
X70871615Y-54595185D01*
G37*
%TD.AperFunction*%
%TA.AperFunction,NonConductor*%
G36*
X83846692Y-48645185D02*
G01*
X83867334Y-48661819D01*
X84667098Y-49461583D01*
X84700583Y-49522906D01*
X84695599Y-49592598D01*
X84653727Y-49648531D01*
X84588263Y-49672948D01*
X84569684Y-49672881D01*
X84568655Y-49672800D01*
X84568652Y-49672800D01*
X72582052Y-49672800D01*
X72377348Y-49672800D01*
X72353029Y-49676651D01*
X72175165Y-49704822D01*
X71980476Y-49768081D01*
X71798086Y-49861015D01*
X71632486Y-49981328D01*
X71487728Y-50126086D01*
X71367415Y-50291686D01*
X71274481Y-50474076D01*
X71211222Y-50668765D01*
X71179200Y-50870948D01*
X71179200Y-51544190D01*
X71159515Y-51611229D01*
X71132515Y-51641135D01*
X71127438Y-51645183D01*
X70999884Y-51772737D01*
X70909570Y-51916472D01*
X70857235Y-51962763D01*
X70804576Y-51974500D01*
X63822648Y-51974500D01*
X63755254Y-51985174D01*
X63620464Y-52006523D01*
X63425781Y-52069778D01*
X63425777Y-52069780D01*
X63327319Y-52119948D01*
X63327319Y-52119949D01*
X63243386Y-52162715D01*
X63077786Y-52283028D01*
X63077782Y-52283032D01*
X62933031Y-52427784D01*
X53843590Y-61517223D01*
X53782267Y-61550708D01*
X53775309Y-61552015D01*
X53700217Y-61563909D01*
X53460618Y-61641760D01*
X53236151Y-61756132D01*
X53032350Y-61904201D01*
X53032345Y-61904205D01*
X52854205Y-62082345D01*
X52854201Y-62082350D01*
X52706132Y-62286151D01*
X52591760Y-62510616D01*
X52513910Y-62750214D01*
X52474500Y-62999038D01*
X52474500Y-63250961D01*
X52513910Y-63499785D01*
X52591760Y-63739383D01*
X52595084Y-63745905D01*
X52607980Y-63814574D01*
X52581704Y-63879315D01*
X52524597Y-63919572D01*
X52484599Y-63926200D01*
X47344847Y-63926200D01*
X47277808Y-63906515D01*
X47257166Y-63889881D01*
X37204466Y-53837181D01*
X37170981Y-53775858D01*
X37175965Y-53706166D01*
X37217837Y-53650233D01*
X37283301Y-53625816D01*
X37292147Y-53625500D01*
X54383906Y-53625500D01*
X54450945Y-53645185D01*
X54462571Y-53653647D01*
X54511583Y-53693870D01*
X54583250Y-53752685D01*
X54765746Y-53850232D01*
X54963766Y-53910300D01*
X54963765Y-53910300D01*
X55002347Y-53914100D01*
X55118092Y-53925500D01*
X55118095Y-53925500D01*
X56321305Y-53925500D01*
X56321308Y-53925500D01*
X56475634Y-53910300D01*
X56673654Y-53850232D01*
X56856150Y-53752685D01*
X57016110Y-53621410D01*
X57147385Y-53461450D01*
X57244932Y-53278954D01*
X57305000Y-53080934D01*
X57320200Y-52926608D01*
X57320200Y-52199038D01*
X57619200Y-52199038D01*
X57619200Y-52450962D01*
X57658610Y-52699785D01*
X57736460Y-52939383D01*
X57850832Y-53163848D01*
X57998901Y-53367649D01*
X57998905Y-53367654D01*
X58177045Y-53545794D01*
X58177050Y-53545798D01*
X58320794Y-53650233D01*
X58380855Y-53693870D01*
X58496286Y-53752685D01*
X58605316Y-53808239D01*
X58605318Y-53808239D01*
X58605321Y-53808241D01*
X58844915Y-53886090D01*
X59093738Y-53925500D01*
X59093739Y-53925500D01*
X59345661Y-53925500D01*
X59345662Y-53925500D01*
X59594485Y-53886090D01*
X59834079Y-53808241D01*
X60058545Y-53693870D01*
X60262356Y-53545793D01*
X60440493Y-53367656D01*
X60588570Y-53163845D01*
X60702941Y-52939379D01*
X60780790Y-52699785D01*
X60820200Y-52450962D01*
X60820200Y-52199038D01*
X60780790Y-51950215D01*
X60702941Y-51710621D01*
X60702939Y-51710618D01*
X60702939Y-51710616D01*
X60652298Y-51611229D01*
X60588570Y-51486155D01*
X60504939Y-51371046D01*
X60440498Y-51282350D01*
X60440494Y-51282345D01*
X60262354Y-51104205D01*
X60262349Y-51104201D01*
X60058548Y-50956132D01*
X60058547Y-50956131D01*
X60058545Y-50956130D01*
X59986050Y-50919192D01*
X59834083Y-50841760D01*
X59594485Y-50763910D01*
X59594479Y-50763909D01*
X59345662Y-50724500D01*
X59093738Y-50724500D01*
X58997776Y-50739699D01*
X58844914Y-50763910D01*
X58605316Y-50841760D01*
X58380851Y-50956132D01*
X58177050Y-51104201D01*
X58177045Y-51104205D01*
X57998905Y-51282345D01*
X57998901Y-51282350D01*
X57850832Y-51486151D01*
X57736460Y-51710616D01*
X57658610Y-51950214D01*
X57642842Y-52049771D01*
X57619200Y-52199038D01*
X57320200Y-52199038D01*
X57320200Y-51723392D01*
X57305000Y-51569066D01*
X57244932Y-51371046D01*
X57147385Y-51188550D01*
X57078162Y-51104201D01*
X57016110Y-51028589D01*
X56882807Y-50919192D01*
X56856150Y-50897315D01*
X56673654Y-50799768D01*
X56475634Y-50739700D01*
X56475632Y-50739699D01*
X56475634Y-50739699D01*
X56356505Y-50727966D01*
X56321308Y-50724500D01*
X55118092Y-50724500D01*
X55079998Y-50728251D01*
X54963767Y-50739699D01*
X54765743Y-50799769D01*
X54583246Y-50897317D01*
X54462571Y-50996353D01*
X54398261Y-51023666D01*
X54383906Y-51024500D01*
X37034447Y-51024500D01*
X36967408Y-51004815D01*
X36946766Y-50988181D01*
X35145766Y-49187181D01*
X35112281Y-49125858D01*
X35117265Y-49056166D01*
X35159137Y-49000233D01*
X35224601Y-48975816D01*
X35233447Y-48975500D01*
X35894957Y-48975500D01*
X35894958Y-48975499D01*
X35962104Y-48967934D01*
X36029249Y-48960369D01*
X36029252Y-48960368D01*
X36029255Y-48960368D01*
X36199522Y-48900789D01*
X36352262Y-48804816D01*
X36479816Y-48677262D01*
X36479818Y-48677257D01*
X36483865Y-48672185D01*
X36541054Y-48632046D01*
X36580810Y-48625500D01*
X83779653Y-48625500D01*
X83846692Y-48645185D01*
G37*
%TD.AperFunction*%
M02*
