%TF.GenerationSoftware,KiCad,Pcbnew,9.0.4*%
%TF.CreationDate,2026-06-10T11:39:31+02:00*%
%TF.ProjectId,buck,6275636b-2e6b-4696-9361-645f70636258,rev?*%
%TF.SameCoordinates,Original*%
%TF.FileFunction,Copper,L2,Bot*%
%TF.FilePolarity,Positive*%
%FSLAX46Y46*%
G04 Gerber Fmt 4.6, Leading zero omitted, Abs format (unit mm)*
G04 Created by KiCad (PCBNEW 9.0.4) date 2026-06-10 11:39:31*
%MOMM*%
%LPD*%
G01*
G04 APERTURE LIST*
G04 Aperture macros list*
%AMRoundRect*
0 Rectangle with rounded corners*
0 $1 Rounding radius*
0 $2 $3 $4 $5 $6 $7 $8 $9 X,Y pos of 4 corners*
0 Add a 4 corners polygon primitive as box body*
4,1,4,$2,$3,$4,$5,$6,$7,$8,$9,$2,$3,0*
0 Add four circle primitives for the rounded corners*
1,1,$1+$1,$2,$3*
1,1,$1+$1,$4,$5*
1,1,$1+$1,$6,$7*
1,1,$1+$1,$8,$9*
0 Add four rect primitives between the rounded corners*
20,1,$1+$1,$2,$3,$4,$5,0*
20,1,$1+$1,$4,$5,$6,$7,0*
20,1,$1+$1,$6,$7,$8,$9,0*
20,1,$1+$1,$8,$9,$2,$3,0*%
G04 Aperture macros list end*
%TA.AperFunction,ComponentPad*%
%ADD10R,1.700000X1.700000*%
%TD*%
%TA.AperFunction,ComponentPad*%
%ADD11C,1.700000*%
%TD*%
%TA.AperFunction,ComponentPad*%
%ADD12RoundRect,0.250000X-0.950000X-0.550000X0.950000X-0.550000X0.950000X0.550000X-0.950000X0.550000X0*%
%TD*%
%TA.AperFunction,ComponentPad*%
%ADD13O,2.400000X1.600000*%
%TD*%
%TA.AperFunction,ComponentPad*%
%ADD14C,1.600000*%
%TD*%
%TA.AperFunction,ComponentPad*%
%ADD15C,4.000000*%
%TD*%
%TA.AperFunction,ComponentPad*%
%ADD16R,1.700000X2.000000*%
%TD*%
%TA.AperFunction,ComponentPad*%
%ADD17O,1.700000X2.000000*%
%TD*%
%TA.AperFunction,ComponentPad*%
%ADD18RoundRect,0.249999X-0.850001X-0.850001X0.850001X-0.850001X0.850001X0.850001X-0.850001X0.850001X0*%
%TD*%
%TA.AperFunction,ComponentPad*%
%ADD19C,2.200000*%
%TD*%
%TA.AperFunction,ComponentPad*%
%ADD20R,3.000000X3.000000*%
%TD*%
%TA.AperFunction,ComponentPad*%
%ADD21C,3.000000*%
%TD*%
%TA.AperFunction,ComponentPad*%
%ADD22RoundRect,0.250000X-0.550000X-0.550000X0.550000X-0.550000X0.550000X0.550000X-0.550000X0.550000X0*%
%TD*%
%TA.AperFunction,Conductor*%
%ADD23C,1.000000*%
%TD*%
G04 APERTURE END LIST*
D10*
%TO.P,J3,1*%
%TO.N,PWM*%
X35000000Y-47325000D03*
D11*
%TO.P,J3,2*%
%TO.N,GND_MCU*%
X35000000Y-44785000D03*
%TD*%
D12*
%TO.P,U1,1*%
%TO.N,Net-(R1-Pad2)*%
X118435000Y-47260000D03*
D13*
%TO.P,U1,2*%
%TO.N,GND_MCU*%
X118435000Y-49800000D03*
%TO.P,U1,3*%
%TO.N,N/C*%
X118435000Y-52340000D03*
%TO.P,U1,4*%
%TO.N,GATE*%
X126055000Y-52340000D03*
%TO.P,U1,5*%
%TO.N,+12V_SW*%
X126055000Y-49800000D03*
%TO.P,U1,6*%
%TO.N,N/C*%
X126055000Y-47260000D03*
%TD*%
D14*
%TO.P,R2,1*%
%TO.N,GATE*%
X107139700Y-76375000D03*
%TO.P,R2,2*%
%TO.N,/SW*%
X114759700Y-76375000D03*
%TD*%
D15*
%TO.P,L1,1*%
%TO.N,/SW*%
X77335000Y-49800000D03*
%TO.P,L1,2*%
%TO.N,/VOUT_5V*%
X105535000Y-49800000D03*
%TD*%
D16*
%TO.P,M1,1*%
%TO.N,GATE*%
X72479700Y-77325000D03*
D17*
%TO.P,M1,2*%
%TO.N,/VIN_15V*%
X75019700Y-77325000D03*
%TO.P,M1,3*%
%TO.N,/SW*%
X77559700Y-77325000D03*
%TD*%
D18*
%TO.P,D1,1*%
%TO.N,/SW*%
X54375000Y-49800000D03*
D19*
%TO.P,D1,2*%
%TO.N,/GND*%
X64535000Y-49800000D03*
%TD*%
D20*
%TO.P,J1,1*%
%TO.N,/VIN_15V*%
X37540000Y-32000000D03*
D21*
%TO.P,J1,2*%
%TO.N,/GND*%
X32460000Y-32000000D03*
%TD*%
D10*
%TO.P,J4,1*%
%TO.N,+12V_SW*%
X149530000Y-44775000D03*
D11*
%TO.P,J4,2*%
%TO.N,/SW*%
X149530000Y-47315000D03*
%TD*%
D14*
%TO.P,R1,1*%
%TO.N,PWM*%
X89369700Y-76375000D03*
%TO.P,R1,2*%
%TO.N,Net-(R1-Pad2)*%
X96989700Y-76375000D03*
%TD*%
D20*
%TO.P,J2,1*%
%TO.N,/VOUT_5V*%
X146990000Y-32000000D03*
D21*
%TO.P,J2,2*%
%TO.N,/GND*%
X152070000Y-32000000D03*
%TD*%
D22*
%TO.P,C1,1*%
%TO.N,/VOUT_5V*%
X55719700Y-76375000D03*
D14*
%TO.P,C1,2*%
%TO.N,/GND*%
X59219700Y-76375000D03*
%TD*%
D23*
%TO.N,+12V_SW*%
X151681700Y-48219600D02*
X150101300Y-49800000D01*
X149530000Y-44775000D02*
X151681700Y-44775000D01*
X150101300Y-49800000D02*
X126055000Y-49800000D01*
X151681700Y-44775000D02*
X151681700Y-48219600D01*
%TO.N,/GND*%
X59219700Y-76375000D02*
X32848100Y-50003400D01*
X38577400Y-38117400D02*
X32460000Y-32000000D01*
X67497200Y-41256800D02*
X142813200Y-41256800D01*
X32848100Y-43846700D02*
X38577400Y-38117400D01*
X64535000Y-44219000D02*
X67497200Y-41256800D01*
X58433400Y-38117400D02*
X38577400Y-38117400D01*
X64535000Y-44219000D02*
X64535000Y-49800000D01*
X64535000Y-44219000D02*
X58433400Y-38117400D01*
X142813200Y-41256800D02*
X152070000Y-32000000D01*
X32848100Y-50003400D02*
X32848100Y-43846700D01*
%TO.N,/SW*%
X125484600Y-43317300D02*
X83817700Y-43317300D01*
X129482300Y-47315000D02*
X125484600Y-43317300D01*
X109008600Y-82126100D02*
X84512500Y-82126100D01*
X114759800Y-76375000D02*
X114759900Y-76375100D01*
X114759700Y-76375000D02*
X114759800Y-76375000D01*
X77335000Y-49800000D02*
X74886500Y-52248500D01*
X84512500Y-82126100D02*
X79711400Y-77325000D01*
X149530000Y-47315000D02*
X129482300Y-47315000D01*
X77559700Y-77325000D02*
X79711400Y-77325000D01*
X114759700Y-76375000D02*
X109008600Y-82126100D01*
X83817700Y-43317300D02*
X77335000Y-49800000D01*
X74886500Y-52248500D02*
X56823500Y-52248500D01*
X56823500Y-52248500D02*
X54375000Y-49800000D01*
%TO.N,/VIN_15V*%
X75019700Y-77325000D02*
X75019700Y-79626700D01*
X29642100Y-53611600D02*
X29642100Y-30837100D01*
X34717000Y-29177000D02*
X37540000Y-32000000D01*
X74349100Y-80297300D02*
X56327800Y-80297300D01*
X29642100Y-30837100D02*
X31302200Y-29177000D01*
X75019700Y-79626700D02*
X74349100Y-80297300D01*
X31302200Y-29177000D02*
X34717000Y-29177000D01*
X56327800Y-80297300D02*
X29642100Y-53611600D01*
%TO.N,/VOUT_5V*%
X83122700Y-73216700D02*
X88428700Y-78522700D01*
X71698100Y-73216700D02*
X83122700Y-73216700D01*
X57828700Y-78484000D02*
X66430800Y-78484000D01*
X94855800Y-60479200D02*
X94855800Y-78522700D01*
X88428700Y-78522700D02*
X94855800Y-78522700D01*
X66430800Y-78484000D02*
X71698100Y-73216700D01*
X55719700Y-76375000D02*
X57828700Y-78484000D01*
X105535000Y-49800000D02*
X94855800Y-60479200D01*
%TO.N,GATE*%
X123553300Y-59961400D02*
X123553300Y-52340000D01*
X87641000Y-80324400D02*
X103190300Y-80324400D01*
X72479700Y-75023300D02*
X82339900Y-75023300D01*
X82339900Y-75023300D02*
X87641000Y-80324400D01*
X103190300Y-80324400D02*
X107139700Y-76375000D01*
X107139700Y-76375000D02*
X123553300Y-59961400D01*
X105165000Y-78349700D02*
X107139700Y-76375000D01*
X72479700Y-77325000D02*
X72479700Y-75023300D01*
X126055000Y-52340000D02*
X123553300Y-52340000D01*
%TO.N,GND_MCU*%
X95056300Y-54097700D02*
X52011900Y-54097700D01*
X104035000Y-45119000D02*
X95056300Y-54097700D01*
X120936700Y-49800000D02*
X120977200Y-49759500D01*
X120977200Y-46068200D02*
X120028000Y-45119000D01*
X120977200Y-49759500D02*
X120977200Y-46068200D01*
X118435000Y-49800000D02*
X120936700Y-49800000D01*
X120028000Y-45119000D02*
X104035000Y-45119000D01*
X52011900Y-54097700D02*
X42699200Y-44785000D01*
X42699200Y-44785000D02*
X35000000Y-44785000D01*
%TO.N,Net-(R1-Pad2)*%
X96989700Y-76375000D02*
X96989700Y-67869100D01*
X96989700Y-67869100D02*
X117598800Y-47260000D01*
X117598800Y-47260000D02*
X118435000Y-47260000D01*
%TO.N,PWM*%
X35000000Y-47325000D02*
X37151700Y-47325000D01*
X89369700Y-76375000D02*
X72588500Y-59593800D01*
X49420500Y-59593800D02*
X37151700Y-47325000D01*
X72588500Y-59593800D02*
X49420500Y-59593800D01*
%TD*%
%TA.AperFunction,NonConductor*%
G36*
X164442539Y-20520185D02*
G01*
X164488294Y-20572989D01*
X164499500Y-20624500D01*
X164499500Y-91375500D01*
X164479815Y-91442539D01*
X164427011Y-91488294D01*
X164375500Y-91499500D01*
X20624500Y-91499500D01*
X20557461Y-91479815D01*
X20511706Y-91427011D01*
X20500500Y-91375500D01*
X20500500Y-30734748D01*
X28341600Y-30734748D01*
X28341600Y-53713951D01*
X28373622Y-53916135D01*
X28397494Y-53989603D01*
X28405251Y-54013476D01*
X28436880Y-54110819D01*
X28482347Y-54200052D01*
X28529813Y-54293211D01*
X28650134Y-54458819D01*
X28650135Y-54458820D01*
X28650136Y-54458821D01*
X55332708Y-81141392D01*
X55332722Y-81141407D01*
X55335833Y-81144518D01*
X55335834Y-81144519D01*
X55480581Y-81289266D01*
X55517883Y-81316367D01*
X55586461Y-81366192D01*
X55646184Y-81409584D01*
X55646186Y-81409585D01*
X55646189Y-81409587D01*
X55714689Y-81444489D01*
X55828581Y-81502520D01*
X55911986Y-81529620D01*
X56023265Y-81565777D01*
X56124357Y-81581788D01*
X56225448Y-81597800D01*
X56225449Y-81597800D01*
X74451451Y-81597800D01*
X74451452Y-81597800D01*
X74653635Y-81565777D01*
X74764914Y-81529620D01*
X74848319Y-81502520D01*
X74962211Y-81444489D01*
X75030711Y-81409587D01*
X75196319Y-81289266D01*
X75859850Y-80625732D01*
X75859857Y-80625727D01*
X75866917Y-80618667D01*
X75866919Y-80618666D01*
X76011666Y-80473919D01*
X76011668Y-80473915D01*
X76011671Y-80473913D01*
X76064432Y-80401290D01*
X76131987Y-80308310D01*
X76175940Y-80222048D01*
X76224921Y-80125918D01*
X76288177Y-79931234D01*
X76305288Y-79823200D01*
X76320200Y-79729052D01*
X76320200Y-78857944D01*
X76339885Y-78790905D01*
X76392689Y-78745150D01*
X76461847Y-78735206D01*
X76517082Y-78757624D01*
X76694649Y-78886634D01*
X76768594Y-78924311D01*
X76926123Y-79004577D01*
X76926125Y-79004577D01*
X76926128Y-79004579D01*
X77173207Y-79084860D01*
X77305406Y-79105797D01*
X77429798Y-79125500D01*
X77429803Y-79125500D01*
X77689602Y-79125500D01*
X77802998Y-79107539D01*
X77946193Y-79084860D01*
X78193272Y-79004579D01*
X78424751Y-78886634D01*
X78634929Y-78733931D01*
X78707041Y-78661819D01*
X78768364Y-78628334D01*
X78794722Y-78625500D01*
X79121353Y-78625500D01*
X79188392Y-78645185D01*
X79209034Y-78661819D01*
X83517408Y-82970192D01*
X83517422Y-82970207D01*
X83520533Y-82973318D01*
X83520534Y-82973319D01*
X83665281Y-83118066D01*
X83665284Y-83118068D01*
X83665288Y-83118072D01*
X83815468Y-83227182D01*
X83830890Y-83238387D01*
X83917735Y-83282637D01*
X84013281Y-83331321D01*
X84013284Y-83331322D01*
X84110621Y-83362948D01*
X84207966Y-83394577D01*
X84410148Y-83426600D01*
X84410149Y-83426600D01*
X109110951Y-83426600D01*
X109110952Y-83426600D01*
X109313135Y-83394577D01*
X109410476Y-83362948D01*
X109507819Y-83331320D01*
X109599014Y-83284853D01*
X109690211Y-83238387D01*
X109855819Y-83118066D01*
X114991109Y-77982773D01*
X115052430Y-77949290D01*
X115059349Y-77947989D01*
X115134485Y-77936090D01*
X115374079Y-77858241D01*
X115598545Y-77743870D01*
X115802356Y-77595793D01*
X115980493Y-77417656D01*
X116128570Y-77213845D01*
X116242941Y-76989379D01*
X116320790Y-76749785D01*
X116360200Y-76500962D01*
X116360200Y-76249038D01*
X116320790Y-76000215D01*
X116242941Y-75760621D01*
X116242939Y-75760618D01*
X116242939Y-75760616D01*
X116193027Y-75662659D01*
X116128570Y-75536155D01*
X116044939Y-75421046D01*
X115980498Y-75332350D01*
X115980494Y-75332345D01*
X115802354Y-75154205D01*
X115802349Y-75154201D01*
X115598548Y-75006132D01*
X115598547Y-75006131D01*
X115598545Y-75006130D01*
X115483118Y-74947317D01*
X115374083Y-74891760D01*
X115134485Y-74813910D01*
X115134479Y-74813909D01*
X114885662Y-74774500D01*
X114633738Y-74774500D01*
X114537776Y-74789699D01*
X114384914Y-74813910D01*
X114145316Y-74891760D01*
X113920851Y-75006132D01*
X113717050Y-75154201D01*
X113717045Y-75154205D01*
X113538905Y-75332345D01*
X113538901Y-75332350D01*
X113390832Y-75536151D01*
X113276460Y-75760618D01*
X113198609Y-76000216D01*
X113186715Y-76075310D01*
X113156785Y-76138444D01*
X113151923Y-76143591D01*
X108506234Y-80789281D01*
X108444911Y-80822766D01*
X108418553Y-80825600D01*
X104827647Y-80825600D01*
X104760608Y-80805915D01*
X104714853Y-80753111D01*
X104704909Y-80683953D01*
X104733934Y-80620397D01*
X104739966Y-80613919D01*
X105227970Y-80125915D01*
X107371110Y-77982773D01*
X107432431Y-77949290D01*
X107439345Y-77947990D01*
X107514485Y-77936090D01*
X107754079Y-77858241D01*
X107978545Y-77743870D01*
X108182356Y-77595793D01*
X108360493Y-77417656D01*
X108508570Y-77213845D01*
X108622941Y-76989379D01*
X108700790Y-76749785D01*
X108712684Y-76674687D01*
X108742611Y-76611557D01*
X108747457Y-76606426D01*
X124393450Y-60960432D01*
X124393457Y-60960427D01*
X124400517Y-60953367D01*
X124400519Y-60953366D01*
X124545266Y-60808619D01*
X124665587Y-60643010D01*
X124694754Y-60585766D01*
X124758521Y-60460618D01*
X124821777Y-60265934D01*
X124853800Y-60063751D01*
X124853800Y-59859048D01*
X124853800Y-53930400D01*
X124873485Y-53863361D01*
X124926289Y-53817606D01*
X124995447Y-53807662D01*
X125034098Y-53819917D01*
X125040621Y-53823241D01*
X125280215Y-53901090D01*
X125529038Y-53940500D01*
X125529039Y-53940500D01*
X126580961Y-53940500D01*
X126580962Y-53940500D01*
X126829785Y-53901090D01*
X127069379Y-53823241D01*
X127293845Y-53708870D01*
X127497656Y-53560793D01*
X127675793Y-53382656D01*
X127823870Y-53178845D01*
X127938241Y-52954379D01*
X128016090Y-52714785D01*
X128055500Y-52465962D01*
X128055500Y-52214038D01*
X128016090Y-51965215D01*
X127938241Y-51725621D01*
X127938239Y-51725618D01*
X127938239Y-51725616D01*
X127887089Y-51625230D01*
X127823870Y-51501155D01*
X127767177Y-51423123D01*
X127675824Y-51297385D01*
X127652344Y-51231579D01*
X127668170Y-51163525D01*
X127718276Y-51114830D01*
X127776142Y-51100500D01*
X150203651Y-51100500D01*
X150203652Y-51100500D01*
X150405835Y-51068477D01*
X150552590Y-51020793D01*
X150600519Y-51005220D01*
X150698981Y-50955051D01*
X150782911Y-50912287D01*
X150948519Y-50791966D01*
X152673666Y-49066819D01*
X152793987Y-48901211D01*
X152862098Y-48767534D01*
X152886920Y-48718819D01*
X152939690Y-48556410D01*
X152950177Y-48524135D01*
X152982200Y-48321952D01*
X152982200Y-48117248D01*
X152982200Y-44672648D01*
X152950177Y-44470466D01*
X152886920Y-44275781D01*
X152886918Y-44275778D01*
X152886918Y-44275776D01*
X152853203Y-44209607D01*
X152793987Y-44093390D01*
X152786256Y-44082749D01*
X152673671Y-43927786D01*
X152528913Y-43783028D01*
X152363313Y-43662715D01*
X152363312Y-43662714D01*
X152363310Y-43662713D01*
X152283081Y-43621834D01*
X152180923Y-43569781D01*
X151986234Y-43506522D01*
X151811695Y-43478878D01*
X151784052Y-43474500D01*
X151784051Y-43474500D01*
X151110810Y-43474500D01*
X151043771Y-43454815D01*
X151013865Y-43427815D01*
X151009816Y-43422738D01*
X150882262Y-43295184D01*
X150729523Y-43199211D01*
X150559254Y-43139631D01*
X150559249Y-43139630D01*
X150424960Y-43124500D01*
X150424954Y-43124500D01*
X148635046Y-43124500D01*
X148635039Y-43124500D01*
X148500750Y-43139630D01*
X148500745Y-43139631D01*
X148330476Y-43199211D01*
X148177737Y-43295184D01*
X148050184Y-43422737D01*
X147954211Y-43575476D01*
X147894631Y-43745745D01*
X147894630Y-43745750D01*
X147879500Y-43880039D01*
X147879500Y-45669960D01*
X147894630Y-45804249D01*
X147894633Y-45804262D01*
X147910479Y-45849545D01*
X147914042Y-45919323D01*
X147879313Y-45979951D01*
X147817320Y-46012179D01*
X147793438Y-46014500D01*
X130072346Y-46014500D01*
X130005307Y-45994815D01*
X129984665Y-45978181D01*
X126775466Y-42768981D01*
X126741981Y-42707658D01*
X126746965Y-42637966D01*
X126788837Y-42582033D01*
X126854301Y-42557616D01*
X126863147Y-42557300D01*
X142915551Y-42557300D01*
X142915552Y-42557300D01*
X143117735Y-42525277D01*
X143215076Y-42493648D01*
X143312419Y-42462020D01*
X143403614Y-42415553D01*
X143494811Y-42369087D01*
X143660419Y-42248766D01*
X151601573Y-34307610D01*
X151662894Y-34274127D01*
X151705433Y-34272354D01*
X151906813Y-34298866D01*
X151919201Y-34300498D01*
X151919217Y-34300500D01*
X151919224Y-34300500D01*
X152220776Y-34300500D01*
X152220783Y-34300500D01*
X152519768Y-34261138D01*
X152811058Y-34183087D01*
X153089668Y-34067683D01*
X153350832Y-33916900D01*
X153590080Y-33733319D01*
X153803319Y-33520080D01*
X153986900Y-33280832D01*
X154137683Y-33019668D01*
X154253087Y-32741058D01*
X154331138Y-32449768D01*
X154370500Y-32150783D01*
X154370500Y-31849217D01*
X154331138Y-31550232D01*
X154253087Y-31258942D01*
X154137683Y-30980332D01*
X153986900Y-30719168D01*
X153803319Y-30479920D01*
X153803314Y-30479914D01*
X153590085Y-30266685D01*
X153590078Y-30266679D01*
X153350831Y-30083099D01*
X153089671Y-29932318D01*
X153089661Y-29932314D01*
X152811060Y-29816913D01*
X152519766Y-29738861D01*
X152220793Y-29699501D01*
X152220788Y-29699500D01*
X152220783Y-29699500D01*
X151919217Y-29699500D01*
X151919211Y-29699500D01*
X151919206Y-29699501D01*
X151620233Y-29738861D01*
X151328939Y-29816913D01*
X151050338Y-29932314D01*
X151050328Y-29932318D01*
X150789168Y-30083099D01*
X150549921Y-30266679D01*
X150549914Y-30266685D01*
X150336685Y-30479914D01*
X150336679Y-30479921D01*
X150153099Y-30719168D01*
X150002318Y-30980328D01*
X150002314Y-30980338D01*
X149886913Y-31258939D01*
X149808861Y-31550233D01*
X149769501Y-31849206D01*
X149769500Y-31849223D01*
X149769500Y-32150776D01*
X149769501Y-32150793D01*
X149797644Y-32364561D01*
X149786878Y-32433596D01*
X149762386Y-32468427D01*
X149502181Y-32728633D01*
X149440858Y-32762118D01*
X149371167Y-32757134D01*
X149315233Y-32715263D01*
X149290816Y-32649798D01*
X149290500Y-32640952D01*
X149290500Y-30455043D01*
X149290499Y-30455039D01*
X149275369Y-30320750D01*
X149275368Y-30320745D01*
X149215789Y-30150478D01*
X149119816Y-29997738D01*
X148992262Y-29870184D01*
X148907482Y-29816913D01*
X148839523Y-29774211D01*
X148669254Y-29714631D01*
X148669249Y-29714630D01*
X148534960Y-29699500D01*
X148534954Y-29699500D01*
X145445046Y-29699500D01*
X145445039Y-29699500D01*
X145310750Y-29714630D01*
X145310745Y-29714631D01*
X145140476Y-29774211D01*
X144987737Y-29870184D01*
X144860184Y-29997737D01*
X144764211Y-30150476D01*
X144704631Y-30320745D01*
X144704630Y-30320750D01*
X144689500Y-30455039D01*
X144689500Y-33544960D01*
X144704630Y-33679249D01*
X144704631Y-33679254D01*
X144764211Y-33849523D01*
X144806547Y-33916900D01*
X144860184Y-34002262D01*
X144987738Y-34129816D01*
X145140478Y-34225789D01*
X145241500Y-34261138D01*
X145310745Y-34285368D01*
X145310750Y-34285369D01*
X145401246Y-34295565D01*
X145445040Y-34300499D01*
X145445043Y-34300500D01*
X145445046Y-34300500D01*
X147630953Y-34300500D01*
X147697992Y-34320185D01*
X147743747Y-34372989D01*
X147753691Y-34442147D01*
X147724666Y-34505703D01*
X147718634Y-34512181D01*
X142310834Y-39919981D01*
X142249511Y-39953466D01*
X142223153Y-39956300D01*
X67394848Y-39956300D01*
X67370529Y-39960151D01*
X67192665Y-39988322D01*
X66997976Y-40051581D01*
X66859480Y-40122149D01*
X66815590Y-40144513D01*
X66815589Y-40144514D01*
X66807691Y-40150252D01*
X66807690Y-40150251D01*
X66807690Y-40150252D01*
X66649986Y-40264828D01*
X66649982Y-40264832D01*
X64622681Y-42292134D01*
X64561358Y-42325619D01*
X64491666Y-42320635D01*
X64447319Y-42292134D01*
X59280621Y-37125436D01*
X59280619Y-37125434D01*
X59115011Y-37005113D01*
X59023814Y-36958646D01*
X58932623Y-36912181D01*
X58885915Y-36897004D01*
X58835276Y-36880551D01*
X58811403Y-36872794D01*
X58737935Y-36848922D01*
X58563395Y-36821278D01*
X58535752Y-36816900D01*
X58535751Y-36816900D01*
X39167447Y-36816900D01*
X39100408Y-36797215D01*
X39079766Y-36780581D01*
X36811366Y-34512181D01*
X36777881Y-34450858D01*
X36782865Y-34381166D01*
X36824737Y-34325233D01*
X36890201Y-34300816D01*
X36899047Y-34300500D01*
X39084957Y-34300500D01*
X39084958Y-34300499D01*
X39152104Y-34292934D01*
X39219249Y-34285369D01*
X39219252Y-34285368D01*
X39219255Y-34285368D01*
X39389522Y-34225789D01*
X39542262Y-34129816D01*
X39669816Y-34002262D01*
X39765789Y-33849522D01*
X39825368Y-33679255D01*
X39840500Y-33544954D01*
X39840500Y-30455046D01*
X39825368Y-30320745D01*
X39765789Y-30150478D01*
X39669816Y-29997738D01*
X39542262Y-29870184D01*
X39457482Y-29816913D01*
X39389523Y-29774211D01*
X39219254Y-29714631D01*
X39219249Y-29714630D01*
X39084960Y-29699500D01*
X39084954Y-29699500D01*
X37130046Y-29699500D01*
X37063007Y-29679815D01*
X37042365Y-29663181D01*
X35564221Y-28185036D01*
X35564220Y-28185035D01*
X35564219Y-28185034D01*
X35398611Y-28064713D01*
X35307414Y-28018246D01*
X35307412Y-28018245D01*
X35216223Y-27971781D01*
X35169515Y-27956604D01*
X35118876Y-27940151D01*
X35095003Y-27932394D01*
X35021535Y-27908522D01*
X34846995Y-27880878D01*
X34819352Y-27876500D01*
X31404552Y-27876500D01*
X31199848Y-27876500D01*
X31132453Y-27887174D01*
X30997663Y-27908523D01*
X30900323Y-27940150D01*
X30900323Y-27940151D01*
X30847552Y-27957297D01*
X30802974Y-27971782D01*
X30711784Y-28018245D01*
X30711785Y-28018246D01*
X30620588Y-28064713D01*
X30454978Y-28185036D01*
X28650136Y-29989878D01*
X28529813Y-30155488D01*
X28483346Y-30246685D01*
X28483345Y-30246684D01*
X28436879Y-30337881D01*
X28436879Y-30337882D01*
X28373623Y-30532561D01*
X28373623Y-30532564D01*
X28341600Y-30734748D01*
X20500500Y-30734748D01*
X20500500Y-20624500D01*
X20520185Y-20557461D01*
X20572989Y-20511706D01*
X20624500Y-20500500D01*
X164375500Y-20500500D01*
X164442539Y-20520185D01*
G37*
%TD.AperFunction*%
%TA.AperFunction,NonConductor*%
G36*
X34820907Y-31129736D02*
G01*
X34854407Y-31153592D01*
X35203181Y-31502365D01*
X35236666Y-31563688D01*
X35239500Y-31590046D01*
X35239500Y-32640953D01*
X35219815Y-32707992D01*
X35167011Y-32753747D01*
X35097853Y-32763691D01*
X35034297Y-32734666D01*
X35027819Y-32728634D01*
X34767612Y-32468427D01*
X34734127Y-32407104D01*
X34732354Y-32364565D01*
X34760500Y-32150783D01*
X34760500Y-31849217D01*
X34721138Y-31550232D01*
X34646951Y-31273362D01*
X34648614Y-31203517D01*
X34687776Y-31145654D01*
X34752005Y-31118150D01*
X34820907Y-31129736D01*
G37*
%TD.AperFunction*%
%TA.AperFunction,NonConductor*%
G36*
X128113155Y-47794414D02*
G01*
X128146128Y-47818012D01*
X128490331Y-48162215D01*
X128490334Y-48162219D01*
X128615936Y-48287821D01*
X128626189Y-48306598D01*
X128649419Y-48349141D01*
X128649418Y-48349141D01*
X128649419Y-48349142D01*
X128644435Y-48418834D01*
X128637227Y-48428462D01*
X128602564Y-48474767D01*
X128537100Y-48499184D01*
X128528253Y-48499500D01*
X127776142Y-48499500D01*
X127709103Y-48479815D01*
X127663348Y-48427011D01*
X127653404Y-48357853D01*
X127675824Y-48302615D01*
X127810499Y-48117248D01*
X127823870Y-48098845D01*
X127938241Y-47874379D01*
X127940515Y-47867377D01*
X127979950Y-47809702D01*
X128044308Y-47782502D01*
X128113155Y-47794414D01*
G37*
%TD.AperFunction*%
%TA.AperFunction,NonConductor*%
G36*
X82506192Y-42576985D02*
G01*
X82551947Y-42629789D01*
X82561891Y-42698947D01*
X82532866Y-42762503D01*
X82526834Y-42768981D01*
X78224770Y-47071043D01*
X78163447Y-47104528D01*
X78109497Y-47104253D01*
X77804843Y-47034718D01*
X77804827Y-47034716D01*
X77492277Y-46999500D01*
X77492273Y-46999500D01*
X77177727Y-46999500D01*
X77177722Y-46999500D01*
X76865172Y-47034716D01*
X76865156Y-47034718D01*
X76558500Y-47104710D01*
X76558498Y-47104711D01*
X76261604Y-47208598D01*
X75978213Y-47345072D01*
X75711878Y-47512422D01*
X75465956Y-47708538D01*
X75243538Y-47930956D01*
X75047422Y-48176878D01*
X74880072Y-48443213D01*
X74743598Y-48726604D01*
X74639711Y-49023498D01*
X74639710Y-49023500D01*
X74569718Y-49330156D01*
X74569716Y-49330172D01*
X74534500Y-49642722D01*
X74534500Y-49957277D01*
X74569716Y-50269827D01*
X74569718Y-50269843D01*
X74639253Y-50574497D01*
X74634980Y-50644236D01*
X74606043Y-50689770D01*
X74384132Y-50911682D01*
X74322812Y-50945166D01*
X74296453Y-50948000D01*
X66281485Y-50948000D01*
X66214446Y-50928315D01*
X66168691Y-50875511D01*
X66158747Y-50806353D01*
X66174098Y-50762000D01*
X66243162Y-50642376D01*
X66243164Y-50642373D01*
X66338502Y-50412207D01*
X66402982Y-50171565D01*
X66435500Y-49924565D01*
X66435500Y-49675435D01*
X66402982Y-49428435D01*
X66338502Y-49187793D01*
X66255209Y-48986706D01*
X66243169Y-48957638D01*
X66243162Y-48957623D01*
X66118599Y-48741873D01*
X65966939Y-48544225D01*
X65966933Y-48544218D01*
X65871819Y-48449104D01*
X65838334Y-48387781D01*
X65835500Y-48361423D01*
X65835500Y-44809047D01*
X65855185Y-44742008D01*
X65871819Y-44721366D01*
X67999566Y-42593619D01*
X68060889Y-42560134D01*
X68087247Y-42557300D01*
X82439153Y-42557300D01*
X82506192Y-42576985D01*
G37*
%TD.AperFunction*%
%TA.AperFunction,NonConductor*%
G36*
X102464692Y-44637485D02*
G01*
X102510447Y-44690289D01*
X102520391Y-44759447D01*
X102491366Y-44823003D01*
X102485334Y-44829481D01*
X94553934Y-52760881D01*
X94492611Y-52794366D01*
X94466253Y-52797200D01*
X77889271Y-52797200D01*
X77822232Y-52777515D01*
X77776477Y-52724711D01*
X77766533Y-52655553D01*
X77795558Y-52591997D01*
X77854336Y-52554223D01*
X77861679Y-52552309D01*
X77963995Y-52528956D01*
X78111500Y-52495289D01*
X78408394Y-52391402D01*
X78691789Y-52254926D01*
X78958123Y-52087577D01*
X79204044Y-51891461D01*
X79426461Y-51669044D01*
X79622577Y-51423123D01*
X79789926Y-51156789D01*
X79926402Y-50873394D01*
X80030289Y-50576500D01*
X80100282Y-50269840D01*
X80135500Y-49957273D01*
X80135500Y-49642727D01*
X80100282Y-49330160D01*
X80067788Y-49187793D01*
X80030746Y-49025500D01*
X80035019Y-48955761D01*
X80063954Y-48910229D01*
X84320066Y-44654119D01*
X84381389Y-44620634D01*
X84407747Y-44617800D01*
X102397653Y-44617800D01*
X102464692Y-44637485D01*
G37*
%TD.AperFunction*%
%TA.AperFunction,NonConductor*%
G36*
X76560501Y-52495746D02*
G01*
X76808321Y-52552309D01*
X76869300Y-52586418D01*
X76902158Y-52648079D01*
X76896463Y-52717716D01*
X76854023Y-52773220D01*
X76788313Y-52796968D01*
X76780729Y-52797200D01*
X76476346Y-52797200D01*
X76455100Y-52790961D01*
X76433012Y-52789382D01*
X76422228Y-52781309D01*
X76409307Y-52777515D01*
X76394807Y-52760781D01*
X76377079Y-52747510D01*
X76372371Y-52734889D01*
X76363552Y-52724711D01*
X76360400Y-52702793D01*
X76352662Y-52682046D01*
X76355524Y-52668885D01*
X76353608Y-52655553D01*
X76362807Y-52635409D01*
X76367514Y-52613773D01*
X76380782Y-52596047D01*
X76382633Y-52591997D01*
X76388665Y-52585519D01*
X76445228Y-52528956D01*
X76506551Y-52495471D01*
X76560501Y-52495746D01*
G37*
%TD.AperFunction*%
%TA.AperFunction,NonConductor*%
G36*
X57910392Y-39437585D02*
G01*
X57931034Y-39454219D01*
X63198181Y-44721366D01*
X63231666Y-44782689D01*
X63234500Y-44809047D01*
X63234500Y-48361423D01*
X63214815Y-48428462D01*
X63198181Y-48449104D01*
X63103066Y-48544218D01*
X63103060Y-48544225D01*
X62951400Y-48741873D01*
X62826837Y-48957623D01*
X62826830Y-48957638D01*
X62731498Y-49187792D01*
X62667017Y-49428438D01*
X62634501Y-49675424D01*
X62634500Y-49675441D01*
X62634500Y-49924558D01*
X62634501Y-49924575D01*
X62667017Y-50171561D01*
X62731498Y-50412207D01*
X62826830Y-50642361D01*
X62826837Y-50642376D01*
X62895902Y-50762000D01*
X62912375Y-50829901D01*
X62889522Y-50895927D01*
X62834601Y-50939118D01*
X62788515Y-50948000D01*
X57413547Y-50948000D01*
X57346508Y-50928315D01*
X57325866Y-50911681D01*
X56311818Y-49897633D01*
X56278333Y-49836310D01*
X56275499Y-49809952D01*
X56275499Y-48898395D01*
X56262611Y-48767536D01*
X56260300Y-48744065D01*
X56200232Y-48546045D01*
X56102685Y-48363549D01*
X56102682Y-48363545D01*
X55971410Y-48203589D01*
X55811454Y-48072317D01*
X55811452Y-48072316D01*
X55811451Y-48072315D01*
X55628955Y-47974768D01*
X55430935Y-47914700D01*
X55430933Y-47914699D01*
X55430935Y-47914699D01*
X55320222Y-47903795D01*
X55276609Y-47899500D01*
X55276605Y-47899500D01*
X53473395Y-47899500D01*
X53319067Y-47914699D01*
X53121042Y-47974769D01*
X52938545Y-48072317D01*
X52778589Y-48203589D01*
X52647317Y-48363545D01*
X52549769Y-48546042D01*
X52489699Y-48744066D01*
X52474500Y-48898394D01*
X52474500Y-50701604D01*
X52489699Y-50855932D01*
X52489700Y-50855935D01*
X52549768Y-51053955D01*
X52642645Y-51227715D01*
X52647317Y-51236454D01*
X52778589Y-51396410D01*
X52896018Y-51492781D01*
X52938549Y-51527685D01*
X53121045Y-51625232D01*
X53319065Y-51685300D01*
X53319064Y-51685300D01*
X53329968Y-51686373D01*
X53473391Y-51700500D01*
X54384952Y-51700499D01*
X54451991Y-51720183D01*
X54472633Y-51736818D01*
X55321334Y-52585519D01*
X55354819Y-52646842D01*
X55349835Y-52716534D01*
X55307963Y-52772467D01*
X55242499Y-52796884D01*
X55233653Y-52797200D01*
X52601946Y-52797200D01*
X52534907Y-52777515D01*
X52514265Y-52760881D01*
X48041203Y-48287819D01*
X43546419Y-43793034D01*
X43380811Y-43672713D01*
X43280954Y-43621834D01*
X43198419Y-43579780D01*
X43140538Y-43560973D01*
X43033116Y-43526069D01*
X43033114Y-43526069D01*
X43003735Y-43516523D01*
X43003733Y-43516522D01*
X43003728Y-43516521D01*
X42832057Y-43489331D01*
X42801552Y-43484500D01*
X42801551Y-43484500D01*
X36058304Y-43484500D01*
X35991265Y-43464815D01*
X35985419Y-43460818D01*
X35865054Y-43373368D01*
X35865053Y-43373367D01*
X35865051Y-43373366D01*
X35711611Y-43295184D01*
X35633575Y-43255422D01*
X35558068Y-43230888D01*
X35500393Y-43191450D01*
X35473195Y-43127091D01*
X35485110Y-43058244D01*
X35508703Y-43025279D01*
X39079765Y-39454219D01*
X39141088Y-39420734D01*
X39167446Y-39417900D01*
X57843353Y-39417900D01*
X57910392Y-39437585D01*
G37*
%TD.AperFunction*%
%TA.AperFunction,NonConductor*%
G36*
X31098520Y-33870095D02*
G01*
X31111313Y-33871164D01*
X31142083Y-33888443D01*
X31179168Y-33916900D01*
X31440332Y-34067683D01*
X31626072Y-34144619D01*
X31718939Y-34183086D01*
X31718940Y-34183086D01*
X31718942Y-34183087D01*
X32010232Y-34261138D01*
X32309217Y-34300500D01*
X32309224Y-34300500D01*
X32610776Y-34300500D01*
X32610783Y-34300500D01*
X32824563Y-34272354D01*
X32893595Y-34283119D01*
X32928427Y-34307612D01*
X36650534Y-38029719D01*
X36684019Y-38091042D01*
X36679035Y-38160734D01*
X36650534Y-38205081D01*
X31856136Y-42999478D01*
X31735816Y-43165084D01*
X31735814Y-43165087D01*
X31704251Y-43227034D01*
X31642881Y-43347476D01*
X31579622Y-43542165D01*
X31547600Y-43744348D01*
X31547600Y-50105751D01*
X31579622Y-50307935D01*
X31594937Y-50355068D01*
X31603036Y-50379993D01*
X31642880Y-50502619D01*
X31645528Y-50507816D01*
X31649509Y-50515629D01*
X31649510Y-50515632D01*
X31695918Y-50606713D01*
X31735813Y-50685011D01*
X31856134Y-50850619D01*
X31856136Y-50850621D01*
X55568334Y-74562819D01*
X55601819Y-74624142D01*
X55596835Y-74693834D01*
X55554963Y-74749767D01*
X55489499Y-74774184D01*
X55480653Y-74774500D01*
X55118092Y-74774500D01*
X55079998Y-74778251D01*
X54963767Y-74789699D01*
X54765743Y-74849769D01*
X54687187Y-74891759D01*
X54583250Y-74947315D01*
X54583248Y-74947316D01*
X54583247Y-74947317D01*
X54423289Y-75078589D01*
X54292017Y-75238547D01*
X54194469Y-75421043D01*
X54134399Y-75619067D01*
X54130106Y-75662659D01*
X54120459Y-75760616D01*
X54119200Y-75773395D01*
X54119200Y-75950153D01*
X54099515Y-76017192D01*
X54046711Y-76062947D01*
X53977553Y-76072891D01*
X53913997Y-76043866D01*
X53907519Y-76037834D01*
X30978919Y-53109234D01*
X30945434Y-53047911D01*
X30942600Y-53021553D01*
X30942600Y-33986822D01*
X30946600Y-33973198D01*
X30945756Y-33959024D01*
X30956248Y-33940340D01*
X30962285Y-33919783D01*
X30973015Y-33910485D01*
X30979969Y-33898103D01*
X30998897Y-33888057D01*
X31015089Y-33874028D01*
X31029143Y-33872007D01*
X31041686Y-33865351D01*
X31063037Y-33867133D01*
X31084247Y-33864084D01*
X31098520Y-33870095D01*
G37*
%TD.AperFunction*%
%TA.AperFunction,NonConductor*%
G36*
X36615629Y-48643961D02*
G01*
X36659977Y-48672462D01*
X48573286Y-60585771D01*
X48728249Y-60698356D01*
X48738890Y-60706087D01*
X48855107Y-60765303D01*
X48921276Y-60799018D01*
X48921278Y-60799018D01*
X48921281Y-60799020D01*
X49025637Y-60832927D01*
X49115965Y-60862277D01*
X49217057Y-60878288D01*
X49318148Y-60894300D01*
X49522851Y-60894300D01*
X71998453Y-60894300D01*
X72065492Y-60913985D01*
X72086134Y-60930619D01*
X82860035Y-71704519D01*
X82893520Y-71765842D01*
X82888536Y-71835534D01*
X82846664Y-71891467D01*
X82781200Y-71915884D01*
X82772354Y-71916200D01*
X71800452Y-71916200D01*
X71595748Y-71916200D01*
X71528353Y-71926874D01*
X71393563Y-71948223D01*
X71296223Y-71979850D01*
X71296223Y-71979851D01*
X71243452Y-71996997D01*
X71198874Y-72011482D01*
X71107684Y-72057945D01*
X71107685Y-72057946D01*
X71016488Y-72104413D01*
X70850878Y-72224736D01*
X65928434Y-77147181D01*
X65867111Y-77180666D01*
X65840753Y-77183500D01*
X60806381Y-77183500D01*
X60739342Y-77163815D01*
X60693587Y-77111011D01*
X60683643Y-77041853D01*
X60695897Y-77003203D01*
X60702941Y-76989379D01*
X60780790Y-76749785D01*
X60820200Y-76500962D01*
X60820200Y-76249038D01*
X60780790Y-76000215D01*
X60702941Y-75760621D01*
X60702939Y-75760618D01*
X60702939Y-75760616D01*
X60653027Y-75662659D01*
X60588570Y-75536155D01*
X60504939Y-75421046D01*
X60440498Y-75332350D01*
X60440494Y-75332345D01*
X60262354Y-75154205D01*
X60262349Y-75154201D01*
X60058548Y-75006132D01*
X60058547Y-75006131D01*
X60058545Y-75006130D01*
X59834079Y-74891759D01*
X59704844Y-74849768D01*
X59594483Y-74813909D01*
X59519389Y-74802015D01*
X59456255Y-74772085D01*
X59451108Y-74767223D01*
X34184919Y-49501034D01*
X34151434Y-49439711D01*
X34148600Y-49413353D01*
X34148600Y-49099500D01*
X34168285Y-49032461D01*
X34221089Y-48986706D01*
X34272600Y-48975500D01*
X35894957Y-48975500D01*
X35894958Y-48975499D01*
X35962104Y-48967934D01*
X36029249Y-48960369D01*
X36029252Y-48960368D01*
X36029255Y-48960368D01*
X36199522Y-48900789D01*
X36352262Y-48804816D01*
X36479816Y-48677262D01*
X36479819Y-48677256D01*
X36484614Y-48672462D01*
X36545937Y-48638977D01*
X36615629Y-48643961D01*
G37*
%TD.AperFunction*%
%TA.AperFunction,NonConductor*%
G36*
X42176192Y-46105185D02*
G01*
X42196834Y-46121819D01*
X51016808Y-54941792D01*
X51016822Y-54941807D01*
X51019933Y-54944918D01*
X51019934Y-54944919D01*
X51164681Y-55089666D01*
X51164684Y-55089668D01*
X51164688Y-55089672D01*
X51314868Y-55198782D01*
X51330290Y-55209987D01*
X51417135Y-55254237D01*
X51512681Y-55302921D01*
X51512684Y-55302922D01*
X51610021Y-55334548D01*
X51707366Y-55366177D01*
X51909548Y-55398200D01*
X51909549Y-55398200D01*
X95158651Y-55398200D01*
X95158652Y-55398200D01*
X95360835Y-55366177D01*
X95458176Y-55334548D01*
X95555519Y-55302920D01*
X95646714Y-55256453D01*
X95737911Y-55209987D01*
X95903519Y-55089666D01*
X104537366Y-46455819D01*
X104598689Y-46422334D01*
X104625047Y-46419500D01*
X116300753Y-46419500D01*
X116367792Y-46439185D01*
X116413547Y-46491989D01*
X116423491Y-46561147D01*
X116394466Y-46624703D01*
X116388434Y-46631181D01*
X96367981Y-66651634D01*
X96306658Y-66685119D01*
X96236966Y-66680135D01*
X96181033Y-66638263D01*
X96156616Y-66572799D01*
X96156300Y-66563953D01*
X96156300Y-61069246D01*
X96175985Y-61002207D01*
X96192614Y-60981570D01*
X104645229Y-52528954D01*
X104706550Y-52495471D01*
X104760500Y-52495746D01*
X105008321Y-52552309D01*
X105065160Y-52565282D01*
X105377723Y-52600499D01*
X105377724Y-52600500D01*
X105377727Y-52600500D01*
X105692276Y-52600500D01*
X105692276Y-52600499D01*
X106004840Y-52565282D01*
X106311500Y-52495289D01*
X106608394Y-52391402D01*
X106891789Y-52254926D01*
X107158123Y-52087577D01*
X107404044Y-51891461D01*
X107626461Y-51669044D01*
X107822577Y-51423123D01*
X107989926Y-51156789D01*
X108126402Y-50873394D01*
X108230289Y-50576500D01*
X108300282Y-50269840D01*
X108335500Y-49957273D01*
X108335500Y-49642727D01*
X108300282Y-49330160D01*
X108230289Y-49023500D01*
X108126402Y-48726606D01*
X107989926Y-48443211D01*
X107822577Y-48176877D01*
X107626461Y-47930956D01*
X107404044Y-47708539D01*
X107158123Y-47512423D01*
X106891789Y-47345074D01*
X106891786Y-47345072D01*
X106608395Y-47208598D01*
X106311501Y-47104711D01*
X106311499Y-47104710D01*
X106004843Y-47034718D01*
X106004827Y-47034716D01*
X105692277Y-46999500D01*
X105692273Y-46999500D01*
X105377727Y-46999500D01*
X105377722Y-46999500D01*
X105065172Y-47034716D01*
X105065156Y-47034718D01*
X104758500Y-47104710D01*
X104758498Y-47104711D01*
X104461604Y-47208598D01*
X104178213Y-47345072D01*
X103911878Y-47512422D01*
X103665956Y-47708538D01*
X103443538Y-47930956D01*
X103247422Y-48176878D01*
X103080072Y-48443213D01*
X102943598Y-48726604D01*
X102839711Y-49023498D01*
X102839710Y-49023500D01*
X102769718Y-49330156D01*
X102769716Y-49330172D01*
X102734500Y-49642722D01*
X102734500Y-49957277D01*
X102769716Y-50269827D01*
X102769718Y-50269843D01*
X102839253Y-50574497D01*
X102834980Y-50644236D01*
X102806043Y-50689770D01*
X93863836Y-59631978D01*
X93743513Y-59797588D01*
X93697046Y-59888785D01*
X93697045Y-59888784D01*
X93650579Y-59979981D01*
X93650579Y-59979982D01*
X93587323Y-60174661D01*
X93587323Y-60174664D01*
X93555300Y-60376848D01*
X93555300Y-77098200D01*
X93535615Y-77165239D01*
X93482811Y-77210994D01*
X93431300Y-77222200D01*
X90936663Y-77222200D01*
X90869624Y-77202515D01*
X90823869Y-77149711D01*
X90813925Y-77080553D01*
X90826178Y-77041905D01*
X90845897Y-77003203D01*
X90852941Y-76989379D01*
X90930790Y-76749785D01*
X90970200Y-76500962D01*
X90970200Y-76249038D01*
X90930790Y-76000215D01*
X90852941Y-75760621D01*
X90852939Y-75760618D01*
X90852939Y-75760616D01*
X90803027Y-75662659D01*
X90738570Y-75536155D01*
X90654939Y-75421046D01*
X90590498Y-75332350D01*
X90590494Y-75332345D01*
X90412354Y-75154205D01*
X90412349Y-75154201D01*
X90208548Y-75006132D01*
X90208547Y-75006131D01*
X90208545Y-75006130D01*
X89984079Y-74891759D01*
X89744485Y-74813910D01*
X89744483Y-74813909D01*
X89669389Y-74802015D01*
X89606254Y-74772085D01*
X89601107Y-74767223D01*
X81519003Y-66685119D01*
X73435719Y-58601834D01*
X73270111Y-58481513D01*
X73178914Y-58435046D01*
X73087723Y-58388581D01*
X73041015Y-58373404D01*
X72990376Y-58356951D01*
X72966503Y-58349194D01*
X72893035Y-58325322D01*
X72718495Y-58297678D01*
X72690852Y-58293300D01*
X72690851Y-58293300D01*
X50010547Y-58293300D01*
X49943508Y-58273615D01*
X49922866Y-58256981D01*
X37998921Y-46333036D01*
X37998915Y-46333031D01*
X37966965Y-46309818D01*
X37924299Y-46254488D01*
X37918320Y-46184875D01*
X37950926Y-46123080D01*
X38011764Y-46088723D01*
X38039850Y-46085500D01*
X42109153Y-46085500D01*
X42176192Y-46105185D01*
G37*
%TD.AperFunction*%
%TA.AperFunction,NonConductor*%
G36*
X70754747Y-76101751D02*
G01*
X70810680Y-76143623D01*
X70835097Y-76209087D01*
X70834634Y-76231815D01*
X70829200Y-76280049D01*
X70829200Y-78369960D01*
X70844330Y-78504249D01*
X70844331Y-78504254D01*
X70903912Y-78674526D01*
X70987044Y-78806828D01*
X71006045Y-78874064D01*
X70985678Y-78940899D01*
X70932410Y-78986114D01*
X70882051Y-78996800D01*
X68056547Y-78996800D01*
X67989508Y-78977115D01*
X67943753Y-78924311D01*
X67933809Y-78855153D01*
X67962834Y-78791597D01*
X67968866Y-78785119D01*
X69158192Y-77595793D01*
X70623734Y-76130250D01*
X70685055Y-76096767D01*
X70754747Y-76101751D01*
G37*
%TD.AperFunction*%
%TA.AperFunction,NonConductor*%
G36*
X124961592Y-44637485D02*
G01*
X124982234Y-44654119D01*
X125775934Y-45447819D01*
X125809419Y-45509142D01*
X125804435Y-45578834D01*
X125762563Y-45634767D01*
X125697099Y-45659184D01*
X125688253Y-45659500D01*
X125529038Y-45659500D01*
X125463035Y-45669954D01*
X125280214Y-45698910D01*
X125040616Y-45776760D01*
X124816151Y-45891132D01*
X124612350Y-46039201D01*
X124612345Y-46039205D01*
X124434205Y-46217345D01*
X124434201Y-46217350D01*
X124286132Y-46421151D01*
X124171760Y-46645616D01*
X124093910Y-46885214D01*
X124059174Y-47104528D01*
X124054500Y-47134038D01*
X124054500Y-47385962D01*
X124074530Y-47512423D01*
X124093910Y-47634785D01*
X124171760Y-47874383D01*
X124222910Y-47974769D01*
X124272613Y-48072317D01*
X124286132Y-48098848D01*
X124434201Y-48302649D01*
X124434205Y-48302654D01*
X124573870Y-48442319D01*
X124607355Y-48503642D01*
X124602371Y-48573334D01*
X124573870Y-48617681D01*
X124434205Y-48757345D01*
X124434201Y-48757350D01*
X124286132Y-48961151D01*
X124171760Y-49185616D01*
X124093910Y-49425214D01*
X124054500Y-49674038D01*
X124054500Y-49925961D01*
X124093910Y-50174785D01*
X124171760Y-50414383D01*
X124286132Y-50638848D01*
X124434176Y-50842615D01*
X124457656Y-50908421D01*
X124441830Y-50976475D01*
X124391724Y-51025170D01*
X124333858Y-51039500D01*
X123655652Y-51039500D01*
X123450948Y-51039500D01*
X123426629Y-51043351D01*
X123248765Y-51071522D01*
X123054076Y-51134781D01*
X122871686Y-51227715D01*
X122706086Y-51348028D01*
X122561328Y-51492786D01*
X122441015Y-51658386D01*
X122348081Y-51840776D01*
X122284822Y-52035465D01*
X122252800Y-52237648D01*
X122252800Y-59371352D01*
X122233115Y-59438391D01*
X122216481Y-59459033D01*
X106908290Y-74767223D01*
X106846967Y-74800708D01*
X106840009Y-74802015D01*
X106764917Y-74813909D01*
X106525318Y-74891760D01*
X106300851Y-75006132D01*
X106097050Y-75154201D01*
X106097045Y-75154205D01*
X105918905Y-75332345D01*
X105918901Y-75332350D01*
X105770832Y-75536151D01*
X105656460Y-75760618D01*
X105578609Y-76000217D01*
X105566715Y-76075309D01*
X105536785Y-76138443D01*
X105531923Y-76143590D01*
X102687934Y-78987581D01*
X102626611Y-79021066D01*
X102600253Y-79023900D01*
X96231048Y-79023900D01*
X96164009Y-79004215D01*
X96118254Y-78951411D01*
X96108310Y-78882253D01*
X96113117Y-78861581D01*
X96124277Y-78827234D01*
X96148464Y-78674526D01*
X96156300Y-78625052D01*
X96156300Y-77948994D01*
X96175985Y-77881955D01*
X96228789Y-77836200D01*
X96297947Y-77826256D01*
X96336595Y-77838509D01*
X96375316Y-77858239D01*
X96375318Y-77858239D01*
X96375321Y-77858241D01*
X96614915Y-77936090D01*
X96863738Y-77975500D01*
X96863739Y-77975500D01*
X97115661Y-77975500D01*
X97115662Y-77975500D01*
X97364485Y-77936090D01*
X97604079Y-77858241D01*
X97828545Y-77743870D01*
X98032356Y-77595793D01*
X98210493Y-77417656D01*
X98358570Y-77213845D01*
X98472941Y-76989379D01*
X98550790Y-76749785D01*
X98590200Y-76500962D01*
X98590200Y-76249038D01*
X98550790Y-76000215D01*
X98472941Y-75760621D01*
X98472939Y-75760618D01*
X98472939Y-75760616D01*
X98423027Y-75662659D01*
X98358570Y-75536155D01*
X98351946Y-75527038D01*
X98313882Y-75474646D01*
X98290402Y-75408840D01*
X98290200Y-75401761D01*
X98290200Y-68459145D01*
X98309885Y-68392106D01*
X98326514Y-68371469D01*
X116342916Y-50355066D01*
X116404237Y-50321583D01*
X116473929Y-50326567D01*
X116529862Y-50368439D01*
X116548524Y-50404423D01*
X116551760Y-50414383D01*
X116666132Y-50638848D01*
X116814201Y-50842649D01*
X116814205Y-50842654D01*
X116953870Y-50982319D01*
X116987355Y-51043642D01*
X116982371Y-51113334D01*
X116953870Y-51157681D01*
X116814205Y-51297345D01*
X116814201Y-51297350D01*
X116666132Y-51501151D01*
X116551760Y-51725616D01*
X116514341Y-51840781D01*
X116473910Y-51965215D01*
X116434500Y-52214038D01*
X116434500Y-52465962D01*
X116466640Y-52668885D01*
X116473910Y-52714785D01*
X116551760Y-52954383D01*
X116666132Y-53178848D01*
X116814201Y-53382649D01*
X116814205Y-53382654D01*
X116992345Y-53560794D01*
X116992350Y-53560798D01*
X117170117Y-53689952D01*
X117196155Y-53708870D01*
X117339184Y-53781747D01*
X117420616Y-53823239D01*
X117420618Y-53823239D01*
X117420621Y-53823241D01*
X117660215Y-53901090D01*
X117909038Y-53940500D01*
X117909039Y-53940500D01*
X118960961Y-53940500D01*
X118960962Y-53940500D01*
X119209785Y-53901090D01*
X119449379Y-53823241D01*
X119673845Y-53708870D01*
X119877656Y-53560793D01*
X120055793Y-53382656D01*
X120203870Y-53178845D01*
X120318241Y-52954379D01*
X120396090Y-52714785D01*
X120435500Y-52465962D01*
X120435500Y-52214038D01*
X120396090Y-51965215D01*
X120318241Y-51725621D01*
X120318239Y-51725618D01*
X120318239Y-51725616D01*
X120267089Y-51625230D01*
X120203870Y-51501155D01*
X120147177Y-51423123D01*
X120055824Y-51297385D01*
X120032344Y-51231579D01*
X120048170Y-51163525D01*
X120098276Y-51114830D01*
X120156142Y-51100500D01*
X121039051Y-51100500D01*
X121039052Y-51100500D01*
X121241235Y-51068477D01*
X121387990Y-51020793D01*
X121435919Y-51005220D01*
X121534381Y-50955051D01*
X121618311Y-50912287D01*
X121783919Y-50791966D01*
X121874277Y-50701608D01*
X121928666Y-50647219D01*
X121969166Y-50606719D01*
X121969168Y-50606715D01*
X121969171Y-50606713D01*
X122035344Y-50515632D01*
X122089487Y-50441110D01*
X122152005Y-50318412D01*
X122182421Y-50258718D01*
X122245677Y-50064034D01*
X122277700Y-49861852D01*
X122277700Y-46175687D01*
X122277701Y-46175662D01*
X122277701Y-45965850D01*
X122277701Y-45965849D01*
X122245677Y-45763666D01*
X122245676Y-45763662D01*
X122245676Y-45763661D01*
X122182422Y-45568984D01*
X122182421Y-45568981D01*
X122089487Y-45386590D01*
X121969166Y-45220981D01*
X121577666Y-44829481D01*
X121544181Y-44768158D01*
X121549165Y-44698466D01*
X121591037Y-44642533D01*
X121656501Y-44618116D01*
X121665347Y-44617800D01*
X124894553Y-44617800D01*
X124961592Y-44637485D01*
G37*
%TD.AperFunction*%
%TA.AperFunction,NonConductor*%
G36*
X81816892Y-76343485D02*
G01*
X81837534Y-76360119D01*
X86091334Y-80613919D01*
X86124819Y-80675242D01*
X86119835Y-80744934D01*
X86077963Y-80800867D01*
X86012499Y-80825284D01*
X86003653Y-80825600D01*
X85102546Y-80825600D01*
X85035507Y-80805915D01*
X85014865Y-80789281D01*
X80761067Y-76535481D01*
X80727582Y-76474158D01*
X80732566Y-76404466D01*
X80774438Y-76348533D01*
X80839902Y-76324116D01*
X80848748Y-76323800D01*
X81749853Y-76323800D01*
X81816892Y-76343485D01*
G37*
%TD.AperFunction*%
M02*
