M48
; DRILL file {KiCad 9.0.4} date 2026-06-10T11:39:32+0200
; FORMAT={-:-/ absolute / metric / decimal}
; #@! TF.CreationDate,2026-06-10T11:39:32+02:00
; #@! TF.GenerationSoftware,Kicad,Pcbnew,9.0.4
; #@! TF.FileFunction,MixedPlating,1,2
FMAT,2
METRIC
; #@! TA.AperFunction,Plated,PTH,ComponentDrill
T1C0.800
; #@! TA.AperFunction,Plated,PTH,ComponentDrill
T2C1.000
; #@! TA.AperFunction,Plated,PTH,ComponentDrill
T3C1.100
; #@! TA.AperFunction,Plated,PTH,ComponentDrill
T4C1.520
; #@! TA.AperFunction,Plated,PTH,ComponentDrill
T5C2.000
%
G90
G05
T1
X55.72Y-76.375
X59.22Y-76.375
X89.37Y-76.375
X96.99Y-76.375
X107.14Y-76.375
X114.76Y-76.375
X118.435Y-47.26
X118.435Y-49.8
X118.435Y-52.34
X126.055Y-47.26
X126.055Y-49.8
X126.055Y-52.34
T2
X35.0Y-44.785
X35.0Y-47.325
X149.53Y-44.775
X149.53Y-47.315
T3
X54.375Y-49.8
X64.535Y-49.8
X72.48Y-77.325
X75.02Y-77.325
X77.56Y-77.325
T4
X32.46Y-32.0
X37.54Y-32.0
X146.99Y-32.0
X152.07Y-32.0
T5
X77.335Y-49.8
X105.535Y-49.8
M30
