%TF.GenerationSoftware,KiCad,Pcbnew,9.0.6*%
%TF.CreationDate,2026-06-10T01:37:28+02:00*%
%TF.ProjectId,buck,6275636b-2e6b-4696-9361-645f70636258,rev?*%
%TF.SameCoordinates,Original*%
%TF.FileFunction,Copper,L2,Bot*%
%TF.FilePolarity,Positive*%
%FSLAX46Y46*%
G04 Gerber Fmt 4.6, Leading zero omitted, Abs format (unit mm)*
G04 Created by KiCad (PCBNEW 9.0.6) date 2026-06-10 01:37:28*
%MOMM*%
%LPD*%
G01*
G04 APERTURE LIST*
G04 Aperture macros list*
%AMRoundRect*
0 Rectangle with rounded corners*
0 $1 Rounding radius*
0 $2 $3 $4 $5 $6 $7 $8 $9 X,Y pos of 4 corners*
0 Add a 4 corners polygon primitive as box body*
4,1,4,$2,$3,$4,$5,$6,$7,$8,$9,$2,$3,0*
0 Add four circle primitives for the rounded corners*
1,1,$1+$1,$2,$3*
1,1,$1+$1,$4,$5*
1,1,$1+$1,$6,$7*
1,1,$1+$1,$8,$9*
0 Add four rect primitives between the rounded corners*
20,1,$1+$1,$2,$3,$4,$5,0*
20,1,$1+$1,$4,$5,$6,$7,0*
20,1,$1+$1,$6,$7,$8,$9,0*
20,1,$1+$1,$8,$9,$2,$3,0*%
G04 Aperture macros list end*
%ADD10C,0.300000*%
%TA.AperFunction,NonConductor*%
%ADD11C,0.300000*%
%TD*%
%TA.AperFunction,ComponentPad*%
%ADD12R,3.000000X3.000000*%
%TD*%
%TA.AperFunction,ComponentPad*%
%ADD13C,3.000000*%
%TD*%
%TA.AperFunction,ComponentPad*%
%ADD14R,1.700000X1.700000*%
%TD*%
%TA.AperFunction,ComponentPad*%
%ADD15C,1.700000*%
%TD*%
%TA.AperFunction,ComponentPad*%
%ADD16C,1.600000*%
%TD*%
%TA.AperFunction,ComponentPad*%
%ADD17RoundRect,0.249999X-0.850001X-0.850001X0.850001X-0.850001X0.850001X0.850001X-0.850001X0.850001X0*%
%TD*%
%TA.AperFunction,ComponentPad*%
%ADD18C,2.200000*%
%TD*%
%TA.AperFunction,ComponentPad*%
%ADD19RoundRect,0.250000X-0.950000X-0.550000X0.950000X-0.550000X0.950000X0.550000X-0.950000X0.550000X0*%
%TD*%
%TA.AperFunction,ComponentPad*%
%ADD20O,2.400000X1.600000*%
%TD*%
%TA.AperFunction,ComponentPad*%
%ADD21C,2.600000*%
%TD*%
%TA.AperFunction,ComponentPad*%
%ADD22R,1.700000X2.000000*%
%TD*%
%TA.AperFunction,ComponentPad*%
%ADD23O,1.700000X2.000000*%
%TD*%
%TA.AperFunction,ComponentPad*%
%ADD24RoundRect,0.250000X-0.550000X-0.550000X0.550000X-0.550000X0.550000X0.550000X-0.550000X0.550000X0*%
%TD*%
%TA.AperFunction,Conductor*%
%ADD25C,1.000000*%
%TD*%
G04 APERTURE END LIST*
D10*
D11*
X132504999Y-31178328D02*
X132504999Y-32249757D01*
X132504999Y-32249757D02*
X132576428Y-32464042D01*
X132576428Y-32464042D02*
X132719285Y-32606900D01*
X132719285Y-32606900D02*
X132933571Y-32678328D01*
X132933571Y-32678328D02*
X133076428Y-32678328D01*
X131862142Y-31321185D02*
X131790714Y-31249757D01*
X131790714Y-31249757D02*
X131647857Y-31178328D01*
X131647857Y-31178328D02*
X131290714Y-31178328D01*
X131290714Y-31178328D02*
X131147857Y-31249757D01*
X131147857Y-31249757D02*
X131076428Y-31321185D01*
X131076428Y-31321185D02*
X131004999Y-31464042D01*
X131004999Y-31464042D02*
X131004999Y-31606900D01*
X131004999Y-31606900D02*
X131076428Y-31821185D01*
X131076428Y-31821185D02*
X131933571Y-32678328D01*
X131933571Y-32678328D02*
X131004999Y-32678328D01*
D10*
D11*
X50050001Y-60335471D02*
X50121429Y-60406900D01*
X50121429Y-60406900D02*
X50335715Y-60478328D01*
X50335715Y-60478328D02*
X50478572Y-60478328D01*
X50478572Y-60478328D02*
X50692858Y-60406900D01*
X50692858Y-60406900D02*
X50835715Y-60264042D01*
X50835715Y-60264042D02*
X50907144Y-60121185D01*
X50907144Y-60121185D02*
X50978572Y-59835471D01*
X50978572Y-59835471D02*
X50978572Y-59621185D01*
X50978572Y-59621185D02*
X50907144Y-59335471D01*
X50907144Y-59335471D02*
X50835715Y-59192614D01*
X50835715Y-59192614D02*
X50692858Y-59049757D01*
X50692858Y-59049757D02*
X50478572Y-58978328D01*
X50478572Y-58978328D02*
X50335715Y-58978328D01*
X50335715Y-58978328D02*
X50121429Y-59049757D01*
X50121429Y-59049757D02*
X50050001Y-59121185D01*
X48621429Y-60478328D02*
X49478572Y-60478328D01*
X49050001Y-60478328D02*
X49050001Y-58978328D01*
X49050001Y-58978328D02*
X49192858Y-59192614D01*
X49192858Y-59192614D02*
X49335715Y-59335471D01*
X49335715Y-59335471D02*
X49478572Y-59406900D01*
D10*
D11*
X58134999Y-67028328D02*
X58634999Y-66314042D01*
X58992142Y-67028328D02*
X58992142Y-65528328D01*
X58992142Y-65528328D02*
X58420713Y-65528328D01*
X58420713Y-65528328D02*
X58277856Y-65599757D01*
X58277856Y-65599757D02*
X58206427Y-65671185D01*
X58206427Y-65671185D02*
X58134999Y-65814042D01*
X58134999Y-65814042D02*
X58134999Y-66028328D01*
X58134999Y-66028328D02*
X58206427Y-66171185D01*
X58206427Y-66171185D02*
X58277856Y-66242614D01*
X58277856Y-66242614D02*
X58420713Y-66314042D01*
X58420713Y-66314042D02*
X58992142Y-66314042D01*
X57563570Y-65671185D02*
X57492142Y-65599757D01*
X57492142Y-65599757D02*
X57349285Y-65528328D01*
X57349285Y-65528328D02*
X56992142Y-65528328D01*
X56992142Y-65528328D02*
X56849285Y-65599757D01*
X56849285Y-65599757D02*
X56777856Y-65671185D01*
X56777856Y-65671185D02*
X56706427Y-65814042D01*
X56706427Y-65814042D02*
X56706427Y-65956900D01*
X56706427Y-65956900D02*
X56777856Y-66171185D01*
X56777856Y-66171185D02*
X57634999Y-67028328D01*
X57634999Y-67028328D02*
X56706427Y-67028328D01*
D10*
D11*
X35499999Y-40458328D02*
X35499999Y-41529757D01*
X35499999Y-41529757D02*
X35571428Y-41744042D01*
X35571428Y-41744042D02*
X35714285Y-41886900D01*
X35714285Y-41886900D02*
X35928571Y-41958328D01*
X35928571Y-41958328D02*
X36071428Y-41958328D01*
X34928571Y-40458328D02*
X33999999Y-40458328D01*
X33999999Y-40458328D02*
X34499999Y-41029757D01*
X34499999Y-41029757D02*
X34285714Y-41029757D01*
X34285714Y-41029757D02*
X34142857Y-41101185D01*
X34142857Y-41101185D02*
X34071428Y-41172614D01*
X34071428Y-41172614D02*
X33999999Y-41315471D01*
X33999999Y-41315471D02*
X33999999Y-41672614D01*
X33999999Y-41672614D02*
X34071428Y-41815471D01*
X34071428Y-41815471D02*
X34142857Y-41886900D01*
X34142857Y-41886900D02*
X34285714Y-41958328D01*
X34285714Y-41958328D02*
X34714285Y-41958328D01*
X34714285Y-41958328D02*
X34857142Y-41886900D01*
X34857142Y-41886900D02*
X34928571Y-41815471D01*
D10*
D11*
X90402857Y-44238328D02*
X90402857Y-45452614D01*
X90402857Y-45452614D02*
X90331428Y-45595471D01*
X90331428Y-45595471D02*
X90260000Y-45666900D01*
X90260000Y-45666900D02*
X90117142Y-45738328D01*
X90117142Y-45738328D02*
X89831428Y-45738328D01*
X89831428Y-45738328D02*
X89688571Y-45666900D01*
X89688571Y-45666900D02*
X89617142Y-45595471D01*
X89617142Y-45595471D02*
X89545714Y-45452614D01*
X89545714Y-45452614D02*
X89545714Y-44238328D01*
X88045713Y-45738328D02*
X88902856Y-45738328D01*
X88474285Y-45738328D02*
X88474285Y-44238328D01*
X88474285Y-44238328D02*
X88617142Y-44452614D01*
X88617142Y-44452614D02*
X88759999Y-44595471D01*
X88759999Y-44595471D02*
X88902856Y-44666900D01*
D10*
D11*
X129024999Y-49998328D02*
X129024999Y-51069757D01*
X129024999Y-51069757D02*
X129096428Y-51284042D01*
X129096428Y-51284042D02*
X129239285Y-51426900D01*
X129239285Y-51426900D02*
X129453571Y-51498328D01*
X129453571Y-51498328D02*
X129596428Y-51498328D01*
X127667857Y-50498328D02*
X127667857Y-51498328D01*
X128024999Y-49926900D02*
X128382142Y-50998328D01*
X128382142Y-50998328D02*
X127453571Y-50998328D01*
D10*
D11*
X93429699Y-49778328D02*
X93929699Y-49064042D01*
X94286842Y-49778328D02*
X94286842Y-48278328D01*
X94286842Y-48278328D02*
X93715413Y-48278328D01*
X93715413Y-48278328D02*
X93572556Y-48349757D01*
X93572556Y-48349757D02*
X93501127Y-48421185D01*
X93501127Y-48421185D02*
X93429699Y-48564042D01*
X93429699Y-48564042D02*
X93429699Y-48778328D01*
X93429699Y-48778328D02*
X93501127Y-48921185D01*
X93501127Y-48921185D02*
X93572556Y-48992614D01*
X93572556Y-48992614D02*
X93715413Y-49064042D01*
X93715413Y-49064042D02*
X94286842Y-49064042D01*
X92001127Y-49778328D02*
X92858270Y-49778328D01*
X92429699Y-49778328D02*
X92429699Y-48278328D01*
X92429699Y-48278328D02*
X92572556Y-48492614D01*
X92572556Y-48492614D02*
X92715413Y-48635471D01*
X92715413Y-48635471D02*
X92858270Y-48706900D01*
D10*
D11*
X28524999Y-31178328D02*
X28524999Y-32249757D01*
X28524999Y-32249757D02*
X28596428Y-32464042D01*
X28596428Y-32464042D02*
X28739285Y-32606900D01*
X28739285Y-32606900D02*
X28953571Y-32678328D01*
X28953571Y-32678328D02*
X29096428Y-32678328D01*
X27024999Y-32678328D02*
X27882142Y-32678328D01*
X27453571Y-32678328D02*
X27453571Y-31178328D01*
X27453571Y-31178328D02*
X27596428Y-31392614D01*
X27596428Y-31392614D02*
X27739285Y-31535471D01*
X27739285Y-31535471D02*
X27882142Y-31606900D01*
D10*
D11*
X86208985Y-60178328D02*
X86208985Y-58678328D01*
X86208985Y-58678328D02*
X85708985Y-59749757D01*
X85708985Y-59749757D02*
X85208985Y-58678328D01*
X85208985Y-58678328D02*
X85208985Y-60178328D01*
X83708984Y-60178328D02*
X84566127Y-60178328D01*
X84137556Y-60178328D02*
X84137556Y-58678328D01*
X84137556Y-58678328D02*
X84280413Y-58892614D01*
X84280413Y-58892614D02*
X84423270Y-59035471D01*
X84423270Y-59035471D02*
X84566127Y-59106900D01*
D10*
D11*
X50907142Y-38453328D02*
X50907142Y-36953328D01*
X50907142Y-36953328D02*
X50549999Y-36953328D01*
X50549999Y-36953328D02*
X50335713Y-37024757D01*
X50335713Y-37024757D02*
X50192856Y-37167614D01*
X50192856Y-37167614D02*
X50121427Y-37310471D01*
X50121427Y-37310471D02*
X50049999Y-37596185D01*
X50049999Y-37596185D02*
X50049999Y-37810471D01*
X50049999Y-37810471D02*
X50121427Y-38096185D01*
X50121427Y-38096185D02*
X50192856Y-38239042D01*
X50192856Y-38239042D02*
X50335713Y-38381900D01*
X50335713Y-38381900D02*
X50549999Y-38453328D01*
X50549999Y-38453328D02*
X50907142Y-38453328D01*
X48621427Y-38453328D02*
X49478570Y-38453328D01*
X49049999Y-38453328D02*
X49049999Y-36953328D01*
X49049999Y-36953328D02*
X49192856Y-37167614D01*
X49192856Y-37167614D02*
X49335713Y-37310471D01*
X49335713Y-37310471D02*
X49478570Y-37381900D01*
D12*
%TO.P,J2,1*%
%TO.N,/VOUT_5V*%
X122490000Y-32000000D03*
D13*
%TO.P,J2,2*%
%TO.N,/GND*%
X127570000Y-32000000D03*
%TD*%
D14*
%TO.P,J4,1*%
%TO.N,+12V_SW*%
X125030000Y-44775000D03*
D15*
%TO.P,J4,2*%
%TO.N,/SW*%
X125030000Y-47315000D03*
%TD*%
D16*
%TO.P,R2,1*%
%TO.N,GATE*%
X54075000Y-63125000D03*
%TO.P,R2,2*%
%TO.N,/SW*%
X61695000Y-63125000D03*
%TD*%
D17*
%TO.P,D1,1*%
%TO.N,/SW*%
X54375000Y-37775000D03*
D18*
%TO.P,D1,2*%
%TO.N,/GND*%
X64535000Y-37775000D03*
%TD*%
D16*
%TO.P,R1,1*%
%TO.N,PWM*%
X89369700Y-52325000D03*
%TO.P,R1,2*%
%TO.N,Net-(R1-Pad2)*%
X96989700Y-52325000D03*
%TD*%
D19*
%TO.P,U1,1*%
%TO.N,Net-(R1-Pad2)*%
X93935000Y-35235000D03*
D20*
%TO.P,U1,2*%
%TO.N,GND_MCU*%
X93935000Y-37775000D03*
%TO.P,U1,3*%
%TO.N,N/C*%
X93935000Y-40315000D03*
%TO.P,U1,4*%
%TO.N,GATE*%
X101555000Y-40315000D03*
%TO.P,U1,5*%
%TO.N,+12V_SW*%
X101555000Y-37775000D03*
%TO.P,U1,6*%
%TO.N,N/C*%
X101555000Y-35235000D03*
%TD*%
D12*
%TO.P,J1,1*%
%TO.N,/VIN_15V*%
X37540000Y-32000000D03*
D13*
%TO.P,J1,2*%
%TO.N,/GND*%
X32460000Y-32000000D03*
%TD*%
D21*
%TO.P,L1,1*%
%TO.N,/SW*%
X76685000Y-37775000D03*
%TO.P,L1,2*%
%TO.N,/VOUT_5V*%
X81685000Y-37775000D03*
%TD*%
D22*
%TO.P,M1,1*%
%TO.N,GATE*%
X72479700Y-53275000D03*
D23*
%TO.P,M1,2*%
%TO.N,/VIN_15V*%
X75019700Y-53275000D03*
%TO.P,M1,3*%
%TO.N,/SW*%
X77559700Y-53275000D03*
%TD*%
D24*
%TO.P,C1,1*%
%TO.N,/VOUT_5V*%
X55719700Y-52325000D03*
D16*
%TO.P,C1,2*%
%TO.N,/GND*%
X59219700Y-52325000D03*
%TD*%
D14*
%TO.P,J3,1*%
%TO.N,PWM*%
X35000000Y-47325000D03*
D15*
%TO.P,J3,2*%
%TO.N,GND_MCU*%
X35000000Y-44785000D03*
%TD*%
D25*
%TO.N,+12V_SW*%
X115878300Y-37775000D02*
X122878300Y-44775000D01*
X101555000Y-37775000D02*
X115878300Y-37775000D01*
X125030000Y-44775000D02*
X122878300Y-44775000D01*
%TO.N,/GND*%
X59219700Y-52325000D02*
X59219700Y-45685000D01*
X64535000Y-40369700D02*
X64535000Y-37775000D01*
X127570000Y-32000000D02*
X124754800Y-29184800D01*
X35275200Y-29184800D02*
X33867600Y-30592400D01*
X33867600Y-33222300D02*
X46330300Y-45685000D01*
X33867600Y-30592400D02*
X32460000Y-32000000D01*
X59219700Y-45685000D02*
X64535000Y-40369700D01*
X124754800Y-29184800D02*
X35275200Y-29184800D01*
X33867600Y-30592400D02*
X33867600Y-33222300D01*
X46330300Y-45685000D02*
X59219700Y-45685000D01*
%TO.N,/SW*%
X76685000Y-37775000D02*
X74230900Y-35320900D01*
X78253900Y-56270900D02*
X77559700Y-55576700D01*
X56829100Y-35320900D02*
X54375000Y-37775000D01*
X61695000Y-63125000D02*
X70011400Y-63125000D01*
X79318000Y-40408000D02*
X76685000Y-37775000D01*
X125030000Y-47315000D02*
X116074100Y-56270900D01*
X126130200Y-47315000D02*
X127181700Y-46263500D01*
X125030000Y-47315000D02*
X126130200Y-47315000D01*
X127181700Y-43308300D02*
X116996600Y-33123200D01*
X77559700Y-53275000D02*
X77559700Y-55576700D01*
X74230900Y-35320900D02*
X56829100Y-35320900D01*
X90491500Y-33123200D02*
X83206700Y-40408000D01*
X116074100Y-56270900D02*
X78253900Y-56270900D01*
X116996600Y-33123200D02*
X90491500Y-33123200D01*
X70011400Y-63125000D02*
X77559700Y-55576700D01*
X127181700Y-46263500D02*
X127181700Y-43308300D01*
X83206700Y-40408000D02*
X79318000Y-40408000D01*
%TO.N,/VOUT_5V*%
X122490000Y-32000000D02*
X119688300Y-32000000D01*
X118956400Y-31268100D02*
X88191900Y-31268100D01*
X119688300Y-32000000D02*
X118956400Y-31268100D01*
X88191900Y-31268100D02*
X81685000Y-37775000D01*
%TO.N,GATE*%
X99053300Y-40315000D02*
X99053300Y-48251400D01*
X72479700Y-53275000D02*
X70328000Y-53275000D01*
X59144900Y-58055100D02*
X65547900Y-58055100D01*
X54075000Y-63125000D02*
X59144900Y-58055100D01*
X97841100Y-54467000D02*
X89079600Y-54467000D01*
X99131600Y-53176500D02*
X97841100Y-54467000D01*
X99131600Y-48329700D02*
X99131600Y-53176500D01*
X89079600Y-54467000D02*
X89078100Y-54468500D01*
X84017100Y-50973300D02*
X72479700Y-50973300D01*
X101555000Y-40315000D02*
X99053300Y-40315000D01*
X65547900Y-58055100D02*
X70328000Y-53275000D01*
X89078100Y-54468500D02*
X87512300Y-54468500D01*
X72479700Y-53275000D02*
X72479700Y-50973300D01*
X99053300Y-48251400D02*
X99131600Y-48329700D01*
X87512300Y-54468500D02*
X84017100Y-50973300D01*
%TO.N,GND_MCU*%
X93935000Y-37775000D02*
X88517500Y-37775000D01*
X88517500Y-37775000D02*
X82309200Y-43983300D01*
X82309200Y-43983300D02*
X74084900Y-43983300D01*
X74084900Y-43983300D02*
X63616500Y-54451700D01*
X50125700Y-54451700D02*
X40459000Y-44785000D01*
X63616500Y-54451700D02*
X50125700Y-54451700D01*
X40459000Y-44785000D02*
X35000000Y-44785000D01*
%TO.N,Net-(R1-Pad2)*%
X96989700Y-52325000D02*
X96989700Y-37400400D01*
X96989700Y-37400400D02*
X94824300Y-35235000D01*
X94824300Y-35235000D02*
X93935000Y-35235000D01*
%TO.N,PWM*%
X86216300Y-49171600D02*
X89369700Y-52325000D01*
X64362700Y-56253400D02*
X71444500Y-49171600D01*
X35000000Y-47325000D02*
X37151700Y-47325000D01*
X71444500Y-49171600D02*
X86216300Y-49171600D01*
X37151700Y-47325000D02*
X46080100Y-56253400D01*
X46080100Y-56253400D02*
X64362700Y-56253400D01*
%TD*%
%TA.AperFunction,NonConductor*%
G36*
X140442539Y-20520185D02*
G01*
X140488294Y-20572989D01*
X140499500Y-20624500D01*
X140499500Y-75375500D01*
X140479815Y-75442539D01*
X140427011Y-75488294D01*
X140375500Y-75499500D01*
X20624500Y-75499500D01*
X20557461Y-75479815D01*
X20511706Y-75427011D01*
X20500500Y-75375500D01*
X20500500Y-67986655D01*
X55749202Y-67986655D01*
X59947642Y-67986655D01*
X59947642Y-64571103D01*
X55749202Y-64571103D01*
X55749202Y-67986655D01*
X20500500Y-67986655D01*
X20500500Y-61435553D01*
X47665929Y-61435553D01*
X51936776Y-61435553D01*
X51936776Y-58019984D01*
X47665929Y-58019984D01*
X47665929Y-61435553D01*
X20500500Y-61435553D01*
X20500500Y-30219984D01*
X26069499Y-30219984D01*
X26069499Y-33635553D01*
X30051928Y-33635553D01*
X30051928Y-32821287D01*
X30071613Y-32754248D01*
X30124417Y-32708493D01*
X30193575Y-32698549D01*
X30257131Y-32727574D01*
X30290489Y-32773834D01*
X30392314Y-33019661D01*
X30392318Y-33019671D01*
X30543099Y-33280831D01*
X30726679Y-33520078D01*
X30726685Y-33520085D01*
X30939914Y-33733314D01*
X30939921Y-33733320D01*
X31179168Y-33916900D01*
X31440328Y-34067681D01*
X31440329Y-34067681D01*
X31440332Y-34067683D01*
X31626072Y-34144619D01*
X31718939Y-34183086D01*
X31718940Y-34183086D01*
X31718942Y-34183087D01*
X32010232Y-34261138D01*
X32309217Y-34300500D01*
X32309224Y-34300500D01*
X32610776Y-34300500D01*
X32610783Y-34300500D01*
X32909768Y-34261138D01*
X32964821Y-34246386D01*
X33034670Y-34248049D01*
X33084595Y-34278480D01*
X45483086Y-46676971D01*
X45601105Y-46762715D01*
X45648690Y-46797287D01*
X45764907Y-46856503D01*
X45831076Y-46890218D01*
X45831078Y-46890218D01*
X45831081Y-46890220D01*
X45935437Y-46924127D01*
X46025765Y-46953477D01*
X46126857Y-46969488D01*
X46227948Y-46985500D01*
X46432651Y-46985500D01*
X57795200Y-46985500D01*
X57862239Y-47005185D01*
X57907994Y-47057989D01*
X57919200Y-47109500D01*
X57919200Y-51351761D01*
X57899515Y-51418800D01*
X57895518Y-51424646D01*
X57850832Y-51486151D01*
X57736460Y-51710616D01*
X57658610Y-51950214D01*
X57619200Y-52199038D01*
X57619200Y-52450962D01*
X57640414Y-52584898D01*
X57658610Y-52699785D01*
X57736461Y-52939386D01*
X57752522Y-52970906D01*
X57753029Y-52973610D01*
X57754831Y-52975689D01*
X57759439Y-53007742D01*
X57765418Y-53039575D01*
X57764383Y-53042123D01*
X57764775Y-53044847D01*
X57751318Y-53074312D01*
X57739141Y-53104315D01*
X57736893Y-53105899D01*
X57735750Y-53108403D01*
X57708501Y-53125914D01*
X57682035Y-53144572D01*
X57678578Y-53145144D01*
X57676972Y-53146177D01*
X57642037Y-53151200D01*
X57434892Y-53151200D01*
X57367853Y-53131515D01*
X57322098Y-53078711D01*
X57311489Y-53015047D01*
X57320200Y-52926608D01*
X57320200Y-51723392D01*
X57305000Y-51569066D01*
X57244932Y-51371046D01*
X57147385Y-51188550D01*
X57078162Y-51104201D01*
X57016110Y-51028589D01*
X56856152Y-50897317D01*
X56856153Y-50897317D01*
X56856150Y-50897315D01*
X56673654Y-50799768D01*
X56475634Y-50739700D01*
X56475632Y-50739699D01*
X56475634Y-50739699D01*
X56356505Y-50727966D01*
X56321308Y-50724500D01*
X55118092Y-50724500D01*
X55079998Y-50728251D01*
X54963767Y-50739699D01*
X54765743Y-50799769D01*
X54687187Y-50841759D01*
X54583250Y-50897315D01*
X54583248Y-50897316D01*
X54583247Y-50897317D01*
X54423289Y-51028589D01*
X54292017Y-51188547D01*
X54194469Y-51371043D01*
X54134399Y-51569067D01*
X54130106Y-51612659D01*
X54119200Y-51723392D01*
X54119200Y-52926608D01*
X54127910Y-53015047D01*
X54114892Y-53083692D01*
X54066828Y-53134402D01*
X54004508Y-53151200D01*
X50715747Y-53151200D01*
X50648708Y-53131515D01*
X50628066Y-53114881D01*
X41306221Y-43793036D01*
X41306219Y-43793034D01*
X41140611Y-43672713D01*
X41023093Y-43612835D01*
X40958219Y-43579780D01*
X40900338Y-43560973D01*
X40792916Y-43526069D01*
X40792914Y-43526069D01*
X40763535Y-43516523D01*
X40763533Y-43516522D01*
X40763528Y-43516521D01*
X40591857Y-43489331D01*
X40561352Y-43484500D01*
X40561351Y-43484500D01*
X36058304Y-43484500D01*
X35991265Y-43464815D01*
X35985419Y-43460818D01*
X35865054Y-43373368D01*
X35865053Y-43373367D01*
X35865051Y-43373366D01*
X35792764Y-43336534D01*
X35633576Y-43255422D01*
X35386493Y-43175140D01*
X35303695Y-43162026D01*
X35240560Y-43132097D01*
X35203629Y-43072785D01*
X35204627Y-43002923D01*
X35243237Y-42944690D01*
X35307200Y-42916576D01*
X35323093Y-42915553D01*
X37026928Y-42915553D01*
X37026928Y-39501187D01*
X33042774Y-39501187D01*
X33042774Y-42915553D01*
X34676907Y-42915553D01*
X34743946Y-42935238D01*
X34789701Y-42988042D01*
X34799645Y-43057200D01*
X34770620Y-43120756D01*
X34711842Y-43158530D01*
X34696305Y-43162026D01*
X34613506Y-43175140D01*
X34366423Y-43255422D01*
X34134945Y-43373368D01*
X33924774Y-43526066D01*
X33924771Y-43526069D01*
X33741071Y-43709768D01*
X33741066Y-43709774D01*
X33588368Y-43919945D01*
X33470422Y-44151423D01*
X33390140Y-44398506D01*
X33349500Y-44655097D01*
X33349500Y-44914902D01*
X33390140Y-45171493D01*
X33470422Y-45418576D01*
X33588368Y-45650054D01*
X33633213Y-45711779D01*
X33656693Y-45777585D01*
X33640867Y-45845639D01*
X33620577Y-45872345D01*
X33520183Y-45972739D01*
X33424211Y-46125476D01*
X33364631Y-46295745D01*
X33364630Y-46295750D01*
X33349500Y-46430039D01*
X33349500Y-48219960D01*
X33364630Y-48354249D01*
X33364631Y-48354254D01*
X33424211Y-48524523D01*
X33517168Y-48672462D01*
X33520184Y-48677262D01*
X33647738Y-48804816D01*
X33800478Y-48900789D01*
X33953792Y-48954436D01*
X33970745Y-48960368D01*
X33970750Y-48960369D01*
X34053347Y-48969675D01*
X34105040Y-48975499D01*
X34105043Y-48975500D01*
X34105046Y-48975500D01*
X35894957Y-48975500D01*
X35894958Y-48975499D01*
X35962104Y-48967934D01*
X36029249Y-48960369D01*
X36029252Y-48960368D01*
X36029255Y-48960368D01*
X36199522Y-48900789D01*
X36352262Y-48804816D01*
X36479816Y-48677262D01*
X36479819Y-48677256D01*
X36484614Y-48672462D01*
X36545937Y-48638977D01*
X36615629Y-48643961D01*
X36659977Y-48672462D01*
X45232886Y-57245371D01*
X45387849Y-57357956D01*
X45398490Y-57365687D01*
X45501272Y-57418057D01*
X45580876Y-57458618D01*
X45580878Y-57458618D01*
X45580881Y-57458620D01*
X45685237Y-57492527D01*
X45775565Y-57521877D01*
X45876657Y-57537888D01*
X45977748Y-57553900D01*
X46182451Y-57553900D01*
X57507553Y-57553900D01*
X57574592Y-57573585D01*
X57620347Y-57626389D01*
X57630291Y-57695547D01*
X57601266Y-57759103D01*
X57595234Y-57765581D01*
X53843590Y-61517223D01*
X53782267Y-61550708D01*
X53775309Y-61552015D01*
X53700217Y-61563909D01*
X53460618Y-61641760D01*
X53236151Y-61756132D01*
X53032350Y-61904201D01*
X53032345Y-61904205D01*
X52854205Y-62082345D01*
X52854201Y-62082350D01*
X52706132Y-62286151D01*
X52591760Y-62510616D01*
X52513910Y-62750214D01*
X52474500Y-62999038D01*
X52474500Y-63250961D01*
X52513910Y-63499785D01*
X52591760Y-63739383D01*
X52706132Y-63963848D01*
X52854201Y-64167649D01*
X52854205Y-64167654D01*
X53032344Y-64345793D01*
X53032350Y-64345798D01*
X53174647Y-64449182D01*
X53236155Y-64493870D01*
X53379184Y-64566747D01*
X53460616Y-64608239D01*
X53460618Y-64608239D01*
X53460621Y-64608241D01*
X53700215Y-64686090D01*
X53949038Y-64725500D01*
X53949039Y-64725500D01*
X54200961Y-64725500D01*
X54200962Y-64725500D01*
X54449785Y-64686090D01*
X54689379Y-64608241D01*
X54913845Y-64493870D01*
X54975353Y-64449182D01*
X55016314Y-64419423D01*
X55117649Y-64345798D01*
X55117656Y-64345793D01*
X55179699Y-64283750D01*
X55295793Y-64167656D01*
X55443870Y-63963845D01*
X55558241Y-63739379D01*
X55636090Y-63499785D01*
X55647984Y-63424687D01*
X55677911Y-63361557D01*
X55682757Y-63356426D01*
X59647266Y-59391919D01*
X59708589Y-59358434D01*
X59734947Y-59355600D01*
X65650251Y-59355600D01*
X65650252Y-59355600D01*
X65852435Y-59323577D01*
X65949776Y-59291948D01*
X66047119Y-59260320D01*
X66138314Y-59213853D01*
X66229511Y-59167387D01*
X66395119Y-59047066D01*
X70760682Y-54681502D01*
X70822003Y-54648019D01*
X70891695Y-54653003D01*
X70947628Y-54694875D01*
X70953354Y-54703212D01*
X70999042Y-54775922D01*
X70999884Y-54777262D01*
X71127438Y-54904816D01*
X71146162Y-54916581D01*
X71257680Y-54986653D01*
X71280178Y-55000789D01*
X71386564Y-55038015D01*
X71450445Y-55060368D01*
X71450450Y-55060369D01*
X71540946Y-55070565D01*
X71584740Y-55075499D01*
X71584743Y-55075500D01*
X71584746Y-55075500D01*
X73374657Y-55075500D01*
X73374658Y-55075499D01*
X73441804Y-55067934D01*
X73508949Y-55060369D01*
X73508952Y-55060368D01*
X73508955Y-55060368D01*
X73679222Y-55000789D01*
X73831962Y-54904816D01*
X73932355Y-54804423D01*
X73993678Y-54770938D01*
X74063370Y-54775922D01*
X74092918Y-54791783D01*
X74154649Y-54836634D01*
X74224518Y-54872234D01*
X74386123Y-54954577D01*
X74386125Y-54954577D01*
X74386128Y-54954579D01*
X74633207Y-55034860D01*
X74752110Y-55053692D01*
X74889798Y-55075500D01*
X74889803Y-55075500D01*
X75149602Y-55075500D01*
X75262998Y-55057539D01*
X75406193Y-55034860D01*
X75653272Y-54954579D01*
X75884751Y-54836634D01*
X76062317Y-54707624D01*
X76074174Y-54703394D01*
X76083689Y-54695150D01*
X76106454Y-54691876D01*
X76128121Y-54684146D01*
X76140385Y-54686997D01*
X76152847Y-54685206D01*
X76173769Y-54694760D01*
X76196175Y-54699971D01*
X76204950Y-54709000D01*
X76216403Y-54714231D01*
X76228839Y-54733582D01*
X76244869Y-54750077D01*
X76248273Y-54763822D01*
X76254177Y-54773009D01*
X76259200Y-54807944D01*
X76259200Y-54986653D01*
X76239515Y-55053692D01*
X76222881Y-55074334D01*
X69509034Y-61788181D01*
X69447711Y-61821666D01*
X69421353Y-61824500D01*
X62668238Y-61824500D01*
X62601199Y-61804815D01*
X62595362Y-61800824D01*
X62533845Y-61756130D01*
X62309383Y-61641760D01*
X62069785Y-61563910D01*
X62069779Y-61563909D01*
X61820962Y-61524500D01*
X61569038Y-61524500D01*
X61444626Y-61544205D01*
X61320214Y-61563910D01*
X61080616Y-61641760D01*
X60856151Y-61756132D01*
X60652350Y-61904201D01*
X60652345Y-61904205D01*
X60474205Y-62082345D01*
X60474201Y-62082350D01*
X60326132Y-62286151D01*
X60211760Y-62510616D01*
X60133910Y-62750214D01*
X60094500Y-62999038D01*
X60094500Y-63250961D01*
X60133910Y-63499785D01*
X60211760Y-63739383D01*
X60326132Y-63963848D01*
X60474201Y-64167649D01*
X60474205Y-64167654D01*
X60652344Y-64345793D01*
X60652350Y-64345798D01*
X60794647Y-64449182D01*
X60856155Y-64493870D01*
X60999184Y-64566747D01*
X61080616Y-64608239D01*
X61080618Y-64608239D01*
X61080621Y-64608241D01*
X61320215Y-64686090D01*
X61569038Y-64725500D01*
X61569039Y-64725500D01*
X61820961Y-64725500D01*
X61820962Y-64725500D01*
X62069785Y-64686090D01*
X62309379Y-64608241D01*
X62533845Y-64493870D01*
X62595353Y-64449181D01*
X62661158Y-64425702D01*
X62668238Y-64425500D01*
X70113751Y-64425500D01*
X70113752Y-64425500D01*
X70315935Y-64393477D01*
X70462690Y-64345793D01*
X70510619Y-64330220D01*
X70601814Y-64283753D01*
X70693011Y-64237287D01*
X70858619Y-64116966D01*
X77521907Y-57453676D01*
X77539398Y-57444126D01*
X77553975Y-57430528D01*
X77569437Y-57427723D01*
X77583228Y-57420193D01*
X77603109Y-57421614D01*
X77622723Y-57418057D01*
X77644724Y-57424590D01*
X77652920Y-57425177D01*
X77656929Y-57426752D01*
X77661485Y-57428634D01*
X77663485Y-57429653D01*
X77754681Y-57476120D01*
X77852023Y-57507748D01*
X77949365Y-57539377D01*
X78151548Y-57571400D01*
X78151549Y-57571400D01*
X82629484Y-57571400D01*
X82696523Y-57591085D01*
X82742278Y-57643889D01*
X82753484Y-57695400D01*
X82753484Y-57719984D01*
X82753484Y-61133828D01*
X87165646Y-61133828D01*
X87165646Y-57695400D01*
X87185331Y-57628361D01*
X87238135Y-57582606D01*
X87289646Y-57571400D01*
X116176451Y-57571400D01*
X116176452Y-57571400D01*
X116378635Y-57539377D01*
X116475976Y-57507748D01*
X116573319Y-57476120D01*
X116664514Y-57429653D01*
X116755711Y-57383187D01*
X116921319Y-57262866D01*
X121728631Y-52455553D01*
X126498071Y-52455553D01*
X130551928Y-52455553D01*
X130551928Y-48969675D01*
X126498071Y-48969675D01*
X126498071Y-52455553D01*
X121728631Y-52455553D01*
X125201259Y-48982924D01*
X125262580Y-48949441D01*
X125269541Y-48948134D01*
X125362403Y-48933426D01*
X125416493Y-48924860D01*
X125663572Y-48844579D01*
X125895051Y-48726634D01*
X126008841Y-48643961D01*
X126015419Y-48639182D01*
X126081225Y-48615702D01*
X126088304Y-48615500D01*
X126232551Y-48615500D01*
X126232552Y-48615500D01*
X126434735Y-48583477D01*
X126532076Y-48551848D01*
X126629419Y-48520220D01*
X126720614Y-48473753D01*
X126811811Y-48427287D01*
X126977419Y-48306966D01*
X128021850Y-47262532D01*
X128021857Y-47262527D01*
X128028917Y-47255467D01*
X128028919Y-47255466D01*
X128173666Y-47110719D01*
X128173668Y-47110715D01*
X128173671Y-47110713D01*
X128264642Y-46985500D01*
X128293987Y-46945110D01*
X128354788Y-46825782D01*
X128386921Y-46762718D01*
X128450177Y-46568034D01*
X128471169Y-46435500D01*
X128473375Y-46421570D01*
X128482200Y-46365856D01*
X128482200Y-43415787D01*
X128482201Y-43415762D01*
X128482201Y-43205950D01*
X128471697Y-43139632D01*
X128450177Y-43003766D01*
X128450176Y-43003762D01*
X128450176Y-43003761D01*
X128386922Y-42809084D01*
X128386921Y-42809081D01*
X128338893Y-42714823D01*
X128293987Y-42626690D01*
X128282782Y-42611268D01*
X128173672Y-42461088D01*
X128173668Y-42461084D01*
X128173666Y-42461081D01*
X128028919Y-42316334D01*
X128028918Y-42316333D01*
X128025807Y-42313222D01*
X128025792Y-42313208D01*
X119152456Y-33439871D01*
X119118971Y-33378548D01*
X119123955Y-33308856D01*
X119165827Y-33252923D01*
X119231291Y-33228506D01*
X119278444Y-33234255D01*
X119286416Y-33236845D01*
X119286421Y-33236849D01*
X119286422Y-33236848D01*
X119310758Y-33244755D01*
X119383765Y-33268477D01*
X119585948Y-33300500D01*
X120065500Y-33300500D01*
X120132539Y-33320185D01*
X120178294Y-33372989D01*
X120189500Y-33424500D01*
X120189500Y-33544960D01*
X120204630Y-33679249D01*
X120204631Y-33679254D01*
X120264211Y-33849523D01*
X120306547Y-33916900D01*
X120360184Y-34002262D01*
X120487738Y-34129816D01*
X120572517Y-34183086D01*
X120613142Y-34208613D01*
X120640478Y-34225789D01*
X120741500Y-34261138D01*
X120810745Y-34285368D01*
X120810750Y-34285369D01*
X120901246Y-34295565D01*
X120945040Y-34300499D01*
X120945043Y-34300500D01*
X120945046Y-34300500D01*
X124034957Y-34300500D01*
X124034958Y-34300499D01*
X124102104Y-34292934D01*
X124169249Y-34285369D01*
X124169252Y-34285368D01*
X124169255Y-34285368D01*
X124339522Y-34225789D01*
X124492262Y-34129816D01*
X124619816Y-34002262D01*
X124715789Y-33849522D01*
X124775368Y-33679255D01*
X124790500Y-33544954D01*
X124790500Y-31359047D01*
X124810185Y-31292008D01*
X124862989Y-31246253D01*
X124932147Y-31236309D01*
X124995703Y-31265334D01*
X125002181Y-31271366D01*
X125262386Y-31531571D01*
X125295871Y-31592894D01*
X125297644Y-31635437D01*
X125269501Y-31849206D01*
X125269500Y-31849223D01*
X125269500Y-32150776D01*
X125269501Y-32150793D01*
X125308861Y-32449766D01*
X125386913Y-32741060D01*
X125502314Y-33019661D01*
X125502318Y-33019671D01*
X125653099Y-33280831D01*
X125836679Y-33520078D01*
X125836685Y-33520085D01*
X126049914Y-33733314D01*
X126049921Y-33733320D01*
X126289168Y-33916900D01*
X126550328Y-34067681D01*
X126550329Y-34067681D01*
X126550332Y-34067683D01*
X126736072Y-34144619D01*
X126828939Y-34183086D01*
X126828940Y-34183086D01*
X126828942Y-34183087D01*
X127120232Y-34261138D01*
X127419217Y-34300500D01*
X127419224Y-34300500D01*
X127720776Y-34300500D01*
X127720783Y-34300500D01*
X128019768Y-34261138D01*
X128311058Y-34183087D01*
X128589668Y-34067683D01*
X128850832Y-33916900D01*
X129090080Y-33733319D01*
X129303319Y-33520080D01*
X129486900Y-33280832D01*
X129637683Y-33019668D01*
X129753087Y-32741058D01*
X129803999Y-32551050D01*
X129840364Y-32491390D01*
X129903211Y-32460861D01*
X129972587Y-32469156D01*
X130026464Y-32513641D01*
X130047739Y-32580193D01*
X130047774Y-32583144D01*
X130047774Y-33635553D01*
X134031928Y-33635553D01*
X134031928Y-30221103D01*
X130047774Y-30221103D01*
X130047774Y-31416855D01*
X130028089Y-31483894D01*
X129975285Y-31529649D01*
X129906127Y-31539593D01*
X129842571Y-31510568D01*
X129804797Y-31451790D01*
X129803999Y-31448949D01*
X129753087Y-31258942D01*
X129637683Y-30980332D01*
X129486900Y-30719168D01*
X129303319Y-30479920D01*
X129303314Y-30479914D01*
X129090085Y-30266685D01*
X129090078Y-30266679D01*
X128850831Y-30083099D01*
X128589671Y-29932318D01*
X128589661Y-29932314D01*
X128311060Y-29816913D01*
X128019766Y-29738861D01*
X127720793Y-29699501D01*
X127720788Y-29699500D01*
X127720783Y-29699500D01*
X127419217Y-29699500D01*
X127419211Y-29699500D01*
X127419206Y-29699501D01*
X127205437Y-29727644D01*
X127136402Y-29716878D01*
X127101571Y-29692386D01*
X125602021Y-28192836D01*
X125602019Y-28192834D01*
X125436411Y-28072513D01*
X125345214Y-28026046D01*
X125345212Y-28026045D01*
X125254023Y-27979581D01*
X125207315Y-27964404D01*
X125156676Y-27947951D01*
X125132803Y-27940194D01*
X125059335Y-27916322D01*
X124884795Y-27888678D01*
X124857152Y-27884300D01*
X35377552Y-27884300D01*
X35172848Y-27884300D01*
X35105453Y-27894974D01*
X34970663Y-27916323D01*
X34873323Y-27947950D01*
X34873323Y-27947951D01*
X34820552Y-27965097D01*
X34775974Y-27979582D01*
X34684784Y-28026045D01*
X34684785Y-28026046D01*
X34593588Y-28072513D01*
X34427978Y-28192836D01*
X33020383Y-29600430D01*
X33020381Y-29600434D01*
X32928427Y-29692387D01*
X32867103Y-29725871D01*
X32824561Y-29727644D01*
X32610793Y-29699501D01*
X32610788Y-29699500D01*
X32610783Y-29699500D01*
X32309217Y-29699500D01*
X32309211Y-29699500D01*
X32309206Y-29699501D01*
X32010233Y-29738861D01*
X31718939Y-29816913D01*
X31440338Y-29932314D01*
X31440328Y-29932318D01*
X31179168Y-30083099D01*
X30939921Y-30266679D01*
X30939914Y-30266685D01*
X30726685Y-30479914D01*
X30726679Y-30479921D01*
X30543099Y-30719168D01*
X30392318Y-30980328D01*
X30392313Y-30980338D01*
X30290489Y-31226165D01*
X30246648Y-31280568D01*
X30180354Y-31302633D01*
X30112654Y-31285354D01*
X30065044Y-31234216D01*
X30051928Y-31178712D01*
X30051928Y-30219984D01*
X26069499Y-30219984D01*
X20500500Y-30219984D01*
X20500500Y-20624500D01*
X20520185Y-20557461D01*
X20572989Y-20511706D01*
X20624500Y-20500500D01*
X140375500Y-20500500D01*
X140442539Y-20520185D01*
G37*
%TD.AperFunction*%
%TA.AperFunction,NonConductor*%
G36*
X91832837Y-34427957D02*
G01*
X91847932Y-34427283D01*
X91865682Y-34437601D01*
X91885379Y-34443385D01*
X91895272Y-34454802D01*
X91908337Y-34462397D01*
X91917691Y-34480675D01*
X91931134Y-34496189D01*
X91933791Y-34512134D01*
X91940168Y-34524595D01*
X91941742Y-34559853D01*
X91934500Y-34633392D01*
X91934500Y-35836608D01*
X91937953Y-35871666D01*
X91949699Y-35990932D01*
X92009769Y-36188958D01*
X92064872Y-36292047D01*
X92079114Y-36360449D01*
X92054114Y-36425693D01*
X91997809Y-36467064D01*
X91955514Y-36474500D01*
X89278747Y-36474500D01*
X89211708Y-36454815D01*
X89165953Y-36402011D01*
X89156009Y-36332853D01*
X89185034Y-36269297D01*
X89191066Y-36262819D01*
X90993866Y-34460019D01*
X91055189Y-34426534D01*
X91081547Y-34423700D01*
X91818340Y-34423700D01*
X91832837Y-34427957D01*
G37*
%TD.AperFunction*%
%TA.AperFunction,NonConductor*%
G36*
X88974592Y-32588285D02*
G01*
X89020347Y-32641089D01*
X89030291Y-32710247D01*
X89001266Y-32773803D01*
X88995234Y-32780281D01*
X83997181Y-37778333D01*
X83981092Y-37787118D01*
X83968021Y-37799974D01*
X83951062Y-37803515D01*
X83935858Y-37811818D01*
X83917571Y-37810510D01*
X83899627Y-37814258D01*
X83883447Y-37808069D01*
X83866166Y-37806834D01*
X83851488Y-37795846D01*
X83834368Y-37789298D01*
X83824102Y-37775344D01*
X83810233Y-37764962D01*
X83803826Y-37747786D01*
X83792962Y-37733019D01*
X83788169Y-37705807D01*
X83785816Y-37699498D01*
X83785747Y-37698470D01*
X83785500Y-37694560D01*
X83785500Y-37637326D01*
X83778547Y-37584518D01*
X83778283Y-37580327D01*
X83785101Y-37550190D01*
X83789862Y-37519660D01*
X83793027Y-37515158D01*
X83793701Y-37512180D01*
X83798307Y-37507649D01*
X83814352Y-37484831D01*
X88694266Y-32604919D01*
X88755589Y-32571434D01*
X88781947Y-32568600D01*
X88907553Y-32568600D01*
X88974592Y-32588285D01*
G37*
%TD.AperFunction*%
%TA.AperFunction,NonConductor*%
G36*
X99636784Y-34443385D02*
G01*
X99682539Y-34496189D01*
X99692483Y-34565347D01*
X99680230Y-34603994D01*
X99671761Y-34620613D01*
X99593910Y-34860214D01*
X99554500Y-35109038D01*
X99554500Y-35360961D01*
X99593910Y-35609785D01*
X99671760Y-35849383D01*
X99722910Y-35949769D01*
X99772613Y-36047317D01*
X99786132Y-36073848D01*
X99934201Y-36277649D01*
X99934205Y-36277654D01*
X100073870Y-36417319D01*
X100107355Y-36478642D01*
X100102371Y-36548334D01*
X100073870Y-36592681D01*
X99934205Y-36732345D01*
X99934201Y-36732350D01*
X99786132Y-36936151D01*
X99671760Y-37160616D01*
X99593910Y-37400214D01*
X99554500Y-37649038D01*
X99554500Y-37900961D01*
X99593910Y-38149785D01*
X99671760Y-38389383D01*
X99786132Y-38613848D01*
X99934176Y-38817615D01*
X99957656Y-38883421D01*
X99941830Y-38951475D01*
X99891724Y-39000170D01*
X99833858Y-39014500D01*
X99155652Y-39014500D01*
X98950948Y-39014500D01*
X98926629Y-39018351D01*
X98748765Y-39046522D01*
X98554076Y-39109781D01*
X98470495Y-39152369D01*
X98401826Y-39165265D01*
X98337085Y-39138989D01*
X98296828Y-39081882D01*
X98290200Y-39041884D01*
X98290200Y-37298048D01*
X98268433Y-37160621D01*
X98258177Y-37095866D01*
X98257372Y-37093390D01*
X98205133Y-36932616D01*
X98196427Y-36905820D01*
X98195365Y-36902054D01*
X98115289Y-36744896D01*
X98101987Y-36718789D01*
X97981666Y-36553181D01*
X96063866Y-34635381D01*
X96030381Y-34574058D01*
X96035365Y-34504366D01*
X96077237Y-34448433D01*
X96142701Y-34424016D01*
X96151547Y-34423700D01*
X99569745Y-34423700D01*
X99636784Y-34443385D01*
G37*
%TD.AperFunction*%
%TA.AperFunction,NonConductor*%
G36*
X116473592Y-34443385D02*
G01*
X116494234Y-34460019D01*
X120744223Y-38710008D01*
X124947035Y-42912819D01*
X124980520Y-42974142D01*
X124975536Y-43043834D01*
X124933664Y-43099767D01*
X124868200Y-43124184D01*
X124859354Y-43124500D01*
X124135039Y-43124500D01*
X124000750Y-43139630D01*
X124000745Y-43139631D01*
X123830476Y-43199211D01*
X123677739Y-43295183D01*
X123545384Y-43427538D01*
X123484061Y-43461022D01*
X123414369Y-43456038D01*
X123370022Y-43427537D01*
X116725521Y-36783036D01*
X116725519Y-36783034D01*
X116559911Y-36662713D01*
X116550110Y-36657719D01*
X116473272Y-36618568D01*
X116473267Y-36618566D01*
X116468714Y-36616246D01*
X116377519Y-36569780D01*
X116268695Y-36534421D01*
X116264308Y-36532995D01*
X116264297Y-36532991D01*
X116182832Y-36506522D01*
X116006803Y-36478642D01*
X115980652Y-36474500D01*
X115980651Y-36474500D01*
X103276142Y-36474500D01*
X103209103Y-36454815D01*
X103163348Y-36402011D01*
X103153404Y-36332853D01*
X103175824Y-36277615D01*
X103264103Y-36156106D01*
X103323870Y-36073845D01*
X103438241Y-35849379D01*
X103516090Y-35609785D01*
X103555500Y-35360962D01*
X103555500Y-35109038D01*
X103516090Y-34860215D01*
X103438241Y-34620621D01*
X103438239Y-34620618D01*
X103438238Y-34620613D01*
X103429770Y-34603994D01*
X103416874Y-34535325D01*
X103443151Y-34470584D01*
X103500258Y-34430328D01*
X103540255Y-34423700D01*
X116406553Y-34423700D01*
X116473592Y-34443385D01*
G37*
%TD.AperFunction*%
%TA.AperFunction,NonConductor*%
G36*
X86903192Y-30504985D02*
G01*
X86948947Y-30557789D01*
X86958891Y-30626947D01*
X86929866Y-30690503D01*
X86923834Y-30696981D01*
X81975170Y-35645643D01*
X81913847Y-35679128D01*
X81871306Y-35680902D01*
X81857829Y-35679128D01*
X81822674Y-35674500D01*
X81547326Y-35674500D01*
X81547320Y-35674500D01*
X81547315Y-35674501D01*
X81274344Y-35710438D01*
X81274337Y-35710439D01*
X81274334Y-35710440D01*
X81218125Y-35725500D01*
X81008369Y-35781704D01*
X80753982Y-35887075D01*
X80753971Y-35887080D01*
X80515516Y-36024754D01*
X80297073Y-36192370D01*
X80297066Y-36192376D01*
X80102376Y-36387066D01*
X80102370Y-36387073D01*
X79934754Y-36605516D01*
X79797080Y-36843971D01*
X79797075Y-36843982D01*
X79691704Y-37098369D01*
X79620441Y-37364331D01*
X79620438Y-37364344D01*
X79584501Y-37637315D01*
X79584500Y-37637332D01*
X79584500Y-37912667D01*
X79584501Y-37912684D01*
X79620438Y-38185655D01*
X79620439Y-38185660D01*
X79620440Y-38185666D01*
X79620441Y-38185668D01*
X79691704Y-38451630D01*
X79797081Y-38706032D01*
X79797520Y-38706922D01*
X79797570Y-38707214D01*
X79798630Y-38709771D01*
X79798057Y-38710008D01*
X79809511Y-38775755D01*
X79782385Y-38840144D01*
X79724753Y-38879645D01*
X79654915Y-38881718D01*
X79598623Y-38849438D01*
X78814355Y-38065170D01*
X78780870Y-38003847D01*
X78779097Y-37961307D01*
X78785500Y-37912674D01*
X78785500Y-37637326D01*
X78749560Y-37364334D01*
X78678295Y-37098368D01*
X78572923Y-36843979D01*
X78572921Y-36843976D01*
X78572919Y-36843971D01*
X78500804Y-36719066D01*
X78435249Y-36605521D01*
X78267628Y-36387072D01*
X78267623Y-36387066D01*
X78072933Y-36192376D01*
X78072926Y-36192370D01*
X77854483Y-36024754D01*
X77854482Y-36024753D01*
X77854479Y-36024751D01*
X77724605Y-35949768D01*
X77616028Y-35887080D01*
X77616017Y-35887075D01*
X77361630Y-35781704D01*
X77228649Y-35746072D01*
X77095666Y-35710440D01*
X77095660Y-35710439D01*
X77095655Y-35710438D01*
X76822684Y-35674501D01*
X76822679Y-35674500D01*
X76822674Y-35674500D01*
X76547326Y-35674500D01*
X76524174Y-35677547D01*
X76498691Y-35680902D01*
X76429656Y-35670134D01*
X76394828Y-35645643D01*
X75078121Y-34328936D01*
X75078119Y-34328934D01*
X74964501Y-34246386D01*
X74912509Y-34208611D01*
X74757862Y-34129816D01*
X74757860Y-34129815D01*
X74730124Y-34115682D01*
X74730121Y-34115681D01*
X74730119Y-34115680D01*
X74632776Y-34084051D01*
X74608903Y-34076294D01*
X74535435Y-34052422D01*
X74360895Y-34024778D01*
X74333252Y-34020400D01*
X74333251Y-34020400D01*
X56936587Y-34020400D01*
X56936563Y-34020399D01*
X56931452Y-34020399D01*
X56726749Y-34020399D01*
X56659354Y-34031073D01*
X56524564Y-34052423D01*
X56524561Y-34052423D01*
X56329884Y-34115677D01*
X56329881Y-34115678D01*
X56147490Y-34208612D01*
X55981881Y-34328933D01*
X54472632Y-35838181D01*
X54411309Y-35871666D01*
X54384951Y-35874500D01*
X53473395Y-35874500D01*
X53319067Y-35889699D01*
X53121042Y-35949769D01*
X52938545Y-36047317D01*
X52778589Y-36178589D01*
X52647317Y-36338545D01*
X52549769Y-36521042D01*
X52549768Y-36521044D01*
X52549768Y-36521045D01*
X52542898Y-36543691D01*
X52489699Y-36719066D01*
X52474500Y-36873394D01*
X52474500Y-38676604D01*
X52489699Y-38830932D01*
X52489700Y-38830935D01*
X52549768Y-39028955D01*
X52642644Y-39202713D01*
X52647317Y-39211454D01*
X52778589Y-39371410D01*
X52938545Y-39502682D01*
X52938549Y-39502685D01*
X53121045Y-39600232D01*
X53319065Y-39660300D01*
X53319064Y-39660300D01*
X53329968Y-39661373D01*
X53473391Y-39675500D01*
X55276608Y-39675499D01*
X55430935Y-39660300D01*
X55628955Y-39600232D01*
X55811451Y-39502685D01*
X55971410Y-39371410D01*
X56102685Y-39211451D01*
X56200232Y-39028955D01*
X56260300Y-38830935D01*
X56275500Y-38676609D01*
X56275499Y-37765045D01*
X56295183Y-37698007D01*
X56311813Y-37677370D01*
X57331466Y-36657719D01*
X57392789Y-36624234D01*
X57419147Y-36621400D01*
X62791748Y-36621400D01*
X62858787Y-36641085D01*
X62904542Y-36693889D01*
X62914486Y-36763047D01*
X62899135Y-36807399D01*
X62826841Y-36932616D01*
X62826830Y-36932638D01*
X62731498Y-37162792D01*
X62667017Y-37403438D01*
X62634501Y-37650424D01*
X62634500Y-37650441D01*
X62634500Y-37899558D01*
X62634501Y-37899575D01*
X62667017Y-38146561D01*
X62731498Y-38387207D01*
X62826830Y-38617361D01*
X62826837Y-38617376D01*
X62951400Y-38833126D01*
X63103059Y-39030773D01*
X63103061Y-39030775D01*
X63103062Y-39030776D01*
X63198182Y-39125896D01*
X63231666Y-39187217D01*
X63234500Y-39213576D01*
X63234500Y-39779653D01*
X63214815Y-39846692D01*
X63198181Y-39867334D01*
X58717334Y-44348181D01*
X58656011Y-44381666D01*
X58629653Y-44384500D01*
X46920347Y-44384500D01*
X46853308Y-44364815D01*
X46832666Y-44348181D01*
X41895038Y-39410553D01*
X47665927Y-39410553D01*
X51862642Y-39410553D01*
X51862642Y-35994984D01*
X47665927Y-35994984D01*
X47665927Y-39410553D01*
X41895038Y-39410553D01*
X36996666Y-34512181D01*
X36963181Y-34450858D01*
X36968165Y-34381166D01*
X37010037Y-34325233D01*
X37075501Y-34300816D01*
X37084347Y-34300500D01*
X39084957Y-34300500D01*
X39084958Y-34300499D01*
X39152104Y-34292934D01*
X39219249Y-34285369D01*
X39219252Y-34285368D01*
X39219255Y-34285368D01*
X39389522Y-34225789D01*
X39542262Y-34129816D01*
X39669816Y-34002262D01*
X39765789Y-33849522D01*
X39825368Y-33679255D01*
X39840500Y-33544954D01*
X39840500Y-30609300D01*
X39860185Y-30542261D01*
X39912989Y-30496506D01*
X39964500Y-30485300D01*
X86836153Y-30485300D01*
X86903192Y-30504985D01*
G37*
%TD.AperFunction*%
%TA.AperFunction,NonConductor*%
G36*
X73707892Y-36641085D02*
G01*
X73728534Y-36657719D01*
X74555643Y-37484828D01*
X74589128Y-37546151D01*
X74590902Y-37588691D01*
X74584502Y-37637315D01*
X74584500Y-37637329D01*
X74584500Y-37912667D01*
X74584501Y-37912684D01*
X74620438Y-38185655D01*
X74620439Y-38185660D01*
X74620440Y-38185666D01*
X74620441Y-38185668D01*
X74691704Y-38451630D01*
X74797075Y-38706017D01*
X74797080Y-38706028D01*
X74869195Y-38830933D01*
X74934751Y-38944479D01*
X74934753Y-38944482D01*
X74934754Y-38944483D01*
X75102370Y-39162926D01*
X75102376Y-39162933D01*
X75297066Y-39357623D01*
X75297073Y-39357629D01*
X75425225Y-39455963D01*
X75515521Y-39525249D01*
X75645392Y-39600230D01*
X75753971Y-39662919D01*
X75753976Y-39662921D01*
X75753979Y-39662923D01*
X76008368Y-39768295D01*
X76274334Y-39839560D01*
X76547326Y-39875500D01*
X76547333Y-39875500D01*
X76822667Y-39875500D01*
X76822674Y-39875500D01*
X76871305Y-39869097D01*
X76940337Y-39879862D01*
X76975170Y-39904355D01*
X78470781Y-41399966D01*
X78636389Y-41520287D01*
X78666822Y-41535793D01*
X78818781Y-41613220D01*
X78818783Y-41613220D01*
X78818786Y-41613222D01*
X78818784Y-41613222D01*
X78895590Y-41638177D01*
X78895591Y-41638177D01*
X79013465Y-41676477D01*
X79215648Y-41708500D01*
X82445453Y-41708500D01*
X82512492Y-41728185D01*
X82558247Y-41780989D01*
X82568191Y-41850147D01*
X82539166Y-41913703D01*
X82533134Y-41920181D01*
X81806834Y-42646481D01*
X81745511Y-42679966D01*
X81719153Y-42682800D01*
X74187251Y-42682800D01*
X73982548Y-42682800D01*
X73915153Y-42693474D01*
X73780363Y-42714823D01*
X73683023Y-42746450D01*
X73683023Y-42746451D01*
X73630252Y-42763597D01*
X73585674Y-42778082D01*
X73494484Y-42824545D01*
X73494485Y-42824546D01*
X73403288Y-42871013D01*
X73237678Y-42991336D01*
X63114134Y-53114881D01*
X63052811Y-53148366D01*
X63026453Y-53151200D01*
X60797363Y-53151200D01*
X60730324Y-53131515D01*
X60684569Y-53078711D01*
X60674625Y-53009553D01*
X60686878Y-52970906D01*
X60702938Y-52939386D01*
X60702938Y-52939382D01*
X60702941Y-52939379D01*
X60780790Y-52699785D01*
X60820200Y-52450962D01*
X60820200Y-52199038D01*
X60780790Y-51950215D01*
X60702941Y-51710621D01*
X60702939Y-51710618D01*
X60702939Y-51710616D01*
X60653027Y-51612659D01*
X60588570Y-51486155D01*
X60581946Y-51477038D01*
X60543882Y-51424646D01*
X60520402Y-51358840D01*
X60520200Y-51351761D01*
X60520200Y-46275047D01*
X60539885Y-46208008D01*
X60556519Y-46187366D01*
X63034117Y-43709768D01*
X65526966Y-41216919D01*
X65526968Y-41216915D01*
X65526971Y-41216913D01*
X65579732Y-41144290D01*
X65647287Y-41051310D01*
X65740220Y-40868919D01*
X65803477Y-40674234D01*
X65835500Y-40472052D01*
X65835500Y-39213576D01*
X65855185Y-39146537D01*
X65871814Y-39125899D01*
X65966938Y-39030776D01*
X66118599Y-38833127D01*
X66243164Y-38617373D01*
X66338502Y-38387207D01*
X66402982Y-38146565D01*
X66435500Y-37899565D01*
X66435500Y-37650435D01*
X66402982Y-37403435D01*
X66338502Y-37162793D01*
X66284253Y-37031825D01*
X66243169Y-36932638D01*
X66243166Y-36932632D01*
X66243164Y-36932627D01*
X66243158Y-36932616D01*
X66170865Y-36807399D01*
X66154392Y-36739499D01*
X66177245Y-36673472D01*
X66232166Y-36630282D01*
X66278252Y-36621400D01*
X73640853Y-36621400D01*
X73707892Y-36641085D01*
G37*
%TD.AperFunction*%
%TA.AperFunction,NonConductor*%
G36*
X92280897Y-39095185D02*
G01*
X92326652Y-39147989D01*
X92336596Y-39217147D01*
X92314176Y-39272385D01*
X92166132Y-39476151D01*
X92051760Y-39700616D01*
X91973910Y-39940214D01*
X91934500Y-40189038D01*
X91934500Y-40440961D01*
X91973910Y-40689785D01*
X92051760Y-40929383D01*
X92166132Y-41153848D01*
X92314201Y-41357649D01*
X92314205Y-41357654D01*
X92492344Y-41535793D01*
X92492350Y-41535798D01*
X92598913Y-41613220D01*
X92696155Y-41683870D01*
X92839184Y-41756747D01*
X92920616Y-41798239D01*
X92920618Y-41798239D01*
X92920621Y-41798241D01*
X93160215Y-41876090D01*
X93409038Y-41915500D01*
X93409039Y-41915500D01*
X94460961Y-41915500D01*
X94460962Y-41915500D01*
X94709785Y-41876090D01*
X94949379Y-41798241D01*
X95173845Y-41683870D01*
X95377656Y-41535793D01*
X95477519Y-41435930D01*
X95538842Y-41402445D01*
X95608534Y-41407429D01*
X95664467Y-41449301D01*
X95688884Y-41514765D01*
X95689200Y-41523611D01*
X95689200Y-51351761D01*
X95669515Y-51418800D01*
X95665518Y-51424646D01*
X95620832Y-51486151D01*
X95506460Y-51710616D01*
X95428610Y-51950214D01*
X95389200Y-52199038D01*
X95389200Y-52450962D01*
X95410414Y-52584898D01*
X95428610Y-52699785D01*
X95506460Y-52939383D01*
X95530318Y-52986205D01*
X95543214Y-53054874D01*
X95516938Y-53119615D01*
X95459831Y-53159872D01*
X95419833Y-53166500D01*
X90939567Y-53166500D01*
X90872528Y-53146815D01*
X90826773Y-53094011D01*
X90816829Y-53024853D01*
X90829082Y-52986205D01*
X90852939Y-52939383D01*
X90852939Y-52939382D01*
X90852941Y-52939379D01*
X90930790Y-52699785D01*
X90970200Y-52450962D01*
X90970200Y-52199038D01*
X90930790Y-51950215D01*
X90852941Y-51710621D01*
X90852939Y-51710618D01*
X90852939Y-51710616D01*
X90803027Y-51612659D01*
X90738570Y-51486155D01*
X90654939Y-51371046D01*
X90590498Y-51282350D01*
X90590494Y-51282345D01*
X90412354Y-51104205D01*
X90412349Y-51104201D01*
X90208548Y-50956132D01*
X90208547Y-50956131D01*
X90208545Y-50956130D01*
X89984079Y-50841759D01*
X89854844Y-50799768D01*
X89744483Y-50763909D01*
X89669389Y-50752015D01*
X89636989Y-50736655D01*
X91045627Y-50736655D01*
X95242342Y-50736655D01*
X95242342Y-47319984D01*
X91045627Y-47319984D01*
X91045627Y-50736655D01*
X89636989Y-50736655D01*
X89606255Y-50722085D01*
X89601108Y-50717223D01*
X87063521Y-48179636D01*
X87063519Y-48179634D01*
X86897911Y-48059313D01*
X86794475Y-48006610D01*
X86715523Y-47966381D01*
X86668815Y-47951204D01*
X86618176Y-47934751D01*
X86594303Y-47926994D01*
X86520835Y-47903122D01*
X86346295Y-47875478D01*
X86318652Y-47871100D01*
X86318651Y-47871100D01*
X72335647Y-47871100D01*
X72268608Y-47851415D01*
X72222853Y-47798611D01*
X72212909Y-47729453D01*
X72241934Y-47665897D01*
X72247966Y-47659419D01*
X73211832Y-46695553D01*
X87090213Y-46695553D01*
X91360082Y-46695553D01*
X91360082Y-43279984D01*
X87090213Y-43279984D01*
X87090213Y-46695553D01*
X73211832Y-46695553D01*
X74587266Y-45320119D01*
X74648589Y-45286634D01*
X74674947Y-45283800D01*
X82411551Y-45283800D01*
X82411552Y-45283800D01*
X82613735Y-45251777D01*
X82711076Y-45220148D01*
X82808419Y-45188520D01*
X82899614Y-45142053D01*
X82990811Y-45095587D01*
X83156419Y-44975266D01*
X89019866Y-39111819D01*
X89081189Y-39078334D01*
X89107547Y-39075500D01*
X92213858Y-39075500D01*
X92280897Y-39095185D01*
G37*
%TD.AperFunction*%
%TA.AperFunction,NonConductor*%
G36*
X39935992Y-46105185D02*
G01*
X39956634Y-46121819D01*
X48576034Y-54741219D01*
X48609519Y-54802542D01*
X48604535Y-54872234D01*
X48562663Y-54928167D01*
X48497199Y-54952584D01*
X48488353Y-54952900D01*
X46670147Y-54952900D01*
X46603108Y-54933215D01*
X46582466Y-54916581D01*
X37998921Y-46333036D01*
X37998915Y-46333031D01*
X37966965Y-46309818D01*
X37924299Y-46254488D01*
X37918320Y-46184875D01*
X37950926Y-46123080D01*
X38011764Y-46088723D01*
X38039850Y-46085500D01*
X39868953Y-46085500D01*
X39935992Y-46105185D01*
G37*
%TD.AperFunction*%
%TA.AperFunction,NonConductor*%
G36*
X115355292Y-39095185D02*
G01*
X115375934Y-39111819D01*
X122031081Y-45766966D01*
X122196689Y-45887287D01*
X122287885Y-45933753D01*
X122379081Y-45980220D01*
X122476423Y-46011848D01*
X122573765Y-46043477D01*
X122775948Y-46075500D01*
X122980652Y-46075500D01*
X123449190Y-46075500D01*
X123479158Y-46084299D01*
X123509624Y-46091224D01*
X123513270Y-46094316D01*
X123516229Y-46095185D01*
X123537681Y-46112636D01*
X123546886Y-46122013D01*
X123550184Y-46127262D01*
X123651012Y-46228090D01*
X123651386Y-46228471D01*
X123667611Y-46258851D01*
X123684061Y-46288977D01*
X123684018Y-46289572D01*
X123684301Y-46290102D01*
X123681527Y-46324409D01*
X123679077Y-46358669D01*
X123678700Y-46359370D01*
X123678670Y-46359745D01*
X123678094Y-46360498D01*
X123663214Y-46388219D01*
X123618367Y-46449946D01*
X123500422Y-46681423D01*
X123420139Y-46928506D01*
X123396865Y-47075457D01*
X123366936Y-47138592D01*
X123362073Y-47143740D01*
X115571734Y-54934081D01*
X115510411Y-54967566D01*
X115484053Y-54970400D01*
X99476246Y-54970400D01*
X99409207Y-54950715D01*
X99363452Y-54897911D01*
X99353508Y-54828753D01*
X99382533Y-54765197D01*
X99388565Y-54758719D01*
X99522762Y-54624522D01*
X99971750Y-54175532D01*
X99971757Y-54175527D01*
X99978817Y-54168467D01*
X99978819Y-54168466D01*
X100123566Y-54023719D01*
X100123568Y-54023715D01*
X100123571Y-54023713D01*
X100243886Y-53858111D01*
X100269298Y-53808240D01*
X100336821Y-53675718D01*
X100336822Y-53675715D01*
X100376076Y-53554902D01*
X100400077Y-53481034D01*
X100432100Y-53278851D01*
X100432100Y-53074148D01*
X100432100Y-48227348D01*
X100419698Y-48149048D01*
X100400077Y-48025165D01*
X100359869Y-47901418D01*
X100353800Y-47863100D01*
X100353800Y-41905400D01*
X100373485Y-41838361D01*
X100426289Y-41792606D01*
X100495447Y-41782662D01*
X100534098Y-41794917D01*
X100540621Y-41798241D01*
X100780215Y-41876090D01*
X101029038Y-41915500D01*
X101029039Y-41915500D01*
X102080961Y-41915500D01*
X102080962Y-41915500D01*
X102329785Y-41876090D01*
X102569379Y-41798241D01*
X102793845Y-41683870D01*
X102997656Y-41535793D01*
X103175793Y-41357656D01*
X103323870Y-41153845D01*
X103438241Y-40929379D01*
X103516090Y-40689785D01*
X103555500Y-40440962D01*
X103555500Y-40189038D01*
X103516090Y-39940215D01*
X103438241Y-39700621D01*
X103438239Y-39700618D01*
X103438239Y-39700616D01*
X103387089Y-39600230D01*
X103323870Y-39476155D01*
X103309200Y-39455963D01*
X103175824Y-39272385D01*
X103152344Y-39206579D01*
X103168170Y-39138525D01*
X103218276Y-39089830D01*
X103276142Y-39075500D01*
X115288253Y-39075500D01*
X115355292Y-39095185D01*
G37*
%TD.AperFunction*%
%TA.AperFunction,NonConductor*%
G36*
X83494092Y-52293485D02*
G01*
X83514734Y-52310119D01*
X85963334Y-54758719D01*
X85996819Y-54820042D01*
X85991835Y-54889734D01*
X85949963Y-54945667D01*
X85884499Y-54970084D01*
X85875653Y-54970400D01*
X78984200Y-54970400D01*
X78917161Y-54950715D01*
X78871406Y-54897911D01*
X78860200Y-54846400D01*
X78860200Y-54483303D01*
X78879885Y-54416264D01*
X78883864Y-54410442D01*
X78971334Y-54290051D01*
X79089279Y-54058572D01*
X79169560Y-53811493D01*
X79192239Y-53668298D01*
X79210200Y-53554902D01*
X79210200Y-52995097D01*
X79188647Y-52859021D01*
X79169560Y-52738507D01*
X79089279Y-52491428D01*
X79070255Y-52454092D01*
X79057360Y-52385426D01*
X79083636Y-52320685D01*
X79140743Y-52280428D01*
X79180741Y-52273800D01*
X83427053Y-52273800D01*
X83494092Y-52293485D01*
G37*
%TD.AperFunction*%
M02*
