%TF.GenerationSoftware,KiCad,Pcbnew,9.0.6*%
%TF.CreationDate,2026-06-10T07:38:46+02:00*%
%TF.ProjectId,buck,6275636b-2e6b-4696-9361-645f70636258,rev?*%
%TF.SameCoordinates,Original*%
%TF.FileFunction,Copper,L1,Top*%
%TF.FilePolarity,Positive*%
%FSLAX46Y46*%
G04 Gerber Fmt 4.6, Leading zero omitted, Abs format (unit mm)*
G04 Created by KiCad (PCBNEW 9.0.6) date 2026-06-10 07:38:46*
%MOMM*%
%LPD*%
G01*
G04 APERTURE LIST*
G04 Aperture macros list*
%AMRoundRect*
0 Rectangle with rounded corners*
0 $1 Rounding radius*
0 $2 $3 $4 $5 $6 $7 $8 $9 X,Y pos of 4 corners*
0 Add a 4 corners polygon primitive as box body*
4,1,4,$2,$3,$4,$5,$6,$7,$8,$9,$2,$3,0*
0 Add four circle primitives for the rounded corners*
1,1,$1+$1,$2,$3*
1,1,$1+$1,$4,$5*
1,1,$1+$1,$6,$7*
1,1,$1+$1,$8,$9*
0 Add four rect primitives between the rounded corners*
20,1,$1+$1,$2,$3,$4,$5,0*
20,1,$1+$1,$4,$5,$6,$7,0*
20,1,$1+$1,$6,$7,$8,$9,0*
20,1,$1+$1,$8,$9,$2,$3,0*%
G04 Aperture macros list end*
%TA.AperFunction,ComponentPad*%
%ADD10R,1.700000X1.700000*%
%TD*%
%TA.AperFunction,ComponentPad*%
%ADD11C,1.700000*%
%TD*%
%TA.AperFunction,ComponentPad*%
%ADD12R,1.700000X2.000000*%
%TD*%
%TA.AperFunction,ComponentPad*%
%ADD13O,1.700000X2.000000*%
%TD*%
%TA.AperFunction,ComponentPad*%
%ADD14RoundRect,0.250000X-0.550000X-0.550000X0.550000X-0.550000X0.550000X0.550000X-0.550000X0.550000X0*%
%TD*%
%TA.AperFunction,ComponentPad*%
%ADD15C,1.600000*%
%TD*%
%TA.AperFunction,ComponentPad*%
%ADD16C,2.600000*%
%TD*%
%TA.AperFunction,ComponentPad*%
%ADD17R,3.000000X3.000000*%
%TD*%
%TA.AperFunction,ComponentPad*%
%ADD18C,3.000000*%
%TD*%
%TA.AperFunction,ComponentPad*%
%ADD19RoundRect,0.249999X-0.850001X-0.850001X0.850001X-0.850001X0.850001X0.850001X-0.850001X0.850001X0*%
%TD*%
%TA.AperFunction,ComponentPad*%
%ADD20C,2.200000*%
%TD*%
%TA.AperFunction,ComponentPad*%
%ADD21RoundRect,0.250000X-0.950000X-0.550000X0.950000X-0.550000X0.950000X0.550000X-0.950000X0.550000X0*%
%TD*%
%TA.AperFunction,ComponentPad*%
%ADD22O,2.400000X1.600000*%
%TD*%
%TA.AperFunction,Conductor*%
%ADD23C,1.000000*%
%TD*%
G04 APERTURE END LIST*
D10*
%TO.P,J3,1*%
%TO.N,PWM*%
X35000000Y-47325000D03*
D11*
%TO.P,J3,2*%
%TO.N,GND_MCU*%
X35000000Y-44785000D03*
%TD*%
D12*
%TO.P,M1,1*%
%TO.N,GATE*%
X72479700Y-53275000D03*
D13*
%TO.P,M1,2*%
%TO.N,/VIN_15V*%
X75019700Y-53275000D03*
%TO.P,M1,3*%
%TO.N,/SW*%
X77559700Y-53275000D03*
%TD*%
D10*
%TO.P,J4,1*%
%TO.N,+12V_SW*%
X125030000Y-44775000D03*
D11*
%TO.P,J4,2*%
%TO.N,/SW*%
X125030000Y-47315000D03*
%TD*%
D14*
%TO.P,C1,1*%
%TO.N,/VOUT_5V*%
X55719700Y-52325000D03*
D15*
%TO.P,C1,2*%
%TO.N,/GND*%
X59219700Y-52325000D03*
%TD*%
%TO.P,R1,1*%
%TO.N,PWM*%
X89369700Y-52325000D03*
%TO.P,R1,2*%
%TO.N,Net-(R1-Pad2)*%
X96989700Y-52325000D03*
%TD*%
D16*
%TO.P,L1,1*%
%TO.N,/SW*%
X76685000Y-37775000D03*
%TO.P,L1,2*%
%TO.N,/VOUT_5V*%
X81685000Y-37775000D03*
%TD*%
D15*
%TO.P,R2,1*%
%TO.N,GATE*%
X54075000Y-63125000D03*
%TO.P,R2,2*%
%TO.N,/SW*%
X61695000Y-63125000D03*
%TD*%
D17*
%TO.P,J2,1*%
%TO.N,/VOUT_5V*%
X122490000Y-32000000D03*
D18*
%TO.P,J2,2*%
%TO.N,/GND*%
X127570000Y-32000000D03*
%TD*%
D17*
%TO.P,J1,1*%
%TO.N,/VIN_15V*%
X37540000Y-32000000D03*
D18*
%TO.P,J1,2*%
%TO.N,/GND*%
X32460000Y-32000000D03*
%TD*%
D19*
%TO.P,D1,1*%
%TO.N,/SW*%
X54375000Y-37775000D03*
D20*
%TO.P,D1,2*%
%TO.N,/GND*%
X64535000Y-37775000D03*
%TD*%
D21*
%TO.P,U1,1*%
%TO.N,Net-(R1-Pad2)*%
X93935000Y-35235000D03*
D22*
%TO.P,U1,2*%
%TO.N,GND_MCU*%
X93935000Y-37775000D03*
%TO.P,U1,3*%
%TO.N,N/C*%
X93935000Y-40315000D03*
%TO.P,U1,4*%
%TO.N,GATE*%
X101555000Y-40315000D03*
%TO.P,U1,5*%
%TO.N,+12V_SW*%
X101555000Y-37775000D03*
%TO.P,U1,6*%
%TO.N,N/C*%
X101555000Y-35235000D03*
%TD*%
D23*
%TO.N,/GND*%
X59219700Y-43090300D02*
X59219700Y-52325000D01*
X64535000Y-37775000D02*
X59219700Y-43090300D01*
%TO.N,/SW*%
X77559700Y-38649700D02*
X76685000Y-37775000D01*
X77559700Y-53275000D02*
X77559700Y-38649700D01*
%TD*%
%TA.AperFunction,NonConductor*%
G36*
X140442539Y-20520185D02*
G01*
X140488294Y-20572989D01*
X140499500Y-20624500D01*
X140499500Y-75375500D01*
X140479815Y-75442539D01*
X140427011Y-75488294D01*
X140375500Y-75499500D01*
X20624500Y-75499500D01*
X20557461Y-75479815D01*
X20511706Y-75427011D01*
X20500500Y-75375500D01*
X20500500Y-62999038D01*
X52474500Y-62999038D01*
X52474500Y-63250961D01*
X52513910Y-63499785D01*
X52591760Y-63739383D01*
X52706132Y-63963848D01*
X52854201Y-64167649D01*
X52854205Y-64167654D01*
X53032345Y-64345794D01*
X53032350Y-64345798D01*
X53210117Y-64474952D01*
X53236155Y-64493870D01*
X53379184Y-64566747D01*
X53460616Y-64608239D01*
X53460618Y-64608239D01*
X53460621Y-64608241D01*
X53700215Y-64686090D01*
X53949038Y-64725500D01*
X53949039Y-64725500D01*
X54200961Y-64725500D01*
X54200962Y-64725500D01*
X54449785Y-64686090D01*
X54689379Y-64608241D01*
X54913845Y-64493870D01*
X55117656Y-64345793D01*
X55295793Y-64167656D01*
X55443870Y-63963845D01*
X55558241Y-63739379D01*
X55636090Y-63499785D01*
X55675500Y-63250962D01*
X55675500Y-62999038D01*
X60094500Y-62999038D01*
X60094500Y-63250961D01*
X60133910Y-63499785D01*
X60211760Y-63739383D01*
X60326132Y-63963848D01*
X60474201Y-64167649D01*
X60474205Y-64167654D01*
X60652345Y-64345794D01*
X60652350Y-64345798D01*
X60830117Y-64474952D01*
X60856155Y-64493870D01*
X60999184Y-64566747D01*
X61080616Y-64608239D01*
X61080618Y-64608239D01*
X61080621Y-64608241D01*
X61320215Y-64686090D01*
X61569038Y-64725500D01*
X61569039Y-64725500D01*
X61820961Y-64725500D01*
X61820962Y-64725500D01*
X62069785Y-64686090D01*
X62309379Y-64608241D01*
X62533845Y-64493870D01*
X62737656Y-64345793D01*
X62915793Y-64167656D01*
X63063870Y-63963845D01*
X63178241Y-63739379D01*
X63256090Y-63499785D01*
X63295500Y-63250962D01*
X63295500Y-62999038D01*
X63256090Y-62750215D01*
X63178241Y-62510621D01*
X63178239Y-62510618D01*
X63178239Y-62510616D01*
X63136747Y-62429184D01*
X63063870Y-62286155D01*
X63044952Y-62260117D01*
X62915798Y-62082350D01*
X62915794Y-62082345D01*
X62737654Y-61904205D01*
X62737649Y-61904201D01*
X62533848Y-61756132D01*
X62533847Y-61756131D01*
X62533845Y-61756130D01*
X62463747Y-61720413D01*
X62309383Y-61641760D01*
X62069785Y-61563910D01*
X61820962Y-61524500D01*
X61569038Y-61524500D01*
X61444626Y-61544205D01*
X61320214Y-61563910D01*
X61080616Y-61641760D01*
X60856151Y-61756132D01*
X60652350Y-61904201D01*
X60652345Y-61904205D01*
X60474205Y-62082345D01*
X60474201Y-62082350D01*
X60326132Y-62286151D01*
X60211760Y-62510616D01*
X60133910Y-62750214D01*
X60094500Y-62999038D01*
X55675500Y-62999038D01*
X55636090Y-62750215D01*
X55558241Y-62510621D01*
X55558239Y-62510618D01*
X55558239Y-62510616D01*
X55516747Y-62429184D01*
X55443870Y-62286155D01*
X55424952Y-62260117D01*
X55295798Y-62082350D01*
X55295794Y-62082345D01*
X55117654Y-61904205D01*
X55117649Y-61904201D01*
X54913848Y-61756132D01*
X54913847Y-61756131D01*
X54913845Y-61756130D01*
X54843747Y-61720413D01*
X54689383Y-61641760D01*
X54449785Y-61563910D01*
X54200962Y-61524500D01*
X53949038Y-61524500D01*
X53824626Y-61544205D01*
X53700214Y-61563910D01*
X53460616Y-61641760D01*
X53236151Y-61756132D01*
X53032350Y-61904201D01*
X53032345Y-61904205D01*
X52854205Y-62082345D01*
X52854201Y-62082350D01*
X52706132Y-62286151D01*
X52591760Y-62510616D01*
X52513910Y-62750214D01*
X52474500Y-62999038D01*
X20500500Y-62999038D01*
X20500500Y-51723392D01*
X54119200Y-51723392D01*
X54119200Y-52926608D01*
X54124202Y-52977398D01*
X54134399Y-53080932D01*
X54134400Y-53080934D01*
X54194468Y-53278954D01*
X54292015Y-53461450D01*
X54292017Y-53461452D01*
X54423289Y-53621410D01*
X54511580Y-53693867D01*
X54583250Y-53752685D01*
X54765746Y-53850232D01*
X54963766Y-53910300D01*
X54963765Y-53910300D01*
X55002347Y-53914100D01*
X55118092Y-53925500D01*
X55118095Y-53925500D01*
X56321305Y-53925500D01*
X56321308Y-53925500D01*
X56475634Y-53910300D01*
X56673654Y-53850232D01*
X56856150Y-53752685D01*
X57016110Y-53621410D01*
X57147385Y-53461450D01*
X57244932Y-53278954D01*
X57305000Y-53080934D01*
X57320200Y-52926608D01*
X57320200Y-52199038D01*
X57619200Y-52199038D01*
X57619200Y-52450962D01*
X57625609Y-52491428D01*
X57658610Y-52699785D01*
X57736460Y-52939383D01*
X57850832Y-53163848D01*
X57998901Y-53367649D01*
X57998905Y-53367654D01*
X58177045Y-53545794D01*
X58177050Y-53545798D01*
X58189581Y-53554902D01*
X58380855Y-53693870D01*
X58496286Y-53752685D01*
X58605316Y-53808239D01*
X58605318Y-53808239D01*
X58605321Y-53808241D01*
X58844915Y-53886090D01*
X59093738Y-53925500D01*
X59093739Y-53925500D01*
X59345661Y-53925500D01*
X59345662Y-53925500D01*
X59594485Y-53886090D01*
X59834079Y-53808241D01*
X60058545Y-53693870D01*
X60262356Y-53545793D01*
X60440493Y-53367656D01*
X60588570Y-53163845D01*
X60702941Y-52939379D01*
X60780790Y-52699785D01*
X60820200Y-52450962D01*
X60820200Y-52230039D01*
X70829200Y-52230039D01*
X70829200Y-54319960D01*
X70844330Y-54454249D01*
X70844331Y-54454254D01*
X70903911Y-54624523D01*
X70941238Y-54683928D01*
X70999884Y-54777262D01*
X71127438Y-54904816D01*
X71280178Y-55000789D01*
X71450445Y-55060368D01*
X71450450Y-55060369D01*
X71540946Y-55070565D01*
X71584740Y-55075499D01*
X71584743Y-55075500D01*
X71584746Y-55075500D01*
X73374657Y-55075500D01*
X73374658Y-55075499D01*
X73441804Y-55067934D01*
X73508949Y-55060369D01*
X73508952Y-55060368D01*
X73508955Y-55060368D01*
X73679222Y-55000789D01*
X73831962Y-54904816D01*
X73932355Y-54804423D01*
X73993678Y-54770938D01*
X74063370Y-54775922D01*
X74092918Y-54791783D01*
X74154649Y-54836634D01*
X74264012Y-54892357D01*
X74386123Y-54954577D01*
X74386125Y-54954577D01*
X74386128Y-54954579D01*
X74633207Y-55034860D01*
X74765406Y-55055797D01*
X74889798Y-55075500D01*
X74889803Y-55075500D01*
X75149602Y-55075500D01*
X75262998Y-55057539D01*
X75406193Y-55034860D01*
X75653272Y-54954579D01*
X75884751Y-54836634D01*
X76094929Y-54683931D01*
X76202019Y-54576841D01*
X76263342Y-54543356D01*
X76333034Y-54548340D01*
X76377381Y-54576841D01*
X76484471Y-54683931D01*
X76694649Y-54836634D01*
X76828461Y-54904815D01*
X76926123Y-54954577D01*
X76926125Y-54954577D01*
X76926128Y-54954579D01*
X77173207Y-55034860D01*
X77305406Y-55055797D01*
X77429798Y-55075500D01*
X77429803Y-55075500D01*
X77689602Y-55075500D01*
X77802998Y-55057539D01*
X77946193Y-55034860D01*
X78193272Y-54954579D01*
X78424751Y-54836634D01*
X78634929Y-54683931D01*
X78818631Y-54500229D01*
X78971334Y-54290051D01*
X79089279Y-54058572D01*
X79169560Y-53811493D01*
X79199666Y-53621410D01*
X79210200Y-53554902D01*
X79210200Y-52995097D01*
X79188647Y-52859021D01*
X79169560Y-52738507D01*
X79089279Y-52491428D01*
X79089277Y-52491425D01*
X79089277Y-52491423D01*
X78972142Y-52261535D01*
X78971334Y-52259949D01*
X78927080Y-52199038D01*
X87769200Y-52199038D01*
X87769200Y-52450962D01*
X87775609Y-52491428D01*
X87808610Y-52699785D01*
X87886460Y-52939383D01*
X88000832Y-53163848D01*
X88148901Y-53367649D01*
X88148905Y-53367654D01*
X88327045Y-53545794D01*
X88327050Y-53545798D01*
X88339581Y-53554902D01*
X88530855Y-53693870D01*
X88646286Y-53752685D01*
X88755316Y-53808239D01*
X88755318Y-53808239D01*
X88755321Y-53808241D01*
X88994915Y-53886090D01*
X89243738Y-53925500D01*
X89243739Y-53925500D01*
X89495661Y-53925500D01*
X89495662Y-53925500D01*
X89744485Y-53886090D01*
X89984079Y-53808241D01*
X90208545Y-53693870D01*
X90412356Y-53545793D01*
X90590493Y-53367656D01*
X90738570Y-53163845D01*
X90852941Y-52939379D01*
X90930790Y-52699785D01*
X90970200Y-52450962D01*
X90970200Y-52199038D01*
X95389200Y-52199038D01*
X95389200Y-52450962D01*
X95395609Y-52491428D01*
X95428610Y-52699785D01*
X95506460Y-52939383D01*
X95620832Y-53163848D01*
X95768901Y-53367649D01*
X95768905Y-53367654D01*
X95947045Y-53545794D01*
X95947050Y-53545798D01*
X95959581Y-53554902D01*
X96150855Y-53693870D01*
X96266286Y-53752685D01*
X96375316Y-53808239D01*
X96375318Y-53808239D01*
X96375321Y-53808241D01*
X96614915Y-53886090D01*
X96863738Y-53925500D01*
X96863739Y-53925500D01*
X97115661Y-53925500D01*
X97115662Y-53925500D01*
X97364485Y-53886090D01*
X97604079Y-53808241D01*
X97828545Y-53693870D01*
X98032356Y-53545793D01*
X98210493Y-53367656D01*
X98358570Y-53163845D01*
X98472941Y-52939379D01*
X98550790Y-52699785D01*
X98590200Y-52450962D01*
X98590200Y-52199038D01*
X98550790Y-51950215D01*
X98472941Y-51710621D01*
X98472939Y-51710618D01*
X98472939Y-51710616D01*
X98414244Y-51595421D01*
X98358570Y-51486155D01*
X98274939Y-51371046D01*
X98210498Y-51282350D01*
X98210494Y-51282345D01*
X98032354Y-51104205D01*
X98032349Y-51104201D01*
X97828548Y-50956132D01*
X97828547Y-50956131D01*
X97828545Y-50956130D01*
X97713118Y-50897317D01*
X97604083Y-50841760D01*
X97364485Y-50763910D01*
X97211630Y-50739700D01*
X97115662Y-50724500D01*
X96863738Y-50724500D01*
X96767776Y-50739699D01*
X96614914Y-50763910D01*
X96375316Y-50841760D01*
X96150851Y-50956132D01*
X95947050Y-51104201D01*
X95947045Y-51104205D01*
X95768905Y-51282345D01*
X95768901Y-51282350D01*
X95620832Y-51486151D01*
X95506460Y-51710616D01*
X95428610Y-51950214D01*
X95428610Y-51950215D01*
X95389200Y-52199038D01*
X90970200Y-52199038D01*
X90930790Y-51950215D01*
X90852941Y-51710621D01*
X90852939Y-51710618D01*
X90852939Y-51710616D01*
X90794244Y-51595421D01*
X90738570Y-51486155D01*
X90654939Y-51371046D01*
X90590498Y-51282350D01*
X90590494Y-51282345D01*
X90412354Y-51104205D01*
X90412349Y-51104201D01*
X90208548Y-50956132D01*
X90208547Y-50956131D01*
X90208545Y-50956130D01*
X90093118Y-50897317D01*
X89984083Y-50841760D01*
X89744485Y-50763910D01*
X89591630Y-50739700D01*
X89495662Y-50724500D01*
X89243738Y-50724500D01*
X89147776Y-50739699D01*
X88994914Y-50763910D01*
X88755316Y-50841760D01*
X88530851Y-50956132D01*
X88327050Y-51104201D01*
X88327045Y-51104205D01*
X88148905Y-51282345D01*
X88148901Y-51282350D01*
X88000832Y-51486151D01*
X87886460Y-51710616D01*
X87808610Y-51950214D01*
X87808610Y-51950215D01*
X87769200Y-52199038D01*
X78927080Y-52199038D01*
X78883746Y-52139394D01*
X78872044Y-52106402D01*
X78860402Y-52073774D01*
X78860396Y-52073564D01*
X78860389Y-52073545D01*
X78860394Y-52073520D01*
X78860200Y-52066695D01*
X78860200Y-43880039D01*
X123379500Y-43880039D01*
X123379500Y-45669960D01*
X123394630Y-45804249D01*
X123394631Y-45804254D01*
X123454211Y-45974523D01*
X123550184Y-46127262D01*
X123650576Y-46227654D01*
X123684061Y-46288977D01*
X123679077Y-46358669D01*
X123663214Y-46388219D01*
X123618367Y-46449946D01*
X123500422Y-46681423D01*
X123420140Y-46928506D01*
X123379500Y-47185097D01*
X123379500Y-47444902D01*
X123420140Y-47701493D01*
X123500422Y-47948576D01*
X123618368Y-48180054D01*
X123744928Y-48354249D01*
X123771069Y-48390229D01*
X123954771Y-48573931D01*
X124164949Y-48726634D01*
X124312445Y-48801787D01*
X124396423Y-48844577D01*
X124396425Y-48844577D01*
X124396428Y-48844579D01*
X124643507Y-48924860D01*
X124775706Y-48945797D01*
X124900098Y-48965500D01*
X124900103Y-48965500D01*
X125159902Y-48965500D01*
X125273298Y-48947539D01*
X125416493Y-48924860D01*
X125663572Y-48844579D01*
X125895051Y-48726634D01*
X126105229Y-48573931D01*
X126288931Y-48390229D01*
X126441634Y-48180051D01*
X126559579Y-47948572D01*
X126639860Y-47701493D01*
X126662539Y-47558298D01*
X126680500Y-47444902D01*
X126680500Y-47185097D01*
X126658947Y-47049021D01*
X126639860Y-46928507D01*
X126559579Y-46681428D01*
X126559577Y-46681425D01*
X126559577Y-46681423D01*
X126441633Y-46449948D01*
X126441632Y-46449946D01*
X126396785Y-46388219D01*
X126373306Y-46322416D01*
X126389131Y-46254362D01*
X126409423Y-46227655D01*
X126409424Y-46227654D01*
X126509816Y-46127262D01*
X126605789Y-45974522D01*
X126665368Y-45804255D01*
X126680500Y-45669954D01*
X126680500Y-43880046D01*
X126665368Y-43745745D01*
X126605789Y-43575478D01*
X126574744Y-43526071D01*
X126509815Y-43422737D01*
X126382262Y-43295184D01*
X126229523Y-43199211D01*
X126059254Y-43139631D01*
X126059249Y-43139630D01*
X125924960Y-43124500D01*
X125924954Y-43124500D01*
X124135046Y-43124500D01*
X124135039Y-43124500D01*
X124000750Y-43139630D01*
X124000745Y-43139631D01*
X123830476Y-43199211D01*
X123677737Y-43295184D01*
X123550184Y-43422737D01*
X123454211Y-43575476D01*
X123394631Y-43745745D01*
X123394630Y-43745750D01*
X123379500Y-43880039D01*
X78860200Y-43880039D01*
X78860200Y-38547348D01*
X78845040Y-38451632D01*
X78828177Y-38345166D01*
X78805125Y-38274218D01*
X78776354Y-38185668D01*
X78765956Y-38153665D01*
X78760948Y-38099162D01*
X78785499Y-37912681D01*
X78785500Y-37912674D01*
X78785500Y-37637332D01*
X79584500Y-37637332D01*
X79584500Y-37912667D01*
X79584501Y-37912684D01*
X79620438Y-38185655D01*
X79620439Y-38185660D01*
X79620440Y-38185666D01*
X79620441Y-38185668D01*
X79691704Y-38451630D01*
X79797075Y-38706017D01*
X79797080Y-38706028D01*
X79869195Y-38830933D01*
X79934751Y-38944479D01*
X79934753Y-38944482D01*
X79934754Y-38944483D01*
X80102370Y-39162926D01*
X80102376Y-39162933D01*
X80297066Y-39357623D01*
X80297072Y-39357628D01*
X80515521Y-39525249D01*
X80645392Y-39600230D01*
X80753971Y-39662919D01*
X80753976Y-39662921D01*
X80753979Y-39662923D01*
X81008368Y-39768295D01*
X81274334Y-39839560D01*
X81547326Y-39875500D01*
X81547333Y-39875500D01*
X81822667Y-39875500D01*
X81822674Y-39875500D01*
X82095666Y-39839560D01*
X82361632Y-39768295D01*
X82616021Y-39662923D01*
X82854479Y-39525249D01*
X83072928Y-39357628D01*
X83267628Y-39162928D01*
X83435249Y-38944479D01*
X83572923Y-38706021D01*
X83678295Y-38451632D01*
X83749560Y-38185666D01*
X83785500Y-37912674D01*
X83785500Y-37637326D01*
X83749560Y-37364334D01*
X83678295Y-37098368D01*
X83572923Y-36843979D01*
X83572921Y-36843976D01*
X83572919Y-36843971D01*
X83500804Y-36719066D01*
X83435249Y-36605521D01*
X83267628Y-36387072D01*
X83267623Y-36387066D01*
X83072933Y-36192376D01*
X83072926Y-36192370D01*
X82854483Y-36024754D01*
X82854482Y-36024753D01*
X82854479Y-36024751D01*
X82724605Y-35949768D01*
X82616028Y-35887080D01*
X82616017Y-35887075D01*
X82361630Y-35781704D01*
X82228649Y-35746072D01*
X82095666Y-35710440D01*
X82095660Y-35710439D01*
X82095655Y-35710438D01*
X81822684Y-35674501D01*
X81822679Y-35674500D01*
X81822674Y-35674500D01*
X81547326Y-35674500D01*
X81547320Y-35674500D01*
X81547315Y-35674501D01*
X81274344Y-35710438D01*
X81274337Y-35710439D01*
X81274334Y-35710440D01*
X81218125Y-35725500D01*
X81008369Y-35781704D01*
X80753982Y-35887075D01*
X80753971Y-35887080D01*
X80515516Y-36024754D01*
X80297073Y-36192370D01*
X80297066Y-36192376D01*
X80102376Y-36387066D01*
X80102370Y-36387073D01*
X79934754Y-36605516D01*
X79797080Y-36843971D01*
X79797075Y-36843982D01*
X79691704Y-37098369D01*
X79620441Y-37364331D01*
X79620438Y-37364344D01*
X79584501Y-37637315D01*
X79584500Y-37637332D01*
X78785500Y-37637332D01*
X78785500Y-37637326D01*
X78749560Y-37364334D01*
X78678295Y-37098368D01*
X78572923Y-36843979D01*
X78572921Y-36843976D01*
X78572919Y-36843971D01*
X78500804Y-36719066D01*
X78435249Y-36605521D01*
X78267628Y-36387072D01*
X78267623Y-36387066D01*
X78072933Y-36192376D01*
X78072926Y-36192370D01*
X77854483Y-36024754D01*
X77854482Y-36024753D01*
X77854479Y-36024751D01*
X77724605Y-35949768D01*
X77616028Y-35887080D01*
X77616017Y-35887075D01*
X77361630Y-35781704D01*
X77228649Y-35746072D01*
X77095666Y-35710440D01*
X77095660Y-35710439D01*
X77095655Y-35710438D01*
X76822684Y-35674501D01*
X76822679Y-35674500D01*
X76822674Y-35674500D01*
X76547326Y-35674500D01*
X76547320Y-35674500D01*
X76547315Y-35674501D01*
X76274344Y-35710438D01*
X76274337Y-35710439D01*
X76274334Y-35710440D01*
X76218125Y-35725500D01*
X76008369Y-35781704D01*
X75753982Y-35887075D01*
X75753971Y-35887080D01*
X75515516Y-36024754D01*
X75297073Y-36192370D01*
X75297066Y-36192376D01*
X75102376Y-36387066D01*
X75102370Y-36387073D01*
X74934754Y-36605516D01*
X74797080Y-36843971D01*
X74797075Y-36843982D01*
X74691704Y-37098369D01*
X74620441Y-37364331D01*
X74620438Y-37364344D01*
X74584501Y-37637315D01*
X74584500Y-37637332D01*
X74584500Y-37912667D01*
X74584501Y-37912684D01*
X74620438Y-38185655D01*
X74620439Y-38185660D01*
X74620440Y-38185666D01*
X74620441Y-38185668D01*
X74691704Y-38451630D01*
X74797075Y-38706017D01*
X74797080Y-38706028D01*
X74869195Y-38830933D01*
X74934751Y-38944479D01*
X74934753Y-38944482D01*
X74934754Y-38944483D01*
X75102370Y-39162926D01*
X75102376Y-39162933D01*
X75297066Y-39357623D01*
X75297072Y-39357628D01*
X75515521Y-39525249D01*
X75645392Y-39600230D01*
X75753971Y-39662919D01*
X75753976Y-39662921D01*
X75753979Y-39662923D01*
X76008368Y-39768295D01*
X76167296Y-39810878D01*
X76226953Y-39847241D01*
X76257483Y-39910088D01*
X76259200Y-39930652D01*
X76259200Y-51742055D01*
X76239515Y-51809094D01*
X76186711Y-51854849D01*
X76117553Y-51864793D01*
X76062315Y-51842373D01*
X75884754Y-51713368D01*
X75884753Y-51713367D01*
X75884751Y-51713366D01*
X75812464Y-51676534D01*
X75653276Y-51595422D01*
X75406193Y-51515140D01*
X75149602Y-51474500D01*
X75149597Y-51474500D01*
X74889803Y-51474500D01*
X74889798Y-51474500D01*
X74633206Y-51515140D01*
X74386123Y-51595422D01*
X74154646Y-51713367D01*
X74092919Y-51758214D01*
X74027113Y-51781693D01*
X73959059Y-51765867D01*
X73932354Y-51745576D01*
X73831962Y-51645184D01*
X73679223Y-51549211D01*
X73508954Y-51489631D01*
X73508949Y-51489630D01*
X73374660Y-51474500D01*
X73374654Y-51474500D01*
X71584746Y-51474500D01*
X71584739Y-51474500D01*
X71450450Y-51489630D01*
X71450445Y-51489631D01*
X71280176Y-51549211D01*
X71127437Y-51645184D01*
X70999884Y-51772737D01*
X70903911Y-51925476D01*
X70844331Y-52095745D01*
X70844330Y-52095750D01*
X70829200Y-52230039D01*
X60820200Y-52230039D01*
X60820200Y-52199038D01*
X60780790Y-51950215D01*
X60702941Y-51710621D01*
X60702939Y-51710618D01*
X60702939Y-51710616D01*
X60644244Y-51595421D01*
X60588570Y-51486155D01*
X60580102Y-51474500D01*
X60543882Y-51424646D01*
X60520402Y-51358840D01*
X60520200Y-51351761D01*
X60520200Y-43680347D01*
X60539885Y-43613308D01*
X60556519Y-43592666D01*
X64437366Y-39711819D01*
X64498689Y-39678334D01*
X64525047Y-39675500D01*
X64659558Y-39675500D01*
X64659565Y-39675500D01*
X64906565Y-39642982D01*
X65147207Y-39578502D01*
X65377373Y-39483164D01*
X65593127Y-39358599D01*
X65790776Y-39206938D01*
X65966938Y-39030776D01*
X66118599Y-38833127D01*
X66243164Y-38617373D01*
X66338502Y-38387207D01*
X66402982Y-38146565D01*
X66435500Y-37899565D01*
X66435500Y-37650435D01*
X66402982Y-37403435D01*
X66338502Y-37162793D01*
X66284253Y-37031825D01*
X66243169Y-36932638D01*
X66243162Y-36932623D01*
X66118599Y-36716873D01*
X65966939Y-36519225D01*
X65966933Y-36519218D01*
X65790781Y-36343066D01*
X65790774Y-36343060D01*
X65593126Y-36191400D01*
X65377376Y-36066837D01*
X65377361Y-36066830D01*
X65147207Y-35971498D01*
X64906561Y-35907017D01*
X64659575Y-35874501D01*
X64659570Y-35874500D01*
X64659565Y-35874500D01*
X64410435Y-35874500D01*
X64410429Y-35874500D01*
X64410424Y-35874501D01*
X64163438Y-35907017D01*
X63922792Y-35971498D01*
X63692638Y-36066830D01*
X63692623Y-36066837D01*
X63476873Y-36191400D01*
X63279225Y-36343060D01*
X63279218Y-36343066D01*
X63103066Y-36519218D01*
X63103060Y-36519225D01*
X62951400Y-36716873D01*
X62826837Y-36932623D01*
X62826830Y-36932638D01*
X62731498Y-37162792D01*
X62667017Y-37403438D01*
X62634501Y-37650424D01*
X62634500Y-37650441D01*
X62634500Y-37784953D01*
X62614815Y-37851992D01*
X62598181Y-37872634D01*
X58227736Y-42243078D01*
X58107413Y-42408688D01*
X58060946Y-42499885D01*
X58060945Y-42499884D01*
X58014479Y-42591081D01*
X58014479Y-42591082D01*
X57951223Y-42785761D01*
X57951223Y-42785764D01*
X57919200Y-42987948D01*
X57919200Y-51351761D01*
X57899515Y-51418800D01*
X57895518Y-51424646D01*
X57850832Y-51486151D01*
X57736460Y-51710616D01*
X57658610Y-51950214D01*
X57658610Y-51950215D01*
X57619200Y-52199038D01*
X57320200Y-52199038D01*
X57320200Y-51723392D01*
X57305000Y-51569066D01*
X57244932Y-51371046D01*
X57147385Y-51188550D01*
X57078162Y-51104201D01*
X57016110Y-51028589D01*
X56856152Y-50897317D01*
X56856153Y-50897317D01*
X56856150Y-50897315D01*
X56673654Y-50799768D01*
X56475634Y-50739700D01*
X56475632Y-50739699D01*
X56475634Y-50739699D01*
X56356505Y-50727966D01*
X56321308Y-50724500D01*
X55118092Y-50724500D01*
X55079998Y-50728251D01*
X54963767Y-50739699D01*
X54765743Y-50799769D01*
X54687187Y-50841759D01*
X54583250Y-50897315D01*
X54583248Y-50897316D01*
X54583247Y-50897317D01*
X54423289Y-51028589D01*
X54292017Y-51188547D01*
X54194469Y-51371043D01*
X54134399Y-51569067D01*
X54126903Y-51645184D01*
X54119200Y-51723392D01*
X20500500Y-51723392D01*
X20500500Y-44655097D01*
X33349500Y-44655097D01*
X33349500Y-44914902D01*
X33390140Y-45171493D01*
X33470422Y-45418576D01*
X33588368Y-45650054D01*
X33633213Y-45711779D01*
X33656693Y-45777585D01*
X33640867Y-45845639D01*
X33620577Y-45872345D01*
X33520183Y-45972739D01*
X33424211Y-46125476D01*
X33364631Y-46295745D01*
X33364630Y-46295750D01*
X33349500Y-46430039D01*
X33349500Y-48219960D01*
X33364630Y-48354249D01*
X33364631Y-48354254D01*
X33424211Y-48524523D01*
X33455258Y-48573933D01*
X33520184Y-48677262D01*
X33647738Y-48804816D01*
X33800478Y-48900789D01*
X33869269Y-48924860D01*
X33970745Y-48960368D01*
X33970750Y-48960369D01*
X34061246Y-48970565D01*
X34105040Y-48975499D01*
X34105043Y-48975500D01*
X34105046Y-48975500D01*
X35894957Y-48975500D01*
X35894958Y-48975499D01*
X35962104Y-48967934D01*
X36029249Y-48960369D01*
X36029252Y-48960368D01*
X36029255Y-48960368D01*
X36199522Y-48900789D01*
X36352262Y-48804816D01*
X36479816Y-48677262D01*
X36575789Y-48524522D01*
X36635368Y-48354255D01*
X36650500Y-48219954D01*
X36650500Y-46430046D01*
X36635368Y-46295745D01*
X36575789Y-46125478D01*
X36479816Y-45972738D01*
X36379423Y-45872345D01*
X36345938Y-45811022D01*
X36350922Y-45741330D01*
X36366784Y-45711780D01*
X36411634Y-45650051D01*
X36529579Y-45418572D01*
X36609860Y-45171493D01*
X36632539Y-45028298D01*
X36650500Y-44914902D01*
X36650500Y-44655097D01*
X36628947Y-44519021D01*
X36609860Y-44398507D01*
X36529579Y-44151428D01*
X36529577Y-44151425D01*
X36529577Y-44151423D01*
X36486787Y-44067445D01*
X36411634Y-43919949D01*
X36258931Y-43709771D01*
X36075229Y-43526069D01*
X35933006Y-43422738D01*
X35865054Y-43373368D01*
X35865053Y-43373367D01*
X35865051Y-43373366D01*
X35792764Y-43336534D01*
X35633576Y-43255422D01*
X35386493Y-43175140D01*
X35129902Y-43134500D01*
X35129897Y-43134500D01*
X34870103Y-43134500D01*
X34870098Y-43134500D01*
X34613506Y-43175140D01*
X34366423Y-43255422D01*
X34134945Y-43373368D01*
X33924774Y-43526066D01*
X33924768Y-43526071D01*
X33741071Y-43709768D01*
X33741066Y-43709774D01*
X33588368Y-43919945D01*
X33470422Y-44151423D01*
X33390140Y-44398506D01*
X33349500Y-44655097D01*
X20500500Y-44655097D01*
X20500500Y-36873394D01*
X52474500Y-36873394D01*
X52474500Y-38676604D01*
X52489699Y-38830932D01*
X52489700Y-38830935D01*
X52549768Y-39028955D01*
X52644903Y-39206939D01*
X52647317Y-39211454D01*
X52778589Y-39371410D01*
X52938545Y-39502682D01*
X52938549Y-39502685D01*
X53121045Y-39600232D01*
X53319065Y-39660300D01*
X53319064Y-39660300D01*
X53329968Y-39661373D01*
X53473391Y-39675500D01*
X55276608Y-39675499D01*
X55430935Y-39660300D01*
X55628955Y-39600232D01*
X55811451Y-39502685D01*
X55971410Y-39371410D01*
X56102685Y-39211451D01*
X56200232Y-39028955D01*
X56260300Y-38830935D01*
X56275500Y-38676609D01*
X56275499Y-36873392D01*
X56260300Y-36719065D01*
X56200232Y-36521045D01*
X56102685Y-36338549D01*
X56102682Y-36338545D01*
X55971410Y-36178589D01*
X55811454Y-36047317D01*
X55811452Y-36047316D01*
X55811451Y-36047315D01*
X55628955Y-35949768D01*
X55430935Y-35889700D01*
X55430933Y-35889699D01*
X55430935Y-35889699D01*
X55320222Y-35878795D01*
X55276609Y-35874500D01*
X55276605Y-35874500D01*
X53473395Y-35874500D01*
X53319067Y-35889699D01*
X53121042Y-35949769D01*
X52938545Y-36047317D01*
X52778589Y-36178589D01*
X52647317Y-36338545D01*
X52549769Y-36521042D01*
X52489699Y-36719066D01*
X52474500Y-36873394D01*
X20500500Y-36873394D01*
X20500500Y-34633392D01*
X91934500Y-34633392D01*
X91934500Y-35836608D01*
X91938232Y-35874500D01*
X91949699Y-35990932D01*
X91972724Y-36066836D01*
X92009768Y-36188954D01*
X92107315Y-36371450D01*
X92176533Y-36455793D01*
X92238590Y-36531410D01*
X92287049Y-36571180D01*
X92326383Y-36628926D01*
X92328254Y-36698770D01*
X92308703Y-36739918D01*
X92166129Y-36936155D01*
X92051760Y-37160616D01*
X91973910Y-37400214D01*
X91934500Y-37649038D01*
X91934500Y-37900961D01*
X91973910Y-38149785D01*
X92051760Y-38389383D01*
X92166132Y-38613848D01*
X92314201Y-38817649D01*
X92314205Y-38817654D01*
X92453870Y-38957319D01*
X92487355Y-39018642D01*
X92482371Y-39088334D01*
X92453870Y-39132681D01*
X92314205Y-39272345D01*
X92314201Y-39272350D01*
X92166132Y-39476151D01*
X92051760Y-39700616D01*
X91973910Y-39940214D01*
X91934500Y-40189038D01*
X91934500Y-40440961D01*
X91973910Y-40689785D01*
X92051760Y-40929383D01*
X92166132Y-41153848D01*
X92314201Y-41357649D01*
X92314205Y-41357654D01*
X92492345Y-41535794D01*
X92492350Y-41535798D01*
X92670117Y-41664952D01*
X92696155Y-41683870D01*
X92839184Y-41756747D01*
X92920616Y-41798239D01*
X92920618Y-41798239D01*
X92920621Y-41798241D01*
X93160215Y-41876090D01*
X93409038Y-41915500D01*
X93409039Y-41915500D01*
X94460961Y-41915500D01*
X94460962Y-41915500D01*
X94709785Y-41876090D01*
X94949379Y-41798241D01*
X95173845Y-41683870D01*
X95377656Y-41535793D01*
X95555793Y-41357656D01*
X95703870Y-41153845D01*
X95818241Y-40929379D01*
X95896090Y-40689785D01*
X95935500Y-40440962D01*
X95935500Y-40189038D01*
X95896090Y-39940215D01*
X95818241Y-39700621D01*
X95818239Y-39700618D01*
X95818239Y-39700616D01*
X95756018Y-39578501D01*
X95703870Y-39476155D01*
X95684952Y-39450117D01*
X95555798Y-39272350D01*
X95555794Y-39272345D01*
X95416130Y-39132681D01*
X95382645Y-39071358D01*
X95387629Y-39001666D01*
X95416130Y-38957319D01*
X95428970Y-38944479D01*
X95555793Y-38817656D01*
X95703870Y-38613845D01*
X95818241Y-38389379D01*
X95896090Y-38149785D01*
X95935500Y-37900962D01*
X95935500Y-37649038D01*
X95896090Y-37400215D01*
X95818241Y-37160621D01*
X95818239Y-37160618D01*
X95818239Y-37160616D01*
X95776747Y-37079184D01*
X95703870Y-36936155D01*
X95561296Y-36739918D01*
X95537816Y-36674112D01*
X95553641Y-36606058D01*
X95582948Y-36571181D01*
X95631410Y-36531410D01*
X95762685Y-36371450D01*
X95860232Y-36188954D01*
X95920300Y-35990934D01*
X95935500Y-35836608D01*
X95935500Y-35109038D01*
X99554500Y-35109038D01*
X99554500Y-35360961D01*
X99593910Y-35609785D01*
X99671760Y-35849383D01*
X99743884Y-35990932D01*
X99782559Y-36066837D01*
X99786132Y-36073848D01*
X99934201Y-36277649D01*
X99934205Y-36277654D01*
X100073870Y-36417319D01*
X100107355Y-36478642D01*
X100102371Y-36548334D01*
X100073870Y-36592681D01*
X99934205Y-36732345D01*
X99934201Y-36732350D01*
X99786132Y-36936151D01*
X99671760Y-37160616D01*
X99593910Y-37400214D01*
X99554500Y-37649038D01*
X99554500Y-37900961D01*
X99593910Y-38149785D01*
X99671760Y-38389383D01*
X99786132Y-38613848D01*
X99934201Y-38817649D01*
X99934205Y-38817654D01*
X100073870Y-38957319D01*
X100107355Y-39018642D01*
X100102371Y-39088334D01*
X100073870Y-39132681D01*
X99934205Y-39272345D01*
X99934201Y-39272350D01*
X99786132Y-39476151D01*
X99671760Y-39700616D01*
X99593910Y-39940214D01*
X99554500Y-40189038D01*
X99554500Y-40440961D01*
X99593910Y-40689785D01*
X99671760Y-40929383D01*
X99786132Y-41153848D01*
X99934201Y-41357649D01*
X99934205Y-41357654D01*
X100112345Y-41535794D01*
X100112350Y-41535798D01*
X100290117Y-41664952D01*
X100316155Y-41683870D01*
X100459184Y-41756747D01*
X100540616Y-41798239D01*
X100540618Y-41798239D01*
X100540621Y-41798241D01*
X100780215Y-41876090D01*
X101029038Y-41915500D01*
X101029039Y-41915500D01*
X102080961Y-41915500D01*
X102080962Y-41915500D01*
X102329785Y-41876090D01*
X102569379Y-41798241D01*
X102793845Y-41683870D01*
X102997656Y-41535793D01*
X103175793Y-41357656D01*
X103323870Y-41153845D01*
X103438241Y-40929379D01*
X103516090Y-40689785D01*
X103555500Y-40440962D01*
X103555500Y-40189038D01*
X103516090Y-39940215D01*
X103438241Y-39700621D01*
X103438239Y-39700618D01*
X103438239Y-39700616D01*
X103376018Y-39578501D01*
X103323870Y-39476155D01*
X103304952Y-39450117D01*
X103175798Y-39272350D01*
X103175794Y-39272345D01*
X103036130Y-39132681D01*
X103002645Y-39071358D01*
X103007629Y-39001666D01*
X103036130Y-38957319D01*
X103048970Y-38944479D01*
X103175793Y-38817656D01*
X103323870Y-38613845D01*
X103438241Y-38389379D01*
X103516090Y-38149785D01*
X103555500Y-37900962D01*
X103555500Y-37649038D01*
X103516090Y-37400215D01*
X103438241Y-37160621D01*
X103438239Y-37160618D01*
X103438239Y-37160616D01*
X103396747Y-37079184D01*
X103323870Y-36936155D01*
X103278270Y-36873392D01*
X103175798Y-36732350D01*
X103175794Y-36732345D01*
X103036130Y-36592681D01*
X103002645Y-36531358D01*
X103007629Y-36461666D01*
X103036130Y-36417319D01*
X103081999Y-36371450D01*
X103175793Y-36277656D01*
X103323870Y-36073845D01*
X103438241Y-35849379D01*
X103516090Y-35609785D01*
X103555500Y-35360962D01*
X103555500Y-35109038D01*
X103516090Y-34860215D01*
X103438241Y-34620621D01*
X103438239Y-34620618D01*
X103438239Y-34620616D01*
X103396747Y-34539184D01*
X103323870Y-34396155D01*
X103254372Y-34300499D01*
X103175798Y-34192350D01*
X103175794Y-34192345D01*
X102997654Y-34014205D01*
X102997649Y-34014201D01*
X102793848Y-33866132D01*
X102793847Y-33866131D01*
X102793845Y-33866130D01*
X102678418Y-33807317D01*
X102569383Y-33751760D01*
X102329785Y-33673910D01*
X102176930Y-33649700D01*
X102080962Y-33634500D01*
X101029038Y-33634500D01*
X100933076Y-33649699D01*
X100780214Y-33673910D01*
X100540616Y-33751760D01*
X100316151Y-33866132D01*
X100112350Y-34014201D01*
X100112345Y-34014205D01*
X99934205Y-34192345D01*
X99934201Y-34192350D01*
X99786132Y-34396151D01*
X99671760Y-34620616D01*
X99593910Y-34860214D01*
X99554500Y-35109038D01*
X95935500Y-35109038D01*
X95935500Y-34633392D01*
X95920300Y-34479066D01*
X95860232Y-34281046D01*
X95762685Y-34098550D01*
X95683664Y-34002262D01*
X95631410Y-33938589D01*
X95471452Y-33807317D01*
X95471453Y-33807317D01*
X95471450Y-33807315D01*
X95288954Y-33709768D01*
X95090934Y-33649700D01*
X95090932Y-33649699D01*
X95090934Y-33649699D01*
X94971805Y-33637966D01*
X94936608Y-33634500D01*
X92933392Y-33634500D01*
X92895298Y-33638251D01*
X92779067Y-33649699D01*
X92581043Y-33709769D01*
X92502487Y-33751759D01*
X92398550Y-33807315D01*
X92398548Y-33807316D01*
X92398547Y-33807317D01*
X92238589Y-33938589D01*
X92107317Y-34098547D01*
X92107315Y-34098550D01*
X92090603Y-34129816D01*
X92009769Y-34281043D01*
X91949699Y-34479067D01*
X91938251Y-34595298D01*
X91934500Y-34633392D01*
X20500500Y-34633392D01*
X20500500Y-31849223D01*
X30159500Y-31849223D01*
X30159500Y-32150776D01*
X30159501Y-32150793D01*
X30198861Y-32449766D01*
X30276913Y-32741060D01*
X30392314Y-33019661D01*
X30392318Y-33019671D01*
X30543099Y-33280831D01*
X30726679Y-33520078D01*
X30726685Y-33520085D01*
X30939914Y-33733314D01*
X30939921Y-33733320D01*
X31179168Y-33916900D01*
X31440328Y-34067681D01*
X31440329Y-34067681D01*
X31440332Y-34067683D01*
X31626072Y-34144619D01*
X31718939Y-34183086D01*
X31718940Y-34183086D01*
X31718942Y-34183087D01*
X32010232Y-34261138D01*
X32309217Y-34300500D01*
X32309224Y-34300500D01*
X32610776Y-34300500D01*
X32610783Y-34300500D01*
X32909768Y-34261138D01*
X33201058Y-34183087D01*
X33479668Y-34067683D01*
X33740832Y-33916900D01*
X33980080Y-33733319D01*
X34193319Y-33520080D01*
X34376900Y-33280832D01*
X34527683Y-33019668D01*
X34643087Y-32741058D01*
X34721138Y-32449768D01*
X34760500Y-32150783D01*
X34760500Y-31849217D01*
X34721138Y-31550232D01*
X34643087Y-31258942D01*
X34527683Y-30980332D01*
X34376900Y-30719168D01*
X34229486Y-30527053D01*
X34193320Y-30479921D01*
X34193314Y-30479914D01*
X34168439Y-30455039D01*
X35239500Y-30455039D01*
X35239500Y-33544960D01*
X35254630Y-33679249D01*
X35254631Y-33679254D01*
X35314211Y-33849523D01*
X35370176Y-33938590D01*
X35410184Y-34002262D01*
X35537738Y-34129816D01*
X35690478Y-34225789D01*
X35791500Y-34261138D01*
X35860745Y-34285368D01*
X35860750Y-34285369D01*
X35951246Y-34295565D01*
X35995040Y-34300499D01*
X35995043Y-34300500D01*
X35995046Y-34300500D01*
X39084957Y-34300500D01*
X39084958Y-34300499D01*
X39152104Y-34292934D01*
X39219249Y-34285369D01*
X39219252Y-34285368D01*
X39219255Y-34285368D01*
X39389522Y-34225789D01*
X39542262Y-34129816D01*
X39669816Y-34002262D01*
X39765789Y-33849522D01*
X39825368Y-33679255D01*
X39825971Y-33673910D01*
X39840499Y-33544960D01*
X39840500Y-33544956D01*
X39840500Y-30455043D01*
X39840499Y-30455039D01*
X120189500Y-30455039D01*
X120189500Y-33544960D01*
X120204630Y-33679249D01*
X120204631Y-33679254D01*
X120264211Y-33849523D01*
X120320176Y-33938590D01*
X120360184Y-34002262D01*
X120487738Y-34129816D01*
X120640478Y-34225789D01*
X120741500Y-34261138D01*
X120810745Y-34285368D01*
X120810750Y-34285369D01*
X120901246Y-34295565D01*
X120945040Y-34300499D01*
X120945043Y-34300500D01*
X120945046Y-34300500D01*
X124034957Y-34300500D01*
X124034958Y-34300499D01*
X124102104Y-34292934D01*
X124169249Y-34285369D01*
X124169252Y-34285368D01*
X124169255Y-34285368D01*
X124339522Y-34225789D01*
X124492262Y-34129816D01*
X124619816Y-34002262D01*
X124715789Y-33849522D01*
X124775368Y-33679255D01*
X124775971Y-33673910D01*
X124790499Y-33544960D01*
X124790500Y-33544956D01*
X124790500Y-31849223D01*
X125269500Y-31849223D01*
X125269500Y-32150776D01*
X125269501Y-32150793D01*
X125308861Y-32449766D01*
X125386913Y-32741060D01*
X125502314Y-33019661D01*
X125502318Y-33019671D01*
X125653099Y-33280831D01*
X125836679Y-33520078D01*
X125836685Y-33520085D01*
X126049914Y-33733314D01*
X126049921Y-33733320D01*
X126289168Y-33916900D01*
X126550328Y-34067681D01*
X126550329Y-34067681D01*
X126550332Y-34067683D01*
X126736072Y-34144619D01*
X126828939Y-34183086D01*
X126828940Y-34183086D01*
X126828942Y-34183087D01*
X127120232Y-34261138D01*
X127419217Y-34300500D01*
X127419224Y-34300500D01*
X127720776Y-34300500D01*
X127720783Y-34300500D01*
X128019768Y-34261138D01*
X128311058Y-34183087D01*
X128589668Y-34067683D01*
X128850832Y-33916900D01*
X129090080Y-33733319D01*
X129303319Y-33520080D01*
X129486900Y-33280832D01*
X129637683Y-33019668D01*
X129753087Y-32741058D01*
X129831138Y-32449768D01*
X129870500Y-32150783D01*
X129870500Y-31849217D01*
X129831138Y-31550232D01*
X129753087Y-31258942D01*
X129637683Y-30980332D01*
X129486900Y-30719168D01*
X129303320Y-30479921D01*
X129303314Y-30479914D01*
X129090085Y-30266685D01*
X129090078Y-30266679D01*
X128850831Y-30083099D01*
X128589671Y-29932318D01*
X128589661Y-29932314D01*
X128311060Y-29816913D01*
X128019766Y-29738861D01*
X127720793Y-29699501D01*
X127720788Y-29699500D01*
X127720783Y-29699500D01*
X127419217Y-29699500D01*
X127419211Y-29699500D01*
X127419206Y-29699501D01*
X127120233Y-29738861D01*
X126828939Y-29816913D01*
X126550338Y-29932314D01*
X126550328Y-29932318D01*
X126289168Y-30083099D01*
X126049921Y-30266679D01*
X126049914Y-30266685D01*
X125836685Y-30479914D01*
X125836679Y-30479921D01*
X125653099Y-30719168D01*
X125502318Y-30980328D01*
X125502314Y-30980338D01*
X125386913Y-31258939D01*
X125308861Y-31550233D01*
X125269501Y-31849206D01*
X125269500Y-31849223D01*
X124790500Y-31849223D01*
X124790500Y-30455043D01*
X124790499Y-30455039D01*
X124775369Y-30320750D01*
X124775368Y-30320745D01*
X124715789Y-30150478D01*
X124619816Y-29997738D01*
X124492262Y-29870184D01*
X124407482Y-29816913D01*
X124339523Y-29774211D01*
X124169254Y-29714631D01*
X124169249Y-29714630D01*
X124034960Y-29699500D01*
X124034954Y-29699500D01*
X120945046Y-29699500D01*
X120945039Y-29699500D01*
X120810750Y-29714630D01*
X120810745Y-29714631D01*
X120640476Y-29774211D01*
X120487737Y-29870184D01*
X120360184Y-29997737D01*
X120264211Y-30150476D01*
X120204631Y-30320745D01*
X120204630Y-30320750D01*
X120189500Y-30455039D01*
X39840499Y-30455039D01*
X39825369Y-30320750D01*
X39825368Y-30320745D01*
X39765789Y-30150478D01*
X39669816Y-29997738D01*
X39542262Y-29870184D01*
X39457482Y-29816913D01*
X39389523Y-29774211D01*
X39219254Y-29714631D01*
X39219249Y-29714630D01*
X39084960Y-29699500D01*
X39084954Y-29699500D01*
X35995046Y-29699500D01*
X35995039Y-29699500D01*
X35860750Y-29714630D01*
X35860745Y-29714631D01*
X35690476Y-29774211D01*
X35537737Y-29870184D01*
X35410184Y-29997737D01*
X35314211Y-30150476D01*
X35254631Y-30320745D01*
X35254630Y-30320750D01*
X35239500Y-30455039D01*
X34168439Y-30455039D01*
X33980085Y-30266685D01*
X33980078Y-30266679D01*
X33740831Y-30083099D01*
X33479671Y-29932318D01*
X33479661Y-29932314D01*
X33201060Y-29816913D01*
X32909766Y-29738861D01*
X32610793Y-29699501D01*
X32610788Y-29699500D01*
X32610783Y-29699500D01*
X32309217Y-29699500D01*
X32309211Y-29699500D01*
X32309206Y-29699501D01*
X32010233Y-29738861D01*
X31718939Y-29816913D01*
X31440338Y-29932314D01*
X31440328Y-29932318D01*
X31179168Y-30083099D01*
X30939921Y-30266679D01*
X30939914Y-30266685D01*
X30726685Y-30479914D01*
X30726679Y-30479921D01*
X30543099Y-30719168D01*
X30392318Y-30980328D01*
X30392314Y-30980338D01*
X30276913Y-31258939D01*
X30198861Y-31550233D01*
X30159501Y-31849206D01*
X30159500Y-31849223D01*
X20500500Y-31849223D01*
X20500500Y-20624500D01*
X20520185Y-20557461D01*
X20572989Y-20511706D01*
X20624500Y-20500500D01*
X140375500Y-20500500D01*
X140442539Y-20520185D01*
G37*
%TD.AperFunction*%
M02*
