%TF.GenerationSoftware,KiCad,Pcbnew,9.0.4*%
%TF.CreationDate,2026-06-10T15:27:43+02:00*%
%TF.ProjectId,buck,6275636b-2e6b-4696-9361-645f70636258,rev?*%
%TF.SameCoordinates,Original*%
%TF.FileFunction,Copper,L1,Top*%
%TF.FilePolarity,Positive*%
%FSLAX46Y46*%
G04 Gerber Fmt 4.6, Leading zero omitted, Abs format (unit mm)*
G04 Created by KiCad (PCBNEW 9.0.4) date 2026-06-10 15:27:43*
%MOMM*%
%LPD*%
G01*
G04 APERTURE LIST*
G04 Aperture macros list*
%AMRoundRect*
0 Rectangle with rounded corners*
0 $1 Rounding radius*
0 $2 $3 $4 $5 $6 $7 $8 $9 X,Y pos of 4 corners*
0 Add a 4 corners polygon primitive as box body*
4,1,4,$2,$3,$4,$5,$6,$7,$8,$9,$2,$3,0*
0 Add four circle primitives for the rounded corners*
1,1,$1+$1,$2,$3*
1,1,$1+$1,$4,$5*
1,1,$1+$1,$6,$7*
1,1,$1+$1,$8,$9*
0 Add four rect primitives between the rounded corners*
20,1,$1+$1,$2,$3,$4,$5,0*
20,1,$1+$1,$4,$5,$6,$7,0*
20,1,$1+$1,$6,$7,$8,$9,0*
20,1,$1+$1,$8,$9,$2,$3,0*%
G04 Aperture macros list end*
%ADD10C,0.300000*%
%TA.AperFunction,NonConductor*%
%ADD11C,0.300000*%
%TD*%
%TA.AperFunction,ComponentPad*%
%ADD12R,1.700000X1.700000*%
%TD*%
%TA.AperFunction,ComponentPad*%
%ADD13C,1.700000*%
%TD*%
%TA.AperFunction,ComponentPad*%
%ADD14RoundRect,0.249999X-0.850001X-0.850001X0.850001X-0.850001X0.850001X0.850001X-0.850001X0.850001X0*%
%TD*%
%TA.AperFunction,ComponentPad*%
%ADD15C,2.200000*%
%TD*%
%TA.AperFunction,ComponentPad*%
%ADD16RoundRect,0.250000X-0.950000X-0.550000X0.950000X-0.550000X0.950000X0.550000X-0.950000X0.550000X0*%
%TD*%
%TA.AperFunction,ComponentPad*%
%ADD17O,2.400000X1.600000*%
%TD*%
%TA.AperFunction,ComponentPad*%
%ADD18R,1.700000X2.000000*%
%TD*%
%TA.AperFunction,ComponentPad*%
%ADD19O,1.700000X2.000000*%
%TD*%
%TA.AperFunction,ComponentPad*%
%ADD20R,3.000000X3.000000*%
%TD*%
%TA.AperFunction,ComponentPad*%
%ADD21C,3.000000*%
%TD*%
%TA.AperFunction,ComponentPad*%
%ADD22C,1.600000*%
%TD*%
%TA.AperFunction,ComponentPad*%
%ADD23C,4.000000*%
%TD*%
%TA.AperFunction,ComponentPad*%
%ADD24RoundRect,0.250000X-0.550000X-0.550000X0.550000X-0.550000X0.550000X0.550000X-0.550000X0.550000X0*%
%TD*%
%TA.AperFunction,Conductor*%
%ADD25C,1.000000*%
%TD*%
G04 APERTURE END LIST*
D10*
D11*
X108500000Y-38458328D02*
X108500000Y-39529757D01*
X108500000Y-39529757D02*
X108428571Y-39744042D01*
X108428571Y-39744042D02*
X108285714Y-39886900D01*
X108285714Y-39886900D02*
X108071428Y-39958328D01*
X108071428Y-39958328D02*
X107928571Y-39958328D01*
X109857143Y-38958328D02*
X109857143Y-39958328D01*
X109500000Y-38386900D02*
X109142857Y-39458328D01*
X109142857Y-39458328D02*
X110071428Y-39458328D01*
D10*
D11*
X34500000Y-38458328D02*
X34500000Y-39529757D01*
X34500000Y-39529757D02*
X34428571Y-39744042D01*
X34428571Y-39744042D02*
X34285714Y-39886900D01*
X34285714Y-39886900D02*
X34071428Y-39958328D01*
X34071428Y-39958328D02*
X33928571Y-39958328D01*
X35071428Y-38458328D02*
X36000000Y-38458328D01*
X36000000Y-38458328D02*
X35500000Y-39029757D01*
X35500000Y-39029757D02*
X35714285Y-39029757D01*
X35714285Y-39029757D02*
X35857143Y-39101185D01*
X35857143Y-39101185D02*
X35928571Y-39172614D01*
X35928571Y-39172614D02*
X36000000Y-39315471D01*
X36000000Y-39315471D02*
X36000000Y-39672614D01*
X36000000Y-39672614D02*
X35928571Y-39815471D01*
X35928571Y-39815471D02*
X35857143Y-39886900D01*
X35857143Y-39886900D02*
X35714285Y-39958328D01*
X35714285Y-39958328D02*
X35285714Y-39958328D01*
X35285714Y-39958328D02*
X35142857Y-39886900D01*
X35142857Y-39886900D02*
X35071428Y-39815471D01*
D10*
D11*
X34500000Y-25453328D02*
X34500000Y-26524757D01*
X34500000Y-26524757D02*
X34428571Y-26739042D01*
X34428571Y-26739042D02*
X34285714Y-26881900D01*
X34285714Y-26881900D02*
X34071428Y-26953328D01*
X34071428Y-26953328D02*
X33928571Y-26953328D01*
X36000000Y-26953328D02*
X35142857Y-26953328D01*
X35571428Y-26953328D02*
X35571428Y-25453328D01*
X35571428Y-25453328D02*
X35428571Y-25667614D01*
X35428571Y-25667614D02*
X35285714Y-25810471D01*
X35285714Y-25810471D02*
X35142857Y-25881900D01*
D10*
D11*
X108500000Y-25453328D02*
X108500000Y-26524757D01*
X108500000Y-26524757D02*
X108428571Y-26739042D01*
X108428571Y-26739042D02*
X108285714Y-26881900D01*
X108285714Y-26881900D02*
X108071428Y-26953328D01*
X108071428Y-26953328D02*
X107928571Y-26953328D01*
X109142857Y-25596185D02*
X109214285Y-25524757D01*
X109214285Y-25524757D02*
X109357143Y-25453328D01*
X109357143Y-25453328D02*
X109714285Y-25453328D01*
X109714285Y-25453328D02*
X109857143Y-25524757D01*
X109857143Y-25524757D02*
X109928571Y-25596185D01*
X109928571Y-25596185D02*
X110000000Y-25739042D01*
X110000000Y-25739042D02*
X110000000Y-25881900D01*
X110000000Y-25881900D02*
X109928571Y-26096185D01*
X109928571Y-26096185D02*
X109071428Y-26953328D01*
X109071428Y-26953328D02*
X110000000Y-26953328D01*
D10*
D11*
X65685000Y-55553328D02*
X64970714Y-55553328D01*
X64970714Y-55553328D02*
X64970714Y-54053328D01*
X66970715Y-55553328D02*
X66113572Y-55553328D01*
X66542143Y-55553328D02*
X66542143Y-54053328D01*
X66542143Y-54053328D02*
X66399286Y-54267614D01*
X66399286Y-54267614D02*
X66256429Y-54410471D01*
X66256429Y-54410471D02*
X66113572Y-54481900D01*
D10*
D11*
X34642142Y-90343328D02*
X34642142Y-91557614D01*
X34642142Y-91557614D02*
X34713571Y-91700471D01*
X34713571Y-91700471D02*
X34785000Y-91771900D01*
X34785000Y-91771900D02*
X34927857Y-91843328D01*
X34927857Y-91843328D02*
X35213571Y-91843328D01*
X35213571Y-91843328D02*
X35356428Y-91771900D01*
X35356428Y-91771900D02*
X35427857Y-91700471D01*
X35427857Y-91700471D02*
X35499285Y-91557614D01*
X35499285Y-91557614D02*
X35499285Y-90343328D01*
X36999286Y-91843328D02*
X36142143Y-91843328D01*
X36570714Y-91843328D02*
X36570714Y-90343328D01*
X36570714Y-90343328D02*
X36427857Y-90557614D01*
X36427857Y-90557614D02*
X36285000Y-90700471D01*
X36285000Y-90700471D02*
X36142143Y-90771900D01*
D10*
D11*
X79999700Y-95903328D02*
X79499700Y-95189042D01*
X79142557Y-95903328D02*
X79142557Y-94403328D01*
X79142557Y-94403328D02*
X79713986Y-94403328D01*
X79713986Y-94403328D02*
X79856843Y-94474757D01*
X79856843Y-94474757D02*
X79928272Y-94546185D01*
X79928272Y-94546185D02*
X79999700Y-94689042D01*
X79999700Y-94689042D02*
X79999700Y-94903328D01*
X79999700Y-94903328D02*
X79928272Y-95046185D01*
X79928272Y-95046185D02*
X79856843Y-95117614D01*
X79856843Y-95117614D02*
X79713986Y-95189042D01*
X79713986Y-95189042D02*
X79142557Y-95189042D01*
X81428272Y-95903328D02*
X80571129Y-95903328D01*
X80999700Y-95903328D02*
X80999700Y-94403328D01*
X80999700Y-94403328D02*
X80856843Y-94617614D01*
X80856843Y-94617614D02*
X80713986Y-94760471D01*
X80713986Y-94760471D02*
X80571129Y-94831900D01*
D10*
D11*
X35135000Y-111153328D02*
X34635000Y-110439042D01*
X34277857Y-111153328D02*
X34277857Y-109653328D01*
X34277857Y-109653328D02*
X34849286Y-109653328D01*
X34849286Y-109653328D02*
X34992143Y-109724757D01*
X34992143Y-109724757D02*
X35063572Y-109796185D01*
X35063572Y-109796185D02*
X35135000Y-109939042D01*
X35135000Y-109939042D02*
X35135000Y-110153328D01*
X35135000Y-110153328D02*
X35063572Y-110296185D01*
X35063572Y-110296185D02*
X34992143Y-110367614D01*
X34992143Y-110367614D02*
X34849286Y-110439042D01*
X34849286Y-110439042D02*
X34277857Y-110439042D01*
X35706429Y-109796185D02*
X35777857Y-109724757D01*
X35777857Y-109724757D02*
X35920715Y-109653328D01*
X35920715Y-109653328D02*
X36277857Y-109653328D01*
X36277857Y-109653328D02*
X36420715Y-109724757D01*
X36420715Y-109724757D02*
X36492143Y-109796185D01*
X36492143Y-109796185D02*
X36563572Y-109939042D01*
X36563572Y-109939042D02*
X36563572Y-110081900D01*
X36563572Y-110081900D02*
X36492143Y-110296185D01*
X36492143Y-110296185D02*
X35635000Y-111153328D01*
X35635000Y-111153328D02*
X36563572Y-111153328D01*
D10*
D11*
X35847857Y-71228328D02*
X35847857Y-69728328D01*
X35847857Y-69728328D02*
X36205000Y-69728328D01*
X36205000Y-69728328D02*
X36419286Y-69799757D01*
X36419286Y-69799757D02*
X36562143Y-69942614D01*
X36562143Y-69942614D02*
X36633572Y-70085471D01*
X36633572Y-70085471D02*
X36705000Y-70371185D01*
X36705000Y-70371185D02*
X36705000Y-70585471D01*
X36705000Y-70585471D02*
X36633572Y-70871185D01*
X36633572Y-70871185D02*
X36562143Y-71014042D01*
X36562143Y-71014042D02*
X36419286Y-71156900D01*
X36419286Y-71156900D02*
X36205000Y-71228328D01*
X36205000Y-71228328D02*
X35847857Y-71228328D01*
X38133572Y-71228328D02*
X37276429Y-71228328D01*
X37705000Y-71228328D02*
X37705000Y-69728328D01*
X37705000Y-69728328D02*
X37562143Y-69942614D01*
X37562143Y-69942614D02*
X37419286Y-70085471D01*
X37419286Y-70085471D02*
X37276429Y-70156900D01*
D10*
D11*
X50192351Y-93010471D02*
X50120923Y-93081900D01*
X50120923Y-93081900D02*
X49906637Y-93153328D01*
X49906637Y-93153328D02*
X49763780Y-93153328D01*
X49763780Y-93153328D02*
X49549494Y-93081900D01*
X49549494Y-93081900D02*
X49406637Y-92939042D01*
X49406637Y-92939042D02*
X49335208Y-92796185D01*
X49335208Y-92796185D02*
X49263780Y-92510471D01*
X49263780Y-92510471D02*
X49263780Y-92296185D01*
X49263780Y-92296185D02*
X49335208Y-92010471D01*
X49335208Y-92010471D02*
X49406637Y-91867614D01*
X49406637Y-91867614D02*
X49549494Y-91724757D01*
X49549494Y-91724757D02*
X49763780Y-91653328D01*
X49763780Y-91653328D02*
X49906637Y-91653328D01*
X49906637Y-91653328D02*
X50120923Y-91724757D01*
X50120923Y-91724757D02*
X50192351Y-91796185D01*
X51620923Y-93153328D02*
X50763780Y-93153328D01*
X51192351Y-93153328D02*
X51192351Y-91653328D01*
X51192351Y-91653328D02*
X51049494Y-91867614D01*
X51049494Y-91867614D02*
X50906637Y-92010471D01*
X50906637Y-92010471D02*
X50763780Y-92081900D01*
D10*
D11*
X63875414Y-94953328D02*
X63875414Y-93453328D01*
X63875414Y-93453328D02*
X64375414Y-94524757D01*
X64375414Y-94524757D02*
X64875414Y-93453328D01*
X64875414Y-93453328D02*
X64875414Y-94953328D01*
X66375415Y-94953328D02*
X65518272Y-94953328D01*
X65946843Y-94953328D02*
X65946843Y-93453328D01*
X65946843Y-93453328D02*
X65803986Y-93667614D01*
X65803986Y-93667614D02*
X65661129Y-93810471D01*
X65661129Y-93810471D02*
X65518272Y-93881900D01*
D12*
%TO.P,J3,1*%
%TO.N,PWM*%
X35000000Y-45325000D03*
D13*
%TO.P,J3,2*%
%TO.N,GND_MCU*%
X35000000Y-42785000D03*
%TD*%
D14*
%TO.P,D1,1*%
%TO.N,/SW*%
X31875000Y-73875000D03*
D15*
%TO.P,D1,2*%
%TO.N,/GND*%
X42035000Y-73875000D03*
%TD*%
D16*
%TO.P,U1,1*%
%TO.N,Net-(R1-Pad2)*%
X31975000Y-95910000D03*
D17*
%TO.P,U1,2*%
%TO.N,GND_MCU*%
X31975000Y-98450000D03*
%TO.P,U1,3*%
%TO.N,N/C*%
X31975000Y-100990000D03*
%TO.P,U1,4*%
%TO.N,GATE*%
X39595000Y-100990000D03*
%TO.P,U1,5*%
%TO.N,+12V_SW*%
X39595000Y-98450000D03*
%TO.P,U1,6*%
%TO.N,N/C*%
X39595000Y-95910000D03*
%TD*%
D12*
%TO.P,J4,1*%
%TO.N,+12V_SW*%
X109000000Y-42775000D03*
D13*
%TO.P,J4,2*%
%TO.N,/SW*%
X109000000Y-45315000D03*
%TD*%
D18*
%TO.P,M1,1*%
%TO.N,GATE*%
X62549700Y-99400000D03*
D19*
%TO.P,M1,2*%
%TO.N,/VIN_15V*%
X65089700Y-99400000D03*
%TO.P,M1,3*%
%TO.N,/SW*%
X67629700Y-99400000D03*
%TD*%
D20*
%TO.P,J2,1*%
%TO.N,/VOUT_5V*%
X106460000Y-32000000D03*
D21*
%TO.P,J2,2*%
%TO.N,/GND*%
X111540000Y-32000000D03*
%TD*%
D22*
%TO.P,R2,1*%
%TO.N,GATE*%
X31575000Y-107250000D03*
%TO.P,R2,2*%
%TO.N,/SW*%
X39195000Y-107250000D03*
%TD*%
D23*
%TO.P,L1,1*%
%TO.N,/SW*%
X51835000Y-73875000D03*
%TO.P,L1,2*%
%TO.N,/VOUT_5V*%
X80035000Y-73875000D03*
%TD*%
D24*
%TO.P,C1,1*%
%TO.N,/VOUT_5V*%
X48789700Y-98450000D03*
D22*
%TO.P,C1,2*%
%TO.N,/GND*%
X52289700Y-98450000D03*
%TD*%
D20*
%TO.P,J1,1*%
%TO.N,/VIN_15V*%
X37540000Y-32000000D03*
D21*
%TO.P,J1,2*%
%TO.N,/GND*%
X32460000Y-32000000D03*
%TD*%
D22*
%TO.P,R1,1*%
%TO.N,PWM*%
X76439700Y-98450000D03*
%TO.P,R1,2*%
%TO.N,Net-(R1-Pad2)*%
X84059700Y-98450000D03*
%TD*%
D25*
%TO.N,/SW*%
X44743300Y-101701700D02*
X39195000Y-107250000D01*
X67629700Y-99400000D02*
X67629700Y-101701700D01*
X67629700Y-101701700D02*
X44743300Y-101701700D01*
%TD*%
%TA.AperFunction,NonConductor*%
G36*
X123442539Y-20520185D02*
G01*
X123488294Y-20572989D01*
X123499500Y-20624500D01*
X123499500Y-123375500D01*
X123479815Y-123442539D01*
X123427011Y-123488294D01*
X123375500Y-123499500D01*
X20624500Y-123499500D01*
X20557461Y-123479815D01*
X20511706Y-123427011D01*
X20500500Y-123375500D01*
X20500500Y-112111655D01*
X33322357Y-112111655D01*
X37520797Y-112111655D01*
X37520797Y-108696103D01*
X33322357Y-108696103D01*
X33322357Y-112111655D01*
X20500500Y-112111655D01*
X20500500Y-107124038D01*
X29974500Y-107124038D01*
X29974500Y-107375961D01*
X30013910Y-107624785D01*
X30091760Y-107864383D01*
X30206132Y-108088848D01*
X30354201Y-108292649D01*
X30354205Y-108292654D01*
X30532345Y-108470794D01*
X30532350Y-108470798D01*
X30633687Y-108544423D01*
X30736155Y-108618870D01*
X30879184Y-108691747D01*
X30960616Y-108733239D01*
X30960618Y-108733239D01*
X30960621Y-108733241D01*
X31200215Y-108811090D01*
X31449038Y-108850500D01*
X31449039Y-108850500D01*
X31700961Y-108850500D01*
X31700962Y-108850500D01*
X31949785Y-108811090D01*
X32189379Y-108733241D01*
X32413845Y-108618870D01*
X32462547Y-108583485D01*
X32516314Y-108544423D01*
X32617649Y-108470798D01*
X32617647Y-108470798D01*
X32617656Y-108470793D01*
X32795793Y-108292656D01*
X32943870Y-108088845D01*
X33058241Y-107864379D01*
X33136090Y-107624785D01*
X33175500Y-107375962D01*
X33175500Y-107124038D01*
X37594500Y-107124038D01*
X37594500Y-107375961D01*
X37633910Y-107624785D01*
X37711760Y-107864383D01*
X37826132Y-108088848D01*
X37974201Y-108292649D01*
X37974205Y-108292654D01*
X38152345Y-108470794D01*
X38152350Y-108470798D01*
X38253687Y-108544423D01*
X38356155Y-108618870D01*
X38499184Y-108691747D01*
X38580616Y-108733239D01*
X38580618Y-108733239D01*
X38580621Y-108733241D01*
X38820215Y-108811090D01*
X39069038Y-108850500D01*
X39069039Y-108850500D01*
X39320961Y-108850500D01*
X39320962Y-108850500D01*
X39569785Y-108811090D01*
X39809379Y-108733241D01*
X40033845Y-108618870D01*
X40237656Y-108470793D01*
X40415793Y-108292656D01*
X40563870Y-108088845D01*
X40678241Y-107864379D01*
X40756090Y-107624785D01*
X40767984Y-107549687D01*
X40797911Y-107486557D01*
X40802757Y-107481426D01*
X45245666Y-103038519D01*
X45306989Y-103005034D01*
X45333347Y-103002200D01*
X67732051Y-103002200D01*
X67732052Y-103002200D01*
X67934234Y-102970177D01*
X68128919Y-102906920D01*
X68311310Y-102813987D01*
X68404290Y-102746432D01*
X68476913Y-102693671D01*
X68476915Y-102693668D01*
X68476919Y-102693666D01*
X68621666Y-102548919D01*
X68621668Y-102548915D01*
X68621671Y-102548913D01*
X68676650Y-102473239D01*
X68741987Y-102383310D01*
X68834920Y-102200919D01*
X68898177Y-102006234D01*
X68930200Y-101804052D01*
X68930200Y-100608303D01*
X68949885Y-100541264D01*
X68953864Y-100535442D01*
X69041334Y-100415051D01*
X69159279Y-100183572D01*
X69239560Y-99936493D01*
X69269674Y-99746358D01*
X69280200Y-99679902D01*
X69280200Y-99120097D01*
X69258647Y-98984021D01*
X69239560Y-98863507D01*
X69159279Y-98616428D01*
X69159277Y-98616425D01*
X69159277Y-98616423D01*
X69041332Y-98384946D01*
X69041330Y-98384943D01*
X68997080Y-98324038D01*
X74839200Y-98324038D01*
X74839200Y-98575962D01*
X74845609Y-98616428D01*
X74878610Y-98824785D01*
X74956460Y-99064383D01*
X75070832Y-99288848D01*
X75218901Y-99492649D01*
X75218905Y-99492654D01*
X75397045Y-99670794D01*
X75397050Y-99670798D01*
X75574817Y-99799952D01*
X75600855Y-99818870D01*
X75716286Y-99877685D01*
X75825316Y-99933239D01*
X75825318Y-99933239D01*
X75825321Y-99933241D01*
X76064915Y-100011090D01*
X76313738Y-100050500D01*
X76313739Y-100050500D01*
X76565661Y-100050500D01*
X76565662Y-100050500D01*
X76814485Y-100011090D01*
X77054079Y-99933241D01*
X77278545Y-99818870D01*
X77482356Y-99670793D01*
X77660493Y-99492656D01*
X77808570Y-99288845D01*
X77922941Y-99064379D01*
X78000790Y-98824785D01*
X78040200Y-98575962D01*
X78040200Y-98324038D01*
X82459200Y-98324038D01*
X82459200Y-98575962D01*
X82465609Y-98616428D01*
X82498610Y-98824785D01*
X82576460Y-99064383D01*
X82690832Y-99288848D01*
X82838901Y-99492649D01*
X82838905Y-99492654D01*
X83017045Y-99670794D01*
X83017050Y-99670798D01*
X83194817Y-99799952D01*
X83220855Y-99818870D01*
X83336286Y-99877685D01*
X83445316Y-99933239D01*
X83445318Y-99933239D01*
X83445321Y-99933241D01*
X83684915Y-100011090D01*
X83933738Y-100050500D01*
X83933739Y-100050500D01*
X84185661Y-100050500D01*
X84185662Y-100050500D01*
X84434485Y-100011090D01*
X84674079Y-99933241D01*
X84898545Y-99818870D01*
X85102356Y-99670793D01*
X85280493Y-99492656D01*
X85428570Y-99288845D01*
X85542941Y-99064379D01*
X85620790Y-98824785D01*
X85660200Y-98575962D01*
X85660200Y-98324038D01*
X85620790Y-98075215D01*
X85542941Y-97835621D01*
X85542939Y-97835618D01*
X85542939Y-97835616D01*
X85484244Y-97720421D01*
X85428570Y-97611155D01*
X85344939Y-97496046D01*
X85280498Y-97407350D01*
X85280494Y-97407345D01*
X85102354Y-97229205D01*
X85102349Y-97229201D01*
X84898548Y-97081132D01*
X84898547Y-97081131D01*
X84898545Y-97081130D01*
X84783118Y-97022317D01*
X84674083Y-96966760D01*
X84434485Y-96888910D01*
X84281630Y-96864700D01*
X84185662Y-96849500D01*
X83933738Y-96849500D01*
X83856995Y-96861655D01*
X83684914Y-96888910D01*
X83445316Y-96966760D01*
X83220851Y-97081132D01*
X83017050Y-97229201D01*
X83017045Y-97229205D01*
X82838905Y-97407345D01*
X82838901Y-97407350D01*
X82690832Y-97611151D01*
X82576460Y-97835616D01*
X82498610Y-98075214D01*
X82498610Y-98075215D01*
X82459200Y-98324038D01*
X78040200Y-98324038D01*
X78000790Y-98075215D01*
X77922941Y-97835621D01*
X77922939Y-97835618D01*
X77922939Y-97835616D01*
X77864244Y-97720421D01*
X77808570Y-97611155D01*
X77724939Y-97496046D01*
X77660498Y-97407350D01*
X77660494Y-97407345D01*
X77482354Y-97229205D01*
X77482349Y-97229201D01*
X77278548Y-97081132D01*
X77278547Y-97081131D01*
X77278545Y-97081130D01*
X77163118Y-97022317D01*
X77054083Y-96966760D01*
X76814485Y-96888910D01*
X76661630Y-96864700D01*
X76642405Y-96861655D01*
X78187057Y-96861655D01*
X82383772Y-96861655D01*
X82383772Y-93444984D01*
X78187057Y-93444984D01*
X78187057Y-96861655D01*
X76642405Y-96861655D01*
X76565662Y-96849500D01*
X76313738Y-96849500D01*
X76236995Y-96861655D01*
X76064914Y-96888910D01*
X75825316Y-96966760D01*
X75600851Y-97081132D01*
X75397050Y-97229201D01*
X75397045Y-97229205D01*
X75218905Y-97407345D01*
X75218901Y-97407350D01*
X75070832Y-97611151D01*
X74956460Y-97835616D01*
X74878610Y-98075214D01*
X74878610Y-98075215D01*
X74839200Y-98324038D01*
X68997080Y-98324038D01*
X68888633Y-98174774D01*
X68888628Y-98174768D01*
X68704931Y-97991071D01*
X68704925Y-97991066D01*
X68494754Y-97838368D01*
X68494753Y-97838367D01*
X68494751Y-97838366D01*
X68422464Y-97801534D01*
X68263276Y-97720422D01*
X68016193Y-97640140D01*
X67759602Y-97599500D01*
X67759597Y-97599500D01*
X67499803Y-97599500D01*
X67499798Y-97599500D01*
X67243206Y-97640140D01*
X66996123Y-97720422D01*
X66764645Y-97838368D01*
X66554474Y-97991066D01*
X66554468Y-97991071D01*
X66447381Y-98098159D01*
X66386058Y-98131644D01*
X66316366Y-98126660D01*
X66272019Y-98098159D01*
X66164931Y-97991071D01*
X66164925Y-97991066D01*
X65954754Y-97838368D01*
X65954753Y-97838367D01*
X65954751Y-97838366D01*
X65882464Y-97801534D01*
X65723276Y-97720422D01*
X65476193Y-97640140D01*
X65219602Y-97599500D01*
X65219597Y-97599500D01*
X64959803Y-97599500D01*
X64959798Y-97599500D01*
X64703206Y-97640140D01*
X64456123Y-97720422D01*
X64224646Y-97838367D01*
X64162919Y-97883214D01*
X64097113Y-97906693D01*
X64029059Y-97890867D01*
X64002354Y-97870576D01*
X63901962Y-97770184D01*
X63749223Y-97674211D01*
X63578954Y-97614631D01*
X63578949Y-97614630D01*
X63444660Y-97599500D01*
X63444654Y-97599500D01*
X61654746Y-97599500D01*
X61654739Y-97599500D01*
X61520450Y-97614630D01*
X61520445Y-97614631D01*
X61350176Y-97674211D01*
X61197437Y-97770184D01*
X61069884Y-97897737D01*
X60973911Y-98050476D01*
X60914331Y-98220745D01*
X60914330Y-98220750D01*
X60899200Y-98355039D01*
X60899200Y-100277200D01*
X60879515Y-100344239D01*
X60826711Y-100389994D01*
X60775200Y-100401200D01*
X44845652Y-100401200D01*
X44640948Y-100401200D01*
X44573553Y-100411874D01*
X44438763Y-100433223D01*
X44341423Y-100464850D01*
X44341423Y-100464851D01*
X44288652Y-100481997D01*
X44244074Y-100496482D01*
X44152884Y-100542945D01*
X44152885Y-100542946D01*
X44061688Y-100589413D01*
X43896078Y-100709736D01*
X38963590Y-105642223D01*
X38902267Y-105675708D01*
X38895309Y-105677015D01*
X38820217Y-105688909D01*
X38580618Y-105766760D01*
X38356151Y-105881132D01*
X38152350Y-106029201D01*
X38152345Y-106029205D01*
X37974205Y-106207345D01*
X37974201Y-106207350D01*
X37826132Y-106411151D01*
X37711760Y-106635616D01*
X37633910Y-106875214D01*
X37594500Y-107124038D01*
X33175500Y-107124038D01*
X33136090Y-106875215D01*
X33058241Y-106635621D01*
X33058239Y-106635618D01*
X33058239Y-106635616D01*
X33016747Y-106554184D01*
X32943870Y-106411155D01*
X32924952Y-106385117D01*
X32795798Y-106207350D01*
X32795794Y-106207345D01*
X32617654Y-106029205D01*
X32617649Y-106029201D01*
X32413848Y-105881132D01*
X32413847Y-105881131D01*
X32413845Y-105881130D01*
X32343747Y-105845413D01*
X32189383Y-105766760D01*
X31949785Y-105688910D01*
X31949779Y-105688909D01*
X31700962Y-105649500D01*
X31449038Y-105649500D01*
X31324626Y-105669205D01*
X31200214Y-105688910D01*
X30960616Y-105766760D01*
X30736151Y-105881132D01*
X30532350Y-106029201D01*
X30532345Y-106029205D01*
X30354205Y-106207345D01*
X30354201Y-106207350D01*
X30206132Y-106411151D01*
X30091760Y-106635616D01*
X30013910Y-106875214D01*
X29974500Y-107124038D01*
X20500500Y-107124038D01*
X20500500Y-95308392D01*
X29974500Y-95308392D01*
X29974500Y-96511608D01*
X29979502Y-96562398D01*
X29989699Y-96665932D01*
X29989700Y-96665934D01*
X30049768Y-96863954D01*
X30147315Y-97046450D01*
X30216533Y-97130793D01*
X30278590Y-97206410D01*
X30327049Y-97246180D01*
X30366383Y-97303926D01*
X30368254Y-97373770D01*
X30348703Y-97414918D01*
X30206129Y-97611155D01*
X30091760Y-97835616D01*
X30013910Y-98075214D01*
X30013910Y-98075215D01*
X29974500Y-98324038D01*
X29974500Y-98575962D01*
X29980909Y-98616428D01*
X30013910Y-98824785D01*
X30091760Y-99064383D01*
X30206132Y-99288848D01*
X30354201Y-99492649D01*
X30354205Y-99492654D01*
X30493870Y-99632319D01*
X30527355Y-99693642D01*
X30522371Y-99763334D01*
X30493870Y-99807681D01*
X30354205Y-99947345D01*
X30354201Y-99947350D01*
X30206132Y-100151151D01*
X30091760Y-100375616D01*
X30013910Y-100615214D01*
X29974500Y-100864038D01*
X29974500Y-101115961D01*
X30013910Y-101364785D01*
X30091760Y-101604383D01*
X30170413Y-101758747D01*
X30193497Y-101804052D01*
X30206132Y-101828848D01*
X30354201Y-102032649D01*
X30354205Y-102032654D01*
X30532345Y-102210794D01*
X30532350Y-102210798D01*
X30710117Y-102339952D01*
X30736155Y-102358870D01*
X30879184Y-102431747D01*
X30960616Y-102473239D01*
X30960618Y-102473239D01*
X30960621Y-102473241D01*
X31200215Y-102551090D01*
X31449038Y-102590500D01*
X31449039Y-102590500D01*
X32500961Y-102590500D01*
X32500962Y-102590500D01*
X32749785Y-102551090D01*
X32989379Y-102473241D01*
X33213845Y-102358870D01*
X33417656Y-102210793D01*
X33595793Y-102032656D01*
X33743870Y-101828845D01*
X33858241Y-101604379D01*
X33936090Y-101364785D01*
X33975500Y-101115962D01*
X33975500Y-100864038D01*
X33936090Y-100615215D01*
X33858241Y-100375621D01*
X33858239Y-100375618D01*
X33858239Y-100375616D01*
X33760387Y-100183572D01*
X33743870Y-100151155D01*
X33642107Y-100011090D01*
X33595798Y-99947350D01*
X33595794Y-99947345D01*
X33456130Y-99807681D01*
X33422645Y-99746358D01*
X33427629Y-99676666D01*
X33456130Y-99632319D01*
X33501999Y-99586450D01*
X33595793Y-99492656D01*
X33743870Y-99288845D01*
X33858241Y-99064379D01*
X33936090Y-98824785D01*
X33975500Y-98575962D01*
X33975500Y-98324038D01*
X33936090Y-98075215D01*
X33858241Y-97835621D01*
X33858239Y-97835618D01*
X33858239Y-97835616D01*
X33799544Y-97720421D01*
X33743870Y-97611155D01*
X33660239Y-97496046D01*
X33601296Y-97414918D01*
X33577816Y-97349112D01*
X33593641Y-97281058D01*
X33622948Y-97246181D01*
X33671410Y-97206410D01*
X33802685Y-97046450D01*
X33900232Y-96863954D01*
X33960300Y-96665934D01*
X33975500Y-96511608D01*
X33975500Y-95784038D01*
X37594500Y-95784038D01*
X37594500Y-96035961D01*
X37633910Y-96284785D01*
X37711760Y-96524383D01*
X37826132Y-96748848D01*
X37974201Y-96952649D01*
X37974205Y-96952654D01*
X38113870Y-97092319D01*
X38147355Y-97153642D01*
X38142371Y-97223334D01*
X38113870Y-97267681D01*
X37974205Y-97407345D01*
X37974201Y-97407350D01*
X37826132Y-97611151D01*
X37711760Y-97835616D01*
X37633910Y-98075214D01*
X37633910Y-98075215D01*
X37594500Y-98324038D01*
X37594500Y-98575962D01*
X37600909Y-98616428D01*
X37633910Y-98824785D01*
X37711760Y-99064383D01*
X37826132Y-99288848D01*
X37974201Y-99492649D01*
X37974205Y-99492654D01*
X38113870Y-99632319D01*
X38147355Y-99693642D01*
X38142371Y-99763334D01*
X38113870Y-99807681D01*
X37974205Y-99947345D01*
X37974201Y-99947350D01*
X37826132Y-100151151D01*
X37711760Y-100375616D01*
X37633910Y-100615214D01*
X37594500Y-100864038D01*
X37594500Y-101115961D01*
X37633910Y-101364785D01*
X37711760Y-101604383D01*
X37790413Y-101758747D01*
X37813497Y-101804052D01*
X37826132Y-101828848D01*
X37974201Y-102032649D01*
X37974205Y-102032654D01*
X38152345Y-102210794D01*
X38152350Y-102210798D01*
X38330117Y-102339952D01*
X38356155Y-102358870D01*
X38499184Y-102431747D01*
X38580616Y-102473239D01*
X38580618Y-102473239D01*
X38580621Y-102473241D01*
X38820215Y-102551090D01*
X39069038Y-102590500D01*
X39069039Y-102590500D01*
X40120961Y-102590500D01*
X40120962Y-102590500D01*
X40369785Y-102551090D01*
X40609379Y-102473241D01*
X40833845Y-102358870D01*
X41037656Y-102210793D01*
X41215793Y-102032656D01*
X41363870Y-101828845D01*
X41478241Y-101604379D01*
X41556090Y-101364785D01*
X41595500Y-101115962D01*
X41595500Y-100864038D01*
X41556090Y-100615215D01*
X41478241Y-100375621D01*
X41478239Y-100375618D01*
X41478239Y-100375616D01*
X41380387Y-100183572D01*
X41363870Y-100151155D01*
X41262107Y-100011090D01*
X41215798Y-99947350D01*
X41215794Y-99947345D01*
X41076130Y-99807681D01*
X41042645Y-99746358D01*
X41047629Y-99676666D01*
X41076130Y-99632319D01*
X41121999Y-99586450D01*
X41215793Y-99492656D01*
X41363870Y-99288845D01*
X41478241Y-99064379D01*
X41556090Y-98824785D01*
X41595500Y-98575962D01*
X41595500Y-98324038D01*
X41556090Y-98075215D01*
X41556089Y-98075211D01*
X41556089Y-98075210D01*
X41493852Y-97883666D01*
X41488513Y-97867237D01*
X41482390Y-97848392D01*
X47189200Y-97848392D01*
X47189200Y-99051608D01*
X47194202Y-99102398D01*
X47204399Y-99205932D01*
X47204400Y-99205934D01*
X47264468Y-99403954D01*
X47362015Y-99586450D01*
X47362017Y-99586452D01*
X47493289Y-99746410D01*
X47521068Y-99769207D01*
X47653250Y-99877685D01*
X47835746Y-99975232D01*
X48033766Y-100035300D01*
X48033765Y-100035300D01*
X48072347Y-100039100D01*
X48188092Y-100050500D01*
X48188095Y-100050500D01*
X49391305Y-100050500D01*
X49391308Y-100050500D01*
X49545634Y-100035300D01*
X49743654Y-99975232D01*
X49926150Y-99877685D01*
X50086110Y-99746410D01*
X50217385Y-99586450D01*
X50314932Y-99403954D01*
X50375000Y-99205934D01*
X50390200Y-99051608D01*
X50390200Y-98324038D01*
X50689200Y-98324038D01*
X50689200Y-98575962D01*
X50695609Y-98616428D01*
X50728610Y-98824785D01*
X50806460Y-99064383D01*
X50920832Y-99288848D01*
X51068901Y-99492649D01*
X51068905Y-99492654D01*
X51247045Y-99670794D01*
X51247050Y-99670798D01*
X51424817Y-99799952D01*
X51450855Y-99818870D01*
X51566286Y-99877685D01*
X51675316Y-99933239D01*
X51675318Y-99933239D01*
X51675321Y-99933241D01*
X51914915Y-100011090D01*
X52163738Y-100050500D01*
X52163739Y-100050500D01*
X52415661Y-100050500D01*
X52415662Y-100050500D01*
X52664485Y-100011090D01*
X52904079Y-99933241D01*
X53128545Y-99818870D01*
X53332356Y-99670793D01*
X53510493Y-99492656D01*
X53658570Y-99288845D01*
X53772941Y-99064379D01*
X53850790Y-98824785D01*
X53890200Y-98575962D01*
X53890200Y-98324038D01*
X53850790Y-98075215D01*
X53772941Y-97835621D01*
X53772939Y-97835618D01*
X53772939Y-97835616D01*
X53714244Y-97720421D01*
X53658570Y-97611155D01*
X53574939Y-97496046D01*
X53510498Y-97407350D01*
X53510494Y-97407345D01*
X53332354Y-97229205D01*
X53332349Y-97229201D01*
X53128548Y-97081132D01*
X53128547Y-97081131D01*
X53128545Y-97081130D01*
X53013118Y-97022317D01*
X52904083Y-96966760D01*
X52664485Y-96888910D01*
X52511630Y-96864700D01*
X52415662Y-96849500D01*
X52163738Y-96849500D01*
X52086995Y-96861655D01*
X51914914Y-96888910D01*
X51675316Y-96966760D01*
X51450851Y-97081132D01*
X51247050Y-97229201D01*
X51247045Y-97229205D01*
X51068905Y-97407345D01*
X51068901Y-97407350D01*
X50920832Y-97611151D01*
X50806460Y-97835616D01*
X50728610Y-98075214D01*
X50728610Y-98075215D01*
X50689200Y-98324038D01*
X50390200Y-98324038D01*
X50390200Y-97848392D01*
X50375000Y-97694066D01*
X50314932Y-97496046D01*
X50217385Y-97313550D01*
X50129458Y-97206410D01*
X50086110Y-97153589D01*
X49926152Y-97022317D01*
X49926153Y-97022317D01*
X49926150Y-97022315D01*
X49743654Y-96924768D01*
X49545634Y-96864700D01*
X49545632Y-96864699D01*
X49545634Y-96864699D01*
X49426505Y-96852966D01*
X49391308Y-96849500D01*
X48188092Y-96849500D01*
X48149998Y-96853251D01*
X48033767Y-96864699D01*
X47835743Y-96924769D01*
X47757187Y-96966759D01*
X47653250Y-97022315D01*
X47653248Y-97022316D01*
X47653247Y-97022317D01*
X47493289Y-97153589D01*
X47399658Y-97267681D01*
X47362015Y-97313550D01*
X47323343Y-97385898D01*
X47264469Y-97496043D01*
X47204399Y-97694067D01*
X47196903Y-97770184D01*
X47189200Y-97848392D01*
X41482390Y-97848392D01*
X41478241Y-97835621D01*
X41478239Y-97835618D01*
X41478239Y-97835616D01*
X41419544Y-97720421D01*
X41363870Y-97611155D01*
X41280239Y-97496046D01*
X41215798Y-97407350D01*
X41215794Y-97407345D01*
X41076130Y-97267681D01*
X41042645Y-97206358D01*
X41047629Y-97136666D01*
X41076130Y-97092319D01*
X41121999Y-97046450D01*
X41215793Y-96952656D01*
X41363870Y-96748845D01*
X41478241Y-96524379D01*
X41556090Y-96284785D01*
X41595500Y-96035962D01*
X41595500Y-95908828D01*
X62918753Y-95908828D01*
X67330915Y-95908828D01*
X67330915Y-92494984D01*
X62918753Y-92494984D01*
X62918753Y-95908828D01*
X41595500Y-95908828D01*
X41595500Y-95784038D01*
X41556090Y-95535215D01*
X41478241Y-95295621D01*
X41478239Y-95295618D01*
X41478239Y-95295616D01*
X41436747Y-95214184D01*
X41363870Y-95071155D01*
X41280239Y-94956046D01*
X41215798Y-94867350D01*
X41215794Y-94867345D01*
X41037654Y-94689205D01*
X41037649Y-94689201D01*
X40833848Y-94541132D01*
X40833847Y-94541131D01*
X40833845Y-94541130D01*
X40718418Y-94482317D01*
X40609383Y-94426760D01*
X40369785Y-94348910D01*
X40216930Y-94324700D01*
X40120962Y-94309500D01*
X39069038Y-94309500D01*
X38973076Y-94324699D01*
X38820214Y-94348910D01*
X38580616Y-94426760D01*
X38356151Y-94541132D01*
X38152350Y-94689201D01*
X38152345Y-94689205D01*
X37974205Y-94867345D01*
X37974201Y-94867350D01*
X37826132Y-95071151D01*
X37711760Y-95295616D01*
X37633910Y-95535214D01*
X37594500Y-95784038D01*
X33975500Y-95784038D01*
X33975500Y-95308392D01*
X33960300Y-95154066D01*
X33900232Y-94956046D01*
X33802685Y-94773550D01*
X33733462Y-94689201D01*
X33671410Y-94613589D01*
X33511452Y-94482317D01*
X33511453Y-94482317D01*
X33511450Y-94482315D01*
X33328954Y-94384768D01*
X33130934Y-94324700D01*
X33130932Y-94324699D01*
X33130934Y-94324699D01*
X33011805Y-94312966D01*
X32976608Y-94309500D01*
X30973392Y-94309500D01*
X30935298Y-94313251D01*
X30819067Y-94324699D01*
X30621043Y-94384769D01*
X30542487Y-94426759D01*
X30438550Y-94482315D01*
X30438548Y-94482316D01*
X30438547Y-94482317D01*
X30278589Y-94613589D01*
X30147317Y-94773547D01*
X30049769Y-94956043D01*
X29989699Y-95154067D01*
X29978251Y-95270298D01*
X29974500Y-95308392D01*
X20500500Y-95308392D01*
X20500500Y-94110553D01*
X48305576Y-94110553D01*
X52576423Y-94110553D01*
X52576423Y-90694984D01*
X48305576Y-90694984D01*
X48305576Y-94110553D01*
X20500500Y-94110553D01*
X20500500Y-92800553D01*
X33684917Y-92800553D01*
X37954786Y-92800553D01*
X37954786Y-89384984D01*
X33684917Y-89384984D01*
X33684917Y-92800553D01*
X20500500Y-92800553D01*
X20500500Y-72973394D01*
X29974500Y-72973394D01*
X29974500Y-74776604D01*
X29989699Y-74930932D01*
X29989700Y-74930935D01*
X30049768Y-75128955D01*
X30144903Y-75306939D01*
X30147317Y-75311454D01*
X30278589Y-75471410D01*
X30438545Y-75602682D01*
X30438549Y-75602685D01*
X30621045Y-75700232D01*
X30819065Y-75760300D01*
X30819064Y-75760300D01*
X30829968Y-75761373D01*
X30973391Y-75775500D01*
X32776608Y-75775499D01*
X32930935Y-75760300D01*
X33128955Y-75700232D01*
X33311451Y-75602685D01*
X33471410Y-75471410D01*
X33602685Y-75311451D01*
X33700232Y-75128955D01*
X33760300Y-74930935D01*
X33775500Y-74776609D01*
X33775499Y-73750441D01*
X40134500Y-73750441D01*
X40134500Y-73999558D01*
X40134501Y-73999575D01*
X40167017Y-74246561D01*
X40231498Y-74487207D01*
X40326830Y-74717361D01*
X40326837Y-74717376D01*
X40451400Y-74933126D01*
X40603060Y-75130774D01*
X40603066Y-75130781D01*
X40779218Y-75306933D01*
X40779225Y-75306939D01*
X40976873Y-75458599D01*
X41192623Y-75583162D01*
X41192638Y-75583169D01*
X41291825Y-75624253D01*
X41422793Y-75678502D01*
X41663435Y-75742982D01*
X41910435Y-75775500D01*
X41910442Y-75775500D01*
X42159558Y-75775500D01*
X42159565Y-75775500D01*
X42406565Y-75742982D01*
X42647207Y-75678502D01*
X42877373Y-75583164D01*
X43093127Y-75458599D01*
X43290776Y-75306938D01*
X43466938Y-75130776D01*
X43618599Y-74933127D01*
X43743164Y-74717373D01*
X43838502Y-74487207D01*
X43902982Y-74246565D01*
X43935500Y-73999565D01*
X43935500Y-73750435D01*
X43931193Y-73717722D01*
X49034500Y-73717722D01*
X49034500Y-74032277D01*
X49069716Y-74344827D01*
X49069718Y-74344843D01*
X49139710Y-74651499D01*
X49139711Y-74651501D01*
X49243598Y-74948395D01*
X49380072Y-75231786D01*
X49380074Y-75231789D01*
X49547423Y-75498123D01*
X49743539Y-75744044D01*
X49965956Y-75966461D01*
X50211877Y-76162577D01*
X50478211Y-76329926D01*
X50761606Y-76466402D01*
X51058500Y-76570289D01*
X51365160Y-76640282D01*
X51677723Y-76675499D01*
X51677724Y-76675500D01*
X51677727Y-76675500D01*
X51992276Y-76675500D01*
X51992276Y-76675499D01*
X52304840Y-76640282D01*
X52611500Y-76570289D01*
X52908394Y-76466402D01*
X53191789Y-76329926D01*
X53458123Y-76162577D01*
X53704044Y-75966461D01*
X53926461Y-75744044D01*
X54122577Y-75498123D01*
X54289926Y-75231789D01*
X54426402Y-74948394D01*
X54530289Y-74651500D01*
X54600282Y-74344840D01*
X54635500Y-74032273D01*
X54635500Y-73717727D01*
X54635499Y-73717722D01*
X77234500Y-73717722D01*
X77234500Y-74032277D01*
X77269716Y-74344827D01*
X77269718Y-74344843D01*
X77339710Y-74651499D01*
X77339711Y-74651501D01*
X77443598Y-74948395D01*
X77580072Y-75231786D01*
X77580074Y-75231789D01*
X77747423Y-75498123D01*
X77943539Y-75744044D01*
X78165956Y-75966461D01*
X78411877Y-76162577D01*
X78678211Y-76329926D01*
X78961606Y-76466402D01*
X79258500Y-76570289D01*
X79565160Y-76640282D01*
X79877723Y-76675499D01*
X79877724Y-76675500D01*
X79877727Y-76675500D01*
X80192276Y-76675500D01*
X80192276Y-76675499D01*
X80504840Y-76640282D01*
X80811500Y-76570289D01*
X81108394Y-76466402D01*
X81391789Y-76329926D01*
X81658123Y-76162577D01*
X81904044Y-75966461D01*
X82126461Y-75744044D01*
X82322577Y-75498123D01*
X82489926Y-75231789D01*
X82626402Y-74948394D01*
X82730289Y-74651500D01*
X82800282Y-74344840D01*
X82835500Y-74032273D01*
X82835500Y-73717727D01*
X82800282Y-73405160D01*
X82730289Y-73098500D01*
X82626402Y-72801606D01*
X82489926Y-72518211D01*
X82322577Y-72251877D01*
X82126461Y-72005956D01*
X81904044Y-71783539D01*
X81658123Y-71587423D01*
X81391789Y-71420074D01*
X81391786Y-71420072D01*
X81108395Y-71283598D01*
X80811501Y-71179711D01*
X80811499Y-71179710D01*
X80504843Y-71109718D01*
X80504827Y-71109716D01*
X80192277Y-71074500D01*
X80192273Y-71074500D01*
X79877727Y-71074500D01*
X79877722Y-71074500D01*
X79565172Y-71109716D01*
X79565156Y-71109718D01*
X79258500Y-71179710D01*
X79258498Y-71179711D01*
X78961604Y-71283598D01*
X78678213Y-71420072D01*
X78411878Y-71587422D01*
X78165956Y-71783538D01*
X77943538Y-72005956D01*
X77747422Y-72251878D01*
X77580072Y-72518213D01*
X77443598Y-72801604D01*
X77339711Y-73098498D01*
X77339710Y-73098500D01*
X77269718Y-73405156D01*
X77269716Y-73405172D01*
X77234500Y-73717722D01*
X54635499Y-73717722D01*
X54600282Y-73405160D01*
X54530289Y-73098500D01*
X54426402Y-72801606D01*
X54289926Y-72518211D01*
X54122577Y-72251877D01*
X53926461Y-72005956D01*
X53704044Y-71783539D01*
X53458123Y-71587423D01*
X53191789Y-71420074D01*
X53191786Y-71420072D01*
X52908395Y-71283598D01*
X52611501Y-71179711D01*
X52611499Y-71179710D01*
X52304843Y-71109718D01*
X52304827Y-71109716D01*
X51992277Y-71074500D01*
X51992273Y-71074500D01*
X51677727Y-71074500D01*
X51677722Y-71074500D01*
X51365172Y-71109716D01*
X51365156Y-71109718D01*
X51058500Y-71179710D01*
X51058498Y-71179711D01*
X50761604Y-71283598D01*
X50478213Y-71420072D01*
X50211878Y-71587422D01*
X49965956Y-71783538D01*
X49743538Y-72005956D01*
X49547422Y-72251878D01*
X49380072Y-72518213D01*
X49243598Y-72801604D01*
X49139711Y-73098498D01*
X49139710Y-73098500D01*
X49069718Y-73405156D01*
X49069716Y-73405172D01*
X49034500Y-73717722D01*
X43931193Y-73717722D01*
X43902982Y-73503438D01*
X43902982Y-73503435D01*
X43838502Y-73262793D01*
X43743164Y-73032627D01*
X43618599Y-72816873D01*
X43606883Y-72801604D01*
X43466939Y-72619225D01*
X43466933Y-72619218D01*
X43290781Y-72443066D01*
X43290774Y-72443060D01*
X43093126Y-72291400D01*
X42877376Y-72166837D01*
X42877361Y-72166830D01*
X42647207Y-72071498D01*
X42406561Y-72007017D01*
X42159575Y-71974501D01*
X42159570Y-71974500D01*
X42159565Y-71974500D01*
X41910435Y-71974500D01*
X41910429Y-71974500D01*
X41910424Y-71974501D01*
X41663438Y-72007017D01*
X41422792Y-72071498D01*
X41192638Y-72166830D01*
X41192623Y-72166837D01*
X40976873Y-72291400D01*
X40779225Y-72443060D01*
X40779218Y-72443066D01*
X40603066Y-72619218D01*
X40603060Y-72619225D01*
X40451400Y-72816873D01*
X40326837Y-73032623D01*
X40326830Y-73032638D01*
X40231498Y-73262792D01*
X40167017Y-73503438D01*
X40134501Y-73750424D01*
X40134500Y-73750441D01*
X33775499Y-73750441D01*
X33775499Y-72973392D01*
X33760300Y-72819065D01*
X33700232Y-72621045D01*
X33602685Y-72438549D01*
X33481924Y-72291401D01*
X33471410Y-72278589D01*
X33358045Y-72185553D01*
X34892357Y-72185553D01*
X39089072Y-72185553D01*
X39089072Y-68769984D01*
X34892357Y-68769984D01*
X34892357Y-72185553D01*
X33358045Y-72185553D01*
X33311454Y-72147317D01*
X33311452Y-72147316D01*
X33311451Y-72147315D01*
X33128955Y-72049768D01*
X32930935Y-71989700D01*
X32930933Y-71989699D01*
X32930935Y-71989699D01*
X32820222Y-71978795D01*
X32776609Y-71974500D01*
X32776605Y-71974500D01*
X30973395Y-71974500D01*
X30819067Y-71989699D01*
X30621042Y-72049769D01*
X30438545Y-72147317D01*
X30278589Y-72278589D01*
X30147317Y-72438545D01*
X30049769Y-72621042D01*
X29989699Y-72819066D01*
X29974500Y-72973394D01*
X20500500Y-72973394D01*
X20500500Y-56508828D01*
X64015214Y-56508828D01*
X67926215Y-56508828D01*
X67926215Y-53094984D01*
X64015214Y-53094984D01*
X64015214Y-56508828D01*
X20500500Y-56508828D01*
X20500500Y-40915553D01*
X32973071Y-40915553D01*
X34676907Y-40915553D01*
X34743946Y-40935238D01*
X34789701Y-40988042D01*
X34799645Y-41057200D01*
X34770620Y-41120756D01*
X34711842Y-41158530D01*
X34696305Y-41162026D01*
X34613506Y-41175140D01*
X34366423Y-41255422D01*
X34134945Y-41373368D01*
X33924774Y-41526066D01*
X33924768Y-41526071D01*
X33741071Y-41709768D01*
X33741066Y-41709774D01*
X33588368Y-41919945D01*
X33470422Y-42151423D01*
X33390140Y-42398506D01*
X33349500Y-42655097D01*
X33349500Y-42914902D01*
X33390140Y-43171493D01*
X33470422Y-43418576D01*
X33588368Y-43650054D01*
X33633213Y-43711779D01*
X33656693Y-43777585D01*
X33640867Y-43845639D01*
X33620577Y-43872345D01*
X33520183Y-43972739D01*
X33424211Y-44125476D01*
X33364631Y-44295745D01*
X33364630Y-44295750D01*
X33349500Y-44430039D01*
X33349500Y-46219960D01*
X33364630Y-46354249D01*
X33364631Y-46354254D01*
X33424211Y-46524523D01*
X33455258Y-46573933D01*
X33520184Y-46677262D01*
X33647738Y-46804816D01*
X33800478Y-46900789D01*
X33869269Y-46924860D01*
X33970745Y-46960368D01*
X33970750Y-46960369D01*
X34061246Y-46970565D01*
X34105040Y-46975499D01*
X34105043Y-46975500D01*
X34105046Y-46975500D01*
X35894957Y-46975500D01*
X35894958Y-46975499D01*
X35962104Y-46967934D01*
X36029249Y-46960369D01*
X36029252Y-46960368D01*
X36029255Y-46960368D01*
X36199522Y-46900789D01*
X36352262Y-46804816D01*
X36479816Y-46677262D01*
X36575789Y-46524522D01*
X36635368Y-46354255D01*
X36650500Y-46219954D01*
X36650500Y-44430046D01*
X36635368Y-44295745D01*
X36575789Y-44125478D01*
X36479816Y-43972738D01*
X36379423Y-43872345D01*
X36345938Y-43811022D01*
X36350922Y-43741330D01*
X36366784Y-43711780D01*
X36411634Y-43650051D01*
X36529579Y-43418572D01*
X36609860Y-43171493D01*
X36632539Y-43028298D01*
X36650500Y-42914902D01*
X36650500Y-42655097D01*
X36628947Y-42519021D01*
X36609860Y-42398507D01*
X36529579Y-42151428D01*
X36529577Y-42151425D01*
X36529577Y-42151423D01*
X36486787Y-42067445D01*
X36411634Y-41919949D01*
X36258931Y-41709771D01*
X36075229Y-41526069D01*
X35933006Y-41422738D01*
X35865054Y-41373368D01*
X35865053Y-41373367D01*
X35865051Y-41373366D01*
X35792764Y-41336534D01*
X35633576Y-41255422D01*
X35386493Y-41175140D01*
X35303695Y-41162026D01*
X35240560Y-41132097D01*
X35203629Y-41072785D01*
X35204627Y-41002923D01*
X35243237Y-40944690D01*
X35307200Y-40916576D01*
X35323093Y-40915553D01*
X36957225Y-40915553D01*
X106973071Y-40915553D01*
X107881313Y-40915553D01*
X107948352Y-40935238D01*
X107994107Y-40988042D01*
X108004051Y-41057200D01*
X107975026Y-41120756D01*
X107922267Y-41156595D01*
X107800478Y-41199210D01*
X107647737Y-41295184D01*
X107520184Y-41422737D01*
X107424211Y-41575476D01*
X107364631Y-41745745D01*
X107364630Y-41745750D01*
X107349500Y-41880039D01*
X107349500Y-43669960D01*
X107364630Y-43804249D01*
X107364631Y-43804254D01*
X107424211Y-43974523D01*
X107520184Y-44127262D01*
X107620576Y-44227654D01*
X107654061Y-44288977D01*
X107649077Y-44358669D01*
X107633214Y-44388219D01*
X107588367Y-44449946D01*
X107470422Y-44681423D01*
X107390140Y-44928506D01*
X107349500Y-45185097D01*
X107349500Y-45444902D01*
X107390140Y-45701493D01*
X107470422Y-45948576D01*
X107588368Y-46180054D01*
X107714928Y-46354249D01*
X107741069Y-46390229D01*
X107924771Y-46573931D01*
X108134949Y-46726634D01*
X108282445Y-46801787D01*
X108366423Y-46844577D01*
X108366425Y-46844577D01*
X108366428Y-46844579D01*
X108613507Y-46924860D01*
X108745706Y-46945797D01*
X108870098Y-46965500D01*
X108870103Y-46965500D01*
X109129902Y-46965500D01*
X109243298Y-46947539D01*
X109386493Y-46924860D01*
X109633572Y-46844579D01*
X109865051Y-46726634D01*
X110075229Y-46573931D01*
X110258931Y-46390229D01*
X110411634Y-46180051D01*
X110529579Y-45948572D01*
X110609860Y-45701493D01*
X110632539Y-45558298D01*
X110650500Y-45444902D01*
X110650500Y-45185097D01*
X110628947Y-45049021D01*
X110609860Y-44928507D01*
X110529579Y-44681428D01*
X110529577Y-44681425D01*
X110529577Y-44681423D01*
X110411633Y-44449948D01*
X110411632Y-44449946D01*
X110366785Y-44388219D01*
X110343306Y-44322416D01*
X110359131Y-44254362D01*
X110379423Y-44227655D01*
X110379424Y-44227654D01*
X110479816Y-44127262D01*
X110575789Y-43974522D01*
X110635368Y-43804255D01*
X110650500Y-43669954D01*
X110650500Y-41880046D01*
X110635368Y-41745745D01*
X110575789Y-41575478D01*
X110544744Y-41526071D01*
X110479815Y-41422737D01*
X110352262Y-41295184D01*
X110199521Y-41199210D01*
X110077733Y-41156595D01*
X110020956Y-41115873D01*
X109995209Y-41050920D01*
X110008665Y-40982359D01*
X110057052Y-40931956D01*
X110118687Y-40915553D01*
X111026928Y-40915553D01*
X111026928Y-37429676D01*
X106973071Y-37429676D01*
X106973071Y-40915553D01*
X36957225Y-40915553D01*
X36957225Y-37501187D01*
X32973071Y-37501187D01*
X32973071Y-40915553D01*
X20500500Y-40915553D01*
X20500500Y-31849223D01*
X30159500Y-31849223D01*
X30159500Y-32150776D01*
X30159501Y-32150793D01*
X30198861Y-32449766D01*
X30276913Y-32741060D01*
X30392314Y-33019661D01*
X30392318Y-33019671D01*
X30543099Y-33280831D01*
X30726679Y-33520078D01*
X30726685Y-33520085D01*
X30939914Y-33733314D01*
X30939921Y-33733320D01*
X31179168Y-33916900D01*
X31440328Y-34067681D01*
X31440329Y-34067681D01*
X31440332Y-34067683D01*
X31626072Y-34144619D01*
X31718939Y-34183086D01*
X31718940Y-34183086D01*
X31718942Y-34183087D01*
X32010232Y-34261138D01*
X32309217Y-34300500D01*
X32309224Y-34300500D01*
X32610776Y-34300500D01*
X32610783Y-34300500D01*
X32909768Y-34261138D01*
X33201058Y-34183087D01*
X33479668Y-34067683D01*
X33740832Y-33916900D01*
X33980080Y-33733319D01*
X34193319Y-33520080D01*
X34376900Y-33280832D01*
X34527683Y-33019668D01*
X34643087Y-32741058D01*
X34721138Y-32449768D01*
X34760500Y-32150783D01*
X34760500Y-31849217D01*
X34721138Y-31550232D01*
X34643087Y-31258942D01*
X34527683Y-30980332D01*
X34376900Y-30719168D01*
X34229486Y-30527053D01*
X34193320Y-30479921D01*
X34193314Y-30479914D01*
X34168439Y-30455039D01*
X35239500Y-30455039D01*
X35239500Y-33544960D01*
X35254630Y-33679249D01*
X35254631Y-33679254D01*
X35314211Y-33849523D01*
X35356547Y-33916900D01*
X35410184Y-34002262D01*
X35537738Y-34129816D01*
X35690478Y-34225789D01*
X35791500Y-34261138D01*
X35860745Y-34285368D01*
X35860750Y-34285369D01*
X35951246Y-34295565D01*
X35995040Y-34300499D01*
X35995043Y-34300500D01*
X35995046Y-34300500D01*
X39084957Y-34300500D01*
X39084958Y-34300499D01*
X39152104Y-34292934D01*
X39219249Y-34285369D01*
X39219252Y-34285368D01*
X39219255Y-34285368D01*
X39389522Y-34225789D01*
X39542262Y-34129816D01*
X39669816Y-34002262D01*
X39765789Y-33849522D01*
X39825368Y-33679255D01*
X39840500Y-33544954D01*
X39840500Y-30455046D01*
X39840499Y-30455039D01*
X104159500Y-30455039D01*
X104159500Y-33544960D01*
X104174630Y-33679249D01*
X104174631Y-33679254D01*
X104234211Y-33849523D01*
X104276547Y-33916900D01*
X104330184Y-34002262D01*
X104457738Y-34129816D01*
X104610478Y-34225789D01*
X104711500Y-34261138D01*
X104780745Y-34285368D01*
X104780750Y-34285369D01*
X104871246Y-34295565D01*
X104915040Y-34300499D01*
X104915043Y-34300500D01*
X104915046Y-34300500D01*
X108004957Y-34300500D01*
X108004958Y-34300499D01*
X108072104Y-34292934D01*
X108139249Y-34285369D01*
X108139252Y-34285368D01*
X108139255Y-34285368D01*
X108309522Y-34225789D01*
X108462262Y-34129816D01*
X108589816Y-34002262D01*
X108685789Y-33849522D01*
X108745368Y-33679255D01*
X108760500Y-33544954D01*
X108760500Y-31849223D01*
X109239500Y-31849223D01*
X109239500Y-32150776D01*
X109239501Y-32150793D01*
X109278861Y-32449766D01*
X109356913Y-32741060D01*
X109472314Y-33019661D01*
X109472318Y-33019671D01*
X109623099Y-33280831D01*
X109806679Y-33520078D01*
X109806685Y-33520085D01*
X110019914Y-33733314D01*
X110019921Y-33733320D01*
X110259168Y-33916900D01*
X110520328Y-34067681D01*
X110520329Y-34067681D01*
X110520332Y-34067683D01*
X110706072Y-34144619D01*
X110798939Y-34183086D01*
X110798940Y-34183086D01*
X110798942Y-34183087D01*
X111090232Y-34261138D01*
X111389217Y-34300500D01*
X111389224Y-34300500D01*
X111690776Y-34300500D01*
X111690783Y-34300500D01*
X111989768Y-34261138D01*
X112281058Y-34183087D01*
X112559668Y-34067683D01*
X112820832Y-33916900D01*
X113060080Y-33733319D01*
X113273319Y-33520080D01*
X113456900Y-33280832D01*
X113607683Y-33019668D01*
X113723087Y-32741058D01*
X113801138Y-32449768D01*
X113840500Y-32150783D01*
X113840500Y-31849217D01*
X113801138Y-31550232D01*
X113723087Y-31258942D01*
X113607683Y-30980332D01*
X113456900Y-30719168D01*
X113273320Y-30479921D01*
X113273314Y-30479914D01*
X113060085Y-30266685D01*
X113060078Y-30266679D01*
X112820831Y-30083099D01*
X112559671Y-29932318D01*
X112559661Y-29932314D01*
X112281060Y-29816913D01*
X111989766Y-29738861D01*
X111690793Y-29699501D01*
X111690788Y-29699500D01*
X111690783Y-29699500D01*
X111389217Y-29699500D01*
X111389211Y-29699500D01*
X111389206Y-29699501D01*
X111090233Y-29738861D01*
X110798939Y-29816913D01*
X110520338Y-29932314D01*
X110520328Y-29932318D01*
X110259168Y-30083099D01*
X110019921Y-30266679D01*
X110019914Y-30266685D01*
X109806685Y-30479914D01*
X109806679Y-30479921D01*
X109623099Y-30719168D01*
X109472318Y-30980328D01*
X109472314Y-30980338D01*
X109356913Y-31258939D01*
X109278861Y-31550233D01*
X109239501Y-31849206D01*
X109239500Y-31849223D01*
X108760500Y-31849223D01*
X108760500Y-30455046D01*
X108745368Y-30320745D01*
X108685789Y-30150478D01*
X108589816Y-29997738D01*
X108462262Y-29870184D01*
X108377482Y-29816913D01*
X108309523Y-29774211D01*
X108139254Y-29714631D01*
X108139249Y-29714630D01*
X108004960Y-29699500D01*
X108004954Y-29699500D01*
X104915046Y-29699500D01*
X104915039Y-29699500D01*
X104780750Y-29714630D01*
X104780745Y-29714631D01*
X104610476Y-29774211D01*
X104457737Y-29870184D01*
X104330184Y-29997737D01*
X104234211Y-30150476D01*
X104174631Y-30320745D01*
X104174630Y-30320750D01*
X104159500Y-30455039D01*
X39840499Y-30455039D01*
X39825368Y-30320745D01*
X39765789Y-30150478D01*
X39669816Y-29997738D01*
X39542262Y-29870184D01*
X39457482Y-29816913D01*
X39389523Y-29774211D01*
X39219254Y-29714631D01*
X39219249Y-29714630D01*
X39084960Y-29699500D01*
X39084954Y-29699500D01*
X35995046Y-29699500D01*
X35995039Y-29699500D01*
X35860750Y-29714630D01*
X35860745Y-29714631D01*
X35690476Y-29774211D01*
X35537737Y-29870184D01*
X35410184Y-29997737D01*
X35314211Y-30150476D01*
X35254631Y-30320745D01*
X35254630Y-30320750D01*
X35239500Y-30455039D01*
X34168439Y-30455039D01*
X33980085Y-30266685D01*
X33980078Y-30266679D01*
X33740831Y-30083099D01*
X33479671Y-29932318D01*
X33479661Y-29932314D01*
X33201060Y-29816913D01*
X32909766Y-29738861D01*
X32610793Y-29699501D01*
X32610788Y-29699500D01*
X32610783Y-29699500D01*
X32309217Y-29699500D01*
X32309211Y-29699500D01*
X32309206Y-29699501D01*
X32010233Y-29738861D01*
X31718939Y-29816913D01*
X31440338Y-29932314D01*
X31440328Y-29932318D01*
X31179168Y-30083099D01*
X30939921Y-30266679D01*
X30939914Y-30266685D01*
X30726685Y-30479914D01*
X30726679Y-30479921D01*
X30543099Y-30719168D01*
X30392318Y-30980328D01*
X30392314Y-30980338D01*
X30276913Y-31258939D01*
X30198861Y-31550233D01*
X30159501Y-31849206D01*
X30159500Y-31849223D01*
X20500500Y-31849223D01*
X20500500Y-27910553D01*
X32973071Y-27910553D01*
X36955500Y-27910553D01*
X106973071Y-27910553D01*
X110957225Y-27910553D01*
X110957225Y-24496103D01*
X106973071Y-24496103D01*
X106973071Y-27910553D01*
X36955500Y-27910553D01*
X36955500Y-24494984D01*
X32973071Y-24494984D01*
X32973071Y-27910553D01*
X20500500Y-27910553D01*
X20500500Y-20624500D01*
X20520185Y-20557461D01*
X20572989Y-20511706D01*
X20624500Y-20500500D01*
X123375500Y-20500500D01*
X123442539Y-20520185D01*
G37*
%TD.AperFunction*%
M02*
