%TF.GenerationSoftware,KiCad,Pcbnew,9.0.6*%
%TF.CreationDate,2026-06-10T01:14:45+02:00*%
%TF.ProjectId,buck,6275636b-2e6b-4696-9361-645f70636258,rev?*%
%TF.SameCoordinates,Original*%
%TF.FileFunction,Copper,L2,Bot*%
%TF.FilePolarity,Positive*%
%FSLAX46Y46*%
G04 Gerber Fmt 4.6, Leading zero omitted, Abs format (unit mm)*
G04 Created by KiCad (PCBNEW 9.0.6) date 2026-06-10 01:14:45*
%MOMM*%
%LPD*%
G01*
G04 APERTURE LIST*
G04 Aperture macros list*
%AMRoundRect*
0 Rectangle with rounded corners*
0 $1 Rounding radius*
0 $2 $3 $4 $5 $6 $7 $8 $9 X,Y pos of 4 corners*
0 Add a 4 corners polygon primitive as box body*
4,1,4,$2,$3,$4,$5,$6,$7,$8,$9,$2,$3,0*
0 Add four circle primitives for the rounded corners*
1,1,$1+$1,$2,$3*
1,1,$1+$1,$4,$5*
1,1,$1+$1,$6,$7*
1,1,$1+$1,$8,$9*
0 Add four rect primitives between the rounded corners*
20,1,$1+$1,$2,$3,$4,$5,0*
20,1,$1+$1,$4,$5,$6,$7,0*
20,1,$1+$1,$6,$7,$8,$9,0*
20,1,$1+$1,$8,$9,$2,$3,0*%
G04 Aperture macros list end*
%TA.AperFunction,ComponentPad*%
%ADD10C,1.600000*%
%TD*%
%TA.AperFunction,ComponentPad*%
%ADD11RoundRect,0.250000X-0.950000X-0.550000X0.950000X-0.550000X0.950000X0.550000X-0.950000X0.550000X0*%
%TD*%
%TA.AperFunction,ComponentPad*%
%ADD12O,2.400000X1.600000*%
%TD*%
%TA.AperFunction,ComponentPad*%
%ADD13R,3.000000X3.000000*%
%TD*%
%TA.AperFunction,ComponentPad*%
%ADD14C,3.000000*%
%TD*%
%TA.AperFunction,ComponentPad*%
%ADD15RoundRect,0.250000X-0.550000X-0.550000X0.550000X-0.550000X0.550000X0.550000X-0.550000X0.550000X0*%
%TD*%
%TA.AperFunction,ComponentPad*%
%ADD16C,2.600000*%
%TD*%
%TA.AperFunction,ComponentPad*%
%ADD17RoundRect,0.249999X-0.850001X-0.850001X0.850001X-0.850001X0.850001X0.850001X-0.850001X0.850001X0*%
%TD*%
%TA.AperFunction,ComponentPad*%
%ADD18C,2.200000*%
%TD*%
%TA.AperFunction,ComponentPad*%
%ADD19R,1.700000X1.700000*%
%TD*%
%TA.AperFunction,ComponentPad*%
%ADD20C,1.700000*%
%TD*%
%TA.AperFunction,ComponentPad*%
%ADD21R,1.700000X2.000000*%
%TD*%
%TA.AperFunction,ComponentPad*%
%ADD22O,1.700000X2.000000*%
%TD*%
%TA.AperFunction,Conductor*%
%ADD23C,1.000000*%
%TD*%
G04 APERTURE END LIST*
D10*
%TO.P,R2,1*%
%TO.N,GATE*%
X54075000Y-63125000D03*
%TO.P,R2,2*%
%TO.N,/SW*%
X61695000Y-63125000D03*
%TD*%
D11*
%TO.P,U1,1*%
%TO.N,Net-(R1-Pad2)*%
X93935000Y-35235000D03*
D12*
%TO.P,U1,2*%
%TO.N,GND_MCU*%
X93935000Y-37775000D03*
%TO.P,U1,3*%
%TO.N,N/C*%
X93935000Y-40315000D03*
%TO.P,U1,4*%
%TO.N,GATE*%
X101555000Y-40315000D03*
%TO.P,U1,5*%
%TO.N,+12V_SW*%
X101555000Y-37775000D03*
%TO.P,U1,6*%
%TO.N,N/C*%
X101555000Y-35235000D03*
%TD*%
D13*
%TO.P,J1,1*%
%TO.N,/VIN_15V*%
X37540000Y-32000000D03*
D14*
%TO.P,J1,2*%
%TO.N,/GND*%
X32460000Y-32000000D03*
%TD*%
D15*
%TO.P,C1,1*%
%TO.N,/VOUT_5V*%
X55719700Y-52325000D03*
D10*
%TO.P,C1,2*%
%TO.N,/GND*%
X59219700Y-52325000D03*
%TD*%
D16*
%TO.P,L1,1*%
%TO.N,/SW*%
X76685000Y-37775000D03*
%TO.P,L1,2*%
%TO.N,/VOUT_5V*%
X81685000Y-37775000D03*
%TD*%
D17*
%TO.P,D1,1*%
%TO.N,/SW*%
X54375000Y-37775000D03*
D18*
%TO.P,D1,2*%
%TO.N,/GND*%
X64535000Y-37775000D03*
%TD*%
D19*
%TO.P,J3,1*%
%TO.N,PWM*%
X35000000Y-47325000D03*
D20*
%TO.P,J3,2*%
%TO.N,GND_MCU*%
X35000000Y-44785000D03*
%TD*%
D13*
%TO.P,J2,1*%
%TO.N,/VOUT_5V*%
X122490000Y-32000000D03*
D14*
%TO.P,J2,2*%
%TO.N,/GND*%
X127570000Y-32000000D03*
%TD*%
D19*
%TO.P,J4,1*%
%TO.N,+12V_SW*%
X125030000Y-44775000D03*
D20*
%TO.P,J4,2*%
%TO.N,/SW*%
X125030000Y-47315000D03*
%TD*%
D21*
%TO.P,M1,1*%
%TO.N,GATE*%
X72479700Y-53275000D03*
D22*
%TO.P,M1,2*%
%TO.N,/VIN_15V*%
X75019700Y-53275000D03*
%TO.P,M1,3*%
%TO.N,/SW*%
X77559700Y-53275000D03*
%TD*%
D10*
%TO.P,R1,1*%
%TO.N,PWM*%
X89369700Y-52325000D03*
%TO.P,R1,2*%
%TO.N,Net-(R1-Pad2)*%
X96989700Y-52325000D03*
%TD*%
D23*
%TO.N,+12V_SW*%
X115878300Y-37775000D02*
X101555000Y-37775000D01*
X122878300Y-44775000D02*
X115878300Y-37775000D01*
X125030000Y-44775000D02*
X122878300Y-44775000D01*
%TO.N,/GND*%
X73164400Y-29145600D02*
X64535000Y-37775000D01*
X124715600Y-29145600D02*
X73164400Y-29145600D01*
X127570000Y-32000000D02*
X124715600Y-29145600D01*
X35261700Y-34801700D02*
X61561700Y-34801700D01*
X32460000Y-32000000D02*
X35261700Y-34801700D01*
X61561700Y-34801700D02*
X64535000Y-37775000D01*
%TO.N,/SW*%
X70011400Y-63125000D02*
X77559700Y-55576700D01*
X77559700Y-55576700D02*
X78319300Y-56336300D01*
X77559700Y-53275000D02*
X77559700Y-55474900D01*
X77559700Y-55474900D02*
X77559700Y-55576700D01*
X74260600Y-40199400D02*
X56799400Y-40199400D01*
X78319300Y-56336300D02*
X116008700Y-56336300D01*
X116008700Y-56336300D02*
X125030000Y-47315000D01*
X61695000Y-63125000D02*
X70011400Y-63125000D01*
X56799400Y-40199400D02*
X54375000Y-37775000D01*
X76685000Y-37775000D02*
X74260600Y-40199400D01*
%TO.N,/VIN_15V*%
X73868900Y-55576700D02*
X75019700Y-54425900D01*
X46753200Y-65253200D02*
X54982000Y-65253200D01*
X37540000Y-32000000D02*
X34725300Y-29185300D01*
X75019700Y-54425900D02*
X75019700Y-53275000D01*
X64658500Y-55576700D02*
X73868900Y-55576700D01*
X29610700Y-48110700D02*
X46753200Y-65253200D01*
X34725300Y-29185300D02*
X31302800Y-29185300D01*
X54982000Y-65253200D02*
X64658500Y-55576700D01*
X31302800Y-29185300D02*
X29610700Y-30877400D01*
X29610700Y-30877400D02*
X29610700Y-48110700D01*
%TO.N,/VOUT_5V*%
X36447500Y-52325000D02*
X55719700Y-52325000D01*
X88206200Y-31253800D02*
X81685000Y-37775000D01*
X32797500Y-43943900D02*
X32797500Y-48675000D01*
X119688300Y-32000000D02*
X118942100Y-31253800D01*
X122490000Y-32000000D02*
X119688300Y-32000000D01*
X118942100Y-31253800D02*
X88206200Y-31253800D01*
X77405500Y-42054500D02*
X34686900Y-42054500D01*
X81685000Y-37775000D02*
X77405500Y-42054500D01*
X32797500Y-48675000D02*
X36447500Y-52325000D01*
X34686900Y-42054500D02*
X32797500Y-43943900D01*
%TO.N,GATE*%
X90199000Y-54473100D02*
X83475700Y-54473100D01*
X79975900Y-50973300D02*
X72479700Y-50973300D01*
X72479700Y-53275000D02*
X72479700Y-50973300D01*
X99053300Y-40315000D02*
X99053300Y-45618800D01*
X54075000Y-63125000D02*
X63925000Y-53275000D01*
X83475700Y-54473100D02*
X79975900Y-50973300D01*
X99053300Y-45618800D02*
X90199000Y-54473100D01*
X101555000Y-40315000D02*
X99053300Y-40315000D01*
X63925000Y-53275000D02*
X72479700Y-53275000D01*
%TO.N,GND_MCU*%
X35000000Y-44785000D02*
X81563700Y-44785000D01*
X88573700Y-37775000D02*
X93935000Y-37775000D01*
X81563700Y-44785000D02*
X88573700Y-37775000D01*
%TO.N,PWM*%
X35000000Y-47325000D02*
X84369700Y-47325000D01*
X84369700Y-47325000D02*
X89369700Y-52325000D01*
%TD*%
%TA.AperFunction,NonConductor*%
G36*
X140442539Y-20520185D02*
G01*
X140488294Y-20572989D01*
X140499500Y-20624500D01*
X140499500Y-75375500D01*
X140479815Y-75442539D01*
X140427011Y-75488294D01*
X140375500Y-75499500D01*
X20624500Y-75499500D01*
X20557461Y-75479815D01*
X20511706Y-75427011D01*
X20500500Y-75375500D01*
X20500500Y-30775048D01*
X28310200Y-30775048D01*
X28310200Y-30780165D01*
X28310200Y-48213057D01*
X28338262Y-48390229D01*
X28342221Y-48415226D01*
X28342223Y-48415233D01*
X28405480Y-48609919D01*
X28405482Y-48609925D01*
X28408322Y-48615497D01*
X28408324Y-48615500D01*
X28498413Y-48792311D01*
X28618734Y-48957919D01*
X45905981Y-66245166D01*
X46071589Y-66365487D01*
X46162785Y-66411953D01*
X46253981Y-66458420D01*
X46351323Y-66490048D01*
X46448665Y-66521677D01*
X46650848Y-66553700D01*
X46650849Y-66553700D01*
X55084351Y-66553700D01*
X55084352Y-66553700D01*
X55286535Y-66521677D01*
X55383876Y-66490048D01*
X55481219Y-66458420D01*
X55572414Y-66411953D01*
X55663611Y-66365487D01*
X55829219Y-66245166D01*
X65160865Y-56913518D01*
X65222188Y-56880034D01*
X65248546Y-56877200D01*
X73971251Y-56877200D01*
X73971252Y-56877200D01*
X74127534Y-56852447D01*
X74196827Y-56861402D01*
X74250279Y-56906398D01*
X74270919Y-56973149D01*
X74252194Y-57040463D01*
X74234613Y-57062601D01*
X69509034Y-61788181D01*
X69447711Y-61821666D01*
X69421353Y-61824500D01*
X62668238Y-61824500D01*
X62601199Y-61804815D01*
X62595362Y-61800824D01*
X62533845Y-61756130D01*
X62309383Y-61641760D01*
X62069785Y-61563910D01*
X62069779Y-61563909D01*
X61820962Y-61524500D01*
X61569038Y-61524500D01*
X61444626Y-61544205D01*
X61320214Y-61563910D01*
X61080616Y-61641760D01*
X60856151Y-61756132D01*
X60652350Y-61904201D01*
X60652345Y-61904205D01*
X60474205Y-62082345D01*
X60474201Y-62082350D01*
X60326132Y-62286151D01*
X60211760Y-62510616D01*
X60133910Y-62750214D01*
X60094500Y-62999038D01*
X60094500Y-63250961D01*
X60133910Y-63499785D01*
X60211760Y-63739383D01*
X60263576Y-63841076D01*
X60320451Y-63952700D01*
X60326132Y-63963848D01*
X60474201Y-64167649D01*
X60474205Y-64167654D01*
X60652344Y-64345793D01*
X60652350Y-64345798D01*
X60794647Y-64449182D01*
X60856155Y-64493870D01*
X60999184Y-64566747D01*
X61080616Y-64608239D01*
X61080618Y-64608239D01*
X61080621Y-64608241D01*
X61320215Y-64686090D01*
X61569038Y-64725500D01*
X61569039Y-64725500D01*
X61820961Y-64725500D01*
X61820962Y-64725500D01*
X62069785Y-64686090D01*
X62309379Y-64608241D01*
X62533845Y-64493870D01*
X62595353Y-64449181D01*
X62661158Y-64425702D01*
X62668238Y-64425500D01*
X70113751Y-64425500D01*
X70113752Y-64425500D01*
X70315935Y-64393477D01*
X70462690Y-64345793D01*
X70510619Y-64330220D01*
X70601814Y-64283753D01*
X70693011Y-64237287D01*
X70858619Y-64116966D01*
X77500657Y-57474926D01*
X77561978Y-57441443D01*
X77631670Y-57446427D01*
X77644631Y-57452124D01*
X77820081Y-57541521D01*
X77820084Y-57541522D01*
X77917421Y-57573148D01*
X78014766Y-57604777D01*
X78216948Y-57636800D01*
X78216949Y-57636800D01*
X116111051Y-57636800D01*
X116111052Y-57636800D01*
X116313235Y-57604777D01*
X116410576Y-57573148D01*
X116507919Y-57541520D01*
X116599114Y-57495053D01*
X116690311Y-57448587D01*
X116855919Y-57328266D01*
X125201259Y-48982924D01*
X125262580Y-48949441D01*
X125269493Y-48948141D01*
X125416493Y-48924860D01*
X125663572Y-48844579D01*
X125895051Y-48726634D01*
X126105229Y-48573931D01*
X126288931Y-48390229D01*
X126441634Y-48180051D01*
X126559579Y-47948572D01*
X126639860Y-47701493D01*
X126668502Y-47520653D01*
X126680500Y-47444902D01*
X126680500Y-47185097D01*
X126658947Y-47049021D01*
X126639860Y-46928507D01*
X126559579Y-46681428D01*
X126559577Y-46681425D01*
X126559577Y-46681423D01*
X126441633Y-46449948D01*
X126441632Y-46449946D01*
X126396785Y-46388219D01*
X126373306Y-46322416D01*
X126389131Y-46254362D01*
X126409423Y-46227655D01*
X126424365Y-46212713D01*
X126509816Y-46127262D01*
X126605789Y-45974522D01*
X126665368Y-45804255D01*
X126668443Y-45776968D01*
X126674731Y-45721152D01*
X126680500Y-45669954D01*
X126680500Y-43880046D01*
X126665368Y-43745745D01*
X126605789Y-43575478D01*
X126509816Y-43422738D01*
X126382262Y-43295184D01*
X126329910Y-43262289D01*
X126229523Y-43199211D01*
X126059254Y-43139631D01*
X126059249Y-43139630D01*
X125924960Y-43124500D01*
X125924954Y-43124500D01*
X124135046Y-43124500D01*
X124135039Y-43124500D01*
X124000750Y-43139630D01*
X124000745Y-43139631D01*
X123830476Y-43199211D01*
X123677739Y-43295183D01*
X123545384Y-43427538D01*
X123484061Y-43461022D01*
X123414369Y-43456038D01*
X123370022Y-43427537D01*
X116725521Y-36783036D01*
X116725519Y-36783034D01*
X116559911Y-36662713D01*
X116473272Y-36618568D01*
X116473267Y-36618566D01*
X116468714Y-36616246D01*
X116377519Y-36569780D01*
X116268695Y-36534421D01*
X116264308Y-36532995D01*
X116264297Y-36532991D01*
X116182832Y-36506522D01*
X116006803Y-36478642D01*
X115980652Y-36474500D01*
X115980651Y-36474500D01*
X103276142Y-36474500D01*
X103209103Y-36454815D01*
X103163348Y-36402011D01*
X103153404Y-36332853D01*
X103175824Y-36277615D01*
X103290244Y-36120127D01*
X103323870Y-36073845D01*
X103438241Y-35849379D01*
X103516090Y-35609785D01*
X103555500Y-35360962D01*
X103555500Y-35109038D01*
X103516090Y-34860215D01*
X103438241Y-34620621D01*
X103438239Y-34620618D01*
X103438239Y-34620616D01*
X103396747Y-34539184D01*
X103323870Y-34396155D01*
X103254372Y-34300499D01*
X103175798Y-34192350D01*
X103175794Y-34192345D01*
X102997654Y-34014205D01*
X102997649Y-34014201D01*
X102793848Y-33866132D01*
X102793847Y-33866131D01*
X102793845Y-33866130D01*
X102723747Y-33830413D01*
X102569383Y-33751760D01*
X102329785Y-33673910D01*
X102176930Y-33649700D01*
X102080962Y-33634500D01*
X101029038Y-33634500D01*
X100933076Y-33649699D01*
X100780214Y-33673910D01*
X100540616Y-33751760D01*
X100316151Y-33866132D01*
X100112350Y-34014201D01*
X100112345Y-34014205D01*
X99934205Y-34192345D01*
X99934201Y-34192350D01*
X99786132Y-34396151D01*
X99671760Y-34620616D01*
X99593910Y-34860214D01*
X99554500Y-35109038D01*
X99554500Y-35360961D01*
X99593910Y-35609785D01*
X99671760Y-35849383D01*
X99743884Y-35990932D01*
X99784261Y-36070177D01*
X99786132Y-36073848D01*
X99934201Y-36277649D01*
X99934205Y-36277654D01*
X100073870Y-36417319D01*
X100107355Y-36478642D01*
X100102371Y-36548334D01*
X100073870Y-36592681D01*
X99934205Y-36732345D01*
X99934201Y-36732350D01*
X99786132Y-36936151D01*
X99671760Y-37160616D01*
X99593910Y-37400214D01*
X99554500Y-37649038D01*
X99554500Y-37900961D01*
X99593910Y-38149785D01*
X99671760Y-38389383D01*
X99786132Y-38613848D01*
X99934176Y-38817615D01*
X99957656Y-38883421D01*
X99941830Y-38951475D01*
X99891724Y-39000170D01*
X99833858Y-39014500D01*
X99155652Y-39014500D01*
X98950948Y-39014500D01*
X98926629Y-39018351D01*
X98748765Y-39046522D01*
X98554076Y-39109781D01*
X98371686Y-39202715D01*
X98206086Y-39323028D01*
X98061328Y-39467786D01*
X97941015Y-39633386D01*
X97848081Y-39815776D01*
X97784822Y-40010465D01*
X97752800Y-40212648D01*
X97752800Y-45028752D01*
X97733115Y-45095791D01*
X97716481Y-45116433D01*
X91062079Y-51770834D01*
X91000756Y-51804319D01*
X90931064Y-51799335D01*
X90875131Y-51757463D01*
X90856467Y-51721471D01*
X90852942Y-51710623D01*
X90819599Y-51645184D01*
X90738570Y-51486155D01*
X90654939Y-51371046D01*
X90590498Y-51282350D01*
X90590494Y-51282345D01*
X90412354Y-51104205D01*
X90412349Y-51104201D01*
X90208548Y-50956132D01*
X90208547Y-50956131D01*
X90208545Y-50956130D01*
X89984079Y-50841759D01*
X89744485Y-50763910D01*
X89744483Y-50763909D01*
X89669389Y-50752015D01*
X89606254Y-50722085D01*
X89601107Y-50717223D01*
X85216921Y-46333036D01*
X85216920Y-46333035D01*
X85216919Y-46333034D01*
X85051311Y-46212713D01*
X84964609Y-46168536D01*
X84964605Y-46168534D01*
X84960114Y-46166246D01*
X84868919Y-46119780D01*
X84763416Y-46085500D01*
X84758963Y-46084053D01*
X84758953Y-46084049D01*
X84674232Y-46056522D01*
X84518920Y-46031923D01*
X84472052Y-46024500D01*
X84472051Y-46024500D01*
X82451850Y-46024500D01*
X82384811Y-46004815D01*
X82339056Y-45952011D01*
X82329112Y-45882853D01*
X82358137Y-45819297D01*
X82378965Y-45800182D01*
X82382402Y-45797684D01*
X82410919Y-45776966D01*
X89076066Y-39111819D01*
X89137389Y-39078334D01*
X89163747Y-39075500D01*
X92213858Y-39075500D01*
X92280897Y-39095185D01*
X92326652Y-39147989D01*
X92336596Y-39217147D01*
X92314176Y-39272385D01*
X92166132Y-39476151D01*
X92051760Y-39700616D01*
X91973910Y-39940214D01*
X91973910Y-39940215D01*
X91934500Y-40189038D01*
X91934500Y-40440962D01*
X91951580Y-40548797D01*
X91973910Y-40689785D01*
X92051760Y-40929383D01*
X92166132Y-41153848D01*
X92314201Y-41357649D01*
X92314205Y-41357654D01*
X92492345Y-41535794D01*
X92492350Y-41535798D01*
X92670117Y-41664952D01*
X92696155Y-41683870D01*
X92839184Y-41756747D01*
X92920616Y-41798239D01*
X92920618Y-41798239D01*
X92920621Y-41798241D01*
X93160215Y-41876090D01*
X93409038Y-41915500D01*
X93409039Y-41915500D01*
X94460961Y-41915500D01*
X94460962Y-41915500D01*
X94709785Y-41876090D01*
X94949379Y-41798241D01*
X95173845Y-41683870D01*
X95377656Y-41535793D01*
X95555793Y-41357656D01*
X95703870Y-41153845D01*
X95818241Y-40929379D01*
X95896090Y-40689785D01*
X95935500Y-40440962D01*
X95935500Y-40189038D01*
X95896090Y-39940215D01*
X95818241Y-39700621D01*
X95818239Y-39700618D01*
X95818239Y-39700616D01*
X95767089Y-39600230D01*
X95703870Y-39476155D01*
X95684952Y-39450117D01*
X95555798Y-39272350D01*
X95555794Y-39272345D01*
X95416130Y-39132681D01*
X95382645Y-39071358D01*
X95387629Y-39001666D01*
X95416130Y-38957319D01*
X95483431Y-38890018D01*
X95555793Y-38817656D01*
X95703870Y-38613845D01*
X95818241Y-38389379D01*
X95896090Y-38149785D01*
X95935500Y-37900962D01*
X95935500Y-37649038D01*
X95896090Y-37400215D01*
X95818241Y-37160621D01*
X95818239Y-37160618D01*
X95818239Y-37160616D01*
X95776747Y-37079184D01*
X95703870Y-36936155D01*
X95561296Y-36739918D01*
X95537816Y-36674112D01*
X95553641Y-36606058D01*
X95582948Y-36571181D01*
X95631410Y-36531410D01*
X95762685Y-36371450D01*
X95860232Y-36188954D01*
X95920300Y-35990934D01*
X95935500Y-35836608D01*
X95935500Y-34633392D01*
X95920300Y-34479066D01*
X95860232Y-34281046D01*
X95762685Y-34098550D01*
X95683664Y-34002262D01*
X95631410Y-33938589D01*
X95474400Y-33809736D01*
X95471450Y-33807315D01*
X95288954Y-33709768D01*
X95090934Y-33649700D01*
X95090932Y-33649699D01*
X95090934Y-33649699D01*
X94971805Y-33637966D01*
X94936608Y-33634500D01*
X92933392Y-33634500D01*
X92895298Y-33638251D01*
X92779067Y-33649699D01*
X92581043Y-33709769D01*
X92502487Y-33751759D01*
X92398550Y-33807315D01*
X92398548Y-33807316D01*
X92398547Y-33807317D01*
X92238589Y-33938589D01*
X92107317Y-34098547D01*
X92107315Y-34098550D01*
X92090603Y-34129816D01*
X92009769Y-34281043D01*
X91949699Y-34479067D01*
X91938251Y-34595298D01*
X91934500Y-34633392D01*
X91934500Y-35836608D01*
X91937737Y-35869477D01*
X91949699Y-35990932D01*
X92009769Y-36188958D01*
X92064872Y-36292047D01*
X92079114Y-36360449D01*
X92054114Y-36425693D01*
X91997809Y-36467064D01*
X91955514Y-36474500D01*
X88676052Y-36474500D01*
X88471348Y-36474500D01*
X88445197Y-36478642D01*
X88269168Y-36506522D01*
X88269167Y-36506522D01*
X88183304Y-36534421D01*
X88074482Y-36569779D01*
X88074481Y-36569779D01*
X87983284Y-36616245D01*
X87983285Y-36616246D01*
X87892088Y-36662713D01*
X87726478Y-36783036D01*
X81061334Y-43448181D01*
X81000011Y-43481666D01*
X80973653Y-43484500D01*
X77980059Y-43484500D01*
X77973946Y-43482705D01*
X77967687Y-43483881D01*
X77940828Y-43472980D01*
X77913020Y-43464815D01*
X77908849Y-43460001D01*
X77902946Y-43457606D01*
X77886242Y-43433912D01*
X77867265Y-43412011D01*
X77866358Y-43405706D01*
X77862688Y-43400500D01*
X77861445Y-43371540D01*
X77857321Y-43342853D01*
X77859966Y-43337059D01*
X77859694Y-43330695D01*
X77874305Y-43305663D01*
X77886346Y-43279297D01*
X77892510Y-43274472D01*
X77894916Y-43270352D01*
X77923756Y-43250020D01*
X77923756Y-43250019D01*
X77995914Y-43213253D01*
X78087111Y-43166787D01*
X78252719Y-43046466D01*
X81394830Y-39904353D01*
X81456151Y-39870870D01*
X81498691Y-39869097D01*
X81547326Y-39875500D01*
X81547333Y-39875500D01*
X81822667Y-39875500D01*
X81822674Y-39875500D01*
X82095666Y-39839560D01*
X82361632Y-39768295D01*
X82616021Y-39662923D01*
X82616775Y-39662488D01*
X82637564Y-39650485D01*
X82854479Y-39525249D01*
X83072928Y-39357628D01*
X83267628Y-39162928D01*
X83435249Y-38944479D01*
X83572923Y-38706021D01*
X83678295Y-38451632D01*
X83749560Y-38185666D01*
X83785500Y-37912674D01*
X83785500Y-37637326D01*
X83779097Y-37588693D01*
X83789862Y-37519660D01*
X83814352Y-37484831D01*
X88708566Y-32590619D01*
X88769889Y-32557134D01*
X88796247Y-32554300D01*
X118352053Y-32554300D01*
X118419092Y-32573985D01*
X118439734Y-32590619D01*
X118841081Y-32991966D01*
X119006689Y-33112287D01*
X119097885Y-33158753D01*
X119189081Y-33205220D01*
X119286423Y-33236848D01*
X119383765Y-33268477D01*
X119585948Y-33300500D01*
X119790651Y-33300500D01*
X120065500Y-33300500D01*
X120132539Y-33320185D01*
X120178294Y-33372989D01*
X120189500Y-33424500D01*
X120189500Y-33544960D01*
X120204630Y-33679249D01*
X120204631Y-33679254D01*
X120264211Y-33849523D01*
X120320176Y-33938590D01*
X120360184Y-34002262D01*
X120487738Y-34129816D01*
X120640478Y-34225789D01*
X120741500Y-34261138D01*
X120810745Y-34285368D01*
X120810750Y-34285369D01*
X120901246Y-34295565D01*
X120945040Y-34300499D01*
X120945043Y-34300500D01*
X120945046Y-34300500D01*
X124034957Y-34300500D01*
X124034958Y-34300499D01*
X124102104Y-34292934D01*
X124169249Y-34285369D01*
X124169252Y-34285368D01*
X124169255Y-34285368D01*
X124339522Y-34225789D01*
X124492262Y-34129816D01*
X124619816Y-34002262D01*
X124715789Y-33849522D01*
X124775368Y-33679255D01*
X124775971Y-33673910D01*
X124790499Y-33544960D01*
X124790500Y-33544956D01*
X124790500Y-31359047D01*
X124810185Y-31292008D01*
X124862989Y-31246253D01*
X124932147Y-31236309D01*
X124995703Y-31265334D01*
X125002181Y-31271366D01*
X125262386Y-31531571D01*
X125295871Y-31592894D01*
X125297644Y-31635437D01*
X125269501Y-31849206D01*
X125269500Y-31849223D01*
X125269500Y-32150776D01*
X125269501Y-32150793D01*
X125308861Y-32449766D01*
X125386913Y-32741060D01*
X125502314Y-33019661D01*
X125502318Y-33019671D01*
X125653099Y-33280831D01*
X125836679Y-33520078D01*
X125836685Y-33520085D01*
X126049914Y-33733314D01*
X126049921Y-33733320D01*
X126289168Y-33916900D01*
X126550328Y-34067681D01*
X126550329Y-34067681D01*
X126550332Y-34067683D01*
X126736072Y-34144619D01*
X126828939Y-34183086D01*
X126828940Y-34183086D01*
X126828942Y-34183087D01*
X127120232Y-34261138D01*
X127419217Y-34300500D01*
X127419224Y-34300500D01*
X127720776Y-34300500D01*
X127720783Y-34300500D01*
X128019768Y-34261138D01*
X128311058Y-34183087D01*
X128589668Y-34067683D01*
X128850832Y-33916900D01*
X129090080Y-33733319D01*
X129303319Y-33520080D01*
X129486900Y-33280832D01*
X129637683Y-33019668D01*
X129753087Y-32741058D01*
X129831138Y-32449768D01*
X129870500Y-32150783D01*
X129870500Y-31849217D01*
X129831138Y-31550232D01*
X129753087Y-31258942D01*
X129637683Y-30980332D01*
X129486900Y-30719168D01*
X129439796Y-30657781D01*
X129303320Y-30479921D01*
X129303314Y-30479914D01*
X129090085Y-30266685D01*
X129090078Y-30266679D01*
X128850831Y-30083099D01*
X128589671Y-29932318D01*
X128589661Y-29932314D01*
X128311060Y-29816913D01*
X128019766Y-29738861D01*
X127720793Y-29699501D01*
X127720788Y-29699500D01*
X127720783Y-29699500D01*
X127419217Y-29699500D01*
X127419211Y-29699500D01*
X127419206Y-29699501D01*
X127205437Y-29727644D01*
X127136402Y-29716878D01*
X127101571Y-29692386D01*
X125562821Y-28153636D01*
X125562819Y-28153634D01*
X125397211Y-28033313D01*
X125306014Y-27986846D01*
X125292729Y-27980077D01*
X125214823Y-27940381D01*
X125168115Y-27925204D01*
X125117476Y-27908751D01*
X125093603Y-27900994D01*
X125020135Y-27877122D01*
X124845595Y-27849478D01*
X124817952Y-27845100D01*
X124817951Y-27845100D01*
X73271887Y-27845100D01*
X73271863Y-27845099D01*
X73266752Y-27845099D01*
X73062049Y-27845099D01*
X72994654Y-27855773D01*
X72859864Y-27877123D01*
X72859861Y-27877123D01*
X72665184Y-27940377D01*
X72665181Y-27940378D01*
X72482790Y-28033312D01*
X72317181Y-28153633D01*
X64632634Y-35838181D01*
X64605706Y-35852884D01*
X64579888Y-35869477D01*
X64573687Y-35870368D01*
X64571311Y-35871666D01*
X64544953Y-35874500D01*
X64525047Y-35874500D01*
X64458008Y-35854815D01*
X64437366Y-35838181D01*
X62408921Y-33809736D01*
X62408919Y-33809734D01*
X62243311Y-33689413D01*
X62135537Y-33634500D01*
X62060919Y-33596480D01*
X61950184Y-33560500D01*
X61946246Y-33559220D01*
X61946235Y-33559216D01*
X61866232Y-33533222D01*
X61710920Y-33508623D01*
X61664052Y-33501200D01*
X61664051Y-33501200D01*
X39964500Y-33501200D01*
X39897461Y-33481515D01*
X39851706Y-33428711D01*
X39840500Y-33377200D01*
X39840500Y-30455043D01*
X39840499Y-30455039D01*
X39825369Y-30320750D01*
X39825368Y-30320745D01*
X39765789Y-30150478D01*
X39669816Y-29997738D01*
X39542262Y-29870184D01*
X39457482Y-29816913D01*
X39389523Y-29774211D01*
X39219254Y-29714631D01*
X39219249Y-29714630D01*
X39084960Y-29699500D01*
X39084954Y-29699500D01*
X37130047Y-29699500D01*
X37063008Y-29679815D01*
X37042366Y-29663181D01*
X35572521Y-28193336D01*
X35572519Y-28193334D01*
X35406911Y-28073013D01*
X35315714Y-28026546D01*
X35224519Y-27980080D01*
X35102332Y-27940379D01*
X35098186Y-27939032D01*
X35098179Y-27939029D01*
X35029832Y-27916822D01*
X34874520Y-27892223D01*
X34827652Y-27884800D01*
X31200448Y-27884800D01*
X31133054Y-27895474D01*
X30998264Y-27916823D01*
X30803584Y-27980077D01*
X30803581Y-27980078D01*
X30621186Y-28073015D01*
X30455586Y-28193328D01*
X28618736Y-30030178D01*
X28498416Y-30195784D01*
X28498414Y-30195787D01*
X28466773Y-30257887D01*
X28405479Y-30378181D01*
X28396253Y-30406580D01*
X28396252Y-30406582D01*
X28345405Y-30563070D01*
X28345403Y-30563077D01*
X28342443Y-30572190D01*
X28342223Y-30572866D01*
X28310200Y-30775048D01*
X20500500Y-30775048D01*
X20500500Y-20624500D01*
X20520185Y-20557461D01*
X20572989Y-20511706D01*
X20624500Y-20500500D01*
X140375500Y-20500500D01*
X140442539Y-20520185D01*
G37*
%TD.AperFunction*%
%TA.AperFunction,NonConductor*%
G36*
X34820908Y-31129737D02*
G01*
X34854408Y-31153593D01*
X35203181Y-31502366D01*
X35236666Y-31563689D01*
X35239500Y-31590047D01*
X35239500Y-32640953D01*
X35219815Y-32707992D01*
X35167011Y-32753747D01*
X35097853Y-32763691D01*
X35034297Y-32734666D01*
X35027819Y-32728634D01*
X34767612Y-32468427D01*
X34734127Y-32407104D01*
X34732354Y-32364565D01*
X34760500Y-32150783D01*
X34760500Y-31849217D01*
X34721138Y-31550232D01*
X34646952Y-31273366D01*
X34648615Y-31203518D01*
X34687777Y-31145655D01*
X34752006Y-31118151D01*
X34820908Y-31129737D01*
G37*
%TD.AperFunction*%
%TA.AperFunction,NonConductor*%
G36*
X86942392Y-30465785D02*
G01*
X86988147Y-30518589D01*
X86998091Y-30587747D01*
X86969066Y-30651303D01*
X86963034Y-30657781D01*
X81975170Y-35645643D01*
X81913847Y-35679128D01*
X81871306Y-35680902D01*
X81857829Y-35679128D01*
X81822674Y-35674500D01*
X81547326Y-35674500D01*
X81547320Y-35674500D01*
X81547315Y-35674501D01*
X81274344Y-35710438D01*
X81274337Y-35710439D01*
X81274334Y-35710440D01*
X81218125Y-35725500D01*
X81008369Y-35781704D01*
X80753982Y-35887075D01*
X80753971Y-35887080D01*
X80515516Y-36024754D01*
X80297073Y-36192370D01*
X80297066Y-36192376D01*
X80102376Y-36387066D01*
X80102370Y-36387073D01*
X79934754Y-36605516D01*
X79934751Y-36605520D01*
X79934751Y-36605521D01*
X79928559Y-36616246D01*
X79797080Y-36843971D01*
X79797075Y-36843982D01*
X79691704Y-37098369D01*
X79620441Y-37364331D01*
X79620438Y-37364344D01*
X79598884Y-37528068D01*
X79584500Y-37637326D01*
X79584500Y-37912674D01*
X79590070Y-37954985D01*
X79590902Y-37961306D01*
X79580134Y-38030341D01*
X79555643Y-38065170D01*
X78771376Y-38849437D01*
X78710053Y-38882922D01*
X78640361Y-38877938D01*
X78584428Y-38836066D01*
X78560011Y-38770602D01*
X78571886Y-38709985D01*
X78571370Y-38709771D01*
X78572430Y-38707211D01*
X78572493Y-38706891D01*
X78572910Y-38706043D01*
X78572923Y-38706021D01*
X78678295Y-38451632D01*
X78749560Y-38185666D01*
X78785500Y-37912674D01*
X78785500Y-37637326D01*
X78749560Y-37364334D01*
X78678295Y-37098368D01*
X78572923Y-36843979D01*
X78572921Y-36843976D01*
X78572919Y-36843971D01*
X78500804Y-36719066D01*
X78435249Y-36605521D01*
X78267628Y-36387072D01*
X78267623Y-36387066D01*
X78072933Y-36192376D01*
X78072926Y-36192370D01*
X77854483Y-36024754D01*
X77854482Y-36024753D01*
X77854479Y-36024751D01*
X77721136Y-35947765D01*
X77616028Y-35887080D01*
X77616017Y-35887075D01*
X77361630Y-35781704D01*
X77228649Y-35746072D01*
X77095666Y-35710440D01*
X77095660Y-35710439D01*
X77095655Y-35710438D01*
X76822684Y-35674501D01*
X76822679Y-35674500D01*
X76822674Y-35674500D01*
X76547326Y-35674500D01*
X76547320Y-35674500D01*
X76547315Y-35674501D01*
X76274344Y-35710438D01*
X76274337Y-35710439D01*
X76274334Y-35710440D01*
X76218125Y-35725500D01*
X76008369Y-35781704D01*
X75753982Y-35887075D01*
X75753971Y-35887080D01*
X75515516Y-36024754D01*
X75297073Y-36192370D01*
X75297066Y-36192376D01*
X75102376Y-36387066D01*
X75102370Y-36387073D01*
X74934754Y-36605516D01*
X74934751Y-36605520D01*
X74934751Y-36605521D01*
X74928559Y-36616246D01*
X74797080Y-36843971D01*
X74797075Y-36843982D01*
X74691704Y-37098369D01*
X74620441Y-37364331D01*
X74620438Y-37364344D01*
X74598884Y-37528068D01*
X74584500Y-37637326D01*
X74584500Y-37912674D01*
X74590070Y-37954985D01*
X74590902Y-37961306D01*
X74580134Y-38030341D01*
X74555643Y-38065170D01*
X73758234Y-38862581D01*
X73696911Y-38896066D01*
X73670553Y-38898900D01*
X66295399Y-38898900D01*
X66228360Y-38879215D01*
X66182605Y-38826411D01*
X66172661Y-38757253D01*
X66188012Y-38712900D01*
X66243162Y-38617376D01*
X66243164Y-38617373D01*
X66338502Y-38387207D01*
X66402982Y-38146565D01*
X66435500Y-37899565D01*
X66435500Y-37765047D01*
X66455185Y-37698008D01*
X66471819Y-37677366D01*
X73666766Y-30482419D01*
X73728089Y-30448934D01*
X73754447Y-30446100D01*
X86875353Y-30446100D01*
X86942392Y-30465785D01*
G37*
%TD.AperFunction*%
%TA.AperFunction,NonConductor*%
G36*
X61038692Y-36121885D02*
G01*
X61059334Y-36138519D01*
X62598181Y-37677366D01*
X62631666Y-37738689D01*
X62634500Y-37765047D01*
X62634500Y-37899558D01*
X62634501Y-37899575D01*
X62667017Y-38146561D01*
X62731498Y-38387207D01*
X62826830Y-38617361D01*
X62826837Y-38617376D01*
X62881988Y-38712900D01*
X62898461Y-38780801D01*
X62875608Y-38846827D01*
X62820687Y-38890018D01*
X62774601Y-38898900D01*
X57389447Y-38898900D01*
X57322408Y-38879215D01*
X57301766Y-38862581D01*
X56311818Y-37872633D01*
X56278333Y-37811310D01*
X56275499Y-37784952D01*
X56275499Y-36873395D01*
X56272602Y-36843982D01*
X56260300Y-36719065D01*
X56200232Y-36521045D01*
X56102685Y-36338549D01*
X56089306Y-36322247D01*
X56075041Y-36304864D01*
X56047729Y-36240554D01*
X56059520Y-36171687D01*
X56106673Y-36120127D01*
X56170895Y-36102200D01*
X60971653Y-36102200D01*
X61038692Y-36121885D01*
G37*
%TD.AperFunction*%
%TA.AperFunction,NonConductor*%
G36*
X77750127Y-39677600D02*
G01*
X77789638Y-39735225D01*
X77791724Y-39805063D01*
X77759438Y-39861376D01*
X76903134Y-40717681D01*
X76841811Y-40751166D01*
X76815453Y-40754000D01*
X75844547Y-40754000D01*
X75777508Y-40734315D01*
X75731753Y-40681511D01*
X75721809Y-40612353D01*
X75750834Y-40548797D01*
X75756866Y-40542319D01*
X76110146Y-40189038D01*
X76394830Y-39904353D01*
X76456151Y-39870870D01*
X76498691Y-39869097D01*
X76547326Y-39875500D01*
X76547333Y-39875500D01*
X76822667Y-39875500D01*
X76822674Y-39875500D01*
X77095666Y-39839560D01*
X77361632Y-39768295D01*
X77616021Y-39662923D01*
X77616031Y-39662916D01*
X77616902Y-39662488D01*
X77617195Y-39662436D01*
X77619771Y-39661370D01*
X77620009Y-39661946D01*
X77685733Y-39650485D01*
X77750127Y-39677600D01*
G37*
%TD.AperFunction*%
%TA.AperFunction,NonConductor*%
G36*
X31110684Y-33864351D02*
G01*
X31179168Y-33916900D01*
X31179172Y-33916903D01*
X31440328Y-34067681D01*
X31440329Y-34067681D01*
X31440332Y-34067683D01*
X31626072Y-34144619D01*
X31718939Y-34183086D01*
X31718940Y-34183086D01*
X31718942Y-34183087D01*
X32010232Y-34261138D01*
X32309217Y-34300500D01*
X32309224Y-34300500D01*
X32610776Y-34300500D01*
X32610783Y-34300500D01*
X32824563Y-34272354D01*
X32893595Y-34283119D01*
X32928427Y-34307612D01*
X34414481Y-35793666D01*
X34580089Y-35913987D01*
X34650314Y-35949768D01*
X34762481Y-36006920D01*
X34859823Y-36038548D01*
X34957165Y-36070177D01*
X35159348Y-36102200D01*
X52579105Y-36102200D01*
X52646144Y-36121885D01*
X52691899Y-36174689D01*
X52701843Y-36243847D01*
X52674959Y-36304864D01*
X52647317Y-36338546D01*
X52549769Y-36521042D01*
X52549768Y-36521044D01*
X52549768Y-36521045D01*
X52542898Y-36543691D01*
X52489699Y-36719066D01*
X52474500Y-36873394D01*
X52474500Y-38676604D01*
X52489699Y-38830932D01*
X52489700Y-38830935D01*
X52549768Y-39028955D01*
X52642645Y-39202715D01*
X52647317Y-39211454D01*
X52778589Y-39371410D01*
X52896018Y-39467781D01*
X52938549Y-39502685D01*
X53121045Y-39600232D01*
X53319065Y-39660300D01*
X53319064Y-39660300D01*
X53329929Y-39661370D01*
X53473391Y-39675500D01*
X54384952Y-39675499D01*
X54451991Y-39695183D01*
X54472633Y-39711818D01*
X55303134Y-40542319D01*
X55336619Y-40603642D01*
X55331635Y-40673334D01*
X55289763Y-40729267D01*
X55224299Y-40753684D01*
X55215453Y-40754000D01*
X34789252Y-40754000D01*
X34584548Y-40754000D01*
X34537679Y-40761423D01*
X34382368Y-40786022D01*
X34382367Y-40786022D01*
X34295587Y-40814218D01*
X34295588Y-40814219D01*
X34187676Y-40849281D01*
X34125406Y-40881011D01*
X34005287Y-40942214D01*
X34005284Y-40942216D01*
X33839678Y-41062536D01*
X31805536Y-43096678D01*
X31685213Y-43262288D01*
X31654291Y-43322977D01*
X31592278Y-43444683D01*
X31529023Y-43639361D01*
X31529023Y-43639364D01*
X31497000Y-43841548D01*
X31497000Y-47858453D01*
X31477315Y-47925492D01*
X31424511Y-47971247D01*
X31355353Y-47981191D01*
X31291797Y-47952166D01*
X31285319Y-47946134D01*
X30947519Y-47608334D01*
X30914034Y-47547011D01*
X30911200Y-47520653D01*
X30911200Y-33962728D01*
X30930885Y-33895689D01*
X30983689Y-33849934D01*
X31052847Y-33839990D01*
X31110684Y-33864351D01*
G37*
%TD.AperFunction*%
%TA.AperFunction,NonConductor*%
G36*
X115355292Y-39095185D02*
G01*
X115375934Y-39111819D01*
X122031081Y-45766966D01*
X122196689Y-45887287D01*
X122267436Y-45923334D01*
X122379081Y-45980220D01*
X122476423Y-46011848D01*
X122573765Y-46043477D01*
X122775948Y-46075500D01*
X123449190Y-46075500D01*
X123479158Y-46084299D01*
X123509624Y-46091224D01*
X123513270Y-46094316D01*
X123516229Y-46095185D01*
X123537681Y-46112636D01*
X123546886Y-46122013D01*
X123550184Y-46127262D01*
X123651012Y-46228090D01*
X123651386Y-46228471D01*
X123667611Y-46258851D01*
X123684061Y-46288977D01*
X123684018Y-46289572D01*
X123684301Y-46290102D01*
X123681527Y-46324409D01*
X123679077Y-46358669D01*
X123678700Y-46359370D01*
X123678670Y-46359745D01*
X123678094Y-46360498D01*
X123663214Y-46388219D01*
X123618367Y-46449946D01*
X123500422Y-46681425D01*
X123420139Y-46928509D01*
X123396864Y-47075459D01*
X123366934Y-47138593D01*
X123362072Y-47143741D01*
X115506334Y-54999481D01*
X115445011Y-55032966D01*
X115418653Y-55035800D01*
X91774847Y-55035800D01*
X91707808Y-55016115D01*
X91662053Y-54963311D01*
X91652109Y-54894153D01*
X91681134Y-54830597D01*
X91687166Y-54824119D01*
X94312247Y-52199038D01*
X95389200Y-52199038D01*
X95389200Y-52450962D01*
X95405901Y-52556407D01*
X95428610Y-52699785D01*
X95506460Y-52939383D01*
X95578584Y-53080932D01*
X95606785Y-53136281D01*
X95620832Y-53163848D01*
X95768901Y-53367649D01*
X95768905Y-53367654D01*
X95947045Y-53545794D01*
X95947050Y-53545798D01*
X96090794Y-53650233D01*
X96150855Y-53693870D01*
X96266286Y-53752685D01*
X96375316Y-53808239D01*
X96375318Y-53808239D01*
X96375321Y-53808241D01*
X96614915Y-53886090D01*
X96863738Y-53925500D01*
X96863739Y-53925500D01*
X97115661Y-53925500D01*
X97115662Y-53925500D01*
X97364485Y-53886090D01*
X97604079Y-53808241D01*
X97828545Y-53693870D01*
X98032356Y-53545793D01*
X98210493Y-53367656D01*
X98358570Y-53163845D01*
X98472941Y-52939379D01*
X98550790Y-52699785D01*
X98590200Y-52450962D01*
X98590200Y-52199038D01*
X98550790Y-51950215D01*
X98472941Y-51710621D01*
X98472939Y-51710618D01*
X98472939Y-51710616D01*
X98422298Y-51611229D01*
X98358570Y-51486155D01*
X98274939Y-51371046D01*
X98210498Y-51282350D01*
X98210494Y-51282345D01*
X98032354Y-51104205D01*
X98032349Y-51104201D01*
X97828548Y-50956132D01*
X97828547Y-50956131D01*
X97828545Y-50956130D01*
X97713118Y-50897317D01*
X97604083Y-50841760D01*
X97364485Y-50763910D01*
X97364479Y-50763909D01*
X97115662Y-50724500D01*
X96863738Y-50724500D01*
X96767776Y-50739699D01*
X96614914Y-50763910D01*
X96375316Y-50841760D01*
X96150851Y-50956132D01*
X95947050Y-51104201D01*
X95947045Y-51104205D01*
X95768905Y-51282345D01*
X95768901Y-51282350D01*
X95620832Y-51486151D01*
X95506460Y-51710616D01*
X95428610Y-51950214D01*
X95409673Y-52069778D01*
X95389200Y-52199038D01*
X94312247Y-52199038D01*
X94404800Y-52106485D01*
X96838485Y-49672800D01*
X100045266Y-46466019D01*
X100165587Y-46300411D01*
X100254719Y-46125478D01*
X100258520Y-46118019D01*
X100292155Y-46014500D01*
X100321777Y-45923335D01*
X100353800Y-45721152D01*
X100353800Y-45516449D01*
X100353800Y-41905400D01*
X100373485Y-41838361D01*
X100426289Y-41792606D01*
X100495447Y-41782662D01*
X100534098Y-41794917D01*
X100540621Y-41798241D01*
X100780215Y-41876090D01*
X101029038Y-41915500D01*
X101029039Y-41915500D01*
X102080961Y-41915500D01*
X102080962Y-41915500D01*
X102329785Y-41876090D01*
X102569379Y-41798241D01*
X102793845Y-41683870D01*
X102997656Y-41535793D01*
X103175793Y-41357656D01*
X103323870Y-41153845D01*
X103438241Y-40929379D01*
X103516090Y-40689785D01*
X103555500Y-40440962D01*
X103555500Y-40189038D01*
X103516090Y-39940215D01*
X103438241Y-39700621D01*
X103438239Y-39700618D01*
X103438239Y-39700616D01*
X103387089Y-39600230D01*
X103323870Y-39476155D01*
X103313227Y-39461506D01*
X103175824Y-39272385D01*
X103152344Y-39206579D01*
X103168170Y-39138525D01*
X103218276Y-39089830D01*
X103276142Y-39075500D01*
X115288253Y-39075500D01*
X115355292Y-39095185D01*
G37*
%TD.AperFunction*%
%TA.AperFunction,NonConductor*%
G36*
X79452892Y-52293485D02*
G01*
X79473534Y-52310119D01*
X80817062Y-53653647D01*
X81987535Y-54824119D01*
X82021020Y-54885442D01*
X82016036Y-54955134D01*
X81974164Y-55011067D01*
X81908700Y-55035484D01*
X81899854Y-55035800D01*
X78984200Y-55035800D01*
X78917161Y-55016115D01*
X78871406Y-54963311D01*
X78860200Y-54911800D01*
X78860200Y-54483303D01*
X78879885Y-54416264D01*
X78883864Y-54410442D01*
X78971334Y-54290051D01*
X79089279Y-54058572D01*
X79169560Y-53811493D01*
X79199666Y-53621410D01*
X79210200Y-53554902D01*
X79210200Y-52995097D01*
X79188647Y-52859021D01*
X79169560Y-52738507D01*
X79089279Y-52491428D01*
X79070255Y-52454092D01*
X79069747Y-52451389D01*
X79067947Y-52449311D01*
X79063338Y-52417261D01*
X79057360Y-52385426D01*
X79058394Y-52382876D01*
X79058003Y-52380153D01*
X79071456Y-52350694D01*
X79083636Y-52320685D01*
X79085885Y-52319099D01*
X79087028Y-52316597D01*
X79114271Y-52299088D01*
X79140743Y-52280428D01*
X79144199Y-52279855D01*
X79145806Y-52278823D01*
X79180741Y-52273800D01*
X79385853Y-52273800D01*
X79452892Y-52293485D01*
G37*
%TD.AperFunction*%
%TA.AperFunction,NonConductor*%
G36*
X83846692Y-48645185D02*
G01*
X83867334Y-48661819D01*
X87761923Y-52556407D01*
X87795408Y-52617730D01*
X87796715Y-52624689D01*
X87808609Y-52699782D01*
X87808610Y-52699785D01*
X87882309Y-52926608D01*
X87886460Y-52939381D01*
X87913426Y-52992305D01*
X87926322Y-53060974D01*
X87900046Y-53125715D01*
X87842939Y-53165972D01*
X87802941Y-53172600D01*
X84065746Y-53172600D01*
X83998707Y-53152915D01*
X83978065Y-53136281D01*
X82410851Y-51569067D01*
X80823119Y-49981334D01*
X80657511Y-49861013D01*
X80566314Y-49814546D01*
X80475123Y-49768081D01*
X80428415Y-49752904D01*
X80377776Y-49736451D01*
X80353903Y-49728694D01*
X80280435Y-49704822D01*
X80105895Y-49677178D01*
X80078252Y-49672800D01*
X72582052Y-49672800D01*
X72377348Y-49672800D01*
X72353029Y-49676651D01*
X72175165Y-49704822D01*
X71980476Y-49768081D01*
X71798086Y-49861015D01*
X71632486Y-49981328D01*
X71487728Y-50126086D01*
X71367415Y-50291686D01*
X71274481Y-50474076D01*
X71211222Y-50668765D01*
X71179200Y-50870948D01*
X71179200Y-51544190D01*
X71159515Y-51611229D01*
X71132515Y-51641135D01*
X71127438Y-51645183D01*
X70999884Y-51772737D01*
X70909570Y-51916472D01*
X70857235Y-51962763D01*
X70804576Y-51974500D01*
X63822648Y-51974500D01*
X63755254Y-51985174D01*
X63620464Y-52006523D01*
X63425781Y-52069778D01*
X63425777Y-52069780D01*
X63327319Y-52119948D01*
X63327319Y-52119949D01*
X63243386Y-52162715D01*
X63077786Y-52283028D01*
X63077782Y-52283032D01*
X62933031Y-52427784D01*
X53843590Y-61517223D01*
X53782267Y-61550708D01*
X53775309Y-61552015D01*
X53700217Y-61563909D01*
X53460618Y-61641760D01*
X53236151Y-61756132D01*
X53032350Y-61904201D01*
X53032345Y-61904205D01*
X52854205Y-62082345D01*
X52854201Y-62082350D01*
X52706132Y-62286151D01*
X52591760Y-62510616D01*
X52513910Y-62750214D01*
X52474500Y-62999038D01*
X52474500Y-63250961D01*
X52513910Y-63499785D01*
X52591761Y-63739386D01*
X52608586Y-63772406D01*
X52621482Y-63841076D01*
X52595205Y-63905816D01*
X52538098Y-63946072D01*
X52498101Y-63952700D01*
X47343247Y-63952700D01*
X47276208Y-63933015D01*
X47255566Y-63916381D01*
X37176366Y-53837181D01*
X37142881Y-53775858D01*
X37147865Y-53706166D01*
X37189737Y-53650233D01*
X37255201Y-53625816D01*
X37264047Y-53625500D01*
X54383906Y-53625500D01*
X54450945Y-53645185D01*
X54462571Y-53653647D01*
X54511583Y-53693870D01*
X54583250Y-53752685D01*
X54765746Y-53850232D01*
X54963766Y-53910300D01*
X54963765Y-53910300D01*
X55002347Y-53914100D01*
X55118092Y-53925500D01*
X55118095Y-53925500D01*
X56321305Y-53925500D01*
X56321308Y-53925500D01*
X56475634Y-53910300D01*
X56673654Y-53850232D01*
X56856150Y-53752685D01*
X57016110Y-53621410D01*
X57147385Y-53461450D01*
X57244932Y-53278954D01*
X57305000Y-53080934D01*
X57320200Y-52926608D01*
X57320200Y-52199038D01*
X57619200Y-52199038D01*
X57619200Y-52450962D01*
X57635901Y-52556407D01*
X57658610Y-52699785D01*
X57736460Y-52939383D01*
X57808584Y-53080932D01*
X57836785Y-53136281D01*
X57850832Y-53163848D01*
X57998901Y-53367649D01*
X57998905Y-53367654D01*
X58177045Y-53545794D01*
X58177050Y-53545798D01*
X58320794Y-53650233D01*
X58380855Y-53693870D01*
X58496286Y-53752685D01*
X58605316Y-53808239D01*
X58605318Y-53808239D01*
X58605321Y-53808241D01*
X58844915Y-53886090D01*
X59093738Y-53925500D01*
X59093739Y-53925500D01*
X59345661Y-53925500D01*
X59345662Y-53925500D01*
X59594485Y-53886090D01*
X59834079Y-53808241D01*
X60058545Y-53693870D01*
X60262356Y-53545793D01*
X60440493Y-53367656D01*
X60588570Y-53163845D01*
X60702941Y-52939379D01*
X60780790Y-52699785D01*
X60820200Y-52450962D01*
X60820200Y-52199038D01*
X60780790Y-51950215D01*
X60702941Y-51710621D01*
X60702939Y-51710618D01*
X60702939Y-51710616D01*
X60652298Y-51611229D01*
X60588570Y-51486155D01*
X60504939Y-51371046D01*
X60440498Y-51282350D01*
X60440494Y-51282345D01*
X60262354Y-51104205D01*
X60262349Y-51104201D01*
X60058548Y-50956132D01*
X60058547Y-50956131D01*
X60058545Y-50956130D01*
X59943118Y-50897317D01*
X59834083Y-50841760D01*
X59594485Y-50763910D01*
X59594479Y-50763909D01*
X59345662Y-50724500D01*
X59093738Y-50724500D01*
X58997776Y-50739699D01*
X58844914Y-50763910D01*
X58605316Y-50841760D01*
X58380851Y-50956132D01*
X58177050Y-51104201D01*
X58177045Y-51104205D01*
X57998905Y-51282345D01*
X57998901Y-51282350D01*
X57850832Y-51486151D01*
X57736460Y-51710616D01*
X57658610Y-51950214D01*
X57639673Y-52069778D01*
X57619200Y-52199038D01*
X57320200Y-52199038D01*
X57320200Y-51723392D01*
X57305000Y-51569066D01*
X57244932Y-51371046D01*
X57147385Y-51188550D01*
X57078162Y-51104201D01*
X57016110Y-51028589D01*
X56856152Y-50897317D01*
X56856153Y-50897317D01*
X56856150Y-50897315D01*
X56673654Y-50799768D01*
X56475634Y-50739700D01*
X56475632Y-50739699D01*
X56475634Y-50739699D01*
X56356505Y-50727966D01*
X56321308Y-50724500D01*
X55118092Y-50724500D01*
X55079998Y-50728251D01*
X54963767Y-50739699D01*
X54765743Y-50799769D01*
X54583246Y-50897317D01*
X54462571Y-50996353D01*
X54398261Y-51023666D01*
X54383906Y-51024500D01*
X37037547Y-51024500D01*
X36970508Y-51004815D01*
X36949866Y-50988181D01*
X35148866Y-49187181D01*
X35115381Y-49125858D01*
X35120365Y-49056166D01*
X35162237Y-49000233D01*
X35227701Y-48975816D01*
X35236547Y-48975500D01*
X35894957Y-48975500D01*
X35894958Y-48975499D01*
X35962104Y-48967934D01*
X36029249Y-48960369D01*
X36029252Y-48960368D01*
X36029255Y-48960368D01*
X36199522Y-48900789D01*
X36352262Y-48804816D01*
X36479816Y-48677262D01*
X36479818Y-48677257D01*
X36483865Y-48672185D01*
X36541054Y-48632046D01*
X36580810Y-48625500D01*
X83779653Y-48625500D01*
X83846692Y-48645185D01*
G37*
%TD.AperFunction*%
M02*
