%TF.GenerationSoftware,KiCad,Pcbnew,9.0.4*%
%TF.CreationDate,2026-06-10T11:39:31+02:00*%
%TF.ProjectId,buck,6275636b-2e6b-4696-9361-645f70636258,rev?*%
%TF.SameCoordinates,Original*%
%TF.FileFunction,Copper,L1,Top*%
%TF.FilePolarity,Positive*%
%FSLAX46Y46*%
G04 Gerber Fmt 4.6, Leading zero omitted, Abs format (unit mm)*
G04 Created by KiCad (PCBNEW 9.0.4) date 2026-06-10 11:39:31*
%MOMM*%
%LPD*%
G01*
G04 APERTURE LIST*
G04 Aperture macros list*
%AMRoundRect*
0 Rectangle with rounded corners*
0 $1 Rounding radius*
0 $2 $3 $4 $5 $6 $7 $8 $9 X,Y pos of 4 corners*
0 Add a 4 corners polygon primitive as box body*
4,1,4,$2,$3,$4,$5,$6,$7,$8,$9,$2,$3,0*
0 Add four circle primitives for the rounded corners*
1,1,$1+$1,$2,$3*
1,1,$1+$1,$4,$5*
1,1,$1+$1,$6,$7*
1,1,$1+$1,$8,$9*
0 Add four rect primitives between the rounded corners*
20,1,$1+$1,$2,$3,$4,$5,0*
20,1,$1+$1,$4,$5,$6,$7,0*
20,1,$1+$1,$6,$7,$8,$9,0*
20,1,$1+$1,$8,$9,$2,$3,0*%
G04 Aperture macros list end*
%ADD10C,0.300000*%
%TA.AperFunction,NonConductor*%
%ADD11C,0.300000*%
%TD*%
%TA.AperFunction,ComponentPad*%
%ADD12R,1.700000X1.700000*%
%TD*%
%TA.AperFunction,ComponentPad*%
%ADD13C,1.700000*%
%TD*%
%TA.AperFunction,ComponentPad*%
%ADD14RoundRect,0.250000X-0.950000X-0.550000X0.950000X-0.550000X0.950000X0.550000X-0.950000X0.550000X0*%
%TD*%
%TA.AperFunction,ComponentPad*%
%ADD15O,2.400000X1.600000*%
%TD*%
%TA.AperFunction,ComponentPad*%
%ADD16C,1.600000*%
%TD*%
%TA.AperFunction,ComponentPad*%
%ADD17C,4.000000*%
%TD*%
%TA.AperFunction,ComponentPad*%
%ADD18R,1.700000X2.000000*%
%TD*%
%TA.AperFunction,ComponentPad*%
%ADD19O,1.700000X2.000000*%
%TD*%
%TA.AperFunction,ComponentPad*%
%ADD20RoundRect,0.249999X-0.850001X-0.850001X0.850001X-0.850001X0.850001X0.850001X-0.850001X0.850001X0*%
%TD*%
%TA.AperFunction,ComponentPad*%
%ADD21C,2.200000*%
%TD*%
%TA.AperFunction,ComponentPad*%
%ADD22R,3.000000X3.000000*%
%TD*%
%TA.AperFunction,ComponentPad*%
%ADD23C,3.000000*%
%TD*%
%TA.AperFunction,ComponentPad*%
%ADD24RoundRect,0.250000X-0.550000X-0.550000X0.550000X-0.550000X0.550000X0.550000X-0.550000X0.550000X0*%
%TD*%
%TA.AperFunction,Conductor*%
%ADD25C,1.000000*%
%TD*%
G04 APERTURE END LIST*
D10*
D11*
X34500000Y-25453328D02*
X34500000Y-26524757D01*
X34500000Y-26524757D02*
X34428571Y-26739042D01*
X34428571Y-26739042D02*
X34285714Y-26881900D01*
X34285714Y-26881900D02*
X34071428Y-26953328D01*
X34071428Y-26953328D02*
X33928571Y-26953328D01*
X36000000Y-26953328D02*
X35142857Y-26953328D01*
X35571428Y-26953328D02*
X35571428Y-25453328D01*
X35571428Y-25453328D02*
X35428571Y-25667614D01*
X35428571Y-25667614D02*
X35285714Y-25810471D01*
X35285714Y-25810471D02*
X35142857Y-25881900D01*
D10*
D11*
X58347857Y-47153328D02*
X58347857Y-45653328D01*
X58347857Y-45653328D02*
X58705000Y-45653328D01*
X58705000Y-45653328D02*
X58919286Y-45724757D01*
X58919286Y-45724757D02*
X59062143Y-45867614D01*
X59062143Y-45867614D02*
X59133572Y-46010471D01*
X59133572Y-46010471D02*
X59205000Y-46296185D01*
X59205000Y-46296185D02*
X59205000Y-46510471D01*
X59205000Y-46510471D02*
X59133572Y-46796185D01*
X59133572Y-46796185D02*
X59062143Y-46939042D01*
X59062143Y-46939042D02*
X58919286Y-47081900D01*
X58919286Y-47081900D02*
X58705000Y-47153328D01*
X58705000Y-47153328D02*
X58347857Y-47153328D01*
X60633572Y-47153328D02*
X59776429Y-47153328D01*
X60205000Y-47153328D02*
X60205000Y-45653328D01*
X60205000Y-45653328D02*
X60062143Y-45867614D01*
X60062143Y-45867614D02*
X59919286Y-46010471D01*
X59919286Y-46010471D02*
X59776429Y-46081900D01*
D10*
D11*
X149030000Y-25453328D02*
X149030000Y-26524757D01*
X149030000Y-26524757D02*
X148958571Y-26739042D01*
X148958571Y-26739042D02*
X148815714Y-26881900D01*
X148815714Y-26881900D02*
X148601428Y-26953328D01*
X148601428Y-26953328D02*
X148458571Y-26953328D01*
X149672857Y-25596185D02*
X149744285Y-25524757D01*
X149744285Y-25524757D02*
X149887143Y-25453328D01*
X149887143Y-25453328D02*
X150244285Y-25453328D01*
X150244285Y-25453328D02*
X150387143Y-25524757D01*
X150387143Y-25524757D02*
X150458571Y-25596185D01*
X150458571Y-25596185D02*
X150530000Y-25739042D01*
X150530000Y-25739042D02*
X150530000Y-25881900D01*
X150530000Y-25881900D02*
X150458571Y-26096185D01*
X150458571Y-26096185D02*
X149601428Y-26953328D01*
X149601428Y-26953328D02*
X150530000Y-26953328D01*
D10*
D11*
X92929700Y-73828328D02*
X92429700Y-73114042D01*
X92072557Y-73828328D02*
X92072557Y-72328328D01*
X92072557Y-72328328D02*
X92643986Y-72328328D01*
X92643986Y-72328328D02*
X92786843Y-72399757D01*
X92786843Y-72399757D02*
X92858272Y-72471185D01*
X92858272Y-72471185D02*
X92929700Y-72614042D01*
X92929700Y-72614042D02*
X92929700Y-72828328D01*
X92929700Y-72828328D02*
X92858272Y-72971185D01*
X92858272Y-72971185D02*
X92786843Y-73042614D01*
X92786843Y-73042614D02*
X92643986Y-73114042D01*
X92643986Y-73114042D02*
X92072557Y-73114042D01*
X94358272Y-73828328D02*
X93501129Y-73828328D01*
X93929700Y-73828328D02*
X93929700Y-72328328D01*
X93929700Y-72328328D02*
X93786843Y-72542614D01*
X93786843Y-72542614D02*
X93643986Y-72685471D01*
X93643986Y-72685471D02*
X93501129Y-72756900D01*
D10*
D11*
X110699700Y-73828328D02*
X110199700Y-73114042D01*
X109842557Y-73828328D02*
X109842557Y-72328328D01*
X109842557Y-72328328D02*
X110413986Y-72328328D01*
X110413986Y-72328328D02*
X110556843Y-72399757D01*
X110556843Y-72399757D02*
X110628272Y-72471185D01*
X110628272Y-72471185D02*
X110699700Y-72614042D01*
X110699700Y-72614042D02*
X110699700Y-72828328D01*
X110699700Y-72828328D02*
X110628272Y-72971185D01*
X110628272Y-72971185D02*
X110556843Y-73042614D01*
X110556843Y-73042614D02*
X110413986Y-73114042D01*
X110413986Y-73114042D02*
X109842557Y-73114042D01*
X111271129Y-72471185D02*
X111342557Y-72399757D01*
X111342557Y-72399757D02*
X111485415Y-72328328D01*
X111485415Y-72328328D02*
X111842557Y-72328328D01*
X111842557Y-72328328D02*
X111985415Y-72399757D01*
X111985415Y-72399757D02*
X112056843Y-72471185D01*
X112056843Y-72471185D02*
X112128272Y-72614042D01*
X112128272Y-72614042D02*
X112128272Y-72756900D01*
X112128272Y-72756900D02*
X112056843Y-72971185D01*
X112056843Y-72971185D02*
X111199700Y-73828328D01*
X111199700Y-73828328D02*
X112128272Y-73828328D01*
D10*
D11*
X34500000Y-40458328D02*
X34500000Y-41529757D01*
X34500000Y-41529757D02*
X34428571Y-41744042D01*
X34428571Y-41744042D02*
X34285714Y-41886900D01*
X34285714Y-41886900D02*
X34071428Y-41958328D01*
X34071428Y-41958328D02*
X33928571Y-41958328D01*
X35071428Y-40458328D02*
X36000000Y-40458328D01*
X36000000Y-40458328D02*
X35500000Y-41029757D01*
X35500000Y-41029757D02*
X35714285Y-41029757D01*
X35714285Y-41029757D02*
X35857143Y-41101185D01*
X35857143Y-41101185D02*
X35928571Y-41172614D01*
X35928571Y-41172614D02*
X36000000Y-41315471D01*
X36000000Y-41315471D02*
X36000000Y-41672614D01*
X36000000Y-41672614D02*
X35928571Y-41815471D01*
X35928571Y-41815471D02*
X35857143Y-41886900D01*
X35857143Y-41886900D02*
X35714285Y-41958328D01*
X35714285Y-41958328D02*
X35285714Y-41958328D01*
X35285714Y-41958328D02*
X35142857Y-41886900D01*
X35142857Y-41886900D02*
X35071428Y-41815471D01*
D10*
D11*
X57122351Y-70935471D02*
X57050923Y-71006900D01*
X57050923Y-71006900D02*
X56836637Y-71078328D01*
X56836637Y-71078328D02*
X56693780Y-71078328D01*
X56693780Y-71078328D02*
X56479494Y-71006900D01*
X56479494Y-71006900D02*
X56336637Y-70864042D01*
X56336637Y-70864042D02*
X56265208Y-70721185D01*
X56265208Y-70721185D02*
X56193780Y-70435471D01*
X56193780Y-70435471D02*
X56193780Y-70221185D01*
X56193780Y-70221185D02*
X56265208Y-69935471D01*
X56265208Y-69935471D02*
X56336637Y-69792614D01*
X56336637Y-69792614D02*
X56479494Y-69649757D01*
X56479494Y-69649757D02*
X56693780Y-69578328D01*
X56693780Y-69578328D02*
X56836637Y-69578328D01*
X56836637Y-69578328D02*
X57050923Y-69649757D01*
X57050923Y-69649757D02*
X57122351Y-69721185D01*
X58550923Y-71078328D02*
X57693780Y-71078328D01*
X58122351Y-71078328D02*
X58122351Y-69578328D01*
X58122351Y-69578328D02*
X57979494Y-69792614D01*
X57979494Y-69792614D02*
X57836637Y-69935471D01*
X57836637Y-69935471D02*
X57693780Y-70006900D01*
D10*
D11*
X91185000Y-31478328D02*
X90470714Y-31478328D01*
X90470714Y-31478328D02*
X90470714Y-29978328D01*
X92470715Y-31478328D02*
X91613572Y-31478328D01*
X92042143Y-31478328D02*
X92042143Y-29978328D01*
X92042143Y-29978328D02*
X91899286Y-30192614D01*
X91899286Y-30192614D02*
X91756429Y-30335471D01*
X91756429Y-30335471D02*
X91613572Y-30406900D01*
D10*
D11*
X66830414Y-77053328D02*
X66830414Y-75553328D01*
X66830414Y-75553328D02*
X67330414Y-76624757D01*
X67330414Y-76624757D02*
X67830414Y-75553328D01*
X67830414Y-75553328D02*
X67830414Y-77053328D01*
X69330415Y-77053328D02*
X68473272Y-77053328D01*
X68901843Y-77053328D02*
X68901843Y-75553328D01*
X68901843Y-75553328D02*
X68758986Y-75767614D01*
X68758986Y-75767614D02*
X68616129Y-75910471D01*
X68616129Y-75910471D02*
X68473272Y-75981900D01*
D10*
D11*
X149030000Y-40458328D02*
X149030000Y-41529757D01*
X149030000Y-41529757D02*
X148958571Y-41744042D01*
X148958571Y-41744042D02*
X148815714Y-41886900D01*
X148815714Y-41886900D02*
X148601428Y-41958328D01*
X148601428Y-41958328D02*
X148458571Y-41958328D01*
X150387143Y-40958328D02*
X150387143Y-41958328D01*
X150030000Y-40386900D02*
X149672857Y-41458328D01*
X149672857Y-41458328D02*
X150601428Y-41458328D01*
D10*
D11*
X121102142Y-41693328D02*
X121102142Y-42907614D01*
X121102142Y-42907614D02*
X121173571Y-43050471D01*
X121173571Y-43050471D02*
X121245000Y-43121900D01*
X121245000Y-43121900D02*
X121387857Y-43193328D01*
X121387857Y-43193328D02*
X121673571Y-43193328D01*
X121673571Y-43193328D02*
X121816428Y-43121900D01*
X121816428Y-43121900D02*
X121887857Y-43050471D01*
X121887857Y-43050471D02*
X121959285Y-42907614D01*
X121959285Y-42907614D02*
X121959285Y-41693328D01*
X123459286Y-43193328D02*
X122602143Y-43193328D01*
X123030714Y-43193328D02*
X123030714Y-41693328D01*
X123030714Y-41693328D02*
X122887857Y-41907614D01*
X122887857Y-41907614D02*
X122745000Y-42050471D01*
X122745000Y-42050471D02*
X122602143Y-42121900D01*
D12*
%TO.P,J3,1*%
%TO.N,PWM*%
X35000000Y-47325000D03*
D13*
%TO.P,J3,2*%
%TO.N,GND_MCU*%
X35000000Y-44785000D03*
%TD*%
D14*
%TO.P,U1,1*%
%TO.N,Net-(R1-Pad2)*%
X118435000Y-47260000D03*
D15*
%TO.P,U1,2*%
%TO.N,GND_MCU*%
X118435000Y-49800000D03*
%TO.P,U1,3*%
%TO.N,N/C*%
X118435000Y-52340000D03*
%TO.P,U1,4*%
%TO.N,GATE*%
X126055000Y-52340000D03*
%TO.P,U1,5*%
%TO.N,+12V_SW*%
X126055000Y-49800000D03*
%TO.P,U1,6*%
%TO.N,N/C*%
X126055000Y-47260000D03*
%TD*%
D16*
%TO.P,R2,1*%
%TO.N,GATE*%
X107139700Y-76375000D03*
%TO.P,R2,2*%
%TO.N,/SW*%
X114759700Y-76375000D03*
%TD*%
D17*
%TO.P,L1,1*%
%TO.N,/SW*%
X77335000Y-49800000D03*
%TO.P,L1,2*%
%TO.N,/VOUT_5V*%
X105535000Y-49800000D03*
%TD*%
D18*
%TO.P,M1,1*%
%TO.N,GATE*%
X72479700Y-77325000D03*
D19*
%TO.P,M1,2*%
%TO.N,/VIN_15V*%
X75019700Y-77325000D03*
%TO.P,M1,3*%
%TO.N,/SW*%
X77559700Y-77325000D03*
%TD*%
D20*
%TO.P,D1,1*%
%TO.N,/SW*%
X54375000Y-49800000D03*
D21*
%TO.P,D1,2*%
%TO.N,/GND*%
X64535000Y-49800000D03*
%TD*%
D22*
%TO.P,J1,1*%
%TO.N,/VIN_15V*%
X37540000Y-32000000D03*
D23*
%TO.P,J1,2*%
%TO.N,/GND*%
X32460000Y-32000000D03*
%TD*%
D12*
%TO.P,J4,1*%
%TO.N,+12V_SW*%
X149530000Y-44775000D03*
D13*
%TO.P,J4,2*%
%TO.N,/SW*%
X149530000Y-47315000D03*
%TD*%
D16*
%TO.P,R1,1*%
%TO.N,PWM*%
X89369700Y-76375000D03*
%TO.P,R1,2*%
%TO.N,Net-(R1-Pad2)*%
X96989700Y-76375000D03*
%TD*%
D22*
%TO.P,J2,1*%
%TO.N,/VOUT_5V*%
X146990000Y-32000000D03*
D23*
%TO.P,J2,2*%
%TO.N,/GND*%
X152070000Y-32000000D03*
%TD*%
D24*
%TO.P,C1,1*%
%TO.N,/VOUT_5V*%
X55719700Y-76375000D03*
D16*
%TO.P,C1,2*%
%TO.N,/GND*%
X59219700Y-76375000D03*
%TD*%
D25*
%TO.N,/SW*%
X77559700Y-50024700D02*
X77559700Y-77325000D01*
X77335000Y-49800000D02*
X77559700Y-50024700D01*
%TO.N,/VOUT_5V*%
X105535000Y-49800000D02*
X123335000Y-32000000D01*
X123335000Y-32000000D02*
X146990000Y-32000000D01*
%TD*%
%TA.AperFunction,NonConductor*%
G36*
X164442539Y-20520185D02*
G01*
X164488294Y-20572989D01*
X164499500Y-20624500D01*
X164499500Y-91375500D01*
X164479815Y-91442539D01*
X164427011Y-91488294D01*
X164375500Y-91499500D01*
X20624500Y-91499500D01*
X20557461Y-91479815D01*
X20511706Y-91427011D01*
X20500500Y-91375500D01*
X20500500Y-78008828D01*
X65873753Y-78008828D01*
X70285915Y-78008828D01*
X70285915Y-76280039D01*
X70829200Y-76280039D01*
X70829200Y-78369960D01*
X70844330Y-78504249D01*
X70844331Y-78504254D01*
X70903911Y-78674523D01*
X70941238Y-78733928D01*
X70999884Y-78827262D01*
X71127438Y-78954816D01*
X71280178Y-79050789D01*
X71450445Y-79110368D01*
X71450450Y-79110369D01*
X71540946Y-79120565D01*
X71584740Y-79125499D01*
X71584743Y-79125500D01*
X71584746Y-79125500D01*
X73374657Y-79125500D01*
X73374658Y-79125499D01*
X73441804Y-79117934D01*
X73508949Y-79110369D01*
X73508952Y-79110368D01*
X73508955Y-79110368D01*
X73679222Y-79050789D01*
X73831962Y-78954816D01*
X73932355Y-78854423D01*
X73993678Y-78820938D01*
X74063370Y-78825922D01*
X74092918Y-78841783D01*
X74154649Y-78886634D01*
X74264012Y-78942357D01*
X74386123Y-79004577D01*
X74386125Y-79004577D01*
X74386128Y-79004579D01*
X74633207Y-79084860D01*
X74765406Y-79105797D01*
X74889798Y-79125500D01*
X74889803Y-79125500D01*
X75149602Y-79125500D01*
X75262998Y-79107539D01*
X75406193Y-79084860D01*
X75653272Y-79004579D01*
X75884751Y-78886634D01*
X76094929Y-78733931D01*
X76202019Y-78626841D01*
X76263342Y-78593356D01*
X76333034Y-78598340D01*
X76377381Y-78626841D01*
X76484471Y-78733931D01*
X76694649Y-78886634D01*
X76828461Y-78954815D01*
X76926123Y-79004577D01*
X76926125Y-79004577D01*
X76926128Y-79004579D01*
X77173207Y-79084860D01*
X77305406Y-79105797D01*
X77429798Y-79125500D01*
X77429803Y-79125500D01*
X77689602Y-79125500D01*
X77802998Y-79107539D01*
X77946193Y-79084860D01*
X78193272Y-79004579D01*
X78424751Y-78886634D01*
X78634929Y-78733931D01*
X78818631Y-78550229D01*
X78971334Y-78340051D01*
X79089279Y-78108572D01*
X79169560Y-77861493D01*
X79199666Y-77671410D01*
X79210200Y-77604902D01*
X79210200Y-77045097D01*
X79188647Y-76909021D01*
X79169560Y-76788507D01*
X79089279Y-76541428D01*
X79089277Y-76541425D01*
X79089277Y-76541423D01*
X78972142Y-76311535D01*
X78971334Y-76309949D01*
X78927080Y-76249038D01*
X87769200Y-76249038D01*
X87769200Y-76500962D01*
X87775609Y-76541428D01*
X87808610Y-76749785D01*
X87886460Y-76989383D01*
X88000832Y-77213848D01*
X88148901Y-77417649D01*
X88148905Y-77417654D01*
X88327045Y-77595794D01*
X88327050Y-77595798D01*
X88339581Y-77604902D01*
X88530855Y-77743870D01*
X88646286Y-77802685D01*
X88755316Y-77858239D01*
X88755318Y-77858239D01*
X88755321Y-77858241D01*
X88994915Y-77936090D01*
X89243738Y-77975500D01*
X89243739Y-77975500D01*
X89495661Y-77975500D01*
X89495662Y-77975500D01*
X89744485Y-77936090D01*
X89984079Y-77858241D01*
X90208545Y-77743870D01*
X90412356Y-77595793D01*
X90590493Y-77417656D01*
X90738570Y-77213845D01*
X90852941Y-76989379D01*
X90930790Y-76749785D01*
X90970200Y-76500962D01*
X90970200Y-76249038D01*
X95389200Y-76249038D01*
X95389200Y-76500962D01*
X95395609Y-76541428D01*
X95428610Y-76749785D01*
X95506460Y-76989383D01*
X95620832Y-77213848D01*
X95768901Y-77417649D01*
X95768905Y-77417654D01*
X95947045Y-77595794D01*
X95947050Y-77595798D01*
X95959581Y-77604902D01*
X96150855Y-77743870D01*
X96266286Y-77802685D01*
X96375316Y-77858239D01*
X96375318Y-77858239D01*
X96375321Y-77858241D01*
X96614915Y-77936090D01*
X96863738Y-77975500D01*
X96863739Y-77975500D01*
X97115661Y-77975500D01*
X97115662Y-77975500D01*
X97364485Y-77936090D01*
X97604079Y-77858241D01*
X97828545Y-77743870D01*
X98032356Y-77595793D01*
X98210493Y-77417656D01*
X98358570Y-77213845D01*
X98472941Y-76989379D01*
X98550790Y-76749785D01*
X98590200Y-76500962D01*
X98590200Y-76249038D01*
X105539200Y-76249038D01*
X105539200Y-76500962D01*
X105545609Y-76541428D01*
X105578610Y-76749785D01*
X105656460Y-76989383D01*
X105770832Y-77213848D01*
X105918901Y-77417649D01*
X105918905Y-77417654D01*
X106097045Y-77595794D01*
X106097050Y-77595798D01*
X106109581Y-77604902D01*
X106300855Y-77743870D01*
X106416286Y-77802685D01*
X106525316Y-77858239D01*
X106525318Y-77858239D01*
X106525321Y-77858241D01*
X106764915Y-77936090D01*
X107013738Y-77975500D01*
X107013739Y-77975500D01*
X107265661Y-77975500D01*
X107265662Y-77975500D01*
X107514485Y-77936090D01*
X107754079Y-77858241D01*
X107978545Y-77743870D01*
X108182356Y-77595793D01*
X108360493Y-77417656D01*
X108508570Y-77213845D01*
X108622941Y-76989379D01*
X108700790Y-76749785D01*
X108740200Y-76500962D01*
X108740200Y-76249038D01*
X113159200Y-76249038D01*
X113159200Y-76500962D01*
X113165609Y-76541428D01*
X113198610Y-76749785D01*
X113276460Y-76989383D01*
X113390832Y-77213848D01*
X113538901Y-77417649D01*
X113538905Y-77417654D01*
X113717045Y-77595794D01*
X113717050Y-77595798D01*
X113729581Y-77604902D01*
X113920855Y-77743870D01*
X114036286Y-77802685D01*
X114145316Y-77858239D01*
X114145318Y-77858239D01*
X114145321Y-77858241D01*
X114384915Y-77936090D01*
X114633738Y-77975500D01*
X114633739Y-77975500D01*
X114885661Y-77975500D01*
X114885662Y-77975500D01*
X115134485Y-77936090D01*
X115374079Y-77858241D01*
X115598545Y-77743870D01*
X115802356Y-77595793D01*
X115980493Y-77417656D01*
X116128570Y-77213845D01*
X116242941Y-76989379D01*
X116320790Y-76749785D01*
X116360200Y-76500962D01*
X116360200Y-76249038D01*
X116320790Y-76000215D01*
X116242941Y-75760621D01*
X116242939Y-75760618D01*
X116242939Y-75760616D01*
X116184244Y-75645421D01*
X116128570Y-75536155D01*
X116044939Y-75421046D01*
X115980498Y-75332350D01*
X115980494Y-75332345D01*
X115802354Y-75154205D01*
X115802349Y-75154201D01*
X115598548Y-75006132D01*
X115598547Y-75006131D01*
X115598545Y-75006130D01*
X115483118Y-74947317D01*
X115374083Y-74891760D01*
X115134485Y-74813910D01*
X114981630Y-74789700D01*
X114885662Y-74774500D01*
X114633738Y-74774500D01*
X114556995Y-74786655D01*
X114384914Y-74813910D01*
X114145316Y-74891760D01*
X113920851Y-75006132D01*
X113717050Y-75154201D01*
X113717045Y-75154205D01*
X113538905Y-75332345D01*
X113538901Y-75332350D01*
X113390832Y-75536151D01*
X113276460Y-75760616D01*
X113198610Y-76000214D01*
X113198610Y-76000215D01*
X113159200Y-76249038D01*
X108740200Y-76249038D01*
X108700790Y-76000215D01*
X108622941Y-75760621D01*
X108622939Y-75760618D01*
X108622939Y-75760616D01*
X108564244Y-75645421D01*
X108508570Y-75536155D01*
X108424939Y-75421046D01*
X108360498Y-75332350D01*
X108360494Y-75332345D01*
X108182354Y-75154205D01*
X108182349Y-75154201D01*
X107978548Y-75006132D01*
X107978547Y-75006131D01*
X107978545Y-75006130D01*
X107863118Y-74947317D01*
X107754083Y-74891760D01*
X107514485Y-74813910D01*
X107361630Y-74789700D01*
X107342405Y-74786655D01*
X108887057Y-74786655D01*
X113085497Y-74786655D01*
X113085497Y-71371103D01*
X108887057Y-71371103D01*
X108887057Y-74786655D01*
X107342405Y-74786655D01*
X107265662Y-74774500D01*
X107013738Y-74774500D01*
X106936995Y-74786655D01*
X106764914Y-74813910D01*
X106525316Y-74891760D01*
X106300851Y-75006132D01*
X106097050Y-75154201D01*
X106097045Y-75154205D01*
X105918905Y-75332345D01*
X105918901Y-75332350D01*
X105770832Y-75536151D01*
X105656460Y-75760616D01*
X105578610Y-76000214D01*
X105578610Y-76000215D01*
X105539200Y-76249038D01*
X98590200Y-76249038D01*
X98550790Y-76000215D01*
X98472941Y-75760621D01*
X98472939Y-75760618D01*
X98472939Y-75760616D01*
X98414244Y-75645421D01*
X98358570Y-75536155D01*
X98274939Y-75421046D01*
X98210498Y-75332350D01*
X98210494Y-75332345D01*
X98032354Y-75154205D01*
X98032349Y-75154201D01*
X97828548Y-75006132D01*
X97828547Y-75006131D01*
X97828545Y-75006130D01*
X97713118Y-74947317D01*
X97604083Y-74891760D01*
X97364485Y-74813910D01*
X97211630Y-74789700D01*
X97115662Y-74774500D01*
X96863738Y-74774500D01*
X96786995Y-74786655D01*
X96614914Y-74813910D01*
X96375316Y-74891760D01*
X96150851Y-75006132D01*
X95947050Y-75154201D01*
X95947045Y-75154205D01*
X95768905Y-75332345D01*
X95768901Y-75332350D01*
X95620832Y-75536151D01*
X95506460Y-75760616D01*
X95428610Y-76000214D01*
X95428610Y-76000215D01*
X95389200Y-76249038D01*
X90970200Y-76249038D01*
X90930790Y-76000215D01*
X90852941Y-75760621D01*
X90852939Y-75760618D01*
X90852939Y-75760616D01*
X90794244Y-75645421D01*
X90738570Y-75536155D01*
X90654939Y-75421046D01*
X90590498Y-75332350D01*
X90590494Y-75332345D01*
X90412354Y-75154205D01*
X90412349Y-75154201D01*
X90208548Y-75006132D01*
X90208547Y-75006131D01*
X90208545Y-75006130D01*
X90093118Y-74947317D01*
X89984083Y-74891760D01*
X89744485Y-74813910D01*
X89591630Y-74789700D01*
X89572405Y-74786655D01*
X91117057Y-74786655D01*
X95313772Y-74786655D01*
X95313772Y-71369984D01*
X91117057Y-71369984D01*
X91117057Y-74786655D01*
X89572405Y-74786655D01*
X89495662Y-74774500D01*
X89243738Y-74774500D01*
X89166995Y-74786655D01*
X88994914Y-74813910D01*
X88755316Y-74891760D01*
X88530851Y-75006132D01*
X88327050Y-75154201D01*
X88327045Y-75154205D01*
X88148905Y-75332345D01*
X88148901Y-75332350D01*
X88000832Y-75536151D01*
X87886460Y-75760616D01*
X87808610Y-76000214D01*
X87808610Y-76000215D01*
X87769200Y-76249038D01*
X78927080Y-76249038D01*
X78883746Y-76189394D01*
X78872044Y-76156402D01*
X78860402Y-76123774D01*
X78860396Y-76123564D01*
X78860389Y-76123545D01*
X78860394Y-76123520D01*
X78860200Y-76116695D01*
X78860200Y-52217638D01*
X78879885Y-52150599D01*
X78918226Y-52112645D01*
X78958123Y-52087577D01*
X79204044Y-51891461D01*
X79426461Y-51669044D01*
X79622577Y-51423123D01*
X79789926Y-51156789D01*
X79926402Y-50873394D01*
X80030289Y-50576500D01*
X80100282Y-50269840D01*
X80135500Y-49957273D01*
X80135500Y-49642727D01*
X80135499Y-49642722D01*
X102734500Y-49642722D01*
X102734500Y-49957277D01*
X102769716Y-50269827D01*
X102769718Y-50269843D01*
X102839710Y-50576499D01*
X102839711Y-50576501D01*
X102943598Y-50873395D01*
X103080072Y-51156786D01*
X103080074Y-51156789D01*
X103247423Y-51423123D01*
X103443539Y-51669044D01*
X103665956Y-51891461D01*
X103911877Y-52087577D01*
X104178211Y-52254926D01*
X104461606Y-52391402D01*
X104758500Y-52495289D01*
X105065160Y-52565282D01*
X105377723Y-52600499D01*
X105377724Y-52600500D01*
X105377727Y-52600500D01*
X105692276Y-52600500D01*
X105692276Y-52600499D01*
X106004840Y-52565282D01*
X106311500Y-52495289D01*
X106608394Y-52391402D01*
X106891789Y-52254926D01*
X107158123Y-52087577D01*
X107404044Y-51891461D01*
X107626461Y-51669044D01*
X107822577Y-51423123D01*
X107989926Y-51156789D01*
X108126402Y-50873394D01*
X108230289Y-50576500D01*
X108300282Y-50269840D01*
X108335500Y-49957273D01*
X108335500Y-49642727D01*
X108300282Y-49330160D01*
X108267788Y-49187793D01*
X108230746Y-49025500D01*
X108235019Y-48955761D01*
X108263954Y-48910229D01*
X110515791Y-46658392D01*
X116434500Y-46658392D01*
X116434500Y-47861608D01*
X116438232Y-47899500D01*
X116449699Y-48015932D01*
X116472724Y-48091836D01*
X116509768Y-48213954D01*
X116607315Y-48396450D01*
X116645691Y-48443211D01*
X116738590Y-48556410D01*
X116787049Y-48596180D01*
X116826383Y-48653926D01*
X116828254Y-48723770D01*
X116808703Y-48764918D01*
X116666129Y-48961155D01*
X116551760Y-49185616D01*
X116473910Y-49425214D01*
X116434500Y-49674038D01*
X116434500Y-49925961D01*
X116473910Y-50174785D01*
X116551760Y-50414383D01*
X116666132Y-50638848D01*
X116814201Y-50842649D01*
X116814205Y-50842654D01*
X116953870Y-50982319D01*
X116987355Y-51043642D01*
X116982371Y-51113334D01*
X116953870Y-51157681D01*
X116814205Y-51297345D01*
X116814201Y-51297350D01*
X116666132Y-51501151D01*
X116551760Y-51725616D01*
X116473910Y-51965214D01*
X116434500Y-52214038D01*
X116434500Y-52465961D01*
X116473910Y-52714785D01*
X116551760Y-52954383D01*
X116666132Y-53178848D01*
X116814201Y-53382649D01*
X116814205Y-53382654D01*
X116992345Y-53560794D01*
X116992350Y-53560798D01*
X117170117Y-53689952D01*
X117196155Y-53708870D01*
X117339184Y-53781747D01*
X117420616Y-53823239D01*
X117420618Y-53823239D01*
X117420621Y-53823241D01*
X117660215Y-53901090D01*
X117909038Y-53940500D01*
X117909039Y-53940500D01*
X118960961Y-53940500D01*
X118960962Y-53940500D01*
X119209785Y-53901090D01*
X119449379Y-53823241D01*
X119673845Y-53708870D01*
X119877656Y-53560793D01*
X120055793Y-53382656D01*
X120203870Y-53178845D01*
X120318241Y-52954379D01*
X120396090Y-52714785D01*
X120435500Y-52465962D01*
X120435500Y-52214038D01*
X120396090Y-51965215D01*
X120318241Y-51725621D01*
X120318239Y-51725618D01*
X120318239Y-51725616D01*
X120256018Y-51603501D01*
X120203870Y-51501155D01*
X120147175Y-51423121D01*
X120055798Y-51297350D01*
X120055794Y-51297345D01*
X119916130Y-51157681D01*
X119882645Y-51096358D01*
X119887629Y-51026666D01*
X119916130Y-50982319D01*
X120055793Y-50842656D01*
X120203870Y-50638845D01*
X120318241Y-50414379D01*
X120396090Y-50174785D01*
X120435500Y-49925962D01*
X120435500Y-49674038D01*
X120396090Y-49425215D01*
X120318241Y-49185621D01*
X120318239Y-49185618D01*
X120318239Y-49185616D01*
X120235635Y-49023498D01*
X120203870Y-48961155D01*
X120061296Y-48764918D01*
X120037816Y-48699112D01*
X120053641Y-48631058D01*
X120082948Y-48596181D01*
X120131410Y-48556410D01*
X120262685Y-48396450D01*
X120360232Y-48213954D01*
X120420300Y-48015934D01*
X120435500Y-47861608D01*
X120435500Y-47134038D01*
X124054500Y-47134038D01*
X124054500Y-47385962D01*
X124074530Y-47512423D01*
X124093910Y-47634785D01*
X124171760Y-47874383D01*
X124243884Y-48015932D01*
X124282559Y-48091837D01*
X124286132Y-48098848D01*
X124434201Y-48302649D01*
X124434205Y-48302654D01*
X124573870Y-48442319D01*
X124607355Y-48503642D01*
X124602371Y-48573334D01*
X124573870Y-48617681D01*
X124434205Y-48757345D01*
X124434201Y-48757350D01*
X124286132Y-48961151D01*
X124171760Y-49185616D01*
X124093910Y-49425214D01*
X124054500Y-49674038D01*
X124054500Y-49925961D01*
X124093910Y-50174785D01*
X124171760Y-50414383D01*
X124286132Y-50638848D01*
X124434201Y-50842649D01*
X124434205Y-50842654D01*
X124573870Y-50982319D01*
X124607355Y-51043642D01*
X124602371Y-51113334D01*
X124573870Y-51157681D01*
X124434205Y-51297345D01*
X124434201Y-51297350D01*
X124286132Y-51501151D01*
X124171760Y-51725616D01*
X124093910Y-51965214D01*
X124054500Y-52214038D01*
X124054500Y-52465961D01*
X124093910Y-52714785D01*
X124171760Y-52954383D01*
X124286132Y-53178848D01*
X124434201Y-53382649D01*
X124434205Y-53382654D01*
X124612345Y-53560794D01*
X124612350Y-53560798D01*
X124790117Y-53689952D01*
X124816155Y-53708870D01*
X124959184Y-53781747D01*
X125040616Y-53823239D01*
X125040618Y-53823239D01*
X125040621Y-53823241D01*
X125280215Y-53901090D01*
X125529038Y-53940500D01*
X125529039Y-53940500D01*
X126580961Y-53940500D01*
X126580962Y-53940500D01*
X126829785Y-53901090D01*
X127069379Y-53823241D01*
X127293845Y-53708870D01*
X127497656Y-53560793D01*
X127675793Y-53382656D01*
X127823870Y-53178845D01*
X127938241Y-52954379D01*
X128016090Y-52714785D01*
X128055500Y-52465962D01*
X128055500Y-52214038D01*
X128016090Y-51965215D01*
X127938241Y-51725621D01*
X127938239Y-51725618D01*
X127938239Y-51725616D01*
X127876018Y-51603501D01*
X127823870Y-51501155D01*
X127767175Y-51423121D01*
X127675798Y-51297350D01*
X127675794Y-51297345D01*
X127536130Y-51157681D01*
X127502645Y-51096358D01*
X127507629Y-51026666D01*
X127536130Y-50982319D01*
X127675793Y-50842656D01*
X127823870Y-50638845D01*
X127938241Y-50414379D01*
X128016090Y-50174785D01*
X128055500Y-49925962D01*
X128055500Y-49674038D01*
X128016090Y-49425215D01*
X127938241Y-49185621D01*
X127938239Y-49185618D01*
X127938239Y-49185616D01*
X127855635Y-49023498D01*
X127823870Y-48961155D01*
X127797500Y-48924860D01*
X127675798Y-48757350D01*
X127675794Y-48757345D01*
X127536130Y-48617681D01*
X127502645Y-48556358D01*
X127507629Y-48486666D01*
X127536130Y-48442319D01*
X127588224Y-48390225D01*
X127675793Y-48302656D01*
X127823870Y-48098845D01*
X127938241Y-47874379D01*
X128016090Y-47634785D01*
X128055500Y-47385962D01*
X128055500Y-47134038D01*
X128016090Y-46885215D01*
X127938241Y-46645621D01*
X127938239Y-46645618D01*
X127938239Y-46645616D01*
X127896747Y-46564184D01*
X127823870Y-46421155D01*
X127799941Y-46388219D01*
X127675798Y-46217350D01*
X127675794Y-46217345D01*
X127497654Y-46039205D01*
X127497649Y-46039201D01*
X127293848Y-45891132D01*
X127293847Y-45891131D01*
X127293845Y-45891130D01*
X127178418Y-45832317D01*
X127069383Y-45776760D01*
X126829785Y-45698910D01*
X126676930Y-45674700D01*
X126580962Y-45659500D01*
X125529038Y-45659500D01*
X125463035Y-45669954D01*
X125280214Y-45698910D01*
X125040616Y-45776760D01*
X124816151Y-45891132D01*
X124612350Y-46039201D01*
X124612345Y-46039205D01*
X124434205Y-46217345D01*
X124434201Y-46217350D01*
X124286132Y-46421151D01*
X124171760Y-46645616D01*
X124093910Y-46885214D01*
X124059174Y-47104528D01*
X124054500Y-47134038D01*
X120435500Y-47134038D01*
X120435500Y-46658392D01*
X120420300Y-46504066D01*
X120360232Y-46306046D01*
X120262685Y-46123550D01*
X120193462Y-46039201D01*
X120131410Y-45963589D01*
X119971452Y-45832317D01*
X119971453Y-45832317D01*
X119971450Y-45832315D01*
X119788954Y-45734768D01*
X119590934Y-45674700D01*
X119590932Y-45674699D01*
X119590934Y-45674699D01*
X119471805Y-45662966D01*
X119436608Y-45659500D01*
X117433392Y-45659500D01*
X117395298Y-45663251D01*
X117279067Y-45674699D01*
X117081043Y-45734769D01*
X116970898Y-45793643D01*
X116898550Y-45832315D01*
X116898548Y-45832316D01*
X116898547Y-45832317D01*
X116738589Y-45963589D01*
X116607317Y-46123547D01*
X116607315Y-46123550D01*
X116605331Y-46127262D01*
X116509769Y-46306043D01*
X116449699Y-46504067D01*
X116438251Y-46620298D01*
X116434500Y-46658392D01*
X110515791Y-46658392D01*
X113023630Y-44150553D01*
X120144917Y-44150553D01*
X124414786Y-44150553D01*
X124414786Y-42915553D01*
X147503071Y-42915553D01*
X148411313Y-42915553D01*
X148478352Y-42935238D01*
X148524107Y-42988042D01*
X148534051Y-43057200D01*
X148505026Y-43120756D01*
X148452267Y-43156595D01*
X148330478Y-43199210D01*
X148177737Y-43295184D01*
X148050184Y-43422737D01*
X147954211Y-43575476D01*
X147894631Y-43745745D01*
X147894630Y-43745750D01*
X147879500Y-43880039D01*
X147879500Y-45669960D01*
X147894630Y-45804249D01*
X147894631Y-45804254D01*
X147954211Y-45974523D01*
X148050184Y-46127262D01*
X148150576Y-46227654D01*
X148184061Y-46288977D01*
X148179077Y-46358669D01*
X148163214Y-46388219D01*
X148118367Y-46449946D01*
X148000422Y-46681423D01*
X147920140Y-46928506D01*
X147879500Y-47185097D01*
X147879500Y-47444902D01*
X147920140Y-47701493D01*
X148000422Y-47948576D01*
X148076989Y-48098845D01*
X148116749Y-48176878D01*
X148118368Y-48180054D01*
X148244928Y-48354249D01*
X148271069Y-48390229D01*
X148454771Y-48573931D01*
X148664949Y-48726634D01*
X148812445Y-48801787D01*
X148896423Y-48844577D01*
X148896425Y-48844577D01*
X148896428Y-48844579D01*
X149143507Y-48924860D01*
X149275706Y-48945797D01*
X149400098Y-48965500D01*
X149400103Y-48965500D01*
X149659902Y-48965500D01*
X149773298Y-48947539D01*
X149916493Y-48924860D01*
X150163572Y-48844579D01*
X150395051Y-48726634D01*
X150605229Y-48573931D01*
X150788931Y-48390229D01*
X150941634Y-48180051D01*
X151059579Y-47948572D01*
X151139860Y-47701493D01*
X151169805Y-47512423D01*
X151180500Y-47444902D01*
X151180500Y-47185097D01*
X151156682Y-47034718D01*
X151139860Y-46928507D01*
X151059579Y-46681428D01*
X151059577Y-46681425D01*
X151059577Y-46681423D01*
X150997357Y-46559312D01*
X150941634Y-46449949D01*
X150896785Y-46388219D01*
X150873306Y-46322416D01*
X150889131Y-46254362D01*
X150909423Y-46227655D01*
X150919734Y-46217344D01*
X151009816Y-46127262D01*
X151105789Y-45974522D01*
X151165368Y-45804255D01*
X151180500Y-45669954D01*
X151180500Y-43880046D01*
X151165368Y-43745745D01*
X151105789Y-43575478D01*
X151074744Y-43526071D01*
X151009815Y-43422737D01*
X150882262Y-43295184D01*
X150729521Y-43199210D01*
X150607733Y-43156595D01*
X150550956Y-43115873D01*
X150525209Y-43050920D01*
X150538665Y-42982359D01*
X150587052Y-42931956D01*
X150648687Y-42915553D01*
X151556928Y-42915553D01*
X151556928Y-39429676D01*
X147503071Y-39429676D01*
X147503071Y-42915553D01*
X124414786Y-42915553D01*
X124414786Y-40734984D01*
X120144917Y-40734984D01*
X120144917Y-44150553D01*
X113023630Y-44150553D01*
X123837366Y-33336819D01*
X123898689Y-33303334D01*
X123925047Y-33300500D01*
X144565500Y-33300500D01*
X144632539Y-33320185D01*
X144678294Y-33372989D01*
X144689500Y-33424500D01*
X144689500Y-33544960D01*
X144704630Y-33679249D01*
X144704631Y-33679254D01*
X144764211Y-33849523D01*
X144806547Y-33916900D01*
X144860184Y-34002262D01*
X144987738Y-34129816D01*
X145140478Y-34225789D01*
X145241500Y-34261138D01*
X145310745Y-34285368D01*
X145310750Y-34285369D01*
X145401246Y-34295565D01*
X145445040Y-34300499D01*
X145445043Y-34300500D01*
X145445046Y-34300500D01*
X148534957Y-34300500D01*
X148534958Y-34300499D01*
X148602104Y-34292934D01*
X148669249Y-34285369D01*
X148669252Y-34285368D01*
X148669255Y-34285368D01*
X148839522Y-34225789D01*
X148992262Y-34129816D01*
X149119816Y-34002262D01*
X149215789Y-33849522D01*
X149275368Y-33679255D01*
X149290500Y-33544954D01*
X149290500Y-31849223D01*
X149769500Y-31849223D01*
X149769500Y-32150776D01*
X149769501Y-32150793D01*
X149808861Y-32449766D01*
X149886913Y-32741060D01*
X150002314Y-33019661D01*
X150002318Y-33019671D01*
X150153099Y-33280831D01*
X150336679Y-33520078D01*
X150336685Y-33520085D01*
X150549914Y-33733314D01*
X150549921Y-33733320D01*
X150789168Y-33916900D01*
X151050328Y-34067681D01*
X151050329Y-34067681D01*
X151050332Y-34067683D01*
X151236072Y-34144619D01*
X151328939Y-34183086D01*
X151328940Y-34183086D01*
X151328942Y-34183087D01*
X151620232Y-34261138D01*
X151919217Y-34300500D01*
X151919224Y-34300500D01*
X152220776Y-34300500D01*
X152220783Y-34300500D01*
X152519768Y-34261138D01*
X152811058Y-34183087D01*
X153089668Y-34067683D01*
X153350832Y-33916900D01*
X153590080Y-33733319D01*
X153803319Y-33520080D01*
X153986900Y-33280832D01*
X154137683Y-33019668D01*
X154253087Y-32741058D01*
X154331138Y-32449768D01*
X154370500Y-32150783D01*
X154370500Y-31849217D01*
X154331138Y-31550232D01*
X154253087Y-31258942D01*
X154137683Y-30980332D01*
X154084209Y-30887713D01*
X153986900Y-30719168D01*
X153803320Y-30479921D01*
X153803314Y-30479914D01*
X153590085Y-30266685D01*
X153590078Y-30266679D01*
X153350831Y-30083099D01*
X153089671Y-29932318D01*
X153089661Y-29932314D01*
X152811060Y-29816913D01*
X152519766Y-29738861D01*
X152220793Y-29699501D01*
X152220788Y-29699500D01*
X152220783Y-29699500D01*
X151919217Y-29699500D01*
X151919211Y-29699500D01*
X151919206Y-29699501D01*
X151620233Y-29738861D01*
X151328939Y-29816913D01*
X151050338Y-29932314D01*
X151050328Y-29932318D01*
X150789168Y-30083099D01*
X150549921Y-30266679D01*
X150549914Y-30266685D01*
X150336685Y-30479914D01*
X150336679Y-30479921D01*
X150153099Y-30719168D01*
X150002318Y-30980328D01*
X150002314Y-30980338D01*
X149886913Y-31258939D01*
X149808861Y-31550233D01*
X149769501Y-31849206D01*
X149769500Y-31849223D01*
X149290500Y-31849223D01*
X149290500Y-30455046D01*
X149275368Y-30320745D01*
X149215789Y-30150478D01*
X149119816Y-29997738D01*
X148992262Y-29870184D01*
X148907482Y-29816913D01*
X148839523Y-29774211D01*
X148669254Y-29714631D01*
X148669249Y-29714630D01*
X148534960Y-29699500D01*
X148534954Y-29699500D01*
X145445046Y-29699500D01*
X145445039Y-29699500D01*
X145310750Y-29714630D01*
X145310745Y-29714631D01*
X145140476Y-29774211D01*
X144987737Y-29870184D01*
X144860184Y-29997737D01*
X144764211Y-30150476D01*
X144704631Y-30320745D01*
X144704630Y-30320750D01*
X144689500Y-30455039D01*
X144689500Y-30575500D01*
X144669815Y-30642539D01*
X144617011Y-30688294D01*
X144565500Y-30699500D01*
X123232648Y-30699500D01*
X123208329Y-30703351D01*
X123030465Y-30731522D01*
X122835776Y-30794781D01*
X122697280Y-30865349D01*
X122653390Y-30887713D01*
X122653389Y-30887714D01*
X122645491Y-30893452D01*
X122645490Y-30893451D01*
X122645490Y-30893452D01*
X122487786Y-31008028D01*
X122487782Y-31008032D01*
X106424770Y-47071043D01*
X106363447Y-47104528D01*
X106309497Y-47104253D01*
X106004843Y-47034718D01*
X106004827Y-47034716D01*
X105692277Y-46999500D01*
X105692273Y-46999500D01*
X105377727Y-46999500D01*
X105377722Y-46999500D01*
X105065172Y-47034716D01*
X105065156Y-47034718D01*
X104758500Y-47104710D01*
X104758498Y-47104711D01*
X104461604Y-47208598D01*
X104178213Y-47345072D01*
X103911878Y-47512422D01*
X103665956Y-47708538D01*
X103443538Y-47930956D01*
X103247422Y-48176878D01*
X103080072Y-48443213D01*
X102943598Y-48726604D01*
X102839711Y-49023498D01*
X102839710Y-49023500D01*
X102769718Y-49330156D01*
X102769716Y-49330172D01*
X102734500Y-49642722D01*
X80135499Y-49642722D01*
X80100282Y-49330160D01*
X80030289Y-49023500D01*
X79926402Y-48726606D01*
X79789926Y-48443211D01*
X79622577Y-48176877D01*
X79426461Y-47930956D01*
X79204044Y-47708539D01*
X78958123Y-47512423D01*
X78691789Y-47345074D01*
X78691786Y-47345072D01*
X78408395Y-47208598D01*
X78111501Y-47104711D01*
X78111499Y-47104710D01*
X77804843Y-47034718D01*
X77804827Y-47034716D01*
X77492277Y-46999500D01*
X77492273Y-46999500D01*
X77177727Y-46999500D01*
X77177722Y-46999500D01*
X76865172Y-47034716D01*
X76865156Y-47034718D01*
X76558500Y-47104710D01*
X76558498Y-47104711D01*
X76261604Y-47208598D01*
X75978213Y-47345072D01*
X75711878Y-47512422D01*
X75465956Y-47708538D01*
X75243538Y-47930956D01*
X75047422Y-48176878D01*
X74880072Y-48443213D01*
X74743598Y-48726604D01*
X74639711Y-49023498D01*
X74639710Y-49023500D01*
X74569718Y-49330156D01*
X74569716Y-49330172D01*
X74534500Y-49642722D01*
X74534500Y-49957277D01*
X74569716Y-50269827D01*
X74569718Y-50269843D01*
X74639710Y-50576499D01*
X74639711Y-50576501D01*
X74743598Y-50873395D01*
X74880072Y-51156786D01*
X74880074Y-51156789D01*
X75047423Y-51423123D01*
X75243539Y-51669044D01*
X75465956Y-51891461D01*
X75711877Y-52087577D01*
X75918868Y-52217638D01*
X75978216Y-52254929D01*
X76189001Y-52356437D01*
X76240861Y-52403259D01*
X76259200Y-52468157D01*
X76259200Y-75792055D01*
X76239515Y-75859094D01*
X76186711Y-75904849D01*
X76117553Y-75914793D01*
X76062315Y-75892373D01*
X75884754Y-75763368D01*
X75884753Y-75763367D01*
X75884751Y-75763366D01*
X75812464Y-75726534D01*
X75653276Y-75645422D01*
X75406193Y-75565140D01*
X75149602Y-75524500D01*
X75149597Y-75524500D01*
X74889803Y-75524500D01*
X74889798Y-75524500D01*
X74633206Y-75565140D01*
X74386123Y-75645422D01*
X74154646Y-75763367D01*
X74092919Y-75808214D01*
X74027113Y-75831693D01*
X73959059Y-75815867D01*
X73932354Y-75795576D01*
X73831962Y-75695184D01*
X73679223Y-75599211D01*
X73508954Y-75539631D01*
X73508949Y-75539630D01*
X73374660Y-75524500D01*
X73374654Y-75524500D01*
X71584746Y-75524500D01*
X71584739Y-75524500D01*
X71450450Y-75539630D01*
X71450445Y-75539631D01*
X71280176Y-75599211D01*
X71127437Y-75695184D01*
X70999884Y-75822737D01*
X70903911Y-75975476D01*
X70844331Y-76145745D01*
X70844330Y-76145750D01*
X70829200Y-76280039D01*
X70285915Y-76280039D01*
X70285915Y-74594984D01*
X65873753Y-74594984D01*
X65873753Y-78008828D01*
X20500500Y-78008828D01*
X20500500Y-75773392D01*
X54119200Y-75773392D01*
X54119200Y-76976608D01*
X54124202Y-77027398D01*
X54134399Y-77130932D01*
X54134400Y-77130934D01*
X54194468Y-77328954D01*
X54292015Y-77511450D01*
X54292017Y-77511452D01*
X54423289Y-77671410D01*
X54511580Y-77743867D01*
X54583250Y-77802685D01*
X54765746Y-77900232D01*
X54963766Y-77960300D01*
X54963765Y-77960300D01*
X55002347Y-77964100D01*
X55118092Y-77975500D01*
X55118095Y-77975500D01*
X56321305Y-77975500D01*
X56321308Y-77975500D01*
X56475634Y-77960300D01*
X56673654Y-77900232D01*
X56856150Y-77802685D01*
X57016110Y-77671410D01*
X57147385Y-77511450D01*
X57244932Y-77328954D01*
X57305000Y-77130934D01*
X57320200Y-76976608D01*
X57320200Y-76249038D01*
X57619200Y-76249038D01*
X57619200Y-76500962D01*
X57625609Y-76541428D01*
X57658610Y-76749785D01*
X57736460Y-76989383D01*
X57850832Y-77213848D01*
X57998901Y-77417649D01*
X57998905Y-77417654D01*
X58177045Y-77595794D01*
X58177050Y-77595798D01*
X58189581Y-77604902D01*
X58380855Y-77743870D01*
X58496286Y-77802685D01*
X58605316Y-77858239D01*
X58605318Y-77858239D01*
X58605321Y-77858241D01*
X58844915Y-77936090D01*
X59093738Y-77975500D01*
X59093739Y-77975500D01*
X59345661Y-77975500D01*
X59345662Y-77975500D01*
X59594485Y-77936090D01*
X59834079Y-77858241D01*
X60058545Y-77743870D01*
X60262356Y-77595793D01*
X60440493Y-77417656D01*
X60588570Y-77213845D01*
X60702941Y-76989379D01*
X60780790Y-76749785D01*
X60820200Y-76500962D01*
X60820200Y-76249038D01*
X60780790Y-76000215D01*
X60702941Y-75760621D01*
X60702939Y-75760618D01*
X60702939Y-75760616D01*
X60644244Y-75645421D01*
X60588570Y-75536155D01*
X60504939Y-75421046D01*
X60440498Y-75332350D01*
X60440494Y-75332345D01*
X60262354Y-75154205D01*
X60262349Y-75154201D01*
X60058548Y-75006132D01*
X60058547Y-75006131D01*
X60058545Y-75006130D01*
X59943118Y-74947317D01*
X59834083Y-74891760D01*
X59594485Y-74813910D01*
X59441630Y-74789700D01*
X59345662Y-74774500D01*
X59093738Y-74774500D01*
X59016995Y-74786655D01*
X58844914Y-74813910D01*
X58605316Y-74891760D01*
X58380851Y-75006132D01*
X58177050Y-75154201D01*
X58177045Y-75154205D01*
X57998905Y-75332345D01*
X57998901Y-75332350D01*
X57850832Y-75536151D01*
X57736460Y-75760616D01*
X57658610Y-76000214D01*
X57658610Y-76000215D01*
X57619200Y-76249038D01*
X57320200Y-76249038D01*
X57320200Y-75773392D01*
X57305000Y-75619066D01*
X57244932Y-75421046D01*
X57147385Y-75238550D01*
X57078162Y-75154201D01*
X57016110Y-75078589D01*
X56856152Y-74947317D01*
X56856153Y-74947317D01*
X56856150Y-74947315D01*
X56673654Y-74849768D01*
X56475634Y-74789700D01*
X56475632Y-74789699D01*
X56475634Y-74789699D01*
X56356505Y-74777966D01*
X56321308Y-74774500D01*
X55118092Y-74774500D01*
X55079998Y-74778251D01*
X54963767Y-74789699D01*
X54765743Y-74849769D01*
X54687187Y-74891759D01*
X54583250Y-74947315D01*
X54583248Y-74947316D01*
X54583247Y-74947317D01*
X54423289Y-75078589D01*
X54292017Y-75238547D01*
X54194469Y-75421043D01*
X54134399Y-75619067D01*
X54126903Y-75695184D01*
X54119200Y-75773392D01*
X20500500Y-75773392D01*
X20500500Y-72035553D01*
X55235576Y-72035553D01*
X59506423Y-72035553D01*
X59506423Y-68619984D01*
X55235576Y-68619984D01*
X55235576Y-72035553D01*
X20500500Y-72035553D01*
X20500500Y-42915553D01*
X32973071Y-42915553D01*
X34676907Y-42915553D01*
X34743946Y-42935238D01*
X34789701Y-42988042D01*
X34799645Y-43057200D01*
X34770620Y-43120756D01*
X34711842Y-43158530D01*
X34696305Y-43162026D01*
X34613506Y-43175140D01*
X34366423Y-43255422D01*
X34134945Y-43373368D01*
X33924774Y-43526066D01*
X33924768Y-43526071D01*
X33741071Y-43709768D01*
X33741066Y-43709774D01*
X33588368Y-43919945D01*
X33470422Y-44151423D01*
X33390140Y-44398506D01*
X33349500Y-44655097D01*
X33349500Y-44914902D01*
X33390140Y-45171493D01*
X33470422Y-45418576D01*
X33588368Y-45650054D01*
X33633213Y-45711779D01*
X33656693Y-45777585D01*
X33640867Y-45845639D01*
X33620577Y-45872345D01*
X33520183Y-45972739D01*
X33424211Y-46125476D01*
X33364631Y-46295745D01*
X33364630Y-46295750D01*
X33349500Y-46430039D01*
X33349500Y-48219960D01*
X33364630Y-48354249D01*
X33364631Y-48354254D01*
X33424211Y-48524523D01*
X33491152Y-48631058D01*
X33520184Y-48677262D01*
X33647738Y-48804816D01*
X33738080Y-48861582D01*
X33796661Y-48898391D01*
X33800478Y-48900789D01*
X33869269Y-48924860D01*
X33970745Y-48960368D01*
X33970750Y-48960369D01*
X34061246Y-48970565D01*
X34105040Y-48975499D01*
X34105043Y-48975500D01*
X34105046Y-48975500D01*
X35894957Y-48975500D01*
X35894958Y-48975499D01*
X35962104Y-48967934D01*
X36029249Y-48960369D01*
X36029252Y-48960368D01*
X36029255Y-48960368D01*
X36199522Y-48900789D01*
X36203334Y-48898394D01*
X52474500Y-48898394D01*
X52474500Y-50701604D01*
X52489699Y-50855932D01*
X52489700Y-50855935D01*
X52549768Y-51053955D01*
X52644903Y-51231939D01*
X52647317Y-51236454D01*
X52778589Y-51396410D01*
X52938545Y-51527682D01*
X52938549Y-51527685D01*
X53121045Y-51625232D01*
X53319065Y-51685300D01*
X53319064Y-51685300D01*
X53329968Y-51686373D01*
X53473391Y-51700500D01*
X55276608Y-51700499D01*
X55430935Y-51685300D01*
X55628955Y-51625232D01*
X55811451Y-51527685D01*
X55971410Y-51396410D01*
X56102685Y-51236451D01*
X56200232Y-51053955D01*
X56260300Y-50855935D01*
X56275500Y-50701609D01*
X56275499Y-49675441D01*
X62634500Y-49675441D01*
X62634500Y-49924558D01*
X62634501Y-49924575D01*
X62667017Y-50171561D01*
X62731498Y-50412207D01*
X62826830Y-50642361D01*
X62826837Y-50642376D01*
X62951400Y-50858126D01*
X63103060Y-51055774D01*
X63103066Y-51055781D01*
X63279218Y-51231933D01*
X63279225Y-51231939D01*
X63476873Y-51383599D01*
X63692623Y-51508162D01*
X63692638Y-51508169D01*
X63791825Y-51549253D01*
X63922793Y-51603502D01*
X64163435Y-51667982D01*
X64410435Y-51700500D01*
X64410442Y-51700500D01*
X64659558Y-51700500D01*
X64659565Y-51700500D01*
X64906565Y-51667982D01*
X65147207Y-51603502D01*
X65377373Y-51508164D01*
X65593127Y-51383599D01*
X65790776Y-51231938D01*
X65966938Y-51055776D01*
X66118599Y-50858127D01*
X66243164Y-50642373D01*
X66338502Y-50412207D01*
X66402982Y-50171565D01*
X66435500Y-49924565D01*
X66435500Y-49675435D01*
X66402982Y-49428435D01*
X66338502Y-49187793D01*
X66270449Y-49023498D01*
X66243169Y-48957638D01*
X66243162Y-48957623D01*
X66118599Y-48741873D01*
X65966939Y-48544225D01*
X65966933Y-48544218D01*
X65790781Y-48368066D01*
X65790774Y-48368060D01*
X65593126Y-48216400D01*
X65377376Y-48091837D01*
X65377361Y-48091830D01*
X65147207Y-47996498D01*
X64906561Y-47932017D01*
X64659575Y-47899501D01*
X64659570Y-47899500D01*
X64659565Y-47899500D01*
X64410435Y-47899500D01*
X64410429Y-47899500D01*
X64410424Y-47899501D01*
X64163438Y-47932017D01*
X63922792Y-47996498D01*
X63692638Y-48091830D01*
X63692623Y-48091837D01*
X63476873Y-48216400D01*
X63279225Y-48368060D01*
X63279218Y-48368066D01*
X63103066Y-48544218D01*
X63103060Y-48544225D01*
X62951400Y-48741873D01*
X62826837Y-48957623D01*
X62826830Y-48957638D01*
X62731498Y-49187792D01*
X62667017Y-49428438D01*
X62634501Y-49675424D01*
X62634500Y-49675441D01*
X56275499Y-49675441D01*
X56275499Y-48898392D01*
X56260300Y-48744065D01*
X56200232Y-48546045D01*
X56102685Y-48363549D01*
X56095053Y-48354249D01*
X55971410Y-48203589D01*
X55858045Y-48110553D01*
X57392357Y-48110553D01*
X61589072Y-48110553D01*
X61589072Y-44694984D01*
X57392357Y-44694984D01*
X57392357Y-48110553D01*
X55858045Y-48110553D01*
X55811454Y-48072317D01*
X55811452Y-48072316D01*
X55811451Y-48072315D01*
X55628955Y-47974768D01*
X55430935Y-47914700D01*
X55430933Y-47914699D01*
X55430935Y-47914699D01*
X55320222Y-47903795D01*
X55276609Y-47899500D01*
X55276605Y-47899500D01*
X53473395Y-47899500D01*
X53319067Y-47914699D01*
X53121042Y-47974769D01*
X52938545Y-48072317D01*
X52778589Y-48203589D01*
X52647317Y-48363545D01*
X52549769Y-48546042D01*
X52489699Y-48744066D01*
X52474500Y-48898394D01*
X36203334Y-48898394D01*
X36352262Y-48804816D01*
X36479816Y-48677262D01*
X36575789Y-48524522D01*
X36635368Y-48354255D01*
X36650500Y-48219954D01*
X36650500Y-46430046D01*
X36636529Y-46306046D01*
X36635369Y-46295750D01*
X36635368Y-46295745D01*
X36575788Y-46125476D01*
X36521580Y-46039205D01*
X36479816Y-45972738D01*
X36379423Y-45872345D01*
X36345938Y-45811022D01*
X36350922Y-45741330D01*
X36366784Y-45711780D01*
X36411634Y-45650051D01*
X36529579Y-45418572D01*
X36609860Y-45171493D01*
X36632539Y-45028298D01*
X36650500Y-44914902D01*
X36650500Y-44655101D01*
X36650499Y-44655093D01*
X36633854Y-44550002D01*
X36609860Y-44398507D01*
X36529579Y-44151428D01*
X36529577Y-44151425D01*
X36529577Y-44151423D01*
X36486787Y-44067445D01*
X36411634Y-43919949D01*
X36258931Y-43709771D01*
X36075229Y-43526069D01*
X35933006Y-43422738D01*
X35865054Y-43373368D01*
X35865053Y-43373367D01*
X35865051Y-43373366D01*
X35792764Y-43336534D01*
X35633576Y-43255422D01*
X35386493Y-43175140D01*
X35303695Y-43162026D01*
X35240560Y-43132097D01*
X35203629Y-43072785D01*
X35204627Y-43002923D01*
X35243237Y-42944690D01*
X35307200Y-42916576D01*
X35323093Y-42915553D01*
X36957225Y-42915553D01*
X36957225Y-39501187D01*
X32973071Y-39501187D01*
X32973071Y-42915553D01*
X20500500Y-42915553D01*
X20500500Y-31849223D01*
X30159500Y-31849223D01*
X30159500Y-32150776D01*
X30159501Y-32150793D01*
X30198861Y-32449766D01*
X30276913Y-32741060D01*
X30392314Y-33019661D01*
X30392318Y-33019671D01*
X30543099Y-33280831D01*
X30726679Y-33520078D01*
X30726685Y-33520085D01*
X30939914Y-33733314D01*
X30939921Y-33733320D01*
X31179168Y-33916900D01*
X31440328Y-34067681D01*
X31440329Y-34067681D01*
X31440332Y-34067683D01*
X31626072Y-34144619D01*
X31718939Y-34183086D01*
X31718940Y-34183086D01*
X31718942Y-34183087D01*
X32010232Y-34261138D01*
X32309217Y-34300500D01*
X32309224Y-34300500D01*
X32610776Y-34300500D01*
X32610783Y-34300500D01*
X32909768Y-34261138D01*
X33201058Y-34183087D01*
X33479668Y-34067683D01*
X33740832Y-33916900D01*
X33980080Y-33733319D01*
X34193319Y-33520080D01*
X34376900Y-33280832D01*
X34527683Y-33019668D01*
X34643087Y-32741058D01*
X34721138Y-32449768D01*
X34760500Y-32150783D01*
X34760500Y-31849217D01*
X34721138Y-31550232D01*
X34643087Y-31258942D01*
X34527683Y-30980332D01*
X34474209Y-30887713D01*
X34376900Y-30719168D01*
X34229486Y-30527053D01*
X34193320Y-30479921D01*
X34193314Y-30479914D01*
X34168439Y-30455039D01*
X35239500Y-30455039D01*
X35239500Y-33544960D01*
X35254630Y-33679249D01*
X35254631Y-33679254D01*
X35314211Y-33849523D01*
X35356547Y-33916900D01*
X35410184Y-34002262D01*
X35537738Y-34129816D01*
X35690478Y-34225789D01*
X35791500Y-34261138D01*
X35860745Y-34285368D01*
X35860750Y-34285369D01*
X35951246Y-34295565D01*
X35995040Y-34300499D01*
X35995043Y-34300500D01*
X35995046Y-34300500D01*
X39084957Y-34300500D01*
X39084958Y-34300499D01*
X39152104Y-34292934D01*
X39219249Y-34285369D01*
X39219252Y-34285368D01*
X39219255Y-34285368D01*
X39389522Y-34225789D01*
X39542262Y-34129816D01*
X39669816Y-34002262D01*
X39765789Y-33849522D01*
X39825368Y-33679255D01*
X39840500Y-33544954D01*
X39840500Y-32433828D01*
X89515214Y-32433828D01*
X93426215Y-32433828D01*
X93426215Y-29019984D01*
X89515214Y-29019984D01*
X89515214Y-32433828D01*
X39840500Y-32433828D01*
X39840500Y-30455046D01*
X39825368Y-30320745D01*
X39765789Y-30150478D01*
X39669816Y-29997738D01*
X39542262Y-29870184D01*
X39457482Y-29816913D01*
X39389523Y-29774211D01*
X39219254Y-29714631D01*
X39219249Y-29714630D01*
X39084960Y-29699500D01*
X39084954Y-29699500D01*
X35995046Y-29699500D01*
X35995039Y-29699500D01*
X35860750Y-29714630D01*
X35860745Y-29714631D01*
X35690476Y-29774211D01*
X35537737Y-29870184D01*
X35410184Y-29997737D01*
X35314211Y-30150476D01*
X35254631Y-30320745D01*
X35254630Y-30320750D01*
X35239500Y-30455039D01*
X34168439Y-30455039D01*
X33980085Y-30266685D01*
X33980078Y-30266679D01*
X33740831Y-30083099D01*
X33479671Y-29932318D01*
X33479661Y-29932314D01*
X33201060Y-29816913D01*
X32909766Y-29738861D01*
X32610793Y-29699501D01*
X32610788Y-29699500D01*
X32610783Y-29699500D01*
X32309217Y-29699500D01*
X32309211Y-29699500D01*
X32309206Y-29699501D01*
X32010233Y-29738861D01*
X31718939Y-29816913D01*
X31440338Y-29932314D01*
X31440328Y-29932318D01*
X31179168Y-30083099D01*
X30939921Y-30266679D01*
X30939914Y-30266685D01*
X30726685Y-30479914D01*
X30726679Y-30479921D01*
X30543099Y-30719168D01*
X30392318Y-30980328D01*
X30392314Y-30980338D01*
X30276913Y-31258939D01*
X30198861Y-31550233D01*
X30159501Y-31849206D01*
X30159500Y-31849223D01*
X20500500Y-31849223D01*
X20500500Y-27910553D01*
X32973071Y-27910553D01*
X36955500Y-27910553D01*
X147503071Y-27910553D01*
X151487225Y-27910553D01*
X151487225Y-24496103D01*
X147503071Y-24496103D01*
X147503071Y-27910553D01*
X36955500Y-27910553D01*
X36955500Y-24494984D01*
X32973071Y-24494984D01*
X32973071Y-27910553D01*
X20500500Y-27910553D01*
X20500500Y-20624500D01*
X20520185Y-20557461D01*
X20572989Y-20511706D01*
X20624500Y-20500500D01*
X164375500Y-20500500D01*
X164442539Y-20520185D01*
G37*
%TD.AperFunction*%
M02*
