%TF.GenerationSoftware,KiCad,Pcbnew,9.0.4*%
%TF.CreationDate,2026-06-10T15:27:43+02:00*%
%TF.ProjectId,buck,6275636b-2e6b-4696-9361-645f70636258,rev?*%
%TF.SameCoordinates,Original*%
%TF.FileFunction,Legend,Top*%
%TF.FilePolarity,Positive*%
%FSLAX46Y46*%
G04 Gerber Fmt 4.6, Leading zero omitted, Abs format (unit mm)*
G04 Created by KiCad (PCBNEW 9.0.4) date 2026-06-10 15:27:43*
%MOMM*%
%LPD*%
G01*
G04 APERTURE LIST*
%ADD10C,0.150000*%
%ADD11C,0.120000*%
G04 APERTURE END LIST*
D10*
X34666666Y-47159819D02*
X34666666Y-47874104D01*
X34666666Y-47874104D02*
X34619047Y-48016961D01*
X34619047Y-48016961D02*
X34523809Y-48112200D01*
X34523809Y-48112200D02*
X34380952Y-48159819D01*
X34380952Y-48159819D02*
X34285714Y-48159819D01*
X35047619Y-47159819D02*
X35666666Y-47159819D01*
X35666666Y-47159819D02*
X35333333Y-47540771D01*
X35333333Y-47540771D02*
X35476190Y-47540771D01*
X35476190Y-47540771D02*
X35571428Y-47588390D01*
X35571428Y-47588390D02*
X35619047Y-47636009D01*
X35619047Y-47636009D02*
X35666666Y-47731247D01*
X35666666Y-47731247D02*
X35666666Y-47969342D01*
X35666666Y-47969342D02*
X35619047Y-48064580D01*
X35619047Y-48064580D02*
X35571428Y-48112200D01*
X35571428Y-48112200D02*
X35476190Y-48159819D01*
X35476190Y-48159819D02*
X35190476Y-48159819D01*
X35190476Y-48159819D02*
X35095238Y-48112200D01*
X35095238Y-48112200D02*
X35047619Y-48064580D01*
X36216905Y-71859819D02*
X36216905Y-70859819D01*
X36216905Y-70859819D02*
X36455000Y-70859819D01*
X36455000Y-70859819D02*
X36597857Y-70907438D01*
X36597857Y-70907438D02*
X36693095Y-71002676D01*
X36693095Y-71002676D02*
X36740714Y-71097914D01*
X36740714Y-71097914D02*
X36788333Y-71288390D01*
X36788333Y-71288390D02*
X36788333Y-71431247D01*
X36788333Y-71431247D02*
X36740714Y-71621723D01*
X36740714Y-71621723D02*
X36693095Y-71716961D01*
X36693095Y-71716961D02*
X36597857Y-71812200D01*
X36597857Y-71812200D02*
X36455000Y-71859819D01*
X36455000Y-71859819D02*
X36216905Y-71859819D01*
X37740714Y-71859819D02*
X37169286Y-71859819D01*
X37455000Y-71859819D02*
X37455000Y-70859819D01*
X37455000Y-70859819D02*
X37359762Y-71002676D01*
X37359762Y-71002676D02*
X37264524Y-71097914D01*
X37264524Y-71097914D02*
X37169286Y-71145533D01*
X31613095Y-72229819D02*
X31613095Y-71229819D01*
X32184523Y-72229819D02*
X31755952Y-71658390D01*
X32184523Y-71229819D02*
X31613095Y-71801247D01*
X35023095Y-93034819D02*
X35023095Y-93844342D01*
X35023095Y-93844342D02*
X35070714Y-93939580D01*
X35070714Y-93939580D02*
X35118333Y-93987200D01*
X35118333Y-93987200D02*
X35213571Y-94034819D01*
X35213571Y-94034819D02*
X35404047Y-94034819D01*
X35404047Y-94034819D02*
X35499285Y-93987200D01*
X35499285Y-93987200D02*
X35546904Y-93939580D01*
X35546904Y-93939580D02*
X35594523Y-93844342D01*
X35594523Y-93844342D02*
X35594523Y-93034819D01*
X36594523Y-94034819D02*
X36023095Y-94034819D01*
X36308809Y-94034819D02*
X36308809Y-93034819D01*
X36308809Y-93034819D02*
X36213571Y-93177676D01*
X36213571Y-93177676D02*
X36118333Y-93272914D01*
X36118333Y-93272914D02*
X36023095Y-93320533D01*
X108666666Y-39849819D02*
X108666666Y-40564104D01*
X108666666Y-40564104D02*
X108619047Y-40706961D01*
X108619047Y-40706961D02*
X108523809Y-40802200D01*
X108523809Y-40802200D02*
X108380952Y-40849819D01*
X108380952Y-40849819D02*
X108285714Y-40849819D01*
X109571428Y-40183152D02*
X109571428Y-40849819D01*
X109333333Y-39802200D02*
X109095238Y-40516485D01*
X109095238Y-40516485D02*
X109714285Y-40516485D01*
X64280176Y-95754819D02*
X64280176Y-94754819D01*
X64280176Y-94754819D02*
X64613509Y-95469104D01*
X64613509Y-95469104D02*
X64946842Y-94754819D01*
X64946842Y-94754819D02*
X64946842Y-95754819D01*
X65946842Y-95754819D02*
X65375414Y-95754819D01*
X65661128Y-95754819D02*
X65661128Y-94754819D01*
X65661128Y-94754819D02*
X65565890Y-94897676D01*
X65565890Y-94897676D02*
X65470652Y-94992914D01*
X65470652Y-94992914D02*
X65375414Y-95040533D01*
X108666666Y-26374819D02*
X108666666Y-27089104D01*
X108666666Y-27089104D02*
X108619047Y-27231961D01*
X108619047Y-27231961D02*
X108523809Y-27327200D01*
X108523809Y-27327200D02*
X108380952Y-27374819D01*
X108380952Y-27374819D02*
X108285714Y-27374819D01*
X109095238Y-26470057D02*
X109142857Y-26422438D01*
X109142857Y-26422438D02*
X109238095Y-26374819D01*
X109238095Y-26374819D02*
X109476190Y-26374819D01*
X109476190Y-26374819D02*
X109571428Y-26422438D01*
X109571428Y-26422438D02*
X109619047Y-26470057D01*
X109619047Y-26470057D02*
X109666666Y-26565295D01*
X109666666Y-26565295D02*
X109666666Y-26660533D01*
X109666666Y-26660533D02*
X109619047Y-26803390D01*
X109619047Y-26803390D02*
X109047619Y-27374819D01*
X109047619Y-27374819D02*
X109666666Y-27374819D01*
X35218333Y-105334819D02*
X34885000Y-104858628D01*
X34646905Y-105334819D02*
X34646905Y-104334819D01*
X34646905Y-104334819D02*
X35027857Y-104334819D01*
X35027857Y-104334819D02*
X35123095Y-104382438D01*
X35123095Y-104382438D02*
X35170714Y-104430057D01*
X35170714Y-104430057D02*
X35218333Y-104525295D01*
X35218333Y-104525295D02*
X35218333Y-104668152D01*
X35218333Y-104668152D02*
X35170714Y-104763390D01*
X35170714Y-104763390D02*
X35123095Y-104811009D01*
X35123095Y-104811009D02*
X35027857Y-104858628D01*
X35027857Y-104858628D02*
X34646905Y-104858628D01*
X35599286Y-104430057D02*
X35646905Y-104382438D01*
X35646905Y-104382438D02*
X35742143Y-104334819D01*
X35742143Y-104334819D02*
X35980238Y-104334819D01*
X35980238Y-104334819D02*
X36075476Y-104382438D01*
X36075476Y-104382438D02*
X36123095Y-104430057D01*
X36123095Y-104430057D02*
X36170714Y-104525295D01*
X36170714Y-104525295D02*
X36170714Y-104620533D01*
X36170714Y-104620533D02*
X36123095Y-104763390D01*
X36123095Y-104763390D02*
X35551667Y-105334819D01*
X35551667Y-105334819D02*
X36170714Y-105334819D01*
X65768333Y-65329819D02*
X65292143Y-65329819D01*
X65292143Y-65329819D02*
X65292143Y-64329819D01*
X66625476Y-65329819D02*
X66054048Y-65329819D01*
X66339762Y-65329819D02*
X66339762Y-64329819D01*
X66339762Y-64329819D02*
X66244524Y-64472676D01*
X66244524Y-64472676D02*
X66149286Y-64567914D01*
X66149286Y-64567914D02*
X66054048Y-64615533D01*
X50373033Y-93559580D02*
X50325414Y-93607200D01*
X50325414Y-93607200D02*
X50182557Y-93654819D01*
X50182557Y-93654819D02*
X50087319Y-93654819D01*
X50087319Y-93654819D02*
X49944462Y-93607200D01*
X49944462Y-93607200D02*
X49849224Y-93511961D01*
X49849224Y-93511961D02*
X49801605Y-93416723D01*
X49801605Y-93416723D02*
X49753986Y-93226247D01*
X49753986Y-93226247D02*
X49753986Y-93083390D01*
X49753986Y-93083390D02*
X49801605Y-92892914D01*
X49801605Y-92892914D02*
X49849224Y-92797676D01*
X49849224Y-92797676D02*
X49944462Y-92702438D01*
X49944462Y-92702438D02*
X50087319Y-92654819D01*
X50087319Y-92654819D02*
X50182557Y-92654819D01*
X50182557Y-92654819D02*
X50325414Y-92702438D01*
X50325414Y-92702438D02*
X50373033Y-92750057D01*
X51325414Y-93654819D02*
X50753986Y-93654819D01*
X51039700Y-93654819D02*
X51039700Y-92654819D01*
X51039700Y-92654819D02*
X50944462Y-92797676D01*
X50944462Y-92797676D02*
X50849224Y-92892914D01*
X50849224Y-92892914D02*
X50753986Y-92940533D01*
X34666666Y-36534819D02*
X34666666Y-37249104D01*
X34666666Y-37249104D02*
X34619047Y-37391961D01*
X34619047Y-37391961D02*
X34523809Y-37487200D01*
X34523809Y-37487200D02*
X34380952Y-37534819D01*
X34380952Y-37534819D02*
X34285714Y-37534819D01*
X35666666Y-37534819D02*
X35095238Y-37534819D01*
X35380952Y-37534819D02*
X35380952Y-36534819D01*
X35380952Y-36534819D02*
X35285714Y-36677676D01*
X35285714Y-36677676D02*
X35190476Y-36772914D01*
X35190476Y-36772914D02*
X35095238Y-36820533D01*
X80083033Y-96534819D02*
X79749700Y-96058628D01*
X79511605Y-96534819D02*
X79511605Y-95534819D01*
X79511605Y-95534819D02*
X79892557Y-95534819D01*
X79892557Y-95534819D02*
X79987795Y-95582438D01*
X79987795Y-95582438D02*
X80035414Y-95630057D01*
X80035414Y-95630057D02*
X80083033Y-95725295D01*
X80083033Y-95725295D02*
X80083033Y-95868152D01*
X80083033Y-95868152D02*
X80035414Y-95963390D01*
X80035414Y-95963390D02*
X79987795Y-96011009D01*
X79987795Y-96011009D02*
X79892557Y-96058628D01*
X79892557Y-96058628D02*
X79511605Y-96058628D01*
X81035414Y-96534819D02*
X80463986Y-96534819D01*
X80749700Y-96534819D02*
X80749700Y-95534819D01*
X80749700Y-95534819D02*
X80654462Y-95677676D01*
X80654462Y-95677676D02*
X80559224Y-95772914D01*
X80559224Y-95772914D02*
X80463986Y-95820533D01*
D11*
%TO.C,J3*%
X33620000Y-44055000D02*
X33620000Y-41405000D01*
X36380000Y-41405000D02*
X33620000Y-41405000D01*
X36380000Y-44055000D02*
X33620000Y-44055000D01*
X36380000Y-44055000D02*
X36380000Y-41405000D01*
X36380000Y-45325000D02*
X36380000Y-46705000D01*
X36380000Y-46705000D02*
X35000000Y-46705000D01*
%TO.C,D1*%
X33215000Y-73875000D02*
X34235000Y-73875000D01*
X35015000Y-72405000D02*
X35015000Y-75345000D01*
X35135000Y-72405000D02*
X35135000Y-75345000D01*
X35255000Y-72405000D02*
X35255000Y-75345000D01*
X40695000Y-73875000D02*
X39675000Y-73875000D01*
X34235000Y-72405000D02*
X39675000Y-72405000D01*
X39675000Y-75345000D01*
X34235000Y-75345000D01*
X34235000Y-72405000D01*
%TO.C,U1*%
X33535000Y-94580000D02*
X33535000Y-102320000D01*
X33535000Y-102320000D02*
X38035000Y-102320000D01*
X34785000Y-94580000D02*
X33535000Y-94580000D01*
X38035000Y-94580000D02*
X36785000Y-94580000D01*
X38035000Y-102320000D02*
X38035000Y-94580000D01*
X36785000Y-94580000D02*
G75*
G02*
X34785000Y-94580000I-1000000J0D01*
G01*
%TO.C,J4*%
X107620000Y-41395000D02*
X109000000Y-41395000D01*
X107620000Y-42775000D02*
X107620000Y-41395000D01*
X107620000Y-44045000D02*
X107620000Y-46695000D01*
X107620000Y-44045000D02*
X110380000Y-44045000D01*
X107620000Y-46695000D02*
X110380000Y-46695000D01*
X110380000Y-44045000D02*
X110380000Y-46695000D01*
%TO.C,M1*%
X59979700Y-96140000D02*
X70199700Y-96140000D01*
X59979700Y-97520000D02*
X70199700Y-97520000D01*
X59979700Y-100760000D02*
X59979700Y-96140000D01*
X63239700Y-96140000D02*
X63239700Y-97520000D01*
X66939700Y-96140000D02*
X66939700Y-97520000D01*
X70199700Y-96140000D02*
X70199700Y-100760000D01*
X70199700Y-100760000D02*
X59979700Y-100760000D01*
%TO.C,J2*%
X103920000Y-28190000D02*
X103920000Y-35810000D01*
X103920000Y-35810000D02*
X114080000Y-35810000D01*
X114080000Y-28190000D02*
X103920000Y-28190000D01*
X114080000Y-34540000D02*
X103920000Y-34540000D01*
X114080000Y-35810000D02*
X114080000Y-28190000D01*
%TO.C,R2*%
X32115000Y-105880000D02*
X38655000Y-105880000D01*
X32115000Y-106210000D02*
X32115000Y-105880000D01*
X32115000Y-108290000D02*
X32115000Y-108620000D01*
X32115000Y-108620000D02*
X38655000Y-108620000D01*
X38655000Y-105880000D02*
X38655000Y-106210000D01*
X38655000Y-108620000D02*
X38655000Y-108290000D01*
%TO.C,L1*%
X48565000Y-66255000D02*
X83305000Y-66255000D01*
X83305000Y-81495000D01*
X48565000Y-81495000D01*
X48565000Y-66255000D01*
%TO.C,C1*%
X46130002Y-96135000D02*
X46930002Y-96135000D01*
X46530002Y-95735000D02*
X46530002Y-96535000D01*
X50539700Y-94370000D02*
X50539700Y-102530000D01*
X50579700Y-94370000D02*
X50579700Y-102530000D01*
X50619700Y-94371000D02*
X50619700Y-102529000D01*
X50659700Y-94372000D02*
X50659700Y-102528000D01*
X50699700Y-94373000D02*
X50699700Y-102527000D01*
X50739700Y-94375000D02*
X50739700Y-102525000D01*
X50779700Y-94377000D02*
X50779700Y-102523000D01*
X50819700Y-94380000D02*
X50819700Y-102520000D01*
X50859700Y-94382000D02*
X50859700Y-102518000D01*
X50899700Y-94386000D02*
X50899700Y-102514000D01*
X50939700Y-94389000D02*
X50939700Y-102511000D01*
X50979700Y-94394000D02*
X50979700Y-102506000D01*
X51019700Y-94398000D02*
X51019700Y-102502000D01*
X51059700Y-94403000D02*
X51059700Y-102497000D01*
X51099700Y-94408000D02*
X51099700Y-102492000D01*
X51139700Y-94414000D02*
X51139700Y-102486000D01*
X51179700Y-94420000D02*
X51179700Y-102480000D01*
X51219700Y-94427000D02*
X51219700Y-102473000D01*
X51259700Y-94433000D02*
X51259700Y-97410000D01*
X51259700Y-99490000D02*
X51259700Y-102467000D01*
X51299700Y-94441000D02*
X51299700Y-97410000D01*
X51299700Y-99490000D02*
X51299700Y-102459000D01*
X51339700Y-94448000D02*
X51339700Y-97410000D01*
X51339700Y-99490000D02*
X51339700Y-102452000D01*
X51379700Y-94457000D02*
X51379700Y-97410000D01*
X51379700Y-99490000D02*
X51379700Y-102443000D01*
X51419700Y-94465000D02*
X51419700Y-97410000D01*
X51419700Y-99490000D02*
X51419700Y-102435000D01*
X51459700Y-94474000D02*
X51459700Y-97410000D01*
X51459700Y-99490000D02*
X51459700Y-102426000D01*
X51499700Y-94483000D02*
X51499700Y-97410000D01*
X51499700Y-99490000D02*
X51499700Y-102417000D01*
X51539700Y-94493000D02*
X51539700Y-97410000D01*
X51539700Y-99490000D02*
X51539700Y-102407000D01*
X51579700Y-94503000D02*
X51579700Y-97410000D01*
X51579700Y-99490000D02*
X51579700Y-102397000D01*
X51619700Y-94514000D02*
X51619700Y-97410000D01*
X51619700Y-99490000D02*
X51619700Y-102386000D01*
X51659700Y-94525000D02*
X51659700Y-97410000D01*
X51659700Y-99490000D02*
X51659700Y-102375000D01*
X51699700Y-94537000D02*
X51699700Y-97410000D01*
X51699700Y-99490000D02*
X51699700Y-102363000D01*
X51739700Y-94549000D02*
X51739700Y-97410000D01*
X51739700Y-99490000D02*
X51739700Y-102351000D01*
X51779700Y-94561000D02*
X51779700Y-97410000D01*
X51779700Y-99490000D02*
X51779700Y-102339000D01*
X51819700Y-94574000D02*
X51819700Y-97410000D01*
X51819700Y-99490000D02*
X51819700Y-102326000D01*
X51859700Y-94587000D02*
X51859700Y-97410000D01*
X51859700Y-99490000D02*
X51859700Y-102313000D01*
X51899700Y-94601000D02*
X51899700Y-97410000D01*
X51899700Y-99490000D02*
X51899700Y-102299000D01*
X51939700Y-94615000D02*
X51939700Y-97410000D01*
X51939700Y-99490000D02*
X51939700Y-102285000D01*
X51979700Y-94630000D02*
X51979700Y-97410000D01*
X51979700Y-99490000D02*
X51979700Y-102270000D01*
X52019700Y-94645000D02*
X52019700Y-97410000D01*
X52019700Y-99490000D02*
X52019700Y-102255000D01*
X52059700Y-94661000D02*
X52059700Y-97410000D01*
X52059700Y-99490000D02*
X52059700Y-102239000D01*
X52099700Y-94677000D02*
X52099700Y-97410000D01*
X52099700Y-99490000D02*
X52099700Y-102223000D01*
X52139700Y-94693000D02*
X52139700Y-97410000D01*
X52139700Y-99490000D02*
X52139700Y-102207000D01*
X52179700Y-94710000D02*
X52179700Y-97410000D01*
X52179700Y-99490000D02*
X52179700Y-102190000D01*
X52219700Y-94728000D02*
X52219700Y-97410000D01*
X52219700Y-99490000D02*
X52219700Y-102172000D01*
X52259700Y-94746000D02*
X52259700Y-97410000D01*
X52259700Y-99490000D02*
X52259700Y-102154000D01*
X52299700Y-94765000D02*
X52299700Y-97410000D01*
X52299700Y-99490000D02*
X52299700Y-102135000D01*
X52339700Y-94784000D02*
X52339700Y-97410000D01*
X52339700Y-99490000D02*
X52339700Y-102116000D01*
X52379700Y-94804000D02*
X52379700Y-97410000D01*
X52379700Y-99490000D02*
X52379700Y-102096000D01*
X52419700Y-94824000D02*
X52419700Y-97410000D01*
X52419700Y-99490000D02*
X52419700Y-102076000D01*
X52459700Y-94845000D02*
X52459700Y-97410000D01*
X52459700Y-99490000D02*
X52459700Y-102055000D01*
X52499700Y-94866000D02*
X52499700Y-97410000D01*
X52499700Y-99490000D02*
X52499700Y-102034000D01*
X52539700Y-94888000D02*
X52539700Y-97410000D01*
X52539700Y-99490000D02*
X52539700Y-102012000D01*
X52579700Y-94911000D02*
X52579700Y-97410000D01*
X52579700Y-99490000D02*
X52579700Y-101989000D01*
X52619700Y-94934000D02*
X52619700Y-97410000D01*
X52619700Y-99490000D02*
X52619700Y-101966000D01*
X52659700Y-94957000D02*
X52659700Y-97410000D01*
X52659700Y-99490000D02*
X52659700Y-101943000D01*
X52699700Y-94982000D02*
X52699700Y-97410000D01*
X52699700Y-99490000D02*
X52699700Y-101918000D01*
X52739700Y-95007000D02*
X52739700Y-97410000D01*
X52739700Y-99490000D02*
X52739700Y-101893000D01*
X52779700Y-95032000D02*
X52779700Y-97410000D01*
X52779700Y-99490000D02*
X52779700Y-101868000D01*
X52819700Y-95058000D02*
X52819700Y-97410000D01*
X52819700Y-99490000D02*
X52819700Y-101842000D01*
X52859700Y-95085000D02*
X52859700Y-97410000D01*
X52859700Y-99490000D02*
X52859700Y-101815000D01*
X52899700Y-95113000D02*
X52899700Y-97410000D01*
X52899700Y-99490000D02*
X52899700Y-101787000D01*
X52939700Y-95141000D02*
X52939700Y-97410000D01*
X52939700Y-99490000D02*
X52939700Y-101759000D01*
X52979700Y-95170000D02*
X52979700Y-97410000D01*
X52979700Y-99490000D02*
X52979700Y-101730000D01*
X53019700Y-95200000D02*
X53019700Y-97410000D01*
X53019700Y-99490000D02*
X53019700Y-101700000D01*
X53059700Y-95231000D02*
X53059700Y-97410000D01*
X53059700Y-99490000D02*
X53059700Y-101669000D01*
X53099700Y-95262000D02*
X53099700Y-97410000D01*
X53099700Y-99490000D02*
X53099700Y-101638000D01*
X53139700Y-95294000D02*
X53139700Y-97410000D01*
X53139700Y-99490000D02*
X53139700Y-101606000D01*
X53179700Y-95327000D02*
X53179700Y-97410000D01*
X53179700Y-99490000D02*
X53179700Y-101573000D01*
X53219700Y-95361000D02*
X53219700Y-97410000D01*
X53219700Y-99490000D02*
X53219700Y-101539000D01*
X53259700Y-95395000D02*
X53259700Y-97410000D01*
X53259700Y-99490000D02*
X53259700Y-101505000D01*
X53299700Y-95431000D02*
X53299700Y-97410000D01*
X53299700Y-99490000D02*
X53299700Y-101469000D01*
X53339700Y-95468000D02*
X53339700Y-101432000D01*
X53379700Y-95505000D02*
X53379700Y-101395000D01*
X53419700Y-95544000D02*
X53419700Y-101356000D01*
X53459700Y-95583000D02*
X53459700Y-101317000D01*
X53499700Y-95624000D02*
X53499700Y-101276000D01*
X53539700Y-95666000D02*
X53539700Y-101234000D01*
X53579700Y-95709000D02*
X53579700Y-101191000D01*
X53619700Y-95754000D02*
X53619700Y-101146000D01*
X53659700Y-95799000D02*
X53659700Y-101101000D01*
X53699700Y-95846000D02*
X53699700Y-101054000D01*
X53739700Y-95895000D02*
X53739700Y-101005000D01*
X53779700Y-95945000D02*
X53779700Y-100955000D01*
X53819700Y-95997000D02*
X53819700Y-100903000D01*
X53859700Y-96050000D02*
X53859700Y-100850000D01*
X53899700Y-96106000D02*
X53899700Y-100794000D01*
X53939700Y-96163000D02*
X53939700Y-100737000D01*
X53979700Y-96223000D02*
X53979700Y-100677000D01*
X54019700Y-96285000D02*
X54019700Y-100615000D01*
X54059700Y-96349000D02*
X54059700Y-100551000D01*
X54099700Y-96416000D02*
X54099700Y-100484000D01*
X54139700Y-96486000D02*
X54139700Y-100414000D01*
X54179700Y-96560000D02*
X54179700Y-100340000D01*
X54219700Y-96637000D02*
X54219700Y-100263000D01*
X54259700Y-96719000D02*
X54259700Y-100181000D01*
X54299700Y-96806000D02*
X54299700Y-100094000D01*
X54339700Y-96898000D02*
X54339700Y-100002000D01*
X54379700Y-96997000D02*
X54379700Y-99903000D01*
X54419700Y-97104000D02*
X54419700Y-99796000D01*
X54459700Y-97222000D02*
X54459700Y-99678000D01*
X54499700Y-97353000D02*
X54499700Y-99547000D01*
X54539700Y-97503000D02*
X54539700Y-99397000D01*
X54579700Y-97682000D02*
X54579700Y-99218000D01*
X54619700Y-97917000D02*
X54619700Y-98983000D01*
X54659700Y-98450000D02*
G75*
G02*
X46419700Y-98450000I-4120000J0D01*
G01*
X46419700Y-98450000D02*
G75*
G02*
X54659700Y-98450000I4120000J0D01*
G01*
%TO.C,J1*%
X29920000Y-28190000D02*
X29920000Y-35810000D01*
X29920000Y-29460000D02*
X40080000Y-29460000D01*
X29920000Y-35810000D02*
X40080000Y-35810000D01*
X40080000Y-28190000D02*
X29920000Y-28190000D01*
X40080000Y-35810000D02*
X40080000Y-28190000D01*
%TO.C,R1*%
X76979700Y-97080000D02*
X83519700Y-97080000D01*
X76979700Y-97410000D02*
X76979700Y-97080000D01*
X76979700Y-99490000D02*
X76979700Y-99820000D01*
X76979700Y-99820000D02*
X83519700Y-99820000D01*
X83519700Y-97080000D02*
X83519700Y-97410000D01*
X83519700Y-99820000D02*
X83519700Y-99490000D01*
%TD*%
M02*
