%TF.GenerationSoftware,KiCad,Pcbnew,9.0.4*%
%TF.CreationDate,2026-06-10T15:27:52+02:00*%
%TF.ProjectId,feedback_circuit,66656564-6261-4636-9b5f-636972637569,rev?*%
%TF.SameCoordinates,Original*%
%TF.FileFunction,Copper,L2,Bot*%
%TF.FilePolarity,Positive*%
%FSLAX46Y46*%
G04 Gerber Fmt 4.6, Leading zero omitted, Abs format (unit mm)*
G04 Created by KiCad (PCBNEW 9.0.4) date 2026-06-10 15:27:52*
%MOMM*%
%LPD*%
G01*
G04 APERTURE LIST*
G04 Aperture macros list*
%AMRoundRect*
0 Rectangle with rounded corners*
0 $1 Rounding radius*
0 $2 $3 $4 $5 $6 $7 $8 $9 X,Y pos of 4 corners*
0 Add a 4 corners polygon primitive as box body*
4,1,4,$2,$3,$4,$5,$6,$7,$8,$9,$2,$3,0*
0 Add four circle primitives for the rounded corners*
1,1,$1+$1,$2,$3*
1,1,$1+$1,$4,$5*
1,1,$1+$1,$6,$7*
1,1,$1+$1,$8,$9*
0 Add four rect primitives between the rounded corners*
20,1,$1+$1,$2,$3,$4,$5,0*
20,1,$1+$1,$4,$5,$6,$7,0*
20,1,$1+$1,$6,$7,$8,$9,0*
20,1,$1+$1,$8,$9,$2,$3,0*%
G04 Aperture macros list end*
%TA.AperFunction,ComponentPad*%
%ADD10RoundRect,0.250000X-0.950000X-0.550000X0.950000X-0.550000X0.950000X0.550000X-0.950000X0.550000X0*%
%TD*%
%TA.AperFunction,ComponentPad*%
%ADD11O,2.400000X1.600000*%
%TD*%
%TA.AperFunction,ComponentPad*%
%ADD12C,1.600000*%
%TD*%
%TA.AperFunction,ComponentPad*%
%ADD13R,1.700000X1.700000*%
%TD*%
%TA.AperFunction,ComponentPad*%
%ADD14C,1.700000*%
%TD*%
%TA.AperFunction,Conductor*%
%ADD15C,1.000000*%
%TD*%
G04 APERTURE END LIST*
D10*
%TO.P,U3,1*%
%TO.N,N/C*%
X47545000Y-46380000D03*
D11*
%TO.P,U3,2*%
%TO.N,/SERVO*%
X47545000Y-48920000D03*
%TO.P,U3,3*%
%TO.N,/IN_P*%
X47545000Y-51460000D03*
%TO.P,U3,4*%
%TO.N,GND*%
X47545000Y-54000000D03*
%TO.P,U3,5*%
%TO.N,N/C*%
X55165000Y-54000000D03*
%TO.P,U3,6*%
%TO.N,/U3_OUT*%
X55165000Y-51460000D03*
%TO.P,U3,7*%
%TO.N,+5V*%
X55165000Y-48920000D03*
%TO.P,U3,8*%
%TO.N,N/C*%
X55165000Y-46380000D03*
%TD*%
D12*
%TO.P,R4,1*%
%TO.N,/U3_OUT*%
X31575000Y-79830000D03*
%TO.P,R4,2*%
%TO.N,/LED*%
X39195000Y-79830000D03*
%TD*%
%TO.P,R3,1*%
%TO.N,/SERVO*%
X46345000Y-73780000D03*
%TO.P,R3,2*%
%TO.N,GND*%
X53965000Y-73780000D03*
%TD*%
%TO.P,R1,1*%
%TO.N,INPUT*%
X47145000Y-63900000D03*
%TO.P,R1,2*%
%TO.N,/IN_P*%
X54765000Y-63900000D03*
%TD*%
D13*
%TO.P,J2,1*%
%TO.N,FB_OUT*%
X109000000Y-30725000D03*
D14*
%TO.P,J2,2*%
%TO.N,GND*%
X109000000Y-33265000D03*
%TD*%
D10*
%TO.P,U4,1*%
%TO.N,N/C*%
X31975000Y-60090000D03*
D11*
%TO.P,U4,2*%
%TO.N,/OUT_PD*%
X31975000Y-62630000D03*
%TO.P,U4,3*%
%TO.N,GND*%
X31975000Y-65170000D03*
%TO.P,U4,4*%
X31975000Y-67710000D03*
%TO.P,U4,5*%
%TO.N,N/C*%
X39595000Y-67710000D03*
%TO.P,U4,6*%
%TO.N,FB_OUT*%
X39595000Y-65170000D03*
%TO.P,U4,7*%
%TO.N,+5V*%
X39595000Y-62630000D03*
%TO.P,U4,8*%
%TO.N,N/C*%
X39595000Y-60090000D03*
%TD*%
D12*
%TO.P,R2,1*%
%TO.N,/IN_P*%
X31575000Y-73780000D03*
%TO.P,R2,2*%
%TO.N,GND*%
X39195000Y-73780000D03*
%TD*%
%TO.P,R5,1*%
%TO.N,/OUT_PD*%
X46345000Y-79830000D03*
%TO.P,R5,2*%
%TO.N,FB_OUT*%
X53965000Y-79830000D03*
%TD*%
D10*
%TO.P,U1,1*%
%TO.N,/LED*%
X31975000Y-46380000D03*
D11*
%TO.P,U1,2*%
%TO.N,GND*%
X31975000Y-48920000D03*
%TO.P,U1,3*%
%TO.N,/SERVO*%
X31975000Y-51460000D03*
%TO.P,U1,4*%
%TO.N,GND*%
X31975000Y-54000000D03*
%TO.P,U1,5*%
X39595000Y-54000000D03*
%TO.P,U1,6*%
%TO.N,/OUT_PD*%
X39595000Y-51460000D03*
%TO.P,U1,7*%
%TO.N,N/C*%
X39595000Y-48920000D03*
%TO.P,U1,8*%
X39595000Y-46380000D03*
%TD*%
D13*
%TO.P,J1,1*%
%TO.N,INPUT*%
X35000000Y-34540000D03*
D14*
%TO.P,J1,2*%
%TO.N,+5V*%
X35000000Y-32000000D03*
%TO.P,J1,3*%
%TO.N,GND*%
X35000000Y-29460000D03*
%TD*%
D15*
%TO.N,+5V*%
X55654000Y-66046900D02*
X56883600Y-64817300D01*
X56883600Y-64817300D02*
X56883600Y-56623200D01*
X59473200Y-53094000D02*
X59473200Y-44710400D01*
X32811800Y-33118900D02*
X33930700Y-32000000D01*
X53532400Y-38769600D02*
X35667300Y-38769600D01*
X56413800Y-56153400D02*
X59473200Y-53094000D01*
X52280700Y-66046900D02*
X55654000Y-66046900D01*
X53936100Y-56153400D02*
X52663300Y-54880600D01*
X45902500Y-61792500D02*
X48026300Y-61792500D01*
X59473200Y-44710400D02*
X53532400Y-38769600D01*
X32811800Y-35914100D02*
X32811800Y-33118900D01*
X39595000Y-62630000D02*
X45065000Y-62630000D01*
X35667300Y-38769600D02*
X32811800Y-35914100D01*
X48026300Y-61792500D02*
X52280700Y-66046900D01*
X56883600Y-56623200D02*
X56413800Y-56153400D01*
X52663300Y-54880600D02*
X52663300Y-48920000D01*
X56413800Y-56153400D02*
X53936100Y-56153400D01*
X33930700Y-32000000D02*
X35000000Y-32000000D01*
X45065000Y-62630000D02*
X45902500Y-61792500D01*
X55165000Y-48920000D02*
X52663300Y-48920000D01*
%TO.N,/IN_P*%
X45043300Y-48434900D02*
X40857600Y-44249200D01*
X47545000Y-51460000D02*
X45043300Y-51460000D01*
X27609500Y-47007000D02*
X27609500Y-69814500D01*
X50046700Y-59181700D02*
X50046700Y-51460000D01*
X45043300Y-51460000D02*
X45043300Y-48434900D01*
X30367300Y-44249200D02*
X27609500Y-47007000D01*
X40857600Y-44249200D02*
X30367300Y-44249200D01*
X54765000Y-63900000D02*
X50046700Y-59181700D01*
X47766500Y-51460000D02*
X47545000Y-51460000D01*
X27609500Y-69814500D02*
X31575000Y-73780000D01*
X47766500Y-51460000D02*
X50046700Y-51460000D01*
%TO.N,/OUT_PD*%
X32966900Y-62630000D02*
X34476700Y-62630000D01*
X37093300Y-60013400D02*
X37093300Y-51461500D01*
X38344900Y-51460000D02*
X39595000Y-51460000D01*
X32966900Y-62630000D02*
X31975000Y-62630000D01*
X38344900Y-51460000D02*
X37094800Y-51460000D01*
X37093300Y-51461500D02*
X37094800Y-51460000D01*
X34476700Y-62630000D02*
X37093300Y-60013400D01*
%TO.N,/SERVO*%
X47363700Y-42446100D02*
X29622400Y-42446100D01*
X34628000Y-73758800D02*
X36795200Y-75926100D01*
X25761200Y-46307300D02*
X25761200Y-70950400D01*
X30705700Y-75894900D02*
X32491900Y-75894900D01*
X47545000Y-48920000D02*
X50046700Y-48920000D01*
X25761200Y-70950400D02*
X30705700Y-75894900D01*
X29622400Y-42446100D02*
X25761200Y-46307300D01*
X50058300Y-48908400D02*
X50058300Y-45140700D01*
X29465600Y-68596500D02*
X34628000Y-73758800D01*
X44198900Y-75926100D02*
X46345000Y-73780000D01*
X29473300Y-51460000D02*
X29465600Y-51467700D01*
X50046700Y-48920000D02*
X50058300Y-48908400D01*
X31975000Y-51460000D02*
X29473300Y-51460000D01*
X36795200Y-75926100D02*
X44198900Y-75926100D01*
X50058300Y-45140700D02*
X47363700Y-42446100D01*
X29465600Y-51467700D02*
X29465600Y-68596500D01*
X32491900Y-75894900D02*
X34628000Y-73758800D01*
%TO.N,/U3_OUT*%
X55165000Y-51460000D02*
X57666700Y-51460000D01*
X57666700Y-45452000D02*
X52859100Y-40644400D01*
X23959500Y-72214500D02*
X31575000Y-79830000D01*
X23959500Y-45561000D02*
X23959500Y-72214500D01*
X52859100Y-40644400D02*
X28876100Y-40644400D01*
X57666700Y-51460000D02*
X57666700Y-45452000D01*
X28876100Y-40644400D02*
X23959500Y-45561000D01*
%TO.N,FB_OUT*%
X72447700Y-72944500D02*
X56101800Y-72944500D01*
X53965000Y-79830000D02*
X56101800Y-77693200D01*
X49072300Y-69650300D02*
X44592000Y-65170000D01*
X111151700Y-34240500D02*
X72447700Y-72944500D01*
X56101800Y-72944500D02*
X52807600Y-69650300D01*
X44592000Y-65170000D02*
X39595000Y-65170000D01*
X109000000Y-30725000D02*
X111151700Y-30725000D01*
X111151700Y-30725000D02*
X111151700Y-34240500D01*
X52807600Y-69650300D02*
X49072300Y-69650300D01*
X56101800Y-77693200D02*
X56101800Y-72944500D01*
%TO.N,GND*%
X39195000Y-72428300D02*
X34476700Y-67710000D01*
X34476700Y-66459200D02*
X34476700Y-65170000D01*
X34476700Y-54000000D02*
X34476700Y-48920000D01*
X47545000Y-54000000D02*
X39595000Y-54000000D01*
X33856100Y-29460000D02*
X22157800Y-41158300D01*
X51841900Y-71656900D02*
X41318100Y-71656900D01*
X53965000Y-73780000D02*
X51841900Y-71656900D01*
X53965000Y-75208500D02*
X53965000Y-73780000D01*
X30696600Y-81934200D02*
X47239300Y-81934200D01*
X41318100Y-71656900D02*
X39195000Y-73780000D01*
X31975000Y-54000000D02*
X34476700Y-54000000D01*
X39195000Y-73780000D02*
X39195000Y-72428300D01*
X109000000Y-33265000D02*
X42560900Y-33265000D01*
X35000000Y-29460000D02*
X33856100Y-29460000D01*
X22157800Y-73395400D02*
X30696600Y-81934200D01*
X47239300Y-81934200D02*
X53965000Y-75208500D01*
X22157800Y-41158300D02*
X22157800Y-73395400D01*
X31975000Y-67710000D02*
X34476700Y-67710000D01*
X31975000Y-65170000D02*
X34476700Y-65170000D01*
X33225900Y-67710000D02*
X34476700Y-66459200D01*
X38755900Y-29460000D02*
X35000000Y-29460000D01*
X42560900Y-33265000D02*
X38755900Y-29460000D01*
X31975000Y-48920000D02*
X34476700Y-48920000D01*
%TO.N,INPUT*%
X39579600Y-36967900D02*
X37151700Y-34540000D01*
X51093600Y-67848600D02*
X56400300Y-67848600D01*
X61274900Y-62974000D02*
X61274900Y-43964100D01*
X61274900Y-43964100D02*
X54278700Y-36967900D01*
X56400300Y-67848600D02*
X61274900Y-62974000D01*
X47145000Y-63900000D02*
X51093600Y-67848600D01*
X54278700Y-36967900D02*
X39579600Y-36967900D01*
X35000000Y-34540000D02*
X37151700Y-34540000D01*
%TD*%
%TA.AperFunction,NonConductor*%
G36*
X123442539Y-20520185D02*
G01*
X123488294Y-20572989D01*
X123499500Y-20624500D01*
X123499500Y-123375500D01*
X123479815Y-123442539D01*
X123427011Y-123488294D01*
X123375500Y-123499500D01*
X20624500Y-123499500D01*
X20557461Y-123479815D01*
X20511706Y-123427011D01*
X20500500Y-123375500D01*
X20500500Y-41055948D01*
X20857300Y-41055948D01*
X20857300Y-73497755D01*
X20864084Y-73540586D01*
X20864084Y-73540587D01*
X20889322Y-73699930D01*
X20889322Y-73699931D01*
X20952579Y-73894618D01*
X20952580Y-73894619D01*
X20958360Y-73905962D01*
X21045513Y-74077011D01*
X21165834Y-74242619D01*
X21165835Y-74242620D01*
X21165836Y-74242621D01*
X29701508Y-82778292D01*
X29701522Y-82778307D01*
X29704633Y-82781418D01*
X29704634Y-82781419D01*
X29849381Y-82926166D01*
X29849384Y-82926168D01*
X29849388Y-82926172D01*
X29999568Y-83035282D01*
X30014990Y-83046487D01*
X30101835Y-83090737D01*
X30197381Y-83139421D01*
X30197384Y-83139422D01*
X30294721Y-83171048D01*
X30392066Y-83202677D01*
X30594248Y-83234700D01*
X30594249Y-83234700D01*
X47341651Y-83234700D01*
X47341652Y-83234700D01*
X47543835Y-83202677D01*
X47641176Y-83171048D01*
X47738519Y-83139420D01*
X47829714Y-83092953D01*
X47920911Y-83046487D01*
X48086519Y-82926166D01*
X54589619Y-76423066D01*
X54650942Y-76389581D01*
X54720634Y-76394565D01*
X54776567Y-76436437D01*
X54800984Y-76501901D01*
X54801300Y-76510747D01*
X54801300Y-77103152D01*
X54781615Y-77170191D01*
X54764981Y-77190833D01*
X53733590Y-78222223D01*
X53672267Y-78255708D01*
X53665309Y-78257015D01*
X53590217Y-78268909D01*
X53350618Y-78346760D01*
X53126151Y-78461132D01*
X52922350Y-78609201D01*
X52922345Y-78609205D01*
X52744205Y-78787345D01*
X52744201Y-78787350D01*
X52596132Y-78991151D01*
X52481760Y-79215616D01*
X52403910Y-79455214D01*
X52364500Y-79704038D01*
X52364500Y-79955961D01*
X52403910Y-80204785D01*
X52481760Y-80444383D01*
X52596132Y-80668848D01*
X52744201Y-80872649D01*
X52744205Y-80872654D01*
X52922345Y-81050794D01*
X52922350Y-81050798D01*
X53100117Y-81179952D01*
X53126155Y-81198870D01*
X53269184Y-81271747D01*
X53350616Y-81313239D01*
X53350618Y-81313239D01*
X53350621Y-81313241D01*
X53590215Y-81391090D01*
X53839038Y-81430500D01*
X53839039Y-81430500D01*
X54090961Y-81430500D01*
X54090962Y-81430500D01*
X54339785Y-81391090D01*
X54579379Y-81313241D01*
X54803845Y-81198870D01*
X55007656Y-81050793D01*
X55185793Y-80872656D01*
X55333870Y-80668845D01*
X55448241Y-80444379D01*
X55526090Y-80204785D01*
X55537984Y-80129687D01*
X55567911Y-80066557D01*
X55572758Y-80061425D01*
X56941950Y-78692232D01*
X56941957Y-78692227D01*
X56949017Y-78685167D01*
X56949019Y-78685166D01*
X57093766Y-78540419D01*
X57093768Y-78540415D01*
X57093771Y-78540413D01*
X57151372Y-78461130D01*
X57214087Y-78374810D01*
X57268046Y-78268910D01*
X57307021Y-78192418D01*
X57370277Y-77997734D01*
X57402301Y-77795551D01*
X57402301Y-77590848D01*
X57402301Y-77586447D01*
X57402300Y-77586432D01*
X57402300Y-74369000D01*
X57421985Y-74301961D01*
X57474789Y-74256206D01*
X57526300Y-74245000D01*
X72550051Y-74245000D01*
X72550052Y-74245000D01*
X72752235Y-74212977D01*
X72849576Y-74181348D01*
X72946919Y-74149720D01*
X73074854Y-74084534D01*
X73129311Y-74056787D01*
X73294919Y-73936466D01*
X111991850Y-35239532D01*
X111991857Y-35239527D01*
X111998917Y-35232467D01*
X111998919Y-35232466D01*
X112143666Y-35087719D01*
X112143668Y-35087715D01*
X112143671Y-35087713D01*
X112263984Y-34922114D01*
X112263983Y-34922114D01*
X112263987Y-34922110D01*
X112288062Y-34874860D01*
X112356921Y-34739718D01*
X112405833Y-34589182D01*
X112420177Y-34545035D01*
X112432027Y-34470220D01*
X112432027Y-34470219D01*
X112452200Y-34342856D01*
X112452200Y-30622648D01*
X112420177Y-30420465D01*
X112356918Y-30225776D01*
X112323203Y-30159607D01*
X112263987Y-30043390D01*
X112256256Y-30032749D01*
X112143671Y-29877786D01*
X111998913Y-29733028D01*
X111833313Y-29612715D01*
X111833312Y-29612714D01*
X111833310Y-29612713D01*
X111776353Y-29583691D01*
X111650923Y-29519781D01*
X111456234Y-29456522D01*
X111281695Y-29428878D01*
X111254052Y-29424500D01*
X111254051Y-29424500D01*
X110580810Y-29424500D01*
X110513771Y-29404815D01*
X110483865Y-29377815D01*
X110479816Y-29372738D01*
X110352262Y-29245184D01*
X110199523Y-29149211D01*
X110029254Y-29089631D01*
X110029249Y-29089630D01*
X109894960Y-29074500D01*
X109894954Y-29074500D01*
X108105046Y-29074500D01*
X108105039Y-29074500D01*
X107970750Y-29089630D01*
X107970745Y-29089631D01*
X107800476Y-29149211D01*
X107647737Y-29245184D01*
X107520184Y-29372737D01*
X107424211Y-29525476D01*
X107364631Y-29695745D01*
X107364630Y-29695750D01*
X107349500Y-29830039D01*
X107349500Y-31619960D01*
X107364630Y-31754249D01*
X107364633Y-31754262D01*
X107380479Y-31799545D01*
X107384042Y-31869323D01*
X107349313Y-31929951D01*
X107287320Y-31962179D01*
X107263438Y-31964500D01*
X43150946Y-31964500D01*
X43083907Y-31944815D01*
X43063265Y-31928181D01*
X39603121Y-28468036D01*
X39603120Y-28468035D01*
X39603119Y-28468034D01*
X39437511Y-28347713D01*
X39346314Y-28301246D01*
X39255119Y-28254780D01*
X39197238Y-28235973D01*
X39089816Y-28201069D01*
X39089814Y-28201069D01*
X39060435Y-28191523D01*
X39060433Y-28191522D01*
X39060428Y-28191521D01*
X38888757Y-28164331D01*
X38858252Y-28159500D01*
X38858251Y-28159500D01*
X36058304Y-28159500D01*
X35991265Y-28139815D01*
X35985419Y-28135818D01*
X35865054Y-28048368D01*
X35865053Y-28048367D01*
X35865051Y-28048366D01*
X35792764Y-28011534D01*
X35633576Y-27930422D01*
X35386493Y-27850140D01*
X35129902Y-27809500D01*
X35129897Y-27809500D01*
X34870103Y-27809500D01*
X34870098Y-27809500D01*
X34613506Y-27850140D01*
X34366423Y-27930422D01*
X34134948Y-28048366D01*
X34077914Y-28089804D01*
X34014581Y-28135817D01*
X33948777Y-28159297D01*
X33941698Y-28159499D01*
X33753749Y-28159499D01*
X33686354Y-28170173D01*
X33551564Y-28191523D01*
X33551561Y-28191523D01*
X33356884Y-28254777D01*
X33356881Y-28254778D01*
X33174490Y-28347712D01*
X33008881Y-28468033D01*
X21165836Y-40311078D01*
X21045513Y-40476688D01*
X21012211Y-40542048D01*
X20952578Y-40659083D01*
X20889323Y-40853761D01*
X20889323Y-40853764D01*
X20857300Y-41055948D01*
X20500500Y-41055948D01*
X20500500Y-20624500D01*
X20520185Y-20557461D01*
X20572989Y-20511706D01*
X20624500Y-20500500D01*
X123375500Y-20500500D01*
X123442539Y-20520185D01*
G37*
%TD.AperFunction*%
%TA.AperFunction,NonConductor*%
G36*
X36615629Y-35858961D02*
G01*
X36659977Y-35887462D01*
X38029934Y-37257419D01*
X38063419Y-37318742D01*
X38058435Y-37388434D01*
X38016563Y-37444367D01*
X37951099Y-37468784D01*
X37942253Y-37469100D01*
X36257346Y-37469100D01*
X36190307Y-37449415D01*
X36169665Y-37432781D01*
X35139066Y-36402181D01*
X35105581Y-36340858D01*
X35110565Y-36271166D01*
X35152437Y-36215233D01*
X35217901Y-36190816D01*
X35226747Y-36190500D01*
X35894957Y-36190500D01*
X35894958Y-36190499D01*
X35962104Y-36182934D01*
X36029249Y-36175369D01*
X36029252Y-36175368D01*
X36029255Y-36175368D01*
X36199522Y-36115789D01*
X36352262Y-36019816D01*
X36479816Y-35892262D01*
X36479819Y-35892256D01*
X36484614Y-35887462D01*
X36545937Y-35853977D01*
X36615629Y-35858961D01*
G37*
%TD.AperFunction*%
%TA.AperFunction,NonConductor*%
G36*
X31430634Y-33827165D02*
G01*
X31486567Y-33869037D01*
X31510984Y-33934501D01*
X31511300Y-33943347D01*
X31511300Y-36016456D01*
X31527808Y-36120680D01*
X31527808Y-36120681D01*
X31538866Y-36190499D01*
X31543323Y-36218634D01*
X31606580Y-36413319D01*
X31634789Y-36468682D01*
X31699513Y-36595711D01*
X31819834Y-36761319D01*
X31819835Y-36761320D01*
X31819836Y-36761321D01*
X34190735Y-39132219D01*
X34224220Y-39193542D01*
X34219236Y-39263234D01*
X34177364Y-39319167D01*
X34111900Y-39343584D01*
X34103054Y-39343900D01*
X28773748Y-39343900D01*
X28749429Y-39347751D01*
X28571565Y-39375922D01*
X28376876Y-39439181D01*
X28238380Y-39509749D01*
X28194490Y-39532113D01*
X28194489Y-39532114D01*
X28186591Y-39537852D01*
X28186590Y-39537851D01*
X28186590Y-39537852D01*
X28028886Y-39652428D01*
X28028882Y-39652432D01*
X23669981Y-44011334D01*
X23608658Y-44044819D01*
X23538966Y-44039835D01*
X23483033Y-43997963D01*
X23458616Y-43932499D01*
X23458300Y-43923653D01*
X23458300Y-41748347D01*
X23477985Y-41681308D01*
X23494619Y-41660666D01*
X31299619Y-33855666D01*
X31360942Y-33822181D01*
X31430634Y-33827165D01*
G37*
%TD.AperFunction*%
%TA.AperFunction,NonConductor*%
G36*
X46840692Y-43766285D02*
G01*
X46861334Y-43782919D01*
X47301430Y-44223015D01*
X47646235Y-44567819D01*
X47679720Y-44629142D01*
X47674736Y-44698833D01*
X47632864Y-44754767D01*
X47567400Y-44779184D01*
X47558554Y-44779500D01*
X46543392Y-44779500D01*
X46505298Y-44783251D01*
X46389067Y-44794699D01*
X46191043Y-44854769D01*
X46112487Y-44896759D01*
X46008550Y-44952315D01*
X46008548Y-44952316D01*
X46008547Y-44952317D01*
X45848589Y-45083589D01*
X45717317Y-45243547D01*
X45619769Y-45426043D01*
X45559699Y-45624067D01*
X45553614Y-45685853D01*
X45545759Y-45765616D01*
X45544500Y-45778395D01*
X45544500Y-46797553D01*
X45524815Y-46864592D01*
X45472011Y-46910347D01*
X45402853Y-46920291D01*
X45339297Y-46891266D01*
X45332819Y-46885234D01*
X42405866Y-43958281D01*
X42372381Y-43896958D01*
X42377365Y-43827266D01*
X42419237Y-43771333D01*
X42484701Y-43746916D01*
X42493547Y-43746600D01*
X46773653Y-43746600D01*
X46840692Y-43766285D01*
G37*
%TD.AperFunction*%
%TA.AperFunction,NonConductor*%
G36*
X52336092Y-41964585D02*
G01*
X52356734Y-41981219D01*
X54943334Y-44567819D01*
X54976819Y-44629142D01*
X54971835Y-44698834D01*
X54929963Y-44754767D01*
X54864499Y-44779184D01*
X54855653Y-44779500D01*
X54639038Y-44779500D01*
X54543076Y-44794699D01*
X54390214Y-44818910D01*
X54150616Y-44896760D01*
X53926151Y-45011132D01*
X53722350Y-45159201D01*
X53722345Y-45159205D01*
X53544205Y-45337345D01*
X53544201Y-45337350D01*
X53396132Y-45541151D01*
X53281760Y-45765616D01*
X53203910Y-46005214D01*
X53164500Y-46254038D01*
X53164500Y-46505961D01*
X53203910Y-46754785D01*
X53281760Y-46994383D01*
X53396132Y-47218848D01*
X53544176Y-47422615D01*
X53567656Y-47488421D01*
X53551830Y-47556475D01*
X53501724Y-47605170D01*
X53443858Y-47619500D01*
X52765652Y-47619500D01*
X52560948Y-47619500D01*
X52536629Y-47623351D01*
X52358765Y-47651522D01*
X52164076Y-47714781D01*
X51981686Y-47807715D01*
X51816086Y-47928028D01*
X51671332Y-48072782D01*
X51671328Y-48072787D01*
X51583118Y-48194199D01*
X51527788Y-48236865D01*
X51458175Y-48242844D01*
X51396380Y-48210239D01*
X51362023Y-48149400D01*
X51358800Y-48121314D01*
X51358800Y-45038348D01*
X51354489Y-45011130D01*
X51326777Y-44836166D01*
X51326775Y-44836161D01*
X51326775Y-44836158D01*
X51319176Y-44812770D01*
X51319168Y-44812750D01*
X51313303Y-44794700D01*
X51265027Y-44646120D01*
X51263965Y-44642355D01*
X51217053Y-44550285D01*
X51217052Y-44550284D01*
X51170587Y-44459089D01*
X51110426Y-44376285D01*
X51110426Y-44376284D01*
X51110424Y-44376283D01*
X51082724Y-44338156D01*
X51050271Y-44293487D01*
X51050268Y-44293484D01*
X51050266Y-44293481D01*
X50905519Y-44148734D01*
X50905518Y-44148733D01*
X50902407Y-44145622D01*
X50902392Y-44145608D01*
X48913366Y-42156581D01*
X48879881Y-42095258D01*
X48884865Y-42025566D01*
X48926737Y-41969633D01*
X48992201Y-41945216D01*
X49001047Y-41944900D01*
X52269053Y-41944900D01*
X52336092Y-41964585D01*
G37*
%TD.AperFunction*%
%TA.AperFunction,NonConductor*%
G36*
X29893834Y-46664365D02*
G01*
X29949767Y-46706237D01*
X29974184Y-46771701D01*
X29974500Y-46780547D01*
X29974500Y-46981608D01*
X29979502Y-47032398D01*
X29989699Y-47135932D01*
X29989700Y-47135934D01*
X30049768Y-47333954D01*
X30147315Y-47516450D01*
X30235285Y-47623642D01*
X30278590Y-47676410D01*
X30327049Y-47716180D01*
X30366383Y-47773926D01*
X30368254Y-47843770D01*
X30348703Y-47884918D01*
X30206129Y-48081155D01*
X30091760Y-48305616D01*
X30013910Y-48545214D01*
X29974500Y-48794038D01*
X29974500Y-49045961D01*
X30013910Y-49294785D01*
X30091760Y-49534383D01*
X30145637Y-49640121D01*
X30204486Y-49755619D01*
X30206132Y-49758848D01*
X30354176Y-49962615D01*
X30377656Y-50028421D01*
X30361830Y-50096475D01*
X30311724Y-50145170D01*
X30253858Y-50159500D01*
X29370948Y-50159500D01*
X29303554Y-50170174D01*
X29168764Y-50191523D01*
X29168761Y-50191523D01*
X29072318Y-50222860D01*
X29002477Y-50224855D01*
X28942644Y-50188775D01*
X28911816Y-50126074D01*
X28910000Y-50104929D01*
X28910000Y-47597047D01*
X28929685Y-47530008D01*
X28946319Y-47509366D01*
X29762819Y-46692866D01*
X29824142Y-46659381D01*
X29893834Y-46664365D01*
G37*
%TD.AperFunction*%
%TA.AperFunction,NonConductor*%
G36*
X51325215Y-49618154D02*
G01*
X51359576Y-49678991D01*
X51362800Y-49707084D01*
X51362800Y-50677280D01*
X51343115Y-50744319D01*
X51290311Y-50790074D01*
X51221153Y-50800018D01*
X51157597Y-50770993D01*
X51138482Y-50750165D01*
X51038671Y-50612787D01*
X51038667Y-50612782D01*
X50893913Y-50468028D01*
X50728313Y-50347715D01*
X50728312Y-50347714D01*
X50728310Y-50347713D01*
X50635617Y-50300483D01*
X50626481Y-50291854D01*
X50614837Y-50287134D01*
X50606843Y-50275803D01*
X50605729Y-50276918D01*
X50605728Y-50276917D01*
X50600470Y-50267288D01*
X50584822Y-50252509D01*
X50581801Y-50240311D01*
X50574557Y-50230044D01*
X50574077Y-50218953D01*
X50572243Y-50215594D01*
X50573013Y-50204823D01*
X50568027Y-50184688D01*
X50572080Y-50172794D01*
X50571537Y-50160240D01*
X50576853Y-50151123D01*
X50577227Y-50145902D01*
X50584600Y-50136051D01*
X50590564Y-50118553D01*
X50601249Y-50109290D01*
X50606735Y-50099884D01*
X50617197Y-50092508D01*
X50619099Y-50089969D01*
X50633677Y-50080891D01*
X50635464Y-50079631D01*
X50635572Y-50079538D01*
X50637114Y-50078753D01*
X50728311Y-50032287D01*
X50893919Y-49911966D01*
X50970195Y-49835690D01*
X51038666Y-49767219D01*
X51050266Y-49755619D01*
X51134180Y-49640121D01*
X51138479Y-49634202D01*
X51193804Y-49591536D01*
X51263417Y-49585552D01*
X51325215Y-49618154D01*
G37*
%TD.AperFunction*%
%TA.AperFunction,NonConductor*%
G36*
X37686465Y-45569385D02*
G01*
X37732220Y-45622189D01*
X37742164Y-45691347D01*
X37729911Y-45729994D01*
X37711761Y-45765613D01*
X37633910Y-46005214D01*
X37594500Y-46254038D01*
X37594500Y-46505961D01*
X37633910Y-46754785D01*
X37711760Y-46994383D01*
X37826132Y-47218848D01*
X37974201Y-47422649D01*
X37974205Y-47422654D01*
X38113870Y-47562319D01*
X38147355Y-47623642D01*
X38142371Y-47693334D01*
X38113870Y-47737681D01*
X37974205Y-47877345D01*
X37974201Y-47877350D01*
X37826132Y-48081151D01*
X37711760Y-48305616D01*
X37633910Y-48545214D01*
X37594500Y-48794038D01*
X37594500Y-49045961D01*
X37633910Y-49294785D01*
X37711760Y-49534383D01*
X37765637Y-49640121D01*
X37824486Y-49755619D01*
X37826132Y-49758848D01*
X37974176Y-49962615D01*
X37997656Y-50028421D01*
X37981830Y-50096475D01*
X37931724Y-50145170D01*
X37873858Y-50159500D01*
X37197151Y-50159500D01*
X36992448Y-50159500D01*
X36945579Y-50166923D01*
X36790268Y-50191522D01*
X36790263Y-50191523D01*
X36736784Y-50208899D01*
X36736785Y-50208900D01*
X36595576Y-50254781D01*
X36528676Y-50288870D01*
X36413187Y-50347714D01*
X36413184Y-50347716D01*
X36247578Y-50468036D01*
X36101336Y-50614278D01*
X36101336Y-50614279D01*
X36101334Y-50614281D01*
X36096343Y-50621151D01*
X36001518Y-50751666D01*
X35946188Y-50794331D01*
X35876574Y-50800310D01*
X35814779Y-50767704D01*
X35780422Y-50706865D01*
X35777200Y-50678780D01*
X35777200Y-48817648D01*
X35745177Y-48615465D01*
X35681918Y-48420776D01*
X35591256Y-48242844D01*
X35588987Y-48238390D01*
X35524333Y-48149400D01*
X35468671Y-48072786D01*
X35323913Y-47928028D01*
X35158313Y-47807715D01*
X35158312Y-47807714D01*
X35158310Y-47807713D01*
X35101353Y-47778691D01*
X34975923Y-47714781D01*
X34781234Y-47651522D01*
X34605203Y-47623642D01*
X34579052Y-47619500D01*
X34579051Y-47619500D01*
X33954486Y-47619500D01*
X33887447Y-47599815D01*
X33841692Y-47547011D01*
X33831748Y-47477853D01*
X33845128Y-47437047D01*
X33900230Y-47333958D01*
X33900231Y-47333956D01*
X33900232Y-47333954D01*
X33960300Y-47135934D01*
X33975500Y-46981608D01*
X33975500Y-45778392D01*
X33966386Y-45685853D01*
X33979405Y-45617207D01*
X34027470Y-45566497D01*
X34089789Y-45549700D01*
X37619426Y-45549700D01*
X37686465Y-45569385D01*
G37*
%TD.AperFunction*%
%TA.AperFunction,NonConductor*%
G36*
X41658332Y-46898491D02*
G01*
X41691303Y-46922088D01*
X43706481Y-48937265D01*
X43739966Y-48998588D01*
X43742800Y-49024946D01*
X43742800Y-51562351D01*
X43774822Y-51764534D01*
X43838081Y-51959223D01*
X43931015Y-52141613D01*
X44051328Y-52307213D01*
X44196086Y-52451971D01*
X44228034Y-52475182D01*
X44270700Y-52530511D01*
X44276679Y-52600125D01*
X44244074Y-52661920D01*
X44183235Y-52696277D01*
X44155149Y-52699500D01*
X41316142Y-52699500D01*
X41249103Y-52679815D01*
X41203348Y-52627011D01*
X41193404Y-52557853D01*
X41215824Y-52502615D01*
X41304103Y-52381106D01*
X41363870Y-52298845D01*
X41478241Y-52074379D01*
X41556090Y-51834785D01*
X41595500Y-51585962D01*
X41595500Y-51334038D01*
X41556090Y-51085215D01*
X41478241Y-50845621D01*
X41478239Y-50845618D01*
X41478239Y-50845616D01*
X41393231Y-50678780D01*
X41363870Y-50621155D01*
X41252623Y-50468036D01*
X41215798Y-50417350D01*
X41215794Y-50417345D01*
X41076130Y-50277681D01*
X41042645Y-50216358D01*
X41047629Y-50146666D01*
X41076130Y-50102319D01*
X41099699Y-50078750D01*
X41215793Y-49962656D01*
X41363870Y-49758845D01*
X41478241Y-49534379D01*
X41556090Y-49294785D01*
X41595500Y-49045962D01*
X41595500Y-48794038D01*
X41556090Y-48545215D01*
X41478241Y-48305621D01*
X41478239Y-48305618D01*
X41478239Y-48305616D01*
X41436747Y-48224184D01*
X41363870Y-48081155D01*
X41344952Y-48055117D01*
X41215798Y-47877350D01*
X41215794Y-47877345D01*
X41076130Y-47737681D01*
X41042645Y-47676358D01*
X41047629Y-47606666D01*
X41076130Y-47562319D01*
X41129083Y-47509366D01*
X41215793Y-47422656D01*
X41363870Y-47218845D01*
X41478241Y-46994379D01*
X41485690Y-46971452D01*
X41525127Y-46913777D01*
X41589485Y-46886577D01*
X41658332Y-46898491D01*
G37*
%TD.AperFunction*%
%TA.AperFunction,NonConductor*%
G36*
X57735191Y-52780185D02*
G01*
X57780946Y-52832989D01*
X57790890Y-52902147D01*
X57761865Y-52965703D01*
X57755833Y-52972181D01*
X57263460Y-53464553D01*
X57202137Y-53498038D01*
X57132445Y-53493054D01*
X57076512Y-53451182D01*
X57057848Y-53415189D01*
X57048241Y-53385621D01*
X56933870Y-53161155D01*
X56923227Y-53146506D01*
X56785824Y-52957385D01*
X56762344Y-52891579D01*
X56778170Y-52823525D01*
X56828276Y-52774830D01*
X56886142Y-52760500D01*
X57668152Y-52760500D01*
X57735191Y-52780185D01*
G37*
%TD.AperFunction*%
%TA.AperFunction,NonConductor*%
G36*
X35755220Y-54693794D02*
G01*
X35789577Y-54754633D01*
X35792800Y-54782719D01*
X35792800Y-59423353D01*
X35773115Y-59490392D01*
X35756481Y-59511034D01*
X34109485Y-61158029D01*
X34048162Y-61191514D01*
X33978470Y-61186530D01*
X33922537Y-61144658D01*
X33898120Y-61079194D01*
X33903142Y-61034360D01*
X33960300Y-60845934D01*
X33975500Y-60691608D01*
X33975500Y-59488392D01*
X33960300Y-59334066D01*
X33900232Y-59136046D01*
X33802685Y-58953550D01*
X33733462Y-58869201D01*
X33671410Y-58793589D01*
X33511452Y-58662317D01*
X33511453Y-58662317D01*
X33511450Y-58662315D01*
X33328954Y-58564768D01*
X33130934Y-58504700D01*
X33130932Y-58504699D01*
X33130934Y-58504699D01*
X33011805Y-58492966D01*
X32976608Y-58489500D01*
X30973392Y-58489500D01*
X30957403Y-58491074D01*
X30902253Y-58496506D01*
X30833607Y-58483487D01*
X30782897Y-58435421D01*
X30766100Y-58373103D01*
X30766100Y-55586477D01*
X30785785Y-55519438D01*
X30838589Y-55473683D01*
X30907747Y-55463739D01*
X30946398Y-55475994D01*
X30960621Y-55483241D01*
X31200215Y-55561090D01*
X31449038Y-55600500D01*
X31449039Y-55600500D01*
X32500961Y-55600500D01*
X32500962Y-55600500D01*
X32749785Y-55561090D01*
X32989379Y-55483241D01*
X33213845Y-55368870D01*
X33275353Y-55324181D01*
X33341158Y-55300702D01*
X33348238Y-55300500D01*
X34579051Y-55300500D01*
X34579052Y-55300500D01*
X34781234Y-55268477D01*
X34975919Y-55205220D01*
X35158310Y-55112287D01*
X35251290Y-55044732D01*
X35323913Y-54991971D01*
X35323915Y-54991968D01*
X35323919Y-54991966D01*
X35468666Y-54847219D01*
X35468668Y-54847215D01*
X35468671Y-54847213D01*
X35568482Y-54709834D01*
X35623811Y-54667168D01*
X35693425Y-54661189D01*
X35755220Y-54693794D01*
G37*
%TD.AperFunction*%
%TA.AperFunction,NonConductor*%
G36*
X51552403Y-55569606D02*
G01*
X51571518Y-55590434D01*
X51624472Y-55663319D01*
X51671334Y-55727819D01*
X53088881Y-57145366D01*
X53254489Y-57265687D01*
X53331275Y-57304811D01*
X53436881Y-57358620D01*
X53534223Y-57390248D01*
X53631565Y-57421877D01*
X53833748Y-57453900D01*
X55459100Y-57453900D01*
X55526139Y-57473585D01*
X55571894Y-57526389D01*
X55583100Y-57577900D01*
X55583100Y-62318209D01*
X55563415Y-62385248D01*
X55510611Y-62431003D01*
X55441453Y-62440947D01*
X55402808Y-62428695D01*
X55379380Y-62416759D01*
X55379379Y-62416758D01*
X55139782Y-62338909D01*
X55139783Y-62338909D01*
X55064689Y-62327015D01*
X55001554Y-62297085D01*
X54996407Y-62292223D01*
X51383519Y-58679334D01*
X51350034Y-58618011D01*
X51347200Y-58591653D01*
X51347200Y-55663319D01*
X51366885Y-55596280D01*
X51419689Y-55550525D01*
X51488847Y-55540581D01*
X51552403Y-55569606D01*
G37*
%TD.AperFunction*%
%TA.AperFunction,NonConductor*%
G36*
X59893734Y-54615164D02*
G01*
X59949667Y-54657036D01*
X59974084Y-54722500D01*
X59974400Y-54731346D01*
X59974400Y-62383953D01*
X59954715Y-62450992D01*
X59938081Y-62471634D01*
X58395781Y-64013934D01*
X58334458Y-64047419D01*
X58264766Y-64042435D01*
X58208833Y-64000563D01*
X58184416Y-63935099D01*
X58184100Y-63926253D01*
X58184100Y-56730687D01*
X58184101Y-56730662D01*
X58184101Y-56520850D01*
X58153161Y-56325509D01*
X58162115Y-56256216D01*
X58187950Y-56218433D01*
X59762720Y-54643663D01*
X59824042Y-54610180D01*
X59893734Y-54615164D01*
G37*
%TD.AperFunction*%
%TA.AperFunction,NonConductor*%
G36*
X46238801Y-55320185D02*
G01*
X46244637Y-55324175D01*
X46306155Y-55368870D01*
X46327644Y-55379819D01*
X46530616Y-55483239D01*
X46530618Y-55483239D01*
X46530621Y-55483241D01*
X46770215Y-55561090D01*
X47019038Y-55600500D01*
X47019039Y-55600500D01*
X48070961Y-55600500D01*
X48070962Y-55600500D01*
X48319785Y-55561090D01*
X48559379Y-55483241D01*
X48565899Y-55479918D01*
X48634565Y-55467018D01*
X48699308Y-55493290D01*
X48739569Y-55550393D01*
X48746200Y-55590400D01*
X48746200Y-59284051D01*
X48778222Y-59486234D01*
X48815986Y-59602458D01*
X48841480Y-59680919D01*
X48841481Y-59680920D01*
X48841482Y-59680924D01*
X48855720Y-59708866D01*
X48934413Y-59863311D01*
X49054734Y-60028919D01*
X49054735Y-60028920D01*
X49054736Y-60028921D01*
X53157223Y-64131407D01*
X53190708Y-64192730D01*
X53192015Y-64199689D01*
X53203909Y-64274782D01*
X53281760Y-64514384D01*
X53308114Y-64566104D01*
X53321011Y-64634774D01*
X53294735Y-64699514D01*
X53237629Y-64739772D01*
X53197630Y-64746400D01*
X52870747Y-64746400D01*
X52803708Y-64726715D01*
X52783066Y-64710081D01*
X48873521Y-60800536D01*
X48873519Y-60800534D01*
X48707911Y-60680213D01*
X48616714Y-60633746D01*
X48525519Y-60587280D01*
X48413344Y-60550832D01*
X48413343Y-60550831D01*
X48330832Y-60524022D01*
X48175520Y-60499423D01*
X48128652Y-60492000D01*
X45800148Y-60492000D01*
X45800144Y-60492000D01*
X45703511Y-60507305D01*
X45703503Y-60507306D01*
X45699057Y-60508011D01*
X45597965Y-60524023D01*
X45515456Y-60550832D01*
X45510484Y-60552447D01*
X45510473Y-60552450D01*
X45403283Y-60587278D01*
X45312084Y-60633745D01*
X45312085Y-60633746D01*
X45220896Y-60680209D01*
X45220892Y-60680211D01*
X45220889Y-60680212D01*
X45220889Y-60680213D01*
X45187623Y-60704383D01*
X45167229Y-60719200D01*
X45055280Y-60800534D01*
X44562634Y-61293181D01*
X44501311Y-61326666D01*
X44474953Y-61329500D01*
X41316142Y-61329500D01*
X41249103Y-61309815D01*
X41203348Y-61257011D01*
X41193404Y-61187853D01*
X41215824Y-61132615D01*
X41351926Y-60945284D01*
X41363870Y-60928845D01*
X41478241Y-60704379D01*
X41556090Y-60464785D01*
X41595500Y-60215962D01*
X41595500Y-59964038D01*
X41556090Y-59715215D01*
X41478241Y-59475621D01*
X41478239Y-59475618D01*
X41478239Y-59475616D01*
X41436747Y-59394184D01*
X41363870Y-59251155D01*
X41280239Y-59136046D01*
X41215798Y-59047350D01*
X41215794Y-59047345D01*
X41037654Y-58869205D01*
X41037649Y-58869201D01*
X40833848Y-58721132D01*
X40833847Y-58721131D01*
X40833845Y-58721130D01*
X40718418Y-58662317D01*
X40609383Y-58606760D01*
X40369785Y-58528910D01*
X40216930Y-58504700D01*
X40120962Y-58489500D01*
X39069038Y-58489500D01*
X39005282Y-58499598D01*
X38820213Y-58528910D01*
X38820210Y-58528910D01*
X38580621Y-58606758D01*
X38574087Y-58610087D01*
X38505416Y-58622978D01*
X38440678Y-58596697D01*
X38400425Y-58539588D01*
X38393800Y-58499598D01*
X38393800Y-55590400D01*
X38413485Y-55523361D01*
X38466289Y-55477606D01*
X38535447Y-55467662D01*
X38574098Y-55479917D01*
X38580621Y-55483241D01*
X38820215Y-55561090D01*
X39069038Y-55600500D01*
X39069039Y-55600500D01*
X40120961Y-55600500D01*
X40120962Y-55600500D01*
X40369785Y-55561090D01*
X40609379Y-55483241D01*
X40833845Y-55368870D01*
X40895353Y-55324181D01*
X40961158Y-55300702D01*
X40968238Y-55300500D01*
X46171762Y-55300500D01*
X46238801Y-55320185D01*
G37*
%TD.AperFunction*%
%TA.AperFunction,NonConductor*%
G36*
X37910691Y-61109460D02*
G01*
X37937051Y-61111346D01*
X37946104Y-61117164D01*
X37953144Y-61118696D01*
X37981398Y-61139847D01*
X38113870Y-61272319D01*
X38147355Y-61333642D01*
X38142371Y-61403334D01*
X38113870Y-61447681D01*
X37974205Y-61587345D01*
X37974201Y-61587350D01*
X37826132Y-61791151D01*
X37711760Y-62015616D01*
X37633910Y-62255214D01*
X37594500Y-62504038D01*
X37594500Y-62755961D01*
X37633910Y-63004785D01*
X37711760Y-63244383D01*
X37826132Y-63468848D01*
X37974201Y-63672649D01*
X37974205Y-63672654D01*
X38113870Y-63812319D01*
X38147355Y-63873642D01*
X38142371Y-63943334D01*
X38113870Y-63987681D01*
X37974205Y-64127345D01*
X37974201Y-64127350D01*
X37826132Y-64331151D01*
X37711760Y-64555616D01*
X37633910Y-64795214D01*
X37594500Y-65044038D01*
X37594500Y-65295961D01*
X37633910Y-65544785D01*
X37711760Y-65784383D01*
X37826132Y-66008848D01*
X37974201Y-66212649D01*
X37974205Y-66212654D01*
X38113870Y-66352319D01*
X38147355Y-66413642D01*
X38142371Y-66483334D01*
X38113870Y-66527681D01*
X37974205Y-66667345D01*
X37974201Y-66667350D01*
X37826132Y-66871151D01*
X37711760Y-67095616D01*
X37633910Y-67335214D01*
X37594500Y-67584038D01*
X37594500Y-67835961D01*
X37633910Y-68084785D01*
X37711760Y-68324383D01*
X37826132Y-68548848D01*
X37974201Y-68752649D01*
X37974205Y-68752654D01*
X38152345Y-68930794D01*
X38152350Y-68930798D01*
X38294647Y-69034182D01*
X38356155Y-69078870D01*
X38499184Y-69151747D01*
X38580616Y-69193239D01*
X38580618Y-69193239D01*
X38580621Y-69193241D01*
X38820215Y-69271090D01*
X39069038Y-69310500D01*
X39069039Y-69310500D01*
X40120961Y-69310500D01*
X40120962Y-69310500D01*
X40369785Y-69271090D01*
X40609379Y-69193241D01*
X40833845Y-69078870D01*
X41037656Y-68930793D01*
X41215793Y-68752656D01*
X41363870Y-68548845D01*
X41478241Y-68324379D01*
X41556090Y-68084785D01*
X41595500Y-67835962D01*
X41595500Y-67584038D01*
X41556090Y-67335215D01*
X41478241Y-67095621D01*
X41478239Y-67095618D01*
X41478239Y-67095616D01*
X41410634Y-66962935D01*
X41363870Y-66871155D01*
X41353227Y-66856506D01*
X41215824Y-66667385D01*
X41192344Y-66601579D01*
X41208170Y-66533525D01*
X41258276Y-66484830D01*
X41316142Y-66470500D01*
X44001953Y-66470500D01*
X44068992Y-66490185D01*
X44089634Y-66506819D01*
X47727534Y-70144719D01*
X47761019Y-70206042D01*
X47756035Y-70275734D01*
X47714163Y-70331667D01*
X47648699Y-70356084D01*
X47639853Y-70356400D01*
X41215748Y-70356400D01*
X41148354Y-70367074D01*
X41013564Y-70388423D01*
X40818884Y-70451677D01*
X40818881Y-70451678D01*
X40636490Y-70544612D01*
X40636486Y-70544614D01*
X40553685Y-70604772D01*
X40553685Y-70604773D01*
X40470881Y-70664934D01*
X40470879Y-70664936D01*
X40470878Y-70664936D01*
X40326131Y-70809684D01*
X39958530Y-71177284D01*
X39897207Y-71210769D01*
X39827515Y-71205785D01*
X39783168Y-71177284D01*
X37755300Y-69149416D01*
X35705923Y-67100038D01*
X35672438Y-67038715D01*
X35677422Y-66969023D01*
X35680099Y-66962935D01*
X35680056Y-66962918D01*
X35681912Y-66958433D01*
X35681920Y-66958419D01*
X35745177Y-66763734D01*
X35750348Y-66731090D01*
X35760438Y-66667385D01*
X35777200Y-66561557D01*
X35777200Y-65067648D01*
X35745177Y-64865465D01*
X35706490Y-64746400D01*
X35681920Y-64670781D01*
X35681918Y-64670778D01*
X35681918Y-64670776D01*
X35623240Y-64555616D01*
X35588987Y-64488390D01*
X35581256Y-64477749D01*
X35468671Y-64322786D01*
X35323913Y-64178028D01*
X35158313Y-64057715D01*
X35158312Y-64057714D01*
X35158310Y-64057713D01*
X35065617Y-64010483D01*
X35056481Y-64001854D01*
X35044837Y-63997134D01*
X35036843Y-63985803D01*
X35035729Y-63986918D01*
X35035728Y-63986917D01*
X35030470Y-63977288D01*
X35014822Y-63962509D01*
X35011801Y-63950311D01*
X35004557Y-63940044D01*
X35004077Y-63928953D01*
X35002243Y-63925594D01*
X35003013Y-63914823D01*
X34998027Y-63894688D01*
X35002080Y-63882794D01*
X35001537Y-63870240D01*
X35006853Y-63861123D01*
X35007227Y-63855902D01*
X35014600Y-63846051D01*
X35020564Y-63828553D01*
X35031249Y-63819290D01*
X35036735Y-63809884D01*
X35047197Y-63802508D01*
X35049099Y-63799969D01*
X35063677Y-63790891D01*
X35065464Y-63789631D01*
X35065572Y-63789538D01*
X35067114Y-63788753D01*
X35158311Y-63742287D01*
X35323919Y-63621966D01*
X37806038Y-61139845D01*
X37813981Y-61135508D01*
X37819407Y-61128261D01*
X37844166Y-61119026D01*
X37867359Y-61106362D01*
X37876388Y-61107007D01*
X37884871Y-61103844D01*
X37910691Y-61109460D01*
G37*
%TD.AperFunction*%
%TA.AperFunction,NonConductor*%
G36*
X38232892Y-30780185D02*
G01*
X38253534Y-30796819D01*
X41565808Y-34109092D01*
X41565822Y-34109107D01*
X41568933Y-34112218D01*
X41568934Y-34112219D01*
X41713681Y-34256966D01*
X41713684Y-34256968D01*
X41713685Y-34256969D01*
X41828279Y-34340226D01*
X41828281Y-34340227D01*
X41828284Y-34340229D01*
X41879290Y-34377287D01*
X41968747Y-34422867D01*
X42061681Y-34470221D01*
X42061684Y-34470222D01*
X42226986Y-34523931D01*
X42256366Y-34533477D01*
X42458548Y-34565500D01*
X42458549Y-34565500D01*
X42663252Y-34565500D01*
X107941696Y-34565500D01*
X108008735Y-34585185D01*
X108014581Y-34589182D01*
X108110745Y-34659049D01*
X108134949Y-34676634D01*
X108366428Y-34794579D01*
X108469856Y-34828185D01*
X108527530Y-34867621D01*
X108554729Y-34931980D01*
X108542814Y-35000826D01*
X108519218Y-35033796D01*
X71945334Y-71607681D01*
X71884011Y-71641166D01*
X71857653Y-71644000D01*
X56691847Y-71644000D01*
X56624808Y-71624315D01*
X56604166Y-71607681D01*
X54357266Y-69360781D01*
X54323781Y-69299458D01*
X54328765Y-69229766D01*
X54370637Y-69173833D01*
X54436101Y-69149416D01*
X54444947Y-69149100D01*
X56502651Y-69149100D01*
X56502652Y-69149100D01*
X56704835Y-69117077D01*
X56822423Y-69078870D01*
X56899519Y-69053820D01*
X57047388Y-68978477D01*
X57081911Y-68960887D01*
X57247519Y-68840566D01*
X62266866Y-63821219D01*
X62268268Y-63819290D01*
X62290440Y-63788772D01*
X62387186Y-63655611D01*
X62387187Y-63655610D01*
X62480120Y-63473219D01*
X62543377Y-63278534D01*
X62575400Y-63076352D01*
X62575400Y-43861748D01*
X62543377Y-43659565D01*
X62480118Y-43464876D01*
X62392705Y-43293319D01*
X62392707Y-43293317D01*
X62392700Y-43293310D01*
X62387192Y-43282498D01*
X62387190Y-43282494D01*
X62387187Y-43282489D01*
X62266866Y-43116881D01*
X55125919Y-35975934D01*
X54960311Y-35855613D01*
X54867801Y-35808477D01*
X54777923Y-35762681D01*
X54731215Y-35747504D01*
X54680576Y-35731051D01*
X54656703Y-35723294D01*
X54583235Y-35699422D01*
X54408695Y-35671778D01*
X54381052Y-35667400D01*
X54381051Y-35667400D01*
X40169647Y-35667400D01*
X40102608Y-35647715D01*
X40081966Y-35631081D01*
X37998921Y-33548036D01*
X37998919Y-33548034D01*
X37916115Y-33487873D01*
X37833309Y-33427711D01*
X37720027Y-33369992D01*
X37720023Y-33369990D01*
X37714845Y-33367352D01*
X37650919Y-33334780D01*
X37545416Y-33300500D01*
X37541689Y-33299289D01*
X37541684Y-33299287D01*
X37456232Y-33271522D01*
X37300920Y-33246923D01*
X37254052Y-33239500D01*
X37254051Y-33239500D01*
X36580810Y-33239500D01*
X36550841Y-33230700D01*
X36520376Y-33223776D01*
X36516729Y-33220683D01*
X36513771Y-33219815D01*
X36492319Y-33202364D01*
X36483113Y-33192986D01*
X36479816Y-33187738D01*
X36378986Y-33086908D01*
X36378613Y-33086528D01*
X36362387Y-33056147D01*
X36345938Y-33026022D01*
X36345980Y-33025426D01*
X36345698Y-33024897D01*
X36348471Y-32990589D01*
X36350922Y-32956330D01*
X36351298Y-32955628D01*
X36351329Y-32955254D01*
X36351904Y-32954500D01*
X36366786Y-32926778D01*
X36411634Y-32865051D01*
X36529579Y-32633572D01*
X36609860Y-32386493D01*
X36632539Y-32243298D01*
X36650500Y-32129902D01*
X36650500Y-31870097D01*
X36628947Y-31734021D01*
X36609860Y-31613507D01*
X36529579Y-31366428D01*
X36529577Y-31366425D01*
X36529577Y-31366423D01*
X36486787Y-31282445D01*
X36411634Y-31134949D01*
X36393709Y-31110278D01*
X36282627Y-30957385D01*
X36259147Y-30891579D01*
X36274973Y-30823525D01*
X36325078Y-30774830D01*
X36382945Y-30760500D01*
X38165853Y-30760500D01*
X38232892Y-30780185D01*
G37*
%TD.AperFunction*%
%TA.AperFunction,NonConductor*%
G36*
X44768143Y-72958175D02*
G01*
X44770814Y-72957514D01*
X44801469Y-72967961D01*
X44832542Y-72977085D01*
X44834343Y-72979164D01*
X44836949Y-72980052D01*
X44857095Y-73005421D01*
X44878297Y-73029889D01*
X44878688Y-73032611D01*
X44880400Y-73034767D01*
X44883631Y-73066987D01*
X44888241Y-73099047D01*
X44887181Y-73102388D01*
X44887372Y-73104288D01*
X44875988Y-73137695D01*
X44861760Y-73165618D01*
X44783909Y-73405216D01*
X44772015Y-73480310D01*
X44742085Y-73543444D01*
X44737223Y-73548591D01*
X43696534Y-74589281D01*
X43635211Y-74622766D01*
X43608853Y-74625600D01*
X40762778Y-74625600D01*
X40695739Y-74605915D01*
X40649984Y-74553111D01*
X40640040Y-74483953D01*
X40652293Y-74445305D01*
X40678239Y-74394383D01*
X40678240Y-74394381D01*
X40678241Y-74394379D01*
X40756090Y-74154785D01*
X40767984Y-74079687D01*
X40797911Y-74016557D01*
X40802757Y-74011426D01*
X41820465Y-72993719D01*
X41881788Y-72960234D01*
X41908146Y-72957400D01*
X44765503Y-72957400D01*
X44768143Y-72958175D01*
G37*
%TD.AperFunction*%
%TA.AperFunction,NonConductor*%
G36*
X33953692Y-69030185D02*
G01*
X33974334Y-69046819D01*
X37776785Y-72849269D01*
X37810270Y-72910592D01*
X37805286Y-72980284D01*
X37799589Y-72993245D01*
X37711760Y-73165616D01*
X37633910Y-73405214D01*
X37611201Y-73548591D01*
X37594500Y-73654038D01*
X37594500Y-73905962D01*
X37611201Y-74011407D01*
X37633910Y-74154785D01*
X37711760Y-74394383D01*
X37737707Y-74445305D01*
X37738215Y-74448010D01*
X37740016Y-74450089D01*
X37744624Y-74482138D01*
X37750603Y-74513974D01*
X37749568Y-74516523D01*
X37749960Y-74519247D01*
X37736506Y-74548705D01*
X37724327Y-74578715D01*
X37722077Y-74580300D01*
X37720935Y-74582803D01*
X37693691Y-74600311D01*
X37667220Y-74618972D01*
X37663763Y-74619544D01*
X37662157Y-74620577D01*
X37627222Y-74625600D01*
X37385266Y-74625600D01*
X37318227Y-74605915D01*
X37297583Y-74589279D01*
X35624309Y-72915928D01*
X35624260Y-72915874D01*
X35550537Y-72842151D01*
X35550532Y-72842147D01*
X35540059Y-72831674D01*
X35471827Y-72763439D01*
X35471787Y-72763402D01*
X35471611Y-72763226D01*
X35471584Y-72763201D01*
X32230502Y-69522182D01*
X32197016Y-69460859D01*
X32202000Y-69391168D01*
X32243871Y-69335234D01*
X32309335Y-69310816D01*
X32318182Y-69310500D01*
X32500961Y-69310500D01*
X32500962Y-69310500D01*
X32749785Y-69271090D01*
X32989379Y-69193241D01*
X33213845Y-69078870D01*
X33275353Y-69034181D01*
X33341158Y-69010702D01*
X33348238Y-69010500D01*
X33886653Y-69010500D01*
X33953692Y-69030185D01*
G37*
%TD.AperFunction*%
%TA.AperFunction,NonConductor*%
G36*
X51318892Y-72977085D02*
G01*
X51339534Y-72993719D01*
X52357223Y-74011407D01*
X52390708Y-74072730D01*
X52392015Y-74079689D01*
X52403909Y-74154782D01*
X52403910Y-74154785D01*
X52481759Y-74394379D01*
X52586686Y-74600311D01*
X52595511Y-74617630D01*
X52608407Y-74686299D01*
X52582131Y-74751040D01*
X52572707Y-74761606D01*
X48042553Y-79291760D01*
X47981230Y-79325245D01*
X47911538Y-79320261D01*
X47855605Y-79278389D01*
X47836941Y-79242398D01*
X47828239Y-79215616D01*
X47786747Y-79134184D01*
X47713870Y-78991155D01*
X47694952Y-78965117D01*
X47565798Y-78787350D01*
X47565794Y-78787345D01*
X47387654Y-78609205D01*
X47387649Y-78609201D01*
X47183848Y-78461132D01*
X47183847Y-78461131D01*
X47183845Y-78461130D01*
X47113747Y-78425413D01*
X46959383Y-78346760D01*
X46719785Y-78268910D01*
X46719779Y-78268909D01*
X46470962Y-78229500D01*
X46219038Y-78229500D01*
X46094626Y-78249205D01*
X45970214Y-78268910D01*
X45730616Y-78346760D01*
X45506151Y-78461132D01*
X45302350Y-78609201D01*
X45302345Y-78609205D01*
X45124205Y-78787345D01*
X45124201Y-78787350D01*
X44976132Y-78991151D01*
X44861760Y-79215616D01*
X44783910Y-79455214D01*
X44744500Y-79704038D01*
X44744500Y-79955961D01*
X44783910Y-80204785D01*
X44861761Y-80444385D01*
X44866357Y-80453404D01*
X44879254Y-80522073D01*
X44852978Y-80586814D01*
X44795872Y-80627071D01*
X44755873Y-80633700D01*
X40784127Y-80633700D01*
X40717088Y-80614015D01*
X40671333Y-80561211D01*
X40661389Y-80492053D01*
X40673643Y-80453404D01*
X40678238Y-80444385D01*
X40678239Y-80444383D01*
X40678241Y-80444379D01*
X40756090Y-80204785D01*
X40795500Y-79955962D01*
X40795500Y-79704038D01*
X40756090Y-79455215D01*
X40678241Y-79215621D01*
X40678239Y-79215618D01*
X40678239Y-79215616D01*
X40636747Y-79134184D01*
X40563870Y-78991155D01*
X40544952Y-78965117D01*
X40415798Y-78787350D01*
X40415794Y-78787345D01*
X40237654Y-78609205D01*
X40237649Y-78609201D01*
X40033848Y-78461132D01*
X40033847Y-78461131D01*
X40033845Y-78461130D01*
X39963747Y-78425413D01*
X39809383Y-78346760D01*
X39569785Y-78268910D01*
X39569779Y-78268909D01*
X39320962Y-78229500D01*
X39069038Y-78229500D01*
X38944626Y-78249205D01*
X38820214Y-78268910D01*
X38580616Y-78346760D01*
X38356151Y-78461132D01*
X38152350Y-78609201D01*
X38152345Y-78609205D01*
X37974205Y-78787345D01*
X37974201Y-78787350D01*
X37826132Y-78991151D01*
X37711760Y-79215616D01*
X37633910Y-79455214D01*
X37594500Y-79704038D01*
X37594500Y-79955961D01*
X37633910Y-80204785D01*
X37711761Y-80444385D01*
X37716357Y-80453404D01*
X37729254Y-80522073D01*
X37702978Y-80586814D01*
X37645872Y-80627071D01*
X37605873Y-80633700D01*
X33164127Y-80633700D01*
X33097088Y-80614015D01*
X33051333Y-80561211D01*
X33041389Y-80492053D01*
X33053643Y-80453404D01*
X33058238Y-80444385D01*
X33058239Y-80444383D01*
X33058241Y-80444379D01*
X33136090Y-80204785D01*
X33175500Y-79955962D01*
X33175500Y-79704038D01*
X33136090Y-79455215D01*
X33058241Y-79215621D01*
X33058239Y-79215618D01*
X33058239Y-79215616D01*
X33016747Y-79134184D01*
X32943870Y-78991155D01*
X32924952Y-78965117D01*
X32795798Y-78787350D01*
X32795794Y-78787345D01*
X32617654Y-78609205D01*
X32617649Y-78609201D01*
X32413848Y-78461132D01*
X32413847Y-78461131D01*
X32413845Y-78461130D01*
X32189379Y-78346759D01*
X32069582Y-78307834D01*
X31949783Y-78268909D01*
X31874689Y-78257015D01*
X31811555Y-78227085D01*
X31806408Y-78222223D01*
X30991266Y-77407081D01*
X30957781Y-77345758D01*
X30962765Y-77276066D01*
X31004637Y-77220133D01*
X31070101Y-77195716D01*
X31078947Y-77195400D01*
X32594251Y-77195400D01*
X32594252Y-77195400D01*
X32796435Y-77163377D01*
X32895129Y-77131309D01*
X32991119Y-77100120D01*
X33082314Y-77053653D01*
X33173511Y-77007187D01*
X33339119Y-76886866D01*
X34540295Y-75685687D01*
X34601618Y-75652203D01*
X34671309Y-75657187D01*
X34715658Y-75685689D01*
X35803224Y-76773305D01*
X35803234Y-76773319D01*
X35875896Y-76845981D01*
X35947958Y-76918046D01*
X35947961Y-76918048D01*
X35947987Y-76918074D01*
X35948036Y-76918115D01*
X35948693Y-76918584D01*
X35984755Y-76944784D01*
X36026839Y-76975359D01*
X36026840Y-76975361D01*
X36026841Y-76975361D01*
X36113563Y-77038371D01*
X36113579Y-77038379D01*
X36113590Y-77038387D01*
X36195376Y-77080059D01*
X36295954Y-77131309D01*
X36295958Y-77131310D01*
X36296164Y-77131415D01*
X36297999Y-77131975D01*
X36405039Y-77166755D01*
X36489460Y-77194186D01*
X36490515Y-77194543D01*
X36490630Y-77194567D01*
X36490636Y-77194569D01*
X36490641Y-77194569D01*
X36490649Y-77194571D01*
X36490666Y-77194577D01*
X36490710Y-77194584D01*
X36491934Y-77194841D01*
X36494087Y-77195118D01*
X36600097Y-77211909D01*
X36692818Y-77226598D01*
X36692835Y-77226598D01*
X36692848Y-77226600D01*
X36692979Y-77226600D01*
X36795169Y-77226600D01*
X36897521Y-77226602D01*
X36897527Y-77226600D01*
X36902227Y-77226601D01*
X36902280Y-77226600D01*
X44301251Y-77226600D01*
X44301252Y-77226600D01*
X44503435Y-77194577D01*
X44600776Y-77162948D01*
X44698119Y-77131320D01*
X44789314Y-77084853D01*
X44880511Y-77038387D01*
X45046119Y-76918066D01*
X46576409Y-75387773D01*
X46637730Y-75354290D01*
X46644649Y-75352989D01*
X46719785Y-75341090D01*
X46959379Y-75263241D01*
X47183845Y-75148870D01*
X47387656Y-75000793D01*
X47565793Y-74822656D01*
X47713870Y-74618845D01*
X47828241Y-74394379D01*
X47906090Y-74154785D01*
X47945500Y-73905962D01*
X47945500Y-73654038D01*
X47906090Y-73405215D01*
X47828241Y-73165621D01*
X47828239Y-73165618D01*
X47828239Y-73165616D01*
X47814012Y-73137695D01*
X47801116Y-73069026D01*
X47827392Y-73004286D01*
X47884498Y-72964028D01*
X47924497Y-72957400D01*
X51251853Y-72957400D01*
X51318892Y-72977085D01*
G37*
%TD.AperFunction*%
M02*
