M48
; DRILL file {KiCad 9.0.4} date 2026-06-10T15:27:53+0200
; FORMAT={-:-/ absolute / metric / decimal}
; #@! TF.CreationDate,2026-06-10T15:27:53+02:00
; #@! TF.GenerationSoftware,Kicad,Pcbnew,9.0.4
; #@! TF.FileFunction,MixedPlating,1,2
FMAT,2
METRIC
; #@! TA.AperFunction,Plated,PTH,ComponentDrill
T1C0.800
; #@! TA.AperFunction,Plated,PTH,ComponentDrill
T2C1.000
%
G90
G05
T1
X31.575Y-73.78
X31.575Y-79.83
X31.975Y-46.38
X31.975Y-48.92
X31.975Y-51.46
X31.975Y-54.0
X31.975Y-60.09
X31.975Y-62.63
X31.975Y-65.17
X31.975Y-67.71
X39.195Y-73.78
X39.195Y-79.83
X39.595Y-46.38
X39.595Y-48.92
X39.595Y-51.46
X39.595Y-54.0
X39.595Y-60.09
X39.595Y-62.63
X39.595Y-65.17
X39.595Y-67.71
X46.345Y-73.78
X46.345Y-79.83
X47.145Y-63.9
X47.545Y-46.38
X47.545Y-48.92
X47.545Y-51.46
X47.545Y-54.0
X53.965Y-73.78
X53.965Y-79.83
X54.765Y-63.9
X55.165Y-46.38
X55.165Y-48.92
X55.165Y-51.46
X55.165Y-54.0
T2
X35.0Y-29.46
X35.0Y-32.0
X35.0Y-34.54
X109.0Y-30.725
X109.0Y-33.265
M30
