%TF.GenerationSoftware,KiCad,Pcbnew,9.0.6*%
%TF.CreationDate,2026-06-10T01:14:48+02:00*%
%TF.ProjectId,feedback_circuit,66656564-6261-4636-9b5f-636972637569,rev?*%
%TF.SameCoordinates,Original*%
%TF.FileFunction,Copper,L2,Bot*%
%TF.FilePolarity,Positive*%
%FSLAX46Y46*%
G04 Gerber Fmt 4.6, Leading zero omitted, Abs format (unit mm)*
G04 Created by KiCad (PCBNEW 9.0.6) date 2026-06-10 01:14:48*
%MOMM*%
%LPD*%
G01*
G04 APERTURE LIST*
G04 Aperture macros list*
%AMRoundRect*
0 Rectangle with rounded corners*
0 $1 Rounding radius*
0 $2 $3 $4 $5 $6 $7 $8 $9 X,Y pos of 4 corners*
0 Add a 4 corners polygon primitive as box body*
4,1,4,$2,$3,$4,$5,$6,$7,$8,$9,$2,$3,0*
0 Add four circle primitives for the rounded corners*
1,1,$1+$1,$2,$3*
1,1,$1+$1,$4,$5*
1,1,$1+$1,$6,$7*
1,1,$1+$1,$8,$9*
0 Add four rect primitives between the rounded corners*
20,1,$1+$1,$2,$3,$4,$5,0*
20,1,$1+$1,$4,$5,$6,$7,0*
20,1,$1+$1,$6,$7,$8,$9,0*
20,1,$1+$1,$8,$9,$2,$3,0*%
G04 Aperture macros list end*
%TA.AperFunction,ComponentPad*%
%ADD10C,1.600000*%
%TD*%
%TA.AperFunction,ComponentPad*%
%ADD11RoundRect,0.250000X-0.950000X-0.550000X0.950000X-0.550000X0.950000X0.550000X-0.950000X0.550000X0*%
%TD*%
%TA.AperFunction,ComponentPad*%
%ADD12O,2.400000X1.600000*%
%TD*%
%TA.AperFunction,ComponentPad*%
%ADD13R,1.700000X1.700000*%
%TD*%
%TA.AperFunction,ComponentPad*%
%ADD14C,1.700000*%
%TD*%
%TA.AperFunction,Conductor*%
%ADD15C,1.000000*%
%TD*%
G04 APERTURE END LIST*
D10*
%TO.P,R4,1*%
%TO.N,/U3_OUT*%
X54075000Y-57785000D03*
%TO.P,R4,2*%
%TO.N,/LED*%
X61695000Y-57785000D03*
%TD*%
%TO.P,R1,1*%
%TO.N,INPUT*%
X54075000Y-49735000D03*
%TO.P,R1,2*%
%TO.N,/IN_P*%
X61695000Y-49735000D03*
%TD*%
D11*
%TO.P,U3,1*%
%TO.N,N/C*%
X73045000Y-34045000D03*
D12*
%TO.P,U3,2*%
%TO.N,/SERVO*%
X73045000Y-36585000D03*
%TO.P,U3,3*%
%TO.N,/IN_P*%
X73045000Y-39125000D03*
%TO.P,U3,4*%
%TO.N,GND*%
X73045000Y-41665000D03*
%TO.P,U3,5*%
%TO.N,N/C*%
X80665000Y-41665000D03*
%TO.P,U3,6*%
%TO.N,/U3_OUT*%
X80665000Y-39125000D03*
%TO.P,U3,7*%
%TO.N,+5V*%
X80665000Y-36585000D03*
%TO.P,U3,8*%
%TO.N,N/C*%
X80665000Y-34045000D03*
%TD*%
D10*
%TO.P,R3,1*%
%TO.N,/SERVO*%
X89615000Y-49735000D03*
%TO.P,R3,2*%
%TO.N,GND*%
X97235000Y-49735000D03*
%TD*%
%TO.P,R5,1*%
%TO.N,/OUT_PD*%
X71845000Y-57785000D03*
%TO.P,R5,2*%
%TO.N,FB_OUT*%
X79465000Y-57785000D03*
%TD*%
D13*
%TO.P,J1,1*%
%TO.N,INPUT*%
X35000000Y-34540000D03*
D14*
%TO.P,J1,2*%
%TO.N,+5V*%
X35000000Y-32000000D03*
%TO.P,J1,3*%
%TO.N,GND*%
X35000000Y-29460000D03*
%TD*%
D11*
%TO.P,U4,1*%
%TO.N,N/C*%
X91615000Y-34045000D03*
D12*
%TO.P,U4,2*%
%TO.N,/OUT_PD*%
X91615000Y-36585000D03*
%TO.P,U4,3*%
%TO.N,GND*%
X91615000Y-39125000D03*
%TO.P,U4,4*%
X91615000Y-41665000D03*
%TO.P,U4,5*%
%TO.N,N/C*%
X99235000Y-41665000D03*
%TO.P,U4,6*%
%TO.N,FB_OUT*%
X99235000Y-39125000D03*
%TO.P,U4,7*%
%TO.N,+5V*%
X99235000Y-36585000D03*
%TO.P,U4,8*%
%TO.N,N/C*%
X99235000Y-34045000D03*
%TD*%
D11*
%TO.P,U1,1*%
%TO.N,/LED*%
X54475000Y-34045000D03*
D12*
%TO.P,U1,2*%
%TO.N,GND*%
X54475000Y-36585000D03*
%TO.P,U1,3*%
%TO.N,/SERVO*%
X54475000Y-39125000D03*
%TO.P,U1,4*%
%TO.N,GND*%
X54475000Y-41665000D03*
%TO.P,U1,5*%
X62095000Y-41665000D03*
%TO.P,U1,6*%
%TO.N,/OUT_PD*%
X62095000Y-39125000D03*
%TO.P,U1,7*%
%TO.N,N/C*%
X62095000Y-36585000D03*
%TO.P,U1,8*%
X62095000Y-34045000D03*
%TD*%
D13*
%TO.P,J2,1*%
%TO.N,FB_OUT*%
X122710000Y-30725000D03*
D14*
%TO.P,J2,2*%
%TO.N,GND*%
X122710000Y-33265000D03*
%TD*%
D10*
%TO.P,R2,1*%
%TO.N,/IN_P*%
X71845000Y-49735000D03*
%TO.P,R2,2*%
%TO.N,GND*%
X79465000Y-49735000D03*
%TD*%
D15*
%TO.N,+5V*%
X80665000Y-36585000D02*
X78163300Y-36585000D01*
X32845000Y-30366800D02*
X34478200Y-32000000D01*
X99235000Y-36585000D02*
X101736700Y-36585000D01*
X34873900Y-26508400D02*
X32845000Y-28537300D01*
X48639400Y-32000000D02*
X50504400Y-30135000D01*
X32845000Y-28537300D02*
X32845000Y-30366800D01*
X101736700Y-33143600D02*
X95101500Y-26508400D01*
X78163300Y-35465400D02*
X78163300Y-36585000D01*
X72832900Y-30135000D02*
X78163300Y-35465400D01*
X101736700Y-36585000D02*
X101736700Y-33143600D01*
X34478200Y-32000000D02*
X35000000Y-32000000D01*
X35000000Y-32000000D02*
X48639400Y-32000000D01*
X50504400Y-30135000D02*
X72832900Y-30135000D01*
X95101500Y-26508400D02*
X34873900Y-26508400D01*
%TO.N,/IN_P*%
X81609100Y-48556400D02*
X81609100Y-50566500D01*
X77755900Y-41297500D02*
X77755900Y-44703200D01*
X77755900Y-44703200D02*
X81609100Y-48556400D01*
X71845000Y-49735000D02*
X61695000Y-49735000D01*
X75583400Y-39125000D02*
X77755900Y-41297500D01*
X80308200Y-51867400D02*
X73977400Y-51867400D01*
X73977400Y-51867400D02*
X71845000Y-49735000D01*
X73045000Y-39125000D02*
X75583400Y-39125000D01*
X81609100Y-50566500D02*
X80308200Y-51867400D01*
%TO.N,/OUT_PD*%
X59593300Y-39125000D02*
X59593300Y-50605900D01*
X62095000Y-39125000D02*
X59593300Y-39125000D01*
X66772400Y-57785000D02*
X71845000Y-57785000D01*
X59593300Y-50605900D02*
X66772400Y-57785000D01*
%TO.N,/SERVO*%
X65901600Y-31943300D02*
X60795600Y-31943300D01*
X70543300Y-36585000D02*
X65901600Y-31943300D01*
X56976700Y-35762200D02*
X56976700Y-39125000D01*
X60795600Y-31943300D02*
X56976700Y-35762200D01*
X54475000Y-39125000D02*
X56976700Y-39125000D01*
X72985300Y-36585000D02*
X73045000Y-36585000D01*
X72985300Y-36585000D02*
X70543300Y-36585000D01*
%TO.N,/U3_OUT*%
X78785600Y-55469300D02*
X74354500Y-59900400D01*
X79320200Y-55469300D02*
X78785600Y-55469300D01*
X83426100Y-51363400D02*
X79320200Y-55469300D01*
X83426100Y-39384400D02*
X83426100Y-51363400D01*
X56190400Y-59900400D02*
X54075000Y-57785000D01*
X83166700Y-39125000D02*
X83426100Y-39384400D01*
X80665000Y-39125000D02*
X83166700Y-39125000D01*
X74354500Y-59900400D02*
X56190400Y-59900400D01*
%TO.N,FB_OUT*%
X108084900Y-39125000D02*
X99235000Y-39125000D01*
X116484900Y-30725000D02*
X108084900Y-39125000D01*
X122710000Y-30725000D02*
X116484900Y-30725000D01*
X96733300Y-39125000D02*
X96733300Y-45614500D01*
X84562800Y-57785000D02*
X79465000Y-57785000D01*
X96733300Y-45614500D02*
X84562800Y-57785000D01*
X99235000Y-39125000D02*
X96733300Y-39125000D01*
%TO.N,GND*%
X91615000Y-39125000D02*
X94116700Y-39125000D01*
X122710000Y-33265000D02*
X106240000Y-49735000D01*
X75546700Y-45816700D02*
X75546700Y-41665000D01*
X73045000Y-41665000D02*
X75546700Y-41665000D01*
X94116700Y-39125000D02*
X94128700Y-39113000D01*
X36142100Y-28317900D02*
X35000000Y-29460000D01*
X51973300Y-41665000D02*
X51973300Y-36585000D01*
X79465000Y-49735000D02*
X75546700Y-45816700D01*
X54475000Y-36585000D02*
X51973300Y-36585000D01*
X94128700Y-39113000D02*
X94128700Y-32845500D01*
X73045000Y-41665000D02*
X62095000Y-41665000D01*
X94128700Y-32845500D02*
X89601100Y-28317900D01*
X106240000Y-49735000D02*
X97235000Y-49735000D01*
X89601100Y-28317900D02*
X36142100Y-28317900D01*
X54475000Y-41665000D02*
X51973300Y-41665000D01*
%TO.N,INPUT*%
X35000000Y-34540000D02*
X38880000Y-34540000D01*
X38880000Y-34540000D02*
X54075000Y-49735000D01*
%TD*%
%TA.AperFunction,NonConductor*%
G36*
X137442539Y-20520185D02*
G01*
X137488294Y-20572989D01*
X137499500Y-20624500D01*
X137499500Y-69375500D01*
X137479815Y-69442539D01*
X137427011Y-69488294D01*
X137375500Y-69499500D01*
X20624500Y-69499500D01*
X20557461Y-69479815D01*
X20511706Y-69427011D01*
X20500500Y-69375500D01*
X20500500Y-28434948D01*
X31544500Y-28434948D01*
X31544500Y-30469151D01*
X31576522Y-30671331D01*
X31576522Y-30671332D01*
X31598210Y-30738080D01*
X31639781Y-30866023D01*
X31642640Y-30871633D01*
X31642641Y-30871634D01*
X31732713Y-31048411D01*
X31853034Y-31214019D01*
X33486231Y-32847215D01*
X33486234Y-32847219D01*
X33585788Y-32946773D01*
X33619272Y-33008094D01*
X33619271Y-33008094D01*
X33619272Y-33008095D01*
X33614288Y-33077787D01*
X33614283Y-33077793D01*
X33585788Y-33122134D01*
X33520183Y-33187739D01*
X33424211Y-33340476D01*
X33364631Y-33510745D01*
X33364630Y-33510750D01*
X33349500Y-33645039D01*
X33349500Y-35434960D01*
X33364630Y-35569249D01*
X33364631Y-35569254D01*
X33424211Y-35739523D01*
X33516994Y-35887185D01*
X33520184Y-35892262D01*
X33647738Y-36019816D01*
X33738080Y-36076582D01*
X33752720Y-36085781D01*
X33800478Y-36115789D01*
X33970745Y-36175368D01*
X33970750Y-36175369D01*
X34061246Y-36185565D01*
X34105040Y-36190499D01*
X34105043Y-36190500D01*
X34105046Y-36190500D01*
X35894957Y-36190500D01*
X35894958Y-36190499D01*
X35962104Y-36182934D01*
X36029249Y-36175369D01*
X36029252Y-36175368D01*
X36029255Y-36175368D01*
X36199522Y-36115789D01*
X36352262Y-36019816D01*
X36479816Y-35892262D01*
X36479818Y-35892257D01*
X36483865Y-35887185D01*
X36541054Y-35847046D01*
X36580810Y-35840500D01*
X38289953Y-35840500D01*
X38356992Y-35860185D01*
X38377634Y-35876819D01*
X52467223Y-49966408D01*
X52500708Y-50027731D01*
X52502015Y-50034689D01*
X52513909Y-50109783D01*
X52513910Y-50109785D01*
X52591759Y-50349379D01*
X52702591Y-50566900D01*
X52706132Y-50573848D01*
X52854201Y-50777649D01*
X52854205Y-50777654D01*
X53032344Y-50955793D01*
X53032350Y-50955798D01*
X53174647Y-51059182D01*
X53236155Y-51103870D01*
X53379184Y-51176747D01*
X53460616Y-51218239D01*
X53460618Y-51218239D01*
X53460621Y-51218241D01*
X53700215Y-51296090D01*
X53949038Y-51335500D01*
X53949039Y-51335500D01*
X54200961Y-51335500D01*
X54200962Y-51335500D01*
X54449785Y-51296090D01*
X54689379Y-51218241D01*
X54913845Y-51103870D01*
X55117656Y-50955793D01*
X55295793Y-50777656D01*
X55443870Y-50573845D01*
X55558241Y-50349379D01*
X55636090Y-50109785D01*
X55675500Y-49860962D01*
X55675500Y-49609038D01*
X55636090Y-49360215D01*
X55558241Y-49120621D01*
X55558239Y-49120618D01*
X55558239Y-49120616D01*
X55516747Y-49039184D01*
X55443870Y-48896155D01*
X55424952Y-48870117D01*
X55295798Y-48692350D01*
X55295794Y-48692345D01*
X55117654Y-48514205D01*
X55117649Y-48514201D01*
X54913848Y-48366132D01*
X54913847Y-48366131D01*
X54913845Y-48366130D01*
X54689379Y-48251759D01*
X54569582Y-48212834D01*
X54449783Y-48173909D01*
X54374689Y-48162015D01*
X54311555Y-48132085D01*
X54306408Y-48127223D01*
X39727221Y-33548036D01*
X39727215Y-33548031D01*
X39695265Y-33524818D01*
X39652599Y-33469488D01*
X39646620Y-33399875D01*
X39679226Y-33338080D01*
X39740064Y-33303723D01*
X39768150Y-33300500D01*
X48741751Y-33300500D01*
X48741752Y-33300500D01*
X48943935Y-33268477D01*
X49041276Y-33236848D01*
X49138619Y-33205220D01*
X49229814Y-33158753D01*
X49321011Y-33112287D01*
X49486619Y-32991966D01*
X51006766Y-31471819D01*
X51068089Y-31438334D01*
X51094447Y-31435500D01*
X59164853Y-31435500D01*
X59231892Y-31455185D01*
X59277647Y-31507989D01*
X59287591Y-31577147D01*
X59258566Y-31640703D01*
X59252534Y-31647181D01*
X56687181Y-34212534D01*
X56625858Y-34246019D01*
X56556166Y-34241035D01*
X56500233Y-34199163D01*
X56475816Y-34133699D01*
X56475500Y-34124853D01*
X56475500Y-33443395D01*
X56474241Y-33430616D01*
X56460300Y-33289066D01*
X56400232Y-33091046D01*
X56302685Y-32908550D01*
X56245661Y-32839066D01*
X56171410Y-32748589D01*
X56028647Y-32631428D01*
X56011450Y-32617315D01*
X55828954Y-32519768D01*
X55630934Y-32459700D01*
X55630932Y-32459699D01*
X55630934Y-32459699D01*
X55511805Y-32447966D01*
X55476608Y-32444500D01*
X53473392Y-32444500D01*
X53435298Y-32448251D01*
X53319067Y-32459699D01*
X53121043Y-32519769D01*
X53042487Y-32561759D01*
X52938550Y-32617315D01*
X52938548Y-32617316D01*
X52938547Y-32617317D01*
X52778589Y-32748589D01*
X52647317Y-32908547D01*
X52549769Y-33091043D01*
X52489699Y-33289067D01*
X52483164Y-33355426D01*
X52474500Y-33443392D01*
X52474500Y-34646608D01*
X52479502Y-34697398D01*
X52489699Y-34800932D01*
X52549769Y-34998958D01*
X52604872Y-35102047D01*
X52619114Y-35170449D01*
X52594114Y-35235693D01*
X52537809Y-35277064D01*
X52495514Y-35284500D01*
X52075652Y-35284500D01*
X51870948Y-35284500D01*
X51846629Y-35288351D01*
X51668765Y-35316522D01*
X51474076Y-35379781D01*
X51291686Y-35472715D01*
X51126086Y-35593028D01*
X50981328Y-35737786D01*
X50861015Y-35903386D01*
X50768081Y-36085776D01*
X50704822Y-36280465D01*
X50672800Y-36482648D01*
X50672800Y-41767351D01*
X50704822Y-41969534D01*
X50768081Y-42164223D01*
X50861015Y-42346613D01*
X50981328Y-42512213D01*
X51126086Y-42656971D01*
X51281049Y-42769556D01*
X51291690Y-42777287D01*
X51407907Y-42836503D01*
X51474076Y-42870218D01*
X51474078Y-42870218D01*
X51474081Y-42870220D01*
X51540504Y-42891802D01*
X51668765Y-42933477D01*
X51769857Y-42949488D01*
X51870948Y-42965500D01*
X52075652Y-42965500D01*
X53101762Y-42965500D01*
X53168801Y-42985185D01*
X53174637Y-42989175D01*
X53236155Y-43033870D01*
X53342206Y-43087905D01*
X53460616Y-43148239D01*
X53460618Y-43148239D01*
X53460621Y-43148241D01*
X53700215Y-43226090D01*
X53949038Y-43265500D01*
X53949039Y-43265500D01*
X55000961Y-43265500D01*
X55000962Y-43265500D01*
X55249785Y-43226090D01*
X55489379Y-43148241D01*
X55713845Y-43033870D01*
X55917656Y-42885793D01*
X56095793Y-42707656D01*
X56243870Y-42503845D01*
X56358241Y-42279379D01*
X56436090Y-42039785D01*
X56475500Y-41790962D01*
X56475500Y-41539038D01*
X56436090Y-41290215D01*
X56358241Y-41050621D01*
X56358239Y-41050618D01*
X56358239Y-41050616D01*
X56316747Y-40969184D01*
X56243870Y-40826155D01*
X56233227Y-40811506D01*
X56095824Y-40622385D01*
X56072344Y-40556579D01*
X56088170Y-40488525D01*
X56138276Y-40439830D01*
X56196142Y-40425500D01*
X57079051Y-40425500D01*
X57079052Y-40425500D01*
X57281234Y-40393477D01*
X57475919Y-40330220D01*
X57658310Y-40237287D01*
X57754206Y-40167615D01*
X57823913Y-40116971D01*
X57823915Y-40116968D01*
X57823919Y-40116966D01*
X57968666Y-39972219D01*
X57968668Y-39972215D01*
X57968671Y-39972213D01*
X58068482Y-39834834D01*
X58123811Y-39792168D01*
X58193425Y-39786189D01*
X58255220Y-39818794D01*
X58289577Y-39879633D01*
X58292800Y-39907719D01*
X58292800Y-50708251D01*
X58324822Y-50910435D01*
X58356451Y-51007775D01*
X58388081Y-51105123D01*
X58429182Y-51185787D01*
X58429184Y-51185790D01*
X58481013Y-51287511D01*
X58601334Y-51453119D01*
X58601335Y-51453120D01*
X58601336Y-51453121D01*
X65536435Y-58388219D01*
X65569920Y-58449542D01*
X65564936Y-58519234D01*
X65523064Y-58575167D01*
X65457600Y-58599584D01*
X65448754Y-58599900D01*
X63278421Y-58599900D01*
X63211382Y-58580215D01*
X63165627Y-58527411D01*
X63155683Y-58458253D01*
X63167935Y-58419607D01*
X63171992Y-58411641D01*
X63178241Y-58399379D01*
X63256090Y-58159785D01*
X63295500Y-57910962D01*
X63295500Y-57659038D01*
X63256090Y-57410215D01*
X63178241Y-57170621D01*
X63178239Y-57170618D01*
X63178239Y-57170616D01*
X63136747Y-57089184D01*
X63063870Y-56946155D01*
X63044952Y-56920117D01*
X62915798Y-56742350D01*
X62915794Y-56742345D01*
X62737654Y-56564205D01*
X62737649Y-56564201D01*
X62533848Y-56416132D01*
X62533847Y-56416131D01*
X62533845Y-56416130D01*
X62463747Y-56380413D01*
X62309383Y-56301760D01*
X62069785Y-56223910D01*
X61820962Y-56184500D01*
X61569038Y-56184500D01*
X61444626Y-56204205D01*
X61320214Y-56223910D01*
X61080616Y-56301760D01*
X60856151Y-56416132D01*
X60652350Y-56564201D01*
X60652345Y-56564205D01*
X60474205Y-56742345D01*
X60474201Y-56742350D01*
X60326132Y-56946151D01*
X60211760Y-57170616D01*
X60133910Y-57410214D01*
X60133910Y-57410215D01*
X60094500Y-57659038D01*
X60094500Y-57910962D01*
X60133910Y-58159785D01*
X60211759Y-58399379D01*
X60211760Y-58399382D01*
X60211761Y-58399383D01*
X60222065Y-58419607D01*
X60234960Y-58488276D01*
X60208682Y-58553016D01*
X60151575Y-58593272D01*
X60111579Y-58599900D01*
X56780447Y-58599900D01*
X56713408Y-58580215D01*
X56692766Y-58563581D01*
X55682775Y-57553590D01*
X55649290Y-57492267D01*
X55647983Y-57485306D01*
X55636090Y-57410214D01*
X55558239Y-57170616D01*
X55516747Y-57089184D01*
X55443870Y-56946155D01*
X55424952Y-56920117D01*
X55295798Y-56742350D01*
X55295794Y-56742345D01*
X55117654Y-56564205D01*
X55117649Y-56564201D01*
X54913848Y-56416132D01*
X54913847Y-56416131D01*
X54913845Y-56416130D01*
X54843747Y-56380413D01*
X54689383Y-56301760D01*
X54449785Y-56223910D01*
X54200962Y-56184500D01*
X53949038Y-56184500D01*
X53824626Y-56204205D01*
X53700214Y-56223910D01*
X53460616Y-56301760D01*
X53236151Y-56416132D01*
X53032350Y-56564201D01*
X53032345Y-56564205D01*
X52854205Y-56742345D01*
X52854201Y-56742350D01*
X52706132Y-56946151D01*
X52591760Y-57170616D01*
X52513910Y-57410214D01*
X52474500Y-57659038D01*
X52474500Y-57910961D01*
X52513910Y-58159785D01*
X52591760Y-58399383D01*
X52637054Y-58488276D01*
X52693929Y-58599900D01*
X52706132Y-58623848D01*
X52854201Y-58827649D01*
X52854205Y-58827654D01*
X53032344Y-59005793D01*
X53032350Y-59005798D01*
X53174647Y-59109182D01*
X53236155Y-59153870D01*
X53379184Y-59226747D01*
X53460616Y-59268239D01*
X53460618Y-59268239D01*
X53460621Y-59268241D01*
X53589049Y-59309970D01*
X53700214Y-59346090D01*
X53739439Y-59352302D01*
X53775306Y-59357983D01*
X53838441Y-59387912D01*
X53843590Y-59392775D01*
X55343186Y-60892371D01*
X55498149Y-61004956D01*
X55508790Y-61012687D01*
X55599985Y-61059153D01*
X55691176Y-61105618D01*
X55691178Y-61105618D01*
X55691181Y-61105620D01*
X55788522Y-61137248D01*
X55885865Y-61168877D01*
X55986957Y-61184888D01*
X56088048Y-61200900D01*
X56088049Y-61200900D01*
X74456851Y-61200900D01*
X74456852Y-61200900D01*
X74659035Y-61168877D01*
X74756376Y-61137248D01*
X74853719Y-61105620D01*
X74944914Y-61059153D01*
X75036111Y-61012687D01*
X75201719Y-60892366D01*
X77768281Y-58325801D01*
X77829602Y-58292318D01*
X77899293Y-58297302D01*
X77955227Y-58339174D01*
X77973890Y-58375162D01*
X77981760Y-58399382D01*
X78027054Y-58488276D01*
X78083929Y-58599900D01*
X78096132Y-58623848D01*
X78244201Y-58827649D01*
X78244205Y-58827654D01*
X78422344Y-59005793D01*
X78422350Y-59005798D01*
X78564647Y-59109182D01*
X78626155Y-59153870D01*
X78769184Y-59226747D01*
X78850616Y-59268239D01*
X78850618Y-59268239D01*
X78850621Y-59268241D01*
X79090215Y-59346090D01*
X79339038Y-59385500D01*
X79339039Y-59385500D01*
X79590961Y-59385500D01*
X79590962Y-59385500D01*
X79839785Y-59346090D01*
X80079379Y-59268241D01*
X80303845Y-59153870D01*
X80365353Y-59109181D01*
X80431158Y-59085702D01*
X80438238Y-59085500D01*
X84665151Y-59085500D01*
X84665152Y-59085500D01*
X84867335Y-59053477D01*
X85014090Y-59005793D01*
X85062019Y-58990220D01*
X85153214Y-58943753D01*
X85244411Y-58897287D01*
X85410019Y-58776966D01*
X97725266Y-46461719D01*
X97845587Y-46296111D01*
X97934690Y-46121235D01*
X97938520Y-46113719D01*
X98001777Y-45919034D01*
X98018178Y-45815487D01*
X98021302Y-45795760D01*
X98033800Y-45716856D01*
X98033800Y-43255400D01*
X98053485Y-43188361D01*
X98106289Y-43142606D01*
X98175447Y-43132662D01*
X98214098Y-43144917D01*
X98220621Y-43148241D01*
X98460215Y-43226090D01*
X98709038Y-43265500D01*
X98709039Y-43265500D01*
X99760961Y-43265500D01*
X99760962Y-43265500D01*
X100009785Y-43226090D01*
X100249379Y-43148241D01*
X100473845Y-43033870D01*
X100677656Y-42885793D01*
X100855793Y-42707656D01*
X101003870Y-42503845D01*
X101118241Y-42279379D01*
X101196090Y-42039785D01*
X101235500Y-41790962D01*
X101235500Y-41539038D01*
X101196090Y-41290215D01*
X101118241Y-41050621D01*
X101118239Y-41050618D01*
X101118239Y-41050616D01*
X101076747Y-40969184D01*
X101003870Y-40826155D01*
X100993227Y-40811506D01*
X100855824Y-40622385D01*
X100832344Y-40556579D01*
X100848170Y-40488525D01*
X100898276Y-40439830D01*
X100956142Y-40425500D01*
X108187251Y-40425500D01*
X108187252Y-40425500D01*
X108389435Y-40393477D01*
X108536190Y-40345793D01*
X108584119Y-40330220D01*
X108675314Y-40283753D01*
X108766511Y-40237287D01*
X108932119Y-40116966D01*
X116987266Y-32061819D01*
X117048589Y-32028334D01*
X117074947Y-32025500D01*
X121129190Y-32025500D01*
X121159158Y-32034299D01*
X121189624Y-32041224D01*
X121193270Y-32044316D01*
X121196229Y-32045185D01*
X121217681Y-32062636D01*
X121226886Y-32072013D01*
X121230184Y-32077262D01*
X121331012Y-32178090D01*
X121331386Y-32178471D01*
X121347611Y-32208851D01*
X121364061Y-32238977D01*
X121364018Y-32239572D01*
X121364301Y-32240102D01*
X121361527Y-32274409D01*
X121359077Y-32308669D01*
X121358700Y-32309370D01*
X121358670Y-32309745D01*
X121358094Y-32310498D01*
X121343214Y-32338219D01*
X121298367Y-32399946D01*
X121180422Y-32631423D01*
X121100139Y-32878506D01*
X121076865Y-33025457D01*
X121046936Y-33088592D01*
X121042073Y-33093740D01*
X105737634Y-48398181D01*
X105676311Y-48431666D01*
X105649953Y-48434500D01*
X98208238Y-48434500D01*
X98141199Y-48414815D01*
X98135362Y-48410824D01*
X98073845Y-48366130D01*
X97849383Y-48251760D01*
X97609785Y-48173910D01*
X97609779Y-48173909D01*
X97360962Y-48134500D01*
X97109038Y-48134500D01*
X96984626Y-48154205D01*
X96860214Y-48173910D01*
X96620616Y-48251760D01*
X96396151Y-48366132D01*
X96192350Y-48514201D01*
X96192345Y-48514205D01*
X96014205Y-48692345D01*
X96014201Y-48692350D01*
X95866132Y-48896151D01*
X95751760Y-49120616D01*
X95673910Y-49360214D01*
X95634500Y-49609038D01*
X95634500Y-49860961D01*
X95673910Y-50109785D01*
X95751760Y-50349383D01*
X95830312Y-50503548D01*
X95862591Y-50566900D01*
X95866132Y-50573848D01*
X96014201Y-50777649D01*
X96014205Y-50777654D01*
X96192344Y-50955793D01*
X96192350Y-50955798D01*
X96334647Y-51059182D01*
X96396155Y-51103870D01*
X96539184Y-51176747D01*
X96620616Y-51218239D01*
X96620618Y-51218239D01*
X96620621Y-51218241D01*
X96860215Y-51296090D01*
X97109038Y-51335500D01*
X97109039Y-51335500D01*
X97360961Y-51335500D01*
X97360962Y-51335500D01*
X97609785Y-51296090D01*
X97849379Y-51218241D01*
X98073845Y-51103870D01*
X98135353Y-51059181D01*
X98201158Y-51035702D01*
X98208238Y-51035500D01*
X106342351Y-51035500D01*
X106342352Y-51035500D01*
X106544535Y-51003477D01*
X106691290Y-50955793D01*
X106739219Y-50940220D01*
X106830414Y-50893753D01*
X106921611Y-50847287D01*
X107087219Y-50726966D01*
X122881259Y-34932924D01*
X122942580Y-34899441D01*
X122949541Y-34898134D01*
X123042403Y-34883426D01*
X123096493Y-34874860D01*
X123343572Y-34794579D01*
X123575051Y-34676634D01*
X123785229Y-34523931D01*
X123968931Y-34340229D01*
X124121634Y-34130051D01*
X124239579Y-33898572D01*
X124319860Y-33651493D01*
X124352819Y-33443395D01*
X124360500Y-33394902D01*
X124360500Y-33135097D01*
X124337829Y-32991963D01*
X124319860Y-32878507D01*
X124239579Y-32631428D01*
X124239577Y-32631425D01*
X124239577Y-32631423D01*
X124153245Y-32461989D01*
X124121634Y-32399949D01*
X124076785Y-32338219D01*
X124053306Y-32272416D01*
X124069131Y-32204362D01*
X124089423Y-32177655D01*
X124119173Y-32147905D01*
X124189816Y-32077262D01*
X124285789Y-31924522D01*
X124345368Y-31754255D01*
X124360500Y-31619954D01*
X124360500Y-29830046D01*
X124349570Y-29733036D01*
X124345369Y-29695750D01*
X124345368Y-29695745D01*
X124285788Y-29525476D01*
X124189815Y-29372737D01*
X124062262Y-29245184D01*
X123909523Y-29149211D01*
X123739254Y-29089631D01*
X123739249Y-29089630D01*
X123604960Y-29074500D01*
X123604954Y-29074500D01*
X121815046Y-29074500D01*
X121815039Y-29074500D01*
X121680750Y-29089630D01*
X121680745Y-29089631D01*
X121510476Y-29149211D01*
X121357737Y-29245184D01*
X121230183Y-29372738D01*
X121226135Y-29377815D01*
X121168946Y-29417954D01*
X121129190Y-29424500D01*
X116587252Y-29424500D01*
X116382548Y-29424500D01*
X116315153Y-29435174D01*
X116180363Y-29456523D01*
X116083023Y-29488150D01*
X116083023Y-29488151D01*
X116032385Y-29504604D01*
X115985677Y-29519781D01*
X115902129Y-29562352D01*
X115803287Y-29612714D01*
X115803284Y-29612716D01*
X115637678Y-29733036D01*
X107582534Y-37788181D01*
X107521211Y-37821666D01*
X107494853Y-37824500D01*
X102624851Y-37824500D01*
X102557812Y-37804815D01*
X102512057Y-37752011D01*
X102502113Y-37682853D01*
X102531138Y-37619297D01*
X102551966Y-37600182D01*
X102583913Y-37576971D01*
X102583915Y-37576968D01*
X102583919Y-37576966D01*
X102728666Y-37432219D01*
X102728668Y-37432215D01*
X102728671Y-37432213D01*
X102781432Y-37359590D01*
X102848987Y-37266610D01*
X102941920Y-37084219D01*
X103005177Y-36889534D01*
X103037200Y-36687352D01*
X103037200Y-33041248D01*
X103005177Y-32839066D01*
X103000348Y-32824205D01*
X102974011Y-32743148D01*
X102941920Y-32644381D01*
X102941918Y-32644378D01*
X102941918Y-32644376D01*
X102889227Y-32540965D01*
X102848986Y-32461988D01*
X102764916Y-32346276D01*
X102734589Y-32304534D01*
X102728666Y-32296381D01*
X102583919Y-32151634D01*
X102583915Y-32151631D01*
X95948719Y-25516434D01*
X95783111Y-25396113D01*
X95691914Y-25349646D01*
X95691912Y-25349645D01*
X95600723Y-25303181D01*
X95554015Y-25288004D01*
X95503376Y-25271551D01*
X95479503Y-25263794D01*
X95406035Y-25239922D01*
X95231495Y-25212278D01*
X95203852Y-25207900D01*
X34976252Y-25207900D01*
X34771548Y-25207900D01*
X34704153Y-25218574D01*
X34569363Y-25239923D01*
X34472023Y-25271550D01*
X34472023Y-25271551D01*
X34419252Y-25288697D01*
X34374674Y-25303182D01*
X34283484Y-25349645D01*
X34283485Y-25349646D01*
X34192288Y-25396113D01*
X34026678Y-25516436D01*
X31853036Y-27690078D01*
X31732716Y-27855684D01*
X31732714Y-27855687D01*
X31695058Y-27929591D01*
X31695035Y-27929636D01*
X31694636Y-27930421D01*
X31639780Y-28038081D01*
X31639780Y-28038082D01*
X31635565Y-28051052D01*
X31635561Y-28051062D01*
X31589924Y-28191522D01*
X31576523Y-28232764D01*
X31576522Y-28232769D01*
X31544500Y-28434948D01*
X20500500Y-28434948D01*
X20500500Y-20624500D01*
X20520185Y-20557461D01*
X20572989Y-20511706D01*
X20624500Y-20500500D01*
X137375500Y-20500500D01*
X137442539Y-20520185D01*
G37*
%TD.AperFunction*%
%TA.AperFunction,NonConductor*%
G36*
X48949492Y-29638085D02*
G01*
X48995247Y-29690889D01*
X49005191Y-29760047D01*
X48976166Y-29823603D01*
X48970134Y-29830081D01*
X48137034Y-30663181D01*
X48075711Y-30696666D01*
X48049353Y-30699500D01*
X36382945Y-30699500D01*
X36315906Y-30679815D01*
X36270151Y-30627011D01*
X36260207Y-30557853D01*
X36282627Y-30502615D01*
X36336145Y-30428952D01*
X36411634Y-30325051D01*
X36529579Y-30093572D01*
X36609860Y-29846493D01*
X36619938Y-29782855D01*
X36629419Y-29723002D01*
X36659348Y-29659867D01*
X36718660Y-29622936D01*
X36751892Y-29618400D01*
X48882453Y-29618400D01*
X48949492Y-29638085D01*
G37*
%TD.AperFunction*%
%TA.AperFunction,NonConductor*%
G36*
X72309892Y-31455185D02*
G01*
X72330534Y-31471819D01*
X73091534Y-32232819D01*
X73125019Y-32294142D01*
X73120035Y-32363834D01*
X73078163Y-32419767D01*
X73012699Y-32444184D01*
X73003853Y-32444500D01*
X72043392Y-32444500D01*
X72005298Y-32448251D01*
X71889067Y-32459699D01*
X71691043Y-32519769D01*
X71612487Y-32561759D01*
X71508550Y-32617315D01*
X71508548Y-32617316D01*
X71508547Y-32617317D01*
X71348589Y-32748589D01*
X71217317Y-32908547D01*
X71119769Y-33091043D01*
X71059699Y-33289067D01*
X71053164Y-33355426D01*
X71044500Y-33443392D01*
X71044500Y-34646608D01*
X71049502Y-34697398D01*
X71059699Y-34800932D01*
X71116856Y-34989353D01*
X71117479Y-35059220D01*
X71080231Y-35118333D01*
X71016936Y-35147924D01*
X70947692Y-35138597D01*
X70910514Y-35113029D01*
X67444666Y-31647181D01*
X67411181Y-31585858D01*
X67416165Y-31516166D01*
X67458037Y-31460233D01*
X67523501Y-31435816D01*
X67532347Y-31435500D01*
X72242853Y-31435500D01*
X72309892Y-31455185D01*
G37*
%TD.AperFunction*%
%TA.AperFunction,NonConductor*%
G36*
X94578492Y-27828585D02*
G01*
X94599134Y-27845219D01*
X96847489Y-30093574D01*
X98986735Y-32232819D01*
X99020220Y-32294142D01*
X99015236Y-32363834D01*
X98973364Y-32419767D01*
X98907900Y-32444184D01*
X98899054Y-32444500D01*
X98709038Y-32444500D01*
X98613076Y-32459699D01*
X98460214Y-32483910D01*
X98220616Y-32561760D01*
X97996151Y-32676132D01*
X97792350Y-32824201D01*
X97792345Y-32824205D01*
X97614205Y-33002345D01*
X97614201Y-33002350D01*
X97466132Y-33206151D01*
X97351760Y-33430616D01*
X97347609Y-33443392D01*
X97273910Y-33670215D01*
X97234500Y-33919038D01*
X97234500Y-34170962D01*
X97261310Y-34340231D01*
X97273910Y-34419785D01*
X97351760Y-34659383D01*
X97420646Y-34794577D01*
X97461551Y-34874859D01*
X97466132Y-34883848D01*
X97614201Y-35087649D01*
X97614205Y-35087654D01*
X97753870Y-35227319D01*
X97787355Y-35288642D01*
X97782371Y-35358334D01*
X97753870Y-35402681D01*
X97614205Y-35542345D01*
X97614201Y-35542350D01*
X97466132Y-35746151D01*
X97351760Y-35970616D01*
X97273910Y-36210214D01*
X97234500Y-36459038D01*
X97234500Y-36710961D01*
X97273910Y-36959785D01*
X97351760Y-37199383D01*
X97466132Y-37423848D01*
X97614176Y-37627615D01*
X97637656Y-37693421D01*
X97621830Y-37761475D01*
X97571724Y-37810170D01*
X97513858Y-37824500D01*
X96835652Y-37824500D01*
X96630948Y-37824500D01*
X96606629Y-37828351D01*
X96428765Y-37856522D01*
X96234076Y-37919781D01*
X96051686Y-38012715D01*
X95886086Y-38133028D01*
X95741332Y-38277782D01*
X95741328Y-38277787D01*
X95653518Y-38398649D01*
X95598189Y-38441315D01*
X95528575Y-38447294D01*
X95466780Y-38414689D01*
X95432423Y-38353850D01*
X95429200Y-38325764D01*
X95429200Y-32743148D01*
X95409270Y-32617315D01*
X95397177Y-32540965D01*
X95370772Y-32459699D01*
X95351358Y-32399949D01*
X95333920Y-32346281D01*
X95333918Y-32346278D01*
X95333918Y-32346276D01*
X95254174Y-32189771D01*
X95254174Y-32189770D01*
X95240989Y-32163893D01*
X95240986Y-32163887D01*
X95120668Y-31998284D01*
X95120663Y-31998278D01*
X91142966Y-28020581D01*
X91109481Y-27959258D01*
X91114465Y-27889566D01*
X91156337Y-27833633D01*
X91221801Y-27809216D01*
X91230647Y-27808900D01*
X94511453Y-27808900D01*
X94578492Y-27828585D01*
G37*
%TD.AperFunction*%
%TA.AperFunction,NonConductor*%
G36*
X60127823Y-34552774D02*
G01*
X60183756Y-34594646D01*
X60202419Y-34630635D01*
X60211759Y-34659380D01*
X60271166Y-34775973D01*
X60321551Y-34874859D01*
X60326132Y-34883848D01*
X60474201Y-35087649D01*
X60474205Y-35087654D01*
X60613870Y-35227319D01*
X60647355Y-35288642D01*
X60642371Y-35358334D01*
X60613870Y-35402681D01*
X60474205Y-35542345D01*
X60474201Y-35542350D01*
X60326132Y-35746151D01*
X60211760Y-35970616D01*
X60133910Y-36210214D01*
X60094500Y-36459038D01*
X60094500Y-36710961D01*
X60133910Y-36959785D01*
X60211760Y-37199383D01*
X60326132Y-37423848D01*
X60474176Y-37627615D01*
X60497656Y-37693421D01*
X60481830Y-37761475D01*
X60431724Y-37810170D01*
X60373858Y-37824500D01*
X59695652Y-37824500D01*
X59490948Y-37824500D01*
X59466629Y-37828351D01*
X59288765Y-37856522D01*
X59094076Y-37919781D01*
X58911686Y-38012715D01*
X58746086Y-38133028D01*
X58601332Y-38277782D01*
X58601328Y-38277787D01*
X58501518Y-38415165D01*
X58446188Y-38457831D01*
X58376575Y-38463810D01*
X58314780Y-38431204D01*
X58280423Y-38370366D01*
X58277200Y-38342280D01*
X58277200Y-36352246D01*
X58296885Y-36285207D01*
X58313514Y-36264570D01*
X59996810Y-34581273D01*
X60058131Y-34547790D01*
X60127823Y-34552774D01*
G37*
%TD.AperFunction*%
%TA.AperFunction,NonConductor*%
G36*
X65378592Y-33263485D02*
G01*
X65399234Y-33280119D01*
X69696081Y-37576966D01*
X69861689Y-37697287D01*
X69952885Y-37743753D01*
X70044081Y-37790220D01*
X70092010Y-37805793D01*
X70238765Y-37853477D01*
X70440948Y-37885500D01*
X70645652Y-37885500D01*
X71323858Y-37885500D01*
X71390897Y-37905185D01*
X71436652Y-37957989D01*
X71446596Y-38027147D01*
X71424176Y-38082385D01*
X71276132Y-38286151D01*
X71161760Y-38510616D01*
X71083910Y-38750214D01*
X71044500Y-38999038D01*
X71044500Y-39250961D01*
X71083910Y-39499785D01*
X71161760Y-39739383D01*
X71233222Y-39879633D01*
X71274282Y-39960219D01*
X71276132Y-39963848D01*
X71424176Y-40167615D01*
X71447656Y-40233421D01*
X71431830Y-40301475D01*
X71381724Y-40350170D01*
X71323858Y-40364500D01*
X63816142Y-40364500D01*
X63749103Y-40344815D01*
X63703348Y-40292011D01*
X63693404Y-40222853D01*
X63715824Y-40167615D01*
X63808039Y-40040690D01*
X63863870Y-39963845D01*
X63978241Y-39739379D01*
X64056090Y-39499785D01*
X64095500Y-39250962D01*
X64095500Y-38999038D01*
X64056090Y-38750215D01*
X63978241Y-38510621D01*
X63978239Y-38510618D01*
X63978239Y-38510616D01*
X63921188Y-38398649D01*
X63863870Y-38286155D01*
X63752623Y-38133036D01*
X63715798Y-38082350D01*
X63715794Y-38082345D01*
X63576130Y-37942681D01*
X63542645Y-37881358D01*
X63547629Y-37811666D01*
X63576130Y-37767319D01*
X63601237Y-37742212D01*
X63715793Y-37627656D01*
X63863870Y-37423845D01*
X63978241Y-37199379D01*
X64056090Y-36959785D01*
X64095500Y-36710962D01*
X64095500Y-36459038D01*
X64056090Y-36210215D01*
X63978241Y-35970621D01*
X63978239Y-35970618D01*
X63978239Y-35970616D01*
X63935728Y-35887185D01*
X63863870Y-35746155D01*
X63844952Y-35720117D01*
X63715798Y-35542350D01*
X63715794Y-35542345D01*
X63576130Y-35402681D01*
X63542645Y-35341358D01*
X63547629Y-35271666D01*
X63576130Y-35227319D01*
X63633000Y-35170449D01*
X63715793Y-35087656D01*
X63863870Y-34883845D01*
X63978241Y-34659379D01*
X64056090Y-34419785D01*
X64095500Y-34170962D01*
X64095500Y-33919038D01*
X64056090Y-33670215D01*
X63978241Y-33430621D01*
X63978239Y-33430618D01*
X63978239Y-33430616D01*
X63974916Y-33424095D01*
X63962020Y-33355426D01*
X63988296Y-33290685D01*
X64045403Y-33250428D01*
X64085401Y-33243800D01*
X65311553Y-33243800D01*
X65378592Y-33263485D01*
G37*
%TD.AperFunction*%
%TA.AperFunction,NonConductor*%
G36*
X75250703Y-34392434D02*
G01*
X75257181Y-34398466D01*
X76826481Y-35967766D01*
X76859966Y-36029089D01*
X76862800Y-36055447D01*
X76862800Y-36687351D01*
X76894822Y-36889534D01*
X76958081Y-37084223D01*
X77051015Y-37266613D01*
X77171328Y-37432213D01*
X77316086Y-37576971D01*
X77461823Y-37682853D01*
X77481690Y-37697287D01*
X77572885Y-37743753D01*
X77664076Y-37790218D01*
X77664078Y-37790218D01*
X77664081Y-37790220D01*
X77709000Y-37804815D01*
X77858765Y-37853477D01*
X77877997Y-37856523D01*
X78060948Y-37885500D01*
X78943858Y-37885500D01*
X79010897Y-37905185D01*
X79056652Y-37957989D01*
X79066596Y-38027147D01*
X79044176Y-38082385D01*
X78896132Y-38286151D01*
X78781760Y-38510616D01*
X78703910Y-38750214D01*
X78664500Y-38999038D01*
X78664500Y-39250961D01*
X78703910Y-39499785D01*
X78781760Y-39739383D01*
X78853222Y-39879633D01*
X78894282Y-39960219D01*
X78896132Y-39963848D01*
X79044201Y-40167649D01*
X79044205Y-40167654D01*
X79183870Y-40307319D01*
X79188208Y-40315264D01*
X79195456Y-40320690D01*
X79204690Y-40345449D01*
X79217355Y-40368642D01*
X79216709Y-40377671D01*
X79219873Y-40386154D01*
X79214256Y-40411974D01*
X79212371Y-40438334D01*
X79206552Y-40447388D01*
X79205021Y-40454427D01*
X79183872Y-40482678D01*
X79109972Y-40556579D01*
X79047635Y-40618916D01*
X78986312Y-40652400D01*
X78916620Y-40647416D01*
X78860687Y-40605544D01*
X78859636Y-40604119D01*
X78747868Y-40450284D01*
X78747863Y-40450278D01*
X76430621Y-38133036D01*
X76430619Y-38133034D01*
X76265011Y-38012713D01*
X76149524Y-37953870D01*
X76082619Y-37919780D01*
X75977116Y-37885500D01*
X75964368Y-37881358D01*
X75887932Y-37856522D01*
X75711903Y-37828642D01*
X75685752Y-37824500D01*
X75685751Y-37824500D01*
X74766142Y-37824500D01*
X74699103Y-37804815D01*
X74653348Y-37752011D01*
X74643404Y-37682853D01*
X74665824Y-37627615D01*
X74754103Y-37506106D01*
X74813870Y-37423845D01*
X74928241Y-37199379D01*
X75006090Y-36959785D01*
X75045500Y-36710962D01*
X75045500Y-36459038D01*
X75006090Y-36210215D01*
X74928241Y-35970621D01*
X74928239Y-35970618D01*
X74928239Y-35970616D01*
X74885728Y-35887185D01*
X74813870Y-35746155D01*
X74671296Y-35549918D01*
X74647816Y-35484112D01*
X74663641Y-35416058D01*
X74692948Y-35381181D01*
X74741410Y-35341410D01*
X74872685Y-35181450D01*
X74970232Y-34998954D01*
X75030300Y-34800934D01*
X75045500Y-34646608D01*
X75045500Y-34486147D01*
X75065185Y-34419108D01*
X75117989Y-34373353D01*
X75187147Y-34363409D01*
X75250703Y-34392434D01*
G37*
%TD.AperFunction*%
%TA.AperFunction,NonConductor*%
G36*
X79211168Y-42891178D02*
G01*
X79222070Y-42891802D01*
X79253285Y-42908273D01*
X79299090Y-42941552D01*
X79426155Y-43033870D01*
X79569184Y-43106747D01*
X79650616Y-43148239D01*
X79650618Y-43148239D01*
X79650621Y-43148241D01*
X79890215Y-43226090D01*
X80139038Y-43265500D01*
X80139039Y-43265500D01*
X81190961Y-43265500D01*
X81190962Y-43265500D01*
X81439785Y-43226090D01*
X81679379Y-43148241D01*
X81903845Y-43033870D01*
X81928714Y-43015801D01*
X81994519Y-42992321D01*
X82062573Y-43008146D01*
X82111269Y-43058251D01*
X82125600Y-43116119D01*
X82125600Y-46934353D01*
X82105915Y-47001392D01*
X82053111Y-47047147D01*
X81983953Y-47057091D01*
X81920397Y-47028066D01*
X81913919Y-47022034D01*
X79092719Y-44200834D01*
X79059234Y-44139511D01*
X79056400Y-44113153D01*
X79056400Y-43008591D01*
X79059947Y-42996510D01*
X79058870Y-42983966D01*
X79069604Y-42963621D01*
X79076085Y-42941552D01*
X79085600Y-42933307D01*
X79091476Y-42922171D01*
X79111506Y-42910859D01*
X79128889Y-42895797D01*
X79141350Y-42894005D01*
X79152315Y-42887813D01*
X79175281Y-42889126D01*
X79198047Y-42885853D01*
X79211168Y-42891178D01*
G37*
%TD.AperFunction*%
%TA.AperFunction,NonConductor*%
G36*
X71738801Y-42985185D02*
G01*
X71744637Y-42989175D01*
X71806155Y-43033870D01*
X71912206Y-43087905D01*
X72030616Y-43148239D01*
X72030618Y-43148239D01*
X72030621Y-43148241D01*
X72270215Y-43226090D01*
X72519038Y-43265500D01*
X72519039Y-43265500D01*
X73570961Y-43265500D01*
X73570962Y-43265500D01*
X73819785Y-43226090D01*
X74059379Y-43148241D01*
X74065899Y-43144918D01*
X74134565Y-43132018D01*
X74199308Y-43158290D01*
X74239569Y-43215393D01*
X74246200Y-43255400D01*
X74246200Y-45919057D01*
X74277031Y-46113713D01*
X74278221Y-46121228D01*
X74278224Y-46121240D01*
X74324438Y-46263469D01*
X74341480Y-46315919D01*
X74387946Y-46407114D01*
X74434413Y-46498311D01*
X74554734Y-46663919D01*
X74554736Y-46663921D01*
X77857223Y-49966408D01*
X77890708Y-50027731D01*
X77892015Y-50034689D01*
X77903909Y-50109783D01*
X77981761Y-50349384D01*
X78000726Y-50386606D01*
X78013622Y-50455275D01*
X77987345Y-50520016D01*
X77930238Y-50560272D01*
X77890241Y-50566900D01*
X74567447Y-50566900D01*
X74500408Y-50547215D01*
X74479766Y-50530581D01*
X73452775Y-49503590D01*
X73419290Y-49442267D01*
X73417983Y-49435306D01*
X73406090Y-49360214D01*
X73369970Y-49249049D01*
X73328241Y-49120621D01*
X73328239Y-49120618D01*
X73328239Y-49120616D01*
X73286747Y-49039184D01*
X73213870Y-48896155D01*
X73194952Y-48870117D01*
X73065798Y-48692350D01*
X73065794Y-48692345D01*
X72887654Y-48514205D01*
X72887649Y-48514201D01*
X72683848Y-48366132D01*
X72683847Y-48366131D01*
X72683845Y-48366130D01*
X72613747Y-48330413D01*
X72459383Y-48251760D01*
X72219785Y-48173910D01*
X72219779Y-48173909D01*
X71970962Y-48134500D01*
X71719038Y-48134500D01*
X71594626Y-48154205D01*
X71470214Y-48173910D01*
X71230616Y-48251760D01*
X71006154Y-48366130D01*
X70967801Y-48393995D01*
X70944646Y-48410818D01*
X70878842Y-48434298D01*
X70871762Y-48434500D01*
X62668238Y-48434500D01*
X62601199Y-48414815D01*
X62595362Y-48410824D01*
X62533845Y-48366130D01*
X62309383Y-48251760D01*
X62069785Y-48173910D01*
X62069779Y-48173909D01*
X61820962Y-48134500D01*
X61569038Y-48134500D01*
X61505282Y-48144598D01*
X61320213Y-48173910D01*
X61320210Y-48173910D01*
X61080621Y-48251758D01*
X61074087Y-48255087D01*
X61005416Y-48267978D01*
X60940678Y-48241697D01*
X60900425Y-48184588D01*
X60893800Y-48144598D01*
X60893800Y-43255400D01*
X60913485Y-43188361D01*
X60966289Y-43142606D01*
X61035447Y-43132662D01*
X61074098Y-43144917D01*
X61080621Y-43148241D01*
X61320215Y-43226090D01*
X61569038Y-43265500D01*
X61569039Y-43265500D01*
X62620961Y-43265500D01*
X62620962Y-43265500D01*
X62869785Y-43226090D01*
X63109379Y-43148241D01*
X63333845Y-43033870D01*
X63395353Y-42989181D01*
X63461158Y-42965702D01*
X63468238Y-42965500D01*
X71671762Y-42965500D01*
X71738801Y-42985185D01*
G37*
%TD.AperFunction*%
%TA.AperFunction,NonConductor*%
G36*
X89078092Y-29638085D02*
G01*
X89098734Y-29654719D01*
X91676834Y-32232819D01*
X91710319Y-32294142D01*
X91705335Y-32363834D01*
X91663463Y-32419767D01*
X91597999Y-32444184D01*
X91589153Y-32444500D01*
X90613392Y-32444500D01*
X90575298Y-32448251D01*
X90459067Y-32459699D01*
X90261043Y-32519769D01*
X90182487Y-32561759D01*
X90078550Y-32617315D01*
X90078548Y-32617316D01*
X90078547Y-32617317D01*
X89918589Y-32748589D01*
X89787317Y-32908547D01*
X89689769Y-33091043D01*
X89629699Y-33289067D01*
X89623164Y-33355426D01*
X89614500Y-33443392D01*
X89614500Y-34646608D01*
X89619502Y-34697398D01*
X89629699Y-34800932D01*
X89629700Y-34800934D01*
X89689768Y-34998954D01*
X89787315Y-35181450D01*
X89875285Y-35288642D01*
X89918590Y-35341410D01*
X89967049Y-35381180D01*
X90006383Y-35438926D01*
X90008254Y-35508770D01*
X89988703Y-35549918D01*
X89846129Y-35746155D01*
X89731760Y-35970616D01*
X89653910Y-36210214D01*
X89614500Y-36459038D01*
X89614500Y-36710961D01*
X89653910Y-36959785D01*
X89731760Y-37199383D01*
X89846132Y-37423848D01*
X89994201Y-37627649D01*
X89994205Y-37627654D01*
X90133870Y-37767319D01*
X90167355Y-37828642D01*
X90162371Y-37898334D01*
X90133870Y-37942681D01*
X89994205Y-38082345D01*
X89994201Y-38082350D01*
X89846132Y-38286151D01*
X89731760Y-38510616D01*
X89653910Y-38750214D01*
X89614500Y-38999038D01*
X89614500Y-39250961D01*
X89653910Y-39499785D01*
X89731760Y-39739383D01*
X89803222Y-39879633D01*
X89844282Y-39960219D01*
X89846132Y-39963848D01*
X89994201Y-40167649D01*
X89994205Y-40167654D01*
X90133870Y-40307319D01*
X90167355Y-40368642D01*
X90162371Y-40438334D01*
X90133870Y-40482681D01*
X89994205Y-40622345D01*
X89994201Y-40622350D01*
X89846132Y-40826151D01*
X89731760Y-41050616D01*
X89653910Y-41290214D01*
X89614500Y-41539038D01*
X89614500Y-41790961D01*
X89653910Y-42039785D01*
X89731760Y-42279383D01*
X89846132Y-42503848D01*
X89994201Y-42707649D01*
X89994205Y-42707654D01*
X90172345Y-42885794D01*
X90172350Y-42885798D01*
X90324733Y-42996510D01*
X90376155Y-43033870D01*
X90519184Y-43106747D01*
X90600616Y-43148239D01*
X90600618Y-43148239D01*
X90600621Y-43148241D01*
X90840215Y-43226090D01*
X91089038Y-43265500D01*
X91089039Y-43265500D01*
X92140961Y-43265500D01*
X92140962Y-43265500D01*
X92389785Y-43226090D01*
X92629379Y-43148241D01*
X92853845Y-43033870D01*
X93057656Y-42885793D01*
X93235793Y-42707656D01*
X93383870Y-42503845D01*
X93498241Y-42279379D01*
X93576090Y-42039785D01*
X93615500Y-41790962D01*
X93615500Y-41539038D01*
X93576090Y-41290215D01*
X93498241Y-41050621D01*
X93498239Y-41050618D01*
X93498239Y-41050616D01*
X93456747Y-40969184D01*
X93383870Y-40826155D01*
X93373227Y-40811506D01*
X93235824Y-40622385D01*
X93212344Y-40556579D01*
X93228170Y-40488525D01*
X93278276Y-40439830D01*
X93336142Y-40425500D01*
X94219051Y-40425500D01*
X94219052Y-40425500D01*
X94421235Y-40393477D01*
X94567990Y-40345793D01*
X94615919Y-40330220D01*
X94707114Y-40283753D01*
X94798311Y-40237287D01*
X94963919Y-40116966D01*
X95040195Y-40040690D01*
X95108666Y-39972219D01*
X95120666Y-39960219D01*
X95208482Y-39839348D01*
X95263811Y-39796684D01*
X95333424Y-39790705D01*
X95395220Y-39823310D01*
X95429577Y-39884148D01*
X95432800Y-39912235D01*
X95432800Y-45024452D01*
X95413115Y-45091491D01*
X95396481Y-45112133D01*
X91312381Y-49196232D01*
X91251058Y-49229717D01*
X91181366Y-49224733D01*
X91125433Y-49182861D01*
X91106769Y-49146869D01*
X91098241Y-49120621D01*
X90983870Y-48896155D01*
X90964952Y-48870117D01*
X90835798Y-48692350D01*
X90835794Y-48692345D01*
X90657654Y-48514205D01*
X90657649Y-48514201D01*
X90453848Y-48366132D01*
X90453847Y-48366131D01*
X90453845Y-48366130D01*
X90383747Y-48330413D01*
X90229383Y-48251760D01*
X89989785Y-48173910D01*
X89989779Y-48173909D01*
X89740962Y-48134500D01*
X89489038Y-48134500D01*
X89364626Y-48154205D01*
X89240214Y-48173910D01*
X89000616Y-48251760D01*
X88776151Y-48366132D01*
X88572350Y-48514201D01*
X88572345Y-48514205D01*
X88394205Y-48692345D01*
X88394201Y-48692350D01*
X88246132Y-48896151D01*
X88131760Y-49120616D01*
X88053910Y-49360214D01*
X88014500Y-49609038D01*
X88014500Y-49860961D01*
X88053910Y-50109785D01*
X88131760Y-50349383D01*
X88210312Y-50503548D01*
X88242591Y-50566900D01*
X88246132Y-50573848D01*
X88394201Y-50777649D01*
X88394205Y-50777654D01*
X88572344Y-50955793D01*
X88572350Y-50955798D01*
X88714647Y-51059182D01*
X88776155Y-51103870D01*
X89000621Y-51218241D01*
X89026870Y-51226769D01*
X89084544Y-51266206D01*
X89111743Y-51330564D01*
X89099829Y-51399411D01*
X89076232Y-51432381D01*
X84060434Y-56448181D01*
X83999111Y-56481666D01*
X83972753Y-56484500D01*
X80443546Y-56484500D01*
X80376507Y-56464815D01*
X80330752Y-56412011D01*
X80320808Y-56342853D01*
X80349833Y-56279297D01*
X80355865Y-56272819D01*
X82271671Y-54357013D01*
X84418066Y-52210619D01*
X84538386Y-52045011D01*
X84538387Y-52045010D01*
X84631320Y-51862619D01*
X84694577Y-51667934D01*
X84726600Y-51465752D01*
X84726600Y-39282048D01*
X84694577Y-39079866D01*
X84631320Y-38885181D01*
X84631318Y-38885178D01*
X84631318Y-38885176D01*
X84584853Y-38793985D01*
X84584852Y-38793984D01*
X84562551Y-38750215D01*
X84538387Y-38702789D01*
X84418066Y-38537181D01*
X84013919Y-38133034D01*
X83848311Y-38012713D01*
X83732824Y-37953870D01*
X83665919Y-37919780D01*
X83560416Y-37885500D01*
X83547668Y-37881358D01*
X83471232Y-37856522D01*
X83295203Y-37828642D01*
X83269052Y-37824500D01*
X83269051Y-37824500D01*
X82386142Y-37824500D01*
X82319103Y-37804815D01*
X82273348Y-37752011D01*
X82263404Y-37682853D01*
X82285824Y-37627615D01*
X82374103Y-37506106D01*
X82433870Y-37423845D01*
X82548241Y-37199379D01*
X82626090Y-36959785D01*
X82665500Y-36710962D01*
X82665500Y-36459038D01*
X82626090Y-36210215D01*
X82548241Y-35970621D01*
X82548239Y-35970618D01*
X82548239Y-35970616D01*
X82505728Y-35887185D01*
X82433870Y-35746155D01*
X82414952Y-35720117D01*
X82285798Y-35542350D01*
X82285794Y-35542345D01*
X82146130Y-35402681D01*
X82112645Y-35341358D01*
X82117629Y-35271666D01*
X82146130Y-35227319D01*
X82203000Y-35170449D01*
X82285793Y-35087656D01*
X82433870Y-34883845D01*
X82548241Y-34659379D01*
X82626090Y-34419785D01*
X82665500Y-34170962D01*
X82665500Y-33919038D01*
X82626090Y-33670215D01*
X82548241Y-33430621D01*
X82548239Y-33430618D01*
X82548239Y-33430616D01*
X82476940Y-33290685D01*
X82433870Y-33206155D01*
X82382248Y-33135103D01*
X82285798Y-33002350D01*
X82285794Y-33002345D01*
X82107654Y-32824205D01*
X82107649Y-32824201D01*
X81903848Y-32676132D01*
X81903847Y-32676131D01*
X81903845Y-32676130D01*
X81833747Y-32640413D01*
X81679383Y-32561760D01*
X81439785Y-32483910D01*
X81301382Y-32461989D01*
X81190962Y-32444500D01*
X80139038Y-32444500D01*
X80043076Y-32459699D01*
X79890214Y-32483910D01*
X79650616Y-32561760D01*
X79426151Y-32676132D01*
X79222350Y-32824201D01*
X79222345Y-32824205D01*
X79044205Y-33002345D01*
X79044201Y-33002350D01*
X78896132Y-33206151D01*
X78781760Y-33430616D01*
X78703909Y-33670214D01*
X78674079Y-33858557D01*
X78644150Y-33921692D01*
X78584838Y-33958623D01*
X78514976Y-33957625D01*
X78463925Y-33926840D01*
X74367166Y-29830081D01*
X74333681Y-29768758D01*
X74338665Y-29699066D01*
X74380537Y-29643133D01*
X74446001Y-29618716D01*
X74454847Y-29618400D01*
X89011053Y-29618400D01*
X89078092Y-29638085D01*
G37*
%TD.AperFunction*%
%TA.AperFunction,NonConductor*%
G36*
X70938801Y-51055185D02*
G01*
X70944637Y-51059175D01*
X71006155Y-51103870D01*
X71112206Y-51157905D01*
X71230616Y-51218239D01*
X71230618Y-51218239D01*
X71230621Y-51218241D01*
X71359049Y-51259970D01*
X71470214Y-51296090D01*
X71509439Y-51302302D01*
X71545306Y-51307983D01*
X71608441Y-51337912D01*
X71613590Y-51342775D01*
X73130181Y-52859366D01*
X73295789Y-52979687D01*
X73386985Y-53026153D01*
X73478181Y-53072620D01*
X73575523Y-53104248D01*
X73672865Y-53135877D01*
X73875048Y-53167900D01*
X79483053Y-53167900D01*
X79550092Y-53187585D01*
X79595847Y-53240389D01*
X79605791Y-53309547D01*
X79576766Y-53373103D01*
X79570734Y-53379581D01*
X78817834Y-54132481D01*
X78756511Y-54165966D01*
X78730153Y-54168800D01*
X78683248Y-54168800D01*
X78615854Y-54179474D01*
X78481064Y-54200823D01*
X78286384Y-54264077D01*
X78286381Y-54264078D01*
X78103986Y-54357015D01*
X77938386Y-54477328D01*
X77938382Y-54477332D01*
X73852134Y-58563581D01*
X73790811Y-58597066D01*
X73764453Y-58599900D01*
X73428421Y-58599900D01*
X73361382Y-58580215D01*
X73315627Y-58527411D01*
X73305683Y-58458253D01*
X73317935Y-58419607D01*
X73321992Y-58411641D01*
X73328241Y-58399379D01*
X73406090Y-58159785D01*
X73445500Y-57910962D01*
X73445500Y-57659038D01*
X73406090Y-57410215D01*
X73328241Y-57170621D01*
X73328239Y-57170618D01*
X73328239Y-57170616D01*
X73286747Y-57089184D01*
X73213870Y-56946155D01*
X73194952Y-56920117D01*
X73065798Y-56742350D01*
X73065794Y-56742345D01*
X72887654Y-56564205D01*
X72887649Y-56564201D01*
X72683848Y-56416132D01*
X72683847Y-56416131D01*
X72683845Y-56416130D01*
X72613747Y-56380413D01*
X72459383Y-56301760D01*
X72219785Y-56223910D01*
X71970962Y-56184500D01*
X71719038Y-56184500D01*
X71594626Y-56204205D01*
X71470214Y-56223910D01*
X71230616Y-56301760D01*
X71006154Y-56416130D01*
X70967801Y-56443995D01*
X70944646Y-56460818D01*
X70878842Y-56484298D01*
X70871762Y-56484500D01*
X67362446Y-56484500D01*
X67295407Y-56464815D01*
X67274765Y-56448181D01*
X62252787Y-51426202D01*
X62219302Y-51364879D01*
X62224286Y-51295187D01*
X62266158Y-51239254D01*
X62302151Y-51220589D01*
X62309379Y-51218241D01*
X62533845Y-51103870D01*
X62595353Y-51059181D01*
X62661158Y-51035702D01*
X62668238Y-51035500D01*
X70871762Y-51035500D01*
X70938801Y-51055185D01*
G37*
%TD.AperFunction*%
M02*
