M48
; DRILL file {KiCad 9.0.6} date 2026-06-10T01:14:48+0200
; FORMAT={-:-/ absolute / metric / decimal}
; #@! TF.CreationDate,2026-06-10T01:14:48+02:00
; #@! TF.GenerationSoftware,Kicad,Pcbnew,9.0.6
; #@! TF.FileFunction,MixedPlating,1,2
FMAT,2
METRIC
; #@! TA.AperFunction,Plated,PTH,ComponentDrill
T1C0.800
; #@! TA.AperFunction,Plated,PTH,ComponentDrill
T2C1.000
%
G90
G05
T1
X54.075Y-49.735
X54.075Y-57.785
X54.475Y-34.045
X54.475Y-36.585
X54.475Y-39.125
X54.475Y-41.665
X61.695Y-49.735
X61.695Y-57.785
X62.095Y-34.045
X62.095Y-36.585
X62.095Y-39.125
X62.095Y-41.665
X71.845Y-49.735
X71.845Y-57.785
X73.045Y-34.045
X73.045Y-36.585
X73.045Y-39.125
X73.045Y-41.665
X79.465Y-49.735
X79.465Y-57.785
X80.665Y-34.045
X80.665Y-36.585
X80.665Y-39.125
X80.665Y-41.665
X89.615Y-49.735
X91.615Y-34.045
X91.615Y-36.585
X91.615Y-39.125
X91.615Y-41.665
X97.235Y-49.735
X99.235Y-34.045
X99.235Y-36.585
X99.235Y-39.125
X99.235Y-41.665
T2
X35.0Y-29.46
X35.0Y-32.0
X35.0Y-34.54
X122.71Y-30.725
X122.71Y-33.265
M30
