%TF.GenerationSoftware,KiCad,Pcbnew,9.0.4*%
%TF.CreationDate,2026-06-10T15:27:52+02:00*%
%TF.ProjectId,feedback_circuit,66656564-6261-4636-9b5f-636972637569,rev?*%
%TF.SameCoordinates,Original*%
%TF.FileFunction,Legend,Top*%
%TF.FilePolarity,Positive*%
%FSLAX46Y46*%
G04 Gerber Fmt 4.6, Leading zero omitted, Abs format (unit mm)*
G04 Created by KiCad (PCBNEW 9.0.4) date 2026-06-10 15:27:52*
%MOMM*%
%LPD*%
G01*
G04 APERTURE LIST*
%ADD10C,0.150000*%
%ADD11C,0.120000*%
G04 APERTURE END LIST*
D10*
X50593095Y-43504819D02*
X50593095Y-44314342D01*
X50593095Y-44314342D02*
X50640714Y-44409580D01*
X50640714Y-44409580D02*
X50688333Y-44457200D01*
X50688333Y-44457200D02*
X50783571Y-44504819D01*
X50783571Y-44504819D02*
X50974047Y-44504819D01*
X50974047Y-44504819D02*
X51069285Y-44457200D01*
X51069285Y-44457200D02*
X51116904Y-44409580D01*
X51116904Y-44409580D02*
X51164523Y-44314342D01*
X51164523Y-44314342D02*
X51164523Y-43504819D01*
X51545476Y-43504819D02*
X52164523Y-43504819D01*
X52164523Y-43504819D02*
X51831190Y-43885771D01*
X51831190Y-43885771D02*
X51974047Y-43885771D01*
X51974047Y-43885771D02*
X52069285Y-43933390D01*
X52069285Y-43933390D02*
X52116904Y-43981009D01*
X52116904Y-43981009D02*
X52164523Y-44076247D01*
X52164523Y-44076247D02*
X52164523Y-44314342D01*
X52164523Y-44314342D02*
X52116904Y-44409580D01*
X52116904Y-44409580D02*
X52069285Y-44457200D01*
X52069285Y-44457200D02*
X51974047Y-44504819D01*
X51974047Y-44504819D02*
X51688333Y-44504819D01*
X51688333Y-44504819D02*
X51593095Y-44457200D01*
X51593095Y-44457200D02*
X51545476Y-44409580D01*
X35218333Y-77914819D02*
X34885000Y-77438628D01*
X34646905Y-77914819D02*
X34646905Y-76914819D01*
X34646905Y-76914819D02*
X35027857Y-76914819D01*
X35027857Y-76914819D02*
X35123095Y-76962438D01*
X35123095Y-76962438D02*
X35170714Y-77010057D01*
X35170714Y-77010057D02*
X35218333Y-77105295D01*
X35218333Y-77105295D02*
X35218333Y-77248152D01*
X35218333Y-77248152D02*
X35170714Y-77343390D01*
X35170714Y-77343390D02*
X35123095Y-77391009D01*
X35123095Y-77391009D02*
X35027857Y-77438628D01*
X35027857Y-77438628D02*
X34646905Y-77438628D01*
X36075476Y-77248152D02*
X36075476Y-77914819D01*
X35837381Y-76867200D02*
X35599286Y-77581485D01*
X35599286Y-77581485D02*
X36218333Y-77581485D01*
X49988333Y-71864819D02*
X49655000Y-71388628D01*
X49416905Y-71864819D02*
X49416905Y-70864819D01*
X49416905Y-70864819D02*
X49797857Y-70864819D01*
X49797857Y-70864819D02*
X49893095Y-70912438D01*
X49893095Y-70912438D02*
X49940714Y-70960057D01*
X49940714Y-70960057D02*
X49988333Y-71055295D01*
X49988333Y-71055295D02*
X49988333Y-71198152D01*
X49988333Y-71198152D02*
X49940714Y-71293390D01*
X49940714Y-71293390D02*
X49893095Y-71341009D01*
X49893095Y-71341009D02*
X49797857Y-71388628D01*
X49797857Y-71388628D02*
X49416905Y-71388628D01*
X50321667Y-70864819D02*
X50940714Y-70864819D01*
X50940714Y-70864819D02*
X50607381Y-71245771D01*
X50607381Y-71245771D02*
X50750238Y-71245771D01*
X50750238Y-71245771D02*
X50845476Y-71293390D01*
X50845476Y-71293390D02*
X50893095Y-71341009D01*
X50893095Y-71341009D02*
X50940714Y-71436247D01*
X50940714Y-71436247D02*
X50940714Y-71674342D01*
X50940714Y-71674342D02*
X50893095Y-71769580D01*
X50893095Y-71769580D02*
X50845476Y-71817200D01*
X50845476Y-71817200D02*
X50750238Y-71864819D01*
X50750238Y-71864819D02*
X50464524Y-71864819D01*
X50464524Y-71864819D02*
X50369286Y-71817200D01*
X50369286Y-71817200D02*
X50321667Y-71769580D01*
X50788333Y-61984819D02*
X50455000Y-61508628D01*
X50216905Y-61984819D02*
X50216905Y-60984819D01*
X50216905Y-60984819D02*
X50597857Y-60984819D01*
X50597857Y-60984819D02*
X50693095Y-61032438D01*
X50693095Y-61032438D02*
X50740714Y-61080057D01*
X50740714Y-61080057D02*
X50788333Y-61175295D01*
X50788333Y-61175295D02*
X50788333Y-61318152D01*
X50788333Y-61318152D02*
X50740714Y-61413390D01*
X50740714Y-61413390D02*
X50693095Y-61461009D01*
X50693095Y-61461009D02*
X50597857Y-61508628D01*
X50597857Y-61508628D02*
X50216905Y-61508628D01*
X51740714Y-61984819D02*
X51169286Y-61984819D01*
X51455000Y-61984819D02*
X51455000Y-60984819D01*
X51455000Y-60984819D02*
X51359762Y-61127676D01*
X51359762Y-61127676D02*
X51264524Y-61222914D01*
X51264524Y-61222914D02*
X51169286Y-61270533D01*
X108666666Y-27799819D02*
X108666666Y-28514104D01*
X108666666Y-28514104D02*
X108619047Y-28656961D01*
X108619047Y-28656961D02*
X108523809Y-28752200D01*
X108523809Y-28752200D02*
X108380952Y-28799819D01*
X108380952Y-28799819D02*
X108285714Y-28799819D01*
X109095238Y-27895057D02*
X109142857Y-27847438D01*
X109142857Y-27847438D02*
X109238095Y-27799819D01*
X109238095Y-27799819D02*
X109476190Y-27799819D01*
X109476190Y-27799819D02*
X109571428Y-27847438D01*
X109571428Y-27847438D02*
X109619047Y-27895057D01*
X109619047Y-27895057D02*
X109666666Y-27990295D01*
X109666666Y-27990295D02*
X109666666Y-28085533D01*
X109666666Y-28085533D02*
X109619047Y-28228390D01*
X109619047Y-28228390D02*
X109047619Y-28799819D01*
X109047619Y-28799819D02*
X109666666Y-28799819D01*
X35023095Y-57214819D02*
X35023095Y-58024342D01*
X35023095Y-58024342D02*
X35070714Y-58119580D01*
X35070714Y-58119580D02*
X35118333Y-58167200D01*
X35118333Y-58167200D02*
X35213571Y-58214819D01*
X35213571Y-58214819D02*
X35404047Y-58214819D01*
X35404047Y-58214819D02*
X35499285Y-58167200D01*
X35499285Y-58167200D02*
X35546904Y-58119580D01*
X35546904Y-58119580D02*
X35594523Y-58024342D01*
X35594523Y-58024342D02*
X35594523Y-57214819D01*
X36499285Y-57548152D02*
X36499285Y-58214819D01*
X36261190Y-57167200D02*
X36023095Y-57881485D01*
X36023095Y-57881485D02*
X36642142Y-57881485D01*
X35218333Y-71864819D02*
X34885000Y-71388628D01*
X34646905Y-71864819D02*
X34646905Y-70864819D01*
X34646905Y-70864819D02*
X35027857Y-70864819D01*
X35027857Y-70864819D02*
X35123095Y-70912438D01*
X35123095Y-70912438D02*
X35170714Y-70960057D01*
X35170714Y-70960057D02*
X35218333Y-71055295D01*
X35218333Y-71055295D02*
X35218333Y-71198152D01*
X35218333Y-71198152D02*
X35170714Y-71293390D01*
X35170714Y-71293390D02*
X35123095Y-71341009D01*
X35123095Y-71341009D02*
X35027857Y-71388628D01*
X35027857Y-71388628D02*
X34646905Y-71388628D01*
X35599286Y-70960057D02*
X35646905Y-70912438D01*
X35646905Y-70912438D02*
X35742143Y-70864819D01*
X35742143Y-70864819D02*
X35980238Y-70864819D01*
X35980238Y-70864819D02*
X36075476Y-70912438D01*
X36075476Y-70912438D02*
X36123095Y-70960057D01*
X36123095Y-70960057D02*
X36170714Y-71055295D01*
X36170714Y-71055295D02*
X36170714Y-71150533D01*
X36170714Y-71150533D02*
X36123095Y-71293390D01*
X36123095Y-71293390D02*
X35551667Y-71864819D01*
X35551667Y-71864819D02*
X36170714Y-71864819D01*
X49988333Y-77914819D02*
X49655000Y-77438628D01*
X49416905Y-77914819D02*
X49416905Y-76914819D01*
X49416905Y-76914819D02*
X49797857Y-76914819D01*
X49797857Y-76914819D02*
X49893095Y-76962438D01*
X49893095Y-76962438D02*
X49940714Y-77010057D01*
X49940714Y-77010057D02*
X49988333Y-77105295D01*
X49988333Y-77105295D02*
X49988333Y-77248152D01*
X49988333Y-77248152D02*
X49940714Y-77343390D01*
X49940714Y-77343390D02*
X49893095Y-77391009D01*
X49893095Y-77391009D02*
X49797857Y-77438628D01*
X49797857Y-77438628D02*
X49416905Y-77438628D01*
X50893095Y-76914819D02*
X50416905Y-76914819D01*
X50416905Y-76914819D02*
X50369286Y-77391009D01*
X50369286Y-77391009D02*
X50416905Y-77343390D01*
X50416905Y-77343390D02*
X50512143Y-77295771D01*
X50512143Y-77295771D02*
X50750238Y-77295771D01*
X50750238Y-77295771D02*
X50845476Y-77343390D01*
X50845476Y-77343390D02*
X50893095Y-77391009D01*
X50893095Y-77391009D02*
X50940714Y-77486247D01*
X50940714Y-77486247D02*
X50940714Y-77724342D01*
X50940714Y-77724342D02*
X50893095Y-77819580D01*
X50893095Y-77819580D02*
X50845476Y-77867200D01*
X50845476Y-77867200D02*
X50750238Y-77914819D01*
X50750238Y-77914819D02*
X50512143Y-77914819D01*
X50512143Y-77914819D02*
X50416905Y-77867200D01*
X50416905Y-77867200D02*
X50369286Y-77819580D01*
X35023095Y-43504819D02*
X35023095Y-44314342D01*
X35023095Y-44314342D02*
X35070714Y-44409580D01*
X35070714Y-44409580D02*
X35118333Y-44457200D01*
X35118333Y-44457200D02*
X35213571Y-44504819D01*
X35213571Y-44504819D02*
X35404047Y-44504819D01*
X35404047Y-44504819D02*
X35499285Y-44457200D01*
X35499285Y-44457200D02*
X35546904Y-44409580D01*
X35546904Y-44409580D02*
X35594523Y-44314342D01*
X35594523Y-44314342D02*
X35594523Y-43504819D01*
X36594523Y-44504819D02*
X36023095Y-44504819D01*
X36308809Y-44504819D02*
X36308809Y-43504819D01*
X36308809Y-43504819D02*
X36213571Y-43647676D01*
X36213571Y-43647676D02*
X36118333Y-43742914D01*
X36118333Y-43742914D02*
X36023095Y-43790533D01*
X34666666Y-36374819D02*
X34666666Y-37089104D01*
X34666666Y-37089104D02*
X34619047Y-37231961D01*
X34619047Y-37231961D02*
X34523809Y-37327200D01*
X34523809Y-37327200D02*
X34380952Y-37374819D01*
X34380952Y-37374819D02*
X34285714Y-37374819D01*
X35666666Y-37374819D02*
X35095238Y-37374819D01*
X35380952Y-37374819D02*
X35380952Y-36374819D01*
X35380952Y-36374819D02*
X35285714Y-36517676D01*
X35285714Y-36517676D02*
X35190476Y-36612914D01*
X35190476Y-36612914D02*
X35095238Y-36660533D01*
D11*
%TO.C,U3*%
X49105000Y-45050000D02*
X49105000Y-55330000D01*
X49105000Y-55330000D02*
X53605000Y-55330000D01*
X50355000Y-45050000D02*
X49105000Y-45050000D01*
X53605000Y-45050000D02*
X52355000Y-45050000D01*
X53605000Y-55330000D02*
X53605000Y-45050000D01*
X52355000Y-45050000D02*
G75*
G02*
X50355000Y-45050000I-1000000J0D01*
G01*
%TO.C,R4*%
X32115000Y-78460000D02*
X38655000Y-78460000D01*
X32115000Y-78790000D02*
X32115000Y-78460000D01*
X32115000Y-80870000D02*
X32115000Y-81200000D01*
X32115000Y-81200000D02*
X38655000Y-81200000D01*
X38655000Y-78460000D02*
X38655000Y-78790000D01*
X38655000Y-81200000D02*
X38655000Y-80870000D01*
%TO.C,R3*%
X46885000Y-72410000D02*
X53425000Y-72410000D01*
X46885000Y-72740000D02*
X46885000Y-72410000D01*
X46885000Y-74820000D02*
X46885000Y-75150000D01*
X46885000Y-75150000D02*
X53425000Y-75150000D01*
X53425000Y-72410000D02*
X53425000Y-72740000D01*
X53425000Y-75150000D02*
X53425000Y-74820000D01*
%TO.C,R1*%
X47685000Y-62530000D02*
X54225000Y-62530000D01*
X47685000Y-62860000D02*
X47685000Y-62530000D01*
X47685000Y-64940000D02*
X47685000Y-65270000D01*
X47685000Y-65270000D02*
X54225000Y-65270000D01*
X54225000Y-62530000D02*
X54225000Y-62860000D01*
X54225000Y-65270000D02*
X54225000Y-64940000D01*
%TO.C,J2*%
X107620000Y-29345000D02*
X109000000Y-29345000D01*
X107620000Y-30725000D02*
X107620000Y-29345000D01*
X107620000Y-31995000D02*
X107620000Y-34645000D01*
X107620000Y-31995000D02*
X110380000Y-31995000D01*
X107620000Y-34645000D02*
X110380000Y-34645000D01*
X110380000Y-31995000D02*
X110380000Y-34645000D01*
%TO.C,U4*%
X33535000Y-58760000D02*
X33535000Y-69040000D01*
X33535000Y-69040000D02*
X38035000Y-69040000D01*
X34785000Y-58760000D02*
X33535000Y-58760000D01*
X38035000Y-58760000D02*
X36785000Y-58760000D01*
X38035000Y-69040000D02*
X38035000Y-58760000D01*
X36785000Y-58760000D02*
G75*
G02*
X34785000Y-58760000I-1000000J0D01*
G01*
%TO.C,R2*%
X32115000Y-72410000D02*
X38655000Y-72410000D01*
X32115000Y-72740000D02*
X32115000Y-72410000D01*
X32115000Y-74820000D02*
X32115000Y-75150000D01*
X32115000Y-75150000D02*
X38655000Y-75150000D01*
X38655000Y-72410000D02*
X38655000Y-72740000D01*
X38655000Y-75150000D02*
X38655000Y-74820000D01*
%TO.C,R5*%
X46885000Y-78460000D02*
X53425000Y-78460000D01*
X46885000Y-78790000D02*
X46885000Y-78460000D01*
X46885000Y-80870000D02*
X46885000Y-81200000D01*
X46885000Y-81200000D02*
X53425000Y-81200000D01*
X53425000Y-78460000D02*
X53425000Y-78790000D01*
X53425000Y-81200000D02*
X53425000Y-80870000D01*
%TO.C,U1*%
X33535000Y-45050000D02*
X33535000Y-55330000D01*
X33535000Y-55330000D02*
X38035000Y-55330000D01*
X34785000Y-45050000D02*
X33535000Y-45050000D01*
X38035000Y-45050000D02*
X36785000Y-45050000D01*
X38035000Y-55330000D02*
X38035000Y-45050000D01*
X36785000Y-45050000D02*
G75*
G02*
X34785000Y-45050000I-1000000J0D01*
G01*
%TO.C,J1*%
X33620000Y-33270000D02*
X33620000Y-28080000D01*
X36380000Y-28080000D02*
X33620000Y-28080000D01*
X36380000Y-33270000D02*
X33620000Y-33270000D01*
X36380000Y-33270000D02*
X36380000Y-28080000D01*
X36380000Y-34540000D02*
X36380000Y-35920000D01*
X36380000Y-35920000D02*
X35000000Y-35920000D01*
%TD*%
M02*
