%TF.GenerationSoftware,KiCad,Pcbnew,9.0.4*%
%TF.CreationDate,2026-06-10T15:27:52+02:00*%
%TF.ProjectId,feedback_circuit,66656564-6261-4636-9b5f-636972637569,rev?*%
%TF.SameCoordinates,Original*%
%TF.FileFunction,AssemblyDrawing,Top*%
%FSLAX46Y46*%
G04 Gerber Fmt 4.6, Leading zero omitted, Abs format (unit mm)*
G04 Created by KiCad (PCBNEW 9.0.4) date 2026-06-10 15:27:52*
%MOMM*%
%LPD*%
G01*
G04 APERTURE LIST*
%ADD10C,0.150000*%
%ADD11C,0.100000*%
G04 APERTURE END LIST*
D10*
X48593095Y-56784819D02*
X48593095Y-55784819D01*
X48593095Y-55784819D02*
X48926428Y-56499104D01*
X48926428Y-56499104D02*
X49259761Y-55784819D01*
X49259761Y-55784819D02*
X49259761Y-56784819D01*
X50307380Y-56689580D02*
X50259761Y-56737200D01*
X50259761Y-56737200D02*
X50116904Y-56784819D01*
X50116904Y-56784819D02*
X50021666Y-56784819D01*
X50021666Y-56784819D02*
X49878809Y-56737200D01*
X49878809Y-56737200D02*
X49783571Y-56641961D01*
X49783571Y-56641961D02*
X49735952Y-56546723D01*
X49735952Y-56546723D02*
X49688333Y-56356247D01*
X49688333Y-56356247D02*
X49688333Y-56213390D01*
X49688333Y-56213390D02*
X49735952Y-56022914D01*
X49735952Y-56022914D02*
X49783571Y-55927676D01*
X49783571Y-55927676D02*
X49878809Y-55832438D01*
X49878809Y-55832438D02*
X50021666Y-55784819D01*
X50021666Y-55784819D02*
X50116904Y-55784819D01*
X50116904Y-55784819D02*
X50259761Y-55832438D01*
X50259761Y-55832438D02*
X50307380Y-55880057D01*
X50735952Y-56784819D02*
X50735952Y-55784819D01*
X50735952Y-55784819D02*
X51116904Y-55784819D01*
X51116904Y-55784819D02*
X51212142Y-55832438D01*
X51212142Y-55832438D02*
X51259761Y-55880057D01*
X51259761Y-55880057D02*
X51307380Y-55975295D01*
X51307380Y-55975295D02*
X51307380Y-56118152D01*
X51307380Y-56118152D02*
X51259761Y-56213390D01*
X51259761Y-56213390D02*
X51212142Y-56261009D01*
X51212142Y-56261009D02*
X51116904Y-56308628D01*
X51116904Y-56308628D02*
X50735952Y-56308628D01*
X52164523Y-55784819D02*
X51974047Y-55784819D01*
X51974047Y-55784819D02*
X51878809Y-55832438D01*
X51878809Y-55832438D02*
X51831190Y-55880057D01*
X51831190Y-55880057D02*
X51735952Y-56022914D01*
X51735952Y-56022914D02*
X51688333Y-56213390D01*
X51688333Y-56213390D02*
X51688333Y-56594342D01*
X51688333Y-56594342D02*
X51735952Y-56689580D01*
X51735952Y-56689580D02*
X51783571Y-56737200D01*
X51783571Y-56737200D02*
X51878809Y-56784819D01*
X51878809Y-56784819D02*
X52069285Y-56784819D01*
X52069285Y-56784819D02*
X52164523Y-56737200D01*
X52164523Y-56737200D02*
X52212142Y-56689580D01*
X52212142Y-56689580D02*
X52259761Y-56594342D01*
X52259761Y-56594342D02*
X52259761Y-56356247D01*
X52259761Y-56356247D02*
X52212142Y-56261009D01*
X52212142Y-56261009D02*
X52164523Y-56213390D01*
X52164523Y-56213390D02*
X52069285Y-56165771D01*
X52069285Y-56165771D02*
X51878809Y-56165771D01*
X51878809Y-56165771D02*
X51783571Y-56213390D01*
X51783571Y-56213390D02*
X51735952Y-56261009D01*
X51735952Y-56261009D02*
X51688333Y-56356247D01*
X52878809Y-55784819D02*
X52974047Y-55784819D01*
X52974047Y-55784819D02*
X53069285Y-55832438D01*
X53069285Y-55832438D02*
X53116904Y-55880057D01*
X53116904Y-55880057D02*
X53164523Y-55975295D01*
X53164523Y-55975295D02*
X53212142Y-56165771D01*
X53212142Y-56165771D02*
X53212142Y-56403866D01*
X53212142Y-56403866D02*
X53164523Y-56594342D01*
X53164523Y-56594342D02*
X53116904Y-56689580D01*
X53116904Y-56689580D02*
X53069285Y-56737200D01*
X53069285Y-56737200D02*
X52974047Y-56784819D01*
X52974047Y-56784819D02*
X52878809Y-56784819D01*
X52878809Y-56784819D02*
X52783571Y-56737200D01*
X52783571Y-56737200D02*
X52735952Y-56689580D01*
X52735952Y-56689580D02*
X52688333Y-56594342D01*
X52688333Y-56594342D02*
X52640714Y-56403866D01*
X52640714Y-56403866D02*
X52640714Y-56165771D01*
X52640714Y-56165771D02*
X52688333Y-55975295D01*
X52688333Y-55975295D02*
X52735952Y-55880057D01*
X52735952Y-55880057D02*
X52783571Y-55832438D01*
X52783571Y-55832438D02*
X52878809Y-55784819D01*
X54164523Y-56784819D02*
X53593095Y-56784819D01*
X53878809Y-56784819D02*
X53878809Y-55784819D01*
X53878809Y-55784819D02*
X53783571Y-55927676D01*
X53783571Y-55927676D02*
X53688333Y-56022914D01*
X53688333Y-56022914D02*
X53593095Y-56070533D01*
X50809819Y-50951904D02*
X51619342Y-50951904D01*
X51619342Y-50951904D02*
X51714580Y-50904285D01*
X51714580Y-50904285D02*
X51762200Y-50856666D01*
X51762200Y-50856666D02*
X51809819Y-50761428D01*
X51809819Y-50761428D02*
X51809819Y-50570952D01*
X51809819Y-50570952D02*
X51762200Y-50475714D01*
X51762200Y-50475714D02*
X51714580Y-50428095D01*
X51714580Y-50428095D02*
X51619342Y-50380476D01*
X51619342Y-50380476D02*
X50809819Y-50380476D01*
X50809819Y-49999523D02*
X50809819Y-49380476D01*
X50809819Y-49380476D02*
X51190771Y-49713809D01*
X51190771Y-49713809D02*
X51190771Y-49570952D01*
X51190771Y-49570952D02*
X51238390Y-49475714D01*
X51238390Y-49475714D02*
X51286009Y-49428095D01*
X51286009Y-49428095D02*
X51381247Y-49380476D01*
X51381247Y-49380476D02*
X51619342Y-49380476D01*
X51619342Y-49380476D02*
X51714580Y-49428095D01*
X51714580Y-49428095D02*
X51762200Y-49475714D01*
X51762200Y-49475714D02*
X51809819Y-49570952D01*
X51809819Y-49570952D02*
X51809819Y-49856666D01*
X51809819Y-49856666D02*
X51762200Y-49951904D01*
X51762200Y-49951904D02*
X51714580Y-49999523D01*
X34146905Y-81750057D02*
X34194524Y-81702438D01*
X34194524Y-81702438D02*
X34289762Y-81654819D01*
X34289762Y-81654819D02*
X34527857Y-81654819D01*
X34527857Y-81654819D02*
X34623095Y-81702438D01*
X34623095Y-81702438D02*
X34670714Y-81750057D01*
X34670714Y-81750057D02*
X34718333Y-81845295D01*
X34718333Y-81845295D02*
X34718333Y-81940533D01*
X34718333Y-81940533D02*
X34670714Y-82083390D01*
X34670714Y-82083390D02*
X34099286Y-82654819D01*
X34099286Y-82654819D02*
X34718333Y-82654819D01*
X35337381Y-81654819D02*
X35432619Y-81654819D01*
X35432619Y-81654819D02*
X35527857Y-81702438D01*
X35527857Y-81702438D02*
X35575476Y-81750057D01*
X35575476Y-81750057D02*
X35623095Y-81845295D01*
X35623095Y-81845295D02*
X35670714Y-82035771D01*
X35670714Y-82035771D02*
X35670714Y-82273866D01*
X35670714Y-82273866D02*
X35623095Y-82464342D01*
X35623095Y-82464342D02*
X35575476Y-82559580D01*
X35575476Y-82559580D02*
X35527857Y-82607200D01*
X35527857Y-82607200D02*
X35432619Y-82654819D01*
X35432619Y-82654819D02*
X35337381Y-82654819D01*
X35337381Y-82654819D02*
X35242143Y-82607200D01*
X35242143Y-82607200D02*
X35194524Y-82559580D01*
X35194524Y-82559580D02*
X35146905Y-82464342D01*
X35146905Y-82464342D02*
X35099286Y-82273866D01*
X35099286Y-82273866D02*
X35099286Y-82035771D01*
X35099286Y-82035771D02*
X35146905Y-81845295D01*
X35146905Y-81845295D02*
X35194524Y-81750057D01*
X35194524Y-81750057D02*
X35242143Y-81702438D01*
X35242143Y-81702438D02*
X35337381Y-81654819D01*
X36289762Y-81654819D02*
X36385000Y-81654819D01*
X36385000Y-81654819D02*
X36480238Y-81702438D01*
X36480238Y-81702438D02*
X36527857Y-81750057D01*
X36527857Y-81750057D02*
X36575476Y-81845295D01*
X36575476Y-81845295D02*
X36623095Y-82035771D01*
X36623095Y-82035771D02*
X36623095Y-82273866D01*
X36623095Y-82273866D02*
X36575476Y-82464342D01*
X36575476Y-82464342D02*
X36527857Y-82559580D01*
X36527857Y-82559580D02*
X36480238Y-82607200D01*
X36480238Y-82607200D02*
X36385000Y-82654819D01*
X36385000Y-82654819D02*
X36289762Y-82654819D01*
X36289762Y-82654819D02*
X36194524Y-82607200D01*
X36194524Y-82607200D02*
X36146905Y-82559580D01*
X36146905Y-82559580D02*
X36099286Y-82464342D01*
X36099286Y-82464342D02*
X36051667Y-82273866D01*
X36051667Y-82273866D02*
X36051667Y-82035771D01*
X36051667Y-82035771D02*
X36099286Y-81845295D01*
X36099286Y-81845295D02*
X36146905Y-81750057D01*
X36146905Y-81750057D02*
X36194524Y-81702438D01*
X36194524Y-81702438D02*
X36289762Y-81654819D01*
X35218333Y-80284819D02*
X34885000Y-79808628D01*
X34646905Y-80284819D02*
X34646905Y-79284819D01*
X34646905Y-79284819D02*
X35027857Y-79284819D01*
X35027857Y-79284819D02*
X35123095Y-79332438D01*
X35123095Y-79332438D02*
X35170714Y-79380057D01*
X35170714Y-79380057D02*
X35218333Y-79475295D01*
X35218333Y-79475295D02*
X35218333Y-79618152D01*
X35218333Y-79618152D02*
X35170714Y-79713390D01*
X35170714Y-79713390D02*
X35123095Y-79761009D01*
X35123095Y-79761009D02*
X35027857Y-79808628D01*
X35027857Y-79808628D02*
X34646905Y-79808628D01*
X36075476Y-79618152D02*
X36075476Y-80284819D01*
X35837381Y-79237200D02*
X35599286Y-79951485D01*
X35599286Y-79951485D02*
X36218333Y-79951485D01*
X48940714Y-75604819D02*
X49559761Y-75604819D01*
X49559761Y-75604819D02*
X49226428Y-75985771D01*
X49226428Y-75985771D02*
X49369285Y-75985771D01*
X49369285Y-75985771D02*
X49464523Y-76033390D01*
X49464523Y-76033390D02*
X49512142Y-76081009D01*
X49512142Y-76081009D02*
X49559761Y-76176247D01*
X49559761Y-76176247D02*
X49559761Y-76414342D01*
X49559761Y-76414342D02*
X49512142Y-76509580D01*
X49512142Y-76509580D02*
X49464523Y-76557200D01*
X49464523Y-76557200D02*
X49369285Y-76604819D01*
X49369285Y-76604819D02*
X49083571Y-76604819D01*
X49083571Y-76604819D02*
X48988333Y-76557200D01*
X48988333Y-76557200D02*
X48940714Y-76509580D01*
X49893095Y-75604819D02*
X50512142Y-75604819D01*
X50512142Y-75604819D02*
X50178809Y-75985771D01*
X50178809Y-75985771D02*
X50321666Y-75985771D01*
X50321666Y-75985771D02*
X50416904Y-76033390D01*
X50416904Y-76033390D02*
X50464523Y-76081009D01*
X50464523Y-76081009D02*
X50512142Y-76176247D01*
X50512142Y-76176247D02*
X50512142Y-76414342D01*
X50512142Y-76414342D02*
X50464523Y-76509580D01*
X50464523Y-76509580D02*
X50416904Y-76557200D01*
X50416904Y-76557200D02*
X50321666Y-76604819D01*
X50321666Y-76604819D02*
X50035952Y-76604819D01*
X50035952Y-76604819D02*
X49940714Y-76557200D01*
X49940714Y-76557200D02*
X49893095Y-76509580D01*
X50940714Y-76604819D02*
X50940714Y-75604819D01*
X51035952Y-76223866D02*
X51321666Y-76604819D01*
X51321666Y-75938152D02*
X50940714Y-76319104D01*
X49988333Y-74234819D02*
X49655000Y-73758628D01*
X49416905Y-74234819D02*
X49416905Y-73234819D01*
X49416905Y-73234819D02*
X49797857Y-73234819D01*
X49797857Y-73234819D02*
X49893095Y-73282438D01*
X49893095Y-73282438D02*
X49940714Y-73330057D01*
X49940714Y-73330057D02*
X49988333Y-73425295D01*
X49988333Y-73425295D02*
X49988333Y-73568152D01*
X49988333Y-73568152D02*
X49940714Y-73663390D01*
X49940714Y-73663390D02*
X49893095Y-73711009D01*
X49893095Y-73711009D02*
X49797857Y-73758628D01*
X49797857Y-73758628D02*
X49416905Y-73758628D01*
X50321667Y-73234819D02*
X50940714Y-73234819D01*
X50940714Y-73234819D02*
X50607381Y-73615771D01*
X50607381Y-73615771D02*
X50750238Y-73615771D01*
X50750238Y-73615771D02*
X50845476Y-73663390D01*
X50845476Y-73663390D02*
X50893095Y-73711009D01*
X50893095Y-73711009D02*
X50940714Y-73806247D01*
X50940714Y-73806247D02*
X50940714Y-74044342D01*
X50940714Y-74044342D02*
X50893095Y-74139580D01*
X50893095Y-74139580D02*
X50845476Y-74187200D01*
X50845476Y-74187200D02*
X50750238Y-74234819D01*
X50750238Y-74234819D02*
X50464524Y-74234819D01*
X50464524Y-74234819D02*
X50369286Y-74187200D01*
X50369286Y-74187200D02*
X50321667Y-74139580D01*
X50359761Y-66724819D02*
X49788333Y-66724819D01*
X50074047Y-66724819D02*
X50074047Y-65724819D01*
X50074047Y-65724819D02*
X49978809Y-65867676D01*
X49978809Y-65867676D02*
X49883571Y-65962914D01*
X49883571Y-65962914D02*
X49788333Y-66010533D01*
X50978809Y-65724819D02*
X51074047Y-65724819D01*
X51074047Y-65724819D02*
X51169285Y-65772438D01*
X51169285Y-65772438D02*
X51216904Y-65820057D01*
X51216904Y-65820057D02*
X51264523Y-65915295D01*
X51264523Y-65915295D02*
X51312142Y-66105771D01*
X51312142Y-66105771D02*
X51312142Y-66343866D01*
X51312142Y-66343866D02*
X51264523Y-66534342D01*
X51264523Y-66534342D02*
X51216904Y-66629580D01*
X51216904Y-66629580D02*
X51169285Y-66677200D01*
X51169285Y-66677200D02*
X51074047Y-66724819D01*
X51074047Y-66724819D02*
X50978809Y-66724819D01*
X50978809Y-66724819D02*
X50883571Y-66677200D01*
X50883571Y-66677200D02*
X50835952Y-66629580D01*
X50835952Y-66629580D02*
X50788333Y-66534342D01*
X50788333Y-66534342D02*
X50740714Y-66343866D01*
X50740714Y-66343866D02*
X50740714Y-66105771D01*
X50740714Y-66105771D02*
X50788333Y-65915295D01*
X50788333Y-65915295D02*
X50835952Y-65820057D01*
X50835952Y-65820057D02*
X50883571Y-65772438D01*
X50883571Y-65772438D02*
X50978809Y-65724819D01*
X51740714Y-66724819D02*
X51740714Y-65724819D01*
X51835952Y-66343866D02*
X52121666Y-66724819D01*
X52121666Y-66058152D02*
X51740714Y-66439104D01*
X50788333Y-64354819D02*
X50455000Y-63878628D01*
X50216905Y-64354819D02*
X50216905Y-63354819D01*
X50216905Y-63354819D02*
X50597857Y-63354819D01*
X50597857Y-63354819D02*
X50693095Y-63402438D01*
X50693095Y-63402438D02*
X50740714Y-63450057D01*
X50740714Y-63450057D02*
X50788333Y-63545295D01*
X50788333Y-63545295D02*
X50788333Y-63688152D01*
X50788333Y-63688152D02*
X50740714Y-63783390D01*
X50740714Y-63783390D02*
X50693095Y-63831009D01*
X50693095Y-63831009D02*
X50597857Y-63878628D01*
X50597857Y-63878628D02*
X50216905Y-63878628D01*
X51740714Y-64354819D02*
X51169286Y-64354819D01*
X51455000Y-64354819D02*
X51455000Y-63354819D01*
X51455000Y-63354819D02*
X51359762Y-63497676D01*
X51359762Y-63497676D02*
X51264524Y-63592914D01*
X51264524Y-63592914D02*
X51169286Y-63640533D01*
X107357142Y-35576009D02*
X107023809Y-35576009D01*
X107023809Y-36099819D02*
X107023809Y-35099819D01*
X107023809Y-35099819D02*
X107499999Y-35099819D01*
X108214285Y-35576009D02*
X108357142Y-35623628D01*
X108357142Y-35623628D02*
X108404761Y-35671247D01*
X108404761Y-35671247D02*
X108452380Y-35766485D01*
X108452380Y-35766485D02*
X108452380Y-35909342D01*
X108452380Y-35909342D02*
X108404761Y-36004580D01*
X108404761Y-36004580D02*
X108357142Y-36052200D01*
X108357142Y-36052200D02*
X108261904Y-36099819D01*
X108261904Y-36099819D02*
X107880952Y-36099819D01*
X107880952Y-36099819D02*
X107880952Y-35099819D01*
X107880952Y-35099819D02*
X108214285Y-35099819D01*
X108214285Y-35099819D02*
X108309523Y-35147438D01*
X108309523Y-35147438D02*
X108357142Y-35195057D01*
X108357142Y-35195057D02*
X108404761Y-35290295D01*
X108404761Y-35290295D02*
X108404761Y-35385533D01*
X108404761Y-35385533D02*
X108357142Y-35480771D01*
X108357142Y-35480771D02*
X108309523Y-35528390D01*
X108309523Y-35528390D02*
X108214285Y-35576009D01*
X108214285Y-35576009D02*
X107880952Y-35576009D01*
X110071428Y-35433152D02*
X110071428Y-36099819D01*
X109642857Y-35433152D02*
X109642857Y-35956961D01*
X109642857Y-35956961D02*
X109690476Y-36052200D01*
X109690476Y-36052200D02*
X109785714Y-36099819D01*
X109785714Y-36099819D02*
X109928571Y-36099819D01*
X109928571Y-36099819D02*
X110023809Y-36052200D01*
X110023809Y-36052200D02*
X110071428Y-36004580D01*
X110976190Y-36099819D02*
X110976190Y-35099819D01*
X110976190Y-36052200D02*
X110880952Y-36099819D01*
X110880952Y-36099819D02*
X110690476Y-36099819D01*
X110690476Y-36099819D02*
X110595238Y-36052200D01*
X110595238Y-36052200D02*
X110547619Y-36004580D01*
X110547619Y-36004580D02*
X110500000Y-35909342D01*
X110500000Y-35909342D02*
X110500000Y-35623628D01*
X110500000Y-35623628D02*
X110547619Y-35528390D01*
X110547619Y-35528390D02*
X110595238Y-35480771D01*
X110595238Y-35480771D02*
X110690476Y-35433152D01*
X110690476Y-35433152D02*
X110880952Y-35433152D01*
X110880952Y-35433152D02*
X110976190Y-35480771D01*
X108454819Y-32328333D02*
X109169104Y-32328333D01*
X109169104Y-32328333D02*
X109311961Y-32375952D01*
X109311961Y-32375952D02*
X109407200Y-32471190D01*
X109407200Y-32471190D02*
X109454819Y-32614047D01*
X109454819Y-32614047D02*
X109454819Y-32709285D01*
X108550057Y-31899761D02*
X108502438Y-31852142D01*
X108502438Y-31852142D02*
X108454819Y-31756904D01*
X108454819Y-31756904D02*
X108454819Y-31518809D01*
X108454819Y-31518809D02*
X108502438Y-31423571D01*
X108502438Y-31423571D02*
X108550057Y-31375952D01*
X108550057Y-31375952D02*
X108645295Y-31328333D01*
X108645295Y-31328333D02*
X108740533Y-31328333D01*
X108740533Y-31328333D02*
X108883390Y-31375952D01*
X108883390Y-31375952D02*
X109454819Y-31947380D01*
X109454819Y-31947380D02*
X109454819Y-31328333D01*
X33023095Y-70494819D02*
X33023095Y-69494819D01*
X33023095Y-69494819D02*
X33356428Y-70209104D01*
X33356428Y-70209104D02*
X33689761Y-69494819D01*
X33689761Y-69494819D02*
X33689761Y-70494819D01*
X34737380Y-70399580D02*
X34689761Y-70447200D01*
X34689761Y-70447200D02*
X34546904Y-70494819D01*
X34546904Y-70494819D02*
X34451666Y-70494819D01*
X34451666Y-70494819D02*
X34308809Y-70447200D01*
X34308809Y-70447200D02*
X34213571Y-70351961D01*
X34213571Y-70351961D02*
X34165952Y-70256723D01*
X34165952Y-70256723D02*
X34118333Y-70066247D01*
X34118333Y-70066247D02*
X34118333Y-69923390D01*
X34118333Y-69923390D02*
X34165952Y-69732914D01*
X34165952Y-69732914D02*
X34213571Y-69637676D01*
X34213571Y-69637676D02*
X34308809Y-69542438D01*
X34308809Y-69542438D02*
X34451666Y-69494819D01*
X34451666Y-69494819D02*
X34546904Y-69494819D01*
X34546904Y-69494819D02*
X34689761Y-69542438D01*
X34689761Y-69542438D02*
X34737380Y-69590057D01*
X35165952Y-70494819D02*
X35165952Y-69494819D01*
X35165952Y-69494819D02*
X35546904Y-69494819D01*
X35546904Y-69494819D02*
X35642142Y-69542438D01*
X35642142Y-69542438D02*
X35689761Y-69590057D01*
X35689761Y-69590057D02*
X35737380Y-69685295D01*
X35737380Y-69685295D02*
X35737380Y-69828152D01*
X35737380Y-69828152D02*
X35689761Y-69923390D01*
X35689761Y-69923390D02*
X35642142Y-69971009D01*
X35642142Y-69971009D02*
X35546904Y-70018628D01*
X35546904Y-70018628D02*
X35165952Y-70018628D01*
X36594523Y-69494819D02*
X36404047Y-69494819D01*
X36404047Y-69494819D02*
X36308809Y-69542438D01*
X36308809Y-69542438D02*
X36261190Y-69590057D01*
X36261190Y-69590057D02*
X36165952Y-69732914D01*
X36165952Y-69732914D02*
X36118333Y-69923390D01*
X36118333Y-69923390D02*
X36118333Y-70304342D01*
X36118333Y-70304342D02*
X36165952Y-70399580D01*
X36165952Y-70399580D02*
X36213571Y-70447200D01*
X36213571Y-70447200D02*
X36308809Y-70494819D01*
X36308809Y-70494819D02*
X36499285Y-70494819D01*
X36499285Y-70494819D02*
X36594523Y-70447200D01*
X36594523Y-70447200D02*
X36642142Y-70399580D01*
X36642142Y-70399580D02*
X36689761Y-70304342D01*
X36689761Y-70304342D02*
X36689761Y-70066247D01*
X36689761Y-70066247D02*
X36642142Y-69971009D01*
X36642142Y-69971009D02*
X36594523Y-69923390D01*
X36594523Y-69923390D02*
X36499285Y-69875771D01*
X36499285Y-69875771D02*
X36308809Y-69875771D01*
X36308809Y-69875771D02*
X36213571Y-69923390D01*
X36213571Y-69923390D02*
X36165952Y-69971009D01*
X36165952Y-69971009D02*
X36118333Y-70066247D01*
X37308809Y-69494819D02*
X37404047Y-69494819D01*
X37404047Y-69494819D02*
X37499285Y-69542438D01*
X37499285Y-69542438D02*
X37546904Y-69590057D01*
X37546904Y-69590057D02*
X37594523Y-69685295D01*
X37594523Y-69685295D02*
X37642142Y-69875771D01*
X37642142Y-69875771D02*
X37642142Y-70113866D01*
X37642142Y-70113866D02*
X37594523Y-70304342D01*
X37594523Y-70304342D02*
X37546904Y-70399580D01*
X37546904Y-70399580D02*
X37499285Y-70447200D01*
X37499285Y-70447200D02*
X37404047Y-70494819D01*
X37404047Y-70494819D02*
X37308809Y-70494819D01*
X37308809Y-70494819D02*
X37213571Y-70447200D01*
X37213571Y-70447200D02*
X37165952Y-70399580D01*
X37165952Y-70399580D02*
X37118333Y-70304342D01*
X37118333Y-70304342D02*
X37070714Y-70113866D01*
X37070714Y-70113866D02*
X37070714Y-69875771D01*
X37070714Y-69875771D02*
X37118333Y-69685295D01*
X37118333Y-69685295D02*
X37165952Y-69590057D01*
X37165952Y-69590057D02*
X37213571Y-69542438D01*
X37213571Y-69542438D02*
X37308809Y-69494819D01*
X38594523Y-70494819D02*
X38023095Y-70494819D01*
X38308809Y-70494819D02*
X38308809Y-69494819D01*
X38308809Y-69494819D02*
X38213571Y-69637676D01*
X38213571Y-69637676D02*
X38118333Y-69732914D01*
X38118333Y-69732914D02*
X38023095Y-69780533D01*
X35239819Y-64661904D02*
X36049342Y-64661904D01*
X36049342Y-64661904D02*
X36144580Y-64614285D01*
X36144580Y-64614285D02*
X36192200Y-64566666D01*
X36192200Y-64566666D02*
X36239819Y-64471428D01*
X36239819Y-64471428D02*
X36239819Y-64280952D01*
X36239819Y-64280952D02*
X36192200Y-64185714D01*
X36192200Y-64185714D02*
X36144580Y-64138095D01*
X36144580Y-64138095D02*
X36049342Y-64090476D01*
X36049342Y-64090476D02*
X35239819Y-64090476D01*
X35573152Y-63185714D02*
X36239819Y-63185714D01*
X35192200Y-63423809D02*
X35906485Y-63661904D01*
X35906485Y-63661904D02*
X35906485Y-63042857D01*
X34694524Y-75700057D02*
X34742143Y-75652438D01*
X34742143Y-75652438D02*
X34837381Y-75604819D01*
X34837381Y-75604819D02*
X35075476Y-75604819D01*
X35075476Y-75604819D02*
X35170714Y-75652438D01*
X35170714Y-75652438D02*
X35218333Y-75700057D01*
X35218333Y-75700057D02*
X35265952Y-75795295D01*
X35265952Y-75795295D02*
X35265952Y-75890533D01*
X35265952Y-75890533D02*
X35218333Y-76033390D01*
X35218333Y-76033390D02*
X34646905Y-76604819D01*
X34646905Y-76604819D02*
X35265952Y-76604819D01*
X35694524Y-76604819D02*
X35694524Y-75604819D01*
X35789762Y-76223866D02*
X36075476Y-76604819D01*
X36075476Y-75938152D02*
X35694524Y-76319104D01*
X35218333Y-74234819D02*
X34885000Y-73758628D01*
X34646905Y-74234819D02*
X34646905Y-73234819D01*
X34646905Y-73234819D02*
X35027857Y-73234819D01*
X35027857Y-73234819D02*
X35123095Y-73282438D01*
X35123095Y-73282438D02*
X35170714Y-73330057D01*
X35170714Y-73330057D02*
X35218333Y-73425295D01*
X35218333Y-73425295D02*
X35218333Y-73568152D01*
X35218333Y-73568152D02*
X35170714Y-73663390D01*
X35170714Y-73663390D02*
X35123095Y-73711009D01*
X35123095Y-73711009D02*
X35027857Y-73758628D01*
X35027857Y-73758628D02*
X34646905Y-73758628D01*
X35599286Y-73330057D02*
X35646905Y-73282438D01*
X35646905Y-73282438D02*
X35742143Y-73234819D01*
X35742143Y-73234819D02*
X35980238Y-73234819D01*
X35980238Y-73234819D02*
X36075476Y-73282438D01*
X36075476Y-73282438D02*
X36123095Y-73330057D01*
X36123095Y-73330057D02*
X36170714Y-73425295D01*
X36170714Y-73425295D02*
X36170714Y-73520533D01*
X36170714Y-73520533D02*
X36123095Y-73663390D01*
X36123095Y-73663390D02*
X35551667Y-74234819D01*
X35551667Y-74234819D02*
X36170714Y-74234819D01*
X48940714Y-81654819D02*
X49559761Y-81654819D01*
X49559761Y-81654819D02*
X49226428Y-82035771D01*
X49226428Y-82035771D02*
X49369285Y-82035771D01*
X49369285Y-82035771D02*
X49464523Y-82083390D01*
X49464523Y-82083390D02*
X49512142Y-82131009D01*
X49512142Y-82131009D02*
X49559761Y-82226247D01*
X49559761Y-82226247D02*
X49559761Y-82464342D01*
X49559761Y-82464342D02*
X49512142Y-82559580D01*
X49512142Y-82559580D02*
X49464523Y-82607200D01*
X49464523Y-82607200D02*
X49369285Y-82654819D01*
X49369285Y-82654819D02*
X49083571Y-82654819D01*
X49083571Y-82654819D02*
X48988333Y-82607200D01*
X48988333Y-82607200D02*
X48940714Y-82559580D01*
X49893095Y-81654819D02*
X50512142Y-81654819D01*
X50512142Y-81654819D02*
X50178809Y-82035771D01*
X50178809Y-82035771D02*
X50321666Y-82035771D01*
X50321666Y-82035771D02*
X50416904Y-82083390D01*
X50416904Y-82083390D02*
X50464523Y-82131009D01*
X50464523Y-82131009D02*
X50512142Y-82226247D01*
X50512142Y-82226247D02*
X50512142Y-82464342D01*
X50512142Y-82464342D02*
X50464523Y-82559580D01*
X50464523Y-82559580D02*
X50416904Y-82607200D01*
X50416904Y-82607200D02*
X50321666Y-82654819D01*
X50321666Y-82654819D02*
X50035952Y-82654819D01*
X50035952Y-82654819D02*
X49940714Y-82607200D01*
X49940714Y-82607200D02*
X49893095Y-82559580D01*
X50940714Y-82654819D02*
X50940714Y-81654819D01*
X51035952Y-82273866D02*
X51321666Y-82654819D01*
X51321666Y-81988152D02*
X50940714Y-82369104D01*
X49988333Y-80284819D02*
X49655000Y-79808628D01*
X49416905Y-80284819D02*
X49416905Y-79284819D01*
X49416905Y-79284819D02*
X49797857Y-79284819D01*
X49797857Y-79284819D02*
X49893095Y-79332438D01*
X49893095Y-79332438D02*
X49940714Y-79380057D01*
X49940714Y-79380057D02*
X49988333Y-79475295D01*
X49988333Y-79475295D02*
X49988333Y-79618152D01*
X49988333Y-79618152D02*
X49940714Y-79713390D01*
X49940714Y-79713390D02*
X49893095Y-79761009D01*
X49893095Y-79761009D02*
X49797857Y-79808628D01*
X49797857Y-79808628D02*
X49416905Y-79808628D01*
X50893095Y-79284819D02*
X50416905Y-79284819D01*
X50416905Y-79284819D02*
X50369286Y-79761009D01*
X50369286Y-79761009D02*
X50416905Y-79713390D01*
X50416905Y-79713390D02*
X50512143Y-79665771D01*
X50512143Y-79665771D02*
X50750238Y-79665771D01*
X50750238Y-79665771D02*
X50845476Y-79713390D01*
X50845476Y-79713390D02*
X50893095Y-79761009D01*
X50893095Y-79761009D02*
X50940714Y-79856247D01*
X50940714Y-79856247D02*
X50940714Y-80094342D01*
X50940714Y-80094342D02*
X50893095Y-80189580D01*
X50893095Y-80189580D02*
X50845476Y-80237200D01*
X50845476Y-80237200D02*
X50750238Y-80284819D01*
X50750238Y-80284819D02*
X50512143Y-80284819D01*
X50512143Y-80284819D02*
X50416905Y-80237200D01*
X50416905Y-80237200D02*
X50369286Y-80189580D01*
X33951667Y-56784819D02*
X33951667Y-55784819D01*
X34904047Y-56784819D02*
X34427857Y-56784819D01*
X34427857Y-56784819D02*
X34427857Y-55784819D01*
X35142143Y-55784819D02*
X35761190Y-55784819D01*
X35761190Y-55784819D02*
X35427857Y-56165771D01*
X35427857Y-56165771D02*
X35570714Y-56165771D01*
X35570714Y-56165771D02*
X35665952Y-56213390D01*
X35665952Y-56213390D02*
X35713571Y-56261009D01*
X35713571Y-56261009D02*
X35761190Y-56356247D01*
X35761190Y-56356247D02*
X35761190Y-56594342D01*
X35761190Y-56594342D02*
X35713571Y-56689580D01*
X35713571Y-56689580D02*
X35665952Y-56737200D01*
X35665952Y-56737200D02*
X35570714Y-56784819D01*
X35570714Y-56784819D02*
X35285000Y-56784819D01*
X35285000Y-56784819D02*
X35189762Y-56737200D01*
X35189762Y-56737200D02*
X35142143Y-56689580D01*
X36380238Y-55784819D02*
X36475476Y-55784819D01*
X36475476Y-55784819D02*
X36570714Y-55832438D01*
X36570714Y-55832438D02*
X36618333Y-55880057D01*
X36618333Y-55880057D02*
X36665952Y-55975295D01*
X36665952Y-55975295D02*
X36713571Y-56165771D01*
X36713571Y-56165771D02*
X36713571Y-56403866D01*
X36713571Y-56403866D02*
X36665952Y-56594342D01*
X36665952Y-56594342D02*
X36618333Y-56689580D01*
X36618333Y-56689580D02*
X36570714Y-56737200D01*
X36570714Y-56737200D02*
X36475476Y-56784819D01*
X36475476Y-56784819D02*
X36380238Y-56784819D01*
X36380238Y-56784819D02*
X36285000Y-56737200D01*
X36285000Y-56737200D02*
X36237381Y-56689580D01*
X36237381Y-56689580D02*
X36189762Y-56594342D01*
X36189762Y-56594342D02*
X36142143Y-56403866D01*
X36142143Y-56403866D02*
X36142143Y-56165771D01*
X36142143Y-56165771D02*
X36189762Y-55975295D01*
X36189762Y-55975295D02*
X36237381Y-55880057D01*
X36237381Y-55880057D02*
X36285000Y-55832438D01*
X36285000Y-55832438D02*
X36380238Y-55784819D01*
X37332619Y-55784819D02*
X37427857Y-55784819D01*
X37427857Y-55784819D02*
X37523095Y-55832438D01*
X37523095Y-55832438D02*
X37570714Y-55880057D01*
X37570714Y-55880057D02*
X37618333Y-55975295D01*
X37618333Y-55975295D02*
X37665952Y-56165771D01*
X37665952Y-56165771D02*
X37665952Y-56403866D01*
X37665952Y-56403866D02*
X37618333Y-56594342D01*
X37618333Y-56594342D02*
X37570714Y-56689580D01*
X37570714Y-56689580D02*
X37523095Y-56737200D01*
X37523095Y-56737200D02*
X37427857Y-56784819D01*
X37427857Y-56784819D02*
X37332619Y-56784819D01*
X37332619Y-56784819D02*
X37237381Y-56737200D01*
X37237381Y-56737200D02*
X37189762Y-56689580D01*
X37189762Y-56689580D02*
X37142143Y-56594342D01*
X37142143Y-56594342D02*
X37094524Y-56403866D01*
X37094524Y-56403866D02*
X37094524Y-56165771D01*
X37094524Y-56165771D02*
X37142143Y-55975295D01*
X37142143Y-55975295D02*
X37189762Y-55880057D01*
X37189762Y-55880057D02*
X37237381Y-55832438D01*
X37237381Y-55832438D02*
X37332619Y-55784819D01*
X35239819Y-50951904D02*
X36049342Y-50951904D01*
X36049342Y-50951904D02*
X36144580Y-50904285D01*
X36144580Y-50904285D02*
X36192200Y-50856666D01*
X36192200Y-50856666D02*
X36239819Y-50761428D01*
X36239819Y-50761428D02*
X36239819Y-50570952D01*
X36239819Y-50570952D02*
X36192200Y-50475714D01*
X36192200Y-50475714D02*
X36144580Y-50428095D01*
X36144580Y-50428095D02*
X36049342Y-50380476D01*
X36049342Y-50380476D02*
X35239819Y-50380476D01*
X36239819Y-49380476D02*
X36239819Y-49951904D01*
X36239819Y-49666190D02*
X35239819Y-49666190D01*
X35239819Y-49666190D02*
X35382676Y-49761428D01*
X35382676Y-49761428D02*
X35477914Y-49856666D01*
X35477914Y-49856666D02*
X35525533Y-49951904D01*
X29285714Y-27534819D02*
X29285714Y-26868152D01*
X29285714Y-26534819D02*
X29238095Y-26582438D01*
X29238095Y-26582438D02*
X29285714Y-26630057D01*
X29285714Y-26630057D02*
X29333333Y-26582438D01*
X29333333Y-26582438D02*
X29285714Y-26534819D01*
X29285714Y-26534819D02*
X29285714Y-26630057D01*
X29761904Y-26868152D02*
X29761904Y-27534819D01*
X29761904Y-26963390D02*
X29809523Y-26915771D01*
X29809523Y-26915771D02*
X29904761Y-26868152D01*
X29904761Y-26868152D02*
X30047618Y-26868152D01*
X30047618Y-26868152D02*
X30142856Y-26915771D01*
X30142856Y-26915771D02*
X30190475Y-27011009D01*
X30190475Y-27011009D02*
X30190475Y-27534819D01*
X31095237Y-27534819D02*
X31095237Y-26534819D01*
X31095237Y-27487200D02*
X30999999Y-27534819D01*
X30999999Y-27534819D02*
X30809523Y-27534819D01*
X30809523Y-27534819D02*
X30714285Y-27487200D01*
X30714285Y-27487200D02*
X30666666Y-27439580D01*
X30666666Y-27439580D02*
X30619047Y-27344342D01*
X30619047Y-27344342D02*
X30619047Y-27058628D01*
X30619047Y-27058628D02*
X30666666Y-26963390D01*
X30666666Y-26963390D02*
X30714285Y-26915771D01*
X30714285Y-26915771D02*
X30809523Y-26868152D01*
X30809523Y-26868152D02*
X30999999Y-26868152D01*
X30999999Y-26868152D02*
X31095237Y-26915771D01*
X32333333Y-27153866D02*
X33095238Y-27153866D01*
X32714285Y-27534819D02*
X32714285Y-26772914D01*
X34190476Y-26868152D02*
X34571428Y-26868152D01*
X34333333Y-27534819D02*
X34333333Y-26677676D01*
X34333333Y-26677676D02*
X34380952Y-26582438D01*
X34380952Y-26582438D02*
X34476190Y-26534819D01*
X34476190Y-26534819D02*
X34571428Y-26534819D01*
X35047619Y-27534819D02*
X34952381Y-27487200D01*
X34952381Y-27487200D02*
X34904762Y-27439580D01*
X34904762Y-27439580D02*
X34857143Y-27344342D01*
X34857143Y-27344342D02*
X34857143Y-27058628D01*
X34857143Y-27058628D02*
X34904762Y-26963390D01*
X34904762Y-26963390D02*
X34952381Y-26915771D01*
X34952381Y-26915771D02*
X35047619Y-26868152D01*
X35047619Y-26868152D02*
X35190476Y-26868152D01*
X35190476Y-26868152D02*
X35285714Y-26915771D01*
X35285714Y-26915771D02*
X35333333Y-26963390D01*
X35333333Y-26963390D02*
X35380952Y-27058628D01*
X35380952Y-27058628D02*
X35380952Y-27344342D01*
X35380952Y-27344342D02*
X35333333Y-27439580D01*
X35333333Y-27439580D02*
X35285714Y-27487200D01*
X35285714Y-27487200D02*
X35190476Y-27534819D01*
X35190476Y-27534819D02*
X35047619Y-27534819D01*
X35809524Y-27534819D02*
X35809524Y-26868152D01*
X35809524Y-27058628D02*
X35857143Y-26963390D01*
X35857143Y-26963390D02*
X35904762Y-26915771D01*
X35904762Y-26915771D02*
X36000000Y-26868152D01*
X36000000Y-26868152D02*
X36095238Y-26868152D01*
X36380953Y-27487200D02*
X36476191Y-27534819D01*
X36476191Y-27534819D02*
X36666667Y-27534819D01*
X36666667Y-27534819D02*
X36761905Y-27487200D01*
X36761905Y-27487200D02*
X36809524Y-27391961D01*
X36809524Y-27391961D02*
X36809524Y-27344342D01*
X36809524Y-27344342D02*
X36761905Y-27249104D01*
X36761905Y-27249104D02*
X36666667Y-27201485D01*
X36666667Y-27201485D02*
X36523810Y-27201485D01*
X36523810Y-27201485D02*
X36428572Y-27153866D01*
X36428572Y-27153866D02*
X36380953Y-27058628D01*
X36380953Y-27058628D02*
X36380953Y-27011009D01*
X36380953Y-27011009D02*
X36428572Y-26915771D01*
X36428572Y-26915771D02*
X36523810Y-26868152D01*
X36523810Y-26868152D02*
X36666667Y-26868152D01*
X36666667Y-26868152D02*
X36761905Y-26915771D01*
X37142858Y-26868152D02*
X37380953Y-27534819D01*
X37619048Y-26868152D02*
X37380953Y-27534819D01*
X37380953Y-27534819D02*
X37285715Y-27772914D01*
X37285715Y-27772914D02*
X37238096Y-27820533D01*
X37238096Y-27820533D02*
X37142858Y-27868152D01*
X38000001Y-26868152D02*
X38000001Y-27534819D01*
X38000001Y-26963390D02*
X38047620Y-26915771D01*
X38047620Y-26915771D02*
X38142858Y-26868152D01*
X38142858Y-26868152D02*
X38285715Y-26868152D01*
X38285715Y-26868152D02*
X38380953Y-26915771D01*
X38380953Y-26915771D02*
X38428572Y-27011009D01*
X38428572Y-27011009D02*
X38428572Y-27534819D01*
X38904763Y-27534819D02*
X38904763Y-26868152D01*
X38904763Y-26534819D02*
X38857144Y-26582438D01*
X38857144Y-26582438D02*
X38904763Y-26630057D01*
X38904763Y-26630057D02*
X38952382Y-26582438D01*
X38952382Y-26582438D02*
X38904763Y-26534819D01*
X38904763Y-26534819D02*
X38904763Y-26630057D01*
X39380953Y-26868152D02*
X39380953Y-27534819D01*
X39380953Y-26963390D02*
X39428572Y-26915771D01*
X39428572Y-26915771D02*
X39523810Y-26868152D01*
X39523810Y-26868152D02*
X39666667Y-26868152D01*
X39666667Y-26868152D02*
X39761905Y-26915771D01*
X39761905Y-26915771D02*
X39809524Y-27011009D01*
X39809524Y-27011009D02*
X39809524Y-27534819D01*
X40714286Y-26868152D02*
X40714286Y-27677676D01*
X40714286Y-27677676D02*
X40666667Y-27772914D01*
X40666667Y-27772914D02*
X40619048Y-27820533D01*
X40619048Y-27820533D02*
X40523810Y-27868152D01*
X40523810Y-27868152D02*
X40380953Y-27868152D01*
X40380953Y-27868152D02*
X40285715Y-27820533D01*
X40714286Y-27487200D02*
X40619048Y-27534819D01*
X40619048Y-27534819D02*
X40428572Y-27534819D01*
X40428572Y-27534819D02*
X40333334Y-27487200D01*
X40333334Y-27487200D02*
X40285715Y-27439580D01*
X40285715Y-27439580D02*
X40238096Y-27344342D01*
X40238096Y-27344342D02*
X40238096Y-27058628D01*
X40238096Y-27058628D02*
X40285715Y-26963390D01*
X40285715Y-26963390D02*
X40333334Y-26915771D01*
X40333334Y-26915771D02*
X40428572Y-26868152D01*
X40428572Y-26868152D02*
X40619048Y-26868152D01*
X40619048Y-26868152D02*
X40714286Y-26915771D01*
X34454819Y-32333333D02*
X35169104Y-32333333D01*
X35169104Y-32333333D02*
X35311961Y-32380952D01*
X35311961Y-32380952D02*
X35407200Y-32476190D01*
X35407200Y-32476190D02*
X35454819Y-32619047D01*
X35454819Y-32619047D02*
X35454819Y-32714285D01*
X35454819Y-31333333D02*
X35454819Y-31904761D01*
X35454819Y-31619047D02*
X34454819Y-31619047D01*
X34454819Y-31619047D02*
X34597676Y-31714285D01*
X34597676Y-31714285D02*
X34692914Y-31809523D01*
X34692914Y-31809523D02*
X34740533Y-31904761D01*
D11*
%TO.C,U3*%
X48180000Y-46110000D02*
X49180000Y-45110000D01*
X48180000Y-55270000D02*
X48180000Y-46110000D01*
X49180000Y-45110000D02*
X54530000Y-45110000D01*
X54530000Y-45110000D02*
X54530000Y-55270000D01*
X54530000Y-55270000D02*
X48180000Y-55270000D01*
%TO.C,R4*%
X31575000Y-79830000D02*
X32235000Y-79830000D01*
X39195000Y-79830000D02*
X38535000Y-79830000D01*
X32235000Y-78580000D02*
X38535000Y-78580000D01*
X38535000Y-81080000D01*
X32235000Y-81080000D01*
X32235000Y-78580000D01*
%TO.C,R3*%
X46345000Y-73780000D02*
X47005000Y-73780000D01*
X53965000Y-73780000D02*
X53305000Y-73780000D01*
X47005000Y-72530000D02*
X53305000Y-72530000D01*
X53305000Y-75030000D01*
X47005000Y-75030000D01*
X47005000Y-72530000D01*
%TO.C,R1*%
X47145000Y-63900000D02*
X47805000Y-63900000D01*
X54765000Y-63900000D02*
X54105000Y-63900000D01*
X47805000Y-62650000D02*
X54105000Y-62650000D01*
X54105000Y-65150000D01*
X47805000Y-65150000D01*
X47805000Y-62650000D01*
%TO.C,J2*%
X107730000Y-30090000D02*
X108365000Y-29455000D01*
X107730000Y-34535000D02*
X107730000Y-30090000D01*
X108365000Y-29455000D02*
X110270000Y-29455000D01*
X110270000Y-29455000D02*
X110270000Y-34535000D01*
X110270000Y-34535000D02*
X107730000Y-34535000D01*
%TO.C,U4*%
X32610000Y-59820000D02*
X33610000Y-58820000D01*
X32610000Y-68980000D02*
X32610000Y-59820000D01*
X33610000Y-58820000D02*
X38960000Y-58820000D01*
X38960000Y-58820000D02*
X38960000Y-68980000D01*
X38960000Y-68980000D02*
X32610000Y-68980000D01*
%TO.C,R2*%
X31575000Y-73780000D02*
X32235000Y-73780000D01*
X39195000Y-73780000D02*
X38535000Y-73780000D01*
X32235000Y-72530000D02*
X38535000Y-72530000D01*
X38535000Y-75030000D01*
X32235000Y-75030000D01*
X32235000Y-72530000D01*
%TO.C,R5*%
X46345000Y-79830000D02*
X47005000Y-79830000D01*
X53965000Y-79830000D02*
X53305000Y-79830000D01*
X47005000Y-78580000D02*
X53305000Y-78580000D01*
X53305000Y-81080000D01*
X47005000Y-81080000D01*
X47005000Y-78580000D01*
%TO.C,U1*%
X32610000Y-46110000D02*
X33610000Y-45110000D01*
X32610000Y-55270000D02*
X32610000Y-46110000D01*
X33610000Y-45110000D02*
X38960000Y-45110000D01*
X38960000Y-45110000D02*
X38960000Y-55270000D01*
X38960000Y-55270000D02*
X32610000Y-55270000D01*
%TO.C,J1*%
X33730000Y-28190000D02*
X36270000Y-28190000D01*
X33730000Y-35810000D02*
X33730000Y-28190000D01*
X35635000Y-35810000D02*
X33730000Y-35810000D01*
X36270000Y-28190000D02*
X36270000Y-35175000D01*
X36270000Y-35175000D02*
X35635000Y-35810000D01*
%TD*%
M02*
