%TF.GenerationSoftware,KiCad,Pcbnew,9.0.4*%
%TF.CreationDate,2026-06-11T08:54:43+02:00*%
%TF.ProjectId,feedback_circuit,66656564-6261-4636-9b5f-636972637569,rev?*%
%TF.SameCoordinates,Original*%
%TF.FileFunction,Legend,Top*%
%TF.FilePolarity,Positive*%
%FSLAX46Y46*%
G04 Gerber Fmt 4.6, Leading zero omitted, Abs format (unit mm)*
G04 Created by KiCad (PCBNEW 9.0.4) date 2026-06-11 08:54:43*
%MOMM*%
%LPD*%
G01*
G04 APERTURE LIST*
%ADD10C,0.150000*%
%ADD11C,0.120000*%
G04 APERTURE END LIST*
D10*
X63648333Y-89737319D02*
X63315000Y-89261128D01*
X63076905Y-89737319D02*
X63076905Y-88737319D01*
X63076905Y-88737319D02*
X63457857Y-88737319D01*
X63457857Y-88737319D02*
X63553095Y-88784938D01*
X63553095Y-88784938D02*
X63600714Y-88832557D01*
X63600714Y-88832557D02*
X63648333Y-88927795D01*
X63648333Y-88927795D02*
X63648333Y-89070652D01*
X63648333Y-89070652D02*
X63600714Y-89165890D01*
X63600714Y-89165890D02*
X63553095Y-89213509D01*
X63553095Y-89213509D02*
X63457857Y-89261128D01*
X63457857Y-89261128D02*
X63076905Y-89261128D01*
X64505476Y-89070652D02*
X64505476Y-89737319D01*
X64267381Y-88689700D02*
X64029286Y-89403985D01*
X64029286Y-89403985D02*
X64648333Y-89403985D01*
X79218333Y-73807319D02*
X78885000Y-73331128D01*
X78646905Y-73807319D02*
X78646905Y-72807319D01*
X78646905Y-72807319D02*
X79027857Y-72807319D01*
X79027857Y-72807319D02*
X79123095Y-72854938D01*
X79123095Y-72854938D02*
X79170714Y-72902557D01*
X79170714Y-72902557D02*
X79218333Y-72997795D01*
X79218333Y-72997795D02*
X79218333Y-73140652D01*
X79218333Y-73140652D02*
X79170714Y-73235890D01*
X79170714Y-73235890D02*
X79123095Y-73283509D01*
X79123095Y-73283509D02*
X79027857Y-73331128D01*
X79027857Y-73331128D02*
X78646905Y-73331128D01*
X80170714Y-73807319D02*
X79599286Y-73807319D01*
X79885000Y-73807319D02*
X79885000Y-72807319D01*
X79885000Y-72807319D02*
X79789762Y-72950176D01*
X79789762Y-72950176D02*
X79694524Y-73045414D01*
X79694524Y-73045414D02*
X79599286Y-73093033D01*
X78418333Y-89737319D02*
X78085000Y-89261128D01*
X77846905Y-89737319D02*
X77846905Y-88737319D01*
X77846905Y-88737319D02*
X78227857Y-88737319D01*
X78227857Y-88737319D02*
X78323095Y-88784938D01*
X78323095Y-88784938D02*
X78370714Y-88832557D01*
X78370714Y-88832557D02*
X78418333Y-88927795D01*
X78418333Y-88927795D02*
X78418333Y-89070652D01*
X78418333Y-89070652D02*
X78370714Y-89165890D01*
X78370714Y-89165890D02*
X78323095Y-89213509D01*
X78323095Y-89213509D02*
X78227857Y-89261128D01*
X78227857Y-89261128D02*
X77846905Y-89261128D01*
X79323095Y-88737319D02*
X78846905Y-88737319D01*
X78846905Y-88737319D02*
X78799286Y-89213509D01*
X78799286Y-89213509D02*
X78846905Y-89165890D01*
X78846905Y-89165890D02*
X78942143Y-89118271D01*
X78942143Y-89118271D02*
X79180238Y-89118271D01*
X79180238Y-89118271D02*
X79275476Y-89165890D01*
X79275476Y-89165890D02*
X79323095Y-89213509D01*
X79323095Y-89213509D02*
X79370714Y-89308747D01*
X79370714Y-89308747D02*
X79370714Y-89546842D01*
X79370714Y-89546842D02*
X79323095Y-89642080D01*
X79323095Y-89642080D02*
X79275476Y-89689700D01*
X79275476Y-89689700D02*
X79180238Y-89737319D01*
X79180238Y-89737319D02*
X78942143Y-89737319D01*
X78942143Y-89737319D02*
X78846905Y-89689700D01*
X78846905Y-89689700D02*
X78799286Y-89642080D01*
X43096666Y-59532319D02*
X43096666Y-60246604D01*
X43096666Y-60246604D02*
X43049047Y-60389461D01*
X43049047Y-60389461D02*
X42953809Y-60484700D01*
X42953809Y-60484700D02*
X42810952Y-60532319D01*
X42810952Y-60532319D02*
X42715714Y-60532319D01*
X44096666Y-60532319D02*
X43525238Y-60532319D01*
X43810952Y-60532319D02*
X43810952Y-59532319D01*
X43810952Y-59532319D02*
X43715714Y-59675176D01*
X43715714Y-59675176D02*
X43620476Y-59770414D01*
X43620476Y-59770414D02*
X43525238Y-59818033D01*
X78418333Y-83687319D02*
X78085000Y-83211128D01*
X77846905Y-83687319D02*
X77846905Y-82687319D01*
X77846905Y-82687319D02*
X78227857Y-82687319D01*
X78227857Y-82687319D02*
X78323095Y-82734938D01*
X78323095Y-82734938D02*
X78370714Y-82782557D01*
X78370714Y-82782557D02*
X78418333Y-82877795D01*
X78418333Y-82877795D02*
X78418333Y-83020652D01*
X78418333Y-83020652D02*
X78370714Y-83115890D01*
X78370714Y-83115890D02*
X78323095Y-83163509D01*
X78323095Y-83163509D02*
X78227857Y-83211128D01*
X78227857Y-83211128D02*
X77846905Y-83211128D01*
X78751667Y-82687319D02*
X79370714Y-82687319D01*
X79370714Y-82687319D02*
X79037381Y-83068271D01*
X79037381Y-83068271D02*
X79180238Y-83068271D01*
X79180238Y-83068271D02*
X79275476Y-83115890D01*
X79275476Y-83115890D02*
X79323095Y-83163509D01*
X79323095Y-83163509D02*
X79370714Y-83258747D01*
X79370714Y-83258747D02*
X79370714Y-83496842D01*
X79370714Y-83496842D02*
X79323095Y-83592080D01*
X79323095Y-83592080D02*
X79275476Y-83639700D01*
X79275476Y-83639700D02*
X79180238Y-83687319D01*
X79180238Y-83687319D02*
X78894524Y-83687319D01*
X78894524Y-83687319D02*
X78799286Y-83639700D01*
X78799286Y-83639700D02*
X78751667Y-83592080D01*
X63648333Y-83687319D02*
X63315000Y-83211128D01*
X63076905Y-83687319D02*
X63076905Y-82687319D01*
X63076905Y-82687319D02*
X63457857Y-82687319D01*
X63457857Y-82687319D02*
X63553095Y-82734938D01*
X63553095Y-82734938D02*
X63600714Y-82782557D01*
X63600714Y-82782557D02*
X63648333Y-82877795D01*
X63648333Y-82877795D02*
X63648333Y-83020652D01*
X63648333Y-83020652D02*
X63600714Y-83115890D01*
X63600714Y-83115890D02*
X63553095Y-83163509D01*
X63553095Y-83163509D02*
X63457857Y-83211128D01*
X63457857Y-83211128D02*
X63076905Y-83211128D01*
X64029286Y-82782557D02*
X64076905Y-82734938D01*
X64076905Y-82734938D02*
X64172143Y-82687319D01*
X64172143Y-82687319D02*
X64410238Y-82687319D01*
X64410238Y-82687319D02*
X64505476Y-82734938D01*
X64505476Y-82734938D02*
X64553095Y-82782557D01*
X64553095Y-82782557D02*
X64600714Y-82877795D01*
X64600714Y-82877795D02*
X64600714Y-82973033D01*
X64600714Y-82973033D02*
X64553095Y-83115890D01*
X64553095Y-83115890D02*
X63981667Y-83687319D01*
X63981667Y-83687319D02*
X64600714Y-83687319D01*
X100236666Y-50957319D02*
X100236666Y-51671604D01*
X100236666Y-51671604D02*
X100189047Y-51814461D01*
X100189047Y-51814461D02*
X100093809Y-51909700D01*
X100093809Y-51909700D02*
X99950952Y-51957319D01*
X99950952Y-51957319D02*
X99855714Y-51957319D01*
X100665238Y-51052557D02*
X100712857Y-51004938D01*
X100712857Y-51004938D02*
X100808095Y-50957319D01*
X100808095Y-50957319D02*
X101046190Y-50957319D01*
X101046190Y-50957319D02*
X101141428Y-51004938D01*
X101141428Y-51004938D02*
X101189047Y-51052557D01*
X101189047Y-51052557D02*
X101236666Y-51147795D01*
X101236666Y-51147795D02*
X101236666Y-51243033D01*
X101236666Y-51243033D02*
X101189047Y-51385890D01*
X101189047Y-51385890D02*
X100617619Y-51957319D01*
X100617619Y-51957319D02*
X101236666Y-51957319D01*
X79023095Y-55327319D02*
X79023095Y-56136842D01*
X79023095Y-56136842D02*
X79070714Y-56232080D01*
X79070714Y-56232080D02*
X79118333Y-56279700D01*
X79118333Y-56279700D02*
X79213571Y-56327319D01*
X79213571Y-56327319D02*
X79404047Y-56327319D01*
X79404047Y-56327319D02*
X79499285Y-56279700D01*
X79499285Y-56279700D02*
X79546904Y-56232080D01*
X79546904Y-56232080D02*
X79594523Y-56136842D01*
X79594523Y-56136842D02*
X79594523Y-55327319D01*
X79975476Y-55327319D02*
X80594523Y-55327319D01*
X80594523Y-55327319D02*
X80261190Y-55708271D01*
X80261190Y-55708271D02*
X80404047Y-55708271D01*
X80404047Y-55708271D02*
X80499285Y-55755890D01*
X80499285Y-55755890D02*
X80546904Y-55803509D01*
X80546904Y-55803509D02*
X80594523Y-55898747D01*
X80594523Y-55898747D02*
X80594523Y-56136842D01*
X80594523Y-56136842D02*
X80546904Y-56232080D01*
X80546904Y-56232080D02*
X80499285Y-56279700D01*
X80499285Y-56279700D02*
X80404047Y-56327319D01*
X80404047Y-56327319D02*
X80118333Y-56327319D01*
X80118333Y-56327319D02*
X80023095Y-56279700D01*
X80023095Y-56279700D02*
X79975476Y-56232080D01*
X63453095Y-55327319D02*
X63453095Y-56136842D01*
X63453095Y-56136842D02*
X63500714Y-56232080D01*
X63500714Y-56232080D02*
X63548333Y-56279700D01*
X63548333Y-56279700D02*
X63643571Y-56327319D01*
X63643571Y-56327319D02*
X63834047Y-56327319D01*
X63834047Y-56327319D02*
X63929285Y-56279700D01*
X63929285Y-56279700D02*
X63976904Y-56232080D01*
X63976904Y-56232080D02*
X64024523Y-56136842D01*
X64024523Y-56136842D02*
X64024523Y-55327319D01*
X65024523Y-56327319D02*
X64453095Y-56327319D01*
X64738809Y-56327319D02*
X64738809Y-55327319D01*
X64738809Y-55327319D02*
X64643571Y-55470176D01*
X64643571Y-55470176D02*
X64548333Y-55565414D01*
X64548333Y-55565414D02*
X64453095Y-55613033D01*
X63453095Y-69037319D02*
X63453095Y-69846842D01*
X63453095Y-69846842D02*
X63500714Y-69942080D01*
X63500714Y-69942080D02*
X63548333Y-69989700D01*
X63548333Y-69989700D02*
X63643571Y-70037319D01*
X63643571Y-70037319D02*
X63834047Y-70037319D01*
X63834047Y-70037319D02*
X63929285Y-69989700D01*
X63929285Y-69989700D02*
X63976904Y-69942080D01*
X63976904Y-69942080D02*
X64024523Y-69846842D01*
X64024523Y-69846842D02*
X64024523Y-69037319D01*
X64929285Y-69370652D02*
X64929285Y-70037319D01*
X64691190Y-68989700D02*
X64453095Y-69703985D01*
X64453095Y-69703985D02*
X65072142Y-69703985D01*
D11*
%TO.C,R4*%
X60545000Y-90282500D02*
X67085000Y-90282500D01*
X60545000Y-90612500D02*
X60545000Y-90282500D01*
X60545000Y-92692500D02*
X60545000Y-93022500D01*
X60545000Y-93022500D02*
X67085000Y-93022500D01*
X67085000Y-90282500D02*
X67085000Y-90612500D01*
X67085000Y-93022500D02*
X67085000Y-92692500D01*
%TO.C,R1*%
X76115000Y-74352500D02*
X82655000Y-74352500D01*
X76115000Y-74682500D02*
X76115000Y-74352500D01*
X76115000Y-76762500D02*
X76115000Y-77092500D01*
X76115000Y-77092500D02*
X82655000Y-77092500D01*
X82655000Y-74352500D02*
X82655000Y-74682500D01*
X82655000Y-77092500D02*
X82655000Y-76762500D01*
%TO.C,R5*%
X75315000Y-90282500D02*
X81855000Y-90282500D01*
X75315000Y-90612500D02*
X75315000Y-90282500D01*
X75315000Y-92692500D02*
X75315000Y-93022500D01*
X75315000Y-93022500D02*
X81855000Y-93022500D01*
X81855000Y-90282500D02*
X81855000Y-90612500D01*
X81855000Y-93022500D02*
X81855000Y-92692500D01*
%TO.C,J1*%
X42050000Y-56427500D02*
X42050000Y-51237500D01*
X44810000Y-51237500D02*
X42050000Y-51237500D01*
X44810000Y-56427500D02*
X42050000Y-56427500D01*
X44810000Y-56427500D02*
X44810000Y-51237500D01*
X44810000Y-57697500D02*
X44810000Y-59077500D01*
X44810000Y-59077500D02*
X43430000Y-59077500D01*
%TO.C,R3*%
X75315000Y-84232500D02*
X81855000Y-84232500D01*
X75315000Y-84562500D02*
X75315000Y-84232500D01*
X75315000Y-86642500D02*
X75315000Y-86972500D01*
X75315000Y-86972500D02*
X81855000Y-86972500D01*
X81855000Y-84232500D02*
X81855000Y-84562500D01*
X81855000Y-86972500D02*
X81855000Y-86642500D01*
%TO.C,R2*%
X60545000Y-84232500D02*
X67085000Y-84232500D01*
X60545000Y-84562500D02*
X60545000Y-84232500D01*
X60545000Y-86642500D02*
X60545000Y-86972500D01*
X60545000Y-86972500D02*
X67085000Y-86972500D01*
X67085000Y-84232500D02*
X67085000Y-84562500D01*
X67085000Y-86972500D02*
X67085000Y-86642500D01*
%TO.C,J2*%
X99190000Y-52502500D02*
X100570000Y-52502500D01*
X99190000Y-53882500D02*
X99190000Y-52502500D01*
X99190000Y-55152500D02*
X99190000Y-57802500D01*
X99190000Y-55152500D02*
X101950000Y-55152500D01*
X99190000Y-57802500D02*
X101950000Y-57802500D01*
X101950000Y-55152500D02*
X101950000Y-57802500D01*
%TO.C,U3*%
X77535000Y-56872500D02*
X77535000Y-67152500D01*
X77535000Y-67152500D02*
X82035000Y-67152500D01*
X78785000Y-56872500D02*
X77535000Y-56872500D01*
X82035000Y-56872500D02*
X80785000Y-56872500D01*
X82035000Y-67152500D02*
X82035000Y-56872500D01*
X80785000Y-56872500D02*
G75*
G02*
X78785000Y-56872500I-1000000J0D01*
G01*
%TO.C,U1*%
X61965000Y-56872500D02*
X61965000Y-67152500D01*
X61965000Y-67152500D02*
X66465000Y-67152500D01*
X63215000Y-56872500D02*
X61965000Y-56872500D01*
X66465000Y-56872500D02*
X65215000Y-56872500D01*
X66465000Y-67152500D02*
X66465000Y-56872500D01*
X65215000Y-56872500D02*
G75*
G02*
X63215000Y-56872500I-1000000J0D01*
G01*
%TO.C,U4*%
X61965000Y-70582500D02*
X61965000Y-80862500D01*
X61965000Y-80862500D02*
X66465000Y-80862500D01*
X63215000Y-70582500D02*
X61965000Y-70582500D01*
X66465000Y-70582500D02*
X65215000Y-70582500D01*
X66465000Y-80862500D02*
X66465000Y-70582500D01*
X65215000Y-70582500D02*
G75*
G02*
X63215000Y-70582500I-1000000J0D01*
G01*
%TD*%
M02*
