M48
; DRILL file {KiCad 9.0.6} date 2026-06-10T06:46:29+0200
; FORMAT={-:-/ absolute / metric / decimal}
; #@! TF.CreationDate,2026-06-10T06:46:29+02:00
; #@! TF.GenerationSoftware,Kicad,Pcbnew,9.0.6
; #@! TF.FileFunction,MixedPlating,1,2
FMAT,2
METRIC
; #@! TA.AperFunction,Plated,PTH,ComponentDrill
T1C0.800
; #@! TA.AperFunction,Plated,PTH,ComponentDrill
T2C1.000
; #@! TA.AperFunction,Plated,PTH,ComponentDrill
T3C1.100
; #@! TA.AperFunction,Plated,PTH,ComponentDrill
T4C1.520
%
G90
G05
T1
X54.075Y-67.325
X54.475Y-47.815
X54.475Y-50.355
X54.475Y-52.895
X54.475Y-55.435
X61.695Y-67.325
X62.095Y-47.815
X62.095Y-50.355
X62.095Y-52.895
X62.095Y-55.435
X71.845Y-67.325
X73.045Y-44.005
X73.045Y-46.545
X73.045Y-49.085
X73.045Y-51.625
X73.045Y-54.165
X73.045Y-56.705
X73.045Y-59.245
X79.465Y-67.325
X80.665Y-44.005
X80.665Y-46.545
X80.665Y-49.085
X80.665Y-51.625
X80.665Y-54.165
X80.665Y-56.705
X80.665Y-59.245
X89.615Y-67.325
X92.86Y-51.625
X96.36Y-51.625
X97.235Y-67.325
X107.385Y-67.325
X107.96Y-51.625
X112.96Y-51.625
X115.005Y-67.325
T2
X35.0Y-30.735
X35.0Y-33.275
T3
X54.375Y-34.975
X64.535Y-34.975
X75.285Y-34.975
X85.445Y-34.975
X97.555Y-35.925
X100.095Y-35.925
X102.635Y-35.925
T4
X133.0Y-32.0
X135.54Y-46.05
X138.08Y-32.0
X140.62Y-46.05
X143.16Y-32.0
M30
