%TF.GenerationSoftware,KiCad,Pcbnew,9.0.4*%
%TF.CreationDate,2026-06-11T08:54:40+02:00*%
%TF.ProjectId,drive_circuit,64726976-655f-4636-9972-637569742e6b,rev?*%
%TF.SameCoordinates,Original*%
%TF.FileFunction,Copper,L2,Bot*%
%TF.FilePolarity,Positive*%
%FSLAX46Y46*%
G04 Gerber Fmt 4.6, Leading zero omitted, Abs format (unit mm)*
G04 Created by KiCad (PCBNEW 9.0.4) date 2026-06-11 08:54:40*
%MOMM*%
%LPD*%
G01*
G04 APERTURE LIST*
G04 Aperture macros list*
%AMRoundRect*
0 Rectangle with rounded corners*
0 $1 Rounding radius*
0 $2 $3 $4 $5 $6 $7 $8 $9 X,Y pos of 4 corners*
0 Add a 4 corners polygon primitive as box body*
4,1,4,$2,$3,$4,$5,$6,$7,$8,$9,$2,$3,0*
0 Add four circle primitives for the rounded corners*
1,1,$1+$1,$2,$3*
1,1,$1+$1,$4,$5*
1,1,$1+$1,$6,$7*
1,1,$1+$1,$8,$9*
0 Add four rect primitives between the rounded corners*
20,1,$1+$1,$2,$3,$4,$5,0*
20,1,$1+$1,$4,$5,$6,$7,0*
20,1,$1+$1,$6,$7,$8,$9,0*
20,1,$1+$1,$8,$9,$2,$3,0*%
G04 Aperture macros list end*
%TA.AperFunction,ComponentPad*%
%ADD10R,1.700000X1.700000*%
%TD*%
%TA.AperFunction,ComponentPad*%
%ADD11C,1.700000*%
%TD*%
%TA.AperFunction,ComponentPad*%
%ADD12RoundRect,0.250000X-0.550000X-0.550000X0.550000X-0.550000X0.550000X0.550000X-0.550000X0.550000X0*%
%TD*%
%TA.AperFunction,ComponentPad*%
%ADD13C,1.600000*%
%TD*%
%TA.AperFunction,ComponentPad*%
%ADD14RoundRect,0.249999X-0.850001X-0.850001X0.850001X-0.850001X0.850001X0.850001X-0.850001X0.850001X0*%
%TD*%
%TA.AperFunction,ComponentPad*%
%ADD15C,2.200000*%
%TD*%
%TA.AperFunction,ComponentPad*%
%ADD16R,3.000000X3.000000*%
%TD*%
%TA.AperFunction,ComponentPad*%
%ADD17C,3.000000*%
%TD*%
%TA.AperFunction,ComponentPad*%
%ADD18R,1.700000X2.000000*%
%TD*%
%TA.AperFunction,ComponentPad*%
%ADD19O,1.700000X2.000000*%
%TD*%
%TA.AperFunction,ComponentPad*%
%ADD20RoundRect,0.250000X-0.950000X-0.550000X0.950000X-0.550000X0.950000X0.550000X-0.950000X0.550000X0*%
%TD*%
%TA.AperFunction,ComponentPad*%
%ADD21O,2.400000X1.600000*%
%TD*%
%TA.AperFunction,Conductor*%
%ADD22C,1.000000*%
%TD*%
G04 APERTURE END LIST*
D10*
%TO.P,J1,1*%
%TO.N,PWM*%
X49775000Y-50000000D03*
D11*
%TO.P,J1,2*%
%TO.N,GND*%
X47235000Y-50000000D03*
%TD*%
D12*
%TO.P,C1,1*%
%TO.N,+15V*%
X33219700Y-88450000D03*
D13*
%TO.P,C1,2*%
%TO.N,GND*%
X36719700Y-88450000D03*
%TD*%
D14*
%TO.P,D2,1*%
%TO.N,Net-(D2-K)*%
X49785000Y-58200000D03*
D15*
%TO.P,D2,2*%
%TO.N,Net-(D2-A)*%
X59945000Y-58200000D03*
%TD*%
D16*
%TO.P,J2,1*%
%TO.N,+20V*%
X77550000Y-43920000D03*
D17*
%TO.P,J2,2*%
%TO.N,+15V*%
X77550000Y-49000000D03*
%TO.P,J2,3*%
%TO.N,GND*%
X77550000Y-54080000D03*
%TD*%
D13*
%TO.P,R2,1*%
%TO.N,Net-(D2-K)*%
X31575000Y-97250000D03*
%TO.P,R2,2*%
%TO.N,Net-(D2-A)*%
X39195000Y-97250000D03*
%TD*%
%TO.P,R1,1*%
%TO.N,PWM*%
X57469700Y-88450000D03*
%TO.P,R1,2*%
%TO.N,Net-(R1-Pad2)*%
X65089700Y-88450000D03*
%TD*%
D16*
%TO.P,M1,1*%
%TO.N,+20V*%
X65500000Y-46460000D03*
D17*
%TO.P,M1,2*%
%TO.N,Net-(D1-A)*%
X65500000Y-51540000D03*
%TD*%
D14*
%TO.P,D1,1*%
%TO.N,+20V*%
X31875000Y-58200000D03*
D15*
%TO.P,D1,2*%
%TO.N,Net-(D1-A)*%
X42035000Y-58200000D03*
%TD*%
D13*
%TO.P,R3,1*%
%TO.N,Net-(U2-LIN)*%
X46345000Y-97250000D03*
%TO.P,R3,2*%
%TO.N,GND*%
X53965000Y-97250000D03*
%TD*%
%TO.P,R4,1*%
%TO.N,Net-(D2-A)*%
X61115000Y-97250000D03*
%TO.P,R4,2*%
%TO.N,GND*%
X68735000Y-97250000D03*
%TD*%
D18*
%TO.P,Q1,1*%
%TO.N,Net-(D2-A)*%
X33235000Y-72950000D03*
D19*
%TO.P,Q1,2*%
%TO.N,Net-(D1-A)*%
X35775000Y-72950000D03*
%TO.P,Q1,3*%
%TO.N,GND*%
X38315000Y-72950000D03*
%TD*%
D13*
%TO.P,C2,1*%
%TO.N,+15V*%
X45319700Y-88450000D03*
%TO.P,C2,2*%
%TO.N,GND*%
X50319700Y-88450000D03*
%TD*%
D20*
%TO.P,U2,1*%
%TO.N,Net-(D2-K)*%
X63095000Y-64380000D03*
D21*
%TO.P,U2,2*%
%TO.N,GND*%
X63095000Y-66920000D03*
%TO.P,U2,3*%
%TO.N,+15V*%
X63095000Y-69460000D03*
%TO.P,U2,4*%
%TO.N,N/C*%
X63095000Y-72000000D03*
%TO.P,U2,5*%
%TO.N,GND*%
X63095000Y-74540000D03*
%TO.P,U2,6*%
%TO.N,N/C*%
X63095000Y-77080000D03*
%TO.P,U2,7*%
X63095000Y-79620000D03*
%TO.P,U2,8*%
X70715000Y-79620000D03*
%TO.P,U2,9*%
%TO.N,+15V*%
X70715000Y-77080000D03*
%TO.P,U2,10*%
%TO.N,GND*%
X70715000Y-74540000D03*
%TO.P,U2,11*%
X70715000Y-72000000D03*
%TO.P,U2,12*%
%TO.N,Net-(U2-LIN)*%
X70715000Y-69460000D03*
%TO.P,U2,13*%
%TO.N,GND*%
X70715000Y-66920000D03*
%TO.P,U2,14*%
%TO.N,N/C*%
X70715000Y-64380000D03*
%TD*%
D20*
%TO.P,U1,1*%
%TO.N,Net-(R1-Pad2)*%
X47525000Y-68190000D03*
D21*
%TO.P,U1,2*%
%TO.N,GND*%
X47525000Y-70730000D03*
%TO.P,U1,3*%
%TO.N,N/C*%
X47525000Y-73270000D03*
%TO.P,U1,4*%
X47525000Y-75810000D03*
%TO.P,U1,5*%
X55145000Y-75810000D03*
%TO.P,U1,6*%
X55145000Y-73270000D03*
%TO.P,U1,7*%
%TO.N,+15V*%
X55145000Y-70730000D03*
%TO.P,U1,8*%
%TO.N,Net-(U2-LIN)*%
X55145000Y-68190000D03*
%TD*%
D22*
%TO.N,+15V*%
X70715000Y-77080000D02*
X68213300Y-77080000D01*
X63095000Y-69460000D02*
X64345900Y-69460000D01*
X60223800Y-69829500D02*
X58904100Y-71149200D01*
X43201200Y-86331500D02*
X43201200Y-68808400D01*
X68213300Y-77896500D02*
X64385400Y-81724400D01*
X61821400Y-81724400D02*
X58904100Y-78807100D01*
X67403900Y-66402000D02*
X67403900Y-59146100D01*
X64385400Y-81724400D02*
X61821400Y-81724400D01*
X64345900Y-69460000D02*
X67403900Y-66402000D01*
X56438700Y-66044400D02*
X60223800Y-69829500D01*
X45965200Y-66044400D02*
X56438700Y-66044400D01*
X58904100Y-78807100D02*
X58904100Y-71149200D01*
X58065900Y-71149200D02*
X58904100Y-71149200D01*
X61844200Y-69460000D02*
X60593300Y-69460000D01*
X57646700Y-70730000D02*
X58065900Y-71149200D01*
X33219700Y-88450000D02*
X35338200Y-86331500D01*
X68213300Y-77080000D02*
X68213300Y-77896500D01*
X43201200Y-86331500D02*
X45319700Y-88450000D01*
X43201200Y-68808400D02*
X45965200Y-66044400D01*
X63095000Y-69460000D02*
X61844200Y-69460000D01*
X55145000Y-70730000D02*
X57646700Y-70730000D01*
X67403900Y-59146100D02*
X77550000Y-49000000D01*
X60593300Y-69460000D02*
X60223800Y-69829500D01*
X35338200Y-86331500D02*
X43201200Y-86331500D01*
%TO.N,+20V*%
X62698300Y-44143400D02*
X45931600Y-44143400D01*
X63205700Y-43636000D02*
X62698300Y-44143400D01*
X45931600Y-44143400D02*
X31875000Y-58200000D01*
X74464300Y-43636000D02*
X63205700Y-43636000D01*
X65500000Y-46460000D02*
X62698300Y-46460000D01*
X62698300Y-44143400D02*
X62698300Y-46460000D01*
X74748300Y-43920000D02*
X74464300Y-43636000D01*
X77550000Y-43920000D02*
X74748300Y-43920000D01*
%TO.N,GND*%
X50319700Y-88450000D02*
X45023300Y-83153600D01*
X48668500Y-90552400D02*
X38822100Y-90552400D01*
X70715000Y-72000000D02*
X68213300Y-72000000D01*
X77550000Y-62586700D02*
X73216700Y-66920000D01*
X47525000Y-70730000D02*
X45023300Y-70730000D01*
X53020200Y-47811500D02*
X65602200Y-60393500D01*
X70715000Y-72000000D02*
X70715000Y-74540000D01*
X48668500Y-90101200D02*
X50319700Y-88450000D01*
X77550000Y-54080000D02*
X77550000Y-62586700D01*
X68213300Y-68515100D02*
X68213300Y-72000000D01*
X70936500Y-66920000D02*
X72765900Y-66920000D01*
X53965000Y-95091700D02*
X53965000Y-97250000D01*
X53965000Y-95091600D02*
X53965000Y-95091700D01*
X63095000Y-74540000D02*
X70715000Y-74540000D01*
X69808400Y-66920000D02*
X68213300Y-68515100D01*
X48668500Y-90552400D02*
X53207700Y-95091600D01*
X73215200Y-66920000D02*
X73216700Y-66920000D01*
X47235000Y-50000000D02*
X47235000Y-48893700D01*
X66576700Y-95091700D02*
X68735000Y-97250000D01*
X53965000Y-95091700D02*
X66576700Y-95091700D01*
X45023300Y-83153600D02*
X45023300Y-70730000D01*
X70715000Y-66920000D02*
X69808400Y-66920000D01*
X53207700Y-95091600D02*
X53965000Y-95091600D01*
X64250800Y-66920000D02*
X63095000Y-66920000D01*
X48668500Y-90552400D02*
X48668500Y-90101200D01*
X65602200Y-60393500D02*
X65602200Y-65568600D01*
X65602200Y-65568600D02*
X64250800Y-66920000D01*
X47235000Y-48893700D02*
X48317200Y-47811500D01*
X70936500Y-66920000D02*
X70715000Y-66920000D01*
X72765900Y-66920000D02*
X73215200Y-66920000D01*
X48317200Y-47811500D02*
X53020200Y-47811500D01*
X38822100Y-90552400D02*
X36719700Y-88450000D01*
%TO.N,Net-(D1-A)*%
X35775000Y-64460000D02*
X42035000Y-58200000D01*
X65230400Y-51540000D02*
X59700200Y-46009800D01*
X42035000Y-51503200D02*
X42035000Y-58200000D01*
X65500000Y-51540000D02*
X65230400Y-51540000D01*
X59700200Y-46009800D02*
X47528400Y-46009800D01*
X47528400Y-46009800D02*
X42035000Y-51503200D01*
X35775000Y-72950000D02*
X35775000Y-64460000D01*
%TO.N,Net-(D2-A)*%
X39195000Y-97250000D02*
X37086400Y-99358600D01*
X37086400Y-99358600D02*
X30707500Y-99358600D01*
X58997300Y-99367700D02*
X53110500Y-99367700D01*
X33235000Y-72950000D02*
X33234800Y-72950000D01*
X30707500Y-99358600D02*
X29195800Y-97846900D01*
X48839400Y-95096600D02*
X41348400Y-95096600D01*
X53110500Y-99367700D02*
X48839400Y-95096600D01*
X61115000Y-97250000D02*
X58997300Y-99367700D01*
X33234800Y-72950000D02*
X31083300Y-72950000D01*
X29195800Y-74837500D02*
X31083300Y-72950000D01*
X29195800Y-97846900D02*
X29195800Y-74837500D01*
X41348400Y-95096600D02*
X39195000Y-97250000D01*
%TO.N,Net-(D2-K)*%
X63095000Y-64380000D02*
X60136400Y-61421400D01*
X31084800Y-83498600D02*
X40498400Y-74085000D01*
X40498400Y-68891700D02*
X47968700Y-61421400D01*
X60136400Y-61421400D02*
X49785000Y-61421400D01*
X40498400Y-74085000D02*
X40498400Y-68891700D01*
X47968700Y-61421400D02*
X49785000Y-61421400D01*
X31575000Y-97250000D02*
X31084800Y-96759800D01*
X31084800Y-96759800D02*
X31084800Y-83498600D01*
X49785000Y-61421400D02*
X49785000Y-58200000D01*
%TO.N,Net-(R1-Pad2)*%
X48413700Y-68190000D02*
X50434200Y-70210500D01*
X47525000Y-68190000D02*
X48413700Y-68190000D01*
X50434200Y-77097400D02*
X61786800Y-88450000D01*
X61786800Y-88450000D02*
X65089700Y-88450000D01*
X50434200Y-70210500D02*
X50434200Y-77097400D01*
%TO.N,Net-(U2-LIN)*%
X70866800Y-98148700D02*
X67799800Y-101215700D01*
X70866800Y-83534800D02*
X70866800Y-98148700D01*
X70715000Y-69460000D02*
X73216700Y-69460000D01*
X70866800Y-83534800D02*
X73216700Y-81184900D01*
X50310700Y-101215700D02*
X46345000Y-97250000D01*
X67799800Y-101215700D02*
X50310700Y-101215700D01*
X73216700Y-81184900D02*
X73216700Y-69460000D01*
X59468700Y-83534800D02*
X70866800Y-83534800D01*
X55145000Y-68190000D02*
X52643300Y-68190000D01*
X52643300Y-68190000D02*
X52643300Y-76709400D01*
X52643300Y-76709400D02*
X59468700Y-83534800D01*
%TD*%
%TA.AperFunction,NonConductor*%
G36*
X123442539Y-20520185D02*
G01*
X123488294Y-20572989D01*
X123499500Y-20624500D01*
X123499500Y-123375500D01*
X123479815Y-123442539D01*
X123427011Y-123488294D01*
X123375500Y-123499500D01*
X20624500Y-123499500D01*
X20557461Y-123479815D01*
X20511706Y-123427011D01*
X20500500Y-123375500D01*
X20500500Y-74735148D01*
X27895300Y-74735148D01*
X27895300Y-97949257D01*
X27909422Y-98038415D01*
X27912888Y-98060300D01*
X27927323Y-98151434D01*
X27959691Y-98251051D01*
X27990581Y-98346123D01*
X28001032Y-98366633D01*
X28001033Y-98366634D01*
X28083513Y-98528511D01*
X28203834Y-98694119D01*
X28203835Y-98694120D01*
X28203836Y-98694121D01*
X29712408Y-100202692D01*
X29712422Y-100202707D01*
X29715533Y-100205818D01*
X29715534Y-100205819D01*
X29860281Y-100350566D01*
X29860284Y-100350568D01*
X29860288Y-100350572D01*
X30010468Y-100459682D01*
X30025890Y-100470887D01*
X30112735Y-100515137D01*
X30208281Y-100563821D01*
X30208284Y-100563822D01*
X30305621Y-100595448D01*
X30402966Y-100627077D01*
X30605148Y-100659100D01*
X30605149Y-100659100D01*
X37188751Y-100659100D01*
X37188752Y-100659100D01*
X37390935Y-100627077D01*
X37488276Y-100595448D01*
X37585619Y-100563820D01*
X37676814Y-100517353D01*
X37768011Y-100470887D01*
X37933619Y-100350566D01*
X39426409Y-98857773D01*
X39487730Y-98824290D01*
X39494649Y-98822989D01*
X39569785Y-98811090D01*
X39809379Y-98733241D01*
X40033845Y-98618870D01*
X40237656Y-98470793D01*
X40415793Y-98292656D01*
X40563870Y-98088845D01*
X40678241Y-97864379D01*
X40756090Y-97624785D01*
X40767984Y-97549687D01*
X40797911Y-97486557D01*
X40802757Y-97481426D01*
X41850766Y-96433419D01*
X41912089Y-96399934D01*
X41938447Y-96397100D01*
X44780942Y-96397100D01*
X44847981Y-96416785D01*
X44893736Y-96469589D01*
X44903680Y-96538747D01*
X44891426Y-96577396D01*
X44861761Y-96635614D01*
X44783910Y-96875214D01*
X44744500Y-97124038D01*
X44744500Y-97375961D01*
X44783910Y-97624785D01*
X44861760Y-97864383D01*
X44928166Y-97994711D01*
X44965101Y-98067200D01*
X44976132Y-98088848D01*
X45124201Y-98292649D01*
X45124205Y-98292654D01*
X45302345Y-98470794D01*
X45302350Y-98470798D01*
X45381786Y-98528511D01*
X45506155Y-98618870D01*
X45638080Y-98686089D01*
X45730616Y-98733239D01*
X45730618Y-98733239D01*
X45730621Y-98733241D01*
X45859049Y-98774970D01*
X45970214Y-98811090D01*
X46009439Y-98817302D01*
X46045306Y-98822983D01*
X46108441Y-98852912D01*
X46113590Y-98857775D01*
X49315608Y-102059792D01*
X49315622Y-102059807D01*
X49318733Y-102062918D01*
X49318734Y-102062919D01*
X49463481Y-102207666D01*
X49463484Y-102207668D01*
X49463488Y-102207672D01*
X49613668Y-102316782D01*
X49629090Y-102327987D01*
X49715935Y-102372237D01*
X49811481Y-102420921D01*
X49811484Y-102420922D01*
X49908821Y-102452548D01*
X50006166Y-102484177D01*
X50208348Y-102516200D01*
X50208349Y-102516200D01*
X67902151Y-102516200D01*
X67902152Y-102516200D01*
X68104335Y-102484177D01*
X68201676Y-102452548D01*
X68299019Y-102420920D01*
X68390214Y-102374453D01*
X68481411Y-102327987D01*
X68647019Y-102207666D01*
X71858766Y-98995919D01*
X71979087Y-98830311D01*
X72052571Y-98686089D01*
X72072020Y-98647919D01*
X72135277Y-98453234D01*
X72167300Y-98251052D01*
X72167300Y-84124847D01*
X72186985Y-84057808D01*
X72203619Y-84037166D01*
X72239821Y-84000964D01*
X74208666Y-82032119D01*
X74328986Y-81866511D01*
X74328987Y-81866510D01*
X74421920Y-81684119D01*
X74485177Y-81489434D01*
X74517200Y-81287252D01*
X74517200Y-69357648D01*
X74485177Y-69155466D01*
X74421920Y-68960781D01*
X74421918Y-68960778D01*
X74421918Y-68960776D01*
X74388203Y-68894607D01*
X74328987Y-68778390D01*
X74295490Y-68732285D01*
X74208671Y-68612786D01*
X74063913Y-68468028D01*
X73898313Y-68347715D01*
X73898312Y-68347714D01*
X73898310Y-68347713D01*
X73805617Y-68300483D01*
X73796481Y-68291854D01*
X73784837Y-68287134D01*
X73776843Y-68275803D01*
X73775729Y-68276918D01*
X73775728Y-68276917D01*
X73770470Y-68267288D01*
X73754822Y-68252509D01*
X73751801Y-68240311D01*
X73744557Y-68230044D01*
X73744077Y-68218953D01*
X73742243Y-68215594D01*
X73743013Y-68204823D01*
X73738027Y-68184688D01*
X73742080Y-68172794D01*
X73741537Y-68160240D01*
X73746853Y-68151123D01*
X73747227Y-68145902D01*
X73754600Y-68136051D01*
X73760564Y-68118553D01*
X73771249Y-68109290D01*
X73776735Y-68099884D01*
X73787197Y-68092508D01*
X73789099Y-68089969D01*
X73803677Y-68080891D01*
X73805464Y-68079631D01*
X73805572Y-68079538D01*
X73807114Y-68078753D01*
X73898311Y-68032287D01*
X74063919Y-67911966D01*
X78390150Y-63585732D01*
X78390157Y-63585727D01*
X78397217Y-63578667D01*
X78397219Y-63578666D01*
X78541966Y-63433919D01*
X78541968Y-63433915D01*
X78541971Y-63433913D01*
X78662286Y-63268311D01*
X78674904Y-63243549D01*
X78755221Y-63085918D01*
X78755222Y-63085915D01*
X78779521Y-63011130D01*
X78818477Y-62891234D01*
X78850500Y-62689051D01*
X78850500Y-62484348D01*
X78850500Y-56042958D01*
X78870185Y-55975919D01*
X78899014Y-55944582D01*
X79070080Y-55813319D01*
X79283319Y-55600080D01*
X79466900Y-55360832D01*
X79617683Y-55099668D01*
X79733087Y-54821058D01*
X79811138Y-54529768D01*
X79850500Y-54230783D01*
X79850500Y-53929217D01*
X79811138Y-53630232D01*
X79733087Y-53338942D01*
X79705905Y-53273320D01*
X79689450Y-53233593D01*
X79617683Y-53060332D01*
X79617540Y-53060085D01*
X79466900Y-52799168D01*
X79283320Y-52559921D01*
X79283314Y-52559914D01*
X79070085Y-52346685D01*
X79070078Y-52346679D01*
X78830831Y-52163099D01*
X78569671Y-52012318D01*
X78569661Y-52012314D01*
X78291060Y-51896913D01*
X77999766Y-51818861D01*
X77700793Y-51779501D01*
X77700788Y-51779500D01*
X77700783Y-51779500D01*
X77399217Y-51779500D01*
X77399211Y-51779500D01*
X77399206Y-51779501D01*
X77100233Y-51818861D01*
X76823366Y-51893048D01*
X76753517Y-51891385D01*
X76695654Y-51852222D01*
X76668150Y-51787994D01*
X76679736Y-51719092D01*
X76703592Y-51685592D01*
X76859607Y-51529577D01*
X77081573Y-51307610D01*
X77142894Y-51274127D01*
X77185433Y-51272354D01*
X77386813Y-51298866D01*
X77399201Y-51300498D01*
X77399217Y-51300500D01*
X77399224Y-51300500D01*
X77700776Y-51300500D01*
X77700783Y-51300500D01*
X77999768Y-51261138D01*
X78291058Y-51183087D01*
X78569668Y-51067683D01*
X78830832Y-50916900D01*
X79070080Y-50733319D01*
X79283319Y-50520080D01*
X79466900Y-50280832D01*
X79617683Y-50019668D01*
X79733087Y-49741058D01*
X79811138Y-49449768D01*
X79850500Y-49150783D01*
X79850500Y-48849217D01*
X79811138Y-48550232D01*
X79733087Y-48258942D01*
X79617683Y-47980332D01*
X79466900Y-47719168D01*
X79283320Y-47479921D01*
X79283314Y-47479914D01*
X79070085Y-47266685D01*
X79070078Y-47266679D01*
X78830831Y-47083099D01*
X78569671Y-46932318D01*
X78569661Y-46932314D01*
X78291060Y-46816913D01*
X77999766Y-46738861D01*
X77700793Y-46699501D01*
X77700788Y-46699500D01*
X77700783Y-46699500D01*
X77399217Y-46699500D01*
X77399211Y-46699500D01*
X77399206Y-46699501D01*
X77100233Y-46738861D01*
X76808939Y-46816913D01*
X76530338Y-46932314D01*
X76530328Y-46932318D01*
X76269168Y-47083099D01*
X76029921Y-47266679D01*
X76029914Y-47266685D01*
X75816685Y-47479914D01*
X75816679Y-47479921D01*
X75633099Y-47719168D01*
X75482318Y-47980328D01*
X75482314Y-47980338D01*
X75366913Y-48258939D01*
X75288861Y-48550233D01*
X75249501Y-48849206D01*
X75249500Y-48849223D01*
X75249500Y-49150776D01*
X75249501Y-49150793D01*
X75277644Y-49364561D01*
X75266878Y-49433596D01*
X75242386Y-49468427D01*
X66411936Y-58298878D01*
X66291616Y-58464484D01*
X66291614Y-58464487D01*
X66271209Y-58504535D01*
X66198681Y-58646876D01*
X66175438Y-58718413D01*
X66137630Y-58834771D01*
X66098192Y-58892446D01*
X66033833Y-58919644D01*
X65964987Y-58907729D01*
X65932018Y-58884133D01*
X54569866Y-47521981D01*
X54536381Y-47460658D01*
X54541365Y-47390966D01*
X54583237Y-47335033D01*
X54648701Y-47310616D01*
X54657547Y-47310300D01*
X59110153Y-47310300D01*
X59177192Y-47329985D01*
X59197834Y-47346619D01*
X63163181Y-51311966D01*
X63196666Y-51373289D01*
X63199500Y-51399647D01*
X63199500Y-51690776D01*
X63199501Y-51690793D01*
X63238861Y-51989766D01*
X63316913Y-52281060D01*
X63432314Y-52559661D01*
X63432318Y-52559671D01*
X63583099Y-52820831D01*
X63766679Y-53060078D01*
X63766685Y-53060085D01*
X63979914Y-53273314D01*
X63979921Y-53273320D01*
X64219168Y-53456900D01*
X64480328Y-53607681D01*
X64480329Y-53607681D01*
X64480332Y-53607683D01*
X64534773Y-53630233D01*
X64758939Y-53723086D01*
X64758940Y-53723086D01*
X64758942Y-53723087D01*
X65050232Y-53801138D01*
X65349217Y-53840500D01*
X65349224Y-53840500D01*
X65650776Y-53840500D01*
X65650783Y-53840500D01*
X65949768Y-53801138D01*
X66241058Y-53723087D01*
X66519668Y-53607683D01*
X66780832Y-53456900D01*
X67020080Y-53273319D01*
X67233319Y-53060080D01*
X67416900Y-52820832D01*
X67567683Y-52559668D01*
X67683087Y-52281058D01*
X67761138Y-51989768D01*
X67800500Y-51690783D01*
X67800500Y-51389217D01*
X67761138Y-51090232D01*
X67683087Y-50798942D01*
X67655905Y-50733320D01*
X67614590Y-50633576D01*
X67567683Y-50520332D01*
X67567540Y-50520085D01*
X67416900Y-50259168D01*
X67233320Y-50019921D01*
X67233314Y-50019914D01*
X67020085Y-49806685D01*
X67020078Y-49806679D01*
X66780831Y-49623099D01*
X66519671Y-49472318D01*
X66519661Y-49472314D01*
X66241060Y-49356913D01*
X65949766Y-49278861D01*
X65650793Y-49239501D01*
X65650788Y-49239500D01*
X65650783Y-49239500D01*
X65349217Y-49239500D01*
X65349211Y-49239500D01*
X65349206Y-49239501D01*
X65050242Y-49278860D01*
X65050235Y-49278861D01*
X65050232Y-49278862D01*
X64993824Y-49293976D01*
X64928692Y-49311428D01*
X64858842Y-49309765D01*
X64808918Y-49279334D01*
X64501765Y-48972181D01*
X64468280Y-48910858D01*
X64473264Y-48841166D01*
X64515136Y-48785233D01*
X64580600Y-48760816D01*
X64589446Y-48760500D01*
X67044957Y-48760500D01*
X67044958Y-48760499D01*
X67112104Y-48752934D01*
X67179249Y-48745369D01*
X67179252Y-48745368D01*
X67179255Y-48745368D01*
X67349522Y-48685789D01*
X67502262Y-48589816D01*
X67629816Y-48462262D01*
X67725789Y-48309522D01*
X67785368Y-48139255D01*
X67800500Y-48004954D01*
X67800500Y-45060500D01*
X67820185Y-44993461D01*
X67872989Y-44947706D01*
X67924500Y-44936500D01*
X73894559Y-44936500D01*
X73961598Y-44956185D01*
X73967444Y-44960182D01*
X74041280Y-45013827D01*
X74066684Y-45032283D01*
X74066690Y-45032287D01*
X74122061Y-45060500D01*
X74249081Y-45125221D01*
X74249084Y-45125222D01*
X74346424Y-45156849D01*
X74443766Y-45188477D01*
X74645948Y-45220500D01*
X74645949Y-45220500D01*
X74850652Y-45220500D01*
X75125500Y-45220500D01*
X75192539Y-45240185D01*
X75238294Y-45292989D01*
X75249500Y-45344500D01*
X75249500Y-45464960D01*
X75264630Y-45599249D01*
X75264631Y-45599254D01*
X75324211Y-45769523D01*
X75386224Y-45868215D01*
X75420184Y-45922262D01*
X75547738Y-46049816D01*
X75700478Y-46145789D01*
X75870745Y-46205368D01*
X75870750Y-46205369D01*
X75961246Y-46215565D01*
X76005040Y-46220499D01*
X76005043Y-46220500D01*
X76005046Y-46220500D01*
X79094957Y-46220500D01*
X79094958Y-46220499D01*
X79162104Y-46212934D01*
X79229249Y-46205369D01*
X79229252Y-46205368D01*
X79229255Y-46205368D01*
X79399522Y-46145789D01*
X79552262Y-46049816D01*
X79679816Y-45922262D01*
X79775789Y-45769522D01*
X79835368Y-45599255D01*
X79850500Y-45464954D01*
X79850500Y-42375046D01*
X79835368Y-42240745D01*
X79775789Y-42070478D01*
X79679816Y-41917738D01*
X79552262Y-41790184D01*
X79399523Y-41694211D01*
X79229254Y-41634631D01*
X79229249Y-41634630D01*
X79094960Y-41619500D01*
X79094954Y-41619500D01*
X76005046Y-41619500D01*
X76005039Y-41619500D01*
X75870750Y-41634630D01*
X75870745Y-41634631D01*
X75700476Y-41694211D01*
X75547737Y-41790184D01*
X75420184Y-41917737D01*
X75324211Y-42070476D01*
X75264631Y-42240745D01*
X75264630Y-42240750D01*
X75249500Y-42375039D01*
X75249305Y-42378517D01*
X75249152Y-42378508D01*
X75249386Y-42379453D01*
X75238938Y-42410112D01*
X75229815Y-42441184D01*
X75227737Y-42442984D01*
X75226850Y-42445589D01*
X75201472Y-42465742D01*
X75177011Y-42486939D01*
X75174290Y-42487330D01*
X75172136Y-42489041D01*
X75139907Y-42492274D01*
X75107853Y-42496883D01*
X75104514Y-42495824D01*
X75102615Y-42496015D01*
X75069207Y-42484631D01*
X75048005Y-42473828D01*
X74963523Y-42430781D01*
X74915004Y-42415016D01*
X74862402Y-42397925D01*
X74862401Y-42397924D01*
X74768832Y-42367522D01*
X74613520Y-42342923D01*
X74566652Y-42335500D01*
X63308052Y-42335500D01*
X63103348Y-42335500D01*
X63056479Y-42342923D01*
X62901168Y-42367522D01*
X62901167Y-42367522D01*
X62807598Y-42397924D01*
X62807598Y-42397925D01*
X62772995Y-42409168D01*
X62706476Y-42430781D01*
X62621995Y-42473828D01*
X62524087Y-42523714D01*
X62524084Y-42523716D01*
X62358478Y-42644036D01*
X62195934Y-42806581D01*
X62134611Y-42840066D01*
X62108253Y-42842900D01*
X45829248Y-42842900D01*
X45804929Y-42846751D01*
X45627065Y-42874922D01*
X45432376Y-42938181D01*
X45249986Y-43031115D01*
X45104549Y-43136780D01*
X45104549Y-43136781D01*
X45088376Y-43148530D01*
X45084378Y-43151436D01*
X31972632Y-56263181D01*
X31911309Y-56296666D01*
X31884951Y-56299500D01*
X30973395Y-56299500D01*
X30819067Y-56314699D01*
X30621042Y-56374769D01*
X30438545Y-56472317D01*
X30278589Y-56603589D01*
X30147317Y-56763545D01*
X30049769Y-56946042D01*
X29989699Y-57144066D01*
X29974500Y-57298394D01*
X29974500Y-59101604D01*
X29989699Y-59255932D01*
X29989700Y-59255935D01*
X30049768Y-59453955D01*
X30144903Y-59631939D01*
X30147317Y-59636454D01*
X30278589Y-59796410D01*
X30438545Y-59927682D01*
X30438549Y-59927685D01*
X30621045Y-60025232D01*
X30819065Y-60085300D01*
X30819064Y-60085300D01*
X30829968Y-60086373D01*
X30973391Y-60100500D01*
X32776608Y-60100499D01*
X32930935Y-60085300D01*
X33128955Y-60025232D01*
X33311451Y-59927685D01*
X33471410Y-59796410D01*
X33602685Y-59636451D01*
X33700232Y-59453955D01*
X33760300Y-59255935D01*
X33775500Y-59101609D01*
X33775499Y-58190045D01*
X33795183Y-58123007D01*
X33811813Y-58102370D01*
X40522819Y-51391365D01*
X40584142Y-51357880D01*
X40653834Y-51362864D01*
X40709767Y-51404736D01*
X40734184Y-51470200D01*
X40734500Y-51479046D01*
X40734500Y-56761423D01*
X40714815Y-56828462D01*
X40698181Y-56849104D01*
X40603066Y-56944218D01*
X40603060Y-56944225D01*
X40451400Y-57141873D01*
X40326837Y-57357623D01*
X40326830Y-57357638D01*
X40231498Y-57587792D01*
X40167017Y-57828438D01*
X40134501Y-58075424D01*
X40134500Y-58075441D01*
X40134500Y-58209953D01*
X40114815Y-58276992D01*
X40098181Y-58297634D01*
X34783036Y-63612778D01*
X34783031Y-63612784D01*
X34662713Y-63778387D01*
X34662710Y-63778393D01*
X34655819Y-63791919D01*
X34655819Y-63791920D01*
X34569781Y-63960776D01*
X34506522Y-64155465D01*
X34474500Y-64357648D01*
X34474500Y-71063437D01*
X34454815Y-71130476D01*
X34402011Y-71176231D01*
X34332853Y-71186175D01*
X34309547Y-71180479D01*
X34264260Y-71164633D01*
X34264249Y-71164630D01*
X34129960Y-71149500D01*
X34129954Y-71149500D01*
X32340046Y-71149500D01*
X32340039Y-71149500D01*
X32205750Y-71164630D01*
X32205745Y-71164631D01*
X32035476Y-71224211D01*
X31882737Y-71320184D01*
X31755184Y-71447737D01*
X31664870Y-71591472D01*
X31612535Y-71637763D01*
X31559876Y-71649500D01*
X31185652Y-71649500D01*
X30980948Y-71649500D01*
X30967917Y-71651564D01*
X30778768Y-71681522D01*
X30778767Y-71681522D01*
X30694477Y-71708909D01*
X30694477Y-71708910D01*
X30656699Y-71721184D01*
X30584076Y-71744781D01*
X30501693Y-71786759D01*
X30401687Y-71837714D01*
X30401684Y-71837716D01*
X30236078Y-71958036D01*
X28203836Y-73990278D01*
X28083516Y-74155884D01*
X28083511Y-74155892D01*
X28067481Y-74187351D01*
X28067482Y-74187352D01*
X27990581Y-74338276D01*
X27976197Y-74382548D01*
X27927322Y-74532967D01*
X27927322Y-74532968D01*
X27919205Y-74584218D01*
X27895300Y-74735148D01*
X20500500Y-74735148D01*
X20500500Y-20624500D01*
X20520185Y-20557461D01*
X20572989Y-20511706D01*
X20624500Y-20500500D01*
X123375500Y-20500500D01*
X123442539Y-20520185D01*
G37*
%TD.AperFunction*%
%TA.AperFunction,NonConductor*%
G36*
X61953051Y-58596098D02*
G01*
X61991920Y-58622405D01*
X64265381Y-60895866D01*
X64298866Y-60957189D01*
X64301700Y-60983547D01*
X64301700Y-62662887D01*
X64282015Y-62729926D01*
X64229211Y-62775681D01*
X64165546Y-62786289D01*
X64096608Y-62779500D01*
X64096605Y-62779500D01*
X63385047Y-62779500D01*
X63318008Y-62759815D01*
X63297366Y-62743181D01*
X60983621Y-60429436D01*
X60983619Y-60429434D01*
X60818011Y-60309113D01*
X60720006Y-60259177D01*
X60719998Y-60259173D01*
X60718455Y-60258387D01*
X60635619Y-60216180D01*
X60615980Y-60209798D01*
X60608746Y-60206365D01*
X60588415Y-60188215D01*
X60565924Y-60172835D01*
X60562735Y-60165290D01*
X60556624Y-60159834D01*
X60549334Y-60133576D01*
X60538727Y-60108476D01*
X60540124Y-60100403D01*
X60537933Y-60092511D01*
X60545995Y-60066482D01*
X60550643Y-60039630D01*
X60556182Y-60033594D01*
X60558606Y-60025770D01*
X60579460Y-60008232D01*
X60597888Y-59988155D01*
X60611521Y-59981270D01*
X60612081Y-59980800D01*
X60612580Y-59980735D01*
X60614454Y-59979789D01*
X60787373Y-59908164D01*
X61003127Y-59783599D01*
X61200776Y-59631938D01*
X61376938Y-59455776D01*
X61528599Y-59258127D01*
X61653164Y-59042373D01*
X61748502Y-58812207D01*
X61784465Y-58677991D01*
X61820829Y-58618332D01*
X61883676Y-58587803D01*
X61953051Y-58596098D01*
G37*
%TD.AperFunction*%
%TA.AperFunction,NonConductor*%
G36*
X75286606Y-53205092D02*
G01*
X75342539Y-53246964D01*
X75366956Y-53312428D01*
X75363047Y-53353367D01*
X75288861Y-53630233D01*
X75249501Y-53929206D01*
X75249500Y-53929223D01*
X75249500Y-54230776D01*
X75249501Y-54230793D01*
X75288861Y-54529766D01*
X75366913Y-54821060D01*
X75482314Y-55099661D01*
X75482318Y-55099671D01*
X75633099Y-55360831D01*
X75816679Y-55600078D01*
X75816685Y-55600085D01*
X76029914Y-55813314D01*
X76029921Y-55813320D01*
X76200986Y-55944582D01*
X76242189Y-56001010D01*
X76249500Y-56042958D01*
X76249500Y-61996653D01*
X76229815Y-62063692D01*
X76213181Y-62084334D01*
X72714334Y-65583181D01*
X72687406Y-65597884D01*
X72661588Y-65614477D01*
X72655387Y-65615368D01*
X72653011Y-65616666D01*
X72626653Y-65619500D01*
X72436142Y-65619500D01*
X72369103Y-65599815D01*
X72323348Y-65547011D01*
X72313404Y-65477853D01*
X72335824Y-65422615D01*
X72424103Y-65301106D01*
X72483870Y-65218845D01*
X72598241Y-64994379D01*
X72676090Y-64754785D01*
X72715500Y-64505962D01*
X72715500Y-64254038D01*
X72676090Y-64005215D01*
X72598241Y-63765621D01*
X72598239Y-63765618D01*
X72598239Y-63765616D01*
X72525554Y-63622965D01*
X72483870Y-63541155D01*
X72405959Y-63433919D01*
X72335798Y-63337350D01*
X72335794Y-63337345D01*
X72157654Y-63159205D01*
X72157649Y-63159201D01*
X71953848Y-63011132D01*
X71953847Y-63011131D01*
X71953845Y-63011130D01*
X71883747Y-62975413D01*
X71729383Y-62896760D01*
X71489785Y-62818910D01*
X71336930Y-62794700D01*
X71240962Y-62779500D01*
X70189038Y-62779500D01*
X70093070Y-62794700D01*
X69940214Y-62818910D01*
X69700616Y-62896760D01*
X69476151Y-63011132D01*
X69272350Y-63159201D01*
X69272345Y-63159205D01*
X69094205Y-63337345D01*
X69094201Y-63337350D01*
X68946130Y-63541153D01*
X68938884Y-63555375D01*
X68890910Y-63606170D01*
X68823088Y-63622965D01*
X68756954Y-63600427D01*
X68713503Y-63545712D01*
X68704400Y-63499079D01*
X68704400Y-59736147D01*
X68724085Y-59669108D01*
X68740719Y-59648466D01*
X71916870Y-56472315D01*
X75155591Y-53233592D01*
X75216914Y-53200108D01*
X75286606Y-53205092D01*
G37*
%TD.AperFunction*%
%TA.AperFunction,NonConductor*%
G36*
X68851842Y-65140828D02*
G01*
X68858209Y-65140556D01*
X68883237Y-65155166D01*
X68909603Y-65167207D01*
X68914429Y-65173374D01*
X68918550Y-65175780D01*
X68938886Y-65204627D01*
X68946132Y-65218849D01*
X69094201Y-65422649D01*
X69094205Y-65422654D01*
X69233869Y-65562318D01*
X69238207Y-65570263D01*
X69245457Y-65575691D01*
X69254690Y-65600450D01*
X69267354Y-65623641D01*
X69266708Y-65632672D01*
X69269872Y-65641156D01*
X69264254Y-65666975D01*
X69262370Y-65693333D01*
X69256550Y-65702387D01*
X69255019Y-65709429D01*
X69233867Y-65737683D01*
X69216209Y-65755340D01*
X69184827Y-65778140D01*
X69126788Y-65807713D01*
X68961178Y-65928036D01*
X68916081Y-65973134D01*
X68854758Y-66006619D01*
X68785066Y-66001635D01*
X68729133Y-65959763D01*
X68704716Y-65894299D01*
X68704400Y-65885453D01*
X68704400Y-65260920D01*
X68706195Y-65254806D01*
X68705019Y-65248544D01*
X68715921Y-65221684D01*
X68724085Y-65193881D01*
X68728898Y-65189709D01*
X68731296Y-65183804D01*
X68754990Y-65167101D01*
X68776889Y-65148126D01*
X68783194Y-65147219D01*
X68788403Y-65143548D01*
X68817359Y-65142306D01*
X68846047Y-65138182D01*
X68851842Y-65140828D01*
G37*
%TD.AperFunction*%
%TA.AperFunction,NonConductor*%
G36*
X59613392Y-62741585D02*
G01*
X59634034Y-62758219D01*
X61058181Y-64182366D01*
X61091666Y-64243689D01*
X61094500Y-64270047D01*
X61094500Y-64981608D01*
X61096182Y-64998685D01*
X61109699Y-65135932D01*
X61134850Y-65218845D01*
X61169768Y-65333954D01*
X61267315Y-65516450D01*
X61355284Y-65623641D01*
X61398590Y-65676410D01*
X61447049Y-65716180D01*
X61486383Y-65773926D01*
X61488254Y-65843770D01*
X61468703Y-65884918D01*
X61326129Y-66081155D01*
X61211760Y-66305616D01*
X61133910Y-66545214D01*
X61094500Y-66794038D01*
X61094500Y-67045961D01*
X61133910Y-67294785D01*
X61211760Y-67534383D01*
X61326132Y-67758848D01*
X61474176Y-67962615D01*
X61497656Y-68028421D01*
X61481830Y-68096475D01*
X61431724Y-68145170D01*
X61373858Y-68159500D01*
X60695652Y-68159500D01*
X60490948Y-68159500D01*
X60468779Y-68163010D01*
X60399487Y-68154055D01*
X60361702Y-68128218D01*
X57285921Y-65052436D01*
X57285920Y-65052435D01*
X57285919Y-65052434D01*
X57120311Y-64932113D01*
X57016498Y-64879218D01*
X56937923Y-64839181D01*
X56891215Y-64824004D01*
X56840576Y-64807551D01*
X56816703Y-64799794D01*
X56743235Y-64775922D01*
X56568695Y-64748278D01*
X56541052Y-64743900D01*
X56541051Y-64743900D01*
X46784746Y-64743900D01*
X46717707Y-64724215D01*
X46671952Y-64671411D01*
X46662008Y-64602253D01*
X46691033Y-64538697D01*
X46697065Y-64532219D01*
X48471065Y-62758219D01*
X48532388Y-62724734D01*
X48558746Y-62721900D01*
X49682648Y-62721900D01*
X59546353Y-62721900D01*
X59613392Y-62741585D01*
G37*
%TD.AperFunction*%
%TA.AperFunction,NonConductor*%
G36*
X51479005Y-67364585D02*
G01*
X51524760Y-67417389D01*
X51534704Y-67486547D01*
X51522451Y-67525191D01*
X51499209Y-67570807D01*
X51438081Y-67690776D01*
X51374822Y-67885465D01*
X51342800Y-68087648D01*
X51342800Y-68980553D01*
X51323115Y-69047592D01*
X51270311Y-69093347D01*
X51201153Y-69103291D01*
X51137597Y-69074266D01*
X51131119Y-69068234D01*
X49619466Y-67556581D01*
X49585981Y-67495258D01*
X49590965Y-67425566D01*
X49632837Y-67369633D01*
X49698301Y-67345216D01*
X49707147Y-67344900D01*
X51411966Y-67344900D01*
X51479005Y-67364585D01*
G37*
%TD.AperFunction*%
%TA.AperFunction,NonConductor*%
G36*
X57219589Y-68673846D02*
G01*
X57252559Y-68697443D01*
X57772935Y-69217819D01*
X57806420Y-69279142D01*
X57801436Y-69348834D01*
X57759564Y-69404767D01*
X57694100Y-69429184D01*
X57685254Y-69429500D01*
X56866142Y-69429500D01*
X56799103Y-69409815D01*
X56753348Y-69357011D01*
X56743404Y-69287853D01*
X56765824Y-69232615D01*
X56859782Y-69103291D01*
X56913870Y-69028845D01*
X57028241Y-68804379D01*
X57046948Y-68746804D01*
X57086384Y-68689131D01*
X57150743Y-68661932D01*
X57219589Y-68673846D01*
G37*
%TD.AperFunction*%
%TA.AperFunction,NonConductor*%
G36*
X45443834Y-68507465D02*
G01*
X45499767Y-68549337D01*
X45524184Y-68614801D01*
X45524500Y-68623647D01*
X45524500Y-68791604D01*
X45539699Y-68945932D01*
X45599769Y-69143958D01*
X45654872Y-69247047D01*
X45669114Y-69315449D01*
X45644114Y-69380693D01*
X45587809Y-69422064D01*
X45545514Y-69429500D01*
X45125652Y-69429500D01*
X44920948Y-69429500D01*
X44853554Y-69440174D01*
X44718764Y-69461523D01*
X44714019Y-69462662D01*
X44713769Y-69461621D01*
X44649067Y-69463461D01*
X44589239Y-69427372D01*
X44558420Y-69364667D01*
X44566394Y-69295254D01*
X44592923Y-69255861D01*
X45312819Y-68535966D01*
X45374142Y-68502481D01*
X45443834Y-68507465D01*
G37*
%TD.AperFunction*%
%TA.AperFunction,NonConductor*%
G36*
X52497192Y-49131685D02*
G01*
X52517834Y-49148319D01*
X59522594Y-56153079D01*
X59556079Y-56214402D01*
X59551095Y-56284094D01*
X59509223Y-56340027D01*
X59467007Y-56360535D01*
X59332792Y-56396498D01*
X59102638Y-56491830D01*
X59102623Y-56491837D01*
X58886873Y-56616400D01*
X58689225Y-56768060D01*
X58689218Y-56768066D01*
X58513066Y-56944218D01*
X58513060Y-56944225D01*
X58361400Y-57141873D01*
X58236837Y-57357623D01*
X58236830Y-57357638D01*
X58141498Y-57587792D01*
X58077017Y-57828438D01*
X58044501Y-58075424D01*
X58044500Y-58075441D01*
X58044500Y-58324558D01*
X58044501Y-58324575D01*
X58077017Y-58571561D01*
X58141498Y-58812207D01*
X58236830Y-59042361D01*
X58236837Y-59042376D01*
X58361400Y-59258126D01*
X58513060Y-59455774D01*
X58513066Y-59455781D01*
X58689218Y-59631933D01*
X58689225Y-59631939D01*
X58886873Y-59783599D01*
X59070322Y-59889513D01*
X59118537Y-59940080D01*
X59131761Y-60008687D01*
X59105793Y-60073551D01*
X59048879Y-60114080D01*
X59008322Y-60120900D01*
X51332575Y-60120900D01*
X51265536Y-60101215D01*
X51219781Y-60048411D01*
X51209837Y-59979253D01*
X51238862Y-59915697D01*
X51253910Y-59901047D01*
X51381410Y-59796410D01*
X51391924Y-59783599D01*
X51512685Y-59636451D01*
X51610232Y-59453955D01*
X51670300Y-59255935D01*
X51685500Y-59101609D01*
X51685499Y-57298392D01*
X51670300Y-57144065D01*
X51610232Y-56946045D01*
X51512685Y-56763549D01*
X51512682Y-56763545D01*
X51381410Y-56603589D01*
X51221454Y-56472317D01*
X51221452Y-56472316D01*
X51221451Y-56472315D01*
X51038955Y-56374768D01*
X50840935Y-56314700D01*
X50840933Y-56314699D01*
X50840935Y-56314699D01*
X50730222Y-56303795D01*
X50686609Y-56299500D01*
X50686605Y-56299500D01*
X48883395Y-56299500D01*
X48729067Y-56314699D01*
X48531042Y-56374769D01*
X48348545Y-56472317D01*
X48188589Y-56603589D01*
X48057317Y-56763545D01*
X47959769Y-56946042D01*
X47899699Y-57144066D01*
X47884500Y-57298394D01*
X47884500Y-59101604D01*
X47899699Y-59255932D01*
X47899700Y-59255935D01*
X47959768Y-59453955D01*
X48054903Y-59631939D01*
X48057317Y-59636454D01*
X48188589Y-59796410D01*
X48316090Y-59901047D01*
X48355424Y-59958792D01*
X48357295Y-60028637D01*
X48321108Y-60088405D01*
X48258352Y-60119121D01*
X48237425Y-60120900D01*
X47866348Y-60120900D01*
X47765841Y-60136819D01*
X47757968Y-60138066D01*
X47664164Y-60152923D01*
X47469484Y-60216177D01*
X47469482Y-60216178D01*
X47386645Y-60258387D01*
X47287086Y-60309115D01*
X47121486Y-60429428D01*
X39506436Y-68044478D01*
X39386116Y-68210084D01*
X39386114Y-68210087D01*
X39352063Y-68276918D01*
X39345876Y-68289060D01*
X39293180Y-68392481D01*
X39293180Y-68392482D01*
X39288973Y-68405427D01*
X39288972Y-68405431D01*
X39229924Y-68587160D01*
X39229922Y-68587167D01*
X39224045Y-68624278D01*
X39224045Y-68624279D01*
X39197900Y-68789349D01*
X39197900Y-71195110D01*
X39178215Y-71262149D01*
X39125411Y-71307904D01*
X39056253Y-71317848D01*
X39017605Y-71305595D01*
X38948576Y-71270422D01*
X38701493Y-71190140D01*
X38444902Y-71149500D01*
X38444897Y-71149500D01*
X38185103Y-71149500D01*
X38185098Y-71149500D01*
X37928506Y-71190140D01*
X37681423Y-71270422D01*
X37449945Y-71388368D01*
X37272385Y-71517373D01*
X37206579Y-71540853D01*
X37138525Y-71525027D01*
X37089830Y-71474922D01*
X37075500Y-71417055D01*
X37075500Y-65050047D01*
X37095185Y-64983008D01*
X37111819Y-64962366D01*
X41937366Y-60136819D01*
X41998689Y-60103334D01*
X42025047Y-60100500D01*
X42159558Y-60100500D01*
X42159565Y-60100500D01*
X42406565Y-60067982D01*
X42647207Y-60003502D01*
X42877373Y-59908164D01*
X43093127Y-59783599D01*
X43290776Y-59631938D01*
X43466938Y-59455776D01*
X43618599Y-59258127D01*
X43743164Y-59042373D01*
X43838502Y-58812207D01*
X43902982Y-58571565D01*
X43935500Y-58324565D01*
X43935500Y-58075435D01*
X43902982Y-57828435D01*
X43838502Y-57587793D01*
X43743164Y-57357627D01*
X43618599Y-57141873D01*
X43466939Y-56944225D01*
X43466933Y-56944218D01*
X43371819Y-56849104D01*
X43338334Y-56787781D01*
X43335500Y-56761423D01*
X43335500Y-52093246D01*
X43355185Y-52026207D01*
X43371819Y-52005565D01*
X45372819Y-50004565D01*
X45434142Y-49971080D01*
X45503834Y-49976064D01*
X45559767Y-50017936D01*
X45584184Y-50083400D01*
X45584500Y-50092246D01*
X45584500Y-50129902D01*
X45625140Y-50386493D01*
X45705422Y-50633576D01*
X45823368Y-50865054D01*
X45970588Y-51067685D01*
X45976069Y-51075229D01*
X46159771Y-51258931D01*
X46369949Y-51411634D01*
X46484891Y-51470200D01*
X46601423Y-51529577D01*
X46601425Y-51529577D01*
X46601428Y-51529579D01*
X46848507Y-51609860D01*
X46980706Y-51630797D01*
X47105098Y-51650500D01*
X47105103Y-51650500D01*
X47364902Y-51650500D01*
X47478298Y-51632539D01*
X47621493Y-51609860D01*
X47868572Y-51529579D01*
X48100051Y-51411634D01*
X48161779Y-51366785D01*
X48227584Y-51343306D01*
X48295638Y-51359131D01*
X48322345Y-51379423D01*
X48422738Y-51479816D01*
X48575478Y-51575789D01*
X48745745Y-51635368D01*
X48745750Y-51635369D01*
X48836246Y-51645565D01*
X48880040Y-51650499D01*
X48880043Y-51650500D01*
X48880046Y-51650500D01*
X50669957Y-51650500D01*
X50669958Y-51650499D01*
X50737104Y-51642934D01*
X50804249Y-51635369D01*
X50804252Y-51635368D01*
X50804255Y-51635368D01*
X50974522Y-51575789D01*
X51127262Y-51479816D01*
X51254816Y-51352262D01*
X51350789Y-51199522D01*
X51410368Y-51029255D01*
X51425500Y-50894954D01*
X51425500Y-49236000D01*
X51445185Y-49168961D01*
X51497989Y-49123206D01*
X51549500Y-49112000D01*
X52430153Y-49112000D01*
X52497192Y-49131685D01*
G37*
%TD.AperFunction*%
%TA.AperFunction,NonConductor*%
G36*
X66832134Y-68915465D02*
G01*
X66888067Y-68957337D01*
X66912484Y-69022801D01*
X66912800Y-69031647D01*
X66912800Y-72102351D01*
X66944822Y-72304534D01*
X67008081Y-72499223D01*
X67066757Y-72614379D01*
X67087768Y-72655616D01*
X67101015Y-72681613D01*
X67221328Y-72847213D01*
X67366086Y-72991971D01*
X67398034Y-73015182D01*
X67440700Y-73070511D01*
X67446679Y-73140125D01*
X67414074Y-73201920D01*
X67353235Y-73236277D01*
X67325149Y-73239500D01*
X64816142Y-73239500D01*
X64749103Y-73219815D01*
X64703348Y-73167011D01*
X64693404Y-73097853D01*
X64715824Y-73042615D01*
X64822915Y-72895215D01*
X64863870Y-72838845D01*
X64978241Y-72614379D01*
X65056090Y-72374785D01*
X65095500Y-72125962D01*
X65095500Y-71874038D01*
X65056090Y-71625215D01*
X64978241Y-71385621D01*
X64978239Y-71385618D01*
X64978239Y-71385616D01*
X64908797Y-71249330D01*
X64863870Y-71161155D01*
X64715823Y-70957385D01*
X64715798Y-70957350D01*
X64715794Y-70957345D01*
X64670106Y-70911657D01*
X64636621Y-70850334D01*
X64641605Y-70780642D01*
X64683477Y-70724709D01*
X64719464Y-70706047D01*
X64797190Y-70680793D01*
X64845119Y-70665220D01*
X64936314Y-70618753D01*
X65027511Y-70572287D01*
X65193119Y-70451966D01*
X66701119Y-68943966D01*
X66762442Y-68910481D01*
X66832134Y-68915465D01*
G37*
%TD.AperFunction*%
%TA.AperFunction,NonConductor*%
G36*
X61440897Y-70780185D02*
G01*
X61486652Y-70832989D01*
X61496596Y-70902147D01*
X61474176Y-70957385D01*
X61326132Y-71161151D01*
X61211760Y-71385616D01*
X61133910Y-71625214D01*
X61123984Y-71687884D01*
X61094500Y-71874038D01*
X61094500Y-72125962D01*
X61110564Y-72227385D01*
X61133910Y-72374785D01*
X61211760Y-72614383D01*
X61326132Y-72838848D01*
X61474201Y-73042649D01*
X61474205Y-73042654D01*
X61613870Y-73182319D01*
X61647355Y-73243642D01*
X61642371Y-73313334D01*
X61613870Y-73357681D01*
X61474205Y-73497345D01*
X61474201Y-73497350D01*
X61326132Y-73701151D01*
X61211760Y-73925616D01*
X61133910Y-74165214D01*
X61133910Y-74165215D01*
X61094500Y-74414038D01*
X61094500Y-74665962D01*
X61112100Y-74777084D01*
X61133910Y-74914785D01*
X61211760Y-75154383D01*
X61326132Y-75378848D01*
X61474201Y-75582649D01*
X61474205Y-75582654D01*
X61613870Y-75722319D01*
X61647355Y-75783642D01*
X61642371Y-75853334D01*
X61613870Y-75897681D01*
X61474205Y-76037345D01*
X61474201Y-76037350D01*
X61326132Y-76241151D01*
X61211760Y-76465616D01*
X61133910Y-76705214D01*
X61133910Y-76705215D01*
X61094500Y-76954038D01*
X61094500Y-77205962D01*
X61108324Y-77293241D01*
X61133910Y-77454785D01*
X61211760Y-77694383D01*
X61326132Y-77918848D01*
X61474201Y-78122649D01*
X61474205Y-78122654D01*
X61613870Y-78262319D01*
X61647355Y-78323642D01*
X61642371Y-78393334D01*
X61613870Y-78437681D01*
X61474205Y-78577345D01*
X61474201Y-78577350D01*
X61326132Y-78781151D01*
X61211760Y-79005616D01*
X61211758Y-79005623D01*
X61208084Y-79016928D01*
X61168648Y-79074602D01*
X61104289Y-79101800D01*
X61035443Y-79089885D01*
X61002474Y-79066289D01*
X60240919Y-78304734D01*
X60207434Y-78243411D01*
X60204600Y-78217053D01*
X60204600Y-71739245D01*
X60224285Y-71672206D01*
X60240915Y-71651568D01*
X61071015Y-70821468D01*
X61071019Y-70821466D01*
X61095670Y-70796815D01*
X61126129Y-70780185D01*
X61156989Y-70763334D01*
X61156994Y-70763333D01*
X61156996Y-70763333D01*
X61183347Y-70760500D01*
X61373858Y-70760500D01*
X61440897Y-70780185D01*
G37*
%TD.AperFunction*%
%TA.AperFunction,NonConductor*%
G36*
X67355404Y-75849383D02*
G01*
X67386124Y-75856528D01*
X67388675Y-75859153D01*
X67392188Y-75860185D01*
X67412835Y-75884013D01*
X67434819Y-75906634D01*
X67435546Y-75910222D01*
X67437943Y-75912989D01*
X67442430Y-75944201D01*
X67448694Y-75975112D01*
X67447365Y-75978523D01*
X67447887Y-75982147D01*
X67434787Y-76010831D01*
X67423345Y-76040221D01*
X67419786Y-76043679D01*
X67418862Y-76045703D01*
X67398034Y-76064818D01*
X67366086Y-76088028D01*
X67221328Y-76232786D01*
X67101015Y-76398386D01*
X67008081Y-76580776D01*
X66944822Y-76775465D01*
X66912800Y-76977648D01*
X66912800Y-77306452D01*
X66893115Y-77373491D01*
X66876481Y-77394133D01*
X65191646Y-79078967D01*
X65130323Y-79112452D01*
X65060631Y-79107468D01*
X65004698Y-79065596D01*
X64986034Y-79029604D01*
X64978242Y-79005623D01*
X64978241Y-79005620D01*
X64938635Y-78927890D01*
X64863870Y-78781155D01*
X64844952Y-78755117D01*
X64715798Y-78577350D01*
X64715794Y-78577345D01*
X64576130Y-78437681D01*
X64542645Y-78376358D01*
X64547629Y-78306666D01*
X64576130Y-78262319D01*
X64621396Y-78217053D01*
X64715793Y-78122656D01*
X64863870Y-77918845D01*
X64978241Y-77694379D01*
X65056090Y-77454785D01*
X65095500Y-77205962D01*
X65095500Y-76954038D01*
X65056090Y-76705215D01*
X64978241Y-76465621D01*
X64978239Y-76465618D01*
X64978239Y-76465616D01*
X64936747Y-76384184D01*
X64863870Y-76241155D01*
X64822915Y-76184785D01*
X64715824Y-76037385D01*
X64692344Y-75971579D01*
X64708170Y-75903525D01*
X64758276Y-75854830D01*
X64816142Y-75840500D01*
X67325149Y-75840500D01*
X67355404Y-75849383D01*
G37*
%TD.AperFunction*%
%TA.AperFunction,NonConductor*%
G36*
X37088334Y-74223340D02*
G01*
X37132681Y-74251841D01*
X37239771Y-74358931D01*
X37449949Y-74511634D01*
X37681428Y-74629579D01*
X37815951Y-74673288D01*
X37873627Y-74712726D01*
X37900825Y-74777084D01*
X37888910Y-74845931D01*
X37865314Y-74878900D01*
X30707981Y-82036234D01*
X30646658Y-82069719D01*
X30576966Y-82064735D01*
X30521033Y-82022863D01*
X30496616Y-81957399D01*
X30496300Y-81948553D01*
X30496300Y-75427547D01*
X30515985Y-75360508D01*
X30532619Y-75339866D01*
X30993585Y-74878900D01*
X31515982Y-74356502D01*
X31577303Y-74323019D01*
X31646994Y-74328003D01*
X31702928Y-74369875D01*
X31708654Y-74378212D01*
X31731166Y-74414038D01*
X31755184Y-74452262D01*
X31882738Y-74579816D01*
X31889744Y-74584218D01*
X32031497Y-74673288D01*
X32035478Y-74675789D01*
X32174206Y-74724332D01*
X32205745Y-74735368D01*
X32205750Y-74735369D01*
X32296246Y-74745565D01*
X32340040Y-74750499D01*
X32340043Y-74750500D01*
X32340046Y-74750500D01*
X34129957Y-74750500D01*
X34129958Y-74750499D01*
X34197104Y-74742934D01*
X34264249Y-74735369D01*
X34264252Y-74735368D01*
X34264255Y-74735368D01*
X34434522Y-74675789D01*
X34587262Y-74579816D01*
X34687655Y-74479423D01*
X34748978Y-74445938D01*
X34818670Y-74450922D01*
X34848218Y-74466783D01*
X34909949Y-74511634D01*
X35017350Y-74566358D01*
X35141423Y-74629577D01*
X35141425Y-74629577D01*
X35141428Y-74629579D01*
X35388507Y-74709860D01*
X35520706Y-74730797D01*
X35645098Y-74750500D01*
X35645103Y-74750500D01*
X35904902Y-74750500D01*
X36018298Y-74732539D01*
X36161493Y-74709860D01*
X36408572Y-74629579D01*
X36640051Y-74511634D01*
X36850229Y-74358931D01*
X36957319Y-74251841D01*
X37018642Y-74218356D01*
X37088334Y-74223340D01*
G37*
%TD.AperFunction*%
%TA.AperFunction,NonConductor*%
G36*
X68633834Y-79417664D02*
G01*
X68689767Y-79459536D01*
X68714184Y-79525000D01*
X68714500Y-79533846D01*
X68714500Y-79745961D01*
X68753910Y-79994785D01*
X68831760Y-80234383D01*
X68946132Y-80458848D01*
X69094201Y-80662649D01*
X69094205Y-80662654D01*
X69272345Y-80840794D01*
X69272350Y-80840798D01*
X69450117Y-80969952D01*
X69476155Y-80988870D01*
X69619184Y-81061747D01*
X69700616Y-81103239D01*
X69700618Y-81103239D01*
X69700621Y-81103241D01*
X69940215Y-81181090D01*
X70189038Y-81220500D01*
X70189039Y-81220500D01*
X71042552Y-81220500D01*
X71109591Y-81240185D01*
X71155346Y-81292989D01*
X71165290Y-81362147D01*
X71136265Y-81425703D01*
X71130233Y-81432181D01*
X70364434Y-82197981D01*
X70303111Y-82231466D01*
X70276753Y-82234300D01*
X66014047Y-82234300D01*
X65947008Y-82214615D01*
X65901253Y-82161811D01*
X65891309Y-82092653D01*
X65920334Y-82029097D01*
X65926366Y-82022619D01*
X68502819Y-79446165D01*
X68564142Y-79412680D01*
X68633834Y-79417664D01*
G37*
%TD.AperFunction*%
%TA.AperFunction,NonConductor*%
G36*
X57123692Y-72050185D02*
G01*
X57144334Y-72066819D01*
X57218681Y-72141166D01*
X57384289Y-72261487D01*
X57442389Y-72291090D01*
X57535896Y-72338734D01*
X57586691Y-72386708D01*
X57586698Y-72386739D01*
X57603600Y-72449218D01*
X57603600Y-78909451D01*
X57635622Y-79111634D01*
X57654893Y-79170942D01*
X57698880Y-79306319D01*
X57698881Y-79306320D01*
X57698882Y-79306324D01*
X57715472Y-79338882D01*
X57791813Y-79488711D01*
X57912134Y-79654319D01*
X57912136Y-79654321D01*
X60280434Y-82022619D01*
X60291046Y-82042055D01*
X60305547Y-82058789D01*
X60307463Y-82072120D01*
X60313919Y-82083942D01*
X60312339Y-82106028D01*
X60315491Y-82127947D01*
X60309895Y-82140198D01*
X60308935Y-82153634D01*
X60295664Y-82171360D01*
X60286466Y-82191503D01*
X60275134Y-82198785D01*
X60267063Y-82209567D01*
X60246317Y-82217304D01*
X60227688Y-82229277D01*
X60205769Y-82232428D01*
X60201599Y-82233984D01*
X60192753Y-82234300D01*
X60058747Y-82234300D01*
X59991708Y-82214615D01*
X59971066Y-82197981D01*
X55395266Y-77622181D01*
X55361781Y-77560858D01*
X55366765Y-77491166D01*
X55408637Y-77435233D01*
X55474101Y-77410816D01*
X55482947Y-77410500D01*
X55670961Y-77410500D01*
X55670962Y-77410500D01*
X55919785Y-77371090D01*
X56159379Y-77293241D01*
X56383845Y-77178870D01*
X56587656Y-77030793D01*
X56765793Y-76852656D01*
X56913870Y-76648845D01*
X57028241Y-76424379D01*
X57106090Y-76184785D01*
X57145500Y-75935962D01*
X57145500Y-75684038D01*
X57106090Y-75435215D01*
X57028241Y-75195621D01*
X57028239Y-75195618D01*
X57028239Y-75195616D01*
X56967783Y-75076966D01*
X56913870Y-74971155D01*
X56772870Y-74777084D01*
X56765798Y-74767350D01*
X56765794Y-74767345D01*
X56626130Y-74627681D01*
X56592645Y-74566358D01*
X56597629Y-74496666D01*
X56626130Y-74452319D01*
X56695902Y-74382547D01*
X56765793Y-74312656D01*
X56913870Y-74108845D01*
X57028241Y-73884379D01*
X57106090Y-73644785D01*
X57145500Y-73395962D01*
X57145500Y-73144038D01*
X57106090Y-72895215D01*
X57028241Y-72655621D01*
X57028239Y-72655618D01*
X57028239Y-72655616D01*
X56948550Y-72499219D01*
X56913870Y-72431155D01*
X56881600Y-72386739D01*
X56765824Y-72227385D01*
X56761592Y-72215525D01*
X56753348Y-72206011D01*
X56750074Y-72183244D01*
X56742344Y-72161579D01*
X56745195Y-72149315D01*
X56743404Y-72136853D01*
X56752960Y-72115927D01*
X56758170Y-72093525D01*
X56767198Y-72084751D01*
X56772429Y-72073297D01*
X56791781Y-72060860D01*
X56808276Y-72044830D01*
X56822021Y-72041426D01*
X56831207Y-72035523D01*
X56866142Y-72030500D01*
X57056653Y-72030500D01*
X57123692Y-72050185D01*
G37*
%TD.AperFunction*%
%TA.AperFunction,NonConductor*%
G36*
X41848146Y-74612577D02*
G01*
X41891597Y-74667292D01*
X41900700Y-74713925D01*
X41900700Y-84907000D01*
X41881015Y-84974039D01*
X41828211Y-85019794D01*
X41776700Y-85031000D01*
X35235848Y-85031000D01*
X35211529Y-85034851D01*
X35033665Y-85063022D01*
X34838976Y-85126281D01*
X34700480Y-85196849D01*
X34656590Y-85219213D01*
X34656589Y-85219214D01*
X34648691Y-85224952D01*
X34648690Y-85224951D01*
X34648690Y-85224952D01*
X34490986Y-85339528D01*
X34490982Y-85339532D01*
X33017334Y-86813181D01*
X32956011Y-86846666D01*
X32929653Y-86849500D01*
X32618092Y-86849500D01*
X32553603Y-86855851D01*
X32521454Y-86859018D01*
X32452808Y-86845999D01*
X32402098Y-86797934D01*
X32385300Y-86735615D01*
X32385300Y-84088645D01*
X32404985Y-84021606D01*
X32421614Y-84000969D01*
X41338550Y-75084032D01*
X41338557Y-75084027D01*
X41345617Y-75076967D01*
X41345619Y-75076966D01*
X41490366Y-74932219D01*
X41490368Y-74932215D01*
X41490371Y-74932213D01*
X41610684Y-74766614D01*
X41610683Y-74766614D01*
X41610687Y-74766610D01*
X41617499Y-74753241D01*
X41666216Y-74657628D01*
X41714190Y-74606834D01*
X41782011Y-74590039D01*
X41848146Y-74612577D01*
G37*
%TD.AperFunction*%
%TA.AperFunction,NonConductor*%
G36*
X44706903Y-84676833D02*
G01*
X44713381Y-84682865D01*
X48392834Y-88362318D01*
X48426319Y-88423641D01*
X48421335Y-88493333D01*
X48392834Y-88537680D01*
X47714934Y-89215581D01*
X47653611Y-89249066D01*
X47627253Y-89251900D01*
X46909744Y-89251900D01*
X46842705Y-89232215D01*
X46796950Y-89179411D01*
X46787006Y-89110253D01*
X46799260Y-89071603D01*
X46802941Y-89064379D01*
X46880790Y-88824785D01*
X46920200Y-88575962D01*
X46920200Y-88324038D01*
X46880790Y-88075215D01*
X46802941Y-87835621D01*
X46802939Y-87835618D01*
X46802939Y-87835616D01*
X46756067Y-87743625D01*
X46688570Y-87611155D01*
X46666786Y-87581172D01*
X46540498Y-87407350D01*
X46540494Y-87407345D01*
X46362354Y-87229205D01*
X46362349Y-87229201D01*
X46158548Y-87081132D01*
X46158547Y-87081131D01*
X46158545Y-87081130D01*
X45934079Y-86966759D01*
X45814282Y-86927834D01*
X45694483Y-86888909D01*
X45619389Y-86877015D01*
X45556255Y-86847085D01*
X45551108Y-86842223D01*
X44538019Y-85829134D01*
X44504534Y-85767811D01*
X44501700Y-85741453D01*
X44501700Y-84770546D01*
X44521385Y-84703507D01*
X44574189Y-84657752D01*
X44643347Y-84647808D01*
X44706903Y-84676833D01*
G37*
%TD.AperFunction*%
%TA.AperFunction,NonConductor*%
G36*
X42678192Y-87651685D02*
G01*
X42698834Y-87668319D01*
X43711923Y-88681408D01*
X43745408Y-88742731D01*
X43746715Y-88749689D01*
X43758609Y-88824783D01*
X43836459Y-89064380D01*
X43840140Y-89071603D01*
X43853037Y-89140272D01*
X43826762Y-89205013D01*
X43769657Y-89245271D01*
X43729656Y-89251900D01*
X39412146Y-89251900D01*
X39345107Y-89232215D01*
X39324465Y-89215581D01*
X38327475Y-88218590D01*
X38293990Y-88157267D01*
X38292683Y-88150306D01*
X38280790Y-88075214D01*
X38265912Y-88029428D01*
X38202941Y-87835621D01*
X38191056Y-87812295D01*
X38178160Y-87743625D01*
X38204436Y-87678885D01*
X38261543Y-87638628D01*
X38301541Y-87632000D01*
X42611153Y-87632000D01*
X42678192Y-87651685D01*
G37*
%TD.AperFunction*%
%TA.AperFunction,NonConductor*%
G36*
X49070675Y-77045547D02*
G01*
X49119370Y-77095652D01*
X49133700Y-77153519D01*
X49133700Y-77199754D01*
X49136096Y-77214886D01*
X49165722Y-77401931D01*
X49228979Y-77596617D01*
X49231662Y-77601883D01*
X49231663Y-77601884D01*
X49321913Y-77779011D01*
X49442234Y-77944619D01*
X54148849Y-82651234D01*
X58305844Y-86808228D01*
X58339329Y-86869551D01*
X58334345Y-86939243D01*
X58292473Y-86995176D01*
X58227009Y-87019593D01*
X58161869Y-87006394D01*
X58084086Y-86966761D01*
X57844485Y-86888910D01*
X57841909Y-86888502D01*
X57595662Y-86849500D01*
X57343738Y-86849500D01*
X57247770Y-86864700D01*
X57094914Y-86888910D01*
X56855316Y-86966760D01*
X56630851Y-87081132D01*
X56427050Y-87229201D01*
X56427045Y-87229205D01*
X56248905Y-87407345D01*
X56248901Y-87407350D01*
X56100832Y-87611151D01*
X55986460Y-87835616D01*
X55908610Y-88075214D01*
X55908610Y-88075215D01*
X55869200Y-88324038D01*
X55869200Y-88575962D01*
X55885901Y-88681408D01*
X55908610Y-88824785D01*
X55986460Y-89064383D01*
X56100832Y-89288848D01*
X56248901Y-89492649D01*
X56248905Y-89492654D01*
X56427044Y-89670793D01*
X56427050Y-89670798D01*
X56569347Y-89774182D01*
X56630855Y-89818870D01*
X56746286Y-89877685D01*
X56855316Y-89933239D01*
X56855318Y-89933239D01*
X56855321Y-89933241D01*
X57094915Y-90011090D01*
X57343738Y-90050500D01*
X57343739Y-90050500D01*
X57595661Y-90050500D01*
X57595662Y-90050500D01*
X57844485Y-90011090D01*
X58084079Y-89933241D01*
X58308545Y-89818870D01*
X58512356Y-89670793D01*
X58690493Y-89492656D01*
X58838570Y-89288845D01*
X58952941Y-89064379D01*
X59030790Y-88824785D01*
X59070200Y-88575962D01*
X59070200Y-88324038D01*
X59030790Y-88075215D01*
X58952941Y-87835621D01*
X58952939Y-87835618D01*
X58952939Y-87835616D01*
X58913305Y-87757831D01*
X58900409Y-87689162D01*
X58926685Y-87624421D01*
X58983792Y-87584164D01*
X59053597Y-87581172D01*
X59111471Y-87613855D01*
X60791708Y-89294092D01*
X60791722Y-89294107D01*
X60794833Y-89297218D01*
X60794834Y-89297219D01*
X60939581Y-89441966D01*
X60939584Y-89441968D01*
X60939587Y-89441971D01*
X60986433Y-89476006D01*
X61022385Y-89502126D01*
X61105189Y-89562287D01*
X61152612Y-89586450D01*
X61287581Y-89655220D01*
X61287583Y-89655220D01*
X61287586Y-89655222D01*
X61335509Y-89670793D01*
X61335510Y-89670793D01*
X61482265Y-89718477D01*
X61684448Y-89750500D01*
X64116462Y-89750500D01*
X64183501Y-89770185D01*
X64189337Y-89774175D01*
X64250855Y-89818870D01*
X64356906Y-89872905D01*
X64475316Y-89933239D01*
X64475318Y-89933239D01*
X64475321Y-89933241D01*
X64714915Y-90011090D01*
X64963738Y-90050500D01*
X64963739Y-90050500D01*
X65215661Y-90050500D01*
X65215662Y-90050500D01*
X65464485Y-90011090D01*
X65704079Y-89933241D01*
X65928545Y-89818870D01*
X66132356Y-89670793D01*
X66310493Y-89492656D01*
X66458570Y-89288845D01*
X66572941Y-89064379D01*
X66650790Y-88824785D01*
X66690200Y-88575962D01*
X66690200Y-88324038D01*
X66650790Y-88075215D01*
X66572941Y-87835621D01*
X66572939Y-87835618D01*
X66572939Y-87835616D01*
X66526067Y-87743625D01*
X66458570Y-87611155D01*
X66436786Y-87581172D01*
X66310498Y-87407350D01*
X66310494Y-87407345D01*
X66132354Y-87229205D01*
X66132349Y-87229201D01*
X65928548Y-87081132D01*
X65928547Y-87081131D01*
X65928545Y-87081130D01*
X65807772Y-87019593D01*
X65704083Y-86966760D01*
X65464485Y-86888910D01*
X65461909Y-86888502D01*
X65215662Y-86849500D01*
X64963738Y-86849500D01*
X64867770Y-86864700D01*
X64714914Y-86888910D01*
X64475316Y-86966760D01*
X64250854Y-87081130D01*
X64212501Y-87108995D01*
X64189346Y-87125818D01*
X64123542Y-87149298D01*
X64116462Y-87149500D01*
X62376846Y-87149500D01*
X62309807Y-87129815D01*
X62289165Y-87113181D01*
X60222965Y-85046981D01*
X60189480Y-84985658D01*
X60194464Y-84915966D01*
X60236336Y-84860033D01*
X60301800Y-84835616D01*
X60310646Y-84835300D01*
X69442300Y-84835300D01*
X69509339Y-84854985D01*
X69555094Y-84907789D01*
X69566300Y-84959300D01*
X69566300Y-95674935D01*
X69546615Y-95741974D01*
X69493811Y-95787729D01*
X69424653Y-95797673D01*
X69386007Y-95785421D01*
X69349382Y-95766760D01*
X69109783Y-95688909D01*
X69034689Y-95677015D01*
X68971555Y-95647085D01*
X68966408Y-95642223D01*
X67423921Y-94099736D01*
X67423919Y-94099734D01*
X67258311Y-93979413D01*
X67167114Y-93932946D01*
X67075923Y-93886481D01*
X66993656Y-93859751D01*
X66978576Y-93854851D01*
X66954703Y-93847094D01*
X66881235Y-93823222D01*
X66706695Y-93795578D01*
X66679052Y-93791200D01*
X66679051Y-93791200D01*
X54073497Y-93791200D01*
X54070955Y-93791100D01*
X54067352Y-93791100D01*
X53797747Y-93791100D01*
X53730708Y-93771415D01*
X53710066Y-93754781D01*
X50369765Y-90414480D01*
X50336280Y-90353157D01*
X50341264Y-90283465D01*
X50369761Y-90239122D01*
X50551110Y-90057773D01*
X50612431Y-90024290D01*
X50619345Y-90022990D01*
X50694485Y-90011090D01*
X50934079Y-89933241D01*
X51158545Y-89818870D01*
X51362356Y-89670793D01*
X51540493Y-89492656D01*
X51688570Y-89288845D01*
X51802941Y-89064379D01*
X51880790Y-88824785D01*
X51920200Y-88575962D01*
X51920200Y-88324038D01*
X51880790Y-88075215D01*
X51802941Y-87835621D01*
X51802939Y-87835618D01*
X51802939Y-87835616D01*
X51756067Y-87743625D01*
X51688570Y-87611155D01*
X51666786Y-87581172D01*
X51540498Y-87407350D01*
X51540494Y-87407345D01*
X51362354Y-87229205D01*
X51362349Y-87229201D01*
X51158548Y-87081132D01*
X51158547Y-87081131D01*
X51158545Y-87081130D01*
X50934079Y-86966759D01*
X50694485Y-86888910D01*
X50694483Y-86888909D01*
X50619389Y-86877015D01*
X50556254Y-86847085D01*
X50551107Y-86842223D01*
X46360119Y-82651234D01*
X46326634Y-82589911D01*
X46323800Y-82563553D01*
X46323800Y-77400400D01*
X46343485Y-77333361D01*
X46396289Y-77287606D01*
X46465447Y-77277662D01*
X46504098Y-77289917D01*
X46510621Y-77293241D01*
X46750215Y-77371090D01*
X46999038Y-77410500D01*
X46999039Y-77410500D01*
X48050961Y-77410500D01*
X48050962Y-77410500D01*
X48299785Y-77371090D01*
X48539379Y-77293241D01*
X48763845Y-77178870D01*
X48878385Y-77095652D01*
X48936815Y-77053201D01*
X49002621Y-77029721D01*
X49070675Y-77045547D01*
G37*
%TD.AperFunction*%
%TA.AperFunction,NonConductor*%
G36*
X35052661Y-88558736D02*
G01*
X35108595Y-88600607D01*
X35131800Y-88655519D01*
X35135901Y-88681408D01*
X35158610Y-88824785D01*
X35236460Y-89064383D01*
X35350832Y-89288848D01*
X35498901Y-89492649D01*
X35498905Y-89492654D01*
X35677044Y-89670793D01*
X35677050Y-89670798D01*
X35819347Y-89774182D01*
X35880855Y-89818870D01*
X35996286Y-89877685D01*
X36105316Y-89933239D01*
X36105318Y-89933239D01*
X36105321Y-89933241D01*
X36233749Y-89974970D01*
X36344914Y-90011090D01*
X36384139Y-90017302D01*
X36420006Y-90022983D01*
X36483141Y-90052912D01*
X36488290Y-90057775D01*
X37827008Y-91396492D01*
X37827022Y-91396507D01*
X37830133Y-91399618D01*
X37830134Y-91399619D01*
X37974881Y-91544366D01*
X37974884Y-91544368D01*
X37974888Y-91544372D01*
X38125068Y-91653482D01*
X38140490Y-91664687D01*
X38259720Y-91725438D01*
X38322881Y-91757621D01*
X38322884Y-91757622D01*
X38420224Y-91789249D01*
X38517566Y-91820877D01*
X38719748Y-91852900D01*
X38719749Y-91852900D01*
X38924452Y-91852900D01*
X48078453Y-91852900D01*
X48145492Y-91872585D01*
X48166134Y-91889219D01*
X52360481Y-96083566D01*
X52526089Y-96203887D01*
X52557749Y-96220018D01*
X52608544Y-96267989D01*
X52625340Y-96335810D01*
X52602804Y-96401945D01*
X52601777Y-96403381D01*
X52596131Y-96411152D01*
X52481759Y-96635619D01*
X52479507Y-96642552D01*
X52440068Y-96700226D01*
X52375709Y-96727423D01*
X52306863Y-96715507D01*
X52273896Y-96691912D01*
X49686621Y-94104636D01*
X49686620Y-94104635D01*
X49686619Y-94104634D01*
X49521011Y-93984313D01*
X49429814Y-93937846D01*
X49420197Y-93932946D01*
X49338623Y-93891381D01*
X49291915Y-93876204D01*
X49241276Y-93859751D01*
X49217403Y-93851994D01*
X49143935Y-93828122D01*
X48969395Y-93800478D01*
X48941752Y-93796100D01*
X41246048Y-93796100D01*
X41221729Y-93799951D01*
X41043865Y-93828122D01*
X40849176Y-93891381D01*
X40710680Y-93961949D01*
X40666790Y-93984313D01*
X40666789Y-93984314D01*
X40658891Y-93990052D01*
X40658890Y-93990051D01*
X40658890Y-93990052D01*
X40501186Y-94104628D01*
X40501182Y-94104632D01*
X38963590Y-95642223D01*
X38902267Y-95675708D01*
X38895309Y-95677015D01*
X38820217Y-95688909D01*
X38580618Y-95766760D01*
X38356151Y-95881132D01*
X38152350Y-96029201D01*
X38152345Y-96029205D01*
X37974205Y-96207345D01*
X37974201Y-96207350D01*
X37826132Y-96411151D01*
X37711760Y-96635618D01*
X37633909Y-96875216D01*
X37622015Y-96950310D01*
X37592085Y-97013444D01*
X37587223Y-97018591D01*
X36584034Y-98021781D01*
X36522711Y-98055266D01*
X36496353Y-98058100D01*
X33161885Y-98058100D01*
X33094846Y-98038415D01*
X33049091Y-97985611D01*
X33039147Y-97916453D01*
X33051401Y-97877804D01*
X33058238Y-97864385D01*
X33058239Y-97864383D01*
X33058241Y-97864379D01*
X33136090Y-97624785D01*
X33175500Y-97375962D01*
X33175500Y-97124038D01*
X33136090Y-96875215D01*
X33058241Y-96635621D01*
X33058239Y-96635618D01*
X33058239Y-96635616D01*
X33008881Y-96538747D01*
X32943870Y-96411155D01*
X32875500Y-96317051D01*
X32795798Y-96207350D01*
X32795794Y-96207345D01*
X32617654Y-96029205D01*
X32617649Y-96029201D01*
X32436415Y-95897527D01*
X32393749Y-95842197D01*
X32385300Y-95797209D01*
X32385300Y-90164384D01*
X32404985Y-90097345D01*
X32457789Y-90051590D01*
X32521451Y-90040981D01*
X32618092Y-90050500D01*
X32618097Y-90050500D01*
X33821305Y-90050500D01*
X33821308Y-90050500D01*
X33975634Y-90035300D01*
X34173654Y-89975232D01*
X34356150Y-89877685D01*
X34516110Y-89746410D01*
X34647385Y-89586450D01*
X34744932Y-89403954D01*
X34805000Y-89205934D01*
X34820200Y-89051608D01*
X34820200Y-88740047D01*
X34828843Y-88710610D01*
X34835367Y-88680621D01*
X34839122Y-88675603D01*
X34839885Y-88673008D01*
X34856513Y-88652371D01*
X34921650Y-88587234D01*
X34982969Y-88553752D01*
X35052661Y-88558736D01*
G37*
%TD.AperFunction*%
%TA.AperFunction,NonConductor*%
G36*
X59620477Y-96411885D02*
G01*
X59666232Y-96464689D01*
X59676176Y-96533847D01*
X59663923Y-96572495D01*
X59631760Y-96635618D01*
X59553909Y-96875217D01*
X59542015Y-96950309D01*
X59512085Y-97013443D01*
X59507223Y-97018590D01*
X58494934Y-98030881D01*
X58433611Y-98064366D01*
X58407253Y-98067200D01*
X55547249Y-98067200D01*
X55480210Y-98047515D01*
X55434455Y-97994711D01*
X55424511Y-97925553D01*
X55436763Y-97886907D01*
X55441401Y-97877804D01*
X55448241Y-97864379D01*
X55526090Y-97624785D01*
X55565500Y-97375962D01*
X55565500Y-97124038D01*
X55526090Y-96875215D01*
X55448241Y-96635621D01*
X55416077Y-96572495D01*
X55403181Y-96503825D01*
X55429458Y-96439085D01*
X55486564Y-96398828D01*
X55526562Y-96392200D01*
X59553438Y-96392200D01*
X59620477Y-96411885D01*
G37*
%TD.AperFunction*%
%TA.AperFunction,NonConductor*%
G36*
X66053692Y-96411885D02*
G01*
X66074334Y-96428519D01*
X67127223Y-97481408D01*
X67160708Y-97542731D01*
X67162015Y-97549689D01*
X67173909Y-97624783D01*
X67173910Y-97624785D01*
X67251759Y-97864379D01*
X67355101Y-98067200D01*
X67366132Y-98088848D01*
X67514201Y-98292649D01*
X67514205Y-98292654D01*
X67692345Y-98470794D01*
X67692350Y-98470798D01*
X67771786Y-98528511D01*
X67896155Y-98618870D01*
X68120621Y-98733241D01*
X68171550Y-98749789D01*
X68229225Y-98789225D01*
X68256424Y-98853583D01*
X68244510Y-98922429D01*
X68220913Y-98955400D01*
X67297434Y-99878881D01*
X67236111Y-99912366D01*
X67209753Y-99915200D01*
X60588347Y-99915200D01*
X60521308Y-99895515D01*
X60475553Y-99842711D01*
X60465609Y-99773553D01*
X60494634Y-99709997D01*
X60500666Y-99703519D01*
X60635670Y-99568514D01*
X61346410Y-98857773D01*
X61407731Y-98824290D01*
X61414645Y-98822990D01*
X61489785Y-98811090D01*
X61729379Y-98733241D01*
X61953845Y-98618870D01*
X62157656Y-98470793D01*
X62335793Y-98292656D01*
X62483870Y-98088845D01*
X62598241Y-97864379D01*
X62676090Y-97624785D01*
X62715500Y-97375962D01*
X62715500Y-97124038D01*
X62676090Y-96875215D01*
X62598241Y-96635621D01*
X62566077Y-96572495D01*
X62553181Y-96503825D01*
X62579458Y-96439085D01*
X62636564Y-96398828D01*
X62676562Y-96392200D01*
X65986653Y-96392200D01*
X66053692Y-96411885D01*
G37*
%TD.AperFunction*%
%TA.AperFunction,NonConductor*%
G36*
X48316392Y-96416785D02*
G01*
X48337034Y-96433419D01*
X50055049Y-98151434D01*
X51607135Y-99703519D01*
X51640620Y-99764842D01*
X51635636Y-99834534D01*
X51593764Y-99890467D01*
X51528300Y-99914884D01*
X51519454Y-99915200D01*
X50900746Y-99915200D01*
X50833707Y-99895515D01*
X50813065Y-99878881D01*
X47952775Y-97018590D01*
X47919290Y-96957267D01*
X47917983Y-96950306D01*
X47906090Y-96875214D01*
X47858069Y-96727423D01*
X47828241Y-96635621D01*
X47828238Y-96635617D01*
X47828238Y-96635614D01*
X47798574Y-96577396D01*
X47785677Y-96508726D01*
X47811953Y-96443986D01*
X47869059Y-96403728D01*
X47909058Y-96397100D01*
X48249353Y-96397100D01*
X48316392Y-96416785D01*
G37*
%TD.AperFunction*%
M02*
