%TF.GenerationSoftware,KiCad,Pcbnew,9.0.6*%
%TF.CreationDate,2026-06-10T07:38:51+02:00*%
%TF.ProjectId,drive_circuit,64726976-655f-4636-9972-637569742e6b,rev?*%
%TF.SameCoordinates,Original*%
%TF.FileFunction,Soldermask,Top*%
%TF.FilePolarity,Negative*%
%FSLAX46Y46*%
G04 Gerber Fmt 4.6, Leading zero omitted, Abs format (unit mm)*
G04 Created by KiCad (PCBNEW 9.0.6) date 2026-06-10 07:38:51*
%MOMM*%
%LPD*%
G01*
G04 APERTURE LIST*
G04 Aperture macros list*
%AMRoundRect*
0 Rectangle with rounded corners*
0 $1 Rounding radius*
0 $2 $3 $4 $5 $6 $7 $8 $9 X,Y pos of 4 corners*
0 Add a 4 corners polygon primitive as box body*
4,1,4,$2,$3,$4,$5,$6,$7,$8,$9,$2,$3,0*
0 Add four circle primitives for the rounded corners*
1,1,$1+$1,$2,$3*
1,1,$1+$1,$4,$5*
1,1,$1+$1,$6,$7*
1,1,$1+$1,$8,$9*
0 Add four rect primitives between the rounded corners*
20,1,$1+$1,$2,$3,$4,$5,0*
20,1,$1+$1,$4,$5,$6,$7,0*
20,1,$1+$1,$6,$7,$8,$9,0*
20,1,$1+$1,$8,$9,$2,$3,0*%
G04 Aperture macros list end*
%ADD10C,1.600000*%
%ADD11R,3.000000X3.000000*%
%ADD12C,3.000000*%
%ADD13R,1.700000X1.700000*%
%ADD14C,1.700000*%
%ADD15RoundRect,0.250000X-0.950000X-0.550000X0.950000X-0.550000X0.950000X0.550000X-0.950000X0.550000X0*%
%ADD16O,2.400000X1.600000*%
%ADD17RoundRect,0.249999X-0.850001X-0.850001X0.850001X-0.850001X0.850001X0.850001X-0.850001X0.850001X0*%
%ADD18C,2.200000*%
%ADD19R,1.700000X2.000000*%
%ADD20O,1.700000X2.000000*%
%ADD21RoundRect,0.250000X-0.550000X-0.550000X0.550000X-0.550000X0.550000X0.550000X-0.550000X0.550000X0*%
G04 APERTURE END LIST*
D10*
%TO.C,R1*%
X54075000Y-67325000D03*
X61695000Y-67325000D03*
%TD*%
D11*
%TO.C,M1*%
X135540000Y-46050000D03*
D12*
X140620000Y-46050000D03*
%TD*%
D11*
%TO.C,J2*%
X133000000Y-32000000D03*
D12*
X138080000Y-32000000D03*
X143160000Y-32000000D03*
%TD*%
D13*
%TO.C,J1*%
X35000000Y-33275000D03*
D14*
X35000000Y-30735000D03*
%TD*%
D10*
%TO.C,C2*%
X107959700Y-51625000D03*
X112959700Y-51625000D03*
%TD*%
D15*
%TO.C,U2*%
X73045000Y-44005000D03*
D16*
X73045000Y-46545000D03*
X73045000Y-49085000D03*
X73045000Y-51625000D03*
X73045000Y-54165000D03*
X73045000Y-56705000D03*
X73045000Y-59245000D03*
X80665000Y-59245000D03*
X80665000Y-56705000D03*
X80665000Y-54165000D03*
X80665000Y-51625000D03*
X80665000Y-49085000D03*
X80665000Y-46545000D03*
X80665000Y-44005000D03*
%TD*%
D17*
%TO.C,D2*%
X75285000Y-34975000D03*
D18*
X85445000Y-34975000D03*
%TD*%
D10*
%TO.C,R2*%
X71845000Y-67325000D03*
X79465000Y-67325000D03*
%TD*%
D15*
%TO.C,U1*%
X54475000Y-47815000D03*
D16*
X54475000Y-50355000D03*
X54475000Y-52895000D03*
X54475000Y-55435000D03*
X62095000Y-55435000D03*
X62095000Y-52895000D03*
X62095000Y-50355000D03*
X62095000Y-47815000D03*
%TD*%
D19*
%TO.C,Q1*%
X97555000Y-35925000D03*
D20*
X100095000Y-35925000D03*
X102635000Y-35925000D03*
%TD*%
D10*
%TO.C,R3*%
X89615000Y-67325000D03*
X97235000Y-67325000D03*
%TD*%
%TO.C,R4*%
X107385000Y-67325000D03*
X115005000Y-67325000D03*
%TD*%
D21*
%TO.C,C1*%
X92859700Y-51625000D03*
D10*
X96359700Y-51625000D03*
%TD*%
D17*
%TO.C,D1*%
X54375000Y-34975000D03*
D18*
X64535000Y-34975000D03*
%TD*%
M02*
