%TF.GenerationSoftware,KiCad,Pcbnew,9.0.4*%
%TF.CreationDate,2026-06-11T08:54:40+02:00*%
%TF.ProjectId,drive_circuit,64726976-655f-4636-9972-637569742e6b,rev?*%
%TF.SameCoordinates,Original*%
%TF.FileFunction,Copper,L1,Top*%
%TF.FilePolarity,Positive*%
%FSLAX46Y46*%
G04 Gerber Fmt 4.6, Leading zero omitted, Abs format (unit mm)*
G04 Created by KiCad (PCBNEW 9.0.4) date 2026-06-11 08:54:40*
%MOMM*%
%LPD*%
G01*
G04 APERTURE LIST*
G04 Aperture macros list*
%AMRoundRect*
0 Rectangle with rounded corners*
0 $1 Rounding radius*
0 $2 $3 $4 $5 $6 $7 $8 $9 X,Y pos of 4 corners*
0 Add a 4 corners polygon primitive as box body*
4,1,4,$2,$3,$4,$5,$6,$7,$8,$9,$2,$3,0*
0 Add four circle primitives for the rounded corners*
1,1,$1+$1,$2,$3*
1,1,$1+$1,$4,$5*
1,1,$1+$1,$6,$7*
1,1,$1+$1,$8,$9*
0 Add four rect primitives between the rounded corners*
20,1,$1+$1,$2,$3,$4,$5,0*
20,1,$1+$1,$4,$5,$6,$7,0*
20,1,$1+$1,$6,$7,$8,$9,0*
20,1,$1+$1,$8,$9,$2,$3,0*%
G04 Aperture macros list end*
%ADD10C,0.300000*%
%TA.AperFunction,NonConductor*%
%ADD11C,0.300000*%
%TD*%
%TA.AperFunction,ComponentPad*%
%ADD12R,1.700000X1.700000*%
%TD*%
%TA.AperFunction,ComponentPad*%
%ADD13C,1.700000*%
%TD*%
%TA.AperFunction,ComponentPad*%
%ADD14RoundRect,0.250000X-0.550000X-0.550000X0.550000X-0.550000X0.550000X0.550000X-0.550000X0.550000X0*%
%TD*%
%TA.AperFunction,ComponentPad*%
%ADD15C,1.600000*%
%TD*%
%TA.AperFunction,ComponentPad*%
%ADD16RoundRect,0.249999X-0.850001X-0.850001X0.850001X-0.850001X0.850001X0.850001X-0.850001X0.850001X0*%
%TD*%
%TA.AperFunction,ComponentPad*%
%ADD17C,2.200000*%
%TD*%
%TA.AperFunction,ComponentPad*%
%ADD18R,3.000000X3.000000*%
%TD*%
%TA.AperFunction,ComponentPad*%
%ADD19C,3.000000*%
%TD*%
%TA.AperFunction,ComponentPad*%
%ADD20R,1.700000X2.000000*%
%TD*%
%TA.AperFunction,ComponentPad*%
%ADD21O,1.700000X2.000000*%
%TD*%
%TA.AperFunction,ComponentPad*%
%ADD22RoundRect,0.250000X-0.950000X-0.550000X0.950000X-0.550000X0.950000X0.550000X-0.950000X0.550000X0*%
%TD*%
%TA.AperFunction,ComponentPad*%
%ADD23O,2.400000X1.600000*%
%TD*%
%TA.AperFunction,Conductor*%
%ADD24C,1.000000*%
%TD*%
G04 APERTURE END LIST*
D10*
D11*
X77050000Y-38653328D02*
X77050000Y-39724757D01*
X77050000Y-39724757D02*
X76978571Y-39939042D01*
X76978571Y-39939042D02*
X76835714Y-40081900D01*
X76835714Y-40081900D02*
X76621428Y-40153328D01*
X76621428Y-40153328D02*
X76478571Y-40153328D01*
X77692857Y-38796185D02*
X77764285Y-38724757D01*
X77764285Y-38724757D02*
X77907143Y-38653328D01*
X77907143Y-38653328D02*
X78264285Y-38653328D01*
X78264285Y-38653328D02*
X78407143Y-38724757D01*
X78407143Y-38724757D02*
X78478571Y-38796185D01*
X78478571Y-38796185D02*
X78550000Y-38939042D01*
X78550000Y-38939042D02*
X78550000Y-39081900D01*
X78550000Y-39081900D02*
X78478571Y-39296185D01*
X78478571Y-39296185D02*
X77621428Y-40153328D01*
X77621428Y-40153328D02*
X78550000Y-40153328D01*
D10*
D11*
X49905000Y-94703328D02*
X49405000Y-93989042D01*
X49047857Y-94703328D02*
X49047857Y-93203328D01*
X49047857Y-93203328D02*
X49619286Y-93203328D01*
X49619286Y-93203328D02*
X49762143Y-93274757D01*
X49762143Y-93274757D02*
X49833572Y-93346185D01*
X49833572Y-93346185D02*
X49905000Y-93489042D01*
X49905000Y-93489042D02*
X49905000Y-93703328D01*
X49905000Y-93703328D02*
X49833572Y-93846185D01*
X49833572Y-93846185D02*
X49762143Y-93917614D01*
X49762143Y-93917614D02*
X49619286Y-93989042D01*
X49619286Y-93989042D02*
X49047857Y-93989042D01*
X50405000Y-93203328D02*
X51333572Y-93203328D01*
X51333572Y-93203328D02*
X50833572Y-93774757D01*
X50833572Y-93774757D02*
X51047857Y-93774757D01*
X51047857Y-93774757D02*
X51190715Y-93846185D01*
X51190715Y-93846185D02*
X51262143Y-93917614D01*
X51262143Y-93917614D02*
X51333572Y-94060471D01*
X51333572Y-94060471D02*
X51333572Y-94417614D01*
X51333572Y-94417614D02*
X51262143Y-94560471D01*
X51262143Y-94560471D02*
X51190715Y-94631900D01*
X51190715Y-94631900D02*
X51047857Y-94703328D01*
X51047857Y-94703328D02*
X50619286Y-94703328D01*
X50619286Y-94703328D02*
X50476429Y-94631900D01*
X50476429Y-94631900D02*
X50405000Y-94560471D01*
D10*
D11*
X28657142Y-72821185D02*
X28514285Y-72749757D01*
X28514285Y-72749757D02*
X28371428Y-72606900D01*
X28371428Y-72606900D02*
X28157142Y-72392614D01*
X28157142Y-72392614D02*
X28014285Y-72321185D01*
X28014285Y-72321185D02*
X27871428Y-72321185D01*
X27942857Y-72678328D02*
X27800000Y-72606900D01*
X27800000Y-72606900D02*
X27657142Y-72464042D01*
X27657142Y-72464042D02*
X27585714Y-72178328D01*
X27585714Y-72178328D02*
X27585714Y-71678328D01*
X27585714Y-71678328D02*
X27657142Y-71392614D01*
X27657142Y-71392614D02*
X27800000Y-71249757D01*
X27800000Y-71249757D02*
X27942857Y-71178328D01*
X27942857Y-71178328D02*
X28228571Y-71178328D01*
X28228571Y-71178328D02*
X28371428Y-71249757D01*
X28371428Y-71249757D02*
X28514285Y-71392614D01*
X28514285Y-71392614D02*
X28585714Y-71678328D01*
X28585714Y-71678328D02*
X28585714Y-72178328D01*
X28585714Y-72178328D02*
X28514285Y-72464042D01*
X28514285Y-72464042D02*
X28371428Y-72606900D01*
X28371428Y-72606900D02*
X28228571Y-72678328D01*
X28228571Y-72678328D02*
X27942857Y-72678328D01*
X30014286Y-72678328D02*
X29157143Y-72678328D01*
X29585714Y-72678328D02*
X29585714Y-71178328D01*
X29585714Y-71178328D02*
X29442857Y-71392614D01*
X29442857Y-71392614D02*
X29300000Y-71535471D01*
X29300000Y-71535471D02*
X29157143Y-71606900D01*
D10*
D11*
X35847857Y-55553328D02*
X35847857Y-54053328D01*
X35847857Y-54053328D02*
X36205000Y-54053328D01*
X36205000Y-54053328D02*
X36419286Y-54124757D01*
X36419286Y-54124757D02*
X36562143Y-54267614D01*
X36562143Y-54267614D02*
X36633572Y-54410471D01*
X36633572Y-54410471D02*
X36705000Y-54696185D01*
X36705000Y-54696185D02*
X36705000Y-54910471D01*
X36705000Y-54910471D02*
X36633572Y-55196185D01*
X36633572Y-55196185D02*
X36562143Y-55339042D01*
X36562143Y-55339042D02*
X36419286Y-55481900D01*
X36419286Y-55481900D02*
X36205000Y-55553328D01*
X36205000Y-55553328D02*
X35847857Y-55553328D01*
X38133572Y-55553328D02*
X37276429Y-55553328D01*
X37705000Y-55553328D02*
X37705000Y-54053328D01*
X37705000Y-54053328D02*
X37562143Y-54267614D01*
X37562143Y-54267614D02*
X37419286Y-54410471D01*
X37419286Y-54410471D02*
X37276429Y-54481900D01*
D10*
D11*
X35135000Y-94703328D02*
X34635000Y-93989042D01*
X34277857Y-94703328D02*
X34277857Y-93203328D01*
X34277857Y-93203328D02*
X34849286Y-93203328D01*
X34849286Y-93203328D02*
X34992143Y-93274757D01*
X34992143Y-93274757D02*
X35063572Y-93346185D01*
X35063572Y-93346185D02*
X35135000Y-93489042D01*
X35135000Y-93489042D02*
X35135000Y-93703328D01*
X35135000Y-93703328D02*
X35063572Y-93846185D01*
X35063572Y-93846185D02*
X34992143Y-93917614D01*
X34992143Y-93917614D02*
X34849286Y-93989042D01*
X34849286Y-93989042D02*
X34277857Y-93989042D01*
X35706429Y-93346185D02*
X35777857Y-93274757D01*
X35777857Y-93274757D02*
X35920715Y-93203328D01*
X35920715Y-93203328D02*
X36277857Y-93203328D01*
X36277857Y-93203328D02*
X36420715Y-93274757D01*
X36420715Y-93274757D02*
X36492143Y-93346185D01*
X36492143Y-93346185D02*
X36563572Y-93489042D01*
X36563572Y-93489042D02*
X36563572Y-93631900D01*
X36563572Y-93631900D02*
X36492143Y-93846185D01*
X36492143Y-93846185D02*
X35635000Y-94703328D01*
X35635000Y-94703328D02*
X36563572Y-94703328D01*
D10*
D11*
X64285714Y-42703328D02*
X64285714Y-41203328D01*
X64285714Y-41203328D02*
X64785714Y-42274757D01*
X64785714Y-42274757D02*
X65285714Y-41203328D01*
X65285714Y-41203328D02*
X65285714Y-42703328D01*
X66785715Y-42703328D02*
X65928572Y-42703328D01*
X66357143Y-42703328D02*
X66357143Y-41203328D01*
X66357143Y-41203328D02*
X66214286Y-41417614D01*
X66214286Y-41417614D02*
X66071429Y-41560471D01*
X66071429Y-41560471D02*
X65928572Y-41631900D01*
D10*
D11*
X34622351Y-83010471D02*
X34550923Y-83081900D01*
X34550923Y-83081900D02*
X34336637Y-83153328D01*
X34336637Y-83153328D02*
X34193780Y-83153328D01*
X34193780Y-83153328D02*
X33979494Y-83081900D01*
X33979494Y-83081900D02*
X33836637Y-82939042D01*
X33836637Y-82939042D02*
X33765208Y-82796185D01*
X33765208Y-82796185D02*
X33693780Y-82510471D01*
X33693780Y-82510471D02*
X33693780Y-82296185D01*
X33693780Y-82296185D02*
X33765208Y-82010471D01*
X33765208Y-82010471D02*
X33836637Y-81867614D01*
X33836637Y-81867614D02*
X33979494Y-81724757D01*
X33979494Y-81724757D02*
X34193780Y-81653328D01*
X34193780Y-81653328D02*
X34336637Y-81653328D01*
X34336637Y-81653328D02*
X34550923Y-81724757D01*
X34550923Y-81724757D02*
X34622351Y-81796185D01*
X36050923Y-83153328D02*
X35193780Y-83153328D01*
X35622351Y-83153328D02*
X35622351Y-81653328D01*
X35622351Y-81653328D02*
X35479494Y-81867614D01*
X35479494Y-81867614D02*
X35336637Y-82010471D01*
X35336637Y-82010471D02*
X35193780Y-82081900D01*
D10*
D11*
X64675000Y-101153328D02*
X64175000Y-100439042D01*
X63817857Y-101153328D02*
X63817857Y-99653328D01*
X63817857Y-99653328D02*
X64389286Y-99653328D01*
X64389286Y-99653328D02*
X64532143Y-99724757D01*
X64532143Y-99724757D02*
X64603572Y-99796185D01*
X64603572Y-99796185D02*
X64675000Y-99939042D01*
X64675000Y-99939042D02*
X64675000Y-100153328D01*
X64675000Y-100153328D02*
X64603572Y-100296185D01*
X64603572Y-100296185D02*
X64532143Y-100367614D01*
X64532143Y-100367614D02*
X64389286Y-100439042D01*
X64389286Y-100439042D02*
X63817857Y-100439042D01*
X65960715Y-100153328D02*
X65960715Y-101153328D01*
X65603572Y-99581900D02*
X65246429Y-100653328D01*
X65246429Y-100653328D02*
X66175000Y-100653328D01*
D10*
D11*
X47569700Y-84260471D02*
X47498272Y-84331900D01*
X47498272Y-84331900D02*
X47283986Y-84403328D01*
X47283986Y-84403328D02*
X47141129Y-84403328D01*
X47141129Y-84403328D02*
X46926843Y-84331900D01*
X46926843Y-84331900D02*
X46783986Y-84189042D01*
X46783986Y-84189042D02*
X46712557Y-84046185D01*
X46712557Y-84046185D02*
X46641129Y-83760471D01*
X46641129Y-83760471D02*
X46641129Y-83546185D01*
X46641129Y-83546185D02*
X46712557Y-83260471D01*
X46712557Y-83260471D02*
X46783986Y-83117614D01*
X46783986Y-83117614D02*
X46926843Y-82974757D01*
X46926843Y-82974757D02*
X47141129Y-82903328D01*
X47141129Y-82903328D02*
X47283986Y-82903328D01*
X47283986Y-82903328D02*
X47498272Y-82974757D01*
X47498272Y-82974757D02*
X47569700Y-83046185D01*
X48141129Y-83046185D02*
X48212557Y-82974757D01*
X48212557Y-82974757D02*
X48355415Y-82903328D01*
X48355415Y-82903328D02*
X48712557Y-82903328D01*
X48712557Y-82903328D02*
X48855415Y-82974757D01*
X48855415Y-82974757D02*
X48926843Y-83046185D01*
X48926843Y-83046185D02*
X48998272Y-83189042D01*
X48998272Y-83189042D02*
X48998272Y-83331900D01*
X48998272Y-83331900D02*
X48926843Y-83546185D01*
X48926843Y-83546185D02*
X48069700Y-84403328D01*
X48069700Y-84403328D02*
X48998272Y-84403328D01*
D10*
D11*
X41707142Y-79733328D02*
X41707142Y-80947614D01*
X41707142Y-80947614D02*
X41778571Y-81090471D01*
X41778571Y-81090471D02*
X41850000Y-81161900D01*
X41850000Y-81161900D02*
X41992857Y-81233328D01*
X41992857Y-81233328D02*
X42278571Y-81233328D01*
X42278571Y-81233328D02*
X42421428Y-81161900D01*
X42421428Y-81161900D02*
X42492857Y-81090471D01*
X42492857Y-81090471D02*
X42564285Y-80947614D01*
X42564285Y-80947614D02*
X42564285Y-79733328D01*
X44064286Y-81233328D02*
X43207143Y-81233328D01*
X43635714Y-81233328D02*
X43635714Y-79733328D01*
X43635714Y-79733328D02*
X43492857Y-79947614D01*
X43492857Y-79947614D02*
X43350000Y-80090471D01*
X43350000Y-80090471D02*
X43207143Y-80161900D01*
D10*
D11*
X61029700Y-92353328D02*
X60529700Y-91639042D01*
X60172557Y-92353328D02*
X60172557Y-90853328D01*
X60172557Y-90853328D02*
X60743986Y-90853328D01*
X60743986Y-90853328D02*
X60886843Y-90924757D01*
X60886843Y-90924757D02*
X60958272Y-90996185D01*
X60958272Y-90996185D02*
X61029700Y-91139042D01*
X61029700Y-91139042D02*
X61029700Y-91353328D01*
X61029700Y-91353328D02*
X60958272Y-91496185D01*
X60958272Y-91496185D02*
X60886843Y-91567614D01*
X60886843Y-91567614D02*
X60743986Y-91639042D01*
X60743986Y-91639042D02*
X60172557Y-91639042D01*
X62458272Y-92353328D02*
X61601129Y-92353328D01*
X62029700Y-92353328D02*
X62029700Y-90853328D01*
X62029700Y-90853328D02*
X61886843Y-91067614D01*
X61886843Y-91067614D02*
X61743986Y-91210471D01*
X61743986Y-91210471D02*
X61601129Y-91281900D01*
D10*
D11*
X75747142Y-71178328D02*
X75747142Y-72392614D01*
X75747142Y-72392614D02*
X75818571Y-72535471D01*
X75818571Y-72535471D02*
X75890000Y-72606900D01*
X75890000Y-72606900D02*
X76032857Y-72678328D01*
X76032857Y-72678328D02*
X76318571Y-72678328D01*
X76318571Y-72678328D02*
X76461428Y-72606900D01*
X76461428Y-72606900D02*
X76532857Y-72535471D01*
X76532857Y-72535471D02*
X76604285Y-72392614D01*
X76604285Y-72392614D02*
X76604285Y-71178328D01*
X77247143Y-71321185D02*
X77318571Y-71249757D01*
X77318571Y-71249757D02*
X77461429Y-71178328D01*
X77461429Y-71178328D02*
X77818571Y-71178328D01*
X77818571Y-71178328D02*
X77961429Y-71249757D01*
X77961429Y-71249757D02*
X78032857Y-71321185D01*
X78032857Y-71321185D02*
X78104286Y-71464042D01*
X78104286Y-71464042D02*
X78104286Y-71606900D01*
X78104286Y-71606900D02*
X78032857Y-71821185D01*
X78032857Y-71821185D02*
X77175714Y-72678328D01*
X77175714Y-72678328D02*
X78104286Y-72678328D01*
D10*
D11*
X48000000Y-45683328D02*
X48000000Y-46754757D01*
X48000000Y-46754757D02*
X47928571Y-46969042D01*
X47928571Y-46969042D02*
X47785714Y-47111900D01*
X47785714Y-47111900D02*
X47571428Y-47183328D01*
X47571428Y-47183328D02*
X47428571Y-47183328D01*
X49500000Y-47183328D02*
X48642857Y-47183328D01*
X49071428Y-47183328D02*
X49071428Y-45683328D01*
X49071428Y-45683328D02*
X48928571Y-45897614D01*
X48928571Y-45897614D02*
X48785714Y-46040471D01*
X48785714Y-46040471D02*
X48642857Y-46111900D01*
D10*
D11*
X53757857Y-55553328D02*
X53757857Y-54053328D01*
X53757857Y-54053328D02*
X54115000Y-54053328D01*
X54115000Y-54053328D02*
X54329286Y-54124757D01*
X54329286Y-54124757D02*
X54472143Y-54267614D01*
X54472143Y-54267614D02*
X54543572Y-54410471D01*
X54543572Y-54410471D02*
X54615000Y-54696185D01*
X54615000Y-54696185D02*
X54615000Y-54910471D01*
X54615000Y-54910471D02*
X54543572Y-55196185D01*
X54543572Y-55196185D02*
X54472143Y-55339042D01*
X54472143Y-55339042D02*
X54329286Y-55481900D01*
X54329286Y-55481900D02*
X54115000Y-55553328D01*
X54115000Y-55553328D02*
X53757857Y-55553328D01*
X55186429Y-54196185D02*
X55257857Y-54124757D01*
X55257857Y-54124757D02*
X55400715Y-54053328D01*
X55400715Y-54053328D02*
X55757857Y-54053328D01*
X55757857Y-54053328D02*
X55900715Y-54124757D01*
X55900715Y-54124757D02*
X55972143Y-54196185D01*
X55972143Y-54196185D02*
X56043572Y-54339042D01*
X56043572Y-54339042D02*
X56043572Y-54481900D01*
X56043572Y-54481900D02*
X55972143Y-54696185D01*
X55972143Y-54696185D02*
X55115000Y-55553328D01*
X55115000Y-55553328D02*
X56043572Y-55553328D01*
D12*
%TO.P,J1,1*%
%TO.N,PWM*%
X49775000Y-50000000D03*
D13*
%TO.P,J1,2*%
%TO.N,GND*%
X47235000Y-50000000D03*
%TD*%
D14*
%TO.P,C1,1*%
%TO.N,+15V*%
X33219700Y-88450000D03*
D15*
%TO.P,C1,2*%
%TO.N,GND*%
X36719700Y-88450000D03*
%TD*%
D16*
%TO.P,D2,1*%
%TO.N,Net-(D2-K)*%
X49785000Y-58200000D03*
D17*
%TO.P,D2,2*%
%TO.N,Net-(D2-A)*%
X59945000Y-58200000D03*
%TD*%
D18*
%TO.P,J2,1*%
%TO.N,+20V*%
X77550000Y-43920000D03*
D19*
%TO.P,J2,2*%
%TO.N,+15V*%
X77550000Y-49000000D03*
%TO.P,J2,3*%
%TO.N,GND*%
X77550000Y-54080000D03*
%TD*%
D15*
%TO.P,R2,1*%
%TO.N,Net-(D2-K)*%
X31575000Y-97250000D03*
%TO.P,R2,2*%
%TO.N,Net-(D2-A)*%
X39195000Y-97250000D03*
%TD*%
%TO.P,R1,1*%
%TO.N,PWM*%
X57469700Y-88450000D03*
%TO.P,R1,2*%
%TO.N,Net-(R1-Pad2)*%
X65089700Y-88450000D03*
%TD*%
D18*
%TO.P,M1,1*%
%TO.N,+20V*%
X65500000Y-46460000D03*
D19*
%TO.P,M1,2*%
%TO.N,Net-(D1-A)*%
X65500000Y-51540000D03*
%TD*%
D16*
%TO.P,D1,1*%
%TO.N,+20V*%
X31875000Y-58200000D03*
D17*
%TO.P,D1,2*%
%TO.N,Net-(D1-A)*%
X42035000Y-58200000D03*
%TD*%
D15*
%TO.P,R3,1*%
%TO.N,Net-(U2-LIN)*%
X46345000Y-97250000D03*
%TO.P,R3,2*%
%TO.N,GND*%
X53965000Y-97250000D03*
%TD*%
%TO.P,R4,1*%
%TO.N,Net-(D2-A)*%
X61115000Y-97250000D03*
%TO.P,R4,2*%
%TO.N,GND*%
X68735000Y-97250000D03*
%TD*%
D20*
%TO.P,Q1,1*%
%TO.N,Net-(D2-A)*%
X33235000Y-72950000D03*
D21*
%TO.P,Q1,2*%
%TO.N,Net-(D1-A)*%
X35775000Y-72950000D03*
%TO.P,Q1,3*%
%TO.N,GND*%
X38315000Y-72950000D03*
%TD*%
D15*
%TO.P,C2,1*%
%TO.N,+15V*%
X45319700Y-88450000D03*
%TO.P,C2,2*%
%TO.N,GND*%
X50319700Y-88450000D03*
%TD*%
D22*
%TO.P,U2,1*%
%TO.N,Net-(D2-K)*%
X63095000Y-64380000D03*
D23*
%TO.P,U2,2*%
%TO.N,GND*%
X63095000Y-66920000D03*
%TO.P,U2,3*%
%TO.N,+15V*%
X63095000Y-69460000D03*
%TO.P,U2,4*%
%TO.N,N/C*%
X63095000Y-72000000D03*
%TO.P,U2,5*%
%TO.N,GND*%
X63095000Y-74540000D03*
%TO.P,U2,6*%
%TO.N,N/C*%
X63095000Y-77080000D03*
%TO.P,U2,7*%
X63095000Y-79620000D03*
%TO.P,U2,8*%
X70715000Y-79620000D03*
%TO.P,U2,9*%
%TO.N,+15V*%
X70715000Y-77080000D03*
%TO.P,U2,10*%
%TO.N,GND*%
X70715000Y-74540000D03*
%TO.P,U2,11*%
X70715000Y-72000000D03*
%TO.P,U2,12*%
%TO.N,Net-(U2-LIN)*%
X70715000Y-69460000D03*
%TO.P,U2,13*%
%TO.N,GND*%
X70715000Y-66920000D03*
%TO.P,U2,14*%
%TO.N,N/C*%
X70715000Y-64380000D03*
%TD*%
D22*
%TO.P,U1,1*%
%TO.N,Net-(R1-Pad2)*%
X47525000Y-68190000D03*
D23*
%TO.P,U1,2*%
%TO.N,GND*%
X47525000Y-70730000D03*
%TO.P,U1,3*%
%TO.N,N/C*%
X47525000Y-73270000D03*
%TO.P,U1,4*%
X47525000Y-75810000D03*
%TO.P,U1,5*%
X55145000Y-75810000D03*
%TO.P,U1,6*%
X55145000Y-73270000D03*
%TO.P,U1,7*%
%TO.N,+15V*%
X55145000Y-70730000D03*
%TO.P,U1,8*%
%TO.N,Net-(U2-LIN)*%
X55145000Y-68190000D03*
%TD*%
D24*
%TO.N,GND*%
X63095000Y-66920000D02*
X58726800Y-66920000D01*
X38315000Y-72950000D02*
X40466700Y-72950000D01*
X50026700Y-69865800D02*
X50026700Y-70730000D01*
X57880300Y-66073500D02*
X53819000Y-66073500D01*
X47525000Y-70730000D02*
X42686700Y-70730000D01*
X58726800Y-66920000D02*
X57880300Y-66073500D01*
X70715000Y-66920000D02*
X63095000Y-66920000D01*
X53819000Y-66073500D02*
X50026700Y-69865800D01*
X47525000Y-70730000D02*
X50026700Y-70730000D01*
X42686700Y-70730000D02*
X40466700Y-72950000D01*
%TO.N,Net-(D2-A)*%
X55866200Y-62278800D02*
X59945000Y-58200000D01*
X33235000Y-72950000D02*
X33235000Y-70648300D01*
X33235000Y-70648300D02*
X41604500Y-62278800D01*
X41604500Y-62278800D02*
X55866200Y-62278800D01*
%TO.N,PWM*%
X59709400Y-50000000D02*
X49775000Y-50000000D01*
X61971900Y-83947800D02*
X69767600Y-83947800D01*
X73255700Y-80459700D02*
X73255700Y-63546300D01*
X69767600Y-83947800D02*
X73255700Y-80459700D01*
X73255700Y-63546300D02*
X59709400Y-50000000D01*
X57469700Y-88450000D02*
X61971900Y-83947800D01*
%TD*%
%TA.AperFunction,NonConductor*%
G36*
X123442539Y-20520185D02*
G01*
X123488294Y-20572989D01*
X123499500Y-20624500D01*
X123499500Y-123375500D01*
X123479815Y-123442539D01*
X123427011Y-123488294D01*
X123375500Y-123499500D01*
X20624500Y-123499500D01*
X20557461Y-123479815D01*
X20511706Y-123427011D01*
X20500500Y-123375500D01*
X20500500Y-102111655D01*
X62862357Y-102111655D01*
X67130500Y-102111655D01*
X67130500Y-98624676D01*
X62862357Y-98624676D01*
X62862357Y-102111655D01*
X20500500Y-102111655D01*
X20500500Y-97124038D01*
X29974500Y-97124038D01*
X29974500Y-97375961D01*
X30013910Y-97624785D01*
X30091760Y-97864383D01*
X30206132Y-98088848D01*
X30354201Y-98292649D01*
X30354205Y-98292654D01*
X30532345Y-98470794D01*
X30532350Y-98470798D01*
X30710117Y-98599952D01*
X30736155Y-98618870D01*
X30879184Y-98691747D01*
X30960616Y-98733239D01*
X30960618Y-98733239D01*
X30960621Y-98733241D01*
X31200215Y-98811090D01*
X31449038Y-98850500D01*
X31449039Y-98850500D01*
X31700961Y-98850500D01*
X31700962Y-98850500D01*
X31949785Y-98811090D01*
X32189379Y-98733241D01*
X32413845Y-98618870D01*
X32617656Y-98470793D01*
X32795793Y-98292656D01*
X32943870Y-98088845D01*
X33058241Y-97864379D01*
X33136090Y-97624785D01*
X33175500Y-97375962D01*
X33175500Y-97124038D01*
X37594500Y-97124038D01*
X37594500Y-97375961D01*
X37633910Y-97624785D01*
X37711760Y-97864383D01*
X37826132Y-98088848D01*
X37974201Y-98292649D01*
X37974205Y-98292654D01*
X38152345Y-98470794D01*
X38152350Y-98470798D01*
X38330117Y-98599952D01*
X38356155Y-98618870D01*
X38499184Y-98691747D01*
X38580616Y-98733239D01*
X38580618Y-98733239D01*
X38580621Y-98733241D01*
X38820215Y-98811090D01*
X39069038Y-98850500D01*
X39069039Y-98850500D01*
X39320961Y-98850500D01*
X39320962Y-98850500D01*
X39569785Y-98811090D01*
X39809379Y-98733241D01*
X40033845Y-98618870D01*
X40237656Y-98470793D01*
X40415793Y-98292656D01*
X40563870Y-98088845D01*
X40678241Y-97864379D01*
X40756090Y-97624785D01*
X40795500Y-97375962D01*
X40795500Y-97124038D01*
X44744500Y-97124038D01*
X44744500Y-97375961D01*
X44783910Y-97624785D01*
X44861760Y-97864383D01*
X44976132Y-98088848D01*
X45124201Y-98292649D01*
X45124205Y-98292654D01*
X45302345Y-98470794D01*
X45302350Y-98470798D01*
X45480117Y-98599952D01*
X45506155Y-98618870D01*
X45649184Y-98691747D01*
X45730616Y-98733239D01*
X45730618Y-98733239D01*
X45730621Y-98733241D01*
X45970215Y-98811090D01*
X46219038Y-98850500D01*
X46219039Y-98850500D01*
X46470961Y-98850500D01*
X46470962Y-98850500D01*
X46719785Y-98811090D01*
X46959379Y-98733241D01*
X47183845Y-98618870D01*
X47387656Y-98470793D01*
X47565793Y-98292656D01*
X47713870Y-98088845D01*
X47828241Y-97864379D01*
X47906090Y-97624785D01*
X47945500Y-97375962D01*
X47945500Y-97124038D01*
X52364500Y-97124038D01*
X52364500Y-97375961D01*
X52403910Y-97624785D01*
X52481760Y-97864383D01*
X52596132Y-98088848D01*
X52744201Y-98292649D01*
X52744205Y-98292654D01*
X52922345Y-98470794D01*
X52922350Y-98470798D01*
X53100117Y-98599952D01*
X53126155Y-98618870D01*
X53269184Y-98691747D01*
X53350616Y-98733239D01*
X53350618Y-98733239D01*
X53350621Y-98733241D01*
X53590215Y-98811090D01*
X53839038Y-98850500D01*
X53839039Y-98850500D01*
X54090961Y-98850500D01*
X54090962Y-98850500D01*
X54339785Y-98811090D01*
X54579379Y-98733241D01*
X54803845Y-98618870D01*
X55007656Y-98470793D01*
X55185793Y-98292656D01*
X55333870Y-98088845D01*
X55448241Y-97864379D01*
X55526090Y-97624785D01*
X55565500Y-97375962D01*
X55565500Y-97124038D01*
X59514500Y-97124038D01*
X59514500Y-97375961D01*
X59553910Y-97624785D01*
X59631760Y-97864383D01*
X59746132Y-98088848D01*
X59894201Y-98292649D01*
X59894205Y-98292654D01*
X60072345Y-98470794D01*
X60072350Y-98470798D01*
X60250117Y-98599952D01*
X60276155Y-98618870D01*
X60419184Y-98691747D01*
X60500616Y-98733239D01*
X60500618Y-98733239D01*
X60500621Y-98733241D01*
X60740215Y-98811090D01*
X60989038Y-98850500D01*
X60989039Y-98850500D01*
X61240961Y-98850500D01*
X61240962Y-98850500D01*
X61489785Y-98811090D01*
X61729379Y-98733241D01*
X61953845Y-98618870D01*
X62052165Y-98547436D01*
X62154625Y-98472996D01*
X62154626Y-98472995D01*
X62157652Y-98470796D01*
X62157652Y-98470795D01*
X62157656Y-98470793D01*
X62335793Y-98292656D01*
X62483870Y-98088845D01*
X62598241Y-97864379D01*
X62676090Y-97624785D01*
X62715500Y-97375962D01*
X62715500Y-97124038D01*
X67134500Y-97124038D01*
X67134500Y-97375961D01*
X67173910Y-97624785D01*
X67251760Y-97864383D01*
X67366132Y-98088848D01*
X67514201Y-98292649D01*
X67514205Y-98292654D01*
X67692345Y-98470794D01*
X67692350Y-98470798D01*
X67870117Y-98599952D01*
X67896155Y-98618870D01*
X68039184Y-98691747D01*
X68120616Y-98733239D01*
X68120618Y-98733239D01*
X68120621Y-98733241D01*
X68360215Y-98811090D01*
X68609038Y-98850500D01*
X68609039Y-98850500D01*
X68860961Y-98850500D01*
X68860962Y-98850500D01*
X69109785Y-98811090D01*
X69349379Y-98733241D01*
X69573845Y-98618870D01*
X69777656Y-98470793D01*
X69955793Y-98292656D01*
X70103870Y-98088845D01*
X70218241Y-97864379D01*
X70296090Y-97624785D01*
X70335500Y-97375962D01*
X70335500Y-97124038D01*
X70296090Y-96875215D01*
X70218241Y-96635621D01*
X70218239Y-96635618D01*
X70218239Y-96635616D01*
X70176747Y-96554184D01*
X70103870Y-96411155D01*
X70084952Y-96385117D01*
X69955798Y-96207350D01*
X69955794Y-96207345D01*
X69777654Y-96029205D01*
X69777649Y-96029201D01*
X69573848Y-95881132D01*
X69573847Y-95881131D01*
X69573845Y-95881130D01*
X69503747Y-95845413D01*
X69349383Y-95766760D01*
X69109785Y-95688910D01*
X68860962Y-95649500D01*
X68609038Y-95649500D01*
X68532295Y-95661655D01*
X68360214Y-95688910D01*
X68120616Y-95766760D01*
X67896151Y-95881132D01*
X67692350Y-96029201D01*
X67692345Y-96029205D01*
X67514205Y-96207345D01*
X67514201Y-96207350D01*
X67366132Y-96411151D01*
X67251760Y-96635616D01*
X67173910Y-96875214D01*
X67134500Y-97124038D01*
X62715500Y-97124038D01*
X62676090Y-96875215D01*
X62598241Y-96635621D01*
X62598239Y-96635618D01*
X62598239Y-96635616D01*
X62556747Y-96554184D01*
X62483870Y-96411155D01*
X62464952Y-96385117D01*
X62335798Y-96207350D01*
X62335794Y-96207345D01*
X62157654Y-96029205D01*
X62157649Y-96029201D01*
X61953848Y-95881132D01*
X61953847Y-95881131D01*
X61953845Y-95881130D01*
X61883747Y-95845413D01*
X61729383Y-95766760D01*
X61489785Y-95688910D01*
X61240962Y-95649500D01*
X60989038Y-95649500D01*
X60912295Y-95661655D01*
X60740214Y-95688910D01*
X60500616Y-95766760D01*
X60276151Y-95881132D01*
X60072350Y-96029201D01*
X60072345Y-96029205D01*
X59894205Y-96207345D01*
X59894201Y-96207350D01*
X59746132Y-96411151D01*
X59631760Y-96635616D01*
X59553910Y-96875214D01*
X59514500Y-97124038D01*
X55565500Y-97124038D01*
X55526090Y-96875215D01*
X55448241Y-96635621D01*
X55448239Y-96635618D01*
X55448239Y-96635616D01*
X55406747Y-96554184D01*
X55333870Y-96411155D01*
X55314952Y-96385117D01*
X55185798Y-96207350D01*
X55185794Y-96207345D01*
X55007654Y-96029205D01*
X55007649Y-96029201D01*
X54803848Y-95881132D01*
X54803847Y-95881131D01*
X54803845Y-95881130D01*
X54733747Y-95845413D01*
X54579383Y-95766760D01*
X54339785Y-95688910D01*
X54090962Y-95649500D01*
X53839038Y-95649500D01*
X53762295Y-95661655D01*
X53590214Y-95688910D01*
X53350616Y-95766760D01*
X53126151Y-95881132D01*
X52922350Y-96029201D01*
X52922345Y-96029205D01*
X52744205Y-96207345D01*
X52744201Y-96207350D01*
X52596132Y-96411151D01*
X52481760Y-96635616D01*
X52403910Y-96875214D01*
X52364500Y-97124038D01*
X47945500Y-97124038D01*
X47906090Y-96875215D01*
X47828241Y-96635621D01*
X47828239Y-96635618D01*
X47828239Y-96635616D01*
X47786747Y-96554184D01*
X47713870Y-96411155D01*
X47694952Y-96385117D01*
X47565798Y-96207350D01*
X47565794Y-96207345D01*
X47387654Y-96029205D01*
X47387649Y-96029201D01*
X47183848Y-95881132D01*
X47183847Y-95881131D01*
X47183845Y-95881130D01*
X47113747Y-95845413D01*
X46959383Y-95766760D01*
X46719785Y-95688910D01*
X46547705Y-95661655D01*
X48092357Y-95661655D01*
X52290797Y-95661655D01*
X52290797Y-93311655D01*
X59217057Y-93311655D01*
X63413772Y-93311655D01*
X63413772Y-89894984D01*
X59217057Y-89894984D01*
X59217057Y-93311655D01*
X52290797Y-93311655D01*
X52290797Y-92246103D01*
X48092357Y-92246103D01*
X48092357Y-95661655D01*
X46547705Y-95661655D01*
X46470962Y-95649500D01*
X46219038Y-95649500D01*
X46142295Y-95661655D01*
X45970214Y-95688910D01*
X45730616Y-95766760D01*
X45506151Y-95881132D01*
X45302350Y-96029201D01*
X45302345Y-96029205D01*
X45124205Y-96207345D01*
X45124201Y-96207350D01*
X44976132Y-96411151D01*
X44861760Y-96635616D01*
X44783910Y-96875214D01*
X44744500Y-97124038D01*
X40795500Y-97124038D01*
X40756090Y-96875215D01*
X40678241Y-96635621D01*
X40678239Y-96635618D01*
X40678239Y-96635616D01*
X40636747Y-96554184D01*
X40563870Y-96411155D01*
X40544952Y-96385117D01*
X40415798Y-96207350D01*
X40415794Y-96207345D01*
X40237654Y-96029205D01*
X40237649Y-96029201D01*
X40033848Y-95881132D01*
X40033847Y-95881131D01*
X40033845Y-95881130D01*
X39963747Y-95845413D01*
X39809383Y-95766760D01*
X39569785Y-95688910D01*
X39320962Y-95649500D01*
X39069038Y-95649500D01*
X38992295Y-95661655D01*
X38820214Y-95688910D01*
X38580616Y-95766760D01*
X38356151Y-95881132D01*
X38152350Y-96029201D01*
X38152345Y-96029205D01*
X37974205Y-96207345D01*
X37974201Y-96207350D01*
X37826132Y-96411151D01*
X37711760Y-96635616D01*
X37633910Y-96875214D01*
X37594500Y-97124038D01*
X33175500Y-97124038D01*
X33136090Y-96875215D01*
X33058241Y-96635621D01*
X33058239Y-96635618D01*
X33058239Y-96635616D01*
X33016747Y-96554184D01*
X32943870Y-96411155D01*
X32924952Y-96385117D01*
X32795798Y-96207350D01*
X32795794Y-96207345D01*
X32617654Y-96029205D01*
X32617649Y-96029201D01*
X32413848Y-95881132D01*
X32413847Y-95881131D01*
X32413845Y-95881130D01*
X32343747Y-95845413D01*
X32189383Y-95766760D01*
X31949785Y-95688910D01*
X31777705Y-95661655D01*
X33322357Y-95661655D01*
X37520797Y-95661655D01*
X37520797Y-92246103D01*
X33322357Y-92246103D01*
X33322357Y-95661655D01*
X31777705Y-95661655D01*
X31700962Y-95649500D01*
X31449038Y-95649500D01*
X31372295Y-95661655D01*
X31200214Y-95688910D01*
X30960616Y-95766760D01*
X30736151Y-95881132D01*
X30532350Y-96029201D01*
X30532345Y-96029205D01*
X30354205Y-96207345D01*
X30354201Y-96207350D01*
X30206132Y-96411151D01*
X30091760Y-96635616D01*
X30013910Y-96875214D01*
X29974500Y-97124038D01*
X20500500Y-97124038D01*
X20500500Y-87848392D01*
X31619200Y-87848392D01*
X31619200Y-89051608D01*
X31624202Y-89102398D01*
X31634399Y-89205932D01*
X31634400Y-89205934D01*
X31694468Y-89403954D01*
X31792015Y-89586450D01*
X31792017Y-89586452D01*
X31923289Y-89746410D01*
X32011580Y-89818867D01*
X32083250Y-89877685D01*
X32265746Y-89975232D01*
X32463766Y-90035300D01*
X32463765Y-90035300D01*
X32502347Y-90039100D01*
X32618092Y-90050500D01*
X32618095Y-90050500D01*
X33821305Y-90050500D01*
X33821308Y-90050500D01*
X33975634Y-90035300D01*
X34173654Y-89975232D01*
X34356150Y-89877685D01*
X34516110Y-89746410D01*
X34647385Y-89586450D01*
X34744932Y-89403954D01*
X34805000Y-89205934D01*
X34820200Y-89051608D01*
X34820200Y-88324038D01*
X35119200Y-88324038D01*
X35119200Y-88575961D01*
X35158610Y-88824785D01*
X35236460Y-89064383D01*
X35350832Y-89288848D01*
X35498901Y-89492649D01*
X35498905Y-89492654D01*
X35677045Y-89670794D01*
X35677050Y-89670798D01*
X35776847Y-89743304D01*
X35880855Y-89818870D01*
X35996286Y-89877685D01*
X36105316Y-89933239D01*
X36105318Y-89933239D01*
X36105321Y-89933241D01*
X36344915Y-90011090D01*
X36593738Y-90050500D01*
X36593739Y-90050500D01*
X36845661Y-90050500D01*
X36845662Y-90050500D01*
X37094485Y-90011090D01*
X37334079Y-89933241D01*
X37558545Y-89818870D01*
X37762356Y-89670793D01*
X37940493Y-89492656D01*
X38088570Y-89288845D01*
X38202941Y-89064379D01*
X38280790Y-88824785D01*
X38320200Y-88575962D01*
X38320200Y-88324038D01*
X43719200Y-88324038D01*
X43719200Y-88575961D01*
X43758610Y-88824785D01*
X43836460Y-89064383D01*
X43950832Y-89288848D01*
X44098901Y-89492649D01*
X44098905Y-89492654D01*
X44277045Y-89670794D01*
X44277050Y-89670798D01*
X44376847Y-89743304D01*
X44480855Y-89818870D01*
X44596286Y-89877685D01*
X44705316Y-89933239D01*
X44705318Y-89933239D01*
X44705321Y-89933241D01*
X44944915Y-90011090D01*
X45193738Y-90050500D01*
X45193739Y-90050500D01*
X45445661Y-90050500D01*
X45445662Y-90050500D01*
X45694485Y-90011090D01*
X45934079Y-89933241D01*
X46158545Y-89818870D01*
X46362356Y-89670793D01*
X46540493Y-89492656D01*
X46688570Y-89288845D01*
X46802941Y-89064379D01*
X46880790Y-88824785D01*
X46920200Y-88575962D01*
X46920200Y-88324038D01*
X48719200Y-88324038D01*
X48719200Y-88575961D01*
X48758610Y-88824785D01*
X48836460Y-89064383D01*
X48950832Y-89288848D01*
X49098901Y-89492649D01*
X49098905Y-89492654D01*
X49277045Y-89670794D01*
X49277050Y-89670798D01*
X49376847Y-89743304D01*
X49480855Y-89818870D01*
X49596286Y-89877685D01*
X49705316Y-89933239D01*
X49705318Y-89933239D01*
X49705321Y-89933241D01*
X49944915Y-90011090D01*
X50193738Y-90050500D01*
X50193739Y-90050500D01*
X50445661Y-90050500D01*
X50445662Y-90050500D01*
X50694485Y-90011090D01*
X50934079Y-89933241D01*
X51158545Y-89818870D01*
X51362356Y-89670793D01*
X51540493Y-89492656D01*
X51688570Y-89288845D01*
X51802941Y-89064379D01*
X51880790Y-88824785D01*
X51920200Y-88575962D01*
X51920200Y-88324038D01*
X51880790Y-88075215D01*
X51802941Y-87835621D01*
X51802939Y-87835618D01*
X51802939Y-87835616D01*
X51761447Y-87754184D01*
X51688570Y-87611155D01*
X51604939Y-87496046D01*
X51540498Y-87407350D01*
X51540494Y-87407345D01*
X51362354Y-87229205D01*
X51362349Y-87229201D01*
X51158548Y-87081132D01*
X51158547Y-87081131D01*
X51158545Y-87081130D01*
X51043118Y-87022317D01*
X50934083Y-86966760D01*
X50694485Y-86888910D01*
X50694479Y-86888909D01*
X50445662Y-86849500D01*
X50193738Y-86849500D01*
X50097776Y-86864699D01*
X49944914Y-86888910D01*
X49705316Y-86966760D01*
X49480851Y-87081132D01*
X49277050Y-87229201D01*
X49277045Y-87229205D01*
X49098905Y-87407345D01*
X49098901Y-87407350D01*
X48950832Y-87611151D01*
X48836460Y-87835616D01*
X48758610Y-88075214D01*
X48719200Y-88324038D01*
X46920200Y-88324038D01*
X46880790Y-88075215D01*
X46802941Y-87835621D01*
X46802939Y-87835618D01*
X46802939Y-87835616D01*
X46761447Y-87754184D01*
X46688570Y-87611155D01*
X46604939Y-87496046D01*
X46540498Y-87407350D01*
X46540494Y-87407345D01*
X46362354Y-87229205D01*
X46362349Y-87229201D01*
X46158548Y-87081132D01*
X46158547Y-87081131D01*
X46158545Y-87081130D01*
X46043118Y-87022317D01*
X45934083Y-86966760D01*
X45694485Y-86888910D01*
X45694479Y-86888909D01*
X45445662Y-86849500D01*
X45193738Y-86849500D01*
X45097776Y-86864699D01*
X44944914Y-86888910D01*
X44705316Y-86966760D01*
X44480851Y-87081132D01*
X44277050Y-87229201D01*
X44277045Y-87229205D01*
X44098905Y-87407345D01*
X44098901Y-87407350D01*
X43950832Y-87611151D01*
X43836460Y-87835616D01*
X43758610Y-88075214D01*
X43719200Y-88324038D01*
X38320200Y-88324038D01*
X38280790Y-88075215D01*
X38202941Y-87835621D01*
X38202939Y-87835618D01*
X38202939Y-87835616D01*
X38161447Y-87754184D01*
X38088570Y-87611155D01*
X38004939Y-87496046D01*
X37940498Y-87407350D01*
X37940494Y-87407345D01*
X37762354Y-87229205D01*
X37762349Y-87229201D01*
X37558548Y-87081132D01*
X37558547Y-87081131D01*
X37558545Y-87081130D01*
X37443118Y-87022317D01*
X37334083Y-86966760D01*
X37094485Y-86888910D01*
X37094479Y-86888909D01*
X36845662Y-86849500D01*
X36593738Y-86849500D01*
X36497776Y-86864699D01*
X36344914Y-86888910D01*
X36105316Y-86966760D01*
X35880851Y-87081132D01*
X35677050Y-87229201D01*
X35677045Y-87229205D01*
X35498905Y-87407345D01*
X35498901Y-87407350D01*
X35350832Y-87611151D01*
X35236460Y-87835616D01*
X35158610Y-88075214D01*
X35119200Y-88324038D01*
X34820200Y-88324038D01*
X34820200Y-87848392D01*
X34805000Y-87694066D01*
X34744932Y-87496046D01*
X34647385Y-87313550D01*
X34578162Y-87229201D01*
X34516110Y-87153589D01*
X34356152Y-87022317D01*
X34356153Y-87022317D01*
X34356150Y-87022315D01*
X34173654Y-86924768D01*
X33975634Y-86864700D01*
X33975632Y-86864699D01*
X33975634Y-86864699D01*
X33856505Y-86852966D01*
X33821308Y-86849500D01*
X32618092Y-86849500D01*
X32579998Y-86853251D01*
X32463767Y-86864699D01*
X32265743Y-86924769D01*
X32187187Y-86966759D01*
X32083250Y-87022315D01*
X32083248Y-87022316D01*
X32083247Y-87022317D01*
X31923289Y-87153589D01*
X31792017Y-87313547D01*
X31694469Y-87496043D01*
X31634399Y-87694067D01*
X31622951Y-87810298D01*
X31619200Y-87848392D01*
X20500500Y-87848392D01*
X20500500Y-85360553D01*
X45682925Y-85360553D01*
X49955497Y-85360553D01*
X49955497Y-81946103D01*
X45682925Y-81946103D01*
X45682925Y-85360553D01*
X20500500Y-85360553D01*
X20500500Y-84110553D01*
X32735576Y-84110553D01*
X37006423Y-84110553D01*
X37006423Y-82190553D01*
X40749917Y-82190553D01*
X45019786Y-82190553D01*
X45019786Y-78774984D01*
X40749917Y-78774984D01*
X40749917Y-82190553D01*
X37006423Y-82190553D01*
X37006423Y-80694984D01*
X32735576Y-80694984D01*
X32735576Y-84110553D01*
X20500500Y-84110553D01*
X20500500Y-73778410D01*
X26627510Y-73778410D01*
X30969786Y-73778410D01*
X30969786Y-71905039D01*
X31584500Y-71905039D01*
X31584500Y-73994960D01*
X31599630Y-74129249D01*
X31599631Y-74129254D01*
X31659211Y-74299523D01*
X31696538Y-74358928D01*
X31755184Y-74452262D01*
X31882738Y-74579816D01*
X32035478Y-74675789D01*
X32205745Y-74735368D01*
X32205750Y-74735369D01*
X32296246Y-74745565D01*
X32340040Y-74750499D01*
X32340043Y-74750500D01*
X32340046Y-74750500D01*
X34129957Y-74750500D01*
X34129958Y-74750499D01*
X34197104Y-74742934D01*
X34264249Y-74735369D01*
X34264252Y-74735368D01*
X34264255Y-74735368D01*
X34434522Y-74675789D01*
X34587262Y-74579816D01*
X34687655Y-74479423D01*
X34748978Y-74445938D01*
X34818670Y-74450922D01*
X34848218Y-74466783D01*
X34909949Y-74511634D01*
X35017350Y-74566358D01*
X35141423Y-74629577D01*
X35141425Y-74629577D01*
X35141428Y-74629579D01*
X35388507Y-74709860D01*
X35520706Y-74730797D01*
X35645098Y-74750500D01*
X35645103Y-74750500D01*
X35904902Y-74750500D01*
X36018298Y-74732539D01*
X36161493Y-74709860D01*
X36408572Y-74629579D01*
X36640051Y-74511634D01*
X36850229Y-74358931D01*
X36957319Y-74251841D01*
X37018642Y-74218356D01*
X37088334Y-74223340D01*
X37132681Y-74251841D01*
X37239771Y-74358931D01*
X37449949Y-74511634D01*
X37583761Y-74579815D01*
X37681423Y-74629577D01*
X37681425Y-74629577D01*
X37681428Y-74629579D01*
X37928507Y-74709860D01*
X38060706Y-74730797D01*
X38185098Y-74750500D01*
X38185103Y-74750500D01*
X38444902Y-74750500D01*
X38558298Y-74732539D01*
X38701493Y-74709860D01*
X38948572Y-74629579D01*
X39180051Y-74511634D01*
X39390229Y-74358931D01*
X39462341Y-74286819D01*
X39523664Y-74253334D01*
X39550022Y-74250500D01*
X40569051Y-74250500D01*
X40569052Y-74250500D01*
X40771235Y-74218477D01*
X40872142Y-74185690D01*
X40965919Y-74155220D01*
X41064381Y-74105051D01*
X41148311Y-74062287D01*
X41313919Y-73941966D01*
X43189066Y-72066819D01*
X43250389Y-72033334D01*
X43276747Y-72030500D01*
X45803858Y-72030500D01*
X45870897Y-72050185D01*
X45916652Y-72102989D01*
X45926596Y-72172147D01*
X45904176Y-72227385D01*
X45756132Y-72431151D01*
X45641760Y-72655616D01*
X45563910Y-72895214D01*
X45563910Y-72895215D01*
X45524500Y-73144038D01*
X45524500Y-73395962D01*
X45553405Y-73578460D01*
X45563910Y-73644785D01*
X45641760Y-73884383D01*
X45720413Y-74038747D01*
X45754196Y-74105050D01*
X45756132Y-74108848D01*
X45904201Y-74312649D01*
X45904205Y-74312654D01*
X46043870Y-74452319D01*
X46077355Y-74513642D01*
X46072371Y-74583334D01*
X46043870Y-74627681D01*
X45904205Y-74767345D01*
X45904201Y-74767350D01*
X45756132Y-74971151D01*
X45641760Y-75195616D01*
X45563910Y-75435214D01*
X45563910Y-75435215D01*
X45524500Y-75684038D01*
X45524500Y-75935962D01*
X45563910Y-76184785D01*
X45641760Y-76424383D01*
X45756132Y-76648848D01*
X45904201Y-76852649D01*
X45904205Y-76852654D01*
X46082345Y-77030794D01*
X46082350Y-77030798D01*
X46260117Y-77159952D01*
X46286155Y-77178870D01*
X46429184Y-77251747D01*
X46510616Y-77293239D01*
X46510618Y-77293239D01*
X46510621Y-77293241D01*
X46750215Y-77371090D01*
X46999038Y-77410500D01*
X46999039Y-77410500D01*
X48050961Y-77410500D01*
X48050962Y-77410500D01*
X48299785Y-77371090D01*
X48539379Y-77293241D01*
X48763845Y-77178870D01*
X48967656Y-77030793D01*
X49145793Y-76852656D01*
X49293870Y-76648845D01*
X49408241Y-76424379D01*
X49486090Y-76184785D01*
X49525500Y-75935962D01*
X49525500Y-75684038D01*
X49486090Y-75435215D01*
X49408241Y-75195621D01*
X49408239Y-75195618D01*
X49408239Y-75195616D01*
X49366747Y-75114184D01*
X49293870Y-74971155D01*
X49252915Y-74914785D01*
X49145798Y-74767350D01*
X49145794Y-74767345D01*
X49006130Y-74627681D01*
X48972645Y-74566358D01*
X48977629Y-74496666D01*
X49006130Y-74452319D01*
X49062761Y-74395688D01*
X49145793Y-74312656D01*
X49293870Y-74108845D01*
X49408241Y-73884379D01*
X49486090Y-73644785D01*
X49525500Y-73395962D01*
X49525500Y-73144038D01*
X49486090Y-72895215D01*
X49408241Y-72655621D01*
X49408239Y-72655618D01*
X49408239Y-72655616D01*
X49366747Y-72574184D01*
X49293870Y-72431155D01*
X49252915Y-72374785D01*
X49145824Y-72227385D01*
X49122344Y-72161579D01*
X49138170Y-72093525D01*
X49188276Y-72044830D01*
X49246142Y-72030500D01*
X50129051Y-72030500D01*
X50129052Y-72030500D01*
X50331234Y-71998477D01*
X50525919Y-71935220D01*
X50708310Y-71842287D01*
X50849089Y-71740006D01*
X50873913Y-71721971D01*
X50873915Y-71721968D01*
X50873919Y-71721966D01*
X51018666Y-71577219D01*
X51018668Y-71577215D01*
X51018671Y-71577213D01*
X51071636Y-71504311D01*
X51138987Y-71411610D01*
X51231920Y-71229219D01*
X51295177Y-71034534D01*
X51327200Y-70832352D01*
X51327200Y-70455846D01*
X51346885Y-70388807D01*
X51363514Y-70368170D01*
X53036656Y-68695027D01*
X53097979Y-68661543D01*
X53167671Y-68666527D01*
X53223604Y-68708399D01*
X53242267Y-68744389D01*
X53257609Y-68791608D01*
X53261760Y-68804381D01*
X53376132Y-69028848D01*
X53524201Y-69232649D01*
X53524205Y-69232654D01*
X53663870Y-69372319D01*
X53697355Y-69433642D01*
X53692371Y-69503334D01*
X53663870Y-69547681D01*
X53524205Y-69687345D01*
X53524201Y-69687350D01*
X53376132Y-69891151D01*
X53261760Y-70115616D01*
X53183910Y-70355214D01*
X53176106Y-70404485D01*
X53144500Y-70604038D01*
X53144500Y-70855962D01*
X53172783Y-71034534D01*
X53183910Y-71104785D01*
X53261760Y-71344383D01*
X53340413Y-71498747D01*
X53361978Y-71541071D01*
X53376132Y-71568848D01*
X53524201Y-71772649D01*
X53524205Y-71772654D01*
X53663870Y-71912319D01*
X53697355Y-71973642D01*
X53692371Y-72043334D01*
X53663870Y-72087681D01*
X53524205Y-72227345D01*
X53524201Y-72227350D01*
X53376132Y-72431151D01*
X53261760Y-72655616D01*
X53183910Y-72895214D01*
X53183910Y-72895215D01*
X53144500Y-73144038D01*
X53144500Y-73395962D01*
X53173405Y-73578460D01*
X53183910Y-73644785D01*
X53261760Y-73884383D01*
X53340413Y-74038747D01*
X53374196Y-74105050D01*
X53376132Y-74108848D01*
X53524201Y-74312649D01*
X53524205Y-74312654D01*
X53663870Y-74452319D01*
X53697355Y-74513642D01*
X53692371Y-74583334D01*
X53663870Y-74627681D01*
X53524205Y-74767345D01*
X53524201Y-74767350D01*
X53376132Y-74971151D01*
X53261760Y-75195616D01*
X53183910Y-75435214D01*
X53183910Y-75435215D01*
X53144500Y-75684038D01*
X53144500Y-75935962D01*
X53183910Y-76184785D01*
X53261760Y-76424383D01*
X53376132Y-76648848D01*
X53524201Y-76852649D01*
X53524205Y-76852654D01*
X53702345Y-77030794D01*
X53702350Y-77030798D01*
X53880117Y-77159952D01*
X53906155Y-77178870D01*
X54049184Y-77251747D01*
X54130616Y-77293239D01*
X54130618Y-77293239D01*
X54130621Y-77293241D01*
X54370215Y-77371090D01*
X54619038Y-77410500D01*
X54619039Y-77410500D01*
X55670961Y-77410500D01*
X55670962Y-77410500D01*
X55919785Y-77371090D01*
X56159379Y-77293241D01*
X56383845Y-77178870D01*
X56587656Y-77030793D01*
X56765793Y-76852656D01*
X56913870Y-76648845D01*
X57028241Y-76424379D01*
X57106090Y-76184785D01*
X57145500Y-75935962D01*
X57145500Y-75684038D01*
X57106090Y-75435215D01*
X57028241Y-75195621D01*
X57028239Y-75195618D01*
X57028239Y-75195616D01*
X56986747Y-75114184D01*
X56913870Y-74971155D01*
X56872915Y-74914785D01*
X56765798Y-74767350D01*
X56765794Y-74767345D01*
X56626130Y-74627681D01*
X56592645Y-74566358D01*
X56597629Y-74496666D01*
X56626130Y-74452319D01*
X56682761Y-74395688D01*
X56765793Y-74312656D01*
X56913870Y-74108845D01*
X57028241Y-73884379D01*
X57106090Y-73644785D01*
X57145500Y-73395962D01*
X57145500Y-73144038D01*
X57106090Y-72895215D01*
X57028241Y-72655621D01*
X57028239Y-72655618D01*
X57028239Y-72655616D01*
X56986747Y-72574184D01*
X56913870Y-72431155D01*
X56765823Y-72227385D01*
X56765798Y-72227350D01*
X56765794Y-72227345D01*
X56626130Y-72087681D01*
X56592645Y-72026358D01*
X56597629Y-71956666D01*
X56626130Y-71912319D01*
X56664411Y-71874038D01*
X56765793Y-71772656D01*
X56913870Y-71568845D01*
X57028241Y-71344379D01*
X57106090Y-71104785D01*
X57145500Y-70855962D01*
X57145500Y-70604038D01*
X57106090Y-70355215D01*
X57028241Y-70115621D01*
X57028239Y-70115618D01*
X57028239Y-70115616D01*
X56986747Y-70034184D01*
X56913870Y-69891155D01*
X56848428Y-69801081D01*
X56765798Y-69687350D01*
X56765794Y-69687345D01*
X56626130Y-69547681D01*
X56592645Y-69486358D01*
X56597629Y-69416666D01*
X56626130Y-69372319D01*
X56683000Y-69315449D01*
X56765793Y-69232656D01*
X56913870Y-69028845D01*
X57028241Y-68804379D01*
X57106090Y-68564785D01*
X57145500Y-68315962D01*
X57145500Y-68064038D01*
X57106090Y-67815215D01*
X57028241Y-67575621D01*
X57028239Y-67575618D01*
X57028239Y-67575616D01*
X57017375Y-67554295D01*
X57016866Y-67551589D01*
X57015066Y-67549511D01*
X57010457Y-67517461D01*
X57004479Y-67485626D01*
X57005513Y-67483076D01*
X57005122Y-67480353D01*
X57018575Y-67450894D01*
X57030755Y-67420885D01*
X57033004Y-67419299D01*
X57034147Y-67416797D01*
X57061390Y-67399288D01*
X57087862Y-67380628D01*
X57091318Y-67380055D01*
X57092925Y-67379023D01*
X57127860Y-67374000D01*
X57290253Y-67374000D01*
X57357292Y-67393685D01*
X57377934Y-67410319D01*
X57731708Y-67764092D01*
X57731722Y-67764107D01*
X57734833Y-67767218D01*
X57734834Y-67767219D01*
X57879581Y-67911966D01*
X57879584Y-67911968D01*
X57879585Y-67911969D01*
X57968757Y-67976756D01*
X57968759Y-67976757D01*
X57968762Y-67976759D01*
X58045190Y-68032287D01*
X58134647Y-68077867D01*
X58227581Y-68125221D01*
X58227584Y-68125222D01*
X58324924Y-68156849D01*
X58422266Y-68188477D01*
X58624448Y-68220500D01*
X58624449Y-68220500D01*
X58829152Y-68220500D01*
X61373858Y-68220500D01*
X61440897Y-68240185D01*
X61486652Y-68292989D01*
X61496596Y-68362147D01*
X61474176Y-68417385D01*
X61326132Y-68621151D01*
X61211760Y-68845616D01*
X61133910Y-69085214D01*
X61124606Y-69143958D01*
X61094500Y-69334038D01*
X61094500Y-69585962D01*
X61118586Y-69738034D01*
X61133910Y-69834785D01*
X61211760Y-70074383D01*
X61290413Y-70228747D01*
X61312268Y-70271640D01*
X61326132Y-70298848D01*
X61474201Y-70502649D01*
X61474205Y-70502654D01*
X61613870Y-70642319D01*
X61647355Y-70703642D01*
X61642371Y-70773334D01*
X61613870Y-70817681D01*
X61474205Y-70957345D01*
X61474201Y-70957350D01*
X61326132Y-71161151D01*
X61211760Y-71385616D01*
X61133910Y-71625214D01*
X61125762Y-71676660D01*
X61094500Y-71874038D01*
X61094500Y-72125962D01*
X61110564Y-72227385D01*
X61133910Y-72374785D01*
X61211760Y-72614383D01*
X61326132Y-72838848D01*
X61474201Y-73042649D01*
X61474205Y-73042654D01*
X61613870Y-73182319D01*
X61647355Y-73243642D01*
X61642371Y-73313334D01*
X61613870Y-73357681D01*
X61474205Y-73497345D01*
X61474201Y-73497350D01*
X61326132Y-73701151D01*
X61211760Y-73925616D01*
X61133910Y-74165214D01*
X61110559Y-74312649D01*
X61094500Y-74414038D01*
X61094500Y-74665962D01*
X61133910Y-74914785D01*
X61211760Y-75154383D01*
X61326132Y-75378848D01*
X61474201Y-75582649D01*
X61474205Y-75582654D01*
X61613870Y-75722319D01*
X61647355Y-75783642D01*
X61642371Y-75853334D01*
X61613870Y-75897681D01*
X61474205Y-76037345D01*
X61474201Y-76037350D01*
X61326132Y-76241151D01*
X61211760Y-76465616D01*
X61133910Y-76705214D01*
X61133910Y-76705215D01*
X61094500Y-76954038D01*
X61094500Y-77205962D01*
X61108324Y-77293241D01*
X61133910Y-77454785D01*
X61211760Y-77694383D01*
X61326132Y-77918848D01*
X61474201Y-78122649D01*
X61474205Y-78122654D01*
X61613870Y-78262319D01*
X61647355Y-78323642D01*
X61642371Y-78393334D01*
X61613870Y-78437681D01*
X61474205Y-78577345D01*
X61474201Y-78577350D01*
X61326132Y-78781151D01*
X61211760Y-79005616D01*
X61133910Y-79245214D01*
X61094500Y-79494038D01*
X61094500Y-79745961D01*
X61133910Y-79994785D01*
X61211760Y-80234383D01*
X61326132Y-80458848D01*
X61474201Y-80662649D01*
X61474205Y-80662654D01*
X61652345Y-80840794D01*
X61652350Y-80840798D01*
X61677358Y-80858967D01*
X61856155Y-80988870D01*
X61999184Y-81061747D01*
X62080616Y-81103239D01*
X62080618Y-81103239D01*
X62080621Y-81103241D01*
X62320215Y-81181090D01*
X62569038Y-81220500D01*
X62569039Y-81220500D01*
X63620961Y-81220500D01*
X63620962Y-81220500D01*
X63869785Y-81181090D01*
X64109379Y-81103241D01*
X64333845Y-80988870D01*
X64537656Y-80840793D01*
X64715793Y-80662656D01*
X64863870Y-80458845D01*
X64978241Y-80234379D01*
X65056090Y-79994785D01*
X65095500Y-79745962D01*
X65095500Y-79494038D01*
X65056090Y-79245215D01*
X64978241Y-79005621D01*
X64978239Y-79005618D01*
X64978239Y-79005616D01*
X64936747Y-78924184D01*
X64863870Y-78781155D01*
X64844952Y-78755117D01*
X64715798Y-78577350D01*
X64715794Y-78577345D01*
X64576130Y-78437681D01*
X64542645Y-78376358D01*
X64547629Y-78306666D01*
X64576130Y-78262319D01*
X64715793Y-78122656D01*
X64863870Y-77918845D01*
X64978241Y-77694379D01*
X65056090Y-77454785D01*
X65095500Y-77205962D01*
X65095500Y-76954038D01*
X65056090Y-76705215D01*
X64978241Y-76465621D01*
X64978239Y-76465618D01*
X64978239Y-76465616D01*
X64936747Y-76384184D01*
X64863870Y-76241155D01*
X64822915Y-76184785D01*
X64715798Y-76037350D01*
X64715794Y-76037345D01*
X64576130Y-75897681D01*
X64542645Y-75836358D01*
X64547629Y-75766666D01*
X64576130Y-75722319D01*
X64614411Y-75684038D01*
X64715793Y-75582656D01*
X64863870Y-75378845D01*
X64978241Y-75154379D01*
X65056090Y-74914785D01*
X65095500Y-74665962D01*
X65095500Y-74414038D01*
X65056090Y-74165215D01*
X64978241Y-73925621D01*
X64978239Y-73925618D01*
X64978239Y-73925616D01*
X64903233Y-73778410D01*
X64863870Y-73701155D01*
X64822915Y-73644785D01*
X64715798Y-73497350D01*
X64715794Y-73497345D01*
X64576130Y-73357681D01*
X64542645Y-73296358D01*
X64547629Y-73226666D01*
X64576130Y-73182319D01*
X64614411Y-73144038D01*
X64715793Y-73042656D01*
X64863870Y-72838845D01*
X64978241Y-72614379D01*
X65056090Y-72374785D01*
X65095500Y-72125962D01*
X65095500Y-71874038D01*
X65056090Y-71625215D01*
X64978241Y-71385621D01*
X64978239Y-71385618D01*
X64978239Y-71385616D01*
X64893440Y-71219190D01*
X64863870Y-71161155D01*
X64771875Y-71034534D01*
X64715798Y-70957350D01*
X64715794Y-70957345D01*
X64576130Y-70817681D01*
X64542645Y-70756358D01*
X64547629Y-70686666D01*
X64576130Y-70642319D01*
X64614411Y-70604038D01*
X64715793Y-70502656D01*
X64863870Y-70298845D01*
X64978241Y-70074379D01*
X65056090Y-69834785D01*
X65095500Y-69585962D01*
X65095500Y-69334038D01*
X65056090Y-69085215D01*
X64978241Y-68845621D01*
X64978239Y-68845618D01*
X64978239Y-68845616D01*
X64886988Y-68666527D01*
X64863870Y-68621155D01*
X64796055Y-68527815D01*
X64715824Y-68417385D01*
X64692344Y-68351579D01*
X64708170Y-68283525D01*
X64758276Y-68234830D01*
X64816142Y-68220500D01*
X68993858Y-68220500D01*
X69060897Y-68240185D01*
X69106652Y-68292989D01*
X69116596Y-68362147D01*
X69094176Y-68417385D01*
X68946132Y-68621151D01*
X68831760Y-68845616D01*
X68753910Y-69085214D01*
X68744606Y-69143958D01*
X68714500Y-69334038D01*
X68714500Y-69585962D01*
X68738586Y-69738034D01*
X68753910Y-69834785D01*
X68831760Y-70074383D01*
X68910413Y-70228747D01*
X68932268Y-70271640D01*
X68946132Y-70298848D01*
X69094201Y-70502649D01*
X69094205Y-70502654D01*
X69233870Y-70642319D01*
X69267355Y-70703642D01*
X69262371Y-70773334D01*
X69233870Y-70817681D01*
X69094205Y-70957345D01*
X69094201Y-70957350D01*
X68946132Y-71161151D01*
X68831760Y-71385616D01*
X68753910Y-71625214D01*
X68745762Y-71676660D01*
X68714500Y-71874038D01*
X68714500Y-72125962D01*
X68730564Y-72227385D01*
X68753910Y-72374785D01*
X68831760Y-72614383D01*
X68946132Y-72838848D01*
X69094201Y-73042649D01*
X69094205Y-73042654D01*
X69233870Y-73182319D01*
X69267355Y-73243642D01*
X69262371Y-73313334D01*
X69233870Y-73357681D01*
X69094205Y-73497345D01*
X69094201Y-73497350D01*
X68946132Y-73701151D01*
X68831760Y-73925616D01*
X68753910Y-74165214D01*
X68730559Y-74312649D01*
X68714500Y-74414038D01*
X68714500Y-74665962D01*
X68753910Y-74914785D01*
X68831760Y-75154383D01*
X68946132Y-75378848D01*
X69094201Y-75582649D01*
X69094205Y-75582654D01*
X69233870Y-75722319D01*
X69267355Y-75783642D01*
X69262371Y-75853334D01*
X69233870Y-75897681D01*
X69094205Y-76037345D01*
X69094201Y-76037350D01*
X68946132Y-76241151D01*
X68831760Y-76465616D01*
X68753910Y-76705214D01*
X68753910Y-76705215D01*
X68714500Y-76954038D01*
X68714500Y-77205962D01*
X68728324Y-77293241D01*
X68753910Y-77454785D01*
X68831760Y-77694383D01*
X68946132Y-77918848D01*
X69094201Y-78122649D01*
X69094205Y-78122654D01*
X69233870Y-78262319D01*
X69267355Y-78323642D01*
X69262371Y-78393334D01*
X69233870Y-78437681D01*
X69094205Y-78577345D01*
X69094201Y-78577350D01*
X68946132Y-78781151D01*
X68831760Y-79005616D01*
X68753910Y-79245214D01*
X68714500Y-79494038D01*
X68714500Y-79745961D01*
X68753910Y-79994785D01*
X68831760Y-80234383D01*
X68946132Y-80458848D01*
X69094201Y-80662649D01*
X69094205Y-80662654D01*
X69272345Y-80840794D01*
X69272350Y-80840798D01*
X69297358Y-80858967D01*
X69476155Y-80988870D01*
X69619184Y-81061747D01*
X69700616Y-81103239D01*
X69700618Y-81103239D01*
X69700621Y-81103241D01*
X69940215Y-81181090D01*
X70189038Y-81220500D01*
X70356353Y-81220500D01*
X70423392Y-81240185D01*
X70469147Y-81292989D01*
X70479091Y-81362147D01*
X70450066Y-81425703D01*
X70444034Y-81432181D01*
X69265234Y-82610981D01*
X69203911Y-82644466D01*
X69177553Y-82647300D01*
X62074251Y-82647300D01*
X61869548Y-82647300D01*
X61802153Y-82657974D01*
X61667363Y-82679323D01*
X61570023Y-82710950D01*
X61570023Y-82710951D01*
X61517252Y-82728097D01*
X61472674Y-82742582D01*
X61381484Y-82789045D01*
X61381485Y-82789046D01*
X61290288Y-82835513D01*
X61124678Y-82955836D01*
X57238290Y-86842223D01*
X57176967Y-86875708D01*
X57170009Y-86877015D01*
X57094917Y-86888909D01*
X56855318Y-86966760D01*
X56630851Y-87081132D01*
X56427050Y-87229201D01*
X56427045Y-87229205D01*
X56248905Y-87407345D01*
X56248901Y-87407350D01*
X56100832Y-87611151D01*
X55986460Y-87835616D01*
X55908610Y-88075214D01*
X55869200Y-88324038D01*
X55869200Y-88575961D01*
X55908610Y-88824785D01*
X55986460Y-89064383D01*
X56100832Y-89288848D01*
X56248901Y-89492649D01*
X56248905Y-89492654D01*
X56427045Y-89670794D01*
X56427050Y-89670798D01*
X56526847Y-89743304D01*
X56630855Y-89818870D01*
X56746286Y-89877685D01*
X56855316Y-89933239D01*
X56855318Y-89933239D01*
X56855321Y-89933241D01*
X57094915Y-90011090D01*
X57343738Y-90050500D01*
X57343739Y-90050500D01*
X57595661Y-90050500D01*
X57595662Y-90050500D01*
X57844485Y-90011090D01*
X58084079Y-89933241D01*
X58308545Y-89818870D01*
X58361913Y-89780095D01*
X58412554Y-89743304D01*
X58512349Y-89670798D01*
X58512347Y-89670798D01*
X58512356Y-89670793D01*
X58690493Y-89492656D01*
X58838570Y-89288845D01*
X58952941Y-89064379D01*
X59030790Y-88824785D01*
X59042684Y-88749687D01*
X59072611Y-88686557D01*
X59077457Y-88681426D01*
X59434845Y-88324038D01*
X63489200Y-88324038D01*
X63489200Y-88575961D01*
X63528610Y-88824785D01*
X63606460Y-89064383D01*
X63720832Y-89288848D01*
X63868901Y-89492649D01*
X63868905Y-89492654D01*
X64047045Y-89670794D01*
X64047050Y-89670798D01*
X64146847Y-89743304D01*
X64250855Y-89818870D01*
X64366286Y-89877685D01*
X64475316Y-89933239D01*
X64475318Y-89933239D01*
X64475321Y-89933241D01*
X64714915Y-90011090D01*
X64963738Y-90050500D01*
X64963739Y-90050500D01*
X65215661Y-90050500D01*
X65215662Y-90050500D01*
X65464485Y-90011090D01*
X65704079Y-89933241D01*
X65928545Y-89818870D01*
X66132356Y-89670793D01*
X66310493Y-89492656D01*
X66458570Y-89288845D01*
X66572941Y-89064379D01*
X66650790Y-88824785D01*
X66690200Y-88575962D01*
X66690200Y-88324038D01*
X66650790Y-88075215D01*
X66572941Y-87835621D01*
X66572939Y-87835618D01*
X66572939Y-87835616D01*
X66531447Y-87754184D01*
X66458570Y-87611155D01*
X66374939Y-87496046D01*
X66310498Y-87407350D01*
X66310494Y-87407345D01*
X66132354Y-87229205D01*
X66132349Y-87229201D01*
X65928548Y-87081132D01*
X65928547Y-87081131D01*
X65928545Y-87081130D01*
X65813118Y-87022317D01*
X65704083Y-86966760D01*
X65464485Y-86888910D01*
X65464479Y-86888909D01*
X65215662Y-86849500D01*
X64963738Y-86849500D01*
X64867776Y-86864699D01*
X64714914Y-86888910D01*
X64475316Y-86966760D01*
X64250851Y-87081132D01*
X64047050Y-87229201D01*
X64047045Y-87229205D01*
X63868905Y-87407345D01*
X63868901Y-87407350D01*
X63720832Y-87611151D01*
X63606460Y-87835616D01*
X63528610Y-88075214D01*
X63489200Y-88324038D01*
X59434845Y-88324038D01*
X62474266Y-85284619D01*
X62535589Y-85251134D01*
X62561947Y-85248300D01*
X69869951Y-85248300D01*
X69869952Y-85248300D01*
X70072135Y-85216277D01*
X70169476Y-85184648D01*
X70266819Y-85153020D01*
X70358014Y-85106553D01*
X70449211Y-85060087D01*
X70614819Y-84939766D01*
X74247666Y-81306919D01*
X74367987Y-81141311D01*
X74445659Y-80988870D01*
X74460920Y-80958919D01*
X74492548Y-80861576D01*
X74524177Y-80764235D01*
X74556200Y-80562052D01*
X74556200Y-80357349D01*
X74556200Y-73701198D01*
X74575885Y-73634159D01*
X74628689Y-73588404D01*
X74697847Y-73578460D01*
X74761403Y-73607485D01*
X74767881Y-73613517D01*
X74789917Y-73635553D01*
X79061511Y-73635553D01*
X79061511Y-70221103D01*
X74789917Y-70221103D01*
X74767881Y-70243139D01*
X74706558Y-70276624D01*
X74636866Y-70271640D01*
X74580933Y-70229768D01*
X74556516Y-70164304D01*
X74556200Y-70155458D01*
X74556200Y-63443949D01*
X74556200Y-63443948D01*
X74528770Y-63270766D01*
X74524177Y-63241765D01*
X74492548Y-63144423D01*
X74460920Y-63047081D01*
X74460920Y-63047080D01*
X74384327Y-62896759D01*
X74384328Y-62896758D01*
X74384324Y-62896754D01*
X74367993Y-62864700D01*
X74367990Y-62864696D01*
X74367987Y-62864689D01*
X74247666Y-62699081D01*
X65597329Y-54048744D01*
X65563844Y-53987421D01*
X65568006Y-53929223D01*
X75249500Y-53929223D01*
X75249500Y-54230776D01*
X75249501Y-54230793D01*
X75288861Y-54529766D01*
X75366913Y-54821060D01*
X75482314Y-55099661D01*
X75482318Y-55099671D01*
X75633099Y-55360831D01*
X75816679Y-55600078D01*
X75816685Y-55600085D01*
X76029914Y-55813314D01*
X76029921Y-55813320D01*
X76269168Y-55996900D01*
X76530328Y-56147681D01*
X76530329Y-56147681D01*
X76530332Y-56147683D01*
X76716072Y-56224619D01*
X76808939Y-56263086D01*
X76808940Y-56263086D01*
X76808942Y-56263087D01*
X77100232Y-56341138D01*
X77399217Y-56380500D01*
X77399224Y-56380500D01*
X77700776Y-56380500D01*
X77700783Y-56380500D01*
X77999768Y-56341138D01*
X78291058Y-56263087D01*
X78569668Y-56147683D01*
X78830832Y-55996900D01*
X79070080Y-55813319D01*
X79283319Y-55600080D01*
X79466900Y-55360832D01*
X79617683Y-55099668D01*
X79733087Y-54821058D01*
X79811138Y-54529768D01*
X79850500Y-54230783D01*
X79850500Y-53929217D01*
X79811138Y-53630232D01*
X79733087Y-53338942D01*
X79705905Y-53273320D01*
X79694619Y-53246072D01*
X79617683Y-53060332D01*
X79617540Y-53060085D01*
X79466900Y-52799168D01*
X79283320Y-52559921D01*
X79283314Y-52559914D01*
X79070085Y-52346685D01*
X79070078Y-52346679D01*
X78830831Y-52163099D01*
X78569671Y-52012318D01*
X78569661Y-52012314D01*
X78291060Y-51896913D01*
X77999766Y-51818861D01*
X77700793Y-51779501D01*
X77700788Y-51779500D01*
X77700783Y-51779500D01*
X77399217Y-51779500D01*
X77399211Y-51779500D01*
X77399206Y-51779501D01*
X77100233Y-51818861D01*
X76808939Y-51896913D01*
X76530338Y-52012314D01*
X76530328Y-52012318D01*
X76269168Y-52163099D01*
X76029921Y-52346679D01*
X76029914Y-52346685D01*
X75816685Y-52559914D01*
X75816679Y-52559921D01*
X75633099Y-52799168D01*
X75482318Y-53060328D01*
X75482314Y-53060338D01*
X75366913Y-53338939D01*
X75288861Y-53630233D01*
X75249501Y-53929206D01*
X75249500Y-53929223D01*
X65568006Y-53929223D01*
X65568828Y-53917729D01*
X65610700Y-53861796D01*
X65668822Y-53838125D01*
X65949768Y-53801138D01*
X66241058Y-53723087D01*
X66519668Y-53607683D01*
X66780832Y-53456900D01*
X67020080Y-53273319D01*
X67233319Y-53060080D01*
X67416900Y-52820832D01*
X67567683Y-52559668D01*
X67683087Y-52281058D01*
X67761138Y-51989768D01*
X67800500Y-51690783D01*
X67800500Y-51389217D01*
X67761138Y-51090232D01*
X67683087Y-50798942D01*
X67655905Y-50733320D01*
X67614590Y-50633576D01*
X67567683Y-50520332D01*
X67567540Y-50520085D01*
X67416900Y-50259168D01*
X67233320Y-50019921D01*
X67233314Y-50019914D01*
X67020085Y-49806685D01*
X67020078Y-49806679D01*
X66780831Y-49623099D01*
X66519671Y-49472318D01*
X66519661Y-49472314D01*
X66241060Y-49356913D01*
X65949766Y-49278861D01*
X65650793Y-49239501D01*
X65650788Y-49239500D01*
X65650783Y-49239500D01*
X65349217Y-49239500D01*
X65349211Y-49239500D01*
X65349206Y-49239501D01*
X65050233Y-49278861D01*
X64758939Y-49356913D01*
X64480338Y-49472314D01*
X64480328Y-49472318D01*
X64219168Y-49623099D01*
X63979921Y-49806679D01*
X63979914Y-49806685D01*
X63766685Y-50019914D01*
X63766679Y-50019921D01*
X63583099Y-50259168D01*
X63432318Y-50520328D01*
X63432314Y-50520338D01*
X63316913Y-50798939D01*
X63238861Y-51090233D01*
X63201875Y-51371174D01*
X63173608Y-51435071D01*
X63115284Y-51473542D01*
X63045419Y-51474373D01*
X62991255Y-51442670D01*
X60556621Y-49008036D01*
X60556619Y-49008034D01*
X60391011Y-48887713D01*
X60315470Y-48849223D01*
X75249500Y-48849223D01*
X75249500Y-49150776D01*
X75249501Y-49150793D01*
X75288861Y-49449766D01*
X75366913Y-49741060D01*
X75482314Y-50019661D01*
X75482318Y-50019671D01*
X75633099Y-50280831D01*
X75816679Y-50520078D01*
X75816685Y-50520085D01*
X76029914Y-50733314D01*
X76029921Y-50733320D01*
X76269168Y-50916900D01*
X76530328Y-51067681D01*
X76530329Y-51067681D01*
X76530332Y-51067683D01*
X76584773Y-51090233D01*
X76808939Y-51183086D01*
X76808940Y-51183086D01*
X76808942Y-51183087D01*
X77100232Y-51261138D01*
X77399217Y-51300500D01*
X77399224Y-51300500D01*
X77700776Y-51300500D01*
X77700783Y-51300500D01*
X77999768Y-51261138D01*
X78291058Y-51183087D01*
X78569668Y-51067683D01*
X78830832Y-50916900D01*
X79070080Y-50733319D01*
X79283319Y-50520080D01*
X79466900Y-50280832D01*
X79617683Y-50019668D01*
X79733087Y-49741058D01*
X79811138Y-49449768D01*
X79850500Y-49150783D01*
X79850500Y-48849217D01*
X79811138Y-48550232D01*
X79733087Y-48258942D01*
X79617683Y-47980332D01*
X79466900Y-47719168D01*
X79283319Y-47479920D01*
X79283314Y-47479914D01*
X79070085Y-47266685D01*
X79070078Y-47266679D01*
X78830831Y-47083099D01*
X78569671Y-46932318D01*
X78569661Y-46932314D01*
X78291060Y-46816913D01*
X77999766Y-46738861D01*
X77700793Y-46699501D01*
X77700788Y-46699500D01*
X77700783Y-46699500D01*
X77399217Y-46699500D01*
X77399211Y-46699500D01*
X77399206Y-46699501D01*
X77100233Y-46738861D01*
X76808939Y-46816913D01*
X76530338Y-46932314D01*
X76530328Y-46932318D01*
X76269168Y-47083099D01*
X76029921Y-47266679D01*
X76029914Y-47266685D01*
X75816685Y-47479914D01*
X75816679Y-47479921D01*
X75633099Y-47719168D01*
X75482318Y-47980328D01*
X75482314Y-47980338D01*
X75366913Y-48258939D01*
X75288861Y-48550233D01*
X75249501Y-48849206D01*
X75249500Y-48849223D01*
X60315470Y-48849223D01*
X60299814Y-48841246D01*
X60208619Y-48794780D01*
X60150738Y-48775973D01*
X60043316Y-48741069D01*
X60043314Y-48741069D01*
X60013935Y-48731523D01*
X60013933Y-48731522D01*
X60013928Y-48731521D01*
X59842127Y-48704311D01*
X59811752Y-48699500D01*
X59811751Y-48699500D01*
X51355810Y-48699500D01*
X51288771Y-48679815D01*
X51258865Y-48652815D01*
X51254816Y-48647738D01*
X51127262Y-48520184D01*
X50974523Y-48424211D01*
X50804254Y-48364631D01*
X50804249Y-48364630D01*
X50669960Y-48349500D01*
X50669954Y-48349500D01*
X50545915Y-48349500D01*
X50478876Y-48329815D01*
X50433121Y-48277011D01*
X50423177Y-48207853D01*
X50452202Y-48144297D01*
X50455500Y-48140755D01*
X50455500Y-44915039D01*
X63199500Y-44915039D01*
X63199500Y-48004960D01*
X63214630Y-48139249D01*
X63214631Y-48139254D01*
X63274211Y-48309523D01*
X63346274Y-48424210D01*
X63370184Y-48462262D01*
X63497738Y-48589816D01*
X63650478Y-48685789D01*
X63781173Y-48731521D01*
X63820745Y-48745368D01*
X63820750Y-48745369D01*
X63911246Y-48755565D01*
X63955040Y-48760499D01*
X63955043Y-48760500D01*
X63955046Y-48760500D01*
X67044957Y-48760500D01*
X67044958Y-48760499D01*
X67112104Y-48752934D01*
X67179249Y-48745369D01*
X67179251Y-48745368D01*
X67179255Y-48745368D01*
X67179258Y-48745366D01*
X67179262Y-48745366D01*
X67228554Y-48728118D01*
X67228558Y-48728116D01*
X67349522Y-48685789D01*
X67502262Y-48589816D01*
X67629816Y-48462262D01*
X67725789Y-48309522D01*
X67785368Y-48139255D01*
X67800500Y-48004954D01*
X67800500Y-44915046D01*
X67785368Y-44780745D01*
X67725789Y-44610478D01*
X67629816Y-44457738D01*
X67502262Y-44330184D01*
X67349523Y-44234211D01*
X67179254Y-44174631D01*
X67179249Y-44174630D01*
X67044960Y-44159500D01*
X67044954Y-44159500D01*
X63955046Y-44159500D01*
X63955039Y-44159500D01*
X63820750Y-44174630D01*
X63820745Y-44174631D01*
X63650476Y-44234211D01*
X63497737Y-44330184D01*
X63370184Y-44457737D01*
X63274211Y-44610476D01*
X63214631Y-44780745D01*
X63214630Y-44780750D01*
X63199500Y-44915039D01*
X50455500Y-44915039D01*
X50455500Y-44724984D01*
X46473071Y-44724984D01*
X46473071Y-48140553D01*
X46848769Y-48140553D01*
X46915808Y-48160238D01*
X46961563Y-48213042D01*
X46971507Y-48282200D01*
X46942482Y-48345756D01*
X46883704Y-48383530D01*
X46868167Y-48387026D01*
X46848506Y-48390139D01*
X46601423Y-48470422D01*
X46369945Y-48588368D01*
X46159774Y-48741066D01*
X46159771Y-48741069D01*
X45976071Y-48924768D01*
X45976066Y-48924774D01*
X45823368Y-49134945D01*
X45705422Y-49366423D01*
X45625140Y-49613506D01*
X45584500Y-49870097D01*
X45584500Y-50129902D01*
X45625140Y-50386493D01*
X45705422Y-50633576D01*
X45823368Y-50865054D01*
X45970588Y-51067685D01*
X45976069Y-51075229D01*
X46159771Y-51258931D01*
X46369949Y-51411634D01*
X46491450Y-51473542D01*
X46601423Y-51529577D01*
X46601425Y-51529577D01*
X46601428Y-51529579D01*
X46848507Y-51609860D01*
X46980706Y-51630797D01*
X47105098Y-51650500D01*
X47105103Y-51650500D01*
X47364902Y-51650500D01*
X47478298Y-51632539D01*
X47621493Y-51609860D01*
X47868572Y-51529579D01*
X48100051Y-51411634D01*
X48161779Y-51366785D01*
X48227584Y-51343306D01*
X48295638Y-51359131D01*
X48322345Y-51379423D01*
X48422738Y-51479816D01*
X48575478Y-51575789D01*
X48745745Y-51635368D01*
X48745750Y-51635369D01*
X48836246Y-51645565D01*
X48880040Y-51650499D01*
X48880043Y-51650500D01*
X48880046Y-51650500D01*
X50669957Y-51650500D01*
X50669958Y-51650499D01*
X50737104Y-51642934D01*
X50804249Y-51635369D01*
X50804252Y-51635368D01*
X50804255Y-51635368D01*
X50974522Y-51575789D01*
X51127262Y-51479816D01*
X51254816Y-51352262D01*
X51254818Y-51352257D01*
X51258865Y-51347185D01*
X51316054Y-51307046D01*
X51355810Y-51300500D01*
X59119353Y-51300500D01*
X59186392Y-51320185D01*
X59207034Y-51336819D01*
X70438034Y-62567819D01*
X70471519Y-62629142D01*
X70466535Y-62698834D01*
X70424663Y-62754767D01*
X70359199Y-62779184D01*
X70350353Y-62779500D01*
X70189038Y-62779500D01*
X70093076Y-62794699D01*
X69940214Y-62818910D01*
X69700616Y-62896760D01*
X69476151Y-63011132D01*
X69272350Y-63159201D01*
X69272345Y-63159205D01*
X69094205Y-63337345D01*
X69094201Y-63337350D01*
X68946132Y-63541151D01*
X68831760Y-63765616D01*
X68753910Y-64005214D01*
X68714500Y-64254038D01*
X68714500Y-64505961D01*
X68753910Y-64754785D01*
X68831760Y-64994383D01*
X68946132Y-65218848D01*
X69094176Y-65422615D01*
X69117656Y-65488421D01*
X69101830Y-65556475D01*
X69051724Y-65605170D01*
X68993858Y-65619500D01*
X65074486Y-65619500D01*
X65007447Y-65599815D01*
X64961692Y-65547011D01*
X64951748Y-65477853D01*
X64965128Y-65437047D01*
X65020230Y-65333958D01*
X65020230Y-65333957D01*
X65020232Y-65333954D01*
X65080300Y-65135934D01*
X65095500Y-64981608D01*
X65095500Y-63778392D01*
X65080300Y-63624066D01*
X65020232Y-63426046D01*
X64922685Y-63243550D01*
X64839373Y-63142033D01*
X64791410Y-63083589D01*
X64631452Y-62952317D01*
X64631453Y-62952317D01*
X64631450Y-62952315D01*
X64448954Y-62854768D01*
X64250934Y-62794700D01*
X64250932Y-62794699D01*
X64250934Y-62794699D01*
X64131805Y-62782966D01*
X64096608Y-62779500D01*
X62093392Y-62779500D01*
X62055298Y-62783251D01*
X61939067Y-62794699D01*
X61741043Y-62854769D01*
X61662496Y-62896754D01*
X61558550Y-62952315D01*
X61558548Y-62952316D01*
X61558547Y-62952317D01*
X61398589Y-63083589D01*
X61267317Y-63243547D01*
X61169769Y-63426043D01*
X61109699Y-63624067D01*
X61098251Y-63740298D01*
X61094500Y-63778392D01*
X61094500Y-64981608D01*
X61099502Y-65032398D01*
X61109699Y-65135932D01*
X61169769Y-65333958D01*
X61224872Y-65437047D01*
X61239114Y-65505449D01*
X61214114Y-65570693D01*
X61157809Y-65612064D01*
X61115514Y-65619500D01*
X59316846Y-65619500D01*
X59249807Y-65599815D01*
X59229165Y-65583181D01*
X58979942Y-65333958D01*
X58727519Y-65081534D01*
X58561911Y-64961213D01*
X58470714Y-64914746D01*
X58379519Y-64868280D01*
X58214854Y-64814777D01*
X58214852Y-64814775D01*
X58184836Y-64805023D01*
X58184831Y-64805022D01*
X58043664Y-64782663D01*
X57982652Y-64773000D01*
X53921352Y-64773000D01*
X53716648Y-64773000D01*
X53669779Y-64780423D01*
X53514468Y-64805022D01*
X53514463Y-64805023D01*
X53484444Y-64814776D01*
X53484445Y-64814777D01*
X53319784Y-64868278D01*
X53319783Y-64868278D01*
X53228584Y-64914745D01*
X53228585Y-64914746D01*
X53137388Y-64961213D01*
X52971778Y-65081536D01*
X49737181Y-68316134D01*
X49675858Y-68349619D01*
X49606166Y-68344635D01*
X49550233Y-68302763D01*
X49525816Y-68237299D01*
X49525500Y-68228453D01*
X49525500Y-67588395D01*
X49524241Y-67575616D01*
X49510300Y-67434066D01*
X49450232Y-67236046D01*
X49352685Y-67053550D01*
X49300702Y-66990209D01*
X49221410Y-66893589D01*
X49061452Y-66762317D01*
X49061453Y-66762317D01*
X49061450Y-66762315D01*
X48878954Y-66664768D01*
X48680934Y-66604700D01*
X48680932Y-66604699D01*
X48680934Y-66604699D01*
X48561805Y-66592966D01*
X48526608Y-66589500D01*
X46523392Y-66589500D01*
X46485298Y-66593251D01*
X46369067Y-66604699D01*
X46171043Y-66664769D01*
X46060898Y-66723643D01*
X45988550Y-66762315D01*
X45988548Y-66762316D01*
X45988547Y-66762317D01*
X45828589Y-66893589D01*
X45697317Y-67053547D01*
X45599769Y-67236043D01*
X45539699Y-67434067D01*
X45531486Y-67517461D01*
X45524500Y-67588392D01*
X45524500Y-68791608D01*
X45529502Y-68842398D01*
X45539699Y-68945932D01*
X45599769Y-69143958D01*
X45654872Y-69247047D01*
X45669114Y-69315449D01*
X45644114Y-69380693D01*
X45587809Y-69422064D01*
X45545514Y-69429500D01*
X42789052Y-69429500D01*
X42584348Y-69429500D01*
X42558197Y-69433642D01*
X42382163Y-69461523D01*
X42284823Y-69493150D01*
X42284823Y-69493151D01*
X42253484Y-69503334D01*
X42187474Y-69524782D01*
X42096284Y-69571245D01*
X42096285Y-69571246D01*
X42005088Y-69617713D01*
X41839478Y-69738036D01*
X39964334Y-71613181D01*
X39903011Y-71646666D01*
X39876653Y-71649500D01*
X39550022Y-71649500D01*
X39482983Y-71629815D01*
X39462341Y-71613181D01*
X39390231Y-71541071D01*
X39390225Y-71541066D01*
X39180054Y-71388368D01*
X39180053Y-71388367D01*
X39180051Y-71388366D01*
X39093722Y-71344379D01*
X38948576Y-71270422D01*
X38701493Y-71190140D01*
X38444902Y-71149500D01*
X38444897Y-71149500D01*
X38185103Y-71149500D01*
X38185098Y-71149500D01*
X37928506Y-71190140D01*
X37681423Y-71270422D01*
X37449945Y-71388368D01*
X37239774Y-71541066D01*
X37239768Y-71541071D01*
X37132681Y-71648159D01*
X37071358Y-71681644D01*
X37001666Y-71676660D01*
X36957319Y-71648159D01*
X36850231Y-71541071D01*
X36850225Y-71541066D01*
X36640054Y-71388368D01*
X36640053Y-71388367D01*
X36640051Y-71388366D01*
X36553722Y-71344379D01*
X36408576Y-71270422D01*
X36161493Y-71190140D01*
X35904902Y-71149500D01*
X35904897Y-71149500D01*
X35645103Y-71149500D01*
X35645098Y-71149500D01*
X35388506Y-71190140D01*
X35141423Y-71270422D01*
X34909946Y-71388367D01*
X34848219Y-71433214D01*
X34816097Y-71444674D01*
X34784181Y-71456579D01*
X34783281Y-71456383D01*
X34782413Y-71456693D01*
X34749199Y-71448969D01*
X34715908Y-71441727D01*
X34714939Y-71441002D01*
X34714359Y-71440867D01*
X34687654Y-71420576D01*
X34582462Y-71315384D01*
X34548977Y-71254061D01*
X34553961Y-71184369D01*
X34582460Y-71140024D01*
X42106866Y-63615619D01*
X42168189Y-63582134D01*
X42194547Y-63579300D01*
X55968551Y-63579300D01*
X55968552Y-63579300D01*
X56170735Y-63547277D01*
X56268076Y-63515648D01*
X56365419Y-63484020D01*
X56479199Y-63426046D01*
X56547811Y-63391087D01*
X56713419Y-63270766D01*
X59847366Y-60136819D01*
X59908689Y-60103334D01*
X59935047Y-60100500D01*
X60069558Y-60100500D01*
X60069565Y-60100500D01*
X60316565Y-60067982D01*
X60557207Y-60003502D01*
X60787373Y-59908164D01*
X61003127Y-59783599D01*
X61200776Y-59631938D01*
X61376938Y-59455776D01*
X61528599Y-59258127D01*
X61653164Y-59042373D01*
X61748502Y-58812207D01*
X61812982Y-58571565D01*
X61845500Y-58324565D01*
X61845500Y-58075435D01*
X61812982Y-57828435D01*
X61748502Y-57587793D01*
X61653167Y-57357635D01*
X61653162Y-57357623D01*
X61528599Y-57141873D01*
X61376939Y-56944225D01*
X61376933Y-56944218D01*
X61200781Y-56768066D01*
X61200774Y-56768060D01*
X61003126Y-56616400D01*
X60787376Y-56491837D01*
X60787361Y-56491830D01*
X60557207Y-56396498D01*
X60316561Y-56332017D01*
X60069575Y-56299501D01*
X60069570Y-56299500D01*
X60069565Y-56299500D01*
X59820435Y-56299500D01*
X59820429Y-56299500D01*
X59820424Y-56299501D01*
X59573438Y-56332017D01*
X59332792Y-56396498D01*
X59102638Y-56491830D01*
X59102623Y-56491837D01*
X58886873Y-56616400D01*
X58689225Y-56768060D01*
X58689218Y-56768066D01*
X58513066Y-56944218D01*
X58513060Y-56944225D01*
X58361400Y-57141873D01*
X58236837Y-57357623D01*
X58236830Y-57357638D01*
X58141498Y-57587792D01*
X58077017Y-57828438D01*
X58044501Y-58075424D01*
X58044500Y-58075441D01*
X58044500Y-58209953D01*
X58024815Y-58276992D01*
X58008181Y-58297634D01*
X55363834Y-60941981D01*
X55302511Y-60975466D01*
X55276153Y-60978300D01*
X41502148Y-60978300D01*
X41477829Y-60982151D01*
X41299965Y-61010322D01*
X41105276Y-61073581D01*
X40966780Y-61144149D01*
X40922890Y-61166513D01*
X40922889Y-61166514D01*
X40914991Y-61172252D01*
X40914990Y-61172251D01*
X40914990Y-61172252D01*
X40757286Y-61286828D01*
X32243036Y-69801078D01*
X32243031Y-69801084D01*
X32122718Y-69966681D01*
X32122706Y-69966700D01*
X32122263Y-69967569D01*
X32122187Y-69967721D01*
X32121968Y-69968152D01*
X32029780Y-70149081D01*
X32029780Y-70149082D01*
X32025454Y-70162393D01*
X32025452Y-70162399D01*
X31966524Y-70343760D01*
X31966522Y-70343767D01*
X31963157Y-70365017D01*
X31963157Y-70365018D01*
X31934500Y-70545948D01*
X31934500Y-71219190D01*
X31914815Y-71286229D01*
X31887815Y-71316135D01*
X31882738Y-71320183D01*
X31755184Y-71447737D01*
X31659211Y-71600476D01*
X31599631Y-71770745D01*
X31599630Y-71770750D01*
X31584500Y-71905039D01*
X30969786Y-71905039D01*
X30969786Y-70219984D01*
X26627510Y-70219984D01*
X26627510Y-73778410D01*
X20500500Y-73778410D01*
X20500500Y-57298394D01*
X29974500Y-57298394D01*
X29974500Y-59101604D01*
X29989699Y-59255932D01*
X29989700Y-59255935D01*
X30049768Y-59453955D01*
X30144903Y-59631939D01*
X30147317Y-59636454D01*
X30278589Y-59796410D01*
X30438545Y-59927682D01*
X30438549Y-59927685D01*
X30621045Y-60025232D01*
X30819065Y-60085300D01*
X30819064Y-60085300D01*
X30829968Y-60086373D01*
X30973391Y-60100500D01*
X32776608Y-60100499D01*
X32930935Y-60085300D01*
X33128955Y-60025232D01*
X33311451Y-59927685D01*
X33471410Y-59796410D01*
X33602685Y-59636451D01*
X33700232Y-59453955D01*
X33760300Y-59255935D01*
X33775500Y-59101609D01*
X33775499Y-58075441D01*
X40134500Y-58075441D01*
X40134500Y-58324558D01*
X40134501Y-58324575D01*
X40167017Y-58571561D01*
X40231498Y-58812207D01*
X40326830Y-59042361D01*
X40326837Y-59042376D01*
X40451400Y-59258126D01*
X40603060Y-59455774D01*
X40603066Y-59455781D01*
X40779218Y-59631933D01*
X40779225Y-59631939D01*
X40976873Y-59783599D01*
X41192623Y-59908162D01*
X41192638Y-59908169D01*
X41291825Y-59949253D01*
X41422793Y-60003502D01*
X41663435Y-60067982D01*
X41910435Y-60100500D01*
X41910442Y-60100500D01*
X42159558Y-60100500D01*
X42159565Y-60100500D01*
X42406565Y-60067982D01*
X42647207Y-60003502D01*
X42877373Y-59908164D01*
X43093127Y-59783599D01*
X43290776Y-59631938D01*
X43466938Y-59455776D01*
X43618599Y-59258127D01*
X43743164Y-59042373D01*
X43838502Y-58812207D01*
X43902982Y-58571565D01*
X43935500Y-58324565D01*
X43935500Y-58075435D01*
X43902982Y-57828435D01*
X43838502Y-57587793D01*
X43743169Y-57357638D01*
X43743168Y-57357635D01*
X43743165Y-57357630D01*
X43743164Y-57357627D01*
X43743004Y-57357351D01*
X43743004Y-57357349D01*
X43743002Y-57357347D01*
X43708966Y-57298395D01*
X43708965Y-57298394D01*
X47884500Y-57298394D01*
X47884500Y-59101604D01*
X47899699Y-59255932D01*
X47899700Y-59255935D01*
X47959768Y-59453955D01*
X48054903Y-59631939D01*
X48057317Y-59636454D01*
X48188589Y-59796410D01*
X48348545Y-59927682D01*
X48348549Y-59927685D01*
X48531045Y-60025232D01*
X48729065Y-60085300D01*
X48729064Y-60085300D01*
X48739968Y-60086373D01*
X48883391Y-60100500D01*
X50686608Y-60100499D01*
X50840935Y-60085300D01*
X51038955Y-60025232D01*
X51221451Y-59927685D01*
X51381410Y-59796410D01*
X51512685Y-59636451D01*
X51610232Y-59453955D01*
X51670300Y-59255935D01*
X51685500Y-59101609D01*
X51685499Y-57298392D01*
X51670300Y-57144065D01*
X51610232Y-56946045D01*
X51512685Y-56763549D01*
X51391924Y-56616401D01*
X51381410Y-56603589D01*
X51268045Y-56510553D01*
X52802357Y-56510553D01*
X57000797Y-56510553D01*
X57000797Y-53096103D01*
X52802357Y-53096103D01*
X52802357Y-56510553D01*
X51268045Y-56510553D01*
X51221454Y-56472317D01*
X51221452Y-56472316D01*
X51221451Y-56472315D01*
X51038955Y-56374768D01*
X50840935Y-56314700D01*
X50840933Y-56314699D01*
X50840935Y-56314699D01*
X50730222Y-56303795D01*
X50686609Y-56299500D01*
X50686605Y-56299500D01*
X48883395Y-56299500D01*
X48729067Y-56314699D01*
X48531042Y-56374769D01*
X48348545Y-56472317D01*
X48188589Y-56603589D01*
X48057317Y-56763545D01*
X47959769Y-56946042D01*
X47899699Y-57144066D01*
X47884500Y-57298394D01*
X43708965Y-57298394D01*
X43618599Y-57141873D01*
X43466939Y-56944225D01*
X43466933Y-56944218D01*
X43290781Y-56768066D01*
X43290774Y-56768060D01*
X43093126Y-56616400D01*
X42877376Y-56491837D01*
X42877361Y-56491830D01*
X42647207Y-56396498D01*
X42406561Y-56332017D01*
X42159575Y-56299501D01*
X42159570Y-56299500D01*
X42159565Y-56299500D01*
X41910435Y-56299500D01*
X41910429Y-56299500D01*
X41910424Y-56299501D01*
X41663438Y-56332017D01*
X41422792Y-56396498D01*
X41192638Y-56491830D01*
X41192623Y-56491837D01*
X40976873Y-56616400D01*
X40779225Y-56768060D01*
X40779218Y-56768066D01*
X40603066Y-56944218D01*
X40603060Y-56944225D01*
X40451400Y-57141873D01*
X40326837Y-57357623D01*
X40326830Y-57357638D01*
X40231498Y-57587792D01*
X40167017Y-57828438D01*
X40134501Y-58075424D01*
X40134500Y-58075441D01*
X33775499Y-58075441D01*
X33775499Y-57298392D01*
X33760300Y-57144065D01*
X33700232Y-56946045D01*
X33602685Y-56763549D01*
X33481924Y-56616401D01*
X33471410Y-56603589D01*
X33358045Y-56510553D01*
X34892357Y-56510553D01*
X39089072Y-56510553D01*
X39089072Y-53094984D01*
X34892357Y-53094984D01*
X34892357Y-56510553D01*
X33358045Y-56510553D01*
X33311454Y-56472317D01*
X33311452Y-56472316D01*
X33311451Y-56472315D01*
X33128955Y-56374768D01*
X32930935Y-56314700D01*
X32930933Y-56314699D01*
X32930935Y-56314699D01*
X32820222Y-56303795D01*
X32776609Y-56299500D01*
X32776605Y-56299500D01*
X30973395Y-56299500D01*
X30819067Y-56314699D01*
X30621042Y-56374769D01*
X30438545Y-56472317D01*
X30278589Y-56603589D01*
X30147317Y-56763545D01*
X30049769Y-56946042D01*
X29989699Y-57144066D01*
X29974500Y-57298394D01*
X20500500Y-57298394D01*
X20500500Y-43658828D01*
X63329053Y-43658828D01*
X67741215Y-43658828D01*
X67741215Y-42375039D01*
X75249500Y-42375039D01*
X75249500Y-45464960D01*
X75264630Y-45599249D01*
X75264631Y-45599254D01*
X75324211Y-45769523D01*
X75420184Y-45922262D01*
X75547738Y-46049816D01*
X75700478Y-46145789D01*
X75870745Y-46205368D01*
X75870750Y-46205369D01*
X75961246Y-46215565D01*
X76005040Y-46220499D01*
X76005043Y-46220500D01*
X76005046Y-46220500D01*
X79094957Y-46220500D01*
X79094958Y-46220499D01*
X79162104Y-46212934D01*
X79229249Y-46205369D01*
X79229252Y-46205368D01*
X79229255Y-46205368D01*
X79399522Y-46145789D01*
X79552262Y-46049816D01*
X79679816Y-45922262D01*
X79775789Y-45769522D01*
X79835368Y-45599255D01*
X79850500Y-45464954D01*
X79850500Y-42375046D01*
X79835368Y-42240745D01*
X79775789Y-42070478D01*
X79679816Y-41917738D01*
X79552262Y-41790184D01*
X79399523Y-41694211D01*
X79229254Y-41634631D01*
X79229249Y-41634630D01*
X79094960Y-41619500D01*
X79094954Y-41619500D01*
X76005046Y-41619500D01*
X76005039Y-41619500D01*
X75870750Y-41634630D01*
X75870745Y-41634631D01*
X75700476Y-41694211D01*
X75547737Y-41790184D01*
X75420184Y-41917737D01*
X75324211Y-42070476D01*
X75264631Y-42240745D01*
X75264630Y-42240750D01*
X75249500Y-42375039D01*
X67741215Y-42375039D01*
X67741215Y-41110553D01*
X75523071Y-41110553D01*
X79507225Y-41110553D01*
X79507225Y-37696103D01*
X75523071Y-37696103D01*
X75523071Y-41110553D01*
X67741215Y-41110553D01*
X67741215Y-40244984D01*
X63329053Y-40244984D01*
X63329053Y-43658828D01*
X20500500Y-43658828D01*
X20500500Y-20624500D01*
X20520185Y-20557461D01*
X20572989Y-20511706D01*
X20624500Y-20500500D01*
X123375500Y-20500500D01*
X123442539Y-20520185D01*
G37*
%TD.AperFunction*%
%TA.AperFunction,NonConductor*%
G36*
X48723352Y-48160238D02*
G01*
X48769107Y-48213042D01*
X48779051Y-48282200D01*
X48750026Y-48345756D01*
X48697267Y-48381595D01*
X48575478Y-48424210D01*
X48422739Y-48520183D01*
X48322345Y-48620577D01*
X48261022Y-48654061D01*
X48191330Y-48649077D01*
X48161779Y-48633213D01*
X48100054Y-48588368D01*
X48100053Y-48588367D01*
X48100051Y-48588366D01*
X48025209Y-48550232D01*
X47868576Y-48470422D01*
X47621493Y-48390139D01*
X47601833Y-48387026D01*
X47538698Y-48357097D01*
X47501767Y-48297785D01*
X47502765Y-48227923D01*
X47541375Y-48169690D01*
X47605338Y-48141576D01*
X47621231Y-48140553D01*
X48656313Y-48140553D01*
X48723352Y-48160238D01*
G37*
%TD.AperFunction*%
M02*
