%TF.GenerationSoftware,KiCad,Pcbnew,9.0.4*%
%TF.CreationDate,2026-06-10T15:59:35+02:00*%
%TF.ProjectId,drive_circuit,64726976-655f-4636-9972-637569742e6b,rev?*%
%TF.SameCoordinates,Original*%
%TF.FileFunction,Soldermask,Top*%
%TF.FilePolarity,Negative*%
%FSLAX46Y46*%
G04 Gerber Fmt 4.6, Leading zero omitted, Abs format (unit mm)*
G04 Created by KiCad (PCBNEW 9.0.4) date 2026-06-10 15:59:35*
%MOMM*%
%LPD*%
G01*
G04 APERTURE LIST*
G04 Aperture macros list*
%AMRoundRect*
0 Rectangle with rounded corners*
0 $1 Rounding radius*
0 $2 $3 $4 $5 $6 $7 $8 $9 X,Y pos of 4 corners*
0 Add a 4 corners polygon primitive as box body*
4,1,4,$2,$3,$4,$5,$6,$7,$8,$9,$2,$3,0*
0 Add four circle primitives for the rounded corners*
1,1,$1+$1,$2,$3*
1,1,$1+$1,$4,$5*
1,1,$1+$1,$6,$7*
1,1,$1+$1,$8,$9*
0 Add four rect primitives between the rounded corners*
20,1,$1+$1,$2,$3,$4,$5,0*
20,1,$1+$1,$4,$5,$6,$7,0*
20,1,$1+$1,$6,$7,$8,$9,0*
20,1,$1+$1,$8,$9,$2,$3,0*%
G04 Aperture macros list end*
%ADD10R,1.700000X1.700000*%
%ADD11C,1.700000*%
%ADD12RoundRect,0.250000X-0.550000X-0.550000X0.550000X-0.550000X0.550000X0.550000X-0.550000X0.550000X0*%
%ADD13C,1.600000*%
%ADD14RoundRect,0.249999X-0.850001X-0.850001X0.850001X-0.850001X0.850001X0.850001X-0.850001X0.850001X0*%
%ADD15C,2.200000*%
%ADD16R,3.000000X3.000000*%
%ADD17C,3.000000*%
%ADD18R,1.700000X2.000000*%
%ADD19O,1.700000X2.000000*%
%ADD20RoundRect,0.250000X-0.950000X-0.550000X0.950000X-0.550000X0.950000X0.550000X-0.950000X0.550000X0*%
%ADD21O,2.400000X1.600000*%
G04 APERTURE END LIST*
D10*
%TO.C,J1*%
X49775000Y-50000000D03*
D11*
X47235000Y-50000000D03*
%TD*%
D12*
%TO.C,C1*%
X33219700Y-88450000D03*
D13*
X36719700Y-88450000D03*
%TD*%
D14*
%TO.C,D2*%
X49785000Y-58200000D03*
D15*
X59945000Y-58200000D03*
%TD*%
D16*
%TO.C,J2*%
X77550000Y-43920000D03*
D17*
X77550000Y-49000000D03*
X77550000Y-54080000D03*
%TD*%
D13*
%TO.C,R2*%
X31575000Y-97250000D03*
X39195000Y-97250000D03*
%TD*%
%TO.C,R1*%
X57469700Y-88450000D03*
X65089700Y-88450000D03*
%TD*%
D16*
%TO.C,M1*%
X65500000Y-46460000D03*
D17*
X65500000Y-51540000D03*
%TD*%
D14*
%TO.C,D1*%
X31875000Y-58200000D03*
D15*
X42035000Y-58200000D03*
%TD*%
D13*
%TO.C,R3*%
X46345000Y-97250000D03*
X53965000Y-97250000D03*
%TD*%
%TO.C,R4*%
X61115000Y-97250000D03*
X68735000Y-97250000D03*
%TD*%
D18*
%TO.C,Q1*%
X33235000Y-72950000D03*
D19*
X35775000Y-72950000D03*
X38315000Y-72950000D03*
%TD*%
D13*
%TO.C,C2*%
X45319700Y-88450000D03*
X50319700Y-88450000D03*
%TD*%
D20*
%TO.C,U2*%
X63095000Y-64380000D03*
D21*
X63095000Y-66920000D03*
X63095000Y-69460000D03*
X63095000Y-72000000D03*
X63095000Y-74540000D03*
X63095000Y-77080000D03*
X63095000Y-79620000D03*
X70715000Y-79620000D03*
X70715000Y-77080000D03*
X70715000Y-74540000D03*
X70715000Y-72000000D03*
X70715000Y-69460000D03*
X70715000Y-66920000D03*
X70715000Y-64380000D03*
%TD*%
D20*
%TO.C,U1*%
X47525000Y-68190000D03*
D21*
X47525000Y-70730000D03*
X47525000Y-73270000D03*
X47525000Y-75810000D03*
X55145000Y-75810000D03*
X55145000Y-73270000D03*
X55145000Y-70730000D03*
X55145000Y-68190000D03*
%TD*%
M02*
