M48
; DRILL file {KiCad 9.0.4} date 2026-06-10T15:59:35+0200
; FORMAT={-:-/ absolute / metric / decimal}
; #@! TF.CreationDate,2026-06-10T15:59:35+02:00
; #@! TF.GenerationSoftware,Kicad,Pcbnew,9.0.4
; #@! TF.FileFunction,MixedPlating,1,2
FMAT,2
METRIC
; #@! TA.AperFunction,Plated,PTH,ViaDrill
T1C0.300
; #@! TA.AperFunction,Plated,PTH,ComponentDrill
T2C0.800
; #@! TA.AperFunction,Plated,PTH,ComponentDrill
T3C1.000
; #@! TA.AperFunction,Plated,PTH,ComponentDrill
T4C1.100
; #@! TA.AperFunction,Plated,PTH,ComponentDrill
T5C1.520
%
G90
G05
T1
X56.391Y-62.456
T2
X31.575Y-97.25
X33.22Y-88.45
X36.72Y-88.45
X39.195Y-97.25
X45.32Y-88.45
X46.345Y-97.25
X47.525Y-68.19
X47.525Y-70.73
X47.525Y-73.27
X47.525Y-75.81
X50.32Y-88.45
X53.965Y-97.25
X55.145Y-68.19
X55.145Y-70.73
X55.145Y-73.27
X55.145Y-75.81
X57.47Y-88.45
X61.115Y-97.25
X63.095Y-64.38
X63.095Y-66.92
X63.095Y-69.46
X63.095Y-72.0
X63.095Y-74.54
X63.095Y-77.08
X63.095Y-79.62
X65.09Y-88.45
X68.735Y-97.25
X70.715Y-64.38
X70.715Y-66.92
X70.715Y-69.46
X70.715Y-72.0
X70.715Y-74.54
X70.715Y-77.08
X70.715Y-79.62
T3
X47.235Y-50.0
X49.775Y-50.0
T4
X31.875Y-58.2
X33.235Y-72.95
X35.775Y-72.95
X38.315Y-72.95
X42.035Y-58.2
X49.785Y-58.2
X59.945Y-58.2
T5
X65.5Y-46.46
X65.5Y-51.54
X77.55Y-43.92
X77.55Y-49.0
X77.55Y-54.08
M30
