%TF.GenerationSoftware,KiCad,Pcbnew,9.0.4*%
%TF.CreationDate,2026-06-10T15:59:35+02:00*%
%TF.ProjectId,drive_circuit,64726976-655f-4636-9972-637569742e6b,rev?*%
%TF.SameCoordinates,Original*%
%TF.FileFunction,Copper,L1,Top*%
%TF.FilePolarity,Positive*%
%FSLAX46Y46*%
G04 Gerber Fmt 4.6, Leading zero omitted, Abs format (unit mm)*
G04 Created by KiCad (PCBNEW 9.0.4) date 2026-06-10 15:59:35*
%MOMM*%
%LPD*%
G01*
G04 APERTURE LIST*
G04 Aperture macros list*
%AMRoundRect*
0 Rectangle with rounded corners*
0 $1 Rounding radius*
0 $2 $3 $4 $5 $6 $7 $8 $9 X,Y pos of 4 corners*
0 Add a 4 corners polygon primitive as box body*
4,1,4,$2,$3,$4,$5,$6,$7,$8,$9,$2,$3,0*
0 Add four circle primitives for the rounded corners*
1,1,$1+$1,$2,$3*
1,1,$1+$1,$4,$5*
1,1,$1+$1,$6,$7*
1,1,$1+$1,$8,$9*
0 Add four rect primitives between the rounded corners*
20,1,$1+$1,$2,$3,$4,$5,0*
20,1,$1+$1,$4,$5,$6,$7,0*
20,1,$1+$1,$6,$7,$8,$9,0*
20,1,$1+$1,$8,$9,$2,$3,0*%
G04 Aperture macros list end*
%ADD10C,0.300000*%
%TA.AperFunction,NonConductor*%
%ADD11C,0.300000*%
%TD*%
%TA.AperFunction,ComponentPad*%
%ADD12R,1.700000X1.700000*%
%TD*%
%TA.AperFunction,ComponentPad*%
%ADD13C,1.700000*%
%TD*%
%TA.AperFunction,ComponentPad*%
%ADD14RoundRect,0.250000X-0.550000X-0.550000X0.550000X-0.550000X0.550000X0.550000X-0.550000X0.550000X0*%
%TD*%
%TA.AperFunction,ComponentPad*%
%ADD15C,1.600000*%
%TD*%
%TA.AperFunction,ComponentPad*%
%ADD16RoundRect,0.249999X-0.850001X-0.850001X0.850001X-0.850001X0.850001X0.850001X-0.850001X0.850001X0*%
%TD*%
%TA.AperFunction,ComponentPad*%
%ADD17C,2.200000*%
%TD*%
%TA.AperFunction,ComponentPad*%
%ADD18R,3.000000X3.000000*%
%TD*%
%TA.AperFunction,ComponentPad*%
%ADD19C,3.000000*%
%TD*%
%TA.AperFunction,ComponentPad*%
%ADD20R,1.700000X2.000000*%
%TD*%
%TA.AperFunction,ComponentPad*%
%ADD21O,1.700000X2.000000*%
%TD*%
%TA.AperFunction,ComponentPad*%
%ADD22RoundRect,0.250000X-0.950000X-0.550000X0.950000X-0.550000X0.950000X0.550000X-0.950000X0.550000X0*%
%TD*%
%TA.AperFunction,ComponentPad*%
%ADD23O,2.400000X1.600000*%
%TD*%
%TA.AperFunction,ViaPad*%
%ADD24C,0.600000*%
%TD*%
%TA.AperFunction,Conductor*%
%ADD25C,1.000000*%
%TD*%
G04 APERTURE END LIST*
D10*
D11*
X35135000Y-94703328D02*
X34635000Y-93989042D01*
X34277857Y-94703328D02*
X34277857Y-93203328D01*
X34277857Y-93203328D02*
X34849286Y-93203328D01*
X34849286Y-93203328D02*
X34992143Y-93274757D01*
X34992143Y-93274757D02*
X35063572Y-93346185D01*
X35063572Y-93346185D02*
X35135000Y-93489042D01*
X35135000Y-93489042D02*
X35135000Y-93703328D01*
X35135000Y-93703328D02*
X35063572Y-93846185D01*
X35063572Y-93846185D02*
X34992143Y-93917614D01*
X34992143Y-93917614D02*
X34849286Y-93989042D01*
X34849286Y-93989042D02*
X34277857Y-93989042D01*
X35706429Y-93346185D02*
X35777857Y-93274757D01*
X35777857Y-93274757D02*
X35920715Y-93203328D01*
X35920715Y-93203328D02*
X36277857Y-93203328D01*
X36277857Y-93203328D02*
X36420715Y-93274757D01*
X36420715Y-93274757D02*
X36492143Y-93346185D01*
X36492143Y-93346185D02*
X36563572Y-93489042D01*
X36563572Y-93489042D02*
X36563572Y-93631900D01*
X36563572Y-93631900D02*
X36492143Y-93846185D01*
X36492143Y-93846185D02*
X35635000Y-94703328D01*
X35635000Y-94703328D02*
X36563572Y-94703328D01*
D10*
D11*
X70546671Y-49285714D02*
X72046671Y-49285714D01*
X72046671Y-49285714D02*
X70975242Y-49785714D01*
X70975242Y-49785714D02*
X72046671Y-50285714D01*
X72046671Y-50285714D02*
X70546671Y-50285714D01*
X70546671Y-51785715D02*
X70546671Y-50928572D01*
X70546671Y-51357143D02*
X72046671Y-51357143D01*
X72046671Y-51357143D02*
X71832385Y-51214286D01*
X71832385Y-51214286D02*
X71689528Y-51071429D01*
X71689528Y-51071429D02*
X71618100Y-50928572D01*
D10*
D11*
X84096671Y-48500000D02*
X83025242Y-48500000D01*
X83025242Y-48500000D02*
X82810957Y-48428571D01*
X82810957Y-48428571D02*
X82668100Y-48285714D01*
X82668100Y-48285714D02*
X82596671Y-48071428D01*
X82596671Y-48071428D02*
X82596671Y-47928571D01*
X83953814Y-49142857D02*
X84025242Y-49214285D01*
X84025242Y-49214285D02*
X84096671Y-49357143D01*
X84096671Y-49357143D02*
X84096671Y-49714285D01*
X84096671Y-49714285D02*
X84025242Y-49857143D01*
X84025242Y-49857143D02*
X83953814Y-49928571D01*
X83953814Y-49928571D02*
X83810957Y-50000000D01*
X83810957Y-50000000D02*
X83668100Y-50000000D01*
X83668100Y-50000000D02*
X83453814Y-49928571D01*
X83453814Y-49928571D02*
X82596671Y-49071428D01*
X82596671Y-49071428D02*
X82596671Y-50000000D01*
D10*
D11*
X59392857Y-51378328D02*
X59392857Y-49878328D01*
X59392857Y-49878328D02*
X59750000Y-49878328D01*
X59750000Y-49878328D02*
X59964286Y-49949757D01*
X59964286Y-49949757D02*
X60107143Y-50092614D01*
X60107143Y-50092614D02*
X60178572Y-50235471D01*
X60178572Y-50235471D02*
X60250000Y-50521185D01*
X60250000Y-50521185D02*
X60250000Y-50735471D01*
X60250000Y-50735471D02*
X60178572Y-51021185D01*
X60178572Y-51021185D02*
X60107143Y-51164042D01*
X60107143Y-51164042D02*
X59964286Y-51306900D01*
X59964286Y-51306900D02*
X59750000Y-51378328D01*
X59750000Y-51378328D02*
X59392857Y-51378328D01*
X60821429Y-50021185D02*
X60892857Y-49949757D01*
X60892857Y-49949757D02*
X61035715Y-49878328D01*
X61035715Y-49878328D02*
X61392857Y-49878328D01*
X61392857Y-49878328D02*
X61535715Y-49949757D01*
X61535715Y-49949757D02*
X61607143Y-50021185D01*
X61607143Y-50021185D02*
X61678572Y-50164042D01*
X61678572Y-50164042D02*
X61678572Y-50306900D01*
X61678572Y-50306900D02*
X61607143Y-50521185D01*
X61607143Y-50521185D02*
X60750000Y-51378328D01*
X60750000Y-51378328D02*
X61678572Y-51378328D01*
D10*
D11*
X49905000Y-94703328D02*
X49405000Y-93989042D01*
X49047857Y-94703328D02*
X49047857Y-93203328D01*
X49047857Y-93203328D02*
X49619286Y-93203328D01*
X49619286Y-93203328D02*
X49762143Y-93274757D01*
X49762143Y-93274757D02*
X49833572Y-93346185D01*
X49833572Y-93346185D02*
X49905000Y-93489042D01*
X49905000Y-93489042D02*
X49905000Y-93703328D01*
X49905000Y-93703328D02*
X49833572Y-93846185D01*
X49833572Y-93846185D02*
X49762143Y-93917614D01*
X49762143Y-93917614D02*
X49619286Y-93989042D01*
X49619286Y-93989042D02*
X49047857Y-93989042D01*
X50405000Y-93203328D02*
X51333572Y-93203328D01*
X51333572Y-93203328D02*
X50833572Y-93774757D01*
X50833572Y-93774757D02*
X51047857Y-93774757D01*
X51047857Y-93774757D02*
X51190715Y-93846185D01*
X51190715Y-93846185D02*
X51262143Y-93917614D01*
X51262143Y-93917614D02*
X51333572Y-94060471D01*
X51333572Y-94060471D02*
X51333572Y-94417614D01*
X51333572Y-94417614D02*
X51262143Y-94560471D01*
X51262143Y-94560471D02*
X51190715Y-94631900D01*
X51190715Y-94631900D02*
X51047857Y-94703328D01*
X51047857Y-94703328D02*
X50619286Y-94703328D01*
X50619286Y-94703328D02*
X50476429Y-94631900D01*
X50476429Y-94631900D02*
X50405000Y-94560471D01*
D10*
D11*
X76321671Y-72357142D02*
X75107385Y-72357142D01*
X75107385Y-72357142D02*
X74964528Y-72428571D01*
X74964528Y-72428571D02*
X74893100Y-72500000D01*
X74893100Y-72500000D02*
X74821671Y-72642857D01*
X74821671Y-72642857D02*
X74821671Y-72928571D01*
X74821671Y-72928571D02*
X74893100Y-73071428D01*
X74893100Y-73071428D02*
X74964528Y-73142857D01*
X74964528Y-73142857D02*
X75107385Y-73214285D01*
X75107385Y-73214285D02*
X76321671Y-73214285D01*
X76178814Y-73857143D02*
X76250242Y-73928571D01*
X76250242Y-73928571D02*
X76321671Y-74071429D01*
X76321671Y-74071429D02*
X76321671Y-74428571D01*
X76321671Y-74428571D02*
X76250242Y-74571429D01*
X76250242Y-74571429D02*
X76178814Y-74642857D01*
X76178814Y-74642857D02*
X76035957Y-74714286D01*
X76035957Y-74714286D02*
X75893100Y-74714286D01*
X75893100Y-74714286D02*
X75678814Y-74642857D01*
X75678814Y-74642857D02*
X74821671Y-73785714D01*
X74821671Y-73785714D02*
X74821671Y-74714286D01*
D10*
D11*
X30892857Y-63178328D02*
X30892857Y-61678328D01*
X30892857Y-61678328D02*
X31250000Y-61678328D01*
X31250000Y-61678328D02*
X31464286Y-61749757D01*
X31464286Y-61749757D02*
X31607143Y-61892614D01*
X31607143Y-61892614D02*
X31678572Y-62035471D01*
X31678572Y-62035471D02*
X31750000Y-62321185D01*
X31750000Y-62321185D02*
X31750000Y-62535471D01*
X31750000Y-62535471D02*
X31678572Y-62821185D01*
X31678572Y-62821185D02*
X31607143Y-62964042D01*
X31607143Y-62964042D02*
X31464286Y-63106900D01*
X31464286Y-63106900D02*
X31250000Y-63178328D01*
X31250000Y-63178328D02*
X30892857Y-63178328D01*
X33178572Y-63178328D02*
X32321429Y-63178328D01*
X32750000Y-63178328D02*
X32750000Y-61678328D01*
X32750000Y-61678328D02*
X32607143Y-61892614D01*
X32607143Y-61892614D02*
X32464286Y-62035471D01*
X32464286Y-62035471D02*
X32321429Y-62106900D01*
D10*
D11*
X46357142Y-62623328D02*
X46357142Y-63837614D01*
X46357142Y-63837614D02*
X46428571Y-63980471D01*
X46428571Y-63980471D02*
X46500000Y-64051900D01*
X46500000Y-64051900D02*
X46642857Y-64123328D01*
X46642857Y-64123328D02*
X46928571Y-64123328D01*
X46928571Y-64123328D02*
X47071428Y-64051900D01*
X47071428Y-64051900D02*
X47142857Y-63980471D01*
X47142857Y-63980471D02*
X47214285Y-63837614D01*
X47214285Y-63837614D02*
X47214285Y-62623328D01*
X48714286Y-64123328D02*
X47857143Y-64123328D01*
X48285714Y-64123328D02*
X48285714Y-62623328D01*
X48285714Y-62623328D02*
X48142857Y-62837614D01*
X48142857Y-62837614D02*
X48000000Y-62980471D01*
X48000000Y-62980471D02*
X47857143Y-63051900D01*
D10*
D11*
X28550002Y-88985471D02*
X28478574Y-89056900D01*
X28478574Y-89056900D02*
X28264288Y-89128328D01*
X28264288Y-89128328D02*
X28121431Y-89128328D01*
X28121431Y-89128328D02*
X27907145Y-89056900D01*
X27907145Y-89056900D02*
X27764288Y-88914042D01*
X27764288Y-88914042D02*
X27692859Y-88771185D01*
X27692859Y-88771185D02*
X27621431Y-88485471D01*
X27621431Y-88485471D02*
X27621431Y-88271185D01*
X27621431Y-88271185D02*
X27692859Y-87985471D01*
X27692859Y-87985471D02*
X27764288Y-87842614D01*
X27764288Y-87842614D02*
X27907145Y-87699757D01*
X27907145Y-87699757D02*
X28121431Y-87628328D01*
X28121431Y-87628328D02*
X28264288Y-87628328D01*
X28264288Y-87628328D02*
X28478574Y-87699757D01*
X28478574Y-87699757D02*
X28550002Y-87771185D01*
X29978574Y-89128328D02*
X29121431Y-89128328D01*
X29550002Y-89128328D02*
X29550002Y-87628328D01*
X29550002Y-87628328D02*
X29407145Y-87842614D01*
X29407145Y-87842614D02*
X29264288Y-87985471D01*
X29264288Y-87985471D02*
X29121431Y-88056900D01*
D10*
D11*
X61029700Y-87403328D02*
X60529700Y-86689042D01*
X60172557Y-87403328D02*
X60172557Y-85903328D01*
X60172557Y-85903328D02*
X60743986Y-85903328D01*
X60743986Y-85903328D02*
X60886843Y-85974757D01*
X60886843Y-85974757D02*
X60958272Y-86046185D01*
X60958272Y-86046185D02*
X61029700Y-86189042D01*
X61029700Y-86189042D02*
X61029700Y-86403328D01*
X61029700Y-86403328D02*
X60958272Y-86546185D01*
X60958272Y-86546185D02*
X60886843Y-86617614D01*
X60886843Y-86617614D02*
X60743986Y-86689042D01*
X60743986Y-86689042D02*
X60172557Y-86689042D01*
X62458272Y-87403328D02*
X61601129Y-87403328D01*
X62029700Y-87403328D02*
X62029700Y-85903328D01*
X62029700Y-85903328D02*
X61886843Y-86117614D01*
X61886843Y-86117614D02*
X61743986Y-86260471D01*
X61743986Y-86260471D02*
X61601129Y-86331900D01*
D10*
D11*
X44569700Y-81260471D02*
X44498272Y-81331900D01*
X44498272Y-81331900D02*
X44283986Y-81403328D01*
X44283986Y-81403328D02*
X44141129Y-81403328D01*
X44141129Y-81403328D02*
X43926843Y-81331900D01*
X43926843Y-81331900D02*
X43783986Y-81189042D01*
X43783986Y-81189042D02*
X43712557Y-81046185D01*
X43712557Y-81046185D02*
X43641129Y-80760471D01*
X43641129Y-80760471D02*
X43641129Y-80546185D01*
X43641129Y-80546185D02*
X43712557Y-80260471D01*
X43712557Y-80260471D02*
X43783986Y-80117614D01*
X43783986Y-80117614D02*
X43926843Y-79974757D01*
X43926843Y-79974757D02*
X44141129Y-79903328D01*
X44141129Y-79903328D02*
X44283986Y-79903328D01*
X44283986Y-79903328D02*
X44498272Y-79974757D01*
X44498272Y-79974757D02*
X44569700Y-80046185D01*
X45141129Y-80046185D02*
X45212557Y-79974757D01*
X45212557Y-79974757D02*
X45355415Y-79903328D01*
X45355415Y-79903328D02*
X45712557Y-79903328D01*
X45712557Y-79903328D02*
X45855415Y-79974757D01*
X45855415Y-79974757D02*
X45926843Y-80046185D01*
X45926843Y-80046185D02*
X45998272Y-80189042D01*
X45998272Y-80189042D02*
X45998272Y-80331900D01*
X45998272Y-80331900D02*
X45926843Y-80546185D01*
X45926843Y-80546185D02*
X45069700Y-81403328D01*
X45069700Y-81403328D02*
X45998272Y-81403328D01*
D10*
D11*
X36908328Y-44499999D02*
X37979757Y-44499999D01*
X37979757Y-44499999D02*
X38194042Y-44571428D01*
X38194042Y-44571428D02*
X38336900Y-44714285D01*
X38336900Y-44714285D02*
X38408328Y-44928571D01*
X38408328Y-44928571D02*
X38408328Y-45071428D01*
X38408328Y-42999999D02*
X38408328Y-43857142D01*
X38408328Y-43428571D02*
X36908328Y-43428571D01*
X36908328Y-43428571D02*
X37122614Y-43571428D01*
X37122614Y-43571428D02*
X37265471Y-43714285D01*
X37265471Y-43714285D02*
X37336900Y-43857142D01*
D10*
D11*
X64675000Y-99203328D02*
X64175000Y-98489042D01*
X63817857Y-99203328D02*
X63817857Y-97703328D01*
X63817857Y-97703328D02*
X64389286Y-97703328D01*
X64389286Y-97703328D02*
X64532143Y-97774757D01*
X64532143Y-97774757D02*
X64603572Y-97846185D01*
X64603572Y-97846185D02*
X64675000Y-97989042D01*
X64675000Y-97989042D02*
X64675000Y-98203328D01*
X64675000Y-98203328D02*
X64603572Y-98346185D01*
X64603572Y-98346185D02*
X64532143Y-98417614D01*
X64532143Y-98417614D02*
X64389286Y-98489042D01*
X64389286Y-98489042D02*
X63817857Y-98489042D01*
X65960715Y-98203328D02*
X65960715Y-99203328D01*
X65603572Y-97631900D02*
X65246429Y-98703328D01*
X65246429Y-98703328D02*
X66175000Y-98703328D01*
D10*
D11*
X31857142Y-67821185D02*
X31714285Y-67749757D01*
X31714285Y-67749757D02*
X31571428Y-67606900D01*
X31571428Y-67606900D02*
X31357142Y-67392614D01*
X31357142Y-67392614D02*
X31214285Y-67321185D01*
X31214285Y-67321185D02*
X31071428Y-67321185D01*
X31142857Y-67678328D02*
X31000000Y-67606900D01*
X31000000Y-67606900D02*
X30857142Y-67464042D01*
X30857142Y-67464042D02*
X30785714Y-67178328D01*
X30785714Y-67178328D02*
X30785714Y-66678328D01*
X30785714Y-66678328D02*
X30857142Y-66392614D01*
X30857142Y-66392614D02*
X31000000Y-66249757D01*
X31000000Y-66249757D02*
X31142857Y-66178328D01*
X31142857Y-66178328D02*
X31428571Y-66178328D01*
X31428571Y-66178328D02*
X31571428Y-66249757D01*
X31571428Y-66249757D02*
X31714285Y-66392614D01*
X31714285Y-66392614D02*
X31785714Y-66678328D01*
X31785714Y-66678328D02*
X31785714Y-67178328D01*
X31785714Y-67178328D02*
X31714285Y-67464042D01*
X31714285Y-67464042D02*
X31571428Y-67606900D01*
X31571428Y-67606900D02*
X31428571Y-67678328D01*
X31428571Y-67678328D02*
X31142857Y-67678328D01*
X33214286Y-67678328D02*
X32357143Y-67678328D01*
X32785714Y-67678328D02*
X32785714Y-66178328D01*
X32785714Y-66178328D02*
X32642857Y-66392614D01*
X32642857Y-66392614D02*
X32500000Y-66535471D01*
X32500000Y-66535471D02*
X32357143Y-66606900D01*
D12*
%TO.P,J1,1*%
%TO.N,PWM*%
X49775000Y-50000000D03*
D13*
%TO.P,J1,2*%
%TO.N,GND*%
X47235000Y-50000000D03*
%TD*%
D14*
%TO.P,C1,1*%
%TO.N,+15V*%
X33219700Y-88450000D03*
D15*
%TO.P,C1,2*%
%TO.N,GND*%
X36719700Y-88450000D03*
%TD*%
D16*
%TO.P,D2,1*%
%TO.N,Net-(D2-K)*%
X49785000Y-58200000D03*
D17*
%TO.P,D2,2*%
%TO.N,Net-(D2-A)*%
X59945000Y-58200000D03*
%TD*%
D18*
%TO.P,J2,1*%
%TO.N,+20V*%
X77550000Y-43920000D03*
D19*
%TO.P,J2,2*%
%TO.N,+15V*%
X77550000Y-49000000D03*
%TO.P,J2,3*%
%TO.N,GND*%
X77550000Y-54080000D03*
%TD*%
D15*
%TO.P,R2,1*%
%TO.N,Net-(D2-K)*%
X31575000Y-97250000D03*
%TO.P,R2,2*%
%TO.N,Net-(D2-A)*%
X39195000Y-97250000D03*
%TD*%
%TO.P,R1,1*%
%TO.N,PWM*%
X57469700Y-88450000D03*
%TO.P,R1,2*%
%TO.N,Net-(R1-Pad2)*%
X65089700Y-88450000D03*
%TD*%
D18*
%TO.P,M1,1*%
%TO.N,+20V*%
X65500000Y-46460000D03*
D19*
%TO.P,M1,2*%
%TO.N,Net-(D1-A)*%
X65500000Y-51540000D03*
%TD*%
D16*
%TO.P,D1,1*%
%TO.N,+20V*%
X31875000Y-58200000D03*
D17*
%TO.P,D1,2*%
%TO.N,Net-(D1-A)*%
X42035000Y-58200000D03*
%TD*%
D15*
%TO.P,R3,1*%
%TO.N,Net-(U2-LIN)*%
X46345000Y-97250000D03*
%TO.P,R3,2*%
%TO.N,GND*%
X53965000Y-97250000D03*
%TD*%
%TO.P,R4,1*%
%TO.N,Net-(D2-A)*%
X61115000Y-97250000D03*
%TO.P,R4,2*%
%TO.N,GND*%
X68735000Y-97250000D03*
%TD*%
D20*
%TO.P,Q1,1*%
%TO.N,Net-(D2-A)*%
X33235000Y-72950000D03*
D21*
%TO.P,Q1,2*%
%TO.N,Net-(D1-A)*%
X35775000Y-72950000D03*
%TO.P,Q1,3*%
%TO.N,GND*%
X38315000Y-72950000D03*
%TD*%
D15*
%TO.P,C2,1*%
%TO.N,+15V*%
X45319700Y-88450000D03*
%TO.P,C2,2*%
%TO.N,GND*%
X50319700Y-88450000D03*
%TD*%
D22*
%TO.P,U2,1*%
%TO.N,Net-(D2-K)*%
X63095000Y-64380000D03*
D23*
%TO.P,U2,2*%
%TO.N,GND*%
X63095000Y-66920000D03*
%TO.P,U2,3*%
%TO.N,+15V*%
X63095000Y-69460000D03*
%TO.P,U2,4*%
%TO.N,N/C*%
X63095000Y-72000000D03*
%TO.P,U2,5*%
%TO.N,GND*%
X63095000Y-74540000D03*
%TO.P,U2,6*%
%TO.N,N/C*%
X63095000Y-77080000D03*
%TO.P,U2,7*%
X63095000Y-79620000D03*
%TO.P,U2,8*%
X70715000Y-79620000D03*
%TO.P,U2,9*%
%TO.N,+15V*%
X70715000Y-77080000D03*
%TO.P,U2,10*%
%TO.N,GND*%
X70715000Y-74540000D03*
%TO.P,U2,11*%
X70715000Y-72000000D03*
%TO.P,U2,12*%
%TO.N,Net-(U2-LIN)*%
X70715000Y-69460000D03*
%TO.P,U2,13*%
%TO.N,GND*%
X70715000Y-66920000D03*
%TO.P,U2,14*%
%TO.N,N/C*%
X70715000Y-64380000D03*
%TD*%
D22*
%TO.P,U1,1*%
%TO.N,Net-(R1-Pad2)*%
X47525000Y-68190000D03*
D23*
%TO.P,U1,2*%
%TO.N,GND*%
X47525000Y-70730000D03*
%TO.P,U1,3*%
%TO.N,N/C*%
X47525000Y-73270000D03*
%TO.P,U1,4*%
X47525000Y-75810000D03*
%TO.P,U1,5*%
X55145000Y-75810000D03*
%TO.P,U1,6*%
X55145000Y-73270000D03*
%TO.P,U1,7*%
%TO.N,+15V*%
X55145000Y-70730000D03*
%TO.P,U1,8*%
%TO.N,Net-(U2-LIN)*%
X55145000Y-68190000D03*
%TD*%
D24*
%TO.N,Net-(U2-LIN)*%
X56390600Y-62456500D03*
%TD*%
D25*
%TO.N,+15V*%
X63247200Y-82862700D02*
X68213300Y-77896600D01*
X35357400Y-90587700D02*
X43182000Y-90587700D01*
X50907000Y-82862700D02*
X63247200Y-82862700D01*
X33219700Y-88450000D02*
X35357400Y-90587700D01*
X68213300Y-77896600D02*
X68213300Y-77080000D01*
X70715000Y-77080000D02*
X68213300Y-77080000D01*
X59323300Y-70730000D02*
X55145000Y-70730000D01*
X60593300Y-69460000D02*
X59323300Y-70730000D01*
X45319700Y-88450000D02*
X50907000Y-82862700D01*
X63095000Y-69460000D02*
X60593300Y-69460000D01*
X43182000Y-90587700D02*
X45319700Y-88450000D01*
%TO.N,+20V*%
X43615000Y-46460000D02*
X31875000Y-58200000D01*
X66696500Y-46460000D02*
X65500000Y-46460000D01*
X68301700Y-46460000D02*
X70841700Y-43920000D01*
X65500000Y-46460000D02*
X43615000Y-46460000D01*
X66696500Y-46460000D02*
X68301700Y-46460000D01*
X70841700Y-43920000D02*
X77550000Y-43920000D01*
%TO.N,GND*%
X70715000Y-74540000D02*
X63095000Y-74540000D01*
X56066700Y-95148300D02*
X66633300Y-95148300D01*
X70715000Y-66920000D02*
X63095000Y-66920000D01*
X66633300Y-95148300D02*
X68735000Y-97250000D01*
X40466700Y-72950000D02*
X42686700Y-70730000D01*
X42686700Y-70730000D02*
X47525000Y-70730000D01*
X38315000Y-72950000D02*
X40466700Y-72950000D01*
X53965000Y-97250000D02*
X56066700Y-95148300D01*
%TO.N,Net-(D1-A)*%
X35775000Y-64460000D02*
X42035000Y-58200000D01*
X65500000Y-51540000D02*
X63043400Y-53996600D01*
X35775000Y-72950000D02*
X35775000Y-64460000D01*
X46238400Y-53996600D02*
X42035000Y-58200000D01*
X63043400Y-53996600D02*
X46238400Y-53996600D01*
%TO.N,Net-(D2-A)*%
X39195000Y-97250000D02*
X41313800Y-99368800D01*
X41313800Y-99368800D02*
X58996200Y-99368800D01*
X58996200Y-99368800D02*
X61115000Y-97250000D01*
%TO.N,Net-(D2-K)*%
X49785000Y-58398900D02*
X55766100Y-64380000D01*
X55766100Y-64380000D02*
X63095000Y-64380000D01*
X49785000Y-58200000D02*
X49785000Y-58398900D01*
%TO.N,Net-(U2-LIN)*%
X70715000Y-69460000D02*
X73216700Y-69460000D01*
X56390700Y-58357800D02*
X56390700Y-62456500D01*
X73216700Y-69460000D02*
X73216700Y-63474500D01*
X65540500Y-55798300D02*
X58950200Y-55798300D01*
X73216700Y-63474500D02*
X65540500Y-55798300D01*
X56390700Y-62456500D02*
X56390600Y-62456500D01*
X58950200Y-55798300D02*
X56390700Y-58357800D01*
%TD*%
%TA.AperFunction,NonConductor*%
G36*
X123442539Y-20520185D02*
G01*
X123488294Y-20572989D01*
X123499500Y-20624500D01*
X123499500Y-123375500D01*
X123479815Y-123442539D01*
X123427011Y-123488294D01*
X123375500Y-123499500D01*
X20624500Y-123499500D01*
X20557461Y-123479815D01*
X20511706Y-123427011D01*
X20500500Y-123375500D01*
X20500500Y-97124038D01*
X29974500Y-97124038D01*
X29974500Y-97375961D01*
X30013910Y-97624785D01*
X30091760Y-97864383D01*
X30158727Y-97995811D01*
X30204033Y-98084730D01*
X30206132Y-98088848D01*
X30354201Y-98292649D01*
X30354205Y-98292654D01*
X30532345Y-98470794D01*
X30532350Y-98470798D01*
X30710117Y-98599952D01*
X30736155Y-98618870D01*
X30879184Y-98691747D01*
X30960616Y-98733239D01*
X30960618Y-98733239D01*
X30960621Y-98733241D01*
X31200215Y-98811090D01*
X31449038Y-98850500D01*
X31449039Y-98850500D01*
X31700961Y-98850500D01*
X31700962Y-98850500D01*
X31949785Y-98811090D01*
X32189379Y-98733241D01*
X32413845Y-98618870D01*
X32617656Y-98470793D01*
X32795793Y-98292656D01*
X32943870Y-98088845D01*
X33058241Y-97864379D01*
X33136090Y-97624785D01*
X33175500Y-97375962D01*
X33175500Y-97124038D01*
X37594500Y-97124038D01*
X37594500Y-97375961D01*
X37633910Y-97624785D01*
X37711760Y-97864383D01*
X37778727Y-97995811D01*
X37824033Y-98084730D01*
X37826132Y-98088848D01*
X37974201Y-98292649D01*
X37974205Y-98292654D01*
X38152345Y-98470794D01*
X38152350Y-98470798D01*
X38330117Y-98599952D01*
X38356155Y-98618870D01*
X38499184Y-98691747D01*
X38580616Y-98733239D01*
X38580618Y-98733239D01*
X38580621Y-98733241D01*
X38709049Y-98774970D01*
X38820214Y-98811090D01*
X38859439Y-98817302D01*
X38895306Y-98822983D01*
X38958441Y-98852912D01*
X38963590Y-98857775D01*
X40318708Y-100212892D01*
X40318722Y-100212907D01*
X40321833Y-100216018D01*
X40321834Y-100216019D01*
X40466581Y-100360766D01*
X40466584Y-100360768D01*
X40466588Y-100360772D01*
X40616768Y-100469882D01*
X40632190Y-100481087D01*
X40719035Y-100525337D01*
X40814581Y-100574021D01*
X40814584Y-100574022D01*
X40911921Y-100605648D01*
X41009266Y-100637277D01*
X41211448Y-100669300D01*
X41211449Y-100669300D01*
X59098551Y-100669300D01*
X59098552Y-100669300D01*
X59300735Y-100637277D01*
X59398076Y-100605648D01*
X59495419Y-100574020D01*
X59586614Y-100527553D01*
X59677811Y-100481087D01*
X59843419Y-100360766D01*
X61346409Y-98857773D01*
X61407730Y-98824290D01*
X61414649Y-98822989D01*
X61489785Y-98811090D01*
X61729379Y-98733241D01*
X61953845Y-98618870D01*
X62157656Y-98470793D01*
X62335793Y-98292656D01*
X62483870Y-98088845D01*
X62598241Y-97864379D01*
X62620426Y-97796099D01*
X62659864Y-97738424D01*
X62724222Y-97711226D01*
X62793069Y-97723141D01*
X62844544Y-97770385D01*
X62862357Y-97834418D01*
X62862357Y-100161655D01*
X67130500Y-100161655D01*
X67130500Y-98142892D01*
X67150185Y-98075853D01*
X67202989Y-98030098D01*
X67272147Y-98020154D01*
X67335703Y-98049179D01*
X67363523Y-98084730D01*
X67363585Y-98084693D01*
X67363913Y-98085229D01*
X67364987Y-98086601D01*
X67366132Y-98088849D01*
X67514201Y-98292649D01*
X67514205Y-98292654D01*
X67692345Y-98470794D01*
X67692350Y-98470798D01*
X67870117Y-98599952D01*
X67896155Y-98618870D01*
X68039184Y-98691747D01*
X68120616Y-98733239D01*
X68120618Y-98733239D01*
X68120621Y-98733241D01*
X68360215Y-98811090D01*
X68609038Y-98850500D01*
X68609039Y-98850500D01*
X68860961Y-98850500D01*
X68860962Y-98850500D01*
X69109785Y-98811090D01*
X69349379Y-98733241D01*
X69573845Y-98618870D01*
X69777656Y-98470793D01*
X69955793Y-98292656D01*
X70103870Y-98088845D01*
X70218241Y-97864379D01*
X70296090Y-97624785D01*
X70335500Y-97375962D01*
X70335500Y-97124038D01*
X70296090Y-96875215D01*
X70218241Y-96635621D01*
X70218239Y-96635618D01*
X70218239Y-96635616D01*
X70141556Y-96485119D01*
X70103870Y-96411155D01*
X70084952Y-96385117D01*
X69955798Y-96207350D01*
X69955794Y-96207345D01*
X69777654Y-96029205D01*
X69777649Y-96029201D01*
X69573848Y-95881132D01*
X69573847Y-95881131D01*
X69573845Y-95881130D01*
X69349379Y-95766759D01*
X69109785Y-95688910D01*
X69109783Y-95688909D01*
X69034689Y-95677015D01*
X68971554Y-95647085D01*
X68966407Y-95642223D01*
X67480521Y-94156336D01*
X67480520Y-94156335D01*
X67480519Y-94156334D01*
X67314911Y-94036013D01*
X67223714Y-93989546D01*
X67132523Y-93943081D01*
X67085815Y-93927904D01*
X67035176Y-93911451D01*
X67011303Y-93903694D01*
X66937835Y-93879822D01*
X66763295Y-93852178D01*
X66735652Y-93847800D01*
X55964348Y-93847800D01*
X55896954Y-93858474D01*
X55762164Y-93879823D01*
X55567484Y-93943077D01*
X55567481Y-93943078D01*
X55385086Y-94036015D01*
X55219486Y-94156328D01*
X55219482Y-94156332D01*
X55074731Y-94301084D01*
X53733590Y-95642223D01*
X53672267Y-95675708D01*
X53665309Y-95677015D01*
X53590217Y-95688909D01*
X53350618Y-95766760D01*
X53126151Y-95881132D01*
X52922350Y-96029201D01*
X52922345Y-96029205D01*
X52744205Y-96207345D01*
X52744201Y-96207350D01*
X52596132Y-96411151D01*
X52481760Y-96635616D01*
X52403910Y-96875214D01*
X52364500Y-97124038D01*
X52364500Y-97375961D01*
X52403910Y-97624785D01*
X52481760Y-97864383D01*
X52493797Y-97888005D01*
X52506693Y-97956674D01*
X52480417Y-98021415D01*
X52423311Y-98061672D01*
X52383312Y-98068300D01*
X47926688Y-98068300D01*
X47859649Y-98048615D01*
X47813894Y-97995811D01*
X47803950Y-97926653D01*
X47816203Y-97888005D01*
X47828239Y-97864383D01*
X47828240Y-97864381D01*
X47828241Y-97864379D01*
X47906090Y-97624785D01*
X47945500Y-97375962D01*
X47945500Y-97124038D01*
X47906090Y-96875215D01*
X47828241Y-96635621D01*
X47828239Y-96635618D01*
X47828239Y-96635616D01*
X47751556Y-96485119D01*
X47713870Y-96411155D01*
X47694952Y-96385117D01*
X47565798Y-96207350D01*
X47565794Y-96207345D01*
X47387654Y-96029205D01*
X47387649Y-96029201D01*
X47183848Y-95881132D01*
X47183847Y-95881131D01*
X47183845Y-95881130D01*
X47113747Y-95845413D01*
X46959383Y-95766760D01*
X46719785Y-95688910D01*
X46719779Y-95688909D01*
X46547705Y-95661655D01*
X48092357Y-95661655D01*
X52290797Y-95661655D01*
X52290797Y-92246103D01*
X48092357Y-92246103D01*
X48092357Y-95661655D01*
X46547705Y-95661655D01*
X46470962Y-95649500D01*
X46219038Y-95649500D01*
X46142295Y-95661655D01*
X45970214Y-95688910D01*
X45730616Y-95766760D01*
X45506151Y-95881132D01*
X45302350Y-96029201D01*
X45302345Y-96029205D01*
X45124205Y-96207345D01*
X45124201Y-96207350D01*
X44976132Y-96411151D01*
X44861760Y-96635616D01*
X44783910Y-96875214D01*
X44744500Y-97124038D01*
X44744500Y-97375961D01*
X44783910Y-97624785D01*
X44861760Y-97864383D01*
X44873797Y-97888005D01*
X44886693Y-97956674D01*
X44860417Y-98021415D01*
X44803311Y-98061672D01*
X44763312Y-98068300D01*
X41903846Y-98068300D01*
X41836807Y-98048615D01*
X41816165Y-98031981D01*
X40802775Y-97018590D01*
X40769290Y-96957267D01*
X40767983Y-96950306D01*
X40756090Y-96875214D01*
X40678239Y-96635616D01*
X40601556Y-96485119D01*
X40563870Y-96411155D01*
X40544952Y-96385117D01*
X40415798Y-96207350D01*
X40415794Y-96207345D01*
X40237654Y-96029205D01*
X40237649Y-96029201D01*
X40033848Y-95881132D01*
X40033847Y-95881131D01*
X40033845Y-95881130D01*
X39963747Y-95845413D01*
X39809383Y-95766760D01*
X39569785Y-95688910D01*
X39569779Y-95688909D01*
X39320962Y-95649500D01*
X39069038Y-95649500D01*
X38992295Y-95661655D01*
X38820214Y-95688910D01*
X38580616Y-95766760D01*
X38356151Y-95881132D01*
X38152350Y-96029201D01*
X38152345Y-96029205D01*
X37974205Y-96207345D01*
X37974201Y-96207350D01*
X37826132Y-96411151D01*
X37711760Y-96635616D01*
X37633910Y-96875214D01*
X37594500Y-97124038D01*
X33175500Y-97124038D01*
X33136090Y-96875215D01*
X33058241Y-96635621D01*
X33058239Y-96635618D01*
X33058239Y-96635616D01*
X32981556Y-96485119D01*
X32943870Y-96411155D01*
X32924952Y-96385117D01*
X32795798Y-96207350D01*
X32795794Y-96207345D01*
X32617654Y-96029205D01*
X32617649Y-96029201D01*
X32413848Y-95881132D01*
X32413847Y-95881131D01*
X32413845Y-95881130D01*
X32343747Y-95845413D01*
X32189383Y-95766760D01*
X31949785Y-95688910D01*
X31949779Y-95688909D01*
X31777705Y-95661655D01*
X33322357Y-95661655D01*
X37520797Y-95661655D01*
X37520797Y-92246103D01*
X33322357Y-92246103D01*
X33322357Y-95661655D01*
X31777705Y-95661655D01*
X31700962Y-95649500D01*
X31449038Y-95649500D01*
X31372295Y-95661655D01*
X31200214Y-95688910D01*
X30960616Y-95766760D01*
X30736151Y-95881132D01*
X30532350Y-96029201D01*
X30532345Y-96029205D01*
X30354205Y-96207345D01*
X30354201Y-96207350D01*
X30206132Y-96411151D01*
X30091760Y-96635616D01*
X30013910Y-96875214D01*
X29974500Y-97124038D01*
X20500500Y-97124038D01*
X20500500Y-90085553D01*
X26663227Y-90085553D01*
X30934074Y-90085553D01*
X30934074Y-86669984D01*
X26663227Y-86669984D01*
X26663227Y-90085553D01*
X20500500Y-90085553D01*
X20500500Y-82360553D01*
X42682925Y-82360553D01*
X46955497Y-82360553D01*
X46955497Y-78946103D01*
X42682925Y-78946103D01*
X42682925Y-82360553D01*
X20500500Y-82360553D01*
X20500500Y-71905039D01*
X31584500Y-71905039D01*
X31584500Y-73994960D01*
X31599630Y-74129249D01*
X31599631Y-74129254D01*
X31659211Y-74299523D01*
X31696538Y-74358928D01*
X31755184Y-74452262D01*
X31882738Y-74579816D01*
X32035478Y-74675789D01*
X32205745Y-74735368D01*
X32205750Y-74735369D01*
X32296246Y-74745565D01*
X32340040Y-74750499D01*
X32340043Y-74750500D01*
X32340046Y-74750500D01*
X34129957Y-74750500D01*
X34129958Y-74750499D01*
X34197104Y-74742934D01*
X34264249Y-74735369D01*
X34264252Y-74735368D01*
X34264255Y-74735368D01*
X34434522Y-74675789D01*
X34587262Y-74579816D01*
X34687655Y-74479423D01*
X34748978Y-74445938D01*
X34818670Y-74450922D01*
X34848218Y-74466783D01*
X34909949Y-74511634D01*
X35017350Y-74566358D01*
X35141423Y-74629577D01*
X35141425Y-74629577D01*
X35141428Y-74629579D01*
X35388507Y-74709860D01*
X35520706Y-74730797D01*
X35645098Y-74750500D01*
X35645103Y-74750500D01*
X35904902Y-74750500D01*
X36018298Y-74732539D01*
X36161493Y-74709860D01*
X36408572Y-74629579D01*
X36640051Y-74511634D01*
X36850229Y-74358931D01*
X36957319Y-74251841D01*
X37018642Y-74218356D01*
X37088334Y-74223340D01*
X37132681Y-74251841D01*
X37239771Y-74358931D01*
X37449949Y-74511634D01*
X37583761Y-74579815D01*
X37681423Y-74629577D01*
X37681425Y-74629577D01*
X37681428Y-74629579D01*
X37928507Y-74709860D01*
X38060706Y-74730797D01*
X38185098Y-74750500D01*
X38185103Y-74750500D01*
X38444902Y-74750500D01*
X38558298Y-74732539D01*
X38701493Y-74709860D01*
X38948572Y-74629579D01*
X39180051Y-74511634D01*
X39390229Y-74358931D01*
X39462341Y-74286819D01*
X39523664Y-74253334D01*
X39550022Y-74250500D01*
X40569051Y-74250500D01*
X40569052Y-74250500D01*
X40771235Y-74218477D01*
X40872142Y-74185690D01*
X40965919Y-74155220D01*
X41064381Y-74105051D01*
X41148311Y-74062287D01*
X41313919Y-73941966D01*
X43189066Y-72066819D01*
X43250389Y-72033334D01*
X43276747Y-72030500D01*
X45803858Y-72030500D01*
X45870897Y-72050185D01*
X45916652Y-72102989D01*
X45926596Y-72172147D01*
X45904176Y-72227385D01*
X45756132Y-72431151D01*
X45641760Y-72655616D01*
X45563910Y-72895214D01*
X45563910Y-72895215D01*
X45524500Y-73144038D01*
X45524500Y-73395962D01*
X45563910Y-73644785D01*
X45641760Y-73884383D01*
X45720413Y-74038747D01*
X45754196Y-74105050D01*
X45756132Y-74108848D01*
X45904201Y-74312649D01*
X45904205Y-74312654D01*
X46043870Y-74452319D01*
X46077355Y-74513642D01*
X46072371Y-74583334D01*
X46043870Y-74627681D01*
X45904205Y-74767345D01*
X45904201Y-74767350D01*
X45756132Y-74971151D01*
X45641760Y-75195616D01*
X45563910Y-75435214D01*
X45563910Y-75435215D01*
X45524500Y-75684038D01*
X45524500Y-75935962D01*
X45540564Y-76037385D01*
X45563910Y-76184785D01*
X45641760Y-76424383D01*
X45756132Y-76648848D01*
X45904201Y-76852649D01*
X45904205Y-76852654D01*
X46082345Y-77030794D01*
X46082350Y-77030798D01*
X46260117Y-77159952D01*
X46286155Y-77178870D01*
X46429184Y-77251747D01*
X46510616Y-77293239D01*
X46510618Y-77293239D01*
X46510621Y-77293241D01*
X46750215Y-77371090D01*
X46999038Y-77410500D01*
X46999039Y-77410500D01*
X48050961Y-77410500D01*
X48050962Y-77410500D01*
X48299785Y-77371090D01*
X48539379Y-77293241D01*
X48763845Y-77178870D01*
X48967656Y-77030793D01*
X49145793Y-76852656D01*
X49293870Y-76648845D01*
X49408241Y-76424379D01*
X49486090Y-76184785D01*
X49525500Y-75935962D01*
X49525500Y-75684038D01*
X49486090Y-75435215D01*
X49408241Y-75195621D01*
X49408239Y-75195618D01*
X49408239Y-75195616D01*
X49366747Y-75114184D01*
X49293870Y-74971155D01*
X49252915Y-74914785D01*
X49145798Y-74767350D01*
X49145794Y-74767345D01*
X49006130Y-74627681D01*
X48972645Y-74566358D01*
X48977629Y-74496666D01*
X49006130Y-74452319D01*
X49062761Y-74395688D01*
X49145793Y-74312656D01*
X49293870Y-74108845D01*
X49408241Y-73884379D01*
X49486090Y-73644785D01*
X49525500Y-73395962D01*
X49525500Y-73144038D01*
X49486090Y-72895215D01*
X49408241Y-72655621D01*
X49408239Y-72655618D01*
X49408239Y-72655616D01*
X49366747Y-72574184D01*
X49293870Y-72431155D01*
X49145823Y-72227385D01*
X49145798Y-72227350D01*
X49145794Y-72227345D01*
X49006130Y-72087681D01*
X48972645Y-72026358D01*
X48977629Y-71956666D01*
X49006130Y-71912319D01*
X49044411Y-71874038D01*
X49145793Y-71772656D01*
X49293870Y-71568845D01*
X49408241Y-71344379D01*
X49486090Y-71104785D01*
X49525500Y-70855962D01*
X49525500Y-70604038D01*
X49486090Y-70355215D01*
X49408241Y-70115621D01*
X49408239Y-70115618D01*
X49408239Y-70115616D01*
X49328550Y-69959219D01*
X49293870Y-69891155D01*
X49151296Y-69694918D01*
X49127816Y-69629112D01*
X49143641Y-69561058D01*
X49172948Y-69526181D01*
X49221410Y-69486410D01*
X49352685Y-69326450D01*
X49450232Y-69143954D01*
X49510300Y-68945934D01*
X49525500Y-68791608D01*
X49525500Y-67588392D01*
X49510300Y-67434066D01*
X49450232Y-67236046D01*
X49352685Y-67053550D01*
X49283462Y-66969201D01*
X49221410Y-66893589D01*
X49061452Y-66762317D01*
X49061453Y-66762317D01*
X49061450Y-66762315D01*
X48878954Y-66664768D01*
X48680934Y-66604700D01*
X48680932Y-66604699D01*
X48680934Y-66604699D01*
X48561805Y-66592966D01*
X48526608Y-66589500D01*
X46523392Y-66589500D01*
X46485298Y-66593251D01*
X46369067Y-66604699D01*
X46171043Y-66664769D01*
X46092487Y-66706759D01*
X45988550Y-66762315D01*
X45988548Y-66762316D01*
X45988547Y-66762317D01*
X45828589Y-66893589D01*
X45697317Y-67053547D01*
X45599769Y-67236043D01*
X45539699Y-67434067D01*
X45529820Y-67534379D01*
X45524500Y-67588392D01*
X45524500Y-68791608D01*
X45529502Y-68842398D01*
X45539699Y-68945932D01*
X45599769Y-69143958D01*
X45654872Y-69247047D01*
X45669114Y-69315449D01*
X45644114Y-69380693D01*
X45587809Y-69422064D01*
X45545514Y-69429500D01*
X42789052Y-69429500D01*
X42584348Y-69429500D01*
X42558197Y-69433642D01*
X42382163Y-69461523D01*
X42284823Y-69493150D01*
X42284823Y-69493151D01*
X42187481Y-69524780D01*
X42187479Y-69524780D01*
X42187479Y-69524781D01*
X42129189Y-69554480D01*
X42129190Y-69554481D01*
X42005087Y-69617714D01*
X42005084Y-69617716D01*
X41839478Y-69738036D01*
X39964334Y-71613181D01*
X39903011Y-71646666D01*
X39876653Y-71649500D01*
X39550022Y-71649500D01*
X39482983Y-71629815D01*
X39462341Y-71613181D01*
X39390231Y-71541071D01*
X39390225Y-71541066D01*
X39180054Y-71388368D01*
X39180053Y-71388367D01*
X39180051Y-71388366D01*
X39093722Y-71344379D01*
X38948576Y-71270422D01*
X38701493Y-71190140D01*
X38444902Y-71149500D01*
X38444897Y-71149500D01*
X38185103Y-71149500D01*
X38185098Y-71149500D01*
X37928506Y-71190140D01*
X37681423Y-71270422D01*
X37449945Y-71388368D01*
X37272385Y-71517373D01*
X37206579Y-71540853D01*
X37138525Y-71525027D01*
X37089830Y-71474922D01*
X37075500Y-71417055D01*
X37075500Y-65080553D01*
X45399917Y-65080553D01*
X49669786Y-65080553D01*
X49669786Y-61664984D01*
X45399917Y-61664984D01*
X45399917Y-65080553D01*
X37075500Y-65080553D01*
X37075500Y-65050047D01*
X37095185Y-64983008D01*
X37111819Y-64962366D01*
X41937366Y-60136819D01*
X41998689Y-60103334D01*
X42025047Y-60100500D01*
X42159558Y-60100500D01*
X42159565Y-60100500D01*
X42406565Y-60067982D01*
X42647207Y-60003502D01*
X42877373Y-59908164D01*
X43093127Y-59783599D01*
X43290776Y-59631938D01*
X43466938Y-59455776D01*
X43618599Y-59258127D01*
X43743164Y-59042373D01*
X43838502Y-58812207D01*
X43902982Y-58571565D01*
X43935500Y-58324565D01*
X43935500Y-58190046D01*
X43955185Y-58123008D01*
X43971819Y-58102366D01*
X46740766Y-55333419D01*
X46802089Y-55299934D01*
X46828447Y-55297100D01*
X57312854Y-55297100D01*
X57379893Y-55316785D01*
X57425648Y-55369589D01*
X57435592Y-55438747D01*
X57406567Y-55502303D01*
X57400535Y-55508781D01*
X55398736Y-57510578D01*
X55278416Y-57676184D01*
X55278414Y-57676187D01*
X55257472Y-57717289D01*
X55185481Y-57858576D01*
X55122222Y-58053265D01*
X55090200Y-58255448D01*
X55090200Y-61565553D01*
X55070515Y-61632592D01*
X55017711Y-61678347D01*
X54948553Y-61688291D01*
X54884997Y-61659266D01*
X54878519Y-61653234D01*
X51721818Y-58496533D01*
X51688333Y-58435210D01*
X51685499Y-58408852D01*
X51685499Y-57298395D01*
X51670300Y-57144067D01*
X51670300Y-57144066D01*
X51670300Y-57144065D01*
X51610232Y-56946045D01*
X51512685Y-56763549D01*
X51391924Y-56616401D01*
X51381410Y-56603589D01*
X51221454Y-56472317D01*
X51221452Y-56472316D01*
X51221451Y-56472315D01*
X51038955Y-56374768D01*
X50840935Y-56314700D01*
X50840933Y-56314699D01*
X50840935Y-56314699D01*
X50730222Y-56303795D01*
X50686609Y-56299500D01*
X50686605Y-56299500D01*
X48883395Y-56299500D01*
X48729067Y-56314699D01*
X48531042Y-56374769D01*
X48348545Y-56472317D01*
X48188589Y-56603589D01*
X48057317Y-56763545D01*
X47959769Y-56946042D01*
X47899699Y-57144066D01*
X47884500Y-57298394D01*
X47884500Y-59101604D01*
X47899699Y-59255932D01*
X47899700Y-59255935D01*
X47959768Y-59453955D01*
X48054903Y-59631939D01*
X48057317Y-59636454D01*
X48188589Y-59796410D01*
X48348545Y-59927682D01*
X48348549Y-59927685D01*
X48531045Y-60025232D01*
X48729065Y-60085300D01*
X48729064Y-60085300D01*
X48739968Y-60086373D01*
X48883391Y-60100500D01*
X49596052Y-60100499D01*
X49663091Y-60120183D01*
X49683733Y-60136818D01*
X54771008Y-65224092D01*
X54771022Y-65224107D01*
X54774133Y-65227218D01*
X54774134Y-65227219D01*
X54918881Y-65371966D01*
X54918884Y-65371968D01*
X54918888Y-65371972D01*
X54988650Y-65422656D01*
X55084490Y-65492287D01*
X55191891Y-65547011D01*
X55266881Y-65585221D01*
X55266884Y-65585222D01*
X55311798Y-65599815D01*
X55461566Y-65648477D01*
X55663748Y-65680500D01*
X55663749Y-65680500D01*
X55868452Y-65680500D01*
X61359206Y-65680500D01*
X61383019Y-65687492D01*
X61407672Y-65690364D01*
X61421680Y-65698844D01*
X61426245Y-65700185D01*
X61437864Y-65708642D01*
X61447043Y-65716174D01*
X61486382Y-65773917D01*
X61488257Y-65843761D01*
X61468703Y-65884917D01*
X61326132Y-66081150D01*
X61211760Y-66305616D01*
X61133910Y-66545214D01*
X61114974Y-66664769D01*
X61094500Y-66794038D01*
X61094500Y-67045962D01*
X61124606Y-67236043D01*
X61133910Y-67294785D01*
X61211760Y-67534383D01*
X61326132Y-67758848D01*
X61474176Y-67962615D01*
X61497656Y-68028421D01*
X61481830Y-68096475D01*
X61431724Y-68145170D01*
X61373858Y-68159500D01*
X60695651Y-68159500D01*
X60490948Y-68159500D01*
X60444079Y-68166923D01*
X60288768Y-68191522D01*
X60288767Y-68191522D01*
X60199583Y-68220499D01*
X60199584Y-68220500D01*
X60094076Y-68254781D01*
X60035790Y-68284481D01*
X59911687Y-68347714D01*
X59911684Y-68347716D01*
X59746078Y-68468036D01*
X58820934Y-69393181D01*
X58759611Y-69426666D01*
X58733253Y-69429500D01*
X56866142Y-69429500D01*
X56799103Y-69409815D01*
X56753348Y-69357011D01*
X56743404Y-69287853D01*
X56765824Y-69232615D01*
X56872915Y-69085215D01*
X56913870Y-69028845D01*
X57028241Y-68804379D01*
X57106090Y-68564785D01*
X57145500Y-68315962D01*
X57145500Y-68064038D01*
X57106090Y-67815215D01*
X57028241Y-67575621D01*
X57028239Y-67575618D01*
X57028239Y-67575616D01*
X56986747Y-67494184D01*
X56913870Y-67351155D01*
X56830239Y-67236046D01*
X56765798Y-67147350D01*
X56765794Y-67147345D01*
X56587654Y-66969205D01*
X56587649Y-66969201D01*
X56383848Y-66821132D01*
X56383847Y-66821131D01*
X56383845Y-66821130D01*
X56268418Y-66762317D01*
X56159383Y-66706760D01*
X55919785Y-66628910D01*
X55766930Y-66604700D01*
X55670962Y-66589500D01*
X54619038Y-66589500D01*
X54523076Y-66604699D01*
X54370214Y-66628910D01*
X54130616Y-66706760D01*
X53906151Y-66821132D01*
X53702350Y-66969201D01*
X53702345Y-66969205D01*
X53524205Y-67147345D01*
X53524201Y-67147350D01*
X53376132Y-67351151D01*
X53261760Y-67575616D01*
X53183910Y-67815214D01*
X53183910Y-67815215D01*
X53144500Y-68064038D01*
X53144500Y-68315962D01*
X53160564Y-68417385D01*
X53183910Y-68564785D01*
X53261760Y-68804383D01*
X53376132Y-69028848D01*
X53524201Y-69232649D01*
X53524205Y-69232654D01*
X53663870Y-69372319D01*
X53697355Y-69433642D01*
X53692371Y-69503334D01*
X53663870Y-69547681D01*
X53524205Y-69687345D01*
X53524201Y-69687350D01*
X53376132Y-69891151D01*
X53261760Y-70115616D01*
X53183910Y-70355214D01*
X53183910Y-70355215D01*
X53144500Y-70604038D01*
X53144500Y-70855962D01*
X53160564Y-70957385D01*
X53183910Y-71104785D01*
X53261760Y-71344383D01*
X53298789Y-71417055D01*
X53361978Y-71541071D01*
X53376132Y-71568848D01*
X53524201Y-71772649D01*
X53524205Y-71772654D01*
X53663870Y-71912319D01*
X53697355Y-71973642D01*
X53692371Y-72043334D01*
X53663870Y-72087681D01*
X53524205Y-72227345D01*
X53524201Y-72227350D01*
X53376132Y-72431151D01*
X53261760Y-72655616D01*
X53183910Y-72895214D01*
X53183910Y-72895215D01*
X53144500Y-73144038D01*
X53144500Y-73395962D01*
X53183910Y-73644785D01*
X53261760Y-73884383D01*
X53340413Y-74038747D01*
X53374196Y-74105050D01*
X53376132Y-74108848D01*
X53524201Y-74312649D01*
X53524205Y-74312654D01*
X53663870Y-74452319D01*
X53697355Y-74513642D01*
X53692371Y-74583334D01*
X53663870Y-74627681D01*
X53524205Y-74767345D01*
X53524201Y-74767350D01*
X53376132Y-74971151D01*
X53261760Y-75195616D01*
X53183910Y-75435214D01*
X53183910Y-75435215D01*
X53144500Y-75684038D01*
X53144500Y-75935962D01*
X53160564Y-76037385D01*
X53183910Y-76184785D01*
X53261760Y-76424383D01*
X53376132Y-76648848D01*
X53524201Y-76852649D01*
X53524205Y-76852654D01*
X53702345Y-77030794D01*
X53702350Y-77030798D01*
X53880117Y-77159952D01*
X53906155Y-77178870D01*
X54049184Y-77251747D01*
X54130616Y-77293239D01*
X54130618Y-77293239D01*
X54130621Y-77293241D01*
X54370215Y-77371090D01*
X54619038Y-77410500D01*
X54619039Y-77410500D01*
X55670961Y-77410500D01*
X55670962Y-77410500D01*
X55919785Y-77371090D01*
X56159379Y-77293241D01*
X56383845Y-77178870D01*
X56587656Y-77030793D01*
X56765793Y-76852656D01*
X56913870Y-76648845D01*
X57028241Y-76424379D01*
X57106090Y-76184785D01*
X57145500Y-75935962D01*
X57145500Y-75684038D01*
X57106090Y-75435215D01*
X57028241Y-75195621D01*
X57028239Y-75195618D01*
X57028239Y-75195616D01*
X56986747Y-75114184D01*
X56913870Y-74971155D01*
X56872915Y-74914785D01*
X56765798Y-74767350D01*
X56765794Y-74767345D01*
X56626130Y-74627681D01*
X56592645Y-74566358D01*
X56597629Y-74496666D01*
X56626130Y-74452319D01*
X56682761Y-74395688D01*
X56765793Y-74312656D01*
X56913870Y-74108845D01*
X57028241Y-73884379D01*
X57106090Y-73644785D01*
X57145500Y-73395962D01*
X57145500Y-73144038D01*
X57106090Y-72895215D01*
X57028241Y-72655621D01*
X57028239Y-72655618D01*
X57028239Y-72655616D01*
X56986747Y-72574184D01*
X56913870Y-72431155D01*
X56872915Y-72374785D01*
X56765824Y-72227385D01*
X56742344Y-72161579D01*
X56758170Y-72093525D01*
X56808276Y-72044830D01*
X56866142Y-72030500D01*
X59425651Y-72030500D01*
X59425652Y-72030500D01*
X59627835Y-71998477D01*
X59725176Y-71966848D01*
X59822519Y-71935220D01*
X59913714Y-71888753D01*
X60004911Y-71842287D01*
X60170519Y-71721966D01*
X61095666Y-70796819D01*
X61122593Y-70782115D01*
X61148412Y-70765523D01*
X61154612Y-70764631D01*
X61156989Y-70763334D01*
X61183347Y-70760500D01*
X61373858Y-70760500D01*
X61440897Y-70780185D01*
X61486652Y-70832989D01*
X61496596Y-70902147D01*
X61474176Y-70957385D01*
X61326132Y-71161151D01*
X61211760Y-71385616D01*
X61133910Y-71625214D01*
X61118586Y-71721966D01*
X61094500Y-71874038D01*
X61094500Y-72125962D01*
X61110564Y-72227385D01*
X61133910Y-72374785D01*
X61211760Y-72614383D01*
X61326132Y-72838848D01*
X61474201Y-73042649D01*
X61474205Y-73042654D01*
X61613870Y-73182319D01*
X61647355Y-73243642D01*
X61642371Y-73313334D01*
X61613870Y-73357681D01*
X61474205Y-73497345D01*
X61474201Y-73497350D01*
X61326132Y-73701151D01*
X61211760Y-73925616D01*
X61133910Y-74165214D01*
X61110559Y-74312649D01*
X61094500Y-74414038D01*
X61094500Y-74665962D01*
X61133910Y-74914785D01*
X61211760Y-75154383D01*
X61326132Y-75378848D01*
X61474201Y-75582649D01*
X61474205Y-75582654D01*
X61613870Y-75722319D01*
X61647355Y-75783642D01*
X61642371Y-75853334D01*
X61613870Y-75897681D01*
X61474205Y-76037345D01*
X61474201Y-76037350D01*
X61326132Y-76241151D01*
X61211760Y-76465616D01*
X61133910Y-76705214D01*
X61133910Y-76705215D01*
X61094500Y-76954038D01*
X61094500Y-77205962D01*
X61108324Y-77293241D01*
X61133910Y-77454785D01*
X61211760Y-77694383D01*
X61326132Y-77918848D01*
X61474201Y-78122649D01*
X61474205Y-78122654D01*
X61613870Y-78262319D01*
X61647355Y-78323642D01*
X61642371Y-78393334D01*
X61613870Y-78437681D01*
X61474205Y-78577345D01*
X61474201Y-78577350D01*
X61326132Y-78781151D01*
X61211760Y-79005616D01*
X61133910Y-79245214D01*
X61094500Y-79494038D01*
X61094500Y-79745961D01*
X61133910Y-79994785D01*
X61211760Y-80234383D01*
X61326132Y-80458848D01*
X61474201Y-80662649D01*
X61474205Y-80662654D01*
X61652345Y-80840794D01*
X61652350Y-80840798D01*
X61830117Y-80969952D01*
X61856155Y-80988870D01*
X61999184Y-81061747D01*
X62080616Y-81103239D01*
X62080618Y-81103239D01*
X62080621Y-81103241D01*
X62320215Y-81181090D01*
X62569038Y-81220500D01*
X62750853Y-81220500D01*
X62772098Y-81226738D01*
X62794187Y-81228318D01*
X62804970Y-81236390D01*
X62817892Y-81240185D01*
X62832391Y-81256918D01*
X62850120Y-81270190D01*
X62854827Y-81282810D01*
X62863647Y-81292989D01*
X62866798Y-81314906D01*
X62874537Y-81335654D01*
X62871674Y-81348814D01*
X62873591Y-81362147D01*
X62864391Y-81382290D01*
X62859685Y-81403927D01*
X62846416Y-81421652D01*
X62844566Y-81425703D01*
X62838534Y-81432181D01*
X62744834Y-81525881D01*
X62683511Y-81559366D01*
X62657153Y-81562200D01*
X50804648Y-81562200D01*
X50780329Y-81566051D01*
X50602465Y-81594222D01*
X50407776Y-81657481D01*
X50269280Y-81728049D01*
X50225390Y-81750413D01*
X50225389Y-81750414D01*
X50217491Y-81756152D01*
X50217490Y-81756151D01*
X50217490Y-81756152D01*
X50059786Y-81870728D01*
X50059782Y-81870732D01*
X45088290Y-86842223D01*
X45026967Y-86875708D01*
X45020009Y-86877015D01*
X44944917Y-86888909D01*
X44705318Y-86966760D01*
X44480851Y-87081132D01*
X44277050Y-87229201D01*
X44277045Y-87229205D01*
X44098905Y-87407345D01*
X44098901Y-87407350D01*
X43950832Y-87611151D01*
X43836460Y-87835618D01*
X43758609Y-88075217D01*
X43746715Y-88150309D01*
X43716785Y-88213443D01*
X43711923Y-88218590D01*
X42679634Y-89250881D01*
X42618311Y-89284366D01*
X42591953Y-89287200D01*
X38291758Y-89287200D01*
X38224719Y-89267515D01*
X38178964Y-89214711D01*
X38169020Y-89145553D01*
X38181273Y-89106905D01*
X38202939Y-89064383D01*
X38202939Y-89064382D01*
X38202941Y-89064379D01*
X38280790Y-88824785D01*
X38320200Y-88575962D01*
X38320200Y-88324038D01*
X38280790Y-88075215D01*
X38202941Y-87835621D01*
X38202939Y-87835618D01*
X38202939Y-87835616D01*
X38132459Y-87697292D01*
X38088570Y-87611155D01*
X38004939Y-87496046D01*
X37940498Y-87407350D01*
X37940494Y-87407345D01*
X37762354Y-87229205D01*
X37762349Y-87229201D01*
X37558548Y-87081132D01*
X37558547Y-87081131D01*
X37558545Y-87081130D01*
X37443118Y-87022317D01*
X37334083Y-86966760D01*
X37094485Y-86888910D01*
X37094479Y-86888909D01*
X36845662Y-86849500D01*
X36593738Y-86849500D01*
X36497776Y-86864699D01*
X36344914Y-86888910D01*
X36105316Y-86966760D01*
X35880851Y-87081132D01*
X35677050Y-87229201D01*
X35677045Y-87229205D01*
X35498905Y-87407345D01*
X35498901Y-87407350D01*
X35350832Y-87611151D01*
X35236460Y-87835616D01*
X35158609Y-88075214D01*
X35131801Y-88244479D01*
X35126408Y-88255855D01*
X35125510Y-88268415D01*
X35111725Y-88286829D01*
X35101872Y-88307614D01*
X35091182Y-88314269D01*
X35083638Y-88324348D01*
X35062087Y-88332385D01*
X35042560Y-88344545D01*
X35029970Y-88344365D01*
X35018174Y-88348765D01*
X34995697Y-88343875D01*
X34972698Y-88343547D01*
X34960571Y-88336234D01*
X34949901Y-88333913D01*
X34921647Y-88312762D01*
X34856519Y-88247634D01*
X34823034Y-88186311D01*
X34820200Y-88159953D01*
X34820200Y-87848395D01*
X34818941Y-87835616D01*
X34805000Y-87694066D01*
X34744932Y-87496046D01*
X34647385Y-87313550D01*
X34578162Y-87229201D01*
X34516110Y-87153589D01*
X34356152Y-87022317D01*
X34356153Y-87022317D01*
X34356150Y-87022315D01*
X34173654Y-86924768D01*
X33975634Y-86864700D01*
X33975632Y-86864699D01*
X33975634Y-86864699D01*
X33856505Y-86852966D01*
X33821308Y-86849500D01*
X32618092Y-86849500D01*
X32579998Y-86853251D01*
X32463767Y-86864699D01*
X32265743Y-86924769D01*
X32187187Y-86966759D01*
X32083250Y-87022315D01*
X32083248Y-87022316D01*
X32083247Y-87022317D01*
X31923289Y-87153589D01*
X31792017Y-87313547D01*
X31694469Y-87496043D01*
X31634399Y-87694067D01*
X31624100Y-87798640D01*
X31619200Y-87848392D01*
X31619200Y-89051608D01*
X31624202Y-89102398D01*
X31634399Y-89205932D01*
X31634400Y-89205934D01*
X31694468Y-89403954D01*
X31792015Y-89586450D01*
X31792017Y-89586452D01*
X31923289Y-89746410D01*
X32011580Y-89818867D01*
X32083250Y-89877685D01*
X32265746Y-89975232D01*
X32463766Y-90035300D01*
X32463765Y-90035300D01*
X32502347Y-90039100D01*
X32618092Y-90050500D01*
X32929653Y-90050500D01*
X32996692Y-90070185D01*
X33017334Y-90086819D01*
X34510181Y-91579666D01*
X34675789Y-91699987D01*
X34766985Y-91746453D01*
X34858176Y-91792918D01*
X34858178Y-91792918D01*
X34858181Y-91792920D01*
X34955522Y-91824548D01*
X35052865Y-91856177D01*
X35153957Y-91872188D01*
X35255048Y-91888200D01*
X35255049Y-91888200D01*
X43284351Y-91888200D01*
X43284352Y-91888200D01*
X43486535Y-91856177D01*
X43583876Y-91824548D01*
X43681219Y-91792920D01*
X43772414Y-91746453D01*
X43863611Y-91699987D01*
X44029219Y-91579666D01*
X45551110Y-90057773D01*
X45612431Y-90024290D01*
X45619345Y-90022990D01*
X45694485Y-90011090D01*
X45934079Y-89933241D01*
X46158545Y-89818870D01*
X46362356Y-89670793D01*
X46540493Y-89492656D01*
X46688570Y-89288845D01*
X46802941Y-89064379D01*
X46880790Y-88824785D01*
X46892684Y-88749687D01*
X46922611Y-88686557D01*
X46927457Y-88681426D01*
X47284845Y-88324038D01*
X48719200Y-88324038D01*
X48719200Y-88575961D01*
X48758610Y-88824785D01*
X48836460Y-89064383D01*
X48877819Y-89145553D01*
X48931486Y-89250881D01*
X48950832Y-89288848D01*
X49098901Y-89492649D01*
X49098905Y-89492654D01*
X49277045Y-89670794D01*
X49277050Y-89670798D01*
X49381122Y-89746410D01*
X49480855Y-89818870D01*
X49596286Y-89877685D01*
X49705316Y-89933239D01*
X49705318Y-89933239D01*
X49705321Y-89933241D01*
X49944915Y-90011090D01*
X50193738Y-90050500D01*
X50193739Y-90050500D01*
X50445661Y-90050500D01*
X50445662Y-90050500D01*
X50694485Y-90011090D01*
X50934079Y-89933241D01*
X51158545Y-89818870D01*
X51362356Y-89670793D01*
X51540493Y-89492656D01*
X51688570Y-89288845D01*
X51802941Y-89064379D01*
X51880790Y-88824785D01*
X51920200Y-88575962D01*
X51920200Y-88324038D01*
X55869200Y-88324038D01*
X55869200Y-88575961D01*
X55908610Y-88824785D01*
X55986460Y-89064383D01*
X56027819Y-89145553D01*
X56081486Y-89250881D01*
X56100832Y-89288848D01*
X56248901Y-89492649D01*
X56248905Y-89492654D01*
X56427045Y-89670794D01*
X56427050Y-89670798D01*
X56531122Y-89746410D01*
X56630855Y-89818870D01*
X56746286Y-89877685D01*
X56855316Y-89933239D01*
X56855318Y-89933239D01*
X56855321Y-89933241D01*
X57094915Y-90011090D01*
X57343738Y-90050500D01*
X57343739Y-90050500D01*
X57595661Y-90050500D01*
X57595662Y-90050500D01*
X57844485Y-90011090D01*
X58084079Y-89933241D01*
X58308545Y-89818870D01*
X58512356Y-89670793D01*
X58690493Y-89492656D01*
X58838570Y-89288845D01*
X58952941Y-89064379D01*
X59030790Y-88824785D01*
X59070200Y-88575962D01*
X59070200Y-88485655D01*
X59089885Y-88418616D01*
X59142689Y-88372861D01*
X59194200Y-88361655D01*
X63365200Y-88361655D01*
X63432239Y-88381340D01*
X63477994Y-88434144D01*
X63489200Y-88485655D01*
X63489200Y-88575961D01*
X63528610Y-88824785D01*
X63606460Y-89064383D01*
X63647819Y-89145553D01*
X63701486Y-89250881D01*
X63720832Y-89288848D01*
X63868901Y-89492649D01*
X63868905Y-89492654D01*
X64047045Y-89670794D01*
X64047050Y-89670798D01*
X64151122Y-89746410D01*
X64250855Y-89818870D01*
X64366286Y-89877685D01*
X64475316Y-89933239D01*
X64475318Y-89933239D01*
X64475321Y-89933241D01*
X64714915Y-90011090D01*
X64963738Y-90050500D01*
X64963739Y-90050500D01*
X65215661Y-90050500D01*
X65215662Y-90050500D01*
X65464485Y-90011090D01*
X65704079Y-89933241D01*
X65928545Y-89818870D01*
X66132356Y-89670793D01*
X66310493Y-89492656D01*
X66458570Y-89288845D01*
X66572941Y-89064379D01*
X66650790Y-88824785D01*
X66690200Y-88575962D01*
X66690200Y-88324038D01*
X66650790Y-88075215D01*
X66572941Y-87835621D01*
X66572939Y-87835618D01*
X66572939Y-87835616D01*
X66502459Y-87697292D01*
X66458570Y-87611155D01*
X66374939Y-87496046D01*
X66310498Y-87407350D01*
X66310494Y-87407345D01*
X66132354Y-87229205D01*
X66132349Y-87229201D01*
X65928548Y-87081132D01*
X65928547Y-87081131D01*
X65928545Y-87081130D01*
X65813118Y-87022317D01*
X65704083Y-86966760D01*
X65464485Y-86888910D01*
X65464479Y-86888909D01*
X65215662Y-86849500D01*
X64963738Y-86849500D01*
X64867776Y-86864699D01*
X64714914Y-86888910D01*
X64475316Y-86966760D01*
X64250851Y-87081132D01*
X64047050Y-87229201D01*
X64047045Y-87229205D01*
X63868905Y-87407345D01*
X63868901Y-87407350D01*
X63720832Y-87611151D01*
X63648257Y-87753587D01*
X63600282Y-87804383D01*
X63532461Y-87821178D01*
X63466326Y-87798640D01*
X63422875Y-87743925D01*
X63413772Y-87697292D01*
X63413772Y-84944984D01*
X59217057Y-84944984D01*
X59217057Y-87865581D01*
X59197372Y-87932620D01*
X59144568Y-87978375D01*
X59075410Y-87988319D01*
X59011854Y-87959294D01*
X58975126Y-87903900D01*
X58952941Y-87835621D01*
X58952939Y-87835618D01*
X58952939Y-87835616D01*
X58882459Y-87697292D01*
X58838570Y-87611155D01*
X58754939Y-87496046D01*
X58690498Y-87407350D01*
X58690494Y-87407345D01*
X58512354Y-87229205D01*
X58512349Y-87229201D01*
X58308548Y-87081132D01*
X58308547Y-87081131D01*
X58308545Y-87081130D01*
X58193118Y-87022317D01*
X58084083Y-86966760D01*
X57844485Y-86888910D01*
X57844479Y-86888909D01*
X57595662Y-86849500D01*
X57343738Y-86849500D01*
X57247776Y-86864699D01*
X57094914Y-86888910D01*
X56855316Y-86966760D01*
X56630851Y-87081132D01*
X56427050Y-87229201D01*
X56427045Y-87229205D01*
X56248905Y-87407345D01*
X56248901Y-87407350D01*
X56100832Y-87611151D01*
X55986460Y-87835616D01*
X55908610Y-88075214D01*
X55869200Y-88324038D01*
X51920200Y-88324038D01*
X51880790Y-88075215D01*
X51802941Y-87835621D01*
X51802939Y-87835618D01*
X51802939Y-87835616D01*
X51732459Y-87697292D01*
X51688570Y-87611155D01*
X51604939Y-87496046D01*
X51540498Y-87407350D01*
X51540494Y-87407345D01*
X51362354Y-87229205D01*
X51362349Y-87229201D01*
X51158548Y-87081132D01*
X51158547Y-87081131D01*
X51158545Y-87081130D01*
X51043118Y-87022317D01*
X50934083Y-86966760D01*
X50694485Y-86888910D01*
X50694479Y-86888909D01*
X50445662Y-86849500D01*
X50193738Y-86849500D01*
X50097776Y-86864699D01*
X49944914Y-86888910D01*
X49705316Y-86966760D01*
X49480851Y-87081132D01*
X49277050Y-87229201D01*
X49277045Y-87229205D01*
X49098905Y-87407345D01*
X49098901Y-87407350D01*
X48950832Y-87611151D01*
X48836460Y-87835616D01*
X48758610Y-88075214D01*
X48719200Y-88324038D01*
X47284845Y-88324038D01*
X51409366Y-84199519D01*
X51470689Y-84166034D01*
X51497047Y-84163200D01*
X63349551Y-84163200D01*
X63349552Y-84163200D01*
X63551735Y-84131177D01*
X63649076Y-84099548D01*
X63746419Y-84067920D01*
X63837614Y-84021453D01*
X63928811Y-83974987D01*
X64094419Y-83854666D01*
X68502819Y-79446264D01*
X68564142Y-79412780D01*
X68633834Y-79417764D01*
X68689767Y-79459636D01*
X68714184Y-79525100D01*
X68714500Y-79533946D01*
X68714500Y-79745961D01*
X68753910Y-79994785D01*
X68831760Y-80234383D01*
X68946132Y-80458848D01*
X69094201Y-80662649D01*
X69094205Y-80662654D01*
X69272345Y-80840794D01*
X69272350Y-80840798D01*
X69450117Y-80969952D01*
X69476155Y-80988870D01*
X69619184Y-81061747D01*
X69700616Y-81103239D01*
X69700618Y-81103239D01*
X69700621Y-81103241D01*
X69940215Y-81181090D01*
X70189038Y-81220500D01*
X70189039Y-81220500D01*
X71240961Y-81220500D01*
X71240962Y-81220500D01*
X71489785Y-81181090D01*
X71729379Y-81103241D01*
X71953845Y-80988870D01*
X72157656Y-80840793D01*
X72335793Y-80662656D01*
X72483870Y-80458845D01*
X72598241Y-80234379D01*
X72676090Y-79994785D01*
X72715500Y-79745962D01*
X72715500Y-79494038D01*
X72676090Y-79245215D01*
X72598241Y-79005621D01*
X72598239Y-79005618D01*
X72598239Y-79005616D01*
X72556747Y-78924184D01*
X72483870Y-78781155D01*
X72464952Y-78755117D01*
X72335798Y-78577350D01*
X72335794Y-78577345D01*
X72196130Y-78437681D01*
X72162645Y-78376358D01*
X72167629Y-78306666D01*
X72196130Y-78262319D01*
X72335793Y-78122656D01*
X72483870Y-77918845D01*
X72598241Y-77694379D01*
X72676090Y-77454785D01*
X72715500Y-77205962D01*
X72715500Y-76954038D01*
X72676090Y-76705215D01*
X72598241Y-76465621D01*
X72598239Y-76465618D01*
X72598239Y-76465616D01*
X72556747Y-76384184D01*
X72483870Y-76241155D01*
X72442915Y-76184785D01*
X72335798Y-76037350D01*
X72335794Y-76037345D01*
X72196130Y-75897681D01*
X72162645Y-75836358D01*
X72167629Y-75766666D01*
X72196130Y-75722319D01*
X72246938Y-75671511D01*
X73864446Y-75671511D01*
X77278896Y-75671511D01*
X77278896Y-71399917D01*
X73864446Y-71399917D01*
X73864446Y-75671511D01*
X72246938Y-75671511D01*
X72335793Y-75582656D01*
X72483870Y-75378845D01*
X72598241Y-75154379D01*
X72676090Y-74914785D01*
X72715500Y-74665962D01*
X72715500Y-74414038D01*
X72676090Y-74165215D01*
X72598241Y-73925621D01*
X72598239Y-73925618D01*
X72598239Y-73925616D01*
X72556747Y-73844184D01*
X72483870Y-73701155D01*
X72442915Y-73644785D01*
X72335798Y-73497350D01*
X72335794Y-73497345D01*
X72196130Y-73357681D01*
X72162645Y-73296358D01*
X72167629Y-73226666D01*
X72196130Y-73182319D01*
X72234411Y-73144038D01*
X72335793Y-73042656D01*
X72483870Y-72838845D01*
X72598241Y-72614379D01*
X72676090Y-72374785D01*
X72715500Y-72125962D01*
X72715500Y-71874038D01*
X72676090Y-71625215D01*
X72676089Y-71625211D01*
X72676089Y-71625210D01*
X72598648Y-71386873D01*
X72598240Y-71385619D01*
X72539544Y-71270422D01*
X72483870Y-71161155D01*
X72473227Y-71146506D01*
X72335824Y-70957385D01*
X72312344Y-70891579D01*
X72328170Y-70823525D01*
X72378276Y-70774830D01*
X72436142Y-70760500D01*
X73319051Y-70760500D01*
X73319052Y-70760500D01*
X73521234Y-70728477D01*
X73715919Y-70665220D01*
X73898310Y-70572287D01*
X73994159Y-70502649D01*
X74063913Y-70451971D01*
X74063915Y-70451968D01*
X74063919Y-70451966D01*
X74208666Y-70307219D01*
X74208668Y-70307215D01*
X74208671Y-70307213D01*
X74261432Y-70234590D01*
X74328987Y-70141610D01*
X74421920Y-69959219D01*
X74485177Y-69764534D01*
X74517200Y-69562352D01*
X74517200Y-63372148D01*
X74513330Y-63347713D01*
X74485177Y-63169965D01*
X74450229Y-63062408D01*
X74421920Y-62975281D01*
X74372834Y-62878945D01*
X74328987Y-62792889D01*
X74208666Y-62627281D01*
X66387719Y-54806334D01*
X66222111Y-54686013D01*
X66130914Y-54639546D01*
X66039723Y-54593081D01*
X65993015Y-54577904D01*
X65942376Y-54561451D01*
X65918503Y-54553694D01*
X65845035Y-54529822D01*
X65670495Y-54502178D01*
X65642852Y-54497800D01*
X65642851Y-54497800D01*
X64680747Y-54497800D01*
X64613708Y-54478115D01*
X64567953Y-54425311D01*
X64558009Y-54356153D01*
X64587034Y-54292597D01*
X64593066Y-54286119D01*
X64690944Y-54188239D01*
X64949960Y-53929223D01*
X75249500Y-53929223D01*
X75249500Y-54230776D01*
X75249501Y-54230793D01*
X75288861Y-54529766D01*
X75366913Y-54821060D01*
X75482314Y-55099661D01*
X75482318Y-55099671D01*
X75633099Y-55360831D01*
X75816679Y-55600078D01*
X75816685Y-55600085D01*
X76029914Y-55813314D01*
X76029921Y-55813320D01*
X76269168Y-55996900D01*
X76530328Y-56147681D01*
X76530329Y-56147681D01*
X76530332Y-56147683D01*
X76716072Y-56224619D01*
X76808939Y-56263086D01*
X76808940Y-56263086D01*
X76808942Y-56263087D01*
X77100232Y-56341138D01*
X77399217Y-56380500D01*
X77399224Y-56380500D01*
X77700776Y-56380500D01*
X77700783Y-56380500D01*
X77999768Y-56341138D01*
X78291058Y-56263087D01*
X78569668Y-56147683D01*
X78830832Y-55996900D01*
X79070080Y-55813319D01*
X79283319Y-55600080D01*
X79466900Y-55360832D01*
X79617683Y-55099668D01*
X79733087Y-54821058D01*
X79811138Y-54529768D01*
X79850500Y-54230783D01*
X79850500Y-53929217D01*
X79811138Y-53630232D01*
X79733087Y-53338942D01*
X79705905Y-53273320D01*
X79617685Y-53060338D01*
X79617681Y-53060328D01*
X79466900Y-52799168D01*
X79283320Y-52559921D01*
X79283314Y-52559914D01*
X79070085Y-52346685D01*
X79070078Y-52346679D01*
X78830831Y-52163099D01*
X78569671Y-52012318D01*
X78569661Y-52012314D01*
X78291060Y-51896913D01*
X77999766Y-51818861D01*
X77700793Y-51779501D01*
X77700788Y-51779500D01*
X77700783Y-51779500D01*
X77399217Y-51779500D01*
X77399211Y-51779500D01*
X77399206Y-51779501D01*
X77100233Y-51818861D01*
X76808939Y-51896913D01*
X76530338Y-52012314D01*
X76530328Y-52012318D01*
X76269168Y-52163099D01*
X76029921Y-52346679D01*
X76029914Y-52346685D01*
X75816685Y-52559914D01*
X75816679Y-52559921D01*
X75633099Y-52799168D01*
X75482318Y-53060328D01*
X75482314Y-53060338D01*
X75366913Y-53338939D01*
X75288861Y-53630233D01*
X75249501Y-53929206D01*
X75249500Y-53929223D01*
X64949960Y-53929223D01*
X65031573Y-53847610D01*
X65092894Y-53814127D01*
X65135433Y-53812354D01*
X65336813Y-53838866D01*
X65349201Y-53840498D01*
X65349217Y-53840500D01*
X65349224Y-53840500D01*
X65650776Y-53840500D01*
X65650783Y-53840500D01*
X65949768Y-53801138D01*
X66241058Y-53723087D01*
X66519668Y-53607683D01*
X66780832Y-53456900D01*
X67020080Y-53273319D01*
X67233319Y-53060080D01*
X67416900Y-52820832D01*
X67462867Y-52741215D01*
X69591171Y-52741215D01*
X73005015Y-52741215D01*
X73005015Y-48849223D01*
X75249500Y-48849223D01*
X75249500Y-49150776D01*
X75249501Y-49150793D01*
X75288861Y-49449766D01*
X75366913Y-49741060D01*
X75482314Y-50019661D01*
X75482318Y-50019671D01*
X75633099Y-50280831D01*
X75816679Y-50520078D01*
X75816685Y-50520085D01*
X76029914Y-50733314D01*
X76029921Y-50733320D01*
X76269168Y-50916900D01*
X76530328Y-51067681D01*
X76530329Y-51067681D01*
X76530332Y-51067683D01*
X76584773Y-51090233D01*
X76808939Y-51183086D01*
X76808940Y-51183086D01*
X76808942Y-51183087D01*
X77100232Y-51261138D01*
X77399217Y-51300500D01*
X77399224Y-51300500D01*
X77700776Y-51300500D01*
X77700783Y-51300500D01*
X77999768Y-51261138D01*
X78291058Y-51183087D01*
X78569668Y-51067683D01*
X78760987Y-50957225D01*
X81639446Y-50957225D01*
X85053896Y-50957225D01*
X85053896Y-46973071D01*
X81639446Y-46973071D01*
X81639446Y-50957225D01*
X78760987Y-50957225D01*
X78830832Y-50916900D01*
X79070080Y-50733319D01*
X79283319Y-50520080D01*
X79466900Y-50280832D01*
X79617683Y-50019668D01*
X79733087Y-49741058D01*
X79811138Y-49449768D01*
X79850500Y-49150783D01*
X79850500Y-48849217D01*
X79811138Y-48550232D01*
X79733087Y-48258942D01*
X79617683Y-47980332D01*
X79562354Y-47884500D01*
X79466900Y-47719168D01*
X79283320Y-47479921D01*
X79283314Y-47479914D01*
X79070085Y-47266685D01*
X79070078Y-47266679D01*
X78830831Y-47083099D01*
X78737295Y-47029096D01*
X78569671Y-46932318D01*
X78569661Y-46932314D01*
X78291060Y-46816913D01*
X77999766Y-46738861D01*
X77700793Y-46699501D01*
X77700788Y-46699500D01*
X77700783Y-46699500D01*
X77399217Y-46699500D01*
X77399211Y-46699500D01*
X77399206Y-46699501D01*
X77100233Y-46738861D01*
X76808939Y-46816913D01*
X76530338Y-46932314D01*
X76530328Y-46932318D01*
X76269168Y-47083099D01*
X76029921Y-47266679D01*
X76029914Y-47266685D01*
X75816685Y-47479914D01*
X75816679Y-47479921D01*
X75633099Y-47719168D01*
X75482318Y-47980328D01*
X75482314Y-47980338D01*
X75366913Y-48258939D01*
X75288861Y-48550233D01*
X75249501Y-48849206D01*
X75249500Y-48849223D01*
X73005015Y-48849223D01*
X73005015Y-48329053D01*
X69591171Y-48329053D01*
X69591171Y-52741215D01*
X67462867Y-52741215D01*
X67567683Y-52559668D01*
X67683087Y-52281058D01*
X67761138Y-51989768D01*
X67800500Y-51690783D01*
X67800500Y-51389217D01*
X67761138Y-51090232D01*
X67683087Y-50798942D01*
X67655905Y-50733320D01*
X67614590Y-50633576D01*
X67567683Y-50520332D01*
X67567540Y-50520085D01*
X67416900Y-50259168D01*
X67233320Y-50019921D01*
X67233314Y-50019914D01*
X67020085Y-49806685D01*
X67020078Y-49806679D01*
X66780831Y-49623099D01*
X66519671Y-49472318D01*
X66519661Y-49472314D01*
X66241060Y-49356913D01*
X65949766Y-49278861D01*
X65650793Y-49239501D01*
X65650788Y-49239500D01*
X65650783Y-49239500D01*
X65349217Y-49239500D01*
X65349211Y-49239500D01*
X65349206Y-49239501D01*
X65050233Y-49278861D01*
X64758939Y-49356913D01*
X64480338Y-49472314D01*
X64480328Y-49472318D01*
X64219168Y-49623099D01*
X63979921Y-49806679D01*
X63979914Y-49806685D01*
X63766685Y-50019914D01*
X63766679Y-50019921D01*
X63583099Y-50259168D01*
X63432318Y-50520328D01*
X63432314Y-50520338D01*
X63316913Y-50798939D01*
X63238861Y-51090233D01*
X63199501Y-51389206D01*
X63199500Y-51389223D01*
X63199500Y-51690776D01*
X63199501Y-51690793D01*
X63227644Y-51904561D01*
X63216878Y-51973596D01*
X63192386Y-52008427D01*
X62847478Y-52353336D01*
X62786155Y-52386821D01*
X62716464Y-52381837D01*
X62660530Y-52339966D01*
X62636113Y-52274501D01*
X62635797Y-52265655D01*
X62635797Y-48921103D01*
X58437357Y-48921103D01*
X58437357Y-52335553D01*
X62565900Y-52335553D01*
X62587145Y-52341791D01*
X62609234Y-52343371D01*
X62620017Y-52351443D01*
X62632939Y-52355238D01*
X62647438Y-52371971D01*
X62665167Y-52385243D01*
X62669874Y-52397863D01*
X62678694Y-52408042D01*
X62681845Y-52429959D01*
X62689584Y-52450707D01*
X62686721Y-52463867D01*
X62688638Y-52477200D01*
X62679438Y-52497343D01*
X62674732Y-52518980D01*
X62661463Y-52536705D01*
X62659613Y-52540756D01*
X62653581Y-52547234D01*
X62541034Y-52659781D01*
X62479711Y-52693266D01*
X62453353Y-52696100D01*
X46340751Y-52696100D01*
X46136048Y-52696100D01*
X46089179Y-52703523D01*
X45933868Y-52728122D01*
X45933867Y-52728122D01*
X45880874Y-52745341D01*
X45739184Y-52791378D01*
X45739183Y-52791378D01*
X45647984Y-52837845D01*
X45647985Y-52837846D01*
X45556788Y-52884313D01*
X45391178Y-53004636D01*
X42132634Y-56263181D01*
X42071311Y-56296666D01*
X42044953Y-56299500D01*
X41910435Y-56299500D01*
X41910429Y-56299500D01*
X41910424Y-56299501D01*
X41663438Y-56332017D01*
X41422792Y-56396498D01*
X41192638Y-56491830D01*
X41192623Y-56491837D01*
X40976873Y-56616400D01*
X40779225Y-56768060D01*
X40779218Y-56768066D01*
X40603066Y-56944218D01*
X40603060Y-56944225D01*
X40451400Y-57141873D01*
X40326837Y-57357623D01*
X40326830Y-57357638D01*
X40231498Y-57587792D01*
X40167017Y-57828438D01*
X40134501Y-58075424D01*
X40134500Y-58075441D01*
X40134500Y-58209953D01*
X40114815Y-58276992D01*
X40098181Y-58297634D01*
X34783036Y-63612778D01*
X34783031Y-63612784D01*
X34662712Y-63778389D01*
X34662396Y-63779011D01*
X34662384Y-63779035D01*
X34569781Y-63960776D01*
X34506522Y-64155465D01*
X34474500Y-64357648D01*
X34474500Y-71063437D01*
X34454815Y-71130476D01*
X34402011Y-71176231D01*
X34332853Y-71186175D01*
X34309547Y-71180479D01*
X34264260Y-71164633D01*
X34264249Y-71164630D01*
X34129960Y-71149500D01*
X34129954Y-71149500D01*
X32340046Y-71149500D01*
X32340039Y-71149500D01*
X32205750Y-71164630D01*
X32205745Y-71164631D01*
X32035476Y-71224211D01*
X31882737Y-71320184D01*
X31755184Y-71447737D01*
X31659211Y-71600476D01*
X31599631Y-71770745D01*
X31599630Y-71770750D01*
X31584500Y-71905039D01*
X20500500Y-71905039D01*
X20500500Y-68778410D01*
X29827510Y-68778410D01*
X34169786Y-68778410D01*
X34169786Y-65219984D01*
X29827510Y-65219984D01*
X29827510Y-68778410D01*
X20500500Y-68778410D01*
X20500500Y-64135553D01*
X29937357Y-64135553D01*
X34134072Y-64135553D01*
X34134072Y-60719984D01*
X29937357Y-60719984D01*
X29937357Y-64135553D01*
X20500500Y-64135553D01*
X20500500Y-57298394D01*
X29974500Y-57298394D01*
X29974500Y-59101604D01*
X29989699Y-59255932D01*
X29989700Y-59255935D01*
X30049768Y-59453955D01*
X30144903Y-59631939D01*
X30147317Y-59636454D01*
X30278589Y-59796410D01*
X30438545Y-59927682D01*
X30438549Y-59927685D01*
X30621045Y-60025232D01*
X30819065Y-60085300D01*
X30819064Y-60085300D01*
X30829968Y-60086373D01*
X30973391Y-60100500D01*
X32776608Y-60100499D01*
X32930935Y-60085300D01*
X33128955Y-60025232D01*
X33311451Y-59927685D01*
X33471410Y-59796410D01*
X33602685Y-59636451D01*
X33700232Y-59453955D01*
X33760300Y-59255935D01*
X33775500Y-59101609D01*
X33775499Y-58190045D01*
X33795183Y-58123007D01*
X33811813Y-58102370D01*
X42044088Y-49870097D01*
X45584500Y-49870097D01*
X45584500Y-50129902D01*
X45625140Y-50386493D01*
X45705422Y-50633576D01*
X45823368Y-50865054D01*
X45970588Y-51067685D01*
X45976069Y-51075229D01*
X46159771Y-51258931D01*
X46369949Y-51411634D01*
X46503761Y-51479815D01*
X46601423Y-51529577D01*
X46601425Y-51529577D01*
X46601428Y-51529579D01*
X46848507Y-51609860D01*
X46980706Y-51630797D01*
X47105098Y-51650500D01*
X47105103Y-51650500D01*
X47364902Y-51650500D01*
X47478298Y-51632539D01*
X47621493Y-51609860D01*
X47868572Y-51529579D01*
X48100051Y-51411634D01*
X48161779Y-51366785D01*
X48227584Y-51343306D01*
X48295638Y-51359131D01*
X48322345Y-51379423D01*
X48422738Y-51479816D01*
X48575478Y-51575789D01*
X48745745Y-51635368D01*
X48745750Y-51635369D01*
X48836246Y-51645565D01*
X48880040Y-51650499D01*
X48880043Y-51650500D01*
X48880046Y-51650500D01*
X50669957Y-51650500D01*
X50669958Y-51650499D01*
X50737104Y-51642934D01*
X50804249Y-51635369D01*
X50804252Y-51635368D01*
X50804255Y-51635368D01*
X50974522Y-51575789D01*
X51127262Y-51479816D01*
X51254816Y-51352262D01*
X51350789Y-51199522D01*
X51410368Y-51029255D01*
X51425500Y-50894954D01*
X51425500Y-49105046D01*
X51410368Y-48970745D01*
X51350789Y-48800478D01*
X51254816Y-48647738D01*
X51127262Y-48520184D01*
X51127260Y-48520183D01*
X50974523Y-48424211D01*
X50804254Y-48364631D01*
X50804249Y-48364630D01*
X50669960Y-48349500D01*
X50669954Y-48349500D01*
X48880046Y-48349500D01*
X48880039Y-48349500D01*
X48745750Y-48364630D01*
X48745745Y-48364631D01*
X48575476Y-48424211D01*
X48422739Y-48520183D01*
X48322345Y-48620577D01*
X48261022Y-48654061D01*
X48191330Y-48649077D01*
X48161779Y-48633213D01*
X48100054Y-48588368D01*
X48100053Y-48588367D01*
X48100051Y-48588366D01*
X48025209Y-48550232D01*
X47868576Y-48470422D01*
X47621493Y-48390140D01*
X47364902Y-48349500D01*
X47364897Y-48349500D01*
X47105103Y-48349500D01*
X47105098Y-48349500D01*
X46848506Y-48390140D01*
X46601423Y-48470422D01*
X46369945Y-48588368D01*
X46159774Y-48741066D01*
X46159768Y-48741071D01*
X45976071Y-48924768D01*
X45976066Y-48924774D01*
X45823368Y-49134945D01*
X45705422Y-49366423D01*
X45625140Y-49613506D01*
X45584500Y-49870097D01*
X42044088Y-49870097D01*
X44117366Y-47796819D01*
X44178689Y-47763334D01*
X44205047Y-47760500D01*
X63075500Y-47760500D01*
X63142539Y-47780185D01*
X63188294Y-47832989D01*
X63199500Y-47884500D01*
X63199500Y-48004960D01*
X63214630Y-48139249D01*
X63214631Y-48139254D01*
X63274211Y-48309523D01*
X63346275Y-48424211D01*
X63370184Y-48462262D01*
X63497738Y-48589816D01*
X63650478Y-48685789D01*
X63703411Y-48704311D01*
X63820745Y-48745368D01*
X63820750Y-48745369D01*
X63911246Y-48755565D01*
X63955040Y-48760499D01*
X63955043Y-48760500D01*
X63955046Y-48760500D01*
X67044957Y-48760500D01*
X67044958Y-48760499D01*
X67112104Y-48752934D01*
X67179249Y-48745369D01*
X67179252Y-48745368D01*
X67179255Y-48745368D01*
X67349522Y-48685789D01*
X67502262Y-48589816D01*
X67629816Y-48462262D01*
X67725789Y-48309522D01*
X67785368Y-48139255D01*
X67800500Y-48004954D01*
X67800500Y-47884500D01*
X67820185Y-47817461D01*
X67872989Y-47771706D01*
X67924500Y-47760500D01*
X68404051Y-47760500D01*
X68404052Y-47760500D01*
X68606235Y-47728477D01*
X68703576Y-47696848D01*
X68800919Y-47665220D01*
X68892114Y-47618753D01*
X68983311Y-47572287D01*
X69148919Y-47451966D01*
X71344066Y-45256819D01*
X71405389Y-45223334D01*
X71431747Y-45220500D01*
X75125500Y-45220500D01*
X75192539Y-45240185D01*
X75238294Y-45292989D01*
X75249500Y-45344500D01*
X75249500Y-45464960D01*
X75264630Y-45599249D01*
X75264631Y-45599254D01*
X75324211Y-45769523D01*
X75420184Y-45922262D01*
X75547738Y-46049816D01*
X75700478Y-46145789D01*
X75870745Y-46205368D01*
X75870750Y-46205369D01*
X75961246Y-46215565D01*
X76005040Y-46220499D01*
X76005043Y-46220500D01*
X76005046Y-46220500D01*
X79094957Y-46220500D01*
X79094958Y-46220499D01*
X79162104Y-46212934D01*
X79229249Y-46205369D01*
X79229252Y-46205368D01*
X79229255Y-46205368D01*
X79399522Y-46145789D01*
X79552262Y-46049816D01*
X79679816Y-45922262D01*
X79775789Y-45769522D01*
X79835368Y-45599255D01*
X79850500Y-45464954D01*
X79850500Y-42375046D01*
X79835368Y-42240745D01*
X79775789Y-42070478D01*
X79679816Y-41917738D01*
X79552262Y-41790184D01*
X79399523Y-41694211D01*
X79229254Y-41634631D01*
X79229249Y-41634630D01*
X79094960Y-41619500D01*
X79094954Y-41619500D01*
X76005046Y-41619500D01*
X76005039Y-41619500D01*
X75870750Y-41634630D01*
X75870745Y-41634631D01*
X75700476Y-41694211D01*
X75547737Y-41790184D01*
X75420184Y-41917737D01*
X75324211Y-42070476D01*
X75264631Y-42240745D01*
X75264630Y-42240750D01*
X75249500Y-42375039D01*
X75249500Y-42495500D01*
X75229815Y-42562539D01*
X75177011Y-42608294D01*
X75125500Y-42619500D01*
X70739348Y-42619500D01*
X70715029Y-42623351D01*
X70537165Y-42651522D01*
X70342476Y-42714781D01*
X70203980Y-42785349D01*
X70160090Y-42807713D01*
X70160089Y-42807714D01*
X70152191Y-42813452D01*
X70152190Y-42813451D01*
X70152190Y-42813452D01*
X69994486Y-42928028D01*
X68003530Y-44918984D01*
X67942207Y-44952469D01*
X67872515Y-44947485D01*
X67816582Y-44905613D01*
X67792629Y-44845186D01*
X67785369Y-44780750D01*
X67785368Y-44780745D01*
X67725788Y-44610476D01*
X67629815Y-44457737D01*
X67502262Y-44330184D01*
X67349523Y-44234211D01*
X67179254Y-44174631D01*
X67179249Y-44174630D01*
X67044960Y-44159500D01*
X67044954Y-44159500D01*
X63955046Y-44159500D01*
X63955039Y-44159500D01*
X63820750Y-44174630D01*
X63820745Y-44174631D01*
X63650476Y-44234211D01*
X63497737Y-44330184D01*
X63370184Y-44457737D01*
X63274211Y-44610476D01*
X63214631Y-44780745D01*
X63214630Y-44780750D01*
X63199500Y-44915039D01*
X63199500Y-45035500D01*
X63179815Y-45102539D01*
X63127011Y-45148294D01*
X63075500Y-45159500D01*
X43717351Y-45159500D01*
X43512648Y-45159500D01*
X43465779Y-45166923D01*
X43310468Y-45191522D01*
X43310467Y-45191522D01*
X43221283Y-45220499D01*
X43221284Y-45220500D01*
X43115781Y-45254780D01*
X43086464Y-45269718D01*
X43040792Y-45292989D01*
X42933387Y-45347714D01*
X42933384Y-45347716D01*
X42767778Y-45468036D01*
X31972632Y-56263181D01*
X31911309Y-56296666D01*
X31884951Y-56299500D01*
X30973395Y-56299500D01*
X30819067Y-56314699D01*
X30621042Y-56374769D01*
X30438545Y-56472317D01*
X30278589Y-56603589D01*
X30147317Y-56763545D01*
X30049769Y-56946042D01*
X29989699Y-57144066D01*
X29974500Y-57298394D01*
X20500500Y-57298394D01*
X20500500Y-46026928D01*
X35949984Y-46026928D01*
X39365553Y-46026928D01*
X39365553Y-42044499D01*
X35949984Y-42044499D01*
X35949984Y-46026928D01*
X20500500Y-46026928D01*
X20500500Y-20624500D01*
X20520185Y-20557461D01*
X20572989Y-20511706D01*
X20624500Y-20500500D01*
X123375500Y-20500500D01*
X123442539Y-20520185D01*
G37*
%TD.AperFunction*%
%TA.AperFunction,NonConductor*%
G36*
X65017492Y-57118485D02*
G01*
X65038134Y-57135119D01*
X70470834Y-62567819D01*
X70504319Y-62629142D01*
X70499335Y-62698834D01*
X70457463Y-62754767D01*
X70391999Y-62779184D01*
X70383153Y-62779500D01*
X70189038Y-62779500D01*
X70104504Y-62792889D01*
X69940214Y-62818910D01*
X69700616Y-62896760D01*
X69476151Y-63011132D01*
X69272350Y-63159201D01*
X69272345Y-63159205D01*
X69094205Y-63337345D01*
X69094201Y-63337350D01*
X68946132Y-63541151D01*
X68831760Y-63765616D01*
X68753910Y-64005214D01*
X68714500Y-64254038D01*
X68714500Y-64505961D01*
X68753910Y-64754785D01*
X68831760Y-64994383D01*
X68946132Y-65218848D01*
X69094176Y-65422615D01*
X69117656Y-65488421D01*
X69101830Y-65556475D01*
X69051724Y-65605170D01*
X68993858Y-65619500D01*
X65074486Y-65619500D01*
X65007447Y-65599815D01*
X64961692Y-65547011D01*
X64951748Y-65477853D01*
X64965128Y-65437047D01*
X65020230Y-65333958D01*
X65020230Y-65333957D01*
X65020232Y-65333954D01*
X65080300Y-65135934D01*
X65095500Y-64981608D01*
X65095500Y-63778392D01*
X65080300Y-63624066D01*
X65020232Y-63426046D01*
X64922685Y-63243550D01*
X64853462Y-63159201D01*
X64791410Y-63083589D01*
X64659434Y-62975281D01*
X64631450Y-62952315D01*
X64448954Y-62854768D01*
X64250934Y-62794700D01*
X64250932Y-62794699D01*
X64250934Y-62794699D01*
X64131805Y-62782966D01*
X64096608Y-62779500D01*
X62093392Y-62779500D01*
X62055298Y-62783251D01*
X61939067Y-62794699D01*
X61741043Y-62854769D01*
X61558546Y-62952317D01*
X61437871Y-63051353D01*
X61373561Y-63078666D01*
X61359206Y-63079500D01*
X57726372Y-63079500D01*
X57659333Y-63059815D01*
X57613578Y-63007011D01*
X57603634Y-62937853D01*
X57608439Y-62917189D01*
X57659177Y-62761034D01*
X57691200Y-62558852D01*
X57691200Y-58947846D01*
X57710885Y-58880807D01*
X57727519Y-58860165D01*
X57775477Y-58812207D01*
X57912282Y-58675401D01*
X57973603Y-58641918D01*
X58043294Y-58646902D01*
X58099228Y-58688773D01*
X58119736Y-58730990D01*
X58141498Y-58812207D01*
X58236830Y-59042361D01*
X58236837Y-59042376D01*
X58361400Y-59258126D01*
X58513060Y-59455774D01*
X58513066Y-59455781D01*
X58689218Y-59631933D01*
X58689225Y-59631939D01*
X58886873Y-59783599D01*
X59102623Y-59908162D01*
X59102638Y-59908169D01*
X59201825Y-59949253D01*
X59332793Y-60003502D01*
X59573435Y-60067982D01*
X59820435Y-60100500D01*
X59820442Y-60100500D01*
X60069558Y-60100500D01*
X60069565Y-60100500D01*
X60316565Y-60067982D01*
X60557207Y-60003502D01*
X60787373Y-59908164D01*
X61003127Y-59783599D01*
X61200776Y-59631938D01*
X61376938Y-59455776D01*
X61528599Y-59258127D01*
X61653164Y-59042373D01*
X61748502Y-58812207D01*
X61812982Y-58571565D01*
X61845500Y-58324565D01*
X61845500Y-58075435D01*
X61812982Y-57828435D01*
X61748502Y-57587793D01*
X61653164Y-57357627D01*
X61611117Y-57284799D01*
X61594645Y-57216899D01*
X61617498Y-57150872D01*
X61672420Y-57107682D01*
X61718505Y-57098800D01*
X64950453Y-57098800D01*
X65017492Y-57118485D01*
G37*
%TD.AperFunction*%
%TA.AperFunction,NonConductor*%
G36*
X69060897Y-68240185D02*
G01*
X69106652Y-68292989D01*
X69116596Y-68362147D01*
X69094176Y-68417385D01*
X68946132Y-68621151D01*
X68831760Y-68845616D01*
X68753910Y-69085214D01*
X68744606Y-69143956D01*
X68714500Y-69334038D01*
X68714500Y-69585962D01*
X68731757Y-69694918D01*
X68753910Y-69834785D01*
X68831760Y-70074383D01*
X68946132Y-70298848D01*
X69094201Y-70502649D01*
X69094205Y-70502654D01*
X69233870Y-70642319D01*
X69267355Y-70703642D01*
X69262371Y-70773334D01*
X69233870Y-70817681D01*
X69094205Y-70957345D01*
X69094201Y-70957350D01*
X68946132Y-71161151D01*
X68831760Y-71385616D01*
X68753910Y-71625214D01*
X68738586Y-71721966D01*
X68714500Y-71874038D01*
X68714500Y-72125962D01*
X68730564Y-72227385D01*
X68753910Y-72374785D01*
X68831760Y-72614383D01*
X68946132Y-72838848D01*
X69094176Y-73042615D01*
X69117656Y-73108421D01*
X69101830Y-73176475D01*
X69051724Y-73225170D01*
X68993858Y-73239500D01*
X64816142Y-73239500D01*
X64749103Y-73219815D01*
X64703348Y-73167011D01*
X64693404Y-73097853D01*
X64715824Y-73042615D01*
X64822915Y-72895215D01*
X64863870Y-72838845D01*
X64978241Y-72614379D01*
X65056090Y-72374785D01*
X65095500Y-72125962D01*
X65095500Y-71874038D01*
X65056090Y-71625215D01*
X64978241Y-71385621D01*
X64978239Y-71385618D01*
X64978239Y-71385616D01*
X64908797Y-71249330D01*
X64863870Y-71161155D01*
X64715823Y-70957385D01*
X64715798Y-70957350D01*
X64715794Y-70957345D01*
X64576130Y-70817681D01*
X64542645Y-70756358D01*
X64547629Y-70686666D01*
X64576130Y-70642319D01*
X64614411Y-70604038D01*
X64715793Y-70502656D01*
X64863870Y-70298845D01*
X64978241Y-70074379D01*
X65056090Y-69834785D01*
X65095500Y-69585962D01*
X65095500Y-69334038D01*
X65056090Y-69085215D01*
X64978241Y-68845621D01*
X64978239Y-68845618D01*
X64978239Y-68845616D01*
X64936747Y-68764184D01*
X64863870Y-68621155D01*
X64822915Y-68564785D01*
X64715824Y-68417385D01*
X64692344Y-68351579D01*
X64708170Y-68283525D01*
X64758276Y-68234830D01*
X64816142Y-68220500D01*
X68993858Y-68220500D01*
X69060897Y-68240185D01*
G37*
%TD.AperFunction*%
%TA.AperFunction,NonConductor*%
G36*
X67392188Y-75860185D02*
G01*
X67437943Y-75912989D01*
X67447887Y-75982147D01*
X67418862Y-76045703D01*
X67398034Y-76064818D01*
X67366086Y-76088028D01*
X67221328Y-76232786D01*
X67101015Y-76398386D01*
X67008081Y-76580776D01*
X66944822Y-76775465D01*
X66912800Y-76977648D01*
X66912800Y-77306552D01*
X66893115Y-77373591D01*
X66876481Y-77394233D01*
X65191670Y-79079043D01*
X65130347Y-79112528D01*
X65060655Y-79107544D01*
X65004722Y-79065672D01*
X64986058Y-79029680D01*
X64978241Y-79005621D01*
X64863870Y-78781155D01*
X64844952Y-78755117D01*
X64715798Y-78577350D01*
X64715794Y-78577345D01*
X64576130Y-78437681D01*
X64542645Y-78376358D01*
X64547629Y-78306666D01*
X64576130Y-78262319D01*
X64715793Y-78122656D01*
X64863870Y-77918845D01*
X64978241Y-77694379D01*
X65056090Y-77454785D01*
X65095500Y-77205962D01*
X65095500Y-76954038D01*
X65056090Y-76705215D01*
X64978241Y-76465621D01*
X64978239Y-76465618D01*
X64978239Y-76465616D01*
X64936747Y-76384184D01*
X64863870Y-76241155D01*
X64822915Y-76184785D01*
X64715824Y-76037385D01*
X64692344Y-75971579D01*
X64708170Y-75903525D01*
X64758276Y-75854830D01*
X64816142Y-75840500D01*
X67325149Y-75840500D01*
X67392188Y-75860185D01*
G37*
%TD.AperFunction*%
%TA.AperFunction,NonConductor*%
G36*
X59591638Y-96468485D02*
G01*
X59637393Y-96521289D01*
X59647337Y-96590447D01*
X59635084Y-96629095D01*
X59631760Y-96635618D01*
X59553909Y-96875216D01*
X59542015Y-96950310D01*
X59512085Y-97013444D01*
X59507223Y-97018591D01*
X58493834Y-98031981D01*
X58432511Y-98065466D01*
X58406153Y-98068300D01*
X55546688Y-98068300D01*
X55479649Y-98048615D01*
X55433894Y-97995811D01*
X55423950Y-97926653D01*
X55436203Y-97888005D01*
X55448239Y-97864383D01*
X55448240Y-97864381D01*
X55448241Y-97864379D01*
X55526090Y-97624785D01*
X55537984Y-97549687D01*
X55567911Y-97486557D01*
X55572757Y-97481426D01*
X56569065Y-96485119D01*
X56630388Y-96451634D01*
X56656746Y-96448800D01*
X59524599Y-96448800D01*
X59591638Y-96468485D01*
G37*
%TD.AperFunction*%
M02*
