  0
SECTION
  2
HEADER
  9
$ANGBASE
  50
0.0
  9
$ANGDIR
  70
1
  9
$MEASUREMENT
  70
1
  0
ENDSEC
  0
SECTION
  2
TABLES
  0
TABLE
  2
LTYPE
  70
4
  0
LTYPE
  5
40F
  2
CONTINUOUS
  70
0
  3
Solid line
  72
65
  73
0
  40
0.0
  0
LTYPE
  5
410
  2
DASHDOT
 70
0
  3
Dash Dot ____ _ ____ _
 72
65
 73
4
 40
2.0
 49
1.25
 49
-0.25
 49
0.25
 49
-0.25
  0
LTYPE
  5
411
  2
DASHED
 70
0
  3
Dashed __ __ __ __ __
 72
65
 73
2
 40
0.75
 49
0.5
 49
-0.25
  0
LTYPE
  5
43B
  2
DOTTED
 70
0
  3
Dotted .  .  .  .
 72
65
 73
2
 40
0.2
 49
0.0
 49
-0.2
  0
ENDTAB
  0
TABLE
  2
STYLE
  70
4
  0
STYLE
  2
KICAD
  70
0
  40
0
  41
1
  42
1
  50
0
  71
0
  3
isocp.shx
  0
STYLE
  2
KICADB
  70
0
  40
0
  41
1
  42
1
  50
0
  71
0
  3
isocp.shx
  0
STYLE
  2
KICADI
  70
0
  40
0
  41
1
  42
1
  50
15
  71
0
  3
isocp.shx
  0
STYLE
  2
KICADBI
  70
0
  40
0
  41
1
  42
1
  50
15
  71
0
  3
isocp.shx
  0
ENDTAB
  0
TABLE
  2
LAYER
  70
35
  0
LAYER
  2
BLACK
  70
0
  62
7
  6
CONTINUOUS
  0
LAYER
  2
GRAY1
  70
0
  62
251
  6
CONTINUOUS
  0
LAYER
  2
GRAY2
  70
0
  62
8
  6
CONTINUOUS
  0
LAYER
  2
GRAY3
  70
0
  62
9
  6
CONTINUOUS
  0
LAYER
  2
WHITE
  70
0
  62
7
  6
CONTINUOUS
  0
LAYER
  2
LYELLOW
  70
0
  62
51
  6
CONTINUOUS
  0
LAYER
  2
LORANGE
  70
0
  62
41
  6
CONTINUOUS
  0
LAYER
  2
BLUE1
  70
0
  62
178
  6
CONTINUOUS
  0
LAYER
  2
GREEN1
  70
0
  62
98
  6
CONTINUOUS
  0
LAYER
  2
CYAN1
  70
0
  62
138
  6
CONTINUOUS
  0
LAYER
  2
RED1
  70
0
  62
18
  6
CONTINUOUS
  0
LAYER
  2
MAGENTA1
  70
0
  62
228
  6
CONTINUOUS
  0
LAYER
  2
BROWN1
  70
0
  62
58
  6
CONTINUOUS
  0
LAYER
  2
ORANGE1
  70
0
  62
34
  6
CONTINUOUS
  0
LAYER
  2
BLUE2
  70
0
  62
5
  6
CONTINUOUS
  0
LAYER
  2
GREEN2
  70
0
  62
3
  6
CONTINUOUS
  0
LAYER
  2
CYAN2
  70
0
  62
4
  6
CONTINUOUS
  0
LAYER
  2
RED2
  70
0
  62
1
  6
CONTINUOUS
  0
LAYER
  2
MAGENTA2
  70
0
  62
6
  6
CONTINUOUS
  0
LAYER
  2
BROWN2
  70
0
  62
54
  6
CONTINUOUS
  0
LAYER
  2
ORANGE2
  70
0
  62
42
  6
CONTINUOUS
  0
LAYER
  2
BLUE3
  70
0
  62
171
  6
CONTINUOUS
  0
LAYER
  2
GREEN3
  70
0
  62
91
  6
CONTINUOUS
  0
LAYER
  2
CYAN3
  70
0
  62
131
  6
CONTINUOUS
  0
LAYER
  2
RED3
  70
0
  62
11
  6
CONTINUOUS
  0
LAYER
  2
MAGENTA3
  70
0
  62
221
  6
CONTINUOUS
  0
LAYER
  2
YELLOW3
  70
0
  62
2
  6
CONTINUOUS
  0
LAYER
  2
ORANGE3
  70
0
  62
32
  6
CONTINUOUS
  0
LAYER
  2
BLUE4
  70
0
  62
5
  6
CONTINUOUS
  0
LAYER
  2
GREEN4
  70
0
  62
3
  6
CONTINUOUS
  0
LAYER
  2
CYAN4
  70
0
  62
4
  6
CONTINUOUS
  0
LAYER
  2
RED4
  70
0
  62
1
  6
CONTINUOUS
  0
LAYER
  2
MAGENTA4
  70
0
  62
6
  6
CONTINUOUS
  0
LAYER
  2
YELLOW4
  70
0
  62
2
  6
CONTINUOUS
  0
LAYER
  2
ORANGE4
  70
0
  62
40
  6
CONTINUOUS
  0
ENDTAB
  0
ENDSEC
  0
SECTION
  2
ENTITIES
0
LINE
8
LYELLOW
6
CONTINUOUS
10
29.6866659999999989
20
-51.6973190000000002
11
29.6866659999999989
21
-52.411603999999997
0
LINE
8
LYELLOW
6
CONTINUOUS
10
29.6866659999999989
20
-52.411603999999997
11
29.6390469999999979
21
-52.5544609999999963
0
LINE
8
LYELLOW
6
CONTINUOUS
10
29.6390469999999979
20
-52.5544609999999963
11
29.5438089999999995
21
-52.6496999999999957
0
LINE
8
LYELLOW
6
CONTINUOUS
10
29.5438089999999995
20
-52.6496999999999957
11
29.4009520000000002
21
-52.6973190000000002
0
LINE
8
LYELLOW
6
CONTINUOUS
10
29.4009520000000002
20
-52.6973190000000002
11
29.3057139999999983
21
-52.6973190000000002
0
LINE
8
LYELLOW
6
CONTINUOUS
10
30.6866659999999989
20
-52.6973190000000002
11
30.115237999999998
21
-52.6973190000000002
0
LINE
8
LYELLOW
6
CONTINUOUS
10
30.4009520000000002
20
-52.6973190000000002
11
30.4009520000000002
21
-51.6973190000000002
0
LINE
8
LYELLOW
6
CONTINUOUS
10
30.4009520000000002
20
-51.6973190000000002
11
30.3057139999999983
21
-51.8401759999999996
0
LINE
8
LYELLOW
6
CONTINUOUS
10
30.3057139999999983
20
-51.8401759999999996
11
30.2104759999999999
21
-51.9354139999999944
0
LINE
8
LYELLOW
6
CONTINUOUS
10
30.2104759999999999
20
-51.9354139999999944
11
30.115237999999998
21
-51.9830329999999989
0
LINE
8
LYELLOW
6
CONTINUOUS
10
29.6866659999999989
20
-62.3223190000000002
11
29.6866659999999989
21
-63.036603999999997
0
LINE
8
LYELLOW
6
CONTINUOUS
10
29.6866659999999989
20
-63.036603999999997
11
29.6390469999999979
21
-63.1794609999999963
0
LINE
8
LYELLOW
6
CONTINUOUS
10
29.6390469999999979
20
-63.1794609999999963
11
29.5438089999999995
21
-63.2746999999999957
0
LINE
8
LYELLOW
6
CONTINUOUS
10
29.5438089999999995
20
-63.2746999999999957
11
29.4009520000000002
21
-63.3223190000000002
0
LINE
8
LYELLOW
6
CONTINUOUS
10
29.4009520000000002
20
-63.3223190000000002
11
29.3057139999999983
21
-63.3223190000000002
0
LINE
8
LYELLOW
6
CONTINUOUS
10
30.067618999999997
20
-62.3223190000000002
11
30.6866659999999989
21
-62.3223190000000002
0
LINE
8
LYELLOW
6
CONTINUOUS
10
30.6866659999999989
20
-62.3223190000000002
11
30.3533329999999992
21
-62.7032709999999938
0
LINE
8
LYELLOW
6
CONTINUOUS
10
30.3533329999999992
20
-62.7032709999999938
11
30.4961899999999986
21
-62.7032709999999938
0
LINE
8
LYELLOW
6
CONTINUOUS
10
30.4961899999999986
20
-62.7032709999999938
11
30.591427999999997
21
-62.7508899999999983
0
LINE
8
LYELLOW
6
CONTINUOUS
10
30.591427999999997
20
-62.7508899999999983
11
30.6390469999999979
21
-62.7985089999999957
0
LINE
8
LYELLOW
6
CONTINUOUS
10
30.6390469999999979
20
-62.7985089999999957
11
30.6866659999999989
21
-62.8937469999999976
0
LINE
8
LYELLOW
6
CONTINUOUS
10
30.6866659999999989
20
-62.8937469999999976
11
30.6866659999999989
21
-63.1318419999999989
0
LINE
8
LYELLOW
6
CONTINUOUS
10
30.6866659999999989
20
-63.1318419999999989
11
30.6390469999999979
21
-63.2270799999999937
0
LINE
8
LYELLOW
6
CONTINUOUS
10
30.6390469999999979
20
-63.2270799999999937
11
30.591427999999997
21
-63.2746999999999957
0
LINE
8
LYELLOW
6
CONTINUOUS
10
30.591427999999997
20
-63.2746999999999957
11
30.4961899999999986
21
-63.3223190000000002
0
LINE
8
LYELLOW
6
CONTINUOUS
10
30.4961899999999986
20
-63.3223190000000002
11
30.2104759999999999
21
-63.3223190000000002
0
LINE
8
LYELLOW
6
CONTINUOUS
10
30.2104759999999999
20
-63.3223190000000002
11
30.115237999999998
21
-63.2746999999999957
0
LINE
8
LYELLOW
6
CONTINUOUS
10
30.115237999999998
20
-63.2746999999999957
11
30.067618999999997
21
-63.2270799999999937
0
LINE
8
LYELLOW
6
CONTINUOUS
10
50.2383329999999972
20
-97.4223190000000017
11
49.9050000000000011
21
-96.9461280000000016
0
LINE
8
LYELLOW
6
CONTINUOUS
10
49.6669049999999999
20
-97.4223190000000017
11
49.6669049999999999
21
-96.4223190000000017
0
LINE
8
LYELLOW
6
CONTINUOUS
10
49.6669049999999999
20
-96.4223190000000017
11
50.0478570000000005
21
-96.4223190000000017
0
LINE
8
LYELLOW
6
CONTINUOUS
10
50.0478570000000005
20
-96.4223190000000017
11
50.1430949999999953
21
-96.4699379999999991
0
LINE
8
LYELLOW
6
CONTINUOUS
10
50.1430949999999953
20
-96.4699379999999991
11
50.1907139999999998
21
-96.5175569999999965
0
LINE
8
LYELLOW
6
CONTINUOUS
10
50.1907139999999998
20
-96.5175569999999965
11
50.2383329999999972
21
-96.6127949999999913
0
LINE
8
LYELLOW
6
CONTINUOUS
10
50.2383329999999972
20
-96.6127949999999913
11
50.2383329999999972
21
-96.7556519999999978
0
LINE
8
LYELLOW
6
CONTINUOUS
10
50.2383329999999972
20
-96.7556519999999978
11
50.1907139999999998
21
-96.8508899999999926
0
LINE
8
LYELLOW
6
CONTINUOUS
10
50.1907139999999998
20
-96.8508899999999926
11
50.1430949999999953
21
-96.89850899999999
0
LINE
8
LYELLOW
6
CONTINUOUS
10
50.1430949999999953
20
-96.89850899999999
11
50.0478570000000005
21
-96.9461280000000016
0
LINE
8
LYELLOW
6
CONTINUOUS
10
50.0478570000000005
20
-96.9461280000000016
11
49.6669049999999999
21
-96.9461280000000016
0
LINE
8
LYELLOW
6
CONTINUOUS
10
51.1907139999999998
20
-97.4223190000000017
11
50.6192859999999953
21
-97.4223190000000017
0
LINE
8
LYELLOW
6
CONTINUOUS
10
50.9050000000000011
20
-97.4223190000000017
11
50.9050000000000011
21
-96.4223190000000017
0
LINE
8
LYELLOW
6
CONTINUOUS
10
50.9050000000000011
20
-96.4223190000000017
11
50.8097619999999992
21
-96.5651759999999939
0
LINE
8
LYELLOW
6
CONTINUOUS
10
50.8097619999999992
20
-96.5651759999999939
11
50.7145239999999973
21
-96.6604139999999887
0
LINE
8
LYELLOW
6
CONTINUOUS
10
50.7145239999999973
20
-96.6604139999999887
11
50.6192859999999953
21
-96.7080330000000004
0
LINE
8
LYELLOW
6
CONTINUOUS
10
65.3930330000000026
20
-85.6470800000000025
11
65.345413999999991
21
-85.6946999999999974
0
LINE
8
LYELLOW
6
CONTINUOUS
10
65.345413999999991
20
-85.6946999999999974
11
65.2025569999999988
21
-85.7423189999999948
0
LINE
8
LYELLOW
6
CONTINUOUS
10
65.2025569999999988
20
-85.7423189999999948
11
65.1073190000000039
21
-85.7423189999999948
0
LINE
8
LYELLOW
6
CONTINUOUS
10
65.1073190000000039
20
-85.7423189999999948
11
64.9644619999999975
21
-85.6946999999999974
0
LINE
8
LYELLOW
6
CONTINUOUS
10
64.9644619999999975
20
-85.6946999999999974
11
64.8692240000000027
21
-85.5994609999999909
0
LINE
8
LYELLOW
6
CONTINUOUS
10
64.8692240000000027
20
-85.5994609999999909
11
64.821604999999991
21
-85.5042229999999961
0
LINE
8
LYELLOW
6
CONTINUOUS
10
64.821604999999991
20
-85.5042229999999961
11
64.7739859999999936
21
-85.3137469999999922
0
LINE
8
LYELLOW
6
CONTINUOUS
10
64.7739859999999936
20
-85.3137469999999922
11
64.7739859999999936
21
-85.17089
0
LINE
8
LYELLOW
6
CONTINUOUS
10
64.7739859999999936
20
-85.17089
11
64.821604999999991
21
-84.9804139999999961
0
LINE
8
LYELLOW
6
CONTINUOUS
10
64.821604999999991
20
-84.9804139999999961
11
64.8692240000000027
21
-84.8851760000000013
0
LINE
8
LYELLOW
6
CONTINUOUS
10
64.8692240000000027
20
-84.8851760000000013
11
64.9644619999999975
21
-84.7899379999999923
0
LINE
8
LYELLOW
6
CONTINUOUS
10
64.9644619999999975
20
-84.7899379999999923
11
65.1073190000000039
21
-84.7423189999999948
0
LINE
8
LYELLOW
6
CONTINUOUS
10
65.1073190000000039
20
-84.7423189999999948
11
65.2025569999999988
21
-84.7423189999999948
0
LINE
8
LYELLOW
6
CONTINUOUS
10
65.2025569999999988
20
-84.7423189999999948
11
65.345413999999991
21
-84.7899379999999923
0
LINE
8
LYELLOW
6
CONTINUOUS
10
65.345413999999991
20
-84.7899379999999923
11
65.3930330000000026
21
-84.8375569999999897
0
LINE
8
LYELLOW
6
CONTINUOUS
10
66.345413999999991
20
-85.7423189999999948
11
65.7739859999999936
21
-85.7423189999999948
0
LINE
8
LYELLOW
6
CONTINUOUS
10
66.0596999999999923
20
-85.7423189999999948
11
66.0596999999999923
21
-84.7423189999999948
0
LINE
8
LYELLOW
6
CONTINUOUS
10
66.0596999999999923
20
-84.7423189999999948
11
65.9644619999999975
21
-84.8851760000000013
0
LINE
8
LYELLOW
6
CONTINUOUS
10
65.9644619999999975
20
-84.8851760000000013
11
65.8692240000000027
21
-84.9804139999999961
0
LINE
8
LYELLOW
6
CONTINUOUS
10
65.8692240000000027
20
-84.9804139999999961
11
65.7739859999999936
21
-85.0280329999999935
0
LINE
8
LYELLOW
6
CONTINUOUS
10
50.043095000000001
20
-85.1223189999999903
11
50.043095000000001
21
-85.9318420000000032
0
LINE
8
LYELLOW
6
CONTINUOUS
10
50.043095000000001
20
-85.9318420000000032
11
50.0907139999999984
21
-86.027079999999998
0
LINE
8
LYELLOW
6
CONTINUOUS
10
50.0907139999999984
20
-86.027079999999998
11
50.1383329999999958
21
-86.0746999999999929
0
LINE
8
LYELLOW
6
CONTINUOUS
10
50.1383329999999958
20
-86.0746999999999929
11
50.2335709999999978
21
-86.1223189999999903
0
LINE
8
LYELLOW
6
CONTINUOUS
10
50.2335709999999978
20
-86.1223189999999903
11
50.4240469999999945
21
-86.1223189999999903
0
LINE
8
LYELLOW
6
CONTINUOUS
10
50.4240469999999945
20
-86.1223189999999903
11
50.5192849999999964
21
-86.0746999999999929
0
LINE
8
LYELLOW
6
CONTINUOUS
10
50.5192849999999964
20
-86.0746999999999929
11
50.566904000000001
21
-86.027079999999998
0
LINE
8
LYELLOW
6
CONTINUOUS
10
50.566904000000001
20
-86.027079999999998
11
50.6145229999999984
21
-85.9318420000000032
0
LINE
8
LYELLOW
6
CONTINUOUS
10
50.6145229999999984
20
-85.9318420000000032
11
50.6145229999999984
21
-85.1223189999999903
0
LINE
8
LYELLOW
6
CONTINUOUS
10
51.6145229999999984
20
-86.1223189999999903
11
51.043095000000001
21
-86.1223189999999903
0
LINE
8
LYELLOW
6
CONTINUOUS
10
51.3288089999999997
20
-86.1223189999999903
11
51.3288089999999997
21
-85.1223189999999903
0
LINE
8
LYELLOW
6
CONTINUOUS
10
51.3288089999999997
20
-85.1223189999999903
11
51.2335709999999978
21
-85.2651759999999967
0
LINE
8
LYELLOW
6
CONTINUOUS
10
51.2335709999999978
20
-85.2651759999999967
11
51.1383329999999958
21
-85.3604139999999916
0
LINE
8
LYELLOW
6
CONTINUOUS
10
51.1383329999999958
20
-85.3604139999999916
11
51.043095000000001
21
-85.4080330000000032
0
LINE
8
LYELLOW
6
CONTINUOUS
10
80.7883329999999944
20
-57.4173189999999991
11
80.3121429999999918
21
-57.4173189999999991
0
LINE
8
LYELLOW
6
CONTINUOUS
10
80.3121429999999918
20
-57.4173189999999991
11
80.3121429999999918
21
-56.4173189999999991
0
LINE
8
LYELLOW
6
CONTINUOUS
10
81.6454760000000022
20
-57.4173189999999991
11
81.0740479999999906
21
-57.4173189999999991
0
LINE
8
LYELLOW
6
CONTINUOUS
10
81.3597619999999893
20
-57.4173189999999991
11
81.3597619999999893
21
-56.4173189999999991
0
LINE
8
LYELLOW
6
CONTINUOUS
10
81.3597619999999893
20
-56.4173189999999991
11
81.2645239999999944
21
-56.5601759999999985
0
LINE
8
LYELLOW
6
CONTINUOUS
10
81.2645239999999944
20
-56.5601759999999985
11
81.1692859999999996
21
-56.6554140000000004
0
LINE
8
LYELLOW
6
CONTINUOUS
10
81.1692859999999996
20
-56.6554140000000004
11
81.0740479999999906
21
-56.7030329999999978
0
LINE
8
LYELLOW
6
CONTINUOUS
10
113.6466659999999962
20
-55.012318999999998
11
113.6466659999999962
21
-55.7266039999999947
0
LINE
8
LYELLOW
6
CONTINUOUS
10
113.6466659999999962
20
-55.7266039999999947
11
113.5990469999999988
21
-55.869460999999994
0
LINE
8
LYELLOW
6
CONTINUOUS
10
113.5990469999999988
20
-55.869460999999994
11
113.5038089999999897
21
-55.9647000000000006
0
LINE
8
LYELLOW
6
CONTINUOUS
10
113.5038089999999897
20
-55.9647000000000006
11
113.3609519999999975
21
-56.012318999999998
0
LINE
8
LYELLOW
6
CONTINUOUS
10
113.3609519999999975
20
-56.012318999999998
11
113.2657139999999885
21
-56.012318999999998
0
LINE
8
LYELLOW
6
CONTINUOUS
10
114.5514280000000014
20
-55.3456519999999941
11
114.5514280000000014
21
-56.012318999999998
0
LINE
8
LYELLOW
6
CONTINUOUS
10
114.3133330000000001
20
-54.9647000000000006
11
114.0752379999999988
21
-55.6789849999999973
0
LINE
8
LYELLOW
6
CONTINUOUS
10
114.0752379999999988
20
-55.6789849999999973
11
114.6942849999999936
21
-55.6789849999999973
0
LINE
8
LYELLOW
6
CONTINUOUS
10
65.0083329999999933
20
-97.4223190000000017
11
64.6749999999999972
21
-96.9461280000000016
0
LINE
8
LYELLOW
6
CONTINUOUS
10
64.4369049999999959
20
-97.4223190000000017
11
64.4369049999999959
21
-96.4223190000000017
0
LINE
8
LYELLOW
6
CONTINUOUS
10
64.4369049999999959
20
-96.4223190000000017
11
64.8178570000000036
21
-96.4223190000000017
0
LINE
8
LYELLOW
6
CONTINUOUS
10
64.8178570000000036
20
-96.4223190000000017
11
64.9130949999999984
21
-96.4699379999999991
0
LINE
8
LYELLOW
6
CONTINUOUS
10
64.9130949999999984
20
-96.4699379999999991
11
64.9607139999999958
21
-96.5175569999999965
0
LINE
8
LYELLOW
6
CONTINUOUS
10
64.9607139999999958
20
-96.5175569999999965
11
65.0083329999999933
21
-96.6127949999999913
0
LINE
8
LYELLOW
6
CONTINUOUS
10
65.0083329999999933
20
-96.6127949999999913
11
65.0083329999999933
21
-96.7556519999999978
0
LINE
8
LYELLOW
6
CONTINUOUS
10
65.0083329999999933
20
-96.7556519999999978
11
64.9607139999999958
21
-96.8508899999999926
0
LINE
8
LYELLOW
6
CONTINUOUS
10
64.9607139999999958
20
-96.8508899999999926
11
64.9130949999999984
21
-96.89850899999999
0
LINE
8
LYELLOW
6
CONTINUOUS
10
64.9130949999999984
20
-96.89850899999999
11
64.8178570000000036
21
-96.9461280000000016
0
LINE
8
LYELLOW
6
CONTINUOUS
10
64.8178570000000036
20
-96.9461280000000016
11
64.4369049999999959
21
-96.9461280000000016
0
LINE
8
LYELLOW
6
CONTINUOUS
10
65.3892859999999985
20
-96.5175569999999965
11
65.4369049999999959
21
-96.4699379999999991
0
LINE
8
LYELLOW
6
CONTINUOUS
10
65.4369049999999959
20
-96.4699379999999991
11
65.5321429999999907
21
-96.4223190000000017
0
LINE
8
LYELLOW
6
CONTINUOUS
10
65.5321429999999907
20
-96.4223190000000017
11
65.770237999999992
21
-96.4223190000000017
0
LINE
8
LYELLOW
6
CONTINUOUS
10
65.770237999999992
20
-96.4223190000000017
11
65.865476000000001
21
-96.4699379999999991
0
LINE
8
LYELLOW
6
CONTINUOUS
10
65.865476000000001
20
-96.4699379999999991
11
65.9130949999999984
21
-96.5175569999999965
0
LINE
8
LYELLOW
6
CONTINUOUS
10
65.9130949999999984
20
-96.5175569999999965
11
65.9607139999999958
21
-96.6127949999999913
0
LINE
8
LYELLOW
6
CONTINUOUS
10
65.9607139999999958
20
-96.6127949999999913
11
65.9607139999999958
21
-96.7080330000000004
0
LINE
8
LYELLOW
6
CONTINUOUS
10
65.9607139999999958
20
-96.7080330000000004
11
65.9130949999999984
21
-96.8508899999999926
0
LINE
8
LYELLOW
6
CONTINUOUS
10
65.9130949999999984
20
-96.8508899999999926
11
65.3416670000000011
21
-97.4223190000000017
0
LINE
8
LYELLOW
6
CONTINUOUS
10
65.3416670000000011
20
-97.4223190000000017
11
65.9607139999999958
21
-97.4223190000000017
0
LINE
8
LYELLOW
6
CONTINUOUS
10
51.2369050000000001
20
-63.9473190000000002
11
51.2369050000000001
21
-62.9473190000000002
0
LINE
8
LYELLOW
6
CONTINUOUS
10
51.2369050000000001
20
-62.9473190000000002
11
51.4749999999999943
21
-62.9473190000000002
0
LINE
8
LYELLOW
6
CONTINUOUS
10
51.4749999999999943
20
-62.9473190000000002
11
51.6178570000000008
21
-62.9949379999999977
0
LINE
8
LYELLOW
6
CONTINUOUS
10
51.6178570000000008
20
-62.9949379999999977
11
51.7130949999999956
21
-63.0901759999999996
0
LINE
8
LYELLOW
6
CONTINUOUS
10
51.7130949999999956
20
-63.0901759999999996
11
51.7607140000000001
21
-63.1854139999999944
0
LINE
8
LYELLOW
6
CONTINUOUS
10
51.7607140000000001
20
-63.1854139999999944
11
51.8083329999999975
21
-63.3758899999999983
0
LINE
8
LYELLOW
6
CONTINUOUS
10
51.8083329999999975
20
-63.3758899999999983
11
51.8083329999999975
21
-63.5187469999999976
0
LINE
8
LYELLOW
6
CONTINUOUS
10
51.8083329999999975
20
-63.5187469999999976
11
51.7607140000000001
21
-63.7092229999999944
0
LINE
8
LYELLOW
6
CONTINUOUS
10
51.7607140000000001
20
-63.7092229999999944
11
51.7130949999999956
21
-63.8044609999999963
0
LINE
8
LYELLOW
6
CONTINUOUS
10
51.7130949999999956
20
-63.8044609999999963
11
51.6178570000000008
21
-63.8996999999999957
0
LINE
8
LYELLOW
6
CONTINUOUS
10
51.6178570000000008
20
-63.8996999999999957
11
51.4749999999999943
21
-63.9473190000000002
0
LINE
8
LYELLOW
6
CONTINUOUS
10
51.4749999999999943
20
-63.9473190000000002
11
51.2369050000000001
21
-63.9473190000000002
0
LINE
8
LYELLOW
6
CONTINUOUS
10
52.7607140000000001
20
-63.9473190000000002
11
52.1892859999999956
21
-63.9473190000000002
0
LINE
8
LYELLOW
6
CONTINUOUS
10
52.4749999999999943
20
-63.9473190000000002
11
52.4749999999999943
21
-62.9473190000000002
0
LINE
8
LYELLOW
6
CONTINUOUS
10
52.4749999999999943
20
-62.9473190000000002
11
52.3797619999999995
21
-63.0901759999999996
0
LINE
8
LYELLOW
6
CONTINUOUS
10
52.3797619999999995
20
-63.0901759999999996
11
52.2845239999999976
21
-63.1854139999999944
0
LINE
8
LYELLOW
6
CONTINUOUS
10
52.2845239999999976
20
-63.1854139999999944
11
52.1892859999999956
21
-63.2330329999999989
0
LINE
8
LYELLOW
6
CONTINUOUS
10
46.6330949999999973
20
-64.3173189999999977
11
46.6330949999999973
21
-63.3173189999999977
0
LINE
8
LYELLOW
6
CONTINUOUS
10
47.2045229999999947
20
-64.3173189999999977
11
46.7759519999999966
21
-63.7458899999999957
0
LINE
8
LYELLOW
6
CONTINUOUS
10
47.2045229999999947
20
-63.3173189999999977
11
46.6330949999999973
21
-63.8887469999999951
0
LINE
8
LYELLOW
6
CONTINUOUS
10
113.6466659999999962
20
-41.5373189999999965
11
113.6466659999999962
21
-42.2516040000000004
0
LINE
8
LYELLOW
6
CONTINUOUS
10
113.6466659999999962
20
-42.2516040000000004
11
113.5990469999999988
21
-42.3944609999999997
0
LINE
8
LYELLOW
6
CONTINUOUS
10
113.5990469999999988
20
-42.3944609999999997
11
113.5038089999999897
21
-42.4896999999999991
0
LINE
8
LYELLOW
6
CONTINUOUS
10
113.5038089999999897
20
-42.4896999999999991
11
113.3609519999999975
21
-42.5373189999999965
0
LINE
8
LYELLOW
6
CONTINUOUS
10
113.3609519999999975
20
-42.5373189999999965
11
113.2657139999999885
21
-42.5373189999999965
0
LINE
8
LYELLOW
6
CONTINUOUS
10
114.0752379999999988
20
-41.6325569999999985
11
114.1228569999999962
21
-41.5849380000000011
0
LINE
8
LYELLOW
6
CONTINUOUS
10
114.1228569999999962
20
-41.5849380000000011
11
114.218094999999991
21
-41.5373189999999965
0
LINE
8
LYELLOW
6
CONTINUOUS
10
114.218094999999991
20
-41.5373189999999965
11
114.4561899999999923
21
-41.5373189999999965
0
LINE
8
LYELLOW
6
CONTINUOUS
10
114.4561899999999923
20
-41.5373189999999965
11
114.5514280000000014
21
-41.5849380000000011
0
LINE
8
LYELLOW
6
CONTINUOUS
10
114.5514280000000014
20
-41.5849380000000011
11
114.5990469999999988
21
-41.6325569999999985
0
LINE
8
LYELLOW
6
CONTINUOUS
10
114.5990469999999988
20
-41.6325569999999985
11
114.6466659999999962
21
-41.7277950000000004
0
LINE
8
LYELLOW
6
CONTINUOUS
10
114.6466659999999962
20
-41.7277950000000004
11
114.6466659999999962
21
-41.8230329999999952
0
LINE
8
LYELLOW
6
CONTINUOUS
10
114.6466659999999962
20
-41.8230329999999952
11
114.5990469999999988
21
-41.9658899999999946
0
LINE
8
LYELLOW
6
CONTINUOUS
10
114.5990469999999988
20
-41.9658899999999946
11
114.0276190000000014
21
-42.5373189999999965
0
LINE
8
LYELLOW
6
CONTINUOUS
10
114.0276190000000014
20
-42.5373189999999965
11
114.6466659999999962
21
-42.5373189999999965
0
LINE
8
LYELLOW
6
CONTINUOUS
10
79.3001759999999933
20
-87.8423189999999892
11
79.3001759999999933
21
-86.8423189999999892
0
LINE
8
LYELLOW
6
CONTINUOUS
10
79.3001759999999933
20
-86.8423189999999892
11
79.6335089999999894
21
-87.556603999999993
0
LINE
8
LYELLOW
6
CONTINUOUS
10
79.6335089999999894
20
-87.556603999999993
11
79.9668419999999998
21
-86.8423189999999892
0
LINE
8
LYELLOW
6
CONTINUOUS
10
79.9668419999999998
20
-86.8423189999999892
11
79.9668419999999998
21
-87.8423189999999892
0
LINE
8
LYELLOW
6
CONTINUOUS
10
80.9668419999999998
20
-87.8423189999999892
11
80.3954140000000024
21
-87.8423189999999892
0
LINE
8
LYELLOW
6
CONTINUOUS
10
80.6811280000000011
20
-87.8423189999999892
11
80.6811280000000011
21
-86.8423189999999892
0
LINE
8
LYELLOW
6
CONTINUOUS
10
80.6811280000000011
20
-86.8423189999999892
11
80.585889999999992
21
-86.9851759999999956
0
LINE
8
LYELLOW
6
CONTINUOUS
10
80.585889999999992
20
-86.9851759999999956
11
80.4906519999999972
21
-87.0804139999999904
0
LINE
8
LYELLOW
6
CONTINUOUS
10
80.4906519999999972
20
-87.0804139999999904
11
80.3954140000000024
21
-87.1280330000000021
0
LINE
8
LYELLOW
6
CONTINUOUS
10
24.9399999999999977
20
-43.3524999999999991
11
24.9399999999999977
21
-50.9724999999999966
0
LINE
8
LYELLOW
6
CONTINUOUS
10
24.9399999999999977
20
-44.6224999999999952
11
35.1000000000000014
21
-44.6224999999999952
0
LINE
8
LYELLOW
6
CONTINUOUS
10
24.9399999999999977
20
-50.9724999999999966
11
35.1000000000000014
21
-50.9724999999999966
0
LINE
8
LYELLOW
6
CONTINUOUS
10
35.1000000000000014
20
-43.3524999999999991
11
24.9399999999999977
21
-43.3524999999999991
0
LINE
8
LYELLOW
6
CONTINUOUS
10
35.1000000000000014
20
-50.9724999999999966
11
35.1000000000000014
21
-43.3524999999999991
0
LINE
8
LYELLOW
6
CONTINUOUS
10
28.639999999999997
20
-59.217499999999994
11
28.639999999999997
21
-56.5674999999999955
0
LINE
8
LYELLOW
6
CONTINUOUS
10
31.3999999999999986
20
-56.5674999999999955
11
28.639999999999997
21
-56.5674999999999955
0
LINE
8
LYELLOW
6
CONTINUOUS
10
31.3999999999999986
20
-59.217499999999994
11
28.639999999999997
21
-59.217499999999994
0
LINE
8
LYELLOW
6
CONTINUOUS
10
31.3999999999999986
20
-59.217499999999994
11
31.3999999999999986
21
-56.5674999999999955
0
LINE
8
LYELLOW
6
CONTINUOUS
10
31.3999999999999986
20
-60.4874999999999972
11
31.3999999999999986
21
-61.8674999999999997
0
LINE
8
LYELLOW
6
CONTINUOUS
10
31.3999999999999986
20
-61.8674999999999997
11
30.0199999999999996
21
-61.8674999999999997
0
LINE
8
LYELLOW
6
CONTINUOUS
10
47.134999999999998
20
-97.9675000000000011
11
53.6749999999999972
21
-97.9675000000000011
0
LINE
8
LYELLOW
6
CONTINUOUS
10
47.134999999999998
20
-98.2974999999999994
11
47.134999999999998
21
-97.9675000000000011
0
LINE
8
LYELLOW
6
CONTINUOUS
10
47.134999999999998
20
-100.3774999999999977
11
47.134999999999998
21
-100.707499999999996
0
LINE
8
LYELLOW
6
CONTINUOUS
10
47.134999999999998
20
-100.707499999999996
11
53.6749999999999972
21
-100.707499999999996
0
LINE
8
LYELLOW
6
CONTINUOUS
10
53.6749999999999972
20
-97.9675000000000011
11
53.6749999999999972
21
-98.2974999999999994
0
LINE
8
LYELLOW
6
CONTINUOUS
10
53.6749999999999972
20
-100.707499999999996
11
53.6749999999999972
21
-100.3774999999999977
0
LINE
8
LYELLOW
6
CONTINUOUS
10
61.1500020000000006
20
-88.2224999999999966
11
61.9500019999999978
21
-88.2224999999999966
0
LINE
8
LYELLOW
6
CONTINUOUS
10
61.5500019999999992
20
-87.8224999999999909
11
61.5500019999999992
21
-88.6225000000000023
0
LINE
8
LYELLOW
6
CONTINUOUS
10
65.5596999999999923
20
-86.457499999999996
11
65.5596999999999923
21
-94.6174999999999926
0
LINE
8
LYELLOW
6
CONTINUOUS
10
65.5996999999999986
20
-86.457499999999996
11
65.5996999999999986
21
-94.6174999999999926
0
LINE
8
LYELLOW
6
CONTINUOUS
10
65.6396999999999906
20
-86.4585000000000008
11
65.6396999999999906
21
-94.616500000000002
0
LINE
8
LYELLOW
6
CONTINUOUS
10
65.6796999999999969
20
-86.4594999999999914
11
65.6796999999999969
21
-94.6154999999999973
0
LINE
8
LYELLOW
6
CONTINUOUS
10
65.7197000000000031
20
-86.4604999999999961
11
65.7197000000000031
21
-94.6144999999999925
0
LINE
8
LYELLOW
6
CONTINUOUS
10
65.7596999999999952
20
-86.4624999999999915
11
65.7596999999999952
21
-94.6124999999999972
0
LINE
8
LYELLOW
6
CONTINUOUS
10
65.7997000000000014
20
-86.464500000000001
11
65.7997000000000014
21
-94.6105000000000018
0
LINE
8
LYELLOW
6
CONTINUOUS
10
65.8396999999999935
20
-86.4675000000000011
11
65.8396999999999935
21
-94.6075000000000017
0
LINE
8
LYELLOW
6
CONTINUOUS
10
65.8796999999999997
20
-86.4694999999999965
11
65.8796999999999997
21
-94.6054999999999922
0
LINE
8
LYELLOW
6
CONTINUOUS
10
65.9196999999999917
20
-86.4735000000000014
11
65.9196999999999917
21
-94.6015000000000015
0
LINE
8
LYELLOW
6
CONTINUOUS
10
65.959699999999998
20
-86.4765000000000015
11
65.959699999999998
21
-94.5985000000000014
0
LINE
8
LYELLOW
6
CONTINUOUS
10
65.99969999999999
20
-86.4814999999999969
11
65.99969999999999
21
-94.5934999999999917
0
LINE
8
LYELLOW
6
CONTINUOUS
10
66.0396999999999963
20
-86.4855000000000018
11
66.0396999999999963
21
-94.589500000000001
0
LINE
8
LYELLOW
6
CONTINUOUS
10
66.0797000000000025
20
-86.4904999999999973
11
66.0797000000000025
21
-94.5844999999999914
0
LINE
8
LYELLOW
6
CONTINUOUS
10
66.1196999999999946
20
-86.4954999999999927
11
66.1196999999999946
21
-94.5794999999999959
0
LINE
8
LYELLOW
6
CONTINUOUS
10
66.1597000000000008
20
-86.501499999999993
11
66.1597000000000008
21
-94.5734999999999957
0
LINE
8
LYELLOW
6
CONTINUOUS
10
66.1996999999999929
20
-86.5074999999999932
11
66.1996999999999929
21
-94.5674999999999955
0
LINE
8
LYELLOW
6
CONTINUOUS
10
66.2396999999999991
20
-86.5144999999999982
11
66.2396999999999991
21
-94.5604999999999905
0
LINE
8
LYELLOW
6
CONTINUOUS
10
66.2796999999999912
20
-86.5204999999999984
11
66.2796999999999912
21
-89.4975000000000023
0
LINE
8
LYELLOW
6
CONTINUOUS
10
66.2796999999999912
20
-91.5775000000000006
11
66.2796999999999912
21
-94.5544999999999902
0
LINE
8
LYELLOW
6
CONTINUOUS
10
66.3196999999999974
20
-86.528499999999994
11
66.3196999999999974
21
-89.4975000000000023
0
LINE
8
LYELLOW
6
CONTINUOUS
10
66.3196999999999974
20
-91.5775000000000006
11
66.3196999999999974
21
-94.5464999999999947
0
LINE
8
LYELLOW
6
CONTINUOUS
10
66.3597000000000037
20
-86.535499999999999
11
66.3597000000000037
21
-89.4975000000000023
0
LINE
8
LYELLOW
6
CONTINUOUS
10
66.3597000000000037
20
-91.5775000000000006
11
66.3597000000000037
21
-94.5394999999999897
0
LINE
8
LYELLOW
6
CONTINUOUS
10
66.3996999999999957
20
-86.5444999999999993
11
66.3996999999999957
21
-89.4975000000000023
0
LINE
8
LYELLOW
6
CONTINUOUS
10
66.3996999999999957
20
-91.5775000000000006
11
66.3996999999999957
21
-94.5304999999999893
0
LINE
8
LYELLOW
6
CONTINUOUS
10
66.439700000000002
20
-86.5524999999999949
11
66.439700000000002
21
-89.4975000000000023
0
LINE
8
LYELLOW
6
CONTINUOUS
10
66.439700000000002
20
-91.5775000000000006
11
66.439700000000002
21
-94.5224999999999937
0
LINE
8
LYELLOW
6
CONTINUOUS
10
66.479699999999994
20
-86.5614999999999952
11
66.479699999999994
21
-89.4975000000000023
0
LINE
8
LYELLOW
6
CONTINUOUS
10
66.479699999999994
20
-91.5775000000000006
11
66.479699999999994
21
-94.5134999999999934
0
LINE
8
LYELLOW
6
CONTINUOUS
10
66.5197000000000003
20
-86.5704999999999956
11
66.5197000000000003
21
-89.4975000000000023
0
LINE
8
LYELLOW
6
CONTINUOUS
10
66.5197000000000003
20
-91.5775000000000006
11
66.5197000000000003
21
-94.5044999999999931
0
LINE
8
LYELLOW
6
CONTINUOUS
10
66.5596999999999923
20
-86.5805000000000007
11
66.5596999999999923
21
-89.4975000000000023
0
LINE
8
LYELLOW
6
CONTINUOUS
10
66.5596999999999923
20
-91.5775000000000006
11
66.5596999999999923
21
-94.4945000000000022
0
LINE
8
LYELLOW
6
CONTINUOUS
10
66.5996999999999986
20
-86.5904999999999916
11
66.5996999999999986
21
-89.4975000000000023
0
LINE
8
LYELLOW
6
CONTINUOUS
10
66.5996999999999986
20
-91.5775000000000006
11
66.5996999999999986
21
-94.484499999999997
0
LINE
8
LYELLOW
6
CONTINUOUS
10
66.6396999999999906
20
-86.6015000000000015
11
66.6396999999999906
21
-89.4975000000000023
0
LINE
8
LYELLOW
6
CONTINUOUS
10
66.6396999999999906
20
-91.5775000000000006
11
66.6396999999999906
21
-94.4735000000000014
0
LINE
8
LYELLOW
6
CONTINUOUS
10
66.6796999999999969
20
-86.6124999999999972
11
66.6796999999999969
21
-89.4975000000000023
0
LINE
8
LYELLOW
6
CONTINUOUS
10
66.6796999999999969
20
-91.5775000000000006
11
66.6796999999999969
21
-94.4624999999999915
0
LINE
8
LYELLOW
6
CONTINUOUS
10
66.7197000000000031
20
-86.6244999999999976
11
66.7197000000000031
21
-89.4975000000000023
0
LINE
8
LYELLOW
6
CONTINUOUS
10
66.7197000000000031
20
-91.5775000000000006
11
66.7197000000000031
21
-94.450499999999991
0
LINE
8
LYELLOW
6
CONTINUOUS
10
66.7596999999999952
20
-86.6364999999999981
11
66.7596999999999952
21
-89.4975000000000023
0
LINE
8
LYELLOW
6
CONTINUOUS
10
66.7596999999999952
20
-91.5775000000000006
11
66.7596999999999952
21
-94.4384999999999906
0
LINE
8
LYELLOW
6
CONTINUOUS
10
66.7997000000000014
20
-86.6484999999999985
11
66.7997000000000014
21
-89.4975000000000023
0
LINE
8
LYELLOW
6
CONTINUOUS
10
66.7997000000000014
20
-91.5775000000000006
11
66.7997000000000014
21
-94.4264999999999901
0
LINE
8
LYELLOW
6
CONTINUOUS
10
66.8396999999999935
20
-86.6614999999999895
11
66.8396999999999935
21
-89.4975000000000023
0
LINE
8
LYELLOW
6
CONTINUOUS
10
66.8396999999999935
20
-91.5775000000000006
11
66.8396999999999935
21
-94.4134999999999991
0
LINE
8
LYELLOW
6
CONTINUOUS
10
66.8796999999999997
20
-86.6744999999999948
11
66.8796999999999997
21
-89.4975000000000023
0
LINE
8
LYELLOW
6
CONTINUOUS
10
66.8796999999999997
20
-91.5775000000000006
11
66.8796999999999997
21
-94.4004999999999939
0
LINE
8
LYELLOW
6
CONTINUOUS
10
66.9196999999999917
20
-86.6884999999999906
11
66.9196999999999917
21
-89.4975000000000023
0
LINE
8
LYELLOW
6
CONTINUOUS
10
66.9196999999999917
20
-91.5775000000000006
11
66.9196999999999917
21
-94.3864999999999981
0
LINE
8
LYELLOW
6
CONTINUOUS
10
66.959699999999998
20
-86.7025000000000006
11
66.959699999999998
21
-89.4975000000000023
0
LINE
8
LYELLOW
6
CONTINUOUS
10
66.959699999999998
20
-91.5775000000000006
11
66.959699999999998
21
-94.3725000000000023
0
LINE
8
LYELLOW
6
CONTINUOUS
10
66.99969999999999
20
-86.7175000000000011
11
66.99969999999999
21
-89.4975000000000023
0
LINE
8
LYELLOW
6
CONTINUOUS
10
66.99969999999999
20
-91.5775000000000006
11
66.99969999999999
21
-94.3575000000000017
0
LINE
8
LYELLOW
6
CONTINUOUS
10
67.0396999999999963
20
-86.7325000000000017
11
67.0396999999999963
21
-89.4975000000000023
0
LINE
8
LYELLOW
6
CONTINUOUS
10
67.0396999999999963
20
-91.5775000000000006
11
67.0396999999999963
21
-94.3425000000000011
0
LINE
8
LYELLOW
6
CONTINUOUS
10
67.0797000000000025
20
-86.7484999999999928
11
67.0797000000000025
21
-89.4975000000000023
0
LINE
8
LYELLOW
6
CONTINUOUS
10
67.0797000000000025
20
-91.5775000000000006
11
67.0797000000000025
21
-94.3264999999999958
0
LINE
8
LYELLOW
6
CONTINUOUS
10
67.1196999999999946
20
-86.7644999999999982
11
67.1196999999999946
21
-89.4975000000000023
0
LINE
8
LYELLOW
6
CONTINUOUS
10
67.1196999999999946
20
-91.5775000000000006
11
67.1196999999999946
21
-94.3104999999999905
0
LINE
8
LYELLOW
6
CONTINUOUS
10
67.1597000000000008
20
-86.7804999999999893
11
67.1597000000000008
21
-89.4975000000000023
0
LINE
8
LYELLOW
6
CONTINUOUS
10
67.1597000000000008
20
-91.5775000000000006
11
67.1597000000000008
21
-94.2944999999999993
0
LINE
8
LYELLOW
6
CONTINUOUS
10
67.1996999999999929
20
-86.7974999999999994
11
67.1996999999999929
21
-89.4975000000000023
0
LINE
8
LYELLOW
6
CONTINUOUS
10
67.1996999999999929
20
-91.5775000000000006
11
67.1996999999999929
21
-94.2774999999999892
0
LINE
8
LYELLOW
6
CONTINUOUS
10
67.2396999999999991
20
-86.8155000000000001
11
67.2396999999999991
21
-89.4975000000000023
0
LINE
8
LYELLOW
6
CONTINUOUS
10
67.2396999999999991
20
-91.5775000000000006
11
67.2396999999999991
21
-94.2595000000000027
0
LINE
8
LYELLOW
6
CONTINUOUS
10
67.2796999999999912
20
-86.8335000000000008
11
67.2796999999999912
21
-89.4975000000000023
0
LINE
8
LYELLOW
6
CONTINUOUS
10
67.2796999999999912
20
-91.5775000000000006
11
67.2796999999999912
21
-94.241500000000002
0
LINE
8
LYELLOW
6
CONTINUOUS
10
67.3196999999999974
20
-86.852499999999992
11
67.3196999999999974
21
-89.4975000000000023
0
LINE
8
LYELLOW
6
CONTINUOUS
10
67.3196999999999974
20
-91.5775000000000006
11
67.3196999999999974
21
-94.2224999999999966
0
LINE
8
LYELLOW
6
CONTINUOUS
10
67.3597000000000037
20
-86.8714999999999975
11
67.3597000000000037
21
-89.4975000000000023
0
LINE
8
LYELLOW
6
CONTINUOUS
10
67.3597000000000037
20
-91.5775000000000006
11
67.3597000000000037
21
-94.2034999999999911
0
LINE
8
LYELLOW
6
CONTINUOUS
10
67.3996999999999957
20
-86.8914999999999935
11
67.3996999999999957
21
-89.4975000000000023
0
LINE
8
LYELLOW
6
CONTINUOUS
10
67.3996999999999957
20
-91.5775000000000006
11
67.3996999999999957
21
-94.1834999999999951
0
LINE
8
LYELLOW
6
CONTINUOUS
10
67.439700000000002
20
-86.9114999999999895
11
67.439700000000002
21
-89.4975000000000023
0
LINE
8
LYELLOW
6
CONTINUOUS
10
67.439700000000002
20
-91.5775000000000006
11
67.439700000000002
21
-94.1634999999999991
0
LINE
8
LYELLOW
6
CONTINUOUS
10
67.479699999999994
20
-86.9324999999999903
11
67.479699999999994
21
-89.4975000000000023
0
LINE
8
LYELLOW
6
CONTINUOUS
10
67.479699999999994
20
-91.5775000000000006
11
67.479699999999994
21
-94.1424999999999983
0
LINE
8
LYELLOW
6
CONTINUOUS
10
67.5197000000000003
20
-86.9534999999999911
11
67.5197000000000003
21
-89.4975000000000023
0
LINE
8
LYELLOW
6
CONTINUOUS
10
67.5197000000000003
20
-91.5775000000000006
11
67.5197000000000003
21
-94.1214999999999975
0
LINE
8
LYELLOW
6
CONTINUOUS
10
67.5596999999999923
20
-86.9754999999999967
11
67.5596999999999923
21
-89.4975000000000023
0
LINE
8
LYELLOW
6
CONTINUOUS
10
67.5596999999999923
20
-91.5775000000000006
11
67.5596999999999923
21
-94.0994999999999919
0
LINE
8
LYELLOW
6
CONTINUOUS
10
67.5996999999999986
20
-86.9984999999999928
11
67.5996999999999986
21
-89.4975000000000023
0
LINE
8
LYELLOW
6
CONTINUOUS
10
67.5996999999999986
20
-91.5775000000000006
11
67.5996999999999986
21
-94.0764999999999958
0
LINE
8
LYELLOW
6
CONTINUOUS
10
67.6396999999999906
20
-87.021499999999989
11
67.6396999999999906
21
-89.4975000000000023
0
LINE
8
LYELLOW
6
CONTINUOUS
10
67.6396999999999906
20
-91.5775000000000006
11
67.6396999999999906
21
-94.0534999999999997
0
LINE
8
LYELLOW
6
CONTINUOUS
10
67.6796999999999969
20
-87.0444999999999993
11
67.6796999999999969
21
-89.4975000000000023
0
LINE
8
LYELLOW
6
CONTINUOUS
10
67.6796999999999969
20
-91.5775000000000006
11
67.6796999999999969
21
-94.0304999999999893
0
LINE
8
LYELLOW
6
CONTINUOUS
10
67.7197000000000031
20
-87.0694999999999908
11
67.7197000000000031
21
-89.4975000000000023
0
LINE
8
LYELLOW
6
CONTINUOUS
10
67.7197000000000031
20
-91.5775000000000006
11
67.7197000000000031
21
-94.0054999999999978
0
LINE
8
LYELLOW
6
CONTINUOUS
10
67.7596999999999952
20
-87.0944999999999965
11
67.7596999999999952
21
-89.4975000000000023
0
LINE
8
LYELLOW
6
CONTINUOUS
10
67.7596999999999952
20
-91.5775000000000006
11
67.7596999999999952
21
-93.9804999999999922
0
LINE
8
LYELLOW
6
CONTINUOUS
10
67.7997000000000014
20
-87.1195000000000022
11
67.7997000000000014
21
-89.4975000000000023
0
LINE
8
LYELLOW
6
CONTINUOUS
10
67.7997000000000014
20
-91.5775000000000006
11
67.7997000000000014
21
-93.9555000000000007
0
LINE
8
LYELLOW
6
CONTINUOUS
10
67.8396999999999935
20
-87.1454999999999984
11
67.8396999999999935
21
-89.4975000000000023
0
LINE
8
LYELLOW
6
CONTINUOUS
10
67.8396999999999935
20
-91.5775000000000006
11
67.8396999999999935
21
-93.9294999999999902
0
LINE
8
LYELLOW
6
CONTINUOUS
10
67.8796999999999997
20
-87.1724999999999994
11
67.8796999999999997
21
-89.4975000000000023
0
LINE
8
LYELLOW
6
CONTINUOUS
10
67.8796999999999997
20
-91.5775000000000006
11
67.8796999999999997
21
-93.9024999999999892
0
LINE
8
LYELLOW
6
CONTINUOUS
10
67.9196999999999917
20
-87.200499999999991
11
67.9196999999999917
21
-89.4975000000000023
0
LINE
8
LYELLOW
6
CONTINUOUS
10
67.9196999999999917
20
-91.5775000000000006
11
67.9196999999999917
21
-93.8744999999999976
0
LINE
8
LYELLOW
6
CONTINUOUS
10
67.959699999999998
20
-87.2284999999999968
11
67.959699999999998
21
-89.4975000000000023
0
LINE
8
LYELLOW
6
CONTINUOUS
10
67.959699999999998
20
-91.5775000000000006
11
67.959699999999998
21
-93.8464999999999918
0
LINE
8
LYELLOW
6
CONTINUOUS
10
67.99969999999999
20
-87.2574999999999932
11
67.99969999999999
21
-89.4975000000000023
0
LINE
8
LYELLOW
6
CONTINUOUS
10
67.99969999999999
20
-91.5775000000000006
11
67.99969999999999
21
-93.8174999999999955
0
LINE
8
LYELLOW
6
CONTINUOUS
10
68.0396999999999963
20
-87.2874999999999943
11
68.0396999999999963
21
-89.4975000000000023
0
LINE
8
LYELLOW
6
CONTINUOUS
10
68.0396999999999963
20
-91.5775000000000006
11
68.0396999999999963
21
-93.7874999999999943
0
LINE
8
LYELLOW
6
CONTINUOUS
10
68.0797000000000025
20
-87.3185000000000002
11
68.0797000000000025
21
-89.4975000000000023
0
LINE
8
LYELLOW
6
CONTINUOUS
10
68.0797000000000025
20
-91.5775000000000006
11
68.0797000000000025
21
-93.7565000000000026
0
LINE
8
LYELLOW
6
CONTINUOUS
10
68.1196999999999946
20
-87.3494999999999919
11
68.1196999999999946
21
-89.4975000000000023
0
LINE
8
LYELLOW
6
CONTINUOUS
10
68.1196999999999946
20
-91.5775000000000006
11
68.1196999999999946
21
-93.7254999999999967
0
LINE
8
LYELLOW
6
CONTINUOUS
10
68.1597000000000008
20
-87.3815000000000026
11
68.1597000000000008
21
-89.4975000000000023
0
LINE
8
LYELLOW
6
CONTINUOUS
10
68.1597000000000008
20
-91.5775000000000006
11
68.1597000000000008
21
-93.6935000000000002
0
LINE
8
LYELLOW
6
CONTINUOUS
10
68.1996999999999929
20
-87.4144999999999897
11
68.1996999999999929
21
-89.4975000000000023
0
LINE
8
LYELLOW
6
CONTINUOUS
10
68.1996999999999929
20
-91.5775000000000006
11
68.1996999999999929
21
-93.660499999999999
0
LINE
8
LYELLOW
6
CONTINUOUS
10
68.2396999999999991
20
-87.4484999999999957
11
68.2396999999999991
21
-89.4975000000000023
0
LINE
8
LYELLOW
6
CONTINUOUS
10
68.2396999999999991
20
-91.5775000000000006
11
68.2396999999999991
21
-93.626499999999993
0
LINE
8
LYELLOW
6
CONTINUOUS
10
68.2796999999999912
20
-87.4825000000000017
11
68.2796999999999912
21
-89.4975000000000023
0
LINE
8
LYELLOW
6
CONTINUOUS
10
68.2796999999999912
20
-91.5775000000000006
11
68.2796999999999912
21
-93.5925000000000011
0
LINE
8
LYELLOW
6
CONTINUOUS
10
68.3196999999999974
20
-87.5185000000000031
11
68.3196999999999974
21
-89.4975000000000023
0
LINE
8
LYELLOW
6
CONTINUOUS
10
68.3196999999999974
20
-91.5775000000000006
11
68.3196999999999974
21
-93.5564999999999998
0
LINE
8
LYELLOW
6
CONTINUOUS
10
68.3597000000000037
20
-87.555499999999995
11
68.3597000000000037
21
-93.5194999999999936
0
LINE
8
LYELLOW
6
CONTINUOUS
10
68.3996999999999957
20
-87.5925000000000011
11
68.3996999999999957
21
-93.4825000000000017
0
LINE
8
LYELLOW
6
CONTINUOUS
10
68.439700000000002
20
-87.6315000000000026
11
68.439700000000002
21
-93.4435000000000002
0
LINE
8
LYELLOW
6
CONTINUOUS
10
68.479699999999994
20
-87.6704999999999899
11
68.479699999999994
21
-93.4044999999999987
0
LINE
8
LYELLOW
6
CONTINUOUS
10
68.5197000000000003
20
-87.7115000000000009
11
68.5197000000000003
21
-93.3635000000000019
0
LINE
8
LYELLOW
6
CONTINUOUS
10
68.5596999999999923
20
-87.7535000000000025
11
68.5596999999999923
21
-93.3215000000000003
0
LINE
8
LYELLOW
6
CONTINUOUS
10
68.5996999999999986
20
-87.7964999999999947
11
68.5996999999999986
21
-93.278499999999994
0
LINE
8
LYELLOW
6
CONTINUOUS
10
68.6396999999999906
20
-87.8414999999999964
11
68.6396999999999906
21
-93.2334999999999923
0
LINE
8
LYELLOW
6
CONTINUOUS
10
68.6796999999999969
20
-87.8864999999999981
11
68.6796999999999969
21
-93.1884999999999906
0
LINE
8
LYELLOW
6
CONTINUOUS
10
68.7197000000000031
20
-87.9334999999999951
11
68.7197000000000031
21
-93.1414999999999935
0
LINE
8
LYELLOW
6
CONTINUOUS
10
68.7596999999999952
20
-87.9825000000000017
11
68.7596999999999952
21
-93.0925000000000011
0
LINE
8
LYELLOW
6
CONTINUOUS
10
68.7997000000000014
20
-88.0324999999999989
11
68.7997000000000014
21
-93.0424999999999898
0
LINE
8
LYELLOW
6
CONTINUOUS
10
68.8396999999999935
20
-88.0844999999999914
11
68.8396999999999935
21
-92.9904999999999973
0
LINE
8
LYELLOW
6
CONTINUOUS
10
68.8796999999999997
20
-88.1375000000000028
11
68.8796999999999997
21
-92.9375
0
LINE
8
LYELLOW
6
CONTINUOUS
10
68.9196999999999917
20
-88.1935000000000002
11
68.9196999999999917
21
-92.8815000000000026
0
LINE
8
LYELLOW
6
CONTINUOUS
10
68.959699999999998
20
-88.2505000000000024
11
68.959699999999998
21
-92.8245000000000005
0
LINE
8
LYELLOW
6
CONTINUOUS
10
68.99969999999999
20
-88.3104999999999905
11
68.99969999999999
21
-92.7644999999999982
0
LINE
8
LYELLOW
6
CONTINUOUS
10
69.0396999999999963
20
-88.3725000000000023
11
69.0396999999999963
21
-92.7025000000000006
0
LINE
8
LYELLOW
6
CONTINUOUS
10
69.0797000000000025
20
-88.4364999999999952
11
69.0797000000000025
21
-92.6384999999999934
0
LINE
8
LYELLOW
6
CONTINUOUS
10
69.1196999999999946
20
-88.5035000000000025
11
69.1196999999999946
21
-92.5715000000000003
0
LINE
8
LYELLOW
6
CONTINUOUS
10
69.1597000000000008
20
-88.5734999999999957
11
69.1597000000000008
21
-92.501499999999993
0
LINE
8
LYELLOW
6
CONTINUOUS
10
69.1996999999999929
20
-88.6474999999999937
11
69.1996999999999929
21
-92.4274999999999949
0
LINE
8
LYELLOW
6
CONTINUOUS
10
69.2396999999999991
20
-88.7244999999999919
11
69.2396999999999991
21
-92.3504999999999967
0
LINE
8
LYELLOW
6
CONTINUOUS
10
69.2796999999999912
20
-88.8064999999999998
11
69.2796999999999912
21
-92.2684999999999889
0
LINE
8
LYELLOW
6
CONTINUOUS
10
69.3196999999999974
20
-88.8935000000000031
11
69.3196999999999974
21
-92.1814999999999998
0
LINE
8
LYELLOW
6
CONTINUOUS
10
69.3597000000000037
20
-88.9855000000000018
11
69.3597000000000037
21
-92.089500000000001
0
LINE
8
LYELLOW
6
CONTINUOUS
10
69.3996999999999957
20
-89.0844999999999914
11
69.3996999999999957
21
-91.9904999999999973
0
LINE
8
LYELLOW
6
CONTINUOUS
10
69.439700000000002
20
-89.1914999999999907
11
69.439700000000002
21
-91.883499999999998
0
LINE
8
LYELLOW
6
CONTINUOUS
10
69.479699999999994
20
-89.3094999999999999
11
69.479699999999994
21
-91.7654999999999887
0
LINE
8
LYELLOW
6
CONTINUOUS
10
69.5197000000000003
20
-89.4405000000000001
11
69.5197000000000003
21
-91.6345000000000027
0
LINE
8
LYELLOW
6
CONTINUOUS
10
69.5596999999999923
20
-89.5904999999999916
11
69.5596999999999923
21
-91.484499999999997
0
LINE
8
LYELLOW
6
CONTINUOUS
10
69.5996999999999986
20
-89.7694999999999936
11
69.5996999999999986
21
-91.305499999999995
0
LINE
8
LYELLOW
6
CONTINUOUS
10
69.6396999999999906
20
-90.0044999999999931
11
69.6396999999999906
21
-91.0704999999999956
0
CIRCLE
8
LYELLOW
10
65.5596999999999923
20
-90.5374999999999943
40
4.1200000000000001
0
LINE
8
LYELLOW
6
CONTINUOUS
10
48.5549999999999997
20
-86.6674999999999898
11
48.5549999999999997
21
-94.4074999999999989
0
LINE
8
LYELLOW
6
CONTINUOUS
10
48.5549999999999997
20
-94.4074999999999989
11
53.0549999999999997
21
-94.4074999999999989
0
LINE
8
LYELLOW
6
CONTINUOUS
10
49.8049999999999997
20
-86.6674999999999898
11
48.5549999999999997
21
-86.6674999999999898
0
LINE
8
LYELLOW
6
CONTINUOUS
10
53.0549999999999997
20
-86.6674999999999898
11
51.8049999999999997
21
-86.6674999999999898
0
LINE
8
LYELLOW
6
CONTINUOUS
10
53.0549999999999997
20
-94.4074999999999989
11
53.0549999999999997
21
-86.6674999999999898
0
ARC
8
LYELLOW
10
50.8049999999999997
20
-86.6674999999999898
40
1.
50
-180.00000000
51
-0.00000000
0
LINE
8
LYELLOW
6
CONTINUOUS
10
63.5849999999999937
20
-58.342499999999994
11
98.3249999999999886
21
-58.342499999999994
0
LINE
8
LYELLOW
6
CONTINUOUS
10
98.3249999999999886
20
-58.342499999999994
11
98.3249999999999886
21
-73.582499999999996
0
LINE
8
LYELLOW
6
CONTINUOUS
10
98.3249999999999886
20
-73.582499999999996
11
63.5849999999999937
21
-73.582499999999996
0
LINE
8
LYELLOW
6
CONTINUOUS
10
63.5849999999999937
20
-73.582499999999996
11
63.5849999999999937
21
-58.342499999999994
0
LINE
8
LYELLOW
6
CONTINUOUS
10
112.5999999999999943
20
-56.5574999999999974
11
113.9799999999999898
21
-56.5574999999999974
0
LINE
8
LYELLOW
6
CONTINUOUS
10
112.5999999999999943
20
-57.9375
11
112.5999999999999943
21
-56.5574999999999974
0
LINE
8
LYELLOW
6
CONTINUOUS
10
112.5999999999999943
20
-59.207499999999996
11
112.5999999999999943
21
-61.8574999999999946
0
LINE
8
LYELLOW
6
CONTINUOUS
10
112.5999999999999943
20
-59.207499999999996
11
115.3599999999999994
21
-59.207499999999996
0
LINE
8
LYELLOW
6
CONTINUOUS
10
112.5999999999999943
20
-61.8574999999999946
11
115.3599999999999994
21
-61.8574999999999946
0
LINE
8
LYELLOW
6
CONTINUOUS
10
115.3599999999999994
20
-59.207499999999996
11
115.3599999999999994
21
-61.8574999999999946
0
LINE
8
LYELLOW
6
CONTINUOUS
10
61.904999999999994
20
-97.9675000000000011
11
68.4449999999999932
21
-97.9675000000000011
0
LINE
8
LYELLOW
6
CONTINUOUS
10
61.904999999999994
20
-98.2974999999999994
11
61.904999999999994
21
-97.9675000000000011
0
LINE
8
LYELLOW
6
CONTINUOUS
10
61.904999999999994
20
-100.3774999999999977
11
61.904999999999994
21
-100.707499999999996
0
LINE
8
LYELLOW
6
CONTINUOUS
10
61.904999999999994
20
-100.707499999999996
11
68.4449999999999932
21
-100.707499999999996
0
LINE
8
LYELLOW
6
CONTINUOUS
10
68.4449999999999932
20
-97.9675000000000011
11
68.4449999999999932
21
-98.2974999999999994
0
LINE
8
LYELLOW
6
CONTINUOUS
10
68.4449999999999932
20
-100.707499999999996
11
68.4449999999999932
21
-100.3774999999999977
0
LINE
8
LYELLOW
6
CONTINUOUS
10
48.2349999999999994
20
-65.9624999999999915
11
49.2549999999999955
21
-65.9624999999999915
0
LINE
8
LYELLOW
6
CONTINUOUS
10
50.0349999999999966
20
-64.4924999999999926
11
50.0349999999999966
21
-67.4324999999999903
0
LINE
8
LYELLOW
6
CONTINUOUS
10
50.1550000000000011
20
-64.4924999999999926
11
50.1550000000000011
21
-67.4324999999999903
0
LINE
8
LYELLOW
6
CONTINUOUS
10
50.2749999999999986
20
-64.4924999999999926
11
50.2749999999999986
21
-67.4324999999999903
0
LINE
8
LYELLOW
6
CONTINUOUS
10
55.7149999999999963
20
-65.9624999999999915
11
54.6950000000000003
21
-65.9624999999999915
0
LINE
8
LYELLOW
6
CONTINUOUS
10
49.2549999999999955
20
-64.4924999999999926
11
54.6950000000000003
21
-64.4924999999999926
0
LINE
8
LYELLOW
6
CONTINUOUS
10
54.6950000000000003
20
-64.4924999999999926
11
54.6950000000000003
21
-67.4324999999999903
0
LINE
8
LYELLOW
6
CONTINUOUS
10
54.6950000000000003
20
-67.4324999999999903
11
49.2549999999999955
21
-67.4324999999999903
0
LINE
8
LYELLOW
6
CONTINUOUS
10
49.2549999999999955
20
-67.4324999999999903
11
49.2549999999999955
21
-64.4924999999999926
0
LINE
8
LYELLOW
6
CONTINUOUS
10
108.8999999999999915
20
-43.3524999999999991
11
108.8999999999999915
21
-50.9724999999999966
0
LINE
8
LYELLOW
6
CONTINUOUS
10
108.8999999999999915
20
-50.9724999999999966
11
119.0599999999999881
21
-50.9724999999999966
0
LINE
8
LYELLOW
6
CONTINUOUS
10
119.0599999999999881
20
-43.3524999999999991
11
108.8999999999999915
21
-43.3524999999999991
0
LINE
8
LYELLOW
6
CONTINUOUS
10
119.0599999999999881
20
-49.7025000000000006
11
108.8999999999999915
21
-49.7025000000000006
0
LINE
8
LYELLOW
6
CONTINUOUS
10
119.0599999999999881
20
-50.9724999999999966
11
119.0599999999999881
21
-43.3524999999999991
0
LINE
8
LYELLOW
6
CONTINUOUS
10
74.99969999999999
20
-88.227499999999992
11
85.2197000000000031
21
-88.227499999999992
0
LINE
8
LYELLOW
6
CONTINUOUS
10
74.99969999999999
20
-89.6075000000000017
11
85.2197000000000031
21
-89.6075000000000017
0
LINE
8
LYELLOW
6
CONTINUOUS
10
74.99969999999999
20
-92.8474999999999966
11
74.99969999999999
21
-88.227499999999992
0
LINE
8
LYELLOW
6
CONTINUOUS
10
78.2596999999999952
20
-88.227499999999992
11
78.2596999999999952
21
-89.6075000000000017
0
LINE
8
LYELLOW
6
CONTINUOUS
10
81.959699999999998
20
-88.227499999999992
11
81.959699999999998
21
-89.6075000000000017
0
LINE
8
LYELLOW
6
CONTINUOUS
10
85.2197000000000031
20
-88.227499999999992
11
85.2197000000000031
21
-92.8474999999999966
0
LINE
8
LYELLOW
6
CONTINUOUS
10
85.2197000000000031
20
-92.8474999999999966
11
74.99969999999999
21
-92.8474999999999966
0
LINE
8
WHITE
6
CONTINUOUS
10
20.
20
-20.
11
124.
21
-20.
0
LINE
8
WHITE
6
CONTINUOUS
10
124.
20
-20.
11
124.
21
-124.
0
LINE
8
WHITE
6
CONTINUOUS
10
124.
20
-124.
11
20.
21
-124.
0
LINE
8
WHITE
6
CONTINUOUS
10
20.
20
-124.
11
20.
21
-20.
  0
ENDSEC
  0
EOF
