%TF.GenerationSoftware,KiCad,Pcbnew,9.0.8+dfsg-1*%
%TF.CreationDate,2026-06-15T21:06:06+02:00*%
%TF.ProjectId,mosfet_test,6d6f7366-6574-45f7-9465-73742e6b6963,rev?*%
%TF.SameCoordinates,Original*%
%TF.FileFunction,Legend,Top*%
%TF.FilePolarity,Positive*%
%FSLAX46Y46*%
G04 Gerber Fmt 4.6, Leading zero omitted, Abs format (unit mm)*
G04 Created by KiCad (PCBNEW 9.0.8+dfsg-1) date 2026-06-15 21:06:06*
%MOMM*%
%LPD*%
G01*
G04 APERTURE LIST*
%ADD10C,0.150000*%
%ADD11C,0.120000*%
G04 APERTURE END LIST*
D10*
X97680476Y-63331019D02*
X97680476Y-62331019D01*
X97680476Y-62331019D02*
X98013809Y-63045304D01*
X98013809Y-63045304D02*
X98347142Y-62331019D01*
X98347142Y-62331019D02*
X98347142Y-63331019D01*
X99347142Y-63331019D02*
X98775714Y-63331019D01*
X99061428Y-63331019D02*
X99061428Y-62331019D01*
X99061428Y-62331019D02*
X98966190Y-62473876D01*
X98966190Y-62473876D02*
X98870952Y-62569114D01*
X98870952Y-62569114D02*
X98775714Y-62616733D01*
X59248333Y-77088519D02*
X58915000Y-76612328D01*
X58676905Y-77088519D02*
X58676905Y-76088519D01*
X58676905Y-76088519D02*
X59057857Y-76088519D01*
X59057857Y-76088519D02*
X59153095Y-76136138D01*
X59153095Y-76136138D02*
X59200714Y-76183757D01*
X59200714Y-76183757D02*
X59248333Y-76278995D01*
X59248333Y-76278995D02*
X59248333Y-76421852D01*
X59248333Y-76421852D02*
X59200714Y-76517090D01*
X59200714Y-76517090D02*
X59153095Y-76564709D01*
X59153095Y-76564709D02*
X59057857Y-76612328D01*
X59057857Y-76612328D02*
X58676905Y-76612328D01*
X60200714Y-77088519D02*
X59629286Y-77088519D01*
X59915000Y-77088519D02*
X59915000Y-76088519D01*
X59915000Y-76088519D02*
X59819762Y-76231376D01*
X59819762Y-76231376D02*
X59724524Y-76326614D01*
X59724524Y-76326614D02*
X59629286Y-76374233D01*
X74018333Y-77088519D02*
X73685000Y-76612328D01*
X73446905Y-77088519D02*
X73446905Y-76088519D01*
X73446905Y-76088519D02*
X73827857Y-76088519D01*
X73827857Y-76088519D02*
X73923095Y-76136138D01*
X73923095Y-76136138D02*
X73970714Y-76183757D01*
X73970714Y-76183757D02*
X74018333Y-76278995D01*
X74018333Y-76278995D02*
X74018333Y-76421852D01*
X74018333Y-76421852D02*
X73970714Y-76517090D01*
X73970714Y-76517090D02*
X73923095Y-76564709D01*
X73923095Y-76564709D02*
X73827857Y-76612328D01*
X73827857Y-76612328D02*
X73446905Y-76612328D01*
X74399286Y-76183757D02*
X74446905Y-76136138D01*
X74446905Y-76136138D02*
X74542143Y-76088519D01*
X74542143Y-76088519D02*
X74780238Y-76088519D01*
X74780238Y-76088519D02*
X74875476Y-76136138D01*
X74875476Y-76136138D02*
X74923095Y-76183757D01*
X74923095Y-76183757D02*
X74970714Y-76278995D01*
X74970714Y-76278995D02*
X74970714Y-76374233D01*
X74970714Y-76374233D02*
X74923095Y-76517090D01*
X74923095Y-76517090D02*
X74351667Y-77088519D01*
X74351667Y-77088519D02*
X74970714Y-77088519D01*
X38696666Y-71138519D02*
X38696666Y-71852804D01*
X38696666Y-71852804D02*
X38649047Y-71995661D01*
X38649047Y-71995661D02*
X38553809Y-72090900D01*
X38553809Y-72090900D02*
X38410952Y-72138519D01*
X38410952Y-72138519D02*
X38315714Y-72138519D01*
X39696666Y-72138519D02*
X39125238Y-72138519D01*
X39410952Y-72138519D02*
X39410952Y-71138519D01*
X39410952Y-71138519D02*
X39315714Y-71281376D01*
X39315714Y-71281376D02*
X39220476Y-71376614D01*
X39220476Y-71376614D02*
X39125238Y-71424233D01*
X60246905Y-69988519D02*
X60246905Y-68988519D01*
X60246905Y-68988519D02*
X60485000Y-68988519D01*
X60485000Y-68988519D02*
X60627857Y-69036138D01*
X60627857Y-69036138D02*
X60723095Y-69131376D01*
X60723095Y-69131376D02*
X60770714Y-69226614D01*
X60770714Y-69226614D02*
X60818333Y-69417090D01*
X60818333Y-69417090D02*
X60818333Y-69559947D01*
X60818333Y-69559947D02*
X60770714Y-69750423D01*
X60770714Y-69750423D02*
X60723095Y-69845661D01*
X60723095Y-69845661D02*
X60627857Y-69940900D01*
X60627857Y-69940900D02*
X60485000Y-69988519D01*
X60485000Y-69988519D02*
X60246905Y-69988519D01*
X61770714Y-69988519D02*
X61199286Y-69988519D01*
X61485000Y-69988519D02*
X61485000Y-68988519D01*
X61485000Y-68988519D02*
X61389762Y-69131376D01*
X61389762Y-69131376D02*
X61294524Y-69226614D01*
X61294524Y-69226614D02*
X61199286Y-69274233D01*
X55643095Y-70358519D02*
X55643095Y-69358519D01*
X56214523Y-70358519D02*
X55785952Y-69787090D01*
X56214523Y-69358519D02*
X55643095Y-69929947D01*
X77619761Y-69403757D02*
X77524523Y-69356138D01*
X77524523Y-69356138D02*
X77429285Y-69260900D01*
X77429285Y-69260900D02*
X77286428Y-69118042D01*
X77286428Y-69118042D02*
X77191190Y-69070423D01*
X77191190Y-69070423D02*
X77095952Y-69070423D01*
X77143571Y-69308519D02*
X77048333Y-69260900D01*
X77048333Y-69260900D02*
X76953095Y-69165661D01*
X76953095Y-69165661D02*
X76905476Y-68975185D01*
X76905476Y-68975185D02*
X76905476Y-68641852D01*
X76905476Y-68641852D02*
X76953095Y-68451376D01*
X76953095Y-68451376D02*
X77048333Y-68356138D01*
X77048333Y-68356138D02*
X77143571Y-68308519D01*
X77143571Y-68308519D02*
X77334047Y-68308519D01*
X77334047Y-68308519D02*
X77429285Y-68356138D01*
X77429285Y-68356138D02*
X77524523Y-68451376D01*
X77524523Y-68451376D02*
X77572142Y-68641852D01*
X77572142Y-68641852D02*
X77572142Y-68975185D01*
X77572142Y-68975185D02*
X77524523Y-69165661D01*
X77524523Y-69165661D02*
X77429285Y-69260900D01*
X77429285Y-69260900D02*
X77334047Y-69308519D01*
X77334047Y-69308519D02*
X77143571Y-69308519D01*
X78524523Y-69308519D02*
X77953095Y-69308519D01*
X78238809Y-69308519D02*
X78238809Y-68308519D01*
X78238809Y-68308519D02*
X78143571Y-68451376D01*
X78143571Y-68451376D02*
X78048333Y-68546614D01*
X78048333Y-68546614D02*
X77953095Y-68594233D01*
D11*
%TO.C,M1*%
X90620000Y-63876200D02*
X106360000Y-63876200D01*
X90620000Y-67496200D02*
X91860000Y-67496200D01*
X90620000Y-68496200D02*
X91860000Y-68496200D01*
X90620000Y-69796200D02*
X91860000Y-69796200D01*
X90620000Y-71916200D02*
X90620000Y-63876200D01*
X93440000Y-71916200D02*
X90620000Y-71916200D01*
X95620000Y-67496200D02*
X96928000Y-67496200D01*
X95620000Y-68496200D02*
X96928000Y-68496200D01*
X95620000Y-69796200D02*
X98197000Y-69796200D01*
X99283000Y-69796200D02*
X103197000Y-69796200D01*
X100552000Y-67496200D02*
X101928000Y-67496200D01*
X100552000Y-68496200D02*
X101928000Y-68496200D01*
X104283000Y-69796200D02*
X106360000Y-69796200D01*
X105552000Y-67496200D02*
X106360000Y-67496200D01*
X105552000Y-68496200D02*
X106360000Y-68496200D01*
X106360000Y-63876200D02*
X106360000Y-71916200D01*
X106360000Y-71916200D02*
X94040000Y-71916200D01*
X94180000Y-72526200D02*
X93300000Y-72526200D01*
X93740000Y-71916200D01*
X94180000Y-72526200D01*
G36*
X94180000Y-72526200D02*
G01*
X93300000Y-72526200D01*
X93740000Y-71916200D01*
X94180000Y-72526200D01*
G37*
%TO.C,R1*%
X56145000Y-77633700D02*
X62685000Y-77633700D01*
X56145000Y-77963700D02*
X56145000Y-77633700D01*
X56145000Y-80043700D02*
X56145000Y-80373700D01*
X56145000Y-80373700D02*
X62685000Y-80373700D01*
X62685000Y-77633700D02*
X62685000Y-77963700D01*
X62685000Y-80373700D02*
X62685000Y-80043700D01*
%TO.C,R2*%
X70915000Y-77633700D02*
X77455000Y-77633700D01*
X70915000Y-77963700D02*
X70915000Y-77633700D01*
X70915000Y-80043700D02*
X70915000Y-80373700D01*
X70915000Y-80373700D02*
X77455000Y-80373700D01*
X77455000Y-77633700D02*
X77455000Y-77963700D01*
X77455000Y-80373700D02*
X77455000Y-80043700D01*
%TO.C,J1*%
X37650000Y-68033700D02*
X37650000Y-65383700D01*
X40410000Y-65383700D02*
X37650000Y-65383700D01*
X40410000Y-68033700D02*
X37650000Y-68033700D01*
X40410000Y-68033700D02*
X40410000Y-65383700D01*
X40410000Y-69303700D02*
X40410000Y-70683700D01*
X40410000Y-70683700D02*
X39030000Y-70683700D01*
%TO.C,D1*%
X57245000Y-72003700D02*
X58265000Y-72003700D01*
X59045000Y-70533700D02*
X59045000Y-73473700D01*
X59165000Y-70533700D02*
X59165000Y-73473700D01*
X59285000Y-70533700D02*
X59285000Y-73473700D01*
X64725000Y-72003700D02*
X63705000Y-72003700D01*
X58265000Y-70533700D02*
X63705000Y-70533700D01*
X63705000Y-73473700D01*
X58265000Y-73473700D01*
X58265000Y-70533700D01*
%TO.C,Q1*%
X72605000Y-69693700D02*
X82825000Y-69693700D01*
X72605000Y-71073700D02*
X82825000Y-71073700D01*
X72605000Y-74313700D02*
X72605000Y-69693700D01*
X75865000Y-69693700D02*
X75865000Y-71073700D01*
X79565000Y-69693700D02*
X79565000Y-71073700D01*
X82825000Y-69693700D02*
X82825000Y-74313700D01*
X82825000Y-74313700D02*
X72605000Y-74313700D01*
%TD*%
M02*
