%TF.GenerationSoftware,KiCad,Pcbnew,9.0.8+dfsg-1*%
%TF.CreationDate,2026-06-15T21:06:06+02:00*%
%TF.ProjectId,mosfet_test,6d6f7366-6574-45f7-9465-73742e6b6963,rev?*%
%TF.SameCoordinates,Original*%
%TF.FileFunction,Copper,L2,Bot*%
%TF.FilePolarity,Positive*%
%FSLAX46Y46*%
G04 Gerber Fmt 4.6, Leading zero omitted, Abs format (unit mm)*
G04 Created by KiCad (PCBNEW 9.0.8+dfsg-1) date 2026-06-15 21:06:06*
%MOMM*%
%LPD*%
G01*
G04 APERTURE LIST*
G04 Aperture macros list*
%AMRoundRect*
0 Rectangle with rounded corners*
0 $1 Rounding radius*
0 $2 $3 $4 $5 $6 $7 $8 $9 X,Y pos of 4 corners*
0 Add a 4 corners polygon primitive as box body*
4,1,4,$2,$3,$4,$5,$6,$7,$8,$9,$2,$3,0*
0 Add four circle primitives for the rounded corners*
1,1,$1+$1,$2,$3*
1,1,$1+$1,$4,$5*
1,1,$1+$1,$6,$7*
1,1,$1+$1,$8,$9*
0 Add four rect primitives between the rounded corners*
20,1,$1+$1,$2,$3,$4,$5,0*
20,1,$1+$1,$4,$5,$6,$7,0*
20,1,$1+$1,$6,$7,$8,$9,0*
20,1,$1+$1,$8,$9,$2,$3,0*%
G04 Aperture macros list end*
%TA.AperFunction,ComponentPad*%
%ADD10RoundRect,0.250001X-1.149999X-1.149999X1.149999X-1.149999X1.149999X1.149999X-1.149999X1.149999X0*%
%TD*%
%TA.AperFunction,ComponentPad*%
%ADD11C,2.800000*%
%TD*%
%TA.AperFunction,ComponentPad*%
%ADD12C,1.600000*%
%TD*%
%TA.AperFunction,ComponentPad*%
%ADD13R,1.700000X1.700000*%
%TD*%
%TA.AperFunction,ComponentPad*%
%ADD14C,1.700000*%
%TD*%
%TA.AperFunction,ComponentPad*%
%ADD15RoundRect,0.249999X-0.850001X-0.850001X0.850001X-0.850001X0.850001X0.850001X-0.850001X0.850001X0*%
%TD*%
%TA.AperFunction,ComponentPad*%
%ADD16C,2.200000*%
%TD*%
%TA.AperFunction,ComponentPad*%
%ADD17R,1.700000X2.000000*%
%TD*%
%TA.AperFunction,ComponentPad*%
%ADD18O,1.700000X2.000000*%
%TD*%
%TA.AperFunction,Conductor*%
%ADD19C,1.000000*%
%TD*%
G04 APERTURE END LIST*
D10*
%TO.P,M1,1*%
%TO.N,VPLUS*%
X93740000Y-67996200D03*
D11*
%TO.P,M1,2*%
%TO.N,/DRAIN*%
X98740000Y-67996200D03*
%TO.P,M1,3*%
%TO.N,GND*%
X103740000Y-67996200D03*
%TD*%
D12*
%TO.P,R1,1*%
%TO.N,/GATE_IN*%
X55605000Y-79003700D03*
%TO.P,R1,2*%
%TO.N,/GATE*%
X63225000Y-79003700D03*
%TD*%
%TO.P,R2,1*%
%TO.N,/GATE*%
X70375000Y-79003700D03*
%TO.P,R2,2*%
%TO.N,GND*%
X77995000Y-79003700D03*
%TD*%
D13*
%TO.P,J1,1*%
%TO.N,/GATE_IN*%
X39030000Y-69303700D03*
D14*
%TO.P,J1,2*%
%TO.N,GND*%
X39030000Y-66763700D03*
%TD*%
D15*
%TO.P,D1,1*%
%TO.N,VPLUS*%
X55905000Y-72003700D03*
D16*
%TO.P,D1,2*%
%TO.N,/DRAIN*%
X66065000Y-72003700D03*
%TD*%
D17*
%TO.P,Q1,1*%
%TO.N,/GATE*%
X75175000Y-72953700D03*
D18*
%TO.P,Q1,2*%
%TO.N,/DRAIN*%
X77715000Y-72953700D03*
%TO.P,Q1,3*%
%TO.N,GND*%
X80255000Y-72953700D03*
%TD*%
D19*
%TO.N,/DRAIN*%
X77715000Y-70652000D02*
X82839300Y-70652000D01*
X77715000Y-73264800D02*
X77715000Y-75255400D01*
X77715000Y-73264800D02*
X77715000Y-72953700D01*
X77715000Y-72953700D02*
X77715000Y-70652000D01*
X82908800Y-70721500D02*
X96014700Y-70721500D01*
X69316700Y-75255400D02*
X66065000Y-72003700D01*
X77715000Y-75255400D02*
X69316700Y-75255400D01*
X96014700Y-70721500D02*
X98740000Y-67996200D01*
X82839300Y-70652000D02*
X82908800Y-70721500D01*
%TO.N,/GATE*%
X69659200Y-69589600D02*
X65064900Y-69589600D01*
X75175000Y-72953700D02*
X73023300Y-72953700D01*
X70375000Y-79003700D02*
X63225000Y-79003700D01*
X63225000Y-71429500D02*
X63225000Y-79003700D01*
X73023300Y-72953700D02*
X69659200Y-69589600D01*
X65064900Y-69589600D02*
X63225000Y-71429500D01*
%TO.N,/GATE_IN*%
X39030000Y-69303700D02*
X41181700Y-69303700D01*
X50881700Y-79003700D02*
X55605000Y-79003700D01*
X41181700Y-69303700D02*
X50881700Y-79003700D01*
%TO.N,GND*%
X80255000Y-76743700D02*
X77995000Y-79003700D01*
X80255000Y-72953700D02*
X80255000Y-76743700D01*
X75879300Y-81119400D02*
X60736400Y-81119400D01*
X46380700Y-66763700D02*
X39030000Y-66763700D01*
X60736400Y-81119400D02*
X46380700Y-66763700D01*
X98782500Y-72953700D02*
X103740000Y-67996200D01*
X77995000Y-79003700D02*
X75879300Y-81119400D01*
X80255000Y-72953700D02*
X98782500Y-72953700D01*
%TO.N,VPLUS*%
X60123600Y-67785100D02*
X55905000Y-72003700D01*
X93740000Y-67996200D02*
X93528900Y-67785100D01*
X93528900Y-67785100D02*
X60123600Y-67785100D01*
%TD*%
%TA.AperFunction,NonConductor*%
G36*
X123442539Y-20520185D02*
G01*
X123488294Y-20572989D01*
X123499500Y-20624500D01*
X123499500Y-123375500D01*
X123479815Y-123442539D01*
X123427011Y-123488294D01*
X123375500Y-123499500D01*
X20624500Y-123499500D01*
X20557461Y-123479815D01*
X20511706Y-123427011D01*
X20500500Y-123375500D01*
X20500500Y-66633797D01*
X37379500Y-66633797D01*
X37379500Y-66893602D01*
X37420140Y-67150193D01*
X37500422Y-67397276D01*
X37618368Y-67628754D01*
X37663213Y-67690479D01*
X37686693Y-67756285D01*
X37670867Y-67824339D01*
X37650577Y-67851045D01*
X37550183Y-67951439D01*
X37454211Y-68104176D01*
X37394631Y-68274445D01*
X37394630Y-68274450D01*
X37379500Y-68408739D01*
X37379500Y-70198660D01*
X37394630Y-70332949D01*
X37394631Y-70332954D01*
X37454211Y-70503223D01*
X37547168Y-70651162D01*
X37550184Y-70655962D01*
X37677738Y-70783516D01*
X37830478Y-70879489D01*
X37886186Y-70898982D01*
X38000745Y-70939068D01*
X38000750Y-70939069D01*
X38077933Y-70947765D01*
X38135040Y-70954199D01*
X38135043Y-70954200D01*
X38135046Y-70954200D01*
X39924957Y-70954200D01*
X39924958Y-70954199D01*
X39992104Y-70946634D01*
X40059249Y-70939069D01*
X40059252Y-70939068D01*
X40059255Y-70939068D01*
X40229522Y-70879489D01*
X40382262Y-70783516D01*
X40509816Y-70655962D01*
X40509819Y-70655956D01*
X40514614Y-70651162D01*
X40575937Y-70617677D01*
X40645629Y-70622661D01*
X40689977Y-70651162D01*
X49886608Y-79847792D01*
X49886622Y-79847807D01*
X49889733Y-79850918D01*
X49889734Y-79850919D01*
X50034481Y-79995666D01*
X50034484Y-79995668D01*
X50034488Y-79995672D01*
X50104250Y-80046356D01*
X50200090Y-80115987D01*
X50319320Y-80176738D01*
X50382481Y-80208921D01*
X50382484Y-80208922D01*
X50564068Y-80267921D01*
X50577166Y-80272177D01*
X50779349Y-80304201D01*
X50779350Y-80304201D01*
X50989163Y-80304201D01*
X50989187Y-80304200D01*
X54631762Y-80304200D01*
X54698801Y-80323885D01*
X54704637Y-80327875D01*
X54766155Y-80372570D01*
X54872206Y-80426605D01*
X54990616Y-80486939D01*
X54990618Y-80486939D01*
X54990621Y-80486941D01*
X55230215Y-80564790D01*
X55479038Y-80604200D01*
X55479039Y-80604200D01*
X55730961Y-80604200D01*
X55730962Y-80604200D01*
X55979785Y-80564790D01*
X56219379Y-80486941D01*
X56443845Y-80372570D01*
X56647656Y-80224493D01*
X56825793Y-80046356D01*
X56973870Y-79842545D01*
X57088241Y-79618079D01*
X57088243Y-79618074D01*
X57101160Y-79578320D01*
X57140597Y-79520644D01*
X57204955Y-79493445D01*
X57273801Y-79505359D01*
X57306772Y-79528956D01*
X59741308Y-81963492D01*
X59741322Y-81963507D01*
X59744433Y-81966618D01*
X59744434Y-81966619D01*
X59889181Y-82111366D01*
X59889184Y-82111368D01*
X59889188Y-82111372D01*
X60039368Y-82220482D01*
X60054790Y-82231687D01*
X60141635Y-82275937D01*
X60237181Y-82324621D01*
X60237184Y-82324622D01*
X60334521Y-82356248D01*
X60431866Y-82387877D01*
X60634048Y-82419900D01*
X60634049Y-82419900D01*
X75981651Y-82419900D01*
X75981652Y-82419900D01*
X76183835Y-82387877D01*
X76281176Y-82356248D01*
X76378519Y-82324620D01*
X76469714Y-82278153D01*
X76560911Y-82231687D01*
X76726519Y-82111366D01*
X78226409Y-80611473D01*
X78287730Y-80577990D01*
X78294649Y-80576689D01*
X78369785Y-80564790D01*
X78609379Y-80486941D01*
X78833845Y-80372570D01*
X79037656Y-80224493D01*
X79215793Y-80046356D01*
X79363870Y-79842545D01*
X79478241Y-79618079D01*
X79556090Y-79378485D01*
X79567984Y-79303387D01*
X79597911Y-79240257D01*
X79602758Y-79235125D01*
X81095150Y-77742732D01*
X81095157Y-77742727D01*
X81102217Y-77735667D01*
X81102219Y-77735666D01*
X81246966Y-77590919D01*
X81246968Y-77590915D01*
X81246971Y-77590913D01*
X81354718Y-77442610D01*
X81367287Y-77425310D01*
X81458014Y-77247248D01*
X81459919Y-77243845D01*
X81460220Y-77242919D01*
X81460221Y-77242918D01*
X81523477Y-77048234D01*
X81555500Y-76846051D01*
X81555500Y-76641348D01*
X81555500Y-74378200D01*
X81575185Y-74311161D01*
X81627989Y-74265406D01*
X81679500Y-74254200D01*
X98884851Y-74254200D01*
X98884852Y-74254200D01*
X99087035Y-74222177D01*
X99184376Y-74190548D01*
X99281719Y-74158920D01*
X99380181Y-74108751D01*
X99464111Y-74065987D01*
X99629719Y-73945666D01*
X103360701Y-70214681D01*
X103422022Y-70181198D01*
X103464560Y-70179425D01*
X103595772Y-70196700D01*
X103595779Y-70196700D01*
X103884221Y-70196700D01*
X103884228Y-70196700D01*
X104170217Y-70159049D01*
X104448845Y-70084391D01*
X104448857Y-70084385D01*
X104448860Y-70084385D01*
X104715336Y-69974008D01*
X104715339Y-69974006D01*
X104715345Y-69974004D01*
X104965156Y-69829775D01*
X105194004Y-69654174D01*
X105397974Y-69450204D01*
X105573575Y-69221356D01*
X105717804Y-68971545D01*
X105739679Y-68918735D01*
X105828185Y-68705060D01*
X105828187Y-68705054D01*
X105828191Y-68705045D01*
X105902849Y-68426417D01*
X105940500Y-68140428D01*
X105940500Y-67851972D01*
X105902849Y-67565983D01*
X105828191Y-67287355D01*
X105828186Y-67287345D01*
X105828185Y-67287339D01*
X105717808Y-67020863D01*
X105717800Y-67020847D01*
X105573579Y-66771051D01*
X105573575Y-66771044D01*
X105473227Y-66640268D01*
X105397975Y-66542197D01*
X105397969Y-66542190D01*
X105194009Y-66338230D01*
X105194002Y-66338224D01*
X104965164Y-66162631D01*
X104965162Y-66162629D01*
X104965156Y-66162625D01*
X104965151Y-66162622D01*
X104965148Y-66162620D01*
X104715352Y-66018399D01*
X104715336Y-66018391D01*
X104448860Y-65908014D01*
X104448848Y-65908010D01*
X104448845Y-65908009D01*
X104170217Y-65833351D01*
X104170211Y-65833350D01*
X104170206Y-65833349D01*
X103884238Y-65795701D01*
X103884233Y-65795700D01*
X103884228Y-65795700D01*
X103595772Y-65795700D01*
X103595766Y-65795700D01*
X103595761Y-65795701D01*
X103309793Y-65833349D01*
X103309786Y-65833350D01*
X103309783Y-65833351D01*
X103169387Y-65870970D01*
X103031155Y-65908009D01*
X103031139Y-65908014D01*
X102764663Y-66018391D01*
X102764647Y-66018399D01*
X102514851Y-66162620D01*
X102514835Y-66162631D01*
X102285997Y-66338224D01*
X102285990Y-66338230D01*
X102082030Y-66542190D01*
X102082024Y-66542197D01*
X101906431Y-66771035D01*
X101906420Y-66771051D01*
X101762199Y-67020847D01*
X101762191Y-67020863D01*
X101651814Y-67287339D01*
X101651809Y-67287355D01*
X101577152Y-67565980D01*
X101577149Y-67565993D01*
X101539501Y-67851961D01*
X101539500Y-67851978D01*
X101539500Y-68140421D01*
X101539501Y-68140438D01*
X101556773Y-68271633D01*
X101546007Y-68340668D01*
X101521515Y-68375499D01*
X101011764Y-68885250D01*
X100950441Y-68918735D01*
X100880749Y-68913751D01*
X100824816Y-68871879D01*
X100800399Y-68806415D01*
X100809522Y-68750116D01*
X100828187Y-68705054D01*
X100828191Y-68705045D01*
X100902849Y-68426417D01*
X100940500Y-68140428D01*
X100940500Y-67851972D01*
X100902849Y-67565983D01*
X100828191Y-67287355D01*
X100828186Y-67287345D01*
X100828185Y-67287339D01*
X100717808Y-67020863D01*
X100717800Y-67020847D01*
X100573579Y-66771051D01*
X100573575Y-66771044D01*
X100473227Y-66640268D01*
X100397975Y-66542197D01*
X100397969Y-66542190D01*
X100194009Y-66338230D01*
X100194002Y-66338224D01*
X99965164Y-66162631D01*
X99965162Y-66162629D01*
X99965156Y-66162625D01*
X99965151Y-66162622D01*
X99965148Y-66162620D01*
X99715352Y-66018399D01*
X99715336Y-66018391D01*
X99448860Y-65908014D01*
X99448848Y-65908010D01*
X99448845Y-65908009D01*
X99170217Y-65833351D01*
X99170211Y-65833350D01*
X99170206Y-65833349D01*
X98884238Y-65795701D01*
X98884233Y-65795700D01*
X98884228Y-65795700D01*
X98595772Y-65795700D01*
X98595766Y-65795700D01*
X98595761Y-65795701D01*
X98309793Y-65833349D01*
X98309786Y-65833350D01*
X98309783Y-65833351D01*
X98169387Y-65870970D01*
X98031155Y-65908009D01*
X98031139Y-65908014D01*
X97764663Y-66018391D01*
X97764647Y-66018399D01*
X97514851Y-66162620D01*
X97514835Y-66162631D01*
X97285997Y-66338224D01*
X97285990Y-66338230D01*
X97082030Y-66542190D01*
X97082024Y-66542197D01*
X96906431Y-66771035D01*
X96906420Y-66771051D01*
X96762199Y-67020847D01*
X96762191Y-67020863D01*
X96651814Y-67287339D01*
X96651809Y-67287355D01*
X96577152Y-67565980D01*
X96577149Y-67565993D01*
X96539501Y-67851961D01*
X96539500Y-67851978D01*
X96539500Y-68140421D01*
X96539501Y-68140438D01*
X96556773Y-68271632D01*
X96546007Y-68340667D01*
X96521515Y-68375498D01*
X96152180Y-68744834D01*
X96090857Y-68778319D01*
X96021166Y-68773335D01*
X95965232Y-68731464D01*
X95940815Y-68665999D01*
X95940499Y-68657153D01*
X95940499Y-66794597D01*
X95938179Y-66771044D01*
X95925300Y-66640267D01*
X95865231Y-66442246D01*
X95865229Y-66442243D01*
X95865229Y-66442241D01*
X95767686Y-66259751D01*
X95767684Y-66259749D01*
X95636410Y-66099789D01*
X95476450Y-65968515D01*
X95476448Y-65968513D01*
X95293958Y-65870970D01*
X95169937Y-65833349D01*
X95095933Y-65810900D01*
X95095931Y-65810899D01*
X95095933Y-65810899D01*
X94985220Y-65799995D01*
X94941607Y-65795700D01*
X94941603Y-65795700D01*
X92538397Y-65795700D01*
X92384068Y-65810899D01*
X92186041Y-65870970D01*
X92003551Y-65968513D01*
X92003549Y-65968515D01*
X91843589Y-66099789D01*
X91712315Y-66259749D01*
X91712313Y-66259751D01*
X91627165Y-66419053D01*
X91578203Y-66468898D01*
X91517807Y-66484600D01*
X60021248Y-66484600D01*
X59953854Y-66495274D01*
X59819064Y-66516623D01*
X59819061Y-66516623D01*
X59624382Y-66579879D01*
X59624381Y-66579879D01*
X59533184Y-66626345D01*
X59533185Y-66626346D01*
X59441988Y-66672813D01*
X59276378Y-66793136D01*
X56002632Y-70066881D01*
X55941309Y-70100366D01*
X55914951Y-70103200D01*
X55003395Y-70103200D01*
X54849067Y-70118399D01*
X54651042Y-70178469D01*
X54468545Y-70276017D01*
X54308589Y-70407289D01*
X54177317Y-70567245D01*
X54079769Y-70749742D01*
X54079768Y-70749744D01*
X54079768Y-70749745D01*
X54066095Y-70794820D01*
X54019700Y-70947765D01*
X54004500Y-71102094D01*
X54004500Y-72248953D01*
X53984815Y-72315992D01*
X53932011Y-72361747D01*
X53862853Y-72371691D01*
X53799297Y-72342666D01*
X53792819Y-72336634D01*
X47227921Y-65771736D01*
X47227920Y-65771735D01*
X47227919Y-65771734D01*
X47062311Y-65651413D01*
X46971114Y-65604946D01*
X46879919Y-65558480D01*
X46822038Y-65539673D01*
X46714616Y-65504769D01*
X46714614Y-65504769D01*
X46685235Y-65495223D01*
X46685233Y-65495222D01*
X46685228Y-65495221D01*
X46513557Y-65468031D01*
X46483052Y-65463200D01*
X46483051Y-65463200D01*
X40088304Y-65463200D01*
X40021265Y-65443515D01*
X40015419Y-65439518D01*
X39895054Y-65352068D01*
X39895053Y-65352067D01*
X39895051Y-65352066D01*
X39822764Y-65315234D01*
X39663576Y-65234122D01*
X39416493Y-65153840D01*
X39159902Y-65113200D01*
X39159897Y-65113200D01*
X38900103Y-65113200D01*
X38900098Y-65113200D01*
X38643506Y-65153840D01*
X38396423Y-65234122D01*
X38164945Y-65352068D01*
X37954774Y-65504766D01*
X37954771Y-65504769D01*
X37771071Y-65688468D01*
X37771066Y-65688474D01*
X37618368Y-65898645D01*
X37500422Y-66130123D01*
X37420140Y-66377206D01*
X37379500Y-66633797D01*
X20500500Y-66633797D01*
X20500500Y-20624500D01*
X20520185Y-20557461D01*
X20572989Y-20511706D01*
X20624500Y-20500500D01*
X123375500Y-20500500D01*
X123442539Y-20520185D01*
G37*
%TD.AperFunction*%
%TA.AperFunction,NonConductor*%
G36*
X91483102Y-69105285D02*
G01*
X91528857Y-69158089D01*
X91539466Y-69197447D01*
X91539501Y-69197802D01*
X91539501Y-69197806D01*
X91541821Y-69221364D01*
X91548073Y-69284847D01*
X91535053Y-69353493D01*
X91486988Y-69404203D01*
X91424670Y-69421000D01*
X83278816Y-69421000D01*
X83276485Y-69420630D01*
X83275275Y-69420949D01*
X83240498Y-69414931D01*
X83213171Y-69406052D01*
X83213170Y-69406051D01*
X83143832Y-69383522D01*
X82988520Y-69358923D01*
X82941652Y-69351500D01*
X77817352Y-69351500D01*
X77612648Y-69351500D01*
X77600065Y-69353493D01*
X77410465Y-69383522D01*
X77215776Y-69446781D01*
X77033386Y-69539715D01*
X76867786Y-69660028D01*
X76723028Y-69804786D01*
X76602715Y-69970386D01*
X76509781Y-70152776D01*
X76446522Y-70347465D01*
X76414500Y-70549648D01*
X76414500Y-71067137D01*
X76394815Y-71134176D01*
X76342011Y-71179931D01*
X76272853Y-71189875D01*
X76249547Y-71184179D01*
X76204260Y-71168333D01*
X76204249Y-71168330D01*
X76069960Y-71153200D01*
X76069954Y-71153200D01*
X74280046Y-71153200D01*
X74280039Y-71153200D01*
X74145750Y-71168330D01*
X74145745Y-71168331D01*
X73975476Y-71227911D01*
X73822737Y-71323884D01*
X73695184Y-71451437D01*
X73695182Y-71451440D01*
X73648654Y-71525488D01*
X73596319Y-71571779D01*
X73527265Y-71582426D01*
X73463417Y-71554050D01*
X73455980Y-71547196D01*
X71206066Y-69297281D01*
X71172581Y-69235958D01*
X71177565Y-69166266D01*
X71219437Y-69110333D01*
X71284901Y-69085916D01*
X71293747Y-69085600D01*
X91416063Y-69085600D01*
X91483102Y-69105285D01*
G37*
%TD.AperFunction*%
%TA.AperFunction,NonConductor*%
G36*
X99625864Y-70089528D02*
G01*
X99661517Y-70149616D01*
X99659024Y-70219442D01*
X99629050Y-70267964D01*
X98280134Y-71616881D01*
X98218811Y-71650366D01*
X98192453Y-71653200D01*
X97221547Y-71653200D01*
X97154508Y-71633515D01*
X97108753Y-71580711D01*
X97098809Y-71511553D01*
X97127834Y-71447997D01*
X97133866Y-71441519D01*
X97422185Y-71153200D01*
X98360702Y-70214681D01*
X98422023Y-70181198D01*
X98464561Y-70179425D01*
X98595772Y-70196700D01*
X98595779Y-70196700D01*
X98884221Y-70196700D01*
X98884228Y-70196700D01*
X99170217Y-70159049D01*
X99448845Y-70084391D01*
X99493916Y-70065721D01*
X99563385Y-70058253D01*
X99625864Y-70089528D01*
G37*
%TD.AperFunction*%
%TA.AperFunction,NonConductor*%
G36*
X69136192Y-70909785D02*
G01*
X69156834Y-70926419D01*
X70573081Y-72342666D01*
X71973635Y-73743219D01*
X72007120Y-73804542D01*
X72002136Y-73874234D01*
X71960264Y-73930167D01*
X71894800Y-73954584D01*
X71885954Y-73954900D01*
X69906747Y-73954900D01*
X69839708Y-73935215D01*
X69819066Y-73918581D01*
X68001819Y-72101334D01*
X67968334Y-72040011D01*
X67965500Y-72013653D01*
X67965500Y-71879141D01*
X67965500Y-71879135D01*
X67932982Y-71632135D01*
X67868502Y-71391493D01*
X67776066Y-71168332D01*
X67773169Y-71161338D01*
X67773164Y-71161328D01*
X67773164Y-71161327D01*
X67723958Y-71076099D01*
X67707486Y-71008199D01*
X67730339Y-70942172D01*
X67785261Y-70898982D01*
X67831346Y-70890100D01*
X69069153Y-70890100D01*
X69136192Y-70909785D01*
G37*
%TD.AperFunction*%
%TA.AperFunction,NonConductor*%
G36*
X45857692Y-68083885D02*
G01*
X45878334Y-68100519D01*
X55079744Y-77301928D01*
X55113229Y-77363251D01*
X55108245Y-77432943D01*
X55066373Y-77488876D01*
X55030383Y-77507539D01*
X55017276Y-77511797D01*
X54990616Y-77520460D01*
X54766154Y-77634830D01*
X54727801Y-77662695D01*
X54704646Y-77679518D01*
X54638842Y-77702998D01*
X54631762Y-77703200D01*
X51471746Y-77703200D01*
X51404707Y-77683515D01*
X51384065Y-77666881D01*
X42028921Y-68311736D01*
X42028915Y-68311731D01*
X41996965Y-68288518D01*
X41954299Y-68233188D01*
X41948320Y-68163575D01*
X41980926Y-68101780D01*
X42041764Y-68067423D01*
X42069850Y-68064200D01*
X45790653Y-68064200D01*
X45857692Y-68083885D01*
G37*
%TD.AperFunction*%
%TA.AperFunction,NonConductor*%
G36*
X64730703Y-73357564D02*
G01*
X64737181Y-73363596D01*
X64809218Y-73435633D01*
X64809225Y-73435639D01*
X65006873Y-73587299D01*
X65222623Y-73711862D01*
X65222638Y-73711869D01*
X65321825Y-73752953D01*
X65452793Y-73807202D01*
X65693435Y-73871682D01*
X65940435Y-73904200D01*
X66074953Y-73904200D01*
X66141992Y-73923885D01*
X66162634Y-73940519D01*
X68469481Y-76247366D01*
X68635089Y-76367687D01*
X68726285Y-76414153D01*
X68817481Y-76460620D01*
X68914823Y-76492248D01*
X69012165Y-76523877D01*
X69214348Y-76555900D01*
X69214349Y-76555900D01*
X77817351Y-76555900D01*
X77817352Y-76555900D01*
X78019534Y-76523877D01*
X78214219Y-76460620D01*
X78396610Y-76367687D01*
X78472718Y-76312391D01*
X78566161Y-76244503D01*
X78567154Y-76245870D01*
X78624199Y-76220290D01*
X78693288Y-76230707D01*
X78745778Y-76276822D01*
X78765003Y-76343995D01*
X78744860Y-76410898D01*
X78728687Y-76430827D01*
X77763590Y-77395923D01*
X77702267Y-77429408D01*
X77695309Y-77430715D01*
X77620217Y-77442609D01*
X77380618Y-77520460D01*
X77156151Y-77634832D01*
X76952350Y-77782901D01*
X76952345Y-77782905D01*
X76774205Y-77961045D01*
X76774201Y-77961050D01*
X76626132Y-78164851D01*
X76511760Y-78389318D01*
X76433909Y-78628916D01*
X76422015Y-78704010D01*
X76392085Y-78767144D01*
X76387223Y-78772291D01*
X75376934Y-79782581D01*
X75315611Y-79816066D01*
X75289253Y-79818900D01*
X71958268Y-79818900D01*
X71891229Y-79799215D01*
X71845474Y-79746411D01*
X71835530Y-79677253D01*
X71847783Y-79638606D01*
X71858237Y-79618086D01*
X71858241Y-79618079D01*
X71936090Y-79378485D01*
X71975500Y-79129662D01*
X71975500Y-78877738D01*
X71936090Y-78628915D01*
X71858241Y-78389321D01*
X71858239Y-78389318D01*
X71858239Y-78389316D01*
X71816747Y-78307884D01*
X71743870Y-78164855D01*
X71675500Y-78070751D01*
X71595798Y-77961050D01*
X71595794Y-77961045D01*
X71417654Y-77782905D01*
X71417649Y-77782901D01*
X71213848Y-77634832D01*
X71213847Y-77634831D01*
X71213845Y-77634830D01*
X71104665Y-77579200D01*
X70989383Y-77520460D01*
X70749785Y-77442610D01*
X70688750Y-77432943D01*
X70500962Y-77403200D01*
X70249038Y-77403200D01*
X70124626Y-77422905D01*
X70000214Y-77442610D01*
X69760616Y-77520460D01*
X69536154Y-77634830D01*
X69497801Y-77662695D01*
X69474646Y-77679518D01*
X69408842Y-77702998D01*
X69401762Y-77703200D01*
X64649500Y-77703200D01*
X64582461Y-77683515D01*
X64536706Y-77630711D01*
X64525500Y-77579200D01*
X64525500Y-73451277D01*
X64545185Y-73384238D01*
X64597989Y-73338483D01*
X64667147Y-73328539D01*
X64730703Y-73357564D01*
G37*
%TD.AperFunction*%
%TA.AperFunction,NonConductor*%
G36*
X63497393Y-69105285D02*
G01*
X63543148Y-69158089D01*
X63553092Y-69227247D01*
X63524067Y-69290803D01*
X63518035Y-69297281D01*
X62233036Y-70582278D01*
X62112716Y-70747884D01*
X62112714Y-70747887D01*
X62088801Y-70794820D01*
X62019779Y-70930280D01*
X62014098Y-70947764D01*
X62014099Y-70947765D01*
X61956875Y-71123884D01*
X61956863Y-71123920D01*
X61956524Y-71124961D01*
X61956522Y-71124969D01*
X61924500Y-71327148D01*
X61924500Y-78030461D01*
X61904815Y-78097500D01*
X61900818Y-78103346D01*
X61856132Y-78164851D01*
X61741760Y-78389316D01*
X61663910Y-78628914D01*
X61641201Y-78772291D01*
X61624500Y-78877738D01*
X61624500Y-79129662D01*
X61663910Y-79378485D01*
X61741759Y-79618079D01*
X61741761Y-79618082D01*
X61741762Y-79618086D01*
X61752217Y-79638606D01*
X61765113Y-79707276D01*
X61738836Y-79772016D01*
X61681729Y-79812272D01*
X61641732Y-79818900D01*
X61326446Y-79818900D01*
X61259407Y-79799215D01*
X61238765Y-79782581D01*
X55572065Y-74115880D01*
X55538580Y-74054557D01*
X55543564Y-73984865D01*
X55585436Y-73928932D01*
X55650900Y-73904515D01*
X55659746Y-73904199D01*
X56806605Y-73904199D01*
X56806608Y-73904199D01*
X56960935Y-73889000D01*
X57158955Y-73828932D01*
X57341451Y-73731385D01*
X57501410Y-73600110D01*
X57632685Y-73440151D01*
X57730232Y-73257655D01*
X57790300Y-73059635D01*
X57805500Y-72905309D01*
X57805499Y-71993745D01*
X57825183Y-71926707D01*
X57841813Y-71906070D01*
X60625966Y-69121919D01*
X60687289Y-69088434D01*
X60713647Y-69085600D01*
X63430354Y-69085600D01*
X63497393Y-69105285D01*
G37*
%TD.AperFunction*%
M02*
