%TF.GenerationSoftware,KiCad,Pcbnew,9.0.6*%
%TF.CreationDate,2026-06-10T07:56:51+02:00*%
%TF.ProjectId,current_sense,63757272-656e-4745-9f73-656e73652e6b,rev?*%
%TF.SameCoordinates,Original*%
%TF.FileFunction,Copper,L2,Bot*%
%TF.FilePolarity,Positive*%
%FSLAX46Y46*%
G04 Gerber Fmt 4.6, Leading zero omitted, Abs format (unit mm)*
G04 Created by KiCad (PCBNEW 9.0.6) date 2026-06-10 07:56:51*
%MOMM*%
%LPD*%
G01*
G04 APERTURE LIST*
G04 Aperture macros list*
%AMRoundRect*
0 Rectangle with rounded corners*
0 $1 Rounding radius*
0 $2 $3 $4 $5 $6 $7 $8 $9 X,Y pos of 4 corners*
0 Add a 4 corners polygon primitive as box body*
4,1,4,$2,$3,$4,$5,$6,$7,$8,$9,$2,$3,0*
0 Add four circle primitives for the rounded corners*
1,1,$1+$1,$2,$3*
1,1,$1+$1,$4,$5*
1,1,$1+$1,$6,$7*
1,1,$1+$1,$8,$9*
0 Add four rect primitives between the rounded corners*
20,1,$1+$1,$2,$3,$4,$5,0*
20,1,$1+$1,$4,$5,$6,$7,0*
20,1,$1+$1,$6,$7,$8,$9,0*
20,1,$1+$1,$8,$9,$2,$3,0*%
G04 Aperture macros list end*
%TA.AperFunction,ComponentPad*%
%ADD10C,1.600000*%
%TD*%
%TA.AperFunction,ComponentPad*%
%ADD11RoundRect,0.250000X-0.950000X-0.550000X0.950000X-0.550000X0.950000X0.550000X-0.950000X0.550000X0*%
%TD*%
%TA.AperFunction,ComponentPad*%
%ADD12O,2.400000X1.600000*%
%TD*%
%TA.AperFunction,ComponentPad*%
%ADD13R,3.000000X3.000000*%
%TD*%
%TA.AperFunction,ComponentPad*%
%ADD14C,3.000000*%
%TD*%
%TA.AperFunction,ComponentPad*%
%ADD15R,1.700000X1.700000*%
%TD*%
%TA.AperFunction,ComponentPad*%
%ADD16C,1.700000*%
%TD*%
%TA.AperFunction,Conductor*%
%ADD17C,1.000000*%
%TD*%
G04 APERTURE END LIST*
D10*
%TO.P,C2,1*%
%TO.N,+5V*%
X96500000Y-56000000D03*
%TO.P,C2,2*%
%TO.N,GND*%
X101500000Y-56000000D03*
%TD*%
%TO.P,R32,1*%
%TO.N,/FB3*%
X62190000Y-76000000D03*
%TO.P,R32,2*%
%TO.N,GND*%
X69810000Y-76000000D03*
%TD*%
%TO.P,R12,1*%
%TO.N,/FB1*%
X62190000Y-24000000D03*
%TO.P,R12,2*%
%TO.N,GND*%
X69810000Y-24000000D03*
%TD*%
%TO.P,C1,1*%
%TO.N,+5V*%
X96500000Y-28000000D03*
%TO.P,C1,2*%
%TO.N,GND*%
X101500000Y-28000000D03*
%TD*%
D11*
%TO.P,U1,1*%
%TO.N,/I_SENSE1*%
X82190000Y-37190000D03*
D12*
%TO.P,U1,2*%
%TO.N,/FB1*%
X82190000Y-39730000D03*
%TO.P,U1,3*%
%TO.N,/RET1*%
X82190000Y-42270000D03*
%TO.P,U1,4*%
%TO.N,GND*%
X82190000Y-44810000D03*
%TO.P,U1,5*%
%TO.N,/RET2*%
X89810000Y-44810000D03*
%TO.P,U1,6*%
%TO.N,/FB2*%
X89810000Y-42270000D03*
%TO.P,U1,7*%
%TO.N,/I_SENSE2*%
X89810000Y-39730000D03*
%TO.P,U1,8*%
%TO.N,+5V*%
X89810000Y-37190000D03*
%TD*%
D13*
%TO.P,J3,1*%
%TO.N,/RET3*%
X37540000Y-82000000D03*
D14*
%TO.P,J3,2*%
%TO.N,GND*%
X32460000Y-82000000D03*
%TD*%
D13*
%TO.P,J1,1*%
%TO.N,/RET1*%
X37540000Y-30000000D03*
D14*
%TO.P,J1,2*%
%TO.N,GND*%
X32460000Y-30000000D03*
%TD*%
D10*
%TO.P,R23,1*%
%TO.N,/FB2*%
X62190000Y-62000000D03*
%TO.P,R23,2*%
%TO.N,/I_SENSE2*%
X69810000Y-62000000D03*
%TD*%
D13*
%TO.P,J2,1*%
%TO.N,/RET2*%
X37540000Y-56000000D03*
D14*
%TO.P,J2,2*%
%TO.N,GND*%
X32460000Y-56000000D03*
%TD*%
D10*
%TO.P,R31,1*%
%TO.N,/RET3*%
X48190000Y-82000000D03*
%TO.P,R31,2*%
%TO.N,GND*%
X55810000Y-82000000D03*
%TD*%
%TO.P,R33,1*%
%TO.N,/FB3*%
X62190000Y-88000000D03*
%TO.P,R33,2*%
%TO.N,/I_SENSE3*%
X69810000Y-88000000D03*
%TD*%
%TO.P,R13,1*%
%TO.N,/FB1*%
X62190000Y-36000000D03*
%TO.P,R13,2*%
%TO.N,/I_SENSE1*%
X69810000Y-36000000D03*
%TD*%
%TO.P,R22,1*%
%TO.N,/FB2*%
X62190000Y-50000000D03*
%TO.P,R22,2*%
%TO.N,GND*%
X69810000Y-50000000D03*
%TD*%
%TO.P,R21,1*%
%TO.N,/RET2*%
X48190000Y-56000000D03*
%TO.P,R21,2*%
%TO.N,GND*%
X55810000Y-56000000D03*
%TD*%
%TO.P,R11,1*%
%TO.N,/RET1*%
X48190000Y-30000000D03*
%TO.P,R11,2*%
%TO.N,GND*%
X55810000Y-30000000D03*
%TD*%
D11*
%TO.P,U2,1*%
%TO.N,/I_SENSE3*%
X82190000Y-68190000D03*
D12*
%TO.P,U2,2*%
%TO.N,/FB3*%
X82190000Y-70730000D03*
%TO.P,U2,3*%
%TO.N,/RET3*%
X82190000Y-73270000D03*
%TO.P,U2,4*%
%TO.N,GND*%
X82190000Y-75810000D03*
%TO.P,U2,5*%
X89810000Y-75810000D03*
%TO.P,U2,6*%
%TO.N,/U2B_FB*%
X89810000Y-73270000D03*
%TO.P,U2,7*%
X89810000Y-70730000D03*
%TO.P,U2,8*%
%TO.N,+5V*%
X89810000Y-68190000D03*
%TD*%
D15*
%TO.P,J4,1*%
%TO.N,+5V*%
X125000000Y-48920000D03*
D16*
%TO.P,J4,2*%
%TO.N,/I_SENSE1*%
X125000000Y-51460000D03*
%TO.P,J4,3*%
%TO.N,/I_SENSE2*%
X125000000Y-54000000D03*
%TO.P,J4,4*%
%TO.N,/I_SENSE3*%
X125000000Y-56540000D03*
%TO.P,J4,5*%
%TO.N,GND*%
X125000000Y-59080000D03*
%TD*%
D17*
%TO.N,+5V*%
X125000000Y-48920000D02*
X117420000Y-48920000D01*
X117420000Y-48920000D02*
X96500000Y-28000000D01*
%TO.N,/FB1*%
X58827300Y-36000000D02*
X62190000Y-36000000D01*
X53668200Y-30840900D02*
X58827300Y-36000000D01*
X62190000Y-24000000D02*
X58797700Y-24000000D01*
X58797700Y-24000000D02*
X53668200Y-29129500D01*
X53668200Y-29129500D02*
X53668200Y-30840900D01*
X82190000Y-39730000D02*
X65920000Y-39730000D01*
X65920000Y-39730000D02*
X62190000Y-36000000D01*
%TO.N,/FB2*%
X73511400Y-50678600D02*
X70698300Y-47865600D01*
X75423500Y-48766500D02*
X73511400Y-50678600D01*
X70698300Y-47865600D02*
X64324400Y-47865600D01*
X92311700Y-42270000D02*
X92311700Y-45700700D01*
X73511400Y-50678600D02*
X62190000Y-62000000D01*
X89810000Y-42270000D02*
X92311700Y-42270000D01*
X89245900Y-48766500D02*
X75423500Y-48766500D01*
X92311700Y-45700700D02*
X89245900Y-48766500D01*
X64324400Y-47865600D02*
X62190000Y-50000000D01*
%TO.N,/FB3*%
X92335700Y-76684000D02*
X92335700Y-67334600D01*
X88502900Y-66054600D02*
X84691700Y-69865800D01*
X62190000Y-76000000D02*
X62190000Y-81341400D01*
X92335700Y-67334600D02*
X91055700Y-66054600D01*
X87678300Y-81341400D02*
X92335700Y-76684000D01*
X84691700Y-69865800D02*
X84691700Y-70730000D01*
X62190000Y-81341400D02*
X87678300Y-81341400D01*
X62190000Y-81341400D02*
X62190000Y-88000000D01*
X82190000Y-70730000D02*
X84691700Y-70730000D01*
X91055700Y-66054600D02*
X88502900Y-66054600D01*
%TO.N,/I_SENSE1*%
X100613200Y-35083300D02*
X116989900Y-51460000D01*
X82190000Y-37190000D02*
X84296700Y-35083300D01*
X82190000Y-37190000D02*
X81000000Y-36000000D01*
X81000000Y-36000000D02*
X69810000Y-36000000D01*
X116989900Y-51460000D02*
X125000000Y-51460000D01*
X84296700Y-35083300D02*
X100613200Y-35083300D01*
%TO.N,/I_SENSE2*%
X92319700Y-39730000D02*
X92311700Y-39730000D01*
X109243700Y-49959100D02*
X94113400Y-49959100D01*
X94113400Y-49959100D02*
X94113400Y-41523700D01*
X94113400Y-41523700D02*
X92319700Y-39730000D01*
X89810000Y-39730000D02*
X92311700Y-39730000D01*
X125000000Y-54000000D02*
X113284600Y-54000000D01*
X82072500Y-62000000D02*
X94113400Y-49959100D01*
X69810000Y-62000000D02*
X82072500Y-62000000D01*
X113284600Y-54000000D02*
X109243700Y-49959100D01*
%TO.N,/I_SENSE3*%
X104153700Y-53857100D02*
X100622500Y-53857100D01*
X69810000Y-88000000D02*
X83597300Y-88000000D01*
X94171100Y-77426200D02*
X94171100Y-64219300D01*
X125000000Y-56540000D02*
X106836600Y-56540000D01*
X99000000Y-59390400D02*
X94171100Y-64219300D01*
X99000000Y-55479600D02*
X99000000Y-59390400D01*
X86160700Y-64219300D02*
X82190000Y-68190000D01*
X100622500Y-53857100D02*
X99000000Y-55479600D01*
X83597300Y-88000000D02*
X94171100Y-77426200D01*
X94171100Y-64219300D02*
X86160700Y-64219300D01*
X106836600Y-56540000D02*
X104153700Y-53857100D01*
%TO.N,/RET1*%
X82190000Y-42270000D02*
X60460000Y-42270000D01*
X60460000Y-42270000D02*
X48190000Y-30000000D01*
X37540000Y-30000000D02*
X48190000Y-30000000D01*
%TO.N,/RET2*%
X79659700Y-46035500D02*
X80589000Y-46964800D01*
X89810000Y-44810000D02*
X87308300Y-44810000D01*
X37540000Y-56000000D02*
X48190000Y-56000000D01*
X48190000Y-56000000D02*
X58154500Y-46035500D01*
X85153500Y-46964800D02*
X87308300Y-44810000D01*
X58154500Y-46035500D02*
X79659700Y-46035500D01*
X80589000Y-46964800D02*
X85153500Y-46964800D01*
%TO.N,/RET3*%
X37540000Y-82000000D02*
X48190000Y-82000000D01*
X66384000Y-72024700D02*
X58165300Y-72024700D01*
X82190000Y-73270000D02*
X67629300Y-73270000D01*
X58165300Y-72024700D02*
X48190000Y-82000000D01*
X67629300Y-73270000D02*
X66384000Y-72024700D01*
%TO.N,/U2B_FB*%
X89810000Y-70730000D02*
X89810000Y-73270000D01*
%TO.N,GND*%
X104580000Y-59080000D02*
X101500000Y-56000000D01*
X35261700Y-84801700D02*
X32460000Y-82000000D01*
X82190000Y-44810000D02*
X81357700Y-44810000D01*
X67438800Y-75627500D02*
X65670700Y-73859400D01*
X55810000Y-79337300D02*
X55810000Y-82000000D01*
X65670700Y-73859400D02*
X61287900Y-73859400D01*
X44291400Y-44168600D02*
X32460000Y-56000000D01*
X65210000Y-30000000D02*
X69810000Y-25400000D01*
X69810000Y-25400000D02*
X98900000Y-25400000D01*
X80716300Y-44168600D02*
X44291400Y-44168600D01*
X89810000Y-75810000D02*
X82190000Y-75810000D01*
X69810000Y-25400000D02*
X69810000Y-24000000D01*
X55810000Y-30000000D02*
X65210000Y-30000000D01*
X61287900Y-73859400D02*
X55810000Y-79337300D01*
X35261700Y-58801700D02*
X32460000Y-56000000D01*
X32460000Y-56000000D02*
X32460000Y-30000000D01*
X32460000Y-58801700D02*
X32460000Y-82000000D01*
X63810000Y-56000000D02*
X55810000Y-56000000D01*
X69437600Y-75627500D02*
X67438800Y-75627500D01*
X53008300Y-58801700D02*
X35261700Y-58801700D01*
X69437600Y-75627600D02*
X69437600Y-75627500D01*
X79688300Y-75810000D02*
X79498300Y-76000000D01*
X82190000Y-75810000D02*
X79688300Y-75810000D01*
X69810000Y-76000000D02*
X69437600Y-75627600D01*
X55810000Y-56000000D02*
X53008300Y-58801700D01*
X79498300Y-76000000D02*
X69810000Y-76000000D01*
X98900000Y-25400000D02*
X101500000Y-28000000D01*
X53008300Y-84801700D02*
X35261700Y-84801700D01*
X33860900Y-57400800D02*
X32460000Y-58801700D01*
X69810000Y-50000000D02*
X63810000Y-56000000D01*
X81357700Y-44810000D02*
X80716300Y-44168600D01*
X125000000Y-59080000D02*
X104580000Y-59080000D01*
X55810000Y-82000000D02*
X53008300Y-84801700D01*
%TD*%
%TA.AperFunction,NonConductor*%
G36*
X139442539Y-20520185D02*
G01*
X139488294Y-20572989D01*
X139499500Y-20624500D01*
X139499500Y-99375500D01*
X139479815Y-99442539D01*
X139427011Y-99488294D01*
X139375500Y-99499500D01*
X20624500Y-99499500D01*
X20557461Y-99479815D01*
X20511706Y-99427011D01*
X20500500Y-99375500D01*
X20500500Y-29849223D01*
X30159500Y-29849223D01*
X30159500Y-30150776D01*
X30159501Y-30150793D01*
X30198861Y-30449766D01*
X30276913Y-30741060D01*
X30392314Y-31019661D01*
X30392318Y-31019671D01*
X30543099Y-31280831D01*
X30726679Y-31520078D01*
X30726685Y-31520085D01*
X30939914Y-31733314D01*
X30939921Y-31733320D01*
X31110986Y-31864582D01*
X31152189Y-31921010D01*
X31159500Y-31962958D01*
X31159500Y-54037040D01*
X31139815Y-54104079D01*
X31110987Y-54135416D01*
X30939914Y-54266685D01*
X30726685Y-54479914D01*
X30726679Y-54479921D01*
X30543099Y-54719168D01*
X30392318Y-54980328D01*
X30392314Y-54980338D01*
X30276913Y-55258939D01*
X30198861Y-55550233D01*
X30159501Y-55849206D01*
X30159500Y-55849223D01*
X30159500Y-56150776D01*
X30159501Y-56150793D01*
X30198861Y-56449766D01*
X30276913Y-56741060D01*
X30392314Y-57019661D01*
X30392318Y-57019671D01*
X30543099Y-57280831D01*
X30726679Y-57520078D01*
X30726685Y-57520085D01*
X30939914Y-57733314D01*
X30939921Y-57733320D01*
X31179166Y-57916899D01*
X31179168Y-57916900D01*
X31287492Y-57979441D01*
X31335707Y-58030006D01*
X31348931Y-58098613D01*
X31335977Y-58143122D01*
X31254782Y-58302476D01*
X31191522Y-58497165D01*
X31159500Y-58699348D01*
X31159500Y-80037040D01*
X31139815Y-80104079D01*
X31110987Y-80135416D01*
X30939914Y-80266685D01*
X30726685Y-80479914D01*
X30726679Y-80479921D01*
X30543099Y-80719168D01*
X30392318Y-80980328D01*
X30392314Y-80980338D01*
X30276913Y-81258939D01*
X30198861Y-81550233D01*
X30159501Y-81849206D01*
X30159500Y-81849223D01*
X30159500Y-82150776D01*
X30159501Y-82150793D01*
X30198861Y-82449766D01*
X30276913Y-82741060D01*
X30392314Y-83019661D01*
X30392318Y-83019671D01*
X30543099Y-83280831D01*
X30726679Y-83520078D01*
X30726685Y-83520085D01*
X30939914Y-83733314D01*
X30939921Y-83733320D01*
X31179168Y-83916900D01*
X31440328Y-84067681D01*
X31440329Y-84067681D01*
X31440332Y-84067683D01*
X31626072Y-84144619D01*
X31718939Y-84183086D01*
X31718940Y-84183086D01*
X31718942Y-84183087D01*
X32010232Y-84261138D01*
X32309217Y-84300500D01*
X32309224Y-84300500D01*
X32610776Y-84300500D01*
X32610783Y-84300500D01*
X32824563Y-84272354D01*
X32893595Y-84283119D01*
X32928427Y-84307612D01*
X34414481Y-85793666D01*
X34580089Y-85913987D01*
X34671285Y-85960453D01*
X34762481Y-86006920D01*
X34859823Y-86038548D01*
X34957165Y-86070177D01*
X35159348Y-86102200D01*
X35159349Y-86102200D01*
X53110651Y-86102200D01*
X53110652Y-86102200D01*
X53312835Y-86070177D01*
X53410176Y-86038548D01*
X53507519Y-86006920D01*
X53598714Y-85960453D01*
X53689911Y-85913987D01*
X53855519Y-85793666D01*
X56041410Y-83607773D01*
X56102731Y-83574290D01*
X56109645Y-83572990D01*
X56184785Y-83561090D01*
X56424379Y-83483241D01*
X56648845Y-83368870D01*
X56852656Y-83220793D01*
X57030793Y-83042656D01*
X57178870Y-82838845D01*
X57293241Y-82614379D01*
X57371090Y-82374785D01*
X57410500Y-82125962D01*
X57410500Y-81874038D01*
X57371090Y-81625215D01*
X57293241Y-81385621D01*
X57293239Y-81385618D01*
X57293239Y-81385616D01*
X57218558Y-81239048D01*
X57178870Y-81161155D01*
X57172246Y-81152038D01*
X57134182Y-81099646D01*
X57110702Y-81033840D01*
X57110500Y-81026761D01*
X57110500Y-79927346D01*
X57130185Y-79860307D01*
X57146814Y-79839670D01*
X60481608Y-76504875D01*
X60542929Y-76471392D01*
X60612621Y-76476376D01*
X60668554Y-76518248D01*
X60687217Y-76554238D01*
X60706758Y-76614379D01*
X60821130Y-76838846D01*
X60831164Y-76852656D01*
X60865817Y-76900352D01*
X60889298Y-76966156D01*
X60889500Y-76973237D01*
X60889500Y-87026761D01*
X60869815Y-87093800D01*
X60865818Y-87099646D01*
X60821132Y-87161151D01*
X60706760Y-87385616D01*
X60628910Y-87625214D01*
X60589500Y-87874038D01*
X60589500Y-88125961D01*
X60628910Y-88374785D01*
X60706760Y-88614383D01*
X60821132Y-88838848D01*
X60969201Y-89042649D01*
X60969205Y-89042654D01*
X61147344Y-89220793D01*
X61147350Y-89220798D01*
X61289647Y-89324182D01*
X61351155Y-89368870D01*
X61494184Y-89441747D01*
X61575616Y-89483239D01*
X61575618Y-89483239D01*
X61575621Y-89483241D01*
X61815215Y-89561090D01*
X62064038Y-89600500D01*
X62064039Y-89600500D01*
X62315961Y-89600500D01*
X62315962Y-89600500D01*
X62564785Y-89561090D01*
X62804379Y-89483241D01*
X63028845Y-89368870D01*
X63232656Y-89220793D01*
X63410793Y-89042656D01*
X63558870Y-88838845D01*
X63673241Y-88614379D01*
X63751090Y-88374785D01*
X63790500Y-88125962D01*
X63790500Y-87874038D01*
X63751090Y-87625215D01*
X63673241Y-87385621D01*
X63673239Y-87385618D01*
X63673239Y-87385616D01*
X63631747Y-87304184D01*
X63558870Y-87161155D01*
X63552246Y-87152038D01*
X63514182Y-87099646D01*
X63490702Y-87033840D01*
X63490500Y-87026761D01*
X63490500Y-82765900D01*
X63510185Y-82698861D01*
X63562989Y-82653106D01*
X63614500Y-82641900D01*
X86816853Y-82641900D01*
X86883892Y-82661585D01*
X86929647Y-82714389D01*
X86939591Y-82783547D01*
X86910566Y-82847103D01*
X86904534Y-82853581D01*
X83094934Y-86663181D01*
X83033611Y-86696666D01*
X83007253Y-86699500D01*
X70783238Y-86699500D01*
X70716199Y-86679815D01*
X70710362Y-86675824D01*
X70648845Y-86631130D01*
X70424383Y-86516760D01*
X70184785Y-86438910D01*
X69935962Y-86399500D01*
X69684038Y-86399500D01*
X69559626Y-86419205D01*
X69435214Y-86438910D01*
X69195616Y-86516760D01*
X68971151Y-86631132D01*
X68767350Y-86779201D01*
X68767345Y-86779205D01*
X68589205Y-86957345D01*
X68589201Y-86957350D01*
X68441132Y-87161151D01*
X68326760Y-87385616D01*
X68248910Y-87625214D01*
X68209500Y-87874038D01*
X68209500Y-88125961D01*
X68248910Y-88374785D01*
X68326760Y-88614383D01*
X68441132Y-88838848D01*
X68589201Y-89042649D01*
X68589205Y-89042654D01*
X68767344Y-89220793D01*
X68767350Y-89220798D01*
X68909647Y-89324182D01*
X68971155Y-89368870D01*
X69114184Y-89441747D01*
X69195616Y-89483239D01*
X69195618Y-89483239D01*
X69195621Y-89483241D01*
X69435215Y-89561090D01*
X69684038Y-89600500D01*
X69684039Y-89600500D01*
X69935961Y-89600500D01*
X69935962Y-89600500D01*
X70184785Y-89561090D01*
X70424379Y-89483241D01*
X70648845Y-89368870D01*
X70710353Y-89324181D01*
X70776158Y-89300702D01*
X70783238Y-89300500D01*
X83699651Y-89300500D01*
X83699652Y-89300500D01*
X83901835Y-89268477D01*
X84048590Y-89220793D01*
X84096519Y-89205220D01*
X84187714Y-89158753D01*
X84278911Y-89112287D01*
X84444519Y-88991966D01*
X95163066Y-78273419D01*
X95283386Y-78107811D01*
X95283387Y-78107810D01*
X95376320Y-77925419D01*
X95439577Y-77730734D01*
X95471600Y-77528552D01*
X95471600Y-64809345D01*
X95491285Y-64742306D01*
X95507914Y-64721669D01*
X99840150Y-60389432D01*
X99840157Y-60389427D01*
X99847217Y-60382367D01*
X99847219Y-60382366D01*
X99991966Y-60237619D01*
X100090353Y-60102200D01*
X100112287Y-60072011D01*
X100186062Y-59927219D01*
X100205220Y-59889619D01*
X100205221Y-59889616D01*
X100268476Y-59694938D01*
X100268476Y-59694937D01*
X100268477Y-59694934D01*
X100300500Y-59492752D01*
X100300500Y-57350203D01*
X100320185Y-57283164D01*
X100372989Y-57237409D01*
X100442147Y-57227465D01*
X100497385Y-57249885D01*
X100599647Y-57324182D01*
X100661155Y-57368870D01*
X100778600Y-57428711D01*
X100885616Y-57483239D01*
X100885618Y-57483239D01*
X100885621Y-57483241D01*
X100998993Y-57520078D01*
X101125214Y-57561090D01*
X101164439Y-57567302D01*
X101200306Y-57572983D01*
X101263441Y-57602912D01*
X101268590Y-57607775D01*
X103584908Y-59924092D01*
X103584922Y-59924107D01*
X103588033Y-59927218D01*
X103588034Y-59927219D01*
X103732781Y-60071966D01*
X103732784Y-60071968D01*
X103732785Y-60071969D01*
X103847379Y-60155226D01*
X103847381Y-60155227D01*
X103847384Y-60155229D01*
X103898390Y-60192287D01*
X103987358Y-60237619D01*
X104080781Y-60285221D01*
X104080784Y-60285222D01*
X104246086Y-60338931D01*
X104275466Y-60348477D01*
X104477648Y-60380500D01*
X104477649Y-60380500D01*
X104682352Y-60380500D01*
X123941696Y-60380500D01*
X124008735Y-60400185D01*
X124014581Y-60404182D01*
X124110745Y-60474049D01*
X124134949Y-60491634D01*
X124282445Y-60566787D01*
X124366423Y-60609577D01*
X124366425Y-60609577D01*
X124366428Y-60609579D01*
X124613507Y-60689860D01*
X124745706Y-60710797D01*
X124870098Y-60730500D01*
X124870103Y-60730500D01*
X125129902Y-60730500D01*
X125243298Y-60712539D01*
X125386493Y-60689860D01*
X125633572Y-60609579D01*
X125865051Y-60491634D01*
X126075229Y-60338931D01*
X126258931Y-60155229D01*
X126411634Y-59945051D01*
X126529579Y-59713572D01*
X126609860Y-59466493D01*
X126645727Y-59240034D01*
X126650500Y-59209902D01*
X126650500Y-58950097D01*
X126626782Y-58800353D01*
X126609860Y-58693507D01*
X126529579Y-58446428D01*
X126529577Y-58446425D01*
X126529577Y-58446423D01*
X126456231Y-58302476D01*
X126411634Y-58214949D01*
X126258931Y-58004771D01*
X126151841Y-57897681D01*
X126118356Y-57836358D01*
X126123340Y-57766666D01*
X126151841Y-57722319D01*
X126194035Y-57680125D01*
X126258931Y-57615229D01*
X126411634Y-57405051D01*
X126529579Y-57173572D01*
X126609860Y-56926493D01*
X126635645Y-56763691D01*
X126650500Y-56669902D01*
X126650500Y-56410097D01*
X126626710Y-56259898D01*
X126609860Y-56153507D01*
X126529579Y-55906428D01*
X126529577Y-55906425D01*
X126529577Y-55906423D01*
X126486787Y-55822445D01*
X126411634Y-55674949D01*
X126258931Y-55464771D01*
X126151841Y-55357681D01*
X126118356Y-55296358D01*
X126123340Y-55226666D01*
X126151841Y-55182319D01*
X126194037Y-55140123D01*
X126258931Y-55075229D01*
X126411634Y-54865051D01*
X126529579Y-54633572D01*
X126609860Y-54386493D01*
X126632539Y-54243298D01*
X126650500Y-54129902D01*
X126650500Y-53870097D01*
X126625876Y-53714630D01*
X126609860Y-53613507D01*
X126529579Y-53366428D01*
X126529577Y-53366425D01*
X126529577Y-53366423D01*
X126486787Y-53282445D01*
X126411634Y-53134949D01*
X126258931Y-52924771D01*
X126151841Y-52817681D01*
X126118356Y-52756358D01*
X126123340Y-52686666D01*
X126151841Y-52642319D01*
X126194035Y-52600125D01*
X126258931Y-52535229D01*
X126411634Y-52325051D01*
X126529579Y-52093572D01*
X126609860Y-51846493D01*
X126637726Y-51670551D01*
X126650500Y-51589902D01*
X126650500Y-51330097D01*
X126628947Y-51194021D01*
X126609860Y-51073507D01*
X126529579Y-50826428D01*
X126529577Y-50826425D01*
X126529577Y-50826423D01*
X126454265Y-50678616D01*
X126411634Y-50594949D01*
X126366785Y-50533220D01*
X126343306Y-50467416D01*
X126359131Y-50399362D01*
X126379423Y-50372655D01*
X126479816Y-50272262D01*
X126575789Y-50119522D01*
X126635368Y-49949255D01*
X126650500Y-49814954D01*
X126650500Y-48025046D01*
X126638584Y-47919284D01*
X126635369Y-47890750D01*
X126635368Y-47890745D01*
X126575788Y-47720476D01*
X126479815Y-47567737D01*
X126352262Y-47440184D01*
X126199523Y-47344211D01*
X126029254Y-47284631D01*
X126029249Y-47284630D01*
X125894960Y-47269500D01*
X125894954Y-47269500D01*
X124105046Y-47269500D01*
X124105039Y-47269500D01*
X123970750Y-47284630D01*
X123970745Y-47284631D01*
X123800476Y-47344211D01*
X123647737Y-47440184D01*
X123520183Y-47567738D01*
X123516135Y-47572815D01*
X123458946Y-47612954D01*
X123419190Y-47619500D01*
X118010046Y-47619500D01*
X117943007Y-47599815D01*
X117922365Y-47583181D01*
X98107775Y-27768590D01*
X98074290Y-27707267D01*
X98072983Y-27700306D01*
X98061090Y-27625214D01*
X97983239Y-27385616D01*
X97941747Y-27304184D01*
X97868870Y-27161155D01*
X97849952Y-27135117D01*
X97720798Y-26957350D01*
X97720794Y-26957345D01*
X97675630Y-26912181D01*
X97642145Y-26850858D01*
X97647129Y-26781166D01*
X97689001Y-26725233D01*
X97754465Y-26700816D01*
X97763311Y-26700500D01*
X98309953Y-26700500D01*
X98376992Y-26720185D01*
X98397634Y-26736819D01*
X99892223Y-28231408D01*
X99925708Y-28292731D01*
X99927015Y-28299689D01*
X99938909Y-28374783D01*
X99973071Y-28479921D01*
X100016759Y-28614379D01*
X100124059Y-28824968D01*
X100131132Y-28838848D01*
X100279201Y-29042649D01*
X100279205Y-29042654D01*
X100457345Y-29220794D01*
X100457350Y-29220798D01*
X100635117Y-29349952D01*
X100661155Y-29368870D01*
X100804184Y-29441747D01*
X100885616Y-29483239D01*
X100885618Y-29483239D01*
X100885621Y-29483241D01*
X101125215Y-29561090D01*
X101374038Y-29600500D01*
X101374039Y-29600500D01*
X101625961Y-29600500D01*
X101625962Y-29600500D01*
X101874785Y-29561090D01*
X102114379Y-29483241D01*
X102338845Y-29368870D01*
X102542656Y-29220793D01*
X102720793Y-29042656D01*
X102868870Y-28838845D01*
X102983241Y-28614379D01*
X103061090Y-28374785D01*
X103100500Y-28125962D01*
X103100500Y-27874038D01*
X103061090Y-27625215D01*
X102983241Y-27385621D01*
X102983239Y-27385618D01*
X102983239Y-27385616D01*
X102941747Y-27304184D01*
X102868870Y-27161155D01*
X102849952Y-27135117D01*
X102720798Y-26957350D01*
X102720794Y-26957345D01*
X102542654Y-26779205D01*
X102542649Y-26779201D01*
X102338848Y-26631132D01*
X102338847Y-26631131D01*
X102338845Y-26631130D01*
X102114379Y-26516759D01*
X101994582Y-26477834D01*
X101874783Y-26438909D01*
X101799689Y-26427015D01*
X101736555Y-26397085D01*
X101731408Y-26392223D01*
X99747221Y-24408036D01*
X99747219Y-24408034D01*
X99581611Y-24287713D01*
X99490414Y-24241246D01*
X99399223Y-24194781D01*
X99352515Y-24179604D01*
X99301876Y-24163151D01*
X99278003Y-24155394D01*
X99204535Y-24131522D01*
X99029995Y-24103878D01*
X99002352Y-24099500D01*
X99002351Y-24099500D01*
X71534500Y-24099500D01*
X71467461Y-24079815D01*
X71421706Y-24027011D01*
X71410500Y-23975500D01*
X71410500Y-23874038D01*
X71371090Y-23625215D01*
X71293241Y-23385621D01*
X71293239Y-23385618D01*
X71293239Y-23385616D01*
X71251747Y-23304184D01*
X71178870Y-23161155D01*
X71159952Y-23135117D01*
X71030798Y-22957350D01*
X71030794Y-22957345D01*
X70852654Y-22779205D01*
X70852649Y-22779201D01*
X70648848Y-22631132D01*
X70648847Y-22631131D01*
X70648845Y-22631130D01*
X70578747Y-22595413D01*
X70424383Y-22516760D01*
X70184785Y-22438910D01*
X69935962Y-22399500D01*
X69684038Y-22399500D01*
X69559626Y-22419205D01*
X69435214Y-22438910D01*
X69195616Y-22516760D01*
X68971151Y-22631132D01*
X68767350Y-22779201D01*
X68767345Y-22779205D01*
X68589205Y-22957345D01*
X68589201Y-22957350D01*
X68441132Y-23161151D01*
X68326760Y-23385616D01*
X68248910Y-23625214D01*
X68209500Y-23874038D01*
X68209500Y-24125961D01*
X68248910Y-24374785D01*
X68326760Y-24614383D01*
X68430891Y-24818750D01*
X68443787Y-24887419D01*
X68417511Y-24952160D01*
X68408087Y-24962726D01*
X64707634Y-28663181D01*
X64646311Y-28696666D01*
X64619953Y-28699500D01*
X56783238Y-28699500D01*
X56716199Y-28679815D01*
X56710362Y-28675824D01*
X56648845Y-28631130D01*
X56424379Y-28516759D01*
X56387182Y-28504673D01*
X56329509Y-28465237D01*
X56302310Y-28400878D01*
X56314225Y-28332032D01*
X56337818Y-28299065D01*
X59300066Y-25336819D01*
X59361389Y-25303334D01*
X59387747Y-25300500D01*
X61216762Y-25300500D01*
X61283801Y-25320185D01*
X61289637Y-25324175D01*
X61351155Y-25368870D01*
X61457206Y-25422905D01*
X61575616Y-25483239D01*
X61575618Y-25483239D01*
X61575621Y-25483241D01*
X61815215Y-25561090D01*
X62064038Y-25600500D01*
X62064039Y-25600500D01*
X62315961Y-25600500D01*
X62315962Y-25600500D01*
X62564785Y-25561090D01*
X62804379Y-25483241D01*
X63028845Y-25368870D01*
X63232656Y-25220793D01*
X63410793Y-25042656D01*
X63558870Y-24838845D01*
X63673241Y-24614379D01*
X63751090Y-24374785D01*
X63790500Y-24125962D01*
X63790500Y-23874038D01*
X63751090Y-23625215D01*
X63673241Y-23385621D01*
X63673239Y-23385618D01*
X63673239Y-23385616D01*
X63631747Y-23304184D01*
X63558870Y-23161155D01*
X63539952Y-23135117D01*
X63410798Y-22957350D01*
X63410794Y-22957345D01*
X63232654Y-22779205D01*
X63232649Y-22779201D01*
X63028848Y-22631132D01*
X63028847Y-22631131D01*
X63028845Y-22631130D01*
X62958747Y-22595413D01*
X62804383Y-22516760D01*
X62564785Y-22438910D01*
X62315962Y-22399500D01*
X62064038Y-22399500D01*
X61939626Y-22419205D01*
X61815214Y-22438910D01*
X61575616Y-22516760D01*
X61351154Y-22631130D01*
X61312801Y-22658995D01*
X61289646Y-22675818D01*
X61223842Y-22699298D01*
X61216762Y-22699500D01*
X58695348Y-22699500D01*
X58671029Y-22703351D01*
X58493165Y-22731522D01*
X58298476Y-22794781D01*
X58116086Y-22887715D01*
X57998371Y-22973240D01*
X57998370Y-22973241D01*
X57950484Y-23008030D01*
X52676236Y-28282278D01*
X52555913Y-28447888D01*
X52540609Y-28477925D01*
X52462981Y-28630276D01*
X52462704Y-28631130D01*
X52446886Y-28679815D01*
X52446302Y-28681611D01*
X52399722Y-28824968D01*
X52396198Y-28847219D01*
X52367700Y-29027148D01*
X52367700Y-30943251D01*
X52399722Y-31145434D01*
X52462981Y-31340123D01*
X52477629Y-31368870D01*
X52509446Y-31431314D01*
X52555913Y-31522511D01*
X52676234Y-31688119D01*
X57980081Y-36991966D01*
X58145689Y-37112287D01*
X58236885Y-37158753D01*
X58328081Y-37205220D01*
X58376010Y-37220793D01*
X58522765Y-37268477D01*
X58724948Y-37300500D01*
X58929651Y-37300500D01*
X61216762Y-37300500D01*
X61283801Y-37320185D01*
X61289637Y-37324175D01*
X61351155Y-37368870D01*
X61457206Y-37422905D01*
X61575616Y-37483239D01*
X61575618Y-37483239D01*
X61575621Y-37483241D01*
X61704049Y-37524970D01*
X61815214Y-37561090D01*
X61854439Y-37567302D01*
X61890306Y-37572983D01*
X61953441Y-37602912D01*
X61958590Y-37607775D01*
X64924908Y-40574092D01*
X64924922Y-40574107D01*
X64928033Y-40577218D01*
X64928034Y-40577219D01*
X65072781Y-40721966D01*
X65072784Y-40721968D01*
X65072785Y-40721969D01*
X65104735Y-40745182D01*
X65147401Y-40800511D01*
X65153380Y-40870125D01*
X65120775Y-40931920D01*
X65059936Y-40966277D01*
X65031850Y-40969500D01*
X61050047Y-40969500D01*
X60983008Y-40949815D01*
X60962366Y-40933181D01*
X49797775Y-29768590D01*
X49764290Y-29707267D01*
X49762983Y-29700306D01*
X49751090Y-29625214D01*
X49673239Y-29385616D01*
X49608693Y-29258939D01*
X49558870Y-29161155D01*
X49472776Y-29042656D01*
X49410798Y-28957350D01*
X49410794Y-28957345D01*
X49232654Y-28779205D01*
X49232649Y-28779201D01*
X49028848Y-28631132D01*
X49028847Y-28631131D01*
X49028845Y-28631130D01*
X48919665Y-28575500D01*
X48804383Y-28516760D01*
X48564785Y-28438910D01*
X48315962Y-28399500D01*
X48064038Y-28399500D01*
X47939626Y-28419205D01*
X47815214Y-28438910D01*
X47575616Y-28516760D01*
X47351154Y-28631130D01*
X47312801Y-28658995D01*
X47289646Y-28675818D01*
X47223842Y-28699298D01*
X47216762Y-28699500D01*
X39964500Y-28699500D01*
X39897461Y-28679815D01*
X39851706Y-28627011D01*
X39840500Y-28575500D01*
X39840500Y-28455043D01*
X39840499Y-28455039D01*
X39839693Y-28447889D01*
X39825368Y-28320745D01*
X39765789Y-28150478D01*
X39669816Y-27997738D01*
X39542262Y-27870184D01*
X39457482Y-27816913D01*
X39389523Y-27774211D01*
X39219254Y-27714631D01*
X39219249Y-27714630D01*
X39084960Y-27699500D01*
X39084954Y-27699500D01*
X35995046Y-27699500D01*
X35995039Y-27699500D01*
X35860750Y-27714630D01*
X35860745Y-27714631D01*
X35690476Y-27774211D01*
X35537737Y-27870184D01*
X35410184Y-27997737D01*
X35314211Y-28150476D01*
X35254631Y-28320745D01*
X35254630Y-28320750D01*
X35239500Y-28455039D01*
X35239500Y-31544960D01*
X35254630Y-31679249D01*
X35254631Y-31679254D01*
X35314211Y-31849523D01*
X35410184Y-32002262D01*
X35537738Y-32129816D01*
X35690478Y-32225789D01*
X35860745Y-32285368D01*
X35860750Y-32285369D01*
X35951246Y-32295565D01*
X35995040Y-32300499D01*
X35995043Y-32300500D01*
X35995046Y-32300500D01*
X39084957Y-32300500D01*
X39084958Y-32300499D01*
X39152104Y-32292934D01*
X39219249Y-32285369D01*
X39219252Y-32285368D01*
X39219255Y-32285368D01*
X39389522Y-32225789D01*
X39542262Y-32129816D01*
X39669816Y-32002262D01*
X39765789Y-31849522D01*
X39825368Y-31679255D01*
X39840500Y-31544954D01*
X39840500Y-31424500D01*
X39860185Y-31357461D01*
X39912989Y-31311706D01*
X39964500Y-31300500D01*
X47216762Y-31300500D01*
X47283801Y-31320185D01*
X47289637Y-31324175D01*
X47351155Y-31368870D01*
X47457206Y-31422905D01*
X47575616Y-31483239D01*
X47575618Y-31483239D01*
X47575621Y-31483241D01*
X47647916Y-31506731D01*
X47815214Y-31561090D01*
X47854439Y-31567302D01*
X47890306Y-31572983D01*
X47953441Y-31602912D01*
X47958590Y-31607775D01*
X59007234Y-42656419D01*
X59040719Y-42717742D01*
X59035735Y-42787434D01*
X58993863Y-42843367D01*
X58928399Y-42867784D01*
X58919553Y-42868100D01*
X44189048Y-42868100D01*
X44121654Y-42878774D01*
X43986864Y-42900123D01*
X43986861Y-42900123D01*
X43792182Y-42963379D01*
X43792181Y-42963379D01*
X43700984Y-43009845D01*
X43700985Y-43009846D01*
X43609788Y-43056313D01*
X43444178Y-43176636D01*
X33972181Y-52648634D01*
X33910858Y-52682119D01*
X33841166Y-52677135D01*
X33785233Y-52635263D01*
X33760816Y-52569799D01*
X33760500Y-52560953D01*
X33760500Y-31962958D01*
X33780185Y-31895919D01*
X33809014Y-31864582D01*
X33828641Y-31849522D01*
X33980080Y-31733319D01*
X34193319Y-31520080D01*
X34376900Y-31280832D01*
X34527683Y-31019668D01*
X34643087Y-30741058D01*
X34721138Y-30449768D01*
X34760500Y-30150783D01*
X34760500Y-29849217D01*
X34721138Y-29550232D01*
X34643087Y-29258942D01*
X34527683Y-28980332D01*
X34514414Y-28957350D01*
X34376900Y-28719168D01*
X34193320Y-28479921D01*
X34193314Y-28479914D01*
X33980085Y-28266685D01*
X33980078Y-28266679D01*
X33740831Y-28083099D01*
X33479671Y-27932318D01*
X33479661Y-27932314D01*
X33201060Y-27816913D01*
X32909766Y-27738861D01*
X32610793Y-27699501D01*
X32610788Y-27699500D01*
X32610783Y-27699500D01*
X32309217Y-27699500D01*
X32309211Y-27699500D01*
X32309206Y-27699501D01*
X32010233Y-27738861D01*
X31718939Y-27816913D01*
X31440338Y-27932314D01*
X31440328Y-27932318D01*
X31179168Y-28083099D01*
X30939921Y-28266679D01*
X30939914Y-28266685D01*
X30726685Y-28479914D01*
X30726679Y-28479921D01*
X30543099Y-28719168D01*
X30392318Y-28980328D01*
X30392314Y-28980338D01*
X30276913Y-29258939D01*
X30198861Y-29550233D01*
X30159501Y-29849206D01*
X30159500Y-29849223D01*
X20500500Y-29849223D01*
X20500500Y-20624500D01*
X20520185Y-20557461D01*
X20572989Y-20511706D01*
X20624500Y-20500500D01*
X139375500Y-20500500D01*
X139442539Y-20520185D01*
G37*
%TD.AperFunction*%
%TA.AperFunction,NonConductor*%
G36*
X95303728Y-26720185D02*
G01*
X95349483Y-26772989D01*
X95359427Y-26842147D01*
X95330402Y-26905703D01*
X95324370Y-26912181D01*
X95279205Y-26957345D01*
X95279201Y-26957350D01*
X95131132Y-27161151D01*
X95016760Y-27385616D01*
X94938910Y-27625214D01*
X94899500Y-27874038D01*
X94899500Y-28125961D01*
X94938910Y-28374785D01*
X95016760Y-28614383D01*
X95095413Y-28768747D01*
X95124059Y-28824968D01*
X95131132Y-28838848D01*
X95279201Y-29042649D01*
X95279205Y-29042654D01*
X95457345Y-29220794D01*
X95457350Y-29220798D01*
X95635117Y-29349952D01*
X95661155Y-29368870D01*
X95804184Y-29441747D01*
X95885616Y-29483239D01*
X95885618Y-29483239D01*
X95885621Y-29483241D01*
X96014049Y-29524970D01*
X96125214Y-29561090D01*
X96164439Y-29567302D01*
X96200306Y-29572983D01*
X96263441Y-29602912D01*
X96268590Y-29607775D01*
X100231934Y-33571119D01*
X100265419Y-33632442D01*
X100260435Y-33702134D01*
X100218563Y-33758067D01*
X100153099Y-33782484D01*
X100144253Y-33782800D01*
X84194348Y-33782800D01*
X84126954Y-33793474D01*
X83992164Y-33814823D01*
X83797484Y-33878077D01*
X83797481Y-33878078D01*
X83615086Y-33971015D01*
X83449486Y-34091328D01*
X83449482Y-34091332D01*
X82277681Y-35263134D01*
X82216358Y-35296619D01*
X82146666Y-35291635D01*
X82102319Y-35263134D01*
X81847221Y-35008036D01*
X81847219Y-35008034D01*
X81681611Y-34887713D01*
X81566497Y-34829060D01*
X81566494Y-34829058D01*
X81499223Y-34794781D01*
X81451272Y-34779201D01*
X81401876Y-34763151D01*
X81378003Y-34755394D01*
X81304535Y-34731522D01*
X81129995Y-34703878D01*
X81102352Y-34699500D01*
X81102351Y-34699500D01*
X70783238Y-34699500D01*
X70716199Y-34679815D01*
X70710362Y-34675824D01*
X70648845Y-34631130D01*
X70424383Y-34516760D01*
X70184785Y-34438910D01*
X69935962Y-34399500D01*
X69684038Y-34399500D01*
X69559626Y-34419205D01*
X69435214Y-34438910D01*
X69195616Y-34516760D01*
X68971151Y-34631132D01*
X68767350Y-34779201D01*
X68767345Y-34779205D01*
X68589205Y-34957345D01*
X68589201Y-34957350D01*
X68441132Y-35161151D01*
X68326760Y-35385616D01*
X68248910Y-35625214D01*
X68209500Y-35874038D01*
X68209500Y-36125961D01*
X68248910Y-36374785D01*
X68326760Y-36614383D01*
X68405413Y-36768747D01*
X68429089Y-36815214D01*
X68441132Y-36838848D01*
X68589201Y-37042649D01*
X68589205Y-37042654D01*
X68767343Y-37220792D01*
X68767350Y-37220798D01*
X68909647Y-37324182D01*
X68971155Y-37368870D01*
X69114184Y-37441747D01*
X69195616Y-37483239D01*
X69195618Y-37483239D01*
X69195621Y-37483241D01*
X69435215Y-37561090D01*
X69684038Y-37600500D01*
X69684039Y-37600500D01*
X69935961Y-37600500D01*
X69935962Y-37600500D01*
X70184785Y-37561090D01*
X70424379Y-37483241D01*
X70648845Y-37368870D01*
X70710353Y-37324181D01*
X70776158Y-37300702D01*
X70783238Y-37300500D01*
X80065500Y-37300500D01*
X80132539Y-37320185D01*
X80178294Y-37372989D01*
X80189500Y-37424500D01*
X80189500Y-37791608D01*
X80194502Y-37842398D01*
X80204699Y-37945932D01*
X80264769Y-38143958D01*
X80319872Y-38247047D01*
X80334114Y-38315449D01*
X80309114Y-38380693D01*
X80252809Y-38422064D01*
X80210514Y-38429500D01*
X66510046Y-38429500D01*
X66443007Y-38409815D01*
X66422365Y-38393181D01*
X63797775Y-35768590D01*
X63764290Y-35707267D01*
X63762983Y-35700306D01*
X63751090Y-35625214D01*
X63673239Y-35385616D01*
X63610831Y-35263134D01*
X63558870Y-35161155D01*
X63447623Y-35008036D01*
X63410798Y-34957350D01*
X63410794Y-34957345D01*
X63232654Y-34779205D01*
X63232649Y-34779201D01*
X63028848Y-34631132D01*
X63028847Y-34631131D01*
X63028845Y-34631130D01*
X62958747Y-34595413D01*
X62804383Y-34516760D01*
X62564785Y-34438910D01*
X62315962Y-34399500D01*
X62064038Y-34399500D01*
X61939626Y-34419205D01*
X61815214Y-34438910D01*
X61575616Y-34516760D01*
X61351154Y-34631130D01*
X61312801Y-34658995D01*
X61289646Y-34675818D01*
X61223842Y-34699298D01*
X61216762Y-34699500D01*
X59417347Y-34699500D01*
X59350308Y-34679815D01*
X59329666Y-34663181D01*
X56360164Y-31693679D01*
X56326679Y-31632356D01*
X56331663Y-31562664D01*
X56373535Y-31506731D01*
X56409529Y-31488066D01*
X56424379Y-31483241D01*
X56648845Y-31368870D01*
X56710353Y-31324181D01*
X56776158Y-31300702D01*
X56783238Y-31300500D01*
X65312351Y-31300500D01*
X65312352Y-31300500D01*
X65514535Y-31268477D01*
X65661290Y-31220793D01*
X65709219Y-31205220D01*
X65800414Y-31158753D01*
X65891611Y-31112287D01*
X66057219Y-30991966D01*
X70312366Y-26736819D01*
X70373689Y-26703334D01*
X70400047Y-26700500D01*
X95236689Y-26700500D01*
X95303728Y-26720185D01*
G37*
%TD.AperFunction*%
%TA.AperFunction,NonConductor*%
G36*
X87889186Y-36403485D02*
G01*
X87934941Y-36456289D01*
X87944885Y-36525447D01*
X87932631Y-36564097D01*
X87926760Y-36575617D01*
X87914166Y-36614379D01*
X87848910Y-36815215D01*
X87809500Y-37064038D01*
X87809500Y-37315962D01*
X87817880Y-37368869D01*
X87848910Y-37564785D01*
X87926760Y-37804383D01*
X88041132Y-38028848D01*
X88189201Y-38232649D01*
X88189205Y-38232654D01*
X88328870Y-38372319D01*
X88362355Y-38433642D01*
X88357371Y-38503334D01*
X88328870Y-38547681D01*
X88189205Y-38687345D01*
X88189201Y-38687350D01*
X88041132Y-38891151D01*
X87926760Y-39115616D01*
X87848910Y-39355214D01*
X87809500Y-39604038D01*
X87809500Y-39855961D01*
X87848910Y-40104785D01*
X87926760Y-40344383D01*
X88005413Y-40498747D01*
X88022219Y-40531731D01*
X88041132Y-40568848D01*
X88189201Y-40772649D01*
X88189205Y-40772654D01*
X88328870Y-40912319D01*
X88362355Y-40973642D01*
X88357371Y-41043334D01*
X88328870Y-41087681D01*
X88189205Y-41227345D01*
X88189201Y-41227350D01*
X88041132Y-41431151D01*
X87926760Y-41655616D01*
X87848910Y-41895214D01*
X87809500Y-42144038D01*
X87809500Y-42395961D01*
X87848910Y-42644785D01*
X87926760Y-42884383D01*
X88041132Y-43108848D01*
X88189176Y-43312615D01*
X88212656Y-43378421D01*
X88196830Y-43446475D01*
X88146724Y-43495170D01*
X88088858Y-43509500D01*
X87205948Y-43509500D01*
X87181629Y-43513351D01*
X87003765Y-43541522D01*
X86809076Y-43604781D01*
X86626686Y-43697715D01*
X86508971Y-43783240D01*
X86508970Y-43783241D01*
X86461084Y-43818030D01*
X86461082Y-43818032D01*
X84651134Y-45627981D01*
X84589811Y-45661466D01*
X84563453Y-45664300D01*
X84153345Y-45664300D01*
X84086306Y-45644615D01*
X84040551Y-45591811D01*
X84030607Y-45522653D01*
X84042860Y-45484005D01*
X84049011Y-45471934D01*
X84073241Y-45424379D01*
X84151090Y-45184785D01*
X84190500Y-44935962D01*
X84190500Y-44684038D01*
X84151090Y-44435215D01*
X84073241Y-44195621D01*
X84073239Y-44195618D01*
X84073239Y-44195616D01*
X84031747Y-44114184D01*
X83958870Y-43971155D01*
X83939952Y-43945117D01*
X83810798Y-43767350D01*
X83810794Y-43767345D01*
X83671130Y-43627681D01*
X83637645Y-43566358D01*
X83642629Y-43496666D01*
X83671130Y-43452319D01*
X83676974Y-43446475D01*
X83810793Y-43312656D01*
X83958870Y-43108845D01*
X84073241Y-42884379D01*
X84151090Y-42644785D01*
X84190500Y-42395962D01*
X84190500Y-42144038D01*
X84151090Y-41895215D01*
X84073241Y-41655621D01*
X84073239Y-41655618D01*
X84073239Y-41655616D01*
X84031747Y-41574184D01*
X83958870Y-41431155D01*
X83939952Y-41405117D01*
X83810798Y-41227350D01*
X83810794Y-41227345D01*
X83671130Y-41087681D01*
X83637645Y-41026358D01*
X83642629Y-40956666D01*
X83671130Y-40912319D01*
X83713324Y-40870125D01*
X83810793Y-40772656D01*
X83958870Y-40568845D01*
X84073241Y-40344379D01*
X84151090Y-40104785D01*
X84190500Y-39855962D01*
X84190500Y-39604038D01*
X84151090Y-39355215D01*
X84073241Y-39115621D01*
X84073239Y-39115618D01*
X84073239Y-39115616D01*
X84031747Y-39034184D01*
X83958870Y-38891155D01*
X83816296Y-38694918D01*
X83792816Y-38629112D01*
X83808641Y-38561058D01*
X83837948Y-38526181D01*
X83886410Y-38486410D01*
X84017685Y-38326450D01*
X84115232Y-38143954D01*
X84175300Y-37945934D01*
X84190500Y-37791608D01*
X84190500Y-37080046D01*
X84210185Y-37013007D01*
X84226819Y-36992365D01*
X84799065Y-36420119D01*
X84860388Y-36386634D01*
X84886746Y-36383800D01*
X87822147Y-36383800D01*
X87889186Y-36403485D01*
G37*
%TD.AperFunction*%
%TA.AperFunction,NonConductor*%
G36*
X88457183Y-46116496D02*
G01*
X88478433Y-46117712D01*
X88499903Y-46129040D01*
X88503801Y-46130185D01*
X88509637Y-46134175D01*
X88571155Y-46178870D01*
X88677206Y-46232905D01*
X88795616Y-46293239D01*
X88795618Y-46293239D01*
X88795621Y-46293241D01*
X89035215Y-46371090D01*
X89284038Y-46410500D01*
X89463353Y-46410500D01*
X89530392Y-46430185D01*
X89576147Y-46482989D01*
X89586091Y-46552147D01*
X89557066Y-46615703D01*
X89551034Y-46622181D01*
X88743534Y-47429681D01*
X88682211Y-47463166D01*
X88655853Y-47466000D01*
X86790847Y-47466000D01*
X86723808Y-47446315D01*
X86678053Y-47393511D01*
X86668109Y-47324353D01*
X86697134Y-47260797D01*
X86703166Y-47254319D01*
X87810666Y-46146819D01*
X87871989Y-46113334D01*
X87898347Y-46110500D01*
X88436762Y-46110500D01*
X88457183Y-46116496D01*
G37*
%TD.AperFunction*%
%TA.AperFunction,NonConductor*%
G36*
X74916959Y-47355685D02*
G01*
X74962714Y-47408489D01*
X74972658Y-47477647D01*
X74943633Y-47541203D01*
X74906215Y-47570485D01*
X74741886Y-47654215D01*
X74576286Y-47774528D01*
X74576282Y-47774532D01*
X74431531Y-47919284D01*
X73599063Y-48751751D01*
X73537740Y-48785236D01*
X73468048Y-48780252D01*
X73423702Y-48751753D01*
X72696962Y-48025039D01*
X72219588Y-47547681D01*
X72186103Y-47486360D01*
X72191086Y-47416669D01*
X72232957Y-47360734D01*
X72298421Y-47336316D01*
X72307269Y-47336000D01*
X74849920Y-47336000D01*
X74916959Y-47355685D01*
G37*
%TD.AperFunction*%
%TA.AperFunction,NonConductor*%
G36*
X71480532Y-50496330D02*
G01*
X71513501Y-50519925D01*
X71584513Y-50590934D01*
X71618000Y-50652256D01*
X71613017Y-50721948D01*
X71584515Y-50766298D01*
X71386429Y-50964384D01*
X71325106Y-50997869D01*
X71255414Y-50992885D01*
X71199481Y-50951013D01*
X71175064Y-50885549D01*
X71188262Y-50820411D01*
X71293241Y-50614379D01*
X71299554Y-50594949D01*
X71307891Y-50569291D01*
X71347327Y-50511615D01*
X71411686Y-50484416D01*
X71480532Y-50496330D01*
G37*
%TD.AperFunction*%
%TA.AperFunction,NonConductor*%
G36*
X100090192Y-36403485D02*
G01*
X100110834Y-36420119D01*
X116142681Y-52451966D01*
X116175360Y-52475709D01*
X116176046Y-52476222D01*
X116196498Y-52503534D01*
X116217301Y-52530512D01*
X116217378Y-52531419D01*
X116217926Y-52532150D01*
X116220364Y-52566184D01*
X116223280Y-52600125D01*
X116222854Y-52600930D01*
X116222920Y-52601841D01*
X116206564Y-52631803D01*
X116190674Y-52661920D01*
X116189881Y-52662367D01*
X116189444Y-52663169D01*
X116159495Y-52679527D01*
X116129836Y-52696277D01*
X116128563Y-52696423D01*
X116128126Y-52696662D01*
X116127111Y-52696589D01*
X116101750Y-52699500D01*
X113874646Y-52699500D01*
X113807607Y-52679815D01*
X113786965Y-52663181D01*
X111950212Y-50826428D01*
X110090919Y-48967134D01*
X109925311Y-48846813D01*
X109792626Y-48779207D01*
X109742919Y-48753880D01*
X109616599Y-48712836D01*
X109548235Y-48690623D01*
X109548232Y-48690622D01*
X109392920Y-48666023D01*
X109346052Y-48658600D01*
X109346051Y-48658600D01*
X95537900Y-48658600D01*
X95470861Y-48638915D01*
X95425106Y-48586111D01*
X95413900Y-48534600D01*
X95413900Y-41421348D01*
X95381877Y-41219165D01*
X95326654Y-41049207D01*
X95318620Y-41024481D01*
X95318618Y-41024478D01*
X95318618Y-41024476D01*
X95273009Y-40934965D01*
X95270734Y-40930500D01*
X95225687Y-40842089D01*
X95163692Y-40756760D01*
X95105366Y-40676481D01*
X94960619Y-40531734D01*
X94960618Y-40531733D01*
X94957507Y-40528622D01*
X94957492Y-40528608D01*
X93166921Y-38738036D01*
X93166920Y-38738035D01*
X93166919Y-38738034D01*
X93001311Y-38617713D01*
X92885824Y-38558870D01*
X92818919Y-38524780D01*
X92713416Y-38490500D01*
X92700828Y-38486410D01*
X92624232Y-38461522D01*
X92448203Y-38433642D01*
X92422052Y-38429500D01*
X92422051Y-38429500D01*
X91531142Y-38429500D01*
X91464103Y-38409815D01*
X91418348Y-38357011D01*
X91408404Y-38287853D01*
X91430824Y-38232615D01*
X91519103Y-38111106D01*
X91578870Y-38028845D01*
X91693241Y-37804379D01*
X91771090Y-37564785D01*
X91810500Y-37315962D01*
X91810500Y-37064038D01*
X91771090Y-36815215D01*
X91693241Y-36575621D01*
X91687368Y-36564096D01*
X91674472Y-36495428D01*
X91700747Y-36430687D01*
X91757853Y-36390429D01*
X91797853Y-36383800D01*
X100023153Y-36383800D01*
X100090192Y-36403485D01*
G37*
%TD.AperFunction*%
%TA.AperFunction,NonConductor*%
G36*
X56649392Y-45488785D02*
G01*
X56695147Y-45541589D01*
X56705091Y-45610747D01*
X56676066Y-45674303D01*
X56670034Y-45680781D01*
X47958590Y-54392223D01*
X47897267Y-54425708D01*
X47890309Y-54427015D01*
X47815217Y-54438909D01*
X47575618Y-54516760D01*
X47351154Y-54631130D01*
X47312801Y-54658995D01*
X47289646Y-54675818D01*
X47223842Y-54699298D01*
X47216762Y-54699500D01*
X39964500Y-54699500D01*
X39897461Y-54679815D01*
X39851706Y-54627011D01*
X39840500Y-54575500D01*
X39840500Y-54455043D01*
X39840499Y-54455039D01*
X39825369Y-54320750D01*
X39825368Y-54320745D01*
X39765789Y-54150478D01*
X39669816Y-53997738D01*
X39542262Y-53870184D01*
X39542124Y-53870097D01*
X39389523Y-53774211D01*
X39219254Y-53714631D01*
X39219249Y-53714630D01*
X39084960Y-53699500D01*
X39084954Y-53699500D01*
X36899047Y-53699500D01*
X36832008Y-53679815D01*
X36786253Y-53627011D01*
X36776309Y-53557853D01*
X36805334Y-53494297D01*
X36811366Y-53487819D01*
X44793766Y-45505419D01*
X44855089Y-45471934D01*
X44881447Y-45469100D01*
X56582353Y-45469100D01*
X56649392Y-45488785D01*
G37*
%TD.AperFunction*%
%TA.AperFunction,NonConductor*%
G36*
X35158834Y-55242864D02*
G01*
X35214767Y-55284736D01*
X35239184Y-55350200D01*
X35239500Y-55359046D01*
X35239500Y-56640953D01*
X35233261Y-56662198D01*
X35231682Y-56684287D01*
X35223609Y-56695070D01*
X35219815Y-56707992D01*
X35203081Y-56722491D01*
X35189810Y-56740220D01*
X35177189Y-56744927D01*
X35167011Y-56753747D01*
X35145093Y-56756898D01*
X35124346Y-56764637D01*
X35111185Y-56761774D01*
X35097853Y-56763691D01*
X35077709Y-56754491D01*
X35056073Y-56749785D01*
X35038347Y-56736516D01*
X35034297Y-56734666D01*
X35027819Y-56728634D01*
X34856908Y-56557723D01*
X34855686Y-56556401D01*
X34852866Y-56553581D01*
X34767622Y-56468337D01*
X34734139Y-56407017D01*
X34732366Y-56364477D01*
X34760500Y-56150783D01*
X34760500Y-55849217D01*
X34732354Y-55635434D01*
X34743119Y-55566403D01*
X34767609Y-55531574D01*
X35027820Y-55271364D01*
X35089142Y-55237880D01*
X35158834Y-55242864D01*
G37*
%TD.AperFunction*%
%TA.AperFunction,NonConductor*%
G36*
X62782492Y-47355685D02*
G01*
X62828247Y-47408489D01*
X62838191Y-47477647D01*
X62809166Y-47541203D01*
X62803134Y-47547681D01*
X61958590Y-48392223D01*
X61897267Y-48425708D01*
X61890309Y-48427015D01*
X61815217Y-48438909D01*
X61575618Y-48516760D01*
X61351151Y-48631132D01*
X61147350Y-48779201D01*
X61147345Y-48779205D01*
X60969205Y-48957345D01*
X60969201Y-48957350D01*
X60821132Y-49161151D01*
X60706760Y-49385616D01*
X60628910Y-49625214D01*
X60589500Y-49874038D01*
X60589500Y-50125961D01*
X60628910Y-50374785D01*
X60706760Y-50614383D01*
X60785413Y-50768747D01*
X60814803Y-50826428D01*
X60821132Y-50838848D01*
X60969201Y-51042649D01*
X60969205Y-51042654D01*
X61147345Y-51220794D01*
X61147350Y-51220798D01*
X61250746Y-51295919D01*
X61351155Y-51368870D01*
X61494184Y-51441747D01*
X61575616Y-51483239D01*
X61575618Y-51483239D01*
X61575621Y-51483241D01*
X61815215Y-51561090D01*
X62064038Y-51600500D01*
X62064039Y-51600500D01*
X62315961Y-51600500D01*
X62315962Y-51600500D01*
X62564785Y-51561090D01*
X62804379Y-51483241D01*
X63028845Y-51368870D01*
X63232656Y-51220793D01*
X63410793Y-51042656D01*
X63558870Y-50838845D01*
X63673241Y-50614379D01*
X63751090Y-50374785D01*
X63762984Y-50299687D01*
X63792911Y-50236557D01*
X63797757Y-50231426D01*
X64826766Y-49202419D01*
X64888089Y-49168934D01*
X64914447Y-49166100D01*
X68236260Y-49166100D01*
X68303299Y-49185785D01*
X68349054Y-49238589D01*
X68358998Y-49307747D01*
X68346745Y-49346394D01*
X68326761Y-49385615D01*
X68248909Y-49625217D01*
X68237015Y-49700309D01*
X68207085Y-49763443D01*
X68202223Y-49768590D01*
X63307634Y-54663181D01*
X63246311Y-54696666D01*
X63219953Y-54699500D01*
X56783238Y-54699500D01*
X56716199Y-54679815D01*
X56710362Y-54675824D01*
X56648845Y-54631130D01*
X56640761Y-54627011D01*
X56424383Y-54516760D01*
X56184785Y-54438910D01*
X56184779Y-54438909D01*
X55935962Y-54399500D01*
X55684038Y-54399500D01*
X55559626Y-54419205D01*
X55435214Y-54438910D01*
X55195616Y-54516760D01*
X54971151Y-54631132D01*
X54767350Y-54779201D01*
X54767345Y-54779205D01*
X54589205Y-54957345D01*
X54589201Y-54957350D01*
X54441132Y-55161151D01*
X54326760Y-55385618D01*
X54248909Y-55625217D01*
X54237015Y-55700309D01*
X54207085Y-55763443D01*
X54202223Y-55768590D01*
X52505934Y-57464881D01*
X52444611Y-57498366D01*
X52418253Y-57501200D01*
X49228342Y-57501200D01*
X49161303Y-57481515D01*
X49115548Y-57428711D01*
X49105604Y-57359553D01*
X49134629Y-57295997D01*
X49155457Y-57276882D01*
X49232649Y-57220798D01*
X49232647Y-57220798D01*
X49232656Y-57220793D01*
X49410793Y-57042656D01*
X49558870Y-56838845D01*
X49673241Y-56614379D01*
X49751090Y-56374785D01*
X49762984Y-56299687D01*
X49792911Y-56236557D01*
X49797757Y-56231426D01*
X58656866Y-47372319D01*
X58718189Y-47338834D01*
X58744547Y-47336000D01*
X62715453Y-47336000D01*
X62782492Y-47355685D01*
G37*
%TD.AperFunction*%
%TA.AperFunction,NonConductor*%
G36*
X103630692Y-55177285D02*
G01*
X103651334Y-55193919D01*
X105841508Y-57384092D01*
X105841522Y-57384107D01*
X105844633Y-57387218D01*
X105844634Y-57387219D01*
X105989381Y-57531966D01*
X105989384Y-57531968D01*
X105989385Y-57531969D01*
X106021335Y-57555182D01*
X106064001Y-57610511D01*
X106069980Y-57680125D01*
X106037375Y-57741920D01*
X105976536Y-57776277D01*
X105948450Y-57779500D01*
X105170046Y-57779500D01*
X105103007Y-57759815D01*
X105082365Y-57743181D01*
X104096082Y-56756898D01*
X103107775Y-55768590D01*
X103074290Y-55707267D01*
X103072983Y-55700306D01*
X103061090Y-55625214D01*
X102983238Y-55385613D01*
X102958924Y-55337894D01*
X102946028Y-55269225D01*
X102972305Y-55204485D01*
X103029412Y-55164228D01*
X103069409Y-55157600D01*
X103563653Y-55157600D01*
X103630692Y-55177285D01*
G37*
%TD.AperFunction*%
%TA.AperFunction,NonConductor*%
G36*
X86966193Y-65539485D02*
G01*
X87011948Y-65592289D01*
X87021892Y-65661447D01*
X86992867Y-65725003D01*
X86986835Y-65731481D01*
X84402181Y-68316134D01*
X84340858Y-68349619D01*
X84271166Y-68344635D01*
X84215233Y-68302763D01*
X84190816Y-68237299D01*
X84190500Y-68228453D01*
X84190500Y-68080046D01*
X84210185Y-68013007D01*
X84226819Y-67992365D01*
X86663065Y-65556119D01*
X86689992Y-65541415D01*
X86715811Y-65524823D01*
X86722011Y-65523931D01*
X86724388Y-65522634D01*
X86750746Y-65519800D01*
X86899154Y-65519800D01*
X86966193Y-65539485D01*
G37*
%TD.AperFunction*%
%TA.AperFunction,NonConductor*%
G36*
X87800368Y-68664216D02*
G01*
X87832670Y-68666527D01*
X87834872Y-68668175D01*
X87837604Y-68668489D01*
X87862671Y-68688986D01*
X87888603Y-68708399D01*
X87890215Y-68711509D01*
X87891693Y-68712717D01*
X87907266Y-68744389D01*
X87926758Y-68804379D01*
X88041132Y-69028848D01*
X88189201Y-69232649D01*
X88189205Y-69232654D01*
X88328870Y-69372319D01*
X88362355Y-69433642D01*
X88357371Y-69503334D01*
X88328870Y-69547681D01*
X88189205Y-69687345D01*
X88189201Y-69687350D01*
X88041132Y-69891151D01*
X87926760Y-70115616D01*
X87848910Y-70355214D01*
X87841106Y-70404484D01*
X87809500Y-70604038D01*
X87809500Y-70855962D01*
X87837783Y-71034534D01*
X87848910Y-71104785D01*
X87926760Y-71344383D01*
X88041132Y-71568848D01*
X88189201Y-71772649D01*
X88189205Y-71772654D01*
X88328870Y-71912319D01*
X88362355Y-71973642D01*
X88357371Y-72043334D01*
X88328870Y-72087681D01*
X88189205Y-72227345D01*
X88189201Y-72227350D01*
X88041132Y-72431151D01*
X87926760Y-72655616D01*
X87848910Y-72895214D01*
X87809500Y-73144038D01*
X87809500Y-73395961D01*
X87848910Y-73644785D01*
X87926760Y-73884383D01*
X88041132Y-74108848D01*
X88189176Y-74312615D01*
X88212656Y-74378421D01*
X88196830Y-74446475D01*
X88146724Y-74495170D01*
X88088858Y-74509500D01*
X83911142Y-74509500D01*
X83844103Y-74489815D01*
X83798348Y-74437011D01*
X83788404Y-74367853D01*
X83810824Y-74312615D01*
X83899103Y-74191106D01*
X83958870Y-74108845D01*
X84073241Y-73884379D01*
X84151090Y-73644785D01*
X84190500Y-73395962D01*
X84190500Y-73144038D01*
X84151090Y-72895215D01*
X84073241Y-72655621D01*
X84073239Y-72655618D01*
X84073239Y-72655616D01*
X84031747Y-72574184D01*
X83958870Y-72431155D01*
X83948227Y-72416506D01*
X83810824Y-72227385D01*
X83787344Y-72161579D01*
X83803170Y-72093525D01*
X83853276Y-72044830D01*
X83911142Y-72030500D01*
X84794051Y-72030500D01*
X84794052Y-72030500D01*
X84996234Y-71998477D01*
X85190919Y-71935220D01*
X85373310Y-71842287D01*
X85469206Y-71772615D01*
X85538913Y-71721971D01*
X85538915Y-71721968D01*
X85538919Y-71721966D01*
X85683666Y-71577219D01*
X85683668Y-71577215D01*
X85683671Y-71577213D01*
X85736432Y-71504590D01*
X85803987Y-71411610D01*
X85896920Y-71229219D01*
X85960177Y-71034534D01*
X85992200Y-70832352D01*
X85992200Y-70455846D01*
X86011885Y-70388807D01*
X86028519Y-70368165D01*
X86849003Y-69547681D01*
X87701657Y-68695026D01*
X87704068Y-68693710D01*
X87705489Y-68691354D01*
X87734567Y-68677056D01*
X87762978Y-68661543D01*
X87765719Y-68661739D01*
X87768189Y-68660525D01*
X87800368Y-68664216D01*
G37*
%TD.AperFunction*%
%TA.AperFunction,NonConductor*%
G36*
X65147692Y-75179585D02*
G01*
X65168334Y-75196219D01*
X66591581Y-76619466D01*
X66591584Y-76619468D01*
X66757187Y-76739786D01*
X66757188Y-76739786D01*
X66757189Y-76739787D01*
X66766610Y-76744587D01*
X66766615Y-76744591D01*
X66766616Y-76744590D01*
X66939580Y-76832720D01*
X66939586Y-76832722D01*
X67000937Y-76852656D01*
X67000938Y-76852656D01*
X67134265Y-76895977D01*
X67336448Y-76928000D01*
X68442724Y-76928000D01*
X68509763Y-76947685D01*
X68543043Y-76979116D01*
X68589203Y-77042652D01*
X68767344Y-77220793D01*
X68767350Y-77220798D01*
X68909647Y-77324182D01*
X68971155Y-77368870D01*
X69052859Y-77410500D01*
X69195616Y-77483239D01*
X69195618Y-77483239D01*
X69195621Y-77483241D01*
X69435215Y-77561090D01*
X69684038Y-77600500D01*
X69684039Y-77600500D01*
X69935961Y-77600500D01*
X69935962Y-77600500D01*
X70184785Y-77561090D01*
X70424379Y-77483241D01*
X70648845Y-77368870D01*
X70710353Y-77324181D01*
X70776158Y-77300702D01*
X70783238Y-77300500D01*
X79600651Y-77300500D01*
X79600652Y-77300500D01*
X79802835Y-77268477D01*
X79949590Y-77220793D01*
X79997519Y-77205220D01*
X80088714Y-77158753D01*
X80156897Y-77124013D01*
X80213188Y-77110500D01*
X80816762Y-77110500D01*
X80883801Y-77130185D01*
X80889637Y-77134175D01*
X80951155Y-77178870D01*
X81057206Y-77232905D01*
X81175616Y-77293239D01*
X81175618Y-77293239D01*
X81175621Y-77293241D01*
X81415215Y-77371090D01*
X81664038Y-77410500D01*
X81664039Y-77410500D01*
X82715961Y-77410500D01*
X82715962Y-77410500D01*
X82964785Y-77371090D01*
X83204379Y-77293241D01*
X83428845Y-77178870D01*
X83490353Y-77134181D01*
X83556158Y-77110702D01*
X83563238Y-77110500D01*
X88436762Y-77110500D01*
X88503801Y-77130185D01*
X88509637Y-77134175D01*
X88571155Y-77178870D01*
X88677206Y-77232905D01*
X88795616Y-77293239D01*
X88795618Y-77293239D01*
X88795621Y-77293241D01*
X89035215Y-77371090D01*
X89284038Y-77410500D01*
X89470653Y-77410500D01*
X89537692Y-77430185D01*
X89583447Y-77482989D01*
X89593391Y-77552147D01*
X89564366Y-77615703D01*
X89558334Y-77622181D01*
X87175934Y-80004581D01*
X87114611Y-80038066D01*
X87088253Y-80040900D01*
X63614500Y-80040900D01*
X63547461Y-80021215D01*
X63501706Y-79968411D01*
X63490500Y-79916900D01*
X63490500Y-76973237D01*
X63510185Y-76906198D01*
X63514168Y-76900370D01*
X63558870Y-76838845D01*
X63673241Y-76614379D01*
X63751090Y-76374785D01*
X63790500Y-76125962D01*
X63790500Y-75874038D01*
X63751090Y-75625215D01*
X63673241Y-75385621D01*
X63673238Y-75385617D01*
X63673238Y-75385614D01*
X63650096Y-75340196D01*
X63637199Y-75271527D01*
X63663475Y-75206786D01*
X63720581Y-75166528D01*
X63760580Y-75159900D01*
X65080653Y-75159900D01*
X65147692Y-75179585D01*
G37*
%TD.AperFunction*%
%TA.AperFunction,NonConductor*%
G36*
X92732234Y-47221865D02*
G01*
X92788167Y-47263737D01*
X92812584Y-47329201D01*
X92812900Y-47338047D01*
X92812900Y-49369053D01*
X92793215Y-49436092D01*
X92776581Y-49456734D01*
X81570134Y-60663181D01*
X81508811Y-60696666D01*
X81482453Y-60699500D01*
X70783238Y-60699500D01*
X70716199Y-60679815D01*
X70710362Y-60675824D01*
X70648845Y-60631130D01*
X70606545Y-60609577D01*
X70424383Y-60516760D01*
X70184785Y-60438910D01*
X70184779Y-60438909D01*
X69935962Y-60399500D01*
X69684038Y-60399500D01*
X69559626Y-60419205D01*
X69435214Y-60438910D01*
X69195616Y-60516760D01*
X68971151Y-60631132D01*
X68767350Y-60779201D01*
X68767345Y-60779205D01*
X68589205Y-60957345D01*
X68589201Y-60957350D01*
X68441132Y-61161151D01*
X68326760Y-61385616D01*
X68248910Y-61625214D01*
X68209500Y-61874038D01*
X68209500Y-62125961D01*
X68248910Y-62374785D01*
X68326760Y-62614383D01*
X68441132Y-62838848D01*
X68589201Y-63042649D01*
X68589205Y-63042654D01*
X68767344Y-63220793D01*
X68767350Y-63220798D01*
X68909647Y-63324182D01*
X68971155Y-63368870D01*
X69114184Y-63441747D01*
X69195616Y-63483239D01*
X69195618Y-63483239D01*
X69195621Y-63483241D01*
X69435215Y-63561090D01*
X69684038Y-63600500D01*
X69684039Y-63600500D01*
X69935961Y-63600500D01*
X69935962Y-63600500D01*
X70184785Y-63561090D01*
X70424379Y-63483241D01*
X70648845Y-63368870D01*
X70710353Y-63324181D01*
X70776158Y-63300702D01*
X70783238Y-63300500D01*
X82174851Y-63300500D01*
X82174852Y-63300500D01*
X82377035Y-63268477D01*
X82523790Y-63220793D01*
X82571719Y-63205220D01*
X82662914Y-63158753D01*
X82754111Y-63112287D01*
X82919719Y-62991966D01*
X94615766Y-51295919D01*
X94677089Y-51262434D01*
X94703447Y-51259600D01*
X108653653Y-51259600D01*
X108720692Y-51279285D01*
X108741334Y-51295919D01*
X112289508Y-54844092D01*
X112289522Y-54844107D01*
X112292633Y-54847218D01*
X112292634Y-54847219D01*
X112437381Y-54991966D01*
X112437384Y-54991968D01*
X112437386Y-54991970D01*
X112469334Y-55015181D01*
X112512000Y-55070510D01*
X112517981Y-55140123D01*
X112485376Y-55201919D01*
X112424538Y-55236277D01*
X112396450Y-55239500D01*
X107426646Y-55239500D01*
X107359607Y-55219815D01*
X107338965Y-55203181D01*
X106172824Y-54037040D01*
X105000919Y-52865134D01*
X104835311Y-52744813D01*
X104744114Y-52698346D01*
X104712267Y-52682119D01*
X104652923Y-52651881D01*
X104591129Y-52631803D01*
X104555576Y-52620251D01*
X104531703Y-52612494D01*
X104458235Y-52588622D01*
X104283535Y-52560953D01*
X104256052Y-52556600D01*
X104256051Y-52556600D01*
X100729987Y-52556600D01*
X100729963Y-52556599D01*
X100724852Y-52556599D01*
X100520149Y-52556599D01*
X100459634Y-52566184D01*
X100317964Y-52588623D01*
X100317961Y-52588623D01*
X100123284Y-52651877D01*
X100123281Y-52651878D01*
X99940890Y-52744812D01*
X99775281Y-52865133D01*
X98008036Y-54632378D01*
X97887713Y-54797988D01*
X97861688Y-54849066D01*
X97861687Y-54849067D01*
X97855064Y-54862065D01*
X97807089Y-54912861D01*
X97739268Y-54929655D01*
X97673133Y-54907117D01*
X97656899Y-54893450D01*
X97542654Y-54779205D01*
X97542649Y-54779201D01*
X97338848Y-54631132D01*
X97338847Y-54631131D01*
X97338845Y-54631130D01*
X97229665Y-54575500D01*
X97114383Y-54516760D01*
X96874785Y-54438910D01*
X96874779Y-54438909D01*
X96625962Y-54399500D01*
X96374038Y-54399500D01*
X96249626Y-54419205D01*
X96125214Y-54438910D01*
X95885616Y-54516760D01*
X95661151Y-54631132D01*
X95457350Y-54779201D01*
X95457345Y-54779205D01*
X95279205Y-54957345D01*
X95279201Y-54957350D01*
X95131132Y-55161151D01*
X95016760Y-55385616D01*
X94963273Y-55550233D01*
X94938910Y-55625215D01*
X94899500Y-55874038D01*
X94899500Y-56125962D01*
X94903433Y-56150793D01*
X94938910Y-56374785D01*
X95016760Y-56614383D01*
X95131132Y-56838848D01*
X95279201Y-57042649D01*
X95279205Y-57042654D01*
X95457345Y-57220794D01*
X95457350Y-57220798D01*
X95599647Y-57324182D01*
X95661155Y-57368870D01*
X95778600Y-57428711D01*
X95885616Y-57483239D01*
X95885618Y-57483239D01*
X95885621Y-57483241D01*
X96125215Y-57561090D01*
X96374038Y-57600500D01*
X96374039Y-57600500D01*
X96625961Y-57600500D01*
X96625962Y-57600500D01*
X96874785Y-57561090D01*
X97114379Y-57483241D01*
X97338845Y-57368870D01*
X97444185Y-57292336D01*
X97502615Y-57249885D01*
X97568421Y-57226405D01*
X97636475Y-57242231D01*
X97685170Y-57292336D01*
X97699500Y-57350203D01*
X97699500Y-58800353D01*
X97679815Y-58867392D01*
X97663181Y-58888034D01*
X93668734Y-62882481D01*
X93607411Y-62915966D01*
X93581053Y-62918800D01*
X86058348Y-62918800D01*
X85990954Y-62929474D01*
X85856164Y-62950823D01*
X85661484Y-63014077D01*
X85661481Y-63014078D01*
X85479086Y-63107015D01*
X85313486Y-63227328D01*
X85313482Y-63227332D01*
X81987634Y-66553181D01*
X81926311Y-66586666D01*
X81899953Y-66589500D01*
X81188392Y-66589500D01*
X81150298Y-66593251D01*
X81034067Y-66604699D01*
X80836043Y-66664769D01*
X80725898Y-66723643D01*
X80653550Y-66762315D01*
X80653548Y-66762316D01*
X80653547Y-66762317D01*
X80493589Y-66893589D01*
X80362317Y-67053547D01*
X80264769Y-67236043D01*
X80204699Y-67434067D01*
X80189500Y-67588395D01*
X80189500Y-68791604D01*
X80204699Y-68945932D01*
X80204700Y-68945934D01*
X80264768Y-69143954D01*
X80362315Y-69326450D01*
X80431533Y-69410793D01*
X80493590Y-69486410D01*
X80542049Y-69526180D01*
X80581383Y-69583926D01*
X80583254Y-69653770D01*
X80563703Y-69694918D01*
X80421129Y-69891155D01*
X80306760Y-70115616D01*
X80228910Y-70355214D01*
X80221106Y-70404484D01*
X80189500Y-70604038D01*
X80189500Y-70855962D01*
X80217783Y-71034534D01*
X80228910Y-71104785D01*
X80306760Y-71344383D01*
X80421132Y-71568848D01*
X80569176Y-71772615D01*
X80592656Y-71838421D01*
X80576830Y-71906475D01*
X80526724Y-71955170D01*
X80468858Y-71969500D01*
X68219347Y-71969500D01*
X68152308Y-71949815D01*
X68131666Y-71933181D01*
X67231221Y-71032736D01*
X67231219Y-71032734D01*
X67065611Y-70912413D01*
X66954819Y-70855962D01*
X66954817Y-70855961D01*
X66883223Y-70819481D01*
X66836515Y-70804304D01*
X66785876Y-70787851D01*
X66762003Y-70780094D01*
X66688535Y-70756222D01*
X66513995Y-70728578D01*
X66486352Y-70724200D01*
X66486351Y-70724200D01*
X58272787Y-70724200D01*
X58272763Y-70724199D01*
X58267652Y-70724199D01*
X58062949Y-70724199D01*
X57995554Y-70734873D01*
X57860764Y-70756223D01*
X57860761Y-70756223D01*
X57666084Y-70819477D01*
X57666081Y-70819478D01*
X57483686Y-70912415D01*
X57318086Y-71032728D01*
X57318082Y-71032732D01*
X57173331Y-71177484D01*
X47958590Y-80392223D01*
X47897267Y-80425708D01*
X47890309Y-80427015D01*
X47815217Y-80438909D01*
X47575618Y-80516760D01*
X47351154Y-80631130D01*
X47312801Y-80658995D01*
X47289646Y-80675818D01*
X47223842Y-80699298D01*
X47216762Y-80699500D01*
X39964500Y-80699500D01*
X39897461Y-80679815D01*
X39851706Y-80627011D01*
X39840500Y-80575500D01*
X39840500Y-80455043D01*
X39840499Y-80455039D01*
X39825369Y-80320750D01*
X39825368Y-80320745D01*
X39765789Y-80150478D01*
X39669816Y-79997738D01*
X39542262Y-79870184D01*
X39526543Y-79860307D01*
X39389523Y-79774211D01*
X39219254Y-79714631D01*
X39219249Y-79714630D01*
X39084960Y-79699500D01*
X39084954Y-79699500D01*
X35995046Y-79699500D01*
X35995039Y-79699500D01*
X35860750Y-79714630D01*
X35860745Y-79714631D01*
X35690476Y-79774211D01*
X35537737Y-79870184D01*
X35410184Y-79997737D01*
X35314211Y-80150476D01*
X35254631Y-80320745D01*
X35254630Y-80320750D01*
X35239500Y-80455039D01*
X35239500Y-82640953D01*
X35219815Y-82707992D01*
X35167011Y-82753747D01*
X35097853Y-82763691D01*
X35034297Y-82734666D01*
X35027819Y-82728634D01*
X34767612Y-82468427D01*
X34734127Y-82407104D01*
X34732354Y-82364565D01*
X34760500Y-82150783D01*
X34760500Y-81849217D01*
X34721138Y-81550232D01*
X34643087Y-81258942D01*
X34527683Y-80980332D01*
X34376900Y-80719168D01*
X34221587Y-80516760D01*
X34193320Y-80479921D01*
X34193314Y-80479914D01*
X33980085Y-80266685D01*
X33809013Y-80135416D01*
X33767811Y-80078988D01*
X33760500Y-80037040D01*
X33760500Y-59439047D01*
X33780185Y-59372008D01*
X33832989Y-59326253D01*
X33902147Y-59316309D01*
X33965703Y-59345334D01*
X33972181Y-59351366D01*
X34414481Y-59793666D01*
X34580089Y-59913987D01*
X34580096Y-59913990D01*
X34580100Y-59913993D01*
X34592203Y-59920159D01*
X34606054Y-59927216D01*
X34606058Y-59927220D01*
X34606059Y-59927219D01*
X34762480Y-60006920D01*
X34762486Y-60006922D01*
X34812847Y-60023284D01*
X34859821Y-60038547D01*
X34859822Y-60038548D01*
X34884158Y-60046455D01*
X34957165Y-60070177D01*
X35159348Y-60102200D01*
X35159349Y-60102200D01*
X53110651Y-60102200D01*
X53110652Y-60102200D01*
X53312835Y-60070177D01*
X53410176Y-60038548D01*
X53507519Y-60006920D01*
X53663941Y-59927219D01*
X53682232Y-59917899D01*
X53689900Y-59913993D01*
X53689902Y-59913991D01*
X53689911Y-59913987D01*
X53855519Y-59793666D01*
X56041410Y-57607773D01*
X56102731Y-57574290D01*
X56109645Y-57572990D01*
X56184785Y-57561090D01*
X56424379Y-57483241D01*
X56427767Y-57481515D01*
X56432620Y-57479041D01*
X56648845Y-57368870D01*
X56710353Y-57324181D01*
X56776158Y-57300702D01*
X56783238Y-57300500D01*
X63912351Y-57300500D01*
X63912352Y-57300500D01*
X64114535Y-57268477D01*
X64211876Y-57236848D01*
X64309219Y-57205220D01*
X64400414Y-57158753D01*
X64491611Y-57112287D01*
X64657219Y-56991966D01*
X70041410Y-51607773D01*
X70102731Y-51574290D01*
X70109645Y-51572990D01*
X70184785Y-51561090D01*
X70424379Y-51483241D01*
X70630411Y-51378262D01*
X70699077Y-51365367D01*
X70763817Y-51391643D01*
X70804075Y-51448749D01*
X70807067Y-51518555D01*
X70774384Y-51576429D01*
X61958590Y-60392223D01*
X61897267Y-60425708D01*
X61890309Y-60427015D01*
X61815217Y-60438909D01*
X61575618Y-60516760D01*
X61351151Y-60631132D01*
X61147350Y-60779201D01*
X61147345Y-60779205D01*
X60969205Y-60957345D01*
X60969201Y-60957350D01*
X60821132Y-61161151D01*
X60706760Y-61385616D01*
X60628910Y-61625214D01*
X60589500Y-61874038D01*
X60589500Y-62125961D01*
X60628910Y-62374785D01*
X60706760Y-62614383D01*
X60821132Y-62838848D01*
X60969201Y-63042649D01*
X60969205Y-63042654D01*
X61147344Y-63220793D01*
X61147350Y-63220798D01*
X61289647Y-63324182D01*
X61351155Y-63368870D01*
X61494184Y-63441747D01*
X61575616Y-63483239D01*
X61575618Y-63483239D01*
X61575621Y-63483241D01*
X61815215Y-63561090D01*
X62064038Y-63600500D01*
X62064039Y-63600500D01*
X62315961Y-63600500D01*
X62315962Y-63600500D01*
X62564785Y-63561090D01*
X62804379Y-63483241D01*
X63028845Y-63368870D01*
X63232656Y-63220793D01*
X63410793Y-63042656D01*
X63558870Y-62838845D01*
X63673241Y-62614379D01*
X63751090Y-62374785D01*
X63762984Y-62299687D01*
X63792911Y-62236557D01*
X63797757Y-62231426D01*
X74358628Y-51670556D01*
X74358636Y-51670551D01*
X74428685Y-51600500D01*
X74503366Y-51525819D01*
X74503366Y-51525818D01*
X75925865Y-50103319D01*
X75987188Y-50069834D01*
X76013546Y-50067000D01*
X89348251Y-50067000D01*
X89348252Y-50067000D01*
X89550435Y-50034977D01*
X89667349Y-49996989D01*
X89745119Y-49971720D01*
X89875046Y-49905519D01*
X89927511Y-49878787D01*
X90093119Y-49758466D01*
X92601219Y-47250366D01*
X92662542Y-47216881D01*
X92732234Y-47221865D01*
G37*
%TD.AperFunction*%
%TA.AperFunction,NonConductor*%
G36*
X59750592Y-73344885D02*
G01*
X59796347Y-73397689D01*
X59806291Y-73466847D01*
X59777266Y-73530403D01*
X59771234Y-73536881D01*
X54818036Y-78490078D01*
X54697713Y-78655688D01*
X54651246Y-78746885D01*
X54651245Y-78746884D01*
X54604779Y-78838081D01*
X54604779Y-78838082D01*
X54541523Y-79032761D01*
X54541523Y-79032764D01*
X54509500Y-79234948D01*
X54509500Y-81026761D01*
X54489815Y-81093800D01*
X54485818Y-81099646D01*
X54441132Y-81161151D01*
X54326760Y-81385618D01*
X54248909Y-81625217D01*
X54237015Y-81700309D01*
X54207085Y-81763443D01*
X54202223Y-81768590D01*
X52505934Y-83464881D01*
X52444611Y-83498366D01*
X52418253Y-83501200D01*
X49228342Y-83501200D01*
X49161303Y-83481515D01*
X49115548Y-83428711D01*
X49105604Y-83359553D01*
X49134629Y-83295997D01*
X49155457Y-83276882D01*
X49232649Y-83220798D01*
X49232647Y-83220798D01*
X49232656Y-83220793D01*
X49410793Y-83042656D01*
X49558870Y-82838845D01*
X49673241Y-82614379D01*
X49751090Y-82374785D01*
X49762984Y-82299687D01*
X49792911Y-82236557D01*
X49797757Y-82231426D01*
X58667665Y-73361519D01*
X58728988Y-73328034D01*
X58755346Y-73325200D01*
X59683553Y-73325200D01*
X59750592Y-73344885D01*
G37*
%TD.AperFunction*%
M02*
