%TF.GenerationSoftware,KiCad,Pcbnew,9.0.4*%
%TF.CreationDate,2026-06-10T15:27:48+02:00*%
%TF.ProjectId,current_sense,63757272-656e-4745-9f73-656e73652e6b,rev?*%
%TF.SameCoordinates,Original*%
%TF.FileFunction,AssemblyDrawing,Top*%
%FSLAX46Y46*%
G04 Gerber Fmt 4.6, Leading zero omitted, Abs format (unit mm)*
G04 Created by KiCad (PCBNEW 9.0.4) date 2026-06-10 15:27:48*
%MOMM*%
%LPD*%
G01*
G04 APERTURE LIST*
%ADD10C,0.150000*%
%ADD11C,0.100000*%
G04 APERTURE END LIST*
D10*
X88880952Y-56954819D02*
X88309524Y-56954819D01*
X88595238Y-56954819D02*
X88595238Y-55954819D01*
X88595238Y-55954819D02*
X88500000Y-56097676D01*
X88500000Y-56097676D02*
X88404762Y-56192914D01*
X88404762Y-56192914D02*
X88309524Y-56240533D01*
X89500000Y-55954819D02*
X89595238Y-55954819D01*
X89595238Y-55954819D02*
X89690476Y-56002438D01*
X89690476Y-56002438D02*
X89738095Y-56050057D01*
X89738095Y-56050057D02*
X89785714Y-56145295D01*
X89785714Y-56145295D02*
X89833333Y-56335771D01*
X89833333Y-56335771D02*
X89833333Y-56573866D01*
X89833333Y-56573866D02*
X89785714Y-56764342D01*
X89785714Y-56764342D02*
X89738095Y-56859580D01*
X89738095Y-56859580D02*
X89690476Y-56907200D01*
X89690476Y-56907200D02*
X89595238Y-56954819D01*
X89595238Y-56954819D02*
X89500000Y-56954819D01*
X89500000Y-56954819D02*
X89404762Y-56907200D01*
X89404762Y-56907200D02*
X89357143Y-56859580D01*
X89357143Y-56859580D02*
X89309524Y-56764342D01*
X89309524Y-56764342D02*
X89261905Y-56573866D01*
X89261905Y-56573866D02*
X89261905Y-56335771D01*
X89261905Y-56335771D02*
X89309524Y-56145295D01*
X89309524Y-56145295D02*
X89357143Y-56050057D01*
X89357143Y-56050057D02*
X89404762Y-56002438D01*
X89404762Y-56002438D02*
X89500000Y-55954819D01*
X90452381Y-55954819D02*
X90547619Y-55954819D01*
X90547619Y-55954819D02*
X90642857Y-56002438D01*
X90642857Y-56002438D02*
X90690476Y-56050057D01*
X90690476Y-56050057D02*
X90738095Y-56145295D01*
X90738095Y-56145295D02*
X90785714Y-56335771D01*
X90785714Y-56335771D02*
X90785714Y-56573866D01*
X90785714Y-56573866D02*
X90738095Y-56764342D01*
X90738095Y-56764342D02*
X90690476Y-56859580D01*
X90690476Y-56859580D02*
X90642857Y-56907200D01*
X90642857Y-56907200D02*
X90547619Y-56954819D01*
X90547619Y-56954819D02*
X90452381Y-56954819D01*
X90452381Y-56954819D02*
X90357143Y-56907200D01*
X90357143Y-56907200D02*
X90309524Y-56859580D01*
X90309524Y-56859580D02*
X90261905Y-56764342D01*
X90261905Y-56764342D02*
X90214286Y-56573866D01*
X90214286Y-56573866D02*
X90214286Y-56335771D01*
X90214286Y-56335771D02*
X90261905Y-56145295D01*
X90261905Y-56145295D02*
X90309524Y-56050057D01*
X90309524Y-56050057D02*
X90357143Y-56002438D01*
X90357143Y-56002438D02*
X90452381Y-55954819D01*
X91214286Y-56288152D02*
X91214286Y-56954819D01*
X91214286Y-56383390D02*
X91261905Y-56335771D01*
X91261905Y-56335771D02*
X91357143Y-56288152D01*
X91357143Y-56288152D02*
X91500000Y-56288152D01*
X91500000Y-56288152D02*
X91595238Y-56335771D01*
X91595238Y-56335771D02*
X91642857Y-56431009D01*
X91642857Y-56431009D02*
X91642857Y-56954819D01*
X89833333Y-54359580D02*
X89785714Y-54407200D01*
X89785714Y-54407200D02*
X89642857Y-54454819D01*
X89642857Y-54454819D02*
X89547619Y-54454819D01*
X89547619Y-54454819D02*
X89404762Y-54407200D01*
X89404762Y-54407200D02*
X89309524Y-54311961D01*
X89309524Y-54311961D02*
X89261905Y-54216723D01*
X89261905Y-54216723D02*
X89214286Y-54026247D01*
X89214286Y-54026247D02*
X89214286Y-53883390D01*
X89214286Y-53883390D02*
X89261905Y-53692914D01*
X89261905Y-53692914D02*
X89309524Y-53597676D01*
X89309524Y-53597676D02*
X89404762Y-53502438D01*
X89404762Y-53502438D02*
X89547619Y-53454819D01*
X89547619Y-53454819D02*
X89642857Y-53454819D01*
X89642857Y-53454819D02*
X89785714Y-53502438D01*
X89785714Y-53502438D02*
X89833333Y-53550057D01*
X90214286Y-53550057D02*
X90261905Y-53502438D01*
X90261905Y-53502438D02*
X90357143Y-53454819D01*
X90357143Y-53454819D02*
X90595238Y-53454819D01*
X90595238Y-53454819D02*
X90690476Y-53502438D01*
X90690476Y-53502438D02*
X90738095Y-53550057D01*
X90738095Y-53550057D02*
X90785714Y-53645295D01*
X90785714Y-53645295D02*
X90785714Y-53740533D01*
X90785714Y-53740533D02*
X90738095Y-53883390D01*
X90738095Y-53883390D02*
X90166667Y-54454819D01*
X90166667Y-54454819D02*
X90785714Y-54454819D01*
X62452381Y-78824819D02*
X62642857Y-78824819D01*
X62642857Y-78824819D02*
X62738095Y-78777200D01*
X62738095Y-78777200D02*
X62785714Y-78729580D01*
X62785714Y-78729580D02*
X62880952Y-78586723D01*
X62880952Y-78586723D02*
X62928571Y-78396247D01*
X62928571Y-78396247D02*
X62928571Y-78015295D01*
X62928571Y-78015295D02*
X62880952Y-77920057D01*
X62880952Y-77920057D02*
X62833333Y-77872438D01*
X62833333Y-77872438D02*
X62738095Y-77824819D01*
X62738095Y-77824819D02*
X62547619Y-77824819D01*
X62547619Y-77824819D02*
X62452381Y-77872438D01*
X62452381Y-77872438D02*
X62404762Y-77920057D01*
X62404762Y-77920057D02*
X62357143Y-78015295D01*
X62357143Y-78015295D02*
X62357143Y-78253390D01*
X62357143Y-78253390D02*
X62404762Y-78348628D01*
X62404762Y-78348628D02*
X62452381Y-78396247D01*
X62452381Y-78396247D02*
X62547619Y-78443866D01*
X62547619Y-78443866D02*
X62738095Y-78443866D01*
X62738095Y-78443866D02*
X62833333Y-78396247D01*
X62833333Y-78396247D02*
X62880952Y-78348628D01*
X62880952Y-78348628D02*
X62928571Y-78253390D01*
X63357143Y-78824819D02*
X63357143Y-77824819D01*
X63452381Y-78443866D02*
X63738095Y-78824819D01*
X63738095Y-78158152D02*
X63357143Y-78539104D01*
X64357143Y-77824819D02*
X64452381Y-77824819D01*
X64452381Y-77824819D02*
X64547619Y-77872438D01*
X64547619Y-77872438D02*
X64595238Y-77920057D01*
X64595238Y-77920057D02*
X64642857Y-78015295D01*
X64642857Y-78015295D02*
X64690476Y-78205771D01*
X64690476Y-78205771D02*
X64690476Y-78443866D01*
X64690476Y-78443866D02*
X64642857Y-78634342D01*
X64642857Y-78634342D02*
X64595238Y-78729580D01*
X64595238Y-78729580D02*
X64547619Y-78777200D01*
X64547619Y-78777200D02*
X64452381Y-78824819D01*
X64452381Y-78824819D02*
X64357143Y-78824819D01*
X64357143Y-78824819D02*
X64261905Y-78777200D01*
X64261905Y-78777200D02*
X64214286Y-78729580D01*
X64214286Y-78729580D02*
X64166667Y-78634342D01*
X64166667Y-78634342D02*
X64119048Y-78443866D01*
X64119048Y-78443866D02*
X64119048Y-78205771D01*
X64119048Y-78205771D02*
X64166667Y-78015295D01*
X64166667Y-78015295D02*
X64214286Y-77920057D01*
X64214286Y-77920057D02*
X64261905Y-77872438D01*
X64261905Y-77872438D02*
X64357143Y-77824819D01*
X65166667Y-78824819D02*
X65357143Y-78824819D01*
X65357143Y-78824819D02*
X65452381Y-78777200D01*
X65452381Y-78777200D02*
X65500000Y-78729580D01*
X65500000Y-78729580D02*
X65595238Y-78586723D01*
X65595238Y-78586723D02*
X65642857Y-78396247D01*
X65642857Y-78396247D02*
X65642857Y-78015295D01*
X65642857Y-78015295D02*
X65595238Y-77920057D01*
X65595238Y-77920057D02*
X65547619Y-77872438D01*
X65547619Y-77872438D02*
X65452381Y-77824819D01*
X65452381Y-77824819D02*
X65261905Y-77824819D01*
X65261905Y-77824819D02*
X65166667Y-77872438D01*
X65166667Y-77872438D02*
X65119048Y-77920057D01*
X65119048Y-77920057D02*
X65071429Y-78015295D01*
X65071429Y-78015295D02*
X65071429Y-78253390D01*
X65071429Y-78253390D02*
X65119048Y-78348628D01*
X65119048Y-78348628D02*
X65166667Y-78396247D01*
X65166667Y-78396247D02*
X65261905Y-78443866D01*
X65261905Y-78443866D02*
X65452381Y-78443866D01*
X65452381Y-78443866D02*
X65547619Y-78396247D01*
X65547619Y-78396247D02*
X65595238Y-78348628D01*
X65595238Y-78348628D02*
X65642857Y-78253390D01*
X63357142Y-76454819D02*
X63023809Y-75978628D01*
X62785714Y-76454819D02*
X62785714Y-75454819D01*
X62785714Y-75454819D02*
X63166666Y-75454819D01*
X63166666Y-75454819D02*
X63261904Y-75502438D01*
X63261904Y-75502438D02*
X63309523Y-75550057D01*
X63309523Y-75550057D02*
X63357142Y-75645295D01*
X63357142Y-75645295D02*
X63357142Y-75788152D01*
X63357142Y-75788152D02*
X63309523Y-75883390D01*
X63309523Y-75883390D02*
X63261904Y-75931009D01*
X63261904Y-75931009D02*
X63166666Y-75978628D01*
X63166666Y-75978628D02*
X62785714Y-75978628D01*
X63690476Y-75454819D02*
X64309523Y-75454819D01*
X64309523Y-75454819D02*
X63976190Y-75835771D01*
X63976190Y-75835771D02*
X64119047Y-75835771D01*
X64119047Y-75835771D02*
X64214285Y-75883390D01*
X64214285Y-75883390D02*
X64261904Y-75931009D01*
X64261904Y-75931009D02*
X64309523Y-76026247D01*
X64309523Y-76026247D02*
X64309523Y-76264342D01*
X64309523Y-76264342D02*
X64261904Y-76359580D01*
X64261904Y-76359580D02*
X64214285Y-76407200D01*
X64214285Y-76407200D02*
X64119047Y-76454819D01*
X64119047Y-76454819D02*
X63833333Y-76454819D01*
X63833333Y-76454819D02*
X63738095Y-76407200D01*
X63738095Y-76407200D02*
X63690476Y-76359580D01*
X64642857Y-75454819D02*
X65261904Y-75454819D01*
X65261904Y-75454819D02*
X64928571Y-75835771D01*
X64928571Y-75835771D02*
X65071428Y-75835771D01*
X65071428Y-75835771D02*
X65166666Y-75883390D01*
X65166666Y-75883390D02*
X65214285Y-75931009D01*
X65214285Y-75931009D02*
X65261904Y-76026247D01*
X65261904Y-76026247D02*
X65261904Y-76264342D01*
X65261904Y-76264342D02*
X65214285Y-76359580D01*
X65214285Y-76359580D02*
X65166666Y-76407200D01*
X65166666Y-76407200D02*
X65071428Y-76454819D01*
X65071428Y-76454819D02*
X64785714Y-76454819D01*
X64785714Y-76454819D02*
X64690476Y-76407200D01*
X64690476Y-76407200D02*
X64642857Y-76359580D01*
X62452381Y-58824819D02*
X62642857Y-58824819D01*
X62642857Y-58824819D02*
X62738095Y-58777200D01*
X62738095Y-58777200D02*
X62785714Y-58729580D01*
X62785714Y-58729580D02*
X62880952Y-58586723D01*
X62880952Y-58586723D02*
X62928571Y-58396247D01*
X62928571Y-58396247D02*
X62928571Y-58015295D01*
X62928571Y-58015295D02*
X62880952Y-57920057D01*
X62880952Y-57920057D02*
X62833333Y-57872438D01*
X62833333Y-57872438D02*
X62738095Y-57824819D01*
X62738095Y-57824819D02*
X62547619Y-57824819D01*
X62547619Y-57824819D02*
X62452381Y-57872438D01*
X62452381Y-57872438D02*
X62404762Y-57920057D01*
X62404762Y-57920057D02*
X62357143Y-58015295D01*
X62357143Y-58015295D02*
X62357143Y-58253390D01*
X62357143Y-58253390D02*
X62404762Y-58348628D01*
X62404762Y-58348628D02*
X62452381Y-58396247D01*
X62452381Y-58396247D02*
X62547619Y-58443866D01*
X62547619Y-58443866D02*
X62738095Y-58443866D01*
X62738095Y-58443866D02*
X62833333Y-58396247D01*
X62833333Y-58396247D02*
X62880952Y-58348628D01*
X62880952Y-58348628D02*
X62928571Y-58253390D01*
X63357143Y-58824819D02*
X63357143Y-57824819D01*
X63452381Y-58443866D02*
X63738095Y-58824819D01*
X63738095Y-58158152D02*
X63357143Y-58539104D01*
X64357143Y-57824819D02*
X64452381Y-57824819D01*
X64452381Y-57824819D02*
X64547619Y-57872438D01*
X64547619Y-57872438D02*
X64595238Y-57920057D01*
X64595238Y-57920057D02*
X64642857Y-58015295D01*
X64642857Y-58015295D02*
X64690476Y-58205771D01*
X64690476Y-58205771D02*
X64690476Y-58443866D01*
X64690476Y-58443866D02*
X64642857Y-58634342D01*
X64642857Y-58634342D02*
X64595238Y-58729580D01*
X64595238Y-58729580D02*
X64547619Y-58777200D01*
X64547619Y-58777200D02*
X64452381Y-58824819D01*
X64452381Y-58824819D02*
X64357143Y-58824819D01*
X64357143Y-58824819D02*
X64261905Y-58777200D01*
X64261905Y-58777200D02*
X64214286Y-58729580D01*
X64214286Y-58729580D02*
X64166667Y-58634342D01*
X64166667Y-58634342D02*
X64119048Y-58443866D01*
X64119048Y-58443866D02*
X64119048Y-58205771D01*
X64119048Y-58205771D02*
X64166667Y-58015295D01*
X64166667Y-58015295D02*
X64214286Y-57920057D01*
X64214286Y-57920057D02*
X64261905Y-57872438D01*
X64261905Y-57872438D02*
X64357143Y-57824819D01*
X65166667Y-58824819D02*
X65357143Y-58824819D01*
X65357143Y-58824819D02*
X65452381Y-58777200D01*
X65452381Y-58777200D02*
X65500000Y-58729580D01*
X65500000Y-58729580D02*
X65595238Y-58586723D01*
X65595238Y-58586723D02*
X65642857Y-58396247D01*
X65642857Y-58396247D02*
X65642857Y-58015295D01*
X65642857Y-58015295D02*
X65595238Y-57920057D01*
X65595238Y-57920057D02*
X65547619Y-57872438D01*
X65547619Y-57872438D02*
X65452381Y-57824819D01*
X65452381Y-57824819D02*
X65261905Y-57824819D01*
X65261905Y-57824819D02*
X65166667Y-57872438D01*
X65166667Y-57872438D02*
X65119048Y-57920057D01*
X65119048Y-57920057D02*
X65071429Y-58015295D01*
X65071429Y-58015295D02*
X65071429Y-58253390D01*
X65071429Y-58253390D02*
X65119048Y-58348628D01*
X65119048Y-58348628D02*
X65166667Y-58396247D01*
X65166667Y-58396247D02*
X65261905Y-58443866D01*
X65261905Y-58443866D02*
X65452381Y-58443866D01*
X65452381Y-58443866D02*
X65547619Y-58396247D01*
X65547619Y-58396247D02*
X65595238Y-58348628D01*
X65595238Y-58348628D02*
X65642857Y-58253390D01*
X63357142Y-56454819D02*
X63023809Y-55978628D01*
X62785714Y-56454819D02*
X62785714Y-55454819D01*
X62785714Y-55454819D02*
X63166666Y-55454819D01*
X63166666Y-55454819D02*
X63261904Y-55502438D01*
X63261904Y-55502438D02*
X63309523Y-55550057D01*
X63309523Y-55550057D02*
X63357142Y-55645295D01*
X63357142Y-55645295D02*
X63357142Y-55788152D01*
X63357142Y-55788152D02*
X63309523Y-55883390D01*
X63309523Y-55883390D02*
X63261904Y-55931009D01*
X63261904Y-55931009D02*
X63166666Y-55978628D01*
X63166666Y-55978628D02*
X62785714Y-55978628D01*
X63738095Y-55550057D02*
X63785714Y-55502438D01*
X63785714Y-55502438D02*
X63880952Y-55454819D01*
X63880952Y-55454819D02*
X64119047Y-55454819D01*
X64119047Y-55454819D02*
X64214285Y-55502438D01*
X64214285Y-55502438D02*
X64261904Y-55550057D01*
X64261904Y-55550057D02*
X64309523Y-55645295D01*
X64309523Y-55645295D02*
X64309523Y-55740533D01*
X64309523Y-55740533D02*
X64261904Y-55883390D01*
X64261904Y-55883390D02*
X63690476Y-56454819D01*
X63690476Y-56454819D02*
X64309523Y-56454819D01*
X64642857Y-55454819D02*
X65261904Y-55454819D01*
X65261904Y-55454819D02*
X64928571Y-55835771D01*
X64928571Y-55835771D02*
X65071428Y-55835771D01*
X65071428Y-55835771D02*
X65166666Y-55883390D01*
X65166666Y-55883390D02*
X65214285Y-55931009D01*
X65214285Y-55931009D02*
X65261904Y-56026247D01*
X65261904Y-56026247D02*
X65261904Y-56264342D01*
X65261904Y-56264342D02*
X65214285Y-56359580D01*
X65214285Y-56359580D02*
X65166666Y-56407200D01*
X65166666Y-56407200D02*
X65071428Y-56454819D01*
X65071428Y-56454819D02*
X64785714Y-56454819D01*
X64785714Y-56454819D02*
X64690476Y-56407200D01*
X64690476Y-56407200D02*
X64642857Y-56359580D01*
X62928571Y-66824819D02*
X62357143Y-66824819D01*
X62642857Y-66824819D02*
X62642857Y-65824819D01*
X62642857Y-65824819D02*
X62547619Y-65967676D01*
X62547619Y-65967676D02*
X62452381Y-66062914D01*
X62452381Y-66062914D02*
X62357143Y-66110533D01*
X63357143Y-66824819D02*
X63357143Y-65824819D01*
X63452381Y-66443866D02*
X63738095Y-66824819D01*
X63738095Y-66158152D02*
X63357143Y-66539104D01*
X64357143Y-65824819D02*
X64452381Y-65824819D01*
X64452381Y-65824819D02*
X64547619Y-65872438D01*
X64547619Y-65872438D02*
X64595238Y-65920057D01*
X64595238Y-65920057D02*
X64642857Y-66015295D01*
X64642857Y-66015295D02*
X64690476Y-66205771D01*
X64690476Y-66205771D02*
X64690476Y-66443866D01*
X64690476Y-66443866D02*
X64642857Y-66634342D01*
X64642857Y-66634342D02*
X64595238Y-66729580D01*
X64595238Y-66729580D02*
X64547619Y-66777200D01*
X64547619Y-66777200D02*
X64452381Y-66824819D01*
X64452381Y-66824819D02*
X64357143Y-66824819D01*
X64357143Y-66824819D02*
X64261905Y-66777200D01*
X64261905Y-66777200D02*
X64214286Y-66729580D01*
X64214286Y-66729580D02*
X64166667Y-66634342D01*
X64166667Y-66634342D02*
X64119048Y-66443866D01*
X64119048Y-66443866D02*
X64119048Y-66205771D01*
X64119048Y-66205771D02*
X64166667Y-66015295D01*
X64166667Y-66015295D02*
X64214286Y-65920057D01*
X64214286Y-65920057D02*
X64261905Y-65872438D01*
X64261905Y-65872438D02*
X64357143Y-65824819D01*
X65309524Y-65824819D02*
X65404762Y-65824819D01*
X65404762Y-65824819D02*
X65500000Y-65872438D01*
X65500000Y-65872438D02*
X65547619Y-65920057D01*
X65547619Y-65920057D02*
X65595238Y-66015295D01*
X65595238Y-66015295D02*
X65642857Y-66205771D01*
X65642857Y-66205771D02*
X65642857Y-66443866D01*
X65642857Y-66443866D02*
X65595238Y-66634342D01*
X65595238Y-66634342D02*
X65547619Y-66729580D01*
X65547619Y-66729580D02*
X65500000Y-66777200D01*
X65500000Y-66777200D02*
X65404762Y-66824819D01*
X65404762Y-66824819D02*
X65309524Y-66824819D01*
X65309524Y-66824819D02*
X65214286Y-66777200D01*
X65214286Y-66777200D02*
X65166667Y-66729580D01*
X65166667Y-66729580D02*
X65119048Y-66634342D01*
X65119048Y-66634342D02*
X65071429Y-66443866D01*
X65071429Y-66443866D02*
X65071429Y-66205771D01*
X65071429Y-66205771D02*
X65119048Y-66015295D01*
X65119048Y-66015295D02*
X65166667Y-65920057D01*
X65166667Y-65920057D02*
X65214286Y-65872438D01*
X65214286Y-65872438D02*
X65309524Y-65824819D01*
X63357142Y-64454819D02*
X63023809Y-63978628D01*
X62785714Y-64454819D02*
X62785714Y-63454819D01*
X62785714Y-63454819D02*
X63166666Y-63454819D01*
X63166666Y-63454819D02*
X63261904Y-63502438D01*
X63261904Y-63502438D02*
X63309523Y-63550057D01*
X63309523Y-63550057D02*
X63357142Y-63645295D01*
X63357142Y-63645295D02*
X63357142Y-63788152D01*
X63357142Y-63788152D02*
X63309523Y-63883390D01*
X63309523Y-63883390D02*
X63261904Y-63931009D01*
X63261904Y-63931009D02*
X63166666Y-63978628D01*
X63166666Y-63978628D02*
X62785714Y-63978628D01*
X63690476Y-63454819D02*
X64309523Y-63454819D01*
X64309523Y-63454819D02*
X63976190Y-63835771D01*
X63976190Y-63835771D02*
X64119047Y-63835771D01*
X64119047Y-63835771D02*
X64214285Y-63883390D01*
X64214285Y-63883390D02*
X64261904Y-63931009D01*
X64261904Y-63931009D02*
X64309523Y-64026247D01*
X64309523Y-64026247D02*
X64309523Y-64264342D01*
X64309523Y-64264342D02*
X64261904Y-64359580D01*
X64261904Y-64359580D02*
X64214285Y-64407200D01*
X64214285Y-64407200D02*
X64119047Y-64454819D01*
X64119047Y-64454819D02*
X63833333Y-64454819D01*
X63833333Y-64454819D02*
X63738095Y-64407200D01*
X63738095Y-64407200D02*
X63690476Y-64359580D01*
X64690476Y-63550057D02*
X64738095Y-63502438D01*
X64738095Y-63502438D02*
X64833333Y-63454819D01*
X64833333Y-63454819D02*
X65071428Y-63454819D01*
X65071428Y-63454819D02*
X65166666Y-63502438D01*
X65166666Y-63502438D02*
X65214285Y-63550057D01*
X65214285Y-63550057D02*
X65261904Y-63645295D01*
X65261904Y-63645295D02*
X65261904Y-63740533D01*
X65261904Y-63740533D02*
X65214285Y-63883390D01*
X65214285Y-63883390D02*
X64642857Y-64454819D01*
X64642857Y-64454819D02*
X65261904Y-64454819D01*
X62452381Y-38824819D02*
X62642857Y-38824819D01*
X62642857Y-38824819D02*
X62738095Y-38777200D01*
X62738095Y-38777200D02*
X62785714Y-38729580D01*
X62785714Y-38729580D02*
X62880952Y-38586723D01*
X62880952Y-38586723D02*
X62928571Y-38396247D01*
X62928571Y-38396247D02*
X62928571Y-38015295D01*
X62928571Y-38015295D02*
X62880952Y-37920057D01*
X62880952Y-37920057D02*
X62833333Y-37872438D01*
X62833333Y-37872438D02*
X62738095Y-37824819D01*
X62738095Y-37824819D02*
X62547619Y-37824819D01*
X62547619Y-37824819D02*
X62452381Y-37872438D01*
X62452381Y-37872438D02*
X62404762Y-37920057D01*
X62404762Y-37920057D02*
X62357143Y-38015295D01*
X62357143Y-38015295D02*
X62357143Y-38253390D01*
X62357143Y-38253390D02*
X62404762Y-38348628D01*
X62404762Y-38348628D02*
X62452381Y-38396247D01*
X62452381Y-38396247D02*
X62547619Y-38443866D01*
X62547619Y-38443866D02*
X62738095Y-38443866D01*
X62738095Y-38443866D02*
X62833333Y-38396247D01*
X62833333Y-38396247D02*
X62880952Y-38348628D01*
X62880952Y-38348628D02*
X62928571Y-38253390D01*
X63357143Y-38824819D02*
X63357143Y-37824819D01*
X63452381Y-38443866D02*
X63738095Y-38824819D01*
X63738095Y-38158152D02*
X63357143Y-38539104D01*
X64357143Y-37824819D02*
X64452381Y-37824819D01*
X64452381Y-37824819D02*
X64547619Y-37872438D01*
X64547619Y-37872438D02*
X64595238Y-37920057D01*
X64595238Y-37920057D02*
X64642857Y-38015295D01*
X64642857Y-38015295D02*
X64690476Y-38205771D01*
X64690476Y-38205771D02*
X64690476Y-38443866D01*
X64690476Y-38443866D02*
X64642857Y-38634342D01*
X64642857Y-38634342D02*
X64595238Y-38729580D01*
X64595238Y-38729580D02*
X64547619Y-38777200D01*
X64547619Y-38777200D02*
X64452381Y-38824819D01*
X64452381Y-38824819D02*
X64357143Y-38824819D01*
X64357143Y-38824819D02*
X64261905Y-38777200D01*
X64261905Y-38777200D02*
X64214286Y-38729580D01*
X64214286Y-38729580D02*
X64166667Y-38634342D01*
X64166667Y-38634342D02*
X64119048Y-38443866D01*
X64119048Y-38443866D02*
X64119048Y-38205771D01*
X64119048Y-38205771D02*
X64166667Y-38015295D01*
X64166667Y-38015295D02*
X64214286Y-37920057D01*
X64214286Y-37920057D02*
X64261905Y-37872438D01*
X64261905Y-37872438D02*
X64357143Y-37824819D01*
X65166667Y-38824819D02*
X65357143Y-38824819D01*
X65357143Y-38824819D02*
X65452381Y-38777200D01*
X65452381Y-38777200D02*
X65500000Y-38729580D01*
X65500000Y-38729580D02*
X65595238Y-38586723D01*
X65595238Y-38586723D02*
X65642857Y-38396247D01*
X65642857Y-38396247D02*
X65642857Y-38015295D01*
X65642857Y-38015295D02*
X65595238Y-37920057D01*
X65595238Y-37920057D02*
X65547619Y-37872438D01*
X65547619Y-37872438D02*
X65452381Y-37824819D01*
X65452381Y-37824819D02*
X65261905Y-37824819D01*
X65261905Y-37824819D02*
X65166667Y-37872438D01*
X65166667Y-37872438D02*
X65119048Y-37920057D01*
X65119048Y-37920057D02*
X65071429Y-38015295D01*
X65071429Y-38015295D02*
X65071429Y-38253390D01*
X65071429Y-38253390D02*
X65119048Y-38348628D01*
X65119048Y-38348628D02*
X65166667Y-38396247D01*
X65166667Y-38396247D02*
X65261905Y-38443866D01*
X65261905Y-38443866D02*
X65452381Y-38443866D01*
X65452381Y-38443866D02*
X65547619Y-38396247D01*
X65547619Y-38396247D02*
X65595238Y-38348628D01*
X65595238Y-38348628D02*
X65642857Y-38253390D01*
X63357142Y-36454819D02*
X63023809Y-35978628D01*
X62785714Y-36454819D02*
X62785714Y-35454819D01*
X62785714Y-35454819D02*
X63166666Y-35454819D01*
X63166666Y-35454819D02*
X63261904Y-35502438D01*
X63261904Y-35502438D02*
X63309523Y-35550057D01*
X63309523Y-35550057D02*
X63357142Y-35645295D01*
X63357142Y-35645295D02*
X63357142Y-35788152D01*
X63357142Y-35788152D02*
X63309523Y-35883390D01*
X63309523Y-35883390D02*
X63261904Y-35931009D01*
X63261904Y-35931009D02*
X63166666Y-35978628D01*
X63166666Y-35978628D02*
X62785714Y-35978628D01*
X64309523Y-36454819D02*
X63738095Y-36454819D01*
X64023809Y-36454819D02*
X64023809Y-35454819D01*
X64023809Y-35454819D02*
X63928571Y-35597676D01*
X63928571Y-35597676D02*
X63833333Y-35692914D01*
X63833333Y-35692914D02*
X63738095Y-35740533D01*
X64642857Y-35454819D02*
X65261904Y-35454819D01*
X65261904Y-35454819D02*
X64928571Y-35835771D01*
X64928571Y-35835771D02*
X65071428Y-35835771D01*
X65071428Y-35835771D02*
X65166666Y-35883390D01*
X65166666Y-35883390D02*
X65214285Y-35931009D01*
X65214285Y-35931009D02*
X65261904Y-36026247D01*
X65261904Y-36026247D02*
X65261904Y-36264342D01*
X65261904Y-36264342D02*
X65214285Y-36359580D01*
X65214285Y-36359580D02*
X65166666Y-36407200D01*
X65166666Y-36407200D02*
X65071428Y-36454819D01*
X65071428Y-36454819D02*
X64785714Y-36454819D01*
X64785714Y-36454819D02*
X64690476Y-36407200D01*
X64690476Y-36407200D02*
X64642857Y-36359580D01*
X30190475Y-65374819D02*
X30190475Y-64374819D01*
X30285713Y-64993866D02*
X30571427Y-65374819D01*
X30571427Y-64708152D02*
X30190475Y-65089104D01*
X31428570Y-65374819D02*
X31428570Y-64851009D01*
X31428570Y-64851009D02*
X31380951Y-64755771D01*
X31380951Y-64755771D02*
X31285713Y-64708152D01*
X31285713Y-64708152D02*
X31095237Y-64708152D01*
X31095237Y-64708152D02*
X30999999Y-64755771D01*
X31428570Y-65327200D02*
X31333332Y-65374819D01*
X31333332Y-65374819D02*
X31095237Y-65374819D01*
X31095237Y-65374819D02*
X30999999Y-65327200D01*
X30999999Y-65327200D02*
X30952380Y-65231961D01*
X30952380Y-65231961D02*
X30952380Y-65136723D01*
X30952380Y-65136723D02*
X30999999Y-65041485D01*
X30999999Y-65041485D02*
X31095237Y-64993866D01*
X31095237Y-64993866D02*
X31333332Y-64993866D01*
X31333332Y-64993866D02*
X31428570Y-64946247D01*
X31904761Y-64708152D02*
X31904761Y-65374819D01*
X31904761Y-64803390D02*
X31952380Y-64755771D01*
X31952380Y-64755771D02*
X32047618Y-64708152D01*
X32047618Y-64708152D02*
X32190475Y-64708152D01*
X32190475Y-64708152D02*
X32285713Y-64755771D01*
X32285713Y-64755771D02*
X32333332Y-64851009D01*
X32333332Y-64851009D02*
X32333332Y-65374819D01*
X33238094Y-65374819D02*
X33238094Y-64851009D01*
X33238094Y-64851009D02*
X33190475Y-64755771D01*
X33190475Y-64755771D02*
X33095237Y-64708152D01*
X33095237Y-64708152D02*
X32904761Y-64708152D01*
X32904761Y-64708152D02*
X32809523Y-64755771D01*
X33238094Y-65327200D02*
X33142856Y-65374819D01*
X33142856Y-65374819D02*
X32904761Y-65374819D01*
X32904761Y-65374819D02*
X32809523Y-65327200D01*
X32809523Y-65327200D02*
X32761904Y-65231961D01*
X32761904Y-65231961D02*
X32761904Y-65136723D01*
X32761904Y-65136723D02*
X32809523Y-65041485D01*
X32809523Y-65041485D02*
X32904761Y-64993866D01*
X32904761Y-64993866D02*
X33142856Y-64993866D01*
X33142856Y-64993866D02*
X33238094Y-64946247D01*
X33857142Y-65374819D02*
X33761904Y-65327200D01*
X33761904Y-65327200D02*
X33714285Y-65231961D01*
X33714285Y-65231961D02*
X33714285Y-64374819D01*
X34904762Y-64374819D02*
X35523809Y-64374819D01*
X35523809Y-64374819D02*
X35190476Y-64755771D01*
X35190476Y-64755771D02*
X35333333Y-64755771D01*
X35333333Y-64755771D02*
X35428571Y-64803390D01*
X35428571Y-64803390D02*
X35476190Y-64851009D01*
X35476190Y-64851009D02*
X35523809Y-64946247D01*
X35523809Y-64946247D02*
X35523809Y-65184342D01*
X35523809Y-65184342D02*
X35476190Y-65279580D01*
X35476190Y-65279580D02*
X35428571Y-65327200D01*
X35428571Y-65327200D02*
X35333333Y-65374819D01*
X35333333Y-65374819D02*
X35047619Y-65374819D01*
X35047619Y-65374819D02*
X34952381Y-65327200D01*
X34952381Y-65327200D02*
X34904762Y-65279580D01*
X36714286Y-65374819D02*
X36714286Y-64708152D01*
X36714286Y-64898628D02*
X36761905Y-64803390D01*
X36761905Y-64803390D02*
X36809524Y-64755771D01*
X36809524Y-64755771D02*
X36904762Y-64708152D01*
X36904762Y-64708152D02*
X37000000Y-64708152D01*
X37714286Y-65327200D02*
X37619048Y-65374819D01*
X37619048Y-65374819D02*
X37428572Y-65374819D01*
X37428572Y-65374819D02*
X37333334Y-65327200D01*
X37333334Y-65327200D02*
X37285715Y-65231961D01*
X37285715Y-65231961D02*
X37285715Y-64851009D01*
X37285715Y-64851009D02*
X37333334Y-64755771D01*
X37333334Y-64755771D02*
X37428572Y-64708152D01*
X37428572Y-64708152D02*
X37619048Y-64708152D01*
X37619048Y-64708152D02*
X37714286Y-64755771D01*
X37714286Y-64755771D02*
X37761905Y-64851009D01*
X37761905Y-64851009D02*
X37761905Y-64946247D01*
X37761905Y-64946247D02*
X37285715Y-65041485D01*
X38047620Y-64708152D02*
X38428572Y-64708152D01*
X38190477Y-64374819D02*
X38190477Y-65231961D01*
X38190477Y-65231961D02*
X38238096Y-65327200D01*
X38238096Y-65327200D02*
X38333334Y-65374819D01*
X38333334Y-65374819D02*
X38428572Y-65374819D01*
X39190477Y-64708152D02*
X39190477Y-65374819D01*
X38761906Y-64708152D02*
X38761906Y-65231961D01*
X38761906Y-65231961D02*
X38809525Y-65327200D01*
X38809525Y-65327200D02*
X38904763Y-65374819D01*
X38904763Y-65374819D02*
X39047620Y-65374819D01*
X39047620Y-65374819D02*
X39142858Y-65327200D01*
X39142858Y-65327200D02*
X39190477Y-65279580D01*
X39666668Y-65374819D02*
X39666668Y-64708152D01*
X39666668Y-64898628D02*
X39714287Y-64803390D01*
X39714287Y-64803390D02*
X39761906Y-64755771D01*
X39761906Y-64755771D02*
X39857144Y-64708152D01*
X39857144Y-64708152D02*
X39952382Y-64708152D01*
X34666666Y-69454819D02*
X34666666Y-70169104D01*
X34666666Y-70169104D02*
X34619047Y-70311961D01*
X34619047Y-70311961D02*
X34523809Y-70407200D01*
X34523809Y-70407200D02*
X34380952Y-70454819D01*
X34380952Y-70454819D02*
X34285714Y-70454819D01*
X35047619Y-69454819D02*
X35666666Y-69454819D01*
X35666666Y-69454819D02*
X35333333Y-69835771D01*
X35333333Y-69835771D02*
X35476190Y-69835771D01*
X35476190Y-69835771D02*
X35571428Y-69883390D01*
X35571428Y-69883390D02*
X35619047Y-69931009D01*
X35619047Y-69931009D02*
X35666666Y-70026247D01*
X35666666Y-70026247D02*
X35666666Y-70264342D01*
X35666666Y-70264342D02*
X35619047Y-70359580D01*
X35619047Y-70359580D02*
X35571428Y-70407200D01*
X35571428Y-70407200D02*
X35476190Y-70454819D01*
X35476190Y-70454819D02*
X35190476Y-70454819D01*
X35190476Y-70454819D02*
X35095238Y-70407200D01*
X35095238Y-70407200D02*
X35047619Y-70359580D01*
X62928571Y-46824819D02*
X62357143Y-46824819D01*
X62642857Y-46824819D02*
X62642857Y-45824819D01*
X62642857Y-45824819D02*
X62547619Y-45967676D01*
X62547619Y-45967676D02*
X62452381Y-46062914D01*
X62452381Y-46062914D02*
X62357143Y-46110533D01*
X63357143Y-46824819D02*
X63357143Y-45824819D01*
X63452381Y-46443866D02*
X63738095Y-46824819D01*
X63738095Y-46158152D02*
X63357143Y-46539104D01*
X64357143Y-45824819D02*
X64452381Y-45824819D01*
X64452381Y-45824819D02*
X64547619Y-45872438D01*
X64547619Y-45872438D02*
X64595238Y-45920057D01*
X64595238Y-45920057D02*
X64642857Y-46015295D01*
X64642857Y-46015295D02*
X64690476Y-46205771D01*
X64690476Y-46205771D02*
X64690476Y-46443866D01*
X64690476Y-46443866D02*
X64642857Y-46634342D01*
X64642857Y-46634342D02*
X64595238Y-46729580D01*
X64595238Y-46729580D02*
X64547619Y-46777200D01*
X64547619Y-46777200D02*
X64452381Y-46824819D01*
X64452381Y-46824819D02*
X64357143Y-46824819D01*
X64357143Y-46824819D02*
X64261905Y-46777200D01*
X64261905Y-46777200D02*
X64214286Y-46729580D01*
X64214286Y-46729580D02*
X64166667Y-46634342D01*
X64166667Y-46634342D02*
X64119048Y-46443866D01*
X64119048Y-46443866D02*
X64119048Y-46205771D01*
X64119048Y-46205771D02*
X64166667Y-46015295D01*
X64166667Y-46015295D02*
X64214286Y-45920057D01*
X64214286Y-45920057D02*
X64261905Y-45872438D01*
X64261905Y-45872438D02*
X64357143Y-45824819D01*
X65309524Y-45824819D02*
X65404762Y-45824819D01*
X65404762Y-45824819D02*
X65500000Y-45872438D01*
X65500000Y-45872438D02*
X65547619Y-45920057D01*
X65547619Y-45920057D02*
X65595238Y-46015295D01*
X65595238Y-46015295D02*
X65642857Y-46205771D01*
X65642857Y-46205771D02*
X65642857Y-46443866D01*
X65642857Y-46443866D02*
X65595238Y-46634342D01*
X65595238Y-46634342D02*
X65547619Y-46729580D01*
X65547619Y-46729580D02*
X65500000Y-46777200D01*
X65500000Y-46777200D02*
X65404762Y-46824819D01*
X65404762Y-46824819D02*
X65309524Y-46824819D01*
X65309524Y-46824819D02*
X65214286Y-46777200D01*
X65214286Y-46777200D02*
X65166667Y-46729580D01*
X65166667Y-46729580D02*
X65119048Y-46634342D01*
X65119048Y-46634342D02*
X65071429Y-46443866D01*
X65071429Y-46443866D02*
X65071429Y-46205771D01*
X65071429Y-46205771D02*
X65119048Y-46015295D01*
X65119048Y-46015295D02*
X65166667Y-45920057D01*
X65166667Y-45920057D02*
X65214286Y-45872438D01*
X65214286Y-45872438D02*
X65309524Y-45824819D01*
X63357142Y-44454819D02*
X63023809Y-43978628D01*
X62785714Y-44454819D02*
X62785714Y-43454819D01*
X62785714Y-43454819D02*
X63166666Y-43454819D01*
X63166666Y-43454819D02*
X63261904Y-43502438D01*
X63261904Y-43502438D02*
X63309523Y-43550057D01*
X63309523Y-43550057D02*
X63357142Y-43645295D01*
X63357142Y-43645295D02*
X63357142Y-43788152D01*
X63357142Y-43788152D02*
X63309523Y-43883390D01*
X63309523Y-43883390D02*
X63261904Y-43931009D01*
X63261904Y-43931009D02*
X63166666Y-43978628D01*
X63166666Y-43978628D02*
X62785714Y-43978628D01*
X63738095Y-43550057D02*
X63785714Y-43502438D01*
X63785714Y-43502438D02*
X63880952Y-43454819D01*
X63880952Y-43454819D02*
X64119047Y-43454819D01*
X64119047Y-43454819D02*
X64214285Y-43502438D01*
X64214285Y-43502438D02*
X64261904Y-43550057D01*
X64261904Y-43550057D02*
X64309523Y-43645295D01*
X64309523Y-43645295D02*
X64309523Y-43740533D01*
X64309523Y-43740533D02*
X64261904Y-43883390D01*
X64261904Y-43883390D02*
X63690476Y-44454819D01*
X63690476Y-44454819D02*
X64309523Y-44454819D01*
X64690476Y-43550057D02*
X64738095Y-43502438D01*
X64738095Y-43502438D02*
X64833333Y-43454819D01*
X64833333Y-43454819D02*
X65071428Y-43454819D01*
X65071428Y-43454819D02*
X65166666Y-43502438D01*
X65166666Y-43502438D02*
X65214285Y-43550057D01*
X65214285Y-43550057D02*
X65261904Y-43645295D01*
X65261904Y-43645295D02*
X65261904Y-43740533D01*
X65261904Y-43740533D02*
X65214285Y-43883390D01*
X65214285Y-43883390D02*
X64642857Y-44454819D01*
X64642857Y-44454819D02*
X65261904Y-44454819D01*
X76309523Y-68594819D02*
X75833333Y-68594819D01*
X75833333Y-68594819D02*
X75833333Y-67594819D01*
X76642857Y-68594819D02*
X76642857Y-67594819D01*
X76642857Y-67594819D02*
X76976190Y-68309104D01*
X76976190Y-68309104D02*
X77309523Y-67594819D01*
X77309523Y-67594819D02*
X77309523Y-68594819D01*
X77690476Y-67594819D02*
X78309523Y-67594819D01*
X78309523Y-67594819D02*
X77976190Y-67975771D01*
X77976190Y-67975771D02*
X78119047Y-67975771D01*
X78119047Y-67975771D02*
X78214285Y-68023390D01*
X78214285Y-68023390D02*
X78261904Y-68071009D01*
X78261904Y-68071009D02*
X78309523Y-68166247D01*
X78309523Y-68166247D02*
X78309523Y-68404342D01*
X78309523Y-68404342D02*
X78261904Y-68499580D01*
X78261904Y-68499580D02*
X78214285Y-68547200D01*
X78214285Y-68547200D02*
X78119047Y-68594819D01*
X78119047Y-68594819D02*
X77833333Y-68594819D01*
X77833333Y-68594819D02*
X77738095Y-68547200D01*
X77738095Y-68547200D02*
X77690476Y-68499580D01*
X79214285Y-67594819D02*
X78738095Y-67594819D01*
X78738095Y-67594819D02*
X78690476Y-68071009D01*
X78690476Y-68071009D02*
X78738095Y-68023390D01*
X78738095Y-68023390D02*
X78833333Y-67975771D01*
X78833333Y-67975771D02*
X79071428Y-67975771D01*
X79071428Y-67975771D02*
X79166666Y-68023390D01*
X79166666Y-68023390D02*
X79214285Y-68071009D01*
X79214285Y-68071009D02*
X79261904Y-68166247D01*
X79261904Y-68166247D02*
X79261904Y-68404342D01*
X79261904Y-68404342D02*
X79214285Y-68499580D01*
X79214285Y-68499580D02*
X79166666Y-68547200D01*
X79166666Y-68547200D02*
X79071428Y-68594819D01*
X79071428Y-68594819D02*
X78833333Y-68594819D01*
X78833333Y-68594819D02*
X78738095Y-68547200D01*
X78738095Y-68547200D02*
X78690476Y-68499580D01*
X79833333Y-68023390D02*
X79738095Y-67975771D01*
X79738095Y-67975771D02*
X79690476Y-67928152D01*
X79690476Y-67928152D02*
X79642857Y-67832914D01*
X79642857Y-67832914D02*
X79642857Y-67785295D01*
X79642857Y-67785295D02*
X79690476Y-67690057D01*
X79690476Y-67690057D02*
X79738095Y-67642438D01*
X79738095Y-67642438D02*
X79833333Y-67594819D01*
X79833333Y-67594819D02*
X80023809Y-67594819D01*
X80023809Y-67594819D02*
X80119047Y-67642438D01*
X80119047Y-67642438D02*
X80166666Y-67690057D01*
X80166666Y-67690057D02*
X80214285Y-67785295D01*
X80214285Y-67785295D02*
X80214285Y-67832914D01*
X80214285Y-67832914D02*
X80166666Y-67928152D01*
X80166666Y-67928152D02*
X80119047Y-67975771D01*
X80119047Y-67975771D02*
X80023809Y-68023390D01*
X80023809Y-68023390D02*
X79833333Y-68023390D01*
X79833333Y-68023390D02*
X79738095Y-68071009D01*
X79738095Y-68071009D02*
X79690476Y-68118628D01*
X79690476Y-68118628D02*
X79642857Y-68213866D01*
X79642857Y-68213866D02*
X79642857Y-68404342D01*
X79642857Y-68404342D02*
X79690476Y-68499580D01*
X79690476Y-68499580D02*
X79738095Y-68547200D01*
X79738095Y-68547200D02*
X79833333Y-68594819D01*
X79833333Y-68594819D02*
X80023809Y-68594819D01*
X80023809Y-68594819D02*
X80119047Y-68547200D01*
X80119047Y-68547200D02*
X80166666Y-68499580D01*
X80166666Y-68499580D02*
X80214285Y-68404342D01*
X80214285Y-68404342D02*
X80214285Y-68213866D01*
X80214285Y-68213866D02*
X80166666Y-68118628D01*
X80166666Y-68118628D02*
X80119047Y-68071009D01*
X80119047Y-68071009D02*
X80023809Y-68023390D01*
X77454819Y-62761904D02*
X78264342Y-62761904D01*
X78264342Y-62761904D02*
X78359580Y-62714285D01*
X78359580Y-62714285D02*
X78407200Y-62666666D01*
X78407200Y-62666666D02*
X78454819Y-62571428D01*
X78454819Y-62571428D02*
X78454819Y-62380952D01*
X78454819Y-62380952D02*
X78407200Y-62285714D01*
X78407200Y-62285714D02*
X78359580Y-62238095D01*
X78359580Y-62238095D02*
X78264342Y-62190476D01*
X78264342Y-62190476D02*
X77454819Y-62190476D01*
X77550057Y-61761904D02*
X77502438Y-61714285D01*
X77502438Y-61714285D02*
X77454819Y-61619047D01*
X77454819Y-61619047D02*
X77454819Y-61380952D01*
X77454819Y-61380952D02*
X77502438Y-61285714D01*
X77502438Y-61285714D02*
X77550057Y-61238095D01*
X77550057Y-61238095D02*
X77645295Y-61190476D01*
X77645295Y-61190476D02*
X77740533Y-61190476D01*
X77740533Y-61190476D02*
X77883390Y-61238095D01*
X77883390Y-61238095D02*
X78454819Y-61809523D01*
X78454819Y-61809523D02*
X78454819Y-61190476D01*
X62928571Y-26824819D02*
X62357143Y-26824819D01*
X62642857Y-26824819D02*
X62642857Y-25824819D01*
X62642857Y-25824819D02*
X62547619Y-25967676D01*
X62547619Y-25967676D02*
X62452381Y-26062914D01*
X62452381Y-26062914D02*
X62357143Y-26110533D01*
X63357143Y-26824819D02*
X63357143Y-25824819D01*
X63452381Y-26443866D02*
X63738095Y-26824819D01*
X63738095Y-26158152D02*
X63357143Y-26539104D01*
X64357143Y-25824819D02*
X64452381Y-25824819D01*
X64452381Y-25824819D02*
X64547619Y-25872438D01*
X64547619Y-25872438D02*
X64595238Y-25920057D01*
X64595238Y-25920057D02*
X64642857Y-26015295D01*
X64642857Y-26015295D02*
X64690476Y-26205771D01*
X64690476Y-26205771D02*
X64690476Y-26443866D01*
X64690476Y-26443866D02*
X64642857Y-26634342D01*
X64642857Y-26634342D02*
X64595238Y-26729580D01*
X64595238Y-26729580D02*
X64547619Y-26777200D01*
X64547619Y-26777200D02*
X64452381Y-26824819D01*
X64452381Y-26824819D02*
X64357143Y-26824819D01*
X64357143Y-26824819D02*
X64261905Y-26777200D01*
X64261905Y-26777200D02*
X64214286Y-26729580D01*
X64214286Y-26729580D02*
X64166667Y-26634342D01*
X64166667Y-26634342D02*
X64119048Y-26443866D01*
X64119048Y-26443866D02*
X64119048Y-26205771D01*
X64119048Y-26205771D02*
X64166667Y-26015295D01*
X64166667Y-26015295D02*
X64214286Y-25920057D01*
X64214286Y-25920057D02*
X64261905Y-25872438D01*
X64261905Y-25872438D02*
X64357143Y-25824819D01*
X65309524Y-25824819D02*
X65404762Y-25824819D01*
X65404762Y-25824819D02*
X65500000Y-25872438D01*
X65500000Y-25872438D02*
X65547619Y-25920057D01*
X65547619Y-25920057D02*
X65595238Y-26015295D01*
X65595238Y-26015295D02*
X65642857Y-26205771D01*
X65642857Y-26205771D02*
X65642857Y-26443866D01*
X65642857Y-26443866D02*
X65595238Y-26634342D01*
X65595238Y-26634342D02*
X65547619Y-26729580D01*
X65547619Y-26729580D02*
X65500000Y-26777200D01*
X65500000Y-26777200D02*
X65404762Y-26824819D01*
X65404762Y-26824819D02*
X65309524Y-26824819D01*
X65309524Y-26824819D02*
X65214286Y-26777200D01*
X65214286Y-26777200D02*
X65166667Y-26729580D01*
X65166667Y-26729580D02*
X65119048Y-26634342D01*
X65119048Y-26634342D02*
X65071429Y-26443866D01*
X65071429Y-26443866D02*
X65071429Y-26205771D01*
X65071429Y-26205771D02*
X65119048Y-26015295D01*
X65119048Y-26015295D02*
X65166667Y-25920057D01*
X65166667Y-25920057D02*
X65214286Y-25872438D01*
X65214286Y-25872438D02*
X65309524Y-25824819D01*
X63357142Y-24454819D02*
X63023809Y-23978628D01*
X62785714Y-24454819D02*
X62785714Y-23454819D01*
X62785714Y-23454819D02*
X63166666Y-23454819D01*
X63166666Y-23454819D02*
X63261904Y-23502438D01*
X63261904Y-23502438D02*
X63309523Y-23550057D01*
X63309523Y-23550057D02*
X63357142Y-23645295D01*
X63357142Y-23645295D02*
X63357142Y-23788152D01*
X63357142Y-23788152D02*
X63309523Y-23883390D01*
X63309523Y-23883390D02*
X63261904Y-23931009D01*
X63261904Y-23931009D02*
X63166666Y-23978628D01*
X63166666Y-23978628D02*
X62785714Y-23978628D01*
X64309523Y-24454819D02*
X63738095Y-24454819D01*
X64023809Y-24454819D02*
X64023809Y-23454819D01*
X64023809Y-23454819D02*
X63928571Y-23597676D01*
X63928571Y-23597676D02*
X63833333Y-23692914D01*
X63833333Y-23692914D02*
X63738095Y-23740533D01*
X64690476Y-23550057D02*
X64738095Y-23502438D01*
X64738095Y-23502438D02*
X64833333Y-23454819D01*
X64833333Y-23454819D02*
X65071428Y-23454819D01*
X65071428Y-23454819D02*
X65166666Y-23502438D01*
X65166666Y-23502438D02*
X65214285Y-23550057D01*
X65214285Y-23550057D02*
X65261904Y-23645295D01*
X65261904Y-23645295D02*
X65261904Y-23740533D01*
X65261904Y-23740533D02*
X65214285Y-23883390D01*
X65214285Y-23883390D02*
X64642857Y-24454819D01*
X64642857Y-24454819D02*
X65261904Y-24454819D01*
X48833333Y-72824819D02*
X48261905Y-72824819D01*
X48547619Y-72824819D02*
X48547619Y-71824819D01*
X48547619Y-71824819D02*
X48452381Y-71967676D01*
X48452381Y-71967676D02*
X48357143Y-72062914D01*
X48357143Y-72062914D02*
X48261905Y-72110533D01*
X49833333Y-72824819D02*
X49500000Y-72348628D01*
X49261905Y-72824819D02*
X49261905Y-71824819D01*
X49261905Y-71824819D02*
X49642857Y-71824819D01*
X49642857Y-71824819D02*
X49738095Y-71872438D01*
X49738095Y-71872438D02*
X49785714Y-71920057D01*
X49785714Y-71920057D02*
X49833333Y-72015295D01*
X49833333Y-72015295D02*
X49833333Y-72158152D01*
X49833333Y-72158152D02*
X49785714Y-72253390D01*
X49785714Y-72253390D02*
X49738095Y-72301009D01*
X49738095Y-72301009D02*
X49642857Y-72348628D01*
X49642857Y-72348628D02*
X49261905Y-72348628D01*
X50452381Y-71824819D02*
X50547619Y-71824819D01*
X50547619Y-71824819D02*
X50642857Y-71872438D01*
X50642857Y-71872438D02*
X50690476Y-71920057D01*
X50690476Y-71920057D02*
X50738095Y-72015295D01*
X50738095Y-72015295D02*
X50785714Y-72205771D01*
X50785714Y-72205771D02*
X50785714Y-72443866D01*
X50785714Y-72443866D02*
X50738095Y-72634342D01*
X50738095Y-72634342D02*
X50690476Y-72729580D01*
X50690476Y-72729580D02*
X50642857Y-72777200D01*
X50642857Y-72777200D02*
X50547619Y-72824819D01*
X50547619Y-72824819D02*
X50452381Y-72824819D01*
X50452381Y-72824819D02*
X50357143Y-72777200D01*
X50357143Y-72777200D02*
X50309524Y-72729580D01*
X50309524Y-72729580D02*
X50261905Y-72634342D01*
X50261905Y-72634342D02*
X50214286Y-72443866D01*
X50214286Y-72443866D02*
X50214286Y-72205771D01*
X50214286Y-72205771D02*
X50261905Y-72015295D01*
X50261905Y-72015295D02*
X50309524Y-71920057D01*
X50309524Y-71920057D02*
X50357143Y-71872438D01*
X50357143Y-71872438D02*
X50452381Y-71824819D01*
X51404762Y-71824819D02*
X51500000Y-71824819D01*
X51500000Y-71824819D02*
X51595238Y-71872438D01*
X51595238Y-71872438D02*
X51642857Y-71920057D01*
X51642857Y-71920057D02*
X51690476Y-72015295D01*
X51690476Y-72015295D02*
X51738095Y-72205771D01*
X51738095Y-72205771D02*
X51738095Y-72443866D01*
X51738095Y-72443866D02*
X51690476Y-72634342D01*
X51690476Y-72634342D02*
X51642857Y-72729580D01*
X51642857Y-72729580D02*
X51595238Y-72777200D01*
X51595238Y-72777200D02*
X51500000Y-72824819D01*
X51500000Y-72824819D02*
X51404762Y-72824819D01*
X51404762Y-72824819D02*
X51309524Y-72777200D01*
X51309524Y-72777200D02*
X51261905Y-72729580D01*
X51261905Y-72729580D02*
X51214286Y-72634342D01*
X51214286Y-72634342D02*
X51166667Y-72443866D01*
X51166667Y-72443866D02*
X51166667Y-72205771D01*
X51166667Y-72205771D02*
X51214286Y-72015295D01*
X51214286Y-72015295D02*
X51261905Y-71920057D01*
X51261905Y-71920057D02*
X51309524Y-71872438D01*
X51309524Y-71872438D02*
X51404762Y-71824819D01*
X49357142Y-70454819D02*
X49023809Y-69978628D01*
X48785714Y-70454819D02*
X48785714Y-69454819D01*
X48785714Y-69454819D02*
X49166666Y-69454819D01*
X49166666Y-69454819D02*
X49261904Y-69502438D01*
X49261904Y-69502438D02*
X49309523Y-69550057D01*
X49309523Y-69550057D02*
X49357142Y-69645295D01*
X49357142Y-69645295D02*
X49357142Y-69788152D01*
X49357142Y-69788152D02*
X49309523Y-69883390D01*
X49309523Y-69883390D02*
X49261904Y-69931009D01*
X49261904Y-69931009D02*
X49166666Y-69978628D01*
X49166666Y-69978628D02*
X48785714Y-69978628D01*
X49690476Y-69454819D02*
X50309523Y-69454819D01*
X50309523Y-69454819D02*
X49976190Y-69835771D01*
X49976190Y-69835771D02*
X50119047Y-69835771D01*
X50119047Y-69835771D02*
X50214285Y-69883390D01*
X50214285Y-69883390D02*
X50261904Y-69931009D01*
X50261904Y-69931009D02*
X50309523Y-70026247D01*
X50309523Y-70026247D02*
X50309523Y-70264342D01*
X50309523Y-70264342D02*
X50261904Y-70359580D01*
X50261904Y-70359580D02*
X50214285Y-70407200D01*
X50214285Y-70407200D02*
X50119047Y-70454819D01*
X50119047Y-70454819D02*
X49833333Y-70454819D01*
X49833333Y-70454819D02*
X49738095Y-70407200D01*
X49738095Y-70407200D02*
X49690476Y-70359580D01*
X51261904Y-70454819D02*
X50690476Y-70454819D01*
X50976190Y-70454819D02*
X50976190Y-69454819D01*
X50976190Y-69454819D02*
X50880952Y-69597676D01*
X50880952Y-69597676D02*
X50785714Y-69692914D01*
X50785714Y-69692914D02*
X50690476Y-69740533D01*
X48833333Y-52824819D02*
X48261905Y-52824819D01*
X48547619Y-52824819D02*
X48547619Y-51824819D01*
X48547619Y-51824819D02*
X48452381Y-51967676D01*
X48452381Y-51967676D02*
X48357143Y-52062914D01*
X48357143Y-52062914D02*
X48261905Y-52110533D01*
X49833333Y-52824819D02*
X49500000Y-52348628D01*
X49261905Y-52824819D02*
X49261905Y-51824819D01*
X49261905Y-51824819D02*
X49642857Y-51824819D01*
X49642857Y-51824819D02*
X49738095Y-51872438D01*
X49738095Y-51872438D02*
X49785714Y-51920057D01*
X49785714Y-51920057D02*
X49833333Y-52015295D01*
X49833333Y-52015295D02*
X49833333Y-52158152D01*
X49833333Y-52158152D02*
X49785714Y-52253390D01*
X49785714Y-52253390D02*
X49738095Y-52301009D01*
X49738095Y-52301009D02*
X49642857Y-52348628D01*
X49642857Y-52348628D02*
X49261905Y-52348628D01*
X50452381Y-51824819D02*
X50547619Y-51824819D01*
X50547619Y-51824819D02*
X50642857Y-51872438D01*
X50642857Y-51872438D02*
X50690476Y-51920057D01*
X50690476Y-51920057D02*
X50738095Y-52015295D01*
X50738095Y-52015295D02*
X50785714Y-52205771D01*
X50785714Y-52205771D02*
X50785714Y-52443866D01*
X50785714Y-52443866D02*
X50738095Y-52634342D01*
X50738095Y-52634342D02*
X50690476Y-52729580D01*
X50690476Y-52729580D02*
X50642857Y-52777200D01*
X50642857Y-52777200D02*
X50547619Y-52824819D01*
X50547619Y-52824819D02*
X50452381Y-52824819D01*
X50452381Y-52824819D02*
X50357143Y-52777200D01*
X50357143Y-52777200D02*
X50309524Y-52729580D01*
X50309524Y-52729580D02*
X50261905Y-52634342D01*
X50261905Y-52634342D02*
X50214286Y-52443866D01*
X50214286Y-52443866D02*
X50214286Y-52205771D01*
X50214286Y-52205771D02*
X50261905Y-52015295D01*
X50261905Y-52015295D02*
X50309524Y-51920057D01*
X50309524Y-51920057D02*
X50357143Y-51872438D01*
X50357143Y-51872438D02*
X50452381Y-51824819D01*
X51404762Y-51824819D02*
X51500000Y-51824819D01*
X51500000Y-51824819D02*
X51595238Y-51872438D01*
X51595238Y-51872438D02*
X51642857Y-51920057D01*
X51642857Y-51920057D02*
X51690476Y-52015295D01*
X51690476Y-52015295D02*
X51738095Y-52205771D01*
X51738095Y-52205771D02*
X51738095Y-52443866D01*
X51738095Y-52443866D02*
X51690476Y-52634342D01*
X51690476Y-52634342D02*
X51642857Y-52729580D01*
X51642857Y-52729580D02*
X51595238Y-52777200D01*
X51595238Y-52777200D02*
X51500000Y-52824819D01*
X51500000Y-52824819D02*
X51404762Y-52824819D01*
X51404762Y-52824819D02*
X51309524Y-52777200D01*
X51309524Y-52777200D02*
X51261905Y-52729580D01*
X51261905Y-52729580D02*
X51214286Y-52634342D01*
X51214286Y-52634342D02*
X51166667Y-52443866D01*
X51166667Y-52443866D02*
X51166667Y-52205771D01*
X51166667Y-52205771D02*
X51214286Y-52015295D01*
X51214286Y-52015295D02*
X51261905Y-51920057D01*
X51261905Y-51920057D02*
X51309524Y-51872438D01*
X51309524Y-51872438D02*
X51404762Y-51824819D01*
X49357142Y-50454819D02*
X49023809Y-49978628D01*
X48785714Y-50454819D02*
X48785714Y-49454819D01*
X48785714Y-49454819D02*
X49166666Y-49454819D01*
X49166666Y-49454819D02*
X49261904Y-49502438D01*
X49261904Y-49502438D02*
X49309523Y-49550057D01*
X49309523Y-49550057D02*
X49357142Y-49645295D01*
X49357142Y-49645295D02*
X49357142Y-49788152D01*
X49357142Y-49788152D02*
X49309523Y-49883390D01*
X49309523Y-49883390D02*
X49261904Y-49931009D01*
X49261904Y-49931009D02*
X49166666Y-49978628D01*
X49166666Y-49978628D02*
X48785714Y-49978628D01*
X49738095Y-49550057D02*
X49785714Y-49502438D01*
X49785714Y-49502438D02*
X49880952Y-49454819D01*
X49880952Y-49454819D02*
X50119047Y-49454819D01*
X50119047Y-49454819D02*
X50214285Y-49502438D01*
X50214285Y-49502438D02*
X50261904Y-49550057D01*
X50261904Y-49550057D02*
X50309523Y-49645295D01*
X50309523Y-49645295D02*
X50309523Y-49740533D01*
X50309523Y-49740533D02*
X50261904Y-49883390D01*
X50261904Y-49883390D02*
X49690476Y-50454819D01*
X49690476Y-50454819D02*
X50309523Y-50454819D01*
X51261904Y-50454819D02*
X50690476Y-50454819D01*
X50976190Y-50454819D02*
X50976190Y-49454819D01*
X50976190Y-49454819D02*
X50880952Y-49597676D01*
X50880952Y-49597676D02*
X50785714Y-49692914D01*
X50785714Y-49692914D02*
X50690476Y-49740533D01*
X106404762Y-57629104D02*
X106880952Y-57629104D01*
X106309524Y-57914819D02*
X106642857Y-56914819D01*
X106642857Y-56914819D02*
X106976190Y-57914819D01*
X107309524Y-57914819D02*
X107309524Y-57248152D01*
X107309524Y-57438628D02*
X107357143Y-57343390D01*
X107357143Y-57343390D02*
X107404762Y-57295771D01*
X107404762Y-57295771D02*
X107500000Y-57248152D01*
X107500000Y-57248152D02*
X107595238Y-57248152D01*
X108357143Y-57914819D02*
X108357143Y-56914819D01*
X108357143Y-57867200D02*
X108261905Y-57914819D01*
X108261905Y-57914819D02*
X108071429Y-57914819D01*
X108071429Y-57914819D02*
X107976191Y-57867200D01*
X107976191Y-57867200D02*
X107928572Y-57819580D01*
X107928572Y-57819580D02*
X107880953Y-57724342D01*
X107880953Y-57724342D02*
X107880953Y-57438628D01*
X107880953Y-57438628D02*
X107928572Y-57343390D01*
X107928572Y-57343390D02*
X107976191Y-57295771D01*
X107976191Y-57295771D02*
X108071429Y-57248152D01*
X108071429Y-57248152D02*
X108261905Y-57248152D01*
X108261905Y-57248152D02*
X108357143Y-57295771D01*
X109261905Y-57248152D02*
X109261905Y-57914819D01*
X108833334Y-57248152D02*
X108833334Y-57771961D01*
X108833334Y-57771961D02*
X108880953Y-57867200D01*
X108880953Y-57867200D02*
X108976191Y-57914819D01*
X108976191Y-57914819D02*
X109119048Y-57914819D01*
X109119048Y-57914819D02*
X109214286Y-57867200D01*
X109214286Y-57867200D02*
X109261905Y-57819580D01*
X109738096Y-57914819D02*
X109738096Y-57248152D01*
X109738096Y-56914819D02*
X109690477Y-56962438D01*
X109690477Y-56962438D02*
X109738096Y-57010057D01*
X109738096Y-57010057D02*
X109785715Y-56962438D01*
X109785715Y-56962438D02*
X109738096Y-56914819D01*
X109738096Y-56914819D02*
X109738096Y-57010057D01*
X110214286Y-57248152D02*
X110214286Y-57914819D01*
X110214286Y-57343390D02*
X110261905Y-57295771D01*
X110261905Y-57295771D02*
X110357143Y-57248152D01*
X110357143Y-57248152D02*
X110500000Y-57248152D01*
X110500000Y-57248152D02*
X110595238Y-57295771D01*
X110595238Y-57295771D02*
X110642857Y-57391009D01*
X110642857Y-57391009D02*
X110642857Y-57914819D01*
X111261905Y-57914819D02*
X111166667Y-57867200D01*
X111166667Y-57867200D02*
X111119048Y-57819580D01*
X111119048Y-57819580D02*
X111071429Y-57724342D01*
X111071429Y-57724342D02*
X111071429Y-57438628D01*
X111071429Y-57438628D02*
X111119048Y-57343390D01*
X111119048Y-57343390D02*
X111166667Y-57295771D01*
X111166667Y-57295771D02*
X111261905Y-57248152D01*
X111261905Y-57248152D02*
X111404762Y-57248152D01*
X111404762Y-57248152D02*
X111500000Y-57295771D01*
X111500000Y-57295771D02*
X111547619Y-57343390D01*
X111547619Y-57343390D02*
X111595238Y-57438628D01*
X111595238Y-57438628D02*
X111595238Y-57724342D01*
X111595238Y-57724342D02*
X111547619Y-57819580D01*
X111547619Y-57819580D02*
X111500000Y-57867200D01*
X111500000Y-57867200D02*
X111404762Y-57914819D01*
X111404762Y-57914819D02*
X111261905Y-57914819D01*
X108454819Y-50333333D02*
X109169104Y-50333333D01*
X109169104Y-50333333D02*
X109311961Y-50380952D01*
X109311961Y-50380952D02*
X109407200Y-50476190D01*
X109407200Y-50476190D02*
X109454819Y-50619047D01*
X109454819Y-50619047D02*
X109454819Y-50714285D01*
X108788152Y-49428571D02*
X109454819Y-49428571D01*
X108407200Y-49666666D02*
X109121485Y-49904761D01*
X109121485Y-49904761D02*
X109121485Y-49285714D01*
X30190475Y-45374819D02*
X30190475Y-44374819D01*
X30285713Y-44993866D02*
X30571427Y-45374819D01*
X30571427Y-44708152D02*
X30190475Y-45089104D01*
X31428570Y-45374819D02*
X31428570Y-44851009D01*
X31428570Y-44851009D02*
X31380951Y-44755771D01*
X31380951Y-44755771D02*
X31285713Y-44708152D01*
X31285713Y-44708152D02*
X31095237Y-44708152D01*
X31095237Y-44708152D02*
X30999999Y-44755771D01*
X31428570Y-45327200D02*
X31333332Y-45374819D01*
X31333332Y-45374819D02*
X31095237Y-45374819D01*
X31095237Y-45374819D02*
X30999999Y-45327200D01*
X30999999Y-45327200D02*
X30952380Y-45231961D01*
X30952380Y-45231961D02*
X30952380Y-45136723D01*
X30952380Y-45136723D02*
X30999999Y-45041485D01*
X30999999Y-45041485D02*
X31095237Y-44993866D01*
X31095237Y-44993866D02*
X31333332Y-44993866D01*
X31333332Y-44993866D02*
X31428570Y-44946247D01*
X31904761Y-44708152D02*
X31904761Y-45374819D01*
X31904761Y-44803390D02*
X31952380Y-44755771D01*
X31952380Y-44755771D02*
X32047618Y-44708152D01*
X32047618Y-44708152D02*
X32190475Y-44708152D01*
X32190475Y-44708152D02*
X32285713Y-44755771D01*
X32285713Y-44755771D02*
X32333332Y-44851009D01*
X32333332Y-44851009D02*
X32333332Y-45374819D01*
X33238094Y-45374819D02*
X33238094Y-44851009D01*
X33238094Y-44851009D02*
X33190475Y-44755771D01*
X33190475Y-44755771D02*
X33095237Y-44708152D01*
X33095237Y-44708152D02*
X32904761Y-44708152D01*
X32904761Y-44708152D02*
X32809523Y-44755771D01*
X33238094Y-45327200D02*
X33142856Y-45374819D01*
X33142856Y-45374819D02*
X32904761Y-45374819D01*
X32904761Y-45374819D02*
X32809523Y-45327200D01*
X32809523Y-45327200D02*
X32761904Y-45231961D01*
X32761904Y-45231961D02*
X32761904Y-45136723D01*
X32761904Y-45136723D02*
X32809523Y-45041485D01*
X32809523Y-45041485D02*
X32904761Y-44993866D01*
X32904761Y-44993866D02*
X33142856Y-44993866D01*
X33142856Y-44993866D02*
X33238094Y-44946247D01*
X33857142Y-45374819D02*
X33761904Y-45327200D01*
X33761904Y-45327200D02*
X33714285Y-45231961D01*
X33714285Y-45231961D02*
X33714285Y-44374819D01*
X34952381Y-44470057D02*
X35000000Y-44422438D01*
X35000000Y-44422438D02*
X35095238Y-44374819D01*
X35095238Y-44374819D02*
X35333333Y-44374819D01*
X35333333Y-44374819D02*
X35428571Y-44422438D01*
X35428571Y-44422438D02*
X35476190Y-44470057D01*
X35476190Y-44470057D02*
X35523809Y-44565295D01*
X35523809Y-44565295D02*
X35523809Y-44660533D01*
X35523809Y-44660533D02*
X35476190Y-44803390D01*
X35476190Y-44803390D02*
X34904762Y-45374819D01*
X34904762Y-45374819D02*
X35523809Y-45374819D01*
X36714286Y-45374819D02*
X36714286Y-44708152D01*
X36714286Y-44898628D02*
X36761905Y-44803390D01*
X36761905Y-44803390D02*
X36809524Y-44755771D01*
X36809524Y-44755771D02*
X36904762Y-44708152D01*
X36904762Y-44708152D02*
X37000000Y-44708152D01*
X37714286Y-45327200D02*
X37619048Y-45374819D01*
X37619048Y-45374819D02*
X37428572Y-45374819D01*
X37428572Y-45374819D02*
X37333334Y-45327200D01*
X37333334Y-45327200D02*
X37285715Y-45231961D01*
X37285715Y-45231961D02*
X37285715Y-44851009D01*
X37285715Y-44851009D02*
X37333334Y-44755771D01*
X37333334Y-44755771D02*
X37428572Y-44708152D01*
X37428572Y-44708152D02*
X37619048Y-44708152D01*
X37619048Y-44708152D02*
X37714286Y-44755771D01*
X37714286Y-44755771D02*
X37761905Y-44851009D01*
X37761905Y-44851009D02*
X37761905Y-44946247D01*
X37761905Y-44946247D02*
X37285715Y-45041485D01*
X38047620Y-44708152D02*
X38428572Y-44708152D01*
X38190477Y-44374819D02*
X38190477Y-45231961D01*
X38190477Y-45231961D02*
X38238096Y-45327200D01*
X38238096Y-45327200D02*
X38333334Y-45374819D01*
X38333334Y-45374819D02*
X38428572Y-45374819D01*
X39190477Y-44708152D02*
X39190477Y-45374819D01*
X38761906Y-44708152D02*
X38761906Y-45231961D01*
X38761906Y-45231961D02*
X38809525Y-45327200D01*
X38809525Y-45327200D02*
X38904763Y-45374819D01*
X38904763Y-45374819D02*
X39047620Y-45374819D01*
X39047620Y-45374819D02*
X39142858Y-45327200D01*
X39142858Y-45327200D02*
X39190477Y-45279580D01*
X39666668Y-45374819D02*
X39666668Y-44708152D01*
X39666668Y-44898628D02*
X39714287Y-44803390D01*
X39714287Y-44803390D02*
X39761906Y-44755771D01*
X39761906Y-44755771D02*
X39857144Y-44708152D01*
X39857144Y-44708152D02*
X39952382Y-44708152D01*
X34666666Y-49454819D02*
X34666666Y-50169104D01*
X34666666Y-50169104D02*
X34619047Y-50311961D01*
X34619047Y-50311961D02*
X34523809Y-50407200D01*
X34523809Y-50407200D02*
X34380952Y-50454819D01*
X34380952Y-50454819D02*
X34285714Y-50454819D01*
X35095238Y-49550057D02*
X35142857Y-49502438D01*
X35142857Y-49502438D02*
X35238095Y-49454819D01*
X35238095Y-49454819D02*
X35476190Y-49454819D01*
X35476190Y-49454819D02*
X35571428Y-49502438D01*
X35571428Y-49502438D02*
X35619047Y-49550057D01*
X35619047Y-49550057D02*
X35666666Y-49645295D01*
X35666666Y-49645295D02*
X35666666Y-49740533D01*
X35666666Y-49740533D02*
X35619047Y-49883390D01*
X35619047Y-49883390D02*
X35047619Y-50454819D01*
X35047619Y-50454819D02*
X35666666Y-50454819D01*
X30190475Y-25374819D02*
X30190475Y-24374819D01*
X30285713Y-24993866D02*
X30571427Y-25374819D01*
X30571427Y-24708152D02*
X30190475Y-25089104D01*
X31428570Y-25374819D02*
X31428570Y-24851009D01*
X31428570Y-24851009D02*
X31380951Y-24755771D01*
X31380951Y-24755771D02*
X31285713Y-24708152D01*
X31285713Y-24708152D02*
X31095237Y-24708152D01*
X31095237Y-24708152D02*
X30999999Y-24755771D01*
X31428570Y-25327200D02*
X31333332Y-25374819D01*
X31333332Y-25374819D02*
X31095237Y-25374819D01*
X31095237Y-25374819D02*
X30999999Y-25327200D01*
X30999999Y-25327200D02*
X30952380Y-25231961D01*
X30952380Y-25231961D02*
X30952380Y-25136723D01*
X30952380Y-25136723D02*
X30999999Y-25041485D01*
X30999999Y-25041485D02*
X31095237Y-24993866D01*
X31095237Y-24993866D02*
X31333332Y-24993866D01*
X31333332Y-24993866D02*
X31428570Y-24946247D01*
X31904761Y-24708152D02*
X31904761Y-25374819D01*
X31904761Y-24803390D02*
X31952380Y-24755771D01*
X31952380Y-24755771D02*
X32047618Y-24708152D01*
X32047618Y-24708152D02*
X32190475Y-24708152D01*
X32190475Y-24708152D02*
X32285713Y-24755771D01*
X32285713Y-24755771D02*
X32333332Y-24851009D01*
X32333332Y-24851009D02*
X32333332Y-25374819D01*
X33238094Y-25374819D02*
X33238094Y-24851009D01*
X33238094Y-24851009D02*
X33190475Y-24755771D01*
X33190475Y-24755771D02*
X33095237Y-24708152D01*
X33095237Y-24708152D02*
X32904761Y-24708152D01*
X32904761Y-24708152D02*
X32809523Y-24755771D01*
X33238094Y-25327200D02*
X33142856Y-25374819D01*
X33142856Y-25374819D02*
X32904761Y-25374819D01*
X32904761Y-25374819D02*
X32809523Y-25327200D01*
X32809523Y-25327200D02*
X32761904Y-25231961D01*
X32761904Y-25231961D02*
X32761904Y-25136723D01*
X32761904Y-25136723D02*
X32809523Y-25041485D01*
X32809523Y-25041485D02*
X32904761Y-24993866D01*
X32904761Y-24993866D02*
X33142856Y-24993866D01*
X33142856Y-24993866D02*
X33238094Y-24946247D01*
X33857142Y-25374819D02*
X33761904Y-25327200D01*
X33761904Y-25327200D02*
X33714285Y-25231961D01*
X33714285Y-25231961D02*
X33714285Y-24374819D01*
X35523809Y-25374819D02*
X34952381Y-25374819D01*
X35238095Y-25374819D02*
X35238095Y-24374819D01*
X35238095Y-24374819D02*
X35142857Y-24517676D01*
X35142857Y-24517676D02*
X35047619Y-24612914D01*
X35047619Y-24612914D02*
X34952381Y-24660533D01*
X36714286Y-25374819D02*
X36714286Y-24708152D01*
X36714286Y-24898628D02*
X36761905Y-24803390D01*
X36761905Y-24803390D02*
X36809524Y-24755771D01*
X36809524Y-24755771D02*
X36904762Y-24708152D01*
X36904762Y-24708152D02*
X37000000Y-24708152D01*
X37714286Y-25327200D02*
X37619048Y-25374819D01*
X37619048Y-25374819D02*
X37428572Y-25374819D01*
X37428572Y-25374819D02*
X37333334Y-25327200D01*
X37333334Y-25327200D02*
X37285715Y-25231961D01*
X37285715Y-25231961D02*
X37285715Y-24851009D01*
X37285715Y-24851009D02*
X37333334Y-24755771D01*
X37333334Y-24755771D02*
X37428572Y-24708152D01*
X37428572Y-24708152D02*
X37619048Y-24708152D01*
X37619048Y-24708152D02*
X37714286Y-24755771D01*
X37714286Y-24755771D02*
X37761905Y-24851009D01*
X37761905Y-24851009D02*
X37761905Y-24946247D01*
X37761905Y-24946247D02*
X37285715Y-25041485D01*
X38047620Y-24708152D02*
X38428572Y-24708152D01*
X38190477Y-24374819D02*
X38190477Y-25231961D01*
X38190477Y-25231961D02*
X38238096Y-25327200D01*
X38238096Y-25327200D02*
X38333334Y-25374819D01*
X38333334Y-25374819D02*
X38428572Y-25374819D01*
X39190477Y-24708152D02*
X39190477Y-25374819D01*
X38761906Y-24708152D02*
X38761906Y-25231961D01*
X38761906Y-25231961D02*
X38809525Y-25327200D01*
X38809525Y-25327200D02*
X38904763Y-25374819D01*
X38904763Y-25374819D02*
X39047620Y-25374819D01*
X39047620Y-25374819D02*
X39142858Y-25327200D01*
X39142858Y-25327200D02*
X39190477Y-25279580D01*
X39666668Y-25374819D02*
X39666668Y-24708152D01*
X39666668Y-24898628D02*
X39714287Y-24803390D01*
X39714287Y-24803390D02*
X39761906Y-24755771D01*
X39761906Y-24755771D02*
X39857144Y-24708152D01*
X39857144Y-24708152D02*
X39952382Y-24708152D01*
X34666666Y-29454819D02*
X34666666Y-30169104D01*
X34666666Y-30169104D02*
X34619047Y-30311961D01*
X34619047Y-30311961D02*
X34523809Y-30407200D01*
X34523809Y-30407200D02*
X34380952Y-30454819D01*
X34380952Y-30454819D02*
X34285714Y-30454819D01*
X35666666Y-30454819D02*
X35095238Y-30454819D01*
X35380952Y-30454819D02*
X35380952Y-29454819D01*
X35380952Y-29454819D02*
X35285714Y-29597676D01*
X35285714Y-29597676D02*
X35190476Y-29692914D01*
X35190476Y-29692914D02*
X35095238Y-29740533D01*
X76309523Y-44594819D02*
X75833333Y-44594819D01*
X75833333Y-44594819D02*
X75833333Y-43594819D01*
X76642857Y-44594819D02*
X76642857Y-43594819D01*
X76642857Y-43594819D02*
X76976190Y-44309104D01*
X76976190Y-44309104D02*
X77309523Y-43594819D01*
X77309523Y-43594819D02*
X77309523Y-44594819D01*
X77690476Y-43594819D02*
X78309523Y-43594819D01*
X78309523Y-43594819D02*
X77976190Y-43975771D01*
X77976190Y-43975771D02*
X78119047Y-43975771D01*
X78119047Y-43975771D02*
X78214285Y-44023390D01*
X78214285Y-44023390D02*
X78261904Y-44071009D01*
X78261904Y-44071009D02*
X78309523Y-44166247D01*
X78309523Y-44166247D02*
X78309523Y-44404342D01*
X78309523Y-44404342D02*
X78261904Y-44499580D01*
X78261904Y-44499580D02*
X78214285Y-44547200D01*
X78214285Y-44547200D02*
X78119047Y-44594819D01*
X78119047Y-44594819D02*
X77833333Y-44594819D01*
X77833333Y-44594819D02*
X77738095Y-44547200D01*
X77738095Y-44547200D02*
X77690476Y-44499580D01*
X79214285Y-43594819D02*
X78738095Y-43594819D01*
X78738095Y-43594819D02*
X78690476Y-44071009D01*
X78690476Y-44071009D02*
X78738095Y-44023390D01*
X78738095Y-44023390D02*
X78833333Y-43975771D01*
X78833333Y-43975771D02*
X79071428Y-43975771D01*
X79071428Y-43975771D02*
X79166666Y-44023390D01*
X79166666Y-44023390D02*
X79214285Y-44071009D01*
X79214285Y-44071009D02*
X79261904Y-44166247D01*
X79261904Y-44166247D02*
X79261904Y-44404342D01*
X79261904Y-44404342D02*
X79214285Y-44499580D01*
X79214285Y-44499580D02*
X79166666Y-44547200D01*
X79166666Y-44547200D02*
X79071428Y-44594819D01*
X79071428Y-44594819D02*
X78833333Y-44594819D01*
X78833333Y-44594819D02*
X78738095Y-44547200D01*
X78738095Y-44547200D02*
X78690476Y-44499580D01*
X79833333Y-44023390D02*
X79738095Y-43975771D01*
X79738095Y-43975771D02*
X79690476Y-43928152D01*
X79690476Y-43928152D02*
X79642857Y-43832914D01*
X79642857Y-43832914D02*
X79642857Y-43785295D01*
X79642857Y-43785295D02*
X79690476Y-43690057D01*
X79690476Y-43690057D02*
X79738095Y-43642438D01*
X79738095Y-43642438D02*
X79833333Y-43594819D01*
X79833333Y-43594819D02*
X80023809Y-43594819D01*
X80023809Y-43594819D02*
X80119047Y-43642438D01*
X80119047Y-43642438D02*
X80166666Y-43690057D01*
X80166666Y-43690057D02*
X80214285Y-43785295D01*
X80214285Y-43785295D02*
X80214285Y-43832914D01*
X80214285Y-43832914D02*
X80166666Y-43928152D01*
X80166666Y-43928152D02*
X80119047Y-43975771D01*
X80119047Y-43975771D02*
X80023809Y-44023390D01*
X80023809Y-44023390D02*
X79833333Y-44023390D01*
X79833333Y-44023390D02*
X79738095Y-44071009D01*
X79738095Y-44071009D02*
X79690476Y-44118628D01*
X79690476Y-44118628D02*
X79642857Y-44213866D01*
X79642857Y-44213866D02*
X79642857Y-44404342D01*
X79642857Y-44404342D02*
X79690476Y-44499580D01*
X79690476Y-44499580D02*
X79738095Y-44547200D01*
X79738095Y-44547200D02*
X79833333Y-44594819D01*
X79833333Y-44594819D02*
X80023809Y-44594819D01*
X80023809Y-44594819D02*
X80119047Y-44547200D01*
X80119047Y-44547200D02*
X80166666Y-44499580D01*
X80166666Y-44499580D02*
X80214285Y-44404342D01*
X80214285Y-44404342D02*
X80214285Y-44213866D01*
X80214285Y-44213866D02*
X80166666Y-44118628D01*
X80166666Y-44118628D02*
X80119047Y-44071009D01*
X80119047Y-44071009D02*
X80023809Y-44023390D01*
X77454819Y-38761904D02*
X78264342Y-38761904D01*
X78264342Y-38761904D02*
X78359580Y-38714285D01*
X78359580Y-38714285D02*
X78407200Y-38666666D01*
X78407200Y-38666666D02*
X78454819Y-38571428D01*
X78454819Y-38571428D02*
X78454819Y-38380952D01*
X78454819Y-38380952D02*
X78407200Y-38285714D01*
X78407200Y-38285714D02*
X78359580Y-38238095D01*
X78359580Y-38238095D02*
X78264342Y-38190476D01*
X78264342Y-38190476D02*
X77454819Y-38190476D01*
X78454819Y-37190476D02*
X78454819Y-37761904D01*
X78454819Y-37476190D02*
X77454819Y-37476190D01*
X77454819Y-37476190D02*
X77597676Y-37571428D01*
X77597676Y-37571428D02*
X77692914Y-37666666D01*
X77692914Y-37666666D02*
X77740533Y-37761904D01*
X88880952Y-32954819D02*
X88309524Y-32954819D01*
X88595238Y-32954819D02*
X88595238Y-31954819D01*
X88595238Y-31954819D02*
X88500000Y-32097676D01*
X88500000Y-32097676D02*
X88404762Y-32192914D01*
X88404762Y-32192914D02*
X88309524Y-32240533D01*
X89500000Y-31954819D02*
X89595238Y-31954819D01*
X89595238Y-31954819D02*
X89690476Y-32002438D01*
X89690476Y-32002438D02*
X89738095Y-32050057D01*
X89738095Y-32050057D02*
X89785714Y-32145295D01*
X89785714Y-32145295D02*
X89833333Y-32335771D01*
X89833333Y-32335771D02*
X89833333Y-32573866D01*
X89833333Y-32573866D02*
X89785714Y-32764342D01*
X89785714Y-32764342D02*
X89738095Y-32859580D01*
X89738095Y-32859580D02*
X89690476Y-32907200D01*
X89690476Y-32907200D02*
X89595238Y-32954819D01*
X89595238Y-32954819D02*
X89500000Y-32954819D01*
X89500000Y-32954819D02*
X89404762Y-32907200D01*
X89404762Y-32907200D02*
X89357143Y-32859580D01*
X89357143Y-32859580D02*
X89309524Y-32764342D01*
X89309524Y-32764342D02*
X89261905Y-32573866D01*
X89261905Y-32573866D02*
X89261905Y-32335771D01*
X89261905Y-32335771D02*
X89309524Y-32145295D01*
X89309524Y-32145295D02*
X89357143Y-32050057D01*
X89357143Y-32050057D02*
X89404762Y-32002438D01*
X89404762Y-32002438D02*
X89500000Y-31954819D01*
X90452381Y-31954819D02*
X90547619Y-31954819D01*
X90547619Y-31954819D02*
X90642857Y-32002438D01*
X90642857Y-32002438D02*
X90690476Y-32050057D01*
X90690476Y-32050057D02*
X90738095Y-32145295D01*
X90738095Y-32145295D02*
X90785714Y-32335771D01*
X90785714Y-32335771D02*
X90785714Y-32573866D01*
X90785714Y-32573866D02*
X90738095Y-32764342D01*
X90738095Y-32764342D02*
X90690476Y-32859580D01*
X90690476Y-32859580D02*
X90642857Y-32907200D01*
X90642857Y-32907200D02*
X90547619Y-32954819D01*
X90547619Y-32954819D02*
X90452381Y-32954819D01*
X90452381Y-32954819D02*
X90357143Y-32907200D01*
X90357143Y-32907200D02*
X90309524Y-32859580D01*
X90309524Y-32859580D02*
X90261905Y-32764342D01*
X90261905Y-32764342D02*
X90214286Y-32573866D01*
X90214286Y-32573866D02*
X90214286Y-32335771D01*
X90214286Y-32335771D02*
X90261905Y-32145295D01*
X90261905Y-32145295D02*
X90309524Y-32050057D01*
X90309524Y-32050057D02*
X90357143Y-32002438D01*
X90357143Y-32002438D02*
X90452381Y-31954819D01*
X91214286Y-32288152D02*
X91214286Y-32954819D01*
X91214286Y-32383390D02*
X91261905Y-32335771D01*
X91261905Y-32335771D02*
X91357143Y-32288152D01*
X91357143Y-32288152D02*
X91500000Y-32288152D01*
X91500000Y-32288152D02*
X91595238Y-32335771D01*
X91595238Y-32335771D02*
X91642857Y-32431009D01*
X91642857Y-32431009D02*
X91642857Y-32954819D01*
X89833333Y-30359580D02*
X89785714Y-30407200D01*
X89785714Y-30407200D02*
X89642857Y-30454819D01*
X89642857Y-30454819D02*
X89547619Y-30454819D01*
X89547619Y-30454819D02*
X89404762Y-30407200D01*
X89404762Y-30407200D02*
X89309524Y-30311961D01*
X89309524Y-30311961D02*
X89261905Y-30216723D01*
X89261905Y-30216723D02*
X89214286Y-30026247D01*
X89214286Y-30026247D02*
X89214286Y-29883390D01*
X89214286Y-29883390D02*
X89261905Y-29692914D01*
X89261905Y-29692914D02*
X89309524Y-29597676D01*
X89309524Y-29597676D02*
X89404762Y-29502438D01*
X89404762Y-29502438D02*
X89547619Y-29454819D01*
X89547619Y-29454819D02*
X89642857Y-29454819D01*
X89642857Y-29454819D02*
X89785714Y-29502438D01*
X89785714Y-29502438D02*
X89833333Y-29550057D01*
X90785714Y-30454819D02*
X90214286Y-30454819D01*
X90500000Y-30454819D02*
X90500000Y-29454819D01*
X90500000Y-29454819D02*
X90404762Y-29597676D01*
X90404762Y-29597676D02*
X90309524Y-29692914D01*
X90309524Y-29692914D02*
X90214286Y-29740533D01*
X48833333Y-32824819D02*
X48261905Y-32824819D01*
X48547619Y-32824819D02*
X48547619Y-31824819D01*
X48547619Y-31824819D02*
X48452381Y-31967676D01*
X48452381Y-31967676D02*
X48357143Y-32062914D01*
X48357143Y-32062914D02*
X48261905Y-32110533D01*
X49833333Y-32824819D02*
X49500000Y-32348628D01*
X49261905Y-32824819D02*
X49261905Y-31824819D01*
X49261905Y-31824819D02*
X49642857Y-31824819D01*
X49642857Y-31824819D02*
X49738095Y-31872438D01*
X49738095Y-31872438D02*
X49785714Y-31920057D01*
X49785714Y-31920057D02*
X49833333Y-32015295D01*
X49833333Y-32015295D02*
X49833333Y-32158152D01*
X49833333Y-32158152D02*
X49785714Y-32253390D01*
X49785714Y-32253390D02*
X49738095Y-32301009D01*
X49738095Y-32301009D02*
X49642857Y-32348628D01*
X49642857Y-32348628D02*
X49261905Y-32348628D01*
X50452381Y-31824819D02*
X50547619Y-31824819D01*
X50547619Y-31824819D02*
X50642857Y-31872438D01*
X50642857Y-31872438D02*
X50690476Y-31920057D01*
X50690476Y-31920057D02*
X50738095Y-32015295D01*
X50738095Y-32015295D02*
X50785714Y-32205771D01*
X50785714Y-32205771D02*
X50785714Y-32443866D01*
X50785714Y-32443866D02*
X50738095Y-32634342D01*
X50738095Y-32634342D02*
X50690476Y-32729580D01*
X50690476Y-32729580D02*
X50642857Y-32777200D01*
X50642857Y-32777200D02*
X50547619Y-32824819D01*
X50547619Y-32824819D02*
X50452381Y-32824819D01*
X50452381Y-32824819D02*
X50357143Y-32777200D01*
X50357143Y-32777200D02*
X50309524Y-32729580D01*
X50309524Y-32729580D02*
X50261905Y-32634342D01*
X50261905Y-32634342D02*
X50214286Y-32443866D01*
X50214286Y-32443866D02*
X50214286Y-32205771D01*
X50214286Y-32205771D02*
X50261905Y-32015295D01*
X50261905Y-32015295D02*
X50309524Y-31920057D01*
X50309524Y-31920057D02*
X50357143Y-31872438D01*
X50357143Y-31872438D02*
X50452381Y-31824819D01*
X51404762Y-31824819D02*
X51500000Y-31824819D01*
X51500000Y-31824819D02*
X51595238Y-31872438D01*
X51595238Y-31872438D02*
X51642857Y-31920057D01*
X51642857Y-31920057D02*
X51690476Y-32015295D01*
X51690476Y-32015295D02*
X51738095Y-32205771D01*
X51738095Y-32205771D02*
X51738095Y-32443866D01*
X51738095Y-32443866D02*
X51690476Y-32634342D01*
X51690476Y-32634342D02*
X51642857Y-32729580D01*
X51642857Y-32729580D02*
X51595238Y-32777200D01*
X51595238Y-32777200D02*
X51500000Y-32824819D01*
X51500000Y-32824819D02*
X51404762Y-32824819D01*
X51404762Y-32824819D02*
X51309524Y-32777200D01*
X51309524Y-32777200D02*
X51261905Y-32729580D01*
X51261905Y-32729580D02*
X51214286Y-32634342D01*
X51214286Y-32634342D02*
X51166667Y-32443866D01*
X51166667Y-32443866D02*
X51166667Y-32205771D01*
X51166667Y-32205771D02*
X51214286Y-32015295D01*
X51214286Y-32015295D02*
X51261905Y-31920057D01*
X51261905Y-31920057D02*
X51309524Y-31872438D01*
X51309524Y-31872438D02*
X51404762Y-31824819D01*
X49357142Y-30454819D02*
X49023809Y-29978628D01*
X48785714Y-30454819D02*
X48785714Y-29454819D01*
X48785714Y-29454819D02*
X49166666Y-29454819D01*
X49166666Y-29454819D02*
X49261904Y-29502438D01*
X49261904Y-29502438D02*
X49309523Y-29550057D01*
X49309523Y-29550057D02*
X49357142Y-29645295D01*
X49357142Y-29645295D02*
X49357142Y-29788152D01*
X49357142Y-29788152D02*
X49309523Y-29883390D01*
X49309523Y-29883390D02*
X49261904Y-29931009D01*
X49261904Y-29931009D02*
X49166666Y-29978628D01*
X49166666Y-29978628D02*
X48785714Y-29978628D01*
X50309523Y-30454819D02*
X49738095Y-30454819D01*
X50023809Y-30454819D02*
X50023809Y-29454819D01*
X50023809Y-29454819D02*
X49928571Y-29597676D01*
X49928571Y-29597676D02*
X49833333Y-29692914D01*
X49833333Y-29692914D02*
X49738095Y-29740533D01*
X51261904Y-30454819D02*
X50690476Y-30454819D01*
X50976190Y-30454819D02*
X50976190Y-29454819D01*
X50976190Y-29454819D02*
X50880952Y-29597676D01*
X50880952Y-29597676D02*
X50785714Y-29692914D01*
X50785714Y-29692914D02*
X50690476Y-29740533D01*
%TO.C,C2*%
D11*
X87500000Y-52750000D02*
X92500000Y-52750000D01*
X92500000Y-55250000D01*
X87500000Y-55250000D01*
X87500000Y-52750000D01*
%TO.C,R33*%
X60190000Y-76000000D02*
X60850000Y-76000000D01*
X67810000Y-76000000D02*
X67150000Y-76000000D01*
X60850000Y-74750000D02*
X67150000Y-74750000D01*
X67150000Y-77250000D01*
X60850000Y-77250000D01*
X60850000Y-74750000D01*
%TO.C,R23*%
X60190000Y-56000000D02*
X60850000Y-56000000D01*
X67810000Y-56000000D02*
X67150000Y-56000000D01*
X60850000Y-54750000D02*
X67150000Y-54750000D01*
X67150000Y-57250000D01*
X60850000Y-57250000D01*
X60850000Y-54750000D01*
%TO.C,R32*%
X60190000Y-64000000D02*
X60850000Y-64000000D01*
X67810000Y-64000000D02*
X67150000Y-64000000D01*
X60850000Y-62750000D02*
X67150000Y-62750000D01*
X67150000Y-65250000D01*
X60850000Y-65250000D01*
X60850000Y-62750000D01*
%TO.C,R13*%
X60190000Y-36000000D02*
X60850000Y-36000000D01*
X67810000Y-36000000D02*
X67150000Y-36000000D01*
X60850000Y-34750000D02*
X67150000Y-34750000D01*
X67150000Y-37250000D01*
X60850000Y-37250000D01*
X60850000Y-34750000D01*
%TO.C,J3*%
X30000000Y-66250000D02*
X30000000Y-73750000D01*
X30000000Y-73750000D02*
X40000000Y-73750000D01*
X39950000Y-67450000D02*
X30050000Y-67450000D01*
X40000000Y-66250000D02*
X30000000Y-66250000D01*
X40000000Y-73750000D02*
X40000000Y-66250000D01*
%TO.C,R22*%
X60190000Y-44000000D02*
X60850000Y-44000000D01*
X67810000Y-44000000D02*
X67150000Y-44000000D01*
X60850000Y-42750000D02*
X67150000Y-42750000D01*
X67150000Y-45250000D01*
X60850000Y-45250000D01*
X60850000Y-42750000D01*
%TO.C,U2*%
X74825000Y-57920000D02*
X75825000Y-56920000D01*
X74825000Y-67080000D02*
X74825000Y-57920000D01*
X75825000Y-56920000D02*
X81175000Y-56920000D01*
X81175000Y-56920000D02*
X81175000Y-67080000D01*
X81175000Y-67080000D02*
X74825000Y-67080000D01*
%TO.C,R12*%
X60190000Y-24000000D02*
X60850000Y-24000000D01*
X67810000Y-24000000D02*
X67150000Y-24000000D01*
X60850000Y-22750000D02*
X67150000Y-22750000D01*
X67150000Y-25250000D01*
X60850000Y-25250000D01*
X60850000Y-22750000D01*
%TO.C,R31*%
X46190000Y-70000000D02*
X46850000Y-70000000D01*
X53810000Y-70000000D02*
X53150000Y-70000000D01*
X46850000Y-68750000D02*
X53150000Y-68750000D01*
X53150000Y-71250000D01*
X46850000Y-71250000D01*
X46850000Y-68750000D01*
%TO.C,R21*%
X46190000Y-50000000D02*
X46850000Y-50000000D01*
X53810000Y-50000000D02*
X53150000Y-50000000D01*
X46850000Y-48750000D02*
X53150000Y-48750000D01*
X53150000Y-51250000D01*
X46850000Y-51250000D01*
X46850000Y-48750000D01*
%TO.C,J4*%
X107730000Y-44285000D02*
X108365000Y-43650000D01*
X107730000Y-56350000D02*
X107730000Y-44285000D01*
X108365000Y-43650000D02*
X110270000Y-43650000D01*
X110270000Y-43650000D02*
X110270000Y-56350000D01*
X110270000Y-56350000D02*
X107730000Y-56350000D01*
%TO.C,J2*%
X30000000Y-46250000D02*
X30000000Y-53750000D01*
X30000000Y-53750000D02*
X40000000Y-53750000D01*
X39950000Y-47450000D02*
X30050000Y-47450000D01*
X40000000Y-46250000D02*
X30000000Y-46250000D01*
X40000000Y-53750000D02*
X40000000Y-46250000D01*
%TO.C,J1*%
X30000000Y-26250000D02*
X30000000Y-33750000D01*
X30000000Y-33750000D02*
X40000000Y-33750000D01*
X39950000Y-27450000D02*
X30050000Y-27450000D01*
X40000000Y-26250000D02*
X30000000Y-26250000D01*
X40000000Y-33750000D02*
X40000000Y-26250000D01*
%TO.C,U1*%
X74825000Y-33920000D02*
X75825000Y-32920000D01*
X74825000Y-43080000D02*
X74825000Y-33920000D01*
X75825000Y-32920000D02*
X81175000Y-32920000D01*
X81175000Y-32920000D02*
X81175000Y-43080000D01*
X81175000Y-43080000D02*
X74825000Y-43080000D01*
%TO.C,C1*%
X87500000Y-28750000D02*
X92500000Y-28750000D01*
X92500000Y-31250000D01*
X87500000Y-31250000D01*
X87500000Y-28750000D01*
%TO.C,R11*%
X46190000Y-30000000D02*
X46850000Y-30000000D01*
X53810000Y-30000000D02*
X53150000Y-30000000D01*
X46850000Y-28750000D02*
X53150000Y-28750000D01*
X53150000Y-31250000D01*
X46850000Y-31250000D01*
X46850000Y-28750000D01*
%TD*%
M02*
