%TF.GenerationSoftware,KiCad,Pcbnew,9.0.6*%
%TF.CreationDate,2026-06-10T06:20:19+02:00*%
%TF.ProjectId,current_sense,63757272-656e-4745-9f73-656e73652e6b,rev?*%
%TF.SameCoordinates,Original*%
%TF.FileFunction,Legend,Top*%
%TF.FilePolarity,Positive*%
%FSLAX46Y46*%
G04 Gerber Fmt 4.6, Leading zero omitted, Abs format (unit mm)*
G04 Created by KiCad (PCBNEW 9.0.6) date 2026-06-10 06:20:19*
%MOMM*%
%LPD*%
G01*
G04 APERTURE LIST*
%ADD10C,0.150000*%
%ADD11C,0.120000*%
G04 APERTURE END LIST*
D10*
X75012142Y-47819819D02*
X74678809Y-47343628D01*
X74440714Y-47819819D02*
X74440714Y-46819819D01*
X74440714Y-46819819D02*
X74821666Y-46819819D01*
X74821666Y-46819819D02*
X74916904Y-46867438D01*
X74916904Y-46867438D02*
X74964523Y-46915057D01*
X74964523Y-46915057D02*
X75012142Y-47010295D01*
X75012142Y-47010295D02*
X75012142Y-47153152D01*
X75012142Y-47153152D02*
X74964523Y-47248390D01*
X74964523Y-47248390D02*
X74916904Y-47296009D01*
X74916904Y-47296009D02*
X74821666Y-47343628D01*
X74821666Y-47343628D02*
X74440714Y-47343628D01*
X75964523Y-47819819D02*
X75393095Y-47819819D01*
X75678809Y-47819819D02*
X75678809Y-46819819D01*
X75678809Y-46819819D02*
X75583571Y-46962676D01*
X75583571Y-46962676D02*
X75488333Y-47057914D01*
X75488333Y-47057914D02*
X75393095Y-47105533D01*
X76345476Y-46915057D02*
X76393095Y-46867438D01*
X76393095Y-46867438D02*
X76488333Y-46819819D01*
X76488333Y-46819819D02*
X76726428Y-46819819D01*
X76726428Y-46819819D02*
X76821666Y-46867438D01*
X76821666Y-46867438D02*
X76869285Y-46915057D01*
X76869285Y-46915057D02*
X76916904Y-47010295D01*
X76916904Y-47010295D02*
X76916904Y-47105533D01*
X76916904Y-47105533D02*
X76869285Y-47248390D01*
X76869285Y-47248390D02*
X76297857Y-47819819D01*
X76297857Y-47819819D02*
X76916904Y-47819819D01*
X93548333Y-35714580D02*
X93500714Y-35762200D01*
X93500714Y-35762200D02*
X93357857Y-35809819D01*
X93357857Y-35809819D02*
X93262619Y-35809819D01*
X93262619Y-35809819D02*
X93119762Y-35762200D01*
X93119762Y-35762200D02*
X93024524Y-35666961D01*
X93024524Y-35666961D02*
X92976905Y-35571723D01*
X92976905Y-35571723D02*
X92929286Y-35381247D01*
X92929286Y-35381247D02*
X92929286Y-35238390D01*
X92929286Y-35238390D02*
X92976905Y-35047914D01*
X92976905Y-35047914D02*
X93024524Y-34952676D01*
X93024524Y-34952676D02*
X93119762Y-34857438D01*
X93119762Y-34857438D02*
X93262619Y-34809819D01*
X93262619Y-34809819D02*
X93357857Y-34809819D01*
X93357857Y-34809819D02*
X93500714Y-34857438D01*
X93500714Y-34857438D02*
X93548333Y-34905057D01*
X94500714Y-35809819D02*
X93929286Y-35809819D01*
X94215000Y-35809819D02*
X94215000Y-34809819D01*
X94215000Y-34809819D02*
X94119762Y-34952676D01*
X94119762Y-34952676D02*
X94024524Y-35047914D01*
X94024524Y-35047914D02*
X93929286Y-35095533D01*
X57523095Y-31169819D02*
X57523095Y-31979342D01*
X57523095Y-31979342D02*
X57570714Y-32074580D01*
X57570714Y-32074580D02*
X57618333Y-32122200D01*
X57618333Y-32122200D02*
X57713571Y-32169819D01*
X57713571Y-32169819D02*
X57904047Y-32169819D01*
X57904047Y-32169819D02*
X57999285Y-32122200D01*
X57999285Y-32122200D02*
X58046904Y-32074580D01*
X58046904Y-32074580D02*
X58094523Y-31979342D01*
X58094523Y-31979342D02*
X58094523Y-31169819D01*
X59094523Y-32169819D02*
X58523095Y-32169819D01*
X58808809Y-32169819D02*
X58808809Y-31169819D01*
X58808809Y-31169819D02*
X58713571Y-31312676D01*
X58713571Y-31312676D02*
X58618333Y-31407914D01*
X58618333Y-31407914D02*
X58523095Y-31455533D01*
X137746666Y-26374819D02*
X137746666Y-27089104D01*
X137746666Y-27089104D02*
X137699047Y-27231961D01*
X137699047Y-27231961D02*
X137603809Y-27327200D01*
X137603809Y-27327200D02*
X137460952Y-27374819D01*
X137460952Y-27374819D02*
X137365714Y-27374819D01*
X138175238Y-26470057D02*
X138222857Y-26422438D01*
X138222857Y-26422438D02*
X138318095Y-26374819D01*
X138318095Y-26374819D02*
X138556190Y-26374819D01*
X138556190Y-26374819D02*
X138651428Y-26422438D01*
X138651428Y-26422438D02*
X138699047Y-26470057D01*
X138699047Y-26470057D02*
X138746666Y-26565295D01*
X138746666Y-26565295D02*
X138746666Y-26660533D01*
X138746666Y-26660533D02*
X138699047Y-26803390D01*
X138699047Y-26803390D02*
X138127619Y-27374819D01*
X138127619Y-27374819D02*
X138746666Y-27374819D01*
X57242142Y-63919819D02*
X56908809Y-63443628D01*
X56670714Y-63919819D02*
X56670714Y-62919819D01*
X56670714Y-62919819D02*
X57051666Y-62919819D01*
X57051666Y-62919819D02*
X57146904Y-62967438D01*
X57146904Y-62967438D02*
X57194523Y-63015057D01*
X57194523Y-63015057D02*
X57242142Y-63110295D01*
X57242142Y-63110295D02*
X57242142Y-63253152D01*
X57242142Y-63253152D02*
X57194523Y-63348390D01*
X57194523Y-63348390D02*
X57146904Y-63396009D01*
X57146904Y-63396009D02*
X57051666Y-63443628D01*
X57051666Y-63443628D02*
X56670714Y-63443628D01*
X57575476Y-62919819D02*
X58194523Y-62919819D01*
X58194523Y-62919819D02*
X57861190Y-63300771D01*
X57861190Y-63300771D02*
X58004047Y-63300771D01*
X58004047Y-63300771D02*
X58099285Y-63348390D01*
X58099285Y-63348390D02*
X58146904Y-63396009D01*
X58146904Y-63396009D02*
X58194523Y-63491247D01*
X58194523Y-63491247D02*
X58194523Y-63729342D01*
X58194523Y-63729342D02*
X58146904Y-63824580D01*
X58146904Y-63824580D02*
X58099285Y-63872200D01*
X58099285Y-63872200D02*
X58004047Y-63919819D01*
X58004047Y-63919819D02*
X57718333Y-63919819D01*
X57718333Y-63919819D02*
X57623095Y-63872200D01*
X57623095Y-63872200D02*
X57575476Y-63824580D01*
X58527857Y-62919819D02*
X59146904Y-62919819D01*
X59146904Y-62919819D02*
X58813571Y-63300771D01*
X58813571Y-63300771D02*
X58956428Y-63300771D01*
X58956428Y-63300771D02*
X59051666Y-63348390D01*
X59051666Y-63348390D02*
X59099285Y-63396009D01*
X59099285Y-63396009D02*
X59146904Y-63491247D01*
X59146904Y-63491247D02*
X59146904Y-63729342D01*
X59146904Y-63729342D02*
X59099285Y-63824580D01*
X59099285Y-63824580D02*
X59051666Y-63872200D01*
X59051666Y-63872200D02*
X58956428Y-63919819D01*
X58956428Y-63919819D02*
X58670714Y-63919819D01*
X58670714Y-63919819D02*
X58575476Y-63872200D01*
X58575476Y-63872200D02*
X58527857Y-63824580D01*
X76093095Y-31169819D02*
X76093095Y-31979342D01*
X76093095Y-31979342D02*
X76140714Y-32074580D01*
X76140714Y-32074580D02*
X76188333Y-32122200D01*
X76188333Y-32122200D02*
X76283571Y-32169819D01*
X76283571Y-32169819D02*
X76474047Y-32169819D01*
X76474047Y-32169819D02*
X76569285Y-32122200D01*
X76569285Y-32122200D02*
X76616904Y-32074580D01*
X76616904Y-32074580D02*
X76664523Y-31979342D01*
X76664523Y-31979342D02*
X76664523Y-31169819D01*
X77093095Y-31265057D02*
X77140714Y-31217438D01*
X77140714Y-31217438D02*
X77235952Y-31169819D01*
X77235952Y-31169819D02*
X77474047Y-31169819D01*
X77474047Y-31169819D02*
X77569285Y-31217438D01*
X77569285Y-31217438D02*
X77616904Y-31265057D01*
X77616904Y-31265057D02*
X77664523Y-31360295D01*
X77664523Y-31360295D02*
X77664523Y-31455533D01*
X77664523Y-31455533D02*
X77616904Y-31598390D01*
X77616904Y-31598390D02*
X77045476Y-32169819D01*
X77045476Y-32169819D02*
X77664523Y-32169819D01*
X34666666Y-36534819D02*
X34666666Y-37249104D01*
X34666666Y-37249104D02*
X34619047Y-37391961D01*
X34619047Y-37391961D02*
X34523809Y-37487200D01*
X34523809Y-37487200D02*
X34380952Y-37534819D01*
X34380952Y-37534819D02*
X34285714Y-37534819D01*
X35666666Y-37534819D02*
X35095238Y-37534819D01*
X35380952Y-37534819D02*
X35380952Y-36534819D01*
X35380952Y-36534819D02*
X35285714Y-36677676D01*
X35285714Y-36677676D02*
X35190476Y-36772914D01*
X35190476Y-36772914D02*
X35095238Y-36820533D01*
X57242142Y-55869819D02*
X56908809Y-55393628D01*
X56670714Y-55869819D02*
X56670714Y-54869819D01*
X56670714Y-54869819D02*
X57051666Y-54869819D01*
X57051666Y-54869819D02*
X57146904Y-54917438D01*
X57146904Y-54917438D02*
X57194523Y-54965057D01*
X57194523Y-54965057D02*
X57242142Y-55060295D01*
X57242142Y-55060295D02*
X57242142Y-55203152D01*
X57242142Y-55203152D02*
X57194523Y-55298390D01*
X57194523Y-55298390D02*
X57146904Y-55346009D01*
X57146904Y-55346009D02*
X57051666Y-55393628D01*
X57051666Y-55393628D02*
X56670714Y-55393628D01*
X57623095Y-54965057D02*
X57670714Y-54917438D01*
X57670714Y-54917438D02*
X57765952Y-54869819D01*
X57765952Y-54869819D02*
X58004047Y-54869819D01*
X58004047Y-54869819D02*
X58099285Y-54917438D01*
X58099285Y-54917438D02*
X58146904Y-54965057D01*
X58146904Y-54965057D02*
X58194523Y-55060295D01*
X58194523Y-55060295D02*
X58194523Y-55155533D01*
X58194523Y-55155533D02*
X58146904Y-55298390D01*
X58146904Y-55298390D02*
X57575476Y-55869819D01*
X57575476Y-55869819D02*
X58194523Y-55869819D01*
X58575476Y-54965057D02*
X58623095Y-54917438D01*
X58623095Y-54917438D02*
X58718333Y-54869819D01*
X58718333Y-54869819D02*
X58956428Y-54869819D01*
X58956428Y-54869819D02*
X59051666Y-54917438D01*
X59051666Y-54917438D02*
X59099285Y-54965057D01*
X59099285Y-54965057D02*
X59146904Y-55060295D01*
X59146904Y-55060295D02*
X59146904Y-55155533D01*
X59146904Y-55155533D02*
X59099285Y-55298390D01*
X59099285Y-55298390D02*
X58527857Y-55869819D01*
X58527857Y-55869819D02*
X59146904Y-55869819D01*
X137746666Y-43744819D02*
X137746666Y-44459104D01*
X137746666Y-44459104D02*
X137699047Y-44601961D01*
X137699047Y-44601961D02*
X137603809Y-44697200D01*
X137603809Y-44697200D02*
X137460952Y-44744819D01*
X137460952Y-44744819D02*
X137365714Y-44744819D01*
X138651428Y-44078152D02*
X138651428Y-44744819D01*
X138413333Y-43697200D02*
X138175238Y-44411485D01*
X138175238Y-44411485D02*
X138794285Y-44411485D01*
X108698333Y-35714580D02*
X108650714Y-35762200D01*
X108650714Y-35762200D02*
X108507857Y-35809819D01*
X108507857Y-35809819D02*
X108412619Y-35809819D01*
X108412619Y-35809819D02*
X108269762Y-35762200D01*
X108269762Y-35762200D02*
X108174524Y-35666961D01*
X108174524Y-35666961D02*
X108126905Y-35571723D01*
X108126905Y-35571723D02*
X108079286Y-35381247D01*
X108079286Y-35381247D02*
X108079286Y-35238390D01*
X108079286Y-35238390D02*
X108126905Y-35047914D01*
X108126905Y-35047914D02*
X108174524Y-34952676D01*
X108174524Y-34952676D02*
X108269762Y-34857438D01*
X108269762Y-34857438D02*
X108412619Y-34809819D01*
X108412619Y-34809819D02*
X108507857Y-34809819D01*
X108507857Y-34809819D02*
X108650714Y-34857438D01*
X108650714Y-34857438D02*
X108698333Y-34905057D01*
X109079286Y-34905057D02*
X109126905Y-34857438D01*
X109126905Y-34857438D02*
X109222143Y-34809819D01*
X109222143Y-34809819D02*
X109460238Y-34809819D01*
X109460238Y-34809819D02*
X109555476Y-34857438D01*
X109555476Y-34857438D02*
X109603095Y-34905057D01*
X109603095Y-34905057D02*
X109650714Y-35000295D01*
X109650714Y-35000295D02*
X109650714Y-35095533D01*
X109650714Y-35095533D02*
X109603095Y-35238390D01*
X109603095Y-35238390D02*
X109031667Y-35809819D01*
X109031667Y-35809819D02*
X109650714Y-35809819D01*
X92782142Y-55869819D02*
X92448809Y-55393628D01*
X92210714Y-55869819D02*
X92210714Y-54869819D01*
X92210714Y-54869819D02*
X92591666Y-54869819D01*
X92591666Y-54869819D02*
X92686904Y-54917438D01*
X92686904Y-54917438D02*
X92734523Y-54965057D01*
X92734523Y-54965057D02*
X92782142Y-55060295D01*
X92782142Y-55060295D02*
X92782142Y-55203152D01*
X92782142Y-55203152D02*
X92734523Y-55298390D01*
X92734523Y-55298390D02*
X92686904Y-55346009D01*
X92686904Y-55346009D02*
X92591666Y-55393628D01*
X92591666Y-55393628D02*
X92210714Y-55393628D01*
X93115476Y-54869819D02*
X93734523Y-54869819D01*
X93734523Y-54869819D02*
X93401190Y-55250771D01*
X93401190Y-55250771D02*
X93544047Y-55250771D01*
X93544047Y-55250771D02*
X93639285Y-55298390D01*
X93639285Y-55298390D02*
X93686904Y-55346009D01*
X93686904Y-55346009D02*
X93734523Y-55441247D01*
X93734523Y-55441247D02*
X93734523Y-55679342D01*
X93734523Y-55679342D02*
X93686904Y-55774580D01*
X93686904Y-55774580D02*
X93639285Y-55822200D01*
X93639285Y-55822200D02*
X93544047Y-55869819D01*
X93544047Y-55869819D02*
X93258333Y-55869819D01*
X93258333Y-55869819D02*
X93163095Y-55822200D01*
X93163095Y-55822200D02*
X93115476Y-55774580D01*
X94686904Y-55869819D02*
X94115476Y-55869819D01*
X94401190Y-55869819D02*
X94401190Y-54869819D01*
X94401190Y-54869819D02*
X94305952Y-55012676D01*
X94305952Y-55012676D02*
X94210714Y-55107914D01*
X94210714Y-55107914D02*
X94115476Y-55155533D01*
X75012142Y-55869819D02*
X74678809Y-55393628D01*
X74440714Y-55869819D02*
X74440714Y-54869819D01*
X74440714Y-54869819D02*
X74821666Y-54869819D01*
X74821666Y-54869819D02*
X74916904Y-54917438D01*
X74916904Y-54917438D02*
X74964523Y-54965057D01*
X74964523Y-54965057D02*
X75012142Y-55060295D01*
X75012142Y-55060295D02*
X75012142Y-55203152D01*
X75012142Y-55203152D02*
X74964523Y-55298390D01*
X74964523Y-55298390D02*
X74916904Y-55346009D01*
X74916904Y-55346009D02*
X74821666Y-55393628D01*
X74821666Y-55393628D02*
X74440714Y-55393628D01*
X75393095Y-54965057D02*
X75440714Y-54917438D01*
X75440714Y-54917438D02*
X75535952Y-54869819D01*
X75535952Y-54869819D02*
X75774047Y-54869819D01*
X75774047Y-54869819D02*
X75869285Y-54917438D01*
X75869285Y-54917438D02*
X75916904Y-54965057D01*
X75916904Y-54965057D02*
X75964523Y-55060295D01*
X75964523Y-55060295D02*
X75964523Y-55155533D01*
X75964523Y-55155533D02*
X75916904Y-55298390D01*
X75916904Y-55298390D02*
X75345476Y-55869819D01*
X75345476Y-55869819D02*
X75964523Y-55869819D01*
X76297857Y-54869819D02*
X76916904Y-54869819D01*
X76916904Y-54869819D02*
X76583571Y-55250771D01*
X76583571Y-55250771D02*
X76726428Y-55250771D01*
X76726428Y-55250771D02*
X76821666Y-55298390D01*
X76821666Y-55298390D02*
X76869285Y-55346009D01*
X76869285Y-55346009D02*
X76916904Y-55441247D01*
X76916904Y-55441247D02*
X76916904Y-55679342D01*
X76916904Y-55679342D02*
X76869285Y-55774580D01*
X76869285Y-55774580D02*
X76821666Y-55822200D01*
X76821666Y-55822200D02*
X76726428Y-55869819D01*
X76726428Y-55869819D02*
X76440714Y-55869819D01*
X76440714Y-55869819D02*
X76345476Y-55822200D01*
X76345476Y-55822200D02*
X76297857Y-55774580D01*
X92782142Y-47819819D02*
X92448809Y-47343628D01*
X92210714Y-47819819D02*
X92210714Y-46819819D01*
X92210714Y-46819819D02*
X92591666Y-46819819D01*
X92591666Y-46819819D02*
X92686904Y-46867438D01*
X92686904Y-46867438D02*
X92734523Y-46915057D01*
X92734523Y-46915057D02*
X92782142Y-47010295D01*
X92782142Y-47010295D02*
X92782142Y-47153152D01*
X92782142Y-47153152D02*
X92734523Y-47248390D01*
X92734523Y-47248390D02*
X92686904Y-47296009D01*
X92686904Y-47296009D02*
X92591666Y-47343628D01*
X92591666Y-47343628D02*
X92210714Y-47343628D01*
X93734523Y-47819819D02*
X93163095Y-47819819D01*
X93448809Y-47819819D02*
X93448809Y-46819819D01*
X93448809Y-46819819D02*
X93353571Y-46962676D01*
X93353571Y-46962676D02*
X93258333Y-47057914D01*
X93258333Y-47057914D02*
X93163095Y-47105533D01*
X94067857Y-46819819D02*
X94686904Y-46819819D01*
X94686904Y-46819819D02*
X94353571Y-47200771D01*
X94353571Y-47200771D02*
X94496428Y-47200771D01*
X94496428Y-47200771D02*
X94591666Y-47248390D01*
X94591666Y-47248390D02*
X94639285Y-47296009D01*
X94639285Y-47296009D02*
X94686904Y-47391247D01*
X94686904Y-47391247D02*
X94686904Y-47629342D01*
X94686904Y-47629342D02*
X94639285Y-47724580D01*
X94639285Y-47724580D02*
X94591666Y-47772200D01*
X94591666Y-47772200D02*
X94496428Y-47819819D01*
X94496428Y-47819819D02*
X94210714Y-47819819D01*
X94210714Y-47819819D02*
X94115476Y-47772200D01*
X94115476Y-47772200D02*
X94067857Y-47724580D01*
X57242142Y-47819819D02*
X56908809Y-47343628D01*
X56670714Y-47819819D02*
X56670714Y-46819819D01*
X56670714Y-46819819D02*
X57051666Y-46819819D01*
X57051666Y-46819819D02*
X57146904Y-46867438D01*
X57146904Y-46867438D02*
X57194523Y-46915057D01*
X57194523Y-46915057D02*
X57242142Y-47010295D01*
X57242142Y-47010295D02*
X57242142Y-47153152D01*
X57242142Y-47153152D02*
X57194523Y-47248390D01*
X57194523Y-47248390D02*
X57146904Y-47296009D01*
X57146904Y-47296009D02*
X57051666Y-47343628D01*
X57051666Y-47343628D02*
X56670714Y-47343628D01*
X58194523Y-47819819D02*
X57623095Y-47819819D01*
X57908809Y-47819819D02*
X57908809Y-46819819D01*
X57908809Y-46819819D02*
X57813571Y-46962676D01*
X57813571Y-46962676D02*
X57718333Y-47057914D01*
X57718333Y-47057914D02*
X57623095Y-47105533D01*
X59146904Y-47819819D02*
X58575476Y-47819819D01*
X58861190Y-47819819D02*
X58861190Y-46819819D01*
X58861190Y-46819819D02*
X58765952Y-46962676D01*
X58765952Y-46962676D02*
X58670714Y-47057914D01*
X58670714Y-47057914D02*
X58575476Y-47105533D01*
X110552142Y-47819819D02*
X110218809Y-47343628D01*
X109980714Y-47819819D02*
X109980714Y-46819819D01*
X109980714Y-46819819D02*
X110361666Y-46819819D01*
X110361666Y-46819819D02*
X110456904Y-46867438D01*
X110456904Y-46867438D02*
X110504523Y-46915057D01*
X110504523Y-46915057D02*
X110552142Y-47010295D01*
X110552142Y-47010295D02*
X110552142Y-47153152D01*
X110552142Y-47153152D02*
X110504523Y-47248390D01*
X110504523Y-47248390D02*
X110456904Y-47296009D01*
X110456904Y-47296009D02*
X110361666Y-47343628D01*
X110361666Y-47343628D02*
X109980714Y-47343628D01*
X110933095Y-46915057D02*
X110980714Y-46867438D01*
X110980714Y-46867438D02*
X111075952Y-46819819D01*
X111075952Y-46819819D02*
X111314047Y-46819819D01*
X111314047Y-46819819D02*
X111409285Y-46867438D01*
X111409285Y-46867438D02*
X111456904Y-46915057D01*
X111456904Y-46915057D02*
X111504523Y-47010295D01*
X111504523Y-47010295D02*
X111504523Y-47105533D01*
X111504523Y-47105533D02*
X111456904Y-47248390D01*
X111456904Y-47248390D02*
X110885476Y-47819819D01*
X110885476Y-47819819D02*
X111504523Y-47819819D01*
X112456904Y-47819819D02*
X111885476Y-47819819D01*
X112171190Y-47819819D02*
X112171190Y-46819819D01*
X112171190Y-46819819D02*
X112075952Y-46962676D01*
X112075952Y-46962676D02*
X111980714Y-47057914D01*
X111980714Y-47057914D02*
X111885476Y-47105533D01*
X110552142Y-55869819D02*
X110218809Y-55393628D01*
X109980714Y-55869819D02*
X109980714Y-54869819D01*
X109980714Y-54869819D02*
X110361666Y-54869819D01*
X110361666Y-54869819D02*
X110456904Y-54917438D01*
X110456904Y-54917438D02*
X110504523Y-54965057D01*
X110504523Y-54965057D02*
X110552142Y-55060295D01*
X110552142Y-55060295D02*
X110552142Y-55203152D01*
X110552142Y-55203152D02*
X110504523Y-55298390D01*
X110504523Y-55298390D02*
X110456904Y-55346009D01*
X110456904Y-55346009D02*
X110361666Y-55393628D01*
X110361666Y-55393628D02*
X109980714Y-55393628D01*
X110885476Y-54869819D02*
X111504523Y-54869819D01*
X111504523Y-54869819D02*
X111171190Y-55250771D01*
X111171190Y-55250771D02*
X111314047Y-55250771D01*
X111314047Y-55250771D02*
X111409285Y-55298390D01*
X111409285Y-55298390D02*
X111456904Y-55346009D01*
X111456904Y-55346009D02*
X111504523Y-55441247D01*
X111504523Y-55441247D02*
X111504523Y-55679342D01*
X111504523Y-55679342D02*
X111456904Y-55774580D01*
X111456904Y-55774580D02*
X111409285Y-55822200D01*
X111409285Y-55822200D02*
X111314047Y-55869819D01*
X111314047Y-55869819D02*
X111028333Y-55869819D01*
X111028333Y-55869819D02*
X110933095Y-55822200D01*
X110933095Y-55822200D02*
X110885476Y-55774580D01*
X111885476Y-54965057D02*
X111933095Y-54917438D01*
X111933095Y-54917438D02*
X112028333Y-54869819D01*
X112028333Y-54869819D02*
X112266428Y-54869819D01*
X112266428Y-54869819D02*
X112361666Y-54917438D01*
X112361666Y-54917438D02*
X112409285Y-54965057D01*
X112409285Y-54965057D02*
X112456904Y-55060295D01*
X112456904Y-55060295D02*
X112456904Y-55155533D01*
X112456904Y-55155533D02*
X112409285Y-55298390D01*
X112409285Y-55298390D02*
X111837857Y-55869819D01*
X111837857Y-55869819D02*
X112456904Y-55869819D01*
X34666666Y-56284819D02*
X34666666Y-56999104D01*
X34666666Y-56999104D02*
X34619047Y-57141961D01*
X34619047Y-57141961D02*
X34523809Y-57237200D01*
X34523809Y-57237200D02*
X34380952Y-57284819D01*
X34380952Y-57284819D02*
X34285714Y-57284819D01*
X35047619Y-56284819D02*
X35666666Y-56284819D01*
X35666666Y-56284819D02*
X35333333Y-56665771D01*
X35333333Y-56665771D02*
X35476190Y-56665771D01*
X35476190Y-56665771D02*
X35571428Y-56713390D01*
X35571428Y-56713390D02*
X35619047Y-56761009D01*
X35619047Y-56761009D02*
X35666666Y-56856247D01*
X35666666Y-56856247D02*
X35666666Y-57094342D01*
X35666666Y-57094342D02*
X35619047Y-57189580D01*
X35619047Y-57189580D02*
X35571428Y-57237200D01*
X35571428Y-57237200D02*
X35476190Y-57284819D01*
X35476190Y-57284819D02*
X35190476Y-57284819D01*
X35190476Y-57284819D02*
X35095238Y-57237200D01*
X35095238Y-57237200D02*
X35047619Y-57189580D01*
D11*
%TO.C,R12*%
X72385000Y-48365000D02*
X78925000Y-48365000D01*
X72385000Y-48695000D02*
X72385000Y-48365000D01*
X72385000Y-50775000D02*
X72385000Y-51105000D01*
X72385000Y-51105000D02*
X78925000Y-51105000D01*
X78925000Y-48365000D02*
X78925000Y-48695000D01*
X78925000Y-51105000D02*
X78925000Y-50775000D01*
%TO.C,C1*%
X91095000Y-36485000D02*
X96335000Y-36485000D01*
X91095000Y-36822000D02*
X91095000Y-36485000D01*
X91095000Y-39225000D02*
X91095000Y-38888000D01*
X96335000Y-36485000D02*
X96335000Y-36822000D01*
X96335000Y-38888000D02*
X96335000Y-39225000D01*
X96335000Y-39225000D02*
X91095000Y-39225000D01*
%TO.C,U1*%
X56035000Y-32715000D02*
X56035000Y-42995000D01*
X56035000Y-42995000D02*
X60535000Y-42995000D01*
X57285000Y-32715000D02*
X56035000Y-32715000D01*
X60535000Y-32715000D02*
X59285000Y-32715000D01*
X60535000Y-42995000D02*
X60535000Y-32715000D01*
X59285000Y-32715000D02*
G75*
G02*
X57285000Y-32715000I-1000000J0D01*
G01*
%TO.C,J2*%
X133000000Y-28190000D02*
X133000000Y-35810000D01*
X133000000Y-35810000D02*
X143160000Y-35810000D01*
X143160000Y-28190000D02*
X133000000Y-28190000D01*
X143160000Y-34540000D02*
X133000000Y-34540000D01*
X143160000Y-35810000D02*
X143160000Y-28190000D01*
%TO.C,R33*%
X54615000Y-64465000D02*
X61155000Y-64465000D01*
X54615000Y-64795000D02*
X54615000Y-64465000D01*
X54615000Y-66875000D02*
X54615000Y-67205000D01*
X54615000Y-67205000D02*
X61155000Y-67205000D01*
X61155000Y-64465000D02*
X61155000Y-64795000D01*
X61155000Y-67205000D02*
X61155000Y-66875000D01*
%TO.C,U2*%
X74605000Y-32715000D02*
X74605000Y-42995000D01*
X74605000Y-42995000D02*
X79105000Y-42995000D01*
X75855000Y-32715000D02*
X74605000Y-32715000D01*
X79105000Y-32715000D02*
X77855000Y-32715000D01*
X79105000Y-42995000D02*
X79105000Y-32715000D01*
X77855000Y-32715000D02*
G75*
G02*
X75855000Y-32715000I-1000000J0D01*
G01*
%TO.C,J1*%
X29920000Y-28190000D02*
X29920000Y-35810000D01*
X29920000Y-29460000D02*
X40080000Y-29460000D01*
X29920000Y-35810000D02*
X40080000Y-35810000D01*
X40080000Y-28190000D02*
X29920000Y-28190000D01*
X40080000Y-35810000D02*
X40080000Y-28190000D01*
%TO.C,R22*%
X54615000Y-56415000D02*
X61155000Y-56415000D01*
X54615000Y-56745000D02*
X54615000Y-56415000D01*
X54615000Y-58825000D02*
X54615000Y-59155000D01*
X54615000Y-59155000D02*
X61155000Y-59155000D01*
X61155000Y-56415000D02*
X61155000Y-56745000D01*
X61155000Y-59155000D02*
X61155000Y-58825000D01*
%TO.C,J4*%
X136700000Y-45290000D02*
X138080000Y-45290000D01*
X136700000Y-46670000D02*
X136700000Y-45290000D01*
X136700000Y-47940000D02*
X136700000Y-58210000D01*
X136700000Y-47940000D02*
X139460000Y-47940000D01*
X136700000Y-58210000D02*
X139460000Y-58210000D01*
X139460000Y-47940000D02*
X139460000Y-58210000D01*
%TO.C,C2*%
X106245000Y-36485000D02*
X111485000Y-36485000D01*
X106245000Y-36822000D02*
X106245000Y-36485000D01*
X106245000Y-39225000D02*
X106245000Y-38888000D01*
X111485000Y-36485000D02*
X111485000Y-36822000D01*
X111485000Y-38888000D02*
X111485000Y-39225000D01*
X111485000Y-39225000D02*
X106245000Y-39225000D01*
%TO.C,R31*%
X90155000Y-56415000D02*
X96695000Y-56415000D01*
X90155000Y-56745000D02*
X90155000Y-56415000D01*
X90155000Y-58825000D02*
X90155000Y-59155000D01*
X90155000Y-59155000D02*
X96695000Y-59155000D01*
X96695000Y-56415000D02*
X96695000Y-56745000D01*
X96695000Y-59155000D02*
X96695000Y-58825000D01*
%TO.C,R23*%
X72385000Y-56415000D02*
X78925000Y-56415000D01*
X72385000Y-56745000D02*
X72385000Y-56415000D01*
X72385000Y-58825000D02*
X72385000Y-59155000D01*
X72385000Y-59155000D02*
X78925000Y-59155000D01*
X78925000Y-56415000D02*
X78925000Y-56745000D01*
X78925000Y-59155000D02*
X78925000Y-58825000D01*
%TO.C,R13*%
X90155000Y-48365000D02*
X96695000Y-48365000D01*
X90155000Y-48695000D02*
X90155000Y-48365000D01*
X90155000Y-50775000D02*
X90155000Y-51105000D01*
X90155000Y-51105000D02*
X96695000Y-51105000D01*
X96695000Y-48365000D02*
X96695000Y-48695000D01*
X96695000Y-51105000D02*
X96695000Y-50775000D01*
%TO.C,R11*%
X54615000Y-48365000D02*
X61155000Y-48365000D01*
X54615000Y-48695000D02*
X54615000Y-48365000D01*
X54615000Y-50775000D02*
X54615000Y-51105000D01*
X54615000Y-51105000D02*
X61155000Y-51105000D01*
X61155000Y-48365000D02*
X61155000Y-48695000D01*
X61155000Y-51105000D02*
X61155000Y-50775000D01*
%TO.C,R21*%
X107925000Y-48365000D02*
X114465000Y-48365000D01*
X107925000Y-48695000D02*
X107925000Y-48365000D01*
X107925000Y-50775000D02*
X107925000Y-51105000D01*
X107925000Y-51105000D02*
X114465000Y-51105000D01*
X114465000Y-48365000D02*
X114465000Y-48695000D01*
X114465000Y-51105000D02*
X114465000Y-50775000D01*
%TO.C,R32*%
X107925000Y-56415000D02*
X114465000Y-56415000D01*
X107925000Y-56745000D02*
X107925000Y-56415000D01*
X107925000Y-58825000D02*
X107925000Y-59155000D01*
X107925000Y-59155000D02*
X114465000Y-59155000D01*
X114465000Y-56415000D02*
X114465000Y-56745000D01*
X114465000Y-59155000D02*
X114465000Y-58825000D01*
%TO.C,J3*%
X29920000Y-47940000D02*
X29920000Y-55560000D01*
X29920000Y-49210000D02*
X40080000Y-49210000D01*
X29920000Y-55560000D02*
X40080000Y-55560000D01*
X40080000Y-47940000D02*
X29920000Y-47940000D01*
X40080000Y-55560000D02*
X40080000Y-47940000D01*
%TD*%
M02*
