%TF.GenerationSoftware,KiCad,Pcbnew,9.0.6*%
%TF.CreationDate,2026-06-10T01:14:46+02:00*%
%TF.ProjectId,current_sense,63757272-656e-4745-9f73-656e73652e6b,rev?*%
%TF.SameCoordinates,Original*%
%TF.FileFunction,Soldermask,Bot*%
%TF.FilePolarity,Negative*%
%FSLAX46Y46*%
G04 Gerber Fmt 4.6, Leading zero omitted, Abs format (unit mm)*
G04 Created by KiCad (PCBNEW 9.0.6) date 2026-06-10 01:14:46*
%MOMM*%
%LPD*%
G01*
G04 APERTURE LIST*
G04 Aperture macros list*
%AMRoundRect*
0 Rectangle with rounded corners*
0 $1 Rounding radius*
0 $2 $3 $4 $5 $6 $7 $8 $9 X,Y pos of 4 corners*
0 Add a 4 corners polygon primitive as box body*
4,1,4,$2,$3,$4,$5,$6,$7,$8,$9,$2,$3,0*
0 Add four circle primitives for the rounded corners*
1,1,$1+$1,$2,$3*
1,1,$1+$1,$4,$5*
1,1,$1+$1,$6,$7*
1,1,$1+$1,$8,$9*
0 Add four rect primitives between the rounded corners*
20,1,$1+$1,$2,$3,$4,$5,0*
20,1,$1+$1,$4,$5,$6,$7,0*
20,1,$1+$1,$6,$7,$8,$9,0*
20,1,$1+$1,$8,$9,$2,$3,0*%
G04 Aperture macros list end*
%ADD10C,1.600000*%
%ADD11RoundRect,0.250000X-0.950000X-0.550000X0.950000X-0.550000X0.950000X0.550000X-0.950000X0.550000X0*%
%ADD12O,2.400000X1.600000*%
%ADD13R,1.700000X1.700000*%
%ADD14C,1.700000*%
%ADD15R,3.000000X3.000000*%
%ADD16C,3.000000*%
G04 APERTURE END LIST*
D10*
%TO.C,R23*%
X71845000Y-57785000D03*
X79465000Y-57785000D03*
%TD*%
%TO.C,C1*%
X91215000Y-37855000D03*
X96215000Y-37855000D03*
%TD*%
D11*
%TO.C,U1*%
X54475000Y-34045000D03*
D12*
X54475000Y-36585000D03*
X54475000Y-39125000D03*
X54475000Y-41665000D03*
X62095000Y-41665000D03*
X62095000Y-39125000D03*
X62095000Y-36585000D03*
X62095000Y-34045000D03*
%TD*%
D13*
%TO.C,J4*%
X138080000Y-46670000D03*
D14*
X138080000Y-49210000D03*
X138080000Y-51750000D03*
X138080000Y-54290000D03*
X138080000Y-56830000D03*
%TD*%
D10*
%TO.C,R13*%
X89615000Y-49735000D03*
X97235000Y-49735000D03*
%TD*%
%TO.C,R31*%
X89615000Y-57785000D03*
X97235000Y-57785000D03*
%TD*%
%TO.C,R22*%
X54075000Y-57785000D03*
X61695000Y-57785000D03*
%TD*%
%TO.C,R21*%
X107385000Y-49735000D03*
X115005000Y-49735000D03*
%TD*%
D15*
%TO.C,J3*%
X37540000Y-51750000D03*
D16*
X32460000Y-51750000D03*
%TD*%
D15*
%TO.C,J1*%
X37540000Y-32000000D03*
D16*
X32460000Y-32000000D03*
%TD*%
D10*
%TO.C,R11*%
X54075000Y-49735000D03*
X61695000Y-49735000D03*
%TD*%
%TO.C,R12*%
X71845000Y-49735000D03*
X79465000Y-49735000D03*
%TD*%
D15*
%TO.C,J2*%
X135540000Y-32000000D03*
D16*
X140620000Y-32000000D03*
%TD*%
D10*
%TO.C,C2*%
X106365000Y-37855000D03*
X111365000Y-37855000D03*
%TD*%
%TO.C,R32*%
X107385000Y-57785000D03*
X115005000Y-57785000D03*
%TD*%
%TO.C,R33*%
X54075000Y-65835000D03*
X61695000Y-65835000D03*
%TD*%
D11*
%TO.C,U2*%
X73045000Y-34045000D03*
D12*
X73045000Y-36585000D03*
X73045000Y-39125000D03*
X73045000Y-41665000D03*
X80665000Y-41665000D03*
X80665000Y-39125000D03*
X80665000Y-36585000D03*
X80665000Y-34045000D03*
%TD*%
M02*
