%TF.GenerationSoftware,KiCad,Pcbnew,9.0.4*%
%TF.CreationDate,2026-06-10T15:27:48+02:00*%
%TF.ProjectId,current_sense,63757272-656e-4745-9f73-656e73652e6b,rev?*%
%TF.SameCoordinates,Original*%
%TF.FileFunction,Soldermask,Bot*%
%TF.FilePolarity,Negative*%
%FSLAX46Y46*%
G04 Gerber Fmt 4.6, Leading zero omitted, Abs format (unit mm)*
G04 Created by KiCad (PCBNEW 9.0.4) date 2026-06-10 15:27:48*
%MOMM*%
%LPD*%
G01*
G04 APERTURE LIST*
G04 Aperture macros list*
%AMRoundRect*
0 Rectangle with rounded corners*
0 $1 Rounding radius*
0 $2 $3 $4 $5 $6 $7 $8 $9 X,Y pos of 4 corners*
0 Add a 4 corners polygon primitive as box body*
4,1,4,$2,$3,$4,$5,$6,$7,$8,$9,$2,$3,0*
0 Add four circle primitives for the rounded corners*
1,1,$1+$1,$2,$3*
1,1,$1+$1,$4,$5*
1,1,$1+$1,$6,$7*
1,1,$1+$1,$8,$9*
0 Add four rect primitives between the rounded corners*
20,1,$1+$1,$2,$3,$4,$5,0*
20,1,$1+$1,$4,$5,$6,$7,0*
20,1,$1+$1,$6,$7,$8,$9,0*
20,1,$1+$1,$8,$9,$2,$3,0*%
G04 Aperture macros list end*
%ADD10C,1.600000*%
%ADD11R,3.000000X3.000000*%
%ADD12C,3.000000*%
%ADD13RoundRect,0.250000X-0.950000X-0.550000X0.950000X-0.550000X0.950000X0.550000X-0.950000X0.550000X0*%
%ADD14O,2.400000X1.600000*%
%ADD15R,1.700000X1.700000*%
%ADD16C,1.700000*%
G04 APERTURE END LIST*
D10*
%TO.C,C2*%
X87500000Y-54000000D03*
X92500000Y-54000000D03*
%TD*%
%TO.C,R33*%
X60190000Y-76000000D03*
X67810000Y-76000000D03*
%TD*%
%TO.C,R23*%
X60190000Y-56000000D03*
X67810000Y-56000000D03*
%TD*%
%TO.C,R32*%
X60190000Y-64000000D03*
X67810000Y-64000000D03*
%TD*%
%TO.C,R13*%
X60190000Y-36000000D03*
X67810000Y-36000000D03*
%TD*%
D11*
%TO.C,J3*%
X37540000Y-70000000D03*
D12*
X32460000Y-70000000D03*
%TD*%
D10*
%TO.C,R22*%
X60190000Y-44000000D03*
X67810000Y-44000000D03*
%TD*%
D13*
%TO.C,U2*%
X74190000Y-58190000D03*
D14*
X74190000Y-60730000D03*
X74190000Y-63270000D03*
X74190000Y-65810000D03*
X81810000Y-65810000D03*
X81810000Y-63270000D03*
X81810000Y-60730000D03*
X81810000Y-58190000D03*
%TD*%
D10*
%TO.C,R12*%
X60190000Y-24000000D03*
X67810000Y-24000000D03*
%TD*%
%TO.C,R31*%
X46190000Y-70000000D03*
X53810000Y-70000000D03*
%TD*%
%TO.C,R21*%
X46190000Y-50000000D03*
X53810000Y-50000000D03*
%TD*%
D15*
%TO.C,J4*%
X109000000Y-44920000D03*
D16*
X109000000Y-47460000D03*
X109000000Y-50000000D03*
X109000000Y-52540000D03*
X109000000Y-55080000D03*
%TD*%
D11*
%TO.C,J2*%
X37540000Y-50000000D03*
D12*
X32460000Y-50000000D03*
%TD*%
D11*
%TO.C,J1*%
X37540000Y-30000000D03*
D12*
X32460000Y-30000000D03*
%TD*%
D13*
%TO.C,U1*%
X74190000Y-34190000D03*
D14*
X74190000Y-36730000D03*
X74190000Y-39270000D03*
X74190000Y-41810000D03*
X81810000Y-41810000D03*
X81810000Y-39270000D03*
X81810000Y-36730000D03*
X81810000Y-34190000D03*
%TD*%
D10*
%TO.C,C1*%
X87500000Y-30000000D03*
X92500000Y-30000000D03*
%TD*%
%TO.C,R11*%
X46190000Y-30000000D03*
X53810000Y-30000000D03*
%TD*%
M02*
