%TF.GenerationSoftware,KiCad,Pcbnew,9.0.6*%
%TF.CreationDate,2026-06-10T01:14:46+02:00*%
%TF.ProjectId,current_sense,63757272-656e-4745-9f73-656e73652e6b,rev?*%
%TF.SameCoordinates,Original*%
%TF.FileFunction,Copper,L2,Bot*%
%TF.FilePolarity,Positive*%
%FSLAX46Y46*%
G04 Gerber Fmt 4.6, Leading zero omitted, Abs format (unit mm)*
G04 Created by KiCad (PCBNEW 9.0.6) date 2026-06-10 01:14:46*
%MOMM*%
%LPD*%
G01*
G04 APERTURE LIST*
G04 Aperture macros list*
%AMRoundRect*
0 Rectangle with rounded corners*
0 $1 Rounding radius*
0 $2 $3 $4 $5 $6 $7 $8 $9 X,Y pos of 4 corners*
0 Add a 4 corners polygon primitive as box body*
4,1,4,$2,$3,$4,$5,$6,$7,$8,$9,$2,$3,0*
0 Add four circle primitives for the rounded corners*
1,1,$1+$1,$2,$3*
1,1,$1+$1,$4,$5*
1,1,$1+$1,$6,$7*
1,1,$1+$1,$8,$9*
0 Add four rect primitives between the rounded corners*
20,1,$1+$1,$2,$3,$4,$5,0*
20,1,$1+$1,$4,$5,$6,$7,0*
20,1,$1+$1,$6,$7,$8,$9,0*
20,1,$1+$1,$8,$9,$2,$3,0*%
G04 Aperture macros list end*
%TA.AperFunction,ComponentPad*%
%ADD10C,1.600000*%
%TD*%
%TA.AperFunction,ComponentPad*%
%ADD11RoundRect,0.250000X-0.950000X-0.550000X0.950000X-0.550000X0.950000X0.550000X-0.950000X0.550000X0*%
%TD*%
%TA.AperFunction,ComponentPad*%
%ADD12O,2.400000X1.600000*%
%TD*%
%TA.AperFunction,ComponentPad*%
%ADD13R,1.700000X1.700000*%
%TD*%
%TA.AperFunction,ComponentPad*%
%ADD14C,1.700000*%
%TD*%
%TA.AperFunction,ComponentPad*%
%ADD15R,3.000000X3.000000*%
%TD*%
%TA.AperFunction,ComponentPad*%
%ADD16C,3.000000*%
%TD*%
%TA.AperFunction,Conductor*%
%ADD17C,1.000000*%
%TD*%
G04 APERTURE END LIST*
D10*
%TO.P,R23,1*%
%TO.N,/FB2*%
X71845000Y-57785000D03*
%TO.P,R23,2*%
%TO.N,/I_SENSE2*%
X79465000Y-57785000D03*
%TD*%
%TO.P,C1,1*%
%TO.N,+5V*%
X91215000Y-37855000D03*
%TO.P,C1,2*%
%TO.N,GND*%
X96215000Y-37855000D03*
%TD*%
D11*
%TO.P,U1,1*%
%TO.N,/I_SENSE1*%
X54475000Y-34045000D03*
D12*
%TO.P,U1,2*%
%TO.N,/FB1*%
X54475000Y-36585000D03*
%TO.P,U1,3*%
%TO.N,/RET1*%
X54475000Y-39125000D03*
%TO.P,U1,4*%
%TO.N,GND*%
X54475000Y-41665000D03*
%TO.P,U1,5*%
%TO.N,/RET2*%
X62095000Y-41665000D03*
%TO.P,U1,6*%
%TO.N,/FB2*%
X62095000Y-39125000D03*
%TO.P,U1,7*%
%TO.N,/I_SENSE2*%
X62095000Y-36585000D03*
%TO.P,U1,8*%
%TO.N,+5V*%
X62095000Y-34045000D03*
%TD*%
D13*
%TO.P,J4,1*%
%TO.N,+5V*%
X138080000Y-46670000D03*
D14*
%TO.P,J4,2*%
%TO.N,/I_SENSE1*%
X138080000Y-49210000D03*
%TO.P,J4,3*%
%TO.N,/I_SENSE2*%
X138080000Y-51750000D03*
%TO.P,J4,4*%
%TO.N,/I_SENSE3*%
X138080000Y-54290000D03*
%TO.P,J4,5*%
%TO.N,GND*%
X138080000Y-56830000D03*
%TD*%
D10*
%TO.P,R13,1*%
%TO.N,/FB1*%
X89615000Y-49735000D03*
%TO.P,R13,2*%
%TO.N,/I_SENSE1*%
X97235000Y-49735000D03*
%TD*%
%TO.P,R31,1*%
%TO.N,/RET3*%
X89615000Y-57785000D03*
%TO.P,R31,2*%
%TO.N,GND*%
X97235000Y-57785000D03*
%TD*%
%TO.P,R22,1*%
%TO.N,/FB2*%
X54075000Y-57785000D03*
%TO.P,R22,2*%
%TO.N,GND*%
X61695000Y-57785000D03*
%TD*%
%TO.P,R21,1*%
%TO.N,/RET2*%
X107385000Y-49735000D03*
%TO.P,R21,2*%
%TO.N,GND*%
X115005000Y-49735000D03*
%TD*%
D15*
%TO.P,J3,1*%
%TO.N,/RET3*%
X37540000Y-51750000D03*
D16*
%TO.P,J3,2*%
%TO.N,GND*%
X32460000Y-51750000D03*
%TD*%
D15*
%TO.P,J1,1*%
%TO.N,/RET1*%
X37540000Y-32000000D03*
D16*
%TO.P,J1,2*%
%TO.N,GND*%
X32460000Y-32000000D03*
%TD*%
D10*
%TO.P,R11,1*%
%TO.N,/RET1*%
X54075000Y-49735000D03*
%TO.P,R11,2*%
%TO.N,GND*%
X61695000Y-49735000D03*
%TD*%
%TO.P,R12,1*%
%TO.N,/FB1*%
X71845000Y-49735000D03*
%TO.P,R12,2*%
%TO.N,GND*%
X79465000Y-49735000D03*
%TD*%
D15*
%TO.P,J2,1*%
%TO.N,/RET2*%
X135540000Y-32000000D03*
D16*
%TO.P,J2,2*%
%TO.N,GND*%
X140620000Y-32000000D03*
%TD*%
D10*
%TO.P,C2,1*%
%TO.N,+5V*%
X106365000Y-37855000D03*
%TO.P,C2,2*%
%TO.N,GND*%
X111365000Y-37855000D03*
%TD*%
%TO.P,R32,1*%
%TO.N,/FB3*%
X107385000Y-57785000D03*
%TO.P,R32,2*%
%TO.N,GND*%
X115005000Y-57785000D03*
%TD*%
%TO.P,R33,1*%
%TO.N,/FB3*%
X54075000Y-65835000D03*
%TO.P,R33,2*%
%TO.N,/I_SENSE3*%
X61695000Y-65835000D03*
%TD*%
D11*
%TO.P,U2,1*%
%TO.N,/I_SENSE3*%
X73045000Y-34045000D03*
D12*
%TO.P,U2,2*%
%TO.N,/FB3*%
X73045000Y-36585000D03*
%TO.P,U2,3*%
%TO.N,/RET3*%
X73045000Y-39125000D03*
%TO.P,U2,4*%
%TO.N,GND*%
X73045000Y-41665000D03*
%TO.P,U2,5*%
X80665000Y-41665000D03*
%TO.P,U2,6*%
%TO.N,/U2B_FB*%
X80665000Y-39125000D03*
%TO.P,U2,7*%
X80665000Y-36585000D03*
%TO.P,U2,8*%
%TO.N,+5V*%
X80665000Y-34045000D03*
%TD*%
D17*
%TO.N,+5V*%
X115180000Y-46670000D02*
X106365000Y-37855000D01*
X87405000Y-34045000D02*
X91215000Y-37855000D01*
X136379200Y-46670000D02*
X115180000Y-46670000D01*
X80665000Y-34045000D02*
X87405000Y-34045000D01*
X66700800Y-31940900D02*
X76059200Y-31940900D01*
X137693900Y-46670000D02*
X138080000Y-46670000D01*
X62095000Y-34045000D02*
X64596700Y-34045000D01*
X80665000Y-34045000D02*
X78163300Y-34045000D01*
X76059200Y-31940900D02*
X78163300Y-34045000D01*
X64596700Y-34045000D02*
X66700800Y-31940900D01*
X137693900Y-46670000D02*
X136379200Y-46670000D01*
%TO.N,/FB1*%
X54475000Y-36585000D02*
X56976700Y-36585000D01*
X73966800Y-47613200D02*
X71845000Y-49735000D01*
X62541500Y-30139200D02*
X91550800Y-30139200D01*
X98339100Y-36927500D02*
X98339100Y-38732400D01*
X56976700Y-36585000D02*
X56976700Y-35704000D01*
X89458300Y-49578300D02*
X89458300Y-47613200D01*
X56976700Y-35704000D02*
X62541500Y-30139200D01*
X89615000Y-49735000D02*
X89458300Y-49578300D01*
X98339100Y-38732400D02*
X89458300Y-47613200D01*
X91550800Y-30139200D02*
X98339100Y-36927500D01*
X89458300Y-47613200D02*
X73966800Y-47613200D01*
%TO.N,/FB2*%
X56223700Y-59933700D02*
X54075000Y-57785000D01*
X71845000Y-57785000D02*
X69696300Y-59933700D01*
X69696300Y-59933700D02*
X56223700Y-59933700D01*
%TO.N,/FB3*%
X70514200Y-36585000D02*
X73045000Y-36585000D01*
X65689500Y-41409700D02*
X70514200Y-36585000D01*
X42079600Y-48914300D02*
X46843300Y-53678000D01*
X29646700Y-52961400D02*
X29646700Y-50600600D01*
X31333000Y-48914300D02*
X42079600Y-48914300D01*
X56207100Y-67967100D02*
X54075000Y-65835000D01*
X63327800Y-53678000D02*
X65689500Y-51316300D01*
X54075000Y-65835000D02*
X42520300Y-65835000D01*
X29646700Y-50600600D02*
X31333000Y-48914300D01*
X42520300Y-65835000D02*
X29646700Y-52961400D01*
X65689500Y-51316300D02*
X65689500Y-41409700D01*
X46843300Y-53678000D02*
X63327800Y-53678000D01*
X107385000Y-57785000D02*
X97202900Y-67967100D01*
X97202900Y-67967100D02*
X56207100Y-67967100D01*
%TO.N,/I_SENSE1*%
X92309000Y-28333700D02*
X60186300Y-28333700D01*
X60186300Y-28333700D02*
X54475000Y-34045000D01*
X100200100Y-46769900D02*
X100200100Y-36224800D01*
X100200100Y-36224800D02*
X92309000Y-28333700D01*
X97235000Y-49735000D02*
X100200100Y-46769900D01*
%TO.N,/I_SENSE3*%
X140238200Y-57733700D02*
X138084900Y-59887000D01*
X104393400Y-55680600D02*
X94239000Y-65835000D01*
X138639100Y-54290000D02*
X140238200Y-55889100D01*
X138080000Y-54290000D02*
X138639100Y-54290000D01*
X138084900Y-59887000D02*
X112525000Y-59887000D01*
X140238200Y-55889100D02*
X140238200Y-57733700D01*
X112525000Y-59887000D02*
X108318600Y-55680600D01*
X94239000Y-65835000D02*
X61695000Y-65835000D01*
X108318600Y-55680600D02*
X104393400Y-55680600D01*
%TO.N,/RET1*%
X51941200Y-47601200D02*
X51941200Y-44566100D01*
X51941200Y-44566100D02*
X51939700Y-44564600D01*
X51939700Y-44564600D02*
X51939700Y-39125000D01*
X51939700Y-39125000D02*
X54475000Y-39125000D01*
X37540000Y-32000000D02*
X40341700Y-32000000D01*
X54075000Y-49735000D02*
X51941200Y-47601200D01*
X40341700Y-32000000D02*
X47466700Y-39125000D01*
X47466700Y-39125000D02*
X51939700Y-39125000D01*
%TO.N,/RET2*%
X62542100Y-51876300D02*
X48367300Y-51876300D01*
X93798400Y-26505800D02*
X104236900Y-36944300D01*
X33944200Y-26505800D02*
X93798400Y-26505800D01*
X104236900Y-36944300D02*
X109181200Y-32000000D01*
X62095000Y-41665000D02*
X63845300Y-43415300D01*
X135540000Y-32000000D02*
X132738300Y-32000000D01*
X48367300Y-51876300D02*
X29647400Y-33156400D01*
X63845300Y-50573100D02*
X62542100Y-51876300D01*
X107385000Y-49735000D02*
X104236900Y-46586900D01*
X29647400Y-30802600D02*
X33944200Y-26505800D01*
X104236900Y-46586900D02*
X104236900Y-36944300D01*
X63845300Y-43415300D02*
X63845300Y-50573100D01*
X29647400Y-33156400D02*
X29647400Y-30802600D01*
X109181200Y-32000000D02*
X132738300Y-32000000D01*
%TO.N,/RET3*%
X74756800Y-55681000D02*
X69715900Y-50640100D01*
X50331300Y-61739600D02*
X40341700Y-51750000D01*
X69715900Y-39952400D02*
X70543300Y-39125000D01*
X87511000Y-55681000D02*
X74756800Y-55681000D01*
X89615000Y-57785000D02*
X87511000Y-55681000D01*
X73045000Y-39125000D02*
X70543300Y-39125000D01*
X37540000Y-51750000D02*
X40341700Y-51750000D01*
X89615000Y-57785000D02*
X85660400Y-61739600D01*
X85660400Y-61739600D02*
X50331300Y-61739600D01*
X69715900Y-50640100D02*
X69715900Y-39952400D01*
%TO.N,GND*%
X138080000Y-56830000D02*
X137125000Y-57785000D01*
X134765000Y-37855000D02*
X111365000Y-37855000D01*
X54475000Y-41665000D02*
X56976700Y-41665000D01*
X97235000Y-52857800D02*
X97235000Y-57785000D01*
X56976700Y-41665000D02*
X56976700Y-45016700D01*
X115005000Y-52857800D02*
X115005000Y-57785000D01*
X115005000Y-52857800D02*
X97235000Y-52857800D01*
X96215000Y-37855000D02*
X92405000Y-41665000D01*
X82587800Y-52857800D02*
X79465000Y-49735000D01*
X92405000Y-41665000D02*
X80665000Y-41665000D01*
X115005000Y-49735000D02*
X115005000Y-52857800D01*
X140620000Y-32000000D02*
X134765000Y-37855000D01*
X56976700Y-45016700D02*
X61695000Y-49735000D01*
X80665000Y-41665000D02*
X73045000Y-41665000D01*
X137125000Y-57785000D02*
X115005000Y-57785000D01*
X97235000Y-52857800D02*
X82587800Y-52857800D01*
%TD*%
%TA.AperFunction,NonConductor*%
G36*
X153442539Y-20520185D02*
G01*
X153488294Y-20572989D01*
X153499500Y-20624500D01*
X153499500Y-77375500D01*
X153479815Y-77442539D01*
X153427011Y-77488294D01*
X153375500Y-77499500D01*
X20624500Y-77499500D01*
X20557461Y-77479815D01*
X20511706Y-77427011D01*
X20500500Y-77375500D01*
X20500500Y-50498247D01*
X28346200Y-50498247D01*
X28346200Y-53063751D01*
X28364249Y-53177711D01*
X28378223Y-53265935D01*
X28386372Y-53291014D01*
X28387652Y-53294954D01*
X28441481Y-53460623D01*
X28481626Y-53539410D01*
X28534413Y-53643011D01*
X28654734Y-53808619D01*
X28654735Y-53808620D01*
X28654736Y-53808621D01*
X41525208Y-66679092D01*
X41525222Y-66679107D01*
X41528333Y-66682218D01*
X41528334Y-66682219D01*
X41673081Y-66826966D01*
X41673084Y-66826968D01*
X41673088Y-66826972D01*
X41823268Y-66936082D01*
X41838690Y-66947287D01*
X41957920Y-67008038D01*
X42021081Y-67040221D01*
X42021084Y-67040222D01*
X42118424Y-67071849D01*
X42215766Y-67103477D01*
X42417948Y-67135500D01*
X42417949Y-67135500D01*
X42622652Y-67135500D01*
X53101762Y-67135500D01*
X53168801Y-67155185D01*
X53174637Y-67159175D01*
X53236155Y-67203870D01*
X53342206Y-67257905D01*
X53460616Y-67318239D01*
X53460618Y-67318239D01*
X53460621Y-67318241D01*
X53589049Y-67359970D01*
X53700214Y-67396090D01*
X53739439Y-67402302D01*
X53775306Y-67407983D01*
X53838441Y-67437912D01*
X53843590Y-67442775D01*
X55212008Y-68811192D01*
X55212022Y-68811207D01*
X55215133Y-68814318D01*
X55215134Y-68814319D01*
X55359881Y-68959066D01*
X55359884Y-68959068D01*
X55359888Y-68959072D01*
X55510068Y-69068182D01*
X55525490Y-69079387D01*
X55612335Y-69123637D01*
X55707881Y-69172321D01*
X55707884Y-69172322D01*
X55805221Y-69203948D01*
X55902566Y-69235577D01*
X56104748Y-69267600D01*
X56104749Y-69267600D01*
X97305251Y-69267600D01*
X97305252Y-69267600D01*
X97507435Y-69235577D01*
X97604776Y-69203948D01*
X97702119Y-69172320D01*
X97793314Y-69125853D01*
X97884511Y-69079387D01*
X98050119Y-68959066D01*
X107616410Y-59392773D01*
X107677731Y-59359290D01*
X107684645Y-59357990D01*
X107759785Y-59346090D01*
X107999379Y-59268241D01*
X108223845Y-59153870D01*
X108427656Y-59005793D01*
X108605793Y-58827656D01*
X108753870Y-58623845D01*
X108868241Y-58399379D01*
X108886629Y-58342786D01*
X108926065Y-58285113D01*
X108990424Y-58257914D01*
X109059270Y-58269828D01*
X109092240Y-58293425D01*
X111677781Y-60878966D01*
X111843389Y-60999287D01*
X111934585Y-61045753D01*
X112025781Y-61092220D01*
X112123123Y-61123848D01*
X112220465Y-61155477D01*
X112422648Y-61187500D01*
X112422649Y-61187500D01*
X138187251Y-61187500D01*
X138187252Y-61187500D01*
X138389435Y-61155477D01*
X138486776Y-61123848D01*
X138584119Y-61092220D01*
X138675314Y-61045753D01*
X138766511Y-60999287D01*
X138932119Y-60878966D01*
X141230166Y-58580919D01*
X141350487Y-58415311D01*
X141438979Y-58241634D01*
X141443420Y-58232919D01*
X141506677Y-58038234D01*
X141507155Y-58035220D01*
X141522417Y-57938858D01*
X141538700Y-57836057D01*
X141538700Y-55786748D01*
X141525219Y-55701634D01*
X141506677Y-55584565D01*
X141443420Y-55389882D01*
X141443420Y-55389881D01*
X141396953Y-55298685D01*
X141350487Y-55207489D01*
X141230166Y-55041881D01*
X139486319Y-53298034D01*
X139320711Y-53177713D01*
X139320710Y-53177712D01*
X139320708Y-53177711D01*
X139299799Y-53167057D01*
X139297891Y-53165671D01*
X139296668Y-53165405D01*
X139268414Y-53144254D01*
X139231841Y-53107681D01*
X139198356Y-53046358D01*
X139203340Y-52976666D01*
X139231841Y-52932319D01*
X139338931Y-52825229D01*
X139491634Y-52615051D01*
X139609579Y-52383572D01*
X139689860Y-52136493D01*
X139712539Y-51993298D01*
X139730500Y-51879902D01*
X139730500Y-51620097D01*
X139700914Y-51433300D01*
X139689860Y-51363507D01*
X139609579Y-51116428D01*
X139609577Y-51116425D01*
X139609577Y-51116423D01*
X139552027Y-51003476D01*
X139491634Y-50884949D01*
X139338931Y-50674771D01*
X139231841Y-50567681D01*
X139198356Y-50506358D01*
X139203340Y-50436666D01*
X139231841Y-50392319D01*
X139285360Y-50338800D01*
X139338931Y-50285229D01*
X139491634Y-50075051D01*
X139609579Y-49843572D01*
X139689860Y-49596493D01*
X139715389Y-49435306D01*
X139730500Y-49339902D01*
X139730500Y-49080097D01*
X139706083Y-48925940D01*
X139689860Y-48823507D01*
X139609579Y-48576428D01*
X139609577Y-48576425D01*
X139609577Y-48576423D01*
X139544355Y-48448419D01*
X139491634Y-48344949D01*
X139446785Y-48283219D01*
X139423306Y-48217416D01*
X139439131Y-48149362D01*
X139459423Y-48122655D01*
X139498401Y-48083677D01*
X139559816Y-48022262D01*
X139655789Y-47869522D01*
X139715368Y-47699255D01*
X139719570Y-47661966D01*
X139730499Y-47564960D01*
X139730500Y-47564956D01*
X139730500Y-45775043D01*
X139730499Y-45775039D01*
X139715369Y-45640750D01*
X139715368Y-45640745D01*
X139655788Y-45470476D01*
X139562013Y-45321235D01*
X139559816Y-45317738D01*
X139432262Y-45190184D01*
X139279523Y-45094211D01*
X139109254Y-45034631D01*
X139109249Y-45034630D01*
X138974960Y-45019500D01*
X138974954Y-45019500D01*
X137185046Y-45019500D01*
X137185039Y-45019500D01*
X137050750Y-45034630D01*
X137050745Y-45034631D01*
X136880476Y-45094211D01*
X136727737Y-45190184D01*
X136600183Y-45317738D01*
X136596135Y-45322815D01*
X136538946Y-45362954D01*
X136499190Y-45369500D01*
X115770046Y-45369500D01*
X115703007Y-45349815D01*
X115682365Y-45333181D01*
X107972775Y-37623590D01*
X107939290Y-37562267D01*
X107937983Y-37555306D01*
X107926090Y-37480214D01*
X107848239Y-37240616D01*
X107768550Y-37084219D01*
X107733870Y-37016155D01*
X107641875Y-36889534D01*
X107585798Y-36812350D01*
X107585794Y-36812345D01*
X107407654Y-36634205D01*
X107407649Y-36634201D01*
X107203848Y-36486132D01*
X107203847Y-36486131D01*
X107203845Y-36486130D01*
X106979379Y-36371759D01*
X106922182Y-36353174D01*
X106864507Y-36313737D01*
X106837309Y-36249379D01*
X106849224Y-36180532D01*
X106872817Y-36147566D01*
X109683566Y-33336819D01*
X109744889Y-33303334D01*
X109771247Y-33300500D01*
X132635948Y-33300500D01*
X133115500Y-33300500D01*
X133182539Y-33320185D01*
X133228294Y-33372989D01*
X133239500Y-33424500D01*
X133239500Y-33544960D01*
X133254630Y-33679249D01*
X133254631Y-33679254D01*
X133314211Y-33849523D01*
X133335677Y-33883685D01*
X133410184Y-34002262D01*
X133537738Y-34129816D01*
X133690478Y-34225789D01*
X133800745Y-34264373D01*
X133860745Y-34285368D01*
X133860750Y-34285369D01*
X133951246Y-34295565D01*
X133995040Y-34300499D01*
X133995043Y-34300500D01*
X133995046Y-34300500D01*
X136180953Y-34300500D01*
X136247992Y-34320185D01*
X136293747Y-34372989D01*
X136303691Y-34442147D01*
X136274666Y-34505703D01*
X136268634Y-34512181D01*
X134262634Y-36518181D01*
X134201311Y-36551666D01*
X134174953Y-36554500D01*
X112338238Y-36554500D01*
X112271199Y-36534815D01*
X112265362Y-36530824D01*
X112203845Y-36486130D01*
X112150674Y-36459038D01*
X111979383Y-36371760D01*
X111739785Y-36293910D01*
X111717239Y-36290339D01*
X111490962Y-36254500D01*
X111239038Y-36254500D01*
X111114626Y-36274205D01*
X110990214Y-36293910D01*
X110750616Y-36371760D01*
X110526151Y-36486132D01*
X110322350Y-36634201D01*
X110322345Y-36634205D01*
X110144205Y-36812345D01*
X110144201Y-36812350D01*
X109996132Y-37016151D01*
X109881760Y-37240616D01*
X109803910Y-37480214D01*
X109781201Y-37623590D01*
X109764500Y-37729038D01*
X109764500Y-37980962D01*
X109780564Y-38082385D01*
X109803910Y-38229785D01*
X109881760Y-38469383D01*
X109996132Y-38693848D01*
X110144201Y-38897649D01*
X110144205Y-38897654D01*
X110322344Y-39075793D01*
X110322350Y-39075798D01*
X110464647Y-39179182D01*
X110526155Y-39223870D01*
X110669184Y-39296747D01*
X110750616Y-39338239D01*
X110750618Y-39338239D01*
X110750621Y-39338241D01*
X110990215Y-39416090D01*
X111239038Y-39455500D01*
X111239039Y-39455500D01*
X111490961Y-39455500D01*
X111490962Y-39455500D01*
X111739785Y-39416090D01*
X111979379Y-39338241D01*
X112203845Y-39223870D01*
X112265353Y-39179181D01*
X112331158Y-39155702D01*
X112338238Y-39155500D01*
X134867351Y-39155500D01*
X134867352Y-39155500D01*
X135069535Y-39123477D01*
X135216290Y-39075793D01*
X135264219Y-39060220D01*
X135355414Y-39013753D01*
X135446611Y-38967287D01*
X135612219Y-38846966D01*
X140151573Y-34307610D01*
X140212894Y-34274127D01*
X140255433Y-34272354D01*
X140451626Y-34298184D01*
X140469201Y-34300498D01*
X140469217Y-34300500D01*
X140469224Y-34300500D01*
X140770776Y-34300500D01*
X140770783Y-34300500D01*
X141069768Y-34261138D01*
X141361058Y-34183087D01*
X141639668Y-34067683D01*
X141900832Y-33916900D01*
X142140080Y-33733319D01*
X142353319Y-33520080D01*
X142536900Y-33280832D01*
X142687683Y-33019668D01*
X142803087Y-32741058D01*
X142881138Y-32449768D01*
X142920500Y-32150783D01*
X142920500Y-31849217D01*
X142881138Y-31550232D01*
X142803087Y-31258942D01*
X142687683Y-30980332D01*
X142634209Y-30887713D01*
X142536900Y-30719168D01*
X142353320Y-30479921D01*
X142353314Y-30479914D01*
X142140085Y-30266685D01*
X142140078Y-30266679D01*
X141900831Y-30083099D01*
X141639671Y-29932318D01*
X141639661Y-29932314D01*
X141361060Y-29816913D01*
X141069766Y-29738861D01*
X140770793Y-29699501D01*
X140770788Y-29699500D01*
X140770783Y-29699500D01*
X140469217Y-29699500D01*
X140469211Y-29699500D01*
X140469206Y-29699501D01*
X140170233Y-29738861D01*
X139878939Y-29816913D01*
X139600338Y-29932314D01*
X139600328Y-29932318D01*
X139339168Y-30083099D01*
X139099921Y-30266679D01*
X139099914Y-30266685D01*
X138886685Y-30479914D01*
X138886679Y-30479921D01*
X138703099Y-30719168D01*
X138552318Y-30980328D01*
X138552314Y-30980338D01*
X138436913Y-31258939D01*
X138358861Y-31550233D01*
X138319501Y-31849206D01*
X138319500Y-31849223D01*
X138319500Y-32150776D01*
X138319501Y-32150793D01*
X138347644Y-32364561D01*
X138336878Y-32433596D01*
X138312386Y-32468427D01*
X138052181Y-32728633D01*
X137990858Y-32762118D01*
X137921167Y-32757134D01*
X137865233Y-32715263D01*
X137840816Y-32649798D01*
X137840500Y-32640952D01*
X137840500Y-30455043D01*
X137840499Y-30455039D01*
X137825369Y-30320750D01*
X137825368Y-30320745D01*
X137819292Y-30303381D01*
X137765789Y-30150478D01*
X137669816Y-29997738D01*
X137542262Y-29870184D01*
X137503584Y-29845881D01*
X137389523Y-29774211D01*
X137219254Y-29714631D01*
X137219249Y-29714630D01*
X137084960Y-29699500D01*
X137084954Y-29699500D01*
X133995046Y-29699500D01*
X133995039Y-29699500D01*
X133860750Y-29714630D01*
X133860745Y-29714631D01*
X133690476Y-29774211D01*
X133537737Y-29870184D01*
X133410184Y-29997737D01*
X133314211Y-30150476D01*
X133254631Y-30320745D01*
X133254630Y-30320750D01*
X133239500Y-30455039D01*
X133239500Y-30575500D01*
X133219815Y-30642539D01*
X133167011Y-30688294D01*
X133115500Y-30699500D01*
X132840652Y-30699500D01*
X109283552Y-30699500D01*
X109078848Y-30699500D01*
X109011453Y-30710174D01*
X108876663Y-30731523D01*
X108779323Y-30763150D01*
X108779323Y-30763151D01*
X108746012Y-30773974D01*
X108681976Y-30794781D01*
X108615580Y-30828613D01*
X108499588Y-30887713D01*
X108333978Y-31008036D01*
X104324581Y-35017434D01*
X104263258Y-35050919D01*
X104193566Y-35045935D01*
X104149219Y-35017434D01*
X94645621Y-25513836D01*
X94645619Y-25513834D01*
X94480011Y-25393513D01*
X94388814Y-25347046D01*
X94388812Y-25347045D01*
X94297623Y-25300581D01*
X94250915Y-25285404D01*
X94200276Y-25268951D01*
X94176403Y-25261194D01*
X94102935Y-25237322D01*
X93928395Y-25209678D01*
X93900752Y-25205300D01*
X33841848Y-25205300D01*
X33841844Y-25205300D01*
X33760975Y-25218108D01*
X33740757Y-25221311D01*
X33639664Y-25237322D01*
X33542323Y-25268950D01*
X33542323Y-25268951D01*
X33489552Y-25286097D01*
X33444974Y-25300582D01*
X33353784Y-25347045D01*
X33353785Y-25347046D01*
X33262585Y-25393515D01*
X33179785Y-25453672D01*
X33179785Y-25453673D01*
X33096981Y-25513834D01*
X33096979Y-25513836D01*
X33096978Y-25513836D01*
X28655436Y-29955378D01*
X28535116Y-30120984D01*
X28535111Y-30120992D01*
X28520087Y-30150477D01*
X28520088Y-30150478D01*
X28441732Y-30304259D01*
X28440672Y-30308019D01*
X28396577Y-30443732D01*
X28396577Y-30443733D01*
X28378922Y-30498068D01*
X28378922Y-30498069D01*
X28346900Y-30700248D01*
X28346900Y-33258757D01*
X28376144Y-33443392D01*
X28378921Y-33460928D01*
X28378923Y-33460934D01*
X28442180Y-33655619D01*
X28481770Y-33733319D01*
X28535113Y-33838011D01*
X28655434Y-34003619D01*
X28655436Y-34003621D01*
X42053934Y-47402119D01*
X42087419Y-47463442D01*
X42082435Y-47533134D01*
X42040563Y-47589067D01*
X41975099Y-47613484D01*
X41966253Y-47613800D01*
X31230648Y-47613800D01*
X31163254Y-47624474D01*
X31028464Y-47645823D01*
X31028461Y-47645823D01*
X30833782Y-47709079D01*
X30833781Y-47709079D01*
X30742584Y-47755545D01*
X30742585Y-47755546D01*
X30651388Y-47802013D01*
X30485778Y-47922336D01*
X28654736Y-49753378D01*
X28534416Y-49918984D01*
X28534411Y-49918992D01*
X28514286Y-49958488D01*
X28514287Y-49958489D01*
X28441479Y-50101380D01*
X28441478Y-50101383D01*
X28415033Y-50182776D01*
X28378222Y-50296067D01*
X28378222Y-50296068D01*
X28350806Y-50469167D01*
X28346200Y-50498247D01*
X20500500Y-50498247D01*
X20500500Y-20624500D01*
X20520185Y-20557461D01*
X20572989Y-20511706D01*
X20624500Y-20500500D01*
X153375500Y-20500500D01*
X153442539Y-20520185D01*
G37*
%TD.AperFunction*%
%TA.AperFunction,NonConductor*%
G36*
X65130493Y-31459385D02*
G01*
X65176248Y-31512189D01*
X65186192Y-31581347D01*
X65157167Y-31644903D01*
X65151137Y-31651378D01*
X64569696Y-32232819D01*
X64094334Y-32708181D01*
X64033011Y-32741666D01*
X64006653Y-32744500D01*
X63468238Y-32744500D01*
X63401199Y-32724815D01*
X63395362Y-32720824D01*
X63333845Y-32676130D01*
X63109383Y-32561760D01*
X62869785Y-32483910D01*
X62716930Y-32459700D01*
X62620962Y-32444500D01*
X62620961Y-32444500D01*
X62374746Y-32444500D01*
X62307707Y-32424815D01*
X62261952Y-32372011D01*
X62252008Y-32302853D01*
X62281033Y-32239297D01*
X62287065Y-32232819D01*
X63043865Y-31476019D01*
X63105188Y-31442534D01*
X63131546Y-31439700D01*
X65063454Y-31439700D01*
X65130493Y-31459385D01*
G37*
%TD.AperFunction*%
%TA.AperFunction,NonConductor*%
G36*
X60974993Y-29653885D02*
G01*
X61020748Y-29706689D01*
X61030692Y-29775847D01*
X61001667Y-29839403D01*
X60995635Y-29845881D01*
X56687181Y-34154334D01*
X56667744Y-34164946D01*
X56651011Y-34179447D01*
X56637679Y-34181363D01*
X56625858Y-34187819D01*
X56603771Y-34186239D01*
X56581853Y-34189391D01*
X56569601Y-34183795D01*
X56556166Y-34182835D01*
X56538439Y-34169564D01*
X56518297Y-34160366D01*
X56511014Y-34149034D01*
X56500233Y-34140963D01*
X56492495Y-34120217D01*
X56480523Y-34101588D01*
X56477371Y-34079669D01*
X56475816Y-34075499D01*
X56475500Y-34066653D01*
X56475500Y-33935047D01*
X56495185Y-33868008D01*
X56511819Y-33847366D01*
X60688666Y-29670519D01*
X60749989Y-29637034D01*
X60776347Y-29634200D01*
X60907954Y-29634200D01*
X60974993Y-29653885D01*
G37*
%TD.AperFunction*%
%TA.AperFunction,NonConductor*%
G36*
X91027792Y-31459385D02*
G01*
X91048434Y-31476019D01*
X95716839Y-36144424D01*
X95750324Y-36205747D01*
X95745340Y-36275439D01*
X95703468Y-36331372D01*
X95667477Y-36350036D01*
X95600616Y-36371760D01*
X95376151Y-36486132D01*
X95172350Y-36634201D01*
X95172345Y-36634205D01*
X94994205Y-36812345D01*
X94994201Y-36812350D01*
X94846132Y-37016151D01*
X94731760Y-37240618D01*
X94653909Y-37480216D01*
X94642015Y-37555310D01*
X94612085Y-37618444D01*
X94607223Y-37623591D01*
X91902634Y-40328181D01*
X91841311Y-40361666D01*
X91814953Y-40364500D01*
X82386142Y-40364500D01*
X82319103Y-40344815D01*
X82273348Y-40292011D01*
X82263404Y-40222853D01*
X82285824Y-40167615D01*
X82399549Y-40011084D01*
X82433870Y-39963845D01*
X82548241Y-39739379D01*
X82626090Y-39499785D01*
X82665500Y-39250962D01*
X82665500Y-38999038D01*
X82626090Y-38750215D01*
X82548241Y-38510621D01*
X82548239Y-38510618D01*
X82548239Y-38510616D01*
X82506747Y-38429184D01*
X82433870Y-38286155D01*
X82333299Y-38147730D01*
X82285798Y-38082350D01*
X82285794Y-38082345D01*
X82146130Y-37942681D01*
X82112645Y-37881358D01*
X82117629Y-37811666D01*
X82146130Y-37767319D01*
X82184411Y-37729038D01*
X82285793Y-37627656D01*
X82433870Y-37423845D01*
X82548241Y-37199379D01*
X82626090Y-36959785D01*
X82665500Y-36710962D01*
X82665500Y-36459038D01*
X82626090Y-36210215D01*
X82548241Y-35970621D01*
X82548239Y-35970618D01*
X82548239Y-35970616D01*
X82506747Y-35889184D01*
X82433870Y-35746155D01*
X82423227Y-35731506D01*
X82285824Y-35542385D01*
X82262344Y-35476579D01*
X82278170Y-35408525D01*
X82328276Y-35359830D01*
X82386142Y-35345500D01*
X86814953Y-35345500D01*
X86881992Y-35365185D01*
X86902634Y-35381819D01*
X89607223Y-38086407D01*
X89640708Y-38147730D01*
X89642015Y-38154689D01*
X89653909Y-38229782D01*
X89653910Y-38229785D01*
X89672224Y-38286151D01*
X89731760Y-38469381D01*
X89846132Y-38693848D01*
X89994201Y-38897649D01*
X89994205Y-38897654D01*
X90172344Y-39075793D01*
X90172350Y-39075798D01*
X90314647Y-39179182D01*
X90376155Y-39223870D01*
X90519184Y-39296747D01*
X90600616Y-39338239D01*
X90600618Y-39338239D01*
X90600621Y-39338241D01*
X90840215Y-39416090D01*
X91089038Y-39455500D01*
X91089039Y-39455500D01*
X91340961Y-39455500D01*
X91340962Y-39455500D01*
X91589785Y-39416090D01*
X91829379Y-39338241D01*
X92053845Y-39223870D01*
X92257656Y-39075793D01*
X92435793Y-38897656D01*
X92583870Y-38693845D01*
X92698241Y-38469379D01*
X92776090Y-38229785D01*
X92815500Y-37980962D01*
X92815500Y-37729038D01*
X92776090Y-37480215D01*
X92698241Y-37240621D01*
X92698239Y-37240618D01*
X92698239Y-37240616D01*
X92618550Y-37084219D01*
X92583870Y-37016155D01*
X92491875Y-36889534D01*
X92435798Y-36812350D01*
X92435794Y-36812345D01*
X92257654Y-36634205D01*
X92257649Y-36634201D01*
X92053848Y-36486132D01*
X92053847Y-36486131D01*
X92053845Y-36486130D01*
X91829379Y-36371759D01*
X91589785Y-36293910D01*
X91589783Y-36293909D01*
X91514689Y-36282015D01*
X91451554Y-36252085D01*
X91446407Y-36247223D01*
X89858565Y-34659381D01*
X88252219Y-33053034D01*
X88086611Y-32932713D01*
X87971497Y-32874060D01*
X87971494Y-32874058D01*
X87904221Y-32839781D01*
X87904220Y-32839780D01*
X87904219Y-32839780D01*
X87745220Y-32788118D01*
X87745218Y-32788116D01*
X87709536Y-32776523D01*
X87709531Y-32776522D01*
X87568364Y-32754163D01*
X87507352Y-32744500D01*
X87507351Y-32744500D01*
X82038238Y-32744500D01*
X81971199Y-32724815D01*
X81965362Y-32720824D01*
X81903845Y-32676130D01*
X81679383Y-32561760D01*
X81439785Y-32483910D01*
X81286930Y-32459700D01*
X81190962Y-32444500D01*
X80139038Y-32444500D01*
X80043076Y-32459699D01*
X79890214Y-32483910D01*
X79650616Y-32561760D01*
X79426154Y-32676130D01*
X79387801Y-32703995D01*
X79364646Y-32720818D01*
X79298842Y-32744298D01*
X79291762Y-32744500D01*
X78753346Y-32744500D01*
X78686307Y-32724815D01*
X78665665Y-32708181D01*
X77608866Y-31651381D01*
X77575381Y-31590058D01*
X77580365Y-31520366D01*
X77622237Y-31464433D01*
X77687701Y-31440016D01*
X77696547Y-31439700D01*
X90960753Y-31439700D01*
X91027792Y-31459385D01*
G37*
%TD.AperFunction*%
%TA.AperFunction,NonConductor*%
G36*
X75536192Y-33261085D02*
G01*
X75556834Y-33277719D01*
X77168208Y-34889092D01*
X77168222Y-34889107D01*
X77171333Y-34892218D01*
X77171334Y-34892219D01*
X77316081Y-35036966D01*
X77316084Y-35036968D01*
X77316088Y-35036972D01*
X77466268Y-35146082D01*
X77481690Y-35157287D01*
X77600920Y-35218038D01*
X77664081Y-35250221D01*
X77664084Y-35250222D01*
X77746697Y-35277064D01*
X77858766Y-35313477D01*
X78060948Y-35345500D01*
X78060949Y-35345500D01*
X78265652Y-35345500D01*
X78943858Y-35345500D01*
X79010897Y-35365185D01*
X79056652Y-35417989D01*
X79066596Y-35487147D01*
X79044176Y-35542385D01*
X78896132Y-35746151D01*
X78781760Y-35970616D01*
X78703910Y-36210214D01*
X78690942Y-36292090D01*
X78664500Y-36459038D01*
X78664500Y-36710962D01*
X78692783Y-36889534D01*
X78703910Y-36959785D01*
X78781760Y-37199383D01*
X78896132Y-37423848D01*
X79044201Y-37627649D01*
X79044205Y-37627654D01*
X79183870Y-37767319D01*
X79217355Y-37828642D01*
X79212371Y-37898334D01*
X79183870Y-37942681D01*
X79044205Y-38082345D01*
X79044201Y-38082350D01*
X78896132Y-38286151D01*
X78781760Y-38510616D01*
X78703910Y-38750214D01*
X78688586Y-38846966D01*
X78664500Y-38999038D01*
X78664500Y-39250962D01*
X78678324Y-39338241D01*
X78703910Y-39499785D01*
X78781760Y-39739383D01*
X78896132Y-39963848D01*
X79044176Y-40167615D01*
X79067656Y-40233421D01*
X79051830Y-40301475D01*
X79001724Y-40350170D01*
X78943858Y-40364500D01*
X74766142Y-40364500D01*
X74699103Y-40344815D01*
X74653348Y-40292011D01*
X74643404Y-40222853D01*
X74665824Y-40167615D01*
X74779549Y-40011084D01*
X74813870Y-39963845D01*
X74928241Y-39739379D01*
X75006090Y-39499785D01*
X75045500Y-39250962D01*
X75045500Y-38999038D01*
X75006090Y-38750215D01*
X74928241Y-38510621D01*
X74928239Y-38510618D01*
X74928239Y-38510616D01*
X74886747Y-38429184D01*
X74813870Y-38286155D01*
X74713299Y-38147730D01*
X74665798Y-38082350D01*
X74665794Y-38082345D01*
X74526130Y-37942681D01*
X74492645Y-37881358D01*
X74497629Y-37811666D01*
X74526130Y-37767319D01*
X74564411Y-37729038D01*
X74665793Y-37627656D01*
X74813870Y-37423845D01*
X74928241Y-37199379D01*
X75006090Y-36959785D01*
X75045500Y-36710962D01*
X75045500Y-36459038D01*
X75006090Y-36210215D01*
X74928241Y-35970621D01*
X74928239Y-35970618D01*
X74928239Y-35970616D01*
X74886747Y-35889184D01*
X74813870Y-35746155D01*
X74671296Y-35549918D01*
X74647816Y-35484112D01*
X74663641Y-35416058D01*
X74692948Y-35381181D01*
X74741410Y-35341410D01*
X74872685Y-35181450D01*
X74970232Y-34998954D01*
X75030300Y-34800934D01*
X75045500Y-34646608D01*
X75045500Y-33443392D01*
X75039015Y-33377552D01*
X75052034Y-33308908D01*
X75100099Y-33258198D01*
X75162418Y-33241400D01*
X75469153Y-33241400D01*
X75536192Y-33261085D01*
G37*
%TD.AperFunction*%
%TA.AperFunction,NonConductor*%
G36*
X71390897Y-40445185D02*
G01*
X71436652Y-40497989D01*
X71446596Y-40567147D01*
X71424176Y-40622385D01*
X71278604Y-40822748D01*
X71278600Y-40822754D01*
X71276130Y-40826155D01*
X71250593Y-40876273D01*
X71250265Y-40876901D01*
X71226467Y-40901553D01*
X71202910Y-40926497D01*
X71202227Y-40926666D01*
X71201740Y-40927171D01*
X71168382Y-40935047D01*
X71135089Y-40943292D01*
X71134424Y-40943065D01*
X71133740Y-40943227D01*
X71101401Y-40931811D01*
X71068954Y-40920754D01*
X71068516Y-40920203D01*
X71067855Y-40919970D01*
X71046835Y-40892901D01*
X71025503Y-40866039D01*
X71025344Y-40865225D01*
X71025002Y-40864785D01*
X71024785Y-40862365D01*
X71016400Y-40819406D01*
X71016400Y-40549500D01*
X71036085Y-40482461D01*
X71088889Y-40436706D01*
X71140400Y-40425500D01*
X71323858Y-40425500D01*
X71390897Y-40445185D01*
G37*
%TD.AperFunction*%
%TA.AperFunction,NonConductor*%
G36*
X70994621Y-33261085D02*
G01*
X71040376Y-33313889D01*
X71050985Y-33377554D01*
X71044500Y-33443392D01*
X71044500Y-34646604D01*
X71059699Y-34800932D01*
X71119769Y-34998958D01*
X71174872Y-35102047D01*
X71189114Y-35170449D01*
X71164114Y-35235693D01*
X71107809Y-35277064D01*
X71065514Y-35284500D01*
X70616551Y-35284500D01*
X70411848Y-35284500D01*
X70385697Y-35288642D01*
X70209668Y-35316522D01*
X70209667Y-35316522D01*
X70120483Y-35345499D01*
X70120484Y-35345500D01*
X70014976Y-35379781D01*
X69948076Y-35413870D01*
X69832587Y-35472714D01*
X69832584Y-35472716D01*
X69666978Y-35593036D01*
X64697536Y-40562478D01*
X64577216Y-40728084D01*
X64577214Y-40728087D01*
X64540767Y-40799619D01*
X64484281Y-40910476D01*
X64421022Y-41105165D01*
X64389000Y-41307348D01*
X64389000Y-41820453D01*
X64382761Y-41841698D01*
X64381182Y-41863787D01*
X64373109Y-41874570D01*
X64369315Y-41887492D01*
X64352581Y-41901991D01*
X64339310Y-41919720D01*
X64326689Y-41924427D01*
X64316511Y-41933247D01*
X64294593Y-41936398D01*
X64273846Y-41944137D01*
X64260685Y-41941274D01*
X64247353Y-41943191D01*
X64227209Y-41933991D01*
X64205573Y-41929285D01*
X64187847Y-41916016D01*
X64183797Y-41914166D01*
X64177319Y-41908134D01*
X64131819Y-41862634D01*
X64098334Y-41801311D01*
X64095500Y-41774953D01*
X64095500Y-41539038D01*
X64056090Y-41290215D01*
X63978241Y-41050621D01*
X63978239Y-41050618D01*
X63978239Y-41050616D01*
X63923521Y-40943227D01*
X63863870Y-40826155D01*
X63792620Y-40728087D01*
X63715798Y-40622350D01*
X63715794Y-40622345D01*
X63576130Y-40482681D01*
X63542645Y-40421358D01*
X63547629Y-40351666D01*
X63576130Y-40307319D01*
X63591438Y-40292011D01*
X63715793Y-40167656D01*
X63863870Y-39963845D01*
X63978241Y-39739379D01*
X64056090Y-39499785D01*
X64095500Y-39250962D01*
X64095500Y-38999038D01*
X64056090Y-38750215D01*
X63978241Y-38510621D01*
X63978239Y-38510618D01*
X63978239Y-38510616D01*
X63936747Y-38429184D01*
X63863870Y-38286155D01*
X63763299Y-38147730D01*
X63715798Y-38082350D01*
X63715794Y-38082345D01*
X63576130Y-37942681D01*
X63542645Y-37881358D01*
X63547629Y-37811666D01*
X63576130Y-37767319D01*
X63614411Y-37729038D01*
X63715793Y-37627656D01*
X63863870Y-37423845D01*
X63978241Y-37199379D01*
X64056090Y-36959785D01*
X64095500Y-36710962D01*
X64095500Y-36459038D01*
X64056090Y-36210215D01*
X63978241Y-35970621D01*
X63978239Y-35970618D01*
X63978239Y-35970616D01*
X63936747Y-35889184D01*
X63863870Y-35746155D01*
X63853227Y-35731506D01*
X63715824Y-35542385D01*
X63692344Y-35476579D01*
X63708170Y-35408525D01*
X63758276Y-35359830D01*
X63816142Y-35345500D01*
X64699051Y-35345500D01*
X64699052Y-35345500D01*
X64901235Y-35313477D01*
X65047990Y-35265793D01*
X65095919Y-35250220D01*
X65230888Y-35181450D01*
X65278311Y-35157287D01*
X65443919Y-35036966D01*
X67203165Y-33277718D01*
X67264488Y-33244234D01*
X67290846Y-33241400D01*
X70927582Y-33241400D01*
X70994621Y-33261085D01*
G37*
%TD.AperFunction*%
%TA.AperFunction,NonConductor*%
G36*
X71221603Y-42416880D02*
G01*
X71250885Y-42454299D01*
X71276130Y-42503846D01*
X71424201Y-42707649D01*
X71424205Y-42707654D01*
X71602345Y-42885794D01*
X71602350Y-42885798D01*
X71744647Y-42989182D01*
X71806155Y-43033870D01*
X71949184Y-43106747D01*
X72030616Y-43148239D01*
X72030618Y-43148239D01*
X72030621Y-43148241D01*
X72270215Y-43226090D01*
X72519038Y-43265500D01*
X72519039Y-43265500D01*
X73570961Y-43265500D01*
X73570962Y-43265500D01*
X73819785Y-43226090D01*
X74059379Y-43148241D01*
X74283845Y-43033870D01*
X74345353Y-42989181D01*
X74411158Y-42965702D01*
X74418238Y-42965500D01*
X79291762Y-42965500D01*
X79358801Y-42985185D01*
X79364637Y-42989175D01*
X79426155Y-43033870D01*
X79463800Y-43053051D01*
X79650616Y-43148239D01*
X79650618Y-43148239D01*
X79650621Y-43148241D01*
X79890215Y-43226090D01*
X80139038Y-43265500D01*
X80139039Y-43265500D01*
X81190961Y-43265500D01*
X81190962Y-43265500D01*
X81439785Y-43226090D01*
X81679379Y-43148241D01*
X81903845Y-43033870D01*
X81965353Y-42989181D01*
X82031158Y-42965702D01*
X82038238Y-42965500D01*
X91967453Y-42965500D01*
X92034492Y-42985185D01*
X92080247Y-43037989D01*
X92090191Y-43107147D01*
X92061166Y-43170703D01*
X92055134Y-43177181D01*
X88955934Y-46276381D01*
X88894611Y-46309866D01*
X88868253Y-46312700D01*
X73864448Y-46312700D01*
X73797054Y-46323374D01*
X73662264Y-46344723D01*
X73662261Y-46344723D01*
X73467582Y-46407979D01*
X73467581Y-46407979D01*
X73376384Y-46454445D01*
X73376385Y-46454446D01*
X73285188Y-46500913D01*
X73119578Y-46621236D01*
X71613590Y-48127223D01*
X71552267Y-48160708D01*
X71545309Y-48162015D01*
X71470217Y-48173909D01*
X71230617Y-48251760D01*
X71196693Y-48269045D01*
X71128023Y-48281940D01*
X71063283Y-48255662D01*
X71023027Y-48198555D01*
X71016400Y-48158559D01*
X71016400Y-42510593D01*
X71036085Y-42443554D01*
X71088889Y-42397799D01*
X71158047Y-42387855D01*
X71221603Y-42416880D01*
G37*
%TD.AperFunction*%
%TA.AperFunction,NonConductor*%
G36*
X60081245Y-34506535D02*
G01*
X60113551Y-34508846D01*
X60115754Y-34510495D01*
X60118487Y-34510809D01*
X60143561Y-34531312D01*
X60169484Y-34550718D01*
X60171096Y-34553826D01*
X60172576Y-34555037D01*
X60188146Y-34586706D01*
X60211759Y-34659379D01*
X60211760Y-34659381D01*
X60326132Y-34883848D01*
X60474201Y-35087649D01*
X60474205Y-35087654D01*
X60613870Y-35227319D01*
X60647355Y-35288642D01*
X60642371Y-35358334D01*
X60613870Y-35402681D01*
X60474205Y-35542345D01*
X60474201Y-35542350D01*
X60326132Y-35746151D01*
X60211760Y-35970616D01*
X60133910Y-36210214D01*
X60120942Y-36292090D01*
X60094500Y-36459038D01*
X60094500Y-36710962D01*
X60122783Y-36889534D01*
X60133910Y-36959785D01*
X60211760Y-37199383D01*
X60326132Y-37423848D01*
X60474201Y-37627649D01*
X60474205Y-37627654D01*
X60613870Y-37767319D01*
X60647355Y-37828642D01*
X60642371Y-37898334D01*
X60613870Y-37942681D01*
X60474205Y-38082345D01*
X60474201Y-38082350D01*
X60326132Y-38286151D01*
X60211760Y-38510616D01*
X60133910Y-38750214D01*
X60118586Y-38846966D01*
X60094500Y-38999038D01*
X60094500Y-39250962D01*
X60108324Y-39338241D01*
X60133910Y-39499785D01*
X60211760Y-39739383D01*
X60326132Y-39963848D01*
X60474201Y-40167649D01*
X60474205Y-40167654D01*
X60613870Y-40307319D01*
X60647355Y-40368642D01*
X60642371Y-40438334D01*
X60613870Y-40482681D01*
X60474205Y-40622345D01*
X60474201Y-40622350D01*
X60326132Y-40826151D01*
X60211760Y-41050616D01*
X60174341Y-41165781D01*
X60133910Y-41290215D01*
X60094500Y-41539038D01*
X60094500Y-41790962D01*
X60107742Y-41874570D01*
X60133910Y-42039785D01*
X60211760Y-42279383D01*
X60326132Y-42503848D01*
X60474201Y-42707649D01*
X60474205Y-42707654D01*
X60652345Y-42885794D01*
X60652350Y-42885798D01*
X60794647Y-42989182D01*
X60856155Y-43033870D01*
X60999184Y-43106747D01*
X61080616Y-43148239D01*
X61080618Y-43148239D01*
X61080621Y-43148241D01*
X61320215Y-43226090D01*
X61569038Y-43265500D01*
X61804953Y-43265500D01*
X61871992Y-43285185D01*
X61892634Y-43301819D01*
X62508481Y-43917666D01*
X62541966Y-43978989D01*
X62544800Y-44005347D01*
X62544800Y-48169362D01*
X62525115Y-48236401D01*
X62472311Y-48282156D01*
X62403153Y-48292100D01*
X62364505Y-48279847D01*
X62309381Y-48251760D01*
X62309380Y-48251759D01*
X62309379Y-48251759D01*
X62069785Y-48173910D01*
X62069783Y-48173909D01*
X61994689Y-48162015D01*
X61931554Y-48132085D01*
X61926407Y-48127223D01*
X58313519Y-44514334D01*
X58280034Y-44453011D01*
X58277200Y-44426653D01*
X58277200Y-41562648D01*
X58245177Y-41360465D01*
X58181918Y-41165776D01*
X58123240Y-41050616D01*
X58088987Y-40983390D01*
X58081256Y-40972749D01*
X57968671Y-40817786D01*
X57823913Y-40673028D01*
X57658313Y-40552715D01*
X57658312Y-40552714D01*
X57658310Y-40552713D01*
X57599966Y-40522985D01*
X57475923Y-40459781D01*
X57281234Y-40396522D01*
X57105203Y-40368642D01*
X57079052Y-40364500D01*
X57079051Y-40364500D01*
X56196142Y-40364500D01*
X56129103Y-40344815D01*
X56083348Y-40292011D01*
X56073404Y-40222853D01*
X56095824Y-40167615D01*
X56209549Y-40011084D01*
X56243870Y-39963845D01*
X56358241Y-39739379D01*
X56436090Y-39499785D01*
X56475500Y-39250962D01*
X56475500Y-38999038D01*
X56436090Y-38750215D01*
X56358241Y-38510621D01*
X56358239Y-38510618D01*
X56358239Y-38510616D01*
X56316747Y-38429184D01*
X56243870Y-38286155D01*
X56143299Y-38147730D01*
X56095824Y-38082385D01*
X56072344Y-38016579D01*
X56088170Y-37948525D01*
X56138276Y-37899830D01*
X56196142Y-37885500D01*
X57079051Y-37885500D01*
X57079052Y-37885500D01*
X57281234Y-37853477D01*
X57475919Y-37790220D01*
X57658310Y-37697287D01*
X57798957Y-37595102D01*
X57823913Y-37576971D01*
X57823915Y-37576968D01*
X57823919Y-37576966D01*
X57968666Y-37432219D01*
X57968668Y-37432215D01*
X57968671Y-37432213D01*
X58021432Y-37359590D01*
X58088987Y-37266610D01*
X58181920Y-37084219D01*
X58245177Y-36889534D01*
X58277200Y-36687352D01*
X58277200Y-36294046D01*
X58296885Y-36227007D01*
X58313519Y-36206365D01*
X59140104Y-35379780D01*
X59982538Y-34537345D01*
X59984951Y-34536028D01*
X59986372Y-34533672D01*
X60015435Y-34519382D01*
X60043859Y-34503862D01*
X60046603Y-34504058D01*
X60049073Y-34502844D01*
X60081245Y-34506535D01*
G37*
%TD.AperFunction*%
%TA.AperFunction,NonConductor*%
G36*
X53420492Y-43127794D02*
G01*
X53460621Y-43148241D01*
X53700215Y-43226090D01*
X53949038Y-43265500D01*
X53949039Y-43265500D01*
X55000961Y-43265500D01*
X55000962Y-43265500D01*
X55249785Y-43226090D01*
X55489379Y-43148241D01*
X55495899Y-43144918D01*
X55564565Y-43132018D01*
X55629308Y-43158290D01*
X55669569Y-43215393D01*
X55676200Y-43255400D01*
X55676200Y-45119051D01*
X55708222Y-45321231D01*
X55708223Y-45321236D01*
X55727862Y-45381680D01*
X55727863Y-45381680D01*
X55771481Y-45515923D01*
X55811740Y-45594934D01*
X55864413Y-45698311D01*
X55984734Y-45863919D01*
X58043151Y-47922336D01*
X60087223Y-49966407D01*
X60120708Y-50027730D01*
X60122015Y-50034689D01*
X60133909Y-50109782D01*
X60133910Y-50109785D01*
X60190915Y-50285229D01*
X60211761Y-50349384D01*
X60235261Y-50395506D01*
X60248157Y-50464175D01*
X60221880Y-50528915D01*
X60164774Y-50569172D01*
X60124776Y-50575800D01*
X55645224Y-50575800D01*
X55578185Y-50556115D01*
X55532430Y-50503311D01*
X55522486Y-50434153D01*
X55534739Y-50395506D01*
X55558238Y-50349386D01*
X55558240Y-50349381D01*
X55558241Y-50349379D01*
X55636090Y-50109785D01*
X55675500Y-49860962D01*
X55675500Y-49609038D01*
X55636090Y-49360215D01*
X55558241Y-49120621D01*
X55558239Y-49120618D01*
X55558239Y-49120616D01*
X55498190Y-49002765D01*
X55443870Y-48896155D01*
X55391088Y-48823506D01*
X55295798Y-48692350D01*
X55295794Y-48692345D01*
X55117654Y-48514205D01*
X55117649Y-48514201D01*
X54913848Y-48366132D01*
X54913847Y-48366131D01*
X54913845Y-48366130D01*
X54689379Y-48251759D01*
X54540072Y-48203246D01*
X54449783Y-48173909D01*
X54374689Y-48162015D01*
X54311555Y-48132085D01*
X54306408Y-48127223D01*
X53278019Y-47098834D01*
X53244534Y-47037511D01*
X53241700Y-47011153D01*
X53241700Y-44463742D01*
X53241318Y-44458886D01*
X53241330Y-44458884D01*
X53240200Y-44444517D01*
X53240200Y-43238280D01*
X53259885Y-43171241D01*
X53312689Y-43125486D01*
X53381847Y-43115542D01*
X53420492Y-43127794D01*
G37*
%TD.AperFunction*%
%TA.AperFunction,NonConductor*%
G36*
X58642192Y-27825985D02*
G01*
X58687947Y-27878789D01*
X58697891Y-27947947D01*
X58668866Y-28011503D01*
X58662834Y-28017981D01*
X54272634Y-32408181D01*
X54211311Y-32441666D01*
X54184953Y-32444500D01*
X53473392Y-32444500D01*
X53435298Y-32448251D01*
X53319067Y-32459699D01*
X53121043Y-32519769D01*
X53042487Y-32561759D01*
X52938550Y-32617315D01*
X52938548Y-32617316D01*
X52938547Y-32617317D01*
X52778589Y-32748589D01*
X52647317Y-32908547D01*
X52647315Y-32908550D01*
X52634399Y-32932714D01*
X52549769Y-33091043D01*
X52489699Y-33289067D01*
X52474500Y-33443392D01*
X52474500Y-34646604D01*
X52489699Y-34800932D01*
X52489700Y-34800934D01*
X52549768Y-34998954D01*
X52647315Y-35181450D01*
X52735285Y-35288642D01*
X52778590Y-35341410D01*
X52827049Y-35381180D01*
X52866383Y-35438926D01*
X52868254Y-35508770D01*
X52848703Y-35549918D01*
X52706129Y-35746155D01*
X52591760Y-35970616D01*
X52513910Y-36210214D01*
X52500942Y-36292090D01*
X52474500Y-36459038D01*
X52474500Y-36710962D01*
X52502783Y-36889534D01*
X52513910Y-36959785D01*
X52591760Y-37199383D01*
X52706132Y-37423848D01*
X52854176Y-37627615D01*
X52877656Y-37693421D01*
X52861830Y-37761475D01*
X52811724Y-37810170D01*
X52753858Y-37824500D01*
X48056746Y-37824500D01*
X47989707Y-37804815D01*
X47969065Y-37788181D01*
X44595545Y-34414661D01*
X41188919Y-31008034D01*
X41023311Y-30887713D01*
X40907320Y-30828613D01*
X40840923Y-30794781D01*
X40794215Y-30779604D01*
X40743576Y-30763151D01*
X40719703Y-30755394D01*
X40646235Y-30731522D01*
X40471695Y-30703878D01*
X40444052Y-30699500D01*
X40444051Y-30699500D01*
X39964500Y-30699500D01*
X39897461Y-30679815D01*
X39851706Y-30627011D01*
X39840500Y-30575500D01*
X39840500Y-30455043D01*
X39840499Y-30455039D01*
X39825369Y-30320750D01*
X39825368Y-30320745D01*
X39819292Y-30303381D01*
X39765789Y-30150478D01*
X39669816Y-29997738D01*
X39542262Y-29870184D01*
X39503584Y-29845881D01*
X39389523Y-29774211D01*
X39219254Y-29714631D01*
X39219249Y-29714630D01*
X39084960Y-29699500D01*
X39084954Y-29699500D01*
X35995046Y-29699500D01*
X35995039Y-29699500D01*
X35860750Y-29714630D01*
X35860745Y-29714631D01*
X35690476Y-29774211D01*
X35537737Y-29870184D01*
X35410184Y-29997737D01*
X35314211Y-30150476D01*
X35254631Y-30320745D01*
X35254630Y-30320750D01*
X35239500Y-30455039D01*
X35239500Y-33544960D01*
X35254630Y-33679249D01*
X35254631Y-33679254D01*
X35314211Y-33849523D01*
X35335677Y-33883685D01*
X35410184Y-34002262D01*
X35537738Y-34129816D01*
X35690478Y-34225789D01*
X35800745Y-34264373D01*
X35860745Y-34285368D01*
X35860750Y-34285369D01*
X35951246Y-34295565D01*
X35995040Y-34300499D01*
X35995043Y-34300500D01*
X35995046Y-34300500D01*
X39084957Y-34300500D01*
X39084958Y-34300499D01*
X39152104Y-34292934D01*
X39219249Y-34285369D01*
X39219252Y-34285368D01*
X39219255Y-34285368D01*
X39389522Y-34225789D01*
X39542262Y-34129816D01*
X39669816Y-34002262D01*
X39765789Y-33849522D01*
X39825368Y-33679255D01*
X39832629Y-33614813D01*
X39859695Y-33550398D01*
X39917289Y-33510843D01*
X39987126Y-33508704D01*
X40043530Y-33541014D01*
X46471608Y-39969092D01*
X46471622Y-39969107D01*
X46474733Y-39972218D01*
X46474734Y-39972219D01*
X46619481Y-40116966D01*
X46619484Y-40116968D01*
X46619485Y-40116969D01*
X46708657Y-40181756D01*
X46708659Y-40181757D01*
X46708662Y-40181759D01*
X46785090Y-40237287D01*
X46874547Y-40282867D01*
X46967481Y-40330221D01*
X46967484Y-40330222D01*
X47064261Y-40361666D01*
X47162166Y-40393477D01*
X47364348Y-40425500D01*
X47364349Y-40425500D01*
X47569052Y-40425500D01*
X50515200Y-40425500D01*
X50582239Y-40445185D01*
X50627994Y-40497989D01*
X50639200Y-40549500D01*
X50639200Y-44666953D01*
X50639582Y-44671805D01*
X50639568Y-44671806D01*
X50640700Y-44686179D01*
X50640700Y-47498848D01*
X50640700Y-47703552D01*
X50641576Y-47709080D01*
X50672722Y-47905731D01*
X50672722Y-47905732D01*
X50672723Y-47905735D01*
X50687453Y-47951069D01*
X50735980Y-48100419D01*
X50761149Y-48149816D01*
X50828913Y-48282811D01*
X50949234Y-48448419D01*
X50949236Y-48448421D01*
X52467223Y-49966408D01*
X52500708Y-50027731D01*
X52502015Y-50034689D01*
X52513909Y-50109783D01*
X52548108Y-50215035D01*
X52570915Y-50285229D01*
X52591761Y-50349384D01*
X52615261Y-50395506D01*
X52628157Y-50464175D01*
X52601880Y-50528915D01*
X52544774Y-50569172D01*
X52504776Y-50575800D01*
X48957347Y-50575800D01*
X48890308Y-50556115D01*
X48869666Y-50539481D01*
X32806169Y-34475984D01*
X32772684Y-34414661D01*
X32777668Y-34344969D01*
X32819540Y-34289036D01*
X32877665Y-34265364D01*
X32909768Y-34261138D01*
X33201058Y-34183087D01*
X33479668Y-34067683D01*
X33740832Y-33916900D01*
X33980080Y-33733319D01*
X34193319Y-33520080D01*
X34376900Y-33280832D01*
X34527683Y-33019668D01*
X34643087Y-32741058D01*
X34721138Y-32449768D01*
X34760500Y-32150783D01*
X34760500Y-31849217D01*
X34721138Y-31550232D01*
X34643087Y-31258942D01*
X34527683Y-30980332D01*
X34474209Y-30887713D01*
X34376900Y-30719168D01*
X34193320Y-30479921D01*
X34193314Y-30479914D01*
X33980085Y-30266685D01*
X33980078Y-30266679D01*
X33740831Y-30083099D01*
X33479671Y-29932318D01*
X33479661Y-29932314D01*
X33201060Y-29816913D01*
X33006864Y-29764879D01*
X32909768Y-29738862D01*
X32896654Y-29737135D01*
X32841433Y-29729865D01*
X32777537Y-29701598D01*
X32739067Y-29643273D01*
X32738236Y-29573408D01*
X32769937Y-29519247D01*
X34446565Y-27842618D01*
X34507888Y-27809134D01*
X34534246Y-27806300D01*
X58575153Y-27806300D01*
X58642192Y-27825985D01*
G37*
%TD.AperFunction*%
%TA.AperFunction,NonConductor*%
G36*
X105717696Y-39321465D02*
G01*
X105750614Y-39338238D01*
X105750617Y-39338238D01*
X105750621Y-39338241D01*
X105916103Y-39392009D01*
X105990214Y-39416090D01*
X106029439Y-39422302D01*
X106065306Y-39427983D01*
X106128441Y-39457912D01*
X106133590Y-39462775D01*
X114184908Y-47514092D01*
X114184922Y-47514107D01*
X114188033Y-47517218D01*
X114188034Y-47517219D01*
X114332781Y-47661966D01*
X114332784Y-47661968D01*
X114332787Y-47661971D01*
X114406966Y-47715864D01*
X114470283Y-47761866D01*
X114498390Y-47782287D01*
X114617620Y-47843038D01*
X114680781Y-47875221D01*
X114680784Y-47875222D01*
X114791007Y-47911035D01*
X114848682Y-47950472D01*
X114875881Y-48014830D01*
X114863967Y-48083677D01*
X114816723Y-48135153D01*
X114772087Y-48151439D01*
X114630214Y-48173909D01*
X114390616Y-48251760D01*
X114166151Y-48366132D01*
X113962350Y-48514201D01*
X113962345Y-48514205D01*
X113784205Y-48692345D01*
X113784201Y-48692350D01*
X113636132Y-48896151D01*
X113521760Y-49120616D01*
X113443910Y-49360214D01*
X113404500Y-49609038D01*
X113404500Y-49860961D01*
X113443910Y-50109785D01*
X113521760Y-50349383D01*
X113636130Y-50573846D01*
X113637550Y-50575800D01*
X113680817Y-50635352D01*
X113704298Y-50701156D01*
X113704500Y-50708237D01*
X113704500Y-51433300D01*
X113684815Y-51500339D01*
X113632011Y-51546094D01*
X113580500Y-51557300D01*
X107686138Y-51557300D01*
X107619099Y-51537615D01*
X107573344Y-51484811D01*
X107563400Y-51415653D01*
X107592425Y-51352097D01*
X107651203Y-51314323D01*
X107666740Y-51310827D01*
X107670111Y-51310293D01*
X107759785Y-51296090D01*
X107999379Y-51218241D01*
X108223845Y-51103870D01*
X108427656Y-50955793D01*
X108605793Y-50777656D01*
X108753870Y-50573845D01*
X108868241Y-50349379D01*
X108946090Y-50109785D01*
X108985500Y-49860962D01*
X108985500Y-49609038D01*
X108946090Y-49360215D01*
X108868241Y-49120621D01*
X108868239Y-49120618D01*
X108868239Y-49120616D01*
X108808190Y-49002765D01*
X108753870Y-48896155D01*
X108701088Y-48823506D01*
X108605798Y-48692350D01*
X108605794Y-48692345D01*
X108427654Y-48514205D01*
X108427649Y-48514201D01*
X108223848Y-48366132D01*
X108223847Y-48366131D01*
X108223845Y-48366130D01*
X107999379Y-48251759D01*
X107759785Y-48173910D01*
X107759783Y-48173909D01*
X107684689Y-48162015D01*
X107621554Y-48132085D01*
X107616407Y-48127223D01*
X105573719Y-46084534D01*
X105540234Y-46023211D01*
X105537400Y-45996853D01*
X105537400Y-39431949D01*
X105557085Y-39364910D01*
X105609889Y-39319155D01*
X105679047Y-39309211D01*
X105717696Y-39321465D01*
G37*
%TD.AperFunction*%
%TA.AperFunction,NonConductor*%
G36*
X101705803Y-36252834D02*
G01*
X101712281Y-36258866D01*
X102900081Y-37446666D01*
X102933566Y-37507989D01*
X102936400Y-37534347D01*
X102936400Y-46689251D01*
X102968422Y-46891434D01*
X103031683Y-47086128D01*
X103045876Y-47113982D01*
X103045877Y-47113982D01*
X103124613Y-47268511D01*
X103244934Y-47434119D01*
X103244935Y-47434120D01*
X103244936Y-47434121D01*
X105777223Y-49966407D01*
X105810708Y-50027730D01*
X105812015Y-50034689D01*
X105823909Y-50109782D01*
X105823910Y-50109785D01*
X105901759Y-50349379D01*
X106012989Y-50567681D01*
X106016132Y-50573848D01*
X106164201Y-50777649D01*
X106164205Y-50777654D01*
X106342345Y-50955794D01*
X106342350Y-50955798D01*
X106520117Y-51084952D01*
X106546155Y-51103870D01*
X106615736Y-51139323D01*
X106770616Y-51218239D01*
X106770618Y-51218239D01*
X106770621Y-51218241D01*
X107010215Y-51296090D01*
X107099889Y-51310293D01*
X107103260Y-51310827D01*
X107166395Y-51340756D01*
X107203326Y-51400068D01*
X107202328Y-51469930D01*
X107163718Y-51528163D01*
X107099755Y-51556277D01*
X107083862Y-51557300D01*
X97536138Y-51557300D01*
X97469099Y-51537615D01*
X97423344Y-51484811D01*
X97413400Y-51415653D01*
X97442425Y-51352097D01*
X97501203Y-51314323D01*
X97516740Y-51310827D01*
X97520111Y-51310293D01*
X97609785Y-51296090D01*
X97849379Y-51218241D01*
X98073845Y-51103870D01*
X98277656Y-50955793D01*
X98455793Y-50777656D01*
X98603870Y-50573845D01*
X98718241Y-50349379D01*
X98796090Y-50109785D01*
X98807984Y-50034687D01*
X98837911Y-49971557D01*
X98842758Y-49966425D01*
X101040250Y-47768932D01*
X101040257Y-47768927D01*
X101047317Y-47761867D01*
X101047319Y-47761866D01*
X101192066Y-47617119D01*
X101192068Y-47617115D01*
X101192071Y-47617113D01*
X101277994Y-47498848D01*
X101312387Y-47451510D01*
X101385170Y-47308666D01*
X101405321Y-47269118D01*
X101468577Y-47074434D01*
X101500600Y-46872251D01*
X101500600Y-46667548D01*
X101500600Y-36346547D01*
X101520285Y-36279508D01*
X101573089Y-36233753D01*
X101642247Y-36223809D01*
X101705803Y-36252834D01*
G37*
%TD.AperFunction*%
%TA.AperFunction,NonConductor*%
G36*
X98818934Y-40194264D02*
G01*
X98874867Y-40236136D01*
X98899284Y-40301600D01*
X98899600Y-40310446D01*
X98899600Y-46179852D01*
X98879915Y-46246891D01*
X98863281Y-46267533D01*
X97003590Y-48127223D01*
X96942267Y-48160708D01*
X96935309Y-48162015D01*
X96860217Y-48173909D01*
X96620618Y-48251760D01*
X96396151Y-48366132D01*
X96192350Y-48514201D01*
X96192345Y-48514205D01*
X96014205Y-48692345D01*
X96014201Y-48692350D01*
X95866132Y-48896151D01*
X95751760Y-49120616D01*
X95673910Y-49360214D01*
X95634500Y-49609038D01*
X95634500Y-49860961D01*
X95673910Y-50109785D01*
X95751760Y-50349383D01*
X95827611Y-50498247D01*
X95862989Y-50567681D01*
X95866132Y-50573848D01*
X96014201Y-50777649D01*
X96014205Y-50777654D01*
X96192345Y-50955794D01*
X96192350Y-50955798D01*
X96370117Y-51084952D01*
X96396155Y-51103870D01*
X96465736Y-51139323D01*
X96620616Y-51218239D01*
X96620618Y-51218239D01*
X96620621Y-51218241D01*
X96860215Y-51296090D01*
X96949889Y-51310293D01*
X96953260Y-51310827D01*
X97016395Y-51340756D01*
X97053326Y-51400068D01*
X97052328Y-51469930D01*
X97013718Y-51528163D01*
X96949755Y-51556277D01*
X96933862Y-51557300D01*
X89916138Y-51557300D01*
X89849099Y-51537615D01*
X89803344Y-51484811D01*
X89793400Y-51415653D01*
X89822425Y-51352097D01*
X89881203Y-51314323D01*
X89896740Y-51310827D01*
X89900111Y-51310293D01*
X89989785Y-51296090D01*
X90229379Y-51218241D01*
X90453845Y-51103870D01*
X90657656Y-50955793D01*
X90835793Y-50777656D01*
X90983870Y-50573845D01*
X91098241Y-50349379D01*
X91176090Y-50109785D01*
X91215500Y-49860962D01*
X91215500Y-49609038D01*
X91176090Y-49360215D01*
X91098241Y-49120621D01*
X91098239Y-49120618D01*
X91098239Y-49120616D01*
X91038190Y-49002765D01*
X90983870Y-48896155D01*
X90931088Y-48823506D01*
X90835798Y-48692350D01*
X90835794Y-48692345D01*
X90795119Y-48651670D01*
X90761634Y-48590347D01*
X90758800Y-48563989D01*
X90758800Y-48203246D01*
X90778485Y-48136207D01*
X90795119Y-48115565D01*
X98687919Y-40222765D01*
X98749242Y-40189280D01*
X98818934Y-40194264D01*
G37*
%TD.AperFunction*%
%TA.AperFunction,NonConductor*%
G36*
X88042485Y-48916250D02*
G01*
X88051447Y-48914962D01*
X88075487Y-48925940D01*
X88100839Y-48933385D01*
X88106766Y-48940225D01*
X88115003Y-48943987D01*
X88129292Y-48966221D01*
X88146594Y-48986189D01*
X88148881Y-48996703D01*
X88152777Y-49002765D01*
X88157800Y-49037700D01*
X88157800Y-49039742D01*
X88144286Y-49096035D01*
X88131756Y-49120626D01*
X88053910Y-49360210D01*
X88053910Y-49360213D01*
X88014500Y-49609038D01*
X88014500Y-49860961D01*
X88053910Y-50109785D01*
X88131760Y-50349383D01*
X88207611Y-50498247D01*
X88242989Y-50567681D01*
X88246132Y-50573848D01*
X88394201Y-50777649D01*
X88394205Y-50777654D01*
X88572345Y-50955794D01*
X88572350Y-50955798D01*
X88750117Y-51084952D01*
X88776155Y-51103870D01*
X88845736Y-51139323D01*
X89000616Y-51218239D01*
X89000618Y-51218239D01*
X89000621Y-51218241D01*
X89240215Y-51296090D01*
X89329889Y-51310293D01*
X89333260Y-51310827D01*
X89396395Y-51340756D01*
X89433326Y-51400068D01*
X89432328Y-51469930D01*
X89393718Y-51528163D01*
X89329755Y-51556277D01*
X89313862Y-51557300D01*
X83177847Y-51557300D01*
X83110808Y-51537615D01*
X83090166Y-51520981D01*
X81072775Y-49503590D01*
X81039290Y-49442267D01*
X81037983Y-49435306D01*
X81026090Y-49360214D01*
X80992397Y-49256520D01*
X80948241Y-49120621D01*
X80948239Y-49120618D01*
X80948237Y-49120610D01*
X80934675Y-49093993D01*
X80921779Y-49025324D01*
X80948056Y-48960584D01*
X81005163Y-48920328D01*
X81045160Y-48913700D01*
X88033800Y-48913700D01*
X88042485Y-48916250D01*
G37*
%TD.AperFunction*%
%TA.AperFunction,NonConductor*%
G36*
X77951879Y-48933385D02*
G01*
X77997634Y-48986189D01*
X78007578Y-49055347D01*
X77995325Y-49093993D01*
X77981762Y-49120610D01*
X77903910Y-49360214D01*
X77864500Y-49609038D01*
X77864500Y-49860961D01*
X77903910Y-50109785D01*
X77981760Y-50349383D01*
X78057611Y-50498247D01*
X78092989Y-50567681D01*
X78096132Y-50573848D01*
X78244201Y-50777649D01*
X78244205Y-50777654D01*
X78422345Y-50955794D01*
X78422350Y-50955798D01*
X78600117Y-51084952D01*
X78626155Y-51103870D01*
X78695736Y-51139323D01*
X78850616Y-51218239D01*
X78850618Y-51218239D01*
X78850621Y-51218241D01*
X78961784Y-51254360D01*
X79090214Y-51296090D01*
X79116373Y-51300233D01*
X79165306Y-51307983D01*
X79228441Y-51337912D01*
X79233590Y-51342775D01*
X81740581Y-53849766D01*
X81906189Y-53970087D01*
X81986757Y-54011138D01*
X82088581Y-54063020D01*
X82121411Y-54073687D01*
X82283265Y-54126277D01*
X82331564Y-54133927D01*
X82332196Y-54134027D01*
X82395331Y-54163956D01*
X82432262Y-54223268D01*
X82431264Y-54293130D01*
X82392654Y-54351363D01*
X82328691Y-54379477D01*
X82312798Y-54380500D01*
X75346847Y-54380500D01*
X75279808Y-54360815D01*
X75259166Y-54344181D01*
X72356293Y-51441308D01*
X72322808Y-51379985D01*
X72327792Y-51310293D01*
X72369664Y-51254360D01*
X72405655Y-51235697D01*
X72459379Y-51218241D01*
X72683845Y-51103870D01*
X72887656Y-50955793D01*
X73065793Y-50777656D01*
X73213870Y-50573845D01*
X73328241Y-50349379D01*
X73406090Y-50109785D01*
X73417984Y-50034687D01*
X73447911Y-49971557D01*
X73452757Y-49966426D01*
X74469166Y-48950019D01*
X74530489Y-48916534D01*
X74556847Y-48913700D01*
X77884840Y-48913700D01*
X77951879Y-48933385D01*
G37*
%TD.AperFunction*%
%TA.AperFunction,NonConductor*%
G36*
X136501703Y-47971237D02*
G01*
X136504245Y-47970603D01*
X136535046Y-47981028D01*
X136566229Y-47990185D01*
X136568706Y-47992422D01*
X136570426Y-47993004D01*
X136596135Y-48017185D01*
X136600183Y-48022261D01*
X136700576Y-48122654D01*
X136734061Y-48183977D01*
X136729077Y-48253669D01*
X136713214Y-48283219D01*
X136668367Y-48344946D01*
X136550422Y-48576423D01*
X136470140Y-48823506D01*
X136429500Y-49080097D01*
X136429500Y-49339902D01*
X136470140Y-49596493D01*
X136550422Y-49843576D01*
X136608974Y-49958488D01*
X136647800Y-50034689D01*
X136668368Y-50075054D01*
X136821066Y-50285225D01*
X136821071Y-50285231D01*
X136928159Y-50392319D01*
X136961644Y-50453642D01*
X136956660Y-50523334D01*
X136928159Y-50567681D01*
X136821071Y-50674768D01*
X136821066Y-50674774D01*
X136668368Y-50884945D01*
X136550422Y-51116423D01*
X136470140Y-51363506D01*
X136429500Y-51620097D01*
X136429500Y-51879902D01*
X136470140Y-52136493D01*
X136550422Y-52383576D01*
X136668368Y-52615054D01*
X136821066Y-52825225D01*
X136821071Y-52825231D01*
X136928159Y-52932319D01*
X136961644Y-52993642D01*
X136956660Y-53063334D01*
X136928159Y-53107681D01*
X136821071Y-53214768D01*
X136821066Y-53214774D01*
X136668368Y-53424945D01*
X136550422Y-53656423D01*
X136470140Y-53903506D01*
X136429500Y-54160097D01*
X136429500Y-54419902D01*
X136470140Y-54676493D01*
X136550422Y-54923576D01*
X136668368Y-55155054D01*
X136821066Y-55365225D01*
X136821071Y-55365231D01*
X136928159Y-55472319D01*
X136961644Y-55533642D01*
X136956660Y-55603334D01*
X136928159Y-55647681D01*
X136821071Y-55754768D01*
X136821066Y-55754774D01*
X136668368Y-55964945D01*
X136550422Y-56196425D01*
X136550421Y-56196427D01*
X136550421Y-56196428D01*
X136484659Y-56398819D01*
X136445224Y-56456493D01*
X136380865Y-56483692D01*
X136366730Y-56484500D01*
X116429500Y-56484500D01*
X116362461Y-56464815D01*
X116316706Y-56412011D01*
X116305500Y-56360500D01*
X116305500Y-50708237D01*
X116325185Y-50641198D01*
X116329168Y-50635370D01*
X116373870Y-50573845D01*
X116488241Y-50349379D01*
X116566090Y-50109785D01*
X116605500Y-49860962D01*
X116605500Y-49609038D01*
X116566090Y-49360215D01*
X116488241Y-49120621D01*
X116488239Y-49120618D01*
X116488239Y-49120616D01*
X116428190Y-49002765D01*
X116373870Y-48896155D01*
X116321088Y-48823506D01*
X116225798Y-48692350D01*
X116225794Y-48692345D01*
X116047654Y-48514205D01*
X116047649Y-48514201D01*
X115843848Y-48366132D01*
X115843847Y-48366131D01*
X115843845Y-48366130D01*
X115773747Y-48330413D01*
X115619383Y-48251760D01*
X115498340Y-48212431D01*
X115440665Y-48172993D01*
X115413467Y-48108634D01*
X115425382Y-48039788D01*
X115472626Y-47988312D01*
X115536659Y-47970500D01*
X136276848Y-47970500D01*
X136499190Y-47970500D01*
X136501703Y-47971237D01*
G37*
%TD.AperFunction*%
%TA.AperFunction,NonConductor*%
G36*
X113647539Y-54177985D02*
G01*
X113693294Y-54230789D01*
X113704500Y-54282300D01*
X113704500Y-56811761D01*
X113684815Y-56878800D01*
X113680818Y-56884646D01*
X113636132Y-56946151D01*
X113521760Y-57170616D01*
X113443910Y-57410214D01*
X113404500Y-57659038D01*
X113404500Y-57910961D01*
X113443910Y-58159785D01*
X113521761Y-58399385D01*
X113525236Y-58406204D01*
X113538133Y-58474873D01*
X113511857Y-58539614D01*
X113454751Y-58579871D01*
X113414752Y-58586500D01*
X113115047Y-58586500D01*
X113048008Y-58566815D01*
X113027366Y-58550181D01*
X109165821Y-54688636D01*
X109165819Y-54688634D01*
X109000211Y-54568313D01*
X108909014Y-54521846D01*
X108909012Y-54521845D01*
X108817823Y-54475381D01*
X108771115Y-54460204D01*
X108720476Y-54443751D01*
X108696603Y-54435994D01*
X108623135Y-54412122D01*
X108576730Y-54404773D01*
X108513595Y-54374844D01*
X108476664Y-54315532D01*
X108477662Y-54245670D01*
X108516272Y-54187437D01*
X108580235Y-54159323D01*
X108596128Y-54158300D01*
X113580500Y-54158300D01*
X113647539Y-54177985D01*
G37*
%TD.AperFunction*%
%TA.AperFunction,NonConductor*%
G36*
X68334734Y-40706165D02*
G01*
X68390667Y-40748037D01*
X68415084Y-40813501D01*
X68415400Y-40822347D01*
X68415400Y-50742451D01*
X68447422Y-50944631D01*
X68447422Y-50944632D01*
X68447423Y-50944635D01*
X68451048Y-50955793D01*
X68466542Y-51003476D01*
X68510681Y-51139323D01*
X68538893Y-51194690D01*
X68603613Y-51321711D01*
X68723934Y-51487319D01*
X73909581Y-56672966D01*
X74075189Y-56793287D01*
X74166385Y-56839753D01*
X74257581Y-56886220D01*
X74354923Y-56917848D01*
X74452265Y-56949477D01*
X74654448Y-56981500D01*
X77875771Y-56981500D01*
X77942810Y-57001185D01*
X77988565Y-57053989D01*
X77998509Y-57123147D01*
X77986256Y-57161795D01*
X77981760Y-57170616D01*
X77903910Y-57410214D01*
X77864500Y-57659038D01*
X77864500Y-57910961D01*
X77903910Y-58159785D01*
X77981760Y-58399383D01*
X78096132Y-58623848D01*
X78244201Y-58827649D01*
X78244205Y-58827654D01*
X78422345Y-59005794D01*
X78422350Y-59005798D01*
X78600117Y-59134952D01*
X78626155Y-59153870D01*
X78769184Y-59226747D01*
X78850616Y-59268239D01*
X78850618Y-59268239D01*
X78850621Y-59268241D01*
X79090215Y-59346090D01*
X79339038Y-59385500D01*
X79339039Y-59385500D01*
X79590961Y-59385500D01*
X79590962Y-59385500D01*
X79839785Y-59346090D01*
X80079379Y-59268241D01*
X80303845Y-59153870D01*
X80507656Y-59005793D01*
X80685793Y-58827656D01*
X80833870Y-58623845D01*
X80948241Y-58399379D01*
X81026090Y-58159785D01*
X81065500Y-57910962D01*
X81065500Y-57659038D01*
X81026090Y-57410215D01*
X80948241Y-57170621D01*
X80948239Y-57170618D01*
X80948239Y-57170616D01*
X80943744Y-57161795D01*
X80930848Y-57093126D01*
X80957124Y-57028386D01*
X81014230Y-56988128D01*
X81054229Y-56981500D01*
X86920953Y-56981500D01*
X86987992Y-57001185D01*
X87008634Y-57017819D01*
X87688134Y-57697319D01*
X87721619Y-57758642D01*
X87716635Y-57828334D01*
X87688134Y-57872681D01*
X85158034Y-60402781D01*
X85096711Y-60436266D01*
X85070353Y-60439100D01*
X71329447Y-60439100D01*
X71262408Y-60419415D01*
X71216653Y-60366611D01*
X71206709Y-60297453D01*
X71235734Y-60233897D01*
X71241766Y-60227419D01*
X71468981Y-60000202D01*
X72076409Y-59392773D01*
X72137730Y-59359290D01*
X72144649Y-59357989D01*
X72219785Y-59346090D01*
X72459379Y-59268241D01*
X72683845Y-59153870D01*
X72887656Y-59005793D01*
X73065793Y-58827656D01*
X73213870Y-58623845D01*
X73328241Y-58399379D01*
X73406090Y-58159785D01*
X73445500Y-57910962D01*
X73445500Y-57659038D01*
X73406090Y-57410215D01*
X73328241Y-57170621D01*
X73328239Y-57170618D01*
X73328239Y-57170616D01*
X73268610Y-57053589D01*
X73213870Y-56946155D01*
X73136565Y-56839753D01*
X73065798Y-56742350D01*
X73065794Y-56742345D01*
X72887654Y-56564205D01*
X72887649Y-56564201D01*
X72683848Y-56416132D01*
X72683847Y-56416131D01*
X72683845Y-56416130D01*
X72574665Y-56360500D01*
X72459383Y-56301760D01*
X72219785Y-56223910D01*
X72219779Y-56223909D01*
X71970962Y-56184500D01*
X71719038Y-56184500D01*
X71594626Y-56204205D01*
X71470214Y-56223910D01*
X71230616Y-56301760D01*
X71006151Y-56416132D01*
X70802350Y-56564201D01*
X70802345Y-56564205D01*
X70624205Y-56742345D01*
X70624201Y-56742350D01*
X70476132Y-56946151D01*
X70361760Y-57170618D01*
X70283909Y-57410216D01*
X70272015Y-57485310D01*
X70242085Y-57548444D01*
X70237223Y-57553591D01*
X69193934Y-58596881D01*
X69132611Y-58630366D01*
X69106253Y-58633200D01*
X63261453Y-58633200D01*
X63194414Y-58613515D01*
X63148659Y-58560711D01*
X63138715Y-58491553D01*
X63150968Y-58452905D01*
X63178239Y-58399383D01*
X63178240Y-58399381D01*
X63178241Y-58399379D01*
X63256090Y-58159785D01*
X63295500Y-57910962D01*
X63295500Y-57659038D01*
X63256090Y-57410215D01*
X63178241Y-57170621D01*
X63178239Y-57170618D01*
X63178239Y-57170616D01*
X63118610Y-57053589D01*
X63063870Y-56946155D01*
X62986565Y-56839753D01*
X62915798Y-56742350D01*
X62915794Y-56742345D01*
X62737654Y-56564205D01*
X62737649Y-56564201D01*
X62533848Y-56416132D01*
X62533847Y-56416131D01*
X62533845Y-56416130D01*
X62424665Y-56360500D01*
X62309383Y-56301760D01*
X62069785Y-56223910D01*
X62069779Y-56223909D01*
X61820962Y-56184500D01*
X61569038Y-56184500D01*
X61444626Y-56204205D01*
X61320214Y-56223910D01*
X61080616Y-56301760D01*
X60856151Y-56416132D01*
X60652350Y-56564201D01*
X60652345Y-56564205D01*
X60474205Y-56742345D01*
X60474201Y-56742350D01*
X60326132Y-56946151D01*
X60211760Y-57170616D01*
X60133910Y-57410214D01*
X60094500Y-57659038D01*
X60094500Y-57910961D01*
X60133910Y-58159785D01*
X60211760Y-58399383D01*
X60239032Y-58452905D01*
X60251928Y-58521574D01*
X60225652Y-58586314D01*
X60168546Y-58626572D01*
X60128547Y-58633200D01*
X56813746Y-58633200D01*
X56746707Y-58613515D01*
X56726065Y-58596881D01*
X55682775Y-57553590D01*
X55649290Y-57492267D01*
X55647983Y-57485306D01*
X55636090Y-57410214D01*
X55558239Y-57170616D01*
X55498610Y-57053589D01*
X55443870Y-56946155D01*
X55366565Y-56839753D01*
X55295798Y-56742350D01*
X55295794Y-56742345D01*
X55117654Y-56564205D01*
X55117649Y-56564201D01*
X54913848Y-56416132D01*
X54913847Y-56416131D01*
X54913845Y-56416130D01*
X54804665Y-56360500D01*
X54689383Y-56301760D01*
X54449785Y-56223910D01*
X54449779Y-56223909D01*
X54200962Y-56184500D01*
X53949038Y-56184500D01*
X53824626Y-56204205D01*
X53700214Y-56223910D01*
X53460616Y-56301760D01*
X53236151Y-56416132D01*
X53032350Y-56564201D01*
X53032345Y-56564205D01*
X52854205Y-56742345D01*
X52854201Y-56742350D01*
X52706132Y-56946151D01*
X52591760Y-57170616D01*
X52513910Y-57410214D01*
X52474500Y-57659038D01*
X52474500Y-57910961D01*
X52513910Y-58159785D01*
X52591760Y-58399383D01*
X52706132Y-58623848D01*
X52854201Y-58827649D01*
X52854205Y-58827654D01*
X53032345Y-59005794D01*
X53032350Y-59005798D01*
X53210117Y-59134952D01*
X53236155Y-59153870D01*
X53379184Y-59226747D01*
X53460616Y-59268239D01*
X53460618Y-59268239D01*
X53460621Y-59268241D01*
X53589049Y-59309970D01*
X53700214Y-59346090D01*
X53739439Y-59352302D01*
X53775306Y-59357983D01*
X53838441Y-59387912D01*
X53843590Y-59392775D01*
X54678235Y-60227419D01*
X54711720Y-60288742D01*
X54706736Y-60358433D01*
X54664864Y-60414367D01*
X54599400Y-60438784D01*
X54590554Y-60439100D01*
X50921346Y-60439100D01*
X50854307Y-60419415D01*
X50833665Y-60402781D01*
X46015452Y-55584568D01*
X41188919Y-50758034D01*
X41023311Y-50637713D01*
X40870236Y-50559718D01*
X40840919Y-50544780D01*
X40735416Y-50510500D01*
X40646235Y-50481523D01*
X40514268Y-50460621D01*
X40510230Y-50459701D01*
X40483211Y-50444599D01*
X40455248Y-50431344D01*
X40452981Y-50427704D01*
X40449240Y-50425613D01*
X40434676Y-50398306D01*
X40418317Y-50372032D01*
X40418378Y-50367745D01*
X40416361Y-50363963D01*
X40418872Y-50333117D01*
X40419315Y-50302170D01*
X40421684Y-50298596D01*
X40422032Y-50294324D01*
X40440824Y-50269727D01*
X40457925Y-50243937D01*
X40461848Y-50242212D01*
X40464452Y-50238805D01*
X40493559Y-50228274D01*
X40521888Y-50215823D01*
X40529293Y-50215346D01*
X40530154Y-50215035D01*
X40531909Y-50215177D01*
X40537781Y-50214800D01*
X41489553Y-50214800D01*
X41556592Y-50234485D01*
X41577234Y-50251119D01*
X45996081Y-54669966D01*
X46161689Y-54790287D01*
X46247052Y-54833781D01*
X46344076Y-54883218D01*
X46344078Y-54883218D01*
X46344081Y-54883220D01*
X46386904Y-54897134D01*
X46538765Y-54946477D01*
X46740948Y-54978500D01*
X46740949Y-54978500D01*
X63430151Y-54978500D01*
X63430152Y-54978500D01*
X63632335Y-54946477D01*
X63784196Y-54897134D01*
X63827019Y-54883220D01*
X63924048Y-54833781D01*
X64009411Y-54790287D01*
X64175019Y-54669966D01*
X66681466Y-52163519D01*
X66801787Y-51997911D01*
X66869083Y-51865834D01*
X66894720Y-51815519D01*
X66934554Y-51692923D01*
X66957977Y-51620835D01*
X66990000Y-51418652D01*
X66990000Y-51213949D01*
X66990000Y-41999747D01*
X67009685Y-41932708D01*
X67026319Y-41912066D01*
X68203719Y-40734666D01*
X68265042Y-40701181D01*
X68334734Y-40706165D01*
G37*
%TD.AperFunction*%
%TA.AperFunction,NonConductor*%
G36*
X105798615Y-56981875D02*
G01*
X105801287Y-56981214D01*
X105831948Y-56991663D01*
X105863014Y-57000785D01*
X105864815Y-57002863D01*
X105867422Y-57003752D01*
X105887575Y-57029130D01*
X105908769Y-57053589D01*
X105909160Y-57056311D01*
X105910873Y-57058468D01*
X105914104Y-57090697D01*
X105918713Y-57122747D01*
X105917653Y-57126088D01*
X105917844Y-57127989D01*
X105906459Y-57161397D01*
X105901759Y-57170619D01*
X105823909Y-57410217D01*
X105812015Y-57485309D01*
X105782085Y-57548443D01*
X105777223Y-57553590D01*
X96700534Y-66630281D01*
X96639211Y-66663766D01*
X96612853Y-66666600D01*
X95545947Y-66666600D01*
X95478908Y-66646915D01*
X95433153Y-66594111D01*
X95423209Y-66524953D01*
X95452234Y-66461397D01*
X95458266Y-66454919D01*
X104895766Y-57017419D01*
X104957089Y-56983934D01*
X104983447Y-56981100D01*
X105795975Y-56981100D01*
X105798615Y-56981875D01*
G37*
%TD.AperFunction*%
%TA.AperFunction,NonConductor*%
G36*
X35182539Y-50234485D02*
G01*
X35228294Y-50287289D01*
X35239500Y-50338800D01*
X35239500Y-53294954D01*
X35254630Y-53429249D01*
X35254631Y-53429254D01*
X35314211Y-53599523D01*
X35341537Y-53643011D01*
X35410184Y-53752262D01*
X35537738Y-53879816D01*
X35690478Y-53975789D01*
X35788162Y-54009970D01*
X35860745Y-54035368D01*
X35860750Y-54035369D01*
X35951246Y-54045565D01*
X35995040Y-54050499D01*
X35995043Y-54050500D01*
X35995046Y-54050500D01*
X39084957Y-54050500D01*
X39084958Y-54050499D01*
X39152104Y-54042934D01*
X39219249Y-54035369D01*
X39219252Y-54035368D01*
X39219255Y-54035368D01*
X39389522Y-53975789D01*
X39542262Y-53879816D01*
X39669816Y-53752262D01*
X39765789Y-53599522D01*
X39825368Y-53429255D01*
X39832629Y-53364813D01*
X39859695Y-53300398D01*
X39917289Y-53260843D01*
X39987126Y-53258704D01*
X40043530Y-53291014D01*
X49336208Y-62583692D01*
X49336222Y-62583707D01*
X49339333Y-62586818D01*
X49339334Y-62586819D01*
X49484081Y-62731566D01*
X49484084Y-62731568D01*
X49484088Y-62731572D01*
X49634268Y-62840682D01*
X49649690Y-62851887D01*
X49736535Y-62896137D01*
X49832081Y-62944821D01*
X49832084Y-62944822D01*
X49929421Y-62976448D01*
X50026766Y-63008077D01*
X50228948Y-63040100D01*
X50228949Y-63040100D01*
X85762751Y-63040100D01*
X85762752Y-63040100D01*
X85964935Y-63008077D01*
X86062276Y-62976448D01*
X86159619Y-62944820D01*
X86250814Y-62898353D01*
X86342011Y-62851887D01*
X86507619Y-62731566D01*
X89846410Y-59392773D01*
X89907731Y-59359290D01*
X89914645Y-59357990D01*
X89989785Y-59346090D01*
X90229379Y-59268241D01*
X90453845Y-59153870D01*
X90657656Y-59005793D01*
X90835793Y-58827656D01*
X90983870Y-58623845D01*
X91098241Y-58399379D01*
X91176090Y-58159785D01*
X91215500Y-57910962D01*
X91215500Y-57659038D01*
X91176090Y-57410215D01*
X91098241Y-57170621D01*
X91098239Y-57170618D01*
X91098239Y-57170616D01*
X91038610Y-57053589D01*
X90983870Y-56946155D01*
X90906565Y-56839753D01*
X90835798Y-56742350D01*
X90835794Y-56742345D01*
X90657654Y-56564205D01*
X90657649Y-56564201D01*
X90453848Y-56416132D01*
X90453847Y-56416131D01*
X90453845Y-56416130D01*
X90229379Y-56301759D01*
X90109582Y-56262834D01*
X89989783Y-56223909D01*
X89914689Y-56212015D01*
X89851555Y-56182085D01*
X89846408Y-56177223D01*
X88358221Y-54689036D01*
X88358219Y-54689034D01*
X88192611Y-54568713D01*
X88101414Y-54522246D01*
X88100627Y-54521845D01*
X88010223Y-54475781D01*
X87963515Y-54460604D01*
X87912876Y-54444151D01*
X87815535Y-54412523D01*
X87766604Y-54404773D01*
X87703469Y-54374844D01*
X87666538Y-54315532D01*
X87667536Y-54245670D01*
X87706146Y-54187437D01*
X87770109Y-54159323D01*
X87786002Y-54158300D01*
X95810500Y-54158300D01*
X95877539Y-54177985D01*
X95923294Y-54230789D01*
X95934500Y-54282300D01*
X95934500Y-56811761D01*
X95914815Y-56878800D01*
X95910818Y-56884646D01*
X95866132Y-56946151D01*
X95751760Y-57170616D01*
X95673910Y-57410214D01*
X95634500Y-57659038D01*
X95634500Y-57910961D01*
X95673910Y-58159785D01*
X95751760Y-58399383D01*
X95866132Y-58623848D01*
X96014201Y-58827649D01*
X96014205Y-58827654D01*
X96192345Y-59005794D01*
X96192350Y-59005798D01*
X96370117Y-59134952D01*
X96396155Y-59153870D01*
X96539184Y-59226747D01*
X96620616Y-59268239D01*
X96620618Y-59268239D01*
X96620621Y-59268241D01*
X96860215Y-59346090D01*
X97109038Y-59385500D01*
X97109039Y-59385500D01*
X97360961Y-59385500D01*
X97360962Y-59385500D01*
X97609785Y-59346090D01*
X97849379Y-59268241D01*
X98073845Y-59153870D01*
X98277656Y-59005793D01*
X98455793Y-58827656D01*
X98603870Y-58623845D01*
X98718241Y-58399379D01*
X98796090Y-58159785D01*
X98835500Y-57910962D01*
X98835500Y-57659038D01*
X98796090Y-57410215D01*
X98718241Y-57170621D01*
X98718239Y-57170618D01*
X98718239Y-57170616D01*
X98658610Y-57053589D01*
X98603870Y-56946155D01*
X98583304Y-56917848D01*
X98559182Y-56884646D01*
X98535702Y-56818840D01*
X98535500Y-56811761D01*
X98535500Y-54282300D01*
X98555185Y-54215261D01*
X98607989Y-54169506D01*
X98659500Y-54158300D01*
X104115872Y-54158300D01*
X104182911Y-54177985D01*
X104228666Y-54230789D01*
X104238610Y-54299947D01*
X104209585Y-54363503D01*
X104150807Y-54401277D01*
X104135270Y-54404773D01*
X104088863Y-54412123D01*
X103991523Y-54443750D01*
X103991523Y-54443751D01*
X103938752Y-54460897D01*
X103894174Y-54475382D01*
X103802984Y-54521845D01*
X103802985Y-54521846D01*
X103711788Y-54568313D01*
X103546178Y-54688636D01*
X93736634Y-64498181D01*
X93675311Y-64531666D01*
X93648953Y-64534500D01*
X62668238Y-64534500D01*
X62601199Y-64514815D01*
X62595362Y-64510824D01*
X62533845Y-64466130D01*
X62309383Y-64351760D01*
X62069785Y-64273910D01*
X61820962Y-64234500D01*
X61569038Y-64234500D01*
X61444626Y-64254205D01*
X61320214Y-64273910D01*
X61080616Y-64351760D01*
X60856151Y-64466132D01*
X60652350Y-64614201D01*
X60652345Y-64614205D01*
X60474205Y-64792345D01*
X60474201Y-64792350D01*
X60326132Y-64996151D01*
X60211760Y-65220616D01*
X60133910Y-65460214D01*
X60094500Y-65709038D01*
X60094500Y-65960961D01*
X60133910Y-66209785D01*
X60211761Y-66449386D01*
X60230573Y-66486306D01*
X60243469Y-66554976D01*
X60217192Y-66619716D01*
X60160085Y-66659972D01*
X60120088Y-66666600D01*
X56797146Y-66666600D01*
X56730107Y-66646915D01*
X56709465Y-66630281D01*
X55682775Y-65603590D01*
X55649290Y-65542267D01*
X55647983Y-65535306D01*
X55636090Y-65460214D01*
X55558239Y-65220616D01*
X55516747Y-65139184D01*
X55443870Y-64996155D01*
X55424952Y-64970117D01*
X55295798Y-64792350D01*
X55295794Y-64792345D01*
X55117654Y-64614205D01*
X55117649Y-64614201D01*
X54913848Y-64466132D01*
X54913847Y-64466131D01*
X54913845Y-64466130D01*
X54843747Y-64430413D01*
X54689383Y-64351760D01*
X54449785Y-64273910D01*
X54200962Y-64234500D01*
X53949038Y-64234500D01*
X53824626Y-64254205D01*
X53700214Y-64273910D01*
X53460616Y-64351760D01*
X53236154Y-64466130D01*
X53197801Y-64493995D01*
X53174646Y-64510818D01*
X53108842Y-64534298D01*
X53101762Y-64534500D01*
X43110346Y-64534500D01*
X43043307Y-64514815D01*
X43022665Y-64498181D01*
X32756949Y-54232464D01*
X32723464Y-54171141D01*
X32728448Y-54101449D01*
X32770320Y-54045516D01*
X32828443Y-54021844D01*
X32909768Y-54011138D01*
X33201058Y-53933087D01*
X33479668Y-53817683D01*
X33740832Y-53666900D01*
X33980080Y-53483319D01*
X34193319Y-53270080D01*
X34376900Y-53030832D01*
X34527683Y-52769668D01*
X34643087Y-52491058D01*
X34721138Y-52199768D01*
X34760500Y-51900783D01*
X34760500Y-51599217D01*
X34721138Y-51300232D01*
X34643087Y-51008942D01*
X34640823Y-51003477D01*
X34539158Y-50758036D01*
X34527683Y-50730332D01*
X34514926Y-50708237D01*
X34376900Y-50469168D01*
X34334788Y-50414286D01*
X34309594Y-50349117D01*
X34323632Y-50280672D01*
X34372447Y-50230683D01*
X34433164Y-50214800D01*
X35115500Y-50214800D01*
X35182539Y-50234485D01*
G37*
%TD.AperFunction*%
M02*
