%TF.GenerationSoftware,KiCad,Pcbnew,9.0.6*%
%TF.CreationDate,2026-06-10T07:56:51+02:00*%
%TF.ProjectId,current_sense,63757272-656e-4745-9f73-656e73652e6b,rev?*%
%TF.SameCoordinates,Original*%
%TF.FileFunction,Copper,L1,Top*%
%TF.FilePolarity,Positive*%
%FSLAX46Y46*%
G04 Gerber Fmt 4.6, Leading zero omitted, Abs format (unit mm)*
G04 Created by KiCad (PCBNEW 9.0.6) date 2026-06-10 07:56:51*
%MOMM*%
%LPD*%
G01*
G04 APERTURE LIST*
G04 Aperture macros list*
%AMRoundRect*
0 Rectangle with rounded corners*
0 $1 Rounding radius*
0 $2 $3 $4 $5 $6 $7 $8 $9 X,Y pos of 4 corners*
0 Add a 4 corners polygon primitive as box body*
4,1,4,$2,$3,$4,$5,$6,$7,$8,$9,$2,$3,0*
0 Add four circle primitives for the rounded corners*
1,1,$1+$1,$2,$3*
1,1,$1+$1,$4,$5*
1,1,$1+$1,$6,$7*
1,1,$1+$1,$8,$9*
0 Add four rect primitives between the rounded corners*
20,1,$1+$1,$2,$3,$4,$5,0*
20,1,$1+$1,$4,$5,$6,$7,0*
20,1,$1+$1,$6,$7,$8,$9,0*
20,1,$1+$1,$8,$9,$2,$3,0*%
G04 Aperture macros list end*
%ADD10C,0.300000*%
%TA.AperFunction,NonConductor*%
%ADD11C,0.300000*%
%TD*%
%TA.AperFunction,ComponentPad*%
%ADD12C,1.600000*%
%TD*%
%TA.AperFunction,ComponentPad*%
%ADD13RoundRect,0.250000X-0.950000X-0.550000X0.950000X-0.550000X0.950000X0.550000X-0.950000X0.550000X0*%
%TD*%
%TA.AperFunction,ComponentPad*%
%ADD14O,2.400000X1.600000*%
%TD*%
%TA.AperFunction,ComponentPad*%
%ADD15R,3.000000X3.000000*%
%TD*%
%TA.AperFunction,ComponentPad*%
%ADD16C,3.000000*%
%TD*%
%TA.AperFunction,ComponentPad*%
%ADD17R,1.700000X1.700000*%
%TD*%
%TA.AperFunction,ComponentPad*%
%ADD18C,1.700000*%
%TD*%
%TA.AperFunction,Conductor*%
%ADD19C,1.000000*%
%TD*%
G04 APERTURE END LIST*
D10*
D11*
X73120714Y-29403328D02*
X72620714Y-28689042D01*
X72263571Y-29403328D02*
X72263571Y-27903328D01*
X72263571Y-27903328D02*
X72835000Y-27903328D01*
X72835000Y-27903328D02*
X72977857Y-27974757D01*
X72977857Y-27974757D02*
X73049286Y-28046185D01*
X73049286Y-28046185D02*
X73120714Y-28189042D01*
X73120714Y-28189042D02*
X73120714Y-28403328D01*
X73120714Y-28403328D02*
X73049286Y-28546185D01*
X73049286Y-28546185D02*
X72977857Y-28617614D01*
X72977857Y-28617614D02*
X72835000Y-28689042D01*
X72835000Y-28689042D02*
X72263571Y-28689042D01*
X74549286Y-29403328D02*
X73692143Y-29403328D01*
X74120714Y-29403328D02*
X74120714Y-27903328D01*
X74120714Y-27903328D02*
X73977857Y-28117614D01*
X73977857Y-28117614D02*
X73835000Y-28260471D01*
X73835000Y-28260471D02*
X73692143Y-28331900D01*
X75120714Y-28046185D02*
X75192142Y-27974757D01*
X75192142Y-27974757D02*
X75335000Y-27903328D01*
X75335000Y-27903328D02*
X75692142Y-27903328D01*
X75692142Y-27903328D02*
X75835000Y-27974757D01*
X75835000Y-27974757D02*
X75906428Y-28046185D01*
X75906428Y-28046185D02*
X75977857Y-28189042D01*
X75977857Y-28189042D02*
X75977857Y-28331900D01*
X75977857Y-28331900D02*
X75906428Y-28546185D01*
X75906428Y-28546185D02*
X75049285Y-29403328D01*
X75049285Y-29403328D02*
X75977857Y-29403328D01*
D10*
D11*
X42950714Y-24453328D02*
X42450714Y-23739042D01*
X42093571Y-24453328D02*
X42093571Y-22953328D01*
X42093571Y-22953328D02*
X42665000Y-22953328D01*
X42665000Y-22953328D02*
X42807857Y-23024757D01*
X42807857Y-23024757D02*
X42879286Y-23096185D01*
X42879286Y-23096185D02*
X42950714Y-23239042D01*
X42950714Y-23239042D02*
X42950714Y-23453328D01*
X42950714Y-23453328D02*
X42879286Y-23596185D01*
X42879286Y-23596185D02*
X42807857Y-23667614D01*
X42807857Y-23667614D02*
X42665000Y-23739042D01*
X42665000Y-23739042D02*
X42093571Y-23739042D01*
X44379286Y-24453328D02*
X43522143Y-24453328D01*
X43950714Y-24453328D02*
X43950714Y-22953328D01*
X43950714Y-22953328D02*
X43807857Y-23167614D01*
X43807857Y-23167614D02*
X43665000Y-23310471D01*
X43665000Y-23310471D02*
X43522143Y-23381900D01*
X45807857Y-24453328D02*
X44950714Y-24453328D01*
X45379285Y-24453328D02*
X45379285Y-22953328D01*
X45379285Y-22953328D02*
X45236428Y-23167614D01*
X45236428Y-23167614D02*
X45093571Y-23310471D01*
X45093571Y-23310471D02*
X44950714Y-23381900D01*
D10*
D11*
X65035714Y-93403328D02*
X64535714Y-92689042D01*
X64178571Y-93403328D02*
X64178571Y-91903328D01*
X64178571Y-91903328D02*
X64750000Y-91903328D01*
X64750000Y-91903328D02*
X64892857Y-91974757D01*
X64892857Y-91974757D02*
X64964286Y-92046185D01*
X64964286Y-92046185D02*
X65035714Y-92189042D01*
X65035714Y-92189042D02*
X65035714Y-92403328D01*
X65035714Y-92403328D02*
X64964286Y-92546185D01*
X64964286Y-92546185D02*
X64892857Y-92617614D01*
X64892857Y-92617614D02*
X64750000Y-92689042D01*
X64750000Y-92689042D02*
X64178571Y-92689042D01*
X65535714Y-91903328D02*
X66464286Y-91903328D01*
X66464286Y-91903328D02*
X65964286Y-92474757D01*
X65964286Y-92474757D02*
X66178571Y-92474757D01*
X66178571Y-92474757D02*
X66321429Y-92546185D01*
X66321429Y-92546185D02*
X66392857Y-92617614D01*
X66392857Y-92617614D02*
X66464286Y-92760471D01*
X66464286Y-92760471D02*
X66464286Y-93117614D01*
X66464286Y-93117614D02*
X66392857Y-93260471D01*
X66392857Y-93260471D02*
X66321429Y-93331900D01*
X66321429Y-93331900D02*
X66178571Y-93403328D01*
X66178571Y-93403328D02*
X65750000Y-93403328D01*
X65750000Y-93403328D02*
X65607143Y-93331900D01*
X65607143Y-93331900D02*
X65535714Y-93260471D01*
X66964285Y-91903328D02*
X67892857Y-91903328D01*
X67892857Y-91903328D02*
X67392857Y-92474757D01*
X67392857Y-92474757D02*
X67607142Y-92474757D01*
X67607142Y-92474757D02*
X67750000Y-92546185D01*
X67750000Y-92546185D02*
X67821428Y-92617614D01*
X67821428Y-92617614D02*
X67892857Y-92760471D01*
X67892857Y-92760471D02*
X67892857Y-93117614D01*
X67892857Y-93117614D02*
X67821428Y-93260471D01*
X67821428Y-93260471D02*
X67750000Y-93331900D01*
X67750000Y-93331900D02*
X67607142Y-93403328D01*
X67607142Y-93403328D02*
X67178571Y-93403328D01*
X67178571Y-93403328D02*
X67035714Y-93331900D01*
X67035714Y-93331900D02*
X66964285Y-93260471D01*
D10*
D11*
X34500000Y-21953328D02*
X34500000Y-23024757D01*
X34500000Y-23024757D02*
X34428571Y-23239042D01*
X34428571Y-23239042D02*
X34285714Y-23381900D01*
X34285714Y-23381900D02*
X34071428Y-23453328D01*
X34071428Y-23453328D02*
X33928571Y-23453328D01*
X36000000Y-23453328D02*
X35142857Y-23453328D01*
X35571428Y-23453328D02*
X35571428Y-21953328D01*
X35571428Y-21953328D02*
X35428571Y-22167614D01*
X35428571Y-22167614D02*
X35285714Y-22310471D01*
X35285714Y-22310471D02*
X35142857Y-22381900D01*
D10*
D11*
X27525000Y-81178328D02*
X27525000Y-82249757D01*
X27525000Y-82249757D02*
X27453571Y-82464042D01*
X27453571Y-82464042D02*
X27310714Y-82606900D01*
X27310714Y-82606900D02*
X27096428Y-82678328D01*
X27096428Y-82678328D02*
X26953571Y-82678328D01*
X28096428Y-81178328D02*
X29025000Y-81178328D01*
X29025000Y-81178328D02*
X28525000Y-81749757D01*
X28525000Y-81749757D02*
X28739285Y-81749757D01*
X28739285Y-81749757D02*
X28882143Y-81821185D01*
X28882143Y-81821185D02*
X28953571Y-81892614D01*
X28953571Y-81892614D02*
X29025000Y-82035471D01*
X29025000Y-82035471D02*
X29025000Y-82392614D01*
X29025000Y-82392614D02*
X28953571Y-82535471D01*
X28953571Y-82535471D02*
X28882143Y-82606900D01*
X28882143Y-82606900D02*
X28739285Y-82678328D01*
X28739285Y-82678328D02*
X28310714Y-82678328D01*
X28310714Y-82678328D02*
X28167857Y-82606900D01*
X28167857Y-82606900D02*
X28096428Y-82535471D01*
D10*
D11*
X94842142Y-81233328D02*
X94842142Y-82447614D01*
X94842142Y-82447614D02*
X94913571Y-82590471D01*
X94913571Y-82590471D02*
X94985000Y-82661900D01*
X94985000Y-82661900D02*
X95127857Y-82733328D01*
X95127857Y-82733328D02*
X95413571Y-82733328D01*
X95413571Y-82733328D02*
X95556428Y-82661900D01*
X95556428Y-82661900D02*
X95627857Y-82590471D01*
X95627857Y-82590471D02*
X95699285Y-82447614D01*
X95699285Y-82447614D02*
X95699285Y-81233328D01*
X96342143Y-81376185D02*
X96413571Y-81304757D01*
X96413571Y-81304757D02*
X96556429Y-81233328D01*
X96556429Y-81233328D02*
X96913571Y-81233328D01*
X96913571Y-81233328D02*
X97056429Y-81304757D01*
X97056429Y-81304757D02*
X97127857Y-81376185D01*
X97127857Y-81376185D02*
X97199286Y-81519042D01*
X97199286Y-81519042D02*
X97199286Y-81661900D01*
X97199286Y-81661900D02*
X97127857Y-81876185D01*
X97127857Y-81876185D02*
X96270714Y-82733328D01*
X96270714Y-82733328D02*
X97199286Y-82733328D01*
D10*
D11*
X65035714Y-67403328D02*
X64535714Y-66689042D01*
X64178571Y-67403328D02*
X64178571Y-65903328D01*
X64178571Y-65903328D02*
X64750000Y-65903328D01*
X64750000Y-65903328D02*
X64892857Y-65974757D01*
X64892857Y-65974757D02*
X64964286Y-66046185D01*
X64964286Y-66046185D02*
X65035714Y-66189042D01*
X65035714Y-66189042D02*
X65035714Y-66403328D01*
X65035714Y-66403328D02*
X64964286Y-66546185D01*
X64964286Y-66546185D02*
X64892857Y-66617614D01*
X64892857Y-66617614D02*
X64750000Y-66689042D01*
X64750000Y-66689042D02*
X64178571Y-66689042D01*
X65607143Y-66046185D02*
X65678571Y-65974757D01*
X65678571Y-65974757D02*
X65821429Y-65903328D01*
X65821429Y-65903328D02*
X66178571Y-65903328D01*
X66178571Y-65903328D02*
X66321429Y-65974757D01*
X66321429Y-65974757D02*
X66392857Y-66046185D01*
X66392857Y-66046185D02*
X66464286Y-66189042D01*
X66464286Y-66189042D02*
X66464286Y-66331900D01*
X66464286Y-66331900D02*
X66392857Y-66546185D01*
X66392857Y-66546185D02*
X65535714Y-67403328D01*
X65535714Y-67403328D02*
X66464286Y-67403328D01*
X66964285Y-65903328D02*
X67892857Y-65903328D01*
X67892857Y-65903328D02*
X67392857Y-66474757D01*
X67392857Y-66474757D02*
X67607142Y-66474757D01*
X67607142Y-66474757D02*
X67750000Y-66546185D01*
X67750000Y-66546185D02*
X67821428Y-66617614D01*
X67821428Y-66617614D02*
X67892857Y-66760471D01*
X67892857Y-66760471D02*
X67892857Y-67117614D01*
X67892857Y-67117614D02*
X67821428Y-67260471D01*
X67821428Y-67260471D02*
X67750000Y-67331900D01*
X67750000Y-67331900D02*
X67607142Y-67403328D01*
X67607142Y-67403328D02*
X67178571Y-67403328D01*
X67178571Y-67403328D02*
X67035714Y-67331900D01*
X67035714Y-67331900D02*
X66964285Y-67260471D01*
D10*
D11*
X107025000Y-62760471D02*
X106953572Y-62831900D01*
X106953572Y-62831900D02*
X106739286Y-62903328D01*
X106739286Y-62903328D02*
X106596429Y-62903328D01*
X106596429Y-62903328D02*
X106382143Y-62831900D01*
X106382143Y-62831900D02*
X106239286Y-62689042D01*
X106239286Y-62689042D02*
X106167857Y-62546185D01*
X106167857Y-62546185D02*
X106096429Y-62260471D01*
X106096429Y-62260471D02*
X106096429Y-62046185D01*
X106096429Y-62046185D02*
X106167857Y-61760471D01*
X106167857Y-61760471D02*
X106239286Y-61617614D01*
X106239286Y-61617614D02*
X106382143Y-61474757D01*
X106382143Y-61474757D02*
X106596429Y-61403328D01*
X106596429Y-61403328D02*
X106739286Y-61403328D01*
X106739286Y-61403328D02*
X106953572Y-61474757D01*
X106953572Y-61474757D02*
X107025000Y-61546185D01*
X107596429Y-61546185D02*
X107667857Y-61474757D01*
X107667857Y-61474757D02*
X107810715Y-61403328D01*
X107810715Y-61403328D02*
X108167857Y-61403328D01*
X108167857Y-61403328D02*
X108310715Y-61474757D01*
X108310715Y-61474757D02*
X108382143Y-61546185D01*
X108382143Y-61546185D02*
X108453572Y-61689042D01*
X108453572Y-61689042D02*
X108453572Y-61831900D01*
X108453572Y-61831900D02*
X108382143Y-62046185D01*
X108382143Y-62046185D02*
X107525000Y-62903328D01*
X107525000Y-62903328D02*
X108453572Y-62903328D01*
D10*
D11*
X124500000Y-44603328D02*
X124500000Y-45674757D01*
X124500000Y-45674757D02*
X124428571Y-45889042D01*
X124428571Y-45889042D02*
X124285714Y-46031900D01*
X124285714Y-46031900D02*
X124071428Y-46103328D01*
X124071428Y-46103328D02*
X123928571Y-46103328D01*
X125857143Y-45103328D02*
X125857143Y-46103328D01*
X125500000Y-44531900D02*
X125142857Y-45603328D01*
X125142857Y-45603328D02*
X126071428Y-45603328D01*
D10*
D11*
X74620714Y-56903328D02*
X74120714Y-56189042D01*
X73763571Y-56903328D02*
X73763571Y-55403328D01*
X73763571Y-55403328D02*
X74335000Y-55403328D01*
X74335000Y-55403328D02*
X74477857Y-55474757D01*
X74477857Y-55474757D02*
X74549286Y-55546185D01*
X74549286Y-55546185D02*
X74620714Y-55689042D01*
X74620714Y-55689042D02*
X74620714Y-55903328D01*
X74620714Y-55903328D02*
X74549286Y-56046185D01*
X74549286Y-56046185D02*
X74477857Y-56117614D01*
X74477857Y-56117614D02*
X74335000Y-56189042D01*
X74335000Y-56189042D02*
X73763571Y-56189042D01*
X75192143Y-55546185D02*
X75263571Y-55474757D01*
X75263571Y-55474757D02*
X75406429Y-55403328D01*
X75406429Y-55403328D02*
X75763571Y-55403328D01*
X75763571Y-55403328D02*
X75906429Y-55474757D01*
X75906429Y-55474757D02*
X75977857Y-55546185D01*
X75977857Y-55546185D02*
X76049286Y-55689042D01*
X76049286Y-55689042D02*
X76049286Y-55831900D01*
X76049286Y-55831900D02*
X75977857Y-56046185D01*
X75977857Y-56046185D02*
X75120714Y-56903328D01*
X75120714Y-56903328D02*
X76049286Y-56903328D01*
X76620714Y-55546185D02*
X76692142Y-55474757D01*
X76692142Y-55474757D02*
X76835000Y-55403328D01*
X76835000Y-55403328D02*
X77192142Y-55403328D01*
X77192142Y-55403328D02*
X77335000Y-55474757D01*
X77335000Y-55474757D02*
X77406428Y-55546185D01*
X77406428Y-55546185D02*
X77477857Y-55689042D01*
X77477857Y-55689042D02*
X77477857Y-55831900D01*
X77477857Y-55831900D02*
X77406428Y-56046185D01*
X77406428Y-56046185D02*
X76549285Y-56903328D01*
X76549285Y-56903328D02*
X77477857Y-56903328D01*
D10*
D11*
X74620714Y-70453328D02*
X74120714Y-69739042D01*
X73763571Y-70453328D02*
X73763571Y-68953328D01*
X73763571Y-68953328D02*
X74335000Y-68953328D01*
X74335000Y-68953328D02*
X74477857Y-69024757D01*
X74477857Y-69024757D02*
X74549286Y-69096185D01*
X74549286Y-69096185D02*
X74620714Y-69239042D01*
X74620714Y-69239042D02*
X74620714Y-69453328D01*
X74620714Y-69453328D02*
X74549286Y-69596185D01*
X74549286Y-69596185D02*
X74477857Y-69667614D01*
X74477857Y-69667614D02*
X74335000Y-69739042D01*
X74335000Y-69739042D02*
X73763571Y-69739042D01*
X75120714Y-68953328D02*
X76049286Y-68953328D01*
X76049286Y-68953328D02*
X75549286Y-69524757D01*
X75549286Y-69524757D02*
X75763571Y-69524757D01*
X75763571Y-69524757D02*
X75906429Y-69596185D01*
X75906429Y-69596185D02*
X75977857Y-69667614D01*
X75977857Y-69667614D02*
X76049286Y-69810471D01*
X76049286Y-69810471D02*
X76049286Y-70167614D01*
X76049286Y-70167614D02*
X75977857Y-70310471D01*
X75977857Y-70310471D02*
X75906429Y-70381900D01*
X75906429Y-70381900D02*
X75763571Y-70453328D01*
X75763571Y-70453328D02*
X75335000Y-70453328D01*
X75335000Y-70453328D02*
X75192143Y-70381900D01*
X75192143Y-70381900D02*
X75120714Y-70310471D01*
X76620714Y-69096185D02*
X76692142Y-69024757D01*
X76692142Y-69024757D02*
X76835000Y-68953328D01*
X76835000Y-68953328D02*
X77192142Y-68953328D01*
X77192142Y-68953328D02*
X77335000Y-69024757D01*
X77335000Y-69024757D02*
X77406428Y-69096185D01*
X77406428Y-69096185D02*
X77477857Y-69239042D01*
X77477857Y-69239042D02*
X77477857Y-69381900D01*
X77477857Y-69381900D02*
X77406428Y-69596185D01*
X77406428Y-69596185D02*
X76549285Y-70453328D01*
X76549285Y-70453328D02*
X77477857Y-70453328D01*
D10*
D11*
X105525000Y-28535471D02*
X105453572Y-28606900D01*
X105453572Y-28606900D02*
X105239286Y-28678328D01*
X105239286Y-28678328D02*
X105096429Y-28678328D01*
X105096429Y-28678328D02*
X104882143Y-28606900D01*
X104882143Y-28606900D02*
X104739286Y-28464042D01*
X104739286Y-28464042D02*
X104667857Y-28321185D01*
X104667857Y-28321185D02*
X104596429Y-28035471D01*
X104596429Y-28035471D02*
X104596429Y-27821185D01*
X104596429Y-27821185D02*
X104667857Y-27535471D01*
X104667857Y-27535471D02*
X104739286Y-27392614D01*
X104739286Y-27392614D02*
X104882143Y-27249757D01*
X104882143Y-27249757D02*
X105096429Y-27178328D01*
X105096429Y-27178328D02*
X105239286Y-27178328D01*
X105239286Y-27178328D02*
X105453572Y-27249757D01*
X105453572Y-27249757D02*
X105525000Y-27321185D01*
X106953572Y-28678328D02*
X106096429Y-28678328D01*
X106525000Y-28678328D02*
X106525000Y-27178328D01*
X106525000Y-27178328D02*
X106382143Y-27392614D01*
X106382143Y-27392614D02*
X106239286Y-27535471D01*
X106239286Y-27535471D02*
X106096429Y-27606900D01*
D10*
D11*
X42950714Y-77953328D02*
X42450714Y-77239042D01*
X42093571Y-77953328D02*
X42093571Y-76453328D01*
X42093571Y-76453328D02*
X42665000Y-76453328D01*
X42665000Y-76453328D02*
X42807857Y-76524757D01*
X42807857Y-76524757D02*
X42879286Y-76596185D01*
X42879286Y-76596185D02*
X42950714Y-76739042D01*
X42950714Y-76739042D02*
X42950714Y-76953328D01*
X42950714Y-76953328D02*
X42879286Y-77096185D01*
X42879286Y-77096185D02*
X42807857Y-77167614D01*
X42807857Y-77167614D02*
X42665000Y-77239042D01*
X42665000Y-77239042D02*
X42093571Y-77239042D01*
X43450714Y-76453328D02*
X44379286Y-76453328D01*
X44379286Y-76453328D02*
X43879286Y-77024757D01*
X43879286Y-77024757D02*
X44093571Y-77024757D01*
X44093571Y-77024757D02*
X44236429Y-77096185D01*
X44236429Y-77096185D02*
X44307857Y-77167614D01*
X44307857Y-77167614D02*
X44379286Y-77310471D01*
X44379286Y-77310471D02*
X44379286Y-77667614D01*
X44379286Y-77667614D02*
X44307857Y-77810471D01*
X44307857Y-77810471D02*
X44236429Y-77881900D01*
X44236429Y-77881900D02*
X44093571Y-77953328D01*
X44093571Y-77953328D02*
X43665000Y-77953328D01*
X43665000Y-77953328D02*
X43522143Y-77881900D01*
X43522143Y-77881900D02*
X43450714Y-77810471D01*
X45807857Y-77953328D02*
X44950714Y-77953328D01*
X45379285Y-77953328D02*
X45379285Y-76453328D01*
X45379285Y-76453328D02*
X45236428Y-76667614D01*
X45236428Y-76667614D02*
X45093571Y-76810471D01*
X45093571Y-76810471D02*
X44950714Y-76881900D01*
D10*
D11*
X84857142Y-30123328D02*
X84857142Y-31337614D01*
X84857142Y-31337614D02*
X84928571Y-31480471D01*
X84928571Y-31480471D02*
X85000000Y-31551900D01*
X85000000Y-31551900D02*
X85142857Y-31623328D01*
X85142857Y-31623328D02*
X85428571Y-31623328D01*
X85428571Y-31623328D02*
X85571428Y-31551900D01*
X85571428Y-31551900D02*
X85642857Y-31480471D01*
X85642857Y-31480471D02*
X85714285Y-31337614D01*
X85714285Y-31337614D02*
X85714285Y-30123328D01*
X87214286Y-31623328D02*
X86357143Y-31623328D01*
X86785714Y-31623328D02*
X86785714Y-30123328D01*
X86785714Y-30123328D02*
X86642857Y-30337614D01*
X86642857Y-30337614D02*
X86500000Y-30480471D01*
X86500000Y-30480471D02*
X86357143Y-30551900D01*
D10*
D11*
X51035714Y-62903328D02*
X50535714Y-62189042D01*
X50178571Y-62903328D02*
X50178571Y-61403328D01*
X50178571Y-61403328D02*
X50750000Y-61403328D01*
X50750000Y-61403328D02*
X50892857Y-61474757D01*
X50892857Y-61474757D02*
X50964286Y-61546185D01*
X50964286Y-61546185D02*
X51035714Y-61689042D01*
X51035714Y-61689042D02*
X51035714Y-61903328D01*
X51035714Y-61903328D02*
X50964286Y-62046185D01*
X50964286Y-62046185D02*
X50892857Y-62117614D01*
X50892857Y-62117614D02*
X50750000Y-62189042D01*
X50750000Y-62189042D02*
X50178571Y-62189042D01*
X51607143Y-61546185D02*
X51678571Y-61474757D01*
X51678571Y-61474757D02*
X51821429Y-61403328D01*
X51821429Y-61403328D02*
X52178571Y-61403328D01*
X52178571Y-61403328D02*
X52321429Y-61474757D01*
X52321429Y-61474757D02*
X52392857Y-61546185D01*
X52392857Y-61546185D02*
X52464286Y-61689042D01*
X52464286Y-61689042D02*
X52464286Y-61831900D01*
X52464286Y-61831900D02*
X52392857Y-62046185D01*
X52392857Y-62046185D02*
X51535714Y-62903328D01*
X51535714Y-62903328D02*
X52464286Y-62903328D01*
X53892857Y-62903328D02*
X53035714Y-62903328D01*
X53464285Y-62903328D02*
X53464285Y-61403328D01*
X53464285Y-61403328D02*
X53321428Y-61617614D01*
X53321428Y-61617614D02*
X53178571Y-61760471D01*
X53178571Y-61760471D02*
X53035714Y-61831900D01*
D10*
D11*
X27525000Y-55178328D02*
X27525000Y-56249757D01*
X27525000Y-56249757D02*
X27453571Y-56464042D01*
X27453571Y-56464042D02*
X27310714Y-56606900D01*
X27310714Y-56606900D02*
X27096428Y-56678328D01*
X27096428Y-56678328D02*
X26953571Y-56678328D01*
X28167857Y-55321185D02*
X28239285Y-55249757D01*
X28239285Y-55249757D02*
X28382143Y-55178328D01*
X28382143Y-55178328D02*
X28739285Y-55178328D01*
X28739285Y-55178328D02*
X28882143Y-55249757D01*
X28882143Y-55249757D02*
X28953571Y-55321185D01*
X28953571Y-55321185D02*
X29025000Y-55464042D01*
X29025000Y-55464042D02*
X29025000Y-55606900D01*
X29025000Y-55606900D02*
X28953571Y-55821185D01*
X28953571Y-55821185D02*
X28096428Y-56678328D01*
X28096428Y-56678328D02*
X29025000Y-56678328D01*
D12*
%TO.P,C2,1*%
%TO.N,+5V*%
X96500000Y-56000000D03*
%TO.P,C2,2*%
%TO.N,GND*%
X101500000Y-56000000D03*
%TD*%
%TO.P,R32,1*%
%TO.N,/FB3*%
X62190000Y-76000000D03*
%TO.P,R32,2*%
%TO.N,GND*%
X69810000Y-76000000D03*
%TD*%
%TO.P,R12,1*%
%TO.N,/FB1*%
X62190000Y-24000000D03*
%TO.P,R12,2*%
%TO.N,GND*%
X69810000Y-24000000D03*
%TD*%
%TO.P,C1,1*%
%TO.N,+5V*%
X96500000Y-28000000D03*
%TO.P,C1,2*%
%TO.N,GND*%
X101500000Y-28000000D03*
%TD*%
D13*
%TO.P,U1,1*%
%TO.N,/I_SENSE1*%
X82190000Y-37190000D03*
D14*
%TO.P,U1,2*%
%TO.N,/FB1*%
X82190000Y-39730000D03*
%TO.P,U1,3*%
%TO.N,/RET1*%
X82190000Y-42270000D03*
%TO.P,U1,4*%
%TO.N,GND*%
X82190000Y-44810000D03*
%TO.P,U1,5*%
%TO.N,/RET2*%
X89810000Y-44810000D03*
%TO.P,U1,6*%
%TO.N,/FB2*%
X89810000Y-42270000D03*
%TO.P,U1,7*%
%TO.N,/I_SENSE2*%
X89810000Y-39730000D03*
%TO.P,U1,8*%
%TO.N,+5V*%
X89810000Y-37190000D03*
%TD*%
D15*
%TO.P,J3,1*%
%TO.N,/RET3*%
X37540000Y-82000000D03*
D16*
%TO.P,J3,2*%
%TO.N,GND*%
X32460000Y-82000000D03*
%TD*%
D15*
%TO.P,J1,1*%
%TO.N,/RET1*%
X37540000Y-30000000D03*
D16*
%TO.P,J1,2*%
%TO.N,GND*%
X32460000Y-30000000D03*
%TD*%
D12*
%TO.P,R23,1*%
%TO.N,/FB2*%
X62190000Y-62000000D03*
%TO.P,R23,2*%
%TO.N,/I_SENSE2*%
X69810000Y-62000000D03*
%TD*%
D15*
%TO.P,J2,1*%
%TO.N,/RET2*%
X37540000Y-56000000D03*
D16*
%TO.P,J2,2*%
%TO.N,GND*%
X32460000Y-56000000D03*
%TD*%
D12*
%TO.P,R31,1*%
%TO.N,/RET3*%
X48190000Y-82000000D03*
%TO.P,R31,2*%
%TO.N,GND*%
X55810000Y-82000000D03*
%TD*%
%TO.P,R33,1*%
%TO.N,/FB3*%
X62190000Y-88000000D03*
%TO.P,R33,2*%
%TO.N,/I_SENSE3*%
X69810000Y-88000000D03*
%TD*%
%TO.P,R13,1*%
%TO.N,/FB1*%
X62190000Y-36000000D03*
%TO.P,R13,2*%
%TO.N,/I_SENSE1*%
X69810000Y-36000000D03*
%TD*%
%TO.P,R22,1*%
%TO.N,/FB2*%
X62190000Y-50000000D03*
%TO.P,R22,2*%
%TO.N,GND*%
X69810000Y-50000000D03*
%TD*%
%TO.P,R21,1*%
%TO.N,/RET2*%
X48190000Y-56000000D03*
%TO.P,R21,2*%
%TO.N,GND*%
X55810000Y-56000000D03*
%TD*%
%TO.P,R11,1*%
%TO.N,/RET1*%
X48190000Y-30000000D03*
%TO.P,R11,2*%
%TO.N,GND*%
X55810000Y-30000000D03*
%TD*%
D13*
%TO.P,U2,1*%
%TO.N,/I_SENSE3*%
X82190000Y-68190000D03*
D14*
%TO.P,U2,2*%
%TO.N,/FB3*%
X82190000Y-70730000D03*
%TO.P,U2,3*%
%TO.N,/RET3*%
X82190000Y-73270000D03*
%TO.P,U2,4*%
%TO.N,GND*%
X82190000Y-75810000D03*
%TO.P,U2,5*%
X89810000Y-75810000D03*
%TO.P,U2,6*%
%TO.N,/U2B_FB*%
X89810000Y-73270000D03*
%TO.P,U2,7*%
X89810000Y-70730000D03*
%TO.P,U2,8*%
%TO.N,+5V*%
X89810000Y-68190000D03*
%TD*%
D17*
%TO.P,J4,1*%
%TO.N,+5V*%
X125000000Y-48920000D03*
D18*
%TO.P,J4,2*%
%TO.N,/I_SENSE1*%
X125000000Y-51460000D03*
%TO.P,J4,3*%
%TO.N,/I_SENSE2*%
X125000000Y-54000000D03*
%TO.P,J4,4*%
%TO.N,/I_SENSE3*%
X125000000Y-56540000D03*
%TO.P,J4,5*%
%TO.N,GND*%
X125000000Y-59080000D03*
%TD*%
D19*
%TO.N,+5V*%
X96500000Y-28000000D02*
X92311700Y-32188300D01*
X102370600Y-58101700D02*
X98601700Y-58101700D01*
X92311700Y-68190000D02*
X92311700Y-60188300D01*
X92311700Y-60188300D02*
X96500000Y-56000000D01*
X89810000Y-68190000D02*
X92311700Y-68190000D01*
X98601700Y-58101700D02*
X96500000Y-56000000D01*
X92311700Y-32188300D02*
X92311700Y-37190000D01*
X111552300Y-48920000D02*
X102370600Y-58101700D01*
X125000000Y-48920000D02*
X111552300Y-48920000D01*
X89810000Y-37190000D02*
X92311700Y-37190000D01*
%TO.N,GND*%
X101500000Y-56000000D02*
X93150200Y-47650200D01*
X93150200Y-47650200D02*
X87531900Y-47650200D01*
X82190000Y-44810000D02*
X84691700Y-44810000D01*
X55810000Y-30000000D02*
X53008300Y-27198300D01*
X87531900Y-47650200D02*
X84691700Y-44810000D01*
X53008300Y-27198300D02*
X35261700Y-27198300D01*
X35261700Y-27198300D02*
X32460000Y-30000000D01*
%TD*%
%TA.AperFunction,NonConductor*%
G36*
X139442539Y-20520185D02*
G01*
X139488294Y-20572989D01*
X139499500Y-20624500D01*
X139499500Y-99375500D01*
X139479815Y-99442539D01*
X139427011Y-99488294D01*
X139375500Y-99499500D01*
X20624500Y-99499500D01*
X20557461Y-99479815D01*
X20511706Y-99427011D01*
X20500500Y-99375500D01*
X20500500Y-94361655D01*
X63223071Y-94361655D01*
X68850082Y-94361655D01*
X68850082Y-90946103D01*
X63223071Y-90946103D01*
X63223071Y-94361655D01*
X20500500Y-94361655D01*
X20500500Y-87874038D01*
X60589500Y-87874038D01*
X60589500Y-88125961D01*
X60628910Y-88374785D01*
X60706760Y-88614383D01*
X60821132Y-88838848D01*
X60969201Y-89042649D01*
X60969205Y-89042654D01*
X61147345Y-89220794D01*
X61147350Y-89220798D01*
X61325117Y-89349952D01*
X61351155Y-89368870D01*
X61494184Y-89441747D01*
X61575616Y-89483239D01*
X61575618Y-89483239D01*
X61575621Y-89483241D01*
X61815215Y-89561090D01*
X62064038Y-89600500D01*
X62064039Y-89600500D01*
X62315961Y-89600500D01*
X62315962Y-89600500D01*
X62564785Y-89561090D01*
X62804379Y-89483241D01*
X63028845Y-89368870D01*
X63232656Y-89220793D01*
X63410793Y-89042656D01*
X63558870Y-88838845D01*
X63673241Y-88614379D01*
X63751090Y-88374785D01*
X63790500Y-88125962D01*
X63790500Y-87874038D01*
X68209500Y-87874038D01*
X68209500Y-88125961D01*
X68248910Y-88374785D01*
X68326760Y-88614383D01*
X68441132Y-88838848D01*
X68589201Y-89042649D01*
X68589205Y-89042654D01*
X68767345Y-89220794D01*
X68767350Y-89220798D01*
X68945117Y-89349952D01*
X68971155Y-89368870D01*
X69114184Y-89441747D01*
X69195616Y-89483239D01*
X69195618Y-89483239D01*
X69195621Y-89483241D01*
X69435215Y-89561090D01*
X69684038Y-89600500D01*
X69684039Y-89600500D01*
X69935961Y-89600500D01*
X69935962Y-89600500D01*
X70184785Y-89561090D01*
X70424379Y-89483241D01*
X70648845Y-89368870D01*
X70852656Y-89220793D01*
X71030793Y-89042656D01*
X71178870Y-88838845D01*
X71293241Y-88614379D01*
X71371090Y-88374785D01*
X71410500Y-88125962D01*
X71410500Y-87874038D01*
X71371090Y-87625215D01*
X71293241Y-87385621D01*
X71293239Y-87385618D01*
X71293239Y-87385616D01*
X71251747Y-87304184D01*
X71178870Y-87161155D01*
X71159952Y-87135117D01*
X71030798Y-86957350D01*
X71030794Y-86957345D01*
X70852654Y-86779205D01*
X70852649Y-86779201D01*
X70648848Y-86631132D01*
X70648847Y-86631131D01*
X70648845Y-86631130D01*
X70578747Y-86595413D01*
X70424383Y-86516760D01*
X70184785Y-86438910D01*
X69935962Y-86399500D01*
X69684038Y-86399500D01*
X69559626Y-86419205D01*
X69435214Y-86438910D01*
X69195616Y-86516760D01*
X68971151Y-86631132D01*
X68767350Y-86779201D01*
X68767345Y-86779205D01*
X68589205Y-86957345D01*
X68589201Y-86957350D01*
X68441132Y-87161151D01*
X68326760Y-87385616D01*
X68248910Y-87625214D01*
X68209500Y-87874038D01*
X63790500Y-87874038D01*
X63751090Y-87625215D01*
X63673241Y-87385621D01*
X63673239Y-87385618D01*
X63673239Y-87385616D01*
X63631747Y-87304184D01*
X63558870Y-87161155D01*
X63539952Y-87135117D01*
X63410798Y-86957350D01*
X63410794Y-86957345D01*
X63232654Y-86779205D01*
X63232649Y-86779201D01*
X63028848Y-86631132D01*
X63028847Y-86631131D01*
X63028845Y-86631130D01*
X62958747Y-86595413D01*
X62804383Y-86516760D01*
X62564785Y-86438910D01*
X62315962Y-86399500D01*
X62064038Y-86399500D01*
X61939626Y-86419205D01*
X61815214Y-86438910D01*
X61575616Y-86516760D01*
X61351151Y-86631132D01*
X61147350Y-86779201D01*
X61147345Y-86779205D01*
X60969205Y-86957345D01*
X60969201Y-86957350D01*
X60821132Y-87161151D01*
X60706760Y-87385616D01*
X60628910Y-87625214D01*
X60589500Y-87874038D01*
X20500500Y-87874038D01*
X20500500Y-80221187D01*
X25998071Y-80221187D01*
X25998071Y-83635553D01*
X29982225Y-83635553D01*
X29982225Y-82583140D01*
X30001910Y-82516101D01*
X30054714Y-82470346D01*
X30123872Y-82460402D01*
X30187428Y-82489427D01*
X30225202Y-82548205D01*
X30226000Y-82551047D01*
X30276913Y-82741060D01*
X30392314Y-83019661D01*
X30392318Y-83019671D01*
X30543099Y-83280831D01*
X30726679Y-83520078D01*
X30726685Y-83520085D01*
X30939914Y-83733314D01*
X30939921Y-83733320D01*
X31179168Y-83916900D01*
X31440328Y-84067681D01*
X31440329Y-84067681D01*
X31440332Y-84067683D01*
X31626072Y-84144619D01*
X31718939Y-84183086D01*
X31718940Y-84183086D01*
X31718942Y-84183087D01*
X32010232Y-84261138D01*
X32309217Y-84300500D01*
X32309224Y-84300500D01*
X32610776Y-84300500D01*
X32610783Y-84300500D01*
X32909768Y-84261138D01*
X33201058Y-84183087D01*
X33479668Y-84067683D01*
X33740832Y-83916900D01*
X33980080Y-83733319D01*
X34193319Y-83520080D01*
X34376900Y-83280832D01*
X34527683Y-83019668D01*
X34643087Y-82741058D01*
X34721138Y-82449768D01*
X34760500Y-82150783D01*
X34760500Y-81849217D01*
X34721138Y-81550232D01*
X34643087Y-81258942D01*
X34527683Y-80980332D01*
X34514414Y-80957350D01*
X34376900Y-80719168D01*
X34229486Y-80527053D01*
X34193320Y-80479921D01*
X34193314Y-80479914D01*
X34168439Y-80455039D01*
X35239500Y-80455039D01*
X35239500Y-83544960D01*
X35254630Y-83679249D01*
X35254631Y-83679254D01*
X35314211Y-83849523D01*
X35356547Y-83916900D01*
X35410184Y-84002262D01*
X35537738Y-84129816D01*
X35690478Y-84225789D01*
X35791500Y-84261138D01*
X35860745Y-84285368D01*
X35860750Y-84285369D01*
X35951246Y-84295565D01*
X35995040Y-84300499D01*
X35995043Y-84300500D01*
X35995046Y-84300500D01*
X39084957Y-84300500D01*
X39084958Y-84300499D01*
X39152104Y-84292934D01*
X39219249Y-84285369D01*
X39219252Y-84285368D01*
X39219255Y-84285368D01*
X39389522Y-84225789D01*
X39542262Y-84129816D01*
X39669816Y-84002262D01*
X39765789Y-83849522D01*
X39821415Y-83690553D01*
X93884917Y-83690553D01*
X98156511Y-83690553D01*
X98156511Y-80276103D01*
X93884917Y-80276103D01*
X93884917Y-83690553D01*
X39821415Y-83690553D01*
X39825368Y-83679255D01*
X39840500Y-83544954D01*
X39840500Y-81874038D01*
X46589500Y-81874038D01*
X46589500Y-82125961D01*
X46628910Y-82374785D01*
X46706760Y-82614383D01*
X46821132Y-82838848D01*
X46969201Y-83042649D01*
X46969205Y-83042654D01*
X47147345Y-83220794D01*
X47147350Y-83220798D01*
X47325117Y-83349952D01*
X47351155Y-83368870D01*
X47494184Y-83441747D01*
X47575616Y-83483239D01*
X47575618Y-83483239D01*
X47575621Y-83483241D01*
X47815215Y-83561090D01*
X48064038Y-83600500D01*
X48064039Y-83600500D01*
X48315961Y-83600500D01*
X48315962Y-83600500D01*
X48564785Y-83561090D01*
X48804379Y-83483241D01*
X49028845Y-83368870D01*
X49232656Y-83220793D01*
X49410793Y-83042656D01*
X49558870Y-82838845D01*
X49673241Y-82614379D01*
X49751090Y-82374785D01*
X49790500Y-82125962D01*
X49790500Y-81874038D01*
X54209500Y-81874038D01*
X54209500Y-82125961D01*
X54248910Y-82374785D01*
X54326760Y-82614383D01*
X54441132Y-82838848D01*
X54589201Y-83042649D01*
X54589205Y-83042654D01*
X54767345Y-83220794D01*
X54767350Y-83220798D01*
X54945117Y-83349952D01*
X54971155Y-83368870D01*
X55114184Y-83441747D01*
X55195616Y-83483239D01*
X55195618Y-83483239D01*
X55195621Y-83483241D01*
X55435215Y-83561090D01*
X55684038Y-83600500D01*
X55684039Y-83600500D01*
X55935961Y-83600500D01*
X55935962Y-83600500D01*
X56184785Y-83561090D01*
X56424379Y-83483241D01*
X56648845Y-83368870D01*
X56852656Y-83220793D01*
X57030793Y-83042656D01*
X57178870Y-82838845D01*
X57293241Y-82614379D01*
X57371090Y-82374785D01*
X57410500Y-82125962D01*
X57410500Y-81874038D01*
X57371090Y-81625215D01*
X57293241Y-81385621D01*
X57293239Y-81385618D01*
X57293239Y-81385616D01*
X57228692Y-81258937D01*
X57178870Y-81161155D01*
X57159952Y-81135117D01*
X57030798Y-80957350D01*
X57030794Y-80957345D01*
X56852654Y-80779205D01*
X56852649Y-80779201D01*
X56648848Y-80631132D01*
X56648847Y-80631131D01*
X56648845Y-80631130D01*
X56578747Y-80595413D01*
X56424383Y-80516760D01*
X56184785Y-80438910D01*
X55935962Y-80399500D01*
X55684038Y-80399500D01*
X55559626Y-80419205D01*
X55435214Y-80438910D01*
X55195616Y-80516760D01*
X54971151Y-80631132D01*
X54767350Y-80779201D01*
X54767345Y-80779205D01*
X54589205Y-80957345D01*
X54589201Y-80957350D01*
X54441132Y-81161151D01*
X54326760Y-81385616D01*
X54248910Y-81625214D01*
X54209500Y-81874038D01*
X49790500Y-81874038D01*
X49751090Y-81625215D01*
X49673241Y-81385621D01*
X49673239Y-81385618D01*
X49673239Y-81385616D01*
X49608692Y-81258937D01*
X49558870Y-81161155D01*
X49539952Y-81135117D01*
X49410798Y-80957350D01*
X49410794Y-80957345D01*
X49232654Y-80779205D01*
X49232649Y-80779201D01*
X49028848Y-80631132D01*
X49028847Y-80631131D01*
X49028845Y-80631130D01*
X48958747Y-80595413D01*
X48804383Y-80516760D01*
X48564785Y-80438910D01*
X48315962Y-80399500D01*
X48064038Y-80399500D01*
X47939626Y-80419205D01*
X47815214Y-80438910D01*
X47575616Y-80516760D01*
X47351151Y-80631132D01*
X47147350Y-80779201D01*
X47147345Y-80779205D01*
X46969205Y-80957345D01*
X46969201Y-80957350D01*
X46821132Y-81161151D01*
X46706760Y-81385616D01*
X46628910Y-81625214D01*
X46589500Y-81874038D01*
X39840500Y-81874038D01*
X39840500Y-80455046D01*
X39825368Y-80320745D01*
X39825367Y-80320742D01*
X39806106Y-80265695D01*
X39806105Y-80265692D01*
X39765790Y-80150480D01*
X39765789Y-80150478D01*
X39669816Y-79997738D01*
X39542262Y-79870184D01*
X39457482Y-79816913D01*
X39389523Y-79774211D01*
X39219254Y-79714631D01*
X39219249Y-79714630D01*
X39084960Y-79699500D01*
X39084954Y-79699500D01*
X35995046Y-79699500D01*
X35995039Y-79699500D01*
X35860750Y-79714630D01*
X35860745Y-79714631D01*
X35690476Y-79774211D01*
X35537737Y-79870184D01*
X35410184Y-79997737D01*
X35314211Y-80150476D01*
X35254631Y-80320745D01*
X35254630Y-80320750D01*
X35239500Y-80455039D01*
X34168439Y-80455039D01*
X33980085Y-80266685D01*
X33980078Y-80266679D01*
X33740831Y-80083099D01*
X33479671Y-79932318D01*
X33479661Y-79932314D01*
X33201060Y-79816913D01*
X32909766Y-79738861D01*
X32610793Y-79699501D01*
X32610788Y-79699500D01*
X32610783Y-79699500D01*
X32309217Y-79699500D01*
X32309211Y-79699500D01*
X32309206Y-79699501D01*
X32010233Y-79738861D01*
X31718939Y-79816913D01*
X31440338Y-79932314D01*
X31440328Y-79932318D01*
X31179168Y-80083099D01*
X30939921Y-80266679D01*
X30939914Y-80266685D01*
X30726685Y-80479914D01*
X30726679Y-80479921D01*
X30543099Y-80719168D01*
X30392318Y-80980328D01*
X30392314Y-80980338D01*
X30276914Y-81258937D01*
X30276913Y-81258942D01*
X30242970Y-81385621D01*
X30226000Y-81448953D01*
X30189635Y-81508613D01*
X30126788Y-81539142D01*
X30057412Y-81530847D01*
X30003534Y-81486362D01*
X29982260Y-81419810D01*
X29982225Y-81416859D01*
X29982225Y-80221187D01*
X25998071Y-80221187D01*
X20500500Y-80221187D01*
X20500500Y-78911655D01*
X41138071Y-78911655D01*
X46763357Y-78911655D01*
X46763357Y-75874038D01*
X60589500Y-75874038D01*
X60589500Y-76125961D01*
X60628910Y-76374785D01*
X60706760Y-76614383D01*
X60821132Y-76838848D01*
X60969201Y-77042649D01*
X60969205Y-77042654D01*
X61147345Y-77220794D01*
X61147350Y-77220798D01*
X61247060Y-77293241D01*
X61351155Y-77368870D01*
X61432859Y-77410500D01*
X61575616Y-77483239D01*
X61575618Y-77483239D01*
X61575621Y-77483241D01*
X61815215Y-77561090D01*
X62064038Y-77600500D01*
X62064039Y-77600500D01*
X62315961Y-77600500D01*
X62315962Y-77600500D01*
X62564785Y-77561090D01*
X62804379Y-77483241D01*
X63028845Y-77368870D01*
X63232656Y-77220793D01*
X63410793Y-77042656D01*
X63558870Y-76838845D01*
X63673241Y-76614379D01*
X63751090Y-76374785D01*
X63790500Y-76125962D01*
X63790500Y-75874038D01*
X68209500Y-75874038D01*
X68209500Y-76125961D01*
X68248910Y-76374785D01*
X68326760Y-76614383D01*
X68441132Y-76838848D01*
X68589201Y-77042649D01*
X68589205Y-77042654D01*
X68767345Y-77220794D01*
X68767350Y-77220798D01*
X68867060Y-77293241D01*
X68971155Y-77368870D01*
X69052859Y-77410500D01*
X69195616Y-77483239D01*
X69195618Y-77483239D01*
X69195621Y-77483241D01*
X69435215Y-77561090D01*
X69684038Y-77600500D01*
X69684039Y-77600500D01*
X69935961Y-77600500D01*
X69935962Y-77600500D01*
X70184785Y-77561090D01*
X70424379Y-77483241D01*
X70648845Y-77368870D01*
X70852656Y-77220793D01*
X71030793Y-77042656D01*
X71178870Y-76838845D01*
X71293241Y-76614379D01*
X71371090Y-76374785D01*
X71410500Y-76125962D01*
X71410500Y-75874038D01*
X71371090Y-75625215D01*
X71293241Y-75385621D01*
X71293239Y-75385618D01*
X71293239Y-75385616D01*
X71196431Y-75195621D01*
X71178870Y-75161155D01*
X71159952Y-75135117D01*
X71030798Y-74957350D01*
X71030794Y-74957345D01*
X70852654Y-74779205D01*
X70852649Y-74779201D01*
X70648848Y-74631132D01*
X70648847Y-74631131D01*
X70648845Y-74631130D01*
X70578747Y-74595413D01*
X70424383Y-74516760D01*
X70184785Y-74438910D01*
X69935962Y-74399500D01*
X69684038Y-74399500D01*
X69559626Y-74419205D01*
X69435214Y-74438910D01*
X69195616Y-74516760D01*
X68971151Y-74631132D01*
X68767350Y-74779201D01*
X68767345Y-74779205D01*
X68589205Y-74957345D01*
X68589201Y-74957350D01*
X68441132Y-75161151D01*
X68326760Y-75385616D01*
X68248910Y-75625214D01*
X68209500Y-75874038D01*
X63790500Y-75874038D01*
X63751090Y-75625215D01*
X63673241Y-75385621D01*
X63673239Y-75385618D01*
X63673239Y-75385616D01*
X63576431Y-75195621D01*
X63558870Y-75161155D01*
X63539952Y-75135117D01*
X63410798Y-74957350D01*
X63410794Y-74957345D01*
X63232654Y-74779205D01*
X63232649Y-74779201D01*
X63028848Y-74631132D01*
X63028847Y-74631131D01*
X63028845Y-74631130D01*
X62958747Y-74595413D01*
X62804383Y-74516760D01*
X62564785Y-74438910D01*
X62315962Y-74399500D01*
X62064038Y-74399500D01*
X61939626Y-74419205D01*
X61815214Y-74438910D01*
X61575616Y-74516760D01*
X61351151Y-74631132D01*
X61147350Y-74779201D01*
X61147345Y-74779205D01*
X60969205Y-74957345D01*
X60969201Y-74957350D01*
X60821132Y-75161151D01*
X60706760Y-75385616D01*
X60628910Y-75625214D01*
X60589500Y-75874038D01*
X46763357Y-75874038D01*
X46763357Y-75494984D01*
X41138071Y-75494984D01*
X41138071Y-78911655D01*
X20500500Y-78911655D01*
X20500500Y-71411655D01*
X72808071Y-71411655D01*
X78435082Y-71411655D01*
X78435082Y-67996103D01*
X72808071Y-67996103D01*
X72808071Y-71411655D01*
X20500500Y-71411655D01*
X20500500Y-68361655D01*
X63223071Y-68361655D01*
X68850082Y-68361655D01*
X68850082Y-67588392D01*
X80189500Y-67588392D01*
X80189500Y-68791608D01*
X80194502Y-68842398D01*
X80204699Y-68945932D01*
X80204700Y-68945934D01*
X80264768Y-69143954D01*
X80362315Y-69326450D01*
X80418751Y-69395218D01*
X80493590Y-69486410D01*
X80542049Y-69526180D01*
X80581383Y-69583926D01*
X80583254Y-69653770D01*
X80563703Y-69694918D01*
X80421129Y-69891155D01*
X80306760Y-70115616D01*
X80228910Y-70355214D01*
X80189500Y-70604038D01*
X80189500Y-70855961D01*
X80228910Y-71104785D01*
X80306760Y-71344383D01*
X80421132Y-71568848D01*
X80569201Y-71772649D01*
X80569205Y-71772654D01*
X80708870Y-71912319D01*
X80742355Y-71973642D01*
X80737371Y-72043334D01*
X80708870Y-72087681D01*
X80569205Y-72227345D01*
X80569201Y-72227350D01*
X80421132Y-72431151D01*
X80306760Y-72655616D01*
X80228910Y-72895214D01*
X80189500Y-73144038D01*
X80189500Y-73395961D01*
X80228910Y-73644785D01*
X80306760Y-73884383D01*
X80421132Y-74108848D01*
X80569201Y-74312649D01*
X80569205Y-74312654D01*
X80708870Y-74452319D01*
X80742355Y-74513642D01*
X80737371Y-74583334D01*
X80708870Y-74627681D01*
X80569205Y-74767345D01*
X80569201Y-74767350D01*
X80421132Y-74971151D01*
X80306760Y-75195616D01*
X80228910Y-75435214D01*
X80189500Y-75684038D01*
X80189500Y-75935961D01*
X80228910Y-76184785D01*
X80306760Y-76424383D01*
X80421132Y-76648848D01*
X80569201Y-76852649D01*
X80569205Y-76852654D01*
X80747345Y-77030794D01*
X80747350Y-77030798D01*
X80925117Y-77159952D01*
X80951155Y-77178870D01*
X81094184Y-77251747D01*
X81175616Y-77293239D01*
X81175618Y-77293239D01*
X81175621Y-77293241D01*
X81415215Y-77371090D01*
X81664038Y-77410500D01*
X81664039Y-77410500D01*
X82715961Y-77410500D01*
X82715962Y-77410500D01*
X82964785Y-77371090D01*
X83204379Y-77293241D01*
X83428845Y-77178870D01*
X83632656Y-77030793D01*
X83810793Y-76852656D01*
X83958870Y-76648845D01*
X84073241Y-76424379D01*
X84151090Y-76184785D01*
X84190500Y-75935962D01*
X84190500Y-75684038D01*
X84151090Y-75435215D01*
X84073241Y-75195621D01*
X84073239Y-75195618D01*
X84073239Y-75195616D01*
X84031747Y-75114184D01*
X83958870Y-74971155D01*
X83939952Y-74945117D01*
X83810798Y-74767350D01*
X83810794Y-74767345D01*
X83671130Y-74627681D01*
X83637645Y-74566358D01*
X83642629Y-74496666D01*
X83671130Y-74452319D01*
X83723949Y-74399500D01*
X83810793Y-74312656D01*
X83958870Y-74108845D01*
X84073241Y-73884379D01*
X84151090Y-73644785D01*
X84190500Y-73395962D01*
X84190500Y-73144038D01*
X84151090Y-72895215D01*
X84073241Y-72655621D01*
X84073239Y-72655618D01*
X84073239Y-72655616D01*
X84031747Y-72574184D01*
X83958870Y-72431155D01*
X83939952Y-72405117D01*
X83810798Y-72227350D01*
X83810794Y-72227345D01*
X83671130Y-72087681D01*
X83637645Y-72026358D01*
X83642629Y-71956666D01*
X83671130Y-71912319D01*
X83810793Y-71772656D01*
X83958870Y-71568845D01*
X84073241Y-71344379D01*
X84151090Y-71104785D01*
X84190500Y-70855962D01*
X84190500Y-70604038D01*
X84151090Y-70355215D01*
X84073241Y-70115621D01*
X84073239Y-70115618D01*
X84073239Y-70115616D01*
X84031747Y-70034184D01*
X83958870Y-69891155D01*
X83816296Y-69694918D01*
X83792816Y-69629112D01*
X83808641Y-69561058D01*
X83837948Y-69526181D01*
X83886410Y-69486410D01*
X84017685Y-69326450D01*
X84115232Y-69143954D01*
X84175300Y-68945934D01*
X84190500Y-68791608D01*
X84190500Y-67588392D01*
X84175300Y-67434066D01*
X84115232Y-67236046D01*
X84017685Y-67053550D01*
X83948462Y-66969201D01*
X83886410Y-66893589D01*
X83726452Y-66762317D01*
X83726453Y-66762317D01*
X83726450Y-66762315D01*
X83543954Y-66664768D01*
X83345934Y-66604700D01*
X83345932Y-66604699D01*
X83345934Y-66604699D01*
X83226805Y-66592966D01*
X83191608Y-66589500D01*
X81188392Y-66589500D01*
X81150298Y-66593251D01*
X81034067Y-66604699D01*
X80836043Y-66664769D01*
X80728345Y-66722336D01*
X80653550Y-66762315D01*
X80653548Y-66762316D01*
X80653547Y-66762317D01*
X80493589Y-66893589D01*
X80362317Y-67053547D01*
X80264769Y-67236043D01*
X80204699Y-67434067D01*
X80193251Y-67550298D01*
X80189500Y-67588392D01*
X68850082Y-67588392D01*
X68850082Y-64946103D01*
X63223071Y-64946103D01*
X63223071Y-68361655D01*
X20500500Y-68361655D01*
X20500500Y-63861655D01*
X49223071Y-63861655D01*
X54848357Y-63861655D01*
X54848357Y-61874038D01*
X60589500Y-61874038D01*
X60589500Y-62125961D01*
X60628910Y-62374785D01*
X60706760Y-62614383D01*
X60821132Y-62838848D01*
X60969201Y-63042649D01*
X60969205Y-63042654D01*
X61147345Y-63220794D01*
X61147350Y-63220798D01*
X61325117Y-63349952D01*
X61351155Y-63368870D01*
X61494184Y-63441747D01*
X61575616Y-63483239D01*
X61575618Y-63483239D01*
X61575621Y-63483241D01*
X61815215Y-63561090D01*
X62064038Y-63600500D01*
X62064039Y-63600500D01*
X62315961Y-63600500D01*
X62315962Y-63600500D01*
X62564785Y-63561090D01*
X62804379Y-63483241D01*
X63028845Y-63368870D01*
X63232656Y-63220793D01*
X63410793Y-63042656D01*
X63558870Y-62838845D01*
X63673241Y-62614379D01*
X63751090Y-62374785D01*
X63790500Y-62125962D01*
X63790500Y-61874038D01*
X68209500Y-61874038D01*
X68209500Y-62125961D01*
X68248910Y-62374785D01*
X68326760Y-62614383D01*
X68441132Y-62838848D01*
X68589201Y-63042649D01*
X68589205Y-63042654D01*
X68767345Y-63220794D01*
X68767350Y-63220798D01*
X68945117Y-63349952D01*
X68971155Y-63368870D01*
X69114184Y-63441747D01*
X69195616Y-63483239D01*
X69195618Y-63483239D01*
X69195621Y-63483241D01*
X69435215Y-63561090D01*
X69684038Y-63600500D01*
X69684039Y-63600500D01*
X69935961Y-63600500D01*
X69935962Y-63600500D01*
X70184785Y-63561090D01*
X70424379Y-63483241D01*
X70648845Y-63368870D01*
X70852656Y-63220793D01*
X71030793Y-63042656D01*
X71178870Y-62838845D01*
X71293241Y-62614379D01*
X71371090Y-62374785D01*
X71410500Y-62125962D01*
X71410500Y-61874038D01*
X71371090Y-61625215D01*
X71293241Y-61385621D01*
X71293239Y-61385618D01*
X71293239Y-61385616D01*
X71251747Y-61304184D01*
X71178870Y-61161155D01*
X71159952Y-61135117D01*
X71030798Y-60957350D01*
X71030794Y-60957345D01*
X70852654Y-60779205D01*
X70852649Y-60779201D01*
X70648848Y-60631132D01*
X70648847Y-60631131D01*
X70648845Y-60631130D01*
X70578747Y-60595413D01*
X70424383Y-60516760D01*
X70184785Y-60438910D01*
X69935962Y-60399500D01*
X69684038Y-60399500D01*
X69559626Y-60419205D01*
X69435214Y-60438910D01*
X69195616Y-60516760D01*
X68971151Y-60631132D01*
X68767350Y-60779201D01*
X68767345Y-60779205D01*
X68589205Y-60957345D01*
X68589201Y-60957350D01*
X68441132Y-61161151D01*
X68326760Y-61385616D01*
X68248910Y-61625214D01*
X68209500Y-61874038D01*
X63790500Y-61874038D01*
X63751090Y-61625215D01*
X63673241Y-61385621D01*
X63673239Y-61385618D01*
X63673239Y-61385616D01*
X63631747Y-61304184D01*
X63558870Y-61161155D01*
X63539952Y-61135117D01*
X63410798Y-60957350D01*
X63410794Y-60957345D01*
X63232654Y-60779205D01*
X63232649Y-60779201D01*
X63028848Y-60631132D01*
X63028847Y-60631131D01*
X63028845Y-60631130D01*
X62958747Y-60595413D01*
X62804383Y-60516760D01*
X62564785Y-60438910D01*
X62315962Y-60399500D01*
X62064038Y-60399500D01*
X61939626Y-60419205D01*
X61815214Y-60438910D01*
X61575616Y-60516760D01*
X61351151Y-60631132D01*
X61147350Y-60779201D01*
X61147345Y-60779205D01*
X60969205Y-60957345D01*
X60969201Y-60957350D01*
X60821132Y-61161151D01*
X60706760Y-61385616D01*
X60628910Y-61625214D01*
X60589500Y-61874038D01*
X54848357Y-61874038D01*
X54848357Y-60444984D01*
X49223071Y-60444984D01*
X49223071Y-63861655D01*
X20500500Y-63861655D01*
X20500500Y-54221103D01*
X25998071Y-54221103D01*
X25998071Y-57635553D01*
X29982225Y-57635553D01*
X29982225Y-56583140D01*
X30001910Y-56516101D01*
X30054714Y-56470346D01*
X30123872Y-56460402D01*
X30187428Y-56489427D01*
X30225202Y-56548205D01*
X30226000Y-56551047D01*
X30276913Y-56741060D01*
X30392314Y-57019661D01*
X30392318Y-57019671D01*
X30543099Y-57280831D01*
X30726679Y-57520078D01*
X30726685Y-57520085D01*
X30939914Y-57733314D01*
X30939921Y-57733320D01*
X31179168Y-57916900D01*
X31440328Y-58067681D01*
X31440329Y-58067681D01*
X31440332Y-58067683D01*
X31626072Y-58144619D01*
X31718939Y-58183086D01*
X31718940Y-58183086D01*
X31718942Y-58183087D01*
X32010232Y-58261138D01*
X32309217Y-58300500D01*
X32309224Y-58300500D01*
X32610776Y-58300500D01*
X32610783Y-58300500D01*
X32909768Y-58261138D01*
X33201058Y-58183087D01*
X33479668Y-58067683D01*
X33740832Y-57916900D01*
X33980080Y-57733319D01*
X34193319Y-57520080D01*
X34376900Y-57280832D01*
X34527683Y-57019668D01*
X34643087Y-56741058D01*
X34721138Y-56449768D01*
X34760500Y-56150783D01*
X34760500Y-55849217D01*
X34721138Y-55550232D01*
X34643087Y-55258942D01*
X34643082Y-55258931D01*
X34566991Y-55075231D01*
X34527683Y-54980332D01*
X34514414Y-54957350D01*
X34376900Y-54719168D01*
X34229486Y-54527053D01*
X34193320Y-54479921D01*
X34193314Y-54479914D01*
X34168439Y-54455039D01*
X35239500Y-54455039D01*
X35239500Y-57544960D01*
X35254630Y-57679249D01*
X35254631Y-57679254D01*
X35314211Y-57849523D01*
X35356547Y-57916900D01*
X35410184Y-58002262D01*
X35537738Y-58129816D01*
X35690478Y-58225789D01*
X35791500Y-58261138D01*
X35860745Y-58285368D01*
X35860750Y-58285369D01*
X35951246Y-58295565D01*
X35995040Y-58300499D01*
X35995043Y-58300500D01*
X35995046Y-58300500D01*
X39084957Y-58300500D01*
X39084958Y-58300499D01*
X39152104Y-58292934D01*
X39219249Y-58285369D01*
X39219252Y-58285368D01*
X39219255Y-58285368D01*
X39389522Y-58225789D01*
X39542262Y-58129816D01*
X39669816Y-58002262D01*
X39758165Y-57861655D01*
X72808071Y-57861655D01*
X78435082Y-57861655D01*
X78435082Y-54446103D01*
X72808071Y-54446103D01*
X72808071Y-57861655D01*
X39758165Y-57861655D01*
X39765789Y-57849522D01*
X39825368Y-57679255D01*
X39840500Y-57544954D01*
X39840500Y-55874038D01*
X46589500Y-55874038D01*
X46589500Y-56125961D01*
X46628910Y-56374785D01*
X46706760Y-56614383D01*
X46821132Y-56838848D01*
X46969201Y-57042649D01*
X46969205Y-57042654D01*
X47147345Y-57220794D01*
X47147350Y-57220798D01*
X47325117Y-57349952D01*
X47351155Y-57368870D01*
X47494184Y-57441747D01*
X47575616Y-57483239D01*
X47575618Y-57483239D01*
X47575621Y-57483241D01*
X47815215Y-57561090D01*
X48064038Y-57600500D01*
X48064039Y-57600500D01*
X48315961Y-57600500D01*
X48315962Y-57600500D01*
X48564785Y-57561090D01*
X48804379Y-57483241D01*
X49028845Y-57368870D01*
X49232656Y-57220793D01*
X49410793Y-57042656D01*
X49558870Y-56838845D01*
X49673241Y-56614379D01*
X49751090Y-56374785D01*
X49790500Y-56125962D01*
X49790500Y-55874038D01*
X54209500Y-55874038D01*
X54209500Y-56125961D01*
X54248910Y-56374785D01*
X54326760Y-56614383D01*
X54441132Y-56838848D01*
X54589201Y-57042649D01*
X54589205Y-57042654D01*
X54767345Y-57220794D01*
X54767350Y-57220798D01*
X54945117Y-57349952D01*
X54971155Y-57368870D01*
X55114184Y-57441747D01*
X55195616Y-57483239D01*
X55195618Y-57483239D01*
X55195621Y-57483241D01*
X55435215Y-57561090D01*
X55684038Y-57600500D01*
X55684039Y-57600500D01*
X55935961Y-57600500D01*
X55935962Y-57600500D01*
X56184785Y-57561090D01*
X56424379Y-57483241D01*
X56648845Y-57368870D01*
X56852656Y-57220793D01*
X57030793Y-57042656D01*
X57178870Y-56838845D01*
X57293241Y-56614379D01*
X57371090Y-56374785D01*
X57410500Y-56125962D01*
X57410500Y-55874038D01*
X57371090Y-55625215D01*
X57293241Y-55385621D01*
X57293239Y-55385618D01*
X57293239Y-55385616D01*
X57212249Y-55226666D01*
X57178870Y-55161155D01*
X57116441Y-55075229D01*
X57030798Y-54957350D01*
X57030794Y-54957345D01*
X56852654Y-54779205D01*
X56852649Y-54779201D01*
X56648848Y-54631132D01*
X56648847Y-54631131D01*
X56648845Y-54631130D01*
X56578747Y-54595413D01*
X56424383Y-54516760D01*
X56419665Y-54515227D01*
X56184785Y-54438910D01*
X55935962Y-54399500D01*
X55684038Y-54399500D01*
X55559626Y-54419205D01*
X55435214Y-54438910D01*
X55195616Y-54516760D01*
X54971151Y-54631132D01*
X54767350Y-54779201D01*
X54767345Y-54779205D01*
X54589205Y-54957345D01*
X54589201Y-54957350D01*
X54441132Y-55161151D01*
X54326760Y-55385616D01*
X54248910Y-55625214D01*
X54209500Y-55874038D01*
X49790500Y-55874038D01*
X49751090Y-55625215D01*
X49673241Y-55385621D01*
X49673239Y-55385618D01*
X49673239Y-55385616D01*
X49592249Y-55226666D01*
X49558870Y-55161155D01*
X49496441Y-55075229D01*
X49410798Y-54957350D01*
X49410794Y-54957345D01*
X49232654Y-54779205D01*
X49232649Y-54779201D01*
X49028848Y-54631132D01*
X49028847Y-54631131D01*
X49028845Y-54631130D01*
X48958747Y-54595413D01*
X48804383Y-54516760D01*
X48564785Y-54438910D01*
X48564779Y-54438909D01*
X48315962Y-54399500D01*
X48064038Y-54399500D01*
X47939626Y-54419205D01*
X47815214Y-54438910D01*
X47575616Y-54516760D01*
X47351151Y-54631132D01*
X47147350Y-54779201D01*
X47147345Y-54779205D01*
X46969205Y-54957345D01*
X46969201Y-54957350D01*
X46821132Y-55161151D01*
X46706760Y-55385616D01*
X46628910Y-55625214D01*
X46589500Y-55874038D01*
X39840500Y-55874038D01*
X39840500Y-54455046D01*
X39825368Y-54320745D01*
X39765789Y-54150478D01*
X39669816Y-53997738D01*
X39542262Y-53870184D01*
X39457482Y-53816913D01*
X39389523Y-53774211D01*
X39219254Y-53714631D01*
X39219249Y-53714630D01*
X39084960Y-53699500D01*
X39084954Y-53699500D01*
X35995046Y-53699500D01*
X35995039Y-53699500D01*
X35860750Y-53714630D01*
X35860745Y-53714631D01*
X35690476Y-53774211D01*
X35537737Y-53870184D01*
X35410184Y-53997737D01*
X35314211Y-54150476D01*
X35254631Y-54320745D01*
X35254630Y-54320750D01*
X35239500Y-54455039D01*
X34168439Y-54455039D01*
X33980085Y-54266685D01*
X33980078Y-54266679D01*
X33740831Y-54083099D01*
X33479671Y-53932318D01*
X33479661Y-53932314D01*
X33201060Y-53816913D01*
X32909766Y-53738861D01*
X32610793Y-53699501D01*
X32610788Y-53699500D01*
X32610783Y-53699500D01*
X32309217Y-53699500D01*
X32309211Y-53699500D01*
X32309206Y-53699501D01*
X32010233Y-53738861D01*
X31718939Y-53816913D01*
X31440338Y-53932314D01*
X31440328Y-53932318D01*
X31179168Y-54083099D01*
X30939921Y-54266679D01*
X30939914Y-54266685D01*
X30726685Y-54479914D01*
X30726679Y-54479921D01*
X30543099Y-54719168D01*
X30392318Y-54980328D01*
X30392314Y-54980338D01*
X30276914Y-55258937D01*
X30276913Y-55258942D01*
X30231450Y-55428614D01*
X30226000Y-55448953D01*
X30189635Y-55508613D01*
X30126788Y-55539142D01*
X30057412Y-55530847D01*
X30003534Y-55486362D01*
X29982260Y-55419810D01*
X29982225Y-55416859D01*
X29982225Y-54221103D01*
X25998071Y-54221103D01*
X20500500Y-54221103D01*
X20500500Y-49874038D01*
X60589500Y-49874038D01*
X60589500Y-50125962D01*
X60604922Y-50223334D01*
X60628910Y-50374785D01*
X60706760Y-50614383D01*
X60785413Y-50768747D01*
X60814803Y-50826428D01*
X60821132Y-50838848D01*
X60969201Y-51042649D01*
X60969205Y-51042654D01*
X61147345Y-51220794D01*
X61147350Y-51220798D01*
X61297788Y-51330097D01*
X61351155Y-51368870D01*
X61494184Y-51441747D01*
X61575616Y-51483239D01*
X61575618Y-51483239D01*
X61575621Y-51483241D01*
X61815215Y-51561090D01*
X62064038Y-51600500D01*
X62064039Y-51600500D01*
X62315961Y-51600500D01*
X62315962Y-51600500D01*
X62564785Y-51561090D01*
X62804379Y-51483241D01*
X63028845Y-51368870D01*
X63232656Y-51220793D01*
X63410793Y-51042656D01*
X63558870Y-50838845D01*
X63673241Y-50614379D01*
X63751090Y-50374785D01*
X63790500Y-50125962D01*
X63790500Y-49874038D01*
X68209500Y-49874038D01*
X68209500Y-50125962D01*
X68224922Y-50223334D01*
X68248910Y-50374785D01*
X68326760Y-50614383D01*
X68405413Y-50768747D01*
X68434803Y-50826428D01*
X68441132Y-50838848D01*
X68589201Y-51042649D01*
X68589205Y-51042654D01*
X68767345Y-51220794D01*
X68767350Y-51220798D01*
X68917788Y-51330097D01*
X68971155Y-51368870D01*
X69114184Y-51441747D01*
X69195616Y-51483239D01*
X69195618Y-51483239D01*
X69195621Y-51483241D01*
X69435215Y-51561090D01*
X69684038Y-51600500D01*
X69684039Y-51600500D01*
X69935961Y-51600500D01*
X69935962Y-51600500D01*
X70184785Y-51561090D01*
X70424379Y-51483241D01*
X70648845Y-51368870D01*
X70852656Y-51220793D01*
X71030793Y-51042656D01*
X71178870Y-50838845D01*
X71293241Y-50614379D01*
X71371090Y-50374785D01*
X71410500Y-50125962D01*
X71410500Y-49874038D01*
X71371090Y-49625215D01*
X71293241Y-49385621D01*
X71293239Y-49385618D01*
X71293239Y-49385616D01*
X71251747Y-49304184D01*
X71178870Y-49161155D01*
X71159952Y-49135117D01*
X71030798Y-48957350D01*
X71030794Y-48957345D01*
X70852654Y-48779205D01*
X70852649Y-48779201D01*
X70648848Y-48631132D01*
X70648847Y-48631131D01*
X70648845Y-48631130D01*
X70578747Y-48595413D01*
X70424383Y-48516760D01*
X70184785Y-48438910D01*
X69935962Y-48399500D01*
X69684038Y-48399500D01*
X69559626Y-48419205D01*
X69435214Y-48438910D01*
X69195616Y-48516760D01*
X68971151Y-48631132D01*
X68767350Y-48779201D01*
X68767345Y-48779205D01*
X68589205Y-48957345D01*
X68589201Y-48957350D01*
X68441132Y-49161151D01*
X68326760Y-49385616D01*
X68248910Y-49625214D01*
X68248910Y-49625215D01*
X68209500Y-49874038D01*
X63790500Y-49874038D01*
X63751090Y-49625215D01*
X63673241Y-49385621D01*
X63673239Y-49385618D01*
X63673239Y-49385616D01*
X63631747Y-49304184D01*
X63558870Y-49161155D01*
X63539952Y-49135117D01*
X63410798Y-48957350D01*
X63410794Y-48957345D01*
X63232654Y-48779205D01*
X63232649Y-48779201D01*
X63028848Y-48631132D01*
X63028847Y-48631131D01*
X63028845Y-48631130D01*
X62958747Y-48595413D01*
X62804383Y-48516760D01*
X62564785Y-48438910D01*
X62315962Y-48399500D01*
X62064038Y-48399500D01*
X61939626Y-48419205D01*
X61815214Y-48438910D01*
X61575616Y-48516760D01*
X61351151Y-48631132D01*
X61147350Y-48779201D01*
X61147345Y-48779205D01*
X60969205Y-48957345D01*
X60969201Y-48957350D01*
X60821132Y-49161151D01*
X60706760Y-49385616D01*
X60628910Y-49625214D01*
X60628910Y-49625215D01*
X60589500Y-49874038D01*
X20500500Y-49874038D01*
X20500500Y-35874038D01*
X60589500Y-35874038D01*
X60589500Y-36125961D01*
X60628910Y-36374785D01*
X60706760Y-36614383D01*
X60785413Y-36768747D01*
X60809089Y-36815214D01*
X60821132Y-36838848D01*
X60969201Y-37042649D01*
X60969205Y-37042654D01*
X61147345Y-37220794D01*
X61147350Y-37220798D01*
X61278332Y-37315961D01*
X61351155Y-37368870D01*
X61494184Y-37441747D01*
X61575616Y-37483239D01*
X61575618Y-37483239D01*
X61575621Y-37483241D01*
X61815215Y-37561090D01*
X62064038Y-37600500D01*
X62064039Y-37600500D01*
X62315961Y-37600500D01*
X62315962Y-37600500D01*
X62564785Y-37561090D01*
X62804379Y-37483241D01*
X63028845Y-37368870D01*
X63232656Y-37220793D01*
X63410793Y-37042656D01*
X63558870Y-36838845D01*
X63673241Y-36614379D01*
X63751090Y-36374785D01*
X63790500Y-36125962D01*
X63790500Y-35874038D01*
X68209500Y-35874038D01*
X68209500Y-36125961D01*
X68248910Y-36374785D01*
X68326760Y-36614383D01*
X68405413Y-36768747D01*
X68429089Y-36815214D01*
X68441132Y-36838848D01*
X68589201Y-37042649D01*
X68589205Y-37042654D01*
X68767345Y-37220794D01*
X68767350Y-37220798D01*
X68898332Y-37315961D01*
X68971155Y-37368870D01*
X69114184Y-37441747D01*
X69195616Y-37483239D01*
X69195618Y-37483239D01*
X69195621Y-37483241D01*
X69435215Y-37561090D01*
X69684038Y-37600500D01*
X69684039Y-37600500D01*
X69935961Y-37600500D01*
X69935962Y-37600500D01*
X70184785Y-37561090D01*
X70424379Y-37483241D01*
X70648845Y-37368870D01*
X70852656Y-37220793D01*
X71030793Y-37042656D01*
X71178870Y-36838845D01*
X71293241Y-36614379D01*
X71301685Y-36588392D01*
X80189500Y-36588392D01*
X80189500Y-37791608D01*
X80194502Y-37842398D01*
X80204699Y-37945932D01*
X80204700Y-37945934D01*
X80264768Y-38143954D01*
X80362315Y-38326450D01*
X80418751Y-38395218D01*
X80493590Y-38486410D01*
X80542049Y-38526180D01*
X80581383Y-38583926D01*
X80583254Y-38653770D01*
X80563703Y-38694918D01*
X80421129Y-38891155D01*
X80306760Y-39115616D01*
X80228910Y-39355214D01*
X80189500Y-39604038D01*
X80189500Y-39855961D01*
X80228910Y-40104785D01*
X80306760Y-40344383D01*
X80421132Y-40568848D01*
X80569201Y-40772649D01*
X80569205Y-40772654D01*
X80708870Y-40912319D01*
X80742355Y-40973642D01*
X80737371Y-41043334D01*
X80708870Y-41087681D01*
X80569205Y-41227345D01*
X80569201Y-41227350D01*
X80421132Y-41431151D01*
X80306760Y-41655616D01*
X80228910Y-41895214D01*
X80189500Y-42144038D01*
X80189500Y-42395961D01*
X80228910Y-42644785D01*
X80306760Y-42884383D01*
X80421132Y-43108848D01*
X80569201Y-43312649D01*
X80569205Y-43312654D01*
X80708870Y-43452319D01*
X80742355Y-43513642D01*
X80737371Y-43583334D01*
X80708870Y-43627681D01*
X80569205Y-43767345D01*
X80569201Y-43767350D01*
X80421132Y-43971151D01*
X80306760Y-44195616D01*
X80228910Y-44435214D01*
X80189500Y-44684038D01*
X80189500Y-44935961D01*
X80228910Y-45184785D01*
X80306760Y-45424383D01*
X80421132Y-45648848D01*
X80569201Y-45852649D01*
X80569205Y-45852654D01*
X80747345Y-46030794D01*
X80747350Y-46030798D01*
X80907040Y-46146819D01*
X80951155Y-46178870D01*
X81091394Y-46250325D01*
X81175616Y-46293239D01*
X81175618Y-46293239D01*
X81175621Y-46293241D01*
X81415215Y-46371090D01*
X81664038Y-46410500D01*
X81664039Y-46410500D01*
X82715961Y-46410500D01*
X82715962Y-46410500D01*
X82964785Y-46371090D01*
X83204379Y-46293241D01*
X83428845Y-46178870D01*
X83490353Y-46134181D01*
X83556158Y-46110702D01*
X83563238Y-46110500D01*
X84101653Y-46110500D01*
X84168692Y-46130185D01*
X84189334Y-46146819D01*
X86684686Y-48642171D01*
X86839649Y-48754756D01*
X86850290Y-48762487D01*
X86966507Y-48821703D01*
X87032676Y-48855418D01*
X87032678Y-48855418D01*
X87032681Y-48855420D01*
X87137037Y-48889327D01*
X87227365Y-48918677D01*
X87328457Y-48934688D01*
X87429548Y-48950700D01*
X87634251Y-48950700D01*
X92560153Y-48950700D01*
X92627192Y-48970385D01*
X92647834Y-48987019D01*
X99892223Y-56231408D01*
X99925708Y-56292731D01*
X99927015Y-56299689D01*
X99938909Y-56374783D01*
X99966729Y-56460402D01*
X99984826Y-56516101D01*
X100016760Y-56614381D01*
X100020084Y-56620905D01*
X100032980Y-56689574D01*
X100006704Y-56754315D01*
X99949597Y-56794572D01*
X99909599Y-56801200D01*
X99191746Y-56801200D01*
X99124707Y-56781515D01*
X99104065Y-56764881D01*
X98107775Y-55768590D01*
X98074290Y-55707267D01*
X98072983Y-55700306D01*
X98061090Y-55625214D01*
X97997210Y-55428614D01*
X97983241Y-55385621D01*
X97983239Y-55385618D01*
X97983239Y-55385616D01*
X97902249Y-55226666D01*
X97868870Y-55161155D01*
X97806441Y-55075229D01*
X97720798Y-54957350D01*
X97720794Y-54957345D01*
X97542654Y-54779205D01*
X97542649Y-54779201D01*
X97338848Y-54631132D01*
X97338847Y-54631131D01*
X97338845Y-54631130D01*
X97268747Y-54595413D01*
X97114383Y-54516760D01*
X96874785Y-54438910D01*
X96874779Y-54438909D01*
X96625962Y-54399500D01*
X96374038Y-54399500D01*
X96249626Y-54419205D01*
X96125214Y-54438910D01*
X95885616Y-54516760D01*
X95661151Y-54631132D01*
X95457350Y-54779201D01*
X95457345Y-54779205D01*
X95279205Y-54957345D01*
X95279201Y-54957350D01*
X95131132Y-55161151D01*
X95016760Y-55385618D01*
X94938909Y-55625216D01*
X94927015Y-55700310D01*
X94897085Y-55763444D01*
X94892223Y-55768591D01*
X91319736Y-59341078D01*
X91199413Y-59506688D01*
X91152946Y-59597885D01*
X91152945Y-59597884D01*
X91106479Y-59689081D01*
X91106477Y-59689085D01*
X91082914Y-59761609D01*
X91082914Y-59761610D01*
X91043222Y-59883768D01*
X91033516Y-59945051D01*
X91011200Y-60085948D01*
X91011200Y-66599598D01*
X90991515Y-66666637D01*
X90938711Y-66712392D01*
X90869553Y-66722336D01*
X90830913Y-66710087D01*
X90824378Y-66706758D01*
X90584787Y-66628910D01*
X90399718Y-66599598D01*
X90335962Y-66589500D01*
X89284038Y-66589500D01*
X89188076Y-66604699D01*
X89035214Y-66628910D01*
X88795616Y-66706760D01*
X88571151Y-66821132D01*
X88367350Y-66969201D01*
X88367345Y-66969205D01*
X88189205Y-67147345D01*
X88189201Y-67147350D01*
X88041132Y-67351151D01*
X87926760Y-67575616D01*
X87848910Y-67815214D01*
X87809500Y-68064038D01*
X87809500Y-68315961D01*
X87848910Y-68564785D01*
X87926760Y-68804383D01*
X88041132Y-69028848D01*
X88189201Y-69232649D01*
X88189205Y-69232654D01*
X88328870Y-69372319D01*
X88362355Y-69433642D01*
X88357371Y-69503334D01*
X88328870Y-69547681D01*
X88189205Y-69687345D01*
X88189201Y-69687350D01*
X88041132Y-69891151D01*
X87926760Y-70115616D01*
X87848910Y-70355214D01*
X87809500Y-70604038D01*
X87809500Y-70855961D01*
X87848910Y-71104785D01*
X87926760Y-71344383D01*
X88041132Y-71568848D01*
X88189201Y-71772649D01*
X88189205Y-71772654D01*
X88328870Y-71912319D01*
X88362355Y-71973642D01*
X88357371Y-72043334D01*
X88328870Y-72087681D01*
X88189205Y-72227345D01*
X88189201Y-72227350D01*
X88041132Y-72431151D01*
X87926760Y-72655616D01*
X87848910Y-72895214D01*
X87809500Y-73144038D01*
X87809500Y-73395961D01*
X87848910Y-73644785D01*
X87926760Y-73884383D01*
X88041132Y-74108848D01*
X88189201Y-74312649D01*
X88189205Y-74312654D01*
X88328870Y-74452319D01*
X88362355Y-74513642D01*
X88357371Y-74583334D01*
X88328870Y-74627681D01*
X88189205Y-74767345D01*
X88189201Y-74767350D01*
X88041132Y-74971151D01*
X87926760Y-75195616D01*
X87848910Y-75435214D01*
X87809500Y-75684038D01*
X87809500Y-75935961D01*
X87848910Y-76184785D01*
X87926760Y-76424383D01*
X88041132Y-76648848D01*
X88189201Y-76852649D01*
X88189205Y-76852654D01*
X88367345Y-77030794D01*
X88367350Y-77030798D01*
X88545117Y-77159952D01*
X88571155Y-77178870D01*
X88714184Y-77251747D01*
X88795616Y-77293239D01*
X88795618Y-77293239D01*
X88795621Y-77293241D01*
X89035215Y-77371090D01*
X89284038Y-77410500D01*
X89284039Y-77410500D01*
X90335961Y-77410500D01*
X90335962Y-77410500D01*
X90584785Y-77371090D01*
X90824379Y-77293241D01*
X91048845Y-77178870D01*
X91252656Y-77030793D01*
X91430793Y-76852656D01*
X91578870Y-76648845D01*
X91693241Y-76424379D01*
X91771090Y-76184785D01*
X91810500Y-75935962D01*
X91810500Y-75684038D01*
X91771090Y-75435215D01*
X91693241Y-75195621D01*
X91693239Y-75195618D01*
X91693239Y-75195616D01*
X91651747Y-75114184D01*
X91578870Y-74971155D01*
X91559952Y-74945117D01*
X91430798Y-74767350D01*
X91430794Y-74767345D01*
X91291130Y-74627681D01*
X91257645Y-74566358D01*
X91262629Y-74496666D01*
X91291130Y-74452319D01*
X91343949Y-74399500D01*
X91430793Y-74312656D01*
X91578870Y-74108845D01*
X91693241Y-73884379D01*
X91771090Y-73644785D01*
X91810500Y-73395962D01*
X91810500Y-73144038D01*
X91771090Y-72895215D01*
X91693241Y-72655621D01*
X91693239Y-72655618D01*
X91693239Y-72655616D01*
X91651747Y-72574184D01*
X91578870Y-72431155D01*
X91559952Y-72405117D01*
X91430798Y-72227350D01*
X91430794Y-72227345D01*
X91291130Y-72087681D01*
X91257645Y-72026358D01*
X91262629Y-71956666D01*
X91291130Y-71912319D01*
X91430793Y-71772656D01*
X91578870Y-71568845D01*
X91693241Y-71344379D01*
X91771090Y-71104785D01*
X91810500Y-70855962D01*
X91810500Y-70604038D01*
X91771090Y-70355215D01*
X91693241Y-70115621D01*
X91693239Y-70115618D01*
X91693239Y-70115616D01*
X91651747Y-70034184D01*
X91578870Y-69891155D01*
X91568227Y-69876506D01*
X91430824Y-69687385D01*
X91407344Y-69621579D01*
X91423170Y-69553525D01*
X91473276Y-69504830D01*
X91531142Y-69490500D01*
X92414051Y-69490500D01*
X92414052Y-69490500D01*
X92616234Y-69458477D01*
X92810919Y-69395220D01*
X92993310Y-69302287D01*
X93089159Y-69232649D01*
X93158913Y-69181971D01*
X93158915Y-69181968D01*
X93158919Y-69181966D01*
X93303666Y-69037219D01*
X93303668Y-69037215D01*
X93303671Y-69037213D01*
X93369989Y-68945932D01*
X93423987Y-68871610D01*
X93516920Y-68689219D01*
X93580177Y-68494534D01*
X93612200Y-68292352D01*
X93612200Y-63860553D01*
X105138225Y-63860553D01*
X109410797Y-63860553D01*
X109410797Y-60446103D01*
X105138225Y-60446103D01*
X105138225Y-63860553D01*
X93612200Y-63860553D01*
X93612200Y-60778345D01*
X93631885Y-60711306D01*
X93648514Y-60690669D01*
X96412320Y-57926862D01*
X96473641Y-57893379D01*
X96543333Y-57898363D01*
X96587677Y-57926862D01*
X97107239Y-58446423D01*
X97606608Y-58945792D01*
X97606622Y-58945807D01*
X97609733Y-58948918D01*
X97609734Y-58948919D01*
X97754481Y-59093666D01*
X97754484Y-59093668D01*
X97754487Y-59093671D01*
X97840037Y-59155825D01*
X97876548Y-59182352D01*
X97920090Y-59213987D01*
X98006935Y-59258237D01*
X98102481Y-59306921D01*
X98102484Y-59306922D01*
X98199821Y-59338548D01*
X98297166Y-59370177D01*
X98499348Y-59402200D01*
X98499349Y-59402200D01*
X102472951Y-59402200D01*
X102472952Y-59402200D01*
X102675135Y-59370177D01*
X102762703Y-59341723D01*
X102767826Y-59340059D01*
X102767826Y-59340058D01*
X102772476Y-59338548D01*
X102869819Y-59306920D01*
X102961014Y-59260453D01*
X103052211Y-59213987D01*
X103217819Y-59093666D01*
X112054665Y-50256818D01*
X112115988Y-50223334D01*
X112142346Y-50220500D01*
X123419190Y-50220500D01*
X123449158Y-50229299D01*
X123479624Y-50236224D01*
X123483270Y-50239316D01*
X123486229Y-50240185D01*
X123507681Y-50257636D01*
X123516886Y-50267013D01*
X123520184Y-50272262D01*
X123621012Y-50373090D01*
X123621386Y-50373471D01*
X123637611Y-50403851D01*
X123654061Y-50433977D01*
X123654018Y-50434572D01*
X123654301Y-50435102D01*
X123651527Y-50469409D01*
X123649077Y-50503669D01*
X123648700Y-50504370D01*
X123648670Y-50504745D01*
X123648094Y-50505498D01*
X123633214Y-50533219D01*
X123588367Y-50594946D01*
X123470422Y-50826423D01*
X123390140Y-51073506D01*
X123349500Y-51330097D01*
X123349500Y-51589902D01*
X123390140Y-51846493D01*
X123470422Y-52093576D01*
X123588368Y-52325054D01*
X123741066Y-52535225D01*
X123741071Y-52535231D01*
X123848159Y-52642319D01*
X123881644Y-52703642D01*
X123876660Y-52773334D01*
X123848159Y-52817681D01*
X123741071Y-52924768D01*
X123741066Y-52924774D01*
X123588368Y-53134945D01*
X123470422Y-53366423D01*
X123390140Y-53613506D01*
X123349500Y-53870097D01*
X123349500Y-54129902D01*
X123390140Y-54386493D01*
X123470422Y-54633576D01*
X123588368Y-54865054D01*
X123741066Y-55075225D01*
X123741071Y-55075231D01*
X123848159Y-55182319D01*
X123881644Y-55243642D01*
X123876660Y-55313334D01*
X123848159Y-55357681D01*
X123741071Y-55464768D01*
X123741066Y-55464774D01*
X123588368Y-55674945D01*
X123470422Y-55906423D01*
X123390140Y-56153506D01*
X123349500Y-56410097D01*
X123349500Y-56669902D01*
X123390140Y-56926493D01*
X123470422Y-57173576D01*
X123588368Y-57405054D01*
X123741066Y-57615225D01*
X123741071Y-57615231D01*
X123848159Y-57722319D01*
X123881644Y-57783642D01*
X123876660Y-57853334D01*
X123848159Y-57897681D01*
X123741071Y-58004768D01*
X123741066Y-58004774D01*
X123588368Y-58214945D01*
X123470422Y-58446423D01*
X123390140Y-58693506D01*
X123349500Y-58950097D01*
X123349500Y-59209902D01*
X123390140Y-59466493D01*
X123470422Y-59713576D01*
X123551534Y-59872764D01*
X123588366Y-59945051D01*
X123741069Y-60155229D01*
X123924771Y-60338931D01*
X124134949Y-60491634D01*
X124282445Y-60566787D01*
X124366423Y-60609577D01*
X124366425Y-60609577D01*
X124366428Y-60609579D01*
X124613507Y-60689860D01*
X124745706Y-60710797D01*
X124870098Y-60730500D01*
X124870103Y-60730500D01*
X125129902Y-60730500D01*
X125243298Y-60712539D01*
X125386493Y-60689860D01*
X125633572Y-60609579D01*
X125865051Y-60491634D01*
X126075229Y-60338931D01*
X126258931Y-60155229D01*
X126411634Y-59945051D01*
X126529579Y-59713572D01*
X126609860Y-59466493D01*
X126642844Y-59258237D01*
X126650500Y-59209902D01*
X126650500Y-58950097D01*
X126628947Y-58814021D01*
X126609860Y-58693507D01*
X126529579Y-58446428D01*
X126529577Y-58446425D01*
X126529577Y-58446423D01*
X126486787Y-58362445D01*
X126411634Y-58214949D01*
X126258931Y-58004771D01*
X126151841Y-57897681D01*
X126118356Y-57836358D01*
X126123340Y-57766666D01*
X126151841Y-57722319D01*
X126194911Y-57679249D01*
X126258931Y-57615229D01*
X126411634Y-57405051D01*
X126529579Y-57173572D01*
X126609860Y-56926493D01*
X126639229Y-56741060D01*
X126650500Y-56669902D01*
X126650500Y-56410097D01*
X126622198Y-56231408D01*
X126609860Y-56153507D01*
X126529579Y-55906428D01*
X126529577Y-55906425D01*
X126529577Y-55906423D01*
X126459347Y-55768591D01*
X126411634Y-55674949D01*
X126258931Y-55464771D01*
X126151841Y-55357681D01*
X126118356Y-55296358D01*
X126123340Y-55226666D01*
X126151841Y-55182319D01*
X126173009Y-55161151D01*
X126258931Y-55075229D01*
X126411634Y-54865051D01*
X126529579Y-54633572D01*
X126609860Y-54386493D01*
X126636055Y-54221103D01*
X126650500Y-54129902D01*
X126650500Y-53870097D01*
X126623480Y-53699501D01*
X126609860Y-53613507D01*
X126529579Y-53366428D01*
X126529577Y-53366425D01*
X126529577Y-53366423D01*
X126486787Y-53282445D01*
X126411634Y-53134949D01*
X126258931Y-52924771D01*
X126151841Y-52817681D01*
X126118356Y-52756358D01*
X126123340Y-52686666D01*
X126151841Y-52642319D01*
X126258931Y-52535229D01*
X126411634Y-52325051D01*
X126529579Y-52093572D01*
X126609860Y-51846493D01*
X126648821Y-51600500D01*
X126650500Y-51589902D01*
X126650500Y-51330097D01*
X126628947Y-51194021D01*
X126609860Y-51073507D01*
X126529579Y-50826428D01*
X126529577Y-50826425D01*
X126529577Y-50826423D01*
X126411633Y-50594948D01*
X126411632Y-50594946D01*
X126366785Y-50533219D01*
X126343306Y-50467416D01*
X126359131Y-50399362D01*
X126379423Y-50372655D01*
X126479816Y-50272262D01*
X126575789Y-50119522D01*
X126635368Y-49949255D01*
X126650500Y-49814954D01*
X126650500Y-48025046D01*
X126645565Y-47981246D01*
X126635369Y-47890750D01*
X126635368Y-47890745D01*
X126575789Y-47720478D01*
X126572207Y-47714778D01*
X126479815Y-47567737D01*
X126352262Y-47440184D01*
X126199521Y-47344210D01*
X126077733Y-47301595D01*
X126020956Y-47260873D01*
X125995209Y-47195920D01*
X126008665Y-47127359D01*
X126057052Y-47076956D01*
X126118687Y-47060553D01*
X127026928Y-47060553D01*
X127026928Y-43574676D01*
X122973071Y-43574676D01*
X122973071Y-47060553D01*
X123881313Y-47060553D01*
X123948352Y-47080238D01*
X123994107Y-47133042D01*
X124004051Y-47202200D01*
X123975026Y-47265756D01*
X123922267Y-47301595D01*
X123800478Y-47344210D01*
X123647737Y-47440184D01*
X123520183Y-47567738D01*
X123516135Y-47572815D01*
X123458946Y-47612954D01*
X123419190Y-47619500D01*
X111449948Y-47619500D01*
X111382554Y-47630174D01*
X111247764Y-47651523D01*
X111053084Y-47714777D01*
X111053081Y-47714778D01*
X110978951Y-47752551D01*
X110870686Y-47807715D01*
X110705086Y-47928028D01*
X110705082Y-47928032D01*
X110560331Y-48072784D01*
X103191128Y-55441985D01*
X103129805Y-55475470D01*
X103060113Y-55470486D01*
X103004180Y-55428614D01*
X102985516Y-55392621D01*
X102983243Y-55385626D01*
X102983241Y-55385620D01*
X102902249Y-55226666D01*
X102868870Y-55161155D01*
X102806441Y-55075229D01*
X102720798Y-54957350D01*
X102720794Y-54957345D01*
X102542654Y-54779205D01*
X102542649Y-54779201D01*
X102338848Y-54631132D01*
X102338847Y-54631131D01*
X102338845Y-54631130D01*
X102114379Y-54516759D01*
X101994582Y-54477834D01*
X101874783Y-54438909D01*
X101799689Y-54427015D01*
X101736555Y-54397085D01*
X101731408Y-54392223D01*
X93997421Y-46658236D01*
X93997419Y-46658234D01*
X93831811Y-46537913D01*
X93740614Y-46491446D01*
X93649423Y-46444981D01*
X93602715Y-46429804D01*
X93552076Y-46413351D01*
X93528203Y-46405594D01*
X93454735Y-46381722D01*
X93280195Y-46354078D01*
X93252552Y-46349700D01*
X93252551Y-46349700D01*
X91195351Y-46349700D01*
X91128312Y-46330015D01*
X91082557Y-46277211D01*
X91072613Y-46208053D01*
X91101638Y-46144497D01*
X91122466Y-46125382D01*
X91252649Y-46030798D01*
X91252647Y-46030798D01*
X91252656Y-46030793D01*
X91430793Y-45852656D01*
X91578870Y-45648845D01*
X91693241Y-45424379D01*
X91771090Y-45184785D01*
X91810500Y-44935962D01*
X91810500Y-44684038D01*
X91771090Y-44435215D01*
X91693241Y-44195621D01*
X91693239Y-44195618D01*
X91693239Y-44195616D01*
X91651747Y-44114184D01*
X91578870Y-43971155D01*
X91467623Y-43818036D01*
X91430798Y-43767350D01*
X91430794Y-43767345D01*
X91291130Y-43627681D01*
X91257645Y-43566358D01*
X91262629Y-43496666D01*
X91291130Y-43452319D01*
X91306438Y-43437011D01*
X91430793Y-43312656D01*
X91578870Y-43108845D01*
X91693241Y-42884379D01*
X91771090Y-42644785D01*
X91810500Y-42395962D01*
X91810500Y-42144038D01*
X91771090Y-41895215D01*
X91693241Y-41655621D01*
X91693239Y-41655618D01*
X91693239Y-41655616D01*
X91651747Y-41574184D01*
X91578870Y-41431155D01*
X91559952Y-41405117D01*
X91430798Y-41227350D01*
X91430794Y-41227345D01*
X91291130Y-41087681D01*
X91257645Y-41026358D01*
X91262629Y-40956666D01*
X91291130Y-40912319D01*
X91430793Y-40772656D01*
X91578870Y-40568845D01*
X91693241Y-40344379D01*
X91771090Y-40104785D01*
X91810500Y-39855962D01*
X91810500Y-39604038D01*
X91771090Y-39355215D01*
X91693241Y-39115621D01*
X91693239Y-39115618D01*
X91693239Y-39115616D01*
X91651747Y-39034184D01*
X91578870Y-38891155D01*
X91568227Y-38876506D01*
X91430824Y-38687385D01*
X91407344Y-38621579D01*
X91423170Y-38553525D01*
X91473276Y-38504830D01*
X91531142Y-38490500D01*
X92414051Y-38490500D01*
X92414052Y-38490500D01*
X92616234Y-38458477D01*
X92810919Y-38395220D01*
X92993310Y-38302287D01*
X93089159Y-38232649D01*
X93158913Y-38181971D01*
X93158915Y-38181968D01*
X93158919Y-38181966D01*
X93303666Y-38037219D01*
X93303668Y-38037215D01*
X93303671Y-38037213D01*
X93369989Y-37945932D01*
X93423987Y-37871610D01*
X93516920Y-37689219D01*
X93580177Y-37494534D01*
X93612200Y-37292352D01*
X93612200Y-32778345D01*
X93631885Y-32711306D01*
X93648514Y-32690669D01*
X96703629Y-29635553D01*
X103638225Y-29635553D01*
X107909072Y-29635553D01*
X107909072Y-26219984D01*
X103638225Y-26219984D01*
X103638225Y-29635553D01*
X96703629Y-29635553D01*
X96731409Y-29607773D01*
X96792730Y-29574290D01*
X96799649Y-29572989D01*
X96874785Y-29561090D01*
X97114379Y-29483241D01*
X97338845Y-29368870D01*
X97542656Y-29220793D01*
X97720793Y-29042656D01*
X97868870Y-28838845D01*
X97983241Y-28614379D01*
X98061090Y-28374785D01*
X98100500Y-28125962D01*
X98100500Y-27874038D01*
X99899500Y-27874038D01*
X99899500Y-28125961D01*
X99938910Y-28374785D01*
X100016760Y-28614383D01*
X100131132Y-28838848D01*
X100279201Y-29042649D01*
X100279205Y-29042654D01*
X100457345Y-29220794D01*
X100457350Y-29220798D01*
X100545354Y-29284736D01*
X100661155Y-29368870D01*
X100804184Y-29441747D01*
X100885616Y-29483239D01*
X100885618Y-29483239D01*
X100885621Y-29483241D01*
X101125215Y-29561090D01*
X101374038Y-29600500D01*
X101374039Y-29600500D01*
X101625961Y-29600500D01*
X101625962Y-29600500D01*
X101874785Y-29561090D01*
X102114379Y-29483241D01*
X102338845Y-29368870D01*
X102542656Y-29220793D01*
X102720793Y-29042656D01*
X102868870Y-28838845D01*
X102983241Y-28614379D01*
X103061090Y-28374785D01*
X103100500Y-28125962D01*
X103100500Y-27874038D01*
X103061090Y-27625215D01*
X102983241Y-27385621D01*
X102983239Y-27385618D01*
X102983239Y-27385616D01*
X102941747Y-27304184D01*
X102868870Y-27161155D01*
X102849952Y-27135117D01*
X102720798Y-26957350D01*
X102720794Y-26957345D01*
X102542654Y-26779205D01*
X102542649Y-26779201D01*
X102338848Y-26631132D01*
X102338847Y-26631131D01*
X102338845Y-26631130D01*
X102268747Y-26595413D01*
X102114383Y-26516760D01*
X101874785Y-26438910D01*
X101625962Y-26399500D01*
X101374038Y-26399500D01*
X101249626Y-26419205D01*
X101125214Y-26438910D01*
X100885616Y-26516760D01*
X100661151Y-26631132D01*
X100457350Y-26779201D01*
X100457345Y-26779205D01*
X100279205Y-26957345D01*
X100279201Y-26957350D01*
X100131132Y-27161151D01*
X100016760Y-27385616D01*
X99938910Y-27625214D01*
X99899500Y-27874038D01*
X98100500Y-27874038D01*
X98061090Y-27625215D01*
X97983241Y-27385621D01*
X97983239Y-27385618D01*
X97983239Y-27385616D01*
X97941747Y-27304184D01*
X97868870Y-27161155D01*
X97849952Y-27135117D01*
X97720798Y-26957350D01*
X97720794Y-26957345D01*
X97542654Y-26779205D01*
X97542649Y-26779201D01*
X97338848Y-26631132D01*
X97338847Y-26631131D01*
X97338845Y-26631130D01*
X97268747Y-26595413D01*
X97114383Y-26516760D01*
X96874785Y-26438910D01*
X96625962Y-26399500D01*
X96374038Y-26399500D01*
X96249626Y-26419205D01*
X96125214Y-26438910D01*
X95885616Y-26516760D01*
X95661151Y-26631132D01*
X95457350Y-26779201D01*
X95457345Y-26779205D01*
X95279205Y-26957345D01*
X95279201Y-26957350D01*
X95131132Y-27161151D01*
X95016760Y-27385618D01*
X94938909Y-27625216D01*
X94927015Y-27700310D01*
X94897085Y-27763444D01*
X94892223Y-27768591D01*
X91319736Y-31341078D01*
X91199416Y-31506684D01*
X91199410Y-31506693D01*
X91192589Y-31520079D01*
X91192590Y-31520080D01*
X91106032Y-31689958D01*
X91104972Y-31693720D01*
X91054350Y-31849520D01*
X91043224Y-31883759D01*
X91043222Y-31883771D01*
X91011200Y-32085948D01*
X91011200Y-35599598D01*
X90991515Y-35666637D01*
X90938711Y-35712392D01*
X90869553Y-35722336D01*
X90830913Y-35710087D01*
X90824378Y-35706758D01*
X90584787Y-35628910D01*
X90399718Y-35599598D01*
X90335962Y-35589500D01*
X89284038Y-35589500D01*
X89188076Y-35604699D01*
X89035214Y-35628910D01*
X88795616Y-35706760D01*
X88571151Y-35821132D01*
X88367350Y-35969201D01*
X88367345Y-35969205D01*
X88189205Y-36147345D01*
X88189201Y-36147350D01*
X88041132Y-36351151D01*
X87926760Y-36575616D01*
X87914164Y-36614383D01*
X87848910Y-36815215D01*
X87809500Y-37064038D01*
X87809500Y-37315962D01*
X87817880Y-37368870D01*
X87848910Y-37564785D01*
X87926760Y-37804383D01*
X88041132Y-38028848D01*
X88189201Y-38232649D01*
X88189205Y-38232654D01*
X88328870Y-38372319D01*
X88362355Y-38433642D01*
X88357371Y-38503334D01*
X88328870Y-38547681D01*
X88189205Y-38687345D01*
X88189201Y-38687350D01*
X88041132Y-38891151D01*
X87926760Y-39115616D01*
X87848910Y-39355214D01*
X87809500Y-39604038D01*
X87809500Y-39855961D01*
X87848910Y-40104785D01*
X87926760Y-40344383D01*
X88041132Y-40568848D01*
X88189201Y-40772649D01*
X88189205Y-40772654D01*
X88328870Y-40912319D01*
X88362355Y-40973642D01*
X88357371Y-41043334D01*
X88328870Y-41087681D01*
X88189205Y-41227345D01*
X88189201Y-41227350D01*
X88041132Y-41431151D01*
X87926760Y-41655616D01*
X87848910Y-41895214D01*
X87809500Y-42144038D01*
X87809500Y-42395961D01*
X87848910Y-42644785D01*
X87926760Y-42884383D01*
X88041132Y-43108848D01*
X88189201Y-43312649D01*
X88189205Y-43312654D01*
X88328870Y-43452319D01*
X88362355Y-43513642D01*
X88357371Y-43583334D01*
X88328870Y-43627681D01*
X88189205Y-43767345D01*
X88189201Y-43767350D01*
X88041132Y-43971151D01*
X87926760Y-44195616D01*
X87848910Y-44435214D01*
X87809500Y-44684038D01*
X87809500Y-44935961D01*
X87848910Y-45184785D01*
X87926760Y-45424383D01*
X88041132Y-45648848D01*
X88189201Y-45852649D01*
X88189205Y-45852654D01*
X88367345Y-46030794D01*
X88367350Y-46030798D01*
X88497534Y-46125382D01*
X88540200Y-46180712D01*
X88546179Y-46250325D01*
X88513574Y-46312120D01*
X88452735Y-46346477D01*
X88424649Y-46349700D01*
X88121947Y-46349700D01*
X88054908Y-46330015D01*
X88034266Y-46313381D01*
X85538921Y-43818036D01*
X85538919Y-43818034D01*
X85373311Y-43697713D01*
X85257824Y-43638870D01*
X85257821Y-43638868D01*
X85190923Y-43604781D01*
X85142991Y-43589207D01*
X85093576Y-43573151D01*
X85069703Y-43565394D01*
X84996235Y-43541522D01*
X84820203Y-43513642D01*
X84794052Y-43509500D01*
X84794051Y-43509500D01*
X83911142Y-43509500D01*
X83844103Y-43489815D01*
X83798348Y-43437011D01*
X83788404Y-43367853D01*
X83810824Y-43312615D01*
X83899103Y-43191106D01*
X83958870Y-43108845D01*
X84073241Y-42884379D01*
X84151090Y-42644785D01*
X84190500Y-42395962D01*
X84190500Y-42144038D01*
X84151090Y-41895215D01*
X84073241Y-41655621D01*
X84073239Y-41655618D01*
X84073239Y-41655616D01*
X84031747Y-41574184D01*
X83958870Y-41431155D01*
X83939952Y-41405117D01*
X83810798Y-41227350D01*
X83810794Y-41227345D01*
X83671130Y-41087681D01*
X83637645Y-41026358D01*
X83642629Y-40956666D01*
X83671130Y-40912319D01*
X83810793Y-40772656D01*
X83958870Y-40568845D01*
X84073241Y-40344379D01*
X84151090Y-40104785D01*
X84190500Y-39855962D01*
X84190500Y-39604038D01*
X84151090Y-39355215D01*
X84073241Y-39115621D01*
X84073239Y-39115618D01*
X84073239Y-39115616D01*
X84031747Y-39034184D01*
X83958870Y-38891155D01*
X83816296Y-38694918D01*
X83792816Y-38629112D01*
X83808641Y-38561058D01*
X83837948Y-38526181D01*
X83886410Y-38486410D01*
X84017685Y-38326450D01*
X84115232Y-38143954D01*
X84175300Y-37945934D01*
X84190500Y-37791608D01*
X84190500Y-36588392D01*
X84175300Y-36434066D01*
X84115232Y-36236046D01*
X84017685Y-36053550D01*
X83948462Y-35969201D01*
X83886410Y-35893589D01*
X83726452Y-35762317D01*
X83726453Y-35762317D01*
X83726450Y-35762315D01*
X83543954Y-35664768D01*
X83345934Y-35604700D01*
X83345932Y-35604699D01*
X83345934Y-35604699D01*
X83226805Y-35592966D01*
X83191608Y-35589500D01*
X81188392Y-35589500D01*
X81150298Y-35593251D01*
X81034067Y-35604699D01*
X80836043Y-35664769D01*
X80728345Y-35722336D01*
X80653550Y-35762315D01*
X80653548Y-35762316D01*
X80653547Y-35762317D01*
X80493589Y-35893589D01*
X80362317Y-36053547D01*
X80264769Y-36236043D01*
X80204699Y-36434067D01*
X80193574Y-36547029D01*
X80189500Y-36588392D01*
X71301685Y-36588392D01*
X71371090Y-36374785D01*
X71410500Y-36125962D01*
X71410500Y-35874038D01*
X71371090Y-35625215D01*
X71293241Y-35385621D01*
X71293239Y-35385618D01*
X71293239Y-35385616D01*
X71251747Y-35304184D01*
X71178870Y-35161155D01*
X71159952Y-35135117D01*
X71030798Y-34957350D01*
X71030794Y-34957345D01*
X70852654Y-34779205D01*
X70852649Y-34779201D01*
X70648848Y-34631132D01*
X70648847Y-34631131D01*
X70648845Y-34631130D01*
X70578747Y-34595413D01*
X70424383Y-34516760D01*
X70184785Y-34438910D01*
X69935962Y-34399500D01*
X69684038Y-34399500D01*
X69559626Y-34419205D01*
X69435214Y-34438910D01*
X69195616Y-34516760D01*
X68971151Y-34631132D01*
X68767350Y-34779201D01*
X68767345Y-34779205D01*
X68589205Y-34957345D01*
X68589201Y-34957350D01*
X68441132Y-35161151D01*
X68326760Y-35385616D01*
X68248910Y-35625214D01*
X68209500Y-35874038D01*
X63790500Y-35874038D01*
X63751090Y-35625215D01*
X63673241Y-35385621D01*
X63673239Y-35385618D01*
X63673239Y-35385616D01*
X63631747Y-35304184D01*
X63558870Y-35161155D01*
X63539952Y-35135117D01*
X63410798Y-34957350D01*
X63410794Y-34957345D01*
X63232654Y-34779205D01*
X63232649Y-34779201D01*
X63028848Y-34631132D01*
X63028847Y-34631131D01*
X63028845Y-34631130D01*
X62958747Y-34595413D01*
X62804383Y-34516760D01*
X62564785Y-34438910D01*
X62315962Y-34399500D01*
X62064038Y-34399500D01*
X61939626Y-34419205D01*
X61815214Y-34438910D01*
X61575616Y-34516760D01*
X61351151Y-34631132D01*
X61147350Y-34779201D01*
X61147345Y-34779205D01*
X60969205Y-34957345D01*
X60969201Y-34957350D01*
X60821132Y-35161151D01*
X60706760Y-35385616D01*
X60628910Y-35625214D01*
X60589500Y-35874038D01*
X20500500Y-35874038D01*
X20500500Y-32580553D01*
X83899917Y-32580553D01*
X88169786Y-32580553D01*
X88169786Y-29164984D01*
X83899917Y-29164984D01*
X83899917Y-32580553D01*
X20500500Y-32580553D01*
X20500500Y-29849223D01*
X30159500Y-29849223D01*
X30159500Y-30150776D01*
X30159501Y-30150793D01*
X30198861Y-30449766D01*
X30276913Y-30741060D01*
X30392314Y-31019661D01*
X30392318Y-31019671D01*
X30543099Y-31280831D01*
X30726679Y-31520078D01*
X30726683Y-31520083D01*
X30939914Y-31733314D01*
X30939921Y-31733320D01*
X31179168Y-31916900D01*
X31440328Y-32067681D01*
X31440329Y-32067681D01*
X31440332Y-32067683D01*
X31626072Y-32144619D01*
X31718939Y-32183086D01*
X31718940Y-32183086D01*
X31718942Y-32183087D01*
X32010232Y-32261138D01*
X32309217Y-32300500D01*
X32309224Y-32300500D01*
X32610776Y-32300500D01*
X32610783Y-32300500D01*
X32909768Y-32261138D01*
X33201058Y-32183087D01*
X33479668Y-32067683D01*
X33740832Y-31916900D01*
X33980080Y-31733319D01*
X34034150Y-31679249D01*
X34193317Y-31520083D01*
X34193319Y-31520080D01*
X34376900Y-31280832D01*
X34527683Y-31019668D01*
X34643087Y-30741058D01*
X34721138Y-30449768D01*
X34760500Y-30150783D01*
X34760500Y-29849217D01*
X34732354Y-29635434D01*
X34743119Y-29566403D01*
X34767609Y-29531574D01*
X35027820Y-29271364D01*
X35089142Y-29237880D01*
X35158834Y-29242864D01*
X35214767Y-29284736D01*
X35239184Y-29350200D01*
X35239500Y-29359046D01*
X35239500Y-31544960D01*
X35254630Y-31679249D01*
X35254631Y-31679254D01*
X35314211Y-31849523D01*
X35335731Y-31883771D01*
X35410184Y-32002262D01*
X35537738Y-32129816D01*
X35690478Y-32225789D01*
X35791500Y-32261138D01*
X35860745Y-32285368D01*
X35860750Y-32285369D01*
X35951246Y-32295565D01*
X35995040Y-32300499D01*
X35995043Y-32300500D01*
X35995046Y-32300500D01*
X39084957Y-32300500D01*
X39084958Y-32300499D01*
X39152104Y-32292934D01*
X39219249Y-32285369D01*
X39219252Y-32285368D01*
X39219255Y-32285368D01*
X39389522Y-32225789D01*
X39542262Y-32129816D01*
X39669816Y-32002262D01*
X39765789Y-31849522D01*
X39825368Y-31679255D01*
X39840500Y-31544954D01*
X39840500Y-28622800D01*
X39860185Y-28555761D01*
X39912989Y-28510006D01*
X39964500Y-28498800D01*
X47151658Y-28498800D01*
X47218697Y-28518485D01*
X47264452Y-28571289D01*
X47274396Y-28640447D01*
X47245371Y-28704003D01*
X47224543Y-28723118D01*
X47147350Y-28779201D01*
X47147345Y-28779205D01*
X46969205Y-28957345D01*
X46969201Y-28957350D01*
X46821132Y-29161151D01*
X46706760Y-29385616D01*
X46628910Y-29625214D01*
X46589500Y-29874038D01*
X46589500Y-30125961D01*
X46628910Y-30374785D01*
X46706760Y-30614383D01*
X46821132Y-30838848D01*
X46969201Y-31042649D01*
X46969205Y-31042654D01*
X47147345Y-31220794D01*
X47147350Y-31220798D01*
X47312907Y-31341081D01*
X47351155Y-31368870D01*
X47494184Y-31441747D01*
X47575616Y-31483239D01*
X47575618Y-31483239D01*
X47575621Y-31483241D01*
X47815215Y-31561090D01*
X48064038Y-31600500D01*
X48064039Y-31600500D01*
X48315961Y-31600500D01*
X48315962Y-31600500D01*
X48564785Y-31561090D01*
X48804379Y-31483241D01*
X49028845Y-31368870D01*
X49232656Y-31220793D01*
X49410793Y-31042656D01*
X49558870Y-30838845D01*
X49673241Y-30614379D01*
X49751090Y-30374785D01*
X49790500Y-30125962D01*
X49790500Y-29874038D01*
X49751090Y-29625215D01*
X49673241Y-29385621D01*
X49673239Y-29385618D01*
X49673239Y-29385616D01*
X49631747Y-29304184D01*
X49558870Y-29161155D01*
X49472776Y-29042656D01*
X49410798Y-28957350D01*
X49410794Y-28957345D01*
X49232654Y-28779205D01*
X49232649Y-28779201D01*
X49155457Y-28723118D01*
X49112791Y-28667789D01*
X49106812Y-28598175D01*
X49139417Y-28536380D01*
X49200256Y-28502023D01*
X49228342Y-28498800D01*
X52418253Y-28498800D01*
X52485292Y-28518485D01*
X52505934Y-28535119D01*
X54202223Y-30231408D01*
X54235708Y-30292731D01*
X54237015Y-30299689D01*
X54248909Y-30374783D01*
X54326760Y-30614381D01*
X54441132Y-30838848D01*
X54589201Y-31042649D01*
X54589205Y-31042654D01*
X54767345Y-31220794D01*
X54767350Y-31220798D01*
X54932907Y-31341081D01*
X54971155Y-31368870D01*
X55114184Y-31441747D01*
X55195616Y-31483239D01*
X55195618Y-31483239D01*
X55195621Y-31483241D01*
X55435215Y-31561090D01*
X55684038Y-31600500D01*
X55684039Y-31600500D01*
X55935961Y-31600500D01*
X55935962Y-31600500D01*
X56184785Y-31561090D01*
X56424379Y-31483241D01*
X56648845Y-31368870D01*
X56852656Y-31220793D01*
X57030793Y-31042656D01*
X57178870Y-30838845D01*
X57293241Y-30614379D01*
X57371090Y-30374785D01*
X57373170Y-30361655D01*
X71308071Y-30361655D01*
X76935082Y-30361655D01*
X76935082Y-26944984D01*
X71308071Y-26944984D01*
X71308071Y-30361655D01*
X57373170Y-30361655D01*
X57410500Y-30125962D01*
X57410500Y-29874038D01*
X57371090Y-29625215D01*
X57293241Y-29385621D01*
X57293239Y-29385618D01*
X57293239Y-29385616D01*
X57251747Y-29304184D01*
X57178870Y-29161155D01*
X57092776Y-29042656D01*
X57030798Y-28957350D01*
X57030794Y-28957345D01*
X56852654Y-28779205D01*
X56852649Y-28779201D01*
X56648848Y-28631132D01*
X56648847Y-28631131D01*
X56648845Y-28631130D01*
X56424379Y-28516759D01*
X56304582Y-28477834D01*
X56184783Y-28438909D01*
X56109689Y-28427015D01*
X56046555Y-28397085D01*
X56041408Y-28392223D01*
X53855521Y-26206336D01*
X53855519Y-26206334D01*
X53689911Y-26086013D01*
X53598714Y-26039546D01*
X53598712Y-26039545D01*
X53507523Y-25993081D01*
X53460815Y-25977904D01*
X53410176Y-25961451D01*
X53386303Y-25953694D01*
X53312835Y-25929822D01*
X53138295Y-25902178D01*
X53110652Y-25897800D01*
X35364051Y-25897800D01*
X35159348Y-25897800D01*
X35091953Y-25908474D01*
X34957163Y-25929823D01*
X34859823Y-25961450D01*
X34859823Y-25961451D01*
X34807052Y-25978597D01*
X34762474Y-25993082D01*
X34671284Y-26039545D01*
X34671285Y-26039546D01*
X34580088Y-26086013D01*
X34414478Y-26206336D01*
X32928427Y-27692386D01*
X32867104Y-27725871D01*
X32824561Y-27727644D01*
X32610793Y-27699501D01*
X32610788Y-27699500D01*
X32610783Y-27699500D01*
X32309217Y-27699500D01*
X32309211Y-27699500D01*
X32309206Y-27699501D01*
X32010233Y-27738861D01*
X31718939Y-27816913D01*
X31440338Y-27932314D01*
X31440328Y-27932318D01*
X31179168Y-28083099D01*
X30939921Y-28266679D01*
X30939914Y-28266685D01*
X30726685Y-28479914D01*
X30726679Y-28479921D01*
X30543099Y-28719168D01*
X30392318Y-28980328D01*
X30392314Y-28980338D01*
X30276913Y-29258939D01*
X30198861Y-29550233D01*
X30159501Y-29849206D01*
X30159500Y-29849223D01*
X20500500Y-29849223D01*
X20500500Y-25411655D01*
X41138071Y-25411655D01*
X46763357Y-25411655D01*
X46763357Y-23874038D01*
X60589500Y-23874038D01*
X60589500Y-24125961D01*
X60628910Y-24374785D01*
X60706760Y-24614383D01*
X60821132Y-24838848D01*
X60969201Y-25042649D01*
X60969205Y-25042654D01*
X61147345Y-25220794D01*
X61147350Y-25220798D01*
X61325117Y-25349952D01*
X61351155Y-25368870D01*
X61494184Y-25441747D01*
X61575616Y-25483239D01*
X61575618Y-25483239D01*
X61575621Y-25483241D01*
X61815215Y-25561090D01*
X62064038Y-25600500D01*
X62064039Y-25600500D01*
X62315961Y-25600500D01*
X62315962Y-25600500D01*
X62564785Y-25561090D01*
X62804379Y-25483241D01*
X63028845Y-25368870D01*
X63232656Y-25220793D01*
X63410793Y-25042656D01*
X63558870Y-24838845D01*
X63673241Y-24614379D01*
X63751090Y-24374785D01*
X63790500Y-24125962D01*
X63790500Y-23874038D01*
X68209500Y-23874038D01*
X68209500Y-24125961D01*
X68248910Y-24374785D01*
X68326760Y-24614383D01*
X68441132Y-24838848D01*
X68589201Y-25042649D01*
X68589205Y-25042654D01*
X68767345Y-25220794D01*
X68767350Y-25220798D01*
X68945117Y-25349952D01*
X68971155Y-25368870D01*
X69114184Y-25441747D01*
X69195616Y-25483239D01*
X69195618Y-25483239D01*
X69195621Y-25483241D01*
X69435215Y-25561090D01*
X69684038Y-25600500D01*
X69684039Y-25600500D01*
X69935961Y-25600500D01*
X69935962Y-25600500D01*
X70184785Y-25561090D01*
X70424379Y-25483241D01*
X70648845Y-25368870D01*
X70852656Y-25220793D01*
X71030793Y-25042656D01*
X71178870Y-24838845D01*
X71293241Y-24614379D01*
X71371090Y-24374785D01*
X71410500Y-24125962D01*
X71410500Y-23874038D01*
X71371090Y-23625215D01*
X71293241Y-23385621D01*
X71293239Y-23385618D01*
X71293239Y-23385616D01*
X71251747Y-23304184D01*
X71178870Y-23161155D01*
X71159952Y-23135117D01*
X71030798Y-22957350D01*
X71030794Y-22957345D01*
X70852654Y-22779205D01*
X70852649Y-22779201D01*
X70648848Y-22631132D01*
X70648847Y-22631131D01*
X70648845Y-22631130D01*
X70578747Y-22595413D01*
X70424383Y-22516760D01*
X70184785Y-22438910D01*
X69935962Y-22399500D01*
X69684038Y-22399500D01*
X69559626Y-22419205D01*
X69435214Y-22438910D01*
X69195616Y-22516760D01*
X68971151Y-22631132D01*
X68767350Y-22779201D01*
X68767345Y-22779205D01*
X68589205Y-22957345D01*
X68589201Y-22957350D01*
X68441132Y-23161151D01*
X68326760Y-23385616D01*
X68248910Y-23625214D01*
X68209500Y-23874038D01*
X63790500Y-23874038D01*
X63751090Y-23625215D01*
X63673241Y-23385621D01*
X63673239Y-23385618D01*
X63673239Y-23385616D01*
X63631747Y-23304184D01*
X63558870Y-23161155D01*
X63539952Y-23135117D01*
X63410798Y-22957350D01*
X63410794Y-22957345D01*
X63232654Y-22779205D01*
X63232649Y-22779201D01*
X63028848Y-22631132D01*
X63028847Y-22631131D01*
X63028845Y-22631130D01*
X62958747Y-22595413D01*
X62804383Y-22516760D01*
X62564785Y-22438910D01*
X62315962Y-22399500D01*
X62064038Y-22399500D01*
X61939626Y-22419205D01*
X61815214Y-22438910D01*
X61575616Y-22516760D01*
X61351151Y-22631132D01*
X61147350Y-22779201D01*
X61147345Y-22779205D01*
X60969205Y-22957345D01*
X60969201Y-22957350D01*
X60821132Y-23161151D01*
X60706760Y-23385616D01*
X60628910Y-23625214D01*
X60589500Y-23874038D01*
X46763357Y-23874038D01*
X46763357Y-21994984D01*
X41138071Y-21994984D01*
X41138071Y-25411655D01*
X20500500Y-25411655D01*
X20500500Y-24410553D01*
X32973071Y-24410553D01*
X36955500Y-24410553D01*
X36955500Y-20994984D01*
X32973071Y-20994984D01*
X32973071Y-24410553D01*
X20500500Y-24410553D01*
X20500500Y-20624500D01*
X20520185Y-20557461D01*
X20572989Y-20511706D01*
X20624500Y-20500500D01*
X139375500Y-20500500D01*
X139442539Y-20520185D01*
G37*
%TD.AperFunction*%
M02*
