%TF.GenerationSoftware,KiCad,Pcbnew,9.0.4*%
%TF.CreationDate,2026-06-11T08:54:37+02:00*%
%TF.ProjectId,current_sense,63757272-656e-4745-9f73-656e73652e6b,rev?*%
%TF.SameCoordinates,Original*%
%TF.FileFunction,Soldermask,Bot*%
%TF.FilePolarity,Negative*%
%FSLAX46Y46*%
G04 Gerber Fmt 4.6, Leading zero omitted, Abs format (unit mm)*
G04 Created by KiCad (PCBNEW 9.0.4) date 2026-06-11 08:54:37*
%MOMM*%
%LPD*%
G01*
G04 APERTURE LIST*
G04 Aperture macros list*
%AMRoundRect*
0 Rectangle with rounded corners*
0 $1 Rounding radius*
0 $2 $3 $4 $5 $6 $7 $8 $9 X,Y pos of 4 corners*
0 Add a 4 corners polygon primitive as box body*
4,1,4,$2,$3,$4,$5,$6,$7,$8,$9,$2,$3,0*
0 Add four circle primitives for the rounded corners*
1,1,$1+$1,$2,$3*
1,1,$1+$1,$4,$5*
1,1,$1+$1,$6,$7*
1,1,$1+$1,$8,$9*
0 Add four rect primitives between the rounded corners*
20,1,$1+$1,$2,$3,$4,$5,0*
20,1,$1+$1,$4,$5,$6,$7,0*
20,1,$1+$1,$6,$7,$8,$9,0*
20,1,$1+$1,$8,$9,$2,$3,0*%
G04 Aperture macros list end*
%ADD10C,1.600000*%
%ADD11R,3.000000X3.000000*%
%ADD12C,3.000000*%
%ADD13R,1.700000X1.700000*%
%ADD14C,1.700000*%
%ADD15RoundRect,0.250000X-0.950000X-0.550000X0.950000X-0.550000X0.950000X0.550000X-0.950000X0.550000X0*%
%ADD16O,2.400000X1.600000*%
G04 APERTURE END LIST*
D10*
%TO.C,R13*%
X63930000Y-58000000D03*
X71550000Y-58000000D03*
%TD*%
%TO.C,R11*%
X49930000Y-52000000D03*
X57550000Y-52000000D03*
%TD*%
D11*
%TO.C,J2*%
X41280000Y-72000000D03*
D12*
X36200000Y-72000000D03*
%TD*%
D11*
%TO.C,J3*%
X41280000Y-92000000D03*
D12*
X36200000Y-92000000D03*
%TD*%
D13*
%TO.C,J4*%
X108740000Y-66920000D03*
D14*
X108740000Y-69460000D03*
X108740000Y-72000000D03*
X108740000Y-74540000D03*
X108740000Y-77080000D03*
%TD*%
D10*
%TO.C,R23*%
X63930000Y-78000000D03*
X71550000Y-78000000D03*
%TD*%
%TO.C,R33*%
X63930000Y-98000000D03*
X71550000Y-98000000D03*
%TD*%
D15*
%TO.C,U1*%
X77930000Y-56190000D03*
D16*
X77930000Y-58730000D03*
X77930000Y-61270000D03*
X77930000Y-63810000D03*
X85550000Y-63810000D03*
X85550000Y-61270000D03*
X85550000Y-58730000D03*
X85550000Y-56190000D03*
%TD*%
D11*
%TO.C,J1*%
X41280000Y-52000000D03*
D12*
X36200000Y-52000000D03*
%TD*%
D10*
%TO.C,C1*%
X91240000Y-52000000D03*
X96240000Y-52000000D03*
%TD*%
%TO.C,R32*%
X63930000Y-86000000D03*
X71550000Y-86000000D03*
%TD*%
%TO.C,R22*%
X63930000Y-66000000D03*
X71550000Y-66000000D03*
%TD*%
%TO.C,R31*%
X49930000Y-92000000D03*
X57550000Y-92000000D03*
%TD*%
%TO.C,R21*%
X49930000Y-72000000D03*
X57550000Y-72000000D03*
%TD*%
D15*
%TO.C,U2*%
X77930000Y-80190000D03*
D16*
X77930000Y-82730000D03*
X77930000Y-85270000D03*
X77930000Y-87810000D03*
X85550000Y-87810000D03*
X85550000Y-85270000D03*
X85550000Y-82730000D03*
X85550000Y-80190000D03*
%TD*%
D10*
%TO.C,R12*%
X63930000Y-46000000D03*
X71550000Y-46000000D03*
%TD*%
%TO.C,C2*%
X91240000Y-76000000D03*
X96240000Y-76000000D03*
%TD*%
M02*
