%TF.GenerationSoftware,KiCad,Pcbnew,9.0.4*%
%TF.CreationDate,2026-06-11T08:54:37+02:00*%
%TF.ProjectId,current_sense,63757272-656e-4745-9f73-656e73652e6b,rev?*%
%TF.SameCoordinates,Original*%
%TF.FileFunction,Copper,L1,Top*%
%TF.FilePolarity,Positive*%
%FSLAX46Y46*%
G04 Gerber Fmt 4.6, Leading zero omitted, Abs format (unit mm)*
G04 Created by KiCad (PCBNEW 9.0.4) date 2026-06-11 08:54:37*
%MOMM*%
%LPD*%
G01*
G04 APERTURE LIST*
G04 Aperture macros list*
%AMRoundRect*
0 Rectangle with rounded corners*
0 $1 Rounding radius*
0 $2 $3 $4 $5 $6 $7 $8 $9 X,Y pos of 4 corners*
0 Add a 4 corners polygon primitive as box body*
4,1,4,$2,$3,$4,$5,$6,$7,$8,$9,$2,$3,0*
0 Add four circle primitives for the rounded corners*
1,1,$1+$1,$2,$3*
1,1,$1+$1,$4,$5*
1,1,$1+$1,$6,$7*
1,1,$1+$1,$8,$9*
0 Add four rect primitives between the rounded corners*
20,1,$1+$1,$2,$3,$4,$5,0*
20,1,$1+$1,$4,$5,$6,$7,0*
20,1,$1+$1,$6,$7,$8,$9,0*
20,1,$1+$1,$8,$9,$2,$3,0*%
G04 Aperture macros list end*
%ADD10C,0.300000*%
%TA.AperFunction,NonConductor*%
%ADD11C,0.300000*%
%TD*%
%TA.AperFunction,ComponentPad*%
%ADD12C,1.600000*%
%TD*%
%TA.AperFunction,ComponentPad*%
%ADD13R,3.000000X3.000000*%
%TD*%
%TA.AperFunction,ComponentPad*%
%ADD14C,3.000000*%
%TD*%
%TA.AperFunction,ComponentPad*%
%ADD15R,1.700000X1.700000*%
%TD*%
%TA.AperFunction,ComponentPad*%
%ADD16C,1.700000*%
%TD*%
%TA.AperFunction,ComponentPad*%
%ADD17RoundRect,0.250000X-0.950000X-0.550000X0.950000X-0.550000X0.950000X0.550000X-0.950000X0.550000X0*%
%TD*%
%TA.AperFunction,ComponentPad*%
%ADD18O,2.400000X1.600000*%
%TD*%
%TA.AperFunction,Conductor*%
%ADD19C,1.000000*%
%TD*%
G04 APERTURE END LIST*
D10*
D11*
X66775714Y-41953328D02*
X66275714Y-41239042D01*
X65918571Y-41953328D02*
X65918571Y-40453328D01*
X65918571Y-40453328D02*
X66490000Y-40453328D01*
X66490000Y-40453328D02*
X66632857Y-40524757D01*
X66632857Y-40524757D02*
X66704286Y-40596185D01*
X66704286Y-40596185D02*
X66775714Y-40739042D01*
X66775714Y-40739042D02*
X66775714Y-40953328D01*
X66775714Y-40953328D02*
X66704286Y-41096185D01*
X66704286Y-41096185D02*
X66632857Y-41167614D01*
X66632857Y-41167614D02*
X66490000Y-41239042D01*
X66490000Y-41239042D02*
X65918571Y-41239042D01*
X68204286Y-41953328D02*
X67347143Y-41953328D01*
X67775714Y-41953328D02*
X67775714Y-40453328D01*
X67775714Y-40453328D02*
X67632857Y-40667614D01*
X67632857Y-40667614D02*
X67490000Y-40810471D01*
X67490000Y-40810471D02*
X67347143Y-40881900D01*
X68775714Y-40596185D02*
X68847142Y-40524757D01*
X68847142Y-40524757D02*
X68990000Y-40453328D01*
X68990000Y-40453328D02*
X69347142Y-40453328D01*
X69347142Y-40453328D02*
X69490000Y-40524757D01*
X69490000Y-40524757D02*
X69561428Y-40596185D01*
X69561428Y-40596185D02*
X69632857Y-40739042D01*
X69632857Y-40739042D02*
X69632857Y-40881900D01*
X69632857Y-40881900D02*
X69561428Y-41096185D01*
X69561428Y-41096185D02*
X68704285Y-41953328D01*
X68704285Y-41953328D02*
X69632857Y-41953328D01*
D10*
D11*
X66775714Y-53953328D02*
X66275714Y-53239042D01*
X65918571Y-53953328D02*
X65918571Y-52453328D01*
X65918571Y-52453328D02*
X66490000Y-52453328D01*
X66490000Y-52453328D02*
X66632857Y-52524757D01*
X66632857Y-52524757D02*
X66704286Y-52596185D01*
X66704286Y-52596185D02*
X66775714Y-52739042D01*
X66775714Y-52739042D02*
X66775714Y-52953328D01*
X66775714Y-52953328D02*
X66704286Y-53096185D01*
X66704286Y-53096185D02*
X66632857Y-53167614D01*
X66632857Y-53167614D02*
X66490000Y-53239042D01*
X66490000Y-53239042D02*
X65918571Y-53239042D01*
X68204286Y-53953328D02*
X67347143Y-53953328D01*
X67775714Y-53953328D02*
X67775714Y-52453328D01*
X67775714Y-52453328D02*
X67632857Y-52667614D01*
X67632857Y-52667614D02*
X67490000Y-52810471D01*
X67490000Y-52810471D02*
X67347143Y-52881900D01*
X68704285Y-52453328D02*
X69632857Y-52453328D01*
X69632857Y-52453328D02*
X69132857Y-53024757D01*
X69132857Y-53024757D02*
X69347142Y-53024757D01*
X69347142Y-53024757D02*
X69490000Y-53096185D01*
X69490000Y-53096185D02*
X69561428Y-53167614D01*
X69561428Y-53167614D02*
X69632857Y-53310471D01*
X69632857Y-53310471D02*
X69632857Y-53667614D01*
X69632857Y-53667614D02*
X69561428Y-53810471D01*
X69561428Y-53810471D02*
X69490000Y-53881900D01*
X69490000Y-53881900D02*
X69347142Y-53953328D01*
X69347142Y-53953328D02*
X68918571Y-53953328D01*
X68918571Y-53953328D02*
X68775714Y-53881900D01*
X68775714Y-53881900D02*
X68704285Y-53810471D01*
D10*
D11*
X66775714Y-91403328D02*
X66275714Y-90689042D01*
X65918571Y-91403328D02*
X65918571Y-89903328D01*
X65918571Y-89903328D02*
X66490000Y-89903328D01*
X66490000Y-89903328D02*
X66632857Y-89974757D01*
X66632857Y-89974757D02*
X66704286Y-90046185D01*
X66704286Y-90046185D02*
X66775714Y-90189042D01*
X66775714Y-90189042D02*
X66775714Y-90403328D01*
X66775714Y-90403328D02*
X66704286Y-90546185D01*
X66704286Y-90546185D02*
X66632857Y-90617614D01*
X66632857Y-90617614D02*
X66490000Y-90689042D01*
X66490000Y-90689042D02*
X65918571Y-90689042D01*
X67275714Y-89903328D02*
X68204286Y-89903328D01*
X68204286Y-89903328D02*
X67704286Y-90474757D01*
X67704286Y-90474757D02*
X67918571Y-90474757D01*
X67918571Y-90474757D02*
X68061429Y-90546185D01*
X68061429Y-90546185D02*
X68132857Y-90617614D01*
X68132857Y-90617614D02*
X68204286Y-90760471D01*
X68204286Y-90760471D02*
X68204286Y-91117614D01*
X68204286Y-91117614D02*
X68132857Y-91260471D01*
X68132857Y-91260471D02*
X68061429Y-91331900D01*
X68061429Y-91331900D02*
X67918571Y-91403328D01*
X67918571Y-91403328D02*
X67490000Y-91403328D01*
X67490000Y-91403328D02*
X67347143Y-91331900D01*
X67347143Y-91331900D02*
X67275714Y-91260471D01*
X68775714Y-90046185D02*
X68847142Y-89974757D01*
X68847142Y-89974757D02*
X68990000Y-89903328D01*
X68990000Y-89903328D02*
X69347142Y-89903328D01*
X69347142Y-89903328D02*
X69490000Y-89974757D01*
X69490000Y-89974757D02*
X69561428Y-90046185D01*
X69561428Y-90046185D02*
X69632857Y-90189042D01*
X69632857Y-90189042D02*
X69632857Y-90331900D01*
X69632857Y-90331900D02*
X69561428Y-90546185D01*
X69561428Y-90546185D02*
X68704285Y-91403328D01*
X68704285Y-91403328D02*
X69632857Y-91403328D01*
D10*
D11*
X52775714Y-67953328D02*
X52275714Y-67239042D01*
X51918571Y-67953328D02*
X51918571Y-66453328D01*
X51918571Y-66453328D02*
X52490000Y-66453328D01*
X52490000Y-66453328D02*
X52632857Y-66524757D01*
X52632857Y-66524757D02*
X52704286Y-66596185D01*
X52704286Y-66596185D02*
X52775714Y-66739042D01*
X52775714Y-66739042D02*
X52775714Y-66953328D01*
X52775714Y-66953328D02*
X52704286Y-67096185D01*
X52704286Y-67096185D02*
X52632857Y-67167614D01*
X52632857Y-67167614D02*
X52490000Y-67239042D01*
X52490000Y-67239042D02*
X51918571Y-67239042D01*
X53347143Y-66596185D02*
X53418571Y-66524757D01*
X53418571Y-66524757D02*
X53561429Y-66453328D01*
X53561429Y-66453328D02*
X53918571Y-66453328D01*
X53918571Y-66453328D02*
X54061429Y-66524757D01*
X54061429Y-66524757D02*
X54132857Y-66596185D01*
X54132857Y-66596185D02*
X54204286Y-66739042D01*
X54204286Y-66739042D02*
X54204286Y-66881900D01*
X54204286Y-66881900D02*
X54132857Y-67096185D01*
X54132857Y-67096185D02*
X53275714Y-67953328D01*
X53275714Y-67953328D02*
X54204286Y-67953328D01*
X55632857Y-67953328D02*
X54775714Y-67953328D01*
X55204285Y-67953328D02*
X55204285Y-66453328D01*
X55204285Y-66453328D02*
X55061428Y-66667614D01*
X55061428Y-66667614D02*
X54918571Y-66810471D01*
X54918571Y-66810471D02*
X54775714Y-66881900D01*
D10*
D11*
X52775714Y-47953328D02*
X52275714Y-47239042D01*
X51918571Y-47953328D02*
X51918571Y-46453328D01*
X51918571Y-46453328D02*
X52490000Y-46453328D01*
X52490000Y-46453328D02*
X52632857Y-46524757D01*
X52632857Y-46524757D02*
X52704286Y-46596185D01*
X52704286Y-46596185D02*
X52775714Y-46739042D01*
X52775714Y-46739042D02*
X52775714Y-46953328D01*
X52775714Y-46953328D02*
X52704286Y-47096185D01*
X52704286Y-47096185D02*
X52632857Y-47167614D01*
X52632857Y-47167614D02*
X52490000Y-47239042D01*
X52490000Y-47239042D02*
X51918571Y-47239042D01*
X54204286Y-47953328D02*
X53347143Y-47953328D01*
X53775714Y-47953328D02*
X53775714Y-46453328D01*
X53775714Y-46453328D02*
X53632857Y-46667614D01*
X53632857Y-46667614D02*
X53490000Y-46810471D01*
X53490000Y-46810471D02*
X53347143Y-46881900D01*
X55632857Y-47953328D02*
X54775714Y-47953328D01*
X55204285Y-47953328D02*
X55204285Y-46453328D01*
X55204285Y-46453328D02*
X55061428Y-46667614D01*
X55061428Y-46667614D02*
X54918571Y-46810471D01*
X54918571Y-46810471D02*
X54775714Y-46881900D01*
D10*
D11*
X38240000Y-65453328D02*
X38240000Y-66524757D01*
X38240000Y-66524757D02*
X38168571Y-66739042D01*
X38168571Y-66739042D02*
X38025714Y-66881900D01*
X38025714Y-66881900D02*
X37811428Y-66953328D01*
X37811428Y-66953328D02*
X37668571Y-66953328D01*
X38882857Y-65596185D02*
X38954285Y-65524757D01*
X38954285Y-65524757D02*
X39097143Y-65453328D01*
X39097143Y-65453328D02*
X39454285Y-65453328D01*
X39454285Y-65453328D02*
X39597143Y-65524757D01*
X39597143Y-65524757D02*
X39668571Y-65596185D01*
X39668571Y-65596185D02*
X39740000Y-65739042D01*
X39740000Y-65739042D02*
X39740000Y-65881900D01*
X39740000Y-65881900D02*
X39668571Y-66096185D01*
X39668571Y-66096185D02*
X38811428Y-66953328D01*
X38811428Y-66953328D02*
X39740000Y-66953328D01*
D10*
D11*
X66775714Y-71403328D02*
X66275714Y-70689042D01*
X65918571Y-71403328D02*
X65918571Y-69903328D01*
X65918571Y-69903328D02*
X66490000Y-69903328D01*
X66490000Y-69903328D02*
X66632857Y-69974757D01*
X66632857Y-69974757D02*
X66704286Y-70046185D01*
X66704286Y-70046185D02*
X66775714Y-70189042D01*
X66775714Y-70189042D02*
X66775714Y-70403328D01*
X66775714Y-70403328D02*
X66704286Y-70546185D01*
X66704286Y-70546185D02*
X66632857Y-70617614D01*
X66632857Y-70617614D02*
X66490000Y-70689042D01*
X66490000Y-70689042D02*
X65918571Y-70689042D01*
X67347143Y-70046185D02*
X67418571Y-69974757D01*
X67418571Y-69974757D02*
X67561429Y-69903328D01*
X67561429Y-69903328D02*
X67918571Y-69903328D01*
X67918571Y-69903328D02*
X68061429Y-69974757D01*
X68061429Y-69974757D02*
X68132857Y-70046185D01*
X68132857Y-70046185D02*
X68204286Y-70189042D01*
X68204286Y-70189042D02*
X68204286Y-70331900D01*
X68204286Y-70331900D02*
X68132857Y-70546185D01*
X68132857Y-70546185D02*
X67275714Y-71403328D01*
X67275714Y-71403328D02*
X68204286Y-71403328D01*
X68775714Y-70046185D02*
X68847142Y-69974757D01*
X68847142Y-69974757D02*
X68990000Y-69903328D01*
X68990000Y-69903328D02*
X69347142Y-69903328D01*
X69347142Y-69903328D02*
X69490000Y-69974757D01*
X69490000Y-69974757D02*
X69561428Y-70046185D01*
X69561428Y-70046185D02*
X69632857Y-70189042D01*
X69632857Y-70189042D02*
X69632857Y-70331900D01*
X69632857Y-70331900D02*
X69561428Y-70546185D01*
X69561428Y-70546185D02*
X68704285Y-71403328D01*
X68704285Y-71403328D02*
X69632857Y-71403328D01*
D10*
D11*
X93490000Y-47810471D02*
X93418572Y-47881900D01*
X93418572Y-47881900D02*
X93204286Y-47953328D01*
X93204286Y-47953328D02*
X93061429Y-47953328D01*
X93061429Y-47953328D02*
X92847143Y-47881900D01*
X92847143Y-47881900D02*
X92704286Y-47739042D01*
X92704286Y-47739042D02*
X92632857Y-47596185D01*
X92632857Y-47596185D02*
X92561429Y-47310471D01*
X92561429Y-47310471D02*
X92561429Y-47096185D01*
X92561429Y-47096185D02*
X92632857Y-46810471D01*
X92632857Y-46810471D02*
X92704286Y-46667614D01*
X92704286Y-46667614D02*
X92847143Y-46524757D01*
X92847143Y-46524757D02*
X93061429Y-46453328D01*
X93061429Y-46453328D02*
X93204286Y-46453328D01*
X93204286Y-46453328D02*
X93418572Y-46524757D01*
X93418572Y-46524757D02*
X93490000Y-46596185D01*
X94918572Y-47953328D02*
X94061429Y-47953328D01*
X94490000Y-47953328D02*
X94490000Y-46453328D01*
X94490000Y-46453328D02*
X94347143Y-46667614D01*
X94347143Y-46667614D02*
X94204286Y-46810471D01*
X94204286Y-46810471D02*
X94061429Y-46881900D01*
D10*
D11*
X52775714Y-87953328D02*
X52275714Y-87239042D01*
X51918571Y-87953328D02*
X51918571Y-86453328D01*
X51918571Y-86453328D02*
X52490000Y-86453328D01*
X52490000Y-86453328D02*
X52632857Y-86524757D01*
X52632857Y-86524757D02*
X52704286Y-86596185D01*
X52704286Y-86596185D02*
X52775714Y-86739042D01*
X52775714Y-86739042D02*
X52775714Y-86953328D01*
X52775714Y-86953328D02*
X52704286Y-87096185D01*
X52704286Y-87096185D02*
X52632857Y-87167614D01*
X52632857Y-87167614D02*
X52490000Y-87239042D01*
X52490000Y-87239042D02*
X51918571Y-87239042D01*
X53275714Y-86453328D02*
X54204286Y-86453328D01*
X54204286Y-86453328D02*
X53704286Y-87024757D01*
X53704286Y-87024757D02*
X53918571Y-87024757D01*
X53918571Y-87024757D02*
X54061429Y-87096185D01*
X54061429Y-87096185D02*
X54132857Y-87167614D01*
X54132857Y-87167614D02*
X54204286Y-87310471D01*
X54204286Y-87310471D02*
X54204286Y-87667614D01*
X54204286Y-87667614D02*
X54132857Y-87810471D01*
X54132857Y-87810471D02*
X54061429Y-87881900D01*
X54061429Y-87881900D02*
X53918571Y-87953328D01*
X53918571Y-87953328D02*
X53490000Y-87953328D01*
X53490000Y-87953328D02*
X53347143Y-87881900D01*
X53347143Y-87881900D02*
X53275714Y-87810471D01*
X55632857Y-87953328D02*
X54775714Y-87953328D01*
X55204285Y-87953328D02*
X55204285Y-86453328D01*
X55204285Y-86453328D02*
X55061428Y-86667614D01*
X55061428Y-86667614D02*
X54918571Y-86810471D01*
X54918571Y-86810471D02*
X54775714Y-86881900D01*
D10*
D11*
X93490000Y-81260471D02*
X93418572Y-81331900D01*
X93418572Y-81331900D02*
X93204286Y-81403328D01*
X93204286Y-81403328D02*
X93061429Y-81403328D01*
X93061429Y-81403328D02*
X92847143Y-81331900D01*
X92847143Y-81331900D02*
X92704286Y-81189042D01*
X92704286Y-81189042D02*
X92632857Y-81046185D01*
X92632857Y-81046185D02*
X92561429Y-80760471D01*
X92561429Y-80760471D02*
X92561429Y-80546185D01*
X92561429Y-80546185D02*
X92632857Y-80260471D01*
X92632857Y-80260471D02*
X92704286Y-80117614D01*
X92704286Y-80117614D02*
X92847143Y-79974757D01*
X92847143Y-79974757D02*
X93061429Y-79903328D01*
X93061429Y-79903328D02*
X93204286Y-79903328D01*
X93204286Y-79903328D02*
X93418572Y-79974757D01*
X93418572Y-79974757D02*
X93490000Y-80046185D01*
X94061429Y-80046185D02*
X94132857Y-79974757D01*
X94132857Y-79974757D02*
X94275715Y-79903328D01*
X94275715Y-79903328D02*
X94632857Y-79903328D01*
X94632857Y-79903328D02*
X94775715Y-79974757D01*
X94775715Y-79974757D02*
X94847143Y-80046185D01*
X94847143Y-80046185D02*
X94918572Y-80189042D01*
X94918572Y-80189042D02*
X94918572Y-80331900D01*
X94918572Y-80331900D02*
X94847143Y-80546185D01*
X94847143Y-80546185D02*
X93990000Y-81403328D01*
X93990000Y-81403328D02*
X94918572Y-81403328D01*
D10*
D11*
X80597142Y-50623328D02*
X80597142Y-51837614D01*
X80597142Y-51837614D02*
X80668571Y-51980471D01*
X80668571Y-51980471D02*
X80740000Y-52051900D01*
X80740000Y-52051900D02*
X80882857Y-52123328D01*
X80882857Y-52123328D02*
X81168571Y-52123328D01*
X81168571Y-52123328D02*
X81311428Y-52051900D01*
X81311428Y-52051900D02*
X81382857Y-51980471D01*
X81382857Y-51980471D02*
X81454285Y-51837614D01*
X81454285Y-51837614D02*
X81454285Y-50623328D01*
X82954286Y-52123328D02*
X82097143Y-52123328D01*
X82525714Y-52123328D02*
X82525714Y-50623328D01*
X82525714Y-50623328D02*
X82382857Y-50837614D01*
X82382857Y-50837614D02*
X82240000Y-50980471D01*
X82240000Y-50980471D02*
X82097143Y-51051900D01*
D10*
D11*
X66775714Y-83403328D02*
X66275714Y-82689042D01*
X65918571Y-83403328D02*
X65918571Y-81903328D01*
X65918571Y-81903328D02*
X66490000Y-81903328D01*
X66490000Y-81903328D02*
X66632857Y-81974757D01*
X66632857Y-81974757D02*
X66704286Y-82046185D01*
X66704286Y-82046185D02*
X66775714Y-82189042D01*
X66775714Y-82189042D02*
X66775714Y-82403328D01*
X66775714Y-82403328D02*
X66704286Y-82546185D01*
X66704286Y-82546185D02*
X66632857Y-82617614D01*
X66632857Y-82617614D02*
X66490000Y-82689042D01*
X66490000Y-82689042D02*
X65918571Y-82689042D01*
X67347143Y-82046185D02*
X67418571Y-81974757D01*
X67418571Y-81974757D02*
X67561429Y-81903328D01*
X67561429Y-81903328D02*
X67918571Y-81903328D01*
X67918571Y-81903328D02*
X68061429Y-81974757D01*
X68061429Y-81974757D02*
X68132857Y-82046185D01*
X68132857Y-82046185D02*
X68204286Y-82189042D01*
X68204286Y-82189042D02*
X68204286Y-82331900D01*
X68204286Y-82331900D02*
X68132857Y-82546185D01*
X68132857Y-82546185D02*
X67275714Y-83403328D01*
X67275714Y-83403328D02*
X68204286Y-83403328D01*
X68704285Y-81903328D02*
X69632857Y-81903328D01*
X69632857Y-81903328D02*
X69132857Y-82474757D01*
X69132857Y-82474757D02*
X69347142Y-82474757D01*
X69347142Y-82474757D02*
X69490000Y-82546185D01*
X69490000Y-82546185D02*
X69561428Y-82617614D01*
X69561428Y-82617614D02*
X69632857Y-82760471D01*
X69632857Y-82760471D02*
X69632857Y-83117614D01*
X69632857Y-83117614D02*
X69561428Y-83260471D01*
X69561428Y-83260471D02*
X69490000Y-83331900D01*
X69490000Y-83331900D02*
X69347142Y-83403328D01*
X69347142Y-83403328D02*
X68918571Y-83403328D01*
X68918571Y-83403328D02*
X68775714Y-83331900D01*
X68775714Y-83331900D02*
X68704285Y-83260471D01*
D10*
D11*
X108240000Y-62603328D02*
X108240000Y-63674757D01*
X108240000Y-63674757D02*
X108168571Y-63889042D01*
X108168571Y-63889042D02*
X108025714Y-64031900D01*
X108025714Y-64031900D02*
X107811428Y-64103328D01*
X107811428Y-64103328D02*
X107668571Y-64103328D01*
X109597143Y-63103328D02*
X109597143Y-64103328D01*
X109240000Y-62531900D02*
X108882857Y-63603328D01*
X108882857Y-63603328D02*
X109811428Y-63603328D01*
D10*
D11*
X80597142Y-74623328D02*
X80597142Y-75837614D01*
X80597142Y-75837614D02*
X80668571Y-75980471D01*
X80668571Y-75980471D02*
X80740000Y-76051900D01*
X80740000Y-76051900D02*
X80882857Y-76123328D01*
X80882857Y-76123328D02*
X81168571Y-76123328D01*
X81168571Y-76123328D02*
X81311428Y-76051900D01*
X81311428Y-76051900D02*
X81382857Y-75980471D01*
X81382857Y-75980471D02*
X81454285Y-75837614D01*
X81454285Y-75837614D02*
X81454285Y-74623328D01*
X82097143Y-74766185D02*
X82168571Y-74694757D01*
X82168571Y-74694757D02*
X82311429Y-74623328D01*
X82311429Y-74623328D02*
X82668571Y-74623328D01*
X82668571Y-74623328D02*
X82811429Y-74694757D01*
X82811429Y-74694757D02*
X82882857Y-74766185D01*
X82882857Y-74766185D02*
X82954286Y-74909042D01*
X82954286Y-74909042D02*
X82954286Y-75051900D01*
X82954286Y-75051900D02*
X82882857Y-75266185D01*
X82882857Y-75266185D02*
X82025714Y-76123328D01*
X82025714Y-76123328D02*
X82954286Y-76123328D01*
D10*
D11*
X38240000Y-85453328D02*
X38240000Y-86524757D01*
X38240000Y-86524757D02*
X38168571Y-86739042D01*
X38168571Y-86739042D02*
X38025714Y-86881900D01*
X38025714Y-86881900D02*
X37811428Y-86953328D01*
X37811428Y-86953328D02*
X37668571Y-86953328D01*
X38811428Y-85453328D02*
X39740000Y-85453328D01*
X39740000Y-85453328D02*
X39240000Y-86024757D01*
X39240000Y-86024757D02*
X39454285Y-86024757D01*
X39454285Y-86024757D02*
X39597143Y-86096185D01*
X39597143Y-86096185D02*
X39668571Y-86167614D01*
X39668571Y-86167614D02*
X39740000Y-86310471D01*
X39740000Y-86310471D02*
X39740000Y-86667614D01*
X39740000Y-86667614D02*
X39668571Y-86810471D01*
X39668571Y-86810471D02*
X39597143Y-86881900D01*
X39597143Y-86881900D02*
X39454285Y-86953328D01*
X39454285Y-86953328D02*
X39025714Y-86953328D01*
X39025714Y-86953328D02*
X38882857Y-86881900D01*
X38882857Y-86881900D02*
X38811428Y-86810471D01*
D10*
D11*
X38240000Y-45453328D02*
X38240000Y-46524757D01*
X38240000Y-46524757D02*
X38168571Y-46739042D01*
X38168571Y-46739042D02*
X38025714Y-46881900D01*
X38025714Y-46881900D02*
X37811428Y-46953328D01*
X37811428Y-46953328D02*
X37668571Y-46953328D01*
X39740000Y-46953328D02*
X38882857Y-46953328D01*
X39311428Y-46953328D02*
X39311428Y-45453328D01*
X39311428Y-45453328D02*
X39168571Y-45667614D01*
X39168571Y-45667614D02*
X39025714Y-45810471D01*
X39025714Y-45810471D02*
X38882857Y-45881900D01*
D10*
D11*
X66775714Y-103403328D02*
X66275714Y-102689042D01*
X65918571Y-103403328D02*
X65918571Y-101903328D01*
X65918571Y-101903328D02*
X66490000Y-101903328D01*
X66490000Y-101903328D02*
X66632857Y-101974757D01*
X66632857Y-101974757D02*
X66704286Y-102046185D01*
X66704286Y-102046185D02*
X66775714Y-102189042D01*
X66775714Y-102189042D02*
X66775714Y-102403328D01*
X66775714Y-102403328D02*
X66704286Y-102546185D01*
X66704286Y-102546185D02*
X66632857Y-102617614D01*
X66632857Y-102617614D02*
X66490000Y-102689042D01*
X66490000Y-102689042D02*
X65918571Y-102689042D01*
X67275714Y-101903328D02*
X68204286Y-101903328D01*
X68204286Y-101903328D02*
X67704286Y-102474757D01*
X67704286Y-102474757D02*
X67918571Y-102474757D01*
X67918571Y-102474757D02*
X68061429Y-102546185D01*
X68061429Y-102546185D02*
X68132857Y-102617614D01*
X68132857Y-102617614D02*
X68204286Y-102760471D01*
X68204286Y-102760471D02*
X68204286Y-103117614D01*
X68204286Y-103117614D02*
X68132857Y-103260471D01*
X68132857Y-103260471D02*
X68061429Y-103331900D01*
X68061429Y-103331900D02*
X67918571Y-103403328D01*
X67918571Y-103403328D02*
X67490000Y-103403328D01*
X67490000Y-103403328D02*
X67347143Y-103331900D01*
X67347143Y-103331900D02*
X67275714Y-103260471D01*
X68704285Y-101903328D02*
X69632857Y-101903328D01*
X69632857Y-101903328D02*
X69132857Y-102474757D01*
X69132857Y-102474757D02*
X69347142Y-102474757D01*
X69347142Y-102474757D02*
X69490000Y-102546185D01*
X69490000Y-102546185D02*
X69561428Y-102617614D01*
X69561428Y-102617614D02*
X69632857Y-102760471D01*
X69632857Y-102760471D02*
X69632857Y-103117614D01*
X69632857Y-103117614D02*
X69561428Y-103260471D01*
X69561428Y-103260471D02*
X69490000Y-103331900D01*
X69490000Y-103331900D02*
X69347142Y-103403328D01*
X69347142Y-103403328D02*
X68918571Y-103403328D01*
X68918571Y-103403328D02*
X68775714Y-103331900D01*
X68775714Y-103331900D02*
X68704285Y-103260471D01*
D12*
%TO.P,R13,1*%
%TO.N,/FB1*%
X63930000Y-58000000D03*
%TO.P,R13,2*%
%TO.N,/I_SENSE1*%
X71550000Y-58000000D03*
%TD*%
%TO.P,R11,1*%
%TO.N,/RET1*%
X49930000Y-52000000D03*
%TO.P,R11,2*%
%TO.N,GND*%
X57550000Y-52000000D03*
%TD*%
D13*
%TO.P,J2,1*%
%TO.N,/RET2*%
X41280000Y-72000000D03*
D14*
%TO.P,J2,2*%
%TO.N,GND*%
X36200000Y-72000000D03*
%TD*%
D13*
%TO.P,J3,1*%
%TO.N,/RET3*%
X41280000Y-92000000D03*
D14*
%TO.P,J3,2*%
%TO.N,GND*%
X36200000Y-92000000D03*
%TD*%
D15*
%TO.P,J4,1*%
%TO.N,+5V*%
X108740000Y-66920000D03*
D16*
%TO.P,J4,2*%
%TO.N,/I_SENSE1*%
X108740000Y-69460000D03*
%TO.P,J4,3*%
%TO.N,/I_SENSE2*%
X108740000Y-72000000D03*
%TO.P,J4,4*%
%TO.N,/I_SENSE3*%
X108740000Y-74540000D03*
%TO.P,J4,5*%
%TO.N,GND*%
X108740000Y-77080000D03*
%TD*%
D12*
%TO.P,R23,1*%
%TO.N,/FB2*%
X63930000Y-78000000D03*
%TO.P,R23,2*%
%TO.N,/I_SENSE2*%
X71550000Y-78000000D03*
%TD*%
%TO.P,R33,1*%
%TO.N,/FB3*%
X63930000Y-98000000D03*
%TO.P,R33,2*%
%TO.N,/I_SENSE3*%
X71550000Y-98000000D03*
%TD*%
D17*
%TO.P,U1,1*%
%TO.N,/I_SENSE1*%
X77930000Y-56190000D03*
D18*
%TO.P,U1,2*%
%TO.N,/FB1*%
X77930000Y-58730000D03*
%TO.P,U1,3*%
%TO.N,/RET1*%
X77930000Y-61270000D03*
%TO.P,U1,4*%
%TO.N,GND*%
X77930000Y-63810000D03*
%TO.P,U1,5*%
%TO.N,/RET2*%
X85550000Y-63810000D03*
%TO.P,U1,6*%
%TO.N,/FB2*%
X85550000Y-61270000D03*
%TO.P,U1,7*%
%TO.N,/I_SENSE2*%
X85550000Y-58730000D03*
%TO.P,U1,8*%
%TO.N,+5V*%
X85550000Y-56190000D03*
%TD*%
D13*
%TO.P,J1,1*%
%TO.N,/RET1*%
X41280000Y-52000000D03*
D14*
%TO.P,J1,2*%
%TO.N,GND*%
X36200000Y-52000000D03*
%TD*%
D12*
%TO.P,C1,1*%
%TO.N,+5V*%
X91240000Y-52000000D03*
%TO.P,C1,2*%
%TO.N,GND*%
X96240000Y-52000000D03*
%TD*%
%TO.P,R32,1*%
%TO.N,/FB3*%
X63930000Y-86000000D03*
%TO.P,R32,2*%
%TO.N,GND*%
X71550000Y-86000000D03*
%TD*%
%TO.P,R22,1*%
%TO.N,/FB2*%
X63930000Y-66000000D03*
%TO.P,R22,2*%
%TO.N,GND*%
X71550000Y-66000000D03*
%TD*%
%TO.P,R31,1*%
%TO.N,/RET3*%
X49930000Y-92000000D03*
%TO.P,R31,2*%
%TO.N,GND*%
X57550000Y-92000000D03*
%TD*%
%TO.P,R21,1*%
%TO.N,/RET2*%
X49930000Y-72000000D03*
%TO.P,R21,2*%
%TO.N,GND*%
X57550000Y-72000000D03*
%TD*%
D17*
%TO.P,U2,1*%
%TO.N,/I_SENSE3*%
X77930000Y-80190000D03*
D18*
%TO.P,U2,2*%
%TO.N,/FB3*%
X77930000Y-82730000D03*
%TO.P,U2,3*%
%TO.N,/RET3*%
X77930000Y-85270000D03*
%TO.P,U2,4*%
%TO.N,GND*%
X77930000Y-87810000D03*
%TO.P,U2,5*%
X85550000Y-87810000D03*
%TO.P,U2,6*%
%TO.N,/U2B_FB*%
X85550000Y-85270000D03*
%TO.P,U2,7*%
X85550000Y-82730000D03*
%TO.P,U2,8*%
%TO.N,+5V*%
X85550000Y-80190000D03*
%TD*%
D12*
%TO.P,R12,1*%
%TO.N,/FB1*%
X63930000Y-46000000D03*
%TO.P,R12,2*%
%TO.N,GND*%
X71550000Y-46000000D03*
%TD*%
%TO.P,C2,1*%
%TO.N,+5V*%
X91240000Y-76000000D03*
%TO.P,C2,2*%
%TO.N,GND*%
X96240000Y-76000000D03*
%TD*%
D19*
%TO.N,+5V*%
X108740000Y-66920000D02*
X100320000Y-66920000D01*
X100320000Y-66920000D02*
X91240000Y-76000000D01*
%TO.N,/RET1*%
X59200000Y-61270000D02*
X77930000Y-61270000D01*
X49930000Y-52000000D02*
X59200000Y-61270000D01*
%TO.N,/U2B_FB*%
X88051700Y-82730000D02*
X88051700Y-85270000D01*
X85550000Y-85270000D02*
X88051700Y-85270000D01*
X85550000Y-82730000D02*
X88051700Y-82730000D01*
%TO.N,GND*%
X77930000Y-87810000D02*
X85550000Y-87810000D01*
%TD*%
%TA.AperFunction,NonConductor*%
G36*
X123442539Y-20520185D02*
G01*
X123488294Y-20572989D01*
X123499500Y-20624500D01*
X123499500Y-123375500D01*
X123479815Y-123442539D01*
X123427011Y-123488294D01*
X123375500Y-123499500D01*
X20624500Y-123499500D01*
X20557461Y-123479815D01*
X20511706Y-123427011D01*
X20500500Y-123375500D01*
X20500500Y-104361655D01*
X64963071Y-104361655D01*
X70590082Y-104361655D01*
X70590082Y-100946103D01*
X64963071Y-100946103D01*
X64963071Y-104361655D01*
X20500500Y-104361655D01*
X20500500Y-97874038D01*
X62329500Y-97874038D01*
X62329500Y-98125961D01*
X62368910Y-98374785D01*
X62446760Y-98614383D01*
X62561132Y-98838848D01*
X62709201Y-99042649D01*
X62709205Y-99042654D01*
X62887345Y-99220794D01*
X62887350Y-99220798D01*
X63065117Y-99349952D01*
X63091155Y-99368870D01*
X63234184Y-99441747D01*
X63315616Y-99483239D01*
X63315618Y-99483239D01*
X63315621Y-99483241D01*
X63555215Y-99561090D01*
X63804038Y-99600500D01*
X63804039Y-99600500D01*
X64055961Y-99600500D01*
X64055962Y-99600500D01*
X64304785Y-99561090D01*
X64544379Y-99483241D01*
X64768845Y-99368870D01*
X64972656Y-99220793D01*
X65150793Y-99042656D01*
X65298870Y-98838845D01*
X65413241Y-98614379D01*
X65491090Y-98374785D01*
X65530500Y-98125962D01*
X65530500Y-97874038D01*
X69949500Y-97874038D01*
X69949500Y-98125961D01*
X69988910Y-98374785D01*
X70066760Y-98614383D01*
X70181132Y-98838848D01*
X70329201Y-99042649D01*
X70329205Y-99042654D01*
X70507345Y-99220794D01*
X70507350Y-99220798D01*
X70685117Y-99349952D01*
X70711155Y-99368870D01*
X70854184Y-99441747D01*
X70935616Y-99483239D01*
X70935618Y-99483239D01*
X70935621Y-99483241D01*
X71175215Y-99561090D01*
X71424038Y-99600500D01*
X71424039Y-99600500D01*
X71675961Y-99600500D01*
X71675962Y-99600500D01*
X71924785Y-99561090D01*
X72164379Y-99483241D01*
X72388845Y-99368870D01*
X72592656Y-99220793D01*
X72770793Y-99042656D01*
X72918870Y-98838845D01*
X73033241Y-98614379D01*
X73111090Y-98374785D01*
X73150500Y-98125962D01*
X73150500Y-97874038D01*
X73111090Y-97625215D01*
X73033241Y-97385621D01*
X73033239Y-97385618D01*
X73033239Y-97385616D01*
X72991747Y-97304184D01*
X72918870Y-97161155D01*
X72899952Y-97135117D01*
X72770798Y-96957350D01*
X72770794Y-96957345D01*
X72592654Y-96779205D01*
X72592649Y-96779201D01*
X72388848Y-96631132D01*
X72388847Y-96631131D01*
X72388845Y-96631130D01*
X72318747Y-96595413D01*
X72164383Y-96516760D01*
X71924785Y-96438910D01*
X71675962Y-96399500D01*
X71424038Y-96399500D01*
X71299626Y-96419205D01*
X71175214Y-96438910D01*
X70935616Y-96516760D01*
X70711151Y-96631132D01*
X70507350Y-96779201D01*
X70507345Y-96779205D01*
X70329205Y-96957345D01*
X70329201Y-96957350D01*
X70181132Y-97161151D01*
X70066760Y-97385616D01*
X69988910Y-97625214D01*
X69949500Y-97874038D01*
X65530500Y-97874038D01*
X65491090Y-97625215D01*
X65413241Y-97385621D01*
X65413239Y-97385618D01*
X65413239Y-97385616D01*
X65371747Y-97304184D01*
X65298870Y-97161155D01*
X65279952Y-97135117D01*
X65150798Y-96957350D01*
X65150794Y-96957345D01*
X64972654Y-96779205D01*
X64972649Y-96779201D01*
X64768848Y-96631132D01*
X64768847Y-96631131D01*
X64768845Y-96631130D01*
X64698747Y-96595413D01*
X64544383Y-96516760D01*
X64304785Y-96438910D01*
X64055962Y-96399500D01*
X63804038Y-96399500D01*
X63679626Y-96419205D01*
X63555214Y-96438910D01*
X63315616Y-96516760D01*
X63091151Y-96631132D01*
X62887350Y-96779201D01*
X62887345Y-96779205D01*
X62709205Y-96957345D01*
X62709201Y-96957350D01*
X62561132Y-97161151D01*
X62446760Y-97385616D01*
X62368910Y-97625214D01*
X62329500Y-97874038D01*
X20500500Y-97874038D01*
X20500500Y-91849223D01*
X33899500Y-91849223D01*
X33899500Y-92150776D01*
X33899501Y-92150793D01*
X33938861Y-92449766D01*
X34016913Y-92741060D01*
X34132314Y-93019661D01*
X34132318Y-93019671D01*
X34283099Y-93280831D01*
X34466679Y-93520078D01*
X34466685Y-93520085D01*
X34679914Y-93733314D01*
X34679921Y-93733320D01*
X34919168Y-93916900D01*
X35180328Y-94067681D01*
X35180329Y-94067681D01*
X35180332Y-94067683D01*
X35366072Y-94144619D01*
X35458939Y-94183086D01*
X35458940Y-94183086D01*
X35458942Y-94183087D01*
X35750232Y-94261138D01*
X36049217Y-94300500D01*
X36049224Y-94300500D01*
X36350776Y-94300500D01*
X36350783Y-94300500D01*
X36649768Y-94261138D01*
X36941058Y-94183087D01*
X37219668Y-94067683D01*
X37480832Y-93916900D01*
X37720080Y-93733319D01*
X37933319Y-93520080D01*
X38116900Y-93280832D01*
X38267683Y-93019668D01*
X38383087Y-92741058D01*
X38461138Y-92449768D01*
X38500500Y-92150783D01*
X38500500Y-91849217D01*
X38461138Y-91550232D01*
X38383087Y-91258942D01*
X38267683Y-90980332D01*
X38254414Y-90957350D01*
X38116900Y-90719168D01*
X37969486Y-90527053D01*
X37933320Y-90479921D01*
X37933314Y-90479914D01*
X37908439Y-90455039D01*
X38979500Y-90455039D01*
X38979500Y-93544960D01*
X38994630Y-93679249D01*
X38994631Y-93679254D01*
X39054211Y-93849523D01*
X39096547Y-93916900D01*
X39150184Y-94002262D01*
X39277738Y-94129816D01*
X39430478Y-94225789D01*
X39531500Y-94261138D01*
X39600745Y-94285368D01*
X39600750Y-94285369D01*
X39691246Y-94295565D01*
X39735040Y-94300499D01*
X39735043Y-94300500D01*
X39735046Y-94300500D01*
X42824957Y-94300500D01*
X42824958Y-94300499D01*
X42892104Y-94292934D01*
X42959249Y-94285369D01*
X42959252Y-94285368D01*
X42959255Y-94285368D01*
X43129522Y-94225789D01*
X43282262Y-94129816D01*
X43409816Y-94002262D01*
X43505789Y-93849522D01*
X43565368Y-93679255D01*
X43580500Y-93544954D01*
X43580500Y-91874038D01*
X48329500Y-91874038D01*
X48329500Y-92125961D01*
X48368910Y-92374785D01*
X48446760Y-92614383D01*
X48561132Y-92838848D01*
X48709201Y-93042649D01*
X48709205Y-93042654D01*
X48887345Y-93220794D01*
X48887350Y-93220798D01*
X49065117Y-93349952D01*
X49091155Y-93368870D01*
X49234184Y-93441747D01*
X49315616Y-93483239D01*
X49315618Y-93483239D01*
X49315621Y-93483241D01*
X49555215Y-93561090D01*
X49804038Y-93600500D01*
X49804039Y-93600500D01*
X50055961Y-93600500D01*
X50055962Y-93600500D01*
X50304785Y-93561090D01*
X50544379Y-93483241D01*
X50768845Y-93368870D01*
X50972656Y-93220793D01*
X51150793Y-93042656D01*
X51298870Y-92838845D01*
X51413241Y-92614379D01*
X51491090Y-92374785D01*
X51530500Y-92125962D01*
X51530500Y-91874038D01*
X55949500Y-91874038D01*
X55949500Y-92125961D01*
X55988910Y-92374785D01*
X56066760Y-92614383D01*
X56181132Y-92838848D01*
X56329201Y-93042649D01*
X56329205Y-93042654D01*
X56507345Y-93220794D01*
X56507350Y-93220798D01*
X56685117Y-93349952D01*
X56711155Y-93368870D01*
X56854184Y-93441747D01*
X56935616Y-93483239D01*
X56935618Y-93483239D01*
X56935621Y-93483241D01*
X57175215Y-93561090D01*
X57424038Y-93600500D01*
X57424039Y-93600500D01*
X57675961Y-93600500D01*
X57675962Y-93600500D01*
X57924785Y-93561090D01*
X58164379Y-93483241D01*
X58388845Y-93368870D01*
X58592656Y-93220793D01*
X58770793Y-93042656D01*
X58918870Y-92838845D01*
X59033241Y-92614379D01*
X59111090Y-92374785D01*
X59113170Y-92361655D01*
X64963071Y-92361655D01*
X70590082Y-92361655D01*
X70590082Y-88946103D01*
X64963071Y-88946103D01*
X64963071Y-92361655D01*
X59113170Y-92361655D01*
X59150500Y-92125962D01*
X59150500Y-91874038D01*
X59111090Y-91625215D01*
X59033241Y-91385621D01*
X59033239Y-91385618D01*
X59033239Y-91385616D01*
X58968693Y-91258939D01*
X58918870Y-91161155D01*
X58899952Y-91135117D01*
X58770798Y-90957350D01*
X58770794Y-90957345D01*
X58592654Y-90779205D01*
X58592649Y-90779201D01*
X58388848Y-90631132D01*
X58388847Y-90631131D01*
X58388845Y-90631130D01*
X58318747Y-90595413D01*
X58164383Y-90516760D01*
X57924785Y-90438910D01*
X57675962Y-90399500D01*
X57424038Y-90399500D01*
X57299626Y-90419205D01*
X57175214Y-90438910D01*
X56935616Y-90516760D01*
X56711151Y-90631132D01*
X56507350Y-90779201D01*
X56507345Y-90779205D01*
X56329205Y-90957345D01*
X56329201Y-90957350D01*
X56181132Y-91161151D01*
X56066760Y-91385616D01*
X55988910Y-91625214D01*
X55949500Y-91874038D01*
X51530500Y-91874038D01*
X51491090Y-91625215D01*
X51413241Y-91385621D01*
X51413239Y-91385618D01*
X51413239Y-91385616D01*
X51348693Y-91258939D01*
X51298870Y-91161155D01*
X51279952Y-91135117D01*
X51150798Y-90957350D01*
X51150794Y-90957345D01*
X50972654Y-90779205D01*
X50972649Y-90779201D01*
X50768848Y-90631132D01*
X50768847Y-90631131D01*
X50768845Y-90631130D01*
X50698747Y-90595413D01*
X50544383Y-90516760D01*
X50304785Y-90438910D01*
X50055962Y-90399500D01*
X49804038Y-90399500D01*
X49679626Y-90419205D01*
X49555214Y-90438910D01*
X49315616Y-90516760D01*
X49091151Y-90631132D01*
X48887350Y-90779201D01*
X48887345Y-90779205D01*
X48709205Y-90957345D01*
X48709201Y-90957350D01*
X48561132Y-91161151D01*
X48446760Y-91385616D01*
X48368910Y-91625214D01*
X48329500Y-91874038D01*
X43580500Y-91874038D01*
X43580500Y-90455046D01*
X43565368Y-90320745D01*
X43505789Y-90150478D01*
X43409816Y-89997738D01*
X43282262Y-89870184D01*
X43197482Y-89816913D01*
X43129523Y-89774211D01*
X42959254Y-89714631D01*
X42959249Y-89714630D01*
X42824960Y-89699500D01*
X42824954Y-89699500D01*
X39735046Y-89699500D01*
X39735039Y-89699500D01*
X39600750Y-89714630D01*
X39600745Y-89714631D01*
X39430476Y-89774211D01*
X39277737Y-89870184D01*
X39150184Y-89997737D01*
X39054211Y-90150476D01*
X38994631Y-90320745D01*
X38994630Y-90320750D01*
X38979500Y-90455039D01*
X37908439Y-90455039D01*
X37720085Y-90266685D01*
X37720078Y-90266679D01*
X37480831Y-90083099D01*
X37219671Y-89932318D01*
X37219661Y-89932314D01*
X36941060Y-89816913D01*
X36649766Y-89738861D01*
X36350793Y-89699501D01*
X36350788Y-89699500D01*
X36350783Y-89699500D01*
X36049217Y-89699500D01*
X36049211Y-89699500D01*
X36049206Y-89699501D01*
X35750233Y-89738861D01*
X35458939Y-89816913D01*
X35180338Y-89932314D01*
X35180328Y-89932318D01*
X34919168Y-90083099D01*
X34679921Y-90266679D01*
X34679914Y-90266685D01*
X34466685Y-90479914D01*
X34466679Y-90479921D01*
X34283099Y-90719168D01*
X34132318Y-90980328D01*
X34132314Y-90980338D01*
X34016913Y-91258939D01*
X33938861Y-91550233D01*
X33899501Y-91849206D01*
X33899500Y-91849223D01*
X20500500Y-91849223D01*
X20500500Y-88911655D01*
X50963071Y-88911655D01*
X56588357Y-88911655D01*
X56588357Y-85874038D01*
X62329500Y-85874038D01*
X62329500Y-86125961D01*
X62368910Y-86374785D01*
X62446760Y-86614383D01*
X62561132Y-86838848D01*
X62709201Y-87042649D01*
X62709205Y-87042654D01*
X62887345Y-87220794D01*
X62887350Y-87220798D01*
X63065117Y-87349952D01*
X63091155Y-87368870D01*
X63221363Y-87435214D01*
X63315616Y-87483239D01*
X63315618Y-87483239D01*
X63315621Y-87483241D01*
X63555215Y-87561090D01*
X63804038Y-87600500D01*
X63804039Y-87600500D01*
X64055961Y-87600500D01*
X64055962Y-87600500D01*
X64304785Y-87561090D01*
X64544379Y-87483241D01*
X64768845Y-87368870D01*
X64972656Y-87220793D01*
X65150793Y-87042656D01*
X65298870Y-86838845D01*
X65413241Y-86614379D01*
X65491090Y-86374785D01*
X65530500Y-86125962D01*
X65530500Y-85874038D01*
X69949500Y-85874038D01*
X69949500Y-86125961D01*
X69988910Y-86374785D01*
X70066760Y-86614383D01*
X70181132Y-86838848D01*
X70329201Y-87042649D01*
X70329205Y-87042654D01*
X70507345Y-87220794D01*
X70507350Y-87220798D01*
X70685117Y-87349952D01*
X70711155Y-87368870D01*
X70841363Y-87435214D01*
X70935616Y-87483239D01*
X70935618Y-87483239D01*
X70935621Y-87483241D01*
X71175215Y-87561090D01*
X71424038Y-87600500D01*
X71424039Y-87600500D01*
X71675961Y-87600500D01*
X71675962Y-87600500D01*
X71924785Y-87561090D01*
X72164379Y-87483241D01*
X72388845Y-87368870D01*
X72592656Y-87220793D01*
X72770793Y-87042656D01*
X72918870Y-86838845D01*
X73033241Y-86614379D01*
X73111090Y-86374785D01*
X73150500Y-86125962D01*
X73150500Y-85874038D01*
X73111090Y-85625215D01*
X73033241Y-85385621D01*
X73033239Y-85385618D01*
X73033239Y-85385616D01*
X72991747Y-85304184D01*
X72918870Y-85161155D01*
X72899952Y-85135117D01*
X72770798Y-84957350D01*
X72770794Y-84957345D01*
X72592654Y-84779205D01*
X72592649Y-84779201D01*
X72388848Y-84631132D01*
X72388847Y-84631131D01*
X72388845Y-84631130D01*
X72318747Y-84595413D01*
X72164383Y-84516760D01*
X71924785Y-84438910D01*
X71875797Y-84431151D01*
X71675962Y-84399500D01*
X71424038Y-84399500D01*
X71299626Y-84419205D01*
X71175214Y-84438910D01*
X70935616Y-84516760D01*
X70711151Y-84631132D01*
X70507350Y-84779201D01*
X70507345Y-84779205D01*
X70329205Y-84957345D01*
X70329201Y-84957350D01*
X70181132Y-85161151D01*
X70066760Y-85385616D01*
X69988910Y-85625214D01*
X69949500Y-85874038D01*
X65530500Y-85874038D01*
X65491090Y-85625215D01*
X65413241Y-85385621D01*
X65413239Y-85385618D01*
X65413239Y-85385616D01*
X65371747Y-85304184D01*
X65298870Y-85161155D01*
X65279952Y-85135117D01*
X65150798Y-84957350D01*
X65150794Y-84957345D01*
X64972654Y-84779205D01*
X64972649Y-84779201D01*
X64768848Y-84631132D01*
X64768847Y-84631131D01*
X64768845Y-84631130D01*
X64698747Y-84595413D01*
X64544383Y-84516760D01*
X64304785Y-84438910D01*
X64255797Y-84431151D01*
X64055962Y-84399500D01*
X63804038Y-84399500D01*
X63679626Y-84419205D01*
X63555214Y-84438910D01*
X63315616Y-84516760D01*
X63091151Y-84631132D01*
X62887350Y-84779201D01*
X62887345Y-84779205D01*
X62709205Y-84957345D01*
X62709201Y-84957350D01*
X62561132Y-85161151D01*
X62446760Y-85385616D01*
X62368910Y-85625214D01*
X62329500Y-85874038D01*
X56588357Y-85874038D01*
X56588357Y-85494984D01*
X50963071Y-85494984D01*
X50963071Y-88911655D01*
X20500500Y-88911655D01*
X20500500Y-87910553D01*
X36713071Y-87910553D01*
X40697225Y-87910553D01*
X40697225Y-84496187D01*
X36713071Y-84496187D01*
X36713071Y-87910553D01*
X20500500Y-87910553D01*
X20500500Y-84361655D01*
X64963071Y-84361655D01*
X70590082Y-84361655D01*
X70590082Y-80946103D01*
X64963071Y-80946103D01*
X64963071Y-84361655D01*
X20500500Y-84361655D01*
X20500500Y-77874038D01*
X62329500Y-77874038D01*
X62329500Y-78125962D01*
X62334136Y-78155231D01*
X62368910Y-78374785D01*
X62446760Y-78614383D01*
X62561132Y-78838848D01*
X62709201Y-79042649D01*
X62709205Y-79042654D01*
X62887345Y-79220794D01*
X62887350Y-79220798D01*
X63065117Y-79349952D01*
X63091155Y-79368870D01*
X63234184Y-79441747D01*
X63315616Y-79483239D01*
X63315618Y-79483239D01*
X63315621Y-79483241D01*
X63555215Y-79561090D01*
X63804038Y-79600500D01*
X63804039Y-79600500D01*
X64055961Y-79600500D01*
X64055962Y-79600500D01*
X64304785Y-79561090D01*
X64544379Y-79483241D01*
X64768845Y-79368870D01*
X64972656Y-79220793D01*
X65150793Y-79042656D01*
X65298870Y-78838845D01*
X65413241Y-78614379D01*
X65491090Y-78374785D01*
X65530500Y-78125962D01*
X65530500Y-77874038D01*
X69949500Y-77874038D01*
X69949500Y-78125962D01*
X69954136Y-78155231D01*
X69988910Y-78374785D01*
X70066760Y-78614383D01*
X70181132Y-78838848D01*
X70329201Y-79042649D01*
X70329205Y-79042654D01*
X70507345Y-79220794D01*
X70507350Y-79220798D01*
X70685117Y-79349952D01*
X70711155Y-79368870D01*
X70854184Y-79441747D01*
X70935616Y-79483239D01*
X70935618Y-79483239D01*
X70935621Y-79483241D01*
X71175215Y-79561090D01*
X71424038Y-79600500D01*
X71424039Y-79600500D01*
X71675961Y-79600500D01*
X71675962Y-79600500D01*
X71752408Y-79588392D01*
X75929500Y-79588392D01*
X75929500Y-80791608D01*
X75934502Y-80842398D01*
X75944699Y-80945932D01*
X75944700Y-80945934D01*
X76004768Y-81143954D01*
X76102315Y-81326450D01*
X76190285Y-81433642D01*
X76233590Y-81486410D01*
X76282049Y-81526180D01*
X76321383Y-81583926D01*
X76323254Y-81653770D01*
X76303703Y-81694918D01*
X76161129Y-81891155D01*
X76046760Y-82115616D01*
X75968910Y-82355214D01*
X75929500Y-82604038D01*
X75929500Y-82855961D01*
X75968910Y-83104785D01*
X76046760Y-83344383D01*
X76161132Y-83568848D01*
X76309201Y-83772649D01*
X76309205Y-83772654D01*
X76448870Y-83912319D01*
X76482355Y-83973642D01*
X76477371Y-84043334D01*
X76448870Y-84087681D01*
X76309205Y-84227345D01*
X76309201Y-84227350D01*
X76161132Y-84431151D01*
X76046760Y-84655616D01*
X75968910Y-84895214D01*
X75929500Y-85144038D01*
X75929500Y-85395961D01*
X75968910Y-85644785D01*
X76046760Y-85884383D01*
X76161132Y-86108848D01*
X76309201Y-86312649D01*
X76309205Y-86312654D01*
X76448870Y-86452319D01*
X76482355Y-86513642D01*
X76477371Y-86583334D01*
X76448870Y-86627681D01*
X76309205Y-86767345D01*
X76309201Y-86767350D01*
X76161132Y-86971151D01*
X76046760Y-87195616D01*
X75968910Y-87435214D01*
X75929500Y-87684038D01*
X75929500Y-87935961D01*
X75968910Y-88184785D01*
X76046760Y-88424383D01*
X76161132Y-88648848D01*
X76309201Y-88852649D01*
X76309205Y-88852654D01*
X76487345Y-89030794D01*
X76487350Y-89030798D01*
X76629647Y-89134182D01*
X76691155Y-89178870D01*
X76834184Y-89251747D01*
X76915616Y-89293239D01*
X76915618Y-89293239D01*
X76915621Y-89293241D01*
X77155215Y-89371090D01*
X77404038Y-89410500D01*
X77404039Y-89410500D01*
X78455961Y-89410500D01*
X78455962Y-89410500D01*
X78704785Y-89371090D01*
X78944379Y-89293241D01*
X79168845Y-89178870D01*
X79230353Y-89134181D01*
X79296158Y-89110702D01*
X79303238Y-89110500D01*
X84176762Y-89110500D01*
X84243801Y-89130185D01*
X84249637Y-89134175D01*
X84311155Y-89178870D01*
X84417206Y-89232905D01*
X84535616Y-89293239D01*
X84535618Y-89293239D01*
X84535621Y-89293241D01*
X84775215Y-89371090D01*
X85024038Y-89410500D01*
X85024039Y-89410500D01*
X86075961Y-89410500D01*
X86075962Y-89410500D01*
X86324785Y-89371090D01*
X86564379Y-89293241D01*
X86788845Y-89178870D01*
X86992656Y-89030793D01*
X87170793Y-88852656D01*
X87318870Y-88648845D01*
X87433241Y-88424379D01*
X87511090Y-88184785D01*
X87550500Y-87935962D01*
X87550500Y-87684038D01*
X87511090Y-87435215D01*
X87433241Y-87195621D01*
X87433239Y-87195618D01*
X87433239Y-87195616D01*
X87391747Y-87114184D01*
X87318870Y-86971155D01*
X87222744Y-86838848D01*
X87170824Y-86767385D01*
X87147344Y-86701579D01*
X87163170Y-86633525D01*
X87213276Y-86584830D01*
X87271142Y-86570500D01*
X88154051Y-86570500D01*
X88154052Y-86570500D01*
X88356234Y-86538477D01*
X88550919Y-86475220D01*
X88733310Y-86382287D01*
X88829206Y-86312615D01*
X88898913Y-86261971D01*
X88898915Y-86261968D01*
X88898919Y-86261966D01*
X89043666Y-86117219D01*
X89043668Y-86117215D01*
X89043671Y-86117213D01*
X89096432Y-86044590D01*
X89163987Y-85951610D01*
X89256920Y-85769219D01*
X89320177Y-85574534D01*
X89352200Y-85372352D01*
X89352200Y-82627648D01*
X89320177Y-82425465D01*
X89299086Y-82360553D01*
X91603225Y-82360553D01*
X95875797Y-82360553D01*
X95875797Y-78946103D01*
X91603225Y-78946103D01*
X91603225Y-82360553D01*
X89299086Y-82360553D01*
X89256918Y-82230776D01*
X89198240Y-82115616D01*
X89163987Y-82048390D01*
X89156256Y-82037749D01*
X89043671Y-81882786D01*
X88898913Y-81738028D01*
X88733313Y-81617715D01*
X88733312Y-81617714D01*
X88733310Y-81617713D01*
X88676353Y-81588691D01*
X88550923Y-81524781D01*
X88356234Y-81461522D01*
X88180203Y-81433642D01*
X88154052Y-81429500D01*
X88154051Y-81429500D01*
X87271142Y-81429500D01*
X87204103Y-81409815D01*
X87158348Y-81357011D01*
X87148404Y-81287853D01*
X87170824Y-81232615D01*
X87259103Y-81111106D01*
X87318870Y-81028845D01*
X87433241Y-80804379D01*
X87511090Y-80564785D01*
X87550500Y-80315962D01*
X87550500Y-80064038D01*
X87511090Y-79815215D01*
X87433241Y-79575621D01*
X87433239Y-79575618D01*
X87433239Y-79575616D01*
X87381902Y-79474863D01*
X87318870Y-79351155D01*
X87235239Y-79236046D01*
X87170798Y-79147350D01*
X87170794Y-79147345D01*
X86992654Y-78969205D01*
X86992649Y-78969201D01*
X86788848Y-78821132D01*
X86788847Y-78821131D01*
X86788845Y-78821130D01*
X86673418Y-78762317D01*
X86564383Y-78706760D01*
X86324785Y-78628910D01*
X86075962Y-78589500D01*
X85024038Y-78589500D01*
X84928076Y-78604699D01*
X84775214Y-78628910D01*
X84535616Y-78706760D01*
X84311151Y-78821132D01*
X84107350Y-78969201D01*
X84107345Y-78969205D01*
X83929205Y-79147345D01*
X83929201Y-79147350D01*
X83781132Y-79351151D01*
X83666760Y-79575616D01*
X83588910Y-79815214D01*
X83549500Y-80064038D01*
X83549500Y-80315961D01*
X83588910Y-80564785D01*
X83666760Y-80804383D01*
X83781132Y-81028848D01*
X83929201Y-81232649D01*
X83929205Y-81232654D01*
X84068870Y-81372319D01*
X84102355Y-81433642D01*
X84097371Y-81503334D01*
X84068870Y-81547681D01*
X83929205Y-81687345D01*
X83929201Y-81687350D01*
X83781132Y-81891151D01*
X83666760Y-82115616D01*
X83588910Y-82355214D01*
X83549500Y-82604038D01*
X83549500Y-82855961D01*
X83588910Y-83104785D01*
X83666760Y-83344383D01*
X83781132Y-83568848D01*
X83929201Y-83772649D01*
X83929205Y-83772654D01*
X84068870Y-83912319D01*
X84102355Y-83973642D01*
X84097371Y-84043334D01*
X84068870Y-84087681D01*
X83929205Y-84227345D01*
X83929201Y-84227350D01*
X83781132Y-84431151D01*
X83666760Y-84655616D01*
X83588910Y-84895214D01*
X83549500Y-85144038D01*
X83549500Y-85395961D01*
X83588910Y-85644785D01*
X83666760Y-85884383D01*
X83781132Y-86108848D01*
X83929176Y-86312615D01*
X83952656Y-86378421D01*
X83936830Y-86446475D01*
X83886724Y-86495170D01*
X83828858Y-86509500D01*
X79651142Y-86509500D01*
X79584103Y-86489815D01*
X79538348Y-86437011D01*
X79528404Y-86367853D01*
X79550824Y-86312615D01*
X79639103Y-86191106D01*
X79698870Y-86108845D01*
X79813241Y-85884379D01*
X79891090Y-85644785D01*
X79930500Y-85395962D01*
X79930500Y-85144038D01*
X79891090Y-84895215D01*
X79813241Y-84655621D01*
X79813239Y-84655618D01*
X79813239Y-84655616D01*
X79771747Y-84574184D01*
X79698870Y-84431155D01*
X79675871Y-84399500D01*
X79550798Y-84227350D01*
X79550794Y-84227345D01*
X79411130Y-84087681D01*
X79377645Y-84026358D01*
X79382629Y-83956666D01*
X79411130Y-83912319D01*
X79550793Y-83772656D01*
X79698870Y-83568845D01*
X79813241Y-83344379D01*
X79891090Y-83104785D01*
X79930500Y-82855962D01*
X79930500Y-82604038D01*
X79891090Y-82355215D01*
X79813241Y-82115621D01*
X79813239Y-82115618D01*
X79813239Y-82115616D01*
X79771747Y-82034184D01*
X79698870Y-81891155D01*
X79556296Y-81694918D01*
X79532816Y-81629112D01*
X79548641Y-81561058D01*
X79577948Y-81526181D01*
X79626410Y-81486410D01*
X79757685Y-81326450D01*
X79855232Y-81143954D01*
X79915300Y-80945934D01*
X79930500Y-80791608D01*
X79930500Y-79588392D01*
X79915300Y-79434066D01*
X79855232Y-79236046D01*
X79757685Y-79053550D01*
X79669506Y-78946103D01*
X79626410Y-78893589D01*
X79466452Y-78762317D01*
X79466453Y-78762317D01*
X79466450Y-78762315D01*
X79283954Y-78664768D01*
X79085934Y-78604700D01*
X79085932Y-78604699D01*
X79085934Y-78604699D01*
X78966805Y-78592966D01*
X78931608Y-78589500D01*
X76928392Y-78589500D01*
X76890298Y-78593251D01*
X76774067Y-78604699D01*
X76576043Y-78664769D01*
X76497487Y-78706759D01*
X76393550Y-78762315D01*
X76393548Y-78762316D01*
X76393547Y-78762317D01*
X76233589Y-78893589D01*
X76102317Y-79053547D01*
X76004769Y-79236043D01*
X75944699Y-79434067D01*
X75933251Y-79550298D01*
X75929500Y-79588392D01*
X71752408Y-79588392D01*
X71924785Y-79561090D01*
X72164379Y-79483241D01*
X72388845Y-79368870D01*
X72592656Y-79220793D01*
X72770793Y-79042656D01*
X72918870Y-78838845D01*
X73033241Y-78614379D01*
X73111090Y-78374785D01*
X73150500Y-78125962D01*
X73150500Y-77874038D01*
X73111090Y-77625215D01*
X73033241Y-77385621D01*
X73033239Y-77385618D01*
X73033239Y-77385616D01*
X72991747Y-77304184D01*
X72918870Y-77161155D01*
X72899952Y-77135117D01*
X72860309Y-77080553D01*
X79639917Y-77080553D01*
X83911511Y-77080553D01*
X83911511Y-75874038D01*
X89639500Y-75874038D01*
X89639500Y-76125961D01*
X89678910Y-76374785D01*
X89756760Y-76614383D01*
X89871132Y-76838848D01*
X90019201Y-77042649D01*
X90019205Y-77042654D01*
X90197345Y-77220794D01*
X90197350Y-77220798D01*
X90375117Y-77349952D01*
X90401155Y-77368870D01*
X90544184Y-77441747D01*
X90625616Y-77483239D01*
X90625618Y-77483239D01*
X90625621Y-77483241D01*
X90865215Y-77561090D01*
X91114038Y-77600500D01*
X91114039Y-77600500D01*
X91365961Y-77600500D01*
X91365962Y-77600500D01*
X91614785Y-77561090D01*
X91854379Y-77483241D01*
X92078845Y-77368870D01*
X92282656Y-77220793D01*
X92460793Y-77042656D01*
X92608870Y-76838845D01*
X92723241Y-76614379D01*
X92801090Y-76374785D01*
X92812984Y-76299687D01*
X92842911Y-76236557D01*
X92847757Y-76231426D01*
X93205145Y-75874038D01*
X94639500Y-75874038D01*
X94639500Y-76125961D01*
X94678910Y-76374785D01*
X94756760Y-76614383D01*
X94871132Y-76838848D01*
X95019201Y-77042649D01*
X95019205Y-77042654D01*
X95197345Y-77220794D01*
X95197350Y-77220798D01*
X95375117Y-77349952D01*
X95401155Y-77368870D01*
X95544184Y-77441747D01*
X95625616Y-77483239D01*
X95625618Y-77483239D01*
X95625621Y-77483241D01*
X95865215Y-77561090D01*
X96114038Y-77600500D01*
X96114039Y-77600500D01*
X96365961Y-77600500D01*
X96365962Y-77600500D01*
X96614785Y-77561090D01*
X96854379Y-77483241D01*
X97078845Y-77368870D01*
X97282656Y-77220793D01*
X97460793Y-77042656D01*
X97608870Y-76838845D01*
X97723241Y-76614379D01*
X97801090Y-76374785D01*
X97840500Y-76125962D01*
X97840500Y-75874038D01*
X97801090Y-75625215D01*
X97723241Y-75385621D01*
X97723239Y-75385618D01*
X97723239Y-75385616D01*
X97681747Y-75304184D01*
X97608870Y-75161155D01*
X97589952Y-75135117D01*
X97460798Y-74957350D01*
X97460794Y-74957345D01*
X97282654Y-74779205D01*
X97282649Y-74779201D01*
X97078848Y-74631132D01*
X97078847Y-74631131D01*
X97078845Y-74631130D01*
X97008747Y-74595413D01*
X96854383Y-74516760D01*
X96614785Y-74438910D01*
X96614779Y-74438909D01*
X96365962Y-74399500D01*
X96114038Y-74399500D01*
X96047132Y-74410097D01*
X95865214Y-74438910D01*
X95625616Y-74516760D01*
X95401151Y-74631132D01*
X95197350Y-74779201D01*
X95197345Y-74779205D01*
X95019205Y-74957345D01*
X95019201Y-74957350D01*
X94871132Y-75161151D01*
X94756760Y-75385616D01*
X94678910Y-75625214D01*
X94639500Y-75874038D01*
X93205145Y-75874038D01*
X100822366Y-68256819D01*
X100883689Y-68223334D01*
X100910047Y-68220500D01*
X107159190Y-68220500D01*
X107189158Y-68229299D01*
X107219624Y-68236224D01*
X107223270Y-68239316D01*
X107226229Y-68240185D01*
X107247681Y-68257636D01*
X107256886Y-68267013D01*
X107260184Y-68272262D01*
X107361012Y-68373090D01*
X107361386Y-68373471D01*
X107377611Y-68403851D01*
X107394061Y-68433977D01*
X107394018Y-68434572D01*
X107394301Y-68435102D01*
X107391527Y-68469409D01*
X107389077Y-68503669D01*
X107388700Y-68504370D01*
X107388670Y-68504745D01*
X107388094Y-68505498D01*
X107373214Y-68533219D01*
X107328367Y-68594946D01*
X107210422Y-68826423D01*
X107130140Y-69073506D01*
X107089500Y-69330097D01*
X107089500Y-69589902D01*
X107130140Y-69846493D01*
X107210422Y-70093576D01*
X107328368Y-70325054D01*
X107481066Y-70535225D01*
X107481071Y-70535231D01*
X107588159Y-70642319D01*
X107621644Y-70703642D01*
X107616660Y-70773334D01*
X107588159Y-70817681D01*
X107481071Y-70924768D01*
X107481066Y-70924774D01*
X107328368Y-71134945D01*
X107210422Y-71366423D01*
X107130140Y-71613506D01*
X107089500Y-71870097D01*
X107089500Y-72129902D01*
X107130140Y-72386493D01*
X107210422Y-72633576D01*
X107265188Y-72741058D01*
X107315013Y-72838845D01*
X107328368Y-72865054D01*
X107481066Y-73075225D01*
X107481071Y-73075231D01*
X107588159Y-73182319D01*
X107621644Y-73243642D01*
X107616660Y-73313334D01*
X107588159Y-73357681D01*
X107481071Y-73464768D01*
X107481066Y-73464774D01*
X107328368Y-73674945D01*
X107210422Y-73906423D01*
X107130140Y-74153506D01*
X107089500Y-74410097D01*
X107089500Y-74669902D01*
X107130140Y-74926493D01*
X107210422Y-75173576D01*
X107291534Y-75332764D01*
X107318463Y-75385616D01*
X107328368Y-75405054D01*
X107481066Y-75615225D01*
X107481071Y-75615231D01*
X107588159Y-75722319D01*
X107621644Y-75783642D01*
X107616660Y-75853334D01*
X107588159Y-75897681D01*
X107481071Y-76004768D01*
X107481066Y-76004774D01*
X107328368Y-76214945D01*
X107210422Y-76446423D01*
X107130140Y-76693506D01*
X107089500Y-76950097D01*
X107089500Y-77209902D01*
X107130140Y-77466493D01*
X107210422Y-77713576D01*
X107328368Y-77945054D01*
X107459805Y-78125962D01*
X107481069Y-78155229D01*
X107664771Y-78338931D01*
X107874949Y-78491634D01*
X108022445Y-78566787D01*
X108106423Y-78609577D01*
X108106425Y-78609577D01*
X108106428Y-78609579D01*
X108353507Y-78689860D01*
X108485706Y-78710797D01*
X108610098Y-78730500D01*
X108610103Y-78730500D01*
X108869902Y-78730500D01*
X108983298Y-78712539D01*
X109126493Y-78689860D01*
X109373572Y-78609579D01*
X109605051Y-78491634D01*
X109815229Y-78338931D01*
X109998931Y-78155229D01*
X110151634Y-77945051D01*
X110269579Y-77713572D01*
X110349860Y-77466493D01*
X110372539Y-77323298D01*
X110390500Y-77209902D01*
X110390500Y-76950097D01*
X110363432Y-76779201D01*
X110349860Y-76693507D01*
X110269579Y-76446428D01*
X110269577Y-76446425D01*
X110269577Y-76446423D01*
X110194813Y-76299692D01*
X110151634Y-76214949D01*
X109998931Y-76004771D01*
X109891841Y-75897681D01*
X109858356Y-75836358D01*
X109863340Y-75766666D01*
X109891841Y-75722319D01*
X109998931Y-75615229D01*
X110151634Y-75405051D01*
X110269579Y-75173572D01*
X110349860Y-74926493D01*
X110373188Y-74779201D01*
X110390500Y-74669902D01*
X110390500Y-74410097D01*
X110361308Y-74225788D01*
X110349860Y-74153507D01*
X110269579Y-73906428D01*
X110269577Y-73906425D01*
X110269577Y-73906423D01*
X110226787Y-73822445D01*
X110151634Y-73674949D01*
X109998931Y-73464771D01*
X109891841Y-73357681D01*
X109858356Y-73296358D01*
X109863340Y-73226666D01*
X109891841Y-73182319D01*
X109998931Y-73075229D01*
X110151634Y-72865051D01*
X110269579Y-72633572D01*
X110349860Y-72386493D01*
X110372539Y-72243298D01*
X110390500Y-72129902D01*
X110390500Y-71870097D01*
X110351714Y-71625215D01*
X110349860Y-71613507D01*
X110269579Y-71366428D01*
X110269577Y-71366425D01*
X110269577Y-71366423D01*
X110214810Y-71258939D01*
X110151634Y-71134949D01*
X109998931Y-70924771D01*
X109891841Y-70817681D01*
X109858356Y-70756358D01*
X109863340Y-70686666D01*
X109891841Y-70642319D01*
X109903030Y-70631130D01*
X109998931Y-70535229D01*
X110151634Y-70325051D01*
X110269579Y-70093572D01*
X110349860Y-69846493D01*
X110373141Y-69699500D01*
X110390500Y-69589902D01*
X110390500Y-69330097D01*
X110368947Y-69194021D01*
X110349860Y-69073507D01*
X110269579Y-68826428D01*
X110269577Y-68826425D01*
X110269577Y-68826423D01*
X110151633Y-68594948D01*
X110151632Y-68594946D01*
X110106785Y-68533219D01*
X110083306Y-68467416D01*
X110099131Y-68399362D01*
X110119423Y-68372655D01*
X110219816Y-68272262D01*
X110315789Y-68119522D01*
X110375368Y-67949255D01*
X110390500Y-67814954D01*
X110390500Y-66025046D01*
X110379570Y-65928036D01*
X110375369Y-65890750D01*
X110375368Y-65890745D01*
X110315788Y-65720476D01*
X110255931Y-65625215D01*
X110219816Y-65567738D01*
X110092262Y-65440184D01*
X109982298Y-65371089D01*
X109939521Y-65344210D01*
X109817733Y-65301595D01*
X109760956Y-65260873D01*
X109735209Y-65195920D01*
X109748665Y-65127359D01*
X109797052Y-65076956D01*
X109858687Y-65060553D01*
X110766928Y-65060553D01*
X110766928Y-61574676D01*
X106713071Y-61574676D01*
X106713071Y-65060553D01*
X107621313Y-65060553D01*
X107688352Y-65080238D01*
X107734107Y-65133042D01*
X107744051Y-65202200D01*
X107715026Y-65265756D01*
X107662267Y-65301595D01*
X107540478Y-65344210D01*
X107387737Y-65440184D01*
X107260183Y-65567738D01*
X107256135Y-65572815D01*
X107198946Y-65612954D01*
X107159190Y-65619500D01*
X100422351Y-65619500D01*
X100217648Y-65619500D01*
X100150253Y-65630174D01*
X100015463Y-65651523D01*
X99918123Y-65683150D01*
X99918123Y-65683151D01*
X99865352Y-65700297D01*
X99820774Y-65714782D01*
X99729584Y-65761245D01*
X99729585Y-65761246D01*
X99638388Y-65807713D01*
X99472778Y-65928036D01*
X91008590Y-74392223D01*
X90947267Y-74425708D01*
X90940309Y-74427015D01*
X90865217Y-74438909D01*
X90625618Y-74516760D01*
X90401151Y-74631132D01*
X90197350Y-74779201D01*
X90197345Y-74779205D01*
X90019205Y-74957345D01*
X90019201Y-74957350D01*
X89871132Y-75161151D01*
X89756760Y-75385616D01*
X89678910Y-75625214D01*
X89639500Y-75874038D01*
X83911511Y-75874038D01*
X83911511Y-73666103D01*
X79639917Y-73666103D01*
X79639917Y-77080553D01*
X72860309Y-77080553D01*
X72770798Y-76957350D01*
X72770794Y-76957345D01*
X72592654Y-76779205D01*
X72592649Y-76779201D01*
X72388848Y-76631132D01*
X72388847Y-76631131D01*
X72388845Y-76631130D01*
X72318747Y-76595413D01*
X72164383Y-76516760D01*
X71924785Y-76438910D01*
X71675962Y-76399500D01*
X71424038Y-76399500D01*
X71299626Y-76419205D01*
X71175214Y-76438910D01*
X70935616Y-76516760D01*
X70711151Y-76631132D01*
X70507350Y-76779201D01*
X70507345Y-76779205D01*
X70329205Y-76957345D01*
X70329201Y-76957350D01*
X70181132Y-77161151D01*
X70066760Y-77385616D01*
X69988910Y-77625214D01*
X69974915Y-77713576D01*
X69949500Y-77874038D01*
X65530500Y-77874038D01*
X65491090Y-77625215D01*
X65413241Y-77385621D01*
X65413239Y-77385618D01*
X65413239Y-77385616D01*
X65371747Y-77304184D01*
X65298870Y-77161155D01*
X65279952Y-77135117D01*
X65150798Y-76957350D01*
X65150794Y-76957345D01*
X64972654Y-76779205D01*
X64972649Y-76779201D01*
X64768848Y-76631132D01*
X64768847Y-76631131D01*
X64768845Y-76631130D01*
X64698747Y-76595413D01*
X64544383Y-76516760D01*
X64304785Y-76438910D01*
X64055962Y-76399500D01*
X63804038Y-76399500D01*
X63679626Y-76419205D01*
X63555214Y-76438910D01*
X63315616Y-76516760D01*
X63091151Y-76631132D01*
X62887350Y-76779201D01*
X62887345Y-76779205D01*
X62709205Y-76957345D01*
X62709201Y-76957350D01*
X62561132Y-77161151D01*
X62446760Y-77385616D01*
X62368910Y-77625214D01*
X62354915Y-77713576D01*
X62329500Y-77874038D01*
X20500500Y-77874038D01*
X20500500Y-71849223D01*
X33899500Y-71849223D01*
X33899500Y-72150776D01*
X33899501Y-72150793D01*
X33938861Y-72449766D01*
X34016913Y-72741060D01*
X34132314Y-73019661D01*
X34132318Y-73019671D01*
X34283099Y-73280831D01*
X34466679Y-73520078D01*
X34466685Y-73520085D01*
X34679914Y-73733314D01*
X34679921Y-73733320D01*
X34919168Y-73916900D01*
X35180328Y-74067681D01*
X35180329Y-74067681D01*
X35180332Y-74067683D01*
X35366072Y-74144619D01*
X35458939Y-74183086D01*
X35458940Y-74183086D01*
X35458942Y-74183087D01*
X35750232Y-74261138D01*
X36049217Y-74300500D01*
X36049224Y-74300500D01*
X36350776Y-74300500D01*
X36350783Y-74300500D01*
X36649768Y-74261138D01*
X36941058Y-74183087D01*
X37219668Y-74067683D01*
X37480832Y-73916900D01*
X37720080Y-73733319D01*
X37933319Y-73520080D01*
X38116900Y-73280832D01*
X38267683Y-73019668D01*
X38383087Y-72741058D01*
X38461138Y-72449768D01*
X38500500Y-72150783D01*
X38500500Y-71849217D01*
X38461138Y-71550232D01*
X38383087Y-71258942D01*
X38267683Y-70980332D01*
X38254414Y-70957350D01*
X38116900Y-70719168D01*
X37969486Y-70527053D01*
X37933320Y-70479921D01*
X37933314Y-70479914D01*
X37908439Y-70455039D01*
X38979500Y-70455039D01*
X38979500Y-73544960D01*
X38994630Y-73679249D01*
X38994631Y-73679254D01*
X39054211Y-73849523D01*
X39089964Y-73906423D01*
X39150184Y-74002262D01*
X39277738Y-74129816D01*
X39430478Y-74225789D01*
X39531500Y-74261138D01*
X39600745Y-74285368D01*
X39600750Y-74285369D01*
X39691246Y-74295565D01*
X39735040Y-74300499D01*
X39735043Y-74300500D01*
X39735046Y-74300500D01*
X42824957Y-74300500D01*
X42824958Y-74300499D01*
X42892104Y-74292934D01*
X42959249Y-74285369D01*
X42959252Y-74285368D01*
X42959255Y-74285368D01*
X43129522Y-74225789D01*
X43282262Y-74129816D01*
X43409816Y-74002262D01*
X43505789Y-73849522D01*
X43565368Y-73679255D01*
X43580500Y-73544954D01*
X43580500Y-71874038D01*
X48329500Y-71874038D01*
X48329500Y-72125961D01*
X48368910Y-72374785D01*
X48446760Y-72614383D01*
X48561132Y-72838848D01*
X48709201Y-73042649D01*
X48709205Y-73042654D01*
X48887345Y-73220794D01*
X48887350Y-73220798D01*
X49014716Y-73313334D01*
X49091155Y-73368870D01*
X49234184Y-73441747D01*
X49315616Y-73483239D01*
X49315618Y-73483239D01*
X49315621Y-73483241D01*
X49555215Y-73561090D01*
X49804038Y-73600500D01*
X49804039Y-73600500D01*
X50055961Y-73600500D01*
X50055962Y-73600500D01*
X50304785Y-73561090D01*
X50544379Y-73483241D01*
X50768845Y-73368870D01*
X50972656Y-73220793D01*
X51150793Y-73042656D01*
X51298870Y-72838845D01*
X51413241Y-72614379D01*
X51491090Y-72374785D01*
X51530500Y-72125962D01*
X51530500Y-71874038D01*
X55949500Y-71874038D01*
X55949500Y-72125961D01*
X55988910Y-72374785D01*
X56066760Y-72614383D01*
X56181132Y-72838848D01*
X56329201Y-73042649D01*
X56329205Y-73042654D01*
X56507345Y-73220794D01*
X56507350Y-73220798D01*
X56634716Y-73313334D01*
X56711155Y-73368870D01*
X56854184Y-73441747D01*
X56935616Y-73483239D01*
X56935618Y-73483239D01*
X56935621Y-73483241D01*
X57175215Y-73561090D01*
X57424038Y-73600500D01*
X57424039Y-73600500D01*
X57675961Y-73600500D01*
X57675962Y-73600500D01*
X57924785Y-73561090D01*
X58164379Y-73483241D01*
X58388845Y-73368870D01*
X58592656Y-73220793D01*
X58770793Y-73042656D01*
X58918870Y-72838845D01*
X59033241Y-72614379D01*
X59111090Y-72374785D01*
X59113170Y-72361655D01*
X64963071Y-72361655D01*
X70590082Y-72361655D01*
X70590082Y-68946103D01*
X64963071Y-68946103D01*
X64963071Y-72361655D01*
X59113170Y-72361655D01*
X59150500Y-72125962D01*
X59150500Y-71874038D01*
X59111090Y-71625215D01*
X59033241Y-71385621D01*
X59033239Y-71385618D01*
X59033239Y-71385616D01*
X58968693Y-71258939D01*
X58918870Y-71161155D01*
X58899827Y-71134945D01*
X58770798Y-70957350D01*
X58770794Y-70957345D01*
X58592654Y-70779205D01*
X58592649Y-70779201D01*
X58388848Y-70631132D01*
X58388847Y-70631131D01*
X58388845Y-70631130D01*
X58318747Y-70595413D01*
X58164383Y-70516760D01*
X57924785Y-70438910D01*
X57675962Y-70399500D01*
X57424038Y-70399500D01*
X57299626Y-70419205D01*
X57175214Y-70438910D01*
X56935616Y-70516760D01*
X56711151Y-70631132D01*
X56507350Y-70779201D01*
X56507345Y-70779205D01*
X56329205Y-70957345D01*
X56329201Y-70957350D01*
X56181132Y-71161151D01*
X56066760Y-71385616D01*
X55988910Y-71625214D01*
X55949500Y-71874038D01*
X51530500Y-71874038D01*
X51491090Y-71625215D01*
X51413241Y-71385621D01*
X51413239Y-71385618D01*
X51413239Y-71385616D01*
X51348693Y-71258939D01*
X51298870Y-71161155D01*
X51279827Y-71134945D01*
X51150798Y-70957350D01*
X51150794Y-70957345D01*
X50972654Y-70779205D01*
X50972649Y-70779201D01*
X50768848Y-70631132D01*
X50768847Y-70631131D01*
X50768845Y-70631130D01*
X50698747Y-70595413D01*
X50544383Y-70516760D01*
X50304785Y-70438910D01*
X50055962Y-70399500D01*
X49804038Y-70399500D01*
X49679626Y-70419205D01*
X49555214Y-70438910D01*
X49315616Y-70516760D01*
X49091151Y-70631132D01*
X48887350Y-70779201D01*
X48887345Y-70779205D01*
X48709205Y-70957345D01*
X48709201Y-70957350D01*
X48561132Y-71161151D01*
X48446760Y-71385616D01*
X48368910Y-71625214D01*
X48329500Y-71874038D01*
X43580500Y-71874038D01*
X43580500Y-70455046D01*
X43565854Y-70325054D01*
X43565369Y-70320750D01*
X43565368Y-70320745D01*
X43505789Y-70150478D01*
X43409816Y-69997738D01*
X43282262Y-69870184D01*
X43197482Y-69816913D01*
X43129523Y-69774211D01*
X42959254Y-69714631D01*
X42959249Y-69714630D01*
X42824960Y-69699500D01*
X42824954Y-69699500D01*
X39735046Y-69699500D01*
X39735039Y-69699500D01*
X39600750Y-69714630D01*
X39600745Y-69714631D01*
X39430476Y-69774211D01*
X39277737Y-69870184D01*
X39150184Y-69997737D01*
X39054211Y-70150476D01*
X38994631Y-70320745D01*
X38994630Y-70320750D01*
X38979500Y-70455039D01*
X37908439Y-70455039D01*
X37720085Y-70266685D01*
X37720078Y-70266679D01*
X37480831Y-70083099D01*
X37219671Y-69932318D01*
X37219661Y-69932314D01*
X36941060Y-69816913D01*
X36649766Y-69738861D01*
X36350793Y-69699501D01*
X36350788Y-69699500D01*
X36350783Y-69699500D01*
X36049217Y-69699500D01*
X36049211Y-69699500D01*
X36049206Y-69699501D01*
X35750233Y-69738861D01*
X35458939Y-69816913D01*
X35180338Y-69932314D01*
X35180328Y-69932318D01*
X34919168Y-70083099D01*
X34679921Y-70266679D01*
X34679914Y-70266685D01*
X34466685Y-70479914D01*
X34466679Y-70479921D01*
X34283099Y-70719168D01*
X34132318Y-70980328D01*
X34132314Y-70980338D01*
X34016913Y-71258939D01*
X33938861Y-71550233D01*
X33899501Y-71849206D01*
X33899500Y-71849223D01*
X20500500Y-71849223D01*
X20500500Y-68911655D01*
X50963071Y-68911655D01*
X56588357Y-68911655D01*
X56588357Y-65874038D01*
X62329500Y-65874038D01*
X62329500Y-66125961D01*
X62368910Y-66374785D01*
X62446760Y-66614383D01*
X62561132Y-66838848D01*
X62709201Y-67042649D01*
X62709205Y-67042654D01*
X62887345Y-67220794D01*
X62887350Y-67220798D01*
X63065117Y-67349952D01*
X63091155Y-67368870D01*
X63234184Y-67441747D01*
X63315616Y-67483239D01*
X63315618Y-67483239D01*
X63315621Y-67483241D01*
X63555215Y-67561090D01*
X63804038Y-67600500D01*
X63804039Y-67600500D01*
X64055961Y-67600500D01*
X64055962Y-67600500D01*
X64304785Y-67561090D01*
X64544379Y-67483241D01*
X64768845Y-67368870D01*
X64972656Y-67220793D01*
X65150793Y-67042656D01*
X65298870Y-66838845D01*
X65413241Y-66614379D01*
X65491090Y-66374785D01*
X65530500Y-66125962D01*
X65530500Y-65874038D01*
X69949500Y-65874038D01*
X69949500Y-66125961D01*
X69988910Y-66374785D01*
X70066760Y-66614383D01*
X70181132Y-66838848D01*
X70329201Y-67042649D01*
X70329205Y-67042654D01*
X70507345Y-67220794D01*
X70507350Y-67220798D01*
X70685117Y-67349952D01*
X70711155Y-67368870D01*
X70854184Y-67441747D01*
X70935616Y-67483239D01*
X70935618Y-67483239D01*
X70935621Y-67483241D01*
X71175215Y-67561090D01*
X71424038Y-67600500D01*
X71424039Y-67600500D01*
X71675961Y-67600500D01*
X71675962Y-67600500D01*
X71924785Y-67561090D01*
X72164379Y-67483241D01*
X72388845Y-67368870D01*
X72592656Y-67220793D01*
X72770793Y-67042656D01*
X72918870Y-66838845D01*
X73033241Y-66614379D01*
X73111090Y-66374785D01*
X73150500Y-66125962D01*
X73150500Y-65874038D01*
X73111090Y-65625215D01*
X73033241Y-65385621D01*
X73033239Y-65385618D01*
X73033239Y-65385616D01*
X72986170Y-65293239D01*
X72918870Y-65161155D01*
X72845779Y-65060553D01*
X72770798Y-64957350D01*
X72770794Y-64957345D01*
X72592654Y-64779205D01*
X72592649Y-64779201D01*
X72388848Y-64631132D01*
X72388847Y-64631131D01*
X72388845Y-64631130D01*
X72318747Y-64595413D01*
X72164383Y-64516760D01*
X71924785Y-64438910D01*
X71675962Y-64399500D01*
X71424038Y-64399500D01*
X71299626Y-64419205D01*
X71175214Y-64438910D01*
X70935616Y-64516760D01*
X70711151Y-64631132D01*
X70507350Y-64779201D01*
X70507345Y-64779205D01*
X70329205Y-64957345D01*
X70329201Y-64957350D01*
X70181132Y-65161151D01*
X70066760Y-65385616D01*
X69988910Y-65625214D01*
X69949500Y-65874038D01*
X65530500Y-65874038D01*
X65491090Y-65625215D01*
X65413241Y-65385621D01*
X65413239Y-65385618D01*
X65413239Y-65385616D01*
X65366170Y-65293239D01*
X65298870Y-65161155D01*
X65225779Y-65060553D01*
X65150798Y-64957350D01*
X65150794Y-64957345D01*
X64972654Y-64779205D01*
X64972649Y-64779201D01*
X64768848Y-64631132D01*
X64768847Y-64631131D01*
X64768845Y-64631130D01*
X64698747Y-64595413D01*
X64544383Y-64516760D01*
X64304785Y-64438910D01*
X64055962Y-64399500D01*
X63804038Y-64399500D01*
X63679626Y-64419205D01*
X63555214Y-64438910D01*
X63315616Y-64516760D01*
X63091151Y-64631132D01*
X62887350Y-64779201D01*
X62887345Y-64779205D01*
X62709205Y-64957345D01*
X62709201Y-64957350D01*
X62561132Y-65161151D01*
X62446760Y-65385616D01*
X62368910Y-65625214D01*
X62329500Y-65874038D01*
X56588357Y-65874038D01*
X56588357Y-65494984D01*
X50963071Y-65494984D01*
X50963071Y-68911655D01*
X20500500Y-68911655D01*
X20500500Y-67910553D01*
X36713071Y-67910553D01*
X40697225Y-67910553D01*
X40697225Y-64496103D01*
X36713071Y-64496103D01*
X36713071Y-67910553D01*
X20500500Y-67910553D01*
X20500500Y-51849223D01*
X33899500Y-51849223D01*
X33899500Y-52150776D01*
X33899501Y-52150793D01*
X33938861Y-52449766D01*
X34016913Y-52741060D01*
X34132314Y-53019661D01*
X34132318Y-53019671D01*
X34283099Y-53280831D01*
X34466679Y-53520078D01*
X34466685Y-53520085D01*
X34679914Y-53733314D01*
X34679921Y-53733320D01*
X34919168Y-53916900D01*
X35180328Y-54067681D01*
X35180329Y-54067681D01*
X35180332Y-54067683D01*
X35366072Y-54144619D01*
X35458939Y-54183086D01*
X35458940Y-54183086D01*
X35458942Y-54183087D01*
X35750232Y-54261138D01*
X36049217Y-54300500D01*
X36049224Y-54300500D01*
X36350776Y-54300500D01*
X36350783Y-54300500D01*
X36649768Y-54261138D01*
X36941058Y-54183087D01*
X37219668Y-54067683D01*
X37480832Y-53916900D01*
X37720080Y-53733319D01*
X37933319Y-53520080D01*
X38116900Y-53280832D01*
X38267683Y-53019668D01*
X38383087Y-52741058D01*
X38461138Y-52449768D01*
X38500500Y-52150783D01*
X38500500Y-51849217D01*
X38461138Y-51550232D01*
X38383087Y-51258942D01*
X38267683Y-50980332D01*
X38254414Y-50957350D01*
X38116900Y-50719168D01*
X37969486Y-50527053D01*
X37933320Y-50479921D01*
X37933314Y-50479914D01*
X37908439Y-50455039D01*
X38979500Y-50455039D01*
X38979500Y-53544960D01*
X38994630Y-53679249D01*
X38994631Y-53679254D01*
X39054211Y-53849523D01*
X39096547Y-53916900D01*
X39150184Y-54002262D01*
X39277738Y-54129816D01*
X39430478Y-54225789D01*
X39531500Y-54261138D01*
X39600745Y-54285368D01*
X39600750Y-54285369D01*
X39691246Y-54295565D01*
X39735040Y-54300499D01*
X39735043Y-54300500D01*
X39735046Y-54300500D01*
X42824957Y-54300500D01*
X42824958Y-54300499D01*
X42892104Y-54292934D01*
X42959249Y-54285369D01*
X42959252Y-54285368D01*
X42959255Y-54285368D01*
X43129522Y-54225789D01*
X43282262Y-54129816D01*
X43409816Y-54002262D01*
X43505789Y-53849522D01*
X43565368Y-53679255D01*
X43580500Y-53544954D01*
X43580500Y-51874038D01*
X48329500Y-51874038D01*
X48329500Y-52125961D01*
X48368910Y-52374785D01*
X48446760Y-52614383D01*
X48561132Y-52838848D01*
X48709201Y-53042649D01*
X48709205Y-53042654D01*
X48887345Y-53220794D01*
X48887350Y-53220798D01*
X49065117Y-53349952D01*
X49091155Y-53368870D01*
X49234184Y-53441747D01*
X49315616Y-53483239D01*
X49315618Y-53483239D01*
X49315621Y-53483241D01*
X49428993Y-53520078D01*
X49555214Y-53561090D01*
X49594439Y-53567302D01*
X49630306Y-53572983D01*
X49693441Y-53602912D01*
X49698590Y-53607775D01*
X58204908Y-62114092D01*
X58204922Y-62114107D01*
X58208033Y-62117218D01*
X58208034Y-62117219D01*
X58352781Y-62261966D01*
X58352784Y-62261968D01*
X58352785Y-62261969D01*
X58441957Y-62326756D01*
X58441959Y-62326757D01*
X58441962Y-62326759D01*
X58518390Y-62382287D01*
X58607847Y-62427867D01*
X58700781Y-62475221D01*
X58700784Y-62475222D01*
X58798124Y-62506849D01*
X58895466Y-62538477D01*
X59097648Y-62570500D01*
X59097649Y-62570500D01*
X59302352Y-62570500D01*
X76208858Y-62570500D01*
X76275897Y-62590185D01*
X76321652Y-62642989D01*
X76331596Y-62712147D01*
X76309176Y-62767385D01*
X76161132Y-62971151D01*
X76046760Y-63195616D01*
X75968910Y-63435214D01*
X75929500Y-63684038D01*
X75929500Y-63935961D01*
X75968910Y-64184785D01*
X76046760Y-64424383D01*
X76161132Y-64648848D01*
X76309201Y-64852649D01*
X76309205Y-64852654D01*
X76487345Y-65030794D01*
X76487350Y-65030798D01*
X76528305Y-65060553D01*
X76691155Y-65178870D01*
X76834184Y-65251747D01*
X76915616Y-65293239D01*
X76915618Y-65293239D01*
X76915621Y-65293241D01*
X77155215Y-65371090D01*
X77404038Y-65410500D01*
X77404039Y-65410500D01*
X78455961Y-65410500D01*
X78455962Y-65410500D01*
X78704785Y-65371090D01*
X78944379Y-65293241D01*
X79168845Y-65178870D01*
X79372656Y-65030793D01*
X79550793Y-64852656D01*
X79698870Y-64648845D01*
X79813241Y-64424379D01*
X79891090Y-64184785D01*
X79930500Y-63935962D01*
X79930500Y-63684038D01*
X79891090Y-63435215D01*
X79813241Y-63195621D01*
X79813239Y-63195618D01*
X79813239Y-63195616D01*
X79771747Y-63114184D01*
X79698870Y-62971155D01*
X79550823Y-62767385D01*
X79550798Y-62767350D01*
X79550794Y-62767345D01*
X79411130Y-62627681D01*
X79377645Y-62566358D01*
X79382629Y-62496666D01*
X79411130Y-62452319D01*
X79550793Y-62312656D01*
X79698870Y-62108845D01*
X79813241Y-61884379D01*
X79891090Y-61644785D01*
X79930500Y-61395962D01*
X79930500Y-61144038D01*
X79891090Y-60895215D01*
X79813241Y-60655621D01*
X79813239Y-60655618D01*
X79813239Y-60655616D01*
X79771747Y-60574184D01*
X79698870Y-60431155D01*
X79679952Y-60405117D01*
X79550798Y-60227350D01*
X79550794Y-60227345D01*
X79411130Y-60087681D01*
X79377645Y-60026358D01*
X79382629Y-59956666D01*
X79411130Y-59912319D01*
X79416974Y-59906475D01*
X79550793Y-59772656D01*
X79698870Y-59568845D01*
X79813241Y-59344379D01*
X79891090Y-59104785D01*
X79930500Y-58855962D01*
X79930500Y-58604038D01*
X79891090Y-58355215D01*
X79813241Y-58115621D01*
X79813239Y-58115618D01*
X79813239Y-58115616D01*
X79771747Y-58034184D01*
X79698870Y-57891155D01*
X79556296Y-57694918D01*
X79532816Y-57629112D01*
X79548641Y-57561058D01*
X79577948Y-57526181D01*
X79626410Y-57486410D01*
X79757685Y-57326450D01*
X79855232Y-57143954D01*
X79915300Y-56945934D01*
X79930500Y-56791608D01*
X79930500Y-56064038D01*
X83549500Y-56064038D01*
X83549500Y-56315961D01*
X83588910Y-56564785D01*
X83666760Y-56804383D01*
X83781132Y-57028848D01*
X83929201Y-57232649D01*
X83929205Y-57232654D01*
X84068870Y-57372319D01*
X84102355Y-57433642D01*
X84097371Y-57503334D01*
X84068870Y-57547681D01*
X83929205Y-57687345D01*
X83929201Y-57687350D01*
X83781132Y-57891151D01*
X83666760Y-58115616D01*
X83588910Y-58355214D01*
X83549500Y-58604038D01*
X83549500Y-58855961D01*
X83588910Y-59104785D01*
X83666760Y-59344383D01*
X83737512Y-59483239D01*
X83777178Y-59561089D01*
X83781132Y-59568848D01*
X83929201Y-59772649D01*
X83929205Y-59772654D01*
X84068870Y-59912319D01*
X84102355Y-59973642D01*
X84097371Y-60043334D01*
X84068870Y-60087681D01*
X83929205Y-60227345D01*
X83929201Y-60227350D01*
X83781132Y-60431151D01*
X83666760Y-60655616D01*
X83588910Y-60895214D01*
X83549500Y-61144038D01*
X83549500Y-61395961D01*
X83588910Y-61644785D01*
X83666760Y-61884383D01*
X83781132Y-62108848D01*
X83929201Y-62312649D01*
X83929205Y-62312654D01*
X84068870Y-62452319D01*
X84102355Y-62513642D01*
X84097371Y-62583334D01*
X84068870Y-62627681D01*
X83929205Y-62767345D01*
X83929201Y-62767350D01*
X83781132Y-62971151D01*
X83666760Y-63195616D01*
X83588910Y-63435214D01*
X83549500Y-63684038D01*
X83549500Y-63935961D01*
X83588910Y-64184785D01*
X83666760Y-64424383D01*
X83781132Y-64648848D01*
X83929201Y-64852649D01*
X83929205Y-64852654D01*
X84107345Y-65030794D01*
X84107350Y-65030798D01*
X84148305Y-65060553D01*
X84311155Y-65178870D01*
X84454184Y-65251747D01*
X84535616Y-65293239D01*
X84535618Y-65293239D01*
X84535621Y-65293241D01*
X84775215Y-65371090D01*
X85024038Y-65410500D01*
X85024039Y-65410500D01*
X86075961Y-65410500D01*
X86075962Y-65410500D01*
X86324785Y-65371090D01*
X86564379Y-65293241D01*
X86788845Y-65178870D01*
X86992656Y-65030793D01*
X87170793Y-64852656D01*
X87318870Y-64648845D01*
X87433241Y-64424379D01*
X87511090Y-64184785D01*
X87550500Y-63935962D01*
X87550500Y-63684038D01*
X87511090Y-63435215D01*
X87433241Y-63195621D01*
X87433239Y-63195618D01*
X87433239Y-63195616D01*
X87391747Y-63114184D01*
X87318870Y-62971155D01*
X87170823Y-62767385D01*
X87170798Y-62767350D01*
X87170794Y-62767345D01*
X87031130Y-62627681D01*
X86997645Y-62566358D01*
X87002629Y-62496666D01*
X87031130Y-62452319D01*
X87170793Y-62312656D01*
X87318870Y-62108845D01*
X87433241Y-61884379D01*
X87511090Y-61644785D01*
X87550500Y-61395962D01*
X87550500Y-61144038D01*
X87511090Y-60895215D01*
X87433241Y-60655621D01*
X87433239Y-60655618D01*
X87433239Y-60655616D01*
X87391747Y-60574184D01*
X87318870Y-60431155D01*
X87299952Y-60405117D01*
X87170798Y-60227350D01*
X87170794Y-60227345D01*
X87031130Y-60087681D01*
X86997645Y-60026358D01*
X87002629Y-59956666D01*
X87031130Y-59912319D01*
X87036974Y-59906475D01*
X87170793Y-59772656D01*
X87318870Y-59568845D01*
X87433241Y-59344379D01*
X87511090Y-59104785D01*
X87550500Y-58855962D01*
X87550500Y-58604038D01*
X87511090Y-58355215D01*
X87433241Y-58115621D01*
X87433239Y-58115618D01*
X87433239Y-58115616D01*
X87391747Y-58034184D01*
X87318870Y-57891155D01*
X87176296Y-57694918D01*
X87170798Y-57687350D01*
X87170794Y-57687345D01*
X87031130Y-57547681D01*
X86997645Y-57486358D01*
X87002629Y-57416666D01*
X87031130Y-57372319D01*
X87076999Y-57326450D01*
X87170793Y-57232656D01*
X87318870Y-57028845D01*
X87433241Y-56804379D01*
X87511090Y-56564785D01*
X87550500Y-56315962D01*
X87550500Y-56064038D01*
X87511090Y-55815215D01*
X87433241Y-55575621D01*
X87433239Y-55575618D01*
X87433239Y-55575616D01*
X87391747Y-55494184D01*
X87318870Y-55351155D01*
X87235239Y-55236046D01*
X87170798Y-55147350D01*
X87170794Y-55147345D01*
X86992654Y-54969205D01*
X86992649Y-54969201D01*
X86788848Y-54821132D01*
X86788847Y-54821131D01*
X86788845Y-54821130D01*
X86673418Y-54762317D01*
X86564383Y-54706760D01*
X86324785Y-54628910D01*
X86171930Y-54604700D01*
X86075962Y-54589500D01*
X85024038Y-54589500D01*
X84928076Y-54604699D01*
X84775214Y-54628910D01*
X84535616Y-54706760D01*
X84311151Y-54821132D01*
X84107350Y-54969201D01*
X84107345Y-54969205D01*
X83929205Y-55147345D01*
X83929201Y-55147350D01*
X83781132Y-55351151D01*
X83666760Y-55575616D01*
X83588910Y-55815214D01*
X83549500Y-56064038D01*
X79930500Y-56064038D01*
X79930500Y-55588392D01*
X79915300Y-55434066D01*
X79855232Y-55236046D01*
X79757685Y-55053550D01*
X79688462Y-54969201D01*
X79626410Y-54893589D01*
X79466452Y-54762317D01*
X79466453Y-54762317D01*
X79466450Y-54762315D01*
X79283954Y-54664768D01*
X79085934Y-54604700D01*
X79085932Y-54604699D01*
X79085934Y-54604699D01*
X78966805Y-54592966D01*
X78931608Y-54589500D01*
X76928392Y-54589500D01*
X76890298Y-54593251D01*
X76774067Y-54604699D01*
X76576043Y-54664769D01*
X76497487Y-54706759D01*
X76393550Y-54762315D01*
X76393548Y-54762316D01*
X76393547Y-54762317D01*
X76233589Y-54893589D01*
X76102317Y-55053547D01*
X76004769Y-55236043D01*
X75944699Y-55434067D01*
X75933251Y-55550298D01*
X75929500Y-55588392D01*
X75929500Y-56791608D01*
X75934502Y-56842398D01*
X75944699Y-56945932D01*
X75944700Y-56945934D01*
X76004768Y-57143954D01*
X76102315Y-57326450D01*
X76150871Y-57385616D01*
X76233590Y-57486410D01*
X76282049Y-57526180D01*
X76321383Y-57583926D01*
X76323254Y-57653770D01*
X76303703Y-57694918D01*
X76161129Y-57891155D01*
X76046760Y-58115616D01*
X75968910Y-58355214D01*
X75929500Y-58604038D01*
X75929500Y-58855961D01*
X75968910Y-59104785D01*
X76046760Y-59344383D01*
X76117512Y-59483239D01*
X76157178Y-59561089D01*
X76161132Y-59568848D01*
X76309176Y-59772615D01*
X76332656Y-59838421D01*
X76316830Y-59906475D01*
X76266724Y-59955170D01*
X76208858Y-59969500D01*
X59790046Y-59969500D01*
X59723007Y-59949815D01*
X59702365Y-59933181D01*
X57726031Y-57956847D01*
X57643222Y-57874038D01*
X62329500Y-57874038D01*
X62329500Y-58125961D01*
X62368910Y-58374785D01*
X62446760Y-58614383D01*
X62561132Y-58838848D01*
X62709201Y-59042649D01*
X62709205Y-59042654D01*
X62887345Y-59220794D01*
X62887350Y-59220798D01*
X63057446Y-59344379D01*
X63091155Y-59368870D01*
X63234184Y-59441747D01*
X63315616Y-59483239D01*
X63315618Y-59483239D01*
X63315621Y-59483241D01*
X63555215Y-59561090D01*
X63804038Y-59600500D01*
X63804039Y-59600500D01*
X64055961Y-59600500D01*
X64055962Y-59600500D01*
X64304785Y-59561090D01*
X64544379Y-59483241D01*
X64768845Y-59368870D01*
X64972656Y-59220793D01*
X65150793Y-59042656D01*
X65298870Y-58838845D01*
X65413241Y-58614379D01*
X65491090Y-58374785D01*
X65530500Y-58125962D01*
X65530500Y-57874038D01*
X69949500Y-57874038D01*
X69949500Y-58125961D01*
X69988910Y-58374785D01*
X70066760Y-58614383D01*
X70181132Y-58838848D01*
X70329201Y-59042649D01*
X70329205Y-59042654D01*
X70507345Y-59220794D01*
X70507350Y-59220798D01*
X70677446Y-59344379D01*
X70711155Y-59368870D01*
X70854184Y-59441747D01*
X70935616Y-59483239D01*
X70935618Y-59483239D01*
X70935621Y-59483241D01*
X71175215Y-59561090D01*
X71424038Y-59600500D01*
X71424039Y-59600500D01*
X71675961Y-59600500D01*
X71675962Y-59600500D01*
X71924785Y-59561090D01*
X72164379Y-59483241D01*
X72388845Y-59368870D01*
X72592656Y-59220793D01*
X72770793Y-59042656D01*
X72918870Y-58838845D01*
X73033241Y-58614379D01*
X73111090Y-58374785D01*
X73150500Y-58125962D01*
X73150500Y-57874038D01*
X73111090Y-57625215D01*
X73033241Y-57385621D01*
X73033239Y-57385618D01*
X73033239Y-57385616D01*
X72991747Y-57304184D01*
X72918870Y-57161155D01*
X72822744Y-57028848D01*
X72770798Y-56957350D01*
X72770794Y-56957345D01*
X72592654Y-56779205D01*
X72592649Y-56779201D01*
X72388848Y-56631132D01*
X72388847Y-56631131D01*
X72388845Y-56631130D01*
X72318747Y-56595413D01*
X72164383Y-56516760D01*
X71924785Y-56438910D01*
X71675962Y-56399500D01*
X71424038Y-56399500D01*
X71299626Y-56419205D01*
X71175214Y-56438910D01*
X70935616Y-56516760D01*
X70711151Y-56631132D01*
X70507350Y-56779201D01*
X70507345Y-56779205D01*
X70329205Y-56957345D01*
X70329201Y-56957350D01*
X70181132Y-57161151D01*
X70066760Y-57385616D01*
X69988910Y-57625214D01*
X69949500Y-57874038D01*
X65530500Y-57874038D01*
X65491090Y-57625215D01*
X65413241Y-57385621D01*
X65413239Y-57385618D01*
X65413239Y-57385616D01*
X65371747Y-57304184D01*
X65298870Y-57161155D01*
X65202744Y-57028848D01*
X65150798Y-56957350D01*
X65150794Y-56957345D01*
X64972654Y-56779205D01*
X64972649Y-56779201D01*
X64768848Y-56631132D01*
X64768847Y-56631131D01*
X64768845Y-56631130D01*
X64698747Y-56595413D01*
X64544383Y-56516760D01*
X64304785Y-56438910D01*
X64055962Y-56399500D01*
X63804038Y-56399500D01*
X63679626Y-56419205D01*
X63555214Y-56438910D01*
X63315616Y-56516760D01*
X63091151Y-56631132D01*
X62887350Y-56779201D01*
X62887345Y-56779205D01*
X62709205Y-56957345D01*
X62709201Y-56957350D01*
X62561132Y-57161151D01*
X62446760Y-57385616D01*
X62368910Y-57625214D01*
X62329500Y-57874038D01*
X57643222Y-57874038D01*
X55584399Y-55815215D01*
X54680839Y-54911655D01*
X64963071Y-54911655D01*
X70590082Y-54911655D01*
X70590082Y-53080553D01*
X79639917Y-53080553D01*
X83909786Y-53080553D01*
X83909786Y-51874038D01*
X89639500Y-51874038D01*
X89639500Y-52125961D01*
X89678910Y-52374785D01*
X89756760Y-52614383D01*
X89871132Y-52838848D01*
X90019201Y-53042649D01*
X90019205Y-53042654D01*
X90197345Y-53220794D01*
X90197350Y-53220798D01*
X90375117Y-53349952D01*
X90401155Y-53368870D01*
X90544184Y-53441747D01*
X90625616Y-53483239D01*
X90625618Y-53483239D01*
X90625621Y-53483241D01*
X90865215Y-53561090D01*
X91114038Y-53600500D01*
X91114039Y-53600500D01*
X91365961Y-53600500D01*
X91365962Y-53600500D01*
X91614785Y-53561090D01*
X91854379Y-53483241D01*
X92078845Y-53368870D01*
X92282656Y-53220793D01*
X92460793Y-53042656D01*
X92608870Y-52838845D01*
X92723241Y-52614379D01*
X92801090Y-52374785D01*
X92840500Y-52125962D01*
X92840500Y-51874038D01*
X94639500Y-51874038D01*
X94639500Y-52125961D01*
X94678910Y-52374785D01*
X94756760Y-52614383D01*
X94871132Y-52838848D01*
X95019201Y-53042649D01*
X95019205Y-53042654D01*
X95197345Y-53220794D01*
X95197350Y-53220798D01*
X95375117Y-53349952D01*
X95401155Y-53368870D01*
X95544184Y-53441747D01*
X95625616Y-53483239D01*
X95625618Y-53483239D01*
X95625621Y-53483241D01*
X95865215Y-53561090D01*
X96114038Y-53600500D01*
X96114039Y-53600500D01*
X96365961Y-53600500D01*
X96365962Y-53600500D01*
X96614785Y-53561090D01*
X96854379Y-53483241D01*
X97078845Y-53368870D01*
X97282656Y-53220793D01*
X97460793Y-53042656D01*
X97608870Y-52838845D01*
X97723241Y-52614379D01*
X97801090Y-52374785D01*
X97840500Y-52125962D01*
X97840500Y-51874038D01*
X97801090Y-51625215D01*
X97723241Y-51385621D01*
X97723239Y-51385618D01*
X97723239Y-51385616D01*
X97658693Y-51258939D01*
X97608870Y-51161155D01*
X97589952Y-51135117D01*
X97460798Y-50957350D01*
X97460794Y-50957345D01*
X97282654Y-50779205D01*
X97282649Y-50779201D01*
X97078848Y-50631132D01*
X97078847Y-50631131D01*
X97078845Y-50631130D01*
X97008747Y-50595413D01*
X96854383Y-50516760D01*
X96614785Y-50438910D01*
X96365962Y-50399500D01*
X96114038Y-50399500D01*
X95989626Y-50419205D01*
X95865214Y-50438910D01*
X95625616Y-50516760D01*
X95401151Y-50631132D01*
X95197350Y-50779201D01*
X95197345Y-50779205D01*
X95019205Y-50957345D01*
X95019201Y-50957350D01*
X94871132Y-51161151D01*
X94756760Y-51385616D01*
X94678910Y-51625214D01*
X94639500Y-51874038D01*
X92840500Y-51874038D01*
X92801090Y-51625215D01*
X92723241Y-51385621D01*
X92723239Y-51385618D01*
X92723239Y-51385616D01*
X92658693Y-51258939D01*
X92608870Y-51161155D01*
X92589952Y-51135117D01*
X92460798Y-50957350D01*
X92460794Y-50957345D01*
X92282654Y-50779205D01*
X92282649Y-50779201D01*
X92078848Y-50631132D01*
X92078847Y-50631131D01*
X92078845Y-50631130D01*
X92008747Y-50595413D01*
X91854383Y-50516760D01*
X91614785Y-50438910D01*
X91365962Y-50399500D01*
X91114038Y-50399500D01*
X90989626Y-50419205D01*
X90865214Y-50438910D01*
X90625616Y-50516760D01*
X90401151Y-50631132D01*
X90197350Y-50779201D01*
X90197345Y-50779205D01*
X90019205Y-50957345D01*
X90019201Y-50957350D01*
X89871132Y-51161151D01*
X89756760Y-51385616D01*
X89678910Y-51625214D01*
X89639500Y-51874038D01*
X83909786Y-51874038D01*
X83909786Y-49664984D01*
X79639917Y-49664984D01*
X79639917Y-53080553D01*
X70590082Y-53080553D01*
X70590082Y-51494984D01*
X64963071Y-51494984D01*
X64963071Y-54911655D01*
X54680839Y-54911655D01*
X51643223Y-51874038D01*
X55949500Y-51874038D01*
X55949500Y-52125961D01*
X55988910Y-52374785D01*
X56066760Y-52614383D01*
X56181132Y-52838848D01*
X56329201Y-53042649D01*
X56329205Y-53042654D01*
X56507345Y-53220794D01*
X56507350Y-53220798D01*
X56685117Y-53349952D01*
X56711155Y-53368870D01*
X56854184Y-53441747D01*
X56935616Y-53483239D01*
X56935618Y-53483239D01*
X56935621Y-53483241D01*
X57175215Y-53561090D01*
X57424038Y-53600500D01*
X57424039Y-53600500D01*
X57675961Y-53600500D01*
X57675962Y-53600500D01*
X57924785Y-53561090D01*
X58164379Y-53483241D01*
X58388845Y-53368870D01*
X58592656Y-53220793D01*
X58770793Y-53042656D01*
X58918870Y-52838845D01*
X59033241Y-52614379D01*
X59111090Y-52374785D01*
X59150500Y-52125962D01*
X59150500Y-51874038D01*
X59111090Y-51625215D01*
X59033241Y-51385621D01*
X59033239Y-51385618D01*
X59033239Y-51385616D01*
X58968693Y-51258939D01*
X58918870Y-51161155D01*
X58899952Y-51135117D01*
X58770798Y-50957350D01*
X58770794Y-50957345D01*
X58592654Y-50779205D01*
X58592649Y-50779201D01*
X58388848Y-50631132D01*
X58388847Y-50631131D01*
X58388845Y-50631130D01*
X58318747Y-50595413D01*
X58164383Y-50516760D01*
X57924785Y-50438910D01*
X57675962Y-50399500D01*
X57424038Y-50399500D01*
X57299626Y-50419205D01*
X57175214Y-50438910D01*
X56935616Y-50516760D01*
X56711151Y-50631132D01*
X56507350Y-50779201D01*
X56507345Y-50779205D01*
X56329205Y-50957345D01*
X56329201Y-50957350D01*
X56181132Y-51161151D01*
X56066760Y-51385616D01*
X55988910Y-51625214D01*
X55949500Y-51874038D01*
X51643223Y-51874038D01*
X51537775Y-51768590D01*
X51504290Y-51707267D01*
X51502983Y-51700306D01*
X51491090Y-51625214D01*
X51413239Y-51385616D01*
X51348693Y-51258939D01*
X51298870Y-51161155D01*
X51279952Y-51135117D01*
X51150798Y-50957350D01*
X51150794Y-50957345D01*
X50972654Y-50779205D01*
X50972649Y-50779201D01*
X50768848Y-50631132D01*
X50768847Y-50631131D01*
X50768845Y-50631130D01*
X50698747Y-50595413D01*
X50544383Y-50516760D01*
X50304785Y-50438910D01*
X50055962Y-50399500D01*
X49804038Y-50399500D01*
X49679626Y-50419205D01*
X49555214Y-50438910D01*
X49315616Y-50516760D01*
X49091151Y-50631132D01*
X48887350Y-50779201D01*
X48887345Y-50779205D01*
X48709205Y-50957345D01*
X48709201Y-50957350D01*
X48561132Y-51161151D01*
X48446760Y-51385616D01*
X48368910Y-51625214D01*
X48329500Y-51874038D01*
X43580500Y-51874038D01*
X43580500Y-50455046D01*
X43565368Y-50320745D01*
X43505789Y-50150478D01*
X43409816Y-49997738D01*
X43282262Y-49870184D01*
X43129522Y-49774211D01*
X43005072Y-49730664D01*
X43005071Y-49730663D01*
X42959257Y-49714632D01*
X42959249Y-49714630D01*
X42824960Y-49699500D01*
X42824954Y-49699500D01*
X39735046Y-49699500D01*
X39735039Y-49699500D01*
X39600750Y-49714630D01*
X39600745Y-49714631D01*
X39430476Y-49774211D01*
X39277737Y-49870184D01*
X39150184Y-49997737D01*
X39054211Y-50150476D01*
X38994631Y-50320745D01*
X38994630Y-50320750D01*
X38979500Y-50455039D01*
X37908439Y-50455039D01*
X37720085Y-50266685D01*
X37720078Y-50266679D01*
X37480831Y-50083099D01*
X37219671Y-49932318D01*
X37219661Y-49932314D01*
X36941060Y-49816913D01*
X36649766Y-49738861D01*
X36350793Y-49699501D01*
X36350788Y-49699500D01*
X36350783Y-49699500D01*
X36049217Y-49699500D01*
X36049211Y-49699500D01*
X36049206Y-49699501D01*
X35750233Y-49738861D01*
X35458939Y-49816913D01*
X35180338Y-49932314D01*
X35180328Y-49932318D01*
X34919168Y-50083099D01*
X34679921Y-50266679D01*
X34679914Y-50266685D01*
X34466685Y-50479914D01*
X34466679Y-50479921D01*
X34283099Y-50719168D01*
X34132318Y-50980328D01*
X34132314Y-50980338D01*
X34016913Y-51258939D01*
X33938861Y-51550233D01*
X33899501Y-51849206D01*
X33899500Y-51849223D01*
X20500500Y-51849223D01*
X20500500Y-48911655D01*
X50963071Y-48911655D01*
X56588357Y-48911655D01*
X56588357Y-48910553D01*
X91603225Y-48910553D01*
X95874072Y-48910553D01*
X95874072Y-45494984D01*
X91603225Y-45494984D01*
X91603225Y-48910553D01*
X56588357Y-48910553D01*
X56588357Y-45874038D01*
X62329500Y-45874038D01*
X62329500Y-46125961D01*
X62368910Y-46374785D01*
X62446760Y-46614383D01*
X62561132Y-46838848D01*
X62709201Y-47042649D01*
X62709205Y-47042654D01*
X62887345Y-47220794D01*
X62887350Y-47220798D01*
X63065117Y-47349952D01*
X63091155Y-47368870D01*
X63234184Y-47441747D01*
X63315616Y-47483239D01*
X63315618Y-47483239D01*
X63315621Y-47483241D01*
X63555215Y-47561090D01*
X63804038Y-47600500D01*
X63804039Y-47600500D01*
X64055961Y-47600500D01*
X64055962Y-47600500D01*
X64304785Y-47561090D01*
X64544379Y-47483241D01*
X64768845Y-47368870D01*
X64972656Y-47220793D01*
X65150793Y-47042656D01*
X65298870Y-46838845D01*
X65413241Y-46614379D01*
X65491090Y-46374785D01*
X65530500Y-46125962D01*
X65530500Y-45874038D01*
X69949500Y-45874038D01*
X69949500Y-46125961D01*
X69988910Y-46374785D01*
X70066760Y-46614383D01*
X70181132Y-46838848D01*
X70329201Y-47042649D01*
X70329205Y-47042654D01*
X70507345Y-47220794D01*
X70507350Y-47220798D01*
X70685117Y-47349952D01*
X70711155Y-47368870D01*
X70854184Y-47441747D01*
X70935616Y-47483239D01*
X70935618Y-47483239D01*
X70935621Y-47483241D01*
X71175215Y-47561090D01*
X71424038Y-47600500D01*
X71424039Y-47600500D01*
X71675961Y-47600500D01*
X71675962Y-47600500D01*
X71924785Y-47561090D01*
X72164379Y-47483241D01*
X72388845Y-47368870D01*
X72592656Y-47220793D01*
X72770793Y-47042656D01*
X72918870Y-46838845D01*
X73033241Y-46614379D01*
X73111090Y-46374785D01*
X73150500Y-46125962D01*
X73150500Y-45874038D01*
X73111090Y-45625215D01*
X73033241Y-45385621D01*
X73033239Y-45385618D01*
X73033239Y-45385616D01*
X72991747Y-45304184D01*
X72918870Y-45161155D01*
X72899952Y-45135117D01*
X72770798Y-44957350D01*
X72770794Y-44957345D01*
X72592654Y-44779205D01*
X72592649Y-44779201D01*
X72388848Y-44631132D01*
X72388847Y-44631131D01*
X72388845Y-44631130D01*
X72318747Y-44595413D01*
X72164383Y-44516760D01*
X71924785Y-44438910D01*
X71675962Y-44399500D01*
X71424038Y-44399500D01*
X71299626Y-44419205D01*
X71175214Y-44438910D01*
X70935616Y-44516760D01*
X70711151Y-44631132D01*
X70507350Y-44779201D01*
X70507345Y-44779205D01*
X70329205Y-44957345D01*
X70329201Y-44957350D01*
X70181132Y-45161151D01*
X70066760Y-45385616D01*
X69988910Y-45625214D01*
X69949500Y-45874038D01*
X65530500Y-45874038D01*
X65491090Y-45625215D01*
X65413241Y-45385621D01*
X65413239Y-45385618D01*
X65413239Y-45385616D01*
X65371747Y-45304184D01*
X65298870Y-45161155D01*
X65279952Y-45135117D01*
X65150798Y-44957350D01*
X65150794Y-44957345D01*
X64972654Y-44779205D01*
X64972649Y-44779201D01*
X64768848Y-44631132D01*
X64768847Y-44631131D01*
X64768845Y-44631130D01*
X64698747Y-44595413D01*
X64544383Y-44516760D01*
X64304785Y-44438910D01*
X64055962Y-44399500D01*
X63804038Y-44399500D01*
X63679626Y-44419205D01*
X63555214Y-44438910D01*
X63315616Y-44516760D01*
X63091151Y-44631132D01*
X62887350Y-44779201D01*
X62887345Y-44779205D01*
X62709205Y-44957345D01*
X62709201Y-44957350D01*
X62561132Y-45161151D01*
X62446760Y-45385616D01*
X62368910Y-45625214D01*
X62329500Y-45874038D01*
X56588357Y-45874038D01*
X56588357Y-45494984D01*
X50963071Y-45494984D01*
X50963071Y-48911655D01*
X20500500Y-48911655D01*
X20500500Y-47910553D01*
X36713071Y-47910553D01*
X40695500Y-47910553D01*
X40695500Y-44494984D01*
X36713071Y-44494984D01*
X36713071Y-47910553D01*
X20500500Y-47910553D01*
X20500500Y-42911655D01*
X64963071Y-42911655D01*
X70590082Y-42911655D01*
X70590082Y-39494984D01*
X64963071Y-39494984D01*
X64963071Y-42911655D01*
X20500500Y-42911655D01*
X20500500Y-20624500D01*
X20520185Y-20557461D01*
X20572989Y-20511706D01*
X20624500Y-20500500D01*
X123375500Y-20500500D01*
X123442539Y-20520185D01*
G37*
%TD.AperFunction*%
M02*
