%TF.GenerationSoftware,KiCad,Pcbnew,9.0.4*%
%TF.CreationDate,2026-06-10T15:27:47+02:00*%
%TF.ProjectId,current_sense,63757272-656e-4745-9f73-656e73652e6b,rev?*%
%TF.SameCoordinates,Original*%
%TF.FileFunction,Copper,L1,Top*%
%TF.FilePolarity,Positive*%
%FSLAX46Y46*%
G04 Gerber Fmt 4.6, Leading zero omitted, Abs format (unit mm)*
G04 Created by KiCad (PCBNEW 9.0.4) date 2026-06-10 15:27:47*
%MOMM*%
%LPD*%
G01*
G04 APERTURE LIST*
G04 Aperture macros list*
%AMRoundRect*
0 Rectangle with rounded corners*
0 $1 Rounding radius*
0 $2 $3 $4 $5 $6 $7 $8 $9 X,Y pos of 4 corners*
0 Add a 4 corners polygon primitive as box body*
4,1,4,$2,$3,$4,$5,$6,$7,$8,$9,$2,$3,0*
0 Add four circle primitives for the rounded corners*
1,1,$1+$1,$2,$3*
1,1,$1+$1,$4,$5*
1,1,$1+$1,$6,$7*
1,1,$1+$1,$8,$9*
0 Add four rect primitives between the rounded corners*
20,1,$1+$1,$2,$3,$4,$5,0*
20,1,$1+$1,$4,$5,$6,$7,0*
20,1,$1+$1,$6,$7,$8,$9,0*
20,1,$1+$1,$8,$9,$2,$3,0*%
G04 Aperture macros list end*
%ADD10C,0.300000*%
%TA.AperFunction,NonConductor*%
%ADD11C,0.300000*%
%TD*%
%TA.AperFunction,ComponentPad*%
%ADD12C,1.600000*%
%TD*%
%TA.AperFunction,ComponentPad*%
%ADD13R,3.000000X3.000000*%
%TD*%
%TA.AperFunction,ComponentPad*%
%ADD14C,3.000000*%
%TD*%
%TA.AperFunction,ComponentPad*%
%ADD15RoundRect,0.250000X-0.950000X-0.550000X0.950000X-0.550000X0.950000X0.550000X-0.950000X0.550000X0*%
%TD*%
%TA.AperFunction,ComponentPad*%
%ADD16O,2.400000X1.600000*%
%TD*%
%TA.AperFunction,ComponentPad*%
%ADD17R,1.700000X1.700000*%
%TD*%
%TA.AperFunction,ComponentPad*%
%ADD18C,1.700000*%
%TD*%
%TA.AperFunction,Conductor*%
%ADD19C,1.000000*%
%TD*%
G04 APERTURE END LIST*
D10*
D11*
X76857142Y-45733328D02*
X76857142Y-46947614D01*
X76857142Y-46947614D02*
X76928571Y-47090471D01*
X76928571Y-47090471D02*
X77000000Y-47161900D01*
X77000000Y-47161900D02*
X77142857Y-47233328D01*
X77142857Y-47233328D02*
X77428571Y-47233328D01*
X77428571Y-47233328D02*
X77571428Y-47161900D01*
X77571428Y-47161900D02*
X77642857Y-47090471D01*
X77642857Y-47090471D02*
X77714285Y-46947614D01*
X77714285Y-46947614D02*
X77714285Y-45733328D01*
X79214286Y-47233328D02*
X78357143Y-47233328D01*
X78785714Y-47233328D02*
X78785714Y-45733328D01*
X78785714Y-45733328D02*
X78642857Y-45947614D01*
X78642857Y-45947614D02*
X78500000Y-46090471D01*
X78500000Y-46090471D02*
X78357143Y-46161900D01*
D10*
D11*
X63035714Y-49403328D02*
X62535714Y-48689042D01*
X62178571Y-49403328D02*
X62178571Y-47903328D01*
X62178571Y-47903328D02*
X62750000Y-47903328D01*
X62750000Y-47903328D02*
X62892857Y-47974757D01*
X62892857Y-47974757D02*
X62964286Y-48046185D01*
X62964286Y-48046185D02*
X63035714Y-48189042D01*
X63035714Y-48189042D02*
X63035714Y-48403328D01*
X63035714Y-48403328D02*
X62964286Y-48546185D01*
X62964286Y-48546185D02*
X62892857Y-48617614D01*
X62892857Y-48617614D02*
X62750000Y-48689042D01*
X62750000Y-48689042D02*
X62178571Y-48689042D01*
X63607143Y-48046185D02*
X63678571Y-47974757D01*
X63678571Y-47974757D02*
X63821429Y-47903328D01*
X63821429Y-47903328D02*
X64178571Y-47903328D01*
X64178571Y-47903328D02*
X64321429Y-47974757D01*
X64321429Y-47974757D02*
X64392857Y-48046185D01*
X64392857Y-48046185D02*
X64464286Y-48189042D01*
X64464286Y-48189042D02*
X64464286Y-48331900D01*
X64464286Y-48331900D02*
X64392857Y-48546185D01*
X64392857Y-48546185D02*
X63535714Y-49403328D01*
X63535714Y-49403328D02*
X64464286Y-49403328D01*
X65035714Y-48046185D02*
X65107142Y-47974757D01*
X65107142Y-47974757D02*
X65250000Y-47903328D01*
X65250000Y-47903328D02*
X65607142Y-47903328D01*
X65607142Y-47903328D02*
X65750000Y-47974757D01*
X65750000Y-47974757D02*
X65821428Y-48046185D01*
X65821428Y-48046185D02*
X65892857Y-48189042D01*
X65892857Y-48189042D02*
X65892857Y-48331900D01*
X65892857Y-48331900D02*
X65821428Y-48546185D01*
X65821428Y-48546185D02*
X64964285Y-49403328D01*
X64964285Y-49403328D02*
X65892857Y-49403328D01*
D10*
D11*
X34500000Y-43453328D02*
X34500000Y-44524757D01*
X34500000Y-44524757D02*
X34428571Y-44739042D01*
X34428571Y-44739042D02*
X34285714Y-44881900D01*
X34285714Y-44881900D02*
X34071428Y-44953328D01*
X34071428Y-44953328D02*
X33928571Y-44953328D01*
X35142857Y-43596185D02*
X35214285Y-43524757D01*
X35214285Y-43524757D02*
X35357143Y-43453328D01*
X35357143Y-43453328D02*
X35714285Y-43453328D01*
X35714285Y-43453328D02*
X35857143Y-43524757D01*
X35857143Y-43524757D02*
X35928571Y-43596185D01*
X35928571Y-43596185D02*
X36000000Y-43739042D01*
X36000000Y-43739042D02*
X36000000Y-43881900D01*
X36000000Y-43881900D02*
X35928571Y-44096185D01*
X35928571Y-44096185D02*
X35071428Y-44953328D01*
X35071428Y-44953328D02*
X36000000Y-44953328D01*
D10*
D11*
X76857142Y-52623328D02*
X76857142Y-53837614D01*
X76857142Y-53837614D02*
X76928571Y-53980471D01*
X76928571Y-53980471D02*
X77000000Y-54051900D01*
X77000000Y-54051900D02*
X77142857Y-54123328D01*
X77142857Y-54123328D02*
X77428571Y-54123328D01*
X77428571Y-54123328D02*
X77571428Y-54051900D01*
X77571428Y-54051900D02*
X77642857Y-53980471D01*
X77642857Y-53980471D02*
X77714285Y-53837614D01*
X77714285Y-53837614D02*
X77714285Y-52623328D01*
X78357143Y-52766185D02*
X78428571Y-52694757D01*
X78428571Y-52694757D02*
X78571429Y-52623328D01*
X78571429Y-52623328D02*
X78928571Y-52623328D01*
X78928571Y-52623328D02*
X79071429Y-52694757D01*
X79071429Y-52694757D02*
X79142857Y-52766185D01*
X79142857Y-52766185D02*
X79214286Y-52909042D01*
X79214286Y-52909042D02*
X79214286Y-53051900D01*
X79214286Y-53051900D02*
X79142857Y-53266185D01*
X79142857Y-53266185D02*
X78285714Y-54123328D01*
X78285714Y-54123328D02*
X79214286Y-54123328D01*
D10*
D11*
X108500000Y-40603328D02*
X108500000Y-41674757D01*
X108500000Y-41674757D02*
X108428571Y-41889042D01*
X108428571Y-41889042D02*
X108285714Y-42031900D01*
X108285714Y-42031900D02*
X108071428Y-42103328D01*
X108071428Y-42103328D02*
X107928571Y-42103328D01*
X109857143Y-41103328D02*
X109857143Y-42103328D01*
X109500000Y-40531900D02*
X109142857Y-41603328D01*
X109142857Y-41603328D02*
X110071428Y-41603328D01*
D10*
D11*
X49035714Y-45953328D02*
X48535714Y-45239042D01*
X48178571Y-45953328D02*
X48178571Y-44453328D01*
X48178571Y-44453328D02*
X48750000Y-44453328D01*
X48750000Y-44453328D02*
X48892857Y-44524757D01*
X48892857Y-44524757D02*
X48964286Y-44596185D01*
X48964286Y-44596185D02*
X49035714Y-44739042D01*
X49035714Y-44739042D02*
X49035714Y-44953328D01*
X49035714Y-44953328D02*
X48964286Y-45096185D01*
X48964286Y-45096185D02*
X48892857Y-45167614D01*
X48892857Y-45167614D02*
X48750000Y-45239042D01*
X48750000Y-45239042D02*
X48178571Y-45239042D01*
X49607143Y-44596185D02*
X49678571Y-44524757D01*
X49678571Y-44524757D02*
X49821429Y-44453328D01*
X49821429Y-44453328D02*
X50178571Y-44453328D01*
X50178571Y-44453328D02*
X50321429Y-44524757D01*
X50321429Y-44524757D02*
X50392857Y-44596185D01*
X50392857Y-44596185D02*
X50464286Y-44739042D01*
X50464286Y-44739042D02*
X50464286Y-44881900D01*
X50464286Y-44881900D02*
X50392857Y-45096185D01*
X50392857Y-45096185D02*
X49535714Y-45953328D01*
X49535714Y-45953328D02*
X50464286Y-45953328D01*
X51892857Y-45953328D02*
X51035714Y-45953328D01*
X51464285Y-45953328D02*
X51464285Y-44453328D01*
X51464285Y-44453328D02*
X51321428Y-44667614D01*
X51321428Y-44667614D02*
X51178571Y-44810471D01*
X51178571Y-44810471D02*
X51035714Y-44881900D01*
D10*
D11*
X89750000Y-25810471D02*
X89678572Y-25881900D01*
X89678572Y-25881900D02*
X89464286Y-25953328D01*
X89464286Y-25953328D02*
X89321429Y-25953328D01*
X89321429Y-25953328D02*
X89107143Y-25881900D01*
X89107143Y-25881900D02*
X88964286Y-25739042D01*
X88964286Y-25739042D02*
X88892857Y-25596185D01*
X88892857Y-25596185D02*
X88821429Y-25310471D01*
X88821429Y-25310471D02*
X88821429Y-25096185D01*
X88821429Y-25096185D02*
X88892857Y-24810471D01*
X88892857Y-24810471D02*
X88964286Y-24667614D01*
X88964286Y-24667614D02*
X89107143Y-24524757D01*
X89107143Y-24524757D02*
X89321429Y-24453328D01*
X89321429Y-24453328D02*
X89464286Y-24453328D01*
X89464286Y-24453328D02*
X89678572Y-24524757D01*
X89678572Y-24524757D02*
X89750000Y-24596185D01*
X91178572Y-25953328D02*
X90321429Y-25953328D01*
X90750000Y-25953328D02*
X90750000Y-24453328D01*
X90750000Y-24453328D02*
X90607143Y-24667614D01*
X90607143Y-24667614D02*
X90464286Y-24810471D01*
X90464286Y-24810471D02*
X90321429Y-24881900D01*
D10*
D11*
X34500000Y-63453328D02*
X34500000Y-64524757D01*
X34500000Y-64524757D02*
X34428571Y-64739042D01*
X34428571Y-64739042D02*
X34285714Y-64881900D01*
X34285714Y-64881900D02*
X34071428Y-64953328D01*
X34071428Y-64953328D02*
X33928571Y-64953328D01*
X35071428Y-63453328D02*
X36000000Y-63453328D01*
X36000000Y-63453328D02*
X35500000Y-64024757D01*
X35500000Y-64024757D02*
X35714285Y-64024757D01*
X35714285Y-64024757D02*
X35857143Y-64096185D01*
X35857143Y-64096185D02*
X35928571Y-64167614D01*
X35928571Y-64167614D02*
X36000000Y-64310471D01*
X36000000Y-64310471D02*
X36000000Y-64667614D01*
X36000000Y-64667614D02*
X35928571Y-64810471D01*
X35928571Y-64810471D02*
X35857143Y-64881900D01*
X35857143Y-64881900D02*
X35714285Y-64953328D01*
X35714285Y-64953328D02*
X35285714Y-64953328D01*
X35285714Y-64953328D02*
X35142857Y-64881900D01*
X35142857Y-64881900D02*
X35071428Y-64810471D01*
D10*
D11*
X63035714Y-61403328D02*
X62535714Y-60689042D01*
X62178571Y-61403328D02*
X62178571Y-59903328D01*
X62178571Y-59903328D02*
X62750000Y-59903328D01*
X62750000Y-59903328D02*
X62892857Y-59974757D01*
X62892857Y-59974757D02*
X62964286Y-60046185D01*
X62964286Y-60046185D02*
X63035714Y-60189042D01*
X63035714Y-60189042D02*
X63035714Y-60403328D01*
X63035714Y-60403328D02*
X62964286Y-60546185D01*
X62964286Y-60546185D02*
X62892857Y-60617614D01*
X62892857Y-60617614D02*
X62750000Y-60689042D01*
X62750000Y-60689042D02*
X62178571Y-60689042D01*
X63607143Y-60046185D02*
X63678571Y-59974757D01*
X63678571Y-59974757D02*
X63821429Y-59903328D01*
X63821429Y-59903328D02*
X64178571Y-59903328D01*
X64178571Y-59903328D02*
X64321429Y-59974757D01*
X64321429Y-59974757D02*
X64392857Y-60046185D01*
X64392857Y-60046185D02*
X64464286Y-60189042D01*
X64464286Y-60189042D02*
X64464286Y-60331900D01*
X64464286Y-60331900D02*
X64392857Y-60546185D01*
X64392857Y-60546185D02*
X63535714Y-61403328D01*
X63535714Y-61403328D02*
X64464286Y-61403328D01*
X64964285Y-59903328D02*
X65892857Y-59903328D01*
X65892857Y-59903328D02*
X65392857Y-60474757D01*
X65392857Y-60474757D02*
X65607142Y-60474757D01*
X65607142Y-60474757D02*
X65750000Y-60546185D01*
X65750000Y-60546185D02*
X65821428Y-60617614D01*
X65821428Y-60617614D02*
X65892857Y-60760471D01*
X65892857Y-60760471D02*
X65892857Y-61117614D01*
X65892857Y-61117614D02*
X65821428Y-61260471D01*
X65821428Y-61260471D02*
X65750000Y-61331900D01*
X65750000Y-61331900D02*
X65607142Y-61403328D01*
X65607142Y-61403328D02*
X65178571Y-61403328D01*
X65178571Y-61403328D02*
X65035714Y-61331900D01*
X65035714Y-61331900D02*
X64964285Y-61260471D01*
D10*
D11*
X72620714Y-30453328D02*
X72120714Y-29739042D01*
X71763571Y-30453328D02*
X71763571Y-28953328D01*
X71763571Y-28953328D02*
X72335000Y-28953328D01*
X72335000Y-28953328D02*
X72477857Y-29024757D01*
X72477857Y-29024757D02*
X72549286Y-29096185D01*
X72549286Y-29096185D02*
X72620714Y-29239042D01*
X72620714Y-29239042D02*
X72620714Y-29453328D01*
X72620714Y-29453328D02*
X72549286Y-29596185D01*
X72549286Y-29596185D02*
X72477857Y-29667614D01*
X72477857Y-29667614D02*
X72335000Y-29739042D01*
X72335000Y-29739042D02*
X71763571Y-29739042D01*
X74049286Y-30453328D02*
X73192143Y-30453328D01*
X73620714Y-30453328D02*
X73620714Y-28953328D01*
X73620714Y-28953328D02*
X73477857Y-29167614D01*
X73477857Y-29167614D02*
X73335000Y-29310471D01*
X73335000Y-29310471D02*
X73192143Y-29381900D01*
X74549285Y-28953328D02*
X75477857Y-28953328D01*
X75477857Y-28953328D02*
X74977857Y-29524757D01*
X74977857Y-29524757D02*
X75192142Y-29524757D01*
X75192142Y-29524757D02*
X75335000Y-29596185D01*
X75335000Y-29596185D02*
X75406428Y-29667614D01*
X75406428Y-29667614D02*
X75477857Y-29810471D01*
X75477857Y-29810471D02*
X75477857Y-30167614D01*
X75477857Y-30167614D02*
X75406428Y-30310471D01*
X75406428Y-30310471D02*
X75335000Y-30381900D01*
X75335000Y-30381900D02*
X75192142Y-30453328D01*
X75192142Y-30453328D02*
X74763571Y-30453328D01*
X74763571Y-30453328D02*
X74620714Y-30381900D01*
X74620714Y-30381900D02*
X74549285Y-30310471D01*
D10*
D11*
X63035714Y-69403328D02*
X62535714Y-68689042D01*
X62178571Y-69403328D02*
X62178571Y-67903328D01*
X62178571Y-67903328D02*
X62750000Y-67903328D01*
X62750000Y-67903328D02*
X62892857Y-67974757D01*
X62892857Y-67974757D02*
X62964286Y-68046185D01*
X62964286Y-68046185D02*
X63035714Y-68189042D01*
X63035714Y-68189042D02*
X63035714Y-68403328D01*
X63035714Y-68403328D02*
X62964286Y-68546185D01*
X62964286Y-68546185D02*
X62892857Y-68617614D01*
X62892857Y-68617614D02*
X62750000Y-68689042D01*
X62750000Y-68689042D02*
X62178571Y-68689042D01*
X63535714Y-67903328D02*
X64464286Y-67903328D01*
X64464286Y-67903328D02*
X63964286Y-68474757D01*
X63964286Y-68474757D02*
X64178571Y-68474757D01*
X64178571Y-68474757D02*
X64321429Y-68546185D01*
X64321429Y-68546185D02*
X64392857Y-68617614D01*
X64392857Y-68617614D02*
X64464286Y-68760471D01*
X64464286Y-68760471D02*
X64464286Y-69117614D01*
X64464286Y-69117614D02*
X64392857Y-69260471D01*
X64392857Y-69260471D02*
X64321429Y-69331900D01*
X64321429Y-69331900D02*
X64178571Y-69403328D01*
X64178571Y-69403328D02*
X63750000Y-69403328D01*
X63750000Y-69403328D02*
X63607143Y-69331900D01*
X63607143Y-69331900D02*
X63535714Y-69260471D01*
X65035714Y-68046185D02*
X65107142Y-67974757D01*
X65107142Y-67974757D02*
X65250000Y-67903328D01*
X65250000Y-67903328D02*
X65607142Y-67903328D01*
X65607142Y-67903328D02*
X65750000Y-67974757D01*
X65750000Y-67974757D02*
X65821428Y-68046185D01*
X65821428Y-68046185D02*
X65892857Y-68189042D01*
X65892857Y-68189042D02*
X65892857Y-68331900D01*
X65892857Y-68331900D02*
X65821428Y-68546185D01*
X65821428Y-68546185D02*
X64964285Y-69403328D01*
X64964285Y-69403328D02*
X65892857Y-69403328D01*
D10*
D11*
X63035714Y-81403328D02*
X62535714Y-80689042D01*
X62178571Y-81403328D02*
X62178571Y-79903328D01*
X62178571Y-79903328D02*
X62750000Y-79903328D01*
X62750000Y-79903328D02*
X62892857Y-79974757D01*
X62892857Y-79974757D02*
X62964286Y-80046185D01*
X62964286Y-80046185D02*
X63035714Y-80189042D01*
X63035714Y-80189042D02*
X63035714Y-80403328D01*
X63035714Y-80403328D02*
X62964286Y-80546185D01*
X62964286Y-80546185D02*
X62892857Y-80617614D01*
X62892857Y-80617614D02*
X62750000Y-80689042D01*
X62750000Y-80689042D02*
X62178571Y-80689042D01*
X63535714Y-79903328D02*
X64464286Y-79903328D01*
X64464286Y-79903328D02*
X63964286Y-80474757D01*
X63964286Y-80474757D02*
X64178571Y-80474757D01*
X64178571Y-80474757D02*
X64321429Y-80546185D01*
X64321429Y-80546185D02*
X64392857Y-80617614D01*
X64392857Y-80617614D02*
X64464286Y-80760471D01*
X64464286Y-80760471D02*
X64464286Y-81117614D01*
X64464286Y-81117614D02*
X64392857Y-81260471D01*
X64392857Y-81260471D02*
X64321429Y-81331900D01*
X64321429Y-81331900D02*
X64178571Y-81403328D01*
X64178571Y-81403328D02*
X63750000Y-81403328D01*
X63750000Y-81403328D02*
X63607143Y-81331900D01*
X63607143Y-81331900D02*
X63535714Y-81260471D01*
X64964285Y-79903328D02*
X65892857Y-79903328D01*
X65892857Y-79903328D02*
X65392857Y-80474757D01*
X65392857Y-80474757D02*
X65607142Y-80474757D01*
X65607142Y-80474757D02*
X65750000Y-80546185D01*
X65750000Y-80546185D02*
X65821428Y-80617614D01*
X65821428Y-80617614D02*
X65892857Y-80760471D01*
X65892857Y-80760471D02*
X65892857Y-81117614D01*
X65892857Y-81117614D02*
X65821428Y-81260471D01*
X65821428Y-81260471D02*
X65750000Y-81331900D01*
X65750000Y-81331900D02*
X65607142Y-81403328D01*
X65607142Y-81403328D02*
X65178571Y-81403328D01*
X65178571Y-81403328D02*
X65035714Y-81331900D01*
X65035714Y-81331900D02*
X64964285Y-81260471D01*
D10*
D11*
X89750000Y-59260471D02*
X89678572Y-59331900D01*
X89678572Y-59331900D02*
X89464286Y-59403328D01*
X89464286Y-59403328D02*
X89321429Y-59403328D01*
X89321429Y-59403328D02*
X89107143Y-59331900D01*
X89107143Y-59331900D02*
X88964286Y-59189042D01*
X88964286Y-59189042D02*
X88892857Y-59046185D01*
X88892857Y-59046185D02*
X88821429Y-58760471D01*
X88821429Y-58760471D02*
X88821429Y-58546185D01*
X88821429Y-58546185D02*
X88892857Y-58260471D01*
X88892857Y-58260471D02*
X88964286Y-58117614D01*
X88964286Y-58117614D02*
X89107143Y-57974757D01*
X89107143Y-57974757D02*
X89321429Y-57903328D01*
X89321429Y-57903328D02*
X89464286Y-57903328D01*
X89464286Y-57903328D02*
X89678572Y-57974757D01*
X89678572Y-57974757D02*
X89750000Y-58046185D01*
X90321429Y-58046185D02*
X90392857Y-57974757D01*
X90392857Y-57974757D02*
X90535715Y-57903328D01*
X90535715Y-57903328D02*
X90892857Y-57903328D01*
X90892857Y-57903328D02*
X91035715Y-57974757D01*
X91035715Y-57974757D02*
X91107143Y-58046185D01*
X91107143Y-58046185D02*
X91178572Y-58189042D01*
X91178572Y-58189042D02*
X91178572Y-58331900D01*
X91178572Y-58331900D02*
X91107143Y-58546185D01*
X91107143Y-58546185D02*
X90250000Y-59403328D01*
X90250000Y-59403328D02*
X91178572Y-59403328D01*
D10*
D11*
X63035714Y-29403328D02*
X62535714Y-28689042D01*
X62178571Y-29403328D02*
X62178571Y-27903328D01*
X62178571Y-27903328D02*
X62750000Y-27903328D01*
X62750000Y-27903328D02*
X62892857Y-27974757D01*
X62892857Y-27974757D02*
X62964286Y-28046185D01*
X62964286Y-28046185D02*
X63035714Y-28189042D01*
X63035714Y-28189042D02*
X63035714Y-28403328D01*
X63035714Y-28403328D02*
X62964286Y-28546185D01*
X62964286Y-28546185D02*
X62892857Y-28617614D01*
X62892857Y-28617614D02*
X62750000Y-28689042D01*
X62750000Y-28689042D02*
X62178571Y-28689042D01*
X64464286Y-29403328D02*
X63607143Y-29403328D01*
X64035714Y-29403328D02*
X64035714Y-27903328D01*
X64035714Y-27903328D02*
X63892857Y-28117614D01*
X63892857Y-28117614D02*
X63750000Y-28260471D01*
X63750000Y-28260471D02*
X63607143Y-28331900D01*
X65035714Y-28046185D02*
X65107142Y-27974757D01*
X65107142Y-27974757D02*
X65250000Y-27903328D01*
X65250000Y-27903328D02*
X65607142Y-27903328D01*
X65607142Y-27903328D02*
X65750000Y-27974757D01*
X65750000Y-27974757D02*
X65821428Y-28046185D01*
X65821428Y-28046185D02*
X65892857Y-28189042D01*
X65892857Y-28189042D02*
X65892857Y-28331900D01*
X65892857Y-28331900D02*
X65821428Y-28546185D01*
X65821428Y-28546185D02*
X64964285Y-29403328D01*
X64964285Y-29403328D02*
X65892857Y-29403328D01*
D10*
D11*
X34500000Y-23453328D02*
X34500000Y-24524757D01*
X34500000Y-24524757D02*
X34428571Y-24739042D01*
X34428571Y-24739042D02*
X34285714Y-24881900D01*
X34285714Y-24881900D02*
X34071428Y-24953328D01*
X34071428Y-24953328D02*
X33928571Y-24953328D01*
X36000000Y-24953328D02*
X35142857Y-24953328D01*
X35571428Y-24953328D02*
X35571428Y-23453328D01*
X35571428Y-23453328D02*
X35428571Y-23667614D01*
X35428571Y-23667614D02*
X35285714Y-23810471D01*
X35285714Y-23810471D02*
X35142857Y-23881900D01*
D10*
D11*
X49035714Y-65953328D02*
X48535714Y-65239042D01*
X48178571Y-65953328D02*
X48178571Y-64453328D01*
X48178571Y-64453328D02*
X48750000Y-64453328D01*
X48750000Y-64453328D02*
X48892857Y-64524757D01*
X48892857Y-64524757D02*
X48964286Y-64596185D01*
X48964286Y-64596185D02*
X49035714Y-64739042D01*
X49035714Y-64739042D02*
X49035714Y-64953328D01*
X49035714Y-64953328D02*
X48964286Y-65096185D01*
X48964286Y-65096185D02*
X48892857Y-65167614D01*
X48892857Y-65167614D02*
X48750000Y-65239042D01*
X48750000Y-65239042D02*
X48178571Y-65239042D01*
X49535714Y-64453328D02*
X50464286Y-64453328D01*
X50464286Y-64453328D02*
X49964286Y-65024757D01*
X49964286Y-65024757D02*
X50178571Y-65024757D01*
X50178571Y-65024757D02*
X50321429Y-65096185D01*
X50321429Y-65096185D02*
X50392857Y-65167614D01*
X50392857Y-65167614D02*
X50464286Y-65310471D01*
X50464286Y-65310471D02*
X50464286Y-65667614D01*
X50464286Y-65667614D02*
X50392857Y-65810471D01*
X50392857Y-65810471D02*
X50321429Y-65881900D01*
X50321429Y-65881900D02*
X50178571Y-65953328D01*
X50178571Y-65953328D02*
X49750000Y-65953328D01*
X49750000Y-65953328D02*
X49607143Y-65881900D01*
X49607143Y-65881900D02*
X49535714Y-65810471D01*
X51892857Y-65953328D02*
X51035714Y-65953328D01*
X51464285Y-65953328D02*
X51464285Y-64453328D01*
X51464285Y-64453328D02*
X51321428Y-64667614D01*
X51321428Y-64667614D02*
X51178571Y-64810471D01*
X51178571Y-64810471D02*
X51035714Y-64881900D01*
D10*
D11*
X49035714Y-25953328D02*
X48535714Y-25239042D01*
X48178571Y-25953328D02*
X48178571Y-24453328D01*
X48178571Y-24453328D02*
X48750000Y-24453328D01*
X48750000Y-24453328D02*
X48892857Y-24524757D01*
X48892857Y-24524757D02*
X48964286Y-24596185D01*
X48964286Y-24596185D02*
X49035714Y-24739042D01*
X49035714Y-24739042D02*
X49035714Y-24953328D01*
X49035714Y-24953328D02*
X48964286Y-25096185D01*
X48964286Y-25096185D02*
X48892857Y-25167614D01*
X48892857Y-25167614D02*
X48750000Y-25239042D01*
X48750000Y-25239042D02*
X48178571Y-25239042D01*
X50464286Y-25953328D02*
X49607143Y-25953328D01*
X50035714Y-25953328D02*
X50035714Y-24453328D01*
X50035714Y-24453328D02*
X49892857Y-24667614D01*
X49892857Y-24667614D02*
X49750000Y-24810471D01*
X49750000Y-24810471D02*
X49607143Y-24881900D01*
X51892857Y-25953328D02*
X51035714Y-25953328D01*
X51464285Y-25953328D02*
X51464285Y-24453328D01*
X51464285Y-24453328D02*
X51321428Y-24667614D01*
X51321428Y-24667614D02*
X51178571Y-24810471D01*
X51178571Y-24810471D02*
X51035714Y-24881900D01*
D12*
%TO.P,C2,1*%
%TO.N,+5V*%
X87500000Y-54000000D03*
%TO.P,C2,2*%
%TO.N,GND*%
X92500000Y-54000000D03*
%TD*%
%TO.P,R33,1*%
%TO.N,/FB3*%
X60190000Y-76000000D03*
%TO.P,R33,2*%
%TO.N,/I_SENSE3*%
X67810000Y-76000000D03*
%TD*%
%TO.P,R23,1*%
%TO.N,/FB2*%
X60190000Y-56000000D03*
%TO.P,R23,2*%
%TO.N,/I_SENSE2*%
X67810000Y-56000000D03*
%TD*%
%TO.P,R32,1*%
%TO.N,/FB3*%
X60190000Y-64000000D03*
%TO.P,R32,2*%
%TO.N,GND*%
X67810000Y-64000000D03*
%TD*%
%TO.P,R13,1*%
%TO.N,/FB1*%
X60190000Y-36000000D03*
%TO.P,R13,2*%
%TO.N,/I_SENSE1*%
X67810000Y-36000000D03*
%TD*%
D13*
%TO.P,J3,1*%
%TO.N,/RET3*%
X37540000Y-70000000D03*
D14*
%TO.P,J3,2*%
%TO.N,GND*%
X32460000Y-70000000D03*
%TD*%
D12*
%TO.P,R22,1*%
%TO.N,/FB2*%
X60190000Y-44000000D03*
%TO.P,R22,2*%
%TO.N,GND*%
X67810000Y-44000000D03*
%TD*%
D15*
%TO.P,U2,1*%
%TO.N,/I_SENSE3*%
X74190000Y-58190000D03*
D16*
%TO.P,U2,2*%
%TO.N,/FB3*%
X74190000Y-60730000D03*
%TO.P,U2,3*%
%TO.N,/RET3*%
X74190000Y-63270000D03*
%TO.P,U2,4*%
%TO.N,GND*%
X74190000Y-65810000D03*
%TO.P,U2,5*%
X81810000Y-65810000D03*
%TO.P,U2,6*%
%TO.N,/U2B_FB*%
X81810000Y-63270000D03*
%TO.P,U2,7*%
X81810000Y-60730000D03*
%TO.P,U2,8*%
%TO.N,+5V*%
X81810000Y-58190000D03*
%TD*%
D12*
%TO.P,R12,1*%
%TO.N,/FB1*%
X60190000Y-24000000D03*
%TO.P,R12,2*%
%TO.N,GND*%
X67810000Y-24000000D03*
%TD*%
%TO.P,R31,1*%
%TO.N,/RET3*%
X46190000Y-70000000D03*
%TO.P,R31,2*%
%TO.N,GND*%
X53810000Y-70000000D03*
%TD*%
%TO.P,R21,1*%
%TO.N,/RET2*%
X46190000Y-50000000D03*
%TO.P,R21,2*%
%TO.N,GND*%
X53810000Y-50000000D03*
%TD*%
D17*
%TO.P,J4,1*%
%TO.N,+5V*%
X109000000Y-44920000D03*
D18*
%TO.P,J4,2*%
%TO.N,/I_SENSE1*%
X109000000Y-47460000D03*
%TO.P,J4,3*%
%TO.N,/I_SENSE2*%
X109000000Y-50000000D03*
%TO.P,J4,4*%
%TO.N,/I_SENSE3*%
X109000000Y-52540000D03*
%TO.P,J4,5*%
%TO.N,GND*%
X109000000Y-55080000D03*
%TD*%
D13*
%TO.P,J2,1*%
%TO.N,/RET2*%
X37540000Y-50000000D03*
D14*
%TO.P,J2,2*%
%TO.N,GND*%
X32460000Y-50000000D03*
%TD*%
D13*
%TO.P,J1,1*%
%TO.N,/RET1*%
X37540000Y-30000000D03*
D14*
%TO.P,J1,2*%
%TO.N,GND*%
X32460000Y-30000000D03*
%TD*%
D15*
%TO.P,U1,1*%
%TO.N,/I_SENSE1*%
X74190000Y-34190000D03*
D16*
%TO.P,U1,2*%
%TO.N,/FB1*%
X74190000Y-36730000D03*
%TO.P,U1,3*%
%TO.N,/RET1*%
X74190000Y-39270000D03*
%TO.P,U1,4*%
%TO.N,GND*%
X74190000Y-41810000D03*
%TO.P,U1,5*%
%TO.N,/RET2*%
X81810000Y-41810000D03*
%TO.P,U1,6*%
%TO.N,/FB2*%
X81810000Y-39270000D03*
%TO.P,U1,7*%
%TO.N,/I_SENSE2*%
X81810000Y-36730000D03*
%TO.P,U1,8*%
%TO.N,+5V*%
X81810000Y-34190000D03*
%TD*%
D12*
%TO.P,C1,1*%
%TO.N,+5V*%
X87500000Y-30000000D03*
%TO.P,C1,2*%
%TO.N,GND*%
X92500000Y-30000000D03*
%TD*%
%TO.P,R11,1*%
%TO.N,/RET1*%
X46190000Y-30000000D03*
%TO.P,R11,2*%
%TO.N,GND*%
X53810000Y-30000000D03*
%TD*%
D19*
%TO.N,+5V*%
X81810000Y-34190000D02*
X83860900Y-34190000D01*
X84311700Y-33188300D02*
X84311700Y-34190000D01*
X87500000Y-30000000D02*
X84311700Y-33188300D01*
X87500000Y-37378300D02*
X87500000Y-54000000D01*
X83860900Y-34190000D02*
X84311700Y-34190000D01*
X84311700Y-34190000D02*
X87500000Y-37378300D01*
%TO.N,/FB1*%
X68687600Y-33895300D02*
X71522300Y-36730000D01*
X62294700Y-33895300D02*
X68687600Y-33895300D01*
X71522300Y-36730000D02*
X74190000Y-36730000D01*
X60190000Y-36000000D02*
X62294700Y-33895300D01*
%TO.N,/RET1*%
X46190000Y-30000000D02*
X55460000Y-39270000D01*
X55460000Y-39270000D02*
X74190000Y-39270000D01*
%TO.N,/U2B_FB*%
X84311700Y-60730000D02*
X84311700Y-63270000D01*
X81810000Y-60730000D02*
X84311700Y-60730000D01*
X81810000Y-63270000D02*
X84311700Y-63270000D01*
%TO.N,GND*%
X81810000Y-65810000D02*
X74190000Y-65810000D01*
X67810000Y-64000000D02*
X69620000Y-65810000D01*
X69620000Y-65810000D02*
X74190000Y-65810000D01*
%TD*%
%TA.AperFunction,NonConductor*%
G36*
X123442539Y-20520185D02*
G01*
X123488294Y-20572989D01*
X123499500Y-20624500D01*
X123499500Y-123375500D01*
X123479815Y-123442539D01*
X123427011Y-123488294D01*
X123375500Y-123499500D01*
X20624500Y-123499500D01*
X20557461Y-123479815D01*
X20511706Y-123427011D01*
X20500500Y-123375500D01*
X20500500Y-82361655D01*
X61223071Y-82361655D01*
X66850082Y-82361655D01*
X66850082Y-78946103D01*
X61223071Y-78946103D01*
X61223071Y-82361655D01*
X20500500Y-82361655D01*
X20500500Y-75874038D01*
X58589500Y-75874038D01*
X58589500Y-76125961D01*
X58628910Y-76374785D01*
X58706760Y-76614383D01*
X58821132Y-76838848D01*
X58969201Y-77042649D01*
X58969205Y-77042654D01*
X59147345Y-77220794D01*
X59147350Y-77220798D01*
X59325117Y-77349952D01*
X59351155Y-77368870D01*
X59494184Y-77441747D01*
X59575616Y-77483239D01*
X59575618Y-77483239D01*
X59575621Y-77483241D01*
X59815215Y-77561090D01*
X60064038Y-77600500D01*
X60064039Y-77600500D01*
X60315961Y-77600500D01*
X60315962Y-77600500D01*
X60564785Y-77561090D01*
X60804379Y-77483241D01*
X61028845Y-77368870D01*
X61232656Y-77220793D01*
X61410793Y-77042656D01*
X61558870Y-76838845D01*
X61673241Y-76614379D01*
X61751090Y-76374785D01*
X61790500Y-76125962D01*
X61790500Y-75874038D01*
X66209500Y-75874038D01*
X66209500Y-76125961D01*
X66248910Y-76374785D01*
X66326760Y-76614383D01*
X66441132Y-76838848D01*
X66589201Y-77042649D01*
X66589205Y-77042654D01*
X66767345Y-77220794D01*
X66767350Y-77220798D01*
X66945117Y-77349952D01*
X66971155Y-77368870D01*
X67114184Y-77441747D01*
X67195616Y-77483239D01*
X67195618Y-77483239D01*
X67195621Y-77483241D01*
X67435215Y-77561090D01*
X67684038Y-77600500D01*
X67684039Y-77600500D01*
X67935961Y-77600500D01*
X67935962Y-77600500D01*
X68184785Y-77561090D01*
X68424379Y-77483241D01*
X68648845Y-77368870D01*
X68852656Y-77220793D01*
X69030793Y-77042656D01*
X69178870Y-76838845D01*
X69293241Y-76614379D01*
X69371090Y-76374785D01*
X69410500Y-76125962D01*
X69410500Y-75874038D01*
X69371090Y-75625215D01*
X69293241Y-75385621D01*
X69293239Y-75385618D01*
X69293239Y-75385616D01*
X69251747Y-75304184D01*
X69178870Y-75161155D01*
X69159952Y-75135117D01*
X69030798Y-74957350D01*
X69030794Y-74957345D01*
X68852654Y-74779205D01*
X68852649Y-74779201D01*
X68648848Y-74631132D01*
X68648847Y-74631131D01*
X68648845Y-74631130D01*
X68578747Y-74595413D01*
X68424383Y-74516760D01*
X68184785Y-74438910D01*
X67935962Y-74399500D01*
X67684038Y-74399500D01*
X67559626Y-74419205D01*
X67435214Y-74438910D01*
X67195616Y-74516760D01*
X66971151Y-74631132D01*
X66767350Y-74779201D01*
X66767345Y-74779205D01*
X66589205Y-74957345D01*
X66589201Y-74957350D01*
X66441132Y-75161151D01*
X66326760Y-75385616D01*
X66248910Y-75625214D01*
X66209500Y-75874038D01*
X61790500Y-75874038D01*
X61751090Y-75625215D01*
X61673241Y-75385621D01*
X61673239Y-75385618D01*
X61673239Y-75385616D01*
X61631747Y-75304184D01*
X61558870Y-75161155D01*
X61539952Y-75135117D01*
X61410798Y-74957350D01*
X61410794Y-74957345D01*
X61232654Y-74779205D01*
X61232649Y-74779201D01*
X61028848Y-74631132D01*
X61028847Y-74631131D01*
X61028845Y-74631130D01*
X60958747Y-74595413D01*
X60804383Y-74516760D01*
X60564785Y-74438910D01*
X60315962Y-74399500D01*
X60064038Y-74399500D01*
X59939626Y-74419205D01*
X59815214Y-74438910D01*
X59575616Y-74516760D01*
X59351151Y-74631132D01*
X59147350Y-74779201D01*
X59147345Y-74779205D01*
X58969205Y-74957345D01*
X58969201Y-74957350D01*
X58821132Y-75161151D01*
X58706760Y-75385616D01*
X58628910Y-75625214D01*
X58589500Y-75874038D01*
X20500500Y-75874038D01*
X20500500Y-69849223D01*
X30159500Y-69849223D01*
X30159500Y-70150776D01*
X30159501Y-70150793D01*
X30198861Y-70449766D01*
X30276913Y-70741060D01*
X30392314Y-71019661D01*
X30392318Y-71019671D01*
X30543099Y-71280831D01*
X30726679Y-71520078D01*
X30726685Y-71520085D01*
X30939914Y-71733314D01*
X30939921Y-71733320D01*
X31179168Y-71916900D01*
X31440328Y-72067681D01*
X31440329Y-72067681D01*
X31440332Y-72067683D01*
X31626072Y-72144619D01*
X31718939Y-72183086D01*
X31718940Y-72183086D01*
X31718942Y-72183087D01*
X32010232Y-72261138D01*
X32309217Y-72300500D01*
X32309224Y-72300500D01*
X32610776Y-72300500D01*
X32610783Y-72300500D01*
X32909768Y-72261138D01*
X33201058Y-72183087D01*
X33479668Y-72067683D01*
X33740832Y-71916900D01*
X33980080Y-71733319D01*
X34193319Y-71520080D01*
X34376900Y-71280832D01*
X34527683Y-71019668D01*
X34643087Y-70741058D01*
X34721138Y-70449768D01*
X34760500Y-70150783D01*
X34760500Y-69849217D01*
X34721138Y-69550232D01*
X34643087Y-69258942D01*
X34527683Y-68980332D01*
X34514414Y-68957350D01*
X34376900Y-68719168D01*
X34229486Y-68527053D01*
X34193320Y-68479921D01*
X34193314Y-68479914D01*
X34168439Y-68455039D01*
X35239500Y-68455039D01*
X35239500Y-71544960D01*
X35254630Y-71679249D01*
X35254631Y-71679254D01*
X35314211Y-71849523D01*
X35356547Y-71916900D01*
X35410184Y-72002262D01*
X35537738Y-72129816D01*
X35690478Y-72225789D01*
X35791500Y-72261138D01*
X35860745Y-72285368D01*
X35860750Y-72285369D01*
X35951246Y-72295565D01*
X35995040Y-72300499D01*
X35995043Y-72300500D01*
X35995046Y-72300500D01*
X39084957Y-72300500D01*
X39084958Y-72300499D01*
X39152104Y-72292934D01*
X39219249Y-72285369D01*
X39219252Y-72285368D01*
X39219255Y-72285368D01*
X39389522Y-72225789D01*
X39542262Y-72129816D01*
X39669816Y-72002262D01*
X39765789Y-71849522D01*
X39825368Y-71679255D01*
X39840500Y-71544954D01*
X39840500Y-69874038D01*
X44589500Y-69874038D01*
X44589500Y-70125961D01*
X44628910Y-70374785D01*
X44706760Y-70614383D01*
X44821132Y-70838848D01*
X44969201Y-71042649D01*
X44969205Y-71042654D01*
X45147345Y-71220794D01*
X45147350Y-71220798D01*
X45325117Y-71349952D01*
X45351155Y-71368870D01*
X45494184Y-71441747D01*
X45575616Y-71483239D01*
X45575618Y-71483239D01*
X45575621Y-71483241D01*
X45815215Y-71561090D01*
X46064038Y-71600500D01*
X46064039Y-71600500D01*
X46315961Y-71600500D01*
X46315962Y-71600500D01*
X46564785Y-71561090D01*
X46804379Y-71483241D01*
X47028845Y-71368870D01*
X47232656Y-71220793D01*
X47410793Y-71042656D01*
X47558870Y-70838845D01*
X47673241Y-70614379D01*
X47751090Y-70374785D01*
X47790500Y-70125962D01*
X47790500Y-69874038D01*
X52209500Y-69874038D01*
X52209500Y-70125961D01*
X52248910Y-70374785D01*
X52326760Y-70614383D01*
X52441132Y-70838848D01*
X52589201Y-71042649D01*
X52589205Y-71042654D01*
X52767345Y-71220794D01*
X52767350Y-71220798D01*
X52945117Y-71349952D01*
X52971155Y-71368870D01*
X53114184Y-71441747D01*
X53195616Y-71483239D01*
X53195618Y-71483239D01*
X53195621Y-71483241D01*
X53435215Y-71561090D01*
X53684038Y-71600500D01*
X53684039Y-71600500D01*
X53935961Y-71600500D01*
X53935962Y-71600500D01*
X54184785Y-71561090D01*
X54424379Y-71483241D01*
X54648845Y-71368870D01*
X54852656Y-71220793D01*
X55030793Y-71042656D01*
X55178870Y-70838845D01*
X55293241Y-70614379D01*
X55371090Y-70374785D01*
X55373170Y-70361655D01*
X61223071Y-70361655D01*
X66850082Y-70361655D01*
X66850082Y-66946103D01*
X61223071Y-66946103D01*
X61223071Y-70361655D01*
X55373170Y-70361655D01*
X55410500Y-70125962D01*
X55410500Y-69874038D01*
X55371090Y-69625215D01*
X55293241Y-69385621D01*
X55293239Y-69385618D01*
X55293239Y-69385616D01*
X55228693Y-69258939D01*
X55178870Y-69161155D01*
X55159952Y-69135117D01*
X55030798Y-68957350D01*
X55030794Y-68957345D01*
X54852654Y-68779205D01*
X54852649Y-68779201D01*
X54648848Y-68631132D01*
X54648847Y-68631131D01*
X54648845Y-68631130D01*
X54578747Y-68595413D01*
X54424383Y-68516760D01*
X54184785Y-68438910D01*
X53935962Y-68399500D01*
X53684038Y-68399500D01*
X53559626Y-68419205D01*
X53435214Y-68438910D01*
X53195616Y-68516760D01*
X52971151Y-68631132D01*
X52767350Y-68779201D01*
X52767345Y-68779205D01*
X52589205Y-68957345D01*
X52589201Y-68957350D01*
X52441132Y-69161151D01*
X52326760Y-69385616D01*
X52248910Y-69625214D01*
X52209500Y-69874038D01*
X47790500Y-69874038D01*
X47751090Y-69625215D01*
X47673241Y-69385621D01*
X47673239Y-69385618D01*
X47673239Y-69385616D01*
X47608693Y-69258939D01*
X47558870Y-69161155D01*
X47539952Y-69135117D01*
X47410798Y-68957350D01*
X47410794Y-68957345D01*
X47232654Y-68779205D01*
X47232649Y-68779201D01*
X47028848Y-68631132D01*
X47028847Y-68631131D01*
X47028845Y-68631130D01*
X46958747Y-68595413D01*
X46804383Y-68516760D01*
X46564785Y-68438910D01*
X46315962Y-68399500D01*
X46064038Y-68399500D01*
X45939626Y-68419205D01*
X45815214Y-68438910D01*
X45575616Y-68516760D01*
X45351151Y-68631132D01*
X45147350Y-68779201D01*
X45147345Y-68779205D01*
X44969205Y-68957345D01*
X44969201Y-68957350D01*
X44821132Y-69161151D01*
X44706760Y-69385616D01*
X44628910Y-69625214D01*
X44589500Y-69874038D01*
X39840500Y-69874038D01*
X39840500Y-68455046D01*
X39825368Y-68320745D01*
X39765789Y-68150478D01*
X39669816Y-67997738D01*
X39542262Y-67870184D01*
X39457482Y-67816913D01*
X39389523Y-67774211D01*
X39219254Y-67714631D01*
X39219249Y-67714630D01*
X39084960Y-67699500D01*
X39084954Y-67699500D01*
X35995046Y-67699500D01*
X35995039Y-67699500D01*
X35860750Y-67714630D01*
X35860745Y-67714631D01*
X35690476Y-67774211D01*
X35537737Y-67870184D01*
X35410184Y-67997737D01*
X35314211Y-68150476D01*
X35254631Y-68320745D01*
X35254630Y-68320750D01*
X35239500Y-68455039D01*
X34168439Y-68455039D01*
X33980085Y-68266685D01*
X33980078Y-68266679D01*
X33740831Y-68083099D01*
X33479671Y-67932318D01*
X33479661Y-67932314D01*
X33201060Y-67816913D01*
X32909766Y-67738861D01*
X32610793Y-67699501D01*
X32610788Y-67699500D01*
X32610783Y-67699500D01*
X32309217Y-67699500D01*
X32309211Y-67699500D01*
X32309206Y-67699501D01*
X32010233Y-67738861D01*
X31718939Y-67816913D01*
X31440338Y-67932314D01*
X31440328Y-67932318D01*
X31179168Y-68083099D01*
X30939921Y-68266679D01*
X30939914Y-68266685D01*
X30726685Y-68479914D01*
X30726679Y-68479921D01*
X30543099Y-68719168D01*
X30392318Y-68980328D01*
X30392314Y-68980338D01*
X30276913Y-69258939D01*
X30198861Y-69550233D01*
X30159501Y-69849206D01*
X30159500Y-69849223D01*
X20500500Y-69849223D01*
X20500500Y-66911655D01*
X47223071Y-66911655D01*
X52848357Y-66911655D01*
X52848357Y-63874038D01*
X58589500Y-63874038D01*
X58589500Y-64125961D01*
X58628910Y-64374785D01*
X58706760Y-64614383D01*
X58821132Y-64838848D01*
X58969201Y-65042649D01*
X58969205Y-65042654D01*
X59147345Y-65220794D01*
X59147350Y-65220798D01*
X59325117Y-65349952D01*
X59351155Y-65368870D01*
X59481363Y-65435214D01*
X59575616Y-65483239D01*
X59575618Y-65483239D01*
X59575621Y-65483241D01*
X59815215Y-65561090D01*
X60064038Y-65600500D01*
X60064039Y-65600500D01*
X60315961Y-65600500D01*
X60315962Y-65600500D01*
X60564785Y-65561090D01*
X60804379Y-65483241D01*
X61028845Y-65368870D01*
X61232656Y-65220793D01*
X61410793Y-65042656D01*
X61558870Y-64838845D01*
X61673241Y-64614379D01*
X61751090Y-64374785D01*
X61790500Y-64125962D01*
X61790500Y-63874038D01*
X66209500Y-63874038D01*
X66209500Y-64125961D01*
X66248910Y-64374785D01*
X66326760Y-64614383D01*
X66441132Y-64838848D01*
X66589201Y-65042649D01*
X66589205Y-65042654D01*
X66767345Y-65220794D01*
X66767350Y-65220798D01*
X66945117Y-65349952D01*
X66971155Y-65368870D01*
X67101363Y-65435214D01*
X67195616Y-65483239D01*
X67195618Y-65483239D01*
X67195621Y-65483241D01*
X67324049Y-65524970D01*
X67435214Y-65561090D01*
X67474439Y-65567302D01*
X67510306Y-65572983D01*
X67573441Y-65602912D01*
X67578590Y-65607775D01*
X68624908Y-66654092D01*
X68624922Y-66654107D01*
X68628033Y-66657218D01*
X68628034Y-66657219D01*
X68772781Y-66801966D01*
X68772784Y-66801968D01*
X68772788Y-66801972D01*
X68923752Y-66911653D01*
X68937012Y-66921285D01*
X68938390Y-66922287D01*
X69029586Y-66968754D01*
X69120781Y-67015221D01*
X69120784Y-67015222D01*
X69302368Y-67074221D01*
X69315466Y-67078477D01*
X69517649Y-67110501D01*
X69517650Y-67110501D01*
X69727463Y-67110501D01*
X69727487Y-67110500D01*
X72816762Y-67110500D01*
X72883801Y-67130185D01*
X72889637Y-67134175D01*
X72951155Y-67178870D01*
X73057206Y-67232905D01*
X73175616Y-67293239D01*
X73175618Y-67293239D01*
X73175621Y-67293241D01*
X73415215Y-67371090D01*
X73664038Y-67410500D01*
X73664039Y-67410500D01*
X74715961Y-67410500D01*
X74715962Y-67410500D01*
X74964785Y-67371090D01*
X75204379Y-67293241D01*
X75428845Y-67178870D01*
X75490353Y-67134181D01*
X75556158Y-67110702D01*
X75563238Y-67110500D01*
X80436762Y-67110500D01*
X80503801Y-67130185D01*
X80509637Y-67134175D01*
X80571155Y-67178870D01*
X80677206Y-67232905D01*
X80795616Y-67293239D01*
X80795618Y-67293239D01*
X80795621Y-67293241D01*
X81035215Y-67371090D01*
X81284038Y-67410500D01*
X81284039Y-67410500D01*
X82335961Y-67410500D01*
X82335962Y-67410500D01*
X82584785Y-67371090D01*
X82824379Y-67293241D01*
X83048845Y-67178870D01*
X83252656Y-67030793D01*
X83430793Y-66852656D01*
X83578870Y-66648845D01*
X83693241Y-66424379D01*
X83771090Y-66184785D01*
X83810500Y-65935962D01*
X83810500Y-65684038D01*
X83771090Y-65435215D01*
X83693241Y-65195621D01*
X83693239Y-65195618D01*
X83693239Y-65195616D01*
X83651747Y-65114184D01*
X83578870Y-64971155D01*
X83482744Y-64838848D01*
X83430824Y-64767385D01*
X83407344Y-64701579D01*
X83423170Y-64633525D01*
X83473276Y-64584830D01*
X83531142Y-64570500D01*
X84414051Y-64570500D01*
X84414052Y-64570500D01*
X84616234Y-64538477D01*
X84810919Y-64475220D01*
X84993310Y-64382287D01*
X85089206Y-64312615D01*
X85158913Y-64261971D01*
X85158915Y-64261968D01*
X85158919Y-64261966D01*
X85303666Y-64117219D01*
X85303668Y-64117215D01*
X85303671Y-64117213D01*
X85356432Y-64044590D01*
X85423987Y-63951610D01*
X85516920Y-63769219D01*
X85580177Y-63574534D01*
X85612200Y-63372352D01*
X85612200Y-60627648D01*
X85580177Y-60425465D01*
X85559086Y-60360553D01*
X87863225Y-60360553D01*
X92135797Y-60360553D01*
X92135797Y-56946103D01*
X87863225Y-56946103D01*
X87863225Y-60360553D01*
X85559086Y-60360553D01*
X85516918Y-60230776D01*
X85458240Y-60115616D01*
X85423987Y-60048390D01*
X85416256Y-60037749D01*
X85303671Y-59882786D01*
X85158913Y-59738028D01*
X84993313Y-59617715D01*
X84993312Y-59617714D01*
X84993310Y-59617713D01*
X84936353Y-59588691D01*
X84810923Y-59524781D01*
X84616234Y-59461522D01*
X84440203Y-59433642D01*
X84414052Y-59429500D01*
X84414051Y-59429500D01*
X83531142Y-59429500D01*
X83464103Y-59409815D01*
X83418348Y-59357011D01*
X83408404Y-59287853D01*
X83430824Y-59232615D01*
X83519103Y-59111106D01*
X83578870Y-59028845D01*
X83693241Y-58804379D01*
X83771090Y-58564785D01*
X83810500Y-58315962D01*
X83810500Y-58064038D01*
X83771090Y-57815215D01*
X83693241Y-57575621D01*
X83693239Y-57575618D01*
X83693239Y-57575616D01*
X83646170Y-57483239D01*
X83578870Y-57351155D01*
X83495239Y-57236046D01*
X83430798Y-57147350D01*
X83430794Y-57147345D01*
X83252654Y-56969205D01*
X83252649Y-56969201D01*
X83048848Y-56821132D01*
X83048847Y-56821131D01*
X83048845Y-56821130D01*
X82933418Y-56762317D01*
X82824383Y-56706760D01*
X82584785Y-56628910D01*
X82335962Y-56589500D01*
X81284038Y-56589500D01*
X81188076Y-56604699D01*
X81035214Y-56628910D01*
X80795616Y-56706760D01*
X80571151Y-56821132D01*
X80367350Y-56969201D01*
X80367345Y-56969205D01*
X80189205Y-57147345D01*
X80189201Y-57147350D01*
X80041132Y-57351151D01*
X79926760Y-57575616D01*
X79848910Y-57815214D01*
X79809500Y-58064038D01*
X79809500Y-58315961D01*
X79848910Y-58564785D01*
X79926760Y-58804383D01*
X80041132Y-59028848D01*
X80189201Y-59232649D01*
X80189205Y-59232654D01*
X80328870Y-59372319D01*
X80362355Y-59433642D01*
X80357371Y-59503334D01*
X80328870Y-59547681D01*
X80189205Y-59687345D01*
X80189201Y-59687350D01*
X80041132Y-59891151D01*
X79926760Y-60115616D01*
X79848910Y-60355214D01*
X79809500Y-60604038D01*
X79809500Y-60855961D01*
X79848910Y-61104785D01*
X79926760Y-61344383D01*
X80041132Y-61568848D01*
X80189201Y-61772649D01*
X80189205Y-61772654D01*
X80328870Y-61912319D01*
X80362355Y-61973642D01*
X80357371Y-62043334D01*
X80328870Y-62087681D01*
X80189205Y-62227345D01*
X80189201Y-62227350D01*
X80041132Y-62431151D01*
X79926760Y-62655616D01*
X79848910Y-62895214D01*
X79809500Y-63144038D01*
X79809500Y-63395961D01*
X79848910Y-63644785D01*
X79926760Y-63884383D01*
X80041132Y-64108848D01*
X80189176Y-64312615D01*
X80212656Y-64378421D01*
X80196830Y-64446475D01*
X80146724Y-64495170D01*
X80088858Y-64509500D01*
X75911142Y-64509500D01*
X75844103Y-64489815D01*
X75798348Y-64437011D01*
X75788404Y-64367853D01*
X75810824Y-64312615D01*
X75899103Y-64191106D01*
X75958870Y-64108845D01*
X76073241Y-63884379D01*
X76151090Y-63644785D01*
X76190500Y-63395962D01*
X76190500Y-63144038D01*
X76151090Y-62895215D01*
X76073241Y-62655621D01*
X76073239Y-62655618D01*
X76073239Y-62655616D01*
X76031747Y-62574184D01*
X75958870Y-62431155D01*
X75935871Y-62399500D01*
X75810798Y-62227350D01*
X75810794Y-62227345D01*
X75671130Y-62087681D01*
X75637645Y-62026358D01*
X75642629Y-61956666D01*
X75671130Y-61912319D01*
X75810793Y-61772656D01*
X75958870Y-61568845D01*
X76073241Y-61344379D01*
X76151090Y-61104785D01*
X76190500Y-60855962D01*
X76190500Y-60604038D01*
X76151090Y-60355215D01*
X76073241Y-60115621D01*
X76073239Y-60115618D01*
X76073239Y-60115616D01*
X76031747Y-60034184D01*
X75958870Y-59891155D01*
X75816296Y-59694918D01*
X75792816Y-59629112D01*
X75808641Y-59561058D01*
X75837948Y-59526181D01*
X75886410Y-59486410D01*
X76017685Y-59326450D01*
X76115232Y-59143954D01*
X76175300Y-58945934D01*
X76190500Y-58791608D01*
X76190500Y-57588392D01*
X76175300Y-57434066D01*
X76115232Y-57236046D01*
X76017685Y-57053550D01*
X75929506Y-56946103D01*
X75886410Y-56893589D01*
X75726452Y-56762317D01*
X75726453Y-56762317D01*
X75726450Y-56762315D01*
X75543954Y-56664768D01*
X75345934Y-56604700D01*
X75345932Y-56604699D01*
X75345934Y-56604699D01*
X75226805Y-56592966D01*
X75191608Y-56589500D01*
X73188392Y-56589500D01*
X73150298Y-56593251D01*
X73034067Y-56604699D01*
X72836043Y-56664769D01*
X72757487Y-56706759D01*
X72653550Y-56762315D01*
X72653548Y-56762316D01*
X72653547Y-56762317D01*
X72493589Y-56893589D01*
X72362317Y-57053547D01*
X72264769Y-57236043D01*
X72204699Y-57434067D01*
X72193251Y-57550298D01*
X72189500Y-57588392D01*
X72189500Y-58791608D01*
X72194502Y-58842398D01*
X72204699Y-58945932D01*
X72204700Y-58945934D01*
X72264768Y-59143954D01*
X72362315Y-59326450D01*
X72450285Y-59433642D01*
X72493590Y-59486410D01*
X72542049Y-59526180D01*
X72581383Y-59583926D01*
X72583254Y-59653770D01*
X72563703Y-59694918D01*
X72421129Y-59891155D01*
X72306760Y-60115616D01*
X72228910Y-60355214D01*
X72189500Y-60604038D01*
X72189500Y-60855961D01*
X72228910Y-61104785D01*
X72306760Y-61344383D01*
X72421132Y-61568848D01*
X72569201Y-61772649D01*
X72569205Y-61772654D01*
X72708870Y-61912319D01*
X72742355Y-61973642D01*
X72737371Y-62043334D01*
X72708870Y-62087681D01*
X72569205Y-62227345D01*
X72569201Y-62227350D01*
X72421132Y-62431151D01*
X72306760Y-62655616D01*
X72228910Y-62895214D01*
X72189500Y-63144038D01*
X72189500Y-63395961D01*
X72228910Y-63644785D01*
X72306760Y-63884383D01*
X72421132Y-64108848D01*
X72569176Y-64312615D01*
X72592656Y-64378421D01*
X72576830Y-64446475D01*
X72526724Y-64495170D01*
X72468858Y-64509500D01*
X70210046Y-64509500D01*
X70143007Y-64489815D01*
X70122365Y-64473181D01*
X69417775Y-63768590D01*
X69384290Y-63707267D01*
X69382983Y-63700306D01*
X69371090Y-63625214D01*
X69296601Y-63395962D01*
X69293241Y-63385621D01*
X69293239Y-63385618D01*
X69293239Y-63385616D01*
X69251747Y-63304184D01*
X69178870Y-63161155D01*
X69159952Y-63135117D01*
X69030798Y-62957350D01*
X69030794Y-62957345D01*
X68852654Y-62779205D01*
X68852649Y-62779201D01*
X68648848Y-62631132D01*
X68648847Y-62631131D01*
X68648845Y-62631130D01*
X68578747Y-62595413D01*
X68424383Y-62516760D01*
X68184785Y-62438910D01*
X68135797Y-62431151D01*
X67935962Y-62399500D01*
X67684038Y-62399500D01*
X67559626Y-62419205D01*
X67435214Y-62438910D01*
X67195616Y-62516760D01*
X66971151Y-62631132D01*
X66767350Y-62779201D01*
X66767345Y-62779205D01*
X66589205Y-62957345D01*
X66589201Y-62957350D01*
X66441132Y-63161151D01*
X66326760Y-63385616D01*
X66248910Y-63625214D01*
X66209500Y-63874038D01*
X61790500Y-63874038D01*
X61751090Y-63625215D01*
X61673241Y-63385621D01*
X61673239Y-63385618D01*
X61673239Y-63385616D01*
X61631747Y-63304184D01*
X61558870Y-63161155D01*
X61539952Y-63135117D01*
X61410798Y-62957350D01*
X61410794Y-62957345D01*
X61232654Y-62779205D01*
X61232649Y-62779201D01*
X61028848Y-62631132D01*
X61028847Y-62631131D01*
X61028845Y-62631130D01*
X60958747Y-62595413D01*
X60804383Y-62516760D01*
X60564785Y-62438910D01*
X60515797Y-62431151D01*
X60315962Y-62399500D01*
X60064038Y-62399500D01*
X59939626Y-62419205D01*
X59815214Y-62438910D01*
X59575616Y-62516760D01*
X59351151Y-62631132D01*
X59147350Y-62779201D01*
X59147345Y-62779205D01*
X58969205Y-62957345D01*
X58969201Y-62957350D01*
X58821132Y-63161151D01*
X58706760Y-63385616D01*
X58628910Y-63625214D01*
X58589500Y-63874038D01*
X52848357Y-63874038D01*
X52848357Y-63494984D01*
X47223071Y-63494984D01*
X47223071Y-66911655D01*
X20500500Y-66911655D01*
X20500500Y-65910553D01*
X32973071Y-65910553D01*
X36957225Y-65910553D01*
X36957225Y-62496187D01*
X32973071Y-62496187D01*
X32973071Y-65910553D01*
X20500500Y-65910553D01*
X20500500Y-62361655D01*
X61223071Y-62361655D01*
X66850082Y-62361655D01*
X66850082Y-58946103D01*
X61223071Y-58946103D01*
X61223071Y-62361655D01*
X20500500Y-62361655D01*
X20500500Y-55874038D01*
X58589500Y-55874038D01*
X58589500Y-56125962D01*
X58594136Y-56155231D01*
X58628910Y-56374785D01*
X58706760Y-56614383D01*
X58821132Y-56838848D01*
X58969201Y-57042649D01*
X58969205Y-57042654D01*
X59147345Y-57220794D01*
X59147350Y-57220798D01*
X59325117Y-57349952D01*
X59351155Y-57368870D01*
X59494184Y-57441747D01*
X59575616Y-57483239D01*
X59575618Y-57483239D01*
X59575621Y-57483241D01*
X59815215Y-57561090D01*
X60064038Y-57600500D01*
X60064039Y-57600500D01*
X60315961Y-57600500D01*
X60315962Y-57600500D01*
X60564785Y-57561090D01*
X60804379Y-57483241D01*
X61028845Y-57368870D01*
X61232656Y-57220793D01*
X61410793Y-57042656D01*
X61558870Y-56838845D01*
X61673241Y-56614379D01*
X61751090Y-56374785D01*
X61790500Y-56125962D01*
X61790500Y-55874038D01*
X66209500Y-55874038D01*
X66209500Y-56125962D01*
X66214136Y-56155231D01*
X66248910Y-56374785D01*
X66326760Y-56614383D01*
X66441132Y-56838848D01*
X66589201Y-57042649D01*
X66589205Y-57042654D01*
X66767345Y-57220794D01*
X66767350Y-57220798D01*
X66945117Y-57349952D01*
X66971155Y-57368870D01*
X67114184Y-57441747D01*
X67195616Y-57483239D01*
X67195618Y-57483239D01*
X67195621Y-57483241D01*
X67435215Y-57561090D01*
X67684038Y-57600500D01*
X67684039Y-57600500D01*
X67935961Y-57600500D01*
X67935962Y-57600500D01*
X68184785Y-57561090D01*
X68424379Y-57483241D01*
X68648845Y-57368870D01*
X68852656Y-57220793D01*
X69030793Y-57042656D01*
X69178870Y-56838845D01*
X69293241Y-56614379D01*
X69371090Y-56374785D01*
X69410500Y-56125962D01*
X69410500Y-55874038D01*
X69371090Y-55625215D01*
X69293241Y-55385621D01*
X69293239Y-55385618D01*
X69293239Y-55385616D01*
X69251747Y-55304184D01*
X69178870Y-55161155D01*
X69159952Y-55135117D01*
X69120309Y-55080553D01*
X75899917Y-55080553D01*
X80171511Y-55080553D01*
X80171511Y-51666103D01*
X75899917Y-51666103D01*
X75899917Y-55080553D01*
X69120309Y-55080553D01*
X69030798Y-54957350D01*
X69030794Y-54957345D01*
X68852654Y-54779205D01*
X68852649Y-54779201D01*
X68648848Y-54631132D01*
X68648847Y-54631131D01*
X68648845Y-54631130D01*
X68578747Y-54595413D01*
X68424383Y-54516760D01*
X68184785Y-54438910D01*
X67935962Y-54399500D01*
X67684038Y-54399500D01*
X67559626Y-54419205D01*
X67435214Y-54438910D01*
X67195616Y-54516760D01*
X66971151Y-54631132D01*
X66767350Y-54779201D01*
X66767345Y-54779205D01*
X66589205Y-54957345D01*
X66589201Y-54957350D01*
X66441132Y-55161151D01*
X66326760Y-55385616D01*
X66248910Y-55625214D01*
X66234915Y-55713576D01*
X66209500Y-55874038D01*
X61790500Y-55874038D01*
X61751090Y-55625215D01*
X61673241Y-55385621D01*
X61673239Y-55385618D01*
X61673239Y-55385616D01*
X61631747Y-55304184D01*
X61558870Y-55161155D01*
X61539952Y-55135117D01*
X61410798Y-54957350D01*
X61410794Y-54957345D01*
X61232654Y-54779205D01*
X61232649Y-54779201D01*
X61028848Y-54631132D01*
X61028847Y-54631131D01*
X61028845Y-54631130D01*
X60958747Y-54595413D01*
X60804383Y-54516760D01*
X60564785Y-54438910D01*
X60315962Y-54399500D01*
X60064038Y-54399500D01*
X59939626Y-54419205D01*
X59815214Y-54438910D01*
X59575616Y-54516760D01*
X59351151Y-54631132D01*
X59147350Y-54779201D01*
X59147345Y-54779205D01*
X58969205Y-54957345D01*
X58969201Y-54957350D01*
X58821132Y-55161151D01*
X58706760Y-55385616D01*
X58628910Y-55625214D01*
X58614915Y-55713576D01*
X58589500Y-55874038D01*
X20500500Y-55874038D01*
X20500500Y-49849223D01*
X30159500Y-49849223D01*
X30159500Y-50150776D01*
X30159501Y-50150793D01*
X30198861Y-50449766D01*
X30276913Y-50741060D01*
X30392314Y-51019661D01*
X30392318Y-51019671D01*
X30543099Y-51280831D01*
X30726679Y-51520078D01*
X30726685Y-51520085D01*
X30939914Y-51733314D01*
X30939921Y-51733320D01*
X31179168Y-51916900D01*
X31440328Y-52067681D01*
X31440329Y-52067681D01*
X31440332Y-52067683D01*
X31626072Y-52144619D01*
X31718939Y-52183086D01*
X31718940Y-52183086D01*
X31718942Y-52183087D01*
X32010232Y-52261138D01*
X32309217Y-52300500D01*
X32309224Y-52300500D01*
X32610776Y-52300500D01*
X32610783Y-52300500D01*
X32909768Y-52261138D01*
X33201058Y-52183087D01*
X33479668Y-52067683D01*
X33740832Y-51916900D01*
X33980080Y-51733319D01*
X34193319Y-51520080D01*
X34376900Y-51280832D01*
X34527683Y-51019668D01*
X34643087Y-50741058D01*
X34721138Y-50449768D01*
X34760500Y-50150783D01*
X34760500Y-49849217D01*
X34721138Y-49550232D01*
X34643087Y-49258942D01*
X34527683Y-48980332D01*
X34514414Y-48957350D01*
X34376900Y-48719168D01*
X34229486Y-48527053D01*
X34193320Y-48479921D01*
X34193314Y-48479914D01*
X34168439Y-48455039D01*
X35239500Y-48455039D01*
X35239500Y-51544960D01*
X35254630Y-51679249D01*
X35254631Y-51679254D01*
X35314211Y-51849523D01*
X35349964Y-51906423D01*
X35410184Y-52002262D01*
X35537738Y-52129816D01*
X35690478Y-52225789D01*
X35791500Y-52261138D01*
X35860745Y-52285368D01*
X35860750Y-52285369D01*
X35951246Y-52295565D01*
X35995040Y-52300499D01*
X35995043Y-52300500D01*
X35995046Y-52300500D01*
X39084957Y-52300500D01*
X39084958Y-52300499D01*
X39152104Y-52292934D01*
X39219249Y-52285369D01*
X39219252Y-52285368D01*
X39219255Y-52285368D01*
X39389522Y-52225789D01*
X39542262Y-52129816D01*
X39669816Y-52002262D01*
X39765789Y-51849522D01*
X39825368Y-51679255D01*
X39840500Y-51544954D01*
X39840500Y-49874038D01*
X44589500Y-49874038D01*
X44589500Y-50125961D01*
X44628910Y-50374785D01*
X44706760Y-50614383D01*
X44821132Y-50838848D01*
X44969201Y-51042649D01*
X44969205Y-51042654D01*
X45147345Y-51220794D01*
X45147350Y-51220798D01*
X45274716Y-51313334D01*
X45351155Y-51368870D01*
X45494184Y-51441747D01*
X45575616Y-51483239D01*
X45575618Y-51483239D01*
X45575621Y-51483241D01*
X45815215Y-51561090D01*
X46064038Y-51600500D01*
X46064039Y-51600500D01*
X46315961Y-51600500D01*
X46315962Y-51600500D01*
X46564785Y-51561090D01*
X46804379Y-51483241D01*
X47028845Y-51368870D01*
X47232656Y-51220793D01*
X47410793Y-51042656D01*
X47558870Y-50838845D01*
X47673241Y-50614379D01*
X47751090Y-50374785D01*
X47790500Y-50125962D01*
X47790500Y-49874038D01*
X52209500Y-49874038D01*
X52209500Y-50125961D01*
X52248910Y-50374785D01*
X52326760Y-50614383D01*
X52441132Y-50838848D01*
X52589201Y-51042649D01*
X52589205Y-51042654D01*
X52767345Y-51220794D01*
X52767350Y-51220798D01*
X52894716Y-51313334D01*
X52971155Y-51368870D01*
X53114184Y-51441747D01*
X53195616Y-51483239D01*
X53195618Y-51483239D01*
X53195621Y-51483241D01*
X53435215Y-51561090D01*
X53684038Y-51600500D01*
X53684039Y-51600500D01*
X53935961Y-51600500D01*
X53935962Y-51600500D01*
X54184785Y-51561090D01*
X54424379Y-51483241D01*
X54648845Y-51368870D01*
X54852656Y-51220793D01*
X55030793Y-51042656D01*
X55178870Y-50838845D01*
X55293241Y-50614379D01*
X55371090Y-50374785D01*
X55373170Y-50361655D01*
X61223071Y-50361655D01*
X66850082Y-50361655D01*
X66850082Y-48190553D01*
X75899917Y-48190553D01*
X80169786Y-48190553D01*
X80169786Y-44774984D01*
X75899917Y-44774984D01*
X75899917Y-48190553D01*
X66850082Y-48190553D01*
X66850082Y-46946103D01*
X61223071Y-46946103D01*
X61223071Y-50361655D01*
X55373170Y-50361655D01*
X55410500Y-50125962D01*
X55410500Y-49874038D01*
X55371090Y-49625215D01*
X55293241Y-49385621D01*
X55293239Y-49385618D01*
X55293239Y-49385616D01*
X55228693Y-49258939D01*
X55178870Y-49161155D01*
X55159827Y-49134945D01*
X55030798Y-48957350D01*
X55030794Y-48957345D01*
X54852654Y-48779205D01*
X54852649Y-48779201D01*
X54648848Y-48631132D01*
X54648847Y-48631131D01*
X54648845Y-48631130D01*
X54578747Y-48595413D01*
X54424383Y-48516760D01*
X54184785Y-48438910D01*
X53935962Y-48399500D01*
X53684038Y-48399500D01*
X53559626Y-48419205D01*
X53435214Y-48438910D01*
X53195616Y-48516760D01*
X52971151Y-48631132D01*
X52767350Y-48779201D01*
X52767345Y-48779205D01*
X52589205Y-48957345D01*
X52589201Y-48957350D01*
X52441132Y-49161151D01*
X52326760Y-49385616D01*
X52248910Y-49625214D01*
X52209500Y-49874038D01*
X47790500Y-49874038D01*
X47751090Y-49625215D01*
X47673241Y-49385621D01*
X47673239Y-49385618D01*
X47673239Y-49385616D01*
X47608693Y-49258939D01*
X47558870Y-49161155D01*
X47539827Y-49134945D01*
X47410798Y-48957350D01*
X47410794Y-48957345D01*
X47232654Y-48779205D01*
X47232649Y-48779201D01*
X47028848Y-48631132D01*
X47028847Y-48631131D01*
X47028845Y-48631130D01*
X46958747Y-48595413D01*
X46804383Y-48516760D01*
X46564785Y-48438910D01*
X46315962Y-48399500D01*
X46064038Y-48399500D01*
X45939626Y-48419205D01*
X45815214Y-48438910D01*
X45575616Y-48516760D01*
X45351151Y-48631132D01*
X45147350Y-48779201D01*
X45147345Y-48779205D01*
X44969205Y-48957345D01*
X44969201Y-48957350D01*
X44821132Y-49161151D01*
X44706760Y-49385616D01*
X44628910Y-49625214D01*
X44589500Y-49874038D01*
X39840500Y-49874038D01*
X39840500Y-48455046D01*
X39825854Y-48325054D01*
X39825369Y-48320750D01*
X39825368Y-48320745D01*
X39765789Y-48150478D01*
X39669816Y-47997738D01*
X39542262Y-47870184D01*
X39457482Y-47816913D01*
X39389523Y-47774211D01*
X39219254Y-47714631D01*
X39219249Y-47714630D01*
X39084960Y-47699500D01*
X39084954Y-47699500D01*
X35995046Y-47699500D01*
X35995039Y-47699500D01*
X35860750Y-47714630D01*
X35860745Y-47714631D01*
X35690476Y-47774211D01*
X35537737Y-47870184D01*
X35410184Y-47997737D01*
X35314211Y-48150476D01*
X35254631Y-48320745D01*
X35254630Y-48320750D01*
X35239500Y-48455039D01*
X34168439Y-48455039D01*
X33980085Y-48266685D01*
X33980078Y-48266679D01*
X33740831Y-48083099D01*
X33479671Y-47932318D01*
X33479661Y-47932314D01*
X33201060Y-47816913D01*
X32909766Y-47738861D01*
X32610793Y-47699501D01*
X32610788Y-47699500D01*
X32610783Y-47699500D01*
X32309217Y-47699500D01*
X32309211Y-47699500D01*
X32309206Y-47699501D01*
X32010233Y-47738861D01*
X31718939Y-47816913D01*
X31440338Y-47932314D01*
X31440328Y-47932318D01*
X31179168Y-48083099D01*
X30939921Y-48266679D01*
X30939914Y-48266685D01*
X30726685Y-48479914D01*
X30726679Y-48479921D01*
X30543099Y-48719168D01*
X30392318Y-48980328D01*
X30392314Y-48980338D01*
X30276913Y-49258939D01*
X30198861Y-49550233D01*
X30159501Y-49849206D01*
X30159500Y-49849223D01*
X20500500Y-49849223D01*
X20500500Y-46911655D01*
X47223071Y-46911655D01*
X52848357Y-46911655D01*
X52848357Y-43874038D01*
X58589500Y-43874038D01*
X58589500Y-44125961D01*
X58628910Y-44374785D01*
X58706760Y-44614383D01*
X58821132Y-44838848D01*
X58969201Y-45042649D01*
X58969205Y-45042654D01*
X59147345Y-45220794D01*
X59147350Y-45220798D01*
X59325117Y-45349952D01*
X59351155Y-45368870D01*
X59494184Y-45441747D01*
X59575616Y-45483239D01*
X59575618Y-45483239D01*
X59575621Y-45483241D01*
X59815215Y-45561090D01*
X60064038Y-45600500D01*
X60064039Y-45600500D01*
X60315961Y-45600500D01*
X60315962Y-45600500D01*
X60564785Y-45561090D01*
X60804379Y-45483241D01*
X61028845Y-45368870D01*
X61232656Y-45220793D01*
X61410793Y-45042656D01*
X61558870Y-44838845D01*
X61673241Y-44614379D01*
X61751090Y-44374785D01*
X61790500Y-44125962D01*
X61790500Y-43874038D01*
X66209500Y-43874038D01*
X66209500Y-44125961D01*
X66248910Y-44374785D01*
X66326760Y-44614383D01*
X66441132Y-44838848D01*
X66589201Y-45042649D01*
X66589205Y-45042654D01*
X66767345Y-45220794D01*
X66767350Y-45220798D01*
X66945117Y-45349952D01*
X66971155Y-45368870D01*
X67114184Y-45441747D01*
X67195616Y-45483239D01*
X67195618Y-45483239D01*
X67195621Y-45483241D01*
X67435215Y-45561090D01*
X67684038Y-45600500D01*
X67684039Y-45600500D01*
X67935961Y-45600500D01*
X67935962Y-45600500D01*
X68184785Y-45561090D01*
X68424379Y-45483241D01*
X68648845Y-45368870D01*
X68852656Y-45220793D01*
X69030793Y-45042656D01*
X69178870Y-44838845D01*
X69293241Y-44614379D01*
X69371090Y-44374785D01*
X69410500Y-44125962D01*
X69410500Y-43874038D01*
X69371090Y-43625215D01*
X69293241Y-43385621D01*
X69293239Y-43385618D01*
X69293239Y-43385616D01*
X69246170Y-43293239D01*
X69178870Y-43161155D01*
X69105779Y-43060553D01*
X69030798Y-42957350D01*
X69030794Y-42957345D01*
X68852654Y-42779205D01*
X68852649Y-42779201D01*
X68648848Y-42631132D01*
X68648847Y-42631131D01*
X68648845Y-42631130D01*
X68578747Y-42595413D01*
X68424383Y-42516760D01*
X68184785Y-42438910D01*
X67935962Y-42399500D01*
X67684038Y-42399500D01*
X67559626Y-42419205D01*
X67435214Y-42438910D01*
X67195616Y-42516760D01*
X66971151Y-42631132D01*
X66767350Y-42779201D01*
X66767345Y-42779205D01*
X66589205Y-42957345D01*
X66589201Y-42957350D01*
X66441132Y-43161151D01*
X66326760Y-43385616D01*
X66248910Y-43625214D01*
X66209500Y-43874038D01*
X61790500Y-43874038D01*
X61751090Y-43625215D01*
X61673241Y-43385621D01*
X61673239Y-43385618D01*
X61673239Y-43385616D01*
X61626170Y-43293239D01*
X61558870Y-43161155D01*
X61485779Y-43060553D01*
X61410798Y-42957350D01*
X61410794Y-42957345D01*
X61232654Y-42779205D01*
X61232649Y-42779201D01*
X61028848Y-42631132D01*
X61028847Y-42631131D01*
X61028845Y-42631130D01*
X60958747Y-42595413D01*
X60804383Y-42516760D01*
X60564785Y-42438910D01*
X60315962Y-42399500D01*
X60064038Y-42399500D01*
X59939626Y-42419205D01*
X59815214Y-42438910D01*
X59575616Y-42516760D01*
X59351151Y-42631132D01*
X59147350Y-42779201D01*
X59147345Y-42779205D01*
X58969205Y-42957345D01*
X58969201Y-42957350D01*
X58821132Y-43161151D01*
X58706760Y-43385616D01*
X58628910Y-43625214D01*
X58589500Y-43874038D01*
X52848357Y-43874038D01*
X52848357Y-43494984D01*
X47223071Y-43494984D01*
X47223071Y-46911655D01*
X20500500Y-46911655D01*
X20500500Y-45910553D01*
X32973071Y-45910553D01*
X36957225Y-45910553D01*
X36957225Y-42496103D01*
X32973071Y-42496103D01*
X32973071Y-45910553D01*
X20500500Y-45910553D01*
X20500500Y-29849223D01*
X30159500Y-29849223D01*
X30159500Y-30150776D01*
X30159501Y-30150793D01*
X30198861Y-30449766D01*
X30276913Y-30741060D01*
X30392314Y-31019661D01*
X30392318Y-31019671D01*
X30543099Y-31280831D01*
X30726679Y-31520078D01*
X30726685Y-31520085D01*
X30939914Y-31733314D01*
X30939921Y-31733320D01*
X31179168Y-31916900D01*
X31440328Y-32067681D01*
X31440329Y-32067681D01*
X31440332Y-32067683D01*
X31626072Y-32144619D01*
X31718939Y-32183086D01*
X31718940Y-32183086D01*
X31718942Y-32183087D01*
X32010232Y-32261138D01*
X32309217Y-32300500D01*
X32309224Y-32300500D01*
X32610776Y-32300500D01*
X32610783Y-32300500D01*
X32909768Y-32261138D01*
X33201058Y-32183087D01*
X33479668Y-32067683D01*
X33740832Y-31916900D01*
X33980080Y-31733319D01*
X34193319Y-31520080D01*
X34376900Y-31280832D01*
X34527683Y-31019668D01*
X34643087Y-30741058D01*
X34721138Y-30449768D01*
X34760500Y-30150783D01*
X34760500Y-29849217D01*
X34721138Y-29550232D01*
X34643087Y-29258942D01*
X34527683Y-28980332D01*
X34514414Y-28957350D01*
X34376900Y-28719168D01*
X34229486Y-28527053D01*
X34193320Y-28479921D01*
X34193314Y-28479914D01*
X34168439Y-28455039D01*
X35239500Y-28455039D01*
X35239500Y-31544960D01*
X35254630Y-31679249D01*
X35254631Y-31679254D01*
X35314211Y-31849523D01*
X35356547Y-31916900D01*
X35410184Y-32002262D01*
X35537738Y-32129816D01*
X35690478Y-32225789D01*
X35791500Y-32261138D01*
X35860745Y-32285368D01*
X35860750Y-32285369D01*
X35951246Y-32295565D01*
X35995040Y-32300499D01*
X35995043Y-32300500D01*
X35995046Y-32300500D01*
X39084957Y-32300500D01*
X39084958Y-32300499D01*
X39152104Y-32292934D01*
X39219249Y-32285369D01*
X39219252Y-32285368D01*
X39219255Y-32285368D01*
X39389522Y-32225789D01*
X39542262Y-32129816D01*
X39669816Y-32002262D01*
X39765789Y-31849522D01*
X39825368Y-31679255D01*
X39840500Y-31544954D01*
X39840500Y-29874038D01*
X44589500Y-29874038D01*
X44589500Y-30125961D01*
X44628910Y-30374785D01*
X44706760Y-30614383D01*
X44821132Y-30838848D01*
X44969201Y-31042649D01*
X44969205Y-31042654D01*
X45147345Y-31220794D01*
X45147350Y-31220798D01*
X45325117Y-31349952D01*
X45351155Y-31368870D01*
X45494184Y-31441747D01*
X45575616Y-31483239D01*
X45575618Y-31483239D01*
X45575621Y-31483241D01*
X45688993Y-31520078D01*
X45815214Y-31561090D01*
X45854439Y-31567302D01*
X45890306Y-31572983D01*
X45953441Y-31602912D01*
X45958590Y-31607775D01*
X54464908Y-40114092D01*
X54464922Y-40114107D01*
X54468033Y-40117218D01*
X54468034Y-40117219D01*
X54612781Y-40261966D01*
X54612784Y-40261968D01*
X54612785Y-40261969D01*
X54701957Y-40326756D01*
X54701959Y-40326757D01*
X54701962Y-40326759D01*
X54778390Y-40382287D01*
X54867847Y-40427867D01*
X54960781Y-40475221D01*
X54960784Y-40475222D01*
X55058124Y-40506849D01*
X55155466Y-40538477D01*
X55357648Y-40570500D01*
X55357649Y-40570500D01*
X55562352Y-40570500D01*
X72468858Y-40570500D01*
X72535897Y-40590185D01*
X72581652Y-40642989D01*
X72591596Y-40712147D01*
X72569176Y-40767385D01*
X72421132Y-40971151D01*
X72306760Y-41195616D01*
X72228910Y-41435214D01*
X72189500Y-41684038D01*
X72189500Y-41935961D01*
X72228910Y-42184785D01*
X72306760Y-42424383D01*
X72421132Y-42648848D01*
X72569201Y-42852649D01*
X72569205Y-42852654D01*
X72747345Y-43030794D01*
X72747350Y-43030798D01*
X72788305Y-43060553D01*
X72951155Y-43178870D01*
X73094184Y-43251747D01*
X73175616Y-43293239D01*
X73175618Y-43293239D01*
X73175621Y-43293241D01*
X73415215Y-43371090D01*
X73664038Y-43410500D01*
X73664039Y-43410500D01*
X74715961Y-43410500D01*
X74715962Y-43410500D01*
X74964785Y-43371090D01*
X75204379Y-43293241D01*
X75428845Y-43178870D01*
X75632656Y-43030793D01*
X75810793Y-42852656D01*
X75958870Y-42648845D01*
X76073241Y-42424379D01*
X76151090Y-42184785D01*
X76190500Y-41935962D01*
X76190500Y-41684038D01*
X76151090Y-41435215D01*
X76073241Y-41195621D01*
X76073239Y-41195618D01*
X76073239Y-41195616D01*
X76031747Y-41114184D01*
X75958870Y-40971155D01*
X75810823Y-40767385D01*
X75810798Y-40767350D01*
X75810794Y-40767345D01*
X75671130Y-40627681D01*
X75637645Y-40566358D01*
X75642629Y-40496666D01*
X75671130Y-40452319D01*
X75810793Y-40312656D01*
X75958870Y-40108845D01*
X76073241Y-39884379D01*
X76151090Y-39644785D01*
X76190500Y-39395962D01*
X76190500Y-39144038D01*
X76151090Y-38895215D01*
X76073241Y-38655621D01*
X76073239Y-38655618D01*
X76073239Y-38655616D01*
X76031747Y-38574184D01*
X75958870Y-38431155D01*
X75939952Y-38405117D01*
X75810798Y-38227350D01*
X75810794Y-38227345D01*
X75671130Y-38087681D01*
X75637645Y-38026358D01*
X75642629Y-37956666D01*
X75671130Y-37912319D01*
X75713324Y-37870125D01*
X75810793Y-37772656D01*
X75958870Y-37568845D01*
X76073241Y-37344379D01*
X76151090Y-37104785D01*
X76190500Y-36855962D01*
X76190500Y-36604038D01*
X76151090Y-36355215D01*
X76073241Y-36115621D01*
X76073239Y-36115618D01*
X76073239Y-36115616D01*
X76031747Y-36034184D01*
X75958870Y-35891155D01*
X75816296Y-35694918D01*
X75792816Y-35629112D01*
X75808641Y-35561058D01*
X75837948Y-35526181D01*
X75886410Y-35486410D01*
X76017685Y-35326450D01*
X76115232Y-35143954D01*
X76175300Y-34945934D01*
X76190500Y-34791608D01*
X76190500Y-34064038D01*
X79809500Y-34064038D01*
X79809500Y-34315961D01*
X79848910Y-34564785D01*
X79926760Y-34804383D01*
X80041132Y-35028848D01*
X80189201Y-35232649D01*
X80189205Y-35232654D01*
X80328870Y-35372319D01*
X80362355Y-35433642D01*
X80357371Y-35503334D01*
X80328870Y-35547681D01*
X80189205Y-35687345D01*
X80189201Y-35687350D01*
X80041132Y-35891151D01*
X79926760Y-36115616D01*
X79848910Y-36355214D01*
X79809500Y-36604038D01*
X79809500Y-36855961D01*
X79848910Y-37104785D01*
X79926760Y-37344383D01*
X79997512Y-37483239D01*
X80037178Y-37561089D01*
X80041132Y-37568848D01*
X80189201Y-37772649D01*
X80189205Y-37772654D01*
X80328870Y-37912319D01*
X80362355Y-37973642D01*
X80357371Y-38043334D01*
X80328870Y-38087681D01*
X80189205Y-38227345D01*
X80189201Y-38227350D01*
X80041132Y-38431151D01*
X79926760Y-38655616D01*
X79848910Y-38895214D01*
X79809500Y-39144038D01*
X79809500Y-39395961D01*
X79848910Y-39644785D01*
X79926760Y-39884383D01*
X80041132Y-40108848D01*
X80189201Y-40312649D01*
X80189205Y-40312654D01*
X80328870Y-40452319D01*
X80362355Y-40513642D01*
X80357371Y-40583334D01*
X80328870Y-40627681D01*
X80189205Y-40767345D01*
X80189201Y-40767350D01*
X80041132Y-40971151D01*
X79926760Y-41195616D01*
X79848910Y-41435214D01*
X79809500Y-41684038D01*
X79809500Y-41935961D01*
X79848910Y-42184785D01*
X79926760Y-42424383D01*
X80041132Y-42648848D01*
X80189201Y-42852649D01*
X80189205Y-42852654D01*
X80367345Y-43030794D01*
X80367350Y-43030798D01*
X80408305Y-43060553D01*
X80571155Y-43178870D01*
X80714184Y-43251747D01*
X80795616Y-43293239D01*
X80795618Y-43293239D01*
X80795621Y-43293241D01*
X81035215Y-43371090D01*
X81284038Y-43410500D01*
X81284039Y-43410500D01*
X82335961Y-43410500D01*
X82335962Y-43410500D01*
X82584785Y-43371090D01*
X82824379Y-43293241D01*
X83048845Y-43178870D01*
X83252656Y-43030793D01*
X83430793Y-42852656D01*
X83578870Y-42648845D01*
X83693241Y-42424379D01*
X83771090Y-42184785D01*
X83810500Y-41935962D01*
X83810500Y-41684038D01*
X83771090Y-41435215D01*
X83693241Y-41195621D01*
X83693239Y-41195618D01*
X83693239Y-41195616D01*
X83651747Y-41114184D01*
X83578870Y-40971155D01*
X83430823Y-40767385D01*
X83430798Y-40767350D01*
X83430794Y-40767345D01*
X83291130Y-40627681D01*
X83257645Y-40566358D01*
X83262629Y-40496666D01*
X83291130Y-40452319D01*
X83430793Y-40312656D01*
X83578870Y-40108845D01*
X83693241Y-39884379D01*
X83771090Y-39644785D01*
X83810500Y-39395962D01*
X83810500Y-39144038D01*
X83771090Y-38895215D01*
X83693241Y-38655621D01*
X83693239Y-38655618D01*
X83693239Y-38655616D01*
X83651747Y-38574184D01*
X83578870Y-38431155D01*
X83559952Y-38405117D01*
X83430798Y-38227350D01*
X83430794Y-38227345D01*
X83291130Y-38087681D01*
X83257645Y-38026358D01*
X83262629Y-37956666D01*
X83291130Y-37912319D01*
X83333324Y-37870125D01*
X83430793Y-37772656D01*
X83578870Y-37568845D01*
X83693241Y-37344379D01*
X83771090Y-37104785D01*
X83810500Y-36855962D01*
X83810500Y-36604038D01*
X83771090Y-36355215D01*
X83693241Y-36115621D01*
X83693239Y-36115618D01*
X83693239Y-36115616D01*
X83651747Y-36034184D01*
X83578870Y-35891155D01*
X83566434Y-35874038D01*
X83430824Y-35687385D01*
X83426592Y-35675525D01*
X83418348Y-35666011D01*
X83415074Y-35643244D01*
X83407344Y-35621579D01*
X83410195Y-35609315D01*
X83408404Y-35596853D01*
X83417960Y-35575927D01*
X83423170Y-35553525D01*
X83432198Y-35544751D01*
X83437429Y-35533297D01*
X83456781Y-35520860D01*
X83473276Y-35504830D01*
X83487021Y-35501426D01*
X83496207Y-35495523D01*
X83531142Y-35490500D01*
X83721653Y-35490500D01*
X83788692Y-35510185D01*
X83809334Y-35526819D01*
X86163181Y-37880666D01*
X86196666Y-37941989D01*
X86199500Y-37968347D01*
X86199500Y-53026761D01*
X86179815Y-53093800D01*
X86175818Y-53099646D01*
X86131132Y-53161151D01*
X86016760Y-53385616D01*
X85938910Y-53625214D01*
X85899500Y-53874038D01*
X85899500Y-54125961D01*
X85938910Y-54374785D01*
X86016760Y-54614383D01*
X86131132Y-54838848D01*
X86279201Y-55042649D01*
X86279205Y-55042654D01*
X86457345Y-55220794D01*
X86457350Y-55220798D01*
X86635117Y-55349952D01*
X86661155Y-55368870D01*
X86804184Y-55441747D01*
X86885616Y-55483239D01*
X86885618Y-55483239D01*
X86885621Y-55483241D01*
X87125215Y-55561090D01*
X87374038Y-55600500D01*
X87374039Y-55600500D01*
X87625961Y-55600500D01*
X87625962Y-55600500D01*
X87874785Y-55561090D01*
X88114379Y-55483241D01*
X88338845Y-55368870D01*
X88542656Y-55220793D01*
X88720793Y-55042656D01*
X88868870Y-54838845D01*
X88983241Y-54614379D01*
X89061090Y-54374785D01*
X89100500Y-54125962D01*
X89100500Y-53874038D01*
X90899500Y-53874038D01*
X90899500Y-54125961D01*
X90938910Y-54374785D01*
X91016760Y-54614383D01*
X91131132Y-54838848D01*
X91279201Y-55042649D01*
X91279205Y-55042654D01*
X91457345Y-55220794D01*
X91457350Y-55220798D01*
X91635117Y-55349952D01*
X91661155Y-55368870D01*
X91804184Y-55441747D01*
X91885616Y-55483239D01*
X91885618Y-55483239D01*
X91885621Y-55483241D01*
X92125215Y-55561090D01*
X92374038Y-55600500D01*
X92374039Y-55600500D01*
X92625961Y-55600500D01*
X92625962Y-55600500D01*
X92874785Y-55561090D01*
X93114379Y-55483241D01*
X93338845Y-55368870D01*
X93542656Y-55220793D01*
X93720793Y-55042656D01*
X93868870Y-54838845D01*
X93983241Y-54614379D01*
X94061090Y-54374785D01*
X94100500Y-54125962D01*
X94100500Y-53874038D01*
X94061090Y-53625215D01*
X93983241Y-53385621D01*
X93983239Y-53385618D01*
X93983239Y-53385616D01*
X93941747Y-53304184D01*
X93868870Y-53161155D01*
X93800500Y-53067051D01*
X93720798Y-52957350D01*
X93720794Y-52957345D01*
X93542654Y-52779205D01*
X93542649Y-52779201D01*
X93338848Y-52631132D01*
X93338847Y-52631131D01*
X93338845Y-52631130D01*
X93268747Y-52595413D01*
X93114383Y-52516760D01*
X92874785Y-52438910D01*
X92625962Y-52399500D01*
X92374038Y-52399500D01*
X92307132Y-52410097D01*
X92125214Y-52438910D01*
X91885616Y-52516760D01*
X91661151Y-52631132D01*
X91457350Y-52779201D01*
X91457345Y-52779205D01*
X91279205Y-52957345D01*
X91279201Y-52957350D01*
X91131132Y-53161151D01*
X91016760Y-53385616D01*
X90938910Y-53625214D01*
X90899500Y-53874038D01*
X89100500Y-53874038D01*
X89061090Y-53625215D01*
X88983241Y-53385621D01*
X88983239Y-53385618D01*
X88983239Y-53385616D01*
X88941747Y-53304184D01*
X88868870Y-53161155D01*
X88862246Y-53152038D01*
X88824182Y-53099646D01*
X88800702Y-53033840D01*
X88800500Y-53026761D01*
X88800500Y-43060553D01*
X106973071Y-43060553D01*
X107881313Y-43060553D01*
X107948352Y-43080238D01*
X107994107Y-43133042D01*
X108004051Y-43202200D01*
X107975026Y-43265756D01*
X107922267Y-43301595D01*
X107800478Y-43344210D01*
X107647737Y-43440184D01*
X107520184Y-43567737D01*
X107424211Y-43720476D01*
X107364631Y-43890745D01*
X107364630Y-43890750D01*
X107349500Y-44025039D01*
X107349500Y-45814960D01*
X107364630Y-45949249D01*
X107364631Y-45949254D01*
X107424211Y-46119523D01*
X107520184Y-46272262D01*
X107620576Y-46372654D01*
X107654061Y-46433977D01*
X107649077Y-46503669D01*
X107633214Y-46533219D01*
X107588367Y-46594946D01*
X107470422Y-46826423D01*
X107390140Y-47073506D01*
X107349500Y-47330097D01*
X107349500Y-47589902D01*
X107390140Y-47846493D01*
X107470422Y-48093576D01*
X107588368Y-48325054D01*
X107741066Y-48535225D01*
X107741071Y-48535231D01*
X107848159Y-48642319D01*
X107881644Y-48703642D01*
X107876660Y-48773334D01*
X107848159Y-48817681D01*
X107741071Y-48924768D01*
X107741066Y-48924774D01*
X107588368Y-49134945D01*
X107470422Y-49366423D01*
X107390140Y-49613506D01*
X107349500Y-49870097D01*
X107349500Y-50129902D01*
X107390140Y-50386493D01*
X107470422Y-50633576D01*
X107525188Y-50741058D01*
X107575013Y-50838845D01*
X107588368Y-50865054D01*
X107741066Y-51075225D01*
X107741071Y-51075231D01*
X107848159Y-51182319D01*
X107881644Y-51243642D01*
X107876660Y-51313334D01*
X107848159Y-51357681D01*
X107741071Y-51464768D01*
X107741066Y-51464774D01*
X107588368Y-51674945D01*
X107470422Y-51906423D01*
X107390140Y-52153506D01*
X107349500Y-52410097D01*
X107349500Y-52669902D01*
X107390140Y-52926493D01*
X107470422Y-53173576D01*
X107551534Y-53332764D01*
X107578463Y-53385616D01*
X107588368Y-53405054D01*
X107741066Y-53615225D01*
X107741071Y-53615231D01*
X107848159Y-53722319D01*
X107881644Y-53783642D01*
X107876660Y-53853334D01*
X107848159Y-53897681D01*
X107741071Y-54004768D01*
X107741066Y-54004774D01*
X107588368Y-54214945D01*
X107470422Y-54446423D01*
X107390140Y-54693506D01*
X107349500Y-54950097D01*
X107349500Y-55209902D01*
X107390140Y-55466493D01*
X107470422Y-55713576D01*
X107588368Y-55945054D01*
X107719805Y-56125962D01*
X107741069Y-56155229D01*
X107924771Y-56338931D01*
X108134949Y-56491634D01*
X108282445Y-56566787D01*
X108366423Y-56609577D01*
X108366425Y-56609577D01*
X108366428Y-56609579D01*
X108613507Y-56689860D01*
X108745706Y-56710797D01*
X108870098Y-56730500D01*
X108870103Y-56730500D01*
X109129902Y-56730500D01*
X109243298Y-56712539D01*
X109386493Y-56689860D01*
X109633572Y-56609579D01*
X109865051Y-56491634D01*
X110075229Y-56338931D01*
X110258931Y-56155229D01*
X110411634Y-55945051D01*
X110529579Y-55713572D01*
X110609860Y-55466493D01*
X110632539Y-55323298D01*
X110650500Y-55209902D01*
X110650500Y-54950097D01*
X110623432Y-54779201D01*
X110609860Y-54693507D01*
X110529579Y-54446428D01*
X110529577Y-54446425D01*
X110529577Y-54446423D01*
X110486787Y-54362445D01*
X110411634Y-54214949D01*
X110258931Y-54004771D01*
X110151841Y-53897681D01*
X110118356Y-53836358D01*
X110123340Y-53766666D01*
X110151841Y-53722319D01*
X110258931Y-53615229D01*
X110411634Y-53405051D01*
X110529579Y-53173572D01*
X110609860Y-52926493D01*
X110633188Y-52779201D01*
X110650500Y-52669902D01*
X110650500Y-52410097D01*
X110621308Y-52225788D01*
X110609860Y-52153507D01*
X110529579Y-51906428D01*
X110529577Y-51906425D01*
X110529577Y-51906423D01*
X110486787Y-51822445D01*
X110411634Y-51674949D01*
X110258931Y-51464771D01*
X110151841Y-51357681D01*
X110118356Y-51296358D01*
X110123340Y-51226666D01*
X110151841Y-51182319D01*
X110258931Y-51075229D01*
X110411634Y-50865051D01*
X110529579Y-50633572D01*
X110609860Y-50386493D01*
X110632539Y-50243298D01*
X110650500Y-50129902D01*
X110650500Y-49870097D01*
X110611714Y-49625215D01*
X110609860Y-49613507D01*
X110529579Y-49366428D01*
X110529577Y-49366425D01*
X110529577Y-49366423D01*
X110474810Y-49258939D01*
X110411634Y-49134949D01*
X110258931Y-48924771D01*
X110151841Y-48817681D01*
X110118356Y-48756358D01*
X110123340Y-48686666D01*
X110151841Y-48642319D01*
X110163030Y-48631130D01*
X110258931Y-48535229D01*
X110411634Y-48325051D01*
X110529579Y-48093572D01*
X110609860Y-47846493D01*
X110633141Y-47699500D01*
X110650500Y-47589902D01*
X110650500Y-47330097D01*
X110628947Y-47194021D01*
X110609860Y-47073507D01*
X110529579Y-46826428D01*
X110529577Y-46826425D01*
X110529577Y-46826423D01*
X110411633Y-46594948D01*
X110411632Y-46594946D01*
X110366785Y-46533219D01*
X110343306Y-46467416D01*
X110359131Y-46399362D01*
X110379423Y-46372655D01*
X110379424Y-46372654D01*
X110479816Y-46272262D01*
X110575789Y-46119522D01*
X110635368Y-45949255D01*
X110650500Y-45814954D01*
X110650500Y-44025046D01*
X110635368Y-43890745D01*
X110575789Y-43720478D01*
X110479816Y-43567738D01*
X110352262Y-43440184D01*
X110242298Y-43371089D01*
X110199521Y-43344210D01*
X110077733Y-43301595D01*
X110020956Y-43260873D01*
X109995209Y-43195920D01*
X110008665Y-43127359D01*
X110057052Y-43076956D01*
X110118687Y-43060553D01*
X111026928Y-43060553D01*
X111026928Y-39574676D01*
X106973071Y-39574676D01*
X106973071Y-43060553D01*
X88800500Y-43060553D01*
X88800500Y-37275948D01*
X88783868Y-37170940D01*
X88768477Y-37073767D01*
X88768477Y-37073765D01*
X88705220Y-36879082D01*
X88705220Y-36879081D01*
X88655792Y-36782073D01*
X88612287Y-36696689D01*
X88491966Y-36531081D01*
X85737715Y-33776830D01*
X85704230Y-33715507D01*
X85709214Y-33645815D01*
X85737711Y-33601473D01*
X87731410Y-31607773D01*
X87792731Y-31574290D01*
X87799645Y-31572990D01*
X87874785Y-31561090D01*
X88114379Y-31483241D01*
X88338845Y-31368870D01*
X88542656Y-31220793D01*
X88720793Y-31042656D01*
X88868870Y-30838845D01*
X88983241Y-30614379D01*
X89061090Y-30374785D01*
X89100500Y-30125962D01*
X89100500Y-29874038D01*
X90899500Y-29874038D01*
X90899500Y-30125961D01*
X90938910Y-30374785D01*
X91016760Y-30614383D01*
X91131132Y-30838848D01*
X91279201Y-31042649D01*
X91279205Y-31042654D01*
X91457345Y-31220794D01*
X91457350Y-31220798D01*
X91635117Y-31349952D01*
X91661155Y-31368870D01*
X91804184Y-31441747D01*
X91885616Y-31483239D01*
X91885618Y-31483239D01*
X91885621Y-31483241D01*
X92125215Y-31561090D01*
X92374038Y-31600500D01*
X92374039Y-31600500D01*
X92625961Y-31600500D01*
X92625962Y-31600500D01*
X92874785Y-31561090D01*
X93114379Y-31483241D01*
X93338845Y-31368870D01*
X93542656Y-31220793D01*
X93720793Y-31042656D01*
X93868870Y-30838845D01*
X93983241Y-30614379D01*
X94061090Y-30374785D01*
X94100500Y-30125962D01*
X94100500Y-29874038D01*
X94061090Y-29625215D01*
X93983241Y-29385621D01*
X93983239Y-29385618D01*
X93983239Y-29385616D01*
X93918693Y-29258939D01*
X93868870Y-29161155D01*
X93849952Y-29135117D01*
X93720798Y-28957350D01*
X93720794Y-28957345D01*
X93542654Y-28779205D01*
X93542649Y-28779201D01*
X93338848Y-28631132D01*
X93338847Y-28631131D01*
X93338845Y-28631130D01*
X93268747Y-28595413D01*
X93114383Y-28516760D01*
X92874785Y-28438910D01*
X92625962Y-28399500D01*
X92374038Y-28399500D01*
X92249626Y-28419205D01*
X92125214Y-28438910D01*
X91885616Y-28516760D01*
X91661151Y-28631132D01*
X91457350Y-28779201D01*
X91457345Y-28779205D01*
X91279205Y-28957345D01*
X91279201Y-28957350D01*
X91131132Y-29161151D01*
X91016760Y-29385616D01*
X90938910Y-29625214D01*
X90899500Y-29874038D01*
X89100500Y-29874038D01*
X89061090Y-29625215D01*
X88983241Y-29385621D01*
X88983239Y-29385618D01*
X88983239Y-29385616D01*
X88918693Y-29258939D01*
X88868870Y-29161155D01*
X88849952Y-29135117D01*
X88720798Y-28957350D01*
X88720794Y-28957345D01*
X88542654Y-28779205D01*
X88542649Y-28779201D01*
X88338848Y-28631132D01*
X88338847Y-28631131D01*
X88338845Y-28631130D01*
X88268747Y-28595413D01*
X88114383Y-28516760D01*
X87874785Y-28438910D01*
X87625962Y-28399500D01*
X87374038Y-28399500D01*
X87249626Y-28419205D01*
X87125214Y-28438910D01*
X86885616Y-28516760D01*
X86661151Y-28631132D01*
X86457350Y-28779201D01*
X86457345Y-28779205D01*
X86279205Y-28957345D01*
X86279201Y-28957350D01*
X86131132Y-29161151D01*
X86016760Y-29385618D01*
X85938909Y-29625217D01*
X85927015Y-29700309D01*
X85897085Y-29763443D01*
X85892223Y-29768590D01*
X83319736Y-32341078D01*
X83199413Y-32506688D01*
X83157540Y-32588869D01*
X83157523Y-32588902D01*
X83157219Y-32589500D01*
X83106480Y-32689081D01*
X83103566Y-32698048D01*
X83099574Y-32706124D01*
X83081747Y-32725463D01*
X83066897Y-32747175D01*
X83058440Y-32750747D01*
X83052219Y-32757497D01*
X83026766Y-32764128D01*
X83002534Y-32774365D01*
X82993487Y-32772798D01*
X82984606Y-32775112D01*
X82959610Y-32766930D01*
X82933690Y-32762441D01*
X82932121Y-32761656D01*
X82824383Y-32706761D01*
X82824382Y-32706760D01*
X82824379Y-32706759D01*
X82584785Y-32628910D01*
X82335962Y-32589500D01*
X81284038Y-32589500D01*
X81188076Y-32604699D01*
X81035214Y-32628910D01*
X80795616Y-32706760D01*
X80571151Y-32821132D01*
X80367350Y-32969201D01*
X80367345Y-32969205D01*
X80189205Y-33147345D01*
X80189201Y-33147350D01*
X80041132Y-33351151D01*
X79926760Y-33575616D01*
X79848910Y-33815214D01*
X79809500Y-34064038D01*
X76190500Y-34064038D01*
X76190500Y-33588392D01*
X76175300Y-33434066D01*
X76115232Y-33236046D01*
X76017685Y-33053550D01*
X75948462Y-32969201D01*
X75886410Y-32893589D01*
X75741133Y-32774365D01*
X75726450Y-32762315D01*
X75543954Y-32664768D01*
X75345934Y-32604700D01*
X75345932Y-32604699D01*
X75345934Y-32604699D01*
X75226805Y-32592966D01*
X75191608Y-32589500D01*
X73188392Y-32589500D01*
X73150298Y-32593251D01*
X73034067Y-32604699D01*
X72836043Y-32664769D01*
X72758675Y-32706124D01*
X72653550Y-32762315D01*
X72653548Y-32762316D01*
X72653547Y-32762317D01*
X72493589Y-32893589D01*
X72362317Y-33053547D01*
X72264769Y-33236043D01*
X72204699Y-33434067D01*
X72193251Y-33550298D01*
X72189500Y-33588392D01*
X72189500Y-34791608D01*
X72194502Y-34842398D01*
X72204699Y-34945932D01*
X72264769Y-35143958D01*
X72319872Y-35247047D01*
X72320687Y-35250965D01*
X72323308Y-35253989D01*
X72327750Y-35284887D01*
X72334114Y-35315449D01*
X72332682Y-35319185D01*
X72333252Y-35323147D01*
X72320281Y-35351548D01*
X72309114Y-35380693D01*
X72305889Y-35383062D01*
X72304227Y-35386703D01*
X72277962Y-35403581D01*
X72252809Y-35422064D01*
X72247845Y-35422936D01*
X72245449Y-35424477D01*
X72210514Y-35429500D01*
X72112347Y-35429500D01*
X72045308Y-35409815D01*
X72024666Y-35393181D01*
X69534821Y-32903336D01*
X69534819Y-32903334D01*
X69433590Y-32829787D01*
X69369209Y-32783011D01*
X69219553Y-32706759D01*
X69219552Y-32706758D01*
X69203497Y-32698577D01*
X69186819Y-32690080D01*
X69089476Y-32658451D01*
X69065603Y-32650694D01*
X68992135Y-32626822D01*
X68817595Y-32599178D01*
X68789952Y-32594800D01*
X62397051Y-32594800D01*
X62192348Y-32594800D01*
X62129849Y-32604699D01*
X61990163Y-32626823D01*
X61892823Y-32658450D01*
X61892823Y-32658451D01*
X61873382Y-32664768D01*
X61795481Y-32690080D01*
X61762746Y-32706758D01*
X61762747Y-32706759D01*
X61613088Y-32783013D01*
X61447478Y-32903336D01*
X59958590Y-34392223D01*
X59897267Y-34425708D01*
X59890309Y-34427015D01*
X59815217Y-34438909D01*
X59575618Y-34516760D01*
X59351151Y-34631132D01*
X59147350Y-34779201D01*
X59147345Y-34779205D01*
X58969205Y-34957345D01*
X58969201Y-34957350D01*
X58821132Y-35161151D01*
X58706760Y-35385616D01*
X58628910Y-35625214D01*
X58589500Y-35874038D01*
X58589500Y-36125961D01*
X58628910Y-36374785D01*
X58706760Y-36614383D01*
X58821132Y-36838848D01*
X58969201Y-37042649D01*
X58969205Y-37042654D01*
X59147345Y-37220794D01*
X59147350Y-37220798D01*
X59317446Y-37344379D01*
X59351155Y-37368870D01*
X59494184Y-37441747D01*
X59575616Y-37483239D01*
X59575618Y-37483239D01*
X59575621Y-37483241D01*
X59815215Y-37561090D01*
X60064038Y-37600500D01*
X60064039Y-37600500D01*
X60315961Y-37600500D01*
X60315962Y-37600500D01*
X60564785Y-37561090D01*
X60804379Y-37483241D01*
X61028845Y-37368870D01*
X61232656Y-37220793D01*
X61410793Y-37042656D01*
X61558870Y-36838845D01*
X61673241Y-36614379D01*
X61751090Y-36374785D01*
X61762984Y-36299687D01*
X61792911Y-36236557D01*
X61797757Y-36231426D01*
X62797066Y-35232119D01*
X62858389Y-35198634D01*
X62884747Y-35195800D01*
X66221128Y-35195800D01*
X66288167Y-35215485D01*
X66333922Y-35268289D01*
X66343866Y-35337447D01*
X66331611Y-35376097D01*
X66326762Y-35385612D01*
X66326759Y-35385620D01*
X66326759Y-35385621D01*
X66324303Y-35393181D01*
X66248910Y-35625214D01*
X66209500Y-35874038D01*
X66209500Y-36125961D01*
X66248910Y-36374785D01*
X66326760Y-36614383D01*
X66441132Y-36838848D01*
X66589201Y-37042649D01*
X66589205Y-37042654D01*
X66767345Y-37220794D01*
X66767350Y-37220798D01*
X66937446Y-37344379D01*
X66971155Y-37368870D01*
X67114184Y-37441747D01*
X67195616Y-37483239D01*
X67195618Y-37483239D01*
X67195621Y-37483241D01*
X67435215Y-37561090D01*
X67684038Y-37600500D01*
X67684039Y-37600500D01*
X67935961Y-37600500D01*
X67935962Y-37600500D01*
X68184785Y-37561090D01*
X68424379Y-37483241D01*
X68648845Y-37368870D01*
X68852656Y-37220793D01*
X69030793Y-37042656D01*
X69178870Y-36838845D01*
X69293241Y-36614379D01*
X69293243Y-36614374D01*
X69297969Y-36599830D01*
X69337405Y-36542154D01*
X69401764Y-36514955D01*
X69470610Y-36526869D01*
X69503581Y-36550466D01*
X70675081Y-37721966D01*
X70675084Y-37721968D01*
X70707035Y-37745182D01*
X70749701Y-37800512D01*
X70755680Y-37870125D01*
X70723074Y-37931920D01*
X70662236Y-37966277D01*
X70634150Y-37969500D01*
X56050046Y-37969500D01*
X55983007Y-37949815D01*
X55962365Y-37933181D01*
X47986032Y-29956847D01*
X47903223Y-29874038D01*
X52209500Y-29874038D01*
X52209500Y-30125961D01*
X52248910Y-30374785D01*
X52326760Y-30614383D01*
X52441132Y-30838848D01*
X52589201Y-31042649D01*
X52589205Y-31042654D01*
X52767345Y-31220794D01*
X52767350Y-31220798D01*
X52945117Y-31349952D01*
X52971155Y-31368870D01*
X53114184Y-31441747D01*
X53195616Y-31483239D01*
X53195618Y-31483239D01*
X53195621Y-31483241D01*
X53435215Y-31561090D01*
X53684038Y-31600500D01*
X53684039Y-31600500D01*
X53935961Y-31600500D01*
X53935962Y-31600500D01*
X54184785Y-31561090D01*
X54424379Y-31483241D01*
X54564875Y-31411655D01*
X70808071Y-31411655D01*
X76435082Y-31411655D01*
X76435082Y-27994984D01*
X70808071Y-27994984D01*
X70808071Y-31411655D01*
X54564875Y-31411655D01*
X54648845Y-31368870D01*
X54852656Y-31220793D01*
X55030793Y-31042656D01*
X55178870Y-30838845D01*
X55293241Y-30614379D01*
X55371090Y-30374785D01*
X55373170Y-30361655D01*
X61223071Y-30361655D01*
X66850082Y-30361655D01*
X66850082Y-26944984D01*
X61223071Y-26944984D01*
X61223071Y-30361655D01*
X55373170Y-30361655D01*
X55410500Y-30125962D01*
X55410500Y-29874038D01*
X55371090Y-29625215D01*
X55293241Y-29385621D01*
X55293239Y-29385618D01*
X55293239Y-29385616D01*
X55228693Y-29258939D01*
X55178870Y-29161155D01*
X55159952Y-29135117D01*
X55030798Y-28957350D01*
X55030794Y-28957345D01*
X54852654Y-28779205D01*
X54852649Y-28779201D01*
X54648848Y-28631132D01*
X54648847Y-28631131D01*
X54648845Y-28631130D01*
X54578747Y-28595413D01*
X54424383Y-28516760D01*
X54184785Y-28438910D01*
X53935962Y-28399500D01*
X53684038Y-28399500D01*
X53559626Y-28419205D01*
X53435214Y-28438910D01*
X53195616Y-28516760D01*
X52971151Y-28631132D01*
X52767350Y-28779201D01*
X52767345Y-28779205D01*
X52589205Y-28957345D01*
X52589201Y-28957350D01*
X52441132Y-29161151D01*
X52326760Y-29385616D01*
X52248910Y-29625214D01*
X52209500Y-29874038D01*
X47903223Y-29874038D01*
X47797775Y-29768590D01*
X47764290Y-29707267D01*
X47762983Y-29700306D01*
X47751090Y-29625214D01*
X47673239Y-29385616D01*
X47608693Y-29258939D01*
X47558870Y-29161155D01*
X47539952Y-29135117D01*
X47410798Y-28957350D01*
X47410794Y-28957345D01*
X47232654Y-28779205D01*
X47232649Y-28779201D01*
X47028848Y-28631132D01*
X47028847Y-28631131D01*
X47028845Y-28631130D01*
X46958747Y-28595413D01*
X46804383Y-28516760D01*
X46564785Y-28438910D01*
X46315962Y-28399500D01*
X46064038Y-28399500D01*
X45939626Y-28419205D01*
X45815214Y-28438910D01*
X45575616Y-28516760D01*
X45351151Y-28631132D01*
X45147350Y-28779201D01*
X45147345Y-28779205D01*
X44969205Y-28957345D01*
X44969201Y-28957350D01*
X44821132Y-29161151D01*
X44706760Y-29385616D01*
X44628910Y-29625214D01*
X44589500Y-29874038D01*
X39840500Y-29874038D01*
X39840500Y-28455046D01*
X39825368Y-28320745D01*
X39765789Y-28150478D01*
X39669816Y-27997738D01*
X39542262Y-27870184D01*
X39457482Y-27816913D01*
X39389523Y-27774211D01*
X39219254Y-27714631D01*
X39219249Y-27714630D01*
X39084960Y-27699500D01*
X39084954Y-27699500D01*
X35995046Y-27699500D01*
X35995039Y-27699500D01*
X35860750Y-27714630D01*
X35860745Y-27714631D01*
X35690476Y-27774211D01*
X35537737Y-27870184D01*
X35410184Y-27997737D01*
X35314211Y-28150476D01*
X35254631Y-28320745D01*
X35254630Y-28320750D01*
X35239500Y-28455039D01*
X34168439Y-28455039D01*
X33980085Y-28266685D01*
X33980078Y-28266679D01*
X33740831Y-28083099D01*
X33479671Y-27932318D01*
X33479661Y-27932314D01*
X33201060Y-27816913D01*
X32909766Y-27738861D01*
X32610793Y-27699501D01*
X32610788Y-27699500D01*
X32610783Y-27699500D01*
X32309217Y-27699500D01*
X32309211Y-27699500D01*
X32309206Y-27699501D01*
X32010233Y-27738861D01*
X31718939Y-27816913D01*
X31440338Y-27932314D01*
X31440328Y-27932318D01*
X31179168Y-28083099D01*
X30939921Y-28266679D01*
X30939914Y-28266685D01*
X30726685Y-28479914D01*
X30726679Y-28479921D01*
X30543099Y-28719168D01*
X30392318Y-28980328D01*
X30392314Y-28980338D01*
X30276913Y-29258939D01*
X30198861Y-29550233D01*
X30159501Y-29849206D01*
X30159500Y-29849223D01*
X20500500Y-29849223D01*
X20500500Y-26911655D01*
X47223071Y-26911655D01*
X52848357Y-26911655D01*
X52848357Y-26910553D01*
X87863225Y-26910553D01*
X92134072Y-26910553D01*
X92134072Y-23494984D01*
X87863225Y-23494984D01*
X87863225Y-26910553D01*
X52848357Y-26910553D01*
X52848357Y-23874038D01*
X58589500Y-23874038D01*
X58589500Y-24125961D01*
X58628910Y-24374785D01*
X58706760Y-24614383D01*
X58821132Y-24838848D01*
X58969201Y-25042649D01*
X58969205Y-25042654D01*
X59147345Y-25220794D01*
X59147350Y-25220798D01*
X59325117Y-25349952D01*
X59351155Y-25368870D01*
X59494184Y-25441747D01*
X59575616Y-25483239D01*
X59575618Y-25483239D01*
X59575621Y-25483241D01*
X59815215Y-25561090D01*
X60064038Y-25600500D01*
X60064039Y-25600500D01*
X60315961Y-25600500D01*
X60315962Y-25600500D01*
X60564785Y-25561090D01*
X60804379Y-25483241D01*
X61028845Y-25368870D01*
X61232656Y-25220793D01*
X61410793Y-25042656D01*
X61558870Y-24838845D01*
X61673241Y-24614379D01*
X61751090Y-24374785D01*
X61790500Y-24125962D01*
X61790500Y-23874038D01*
X66209500Y-23874038D01*
X66209500Y-24125961D01*
X66248910Y-24374785D01*
X66326760Y-24614383D01*
X66441132Y-24838848D01*
X66589201Y-25042649D01*
X66589205Y-25042654D01*
X66767345Y-25220794D01*
X66767350Y-25220798D01*
X66945117Y-25349952D01*
X66971155Y-25368870D01*
X67114184Y-25441747D01*
X67195616Y-25483239D01*
X67195618Y-25483239D01*
X67195621Y-25483241D01*
X67435215Y-25561090D01*
X67684038Y-25600500D01*
X67684039Y-25600500D01*
X67935961Y-25600500D01*
X67935962Y-25600500D01*
X68184785Y-25561090D01*
X68424379Y-25483241D01*
X68648845Y-25368870D01*
X68852656Y-25220793D01*
X69030793Y-25042656D01*
X69178870Y-24838845D01*
X69293241Y-24614379D01*
X69371090Y-24374785D01*
X69410500Y-24125962D01*
X69410500Y-23874038D01*
X69371090Y-23625215D01*
X69293241Y-23385621D01*
X69293239Y-23385618D01*
X69293239Y-23385616D01*
X69251747Y-23304184D01*
X69178870Y-23161155D01*
X69159952Y-23135117D01*
X69030798Y-22957350D01*
X69030794Y-22957345D01*
X68852654Y-22779205D01*
X68852649Y-22779201D01*
X68648848Y-22631132D01*
X68648847Y-22631131D01*
X68648845Y-22631130D01*
X68578747Y-22595413D01*
X68424383Y-22516760D01*
X68184785Y-22438910D01*
X67935962Y-22399500D01*
X67684038Y-22399500D01*
X67559626Y-22419205D01*
X67435214Y-22438910D01*
X67195616Y-22516760D01*
X66971151Y-22631132D01*
X66767350Y-22779201D01*
X66767345Y-22779205D01*
X66589205Y-22957345D01*
X66589201Y-22957350D01*
X66441132Y-23161151D01*
X66326760Y-23385616D01*
X66248910Y-23625214D01*
X66209500Y-23874038D01*
X61790500Y-23874038D01*
X61751090Y-23625215D01*
X61673241Y-23385621D01*
X61673239Y-23385618D01*
X61673239Y-23385616D01*
X61631747Y-23304184D01*
X61558870Y-23161155D01*
X61539952Y-23135117D01*
X61410798Y-22957350D01*
X61410794Y-22957345D01*
X61232654Y-22779205D01*
X61232649Y-22779201D01*
X61028848Y-22631132D01*
X61028847Y-22631131D01*
X61028845Y-22631130D01*
X60958747Y-22595413D01*
X60804383Y-22516760D01*
X60564785Y-22438910D01*
X60315962Y-22399500D01*
X60064038Y-22399500D01*
X59939626Y-22419205D01*
X59815214Y-22438910D01*
X59575616Y-22516760D01*
X59351151Y-22631132D01*
X59147350Y-22779201D01*
X59147345Y-22779205D01*
X58969205Y-22957345D01*
X58969201Y-22957350D01*
X58821132Y-23161151D01*
X58706760Y-23385616D01*
X58628910Y-23625214D01*
X58589500Y-23874038D01*
X52848357Y-23874038D01*
X52848357Y-23494984D01*
X47223071Y-23494984D01*
X47223071Y-26911655D01*
X20500500Y-26911655D01*
X20500500Y-25910553D01*
X32973071Y-25910553D01*
X36955500Y-25910553D01*
X36955500Y-22494984D01*
X32973071Y-22494984D01*
X32973071Y-25910553D01*
X20500500Y-25910553D01*
X20500500Y-20624500D01*
X20520185Y-20557461D01*
X20572989Y-20511706D01*
X20624500Y-20500500D01*
X123375500Y-20500500D01*
X123442539Y-20520185D01*
G37*
%TD.AperFunction*%
M02*
