M48
; DRILL file {KiCad 9.0.4} date 2026-06-10T15:27:48+0200
; FORMAT={-:-/ absolute / metric / decimal}
; #@! TF.CreationDate,2026-06-10T15:27:48+02:00
; #@! TF.GenerationSoftware,Kicad,Pcbnew,9.0.4
; #@! TF.FileFunction,MixedPlating,1,2
FMAT,2
METRIC
; #@! TA.AperFunction,Plated,PTH,ComponentDrill
T1C0.800
; #@! TA.AperFunction,Plated,PTH,ComponentDrill
T2C1.000
; #@! TA.AperFunction,Plated,PTH,ComponentDrill
T3C1.520
%
G90
G05
T1
X46.19Y-30.0
X46.19Y-50.0
X46.19Y-70.0
X53.81Y-30.0
X53.81Y-50.0
X53.81Y-70.0
X60.19Y-24.0
X60.19Y-36.0
X60.19Y-44.0
X60.19Y-56.0
X60.19Y-64.0
X60.19Y-76.0
X67.81Y-24.0
X67.81Y-36.0
X67.81Y-44.0
X67.81Y-56.0
X67.81Y-64.0
X67.81Y-76.0
X74.19Y-34.19
X74.19Y-36.73
X74.19Y-39.27
X74.19Y-41.81
X74.19Y-58.19
X74.19Y-60.73
X74.19Y-63.27
X74.19Y-65.81
X81.81Y-34.19
X81.81Y-36.73
X81.81Y-39.27
X81.81Y-41.81
X81.81Y-58.19
X81.81Y-60.73
X81.81Y-63.27
X81.81Y-65.81
X87.5Y-30.0
X87.5Y-54.0
X92.5Y-30.0
X92.5Y-54.0
T2
X109.0Y-44.92
X109.0Y-47.46
X109.0Y-50.0
X109.0Y-52.54
X109.0Y-55.08
T3
X32.46Y-30.0
X32.46Y-50.0
X32.46Y-70.0
X37.54Y-30.0
X37.54Y-50.0
X37.54Y-70.0
M30
