  0
SECTION
  2
HEADER
  9
$ANGBASE
  50
0.0
  9
$ANGDIR
  70
1
  9
$MEASUREMENT
  70
1
  0
ENDSEC
  0
SECTION
  2
TABLES
  0
TABLE
  2
LTYPE
  70
4
  0
LTYPE
  5
40F
  2
CONTINUOUS
  70
0
  3
Solid line
  72
65
  73
0
  40
0.0
  0
LTYPE
  5
410
  2
DASHDOT
 70
0
  3
Dash Dot ____ _ ____ _
 72
65
 73
4
 40
2.0
 49
1.25
 49
-0.25
 49
0.25
 49
-0.25
  0
LTYPE
  5
411
  2
DASHED
 70
0
  3
Dashed __ __ __ __ __
 72
65
 73
2
 40
0.75
 49
0.5
 49
-0.25
  0
LTYPE
  5
43B
  2
DOTTED
 70
0
  3
Dotted .  .  .  .
 72
65
 73
2
 40
0.2
 49
0.0
 49
-0.2
  0
ENDTAB
  0
TABLE
  2
STYLE
  70
4
  0
STYLE
  2
KICAD
  70
0
  40
0
  41
1
  42
1
  50
0
  71
0
  3
isocp.shx
  0
STYLE
  2
KICADB
  70
0
  40
0
  41
1
  42
1
  50
0
  71
0
  3
isocp.shx
  0
STYLE
  2
KICADI
  70
0
  40
0
  41
1
  42
1
  50
15
  71
0
  3
isocp.shx
  0
STYLE
  2
KICADBI
  70
0
  40
0
  41
1
  42
1
  50
15
  71
0
  3
isocp.shx
  0
ENDTAB
  0
TABLE
  2
LAYER
  70
35
  0
LAYER
  2
BLACK
  70
0
  62
7
  6
CONTINUOUS
  0
LAYER
  2
GRAY1
  70
0
  62
251
  6
CONTINUOUS
  0
LAYER
  2
GRAY2
  70
0
  62
8
  6
CONTINUOUS
  0
LAYER
  2
GRAY3
  70
0
  62
9
  6
CONTINUOUS
  0
LAYER
  2
WHITE
  70
0
  62
7
  6
CONTINUOUS
  0
LAYER
  2
LYELLOW
  70
0
  62
51
  6
CONTINUOUS
  0
LAYER
  2
LORANGE
  70
0
  62
41
  6
CONTINUOUS
  0
LAYER
  2
BLUE1
  70
0
  62
178
  6
CONTINUOUS
  0
LAYER
  2
GREEN1
  70
0
  62
98
  6
CONTINUOUS
  0
LAYER
  2
CYAN1
  70
0
  62
138
  6
CONTINUOUS
  0
LAYER
  2
RED1
  70
0
  62
18
  6
CONTINUOUS
  0
LAYER
  2
MAGENTA1
  70
0
  62
228
  6
CONTINUOUS
  0
LAYER
  2
BROWN1
  70
0
  62
58
  6
CONTINUOUS
  0
LAYER
  2
ORANGE1
  70
0
  62
34
  6
CONTINUOUS
  0
LAYER
  2
BLUE2
  70
0
  62
5
  6
CONTINUOUS
  0
LAYER
  2
GREEN2
  70
0
  62
3
  6
CONTINUOUS
  0
LAYER
  2
CYAN2
  70
0
  62
4
  6
CONTINUOUS
  0
LAYER
  2
RED2
  70
0
  62
1
  6
CONTINUOUS
  0
LAYER
  2
MAGENTA2
  70
0
  62
6
  6
CONTINUOUS
  0
LAYER
  2
BROWN2
  70
0
  62
54
  6
CONTINUOUS
  0
LAYER
  2
ORANGE2
  70
0
  62
42
  6
CONTINUOUS
  0
LAYER
  2
BLUE3
  70
0
  62
171
  6
CONTINUOUS
  0
LAYER
  2
GREEN3
  70
0
  62
91
  6
CONTINUOUS
  0
LAYER
  2
CYAN3
  70
0
  62
131
  6
CONTINUOUS
  0
LAYER
  2
RED3
  70
0
  62
11
  6
CONTINUOUS
  0
LAYER
  2
MAGENTA3
  70
0
  62
221
  6
CONTINUOUS
  0
LAYER
  2
YELLOW3
  70
0
  62
2
  6
CONTINUOUS
  0
LAYER
  2
ORANGE3
  70
0
  62
32
  6
CONTINUOUS
  0
LAYER
  2
BLUE4
  70
0
  62
5
  6
CONTINUOUS
  0
LAYER
  2
GREEN4
  70
0
  62
3
  6
CONTINUOUS
  0
LAYER
  2
CYAN4
  70
0
  62
4
  6
CONTINUOUS
  0
LAYER
  2
RED4
  70
0
  62
1
  6
CONTINUOUS
  0
LAYER
  2
MAGENTA4
  70
0
  62
6
  6
CONTINUOUS
  0
LAYER
  2
YELLOW4
  70
0
  62
2
  6
CONTINUOUS
  0
LAYER
  2
ORANGE4
  70
0
  62
40
  6
CONTINUOUS
  0
ENDTAB
  0
ENDSEC
  0
SECTION
  2
ENTITIES
0
LINE
8
WHITE
6
CONTINUOUS
10
33.5
20
-56.
11
116.5
21
-56.
0
LINE
8
WHITE
6
CONTINUOUS
10
116.5
20
-56.
11
116.5
21
-125.5
0
LINE
8
WHITE
6
CONTINUOUS
10
116.5
20
-125.5
11
33.5
21
-125.5
0
LINE
8
WHITE
6
CONTINUOUS
10
33.5
20
-125.5
11
33.5
21
-56.
0
CIRCLE
8
BLACK
10
78.
20
-90.
40
0.4
0
CIRCLE
8
BLACK
10
81.5
20
-90.
40
0.4
0
CIRCLE
8
BLACK
10
52.
20
-99.5
40
0.5499999999999999
0
CIRCLE
8
BLACK
10
49.4600000000000009
20
-99.5
40
0.5499999999999999
0
CIRCLE
8
BLACK
10
46.9199999999999946
20
-99.5
40
0.5499999999999999
0
CIRCLE
8
BLACK
10
90.7349999999999994
20
-105.5
40
0.4
0
CIRCLE
8
BLACK
10
98.3549999999999898
20
-105.5
40
0.4
0
CIRCLE
8
BLACK
10
60.4624999999999986
20
-117.
40
0.5
0
CIRCLE
8
BLACK
10
63.0024999999999977
20
-117.
40
0.5
0
CIRCLE
8
BLACK
10
89.4200000000000017
20
-99.
40
0.5499999999999999
0
CIRCLE
8
BLACK
10
99.5799999999999983
20
-99.
40
0.5499999999999999
0
CIRCLE
8
BLACK
10
77.1666999999999916
20
-98.5
40
0.4
0
CIRCLE
8
BLACK
10
82.1666999999999916
20
-98.5
40
0.4
0
CIRCLE
8
BLACK
10
75.7967000000000013
20
-105.5
40
0.4
0
CIRCLE
8
BLACK
10
83.4166999999999916
20
-105.5
40
0.4
0
CIRCLE
8
BLACK
10
85.977499999999992
20
-117.
40
0.76
0
CIRCLE
8
BLACK
10
91.0574999999999903
20
-117.
40
0.76
0
CIRCLE
8
BLACK
10
106.5
20
-101.84729999999999
40
0.4
0
CIRCLE
8
BLACK
10
106.5
20
-105.34729999999999
40
0.4
0
CIRCLE
8
BLACK
10
69.9132999999999925
20
-99.
40
0.5499999999999999
0
CIRCLE
8
BLACK
10
59.7532999999999959
20
-99.
40
0.5499999999999999
0
CIRCLE
8
BLACK
10
89.9599999999999937
20
-92.
40
0.4
0
CIRCLE
8
BLACK
10
92.5
20
-92.
40
0.4
0
CIRCLE
8
BLACK
10
95.039999999999992
20
-92.
40
0.4
0
CIRCLE
8
BLACK
10
97.5799999999999983
20
-92.
40
0.4
0
CIRCLE
8
BLACK
10
100.1199999999999903
20
-92.
40
0.4
0
CIRCLE
8
BLACK
10
102.6599999999999966
20
-92.
40
0.4
0
CIRCLE
8
BLACK
10
105.1999999999999886
20
-92.
40
0.4
0
CIRCLE
8
BLACK
10
105.1999999999999886
20
-84.3799999999999955
40
0.4
0
CIRCLE
8
BLACK
10
102.6599999999999966
20
-84.3799999999999955
40
0.4
0
CIRCLE
8
BLACK
10
100.1199999999999903
20
-84.3799999999999955
40
0.4
0
CIRCLE
8
BLACK
10
97.5799999999999983
20
-84.3799999999999955
40
0.4
0
CIRCLE
8
BLACK
10
95.039999999999992
20
-84.3799999999999955
40
0.4
0
CIRCLE
8
BLACK
10
92.5
20
-84.3799999999999955
40
0.4
0
CIRCLE
8
BLACK
10
89.9599999999999937
20
-84.3799999999999955
40
0.4
0
CIRCLE
8
BLACK
10
102.
20
-117.
40
0.76
0
CIRCLE
8
BLACK
10
96.9200000000000017
20
-117.
40
0.76
0
CIRCLE
8
BLACK
10
53.5
20
-106.
40
0.4
0
CIRCLE
8
BLACK
10
45.8799999999999955
20
-106.
40
0.4
0
CIRCLE
8
BLACK
10
60.8582999999999998
20
-105.5
40
0.4
0
CIRCLE
8
BLACK
10
68.4782999999999902
20
-105.5
40
0.4
0
CIRCLE
8
BLACK
10
70.2150000000000034
20
-114.4599999999999937
40
0.4
0
CIRCLE
8
BLACK
10
70.2150000000000034
20
-117.
40
0.4
0
CIRCLE
8
BLACK
10
70.2150000000000034
20
-119.539999999999992
40
0.4
0
CIRCLE
8
BLACK
10
77.8349999999999937
20
-119.539999999999992
40
0.4
0
CIRCLE
8
BLACK
10
77.8349999999999937
20
-117.
40
0.4
0
CIRCLE
8
BLACK
10
77.8349999999999937
20
-114.4599999999999937
40
0.4
0
CIRCLE
8
BLACK
10
42.7999999999999972
20
-75.5
40
1.
0
CIRCLE
8
BLACK
10
71.
20
-75.5
40
1.
0
CIRCLE
8
BLACK
10
46.9199999999999946
20
-117.
40
0.76
0
CIRCLE
8
BLACK
10
52.
20
-117.
40
0.76
  0
ENDSEC
  0
EOF
