  0
SECTION
  2
HEADER
  9
$ANGBASE
  50
0.0
  9
$ANGDIR
  70
1
  9
$MEASUREMENT
  70
1
  0
ENDSEC
  0
SECTION
  2
TABLES
  0
TABLE
  2
LTYPE
  70
4
  0
LTYPE
  5
40F
  2
CONTINUOUS
  70
0
  3
Solid line
  72
65
  73
0
  40
0.0
  0
LTYPE
  5
410
  2
DASHDOT
 70
0
  3
Dash Dot ____ _ ____ _
 72
65
 73
4
 40
2.0
 49
1.25
 49
-0.25
 49
0.25
 49
-0.25
  0
LTYPE
  5
411
  2
DASHED
 70
0
  3
Dashed __ __ __ __ __
 72
65
 73
2
 40
0.75
 49
0.5
 49
-0.25
  0
LTYPE
  5
43B
  2
DOTTED
 70
0
  3
Dotted .  .  .  .
 72
65
 73
2
 40
0.2
 49
0.0
 49
-0.2
  0
ENDTAB
  0
TABLE
  2
STYLE
  70
4
  0
STYLE
  2
KICAD
  70
0
  40
0
  41
1
  42
1
  50
0
  71
0
  3
isocp.shx
  0
STYLE
  2
KICADB
  70
0
  40
0
  41
1
  42
1
  50
0
  71
0
  3
isocp.shx
  0
STYLE
  2
KICADI
  70
0
  40
0
  41
1
  42
1
  50
15
  71
0
  3
isocp.shx
  0
STYLE
  2
KICADBI
  70
0
  40
0
  41
1
  42
1
  50
15
  71
0
  3
isocp.shx
  0
ENDTAB
  0
TABLE
  2
LAYER
  70
35
  0
LAYER
  2
BLACK
  70
0
  62
7
  6
CONTINUOUS
  0
LAYER
  2
GRAY1
  70
0
  62
251
  6
CONTINUOUS
  0
LAYER
  2
GRAY2
  70
0
  62
8
  6
CONTINUOUS
  0
LAYER
  2
GRAY3
  70
0
  62
9
  6
CONTINUOUS
  0
LAYER
  2
WHITE
  70
0
  62
7
  6
CONTINUOUS
  0
LAYER
  2
LYELLOW
  70
0
  62
51
  6
CONTINUOUS
  0
LAYER
  2
LORANGE
  70
0
  62
41
  6
CONTINUOUS
  0
LAYER
  2
BLUE1
  70
0
  62
178
  6
CONTINUOUS
  0
LAYER
  2
GREEN1
  70
0
  62
98
  6
CONTINUOUS
  0
LAYER
  2
CYAN1
  70
0
  62
138
  6
CONTINUOUS
  0
LAYER
  2
RED1
  70
0
  62
18
  6
CONTINUOUS
  0
LAYER
  2
MAGENTA1
  70
0
  62
228
  6
CONTINUOUS
  0
LAYER
  2
BROWN1
  70
0
  62
58
  6
CONTINUOUS
  0
LAYER
  2
ORANGE1
  70
0
  62
34
  6
CONTINUOUS
  0
LAYER
  2
BLUE2
  70
0
  62
5
  6
CONTINUOUS
  0
LAYER
  2
GREEN2
  70
0
  62
3
  6
CONTINUOUS
  0
LAYER
  2
CYAN2
  70
0
  62
4
  6
CONTINUOUS
  0
LAYER
  2
RED2
  70
0
  62
1
  6
CONTINUOUS
  0
LAYER
  2
MAGENTA2
  70
0
  62
6
  6
CONTINUOUS
  0
LAYER
  2
BROWN2
  70
0
  62
54
  6
CONTINUOUS
  0
LAYER
  2
ORANGE2
  70
0
  62
42
  6
CONTINUOUS
  0
LAYER
  2
BLUE3
  70
0
  62
171
  6
CONTINUOUS
  0
LAYER
  2
GREEN3
  70
0
  62
91
  6
CONTINUOUS
  0
LAYER
  2
CYAN3
  70
0
  62
131
  6
CONTINUOUS
  0
LAYER
  2
RED3
  70
0
  62
11
  6
CONTINUOUS
  0
LAYER
  2
MAGENTA3
  70
0
  62
221
  6
CONTINUOUS
  0
LAYER
  2
YELLOW3
  70
0
  62
2
  6
CONTINUOUS
  0
LAYER
  2
ORANGE3
  70
0
  62
32
  6
CONTINUOUS
  0
LAYER
  2
BLUE4
  70
0
  62
5
  6
CONTINUOUS
  0
LAYER
  2
GREEN4
  70
0
  62
3
  6
CONTINUOUS
  0
LAYER
  2
CYAN4
  70
0
  62
4
  6
CONTINUOUS
  0
LAYER
  2
RED4
  70
0
  62
1
  6
CONTINUOUS
  0
LAYER
  2
MAGENTA4
  70
0
  62
6
  6
CONTINUOUS
  0
LAYER
  2
YELLOW4
  70
0
  62
2
  6
CONTINUOUS
  0
LAYER
  2
ORANGE4
  70
0
  62
40
  6
CONTINUOUS
  0
ENDTAB
  0
ENDSEC
  0
SECTION
  2
ENTITIES
0
LINE
8
LYELLOW
6
CONTINUOUS
10
78.1877329999999944
20
-84.797079999999994
11
78.140113999999997
21
-84.8447000000000031
0
LINE
8
LYELLOW
6
CONTINUOUS
10
78.140113999999997
20
-84.8447000000000031
11
77.9972569999999905
21
-84.8923190000000005
0
LINE
8
LYELLOW
6
CONTINUOUS
10
77.9972569999999905
20
-84.8923190000000005
11
77.9020189999999957
21
-84.8923190000000005
0
LINE
8
LYELLOW
6
CONTINUOUS
10
77.9020189999999957
20
-84.8923190000000005
11
77.7591620000000034
21
-84.8447000000000031
0
LINE
8
LYELLOW
6
CONTINUOUS
10
77.7591620000000034
20
-84.8447000000000031
11
77.6639239999999944
21
-84.7494609999999966
0
LINE
8
LYELLOW
6
CONTINUOUS
10
77.6639239999999944
20
-84.7494609999999966
11
77.616304999999997
21
-84.6542230000000018
0
LINE
8
LYELLOW
6
CONTINUOUS
10
77.616304999999997
20
-84.6542230000000018
11
77.5686859999999996
21
-84.4637469999999979
0
LINE
8
LYELLOW
6
CONTINUOUS
10
77.5686859999999996
20
-84.4637469999999979
11
77.5686859999999996
21
-84.3208899999999915
0
LINE
8
LYELLOW
6
CONTINUOUS
10
77.5686859999999996
20
-84.3208899999999915
11
77.616304999999997
21
-84.1304140000000018
0
LINE
8
LYELLOW
6
CONTINUOUS
10
77.616304999999997
20
-84.1304140000000018
11
77.6639239999999944
21
-84.0351759999999928
0
LINE
8
LYELLOW
6
CONTINUOUS
10
77.6639239999999944
20
-84.0351759999999928
11
77.7591620000000034
21
-83.9399379999999979
0
LINE
8
LYELLOW
6
CONTINUOUS
10
77.7591620000000034
20
-83.9399379999999979
11
77.9020189999999957
21
-83.8923190000000005
0
LINE
8
LYELLOW
6
CONTINUOUS
10
77.9020189999999957
20
-83.8923190000000005
11
77.9972569999999905
21
-83.8923190000000005
0
LINE
8
LYELLOW
6
CONTINUOUS
10
77.9972569999999905
20
-83.8923190000000005
11
78.140113999999997
21
-83.9399379999999979
0
LINE
8
LYELLOW
6
CONTINUOUS
10
78.140113999999997
20
-83.9399379999999979
11
78.1877329999999944
21
-83.9875569999999954
0
LINE
8
LYELLOW
6
CONTINUOUS
10
78.5686859999999996
20
-83.9875569999999954
11
78.616304999999997
21
-83.9399379999999979
0
LINE
8
LYELLOW
6
CONTINUOUS
10
78.616304999999997
20
-83.9399379999999979
11
78.7115429999999918
21
-83.8923190000000005
0
LINE
8
LYELLOW
6
CONTINUOUS
10
78.7115429999999918
20
-83.8923190000000005
11
78.9496379999999931
21
-83.8923190000000005
0
LINE
8
LYELLOW
6
CONTINUOUS
10
78.9496379999999931
20
-83.8923190000000005
11
79.0448760000000021
21
-83.9399379999999979
0
LINE
8
LYELLOW
6
CONTINUOUS
10
79.0448760000000021
20
-83.9399379999999979
11
79.0924949999999995
21
-83.9875569999999954
0
LINE
8
LYELLOW
6
CONTINUOUS
10
79.0924949999999995
20
-83.9875569999999954
11
79.140113999999997
21
-84.0827949999999902
0
LINE
8
LYELLOW
6
CONTINUOUS
10
79.140113999999997
20
-84.0827949999999902
11
79.140113999999997
21
-84.1780329999999992
0
LINE
8
LYELLOW
6
CONTINUOUS
10
79.140113999999997
20
-84.1780329999999992
11
79.0924949999999995
21
-84.3208899999999915
0
LINE
8
LYELLOW
6
CONTINUOUS
10
79.0924949999999995
20
-84.3208899999999915
11
78.5210670000000022
21
-84.8923190000000005
0
LINE
8
LYELLOW
6
CONTINUOUS
10
78.5210670000000022
20
-84.8923190000000005
11
79.140113999999997
21
-84.8923190000000005
0
LINE
8
LYELLOW
6
CONTINUOUS
10
49.0354759999999956
20
-101.6423190000000005
11
49.0354759999999956
21
-100.6423190000000005
0
LINE
8
LYELLOW
6
CONTINUOUS
10
49.0354759999999956
20
-100.6423190000000005
11
49.3688089999999988
21
-101.3566039999999902
0
LINE
8
LYELLOW
6
CONTINUOUS
10
49.3688089999999988
20
-101.3566039999999902
11
49.7021419999999949
21
-100.6423190000000005
0
LINE
8
LYELLOW
6
CONTINUOUS
10
49.7021419999999949
20
-100.6423190000000005
11
49.7021419999999949
21
-101.6423190000000005
0
LINE
8
LYELLOW
6
CONTINUOUS
10
50.7021419999999949
20
-101.6423190000000005
11
50.1307139999999976
21
-101.6423190000000005
0
LINE
8
LYELLOW
6
CONTINUOUS
10
50.4164279999999962
20
-101.6423190000000005
11
50.4164279999999962
21
-100.6423190000000005
0
LINE
8
LYELLOW
6
CONTINUOUS
10
50.4164279999999962
20
-100.6423190000000005
11
50.3211899999999943
21
-100.7851759999999928
0
LINE
8
LYELLOW
6
CONTINUOUS
10
50.3211899999999943
20
-100.7851759999999928
11
50.2259519999999995
21
-100.8804140000000018
0
LINE
8
LYELLOW
6
CONTINUOUS
10
50.2259519999999995
20
-100.8804140000000018
11
50.1307139999999976
21
-100.9280329999999992
0
LINE
8
LYELLOW
6
CONTINUOUS
10
94.3783329999999978
20
-102.4223190000000017
11
94.0450000000000017
21
-101.9461280000000016
0
LINE
8
LYELLOW
6
CONTINUOUS
10
93.8069050000000004
20
-102.4223190000000017
11
93.8069050000000004
21
-101.4223190000000017
0
LINE
8
LYELLOW
6
CONTINUOUS
10
93.8069050000000004
20
-101.4223190000000017
11
94.1878569999999939
21
-101.4223190000000017
0
LINE
8
LYELLOW
6
CONTINUOUS
10
94.1878569999999939
20
-101.4223190000000017
11
94.2830949999999888
21
-101.4699379999999991
0
LINE
8
LYELLOW
6
CONTINUOUS
10
94.2830949999999888
20
-101.4699379999999991
11
94.3307140000000004
21
-101.5175569999999965
0
LINE
8
LYELLOW
6
CONTINUOUS
10
94.3307140000000004
20
-101.5175569999999965
11
94.3783329999999978
21
-101.6127949999999913
0
LINE
8
LYELLOW
6
CONTINUOUS
10
94.3783329999999978
20
-101.6127949999999913
11
94.3783329999999978
21
-101.7556519999999978
0
LINE
8
LYELLOW
6
CONTINUOUS
10
94.3783329999999978
20
-101.7556519999999978
11
94.3307140000000004
21
-101.8508899999999926
0
LINE
8
LYELLOW
6
CONTINUOUS
10
94.3307140000000004
20
-101.8508899999999926
11
94.2830949999999888
21
-101.89850899999999
0
LINE
8
LYELLOW
6
CONTINUOUS
10
94.2830949999999888
20
-101.89850899999999
11
94.1878569999999939
21
-101.9461280000000016
0
LINE
8
LYELLOW
6
CONTINUOUS
10
94.1878569999999939
20
-101.9461280000000016
11
93.8069050000000004
21
-101.9461280000000016
0
LINE
8
LYELLOW
6
CONTINUOUS
10
94.7116669999999914
20
-101.4223190000000017
11
95.3307140000000004
21
-101.4223190000000017
0
LINE
8
LYELLOW
6
CONTINUOUS
10
95.3307140000000004
20
-101.4223190000000017
11
94.9973809999999901
21
-101.8032709999999952
0
LINE
8
LYELLOW
6
CONTINUOUS
10
94.9973809999999901
20
-101.8032709999999952
11
95.1402379999999965
21
-101.8032709999999952
0
LINE
8
LYELLOW
6
CONTINUOUS
10
95.1402379999999965
20
-101.8032709999999952
11
95.2354759999999914
21
-101.8508899999999926
0
LINE
8
LYELLOW
6
CONTINUOUS
10
95.2354759999999914
20
-101.8508899999999926
11
95.2830949999999888
21
-101.89850899999999
0
LINE
8
LYELLOW
6
CONTINUOUS
10
95.2830949999999888
20
-101.89850899999999
11
95.3307140000000004
21
-101.993746999999999
0
LINE
8
LYELLOW
6
CONTINUOUS
10
95.3307140000000004
20
-101.993746999999999
11
95.3307140000000004
21
-102.2318420000000003
0
LINE
8
LYELLOW
6
CONTINUOUS
10
95.3307140000000004
20
-102.2318420000000003
11
95.2830949999999888
21
-102.3270799999999952
0
LINE
8
LYELLOW
6
CONTINUOUS
10
95.2830949999999888
20
-102.3270799999999952
11
95.2354759999999914
21
-102.37469999999999
0
LINE
8
LYELLOW
6
CONTINUOUS
10
95.2354759999999914
20
-102.37469999999999
11
95.1402379999999965
21
-102.4223190000000017
0
LINE
8
LYELLOW
6
CONTINUOUS
10
95.1402379999999965
20
-102.4223190000000017
11
94.8545239999999978
21
-102.4223190000000017
0
LINE
8
LYELLOW
6
CONTINUOUS
10
94.8545239999999978
20
-102.4223190000000017
11
94.7592859999999888
21
-102.37469999999999
0
LINE
8
LYELLOW
6
CONTINUOUS
10
94.7592859999999888
20
-102.37469999999999
11
94.7116669999999914
21
-102.3270799999999952
0
LINE
8
LYELLOW
6
CONTINUOUS
10
28.7366659999999996
20
-50.3223190000000002
11
28.7366659999999996
21
-51.036603999999997
0
LINE
8
LYELLOW
6
CONTINUOUS
10
28.7366659999999996
20
-51.036603999999997
11
28.6890469999999986
21
-51.1794609999999963
0
LINE
8
LYELLOW
6
CONTINUOUS
10
28.6890469999999986
20
-51.1794609999999963
11
28.5938090000000003
21
-51.2746999999999957
0
LINE
8
LYELLOW
6
CONTINUOUS
10
28.5938090000000003
20
-51.2746999999999957
11
28.4509519999999974
21
-51.3223190000000002
0
LINE
8
LYELLOW
6
CONTINUOUS
10
28.4509519999999974
20
-51.3223190000000002
11
28.355713999999999
21
-51.3223190000000002
0
LINE
8
LYELLOW
6
CONTINUOUS
10
29.1176189999999977
20
-50.3223190000000002
11
29.7366659999999996
21
-50.3223190000000002
0
LINE
8
LYELLOW
6
CONTINUOUS
10
29.7366659999999996
20
-50.3223190000000002
11
29.4033329999999999
21
-50.7032710000000009
0
LINE
8
LYELLOW
6
CONTINUOUS
10
29.4033329999999999
20
-50.7032710000000009
11
29.5461899999999993
21
-50.7032710000000009
0
LINE
8
LYELLOW
6
CONTINUOUS
10
29.5461899999999993
20
-50.7032710000000009
11
29.6414279999999977
21
-50.7508899999999983
0
LINE
8
LYELLOW
6
CONTINUOUS
10
29.6414279999999977
20
-50.7508899999999983
11
29.6890469999999986
21
-50.7985089999999957
0
LINE
8
LYELLOW
6
CONTINUOUS
10
29.6890469999999986
20
-50.7985089999999957
11
29.7366659999999996
21
-50.8937469999999976
0
LINE
8
LYELLOW
6
CONTINUOUS
10
29.7366659999999996
20
-50.8937469999999976
11
29.7366659999999996
21
-51.1318419999999989
0
LINE
8
LYELLOW
6
CONTINUOUS
10
29.7366659999999996
20
-51.1318419999999989
11
29.6890469999999986
21
-51.2270800000000008
0
LINE
8
LYELLOW
6
CONTINUOUS
10
29.6890469999999986
20
-51.2270800000000008
11
29.6414279999999977
21
-51.2746999999999957
0
LINE
8
LYELLOW
6
CONTINUOUS
10
29.6414279999999977
20
-51.2746999999999957
11
29.5461899999999993
21
-51.3223190000000002
0
LINE
8
LYELLOW
6
CONTINUOUS
10
29.5461899999999993
20
-51.3223190000000002
11
29.260475999999997
21
-51.3223190000000002
0
LINE
8
LYELLOW
6
CONTINUOUS
10
29.260475999999997
20
-51.3223190000000002
11
29.1652379999999987
21
-51.2746999999999957
0
LINE
8
LYELLOW
6
CONTINUOUS
10
29.1652379999999987
20
-51.2746999999999957
11
29.1176189999999977
21
-51.2270800000000008
0
LINE
8
LYELLOW
6
CONTINUOUS
10
68.196905000000001
20
-36.272318999999996
11
68.196905000000001
21
-35.272318999999996
0
LINE
8
LYELLOW
6
CONTINUOUS
10
68.196905000000001
20
-35.272318999999996
11
68.4350000000000023
21
-35.272318999999996
0
LINE
8
LYELLOW
6
CONTINUOUS
10
68.4350000000000023
20
-35.272318999999996
11
68.5778569999999945
21
-35.3199380000000005
0
LINE
8
LYELLOW
6
CONTINUOUS
10
68.5778569999999945
20
-35.3199380000000005
11
68.6730950000000036
21
-35.4151759999999953
0
LINE
8
LYELLOW
6
CONTINUOUS
10
68.6730950000000036
20
-35.4151759999999953
11
68.720714000000001
21
-35.5104139999999973
0
LINE
8
LYELLOW
6
CONTINUOUS
10
68.720714000000001
20
-35.5104139999999973
11
68.7683329999999984
21
-35.7008900000000011
0
LINE
8
LYELLOW
6
CONTINUOUS
10
68.7683329999999984
20
-35.7008900000000011
11
68.7683329999999984
21
-35.8437470000000005
0
LINE
8
LYELLOW
6
CONTINUOUS
10
68.7683329999999984
20
-35.8437470000000005
11
68.720714000000001
21
-36.0342229999999972
0
LINE
8
LYELLOW
6
CONTINUOUS
10
68.720714000000001
20
-36.0342229999999972
11
68.6730950000000036
21
-36.1294609999999992
0
LINE
8
LYELLOW
6
CONTINUOUS
10
68.6730950000000036
20
-36.1294609999999992
11
68.5778569999999945
21
-36.2246999999999986
0
LINE
8
LYELLOW
6
CONTINUOUS
10
68.5778569999999945
20
-36.2246999999999986
11
68.4350000000000023
21
-36.272318999999996
0
LINE
8
LYELLOW
6
CONTINUOUS
10
68.4350000000000023
20
-36.272318999999996
11
68.196905000000001
21
-36.272318999999996
0
LINE
8
LYELLOW
6
CONTINUOUS
10
69.1492860000000036
20
-35.3675569999999979
11
69.196905000000001
21
-35.3199380000000005
0
LINE
8
LYELLOW
6
CONTINUOUS
10
69.196905000000001
20
-35.3199380000000005
11
69.2921429999999958
21
-35.272318999999996
0
LINE
8
LYELLOW
6
CONTINUOUS
10
69.2921429999999958
20
-35.272318999999996
11
69.5302379999999971
21
-35.272318999999996
0
LINE
8
LYELLOW
6
CONTINUOUS
10
69.5302379999999971
20
-35.272318999999996
11
69.6254759999999919
21
-35.3199380000000005
0
LINE
8
LYELLOW
6
CONTINUOUS
10
69.6254759999999919
20
-35.3199380000000005
11
69.6730950000000036
21
-35.3675569999999979
0
LINE
8
LYELLOW
6
CONTINUOUS
10
69.6730950000000036
20
-35.3675569999999979
11
69.720714000000001
21
-35.4627949999999998
0
LINE
8
LYELLOW
6
CONTINUOUS
10
69.720714000000001
20
-35.4627949999999998
11
69.720714000000001
21
-35.5580330000000018
0
LINE
8
LYELLOW
6
CONTINUOUS
10
69.720714000000001
20
-35.5580330000000018
11
69.6730950000000036
21
-35.7008900000000011
0
LINE
8
LYELLOW
6
CONTINUOUS
10
69.6730950000000036
20
-35.7008900000000011
11
69.101666999999992
21
-36.272318999999996
0
LINE
8
LYELLOW
6
CONTINUOUS
10
69.101666999999992
20
-36.272318999999996
11
69.720714000000001
21
-36.272318999999996
0
LINE
8
LYELLOW
6
CONTINUOUS
10
63.5930949999999982
20
-36.6423190000000005
11
63.5930949999999982
21
-35.6423190000000005
0
LINE
8
LYELLOW
6
CONTINUOUS
10
64.1645230000000026
20
-36.6423190000000005
11
63.7359519999999975
21
-36.0708899999999986
0
LINE
8
LYELLOW
6
CONTINUOUS
10
64.1645230000000026
20
-35.6423190000000005
11
63.5930949999999982
21
-36.2137469999999979
0
LINE
8
LYELLOW
6
CONTINUOUS
10
91.0377330000000029
20
-87.547079999999994
11
90.9901139999999913
21
-87.5947000000000031
0
LINE
8
LYELLOW
6
CONTINUOUS
10
90.9901139999999913
20
-87.5947000000000031
11
90.847256999999999
21
-87.6423190000000005
0
LINE
8
LYELLOW
6
CONTINUOUS
10
90.847256999999999
20
-87.6423190000000005
11
90.75201899999999
21
-87.6423190000000005
0
LINE
8
LYELLOW
6
CONTINUOUS
10
90.75201899999999
20
-87.6423190000000005
11
90.6091619999999978
21
-87.5947000000000031
0
LINE
8
LYELLOW
6
CONTINUOUS
10
90.6091619999999978
20
-87.5947000000000031
11
90.5139240000000029
21
-87.4994609999999966
0
LINE
8
LYELLOW
6
CONTINUOUS
10
90.5139240000000029
20
-87.4994609999999966
11
90.4663049999999913
21
-87.4042230000000018
0
LINE
8
LYELLOW
6
CONTINUOUS
10
90.4663049999999913
20
-87.4042230000000018
11
90.4186859999999939
21
-87.2137469999999979
0
LINE
8
LYELLOW
6
CONTINUOUS
10
90.4186859999999939
20
-87.2137469999999979
11
90.4186859999999939
21
-87.0708899999999915
0
LINE
8
LYELLOW
6
CONTINUOUS
10
90.4186859999999939
20
-87.0708899999999915
11
90.4663049999999913
21
-86.8804140000000018
0
LINE
8
LYELLOW
6
CONTINUOUS
10
90.4663049999999913
20
-86.8804140000000018
11
90.5139240000000029
21
-86.7851759999999928
0
LINE
8
LYELLOW
6
CONTINUOUS
10
90.5139240000000029
20
-86.7851759999999928
11
90.6091619999999978
21
-86.6899379999999979
0
LINE
8
LYELLOW
6
CONTINUOUS
10
90.6091619999999978
20
-86.6899379999999979
11
90.75201899999999
21
-86.6423190000000005
0
LINE
8
LYELLOW
6
CONTINUOUS
10
90.75201899999999
20
-86.6423190000000005
11
90.847256999999999
21
-86.6423190000000005
0
LINE
8
LYELLOW
6
CONTINUOUS
10
90.847256999999999
20
-86.6423190000000005
11
90.9901139999999913
21
-86.6899379999999979
0
LINE
8
LYELLOW
6
CONTINUOUS
10
90.9901139999999913
20
-86.6899379999999979
11
91.0377330000000029
21
-86.7375569999999954
0
LINE
8
LYELLOW
6
CONTINUOUS
10
91.3710669999999965
20
-86.6423190000000005
11
91.9901139999999913
21
-86.6423190000000005
0
LINE
8
LYELLOW
6
CONTINUOUS
10
91.9901139999999913
20
-86.6423190000000005
11
91.6567809999999952
21
-87.023270999999994
0
LINE
8
LYELLOW
6
CONTINUOUS
10
91.6567809999999952
20
-87.023270999999994
11
91.7996380000000016
21
-87.023270999999994
0
LINE
8
LYELLOW
6
CONTINUOUS
10
91.7996380000000016
20
-87.023270999999994
11
91.8948759999999965
21
-87.0708899999999915
0
LINE
8
LYELLOW
6
CONTINUOUS
10
91.8948759999999965
20
-87.0708899999999915
11
91.9424949999999939
21
-87.1185090000000031
0
LINE
8
LYELLOW
6
CONTINUOUS
10
91.9424949999999939
20
-87.1185090000000031
11
91.9901139999999913
21
-87.2137469999999979
0
LINE
8
LYELLOW
6
CONTINUOUS
10
91.9901139999999913
20
-87.2137469999999979
11
91.9901139999999913
21
-87.4518419999999992
0
LINE
8
LYELLOW
6
CONTINUOUS
10
91.9901139999999913
20
-87.4518419999999992
11
91.9424949999999939
21
-87.547079999999994
0
LINE
8
LYELLOW
6
CONTINUOUS
10
91.9424949999999939
20
-87.547079999999994
11
91.8948759999999965
21
-87.5947000000000031
0
LINE
8
LYELLOW
6
CONTINUOUS
10
91.8948759999999965
20
-87.5947000000000031
11
91.7996380000000016
21
-87.6423190000000005
0
LINE
8
LYELLOW
6
CONTINUOUS
10
91.7996380000000016
20
-87.6423190000000005
11
91.5139240000000029
21
-87.6423190000000005
0
LINE
8
LYELLOW
6
CONTINUOUS
10
91.5139240000000029
20
-87.6423190000000005
11
91.4186859999999939
21
-87.5947000000000031
0
LINE
8
LYELLOW
6
CONTINUOUS
10
91.4186859999999939
20
-87.5947000000000031
11
91.3710669999999965
21
-87.547079999999994
0
LINE
8
LYELLOW
6
CONTINUOUS
10
79.6083330000000018
20
-102.4223190000000017
11
79.2749999999999915
21
-101.9461280000000016
0
LINE
8
LYELLOW
6
CONTINUOUS
10
79.0369049999999902
20
-102.4223190000000017
11
79.0369049999999902
21
-101.4223190000000017
0
LINE
8
LYELLOW
6
CONTINUOUS
10
79.0369049999999902
20
-101.4223190000000017
11
79.4178569999999979
21
-101.4223190000000017
0
LINE
8
LYELLOW
6
CONTINUOUS
10
79.4178569999999979
20
-101.4223190000000017
11
79.5130949999999928
21
-101.4699379999999991
0
LINE
8
LYELLOW
6
CONTINUOUS
10
79.5130949999999928
20
-101.4699379999999991
11
79.5607139999999902
21
-101.5175569999999965
0
LINE
8
LYELLOW
6
CONTINUOUS
10
79.5607139999999902
20
-101.5175569999999965
11
79.6083330000000018
21
-101.6127949999999913
0
LINE
8
LYELLOW
6
CONTINUOUS
10
79.6083330000000018
20
-101.6127949999999913
11
79.6083330000000018
21
-101.7556519999999978
0
LINE
8
LYELLOW
6
CONTINUOUS
10
79.6083330000000018
20
-101.7556519999999978
11
79.5607139999999902
21
-101.8508899999999926
0
LINE
8
LYELLOW
6
CONTINUOUS
10
79.5607139999999902
20
-101.8508899999999926
11
79.5130949999999928
21
-101.89850899999999
0
LINE
8
LYELLOW
6
CONTINUOUS
10
79.5130949999999928
20
-101.89850899999999
11
79.4178569999999979
21
-101.9461280000000016
0
LINE
8
LYELLOW
6
CONTINUOUS
10
79.4178569999999979
20
-101.9461280000000016
11
79.0369049999999902
21
-101.9461280000000016
0
LINE
8
LYELLOW
6
CONTINUOUS
10
79.9892859999999928
20
-101.5175569999999965
11
80.0369049999999902
21
-101.4699379999999991
0
LINE
8
LYELLOW
6
CONTINUOUS
10
80.0369049999999902
20
-101.4699379999999991
11
80.1321429999999992
21
-101.4223190000000017
0
LINE
8
LYELLOW
6
CONTINUOUS
10
80.1321429999999992
20
-101.4223190000000017
11
80.3702380000000005
21
-101.4223190000000017
0
LINE
8
LYELLOW
6
CONTINUOUS
10
80.3702380000000005
20
-101.4223190000000017
11
80.4654759999999953
21
-101.4699379999999991
0
LINE
8
LYELLOW
6
CONTINUOUS
10
80.4654759999999953
20
-101.4699379999999991
11
80.5130949999999928
21
-101.5175569999999965
0
LINE
8
LYELLOW
6
CONTINUOUS
10
80.5130949999999928
20
-101.5175569999999965
11
80.5607139999999902
21
-101.6127949999999913
0
LINE
8
LYELLOW
6
CONTINUOUS
10
80.5607139999999902
20
-101.6127949999999913
11
80.5607139999999902
21
-101.7080330000000004
0
LINE
8
LYELLOW
6
CONTINUOUS
10
80.5607139999999902
20
-101.7080330000000004
11
80.5130949999999928
21
-101.8508899999999926
0
LINE
8
LYELLOW
6
CONTINUOUS
10
80.5130949999999928
20
-101.8508899999999926
11
79.9416669999999954
21
-102.4223190000000017
0
LINE
8
LYELLOW
6
CONTINUOUS
10
79.9416669999999954
20
-102.4223190000000017
11
80.5607139999999902
21
-102.4223190000000017
0
LINE
8
LYELLOW
6
CONTINUOUS
10
114.596665999999999
20
-41.5873190000000008
11
114.596665999999999
21
-42.3016039999999975
0
LINE
8
LYELLOW
6
CONTINUOUS
10
114.596665999999999
20
-42.3016039999999975
11
114.5490470000000016
21
-42.4444609999999969
0
LINE
8
LYELLOW
6
CONTINUOUS
10
114.5490470000000016
20
-42.4444609999999969
11
114.4538089999999926
21
-42.5396999999999963
0
LINE
8
LYELLOW
6
CONTINUOUS
10
114.4538089999999926
20
-42.5396999999999963
11
114.3109520000000003
21
-42.5873190000000008
0
LINE
8
LYELLOW
6
CONTINUOUS
10
114.3109520000000003
20
-42.5873190000000008
11
114.2157139999999913
21
-42.5873190000000008
0
LINE
8
LYELLOW
6
CONTINUOUS
10
115.50142799999999
20
-41.9206519999999969
11
115.50142799999999
21
-42.5873190000000008
0
LINE
8
LYELLOW
6
CONTINUOUS
10
115.2633329999999887
20
-41.5396999999999963
11
115.0252380000000016
21
-42.2539850000000001
0
LINE
8
LYELLOW
6
CONTINUOUS
10
115.0252380000000016
20
-42.2539850000000001
11
115.6442849999999964
21
-42.2539850000000001
0
LINE
8
LYELLOW
6
CONTINUOUS
10
64.4430329999999998
20
-84.797079999999994
11
64.3954140000000024
21
-84.8447000000000031
0
LINE
8
LYELLOW
6
CONTINUOUS
10
64.3954140000000024
20
-84.8447000000000031
11
64.2525569999999959
21
-84.8923190000000005
0
LINE
8
LYELLOW
6
CONTINUOUS
10
64.2525569999999959
20
-84.8923190000000005
11
64.1573190000000011
21
-84.8923190000000005
0
LINE
8
LYELLOW
6
CONTINUOUS
10
64.1573190000000011
20
-84.8923190000000005
11
64.0144619999999946
21
-84.8447000000000031
0
LINE
8
LYELLOW
6
CONTINUOUS
10
64.0144619999999946
20
-84.8447000000000031
11
63.9192239999999998
21
-84.7494609999999966
0
LINE
8
LYELLOW
6
CONTINUOUS
10
63.9192239999999998
20
-84.7494609999999966
11
63.8716049999999953
21
-84.6542230000000018
0
LINE
8
LYELLOW
6
CONTINUOUS
10
63.8716049999999953
20
-84.6542230000000018
11
63.8239859999999979
21
-84.4637469999999979
0
LINE
8
LYELLOW
6
CONTINUOUS
10
63.8239859999999979
20
-84.4637469999999979
11
63.8239859999999979
21
-84.3208899999999915
0
LINE
8
LYELLOW
6
CONTINUOUS
10
63.8239859999999979
20
-84.3208899999999915
11
63.8716049999999953
21
-84.1304140000000018
0
LINE
8
LYELLOW
6
CONTINUOUS
10
63.8716049999999953
20
-84.1304140000000018
11
63.9192239999999998
21
-84.0351759999999928
0
LINE
8
LYELLOW
6
CONTINUOUS
10
63.9192239999999998
20
-84.0351759999999928
11
64.0144619999999946
21
-83.9399379999999979
0
LINE
8
LYELLOW
6
CONTINUOUS
10
64.0144619999999946
20
-83.9399379999999979
11
64.1573190000000011
21
-83.8923190000000005
0
LINE
8
LYELLOW
6
CONTINUOUS
10
64.1573190000000011
20
-83.8923190000000005
11
64.2525569999999959
21
-83.8923190000000005
0
LINE
8
LYELLOW
6
CONTINUOUS
10
64.2525569999999959
20
-83.8923190000000005
11
64.3954140000000024
21
-83.9399379999999979
0
LINE
8
LYELLOW
6
CONTINUOUS
10
64.3954140000000024
20
-83.9399379999999979
11
64.4430329999999998
21
-83.9875569999999954
0
LINE
8
LYELLOW
6
CONTINUOUS
10
65.3954140000000024
20
-84.8923190000000005
11
64.8239859999999908
21
-84.8923190000000005
0
LINE
8
LYELLOW
6
CONTINUOUS
10
65.1097000000000037
20
-84.8923190000000005
11
65.1097000000000037
21
-83.8923190000000005
0
LINE
8
LYELLOW
6
CONTINUOUS
10
65.1097000000000037
20
-83.8923190000000005
11
65.0144619999999946
21
-84.0351759999999928
0
LINE
8
LYELLOW
6
CONTINUOUS
10
65.0144619999999946
20
-84.0351759999999928
11
64.9192239999999998
21
-84.1304140000000018
0
LINE
8
LYELLOW
6
CONTINUOUS
10
64.9192239999999998
20
-84.1304140000000018
11
64.8239859999999908
21
-84.1780329999999992
0
LINE
8
LYELLOW
6
CONTINUOUS
10
50.2869049999999973
20
-36.272318999999996
11
50.2869049999999973
21
-35.272318999999996
0
LINE
8
LYELLOW
6
CONTINUOUS
10
50.2869049999999973
20
-35.272318999999996
11
50.5249999999999986
21
-35.272318999999996
0
LINE
8
LYELLOW
6
CONTINUOUS
10
50.5249999999999986
20
-35.272318999999996
11
50.6678569999999979
21
-35.3199380000000005
0
LINE
8
LYELLOW
6
CONTINUOUS
10
50.6678569999999979
20
-35.3199380000000005
11
50.7630949999999999
21
-35.4151759999999953
0
LINE
8
LYELLOW
6
CONTINUOUS
10
50.7630949999999999
20
-35.4151759999999953
11
50.8107139999999973
21
-35.5104139999999973
0
LINE
8
LYELLOW
6
CONTINUOUS
10
50.8107139999999973
20
-35.5104139999999973
11
50.8583329999999947
21
-35.7008900000000011
0
LINE
8
LYELLOW
6
CONTINUOUS
10
50.8583329999999947
20
-35.7008900000000011
11
50.8583329999999947
21
-35.8437470000000005
0
LINE
8
LYELLOW
6
CONTINUOUS
10
50.8583329999999947
20
-35.8437470000000005
11
50.8107139999999973
21
-36.0342229999999972
0
LINE
8
LYELLOW
6
CONTINUOUS
10
50.8107139999999973
20
-36.0342229999999972
11
50.7630949999999999
21
-36.1294609999999992
0
LINE
8
LYELLOW
6
CONTINUOUS
10
50.7630949999999999
20
-36.1294609999999992
11
50.6678569999999979
21
-36.2246999999999986
0
LINE
8
LYELLOW
6
CONTINUOUS
10
50.6678569999999979
20
-36.2246999999999986
11
50.5249999999999986
21
-36.272318999999996
0
LINE
8
LYELLOW
6
CONTINUOUS
10
50.5249999999999986
20
-36.272318999999996
11
50.2869049999999973
21
-36.272318999999996
0
LINE
8
LYELLOW
6
CONTINUOUS
10
51.8107139999999973
20
-36.272318999999996
11
51.2392859999999999
21
-36.272318999999996
0
LINE
8
LYELLOW
6
CONTINUOUS
10
51.5249999999999986
20
-36.272318999999996
11
51.5249999999999986
21
-35.272318999999996
0
LINE
8
LYELLOW
6
CONTINUOUS
10
51.5249999999999986
20
-35.272318999999996
11
51.4297619999999966
21
-35.4151759999999953
0
LINE
8
LYELLOW
6
CONTINUOUS
10
51.4297619999999966
20
-35.4151759999999953
11
51.3345239999999947
21
-35.5104139999999973
0
LINE
8
LYELLOW
6
CONTINUOUS
10
51.3345239999999947
20
-35.5104139999999973
11
51.2392859999999999
21
-35.5580330000000018
0
LINE
8
LYELLOW
6
CONTINUOUS
10
45.6830949999999945
20
-36.6423190000000005
11
45.6830949999999945
21
-35.6423190000000005
0
LINE
8
LYELLOW
6
CONTINUOUS
10
46.2545229999999989
20
-36.6423190000000005
11
45.8259520000000009
21
-36.0708899999999986
0
LINE
8
LYELLOW
6
CONTINUOUS
10
46.2545229999999989
20
-35.6423190000000005
11
45.6830949999999945
21
-36.2137469999999979
0
LINE
8
LYELLOW
6
CONTINUOUS
10
49.0930949999999982
20
-79.1923189999999977
11
49.0930949999999982
21
-80.0018419999999963
0
LINE
8
LYELLOW
6
CONTINUOUS
10
49.0930949999999982
20
-80.0018419999999963
11
49.1407139999999956
21
-80.0970799999999912
0
LINE
8
LYELLOW
6
CONTINUOUS
10
49.1407139999999956
20
-80.0970799999999912
11
49.1883330000000001
21
-80.1447000000000003
0
LINE
8
LYELLOW
6
CONTINUOUS
10
49.1883330000000001
20
-80.1447000000000003
11
49.2835709999999949
21
-80.1923189999999977
0
LINE
8
LYELLOW
6
CONTINUOUS
10
49.2835709999999949
20
-80.1923189999999977
11
49.4740469999999988
21
-80.1923189999999977
0
LINE
8
LYELLOW
6
CONTINUOUS
10
49.4740469999999988
20
-80.1923189999999977
11
49.5692850000000007
21
-80.1447000000000003
0
LINE
8
LYELLOW
6
CONTINUOUS
10
49.5692850000000007
20
-80.1447000000000003
11
49.6169039999999981
21
-80.0970799999999912
0
LINE
8
LYELLOW
6
CONTINUOUS
10
49.6169039999999981
20
-80.0970799999999912
11
49.6645229999999955
21
-80.0018419999999963
0
LINE
8
LYELLOW
6
CONTINUOUS
10
49.6645229999999955
20
-80.0018419999999963
11
49.6645229999999955
21
-79.1923189999999977
0
LINE
8
LYELLOW
6
CONTINUOUS
10
50.0930949999999982
20
-79.2875569999999925
11
50.1407139999999956
21
-79.2399379999999951
0
LINE
8
LYELLOW
6
CONTINUOUS
10
50.1407139999999956
20
-79.2399379999999951
11
50.2359519999999975
21
-79.1923189999999977
0
LINE
8
LYELLOW
6
CONTINUOUS
10
50.2359519999999975
20
-79.1923189999999977
11
50.4740469999999988
21
-79.1923189999999977
0
LINE
8
LYELLOW
6
CONTINUOUS
10
50.4740469999999988
20
-79.1923189999999977
11
50.5692850000000007
21
-79.2399379999999951
0
LINE
8
LYELLOW
6
CONTINUOUS
10
50.5692850000000007
20
-79.2399379999999951
11
50.6169039999999981
21
-79.2875569999999925
0
LINE
8
LYELLOW
6
CONTINUOUS
10
50.6169039999999981
20
-79.2875569999999925
11
50.6645229999999955
21
-79.3827950000000016
0
LINE
8
LYELLOW
6
CONTINUOUS
10
50.6645229999999955
20
-79.3827950000000016
11
50.6645229999999955
21
-79.4780329999999964
0
LINE
8
LYELLOW
6
CONTINUOUS
10
50.6645229999999955
20
-79.4780329999999964
11
50.6169039999999981
21
-79.6208900000000028
0
LINE
8
LYELLOW
6
CONTINUOUS
10
50.6169039999999981
20
-79.6208900000000028
11
50.0454760000000007
21
-80.1923189999999977
0
LINE
8
LYELLOW
6
CONTINUOUS
10
50.0454760000000007
20
-80.1923189999999977
11
50.6645229999999955
21
-80.1923189999999977
0
LINE
8
LYELLOW
6
CONTINUOUS
10
114.596665999999999
20
-29.5373190000000001
11
114.596665999999999
21
-30.2516040000000004
0
LINE
8
LYELLOW
6
CONTINUOUS
10
114.596665999999999
20
-30.2516040000000004
11
114.5490470000000016
21
-30.3944609999999997
0
LINE
8
LYELLOW
6
CONTINUOUS
10
114.5490470000000016
20
-30.3944609999999997
11
114.4538089999999926
21
-30.4896999999999991
0
LINE
8
LYELLOW
6
CONTINUOUS
10
114.4538089999999926
20
-30.4896999999999991
11
114.3109520000000003
21
-30.5373190000000001
0
LINE
8
LYELLOW
6
CONTINUOUS
10
114.3109520000000003
20
-30.5373190000000001
11
114.2157139999999913
21
-30.5373190000000001
0
LINE
8
LYELLOW
6
CONTINUOUS
10
115.0252380000000016
20
-29.6325569999999985
11
115.0728569999999991
21
-29.5849379999999975
0
LINE
8
LYELLOW
6
CONTINUOUS
10
115.0728569999999991
20
-29.5849379999999975
11
115.1680949999999939
21
-29.5373190000000001
0
LINE
8
LYELLOW
6
CONTINUOUS
10
115.1680949999999939
20
-29.5373190000000001
11
115.4061899999999952
21
-29.5373190000000001
0
LINE
8
LYELLOW
6
CONTINUOUS
10
115.4061899999999952
20
-29.5373190000000001
11
115.50142799999999
21
-29.5849379999999975
0
LINE
8
LYELLOW
6
CONTINUOUS
10
115.50142799999999
20
-29.5849379999999975
11
115.5490470000000016
21
-29.6325569999999985
0
LINE
8
LYELLOW
6
CONTINUOUS
10
115.5490470000000016
20
-29.6325569999999985
11
115.596665999999999
21
-29.7277950000000004
0
LINE
8
LYELLOW
6
CONTINUOUS
10
115.596665999999999
20
-29.7277950000000004
11
115.596665999999999
21
-29.8230329999999988
0
LINE
8
LYELLOW
6
CONTINUOUS
10
115.596665999999999
20
-29.8230329999999988
11
115.5490470000000016
21
-29.9658899999999981
0
LINE
8
LYELLOW
6
CONTINUOUS
10
115.5490470000000016
20
-29.9658899999999981
11
114.97761899999999
21
-30.5373190000000001
0
LINE
8
LYELLOW
6
CONTINUOUS
10
114.97761899999999
20
-30.5373190000000001
11
115.596665999999999
21
-30.5373190000000001
0
LINE
8
LYELLOW
6
CONTINUOUS
10
49.2883329999999944
20
-109.4223190000000017
11
48.9549999999999983
21
-108.9461280000000016
0
LINE
8
LYELLOW
6
CONTINUOUS
10
48.716904999999997
20
-109.4223190000000017
11
48.716904999999997
21
-108.4223190000000017
0
LINE
8
LYELLOW
6
CONTINUOUS
10
48.716904999999997
20
-108.4223190000000017
11
49.0978569999999976
21
-108.4223190000000017
0
LINE
8
LYELLOW
6
CONTINUOUS
10
49.0978569999999976
20
-108.4223190000000017
11
49.1930949999999996
21
-108.4699379999999991
0
LINE
8
LYELLOW
6
CONTINUOUS
10
49.1930949999999996
20
-108.4699379999999991
11
49.240713999999997
21
-108.5175569999999965
0
LINE
8
LYELLOW
6
CONTINUOUS
10
49.240713999999997
20
-108.5175569999999965
11
49.2883329999999944
21
-108.6127949999999913
0
LINE
8
LYELLOW
6
CONTINUOUS
10
49.2883329999999944
20
-108.6127949999999913
11
49.2883329999999944
21
-108.7556519999999978
0
LINE
8
LYELLOW
6
CONTINUOUS
10
49.2883329999999944
20
-108.7556519999999978
11
49.240713999999997
21
-108.8508899999999926
0
LINE
8
LYELLOW
6
CONTINUOUS
10
49.240713999999997
20
-108.8508899999999926
11
49.1930949999999996
21
-108.89850899999999
0
LINE
8
LYELLOW
6
CONTINUOUS
10
49.1930949999999996
20
-108.89850899999999
11
49.0978569999999976
21
-108.9461280000000016
0
LINE
8
LYELLOW
6
CONTINUOUS
10
49.0978569999999976
20
-108.9461280000000016
11
48.716904999999997
21
-108.9461280000000016
0
LINE
8
LYELLOW
6
CONTINUOUS
10
50.1454759999999951
20
-108.7556519999999978
11
50.1454759999999951
21
-109.4223190000000017
0
LINE
8
LYELLOW
6
CONTINUOUS
10
49.9073810000000009
20
-108.37469999999999
11
49.6692859999999996
21
-109.0889849999999939
0
LINE
8
LYELLOW
6
CONTINUOUS
10
49.6692859999999996
20
-109.0889849999999939
11
50.2883329999999944
21
-109.0889849999999939
0
LINE
8
LYELLOW
6
CONTINUOUS
10
64.8383329999999916
20
-102.4223190000000017
11
64.5049999999999955
21
-101.9461280000000016
0
LINE
8
LYELLOW
6
CONTINUOUS
10
64.2669049999999942
20
-102.4223190000000017
11
64.2669049999999942
21
-101.4223190000000017
0
LINE
8
LYELLOW
6
CONTINUOUS
10
64.2669049999999942
20
-101.4223190000000017
11
64.6478570000000019
21
-101.4223190000000017
0
LINE
8
LYELLOW
6
CONTINUOUS
10
64.6478570000000019
20
-101.4223190000000017
11
64.7430949999999967
21
-101.4699379999999991
0
LINE
8
LYELLOW
6
CONTINUOUS
10
64.7430949999999967
20
-101.4699379999999991
11
64.7907139999999941
21
-101.5175569999999965
0
LINE
8
LYELLOW
6
CONTINUOUS
10
64.7907139999999941
20
-101.5175569999999965
11
64.8383329999999916
21
-101.6127949999999913
0
LINE
8
LYELLOW
6
CONTINUOUS
10
64.8383329999999916
20
-101.6127949999999913
11
64.8383329999999916
21
-101.7556519999999978
0
LINE
8
LYELLOW
6
CONTINUOUS
10
64.8383329999999916
20
-101.7556519999999978
11
64.7907139999999941
21
-101.8508899999999926
0
LINE
8
LYELLOW
6
CONTINUOUS
10
64.7907139999999941
20
-101.8508899999999926
11
64.7430949999999967
21
-101.89850899999999
0
LINE
8
LYELLOW
6
CONTINUOUS
10
64.7430949999999967
20
-101.89850899999999
11
64.6478570000000019
21
-101.9461280000000016
0
LINE
8
LYELLOW
6
CONTINUOUS
10
64.6478570000000019
20
-101.9461280000000016
11
64.2669049999999942
21
-101.9461280000000016
0
LINE
8
LYELLOW
6
CONTINUOUS
10
65.7907139999999941
20
-102.4223190000000017
11
65.2192859999999968
21
-102.4223190000000017
0
LINE
8
LYELLOW
6
CONTINUOUS
10
65.5049999999999955
20
-102.4223190000000017
11
65.5049999999999955
21
-101.4223190000000017
0
LINE
8
LYELLOW
6
CONTINUOUS
10
65.5049999999999955
20
-101.4223190000000017
11
65.4097620000000006
21
-101.5651759999999939
0
LINE
8
LYELLOW
6
CONTINUOUS
10
65.4097620000000006
20
-101.5651759999999939
11
65.3145239999999916
21
-101.6604139999999887
0
LINE
8
LYELLOW
6
CONTINUOUS
10
65.3145239999999916
20
-101.6604139999999887
11
65.2192859999999968
21
-101.7080330000000004
0
LINE
8
LYELLOW
6
CONTINUOUS
10
89.1430950000000024
20
-54.7973189999999946
11
89.1430950000000024
21
-55.6068420000000003
0
LINE
8
LYELLOW
6
CONTINUOUS
10
89.1430950000000024
20
-55.6068420000000003
11
89.1907139999999998
21
-55.7020799999999952
0
LINE
8
LYELLOW
6
CONTINUOUS
10
89.1907139999999998
20
-55.7020799999999952
11
89.2383329999999972
21
-55.7496999999999971
0
LINE
8
LYELLOW
6
CONTINUOUS
10
89.2383329999999972
20
-55.7496999999999971
11
89.3335709999999921
21
-55.7973189999999946
0
LINE
8
LYELLOW
6
CONTINUOUS
10
89.3335709999999921
20
-55.7973189999999946
11
89.5240469999999959
21
-55.7973189999999946
0
LINE
8
LYELLOW
6
CONTINUOUS
10
89.5240469999999959
20
-55.7973189999999946
11
89.6192849999999908
21
-55.7496999999999971
0
LINE
8
LYELLOW
6
CONTINUOUS
10
89.6192849999999908
20
-55.7496999999999971
11
89.6669040000000024
21
-55.7020799999999952
0
LINE
8
LYELLOW
6
CONTINUOUS
10
89.6669040000000024
20
-55.7020799999999952
11
89.7145229999999998
21
-55.6068420000000003
0
LINE
8
LYELLOW
6
CONTINUOUS
10
89.7145229999999998
20
-55.6068420000000003
11
89.7145229999999998
21
-54.7973189999999946
0
LINE
8
LYELLOW
6
CONTINUOUS
10
90.7145229999999998
20
-55.7973189999999946
11
90.1430950000000024
21
-55.7973189999999946
0
LINE
8
LYELLOW
6
CONTINUOUS
10
90.4288090000000011
20
-55.7973189999999946
11
90.4288090000000011
21
-54.7973189999999946
0
LINE
8
LYELLOW
6
CONTINUOUS
10
90.4288090000000011
20
-54.7973189999999946
11
90.3335709999999921
21
-54.940176000000001
0
LINE
8
LYELLOW
6
CONTINUOUS
10
90.3335709999999921
20
-54.940176000000001
11
90.2383329999999972
21
-55.0354139999999958
0
LINE
8
LYELLOW
6
CONTINUOUS
10
90.2383329999999972
20
-55.0354139999999958
11
90.1430950000000024
21
-55.0830330000000004
0
LINE
8
LYELLOW
6
CONTINUOUS
10
61.928332999999995
20
-51.6673189999999991
11
61.4521429999999995
21
-51.6673189999999991
0
LINE
8
LYELLOW
6
CONTINUOUS
10
61.4521429999999995
20
-51.6673189999999991
11
61.4521429999999995
21
-50.6673189999999991
0
LINE
8
LYELLOW
6
CONTINUOUS
10
62.7854759999999956
20
-51.6673189999999991
11
62.2140479999999982
21
-51.6673189999999991
0
LINE
8
LYELLOW
6
CONTINUOUS
10
62.4997619999999969
20
-51.6673189999999991
11
62.4997619999999969
21
-50.6673189999999991
0
LINE
8
LYELLOW
6
CONTINUOUS
10
62.4997619999999969
20
-50.6673189999999991
11
62.404523999999995
21
-50.8101759999999985
0
LINE
8
LYELLOW
6
CONTINUOUS
10
62.404523999999995
20
-50.8101759999999985
11
62.3092860000000002
21
-50.9054140000000004
0
LINE
8
LYELLOW
6
CONTINUOUS
10
62.3092860000000002
20
-50.9054140000000004
11
62.2140479999999982
21
-50.9530329999999978
0
LINE
8
LYELLOW
6
CONTINUOUS
10
28.7366659999999996
20
-39.6973190000000002
11
28.7366659999999996
21
-40.411603999999997
0
LINE
8
LYELLOW
6
CONTINUOUS
10
28.7366659999999996
20
-40.411603999999997
11
28.6890469999999986
21
-40.5544609999999963
0
LINE
8
LYELLOW
6
CONTINUOUS
10
28.6890469999999986
20
-40.5544609999999963
11
28.5938090000000003
21
-40.6496999999999957
0
LINE
8
LYELLOW
6
CONTINUOUS
10
28.5938090000000003
20
-40.6496999999999957
11
28.4509519999999974
21
-40.6973190000000002
0
LINE
8
LYELLOW
6
CONTINUOUS
10
28.4509519999999974
20
-40.6973190000000002
11
28.355713999999999
21
-40.6973190000000002
0
LINE
8
LYELLOW
6
CONTINUOUS
10
29.7366659999999996
20
-40.6973190000000002
11
29.1652379999999987
21
-40.6973190000000002
0
LINE
8
LYELLOW
6
CONTINUOUS
10
29.4509519999999974
20
-40.6973190000000002
11
29.4509519999999974
21
-39.6973190000000002
0
LINE
8
LYELLOW
6
CONTINUOUS
10
29.4509519999999974
20
-39.6973190000000002
11
29.355713999999999
21
-39.8401759999999996
0
LINE
8
LYELLOW
6
CONTINUOUS
10
29.355713999999999
20
-39.8401759999999996
11
29.260475999999997
21
-39.9354140000000015
0
LINE
8
LYELLOW
6
CONTINUOUS
10
29.260475999999997
20
-39.9354140000000015
11
29.1652379999999987
21
-39.9830329999999989
0
LINE
8
LYELLOW
6
CONTINUOUS
10
73.9447019999999924
20
-87.3725000000000023
11
74.7447019999999895
21
-87.3725000000000023
0
LINE
8
LYELLOW
6
CONTINUOUS
10
74.3447019999999981
20
-86.9724999999999966
11
74.3447019999999981
21
-87.7724999999999937
0
LINE
8
LYELLOW
6
CONTINUOUS
10
78.3543999999999983
20
-85.6075000000000017
11
78.3543999999999983
21
-93.7674999999999983
0
LINE
8
LYELLOW
6
CONTINUOUS
10
78.3943999999999903
20
-85.6075000000000017
11
78.3943999999999903
21
-93.7674999999999983
0
LINE
8
LYELLOW
6
CONTINUOUS
10
78.4343999999999966
20
-85.6084999999999923
11
78.4343999999999966
21
-93.7664999999999935
0
LINE
8
LYELLOW
6
CONTINUOUS
10
78.4744000000000028
20
-85.609499999999997
11
78.4744000000000028
21
-93.7654999999999887
0
LINE
8
LYELLOW
6
CONTINUOUS
10
78.5143999999999949
20
-85.6105000000000018
11
78.5143999999999949
21
-93.7644999999999982
0
LINE
8
LYELLOW
6
CONTINUOUS
10
78.5544000000000011
20
-85.6124999999999972
11
78.5544000000000011
21
-93.7625000000000028
0
LINE
8
LYELLOW
6
CONTINUOUS
10
78.5943999999999932
20
-85.6144999999999925
11
78.5943999999999932
21
-93.7604999999999933
0
LINE
8
LYELLOW
6
CONTINUOUS
10
78.6343999999999994
20
-85.6174999999999926
11
78.6343999999999994
21
-93.7574999999999932
0
LINE
8
LYELLOW
6
CONTINUOUS
10
78.6743999999999915
20
-85.6195000000000022
11
78.6743999999999915
21
-93.7554999999999978
0
LINE
8
LYELLOW
6
CONTINUOUS
10
78.7143999999999977
20
-85.6234999999999928
11
78.7143999999999977
21
-93.751499999999993
0
LINE
8
LYELLOW
6
CONTINUOUS
10
78.7543999999999897
20
-85.626499999999993
11
78.7543999999999897
21
-93.7484999999999928
0
LINE
8
LYELLOW
6
CONTINUOUS
10
78.794399999999996
20
-85.6315000000000026
11
78.794399999999996
21
-93.7434999999999974
0
LINE
8
LYELLOW
6
CONTINUOUS
10
78.8344000000000023
20
-85.6354999999999933
11
78.8344000000000023
21
-93.7394999999999925
0
LINE
8
LYELLOW
6
CONTINUOUS
10
78.8743999999999943
20
-85.640500000000003
11
78.8743999999999943
21
-93.734499999999997
0
LINE
8
LYELLOW
6
CONTINUOUS
10
78.9144000000000005
20
-85.6454999999999984
11
78.9144000000000005
21
-93.7295000000000016
0
LINE
8
LYELLOW
6
CONTINUOUS
10
78.9543999999999926
20
-85.6514999999999986
11
78.9543999999999926
21
-93.7235000000000014
0
LINE
8
LYELLOW
6
CONTINUOUS
10
78.9943999999999988
20
-85.6574999999999989
11
78.9943999999999988
21
-93.7175000000000011
0
LINE
8
LYELLOW
6
CONTINUOUS
10
79.0343999999999909
20
-85.6644999999999897
11
79.0343999999999909
21
-93.7104999999999961
0
LINE
8
LYELLOW
6
CONTINUOUS
10
79.0743999999999971
20
-85.6704999999999899
11
79.0743999999999971
21
-88.6474999999999937
0
LINE
8
LYELLOW
6
CONTINUOUS
10
79.0743999999999971
20
-90.727499999999992
11
79.0743999999999971
21
-93.7044999999999959
0
LINE
8
LYELLOW
6
CONTINUOUS
10
79.1144000000000034
20
-85.6784999999999997
11
79.1144000000000034
21
-88.6474999999999937
0
LINE
8
LYELLOW
6
CONTINUOUS
10
79.1144000000000034
20
-90.727499999999992
11
79.1144000000000034
21
-93.6965000000000003
0
LINE
8
LYELLOW
6
CONTINUOUS
10
79.1543999999999954
20
-85.6854999999999905
11
79.1543999999999954
21
-88.6474999999999937
0
LINE
8
LYELLOW
6
CONTINUOUS
10
79.1543999999999954
20
-90.727499999999992
11
79.1543999999999954
21
-93.6894999999999953
0
LINE
8
LYELLOW
6
CONTINUOUS
10
79.1944000000000017
20
-85.6944999999999908
11
79.1944000000000017
21
-88.6474999999999937
0
LINE
8
LYELLOW
6
CONTINUOUS
10
79.1944000000000017
20
-90.727499999999992
11
79.1944000000000017
21
-93.680499999999995
0
LINE
8
LYELLOW
6
CONTINUOUS
10
79.2343999999999937
20
-85.7025000000000006
11
79.2343999999999937
21
-88.6474999999999937
0
LINE
8
LYELLOW
6
CONTINUOUS
10
79.2343999999999937
20
-90.727499999999992
11
79.2343999999999937
21
-93.6724999999999994
0
LINE
8
LYELLOW
6
CONTINUOUS
10
79.2744
20
-85.7115000000000009
11
79.2744
21
-88.6474999999999937
0
LINE
8
LYELLOW
6
CONTINUOUS
10
79.2744
20
-90.727499999999992
11
79.2744
21
-93.6634999999999991
0
LINE
8
LYELLOW
6
CONTINUOUS
10
79.314399999999992
20
-85.7205000000000013
11
79.314399999999992
21
-88.6474999999999937
0
LINE
8
LYELLOW
6
CONTINUOUS
10
79.314399999999992
20
-90.727499999999992
11
79.314399999999992
21
-93.6544999999999987
0
LINE
8
LYELLOW
6
CONTINUOUS
10
79.3543999999999983
20
-85.7304999999999922
11
79.3543999999999983
21
-88.6474999999999937
0
LINE
8
LYELLOW
6
CONTINUOUS
10
79.3543999999999983
20
-90.727499999999992
11
79.3543999999999983
21
-93.6444999999999936
0
LINE
8
LYELLOW
6
CONTINUOUS
10
79.3943999999999903
20
-85.7404999999999973
11
79.3943999999999903
21
-88.6474999999999937
0
LINE
8
LYELLOW
6
CONTINUOUS
10
79.3943999999999903
20
-90.727499999999992
11
79.3943999999999903
21
-93.6345000000000027
0
LINE
8
LYELLOW
6
CONTINUOUS
10
79.4343999999999966
20
-85.751499999999993
11
79.4343999999999966
21
-88.6474999999999937
0
LINE
8
LYELLOW
6
CONTINUOUS
10
79.4343999999999966
20
-90.727499999999992
11
79.4343999999999966
21
-93.6234999999999928
0
LINE
8
LYELLOW
6
CONTINUOUS
10
79.4744000000000028
20
-85.7625000000000028
11
79.4744000000000028
21
-88.6474999999999937
0
LINE
8
LYELLOW
6
CONTINUOUS
10
79.4744000000000028
20
-90.727499999999992
11
79.4744000000000028
21
-93.6124999999999972
0
LINE
8
LYELLOW
6
CONTINUOUS
10
79.5143999999999949
20
-85.7744999999999891
11
79.5143999999999949
21
-88.6474999999999937
0
LINE
8
LYELLOW
6
CONTINUOUS
10
79.5143999999999949
20
-90.727499999999992
11
79.5143999999999949
21
-93.6004999999999967
0
LINE
8
LYELLOW
6
CONTINUOUS
10
79.5544000000000011
20
-85.7864999999999895
11
79.5544000000000011
21
-88.6474999999999937
0
LINE
8
LYELLOW
6
CONTINUOUS
10
79.5544000000000011
20
-90.727499999999992
11
79.5544000000000011
21
-93.5884999999999962
0
LINE
8
LYELLOW
6
CONTINUOUS
10
79.5943999999999932
20
-85.79849999999999
11
79.5943999999999932
21
-88.6474999999999937
0
LINE
8
LYELLOW
6
CONTINUOUS
10
79.5943999999999932
20
-90.727499999999992
11
79.5943999999999932
21
-93.5764999999999958
0
LINE
8
LYELLOW
6
CONTINUOUS
10
79.6343999999999994
20
-85.8114999999999952
11
79.6343999999999994
21
-88.6474999999999937
0
LINE
8
LYELLOW
6
CONTINUOUS
10
79.6343999999999994
20
-90.727499999999992
11
79.6343999999999994
21
-93.5634999999999906
0
LINE
8
LYELLOW
6
CONTINUOUS
10
79.6743999999999915
20
-85.8245000000000005
11
79.6743999999999915
21
-88.6474999999999937
0
LINE
8
LYELLOW
6
CONTINUOUS
10
79.6743999999999915
20
-90.727499999999992
11
79.6743999999999915
21
-93.5504999999999995
0
LINE
8
LYELLOW
6
CONTINUOUS
10
79.7143999999999977
20
-85.8384999999999962
11
79.7143999999999977
21
-88.6474999999999937
0
LINE
8
LYELLOW
6
CONTINUOUS
10
79.7143999999999977
20
-90.727499999999992
11
79.7143999999999977
21
-93.5364999999999895
0
LINE
8
LYELLOW
6
CONTINUOUS
10
79.7543999999999897
20
-85.852499999999992
11
79.7543999999999897
21
-88.6474999999999937
0
LINE
8
LYELLOW
6
CONTINUOUS
10
79.7543999999999897
20
-90.727499999999992
11
79.7543999999999897
21
-93.5224999999999937
0
LINE
8
LYELLOW
6
CONTINUOUS
10
79.794399999999996
20
-85.8674999999999926
11
79.794399999999996
21
-88.6474999999999937
0
LINE
8
LYELLOW
6
CONTINUOUS
10
79.794399999999996
20
-90.727499999999992
11
79.794399999999996
21
-93.5074999999999932
0
LINE
8
LYELLOW
6
CONTINUOUS
10
79.8344000000000023
20
-85.8824999999999932
11
79.8344000000000023
21
-88.6474999999999937
0
LINE
8
LYELLOW
6
CONTINUOUS
10
79.8344000000000023
20
-90.727499999999992
11
79.8344000000000023
21
-93.4924999999999926
0
LINE
8
LYELLOW
6
CONTINUOUS
10
79.8743999999999943
20
-85.8984999999999985
11
79.8743999999999943
21
-88.6474999999999937
0
LINE
8
LYELLOW
6
CONTINUOUS
10
79.8743999999999943
20
-90.727499999999992
11
79.8743999999999943
21
-93.4765000000000015
0
LINE
8
LYELLOW
6
CONTINUOUS
10
79.9144000000000005
20
-85.9144999999999897
11
79.9144000000000005
21
-88.6474999999999937
0
LINE
8
LYELLOW
6
CONTINUOUS
10
79.9144000000000005
20
-90.727499999999992
11
79.9144000000000005
21
-93.4604999999999961
0
LINE
8
LYELLOW
6
CONTINUOUS
10
79.9543999999999926
20
-85.930499999999995
11
79.9543999999999926
21
-88.6474999999999937
0
LINE
8
LYELLOW
6
CONTINUOUS
10
79.9543999999999926
20
-90.727499999999992
11
79.9543999999999926
21
-93.4444999999999908
0
LINE
8
LYELLOW
6
CONTINUOUS
10
79.9943999999999988
20
-85.9474999999999909
11
79.9943999999999988
21
-88.6474999999999937
0
LINE
8
LYELLOW
6
CONTINUOUS
10
79.9943999999999988
20
-90.727499999999992
11
79.9943999999999988
21
-93.4274999999999949
0
LINE
8
LYELLOW
6
CONTINUOUS
10
80.0343999999999909
20
-85.9654999999999916
11
80.0343999999999909
21
-88.6474999999999937
0
LINE
8
LYELLOW
6
CONTINUOUS
10
80.0343999999999909
20
-90.727499999999992
11
80.0343999999999909
21
-93.4094999999999942
0
LINE
8
LYELLOW
6
CONTINUOUS
10
80.0743999999999971
20
-85.9834999999999923
11
80.0743999999999971
21
-88.6474999999999937
0
LINE
8
LYELLOW
6
CONTINUOUS
10
80.0743999999999971
20
-90.727499999999992
11
80.0743999999999971
21
-93.3914999999999935
0
LINE
8
LYELLOW
6
CONTINUOUS
10
80.1144000000000034
20
-86.0024999999999977
11
80.1144000000000034
21
-88.6474999999999937
0
LINE
8
LYELLOW
6
CONTINUOUS
10
80.1144000000000034
20
-90.727499999999992
11
80.1144000000000034
21
-93.3725000000000023
0
LINE
8
LYELLOW
6
CONTINUOUS
10
80.1543999999999954
20
-86.0215000000000032
11
80.1543999999999954
21
-88.6474999999999937
0
LINE
8
LYELLOW
6
CONTINUOUS
10
80.1543999999999954
20
-90.727499999999992
11
80.1543999999999954
21
-93.3534999999999968
0
LINE
8
LYELLOW
6
CONTINUOUS
10
80.1944000000000017
20
-86.0414999999999992
11
80.1944000000000017
21
-88.6474999999999937
0
LINE
8
LYELLOW
6
CONTINUOUS
10
80.1944000000000017
20
-90.727499999999992
11
80.1944000000000017
21
-93.3335000000000008
0
LINE
8
LYELLOW
6
CONTINUOUS
10
80.2343999999999937
20
-86.0614999999999952
11
80.2343999999999937
21
-88.6474999999999937
0
LINE
8
LYELLOW
6
CONTINUOUS
10
80.2343999999999937
20
-90.727499999999992
11
80.2343999999999937
21
-93.3134999999999906
0
LINE
8
LYELLOW
6
CONTINUOUS
10
80.2744
20
-86.082499999999996
11
80.2744
21
-88.6474999999999937
0
LINE
8
LYELLOW
6
CONTINUOUS
10
80.2744
20
-90.727499999999992
11
80.2744
21
-93.2924999999999898
0
LINE
8
LYELLOW
6
CONTINUOUS
10
80.314399999999992
20
-86.1034999999999968
11
80.314399999999992
21
-88.6474999999999937
0
LINE
8
LYELLOW
6
CONTINUOUS
10
80.314399999999992
20
-90.727499999999992
11
80.314399999999992
21
-93.271499999999989
0
LINE
8
LYELLOW
6
CONTINUOUS
10
80.3543999999999983
20
-86.1255000000000024
11
80.3543999999999983
21
-88.6474999999999937
0
LINE
8
LYELLOW
6
CONTINUOUS
10
80.3543999999999983
20
-90.727499999999992
11
80.3543999999999983
21
-93.2494999999999976
0
LINE
8
LYELLOW
6
CONTINUOUS
10
80.3943999999999903
20
-86.1484999999999985
11
80.3943999999999903
21
-88.6474999999999937
0
LINE
8
LYELLOW
6
CONTINUOUS
10
80.3943999999999903
20
-90.727499999999992
11
80.3943999999999903
21
-93.2265000000000015
0
LINE
8
LYELLOW
6
CONTINUOUS
10
80.4343999999999966
20
-86.1714999999999947
11
80.4343999999999966
21
-88.6474999999999937
0
LINE
8
LYELLOW
6
CONTINUOUS
10
80.4343999999999966
20
-90.727499999999992
11
80.4343999999999966
21
-93.2034999999999911
0
LINE
8
LYELLOW
6
CONTINUOUS
10
80.4744000000000028
20
-86.1944999999999908
11
80.4744000000000028
21
-88.6474999999999937
0
LINE
8
LYELLOW
6
CONTINUOUS
10
80.4744000000000028
20
-90.727499999999992
11
80.4744000000000028
21
-93.180499999999995
0
LINE
8
LYELLOW
6
CONTINUOUS
10
80.5143999999999949
20
-86.2194999999999965
11
80.5143999999999949
21
-88.6474999999999937
0
LINE
8
LYELLOW
6
CONTINUOUS
10
80.5143999999999949
20
-90.727499999999992
11
80.5143999999999949
21
-93.1554999999999893
0
LINE
8
LYELLOW
6
CONTINUOUS
10
80.5544000000000011
20
-86.2445000000000022
11
80.5544000000000011
21
-88.6474999999999937
0
LINE
8
LYELLOW
6
CONTINUOUS
10
80.5544000000000011
20
-90.727499999999992
11
80.5544000000000011
21
-93.1304999999999978
0
LINE
8
LYELLOW
6
CONTINUOUS
10
80.5943999999999932
20
-86.2694999999999936
11
80.5943999999999932
21
-88.6474999999999937
0
LINE
8
LYELLOW
6
CONTINUOUS
10
80.5943999999999932
20
-90.727499999999992
11
80.5943999999999932
21
-93.1054999999999922
0
LINE
8
LYELLOW
6
CONTINUOUS
10
80.6343999999999994
20
-86.2954999999999899
11
80.6343999999999994
21
-88.6474999999999937
0
LINE
8
LYELLOW
6
CONTINUOUS
10
80.6343999999999994
20
-90.727499999999992
11
80.6343999999999994
21
-93.0794999999999959
0
LINE
8
LYELLOW
6
CONTINUOUS
10
80.6743999999999915
20
-86.3224999999999909
11
80.6743999999999915
21
-88.6474999999999937
0
LINE
8
LYELLOW
6
CONTINUOUS
10
80.6743999999999915
20
-90.727499999999992
11
80.6743999999999915
21
-93.0524999999999949
0
LINE
8
LYELLOW
6
CONTINUOUS
10
80.7143999999999977
20
-86.3504999999999967
11
80.7143999999999977
21
-88.6474999999999937
0
LINE
8
LYELLOW
6
CONTINUOUS
10
80.7143999999999977
20
-90.727499999999992
11
80.7143999999999977
21
-93.0244999999999891
0
LINE
8
LYELLOW
6
CONTINUOUS
10
80.7543999999999897
20
-86.3785000000000025
11
80.7543999999999897
21
-88.6474999999999937
0
LINE
8
LYELLOW
6
CONTINUOUS
10
80.7543999999999897
20
-90.727499999999992
11
80.7543999999999897
21
-92.9964999999999975
0
LINE
8
LYELLOW
6
CONTINUOUS
10
80.794399999999996
20
-86.4074999999999989
11
80.794399999999996
21
-88.6474999999999937
0
LINE
8
LYELLOW
6
CONTINUOUS
10
80.794399999999996
20
-90.727499999999992
11
80.794399999999996
21
-92.9675000000000011
0
LINE
8
LYELLOW
6
CONTINUOUS
10
80.8344000000000023
20
-86.4375
11
80.8344000000000023
21
-88.6474999999999937
0
LINE
8
LYELLOW
6
CONTINUOUS
10
80.8344000000000023
20
-90.727499999999992
11
80.8344000000000023
21
-92.9375
0
LINE
8
LYELLOW
6
CONTINUOUS
10
80.8743999999999943
20
-86.4684999999999917
11
80.8743999999999943
21
-88.6474999999999937
0
LINE
8
LYELLOW
6
CONTINUOUS
10
80.8743999999999943
20
-90.727499999999992
11
80.8743999999999943
21
-92.9064999999999941
0
LINE
8
LYELLOW
6
CONTINUOUS
10
80.9144000000000005
20
-86.4994999999999976
11
80.9144000000000005
21
-88.6474999999999937
0
LINE
8
LYELLOW
6
CONTINUOUS
10
80.9144000000000005
20
-90.727499999999992
11
80.9144000000000005
21
-92.8755000000000024
0
LINE
8
LYELLOW
6
CONTINUOUS
10
80.9543999999999926
20
-86.5314999999999941
11
80.9543999999999926
21
-88.6474999999999937
0
LINE
8
LYELLOW
6
CONTINUOUS
10
80.9543999999999926
20
-90.727499999999992
11
80.9543999999999926
21
-92.8434999999999917
0
LINE
8
LYELLOW
6
CONTINUOUS
10
80.9943999999999988
20
-86.5644999999999953
11
80.9943999999999988
21
-88.6474999999999937
0
LINE
8
LYELLOW
6
CONTINUOUS
10
80.9943999999999988
20
-90.727499999999992
11
80.9943999999999988
21
-92.8104999999999905
0
LINE
8
LYELLOW
6
CONTINUOUS
10
81.0343999999999909
20
-86.5985000000000014
11
81.0343999999999909
21
-88.6474999999999937
0
LINE
8
LYELLOW
6
CONTINUOUS
10
81.0343999999999909
20
-90.727499999999992
11
81.0343999999999909
21
-92.7764999999999986
0
LINE
8
LYELLOW
6
CONTINUOUS
10
81.0743999999999971
20
-86.6324999999999932
11
81.0743999999999971
21
-88.6474999999999937
0
LINE
8
LYELLOW
6
CONTINUOUS
10
81.0743999999999971
20
-90.727499999999992
11
81.0743999999999971
21
-92.7424999999999926
0
LINE
8
LYELLOW
6
CONTINUOUS
10
81.1144000000000034
20
-86.6684999999999945
11
81.1144000000000034
21
-88.6474999999999937
0
LINE
8
LYELLOW
6
CONTINUOUS
10
81.1144000000000034
20
-90.727499999999992
11
81.1144000000000034
21
-92.7064999999999912
0
LINE
8
LYELLOW
6
CONTINUOUS
10
81.1543999999999954
20
-86.7055000000000007
11
81.1543999999999954
21
-92.6694999999999993
0
LINE
8
LYELLOW
6
CONTINUOUS
10
81.1944000000000017
20
-86.7424999999999926
11
81.1944000000000017
21
-92.6324999999999932
0
LINE
8
LYELLOW
6
CONTINUOUS
10
81.2343999999999937
20
-86.7814999999999941
11
81.2343999999999937
21
-92.5934999999999917
0
LINE
8
LYELLOW
6
CONTINUOUS
10
81.2744
20
-86.8204999999999956
11
81.2744
21
-92.5544999999999902
0
LINE
8
LYELLOW
6
CONTINUOUS
10
81.314399999999992
20
-86.8614999999999924
11
81.314399999999992
21
-92.5134999999999934
0
LINE
8
LYELLOW
6
CONTINUOUS
10
81.3543999999999983
20
-86.903499999999994
11
81.3543999999999983
21
-92.4714999999999918
0
LINE
8
LYELLOW
6
CONTINUOUS
10
81.3943999999999903
20
-86.9465000000000003
11
81.3943999999999903
21
-92.4284999999999997
0
LINE
8
LYELLOW
6
CONTINUOUS
10
81.4343999999999966
20
-86.991500000000002
11
81.4343999999999966
21
-92.383499999999998
0
LINE
8
LYELLOW
6
CONTINUOUS
10
81.4744000000000028
20
-87.0364999999999895
11
81.4744000000000028
21
-92.3384999999999962
0
LINE
8
LYELLOW
6
CONTINUOUS
10
81.5143999999999949
20
-87.0835000000000008
11
81.5143999999999949
21
-92.2914999999999992
0
LINE
8
LYELLOW
6
CONTINUOUS
10
81.5544000000000011
20
-87.1324999999999932
11
81.5544000000000011
21
-92.2424999999999926
0
LINE
8
LYELLOW
6
CONTINUOUS
10
81.5943999999999932
20
-87.1824999999999903
11
81.5943999999999932
21
-92.1924999999999955
0
LINE
8
LYELLOW
6
CONTINUOUS
10
81.6343999999999994
20
-87.234499999999997
11
81.6343999999999994
21
-92.1404999999999887
0
LINE
8
LYELLOW
6
CONTINUOUS
10
81.6743999999999915
20
-87.2874999999999943
11
81.6743999999999915
21
-92.0874999999999915
0
LINE
8
LYELLOW
6
CONTINUOUS
10
81.7143999999999977
20
-87.3434999999999917
11
81.7143999999999977
21
-92.0314999999999941
0
LINE
8
LYELLOW
6
CONTINUOUS
10
81.7543999999999897
20
-87.4004999999999939
11
81.7543999999999897
21
-91.9744999999999919
0
LINE
8
LYELLOW
6
CONTINUOUS
10
81.794399999999996
20
-87.4604999999999961
11
81.794399999999996
21
-91.9144999999999897
0
LINE
8
LYELLOW
6
CONTINUOUS
10
81.8344000000000023
20
-87.5224999999999937
11
81.8344000000000023
21
-91.852499999999992
0
LINE
8
LYELLOW
6
CONTINUOUS
10
81.8743999999999943
20
-87.5865000000000009
11
81.8743999999999943
21
-91.7884999999999991
0
LINE
8
LYELLOW
6
CONTINUOUS
10
81.9144000000000005
20
-87.653499999999994
11
81.9144000000000005
21
-91.7214999999999918
0
LINE
8
LYELLOW
6
CONTINUOUS
10
81.9543999999999926
20
-87.7235000000000014
11
81.9543999999999926
21
-91.6514999999999986
0
LINE
8
LYELLOW
6
CONTINUOUS
10
81.9943999999999988
20
-87.7974999999999994
11
81.9943999999999988
21
-91.5775000000000006
0
LINE
8
LYELLOW
6
CONTINUOUS
10
82.0343999999999909
20
-87.8744999999999976
11
82.0343999999999909
21
-91.5005000000000024
0
LINE
8
LYELLOW
6
CONTINUOUS
10
82.0743999999999971
20
-87.9564999999999912
11
82.0743999999999971
21
-91.4184999999999945
0
LINE
8
LYELLOW
6
CONTINUOUS
10
82.1144000000000034
20
-88.0434999999999945
11
82.1144000000000034
21
-91.3314999999999912
0
LINE
8
LYELLOW
6
CONTINUOUS
10
82.1543999999999954
20
-88.1354999999999933
11
82.1543999999999954
21
-91.2394999999999925
0
LINE
8
LYELLOW
6
CONTINUOUS
10
82.1944000000000017
20
-88.234499999999997
11
82.1944000000000017
21
-91.140500000000003
0
LINE
8
LYELLOW
6
CONTINUOUS
10
82.2343999999999937
20
-88.3414999999999964
11
82.2343999999999937
21
-91.0334999999999894
0
LINE
8
LYELLOW
6
CONTINUOUS
10
82.2744
20
-88.4594999999999914
11
82.2744
21
-90.9154999999999944
0
LINE
8
LYELLOW
6
CONTINUOUS
10
82.314399999999992
20
-88.5904999999999916
11
82.314399999999992
21
-90.7844999999999942
0
LINE
8
LYELLOW
6
CONTINUOUS
10
82.3543999999999983
20
-88.7404999999999973
11
82.3543999999999983
21
-90.6345000000000027
0
LINE
8
LYELLOW
6
CONTINUOUS
10
82.3943999999999903
20
-88.9194999999999993
11
82.3943999999999903
21
-90.4555000000000007
0
LINE
8
LYELLOW
6
CONTINUOUS
10
82.4343999999999966
20
-89.1544999999999987
11
82.4343999999999966
21
-90.2205000000000013
0
CIRCLE
8
LYELLOW
10
78.3543999999999983
20
-89.6875
40
4.1200000000000001
0
LINE
8
LYELLOW
6
CONTINUOUS
10
44.7349999999999994
20
-102.0274999999999892
11
54.9549999999999983
21
-102.0274999999999892
0
LINE
8
LYELLOW
6
CONTINUOUS
10
44.7349999999999994
20
-103.4074999999999989
11
54.9549999999999983
21
-103.4074999999999989
0
LINE
8
LYELLOW
6
CONTINUOUS
10
44.7349999999999994
20
-106.6474999999999937
11
44.7349999999999994
21
-102.0274999999999892
0
LINE
8
LYELLOW
6
CONTINUOUS
10
47.9949999999999974
20
-102.0274999999999892
11
47.9949999999999974
21
-103.4074999999999989
0
LINE
8
LYELLOW
6
CONTINUOUS
10
51.6950000000000003
20
-102.0274999999999892
11
51.6950000000000003
21
-103.4074999999999989
0
LINE
8
LYELLOW
6
CONTINUOUS
10
54.9549999999999983
20
-102.0274999999999892
11
54.9549999999999983
21
-106.6474999999999937
0
LINE
8
LYELLOW
6
CONTINUOUS
10
54.9549999999999983
20
-106.6474999999999937
11
44.7349999999999994
21
-106.6474999999999937
0
LINE
8
LYELLOW
6
CONTINUOUS
10
91.2749999999999915
20
-102.9675000000000011
11
97.8149999999999977
21
-102.9675000000000011
0
LINE
8
LYELLOW
6
CONTINUOUS
10
91.2749999999999915
20
-103.2974999999999994
11
91.2749999999999915
21
-102.9675000000000011
0
LINE
8
LYELLOW
6
CONTINUOUS
10
91.2749999999999915
20
-105.3774999999999977
11
91.2749999999999915
21
-105.707499999999996
0
LINE
8
LYELLOW
6
CONTINUOUS
10
91.2749999999999915
20
-105.707499999999996
11
97.8149999999999977
21
-105.707499999999996
0
LINE
8
LYELLOW
6
CONTINUOUS
10
97.8149999999999977
20
-102.9675000000000011
11
97.8149999999999977
21
-103.2974999999999994
0
LINE
8
LYELLOW
6
CONTINUOUS
10
97.8149999999999977
20
-105.707499999999996
11
97.8149999999999977
21
-105.3774999999999977
0
LINE
8
LYELLOW
6
CONTINUOUS
10
27.6899999999999977
20
-47.2175000000000011
11
27.6899999999999977
21
-44.5674999999999955
0
LINE
8
LYELLOW
6
CONTINUOUS
10
30.4499999999999993
20
-44.5674999999999955
11
27.6899999999999977
21
-44.5674999999999955
0
LINE
8
LYELLOW
6
CONTINUOUS
10
30.4499999999999993
20
-47.2175000000000011
11
27.6899999999999977
21
-47.2175000000000011
0
LINE
8
LYELLOW
6
CONTINUOUS
10
30.4499999999999993
20
-47.2175000000000011
11
30.4499999999999993
21
-44.5674999999999955
0
LINE
8
LYELLOW
6
CONTINUOUS
10
30.4499999999999993
20
-48.4874999999999972
11
30.4499999999999993
21
-49.8674999999999997
0
LINE
8
LYELLOW
6
CONTINUOUS
10
30.4499999999999993
20
-49.8674999999999997
11
29.0700000000000003
21
-49.8674999999999997
0
LINE
8
LYELLOW
6
CONTINUOUS
10
65.1949999999999932
20
-38.2875000000000014
11
66.2150000000000034
21
-38.2875000000000014
0
LINE
8
LYELLOW
6
CONTINUOUS
10
66.9949999999999903
20
-36.8174999999999955
11
66.9949999999999903
21
-39.7575000000000003
0
LINE
8
LYELLOW
6
CONTINUOUS
10
67.1149999999999949
20
-36.8174999999999955
11
67.1149999999999949
21
-39.7575000000000003
0
LINE
8
LYELLOW
6
CONTINUOUS
10
67.2349999999999994
20
-36.8174999999999955
11
67.2349999999999994
21
-39.7575000000000003
0
LINE
8
LYELLOW
6
CONTINUOUS
10
72.6749999999999972
20
-38.2875000000000014
11
71.6550000000000011
21
-38.2875000000000014
0
LINE
8
LYELLOW
6
CONTINUOUS
10
66.2150000000000034
20
-36.8174999999999955
11
71.6550000000000011
21
-36.8174999999999955
0
LINE
8
LYELLOW
6
CONTINUOUS
10
71.6550000000000011
20
-36.8174999999999955
11
71.6550000000000011
21
-39.7575000000000003
0
LINE
8
LYELLOW
6
CONTINUOUS
10
71.6550000000000011
20
-39.7575000000000003
11
66.2150000000000034
21
-39.7575000000000003
0
LINE
8
LYELLOW
6
CONTINUOUS
10
66.2150000000000034
20
-39.7575000000000003
11
66.2150000000000034
21
-36.8174999999999955
0
LINE
8
LYELLOW
6
CONTINUOUS
10
88.5844000000000023
20
-88.3174999999999955
11
93.8243999999999971
21
-88.3174999999999955
0
LINE
8
LYELLOW
6
CONTINUOUS
10
88.5844000000000023
20
-88.6544999999999987
11
88.5844000000000023
21
-88.3174999999999955
0
LINE
8
LYELLOW
6
CONTINUOUS
10
88.5844000000000023
20
-91.0574999999999903
11
88.5844000000000023
21
-90.7205000000000013
0
LINE
8
LYELLOW
6
CONTINUOUS
10
93.8243999999999971
20
-88.3174999999999955
11
93.8243999999999971
21
-88.6544999999999987
0
LINE
8
LYELLOW
6
CONTINUOUS
10
93.8243999999999971
20
-90.7205000000000013
11
93.8243999999999971
21
-91.0574999999999903
0
LINE
8
LYELLOW
6
CONTINUOUS
10
93.8243999999999971
20
-91.0574999999999903
11
88.5844000000000023
21
-91.0574999999999903
0
LINE
8
LYELLOW
6
CONTINUOUS
10
76.5049999999999955
20
-102.9675000000000011
11
83.0450000000000017
21
-102.9675000000000011
0
LINE
8
LYELLOW
6
CONTINUOUS
10
76.5049999999999955
20
-103.2974999999999994
11
76.5049999999999955
21
-102.9675000000000011
0
LINE
8
LYELLOW
6
CONTINUOUS
10
76.5049999999999955
20
-105.3774999999999977
11
76.5049999999999955
21
-105.707499999999996
0
LINE
8
LYELLOW
6
CONTINUOUS
10
76.5049999999999955
20
-105.707499999999996
11
83.0450000000000017
21
-105.707499999999996
0
LINE
8
LYELLOW
6
CONTINUOUS
10
83.0450000000000017
20
-102.9675000000000011
11
83.0450000000000017
21
-103.2974999999999994
0
LINE
8
LYELLOW
6
CONTINUOUS
10
83.0450000000000017
20
-105.707499999999996
11
83.0450000000000017
21
-105.3774999999999977
0
LINE
8
LYELLOW
6
CONTINUOUS
10
109.8499999999999943
20
-43.4024999999999963
11
109.8499999999999943
21
-51.0225000000000009
0
LINE
8
LYELLOW
6
CONTINUOUS
10
109.8499999999999943
20
-51.0225000000000009
11
120.0099999999999909
21
-51.0225000000000009
0
LINE
8
LYELLOW
6
CONTINUOUS
10
120.0099999999999909
20
-43.4024999999999963
11
109.8499999999999943
21
-43.4024999999999963
0
LINE
8
LYELLOW
6
CONTINUOUS
10
120.0099999999999909
20
-49.7524999999999977
11
109.8499999999999943
21
-49.7524999999999977
0
LINE
8
LYELLOW
6
CONTINUOUS
10
120.0099999999999909
20
-51.0225000000000009
11
120.0099999999999909
21
-43.4024999999999963
0
LINE
8
LYELLOW
6
CONTINUOUS
10
60.2000019999999978
20
-87.3725000000000023
11
61.000001999999995
21
-87.3725000000000023
0
LINE
8
LYELLOW
6
CONTINUOUS
10
60.6000019999999964
20
-86.9724999999999966
11
60.6000019999999964
21
-87.7724999999999937
0
LINE
8
LYELLOW
6
CONTINUOUS
10
64.6097000000000037
20
-85.6075000000000017
11
64.6097000000000037
21
-93.7674999999999983
0
LINE
8
LYELLOW
6
CONTINUOUS
10
64.6496999999999957
20
-85.6075000000000017
11
64.6496999999999957
21
-93.7674999999999983
0
LINE
8
LYELLOW
6
CONTINUOUS
10
64.689700000000002
20
-85.6084999999999923
11
64.689700000000002
21
-93.7664999999999935
0
LINE
8
LYELLOW
6
CONTINUOUS
10
64.729699999999994
20
-85.609499999999997
11
64.729699999999994
21
-93.7654999999999887
0
LINE
8
LYELLOW
6
CONTINUOUS
10
64.7697000000000003
20
-85.6105000000000018
11
64.7697000000000003
21
-93.7644999999999982
0
LINE
8
LYELLOW
6
CONTINUOUS
10
64.8096999999999923
20
-85.6124999999999972
11
64.8096999999999923
21
-93.7625000000000028
0
LINE
8
LYELLOW
6
CONTINUOUS
10
64.8496999999999986
20
-85.6144999999999925
11
64.8496999999999986
21
-93.7604999999999933
0
LINE
8
LYELLOW
6
CONTINUOUS
10
64.8896999999999906
20
-85.6174999999999926
11
64.8896999999999906
21
-93.7574999999999932
0
LINE
8
LYELLOW
6
CONTINUOUS
10
64.9296999999999969
20
-85.6195000000000022
11
64.9296999999999969
21
-93.7554999999999978
0
LINE
8
LYELLOW
6
CONTINUOUS
10
64.9697000000000031
20
-85.6234999999999928
11
64.9697000000000031
21
-93.751499999999993
0
LINE
8
LYELLOW
6
CONTINUOUS
10
65.0096999999999952
20
-85.626499999999993
11
65.0096999999999952
21
-93.7484999999999928
0
LINE
8
LYELLOW
6
CONTINUOUS
10
65.0497000000000014
20
-85.6315000000000026
11
65.0497000000000014
21
-93.7434999999999974
0
LINE
8
LYELLOW
6
CONTINUOUS
10
65.0896999999999935
20
-85.6354999999999933
11
65.0896999999999935
21
-93.7394999999999925
0
LINE
8
LYELLOW
6
CONTINUOUS
10
65.1296999999999997
20
-85.640500000000003
11
65.1296999999999997
21
-93.734499999999997
0
LINE
8
LYELLOW
6
CONTINUOUS
10
65.1696999999999917
20
-85.6454999999999984
11
65.1696999999999917
21
-93.7295000000000016
0
LINE
8
LYELLOW
6
CONTINUOUS
10
65.209699999999998
20
-85.6514999999999986
11
65.209699999999998
21
-93.7235000000000014
0
LINE
8
LYELLOW
6
CONTINUOUS
10
65.24969999999999
20
-85.6574999999999989
11
65.24969999999999
21
-93.7175000000000011
0
LINE
8
LYELLOW
6
CONTINUOUS
10
65.2896999999999963
20
-85.6644999999999897
11
65.2896999999999963
21
-93.7104999999999961
0
LINE
8
LYELLOW
6
CONTINUOUS
10
65.3297000000000025
20
-85.6704999999999899
11
65.3297000000000025
21
-88.6474999999999937
0
LINE
8
LYELLOW
6
CONTINUOUS
10
65.3297000000000025
20
-90.727499999999992
11
65.3297000000000025
21
-93.7044999999999959
0
LINE
8
LYELLOW
6
CONTINUOUS
10
65.3696999999999946
20
-85.6784999999999997
11
65.3696999999999946
21
-88.6474999999999937
0
LINE
8
LYELLOW
6
CONTINUOUS
10
65.3696999999999946
20
-90.727499999999992
11
65.3696999999999946
21
-93.6965000000000003
0
LINE
8
LYELLOW
6
CONTINUOUS
10
65.4097000000000008
20
-85.6854999999999905
11
65.4097000000000008
21
-88.6474999999999937
0
LINE
8
LYELLOW
6
CONTINUOUS
10
65.4097000000000008
20
-90.727499999999992
11
65.4097000000000008
21
-93.6894999999999953
0
LINE
8
LYELLOW
6
CONTINUOUS
10
65.4496999999999929
20
-85.6944999999999908
11
65.4496999999999929
21
-88.6474999999999937
0
LINE
8
LYELLOW
6
CONTINUOUS
10
65.4496999999999929
20
-90.727499999999992
11
65.4496999999999929
21
-93.680499999999995
0
LINE
8
LYELLOW
6
CONTINUOUS
10
65.4896999999999991
20
-85.7025000000000006
11
65.4896999999999991
21
-88.6474999999999937
0
LINE
8
LYELLOW
6
CONTINUOUS
10
65.4896999999999991
20
-90.727499999999992
11
65.4896999999999991
21
-93.6724999999999994
0
LINE
8
LYELLOW
6
CONTINUOUS
10
65.5296999999999912
20
-85.7115000000000009
11
65.5296999999999912
21
-88.6474999999999937
0
LINE
8
LYELLOW
6
CONTINUOUS
10
65.5296999999999912
20
-90.727499999999992
11
65.5296999999999912
21
-93.6634999999999991
0
LINE
8
LYELLOW
6
CONTINUOUS
10
65.5696999999999974
20
-85.7205000000000013
11
65.5696999999999974
21
-88.6474999999999937
0
LINE
8
LYELLOW
6
CONTINUOUS
10
65.5696999999999974
20
-90.727499999999992
11
65.5696999999999974
21
-93.6544999999999987
0
LINE
8
LYELLOW
6
CONTINUOUS
10
65.6097000000000037
20
-85.7304999999999922
11
65.6097000000000037
21
-88.6474999999999937
0
LINE
8
LYELLOW
6
CONTINUOUS
10
65.6097000000000037
20
-90.727499999999992
11
65.6097000000000037
21
-93.6444999999999936
0
LINE
8
LYELLOW
6
CONTINUOUS
10
65.6496999999999957
20
-85.7404999999999973
11
65.6496999999999957
21
-88.6474999999999937
0
LINE
8
LYELLOW
6
CONTINUOUS
10
65.6496999999999957
20
-90.727499999999992
11
65.6496999999999957
21
-93.6345000000000027
0
LINE
8
LYELLOW
6
CONTINUOUS
10
65.689700000000002
20
-85.751499999999993
11
65.689700000000002
21
-88.6474999999999937
0
LINE
8
LYELLOW
6
CONTINUOUS
10
65.689700000000002
20
-90.727499999999992
11
65.689700000000002
21
-93.6234999999999928
0
LINE
8
LYELLOW
6
CONTINUOUS
10
65.729699999999994
20
-85.7625000000000028
11
65.729699999999994
21
-88.6474999999999937
0
LINE
8
LYELLOW
6
CONTINUOUS
10
65.729699999999994
20
-90.727499999999992
11
65.729699999999994
21
-93.6124999999999972
0
LINE
8
LYELLOW
6
CONTINUOUS
10
65.7697000000000003
20
-85.7744999999999891
11
65.7697000000000003
21
-88.6474999999999937
0
LINE
8
LYELLOW
6
CONTINUOUS
10
65.7697000000000003
20
-90.727499999999992
11
65.7697000000000003
21
-93.6004999999999967
0
LINE
8
LYELLOW
6
CONTINUOUS
10
65.8096999999999923
20
-85.7864999999999895
11
65.8096999999999923
21
-88.6474999999999937
0
LINE
8
LYELLOW
6
CONTINUOUS
10
65.8096999999999923
20
-90.727499999999992
11
65.8096999999999923
21
-93.5884999999999962
0
LINE
8
LYELLOW
6
CONTINUOUS
10
65.8496999999999986
20
-85.79849999999999
11
65.8496999999999986
21
-88.6474999999999937
0
LINE
8
LYELLOW
6
CONTINUOUS
10
65.8496999999999986
20
-90.727499999999992
11
65.8496999999999986
21
-93.5764999999999958
0
LINE
8
LYELLOW
6
CONTINUOUS
10
65.8896999999999906
20
-85.8114999999999952
11
65.8896999999999906
21
-88.6474999999999937
0
LINE
8
LYELLOW
6
CONTINUOUS
10
65.8896999999999906
20
-90.727499999999992
11
65.8896999999999906
21
-93.5634999999999906
0
LINE
8
LYELLOW
6
CONTINUOUS
10
65.9296999999999969
20
-85.8245000000000005
11
65.9296999999999969
21
-88.6474999999999937
0
LINE
8
LYELLOW
6
CONTINUOUS
10
65.9296999999999969
20
-90.727499999999992
11
65.9296999999999969
21
-93.5504999999999995
0
LINE
8
LYELLOW
6
CONTINUOUS
10
65.9697000000000031
20
-85.8384999999999962
11
65.9697000000000031
21
-88.6474999999999937
0
LINE
8
LYELLOW
6
CONTINUOUS
10
65.9697000000000031
20
-90.727499999999992
11
65.9697000000000031
21
-93.5364999999999895
0
LINE
8
LYELLOW
6
CONTINUOUS
10
66.0096999999999952
20
-85.852499999999992
11
66.0096999999999952
21
-88.6474999999999937
0
LINE
8
LYELLOW
6
CONTINUOUS
10
66.0096999999999952
20
-90.727499999999992
11
66.0096999999999952
21
-93.5224999999999937
0
LINE
8
LYELLOW
6
CONTINUOUS
10
66.0497000000000014
20
-85.8674999999999926
11
66.0497000000000014
21
-88.6474999999999937
0
LINE
8
LYELLOW
6
CONTINUOUS
10
66.0497000000000014
20
-90.727499999999992
11
66.0497000000000014
21
-93.5074999999999932
0
LINE
8
LYELLOW
6
CONTINUOUS
10
66.0896999999999935
20
-85.8824999999999932
11
66.0896999999999935
21
-88.6474999999999937
0
LINE
8
LYELLOW
6
CONTINUOUS
10
66.0896999999999935
20
-90.727499999999992
11
66.0896999999999935
21
-93.4924999999999926
0
LINE
8
LYELLOW
6
CONTINUOUS
10
66.1296999999999997
20
-85.8984999999999985
11
66.1296999999999997
21
-88.6474999999999937
0
LINE
8
LYELLOW
6
CONTINUOUS
10
66.1296999999999997
20
-90.727499999999992
11
66.1296999999999997
21
-93.4765000000000015
0
LINE
8
LYELLOW
6
CONTINUOUS
10
66.1696999999999917
20
-85.9144999999999897
11
66.1696999999999917
21
-88.6474999999999937
0
LINE
8
LYELLOW
6
CONTINUOUS
10
66.1696999999999917
20
-90.727499999999992
11
66.1696999999999917
21
-93.4604999999999961
0
LINE
8
LYELLOW
6
CONTINUOUS
10
66.209699999999998
20
-85.930499999999995
11
66.209699999999998
21
-88.6474999999999937
0
LINE
8
LYELLOW
6
CONTINUOUS
10
66.209699999999998
20
-90.727499999999992
11
66.209699999999998
21
-93.4444999999999908
0
LINE
8
LYELLOW
6
CONTINUOUS
10
66.24969999999999
20
-85.9474999999999909
11
66.24969999999999
21
-88.6474999999999937
0
LINE
8
LYELLOW
6
CONTINUOUS
10
66.24969999999999
20
-90.727499999999992
11
66.24969999999999
21
-93.4274999999999949
0
LINE
8
LYELLOW
6
CONTINUOUS
10
66.2896999999999963
20
-85.9654999999999916
11
66.2896999999999963
21
-88.6474999999999937
0
LINE
8
LYELLOW
6
CONTINUOUS
10
66.2896999999999963
20
-90.727499999999992
11
66.2896999999999963
21
-93.4094999999999942
0
LINE
8
LYELLOW
6
CONTINUOUS
10
66.3297000000000025
20
-85.9834999999999923
11
66.3297000000000025
21
-88.6474999999999937
0
LINE
8
LYELLOW
6
CONTINUOUS
10
66.3297000000000025
20
-90.727499999999992
11
66.3297000000000025
21
-93.3914999999999935
0
LINE
8
LYELLOW
6
CONTINUOUS
10
66.3696999999999946
20
-86.0024999999999977
11
66.3696999999999946
21
-88.6474999999999937
0
LINE
8
LYELLOW
6
CONTINUOUS
10
66.3696999999999946
20
-90.727499999999992
11
66.3696999999999946
21
-93.3725000000000023
0
LINE
8
LYELLOW
6
CONTINUOUS
10
66.4097000000000008
20
-86.0215000000000032
11
66.4097000000000008
21
-88.6474999999999937
0
LINE
8
LYELLOW
6
CONTINUOUS
10
66.4097000000000008
20
-90.727499999999992
11
66.4097000000000008
21
-93.3534999999999968
0
LINE
8
LYELLOW
6
CONTINUOUS
10
66.4496999999999929
20
-86.0414999999999992
11
66.4496999999999929
21
-88.6474999999999937
0
LINE
8
LYELLOW
6
CONTINUOUS
10
66.4496999999999929
20
-90.727499999999992
11
66.4496999999999929
21
-93.3335000000000008
0
LINE
8
LYELLOW
6
CONTINUOUS
10
66.4896999999999991
20
-86.0614999999999952
11
66.4896999999999991
21
-88.6474999999999937
0
LINE
8
LYELLOW
6
CONTINUOUS
10
66.4896999999999991
20
-90.727499999999992
11
66.4896999999999991
21
-93.3134999999999906
0
LINE
8
LYELLOW
6
CONTINUOUS
10
66.5296999999999912
20
-86.082499999999996
11
66.5296999999999912
21
-88.6474999999999937
0
LINE
8
LYELLOW
6
CONTINUOUS
10
66.5296999999999912
20
-90.727499999999992
11
66.5296999999999912
21
-93.2924999999999898
0
LINE
8
LYELLOW
6
CONTINUOUS
10
66.5696999999999974
20
-86.1034999999999968
11
66.5696999999999974
21
-88.6474999999999937
0
LINE
8
LYELLOW
6
CONTINUOUS
10
66.5696999999999974
20
-90.727499999999992
11
66.5696999999999974
21
-93.271499999999989
0
LINE
8
LYELLOW
6
CONTINUOUS
10
66.6097000000000037
20
-86.1255000000000024
11
66.6097000000000037
21
-88.6474999999999937
0
LINE
8
LYELLOW
6
CONTINUOUS
10
66.6097000000000037
20
-90.727499999999992
11
66.6097000000000037
21
-93.2494999999999976
0
LINE
8
LYELLOW
6
CONTINUOUS
10
66.6496999999999957
20
-86.1484999999999985
11
66.6496999999999957
21
-88.6474999999999937
0
LINE
8
LYELLOW
6
CONTINUOUS
10
66.6496999999999957
20
-90.727499999999992
11
66.6496999999999957
21
-93.2265000000000015
0
LINE
8
LYELLOW
6
CONTINUOUS
10
66.689700000000002
20
-86.1714999999999947
11
66.689700000000002
21
-88.6474999999999937
0
LINE
8
LYELLOW
6
CONTINUOUS
10
66.689700000000002
20
-90.727499999999992
11
66.689700000000002
21
-93.2034999999999911
0
LINE
8
LYELLOW
6
CONTINUOUS
10
66.729699999999994
20
-86.1944999999999908
11
66.729699999999994
21
-88.6474999999999937
0
LINE
8
LYELLOW
6
CONTINUOUS
10
66.729699999999994
20
-90.727499999999992
11
66.729699999999994
21
-93.180499999999995
0
LINE
8
LYELLOW
6
CONTINUOUS
10
66.7697000000000003
20
-86.2194999999999965
11
66.7697000000000003
21
-88.6474999999999937
0
LINE
8
LYELLOW
6
CONTINUOUS
10
66.7697000000000003
20
-90.727499999999992
11
66.7697000000000003
21
-93.1554999999999893
0
LINE
8
LYELLOW
6
CONTINUOUS
10
66.8096999999999923
20
-86.2445000000000022
11
66.8096999999999923
21
-88.6474999999999937
0
LINE
8
LYELLOW
6
CONTINUOUS
10
66.8096999999999923
20
-90.727499999999992
11
66.8096999999999923
21
-93.1304999999999978
0
LINE
8
LYELLOW
6
CONTINUOUS
10
66.8496999999999986
20
-86.2694999999999936
11
66.8496999999999986
21
-88.6474999999999937
0
LINE
8
LYELLOW
6
CONTINUOUS
10
66.8496999999999986
20
-90.727499999999992
11
66.8496999999999986
21
-93.1054999999999922
0
LINE
8
LYELLOW
6
CONTINUOUS
10
66.8896999999999906
20
-86.2954999999999899
11
66.8896999999999906
21
-88.6474999999999937
0
LINE
8
LYELLOW
6
CONTINUOUS
10
66.8896999999999906
20
-90.727499999999992
11
66.8896999999999906
21
-93.0794999999999959
0
LINE
8
LYELLOW
6
CONTINUOUS
10
66.9296999999999969
20
-86.3224999999999909
11
66.9296999999999969
21
-88.6474999999999937
0
LINE
8
LYELLOW
6
CONTINUOUS
10
66.9296999999999969
20
-90.727499999999992
11
66.9296999999999969
21
-93.0524999999999949
0
LINE
8
LYELLOW
6
CONTINUOUS
10
66.9697000000000031
20
-86.3504999999999967
11
66.9697000000000031
21
-88.6474999999999937
0
LINE
8
LYELLOW
6
CONTINUOUS
10
66.9697000000000031
20
-90.727499999999992
11
66.9697000000000031
21
-93.0244999999999891
0
LINE
8
LYELLOW
6
CONTINUOUS
10
67.0096999999999952
20
-86.3785000000000025
11
67.0096999999999952
21
-88.6474999999999937
0
LINE
8
LYELLOW
6
CONTINUOUS
10
67.0096999999999952
20
-90.727499999999992
11
67.0096999999999952
21
-92.9964999999999975
0
LINE
8
LYELLOW
6
CONTINUOUS
10
67.0497000000000014
20
-86.4074999999999989
11
67.0497000000000014
21
-88.6474999999999937
0
LINE
8
LYELLOW
6
CONTINUOUS
10
67.0497000000000014
20
-90.727499999999992
11
67.0497000000000014
21
-92.9675000000000011
0
LINE
8
LYELLOW
6
CONTINUOUS
10
67.0896999999999935
20
-86.4375
11
67.0896999999999935
21
-88.6474999999999937
0
LINE
8
LYELLOW
6
CONTINUOUS
10
67.0896999999999935
20
-90.727499999999992
11
67.0896999999999935
21
-92.9375
0
LINE
8
LYELLOW
6
CONTINUOUS
10
67.1296999999999997
20
-86.4684999999999917
11
67.1296999999999997
21
-88.6474999999999937
0
LINE
8
LYELLOW
6
CONTINUOUS
10
67.1296999999999997
20
-90.727499999999992
11
67.1296999999999997
21
-92.9064999999999941
0
LINE
8
LYELLOW
6
CONTINUOUS
10
67.1696999999999917
20
-86.4994999999999976
11
67.1696999999999917
21
-88.6474999999999937
0
LINE
8
LYELLOW
6
CONTINUOUS
10
67.1696999999999917
20
-90.727499999999992
11
67.1696999999999917
21
-92.8755000000000024
0
LINE
8
LYELLOW
6
CONTINUOUS
10
67.209699999999998
20
-86.5314999999999941
11
67.209699999999998
21
-88.6474999999999937
0
LINE
8
LYELLOW
6
CONTINUOUS
10
67.209699999999998
20
-90.727499999999992
11
67.209699999999998
21
-92.8434999999999917
0
LINE
8
LYELLOW
6
CONTINUOUS
10
67.24969999999999
20
-86.5644999999999953
11
67.24969999999999
21
-88.6474999999999937
0
LINE
8
LYELLOW
6
CONTINUOUS
10
67.24969999999999
20
-90.727499999999992
11
67.24969999999999
21
-92.8104999999999905
0
LINE
8
LYELLOW
6
CONTINUOUS
10
67.2896999999999963
20
-86.5985000000000014
11
67.2896999999999963
21
-88.6474999999999937
0
LINE
8
LYELLOW
6
CONTINUOUS
10
67.2896999999999963
20
-90.727499999999992
11
67.2896999999999963
21
-92.7764999999999986
0
LINE
8
LYELLOW
6
CONTINUOUS
10
67.3297000000000025
20
-86.6324999999999932
11
67.3297000000000025
21
-88.6474999999999937
0
LINE
8
LYELLOW
6
CONTINUOUS
10
67.3297000000000025
20
-90.727499999999992
11
67.3297000000000025
21
-92.7424999999999926
0
LINE
8
LYELLOW
6
CONTINUOUS
10
67.3696999999999946
20
-86.6684999999999945
11
67.3696999999999946
21
-88.6474999999999937
0
LINE
8
LYELLOW
6
CONTINUOUS
10
67.3696999999999946
20
-90.727499999999992
11
67.3696999999999946
21
-92.7064999999999912
0
LINE
8
LYELLOW
6
CONTINUOUS
10
67.4097000000000008
20
-86.7055000000000007
11
67.4097000000000008
21
-92.6694999999999993
0
LINE
8
LYELLOW
6
CONTINUOUS
10
67.4496999999999929
20
-86.7424999999999926
11
67.4496999999999929
21
-92.6324999999999932
0
LINE
8
LYELLOW
6
CONTINUOUS
10
67.4896999999999991
20
-86.7814999999999941
11
67.4896999999999991
21
-92.5934999999999917
0
LINE
8
LYELLOW
6
CONTINUOUS
10
67.5296999999999912
20
-86.8204999999999956
11
67.5296999999999912
21
-92.5544999999999902
0
LINE
8
LYELLOW
6
CONTINUOUS
10
67.5696999999999974
20
-86.8614999999999924
11
67.5696999999999974
21
-92.5134999999999934
0
LINE
8
LYELLOW
6
CONTINUOUS
10
67.6097000000000037
20
-86.903499999999994
11
67.6097000000000037
21
-92.4714999999999918
0
LINE
8
LYELLOW
6
CONTINUOUS
10
67.6496999999999957
20
-86.9465000000000003
11
67.6496999999999957
21
-92.4284999999999997
0
LINE
8
LYELLOW
6
CONTINUOUS
10
67.689700000000002
20
-86.991500000000002
11
67.689700000000002
21
-92.383499999999998
0
LINE
8
LYELLOW
6
CONTINUOUS
10
67.729699999999994
20
-87.0364999999999895
11
67.729699999999994
21
-92.3384999999999962
0
LINE
8
LYELLOW
6
CONTINUOUS
10
67.7697000000000003
20
-87.0835000000000008
11
67.7697000000000003
21
-92.2914999999999992
0
LINE
8
LYELLOW
6
CONTINUOUS
10
67.8096999999999923
20
-87.1324999999999932
11
67.8096999999999923
21
-92.2424999999999926
0
LINE
8
LYELLOW
6
CONTINUOUS
10
67.8496999999999986
20
-87.1824999999999903
11
67.8496999999999986
21
-92.1924999999999955
0
LINE
8
LYELLOW
6
CONTINUOUS
10
67.8896999999999906
20
-87.234499999999997
11
67.8896999999999906
21
-92.1404999999999887
0
LINE
8
LYELLOW
6
CONTINUOUS
10
67.9296999999999969
20
-87.2874999999999943
11
67.9296999999999969
21
-92.0874999999999915
0
LINE
8
LYELLOW
6
CONTINUOUS
10
67.9697000000000031
20
-87.3434999999999917
11
67.9697000000000031
21
-92.0314999999999941
0
LINE
8
LYELLOW
6
CONTINUOUS
10
68.0096999999999952
20
-87.4004999999999939
11
68.0096999999999952
21
-91.9744999999999919
0
LINE
8
LYELLOW
6
CONTINUOUS
10
68.0497000000000014
20
-87.4604999999999961
11
68.0497000000000014
21
-91.9144999999999897
0
LINE
8
LYELLOW
6
CONTINUOUS
10
68.0896999999999935
20
-87.5224999999999937
11
68.0896999999999935
21
-91.852499999999992
0
LINE
8
LYELLOW
6
CONTINUOUS
10
68.1296999999999997
20
-87.5865000000000009
11
68.1296999999999997
21
-91.7884999999999991
0
LINE
8
LYELLOW
6
CONTINUOUS
10
68.1696999999999917
20
-87.653499999999994
11
68.1696999999999917
21
-91.7214999999999918
0
LINE
8
LYELLOW
6
CONTINUOUS
10
68.209699999999998
20
-87.7235000000000014
11
68.209699999999998
21
-91.6514999999999986
0
LINE
8
LYELLOW
6
CONTINUOUS
10
68.24969999999999
20
-87.7974999999999994
11
68.24969999999999
21
-91.5775000000000006
0
LINE
8
LYELLOW
6
CONTINUOUS
10
68.2896999999999963
20
-87.8744999999999976
11
68.2896999999999963
21
-91.5005000000000024
0
LINE
8
LYELLOW
6
CONTINUOUS
10
68.3297000000000025
20
-87.9564999999999912
11
68.3297000000000025
21
-91.4184999999999945
0
LINE
8
LYELLOW
6
CONTINUOUS
10
68.3696999999999946
20
-88.0434999999999945
11
68.3696999999999946
21
-91.3314999999999912
0
LINE
8
LYELLOW
6
CONTINUOUS
10
68.4097000000000008
20
-88.1354999999999933
11
68.4097000000000008
21
-91.2394999999999925
0
LINE
8
LYELLOW
6
CONTINUOUS
10
68.4496999999999929
20
-88.234499999999997
11
68.4496999999999929
21
-91.140500000000003
0
LINE
8
LYELLOW
6
CONTINUOUS
10
68.4896999999999991
20
-88.3414999999999964
11
68.4896999999999991
21
-91.0334999999999894
0
LINE
8
LYELLOW
6
CONTINUOUS
10
68.5296999999999912
20
-88.4594999999999914
11
68.5296999999999912
21
-90.9154999999999944
0
LINE
8
LYELLOW
6
CONTINUOUS
10
68.5696999999999974
20
-88.5904999999999916
11
68.5696999999999974
21
-90.7844999999999942
0
LINE
8
LYELLOW
6
CONTINUOUS
10
68.6097000000000037
20
-88.7404999999999973
11
68.6097000000000037
21
-90.6345000000000027
0
LINE
8
LYELLOW
6
CONTINUOUS
10
68.6496999999999957
20
-88.9194999999999993
11
68.6496999999999957
21
-90.4555000000000007
0
LINE
8
LYELLOW
6
CONTINUOUS
10
68.689700000000002
20
-89.1544999999999987
11
68.689700000000002
21
-90.2205000000000013
0
CIRCLE
8
LYELLOW
10
64.6097000000000037
20
-89.6875
40
4.1200000000000001
0
LINE
8
LYELLOW
6
CONTINUOUS
10
47.2849999999999966
20
-38.2875000000000014
11
48.3049999999999997
21
-38.2875000000000014
0
LINE
8
LYELLOW
6
CONTINUOUS
10
49.0850000000000009
20
-36.8174999999999955
11
49.0850000000000009
21
-39.7575000000000003
0
LINE
8
LYELLOW
6
CONTINUOUS
10
49.2049999999999983
20
-36.8174999999999955
11
49.2049999999999983
21
-39.7575000000000003
0
LINE
8
LYELLOW
6
CONTINUOUS
10
49.3249999999999957
20
-36.8174999999999955
11
49.3249999999999957
21
-39.7575000000000003
0
LINE
8
LYELLOW
6
CONTINUOUS
10
54.7650000000000006
20
-38.2875000000000014
11
53.7449999999999974
21
-38.2875000000000014
0
LINE
8
LYELLOW
6
CONTINUOUS
10
48.3049999999999997
20
-36.8174999999999955
11
53.7449999999999974
21
-36.8174999999999955
0
LINE
8
LYELLOW
6
CONTINUOUS
10
53.7449999999999974
20
-36.8174999999999955
11
53.7449999999999974
21
-39.7575000000000003
0
LINE
8
LYELLOW
6
CONTINUOUS
10
53.7449999999999974
20
-39.7575000000000003
11
48.3049999999999997
21
-39.7575000000000003
0
LINE
8
LYELLOW
6
CONTINUOUS
10
48.3049999999999997
20
-39.7575000000000003
11
48.3049999999999997
21
-36.8174999999999955
0
LINE
8
LYELLOW
6
CONTINUOUS
10
47.6049999999999969
20
-80.7374999999999972
11
47.6049999999999969
21
-98.6374999999999886
0
LINE
8
LYELLOW
6
CONTINUOUS
10
47.6049999999999969
20
-98.6374999999999886
11
52.1049999999999969
21
-98.6374999999999886
0
LINE
8
LYELLOW
6
CONTINUOUS
10
48.8549999999999969
20
-80.7374999999999972
11
47.6049999999999969
21
-80.7374999999999972
0
LINE
8
LYELLOW
6
CONTINUOUS
10
52.1049999999999969
20
-80.7374999999999972
11
50.8549999999999969
21
-80.7374999999999972
0
LINE
8
LYELLOW
6
CONTINUOUS
10
52.1049999999999969
20
-98.6374999999999886
11
52.1049999999999969
21
-80.7374999999999972
0
ARC
8
LYELLOW
10
49.8549999999999969
20
-80.7374999999999972
40
1.
50
-180.00000000
51
-0.00000000
0
LINE
8
LYELLOW
6
CONTINUOUS
10
109.8499999999999943
20
-31.3524999999999991
11
109.8499999999999943
21
-38.9724999999999966
0
LINE
8
LYELLOW
6
CONTINUOUS
10
109.8499999999999943
20
-38.9724999999999966
11
120.0099999999999909
21
-38.9724999999999966
0
LINE
8
LYELLOW
6
CONTINUOUS
10
120.0099999999999909
20
-31.3524999999999991
11
109.8499999999999943
21
-31.3524999999999991
0
LINE
8
LYELLOW
6
CONTINUOUS
10
120.0099999999999909
20
-37.7025000000000006
11
109.8499999999999943
21
-37.7025000000000006
0
LINE
8
LYELLOW
6
CONTINUOUS
10
120.0099999999999909
20
-38.9724999999999966
11
120.0099999999999909
21
-31.3524999999999991
0
LINE
8
LYELLOW
6
CONTINUOUS
10
46.1849999999999952
20
-109.9675000000000011
11
52.7249999999999943
21
-109.9675000000000011
0
LINE
8
LYELLOW
6
CONTINUOUS
10
46.1849999999999952
20
-110.2974999999999994
11
46.1849999999999952
21
-109.9675000000000011
0
LINE
8
LYELLOW
6
CONTINUOUS
10
46.1849999999999952
20
-112.3774999999999977
11
46.1849999999999952
21
-112.707499999999996
0
LINE
8
LYELLOW
6
CONTINUOUS
10
46.1849999999999952
20
-112.707499999999996
11
52.7249999999999943
21
-112.707499999999996
0
LINE
8
LYELLOW
6
CONTINUOUS
10
52.7249999999999943
20
-109.9675000000000011
11
52.7249999999999943
21
-110.2974999999999994
0
LINE
8
LYELLOW
6
CONTINUOUS
10
52.7249999999999943
20
-112.707499999999996
11
52.7249999999999943
21
-112.3774999999999977
0
LINE
8
LYELLOW
6
CONTINUOUS
10
61.7349999999999994
20
-102.9675000000000011
11
68.2749999999999915
21
-102.9675000000000011
0
LINE
8
LYELLOW
6
CONTINUOUS
10
61.7349999999999994
20
-103.2974999999999994
11
61.7349999999999994
21
-102.9675000000000011
0
LINE
8
LYELLOW
6
CONTINUOUS
10
61.7349999999999994
20
-105.3774999999999977
11
61.7349999999999994
21
-105.707499999999996
0
LINE
8
LYELLOW
6
CONTINUOUS
10
61.7349999999999994
20
-105.707499999999996
11
68.2749999999999915
21
-105.707499999999996
0
LINE
8
LYELLOW
6
CONTINUOUS
10
68.2749999999999915
20
-102.9675000000000011
11
68.2749999999999915
21
-103.2974999999999994
0
LINE
8
LYELLOW
6
CONTINUOUS
10
68.2749999999999915
20
-105.707499999999996
11
68.2749999999999915
21
-105.3774999999999977
0
LINE
8
LYELLOW
6
CONTINUOUS
10
87.6550000000000011
20
-56.342499999999994
11
87.6550000000000011
21
-64.082499999999996
0
LINE
8
LYELLOW
6
CONTINUOUS
10
87.6550000000000011
20
-64.082499999999996
11
92.1550000000000011
21
-64.082499999999996
0
LINE
8
LYELLOW
6
CONTINUOUS
10
88.9050000000000011
20
-56.342499999999994
11
87.6550000000000011
21
-56.342499999999994
0
LINE
8
LYELLOW
6
CONTINUOUS
10
92.1550000000000011
20
-56.342499999999994
11
90.9050000000000011
21
-56.342499999999994
0
LINE
8
LYELLOW
6
CONTINUOUS
10
92.1550000000000011
20
-64.082499999999996
11
92.1550000000000011
21
-56.342499999999994
0
ARC
8
LYELLOW
10
89.9050000000000011
20
-56.342499999999994
40
1.
50
-180.00000000
51
-0.00000000
0
LINE
8
LYELLOW
6
CONTINUOUS
10
44.7250000000000014
20
-52.5925000000000011
11
79.4650000000000034
21
-52.5925000000000011
0
LINE
8
LYELLOW
6
CONTINUOUS
10
79.4650000000000034
20
-52.5925000000000011
11
79.4650000000000034
21
-67.832499999999996
0
LINE
8
LYELLOW
6
CONTINUOUS
10
79.4650000000000034
20
-67.832499999999996
11
44.7250000000000014
21
-67.832499999999996
0
LINE
8
LYELLOW
6
CONTINUOUS
10
44.7250000000000014
20
-67.832499999999996
11
44.7250000000000014
21
-52.5925000000000011
0
LINE
8
LYELLOW
6
CONTINUOUS
10
23.9899999999999984
20
-31.3524999999999991
11
23.9899999999999984
21
-38.9724999999999966
0
LINE
8
LYELLOW
6
CONTINUOUS
10
23.9899999999999984
20
-32.6224999999999952
11
34.1499999999999986
21
-32.6224999999999952
0
LINE
8
LYELLOW
6
CONTINUOUS
10
23.9899999999999984
20
-38.9724999999999966
11
34.1499999999999986
21
-38.9724999999999966
0
LINE
8
LYELLOW
6
CONTINUOUS
10
34.1499999999999986
20
-31.3524999999999991
11
23.9899999999999984
21
-31.3524999999999991
0
LINE
8
LYELLOW
6
CONTINUOUS
10
34.1499999999999986
20
-38.9724999999999966
11
34.1499999999999986
21
-31.3524999999999991
0
LINE
8
WHITE
6
CONTINUOUS
10
20.
20
-20.
11
124.
21
-20.
0
LINE
8
WHITE
6
CONTINUOUS
10
124.
20
-20.
11
124.
21
-124.
0
LINE
8
WHITE
6
CONTINUOUS
10
124.
20
-124.
11
20.
21
-124.
0
LINE
8
WHITE
6
CONTINUOUS
10
20.
20
-124.
11
20.
21
-20.
  0
ENDSEC
  0
EOF
