%TF.GenerationSoftware,KiCad,Pcbnew,9.0.4*%
%TF.CreationDate,2026-06-18T15:54:00+02:00*%
%TF.ProjectId,mppt_buck,6d707074-5f62-4756-936b-2e6b69636164,rev?*%
%TF.SameCoordinates,Original*%
%TF.FileFunction,Legend,Top*%
%TF.FilePolarity,Positive*%
%FSLAX46Y46*%
G04 Gerber Fmt 4.6, Leading zero omitted, Abs format (unit mm)*
G04 Created by KiCad (PCBNEW 9.0.4) date 2026-06-18 15:54:00*
%MOMM*%
%LPD*%
G01*
G04 APERTURE LIST*
%ADD10C,0.150000*%
%ADD11C,0.120000*%
G04 APERTURE END LIST*
D10*
X111209819Y-64725594D02*
X110209819Y-64725594D01*
X110209819Y-64725594D02*
X110209819Y-64487499D01*
X110209819Y-64487499D02*
X110257438Y-64344642D01*
X110257438Y-64344642D02*
X110352676Y-64249404D01*
X110352676Y-64249404D02*
X110447914Y-64201785D01*
X110447914Y-64201785D02*
X110638390Y-64154166D01*
X110638390Y-64154166D02*
X110781247Y-64154166D01*
X110781247Y-64154166D02*
X110971723Y-64201785D01*
X110971723Y-64201785D02*
X111066961Y-64249404D01*
X111066961Y-64249404D02*
X111162200Y-64344642D01*
X111162200Y-64344642D02*
X111209819Y-64487499D01*
X111209819Y-64487499D02*
X111209819Y-64725594D01*
X110209819Y-63820832D02*
X110209819Y-63201785D01*
X110209819Y-63201785D02*
X110590771Y-63535118D01*
X110590771Y-63535118D02*
X110590771Y-63392261D01*
X110590771Y-63392261D02*
X110638390Y-63297023D01*
X110638390Y-63297023D02*
X110686009Y-63249404D01*
X110686009Y-63249404D02*
X110781247Y-63201785D01*
X110781247Y-63201785D02*
X111019342Y-63201785D01*
X111019342Y-63201785D02*
X111114580Y-63249404D01*
X111114580Y-63249404D02*
X111162200Y-63297023D01*
X111162200Y-63297023D02*
X111209819Y-63392261D01*
X111209819Y-63392261D02*
X111209819Y-63677975D01*
X111209819Y-63677975D02*
X111162200Y-63773213D01*
X111162200Y-63773213D02*
X111114580Y-63820832D01*
X111529819Y-68059404D02*
X110529819Y-68059404D01*
X111529819Y-67487976D02*
X110958390Y-67916547D01*
X110529819Y-67487976D02*
X111101247Y-68059404D01*
X74959819Y-53154166D02*
X74483628Y-53487499D01*
X74959819Y-53725594D02*
X73959819Y-53725594D01*
X73959819Y-53725594D02*
X73959819Y-53344642D01*
X73959819Y-53344642D02*
X74007438Y-53249404D01*
X74007438Y-53249404D02*
X74055057Y-53201785D01*
X74055057Y-53201785D02*
X74150295Y-53154166D01*
X74150295Y-53154166D02*
X74293152Y-53154166D01*
X74293152Y-53154166D02*
X74388390Y-53201785D01*
X74388390Y-53201785D02*
X74436009Y-53249404D01*
X74436009Y-53249404D02*
X74483628Y-53344642D01*
X74483628Y-53344642D02*
X74483628Y-53725594D01*
X74055057Y-52773213D02*
X74007438Y-52725594D01*
X74007438Y-52725594D02*
X73959819Y-52630356D01*
X73959819Y-52630356D02*
X73959819Y-52392261D01*
X73959819Y-52392261D02*
X74007438Y-52297023D01*
X74007438Y-52297023D02*
X74055057Y-52249404D01*
X74055057Y-52249404D02*
X74150295Y-52201785D01*
X74150295Y-52201785D02*
X74245533Y-52201785D01*
X74245533Y-52201785D02*
X74388390Y-52249404D01*
X74388390Y-52249404D02*
X74959819Y-52820832D01*
X74959819Y-52820832D02*
X74959819Y-52201785D01*
X60708333Y-71847080D02*
X60660714Y-71894700D01*
X60660714Y-71894700D02*
X60517857Y-71942319D01*
X60517857Y-71942319D02*
X60422619Y-71942319D01*
X60422619Y-71942319D02*
X60279762Y-71894700D01*
X60279762Y-71894700D02*
X60184524Y-71799461D01*
X60184524Y-71799461D02*
X60136905Y-71704223D01*
X60136905Y-71704223D02*
X60089286Y-71513747D01*
X60089286Y-71513747D02*
X60089286Y-71370890D01*
X60089286Y-71370890D02*
X60136905Y-71180414D01*
X60136905Y-71180414D02*
X60184524Y-71085176D01*
X60184524Y-71085176D02*
X60279762Y-70989938D01*
X60279762Y-70989938D02*
X60422619Y-70942319D01*
X60422619Y-70942319D02*
X60517857Y-70942319D01*
X60517857Y-70942319D02*
X60660714Y-70989938D01*
X60660714Y-70989938D02*
X60708333Y-71037557D01*
X61613095Y-70942319D02*
X61136905Y-70942319D01*
X61136905Y-70942319D02*
X61089286Y-71418509D01*
X61089286Y-71418509D02*
X61136905Y-71370890D01*
X61136905Y-71370890D02*
X61232143Y-71323271D01*
X61232143Y-71323271D02*
X61470238Y-71323271D01*
X61470238Y-71323271D02*
X61565476Y-71370890D01*
X61565476Y-71370890D02*
X61613095Y-71418509D01*
X61613095Y-71418509D02*
X61660714Y-71513747D01*
X61660714Y-71513747D02*
X61660714Y-71751842D01*
X61660714Y-71751842D02*
X61613095Y-71847080D01*
X61613095Y-71847080D02*
X61565476Y-71894700D01*
X61565476Y-71894700D02*
X61470238Y-71942319D01*
X61470238Y-71942319D02*
X61232143Y-71942319D01*
X61232143Y-71942319D02*
X61136905Y-71894700D01*
X61136905Y-71894700D02*
X61089286Y-71847080D01*
X110959819Y-50154166D02*
X110483628Y-50487499D01*
X110959819Y-50725594D02*
X109959819Y-50725594D01*
X109959819Y-50725594D02*
X109959819Y-50344642D01*
X109959819Y-50344642D02*
X110007438Y-50249404D01*
X110007438Y-50249404D02*
X110055057Y-50201785D01*
X110055057Y-50201785D02*
X110150295Y-50154166D01*
X110150295Y-50154166D02*
X110293152Y-50154166D01*
X110293152Y-50154166D02*
X110388390Y-50201785D01*
X110388390Y-50201785D02*
X110436009Y-50249404D01*
X110436009Y-50249404D02*
X110483628Y-50344642D01*
X110483628Y-50344642D02*
X110483628Y-50725594D01*
X109959819Y-49820832D02*
X109959819Y-49201785D01*
X109959819Y-49201785D02*
X110340771Y-49535118D01*
X110340771Y-49535118D02*
X110340771Y-49392261D01*
X110340771Y-49392261D02*
X110388390Y-49297023D01*
X110388390Y-49297023D02*
X110436009Y-49249404D01*
X110436009Y-49249404D02*
X110531247Y-49201785D01*
X110531247Y-49201785D02*
X110769342Y-49201785D01*
X110769342Y-49201785D02*
X110864580Y-49249404D01*
X110864580Y-49249404D02*
X110912200Y-49297023D01*
X110912200Y-49297023D02*
X110959819Y-49392261D01*
X110959819Y-49392261D02*
X110959819Y-49677975D01*
X110959819Y-49677975D02*
X110912200Y-49773213D01*
X110912200Y-49773213D02*
X110864580Y-49820832D01*
X78805633Y-95097080D02*
X78758014Y-95144700D01*
X78758014Y-95144700D02*
X78615157Y-95192319D01*
X78615157Y-95192319D02*
X78519919Y-95192319D01*
X78519919Y-95192319D02*
X78377062Y-95144700D01*
X78377062Y-95144700D02*
X78281824Y-95049461D01*
X78281824Y-95049461D02*
X78234205Y-94954223D01*
X78234205Y-94954223D02*
X78186586Y-94763747D01*
X78186586Y-94763747D02*
X78186586Y-94620890D01*
X78186586Y-94620890D02*
X78234205Y-94430414D01*
X78234205Y-94430414D02*
X78281824Y-94335176D01*
X78281824Y-94335176D02*
X78377062Y-94239938D01*
X78377062Y-94239938D02*
X78519919Y-94192319D01*
X78519919Y-94192319D02*
X78615157Y-94192319D01*
X78615157Y-94192319D02*
X78758014Y-94239938D01*
X78758014Y-94239938D02*
X78805633Y-94287557D01*
X79186586Y-94287557D02*
X79234205Y-94239938D01*
X79234205Y-94239938D02*
X79329443Y-94192319D01*
X79329443Y-94192319D02*
X79567538Y-94192319D01*
X79567538Y-94192319D02*
X79662776Y-94239938D01*
X79662776Y-94239938D02*
X79710395Y-94287557D01*
X79710395Y-94287557D02*
X79758014Y-94382795D01*
X79758014Y-94382795D02*
X79758014Y-94478033D01*
X79758014Y-94478033D02*
X79710395Y-94620890D01*
X79710395Y-94620890D02*
X79138967Y-95192319D01*
X79138967Y-95192319D02*
X79758014Y-95192319D01*
X96113095Y-44492319D02*
X96113095Y-45301842D01*
X96113095Y-45301842D02*
X96160714Y-45397080D01*
X96160714Y-45397080D02*
X96208333Y-45444700D01*
X96208333Y-45444700D02*
X96303571Y-45492319D01*
X96303571Y-45492319D02*
X96494047Y-45492319D01*
X96494047Y-45492319D02*
X96589285Y-45444700D01*
X96589285Y-45444700D02*
X96636904Y-45397080D01*
X96636904Y-45397080D02*
X96684523Y-45301842D01*
X96684523Y-45301842D02*
X96684523Y-44492319D01*
X97113095Y-44587557D02*
X97160714Y-44539938D01*
X97160714Y-44539938D02*
X97255952Y-44492319D01*
X97255952Y-44492319D02*
X97494047Y-44492319D01*
X97494047Y-44492319D02*
X97589285Y-44539938D01*
X97589285Y-44539938D02*
X97636904Y-44587557D01*
X97636904Y-44587557D02*
X97684523Y-44682795D01*
X97684523Y-44682795D02*
X97684523Y-44778033D01*
X97684523Y-44778033D02*
X97636904Y-44920890D01*
X97636904Y-44920890D02*
X97065476Y-45492319D01*
X97065476Y-45492319D02*
X97684523Y-45492319D01*
X75609819Y-36725594D02*
X74609819Y-36725594D01*
X74609819Y-36725594D02*
X74609819Y-36487499D01*
X74609819Y-36487499D02*
X74657438Y-36344642D01*
X74657438Y-36344642D02*
X74752676Y-36249404D01*
X74752676Y-36249404D02*
X74847914Y-36201785D01*
X74847914Y-36201785D02*
X75038390Y-36154166D01*
X75038390Y-36154166D02*
X75181247Y-36154166D01*
X75181247Y-36154166D02*
X75371723Y-36201785D01*
X75371723Y-36201785D02*
X75466961Y-36249404D01*
X75466961Y-36249404D02*
X75562200Y-36344642D01*
X75562200Y-36344642D02*
X75609819Y-36487499D01*
X75609819Y-36487499D02*
X75609819Y-36725594D01*
X75609819Y-35201785D02*
X75609819Y-35773213D01*
X75609819Y-35487499D02*
X74609819Y-35487499D01*
X74609819Y-35487499D02*
X74752676Y-35582737D01*
X74752676Y-35582737D02*
X74847914Y-35677975D01*
X74847914Y-35677975D02*
X74895533Y-35773213D01*
X76729819Y-43869404D02*
X75729819Y-43869404D01*
X76729819Y-43297976D02*
X76158390Y-43726547D01*
X75729819Y-43297976D02*
X76301247Y-43869404D01*
X88708333Y-71847080D02*
X88660714Y-71894700D01*
X88660714Y-71894700D02*
X88517857Y-71942319D01*
X88517857Y-71942319D02*
X88422619Y-71942319D01*
X88422619Y-71942319D02*
X88279762Y-71894700D01*
X88279762Y-71894700D02*
X88184524Y-71799461D01*
X88184524Y-71799461D02*
X88136905Y-71704223D01*
X88136905Y-71704223D02*
X88089286Y-71513747D01*
X88089286Y-71513747D02*
X88089286Y-71370890D01*
X88089286Y-71370890D02*
X88136905Y-71180414D01*
X88136905Y-71180414D02*
X88184524Y-71085176D01*
X88184524Y-71085176D02*
X88279762Y-70989938D01*
X88279762Y-70989938D02*
X88422619Y-70942319D01*
X88422619Y-70942319D02*
X88517857Y-70942319D01*
X88517857Y-70942319D02*
X88660714Y-70989938D01*
X88660714Y-70989938D02*
X88708333Y-71037557D01*
X89041667Y-70942319D02*
X89660714Y-70942319D01*
X89660714Y-70942319D02*
X89327381Y-71323271D01*
X89327381Y-71323271D02*
X89470238Y-71323271D01*
X89470238Y-71323271D02*
X89565476Y-71370890D01*
X89565476Y-71370890D02*
X89613095Y-71418509D01*
X89613095Y-71418509D02*
X89660714Y-71513747D01*
X89660714Y-71513747D02*
X89660714Y-71751842D01*
X89660714Y-71751842D02*
X89613095Y-71847080D01*
X89613095Y-71847080D02*
X89565476Y-71894700D01*
X89565476Y-71894700D02*
X89470238Y-71942319D01*
X89470238Y-71942319D02*
X89184524Y-71942319D01*
X89184524Y-71942319D02*
X89089286Y-71894700D01*
X89089286Y-71894700D02*
X89041667Y-71847080D01*
X52708333Y-92442319D02*
X52232143Y-92442319D01*
X52232143Y-92442319D02*
X52232143Y-91442319D01*
X53565476Y-92442319D02*
X52994048Y-92442319D01*
X53279762Y-92442319D02*
X53279762Y-91442319D01*
X53279762Y-91442319D02*
X53184524Y-91585176D01*
X53184524Y-91585176D02*
X53089286Y-91680414D01*
X53089286Y-91680414D02*
X52994048Y-91728033D01*
X74136905Y-72322319D02*
X74136905Y-71322319D01*
X74136905Y-71322319D02*
X74375000Y-71322319D01*
X74375000Y-71322319D02*
X74517857Y-71369938D01*
X74517857Y-71369938D02*
X74613095Y-71465176D01*
X74613095Y-71465176D02*
X74660714Y-71560414D01*
X74660714Y-71560414D02*
X74708333Y-71750890D01*
X74708333Y-71750890D02*
X74708333Y-71893747D01*
X74708333Y-71893747D02*
X74660714Y-72084223D01*
X74660714Y-72084223D02*
X74613095Y-72179461D01*
X74613095Y-72179461D02*
X74517857Y-72274700D01*
X74517857Y-72274700D02*
X74375000Y-72322319D01*
X74375000Y-72322319D02*
X74136905Y-72322319D01*
X75089286Y-71417557D02*
X75136905Y-71369938D01*
X75136905Y-71369938D02*
X75232143Y-71322319D01*
X75232143Y-71322319D02*
X75470238Y-71322319D01*
X75470238Y-71322319D02*
X75565476Y-71369938D01*
X75565476Y-71369938D02*
X75613095Y-71417557D01*
X75613095Y-71417557D02*
X75660714Y-71512795D01*
X75660714Y-71512795D02*
X75660714Y-71608033D01*
X75660714Y-71608033D02*
X75613095Y-71750890D01*
X75613095Y-71750890D02*
X75041667Y-72322319D01*
X75041667Y-72322319D02*
X75660714Y-72322319D01*
X70803095Y-72642319D02*
X70803095Y-71642319D01*
X71374523Y-72642319D02*
X70945952Y-72070890D01*
X71374523Y-71642319D02*
X70803095Y-72213747D01*
X34541666Y-78522319D02*
X34541666Y-79236604D01*
X34541666Y-79236604D02*
X34494047Y-79379461D01*
X34494047Y-79379461D02*
X34398809Y-79474700D01*
X34398809Y-79474700D02*
X34255952Y-79522319D01*
X34255952Y-79522319D02*
X34160714Y-79522319D01*
X35446428Y-78855652D02*
X35446428Y-79522319D01*
X35208333Y-78474700D02*
X34970238Y-79188985D01*
X34970238Y-79188985D02*
X35589285Y-79188985D01*
X34541666Y-34522319D02*
X34541666Y-35236604D01*
X34541666Y-35236604D02*
X34494047Y-35379461D01*
X34494047Y-35379461D02*
X34398809Y-35474700D01*
X34398809Y-35474700D02*
X34255952Y-35522319D01*
X34255952Y-35522319D02*
X34160714Y-35522319D01*
X35541666Y-35522319D02*
X34970238Y-35522319D01*
X35255952Y-35522319D02*
X35255952Y-34522319D01*
X35255952Y-34522319D02*
X35160714Y-34665176D01*
X35160714Y-34665176D02*
X35065476Y-34760414D01*
X35065476Y-34760414D02*
X34970238Y-34808033D01*
X48805633Y-25097080D02*
X48758014Y-25144700D01*
X48758014Y-25144700D02*
X48615157Y-25192319D01*
X48615157Y-25192319D02*
X48519919Y-25192319D01*
X48519919Y-25192319D02*
X48377062Y-25144700D01*
X48377062Y-25144700D02*
X48281824Y-25049461D01*
X48281824Y-25049461D02*
X48234205Y-24954223D01*
X48234205Y-24954223D02*
X48186586Y-24763747D01*
X48186586Y-24763747D02*
X48186586Y-24620890D01*
X48186586Y-24620890D02*
X48234205Y-24430414D01*
X48234205Y-24430414D02*
X48281824Y-24335176D01*
X48281824Y-24335176D02*
X48377062Y-24239938D01*
X48377062Y-24239938D02*
X48519919Y-24192319D01*
X48519919Y-24192319D02*
X48615157Y-24192319D01*
X48615157Y-24192319D02*
X48758014Y-24239938D01*
X48758014Y-24239938D02*
X48805633Y-24287557D01*
X49758014Y-25192319D02*
X49186586Y-25192319D01*
X49472300Y-25192319D02*
X49472300Y-24192319D01*
X49472300Y-24192319D02*
X49377062Y-24335176D01*
X49377062Y-24335176D02*
X49281824Y-24430414D01*
X49281824Y-24430414D02*
X49186586Y-24478033D01*
X34541666Y-55097319D02*
X34541666Y-55811604D01*
X34541666Y-55811604D02*
X34494047Y-55954461D01*
X34494047Y-55954461D02*
X34398809Y-56049700D01*
X34398809Y-56049700D02*
X34255952Y-56097319D01*
X34255952Y-56097319D02*
X34160714Y-56097319D01*
X34922619Y-55097319D02*
X35541666Y-55097319D01*
X35541666Y-55097319D02*
X35208333Y-55478271D01*
X35208333Y-55478271D02*
X35351190Y-55478271D01*
X35351190Y-55478271D02*
X35446428Y-55525890D01*
X35446428Y-55525890D02*
X35494047Y-55573509D01*
X35494047Y-55573509D02*
X35541666Y-55668747D01*
X35541666Y-55668747D02*
X35541666Y-55906842D01*
X35541666Y-55906842D02*
X35494047Y-56002080D01*
X35494047Y-56002080D02*
X35446428Y-56049700D01*
X35446428Y-56049700D02*
X35351190Y-56097319D01*
X35351190Y-56097319D02*
X35065476Y-56097319D01*
X35065476Y-56097319D02*
X34970238Y-56049700D01*
X34970238Y-56049700D02*
X34922619Y-56002080D01*
X62113095Y-46572319D02*
X62113095Y-47381842D01*
X62113095Y-47381842D02*
X62160714Y-47477080D01*
X62160714Y-47477080D02*
X62208333Y-47524700D01*
X62208333Y-47524700D02*
X62303571Y-47572319D01*
X62303571Y-47572319D02*
X62494047Y-47572319D01*
X62494047Y-47572319D02*
X62589285Y-47524700D01*
X62589285Y-47524700D02*
X62636904Y-47477080D01*
X62636904Y-47477080D02*
X62684523Y-47381842D01*
X62684523Y-47381842D02*
X62684523Y-46572319D01*
X63684523Y-47572319D02*
X63113095Y-47572319D01*
X63398809Y-47572319D02*
X63398809Y-46572319D01*
X63398809Y-46572319D02*
X63303571Y-46715176D01*
X63303571Y-46715176D02*
X63208333Y-46810414D01*
X63208333Y-46810414D02*
X63113095Y-46858033D01*
X48805633Y-69097080D02*
X48758014Y-69144700D01*
X48758014Y-69144700D02*
X48615157Y-69192319D01*
X48615157Y-69192319D02*
X48519919Y-69192319D01*
X48519919Y-69192319D02*
X48377062Y-69144700D01*
X48377062Y-69144700D02*
X48281824Y-69049461D01*
X48281824Y-69049461D02*
X48234205Y-68954223D01*
X48234205Y-68954223D02*
X48186586Y-68763747D01*
X48186586Y-68763747D02*
X48186586Y-68620890D01*
X48186586Y-68620890D02*
X48234205Y-68430414D01*
X48234205Y-68430414D02*
X48281824Y-68335176D01*
X48281824Y-68335176D02*
X48377062Y-68239938D01*
X48377062Y-68239938D02*
X48519919Y-68192319D01*
X48519919Y-68192319D02*
X48615157Y-68192319D01*
X48615157Y-68192319D02*
X48758014Y-68239938D01*
X48758014Y-68239938D02*
X48805633Y-68287557D01*
X49662776Y-68525652D02*
X49662776Y-69192319D01*
X49424681Y-68144700D02*
X49186586Y-68858985D01*
X49186586Y-68858985D02*
X49805633Y-68858985D01*
X64779761Y-27387557D02*
X64684523Y-27339938D01*
X64684523Y-27339938D02*
X64589285Y-27244700D01*
X64589285Y-27244700D02*
X64446428Y-27101842D01*
X64446428Y-27101842D02*
X64351190Y-27054223D01*
X64351190Y-27054223D02*
X64255952Y-27054223D01*
X64303571Y-27292319D02*
X64208333Y-27244700D01*
X64208333Y-27244700D02*
X64113095Y-27149461D01*
X64113095Y-27149461D02*
X64065476Y-26958985D01*
X64065476Y-26958985D02*
X64065476Y-26625652D01*
X64065476Y-26625652D02*
X64113095Y-26435176D01*
X64113095Y-26435176D02*
X64208333Y-26339938D01*
X64208333Y-26339938D02*
X64303571Y-26292319D01*
X64303571Y-26292319D02*
X64494047Y-26292319D01*
X64494047Y-26292319D02*
X64589285Y-26339938D01*
X64589285Y-26339938D02*
X64684523Y-26435176D01*
X64684523Y-26435176D02*
X64732142Y-26625652D01*
X64732142Y-26625652D02*
X64732142Y-26958985D01*
X64732142Y-26958985D02*
X64684523Y-27149461D01*
X64684523Y-27149461D02*
X64589285Y-27244700D01*
X64589285Y-27244700D02*
X64494047Y-27292319D01*
X64494047Y-27292319D02*
X64303571Y-27292319D01*
X65684523Y-27292319D02*
X65113095Y-27292319D01*
X65398809Y-27292319D02*
X65398809Y-26292319D01*
X65398809Y-26292319D02*
X65303571Y-26435176D01*
X65303571Y-26435176D02*
X65208333Y-26530414D01*
X65208333Y-26530414D02*
X65113095Y-26578033D01*
X46959819Y-51154166D02*
X46483628Y-51487499D01*
X46959819Y-51725594D02*
X45959819Y-51725594D01*
X45959819Y-51725594D02*
X45959819Y-51344642D01*
X45959819Y-51344642D02*
X46007438Y-51249404D01*
X46007438Y-51249404D02*
X46055057Y-51201785D01*
X46055057Y-51201785D02*
X46150295Y-51154166D01*
X46150295Y-51154166D02*
X46293152Y-51154166D01*
X46293152Y-51154166D02*
X46388390Y-51201785D01*
X46388390Y-51201785D02*
X46436009Y-51249404D01*
X46436009Y-51249404D02*
X46483628Y-51344642D01*
X46483628Y-51344642D02*
X46483628Y-51725594D01*
X46959819Y-50201785D02*
X46959819Y-50773213D01*
X46959819Y-50487499D02*
X45959819Y-50487499D01*
X45959819Y-50487499D02*
X46102676Y-50582737D01*
X46102676Y-50582737D02*
X46197914Y-50677975D01*
X46197914Y-50677975D02*
X46245533Y-50773213D01*
X96541666Y-104522319D02*
X96541666Y-105236604D01*
X96541666Y-105236604D02*
X96494047Y-105379461D01*
X96494047Y-105379461D02*
X96398809Y-105474700D01*
X96398809Y-105474700D02*
X96255952Y-105522319D01*
X96255952Y-105522319D02*
X96160714Y-105522319D01*
X96970238Y-104617557D02*
X97017857Y-104569938D01*
X97017857Y-104569938D02*
X97113095Y-104522319D01*
X97113095Y-104522319D02*
X97351190Y-104522319D01*
X97351190Y-104522319D02*
X97446428Y-104569938D01*
X97446428Y-104569938D02*
X97494047Y-104617557D01*
X97494047Y-104617557D02*
X97541666Y-104712795D01*
X97541666Y-104712795D02*
X97541666Y-104808033D01*
X97541666Y-104808033D02*
X97494047Y-104950890D01*
X97494047Y-104950890D02*
X96922619Y-105522319D01*
X96922619Y-105522319D02*
X97541666Y-105522319D01*
X100959819Y-74154166D02*
X100483628Y-74487499D01*
X100959819Y-74725594D02*
X99959819Y-74725594D01*
X99959819Y-74725594D02*
X99959819Y-74344642D01*
X99959819Y-74344642D02*
X100007438Y-74249404D01*
X100007438Y-74249404D02*
X100055057Y-74201785D01*
X100055057Y-74201785D02*
X100150295Y-74154166D01*
X100150295Y-74154166D02*
X100293152Y-74154166D01*
X100293152Y-74154166D02*
X100388390Y-74201785D01*
X100388390Y-74201785D02*
X100436009Y-74249404D01*
X100436009Y-74249404D02*
X100483628Y-74344642D01*
X100483628Y-74344642D02*
X100483628Y-74725594D01*
X100293152Y-73297023D02*
X100959819Y-73297023D01*
X99912200Y-73535118D02*
X100626485Y-73773213D01*
X100626485Y-73773213D02*
X100626485Y-73154166D01*
D11*
%TO.C,D3*%
X111755000Y-65267500D02*
X113995000Y-65267500D01*
X111755000Y-65387500D02*
X113995000Y-65387500D01*
X111755000Y-65507500D02*
X113995000Y-65507500D01*
X112875000Y-61217500D02*
X112875000Y-61867500D01*
X112875000Y-66757500D02*
X112875000Y-66107500D01*
X111755000Y-66107500D02*
X113995000Y-66107500D01*
X113995000Y-61867500D01*
X111755000Y-61867500D01*
X111755000Y-66107500D01*
%TO.C,R2*%
X75505000Y-49717500D02*
X75835000Y-49717500D01*
X75505000Y-56257500D02*
X75505000Y-49717500D01*
X75835000Y-56257500D02*
X75505000Y-56257500D01*
X77915000Y-56257500D02*
X78245000Y-56257500D01*
X78245000Y-49717500D02*
X77915000Y-49717500D01*
X78245000Y-56257500D02*
X78245000Y-49717500D01*
%TO.C,C5*%
X58255000Y-72617500D02*
X63495000Y-72617500D01*
X58255000Y-72954500D02*
X58255000Y-72617500D01*
X58255000Y-75357500D02*
X58255000Y-75020500D01*
X63495000Y-72617500D02*
X63495000Y-72954500D01*
X63495000Y-75020500D02*
X63495000Y-75357500D01*
X63495000Y-75357500D02*
X58255000Y-75357500D01*
%TO.C,R3*%
X111505000Y-46717500D02*
X111835000Y-46717500D01*
X111505000Y-53257500D02*
X111505000Y-46717500D01*
X111835000Y-53257500D02*
X111505000Y-53257500D01*
X113915000Y-53257500D02*
X114245000Y-53257500D01*
X114245000Y-46717500D02*
X113915000Y-46717500D01*
X114245000Y-53257500D02*
X114245000Y-46717500D01*
%TO.C,C2*%
X74562602Y-97672500D02*
X75362602Y-97672500D01*
X74962602Y-97272500D02*
X74962602Y-98072500D01*
X78972300Y-95907500D02*
X78972300Y-104067500D01*
X79012300Y-95907500D02*
X79012300Y-104067500D01*
X79052300Y-95908500D02*
X79052300Y-104066500D01*
X79092300Y-95909500D02*
X79092300Y-104065500D01*
X79132300Y-95910500D02*
X79132300Y-104064500D01*
X79172300Y-95912500D02*
X79172300Y-104062500D01*
X79212300Y-95914500D02*
X79212300Y-104060500D01*
X79252300Y-95917500D02*
X79252300Y-104057500D01*
X79292300Y-95919500D02*
X79292300Y-104055500D01*
X79332300Y-95923500D02*
X79332300Y-104051500D01*
X79372300Y-95926500D02*
X79372300Y-104048500D01*
X79412300Y-95931500D02*
X79412300Y-104043500D01*
X79452300Y-95935500D02*
X79452300Y-104039500D01*
X79492300Y-95940500D02*
X79492300Y-104034500D01*
X79532300Y-95945500D02*
X79532300Y-104029500D01*
X79572300Y-95951500D02*
X79572300Y-104023500D01*
X79612300Y-95957500D02*
X79612300Y-104017500D01*
X79652300Y-95964500D02*
X79652300Y-104010500D01*
X79692300Y-95970500D02*
X79692300Y-98947500D01*
X79692300Y-101027500D02*
X79692300Y-104004500D01*
X79732300Y-95978500D02*
X79732300Y-98947500D01*
X79732300Y-101027500D02*
X79732300Y-103996500D01*
X79772300Y-95985500D02*
X79772300Y-98947500D01*
X79772300Y-101027500D02*
X79772300Y-103989500D01*
X79812300Y-95994500D02*
X79812300Y-98947500D01*
X79812300Y-101027500D02*
X79812300Y-103980500D01*
X79852300Y-96002500D02*
X79852300Y-98947500D01*
X79852300Y-101027500D02*
X79852300Y-103972500D01*
X79892300Y-96011500D02*
X79892300Y-98947500D01*
X79892300Y-101027500D02*
X79892300Y-103963500D01*
X79932300Y-96020500D02*
X79932300Y-98947500D01*
X79932300Y-101027500D02*
X79932300Y-103954500D01*
X79972300Y-96030500D02*
X79972300Y-98947500D01*
X79972300Y-101027500D02*
X79972300Y-103944500D01*
X80012300Y-96040500D02*
X80012300Y-98947500D01*
X80012300Y-101027500D02*
X80012300Y-103934500D01*
X80052300Y-96051500D02*
X80052300Y-98947500D01*
X80052300Y-101027500D02*
X80052300Y-103923500D01*
X80092300Y-96062500D02*
X80092300Y-98947500D01*
X80092300Y-101027500D02*
X80092300Y-103912500D01*
X80132300Y-96074500D02*
X80132300Y-98947500D01*
X80132300Y-101027500D02*
X80132300Y-103900500D01*
X80172300Y-96086500D02*
X80172300Y-98947500D01*
X80172300Y-101027500D02*
X80172300Y-103888500D01*
X80212300Y-96098500D02*
X80212300Y-98947500D01*
X80212300Y-101027500D02*
X80212300Y-103876500D01*
X80252300Y-96111500D02*
X80252300Y-98947500D01*
X80252300Y-101027500D02*
X80252300Y-103863500D01*
X80292300Y-96124500D02*
X80292300Y-98947500D01*
X80292300Y-101027500D02*
X80292300Y-103850500D01*
X80332300Y-96138500D02*
X80332300Y-98947500D01*
X80332300Y-101027500D02*
X80332300Y-103836500D01*
X80372300Y-96152500D02*
X80372300Y-98947500D01*
X80372300Y-101027500D02*
X80372300Y-103822500D01*
X80412300Y-96167500D02*
X80412300Y-98947500D01*
X80412300Y-101027500D02*
X80412300Y-103807500D01*
X80452300Y-96182500D02*
X80452300Y-98947500D01*
X80452300Y-101027500D02*
X80452300Y-103792500D01*
X80492300Y-96198500D02*
X80492300Y-98947500D01*
X80492300Y-101027500D02*
X80492300Y-103776500D01*
X80532300Y-96214500D02*
X80532300Y-98947500D01*
X80532300Y-101027500D02*
X80532300Y-103760500D01*
X80572300Y-96230500D02*
X80572300Y-98947500D01*
X80572300Y-101027500D02*
X80572300Y-103744500D01*
X80612300Y-96247500D02*
X80612300Y-98947500D01*
X80612300Y-101027500D02*
X80612300Y-103727500D01*
X80652300Y-96265500D02*
X80652300Y-98947500D01*
X80652300Y-101027500D02*
X80652300Y-103709500D01*
X80692300Y-96283500D02*
X80692300Y-98947500D01*
X80692300Y-101027500D02*
X80692300Y-103691500D01*
X80732300Y-96302500D02*
X80732300Y-98947500D01*
X80732300Y-101027500D02*
X80732300Y-103672500D01*
X80772300Y-96321500D02*
X80772300Y-98947500D01*
X80772300Y-101027500D02*
X80772300Y-103653500D01*
X80812300Y-96341500D02*
X80812300Y-98947500D01*
X80812300Y-101027500D02*
X80812300Y-103633500D01*
X80852300Y-96361500D02*
X80852300Y-98947500D01*
X80852300Y-101027500D02*
X80852300Y-103613500D01*
X80892300Y-96382500D02*
X80892300Y-98947500D01*
X80892300Y-101027500D02*
X80892300Y-103592500D01*
X80932300Y-96403500D02*
X80932300Y-98947500D01*
X80932300Y-101027500D02*
X80932300Y-103571500D01*
X80972300Y-96425500D02*
X80972300Y-98947500D01*
X80972300Y-101027500D02*
X80972300Y-103549500D01*
X81012300Y-96448500D02*
X81012300Y-98947500D01*
X81012300Y-101027500D02*
X81012300Y-103526500D01*
X81052300Y-96471500D02*
X81052300Y-98947500D01*
X81052300Y-101027500D02*
X81052300Y-103503500D01*
X81092300Y-96494500D02*
X81092300Y-98947500D01*
X81092300Y-101027500D02*
X81092300Y-103480500D01*
X81132300Y-96519500D02*
X81132300Y-98947500D01*
X81132300Y-101027500D02*
X81132300Y-103455500D01*
X81172300Y-96544500D02*
X81172300Y-98947500D01*
X81172300Y-101027500D02*
X81172300Y-103430500D01*
X81212300Y-96569500D02*
X81212300Y-98947500D01*
X81212300Y-101027500D02*
X81212300Y-103405500D01*
X81252300Y-96595500D02*
X81252300Y-98947500D01*
X81252300Y-101027500D02*
X81252300Y-103379500D01*
X81292300Y-96622500D02*
X81292300Y-98947500D01*
X81292300Y-101027500D02*
X81292300Y-103352500D01*
X81332300Y-96650500D02*
X81332300Y-98947500D01*
X81332300Y-101027500D02*
X81332300Y-103324500D01*
X81372300Y-96678500D02*
X81372300Y-98947500D01*
X81372300Y-101027500D02*
X81372300Y-103296500D01*
X81412300Y-96707500D02*
X81412300Y-98947500D01*
X81412300Y-101027500D02*
X81412300Y-103267500D01*
X81452300Y-96737500D02*
X81452300Y-98947500D01*
X81452300Y-101027500D02*
X81452300Y-103237500D01*
X81492300Y-96768500D02*
X81492300Y-98947500D01*
X81492300Y-101027500D02*
X81492300Y-103206500D01*
X81532300Y-96799500D02*
X81532300Y-98947500D01*
X81532300Y-101027500D02*
X81532300Y-103175500D01*
X81572300Y-96831500D02*
X81572300Y-98947500D01*
X81572300Y-101027500D02*
X81572300Y-103143500D01*
X81612300Y-96864500D02*
X81612300Y-98947500D01*
X81612300Y-101027500D02*
X81612300Y-103110500D01*
X81652300Y-96898500D02*
X81652300Y-98947500D01*
X81652300Y-101027500D02*
X81652300Y-103076500D01*
X81692300Y-96932500D02*
X81692300Y-98947500D01*
X81692300Y-101027500D02*
X81692300Y-103042500D01*
X81732300Y-96968500D02*
X81732300Y-98947500D01*
X81732300Y-101027500D02*
X81732300Y-103006500D01*
X81772300Y-97005500D02*
X81772300Y-102969500D01*
X81812300Y-97042500D02*
X81812300Y-102932500D01*
X81852300Y-97081500D02*
X81852300Y-102893500D01*
X81892300Y-97120500D02*
X81892300Y-102854500D01*
X81932300Y-97161500D02*
X81932300Y-102813500D01*
X81972300Y-97203500D02*
X81972300Y-102771500D01*
X82012300Y-97246500D02*
X82012300Y-102728500D01*
X82052300Y-97291500D02*
X82052300Y-102683500D01*
X82092300Y-97336500D02*
X82092300Y-102638500D01*
X82132300Y-97383500D02*
X82132300Y-102591500D01*
X82172300Y-97432500D02*
X82172300Y-102542500D01*
X82212300Y-97482500D02*
X82212300Y-102492500D01*
X82252300Y-97534500D02*
X82252300Y-102440500D01*
X82292300Y-97587500D02*
X82292300Y-102387500D01*
X82332300Y-97643500D02*
X82332300Y-102331500D01*
X82372300Y-97700500D02*
X82372300Y-102274500D01*
X82412300Y-97760500D02*
X82412300Y-102214500D01*
X82452300Y-97822500D02*
X82452300Y-102152500D01*
X82492300Y-97886500D02*
X82492300Y-102088500D01*
X82532300Y-97953500D02*
X82532300Y-102021500D01*
X82572300Y-98023500D02*
X82572300Y-101951500D01*
X82612300Y-98097500D02*
X82612300Y-101877500D01*
X82652300Y-98174500D02*
X82652300Y-101800500D01*
X82692300Y-98256500D02*
X82692300Y-101718500D01*
X82732300Y-98343500D02*
X82732300Y-101631500D01*
X82772300Y-98435500D02*
X82772300Y-101539500D01*
X82812300Y-98534500D02*
X82812300Y-101440500D01*
X82852300Y-98641500D02*
X82852300Y-101333500D01*
X82892300Y-98759500D02*
X82892300Y-101215500D01*
X82932300Y-98890500D02*
X82932300Y-101084500D01*
X82972300Y-99040500D02*
X82972300Y-100934500D01*
X83012300Y-99219500D02*
X83012300Y-100755500D01*
X83052300Y-99454500D02*
X83052300Y-100520500D01*
X83092300Y-99987500D02*
G75*
G02*
X74852300Y-99987500I-4120000J0D01*
G01*
X74852300Y-99987500D02*
G75*
G02*
X83092300Y-99987500I4120000J0D01*
G01*
%TO.C,U2*%
X94625000Y-46037500D02*
X94625000Y-63937500D01*
X94625000Y-63937500D02*
X99125000Y-63937500D01*
X95875000Y-46037500D02*
X94625000Y-46037500D01*
X99125000Y-46037500D02*
X97875000Y-46037500D01*
X99125000Y-63937500D02*
X99125000Y-46037500D01*
X97875000Y-46037500D02*
G75*
G02*
X95875000Y-46037500I-1000000J0D01*
G01*
%TO.C,D1*%
X76155000Y-39192500D02*
X81595000Y-39192500D01*
X76155000Y-39312500D02*
X81595000Y-39312500D01*
X76155000Y-39432500D02*
X81595000Y-39432500D01*
X78875000Y-30207500D02*
X78875000Y-31117500D01*
X78875000Y-41767500D02*
X78875000Y-40857500D01*
X76155000Y-40857500D02*
X81595000Y-40857500D01*
X81595000Y-31117500D01*
X76155000Y-31117500D01*
X76155000Y-40857500D01*
%TO.C,C3*%
X86255000Y-72617500D02*
X91495000Y-72617500D01*
X86255000Y-72954500D02*
X86255000Y-72617500D01*
X86255000Y-75357500D02*
X86255000Y-75020500D01*
X91495000Y-72617500D02*
X91495000Y-72954500D01*
X91495000Y-75020500D02*
X91495000Y-75357500D01*
X91495000Y-75357500D02*
X86255000Y-75357500D01*
%TO.C,L1*%
X35505000Y-93367500D02*
X70245000Y-93367500D01*
X70245000Y-108607500D01*
X35505000Y-108607500D01*
X35505000Y-93367500D01*
%TO.C,D2*%
X72105000Y-73987500D02*
X72755000Y-73987500D01*
X73355000Y-72867500D02*
X73355000Y-75107500D01*
X73475000Y-72867500D02*
X73475000Y-75107500D01*
X73595000Y-72867500D02*
X73595000Y-75107500D01*
X77645000Y-73987500D02*
X76995000Y-73987500D01*
X72755000Y-72867500D02*
X76995000Y-72867500D01*
X76995000Y-75107500D01*
X72755000Y-75107500D01*
X72755000Y-72867500D01*
%TO.C,J4*%
X29795000Y-70177500D02*
X29795000Y-77797500D01*
X29795000Y-71447500D02*
X39955000Y-71447500D01*
X29795000Y-77797500D02*
X39955000Y-77797500D01*
X39955000Y-70177500D02*
X29795000Y-70177500D01*
X39955000Y-77797500D02*
X39955000Y-70177500D01*
%TO.C,J1*%
X29795000Y-26177500D02*
X29795000Y-33797500D01*
X29795000Y-27447500D02*
X39955000Y-27447500D01*
X29795000Y-33797500D02*
X39955000Y-33797500D01*
X39955000Y-26177500D02*
X29795000Y-26177500D01*
X39955000Y-33797500D02*
X39955000Y-26177500D01*
%TO.C,C1*%
X44562602Y-27672500D02*
X45362602Y-27672500D01*
X44962602Y-27272500D02*
X44962602Y-28072500D01*
X48972300Y-25907500D02*
X48972300Y-34067500D01*
X49012300Y-25907500D02*
X49012300Y-34067500D01*
X49052300Y-25908500D02*
X49052300Y-34066500D01*
X49092300Y-25909500D02*
X49092300Y-34065500D01*
X49132300Y-25910500D02*
X49132300Y-34064500D01*
X49172300Y-25912500D02*
X49172300Y-34062500D01*
X49212300Y-25914500D02*
X49212300Y-34060500D01*
X49252300Y-25917500D02*
X49252300Y-34057500D01*
X49292300Y-25919500D02*
X49292300Y-34055500D01*
X49332300Y-25923500D02*
X49332300Y-34051500D01*
X49372300Y-25926500D02*
X49372300Y-34048500D01*
X49412300Y-25931500D02*
X49412300Y-34043500D01*
X49452300Y-25935500D02*
X49452300Y-34039500D01*
X49492300Y-25940500D02*
X49492300Y-34034500D01*
X49532300Y-25945500D02*
X49532300Y-34029500D01*
X49572300Y-25951500D02*
X49572300Y-34023500D01*
X49612300Y-25957500D02*
X49612300Y-34017500D01*
X49652300Y-25964500D02*
X49652300Y-34010500D01*
X49692300Y-25970500D02*
X49692300Y-28947500D01*
X49692300Y-31027500D02*
X49692300Y-34004500D01*
X49732300Y-25978500D02*
X49732300Y-28947500D01*
X49732300Y-31027500D02*
X49732300Y-33996500D01*
X49772300Y-25985500D02*
X49772300Y-28947500D01*
X49772300Y-31027500D02*
X49772300Y-33989500D01*
X49812300Y-25994500D02*
X49812300Y-28947500D01*
X49812300Y-31027500D02*
X49812300Y-33980500D01*
X49852300Y-26002500D02*
X49852300Y-28947500D01*
X49852300Y-31027500D02*
X49852300Y-33972500D01*
X49892300Y-26011500D02*
X49892300Y-28947500D01*
X49892300Y-31027500D02*
X49892300Y-33963500D01*
X49932300Y-26020500D02*
X49932300Y-28947500D01*
X49932300Y-31027500D02*
X49932300Y-33954500D01*
X49972300Y-26030500D02*
X49972300Y-28947500D01*
X49972300Y-31027500D02*
X49972300Y-33944500D01*
X50012300Y-26040500D02*
X50012300Y-28947500D01*
X50012300Y-31027500D02*
X50012300Y-33934500D01*
X50052300Y-26051500D02*
X50052300Y-28947500D01*
X50052300Y-31027500D02*
X50052300Y-33923500D01*
X50092300Y-26062500D02*
X50092300Y-28947500D01*
X50092300Y-31027500D02*
X50092300Y-33912500D01*
X50132300Y-26074500D02*
X50132300Y-28947500D01*
X50132300Y-31027500D02*
X50132300Y-33900500D01*
X50172300Y-26086500D02*
X50172300Y-28947500D01*
X50172300Y-31027500D02*
X50172300Y-33888500D01*
X50212300Y-26098500D02*
X50212300Y-28947500D01*
X50212300Y-31027500D02*
X50212300Y-33876500D01*
X50252300Y-26111500D02*
X50252300Y-28947500D01*
X50252300Y-31027500D02*
X50252300Y-33863500D01*
X50292300Y-26124500D02*
X50292300Y-28947500D01*
X50292300Y-31027500D02*
X50292300Y-33850500D01*
X50332300Y-26138500D02*
X50332300Y-28947500D01*
X50332300Y-31027500D02*
X50332300Y-33836500D01*
X50372300Y-26152500D02*
X50372300Y-28947500D01*
X50372300Y-31027500D02*
X50372300Y-33822500D01*
X50412300Y-26167500D02*
X50412300Y-28947500D01*
X50412300Y-31027500D02*
X50412300Y-33807500D01*
X50452300Y-26182500D02*
X50452300Y-28947500D01*
X50452300Y-31027500D02*
X50452300Y-33792500D01*
X50492300Y-26198500D02*
X50492300Y-28947500D01*
X50492300Y-31027500D02*
X50492300Y-33776500D01*
X50532300Y-26214500D02*
X50532300Y-28947500D01*
X50532300Y-31027500D02*
X50532300Y-33760500D01*
X50572300Y-26230500D02*
X50572300Y-28947500D01*
X50572300Y-31027500D02*
X50572300Y-33744500D01*
X50612300Y-26247500D02*
X50612300Y-28947500D01*
X50612300Y-31027500D02*
X50612300Y-33727500D01*
X50652300Y-26265500D02*
X50652300Y-28947500D01*
X50652300Y-31027500D02*
X50652300Y-33709500D01*
X50692300Y-26283500D02*
X50692300Y-28947500D01*
X50692300Y-31027500D02*
X50692300Y-33691500D01*
X50732300Y-26302500D02*
X50732300Y-28947500D01*
X50732300Y-31027500D02*
X50732300Y-33672500D01*
X50772300Y-26321500D02*
X50772300Y-28947500D01*
X50772300Y-31027500D02*
X50772300Y-33653500D01*
X50812300Y-26341500D02*
X50812300Y-28947500D01*
X50812300Y-31027500D02*
X50812300Y-33633500D01*
X50852300Y-26361500D02*
X50852300Y-28947500D01*
X50852300Y-31027500D02*
X50852300Y-33613500D01*
X50892300Y-26382500D02*
X50892300Y-28947500D01*
X50892300Y-31027500D02*
X50892300Y-33592500D01*
X50932300Y-26403500D02*
X50932300Y-28947500D01*
X50932300Y-31027500D02*
X50932300Y-33571500D01*
X50972300Y-26425500D02*
X50972300Y-28947500D01*
X50972300Y-31027500D02*
X50972300Y-33549500D01*
X51012300Y-26448500D02*
X51012300Y-28947500D01*
X51012300Y-31027500D02*
X51012300Y-33526500D01*
X51052300Y-26471500D02*
X51052300Y-28947500D01*
X51052300Y-31027500D02*
X51052300Y-33503500D01*
X51092300Y-26494500D02*
X51092300Y-28947500D01*
X51092300Y-31027500D02*
X51092300Y-33480500D01*
X51132300Y-26519500D02*
X51132300Y-28947500D01*
X51132300Y-31027500D02*
X51132300Y-33455500D01*
X51172300Y-26544500D02*
X51172300Y-28947500D01*
X51172300Y-31027500D02*
X51172300Y-33430500D01*
X51212300Y-26569500D02*
X51212300Y-28947500D01*
X51212300Y-31027500D02*
X51212300Y-33405500D01*
X51252300Y-26595500D02*
X51252300Y-28947500D01*
X51252300Y-31027500D02*
X51252300Y-33379500D01*
X51292300Y-26622500D02*
X51292300Y-28947500D01*
X51292300Y-31027500D02*
X51292300Y-33352500D01*
X51332300Y-26650500D02*
X51332300Y-28947500D01*
X51332300Y-31027500D02*
X51332300Y-33324500D01*
X51372300Y-26678500D02*
X51372300Y-28947500D01*
X51372300Y-31027500D02*
X51372300Y-33296500D01*
X51412300Y-26707500D02*
X51412300Y-28947500D01*
X51412300Y-31027500D02*
X51412300Y-33267500D01*
X51452300Y-26737500D02*
X51452300Y-28947500D01*
X51452300Y-31027500D02*
X51452300Y-33237500D01*
X51492300Y-26768500D02*
X51492300Y-28947500D01*
X51492300Y-31027500D02*
X51492300Y-33206500D01*
X51532300Y-26799500D02*
X51532300Y-28947500D01*
X51532300Y-31027500D02*
X51532300Y-33175500D01*
X51572300Y-26831500D02*
X51572300Y-28947500D01*
X51572300Y-31027500D02*
X51572300Y-33143500D01*
X51612300Y-26864500D02*
X51612300Y-28947500D01*
X51612300Y-31027500D02*
X51612300Y-33110500D01*
X51652300Y-26898500D02*
X51652300Y-28947500D01*
X51652300Y-31027500D02*
X51652300Y-33076500D01*
X51692300Y-26932500D02*
X51692300Y-28947500D01*
X51692300Y-31027500D02*
X51692300Y-33042500D01*
X51732300Y-26968500D02*
X51732300Y-28947500D01*
X51732300Y-31027500D02*
X51732300Y-33006500D01*
X51772300Y-27005500D02*
X51772300Y-32969500D01*
X51812300Y-27042500D02*
X51812300Y-32932500D01*
X51852300Y-27081500D02*
X51852300Y-32893500D01*
X51892300Y-27120500D02*
X51892300Y-32854500D01*
X51932300Y-27161500D02*
X51932300Y-32813500D01*
X51972300Y-27203500D02*
X51972300Y-32771500D01*
X52012300Y-27246500D02*
X52012300Y-32728500D01*
X52052300Y-27291500D02*
X52052300Y-32683500D01*
X52092300Y-27336500D02*
X52092300Y-32638500D01*
X52132300Y-27383500D02*
X52132300Y-32591500D01*
X52172300Y-27432500D02*
X52172300Y-32542500D01*
X52212300Y-27482500D02*
X52212300Y-32492500D01*
X52252300Y-27534500D02*
X52252300Y-32440500D01*
X52292300Y-27587500D02*
X52292300Y-32387500D01*
X52332300Y-27643500D02*
X52332300Y-32331500D01*
X52372300Y-27700500D02*
X52372300Y-32274500D01*
X52412300Y-27760500D02*
X52412300Y-32214500D01*
X52452300Y-27822500D02*
X52452300Y-32152500D01*
X52492300Y-27886500D02*
X52492300Y-32088500D01*
X52532300Y-27953500D02*
X52532300Y-32021500D01*
X52572300Y-28023500D02*
X52572300Y-31951500D01*
X52612300Y-28097500D02*
X52612300Y-31877500D01*
X52652300Y-28174500D02*
X52652300Y-31800500D01*
X52692300Y-28256500D02*
X52692300Y-31718500D01*
X52732300Y-28343500D02*
X52732300Y-31631500D01*
X52772300Y-28435500D02*
X52772300Y-31539500D01*
X52812300Y-28534500D02*
X52812300Y-31440500D01*
X52852300Y-28641500D02*
X52852300Y-31333500D01*
X52892300Y-28759500D02*
X52892300Y-31215500D01*
X52932300Y-28890500D02*
X52932300Y-31084500D01*
X52972300Y-29040500D02*
X52972300Y-30934500D01*
X53012300Y-29219500D02*
X53012300Y-30755500D01*
X53052300Y-29454500D02*
X53052300Y-30520500D01*
X53092300Y-29987500D02*
G75*
G02*
X44852300Y-29987500I-4120000J0D01*
G01*
X44852300Y-29987500D02*
G75*
G02*
X53092300Y-29987500I4120000J0D01*
G01*
%TO.C,J3*%
X33495000Y-51992500D02*
X33495000Y-49342500D01*
X36255000Y-49342500D02*
X33495000Y-49342500D01*
X36255000Y-51992500D02*
X33495000Y-51992500D01*
X36255000Y-51992500D02*
X36255000Y-49342500D01*
X36255000Y-53262500D02*
X36255000Y-54642500D01*
X36255000Y-54642500D02*
X34875000Y-54642500D01*
%TO.C,U1*%
X60625000Y-48117500D02*
X60625000Y-55857500D01*
X60625000Y-55857500D02*
X65125000Y-55857500D01*
X61875000Y-48117500D02*
X60625000Y-48117500D01*
X65125000Y-48117500D02*
X63875000Y-48117500D01*
X65125000Y-55857500D02*
X65125000Y-48117500D01*
X63875000Y-48117500D02*
G75*
G02*
X61875000Y-48117500I-1000000J0D01*
G01*
%TO.C,C4*%
X44562602Y-71672500D02*
X45362602Y-71672500D01*
X44962602Y-71272500D02*
X44962602Y-72072500D01*
X48972300Y-69907500D02*
X48972300Y-78067500D01*
X49012300Y-69907500D02*
X49012300Y-78067500D01*
X49052300Y-69908500D02*
X49052300Y-78066500D01*
X49092300Y-69909500D02*
X49092300Y-78065500D01*
X49132300Y-69910500D02*
X49132300Y-78064500D01*
X49172300Y-69912500D02*
X49172300Y-78062500D01*
X49212300Y-69914500D02*
X49212300Y-78060500D01*
X49252300Y-69917500D02*
X49252300Y-78057500D01*
X49292300Y-69919500D02*
X49292300Y-78055500D01*
X49332300Y-69923500D02*
X49332300Y-78051500D01*
X49372300Y-69926500D02*
X49372300Y-78048500D01*
X49412300Y-69931500D02*
X49412300Y-78043500D01*
X49452300Y-69935500D02*
X49452300Y-78039500D01*
X49492300Y-69940500D02*
X49492300Y-78034500D01*
X49532300Y-69945500D02*
X49532300Y-78029500D01*
X49572300Y-69951500D02*
X49572300Y-78023500D01*
X49612300Y-69957500D02*
X49612300Y-78017500D01*
X49652300Y-69964500D02*
X49652300Y-78010500D01*
X49692300Y-69970500D02*
X49692300Y-72947500D01*
X49692300Y-75027500D02*
X49692300Y-78004500D01*
X49732300Y-69978500D02*
X49732300Y-72947500D01*
X49732300Y-75027500D02*
X49732300Y-77996500D01*
X49772300Y-69985500D02*
X49772300Y-72947500D01*
X49772300Y-75027500D02*
X49772300Y-77989500D01*
X49812300Y-69994500D02*
X49812300Y-72947500D01*
X49812300Y-75027500D02*
X49812300Y-77980500D01*
X49852300Y-70002500D02*
X49852300Y-72947500D01*
X49852300Y-75027500D02*
X49852300Y-77972500D01*
X49892300Y-70011500D02*
X49892300Y-72947500D01*
X49892300Y-75027500D02*
X49892300Y-77963500D01*
X49932300Y-70020500D02*
X49932300Y-72947500D01*
X49932300Y-75027500D02*
X49932300Y-77954500D01*
X49972300Y-70030500D02*
X49972300Y-72947500D01*
X49972300Y-75027500D02*
X49972300Y-77944500D01*
X50012300Y-70040500D02*
X50012300Y-72947500D01*
X50012300Y-75027500D02*
X50012300Y-77934500D01*
X50052300Y-70051500D02*
X50052300Y-72947500D01*
X50052300Y-75027500D02*
X50052300Y-77923500D01*
X50092300Y-70062500D02*
X50092300Y-72947500D01*
X50092300Y-75027500D02*
X50092300Y-77912500D01*
X50132300Y-70074500D02*
X50132300Y-72947500D01*
X50132300Y-75027500D02*
X50132300Y-77900500D01*
X50172300Y-70086500D02*
X50172300Y-72947500D01*
X50172300Y-75027500D02*
X50172300Y-77888500D01*
X50212300Y-70098500D02*
X50212300Y-72947500D01*
X50212300Y-75027500D02*
X50212300Y-77876500D01*
X50252300Y-70111500D02*
X50252300Y-72947500D01*
X50252300Y-75027500D02*
X50252300Y-77863500D01*
X50292300Y-70124500D02*
X50292300Y-72947500D01*
X50292300Y-75027500D02*
X50292300Y-77850500D01*
X50332300Y-70138500D02*
X50332300Y-72947500D01*
X50332300Y-75027500D02*
X50332300Y-77836500D01*
X50372300Y-70152500D02*
X50372300Y-72947500D01*
X50372300Y-75027500D02*
X50372300Y-77822500D01*
X50412300Y-70167500D02*
X50412300Y-72947500D01*
X50412300Y-75027500D02*
X50412300Y-77807500D01*
X50452300Y-70182500D02*
X50452300Y-72947500D01*
X50452300Y-75027500D02*
X50452300Y-77792500D01*
X50492300Y-70198500D02*
X50492300Y-72947500D01*
X50492300Y-75027500D02*
X50492300Y-77776500D01*
X50532300Y-70214500D02*
X50532300Y-72947500D01*
X50532300Y-75027500D02*
X50532300Y-77760500D01*
X50572300Y-70230500D02*
X50572300Y-72947500D01*
X50572300Y-75027500D02*
X50572300Y-77744500D01*
X50612300Y-70247500D02*
X50612300Y-72947500D01*
X50612300Y-75027500D02*
X50612300Y-77727500D01*
X50652300Y-70265500D02*
X50652300Y-72947500D01*
X50652300Y-75027500D02*
X50652300Y-77709500D01*
X50692300Y-70283500D02*
X50692300Y-72947500D01*
X50692300Y-75027500D02*
X50692300Y-77691500D01*
X50732300Y-70302500D02*
X50732300Y-72947500D01*
X50732300Y-75027500D02*
X50732300Y-77672500D01*
X50772300Y-70321500D02*
X50772300Y-72947500D01*
X50772300Y-75027500D02*
X50772300Y-77653500D01*
X50812300Y-70341500D02*
X50812300Y-72947500D01*
X50812300Y-75027500D02*
X50812300Y-77633500D01*
X50852300Y-70361500D02*
X50852300Y-72947500D01*
X50852300Y-75027500D02*
X50852300Y-77613500D01*
X50892300Y-70382500D02*
X50892300Y-72947500D01*
X50892300Y-75027500D02*
X50892300Y-77592500D01*
X50932300Y-70403500D02*
X50932300Y-72947500D01*
X50932300Y-75027500D02*
X50932300Y-77571500D01*
X50972300Y-70425500D02*
X50972300Y-72947500D01*
X50972300Y-75027500D02*
X50972300Y-77549500D01*
X51012300Y-70448500D02*
X51012300Y-72947500D01*
X51012300Y-75027500D02*
X51012300Y-77526500D01*
X51052300Y-70471500D02*
X51052300Y-72947500D01*
X51052300Y-75027500D02*
X51052300Y-77503500D01*
X51092300Y-70494500D02*
X51092300Y-72947500D01*
X51092300Y-75027500D02*
X51092300Y-77480500D01*
X51132300Y-70519500D02*
X51132300Y-72947500D01*
X51132300Y-75027500D02*
X51132300Y-77455500D01*
X51172300Y-70544500D02*
X51172300Y-72947500D01*
X51172300Y-75027500D02*
X51172300Y-77430500D01*
X51212300Y-70569500D02*
X51212300Y-72947500D01*
X51212300Y-75027500D02*
X51212300Y-77405500D01*
X51252300Y-70595500D02*
X51252300Y-72947500D01*
X51252300Y-75027500D02*
X51252300Y-77379500D01*
X51292300Y-70622500D02*
X51292300Y-72947500D01*
X51292300Y-75027500D02*
X51292300Y-77352500D01*
X51332300Y-70650500D02*
X51332300Y-72947500D01*
X51332300Y-75027500D02*
X51332300Y-77324500D01*
X51372300Y-70678500D02*
X51372300Y-72947500D01*
X51372300Y-75027500D02*
X51372300Y-77296500D01*
X51412300Y-70707500D02*
X51412300Y-72947500D01*
X51412300Y-75027500D02*
X51412300Y-77267500D01*
X51452300Y-70737500D02*
X51452300Y-72947500D01*
X51452300Y-75027500D02*
X51452300Y-77237500D01*
X51492300Y-70768500D02*
X51492300Y-72947500D01*
X51492300Y-75027500D02*
X51492300Y-77206500D01*
X51532300Y-70799500D02*
X51532300Y-72947500D01*
X51532300Y-75027500D02*
X51532300Y-77175500D01*
X51572300Y-70831500D02*
X51572300Y-72947500D01*
X51572300Y-75027500D02*
X51572300Y-77143500D01*
X51612300Y-70864500D02*
X51612300Y-72947500D01*
X51612300Y-75027500D02*
X51612300Y-77110500D01*
X51652300Y-70898500D02*
X51652300Y-72947500D01*
X51652300Y-75027500D02*
X51652300Y-77076500D01*
X51692300Y-70932500D02*
X51692300Y-72947500D01*
X51692300Y-75027500D02*
X51692300Y-77042500D01*
X51732300Y-70968500D02*
X51732300Y-72947500D01*
X51732300Y-75027500D02*
X51732300Y-77006500D01*
X51772300Y-71005500D02*
X51772300Y-76969500D01*
X51812300Y-71042500D02*
X51812300Y-76932500D01*
X51852300Y-71081500D02*
X51852300Y-76893500D01*
X51892300Y-71120500D02*
X51892300Y-76854500D01*
X51932300Y-71161500D02*
X51932300Y-76813500D01*
X51972300Y-71203500D02*
X51972300Y-76771500D01*
X52012300Y-71246500D02*
X52012300Y-76728500D01*
X52052300Y-71291500D02*
X52052300Y-76683500D01*
X52092300Y-71336500D02*
X52092300Y-76638500D01*
X52132300Y-71383500D02*
X52132300Y-76591500D01*
X52172300Y-71432500D02*
X52172300Y-76542500D01*
X52212300Y-71482500D02*
X52212300Y-76492500D01*
X52252300Y-71534500D02*
X52252300Y-76440500D01*
X52292300Y-71587500D02*
X52292300Y-76387500D01*
X52332300Y-71643500D02*
X52332300Y-76331500D01*
X52372300Y-71700500D02*
X52372300Y-76274500D01*
X52412300Y-71760500D02*
X52412300Y-76214500D01*
X52452300Y-71822500D02*
X52452300Y-76152500D01*
X52492300Y-71886500D02*
X52492300Y-76088500D01*
X52532300Y-71953500D02*
X52532300Y-76021500D01*
X52572300Y-72023500D02*
X52572300Y-75951500D01*
X52612300Y-72097500D02*
X52612300Y-75877500D01*
X52652300Y-72174500D02*
X52652300Y-75800500D01*
X52692300Y-72256500D02*
X52692300Y-75718500D01*
X52732300Y-72343500D02*
X52732300Y-75631500D01*
X52772300Y-72435500D02*
X52772300Y-75539500D01*
X52812300Y-72534500D02*
X52812300Y-75440500D01*
X52852300Y-72641500D02*
X52852300Y-75333500D01*
X52892300Y-72759500D02*
X52892300Y-75215500D01*
X52932300Y-72890500D02*
X52932300Y-75084500D01*
X52972300Y-73040500D02*
X52972300Y-74934500D01*
X53012300Y-73219500D02*
X53012300Y-74755500D01*
X53052300Y-73454500D02*
X53052300Y-74520500D01*
X53092300Y-73987500D02*
G75*
G02*
X44852300Y-73987500I-4120000J0D01*
G01*
X44852300Y-73987500D02*
G75*
G02*
X53092300Y-73987500I4120000J0D01*
G01*
%TO.C,Q1*%
X59765000Y-27677500D02*
X69985000Y-27677500D01*
X59765000Y-29057500D02*
X69985000Y-29057500D01*
X59765000Y-32297500D02*
X59765000Y-27677500D01*
X63025000Y-27677500D02*
X63025000Y-29057500D01*
X66725000Y-27677500D02*
X66725000Y-29057500D01*
X69985000Y-27677500D02*
X69985000Y-32297500D01*
X69985000Y-32297500D02*
X59765000Y-32297500D01*
%TO.C,R1*%
X47505000Y-47717500D02*
X47835000Y-47717500D01*
X47505000Y-54257500D02*
X47505000Y-47717500D01*
X47835000Y-54257500D02*
X47505000Y-54257500D01*
X49915000Y-54257500D02*
X50245000Y-54257500D01*
X50245000Y-47717500D02*
X49915000Y-47717500D01*
X50245000Y-54257500D02*
X50245000Y-47717500D01*
%TO.C,J2*%
X91795000Y-96177500D02*
X91795000Y-103797500D01*
X91795000Y-97447500D02*
X101955000Y-97447500D01*
X91795000Y-103797500D02*
X101955000Y-103797500D01*
X101955000Y-96177500D02*
X91795000Y-96177500D01*
X101955000Y-103797500D02*
X101955000Y-96177500D01*
%TO.C,R4*%
X101505000Y-70717500D02*
X101835000Y-70717500D01*
X101505000Y-77257500D02*
X101505000Y-70717500D01*
X101835000Y-77257500D02*
X101505000Y-77257500D01*
X103915000Y-77257500D02*
X104245000Y-77257500D01*
X104245000Y-70717500D02*
X103915000Y-70717500D01*
X104245000Y-77257500D02*
X104245000Y-70717500D01*
%TD*%
M02*
