%TF.GenerationSoftware,KiCad,Pcbnew,9.0.4*%
%TF.CreationDate,2026-06-18T15:54:00+02:00*%
%TF.ProjectId,mppt_buck,6d707074-5f62-4756-936b-2e6b69636164,rev?*%
%TF.SameCoordinates,Original*%
%TF.FileFunction,Soldermask,Top*%
%TF.FilePolarity,Negative*%
%FSLAX46Y46*%
G04 Gerber Fmt 4.6, Leading zero omitted, Abs format (unit mm)*
G04 Created by KiCad (PCBNEW 9.0.4) date 2026-06-18 15:54:00*
%MOMM*%
%LPD*%
G01*
G04 APERTURE LIST*
G04 Aperture macros list*
%AMRoundRect*
0 Rectangle with rounded corners*
0 $1 Rounding radius*
0 $2 $3 $4 $5 $6 $7 $8 $9 X,Y pos of 4 corners*
0 Add a 4 corners polygon primitive as box body*
4,1,4,$2,$3,$4,$5,$6,$7,$8,$9,$2,$3,0*
0 Add four circle primitives for the rounded corners*
1,1,$1+$1,$2,$3*
1,1,$1+$1,$4,$5*
1,1,$1+$1,$6,$7*
1,1,$1+$1,$8,$9*
0 Add four rect primitives between the rounded corners*
20,1,$1+$1,$2,$3,$4,$5,0*
20,1,$1+$1,$4,$5,$6,$7,0*
20,1,$1+$1,$6,$7,$8,$9,0*
20,1,$1+$1,$8,$9,$2,$3,0*%
G04 Aperture macros list end*
%ADD10RoundRect,0.250000X0.550000X-0.550000X0.550000X0.550000X-0.550000X0.550000X-0.550000X-0.550000X0*%
%ADD11C,1.600000*%
%ADD12RoundRect,0.250000X-0.550000X-0.550000X0.550000X-0.550000X0.550000X0.550000X-0.550000X0.550000X0*%
%ADD13RoundRect,0.250000X-0.950000X-0.550000X0.950000X-0.550000X0.950000X0.550000X-0.950000X0.550000X0*%
%ADD14O,2.400000X1.600000*%
%ADD15RoundRect,0.250000X1.350000X-1.350000X1.350000X1.350000X-1.350000X1.350000X-1.350000X-1.350000X0*%
%ADD16C,3.200000*%
%ADD17C,4.000000*%
%ADD18R,3.000000X3.000000*%
%ADD19C,3.000000*%
%ADD20R,1.700000X1.700000*%
%ADD21C,1.700000*%
%ADD22R,1.700000X2.000000*%
%ADD23O,1.700000X2.000000*%
G04 APERTURE END LIST*
D10*
%TO.C,D3*%
X112875000Y-67797500D03*
D11*
X112875000Y-60177500D03*
%TD*%
%TO.C,R2*%
X76875000Y-56797500D03*
X76875000Y-49177500D03*
%TD*%
%TO.C,C5*%
X58375000Y-73987500D03*
X63375000Y-73987500D03*
%TD*%
%TO.C,R3*%
X112875000Y-53797500D03*
X112875000Y-46177500D03*
%TD*%
D12*
%TO.C,C2*%
X77222300Y-99987500D03*
D11*
X80722300Y-99987500D03*
%TD*%
D13*
%TO.C,U2*%
X93065000Y-47367500D03*
D14*
X93065000Y-49907500D03*
X93065000Y-52447500D03*
X93065000Y-54987500D03*
X93065000Y-57527500D03*
X93065000Y-60067500D03*
X93065000Y-62607500D03*
X100685000Y-62607500D03*
X100685000Y-60067500D03*
X100685000Y-57527500D03*
X100685000Y-54987500D03*
X100685000Y-52447500D03*
X100685000Y-49907500D03*
X100685000Y-47367500D03*
%TD*%
D15*
%TO.C,D1*%
X78875000Y-43607500D03*
D16*
X78875000Y-28367500D03*
%TD*%
D11*
%TO.C,C3*%
X86375000Y-73987500D03*
X91375000Y-73987500D03*
%TD*%
D17*
%TO.C,L1*%
X38775000Y-100987500D03*
X66975000Y-100987500D03*
%TD*%
D12*
%TO.C,D2*%
X71065000Y-73987500D03*
D11*
X78685000Y-73987500D03*
%TD*%
D18*
%TO.C,J4*%
X37415000Y-73987500D03*
D19*
X32335000Y-73987500D03*
%TD*%
D18*
%TO.C,J1*%
X37415000Y-29987500D03*
D19*
X32335000Y-29987500D03*
%TD*%
D12*
%TO.C,C1*%
X47222300Y-29987500D03*
D11*
X50722300Y-29987500D03*
%TD*%
D20*
%TO.C,J3*%
X34875000Y-53262500D03*
D21*
X34875000Y-50722500D03*
%TD*%
D13*
%TO.C,U1*%
X59065000Y-49447500D03*
D14*
X59065000Y-51987500D03*
X59065000Y-54527500D03*
X66685000Y-54527500D03*
X66685000Y-51987500D03*
X66685000Y-49447500D03*
%TD*%
D12*
%TO.C,C4*%
X47222300Y-73987500D03*
D11*
X50722300Y-73987500D03*
%TD*%
D22*
%TO.C,Q1*%
X62335000Y-30937500D03*
D23*
X64875000Y-30937500D03*
X67415000Y-30937500D03*
%TD*%
D11*
%TO.C,R1*%
X48875000Y-54797500D03*
X48875000Y-47177500D03*
%TD*%
D18*
%TO.C,J2*%
X99415000Y-99987500D03*
D19*
X94335000Y-99987500D03*
%TD*%
D11*
%TO.C,R4*%
X102875000Y-77797500D03*
X102875000Y-70177500D03*
%TD*%
M02*
