M48
; DRILL file {KiCad 9.0.4} date 2026-06-18T15:54:00+0200
; FORMAT={-:-/ absolute / metric / decimal}
; #@! TF.CreationDate,2026-06-18T15:54:00+02:00
; #@! TF.GenerationSoftware,Kicad,Pcbnew,9.0.4
; #@! TF.FileFunction,MixedPlating,1,2
FMAT,2
METRIC
; #@! TA.AperFunction,Plated,PTH,ComponentDrill
T1C0.800
; #@! TA.AperFunction,Plated,PTH,ComponentDrill
T2C1.000
; #@! TA.AperFunction,Plated,PTH,ComponentDrill
T3C1.100
; #@! TA.AperFunction,Plated,PTH,ComponentDrill
T4C1.520
; #@! TA.AperFunction,Plated,PTH,ComponentDrill
T5C1.600
; #@! TA.AperFunction,Plated,PTH,ComponentDrill
T6C2.000
%
G90
G05
T1
X47.222Y-29.987
X47.222Y-73.987
X48.875Y-47.177
X48.875Y-54.797
X50.722Y-29.987
X50.722Y-73.987
X58.375Y-73.987
X59.065Y-49.447
X59.065Y-51.987
X59.065Y-54.527
X63.375Y-73.987
X66.685Y-49.447
X66.685Y-51.987
X66.685Y-54.527
X71.065Y-73.987
X76.875Y-49.177
X76.875Y-56.797
X77.222Y-99.987
X78.685Y-73.987
X80.722Y-99.987
X86.375Y-73.987
X91.375Y-73.987
X93.065Y-47.367
X93.065Y-49.907
X93.065Y-52.447
X93.065Y-54.987
X93.065Y-57.527
X93.065Y-60.067
X93.065Y-62.607
X100.685Y-47.367
X100.685Y-49.907
X100.685Y-52.447
X100.685Y-54.987
X100.685Y-57.527
X100.685Y-60.067
X100.685Y-62.607
X102.875Y-70.177
X102.875Y-77.797
X112.875Y-46.177
X112.875Y-53.797
X112.875Y-60.177
X112.875Y-67.797
T2
X34.875Y-50.722
X34.875Y-53.262
T3
X62.335Y-30.938
X64.875Y-30.938
X67.415Y-30.938
T4
X32.335Y-29.987
X32.335Y-73.987
X37.415Y-29.987
X37.415Y-73.987
X94.335Y-99.987
X99.415Y-99.987
T5
X78.875Y-28.367
X78.875Y-43.607
T6
X38.775Y-100.987
X66.975Y-100.987
M30
