%TF.GenerationSoftware,KiCad,Pcbnew,9.0.4*%
%TF.CreationDate,2026-06-18T15:54:00+02:00*%
%TF.ProjectId,mppt_buck,6d707074-5f62-4756-936b-2e6b69636164,rev?*%
%TF.SameCoordinates,Original*%
%TF.FileFunction,AssemblyDrawing,Top*%
%FSLAX46Y46*%
G04 Gerber Fmt 4.6, Leading zero omitted, Abs format (unit mm)*
G04 Created by KiCad (PCBNEW 9.0.4) date 2026-06-18 15:54:00*
%MOMM*%
%LPD*%
G01*
G04 APERTURE LIST*
%ADD10C,0.150000*%
%ADD11C,0.120000*%
%ADD12C,0.100000*%
G04 APERTURE END LIST*
D10*
X115449819Y-66130357D02*
X115449819Y-66701785D01*
X115449819Y-66416071D02*
X114449819Y-66416071D01*
X114449819Y-66416071D02*
X114592676Y-66511309D01*
X114592676Y-66511309D02*
X114687914Y-66606547D01*
X114687914Y-66606547D02*
X114735533Y-66701785D01*
X115449819Y-65701785D02*
X114449819Y-65701785D01*
X114449819Y-65701785D02*
X115449819Y-65130357D01*
X115449819Y-65130357D02*
X114449819Y-65130357D01*
X114783152Y-64225595D02*
X115449819Y-64225595D01*
X114402200Y-64463690D02*
X115116485Y-64701785D01*
X115116485Y-64701785D02*
X115116485Y-64082738D01*
X115449819Y-63177976D02*
X115449819Y-63749404D01*
X115449819Y-63463690D02*
X114449819Y-63463690D01*
X114449819Y-63463690D02*
X114592676Y-63558928D01*
X114592676Y-63558928D02*
X114687914Y-63654166D01*
X114687914Y-63654166D02*
X114735533Y-63749404D01*
X114783152Y-62320833D02*
X115449819Y-62320833D01*
X114402200Y-62558928D02*
X115116485Y-62797023D01*
X115116485Y-62797023D02*
X115116485Y-62177976D01*
X114878390Y-61654166D02*
X114830771Y-61749404D01*
X114830771Y-61749404D02*
X114783152Y-61797023D01*
X114783152Y-61797023D02*
X114687914Y-61844642D01*
X114687914Y-61844642D02*
X114640295Y-61844642D01*
X114640295Y-61844642D02*
X114545057Y-61797023D01*
X114545057Y-61797023D02*
X114497438Y-61749404D01*
X114497438Y-61749404D02*
X114449819Y-61654166D01*
X114449819Y-61654166D02*
X114449819Y-61463690D01*
X114449819Y-61463690D02*
X114497438Y-61368452D01*
X114497438Y-61368452D02*
X114545057Y-61320833D01*
X114545057Y-61320833D02*
X114640295Y-61273214D01*
X114640295Y-61273214D02*
X114687914Y-61273214D01*
X114687914Y-61273214D02*
X114783152Y-61320833D01*
X114783152Y-61320833D02*
X114830771Y-61368452D01*
X114830771Y-61368452D02*
X114878390Y-61463690D01*
X114878390Y-61463690D02*
X114878390Y-61654166D01*
X114878390Y-61654166D02*
X114926009Y-61749404D01*
X114926009Y-61749404D02*
X114973628Y-61797023D01*
X114973628Y-61797023D02*
X115068866Y-61844642D01*
X115068866Y-61844642D02*
X115259342Y-61844642D01*
X115259342Y-61844642D02*
X115354580Y-61797023D01*
X115354580Y-61797023D02*
X115402200Y-61749404D01*
X115402200Y-61749404D02*
X115449819Y-61654166D01*
X115449819Y-61654166D02*
X115449819Y-61463690D01*
X115449819Y-61463690D02*
X115402200Y-61368452D01*
X115402200Y-61368452D02*
X115354580Y-61320833D01*
X115354580Y-61320833D02*
X115259342Y-61273214D01*
X115259342Y-61273214D02*
X115068866Y-61273214D01*
X115068866Y-61273214D02*
X114973628Y-61320833D01*
X114973628Y-61320833D02*
X114926009Y-61368452D01*
X114926009Y-61368452D02*
X114878390Y-61463690D01*
X111529819Y-68059404D02*
X110529819Y-68059404D01*
X111529819Y-67487976D02*
X110958390Y-67916547D01*
X110529819Y-67487976D02*
X111101247Y-68059404D01*
D11*
X113238855Y-64277975D02*
X112438855Y-64277975D01*
X112438855Y-64277975D02*
X112438855Y-64087499D01*
X112438855Y-64087499D02*
X112476950Y-63973213D01*
X112476950Y-63973213D02*
X112553140Y-63897023D01*
X112553140Y-63897023D02*
X112629331Y-63858928D01*
X112629331Y-63858928D02*
X112781712Y-63820832D01*
X112781712Y-63820832D02*
X112895998Y-63820832D01*
X112895998Y-63820832D02*
X113048379Y-63858928D01*
X113048379Y-63858928D02*
X113124569Y-63897023D01*
X113124569Y-63897023D02*
X113200760Y-63973213D01*
X113200760Y-63973213D02*
X113238855Y-64087499D01*
X113238855Y-64087499D02*
X113238855Y-64277975D01*
X112438855Y-63554166D02*
X112438855Y-63058928D01*
X112438855Y-63058928D02*
X112743617Y-63325594D01*
X112743617Y-63325594D02*
X112743617Y-63211309D01*
X112743617Y-63211309D02*
X112781712Y-63135118D01*
X112781712Y-63135118D02*
X112819807Y-63097023D01*
X112819807Y-63097023D02*
X112895998Y-63058928D01*
X112895998Y-63058928D02*
X113086474Y-63058928D01*
X113086474Y-63058928D02*
X113162664Y-63097023D01*
X113162664Y-63097023D02*
X113200760Y-63135118D01*
X113200760Y-63135118D02*
X113238855Y-63211309D01*
X113238855Y-63211309D02*
X113238855Y-63439880D01*
X113238855Y-63439880D02*
X113200760Y-63516071D01*
X113200760Y-63516071D02*
X113162664Y-63554166D01*
D10*
X79699819Y-53106547D02*
X79699819Y-53677975D01*
X79699819Y-53392261D02*
X78699819Y-53392261D01*
X78699819Y-53392261D02*
X78842676Y-53487499D01*
X78842676Y-53487499D02*
X78937914Y-53582737D01*
X78937914Y-53582737D02*
X78985533Y-53677975D01*
X79699819Y-52677975D02*
X78699819Y-52677975D01*
X79318866Y-52582737D02*
X79699819Y-52297023D01*
X79033152Y-52297023D02*
X79414104Y-52677975D01*
X77329819Y-53154166D02*
X76853628Y-53487499D01*
X77329819Y-53725594D02*
X76329819Y-53725594D01*
X76329819Y-53725594D02*
X76329819Y-53344642D01*
X76329819Y-53344642D02*
X76377438Y-53249404D01*
X76377438Y-53249404D02*
X76425057Y-53201785D01*
X76425057Y-53201785D02*
X76520295Y-53154166D01*
X76520295Y-53154166D02*
X76663152Y-53154166D01*
X76663152Y-53154166D02*
X76758390Y-53201785D01*
X76758390Y-53201785D02*
X76806009Y-53249404D01*
X76806009Y-53249404D02*
X76853628Y-53344642D01*
X76853628Y-53344642D02*
X76853628Y-53725594D01*
X76425057Y-52773213D02*
X76377438Y-52725594D01*
X76377438Y-52725594D02*
X76329819Y-52630356D01*
X76329819Y-52630356D02*
X76329819Y-52392261D01*
X76329819Y-52392261D02*
X76377438Y-52297023D01*
X76377438Y-52297023D02*
X76425057Y-52249404D01*
X76425057Y-52249404D02*
X76520295Y-52201785D01*
X76520295Y-52201785D02*
X76615533Y-52201785D01*
X76615533Y-52201785D02*
X76758390Y-52249404D01*
X76758390Y-52249404D02*
X77329819Y-52820832D01*
X77329819Y-52820832D02*
X77329819Y-52201785D01*
X59755952Y-76942319D02*
X59184524Y-76942319D01*
X59470238Y-76942319D02*
X59470238Y-75942319D01*
X59470238Y-75942319D02*
X59375000Y-76085176D01*
X59375000Y-76085176D02*
X59279762Y-76180414D01*
X59279762Y-76180414D02*
X59184524Y-76228033D01*
X60375000Y-75942319D02*
X60470238Y-75942319D01*
X60470238Y-75942319D02*
X60565476Y-75989938D01*
X60565476Y-75989938D02*
X60613095Y-76037557D01*
X60613095Y-76037557D02*
X60660714Y-76132795D01*
X60660714Y-76132795D02*
X60708333Y-76323271D01*
X60708333Y-76323271D02*
X60708333Y-76561366D01*
X60708333Y-76561366D02*
X60660714Y-76751842D01*
X60660714Y-76751842D02*
X60613095Y-76847080D01*
X60613095Y-76847080D02*
X60565476Y-76894700D01*
X60565476Y-76894700D02*
X60470238Y-76942319D01*
X60470238Y-76942319D02*
X60375000Y-76942319D01*
X60375000Y-76942319D02*
X60279762Y-76894700D01*
X60279762Y-76894700D02*
X60232143Y-76847080D01*
X60232143Y-76847080D02*
X60184524Y-76751842D01*
X60184524Y-76751842D02*
X60136905Y-76561366D01*
X60136905Y-76561366D02*
X60136905Y-76323271D01*
X60136905Y-76323271D02*
X60184524Y-76132795D01*
X60184524Y-76132795D02*
X60232143Y-76037557D01*
X60232143Y-76037557D02*
X60279762Y-75989938D01*
X60279762Y-75989938D02*
X60375000Y-75942319D01*
X61327381Y-75942319D02*
X61422619Y-75942319D01*
X61422619Y-75942319D02*
X61517857Y-75989938D01*
X61517857Y-75989938D02*
X61565476Y-76037557D01*
X61565476Y-76037557D02*
X61613095Y-76132795D01*
X61613095Y-76132795D02*
X61660714Y-76323271D01*
X61660714Y-76323271D02*
X61660714Y-76561366D01*
X61660714Y-76561366D02*
X61613095Y-76751842D01*
X61613095Y-76751842D02*
X61565476Y-76847080D01*
X61565476Y-76847080D02*
X61517857Y-76894700D01*
X61517857Y-76894700D02*
X61422619Y-76942319D01*
X61422619Y-76942319D02*
X61327381Y-76942319D01*
X61327381Y-76942319D02*
X61232143Y-76894700D01*
X61232143Y-76894700D02*
X61184524Y-76847080D01*
X61184524Y-76847080D02*
X61136905Y-76751842D01*
X61136905Y-76751842D02*
X61089286Y-76561366D01*
X61089286Y-76561366D02*
X61089286Y-76323271D01*
X61089286Y-76323271D02*
X61136905Y-76132795D01*
X61136905Y-76132795D02*
X61184524Y-76037557D01*
X61184524Y-76037557D02*
X61232143Y-75989938D01*
X61232143Y-75989938D02*
X61327381Y-75942319D01*
X62089286Y-76275652D02*
X62089286Y-76942319D01*
X62089286Y-76370890D02*
X62136905Y-76323271D01*
X62136905Y-76323271D02*
X62232143Y-76275652D01*
X62232143Y-76275652D02*
X62375000Y-76275652D01*
X62375000Y-76275652D02*
X62470238Y-76323271D01*
X62470238Y-76323271D02*
X62517857Y-76418509D01*
X62517857Y-76418509D02*
X62517857Y-76942319D01*
X60708333Y-74347080D02*
X60660714Y-74394700D01*
X60660714Y-74394700D02*
X60517857Y-74442319D01*
X60517857Y-74442319D02*
X60422619Y-74442319D01*
X60422619Y-74442319D02*
X60279762Y-74394700D01*
X60279762Y-74394700D02*
X60184524Y-74299461D01*
X60184524Y-74299461D02*
X60136905Y-74204223D01*
X60136905Y-74204223D02*
X60089286Y-74013747D01*
X60089286Y-74013747D02*
X60089286Y-73870890D01*
X60089286Y-73870890D02*
X60136905Y-73680414D01*
X60136905Y-73680414D02*
X60184524Y-73585176D01*
X60184524Y-73585176D02*
X60279762Y-73489938D01*
X60279762Y-73489938D02*
X60422619Y-73442319D01*
X60422619Y-73442319D02*
X60517857Y-73442319D01*
X60517857Y-73442319D02*
X60660714Y-73489938D01*
X60660714Y-73489938D02*
X60708333Y-73537557D01*
X61613095Y-73442319D02*
X61136905Y-73442319D01*
X61136905Y-73442319D02*
X61089286Y-73918509D01*
X61089286Y-73918509D02*
X61136905Y-73870890D01*
X61136905Y-73870890D02*
X61232143Y-73823271D01*
X61232143Y-73823271D02*
X61470238Y-73823271D01*
X61470238Y-73823271D02*
X61565476Y-73870890D01*
X61565476Y-73870890D02*
X61613095Y-73918509D01*
X61613095Y-73918509D02*
X61660714Y-74013747D01*
X61660714Y-74013747D02*
X61660714Y-74251842D01*
X61660714Y-74251842D02*
X61613095Y-74347080D01*
X61613095Y-74347080D02*
X61565476Y-74394700D01*
X61565476Y-74394700D02*
X61470238Y-74442319D01*
X61470238Y-74442319D02*
X61232143Y-74442319D01*
X61232143Y-74442319D02*
X61136905Y-74394700D01*
X61136905Y-74394700D02*
X61089286Y-74347080D01*
X115699819Y-50177976D02*
X115699819Y-50749404D01*
X115699819Y-50463690D02*
X114699819Y-50463690D01*
X114699819Y-50463690D02*
X114842676Y-50558928D01*
X114842676Y-50558928D02*
X114937914Y-50654166D01*
X114937914Y-50654166D02*
X114985533Y-50749404D01*
X114699819Y-49558928D02*
X114699819Y-49463690D01*
X114699819Y-49463690D02*
X114747438Y-49368452D01*
X114747438Y-49368452D02*
X114795057Y-49320833D01*
X114795057Y-49320833D02*
X114890295Y-49273214D01*
X114890295Y-49273214D02*
X115080771Y-49225595D01*
X115080771Y-49225595D02*
X115318866Y-49225595D01*
X115318866Y-49225595D02*
X115509342Y-49273214D01*
X115509342Y-49273214D02*
X115604580Y-49320833D01*
X115604580Y-49320833D02*
X115652200Y-49368452D01*
X115652200Y-49368452D02*
X115699819Y-49463690D01*
X115699819Y-49463690D02*
X115699819Y-49558928D01*
X115699819Y-49558928D02*
X115652200Y-49654166D01*
X115652200Y-49654166D02*
X115604580Y-49701785D01*
X115604580Y-49701785D02*
X115509342Y-49749404D01*
X115509342Y-49749404D02*
X115318866Y-49797023D01*
X115318866Y-49797023D02*
X115080771Y-49797023D01*
X115080771Y-49797023D02*
X114890295Y-49749404D01*
X114890295Y-49749404D02*
X114795057Y-49701785D01*
X114795057Y-49701785D02*
X114747438Y-49654166D01*
X114747438Y-49654166D02*
X114699819Y-49558928D01*
X113329819Y-50154166D02*
X112853628Y-50487499D01*
X113329819Y-50725594D02*
X112329819Y-50725594D01*
X112329819Y-50725594D02*
X112329819Y-50344642D01*
X112329819Y-50344642D02*
X112377438Y-50249404D01*
X112377438Y-50249404D02*
X112425057Y-50201785D01*
X112425057Y-50201785D02*
X112520295Y-50154166D01*
X112520295Y-50154166D02*
X112663152Y-50154166D01*
X112663152Y-50154166D02*
X112758390Y-50201785D01*
X112758390Y-50201785D02*
X112806009Y-50249404D01*
X112806009Y-50249404D02*
X112853628Y-50344642D01*
X112853628Y-50344642D02*
X112853628Y-50725594D01*
X112329819Y-49820832D02*
X112329819Y-49201785D01*
X112329819Y-49201785D02*
X112710771Y-49535118D01*
X112710771Y-49535118D02*
X112710771Y-49392261D01*
X112710771Y-49392261D02*
X112758390Y-49297023D01*
X112758390Y-49297023D02*
X112806009Y-49249404D01*
X112806009Y-49249404D02*
X112901247Y-49201785D01*
X112901247Y-49201785D02*
X113139342Y-49201785D01*
X113139342Y-49201785D02*
X113234580Y-49249404D01*
X113234580Y-49249404D02*
X113282200Y-49297023D01*
X113282200Y-49297023D02*
X113329819Y-49392261D01*
X113329819Y-49392261D02*
X113329819Y-49677975D01*
X113329819Y-49677975D02*
X113282200Y-49773213D01*
X113282200Y-49773213D02*
X113234580Y-49820832D01*
X78234204Y-105025652D02*
X78234204Y-105692319D01*
X77996109Y-104644700D02*
X77758014Y-105358985D01*
X77758014Y-105358985D02*
X78377061Y-105358985D01*
X78662776Y-104692319D02*
X79329442Y-104692319D01*
X79329442Y-104692319D02*
X78900871Y-105692319D01*
X80138966Y-105025652D02*
X80138966Y-105692319D01*
X79710395Y-105025652D02*
X79710395Y-105549461D01*
X79710395Y-105549461D02*
X79758014Y-105644700D01*
X79758014Y-105644700D02*
X79853252Y-105692319D01*
X79853252Y-105692319D02*
X79996109Y-105692319D01*
X79996109Y-105692319D02*
X80091347Y-105644700D01*
X80091347Y-105644700D02*
X80138966Y-105597080D01*
X78805633Y-100347080D02*
X78758014Y-100394700D01*
X78758014Y-100394700D02*
X78615157Y-100442319D01*
X78615157Y-100442319D02*
X78519919Y-100442319D01*
X78519919Y-100442319D02*
X78377062Y-100394700D01*
X78377062Y-100394700D02*
X78281824Y-100299461D01*
X78281824Y-100299461D02*
X78234205Y-100204223D01*
X78234205Y-100204223D02*
X78186586Y-100013747D01*
X78186586Y-100013747D02*
X78186586Y-99870890D01*
X78186586Y-99870890D02*
X78234205Y-99680414D01*
X78234205Y-99680414D02*
X78281824Y-99585176D01*
X78281824Y-99585176D02*
X78377062Y-99489938D01*
X78377062Y-99489938D02*
X78519919Y-99442319D01*
X78519919Y-99442319D02*
X78615157Y-99442319D01*
X78615157Y-99442319D02*
X78758014Y-99489938D01*
X78758014Y-99489938D02*
X78805633Y-99537557D01*
X79186586Y-99537557D02*
X79234205Y-99489938D01*
X79234205Y-99489938D02*
X79329443Y-99442319D01*
X79329443Y-99442319D02*
X79567538Y-99442319D01*
X79567538Y-99442319D02*
X79662776Y-99489938D01*
X79662776Y-99489938D02*
X79710395Y-99537557D01*
X79710395Y-99537557D02*
X79758014Y-99632795D01*
X79758014Y-99632795D02*
X79758014Y-99728033D01*
X79758014Y-99728033D02*
X79710395Y-99870890D01*
X79710395Y-99870890D02*
X79138967Y-100442319D01*
X79138967Y-100442319D02*
X79758014Y-100442319D01*
X94470238Y-65392319D02*
X94470238Y-64392319D01*
X95517856Y-65392319D02*
X95184523Y-64916128D01*
X94946428Y-65392319D02*
X94946428Y-64392319D01*
X94946428Y-64392319D02*
X95327380Y-64392319D01*
X95327380Y-64392319D02*
X95422618Y-64439938D01*
X95422618Y-64439938D02*
X95470237Y-64487557D01*
X95470237Y-64487557D02*
X95517856Y-64582795D01*
X95517856Y-64582795D02*
X95517856Y-64725652D01*
X95517856Y-64725652D02*
X95470237Y-64820890D01*
X95470237Y-64820890D02*
X95422618Y-64868509D01*
X95422618Y-64868509D02*
X95327380Y-64916128D01*
X95327380Y-64916128D02*
X94946428Y-64916128D01*
X95898809Y-64487557D02*
X95946428Y-64439938D01*
X95946428Y-64439938D02*
X96041666Y-64392319D01*
X96041666Y-64392319D02*
X96279761Y-64392319D01*
X96279761Y-64392319D02*
X96374999Y-64439938D01*
X96374999Y-64439938D02*
X96422618Y-64487557D01*
X96422618Y-64487557D02*
X96470237Y-64582795D01*
X96470237Y-64582795D02*
X96470237Y-64678033D01*
X96470237Y-64678033D02*
X96422618Y-64820890D01*
X96422618Y-64820890D02*
X95851190Y-65392319D01*
X95851190Y-65392319D02*
X96470237Y-65392319D01*
X97422618Y-65392319D02*
X96851190Y-65392319D01*
X97136904Y-65392319D02*
X97136904Y-64392319D01*
X97136904Y-64392319D02*
X97041666Y-64535176D01*
X97041666Y-64535176D02*
X96946428Y-64630414D01*
X96946428Y-64630414D02*
X96851190Y-64678033D01*
X98374999Y-65392319D02*
X97803571Y-65392319D01*
X98089285Y-65392319D02*
X98089285Y-64392319D01*
X98089285Y-64392319D02*
X97994047Y-64535176D01*
X97994047Y-64535176D02*
X97898809Y-64630414D01*
X97898809Y-64630414D02*
X97803571Y-64678033D01*
X98994047Y-64392319D02*
X99089285Y-64392319D01*
X99089285Y-64392319D02*
X99184523Y-64439938D01*
X99184523Y-64439938D02*
X99232142Y-64487557D01*
X99232142Y-64487557D02*
X99279761Y-64582795D01*
X99279761Y-64582795D02*
X99327380Y-64773271D01*
X99327380Y-64773271D02*
X99327380Y-65011366D01*
X99327380Y-65011366D02*
X99279761Y-65201842D01*
X99279761Y-65201842D02*
X99232142Y-65297080D01*
X99232142Y-65297080D02*
X99184523Y-65344700D01*
X99184523Y-65344700D02*
X99089285Y-65392319D01*
X99089285Y-65392319D02*
X98994047Y-65392319D01*
X98994047Y-65392319D02*
X98898809Y-65344700D01*
X98898809Y-65344700D02*
X98851190Y-65297080D01*
X98851190Y-65297080D02*
X98803571Y-65201842D01*
X98803571Y-65201842D02*
X98755952Y-65011366D01*
X98755952Y-65011366D02*
X98755952Y-64773271D01*
X98755952Y-64773271D02*
X98803571Y-64582795D01*
X98803571Y-64582795D02*
X98851190Y-64487557D01*
X98851190Y-64487557D02*
X98898809Y-64439938D01*
X98898809Y-64439938D02*
X98994047Y-64392319D01*
X96329819Y-55749404D02*
X97139342Y-55749404D01*
X97139342Y-55749404D02*
X97234580Y-55701785D01*
X97234580Y-55701785D02*
X97282200Y-55654166D01*
X97282200Y-55654166D02*
X97329819Y-55558928D01*
X97329819Y-55558928D02*
X97329819Y-55368452D01*
X97329819Y-55368452D02*
X97282200Y-55273214D01*
X97282200Y-55273214D02*
X97234580Y-55225595D01*
X97234580Y-55225595D02*
X97139342Y-55177976D01*
X97139342Y-55177976D02*
X96329819Y-55177976D01*
X96425057Y-54749404D02*
X96377438Y-54701785D01*
X96377438Y-54701785D02*
X96329819Y-54606547D01*
X96329819Y-54606547D02*
X96329819Y-54368452D01*
X96329819Y-54368452D02*
X96377438Y-54273214D01*
X96377438Y-54273214D02*
X96425057Y-54225595D01*
X96425057Y-54225595D02*
X96520295Y-54177976D01*
X96520295Y-54177976D02*
X96615533Y-54177976D01*
X96615533Y-54177976D02*
X96758390Y-54225595D01*
X96758390Y-54225595D02*
X97329819Y-54797023D01*
X97329819Y-54797023D02*
X97329819Y-54177976D01*
X83049819Y-38130357D02*
X83049819Y-38701785D01*
X83049819Y-38416071D02*
X82049819Y-38416071D01*
X82049819Y-38416071D02*
X82192676Y-38511309D01*
X82192676Y-38511309D02*
X82287914Y-38606547D01*
X82287914Y-38606547D02*
X82335533Y-38701785D01*
X83049819Y-37701785D02*
X82049819Y-37701785D01*
X82049819Y-37701785D02*
X83049819Y-37130357D01*
X83049819Y-37130357D02*
X82049819Y-37130357D01*
X82049819Y-36177976D02*
X82049819Y-36654166D01*
X82049819Y-36654166D02*
X82526009Y-36701785D01*
X82526009Y-36701785D02*
X82478390Y-36654166D01*
X82478390Y-36654166D02*
X82430771Y-36558928D01*
X82430771Y-36558928D02*
X82430771Y-36320833D01*
X82430771Y-36320833D02*
X82478390Y-36225595D01*
X82478390Y-36225595D02*
X82526009Y-36177976D01*
X82526009Y-36177976D02*
X82621247Y-36130357D01*
X82621247Y-36130357D02*
X82859342Y-36130357D01*
X82859342Y-36130357D02*
X82954580Y-36177976D01*
X82954580Y-36177976D02*
X83002200Y-36225595D01*
X83002200Y-36225595D02*
X83049819Y-36320833D01*
X83049819Y-36320833D02*
X83049819Y-36558928D01*
X83049819Y-36558928D02*
X83002200Y-36654166D01*
X83002200Y-36654166D02*
X82954580Y-36701785D01*
X82478390Y-35558928D02*
X82430771Y-35654166D01*
X82430771Y-35654166D02*
X82383152Y-35701785D01*
X82383152Y-35701785D02*
X82287914Y-35749404D01*
X82287914Y-35749404D02*
X82240295Y-35749404D01*
X82240295Y-35749404D02*
X82145057Y-35701785D01*
X82145057Y-35701785D02*
X82097438Y-35654166D01*
X82097438Y-35654166D02*
X82049819Y-35558928D01*
X82049819Y-35558928D02*
X82049819Y-35368452D01*
X82049819Y-35368452D02*
X82097438Y-35273214D01*
X82097438Y-35273214D02*
X82145057Y-35225595D01*
X82145057Y-35225595D02*
X82240295Y-35177976D01*
X82240295Y-35177976D02*
X82287914Y-35177976D01*
X82287914Y-35177976D02*
X82383152Y-35225595D01*
X82383152Y-35225595D02*
X82430771Y-35273214D01*
X82430771Y-35273214D02*
X82478390Y-35368452D01*
X82478390Y-35368452D02*
X82478390Y-35558928D01*
X82478390Y-35558928D02*
X82526009Y-35654166D01*
X82526009Y-35654166D02*
X82573628Y-35701785D01*
X82573628Y-35701785D02*
X82668866Y-35749404D01*
X82668866Y-35749404D02*
X82859342Y-35749404D01*
X82859342Y-35749404D02*
X82954580Y-35701785D01*
X82954580Y-35701785D02*
X83002200Y-35654166D01*
X83002200Y-35654166D02*
X83049819Y-35558928D01*
X83049819Y-35558928D02*
X83049819Y-35368452D01*
X83049819Y-35368452D02*
X83002200Y-35273214D01*
X83002200Y-35273214D02*
X82954580Y-35225595D01*
X82954580Y-35225595D02*
X82859342Y-35177976D01*
X82859342Y-35177976D02*
X82668866Y-35177976D01*
X82668866Y-35177976D02*
X82573628Y-35225595D01*
X82573628Y-35225595D02*
X82526009Y-35273214D01*
X82526009Y-35273214D02*
X82478390Y-35368452D01*
X82145057Y-34797023D02*
X82097438Y-34749404D01*
X82097438Y-34749404D02*
X82049819Y-34654166D01*
X82049819Y-34654166D02*
X82049819Y-34416071D01*
X82049819Y-34416071D02*
X82097438Y-34320833D01*
X82097438Y-34320833D02*
X82145057Y-34273214D01*
X82145057Y-34273214D02*
X82240295Y-34225595D01*
X82240295Y-34225595D02*
X82335533Y-34225595D01*
X82335533Y-34225595D02*
X82478390Y-34273214D01*
X82478390Y-34273214D02*
X83049819Y-34844642D01*
X83049819Y-34844642D02*
X83049819Y-34225595D01*
X82145057Y-33844642D02*
X82097438Y-33797023D01*
X82097438Y-33797023D02*
X82049819Y-33701785D01*
X82049819Y-33701785D02*
X82049819Y-33463690D01*
X82049819Y-33463690D02*
X82097438Y-33368452D01*
X82097438Y-33368452D02*
X82145057Y-33320833D01*
X82145057Y-33320833D02*
X82240295Y-33273214D01*
X82240295Y-33273214D02*
X82335533Y-33273214D01*
X82335533Y-33273214D02*
X82478390Y-33320833D01*
X82478390Y-33320833D02*
X83049819Y-33892261D01*
X83049819Y-33892261D02*
X83049819Y-33273214D01*
X76729819Y-43869404D02*
X75729819Y-43869404D01*
X76729819Y-43297976D02*
X76158390Y-43726547D01*
X75729819Y-43297976D02*
X76301247Y-43869404D01*
X79329819Y-36013094D02*
X78329819Y-36013094D01*
X78329819Y-36013094D02*
X78329819Y-35774999D01*
X78329819Y-35774999D02*
X78377438Y-35632142D01*
X78377438Y-35632142D02*
X78472676Y-35536904D01*
X78472676Y-35536904D02*
X78567914Y-35489285D01*
X78567914Y-35489285D02*
X78758390Y-35441666D01*
X78758390Y-35441666D02*
X78901247Y-35441666D01*
X78901247Y-35441666D02*
X79091723Y-35489285D01*
X79091723Y-35489285D02*
X79186961Y-35536904D01*
X79186961Y-35536904D02*
X79282200Y-35632142D01*
X79282200Y-35632142D02*
X79329819Y-35774999D01*
X79329819Y-35774999D02*
X79329819Y-36013094D01*
X79329819Y-34489285D02*
X79329819Y-35060713D01*
X79329819Y-34774999D02*
X78329819Y-34774999D01*
X78329819Y-34774999D02*
X78472676Y-34870237D01*
X78472676Y-34870237D02*
X78567914Y-34965475D01*
X78567914Y-34965475D02*
X78615533Y-35060713D01*
X88708333Y-76942319D02*
X88136905Y-76942319D01*
X88422619Y-76942319D02*
X88422619Y-75942319D01*
X88422619Y-75942319D02*
X88327381Y-76085176D01*
X88327381Y-76085176D02*
X88232143Y-76180414D01*
X88232143Y-76180414D02*
X88136905Y-76228033D01*
X89565476Y-76275652D02*
X89565476Y-76942319D01*
X89136905Y-76275652D02*
X89136905Y-76799461D01*
X89136905Y-76799461D02*
X89184524Y-76894700D01*
X89184524Y-76894700D02*
X89279762Y-76942319D01*
X89279762Y-76942319D02*
X89422619Y-76942319D01*
X89422619Y-76942319D02*
X89517857Y-76894700D01*
X89517857Y-76894700D02*
X89565476Y-76847080D01*
X88708333Y-74347080D02*
X88660714Y-74394700D01*
X88660714Y-74394700D02*
X88517857Y-74442319D01*
X88517857Y-74442319D02*
X88422619Y-74442319D01*
X88422619Y-74442319D02*
X88279762Y-74394700D01*
X88279762Y-74394700D02*
X88184524Y-74299461D01*
X88184524Y-74299461D02*
X88136905Y-74204223D01*
X88136905Y-74204223D02*
X88089286Y-74013747D01*
X88089286Y-74013747D02*
X88089286Y-73870890D01*
X88089286Y-73870890D02*
X88136905Y-73680414D01*
X88136905Y-73680414D02*
X88184524Y-73585176D01*
X88184524Y-73585176D02*
X88279762Y-73489938D01*
X88279762Y-73489938D02*
X88422619Y-73442319D01*
X88422619Y-73442319D02*
X88517857Y-73442319D01*
X88517857Y-73442319D02*
X88660714Y-73489938D01*
X88660714Y-73489938D02*
X88708333Y-73537557D01*
X89041667Y-73442319D02*
X89660714Y-73442319D01*
X89660714Y-73442319D02*
X89327381Y-73823271D01*
X89327381Y-73823271D02*
X89470238Y-73823271D01*
X89470238Y-73823271D02*
X89565476Y-73870890D01*
X89565476Y-73870890D02*
X89613095Y-73918509D01*
X89613095Y-73918509D02*
X89660714Y-74013747D01*
X89660714Y-74013747D02*
X89660714Y-74251842D01*
X89660714Y-74251842D02*
X89613095Y-74347080D01*
X89613095Y-74347080D02*
X89565476Y-74394700D01*
X89565476Y-74394700D02*
X89470238Y-74442319D01*
X89470238Y-74442319D02*
X89184524Y-74442319D01*
X89184524Y-74442319D02*
X89089286Y-74394700D01*
X89089286Y-74394700D02*
X89041667Y-74347080D01*
X51755952Y-110442319D02*
X51184524Y-110442319D01*
X51470238Y-110442319D02*
X51470238Y-109442319D01*
X51470238Y-109442319D02*
X51375000Y-109585176D01*
X51375000Y-109585176D02*
X51279762Y-109680414D01*
X51279762Y-109680414D02*
X51184524Y-109728033D01*
X52660714Y-109442319D02*
X52184524Y-109442319D01*
X52184524Y-109442319D02*
X52136905Y-109918509D01*
X52136905Y-109918509D02*
X52184524Y-109870890D01*
X52184524Y-109870890D02*
X52279762Y-109823271D01*
X52279762Y-109823271D02*
X52517857Y-109823271D01*
X52517857Y-109823271D02*
X52613095Y-109870890D01*
X52613095Y-109870890D02*
X52660714Y-109918509D01*
X52660714Y-109918509D02*
X52708333Y-110013747D01*
X52708333Y-110013747D02*
X52708333Y-110251842D01*
X52708333Y-110251842D02*
X52660714Y-110347080D01*
X52660714Y-110347080D02*
X52613095Y-110394700D01*
X52613095Y-110394700D02*
X52517857Y-110442319D01*
X52517857Y-110442319D02*
X52279762Y-110442319D01*
X52279762Y-110442319D02*
X52184524Y-110394700D01*
X52184524Y-110394700D02*
X52136905Y-110347080D01*
X53327381Y-109442319D02*
X53422619Y-109442319D01*
X53422619Y-109442319D02*
X53517857Y-109489938D01*
X53517857Y-109489938D02*
X53565476Y-109537557D01*
X53565476Y-109537557D02*
X53613095Y-109632795D01*
X53613095Y-109632795D02*
X53660714Y-109823271D01*
X53660714Y-109823271D02*
X53660714Y-110061366D01*
X53660714Y-110061366D02*
X53613095Y-110251842D01*
X53613095Y-110251842D02*
X53565476Y-110347080D01*
X53565476Y-110347080D02*
X53517857Y-110394700D01*
X53517857Y-110394700D02*
X53422619Y-110442319D01*
X53422619Y-110442319D02*
X53327381Y-110442319D01*
X53327381Y-110442319D02*
X53232143Y-110394700D01*
X53232143Y-110394700D02*
X53184524Y-110347080D01*
X53184524Y-110347080D02*
X53136905Y-110251842D01*
X53136905Y-110251842D02*
X53089286Y-110061366D01*
X53089286Y-110061366D02*
X53089286Y-109823271D01*
X53089286Y-109823271D02*
X53136905Y-109632795D01*
X53136905Y-109632795D02*
X53184524Y-109537557D01*
X53184524Y-109537557D02*
X53232143Y-109489938D01*
X53232143Y-109489938D02*
X53327381Y-109442319D01*
X54517857Y-109775652D02*
X54517857Y-110442319D01*
X54089286Y-109775652D02*
X54089286Y-110299461D01*
X54089286Y-110299461D02*
X54136905Y-110394700D01*
X54136905Y-110394700D02*
X54232143Y-110442319D01*
X54232143Y-110442319D02*
X54375000Y-110442319D01*
X54375000Y-110442319D02*
X54470238Y-110394700D01*
X54470238Y-110394700D02*
X54517857Y-110347080D01*
X52708333Y-101442319D02*
X52232143Y-101442319D01*
X52232143Y-101442319D02*
X52232143Y-100442319D01*
X53565476Y-101442319D02*
X52994048Y-101442319D01*
X53279762Y-101442319D02*
X53279762Y-100442319D01*
X53279762Y-100442319D02*
X53184524Y-100585176D01*
X53184524Y-100585176D02*
X53089286Y-100680414D01*
X53089286Y-100680414D02*
X52994048Y-100728033D01*
X72732142Y-76562319D02*
X72160714Y-76562319D01*
X72446428Y-76562319D02*
X72446428Y-75562319D01*
X72446428Y-75562319D02*
X72351190Y-75705176D01*
X72351190Y-75705176D02*
X72255952Y-75800414D01*
X72255952Y-75800414D02*
X72160714Y-75848033D01*
X73160714Y-76562319D02*
X73160714Y-75562319D01*
X73160714Y-75562319D02*
X73732142Y-76562319D01*
X73732142Y-76562319D02*
X73732142Y-75562319D01*
X74636904Y-75895652D02*
X74636904Y-76562319D01*
X74398809Y-75514700D02*
X74160714Y-76228985D01*
X74160714Y-76228985D02*
X74779761Y-76228985D01*
X75684523Y-76562319D02*
X75113095Y-76562319D01*
X75398809Y-76562319D02*
X75398809Y-75562319D01*
X75398809Y-75562319D02*
X75303571Y-75705176D01*
X75303571Y-75705176D02*
X75208333Y-75800414D01*
X75208333Y-75800414D02*
X75113095Y-75848033D01*
X76541666Y-75895652D02*
X76541666Y-76562319D01*
X76303571Y-75514700D02*
X76065476Y-76228985D01*
X76065476Y-76228985D02*
X76684523Y-76228985D01*
X77208333Y-75990890D02*
X77113095Y-75943271D01*
X77113095Y-75943271D02*
X77065476Y-75895652D01*
X77065476Y-75895652D02*
X77017857Y-75800414D01*
X77017857Y-75800414D02*
X77017857Y-75752795D01*
X77017857Y-75752795D02*
X77065476Y-75657557D01*
X77065476Y-75657557D02*
X77113095Y-75609938D01*
X77113095Y-75609938D02*
X77208333Y-75562319D01*
X77208333Y-75562319D02*
X77398809Y-75562319D01*
X77398809Y-75562319D02*
X77494047Y-75609938D01*
X77494047Y-75609938D02*
X77541666Y-75657557D01*
X77541666Y-75657557D02*
X77589285Y-75752795D01*
X77589285Y-75752795D02*
X77589285Y-75800414D01*
X77589285Y-75800414D02*
X77541666Y-75895652D01*
X77541666Y-75895652D02*
X77494047Y-75943271D01*
X77494047Y-75943271D02*
X77398809Y-75990890D01*
X77398809Y-75990890D02*
X77208333Y-75990890D01*
X77208333Y-75990890D02*
X77113095Y-76038509D01*
X77113095Y-76038509D02*
X77065476Y-76086128D01*
X77065476Y-76086128D02*
X77017857Y-76181366D01*
X77017857Y-76181366D02*
X77017857Y-76371842D01*
X77017857Y-76371842D02*
X77065476Y-76467080D01*
X77065476Y-76467080D02*
X77113095Y-76514700D01*
X77113095Y-76514700D02*
X77208333Y-76562319D01*
X77208333Y-76562319D02*
X77398809Y-76562319D01*
X77398809Y-76562319D02*
X77494047Y-76514700D01*
X77494047Y-76514700D02*
X77541666Y-76467080D01*
X77541666Y-76467080D02*
X77589285Y-76371842D01*
X77589285Y-76371842D02*
X77589285Y-76181366D01*
X77589285Y-76181366D02*
X77541666Y-76086128D01*
X77541666Y-76086128D02*
X77494047Y-76038509D01*
X77494047Y-76038509D02*
X77398809Y-75990890D01*
X70803095Y-72642319D02*
X70803095Y-71642319D01*
X71374523Y-72642319D02*
X70945952Y-72070890D01*
X71374523Y-71642319D02*
X70803095Y-72213747D01*
D11*
X74584524Y-74351355D02*
X74584524Y-73551355D01*
X74584524Y-73551355D02*
X74775000Y-73551355D01*
X74775000Y-73551355D02*
X74889286Y-73589450D01*
X74889286Y-73589450D02*
X74965476Y-73665640D01*
X74965476Y-73665640D02*
X75003571Y-73741831D01*
X75003571Y-73741831D02*
X75041667Y-73894212D01*
X75041667Y-73894212D02*
X75041667Y-74008498D01*
X75041667Y-74008498D02*
X75003571Y-74160879D01*
X75003571Y-74160879D02*
X74965476Y-74237069D01*
X74965476Y-74237069D02*
X74889286Y-74313260D01*
X74889286Y-74313260D02*
X74775000Y-74351355D01*
X74775000Y-74351355D02*
X74584524Y-74351355D01*
X75346428Y-73627545D02*
X75384524Y-73589450D01*
X75384524Y-73589450D02*
X75460714Y-73551355D01*
X75460714Y-73551355D02*
X75651190Y-73551355D01*
X75651190Y-73551355D02*
X75727381Y-73589450D01*
X75727381Y-73589450D02*
X75765476Y-73627545D01*
X75765476Y-73627545D02*
X75803571Y-73703736D01*
X75803571Y-73703736D02*
X75803571Y-73779926D01*
X75803571Y-73779926D02*
X75765476Y-73894212D01*
X75765476Y-73894212D02*
X75308333Y-74351355D01*
X75308333Y-74351355D02*
X75803571Y-74351355D01*
D10*
X31351190Y-69362319D02*
X31351190Y-68362319D01*
X31351190Y-69314700D02*
X31255952Y-69362319D01*
X31255952Y-69362319D02*
X31065476Y-69362319D01*
X31065476Y-69362319D02*
X30970238Y-69314700D01*
X30970238Y-69314700D02*
X30922619Y-69267080D01*
X30922619Y-69267080D02*
X30875000Y-69171842D01*
X30875000Y-69171842D02*
X30875000Y-68886128D01*
X30875000Y-68886128D02*
X30922619Y-68790890D01*
X30922619Y-68790890D02*
X30970238Y-68743271D01*
X30970238Y-68743271D02*
X31065476Y-68695652D01*
X31065476Y-68695652D02*
X31255952Y-68695652D01*
X31255952Y-68695652D02*
X31351190Y-68743271D01*
X31827381Y-69362319D02*
X31827381Y-68695652D01*
X31827381Y-68886128D02*
X31875000Y-68790890D01*
X31875000Y-68790890D02*
X31922619Y-68743271D01*
X31922619Y-68743271D02*
X32017857Y-68695652D01*
X32017857Y-68695652D02*
X32113095Y-68695652D01*
X32446429Y-69362319D02*
X32446429Y-68695652D01*
X32446429Y-68362319D02*
X32398810Y-68409938D01*
X32398810Y-68409938D02*
X32446429Y-68457557D01*
X32446429Y-68457557D02*
X32494048Y-68409938D01*
X32494048Y-68409938D02*
X32446429Y-68362319D01*
X32446429Y-68362319D02*
X32446429Y-68457557D01*
X32827381Y-68695652D02*
X33065476Y-69362319D01*
X33065476Y-69362319D02*
X33303571Y-68695652D01*
X34065476Y-69314700D02*
X33970238Y-69362319D01*
X33970238Y-69362319D02*
X33779762Y-69362319D01*
X33779762Y-69362319D02*
X33684524Y-69314700D01*
X33684524Y-69314700D02*
X33636905Y-69219461D01*
X33636905Y-69219461D02*
X33636905Y-68838509D01*
X33636905Y-68838509D02*
X33684524Y-68743271D01*
X33684524Y-68743271D02*
X33779762Y-68695652D01*
X33779762Y-68695652D02*
X33970238Y-68695652D01*
X33970238Y-68695652D02*
X34065476Y-68743271D01*
X34065476Y-68743271D02*
X34113095Y-68838509D01*
X34113095Y-68838509D02*
X34113095Y-68933747D01*
X34113095Y-68933747D02*
X33636905Y-69028985D01*
X35303572Y-68981366D02*
X36065477Y-68981366D01*
X35684524Y-69362319D02*
X35684524Y-68600414D01*
X37065476Y-69362319D02*
X36494048Y-69362319D01*
X36779762Y-69362319D02*
X36779762Y-68362319D01*
X36779762Y-68362319D02*
X36684524Y-68505176D01*
X36684524Y-68505176D02*
X36589286Y-68600414D01*
X36589286Y-68600414D02*
X36494048Y-68648033D01*
X37970238Y-68362319D02*
X37494048Y-68362319D01*
X37494048Y-68362319D02*
X37446429Y-68838509D01*
X37446429Y-68838509D02*
X37494048Y-68790890D01*
X37494048Y-68790890D02*
X37589286Y-68743271D01*
X37589286Y-68743271D02*
X37827381Y-68743271D01*
X37827381Y-68743271D02*
X37922619Y-68790890D01*
X37922619Y-68790890D02*
X37970238Y-68838509D01*
X37970238Y-68838509D02*
X38017857Y-68933747D01*
X38017857Y-68933747D02*
X38017857Y-69171842D01*
X38017857Y-69171842D02*
X37970238Y-69267080D01*
X37970238Y-69267080D02*
X37922619Y-69314700D01*
X37922619Y-69314700D02*
X37827381Y-69362319D01*
X37827381Y-69362319D02*
X37589286Y-69362319D01*
X37589286Y-69362319D02*
X37494048Y-69314700D01*
X37494048Y-69314700D02*
X37446429Y-69267080D01*
X38303572Y-68362319D02*
X38636905Y-69362319D01*
X38636905Y-69362319D02*
X38970238Y-68362319D01*
X34541666Y-73442319D02*
X34541666Y-74156604D01*
X34541666Y-74156604D02*
X34494047Y-74299461D01*
X34494047Y-74299461D02*
X34398809Y-74394700D01*
X34398809Y-74394700D02*
X34255952Y-74442319D01*
X34255952Y-74442319D02*
X34160714Y-74442319D01*
X35446428Y-73775652D02*
X35446428Y-74442319D01*
X35208333Y-73394700D02*
X34970238Y-74108985D01*
X34970238Y-74108985D02*
X35589285Y-74108985D01*
X32660714Y-25362319D02*
X32660714Y-24362319D01*
X32660714Y-24362319D02*
X33041666Y-24362319D01*
X33041666Y-24362319D02*
X33136904Y-24409938D01*
X33136904Y-24409938D02*
X33184523Y-24457557D01*
X33184523Y-24457557D02*
X33232142Y-24552795D01*
X33232142Y-24552795D02*
X33232142Y-24695652D01*
X33232142Y-24695652D02*
X33184523Y-24790890D01*
X33184523Y-24790890D02*
X33136904Y-24838509D01*
X33136904Y-24838509D02*
X33041666Y-24886128D01*
X33041666Y-24886128D02*
X32660714Y-24886128D01*
X33517857Y-24362319D02*
X33851190Y-25362319D01*
X33851190Y-25362319D02*
X34184523Y-24362319D01*
X35279762Y-25362319D02*
X35279762Y-24695652D01*
X35279762Y-24362319D02*
X35232143Y-24409938D01*
X35232143Y-24409938D02*
X35279762Y-24457557D01*
X35279762Y-24457557D02*
X35327381Y-24409938D01*
X35327381Y-24409938D02*
X35279762Y-24362319D01*
X35279762Y-24362319D02*
X35279762Y-24457557D01*
X35755952Y-24695652D02*
X35755952Y-25362319D01*
X35755952Y-24790890D02*
X35803571Y-24743271D01*
X35803571Y-24743271D02*
X35898809Y-24695652D01*
X35898809Y-24695652D02*
X36041666Y-24695652D01*
X36041666Y-24695652D02*
X36136904Y-24743271D01*
X36136904Y-24743271D02*
X36184523Y-24838509D01*
X36184523Y-24838509D02*
X36184523Y-25362319D01*
X37089285Y-25362319D02*
X37089285Y-24362319D01*
X37089285Y-25314700D02*
X36994047Y-25362319D01*
X36994047Y-25362319D02*
X36803571Y-25362319D01*
X36803571Y-25362319D02*
X36708333Y-25314700D01*
X36708333Y-25314700D02*
X36660714Y-25267080D01*
X36660714Y-25267080D02*
X36613095Y-25171842D01*
X36613095Y-25171842D02*
X36613095Y-24886128D01*
X36613095Y-24886128D02*
X36660714Y-24790890D01*
X36660714Y-24790890D02*
X36708333Y-24743271D01*
X36708333Y-24743271D02*
X36803571Y-24695652D01*
X36803571Y-24695652D02*
X36994047Y-24695652D01*
X36994047Y-24695652D02*
X37089285Y-24743271D01*
X34541666Y-29442319D02*
X34541666Y-30156604D01*
X34541666Y-30156604D02*
X34494047Y-30299461D01*
X34494047Y-30299461D02*
X34398809Y-30394700D01*
X34398809Y-30394700D02*
X34255952Y-30442319D01*
X34255952Y-30442319D02*
X34160714Y-30442319D01*
X35541666Y-30442319D02*
X34970238Y-30442319D01*
X35255952Y-30442319D02*
X35255952Y-29442319D01*
X35255952Y-29442319D02*
X35160714Y-29585176D01*
X35160714Y-29585176D02*
X35065476Y-29680414D01*
X35065476Y-29680414D02*
X34970238Y-29728033D01*
X45853252Y-35025652D02*
X45853252Y-35692319D01*
X45615157Y-34644700D02*
X45377062Y-35358985D01*
X45377062Y-35358985D02*
X45996109Y-35358985D01*
X46281824Y-34692319D02*
X46948490Y-34692319D01*
X46948490Y-34692319D02*
X46519919Y-35692319D01*
X47519919Y-34692319D02*
X47615157Y-34692319D01*
X47615157Y-34692319D02*
X47710395Y-34739938D01*
X47710395Y-34739938D02*
X47758014Y-34787557D01*
X47758014Y-34787557D02*
X47805633Y-34882795D01*
X47805633Y-34882795D02*
X47853252Y-35073271D01*
X47853252Y-35073271D02*
X47853252Y-35311366D01*
X47853252Y-35311366D02*
X47805633Y-35501842D01*
X47805633Y-35501842D02*
X47758014Y-35597080D01*
X47758014Y-35597080D02*
X47710395Y-35644700D01*
X47710395Y-35644700D02*
X47615157Y-35692319D01*
X47615157Y-35692319D02*
X47519919Y-35692319D01*
X47519919Y-35692319D02*
X47424681Y-35644700D01*
X47424681Y-35644700D02*
X47377062Y-35597080D01*
X47377062Y-35597080D02*
X47329443Y-35501842D01*
X47329443Y-35501842D02*
X47281824Y-35311366D01*
X47281824Y-35311366D02*
X47281824Y-35073271D01*
X47281824Y-35073271D02*
X47329443Y-34882795D01*
X47329443Y-34882795D02*
X47377062Y-34787557D01*
X47377062Y-34787557D02*
X47424681Y-34739938D01*
X47424681Y-34739938D02*
X47519919Y-34692319D01*
X48710395Y-35025652D02*
X48710395Y-35692319D01*
X48281824Y-35025652D02*
X48281824Y-35549461D01*
X48281824Y-35549461D02*
X48329443Y-35644700D01*
X48329443Y-35644700D02*
X48424681Y-35692319D01*
X48424681Y-35692319D02*
X48567538Y-35692319D01*
X48567538Y-35692319D02*
X48662776Y-35644700D01*
X48662776Y-35644700D02*
X48710395Y-35597080D01*
X49900871Y-34644700D02*
X49043729Y-35930414D01*
X50186586Y-34787557D02*
X50234205Y-34739938D01*
X50234205Y-34739938D02*
X50329443Y-34692319D01*
X50329443Y-34692319D02*
X50567538Y-34692319D01*
X50567538Y-34692319D02*
X50662776Y-34739938D01*
X50662776Y-34739938D02*
X50710395Y-34787557D01*
X50710395Y-34787557D02*
X50758014Y-34882795D01*
X50758014Y-34882795D02*
X50758014Y-34978033D01*
X50758014Y-34978033D02*
X50710395Y-35120890D01*
X50710395Y-35120890D02*
X50138967Y-35692319D01*
X50138967Y-35692319D02*
X50758014Y-35692319D01*
X51662776Y-34692319D02*
X51186586Y-34692319D01*
X51186586Y-34692319D02*
X51138967Y-35168509D01*
X51138967Y-35168509D02*
X51186586Y-35120890D01*
X51186586Y-35120890D02*
X51281824Y-35073271D01*
X51281824Y-35073271D02*
X51519919Y-35073271D01*
X51519919Y-35073271D02*
X51615157Y-35120890D01*
X51615157Y-35120890D02*
X51662776Y-35168509D01*
X51662776Y-35168509D02*
X51710395Y-35263747D01*
X51710395Y-35263747D02*
X51710395Y-35501842D01*
X51710395Y-35501842D02*
X51662776Y-35597080D01*
X51662776Y-35597080D02*
X51615157Y-35644700D01*
X51615157Y-35644700D02*
X51519919Y-35692319D01*
X51519919Y-35692319D02*
X51281824Y-35692319D01*
X51281824Y-35692319D02*
X51186586Y-35644700D01*
X51186586Y-35644700D02*
X51138967Y-35597080D01*
X51996110Y-34692319D02*
X52329443Y-35692319D01*
X52329443Y-35692319D02*
X52662776Y-34692319D01*
X48805633Y-30347080D02*
X48758014Y-30394700D01*
X48758014Y-30394700D02*
X48615157Y-30442319D01*
X48615157Y-30442319D02*
X48519919Y-30442319D01*
X48519919Y-30442319D02*
X48377062Y-30394700D01*
X48377062Y-30394700D02*
X48281824Y-30299461D01*
X48281824Y-30299461D02*
X48234205Y-30204223D01*
X48234205Y-30204223D02*
X48186586Y-30013747D01*
X48186586Y-30013747D02*
X48186586Y-29870890D01*
X48186586Y-29870890D02*
X48234205Y-29680414D01*
X48234205Y-29680414D02*
X48281824Y-29585176D01*
X48281824Y-29585176D02*
X48377062Y-29489938D01*
X48377062Y-29489938D02*
X48519919Y-29442319D01*
X48519919Y-29442319D02*
X48615157Y-29442319D01*
X48615157Y-29442319D02*
X48758014Y-29489938D01*
X48758014Y-29489938D02*
X48805633Y-29537557D01*
X49758014Y-30442319D02*
X49186586Y-30442319D01*
X49472300Y-30442319D02*
X49472300Y-29442319D01*
X49472300Y-29442319D02*
X49377062Y-29585176D01*
X49377062Y-29585176D02*
X49281824Y-29680414D01*
X49281824Y-29680414D02*
X49186586Y-29728033D01*
X29636904Y-48797319D02*
X29636904Y-47797319D01*
X29636904Y-47797319D02*
X30017856Y-47797319D01*
X30017856Y-47797319D02*
X30113094Y-47844938D01*
X30113094Y-47844938D02*
X30160713Y-47892557D01*
X30160713Y-47892557D02*
X30208332Y-47987795D01*
X30208332Y-47987795D02*
X30208332Y-48130652D01*
X30208332Y-48130652D02*
X30160713Y-48225890D01*
X30160713Y-48225890D02*
X30113094Y-48273509D01*
X30113094Y-48273509D02*
X30017856Y-48321128D01*
X30017856Y-48321128D02*
X29636904Y-48321128D01*
X30541666Y-47797319D02*
X30779761Y-48797319D01*
X30779761Y-48797319D02*
X30970237Y-48083033D01*
X30970237Y-48083033D02*
X31160713Y-48797319D01*
X31160713Y-48797319D02*
X31398809Y-47797319D01*
X31779761Y-48797319D02*
X31779761Y-47797319D01*
X31779761Y-47797319D02*
X32113094Y-48511604D01*
X32113094Y-48511604D02*
X32446427Y-47797319D01*
X32446427Y-47797319D02*
X32446427Y-48797319D01*
X33970237Y-49178271D02*
X33922618Y-49130652D01*
X33922618Y-49130652D02*
X33827380Y-48987795D01*
X33827380Y-48987795D02*
X33779761Y-48892557D01*
X33779761Y-48892557D02*
X33732142Y-48749700D01*
X33732142Y-48749700D02*
X33684523Y-48511604D01*
X33684523Y-48511604D02*
X33684523Y-48321128D01*
X33684523Y-48321128D02*
X33732142Y-48083033D01*
X33732142Y-48083033D02*
X33779761Y-47940176D01*
X33779761Y-47940176D02*
X33827380Y-47844938D01*
X33827380Y-47844938D02*
X33922618Y-47702080D01*
X33922618Y-47702080D02*
X33970237Y-47654461D01*
X34303571Y-48511604D02*
X34779761Y-48511604D01*
X34208333Y-48797319D02*
X34541666Y-47797319D01*
X34541666Y-47797319D02*
X34874999Y-48797319D01*
X35208333Y-48797319D02*
X35208333Y-48130652D01*
X35208333Y-48321128D02*
X35255952Y-48225890D01*
X35255952Y-48225890D02*
X35303571Y-48178271D01*
X35303571Y-48178271D02*
X35398809Y-48130652D01*
X35398809Y-48130652D02*
X35494047Y-48130652D01*
X36255952Y-48797319D02*
X36255952Y-47797319D01*
X36255952Y-48749700D02*
X36160714Y-48797319D01*
X36160714Y-48797319D02*
X35970238Y-48797319D01*
X35970238Y-48797319D02*
X35875000Y-48749700D01*
X35875000Y-48749700D02*
X35827381Y-48702080D01*
X35827381Y-48702080D02*
X35779762Y-48606842D01*
X35779762Y-48606842D02*
X35779762Y-48321128D01*
X35779762Y-48321128D02*
X35827381Y-48225890D01*
X35827381Y-48225890D02*
X35875000Y-48178271D01*
X35875000Y-48178271D02*
X35970238Y-48130652D01*
X35970238Y-48130652D02*
X36160714Y-48130652D01*
X36160714Y-48130652D02*
X36255952Y-48178271D01*
X37160714Y-48130652D02*
X37160714Y-48797319D01*
X36732143Y-48130652D02*
X36732143Y-48654461D01*
X36732143Y-48654461D02*
X36779762Y-48749700D01*
X36779762Y-48749700D02*
X36875000Y-48797319D01*
X36875000Y-48797319D02*
X37017857Y-48797319D01*
X37017857Y-48797319D02*
X37113095Y-48749700D01*
X37113095Y-48749700D02*
X37160714Y-48702080D01*
X37636905Y-48797319D02*
X37636905Y-48130652D01*
X37636905Y-47797319D02*
X37589286Y-47844938D01*
X37589286Y-47844938D02*
X37636905Y-47892557D01*
X37636905Y-47892557D02*
X37684524Y-47844938D01*
X37684524Y-47844938D02*
X37636905Y-47797319D01*
X37636905Y-47797319D02*
X37636905Y-47892557D01*
X38113095Y-48130652D02*
X38113095Y-48797319D01*
X38113095Y-48225890D02*
X38160714Y-48178271D01*
X38160714Y-48178271D02*
X38255952Y-48130652D01*
X38255952Y-48130652D02*
X38398809Y-48130652D01*
X38398809Y-48130652D02*
X38494047Y-48178271D01*
X38494047Y-48178271D02*
X38541666Y-48273509D01*
X38541666Y-48273509D02*
X38541666Y-48797319D01*
X39160714Y-48797319D02*
X39065476Y-48749700D01*
X39065476Y-48749700D02*
X39017857Y-48702080D01*
X39017857Y-48702080D02*
X38970238Y-48606842D01*
X38970238Y-48606842D02*
X38970238Y-48321128D01*
X38970238Y-48321128D02*
X39017857Y-48225890D01*
X39017857Y-48225890D02*
X39065476Y-48178271D01*
X39065476Y-48178271D02*
X39160714Y-48130652D01*
X39160714Y-48130652D02*
X39303571Y-48130652D01*
X39303571Y-48130652D02*
X39398809Y-48178271D01*
X39398809Y-48178271D02*
X39446428Y-48225890D01*
X39446428Y-48225890D02*
X39494047Y-48321128D01*
X39494047Y-48321128D02*
X39494047Y-48606842D01*
X39494047Y-48606842D02*
X39446428Y-48702080D01*
X39446428Y-48702080D02*
X39398809Y-48749700D01*
X39398809Y-48749700D02*
X39303571Y-48797319D01*
X39303571Y-48797319D02*
X39160714Y-48797319D01*
X39827381Y-49178271D02*
X39875000Y-49130652D01*
X39875000Y-49130652D02*
X39970238Y-48987795D01*
X39970238Y-48987795D02*
X40017857Y-48892557D01*
X40017857Y-48892557D02*
X40065476Y-48749700D01*
X40065476Y-48749700D02*
X40113095Y-48511604D01*
X40113095Y-48511604D02*
X40113095Y-48321128D01*
X40113095Y-48321128D02*
X40065476Y-48083033D01*
X40065476Y-48083033D02*
X40017857Y-47940176D01*
X40017857Y-47940176D02*
X39970238Y-47844938D01*
X39970238Y-47844938D02*
X39875000Y-47702080D01*
X39875000Y-47702080D02*
X39827381Y-47654461D01*
X34329819Y-52325833D02*
X35044104Y-52325833D01*
X35044104Y-52325833D02*
X35186961Y-52373452D01*
X35186961Y-52373452D02*
X35282200Y-52468690D01*
X35282200Y-52468690D02*
X35329819Y-52611547D01*
X35329819Y-52611547D02*
X35329819Y-52706785D01*
X34329819Y-51944880D02*
X34329819Y-51325833D01*
X34329819Y-51325833D02*
X34710771Y-51659166D01*
X34710771Y-51659166D02*
X34710771Y-51516309D01*
X34710771Y-51516309D02*
X34758390Y-51421071D01*
X34758390Y-51421071D02*
X34806009Y-51373452D01*
X34806009Y-51373452D02*
X34901247Y-51325833D01*
X34901247Y-51325833D02*
X35139342Y-51325833D01*
X35139342Y-51325833D02*
X35234580Y-51373452D01*
X35234580Y-51373452D02*
X35282200Y-51421071D01*
X35282200Y-51421071D02*
X35329819Y-51516309D01*
X35329819Y-51516309D02*
X35329819Y-51802023D01*
X35329819Y-51802023D02*
X35282200Y-51897261D01*
X35282200Y-51897261D02*
X35234580Y-51944880D01*
X61279761Y-57217080D02*
X61232142Y-57264700D01*
X61232142Y-57264700D02*
X61089285Y-57312319D01*
X61089285Y-57312319D02*
X60994047Y-57312319D01*
X60994047Y-57312319D02*
X60851190Y-57264700D01*
X60851190Y-57264700D02*
X60755952Y-57169461D01*
X60755952Y-57169461D02*
X60708333Y-57074223D01*
X60708333Y-57074223D02*
X60660714Y-56883747D01*
X60660714Y-56883747D02*
X60660714Y-56740890D01*
X60660714Y-56740890D02*
X60708333Y-56550414D01*
X60708333Y-56550414D02*
X60755952Y-56455176D01*
X60755952Y-56455176D02*
X60851190Y-56359938D01*
X60851190Y-56359938D02*
X60994047Y-56312319D01*
X60994047Y-56312319D02*
X61089285Y-56312319D01*
X61089285Y-56312319D02*
X61232142Y-56359938D01*
X61232142Y-56359938D02*
X61279761Y-56407557D01*
X61708333Y-57312319D02*
X61708333Y-56312319D01*
X61708333Y-56312319D02*
X62279761Y-57312319D01*
X62279761Y-57312319D02*
X62279761Y-56312319D01*
X62946428Y-56836128D02*
X62946428Y-57312319D01*
X62613095Y-56312319D02*
X62946428Y-56836128D01*
X62946428Y-56836128D02*
X63279761Y-56312319D01*
X64136904Y-57312319D02*
X63565476Y-57312319D01*
X63851190Y-57312319D02*
X63851190Y-56312319D01*
X63851190Y-56312319D02*
X63755952Y-56455176D01*
X63755952Y-56455176D02*
X63660714Y-56550414D01*
X63660714Y-56550414D02*
X63565476Y-56598033D01*
X64470238Y-56312319D02*
X65136904Y-56312319D01*
X65136904Y-56312319D02*
X64708333Y-57312319D01*
X62329819Y-52749404D02*
X63139342Y-52749404D01*
X63139342Y-52749404D02*
X63234580Y-52701785D01*
X63234580Y-52701785D02*
X63282200Y-52654166D01*
X63282200Y-52654166D02*
X63329819Y-52558928D01*
X63329819Y-52558928D02*
X63329819Y-52368452D01*
X63329819Y-52368452D02*
X63282200Y-52273214D01*
X63282200Y-52273214D02*
X63234580Y-52225595D01*
X63234580Y-52225595D02*
X63139342Y-52177976D01*
X63139342Y-52177976D02*
X62329819Y-52177976D01*
X63329819Y-51177976D02*
X63329819Y-51749404D01*
X63329819Y-51463690D02*
X62329819Y-51463690D01*
X62329819Y-51463690D02*
X62472676Y-51558928D01*
X62472676Y-51558928D02*
X62567914Y-51654166D01*
X62567914Y-51654166D02*
X62615533Y-51749404D01*
X47758014Y-78787557D02*
X47805633Y-78739938D01*
X47805633Y-78739938D02*
X47900871Y-78692319D01*
X47900871Y-78692319D02*
X48138966Y-78692319D01*
X48138966Y-78692319D02*
X48234204Y-78739938D01*
X48234204Y-78739938D02*
X48281823Y-78787557D01*
X48281823Y-78787557D02*
X48329442Y-78882795D01*
X48329442Y-78882795D02*
X48329442Y-78978033D01*
X48329442Y-78978033D02*
X48281823Y-79120890D01*
X48281823Y-79120890D02*
X47710395Y-79692319D01*
X47710395Y-79692319D02*
X48329442Y-79692319D01*
X48710395Y-78787557D02*
X48758014Y-78739938D01*
X48758014Y-78739938D02*
X48853252Y-78692319D01*
X48853252Y-78692319D02*
X49091347Y-78692319D01*
X49091347Y-78692319D02*
X49186585Y-78739938D01*
X49186585Y-78739938D02*
X49234204Y-78787557D01*
X49234204Y-78787557D02*
X49281823Y-78882795D01*
X49281823Y-78882795D02*
X49281823Y-78978033D01*
X49281823Y-78978033D02*
X49234204Y-79120890D01*
X49234204Y-79120890D02*
X48662776Y-79692319D01*
X48662776Y-79692319D02*
X49281823Y-79692319D01*
X50138966Y-79025652D02*
X50138966Y-79692319D01*
X49710395Y-79025652D02*
X49710395Y-79549461D01*
X49710395Y-79549461D02*
X49758014Y-79644700D01*
X49758014Y-79644700D02*
X49853252Y-79692319D01*
X49853252Y-79692319D02*
X49996109Y-79692319D01*
X49996109Y-79692319D02*
X50091347Y-79644700D01*
X50091347Y-79644700D02*
X50138966Y-79597080D01*
X48805633Y-74347080D02*
X48758014Y-74394700D01*
X48758014Y-74394700D02*
X48615157Y-74442319D01*
X48615157Y-74442319D02*
X48519919Y-74442319D01*
X48519919Y-74442319D02*
X48377062Y-74394700D01*
X48377062Y-74394700D02*
X48281824Y-74299461D01*
X48281824Y-74299461D02*
X48234205Y-74204223D01*
X48234205Y-74204223D02*
X48186586Y-74013747D01*
X48186586Y-74013747D02*
X48186586Y-73870890D01*
X48186586Y-73870890D02*
X48234205Y-73680414D01*
X48234205Y-73680414D02*
X48281824Y-73585176D01*
X48281824Y-73585176D02*
X48377062Y-73489938D01*
X48377062Y-73489938D02*
X48519919Y-73442319D01*
X48519919Y-73442319D02*
X48615157Y-73442319D01*
X48615157Y-73442319D02*
X48758014Y-73489938D01*
X48758014Y-73489938D02*
X48805633Y-73537557D01*
X49662776Y-73775652D02*
X49662776Y-74442319D01*
X49424681Y-73394700D02*
X49186586Y-74108985D01*
X49186586Y-74108985D02*
X49805633Y-74108985D01*
X62517857Y-33592319D02*
X62517857Y-32592319D01*
X63565475Y-33592319D02*
X63232142Y-33116128D01*
X62994047Y-33592319D02*
X62994047Y-32592319D01*
X62994047Y-32592319D02*
X63374999Y-32592319D01*
X63374999Y-32592319D02*
X63470237Y-32639938D01*
X63470237Y-32639938D02*
X63517856Y-32687557D01*
X63517856Y-32687557D02*
X63565475Y-32782795D01*
X63565475Y-32782795D02*
X63565475Y-32925652D01*
X63565475Y-32925652D02*
X63517856Y-33020890D01*
X63517856Y-33020890D02*
X63470237Y-33068509D01*
X63470237Y-33068509D02*
X63374999Y-33116128D01*
X63374999Y-33116128D02*
X62994047Y-33116128D01*
X64327380Y-33068509D02*
X63994047Y-33068509D01*
X63994047Y-33592319D02*
X63994047Y-32592319D01*
X63994047Y-32592319D02*
X64470237Y-32592319D01*
X65327380Y-32592319D02*
X64851190Y-32592319D01*
X64851190Y-32592319D02*
X64803571Y-33068509D01*
X64803571Y-33068509D02*
X64851190Y-33020890D01*
X64851190Y-33020890D02*
X64946428Y-32973271D01*
X64946428Y-32973271D02*
X65184523Y-32973271D01*
X65184523Y-32973271D02*
X65279761Y-33020890D01*
X65279761Y-33020890D02*
X65327380Y-33068509D01*
X65327380Y-33068509D02*
X65374999Y-33163747D01*
X65374999Y-33163747D02*
X65374999Y-33401842D01*
X65374999Y-33401842D02*
X65327380Y-33497080D01*
X65327380Y-33497080D02*
X65279761Y-33544700D01*
X65279761Y-33544700D02*
X65184523Y-33592319D01*
X65184523Y-33592319D02*
X64946428Y-33592319D01*
X64946428Y-33592319D02*
X64851190Y-33544700D01*
X64851190Y-33544700D02*
X64803571Y-33497080D01*
X65708333Y-32592319D02*
X66327380Y-32592319D01*
X66327380Y-32592319D02*
X65994047Y-32973271D01*
X65994047Y-32973271D02*
X66136904Y-32973271D01*
X66136904Y-32973271D02*
X66232142Y-33020890D01*
X66232142Y-33020890D02*
X66279761Y-33068509D01*
X66279761Y-33068509D02*
X66327380Y-33163747D01*
X66327380Y-33163747D02*
X66327380Y-33401842D01*
X66327380Y-33401842D02*
X66279761Y-33497080D01*
X66279761Y-33497080D02*
X66232142Y-33544700D01*
X66232142Y-33544700D02*
X66136904Y-33592319D01*
X66136904Y-33592319D02*
X65851190Y-33592319D01*
X65851190Y-33592319D02*
X65755952Y-33544700D01*
X65755952Y-33544700D02*
X65708333Y-33497080D01*
X66946428Y-32592319D02*
X67041666Y-32592319D01*
X67041666Y-32592319D02*
X67136904Y-32639938D01*
X67136904Y-32639938D02*
X67184523Y-32687557D01*
X67184523Y-32687557D02*
X67232142Y-32782795D01*
X67232142Y-32782795D02*
X67279761Y-32973271D01*
X67279761Y-32973271D02*
X67279761Y-33211366D01*
X67279761Y-33211366D02*
X67232142Y-33401842D01*
X67232142Y-33401842D02*
X67184523Y-33497080D01*
X67184523Y-33497080D02*
X67136904Y-33544700D01*
X67136904Y-33544700D02*
X67041666Y-33592319D01*
X67041666Y-33592319D02*
X66946428Y-33592319D01*
X66946428Y-33592319D02*
X66851190Y-33544700D01*
X66851190Y-33544700D02*
X66803571Y-33497080D01*
X66803571Y-33497080D02*
X66755952Y-33401842D01*
X66755952Y-33401842D02*
X66708333Y-33211366D01*
X66708333Y-33211366D02*
X66708333Y-32973271D01*
X66708333Y-32973271D02*
X66755952Y-32782795D01*
X66755952Y-32782795D02*
X66803571Y-32687557D01*
X66803571Y-32687557D02*
X66851190Y-32639938D01*
X66851190Y-32639938D02*
X66946428Y-32592319D01*
X64779761Y-30537557D02*
X64684523Y-30489938D01*
X64684523Y-30489938D02*
X64589285Y-30394700D01*
X64589285Y-30394700D02*
X64446428Y-30251842D01*
X64446428Y-30251842D02*
X64351190Y-30204223D01*
X64351190Y-30204223D02*
X64255952Y-30204223D01*
X64303571Y-30442319D02*
X64208333Y-30394700D01*
X64208333Y-30394700D02*
X64113095Y-30299461D01*
X64113095Y-30299461D02*
X64065476Y-30108985D01*
X64065476Y-30108985D02*
X64065476Y-29775652D01*
X64065476Y-29775652D02*
X64113095Y-29585176D01*
X64113095Y-29585176D02*
X64208333Y-29489938D01*
X64208333Y-29489938D02*
X64303571Y-29442319D01*
X64303571Y-29442319D02*
X64494047Y-29442319D01*
X64494047Y-29442319D02*
X64589285Y-29489938D01*
X64589285Y-29489938D02*
X64684523Y-29585176D01*
X64684523Y-29585176D02*
X64732142Y-29775652D01*
X64732142Y-29775652D02*
X64732142Y-30108985D01*
X64732142Y-30108985D02*
X64684523Y-30299461D01*
X64684523Y-30299461D02*
X64589285Y-30394700D01*
X64589285Y-30394700D02*
X64494047Y-30442319D01*
X64494047Y-30442319D02*
X64303571Y-30442319D01*
X65684523Y-30442319D02*
X65113095Y-30442319D01*
X65398809Y-30442319D02*
X65398809Y-29442319D01*
X65398809Y-29442319D02*
X65303571Y-29585176D01*
X65303571Y-29585176D02*
X65208333Y-29680414D01*
X65208333Y-29680414D02*
X65113095Y-29728033D01*
X50795057Y-52225594D02*
X50747438Y-52177975D01*
X50747438Y-52177975D02*
X50699819Y-52082737D01*
X50699819Y-52082737D02*
X50699819Y-51844642D01*
X50699819Y-51844642D02*
X50747438Y-51749404D01*
X50747438Y-51749404D02*
X50795057Y-51701785D01*
X50795057Y-51701785D02*
X50890295Y-51654166D01*
X50890295Y-51654166D02*
X50985533Y-51654166D01*
X50985533Y-51654166D02*
X51128390Y-51701785D01*
X51128390Y-51701785D02*
X51699819Y-52273213D01*
X51699819Y-52273213D02*
X51699819Y-51654166D01*
X50699819Y-51035118D02*
X50699819Y-50939880D01*
X50699819Y-50939880D02*
X50747438Y-50844642D01*
X50747438Y-50844642D02*
X50795057Y-50797023D01*
X50795057Y-50797023D02*
X50890295Y-50749404D01*
X50890295Y-50749404D02*
X51080771Y-50701785D01*
X51080771Y-50701785D02*
X51318866Y-50701785D01*
X51318866Y-50701785D02*
X51509342Y-50749404D01*
X51509342Y-50749404D02*
X51604580Y-50797023D01*
X51604580Y-50797023D02*
X51652200Y-50844642D01*
X51652200Y-50844642D02*
X51699819Y-50939880D01*
X51699819Y-50939880D02*
X51699819Y-51035118D01*
X51699819Y-51035118D02*
X51652200Y-51130356D01*
X51652200Y-51130356D02*
X51604580Y-51177975D01*
X51604580Y-51177975D02*
X51509342Y-51225594D01*
X51509342Y-51225594D02*
X51318866Y-51273213D01*
X51318866Y-51273213D02*
X51080771Y-51273213D01*
X51080771Y-51273213D02*
X50890295Y-51225594D01*
X50890295Y-51225594D02*
X50795057Y-51177975D01*
X50795057Y-51177975D02*
X50747438Y-51130356D01*
X50747438Y-51130356D02*
X50699819Y-51035118D01*
X50699819Y-50082737D02*
X50699819Y-49987499D01*
X50699819Y-49987499D02*
X50747438Y-49892261D01*
X50747438Y-49892261D02*
X50795057Y-49844642D01*
X50795057Y-49844642D02*
X50890295Y-49797023D01*
X50890295Y-49797023D02*
X51080771Y-49749404D01*
X51080771Y-49749404D02*
X51318866Y-49749404D01*
X51318866Y-49749404D02*
X51509342Y-49797023D01*
X51509342Y-49797023D02*
X51604580Y-49844642D01*
X51604580Y-49844642D02*
X51652200Y-49892261D01*
X51652200Y-49892261D02*
X51699819Y-49987499D01*
X51699819Y-49987499D02*
X51699819Y-50082737D01*
X51699819Y-50082737D02*
X51652200Y-50177975D01*
X51652200Y-50177975D02*
X51604580Y-50225594D01*
X51604580Y-50225594D02*
X51509342Y-50273213D01*
X51509342Y-50273213D02*
X51318866Y-50320832D01*
X51318866Y-50320832D02*
X51080771Y-50320832D01*
X51080771Y-50320832D02*
X50890295Y-50273213D01*
X50890295Y-50273213D02*
X50795057Y-50225594D01*
X50795057Y-50225594D02*
X50747438Y-50177975D01*
X50747438Y-50177975D02*
X50699819Y-50082737D01*
X49329819Y-51154166D02*
X48853628Y-51487499D01*
X49329819Y-51725594D02*
X48329819Y-51725594D01*
X48329819Y-51725594D02*
X48329819Y-51344642D01*
X48329819Y-51344642D02*
X48377438Y-51249404D01*
X48377438Y-51249404D02*
X48425057Y-51201785D01*
X48425057Y-51201785D02*
X48520295Y-51154166D01*
X48520295Y-51154166D02*
X48663152Y-51154166D01*
X48663152Y-51154166D02*
X48758390Y-51201785D01*
X48758390Y-51201785D02*
X48806009Y-51249404D01*
X48806009Y-51249404D02*
X48853628Y-51344642D01*
X48853628Y-51344642D02*
X48853628Y-51725594D01*
X49329819Y-50201785D02*
X49329819Y-50773213D01*
X49329819Y-50487499D02*
X48329819Y-50487499D01*
X48329819Y-50487499D02*
X48472676Y-50582737D01*
X48472676Y-50582737D02*
X48567914Y-50677975D01*
X48567914Y-50677975D02*
X48615533Y-50773213D01*
X92113094Y-95362319D02*
X92017856Y-95314700D01*
X92017856Y-95314700D02*
X91970237Y-95219461D01*
X91970237Y-95219461D02*
X91970237Y-94362319D01*
X92922618Y-95362319D02*
X92922618Y-94838509D01*
X92922618Y-94838509D02*
X92874999Y-94743271D01*
X92874999Y-94743271D02*
X92779761Y-94695652D01*
X92779761Y-94695652D02*
X92589285Y-94695652D01*
X92589285Y-94695652D02*
X92494047Y-94743271D01*
X92922618Y-95314700D02*
X92827380Y-95362319D01*
X92827380Y-95362319D02*
X92589285Y-95362319D01*
X92589285Y-95362319D02*
X92494047Y-95314700D01*
X92494047Y-95314700D02*
X92446428Y-95219461D01*
X92446428Y-95219461D02*
X92446428Y-95124223D01*
X92446428Y-95124223D02*
X92494047Y-95028985D01*
X92494047Y-95028985D02*
X92589285Y-94981366D01*
X92589285Y-94981366D02*
X92827380Y-94981366D01*
X92827380Y-94981366D02*
X92922618Y-94933747D01*
X93827380Y-94695652D02*
X93827380Y-95505176D01*
X93827380Y-95505176D02*
X93779761Y-95600414D01*
X93779761Y-95600414D02*
X93732142Y-95648033D01*
X93732142Y-95648033D02*
X93636904Y-95695652D01*
X93636904Y-95695652D02*
X93494047Y-95695652D01*
X93494047Y-95695652D02*
X93398809Y-95648033D01*
X93827380Y-95314700D02*
X93732142Y-95362319D01*
X93732142Y-95362319D02*
X93541666Y-95362319D01*
X93541666Y-95362319D02*
X93446428Y-95314700D01*
X93446428Y-95314700D02*
X93398809Y-95267080D01*
X93398809Y-95267080D02*
X93351190Y-95171842D01*
X93351190Y-95171842D02*
X93351190Y-94886128D01*
X93351190Y-94886128D02*
X93398809Y-94790890D01*
X93398809Y-94790890D02*
X93446428Y-94743271D01*
X93446428Y-94743271D02*
X93541666Y-94695652D01*
X93541666Y-94695652D02*
X93732142Y-94695652D01*
X93732142Y-94695652D02*
X93827380Y-94743271D01*
X94684523Y-95314700D02*
X94589285Y-95362319D01*
X94589285Y-95362319D02*
X94398809Y-95362319D01*
X94398809Y-95362319D02*
X94303571Y-95314700D01*
X94303571Y-95314700D02*
X94255952Y-95219461D01*
X94255952Y-95219461D02*
X94255952Y-94838509D01*
X94255952Y-94838509D02*
X94303571Y-94743271D01*
X94303571Y-94743271D02*
X94398809Y-94695652D01*
X94398809Y-94695652D02*
X94589285Y-94695652D01*
X94589285Y-94695652D02*
X94684523Y-94743271D01*
X94684523Y-94743271D02*
X94732142Y-94838509D01*
X94732142Y-94838509D02*
X94732142Y-94933747D01*
X94732142Y-94933747D02*
X94255952Y-95028985D01*
X95160714Y-95362319D02*
X95160714Y-94695652D01*
X95160714Y-94886128D02*
X95208333Y-94790890D01*
X95208333Y-94790890D02*
X95255952Y-94743271D01*
X95255952Y-94743271D02*
X95351190Y-94695652D01*
X95351190Y-94695652D02*
X95446428Y-94695652D01*
X96970238Y-94695652D02*
X96970238Y-95362319D01*
X96541667Y-94695652D02*
X96541667Y-95219461D01*
X96541667Y-95219461D02*
X96589286Y-95314700D01*
X96589286Y-95314700D02*
X96684524Y-95362319D01*
X96684524Y-95362319D02*
X96827381Y-95362319D01*
X96827381Y-95362319D02*
X96922619Y-95314700D01*
X96922619Y-95314700D02*
X96970238Y-95267080D01*
X97875000Y-95362319D02*
X97875000Y-94362319D01*
X97875000Y-95314700D02*
X97779762Y-95362319D01*
X97779762Y-95362319D02*
X97589286Y-95362319D01*
X97589286Y-95362319D02*
X97494048Y-95314700D01*
X97494048Y-95314700D02*
X97446429Y-95267080D01*
X97446429Y-95267080D02*
X97398810Y-95171842D01*
X97398810Y-95171842D02*
X97398810Y-94886128D01*
X97398810Y-94886128D02*
X97446429Y-94790890D01*
X97446429Y-94790890D02*
X97494048Y-94743271D01*
X97494048Y-94743271D02*
X97589286Y-94695652D01*
X97589286Y-94695652D02*
X97779762Y-94695652D01*
X97779762Y-94695652D02*
X97875000Y-94743271D01*
X99398810Y-95743271D02*
X99351191Y-95695652D01*
X99351191Y-95695652D02*
X99255953Y-95552795D01*
X99255953Y-95552795D02*
X99208334Y-95457557D01*
X99208334Y-95457557D02*
X99160715Y-95314700D01*
X99160715Y-95314700D02*
X99113096Y-95076604D01*
X99113096Y-95076604D02*
X99113096Y-94886128D01*
X99113096Y-94886128D02*
X99160715Y-94648033D01*
X99160715Y-94648033D02*
X99208334Y-94505176D01*
X99208334Y-94505176D02*
X99255953Y-94409938D01*
X99255953Y-94409938D02*
X99351191Y-94267080D01*
X99351191Y-94267080D02*
X99398810Y-94219461D01*
X100255953Y-94362319D02*
X99779763Y-94362319D01*
X99779763Y-94362319D02*
X99732144Y-94838509D01*
X99732144Y-94838509D02*
X99779763Y-94790890D01*
X99779763Y-94790890D02*
X99875001Y-94743271D01*
X99875001Y-94743271D02*
X100113096Y-94743271D01*
X100113096Y-94743271D02*
X100208334Y-94790890D01*
X100208334Y-94790890D02*
X100255953Y-94838509D01*
X100255953Y-94838509D02*
X100303572Y-94933747D01*
X100303572Y-94933747D02*
X100303572Y-95171842D01*
X100303572Y-95171842D02*
X100255953Y-95267080D01*
X100255953Y-95267080D02*
X100208334Y-95314700D01*
X100208334Y-95314700D02*
X100113096Y-95362319D01*
X100113096Y-95362319D02*
X99875001Y-95362319D01*
X99875001Y-95362319D02*
X99779763Y-95314700D01*
X99779763Y-95314700D02*
X99732144Y-95267080D01*
X100589287Y-94362319D02*
X100922620Y-95362319D01*
X100922620Y-95362319D02*
X101255953Y-94362319D01*
X101494049Y-95743271D02*
X101541668Y-95695652D01*
X101541668Y-95695652D02*
X101636906Y-95552795D01*
X101636906Y-95552795D02*
X101684525Y-95457557D01*
X101684525Y-95457557D02*
X101732144Y-95314700D01*
X101732144Y-95314700D02*
X101779763Y-95076604D01*
X101779763Y-95076604D02*
X101779763Y-94886128D01*
X101779763Y-94886128D02*
X101732144Y-94648033D01*
X101732144Y-94648033D02*
X101684525Y-94505176D01*
X101684525Y-94505176D02*
X101636906Y-94409938D01*
X101636906Y-94409938D02*
X101541668Y-94267080D01*
X101541668Y-94267080D02*
X101494049Y-94219461D01*
X96541666Y-99442319D02*
X96541666Y-100156604D01*
X96541666Y-100156604D02*
X96494047Y-100299461D01*
X96494047Y-100299461D02*
X96398809Y-100394700D01*
X96398809Y-100394700D02*
X96255952Y-100442319D01*
X96255952Y-100442319D02*
X96160714Y-100442319D01*
X96970238Y-99537557D02*
X97017857Y-99489938D01*
X97017857Y-99489938D02*
X97113095Y-99442319D01*
X97113095Y-99442319D02*
X97351190Y-99442319D01*
X97351190Y-99442319D02*
X97446428Y-99489938D01*
X97446428Y-99489938D02*
X97494047Y-99537557D01*
X97494047Y-99537557D02*
X97541666Y-99632795D01*
X97541666Y-99632795D02*
X97541666Y-99728033D01*
X97541666Y-99728033D02*
X97494047Y-99870890D01*
X97494047Y-99870890D02*
X96922619Y-100442319D01*
X96922619Y-100442319D02*
X97541666Y-100442319D01*
X105699819Y-74106547D02*
X105699819Y-74677975D01*
X105699819Y-74392261D02*
X104699819Y-74392261D01*
X104699819Y-74392261D02*
X104842676Y-74487499D01*
X104842676Y-74487499D02*
X104937914Y-74582737D01*
X104937914Y-74582737D02*
X104985533Y-74677975D01*
X105699819Y-73677975D02*
X104699819Y-73677975D01*
X105318866Y-73582737D02*
X105699819Y-73297023D01*
X105033152Y-73297023D02*
X105414104Y-73677975D01*
X103329819Y-74154166D02*
X102853628Y-74487499D01*
X103329819Y-74725594D02*
X102329819Y-74725594D01*
X102329819Y-74725594D02*
X102329819Y-74344642D01*
X102329819Y-74344642D02*
X102377438Y-74249404D01*
X102377438Y-74249404D02*
X102425057Y-74201785D01*
X102425057Y-74201785D02*
X102520295Y-74154166D01*
X102520295Y-74154166D02*
X102663152Y-74154166D01*
X102663152Y-74154166D02*
X102758390Y-74201785D01*
X102758390Y-74201785D02*
X102806009Y-74249404D01*
X102806009Y-74249404D02*
X102853628Y-74344642D01*
X102853628Y-74344642D02*
X102853628Y-74725594D01*
X102663152Y-73297023D02*
X103329819Y-73297023D01*
X102282200Y-73535118D02*
X102996485Y-73773213D01*
X102996485Y-73773213D02*
X102996485Y-73154166D01*
D12*
%TO.C,D3*%
X111875000Y-65287500D02*
X113875000Y-65287500D01*
X111875000Y-65387500D02*
X113875000Y-65387500D01*
X111875000Y-65487500D02*
X113875000Y-65487500D01*
X112875000Y-60177500D02*
X112875000Y-61987500D01*
X112875000Y-67797500D02*
X112875000Y-65987500D01*
X111875000Y-65987500D02*
X113875000Y-65987500D01*
X113875000Y-61987500D01*
X111875000Y-61987500D01*
X111875000Y-65987500D01*
%TO.C,R2*%
X76875000Y-49177500D02*
X76875000Y-49837500D01*
X76875000Y-56797500D02*
X76875000Y-56137500D01*
X75625000Y-56137500D02*
X78125000Y-56137500D01*
X78125000Y-49837500D01*
X75625000Y-49837500D01*
X75625000Y-56137500D01*
%TO.C,C5*%
X58375000Y-72737500D02*
X63375000Y-72737500D01*
X63375000Y-75237500D01*
X58375000Y-75237500D01*
X58375000Y-72737500D01*
%TO.C,R3*%
X112875000Y-46177500D02*
X112875000Y-46837500D01*
X112875000Y-53797500D02*
X112875000Y-53137500D01*
X111625000Y-53137500D02*
X114125000Y-53137500D01*
X114125000Y-46837500D01*
X111625000Y-46837500D01*
X111625000Y-53137500D01*
%TO.C,C2*%
X75545541Y-98240000D02*
X76345541Y-98240000D01*
X75945541Y-97840000D02*
X75945541Y-98640000D01*
X82972300Y-99987500D02*
G75*
G02*
X74972300Y-99987500I-4000000J0D01*
G01*
X74972300Y-99987500D02*
G75*
G02*
X82972300Y-99987500I4000000J0D01*
G01*
%TO.C,U2*%
X93700000Y-47097500D02*
X94700000Y-46097500D01*
X93700000Y-63877500D02*
X93700000Y-47097500D01*
X94700000Y-46097500D02*
X100050000Y-46097500D01*
X100050000Y-46097500D02*
X100050000Y-63877500D01*
X100050000Y-63877500D02*
X93700000Y-63877500D01*
%TO.C,D1*%
X76275000Y-39212500D02*
X81475000Y-39212500D01*
X76275000Y-39312500D02*
X81475000Y-39312500D01*
X76275000Y-39412500D02*
X81475000Y-39412500D01*
X78875000Y-28367500D02*
X78875000Y-31237500D01*
X78875000Y-43607500D02*
X78875000Y-40737500D01*
X76275000Y-40737500D02*
X81475000Y-40737500D01*
X81475000Y-31237500D01*
X76275000Y-31237500D01*
X76275000Y-40737500D01*
%TO.C,C3*%
X86375000Y-72737500D02*
X91375000Y-72737500D01*
X91375000Y-75237500D01*
X86375000Y-75237500D01*
X86375000Y-72737500D01*
%TO.C,L1*%
X35625000Y-93487500D02*
X70125000Y-93487500D01*
X70125000Y-108487500D01*
X35625000Y-108487500D01*
X35625000Y-93487500D01*
X70125000Y-100987500D02*
G75*
G02*
X35625000Y-100987500I-17250000J0D01*
G01*
X35625000Y-100987500D02*
G75*
G02*
X70125000Y-100987500I17250000J0D01*
G01*
%TO.C,D2*%
X71065000Y-73987500D02*
X72875000Y-73987500D01*
X73375000Y-72987500D02*
X73375000Y-74987500D01*
X73475000Y-72987500D02*
X73475000Y-74987500D01*
X73575000Y-72987500D02*
X73575000Y-74987500D01*
X78685000Y-73987500D02*
X76875000Y-73987500D01*
X72875000Y-72987500D02*
X76875000Y-72987500D01*
X76875000Y-74987500D01*
X72875000Y-74987500D01*
X72875000Y-72987500D01*
%TO.C,J4*%
X29875000Y-70237500D02*
X29875000Y-77737500D01*
X29875000Y-77737500D02*
X39875000Y-77737500D01*
X39825000Y-71437500D02*
X29925000Y-71437500D01*
X39875000Y-70237500D02*
X29875000Y-70237500D01*
X39875000Y-77737500D02*
X39875000Y-70237500D01*
%TO.C,J1*%
X29875000Y-26237500D02*
X29875000Y-33737500D01*
X29875000Y-33737500D02*
X39875000Y-33737500D01*
X39825000Y-27437500D02*
X29925000Y-27437500D01*
X39875000Y-26237500D02*
X29875000Y-26237500D01*
X39875000Y-33737500D02*
X39875000Y-26237500D01*
%TO.C,C1*%
X45545541Y-28240000D02*
X46345541Y-28240000D01*
X45945541Y-27840000D02*
X45945541Y-28640000D01*
X52972300Y-29987500D02*
G75*
G02*
X44972300Y-29987500I-4000000J0D01*
G01*
X44972300Y-29987500D02*
G75*
G02*
X52972300Y-29987500I4000000J0D01*
G01*
%TO.C,J3*%
X33605000Y-49452500D02*
X36145000Y-49452500D01*
X33605000Y-54532500D02*
X33605000Y-49452500D01*
X35510000Y-54532500D02*
X33605000Y-54532500D01*
X36145000Y-49452500D02*
X36145000Y-53897500D01*
X36145000Y-53897500D02*
X35510000Y-54532500D01*
%TO.C,U1*%
X59700000Y-49177500D02*
X60700000Y-48177500D01*
X59700000Y-55797500D02*
X59700000Y-49177500D01*
X60700000Y-48177500D02*
X66050000Y-48177500D01*
X66050000Y-48177500D02*
X66050000Y-55797500D01*
X66050000Y-55797500D02*
X59700000Y-55797500D01*
%TO.C,C4*%
X45545541Y-72240000D02*
X46345541Y-72240000D01*
X45945541Y-71840000D02*
X45945541Y-72640000D01*
X52972300Y-73987500D02*
G75*
G02*
X44972300Y-73987500I-4000000J0D01*
G01*
X44972300Y-73987500D02*
G75*
G02*
X52972300Y-73987500I4000000J0D01*
G01*
%TO.C,Q1*%
X59875000Y-29057500D02*
X69875000Y-29057500D01*
X63025000Y-27787500D02*
X63025000Y-29057500D01*
X66725000Y-27787500D02*
X66725000Y-29057500D01*
X59875000Y-27787500D02*
X69875000Y-27787500D01*
X69875000Y-32187500D01*
X59875000Y-32187500D01*
X59875000Y-27787500D01*
%TO.C,R1*%
X48875000Y-47177500D02*
X48875000Y-47837500D01*
X48875000Y-54797500D02*
X48875000Y-54137500D01*
X47625000Y-54137500D02*
X50125000Y-54137500D01*
X50125000Y-47837500D01*
X47625000Y-47837500D01*
X47625000Y-54137500D01*
%TO.C,J2*%
X91875000Y-96237500D02*
X91875000Y-103737500D01*
X91875000Y-103737500D02*
X101875000Y-103737500D01*
X101825000Y-97437500D02*
X91925000Y-97437500D01*
X101875000Y-96237500D02*
X91875000Y-96237500D01*
X101875000Y-103737500D02*
X101875000Y-96237500D01*
%TO.C,R4*%
X102875000Y-70177500D02*
X102875000Y-70837500D01*
X102875000Y-77797500D02*
X102875000Y-77137500D01*
X101625000Y-77137500D02*
X104125000Y-77137500D01*
X104125000Y-70837500D01*
X101625000Y-70837500D01*
X101625000Y-77137500D01*
%TD*%
M02*
