%TF.GenerationSoftware,KiCad,Pcbnew,9.0.6*%
%TF.CreationDate,2026-06-18T20:52:15+02:00*%
%TF.ProjectId,c2000_feedback,63323030-305f-4666-9565-646261636b2e,rev?*%
%TF.SameCoordinates,Original*%
%TF.FileFunction,Soldermask,Top*%
%TF.FilePolarity,Negative*%
%FSLAX46Y46*%
G04 Gerber Fmt 4.6, Leading zero omitted, Abs format (unit mm)*
G04 Created by KiCad (PCBNEW 9.0.6) date 2026-06-18 20:52:15*
%MOMM*%
%LPD*%
G01*
G04 APERTURE LIST*
G04 Aperture macros list*
%AMRoundRect*
0 Rectangle with rounded corners*
0 $1 Rounding radius*
0 $2 $3 $4 $5 $6 $7 $8 $9 X,Y pos of 4 corners*
0 Add a 4 corners polygon primitive as box body*
4,1,4,$2,$3,$4,$5,$6,$7,$8,$9,$2,$3,0*
0 Add four circle primitives for the rounded corners*
1,1,$1+$1,$2,$3*
1,1,$1+$1,$4,$5*
1,1,$1+$1,$6,$7*
1,1,$1+$1,$8,$9*
0 Add four rect primitives between the rounded corners*
20,1,$1+$1,$2,$3,$4,$5,0*
20,1,$1+$1,$4,$5,$6,$7,0*
20,1,$1+$1,$6,$7,$8,$9,0*
20,1,$1+$1,$8,$9,$2,$3,0*%
G04 Aperture macros list end*
%ADD10C,1.600000*%
%ADD11R,3.000000X3.000000*%
%ADD12C,3.000000*%
%ADD13RoundRect,0.250000X-0.950000X-0.550000X0.950000X-0.550000X0.950000X0.550000X-0.950000X0.550000X0*%
%ADD14O,2.400000X1.600000*%
%ADD15R,1.700000X1.700000*%
%ADD16C,1.700000*%
%ADD17RoundRect,0.250000X-0.550000X-0.550000X0.550000X-0.550000X0.550000X0.550000X-0.550000X0.550000X0*%
G04 APERTURE END LIST*
D10*
%TO.C,RPWM*%
X93190000Y-49250000D03*
X100810000Y-49250000D03*
%TD*%
%TO.C,RV13*%
X65190000Y-30250000D03*
X72810000Y-30250000D03*
%TD*%
D11*
%TO.C,J5*%
X39540000Y-58250000D03*
D12*
X34460000Y-58250000D03*
%TD*%
D13*
%TO.C,U2*%
X67190000Y-87440000D03*
D14*
X67190000Y-89980000D03*
X67190000Y-92520000D03*
X67190000Y-95060000D03*
X74810000Y-95060000D03*
X74810000Y-92520000D03*
X74810000Y-89980000D03*
X74810000Y-87440000D03*
%TD*%
D10*
%TO.C,RV33*%
X65190000Y-58250000D03*
X72810000Y-58250000D03*
%TD*%
D15*
%TO.C,J8*%
X107000000Y-44525000D03*
D16*
X107000000Y-41985000D03*
%TD*%
D11*
%TO.C,J10*%
X109540000Y-31250000D03*
D12*
X104460000Y-31250000D03*
%TD*%
D10*
%TO.C,RF1*%
X85190000Y-71250000D03*
X92810000Y-71250000D03*
%TD*%
%TO.C,R31*%
X51190000Y-98250000D03*
X58810000Y-98250000D03*
%TD*%
%TO.C,RV12*%
X49190000Y-37250000D03*
X56810000Y-37250000D03*
%TD*%
D11*
%TO.C,J1*%
X39540000Y-30250000D03*
D12*
X34460000Y-30250000D03*
%TD*%
D10*
%TO.C,RSH1*%
X51190000Y-76250000D03*
X58810000Y-76250000D03*
%TD*%
%TO.C,RB2*%
X99190000Y-110250000D03*
X106810000Y-110250000D03*
%TD*%
%TO.C,RV21*%
X49190000Y-44250000D03*
X56810000Y-44250000D03*
%TD*%
D17*
%TO.C,DV1*%
X81190000Y-30250000D03*
D10*
X88810000Y-30250000D03*
%TD*%
D11*
%TO.C,J7*%
X39540000Y-76250000D03*
D12*
X34460000Y-76250000D03*
%TD*%
D13*
%TO.C,U3*%
X67190000Y-102440000D03*
D14*
X67190000Y-104980000D03*
X67190000Y-107520000D03*
X67190000Y-110060000D03*
X74810000Y-110060000D03*
X74810000Y-107520000D03*
X74810000Y-104980000D03*
X74810000Y-102440000D03*
%TD*%
D13*
%TO.C,U1*%
X67190000Y-72440000D03*
D14*
X67190000Y-74980000D03*
X67190000Y-77520000D03*
X67190000Y-80060000D03*
X74810000Y-80060000D03*
X74810000Y-77520000D03*
X74810000Y-74980000D03*
X74810000Y-72440000D03*
%TD*%
D10*
%TO.C,CV1*%
X82500000Y-37250000D03*
X87500000Y-37250000D03*
%TD*%
%TO.C,RSH2*%
X51190000Y-91250000D03*
X58810000Y-91250000D03*
%TD*%
%TO.C,RB1*%
X99190000Y-102250000D03*
X106810000Y-102250000D03*
%TD*%
%TO.C,R33*%
X51190000Y-114250000D03*
X58810000Y-114250000D03*
%TD*%
%TO.C,RV22*%
X49190000Y-51250000D03*
X56810000Y-51250000D03*
%TD*%
D11*
%TO.C,J3*%
X39540000Y-44250000D03*
D12*
X34460000Y-44250000D03*
%TD*%
D10*
%TO.C,RV32*%
X49190000Y-65250000D03*
X56810000Y-65250000D03*
%TD*%
%TO.C,RV31*%
X49190000Y-58250000D03*
X56810000Y-58250000D03*
%TD*%
D15*
%TO.C,J2*%
X107000000Y-57525000D03*
D16*
X107000000Y-54985000D03*
%TD*%
D17*
%TO.C,DV2*%
X81190000Y-44250000D03*
D10*
X88810000Y-44250000D03*
%TD*%
%TO.C,RF2*%
X85190000Y-86250000D03*
X92810000Y-86250000D03*
%TD*%
%TO.C,RG2*%
X85190000Y-94250000D03*
X92810000Y-94250000D03*
%TD*%
%TO.C,CV3*%
X82500000Y-65250000D03*
X87500000Y-65250000D03*
%TD*%
D17*
%TO.C,DV3*%
X81190000Y-58250000D03*
D10*
X88810000Y-58250000D03*
%TD*%
%TO.C,CD2*%
X96500000Y-91250000D03*
X101500000Y-91250000D03*
%TD*%
%TO.C,R34*%
X85190000Y-110250000D03*
X92810000Y-110250000D03*
%TD*%
%TO.C,CD1*%
X96500000Y-76250000D03*
X101500000Y-76250000D03*
%TD*%
%TO.C,CV2*%
X82500000Y-51250000D03*
X87500000Y-51250000D03*
%TD*%
%TO.C,RG1*%
X85190000Y-79250000D03*
X92810000Y-79250000D03*
%TD*%
D11*
%TO.C,J11*%
X39540000Y-106250000D03*
D12*
X34460000Y-106250000D03*
%TD*%
D15*
%TO.C,J4*%
X107000000Y-70790000D03*
D16*
X107000000Y-68250000D03*
X107000000Y-65710000D03*
%TD*%
D15*
%TO.C,J6*%
X107000000Y-83790000D03*
D16*
X107000000Y-81250000D03*
X107000000Y-78710000D03*
%TD*%
D10*
%TO.C,CD3*%
X86500000Y-116250000D03*
X91500000Y-116250000D03*
%TD*%
%TO.C,R32*%
X85190000Y-102250000D03*
X92810000Y-102250000D03*
%TD*%
%TO.C,CB*%
X68500000Y-116250000D03*
X73500000Y-116250000D03*
%TD*%
D11*
%TO.C,J9*%
X39540000Y-91250000D03*
D12*
X34460000Y-91250000D03*
%TD*%
D10*
%TO.C,RV23*%
X65190000Y-44250000D03*
X72810000Y-44250000D03*
%TD*%
%TO.C,RV11*%
X49190000Y-30250000D03*
X56810000Y-30250000D03*
%TD*%
%TO.C,RSH3*%
X51190000Y-106250000D03*
X58810000Y-106250000D03*
%TD*%
M02*
