%TF.GenerationSoftware,KiCad,Pcbnew,9.0.6*%
%TF.CreationDate,2026-06-18T20:52:15+02:00*%
%TF.ProjectId,c2000_feedback,63323030-305f-4666-9565-646261636b2e,rev?*%
%TF.SameCoordinates,Original*%
%TF.FileFunction,Legend,Top*%
%TF.FilePolarity,Positive*%
%FSLAX46Y46*%
G04 Gerber Fmt 4.6, Leading zero omitted, Abs format (unit mm)*
G04 Created by KiCad (PCBNEW 9.0.6) date 2026-06-18 20:52:15*
%MOMM*%
%LPD*%
G01*
G04 APERTURE LIST*
%ADD10C,0.150000*%
%ADD11C,0.120000*%
G04 APERTURE END LIST*
D10*
X95666666Y-47334819D02*
X95333333Y-46858628D01*
X95095238Y-47334819D02*
X95095238Y-46334819D01*
X95095238Y-46334819D02*
X95476190Y-46334819D01*
X95476190Y-46334819D02*
X95571428Y-46382438D01*
X95571428Y-46382438D02*
X95619047Y-46430057D01*
X95619047Y-46430057D02*
X95666666Y-46525295D01*
X95666666Y-46525295D02*
X95666666Y-46668152D01*
X95666666Y-46668152D02*
X95619047Y-46763390D01*
X95619047Y-46763390D02*
X95571428Y-46811009D01*
X95571428Y-46811009D02*
X95476190Y-46858628D01*
X95476190Y-46858628D02*
X95095238Y-46858628D01*
X96095238Y-47334819D02*
X96095238Y-46334819D01*
X96095238Y-46334819D02*
X96476190Y-46334819D01*
X96476190Y-46334819D02*
X96571428Y-46382438D01*
X96571428Y-46382438D02*
X96619047Y-46430057D01*
X96619047Y-46430057D02*
X96666666Y-46525295D01*
X96666666Y-46525295D02*
X96666666Y-46668152D01*
X96666666Y-46668152D02*
X96619047Y-46763390D01*
X96619047Y-46763390D02*
X96571428Y-46811009D01*
X96571428Y-46811009D02*
X96476190Y-46858628D01*
X96476190Y-46858628D02*
X96095238Y-46858628D01*
X97000000Y-46334819D02*
X97238095Y-47334819D01*
X97238095Y-47334819D02*
X97428571Y-46620533D01*
X97428571Y-46620533D02*
X97619047Y-47334819D01*
X97619047Y-47334819D02*
X97857143Y-46334819D01*
X98238095Y-47334819D02*
X98238095Y-46334819D01*
X98238095Y-46334819D02*
X98571428Y-47049104D01*
X98571428Y-47049104D02*
X98904761Y-46334819D01*
X98904761Y-46334819D02*
X98904761Y-47334819D01*
X67928571Y-28334819D02*
X67595238Y-27858628D01*
X67357143Y-28334819D02*
X67357143Y-27334819D01*
X67357143Y-27334819D02*
X67738095Y-27334819D01*
X67738095Y-27334819D02*
X67833333Y-27382438D01*
X67833333Y-27382438D02*
X67880952Y-27430057D01*
X67880952Y-27430057D02*
X67928571Y-27525295D01*
X67928571Y-27525295D02*
X67928571Y-27668152D01*
X67928571Y-27668152D02*
X67880952Y-27763390D01*
X67880952Y-27763390D02*
X67833333Y-27811009D01*
X67833333Y-27811009D02*
X67738095Y-27858628D01*
X67738095Y-27858628D02*
X67357143Y-27858628D01*
X68214286Y-27334819D02*
X68547619Y-28334819D01*
X68547619Y-28334819D02*
X68880952Y-27334819D01*
X69738095Y-28334819D02*
X69166667Y-28334819D01*
X69452381Y-28334819D02*
X69452381Y-27334819D01*
X69452381Y-27334819D02*
X69357143Y-27477676D01*
X69357143Y-27477676D02*
X69261905Y-27572914D01*
X69261905Y-27572914D02*
X69166667Y-27620533D01*
X70071429Y-27334819D02*
X70690476Y-27334819D01*
X70690476Y-27334819D02*
X70357143Y-27715771D01*
X70357143Y-27715771D02*
X70500000Y-27715771D01*
X70500000Y-27715771D02*
X70595238Y-27763390D01*
X70595238Y-27763390D02*
X70642857Y-27811009D01*
X70642857Y-27811009D02*
X70690476Y-27906247D01*
X70690476Y-27906247D02*
X70690476Y-28144342D01*
X70690476Y-28144342D02*
X70642857Y-28239580D01*
X70642857Y-28239580D02*
X70595238Y-28287200D01*
X70595238Y-28287200D02*
X70500000Y-28334819D01*
X70500000Y-28334819D02*
X70214286Y-28334819D01*
X70214286Y-28334819D02*
X70119048Y-28287200D01*
X70119048Y-28287200D02*
X70071429Y-28239580D01*
X36666666Y-62784819D02*
X36666666Y-63499104D01*
X36666666Y-63499104D02*
X36619047Y-63641961D01*
X36619047Y-63641961D02*
X36523809Y-63737200D01*
X36523809Y-63737200D02*
X36380952Y-63784819D01*
X36380952Y-63784819D02*
X36285714Y-63784819D01*
X37619047Y-62784819D02*
X37142857Y-62784819D01*
X37142857Y-62784819D02*
X37095238Y-63261009D01*
X37095238Y-63261009D02*
X37142857Y-63213390D01*
X37142857Y-63213390D02*
X37238095Y-63165771D01*
X37238095Y-63165771D02*
X37476190Y-63165771D01*
X37476190Y-63165771D02*
X37571428Y-63213390D01*
X37571428Y-63213390D02*
X37619047Y-63261009D01*
X37619047Y-63261009D02*
X37666666Y-63356247D01*
X37666666Y-63356247D02*
X37666666Y-63594342D01*
X37666666Y-63594342D02*
X37619047Y-63689580D01*
X37619047Y-63689580D02*
X37571428Y-63737200D01*
X37571428Y-63737200D02*
X37476190Y-63784819D01*
X37476190Y-63784819D02*
X37238095Y-63784819D01*
X37238095Y-63784819D02*
X37142857Y-63737200D01*
X37142857Y-63737200D02*
X37095238Y-63689580D01*
X70238095Y-84564819D02*
X70238095Y-85374342D01*
X70238095Y-85374342D02*
X70285714Y-85469580D01*
X70285714Y-85469580D02*
X70333333Y-85517200D01*
X70333333Y-85517200D02*
X70428571Y-85564819D01*
X70428571Y-85564819D02*
X70619047Y-85564819D01*
X70619047Y-85564819D02*
X70714285Y-85517200D01*
X70714285Y-85517200D02*
X70761904Y-85469580D01*
X70761904Y-85469580D02*
X70809523Y-85374342D01*
X70809523Y-85374342D02*
X70809523Y-84564819D01*
X71238095Y-84660057D02*
X71285714Y-84612438D01*
X71285714Y-84612438D02*
X71380952Y-84564819D01*
X71380952Y-84564819D02*
X71619047Y-84564819D01*
X71619047Y-84564819D02*
X71714285Y-84612438D01*
X71714285Y-84612438D02*
X71761904Y-84660057D01*
X71761904Y-84660057D02*
X71809523Y-84755295D01*
X71809523Y-84755295D02*
X71809523Y-84850533D01*
X71809523Y-84850533D02*
X71761904Y-84993390D01*
X71761904Y-84993390D02*
X71190476Y-85564819D01*
X71190476Y-85564819D02*
X71809523Y-85564819D01*
X67928571Y-56334819D02*
X67595238Y-55858628D01*
X67357143Y-56334819D02*
X67357143Y-55334819D01*
X67357143Y-55334819D02*
X67738095Y-55334819D01*
X67738095Y-55334819D02*
X67833333Y-55382438D01*
X67833333Y-55382438D02*
X67880952Y-55430057D01*
X67880952Y-55430057D02*
X67928571Y-55525295D01*
X67928571Y-55525295D02*
X67928571Y-55668152D01*
X67928571Y-55668152D02*
X67880952Y-55763390D01*
X67880952Y-55763390D02*
X67833333Y-55811009D01*
X67833333Y-55811009D02*
X67738095Y-55858628D01*
X67738095Y-55858628D02*
X67357143Y-55858628D01*
X68214286Y-55334819D02*
X68547619Y-56334819D01*
X68547619Y-56334819D02*
X68880952Y-55334819D01*
X69119048Y-55334819D02*
X69738095Y-55334819D01*
X69738095Y-55334819D02*
X69404762Y-55715771D01*
X69404762Y-55715771D02*
X69547619Y-55715771D01*
X69547619Y-55715771D02*
X69642857Y-55763390D01*
X69642857Y-55763390D02*
X69690476Y-55811009D01*
X69690476Y-55811009D02*
X69738095Y-55906247D01*
X69738095Y-55906247D02*
X69738095Y-56144342D01*
X69738095Y-56144342D02*
X69690476Y-56239580D01*
X69690476Y-56239580D02*
X69642857Y-56287200D01*
X69642857Y-56287200D02*
X69547619Y-56334819D01*
X69547619Y-56334819D02*
X69261905Y-56334819D01*
X69261905Y-56334819D02*
X69166667Y-56287200D01*
X69166667Y-56287200D02*
X69119048Y-56239580D01*
X70071429Y-55334819D02*
X70690476Y-55334819D01*
X70690476Y-55334819D02*
X70357143Y-55715771D01*
X70357143Y-55715771D02*
X70500000Y-55715771D01*
X70500000Y-55715771D02*
X70595238Y-55763390D01*
X70595238Y-55763390D02*
X70642857Y-55811009D01*
X70642857Y-55811009D02*
X70690476Y-55906247D01*
X70690476Y-55906247D02*
X70690476Y-56144342D01*
X70690476Y-56144342D02*
X70642857Y-56239580D01*
X70642857Y-56239580D02*
X70595238Y-56287200D01*
X70595238Y-56287200D02*
X70500000Y-56334819D01*
X70500000Y-56334819D02*
X70214286Y-56334819D01*
X70214286Y-56334819D02*
X70119048Y-56287200D01*
X70119048Y-56287200D02*
X70071429Y-56239580D01*
X106666666Y-46359819D02*
X106666666Y-47074104D01*
X106666666Y-47074104D02*
X106619047Y-47216961D01*
X106619047Y-47216961D02*
X106523809Y-47312200D01*
X106523809Y-47312200D02*
X106380952Y-47359819D01*
X106380952Y-47359819D02*
X106285714Y-47359819D01*
X107285714Y-46788390D02*
X107190476Y-46740771D01*
X107190476Y-46740771D02*
X107142857Y-46693152D01*
X107142857Y-46693152D02*
X107095238Y-46597914D01*
X107095238Y-46597914D02*
X107095238Y-46550295D01*
X107095238Y-46550295D02*
X107142857Y-46455057D01*
X107142857Y-46455057D02*
X107190476Y-46407438D01*
X107190476Y-46407438D02*
X107285714Y-46359819D01*
X107285714Y-46359819D02*
X107476190Y-46359819D01*
X107476190Y-46359819D02*
X107571428Y-46407438D01*
X107571428Y-46407438D02*
X107619047Y-46455057D01*
X107619047Y-46455057D02*
X107666666Y-46550295D01*
X107666666Y-46550295D02*
X107666666Y-46597914D01*
X107666666Y-46597914D02*
X107619047Y-46693152D01*
X107619047Y-46693152D02*
X107571428Y-46740771D01*
X107571428Y-46740771D02*
X107476190Y-46788390D01*
X107476190Y-46788390D02*
X107285714Y-46788390D01*
X107285714Y-46788390D02*
X107190476Y-46836009D01*
X107190476Y-46836009D02*
X107142857Y-46883628D01*
X107142857Y-46883628D02*
X107095238Y-46978866D01*
X107095238Y-46978866D02*
X107095238Y-47169342D01*
X107095238Y-47169342D02*
X107142857Y-47264580D01*
X107142857Y-47264580D02*
X107190476Y-47312200D01*
X107190476Y-47312200D02*
X107285714Y-47359819D01*
X107285714Y-47359819D02*
X107476190Y-47359819D01*
X107476190Y-47359819D02*
X107571428Y-47312200D01*
X107571428Y-47312200D02*
X107619047Y-47264580D01*
X107619047Y-47264580D02*
X107666666Y-47169342D01*
X107666666Y-47169342D02*
X107666666Y-46978866D01*
X107666666Y-46978866D02*
X107619047Y-46883628D01*
X107619047Y-46883628D02*
X107571428Y-46836009D01*
X107571428Y-46836009D02*
X107476190Y-46788390D01*
X106190476Y-35784819D02*
X106190476Y-36499104D01*
X106190476Y-36499104D02*
X106142857Y-36641961D01*
X106142857Y-36641961D02*
X106047619Y-36737200D01*
X106047619Y-36737200D02*
X105904762Y-36784819D01*
X105904762Y-36784819D02*
X105809524Y-36784819D01*
X107190476Y-36784819D02*
X106619048Y-36784819D01*
X106904762Y-36784819D02*
X106904762Y-35784819D01*
X106904762Y-35784819D02*
X106809524Y-35927676D01*
X106809524Y-35927676D02*
X106714286Y-36022914D01*
X106714286Y-36022914D02*
X106619048Y-36070533D01*
X107809524Y-35784819D02*
X107904762Y-35784819D01*
X107904762Y-35784819D02*
X108000000Y-35832438D01*
X108000000Y-35832438D02*
X108047619Y-35880057D01*
X108047619Y-35880057D02*
X108095238Y-35975295D01*
X108095238Y-35975295D02*
X108142857Y-36165771D01*
X108142857Y-36165771D02*
X108142857Y-36403866D01*
X108142857Y-36403866D02*
X108095238Y-36594342D01*
X108095238Y-36594342D02*
X108047619Y-36689580D01*
X108047619Y-36689580D02*
X108000000Y-36737200D01*
X108000000Y-36737200D02*
X107904762Y-36784819D01*
X107904762Y-36784819D02*
X107809524Y-36784819D01*
X107809524Y-36784819D02*
X107714286Y-36737200D01*
X107714286Y-36737200D02*
X107666667Y-36689580D01*
X107666667Y-36689580D02*
X107619048Y-36594342D01*
X107619048Y-36594342D02*
X107571429Y-36403866D01*
X107571429Y-36403866D02*
X107571429Y-36165771D01*
X107571429Y-36165771D02*
X107619048Y-35975295D01*
X107619048Y-35975295D02*
X107666667Y-35880057D01*
X107666667Y-35880057D02*
X107714286Y-35832438D01*
X107714286Y-35832438D02*
X107809524Y-35784819D01*
X88404761Y-69334819D02*
X88071428Y-68858628D01*
X87833333Y-69334819D02*
X87833333Y-68334819D01*
X87833333Y-68334819D02*
X88214285Y-68334819D01*
X88214285Y-68334819D02*
X88309523Y-68382438D01*
X88309523Y-68382438D02*
X88357142Y-68430057D01*
X88357142Y-68430057D02*
X88404761Y-68525295D01*
X88404761Y-68525295D02*
X88404761Y-68668152D01*
X88404761Y-68668152D02*
X88357142Y-68763390D01*
X88357142Y-68763390D02*
X88309523Y-68811009D01*
X88309523Y-68811009D02*
X88214285Y-68858628D01*
X88214285Y-68858628D02*
X87833333Y-68858628D01*
X89166666Y-68811009D02*
X88833333Y-68811009D01*
X88833333Y-69334819D02*
X88833333Y-68334819D01*
X88833333Y-68334819D02*
X89309523Y-68334819D01*
X90214285Y-69334819D02*
X89642857Y-69334819D01*
X89928571Y-69334819D02*
X89928571Y-68334819D01*
X89928571Y-68334819D02*
X89833333Y-68477676D01*
X89833333Y-68477676D02*
X89738095Y-68572914D01*
X89738095Y-68572914D02*
X89642857Y-68620533D01*
X54357142Y-96334819D02*
X54023809Y-95858628D01*
X53785714Y-96334819D02*
X53785714Y-95334819D01*
X53785714Y-95334819D02*
X54166666Y-95334819D01*
X54166666Y-95334819D02*
X54261904Y-95382438D01*
X54261904Y-95382438D02*
X54309523Y-95430057D01*
X54309523Y-95430057D02*
X54357142Y-95525295D01*
X54357142Y-95525295D02*
X54357142Y-95668152D01*
X54357142Y-95668152D02*
X54309523Y-95763390D01*
X54309523Y-95763390D02*
X54261904Y-95811009D01*
X54261904Y-95811009D02*
X54166666Y-95858628D01*
X54166666Y-95858628D02*
X53785714Y-95858628D01*
X54690476Y-95334819D02*
X55309523Y-95334819D01*
X55309523Y-95334819D02*
X54976190Y-95715771D01*
X54976190Y-95715771D02*
X55119047Y-95715771D01*
X55119047Y-95715771D02*
X55214285Y-95763390D01*
X55214285Y-95763390D02*
X55261904Y-95811009D01*
X55261904Y-95811009D02*
X55309523Y-95906247D01*
X55309523Y-95906247D02*
X55309523Y-96144342D01*
X55309523Y-96144342D02*
X55261904Y-96239580D01*
X55261904Y-96239580D02*
X55214285Y-96287200D01*
X55214285Y-96287200D02*
X55119047Y-96334819D01*
X55119047Y-96334819D02*
X54833333Y-96334819D01*
X54833333Y-96334819D02*
X54738095Y-96287200D01*
X54738095Y-96287200D02*
X54690476Y-96239580D01*
X56261904Y-96334819D02*
X55690476Y-96334819D01*
X55976190Y-96334819D02*
X55976190Y-95334819D01*
X55976190Y-95334819D02*
X55880952Y-95477676D01*
X55880952Y-95477676D02*
X55785714Y-95572914D01*
X55785714Y-95572914D02*
X55690476Y-95620533D01*
X51928571Y-35334819D02*
X51595238Y-34858628D01*
X51357143Y-35334819D02*
X51357143Y-34334819D01*
X51357143Y-34334819D02*
X51738095Y-34334819D01*
X51738095Y-34334819D02*
X51833333Y-34382438D01*
X51833333Y-34382438D02*
X51880952Y-34430057D01*
X51880952Y-34430057D02*
X51928571Y-34525295D01*
X51928571Y-34525295D02*
X51928571Y-34668152D01*
X51928571Y-34668152D02*
X51880952Y-34763390D01*
X51880952Y-34763390D02*
X51833333Y-34811009D01*
X51833333Y-34811009D02*
X51738095Y-34858628D01*
X51738095Y-34858628D02*
X51357143Y-34858628D01*
X52214286Y-34334819D02*
X52547619Y-35334819D01*
X52547619Y-35334819D02*
X52880952Y-34334819D01*
X53738095Y-35334819D02*
X53166667Y-35334819D01*
X53452381Y-35334819D02*
X53452381Y-34334819D01*
X53452381Y-34334819D02*
X53357143Y-34477676D01*
X53357143Y-34477676D02*
X53261905Y-34572914D01*
X53261905Y-34572914D02*
X53166667Y-34620533D01*
X54119048Y-34430057D02*
X54166667Y-34382438D01*
X54166667Y-34382438D02*
X54261905Y-34334819D01*
X54261905Y-34334819D02*
X54500000Y-34334819D01*
X54500000Y-34334819D02*
X54595238Y-34382438D01*
X54595238Y-34382438D02*
X54642857Y-34430057D01*
X54642857Y-34430057D02*
X54690476Y-34525295D01*
X54690476Y-34525295D02*
X54690476Y-34620533D01*
X54690476Y-34620533D02*
X54642857Y-34763390D01*
X54642857Y-34763390D02*
X54071429Y-35334819D01*
X54071429Y-35334819D02*
X54690476Y-35334819D01*
X36666666Y-34784819D02*
X36666666Y-35499104D01*
X36666666Y-35499104D02*
X36619047Y-35641961D01*
X36619047Y-35641961D02*
X36523809Y-35737200D01*
X36523809Y-35737200D02*
X36380952Y-35784819D01*
X36380952Y-35784819D02*
X36285714Y-35784819D01*
X37666666Y-35784819D02*
X37095238Y-35784819D01*
X37380952Y-35784819D02*
X37380952Y-34784819D01*
X37380952Y-34784819D02*
X37285714Y-34927676D01*
X37285714Y-34927676D02*
X37190476Y-35022914D01*
X37190476Y-35022914D02*
X37095238Y-35070533D01*
X53833333Y-74334819D02*
X53500000Y-73858628D01*
X53261905Y-74334819D02*
X53261905Y-73334819D01*
X53261905Y-73334819D02*
X53642857Y-73334819D01*
X53642857Y-73334819D02*
X53738095Y-73382438D01*
X53738095Y-73382438D02*
X53785714Y-73430057D01*
X53785714Y-73430057D02*
X53833333Y-73525295D01*
X53833333Y-73525295D02*
X53833333Y-73668152D01*
X53833333Y-73668152D02*
X53785714Y-73763390D01*
X53785714Y-73763390D02*
X53738095Y-73811009D01*
X53738095Y-73811009D02*
X53642857Y-73858628D01*
X53642857Y-73858628D02*
X53261905Y-73858628D01*
X54214286Y-74287200D02*
X54357143Y-74334819D01*
X54357143Y-74334819D02*
X54595238Y-74334819D01*
X54595238Y-74334819D02*
X54690476Y-74287200D01*
X54690476Y-74287200D02*
X54738095Y-74239580D01*
X54738095Y-74239580D02*
X54785714Y-74144342D01*
X54785714Y-74144342D02*
X54785714Y-74049104D01*
X54785714Y-74049104D02*
X54738095Y-73953866D01*
X54738095Y-73953866D02*
X54690476Y-73906247D01*
X54690476Y-73906247D02*
X54595238Y-73858628D01*
X54595238Y-73858628D02*
X54404762Y-73811009D01*
X54404762Y-73811009D02*
X54309524Y-73763390D01*
X54309524Y-73763390D02*
X54261905Y-73715771D01*
X54261905Y-73715771D02*
X54214286Y-73620533D01*
X54214286Y-73620533D02*
X54214286Y-73525295D01*
X54214286Y-73525295D02*
X54261905Y-73430057D01*
X54261905Y-73430057D02*
X54309524Y-73382438D01*
X54309524Y-73382438D02*
X54404762Y-73334819D01*
X54404762Y-73334819D02*
X54642857Y-73334819D01*
X54642857Y-73334819D02*
X54785714Y-73382438D01*
X55214286Y-74334819D02*
X55214286Y-73334819D01*
X55214286Y-73811009D02*
X55785714Y-73811009D01*
X55785714Y-74334819D02*
X55785714Y-73334819D01*
X56785714Y-74334819D02*
X56214286Y-74334819D01*
X56500000Y-74334819D02*
X56500000Y-73334819D01*
X56500000Y-73334819D02*
X56404762Y-73477676D01*
X56404762Y-73477676D02*
X56309524Y-73572914D01*
X56309524Y-73572914D02*
X56214286Y-73620533D01*
X102333333Y-108334819D02*
X102000000Y-107858628D01*
X101761905Y-108334819D02*
X101761905Y-107334819D01*
X101761905Y-107334819D02*
X102142857Y-107334819D01*
X102142857Y-107334819D02*
X102238095Y-107382438D01*
X102238095Y-107382438D02*
X102285714Y-107430057D01*
X102285714Y-107430057D02*
X102333333Y-107525295D01*
X102333333Y-107525295D02*
X102333333Y-107668152D01*
X102333333Y-107668152D02*
X102285714Y-107763390D01*
X102285714Y-107763390D02*
X102238095Y-107811009D01*
X102238095Y-107811009D02*
X102142857Y-107858628D01*
X102142857Y-107858628D02*
X101761905Y-107858628D01*
X103095238Y-107811009D02*
X103238095Y-107858628D01*
X103238095Y-107858628D02*
X103285714Y-107906247D01*
X103285714Y-107906247D02*
X103333333Y-108001485D01*
X103333333Y-108001485D02*
X103333333Y-108144342D01*
X103333333Y-108144342D02*
X103285714Y-108239580D01*
X103285714Y-108239580D02*
X103238095Y-108287200D01*
X103238095Y-108287200D02*
X103142857Y-108334819D01*
X103142857Y-108334819D02*
X102761905Y-108334819D01*
X102761905Y-108334819D02*
X102761905Y-107334819D01*
X102761905Y-107334819D02*
X103095238Y-107334819D01*
X103095238Y-107334819D02*
X103190476Y-107382438D01*
X103190476Y-107382438D02*
X103238095Y-107430057D01*
X103238095Y-107430057D02*
X103285714Y-107525295D01*
X103285714Y-107525295D02*
X103285714Y-107620533D01*
X103285714Y-107620533D02*
X103238095Y-107715771D01*
X103238095Y-107715771D02*
X103190476Y-107763390D01*
X103190476Y-107763390D02*
X103095238Y-107811009D01*
X103095238Y-107811009D02*
X102761905Y-107811009D01*
X103714286Y-107430057D02*
X103761905Y-107382438D01*
X103761905Y-107382438D02*
X103857143Y-107334819D01*
X103857143Y-107334819D02*
X104095238Y-107334819D01*
X104095238Y-107334819D02*
X104190476Y-107382438D01*
X104190476Y-107382438D02*
X104238095Y-107430057D01*
X104238095Y-107430057D02*
X104285714Y-107525295D01*
X104285714Y-107525295D02*
X104285714Y-107620533D01*
X104285714Y-107620533D02*
X104238095Y-107763390D01*
X104238095Y-107763390D02*
X103666667Y-108334819D01*
X103666667Y-108334819D02*
X104285714Y-108334819D01*
X51928571Y-42334819D02*
X51595238Y-41858628D01*
X51357143Y-42334819D02*
X51357143Y-41334819D01*
X51357143Y-41334819D02*
X51738095Y-41334819D01*
X51738095Y-41334819D02*
X51833333Y-41382438D01*
X51833333Y-41382438D02*
X51880952Y-41430057D01*
X51880952Y-41430057D02*
X51928571Y-41525295D01*
X51928571Y-41525295D02*
X51928571Y-41668152D01*
X51928571Y-41668152D02*
X51880952Y-41763390D01*
X51880952Y-41763390D02*
X51833333Y-41811009D01*
X51833333Y-41811009D02*
X51738095Y-41858628D01*
X51738095Y-41858628D02*
X51357143Y-41858628D01*
X52214286Y-41334819D02*
X52547619Y-42334819D01*
X52547619Y-42334819D02*
X52880952Y-41334819D01*
X53166667Y-41430057D02*
X53214286Y-41382438D01*
X53214286Y-41382438D02*
X53309524Y-41334819D01*
X53309524Y-41334819D02*
X53547619Y-41334819D01*
X53547619Y-41334819D02*
X53642857Y-41382438D01*
X53642857Y-41382438D02*
X53690476Y-41430057D01*
X53690476Y-41430057D02*
X53738095Y-41525295D01*
X53738095Y-41525295D02*
X53738095Y-41620533D01*
X53738095Y-41620533D02*
X53690476Y-41763390D01*
X53690476Y-41763390D02*
X53119048Y-42334819D01*
X53119048Y-42334819D02*
X53738095Y-42334819D01*
X54690476Y-42334819D02*
X54119048Y-42334819D01*
X54404762Y-42334819D02*
X54404762Y-41334819D01*
X54404762Y-41334819D02*
X54309524Y-41477676D01*
X54309524Y-41477676D02*
X54214286Y-41572914D01*
X54214286Y-41572914D02*
X54119048Y-41620533D01*
X83833333Y-28584819D02*
X83833333Y-27584819D01*
X83833333Y-27584819D02*
X84071428Y-27584819D01*
X84071428Y-27584819D02*
X84214285Y-27632438D01*
X84214285Y-27632438D02*
X84309523Y-27727676D01*
X84309523Y-27727676D02*
X84357142Y-27822914D01*
X84357142Y-27822914D02*
X84404761Y-28013390D01*
X84404761Y-28013390D02*
X84404761Y-28156247D01*
X84404761Y-28156247D02*
X84357142Y-28346723D01*
X84357142Y-28346723D02*
X84309523Y-28441961D01*
X84309523Y-28441961D02*
X84214285Y-28537200D01*
X84214285Y-28537200D02*
X84071428Y-28584819D01*
X84071428Y-28584819D02*
X83833333Y-28584819D01*
X84690476Y-27584819D02*
X85023809Y-28584819D01*
X85023809Y-28584819D02*
X85357142Y-27584819D01*
X86214285Y-28584819D02*
X85642857Y-28584819D01*
X85928571Y-28584819D02*
X85928571Y-27584819D01*
X85928571Y-27584819D02*
X85833333Y-27727676D01*
X85833333Y-27727676D02*
X85738095Y-27822914D01*
X85738095Y-27822914D02*
X85642857Y-27870533D01*
X80928095Y-28904819D02*
X80928095Y-27904819D01*
X81499523Y-28904819D02*
X81070952Y-28333390D01*
X81499523Y-27904819D02*
X80928095Y-28476247D01*
X36666666Y-80784819D02*
X36666666Y-81499104D01*
X36666666Y-81499104D02*
X36619047Y-81641961D01*
X36619047Y-81641961D02*
X36523809Y-81737200D01*
X36523809Y-81737200D02*
X36380952Y-81784819D01*
X36380952Y-81784819D02*
X36285714Y-81784819D01*
X37047619Y-80784819D02*
X37714285Y-80784819D01*
X37714285Y-80784819D02*
X37285714Y-81784819D01*
X70238095Y-99564819D02*
X70238095Y-100374342D01*
X70238095Y-100374342D02*
X70285714Y-100469580D01*
X70285714Y-100469580D02*
X70333333Y-100517200D01*
X70333333Y-100517200D02*
X70428571Y-100564819D01*
X70428571Y-100564819D02*
X70619047Y-100564819D01*
X70619047Y-100564819D02*
X70714285Y-100517200D01*
X70714285Y-100517200D02*
X70761904Y-100469580D01*
X70761904Y-100469580D02*
X70809523Y-100374342D01*
X70809523Y-100374342D02*
X70809523Y-99564819D01*
X71190476Y-99564819D02*
X71809523Y-99564819D01*
X71809523Y-99564819D02*
X71476190Y-99945771D01*
X71476190Y-99945771D02*
X71619047Y-99945771D01*
X71619047Y-99945771D02*
X71714285Y-99993390D01*
X71714285Y-99993390D02*
X71761904Y-100041009D01*
X71761904Y-100041009D02*
X71809523Y-100136247D01*
X71809523Y-100136247D02*
X71809523Y-100374342D01*
X71809523Y-100374342D02*
X71761904Y-100469580D01*
X71761904Y-100469580D02*
X71714285Y-100517200D01*
X71714285Y-100517200D02*
X71619047Y-100564819D01*
X71619047Y-100564819D02*
X71333333Y-100564819D01*
X71333333Y-100564819D02*
X71238095Y-100517200D01*
X71238095Y-100517200D02*
X71190476Y-100469580D01*
X70238095Y-69564819D02*
X70238095Y-70374342D01*
X70238095Y-70374342D02*
X70285714Y-70469580D01*
X70285714Y-70469580D02*
X70333333Y-70517200D01*
X70333333Y-70517200D02*
X70428571Y-70564819D01*
X70428571Y-70564819D02*
X70619047Y-70564819D01*
X70619047Y-70564819D02*
X70714285Y-70517200D01*
X70714285Y-70517200D02*
X70761904Y-70469580D01*
X70761904Y-70469580D02*
X70809523Y-70374342D01*
X70809523Y-70374342D02*
X70809523Y-69564819D01*
X71809523Y-70564819D02*
X71238095Y-70564819D01*
X71523809Y-70564819D02*
X71523809Y-69564819D01*
X71523809Y-69564819D02*
X71428571Y-69707676D01*
X71428571Y-69707676D02*
X71333333Y-69802914D01*
X71333333Y-69802914D02*
X71238095Y-69850533D01*
X84404761Y-35109580D02*
X84357142Y-35157200D01*
X84357142Y-35157200D02*
X84214285Y-35204819D01*
X84214285Y-35204819D02*
X84119047Y-35204819D01*
X84119047Y-35204819D02*
X83976190Y-35157200D01*
X83976190Y-35157200D02*
X83880952Y-35061961D01*
X83880952Y-35061961D02*
X83833333Y-34966723D01*
X83833333Y-34966723D02*
X83785714Y-34776247D01*
X83785714Y-34776247D02*
X83785714Y-34633390D01*
X83785714Y-34633390D02*
X83833333Y-34442914D01*
X83833333Y-34442914D02*
X83880952Y-34347676D01*
X83880952Y-34347676D02*
X83976190Y-34252438D01*
X83976190Y-34252438D02*
X84119047Y-34204819D01*
X84119047Y-34204819D02*
X84214285Y-34204819D01*
X84214285Y-34204819D02*
X84357142Y-34252438D01*
X84357142Y-34252438D02*
X84404761Y-34300057D01*
X84690476Y-34204819D02*
X85023809Y-35204819D01*
X85023809Y-35204819D02*
X85357142Y-34204819D01*
X86214285Y-35204819D02*
X85642857Y-35204819D01*
X85928571Y-35204819D02*
X85928571Y-34204819D01*
X85928571Y-34204819D02*
X85833333Y-34347676D01*
X85833333Y-34347676D02*
X85738095Y-34442914D01*
X85738095Y-34442914D02*
X85642857Y-34490533D01*
X53833333Y-89334819D02*
X53500000Y-88858628D01*
X53261905Y-89334819D02*
X53261905Y-88334819D01*
X53261905Y-88334819D02*
X53642857Y-88334819D01*
X53642857Y-88334819D02*
X53738095Y-88382438D01*
X53738095Y-88382438D02*
X53785714Y-88430057D01*
X53785714Y-88430057D02*
X53833333Y-88525295D01*
X53833333Y-88525295D02*
X53833333Y-88668152D01*
X53833333Y-88668152D02*
X53785714Y-88763390D01*
X53785714Y-88763390D02*
X53738095Y-88811009D01*
X53738095Y-88811009D02*
X53642857Y-88858628D01*
X53642857Y-88858628D02*
X53261905Y-88858628D01*
X54214286Y-89287200D02*
X54357143Y-89334819D01*
X54357143Y-89334819D02*
X54595238Y-89334819D01*
X54595238Y-89334819D02*
X54690476Y-89287200D01*
X54690476Y-89287200D02*
X54738095Y-89239580D01*
X54738095Y-89239580D02*
X54785714Y-89144342D01*
X54785714Y-89144342D02*
X54785714Y-89049104D01*
X54785714Y-89049104D02*
X54738095Y-88953866D01*
X54738095Y-88953866D02*
X54690476Y-88906247D01*
X54690476Y-88906247D02*
X54595238Y-88858628D01*
X54595238Y-88858628D02*
X54404762Y-88811009D01*
X54404762Y-88811009D02*
X54309524Y-88763390D01*
X54309524Y-88763390D02*
X54261905Y-88715771D01*
X54261905Y-88715771D02*
X54214286Y-88620533D01*
X54214286Y-88620533D02*
X54214286Y-88525295D01*
X54214286Y-88525295D02*
X54261905Y-88430057D01*
X54261905Y-88430057D02*
X54309524Y-88382438D01*
X54309524Y-88382438D02*
X54404762Y-88334819D01*
X54404762Y-88334819D02*
X54642857Y-88334819D01*
X54642857Y-88334819D02*
X54785714Y-88382438D01*
X55214286Y-89334819D02*
X55214286Y-88334819D01*
X55214286Y-88811009D02*
X55785714Y-88811009D01*
X55785714Y-89334819D02*
X55785714Y-88334819D01*
X56214286Y-88430057D02*
X56261905Y-88382438D01*
X56261905Y-88382438D02*
X56357143Y-88334819D01*
X56357143Y-88334819D02*
X56595238Y-88334819D01*
X56595238Y-88334819D02*
X56690476Y-88382438D01*
X56690476Y-88382438D02*
X56738095Y-88430057D01*
X56738095Y-88430057D02*
X56785714Y-88525295D01*
X56785714Y-88525295D02*
X56785714Y-88620533D01*
X56785714Y-88620533D02*
X56738095Y-88763390D01*
X56738095Y-88763390D02*
X56166667Y-89334819D01*
X56166667Y-89334819D02*
X56785714Y-89334819D01*
X102333333Y-100334819D02*
X102000000Y-99858628D01*
X101761905Y-100334819D02*
X101761905Y-99334819D01*
X101761905Y-99334819D02*
X102142857Y-99334819D01*
X102142857Y-99334819D02*
X102238095Y-99382438D01*
X102238095Y-99382438D02*
X102285714Y-99430057D01*
X102285714Y-99430057D02*
X102333333Y-99525295D01*
X102333333Y-99525295D02*
X102333333Y-99668152D01*
X102333333Y-99668152D02*
X102285714Y-99763390D01*
X102285714Y-99763390D02*
X102238095Y-99811009D01*
X102238095Y-99811009D02*
X102142857Y-99858628D01*
X102142857Y-99858628D02*
X101761905Y-99858628D01*
X103095238Y-99811009D02*
X103238095Y-99858628D01*
X103238095Y-99858628D02*
X103285714Y-99906247D01*
X103285714Y-99906247D02*
X103333333Y-100001485D01*
X103333333Y-100001485D02*
X103333333Y-100144342D01*
X103333333Y-100144342D02*
X103285714Y-100239580D01*
X103285714Y-100239580D02*
X103238095Y-100287200D01*
X103238095Y-100287200D02*
X103142857Y-100334819D01*
X103142857Y-100334819D02*
X102761905Y-100334819D01*
X102761905Y-100334819D02*
X102761905Y-99334819D01*
X102761905Y-99334819D02*
X103095238Y-99334819D01*
X103095238Y-99334819D02*
X103190476Y-99382438D01*
X103190476Y-99382438D02*
X103238095Y-99430057D01*
X103238095Y-99430057D02*
X103285714Y-99525295D01*
X103285714Y-99525295D02*
X103285714Y-99620533D01*
X103285714Y-99620533D02*
X103238095Y-99715771D01*
X103238095Y-99715771D02*
X103190476Y-99763390D01*
X103190476Y-99763390D02*
X103095238Y-99811009D01*
X103095238Y-99811009D02*
X102761905Y-99811009D01*
X104285714Y-100334819D02*
X103714286Y-100334819D01*
X104000000Y-100334819D02*
X104000000Y-99334819D01*
X104000000Y-99334819D02*
X103904762Y-99477676D01*
X103904762Y-99477676D02*
X103809524Y-99572914D01*
X103809524Y-99572914D02*
X103714286Y-99620533D01*
X54357142Y-112334819D02*
X54023809Y-111858628D01*
X53785714Y-112334819D02*
X53785714Y-111334819D01*
X53785714Y-111334819D02*
X54166666Y-111334819D01*
X54166666Y-111334819D02*
X54261904Y-111382438D01*
X54261904Y-111382438D02*
X54309523Y-111430057D01*
X54309523Y-111430057D02*
X54357142Y-111525295D01*
X54357142Y-111525295D02*
X54357142Y-111668152D01*
X54357142Y-111668152D02*
X54309523Y-111763390D01*
X54309523Y-111763390D02*
X54261904Y-111811009D01*
X54261904Y-111811009D02*
X54166666Y-111858628D01*
X54166666Y-111858628D02*
X53785714Y-111858628D01*
X54690476Y-111334819D02*
X55309523Y-111334819D01*
X55309523Y-111334819D02*
X54976190Y-111715771D01*
X54976190Y-111715771D02*
X55119047Y-111715771D01*
X55119047Y-111715771D02*
X55214285Y-111763390D01*
X55214285Y-111763390D02*
X55261904Y-111811009D01*
X55261904Y-111811009D02*
X55309523Y-111906247D01*
X55309523Y-111906247D02*
X55309523Y-112144342D01*
X55309523Y-112144342D02*
X55261904Y-112239580D01*
X55261904Y-112239580D02*
X55214285Y-112287200D01*
X55214285Y-112287200D02*
X55119047Y-112334819D01*
X55119047Y-112334819D02*
X54833333Y-112334819D01*
X54833333Y-112334819D02*
X54738095Y-112287200D01*
X54738095Y-112287200D02*
X54690476Y-112239580D01*
X55642857Y-111334819D02*
X56261904Y-111334819D01*
X56261904Y-111334819D02*
X55928571Y-111715771D01*
X55928571Y-111715771D02*
X56071428Y-111715771D01*
X56071428Y-111715771D02*
X56166666Y-111763390D01*
X56166666Y-111763390D02*
X56214285Y-111811009D01*
X56214285Y-111811009D02*
X56261904Y-111906247D01*
X56261904Y-111906247D02*
X56261904Y-112144342D01*
X56261904Y-112144342D02*
X56214285Y-112239580D01*
X56214285Y-112239580D02*
X56166666Y-112287200D01*
X56166666Y-112287200D02*
X56071428Y-112334819D01*
X56071428Y-112334819D02*
X55785714Y-112334819D01*
X55785714Y-112334819D02*
X55690476Y-112287200D01*
X55690476Y-112287200D02*
X55642857Y-112239580D01*
X51928571Y-49334819D02*
X51595238Y-48858628D01*
X51357143Y-49334819D02*
X51357143Y-48334819D01*
X51357143Y-48334819D02*
X51738095Y-48334819D01*
X51738095Y-48334819D02*
X51833333Y-48382438D01*
X51833333Y-48382438D02*
X51880952Y-48430057D01*
X51880952Y-48430057D02*
X51928571Y-48525295D01*
X51928571Y-48525295D02*
X51928571Y-48668152D01*
X51928571Y-48668152D02*
X51880952Y-48763390D01*
X51880952Y-48763390D02*
X51833333Y-48811009D01*
X51833333Y-48811009D02*
X51738095Y-48858628D01*
X51738095Y-48858628D02*
X51357143Y-48858628D01*
X52214286Y-48334819D02*
X52547619Y-49334819D01*
X52547619Y-49334819D02*
X52880952Y-48334819D01*
X53166667Y-48430057D02*
X53214286Y-48382438D01*
X53214286Y-48382438D02*
X53309524Y-48334819D01*
X53309524Y-48334819D02*
X53547619Y-48334819D01*
X53547619Y-48334819D02*
X53642857Y-48382438D01*
X53642857Y-48382438D02*
X53690476Y-48430057D01*
X53690476Y-48430057D02*
X53738095Y-48525295D01*
X53738095Y-48525295D02*
X53738095Y-48620533D01*
X53738095Y-48620533D02*
X53690476Y-48763390D01*
X53690476Y-48763390D02*
X53119048Y-49334819D01*
X53119048Y-49334819D02*
X53738095Y-49334819D01*
X54119048Y-48430057D02*
X54166667Y-48382438D01*
X54166667Y-48382438D02*
X54261905Y-48334819D01*
X54261905Y-48334819D02*
X54500000Y-48334819D01*
X54500000Y-48334819D02*
X54595238Y-48382438D01*
X54595238Y-48382438D02*
X54642857Y-48430057D01*
X54642857Y-48430057D02*
X54690476Y-48525295D01*
X54690476Y-48525295D02*
X54690476Y-48620533D01*
X54690476Y-48620533D02*
X54642857Y-48763390D01*
X54642857Y-48763390D02*
X54071429Y-49334819D01*
X54071429Y-49334819D02*
X54690476Y-49334819D01*
X36666666Y-48784819D02*
X36666666Y-49499104D01*
X36666666Y-49499104D02*
X36619047Y-49641961D01*
X36619047Y-49641961D02*
X36523809Y-49737200D01*
X36523809Y-49737200D02*
X36380952Y-49784819D01*
X36380952Y-49784819D02*
X36285714Y-49784819D01*
X37047619Y-48784819D02*
X37666666Y-48784819D01*
X37666666Y-48784819D02*
X37333333Y-49165771D01*
X37333333Y-49165771D02*
X37476190Y-49165771D01*
X37476190Y-49165771D02*
X37571428Y-49213390D01*
X37571428Y-49213390D02*
X37619047Y-49261009D01*
X37619047Y-49261009D02*
X37666666Y-49356247D01*
X37666666Y-49356247D02*
X37666666Y-49594342D01*
X37666666Y-49594342D02*
X37619047Y-49689580D01*
X37619047Y-49689580D02*
X37571428Y-49737200D01*
X37571428Y-49737200D02*
X37476190Y-49784819D01*
X37476190Y-49784819D02*
X37190476Y-49784819D01*
X37190476Y-49784819D02*
X37095238Y-49737200D01*
X37095238Y-49737200D02*
X37047619Y-49689580D01*
X51928571Y-63334819D02*
X51595238Y-62858628D01*
X51357143Y-63334819D02*
X51357143Y-62334819D01*
X51357143Y-62334819D02*
X51738095Y-62334819D01*
X51738095Y-62334819D02*
X51833333Y-62382438D01*
X51833333Y-62382438D02*
X51880952Y-62430057D01*
X51880952Y-62430057D02*
X51928571Y-62525295D01*
X51928571Y-62525295D02*
X51928571Y-62668152D01*
X51928571Y-62668152D02*
X51880952Y-62763390D01*
X51880952Y-62763390D02*
X51833333Y-62811009D01*
X51833333Y-62811009D02*
X51738095Y-62858628D01*
X51738095Y-62858628D02*
X51357143Y-62858628D01*
X52214286Y-62334819D02*
X52547619Y-63334819D01*
X52547619Y-63334819D02*
X52880952Y-62334819D01*
X53119048Y-62334819D02*
X53738095Y-62334819D01*
X53738095Y-62334819D02*
X53404762Y-62715771D01*
X53404762Y-62715771D02*
X53547619Y-62715771D01*
X53547619Y-62715771D02*
X53642857Y-62763390D01*
X53642857Y-62763390D02*
X53690476Y-62811009D01*
X53690476Y-62811009D02*
X53738095Y-62906247D01*
X53738095Y-62906247D02*
X53738095Y-63144342D01*
X53738095Y-63144342D02*
X53690476Y-63239580D01*
X53690476Y-63239580D02*
X53642857Y-63287200D01*
X53642857Y-63287200D02*
X53547619Y-63334819D01*
X53547619Y-63334819D02*
X53261905Y-63334819D01*
X53261905Y-63334819D02*
X53166667Y-63287200D01*
X53166667Y-63287200D02*
X53119048Y-63239580D01*
X54119048Y-62430057D02*
X54166667Y-62382438D01*
X54166667Y-62382438D02*
X54261905Y-62334819D01*
X54261905Y-62334819D02*
X54500000Y-62334819D01*
X54500000Y-62334819D02*
X54595238Y-62382438D01*
X54595238Y-62382438D02*
X54642857Y-62430057D01*
X54642857Y-62430057D02*
X54690476Y-62525295D01*
X54690476Y-62525295D02*
X54690476Y-62620533D01*
X54690476Y-62620533D02*
X54642857Y-62763390D01*
X54642857Y-62763390D02*
X54071429Y-63334819D01*
X54071429Y-63334819D02*
X54690476Y-63334819D01*
X51928571Y-56334819D02*
X51595238Y-55858628D01*
X51357143Y-56334819D02*
X51357143Y-55334819D01*
X51357143Y-55334819D02*
X51738095Y-55334819D01*
X51738095Y-55334819D02*
X51833333Y-55382438D01*
X51833333Y-55382438D02*
X51880952Y-55430057D01*
X51880952Y-55430057D02*
X51928571Y-55525295D01*
X51928571Y-55525295D02*
X51928571Y-55668152D01*
X51928571Y-55668152D02*
X51880952Y-55763390D01*
X51880952Y-55763390D02*
X51833333Y-55811009D01*
X51833333Y-55811009D02*
X51738095Y-55858628D01*
X51738095Y-55858628D02*
X51357143Y-55858628D01*
X52214286Y-55334819D02*
X52547619Y-56334819D01*
X52547619Y-56334819D02*
X52880952Y-55334819D01*
X53119048Y-55334819D02*
X53738095Y-55334819D01*
X53738095Y-55334819D02*
X53404762Y-55715771D01*
X53404762Y-55715771D02*
X53547619Y-55715771D01*
X53547619Y-55715771D02*
X53642857Y-55763390D01*
X53642857Y-55763390D02*
X53690476Y-55811009D01*
X53690476Y-55811009D02*
X53738095Y-55906247D01*
X53738095Y-55906247D02*
X53738095Y-56144342D01*
X53738095Y-56144342D02*
X53690476Y-56239580D01*
X53690476Y-56239580D02*
X53642857Y-56287200D01*
X53642857Y-56287200D02*
X53547619Y-56334819D01*
X53547619Y-56334819D02*
X53261905Y-56334819D01*
X53261905Y-56334819D02*
X53166667Y-56287200D01*
X53166667Y-56287200D02*
X53119048Y-56239580D01*
X54690476Y-56334819D02*
X54119048Y-56334819D01*
X54404762Y-56334819D02*
X54404762Y-55334819D01*
X54404762Y-55334819D02*
X54309524Y-55477676D01*
X54309524Y-55477676D02*
X54214286Y-55572914D01*
X54214286Y-55572914D02*
X54119048Y-55620533D01*
X106666666Y-59359819D02*
X106666666Y-60074104D01*
X106666666Y-60074104D02*
X106619047Y-60216961D01*
X106619047Y-60216961D02*
X106523809Y-60312200D01*
X106523809Y-60312200D02*
X106380952Y-60359819D01*
X106380952Y-60359819D02*
X106285714Y-60359819D01*
X107095238Y-59455057D02*
X107142857Y-59407438D01*
X107142857Y-59407438D02*
X107238095Y-59359819D01*
X107238095Y-59359819D02*
X107476190Y-59359819D01*
X107476190Y-59359819D02*
X107571428Y-59407438D01*
X107571428Y-59407438D02*
X107619047Y-59455057D01*
X107619047Y-59455057D02*
X107666666Y-59550295D01*
X107666666Y-59550295D02*
X107666666Y-59645533D01*
X107666666Y-59645533D02*
X107619047Y-59788390D01*
X107619047Y-59788390D02*
X107047619Y-60359819D01*
X107047619Y-60359819D02*
X107666666Y-60359819D01*
X83833333Y-42584819D02*
X83833333Y-41584819D01*
X83833333Y-41584819D02*
X84071428Y-41584819D01*
X84071428Y-41584819D02*
X84214285Y-41632438D01*
X84214285Y-41632438D02*
X84309523Y-41727676D01*
X84309523Y-41727676D02*
X84357142Y-41822914D01*
X84357142Y-41822914D02*
X84404761Y-42013390D01*
X84404761Y-42013390D02*
X84404761Y-42156247D01*
X84404761Y-42156247D02*
X84357142Y-42346723D01*
X84357142Y-42346723D02*
X84309523Y-42441961D01*
X84309523Y-42441961D02*
X84214285Y-42537200D01*
X84214285Y-42537200D02*
X84071428Y-42584819D01*
X84071428Y-42584819D02*
X83833333Y-42584819D01*
X84690476Y-41584819D02*
X85023809Y-42584819D01*
X85023809Y-42584819D02*
X85357142Y-41584819D01*
X85642857Y-41680057D02*
X85690476Y-41632438D01*
X85690476Y-41632438D02*
X85785714Y-41584819D01*
X85785714Y-41584819D02*
X86023809Y-41584819D01*
X86023809Y-41584819D02*
X86119047Y-41632438D01*
X86119047Y-41632438D02*
X86166666Y-41680057D01*
X86166666Y-41680057D02*
X86214285Y-41775295D01*
X86214285Y-41775295D02*
X86214285Y-41870533D01*
X86214285Y-41870533D02*
X86166666Y-42013390D01*
X86166666Y-42013390D02*
X85595238Y-42584819D01*
X85595238Y-42584819D02*
X86214285Y-42584819D01*
X80928095Y-42904819D02*
X80928095Y-41904819D01*
X81499523Y-42904819D02*
X81070952Y-42333390D01*
X81499523Y-41904819D02*
X80928095Y-42476247D01*
X88404761Y-84334819D02*
X88071428Y-83858628D01*
X87833333Y-84334819D02*
X87833333Y-83334819D01*
X87833333Y-83334819D02*
X88214285Y-83334819D01*
X88214285Y-83334819D02*
X88309523Y-83382438D01*
X88309523Y-83382438D02*
X88357142Y-83430057D01*
X88357142Y-83430057D02*
X88404761Y-83525295D01*
X88404761Y-83525295D02*
X88404761Y-83668152D01*
X88404761Y-83668152D02*
X88357142Y-83763390D01*
X88357142Y-83763390D02*
X88309523Y-83811009D01*
X88309523Y-83811009D02*
X88214285Y-83858628D01*
X88214285Y-83858628D02*
X87833333Y-83858628D01*
X89166666Y-83811009D02*
X88833333Y-83811009D01*
X88833333Y-84334819D02*
X88833333Y-83334819D01*
X88833333Y-83334819D02*
X89309523Y-83334819D01*
X89642857Y-83430057D02*
X89690476Y-83382438D01*
X89690476Y-83382438D02*
X89785714Y-83334819D01*
X89785714Y-83334819D02*
X90023809Y-83334819D01*
X90023809Y-83334819D02*
X90119047Y-83382438D01*
X90119047Y-83382438D02*
X90166666Y-83430057D01*
X90166666Y-83430057D02*
X90214285Y-83525295D01*
X90214285Y-83525295D02*
X90214285Y-83620533D01*
X90214285Y-83620533D02*
X90166666Y-83763390D01*
X90166666Y-83763390D02*
X89595238Y-84334819D01*
X89595238Y-84334819D02*
X90214285Y-84334819D01*
X88333333Y-92334819D02*
X88000000Y-91858628D01*
X87761905Y-92334819D02*
X87761905Y-91334819D01*
X87761905Y-91334819D02*
X88142857Y-91334819D01*
X88142857Y-91334819D02*
X88238095Y-91382438D01*
X88238095Y-91382438D02*
X88285714Y-91430057D01*
X88285714Y-91430057D02*
X88333333Y-91525295D01*
X88333333Y-91525295D02*
X88333333Y-91668152D01*
X88333333Y-91668152D02*
X88285714Y-91763390D01*
X88285714Y-91763390D02*
X88238095Y-91811009D01*
X88238095Y-91811009D02*
X88142857Y-91858628D01*
X88142857Y-91858628D02*
X87761905Y-91858628D01*
X89285714Y-91382438D02*
X89190476Y-91334819D01*
X89190476Y-91334819D02*
X89047619Y-91334819D01*
X89047619Y-91334819D02*
X88904762Y-91382438D01*
X88904762Y-91382438D02*
X88809524Y-91477676D01*
X88809524Y-91477676D02*
X88761905Y-91572914D01*
X88761905Y-91572914D02*
X88714286Y-91763390D01*
X88714286Y-91763390D02*
X88714286Y-91906247D01*
X88714286Y-91906247D02*
X88761905Y-92096723D01*
X88761905Y-92096723D02*
X88809524Y-92191961D01*
X88809524Y-92191961D02*
X88904762Y-92287200D01*
X88904762Y-92287200D02*
X89047619Y-92334819D01*
X89047619Y-92334819D02*
X89142857Y-92334819D01*
X89142857Y-92334819D02*
X89285714Y-92287200D01*
X89285714Y-92287200D02*
X89333333Y-92239580D01*
X89333333Y-92239580D02*
X89333333Y-91906247D01*
X89333333Y-91906247D02*
X89142857Y-91906247D01*
X89714286Y-91430057D02*
X89761905Y-91382438D01*
X89761905Y-91382438D02*
X89857143Y-91334819D01*
X89857143Y-91334819D02*
X90095238Y-91334819D01*
X90095238Y-91334819D02*
X90190476Y-91382438D01*
X90190476Y-91382438D02*
X90238095Y-91430057D01*
X90238095Y-91430057D02*
X90285714Y-91525295D01*
X90285714Y-91525295D02*
X90285714Y-91620533D01*
X90285714Y-91620533D02*
X90238095Y-91763390D01*
X90238095Y-91763390D02*
X89666667Y-92334819D01*
X89666667Y-92334819D02*
X90285714Y-92334819D01*
X84404761Y-63109580D02*
X84357142Y-63157200D01*
X84357142Y-63157200D02*
X84214285Y-63204819D01*
X84214285Y-63204819D02*
X84119047Y-63204819D01*
X84119047Y-63204819D02*
X83976190Y-63157200D01*
X83976190Y-63157200D02*
X83880952Y-63061961D01*
X83880952Y-63061961D02*
X83833333Y-62966723D01*
X83833333Y-62966723D02*
X83785714Y-62776247D01*
X83785714Y-62776247D02*
X83785714Y-62633390D01*
X83785714Y-62633390D02*
X83833333Y-62442914D01*
X83833333Y-62442914D02*
X83880952Y-62347676D01*
X83880952Y-62347676D02*
X83976190Y-62252438D01*
X83976190Y-62252438D02*
X84119047Y-62204819D01*
X84119047Y-62204819D02*
X84214285Y-62204819D01*
X84214285Y-62204819D02*
X84357142Y-62252438D01*
X84357142Y-62252438D02*
X84404761Y-62300057D01*
X84690476Y-62204819D02*
X85023809Y-63204819D01*
X85023809Y-63204819D02*
X85357142Y-62204819D01*
X85595238Y-62204819D02*
X86214285Y-62204819D01*
X86214285Y-62204819D02*
X85880952Y-62585771D01*
X85880952Y-62585771D02*
X86023809Y-62585771D01*
X86023809Y-62585771D02*
X86119047Y-62633390D01*
X86119047Y-62633390D02*
X86166666Y-62681009D01*
X86166666Y-62681009D02*
X86214285Y-62776247D01*
X86214285Y-62776247D02*
X86214285Y-63014342D01*
X86214285Y-63014342D02*
X86166666Y-63109580D01*
X86166666Y-63109580D02*
X86119047Y-63157200D01*
X86119047Y-63157200D02*
X86023809Y-63204819D01*
X86023809Y-63204819D02*
X85738095Y-63204819D01*
X85738095Y-63204819D02*
X85642857Y-63157200D01*
X85642857Y-63157200D02*
X85595238Y-63109580D01*
X83833333Y-56584819D02*
X83833333Y-55584819D01*
X83833333Y-55584819D02*
X84071428Y-55584819D01*
X84071428Y-55584819D02*
X84214285Y-55632438D01*
X84214285Y-55632438D02*
X84309523Y-55727676D01*
X84309523Y-55727676D02*
X84357142Y-55822914D01*
X84357142Y-55822914D02*
X84404761Y-56013390D01*
X84404761Y-56013390D02*
X84404761Y-56156247D01*
X84404761Y-56156247D02*
X84357142Y-56346723D01*
X84357142Y-56346723D02*
X84309523Y-56441961D01*
X84309523Y-56441961D02*
X84214285Y-56537200D01*
X84214285Y-56537200D02*
X84071428Y-56584819D01*
X84071428Y-56584819D02*
X83833333Y-56584819D01*
X84690476Y-55584819D02*
X85023809Y-56584819D01*
X85023809Y-56584819D02*
X85357142Y-55584819D01*
X85595238Y-55584819D02*
X86214285Y-55584819D01*
X86214285Y-55584819D02*
X85880952Y-55965771D01*
X85880952Y-55965771D02*
X86023809Y-55965771D01*
X86023809Y-55965771D02*
X86119047Y-56013390D01*
X86119047Y-56013390D02*
X86166666Y-56061009D01*
X86166666Y-56061009D02*
X86214285Y-56156247D01*
X86214285Y-56156247D02*
X86214285Y-56394342D01*
X86214285Y-56394342D02*
X86166666Y-56489580D01*
X86166666Y-56489580D02*
X86119047Y-56537200D01*
X86119047Y-56537200D02*
X86023809Y-56584819D01*
X86023809Y-56584819D02*
X85738095Y-56584819D01*
X85738095Y-56584819D02*
X85642857Y-56537200D01*
X85642857Y-56537200D02*
X85595238Y-56489580D01*
X80928095Y-56904819D02*
X80928095Y-55904819D01*
X81499523Y-56904819D02*
X81070952Y-56333390D01*
X81499523Y-55904819D02*
X80928095Y-56476247D01*
X98333333Y-89109580D02*
X98285714Y-89157200D01*
X98285714Y-89157200D02*
X98142857Y-89204819D01*
X98142857Y-89204819D02*
X98047619Y-89204819D01*
X98047619Y-89204819D02*
X97904762Y-89157200D01*
X97904762Y-89157200D02*
X97809524Y-89061961D01*
X97809524Y-89061961D02*
X97761905Y-88966723D01*
X97761905Y-88966723D02*
X97714286Y-88776247D01*
X97714286Y-88776247D02*
X97714286Y-88633390D01*
X97714286Y-88633390D02*
X97761905Y-88442914D01*
X97761905Y-88442914D02*
X97809524Y-88347676D01*
X97809524Y-88347676D02*
X97904762Y-88252438D01*
X97904762Y-88252438D02*
X98047619Y-88204819D01*
X98047619Y-88204819D02*
X98142857Y-88204819D01*
X98142857Y-88204819D02*
X98285714Y-88252438D01*
X98285714Y-88252438D02*
X98333333Y-88300057D01*
X98761905Y-89204819D02*
X98761905Y-88204819D01*
X98761905Y-88204819D02*
X99000000Y-88204819D01*
X99000000Y-88204819D02*
X99142857Y-88252438D01*
X99142857Y-88252438D02*
X99238095Y-88347676D01*
X99238095Y-88347676D02*
X99285714Y-88442914D01*
X99285714Y-88442914D02*
X99333333Y-88633390D01*
X99333333Y-88633390D02*
X99333333Y-88776247D01*
X99333333Y-88776247D02*
X99285714Y-88966723D01*
X99285714Y-88966723D02*
X99238095Y-89061961D01*
X99238095Y-89061961D02*
X99142857Y-89157200D01*
X99142857Y-89157200D02*
X99000000Y-89204819D01*
X99000000Y-89204819D02*
X98761905Y-89204819D01*
X99714286Y-88300057D02*
X99761905Y-88252438D01*
X99761905Y-88252438D02*
X99857143Y-88204819D01*
X99857143Y-88204819D02*
X100095238Y-88204819D01*
X100095238Y-88204819D02*
X100190476Y-88252438D01*
X100190476Y-88252438D02*
X100238095Y-88300057D01*
X100238095Y-88300057D02*
X100285714Y-88395295D01*
X100285714Y-88395295D02*
X100285714Y-88490533D01*
X100285714Y-88490533D02*
X100238095Y-88633390D01*
X100238095Y-88633390D02*
X99666667Y-89204819D01*
X99666667Y-89204819D02*
X100285714Y-89204819D01*
X88357142Y-108334819D02*
X88023809Y-107858628D01*
X87785714Y-108334819D02*
X87785714Y-107334819D01*
X87785714Y-107334819D02*
X88166666Y-107334819D01*
X88166666Y-107334819D02*
X88261904Y-107382438D01*
X88261904Y-107382438D02*
X88309523Y-107430057D01*
X88309523Y-107430057D02*
X88357142Y-107525295D01*
X88357142Y-107525295D02*
X88357142Y-107668152D01*
X88357142Y-107668152D02*
X88309523Y-107763390D01*
X88309523Y-107763390D02*
X88261904Y-107811009D01*
X88261904Y-107811009D02*
X88166666Y-107858628D01*
X88166666Y-107858628D02*
X87785714Y-107858628D01*
X88690476Y-107334819D02*
X89309523Y-107334819D01*
X89309523Y-107334819D02*
X88976190Y-107715771D01*
X88976190Y-107715771D02*
X89119047Y-107715771D01*
X89119047Y-107715771D02*
X89214285Y-107763390D01*
X89214285Y-107763390D02*
X89261904Y-107811009D01*
X89261904Y-107811009D02*
X89309523Y-107906247D01*
X89309523Y-107906247D02*
X89309523Y-108144342D01*
X89309523Y-108144342D02*
X89261904Y-108239580D01*
X89261904Y-108239580D02*
X89214285Y-108287200D01*
X89214285Y-108287200D02*
X89119047Y-108334819D01*
X89119047Y-108334819D02*
X88833333Y-108334819D01*
X88833333Y-108334819D02*
X88738095Y-108287200D01*
X88738095Y-108287200D02*
X88690476Y-108239580D01*
X90166666Y-107668152D02*
X90166666Y-108334819D01*
X89928571Y-107287200D02*
X89690476Y-108001485D01*
X89690476Y-108001485D02*
X90309523Y-108001485D01*
X98333333Y-74109580D02*
X98285714Y-74157200D01*
X98285714Y-74157200D02*
X98142857Y-74204819D01*
X98142857Y-74204819D02*
X98047619Y-74204819D01*
X98047619Y-74204819D02*
X97904762Y-74157200D01*
X97904762Y-74157200D02*
X97809524Y-74061961D01*
X97809524Y-74061961D02*
X97761905Y-73966723D01*
X97761905Y-73966723D02*
X97714286Y-73776247D01*
X97714286Y-73776247D02*
X97714286Y-73633390D01*
X97714286Y-73633390D02*
X97761905Y-73442914D01*
X97761905Y-73442914D02*
X97809524Y-73347676D01*
X97809524Y-73347676D02*
X97904762Y-73252438D01*
X97904762Y-73252438D02*
X98047619Y-73204819D01*
X98047619Y-73204819D02*
X98142857Y-73204819D01*
X98142857Y-73204819D02*
X98285714Y-73252438D01*
X98285714Y-73252438D02*
X98333333Y-73300057D01*
X98761905Y-74204819D02*
X98761905Y-73204819D01*
X98761905Y-73204819D02*
X99000000Y-73204819D01*
X99000000Y-73204819D02*
X99142857Y-73252438D01*
X99142857Y-73252438D02*
X99238095Y-73347676D01*
X99238095Y-73347676D02*
X99285714Y-73442914D01*
X99285714Y-73442914D02*
X99333333Y-73633390D01*
X99333333Y-73633390D02*
X99333333Y-73776247D01*
X99333333Y-73776247D02*
X99285714Y-73966723D01*
X99285714Y-73966723D02*
X99238095Y-74061961D01*
X99238095Y-74061961D02*
X99142857Y-74157200D01*
X99142857Y-74157200D02*
X99000000Y-74204819D01*
X99000000Y-74204819D02*
X98761905Y-74204819D01*
X100285714Y-74204819D02*
X99714286Y-74204819D01*
X100000000Y-74204819D02*
X100000000Y-73204819D01*
X100000000Y-73204819D02*
X99904762Y-73347676D01*
X99904762Y-73347676D02*
X99809524Y-73442914D01*
X99809524Y-73442914D02*
X99714286Y-73490533D01*
X84404761Y-49109580D02*
X84357142Y-49157200D01*
X84357142Y-49157200D02*
X84214285Y-49204819D01*
X84214285Y-49204819D02*
X84119047Y-49204819D01*
X84119047Y-49204819D02*
X83976190Y-49157200D01*
X83976190Y-49157200D02*
X83880952Y-49061961D01*
X83880952Y-49061961D02*
X83833333Y-48966723D01*
X83833333Y-48966723D02*
X83785714Y-48776247D01*
X83785714Y-48776247D02*
X83785714Y-48633390D01*
X83785714Y-48633390D02*
X83833333Y-48442914D01*
X83833333Y-48442914D02*
X83880952Y-48347676D01*
X83880952Y-48347676D02*
X83976190Y-48252438D01*
X83976190Y-48252438D02*
X84119047Y-48204819D01*
X84119047Y-48204819D02*
X84214285Y-48204819D01*
X84214285Y-48204819D02*
X84357142Y-48252438D01*
X84357142Y-48252438D02*
X84404761Y-48300057D01*
X84690476Y-48204819D02*
X85023809Y-49204819D01*
X85023809Y-49204819D02*
X85357142Y-48204819D01*
X85642857Y-48300057D02*
X85690476Y-48252438D01*
X85690476Y-48252438D02*
X85785714Y-48204819D01*
X85785714Y-48204819D02*
X86023809Y-48204819D01*
X86023809Y-48204819D02*
X86119047Y-48252438D01*
X86119047Y-48252438D02*
X86166666Y-48300057D01*
X86166666Y-48300057D02*
X86214285Y-48395295D01*
X86214285Y-48395295D02*
X86214285Y-48490533D01*
X86214285Y-48490533D02*
X86166666Y-48633390D01*
X86166666Y-48633390D02*
X85595238Y-49204819D01*
X85595238Y-49204819D02*
X86214285Y-49204819D01*
X88333333Y-77334819D02*
X88000000Y-76858628D01*
X87761905Y-77334819D02*
X87761905Y-76334819D01*
X87761905Y-76334819D02*
X88142857Y-76334819D01*
X88142857Y-76334819D02*
X88238095Y-76382438D01*
X88238095Y-76382438D02*
X88285714Y-76430057D01*
X88285714Y-76430057D02*
X88333333Y-76525295D01*
X88333333Y-76525295D02*
X88333333Y-76668152D01*
X88333333Y-76668152D02*
X88285714Y-76763390D01*
X88285714Y-76763390D02*
X88238095Y-76811009D01*
X88238095Y-76811009D02*
X88142857Y-76858628D01*
X88142857Y-76858628D02*
X87761905Y-76858628D01*
X89285714Y-76382438D02*
X89190476Y-76334819D01*
X89190476Y-76334819D02*
X89047619Y-76334819D01*
X89047619Y-76334819D02*
X88904762Y-76382438D01*
X88904762Y-76382438D02*
X88809524Y-76477676D01*
X88809524Y-76477676D02*
X88761905Y-76572914D01*
X88761905Y-76572914D02*
X88714286Y-76763390D01*
X88714286Y-76763390D02*
X88714286Y-76906247D01*
X88714286Y-76906247D02*
X88761905Y-77096723D01*
X88761905Y-77096723D02*
X88809524Y-77191961D01*
X88809524Y-77191961D02*
X88904762Y-77287200D01*
X88904762Y-77287200D02*
X89047619Y-77334819D01*
X89047619Y-77334819D02*
X89142857Y-77334819D01*
X89142857Y-77334819D02*
X89285714Y-77287200D01*
X89285714Y-77287200D02*
X89333333Y-77239580D01*
X89333333Y-77239580D02*
X89333333Y-76906247D01*
X89333333Y-76906247D02*
X89142857Y-76906247D01*
X90285714Y-77334819D02*
X89714286Y-77334819D01*
X90000000Y-77334819D02*
X90000000Y-76334819D01*
X90000000Y-76334819D02*
X89904762Y-76477676D01*
X89904762Y-76477676D02*
X89809524Y-76572914D01*
X89809524Y-76572914D02*
X89714286Y-76620533D01*
X36190476Y-110784819D02*
X36190476Y-111499104D01*
X36190476Y-111499104D02*
X36142857Y-111641961D01*
X36142857Y-111641961D02*
X36047619Y-111737200D01*
X36047619Y-111737200D02*
X35904762Y-111784819D01*
X35904762Y-111784819D02*
X35809524Y-111784819D01*
X37190476Y-111784819D02*
X36619048Y-111784819D01*
X36904762Y-111784819D02*
X36904762Y-110784819D01*
X36904762Y-110784819D02*
X36809524Y-110927676D01*
X36809524Y-110927676D02*
X36714286Y-111022914D01*
X36714286Y-111022914D02*
X36619048Y-111070533D01*
X38142857Y-111784819D02*
X37571429Y-111784819D01*
X37857143Y-111784819D02*
X37857143Y-110784819D01*
X37857143Y-110784819D02*
X37761905Y-110927676D01*
X37761905Y-110927676D02*
X37666667Y-111022914D01*
X37666667Y-111022914D02*
X37571429Y-111070533D01*
X106666666Y-72624819D02*
X106666666Y-73339104D01*
X106666666Y-73339104D02*
X106619047Y-73481961D01*
X106619047Y-73481961D02*
X106523809Y-73577200D01*
X106523809Y-73577200D02*
X106380952Y-73624819D01*
X106380952Y-73624819D02*
X106285714Y-73624819D01*
X107571428Y-72958152D02*
X107571428Y-73624819D01*
X107333333Y-72577200D02*
X107095238Y-73291485D01*
X107095238Y-73291485D02*
X107714285Y-73291485D01*
X106666666Y-85624819D02*
X106666666Y-86339104D01*
X106666666Y-86339104D02*
X106619047Y-86481961D01*
X106619047Y-86481961D02*
X106523809Y-86577200D01*
X106523809Y-86577200D02*
X106380952Y-86624819D01*
X106380952Y-86624819D02*
X106285714Y-86624819D01*
X107571428Y-85624819D02*
X107380952Y-85624819D01*
X107380952Y-85624819D02*
X107285714Y-85672438D01*
X107285714Y-85672438D02*
X107238095Y-85720057D01*
X107238095Y-85720057D02*
X107142857Y-85862914D01*
X107142857Y-85862914D02*
X107095238Y-86053390D01*
X107095238Y-86053390D02*
X107095238Y-86434342D01*
X107095238Y-86434342D02*
X107142857Y-86529580D01*
X107142857Y-86529580D02*
X107190476Y-86577200D01*
X107190476Y-86577200D02*
X107285714Y-86624819D01*
X107285714Y-86624819D02*
X107476190Y-86624819D01*
X107476190Y-86624819D02*
X107571428Y-86577200D01*
X107571428Y-86577200D02*
X107619047Y-86529580D01*
X107619047Y-86529580D02*
X107666666Y-86434342D01*
X107666666Y-86434342D02*
X107666666Y-86196247D01*
X107666666Y-86196247D02*
X107619047Y-86101009D01*
X107619047Y-86101009D02*
X107571428Y-86053390D01*
X107571428Y-86053390D02*
X107476190Y-86005771D01*
X107476190Y-86005771D02*
X107285714Y-86005771D01*
X107285714Y-86005771D02*
X107190476Y-86053390D01*
X107190476Y-86053390D02*
X107142857Y-86101009D01*
X107142857Y-86101009D02*
X107095238Y-86196247D01*
X88333333Y-114109580D02*
X88285714Y-114157200D01*
X88285714Y-114157200D02*
X88142857Y-114204819D01*
X88142857Y-114204819D02*
X88047619Y-114204819D01*
X88047619Y-114204819D02*
X87904762Y-114157200D01*
X87904762Y-114157200D02*
X87809524Y-114061961D01*
X87809524Y-114061961D02*
X87761905Y-113966723D01*
X87761905Y-113966723D02*
X87714286Y-113776247D01*
X87714286Y-113776247D02*
X87714286Y-113633390D01*
X87714286Y-113633390D02*
X87761905Y-113442914D01*
X87761905Y-113442914D02*
X87809524Y-113347676D01*
X87809524Y-113347676D02*
X87904762Y-113252438D01*
X87904762Y-113252438D02*
X88047619Y-113204819D01*
X88047619Y-113204819D02*
X88142857Y-113204819D01*
X88142857Y-113204819D02*
X88285714Y-113252438D01*
X88285714Y-113252438D02*
X88333333Y-113300057D01*
X88761905Y-114204819D02*
X88761905Y-113204819D01*
X88761905Y-113204819D02*
X89000000Y-113204819D01*
X89000000Y-113204819D02*
X89142857Y-113252438D01*
X89142857Y-113252438D02*
X89238095Y-113347676D01*
X89238095Y-113347676D02*
X89285714Y-113442914D01*
X89285714Y-113442914D02*
X89333333Y-113633390D01*
X89333333Y-113633390D02*
X89333333Y-113776247D01*
X89333333Y-113776247D02*
X89285714Y-113966723D01*
X89285714Y-113966723D02*
X89238095Y-114061961D01*
X89238095Y-114061961D02*
X89142857Y-114157200D01*
X89142857Y-114157200D02*
X89000000Y-114204819D01*
X89000000Y-114204819D02*
X88761905Y-114204819D01*
X89666667Y-113204819D02*
X90285714Y-113204819D01*
X90285714Y-113204819D02*
X89952381Y-113585771D01*
X89952381Y-113585771D02*
X90095238Y-113585771D01*
X90095238Y-113585771D02*
X90190476Y-113633390D01*
X90190476Y-113633390D02*
X90238095Y-113681009D01*
X90238095Y-113681009D02*
X90285714Y-113776247D01*
X90285714Y-113776247D02*
X90285714Y-114014342D01*
X90285714Y-114014342D02*
X90238095Y-114109580D01*
X90238095Y-114109580D02*
X90190476Y-114157200D01*
X90190476Y-114157200D02*
X90095238Y-114204819D01*
X90095238Y-114204819D02*
X89809524Y-114204819D01*
X89809524Y-114204819D02*
X89714286Y-114157200D01*
X89714286Y-114157200D02*
X89666667Y-114109580D01*
X88357142Y-100334819D02*
X88023809Y-99858628D01*
X87785714Y-100334819D02*
X87785714Y-99334819D01*
X87785714Y-99334819D02*
X88166666Y-99334819D01*
X88166666Y-99334819D02*
X88261904Y-99382438D01*
X88261904Y-99382438D02*
X88309523Y-99430057D01*
X88309523Y-99430057D02*
X88357142Y-99525295D01*
X88357142Y-99525295D02*
X88357142Y-99668152D01*
X88357142Y-99668152D02*
X88309523Y-99763390D01*
X88309523Y-99763390D02*
X88261904Y-99811009D01*
X88261904Y-99811009D02*
X88166666Y-99858628D01*
X88166666Y-99858628D02*
X87785714Y-99858628D01*
X88690476Y-99334819D02*
X89309523Y-99334819D01*
X89309523Y-99334819D02*
X88976190Y-99715771D01*
X88976190Y-99715771D02*
X89119047Y-99715771D01*
X89119047Y-99715771D02*
X89214285Y-99763390D01*
X89214285Y-99763390D02*
X89261904Y-99811009D01*
X89261904Y-99811009D02*
X89309523Y-99906247D01*
X89309523Y-99906247D02*
X89309523Y-100144342D01*
X89309523Y-100144342D02*
X89261904Y-100239580D01*
X89261904Y-100239580D02*
X89214285Y-100287200D01*
X89214285Y-100287200D02*
X89119047Y-100334819D01*
X89119047Y-100334819D02*
X88833333Y-100334819D01*
X88833333Y-100334819D02*
X88738095Y-100287200D01*
X88738095Y-100287200D02*
X88690476Y-100239580D01*
X89690476Y-99430057D02*
X89738095Y-99382438D01*
X89738095Y-99382438D02*
X89833333Y-99334819D01*
X89833333Y-99334819D02*
X90071428Y-99334819D01*
X90071428Y-99334819D02*
X90166666Y-99382438D01*
X90166666Y-99382438D02*
X90214285Y-99430057D01*
X90214285Y-99430057D02*
X90261904Y-99525295D01*
X90261904Y-99525295D02*
X90261904Y-99620533D01*
X90261904Y-99620533D02*
X90214285Y-99763390D01*
X90214285Y-99763390D02*
X89642857Y-100334819D01*
X89642857Y-100334819D02*
X90261904Y-100334819D01*
X70809523Y-114109580D02*
X70761904Y-114157200D01*
X70761904Y-114157200D02*
X70619047Y-114204819D01*
X70619047Y-114204819D02*
X70523809Y-114204819D01*
X70523809Y-114204819D02*
X70380952Y-114157200D01*
X70380952Y-114157200D02*
X70285714Y-114061961D01*
X70285714Y-114061961D02*
X70238095Y-113966723D01*
X70238095Y-113966723D02*
X70190476Y-113776247D01*
X70190476Y-113776247D02*
X70190476Y-113633390D01*
X70190476Y-113633390D02*
X70238095Y-113442914D01*
X70238095Y-113442914D02*
X70285714Y-113347676D01*
X70285714Y-113347676D02*
X70380952Y-113252438D01*
X70380952Y-113252438D02*
X70523809Y-113204819D01*
X70523809Y-113204819D02*
X70619047Y-113204819D01*
X70619047Y-113204819D02*
X70761904Y-113252438D01*
X70761904Y-113252438D02*
X70809523Y-113300057D01*
X71571428Y-113681009D02*
X71714285Y-113728628D01*
X71714285Y-113728628D02*
X71761904Y-113776247D01*
X71761904Y-113776247D02*
X71809523Y-113871485D01*
X71809523Y-113871485D02*
X71809523Y-114014342D01*
X71809523Y-114014342D02*
X71761904Y-114109580D01*
X71761904Y-114109580D02*
X71714285Y-114157200D01*
X71714285Y-114157200D02*
X71619047Y-114204819D01*
X71619047Y-114204819D02*
X71238095Y-114204819D01*
X71238095Y-114204819D02*
X71238095Y-113204819D01*
X71238095Y-113204819D02*
X71571428Y-113204819D01*
X71571428Y-113204819D02*
X71666666Y-113252438D01*
X71666666Y-113252438D02*
X71714285Y-113300057D01*
X71714285Y-113300057D02*
X71761904Y-113395295D01*
X71761904Y-113395295D02*
X71761904Y-113490533D01*
X71761904Y-113490533D02*
X71714285Y-113585771D01*
X71714285Y-113585771D02*
X71666666Y-113633390D01*
X71666666Y-113633390D02*
X71571428Y-113681009D01*
X71571428Y-113681009D02*
X71238095Y-113681009D01*
X36666666Y-95784819D02*
X36666666Y-96499104D01*
X36666666Y-96499104D02*
X36619047Y-96641961D01*
X36619047Y-96641961D02*
X36523809Y-96737200D01*
X36523809Y-96737200D02*
X36380952Y-96784819D01*
X36380952Y-96784819D02*
X36285714Y-96784819D01*
X37190476Y-96784819D02*
X37380952Y-96784819D01*
X37380952Y-96784819D02*
X37476190Y-96737200D01*
X37476190Y-96737200D02*
X37523809Y-96689580D01*
X37523809Y-96689580D02*
X37619047Y-96546723D01*
X37619047Y-96546723D02*
X37666666Y-96356247D01*
X37666666Y-96356247D02*
X37666666Y-95975295D01*
X37666666Y-95975295D02*
X37619047Y-95880057D01*
X37619047Y-95880057D02*
X37571428Y-95832438D01*
X37571428Y-95832438D02*
X37476190Y-95784819D01*
X37476190Y-95784819D02*
X37285714Y-95784819D01*
X37285714Y-95784819D02*
X37190476Y-95832438D01*
X37190476Y-95832438D02*
X37142857Y-95880057D01*
X37142857Y-95880057D02*
X37095238Y-95975295D01*
X37095238Y-95975295D02*
X37095238Y-96213390D01*
X37095238Y-96213390D02*
X37142857Y-96308628D01*
X37142857Y-96308628D02*
X37190476Y-96356247D01*
X37190476Y-96356247D02*
X37285714Y-96403866D01*
X37285714Y-96403866D02*
X37476190Y-96403866D01*
X37476190Y-96403866D02*
X37571428Y-96356247D01*
X37571428Y-96356247D02*
X37619047Y-96308628D01*
X37619047Y-96308628D02*
X37666666Y-96213390D01*
X67928571Y-42334819D02*
X67595238Y-41858628D01*
X67357143Y-42334819D02*
X67357143Y-41334819D01*
X67357143Y-41334819D02*
X67738095Y-41334819D01*
X67738095Y-41334819D02*
X67833333Y-41382438D01*
X67833333Y-41382438D02*
X67880952Y-41430057D01*
X67880952Y-41430057D02*
X67928571Y-41525295D01*
X67928571Y-41525295D02*
X67928571Y-41668152D01*
X67928571Y-41668152D02*
X67880952Y-41763390D01*
X67880952Y-41763390D02*
X67833333Y-41811009D01*
X67833333Y-41811009D02*
X67738095Y-41858628D01*
X67738095Y-41858628D02*
X67357143Y-41858628D01*
X68214286Y-41334819D02*
X68547619Y-42334819D01*
X68547619Y-42334819D02*
X68880952Y-41334819D01*
X69166667Y-41430057D02*
X69214286Y-41382438D01*
X69214286Y-41382438D02*
X69309524Y-41334819D01*
X69309524Y-41334819D02*
X69547619Y-41334819D01*
X69547619Y-41334819D02*
X69642857Y-41382438D01*
X69642857Y-41382438D02*
X69690476Y-41430057D01*
X69690476Y-41430057D02*
X69738095Y-41525295D01*
X69738095Y-41525295D02*
X69738095Y-41620533D01*
X69738095Y-41620533D02*
X69690476Y-41763390D01*
X69690476Y-41763390D02*
X69119048Y-42334819D01*
X69119048Y-42334819D02*
X69738095Y-42334819D01*
X70071429Y-41334819D02*
X70690476Y-41334819D01*
X70690476Y-41334819D02*
X70357143Y-41715771D01*
X70357143Y-41715771D02*
X70500000Y-41715771D01*
X70500000Y-41715771D02*
X70595238Y-41763390D01*
X70595238Y-41763390D02*
X70642857Y-41811009D01*
X70642857Y-41811009D02*
X70690476Y-41906247D01*
X70690476Y-41906247D02*
X70690476Y-42144342D01*
X70690476Y-42144342D02*
X70642857Y-42239580D01*
X70642857Y-42239580D02*
X70595238Y-42287200D01*
X70595238Y-42287200D02*
X70500000Y-42334819D01*
X70500000Y-42334819D02*
X70214286Y-42334819D01*
X70214286Y-42334819D02*
X70119048Y-42287200D01*
X70119048Y-42287200D02*
X70071429Y-42239580D01*
X51928571Y-28334819D02*
X51595238Y-27858628D01*
X51357143Y-28334819D02*
X51357143Y-27334819D01*
X51357143Y-27334819D02*
X51738095Y-27334819D01*
X51738095Y-27334819D02*
X51833333Y-27382438D01*
X51833333Y-27382438D02*
X51880952Y-27430057D01*
X51880952Y-27430057D02*
X51928571Y-27525295D01*
X51928571Y-27525295D02*
X51928571Y-27668152D01*
X51928571Y-27668152D02*
X51880952Y-27763390D01*
X51880952Y-27763390D02*
X51833333Y-27811009D01*
X51833333Y-27811009D02*
X51738095Y-27858628D01*
X51738095Y-27858628D02*
X51357143Y-27858628D01*
X52214286Y-27334819D02*
X52547619Y-28334819D01*
X52547619Y-28334819D02*
X52880952Y-27334819D01*
X53738095Y-28334819D02*
X53166667Y-28334819D01*
X53452381Y-28334819D02*
X53452381Y-27334819D01*
X53452381Y-27334819D02*
X53357143Y-27477676D01*
X53357143Y-27477676D02*
X53261905Y-27572914D01*
X53261905Y-27572914D02*
X53166667Y-27620533D01*
X54690476Y-28334819D02*
X54119048Y-28334819D01*
X54404762Y-28334819D02*
X54404762Y-27334819D01*
X54404762Y-27334819D02*
X54309524Y-27477676D01*
X54309524Y-27477676D02*
X54214286Y-27572914D01*
X54214286Y-27572914D02*
X54119048Y-27620533D01*
X53833333Y-104334819D02*
X53500000Y-103858628D01*
X53261905Y-104334819D02*
X53261905Y-103334819D01*
X53261905Y-103334819D02*
X53642857Y-103334819D01*
X53642857Y-103334819D02*
X53738095Y-103382438D01*
X53738095Y-103382438D02*
X53785714Y-103430057D01*
X53785714Y-103430057D02*
X53833333Y-103525295D01*
X53833333Y-103525295D02*
X53833333Y-103668152D01*
X53833333Y-103668152D02*
X53785714Y-103763390D01*
X53785714Y-103763390D02*
X53738095Y-103811009D01*
X53738095Y-103811009D02*
X53642857Y-103858628D01*
X53642857Y-103858628D02*
X53261905Y-103858628D01*
X54214286Y-104287200D02*
X54357143Y-104334819D01*
X54357143Y-104334819D02*
X54595238Y-104334819D01*
X54595238Y-104334819D02*
X54690476Y-104287200D01*
X54690476Y-104287200D02*
X54738095Y-104239580D01*
X54738095Y-104239580D02*
X54785714Y-104144342D01*
X54785714Y-104144342D02*
X54785714Y-104049104D01*
X54785714Y-104049104D02*
X54738095Y-103953866D01*
X54738095Y-103953866D02*
X54690476Y-103906247D01*
X54690476Y-103906247D02*
X54595238Y-103858628D01*
X54595238Y-103858628D02*
X54404762Y-103811009D01*
X54404762Y-103811009D02*
X54309524Y-103763390D01*
X54309524Y-103763390D02*
X54261905Y-103715771D01*
X54261905Y-103715771D02*
X54214286Y-103620533D01*
X54214286Y-103620533D02*
X54214286Y-103525295D01*
X54214286Y-103525295D02*
X54261905Y-103430057D01*
X54261905Y-103430057D02*
X54309524Y-103382438D01*
X54309524Y-103382438D02*
X54404762Y-103334819D01*
X54404762Y-103334819D02*
X54642857Y-103334819D01*
X54642857Y-103334819D02*
X54785714Y-103382438D01*
X55214286Y-104334819D02*
X55214286Y-103334819D01*
X55214286Y-103811009D02*
X55785714Y-103811009D01*
X55785714Y-104334819D02*
X55785714Y-103334819D01*
X56166667Y-103334819D02*
X56785714Y-103334819D01*
X56785714Y-103334819D02*
X56452381Y-103715771D01*
X56452381Y-103715771D02*
X56595238Y-103715771D01*
X56595238Y-103715771D02*
X56690476Y-103763390D01*
X56690476Y-103763390D02*
X56738095Y-103811009D01*
X56738095Y-103811009D02*
X56785714Y-103906247D01*
X56785714Y-103906247D02*
X56785714Y-104144342D01*
X56785714Y-104144342D02*
X56738095Y-104239580D01*
X56738095Y-104239580D02*
X56690476Y-104287200D01*
X56690476Y-104287200D02*
X56595238Y-104334819D01*
X56595238Y-104334819D02*
X56309524Y-104334819D01*
X56309524Y-104334819D02*
X56214286Y-104287200D01*
X56214286Y-104287200D02*
X56166667Y-104239580D01*
D11*
%TO.C,RPWM*%
X93730000Y-47880000D02*
X100270000Y-47880000D01*
X93730000Y-48210000D02*
X93730000Y-47880000D01*
X93730000Y-50290000D02*
X93730000Y-50620000D01*
X93730000Y-50620000D02*
X100270000Y-50620000D01*
X100270000Y-47880000D02*
X100270000Y-48210000D01*
X100270000Y-50620000D02*
X100270000Y-50290000D01*
%TO.C,RV13*%
X65730000Y-28880000D02*
X72270000Y-28880000D01*
X65730000Y-29210000D02*
X65730000Y-28880000D01*
X65730000Y-31290000D02*
X65730000Y-31620000D01*
X65730000Y-31620000D02*
X72270000Y-31620000D01*
X72270000Y-28880000D02*
X72270000Y-29210000D01*
X72270000Y-31620000D02*
X72270000Y-31290000D01*
%TO.C,J5*%
X31920000Y-54440000D02*
X31920000Y-62060000D01*
X31920000Y-55710000D02*
X42080000Y-55710000D01*
X31920000Y-62060000D02*
X42080000Y-62060000D01*
X42080000Y-54440000D02*
X31920000Y-54440000D01*
X42080000Y-62060000D02*
X42080000Y-54440000D01*
%TO.C,U2*%
X68750000Y-86110000D02*
X68750000Y-96390000D01*
X68750000Y-96390000D02*
X73250000Y-96390000D01*
X70000000Y-86110000D02*
X68750000Y-86110000D01*
X73250000Y-86110000D02*
X72000000Y-86110000D01*
X73250000Y-96390000D02*
X73250000Y-86110000D01*
X72000000Y-86110000D02*
G75*
G02*
X70000000Y-86110000I-1000000J0D01*
G01*
%TO.C,RV33*%
X65730000Y-56880000D02*
X72270000Y-56880000D01*
X65730000Y-57210000D02*
X65730000Y-56880000D01*
X65730000Y-59290000D02*
X65730000Y-59620000D01*
X65730000Y-59620000D02*
X72270000Y-59620000D01*
X72270000Y-56880000D02*
X72270000Y-57210000D01*
X72270000Y-59620000D02*
X72270000Y-59290000D01*
%TO.C,J8*%
X105620000Y-43255000D02*
X105620000Y-40605000D01*
X108380000Y-40605000D02*
X105620000Y-40605000D01*
X108380000Y-43255000D02*
X105620000Y-43255000D01*
X108380000Y-43255000D02*
X108380000Y-40605000D01*
X108380000Y-44525000D02*
X108380000Y-45905000D01*
X108380000Y-45905000D02*
X107000000Y-45905000D01*
%TO.C,J10*%
X101920000Y-27440000D02*
X101920000Y-35060000D01*
X101920000Y-28710000D02*
X112080000Y-28710000D01*
X101920000Y-35060000D02*
X112080000Y-35060000D01*
X112080000Y-27440000D02*
X101920000Y-27440000D01*
X112080000Y-35060000D02*
X112080000Y-27440000D01*
%TO.C,RF1*%
X85730000Y-69880000D02*
X92270000Y-69880000D01*
X85730000Y-70210000D02*
X85730000Y-69880000D01*
X85730000Y-72290000D02*
X85730000Y-72620000D01*
X85730000Y-72620000D02*
X92270000Y-72620000D01*
X92270000Y-69880000D02*
X92270000Y-70210000D01*
X92270000Y-72620000D02*
X92270000Y-72290000D01*
%TO.C,R31*%
X51730000Y-96880000D02*
X58270000Y-96880000D01*
X51730000Y-97210000D02*
X51730000Y-96880000D01*
X51730000Y-99290000D02*
X51730000Y-99620000D01*
X51730000Y-99620000D02*
X58270000Y-99620000D01*
X58270000Y-96880000D02*
X58270000Y-97210000D01*
X58270000Y-99620000D02*
X58270000Y-99290000D01*
%TO.C,RV12*%
X49730000Y-35880000D02*
X56270000Y-35880000D01*
X49730000Y-36210000D02*
X49730000Y-35880000D01*
X49730000Y-38290000D02*
X49730000Y-38620000D01*
X49730000Y-38620000D02*
X56270000Y-38620000D01*
X56270000Y-35880000D02*
X56270000Y-36210000D01*
X56270000Y-38620000D02*
X56270000Y-38290000D01*
%TO.C,J1*%
X31920000Y-26440000D02*
X31920000Y-34060000D01*
X31920000Y-27710000D02*
X42080000Y-27710000D01*
X31920000Y-34060000D02*
X42080000Y-34060000D01*
X42080000Y-26440000D02*
X31920000Y-26440000D01*
X42080000Y-34060000D02*
X42080000Y-26440000D01*
%TO.C,RSH1*%
X51730000Y-74880000D02*
X58270000Y-74880000D01*
X51730000Y-75210000D02*
X51730000Y-74880000D01*
X51730000Y-77290000D02*
X51730000Y-77620000D01*
X51730000Y-77620000D02*
X58270000Y-77620000D01*
X58270000Y-74880000D02*
X58270000Y-75210000D01*
X58270000Y-77620000D02*
X58270000Y-77290000D01*
%TO.C,RB2*%
X99730000Y-108880000D02*
X106270000Y-108880000D01*
X99730000Y-109210000D02*
X99730000Y-108880000D01*
X99730000Y-111290000D02*
X99730000Y-111620000D01*
X99730000Y-111620000D02*
X106270000Y-111620000D01*
X106270000Y-108880000D02*
X106270000Y-109210000D01*
X106270000Y-111620000D02*
X106270000Y-111290000D01*
%TO.C,RV21*%
X49730000Y-42880000D02*
X56270000Y-42880000D01*
X49730000Y-43210000D02*
X49730000Y-42880000D01*
X49730000Y-45290000D02*
X49730000Y-45620000D01*
X49730000Y-45620000D02*
X56270000Y-45620000D01*
X56270000Y-42880000D02*
X56270000Y-43210000D01*
X56270000Y-45620000D02*
X56270000Y-45290000D01*
%TO.C,DV1*%
X82230000Y-30250000D02*
X82880000Y-30250000D01*
X83480000Y-29130000D02*
X83480000Y-31370000D01*
X83600000Y-29130000D02*
X83600000Y-31370000D01*
X83720000Y-29130000D02*
X83720000Y-31370000D01*
X87770000Y-30250000D02*
X87120000Y-30250000D01*
X82880000Y-29130000D02*
X87120000Y-29130000D01*
X87120000Y-31370000D01*
X82880000Y-31370000D01*
X82880000Y-29130000D01*
%TO.C,J7*%
X31920000Y-72440000D02*
X31920000Y-80060000D01*
X31920000Y-73710000D02*
X42080000Y-73710000D01*
X31920000Y-80060000D02*
X42080000Y-80060000D01*
X42080000Y-72440000D02*
X31920000Y-72440000D01*
X42080000Y-80060000D02*
X42080000Y-72440000D01*
%TO.C,U3*%
X68750000Y-101110000D02*
X68750000Y-111390000D01*
X68750000Y-111390000D02*
X73250000Y-111390000D01*
X70000000Y-101110000D02*
X68750000Y-101110000D01*
X73250000Y-101110000D02*
X72000000Y-101110000D01*
X73250000Y-111390000D02*
X73250000Y-101110000D01*
X72000000Y-101110000D02*
G75*
G02*
X70000000Y-101110000I-1000000J0D01*
G01*
%TO.C,U1*%
X68750000Y-71110000D02*
X68750000Y-81390000D01*
X68750000Y-81390000D02*
X73250000Y-81390000D01*
X70000000Y-71110000D02*
X68750000Y-71110000D01*
X73250000Y-71110000D02*
X72000000Y-71110000D01*
X73250000Y-81390000D02*
X73250000Y-71110000D01*
X72000000Y-71110000D02*
G75*
G02*
X70000000Y-71110000I-1000000J0D01*
G01*
%TO.C,CV1*%
X82380000Y-35880000D02*
X87620000Y-35880000D01*
X82380000Y-36217000D02*
X82380000Y-35880000D01*
X82380000Y-38620000D02*
X82380000Y-38283000D01*
X87620000Y-35880000D02*
X87620000Y-36217000D01*
X87620000Y-38283000D02*
X87620000Y-38620000D01*
X87620000Y-38620000D02*
X82380000Y-38620000D01*
%TO.C,RSH2*%
X51730000Y-89880000D02*
X58270000Y-89880000D01*
X51730000Y-90210000D02*
X51730000Y-89880000D01*
X51730000Y-92290000D02*
X51730000Y-92620000D01*
X51730000Y-92620000D02*
X58270000Y-92620000D01*
X58270000Y-89880000D02*
X58270000Y-90210000D01*
X58270000Y-92620000D02*
X58270000Y-92290000D01*
%TO.C,RB1*%
X99730000Y-100880000D02*
X106270000Y-100880000D01*
X99730000Y-101210000D02*
X99730000Y-100880000D01*
X99730000Y-103290000D02*
X99730000Y-103620000D01*
X99730000Y-103620000D02*
X106270000Y-103620000D01*
X106270000Y-100880000D02*
X106270000Y-101210000D01*
X106270000Y-103620000D02*
X106270000Y-103290000D01*
%TO.C,R33*%
X51730000Y-112880000D02*
X58270000Y-112880000D01*
X51730000Y-113210000D02*
X51730000Y-112880000D01*
X51730000Y-115290000D02*
X51730000Y-115620000D01*
X51730000Y-115620000D02*
X58270000Y-115620000D01*
X58270000Y-112880000D02*
X58270000Y-113210000D01*
X58270000Y-115620000D02*
X58270000Y-115290000D01*
%TO.C,RV22*%
X49730000Y-49880000D02*
X56270000Y-49880000D01*
X49730000Y-50210000D02*
X49730000Y-49880000D01*
X49730000Y-52290000D02*
X49730000Y-52620000D01*
X49730000Y-52620000D02*
X56270000Y-52620000D01*
X56270000Y-49880000D02*
X56270000Y-50210000D01*
X56270000Y-52620000D02*
X56270000Y-52290000D01*
%TO.C,J3*%
X31920000Y-40440000D02*
X31920000Y-48060000D01*
X31920000Y-41710000D02*
X42080000Y-41710000D01*
X31920000Y-48060000D02*
X42080000Y-48060000D01*
X42080000Y-40440000D02*
X31920000Y-40440000D01*
X42080000Y-48060000D02*
X42080000Y-40440000D01*
%TO.C,RV32*%
X49730000Y-63880000D02*
X56270000Y-63880000D01*
X49730000Y-64210000D02*
X49730000Y-63880000D01*
X49730000Y-66290000D02*
X49730000Y-66620000D01*
X49730000Y-66620000D02*
X56270000Y-66620000D01*
X56270000Y-63880000D02*
X56270000Y-64210000D01*
X56270000Y-66620000D02*
X56270000Y-66290000D01*
%TO.C,RV31*%
X49730000Y-56880000D02*
X56270000Y-56880000D01*
X49730000Y-57210000D02*
X49730000Y-56880000D01*
X49730000Y-59290000D02*
X49730000Y-59620000D01*
X49730000Y-59620000D02*
X56270000Y-59620000D01*
X56270000Y-56880000D02*
X56270000Y-57210000D01*
X56270000Y-59620000D02*
X56270000Y-59290000D01*
%TO.C,J2*%
X105620000Y-56255000D02*
X105620000Y-53605000D01*
X108380000Y-53605000D02*
X105620000Y-53605000D01*
X108380000Y-56255000D02*
X105620000Y-56255000D01*
X108380000Y-56255000D02*
X108380000Y-53605000D01*
X108380000Y-57525000D02*
X108380000Y-58905000D01*
X108380000Y-58905000D02*
X107000000Y-58905000D01*
%TO.C,DV2*%
X82230000Y-44250000D02*
X82880000Y-44250000D01*
X83480000Y-43130000D02*
X83480000Y-45370000D01*
X83600000Y-43130000D02*
X83600000Y-45370000D01*
X83720000Y-43130000D02*
X83720000Y-45370000D01*
X87770000Y-44250000D02*
X87120000Y-44250000D01*
X82880000Y-43130000D02*
X87120000Y-43130000D01*
X87120000Y-45370000D01*
X82880000Y-45370000D01*
X82880000Y-43130000D01*
%TO.C,RF2*%
X85730000Y-84880000D02*
X92270000Y-84880000D01*
X85730000Y-85210000D02*
X85730000Y-84880000D01*
X85730000Y-87290000D02*
X85730000Y-87620000D01*
X85730000Y-87620000D02*
X92270000Y-87620000D01*
X92270000Y-84880000D02*
X92270000Y-85210000D01*
X92270000Y-87620000D02*
X92270000Y-87290000D01*
%TO.C,RG2*%
X85730000Y-92880000D02*
X92270000Y-92880000D01*
X85730000Y-93210000D02*
X85730000Y-92880000D01*
X85730000Y-95290000D02*
X85730000Y-95620000D01*
X85730000Y-95620000D02*
X92270000Y-95620000D01*
X92270000Y-92880000D02*
X92270000Y-93210000D01*
X92270000Y-95620000D02*
X92270000Y-95290000D01*
%TO.C,CV3*%
X82380000Y-63880000D02*
X87620000Y-63880000D01*
X82380000Y-64217000D02*
X82380000Y-63880000D01*
X82380000Y-66620000D02*
X82380000Y-66283000D01*
X87620000Y-63880000D02*
X87620000Y-64217000D01*
X87620000Y-66283000D02*
X87620000Y-66620000D01*
X87620000Y-66620000D02*
X82380000Y-66620000D01*
%TO.C,DV3*%
X82230000Y-58250000D02*
X82880000Y-58250000D01*
X83480000Y-57130000D02*
X83480000Y-59370000D01*
X83600000Y-57130000D02*
X83600000Y-59370000D01*
X83720000Y-57130000D02*
X83720000Y-59370000D01*
X87770000Y-58250000D02*
X87120000Y-58250000D01*
X82880000Y-57130000D02*
X87120000Y-57130000D01*
X87120000Y-59370000D01*
X82880000Y-59370000D01*
X82880000Y-57130000D01*
%TO.C,CD2*%
X96380000Y-89880000D02*
X101620000Y-89880000D01*
X96380000Y-90217000D02*
X96380000Y-89880000D01*
X96380000Y-92620000D02*
X96380000Y-92283000D01*
X101620000Y-89880000D02*
X101620000Y-90217000D01*
X101620000Y-92283000D02*
X101620000Y-92620000D01*
X101620000Y-92620000D02*
X96380000Y-92620000D01*
%TO.C,R34*%
X85730000Y-108880000D02*
X92270000Y-108880000D01*
X85730000Y-109210000D02*
X85730000Y-108880000D01*
X85730000Y-111290000D02*
X85730000Y-111620000D01*
X85730000Y-111620000D02*
X92270000Y-111620000D01*
X92270000Y-108880000D02*
X92270000Y-109210000D01*
X92270000Y-111620000D02*
X92270000Y-111290000D01*
%TO.C,CD1*%
X96380000Y-74880000D02*
X101620000Y-74880000D01*
X96380000Y-75217000D02*
X96380000Y-74880000D01*
X96380000Y-77620000D02*
X96380000Y-77283000D01*
X101620000Y-74880000D02*
X101620000Y-75217000D01*
X101620000Y-77283000D02*
X101620000Y-77620000D01*
X101620000Y-77620000D02*
X96380000Y-77620000D01*
%TO.C,CV2*%
X82380000Y-49880000D02*
X87620000Y-49880000D01*
X82380000Y-50217000D02*
X82380000Y-49880000D01*
X82380000Y-52620000D02*
X82380000Y-52283000D01*
X87620000Y-49880000D02*
X87620000Y-50217000D01*
X87620000Y-52283000D02*
X87620000Y-52620000D01*
X87620000Y-52620000D02*
X82380000Y-52620000D01*
%TO.C,RG1*%
X85730000Y-77880000D02*
X92270000Y-77880000D01*
X85730000Y-78210000D02*
X85730000Y-77880000D01*
X85730000Y-80290000D02*
X85730000Y-80620000D01*
X85730000Y-80620000D02*
X92270000Y-80620000D01*
X92270000Y-77880000D02*
X92270000Y-78210000D01*
X92270000Y-80620000D02*
X92270000Y-80290000D01*
%TO.C,J11*%
X31920000Y-102440000D02*
X31920000Y-110060000D01*
X31920000Y-103710000D02*
X42080000Y-103710000D01*
X31920000Y-110060000D02*
X42080000Y-110060000D01*
X42080000Y-102440000D02*
X31920000Y-102440000D01*
X42080000Y-110060000D02*
X42080000Y-102440000D01*
%TO.C,J4*%
X105620000Y-69520000D02*
X105620000Y-64330000D01*
X108380000Y-64330000D02*
X105620000Y-64330000D01*
X108380000Y-69520000D02*
X105620000Y-69520000D01*
X108380000Y-69520000D02*
X108380000Y-64330000D01*
X108380000Y-70790000D02*
X108380000Y-72170000D01*
X108380000Y-72170000D02*
X107000000Y-72170000D01*
%TO.C,J6*%
X105620000Y-82520000D02*
X105620000Y-77330000D01*
X108380000Y-77330000D02*
X105620000Y-77330000D01*
X108380000Y-82520000D02*
X105620000Y-82520000D01*
X108380000Y-82520000D02*
X108380000Y-77330000D01*
X108380000Y-83790000D02*
X108380000Y-85170000D01*
X108380000Y-85170000D02*
X107000000Y-85170000D01*
%TO.C,CD3*%
X86380000Y-114880000D02*
X91620000Y-114880000D01*
X86380000Y-115217000D02*
X86380000Y-114880000D01*
X86380000Y-117620000D02*
X86380000Y-117283000D01*
X91620000Y-114880000D02*
X91620000Y-115217000D01*
X91620000Y-117283000D02*
X91620000Y-117620000D01*
X91620000Y-117620000D02*
X86380000Y-117620000D01*
%TO.C,R32*%
X85730000Y-100880000D02*
X92270000Y-100880000D01*
X85730000Y-101210000D02*
X85730000Y-100880000D01*
X85730000Y-103290000D02*
X85730000Y-103620000D01*
X85730000Y-103620000D02*
X92270000Y-103620000D01*
X92270000Y-100880000D02*
X92270000Y-101210000D01*
X92270000Y-103620000D02*
X92270000Y-103290000D01*
%TO.C,CB*%
X68380000Y-114880000D02*
X73620000Y-114880000D01*
X68380000Y-115217000D02*
X68380000Y-114880000D01*
X68380000Y-117620000D02*
X68380000Y-117283000D01*
X73620000Y-114880000D02*
X73620000Y-115217000D01*
X73620000Y-117283000D02*
X73620000Y-117620000D01*
X73620000Y-117620000D02*
X68380000Y-117620000D01*
%TO.C,J9*%
X31920000Y-87440000D02*
X31920000Y-95060000D01*
X31920000Y-88710000D02*
X42080000Y-88710000D01*
X31920000Y-95060000D02*
X42080000Y-95060000D01*
X42080000Y-87440000D02*
X31920000Y-87440000D01*
X42080000Y-95060000D02*
X42080000Y-87440000D01*
%TO.C,RV23*%
X65730000Y-42880000D02*
X72270000Y-42880000D01*
X65730000Y-43210000D02*
X65730000Y-42880000D01*
X65730000Y-45290000D02*
X65730000Y-45620000D01*
X65730000Y-45620000D02*
X72270000Y-45620000D01*
X72270000Y-42880000D02*
X72270000Y-43210000D01*
X72270000Y-45620000D02*
X72270000Y-45290000D01*
%TO.C,RV11*%
X49730000Y-28880000D02*
X56270000Y-28880000D01*
X49730000Y-29210000D02*
X49730000Y-28880000D01*
X49730000Y-31290000D02*
X49730000Y-31620000D01*
X49730000Y-31620000D02*
X56270000Y-31620000D01*
X56270000Y-28880000D02*
X56270000Y-29210000D01*
X56270000Y-31620000D02*
X56270000Y-31290000D01*
%TO.C,RSH3*%
X51730000Y-104880000D02*
X58270000Y-104880000D01*
X51730000Y-105210000D02*
X51730000Y-104880000D01*
X51730000Y-107290000D02*
X51730000Y-107620000D01*
X51730000Y-107620000D02*
X58270000Y-107620000D01*
X58270000Y-104880000D02*
X58270000Y-105210000D01*
X58270000Y-107620000D02*
X58270000Y-107290000D01*
%TD*%
M02*
