M48
; DRILL file {KiCad 9.0.4} date 2026-06-22T17:56:52+0200
; FORMAT={-:-/ absolute / metric / decimal}
; #@! TF.CreationDate,2026-06-22T17:56:52+02:00
; #@! TF.GenerationSoftware,Kicad,Pcbnew,9.0.4
; #@! TF.FileFunction,Plated,1,2,PTH
FMAT,2
METRIC
; #@! TA.AperFunction,Plated,PTH,ComponentDrill
T1C0.800
; #@! TA.AperFunction,Plated,PTH,ComponentDrill
T2C1.000
; #@! TA.AperFunction,Plated,PTH,ComponentDrill
T3C1.100
; #@! TA.AperFunction,Plated,PTH,ComponentDrill
T4C1.520
; #@! TA.AperFunction,Plated,PTH,ComponentDrill
T5C2.000
%
G90
G05
T1
X53.409Y-110.0
X61.029Y-110.0
X68.619Y-110.0
X76.239Y-110.0
X76.69Y-119.841
X76.69Y-122.381
X76.69Y-124.921
X80.594Y-110.0
X83.583Y-100.95
X84.0Y-89.5
X84.31Y-119.841
X84.31Y-122.381
X84.31Y-124.921
X87.5Y-89.5
X88.214Y-110.0
X88.583Y-100.95
X96.3Y-84.38
X96.3Y-92.0
X97.19Y-110.0
X98.84Y-84.38
X98.84Y-92.0
X101.38Y-84.38
X101.38Y-92.0
X103.92Y-84.38
X103.92Y-92.0
X104.81Y-110.0
X106.46Y-84.38
X106.46Y-92.0
X109.0Y-84.38
X109.0Y-92.0
X111.54Y-84.38
X111.54Y-92.0
X115.0Y-103.0
X115.0Y-106.5
T2
X67.0Y-122.381
X69.54Y-122.381
T3
X54.92Y-100.0
X57.46Y-100.0
X60.0Y-100.0
X65.42Y-100.95
X75.58Y-100.95
X96.42Y-100.95
X106.58Y-100.95
T4
X54.96Y-122.381
X60.04Y-122.381
X92.92Y-122.381
X98.0Y-122.381
X108.256Y-122.381
X113.336Y-122.381
T5
X43.4Y-75.5
X71.6Y-75.5
M30
