%TF.GenerationSoftware,KiCad,Pcbnew,9.0.4*%
%TF.CreationDate,2026-06-17T17:03:08+02:00*%
%TF.ProjectId,boost_v2,626f6f73-745f-4763-922e-6b696361645f,rev?*%
%TF.SameCoordinates,Original*%
%TF.FileFunction,Copper,L1,Top*%
%TF.FilePolarity,Positive*%
%FSLAX46Y46*%
G04 Gerber Fmt 4.6, Leading zero omitted, Abs format (unit mm)*
G04 Created by KiCad (PCBNEW 9.0.4) date 2026-06-17 17:03:08*
%MOMM*%
%LPD*%
G01*
G04 APERTURE LIST*
G04 Aperture macros list*
%AMRoundRect*
0 Rectangle with rounded corners*
0 $1 Rounding radius*
0 $2 $3 $4 $5 $6 $7 $8 $9 X,Y pos of 4 corners*
0 Add a 4 corners polygon primitive as box body*
4,1,4,$2,$3,$4,$5,$6,$7,$8,$9,$2,$3,0*
0 Add four circle primitives for the rounded corners*
1,1,$1+$1,$2,$3*
1,1,$1+$1,$4,$5*
1,1,$1+$1,$6,$7*
1,1,$1+$1,$8,$9*
0 Add four rect primitives between the rounded corners*
20,1,$1+$1,$2,$3,$4,$5,0*
20,1,$1+$1,$4,$5,$6,$7,0*
20,1,$1+$1,$6,$7,$8,$9,0*
20,1,$1+$1,$8,$9,$2,$3,0*%
G04 Aperture macros list end*
%ADD10C,0.300000*%
%TA.AperFunction,NonConductor*%
%ADD11C,0.300000*%
%TD*%
%TA.AperFunction,ComponentPad*%
%ADD12RoundRect,0.250000X-0.550000X-0.550000X0.550000X-0.550000X0.550000X0.550000X-0.550000X0.550000X0*%
%TD*%
%TA.AperFunction,ComponentPad*%
%ADD13C,1.600000*%
%TD*%
%TA.AperFunction,ComponentPad*%
%ADD14R,1.700000X2.000000*%
%TD*%
%TA.AperFunction,ComponentPad*%
%ADD15O,1.700000X2.000000*%
%TD*%
%TA.AperFunction,ComponentPad*%
%ADD16R,1.700000X1.700000*%
%TD*%
%TA.AperFunction,ComponentPad*%
%ADD17C,1.700000*%
%TD*%
%TA.AperFunction,ComponentPad*%
%ADD18RoundRect,0.249999X-0.850001X-0.850001X0.850001X-0.850001X0.850001X0.850001X-0.850001X0.850001X0*%
%TD*%
%TA.AperFunction,ComponentPad*%
%ADD19C,2.200000*%
%TD*%
%TA.AperFunction,ComponentPad*%
%ADD20R,3.000000X3.000000*%
%TD*%
%TA.AperFunction,ComponentPad*%
%ADD21C,3.000000*%
%TD*%
%TA.AperFunction,ComponentPad*%
%ADD22RoundRect,0.250000X-0.950000X-0.550000X0.950000X-0.550000X0.950000X0.550000X-0.950000X0.550000X0*%
%TD*%
%TA.AperFunction,ComponentPad*%
%ADD23O,2.400000X1.600000*%
%TD*%
%TA.AperFunction,ComponentPad*%
%ADD24C,4.000000*%
%TD*%
%TA.AperFunction,Conductor*%
%ADD25C,1.000000*%
%TD*%
G04 APERTURE END LIST*
D10*
D11*
X64755000Y-101790828D02*
X64255000Y-101076542D01*
X63897857Y-101790828D02*
X63897857Y-100290828D01*
X63897857Y-100290828D02*
X64469286Y-100290828D01*
X64469286Y-100290828D02*
X64612143Y-100362257D01*
X64612143Y-100362257D02*
X64683572Y-100433685D01*
X64683572Y-100433685D02*
X64755000Y-100576542D01*
X64755000Y-100576542D02*
X64755000Y-100790828D01*
X64755000Y-100790828D02*
X64683572Y-100933685D01*
X64683572Y-100933685D02*
X64612143Y-101005114D01*
X64612143Y-101005114D02*
X64469286Y-101076542D01*
X64469286Y-101076542D02*
X63897857Y-101076542D01*
X66183572Y-101790828D02*
X65326429Y-101790828D01*
X65755000Y-101790828D02*
X65755000Y-100290828D01*
X65755000Y-100290828D02*
X65612143Y-100505114D01*
X65612143Y-100505114D02*
X65469286Y-100647971D01*
X65469286Y-100647971D02*
X65326429Y-100719400D01*
D10*
D11*
X67827857Y-35640828D02*
X67827857Y-34140828D01*
X67827857Y-34140828D02*
X68185000Y-34140828D01*
X68185000Y-34140828D02*
X68399286Y-34212257D01*
X68399286Y-34212257D02*
X68542143Y-34355114D01*
X68542143Y-34355114D02*
X68613572Y-34497971D01*
X68613572Y-34497971D02*
X68685000Y-34783685D01*
X68685000Y-34783685D02*
X68685000Y-34997971D01*
X68685000Y-34997971D02*
X68613572Y-35283685D01*
X68613572Y-35283685D02*
X68542143Y-35426542D01*
X68542143Y-35426542D02*
X68399286Y-35569400D01*
X68399286Y-35569400D02*
X68185000Y-35640828D01*
X68185000Y-35640828D02*
X67827857Y-35640828D01*
X69256429Y-34283685D02*
X69327857Y-34212257D01*
X69327857Y-34212257D02*
X69470715Y-34140828D01*
X69470715Y-34140828D02*
X69827857Y-34140828D01*
X69827857Y-34140828D02*
X69970715Y-34212257D01*
X69970715Y-34212257D02*
X70042143Y-34283685D01*
X70042143Y-34283685D02*
X70113572Y-34426542D01*
X70113572Y-34426542D02*
X70113572Y-34569400D01*
X70113572Y-34569400D02*
X70042143Y-34783685D01*
X70042143Y-34783685D02*
X69185000Y-35640828D01*
X69185000Y-35640828D02*
X70113572Y-35640828D01*
D10*
D11*
X81070000Y-60890828D02*
X80355714Y-60890828D01*
X80355714Y-60890828D02*
X80355714Y-59390828D01*
X82355715Y-60890828D02*
X81498572Y-60890828D01*
X81927143Y-60890828D02*
X81927143Y-59390828D01*
X81927143Y-59390828D02*
X81784286Y-59605114D01*
X81784286Y-59605114D02*
X81641429Y-59747971D01*
X81641429Y-59747971D02*
X81498572Y-59819400D01*
D10*
D11*
X49917857Y-35640828D02*
X49917857Y-34140828D01*
X49917857Y-34140828D02*
X50275000Y-34140828D01*
X50275000Y-34140828D02*
X50489286Y-34212257D01*
X50489286Y-34212257D02*
X50632143Y-34355114D01*
X50632143Y-34355114D02*
X50703572Y-34497971D01*
X50703572Y-34497971D02*
X50775000Y-34783685D01*
X50775000Y-34783685D02*
X50775000Y-34997971D01*
X50775000Y-34997971D02*
X50703572Y-35283685D01*
X50703572Y-35283685D02*
X50632143Y-35426542D01*
X50632143Y-35426542D02*
X50489286Y-35569400D01*
X50489286Y-35569400D02*
X50275000Y-35640828D01*
X50275000Y-35640828D02*
X49917857Y-35640828D01*
X52203572Y-35640828D02*
X51346429Y-35640828D01*
X51775000Y-35640828D02*
X51775000Y-34140828D01*
X51775000Y-34140828D02*
X51632143Y-34355114D01*
X51632143Y-34355114D02*
X51489286Y-34497971D01*
X51489286Y-34497971D02*
X51346429Y-34569400D01*
D10*
D11*
X64262351Y-84247971D02*
X64190923Y-84319400D01*
X64190923Y-84319400D02*
X63976637Y-84390828D01*
X63976637Y-84390828D02*
X63833780Y-84390828D01*
X63833780Y-84390828D02*
X63619494Y-84319400D01*
X63619494Y-84319400D02*
X63476637Y-84176542D01*
X63476637Y-84176542D02*
X63405208Y-84033685D01*
X63405208Y-84033685D02*
X63333780Y-83747971D01*
X63333780Y-83747971D02*
X63333780Y-83533685D01*
X63333780Y-83533685D02*
X63405208Y-83247971D01*
X63405208Y-83247971D02*
X63476637Y-83105114D01*
X63476637Y-83105114D02*
X63619494Y-82962257D01*
X63619494Y-82962257D02*
X63833780Y-82890828D01*
X63833780Y-82890828D02*
X63976637Y-82890828D01*
X63976637Y-82890828D02*
X64190923Y-82962257D01*
X64190923Y-82962257D02*
X64262351Y-83033685D01*
X65690923Y-84390828D02*
X64833780Y-84390828D01*
X65262351Y-84390828D02*
X65262351Y-82890828D01*
X65262351Y-82890828D02*
X65119494Y-83105114D01*
X65119494Y-83105114D02*
X64976637Y-83247971D01*
X64976637Y-83247971D02*
X64833780Y-83319400D01*
D10*
D11*
X28570000Y-41620828D02*
X28570000Y-42692257D01*
X28570000Y-42692257D02*
X28498571Y-42906542D01*
X28498571Y-42906542D02*
X28355714Y-43049400D01*
X28355714Y-43049400D02*
X28141428Y-43120828D01*
X28141428Y-43120828D02*
X27998571Y-43120828D01*
X29141428Y-41620828D02*
X30070000Y-41620828D01*
X30070000Y-41620828D02*
X29570000Y-42192257D01*
X29570000Y-42192257D02*
X29784285Y-42192257D01*
X29784285Y-42192257D02*
X29927143Y-42263685D01*
X29927143Y-42263685D02*
X29998571Y-42335114D01*
X29998571Y-42335114D02*
X30070000Y-42477971D01*
X30070000Y-42477971D02*
X30070000Y-42835114D01*
X30070000Y-42835114D02*
X29998571Y-42977971D01*
X29998571Y-42977971D02*
X29927143Y-43049400D01*
X29927143Y-43049400D02*
X29784285Y-43120828D01*
X29784285Y-43120828D02*
X29355714Y-43120828D01*
X29355714Y-43120828D02*
X29212857Y-43049400D01*
X29212857Y-43049400D02*
X29141428Y-42977971D01*
D10*
D11*
X78007051Y-84247971D02*
X77935623Y-84319400D01*
X77935623Y-84319400D02*
X77721337Y-84390828D01*
X77721337Y-84390828D02*
X77578480Y-84390828D01*
X77578480Y-84390828D02*
X77364194Y-84319400D01*
X77364194Y-84319400D02*
X77221337Y-84176542D01*
X77221337Y-84176542D02*
X77149908Y-84033685D01*
X77149908Y-84033685D02*
X77078480Y-83747971D01*
X77078480Y-83747971D02*
X77078480Y-83533685D01*
X77078480Y-83533685D02*
X77149908Y-83247971D01*
X77149908Y-83247971D02*
X77221337Y-83105114D01*
X77221337Y-83105114D02*
X77364194Y-82962257D01*
X77364194Y-82962257D02*
X77578480Y-82890828D01*
X77578480Y-82890828D02*
X77721337Y-82890828D01*
X77721337Y-82890828D02*
X77935623Y-82962257D01*
X77935623Y-82962257D02*
X78007051Y-83033685D01*
X78578480Y-83033685D02*
X78649908Y-82962257D01*
X78649908Y-82962257D02*
X78792766Y-82890828D01*
X78792766Y-82890828D02*
X79149908Y-82890828D01*
X79149908Y-82890828D02*
X79292766Y-82962257D01*
X79292766Y-82962257D02*
X79364194Y-83033685D01*
X79364194Y-83033685D02*
X79435623Y-83176542D01*
X79435623Y-83176542D02*
X79435623Y-83319400D01*
X79435623Y-83319400D02*
X79364194Y-83533685D01*
X79364194Y-83533685D02*
X78507051Y-84390828D01*
X78507051Y-84390828D02*
X79435623Y-84390828D01*
D10*
D11*
X107455000Y-46390828D02*
X107455000Y-47462257D01*
X107455000Y-47462257D02*
X107383571Y-47676542D01*
X107383571Y-47676542D02*
X107240714Y-47819400D01*
X107240714Y-47819400D02*
X107026428Y-47890828D01*
X107026428Y-47890828D02*
X106883571Y-47890828D01*
X108812143Y-46890828D02*
X108812143Y-47890828D01*
X108455000Y-46319400D02*
X108097857Y-47390828D01*
X108097857Y-47390828D02*
X109026428Y-47390828D01*
D10*
D11*
X79525000Y-101790828D02*
X79025000Y-101076542D01*
X78667857Y-101790828D02*
X78667857Y-100290828D01*
X78667857Y-100290828D02*
X79239286Y-100290828D01*
X79239286Y-100290828D02*
X79382143Y-100362257D01*
X79382143Y-100362257D02*
X79453572Y-100433685D01*
X79453572Y-100433685D02*
X79525000Y-100576542D01*
X79525000Y-100576542D02*
X79525000Y-100790828D01*
X79525000Y-100790828D02*
X79453572Y-100933685D01*
X79453572Y-100933685D02*
X79382143Y-101005114D01*
X79382143Y-101005114D02*
X79239286Y-101076542D01*
X79239286Y-101076542D02*
X78667857Y-101076542D01*
X80096429Y-100433685D02*
X80167857Y-100362257D01*
X80167857Y-100362257D02*
X80310715Y-100290828D01*
X80310715Y-100290828D02*
X80667857Y-100290828D01*
X80667857Y-100290828D02*
X80810715Y-100362257D01*
X80810715Y-100362257D02*
X80882143Y-100433685D01*
X80882143Y-100433685D02*
X80953572Y-100576542D01*
X80953572Y-100576542D02*
X80953572Y-100719400D01*
X80953572Y-100719400D02*
X80882143Y-100933685D01*
X80882143Y-100933685D02*
X80025000Y-101790828D01*
X80025000Y-101790828D02*
X80953572Y-101790828D01*
D10*
D11*
X49205000Y-115240828D02*
X48705000Y-114526542D01*
X48347857Y-115240828D02*
X48347857Y-113740828D01*
X48347857Y-113740828D02*
X48919286Y-113740828D01*
X48919286Y-113740828D02*
X49062143Y-113812257D01*
X49062143Y-113812257D02*
X49133572Y-113883685D01*
X49133572Y-113883685D02*
X49205000Y-114026542D01*
X49205000Y-114026542D02*
X49205000Y-114240828D01*
X49205000Y-114240828D02*
X49133572Y-114383685D01*
X49133572Y-114383685D02*
X49062143Y-114455114D01*
X49062143Y-114455114D02*
X48919286Y-114526542D01*
X48919286Y-114526542D02*
X48347857Y-114526542D01*
X50490715Y-114240828D02*
X50490715Y-115240828D01*
X50133572Y-113669400D02*
X49776429Y-114740828D01*
X49776429Y-114740828D02*
X50705000Y-114740828D01*
D10*
D11*
X94295000Y-108240828D02*
X93795000Y-107526542D01*
X93437857Y-108240828D02*
X93437857Y-106740828D01*
X93437857Y-106740828D02*
X94009286Y-106740828D01*
X94009286Y-106740828D02*
X94152143Y-106812257D01*
X94152143Y-106812257D02*
X94223572Y-106883685D01*
X94223572Y-106883685D02*
X94295000Y-107026542D01*
X94295000Y-107026542D02*
X94295000Y-107240828D01*
X94295000Y-107240828D02*
X94223572Y-107383685D01*
X94223572Y-107383685D02*
X94152143Y-107455114D01*
X94152143Y-107455114D02*
X94009286Y-107526542D01*
X94009286Y-107526542D02*
X93437857Y-107526542D01*
X94795000Y-106740828D02*
X95723572Y-106740828D01*
X95723572Y-106740828D02*
X95223572Y-107312257D01*
X95223572Y-107312257D02*
X95437857Y-107312257D01*
X95437857Y-107312257D02*
X95580715Y-107383685D01*
X95580715Y-107383685D02*
X95652143Y-107455114D01*
X95652143Y-107455114D02*
X95723572Y-107597971D01*
X95723572Y-107597971D02*
X95723572Y-107955114D01*
X95723572Y-107955114D02*
X95652143Y-108097971D01*
X95652143Y-108097971D02*
X95580715Y-108169400D01*
X95580715Y-108169400D02*
X95437857Y-108240828D01*
X95437857Y-108240828D02*
X95009286Y-108240828D01*
X95009286Y-108240828D02*
X94866429Y-108169400D01*
X94866429Y-108169400D02*
X94795000Y-108097971D01*
D10*
D11*
X41655714Y-105015828D02*
X41655714Y-103515828D01*
X41655714Y-103515828D02*
X42155714Y-104587257D01*
X42155714Y-104587257D02*
X42655714Y-103515828D01*
X42655714Y-103515828D02*
X42655714Y-105015828D01*
X44155715Y-105015828D02*
X43298572Y-105015828D01*
X43727143Y-105015828D02*
X43727143Y-103515828D01*
X43727143Y-103515828D02*
X43584286Y-103730114D01*
X43584286Y-103730114D02*
X43441429Y-103872971D01*
X43441429Y-103872971D02*
X43298572Y-103944400D01*
D10*
D11*
X114430000Y-28615828D02*
X114430000Y-29687257D01*
X114430000Y-29687257D02*
X114358571Y-29901542D01*
X114358571Y-29901542D02*
X114215714Y-30044400D01*
X114215714Y-30044400D02*
X114001428Y-30115828D01*
X114001428Y-30115828D02*
X113858571Y-30115828D01*
X115072857Y-28758685D02*
X115144285Y-28687257D01*
X115144285Y-28687257D02*
X115287143Y-28615828D01*
X115287143Y-28615828D02*
X115644285Y-28615828D01*
X115644285Y-28615828D02*
X115787143Y-28687257D01*
X115787143Y-28687257D02*
X115858571Y-28758685D01*
X115858571Y-28758685D02*
X115930000Y-28901542D01*
X115930000Y-28901542D02*
X115930000Y-29044400D01*
X115930000Y-29044400D02*
X115858571Y-29258685D01*
X115858571Y-29258685D02*
X115001428Y-30115828D01*
X115001428Y-30115828D02*
X115930000Y-30115828D01*
D10*
D11*
X28570000Y-28615828D02*
X28570000Y-29687257D01*
X28570000Y-29687257D02*
X28498571Y-29901542D01*
X28498571Y-29901542D02*
X28355714Y-30044400D01*
X28355714Y-30044400D02*
X28141428Y-30115828D01*
X28141428Y-30115828D02*
X27998571Y-30115828D01*
X30070000Y-30115828D02*
X29212857Y-30115828D01*
X29641428Y-30115828D02*
X29641428Y-28615828D01*
X29641428Y-28615828D02*
X29498571Y-28830114D01*
X29498571Y-28830114D02*
X29355714Y-28972971D01*
X29355714Y-28972971D02*
X29212857Y-29044400D01*
D10*
D11*
X48712142Y-77990828D02*
X48712142Y-79205114D01*
X48712142Y-79205114D02*
X48783571Y-79347971D01*
X48783571Y-79347971D02*
X48855000Y-79419400D01*
X48855000Y-79419400D02*
X48997857Y-79490828D01*
X48997857Y-79490828D02*
X49283571Y-79490828D01*
X49283571Y-79490828D02*
X49426428Y-79419400D01*
X49426428Y-79419400D02*
X49497857Y-79347971D01*
X49497857Y-79347971D02*
X49569285Y-79205114D01*
X49569285Y-79205114D02*
X49569285Y-77990828D01*
X50212143Y-78133685D02*
X50283571Y-78062257D01*
X50283571Y-78062257D02*
X50426429Y-77990828D01*
X50426429Y-77990828D02*
X50783571Y-77990828D01*
X50783571Y-77990828D02*
X50926429Y-78062257D01*
X50926429Y-78062257D02*
X50997857Y-78133685D01*
X50997857Y-78133685D02*
X51069286Y-78276542D01*
X51069286Y-78276542D02*
X51069286Y-78419400D01*
X51069286Y-78419400D02*
X50997857Y-78633685D01*
X50997857Y-78633685D02*
X50140714Y-79490828D01*
X50140714Y-79490828D02*
X51069286Y-79490828D01*
D10*
D11*
X84179400Y-90222971D02*
X84107972Y-90294400D01*
X84107972Y-90294400D02*
X83893686Y-90365828D01*
X83893686Y-90365828D02*
X83750829Y-90365828D01*
X83750829Y-90365828D02*
X83536543Y-90294400D01*
X83536543Y-90294400D02*
X83393686Y-90151542D01*
X83393686Y-90151542D02*
X83322257Y-90008685D01*
X83322257Y-90008685D02*
X83250829Y-89722971D01*
X83250829Y-89722971D02*
X83250829Y-89508685D01*
X83250829Y-89508685D02*
X83322257Y-89222971D01*
X83322257Y-89222971D02*
X83393686Y-89080114D01*
X83393686Y-89080114D02*
X83536543Y-88937257D01*
X83536543Y-88937257D02*
X83750829Y-88865828D01*
X83750829Y-88865828D02*
X83893686Y-88865828D01*
X83893686Y-88865828D02*
X84107972Y-88937257D01*
X84107972Y-88937257D02*
X84179400Y-89008685D01*
X84679400Y-88865828D02*
X85607972Y-88865828D01*
X85607972Y-88865828D02*
X85107972Y-89437257D01*
X85107972Y-89437257D02*
X85322257Y-89437257D01*
X85322257Y-89437257D02*
X85465115Y-89508685D01*
X85465115Y-89508685D02*
X85536543Y-89580114D01*
X85536543Y-89580114D02*
X85607972Y-89722971D01*
X85607972Y-89722971D02*
X85607972Y-90080114D01*
X85607972Y-90080114D02*
X85536543Y-90222971D01*
X85536543Y-90222971D02*
X85465115Y-90294400D01*
X85465115Y-90294400D02*
X85322257Y-90365828D01*
X85322257Y-90365828D02*
X84893686Y-90365828D01*
X84893686Y-90365828D02*
X84750829Y-90294400D01*
X84750829Y-90294400D02*
X84679400Y-90222971D01*
D10*
D11*
X97247142Y-59390828D02*
X97247142Y-60605114D01*
X97247142Y-60605114D02*
X97318571Y-60747971D01*
X97318571Y-60747971D02*
X97390000Y-60819400D01*
X97390000Y-60819400D02*
X97532857Y-60890828D01*
X97532857Y-60890828D02*
X97818571Y-60890828D01*
X97818571Y-60890828D02*
X97961428Y-60819400D01*
X97961428Y-60819400D02*
X98032857Y-60747971D01*
X98032857Y-60747971D02*
X98104285Y-60605114D01*
X98104285Y-60605114D02*
X98104285Y-59390828D01*
X99604286Y-60890828D02*
X98747143Y-60890828D01*
X99175714Y-60890828D02*
X99175714Y-59390828D01*
X99175714Y-59390828D02*
X99032857Y-59605114D01*
X99032857Y-59605114D02*
X98890000Y-59747971D01*
X98890000Y-59747971D02*
X98747143Y-59819400D01*
D12*
%TO.P,C2,1*%
%TO.N,+15V*%
X76604400Y-89687500D03*
D13*
%TO.P,C2,2*%
%TO.N,GND*%
X80104400Y-89687500D03*
%TD*%
D14*
%TO.P,M1,1*%
%TO.N,GATE*%
X47305000Y-105287500D03*
D15*
%TO.P,M1,2*%
%TO.N,/SW*%
X49845000Y-105287500D03*
%TO.P,M1,3*%
%TO.N,GND*%
X52385000Y-105287500D03*
%TD*%
D13*
%TO.P,R3,1*%
%TO.N,/LO*%
X90735000Y-104337500D03*
%TO.P,R3,2*%
%TO.N,GATE*%
X98355000Y-104337500D03*
%TD*%
D16*
%TO.P,J3,1*%
%TO.N,PWM*%
X29070000Y-48487500D03*
D17*
%TO.P,J3,2*%
%TO.N,GND_MCU*%
X29070000Y-45947500D03*
%TD*%
D18*
%TO.P,D2,1*%
%TO.N,/LO*%
X63855000Y-38287500D03*
D19*
%TO.P,D2,2*%
%TO.N,GATE*%
X74015000Y-38287500D03*
%TD*%
D13*
%TO.P,C3,1*%
%TO.N,+15V*%
X88704400Y-89687500D03*
%TO.P,C3,2*%
%TO.N,GND*%
X93704400Y-89687500D03*
%TD*%
%TO.P,R2,1*%
%TO.N,/LIN*%
X75965000Y-104337500D03*
%TO.P,R2,2*%
%TO.N,GND*%
X83585000Y-104337500D03*
%TD*%
D20*
%TO.P,J4,1*%
%TO.N,+15V*%
X112390000Y-47212500D03*
D21*
%TO.P,J4,2*%
%TO.N,GND*%
X117470000Y-47212500D03*
%TD*%
D12*
%TO.P,C1,1*%
%TO.N,VOUT_V2*%
X62859700Y-89687500D03*
D13*
%TO.P,C1,2*%
%TO.N,GND*%
X66359700Y-89687500D03*
%TD*%
D18*
%TO.P,D1,1*%
%TO.N,VOUT_V2*%
X45945000Y-38287500D03*
D19*
%TO.P,D1,2*%
%TO.N,/SW*%
X56105000Y-38287500D03*
%TD*%
D22*
%TO.P,U2,1*%
%TO.N,/LO*%
X46045000Y-82067500D03*
D23*
%TO.P,U2,2*%
%TO.N,GND*%
X46045000Y-84607500D03*
%TO.P,U2,3*%
%TO.N,+15V*%
X46045000Y-87147500D03*
%TO.P,U2,4*%
%TO.N,N/C*%
X46045000Y-89687500D03*
%TO.P,U2,5*%
%TO.N,GND*%
X46045000Y-92227500D03*
%TO.P,U2,6*%
%TO.N,N/C*%
X46045000Y-94767500D03*
%TO.P,U2,7*%
X46045000Y-97307500D03*
%TO.P,U2,8*%
X53665000Y-97307500D03*
%TO.P,U2,9*%
%TO.N,+15V*%
X53665000Y-94767500D03*
%TO.P,U2,10*%
%TO.N,GND*%
X53665000Y-92227500D03*
%TO.P,U2,11*%
X53665000Y-89687500D03*
%TO.P,U2,12*%
%TO.N,/LIN*%
X53665000Y-87147500D03*
%TO.P,U2,13*%
%TO.N,GND*%
X53665000Y-84607500D03*
%TO.P,U2,14*%
%TO.N,N/C*%
X53665000Y-82067500D03*
%TD*%
D20*
%TO.P,J2,1*%
%TO.N,VOUT_V2*%
X112390000Y-35162500D03*
D21*
%TO.P,J2,2*%
%TO.N,GND*%
X117470000Y-35162500D03*
%TD*%
D13*
%TO.P,R4,1*%
%TO.N,GATE*%
X45645000Y-111337500D03*
%TO.P,R4,2*%
%TO.N,GND*%
X53265000Y-111337500D03*
%TD*%
%TO.P,R1,1*%
%TO.N,PWM*%
X61195000Y-104337500D03*
%TO.P,R1,2*%
%TO.N,/OPTO_A*%
X68815000Y-104337500D03*
%TD*%
D22*
%TO.P,U1,1*%
%TO.N,/OPTO_A*%
X86095000Y-57672500D03*
D23*
%TO.P,U1,2*%
%TO.N,GND_MCU*%
X86095000Y-60212500D03*
%TO.P,U1,3*%
%TO.N,N/C*%
X86095000Y-62752500D03*
%TO.P,U1,4*%
%TO.N,/LIN*%
X93715000Y-62752500D03*
%TO.P,U1,5*%
%TO.N,+15V*%
X93715000Y-60212500D03*
%TO.P,U1,6*%
%TO.N,N/C*%
X93715000Y-57672500D03*
%TD*%
D24*
%TO.P,L1,1*%
%TO.N,VIN_5V*%
X47995000Y-60212500D03*
%TO.P,L1,2*%
%TO.N,/SW*%
X76195000Y-60212500D03*
%TD*%
D20*
%TO.P,J1,1*%
%TO.N,VIN_5V*%
X31610000Y-35162500D03*
D21*
%TO.P,J1,2*%
%TO.N,GND*%
X26530000Y-35162500D03*
%TD*%
D25*
%TO.N,GATE*%
X74015000Y-38287500D02*
X91034800Y-55307300D01*
X91034800Y-55307300D02*
X91034800Y-97017300D01*
X91034800Y-97017300D02*
X98355000Y-104337500D01*
%TO.N,GND*%
X68462400Y-91790200D02*
X78001700Y-91790200D01*
X117470000Y-65921900D02*
X93704400Y-89687500D01*
X83585000Y-97373500D02*
X83585000Y-104337500D01*
X117470000Y-35162500D02*
X117470000Y-47212500D01*
X78001700Y-91790200D02*
X83585000Y-97373500D01*
X66359700Y-89687500D02*
X68462400Y-91790200D01*
X46045000Y-84607500D02*
X53665000Y-84607500D01*
X117470000Y-47212500D02*
X117470000Y-65921900D01*
X78001700Y-91790200D02*
X80104400Y-89687500D01*
X46045000Y-92227500D02*
X53665000Y-92227500D01*
%TO.N,PWM*%
X29070000Y-50639200D02*
X60550600Y-82119800D01*
X60550600Y-82119800D02*
X60550600Y-103693100D01*
X29070000Y-48487500D02*
X29070000Y-50639200D01*
X60550600Y-103693100D02*
X61195000Y-104337500D01*
%TD*%
%TA.AperFunction,NonConductor*%
G36*
X123442539Y-20520185D02*
G01*
X123488294Y-20572989D01*
X123499500Y-20624500D01*
X123499500Y-123375500D01*
X123479815Y-123442539D01*
X123427011Y-123488294D01*
X123375500Y-123499500D01*
X20624500Y-123499500D01*
X20557461Y-123479815D01*
X20511706Y-123427011D01*
X20500500Y-123375500D01*
X20500500Y-116199155D01*
X47392357Y-116199155D01*
X51660500Y-116199155D01*
X51660500Y-112712176D01*
X47392357Y-112712176D01*
X47392357Y-116199155D01*
X20500500Y-116199155D01*
X20500500Y-111211538D01*
X44044500Y-111211538D01*
X44044500Y-111463461D01*
X44083910Y-111712285D01*
X44161760Y-111951883D01*
X44276132Y-112176348D01*
X44424201Y-112380149D01*
X44424205Y-112380154D01*
X44602345Y-112558294D01*
X44602350Y-112558298D01*
X44780117Y-112687452D01*
X44806155Y-112706370D01*
X44949184Y-112779247D01*
X45030616Y-112820739D01*
X45030618Y-112820739D01*
X45030621Y-112820741D01*
X45270215Y-112898590D01*
X45519038Y-112938000D01*
X45519039Y-112938000D01*
X45770961Y-112938000D01*
X45770962Y-112938000D01*
X46019785Y-112898590D01*
X46259379Y-112820741D01*
X46483845Y-112706370D01*
X46582165Y-112634936D01*
X46684625Y-112560496D01*
X46684626Y-112560495D01*
X46687652Y-112558296D01*
X46687652Y-112558295D01*
X46687656Y-112558293D01*
X46865793Y-112380156D01*
X47013870Y-112176345D01*
X47128241Y-111951879D01*
X47206090Y-111712285D01*
X47245500Y-111463462D01*
X47245500Y-111211538D01*
X51664500Y-111211538D01*
X51664500Y-111463461D01*
X51703910Y-111712285D01*
X51781760Y-111951883D01*
X51896132Y-112176348D01*
X52044201Y-112380149D01*
X52044205Y-112380154D01*
X52222345Y-112558294D01*
X52222350Y-112558298D01*
X52400117Y-112687452D01*
X52426155Y-112706370D01*
X52569184Y-112779247D01*
X52650616Y-112820739D01*
X52650618Y-112820739D01*
X52650621Y-112820741D01*
X52890215Y-112898590D01*
X53139038Y-112938000D01*
X53139039Y-112938000D01*
X53390961Y-112938000D01*
X53390962Y-112938000D01*
X53639785Y-112898590D01*
X53879379Y-112820741D01*
X54103845Y-112706370D01*
X54307656Y-112558293D01*
X54485793Y-112380156D01*
X54633870Y-112176345D01*
X54748241Y-111951879D01*
X54826090Y-111712285D01*
X54865500Y-111463462D01*
X54865500Y-111211538D01*
X54826090Y-110962715D01*
X54748241Y-110723121D01*
X54748239Y-110723118D01*
X54748239Y-110723116D01*
X54706747Y-110641684D01*
X54633870Y-110498655D01*
X54614952Y-110472617D01*
X54485798Y-110294850D01*
X54485794Y-110294845D01*
X54307654Y-110116705D01*
X54307649Y-110116701D01*
X54103848Y-109968632D01*
X54103847Y-109968631D01*
X54103845Y-109968630D01*
X54033747Y-109932913D01*
X53879383Y-109854260D01*
X53639785Y-109776410D01*
X53390962Y-109737000D01*
X53139038Y-109737000D01*
X53014626Y-109756705D01*
X52890214Y-109776410D01*
X52650616Y-109854260D01*
X52426151Y-109968632D01*
X52222350Y-110116701D01*
X52222345Y-110116705D01*
X52044205Y-110294845D01*
X52044201Y-110294850D01*
X51896132Y-110498651D01*
X51781760Y-110723116D01*
X51703910Y-110962714D01*
X51664500Y-111211538D01*
X47245500Y-111211538D01*
X47206090Y-110962715D01*
X47128241Y-110723121D01*
X47128239Y-110723118D01*
X47128239Y-110723116D01*
X47086747Y-110641684D01*
X47013870Y-110498655D01*
X46994952Y-110472617D01*
X46865798Y-110294850D01*
X46865794Y-110294845D01*
X46687654Y-110116705D01*
X46687649Y-110116701D01*
X46483848Y-109968632D01*
X46483847Y-109968631D01*
X46483845Y-109968630D01*
X46413747Y-109932913D01*
X46259383Y-109854260D01*
X46019785Y-109776410D01*
X45770962Y-109737000D01*
X45519038Y-109737000D01*
X45394626Y-109756705D01*
X45270214Y-109776410D01*
X45030616Y-109854260D01*
X44806151Y-109968632D01*
X44602350Y-110116701D01*
X44602345Y-110116705D01*
X44424205Y-110294845D01*
X44424201Y-110294850D01*
X44276132Y-110498651D01*
X44161760Y-110723116D01*
X44083910Y-110962714D01*
X44044500Y-111211538D01*
X20500500Y-111211538D01*
X20500500Y-109199155D01*
X92482357Y-109199155D01*
X96680797Y-109199155D01*
X96680797Y-105783603D01*
X92482357Y-105783603D01*
X92482357Y-109199155D01*
X20500500Y-109199155D01*
X20500500Y-105971328D01*
X40699053Y-105971328D01*
X45111215Y-105971328D01*
X45111215Y-104242539D01*
X45654500Y-104242539D01*
X45654500Y-106332460D01*
X45669630Y-106466749D01*
X45669631Y-106466754D01*
X45729211Y-106637023D01*
X45766538Y-106696428D01*
X45825184Y-106789762D01*
X45952738Y-106917316D01*
X46105478Y-107013289D01*
X46275745Y-107072868D01*
X46275750Y-107072869D01*
X46366246Y-107083065D01*
X46410040Y-107087999D01*
X46410043Y-107088000D01*
X46410046Y-107088000D01*
X48199957Y-107088000D01*
X48199958Y-107087999D01*
X48267104Y-107080434D01*
X48334249Y-107072869D01*
X48334252Y-107072868D01*
X48334255Y-107072868D01*
X48504522Y-107013289D01*
X48657262Y-106917316D01*
X48757655Y-106816923D01*
X48818978Y-106783438D01*
X48888670Y-106788422D01*
X48918218Y-106804283D01*
X48979949Y-106849134D01*
X49089312Y-106904857D01*
X49211423Y-106967077D01*
X49211425Y-106967077D01*
X49211428Y-106967079D01*
X49458507Y-107047360D01*
X49590706Y-107068297D01*
X49715098Y-107088000D01*
X49715103Y-107088000D01*
X49974902Y-107088000D01*
X50088298Y-107070039D01*
X50231493Y-107047360D01*
X50478572Y-106967079D01*
X50710051Y-106849134D01*
X50920229Y-106696431D01*
X51027319Y-106589341D01*
X51088642Y-106555856D01*
X51158334Y-106560840D01*
X51202681Y-106589341D01*
X51309771Y-106696431D01*
X51519949Y-106849134D01*
X51653761Y-106917315D01*
X51751423Y-106967077D01*
X51751425Y-106967077D01*
X51751428Y-106967079D01*
X51998507Y-107047360D01*
X52130706Y-107068297D01*
X52255098Y-107088000D01*
X52255103Y-107088000D01*
X52514902Y-107088000D01*
X52628298Y-107070039D01*
X52771493Y-107047360D01*
X53018572Y-106967079D01*
X53250051Y-106849134D01*
X53460229Y-106696431D01*
X53643931Y-106512729D01*
X53796634Y-106302551D01*
X53914579Y-106071072D01*
X53994860Y-105823993D01*
X54017539Y-105680798D01*
X54035500Y-105567402D01*
X54035500Y-105007597D01*
X54013947Y-104871521D01*
X53994860Y-104751007D01*
X53914579Y-104503928D01*
X53914577Y-104503925D01*
X53914577Y-104503923D01*
X53848739Y-104374711D01*
X53796634Y-104272449D01*
X53643931Y-104062271D01*
X53460229Y-103878569D01*
X53460225Y-103878566D01*
X53250054Y-103725868D01*
X53250053Y-103725867D01*
X53250051Y-103725866D01*
X53177764Y-103689034D01*
X53018576Y-103607922D01*
X52771493Y-103527640D01*
X52514902Y-103487000D01*
X52514897Y-103487000D01*
X52255103Y-103487000D01*
X52255098Y-103487000D01*
X51998506Y-103527640D01*
X51751423Y-103607922D01*
X51519945Y-103725868D01*
X51309774Y-103878566D01*
X51309768Y-103878571D01*
X51202681Y-103985659D01*
X51141358Y-104019144D01*
X51071666Y-104014160D01*
X51027319Y-103985659D01*
X50920231Y-103878571D01*
X50920225Y-103878566D01*
X50710054Y-103725868D01*
X50710053Y-103725867D01*
X50710051Y-103725866D01*
X50637764Y-103689034D01*
X50478576Y-103607922D01*
X50231493Y-103527640D01*
X49974902Y-103487000D01*
X49974897Y-103487000D01*
X49715103Y-103487000D01*
X49715098Y-103487000D01*
X49458506Y-103527640D01*
X49211423Y-103607922D01*
X48979946Y-103725867D01*
X48918219Y-103770714D01*
X48852413Y-103794193D01*
X48784359Y-103778367D01*
X48757654Y-103758076D01*
X48657262Y-103657684D01*
X48504523Y-103561711D01*
X48334254Y-103502131D01*
X48334249Y-103502130D01*
X48199960Y-103487000D01*
X48199954Y-103487000D01*
X46410046Y-103487000D01*
X46410039Y-103487000D01*
X46275750Y-103502130D01*
X46275745Y-103502131D01*
X46105476Y-103561711D01*
X45952737Y-103657684D01*
X45825184Y-103785237D01*
X45729211Y-103937976D01*
X45669631Y-104108245D01*
X45669630Y-104108250D01*
X45654500Y-104242539D01*
X45111215Y-104242539D01*
X45111215Y-102557484D01*
X40699053Y-102557484D01*
X40699053Y-105971328D01*
X20500500Y-105971328D01*
X20500500Y-81465892D01*
X44044500Y-81465892D01*
X44044500Y-82669108D01*
X44049502Y-82719898D01*
X44059699Y-82823432D01*
X44059700Y-82823434D01*
X44119768Y-83021454D01*
X44217315Y-83203950D01*
X44326916Y-83337500D01*
X44348590Y-83363910D01*
X44397049Y-83403680D01*
X44436383Y-83461426D01*
X44438254Y-83531270D01*
X44418703Y-83572418D01*
X44276129Y-83768655D01*
X44161760Y-83993116D01*
X44083910Y-84232714D01*
X44044500Y-84481538D01*
X44044500Y-84733461D01*
X44083910Y-84982285D01*
X44161760Y-85221883D01*
X44276132Y-85446348D01*
X44424201Y-85650149D01*
X44424205Y-85650154D01*
X44563870Y-85789819D01*
X44597355Y-85851142D01*
X44592371Y-85920834D01*
X44563870Y-85965181D01*
X44424205Y-86104845D01*
X44424201Y-86104850D01*
X44276132Y-86308651D01*
X44161760Y-86533116D01*
X44083910Y-86772714D01*
X44044500Y-87021538D01*
X44044500Y-87273461D01*
X44083910Y-87522285D01*
X44161760Y-87761883D01*
X44276132Y-87986348D01*
X44424201Y-88190149D01*
X44424205Y-88190154D01*
X44563870Y-88329819D01*
X44597355Y-88391142D01*
X44592371Y-88460834D01*
X44563870Y-88505181D01*
X44424205Y-88644845D01*
X44424201Y-88644850D01*
X44276132Y-88848651D01*
X44161760Y-89073116D01*
X44083910Y-89312714D01*
X44044500Y-89561538D01*
X44044500Y-89813461D01*
X44083910Y-90062285D01*
X44161760Y-90301883D01*
X44223061Y-90422192D01*
X44257458Y-90489700D01*
X44276132Y-90526348D01*
X44424201Y-90730149D01*
X44424205Y-90730154D01*
X44563870Y-90869819D01*
X44597355Y-90931142D01*
X44592371Y-91000834D01*
X44563870Y-91045181D01*
X44424205Y-91184845D01*
X44424201Y-91184850D01*
X44276132Y-91388651D01*
X44161760Y-91613116D01*
X44083910Y-91852714D01*
X44044500Y-92101538D01*
X44044500Y-92353461D01*
X44083910Y-92602285D01*
X44161760Y-92841883D01*
X44276132Y-93066348D01*
X44424201Y-93270149D01*
X44424205Y-93270154D01*
X44563870Y-93409819D01*
X44597355Y-93471142D01*
X44592371Y-93540834D01*
X44563870Y-93585181D01*
X44424205Y-93724845D01*
X44424201Y-93724850D01*
X44276132Y-93928651D01*
X44161760Y-94153116D01*
X44083910Y-94392714D01*
X44044500Y-94641538D01*
X44044500Y-94893461D01*
X44083910Y-95142285D01*
X44161760Y-95381883D01*
X44276132Y-95606348D01*
X44424201Y-95810149D01*
X44424205Y-95810154D01*
X44563870Y-95949819D01*
X44597355Y-96011142D01*
X44592371Y-96080834D01*
X44563870Y-96125181D01*
X44424205Y-96264845D01*
X44424201Y-96264850D01*
X44276132Y-96468651D01*
X44161760Y-96693116D01*
X44083910Y-96932714D01*
X44083910Y-96932715D01*
X44044500Y-97181538D01*
X44044500Y-97433462D01*
X44083910Y-97682285D01*
X44161760Y-97921883D01*
X44276132Y-98146348D01*
X44424201Y-98350149D01*
X44424205Y-98350154D01*
X44602345Y-98528294D01*
X44602350Y-98528298D01*
X44780117Y-98657452D01*
X44806155Y-98676370D01*
X44949184Y-98749247D01*
X45030616Y-98790739D01*
X45030618Y-98790739D01*
X45030621Y-98790741D01*
X45270215Y-98868590D01*
X45519038Y-98908000D01*
X45519039Y-98908000D01*
X46570961Y-98908000D01*
X46570962Y-98908000D01*
X46819785Y-98868590D01*
X47059379Y-98790741D01*
X47283845Y-98676370D01*
X47487656Y-98528293D01*
X47665793Y-98350156D01*
X47813870Y-98146345D01*
X47928241Y-97921879D01*
X48006090Y-97682285D01*
X48045500Y-97433462D01*
X48045500Y-97181538D01*
X48006090Y-96932715D01*
X47928241Y-96693121D01*
X47928239Y-96693118D01*
X47928239Y-96693116D01*
X47843233Y-96526284D01*
X47813870Y-96468655D01*
X47748302Y-96378408D01*
X47665798Y-96264850D01*
X47665794Y-96264845D01*
X47526130Y-96125181D01*
X47492645Y-96063858D01*
X47497629Y-95994166D01*
X47526130Y-95949819D01*
X47665793Y-95810156D01*
X47813870Y-95606345D01*
X47928241Y-95381879D01*
X48006090Y-95142285D01*
X48045500Y-94893462D01*
X48045500Y-94641538D01*
X48006090Y-94392715D01*
X47928241Y-94153121D01*
X47928239Y-94153118D01*
X47928239Y-94153116D01*
X47886747Y-94071684D01*
X47813870Y-93928655D01*
X47803227Y-93914006D01*
X47665824Y-93724885D01*
X47642344Y-93659079D01*
X47658170Y-93591025D01*
X47708276Y-93542330D01*
X47766142Y-93528000D01*
X51943858Y-93528000D01*
X52010897Y-93547685D01*
X52056652Y-93600489D01*
X52066596Y-93669647D01*
X52044176Y-93724885D01*
X51896132Y-93928651D01*
X51781760Y-94153116D01*
X51703910Y-94392714D01*
X51664500Y-94641538D01*
X51664500Y-94893461D01*
X51703910Y-95142285D01*
X51781760Y-95381883D01*
X51896132Y-95606348D01*
X52044201Y-95810149D01*
X52044205Y-95810154D01*
X52183870Y-95949819D01*
X52217355Y-96011142D01*
X52212371Y-96080834D01*
X52183870Y-96125181D01*
X52044205Y-96264845D01*
X52044201Y-96264850D01*
X51896132Y-96468651D01*
X51781760Y-96693116D01*
X51703910Y-96932714D01*
X51703910Y-96932715D01*
X51664500Y-97181538D01*
X51664500Y-97433462D01*
X51703910Y-97682285D01*
X51781760Y-97921883D01*
X51896132Y-98146348D01*
X52044201Y-98350149D01*
X52044205Y-98350154D01*
X52222345Y-98528294D01*
X52222350Y-98528298D01*
X52400117Y-98657452D01*
X52426155Y-98676370D01*
X52569184Y-98749247D01*
X52650616Y-98790739D01*
X52650618Y-98790739D01*
X52650621Y-98790741D01*
X52890215Y-98868590D01*
X53139038Y-98908000D01*
X53139039Y-98908000D01*
X54190961Y-98908000D01*
X54190962Y-98908000D01*
X54439785Y-98868590D01*
X54679379Y-98790741D01*
X54903845Y-98676370D01*
X55107656Y-98528293D01*
X55285793Y-98350156D01*
X55433870Y-98146345D01*
X55548241Y-97921879D01*
X55626090Y-97682285D01*
X55665500Y-97433462D01*
X55665500Y-97181538D01*
X55626090Y-96932715D01*
X55548241Y-96693121D01*
X55548239Y-96693118D01*
X55548239Y-96693116D01*
X55463233Y-96526284D01*
X55433870Y-96468655D01*
X55368302Y-96378408D01*
X55285798Y-96264850D01*
X55285794Y-96264845D01*
X55146130Y-96125181D01*
X55112645Y-96063858D01*
X55117629Y-95994166D01*
X55146130Y-95949819D01*
X55285793Y-95810156D01*
X55433870Y-95606345D01*
X55548241Y-95381879D01*
X55626090Y-95142285D01*
X55665500Y-94893462D01*
X55665500Y-94641538D01*
X55626090Y-94392715D01*
X55548241Y-94153121D01*
X55548239Y-94153118D01*
X55548239Y-94153116D01*
X55506747Y-94071684D01*
X55433870Y-93928655D01*
X55285823Y-93724885D01*
X55285798Y-93724850D01*
X55285794Y-93724845D01*
X55146130Y-93585181D01*
X55112645Y-93523858D01*
X55117629Y-93454166D01*
X55146130Y-93409819D01*
X55285793Y-93270156D01*
X55433870Y-93066345D01*
X55548241Y-92841879D01*
X55626090Y-92602285D01*
X55665500Y-92353462D01*
X55665500Y-92101538D01*
X55626090Y-91852715D01*
X55548241Y-91613121D01*
X55548239Y-91613118D01*
X55548239Y-91613116D01*
X55506747Y-91531684D01*
X55433870Y-91388655D01*
X55414952Y-91362617D01*
X55285798Y-91184850D01*
X55285794Y-91184845D01*
X55146130Y-91045181D01*
X55112645Y-90983858D01*
X55117629Y-90914166D01*
X55146130Y-90869819D01*
X55201777Y-90814172D01*
X55285793Y-90730156D01*
X55433870Y-90526345D01*
X55548241Y-90301879D01*
X55626090Y-90062285D01*
X55665500Y-89813462D01*
X55665500Y-89561538D01*
X55626090Y-89312715D01*
X55548241Y-89073121D01*
X55548239Y-89073118D01*
X55548239Y-89073116D01*
X55506747Y-88991684D01*
X55433870Y-88848655D01*
X55350239Y-88733546D01*
X55285798Y-88644850D01*
X55285794Y-88644845D01*
X55146130Y-88505181D01*
X55112645Y-88443858D01*
X55117629Y-88374166D01*
X55146130Y-88329819D01*
X55194620Y-88281329D01*
X55285793Y-88190156D01*
X55433870Y-87986345D01*
X55548241Y-87761879D01*
X55626090Y-87522285D01*
X55665500Y-87273462D01*
X55665500Y-87021538D01*
X55626090Y-86772715D01*
X55548241Y-86533121D01*
X55548239Y-86533118D01*
X55548239Y-86533116D01*
X55506747Y-86451684D01*
X55433870Y-86308655D01*
X55285823Y-86104885D01*
X55285798Y-86104850D01*
X55285794Y-86104845D01*
X55146130Y-85965181D01*
X55112645Y-85903858D01*
X55117629Y-85834166D01*
X55146130Y-85789819D01*
X55285793Y-85650156D01*
X55433870Y-85446345D01*
X55548241Y-85221879D01*
X55626090Y-84982285D01*
X55665500Y-84733462D01*
X55665500Y-84481538D01*
X55626090Y-84232715D01*
X55548241Y-83993121D01*
X55548239Y-83993118D01*
X55548239Y-83993116D01*
X55506747Y-83911684D01*
X55433870Y-83768655D01*
X55291296Y-83572418D01*
X55285798Y-83564850D01*
X55285794Y-83564845D01*
X55146130Y-83425181D01*
X55112645Y-83363858D01*
X55117629Y-83294166D01*
X55146130Y-83249819D01*
X55191999Y-83203950D01*
X55285793Y-83110156D01*
X55433870Y-82906345D01*
X55548241Y-82681879D01*
X55626090Y-82442285D01*
X55665500Y-82193462D01*
X55665500Y-81941538D01*
X55626090Y-81692715D01*
X55548241Y-81453121D01*
X55548239Y-81453118D01*
X55548239Y-81453116D01*
X55506747Y-81371684D01*
X55433870Y-81228655D01*
X55414952Y-81202617D01*
X55285798Y-81024850D01*
X55285794Y-81024845D01*
X55107654Y-80846705D01*
X55107649Y-80846701D01*
X54903848Y-80698632D01*
X54903847Y-80698631D01*
X54903845Y-80698630D01*
X54788418Y-80639817D01*
X54679383Y-80584260D01*
X54439785Y-80506410D01*
X54286930Y-80482200D01*
X54190962Y-80467000D01*
X53139038Y-80467000D01*
X53043076Y-80482199D01*
X52890214Y-80506410D01*
X52650616Y-80584260D01*
X52426151Y-80698632D01*
X52222350Y-80846701D01*
X52222345Y-80846705D01*
X52044205Y-81024845D01*
X52044201Y-81024850D01*
X51896132Y-81228651D01*
X51781760Y-81453116D01*
X51703910Y-81692714D01*
X51664500Y-81941538D01*
X51664500Y-82193461D01*
X51703910Y-82442285D01*
X51781760Y-82681883D01*
X51896132Y-82906348D01*
X52044176Y-83110115D01*
X52067656Y-83175921D01*
X52051830Y-83243975D01*
X52001724Y-83292670D01*
X51943858Y-83307000D01*
X48024486Y-83307000D01*
X47957447Y-83287315D01*
X47911692Y-83234511D01*
X47901748Y-83165353D01*
X47915128Y-83124547D01*
X47970230Y-83021458D01*
X47970231Y-83021456D01*
X47970232Y-83021454D01*
X48030300Y-82823434D01*
X48045500Y-82669108D01*
X48045500Y-81465892D01*
X48030300Y-81311566D01*
X47970232Y-81113546D01*
X47872685Y-80931050D01*
X47803462Y-80846701D01*
X47741410Y-80771089D01*
X47581452Y-80639817D01*
X47581453Y-80639817D01*
X47581450Y-80639815D01*
X47398954Y-80542268D01*
X47200934Y-80482200D01*
X47200932Y-80482199D01*
X47200934Y-80482199D01*
X47081805Y-80470466D01*
X47046608Y-80467000D01*
X45043392Y-80467000D01*
X45005298Y-80470751D01*
X44889067Y-80482199D01*
X44691043Y-80542269D01*
X44612487Y-80584259D01*
X44508550Y-80639815D01*
X44508548Y-80639816D01*
X44508547Y-80639817D01*
X44348589Y-80771089D01*
X44217317Y-80931047D01*
X44119769Y-81113543D01*
X44059699Y-81311567D01*
X44048251Y-81427798D01*
X44044500Y-81465892D01*
X20500500Y-81465892D01*
X20500500Y-80448053D01*
X47754917Y-80448053D01*
X52026511Y-80448053D01*
X52026511Y-77033603D01*
X47754917Y-77033603D01*
X47754917Y-80448053D01*
X20500500Y-80448053D01*
X20500500Y-44078053D01*
X27043071Y-44078053D01*
X28746907Y-44078053D01*
X28813946Y-44097738D01*
X28859701Y-44150542D01*
X28869645Y-44219700D01*
X28840620Y-44283256D01*
X28781842Y-44321030D01*
X28766305Y-44324526D01*
X28683506Y-44337640D01*
X28436423Y-44417922D01*
X28204945Y-44535868D01*
X27994774Y-44688566D01*
X27994768Y-44688571D01*
X27811071Y-44872268D01*
X27811066Y-44872274D01*
X27658368Y-45082445D01*
X27540422Y-45313923D01*
X27460140Y-45561006D01*
X27419500Y-45817597D01*
X27419500Y-46077402D01*
X27460140Y-46333993D01*
X27540422Y-46581076D01*
X27658368Y-46812554D01*
X27703213Y-46874279D01*
X27726693Y-46940085D01*
X27710867Y-47008139D01*
X27690577Y-47034845D01*
X27590183Y-47135239D01*
X27494211Y-47287976D01*
X27434631Y-47458245D01*
X27434630Y-47458250D01*
X27419500Y-47592539D01*
X27419500Y-49382460D01*
X27434630Y-49516749D01*
X27434631Y-49516754D01*
X27494211Y-49687023D01*
X27590182Y-49839759D01*
X27590184Y-49839762D01*
X27717738Y-49967316D01*
X27717742Y-49967319D01*
X27722809Y-49971359D01*
X27762952Y-50028546D01*
X27769500Y-50068309D01*
X27769500Y-50741551D01*
X27801522Y-50943734D01*
X27864781Y-51138423D01*
X27911246Y-51229614D01*
X27957713Y-51320811D01*
X28078034Y-51486419D01*
X28078036Y-51486421D01*
X59213781Y-82622166D01*
X59247266Y-82683489D01*
X59250100Y-82709847D01*
X59250100Y-103795456D01*
X59262963Y-103876668D01*
X59282122Y-103997630D01*
X59345378Y-104192316D01*
X59370968Y-104242539D01*
X59386208Y-104272449D01*
X59438313Y-104374711D01*
X59558634Y-104540319D01*
X59558636Y-104540321D01*
X59587223Y-104568908D01*
X59620708Y-104630231D01*
X59622015Y-104637189D01*
X59633909Y-104712283D01*
X59711760Y-104951881D01*
X59826132Y-105176348D01*
X59974201Y-105380149D01*
X59974205Y-105380154D01*
X60152345Y-105558294D01*
X60152350Y-105558298D01*
X60164881Y-105567402D01*
X60356155Y-105706370D01*
X60499184Y-105779247D01*
X60580616Y-105820739D01*
X60580618Y-105820739D01*
X60580621Y-105820741D01*
X60820215Y-105898590D01*
X61069038Y-105938000D01*
X61069039Y-105938000D01*
X61320961Y-105938000D01*
X61320962Y-105938000D01*
X61569785Y-105898590D01*
X61809379Y-105820741D01*
X62033845Y-105706370D01*
X62237656Y-105558293D01*
X62415793Y-105380156D01*
X62563870Y-105176345D01*
X62678241Y-104951879D01*
X62756090Y-104712285D01*
X62795500Y-104463462D01*
X62795500Y-104211538D01*
X67214500Y-104211538D01*
X67214500Y-104463462D01*
X67220909Y-104503928D01*
X67253910Y-104712285D01*
X67331760Y-104951883D01*
X67446132Y-105176348D01*
X67594201Y-105380149D01*
X67594205Y-105380154D01*
X67772345Y-105558294D01*
X67772350Y-105558298D01*
X67784881Y-105567402D01*
X67976155Y-105706370D01*
X68119184Y-105779247D01*
X68200616Y-105820739D01*
X68200618Y-105820739D01*
X68200621Y-105820741D01*
X68440215Y-105898590D01*
X68689038Y-105938000D01*
X68689039Y-105938000D01*
X68940961Y-105938000D01*
X68940962Y-105938000D01*
X69189785Y-105898590D01*
X69429379Y-105820741D01*
X69653845Y-105706370D01*
X69857656Y-105558293D01*
X70035793Y-105380156D01*
X70183870Y-105176345D01*
X70298241Y-104951879D01*
X70376090Y-104712285D01*
X70415500Y-104463462D01*
X70415500Y-104211538D01*
X74364500Y-104211538D01*
X74364500Y-104463462D01*
X74370909Y-104503928D01*
X74403910Y-104712285D01*
X74481760Y-104951883D01*
X74596132Y-105176348D01*
X74744201Y-105380149D01*
X74744205Y-105380154D01*
X74922345Y-105558294D01*
X74922350Y-105558298D01*
X74934881Y-105567402D01*
X75126155Y-105706370D01*
X75269184Y-105779247D01*
X75350616Y-105820739D01*
X75350618Y-105820739D01*
X75350621Y-105820741D01*
X75590215Y-105898590D01*
X75839038Y-105938000D01*
X75839039Y-105938000D01*
X76090961Y-105938000D01*
X76090962Y-105938000D01*
X76339785Y-105898590D01*
X76579379Y-105820741D01*
X76803845Y-105706370D01*
X77007656Y-105558293D01*
X77185793Y-105380156D01*
X77333870Y-105176345D01*
X77448241Y-104951879D01*
X77526090Y-104712285D01*
X77565500Y-104463462D01*
X77565500Y-104211538D01*
X77526090Y-103962715D01*
X77448241Y-103723121D01*
X77448239Y-103723118D01*
X77448239Y-103723116D01*
X77389544Y-103607921D01*
X77333870Y-103498655D01*
X77265500Y-103404551D01*
X77185798Y-103294850D01*
X77185794Y-103294845D01*
X77007654Y-103116705D01*
X77007649Y-103116701D01*
X76803848Y-102968632D01*
X76803847Y-102968631D01*
X76803845Y-102968630D01*
X76688801Y-102910012D01*
X76579383Y-102854260D01*
X76339785Y-102776410D01*
X76339779Y-102776409D01*
X76167705Y-102749155D01*
X77712357Y-102749155D01*
X81910797Y-102749155D01*
X81910797Y-99333603D01*
X77712357Y-99333603D01*
X77712357Y-102749155D01*
X76167705Y-102749155D01*
X76090962Y-102737000D01*
X75839038Y-102737000D01*
X75762295Y-102749155D01*
X75590214Y-102776410D01*
X75350616Y-102854260D01*
X75126151Y-102968632D01*
X74922350Y-103116701D01*
X74922345Y-103116705D01*
X74744205Y-103294845D01*
X74744201Y-103294850D01*
X74596132Y-103498651D01*
X74481760Y-103723116D01*
X74403910Y-103962714D01*
X74403910Y-103962715D01*
X74364500Y-104211538D01*
X70415500Y-104211538D01*
X70376090Y-103962715D01*
X70298241Y-103723121D01*
X70298239Y-103723118D01*
X70298239Y-103723116D01*
X70239544Y-103607921D01*
X70183870Y-103498655D01*
X70115500Y-103404551D01*
X70035798Y-103294850D01*
X70035794Y-103294845D01*
X69857654Y-103116705D01*
X69857649Y-103116701D01*
X69653848Y-102968632D01*
X69653847Y-102968631D01*
X69653845Y-102968630D01*
X69538801Y-102910012D01*
X69429383Y-102854260D01*
X69189785Y-102776410D01*
X69189779Y-102776409D01*
X68940962Y-102737000D01*
X68689038Y-102737000D01*
X68612295Y-102749155D01*
X68440214Y-102776410D01*
X68200616Y-102854260D01*
X67976151Y-102968632D01*
X67772350Y-103116701D01*
X67772345Y-103116705D01*
X67594205Y-103294845D01*
X67594201Y-103294850D01*
X67446132Y-103498651D01*
X67331760Y-103723116D01*
X67253910Y-103962714D01*
X67253910Y-103962715D01*
X67214500Y-104211538D01*
X62795500Y-104211538D01*
X62756090Y-103962715D01*
X62678241Y-103723121D01*
X62678239Y-103723118D01*
X62678239Y-103723116D01*
X62619544Y-103607921D01*
X62563870Y-103498655D01*
X62495500Y-103404551D01*
X62415798Y-103294850D01*
X62415794Y-103294845D01*
X62237654Y-103116705D01*
X62237649Y-103116701D01*
X62033846Y-102968630D01*
X61918804Y-102910012D01*
X61868009Y-102862038D01*
X61851100Y-102799528D01*
X61851100Y-102749155D01*
X62942357Y-102749155D01*
X67139072Y-102749155D01*
X67139072Y-99332484D01*
X62942357Y-99332484D01*
X62942357Y-102749155D01*
X61851100Y-102749155D01*
X61851100Y-91363349D01*
X61870785Y-91296310D01*
X61923589Y-91250555D01*
X61992747Y-91240611D01*
X62011093Y-91244688D01*
X62103763Y-91272799D01*
X62103765Y-91272800D01*
X62142347Y-91276600D01*
X62258092Y-91288000D01*
X62258095Y-91288000D01*
X63461305Y-91288000D01*
X63461308Y-91288000D01*
X63615634Y-91272800D01*
X63813654Y-91212732D01*
X63996150Y-91115185D01*
X64156110Y-90983910D01*
X64287385Y-90823950D01*
X64384932Y-90641454D01*
X64445000Y-90443434D01*
X64460200Y-90289108D01*
X64460200Y-89561538D01*
X64759200Y-89561538D01*
X64759200Y-89813461D01*
X64798610Y-90062285D01*
X64876460Y-90301883D01*
X64937761Y-90422192D01*
X64972158Y-90489700D01*
X64990832Y-90526348D01*
X65138901Y-90730149D01*
X65138905Y-90730154D01*
X65317045Y-90908294D01*
X65317050Y-90908298D01*
X65493832Y-91036737D01*
X65520855Y-91056370D01*
X65636286Y-91115185D01*
X65745316Y-91170739D01*
X65745318Y-91170739D01*
X65745321Y-91170741D01*
X65873749Y-91212470D01*
X65984914Y-91248590D01*
X66024139Y-91254802D01*
X66060006Y-91260483D01*
X66123141Y-91290412D01*
X66128290Y-91295275D01*
X67467308Y-92634292D01*
X67467322Y-92634307D01*
X67470433Y-92637418D01*
X67470434Y-92637419D01*
X67615181Y-92782166D01*
X67697370Y-92841879D01*
X67780789Y-92902487D01*
X67871985Y-92948953D01*
X67876350Y-92951177D01*
X67963180Y-92995420D01*
X67963186Y-92995422D01*
X67984691Y-93002409D01*
X68060523Y-93027048D01*
X68157865Y-93058677D01*
X68206279Y-93066345D01*
X68360048Y-93090700D01*
X68360049Y-93090700D01*
X68564752Y-93090700D01*
X77411653Y-93090700D01*
X77478692Y-93110385D01*
X77499334Y-93127019D01*
X82248181Y-97875865D01*
X82281666Y-97937188D01*
X82284500Y-97963546D01*
X82284500Y-103364261D01*
X82264815Y-103431300D01*
X82260818Y-103437146D01*
X82216132Y-103498651D01*
X82101760Y-103723116D01*
X82023910Y-103962714D01*
X82023910Y-103962715D01*
X81984500Y-104211538D01*
X81984500Y-104463462D01*
X81990909Y-104503928D01*
X82023910Y-104712285D01*
X82101760Y-104951883D01*
X82216132Y-105176348D01*
X82364201Y-105380149D01*
X82364205Y-105380154D01*
X82542345Y-105558294D01*
X82542350Y-105558298D01*
X82554881Y-105567402D01*
X82746155Y-105706370D01*
X82889184Y-105779247D01*
X82970616Y-105820739D01*
X82970618Y-105820739D01*
X82970621Y-105820741D01*
X83210215Y-105898590D01*
X83459038Y-105938000D01*
X83459039Y-105938000D01*
X83710961Y-105938000D01*
X83710962Y-105938000D01*
X83959785Y-105898590D01*
X84199379Y-105820741D01*
X84423845Y-105706370D01*
X84627656Y-105558293D01*
X84805793Y-105380156D01*
X84953870Y-105176345D01*
X85068241Y-104951879D01*
X85146090Y-104712285D01*
X85185500Y-104463462D01*
X85185500Y-104211538D01*
X89134500Y-104211538D01*
X89134500Y-104463462D01*
X89140909Y-104503928D01*
X89173910Y-104712285D01*
X89251760Y-104951883D01*
X89366132Y-105176348D01*
X89514201Y-105380149D01*
X89514205Y-105380154D01*
X89692345Y-105558294D01*
X89692350Y-105558298D01*
X89704881Y-105567402D01*
X89896155Y-105706370D01*
X90039184Y-105779247D01*
X90120616Y-105820739D01*
X90120618Y-105820739D01*
X90120621Y-105820741D01*
X90360215Y-105898590D01*
X90609038Y-105938000D01*
X90609039Y-105938000D01*
X90860961Y-105938000D01*
X90860962Y-105938000D01*
X91109785Y-105898590D01*
X91349379Y-105820741D01*
X91573845Y-105706370D01*
X91622547Y-105670985D01*
X91676314Y-105631923D01*
X91777649Y-105558298D01*
X91777647Y-105558298D01*
X91777656Y-105558293D01*
X91955793Y-105380156D01*
X92103870Y-105176345D01*
X92218241Y-104951879D01*
X92296090Y-104712285D01*
X92335500Y-104463462D01*
X92335500Y-104211538D01*
X92296090Y-103962715D01*
X92218241Y-103723121D01*
X92218239Y-103723118D01*
X92218239Y-103723116D01*
X92159544Y-103607921D01*
X92103870Y-103498655D01*
X92035500Y-103404551D01*
X91955798Y-103294850D01*
X91955794Y-103294845D01*
X91777654Y-103116705D01*
X91777649Y-103116701D01*
X91573848Y-102968632D01*
X91573847Y-102968631D01*
X91573845Y-102968630D01*
X91458801Y-102910012D01*
X91349383Y-102854260D01*
X91109785Y-102776410D01*
X91109779Y-102776409D01*
X90860962Y-102737000D01*
X90609038Y-102737000D01*
X90532295Y-102749155D01*
X90360214Y-102776410D01*
X90120616Y-102854260D01*
X89896151Y-102968632D01*
X89692350Y-103116701D01*
X89692345Y-103116705D01*
X89514205Y-103294845D01*
X89514201Y-103294850D01*
X89366132Y-103498651D01*
X89251760Y-103723116D01*
X89173910Y-103962714D01*
X89173910Y-103962715D01*
X89134500Y-104211538D01*
X85185500Y-104211538D01*
X85146090Y-103962715D01*
X85068241Y-103723121D01*
X85068239Y-103723118D01*
X85068239Y-103723116D01*
X85009544Y-103607921D01*
X84953870Y-103498655D01*
X84945402Y-103487000D01*
X84909182Y-103437146D01*
X84885702Y-103371340D01*
X84885500Y-103364261D01*
X84885500Y-97271148D01*
X84871307Y-97181538D01*
X84853477Y-97068966D01*
X84839641Y-97026382D01*
X84809207Y-96932714D01*
X84790223Y-96874286D01*
X84697914Y-96693121D01*
X84697287Y-96691890D01*
X84687414Y-96678301D01*
X84576966Y-96526281D01*
X84432219Y-96381534D01*
X84432218Y-96381533D01*
X84429107Y-96378422D01*
X84429092Y-96378408D01*
X82203800Y-94153116D01*
X79928562Y-91877877D01*
X79895079Y-91816557D01*
X79900063Y-91746865D01*
X79928562Y-91702520D01*
X80308029Y-91323053D01*
X82292625Y-91323053D01*
X86565197Y-91323053D01*
X86565197Y-87908603D01*
X82292625Y-87908603D01*
X82292625Y-91323053D01*
X80308029Y-91323053D01*
X80335809Y-91295273D01*
X80397130Y-91261790D01*
X80404049Y-91260489D01*
X80479185Y-91248590D01*
X80718779Y-91170741D01*
X80943245Y-91056370D01*
X81147056Y-90908293D01*
X81325193Y-90730156D01*
X81473270Y-90526345D01*
X81587641Y-90301879D01*
X81665490Y-90062285D01*
X81704900Y-89813462D01*
X81704900Y-89561538D01*
X81665490Y-89312715D01*
X81587641Y-89073121D01*
X81587639Y-89073118D01*
X81587639Y-89073116D01*
X81546147Y-88991684D01*
X81473270Y-88848655D01*
X81389639Y-88733546D01*
X81325198Y-88644850D01*
X81325194Y-88644845D01*
X81147054Y-88466705D01*
X81147049Y-88466701D01*
X80943248Y-88318632D01*
X80943247Y-88318631D01*
X80943245Y-88318630D01*
X80827818Y-88259817D01*
X80718783Y-88204260D01*
X80479185Y-88126410D01*
X80479179Y-88126409D01*
X80230362Y-88087000D01*
X79978438Y-88087000D01*
X79882476Y-88102199D01*
X79729614Y-88126410D01*
X79490016Y-88204260D01*
X79265551Y-88318632D01*
X79061750Y-88466701D01*
X79061745Y-88466705D01*
X78883605Y-88644845D01*
X78883601Y-88644850D01*
X78735532Y-88848651D01*
X78621160Y-89073118D01*
X78543309Y-89312716D01*
X78531415Y-89387810D01*
X78522298Y-89407039D01*
X78517775Y-89427836D01*
X78503225Y-89447271D01*
X78501485Y-89450944D01*
X78496625Y-89456090D01*
X78416579Y-89536135D01*
X78355259Y-89569619D01*
X78285567Y-89564635D01*
X78229633Y-89522764D01*
X78205216Y-89457300D01*
X78204900Y-89448453D01*
X78204900Y-89085895D01*
X78203641Y-89073116D01*
X78189700Y-88931566D01*
X78129632Y-88733546D01*
X78032085Y-88551050D01*
X77955261Y-88457439D01*
X77900810Y-88391089D01*
X77740852Y-88259817D01*
X77740853Y-88259817D01*
X77740850Y-88259815D01*
X77558354Y-88162268D01*
X77360334Y-88102200D01*
X77360332Y-88102199D01*
X77360334Y-88102199D01*
X77241205Y-88090466D01*
X77206008Y-88087000D01*
X76002792Y-88087000D01*
X75964698Y-88090751D01*
X75848467Y-88102199D01*
X75650443Y-88162269D01*
X75540298Y-88221143D01*
X75467950Y-88259815D01*
X75467948Y-88259816D01*
X75467947Y-88259817D01*
X75307989Y-88391089D01*
X75176717Y-88551047D01*
X75079169Y-88733543D01*
X75019099Y-88931567D01*
X75007651Y-89047798D01*
X75003900Y-89085892D01*
X75003900Y-90289108D01*
X75010247Y-90353546D01*
X74997228Y-90422192D01*
X74949163Y-90472902D01*
X74886844Y-90489700D01*
X69052446Y-90489700D01*
X68985407Y-90470015D01*
X68964765Y-90453381D01*
X67967475Y-89456090D01*
X67933990Y-89394767D01*
X67932683Y-89387806D01*
X67920790Y-89312714D01*
X67884670Y-89201549D01*
X67842941Y-89073121D01*
X67842939Y-89073118D01*
X67842939Y-89073116D01*
X67801447Y-88991684D01*
X67728570Y-88848655D01*
X67644939Y-88733546D01*
X67580498Y-88644850D01*
X67580494Y-88644845D01*
X67402354Y-88466705D01*
X67402349Y-88466701D01*
X67198548Y-88318632D01*
X67198547Y-88318631D01*
X67198545Y-88318630D01*
X67083118Y-88259817D01*
X66974083Y-88204260D01*
X66734485Y-88126410D01*
X66734479Y-88126409D01*
X66485662Y-88087000D01*
X66233738Y-88087000D01*
X66137776Y-88102199D01*
X65984914Y-88126410D01*
X65745316Y-88204260D01*
X65520851Y-88318632D01*
X65317050Y-88466701D01*
X65317045Y-88466705D01*
X65138905Y-88644845D01*
X65138901Y-88644850D01*
X64990832Y-88848651D01*
X64876460Y-89073116D01*
X64798610Y-89312714D01*
X64759200Y-89561538D01*
X64460200Y-89561538D01*
X64460200Y-89085892D01*
X64445000Y-88931566D01*
X64384932Y-88733546D01*
X64287385Y-88551050D01*
X64210561Y-88457439D01*
X64156110Y-88391089D01*
X63996152Y-88259817D01*
X63996153Y-88259817D01*
X63996150Y-88259815D01*
X63813654Y-88162268D01*
X63615634Y-88102200D01*
X63615632Y-88102199D01*
X63615634Y-88102199D01*
X63496505Y-88090466D01*
X63461308Y-88087000D01*
X62258092Y-88087000D01*
X62219998Y-88090751D01*
X62103767Y-88102199D01*
X62011095Y-88130311D01*
X61941228Y-88130934D01*
X61882115Y-88093685D01*
X61852524Y-88030391D01*
X61851100Y-88011650D01*
X61851100Y-85348053D01*
X62375576Y-85348053D01*
X66646423Y-85348053D01*
X76120276Y-85348053D01*
X80392848Y-85348053D01*
X80392848Y-81933603D01*
X76120276Y-81933603D01*
X76120276Y-85348053D01*
X66646423Y-85348053D01*
X66646423Y-81932484D01*
X62375576Y-81932484D01*
X62375576Y-85348053D01*
X61851100Y-85348053D01*
X61851100Y-82017448D01*
X61832580Y-81900520D01*
X61819077Y-81815266D01*
X61755820Y-81620581D01*
X61755818Y-81620578D01*
X61755818Y-81620576D01*
X61677003Y-81465895D01*
X61662887Y-81438190D01*
X61655156Y-81427549D01*
X61542571Y-81272586D01*
X40325207Y-60055222D01*
X45194500Y-60055222D01*
X45194500Y-60369777D01*
X45229716Y-60682327D01*
X45229718Y-60682343D01*
X45299710Y-60988999D01*
X45299711Y-60989001D01*
X45403598Y-61285895D01*
X45540072Y-61569286D01*
X45540074Y-61569289D01*
X45707423Y-61835623D01*
X45903539Y-62081544D01*
X46125956Y-62303961D01*
X46371877Y-62500077D01*
X46638211Y-62667426D01*
X46921606Y-62803902D01*
X47218500Y-62907789D01*
X47525160Y-62977782D01*
X47837723Y-63012999D01*
X47837724Y-63013000D01*
X47837727Y-63013000D01*
X48152276Y-63013000D01*
X48152276Y-63012999D01*
X48464840Y-62977782D01*
X48771500Y-62907789D01*
X49068394Y-62803902D01*
X49351789Y-62667426D01*
X49618123Y-62500077D01*
X49864044Y-62303961D01*
X50086461Y-62081544D01*
X50282577Y-61835623D01*
X50449926Y-61569289D01*
X50586402Y-61285894D01*
X50690289Y-60989000D01*
X50760282Y-60682340D01*
X50795500Y-60369773D01*
X50795500Y-60055227D01*
X50795499Y-60055222D01*
X73394500Y-60055222D01*
X73394500Y-60369777D01*
X73429716Y-60682327D01*
X73429718Y-60682343D01*
X73499710Y-60988999D01*
X73499711Y-60989001D01*
X73603598Y-61285895D01*
X73740072Y-61569286D01*
X73740074Y-61569289D01*
X73907423Y-61835623D01*
X74103539Y-62081544D01*
X74325956Y-62303961D01*
X74571877Y-62500077D01*
X74838211Y-62667426D01*
X75121606Y-62803902D01*
X75418500Y-62907789D01*
X75725160Y-62977782D01*
X76037723Y-63012999D01*
X76037724Y-63013000D01*
X76037727Y-63013000D01*
X76352276Y-63013000D01*
X76352276Y-63012999D01*
X76664840Y-62977782D01*
X76971500Y-62907789D01*
X77268394Y-62803902D01*
X77551789Y-62667426D01*
X77818123Y-62500077D01*
X78064044Y-62303961D01*
X78286461Y-62081544D01*
X78474040Y-61846328D01*
X79400214Y-61846328D01*
X83311215Y-61846328D01*
X83311215Y-58432484D01*
X79400214Y-58432484D01*
X79400214Y-61846328D01*
X78474040Y-61846328D01*
X78482577Y-61835623D01*
X78649926Y-61569289D01*
X78786402Y-61285894D01*
X78890289Y-60989000D01*
X78960282Y-60682340D01*
X78995500Y-60369773D01*
X78995500Y-60055227D01*
X78960282Y-59742660D01*
X78890289Y-59436000D01*
X78786402Y-59139106D01*
X78649926Y-58855711D01*
X78482577Y-58589377D01*
X78286461Y-58343456D01*
X78064044Y-58121039D01*
X77818123Y-57924923D01*
X77551789Y-57757574D01*
X77551786Y-57757572D01*
X77268395Y-57621098D01*
X76971501Y-57517211D01*
X76971499Y-57517210D01*
X76664843Y-57447218D01*
X76664827Y-57447216D01*
X76352277Y-57412000D01*
X76352273Y-57412000D01*
X76037727Y-57412000D01*
X76037722Y-57412000D01*
X75725172Y-57447216D01*
X75725156Y-57447218D01*
X75418500Y-57517210D01*
X75418498Y-57517211D01*
X75121604Y-57621098D01*
X74838213Y-57757572D01*
X74571878Y-57924922D01*
X74325956Y-58121038D01*
X74103538Y-58343456D01*
X73907422Y-58589378D01*
X73740072Y-58855713D01*
X73603598Y-59139104D01*
X73499711Y-59435998D01*
X73499710Y-59436000D01*
X73429718Y-59742656D01*
X73429716Y-59742672D01*
X73394500Y-60055222D01*
X50795499Y-60055222D01*
X50760282Y-59742660D01*
X50690289Y-59436000D01*
X50586402Y-59139106D01*
X50449926Y-58855711D01*
X50282577Y-58589377D01*
X50086461Y-58343456D01*
X49864044Y-58121039D01*
X49618123Y-57924923D01*
X49351789Y-57757574D01*
X49351786Y-57757572D01*
X49068395Y-57621098D01*
X48771501Y-57517211D01*
X48771499Y-57517210D01*
X48464843Y-57447218D01*
X48464827Y-57447216D01*
X48152277Y-57412000D01*
X48152273Y-57412000D01*
X47837727Y-57412000D01*
X47837722Y-57412000D01*
X47525172Y-57447216D01*
X47525156Y-57447218D01*
X47218500Y-57517210D01*
X47218498Y-57517211D01*
X46921604Y-57621098D01*
X46638213Y-57757572D01*
X46371878Y-57924922D01*
X46125956Y-58121038D01*
X45903538Y-58343456D01*
X45707422Y-58589378D01*
X45540072Y-58855713D01*
X45403598Y-59139104D01*
X45299711Y-59435998D01*
X45299710Y-59436000D01*
X45229718Y-59742656D01*
X45229716Y-59742672D01*
X45194500Y-60055222D01*
X40325207Y-60055222D01*
X37340880Y-57070895D01*
X84094500Y-57070895D01*
X84094500Y-58274104D01*
X84109699Y-58428432D01*
X84134850Y-58511345D01*
X84169768Y-58626454D01*
X84267315Y-58808950D01*
X84398547Y-58968858D01*
X84398590Y-58968910D01*
X84447049Y-59008680D01*
X84486383Y-59066426D01*
X84488254Y-59136270D01*
X84468703Y-59177418D01*
X84326129Y-59373655D01*
X84211760Y-59598116D01*
X84133910Y-59837714D01*
X84094500Y-60086538D01*
X84094500Y-60338461D01*
X84133910Y-60587285D01*
X84211760Y-60826883D01*
X84326132Y-61051348D01*
X84474201Y-61255149D01*
X84474205Y-61255154D01*
X84613870Y-61394819D01*
X84647355Y-61456142D01*
X84642371Y-61525834D01*
X84613870Y-61570181D01*
X84474205Y-61709845D01*
X84474201Y-61709850D01*
X84326132Y-61913651D01*
X84211760Y-62138116D01*
X84133910Y-62377714D01*
X84094500Y-62626538D01*
X84094500Y-62878461D01*
X84133910Y-63127285D01*
X84211760Y-63366883D01*
X84326132Y-63591348D01*
X84474201Y-63795149D01*
X84474205Y-63795154D01*
X84652345Y-63973294D01*
X84652350Y-63973298D01*
X84830117Y-64102452D01*
X84856155Y-64121370D01*
X84999184Y-64194247D01*
X85080616Y-64235739D01*
X85080618Y-64235739D01*
X85080621Y-64235741D01*
X85320215Y-64313590D01*
X85569038Y-64353000D01*
X85569039Y-64353000D01*
X86620961Y-64353000D01*
X86620962Y-64353000D01*
X86869785Y-64313590D01*
X87109379Y-64235741D01*
X87333845Y-64121370D01*
X87537656Y-63973293D01*
X87715793Y-63795156D01*
X87863870Y-63591345D01*
X87978241Y-63366879D01*
X88056090Y-63127285D01*
X88095500Y-62878462D01*
X88095500Y-62626538D01*
X88056090Y-62377715D01*
X87978241Y-62138121D01*
X87978239Y-62138118D01*
X87978239Y-62138116D01*
X87936747Y-62056684D01*
X87863870Y-61913655D01*
X87844952Y-61887617D01*
X87715798Y-61709850D01*
X87715794Y-61709845D01*
X87576130Y-61570181D01*
X87542645Y-61508858D01*
X87547629Y-61439166D01*
X87576130Y-61394819D01*
X87715793Y-61255156D01*
X87863870Y-61051345D01*
X87978241Y-60826879D01*
X88056090Y-60587285D01*
X88095500Y-60338462D01*
X88095500Y-60086538D01*
X88056090Y-59837715D01*
X87978241Y-59598121D01*
X87978239Y-59598118D01*
X87978239Y-59598116D01*
X87895635Y-59435998D01*
X87863870Y-59373655D01*
X87721296Y-59177418D01*
X87697816Y-59111612D01*
X87713641Y-59043558D01*
X87742948Y-59008681D01*
X87791410Y-58968910D01*
X87922685Y-58808950D01*
X88020232Y-58626454D01*
X88080300Y-58428434D01*
X88095500Y-58274108D01*
X88095500Y-57070892D01*
X88080300Y-56916566D01*
X88020232Y-56718546D01*
X87922685Y-56536050D01*
X87853462Y-56451701D01*
X87791410Y-56376089D01*
X87631452Y-56244817D01*
X87631453Y-56244817D01*
X87631450Y-56244815D01*
X87448954Y-56147268D01*
X87250934Y-56087200D01*
X87250932Y-56087199D01*
X87250934Y-56087199D01*
X87131805Y-56075466D01*
X87096608Y-56072000D01*
X85093392Y-56072000D01*
X85055298Y-56075751D01*
X84939067Y-56087199D01*
X84741043Y-56147269D01*
X84662487Y-56189259D01*
X84558550Y-56244815D01*
X84558548Y-56244816D01*
X84558547Y-56244817D01*
X84398589Y-56376089D01*
X84267317Y-56536047D01*
X84169769Y-56718543D01*
X84109699Y-56916567D01*
X84098251Y-57032798D01*
X84095759Y-57058116D01*
X84094500Y-57070895D01*
X37340880Y-57070895D01*
X30417462Y-50147477D01*
X30383977Y-50086154D01*
X30388961Y-50016462D01*
X30417462Y-49972114D01*
X30422256Y-49967319D01*
X30422262Y-49967316D01*
X30549816Y-49839762D01*
X30645789Y-49687022D01*
X30705368Y-49516755D01*
X30705792Y-49512999D01*
X30720499Y-49382460D01*
X30720500Y-49382456D01*
X30720500Y-47592543D01*
X30720499Y-47592539D01*
X30705369Y-47458250D01*
X30705368Y-47458245D01*
X30645788Y-47287976D01*
X30606582Y-47225580D01*
X30549816Y-47135238D01*
X30449423Y-47034845D01*
X30415938Y-46973522D01*
X30420922Y-46903830D01*
X30436784Y-46874280D01*
X30481634Y-46812551D01*
X30599579Y-46581072D01*
X30679860Y-46333993D01*
X30702539Y-46190798D01*
X30720500Y-46077402D01*
X30720500Y-45817597D01*
X30696733Y-45667539D01*
X30679860Y-45561007D01*
X30599579Y-45313928D01*
X30599577Y-45313925D01*
X30599577Y-45313923D01*
X30556787Y-45229945D01*
X30481634Y-45082449D01*
X30328931Y-44872271D01*
X30145229Y-44688569D01*
X29935051Y-44535866D01*
X29862764Y-44499034D01*
X29703576Y-44417922D01*
X29456493Y-44337640D01*
X29373695Y-44324526D01*
X29310560Y-44294597D01*
X29273629Y-44235285D01*
X29274627Y-44165423D01*
X29313237Y-44107190D01*
X29377200Y-44079076D01*
X29393093Y-44078053D01*
X31027225Y-44078053D01*
X31027225Y-40663687D01*
X27043071Y-40663687D01*
X27043071Y-44078053D01*
X20500500Y-44078053D01*
X20500500Y-35011723D01*
X24229500Y-35011723D01*
X24229500Y-35313276D01*
X24229501Y-35313293D01*
X24268861Y-35612266D01*
X24346913Y-35903560D01*
X24462314Y-36182161D01*
X24462318Y-36182171D01*
X24613099Y-36443331D01*
X24796679Y-36682578D01*
X24796685Y-36682585D01*
X25009914Y-36895814D01*
X25009921Y-36895820D01*
X25249168Y-37079400D01*
X25510328Y-37230181D01*
X25510329Y-37230181D01*
X25510332Y-37230183D01*
X25696072Y-37307119D01*
X25788939Y-37345586D01*
X25788940Y-37345586D01*
X25788942Y-37345587D01*
X26080232Y-37423638D01*
X26379217Y-37463000D01*
X26379224Y-37463000D01*
X26680776Y-37463000D01*
X26680783Y-37463000D01*
X26979768Y-37423638D01*
X27271058Y-37345587D01*
X27549668Y-37230183D01*
X27810832Y-37079400D01*
X28050080Y-36895819D01*
X28263319Y-36682580D01*
X28446900Y-36443332D01*
X28597683Y-36182168D01*
X28713087Y-35903558D01*
X28791138Y-35612268D01*
X28830500Y-35313283D01*
X28830500Y-35011717D01*
X28791138Y-34712732D01*
X28713087Y-34421442D01*
X28597683Y-34142832D01*
X28446900Y-33881668D01*
X28299486Y-33689553D01*
X28263320Y-33642421D01*
X28263314Y-33642414D01*
X28238439Y-33617539D01*
X29309500Y-33617539D01*
X29309500Y-36707460D01*
X29324630Y-36841749D01*
X29324631Y-36841754D01*
X29384211Y-37012023D01*
X29480184Y-37164762D01*
X29607738Y-37292316D01*
X29692517Y-37345586D01*
X29756661Y-37385891D01*
X29760478Y-37388289D01*
X29922117Y-37444849D01*
X29930745Y-37447868D01*
X29930750Y-37447869D01*
X30021246Y-37458065D01*
X30065040Y-37462999D01*
X30065043Y-37463000D01*
X30065046Y-37463000D01*
X33154957Y-37463000D01*
X33154958Y-37462999D01*
X33222104Y-37455434D01*
X33289249Y-37447869D01*
X33289252Y-37447868D01*
X33289255Y-37447868D01*
X33459522Y-37388289D01*
X33463334Y-37385894D01*
X44044500Y-37385894D01*
X44044500Y-39189104D01*
X44059699Y-39343432D01*
X44059700Y-39343435D01*
X44119768Y-39541455D01*
X44214903Y-39719439D01*
X44217317Y-39723954D01*
X44348589Y-39883910D01*
X44508545Y-40015182D01*
X44508549Y-40015185D01*
X44691045Y-40112732D01*
X44889065Y-40172800D01*
X44889064Y-40172800D01*
X44899968Y-40173873D01*
X45043391Y-40188000D01*
X46846608Y-40187999D01*
X47000935Y-40172800D01*
X47198955Y-40112732D01*
X47381451Y-40015185D01*
X47541410Y-39883910D01*
X47672685Y-39723951D01*
X47770232Y-39541455D01*
X47830300Y-39343435D01*
X47845500Y-39189109D01*
X47845499Y-38162941D01*
X54204500Y-38162941D01*
X54204500Y-38412058D01*
X54204501Y-38412075D01*
X54237017Y-38659061D01*
X54301498Y-38899707D01*
X54396830Y-39129861D01*
X54396837Y-39129876D01*
X54521400Y-39345626D01*
X54673060Y-39543274D01*
X54673066Y-39543281D01*
X54849218Y-39719433D01*
X54849225Y-39719439D01*
X55046873Y-39871099D01*
X55262623Y-39995662D01*
X55262638Y-39995669D01*
X55361825Y-40036753D01*
X55492793Y-40091002D01*
X55733435Y-40155482D01*
X55980435Y-40188000D01*
X55980442Y-40188000D01*
X56229558Y-40188000D01*
X56229565Y-40188000D01*
X56476565Y-40155482D01*
X56717207Y-40091002D01*
X56947373Y-39995664D01*
X57163127Y-39871099D01*
X57360776Y-39719438D01*
X57536938Y-39543276D01*
X57688599Y-39345627D01*
X57813164Y-39129873D01*
X57908502Y-38899707D01*
X57972982Y-38659065D01*
X58005500Y-38412065D01*
X58005500Y-38162935D01*
X57972982Y-37915935D01*
X57908502Y-37675293D01*
X57854253Y-37544325D01*
X57813169Y-37445138D01*
X57813168Y-37445135D01*
X57813165Y-37445130D01*
X57813164Y-37445127D01*
X57813004Y-37444851D01*
X57813004Y-37444849D01*
X57813002Y-37444847D01*
X57780348Y-37388289D01*
X57778965Y-37385894D01*
X61954500Y-37385894D01*
X61954500Y-39189104D01*
X61969699Y-39343432D01*
X61969700Y-39343435D01*
X62029768Y-39541455D01*
X62124903Y-39719439D01*
X62127317Y-39723954D01*
X62258589Y-39883910D01*
X62418545Y-40015182D01*
X62418549Y-40015185D01*
X62601045Y-40112732D01*
X62799065Y-40172800D01*
X62799064Y-40172800D01*
X62809968Y-40173873D01*
X62953391Y-40188000D01*
X64756608Y-40187999D01*
X64910935Y-40172800D01*
X65108955Y-40112732D01*
X65291451Y-40015185D01*
X65451410Y-39883910D01*
X65582685Y-39723951D01*
X65680232Y-39541455D01*
X65740300Y-39343435D01*
X65755500Y-39189109D01*
X65755499Y-38162941D01*
X72114500Y-38162941D01*
X72114500Y-38412058D01*
X72114501Y-38412075D01*
X72147017Y-38659061D01*
X72211498Y-38899707D01*
X72306830Y-39129861D01*
X72306837Y-39129876D01*
X72431400Y-39345626D01*
X72583060Y-39543274D01*
X72583066Y-39543281D01*
X72759218Y-39719433D01*
X72759225Y-39719439D01*
X72956873Y-39871099D01*
X73172623Y-39995662D01*
X73172638Y-39995669D01*
X73271825Y-40036753D01*
X73402793Y-40091002D01*
X73643435Y-40155482D01*
X73890435Y-40188000D01*
X74024953Y-40188000D01*
X74091992Y-40207685D01*
X74112634Y-40224319D01*
X89697981Y-55809666D01*
X89731466Y-55870989D01*
X89734300Y-55897347D01*
X89734300Y-88214290D01*
X89714615Y-88281329D01*
X89661811Y-88327084D01*
X89592653Y-88337028D01*
X89547617Y-88320779D01*
X89547586Y-88320842D01*
X89547091Y-88320590D01*
X89545517Y-88320022D01*
X89543247Y-88318631D01*
X89318783Y-88204260D01*
X89079185Y-88126410D01*
X89079179Y-88126409D01*
X88830362Y-88087000D01*
X88578438Y-88087000D01*
X88482476Y-88102199D01*
X88329614Y-88126410D01*
X88090016Y-88204260D01*
X87865551Y-88318632D01*
X87661750Y-88466701D01*
X87661745Y-88466705D01*
X87483605Y-88644845D01*
X87483601Y-88644850D01*
X87335532Y-88848651D01*
X87221160Y-89073116D01*
X87143310Y-89312714D01*
X87103900Y-89561538D01*
X87103900Y-89813461D01*
X87143310Y-90062285D01*
X87221160Y-90301883D01*
X87282461Y-90422192D01*
X87316858Y-90489700D01*
X87335532Y-90526348D01*
X87483601Y-90730149D01*
X87483605Y-90730154D01*
X87661745Y-90908294D01*
X87661750Y-90908298D01*
X87838532Y-91036737D01*
X87865555Y-91056370D01*
X87980986Y-91115185D01*
X88090016Y-91170739D01*
X88090018Y-91170739D01*
X88090021Y-91170741D01*
X88329615Y-91248590D01*
X88578438Y-91288000D01*
X88578439Y-91288000D01*
X88830361Y-91288000D01*
X88830362Y-91288000D01*
X89079185Y-91248590D01*
X89318779Y-91170741D01*
X89543245Y-91056370D01*
X89543251Y-91056365D01*
X89545505Y-91054985D01*
X89546481Y-91054720D01*
X89547586Y-91054158D01*
X89547704Y-91054389D01*
X89612950Y-91036737D01*
X89679553Y-91057850D01*
X89724169Y-91111620D01*
X89734300Y-91160709D01*
X89734300Y-97119651D01*
X89766323Y-97321835D01*
X89766323Y-97321838D01*
X89829578Y-97516516D01*
X89829580Y-97516519D01*
X89866316Y-97588618D01*
X89922513Y-97698911D01*
X90042834Y-97864519D01*
X90042836Y-97864521D01*
X96747223Y-104568908D01*
X96780708Y-104630231D01*
X96782015Y-104637189D01*
X96793909Y-104712283D01*
X96871760Y-104951881D01*
X96986132Y-105176348D01*
X97134201Y-105380149D01*
X97134205Y-105380154D01*
X97312345Y-105558294D01*
X97312350Y-105558298D01*
X97324881Y-105567402D01*
X97516155Y-105706370D01*
X97659184Y-105779247D01*
X97740616Y-105820739D01*
X97740618Y-105820739D01*
X97740621Y-105820741D01*
X97980215Y-105898590D01*
X98229038Y-105938000D01*
X98229039Y-105938000D01*
X98480961Y-105938000D01*
X98480962Y-105938000D01*
X98729785Y-105898590D01*
X98969379Y-105820741D01*
X99193845Y-105706370D01*
X99397656Y-105558293D01*
X99575793Y-105380156D01*
X99723870Y-105176345D01*
X99838241Y-104951879D01*
X99916090Y-104712285D01*
X99955500Y-104463462D01*
X99955500Y-104211538D01*
X99916090Y-103962715D01*
X99838241Y-103723121D01*
X99838239Y-103723118D01*
X99838239Y-103723116D01*
X99779544Y-103607921D01*
X99723870Y-103498655D01*
X99655500Y-103404551D01*
X99575798Y-103294850D01*
X99575794Y-103294845D01*
X99397654Y-103116705D01*
X99397649Y-103116701D01*
X99193848Y-102968632D01*
X99193847Y-102968631D01*
X99193845Y-102968630D01*
X98969379Y-102854259D01*
X98800935Y-102799528D01*
X98729783Y-102776409D01*
X98654689Y-102764515D01*
X98591555Y-102734585D01*
X98586408Y-102729723D01*
X92371619Y-96514934D01*
X92338134Y-96453611D01*
X92335300Y-96427253D01*
X92335300Y-90881211D01*
X92354985Y-90814172D01*
X92407789Y-90768417D01*
X92476947Y-90758473D01*
X92540503Y-90787498D01*
X92546981Y-90793530D01*
X92661745Y-90908294D01*
X92661750Y-90908298D01*
X92838532Y-91036737D01*
X92865555Y-91056370D01*
X92980986Y-91115185D01*
X93090016Y-91170739D01*
X93090018Y-91170739D01*
X93090021Y-91170741D01*
X93329615Y-91248590D01*
X93578438Y-91288000D01*
X93578439Y-91288000D01*
X93830361Y-91288000D01*
X93830362Y-91288000D01*
X94079185Y-91248590D01*
X94318779Y-91170741D01*
X94543245Y-91056370D01*
X94747056Y-90908293D01*
X94925193Y-90730156D01*
X95073270Y-90526345D01*
X95187641Y-90301879D01*
X95265490Y-90062285D01*
X95277384Y-89987187D01*
X95307311Y-89924057D01*
X95312157Y-89918926D01*
X118310150Y-66920932D01*
X118310157Y-66920927D01*
X118317217Y-66913867D01*
X118317219Y-66913866D01*
X118461966Y-66769119D01*
X118522126Y-66686314D01*
X118582287Y-66603511D01*
X118628753Y-66512314D01*
X118675220Y-66421119D01*
X118738477Y-66226434D01*
X118770500Y-66024252D01*
X118770500Y-49175458D01*
X118790185Y-49108419D01*
X118819014Y-49077082D01*
X118838642Y-49062021D01*
X118990080Y-48945819D01*
X119203319Y-48732580D01*
X119386900Y-48493332D01*
X119537683Y-48232168D01*
X119653087Y-47953558D01*
X119731138Y-47662268D01*
X119770500Y-47363283D01*
X119770500Y-47061717D01*
X119731138Y-46762732D01*
X119653087Y-46471442D01*
X119537683Y-46192832D01*
X119386900Y-45931668D01*
X119299375Y-45817603D01*
X119203320Y-45692421D01*
X119203314Y-45692414D01*
X118990085Y-45479185D01*
X118819013Y-45347916D01*
X118777811Y-45291488D01*
X118770500Y-45249540D01*
X118770500Y-37125458D01*
X118790185Y-37058419D01*
X118819014Y-37027082D01*
X118838641Y-37012022D01*
X118990080Y-36895819D01*
X119203319Y-36682580D01*
X119386900Y-36443332D01*
X119537683Y-36182168D01*
X119653087Y-35903558D01*
X119731138Y-35612268D01*
X119770500Y-35313283D01*
X119770500Y-35011717D01*
X119731138Y-34712732D01*
X119653087Y-34421442D01*
X119537683Y-34142832D01*
X119386900Y-33881668D01*
X119203320Y-33642421D01*
X119203314Y-33642414D01*
X118990085Y-33429185D01*
X118990078Y-33429179D01*
X118750831Y-33245599D01*
X118489671Y-33094818D01*
X118489661Y-33094814D01*
X118211060Y-32979413D01*
X117919766Y-32901361D01*
X117620793Y-32862001D01*
X117620788Y-32862000D01*
X117620783Y-32862000D01*
X117319217Y-32862000D01*
X117319211Y-32862000D01*
X117319206Y-32862001D01*
X117020233Y-32901361D01*
X116728939Y-32979413D01*
X116450338Y-33094814D01*
X116450328Y-33094818D01*
X116189168Y-33245599D01*
X115949921Y-33429179D01*
X115949914Y-33429185D01*
X115736685Y-33642414D01*
X115736679Y-33642421D01*
X115553099Y-33881668D01*
X115402318Y-34142828D01*
X115402314Y-34142838D01*
X115286913Y-34421439D01*
X115208861Y-34712733D01*
X115169501Y-35011706D01*
X115169500Y-35011723D01*
X115169500Y-35313276D01*
X115169501Y-35313293D01*
X115208861Y-35612266D01*
X115286913Y-35903560D01*
X115402314Y-36182161D01*
X115402318Y-36182171D01*
X115553099Y-36443331D01*
X115736679Y-36682578D01*
X115736685Y-36682585D01*
X115949914Y-36895814D01*
X115949921Y-36895820D01*
X116120986Y-37027082D01*
X116162189Y-37083510D01*
X116169500Y-37125458D01*
X116169500Y-45249540D01*
X116149815Y-45316579D01*
X116120987Y-45347916D01*
X115949914Y-45479185D01*
X115736685Y-45692414D01*
X115736679Y-45692421D01*
X115553099Y-45931668D01*
X115402318Y-46192828D01*
X115402314Y-46192838D01*
X115286913Y-46471439D01*
X115208861Y-46762733D01*
X115169501Y-47061706D01*
X115169500Y-47061723D01*
X115169500Y-47363276D01*
X115169501Y-47363293D01*
X115208861Y-47662266D01*
X115286913Y-47953560D01*
X115402314Y-48232161D01*
X115402318Y-48232171D01*
X115553099Y-48493331D01*
X115736679Y-48732578D01*
X115736685Y-48732585D01*
X115949914Y-48945814D01*
X115949921Y-48945820D01*
X116120986Y-49077082D01*
X116162189Y-49133510D01*
X116169500Y-49175458D01*
X116169500Y-65331852D01*
X116149815Y-65398891D01*
X116133181Y-65419533D01*
X93472990Y-88079723D01*
X93411667Y-88113208D01*
X93404709Y-88114515D01*
X93329617Y-88126409D01*
X93090018Y-88204260D01*
X92865551Y-88318632D01*
X92661750Y-88466701D01*
X92661745Y-88466705D01*
X92546981Y-88581470D01*
X92485658Y-88614955D01*
X92415966Y-88609971D01*
X92360033Y-88568099D01*
X92335616Y-88502635D01*
X92335300Y-88493789D01*
X92335300Y-64251950D01*
X92354985Y-64184911D01*
X92407789Y-64139156D01*
X92476947Y-64129212D01*
X92515591Y-64141463D01*
X92616659Y-64192960D01*
X92700616Y-64235739D01*
X92700618Y-64235739D01*
X92700621Y-64235741D01*
X92940215Y-64313590D01*
X93189038Y-64353000D01*
X93189039Y-64353000D01*
X94240961Y-64353000D01*
X94240962Y-64353000D01*
X94489785Y-64313590D01*
X94729379Y-64235741D01*
X94953845Y-64121370D01*
X95157656Y-63973293D01*
X95335793Y-63795156D01*
X95483870Y-63591345D01*
X95598241Y-63366879D01*
X95676090Y-63127285D01*
X95715500Y-62878462D01*
X95715500Y-62626538D01*
X95676090Y-62377715D01*
X95598241Y-62138121D01*
X95598239Y-62138118D01*
X95598239Y-62138116D01*
X95556747Y-62056684D01*
X95483870Y-61913655D01*
X95464952Y-61887617D01*
X95436207Y-61848053D01*
X96289917Y-61848053D01*
X100559786Y-61848053D01*
X100559786Y-58432484D01*
X96289917Y-58432484D01*
X96289917Y-61848053D01*
X95436207Y-61848053D01*
X95335798Y-61709850D01*
X95335794Y-61709845D01*
X95196130Y-61570181D01*
X95162645Y-61508858D01*
X95167629Y-61439166D01*
X95196130Y-61394819D01*
X95335793Y-61255156D01*
X95483870Y-61051345D01*
X95598241Y-60826879D01*
X95676090Y-60587285D01*
X95715500Y-60338462D01*
X95715500Y-60086538D01*
X95676090Y-59837715D01*
X95598241Y-59598121D01*
X95598239Y-59598118D01*
X95598239Y-59598116D01*
X95515635Y-59435998D01*
X95483870Y-59373655D01*
X95341296Y-59177418D01*
X95335798Y-59169850D01*
X95335794Y-59169845D01*
X95196130Y-59030181D01*
X95162645Y-58968858D01*
X95167629Y-58899166D01*
X95196130Y-58854819D01*
X95241999Y-58808950D01*
X95335793Y-58715156D01*
X95483870Y-58511345D01*
X95578907Y-58324825D01*
X95598238Y-58286886D01*
X95598238Y-58286882D01*
X95598241Y-58286879D01*
X95676090Y-58047285D01*
X95715500Y-57798462D01*
X95715500Y-57546538D01*
X95676090Y-57297715D01*
X95598241Y-57058121D01*
X95598239Y-57058118D01*
X95598239Y-57058116D01*
X95556747Y-56976684D01*
X95483870Y-56833655D01*
X95400239Y-56718546D01*
X95335798Y-56629850D01*
X95335794Y-56629845D01*
X95157654Y-56451705D01*
X95157649Y-56451701D01*
X94953848Y-56303632D01*
X94953847Y-56303631D01*
X94953845Y-56303630D01*
X94838418Y-56244817D01*
X94729383Y-56189260D01*
X94489785Y-56111410D01*
X94336930Y-56087200D01*
X94240962Y-56072000D01*
X93189038Y-56072000D01*
X93093076Y-56087199D01*
X92940214Y-56111410D01*
X92829856Y-56147268D01*
X92700621Y-56189259D01*
X92700618Y-56189260D01*
X92700616Y-56189261D01*
X92515595Y-56283534D01*
X92446925Y-56296430D01*
X92382185Y-56270154D01*
X92341928Y-56213047D01*
X92335300Y-56173049D01*
X92335300Y-55204948D01*
X92303277Y-55002765D01*
X92240018Y-54808076D01*
X92193553Y-54716885D01*
X92193552Y-54716884D01*
X92147087Y-54625689D01*
X92026766Y-54460081D01*
X82928861Y-45362176D01*
X105928071Y-45362176D01*
X105928071Y-48848053D01*
X110001357Y-48848053D01*
X110068396Y-48867738D01*
X110114151Y-48920542D01*
X110118399Y-48931099D01*
X110164210Y-49062021D01*
X110209130Y-49133510D01*
X110260184Y-49214762D01*
X110387738Y-49342316D01*
X110540478Y-49438289D01*
X110710745Y-49497868D01*
X110710750Y-49497869D01*
X110801246Y-49508065D01*
X110845040Y-49512999D01*
X110845043Y-49513000D01*
X110845046Y-49513000D01*
X113934957Y-49513000D01*
X113934958Y-49512999D01*
X114002104Y-49505434D01*
X114069249Y-49497869D01*
X114069252Y-49497868D01*
X114069255Y-49497868D01*
X114239522Y-49438289D01*
X114392262Y-49342316D01*
X114519816Y-49214762D01*
X114615789Y-49062022D01*
X114675368Y-48891755D01*
X114690500Y-48757454D01*
X114690500Y-45667546D01*
X114675368Y-45533245D01*
X114615789Y-45362978D01*
X114519816Y-45210238D01*
X114392262Y-45082684D01*
X114391882Y-45082445D01*
X114239523Y-44986711D01*
X114069254Y-44927131D01*
X114069249Y-44927130D01*
X113934960Y-44912000D01*
X113934954Y-44912000D01*
X110845046Y-44912000D01*
X110845039Y-44912000D01*
X110710750Y-44927130D01*
X110710745Y-44927131D01*
X110540476Y-44986711D01*
X110387737Y-45082684D01*
X110260182Y-45210239D01*
X110176906Y-45342772D01*
X110124572Y-45389062D01*
X110055518Y-45399710D01*
X109991670Y-45371335D01*
X109984232Y-45364480D01*
X109981928Y-45362176D01*
X105928071Y-45362176D01*
X82928861Y-45362176D01*
X75951819Y-38385134D01*
X75918334Y-38323811D01*
X75915500Y-38297453D01*
X75915500Y-38162941D01*
X75915500Y-38162935D01*
X75882982Y-37915935D01*
X75818502Y-37675293D01*
X75764253Y-37544325D01*
X75723169Y-37445138D01*
X75723162Y-37445123D01*
X75598599Y-37229373D01*
X75446939Y-37031725D01*
X75446933Y-37031718D01*
X75270781Y-36855566D01*
X75270774Y-36855560D01*
X75073126Y-36703900D01*
X74857376Y-36579337D01*
X74857361Y-36579330D01*
X74627207Y-36483998D01*
X74386561Y-36419517D01*
X74139575Y-36387001D01*
X74139570Y-36387000D01*
X74139565Y-36387000D01*
X73890435Y-36387000D01*
X73890429Y-36387000D01*
X73890424Y-36387001D01*
X73643438Y-36419517D01*
X73402792Y-36483998D01*
X73172638Y-36579330D01*
X73172623Y-36579337D01*
X72956873Y-36703900D01*
X72759225Y-36855560D01*
X72759218Y-36855566D01*
X72583066Y-37031718D01*
X72583060Y-37031725D01*
X72431400Y-37229373D01*
X72306837Y-37445123D01*
X72306830Y-37445138D01*
X72211498Y-37675292D01*
X72147017Y-37915938D01*
X72114501Y-38162924D01*
X72114500Y-38162941D01*
X65755499Y-38162941D01*
X65755499Y-37385892D01*
X65740300Y-37231565D01*
X65680232Y-37033545D01*
X65582685Y-36851049D01*
X65464845Y-36707460D01*
X65451410Y-36691089D01*
X65338045Y-36598053D01*
X66872357Y-36598053D01*
X71070797Y-36598053D01*
X71070797Y-33617539D01*
X110089500Y-33617539D01*
X110089500Y-36707460D01*
X110104630Y-36841749D01*
X110104631Y-36841754D01*
X110164211Y-37012023D01*
X110260184Y-37164762D01*
X110387738Y-37292316D01*
X110472517Y-37345586D01*
X110536661Y-37385891D01*
X110540478Y-37388289D01*
X110702117Y-37444849D01*
X110710745Y-37447868D01*
X110710750Y-37447869D01*
X110801246Y-37458065D01*
X110845040Y-37462999D01*
X110845043Y-37463000D01*
X110845046Y-37463000D01*
X113934957Y-37463000D01*
X113934958Y-37462999D01*
X114002104Y-37455434D01*
X114069249Y-37447869D01*
X114069252Y-37447868D01*
X114069255Y-37447868D01*
X114239522Y-37388289D01*
X114392262Y-37292316D01*
X114519816Y-37164762D01*
X114615789Y-37012022D01*
X114675368Y-36841755D01*
X114690500Y-36707454D01*
X114690500Y-33617546D01*
X114675368Y-33483245D01*
X114615789Y-33312978D01*
X114519816Y-33160238D01*
X114392262Y-33032684D01*
X114307482Y-32979413D01*
X114239523Y-32936711D01*
X114069254Y-32877131D01*
X114069249Y-32877130D01*
X113934960Y-32862000D01*
X113934954Y-32862000D01*
X110845046Y-32862000D01*
X110845039Y-32862000D01*
X110710750Y-32877130D01*
X110710745Y-32877131D01*
X110540476Y-32936711D01*
X110387737Y-33032684D01*
X110260184Y-33160237D01*
X110164211Y-33312976D01*
X110104631Y-33483245D01*
X110104630Y-33483250D01*
X110089500Y-33617539D01*
X71070797Y-33617539D01*
X71070797Y-33183603D01*
X66872357Y-33183603D01*
X66872357Y-36598053D01*
X65338045Y-36598053D01*
X65291454Y-36559817D01*
X65291452Y-36559816D01*
X65291451Y-36559815D01*
X65108955Y-36462268D01*
X64910935Y-36402200D01*
X64910933Y-36402199D01*
X64910935Y-36402199D01*
X64800222Y-36391295D01*
X64756609Y-36387000D01*
X64756605Y-36387000D01*
X62953395Y-36387000D01*
X62799067Y-36402199D01*
X62601042Y-36462269D01*
X62418545Y-36559817D01*
X62258589Y-36691089D01*
X62127317Y-36851045D01*
X62029769Y-37033542D01*
X61969699Y-37231566D01*
X61954500Y-37385894D01*
X57778965Y-37385894D01*
X57688599Y-37229373D01*
X57639021Y-37164762D01*
X57536939Y-37031725D01*
X57536933Y-37031718D01*
X57360781Y-36855566D01*
X57360774Y-36855560D01*
X57163126Y-36703900D01*
X56947376Y-36579337D01*
X56947361Y-36579330D01*
X56717207Y-36483998D01*
X56476561Y-36419517D01*
X56229575Y-36387001D01*
X56229570Y-36387000D01*
X56229565Y-36387000D01*
X55980435Y-36387000D01*
X55980429Y-36387000D01*
X55980424Y-36387001D01*
X55733438Y-36419517D01*
X55492792Y-36483998D01*
X55262638Y-36579330D01*
X55262623Y-36579337D01*
X55046873Y-36703900D01*
X54849225Y-36855560D01*
X54849218Y-36855566D01*
X54673066Y-37031718D01*
X54673060Y-37031725D01*
X54521400Y-37229373D01*
X54396837Y-37445123D01*
X54396830Y-37445138D01*
X54301498Y-37675292D01*
X54237017Y-37915938D01*
X54204501Y-38162924D01*
X54204500Y-38162941D01*
X47845499Y-38162941D01*
X47845499Y-37385892D01*
X47830300Y-37231565D01*
X47770232Y-37033545D01*
X47672685Y-36851049D01*
X47554845Y-36707460D01*
X47541410Y-36691089D01*
X47428045Y-36598053D01*
X48962357Y-36598053D01*
X53159072Y-36598053D01*
X53159072Y-33182484D01*
X48962357Y-33182484D01*
X48962357Y-36598053D01*
X47428045Y-36598053D01*
X47381454Y-36559817D01*
X47381452Y-36559816D01*
X47381451Y-36559815D01*
X47198955Y-36462268D01*
X47000935Y-36402200D01*
X47000933Y-36402199D01*
X47000935Y-36402199D01*
X46890222Y-36391295D01*
X46846609Y-36387000D01*
X46846605Y-36387000D01*
X45043395Y-36387000D01*
X44889067Y-36402199D01*
X44691042Y-36462269D01*
X44508545Y-36559817D01*
X44348589Y-36691089D01*
X44217317Y-36851045D01*
X44119769Y-37033542D01*
X44059699Y-37231566D01*
X44044500Y-37385894D01*
X33463334Y-37385894D01*
X33612262Y-37292316D01*
X33739816Y-37164762D01*
X33835789Y-37012022D01*
X33895368Y-36841755D01*
X33910500Y-36707454D01*
X33910500Y-33617546D01*
X33895368Y-33483245D01*
X33835789Y-33312978D01*
X33739816Y-33160238D01*
X33612262Y-33032684D01*
X33527482Y-32979413D01*
X33459523Y-32936711D01*
X33289254Y-32877131D01*
X33289249Y-32877130D01*
X33154960Y-32862000D01*
X33154954Y-32862000D01*
X30065046Y-32862000D01*
X30065039Y-32862000D01*
X29930750Y-32877130D01*
X29930745Y-32877131D01*
X29760476Y-32936711D01*
X29607737Y-33032684D01*
X29480184Y-33160237D01*
X29384211Y-33312976D01*
X29324631Y-33483245D01*
X29324630Y-33483250D01*
X29309500Y-33617539D01*
X28238439Y-33617539D01*
X28050085Y-33429185D01*
X28050078Y-33429179D01*
X27810831Y-33245599D01*
X27549671Y-33094818D01*
X27549661Y-33094814D01*
X27271060Y-32979413D01*
X26979766Y-32901361D01*
X26680793Y-32862001D01*
X26680788Y-32862000D01*
X26680783Y-32862000D01*
X26379217Y-32862000D01*
X26379211Y-32862000D01*
X26379206Y-32862001D01*
X26080233Y-32901361D01*
X25788939Y-32979413D01*
X25510338Y-33094814D01*
X25510328Y-33094818D01*
X25249168Y-33245599D01*
X25009921Y-33429179D01*
X25009914Y-33429185D01*
X24796685Y-33642414D01*
X24796679Y-33642421D01*
X24613099Y-33881668D01*
X24462318Y-34142828D01*
X24462314Y-34142838D01*
X24346913Y-34421439D01*
X24268861Y-34712733D01*
X24229501Y-35011706D01*
X24229500Y-35011723D01*
X20500500Y-35011723D01*
X20500500Y-31073053D01*
X27043071Y-31073053D01*
X31025500Y-31073053D01*
X112903071Y-31073053D01*
X116887225Y-31073053D01*
X116887225Y-27658603D01*
X112903071Y-27658603D01*
X112903071Y-31073053D01*
X31025500Y-31073053D01*
X31025500Y-27657484D01*
X27043071Y-27657484D01*
X27043071Y-31073053D01*
X20500500Y-31073053D01*
X20500500Y-20624500D01*
X20520185Y-20557461D01*
X20572989Y-20511706D01*
X20624500Y-20500500D01*
X123375500Y-20500500D01*
X123442539Y-20520185D01*
G37*
%TD.AperFunction*%
%TA.AperFunction,NonConductor*%
G36*
X52010897Y-85927685D02*
G01*
X52056652Y-85980489D01*
X52066596Y-86049647D01*
X52044176Y-86104885D01*
X51896132Y-86308651D01*
X51781760Y-86533116D01*
X51703910Y-86772714D01*
X51664500Y-87021538D01*
X51664500Y-87273461D01*
X51703910Y-87522285D01*
X51781760Y-87761883D01*
X51896132Y-87986348D01*
X52044201Y-88190149D01*
X52044205Y-88190154D01*
X52183870Y-88329819D01*
X52217355Y-88391142D01*
X52212371Y-88460834D01*
X52183870Y-88505181D01*
X52044205Y-88644845D01*
X52044201Y-88644850D01*
X51896132Y-88848651D01*
X51781760Y-89073116D01*
X51703910Y-89312714D01*
X51664500Y-89561538D01*
X51664500Y-89813461D01*
X51703910Y-90062285D01*
X51781760Y-90301883D01*
X51843061Y-90422192D01*
X51877458Y-90489700D01*
X51896132Y-90526348D01*
X52044176Y-90730115D01*
X52067656Y-90795921D01*
X52051830Y-90863975D01*
X52001724Y-90912670D01*
X51943858Y-90927000D01*
X47766142Y-90927000D01*
X47699103Y-90907315D01*
X47653348Y-90854511D01*
X47643404Y-90785353D01*
X47665824Y-90730115D01*
X47754103Y-90608606D01*
X47813870Y-90526345D01*
X47928241Y-90301879D01*
X48006090Y-90062285D01*
X48045500Y-89813462D01*
X48045500Y-89561538D01*
X48006090Y-89312715D01*
X47928241Y-89073121D01*
X47928239Y-89073118D01*
X47928239Y-89073116D01*
X47886747Y-88991684D01*
X47813870Y-88848655D01*
X47730239Y-88733546D01*
X47665798Y-88644850D01*
X47665794Y-88644845D01*
X47526130Y-88505181D01*
X47492645Y-88443858D01*
X47497629Y-88374166D01*
X47526130Y-88329819D01*
X47574620Y-88281329D01*
X47665793Y-88190156D01*
X47813870Y-87986345D01*
X47928241Y-87761879D01*
X48006090Y-87522285D01*
X48045500Y-87273462D01*
X48045500Y-87021538D01*
X48006090Y-86772715D01*
X47928241Y-86533121D01*
X47928239Y-86533118D01*
X47928239Y-86533116D01*
X47886747Y-86451684D01*
X47813870Y-86308655D01*
X47803227Y-86294006D01*
X47665824Y-86104885D01*
X47642344Y-86039079D01*
X47658170Y-85971025D01*
X47708276Y-85922330D01*
X47766142Y-85908000D01*
X51943858Y-85908000D01*
X52010897Y-85927685D01*
G37*
%TD.AperFunction*%
M02*
