M48
; DRILL file {KiCad 9.0.4} date 2026-06-17T17:03:08+0200
; FORMAT={-:-/ absolute / metric / decimal}
; #@! TF.CreationDate,2026-06-17T17:03:08+02:00
; #@! TF.GenerationSoftware,Kicad,Pcbnew,9.0.4
; #@! TF.FileFunction,MixedPlating,1,2
FMAT,2
METRIC
; #@! TA.AperFunction,Plated,PTH,ComponentDrill
T1C0.800
; #@! TA.AperFunction,Plated,PTH,ComponentDrill
T2C1.000
; #@! TA.AperFunction,Plated,PTH,ComponentDrill
T3C1.100
; #@! TA.AperFunction,Plated,PTH,ComponentDrill
T4C1.520
; #@! TA.AperFunction,Plated,PTH,ComponentDrill
T5C2.000
%
G90
G05
T1
X45.645Y-111.337
X46.045Y-82.067
X46.045Y-84.608
X46.045Y-87.147
X46.045Y-89.688
X46.045Y-92.227
X46.045Y-94.767
X46.045Y-97.307
X53.265Y-111.337
X53.665Y-82.067
X53.665Y-84.608
X53.665Y-87.147
X53.665Y-89.688
X53.665Y-92.227
X53.665Y-94.767
X53.665Y-97.307
X61.195Y-104.337
X62.86Y-89.688
X66.36Y-89.688
X68.815Y-104.337
X75.965Y-104.337
X76.604Y-89.688
X80.104Y-89.688
X83.585Y-104.337
X86.095Y-57.672
X86.095Y-60.212
X86.095Y-62.752
X88.704Y-89.688
X90.735Y-104.337
X93.704Y-89.688
X93.715Y-57.672
X93.715Y-60.212
X93.715Y-62.752
X98.355Y-104.337
T2
X29.07Y-45.947
X29.07Y-48.487
T3
X45.945Y-38.288
X47.305Y-105.287
X49.845Y-105.287
X52.385Y-105.287
X56.105Y-38.288
X63.855Y-38.288
X74.015Y-38.288
T4
X26.53Y-35.163
X31.61Y-35.163
X112.39Y-35.163
X112.39Y-47.212
X117.47Y-35.163
X117.47Y-47.212
T5
X47.995Y-60.212
X76.195Y-60.212
M30
