%TF.GenerationSoftware,KiCad,Pcbnew,9.0.4*%
%TF.CreationDate,2026-06-22T17:56:55+02:00*%
%TF.ProjectId,boost_v2_mill,626f6f73-745f-4763-925f-6d696c6c2e6b,rev?*%
%TF.SameCoordinates,Original*%
%TF.FileFunction,Copper,L2,Bot*%
%TF.FilePolarity,Positive*%
%FSLAX46Y46*%
G04 Gerber Fmt 4.6, Leading zero omitted, Abs format (unit mm)*
G04 Created by KiCad (PCBNEW 9.0.4) date 2026-06-22 17:56:55*
%MOMM*%
%LPD*%
G01*
G04 APERTURE LIST*
G04 Aperture macros list*
%AMRoundRect*
0 Rectangle with rounded corners*
0 $1 Rounding radius*
0 $2 $3 $4 $5 $6 $7 $8 $9 X,Y pos of 4 corners*
0 Add a 4 corners polygon primitive as box body*
4,1,4,$2,$3,$4,$5,$6,$7,$8,$9,$2,$3,0*
0 Add four circle primitives for the rounded corners*
1,1,$1+$1,$2,$3*
1,1,$1+$1,$4,$5*
1,1,$1+$1,$6,$7*
1,1,$1+$1,$8,$9*
0 Add four rect primitives between the rounded corners*
20,1,$1+$1,$2,$3,$4,$5,0*
20,1,$1+$1,$4,$5,$6,$7,0*
20,1,$1+$1,$6,$7,$8,$9,0*
20,1,$1+$1,$8,$9,$2,$3,0*%
G04 Aperture macros list end*
%TA.AperFunction,ComponentPad*%
%ADD10RoundRect,0.250000X-0.550000X-0.550000X0.550000X-0.550000X0.550000X0.550000X-0.550000X0.550000X0*%
%TD*%
%TA.AperFunction,ComponentPad*%
%ADD11C,1.600000*%
%TD*%
%TA.AperFunction,ComponentPad*%
%ADD12R,1.700000X2.000000*%
%TD*%
%TA.AperFunction,ComponentPad*%
%ADD13O,1.700000X2.000000*%
%TD*%
%TA.AperFunction,ComponentPad*%
%ADD14R,1.700000X1.700000*%
%TD*%
%TA.AperFunction,ComponentPad*%
%ADD15C,1.700000*%
%TD*%
%TA.AperFunction,ComponentPad*%
%ADD16RoundRect,0.249999X-0.850001X-0.850001X0.850001X-0.850001X0.850001X0.850001X-0.850001X0.850001X0*%
%TD*%
%TA.AperFunction,ComponentPad*%
%ADD17C,2.200000*%
%TD*%
%TA.AperFunction,ComponentPad*%
%ADD18R,3.000000X3.000000*%
%TD*%
%TA.AperFunction,ComponentPad*%
%ADD19C,3.000000*%
%TD*%
%TA.AperFunction,ComponentPad*%
%ADD20RoundRect,0.250000X-0.550000X0.550000X-0.550000X-0.550000X0.550000X-0.550000X0.550000X0.550000X0*%
%TD*%
%TA.AperFunction,ComponentPad*%
%ADD21RoundRect,0.249999X0.850001X0.850001X-0.850001X0.850001X-0.850001X-0.850001X0.850001X-0.850001X0*%
%TD*%
%TA.AperFunction,ComponentPad*%
%ADD22RoundRect,0.250000X0.550000X-0.950000X0.550000X0.950000X-0.550000X0.950000X-0.550000X-0.950000X0*%
%TD*%
%TA.AperFunction,ComponentPad*%
%ADD23O,1.600000X2.400000*%
%TD*%
%TA.AperFunction,ComponentPad*%
%ADD24RoundRect,0.250000X-0.950000X-0.550000X0.950000X-0.550000X0.950000X0.550000X-0.950000X0.550000X0*%
%TD*%
%TA.AperFunction,ComponentPad*%
%ADD25O,2.400000X1.600000*%
%TD*%
%TA.AperFunction,ComponentPad*%
%ADD26C,4.000000*%
%TD*%
%TA.AperFunction,Conductor*%
%ADD27C,1.000000*%
%TD*%
G04 APERTURE END LIST*
D10*
%TO.P,C2,1*%
%TO.N,+15V*%
X84000000Y-89500000D03*
D11*
%TO.P,C2,2*%
%TO.N,GND*%
X87500000Y-89500000D03*
%TD*%
D12*
%TO.P,M1,1*%
%TO.N,GATE*%
X60000000Y-100000000D03*
D13*
%TO.P,M1,2*%
%TO.N,/SW*%
X57460000Y-100000000D03*
%TO.P,M1,3*%
%TO.N,GND*%
X54920000Y-100000000D03*
%TD*%
D11*
%TO.P,R3,1*%
%TO.N,/LO*%
X97190000Y-110000000D03*
%TO.P,R3,2*%
%TO.N,GATE*%
X104810000Y-110000000D03*
%TD*%
D14*
%TO.P,J3,1*%
%TO.N,PWM*%
X67000000Y-122381000D03*
D15*
%TO.P,J3,2*%
%TO.N,GND_MCU*%
X69540000Y-122381000D03*
%TD*%
D16*
%TO.P,D2,1*%
%TO.N,/LO*%
X96420000Y-100950000D03*
D17*
%TO.P,D2,2*%
%TO.N,GATE*%
X106580000Y-100950000D03*
%TD*%
D11*
%TO.P,C3,1*%
%TO.N,+15V*%
X83583400Y-100950000D03*
%TO.P,C3,2*%
%TO.N,GND*%
X88583400Y-100950000D03*
%TD*%
%TO.P,R2,1*%
%TO.N,/LIN*%
X80594400Y-110000000D03*
%TO.P,R2,2*%
%TO.N,GND*%
X88214400Y-110000000D03*
%TD*%
D18*
%TO.P,J4,1*%
%TO.N,+15V*%
X92920000Y-122381000D03*
D19*
%TO.P,J4,2*%
%TO.N,GND*%
X98000000Y-122381000D03*
%TD*%
D20*
%TO.P,C1,1*%
%TO.N,VOUT_V2*%
X115000000Y-103000000D03*
D11*
%TO.P,C1,2*%
%TO.N,GND*%
X115000000Y-106500000D03*
%TD*%
D21*
%TO.P,D1,1*%
%TO.N,VOUT_V2*%
X75580000Y-100950000D03*
D17*
%TO.P,D1,2*%
%TO.N,/SW*%
X65420000Y-100950000D03*
%TD*%
D22*
%TO.P,U2,1*%
%TO.N,/LO*%
X96300000Y-92000000D03*
D23*
%TO.P,U2,2*%
%TO.N,GND*%
X98840000Y-92000000D03*
%TO.P,U2,3*%
%TO.N,+15V*%
X101380000Y-92000000D03*
%TO.P,U2,4*%
%TO.N,N/C*%
X103920000Y-92000000D03*
%TO.P,U2,5*%
%TO.N,GND*%
X106460000Y-92000000D03*
%TO.P,U2,6*%
%TO.N,N/C*%
X109000000Y-92000000D03*
%TO.P,U2,7*%
X111540000Y-92000000D03*
%TO.P,U2,8*%
X111540000Y-84380000D03*
%TO.P,U2,9*%
%TO.N,+15V*%
X109000000Y-84380000D03*
%TO.P,U2,10*%
%TO.N,GND*%
X106460000Y-84380000D03*
%TO.P,U2,11*%
X103920000Y-84380000D03*
%TO.P,U2,12*%
%TO.N,/LIN*%
X101380000Y-84380000D03*
%TO.P,U2,13*%
%TO.N,GND*%
X98840000Y-84380000D03*
%TO.P,U2,14*%
%TO.N,N/C*%
X96300000Y-84380000D03*
%TD*%
D18*
%TO.P,J2,1*%
%TO.N,VOUT_V2*%
X113335900Y-122381000D03*
D19*
%TO.P,J2,2*%
%TO.N,GND*%
X108255900Y-122381000D03*
%TD*%
D11*
%TO.P,R4,1*%
%TO.N,GATE*%
X61029000Y-110000000D03*
%TO.P,R4,2*%
%TO.N,GND*%
X53409000Y-110000000D03*
%TD*%
%TO.P,R1,1*%
%TO.N,PWM*%
X68619000Y-110000000D03*
%TO.P,R1,2*%
%TO.N,/OPTO_A*%
X76239000Y-110000000D03*
%TD*%
D24*
%TO.P,U1,1*%
%TO.N,/OPTO_A*%
X76690000Y-119841000D03*
D25*
%TO.P,U1,2*%
%TO.N,GND_MCU*%
X76690000Y-122381000D03*
%TO.P,U1,3*%
%TO.N,N/C*%
X76690000Y-124921000D03*
%TO.P,U1,4*%
%TO.N,/LIN*%
X84310000Y-124921000D03*
%TO.P,U1,5*%
%TO.N,+15V*%
X84310000Y-122381000D03*
%TO.P,U1,6*%
%TO.N,N/C*%
X84310000Y-119841000D03*
%TD*%
D26*
%TO.P,L1,1*%
%TO.N,VIN_5V*%
X43400000Y-75500000D03*
%TO.P,L1,2*%
%TO.N,/SW*%
X71600000Y-75500000D03*
%TD*%
D18*
%TO.P,J1,1*%
%TO.N,VIN_5V*%
X54960000Y-122381000D03*
D19*
%TO.P,J1,2*%
%TO.N,GND*%
X60040000Y-122381000D03*
%TD*%
D27*
%TO.N,+15V*%
X90336106Y-89082000D02*
X101000000Y-89082000D01*
X88453106Y-87199000D02*
X90336106Y-89082000D01*
X83583400Y-115460295D02*
X87011000Y-118887895D01*
X84500000Y-89000000D02*
X84000000Y-89500000D01*
X87011000Y-118887895D02*
X87011000Y-122370000D01*
X87011000Y-122370000D02*
X87000000Y-122381000D01*
X84000000Y-100533400D02*
X83583400Y-100950000D01*
X86546894Y-87199000D02*
X85199000Y-88546894D01*
X101000000Y-89082000D02*
X101380000Y-89462000D01*
X85199000Y-89000000D02*
X84500000Y-89000000D01*
X83583400Y-100950000D02*
X83583400Y-115460295D01*
X109000000Y-85780000D02*
X105698000Y-89082000D01*
X84310000Y-122381000D02*
X87000000Y-122381000D01*
X84000000Y-89500000D02*
X84000000Y-100533400D01*
X101380000Y-92000000D02*
X101380000Y-89462000D01*
X88453106Y-87199000D02*
X86546894Y-87199000D01*
X85199000Y-88546894D02*
X85199000Y-89000000D01*
X105698000Y-89082000D02*
X101000000Y-89082000D01*
X87000000Y-122381000D02*
X92920000Y-122381000D01*
X109000000Y-84380000D02*
X109000000Y-85780000D01*
%TO.N,/LIN*%
X84310000Y-124921000D02*
X82110000Y-124921000D01*
X100079000Y-81679000D02*
X88237786Y-81679000D01*
X82110000Y-124921000D02*
X80594400Y-123405400D01*
X81000000Y-109594400D02*
X80594400Y-110000000D01*
X81000000Y-88916786D02*
X81000000Y-109594400D01*
X101380000Y-84380000D02*
X101380000Y-82980000D01*
X80594400Y-123405400D02*
X80594400Y-110000000D01*
X101380000Y-82980000D02*
X100079000Y-81679000D01*
X88237786Y-81679000D02*
X81000000Y-88916786D01*
%TO.N,/LO*%
X96300000Y-100830000D02*
X96420000Y-100950000D01*
X97190000Y-110000000D02*
X97190000Y-101720000D01*
X97190000Y-101720000D02*
X96420000Y-100950000D01*
X96300000Y-92000000D02*
X96300000Y-100830000D01*
%TO.N,/OPTO_A*%
X76690000Y-110451000D02*
X76239000Y-110000000D01*
X76690000Y-119841000D02*
X76690000Y-110451000D01*
%TO.N,/SW*%
X57460000Y-97688000D02*
X59648000Y-95500000D01*
X59648000Y-95500000D02*
X66000000Y-95500000D01*
X57460000Y-100000000D02*
X57460000Y-97688000D01*
X71600000Y-75500000D02*
X71600000Y-95500000D01*
X65420000Y-100950000D02*
X65420000Y-96080000D01*
X66000000Y-95500000D02*
X71600000Y-95500000D01*
X65420000Y-96080000D02*
X66000000Y-95500000D01*
%TO.N,GATE*%
X115842000Y-82198054D02*
X115842000Y-94181947D01*
X60000000Y-108971000D02*
X61029000Y-110000000D01*
X115842000Y-94181947D02*
X109073947Y-100950000D01*
X79000000Y-104000000D02*
X79000000Y-88086945D01*
X104810000Y-102720000D02*
X106580000Y-100950000D01*
X60000000Y-100000000D02*
X64000000Y-104000000D01*
X109073947Y-100950000D02*
X106580000Y-100950000D01*
X87408945Y-79678000D02*
X113321947Y-79678000D01*
X104810000Y-110000000D02*
X104810000Y-102720000D01*
X79000000Y-88086945D02*
X87408945Y-79678000D01*
X60000000Y-100000000D02*
X60000000Y-108971000D01*
X113321947Y-79678000D02*
X115842000Y-82198054D01*
X64000000Y-104000000D02*
X79000000Y-104000000D01*
%TO.N,GND*%
X102000000Y-94701000D02*
X100141000Y-94701000D01*
X53409000Y-109091000D02*
X54920000Y-107580000D01*
X113841000Y-83026895D02*
X113841000Y-93353105D01*
X106000000Y-94701000D02*
X102000000Y-94701000D01*
X98000000Y-122381000D02*
X98000000Y-119785600D01*
X98000000Y-122381000D02*
X103000000Y-122381000D01*
X64881000Y-127222000D02*
X95280320Y-127222000D01*
X108255900Y-123303000D02*
X110334900Y-125382000D01*
X60040000Y-122381000D02*
X64881000Y-127222000D01*
X53409000Y-110000000D02*
X53409000Y-109091000D01*
X98840000Y-93400000D02*
X98840000Y-92000000D01*
X88583400Y-109631000D02*
X88214400Y-110000000D01*
X102333105Y-87081000D02*
X103920000Y-85494105D01*
X100500000Y-119881000D02*
X100500000Y-96201000D01*
X98840000Y-85780000D02*
X100141000Y-87081000D01*
X88583400Y-100950000D02*
X88583400Y-109631000D01*
X108255900Y-122381000D02*
X108255900Y-123303000D01*
X100500000Y-96201000D02*
X102000000Y-94701000D01*
X103000000Y-122381000D02*
X108255900Y-122381000D01*
X112493105Y-81679000D02*
X113841000Y-83026895D01*
X110334900Y-125382000D02*
X116336900Y-125382000D01*
X100141000Y-94701000D02*
X98840000Y-93400000D01*
X106460000Y-84380000D02*
X106460000Y-83040000D01*
X106460000Y-94241000D02*
X106000000Y-94701000D01*
X88583400Y-90583400D02*
X87500000Y-89500000D01*
X103920000Y-84380000D02*
X106460000Y-84380000D01*
X60040000Y-116631000D02*
X53409000Y-110000000D01*
X88583400Y-100950000D02*
X88583400Y-90583400D01*
X113841000Y-93353105D02*
X112493105Y-94701000D01*
X100141000Y-87081000D02*
X102333105Y-87081000D01*
X116336900Y-125382000D02*
X116336900Y-107836900D01*
X106460000Y-92000000D02*
X106460000Y-94241000D01*
X107821000Y-81679000D02*
X112493105Y-81679000D01*
X60040000Y-122381000D02*
X60040000Y-116631000D01*
X106460000Y-83040000D02*
X107821000Y-81679000D01*
X103920000Y-85494105D02*
X103920000Y-84380000D01*
X54920000Y-107580000D02*
X54920000Y-100000000D01*
X98840000Y-84380000D02*
X98840000Y-85780000D01*
X98000000Y-124502320D02*
X98000000Y-122381000D01*
X116336900Y-107836900D02*
X115000000Y-106500000D01*
X103000000Y-122381000D02*
X100500000Y-119881000D01*
X98000000Y-119785600D02*
X88214400Y-110000000D01*
X95280320Y-127222000D02*
X98000000Y-124502320D01*
X112493105Y-94701000D02*
X106000000Y-94701000D01*
%TO.N,GND_MCU*%
X69540000Y-122381000D02*
X76690000Y-122381000D01*
%TO.N,PWM*%
X67000000Y-122381000D02*
X67000000Y-111619000D01*
X67000000Y-111619000D02*
X68619000Y-110000000D01*
%TO.N,VIN_5V*%
X43400000Y-75500000D02*
X43400000Y-110821000D01*
X43400000Y-110821000D02*
X54960000Y-122381000D01*
%TO.N,VOUT_V2*%
X113335900Y-122381000D02*
X112699000Y-121744100D01*
X86580103Y-77677000D02*
X75580000Y-88677103D01*
X75580000Y-88677103D02*
X75580000Y-100950000D01*
X117843000Y-81369213D02*
X114150788Y-77677000D01*
X112699000Y-105301000D02*
X115000000Y-103000000D01*
X115000000Y-103000000D02*
X117843000Y-100157000D01*
X114150788Y-77677000D02*
X86580103Y-77677000D01*
X117843000Y-100157000D02*
X117843000Y-81369213D01*
X112699000Y-121744100D02*
X112699000Y-105301000D01*
%TD*%
%TA.AperFunction,NonConductor*%
G36*
X133078421Y-50020185D02*
G01*
X133124176Y-50072989D01*
X133135382Y-50124500D01*
X133135382Y-133656504D01*
X133115697Y-133723543D01*
X133062893Y-133769298D01*
X133011382Y-133780504D01*
X32124500Y-133780504D01*
X32057461Y-133760819D01*
X32011706Y-133708015D01*
X32000500Y-133656504D01*
X32000500Y-75320259D01*
X40199500Y-75320259D01*
X40199500Y-75679740D01*
X40239746Y-76036935D01*
X40239748Y-76036951D01*
X40319737Y-76387407D01*
X40319741Y-76387419D01*
X40438465Y-76726711D01*
X40594432Y-77050579D01*
X40594434Y-77050582D01*
X40785685Y-77354956D01*
X40952891Y-77564626D01*
X41009811Y-77636002D01*
X41263997Y-77890188D01*
X41545048Y-78114318D01*
X41641471Y-78174904D01*
X41687763Y-78227238D01*
X41699500Y-78279898D01*
X41699500Y-110705671D01*
X41699499Y-110705705D01*
X41699499Y-110932463D01*
X41711929Y-111026872D01*
X41717768Y-111071219D01*
X41728596Y-111153463D01*
X41773718Y-111321860D01*
X41786290Y-111368780D01*
X41786293Y-111368790D01*
X41871593Y-111574722D01*
X41871595Y-111574726D01*
X41983052Y-111767774D01*
X41983057Y-111767780D01*
X41983058Y-111767782D01*
X42118751Y-111944622D01*
X42118757Y-111944629D01*
X42279472Y-112105344D01*
X42279502Y-112105372D01*
X52223181Y-122049051D01*
X52256666Y-122110374D01*
X52259500Y-122136732D01*
X52259500Y-123955095D01*
X52265918Y-124047561D01*
X52265920Y-124047577D01*
X52316854Y-124264135D01*
X52316860Y-124264151D01*
X52406721Y-124467668D01*
X52532457Y-124651220D01*
X52532462Y-124651226D01*
X52689773Y-124808537D01*
X52689779Y-124808542D01*
X52873329Y-124934277D01*
X53076857Y-125024143D01*
X53076861Y-125024144D01*
X53076864Y-125024145D01*
X53293422Y-125075079D01*
X53293427Y-125075079D01*
X53293433Y-125075081D01*
X53344808Y-125078647D01*
X53385904Y-125081500D01*
X53385908Y-125081500D01*
X56534096Y-125081500D01*
X56571082Y-125078932D01*
X56626567Y-125075081D01*
X56626573Y-125075079D01*
X56626577Y-125075079D01*
X56843135Y-125024145D01*
X56843135Y-125024144D01*
X56843143Y-125024143D01*
X57046671Y-124934277D01*
X57230221Y-124808542D01*
X57387542Y-124651221D01*
X57513277Y-124467671D01*
X57603143Y-124264143D01*
X57654081Y-124047567D01*
X57654081Y-124047565D01*
X57655043Y-124043476D01*
X57689553Y-123982724D01*
X57751430Y-123950273D01*
X57821028Y-123956427D01*
X57872696Y-123994552D01*
X58003939Y-124159126D01*
X58023221Y-124183304D01*
X58237696Y-124397779D01*
X58474836Y-124586892D01*
X58731659Y-124748265D01*
X59004935Y-124879868D01*
X59219951Y-124955105D01*
X59291216Y-124980042D01*
X59291228Y-124980046D01*
X59586937Y-125047540D01*
X59586946Y-125047541D01*
X59586951Y-125047542D01*
X59787874Y-125070180D01*
X59888337Y-125081499D01*
X59888340Y-125081500D01*
X59888343Y-125081500D01*
X60191659Y-125081500D01*
X60209589Y-125079479D01*
X60261710Y-125073606D01*
X60330530Y-125085659D01*
X60363275Y-125109145D01*
X63597308Y-128343178D01*
X63597345Y-128343217D01*
X63757370Y-128503242D01*
X63757376Y-128503247D01*
X63934226Y-128638948D01*
X64127274Y-128750405D01*
X64333219Y-128835710D01*
X64548537Y-128893404D01*
X64769544Y-128922501D01*
X64769551Y-128922501D01*
X64996296Y-128922501D01*
X64996328Y-128922500D01*
X95164992Y-128922500D01*
X95165024Y-128922501D01*
X95168864Y-128922501D01*
X95391769Y-128922501D01*
X95391776Y-128922501D01*
X95612783Y-128893404D01*
X95828101Y-128835710D01*
X96034046Y-128750405D01*
X96227094Y-128638948D01*
X96403944Y-128503247D01*
X96561567Y-128345624D01*
X96566931Y-128340260D01*
X96566946Y-128340242D01*
X99118242Y-125788946D01*
X99118260Y-125788931D01*
X99281242Y-125625949D01*
X99281247Y-125625944D01*
X99361389Y-125521500D01*
X99416948Y-125449095D01*
X99528405Y-125256046D01*
X99613710Y-125050101D01*
X99671404Y-124834783D01*
X99700500Y-124613777D01*
X99700500Y-124538680D01*
X99720185Y-124471641D01*
X99747188Y-124441733D01*
X99802297Y-124397785D01*
X99802299Y-124397782D01*
X99802304Y-124397779D01*
X100016779Y-124183304D01*
X100021718Y-124177111D01*
X100060733Y-124128188D01*
X100117921Y-124088047D01*
X100157680Y-124081500D01*
X102888536Y-124081500D01*
X102888544Y-124081501D01*
X103111456Y-124081501D01*
X103111464Y-124081500D01*
X106098220Y-124081500D01*
X106165259Y-124101185D01*
X106195167Y-124128188D01*
X106239114Y-124183297D01*
X106239120Y-124183303D01*
X106239121Y-124183304D01*
X106453596Y-124397779D01*
X106690736Y-124586892D01*
X106947559Y-124748265D01*
X107220835Y-124879868D01*
X107374402Y-124933603D01*
X107510413Y-124981196D01*
X107510067Y-124982182D01*
X107559171Y-125011141D01*
X109051208Y-126503178D01*
X109051245Y-126503217D01*
X109211270Y-126663242D01*
X109211276Y-126663247D01*
X109388126Y-126798948D01*
X109581174Y-126910405D01*
X109787119Y-126995710D01*
X110002437Y-127053404D01*
X110223444Y-127082501D01*
X110223451Y-127082501D01*
X110450196Y-127082501D01*
X110450228Y-127082500D01*
X116448350Y-127082500D01*
X116448357Y-127082500D01*
X116669363Y-127053404D01*
X116884681Y-126995710D01*
X117090626Y-126910405D01*
X117283674Y-126798948D01*
X117460524Y-126663247D01*
X117618147Y-126505624D01*
X117753848Y-126328774D01*
X117865305Y-126135726D01*
X117950610Y-125929781D01*
X118008304Y-125714463D01*
X118037400Y-125493457D01*
X118037400Y-107952771D01*
X118037401Y-107952742D01*
X118037401Y-107725450D01*
X118037400Y-107725436D01*
X118032925Y-107691449D01*
X118008304Y-107504437D01*
X117950610Y-107289119D01*
X117865305Y-107083174D01*
X117753848Y-106890126D01*
X117618147Y-106713276D01*
X117618142Y-106713270D01*
X117458117Y-106553245D01*
X117458078Y-106553208D01*
X116972383Y-106067513D01*
X116940290Y-106011926D01*
X116898398Y-105855581D01*
X116898394Y-105855571D01*
X116798046Y-105613309D01*
X116798041Y-105613299D01*
X116666924Y-105386196D01*
X116516026Y-105189544D01*
X116507282Y-105178149D01*
X116507281Y-105178148D01*
X116507274Y-105178140D01*
X116321860Y-104992726D01*
X116321855Y-104992722D01*
X116321851Y-104992718D01*
X116309804Y-104983474D01*
X116268604Y-104927046D01*
X116264451Y-104857300D01*
X116298664Y-104796381D01*
X116321813Y-104778583D01*
X116395740Y-104734533D01*
X116579173Y-104579173D01*
X116734533Y-104395740D01*
X116857582Y-104189238D01*
X116944963Y-103965299D01*
X116994294Y-103730031D01*
X117000500Y-103630069D01*
X117000499Y-103455731D01*
X117020183Y-103388692D01*
X117036813Y-103368055D01*
X118961242Y-101443626D01*
X118961260Y-101443611D01*
X119124242Y-101280629D01*
X119124247Y-101280624D01*
X119259948Y-101103774D01*
X119371405Y-100910726D01*
X119456710Y-100704781D01*
X119514404Y-100489463D01*
X119543500Y-100268457D01*
X119543500Y-81485085D01*
X119543501Y-81485056D01*
X119543501Y-81257763D01*
X119543500Y-81257749D01*
X119542192Y-81247816D01*
X119514404Y-81036750D01*
X119456710Y-80821432D01*
X119419759Y-80732225D01*
X119419759Y-80732224D01*
X119371409Y-80615495D01*
X119371404Y-80615486D01*
X119259948Y-80422439D01*
X119124247Y-80245589D01*
X119124242Y-80245583D01*
X118964217Y-80085558D01*
X118964178Y-80085521D01*
X115435160Y-76556502D01*
X115435132Y-76556472D01*
X115274417Y-76395757D01*
X115274410Y-76395751D01*
X115097570Y-76260058D01*
X115097568Y-76260057D01*
X115097562Y-76260052D01*
X114904514Y-76148595D01*
X114904510Y-76148593D01*
X114698578Y-76063293D01*
X114698571Y-76063291D01*
X114698569Y-76063290D01*
X114483251Y-76005596D01*
X114434138Y-75999130D01*
X114262252Y-75976499D01*
X114262245Y-75976499D01*
X114039332Y-75976499D01*
X114035492Y-75976499D01*
X114035460Y-75976500D01*
X86695431Y-75976500D01*
X86695399Y-75976499D01*
X86691559Y-75976499D01*
X86468647Y-75976499D01*
X86468639Y-75976499D01*
X86272196Y-76002363D01*
X86247640Y-76005596D01*
X86130621Y-76036951D01*
X86032322Y-76063290D01*
X86032312Y-76063293D01*
X85826380Y-76148593D01*
X85826376Y-76148595D01*
X85633329Y-76260052D01*
X85633320Y-76260058D01*
X85456481Y-76395750D01*
X85377669Y-76474563D01*
X85298856Y-76553376D01*
X85298852Y-76553380D01*
X74456380Y-87395852D01*
X74456376Y-87395856D01*
X74377563Y-87474669D01*
X74298750Y-87553481D01*
X74171937Y-87718750D01*
X74171934Y-87718754D01*
X74163055Y-87730323D01*
X74051595Y-87923376D01*
X74051593Y-87923380D01*
X73966293Y-88129312D01*
X73966290Y-88129322D01*
X73908596Y-88344641D01*
X73879499Y-88565639D01*
X73879499Y-88792945D01*
X73879500Y-88792974D01*
X73879500Y-98862021D01*
X73859815Y-98929060D01*
X73835641Y-98956644D01*
X73700826Y-99070825D01*
X73600337Y-99189474D01*
X73545467Y-99254259D01*
X73468845Y-99382847D01*
X73422416Y-99460765D01*
X73335040Y-99684689D01*
X73335037Y-99684699D01*
X73285706Y-99919966D01*
X73285705Y-99919969D01*
X73279500Y-100019921D01*
X73279500Y-101880078D01*
X73285705Y-101980030D01*
X73297169Y-102034699D01*
X73321356Y-102150055D01*
X73315849Y-102219705D01*
X73273559Y-102275322D01*
X73207913Y-102299247D01*
X73199996Y-102299500D01*
X67512029Y-102299500D01*
X67444990Y-102279815D01*
X67399235Y-102227011D01*
X67389291Y-102157853D01*
X67404642Y-102113500D01*
X67457635Y-102021713D01*
X67487683Y-101969668D01*
X67603087Y-101691058D01*
X67681138Y-101399768D01*
X67720500Y-101100783D01*
X67720500Y-100799217D01*
X67681138Y-100500232D01*
X67603087Y-100208942D01*
X67487683Y-99930332D01*
X67481699Y-99919968D01*
X67336900Y-99669168D01*
X67153314Y-99429913D01*
X67151270Y-99427582D01*
X67150879Y-99426739D01*
X67150848Y-99426699D01*
X67150857Y-99426691D01*
X67121869Y-99364200D01*
X67120500Y-99345826D01*
X67120500Y-97324500D01*
X67140185Y-97257461D01*
X67192989Y-97211706D01*
X67244500Y-97200500D01*
X71711450Y-97200500D01*
X71711457Y-97200500D01*
X71932463Y-97171404D01*
X72147781Y-97113710D01*
X72353726Y-97028405D01*
X72546774Y-96916948D01*
X72723624Y-96781247D01*
X72881247Y-96623624D01*
X73016948Y-96446774D01*
X73128405Y-96253726D01*
X73213710Y-96047781D01*
X73271404Y-95832463D01*
X73300500Y-95611457D01*
X73300500Y-78279898D01*
X73320185Y-78212859D01*
X73358529Y-78174904D01*
X73454951Y-78114318D01*
X73454950Y-78114318D01*
X73454956Y-78114315D01*
X73736003Y-77890188D01*
X73990188Y-77636003D01*
X74214315Y-77354956D01*
X74405566Y-77050582D01*
X74561536Y-76726708D01*
X74680262Y-76387408D01*
X74760252Y-76036948D01*
X74800500Y-75679736D01*
X74800500Y-75320264D01*
X74760252Y-74963052D01*
X74680262Y-74612592D01*
X74561536Y-74273292D01*
X74405566Y-73949418D01*
X74214315Y-73645044D01*
X73990188Y-73363997D01*
X73736003Y-73109812D01*
X73454956Y-72885685D01*
X73150582Y-72694434D01*
X73150579Y-72694432D01*
X72826711Y-72538465D01*
X72487419Y-72419741D01*
X72487407Y-72419737D01*
X72136951Y-72339748D01*
X72136935Y-72339746D01*
X71779740Y-72299500D01*
X71779736Y-72299500D01*
X71420264Y-72299500D01*
X71420259Y-72299500D01*
X71063064Y-72339746D01*
X71063048Y-72339748D01*
X70712592Y-72419737D01*
X70712580Y-72419741D01*
X70373288Y-72538465D01*
X70049420Y-72694432D01*
X69745045Y-72885684D01*
X69463997Y-73109811D01*
X69209811Y-73363997D01*
X68985684Y-73645045D01*
X68794432Y-73949420D01*
X68638465Y-74273288D01*
X68519741Y-74612580D01*
X68519737Y-74612592D01*
X68439748Y-74963048D01*
X68439746Y-74963064D01*
X68399500Y-75320259D01*
X68399500Y-75679740D01*
X68439746Y-76036935D01*
X68439748Y-76036951D01*
X68519737Y-76387407D01*
X68519741Y-76387419D01*
X68638465Y-76726711D01*
X68794432Y-77050579D01*
X68794434Y-77050582D01*
X68985685Y-77354956D01*
X69152891Y-77564626D01*
X69209811Y-77636002D01*
X69463997Y-77890188D01*
X69745048Y-78114318D01*
X69841471Y-78174904D01*
X69887763Y-78227238D01*
X69899500Y-78279898D01*
X69899500Y-93675500D01*
X69879815Y-93742539D01*
X69827011Y-93788294D01*
X69775500Y-93799500D01*
X66111464Y-93799500D01*
X66111456Y-93799499D01*
X65888544Y-93799499D01*
X65888536Y-93799500D01*
X59536543Y-93799500D01*
X59536537Y-93799500D01*
X59536533Y-93799501D01*
X59315547Y-93828594D01*
X59315540Y-93828595D01*
X59315537Y-93828596D01*
X59179246Y-93865115D01*
X59100219Y-93886290D01*
X59100209Y-93886293D01*
X58894277Y-93971593D01*
X58894273Y-93971595D01*
X58701226Y-94083052D01*
X58701217Y-94083058D01*
X58524378Y-94218750D01*
X58445566Y-94297563D01*
X58366753Y-94376376D01*
X58366749Y-94376380D01*
X56336380Y-96406749D01*
X56336376Y-96406753D01*
X56296356Y-96446773D01*
X56178753Y-96564375D01*
X56133291Y-96623624D01*
X56043058Y-96741217D01*
X56043052Y-96741226D01*
X55931595Y-96934273D01*
X55931593Y-96934277D01*
X55846293Y-97140209D01*
X55846290Y-97140219D01*
X55796913Y-97324500D01*
X55788596Y-97355538D01*
X55759499Y-97576536D01*
X55759499Y-97792706D01*
X55739814Y-97859745D01*
X55687010Y-97905500D01*
X55617852Y-97915444D01*
X55588051Y-97907269D01*
X55580530Y-97904154D01*
X55545745Y-97894833D01*
X55320891Y-97834584D01*
X55320885Y-97834583D01*
X55320880Y-97834582D01*
X55054398Y-97799500D01*
X55054397Y-97799500D01*
X54785603Y-97799500D01*
X54785602Y-97799500D01*
X54519119Y-97834582D01*
X54519112Y-97834583D01*
X54519109Y-97834584D01*
X54464239Y-97849286D01*
X54259475Y-97904152D01*
X54011149Y-98007011D01*
X54011133Y-98007019D01*
X53778354Y-98141416D01*
X53565111Y-98305042D01*
X53565104Y-98305048D01*
X53375048Y-98495104D01*
X53375042Y-98495111D01*
X53211416Y-98708354D01*
X53077019Y-98941133D01*
X53077011Y-98941149D01*
X52974152Y-99189475D01*
X52927335Y-99364200D01*
X52909726Y-99429921D01*
X52904585Y-99449106D01*
X52904582Y-99449119D01*
X52869500Y-99715602D01*
X52869500Y-100284397D01*
X52904582Y-100550880D01*
X52904583Y-100550885D01*
X52904584Y-100550891D01*
X52929760Y-100644850D01*
X52974152Y-100810524D01*
X53077011Y-101058850D01*
X53077019Y-101058866D01*
X53172977Y-101225069D01*
X53196301Y-101265467D01*
X53202887Y-101276873D01*
X53219500Y-101338873D01*
X53219500Y-106824267D01*
X53199815Y-106891306D01*
X53183181Y-106911948D01*
X52630459Y-107464670D01*
X52285380Y-107809749D01*
X52285376Y-107809753D01*
X52206563Y-107888566D01*
X52127750Y-107967378D01*
X52004672Y-108127779D01*
X51992054Y-108144222D01*
X51880595Y-108337273D01*
X51880593Y-108337277D01*
X51795293Y-108543209D01*
X51795290Y-108543219D01*
X51737596Y-108758537D01*
X51717719Y-108909507D01*
X51702168Y-108955319D01*
X51610956Y-109113304D01*
X51610953Y-109113309D01*
X51510605Y-109355571D01*
X51510602Y-109355580D01*
X51510602Y-109355581D01*
X51452652Y-109571857D01*
X51442730Y-109608885D01*
X51408500Y-109868872D01*
X51408500Y-110131127D01*
X51433815Y-110323403D01*
X51442730Y-110391116D01*
X51470667Y-110495378D01*
X51510602Y-110644418D01*
X51510605Y-110644428D01*
X51610953Y-110886690D01*
X51610958Y-110886700D01*
X51742075Y-111113803D01*
X51901718Y-111321851D01*
X51901726Y-111321860D01*
X52087140Y-111507274D01*
X52087148Y-111507281D01*
X52087149Y-111507282D01*
X52090887Y-111510150D01*
X52295196Y-111666924D01*
X52522299Y-111798041D01*
X52522309Y-111798046D01*
X52764571Y-111898394D01*
X52764581Y-111898398D01*
X52920926Y-111940290D01*
X52976513Y-111972383D01*
X58303181Y-117299051D01*
X58336666Y-117360374D01*
X58339500Y-117386732D01*
X58339500Y-120223319D01*
X58319815Y-120290358D01*
X58292813Y-120320266D01*
X58237696Y-120364220D01*
X58023220Y-120578696D01*
X57872696Y-120767447D01*
X57815507Y-120807587D01*
X57745696Y-120810437D01*
X57685426Y-120775091D01*
X57655043Y-120718523D01*
X57603145Y-120497866D01*
X57603143Y-120497857D01*
X57549423Y-120376193D01*
X57513278Y-120294331D01*
X57510556Y-120290358D01*
X57387542Y-120110779D01*
X57387537Y-120110773D01*
X57230226Y-119953462D01*
X57230220Y-119953457D01*
X57046668Y-119827721D01*
X56843151Y-119737860D01*
X56843135Y-119737854D01*
X56626577Y-119686920D01*
X56626561Y-119686918D01*
X56534096Y-119680500D01*
X56534092Y-119680500D01*
X54715732Y-119680500D01*
X54648693Y-119660815D01*
X54628051Y-119644181D01*
X45136819Y-110152949D01*
X45103334Y-110091626D01*
X45100500Y-110065268D01*
X45100500Y-78279898D01*
X45120185Y-78212859D01*
X45158529Y-78174904D01*
X45254951Y-78114318D01*
X45254950Y-78114318D01*
X45254956Y-78114315D01*
X45536003Y-77890188D01*
X45790188Y-77636003D01*
X46014315Y-77354956D01*
X46205566Y-77050582D01*
X46361536Y-76726708D01*
X46480262Y-76387408D01*
X46560252Y-76036948D01*
X46600500Y-75679736D01*
X46600500Y-75320264D01*
X46560252Y-74963052D01*
X46480262Y-74612592D01*
X46361536Y-74273292D01*
X46205566Y-73949418D01*
X46014315Y-73645044D01*
X45790188Y-73363997D01*
X45536003Y-73109812D01*
X45254956Y-72885685D01*
X44950582Y-72694434D01*
X44950579Y-72694432D01*
X44626711Y-72538465D01*
X44287419Y-72419741D01*
X44287407Y-72419737D01*
X43936951Y-72339748D01*
X43936935Y-72339746D01*
X43579740Y-72299500D01*
X43579736Y-72299500D01*
X43220264Y-72299500D01*
X43220259Y-72299500D01*
X42863064Y-72339746D01*
X42863048Y-72339748D01*
X42512592Y-72419737D01*
X42512580Y-72419741D01*
X42173288Y-72538465D01*
X41849420Y-72694432D01*
X41545045Y-72885684D01*
X41263997Y-73109811D01*
X41009811Y-73363997D01*
X40785684Y-73645045D01*
X40594432Y-73949420D01*
X40438465Y-74273288D01*
X40319741Y-74612580D01*
X40319737Y-74612592D01*
X40239748Y-74963048D01*
X40239746Y-74963064D01*
X40199500Y-75320259D01*
X32000500Y-75320259D01*
X32000500Y-50124500D01*
X32020185Y-50057461D01*
X32072989Y-50011706D01*
X32124500Y-50000500D01*
X133011382Y-50000500D01*
X133078421Y-50020185D01*
G37*
%TD.AperFunction*%
%TA.AperFunction,NonConductor*%
G36*
X105484306Y-81398185D02*
G01*
X105530061Y-81450989D01*
X105540005Y-81520147D01*
X105510980Y-81583703D01*
X105504948Y-81590181D01*
X105336380Y-81758749D01*
X105336376Y-81758753D01*
X105257563Y-81837566D01*
X105178750Y-81916378D01*
X105056886Y-82075197D01*
X105056883Y-82075200D01*
X105053109Y-82080120D01*
X105043052Y-82093226D01*
X105006576Y-82156403D01*
X105005564Y-82158037D01*
X104980910Y-82180122D01*
X104956973Y-82202947D01*
X104955010Y-82203325D01*
X104953523Y-82204658D01*
X104920846Y-82209909D01*
X104888365Y-82216169D01*
X104886200Y-82215477D01*
X104884539Y-82215744D01*
X104877728Y-82212769D01*
X104838156Y-82200119D01*
X104806702Y-82181959D01*
X104806690Y-82181953D01*
X104564428Y-82081605D01*
X104564421Y-82081603D01*
X104564419Y-82081602D01*
X104311116Y-82013730D01*
X104253339Y-82006123D01*
X104051127Y-81979500D01*
X104051120Y-81979500D01*
X103788880Y-81979500D01*
X103788872Y-81979500D01*
X103557772Y-82009926D01*
X103528884Y-82013730D01*
X103456124Y-82033226D01*
X103275581Y-82081602D01*
X103275571Y-82081605D01*
X103033309Y-82181953D01*
X103033297Y-82181959D01*
X103027816Y-82185124D01*
X103021942Y-82186548D01*
X103017377Y-82190507D01*
X102988384Y-82194685D01*
X102959914Y-82201590D01*
X102954203Y-82199612D01*
X102948222Y-82200475D01*
X102921573Y-82188316D01*
X102893890Y-82178732D01*
X102888745Y-82173337D01*
X102884656Y-82171472D01*
X102869726Y-82153396D01*
X102861534Y-82144807D01*
X102859928Y-82142310D01*
X102796948Y-82033226D01*
X102755723Y-81979500D01*
X102661247Y-81856376D01*
X102661242Y-81856370D01*
X102501217Y-81696345D01*
X102501178Y-81696308D01*
X102395051Y-81590181D01*
X102361566Y-81528858D01*
X102366550Y-81459166D01*
X102408422Y-81403233D01*
X102473886Y-81378816D01*
X102482732Y-81378500D01*
X105417267Y-81378500D01*
X105484306Y-81398185D01*
G37*
%TD.AperFunction*%
%TA.AperFunction,NonConductor*%
G36*
X105430749Y-86495740D02*
G01*
X105573301Y-86578042D01*
X105575226Y-86579153D01*
X105623441Y-86629719D01*
X105636665Y-86698326D01*
X105610697Y-86763191D01*
X105600907Y-86774221D01*
X105029949Y-87345181D01*
X105003021Y-87359884D01*
X104977203Y-87376477D01*
X104971002Y-87377368D01*
X104968626Y-87378666D01*
X104942268Y-87381500D01*
X104736837Y-87381500D01*
X104669798Y-87361815D01*
X104624043Y-87309011D01*
X104614099Y-87239853D01*
X104643124Y-87176297D01*
X104649156Y-87169819D01*
X104915352Y-86903622D01*
X105038242Y-86780731D01*
X105038260Y-86780716D01*
X105201242Y-86617734D01*
X105201247Y-86617729D01*
X105270374Y-86527640D01*
X105326800Y-86486438D01*
X105396546Y-86482283D01*
X105430749Y-86495740D01*
G37*
%TD.AperFunction*%
%TA.AperFunction,NonConductor*%
G36*
X94295273Y-83399185D02*
G01*
X94341028Y-83451989D01*
X94350972Y-83521147D01*
X94348009Y-83535592D01*
X94333730Y-83588882D01*
X94299500Y-83848872D01*
X94299500Y-84911127D01*
X94326123Y-85113339D01*
X94333730Y-85171116D01*
X94383498Y-85356853D01*
X94401602Y-85424418D01*
X94401605Y-85424428D01*
X94501953Y-85666690D01*
X94501958Y-85666700D01*
X94633075Y-85893803D01*
X94792718Y-86101851D01*
X94792726Y-86101860D01*
X94978140Y-86287274D01*
X94978148Y-86287281D01*
X95186196Y-86446924D01*
X95413299Y-86578041D01*
X95413309Y-86578046D01*
X95655571Y-86678394D01*
X95655581Y-86678398D01*
X95908884Y-86746270D01*
X96168880Y-86780500D01*
X96168887Y-86780500D01*
X96431113Y-86780500D01*
X96431120Y-86780500D01*
X96691116Y-86746270D01*
X96944419Y-86678398D01*
X97186697Y-86578043D01*
X97192165Y-86574885D01*
X97260062Y-86558408D01*
X97326091Y-86581254D01*
X97361559Y-86620266D01*
X97423052Y-86726774D01*
X97423057Y-86726780D01*
X97423058Y-86726782D01*
X97558751Y-86903622D01*
X97558757Y-86903629D01*
X97719472Y-87064344D01*
X97719502Y-87064372D01*
X97824949Y-87169819D01*
X97858434Y-87231142D01*
X97853450Y-87300834D01*
X97811578Y-87356767D01*
X97746114Y-87381184D01*
X97737268Y-87381500D01*
X91091838Y-87381500D01*
X91024799Y-87361815D01*
X91004157Y-87345181D01*
X89737478Y-86078502D01*
X89737450Y-86078472D01*
X89576735Y-85917757D01*
X89576728Y-85917751D01*
X89399888Y-85782058D01*
X89399886Y-85782057D01*
X89399880Y-85782052D01*
X89206832Y-85670595D01*
X89206828Y-85670593D01*
X89000896Y-85585293D01*
X89000889Y-85585291D01*
X89000887Y-85585290D01*
X88785569Y-85527596D01*
X88736456Y-85521130D01*
X88564569Y-85498499D01*
X88564562Y-85498499D01*
X88341650Y-85498499D01*
X88337810Y-85498499D01*
X88337778Y-85498500D01*
X87122518Y-85498500D01*
X87055479Y-85478815D01*
X87009724Y-85426011D01*
X86999780Y-85356853D01*
X87028805Y-85293297D01*
X87034837Y-85286819D01*
X88905837Y-83415819D01*
X88967160Y-83382334D01*
X88993518Y-83379500D01*
X94228234Y-83379500D01*
X94295273Y-83399185D01*
G37*
%TD.AperFunction*%
%TA.AperFunction,NonConductor*%
G36*
X110607863Y-86562105D02*
G01*
X110615059Y-86561763D01*
X110647823Y-86574879D01*
X110653303Y-86578043D01*
X110653306Y-86578044D01*
X110653309Y-86578046D01*
X110895571Y-86678394D01*
X110895581Y-86678398D01*
X111148884Y-86746270D01*
X111408880Y-86780500D01*
X111408887Y-86780500D01*
X111671113Y-86780500D01*
X111671120Y-86780500D01*
X111931116Y-86746270D01*
X111984409Y-86731990D01*
X112054256Y-86733653D01*
X112112118Y-86772815D01*
X112139623Y-86837043D01*
X112140500Y-86851765D01*
X112140500Y-89528233D01*
X112120815Y-89595272D01*
X112068011Y-89641027D01*
X111998853Y-89650971D01*
X111984408Y-89648008D01*
X111931130Y-89633733D01*
X111931120Y-89633731D01*
X111931116Y-89633730D01*
X111873339Y-89626123D01*
X111671127Y-89599500D01*
X111671120Y-89599500D01*
X111408880Y-89599500D01*
X111408872Y-89599500D01*
X111177772Y-89629926D01*
X111148884Y-89633730D01*
X110939504Y-89689833D01*
X110895581Y-89701602D01*
X110895571Y-89701605D01*
X110653309Y-89801953D01*
X110653299Y-89801958D01*
X110426197Y-89933075D01*
X110345486Y-89995007D01*
X110280317Y-90020201D01*
X110211872Y-90006162D01*
X110194514Y-89995007D01*
X110113802Y-89933075D01*
X109886700Y-89801958D01*
X109886690Y-89801953D01*
X109644428Y-89701605D01*
X109644421Y-89701603D01*
X109644419Y-89701602D01*
X109391116Y-89633730D01*
X109333339Y-89626123D01*
X109131127Y-89599500D01*
X109131120Y-89599500D01*
X108868880Y-89599500D01*
X108868872Y-89599500D01*
X108637772Y-89629926D01*
X108608884Y-89633730D01*
X108399504Y-89689833D01*
X108355581Y-89701602D01*
X108355571Y-89701605D01*
X108113309Y-89801953D01*
X108113299Y-89801958D01*
X107886197Y-89933075D01*
X107805486Y-89995007D01*
X107782638Y-90003839D01*
X107761678Y-90016516D01*
X107750628Y-90016214D01*
X107740317Y-90020201D01*
X107716319Y-90015278D01*
X107691834Y-90014611D01*
X107678233Y-90007466D01*
X107671872Y-90006162D01*
X107660141Y-89999080D01*
X107657262Y-89997117D01*
X107573803Y-89933076D01*
X107505586Y-89893691D01*
X107501747Y-89891073D01*
X107482421Y-89867500D01*
X107461390Y-89845443D01*
X107460484Y-89840743D01*
X107457449Y-89837041D01*
X107453935Y-89806760D01*
X107448168Y-89776836D01*
X107449946Y-89772392D01*
X107449395Y-89767637D01*
X107462807Y-89740267D01*
X107474136Y-89711971D01*
X107479804Y-89705585D01*
X107480142Y-89704896D01*
X107480733Y-89704538D01*
X107483917Y-89700951D01*
X110118242Y-87066626D01*
X110118260Y-87066611D01*
X110281242Y-86903629D01*
X110281247Y-86903624D01*
X110416948Y-86726774D01*
X110478440Y-86620266D01*
X110484990Y-86614021D01*
X110488355Y-86605617D01*
X110509880Y-86590287D01*
X110529006Y-86572052D01*
X110537894Y-86570338D01*
X110545268Y-86565088D01*
X110571663Y-86563830D01*
X110597613Y-86558829D01*
X110607863Y-86562105D01*
G37*
%TD.AperFunction*%
%TA.AperFunction,NonConductor*%
G36*
X98205703Y-95171019D02*
G01*
X98212181Y-95177051D01*
X98794184Y-95759054D01*
X98827669Y-95820377D01*
X98828070Y-95864374D01*
X98829126Y-95864513D01*
X98799499Y-96089536D01*
X98799499Y-96316842D01*
X98799500Y-96316871D01*
X98799500Y-99382847D01*
X98779815Y-99449886D01*
X98727011Y-99495641D01*
X98657853Y-99505585D01*
X98594297Y-99476560D01*
X98568978Y-99446321D01*
X98506032Y-99340686D01*
X98454533Y-99254259D01*
X98299174Y-99070826D01*
X98115741Y-98915467D01*
X98115736Y-98915464D01*
X98115735Y-98915463D01*
X98061026Y-98882863D01*
X98013512Y-98831636D01*
X98000500Y-98776341D01*
X98000500Y-95264732D01*
X98020185Y-95197693D01*
X98072989Y-95151938D01*
X98142147Y-95141994D01*
X98205703Y-95171019D01*
G37*
%TD.AperFunction*%
%TA.AperFunction,NonConductor*%
G36*
X63662539Y-97220185D02*
G01*
X63708294Y-97272989D01*
X63719500Y-97324500D01*
X63719500Y-99345826D01*
X63699815Y-99412865D01*
X63688730Y-99427582D01*
X63686685Y-99429913D01*
X63503099Y-99669168D01*
X63352318Y-99930328D01*
X63352314Y-99930338D01*
X63236914Y-100208937D01*
X63216695Y-100284397D01*
X63161751Y-100489452D01*
X63160824Y-100492911D01*
X63124459Y-100552571D01*
X63061612Y-100583100D01*
X62992236Y-100574805D01*
X62953368Y-100548498D01*
X62086819Y-99681949D01*
X62053334Y-99620626D01*
X62050500Y-99594268D01*
X62050500Y-98925904D01*
X62046065Y-98862021D01*
X62044081Y-98833433D01*
X62044079Y-98833427D01*
X62044079Y-98833422D01*
X61993145Y-98616864D01*
X61993144Y-98616861D01*
X61993143Y-98616857D01*
X61903277Y-98413329D01*
X61777542Y-98229779D01*
X61777537Y-98229773D01*
X61620226Y-98072462D01*
X61620220Y-98072457D01*
X61436668Y-97946721D01*
X61233151Y-97856860D01*
X61233135Y-97856854D01*
X61016577Y-97805920D01*
X61016561Y-97805918D01*
X60924096Y-97799500D01*
X60924092Y-97799500D01*
X60052732Y-97799500D01*
X59985693Y-97779815D01*
X59939938Y-97727011D01*
X59929994Y-97657853D01*
X59959019Y-97594297D01*
X59965051Y-97587819D01*
X60316051Y-97236819D01*
X60377374Y-97203334D01*
X60403732Y-97200500D01*
X63595500Y-97200500D01*
X63662539Y-97220185D01*
G37*
%TD.AperFunction*%
%TA.AperFunction,NonConductor*%
G36*
X94191567Y-90786131D02*
G01*
X94204417Y-90785091D01*
X94224451Y-90795787D01*
X94246238Y-90802185D01*
X94254679Y-90811927D01*
X94266052Y-90817999D01*
X94277122Y-90837827D01*
X94291993Y-90854989D01*
X94294620Y-90869167D01*
X94300112Y-90879004D01*
X94302961Y-90914183D01*
X94299500Y-90969922D01*
X94299500Y-93030055D01*
X94299501Y-93030078D01*
X94305706Y-93130031D01*
X94355037Y-93365300D01*
X94355040Y-93365310D01*
X94442416Y-93589234D01*
X94565468Y-93795742D01*
X94570122Y-93801236D01*
X94598429Y-93865115D01*
X94599500Y-93881378D01*
X94599500Y-98963655D01*
X94579815Y-99030694D01*
X94555645Y-99058274D01*
X94540828Y-99070823D01*
X94440337Y-99189474D01*
X94385467Y-99254259D01*
X94308845Y-99382847D01*
X94262416Y-99460765D01*
X94175040Y-99684689D01*
X94175037Y-99684699D01*
X94125706Y-99919966D01*
X94125705Y-99919969D01*
X94119500Y-100019921D01*
X94119500Y-101880078D01*
X94125705Y-101980030D01*
X94125706Y-101980033D01*
X94175037Y-102215300D01*
X94175040Y-102215310D01*
X94262416Y-102439234D01*
X94262418Y-102439238D01*
X94385467Y-102645741D01*
X94540826Y-102829174D01*
X94724259Y-102984533D01*
X94930762Y-103107582D01*
X94930765Y-103107583D01*
X95154689Y-103194959D01*
X95154696Y-103194961D01*
X95154701Y-103194963D01*
X95389968Y-103244294D01*
X95389969Y-103244294D01*
X95390947Y-103244499D01*
X95452520Y-103277523D01*
X95486465Y-103338593D01*
X95489500Y-103365860D01*
X95489500Y-108911126D01*
X95472888Y-108973125D01*
X95391956Y-109113304D01*
X95391953Y-109113309D01*
X95291605Y-109355571D01*
X95291602Y-109355580D01*
X95291602Y-109355581D01*
X95233652Y-109571857D01*
X95223730Y-109608885D01*
X95189500Y-109868872D01*
X95189500Y-110131127D01*
X95214815Y-110323403D01*
X95223730Y-110391116D01*
X95251667Y-110495378D01*
X95291602Y-110644418D01*
X95291605Y-110644428D01*
X95391953Y-110886690D01*
X95391958Y-110886700D01*
X95523075Y-111113803D01*
X95682718Y-111321851D01*
X95682726Y-111321860D01*
X95868140Y-111507274D01*
X95868148Y-111507281D01*
X95868149Y-111507282D01*
X95871887Y-111510150D01*
X96076196Y-111666924D01*
X96303299Y-111798041D01*
X96303309Y-111798046D01*
X96545571Y-111898394D01*
X96545581Y-111898398D01*
X96798884Y-111966270D01*
X97058880Y-112000500D01*
X97058887Y-112000500D01*
X97321113Y-112000500D01*
X97321120Y-112000500D01*
X97581116Y-111966270D01*
X97834419Y-111898398D01*
X98076697Y-111798043D01*
X98303803Y-111666924D01*
X98511851Y-111507282D01*
X98511855Y-111507277D01*
X98511860Y-111507274D01*
X98587819Y-111431315D01*
X98649142Y-111397830D01*
X98718834Y-111402814D01*
X98774767Y-111444686D01*
X98799184Y-111510150D01*
X98799500Y-111518996D01*
X98799500Y-117880868D01*
X98779815Y-117947907D01*
X98727011Y-117993662D01*
X98657853Y-118003606D01*
X98594297Y-117974581D01*
X98587819Y-117968549D01*
X90320220Y-109700950D01*
X90305517Y-109674024D01*
X90288924Y-109648205D01*
X90288032Y-109642002D01*
X90286735Y-109639627D01*
X90283901Y-109613270D01*
X90283901Y-109567513D01*
X90283901Y-109519544D01*
X90283900Y-109519536D01*
X90283900Y-102038872D01*
X90300513Y-101976872D01*
X90381443Y-101836697D01*
X90481798Y-101594419D01*
X90549670Y-101341116D01*
X90583900Y-101081120D01*
X90583900Y-100818880D01*
X90549670Y-100558884D01*
X90481798Y-100305581D01*
X90473023Y-100284397D01*
X90381446Y-100063309D01*
X90381443Y-100063304D01*
X90381443Y-100063303D01*
X90300512Y-99923125D01*
X90283900Y-99861126D01*
X90283900Y-90906500D01*
X90303585Y-90839461D01*
X90356389Y-90793706D01*
X90407900Y-90782500D01*
X90447562Y-90782500D01*
X94179199Y-90782500D01*
X94191567Y-90786131D01*
G37*
%TD.AperFunction*%
%TA.AperFunction,NonConductor*%
G36*
X78595703Y-110352428D02*
G01*
X78633477Y-110411206D01*
X78634265Y-110414015D01*
X78656067Y-110495378D01*
X78696002Y-110644418D01*
X78696005Y-110644428D01*
X78796353Y-110886690D01*
X78796358Y-110886699D01*
X78877287Y-111026872D01*
X78893900Y-111088872D01*
X78893900Y-118188892D01*
X78874215Y-118255931D01*
X78821411Y-118301686D01*
X78752253Y-118311630D01*
X78688697Y-118282605D01*
X78675281Y-118269037D01*
X78669173Y-118261826D01*
X78485745Y-118106470D01*
X78485742Y-118106468D01*
X78451025Y-118085781D01*
X78403511Y-118034554D01*
X78390500Y-117979259D01*
X78390500Y-110446141D01*
X78410185Y-110379102D01*
X78462989Y-110333347D01*
X78532147Y-110323403D01*
X78595703Y-110352428D01*
G37*
%TD.AperFunction*%
%TA.AperFunction,NonConductor*%
G36*
X82500103Y-116782314D02*
G01*
X82506581Y-116788346D01*
X83425441Y-117707206D01*
X83458926Y-117768529D01*
X83453942Y-117838221D01*
X83412070Y-117894154D01*
X83369854Y-117914662D01*
X83309318Y-117930882D01*
X83265581Y-117942602D01*
X83265579Y-117942602D01*
X83265578Y-117942603D01*
X83265571Y-117942605D01*
X83023309Y-118042953D01*
X83023299Y-118042958D01*
X82796196Y-118174075D01*
X82588148Y-118333718D01*
X82506581Y-118415285D01*
X82445258Y-118448770D01*
X82375566Y-118443786D01*
X82319633Y-118401914D01*
X82295216Y-118336450D01*
X82294900Y-118327604D01*
X82294900Y-116876027D01*
X82314585Y-116808988D01*
X82367389Y-116763233D01*
X82436547Y-116753289D01*
X82500103Y-116782314D01*
G37*
%TD.AperFunction*%
%TA.AperFunction,NonConductor*%
G36*
X85900091Y-90762655D02*
G01*
X85901704Y-90762410D01*
X85932236Y-90776041D01*
X85963087Y-90788888D01*
X85964686Y-90790529D01*
X85965504Y-90790894D01*
X85966448Y-90792337D01*
X85983473Y-90809803D01*
X85992718Y-90821851D01*
X85992722Y-90821855D01*
X85992726Y-90821860D01*
X86178140Y-91007274D01*
X86178148Y-91007281D01*
X86386196Y-91166924D01*
X86613299Y-91298041D01*
X86613300Y-91298041D01*
X86613303Y-91298043D01*
X86806353Y-91378007D01*
X86860756Y-91421848D01*
X86882821Y-91488142D01*
X86882900Y-91492568D01*
X86882900Y-99861126D01*
X86866288Y-99923125D01*
X86785356Y-100063304D01*
X86785353Y-100063309D01*
X86685005Y-100305571D01*
X86685002Y-100305581D01*
X86632846Y-100500233D01*
X86617130Y-100558885D01*
X86582900Y-100818872D01*
X86582900Y-101081127D01*
X86607170Y-101265467D01*
X86617130Y-101341116D01*
X86685002Y-101594418D01*
X86685005Y-101594428D01*
X86785353Y-101836690D01*
X86785357Y-101836697D01*
X86860167Y-101966273D01*
X86866287Y-101976872D01*
X86882900Y-102038872D01*
X86882900Y-108451004D01*
X86863215Y-108518043D01*
X86846581Y-108538685D01*
X86707118Y-108678148D01*
X86547475Y-108886196D01*
X86416358Y-109113299D01*
X86416353Y-109113309D01*
X86316005Y-109355571D01*
X86316002Y-109355580D01*
X86316002Y-109355581D01*
X86258052Y-109571857D01*
X86248130Y-109608885D01*
X86213900Y-109868872D01*
X86213900Y-110131127D01*
X86239215Y-110323403D01*
X86248130Y-110391116D01*
X86276067Y-110495378D01*
X86316002Y-110644418D01*
X86316005Y-110644428D01*
X86416353Y-110886690D01*
X86416358Y-110886700D01*
X86547475Y-111113803D01*
X86707118Y-111321851D01*
X86707126Y-111321860D01*
X86892540Y-111507274D01*
X86892548Y-111507281D01*
X86892549Y-111507282D01*
X86896287Y-111510150D01*
X87100596Y-111666924D01*
X87327699Y-111798041D01*
X87327709Y-111798046D01*
X87569971Y-111898394D01*
X87569981Y-111898398D01*
X87726326Y-111940290D01*
X87781913Y-111972383D01*
X96098042Y-120288512D01*
X96131527Y-120349835D01*
X96126543Y-120419527D01*
X96098044Y-120463872D01*
X96064069Y-120497848D01*
X95983216Y-120578701D01*
X95832696Y-120767447D01*
X95775507Y-120807587D01*
X95705696Y-120810437D01*
X95645426Y-120775091D01*
X95615043Y-120718523D01*
X95563145Y-120497866D01*
X95563143Y-120497857D01*
X95509423Y-120376193D01*
X95473278Y-120294331D01*
X95470556Y-120290358D01*
X95347542Y-120110779D01*
X95347537Y-120110773D01*
X95190226Y-119953462D01*
X95190220Y-119953457D01*
X95006668Y-119827721D01*
X94803151Y-119737860D01*
X94803135Y-119737854D01*
X94586577Y-119686920D01*
X94586561Y-119686918D01*
X94494096Y-119680500D01*
X94494092Y-119680500D01*
X91345908Y-119680500D01*
X91345904Y-119680500D01*
X91253438Y-119686918D01*
X91253422Y-119686920D01*
X91036864Y-119737854D01*
X91036848Y-119737860D01*
X90833331Y-119827721D01*
X90649779Y-119953457D01*
X90649773Y-119953462D01*
X90492462Y-120110773D01*
X90492457Y-120110779D01*
X90366721Y-120294331D01*
X90276860Y-120497848D01*
X90276854Y-120497866D01*
X90256387Y-120584889D01*
X90221877Y-120645642D01*
X90160000Y-120678092D01*
X90135681Y-120680500D01*
X88835500Y-120680500D01*
X88768461Y-120660815D01*
X88722706Y-120608011D01*
X88711500Y-120556500D01*
X88711500Y-118776444D01*
X88711500Y-118776438D01*
X88682404Y-118555432D01*
X88668717Y-118504353D01*
X88624710Y-118340114D01*
X88539405Y-118134169D01*
X88539403Y-118134166D01*
X88539401Y-118134161D01*
X88427952Y-117941127D01*
X88427948Y-117941120D01*
X88407646Y-117914662D01*
X88350741Y-117840501D01*
X88350737Y-117840498D01*
X88292246Y-117764270D01*
X88292242Y-117764265D01*
X88132217Y-117604240D01*
X88132178Y-117604203D01*
X85320219Y-114792244D01*
X85286734Y-114730921D01*
X85283900Y-114704563D01*
X85283900Y-102038872D01*
X85300513Y-101976872D01*
X85381443Y-101836697D01*
X85481798Y-101594419D01*
X85549670Y-101341116D01*
X85567867Y-101202890D01*
X85576243Y-101171631D01*
X85613710Y-101081181D01*
X85671404Y-100865863D01*
X85700500Y-100644857D01*
X85700500Y-100421944D01*
X85700500Y-90981378D01*
X85705374Y-90964510D01*
X85705230Y-90947456D01*
X85716306Y-90926684D01*
X85719618Y-90915228D01*
X85724257Y-90907872D01*
X85734533Y-90895740D01*
X85779413Y-90820421D01*
X85780219Y-90819144D01*
X85805305Y-90797030D01*
X85829804Y-90774307D01*
X85831408Y-90774020D01*
X85832632Y-90772942D01*
X85865681Y-90767902D01*
X85898586Y-90762029D01*
X85900091Y-90762655D01*
G37*
%TD.AperFunction*%
%TA.AperFunction,NonConductor*%
G36*
X105888544Y-96401501D02*
G01*
X106111456Y-96401501D01*
X106111464Y-96401500D01*
X110918215Y-96401500D01*
X110985254Y-96421185D01*
X111031009Y-96473989D01*
X111040953Y-96543147D01*
X111011928Y-96606703D01*
X111005896Y-96613181D01*
X108405896Y-99213181D01*
X108344573Y-99246666D01*
X108318215Y-99249500D01*
X108184174Y-99249500D01*
X108117135Y-99229815D01*
X108102418Y-99218730D01*
X108100086Y-99216685D01*
X107860831Y-99033099D01*
X107599671Y-98882318D01*
X107599661Y-98882314D01*
X107321060Y-98766913D01*
X107029766Y-98688861D01*
X106730793Y-98649501D01*
X106730788Y-98649500D01*
X106730783Y-98649500D01*
X106429217Y-98649500D01*
X106429211Y-98649500D01*
X106429206Y-98649501D01*
X106130233Y-98688861D01*
X105838939Y-98766913D01*
X105560338Y-98882314D01*
X105560328Y-98882318D01*
X105299168Y-99033099D01*
X105059921Y-99216679D01*
X105059914Y-99216685D01*
X104846685Y-99429914D01*
X104846679Y-99429921D01*
X104663099Y-99669168D01*
X104512318Y-99930328D01*
X104512314Y-99930338D01*
X104396913Y-100208939D01*
X104318861Y-100500233D01*
X104279499Y-100799218D01*
X104279296Y-100802322D01*
X104278975Y-100803195D01*
X104278970Y-100803241D01*
X104278959Y-100803239D01*
X104255265Y-100867929D01*
X104243243Y-100881886D01*
X103982713Y-101142416D01*
X103686380Y-101438749D01*
X103686376Y-101438753D01*
X103607563Y-101517566D01*
X103528750Y-101596378D01*
X103433473Y-101720548D01*
X103393058Y-101773217D01*
X103393052Y-101773226D01*
X103281595Y-101966273D01*
X103281593Y-101966277D01*
X103196293Y-102172209D01*
X103196290Y-102172219D01*
X103143314Y-102369931D01*
X103138596Y-102387538D01*
X103109499Y-102608536D01*
X103109499Y-102835842D01*
X103109500Y-102835871D01*
X103109500Y-108911126D01*
X103092888Y-108973125D01*
X103011956Y-109113304D01*
X103011953Y-109113309D01*
X102911605Y-109355571D01*
X102911602Y-109355580D01*
X102911602Y-109355581D01*
X102853652Y-109571857D01*
X102843730Y-109608885D01*
X102809500Y-109868872D01*
X102809500Y-110131127D01*
X102834815Y-110323403D01*
X102843730Y-110391116D01*
X102871667Y-110495378D01*
X102911602Y-110644418D01*
X102911605Y-110644428D01*
X103011953Y-110886690D01*
X103011958Y-110886700D01*
X103143075Y-111113803D01*
X103302718Y-111321851D01*
X103302726Y-111321860D01*
X103488140Y-111507274D01*
X103488148Y-111507281D01*
X103488149Y-111507282D01*
X103491887Y-111510150D01*
X103696196Y-111666924D01*
X103923299Y-111798041D01*
X103923309Y-111798046D01*
X104165571Y-111898394D01*
X104165581Y-111898398D01*
X104418884Y-111966270D01*
X104678880Y-112000500D01*
X104678887Y-112000500D01*
X104941113Y-112000500D01*
X104941120Y-112000500D01*
X105201116Y-111966270D01*
X105454419Y-111898398D01*
X105696697Y-111798043D01*
X105923803Y-111666924D01*
X106131851Y-111507282D01*
X106131855Y-111507277D01*
X106131860Y-111507274D01*
X106317274Y-111321860D01*
X106317277Y-111321855D01*
X106317282Y-111321851D01*
X106476924Y-111113803D01*
X106608043Y-110886697D01*
X106616916Y-110865277D01*
X106681422Y-110709544D01*
X106708398Y-110644419D01*
X106776270Y-110391116D01*
X106810500Y-110131120D01*
X106810500Y-109868880D01*
X106776270Y-109608884D01*
X106708398Y-109355581D01*
X106686806Y-109303454D01*
X106608046Y-109113309D01*
X106608043Y-109113304D01*
X106608043Y-109113303D01*
X106527112Y-108973125D01*
X106510500Y-108911126D01*
X106510500Y-103475732D01*
X106519145Y-103446288D01*
X106525668Y-103416306D01*
X106529422Y-103411290D01*
X106530185Y-103408693D01*
X106546813Y-103388056D01*
X106648116Y-103286753D01*
X106709435Y-103253271D01*
X106727695Y-103250702D01*
X106730773Y-103250500D01*
X106730783Y-103250500D01*
X107029768Y-103211138D01*
X107321058Y-103133087D01*
X107599668Y-103017683D01*
X107860832Y-102866900D01*
X108100080Y-102683319D01*
X108100081Y-102683317D01*
X108100086Y-102683314D01*
X108102418Y-102681270D01*
X108103260Y-102680879D01*
X108103301Y-102680848D01*
X108103308Y-102680857D01*
X108165800Y-102651869D01*
X108184174Y-102650500D01*
X108958619Y-102650500D01*
X108958651Y-102650501D01*
X108962491Y-102650501D01*
X109185396Y-102650501D01*
X109185403Y-102650501D01*
X109406410Y-102621404D01*
X109621728Y-102563710D01*
X109827673Y-102478405D01*
X110020721Y-102366948D01*
X110197571Y-102231247D01*
X110355194Y-102073624D01*
X110360558Y-102068260D01*
X110360573Y-102068242D01*
X115930821Y-96497995D01*
X115992142Y-96464512D01*
X116061834Y-96469496D01*
X116117767Y-96511368D01*
X116142184Y-96576832D01*
X116142500Y-96585678D01*
X116142500Y-99401267D01*
X116122815Y-99468306D01*
X116106181Y-99488948D01*
X114631947Y-100963181D01*
X114570624Y-100996666D01*
X114544267Y-100999500D01*
X114369944Y-100999500D01*
X114369921Y-100999501D01*
X114269968Y-101005706D01*
X114034699Y-101055037D01*
X114034689Y-101055040D01*
X113810765Y-101142416D01*
X113604254Y-101265470D01*
X113420826Y-101420826D01*
X113265470Y-101604254D01*
X113142416Y-101810765D01*
X113055040Y-102034689D01*
X113055037Y-102034699D01*
X113005706Y-102269967D01*
X113005705Y-102269970D01*
X112999500Y-102369922D01*
X112999500Y-102544267D01*
X112979815Y-102611306D01*
X112963181Y-102631948D01*
X111575380Y-104019749D01*
X111575376Y-104019753D01*
X111496563Y-104098566D01*
X111417750Y-104177378D01*
X111298752Y-104332460D01*
X111298751Y-104332463D01*
X111282052Y-104354226D01*
X111258084Y-104395740D01*
X111170595Y-104547273D01*
X111170593Y-104547277D01*
X111085293Y-104753209D01*
X111085290Y-104753219D01*
X111038714Y-104927046D01*
X111027596Y-104968538D01*
X110998499Y-105189536D01*
X110998499Y-105416842D01*
X110998500Y-105416871D01*
X110998500Y-119969274D01*
X110978815Y-120036313D01*
X110962181Y-120056955D01*
X110908362Y-120110773D01*
X110908357Y-120110779D01*
X110782621Y-120294331D01*
X110692760Y-120497848D01*
X110692754Y-120497864D01*
X110640856Y-120718524D01*
X110606346Y-120779276D01*
X110544469Y-120811726D01*
X110474871Y-120805571D01*
X110423203Y-120767447D01*
X110272679Y-120578696D01*
X110058203Y-120364220D01*
X109956399Y-120283034D01*
X109821064Y-120175108D01*
X109600174Y-120036313D01*
X109564238Y-120013733D01*
X109290968Y-119882133D01*
X109004683Y-119781957D01*
X109004671Y-119781953D01*
X108776456Y-119729864D01*
X108708963Y-119714460D01*
X108708960Y-119714459D01*
X108708948Y-119714457D01*
X108407563Y-119680500D01*
X108407557Y-119680500D01*
X108104243Y-119680500D01*
X108104236Y-119680500D01*
X107802851Y-119714457D01*
X107802837Y-119714460D01*
X107507128Y-119781953D01*
X107507116Y-119781957D01*
X107220831Y-119882133D01*
X106947561Y-120013733D01*
X106690737Y-120175107D01*
X106453596Y-120364220D01*
X106239114Y-120578702D01*
X106195167Y-120633812D01*
X106137979Y-120673953D01*
X106098220Y-120680500D01*
X103755732Y-120680500D01*
X103688693Y-120660815D01*
X103668051Y-120644181D01*
X102236819Y-119212949D01*
X102203334Y-119151626D01*
X102200500Y-119125268D01*
X102200500Y-96956732D01*
X102220185Y-96889693D01*
X102236819Y-96869051D01*
X102668051Y-96437819D01*
X102729374Y-96404334D01*
X102755732Y-96401500D01*
X105888536Y-96401500D01*
X105888544Y-96401501D01*
G37*
%TD.AperFunction*%
%TA.AperFunction,NonConductor*%
G36*
X86888544Y-124081501D02*
G01*
X87111456Y-124081501D01*
X87111464Y-124081500D01*
X90135681Y-124081500D01*
X90202720Y-124101185D01*
X90248475Y-124153989D01*
X90256387Y-124177111D01*
X90276854Y-124264133D01*
X90276860Y-124264151D01*
X90366721Y-124467668D01*
X90492457Y-124651220D01*
X90492462Y-124651226D01*
X90649773Y-124808537D01*
X90649779Y-124808542D01*
X90833329Y-124934277D01*
X91036857Y-125024143D01*
X91036861Y-125024144D01*
X91036864Y-125024145D01*
X91253422Y-125075079D01*
X91253427Y-125075079D01*
X91253433Y-125075081D01*
X91304808Y-125078647D01*
X91345904Y-125081500D01*
X91345908Y-125081500D01*
X94494096Y-125081500D01*
X94531082Y-125078932D01*
X94586567Y-125075081D01*
X94592839Y-125073606D01*
X94684162Y-125052127D01*
X94732151Y-125040840D01*
X94801916Y-125044652D01*
X94858545Y-125085578D01*
X94884059Y-125150623D01*
X94870356Y-125219136D01*
X94848222Y-125249227D01*
X94612269Y-125485181D01*
X94550946Y-125518666D01*
X94524588Y-125521500D01*
X86781766Y-125521500D01*
X86714727Y-125501815D01*
X86668972Y-125449011D01*
X86659028Y-125379853D01*
X86661991Y-125365408D01*
X86667636Y-125344338D01*
X86676270Y-125312116D01*
X86710500Y-125052120D01*
X86710500Y-124789880D01*
X86676270Y-124529884D01*
X86608398Y-124276581D01*
X86598610Y-124252952D01*
X86591142Y-124183484D01*
X86622416Y-124121005D01*
X86682505Y-124085352D01*
X86713172Y-124081500D01*
X86888536Y-124081500D01*
X86888544Y-124081501D01*
G37*
%TD.AperFunction*%
%TA.AperFunction,NonConductor*%
G36*
X79190668Y-124444269D02*
G01*
X79193647Y-124443584D01*
X79223856Y-124454444D01*
X79254549Y-124463854D01*
X79257390Y-124466499D01*
X79259398Y-124467221D01*
X79284650Y-124491878D01*
X79313157Y-124529029D01*
X79473872Y-124689744D01*
X79473902Y-124689772D01*
X80093949Y-125309819D01*
X80127434Y-125371142D01*
X80122450Y-125440834D01*
X80080578Y-125496767D01*
X80015114Y-125521184D01*
X80006268Y-125521500D01*
X79161766Y-125521500D01*
X79094727Y-125501815D01*
X79048972Y-125449011D01*
X79039028Y-125379853D01*
X79041991Y-125365408D01*
X79047636Y-125344338D01*
X79056270Y-125312116D01*
X79090500Y-125052120D01*
X79090500Y-124789880D01*
X79063335Y-124583548D01*
X79063805Y-124580531D01*
X79062704Y-124577682D01*
X79069154Y-124546234D01*
X79074100Y-124514516D01*
X79076128Y-124512230D01*
X79076742Y-124509238D01*
X79099171Y-124486268D01*
X79120480Y-124462260D01*
X79123421Y-124461434D01*
X79125556Y-124459248D01*
X79156850Y-124452048D01*
X79187749Y-124443374D01*
X79190668Y-124444269D01*
G37*
%TD.AperFunction*%
%TA.AperFunction,NonConductor*%
G36*
X56791949Y-102092730D02*
G01*
X56799474Y-102095847D01*
X57059109Y-102165416D01*
X57247319Y-102190193D01*
X57325602Y-102200500D01*
X57325603Y-102200500D01*
X57594398Y-102200500D01*
X57654905Y-102192534D01*
X57860891Y-102165416D01*
X58120526Y-102095847D01*
X58128046Y-102092731D01*
X58197513Y-102085262D01*
X58259993Y-102116535D01*
X58295647Y-102176622D01*
X58299500Y-102207292D01*
X58299500Y-108855671D01*
X58299499Y-108855705D01*
X58299499Y-108859544D01*
X58299499Y-109082456D01*
X58321067Y-109246274D01*
X58328596Y-109303463D01*
X58342561Y-109355580D01*
X58386290Y-109518780D01*
X58386293Y-109518790D01*
X58471593Y-109724722D01*
X58471595Y-109724726D01*
X58583052Y-109917774D01*
X58583057Y-109917780D01*
X58583058Y-109917782D01*
X58718751Y-110094622D01*
X58718757Y-110094629D01*
X58879472Y-110255344D01*
X58879502Y-110255372D01*
X59056615Y-110432485D01*
X59088709Y-110488072D01*
X59130602Y-110644419D01*
X59230951Y-110886685D01*
X59230958Y-110886700D01*
X59362075Y-111113803D01*
X59521718Y-111321851D01*
X59521726Y-111321860D01*
X59707140Y-111507274D01*
X59707148Y-111507281D01*
X59707149Y-111507282D01*
X59710887Y-111510150D01*
X59915196Y-111666924D01*
X60142299Y-111798041D01*
X60142309Y-111798046D01*
X60384571Y-111898394D01*
X60384581Y-111898398D01*
X60637884Y-111966270D01*
X60897880Y-112000500D01*
X60897887Y-112000500D01*
X61160113Y-112000500D01*
X61160120Y-112000500D01*
X61420116Y-111966270D01*
X61673419Y-111898398D01*
X61915697Y-111798043D01*
X62142803Y-111666924D01*
X62350851Y-111507282D01*
X62350855Y-111507277D01*
X62350860Y-111507274D01*
X62536274Y-111321860D01*
X62536277Y-111321855D01*
X62536282Y-111321851D01*
X62695924Y-111113803D01*
X62827043Y-110886697D01*
X62835916Y-110865277D01*
X62900422Y-110709544D01*
X62927398Y-110644419D01*
X62995270Y-110391116D01*
X63029500Y-110131120D01*
X63029500Y-109868880D01*
X62995270Y-109608884D01*
X62927398Y-109355581D01*
X62905806Y-109303454D01*
X62827046Y-109113309D01*
X62827041Y-109113299D01*
X62695924Y-108886196D01*
X62536281Y-108678148D01*
X62536274Y-108678140D01*
X62350860Y-108492726D01*
X62350851Y-108492718D01*
X62142803Y-108333075D01*
X61915700Y-108201958D01*
X61915690Y-108201953D01*
X61777047Y-108144525D01*
X61722643Y-108100683D01*
X61700579Y-108034389D01*
X61700500Y-108029964D01*
X61700500Y-104404732D01*
X61720185Y-104337693D01*
X61772989Y-104291938D01*
X61842147Y-104281994D01*
X61905703Y-104311019D01*
X61912181Y-104317051D01*
X62716308Y-105121178D01*
X62716345Y-105121217D01*
X62876370Y-105281242D01*
X62876376Y-105281247D01*
X63053226Y-105416948D01*
X63246274Y-105528405D01*
X63376140Y-105582197D01*
X63451226Y-105613299D01*
X63452219Y-105613710D01*
X63667537Y-105671404D01*
X63888543Y-105700500D01*
X63888544Y-105700500D01*
X63888550Y-105700500D01*
X79111450Y-105700500D01*
X79111457Y-105700500D01*
X79159314Y-105694199D01*
X79228349Y-105704964D01*
X79280605Y-105751343D01*
X79299500Y-105817138D01*
X79299500Y-108414404D01*
X79279815Y-108481443D01*
X79263181Y-108502085D01*
X79087118Y-108678148D01*
X78927475Y-108886196D01*
X78796358Y-109113299D01*
X78796353Y-109113309D01*
X78696005Y-109355571D01*
X78696002Y-109355580D01*
X78696002Y-109355581D01*
X78638052Y-109571857D01*
X78628130Y-109608885D01*
X78593900Y-109868872D01*
X78593900Y-110044352D01*
X78574215Y-110111391D01*
X78521411Y-110157146D01*
X78452253Y-110167090D01*
X78388697Y-110138065D01*
X78350923Y-110079287D01*
X78350136Y-110076486D01*
X78303710Y-109903219D01*
X78222453Y-109707049D01*
X78214077Y-109675784D01*
X78205270Y-109608884D01*
X78137398Y-109355581D01*
X78115806Y-109303454D01*
X78037046Y-109113309D01*
X78037041Y-109113299D01*
X77905924Y-108886196D01*
X77746281Y-108678148D01*
X77746274Y-108678140D01*
X77560860Y-108492726D01*
X77560851Y-108492718D01*
X77352803Y-108333075D01*
X77125700Y-108201958D01*
X77125690Y-108201953D01*
X76883428Y-108101605D01*
X76883421Y-108101603D01*
X76883419Y-108101602D01*
X76630116Y-108033730D01*
X76572339Y-108026123D01*
X76370127Y-107999500D01*
X76370120Y-107999500D01*
X76107880Y-107999500D01*
X76107872Y-107999500D01*
X75876772Y-108029926D01*
X75847884Y-108033730D01*
X75598011Y-108100683D01*
X75594581Y-108101602D01*
X75594571Y-108101605D01*
X75352309Y-108201953D01*
X75352299Y-108201958D01*
X75125196Y-108333075D01*
X74917148Y-108492718D01*
X74731718Y-108678148D01*
X74572075Y-108886196D01*
X74440958Y-109113299D01*
X74440953Y-109113309D01*
X74340605Y-109355571D01*
X74340602Y-109355580D01*
X74340602Y-109355581D01*
X74282652Y-109571857D01*
X74272730Y-109608885D01*
X74238500Y-109868872D01*
X74238500Y-110131127D01*
X74263815Y-110323403D01*
X74272730Y-110391116D01*
X74300667Y-110495378D01*
X74340602Y-110644418D01*
X74340605Y-110644428D01*
X74440953Y-110886690D01*
X74440958Y-110886700D01*
X74572075Y-111113803D01*
X74731718Y-111321851D01*
X74731726Y-111321860D01*
X74917143Y-111507277D01*
X74917150Y-111507283D01*
X74940986Y-111525573D01*
X74982189Y-111582000D01*
X74989500Y-111623949D01*
X74989500Y-117979259D01*
X74969815Y-118046298D01*
X74928975Y-118085781D01*
X74894257Y-118106468D01*
X74894254Y-118106470D01*
X74710826Y-118261826D01*
X74555470Y-118445254D01*
X74432416Y-118651765D01*
X74345040Y-118875689D01*
X74345037Y-118875699D01*
X74295706Y-119110967D01*
X74295705Y-119110970D01*
X74289500Y-119210922D01*
X74289500Y-120471055D01*
X74289501Y-120471078D01*
X74294327Y-120548818D01*
X74278833Y-120616948D01*
X74228965Y-120665887D01*
X74170565Y-120680500D01*
X70728874Y-120680500D01*
X70666874Y-120663887D01*
X70448866Y-120538019D01*
X70448850Y-120538011D01*
X70200524Y-120435152D01*
X70070708Y-120400368D01*
X69940891Y-120365584D01*
X69940885Y-120365583D01*
X69940880Y-120365582D01*
X69674398Y-120330500D01*
X69674397Y-120330500D01*
X69405603Y-120330500D01*
X69405602Y-120330500D01*
X69139119Y-120365582D01*
X69139112Y-120365583D01*
X69139109Y-120365584D01*
X69099516Y-120376193D01*
X68879471Y-120435153D01*
X68871953Y-120438268D01*
X68802483Y-120445737D01*
X68740004Y-120414462D01*
X68704352Y-120354373D01*
X68700500Y-120323707D01*
X68700500Y-112374731D01*
X68720185Y-112307692D01*
X68736815Y-112287054D01*
X69051487Y-111972381D01*
X69107070Y-111940290D01*
X69263419Y-111898398D01*
X69505697Y-111798043D01*
X69732803Y-111666924D01*
X69940851Y-111507282D01*
X69940855Y-111507277D01*
X69940860Y-111507274D01*
X70126274Y-111321860D01*
X70126277Y-111321855D01*
X70126282Y-111321851D01*
X70285924Y-111113803D01*
X70417043Y-110886697D01*
X70425916Y-110865277D01*
X70490422Y-110709544D01*
X70517398Y-110644419D01*
X70585270Y-110391116D01*
X70619500Y-110131120D01*
X70619500Y-109868880D01*
X70585270Y-109608884D01*
X70517398Y-109355581D01*
X70495806Y-109303454D01*
X70417046Y-109113309D01*
X70417041Y-109113299D01*
X70285924Y-108886196D01*
X70126281Y-108678148D01*
X70126274Y-108678140D01*
X69940860Y-108492726D01*
X69940851Y-108492718D01*
X69732803Y-108333075D01*
X69505700Y-108201958D01*
X69505690Y-108201953D01*
X69263428Y-108101605D01*
X69263421Y-108101603D01*
X69263419Y-108101602D01*
X69010116Y-108033730D01*
X68952339Y-108026123D01*
X68750127Y-107999500D01*
X68750120Y-107999500D01*
X68487880Y-107999500D01*
X68487872Y-107999500D01*
X68256772Y-108029926D01*
X68227884Y-108033730D01*
X67978011Y-108100683D01*
X67974581Y-108101602D01*
X67974571Y-108101605D01*
X67732309Y-108201953D01*
X67732299Y-108201958D01*
X67505196Y-108333075D01*
X67297148Y-108492718D01*
X67111718Y-108678148D01*
X66952075Y-108886196D01*
X66820958Y-109113299D01*
X66820951Y-109113314D01*
X66720602Y-109355580D01*
X66678709Y-109511926D01*
X66646615Y-109567513D01*
X66169777Y-110044352D01*
X65876380Y-110337749D01*
X65876376Y-110337753D01*
X65835027Y-110379102D01*
X65718750Y-110495378D01*
X65623583Y-110619405D01*
X65583053Y-110672225D01*
X65583052Y-110672226D01*
X65471595Y-110865273D01*
X65471593Y-110865277D01*
X65386293Y-111071209D01*
X65386290Y-111071219D01*
X65364254Y-111153461D01*
X65328596Y-111286538D01*
X65299499Y-111507536D01*
X65299499Y-111734842D01*
X65299500Y-111734871D01*
X65299500Y-120632374D01*
X65279815Y-120699413D01*
X65263181Y-120720055D01*
X65222462Y-120760773D01*
X65222457Y-120760779D01*
X65096721Y-120944331D01*
X65006860Y-121147848D01*
X65006854Y-121147864D01*
X64955920Y-121364422D01*
X64955918Y-121364438D01*
X64949500Y-121456904D01*
X64949500Y-123305095D01*
X64955918Y-123397561D01*
X64955920Y-123397577D01*
X65006854Y-123614135D01*
X65006860Y-123614151D01*
X65096721Y-123817668D01*
X65222457Y-124001220D01*
X65222462Y-124001226D01*
X65379773Y-124158537D01*
X65379779Y-124158542D01*
X65563329Y-124284277D01*
X65766857Y-124374143D01*
X65766861Y-124374144D01*
X65766864Y-124374145D01*
X65983422Y-124425079D01*
X65983427Y-124425079D01*
X65983433Y-124425081D01*
X66034808Y-124428647D01*
X66075904Y-124431500D01*
X66075908Y-124431500D01*
X67924096Y-124431500D01*
X67961082Y-124428932D01*
X68016567Y-124425081D01*
X68016573Y-124425079D01*
X68016577Y-124425079D01*
X68233135Y-124374145D01*
X68233135Y-124374144D01*
X68233143Y-124374143D01*
X68436671Y-124284277D01*
X68509393Y-124234460D01*
X68575822Y-124212814D01*
X68626766Y-124223937D01*
X68627390Y-124222431D01*
X68758121Y-124276581D01*
X68879474Y-124326847D01*
X69139109Y-124396416D01*
X69327319Y-124421193D01*
X69405602Y-124431500D01*
X69405603Y-124431500D01*
X69674398Y-124431500D01*
X69734905Y-124423534D01*
X69940891Y-124396416D01*
X70200526Y-124326847D01*
X70387457Y-124249417D01*
X70448850Y-124223988D01*
X70448853Y-124223986D01*
X70448859Y-124223984D01*
X70519319Y-124183304D01*
X70666874Y-124098113D01*
X70728874Y-124081500D01*
X74286828Y-124081500D01*
X74353867Y-124101185D01*
X74399622Y-124153989D01*
X74409566Y-124223147D01*
X74401389Y-124252954D01*
X74391603Y-124276577D01*
X74391602Y-124276581D01*
X74323961Y-124529024D01*
X74323730Y-124529885D01*
X74289500Y-124789872D01*
X74289500Y-125052127D01*
X74323730Y-125312117D01*
X74338009Y-125365408D01*
X74336346Y-125435258D01*
X74297183Y-125493120D01*
X74232954Y-125520623D01*
X74218234Y-125521500D01*
X65636732Y-125521500D01*
X65569693Y-125501815D01*
X65549051Y-125485181D01*
X62768145Y-122704275D01*
X62734660Y-122642952D01*
X62732606Y-122602712D01*
X62740500Y-122532657D01*
X62740500Y-122229343D01*
X62706540Y-121927937D01*
X62639046Y-121632228D01*
X62538868Y-121345935D01*
X62407265Y-121072659D01*
X62245892Y-120815836D01*
X62056779Y-120578696D01*
X61842304Y-120364221D01*
X61787187Y-120320266D01*
X61747047Y-120263077D01*
X61740500Y-120223319D01*
X61740500Y-116519549D01*
X61740500Y-116519543D01*
X61711404Y-116298537D01*
X61653710Y-116083219D01*
X61568405Y-115877274D01*
X61456948Y-115684226D01*
X61321247Y-115507376D01*
X61321242Y-115507370D01*
X61161217Y-115347345D01*
X61161178Y-115347308D01*
X55447050Y-109633180D01*
X55413565Y-109571857D01*
X55418549Y-109502165D01*
X55447046Y-109457823D01*
X56038242Y-108866626D01*
X56038260Y-108866611D01*
X56201242Y-108703629D01*
X56201247Y-108703624D01*
X56336948Y-108526774D01*
X56448405Y-108333726D01*
X56496641Y-108217274D01*
X56533711Y-108127781D01*
X56591404Y-107912463D01*
X56620501Y-107691456D01*
X56620501Y-107468543D01*
X56620501Y-107464704D01*
X56620500Y-107464670D01*
X56620500Y-102207292D01*
X56640185Y-102140253D01*
X56692989Y-102094498D01*
X56762147Y-102084554D01*
X56791949Y-102092730D01*
G37*
%TD.AperFunction*%
M02*
