  0
SECTION
  2
HEADER
  9
$ANGBASE
  50
0.0
  9
$ANGDIR
  70
1
  9
$MEASUREMENT
  70
1
  0
ENDSEC
  0
SECTION
  2
TABLES
  0
TABLE
  2
LTYPE
  70
4
  0
LTYPE
  5
40F
  2
CONTINUOUS
  70
0
  3
Solid line
  72
65
  73
0
  40
0.0
  0
LTYPE
  5
410
  2
DASHDOT
 70
0
  3
Dash Dot ____ _ ____ _
 72
65
 73
4
 40
2.0
 49
1.25
 49
-0.25
 49
0.25
 49
-0.25
  0
LTYPE
  5
411
  2
DASHED
 70
0
  3
Dashed __ __ __ __ __
 72
65
 73
2
 40
0.75
 49
0.5
 49
-0.25
  0
LTYPE
  5
43B
  2
DOTTED
 70
0
  3
Dotted .  .  .  .
 72
65
 73
2
 40
0.2
 49
0.0
 49
-0.2
  0
ENDTAB
  0
TABLE
  2
STYLE
  70
4
  0
STYLE
  2
KICAD
  70
0
  40
0
  41
1
  42
1
  50
0
  71
0
  3
isocp.shx
  0
STYLE
  2
KICADB
  70
0
  40
0
  41
1
  42
1
  50
0
  71
0
  3
isocp.shx
  0
STYLE
  2
KICADI
  70
0
  40
0
  41
1
  42
1
  50
15
  71
0
  3
isocp.shx
  0
STYLE
  2
KICADBI
  70
0
  40
0
  41
1
  42
1
  50
15
  71
0
  3
isocp.shx
  0
ENDTAB
  0
TABLE
  2
LAYER
  70
35
  0
LAYER
  2
BLACK
  70
0
  62
7
  6
CONTINUOUS
  0
LAYER
  2
GRAY1
  70
0
  62
251
  6
CONTINUOUS
  0
LAYER
  2
GRAY2
  70
0
  62
8
  6
CONTINUOUS
  0
LAYER
  2
GRAY3
  70
0
  62
9
  6
CONTINUOUS
  0
LAYER
  2
WHITE
  70
0
  62
7
  6
CONTINUOUS
  0
LAYER
  2
LYELLOW
  70
0
  62
51
  6
CONTINUOUS
  0
LAYER
  2
LORANGE
  70
0
  62
41
  6
CONTINUOUS
  0
LAYER
  2
BLUE1
  70
0
  62
178
  6
CONTINUOUS
  0
LAYER
  2
GREEN1
  70
0
  62
98
  6
CONTINUOUS
  0
LAYER
  2
CYAN1
  70
0
  62
138
  6
CONTINUOUS
  0
LAYER
  2
RED1
  70
0
  62
18
  6
CONTINUOUS
  0
LAYER
  2
MAGENTA1
  70
0
  62
228
  6
CONTINUOUS
  0
LAYER
  2
BROWN1
  70
0
  62
58
  6
CONTINUOUS
  0
LAYER
  2
ORANGE1
  70
0
  62
34
  6
CONTINUOUS
  0
LAYER
  2
BLUE2
  70
0
  62
5
  6
CONTINUOUS
  0
LAYER
  2
GREEN2
  70
0
  62
3
  6
CONTINUOUS
  0
LAYER
  2
CYAN2
  70
0
  62
4
  6
CONTINUOUS
  0
LAYER
  2
RED2
  70
0
  62
1
  6
CONTINUOUS
  0
LAYER
  2
MAGENTA2
  70
0
  62
6
  6
CONTINUOUS
  0
LAYER
  2
BROWN2
  70
0
  62
54
  6
CONTINUOUS
  0
LAYER
  2
ORANGE2
  70
0
  62
42
  6
CONTINUOUS
  0
LAYER
  2
BLUE3
  70
0
  62
171
  6
CONTINUOUS
  0
LAYER
  2
GREEN3
  70
0
  62
91
  6
CONTINUOUS
  0
LAYER
  2
CYAN3
  70
0
  62
131
  6
CONTINUOUS
  0
LAYER
  2
RED3
  70
0
  62
11
  6
CONTINUOUS
  0
LAYER
  2
MAGENTA3
  70
0
  62
221
  6
CONTINUOUS
  0
LAYER
  2
YELLOW3
  70
0
  62
2
  6
CONTINUOUS
  0
LAYER
  2
ORANGE3
  70
0
  62
32
  6
CONTINUOUS
  0
LAYER
  2
BLUE4
  70
0
  62
5
  6
CONTINUOUS
  0
LAYER
  2
GREEN4
  70
0
  62
3
  6
CONTINUOUS
  0
LAYER
  2
CYAN4
  70
0
  62
4
  6
CONTINUOUS
  0
LAYER
  2
RED4
  70
0
  62
1
  6
CONTINUOUS
  0
LAYER
  2
MAGENTA4
  70
0
  62
6
  6
CONTINUOUS
  0
LAYER
  2
YELLOW4
  70
0
  62
2
  6
CONTINUOUS
  0
LAYER
  2
ORANGE4
  70
0
  62
40
  6
CONTINUOUS
  0
ENDTAB
  0
ENDSEC
  0
SECTION
  2
ENTITIES
0
LINE
8
LYELLOW
6
CONTINUOUS
10
34.6666659999999993
20
-49.1598189999999988
11
34.6666659999999993
21
-49.8741039999999956
0
LINE
8
LYELLOW
6
CONTINUOUS
10
34.6666659999999993
20
-49.8741039999999956
11
34.6190470000000019
21
-50.0169609999999949
0
LINE
8
LYELLOW
6
CONTINUOUS
10
34.6190470000000019
20
-50.0169609999999949
11
34.523809
21
-50.1121999999999943
0
LINE
8
LYELLOW
6
CONTINUOUS
10
34.523809
20
-50.1121999999999943
11
34.3809520000000006
21
-50.1598189999999988
0
LINE
8
LYELLOW
6
CONTINUOUS
10
34.3809520000000006
20
-50.1598189999999988
11
34.2857139999999987
21
-50.1598189999999988
0
LINE
8
LYELLOW
6
CONTINUOUS
10
35.0476189999999974
20
-49.1598189999999988
11
35.6666659999999993
21
-49.1598189999999988
0
LINE
8
LYELLOW
6
CONTINUOUS
10
35.6666659999999993
20
-49.1598189999999988
11
35.3333329999999961
21
-49.5407709999999994
0
LINE
8
LYELLOW
6
CONTINUOUS
10
35.3333329999999961
20
-49.5407709999999994
11
35.4761899999999955
21
-49.5407709999999994
0
LINE
8
LYELLOW
6
CONTINUOUS
10
35.4761899999999955
20
-49.5407709999999994
11
35.5714279999999974
21
-49.5883899999999969
0
LINE
8
LYELLOW
6
CONTINUOUS
10
35.5714279999999974
20
-49.5883899999999969
11
35.6190470000000019
21
-49.6360089999999943
0
LINE
8
LYELLOW
6
CONTINUOUS
10
35.6190470000000019
20
-49.6360089999999943
11
35.6666659999999993
21
-49.7312469999999962
0
LINE
8
LYELLOW
6
CONTINUOUS
10
35.6666659999999993
20
-49.7312469999999962
11
35.6666659999999993
21
-49.9693419999999975
0
LINE
8
LYELLOW
6
CONTINUOUS
10
35.6666659999999993
20
-49.9693419999999975
11
35.6190470000000019
21
-50.0645799999999994
0
LINE
8
LYELLOW
6
CONTINUOUS
10
35.6190470000000019
20
-50.0645799999999994
11
35.5714279999999974
21
-50.1121999999999943
0
LINE
8
LYELLOW
6
CONTINUOUS
10
35.5714279999999974
20
-50.1121999999999943
11
35.4761899999999955
21
-50.1598189999999988
0
LINE
8
LYELLOW
6
CONTINUOUS
10
35.4761899999999955
20
-50.1598189999999988
11
35.1904759999999968
21
-50.1598189999999988
0
LINE
8
LYELLOW
6
CONTINUOUS
10
35.1904759999999968
20
-50.1598189999999988
11
35.0952380000000019
21
-50.1121999999999943
0
LINE
8
LYELLOW
6
CONTINUOUS
10
35.0952380000000019
20
-50.1121999999999943
11
35.0476189999999974
21
-50.0645799999999994
0
LINE
8
LYELLOW
6
CONTINUOUS
10
74.2101759999999899
20
-73.6798189999999948
11
74.2101759999999899
21
-72.6798189999999948
0
LINE
8
LYELLOW
6
CONTINUOUS
10
74.2101759999999899
20
-72.6798189999999948
11
74.5435090000000002
21
-73.3941039999999987
0
LINE
8
LYELLOW
6
CONTINUOUS
10
74.5435090000000002
20
-73.3941039999999987
11
74.8768419999999963
21
-72.6798189999999948
0
LINE
8
LYELLOW
6
CONTINUOUS
10
74.8768419999999963
20
-72.6798189999999948
11
74.8768419999999963
21
-73.6798189999999948
0
LINE
8
LYELLOW
6
CONTINUOUS
10
75.8768419999999963
20
-73.6798189999999948
11
75.305413999999999
21
-73.6798189999999948
0
LINE
8
LYELLOW
6
CONTINUOUS
10
75.5911279999999977
20
-73.6798189999999948
11
75.5911279999999977
21
-72.6798189999999948
0
LINE
8
LYELLOW
6
CONTINUOUS
10
75.5911279999999977
20
-72.6798189999999948
11
75.4958900000000028
21
-72.8226760000000013
0
LINE
8
LYELLOW
6
CONTINUOUS
10
75.4958900000000028
20
-72.8226760000000013
11
75.4006519999999938
21
-72.9179139999999961
0
LINE
8
LYELLOW
6
CONTINUOUS
10
75.4006519999999938
20
-72.9179139999999961
11
75.305413999999999
21
-72.9655329999999935
0
LINE
8
LYELLOW
6
CONTINUOUS
10
121.4830949999999916
20
-44.3848190000000002
11
121.4830949999999916
21
-45.1943419999999989
0
LINE
8
LYELLOW
6
CONTINUOUS
10
121.4830949999999916
20
-45.1943419999999989
11
121.530713999999989
21
-45.2895800000000008
0
LINE
8
LYELLOW
6
CONTINUOUS
10
121.530713999999989
20
-45.2895800000000008
11
121.5783330000000007
21
-45.3371999999999957
0
LINE
8
LYELLOW
6
CONTINUOUS
10
121.5783330000000007
20
-45.3371999999999957
11
121.6735709999999955
21
-45.3848190000000002
0
LINE
8
LYELLOW
6
CONTINUOUS
10
121.6735709999999955
20
-45.3848190000000002
11
121.8640469999999993
21
-45.3848190000000002
0
LINE
8
LYELLOW
6
CONTINUOUS
10
121.8640469999999993
20
-45.3848190000000002
11
121.9592849999999942
21
-45.3371999999999957
0
LINE
8
LYELLOW
6
CONTINUOUS
10
121.9592849999999942
20
-45.3371999999999957
11
122.0069039999999916
21
-45.2895800000000008
0
LINE
8
LYELLOW
6
CONTINUOUS
10
122.0069039999999916
20
-45.2895800000000008
11
122.054522999999989
21
-45.1943419999999989
0
LINE
8
LYELLOW
6
CONTINUOUS
10
122.054522999999989
20
-45.1943419999999989
11
122.054522999999989
21
-44.3848190000000002
0
LINE
8
LYELLOW
6
CONTINUOUS
10
123.054522999999989
20
-45.3848190000000002
11
122.4830949999999916
21
-45.3848190000000002
0
LINE
8
LYELLOW
6
CONTINUOUS
10
122.7688089999999903
20
-45.3848190000000002
11
122.7688089999999903
21
-44.3848190000000002
0
LINE
8
LYELLOW
6
CONTINUOUS
10
122.7688089999999903
20
-44.3848190000000002
11
122.6735709999999955
21
-44.5276759999999996
0
LINE
8
LYELLOW
6
CONTINUOUS
10
122.6735709999999955
20
-44.5276759999999996
11
122.5783330000000007
21
-44.6229140000000015
0
LINE
8
LYELLOW
6
CONTINUOUS
10
122.5783330000000007
20
-44.6229140000000015
11
122.4830949999999916
21
-44.6705329999999989
0
LINE
8
LYELLOW
6
CONTINUOUS
10
34.6666659999999993
20
-36.5348189999999988
11
34.6666659999999993
21
-37.2491039999999956
0
LINE
8
LYELLOW
6
CONTINUOUS
10
34.6666659999999993
20
-37.2491039999999956
11
34.6190470000000019
21
-37.3919609999999949
0
LINE
8
LYELLOW
6
CONTINUOUS
10
34.6190470000000019
20
-37.3919609999999949
11
34.523809
21
-37.4872000000000014
0
LINE
8
LYELLOW
6
CONTINUOUS
10
34.523809
20
-37.4872000000000014
11
34.3809520000000006
21
-37.5348189999999988
0
LINE
8
LYELLOW
6
CONTINUOUS
10
34.3809520000000006
20
-37.5348189999999988
11
34.2857139999999987
21
-37.5348189999999988
0
LINE
8
LYELLOW
6
CONTINUOUS
10
35.6666659999999993
20
-37.5348189999999988
11
35.0952380000000019
21
-37.5348189999999988
0
LINE
8
LYELLOW
6
CONTINUOUS
10
35.3809520000000006
20
-37.5348189999999988
11
35.3809520000000006
21
-36.5348189999999988
0
LINE
8
LYELLOW
6
CONTINUOUS
10
35.3809520000000006
20
-36.5348189999999988
11
35.2857139999999987
21
-36.6776759999999982
0
LINE
8
LYELLOW
6
CONTINUOUS
10
35.2857139999999987
20
-36.6776759999999982
11
35.1904759999999968
21
-36.7729140000000001
0
LINE
8
LYELLOW
6
CONTINUOUS
10
35.1904759999999968
20
-36.7729140000000001
11
35.0952380000000019
21
-36.8205329999999975
0
LINE
8
LYELLOW
6
CONTINUOUS
10
93.013032999999993
20
-74.459818999999996
11
92.6796999999999969
21
-73.983627999999996
0
LINE
8
LYELLOW
6
CONTINUOUS
10
92.4416049999999956
20
-74.459818999999996
11
92.4416049999999956
21
-73.459818999999996
0
LINE
8
LYELLOW
6
CONTINUOUS
10
92.4416049999999956
20
-73.459818999999996
11
92.8225569999999891
21
-73.459818999999996
0
LINE
8
LYELLOW
6
CONTINUOUS
10
92.8225569999999891
20
-73.459818999999996
11
92.9177949999999981
21
-73.5074379999999934
0
LINE
8
LYELLOW
6
CONTINUOUS
10
92.9177949999999981
20
-73.5074379999999934
11
92.9654139999999956
21
-73.5550569999999908
0
LINE
8
LYELLOW
6
CONTINUOUS
10
92.9654139999999956
20
-73.5550569999999908
11
93.013032999999993
21
-73.6502949999999998
0
LINE
8
LYELLOW
6
CONTINUOUS
10
93.013032999999993
20
-73.6502949999999998
11
93.013032999999993
21
-73.7931519999999921
0
LINE
8
LYELLOW
6
CONTINUOUS
10
93.013032999999993
20
-73.7931519999999921
11
92.9654139999999956
21
-73.8883900000000011
0
LINE
8
LYELLOW
6
CONTINUOUS
10
92.9654139999999956
20
-73.8883900000000011
11
92.9177949999999981
21
-73.9360089999999985
0
LINE
8
LYELLOW
6
CONTINUOUS
10
92.9177949999999981
20
-73.9360089999999985
11
92.8225569999999891
21
-73.983627999999996
0
LINE
8
LYELLOW
6
CONTINUOUS
10
92.8225569999999891
20
-73.983627999999996
11
92.4416049999999956
21
-73.983627999999996
0
LINE
8
LYELLOW
6
CONTINUOUS
10
93.9654139999999956
20
-74.459818999999996
11
93.3939859999999982
21
-74.459818999999996
0
LINE
8
LYELLOW
6
CONTINUOUS
10
93.6796999999999969
20
-74.459818999999996
11
93.6796999999999969
21
-73.459818999999996
0
LINE
8
LYELLOW
6
CONTINUOUS
10
93.6796999999999969
20
-73.459818999999996
11
93.584462000000002
21
-73.6026760000000024
0
LINE
8
LYELLOW
6
CONTINUOUS
10
93.584462000000002
20
-73.6026760000000024
11
93.489223999999993
21
-73.6979139999999973
0
LINE
8
LYELLOW
6
CONTINUOUS
10
93.489223999999993
20
-73.6979139999999973
11
93.3939859999999982
21
-73.7455329999999947
0
LINE
8
LYELLOW
6
CONTINUOUS
10
110.783032999999989
20
-74.459818999999996
11
110.4496999999999929
21
-73.983627999999996
0
LINE
8
LYELLOW
6
CONTINUOUS
10
110.2116049999999916
20
-74.459818999999996
11
110.2116049999999916
21
-73.459818999999996
0
LINE
8
LYELLOW
6
CONTINUOUS
10
110.2116049999999916
20
-73.459818999999996
11
110.5925569999999993
21
-73.459818999999996
0
LINE
8
LYELLOW
6
CONTINUOUS
10
110.5925569999999993
20
-73.459818999999996
11
110.6877949999999942
21
-73.5074379999999934
0
LINE
8
LYELLOW
6
CONTINUOUS
10
110.6877949999999942
20
-73.5074379999999934
11
110.7354139999999916
21
-73.5550569999999908
0
LINE
8
LYELLOW
6
CONTINUOUS
10
110.7354139999999916
20
-73.5550569999999908
11
110.783032999999989
21
-73.6502949999999998
0
LINE
8
LYELLOW
6
CONTINUOUS
10
110.783032999999989
20
-73.6502949999999998
11
110.783032999999989
21
-73.7931519999999921
0
LINE
8
LYELLOW
6
CONTINUOUS
10
110.783032999999989
20
-73.7931519999999921
11
110.7354139999999916
21
-73.8883900000000011
0
LINE
8
LYELLOW
6
CONTINUOUS
10
110.7354139999999916
20
-73.8883900000000011
11
110.6877949999999942
21
-73.9360089999999985
0
LINE
8
LYELLOW
6
CONTINUOUS
10
110.6877949999999942
20
-73.9360089999999985
11
110.5925569999999993
21
-73.983627999999996
0
LINE
8
LYELLOW
6
CONTINUOUS
10
110.5925569999999993
20
-73.983627999999996
11
110.2116049999999916
21
-73.983627999999996
0
LINE
8
LYELLOW
6
CONTINUOUS
10
111.1639859999999942
20
-73.5550569999999908
11
111.2116049999999916
21
-73.5074379999999934
0
LINE
8
LYELLOW
6
CONTINUOUS
10
111.2116049999999916
20
-73.5074379999999934
11
111.3068430000000006
21
-73.459818999999996
0
LINE
8
LYELLOW
6
CONTINUOUS
10
111.3068430000000006
20
-73.459818999999996
11
111.5449380000000019
21
-73.459818999999996
0
LINE
8
LYELLOW
6
CONTINUOUS
10
111.5449380000000019
20
-73.459818999999996
11
111.6401759999999967
21
-73.5074379999999934
0
LINE
8
LYELLOW
6
CONTINUOUS
10
111.6401759999999967
20
-73.5074379999999934
11
111.6877949999999942
21
-73.5550569999999908
0
LINE
8
LYELLOW
6
CONTINUOUS
10
111.6877949999999942
20
-73.5550569999999908
11
111.7354139999999916
21
-73.6502949999999998
0
LINE
8
LYELLOW
6
CONTINUOUS
10
111.7354139999999916
20
-73.6502949999999998
11
111.7354139999999916
21
-73.7455329999999947
0
LINE
8
LYELLOW
6
CONTINUOUS
10
111.7354139999999916
20
-73.7455329999999947
11
111.6877949999999942
21
-73.8883900000000011
0
LINE
8
LYELLOW
6
CONTINUOUS
10
111.6877949999999942
20
-73.8883900000000011
11
111.1163669999999968
21
-74.459818999999996
0
LINE
8
LYELLOW
6
CONTINUOUS
10
111.1163669999999968
20
-74.459818999999996
11
111.7354139999999916
21
-74.459818999999996
0
LINE
8
LYELLOW
6
CONTINUOUS
10
91.2683329999999984
20
-41.2548189999999977
11
90.7921429999999958
21
-41.2548189999999977
0
LINE
8
LYELLOW
6
CONTINUOUS
10
90.7921429999999958
20
-41.2548189999999977
11
90.7921429999999958
21
-40.2548189999999977
0
LINE
8
LYELLOW
6
CONTINUOUS
10
92.1254759999999919
20
-41.2548189999999977
11
91.5540479999999945
21
-41.2548189999999977
0
LINE
8
LYELLOW
6
CONTINUOUS
10
91.8397619999999932
20
-41.2548189999999977
11
91.8397619999999932
21
-40.2548189999999977
0
LINE
8
LYELLOW
6
CONTINUOUS
10
91.8397619999999932
20
-40.2548189999999977
11
91.7445239999999984
21
-40.397675999999997
0
LINE
8
LYELLOW
6
CONTINUOUS
10
91.7445239999999984
20
-40.397675999999997
11
91.6492859999999894
21
-40.492913999999999
0
LINE
8
LYELLOW
6
CONTINUOUS
10
91.6492859999999894
20
-40.492913999999999
11
91.5540479999999945
21
-40.5405329999999964
0
LINE
8
LYELLOW
6
CONTINUOUS
10
149.1966659999999933
20
-41.8498189999999965
11
149.1966659999999933
21
-42.5641040000000004
0
LINE
8
LYELLOW
6
CONTINUOUS
10
149.1966659999999933
20
-42.5641040000000004
11
149.1490469999999959
21
-42.7069609999999997
0
LINE
8
LYELLOW
6
CONTINUOUS
10
149.1490469999999959
20
-42.7069609999999997
11
149.0538090000000011
21
-42.8021999999999991
0
LINE
8
LYELLOW
6
CONTINUOUS
10
149.0538090000000011
20
-42.8021999999999991
11
148.9109519999999804
21
-42.8498189999999965
0
LINE
8
LYELLOW
6
CONTINUOUS
10
148.9109519999999804
20
-42.8498189999999965
11
148.8157139999999856
21
-42.8498189999999965
0
LINE
8
LYELLOW
6
CONTINUOUS
10
150.1014279999999985
20
-42.1831519999999998
11
150.1014279999999985
21
-42.8498189999999965
0
LINE
8
LYELLOW
6
CONTINUOUS
10
149.863332999999983
20
-41.8021999999999991
11
149.625237999999996
21
-42.5164849999999959
0
LINE
8
LYELLOW
6
CONTINUOUS
10
149.625237999999996
20
-42.5164849999999959
11
150.2442849999999908
21
-42.5164849999999959
0
LINE
8
LYELLOW
6
CONTINUOUS
10
149.1966659999999933
20
-26.3748189999999987
11
149.1966659999999933
21
-27.089103999999999
0
LINE
8
LYELLOW
6
CONTINUOUS
10
149.1966659999999933
20
-27.089103999999999
11
149.1490469999999959
21
-27.2319609999999983
0
LINE
8
LYELLOW
6
CONTINUOUS
10
149.1490469999999959
20
-27.2319609999999983
11
149.0538090000000011
21
-27.3271999999999977
0
LINE
8
LYELLOW
6
CONTINUOUS
10
149.0538090000000011
20
-27.3271999999999977
11
148.9109519999999804
21
-27.3748189999999987
0
LINE
8
LYELLOW
6
CONTINUOUS
10
148.9109519999999804
20
-27.3748189999999987
11
148.8157139999999856
21
-27.3748189999999987
0
LINE
8
LYELLOW
6
CONTINUOUS
10
149.625237999999996
20
-26.4700569999999971
11
149.6728569999999934
21
-26.4224379999999996
0
LINE
8
LYELLOW
6
CONTINUOUS
10
149.6728569999999934
20
-26.4224379999999996
11
149.7680949999999882
21
-26.3748189999999987
0
LINE
8
LYELLOW
6
CONTINUOUS
10
149.7680949999999882
20
-26.3748189999999987
11
150.0061900000000037
21
-26.3748189999999987
0
LINE
8
LYELLOW
6
CONTINUOUS
10
150.0061900000000037
20
-26.3748189999999987
11
150.1014279999999985
21
-26.4224379999999996
0
LINE
8
LYELLOW
6
CONTINUOUS
10
150.1014279999999985
20
-26.4224379999999996
11
150.1490469999999959
21
-26.4700569999999971
0
LINE
8
LYELLOW
6
CONTINUOUS
10
150.1490469999999959
20
-26.4700569999999971
11
150.1966659999999933
21
-26.565294999999999
0
LINE
8
LYELLOW
6
CONTINUOUS
10
150.1966659999999933
20
-26.565294999999999
11
150.1966659999999933
21
-26.6605329999999974
0
LINE
8
LYELLOW
6
CONTINUOUS
10
150.1966659999999933
20
-26.6605329999999974
11
150.1490469999999959
21
-26.8033900000000003
0
LINE
8
LYELLOW
6
CONTINUOUS
10
150.1490469999999959
20
-26.8033900000000003
11
149.5776189999999986
21
-27.3748189999999987
0
LINE
8
LYELLOW
6
CONTINUOUS
10
149.5776189999999986
20
-27.3748189999999987
11
150.1966659999999933
21
-27.3748189999999987
0
LINE
8
LYELLOW
6
CONTINUOUS
10
57.3030329999999992
20
-71.484579999999994
11
57.2554139999999947
21
-71.5322000000000031
0
LINE
8
LYELLOW
6
CONTINUOUS
10
57.2554139999999947
20
-71.5322000000000031
11
57.1125569999999954
21
-71.5798190000000005
0
LINE
8
LYELLOW
6
CONTINUOUS
10
57.1125569999999954
20
-71.5798190000000005
11
57.0173190000000005
21
-71.5798190000000005
0
LINE
8
LYELLOW
6
CONTINUOUS
10
57.0173190000000005
20
-71.5798190000000005
11
56.8744619999999941
21
-71.5322000000000031
0
LINE
8
LYELLOW
6
CONTINUOUS
10
56.8744619999999941
20
-71.5322000000000031
11
56.7792239999999993
21
-71.4369609999999966
0
LINE
8
LYELLOW
6
CONTINUOUS
10
56.7792239999999993
20
-71.4369609999999966
11
56.7316049999999947
21
-71.3417230000000018
0
LINE
8
LYELLOW
6
CONTINUOUS
10
56.7316049999999947
20
-71.3417230000000018
11
56.6839859999999973
21
-71.1512469999999979
0
LINE
8
LYELLOW
6
CONTINUOUS
10
56.6839859999999973
20
-71.1512469999999979
11
56.6839859999999973
21
-71.0083899999999915
0
LINE
8
LYELLOW
6
CONTINUOUS
10
56.6839859999999973
20
-71.0083899999999915
11
56.7316049999999947
21
-70.8179140000000018
0
LINE
8
LYELLOW
6
CONTINUOUS
10
56.7316049999999947
20
-70.8179140000000018
11
56.7792239999999993
21
-70.7226759999999928
0
LINE
8
LYELLOW
6
CONTINUOUS
10
56.7792239999999993
20
-70.7226759999999928
11
56.8744619999999941
21
-70.6274379999999979
0
LINE
8
LYELLOW
6
CONTINUOUS
10
56.8744619999999941
20
-70.6274379999999979
11
57.0173190000000005
21
-70.5798190000000005
0
LINE
8
LYELLOW
6
CONTINUOUS
10
57.0173190000000005
20
-70.5798190000000005
11
57.1125569999999954
21
-70.5798190000000005
0
LINE
8
LYELLOW
6
CONTINUOUS
10
57.1125569999999954
20
-70.5798190000000005
11
57.2554139999999947
21
-70.6274379999999979
0
LINE
8
LYELLOW
6
CONTINUOUS
10
57.2554139999999947
20
-70.6274379999999979
11
57.3030329999999992
21
-70.6750569999999954
0
LINE
8
LYELLOW
6
CONTINUOUS
10
58.2554139999999947
20
-71.5798190000000005
11
57.6839859999999973
21
-71.5798190000000005
0
LINE
8
LYELLOW
6
CONTINUOUS
10
57.969699999999996
20
-71.5798190000000005
11
57.969699999999996
21
-70.5798190000000005
0
LINE
8
LYELLOW
6
CONTINUOUS
10
57.969699999999996
20
-70.5798190000000005
11
57.8744619999999941
21
-70.7226759999999928
0
LINE
8
LYELLOW
6
CONTINUOUS
10
57.8744619999999941
20
-70.7226759999999928
11
57.7792239999999993
21
-70.8179140000000018
0
LINE
8
LYELLOW
6
CONTINUOUS
10
57.7792239999999993
20
-70.8179140000000018
11
57.6839859999999973
21
-70.8655329999999992
0
LINE
8
LYELLOW
6
CONTINUOUS
10
58.716904999999997
20
-47.7848189999999988
11
58.716904999999997
21
-46.7848189999999988
0
LINE
8
LYELLOW
6
CONTINUOUS
10
58.716904999999997
20
-46.7848189999999988
11
58.9549999999999983
21
-46.7848189999999988
0
LINE
8
LYELLOW
6
CONTINUOUS
10
58.9549999999999983
20
-46.7848189999999988
11
59.0978569999999976
21
-46.8324379999999962
0
LINE
8
LYELLOW
6
CONTINUOUS
10
59.0978569999999976
20
-46.8324379999999962
11
59.1930949999999996
21
-46.9276759999999982
0
LINE
8
LYELLOW
6
CONTINUOUS
10
59.1930949999999996
20
-46.9276759999999982
11
59.240713999999997
21
-47.0229140000000001
0
LINE
8
LYELLOW
6
CONTINUOUS
10
59.240713999999997
20
-47.0229140000000001
11
59.2883329999999944
21
-47.2133899999999969
0
LINE
8
LYELLOW
6
CONTINUOUS
10
59.2883329999999944
20
-47.2133899999999969
11
59.2883329999999944
21
-47.3562469999999962
0
LINE
8
LYELLOW
6
CONTINUOUS
10
59.2883329999999944
20
-47.3562469999999962
11
59.240713999999997
21
-47.5467230000000001
0
LINE
8
LYELLOW
6
CONTINUOUS
10
59.240713999999997
20
-47.5467230000000001
11
59.1930949999999996
21
-47.6419609999999949
0
LINE
8
LYELLOW
6
CONTINUOUS
10
59.1930949999999996
20
-47.6419609999999949
11
59.0978569999999976
21
-47.7371999999999943
0
LINE
8
LYELLOW
6
CONTINUOUS
10
59.0978569999999976
20
-47.7371999999999943
11
58.9549999999999983
21
-47.7848189999999988
0
LINE
8
LYELLOW
6
CONTINUOUS
10
58.9549999999999983
20
-47.7848189999999988
11
58.716904999999997
21
-47.7848189999999988
0
LINE
8
LYELLOW
6
CONTINUOUS
10
60.240713999999997
20
-47.7848189999999988
11
59.6692859999999996
21
-47.7848189999999988
0
LINE
8
LYELLOW
6
CONTINUOUS
10
59.9549999999999983
20
-47.7848189999999988
11
59.9549999999999983
21
-46.7848189999999988
0
LINE
8
LYELLOW
6
CONTINUOUS
10
59.9549999999999983
20
-46.7848189999999988
11
59.8597619999999964
21
-46.9276759999999982
0
LINE
8
LYELLOW
6
CONTINUOUS
10
59.8597619999999964
20
-46.9276759999999982
11
59.7645239999999944
21
-47.0229140000000001
0
LINE
8
LYELLOW
6
CONTINUOUS
10
59.7645239999999944
20
-47.0229140000000001
11
59.6692859999999996
21
-47.0705329999999975
0
LINE
8
LYELLOW
6
CONTINUOUS
10
54.1130949999999942
20
-48.1548189999999963
11
54.1130949999999942
21
-47.1548189999999963
0
LINE
8
LYELLOW
6
CONTINUOUS
10
54.6845229999999987
20
-48.1548189999999963
11
54.2559520000000006
21
-47.5833899999999943
0
LINE
8
LYELLOW
6
CONTINUOUS
10
54.6845229999999987
20
-47.1548189999999963
11
54.1130949999999942
21
-47.7262470000000008
0
LINE
8
LYELLOW
6
CONTINUOUS
10
33.6199999999999974
20
-46.0549999999999997
11
33.6199999999999974
21
-43.4050000000000011
0
LINE
8
LYELLOW
6
CONTINUOUS
10
36.3799999999999955
20
-43.4050000000000011
11
33.6199999999999974
21
-43.4050000000000011
0
LINE
8
LYELLOW
6
CONTINUOUS
10
36.3799999999999955
20
-46.0549999999999997
11
33.6199999999999974
21
-46.0549999999999997
0
LINE
8
LYELLOW
6
CONTINUOUS
10
36.3799999999999955
20
-46.0549999999999997
11
36.3799999999999955
21
-43.4050000000000011
0
LINE
8
LYELLOW
6
CONTINUOUS
10
36.3799999999999955
20
-47.3249999999999957
11
36.3799999999999955
21
-48.7049999999999983
0
LINE
8
LYELLOW
6
CONTINUOUS
10
36.3799999999999955
20
-48.7049999999999983
11
35.
21
-48.7049999999999983
0
LINE
8
LYELLOW
6
CONTINUOUS
10
69.9097000000000008
20
-74.0649999999999977
11
80.1296999999999997
21
-74.0649999999999977
0
LINE
8
LYELLOW
6
CONTINUOUS
10
69.9097000000000008
20
-75.4449999999999932
11
80.1296999999999997
21
-75.4449999999999932
0
LINE
8
LYELLOW
6
CONTINUOUS
10
69.9097000000000008
20
-78.6850000000000023
11
69.9097000000000008
21
-74.0649999999999977
0
LINE
8
LYELLOW
6
CONTINUOUS
10
73.1696999999999917
20
-74.0649999999999977
11
73.1696999999999917
21
-75.4449999999999932
0
LINE
8
LYELLOW
6
CONTINUOUS
10
76.8696999999999946
20
-74.0649999999999977
11
76.8696999999999946
21
-75.4449999999999932
0
LINE
8
LYELLOW
6
CONTINUOUS
10
80.1296999999999997
20
-74.0649999999999977
11
80.1296999999999997
21
-78.6850000000000023
0
LINE
8
LYELLOW
6
CONTINUOUS
10
80.1296999999999997
20
-78.6850000000000023
11
69.9097000000000008
21
-78.6850000000000023
0
LINE
8
LYELLOW
6
CONTINUOUS
10
119.9949999999999903
20
-45.9299999999999997
11
119.9949999999999903
21
-53.6699999999999946
0
LINE
8
LYELLOW
6
CONTINUOUS
10
119.9949999999999903
20
-53.6699999999999946
11
124.4949999999999903
21
-53.6699999999999946
0
LINE
8
LYELLOW
6
CONTINUOUS
10
121.2449999999999903
20
-45.9299999999999997
11
119.9949999999999903
21
-45.9299999999999997
0
LINE
8
LYELLOW
6
CONTINUOUS
10
124.4949999999999903
20
-45.9299999999999997
11
123.2449999999999903
21
-45.9299999999999997
0
LINE
8
LYELLOW
6
CONTINUOUS
10
124.4949999999999903
20
-53.6699999999999946
11
124.4949999999999903
21
-45.9299999999999997
0
ARC
8
LYELLOW
10
122.2449999999999903
20
-45.9299999999999997
40
1.
50
-180.00000000
51
-0.00000000
0
LINE
8
LYELLOW
6
CONTINUOUS
10
29.9199999999999982
20
-28.1899999999999977
11
29.9199999999999982
21
-35.8099999999999952
0
LINE
8
LYELLOW
6
CONTINUOUS
10
29.9199999999999982
20
-29.4599999999999973
11
40.0799999999999983
21
-29.4599999999999973
0
LINE
8
LYELLOW
6
CONTINUOUS
10
29.9199999999999982
20
-35.8099999999999952
11
40.0799999999999983
21
-35.8099999999999952
0
LINE
8
LYELLOW
6
CONTINUOUS
10
40.0799999999999983
20
-28.1899999999999977
11
29.9199999999999982
21
-28.1899999999999977
0
LINE
8
LYELLOW
6
CONTINUOUS
10
40.0799999999999983
20
-35.8099999999999952
11
40.0799999999999983
21
-28.1899999999999977
0
LINE
8
LYELLOW
6
CONTINUOUS
10
89.9097000000000008
20
-75.0049999999999955
11
96.4496999999999929
21
-75.0049999999999955
0
LINE
8
LYELLOW
6
CONTINUOUS
10
89.9097000000000008
20
-75.3349999999999937
11
89.9097000000000008
21
-75.0049999999999955
0
LINE
8
LYELLOW
6
CONTINUOUS
10
89.9097000000000008
20
-77.414999999999992
11
89.9097000000000008
21
-77.7449999999999903
0
LINE
8
LYELLOW
6
CONTINUOUS
10
89.9097000000000008
20
-77.7449999999999903
11
96.4496999999999929
21
-77.7449999999999903
0
LINE
8
LYELLOW
6
CONTINUOUS
10
96.4496999999999929
20
-75.0049999999999955
11
96.4496999999999929
21
-75.3349999999999937
0
LINE
8
LYELLOW
6
CONTINUOUS
10
96.4496999999999929
20
-77.7449999999999903
11
96.4496999999999929
21
-77.414999999999992
0
LINE
8
LYELLOW
6
CONTINUOUS
10
107.6796999999999969
20
-75.0049999999999955
11
114.2196999999999889
21
-75.0049999999999955
0
LINE
8
LYELLOW
6
CONTINUOUS
10
107.6796999999999969
20
-75.3349999999999937
11
107.6796999999999969
21
-75.0049999999999955
0
LINE
8
LYELLOW
6
CONTINUOUS
10
107.6796999999999969
20
-77.414999999999992
11
107.6796999999999969
21
-77.7449999999999903
0
LINE
8
LYELLOW
6
CONTINUOUS
10
107.6796999999999969
20
-77.7449999999999903
11
114.2196999999999889
21
-77.7449999999999903
0
LINE
8
LYELLOW
6
CONTINUOUS
10
114.2196999999999889
20
-75.0049999999999955
11
114.2196999999999889
21
-75.3349999999999937
0
LINE
8
LYELLOW
6
CONTINUOUS
10
114.2196999999999889
20
-77.7449999999999903
11
114.2196999999999889
21
-77.414999999999992
0
LINE
8
LYELLOW
6
CONTINUOUS
10
74.0649999999999977
20
-42.1799999999999997
11
108.8049999999999926
21
-42.1799999999999997
0
LINE
8
LYELLOW
6
CONTINUOUS
10
108.8049999999999926
20
-42.1799999999999997
11
108.8049999999999926
21
-57.4199999999999946
0
LINE
8
LYELLOW
6
CONTINUOUS
10
108.8049999999999926
20
-57.4199999999999946
11
74.0649999999999977
21
-57.4199999999999946
0
LINE
8
LYELLOW
6
CONTINUOUS
10
74.0649999999999977
20
-57.4199999999999946
11
74.0649999999999977
21
-42.1799999999999997
0
LINE
8
LYELLOW
6
CONTINUOUS
10
148.1500000000000057
20
-43.394999999999996
11
149.5300000000000011
21
-43.394999999999996
0
LINE
8
LYELLOW
6
CONTINUOUS
10
148.1500000000000057
20
-44.7749999999999986
11
148.1500000000000057
21
-43.394999999999996
0
LINE
8
LYELLOW
6
CONTINUOUS
10
148.1500000000000057
20
-46.0449999999999946
11
148.1500000000000057
21
-48.6950000000000003
0
LINE
8
LYELLOW
6
CONTINUOUS
10
148.1500000000000057
20
-46.0449999999999946
11
150.9099999999999966
21
-46.0449999999999946
0
LINE
8
LYELLOW
6
CONTINUOUS
10
148.1500000000000057
20
-48.6950000000000003
11
150.9099999999999966
21
-48.6950000000000003
0
LINE
8
LYELLOW
6
CONTINUOUS
10
150.9099999999999966
20
-46.0449999999999946
11
150.9099999999999966
21
-48.6950000000000003
0
LINE
8
LYELLOW
6
CONTINUOUS
10
144.4499999999999886
20
-28.1899999999999977
11
144.4499999999999886
21
-35.8099999999999952
0
LINE
8
LYELLOW
6
CONTINUOUS
10
144.4499999999999886
20
-35.8099999999999952
11
154.6099999999999852
21
-35.8099999999999952
0
LINE
8
LYELLOW
6
CONTINUOUS
10
154.6099999999999852
20
-28.1899999999999977
11
144.4499999999999886
21
-28.1899999999999977
0
LINE
8
LYELLOW
6
CONTINUOUS
10
154.6099999999999852
20
-34.5399999999999991
11
144.4499999999999886
21
-34.5399999999999991
0
LINE
8
LYELLOW
6
CONTINUOUS
10
154.6099999999999852
20
-35.8099999999999952
11
154.6099999999999852
21
-28.1899999999999977
0
LINE
8
LYELLOW
6
CONTINUOUS
10
53.0600019999999972
20
-74.0600000000000023
11
53.8600019999999944
21
-74.0600000000000023
0
LINE
8
LYELLOW
6
CONTINUOUS
10
53.4600019999999958
20
-73.6599999999999966
11
53.4600019999999958
21
-74.4599999999999937
0
LINE
8
LYELLOW
6
CONTINUOUS
10
57.469699999999996
20
-72.2950000000000017
11
57.469699999999996
21
-80.4549999999999983
0
LINE
8
LYELLOW
6
CONTINUOUS
10
57.5096999999999952
20
-72.2950000000000017
11
57.5096999999999952
21
-80.4549999999999983
0
LINE
8
LYELLOW
6
CONTINUOUS
10
57.5496999999999943
20
-72.2959999999999923
11
57.5496999999999943
21
-80.4539999999999935
0
LINE
8
LYELLOW
6
CONTINUOUS
10
57.5897000000000006
20
-72.296999999999997
11
57.5897000000000006
21
-80.453000000000003
0
LINE
8
LYELLOW
6
CONTINUOUS
10
57.6296999999999997
20
-72.2980000000000018
11
57.6296999999999997
21
-80.4519999999999982
0
LINE
8
LYELLOW
6
CONTINUOUS
10
57.6696999999999989
20
-72.2999999999999972
11
57.6696999999999989
21
-80.4500000000000028
0
LINE
8
LYELLOW
6
CONTINUOUS
10
57.709699999999998
20
-72.3019999999999925
11
57.709699999999998
21
-80.4479999999999933
0
LINE
8
LYELLOW
6
CONTINUOUS
10
57.7496999999999971
20
-72.3049999999999926
11
57.7496999999999971
21
-80.4449999999999932
0
LINE
8
LYELLOW
6
CONTINUOUS
10
57.7896999999999963
20
-72.3070000000000022
11
57.7896999999999963
21
-80.4429999999999978
0
LINE
8
LYELLOW
6
CONTINUOUS
10
57.8296999999999954
20
-72.3109999999999928
11
57.8296999999999954
21
-80.438999999999993
0
LINE
8
LYELLOW
6
CONTINUOUS
10
57.8696999999999946
20
-72.313999999999993
11
57.8696999999999946
21
-80.4359999999999928
0
LINE
8
LYELLOW
6
CONTINUOUS
10
57.9097000000000008
20
-72.3190000000000026
11
57.9097000000000008
21
-80.4309999999999974
0
LINE
8
LYELLOW
6
CONTINUOUS
10
57.9497
20
-72.3229999999999933
11
57.9497
21
-80.4269999999999925
0
LINE
8
LYELLOW
6
CONTINUOUS
10
57.9896999999999991
20
-72.328000000000003
11
57.9896999999999991
21
-80.421999999999997
0
LINE
8
LYELLOW
6
CONTINUOUS
10
58.0296999999999983
20
-72.3329999999999984
11
58.0296999999999983
21
-80.4170000000000016
0
LINE
8
LYELLOW
6
CONTINUOUS
10
58.0696999999999974
20
-72.3389999999999986
11
58.0696999999999974
21
-80.4110000000000014
0
LINE
8
LYELLOW
6
CONTINUOUS
10
58.1096999999999966
20
-72.3449999999999989
11
58.1096999999999966
21
-80.4050000000000011
0
LINE
8
LYELLOW
6
CONTINUOUS
10
58.1496999999999957
20
-72.3519999999999897
11
58.1496999999999957
21
-80.3979999999999961
0
LINE
8
LYELLOW
6
CONTINUOUS
10
58.1896999999999949
20
-72.3579999999999899
11
58.1896999999999949
21
-75.3349999999999937
0
LINE
8
LYELLOW
6
CONTINUOUS
10
58.1896999999999949
20
-77.414999999999992
11
58.1896999999999949
21
-80.3919999999999959
0
LINE
8
LYELLOW
6
CONTINUOUS
10
58.229699999999994
20
-72.3659999999999997
11
58.229699999999994
21
-75.3349999999999937
0
LINE
8
LYELLOW
6
CONTINUOUS
10
58.229699999999994
20
-77.414999999999992
11
58.229699999999994
21
-80.3840000000000003
0
LINE
8
LYELLOW
6
CONTINUOUS
10
58.2697000000000003
20
-72.3729999999999905
11
58.2697000000000003
21
-75.3349999999999937
0
LINE
8
LYELLOW
6
CONTINUOUS
10
58.2697000000000003
20
-77.414999999999992
11
58.2697000000000003
21
-80.3769999999999953
0
LINE
8
LYELLOW
6
CONTINUOUS
10
58.3096999999999994
20
-72.3819999999999908
11
58.3096999999999994
21
-75.3349999999999937
0
LINE
8
LYELLOW
6
CONTINUOUS
10
58.3096999999999994
20
-77.414999999999992
11
58.3096999999999994
21
-80.367999999999995
0
LINE
8
LYELLOW
6
CONTINUOUS
10
58.3496999999999986
20
-72.3900000000000006
11
58.3496999999999986
21
-75.3349999999999937
0
LINE
8
LYELLOW
6
CONTINUOUS
10
58.3496999999999986
20
-77.414999999999992
11
58.3496999999999986
21
-80.3599999999999994
0
LINE
8
LYELLOW
6
CONTINUOUS
10
58.3896999999999977
20
-72.3990000000000009
11
58.3896999999999977
21
-75.3349999999999937
0
LINE
8
LYELLOW
6
CONTINUOUS
10
58.3896999999999977
20
-77.414999999999992
11
58.3896999999999977
21
-80.3509999999999991
0
LINE
8
LYELLOW
6
CONTINUOUS
10
58.4296999999999969
20
-72.4080000000000013
11
58.4296999999999969
21
-75.3349999999999937
0
LINE
8
LYELLOW
6
CONTINUOUS
10
58.4296999999999969
20
-77.414999999999992
11
58.4296999999999969
21
-80.3419999999999987
0
LINE
8
LYELLOW
6
CONTINUOUS
10
58.469699999999996
20
-72.4179999999999922
11
58.469699999999996
21
-75.3349999999999937
0
LINE
8
LYELLOW
6
CONTINUOUS
10
58.469699999999996
20
-77.414999999999992
11
58.469699999999996
21
-80.3319999999999936
0
LINE
8
LYELLOW
6
CONTINUOUS
10
58.5096999999999952
20
-72.4279999999999973
11
58.5096999999999952
21
-75.3349999999999937
0
LINE
8
LYELLOW
6
CONTINUOUS
10
58.5096999999999952
20
-77.414999999999992
11
58.5096999999999952
21
-80.3220000000000027
0
LINE
8
LYELLOW
6
CONTINUOUS
10
58.5496999999999943
20
-72.438999999999993
11
58.5496999999999943
21
-75.3349999999999937
0
LINE
8
LYELLOW
6
CONTINUOUS
10
58.5496999999999943
20
-77.414999999999992
11
58.5496999999999943
21
-80.3109999999999928
0
LINE
8
LYELLOW
6
CONTINUOUS
10
58.5897000000000006
20
-72.4500000000000028
11
58.5897000000000006
21
-75.3349999999999937
0
LINE
8
LYELLOW
6
CONTINUOUS
10
58.5897000000000006
20
-77.414999999999992
11
58.5897000000000006
21
-80.2999999999999972
0
LINE
8
LYELLOW
6
CONTINUOUS
10
58.6296999999999997
20
-72.4620000000000033
11
58.6296999999999997
21
-75.3349999999999937
0
LINE
8
LYELLOW
6
CONTINUOUS
10
58.6296999999999997
20
-77.414999999999992
11
58.6296999999999997
21
-80.2879999999999967
0
LINE
8
LYELLOW
6
CONTINUOUS
10
58.6696999999999989
20
-72.4740000000000038
11
58.6696999999999989
21
-75.3349999999999937
0
LINE
8
LYELLOW
6
CONTINUOUS
10
58.6696999999999989
20
-77.414999999999992
11
58.6696999999999989
21
-80.2759999999999962
0
LINE
8
LYELLOW
6
CONTINUOUS
10
58.709699999999998
20
-72.48599999999999
11
58.709699999999998
21
-75.3349999999999937
0
LINE
8
LYELLOW
6
CONTINUOUS
10
58.709699999999998
20
-77.414999999999992
11
58.709699999999998
21
-80.2639999999999958
0
LINE
8
LYELLOW
6
CONTINUOUS
10
58.7496999999999971
20
-72.4989999999999952
11
58.7496999999999971
21
-75.3349999999999937
0
LINE
8
LYELLOW
6
CONTINUOUS
10
58.7496999999999971
20
-77.414999999999992
11
58.7496999999999971
21
-80.2509999999999906
0
LINE
8
LYELLOW
6
CONTINUOUS
10
58.7896999999999963
20
-72.5120000000000005
11
58.7896999999999963
21
-75.3349999999999937
0
LINE
8
LYELLOW
6
CONTINUOUS
10
58.7896999999999963
20
-77.414999999999992
11
58.7896999999999963
21
-80.2379999999999995
0
LINE
8
LYELLOW
6
CONTINUOUS
10
58.8296999999999954
20
-72.5259999999999962
11
58.8296999999999954
21
-75.3349999999999937
0
LINE
8
LYELLOW
6
CONTINUOUS
10
58.8296999999999954
20
-77.414999999999992
11
58.8296999999999954
21
-80.2239999999999895
0
LINE
8
LYELLOW
6
CONTINUOUS
10
58.8696999999999946
20
-72.539999999999992
11
58.8696999999999946
21
-75.3349999999999937
0
LINE
8
LYELLOW
6
CONTINUOUS
10
58.8696999999999946
20
-77.414999999999992
11
58.8696999999999946
21
-80.2099999999999937
0
LINE
8
LYELLOW
6
CONTINUOUS
10
58.9097000000000008
20
-72.5549999999999926
11
58.9097000000000008
21
-75.3349999999999937
0
LINE
8
LYELLOW
6
CONTINUOUS
10
58.9097000000000008
20
-77.414999999999992
11
58.9097000000000008
21
-80.1949999999999932
0
LINE
8
LYELLOW
6
CONTINUOUS
10
58.9497
20
-72.5699999999999932
11
58.9497
21
-75.3349999999999937
0
LINE
8
LYELLOW
6
CONTINUOUS
10
58.9497
20
-77.414999999999992
11
58.9497
21
-80.1799999999999926
0
LINE
8
LYELLOW
6
CONTINUOUS
10
58.9896999999999991
20
-72.5859999999999985
11
58.9896999999999991
21
-75.3349999999999937
0
LINE
8
LYELLOW
6
CONTINUOUS
10
58.9896999999999991
20
-77.414999999999992
11
58.9896999999999991
21
-80.1640000000000015
0
LINE
8
LYELLOW
6
CONTINUOUS
10
59.0296999999999983
20
-72.6019999999999897
11
59.0296999999999983
21
-75.3349999999999937
0
LINE
8
LYELLOW
6
CONTINUOUS
10
59.0296999999999983
20
-77.414999999999992
11
59.0296999999999983
21
-80.1479999999999961
0
LINE
8
LYELLOW
6
CONTINUOUS
10
59.0696999999999974
20
-72.617999999999995
11
59.0696999999999974
21
-75.3349999999999937
0
LINE
8
LYELLOW
6
CONTINUOUS
10
59.0696999999999974
20
-77.414999999999992
11
59.0696999999999974
21
-80.1319999999999908
0
LINE
8
LYELLOW
6
CONTINUOUS
10
59.1096999999999966
20
-72.6349999999999909
11
59.1096999999999966
21
-75.3349999999999937
0
LINE
8
LYELLOW
6
CONTINUOUS
10
59.1096999999999966
20
-77.414999999999992
11
59.1096999999999966
21
-80.1149999999999949
0
LINE
8
LYELLOW
6
CONTINUOUS
10
59.1496999999999957
20
-72.6529999999999916
11
59.1496999999999957
21
-75.3349999999999937
0
LINE
8
LYELLOW
6
CONTINUOUS
10
59.1496999999999957
20
-77.414999999999992
11
59.1496999999999957
21
-80.0969999999999942
0
LINE
8
LYELLOW
6
CONTINUOUS
10
59.1896999999999949
20
-72.6709999999999923
11
59.1896999999999949
21
-75.3349999999999937
0
LINE
8
LYELLOW
6
CONTINUOUS
10
59.1896999999999949
20
-77.414999999999992
11
59.1896999999999949
21
-80.0789999999999935
0
LINE
8
LYELLOW
6
CONTINUOUS
10
59.229699999999994
20
-72.6899999999999977
11
59.229699999999994
21
-75.3349999999999937
0
LINE
8
LYELLOW
6
CONTINUOUS
10
59.229699999999994
20
-77.414999999999992
11
59.229699999999994
21
-80.0600000000000023
0
LINE
8
LYELLOW
6
CONTINUOUS
10
59.2697000000000003
20
-72.7090000000000032
11
59.2697000000000003
21
-75.3349999999999937
0
LINE
8
LYELLOW
6
CONTINUOUS
10
59.2697000000000003
20
-77.414999999999992
11
59.2697000000000003
21
-80.0409999999999968
0
LINE
8
LYELLOW
6
CONTINUOUS
10
59.3096999999999994
20
-72.7289999999999992
11
59.3096999999999994
21
-75.3349999999999937
0
LINE
8
LYELLOW
6
CONTINUOUS
10
59.3096999999999994
20
-77.414999999999992
11
59.3096999999999994
21
-80.0210000000000008
0
LINE
8
LYELLOW
6
CONTINUOUS
10
59.3496999999999986
20
-72.7489999999999952
11
59.3496999999999986
21
-75.3349999999999937
0
LINE
8
LYELLOW
6
CONTINUOUS
10
59.3496999999999986
20
-77.414999999999992
11
59.3496999999999986
21
-80.0009999999999906
0
LINE
8
LYELLOW
6
CONTINUOUS
10
59.3896999999999977
20
-72.769999999999996
11
59.3896999999999977
21
-75.3349999999999937
0
LINE
8
LYELLOW
6
CONTINUOUS
10
59.3896999999999977
20
-77.414999999999992
11
59.3896999999999977
21
-79.9799999999999898
0
LINE
8
LYELLOW
6
CONTINUOUS
10
59.4296999999999969
20
-72.7909999999999968
11
59.4296999999999969
21
-75.3349999999999937
0
LINE
8
LYELLOW
6
CONTINUOUS
10
59.4296999999999969
20
-77.414999999999992
11
59.4296999999999969
21
-79.9590000000000032
0
LINE
8
LYELLOW
6
CONTINUOUS
10
59.469699999999996
20
-72.8130000000000024
11
59.469699999999996
21
-75.3349999999999937
0
LINE
8
LYELLOW
6
CONTINUOUS
10
59.469699999999996
20
-77.414999999999992
11
59.469699999999996
21
-79.9369999999999976
0
LINE
8
LYELLOW
6
CONTINUOUS
10
59.5096999999999952
20
-72.8359999999999985
11
59.5096999999999952
21
-75.3349999999999937
0
LINE
8
LYELLOW
6
CONTINUOUS
10
59.5096999999999952
20
-77.414999999999992
11
59.5096999999999952
21
-79.9140000000000015
0
LINE
8
LYELLOW
6
CONTINUOUS
10
59.5496999999999943
20
-72.8589999999999947
11
59.5496999999999943
21
-75.3349999999999937
0
LINE
8
LYELLOW
6
CONTINUOUS
10
59.5496999999999943
20
-77.414999999999992
11
59.5496999999999943
21
-79.8909999999999911
0
LINE
8
LYELLOW
6
CONTINUOUS
10
59.5897000000000006
20
-72.8819999999999908
11
59.5897000000000006
21
-75.3349999999999937
0
LINE
8
LYELLOW
6
CONTINUOUS
10
59.5897000000000006
20
-77.414999999999992
11
59.5897000000000006
21
-79.867999999999995
0
LINE
8
LYELLOW
6
CONTINUOUS
10
59.6296999999999997
20
-72.9069999999999965
11
59.6296999999999997
21
-75.3349999999999937
0
LINE
8
LYELLOW
6
CONTINUOUS
10
59.6296999999999997
20
-77.414999999999992
11
59.6296999999999997
21
-79.8429999999999893
0
LINE
8
LYELLOW
6
CONTINUOUS
10
59.6696999999999989
20
-72.9320000000000022
11
59.6696999999999989
21
-75.3349999999999937
0
LINE
8
LYELLOW
6
CONTINUOUS
10
59.6696999999999989
20
-77.414999999999992
11
59.6696999999999989
21
-79.8179999999999978
0
LINE
8
LYELLOW
6
CONTINUOUS
10
59.709699999999998
20
-72.9569999999999936
11
59.709699999999998
21
-75.3349999999999937
0
LINE
8
LYELLOW
6
CONTINUOUS
10
59.709699999999998
20
-77.414999999999992
11
59.709699999999998
21
-79.7929999999999922
0
LINE
8
LYELLOW
6
CONTINUOUS
10
59.7496999999999971
20
-72.9829999999999899
11
59.7496999999999971
21
-75.3349999999999937
0
LINE
8
LYELLOW
6
CONTINUOUS
10
59.7496999999999971
20
-77.414999999999992
11
59.7496999999999971
21
-79.7669999999999959
0
LINE
8
LYELLOW
6
CONTINUOUS
10
59.7896999999999963
20
-73.0099999999999909
11
59.7896999999999963
21
-75.3349999999999937
0
LINE
8
LYELLOW
6
CONTINUOUS
10
59.7896999999999963
20
-77.414999999999992
11
59.7896999999999963
21
-79.7399999999999949
0
LINE
8
LYELLOW
6
CONTINUOUS
10
59.8296999999999954
20
-73.0379999999999967
11
59.8296999999999954
21
-75.3349999999999937
0
LINE
8
LYELLOW
6
CONTINUOUS
10
59.8296999999999954
20
-77.414999999999992
11
59.8296999999999954
21
-79.7120000000000033
0
LINE
8
LYELLOW
6
CONTINUOUS
10
59.8696999999999946
20
-73.0660000000000025
11
59.8696999999999946
21
-75.3349999999999937
0
LINE
8
LYELLOW
6
CONTINUOUS
10
59.8696999999999946
20
-77.414999999999992
11
59.8696999999999946
21
-79.6839999999999975
0
LINE
8
LYELLOW
6
CONTINUOUS
10
59.9097000000000008
20
-73.0949999999999989
11
59.9097000000000008
21
-75.3349999999999937
0
LINE
8
LYELLOW
6
CONTINUOUS
10
59.9097000000000008
20
-77.414999999999992
11
59.9097000000000008
21
-79.6550000000000011
0
LINE
8
LYELLOW
6
CONTINUOUS
10
59.9497
20
-73.125
11
59.9497
21
-75.3349999999999937
0
LINE
8
LYELLOW
6
CONTINUOUS
10
59.9497
20
-77.414999999999992
11
59.9497
21
-79.625
0
LINE
8
LYELLOW
6
CONTINUOUS
10
59.9896999999999991
20
-73.1559999999999917
11
59.9896999999999991
21
-75.3349999999999937
0
LINE
8
LYELLOW
6
CONTINUOUS
10
59.9896999999999991
20
-77.414999999999992
11
59.9896999999999991
21
-79.5939999999999941
0
LINE
8
LYELLOW
6
CONTINUOUS
10
60.0296999999999983
20
-73.1869999999999976
11
60.0296999999999983
21
-75.3349999999999937
0
LINE
8
LYELLOW
6
CONTINUOUS
10
60.0296999999999983
20
-77.414999999999992
11
60.0296999999999983
21
-79.5630000000000024
0
LINE
8
LYELLOW
6
CONTINUOUS
10
60.0696999999999974
20
-73.2189999999999941
11
60.0696999999999974
21
-75.3349999999999937
0
LINE
8
LYELLOW
6
CONTINUOUS
10
60.0696999999999974
20
-77.414999999999992
11
60.0696999999999974
21
-79.5309999999999917
0
LINE
8
LYELLOW
6
CONTINUOUS
10
60.1096999999999966
20
-73.2519999999999953
11
60.1096999999999966
21
-75.3349999999999937
0
LINE
8
LYELLOW
6
CONTINUOUS
10
60.1096999999999966
20
-77.414999999999992
11
60.1096999999999966
21
-79.4979999999999905
0
LINE
8
LYELLOW
6
CONTINUOUS
10
60.1496999999999957
20
-73.2860000000000014
11
60.1496999999999957
21
-75.3349999999999937
0
LINE
8
LYELLOW
6
CONTINUOUS
10
60.1496999999999957
20
-77.414999999999992
11
60.1496999999999957
21
-79.4639999999999986
0
LINE
8
LYELLOW
6
CONTINUOUS
10
60.1896999999999949
20
-73.3199999999999932
11
60.1896999999999949
21
-75.3349999999999937
0
LINE
8
LYELLOW
6
CONTINUOUS
10
60.1896999999999949
20
-77.414999999999992
11
60.1896999999999949
21
-79.4299999999999926
0
LINE
8
LYELLOW
6
CONTINUOUS
10
60.229699999999994
20
-73.3559999999999945
11
60.229699999999994
21
-75.3349999999999937
0
LINE
8
LYELLOW
6
CONTINUOUS
10
60.229699999999994
20
-77.414999999999992
11
60.229699999999994
21
-79.3939999999999912
0
LINE
8
LYELLOW
6
CONTINUOUS
10
60.2697000000000003
20
-73.3930000000000007
11
60.2697000000000003
21
-79.3569999999999993
0
LINE
8
LYELLOW
6
CONTINUOUS
10
60.3096999999999994
20
-73.4299999999999926
11
60.3096999999999994
21
-79.3199999999999932
0
LINE
8
LYELLOW
6
CONTINUOUS
10
60.3496999999999986
20
-73.4689999999999941
11
60.3496999999999986
21
-79.2809999999999917
0
LINE
8
LYELLOW
6
CONTINUOUS
10
60.3896999999999977
20
-73.5079999999999956
11
60.3896999999999977
21
-79.2419999999999902
0
LINE
8
LYELLOW
6
CONTINUOUS
10
60.4296999999999969
20
-73.5489999999999924
11
60.4296999999999969
21
-79.2009999999999934
0
LINE
8
LYELLOW
6
CONTINUOUS
10
60.469699999999996
20
-73.590999999999994
11
60.469699999999996
21
-79.1589999999999918
0
LINE
8
LYELLOW
6
CONTINUOUS
10
60.5096999999999952
20
-73.6340000000000003
11
60.5096999999999952
21
-79.1159999999999997
0
LINE
8
LYELLOW
6
CONTINUOUS
10
60.5496999999999943
20
-73.679000000000002
11
60.5496999999999943
21
-79.070999999999998
0
LINE
8
LYELLOW
6
CONTINUOUS
10
60.5897000000000006
20
-73.7240000000000038
11
60.5897000000000006
21
-79.0259999999999962
0
LINE
8
LYELLOW
6
CONTINUOUS
10
60.6296999999999997
20
-73.7710000000000008
11
60.6296999999999997
21
-78.9789999999999992
0
LINE
8
LYELLOW
6
CONTINUOUS
10
60.6696999999999989
20
-73.8199999999999932
11
60.6696999999999989
21
-78.9299999999999926
0
LINE
8
LYELLOW
6
CONTINUOUS
10
60.709699999999998
20
-73.8699999999999903
11
60.709699999999998
21
-78.8799999999999955
0
LINE
8
LYELLOW
6
CONTINUOUS
10
60.7496999999999971
20
-73.921999999999997
11
60.7496999999999971
21
-78.828000000000003
0
LINE
8
LYELLOW
6
CONTINUOUS
10
60.7896999999999963
20
-73.9749999999999943
11
60.7896999999999963
21
-78.7749999999999915
0
LINE
8
LYELLOW
6
CONTINUOUS
10
60.8296999999999954
20
-74.0309999999999917
11
60.8296999999999954
21
-78.7189999999999941
0
LINE
8
LYELLOW
6
CONTINUOUS
10
60.8696999999999946
20
-74.0879999999999939
11
60.8696999999999946
21
-78.6619999999999919
0
LINE
8
LYELLOW
6
CONTINUOUS
10
60.9096999999999937
20
-74.1479999999999961
11
60.9096999999999937
21
-78.6019999999999897
0
LINE
8
LYELLOW
6
CONTINUOUS
10
60.9497
20
-74.2099999999999937
11
60.9497
21
-78.539999999999992
0
LINE
8
LYELLOW
6
CONTINUOUS
10
60.9896999999999991
20
-74.2740000000000009
11
60.9896999999999991
21
-78.4759999999999991
0
LINE
8
LYELLOW
6
CONTINUOUS
10
61.0296999999999983
20
-74.340999999999994
11
61.0296999999999983
21
-78.4089999999999918
0
LINE
8
LYELLOW
6
CONTINUOUS
10
61.0696999999999974
20
-74.4110000000000014
11
61.0696999999999974
21
-78.3389999999999986
0
LINE
8
LYELLOW
6
CONTINUOUS
10
61.1096999999999966
20
-74.4849999999999994
11
61.1096999999999966
21
-78.2650000000000006
0
LINE
8
LYELLOW
6
CONTINUOUS
10
61.1496999999999957
20
-74.5619999999999976
11
61.1496999999999957
21
-78.1880000000000024
0
LINE
8
LYELLOW
6
CONTINUOUS
10
61.1896999999999949
20
-74.6439999999999912
11
61.1896999999999949
21
-78.1059999999999945
0
LINE
8
LYELLOW
6
CONTINUOUS
10
61.229699999999994
20
-74.7309999999999945
11
61.229699999999994
21
-78.0189999999999912
0
LINE
8
LYELLOW
6
CONTINUOUS
10
61.2697000000000003
20
-74.8229999999999933
11
61.2697000000000003
21
-77.9269999999999925
0
LINE
8
LYELLOW
6
CONTINUOUS
10
61.3096999999999994
20
-74.921999999999997
11
61.3096999999999994
21
-77.828000000000003
0
LINE
8
LYELLOW
6
CONTINUOUS
10
61.3496999999999986
20
-75.0289999999999964
11
61.3496999999999986
21
-77.7209999999999894
0
LINE
8
LYELLOW
6
CONTINUOUS
10
61.3896999999999977
20
-75.1469999999999914
11
61.3896999999999977
21
-77.6029999999999944
0
LINE
8
LYELLOW
6
CONTINUOUS
10
61.4296999999999969
20
-75.2779999999999916
11
61.4296999999999969
21
-77.4719999999999942
0
LINE
8
LYELLOW
6
CONTINUOUS
10
61.469699999999996
20
-75.4279999999999973
11
61.469699999999996
21
-77.3220000000000027
0
LINE
8
LYELLOW
6
CONTINUOUS
10
61.5096999999999952
20
-75.6069999999999993
11
61.5096999999999952
21
-77.1430000000000007
0
LINE
8
LYELLOW
6
CONTINUOUS
10
61.5496999999999943
20
-75.8419999999999987
11
61.5496999999999943
21
-76.9080000000000013
0
CIRCLE
8
LYELLOW
10
57.469699999999996
20
-76.375
40
4.1200000000000001
0
LINE
8
LYELLOW
6
CONTINUOUS
10
55.7149999999999963
20
-49.7999999999999972
11
56.7349999999999994
21
-49.7999999999999972
0
LINE
8
LYELLOW
6
CONTINUOUS
10
57.5150000000000006
20
-48.3299999999999983
11
57.5150000000000006
21
-51.269999999999996
0
LINE
8
LYELLOW
6
CONTINUOUS
10
57.634999999999998
20
-48.3299999999999983
11
57.634999999999998
21
-51.269999999999996
0
LINE
8
LYELLOW
6
CONTINUOUS
10
57.7549999999999955
20
-48.3299999999999983
11
57.7549999999999955
21
-51.269999999999996
0
LINE
8
LYELLOW
6
CONTINUOUS
10
63.1950000000000003
20
-49.7999999999999972
11
62.1749999999999972
21
-49.7999999999999972
0
LINE
8
LYELLOW
6
CONTINUOUS
10
56.7349999999999994
20
-48.3299999999999983
11
62.1749999999999972
21
-48.3299999999999983
0
LINE
8
LYELLOW
6
CONTINUOUS
10
62.1749999999999972
20
-48.3299999999999983
11
62.1749999999999972
21
-51.269999999999996
0
LINE
8
LYELLOW
6
CONTINUOUS
10
62.1749999999999972
20
-51.269999999999996
11
56.7349999999999994
21
-51.269999999999996
0
LINE
8
LYELLOW
6
CONTINUOUS
10
56.7349999999999994
20
-51.269999999999996
11
56.7349999999999994
21
-48.3299999999999983
0
LINE
8
WHITE
6
CONTINUOUS
10
20.
20
-20.
11
165.
21
-20.
0
LINE
8
WHITE
6
CONTINUOUS
10
165.
20
-20.
11
165.
21
-92.
0
LINE
8
WHITE
6
CONTINUOUS
10
165.
20
-92.
11
20.
21
-92.
0
LINE
8
WHITE
6
CONTINUOUS
10
20.
20
-92.
11
20.
21
-20.
  0
ENDSEC
  0
EOF
