  0
SECTION
  2
HEADER
  9
$ANGBASE
  50
0.0
  9
$ANGDIR
  70
1
  9
$MEASUREMENT
  70
1
  0
ENDSEC
  0
SECTION
  2
TABLES
  0
TABLE
  2
LTYPE
  70
4
  0
LTYPE
  5
40F
  2
CONTINUOUS
  70
0
  3
Solid line
  72
65
  73
0
  40
0.0
  0
LTYPE
  5
410
  2
DASHDOT
 70
0
  3
Dash Dot ____ _ ____ _
 72
65
 73
4
 40
2.0
 49
1.25
 49
-0.25
 49
0.25
 49
-0.25
  0
LTYPE
  5
411
  2
DASHED
 70
0
  3
Dashed __ __ __ __ __
 72
65
 73
2
 40
0.75
 49
0.5
 49
-0.25
  0
LTYPE
  5
43B
  2
DOTTED
 70
0
  3
Dotted .  .  .  .
 72
65
 73
2
 40
0.2
 49
0.0
 49
-0.2
  0
ENDTAB
  0
TABLE
  2
STYLE
  70
4
  0
STYLE
  2
KICAD
  70
0
  40
0
  41
1
  42
1
  50
0
  71
0
  3
isocp.shx
  0
STYLE
  2
KICADB
  70
0
  40
0
  41
1
  42
1
  50
0
  71
0
  3
isocp.shx
  0
STYLE
  2
KICADI
  70
0
  40
0
  41
1
  42
1
  50
15
  71
0
  3
isocp.shx
  0
STYLE
  2
KICADBI
  70
0
  40
0
  41
1
  42
1
  50
15
  71
0
  3
isocp.shx
  0
ENDTAB
  0
TABLE
  2
LAYER
  70
35
  0
LAYER
  2
BLACK
  70
0
  62
7
  6
CONTINUOUS
  0
LAYER
  2
GRAY1
  70
0
  62
251
  6
CONTINUOUS
  0
LAYER
  2
GRAY2
  70
0
  62
8
  6
CONTINUOUS
  0
LAYER
  2
GRAY3
  70
0
  62
9
  6
CONTINUOUS
  0
LAYER
  2
WHITE
  70
0
  62
7
  6
CONTINUOUS
  0
LAYER
  2
LYELLOW
  70
0
  62
51
  6
CONTINUOUS
  0
LAYER
  2
LORANGE
  70
0
  62
41
  6
CONTINUOUS
  0
LAYER
  2
BLUE1
  70
0
  62
178
  6
CONTINUOUS
  0
LAYER
  2
GREEN1
  70
0
  62
98
  6
CONTINUOUS
  0
LAYER
  2
CYAN1
  70
0
  62
138
  6
CONTINUOUS
  0
LAYER
  2
RED1
  70
0
  62
18
  6
CONTINUOUS
  0
LAYER
  2
MAGENTA1
  70
0
  62
228
  6
CONTINUOUS
  0
LAYER
  2
BROWN1
  70
0
  62
58
  6
CONTINUOUS
  0
LAYER
  2
ORANGE1
  70
0
  62
34
  6
CONTINUOUS
  0
LAYER
  2
BLUE2
  70
0
  62
5
  6
CONTINUOUS
  0
LAYER
  2
GREEN2
  70
0
  62
3
  6
CONTINUOUS
  0
LAYER
  2
CYAN2
  70
0
  62
4
  6
CONTINUOUS
  0
LAYER
  2
RED2
  70
0
  62
1
  6
CONTINUOUS
  0
LAYER
  2
MAGENTA2
  70
0
  62
6
  6
CONTINUOUS
  0
LAYER
  2
BROWN2
  70
0
  62
54
  6
CONTINUOUS
  0
LAYER
  2
ORANGE2
  70
0
  62
42
  6
CONTINUOUS
  0
LAYER
  2
BLUE3
  70
0
  62
171
  6
CONTINUOUS
  0
LAYER
  2
GREEN3
  70
0
  62
91
  6
CONTINUOUS
  0
LAYER
  2
CYAN3
  70
0
  62
131
  6
CONTINUOUS
  0
LAYER
  2
RED3
  70
0
  62
11
  6
CONTINUOUS
  0
LAYER
  2
MAGENTA3
  70
0
  62
221
  6
CONTINUOUS
  0
LAYER
  2
YELLOW3
  70
0
  62
2
  6
CONTINUOUS
  0
LAYER
  2
ORANGE3
  70
0
  62
32
  6
CONTINUOUS
  0
LAYER
  2
BLUE4
  70
0
  62
5
  6
CONTINUOUS
  0
LAYER
  2
GREEN4
  70
0
  62
3
  6
CONTINUOUS
  0
LAYER
  2
CYAN4
  70
0
  62
4
  6
CONTINUOUS
  0
LAYER
  2
RED4
  70
0
  62
1
  6
CONTINUOUS
  0
LAYER
  2
MAGENTA4
  70
0
  62
6
  6
CONTINUOUS
  0
LAYER
  2
YELLOW4
  70
0
  62
2
  6
CONTINUOUS
  0
LAYER
  2
ORANGE4
  70
0
  62
40
  6
CONTINUOUS
  0
ENDTAB
  0
ENDSEC
  0
SECTION
  2
ENTITIES
0
LINE
8
LYELLOW
6
CONTINUOUS
10
35.0230949999999979
20
-93.0348189999999988
11
35.0230949999999979
21
-93.8443419999999975
0
LINE
8
LYELLOW
6
CONTINUOUS
10
35.0230949999999979
20
-93.8443419999999975
11
35.0707139999999953
21
-93.9395799999999923
0
LINE
8
LYELLOW
6
CONTINUOUS
10
35.0707139999999953
20
-93.9395799999999923
11
35.1183329999999998
21
-93.9872000000000014
0
LINE
8
LYELLOW
6
CONTINUOUS
10
35.1183329999999998
20
-93.9872000000000014
11
35.2135710000000017
21
-94.0348189999999988
0
LINE
8
LYELLOW
6
CONTINUOUS
10
35.2135710000000017
20
-94.0348189999999988
11
35.4040469999999985
21
-94.0348189999999988
0
LINE
8
LYELLOW
6
CONTINUOUS
10
35.4040469999999985
20
-94.0348189999999988
11
35.4992850000000004
21
-93.9872000000000014
0
LINE
8
LYELLOW
6
CONTINUOUS
10
35.4992850000000004
20
-93.9872000000000014
11
35.5469039999999978
21
-93.9395799999999923
0
LINE
8
LYELLOW
6
CONTINUOUS
10
35.5469039999999978
20
-93.9395799999999923
11
35.5945229999999952
21
-93.8443419999999975
0
LINE
8
LYELLOW
6
CONTINUOUS
10
35.5945229999999952
20
-93.8443419999999975
11
35.5945229999999952
21
-93.0348189999999988
0
LINE
8
LYELLOW
6
CONTINUOUS
10
36.5945229999999952
20
-94.0348189999999988
11
36.0230949999999979
21
-94.0348189999999988
0
LINE
8
LYELLOW
6
CONTINUOUS
10
36.3088089999999966
20
-94.0348189999999988
11
36.3088089999999966
21
-93.0348189999999988
0
LINE
8
LYELLOW
6
CONTINUOUS
10
36.3088089999999966
20
-93.0348189999999988
11
36.2135710000000017
21
-93.1776759999999911
0
LINE
8
LYELLOW
6
CONTINUOUS
10
36.2135710000000017
20
-93.1776759999999911
11
36.1183329999999998
21
-93.2729140000000001
0
LINE
8
LYELLOW
6
CONTINUOUS
10
36.1183329999999998
20
-93.2729140000000001
11
36.0230949999999979
21
-93.3205329999999975
0
LINE
8
LYELLOW
6
CONTINUOUS
10
36.216904999999997
20
-71.8598190000000017
11
36.216904999999997
21
-70.8598190000000017
0
LINE
8
LYELLOW
6
CONTINUOUS
10
36.216904999999997
20
-70.8598190000000017
11
36.4549999999999983
21
-70.8598190000000017
0
LINE
8
LYELLOW
6
CONTINUOUS
10
36.4549999999999983
20
-70.8598190000000017
11
36.5978569999999976
21
-70.9074379999999991
0
LINE
8
LYELLOW
6
CONTINUOUS
10
36.5978569999999976
20
-70.9074379999999991
11
36.6930949999999996
21
-71.0026759999999939
0
LINE
8
LYELLOW
6
CONTINUOUS
10
36.6930949999999996
20
-71.0026759999999939
11
36.740713999999997
21
-71.0979140000000029
0
LINE
8
LYELLOW
6
CONTINUOUS
10
36.740713999999997
20
-71.0979140000000029
11
36.7883330000000015
21
-71.2883899999999926
0
LINE
8
LYELLOW
6
CONTINUOUS
10
36.7883330000000015
20
-71.2883899999999926
11
36.7883330000000015
21
-71.431246999999999
0
LINE
8
LYELLOW
6
CONTINUOUS
10
36.7883330000000015
20
-71.431246999999999
11
36.740713999999997
21
-71.6217230000000029
0
LINE
8
LYELLOW
6
CONTINUOUS
10
36.740713999999997
20
-71.6217230000000029
11
36.6930949999999996
21
-71.7169609999999977
0
LINE
8
LYELLOW
6
CONTINUOUS
10
36.6930949999999996
20
-71.7169609999999977
11
36.5978569999999976
21
-71.81219999999999
0
LINE
8
LYELLOW
6
CONTINUOUS
10
36.5978569999999976
20
-71.81219999999999
11
36.4549999999999983
21
-71.8598190000000017
0
LINE
8
LYELLOW
6
CONTINUOUS
10
36.4549999999999983
20
-71.8598190000000017
11
36.216904999999997
21
-71.8598190000000017
0
LINE
8
LYELLOW
6
CONTINUOUS
10
37.740713999999997
20
-71.8598190000000017
11
37.1692859999999996
21
-71.8598190000000017
0
LINE
8
LYELLOW
6
CONTINUOUS
10
37.4549999999999983
20
-71.8598190000000017
11
37.4549999999999983
21
-70.8598190000000017
0
LINE
8
LYELLOW
6
CONTINUOUS
10
37.4549999999999983
20
-70.8598190000000017
11
37.3597619999999964
21
-71.0026759999999939
0
LINE
8
LYELLOW
6
CONTINUOUS
10
37.3597619999999964
20
-71.0026759999999939
11
37.2645240000000015
21
-71.0979140000000029
0
LINE
8
LYELLOW
6
CONTINUOUS
10
37.2645240000000015
20
-71.0979140000000029
11
37.1692859999999996
21
-71.1455330000000004
0
LINE
8
LYELLOW
6
CONTINUOUS
10
31.6130949999999977
20
-72.229818999999992
11
31.6130949999999977
21
-71.229818999999992
0
LINE
8
LYELLOW
6
CONTINUOUS
10
32.1845229999999987
20
-72.229818999999992
11
31.7559519999999971
21
-71.6583899999999971
0
LINE
8
LYELLOW
6
CONTINUOUS
10
32.1845229999999987
20
-71.229818999999992
11
31.6130949999999977
21
-71.8012470000000036
0
LINE
8
LYELLOW
6
CONTINUOUS
10
108.6666659999999922
20
-39.8498189999999965
11
108.6666659999999922
21
-40.5641040000000004
0
LINE
8
LYELLOW
6
CONTINUOUS
10
108.6666659999999922
20
-40.5641040000000004
11
108.6190469999999948
21
-40.7069609999999997
0
LINE
8
LYELLOW
6
CONTINUOUS
10
108.6190469999999948
20
-40.7069609999999997
11
108.523809
21
-40.8021999999999991
0
LINE
8
LYELLOW
6
CONTINUOUS
10
108.523809
20
-40.8021999999999991
11
108.3809519999999935
21
-40.8498189999999965
0
LINE
8
LYELLOW
6
CONTINUOUS
10
108.3809519999999935
20
-40.8498189999999965
11
108.2857139999999987
21
-40.8498189999999965
0
LINE
8
LYELLOW
6
CONTINUOUS
10
109.5714279999999974
20
-40.1831519999999998
11
109.5714279999999974
21
-40.8498189999999965
0
LINE
8
LYELLOW
6
CONTINUOUS
10
109.3333329999999961
20
-39.8021999999999991
11
109.0952379999999948
21
-40.5164849999999959
0
LINE
8
LYELLOW
6
CONTINUOUS
10
109.0952379999999948
20
-40.5164849999999959
11
109.7142849999999896
21
-40.5164849999999959
0
LINE
8
LYELLOW
6
CONTINUOUS
10
50.3730329999999995
20
-93.5595799999999969
11
50.325413999999995
21
-93.6071999999999917
0
LINE
8
LYELLOW
6
CONTINUOUS
10
50.325413999999995
20
-93.6071999999999917
11
50.1825569999999956
21
-93.6548189999999892
0
LINE
8
LYELLOW
6
CONTINUOUS
10
50.1825569999999956
20
-93.6548189999999892
11
50.0873190000000008
21
-93.6548189999999892
0
LINE
8
LYELLOW
6
CONTINUOUS
10
50.0873190000000008
20
-93.6548189999999892
11
49.9444619999999944
21
-93.6071999999999917
0
LINE
8
LYELLOW
6
CONTINUOUS
10
49.9444619999999944
20
-93.6071999999999917
11
49.8492239999999995
21
-93.5119609999999994
0
LINE
8
LYELLOW
6
CONTINUOUS
10
49.8492239999999995
20
-93.5119609999999994
11
49.801604999999995
21
-93.4167229999999904
0
LINE
8
LYELLOW
6
CONTINUOUS
10
49.801604999999995
20
-93.4167229999999904
11
49.7539859999999976
21
-93.2262470000000008
0
LINE
8
LYELLOW
6
CONTINUOUS
10
49.7539859999999976
20
-93.2262470000000008
11
49.7539859999999976
21
-93.0833899999999943
0
LINE
8
LYELLOW
6
CONTINUOUS
10
49.7539859999999976
20
-93.0833899999999943
11
49.801604999999995
21
-92.8929139999999904
0
LINE
8
LYELLOW
6
CONTINUOUS
10
49.801604999999995
20
-92.8929139999999904
11
49.8492239999999995
21
-92.7976759999999956
0
LINE
8
LYELLOW
6
CONTINUOUS
10
49.8492239999999995
20
-92.7976759999999956
11
49.9444619999999944
21
-92.7024380000000008
0
LINE
8
LYELLOW
6
CONTINUOUS
10
49.9444619999999944
20
-92.7024380000000008
11
50.0873190000000008
21
-92.6548189999999892
0
LINE
8
LYELLOW
6
CONTINUOUS
10
50.0873190000000008
20
-92.6548189999999892
11
50.1825569999999956
21
-92.6548189999999892
0
LINE
8
LYELLOW
6
CONTINUOUS
10
50.1825569999999956
20
-92.6548189999999892
11
50.325413999999995
21
-92.7024380000000008
0
LINE
8
LYELLOW
6
CONTINUOUS
10
50.325413999999995
20
-92.7024380000000008
11
50.3730329999999995
21
-92.7500569999999982
0
LINE
8
LYELLOW
6
CONTINUOUS
10
51.325413999999995
20
-93.6548189999999892
11
50.7539859999999976
21
-93.6548189999999892
0
LINE
8
LYELLOW
6
CONTINUOUS
10
51.0396999999999963
20
-93.6548189999999892
11
51.0396999999999963
21
-92.6548189999999892
0
LINE
8
LYELLOW
6
CONTINUOUS
10
51.0396999999999963
20
-92.6548189999999892
11
50.9444619999999944
21
-92.7976759999999956
0
LINE
8
LYELLOW
6
CONTINUOUS
10
50.9444619999999944
20
-92.7976759999999956
11
50.8492239999999995
21
-92.8929139999999904
0
LINE
8
LYELLOW
6
CONTINUOUS
10
50.8492239999999995
20
-92.8929139999999904
11
50.7539859999999976
21
-92.9405330000000021
0
LINE
8
LYELLOW
6
CONTINUOUS
10
34.6666659999999993
20
-47.1598189999999988
11
34.6666659999999993
21
-47.8741039999999956
0
LINE
8
LYELLOW
6
CONTINUOUS
10
34.6666659999999993
20
-47.8741039999999956
11
34.6190470000000019
21
-48.0169609999999949
0
LINE
8
LYELLOW
6
CONTINUOUS
10
34.6190470000000019
20
-48.0169609999999949
11
34.523809
21
-48.1121999999999943
0
LINE
8
LYELLOW
6
CONTINUOUS
10
34.523809
20
-48.1121999999999943
11
34.3809520000000006
21
-48.1598189999999988
0
LINE
8
LYELLOW
6
CONTINUOUS
10
34.3809520000000006
20
-48.1598189999999988
11
34.2857139999999987
21
-48.1598189999999988
0
LINE
8
LYELLOW
6
CONTINUOUS
10
35.0476189999999974
20
-47.1598189999999988
11
35.6666659999999993
21
-47.1598189999999988
0
LINE
8
LYELLOW
6
CONTINUOUS
10
35.6666659999999993
20
-47.1598189999999988
11
35.3333329999999961
21
-47.5407709999999994
0
LINE
8
LYELLOW
6
CONTINUOUS
10
35.3333329999999961
20
-47.5407709999999994
11
35.4761899999999955
21
-47.5407709999999994
0
LINE
8
LYELLOW
6
CONTINUOUS
10
35.4761899999999955
20
-47.5407709999999994
11
35.5714279999999974
21
-47.5883899999999969
0
LINE
8
LYELLOW
6
CONTINUOUS
10
35.5714279999999974
20
-47.5883899999999969
11
35.6190470000000019
21
-47.6360090000000014
0
LINE
8
LYELLOW
6
CONTINUOUS
10
35.6190470000000019
20
-47.6360090000000014
11
35.6666659999999993
21
-47.7312469999999962
0
LINE
8
LYELLOW
6
CONTINUOUS
10
35.6666659999999993
20
-47.7312469999999962
11
35.6666659999999993
21
-47.9693419999999975
0
LINE
8
LYELLOW
6
CONTINUOUS
10
35.6666659999999993
20
-47.9693419999999975
11
35.6190470000000019
21
-48.0645799999999994
0
LINE
8
LYELLOW
6
CONTINUOUS
10
35.6190470000000019
20
-48.0645799999999994
11
35.5714279999999974
21
-48.1121999999999943
0
LINE
8
LYELLOW
6
CONTINUOUS
10
35.5714279999999974
20
-48.1121999999999943
11
35.4761899999999955
21
-48.1598189999999988
0
LINE
8
LYELLOW
6
CONTINUOUS
10
35.4761899999999955
20
-48.1598189999999988
11
35.1904759999999968
21
-48.1598189999999988
0
LINE
8
LYELLOW
6
CONTINUOUS
10
35.1904759999999968
20
-48.1598189999999988
11
35.0952380000000019
21
-48.1121999999999943
0
LINE
8
LYELLOW
6
CONTINUOUS
10
35.0952380000000019
20
-48.1121999999999943
11
35.0476189999999974
21
-48.0645799999999994
0
LINE
8
LYELLOW
6
CONTINUOUS
10
65.7683329999999984
20
-65.3298190000000005
11
65.2921429999999958
21
-65.3298190000000005
0
LINE
8
LYELLOW
6
CONTINUOUS
10
65.2921429999999958
20
-65.3298190000000005
11
65.2921429999999958
21
-64.3298190000000005
0
LINE
8
LYELLOW
6
CONTINUOUS
10
66.6254759999999919
20
-65.3298190000000005
11
66.0540479999999945
21
-65.3298190000000005
0
LINE
8
LYELLOW
6
CONTINUOUS
10
66.3397619999999932
20
-65.3298190000000005
11
66.3397619999999932
21
-64.3298190000000005
0
LINE
8
LYELLOW
6
CONTINUOUS
10
66.3397619999999932
20
-64.3298190000000005
11
66.2445239999999984
21
-64.4726759999999928
0
LINE
8
LYELLOW
6
CONTINUOUS
10
66.2445239999999984
20
-64.4726759999999928
11
66.1492860000000036
21
-64.5679140000000018
0
LINE
8
LYELLOW
6
CONTINUOUS
10
66.1492860000000036
20
-64.5679140000000018
11
66.0540479999999945
21
-64.6155329999999992
0
LINE
8
LYELLOW
6
CONTINUOUS
10
80.0830330000000004
20
-96.5348189999999988
11
79.74969999999999
21
-96.0586279999999988
0
LINE
8
LYELLOW
6
CONTINUOUS
10
79.511605000000003
20
-96.5348189999999988
11
79.511605000000003
21
-95.5348189999999988
0
LINE
8
LYELLOW
6
CONTINUOUS
10
79.511605000000003
20
-95.5348189999999988
11
79.8925569999999965
21
-95.5348189999999988
0
LINE
8
LYELLOW
6
CONTINUOUS
10
79.8925569999999965
20
-95.5348189999999988
11
79.9877949999999913
21
-95.5824379999999962
0
LINE
8
LYELLOW
6
CONTINUOUS
10
79.9877949999999913
20
-95.5824379999999962
11
80.0354140000000029
21
-95.6300569999999936
0
LINE
8
LYELLOW
6
CONTINUOUS
10
80.0354140000000029
20
-95.6300569999999936
11
80.0830330000000004
21
-95.7252950000000027
0
LINE
8
LYELLOW
6
CONTINUOUS
10
80.0830330000000004
20
-95.7252950000000027
11
80.0830330000000004
21
-95.8681519999999949
0
LINE
8
LYELLOW
6
CONTINUOUS
10
80.0830330000000004
20
-95.8681519999999949
11
80.0354140000000029
21
-95.9633899999999898
0
LINE
8
LYELLOW
6
CONTINUOUS
10
80.0354140000000029
20
-95.9633899999999898
11
79.9877949999999913
21
-96.0110090000000014
0
LINE
8
LYELLOW
6
CONTINUOUS
10
79.9877949999999913
20
-96.0110090000000014
11
79.8925569999999965
21
-96.0586279999999988
0
LINE
8
LYELLOW
6
CONTINUOUS
10
79.8925569999999965
20
-96.0586279999999988
11
79.511605000000003
21
-96.0586279999999988
0
LINE
8
LYELLOW
6
CONTINUOUS
10
81.0354140000000029
20
-96.5348189999999988
11
80.4639859999999913
21
-96.5348189999999988
0
LINE
8
LYELLOW
6
CONTINUOUS
10
80.74969999999999
20
-96.5348189999999988
11
80.74969999999999
21
-95.5348189999999988
0
LINE
8
LYELLOW
6
CONTINUOUS
10
80.74969999999999
20
-95.5348189999999988
11
80.6544619999999952
21
-95.6776759999999911
0
LINE
8
LYELLOW
6
CONTINUOUS
10
80.6544619999999952
20
-95.6776759999999911
11
80.5592240000000004
21
-95.7729140000000001
0
LINE
8
LYELLOW
6
CONTINUOUS
10
80.5592240000000004
20
-95.7729140000000001
11
80.4639859999999913
21
-95.8205329999999975
0
LINE
8
LYELLOW
6
CONTINUOUS
10
34.6666659999999993
20
-36.5348189999999988
11
34.6666659999999993
21
-37.2491039999999956
0
LINE
8
LYELLOW
6
CONTINUOUS
10
34.6666659999999993
20
-37.2491039999999956
11
34.6190470000000019
21
-37.3919609999999949
0
LINE
8
LYELLOW
6
CONTINUOUS
10
34.6190470000000019
20
-37.3919609999999949
11
34.523809
21
-37.4872000000000014
0
LINE
8
LYELLOW
6
CONTINUOUS
10
34.523809
20
-37.4872000000000014
11
34.3809520000000006
21
-37.5348189999999988
0
LINE
8
LYELLOW
6
CONTINUOUS
10
34.3809520000000006
20
-37.5348189999999988
11
34.2857139999999987
21
-37.5348189999999988
0
LINE
8
LYELLOW
6
CONTINUOUS
10
35.6666659999999993
20
-37.5348189999999988
11
35.0952380000000019
21
-37.5348189999999988
0
LINE
8
LYELLOW
6
CONTINUOUS
10
35.3809520000000006
20
-37.5348189999999988
11
35.3809520000000006
21
-36.5348189999999988
0
LINE
8
LYELLOW
6
CONTINUOUS
10
35.3809520000000006
20
-36.5348189999999988
11
35.2857139999999987
21
-36.6776759999999982
0
LINE
8
LYELLOW
6
CONTINUOUS
10
35.2857139999999987
20
-36.6776759999999982
11
35.1904759999999968
21
-36.7729140000000001
0
LINE
8
LYELLOW
6
CONTINUOUS
10
35.1904759999999968
20
-36.7729140000000001
11
35.0952380000000019
21
-36.8205329999999975
0
LINE
8
LYELLOW
6
CONTINUOUS
10
64.2801759999999973
20
-95.7548189999999977
11
64.2801759999999973
21
-94.7548189999999977
0
LINE
8
LYELLOW
6
CONTINUOUS
10
64.2801759999999973
20
-94.7548189999999977
11
64.6135089999999934
21
-95.4691040000000015
0
LINE
8
LYELLOW
6
CONTINUOUS
10
64.6135089999999934
20
-95.4691040000000015
11
64.9468420000000037
21
-94.7548189999999977
0
LINE
8
LYELLOW
6
CONTINUOUS
10
64.9468420000000037
20
-94.7548189999999977
11
64.9468420000000037
21
-95.7548189999999977
0
LINE
8
LYELLOW
6
CONTINUOUS
10
65.9468420000000037
20
-95.7548189999999977
11
65.3754139999999921
21
-95.7548189999999977
0
LINE
8
LYELLOW
6
CONTINUOUS
10
65.6611279999999908
20
-95.7548189999999977
11
65.6611279999999908
21
-94.7548189999999977
0
LINE
8
LYELLOW
6
CONTINUOUS
10
65.6611279999999908
20
-94.7548189999999977
11
65.565889999999996
21
-94.8976759999999899
0
LINE
8
LYELLOW
6
CONTINUOUS
10
65.565889999999996
20
-94.8976759999999899
11
65.4706520000000012
21
-94.992913999999999
0
LINE
8
LYELLOW
6
CONTINUOUS
10
65.4706520000000012
20
-94.992913999999999
11
65.3754139999999921
21
-95.0405329999999964
0
LINE
8
LYELLOW
6
CONTINUOUS
10
35.2183330000000012
20
-105.334818999999996
11
34.884999999999998
21
-104.858627999999996
0
LINE
8
LYELLOW
6
CONTINUOUS
10
34.6469049999999967
20
-105.334818999999996
11
34.6469049999999967
21
-104.334818999999996
0
LINE
8
LYELLOW
6
CONTINUOUS
10
34.6469049999999967
20
-104.334818999999996
11
35.0278569999999974
21
-104.334818999999996
0
LINE
8
LYELLOW
6
CONTINUOUS
10
35.0278569999999974
20
-104.334818999999996
11
35.1230949999999993
21
-104.3824379999999934
0
LINE
8
LYELLOW
6
CONTINUOUS
10
35.1230949999999993
20
-104.3824379999999934
11
35.1707139999999967
21
-104.4300569999999908
0
LINE
8
LYELLOW
6
CONTINUOUS
10
35.1707139999999967
20
-104.4300569999999908
11
35.2183330000000012
21
-104.5252949999999998
0
LINE
8
LYELLOW
6
CONTINUOUS
10
35.2183330000000012
20
-104.5252949999999998
11
35.2183330000000012
21
-104.6681519999999921
0
LINE
8
LYELLOW
6
CONTINUOUS
10
35.2183330000000012
20
-104.6681519999999921
11
35.1707139999999967
21
-104.7633900000000011
0
LINE
8
LYELLOW
6
CONTINUOUS
10
35.1707139999999967
20
-104.7633900000000011
11
35.1230949999999993
21
-104.8110089999999985
0
LINE
8
LYELLOW
6
CONTINUOUS
10
35.1230949999999993
20
-104.8110089999999985
11
35.0278569999999974
21
-104.858627999999996
0
LINE
8
LYELLOW
6
CONTINUOUS
10
35.0278569999999974
20
-104.858627999999996
11
34.6469049999999967
21
-104.858627999999996
0
LINE
8
LYELLOW
6
CONTINUOUS
10
35.5992859999999993
20
-104.4300569999999908
11
35.6469049999999967
21
-104.3824379999999934
0
LINE
8
LYELLOW
6
CONTINUOUS
10
35.6469049999999967
20
-104.3824379999999934
11
35.7421429999999987
21
-104.334818999999996
0
LINE
8
LYELLOW
6
CONTINUOUS
10
35.7421429999999987
20
-104.334818999999996
11
35.9802379999999999
21
-104.334818999999996
0
LINE
8
LYELLOW
6
CONTINUOUS
10
35.9802379999999999
20
-104.334818999999996
11
36.0754760000000019
21
-104.3824379999999934
0
LINE
8
LYELLOW
6
CONTINUOUS
10
36.0754760000000019
20
-104.3824379999999934
11
36.1230949999999993
21
-104.4300569999999908
0
LINE
8
LYELLOW
6
CONTINUOUS
10
36.1230949999999993
20
-104.4300569999999908
11
36.1707139999999967
21
-104.5252949999999998
0
LINE
8
LYELLOW
6
CONTINUOUS
10
36.1707139999999967
20
-104.5252949999999998
11
36.1707139999999967
21
-104.6205329999999947
0
LINE
8
LYELLOW
6
CONTINUOUS
10
36.1707139999999967
20
-104.6205329999999947
11
36.1230949999999993
21
-104.7633900000000011
0
LINE
8
LYELLOW
6
CONTINUOUS
10
36.1230949999999993
20
-104.7633900000000011
11
35.5516670000000019
21
-105.334818999999996
0
LINE
8
LYELLOW
6
CONTINUOUS
10
35.5516670000000019
20
-105.334818999999996
11
36.1707139999999967
21
-105.334818999999996
0
LINE
8
LYELLOW
6
CONTINUOUS
10
108.6666659999999922
20
-26.3748189999999987
11
108.6666659999999922
21
-27.089103999999999
0
LINE
8
LYELLOW
6
CONTINUOUS
10
108.6666659999999922
20
-27.089103999999999
11
108.6190469999999948
21
-27.2319609999999983
0
LINE
8
LYELLOW
6
CONTINUOUS
10
108.6190469999999948
20
-27.2319609999999983
11
108.523809
21
-27.3271999999999977
0
LINE
8
LYELLOW
6
CONTINUOUS
10
108.523809
20
-27.3271999999999977
11
108.3809519999999935
21
-27.3748189999999987
0
LINE
8
LYELLOW
6
CONTINUOUS
10
108.3809519999999935
20
-27.3748189999999987
11
108.2857139999999987
21
-27.3748189999999987
0
LINE
8
LYELLOW
6
CONTINUOUS
10
109.0952379999999948
20
-26.4700569999999971
11
109.1428569999999922
21
-26.4224379999999996
0
LINE
8
LYELLOW
6
CONTINUOUS
10
109.1428569999999922
20
-26.4224379999999996
11
109.2380950000000013
21
-26.3748189999999987
0
LINE
8
LYELLOW
6
CONTINUOUS
10
109.2380950000000013
20
-26.3748189999999987
11
109.4761899999999883
21
-26.3748189999999987
0
LINE
8
LYELLOW
6
CONTINUOUS
10
109.4761899999999883
20
-26.3748189999999987
11
109.5714279999999974
21
-26.4224379999999996
0
LINE
8
LYELLOW
6
CONTINUOUS
10
109.5714279999999974
20
-26.4224379999999996
11
109.6190469999999948
21
-26.4700569999999971
0
LINE
8
LYELLOW
6
CONTINUOUS
10
109.6190469999999948
20
-26.4700569999999971
11
109.6666659999999922
21
-26.565294999999999
0
LINE
8
LYELLOW
6
CONTINUOUS
10
109.6666659999999922
20
-26.565294999999999
11
109.6666659999999922
21
-26.6605329999999974
0
LINE
8
LYELLOW
6
CONTINUOUS
10
109.6666659999999922
20
-26.6605329999999974
11
109.6190469999999948
21
-26.8033900000000003
0
LINE
8
LYELLOW
6
CONTINUOUS
10
109.6190469999999948
20
-26.8033900000000003
11
109.0476189999999974
21
-27.3748189999999987
0
LINE
8
LYELLOW
6
CONTINUOUS
10
109.0476189999999974
20
-27.3748189999999987
11
109.6666659999999922
21
-27.3748189999999987
0
LINE
8
LYELLOW
6
CONTINUOUS
10
33.5349999999999966
20
-94.5799999999999983
11
33.5349999999999966
21
-102.3199999999999932
0
LINE
8
LYELLOW
6
CONTINUOUS
10
33.5349999999999966
20
-102.3199999999999932
11
38.0349999999999966
21
-102.3199999999999932
0
LINE
8
LYELLOW
6
CONTINUOUS
10
34.7849999999999966
20
-94.5799999999999983
11
33.5349999999999966
21
-94.5799999999999983
0
LINE
8
LYELLOW
6
CONTINUOUS
10
38.0349999999999966
20
-94.5799999999999983
11
36.7849999999999966
21
-94.5799999999999983
0
LINE
8
LYELLOW
6
CONTINUOUS
10
38.0349999999999966
20
-102.3199999999999932
11
38.0349999999999966
21
-94.5799999999999983
0
ARC
8
LYELLOW
10
35.7849999999999966
20
-94.5799999999999983
40
1.
50
-180.00000000
51
-0.00000000
0
LINE
8
LYELLOW
6
CONTINUOUS
10
33.2149999999999963
20
-73.875
11
34.2349999999999994
21
-73.875
0
LINE
8
LYELLOW
6
CONTINUOUS
10
35.0150000000000006
20
-72.4050000000000011
11
35.0150000000000006
21
-75.3449999999999989
0
LINE
8
LYELLOW
6
CONTINUOUS
10
35.134999999999998
20
-72.4050000000000011
11
35.134999999999998
21
-75.3449999999999989
0
LINE
8
LYELLOW
6
CONTINUOUS
10
35.2549999999999955
20
-72.4050000000000011
11
35.2549999999999955
21
-75.3449999999999989
0
LINE
8
LYELLOW
6
CONTINUOUS
10
40.6950000000000003
20
-73.875
11
39.6749999999999972
21
-73.875
0
LINE
8
LYELLOW
6
CONTINUOUS
10
34.2349999999999994
20
-72.4050000000000011
11
39.6749999999999972
21
-72.4050000000000011
0
LINE
8
LYELLOW
6
CONTINUOUS
10
39.6749999999999972
20
-72.4050000000000011
11
39.6749999999999972
21
-75.3449999999999989
0
LINE
8
LYELLOW
6
CONTINUOUS
10
39.6749999999999972
20
-75.3449999999999989
11
34.2349999999999994
21
-75.3449999999999989
0
LINE
8
LYELLOW
6
CONTINUOUS
10
34.2349999999999994
20
-75.3449999999999989
11
34.2349999999999994
21
-72.4050000000000011
0
LINE
8
LYELLOW
6
CONTINUOUS
10
107.6199999999999903
20
-41.394999999999996
11
109.
21
-41.394999999999996
0
LINE
8
LYELLOW
6
CONTINUOUS
10
107.6199999999999903
20
-42.7749999999999986
11
107.6199999999999903
21
-41.394999999999996
0
LINE
8
LYELLOW
6
CONTINUOUS
10
107.6199999999999903
20
-44.0449999999999946
11
107.6199999999999903
21
-46.6950000000000003
0
LINE
8
LYELLOW
6
CONTINUOUS
10
107.6199999999999903
20
-44.0449999999999946
11
110.3799999999999955
21
-44.0449999999999946
0
LINE
8
LYELLOW
6
CONTINUOUS
10
107.6199999999999903
20
-46.6950000000000003
11
110.3799999999999955
21
-46.6950000000000003
0
LINE
8
LYELLOW
6
CONTINUOUS
10
110.3799999999999955
20
-44.0449999999999946
11
110.3799999999999955
21
-46.6950000000000003
0
LINE
8
LYELLOW
6
CONTINUOUS
10
46.1300019999999975
20
-96.1349999999999909
11
46.9300019999999947
21
-96.1349999999999909
0
LINE
8
LYELLOW
6
CONTINUOUS
10
46.5300019999999961
20
-95.7349999999999994
11
46.5300019999999961
21
-96.5349999999999966
0
LINE
8
LYELLOW
6
CONTINUOUS
10
50.5396999999999963
20
-94.3699999999999903
11
50.5396999999999963
21
-102.5300000000000011
0
LINE
8
LYELLOW
6
CONTINUOUS
10
50.5796999999999954
20
-94.3699999999999903
11
50.5796999999999954
21
-102.5300000000000011
0
LINE
8
LYELLOW
6
CONTINUOUS
10
50.6196999999999946
20
-94.3709999999999951
11
50.6196999999999946
21
-102.5289999999999964
0
LINE
8
LYELLOW
6
CONTINUOUS
10
50.6597000000000008
20
-94.3719999999999999
11
50.6597000000000008
21
-102.5279999999999916
0
LINE
8
LYELLOW
6
CONTINUOUS
10
50.6997
20
-94.3729999999999905
11
50.6997
21
-102.527000000000001
0
LINE
8
LYELLOW
6
CONTINUOUS
10
50.7396999999999991
20
-94.375
11
50.7396999999999991
21
-102.5249999999999915
0
LINE
8
LYELLOW
6
CONTINUOUS
10
50.7796999999999983
20
-94.3769999999999953
11
50.7796999999999983
21
-102.5229999999999961
0
LINE
8
LYELLOW
6
CONTINUOUS
10
50.8196999999999974
20
-94.3799999999999955
11
50.8196999999999974
21
-102.519999999999996
0
LINE
8
LYELLOW
6
CONTINUOUS
10
50.8596999999999966
20
-94.3819999999999908
11
50.8596999999999966
21
-102.5180000000000007
0
LINE
8
LYELLOW
6
CONTINUOUS
10
50.8996999999999957
20
-94.3859999999999957
11
50.8996999999999957
21
-102.5139999999999958
0
LINE
8
LYELLOW
6
CONTINUOUS
10
50.9396999999999949
20
-94.3889999999999958
11
50.9396999999999949
21
-102.5109999999999957
0
LINE
8
LYELLOW
6
CONTINUOUS
10
50.9797000000000011
20
-94.3939999999999912
11
50.9797000000000011
21
-102.5060000000000002
0
LINE
8
LYELLOW
6
CONTINUOUS
10
51.0197000000000003
20
-94.3979999999999961
11
51.0197000000000003
21
-102.5019999999999953
0
LINE
8
LYELLOW
6
CONTINUOUS
10
51.0596999999999994
20
-94.4029999999999916
11
51.0596999999999994
21
-102.4969999999999999
0
LINE
8
LYELLOW
6
CONTINUOUS
10
51.0996999999999986
20
-94.4080000000000013
11
51.0996999999999986
21
-102.4919999999999902
0
LINE
8
LYELLOW
6
CONTINUOUS
10
51.1396999999999977
20
-94.4140000000000015
11
51.1396999999999977
21
-102.48599999999999
0
LINE
8
LYELLOW
6
CONTINUOUS
10
51.1796999999999969
20
-94.4200000000000017
11
51.1796999999999969
21
-102.4799999999999898
0
LINE
8
LYELLOW
6
CONTINUOUS
10
51.219699999999996
20
-94.4269999999999925
11
51.219699999999996
21
-102.472999999999999
0
LINE
8
LYELLOW
6
CONTINUOUS
10
51.2596999999999952
20
-94.4329999999999927
11
51.2596999999999952
21
-97.4099999999999966
0
LINE
8
LYELLOW
6
CONTINUOUS
10
51.2596999999999952
20
-99.4899999999999949
11
51.2596999999999952
21
-102.4669999999999987
0
LINE
8
LYELLOW
6
CONTINUOUS
10
51.2996999999999943
20
-94.4410000000000025
11
51.2996999999999943
21
-97.4099999999999966
0
LINE
8
LYELLOW
6
CONTINUOUS
10
51.2996999999999943
20
-99.4899999999999949
11
51.2996999999999943
21
-102.458999999999989
0
LINE
8
LYELLOW
6
CONTINUOUS
10
51.3397000000000006
20
-94.4479999999999933
11
51.3397000000000006
21
-97.4099999999999966
0
LINE
8
LYELLOW
6
CONTINUOUS
10
51.3397000000000006
20
-99.4899999999999949
11
51.3397000000000006
21
-102.4519999999999982
0
LINE
8
LYELLOW
6
CONTINUOUS
10
51.3796999999999997
20
-94.4569999999999936
11
51.3796999999999997
21
-97.4099999999999966
0
LINE
8
LYELLOW
6
CONTINUOUS
10
51.3796999999999997
20
-99.4899999999999949
11
51.3796999999999997
21
-102.4429999999999978
0
LINE
8
LYELLOW
6
CONTINUOUS
10
51.4196999999999989
20
-94.4649999999999892
11
51.4196999999999989
21
-97.4099999999999966
0
LINE
8
LYELLOW
6
CONTINUOUS
10
51.4196999999999989
20
-99.4899999999999949
11
51.4196999999999989
21
-102.4350000000000023
0
LINE
8
LYELLOW
6
CONTINUOUS
10
51.459699999999998
20
-94.4739999999999895
11
51.459699999999998
21
-97.4099999999999966
0
LINE
8
LYELLOW
6
CONTINUOUS
10
51.459699999999998
20
-99.4899999999999949
11
51.459699999999998
21
-102.4260000000000019
0
LINE
8
LYELLOW
6
CONTINUOUS
10
51.4996999999999971
20
-94.4829999999999899
11
51.4996999999999971
21
-97.4099999999999966
0
LINE
8
LYELLOW
6
CONTINUOUS
10
51.4996999999999971
20
-99.4899999999999949
11
51.4996999999999971
21
-102.4170000000000016
0
LINE
8
LYELLOW
6
CONTINUOUS
10
51.5396999999999963
20
-94.492999999999995
11
51.5396999999999963
21
-97.4099999999999966
0
LINE
8
LYELLOW
6
CONTINUOUS
10
51.5396999999999963
20
-99.4899999999999949
11
51.5396999999999963
21
-102.4069999999999965
0
LINE
8
LYELLOW
6
CONTINUOUS
10
51.5796999999999954
20
-94.5030000000000001
11
51.5796999999999954
21
-97.4099999999999966
0
LINE
8
LYELLOW
6
CONTINUOUS
10
51.5796999999999954
20
-99.4899999999999949
11
51.5796999999999954
21
-102.3969999999999914
0
LINE
8
LYELLOW
6
CONTINUOUS
10
51.6196999999999946
20
-94.5139999999999958
11
51.6196999999999946
21
-97.4099999999999966
0
LINE
8
LYELLOW
6
CONTINUOUS
10
51.6196999999999946
20
-99.4899999999999949
11
51.6196999999999946
21
-102.3859999999999957
0
LINE
8
LYELLOW
6
CONTINUOUS
10
51.6597000000000008
20
-94.5249999999999915
11
51.6597000000000008
21
-97.4099999999999966
0
LINE
8
LYELLOW
6
CONTINUOUS
10
51.6597000000000008
20
-99.4899999999999949
11
51.6597000000000008
21
-102.375
0
LINE
8
LYELLOW
6
CONTINUOUS
10
51.6997
20
-94.5369999999999919
11
51.6997
21
-97.4099999999999966
0
LINE
8
LYELLOW
6
CONTINUOUS
10
51.6997
20
-99.4899999999999949
11
51.6997
21
-102.3629999999999995
0
LINE
8
LYELLOW
6
CONTINUOUS
10
51.7396999999999991
20
-94.5489999999999924
11
51.7396999999999991
21
-97.4099999999999966
0
LINE
8
LYELLOW
6
CONTINUOUS
10
51.7396999999999991
20
-99.4899999999999949
11
51.7396999999999991
21
-102.3509999999999991
0
LINE
8
LYELLOW
6
CONTINUOUS
10
51.7796999999999983
20
-94.5609999999999928
11
51.7796999999999983
21
-97.4099999999999966
0
LINE
8
LYELLOW
6
CONTINUOUS
10
51.7796999999999983
20
-99.4899999999999949
11
51.7796999999999983
21
-102.3389999999999986
0
LINE
8
LYELLOW
6
CONTINUOUS
10
51.8196999999999974
20
-94.5739999999999981
11
51.8196999999999974
21
-97.4099999999999966
0
LINE
8
LYELLOW
6
CONTINUOUS
10
51.8196999999999974
20
-99.4899999999999949
11
51.8196999999999974
21
-102.3259999999999934
0
LINE
8
LYELLOW
6
CONTINUOUS
10
51.8596999999999966
20
-94.5869999999999891
11
51.8596999999999966
21
-97.4099999999999966
0
LINE
8
LYELLOW
6
CONTINUOUS
10
51.8596999999999966
20
-99.4899999999999949
11
51.8596999999999966
21
-102.3130000000000024
0
LINE
8
LYELLOW
6
CONTINUOUS
10
51.8996999999999957
20
-94.6009999999999991
11
51.8996999999999957
21
-97.4099999999999966
0
LINE
8
LYELLOW
6
CONTINUOUS
10
51.8996999999999957
20
-99.4899999999999949
11
51.8996999999999957
21
-102.2989999999999924
0
LINE
8
LYELLOW
6
CONTINUOUS
10
51.9396999999999949
20
-94.6149999999999949
11
51.9396999999999949
21
-97.4099999999999966
0
LINE
8
LYELLOW
6
CONTINUOUS
10
51.9396999999999949
20
-99.4899999999999949
11
51.9396999999999949
21
-102.2849999999999966
0
LINE
8
LYELLOW
6
CONTINUOUS
10
51.9797000000000011
20
-94.6299999999999955
11
51.9797000000000011
21
-97.4099999999999966
0
LINE
8
LYELLOW
6
CONTINUOUS
10
51.9797000000000011
20
-99.4899999999999949
11
51.9797000000000011
21
-102.269999999999996
0
LINE
8
LYELLOW
6
CONTINUOUS
10
52.0197000000000003
20
-94.644999999999996
11
52.0197000000000003
21
-97.4099999999999966
0
LINE
8
LYELLOW
6
CONTINUOUS
10
52.0197000000000003
20
-99.4899999999999949
11
52.0197000000000003
21
-102.2549999999999955
0
LINE
8
LYELLOW
6
CONTINUOUS
10
52.0596999999999994
20
-94.6610000000000014
11
52.0596999999999994
21
-97.4099999999999966
0
LINE
8
LYELLOW
6
CONTINUOUS
10
52.0596999999999994
20
-99.4899999999999949
11
52.0596999999999994
21
-102.2389999999999901
0
LINE
8
LYELLOW
6
CONTINUOUS
10
52.0996999999999986
20
-94.6769999999999925
11
52.0996999999999986
21
-97.4099999999999966
0
LINE
8
LYELLOW
6
CONTINUOUS
10
52.0996999999999986
20
-99.4899999999999949
11
52.0996999999999986
21
-102.222999999999999
0
LINE
8
LYELLOW
6
CONTINUOUS
10
52.1396999999999977
20
-94.6929999999999978
11
52.1396999999999977
21
-97.4099999999999966
0
LINE
8
LYELLOW
6
CONTINUOUS
10
52.1396999999999977
20
-99.4899999999999949
11
52.1396999999999977
21
-102.2069999999999936
0
LINE
8
LYELLOW
6
CONTINUOUS
10
52.1796999999999969
20
-94.7099999999999937
11
52.1796999999999969
21
-97.4099999999999966
0
LINE
8
LYELLOW
6
CONTINUOUS
10
52.1796999999999969
20
-99.4899999999999949
11
52.1796999999999969
21
-102.1899999999999977
0
LINE
8
LYELLOW
6
CONTINUOUS
10
52.219699999999996
20
-94.7279999999999944
11
52.219699999999996
21
-97.4099999999999966
0
LINE
8
LYELLOW
6
CONTINUOUS
10
52.219699999999996
20
-99.4899999999999949
11
52.219699999999996
21
-102.171999999999997
0
LINE
8
LYELLOW
6
CONTINUOUS
10
52.2596999999999952
20
-94.7459999999999951
11
52.2596999999999952
21
-97.4099999999999966
0
LINE
8
LYELLOW
6
CONTINUOUS
10
52.2596999999999952
20
-99.4899999999999949
11
52.2596999999999952
21
-102.1539999999999964
0
LINE
8
LYELLOW
6
CONTINUOUS
10
52.2996999999999943
20
-94.7650000000000006
11
52.2996999999999943
21
-97.4099999999999966
0
LINE
8
LYELLOW
6
CONTINUOUS
10
52.2996999999999943
20
-99.4899999999999949
11
52.2996999999999943
21
-102.1349999999999909
0
LINE
8
LYELLOW
6
CONTINUOUS
10
52.3397000000000006
20
-94.7839999999999918
11
52.3397000000000006
21
-97.4099999999999966
0
LINE
8
LYELLOW
6
CONTINUOUS
10
52.3397000000000006
20
-99.4899999999999949
11
52.3397000000000006
21
-102.1159999999999997
0
LINE
8
LYELLOW
6
CONTINUOUS
10
52.3796999999999997
20
-94.804000000000002
11
52.3796999999999997
21
-97.4099999999999966
0
LINE
8
LYELLOW
6
CONTINUOUS
10
52.3796999999999997
20
-99.4899999999999949
11
52.3796999999999997
21
-102.0959999999999894
0
LINE
8
LYELLOW
6
CONTINUOUS
10
52.4196999999999989
20
-94.8239999999999981
11
52.4196999999999989
21
-97.4099999999999966
0
LINE
8
LYELLOW
6
CONTINUOUS
10
52.4196999999999989
20
-99.4899999999999949
11
52.4196999999999989
21
-102.0759999999999934
0
LINE
8
LYELLOW
6
CONTINUOUS
10
52.459699999999998
20
-94.8449999999999989
11
52.459699999999998
21
-97.4099999999999966
0
LINE
8
LYELLOW
6
CONTINUOUS
10
52.459699999999998
20
-99.4899999999999949
11
52.459699999999998
21
-102.0549999999999926
0
LINE
8
LYELLOW
6
CONTINUOUS
10
52.4996999999999971
20
-94.8659999999999997
11
52.4996999999999971
21
-97.4099999999999966
0
LINE
8
LYELLOW
6
CONTINUOUS
10
52.4996999999999971
20
-99.4899999999999949
11
52.4996999999999971
21
-102.0339999999999918
0
LINE
8
LYELLOW
6
CONTINUOUS
10
52.5396999999999963
20
-94.887999999999991
11
52.5396999999999963
21
-97.4099999999999966
0
LINE
8
LYELLOW
6
CONTINUOUS
10
52.5396999999999963
20
-99.4899999999999949
11
52.5396999999999963
21
-102.0120000000000005
0
LINE
8
LYELLOW
6
CONTINUOUS
10
52.5796999999999954
20
-94.9110000000000014
11
52.5796999999999954
21
-97.4099999999999966
0
LINE
8
LYELLOW
6
CONTINUOUS
10
52.5796999999999954
20
-99.4899999999999949
11
52.5796999999999954
21
-101.9889999999999901
0
LINE
8
LYELLOW
6
CONTINUOUS
10
52.6196999999999946
20
-94.9339999999999975
11
52.6196999999999946
21
-97.4099999999999966
0
LINE
8
LYELLOW
6
CONTINUOUS
10
52.6196999999999946
20
-99.4899999999999949
11
52.6196999999999946
21
-101.965999999999994
0
LINE
8
LYELLOW
6
CONTINUOUS
10
52.6597000000000008
20
-94.9569999999999936
11
52.6597000000000008
21
-97.4099999999999966
0
LINE
8
LYELLOW
6
CONTINUOUS
10
52.6597000000000008
20
-99.4899999999999949
11
52.6597000000000008
21
-101.9429999999999978
0
LINE
8
LYELLOW
6
CONTINUOUS
10
52.6997
20
-94.9819999999999993
11
52.6997
21
-97.4099999999999966
0
LINE
8
LYELLOW
6
CONTINUOUS
10
52.6997
20
-99.4899999999999949
11
52.6997
21
-101.9179999999999922
0
LINE
8
LYELLOW
6
CONTINUOUS
10
52.7396999999999991
20
-95.0069999999999908
11
52.7396999999999991
21
-97.4099999999999966
0
LINE
8
LYELLOW
6
CONTINUOUS
10
52.7396999999999991
20
-99.4899999999999949
11
52.7396999999999991
21
-101.8930000000000007
0
LINE
8
LYELLOW
6
CONTINUOUS
10
52.7796999999999983
20
-95.0319999999999965
11
52.7796999999999983
21
-97.4099999999999966
0
LINE
8
LYELLOW
6
CONTINUOUS
10
52.7796999999999983
20
-99.4899999999999949
11
52.7796999999999983
21
-101.867999999999995
0
LINE
8
LYELLOW
6
CONTINUOUS
10
52.8196999999999974
20
-95.0579999999999927
11
52.8196999999999974
21
-97.4099999999999966
0
LINE
8
LYELLOW
6
CONTINUOUS
10
52.8196999999999974
20
-99.4899999999999949
11
52.8196999999999974
21
-101.8419999999999987
0
LINE
8
LYELLOW
6
CONTINUOUS
10
52.8596999999999966
20
-95.0849999999999937
11
52.8596999999999966
21
-97.4099999999999966
0
LINE
8
LYELLOW
6
CONTINUOUS
10
52.8596999999999966
20
-99.4899999999999949
11
52.8596999999999966
21
-101.8149999999999977
0
LINE
8
LYELLOW
6
CONTINUOUS
10
52.8996999999999957
20
-95.1129999999999995
11
52.8996999999999957
21
-97.4099999999999966
0
LINE
8
LYELLOW
6
CONTINUOUS
10
52.8996999999999957
20
-99.4899999999999949
11
52.8996999999999957
21
-101.7869999999999919
0
LINE
8
LYELLOW
6
CONTINUOUS
10
52.9396999999999949
20
-95.1409999999999911
11
52.9396999999999949
21
-97.4099999999999966
0
LINE
8
LYELLOW
6
CONTINUOUS
10
52.9396999999999949
20
-99.4899999999999949
11
52.9396999999999949
21
-101.7590000000000003
0
LINE
8
LYELLOW
6
CONTINUOUS
10
52.9797000000000011
20
-95.1700000000000017
11
52.9797000000000011
21
-97.4099999999999966
0
LINE
8
LYELLOW
6
CONTINUOUS
10
52.9797000000000011
20
-99.4899999999999949
11
52.9797000000000011
21
-101.7299999999999898
0
LINE
8
LYELLOW
6
CONTINUOUS
10
53.0197000000000003
20
-95.1999999999999886
11
53.0197000000000003
21
-97.4099999999999966
0
LINE
8
LYELLOW
6
CONTINUOUS
10
53.0197000000000003
20
-99.4899999999999949
11
53.0197000000000003
21
-101.6999999999999886
0
LINE
8
LYELLOW
6
CONTINUOUS
10
53.0596999999999994
20
-95.2309999999999945
11
53.0596999999999994
21
-97.4099999999999966
0
LINE
8
LYELLOW
6
CONTINUOUS
10
53.0596999999999994
20
-99.4899999999999949
11
53.0596999999999994
21
-101.6689999999999969
0
LINE
8
LYELLOW
6
CONTINUOUS
10
53.0996999999999986
20
-95.2620000000000005
11
53.0996999999999986
21
-97.4099999999999966
0
LINE
8
LYELLOW
6
CONTINUOUS
10
53.0996999999999986
20
-99.4899999999999949
11
53.0996999999999986
21
-101.637999999999991
0
LINE
8
LYELLOW
6
CONTINUOUS
10
53.1396999999999977
20
-95.2939999999999969
11
53.1396999999999977
21
-97.4099999999999966
0
LINE
8
LYELLOW
6
CONTINUOUS
10
53.1396999999999977
20
-99.4899999999999949
11
53.1396999999999977
21
-101.6059999999999945
0
LINE
8
LYELLOW
6
CONTINUOUS
10
53.1796999999999969
20
-95.3269999999999982
11
53.1796999999999969
21
-97.4099999999999966
0
LINE
8
LYELLOW
6
CONTINUOUS
10
53.1796999999999969
20
-99.4899999999999949
11
53.1796999999999969
21
-101.5729999999999933
0
LINE
8
LYELLOW
6
CONTINUOUS
10
53.219699999999996
20
-95.36099999999999
11
53.219699999999996
21
-97.4099999999999966
0
LINE
8
LYELLOW
6
CONTINUOUS
10
53.219699999999996
20
-99.4899999999999949
11
53.219699999999996
21
-101.5390000000000015
0
LINE
8
LYELLOW
6
CONTINUOUS
10
53.2596999999999952
20
-95.394999999999996
11
53.2596999999999952
21
-97.4099999999999966
0
LINE
8
LYELLOW
6
CONTINUOUS
10
53.2596999999999952
20
-99.4899999999999949
11
53.2596999999999952
21
-101.5049999999999955
0
LINE
8
LYELLOW
6
CONTINUOUS
10
53.2996999999999943
20
-95.4309999999999974
11
53.2996999999999943
21
-97.4099999999999966
0
LINE
8
LYELLOW
6
CONTINUOUS
10
53.2996999999999943
20
-99.4899999999999949
11
53.2996999999999943
21
-101.4689999999999941
0
LINE
8
LYELLOW
6
CONTINUOUS
10
53.3397000000000006
20
-95.4679999999999893
11
53.3397000000000006
21
-101.4320000000000022
0
LINE
8
LYELLOW
6
CONTINUOUS
10
53.3796999999999997
20
-95.5049999999999955
11
53.3796999999999997
21
-101.394999999999996
0
LINE
8
LYELLOW
6
CONTINUOUS
10
53.4196999999999989
20
-95.5439999999999969
11
53.4196999999999989
21
-101.3559999999999945
0
LINE
8
LYELLOW
6
CONTINUOUS
10
53.459699999999998
20
-95.5829999999999984
11
53.459699999999998
21
-101.3169999999999931
0
LINE
8
LYELLOW
6
CONTINUOUS
10
53.4996999999999971
20
-95.6239999999999952
11
53.4996999999999971
21
-101.2759999999999962
0
LINE
8
LYELLOW
6
CONTINUOUS
10
53.5396999999999963
20
-95.6659999999999968
11
53.5396999999999963
21
-101.2339999999999947
0
LINE
8
LYELLOW
6
CONTINUOUS
10
53.5796999999999954
20
-95.708999999999989
11
53.5796999999999954
21
-101.1910000000000025
0
LINE
8
LYELLOW
6
CONTINUOUS
10
53.6196999999999946
20
-95.7539999999999907
11
53.6196999999999946
21
-101.1460000000000008
0
LINE
8
LYELLOW
6
CONTINUOUS
10
53.6597000000000008
20
-95.7989999999999924
11
53.6597000000000008
21
-101.1009999999999991
0
LINE
8
LYELLOW
6
CONTINUOUS
10
53.6997
20
-95.8459999999999894
11
53.6997
21
-101.054000000000002
0
LINE
8
LYELLOW
6
CONTINUOUS
10
53.7396999999999991
20
-95.894999999999996
11
53.7396999999999991
21
-101.0049999999999955
0
LINE
8
LYELLOW
6
CONTINUOUS
10
53.7796999999999983
20
-95.9449999999999932
11
53.7796999999999983
21
-100.9549999999999983
0
LINE
8
LYELLOW
6
CONTINUOUS
10
53.8196999999999974
20
-95.9969999999999999
11
53.8196999999999974
21
-100.9029999999999916
0
LINE
8
LYELLOW
6
CONTINUOUS
10
53.8596999999999966
20
-96.0499999999999972
11
53.8596999999999966
21
-100.8499999999999943
0
LINE
8
LYELLOW
6
CONTINUOUS
10
53.8996999999999957
20
-96.1059999999999945
11
53.8996999999999957
21
-100.7939999999999969
0
LINE
8
LYELLOW
6
CONTINUOUS
10
53.9396999999999949
20
-96.1629999999999967
11
53.9396999999999949
21
-100.7369999999999948
0
LINE
8
LYELLOW
6
CONTINUOUS
10
53.979699999999994
20
-96.222999999999999
11
53.979699999999994
21
-100.6769999999999925
0
LINE
8
LYELLOW
6
CONTINUOUS
10
54.0197000000000003
20
-96.2849999999999966
11
54.0197000000000003
21
-100.6149999999999949
0
LINE
8
LYELLOW
6
CONTINUOUS
10
54.0596999999999994
20
-96.3489999999999895
11
54.0596999999999994
21
-100.5510000000000019
0
LINE
8
LYELLOW
6
CONTINUOUS
10
54.0996999999999986
20
-96.4159999999999968
11
54.0996999999999986
21
-100.4839999999999947
0
LINE
8
LYELLOW
6
CONTINUOUS
10
54.1396999999999977
20
-96.48599999999999
11
54.1396999999999977
21
-100.4140000000000015
0
LINE
8
LYELLOW
6
CONTINUOUS
10
54.1796999999999969
20
-96.5600000000000023
11
54.1796999999999969
21
-100.3399999999999892
0
LINE
8
LYELLOW
6
CONTINUOUS
10
54.219699999999996
20
-96.6370000000000005
11
54.219699999999996
21
-100.262999999999991
0
LINE
8
LYELLOW
6
CONTINUOUS
10
54.2596999999999952
20
-96.7189999999999941
11
54.2596999999999952
21
-100.1809999999999974
0
LINE
8
LYELLOW
6
CONTINUOUS
10
54.2996999999999943
20
-96.8059999999999974
11
54.2996999999999943
21
-100.0939999999999941
0
LINE
8
LYELLOW
6
CONTINUOUS
10
54.3397000000000006
20
-96.8979999999999961
11
54.3397000000000006
21
-100.0019999999999953
0
LINE
8
LYELLOW
6
CONTINUOUS
10
54.3796999999999997
20
-96.9969999999999999
11
54.3796999999999997
21
-99.9029999999999916
0
LINE
8
LYELLOW
6
CONTINUOUS
10
54.4196999999999989
20
-97.1039999999999992
11
54.4196999999999989
21
-99.7959999999999923
0
LINE
8
LYELLOW
6
CONTINUOUS
10
54.459699999999998
20
-97.2219999999999942
11
54.459699999999998
21
-99.6779999999999973
0
LINE
8
LYELLOW
6
CONTINUOUS
10
54.4996999999999971
20
-97.3529999999999944
11
54.4996999999999971
21
-99.546999999999997
0
LINE
8
LYELLOW
6
CONTINUOUS
10
54.5396999999999963
20
-97.5030000000000001
11
54.5396999999999963
21
-99.3969999999999914
0
LINE
8
LYELLOW
6
CONTINUOUS
10
54.5796999999999954
20
-97.6820000000000022
11
54.5796999999999954
21
-99.2179999999999893
0
LINE
8
LYELLOW
6
CONTINUOUS
10
54.6196999999999946
20
-97.9170000000000016
11
54.6196999999999946
21
-98.9829999999999899
0
CIRCLE
8
LYELLOW
10
50.5396999999999963
20
-98.4499999999999886
40
4.1200000000000001
0
LINE
8
LYELLOW
6
CONTINUOUS
10
33.6199999999999974
20
-44.0549999999999997
11
33.6199999999999974
21
-41.4050000000000011
0
LINE
8
LYELLOW
6
CONTINUOUS
10
36.3799999999999955
20
-41.4050000000000011
11
33.6199999999999974
21
-41.4050000000000011
0
LINE
8
LYELLOW
6
CONTINUOUS
10
36.3799999999999955
20
-44.0549999999999997
11
33.6199999999999974
21
-44.0549999999999997
0
LINE
8
LYELLOW
6
CONTINUOUS
10
36.3799999999999955
20
-44.0549999999999997
11
36.3799999999999955
21
-41.4050000000000011
0
LINE
8
LYELLOW
6
CONTINUOUS
10
36.3799999999999955
20
-45.3249999999999957
11
36.3799999999999955
21
-46.7049999999999983
0
LINE
8
LYELLOW
6
CONTINUOUS
10
36.3799999999999955
20
-46.7049999999999983
11
35.
21
-46.7049999999999983
0
LINE
8
LYELLOW
6
CONTINUOUS
10
48.5649999999999977
20
-66.2549999999999955
11
83.3049999999999926
21
-66.2549999999999955
0
LINE
8
LYELLOW
6
CONTINUOUS
10
83.3049999999999926
20
-66.2549999999999955
11
83.3049999999999926
21
-81.4949999999999903
0
LINE
8
LYELLOW
6
CONTINUOUS
10
83.3049999999999926
20
-81.4949999999999903
11
48.5649999999999977
21
-81.4949999999999903
0
LINE
8
LYELLOW
6
CONTINUOUS
10
48.5649999999999977
20
-81.4949999999999903
11
48.5649999999999977
21
-66.2549999999999955
0
LINE
8
LYELLOW
6
CONTINUOUS
10
76.979699999999994
20
-97.0799999999999983
11
83.5197000000000003
21
-97.0799999999999983
0
LINE
8
LYELLOW
6
CONTINUOUS
10
76.979699999999994
20
-97.4099999999999966
11
76.979699999999994
21
-97.0799999999999983
0
LINE
8
LYELLOW
6
CONTINUOUS
10
76.979699999999994
20
-99.4899999999999949
11
76.979699999999994
21
-99.8199999999999932
0
LINE
8
LYELLOW
6
CONTINUOUS
10
76.979699999999994
20
-99.8199999999999932
11
83.5197000000000003
21
-99.8199999999999932
0
LINE
8
LYELLOW
6
CONTINUOUS
10
83.5197000000000003
20
-97.0799999999999983
11
83.5197000000000003
21
-97.4099999999999966
0
LINE
8
LYELLOW
6
CONTINUOUS
10
83.5197000000000003
20
-99.8199999999999932
11
83.5197000000000003
21
-99.4899999999999949
0
LINE
8
LYELLOW
6
CONTINUOUS
10
29.9199999999999982
20
-28.1899999999999977
11
29.9199999999999982
21
-35.8099999999999952
0
LINE
8
LYELLOW
6
CONTINUOUS
10
29.9199999999999982
20
-29.4599999999999973
11
40.0799999999999983
21
-29.4599999999999973
0
LINE
8
LYELLOW
6
CONTINUOUS
10
29.9199999999999982
20
-35.8099999999999952
11
40.0799999999999983
21
-35.8099999999999952
0
LINE
8
LYELLOW
6
CONTINUOUS
10
40.0799999999999983
20
-28.1899999999999977
11
29.9199999999999982
21
-28.1899999999999977
0
LINE
8
LYELLOW
6
CONTINUOUS
10
40.0799999999999983
20
-35.8099999999999952
11
40.0799999999999983
21
-28.1899999999999977
0
LINE
8
LYELLOW
6
CONTINUOUS
10
59.979699999999994
20
-96.1400000000000006
11
70.1996999999999929
21
-96.1400000000000006
0
LINE
8
LYELLOW
6
CONTINUOUS
10
59.979699999999994
20
-97.519999999999996
11
70.1996999999999929
21
-97.519999999999996
0
LINE
8
LYELLOW
6
CONTINUOUS
10
59.979699999999994
20
-100.7599999999999909
11
59.979699999999994
21
-96.1400000000000006
0
LINE
8
LYELLOW
6
CONTINUOUS
10
63.2396999999999991
20
-96.1400000000000006
11
63.2396999999999991
21
-97.519999999999996
0
LINE
8
LYELLOW
6
CONTINUOUS
10
66.939700000000002
20
-96.1400000000000006
11
66.939700000000002
21
-97.519999999999996
0
LINE
8
LYELLOW
6
CONTINUOUS
10
70.1996999999999929
20
-96.1400000000000006
11
70.1996999999999929
21
-100.7599999999999909
0
LINE
8
LYELLOW
6
CONTINUOUS
10
70.1996999999999929
20
-100.7599999999999909
11
59.979699999999994
21
-100.7599999999999909
0
LINE
8
LYELLOW
6
CONTINUOUS
10
32.115000000000002
20
-105.8799999999999955
11
38.6550000000000011
21
-105.8799999999999955
0
LINE
8
LYELLOW
6
CONTINUOUS
10
32.115000000000002
20
-106.2099999999999937
11
32.115000000000002
21
-105.8799999999999955
0
LINE
8
LYELLOW
6
CONTINUOUS
10
32.115000000000002
20
-108.289999999999992
11
32.115000000000002
21
-108.6199999999999903
0
LINE
8
LYELLOW
6
CONTINUOUS
10
32.115000000000002
20
-108.6199999999999903
11
38.6550000000000011
21
-108.6199999999999903
0
LINE
8
LYELLOW
6
CONTINUOUS
10
38.6550000000000011
20
-105.8799999999999955
11
38.6550000000000011
21
-106.2099999999999937
0
LINE
8
LYELLOW
6
CONTINUOUS
10
38.6550000000000011
20
-108.6199999999999903
11
38.6550000000000011
21
-108.289999999999992
0
LINE
8
LYELLOW
6
CONTINUOUS
10
103.9200000000000017
20
-28.1899999999999977
11
103.9200000000000017
21
-35.8099999999999952
0
LINE
8
LYELLOW
6
CONTINUOUS
10
103.9200000000000017
20
-35.8099999999999952
11
114.0799999999999983
21
-35.8099999999999952
0
LINE
8
LYELLOW
6
CONTINUOUS
10
114.0799999999999983
20
-28.1899999999999977
11
103.9200000000000017
21
-28.1899999999999977
0
LINE
8
LYELLOW
6
CONTINUOUS
10
114.0799999999999983
20
-34.5399999999999991
11
103.9200000000000017
21
-34.5399999999999991
0
LINE
8
LYELLOW
6
CONTINUOUS
10
114.0799999999999983
20
-35.8099999999999952
11
114.0799999999999983
21
-28.1899999999999977
0
LINE
8
WHITE
6
CONTINUOUS
10
20.
20
-20.
11
124.
21
-20.
0
LINE
8
WHITE
6
CONTINUOUS
10
124.
20
-20.
11
124.
21
-124.
0
LINE
8
WHITE
6
CONTINUOUS
10
124.
20
-124.
11
20.
21
-124.
0
LINE
8
WHITE
6
CONTINUOUS
10
20.
20
-124.
11
20.
21
-20.
  0
ENDSEC
  0
EOF
