  0
SECTION
  2
HEADER
  9
$ANGBASE
  50
0.0
  9
$ANGDIR
  70
1
  9
$MEASUREMENT
  70
1
  0
ENDSEC
  0
SECTION
  2
TABLES
  0
TABLE
  2
LTYPE
  70
4
  0
LTYPE
  5
40F
  2
CONTINUOUS
  70
0
  3
Solid line
  72
65
  73
0
  40
0.0
  0
LTYPE
  5
410
  2
DASHDOT
 70
0
  3
Dash Dot ____ _ ____ _
 72
65
 73
4
 40
2.0
 49
1.25
 49
-0.25
 49
0.25
 49
-0.25
  0
LTYPE
  5
411
  2
DASHED
 70
0
  3
Dashed __ __ __ __ __
 72
65
 73
2
 40
0.75
 49
0.5
 49
-0.25
  0
LTYPE
  5
43B
  2
DOTTED
 70
0
  3
Dotted .  .  .  .
 72
65
 73
2
 40
0.2
 49
0.0
 49
-0.2
  0
ENDTAB
  0
TABLE
  2
STYLE
  70
4
  0
STYLE
  2
KICAD
  70
0
  40
0
  41
1
  42
1
  50
0
  71
0
  3
isocp.shx
  0
STYLE
  2
KICADB
  70
0
  40
0
  41
1
  42
1
  50
0
  71
0
  3
isocp.shx
  0
STYLE
  2
KICADI
  70
0
  40
0
  41
1
  42
1
  50
15
  71
0
  3
isocp.shx
  0
STYLE
  2
KICADBI
  70
0
  40
0
  41
1
  42
1
  50
15
  71
0
  3
isocp.shx
  0
ENDTAB
  0
TABLE
  2
LAYER
  70
35
  0
LAYER
  2
BLACK
  70
0
  62
7
  6
CONTINUOUS
  0
LAYER
  2
GRAY1
  70
0
  62
251
  6
CONTINUOUS
  0
LAYER
  2
GRAY2
  70
0
  62
8
  6
CONTINUOUS
  0
LAYER
  2
GRAY3
  70
0
  62
9
  6
CONTINUOUS
  0
LAYER
  2
WHITE
  70
0
  62
7
  6
CONTINUOUS
  0
LAYER
  2
LYELLOW
  70
0
  62
51
  6
CONTINUOUS
  0
LAYER
  2
LORANGE
  70
0
  62
41
  6
CONTINUOUS
  0
LAYER
  2
BLUE1
  70
0
  62
178
  6
CONTINUOUS
  0
LAYER
  2
GREEN1
  70
0
  62
98
  6
CONTINUOUS
  0
LAYER
  2
CYAN1
  70
0
  62
138
  6
CONTINUOUS
  0
LAYER
  2
RED1
  70
0
  62
18
  6
CONTINUOUS
  0
LAYER
  2
MAGENTA1
  70
0
  62
228
  6
CONTINUOUS
  0
LAYER
  2
BROWN1
  70
0
  62
58
  6
CONTINUOUS
  0
LAYER
  2
ORANGE1
  70
0
  62
34
  6
CONTINUOUS
  0
LAYER
  2
BLUE2
  70
0
  62
5
  6
CONTINUOUS
  0
LAYER
  2
GREEN2
  70
0
  62
3
  6
CONTINUOUS
  0
LAYER
  2
CYAN2
  70
0
  62
4
  6
CONTINUOUS
  0
LAYER
  2
RED2
  70
0
  62
1
  6
CONTINUOUS
  0
LAYER
  2
MAGENTA2
  70
0
  62
6
  6
CONTINUOUS
  0
LAYER
  2
BROWN2
  70
0
  62
54
  6
CONTINUOUS
  0
LAYER
  2
ORANGE2
  70
0
  62
42
  6
CONTINUOUS
  0
LAYER
  2
BLUE3
  70
0
  62
171
  6
CONTINUOUS
  0
LAYER
  2
GREEN3
  70
0
  62
91
  6
CONTINUOUS
  0
LAYER
  2
CYAN3
  70
0
  62
131
  6
CONTINUOUS
  0
LAYER
  2
RED3
  70
0
  62
11
  6
CONTINUOUS
  0
LAYER
  2
MAGENTA3
  70
0
  62
221
  6
CONTINUOUS
  0
LAYER
  2
YELLOW3
  70
0
  62
2
  6
CONTINUOUS
  0
LAYER
  2
ORANGE3
  70
0
  62
32
  6
CONTINUOUS
  0
LAYER
  2
BLUE4
  70
0
  62
5
  6
CONTINUOUS
  0
LAYER
  2
GREEN4
  70
0
  62
3
  6
CONTINUOUS
  0
LAYER
  2
CYAN4
  70
0
  62
4
  6
CONTINUOUS
  0
LAYER
  2
RED4
  70
0
  62
1
  6
CONTINUOUS
  0
LAYER
  2
MAGENTA4
  70
0
  62
6
  6
CONTINUOUS
  0
LAYER
  2
YELLOW4
  70
0
  62
2
  6
CONTINUOUS
  0
LAYER
  2
ORANGE4
  70
0
  62
40
  6
CONTINUOUS
  0
ENDTAB
  0
ENDSEC
  0
SECTION
  2
ENTITIES
0
LINE
8
LYELLOW
6
CONTINUOUS
10
124.6966659999999933
20
-26.3748189999999987
11
124.6966659999999933
21
-27.089103999999999
0
LINE
8
LYELLOW
6
CONTINUOUS
10
124.6966659999999933
20
-27.089103999999999
11
124.6490469999999959
21
-27.2319609999999983
0
LINE
8
LYELLOW
6
CONTINUOUS
10
124.6490469999999959
20
-27.2319609999999983
11
124.5538090000000011
21
-27.3271999999999977
0
LINE
8
LYELLOW
6
CONTINUOUS
10
124.5538090000000011
20
-27.3271999999999977
11
124.4109519999999947
21
-27.3748189999999987
0
LINE
8
LYELLOW
6
CONTINUOUS
10
124.4109519999999947
20
-27.3748189999999987
11
124.3157139999999998
21
-27.3748189999999987
0
LINE
8
LYELLOW
6
CONTINUOUS
10
125.125237999999996
20
-26.4700569999999971
11
125.1728569999999934
21
-26.4224379999999996
0
LINE
8
LYELLOW
6
CONTINUOUS
10
125.1728569999999934
20
-26.4224379999999996
11
125.2680949999999882
21
-26.3748189999999987
0
LINE
8
LYELLOW
6
CONTINUOUS
10
125.2680949999999882
20
-26.3748189999999987
11
125.5061899999999895
21
-26.3748189999999987
0
LINE
8
LYELLOW
6
CONTINUOUS
10
125.5061899999999895
20
-26.3748189999999987
11
125.6014279999999985
21
-26.4224379999999996
0
LINE
8
LYELLOW
6
CONTINUOUS
10
125.6014279999999985
20
-26.4224379999999996
11
125.6490469999999959
21
-26.4700569999999971
0
LINE
8
LYELLOW
6
CONTINUOUS
10
125.6490469999999959
20
-26.4700569999999971
11
125.6966659999999933
21
-26.565294999999999
0
LINE
8
LYELLOW
6
CONTINUOUS
10
125.6966659999999933
20
-26.565294999999999
11
125.6966659999999933
21
-26.6605329999999974
0
LINE
8
LYELLOW
6
CONTINUOUS
10
125.6966659999999933
20
-26.6605329999999974
11
125.6490469999999959
21
-26.8033900000000003
0
LINE
8
LYELLOW
6
CONTINUOUS
10
125.6490469999999959
20
-26.8033900000000003
11
125.0776189999999986
21
-27.3748189999999987
0
LINE
8
LYELLOW
6
CONTINUOUS
10
125.0776189999999986
20
-27.3748189999999987
11
125.6966659999999933
21
-27.3748189999999987
0
LINE
8
LYELLOW
6
CONTINUOUS
10
58.716904999999997
20
-35.7598190000000002
11
58.716904999999997
21
-34.7598190000000002
0
LINE
8
LYELLOW
6
CONTINUOUS
10
58.716904999999997
20
-34.7598190000000002
11
58.9549999999999983
21
-34.7598190000000002
0
LINE
8
LYELLOW
6
CONTINUOUS
10
58.9549999999999983
20
-34.7598190000000002
11
59.0978569999999976
21
-34.8074379999999977
0
LINE
8
LYELLOW
6
CONTINUOUS
10
59.0978569999999976
20
-34.8074379999999977
11
59.1930949999999996
21
-34.9026759999999996
0
LINE
8
LYELLOW
6
CONTINUOUS
10
59.1930949999999996
20
-34.9026759999999996
11
59.240713999999997
21
-34.9979140000000015
0
LINE
8
LYELLOW
6
CONTINUOUS
10
59.240713999999997
20
-34.9979140000000015
11
59.2883329999999944
21
-35.1883899999999983
0
LINE
8
LYELLOW
6
CONTINUOUS
10
59.2883329999999944
20
-35.1883899999999983
11
59.2883329999999944
21
-35.3312469999999976
0
LINE
8
LYELLOW
6
CONTINUOUS
10
59.2883329999999944
20
-35.3312469999999976
11
59.240713999999997
21
-35.5217230000000015
0
LINE
8
LYELLOW
6
CONTINUOUS
10
59.240713999999997
20
-35.5217230000000015
11
59.1930949999999996
21
-35.6169609999999963
0
LINE
8
LYELLOW
6
CONTINUOUS
10
59.1930949999999996
20
-35.6169609999999963
11
59.0978569999999976
21
-35.7121999999999957
0
LINE
8
LYELLOW
6
CONTINUOUS
10
59.0978569999999976
20
-35.7121999999999957
11
58.9549999999999983
21
-35.7598190000000002
0
LINE
8
LYELLOW
6
CONTINUOUS
10
58.9549999999999983
20
-35.7598190000000002
11
58.716904999999997
21
-35.7598190000000002
0
LINE
8
LYELLOW
6
CONTINUOUS
10
60.240713999999997
20
-35.7598190000000002
11
59.6692859999999996
21
-35.7598190000000002
0
LINE
8
LYELLOW
6
CONTINUOUS
10
59.9549999999999983
20
-35.7598190000000002
11
59.9549999999999983
21
-34.7598190000000002
0
LINE
8
LYELLOW
6
CONTINUOUS
10
59.9549999999999983
20
-34.7598190000000002
11
59.8597619999999964
21
-34.9026759999999996
0
LINE
8
LYELLOW
6
CONTINUOUS
10
59.8597619999999964
20
-34.9026759999999996
11
59.7645239999999944
21
-34.9979140000000015
0
LINE
8
LYELLOW
6
CONTINUOUS
10
59.7645239999999944
20
-34.9979140000000015
11
59.6692859999999996
21
-35.0455329999999989
0
LINE
8
LYELLOW
6
CONTINUOUS
10
54.1130949999999942
20
-36.1298189999999977
11
54.1130949999999942
21
-35.1298189999999977
0
LINE
8
LYELLOW
6
CONTINUOUS
10
54.6845229999999987
20
-36.1298189999999977
11
54.2559520000000006
21
-35.5583899999999957
0
LINE
8
LYELLOW
6
CONTINUOUS
10
54.6845229999999987
20
-35.1298189999999977
11
54.1130949999999942
21
-35.7012469999999951
0
LINE
8
LYELLOW
6
CONTINUOUS
10
124.6966659999999933
20
-41.8498189999999965
11
124.6966659999999933
21
-42.5641040000000004
0
LINE
8
LYELLOW
6
CONTINUOUS
10
124.6966659999999933
20
-42.5641040000000004
11
124.6490469999999959
21
-42.7069609999999997
0
LINE
8
LYELLOW
6
CONTINUOUS
10
124.6490469999999959
20
-42.7069609999999997
11
124.5538090000000011
21
-42.8021999999999991
0
LINE
8
LYELLOW
6
CONTINUOUS
10
124.5538090000000011
20
-42.8021999999999991
11
124.4109519999999947
21
-42.8498189999999965
0
LINE
8
LYELLOW
6
CONTINUOUS
10
124.4109519999999947
20
-42.8498189999999965
11
124.3157139999999998
21
-42.8498189999999965
0
LINE
8
LYELLOW
6
CONTINUOUS
10
125.6014279999999985
20
-42.1831519999999998
11
125.6014279999999985
21
-42.8498189999999965
0
LINE
8
LYELLOW
6
CONTINUOUS
10
125.3633329999999972
20
-41.8021999999999991
11
125.125237999999996
21
-42.5164849999999959
0
LINE
8
LYELLOW
6
CONTINUOUS
10
125.125237999999996
20
-42.5164849999999959
11
125.7442849999999908
21
-42.5164849999999959
0
LINE
8
LYELLOW
6
CONTINUOUS
10
57.3030329999999992
20
-47.4345799999999969
11
57.2554139999999947
21
-47.4821999999999989
0
LINE
8
LYELLOW
6
CONTINUOUS
10
57.2554139999999947
20
-47.4821999999999989
11
57.1125569999999954
21
-47.5298189999999963
0
LINE
8
LYELLOW
6
CONTINUOUS
10
57.1125569999999954
20
-47.5298189999999963
11
57.0173190000000005
21
-47.5298189999999963
0
LINE
8
LYELLOW
6
CONTINUOUS
10
57.0173190000000005
20
-47.5298189999999963
11
56.8744619999999941
21
-47.4821999999999989
0
LINE
8
LYELLOW
6
CONTINUOUS
10
56.8744619999999941
20
-47.4821999999999989
11
56.7792239999999993
21
-47.3869609999999994
0
LINE
8
LYELLOW
6
CONTINUOUS
10
56.7792239999999993
20
-47.3869609999999994
11
56.7316049999999947
21
-47.2917229999999975
0
LINE
8
LYELLOW
6
CONTINUOUS
10
56.7316049999999947
20
-47.2917229999999975
11
56.6839859999999973
21
-47.1012470000000008
0
LINE
8
LYELLOW
6
CONTINUOUS
10
56.6839859999999973
20
-47.1012470000000008
11
56.6839859999999973
21
-46.9583900000000014
0
LINE
8
LYELLOW
6
CONTINUOUS
10
56.6839859999999973
20
-46.9583900000000014
11
56.7316049999999947
21
-46.7679139999999975
0
LINE
8
LYELLOW
6
CONTINUOUS
10
56.7316049999999947
20
-46.7679139999999975
11
56.7792239999999993
21
-46.6726759999999956
0
LINE
8
LYELLOW
6
CONTINUOUS
10
56.7792239999999993
20
-46.6726759999999956
11
56.8744619999999941
21
-46.5774380000000008
0
LINE
8
LYELLOW
6
CONTINUOUS
10
56.8744619999999941
20
-46.5774380000000008
11
57.0173190000000005
21
-46.5298189999999963
0
LINE
8
LYELLOW
6
CONTINUOUS
10
57.0173190000000005
20
-46.5298189999999963
11
57.1125569999999954
21
-46.5298189999999963
0
LINE
8
LYELLOW
6
CONTINUOUS
10
57.1125569999999954
20
-46.5298189999999963
11
57.2554139999999947
21
-46.5774380000000008
0
LINE
8
LYELLOW
6
CONTINUOUS
10
57.2554139999999947
20
-46.5774380000000008
11
57.3030329999999992
21
-46.6250569999999982
0
LINE
8
LYELLOW
6
CONTINUOUS
10
58.2554139999999947
20
-47.5298189999999963
11
57.6839859999999973
21
-47.5298189999999963
0
LINE
8
LYELLOW
6
CONTINUOUS
10
57.969699999999996
20
-47.5298189999999963
11
57.969699999999996
21
-46.5298189999999963
0
LINE
8
LYELLOW
6
CONTINUOUS
10
57.969699999999996
20
-46.5298189999999963
11
57.8744619999999941
21
-46.6726759999999956
0
LINE
8
LYELLOW
6
CONTINUOUS
10
57.8744619999999941
20
-46.6726759999999956
11
57.7792239999999993
21
-46.7679139999999975
0
LINE
8
LYELLOW
6
CONTINUOUS
10
57.7792239999999993
20
-46.7679139999999975
11
57.6839859999999973
21
-46.815532999999995
0
LINE
8
LYELLOW
6
CONTINUOUS
10
57.7183329999999941
20
-61.209818999999996
11
57.384999999999998
21
-60.733627999999996
0
LINE
8
LYELLOW
6
CONTINUOUS
10
57.1469049999999967
20
-61.209818999999996
11
57.1469049999999967
21
-60.209818999999996
0
LINE
8
LYELLOW
6
CONTINUOUS
10
57.1469049999999967
20
-60.209818999999996
11
57.5278569999999974
21
-60.209818999999996
0
LINE
8
LYELLOW
6
CONTINUOUS
10
57.5278569999999974
20
-60.209818999999996
11
57.6230949999999993
21
-60.2574380000000005
0
LINE
8
LYELLOW
6
CONTINUOUS
10
57.6230949999999993
20
-60.2574380000000005
11
57.6707139999999967
21
-60.3050569999999979
0
LINE
8
LYELLOW
6
CONTINUOUS
10
57.6707139999999967
20
-60.3050569999999979
11
57.7183329999999941
21
-60.4002949999999998
0
LINE
8
LYELLOW
6
CONTINUOUS
10
57.7183329999999941
20
-60.4002949999999998
11
57.7183329999999941
21
-60.5431519999999992
0
LINE
8
LYELLOW
6
CONTINUOUS
10
57.7183329999999941
20
-60.5431519999999992
11
57.6707139999999967
21
-60.638389999999994
0
LINE
8
LYELLOW
6
CONTINUOUS
10
57.6707139999999967
20
-60.638389999999994
11
57.6230949999999993
21
-60.6860089999999985
0
LINE
8
LYELLOW
6
CONTINUOUS
10
57.6230949999999993
20
-60.6860089999999985
11
57.5278569999999974
21
-60.733627999999996
0
LINE
8
LYELLOW
6
CONTINUOUS
10
57.5278569999999974
20
-60.733627999999996
11
57.1469049999999967
21
-60.733627999999996
0
LINE
8
LYELLOW
6
CONTINUOUS
10
58.0992859999999993
20
-60.3050569999999979
11
58.1469049999999967
21
-60.2574380000000005
0
LINE
8
LYELLOW
6
CONTINUOUS
10
58.1469049999999967
20
-60.2574380000000005
11
58.2421429999999987
21
-60.209818999999996
0
LINE
8
LYELLOW
6
CONTINUOUS
10
58.2421429999999987
20
-60.209818999999996
11
58.4802379999999999
21
-60.209818999999996
0
LINE
8
LYELLOW
6
CONTINUOUS
10
58.4802379999999999
20
-60.209818999999996
11
58.5754759999999948
21
-60.2574380000000005
0
LINE
8
LYELLOW
6
CONTINUOUS
10
58.5754759999999948
20
-60.2574380000000005
11
58.6230949999999993
21
-60.3050569999999979
0
LINE
8
LYELLOW
6
CONTINUOUS
10
58.6230949999999993
20
-60.3050569999999979
11
58.6707139999999967
21
-60.4002949999999998
0
LINE
8
LYELLOW
6
CONTINUOUS
10
58.6707139999999967
20
-60.4002949999999998
11
58.6707139999999967
21
-60.4955329999999947
0
LINE
8
LYELLOW
6
CONTINUOUS
10
58.6707139999999967
20
-60.4955329999999947
11
58.6230949999999993
21
-60.638389999999994
0
LINE
8
LYELLOW
6
CONTINUOUS
10
58.6230949999999993
20
-60.638389999999994
11
58.0516669999999948
21
-61.209818999999996
0
LINE
8
LYELLOW
6
CONTINUOUS
10
58.0516669999999948
20
-61.209818999999996
11
58.6707139999999967
21
-61.209818999999996
0
LINE
8
LYELLOW
6
CONTINUOUS
10
74.2101759999999899
20
-49.6298189999999977
11
74.2101759999999899
21
-48.6298189999999977
0
LINE
8
LYELLOW
6
CONTINUOUS
10
74.2101759999999899
20
-48.6298189999999977
11
74.5435090000000002
21
-49.3441039999999944
0
LINE
8
LYELLOW
6
CONTINUOUS
10
74.5435090000000002
20
-49.3441039999999944
11
74.8768419999999963
21
-48.6298189999999977
0
LINE
8
LYELLOW
6
CONTINUOUS
10
74.8768419999999963
20
-48.6298189999999977
11
74.8768419999999963
21
-49.6298189999999977
0
LINE
8
LYELLOW
6
CONTINUOUS
10
75.8768419999999963
20
-49.6298189999999977
11
75.305413999999999
21
-49.6298189999999977
0
LINE
8
LYELLOW
6
CONTINUOUS
10
75.5911279999999977
20
-49.6298189999999977
11
75.5911279999999977
21
-48.6298189999999977
0
LINE
8
LYELLOW
6
CONTINUOUS
10
75.5911279999999977
20
-48.6298189999999977
11
75.4958900000000028
21
-48.772675999999997
0
LINE
8
LYELLOW
6
CONTINUOUS
10
75.4958900000000028
20
-48.772675999999997
11
75.4006519999999938
21
-48.867913999999999
0
LINE
8
LYELLOW
6
CONTINUOUS
10
75.4006519999999938
20
-48.867913999999999
11
75.305413999999999
21
-48.9155329999999964
0
LINE
8
LYELLOW
6
CONTINUOUS
10
96.9830949999999916
20
-32.3598190000000017
11
96.9830949999999916
21
-33.1693420000000003
0
LINE
8
LYELLOW
6
CONTINUOUS
10
96.9830949999999916
20
-33.1693420000000003
11
97.030713999999989
21
-33.2645799999999952
0
LINE
8
LYELLOW
6
CONTINUOUS
10
97.030713999999989
20
-33.2645799999999952
11
97.0783330000000007
21
-33.3121999999999971
0
LINE
8
LYELLOW
6
CONTINUOUS
10
97.0783330000000007
20
-33.3121999999999971
11
97.1735709999999955
21
-33.3598190000000017
0
LINE
8
LYELLOW
6
CONTINUOUS
10
97.1735709999999955
20
-33.3598190000000017
11
97.3640469999999993
21
-33.3598190000000017
0
LINE
8
LYELLOW
6
CONTINUOUS
10
97.3640469999999993
20
-33.3598190000000017
11
97.4592849999999942
21
-33.3121999999999971
0
LINE
8
LYELLOW
6
CONTINUOUS
10
97.4592849999999942
20
-33.3121999999999971
11
97.5069039999999916
21
-33.2645799999999952
0
LINE
8
LYELLOW
6
CONTINUOUS
10
97.5069039999999916
20
-33.2645799999999952
11
97.554522999999989
21
-33.1693420000000003
0
LINE
8
LYELLOW
6
CONTINUOUS
10
97.554522999999989
20
-33.1693420000000003
11
97.554522999999989
21
-32.3598190000000017
0
LINE
8
LYELLOW
6
CONTINUOUS
10
98.554522999999989
20
-33.3598190000000017
11
97.9830949999999916
21
-33.3598190000000017
0
LINE
8
LYELLOW
6
CONTINUOUS
10
98.2688089999999903
20
-33.3598190000000017
11
98.2688089999999903
21
-32.3598190000000017
0
LINE
8
LYELLOW
6
CONTINUOUS
10
98.2688089999999903
20
-32.3598190000000017
11
98.1735709999999955
21
-32.502676000000001
0
LINE
8
LYELLOW
6
CONTINUOUS
10
98.1735709999999955
20
-32.502676000000001
11
98.0783330000000007
21
-32.5979139999999958
0
LINE
8
LYELLOW
6
CONTINUOUS
10
98.0783330000000007
20
-32.5979139999999958
11
97.9830949999999916
21
-32.6455330000000004
0
LINE
8
LYELLOW
6
CONTINUOUS
10
34.6666659999999993
20
-49.1598189999999988
11
34.6666659999999993
21
-49.8741039999999956
0
LINE
8
LYELLOW
6
CONTINUOUS
10
34.6666659999999993
20
-49.8741039999999956
11
34.6190470000000019
21
-50.0169609999999949
0
LINE
8
LYELLOW
6
CONTINUOUS
10
34.6190470000000019
20
-50.0169609999999949
11
34.523809
21
-50.1121999999999943
0
LINE
8
LYELLOW
6
CONTINUOUS
10
34.523809
20
-50.1121999999999943
11
34.3809520000000006
21
-50.1598189999999988
0
LINE
8
LYELLOW
6
CONTINUOUS
10
34.3809520000000006
20
-50.1598189999999988
11
34.2857139999999987
21
-50.1598189999999988
0
LINE
8
LYELLOW
6
CONTINUOUS
10
35.0476189999999974
20
-49.1598189999999988
11
35.6666659999999993
21
-49.1598189999999988
0
LINE
8
LYELLOW
6
CONTINUOUS
10
35.6666659999999993
20
-49.1598189999999988
11
35.3333329999999961
21
-49.5407709999999994
0
LINE
8
LYELLOW
6
CONTINUOUS
10
35.3333329999999961
20
-49.5407709999999994
11
35.4761899999999955
21
-49.5407709999999994
0
LINE
8
LYELLOW
6
CONTINUOUS
10
35.4761899999999955
20
-49.5407709999999994
11
35.5714279999999974
21
-49.5883899999999969
0
LINE
8
LYELLOW
6
CONTINUOUS
10
35.5714279999999974
20
-49.5883899999999969
11
35.6190470000000019
21
-49.6360089999999943
0
LINE
8
LYELLOW
6
CONTINUOUS
10
35.6190470000000019
20
-49.6360089999999943
11
35.6666659999999993
21
-49.7312469999999962
0
LINE
8
LYELLOW
6
CONTINUOUS
10
35.6666659999999993
20
-49.7312469999999962
11
35.6666659999999993
21
-49.9693419999999975
0
LINE
8
LYELLOW
6
CONTINUOUS
10
35.6666659999999993
20
-49.9693419999999975
11
35.6190470000000019
21
-50.0645799999999994
0
LINE
8
LYELLOW
6
CONTINUOUS
10
35.6190470000000019
20
-50.0645799999999994
11
35.5714279999999974
21
-50.1121999999999943
0
LINE
8
LYELLOW
6
CONTINUOUS
10
35.5714279999999974
20
-50.1121999999999943
11
35.4761899999999955
21
-50.1598189999999988
0
LINE
8
LYELLOW
6
CONTINUOUS
10
35.4761899999999955
20
-50.1598189999999988
11
35.1904759999999968
21
-50.1598189999999988
0
LINE
8
LYELLOW
6
CONTINUOUS
10
35.1904759999999968
20
-50.1598189999999988
11
35.0952380000000019
21
-50.1121999999999943
0
LINE
8
LYELLOW
6
CONTINUOUS
10
35.0952380000000019
20
-50.1121999999999943
11
35.0476189999999974
21
-50.0645799999999994
0
LINE
8
LYELLOW
6
CONTINUOUS
10
79.0183329999999984
20
-31.9798189999999991
11
78.5421429999999958
21
-31.9798189999999991
0
LINE
8
LYELLOW
6
CONTINUOUS
10
78.5421429999999958
20
-31.9798189999999991
11
78.5421429999999958
21
-30.9798189999999991
0
LINE
8
LYELLOW
6
CONTINUOUS
10
79.8754759999999919
20
-31.9798189999999991
11
79.3040479999999945
21
-31.9798189999999991
0
LINE
8
LYELLOW
6
CONTINUOUS
10
79.5897619999999932
20
-31.9798189999999991
11
79.5897619999999932
21
-30.9798189999999991
0
LINE
8
LYELLOW
6
CONTINUOUS
10
79.5897619999999932
20
-30.9798189999999991
11
79.4945239999999984
21
-31.1226759999999985
0
LINE
8
LYELLOW
6
CONTINUOUS
10
79.4945239999999984
20
-31.1226759999999985
11
79.3992859999999894
21
-31.2179139999999968
0
LINE
8
LYELLOW
6
CONTINUOUS
10
79.3992859999999894
20
-31.2179139999999968
11
79.3040479999999945
21
-31.2655329999999978
0
LINE
8
LYELLOW
6
CONTINUOUS
10
93.013032999999993
20
-50.4098189999999988
11
92.6796999999999969
21
-49.9336279999999988
0
LINE
8
LYELLOW
6
CONTINUOUS
10
92.4416049999999956
20
-50.4098189999999988
11
92.4416049999999956
21
-49.4098189999999988
0
LINE
8
LYELLOW
6
CONTINUOUS
10
92.4416049999999956
20
-49.4098189999999988
11
92.8225569999999891
21
-49.4098189999999988
0
LINE
8
LYELLOW
6
CONTINUOUS
10
92.8225569999999891
20
-49.4098189999999988
11
92.9177949999999981
21
-49.4574379999999962
0
LINE
8
LYELLOW
6
CONTINUOUS
10
92.9177949999999981
20
-49.4574379999999962
11
92.9654139999999956
21
-49.5050570000000008
0
LINE
8
LYELLOW
6
CONTINUOUS
10
92.9654139999999956
20
-49.5050570000000008
11
93.013032999999993
21
-49.6002949999999956
0
LINE
8
LYELLOW
6
CONTINUOUS
10
93.013032999999993
20
-49.6002949999999956
11
93.013032999999993
21
-49.7431519999999949
0
LINE
8
LYELLOW
6
CONTINUOUS
10
93.013032999999993
20
-49.7431519999999949
11
92.9654139999999956
21
-49.8383899999999969
0
LINE
8
LYELLOW
6
CONTINUOUS
10
92.9654139999999956
20
-49.8383899999999969
11
92.9177949999999981
21
-49.8860089999999943
0
LINE
8
LYELLOW
6
CONTINUOUS
10
92.9177949999999981
20
-49.8860089999999943
11
92.8225569999999891
21
-49.9336279999999988
0
LINE
8
LYELLOW
6
CONTINUOUS
10
92.8225569999999891
20
-49.9336279999999988
11
92.4416049999999956
21
-49.9336279999999988
0
LINE
8
LYELLOW
6
CONTINUOUS
10
93.9654139999999956
20
-50.4098189999999988
11
93.3939859999999982
21
-50.4098189999999988
0
LINE
8
LYELLOW
6
CONTINUOUS
10
93.6796999999999969
20
-50.4098189999999988
11
93.6796999999999969
21
-49.4098189999999988
0
LINE
8
LYELLOW
6
CONTINUOUS
10
93.6796999999999969
20
-49.4098189999999988
11
93.584462000000002
21
-49.5526759999999982
0
LINE
8
LYELLOW
6
CONTINUOUS
10
93.584462000000002
20
-49.5526759999999982
11
93.489223999999993
21
-49.6479140000000001
0
LINE
8
LYELLOW
6
CONTINUOUS
10
93.489223999999993
20
-49.6479140000000001
11
93.3939859999999982
21
-49.6955329999999975
0
LINE
8
LYELLOW
6
CONTINUOUS
10
34.6666659999999993
20
-36.5348189999999988
11
34.6666659999999993
21
-37.2491039999999956
0
LINE
8
LYELLOW
6
CONTINUOUS
10
34.6666659999999993
20
-37.2491039999999956
11
34.6190470000000019
21
-37.3919609999999949
0
LINE
8
LYELLOW
6
CONTINUOUS
10
34.6190470000000019
20
-37.3919609999999949
11
34.523809
21
-37.4872000000000014
0
LINE
8
LYELLOW
6
CONTINUOUS
10
34.523809
20
-37.4872000000000014
11
34.3809520000000006
21
-37.5348189999999988
0
LINE
8
LYELLOW
6
CONTINUOUS
10
34.3809520000000006
20
-37.5348189999999988
11
34.2857139999999987
21
-37.5348189999999988
0
LINE
8
LYELLOW
6
CONTINUOUS
10
35.6666659999999993
20
-37.5348189999999988
11
35.0952380000000019
21
-37.5348189999999988
0
LINE
8
LYELLOW
6
CONTINUOUS
10
35.3809520000000006
20
-37.5348189999999988
11
35.3809520000000006
21
-36.5348189999999988
0
LINE
8
LYELLOW
6
CONTINUOUS
10
35.3809520000000006
20
-36.5348189999999988
11
35.2857139999999987
21
-36.6776759999999982
0
LINE
8
LYELLOW
6
CONTINUOUS
10
35.2857139999999987
20
-36.6776759999999982
11
35.1904759999999968
21
-36.7729140000000001
0
LINE
8
LYELLOW
6
CONTINUOUS
10
35.1904759999999968
20
-36.7729140000000001
11
35.0952380000000019
21
-36.8205329999999975
0
LINE
8
LYELLOW
6
CONTINUOUS
10
119.9499999999999886
20
-28.1899999999999977
11
119.9499999999999886
21
-35.8099999999999952
0
LINE
8
LYELLOW
6
CONTINUOUS
10
119.9499999999999886
20
-35.8099999999999952
11
130.1099999999999852
21
-35.8099999999999952
0
LINE
8
LYELLOW
6
CONTINUOUS
10
130.1099999999999852
20
-28.1899999999999977
11
119.9499999999999886
21
-28.1899999999999977
0
LINE
8
LYELLOW
6
CONTINUOUS
10
130.1099999999999852
20
-34.5399999999999991
11
119.9499999999999886
21
-34.5399999999999991
0
LINE
8
LYELLOW
6
CONTINUOUS
10
130.1099999999999852
20
-35.8099999999999952
11
130.1099999999999852
21
-28.1899999999999977
0
LINE
8
LYELLOW
6
CONTINUOUS
10
55.7149999999999963
20
-37.7749999999999986
11
56.7349999999999994
21
-37.7749999999999986
0
LINE
8
LYELLOW
6
CONTINUOUS
10
57.5150000000000006
20
-36.3049999999999997
11
57.5150000000000006
21
-39.2449999999999974
0
LINE
8
LYELLOW
6
CONTINUOUS
10
57.634999999999998
20
-36.3049999999999997
11
57.634999999999998
21
-39.2449999999999974
0
LINE
8
LYELLOW
6
CONTINUOUS
10
57.7549999999999955
20
-36.3049999999999997
11
57.7549999999999955
21
-39.2449999999999974
0
LINE
8
LYELLOW
6
CONTINUOUS
10
63.1950000000000003
20
-37.7749999999999986
11
62.1749999999999972
21
-37.7749999999999986
0
LINE
8
LYELLOW
6
CONTINUOUS
10
56.7349999999999994
20
-36.3049999999999997
11
62.1749999999999972
21
-36.3049999999999997
0
LINE
8
LYELLOW
6
CONTINUOUS
10
62.1749999999999972
20
-36.3049999999999997
11
62.1749999999999972
21
-39.2449999999999974
0
LINE
8
LYELLOW
6
CONTINUOUS
10
62.1749999999999972
20
-39.2449999999999974
11
56.7349999999999994
21
-39.2449999999999974
0
LINE
8
LYELLOW
6
CONTINUOUS
10
56.7349999999999994
20
-39.2449999999999974
11
56.7349999999999994
21
-36.3049999999999997
0
LINE
8
LYELLOW
6
CONTINUOUS
10
123.6499999999999915
20
-43.394999999999996
11
125.0300000000000011
21
-43.394999999999996
0
LINE
8
LYELLOW
6
CONTINUOUS
10
123.6499999999999915
20
-44.7749999999999986
11
123.6499999999999915
21
-43.394999999999996
0
LINE
8
LYELLOW
6
CONTINUOUS
10
123.6499999999999915
20
-46.0449999999999946
11
123.6499999999999915
21
-48.6950000000000003
0
LINE
8
LYELLOW
6
CONTINUOUS
10
123.6499999999999915
20
-46.0449999999999946
11
126.4099999999999966
21
-46.0449999999999946
0
LINE
8
LYELLOW
6
CONTINUOUS
10
123.6499999999999915
20
-48.6950000000000003
11
126.4099999999999966
21
-48.6950000000000003
0
LINE
8
LYELLOW
6
CONTINUOUS
10
126.4099999999999966
20
-46.0449999999999946
11
126.4099999999999966
21
-48.6950000000000003
0
LINE
8
LYELLOW
6
CONTINUOUS
10
53.0600019999999972
20
-50.009999999999998
11
53.8600019999999944
21
-50.009999999999998
0
LINE
8
LYELLOW
6
CONTINUOUS
10
53.4600019999999958
20
-49.6099999999999994
11
53.4600019999999958
21
-50.4099999999999966
0
LINE
8
LYELLOW
6
CONTINUOUS
10
57.469699999999996
20
-48.2449999999999974
11
57.469699999999996
21
-56.404999999999994
0
LINE
8
LYELLOW
6
CONTINUOUS
10
57.5096999999999952
20
-48.2449999999999974
11
57.5096999999999952
21
-56.404999999999994
0
LINE
8
LYELLOW
6
CONTINUOUS
10
57.5496999999999943
20
-48.2459999999999951
11
57.5496999999999943
21
-56.4039999999999964
0
LINE
8
LYELLOW
6
CONTINUOUS
10
57.5897000000000006
20
-48.2469999999999999
11
57.5897000000000006
21
-56.4029999999999987
0
LINE
8
LYELLOW
6
CONTINUOUS
10
57.6296999999999997
20
-48.2479999999999976
11
57.6296999999999997
21
-56.4019999999999939
0
LINE
8
LYELLOW
6
CONTINUOUS
10
57.6696999999999989
20
-48.25
11
57.6696999999999989
21
-56.3999999999999986
0
LINE
8
LYELLOW
6
CONTINUOUS
10
57.709699999999998
20
-48.2519999999999953
11
57.709699999999998
21
-56.3979999999999961
0
LINE
8
LYELLOW
6
CONTINUOUS
10
57.7496999999999971
20
-48.2549999999999955
11
57.7496999999999971
21
-56.394999999999996
0
LINE
8
LYELLOW
6
CONTINUOUS
10
57.7896999999999963
20
-48.2569999999999979
11
57.7896999999999963
21
-56.3930000000000007
0
LINE
8
LYELLOW
6
CONTINUOUS
10
57.8296999999999954
20
-48.2609999999999957
11
57.8296999999999954
21
-56.3889999999999958
0
LINE
8
LYELLOW
6
CONTINUOUS
10
57.8696999999999946
20
-48.2639999999999958
11
57.8696999999999946
21
-56.3859999999999957
0
LINE
8
LYELLOW
6
CONTINUOUS
10
57.9097000000000008
20
-48.2689999999999984
11
57.9097000000000008
21
-56.3810000000000002
0
LINE
8
LYELLOW
6
CONTINUOUS
10
57.9497
20
-48.2729999999999961
11
57.9497
21
-56.3769999999999953
0
LINE
8
LYELLOW
6
CONTINUOUS
10
57.9896999999999991
20
-48.2779999999999987
11
57.9896999999999991
21
-56.3719999999999999
0
LINE
8
LYELLOW
6
CONTINUOUS
10
58.0296999999999983
20
-48.2830000000000013
11
58.0296999999999983
21
-56.3669999999999973
0
LINE
8
LYELLOW
6
CONTINUOUS
10
58.0696999999999974
20
-48.2889999999999944
11
58.0696999999999974
21
-56.3609999999999971
0
LINE
8
LYELLOW
6
CONTINUOUS
10
58.1096999999999966
20
-48.2949999999999946
11
58.1096999999999966
21
-56.3549999999999969
0
LINE
8
LYELLOW
6
CONTINUOUS
10
58.1496999999999957
20
-48.3019999999999996
11
58.1496999999999957
21
-56.347999999999999
0
LINE
8
LYELLOW
6
CONTINUOUS
10
58.1896999999999949
20
-48.3079999999999998
11
58.1896999999999949
21
-51.2849999999999966
0
LINE
8
LYELLOW
6
CONTINUOUS
10
58.1896999999999949
20
-53.3649999999999949
11
58.1896999999999949
21
-56.3419999999999987
0
LINE
8
LYELLOW
6
CONTINUOUS
10
58.229699999999994
20
-48.3159999999999954
11
58.229699999999994
21
-51.2849999999999966
0
LINE
8
LYELLOW
6
CONTINUOUS
10
58.229699999999994
20
-53.3649999999999949
11
58.229699999999994
21
-56.3339999999999961
0
LINE
8
LYELLOW
6
CONTINUOUS
10
58.2697000000000003
20
-48.3230000000000004
11
58.2697000000000003
21
-51.2849999999999966
0
LINE
8
LYELLOW
6
CONTINUOUS
10
58.2697000000000003
20
-53.3649999999999949
11
58.2697000000000003
21
-56.3269999999999982
0
LINE
8
LYELLOW
6
CONTINUOUS
10
58.3096999999999994
20
-48.3320000000000007
11
58.3096999999999994
21
-51.2849999999999966
0
LINE
8
LYELLOW
6
CONTINUOUS
10
58.3096999999999994
20
-53.3649999999999949
11
58.3096999999999994
21
-56.3179999999999978
0
LINE
8
LYELLOW
6
CONTINUOUS
10
58.3496999999999986
20
-48.3399999999999963
11
58.3496999999999986
21
-51.2849999999999966
0
LINE
8
LYELLOW
6
CONTINUOUS
10
58.3496999999999986
20
-53.3649999999999949
11
58.3496999999999986
21
-56.3099999999999952
0
LINE
8
LYELLOW
6
CONTINUOUS
10
58.3896999999999977
20
-48.3489999999999966
11
58.3896999999999977
21
-51.2849999999999966
0
LINE
8
LYELLOW
6
CONTINUOUS
10
58.3896999999999977
20
-53.3649999999999949
11
58.3896999999999977
21
-56.3009999999999948
0
LINE
8
LYELLOW
6
CONTINUOUS
10
58.4296999999999969
20
-48.357999999999997
11
58.4296999999999969
21
-51.2849999999999966
0
LINE
8
LYELLOW
6
CONTINUOUS
10
58.4296999999999969
20
-53.3649999999999949
11
58.4296999999999969
21
-56.2919999999999945
0
LINE
8
LYELLOW
6
CONTINUOUS
10
58.469699999999996
20
-48.367999999999995
11
58.469699999999996
21
-51.2849999999999966
0
LINE
8
LYELLOW
6
CONTINUOUS
10
58.469699999999996
20
-53.3649999999999949
11
58.469699999999996
21
-56.2819999999999965
0
LINE
8
LYELLOW
6
CONTINUOUS
10
58.5096999999999952
20
-48.3780000000000001
11
58.5096999999999952
21
-51.2849999999999966
0
LINE
8
LYELLOW
6
CONTINUOUS
10
58.5096999999999952
20
-53.3649999999999949
11
58.5096999999999952
21
-56.2719999999999985
0
LINE
8
LYELLOW
6
CONTINUOUS
10
58.5496999999999943
20
-48.3889999999999958
11
58.5496999999999943
21
-51.2849999999999966
0
LINE
8
LYELLOW
6
CONTINUOUS
10
58.5496999999999943
20
-53.3649999999999949
11
58.5496999999999943
21
-56.2609999999999957
0
LINE
8
LYELLOW
6
CONTINUOUS
10
58.5897000000000006
20
-48.3999999999999986
11
58.5897000000000006
21
-51.2849999999999966
0
LINE
8
LYELLOW
6
CONTINUOUS
10
58.5897000000000006
20
-53.3649999999999949
11
58.5897000000000006
21
-56.25
0
LINE
8
LYELLOW
6
CONTINUOUS
10
58.6296999999999997
20
-48.411999999999999
11
58.6296999999999997
21
-51.2849999999999966
0
LINE
8
LYELLOW
6
CONTINUOUS
10
58.6296999999999997
20
-53.3649999999999949
11
58.6296999999999997
21
-56.2379999999999995
0
LINE
8
LYELLOW
6
CONTINUOUS
10
58.6696999999999989
20
-48.4239999999999995
11
58.6696999999999989
21
-51.2849999999999966
0
LINE
8
LYELLOW
6
CONTINUOUS
10
58.6696999999999989
20
-53.3649999999999949
11
58.6696999999999989
21
-56.2259999999999991
0
LINE
8
LYELLOW
6
CONTINUOUS
10
58.709699999999998
20
-48.4359999999999999
11
58.709699999999998
21
-51.2849999999999966
0
LINE
8
LYELLOW
6
CONTINUOUS
10
58.709699999999998
20
-53.3649999999999949
11
58.709699999999998
21
-56.2139999999999986
0
LINE
8
LYELLOW
6
CONTINUOUS
10
58.7496999999999971
20
-48.4489999999999981
11
58.7496999999999971
21
-51.2849999999999966
0
LINE
8
LYELLOW
6
CONTINUOUS
10
58.7496999999999971
20
-53.3649999999999949
11
58.7496999999999971
21
-56.2010000000000005
0
LINE
8
LYELLOW
6
CONTINUOUS
10
58.7896999999999963
20
-48.4619999999999962
11
58.7896999999999963
21
-51.2849999999999966
0
LINE
8
LYELLOW
6
CONTINUOUS
10
58.7896999999999963
20
-53.3649999999999949
11
58.7896999999999963
21
-56.1879999999999953
0
LINE
8
LYELLOW
6
CONTINUOUS
10
58.8296999999999954
20
-48.4759999999999991
11
58.8296999999999954
21
-51.2849999999999966
0
LINE
8
LYELLOW
6
CONTINUOUS
10
58.8296999999999954
20
-53.3649999999999949
11
58.8296999999999954
21
-56.1739999999999995
0
LINE
8
LYELLOW
6
CONTINUOUS
10
58.8696999999999946
20
-48.4899999999999949
11
58.8696999999999946
21
-51.2849999999999966
0
LINE
8
LYELLOW
6
CONTINUOUS
10
58.8696999999999946
20
-53.3649999999999949
11
58.8696999999999946
21
-56.1599999999999966
0
LINE
8
LYELLOW
6
CONTINUOUS
10
58.9097000000000008
20
-48.5049999999999955
11
58.9097000000000008
21
-51.2849999999999966
0
LINE
8
LYELLOW
6
CONTINUOUS
10
58.9097000000000008
20
-53.3649999999999949
11
58.9097000000000008
21
-56.144999999999996
0
LINE
8
LYELLOW
6
CONTINUOUS
10
58.9497
20
-48.519999999999996
11
58.9497
21
-51.2849999999999966
0
LINE
8
LYELLOW
6
CONTINUOUS
10
58.9497
20
-53.3649999999999949
11
58.9497
21
-56.1299999999999955
0
LINE
8
LYELLOW
6
CONTINUOUS
10
58.9896999999999991
20
-48.5359999999999943
11
58.9896999999999991
21
-51.2849999999999966
0
LINE
8
LYELLOW
6
CONTINUOUS
10
58.9896999999999991
20
-53.3649999999999949
11
58.9896999999999991
21
-56.1139999999999972
0
LINE
8
LYELLOW
6
CONTINUOUS
10
59.0296999999999983
20
-48.5519999999999996
11
59.0296999999999983
21
-51.2849999999999966
0
LINE
8
LYELLOW
6
CONTINUOUS
10
59.0296999999999983
20
-53.3649999999999949
11
59.0296999999999983
21
-56.097999999999999
0
LINE
8
LYELLOW
6
CONTINUOUS
10
59.0696999999999974
20
-48.5679999999999978
11
59.0696999999999974
21
-51.2849999999999966
0
LINE
8
LYELLOW
6
CONTINUOUS
10
59.0696999999999974
20
-53.3649999999999949
11
59.0696999999999974
21
-56.0820000000000007
0
LINE
8
LYELLOW
6
CONTINUOUS
10
59.1096999999999966
20
-48.5850000000000009
11
59.1096999999999966
21
-51.2849999999999966
0
LINE
8
LYELLOW
6
CONTINUOUS
10
59.1096999999999966
20
-53.3649999999999949
11
59.1096999999999966
21
-56.0649999999999977
0
LINE
8
LYELLOW
6
CONTINUOUS
10
59.1496999999999957
20
-48.6029999999999944
11
59.1496999999999957
21
-51.2849999999999966
0
LINE
8
LYELLOW
6
CONTINUOUS
10
59.1496999999999957
20
-53.3649999999999949
11
59.1496999999999957
21
-56.046999999999997
0
LINE
8
LYELLOW
6
CONTINUOUS
10
59.1896999999999949
20
-48.6209999999999951
11
59.1896999999999949
21
-51.2849999999999966
0
LINE
8
LYELLOW
6
CONTINUOUS
10
59.1896999999999949
20
-53.3649999999999949
11
59.1896999999999949
21
-56.0289999999999964
0
LINE
8
LYELLOW
6
CONTINUOUS
10
59.229699999999994
20
-48.6400000000000006
11
59.229699999999994
21
-51.2849999999999966
0
LINE
8
LYELLOW
6
CONTINUOUS
10
59.229699999999994
20
-53.3649999999999949
11
59.229699999999994
21
-56.009999999999998
0
LINE
8
LYELLOW
6
CONTINUOUS
10
59.2697000000000003
20
-48.6589999999999989
11
59.2697000000000003
21
-51.2849999999999966
0
LINE
8
LYELLOW
6
CONTINUOUS
10
59.2697000000000003
20
-53.3649999999999949
11
59.2697000000000003
21
-55.9909999999999997
0
LINE
8
LYELLOW
6
CONTINUOUS
10
59.3096999999999994
20
-48.6789999999999949
11
59.3096999999999994
21
-51.2849999999999966
0
LINE
8
LYELLOW
6
CONTINUOUS
10
59.3096999999999994
20
-53.3649999999999949
11
59.3096999999999994
21
-55.9709999999999965
0
LINE
8
LYELLOW
6
CONTINUOUS
10
59.3496999999999986
20
-48.6989999999999981
11
59.3496999999999986
21
-51.2849999999999966
0
LINE
8
LYELLOW
6
CONTINUOUS
10
59.3496999999999986
20
-53.3649999999999949
11
59.3496999999999986
21
-55.9510000000000005
0
LINE
8
LYELLOW
6
CONTINUOUS
10
59.3896999999999977
20
-48.7199999999999989
11
59.3896999999999977
21
-51.2849999999999966
0
LINE
8
LYELLOW
6
CONTINUOUS
10
59.3896999999999977
20
-53.3649999999999949
11
59.3896999999999977
21
-55.9299999999999997
0
LINE
8
LYELLOW
6
CONTINUOUS
10
59.4296999999999969
20
-48.7409999999999997
11
59.4296999999999969
21
-51.2849999999999966
0
LINE
8
LYELLOW
6
CONTINUOUS
10
59.4296999999999969
20
-53.3649999999999949
11
59.4296999999999969
21
-55.9089999999999989
0
LINE
8
LYELLOW
6
CONTINUOUS
10
59.469699999999996
20
-48.7629999999999981
11
59.469699999999996
21
-51.2849999999999966
0
LINE
8
LYELLOW
6
CONTINUOUS
10
59.469699999999996
20
-53.3649999999999949
11
59.469699999999996
21
-55.8870000000000005
0
LINE
8
LYELLOW
6
CONTINUOUS
10
59.5096999999999952
20
-48.7859999999999943
11
59.5096999999999952
21
-51.2849999999999966
0
LINE
8
LYELLOW
6
CONTINUOUS
10
59.5096999999999952
20
-53.3649999999999949
11
59.5096999999999952
21
-55.8639999999999972
0
LINE
8
LYELLOW
6
CONTINUOUS
10
59.5496999999999943
20
-48.8089999999999975
11
59.5496999999999943
21
-51.2849999999999966
0
LINE
8
LYELLOW
6
CONTINUOUS
10
59.5496999999999943
20
-53.3649999999999949
11
59.5496999999999943
21
-55.840999999999994
0
LINE
8
LYELLOW
6
CONTINUOUS
10
59.5897000000000006
20
-48.8320000000000007
11
59.5897000000000006
21
-51.2849999999999966
0
LINE
8
LYELLOW
6
CONTINUOUS
10
59.5897000000000006
20
-53.3649999999999949
11
59.5897000000000006
21
-55.8179999999999978
0
LINE
8
LYELLOW
6
CONTINUOUS
10
59.6296999999999997
20
-48.8569999999999993
11
59.6296999999999997
21
-51.2849999999999966
0
LINE
8
LYELLOW
6
CONTINUOUS
10
59.6296999999999997
20
-53.3649999999999949
11
59.6296999999999997
21
-55.7929999999999993
0
LINE
8
LYELLOW
6
CONTINUOUS
10
59.6696999999999989
20
-48.8819999999999979
11
59.6696999999999989
21
-51.2849999999999966
0
LINE
8
LYELLOW
6
CONTINUOUS
10
59.6696999999999989
20
-53.3649999999999949
11
59.6696999999999989
21
-55.7680000000000007
0
LINE
8
LYELLOW
6
CONTINUOUS
10
59.709699999999998
20
-48.9069999999999965
11
59.709699999999998
21
-51.2849999999999966
0
LINE
8
LYELLOW
6
CONTINUOUS
10
59.709699999999998
20
-53.3649999999999949
11
59.709699999999998
21
-55.742999999999995
0
LINE
8
LYELLOW
6
CONTINUOUS
10
59.7496999999999971
20
-48.9329999999999998
11
59.7496999999999971
21
-51.2849999999999966
0
LINE
8
LYELLOW
6
CONTINUOUS
10
59.7496999999999971
20
-53.3649999999999949
11
59.7496999999999971
21
-55.7169999999999987
0
LINE
8
LYELLOW
6
CONTINUOUS
10
59.7896999999999963
20
-48.9600000000000009
11
59.7896999999999963
21
-51.2849999999999966
0
LINE
8
LYELLOW
6
CONTINUOUS
10
59.7896999999999963
20
-53.3649999999999949
11
59.7896999999999963
21
-55.6899999999999977
0
LINE
8
LYELLOW
6
CONTINUOUS
10
59.8296999999999954
20
-48.9879999999999995
11
59.8296999999999954
21
-51.2849999999999966
0
LINE
8
LYELLOW
6
CONTINUOUS
10
59.8296999999999954
20
-53.3649999999999949
11
59.8296999999999954
21
-55.661999999999999
0
LINE
8
LYELLOW
6
CONTINUOUS
10
59.8696999999999946
20
-49.0159999999999982
11
59.8696999999999946
21
-51.2849999999999966
0
LINE
8
LYELLOW
6
CONTINUOUS
10
59.8696999999999946
20
-53.3649999999999949
11
59.8696999999999946
21
-55.6340000000000003
0
LINE
8
LYELLOW
6
CONTINUOUS
10
59.9097000000000008
20
-49.0449999999999946
11
59.9097000000000008
21
-51.2849999999999966
0
LINE
8
LYELLOW
6
CONTINUOUS
10
59.9097000000000008
20
-53.3649999999999949
11
59.9097000000000008
21
-55.6049999999999969
0
LINE
8
LYELLOW
6
CONTINUOUS
10
59.9497
20
-49.0749999999999957
11
59.9497
21
-51.2849999999999966
0
LINE
8
LYELLOW
6
CONTINUOUS
10
59.9497
20
-53.3649999999999949
11
59.9497
21
-55.5749999999999957
0
LINE
8
LYELLOW
6
CONTINUOUS
10
59.9896999999999991
20
-49.1059999999999945
11
59.9896999999999991
21
-51.2849999999999966
0
LINE
8
LYELLOW
6
CONTINUOUS
10
59.9896999999999991
20
-53.3649999999999949
11
59.9896999999999991
21
-55.5439999999999969
0
LINE
8
LYELLOW
6
CONTINUOUS
10
60.0296999999999983
20
-49.1370000000000005
11
60.0296999999999983
21
-51.2849999999999966
0
LINE
8
LYELLOW
6
CONTINUOUS
10
60.0296999999999983
20
-53.3649999999999949
11
60.0296999999999983
21
-55.5129999999999981
0
LINE
8
LYELLOW
6
CONTINUOUS
10
60.0696999999999974
20
-49.1689999999999969
11
60.0696999999999974
21
-51.2849999999999966
0
LINE
8
LYELLOW
6
CONTINUOUS
10
60.0696999999999974
20
-53.3649999999999949
11
60.0696999999999974
21
-55.4809999999999945
0
LINE
8
LYELLOW
6
CONTINUOUS
10
60.1096999999999966
20
-49.2019999999999982
11
60.1096999999999966
21
-51.2849999999999966
0
LINE
8
LYELLOW
6
CONTINUOUS
10
60.1096999999999966
20
-53.3649999999999949
11
60.1096999999999966
21
-55.4480000000000004
0
LINE
8
LYELLOW
6
CONTINUOUS
10
60.1496999999999957
20
-49.2359999999999971
11
60.1496999999999957
21
-51.2849999999999966
0
LINE
8
LYELLOW
6
CONTINUOUS
10
60.1496999999999957
20
-53.3649999999999949
11
60.1496999999999957
21
-55.4139999999999944
0
LINE
8
LYELLOW
6
CONTINUOUS
10
60.1896999999999949
20
-49.269999999999996
11
60.1896999999999949
21
-51.2849999999999966
0
LINE
8
LYELLOW
6
CONTINUOUS
10
60.1896999999999949
20
-53.3649999999999949
11
60.1896999999999949
21
-55.3799999999999955
0
LINE
8
LYELLOW
6
CONTINUOUS
10
60.229699999999994
20
-49.3059999999999974
11
60.229699999999994
21
-51.2849999999999966
0
LINE
8
LYELLOW
6
CONTINUOUS
10
60.229699999999994
20
-53.3649999999999949
11
60.229699999999994
21
-55.3439999999999941
0
LINE
8
LYELLOW
6
CONTINUOUS
10
60.2697000000000003
20
-49.3429999999999964
11
60.2697000000000003
21
-55.3069999999999951
0
LINE
8
LYELLOW
6
CONTINUOUS
10
60.3096999999999994
20
-49.3799999999999955
11
60.3096999999999994
21
-55.269999999999996
0
LINE
8
LYELLOW
6
CONTINUOUS
10
60.3496999999999986
20
-49.4189999999999969
11
60.3496999999999986
21
-55.2309999999999945
0
LINE
8
LYELLOW
6
CONTINUOUS
10
60.3896999999999977
20
-49.4579999999999984
11
60.3896999999999977
21
-55.1920000000000002
0
LINE
8
LYELLOW
6
CONTINUOUS
10
60.4296999999999969
20
-49.4989999999999952
11
60.4296999999999969
21
-55.1509999999999962
0
LINE
8
LYELLOW
6
CONTINUOUS
10
60.469699999999996
20
-49.5409999999999968
11
60.469699999999996
21
-55.1089999999999947
0
LINE
8
LYELLOW
6
CONTINUOUS
10
60.5096999999999952
20
-49.5839999999999961
11
60.5096999999999952
21
-55.0659999999999954
0
LINE
8
LYELLOW
6
CONTINUOUS
10
60.5496999999999943
20
-49.6289999999999978
11
60.5496999999999943
21
-55.0210000000000008
0
LINE
8
LYELLOW
6
CONTINUOUS
10
60.5897000000000006
20
-49.6739999999999995
11
60.5897000000000006
21
-54.9759999999999991
0
LINE
8
LYELLOW
6
CONTINUOUS
10
60.6296999999999997
20
-49.7209999999999965
11
60.6296999999999997
21
-54.9289999999999949
0
LINE
8
LYELLOW
6
CONTINUOUS
10
60.6696999999999989
20
-49.769999999999996
11
60.6696999999999989
21
-54.8799999999999955
0
LINE
8
LYELLOW
6
CONTINUOUS
10
60.709699999999998
20
-49.8200000000000003
11
60.709699999999998
21
-54.8299999999999983
0
LINE
8
LYELLOW
6
CONTINUOUS
10
60.7496999999999971
20
-49.8719999999999999
11
60.7496999999999971
21
-54.7779999999999987
0
LINE
8
LYELLOW
6
CONTINUOUS
10
60.7896999999999963
20
-49.9249999999999972
11
60.7896999999999963
21
-54.7249999999999943
0
LINE
8
LYELLOW
6
CONTINUOUS
10
60.8296999999999954
20
-49.9809999999999945
11
60.8296999999999954
21
-54.6689999999999969
0
LINE
8
LYELLOW
6
CONTINUOUS
10
60.8696999999999946
20
-50.0379999999999967
11
60.8696999999999946
21
-54.6119999999999948
0
LINE
8
LYELLOW
6
CONTINUOUS
10
60.9096999999999937
20
-50.097999999999999
11
60.9096999999999937
21
-54.5519999999999996
0
LINE
8
LYELLOW
6
CONTINUOUS
10
60.9497
20
-50.1599999999999966
11
60.9497
21
-54.4899999999999949
0
LINE
8
LYELLOW
6
CONTINUOUS
10
60.9896999999999991
20
-50.2239999999999966
11
60.9896999999999991
21
-54.4259999999999948
0
LINE
8
LYELLOW
6
CONTINUOUS
10
61.0296999999999983
20
-50.2909999999999968
11
61.0296999999999983
21
-54.3589999999999947
0
LINE
8
LYELLOW
6
CONTINUOUS
10
61.0696999999999974
20
-50.3609999999999971
11
61.0696999999999974
21
-54.2889999999999944
0
LINE
8
LYELLOW
6
CONTINUOUS
10
61.1096999999999966
20
-50.4349999999999952
11
61.1096999999999966
21
-54.2149999999999963
0
LINE
8
LYELLOW
6
CONTINUOUS
10
61.1496999999999957
20
-50.5120000000000005
11
61.1496999999999957
21
-54.1379999999999981
0
LINE
8
LYELLOW
6
CONTINUOUS
10
61.1896999999999949
20
-50.5940000000000012
11
61.1896999999999949
21
-54.0559999999999974
0
LINE
8
LYELLOW
6
CONTINUOUS
10
61.229699999999994
20
-50.6809999999999974
11
61.229699999999994
21
-53.9689999999999941
0
LINE
8
LYELLOW
6
CONTINUOUS
10
61.2697000000000003
20
-50.7729999999999961
11
61.2697000000000003
21
-53.8769999999999953
0
LINE
8
LYELLOW
6
CONTINUOUS
10
61.3096999999999994
20
-50.8719999999999999
11
61.3096999999999994
21
-53.7779999999999987
0
LINE
8
LYELLOW
6
CONTINUOUS
10
61.3496999999999986
20
-50.9789999999999992
11
61.3496999999999986
21
-53.6709999999999994
0
LINE
8
LYELLOW
6
CONTINUOUS
10
61.3896999999999977
20
-51.0969999999999942
11
61.3896999999999977
21
-53.5529999999999973
0
LINE
8
LYELLOW
6
CONTINUOUS
10
61.4296999999999969
20
-51.2279999999999944
11
61.4296999999999969
21
-53.421999999999997
0
LINE
8
LYELLOW
6
CONTINUOUS
10
61.469699999999996
20
-51.3780000000000001
11
61.469699999999996
21
-53.2719999999999985
0
LINE
8
LYELLOW
6
CONTINUOUS
10
61.5096999999999952
20
-51.5569999999999951
11
61.5096999999999952
21
-53.0929999999999964
0
LINE
8
LYELLOW
6
CONTINUOUS
10
61.5496999999999943
20
-51.7919999999999945
11
61.5496999999999943
21
-52.857999999999997
0
CIRCLE
8
LYELLOW
10
57.469699999999996
20
-52.3249999999999957
40
4.1200000000000001
0
LINE
8
LYELLOW
6
CONTINUOUS
10
54.6149999999999949
20
-61.7549999999999955
11
61.154999999999994
21
-61.7549999999999955
0
LINE
8
LYELLOW
6
CONTINUOUS
10
54.6149999999999949
20
-62.0849999999999937
11
54.6149999999999949
21
-61.7549999999999955
0
LINE
8
LYELLOW
6
CONTINUOUS
10
54.6149999999999949
20
-64.164999999999992
11
54.6149999999999949
21
-64.4949999999999903
0
LINE
8
LYELLOW
6
CONTINUOUS
10
54.6149999999999949
20
-64.4949999999999903
11
61.154999999999994
21
-64.4949999999999903
0
LINE
8
LYELLOW
6
CONTINUOUS
10
61.154999999999994
20
-61.7549999999999955
11
61.154999999999994
21
-62.0849999999999937
0
LINE
8
LYELLOW
6
CONTINUOUS
10
61.154999999999994
20
-64.4949999999999903
11
61.154999999999994
21
-64.164999999999992
0
LINE
8
LYELLOW
6
CONTINUOUS
10
69.9097000000000008
20
-50.0150000000000006
11
80.1296999999999997
21
-50.0150000000000006
0
LINE
8
LYELLOW
6
CONTINUOUS
10
69.9097000000000008
20
-51.394999999999996
11
80.1296999999999997
21
-51.394999999999996
0
LINE
8
LYELLOW
6
CONTINUOUS
10
69.9097000000000008
20
-54.634999999999998
11
69.9097000000000008
21
-50.0150000000000006
0
LINE
8
LYELLOW
6
CONTINUOUS
10
73.1696999999999917
20
-50.0150000000000006
11
73.1696999999999917
21
-51.394999999999996
0
LINE
8
LYELLOW
6
CONTINUOUS
10
76.8696999999999946
20
-50.0150000000000006
11
76.8696999999999946
21
-51.394999999999996
0
LINE
8
LYELLOW
6
CONTINUOUS
10
80.1296999999999997
20
-50.0150000000000006
11
80.1296999999999997
21
-54.634999999999998
0
LINE
8
LYELLOW
6
CONTINUOUS
10
80.1296999999999997
20
-54.634999999999998
11
69.9097000000000008
21
-54.634999999999998
0
LINE
8
LYELLOW
6
CONTINUOUS
10
95.4949999999999903
20
-33.9050000000000011
11
95.4949999999999903
21
-41.644999999999996
0
LINE
8
LYELLOW
6
CONTINUOUS
10
95.4949999999999903
20
-41.644999999999996
11
99.9949999999999903
21
-41.644999999999996
0
LINE
8
LYELLOW
6
CONTINUOUS
10
96.7449999999999903
20
-33.9050000000000011
11
95.4949999999999903
21
-33.9050000000000011
0
LINE
8
LYELLOW
6
CONTINUOUS
10
99.9949999999999903
20
-33.9050000000000011
11
98.7449999999999903
21
-33.9050000000000011
0
LINE
8
LYELLOW
6
CONTINUOUS
10
99.9949999999999903
20
-41.644999999999996
11
99.9949999999999903
21
-33.9050000000000011
0
ARC
8
LYELLOW
10
97.7449999999999903
20
-33.9050000000000011
40
1.
50
-180.00000000
51
-0.00000000
0
LINE
8
LYELLOW
6
CONTINUOUS
10
33.6199999999999974
20
-46.0549999999999997
11
33.6199999999999974
21
-43.4050000000000011
0
LINE
8
LYELLOW
6
CONTINUOUS
10
36.3799999999999955
20
-43.4050000000000011
11
33.6199999999999974
21
-43.4050000000000011
0
LINE
8
LYELLOW
6
CONTINUOUS
10
36.3799999999999955
20
-46.0549999999999997
11
33.6199999999999974
21
-46.0549999999999997
0
LINE
8
LYELLOW
6
CONTINUOUS
10
36.3799999999999955
20
-46.0549999999999997
11
36.3799999999999955
21
-43.4050000000000011
0
LINE
8
LYELLOW
6
CONTINUOUS
10
36.3799999999999955
20
-47.3249999999999957
11
36.3799999999999955
21
-48.7049999999999983
0
LINE
8
LYELLOW
6
CONTINUOUS
10
36.3799999999999955
20
-48.7049999999999983
11
35.
21
-48.7049999999999983
0
CIRCLE
8
LYELLOW
10
79.1850000000000023
20
-37.7749999999999986
40
5.1200000000000001
0
LINE
8
LYELLOW
6
CONTINUOUS
10
89.9097000000000008
20
-50.9549999999999983
11
96.4496999999999929
21
-50.9549999999999983
0
LINE
8
LYELLOW
6
CONTINUOUS
10
89.9097000000000008
20
-51.2849999999999966
11
89.9097000000000008
21
-50.9549999999999983
0
LINE
8
LYELLOW
6
CONTINUOUS
10
89.9097000000000008
20
-53.3649999999999949
11
89.9097000000000008
21
-53.6950000000000003
0
LINE
8
LYELLOW
6
CONTINUOUS
10
89.9097000000000008
20
-53.6950000000000003
11
96.4496999999999929
21
-53.6950000000000003
0
LINE
8
LYELLOW
6
CONTINUOUS
10
96.4496999999999929
20
-50.9549999999999983
11
96.4496999999999929
21
-51.2849999999999966
0
LINE
8
LYELLOW
6
CONTINUOUS
10
96.4496999999999929
20
-53.6950000000000003
11
96.4496999999999929
21
-53.3649999999999949
0
LINE
8
LYELLOW
6
CONTINUOUS
10
29.9199999999999982
20
-28.1899999999999977
11
29.9199999999999982
21
-35.8099999999999952
0
LINE
8
LYELLOW
6
CONTINUOUS
10
29.9199999999999982
20
-29.4599999999999973
11
40.0799999999999983
21
-29.4599999999999973
0
LINE
8
LYELLOW
6
CONTINUOUS
10
29.9199999999999982
20
-35.8099999999999952
11
40.0799999999999983
21
-35.8099999999999952
0
LINE
8
LYELLOW
6
CONTINUOUS
10
40.0799999999999983
20
-28.1899999999999977
11
29.9199999999999982
21
-28.1899999999999977
0
LINE
8
LYELLOW
6
CONTINUOUS
10
40.0799999999999983
20
-35.8099999999999952
11
40.0799999999999983
21
-28.1899999999999977
0
LINE
8
WHITE
6
CONTINUOUS
10
20.
20
-20.
11
141.
21
-20.
0
LINE
8
WHITE
6
CONTINUOUS
10
141.
20
-20.
11
141.
21
-76.
0
LINE
8
WHITE
6
CONTINUOUS
10
141.
20
-76.
11
20.
21
-76.
0
LINE
8
WHITE
6
CONTINUOUS
10
20.
20
-76.
11
20.
21
-20.
  0
ENDSEC
  0
EOF
