  0
SECTION
  2
HEADER
  9
$ANGBASE
  50
0.0
  9
$ANGDIR
  70
1
  9
$MEASUREMENT
  70
1
  0
ENDSEC
  0
SECTION
  2
TABLES
  0
TABLE
  2
LTYPE
  70
4
  0
LTYPE
  5
40F
  2
CONTINUOUS
  70
0
  3
Solid line
  72
65
  73
0
  40
0.0
  0
LTYPE
  5
410
  2
DASHDOT
 70
0
  3
Dash Dot ____ _ ____ _
 72
65
 73
4
 40
2.0
 49
1.25
 49
-0.25
 49
0.25
 49
-0.25
  0
LTYPE
  5
411
  2
DASHED
 70
0
  3
Dashed __ __ __ __ __
 72
65
 73
2
 40
0.75
 49
0.5
 49
-0.25
  0
LTYPE
  5
43B
  2
DOTTED
 70
0
  3
Dotted .  .  .  .
 72
65
 73
2
 40
0.2
 49
0.0
 49
-0.2
  0
ENDTAB
  0
TABLE
  2
STYLE
  70
4
  0
STYLE
  2
KICAD
  70
0
  40
0
  41
1
  42
1
  50
0
  71
0
  3
isocp.shx
  0
STYLE
  2
KICADB
  70
0
  40
0
  41
1
  42
1
  50
0
  71
0
  3
isocp.shx
  0
STYLE
  2
KICADI
  70
0
  40
0
  41
1
  42
1
  50
15
  71
0
  3
isocp.shx
  0
STYLE
  2
KICADBI
  70
0
  40
0
  41
1
  42
1
  50
15
  71
0
  3
isocp.shx
  0
ENDTAB
  0
TABLE
  2
LAYER
  70
35
  0
LAYER
  2
BLACK
  70
0
  62
7
  6
CONTINUOUS
  0
LAYER
  2
GRAY1
  70
0
  62
251
  6
CONTINUOUS
  0
LAYER
  2
GRAY2
  70
0
  62
8
  6
CONTINUOUS
  0
LAYER
  2
GRAY3
  70
0
  62
9
  6
CONTINUOUS
  0
LAYER
  2
WHITE
  70
0
  62
7
  6
CONTINUOUS
  0
LAYER
  2
LYELLOW
  70
0
  62
51
  6
CONTINUOUS
  0
LAYER
  2
LORANGE
  70
0
  62
41
  6
CONTINUOUS
  0
LAYER
  2
BLUE1
  70
0
  62
178
  6
CONTINUOUS
  0
LAYER
  2
GREEN1
  70
0
  62
98
  6
CONTINUOUS
  0
LAYER
  2
CYAN1
  70
0
  62
138
  6
CONTINUOUS
  0
LAYER
  2
RED1
  70
0
  62
18
  6
CONTINUOUS
  0
LAYER
  2
MAGENTA1
  70
0
  62
228
  6
CONTINUOUS
  0
LAYER
  2
BROWN1
  70
0
  62
58
  6
CONTINUOUS
  0
LAYER
  2
ORANGE1
  70
0
  62
34
  6
CONTINUOUS
  0
LAYER
  2
BLUE2
  70
0
  62
5
  6
CONTINUOUS
  0
LAYER
  2
GREEN2
  70
0
  62
3
  6
CONTINUOUS
  0
LAYER
  2
CYAN2
  70
0
  62
4
  6
CONTINUOUS
  0
LAYER
  2
RED2
  70
0
  62
1
  6
CONTINUOUS
  0
LAYER
  2
MAGENTA2
  70
0
  62
6
  6
CONTINUOUS
  0
LAYER
  2
BROWN2
  70
0
  62
54
  6
CONTINUOUS
  0
LAYER
  2
ORANGE2
  70
0
  62
42
  6
CONTINUOUS
  0
LAYER
  2
BLUE3
  70
0
  62
171
  6
CONTINUOUS
  0
LAYER
  2
GREEN3
  70
0
  62
91
  6
CONTINUOUS
  0
LAYER
  2
CYAN3
  70
0
  62
131
  6
CONTINUOUS
  0
LAYER
  2
RED3
  70
0
  62
11
  6
CONTINUOUS
  0
LAYER
  2
MAGENTA3
  70
0
  62
221
  6
CONTINUOUS
  0
LAYER
  2
YELLOW3
  70
0
  62
2
  6
CONTINUOUS
  0
LAYER
  2
ORANGE3
  70
0
  62
32
  6
CONTINUOUS
  0
LAYER
  2
BLUE4
  70
0
  62
5
  6
CONTINUOUS
  0
LAYER
  2
GREEN4
  70
0
  62
3
  6
CONTINUOUS
  0
LAYER
  2
CYAN4
  70
0
  62
4
  6
CONTINUOUS
  0
LAYER
  2
RED4
  70
0
  62
1
  6
CONTINUOUS
  0
LAYER
  2
MAGENTA4
  70
0
  62
6
  6
CONTINUOUS
  0
LAYER
  2
YELLOW4
  70
0
  62
2
  6
CONTINUOUS
  0
LAYER
  2
ORANGE4
  70
0
  62
40
  6
CONTINUOUS
  0
ENDTAB
  0
ENDSEC
  0
SECTION
  2
ENTITIES
0
LINE
8
LYELLOW
6
CONTINUOUS
10
95.6666659999999922
20
-47.334818999999996
11
95.3333329999999961
21
-46.858627999999996
0
LINE
8
LYELLOW
6
CONTINUOUS
10
95.0952379999999948
20
-47.334818999999996
11
95.0952379999999948
21
-46.334818999999996
0
LINE
8
LYELLOW
6
CONTINUOUS
10
95.0952379999999948
20
-46.334818999999996
11
95.4761900000000026
21
-46.334818999999996
0
LINE
8
LYELLOW
6
CONTINUOUS
10
95.4761900000000026
20
-46.334818999999996
11
95.5714279999999974
21
-46.3824380000000005
0
LINE
8
LYELLOW
6
CONTINUOUS
10
95.5714279999999974
20
-46.3824380000000005
11
95.6190469999999948
21
-46.4300569999999979
0
LINE
8
LYELLOW
6
CONTINUOUS
10
95.6190469999999948
20
-46.4300569999999979
11
95.6666659999999922
21
-46.5252949999999998
0
LINE
8
LYELLOW
6
CONTINUOUS
10
95.6666659999999922
20
-46.5252949999999998
11
95.6666659999999922
21
-46.6681519999999992
0
LINE
8
LYELLOW
6
CONTINUOUS
10
95.6666659999999922
20
-46.6681519999999992
11
95.6190469999999948
21
-46.7633900000000011
0
LINE
8
LYELLOW
6
CONTINUOUS
10
95.6190469999999948
20
-46.7633900000000011
11
95.5714279999999974
21
-46.8110089999999985
0
LINE
8
LYELLOW
6
CONTINUOUS
10
95.5714279999999974
20
-46.8110089999999985
11
95.4761900000000026
21
-46.858627999999996
0
LINE
8
LYELLOW
6
CONTINUOUS
10
95.4761900000000026
20
-46.858627999999996
11
95.0952379999999948
21
-46.858627999999996
0
LINE
8
LYELLOW
6
CONTINUOUS
10
96.0952379999999948
20
-47.334818999999996
11
96.0952379999999948
21
-46.334818999999996
0
LINE
8
LYELLOW
6
CONTINUOUS
10
96.0952379999999948
20
-46.334818999999996
11
96.4761900000000026
21
-46.334818999999996
0
LINE
8
LYELLOW
6
CONTINUOUS
10
96.4761900000000026
20
-46.334818999999996
11
96.5714279999999974
21
-46.3824380000000005
0
LINE
8
LYELLOW
6
CONTINUOUS
10
96.5714279999999974
20
-46.3824380000000005
11
96.6190469999999948
21
-46.4300569999999979
0
LINE
8
LYELLOW
6
CONTINUOUS
10
96.6190469999999948
20
-46.4300569999999979
11
96.6666659999999922
21
-46.5252949999999998
0
LINE
8
LYELLOW
6
CONTINUOUS
10
96.6666659999999922
20
-46.5252949999999998
11
96.6666659999999922
21
-46.6681519999999992
0
LINE
8
LYELLOW
6
CONTINUOUS
10
96.6666659999999922
20
-46.6681519999999992
11
96.6190469999999948
21
-46.7633900000000011
0
LINE
8
LYELLOW
6
CONTINUOUS
10
96.6190469999999948
20
-46.7633900000000011
11
96.5714279999999974
21
-46.8110089999999985
0
LINE
8
LYELLOW
6
CONTINUOUS
10
96.5714279999999974
20
-46.8110089999999985
11
96.4761900000000026
21
-46.858627999999996
0
LINE
8
LYELLOW
6
CONTINUOUS
10
96.4761900000000026
20
-46.858627999999996
11
96.0952379999999948
21
-46.858627999999996
0
LINE
8
LYELLOW
6
CONTINUOUS
10
97.
20
-46.334818999999996
11
97.2380950000000013
21
-47.334818999999996
0
LINE
8
LYELLOW
6
CONTINUOUS
10
97.2380950000000013
20
-47.334818999999996
11
97.4285709999999909
21
-46.6205329999999947
0
LINE
8
LYELLOW
6
CONTINUOUS
10
97.4285709999999909
20
-46.6205329999999947
11
97.6190469999999948
21
-47.334818999999996
0
LINE
8
LYELLOW
6
CONTINUOUS
10
97.6190469999999948
20
-47.334818999999996
11
97.8571429999999935
21
-46.334818999999996
0
LINE
8
LYELLOW
6
CONTINUOUS
10
98.2380950000000013
20
-47.334818999999996
11
98.2380950000000013
21
-46.334818999999996
0
LINE
8
LYELLOW
6
CONTINUOUS
10
98.2380950000000013
20
-46.334818999999996
11
98.5714279999999974
21
-47.0491039999999998
0
LINE
8
LYELLOW
6
CONTINUOUS
10
98.5714279999999974
20
-47.0491039999999998
11
98.9047609999999935
21
-46.334818999999996
0
LINE
8
LYELLOW
6
CONTINUOUS
10
98.9047609999999935
20
-46.334818999999996
11
98.9047609999999935
21
-47.334818999999996
0
LINE
8
LYELLOW
6
CONTINUOUS
10
67.9285709999999909
20
-28.3348189999999995
11
67.5952379999999948
21
-27.8586279999999995
0
LINE
8
LYELLOW
6
CONTINUOUS
10
67.3571429999999935
20
-28.3348189999999995
11
67.3571429999999935
21
-27.3348189999999995
0
LINE
8
LYELLOW
6
CONTINUOUS
10
67.3571429999999935
20
-27.3348189999999995
11
67.7380950000000013
21
-27.3348189999999995
0
LINE
8
LYELLOW
6
CONTINUOUS
10
67.7380950000000013
20
-27.3348189999999995
11
67.8333329999999961
21
-27.3824380000000005
0
LINE
8
LYELLOW
6
CONTINUOUS
10
67.8333329999999961
20
-27.3824380000000005
11
67.8809519999999935
21
-27.4300569999999979
0
LINE
8
LYELLOW
6
CONTINUOUS
10
67.8809519999999935
20
-27.4300569999999979
11
67.9285709999999909
21
-27.5252949999999998
0
LINE
8
LYELLOW
6
CONTINUOUS
10
67.9285709999999909
20
-27.5252949999999998
11
67.9285709999999909
21
-27.6681519999999992
0
LINE
8
LYELLOW
6
CONTINUOUS
10
67.9285709999999909
20
-27.6681519999999992
11
67.8809519999999935
21
-27.7633899999999976
0
LINE
8
LYELLOW
6
CONTINUOUS
10
67.8809519999999935
20
-27.7633899999999976
11
67.8333329999999961
21
-27.8110089999999985
0
LINE
8
LYELLOW
6
CONTINUOUS
10
67.8333329999999961
20
-27.8110089999999985
11
67.7380950000000013
21
-27.8586279999999995
0
LINE
8
LYELLOW
6
CONTINUOUS
10
67.7380950000000013
20
-27.8586279999999995
11
67.3571429999999935
21
-27.8586279999999995
0
LINE
8
LYELLOW
6
CONTINUOUS
10
68.2142860000000013
20
-27.3348189999999995
11
68.5476189999999974
21
-28.3348189999999995
0
LINE
8
LYELLOW
6
CONTINUOUS
10
68.5476189999999974
20
-28.3348189999999995
11
68.8809519999999935
21
-27.3348189999999995
0
LINE
8
LYELLOW
6
CONTINUOUS
10
69.7380950000000013
20
-28.3348189999999995
11
69.1666670000000039
21
-28.3348189999999995
0
LINE
8
LYELLOW
6
CONTINUOUS
10
69.4523810000000026
20
-28.3348189999999995
11
69.4523810000000026
21
-27.3348189999999995
0
LINE
8
LYELLOW
6
CONTINUOUS
10
69.4523810000000026
20
-27.3348189999999995
11
69.3571429999999935
21
-27.4776759999999989
0
LINE
8
LYELLOW
6
CONTINUOUS
10
69.3571429999999935
20
-27.4776759999999989
11
69.2619049999999987
21
-27.5729139999999973
0
LINE
8
LYELLOW
6
CONTINUOUS
10
69.2619049999999987
20
-27.5729139999999973
11
69.1666670000000039
21
-27.6205329999999982
0
LINE
8
LYELLOW
6
CONTINUOUS
10
70.0714289999999949
20
-27.3348189999999995
11
70.6904760000000039
21
-27.3348189999999995
0
LINE
8
LYELLOW
6
CONTINUOUS
10
70.6904760000000039
20
-27.3348189999999995
11
70.3571429999999935
21
-27.7157710000000002
0
LINE
8
LYELLOW
6
CONTINUOUS
10
70.3571429999999935
20
-27.7157710000000002
11
70.5
21
-27.7157710000000002
0
LINE
8
LYELLOW
6
CONTINUOUS
10
70.5
20
-27.7157710000000002
11
70.5952379999999948
21
-27.7633899999999976
0
LINE
8
LYELLOW
6
CONTINUOUS
10
70.5952379999999948
20
-27.7633899999999976
11
70.6428569999999922
21
-27.8110089999999985
0
LINE
8
LYELLOW
6
CONTINUOUS
10
70.6428569999999922
20
-27.8110089999999985
11
70.6904760000000039
21
-27.9062470000000005
0
LINE
8
LYELLOW
6
CONTINUOUS
10
70.6904760000000039
20
-27.9062470000000005
11
70.6904760000000039
21
-28.1443419999999982
0
LINE
8
LYELLOW
6
CONTINUOUS
10
70.6904760000000039
20
-28.1443419999999982
11
70.6428569999999922
21
-28.2395800000000001
0
LINE
8
LYELLOW
6
CONTINUOUS
10
70.6428569999999922
20
-28.2395800000000001
11
70.5952379999999948
21
-28.2871999999999986
0
LINE
8
LYELLOW
6
CONTINUOUS
10
70.5952379999999948
20
-28.2871999999999986
11
70.5
21
-28.3348189999999995
0
LINE
8
LYELLOW
6
CONTINUOUS
10
70.5
20
-28.3348189999999995
11
70.2142860000000013
21
-28.3348189999999995
0
LINE
8
LYELLOW
6
CONTINUOUS
10
70.2142860000000013
20
-28.3348189999999995
11
70.1190479999999923
21
-28.2871999999999986
0
LINE
8
LYELLOW
6
CONTINUOUS
10
70.1190479999999923
20
-28.2871999999999986
11
70.0714289999999949
21
-28.2395800000000001
0
LINE
8
LYELLOW
6
CONTINUOUS
10
36.6666659999999993
20
-62.7848189999999988
11
36.6666659999999993
21
-63.4991039999999956
0
LINE
8
LYELLOW
6
CONTINUOUS
10
36.6666659999999993
20
-63.4991039999999956
11
36.6190469999999948
21
-63.6419609999999949
0
LINE
8
LYELLOW
6
CONTINUOUS
10
36.6190469999999948
20
-63.6419609999999949
11
36.523809
21
-63.7371999999999943
0
LINE
8
LYELLOW
6
CONTINUOUS
10
36.523809
20
-63.7371999999999943
11
36.3809520000000006
21
-63.7848189999999988
0
LINE
8
LYELLOW
6
CONTINUOUS
10
36.3809520000000006
20
-63.7848189999999988
11
36.2857139999999987
21
-63.7848189999999988
0
LINE
8
LYELLOW
6
CONTINUOUS
10
37.6190469999999948
20
-62.7848189999999988
11
37.1428569999999993
21
-62.7848189999999988
0
LINE
8
LYELLOW
6
CONTINUOUS
10
37.1428569999999993
20
-62.7848189999999988
11
37.0952379999999948
21
-63.2610089999999943
0
LINE
8
LYELLOW
6
CONTINUOUS
10
37.0952379999999948
20
-63.2610089999999943
11
37.1428569999999993
21
-63.2133899999999969
0
LINE
8
LYELLOW
6
CONTINUOUS
10
37.1428569999999993
20
-63.2133899999999969
11
37.2380950000000013
21
-63.1657709999999994
0
LINE
8
LYELLOW
6
CONTINUOUS
10
37.2380950000000013
20
-63.1657709999999994
11
37.4761899999999955
21
-63.1657709999999994
0
LINE
8
LYELLOW
6
CONTINUOUS
10
37.4761899999999955
20
-63.1657709999999994
11
37.5714279999999974
21
-63.2133899999999969
0
LINE
8
LYELLOW
6
CONTINUOUS
10
37.5714279999999974
20
-63.2133899999999969
11
37.6190469999999948
21
-63.2610089999999943
0
LINE
8
LYELLOW
6
CONTINUOUS
10
37.6190469999999948
20
-63.2610089999999943
11
37.6666659999999993
21
-63.3562469999999962
0
LINE
8
LYELLOW
6
CONTINUOUS
10
37.6666659999999993
20
-63.3562469999999962
11
37.6666659999999993
21
-63.5943419999999975
0
LINE
8
LYELLOW
6
CONTINUOUS
10
37.6666659999999993
20
-63.5943419999999975
11
37.6190469999999948
21
-63.6895799999999994
0
LINE
8
LYELLOW
6
CONTINUOUS
10
37.6190469999999948
20
-63.6895799999999994
11
37.5714279999999974
21
-63.7371999999999943
0
LINE
8
LYELLOW
6
CONTINUOUS
10
37.5714279999999974
20
-63.7371999999999943
11
37.4761899999999955
21
-63.7848189999999988
0
LINE
8
LYELLOW
6
CONTINUOUS
10
37.4761899999999955
20
-63.7848189999999988
11
37.2380950000000013
21
-63.7848189999999988
0
LINE
8
LYELLOW
6
CONTINUOUS
10
37.2380950000000013
20
-63.7848189999999988
11
37.1428569999999993
21
-63.7371999999999943
0
LINE
8
LYELLOW
6
CONTINUOUS
10
37.1428569999999993
20
-63.7371999999999943
11
37.0952379999999948
21
-63.6895799999999994
0
LINE
8
LYELLOW
6
CONTINUOUS
10
70.2380950000000013
20
-84.564819
11
70.2380950000000013
21
-85.3743419999999986
0
LINE
8
LYELLOW
6
CONTINUOUS
10
70.2380950000000013
20
-85.3743419999999986
11
70.2857139999999987
21
-85.4695799999999934
0
LINE
8
LYELLOW
6
CONTINUOUS
10
70.2857139999999987
20
-85.4695799999999934
11
70.3333329999999961
21
-85.5172000000000025
0
LINE
8
LYELLOW
6
CONTINUOUS
10
70.3333329999999961
20
-85.5172000000000025
11
70.4285709999999909
21
-85.564819
0
LINE
8
LYELLOW
6
CONTINUOUS
10
70.4285709999999909
20
-85.564819
11
70.6190469999999948
21
-85.564819
0
LINE
8
LYELLOW
6
CONTINUOUS
10
70.6190469999999948
20
-85.564819
11
70.7142850000000038
21
-85.5172000000000025
0
LINE
8
LYELLOW
6
CONTINUOUS
10
70.7142850000000038
20
-85.5172000000000025
11
70.7619040000000012
21
-85.4695799999999934
0
LINE
8
LYELLOW
6
CONTINUOUS
10
70.7619040000000012
20
-85.4695799999999934
11
70.8095229999999987
21
-85.3743419999999986
0
LINE
8
LYELLOW
6
CONTINUOUS
10
70.8095229999999987
20
-85.3743419999999986
11
70.8095229999999987
21
-84.564819
0
LINE
8
LYELLOW
6
CONTINUOUS
10
71.2380950000000013
20
-84.6600569999999948
11
71.2857139999999987
21
-84.6124379999999974
0
LINE
8
LYELLOW
6
CONTINUOUS
10
71.2857139999999987
20
-84.6124379999999974
11
71.3809519999999935
21
-84.564819
0
LINE
8
LYELLOW
6
CONTINUOUS
10
71.3809519999999935
20
-84.564819
11
71.6190469999999948
21
-84.564819
0
LINE
8
LYELLOW
6
CONTINUOUS
10
71.6190469999999948
20
-84.564819
11
71.7142850000000038
21
-84.6124379999999974
0
LINE
8
LYELLOW
6
CONTINUOUS
10
71.7142850000000038
20
-84.6124379999999974
11
71.7619040000000012
21
-84.6600569999999948
0
LINE
8
LYELLOW
6
CONTINUOUS
10
71.7619040000000012
20
-84.6600569999999948
11
71.8095229999999987
21
-84.7552949999999896
0
LINE
8
LYELLOW
6
CONTINUOUS
10
71.8095229999999987
20
-84.7552949999999896
11
71.8095229999999987
21
-84.8505329999999987
0
LINE
8
LYELLOW
6
CONTINUOUS
10
71.8095229999999987
20
-84.8505329999999987
11
71.7619040000000012
21
-84.9933899999999909
0
LINE
8
LYELLOW
6
CONTINUOUS
10
71.7619040000000012
20
-84.9933899999999909
11
71.1904760000000039
21
-85.564819
0
LINE
8
LYELLOW
6
CONTINUOUS
10
71.1904760000000039
20
-85.564819
11
71.8095229999999987
21
-85.564819
0
LINE
8
LYELLOW
6
CONTINUOUS
10
67.9285709999999909
20
-56.334818999999996
11
67.5952379999999948
21
-55.858627999999996
0
LINE
8
LYELLOW
6
CONTINUOUS
10
67.3571429999999935
20
-56.334818999999996
11
67.3571429999999935
21
-55.334818999999996
0
LINE
8
LYELLOW
6
CONTINUOUS
10
67.3571429999999935
20
-55.334818999999996
11
67.7380950000000013
21
-55.334818999999996
0
LINE
8
LYELLOW
6
CONTINUOUS
10
67.7380950000000013
20
-55.334818999999996
11
67.8333329999999961
21
-55.3824380000000005
0
LINE
8
LYELLOW
6
CONTINUOUS
10
67.8333329999999961
20
-55.3824380000000005
11
67.8809519999999935
21
-55.4300569999999979
0
LINE
8
LYELLOW
6
CONTINUOUS
10
67.8809519999999935
20
-55.4300569999999979
11
67.9285709999999909
21
-55.5252949999999998
0
LINE
8
LYELLOW
6
CONTINUOUS
10
67.9285709999999909
20
-55.5252949999999998
11
67.9285709999999909
21
-55.6681519999999992
0
LINE
8
LYELLOW
6
CONTINUOUS
10
67.9285709999999909
20
-55.6681519999999992
11
67.8809519999999935
21
-55.763389999999994
0
LINE
8
LYELLOW
6
CONTINUOUS
10
67.8809519999999935
20
-55.763389999999994
11
67.8333329999999961
21
-55.8110089999999985
0
LINE
8
LYELLOW
6
CONTINUOUS
10
67.8333329999999961
20
-55.8110089999999985
11
67.7380950000000013
21
-55.858627999999996
0
LINE
8
LYELLOW
6
CONTINUOUS
10
67.7380950000000013
20
-55.858627999999996
11
67.3571429999999935
21
-55.858627999999996
0
LINE
8
LYELLOW
6
CONTINUOUS
10
68.2142860000000013
20
-55.334818999999996
11
68.5476189999999974
21
-56.334818999999996
0
LINE
8
LYELLOW
6
CONTINUOUS
10
68.5476189999999974
20
-56.334818999999996
11
68.8809519999999935
21
-55.334818999999996
0
LINE
8
LYELLOW
6
CONTINUOUS
10
69.1190479999999923
20
-55.334818999999996
11
69.7380950000000013
21
-55.334818999999996
0
LINE
8
LYELLOW
6
CONTINUOUS
10
69.7380950000000013
20
-55.334818999999996
11
69.404761999999991
21
-55.7157709999999966
0
LINE
8
LYELLOW
6
CONTINUOUS
10
69.404761999999991
20
-55.7157709999999966
11
69.5476189999999974
21
-55.7157709999999966
0
LINE
8
LYELLOW
6
CONTINUOUS
10
69.5476189999999974
20
-55.7157709999999966
11
69.6428569999999922
21
-55.763389999999994
0
LINE
8
LYELLOW
6
CONTINUOUS
10
69.6428569999999922
20
-55.763389999999994
11
69.6904760000000039
21
-55.8110089999999985
0
LINE
8
LYELLOW
6
CONTINUOUS
10
69.6904760000000039
20
-55.8110089999999985
11
69.7380950000000013
21
-55.9062470000000005
0
LINE
8
LYELLOW
6
CONTINUOUS
10
69.7380950000000013
20
-55.9062470000000005
11
69.7380950000000013
21
-56.1443419999999946
0
LINE
8
LYELLOW
6
CONTINUOUS
10
69.7380950000000013
20
-56.1443419999999946
11
69.6904760000000039
21
-56.2395799999999966
0
LINE
8
LYELLOW
6
CONTINUOUS
10
69.6904760000000039
20
-56.2395799999999966
11
69.6428569999999922
21
-56.2871999999999986
0
LINE
8
LYELLOW
6
CONTINUOUS
10
69.6428569999999922
20
-56.2871999999999986
11
69.5476189999999974
21
-56.334818999999996
0
LINE
8
LYELLOW
6
CONTINUOUS
10
69.5476189999999974
20
-56.334818999999996
11
69.2619049999999987
21
-56.334818999999996
0
LINE
8
LYELLOW
6
CONTINUOUS
10
69.2619049999999987
20
-56.334818999999996
11
69.1666670000000039
21
-56.2871999999999986
0
LINE
8
LYELLOW
6
CONTINUOUS
10
69.1666670000000039
20
-56.2871999999999986
11
69.1190479999999923
21
-56.2395799999999966
0
LINE
8
LYELLOW
6
CONTINUOUS
10
70.0714289999999949
20
-55.334818999999996
11
70.6904760000000039
21
-55.334818999999996
0
LINE
8
LYELLOW
6
CONTINUOUS
10
70.6904760000000039
20
-55.334818999999996
11
70.3571429999999935
21
-55.7157709999999966
0
LINE
8
LYELLOW
6
CONTINUOUS
10
70.3571429999999935
20
-55.7157709999999966
11
70.5
21
-55.7157709999999966
0
LINE
8
LYELLOW
6
CONTINUOUS
10
70.5
20
-55.7157709999999966
11
70.5952379999999948
21
-55.763389999999994
0
LINE
8
LYELLOW
6
CONTINUOUS
10
70.5952379999999948
20
-55.763389999999994
11
70.6428569999999922
21
-55.8110089999999985
0
LINE
8
LYELLOW
6
CONTINUOUS
10
70.6428569999999922
20
-55.8110089999999985
11
70.6904760000000039
21
-55.9062470000000005
0
LINE
8
LYELLOW
6
CONTINUOUS
10
70.6904760000000039
20
-55.9062470000000005
11
70.6904760000000039
21
-56.1443419999999946
0
LINE
8
LYELLOW
6
CONTINUOUS
10
70.6904760000000039
20
-56.1443419999999946
11
70.6428569999999922
21
-56.2395799999999966
0
LINE
8
LYELLOW
6
CONTINUOUS
10
70.6428569999999922
20
-56.2395799999999966
11
70.5952379999999948
21
-56.2871999999999986
0
LINE
8
LYELLOW
6
CONTINUOUS
10
70.5952379999999948
20
-56.2871999999999986
11
70.5
21
-56.334818999999996
0
LINE
8
LYELLOW
6
CONTINUOUS
10
70.5
20
-56.334818999999996
11
70.2142860000000013
21
-56.334818999999996
0
LINE
8
LYELLOW
6
CONTINUOUS
10
70.2142860000000013
20
-56.334818999999996
11
70.1190479999999923
21
-56.2871999999999986
0
LINE
8
LYELLOW
6
CONTINUOUS
10
70.1190479999999923
20
-56.2871999999999986
11
70.0714289999999949
21
-56.2395799999999966
0
LINE
8
LYELLOW
6
CONTINUOUS
10
106.6666659999999922
20
-46.3598189999999946
11
106.6666659999999922
21
-47.0741039999999984
0
LINE
8
LYELLOW
6
CONTINUOUS
10
106.6666659999999922
20
-47.0741039999999984
11
106.6190469999999948
21
-47.2169609999999977
0
LINE
8
LYELLOW
6
CONTINUOUS
10
106.6190469999999948
20
-47.2169609999999977
11
106.523809
21
-47.3121999999999971
0
LINE
8
LYELLOW
6
CONTINUOUS
10
106.523809
20
-47.3121999999999971
11
106.3809519999999935
21
-47.3598189999999946
0
LINE
8
LYELLOW
6
CONTINUOUS
10
106.3809519999999935
20
-47.3598189999999946
11
106.2857139999999987
21
-47.3598189999999946
0
LINE
8
LYELLOW
6
CONTINUOUS
10
107.2857139999999987
20
-46.7883899999999997
11
107.1904759999999897
21
-46.7407709999999952
0
LINE
8
LYELLOW
6
CONTINUOUS
10
107.1904759999999897
20
-46.7407709999999952
11
107.1428569999999922
21
-46.6931519999999978
0
LINE
8
LYELLOW
6
CONTINUOUS
10
107.1428569999999922
20
-46.6931519999999978
11
107.0952379999999948
21
-46.5979139999999958
0
LINE
8
LYELLOW
6
CONTINUOUS
10
107.0952379999999948
20
-46.5979139999999958
11
107.0952379999999948
21
-46.5502949999999984
0
LINE
8
LYELLOW
6
CONTINUOUS
10
107.0952379999999948
20
-46.5502949999999984
11
107.1428569999999922
21
-46.4550569999999965
0
LINE
8
LYELLOW
6
CONTINUOUS
10
107.1428569999999922
20
-46.4550569999999965
11
107.1904759999999897
21
-46.4074379999999991
0
LINE
8
LYELLOW
6
CONTINUOUS
10
107.1904759999999897
20
-46.4074379999999991
11
107.2857139999999987
21
-46.3598189999999946
0
LINE
8
LYELLOW
6
CONTINUOUS
10
107.2857139999999987
20
-46.3598189999999946
11
107.4761899999999883
21
-46.3598189999999946
0
LINE
8
LYELLOW
6
CONTINUOUS
10
107.4761899999999883
20
-46.3598189999999946
11
107.5714279999999974
21
-46.4074379999999991
0
LINE
8
LYELLOW
6
CONTINUOUS
10
107.5714279999999974
20
-46.4074379999999991
11
107.6190469999999948
21
-46.4550569999999965
0
LINE
8
LYELLOW
6
CONTINUOUS
10
107.6190469999999948
20
-46.4550569999999965
11
107.6666659999999922
21
-46.5502949999999984
0
LINE
8
LYELLOW
6
CONTINUOUS
10
107.6666659999999922
20
-46.5502949999999984
11
107.6666659999999922
21
-46.5979139999999958
0
LINE
8
LYELLOW
6
CONTINUOUS
10
107.6666659999999922
20
-46.5979139999999958
11
107.6190469999999948
21
-46.6931519999999978
0
LINE
8
LYELLOW
6
CONTINUOUS
10
107.6190469999999948
20
-46.6931519999999978
11
107.5714279999999974
21
-46.7407709999999952
0
LINE
8
LYELLOW
6
CONTINUOUS
10
107.5714279999999974
20
-46.7407709999999952
11
107.4761899999999883
21
-46.7883899999999997
0
LINE
8
LYELLOW
6
CONTINUOUS
10
107.4761899999999883
20
-46.7883899999999997
11
107.2857139999999987
21
-46.7883899999999997
0
LINE
8
LYELLOW
6
CONTINUOUS
10
107.2857139999999987
20
-46.7883899999999997
11
107.1904759999999897
21
-46.8360089999999971
0
LINE
8
LYELLOW
6
CONTINUOUS
10
107.1904759999999897
20
-46.8360089999999971
11
107.1428569999999922
21
-46.8836279999999945
0
LINE
8
LYELLOW
6
CONTINUOUS
10
107.1428569999999922
20
-46.8836279999999945
11
107.0952379999999948
21
-46.9788659999999965
0
LINE
8
LYELLOW
6
CONTINUOUS
10
107.0952379999999948
20
-46.9788659999999965
11
107.0952379999999948
21
-47.1693420000000003
0
LINE
8
LYELLOW
6
CONTINUOUS
10
107.0952379999999948
20
-47.1693420000000003
11
107.1428569999999922
21
-47.2645799999999952
0
LINE
8
LYELLOW
6
CONTINUOUS
10
107.1428569999999922
20
-47.2645799999999952
11
107.1904759999999897
21
-47.3121999999999971
0
LINE
8
LYELLOW
6
CONTINUOUS
10
107.1904759999999897
20
-47.3121999999999971
11
107.2857139999999987
21
-47.3598189999999946
0
LINE
8
LYELLOW
6
CONTINUOUS
10
107.2857139999999987
20
-47.3598189999999946
11
107.4761899999999883
21
-47.3598189999999946
0
LINE
8
LYELLOW
6
CONTINUOUS
10
107.4761899999999883
20
-47.3598189999999946
11
107.5714279999999974
21
-47.3121999999999971
0
LINE
8
LYELLOW
6
CONTINUOUS
10
107.5714279999999974
20
-47.3121999999999971
11
107.6190469999999948
21
-47.2645799999999952
0
LINE
8
LYELLOW
6
CONTINUOUS
10
107.6190469999999948
20
-47.2645799999999952
11
107.6666659999999922
21
-47.1693420000000003
0
LINE
8
LYELLOW
6
CONTINUOUS
10
107.6666659999999922
20
-47.1693420000000003
11
107.6666659999999922
21
-46.9788659999999965
0
LINE
8
LYELLOW
6
CONTINUOUS
10
107.6666659999999922
20
-46.9788659999999965
11
107.6190469999999948
21
-46.8836279999999945
0
LINE
8
LYELLOW
6
CONTINUOUS
10
107.6190469999999948
20
-46.8836279999999945
11
107.5714279999999974
21
-46.8360089999999971
0
LINE
8
LYELLOW
6
CONTINUOUS
10
107.5714279999999974
20
-46.8360089999999971
11
107.4761899999999883
21
-46.7883899999999997
0
LINE
8
LYELLOW
6
CONTINUOUS
10
106.1904759999999897
20
-35.7848189999999988
11
106.1904759999999897
21
-36.4991039999999956
0
LINE
8
LYELLOW
6
CONTINUOUS
10
106.1904759999999897
20
-36.4991039999999956
11
106.1428569999999922
21
-36.6419609999999949
0
LINE
8
LYELLOW
6
CONTINUOUS
10
106.1428569999999922
20
-36.6419609999999949
11
106.0476189999999974
21
-36.7372000000000014
0
LINE
8
LYELLOW
6
CONTINUOUS
10
106.0476189999999974
20
-36.7372000000000014
11
105.904761999999991
21
-36.7848189999999988
0
LINE
8
LYELLOW
6
CONTINUOUS
10
105.904761999999991
20
-36.7848189999999988
11
105.8095239999999961
21
-36.7848189999999988
0
LINE
8
LYELLOW
6
CONTINUOUS
10
107.1904759999999897
20
-36.7848189999999988
11
106.6190479999999923
21
-36.7848189999999988
0
LINE
8
LYELLOW
6
CONTINUOUS
10
106.904761999999991
20
-36.7848189999999988
11
106.904761999999991
21
-35.7848189999999988
0
LINE
8
LYELLOW
6
CONTINUOUS
10
106.904761999999991
20
-35.7848189999999988
11
106.8095239999999961
21
-35.9276759999999982
0
LINE
8
LYELLOW
6
CONTINUOUS
10
106.8095239999999961
20
-35.9276759999999982
11
106.7142860000000013
21
-36.0229140000000001
0
LINE
8
LYELLOW
6
CONTINUOUS
10
106.7142860000000013
20
-36.0229140000000001
11
106.6190479999999923
21
-36.0705329999999975
0
LINE
8
LYELLOW
6
CONTINUOUS
10
107.8095239999999961
20
-35.7848189999999988
11
107.904761999999991
21
-35.7848189999999988
0
LINE
8
LYELLOW
6
CONTINUOUS
10
107.904761999999991
20
-35.7848189999999988
11
108.
21
-35.8324379999999962
0
LINE
8
LYELLOW
6
CONTINUOUS
10
108.
20
-35.8324379999999962
11
108.0476189999999974
21
-35.8800570000000008
0
LINE
8
LYELLOW
6
CONTINUOUS
10
108.0476189999999974
20
-35.8800570000000008
11
108.0952379999999948
21
-35.9752949999999956
0
LINE
8
LYELLOW
6
CONTINUOUS
10
108.0952379999999948
20
-35.9752949999999956
11
108.1428569999999922
21
-36.1657709999999994
0
LINE
8
LYELLOW
6
CONTINUOUS
10
108.1428569999999922
20
-36.1657709999999994
11
108.1428569999999922
21
-36.4038660000000007
0
LINE
8
LYELLOW
6
CONTINUOUS
10
108.1428569999999922
20
-36.4038660000000007
11
108.0952379999999948
21
-36.5943419999999975
0
LINE
8
LYELLOW
6
CONTINUOUS
10
108.0952379999999948
20
-36.5943419999999975
11
108.0476189999999974
21
-36.6895799999999994
0
LINE
8
LYELLOW
6
CONTINUOUS
10
108.0476189999999974
20
-36.6895799999999994
11
108.
21
-36.7372000000000014
0
LINE
8
LYELLOW
6
CONTINUOUS
10
108.
20
-36.7372000000000014
11
107.904761999999991
21
-36.7848189999999988
0
LINE
8
LYELLOW
6
CONTINUOUS
10
107.904761999999991
20
-36.7848189999999988
11
107.8095239999999961
21
-36.7848189999999988
0
LINE
8
LYELLOW
6
CONTINUOUS
10
107.8095239999999961
20
-36.7848189999999988
11
107.7142860000000013
21
-36.7372000000000014
0
LINE
8
LYELLOW
6
CONTINUOUS
10
107.7142860000000013
20
-36.7372000000000014
11
107.6666669999999897
21
-36.6895799999999994
0
LINE
8
LYELLOW
6
CONTINUOUS
10
107.6666669999999897
20
-36.6895799999999994
11
107.6190479999999923
21
-36.5943419999999975
0
LINE
8
LYELLOW
6
CONTINUOUS
10
107.6190479999999923
20
-36.5943419999999975
11
107.5714289999999949
21
-36.4038660000000007
0
LINE
8
LYELLOW
6
CONTINUOUS
10
107.5714289999999949
20
-36.4038660000000007
11
107.5714289999999949
21
-36.1657709999999994
0
LINE
8
LYELLOW
6
CONTINUOUS
10
107.5714289999999949
20
-36.1657709999999994
11
107.6190479999999923
21
-35.9752949999999956
0
LINE
8
LYELLOW
6
CONTINUOUS
10
107.6190479999999923
20
-35.9752949999999956
11
107.6666669999999897
21
-35.8800570000000008
0
LINE
8
LYELLOW
6
CONTINUOUS
10
107.6666669999999897
20
-35.8800570000000008
11
107.7142860000000013
21
-35.8324379999999962
0
LINE
8
LYELLOW
6
CONTINUOUS
10
107.7142860000000013
20
-35.8324379999999962
11
107.8095239999999961
21
-35.7848189999999988
0
LINE
8
LYELLOW
6
CONTINUOUS
10
88.4047609999999935
20
-69.334818999999996
11
88.0714279999999974
21
-68.858627999999996
0
LINE
8
LYELLOW
6
CONTINUOUS
10
87.8333329999999961
20
-69.334818999999996
11
87.8333329999999961
21
-68.334818999999996
0
LINE
8
LYELLOW
6
CONTINUOUS
10
87.8333329999999961
20
-68.334818999999996
11
88.2142849999999896
21
-68.334818999999996
0
LINE
8
LYELLOW
6
CONTINUOUS
10
88.2142849999999896
20
-68.334818999999996
11
88.3095229999999987
21
-68.3824379999999934
0
LINE
8
LYELLOW
6
CONTINUOUS
10
88.3095229999999987
20
-68.3824379999999934
11
88.3571419999999961
21
-68.4300569999999908
0
LINE
8
LYELLOW
6
CONTINUOUS
10
88.3571419999999961
20
-68.4300569999999908
11
88.4047609999999935
21
-68.5252949999999998
0
LINE
8
LYELLOW
6
CONTINUOUS
10
88.4047609999999935
20
-68.5252949999999998
11
88.4047609999999935
21
-68.6681519999999921
0
LINE
8
LYELLOW
6
CONTINUOUS
10
88.4047609999999935
20
-68.6681519999999921
11
88.3571419999999961
21
-68.7633900000000011
0
LINE
8
LYELLOW
6
CONTINUOUS
10
88.3571419999999961
20
-68.7633900000000011
11
88.3095229999999987
21
-68.8110089999999985
0
LINE
8
LYELLOW
6
CONTINUOUS
10
88.3095229999999987
20
-68.8110089999999985
11
88.2142849999999896
21
-68.858627999999996
0
LINE
8
LYELLOW
6
CONTINUOUS
10
88.2142849999999896
20
-68.858627999999996
11
87.8333329999999961
21
-68.858627999999996
0
LINE
8
LYELLOW
6
CONTINUOUS
10
89.1666659999999922
20
-68.8110089999999985
11
88.8333329999999961
21
-68.8110089999999985
0
LINE
8
LYELLOW
6
CONTINUOUS
10
88.8333329999999961
20
-69.334818999999996
11
88.8333329999999961
21
-68.334818999999996
0
LINE
8
LYELLOW
6
CONTINUOUS
10
88.8333329999999961
20
-68.334818999999996
11
89.3095229999999987
21
-68.334818999999996
0
LINE
8
LYELLOW
6
CONTINUOUS
10
90.2142849999999896
20
-69.334818999999996
11
89.6428569999999922
21
-69.334818999999996
0
LINE
8
LYELLOW
6
CONTINUOUS
10
89.9285709999999909
20
-69.334818999999996
11
89.9285709999999909
21
-68.334818999999996
0
LINE
8
LYELLOW
6
CONTINUOUS
10
89.9285709999999909
20
-68.334818999999996
11
89.8333329999999961
21
-68.4776760000000024
0
LINE
8
LYELLOW
6
CONTINUOUS
10
89.8333329999999961
20
-68.4776760000000024
11
89.7380950000000013
21
-68.5729139999999973
0
LINE
8
LYELLOW
6
CONTINUOUS
10
89.7380950000000013
20
-68.5729139999999973
11
89.6428569999999922
21
-68.6205329999999947
0
LINE
8
LYELLOW
6
CONTINUOUS
10
54.3571419999999961
20
-96.334818999999996
11
54.023809
21
-95.858627999999996
0
LINE
8
LYELLOW
6
CONTINUOUS
10
53.7857139999999987
20
-96.334818999999996
11
53.7857139999999987
21
-95.334818999999996
0
LINE
8
LYELLOW
6
CONTINUOUS
10
53.7857139999999987
20
-95.334818999999996
11
54.1666659999999993
21
-95.334818999999996
0
LINE
8
LYELLOW
6
CONTINUOUS
10
54.1666659999999993
20
-95.334818999999996
11
54.2619039999999941
21
-95.3824379999999934
0
LINE
8
LYELLOW
6
CONTINUOUS
10
54.2619039999999941
20
-95.3824379999999934
11
54.3095229999999987
21
-95.4300569999999908
0
LINE
8
LYELLOW
6
CONTINUOUS
10
54.3095229999999987
20
-95.4300569999999908
11
54.3571419999999961
21
-95.5252949999999998
0
LINE
8
LYELLOW
6
CONTINUOUS
10
54.3571419999999961
20
-95.5252949999999998
11
54.3571419999999961
21
-95.6681519999999921
0
LINE
8
LYELLOW
6
CONTINUOUS
10
54.3571419999999961
20
-95.6681519999999921
11
54.3095229999999987
21
-95.7633900000000011
0
LINE
8
LYELLOW
6
CONTINUOUS
10
54.3095229999999987
20
-95.7633900000000011
11
54.2619039999999941
21
-95.8110089999999985
0
LINE
8
LYELLOW
6
CONTINUOUS
10
54.2619039999999941
20
-95.8110089999999985
11
54.1666659999999993
21
-95.858627999999996
0
LINE
8
LYELLOW
6
CONTINUOUS
10
54.1666659999999993
20
-95.858627999999996
11
53.7857139999999987
21
-95.858627999999996
0
LINE
8
LYELLOW
6
CONTINUOUS
10
54.6904759999999968
20
-95.334818999999996
11
55.3095229999999987
21
-95.334818999999996
0
LINE
8
LYELLOW
6
CONTINUOUS
10
55.3095229999999987
20
-95.334818999999996
11
54.9761899999999955
21
-95.7157709999999895
0
LINE
8
LYELLOW
6
CONTINUOUS
10
54.9761899999999955
20
-95.7157709999999895
11
55.1190469999999948
21
-95.7157709999999895
0
LINE
8
LYELLOW
6
CONTINUOUS
10
55.1190469999999948
20
-95.7157709999999895
11
55.2142849999999967
21
-95.7633900000000011
0
LINE
8
LYELLOW
6
CONTINUOUS
10
55.2142849999999967
20
-95.7633900000000011
11
55.2619039999999941
21
-95.8110089999999985
0
LINE
8
LYELLOW
6
CONTINUOUS
10
55.2619039999999941
20
-95.8110089999999985
11
55.3095229999999987
21
-95.9062469999999934
0
LINE
8
LYELLOW
6
CONTINUOUS
10
55.3095229999999987
20
-95.9062469999999934
11
55.3095229999999987
21
-96.1443419999999946
0
LINE
8
LYELLOW
6
CONTINUOUS
10
55.3095229999999987
20
-96.1443419999999946
11
55.2619039999999941
21
-96.2395799999999895
0
LINE
8
LYELLOW
6
CONTINUOUS
10
55.2619039999999941
20
-96.2395799999999895
11
55.2142849999999967
21
-96.2871999999999986
0
LINE
8
LYELLOW
6
CONTINUOUS
10
55.2142849999999967
20
-96.2871999999999986
11
55.1190469999999948
21
-96.334818999999996
0
LINE
8
LYELLOW
6
CONTINUOUS
10
55.1190469999999948
20
-96.334818999999996
11
54.8333329999999961
21
-96.334818999999996
0
LINE
8
LYELLOW
6
CONTINUOUS
10
54.8333329999999961
20
-96.334818999999996
11
54.7380949999999942
21
-96.2871999999999986
0
LINE
8
LYELLOW
6
CONTINUOUS
10
54.7380949999999942
20
-96.2871999999999986
11
54.6904759999999968
21
-96.2395799999999895
0
LINE
8
LYELLOW
6
CONTINUOUS
10
56.2619039999999941
20
-96.334818999999996
11
55.6904759999999968
21
-96.334818999999996
0
LINE
8
LYELLOW
6
CONTINUOUS
10
55.9761899999999955
20
-96.334818999999996
11
55.9761899999999955
21
-95.334818999999996
0
LINE
8
LYELLOW
6
CONTINUOUS
10
55.9761899999999955
20
-95.334818999999996
11
55.8809520000000006
21
-95.4776760000000024
0
LINE
8
LYELLOW
6
CONTINUOUS
10
55.8809520000000006
20
-95.4776760000000024
11
55.7857139999999987
21
-95.5729139999999973
0
LINE
8
LYELLOW
6
CONTINUOUS
10
55.7857139999999987
20
-95.5729139999999973
11
55.6904759999999968
21
-95.6205329999999947
0
LINE
8
LYELLOW
6
CONTINUOUS
10
51.928570999999998
20
-35.334818999999996
11
51.5952379999999948
21
-34.858627999999996
0
LINE
8
LYELLOW
6
CONTINUOUS
10
51.3571430000000007
20
-35.334818999999996
11
51.3571430000000007
21
-34.334818999999996
0
LINE
8
LYELLOW
6
CONTINUOUS
10
51.3571430000000007
20
-34.334818999999996
11
51.7380949999999942
21
-34.334818999999996
0
LINE
8
LYELLOW
6
CONTINUOUS
10
51.7380949999999942
20
-34.334818999999996
11
51.8333329999999961
21
-34.3824380000000005
0
LINE
8
LYELLOW
6
CONTINUOUS
10
51.8333329999999961
20
-34.3824380000000005
11
51.8809520000000006
21
-34.4300569999999979
0
LINE
8
LYELLOW
6
CONTINUOUS
10
51.8809520000000006
20
-34.4300569999999979
11
51.928570999999998
21
-34.5252949999999998
0
LINE
8
LYELLOW
6
CONTINUOUS
10
51.928570999999998
20
-34.5252949999999998
11
51.928570999999998
21
-34.6681519999999992
0
LINE
8
LYELLOW
6
CONTINUOUS
10
51.928570999999998
20
-34.6681519999999992
11
51.8809520000000006
21
-34.7633900000000011
0
LINE
8
LYELLOW
6
CONTINUOUS
10
51.8809520000000006
20
-34.7633900000000011
11
51.8333329999999961
21
-34.8110089999999985
0
LINE
8
LYELLOW
6
CONTINUOUS
10
51.8333329999999961
20
-34.8110089999999985
11
51.7380949999999942
21
-34.858627999999996
0
LINE
8
LYELLOW
6
CONTINUOUS
10
51.7380949999999942
20
-34.858627999999996
11
51.3571430000000007
21
-34.858627999999996
0
LINE
8
LYELLOW
6
CONTINUOUS
10
52.2142859999999942
20
-34.334818999999996
11
52.5476189999999974
21
-35.334818999999996
0
LINE
8
LYELLOW
6
CONTINUOUS
10
52.5476189999999974
20
-35.334818999999996
11
52.8809520000000006
21
-34.334818999999996
0
LINE
8
LYELLOW
6
CONTINUOUS
10
53.7380949999999942
20
-35.334818999999996
11
53.1666669999999968
21
-35.334818999999996
0
LINE
8
LYELLOW
6
CONTINUOUS
10
53.4523809999999955
20
-35.334818999999996
11
53.4523809999999955
21
-34.334818999999996
0
LINE
8
LYELLOW
6
CONTINUOUS
10
53.4523809999999955
20
-34.334818999999996
11
53.3571430000000007
21
-34.4776759999999953
0
LINE
8
LYELLOW
6
CONTINUOUS
10
53.3571430000000007
20
-34.4776759999999953
11
53.2619049999999987
21
-34.5729139999999973
0
LINE
8
LYELLOW
6
CONTINUOUS
10
53.2619049999999987
20
-34.5729139999999973
11
53.1666669999999968
21
-34.6205330000000018
0
LINE
8
LYELLOW
6
CONTINUOUS
10
54.1190479999999994
20
-34.4300569999999979
11
54.1666669999999968
21
-34.3824380000000005
0
LINE
8
LYELLOW
6
CONTINUOUS
10
54.1666669999999968
20
-34.3824380000000005
11
54.2619049999999987
21
-34.334818999999996
0
LINE
8
LYELLOW
6
CONTINUOUS
10
54.2619049999999987
20
-34.334818999999996
11
54.5
21
-34.334818999999996
0
LINE
8
LYELLOW
6
CONTINUOUS
10
54.5
20
-34.334818999999996
11
54.5952379999999948
21
-34.3824380000000005
0
LINE
8
LYELLOW
6
CONTINUOUS
10
54.5952379999999948
20
-34.3824380000000005
11
54.6428569999999993
21
-34.4300569999999979
0
LINE
8
LYELLOW
6
CONTINUOUS
10
54.6428569999999993
20
-34.4300569999999979
11
54.6904759999999968
21
-34.5252949999999998
0
LINE
8
LYELLOW
6
CONTINUOUS
10
54.6904759999999968
20
-34.5252949999999998
11
54.6904759999999968
21
-34.6205330000000018
0
LINE
8
LYELLOW
6
CONTINUOUS
10
54.6904759999999968
20
-34.6205330000000018
11
54.6428569999999993
21
-34.7633900000000011
0
LINE
8
LYELLOW
6
CONTINUOUS
10
54.6428569999999993
20
-34.7633900000000011
11
54.0714289999999949
21
-35.334818999999996
0
LINE
8
LYELLOW
6
CONTINUOUS
10
54.0714289999999949
20
-35.334818999999996
11
54.6904759999999968
21
-35.334818999999996
0
LINE
8
LYELLOW
6
CONTINUOUS
10
36.6666659999999993
20
-34.7848189999999988
11
36.6666659999999993
21
-35.4991039999999956
0
LINE
8
LYELLOW
6
CONTINUOUS
10
36.6666659999999993
20
-35.4991039999999956
11
36.6190469999999948
21
-35.6419609999999949
0
LINE
8
LYELLOW
6
CONTINUOUS
10
36.6190469999999948
20
-35.6419609999999949
11
36.523809
21
-35.7372000000000014
0
LINE
8
LYELLOW
6
CONTINUOUS
10
36.523809
20
-35.7372000000000014
11
36.3809520000000006
21
-35.7848189999999988
0
LINE
8
LYELLOW
6
CONTINUOUS
10
36.3809520000000006
20
-35.7848189999999988
11
36.2857139999999987
21
-35.7848189999999988
0
LINE
8
LYELLOW
6
CONTINUOUS
10
37.6666659999999993
20
-35.7848189999999988
11
37.0952379999999948
21
-35.7848189999999988
0
LINE
8
LYELLOW
6
CONTINUOUS
10
37.3809520000000006
20
-35.7848189999999988
11
37.3809520000000006
21
-34.7848189999999988
0
LINE
8
LYELLOW
6
CONTINUOUS
10
37.3809520000000006
20
-34.7848189999999988
11
37.2857139999999987
21
-34.9276759999999982
0
LINE
8
LYELLOW
6
CONTINUOUS
10
37.2857139999999987
20
-34.9276759999999982
11
37.1904759999999968
21
-35.0229140000000001
0
LINE
8
LYELLOW
6
CONTINUOUS
10
37.1904759999999968
20
-35.0229140000000001
11
37.0952379999999948
21
-35.0705329999999975
0
LINE
8
LYELLOW
6
CONTINUOUS
10
53.8333329999999961
20
-74.334818999999996
11
53.5
21
-73.858627999999996
0
LINE
8
LYELLOW
6
CONTINUOUS
10
53.2619049999999987
20
-74.334818999999996
11
53.2619049999999987
21
-73.334818999999996
0
LINE
8
LYELLOW
6
CONTINUOUS
10
53.2619049999999987
20
-73.334818999999996
11
53.6428569999999993
21
-73.334818999999996
0
LINE
8
LYELLOW
6
CONTINUOUS
10
53.6428569999999993
20
-73.334818999999996
11
53.7380949999999942
21
-73.3824379999999934
0
LINE
8
LYELLOW
6
CONTINUOUS
10
53.7380949999999942
20
-73.3824379999999934
11
53.7857139999999987
21
-73.4300569999999908
0
LINE
8
LYELLOW
6
CONTINUOUS
10
53.7857139999999987
20
-73.4300569999999908
11
53.8333329999999961
21
-73.5252949999999998
0
LINE
8
LYELLOW
6
CONTINUOUS
10
53.8333329999999961
20
-73.5252949999999998
11
53.8333329999999961
21
-73.6681519999999921
0
LINE
8
LYELLOW
6
CONTINUOUS
10
53.8333329999999961
20
-73.6681519999999921
11
53.7857139999999987
21
-73.7633900000000011
0
LINE
8
LYELLOW
6
CONTINUOUS
10
53.7857139999999987
20
-73.7633900000000011
11
53.7380949999999942
21
-73.8110089999999985
0
LINE
8
LYELLOW
6
CONTINUOUS
10
53.7380949999999942
20
-73.8110089999999985
11
53.6428569999999993
21
-73.858627999999996
0
LINE
8
LYELLOW
6
CONTINUOUS
10
53.6428569999999993
20
-73.858627999999996
11
53.2619049999999987
21
-73.858627999999996
0
LINE
8
LYELLOW
6
CONTINUOUS
10
54.2142859999999942
20
-74.2871999999999986
11
54.3571430000000007
21
-74.334818999999996
0
LINE
8
LYELLOW
6
CONTINUOUS
10
54.3571430000000007
20
-74.334818999999996
11
54.5952379999999948
21
-74.334818999999996
0
LINE
8
LYELLOW
6
CONTINUOUS
10
54.5952379999999948
20
-74.334818999999996
11
54.6904759999999968
21
-74.2871999999999986
0
LINE
8
LYELLOW
6
CONTINUOUS
10
54.6904759999999968
20
-74.2871999999999986
11
54.7380949999999942
21
-74.2395800000000037
0
LINE
8
LYELLOW
6
CONTINUOUS
10
54.7380949999999942
20
-74.2395800000000037
11
54.7857139999999987
21
-74.1443419999999946
0
LINE
8
LYELLOW
6
CONTINUOUS
10
54.7857139999999987
20
-74.1443419999999946
11
54.7857139999999987
21
-74.0491039999999998
0
LINE
8
LYELLOW
6
CONTINUOUS
10
54.7857139999999987
20
-74.0491039999999998
11
54.7380949999999942
21
-73.9538659999999908
0
LINE
8
LYELLOW
6
CONTINUOUS
10
54.7380949999999942
20
-73.9538659999999908
11
54.6904759999999968
21
-73.9062469999999934
0
LINE
8
LYELLOW
6
CONTINUOUS
10
54.6904759999999968
20
-73.9062469999999934
11
54.5952379999999948
21
-73.858627999999996
0
LINE
8
LYELLOW
6
CONTINUOUS
10
54.5952379999999948
20
-73.858627999999996
11
54.4047619999999981
21
-73.8110089999999985
0
LINE
8
LYELLOW
6
CONTINUOUS
10
54.4047619999999981
20
-73.8110089999999985
11
54.3095239999999961
21
-73.7633900000000011
0
LINE
8
LYELLOW
6
CONTINUOUS
10
54.3095239999999961
20
-73.7633900000000011
11
54.2619049999999987
21
-73.7157710000000037
0
LINE
8
LYELLOW
6
CONTINUOUS
10
54.2619049999999987
20
-73.7157710000000037
11
54.2142859999999942
21
-73.6205329999999947
0
LINE
8
LYELLOW
6
CONTINUOUS
10
54.2142859999999942
20
-73.6205329999999947
11
54.2142859999999942
21
-73.5252949999999998
0
LINE
8
LYELLOW
6
CONTINUOUS
10
54.2142859999999942
20
-73.5252949999999998
11
54.2619049999999987
21
-73.4300569999999908
0
LINE
8
LYELLOW
6
CONTINUOUS
10
54.2619049999999987
20
-73.4300569999999908
11
54.3095239999999961
21
-73.3824379999999934
0
LINE
8
LYELLOW
6
CONTINUOUS
10
54.3095239999999961
20
-73.3824379999999934
11
54.4047619999999981
21
-73.334818999999996
0
LINE
8
LYELLOW
6
CONTINUOUS
10
54.4047619999999981
20
-73.334818999999996
11
54.6428569999999993
21
-73.334818999999996
0
LINE
8
LYELLOW
6
CONTINUOUS
10
54.6428569999999993
20
-73.334818999999996
11
54.7857139999999987
21
-73.3824379999999934
0
LINE
8
LYELLOW
6
CONTINUOUS
10
55.2142859999999942
20
-74.334818999999996
11
55.2142859999999942
21
-73.334818999999996
0
LINE
8
LYELLOW
6
CONTINUOUS
10
55.2142859999999942
20
-73.8110089999999985
11
55.7857139999999987
21
-73.8110089999999985
0
LINE
8
LYELLOW
6
CONTINUOUS
10
55.7857139999999987
20
-74.334818999999996
11
55.7857139999999987
21
-73.334818999999996
0
LINE
8
LYELLOW
6
CONTINUOUS
10
56.7857139999999987
20
-74.334818999999996
11
56.2142859999999942
21
-74.334818999999996
0
LINE
8
LYELLOW
6
CONTINUOUS
10
56.5
20
-74.334818999999996
11
56.5
21
-73.334818999999996
0
LINE
8
LYELLOW
6
CONTINUOUS
10
56.5
20
-73.334818999999996
11
56.4047619999999981
21
-73.4776760000000024
0
LINE
8
LYELLOW
6
CONTINUOUS
10
56.4047619999999981
20
-73.4776760000000024
11
56.3095239999999961
21
-73.5729139999999973
0
LINE
8
LYELLOW
6
CONTINUOUS
10
56.3095239999999961
20
-73.5729139999999973
11
56.2142859999999942
21
-73.6205329999999947
0
LINE
8
LYELLOW
6
CONTINUOUS
10
102.3333329999999961
20
-108.334818999999996
11
102.
21
-107.858627999999996
0
LINE
8
LYELLOW
6
CONTINUOUS
10
101.7619049999999987
20
-108.334818999999996
11
101.7619049999999987
21
-107.334818999999996
0
LINE
8
LYELLOW
6
CONTINUOUS
10
101.7619049999999987
20
-107.334818999999996
11
102.1428569999999922
21
-107.334818999999996
0
LINE
8
LYELLOW
6
CONTINUOUS
10
102.1428569999999922
20
-107.334818999999996
11
102.2380950000000013
21
-107.3824379999999934
0
LINE
8
LYELLOW
6
CONTINUOUS
10
102.2380950000000013
20
-107.3824379999999934
11
102.2857139999999987
21
-107.4300569999999908
0
LINE
8
LYELLOW
6
CONTINUOUS
10
102.2857139999999987
20
-107.4300569999999908
11
102.3333329999999961
21
-107.5252949999999998
0
LINE
8
LYELLOW
6
CONTINUOUS
10
102.3333329999999961
20
-107.5252949999999998
11
102.3333329999999961
21
-107.6681519999999921
0
LINE
8
LYELLOW
6
CONTINUOUS
10
102.3333329999999961
20
-107.6681519999999921
11
102.2857139999999987
21
-107.7633900000000011
0
LINE
8
LYELLOW
6
CONTINUOUS
10
102.2857139999999987
20
-107.7633900000000011
11
102.2380950000000013
21
-107.8110089999999985
0
LINE
8
LYELLOW
6
CONTINUOUS
10
102.2380950000000013
20
-107.8110089999999985
11
102.1428569999999922
21
-107.858627999999996
0
LINE
8
LYELLOW
6
CONTINUOUS
10
102.1428569999999922
20
-107.858627999999996
11
101.7619049999999987
21
-107.858627999999996
0
LINE
8
LYELLOW
6
CONTINUOUS
10
103.0952379999999948
20
-107.8110089999999985
11
103.2380950000000013
21
-107.858627999999996
0
LINE
8
LYELLOW
6
CONTINUOUS
10
103.2380950000000013
20
-107.858627999999996
11
103.2857139999999987
21
-107.9062469999999934
0
LINE
8
LYELLOW
6
CONTINUOUS
10
103.2857139999999987
20
-107.9062469999999934
11
103.3333329999999961
21
-108.0014849999999882
0
LINE
8
LYELLOW
6
CONTINUOUS
10
103.3333329999999961
20
-108.0014849999999882
11
103.3333329999999961
21
-108.1443419999999946
0
LINE
8
LYELLOW
6
CONTINUOUS
10
103.3333329999999961
20
-108.1443419999999946
11
103.2857139999999987
21
-108.2395799999999895
0
LINE
8
LYELLOW
6
CONTINUOUS
10
103.2857139999999987
20
-108.2395799999999895
11
103.2380950000000013
21
-108.2871999999999986
0
LINE
8
LYELLOW
6
CONTINUOUS
10
103.2380950000000013
20
-108.2871999999999986
11
103.1428569999999922
21
-108.334818999999996
0
LINE
8
LYELLOW
6
CONTINUOUS
10
103.1428569999999922
20
-108.334818999999996
11
102.7619049999999987
21
-108.334818999999996
0
LINE
8
LYELLOW
6
CONTINUOUS
10
102.7619049999999987
20
-108.334818999999996
11
102.7619049999999987
21
-107.334818999999996
0
LINE
8
LYELLOW
6
CONTINUOUS
10
102.7619049999999987
20
-107.334818999999996
11
103.0952379999999948
21
-107.334818999999996
0
LINE
8
LYELLOW
6
CONTINUOUS
10
103.0952379999999948
20
-107.334818999999996
11
103.1904759999999897
21
-107.3824379999999934
0
LINE
8
LYELLOW
6
CONTINUOUS
10
103.1904759999999897
20
-107.3824379999999934
11
103.2380950000000013
21
-107.4300569999999908
0
LINE
8
LYELLOW
6
CONTINUOUS
10
103.2380950000000013
20
-107.4300569999999908
11
103.2857139999999987
21
-107.5252949999999998
0
LINE
8
LYELLOW
6
CONTINUOUS
10
103.2857139999999987
20
-107.5252949999999998
11
103.2857139999999987
21
-107.6205329999999947
0
LINE
8
LYELLOW
6
CONTINUOUS
10
103.2857139999999987
20
-107.6205329999999947
11
103.2380950000000013
21
-107.7157709999999895
0
LINE
8
LYELLOW
6
CONTINUOUS
10
103.2380950000000013
20
-107.7157709999999895
11
103.1904759999999897
21
-107.7633900000000011
0
LINE
8
LYELLOW
6
CONTINUOUS
10
103.1904759999999897
20
-107.7633900000000011
11
103.0952379999999948
21
-107.8110089999999985
0
LINE
8
LYELLOW
6
CONTINUOUS
10
103.0952379999999948
20
-107.8110089999999985
11
102.7619049999999987
21
-107.8110089999999985
0
LINE
8
LYELLOW
6
CONTINUOUS
10
103.7142860000000013
20
-107.4300569999999908
11
103.7619049999999987
21
-107.3824379999999934
0
LINE
8
LYELLOW
6
CONTINUOUS
10
103.7619049999999987
20
-107.3824379999999934
11
103.8571429999999935
21
-107.334818999999996
0
LINE
8
LYELLOW
6
CONTINUOUS
10
103.8571429999999935
20
-107.334818999999996
11
104.0952379999999948
21
-107.334818999999996
0
LINE
8
LYELLOW
6
CONTINUOUS
10
104.0952379999999948
20
-107.334818999999996
11
104.1904759999999897
21
-107.3824379999999934
0
LINE
8
LYELLOW
6
CONTINUOUS
10
104.1904759999999897
20
-107.3824379999999934
11
104.2380950000000013
21
-107.4300569999999908
0
LINE
8
LYELLOW
6
CONTINUOUS
10
104.2380950000000013
20
-107.4300569999999908
11
104.2857139999999987
21
-107.5252949999999998
0
LINE
8
LYELLOW
6
CONTINUOUS
10
104.2857139999999987
20
-107.5252949999999998
11
104.2857139999999987
21
-107.6205329999999947
0
LINE
8
LYELLOW
6
CONTINUOUS
10
104.2857139999999987
20
-107.6205329999999947
11
104.2380950000000013
21
-107.7633900000000011
0
LINE
8
LYELLOW
6
CONTINUOUS
10
104.2380950000000013
20
-107.7633900000000011
11
103.6666669999999897
21
-108.334818999999996
0
LINE
8
LYELLOW
6
CONTINUOUS
10
103.6666669999999897
20
-108.334818999999996
11
104.2857139999999987
21
-108.334818999999996
0
LINE
8
LYELLOW
6
CONTINUOUS
10
51.928570999999998
20
-42.334818999999996
11
51.5952379999999948
21
-41.858627999999996
0
LINE
8
LYELLOW
6
CONTINUOUS
10
51.3571430000000007
20
-42.334818999999996
11
51.3571430000000007
21
-41.334818999999996
0
LINE
8
LYELLOW
6
CONTINUOUS
10
51.3571430000000007
20
-41.334818999999996
11
51.7380949999999942
21
-41.334818999999996
0
LINE
8
LYELLOW
6
CONTINUOUS
10
51.7380949999999942
20
-41.334818999999996
11
51.8333329999999961
21
-41.3824380000000005
0
LINE
8
LYELLOW
6
CONTINUOUS
10
51.8333329999999961
20
-41.3824380000000005
11
51.8809520000000006
21
-41.4300569999999979
0
LINE
8
LYELLOW
6
CONTINUOUS
10
51.8809520000000006
20
-41.4300569999999979
11
51.928570999999998
21
-41.5252949999999998
0
LINE
8
LYELLOW
6
CONTINUOUS
10
51.928570999999998
20
-41.5252949999999998
11
51.928570999999998
21
-41.6681519999999992
0
LINE
8
LYELLOW
6
CONTINUOUS
10
51.928570999999998
20
-41.6681519999999992
11
51.8809520000000006
21
-41.7633900000000011
0
LINE
8
LYELLOW
6
CONTINUOUS
10
51.8809520000000006
20
-41.7633900000000011
11
51.8333329999999961
21
-41.8110089999999985
0
LINE
8
LYELLOW
6
CONTINUOUS
10
51.8333329999999961
20
-41.8110089999999985
11
51.7380949999999942
21
-41.858627999999996
0
LINE
8
LYELLOW
6
CONTINUOUS
10
51.7380949999999942
20
-41.858627999999996
11
51.3571430000000007
21
-41.858627999999996
0
LINE
8
LYELLOW
6
CONTINUOUS
10
52.2142859999999942
20
-41.334818999999996
11
52.5476189999999974
21
-42.334818999999996
0
LINE
8
LYELLOW
6
CONTINUOUS
10
52.5476189999999974
20
-42.334818999999996
11
52.8809520000000006
21
-41.334818999999996
0
LINE
8
LYELLOW
6
CONTINUOUS
10
53.1666669999999968
20
-41.4300569999999979
11
53.2142859999999942
21
-41.3824380000000005
0
LINE
8
LYELLOW
6
CONTINUOUS
10
53.2142859999999942
20
-41.3824380000000005
11
53.3095239999999961
21
-41.334818999999996
0
LINE
8
LYELLOW
6
CONTINUOUS
10
53.3095239999999961
20
-41.334818999999996
11
53.5476189999999974
21
-41.334818999999996
0
LINE
8
LYELLOW
6
CONTINUOUS
10
53.5476189999999974
20
-41.334818999999996
11
53.6428569999999993
21
-41.3824380000000005
0
LINE
8
LYELLOW
6
CONTINUOUS
10
53.6428569999999993
20
-41.3824380000000005
11
53.6904759999999968
21
-41.4300569999999979
0
LINE
8
LYELLOW
6
CONTINUOUS
10
53.6904759999999968
20
-41.4300569999999979
11
53.7380949999999942
21
-41.5252949999999998
0
LINE
8
LYELLOW
6
CONTINUOUS
10
53.7380949999999942
20
-41.5252949999999998
11
53.7380949999999942
21
-41.6205329999999947
0
LINE
8
LYELLOW
6
CONTINUOUS
10
53.7380949999999942
20
-41.6205329999999947
11
53.6904759999999968
21
-41.7633900000000011
0
LINE
8
LYELLOW
6
CONTINUOUS
10
53.6904759999999968
20
-41.7633900000000011
11
53.1190479999999994
21
-42.334818999999996
0
LINE
8
LYELLOW
6
CONTINUOUS
10
53.1190479999999994
20
-42.334818999999996
11
53.7380949999999942
21
-42.334818999999996
0
LINE
8
LYELLOW
6
CONTINUOUS
10
54.6904759999999968
20
-42.334818999999996
11
54.1190479999999994
21
-42.334818999999996
0
LINE
8
LYELLOW
6
CONTINUOUS
10
54.4047619999999981
20
-42.334818999999996
11
54.4047619999999981
21
-41.334818999999996
0
LINE
8
LYELLOW
6
CONTINUOUS
10
54.4047619999999981
20
-41.334818999999996
11
54.3095239999999961
21
-41.4776759999999953
0
LINE
8
LYELLOW
6
CONTINUOUS
10
54.3095239999999961
20
-41.4776759999999953
11
54.2142859999999942
21
-41.5729139999999973
0
LINE
8
LYELLOW
6
CONTINUOUS
10
54.2142859999999942
20
-41.5729139999999973
11
54.1190479999999994
21
-41.6205329999999947
0
LINE
8
LYELLOW
6
CONTINUOUS
10
83.8333329999999961
20
-28.5848189999999995
11
83.8333329999999961
21
-27.5848189999999995
0
LINE
8
LYELLOW
6
CONTINUOUS
10
83.8333329999999961
20
-27.5848189999999995
11
84.0714279999999974
21
-27.5848189999999995
0
LINE
8
LYELLOW
6
CONTINUOUS
10
84.0714279999999974
20
-27.5848189999999995
11
84.2142849999999896
21
-27.6324380000000005
0
LINE
8
LYELLOW
6
CONTINUOUS
10
84.2142849999999896
20
-27.6324380000000005
11
84.3095229999999987
21
-27.7276759999999989
0
LINE
8
LYELLOW
6
CONTINUOUS
10
84.3095229999999987
20
-27.7276759999999989
11
84.3571419999999961
21
-27.8229139999999973
0
LINE
8
LYELLOW
6
CONTINUOUS
10
84.3571419999999961
20
-27.8229139999999973
11
84.4047609999999935
21
-28.0133899999999976
0
LINE
8
LYELLOW
6
CONTINUOUS
10
84.4047609999999935
20
-28.0133899999999976
11
84.4047609999999935
21
-28.1562470000000005
0
LINE
8
LYELLOW
6
CONTINUOUS
10
84.4047609999999935
20
-28.1562470000000005
11
84.3571419999999961
21
-28.3467229999999972
0
LINE
8
LYELLOW
6
CONTINUOUS
10
84.3571419999999961
20
-28.3467229999999972
11
84.3095229999999987
21
-28.4419609999999992
0
LINE
8
LYELLOW
6
CONTINUOUS
10
84.3095229999999987
20
-28.4419609999999992
11
84.2142849999999896
21
-28.5371999999999986
0
LINE
8
LYELLOW
6
CONTINUOUS
10
84.2142849999999896
20
-28.5371999999999986
11
84.0714279999999974
21
-28.5848189999999995
0
LINE
8
LYELLOW
6
CONTINUOUS
10
84.0714279999999974
20
-28.5848189999999995
11
83.8333329999999961
21
-28.5848189999999995
0
LINE
8
LYELLOW
6
CONTINUOUS
10
84.6904759999999897
20
-27.5848189999999995
11
85.023809
21
-28.5848189999999995
0
LINE
8
LYELLOW
6
CONTINUOUS
10
85.023809
20
-28.5848189999999995
11
85.3571419999999961
21
-27.5848189999999995
0
LINE
8
LYELLOW
6
CONTINUOUS
10
86.2142849999999896
20
-28.5848189999999995
11
85.6428569999999922
21
-28.5848189999999995
0
LINE
8
LYELLOW
6
CONTINUOUS
10
85.9285709999999909
20
-28.5848189999999995
11
85.9285709999999909
21
-27.5848189999999995
0
LINE
8
LYELLOW
6
CONTINUOUS
10
85.9285709999999909
20
-27.5848189999999995
11
85.8333329999999961
21
-27.7276759999999989
0
LINE
8
LYELLOW
6
CONTINUOUS
10
85.8333329999999961
20
-27.7276759999999989
11
85.7380950000000013
21
-27.8229139999999973
0
LINE
8
LYELLOW
6
CONTINUOUS
10
85.7380950000000013
20
-27.8229139999999973
11
85.6428569999999922
21
-27.8705329999999982
0
LINE
8
LYELLOW
6
CONTINUOUS
10
80.928094999999999
20
-28.9048189999999998
11
80.928094999999999
21
-27.9048189999999998
0
LINE
8
LYELLOW
6
CONTINUOUS
10
81.4995229999999964
20
-28.9048189999999998
11
81.0709519999999912
21
-28.3333899999999979
0
LINE
8
LYELLOW
6
CONTINUOUS
10
81.4995229999999964
20
-27.9048189999999998
11
80.928094999999999
21
-28.4762469999999972
0
LINE
8
LYELLOW
6
CONTINUOUS
10
36.6666659999999993
20
-80.7848189999999988
11
36.6666659999999993
21
-81.4991040000000027
0
LINE
8
LYELLOW
6
CONTINUOUS
10
36.6666659999999993
20
-81.4991040000000027
11
36.6190469999999948
21
-81.6419609999999949
0
LINE
8
LYELLOW
6
CONTINUOUS
10
36.6190469999999948
20
-81.6419609999999949
11
36.523809
21
-81.7372000000000014
0
LINE
8
LYELLOW
6
CONTINUOUS
10
36.523809
20
-81.7372000000000014
11
36.3809520000000006
21
-81.7848189999999988
0
LINE
8
LYELLOW
6
CONTINUOUS
10
36.3809520000000006
20
-81.7848189999999988
11
36.2857139999999987
21
-81.7848189999999988
0
LINE
8
LYELLOW
6
CONTINUOUS
10
37.0476189999999974
20
-80.7848189999999988
11
37.7142849999999967
21
-80.7848189999999988
0
LINE
8
LYELLOW
6
CONTINUOUS
10
37.7142849999999967
20
-80.7848189999999988
11
37.2857139999999987
21
-81.7848189999999988
0
LINE
8
LYELLOW
6
CONTINUOUS
10
70.2380950000000013
20
-99.564819
11
70.2380950000000013
21
-100.3743419999999986
0
LINE
8
LYELLOW
6
CONTINUOUS
10
70.2380950000000013
20
-100.3743419999999986
11
70.2857139999999987
21
-100.4695799999999934
0
LINE
8
LYELLOW
6
CONTINUOUS
10
70.2857139999999987
20
-100.4695799999999934
11
70.3333329999999961
21
-100.5172000000000025
0
LINE
8
LYELLOW
6
CONTINUOUS
10
70.3333329999999961
20
-100.5172000000000025
11
70.4285709999999909
21
-100.564819
0
LINE
8
LYELLOW
6
CONTINUOUS
10
70.4285709999999909
20
-100.564819
11
70.6190469999999948
21
-100.564819
0
LINE
8
LYELLOW
6
CONTINUOUS
10
70.6190469999999948
20
-100.564819
11
70.7142850000000038
21
-100.5172000000000025
0
LINE
8
LYELLOW
6
CONTINUOUS
10
70.7142850000000038
20
-100.5172000000000025
11
70.7619040000000012
21
-100.4695799999999934
0
LINE
8
LYELLOW
6
CONTINUOUS
10
70.7619040000000012
20
-100.4695799999999934
11
70.8095229999999987
21
-100.3743419999999986
0
LINE
8
LYELLOW
6
CONTINUOUS
10
70.8095229999999987
20
-100.3743419999999986
11
70.8095229999999987
21
-99.564819
0
LINE
8
LYELLOW
6
CONTINUOUS
10
71.1904760000000039
20
-99.564819
11
71.8095229999999987
21
-99.564819
0
LINE
8
LYELLOW
6
CONTINUOUS
10
71.8095229999999987
20
-99.564819
11
71.4761900000000026
21
-99.9457709999999935
0
LINE
8
LYELLOW
6
CONTINUOUS
10
71.4761900000000026
20
-99.9457709999999935
11
71.6190469999999948
21
-99.9457709999999935
0
LINE
8
LYELLOW
6
CONTINUOUS
10
71.6190469999999948
20
-99.9457709999999935
11
71.7142850000000038
21
-99.9933899999999909
0
LINE
8
LYELLOW
6
CONTINUOUS
10
71.7142850000000038
20
-99.9933899999999909
11
71.7619040000000012
21
-100.0410090000000025
0
LINE
8
LYELLOW
6
CONTINUOUS
10
71.7619040000000012
20
-100.0410090000000025
11
71.8095229999999987
21
-100.1362469999999973
0
LINE
8
LYELLOW
6
CONTINUOUS
10
71.8095229999999987
20
-100.1362469999999973
11
71.8095229999999987
21
-100.3743419999999986
0
LINE
8
LYELLOW
6
CONTINUOUS
10
71.8095229999999987
20
-100.3743419999999986
11
71.7619040000000012
21
-100.4695799999999934
0
LINE
8
LYELLOW
6
CONTINUOUS
10
71.7619040000000012
20
-100.4695799999999934
11
71.7142850000000038
21
-100.5172000000000025
0
LINE
8
LYELLOW
6
CONTINUOUS
10
71.7142850000000038
20
-100.5172000000000025
11
71.6190469999999948
21
-100.564819
0
LINE
8
LYELLOW
6
CONTINUOUS
10
71.6190469999999948
20
-100.564819
11
71.3333329999999961
21
-100.564819
0
LINE
8
LYELLOW
6
CONTINUOUS
10
71.3333329999999961
20
-100.564819
11
71.2380950000000013
21
-100.5172000000000025
0
LINE
8
LYELLOW
6
CONTINUOUS
10
71.2380950000000013
20
-100.5172000000000025
11
71.1904760000000039
21
-100.4695799999999934
0
LINE
8
LYELLOW
6
CONTINUOUS
10
70.2380950000000013
20
-69.564819
11
70.2380950000000013
21
-70.3743419999999986
0
LINE
8
LYELLOW
6
CONTINUOUS
10
70.2380950000000013
20
-70.3743419999999986
11
70.2857139999999987
21
-70.4695799999999934
0
LINE
8
LYELLOW
6
CONTINUOUS
10
70.2857139999999987
20
-70.4695799999999934
11
70.3333329999999961
21
-70.5172000000000025
0
LINE
8
LYELLOW
6
CONTINUOUS
10
70.3333329999999961
20
-70.5172000000000025
11
70.4285709999999909
21
-70.564819
0
LINE
8
LYELLOW
6
CONTINUOUS
10
70.4285709999999909
20
-70.564819
11
70.6190469999999948
21
-70.564819
0
LINE
8
LYELLOW
6
CONTINUOUS
10
70.6190469999999948
20
-70.564819
11
70.7142850000000038
21
-70.5172000000000025
0
LINE
8
LYELLOW
6
CONTINUOUS
10
70.7142850000000038
20
-70.5172000000000025
11
70.7619040000000012
21
-70.4695799999999934
0
LINE
8
LYELLOW
6
CONTINUOUS
10
70.7619040000000012
20
-70.4695799999999934
11
70.8095229999999987
21
-70.3743419999999986
0
LINE
8
LYELLOW
6
CONTINUOUS
10
70.8095229999999987
20
-70.3743419999999986
11
70.8095229999999987
21
-69.564819
0
LINE
8
LYELLOW
6
CONTINUOUS
10
71.8095229999999987
20
-70.564819
11
71.2380950000000013
21
-70.564819
0
LINE
8
LYELLOW
6
CONTINUOUS
10
71.523809
20
-70.564819
11
71.523809
21
-69.564819
0
LINE
8
LYELLOW
6
CONTINUOUS
10
71.523809
20
-69.564819
11
71.4285709999999909
21
-69.7076759999999922
0
LINE
8
LYELLOW
6
CONTINUOUS
10
71.4285709999999909
20
-69.7076759999999922
11
71.3333329999999961
21
-69.8029140000000012
0
LINE
8
LYELLOW
6
CONTINUOUS
10
71.3333329999999961
20
-69.8029140000000012
11
71.2380950000000013
21
-69.8505329999999987
0
LINE
8
LYELLOW
6
CONTINUOUS
10
84.4047609999999935
20
-35.1095800000000011
11
84.3571419999999961
21
-35.157199999999996
0
LINE
8
LYELLOW
6
CONTINUOUS
10
84.3571419999999961
20
-35.157199999999996
11
84.2142849999999896
21
-35.2048190000000005
0
LINE
8
LYELLOW
6
CONTINUOUS
10
84.2142849999999896
20
-35.2048190000000005
11
84.1190469999999948
21
-35.2048190000000005
0
LINE
8
LYELLOW
6
CONTINUOUS
10
84.1190469999999948
20
-35.2048190000000005
11
83.9761900000000026
21
-35.157199999999996
0
LINE
8
LYELLOW
6
CONTINUOUS
10
83.9761900000000026
20
-35.157199999999996
11
83.8809519999999935
21
-35.0619609999999966
0
LINE
8
LYELLOW
6
CONTINUOUS
10
83.8809519999999935
20
-35.0619609999999966
11
83.8333329999999961
21
-34.9667230000000018
0
LINE
8
LYELLOW
6
CONTINUOUS
10
83.8333329999999961
20
-34.9667230000000018
11
83.7857139999999987
21
-34.7762469999999979
0
LINE
8
LYELLOW
6
CONTINUOUS
10
83.7857139999999987
20
-34.7762469999999979
11
83.7857139999999987
21
-34.6333899999999986
0
LINE
8
LYELLOW
6
CONTINUOUS
10
83.7857139999999987
20
-34.6333899999999986
11
83.8333329999999961
21
-34.4429140000000018
0
LINE
8
LYELLOW
6
CONTINUOUS
10
83.8333329999999961
20
-34.4429140000000018
11
83.8809519999999935
21
-34.3476759999999999
0
LINE
8
LYELLOW
6
CONTINUOUS
10
83.8809519999999935
20
-34.3476759999999999
11
83.9761900000000026
21
-34.2524379999999979
0
LINE
8
LYELLOW
6
CONTINUOUS
10
83.9761900000000026
20
-34.2524379999999979
11
84.1190469999999948
21
-34.2048190000000005
0
LINE
8
LYELLOW
6
CONTINUOUS
10
84.1190469999999948
20
-34.2048190000000005
11
84.2142849999999896
21
-34.2048190000000005
0
LINE
8
LYELLOW
6
CONTINUOUS
10
84.2142849999999896
20
-34.2048190000000005
11
84.3571419999999961
21
-34.2524379999999979
0
LINE
8
LYELLOW
6
CONTINUOUS
10
84.3571419999999961
20
-34.2524379999999979
11
84.4047609999999935
21
-34.3000569999999954
0
LINE
8
LYELLOW
6
CONTINUOUS
10
84.6904759999999897
20
-34.2048190000000005
11
85.023809
21
-35.2048190000000005
0
LINE
8
LYELLOW
6
CONTINUOUS
10
85.023809
20
-35.2048190000000005
11
85.3571419999999961
21
-34.2048190000000005
0
LINE
8
LYELLOW
6
CONTINUOUS
10
86.2142849999999896
20
-35.2048190000000005
11
85.6428569999999922
21
-35.2048190000000005
0
LINE
8
LYELLOW
6
CONTINUOUS
10
85.9285709999999909
20
-35.2048190000000005
11
85.9285709999999909
21
-34.2048190000000005
0
LINE
8
LYELLOW
6
CONTINUOUS
10
85.9285709999999909
20
-34.2048190000000005
11
85.8333329999999961
21
-34.3476759999999999
0
LINE
8
LYELLOW
6
CONTINUOUS
10
85.8333329999999961
20
-34.3476759999999999
11
85.7380950000000013
21
-34.4429140000000018
0
LINE
8
LYELLOW
6
CONTINUOUS
10
85.7380950000000013
20
-34.4429140000000018
11
85.6428569999999922
21
-34.4905329999999992
0
LINE
8
LYELLOW
6
CONTINUOUS
10
53.8333329999999961
20
-89.334818999999996
11
53.5
21
-88.858627999999996
0
LINE
8
LYELLOW
6
CONTINUOUS
10
53.2619049999999987
20
-89.334818999999996
11
53.2619049999999987
21
-88.334818999999996
0
LINE
8
LYELLOW
6
CONTINUOUS
10
53.2619049999999987
20
-88.334818999999996
11
53.6428569999999993
21
-88.334818999999996
0
LINE
8
LYELLOW
6
CONTINUOUS
10
53.6428569999999993
20
-88.334818999999996
11
53.7380949999999942
21
-88.3824379999999934
0
LINE
8
LYELLOW
6
CONTINUOUS
10
53.7380949999999942
20
-88.3824379999999934
11
53.7857139999999987
21
-88.4300569999999908
0
LINE
8
LYELLOW
6
CONTINUOUS
10
53.7857139999999987
20
-88.4300569999999908
11
53.8333329999999961
21
-88.5252949999999998
0
LINE
8
LYELLOW
6
CONTINUOUS
10
53.8333329999999961
20
-88.5252949999999998
11
53.8333329999999961
21
-88.6681519999999921
0
LINE
8
LYELLOW
6
CONTINUOUS
10
53.8333329999999961
20
-88.6681519999999921
11
53.7857139999999987
21
-88.7633900000000011
0
LINE
8
LYELLOW
6
CONTINUOUS
10
53.7857139999999987
20
-88.7633900000000011
11
53.7380949999999942
21
-88.8110089999999985
0
LINE
8
LYELLOW
6
CONTINUOUS
10
53.7380949999999942
20
-88.8110089999999985
11
53.6428569999999993
21
-88.858627999999996
0
LINE
8
LYELLOW
6
CONTINUOUS
10
53.6428569999999993
20
-88.858627999999996
11
53.2619049999999987
21
-88.858627999999996
0
LINE
8
LYELLOW
6
CONTINUOUS
10
54.2142859999999942
20
-89.2871999999999986
11
54.3571430000000007
21
-89.334818999999996
0
LINE
8
LYELLOW
6
CONTINUOUS
10
54.3571430000000007
20
-89.334818999999996
11
54.5952379999999948
21
-89.334818999999996
0
LINE
8
LYELLOW
6
CONTINUOUS
10
54.5952379999999948
20
-89.334818999999996
11
54.6904759999999968
21
-89.2871999999999986
0
LINE
8
LYELLOW
6
CONTINUOUS
10
54.6904759999999968
20
-89.2871999999999986
11
54.7380949999999942
21
-89.2395799999999895
0
LINE
8
LYELLOW
6
CONTINUOUS
10
54.7380949999999942
20
-89.2395799999999895
11
54.7857139999999987
21
-89.1443419999999946
0
LINE
8
LYELLOW
6
CONTINUOUS
10
54.7857139999999987
20
-89.1443419999999946
11
54.7857139999999987
21
-89.0491039999999998
0
LINE
8
LYELLOW
6
CONTINUOUS
10
54.7857139999999987
20
-89.0491039999999998
11
54.7380949999999942
21
-88.9538659999999908
0
LINE
8
LYELLOW
6
CONTINUOUS
10
54.7380949999999942
20
-88.9538659999999908
11
54.6904759999999968
21
-88.9062469999999934
0
LINE
8
LYELLOW
6
CONTINUOUS
10
54.6904759999999968
20
-88.9062469999999934
11
54.5952379999999948
21
-88.858627999999996
0
LINE
8
LYELLOW
6
CONTINUOUS
10
54.5952379999999948
20
-88.858627999999996
11
54.4047619999999981
21
-88.8110089999999985
0
LINE
8
LYELLOW
6
CONTINUOUS
10
54.4047619999999981
20
-88.8110089999999985
11
54.3095239999999961
21
-88.7633900000000011
0
LINE
8
LYELLOW
6
CONTINUOUS
10
54.3095239999999961
20
-88.7633900000000011
11
54.2619049999999987
21
-88.7157709999999895
0
LINE
8
LYELLOW
6
CONTINUOUS
10
54.2619049999999987
20
-88.7157709999999895
11
54.2142859999999942
21
-88.6205329999999947
0
LINE
8
LYELLOW
6
CONTINUOUS
10
54.2142859999999942
20
-88.6205329999999947
11
54.2142859999999942
21
-88.5252949999999998
0
LINE
8
LYELLOW
6
CONTINUOUS
10
54.2142859999999942
20
-88.5252949999999998
11
54.2619049999999987
21
-88.4300569999999908
0
LINE
8
LYELLOW
6
CONTINUOUS
10
54.2619049999999987
20
-88.4300569999999908
11
54.3095239999999961
21
-88.3824379999999934
0
LINE
8
LYELLOW
6
CONTINUOUS
10
54.3095239999999961
20
-88.3824379999999934
11
54.4047619999999981
21
-88.334818999999996
0
LINE
8
LYELLOW
6
CONTINUOUS
10
54.4047619999999981
20
-88.334818999999996
11
54.6428569999999993
21
-88.334818999999996
0
LINE
8
LYELLOW
6
CONTINUOUS
10
54.6428569999999993
20
-88.334818999999996
11
54.7857139999999987
21
-88.3824379999999934
0
LINE
8
LYELLOW
6
CONTINUOUS
10
55.2142859999999942
20
-89.334818999999996
11
55.2142859999999942
21
-88.334818999999996
0
LINE
8
LYELLOW
6
CONTINUOUS
10
55.2142859999999942
20
-88.8110089999999985
11
55.7857139999999987
21
-88.8110089999999985
0
LINE
8
LYELLOW
6
CONTINUOUS
10
55.7857139999999987
20
-89.334818999999996
11
55.7857139999999987
21
-88.334818999999996
0
LINE
8
LYELLOW
6
CONTINUOUS
10
56.2142859999999942
20
-88.4300569999999908
11
56.2619049999999987
21
-88.3824379999999934
0
LINE
8
LYELLOW
6
CONTINUOUS
10
56.2619049999999987
20
-88.3824379999999934
11
56.3571430000000007
21
-88.334818999999996
0
LINE
8
LYELLOW
6
CONTINUOUS
10
56.3571430000000007
20
-88.334818999999996
11
56.5952379999999948
21
-88.334818999999996
0
LINE
8
LYELLOW
6
CONTINUOUS
10
56.5952379999999948
20
-88.334818999999996
11
56.6904759999999968
21
-88.3824379999999934
0
LINE
8
LYELLOW
6
CONTINUOUS
10
56.6904759999999968
20
-88.3824379999999934
11
56.7380949999999942
21
-88.4300569999999908
0
LINE
8
LYELLOW
6
CONTINUOUS
10
56.7380949999999942
20
-88.4300569999999908
11
56.7857139999999987
21
-88.5252949999999998
0
LINE
8
LYELLOW
6
CONTINUOUS
10
56.7857139999999987
20
-88.5252949999999998
11
56.7857139999999987
21
-88.6205329999999947
0
LINE
8
LYELLOW
6
CONTINUOUS
10
56.7857139999999987
20
-88.6205329999999947
11
56.7380949999999942
21
-88.7633900000000011
0
LINE
8
LYELLOW
6
CONTINUOUS
10
56.7380949999999942
20
-88.7633900000000011
11
56.1666669999999968
21
-89.334818999999996
0
LINE
8
LYELLOW
6
CONTINUOUS
10
56.1666669999999968
20
-89.334818999999996
11
56.7857139999999987
21
-89.334818999999996
0
LINE
8
LYELLOW
6
CONTINUOUS
10
102.3333329999999961
20
-100.334818999999996
11
102.
21
-99.858627999999996
0
LINE
8
LYELLOW
6
CONTINUOUS
10
101.7619049999999987
20
-100.334818999999996
11
101.7619049999999987
21
-99.334818999999996
0
LINE
8
LYELLOW
6
CONTINUOUS
10
101.7619049999999987
20
-99.334818999999996
11
102.1428569999999922
21
-99.334818999999996
0
LINE
8
LYELLOW
6
CONTINUOUS
10
102.1428569999999922
20
-99.334818999999996
11
102.2380950000000013
21
-99.3824379999999934
0
LINE
8
LYELLOW
6
CONTINUOUS
10
102.2380950000000013
20
-99.3824379999999934
11
102.2857139999999987
21
-99.4300569999999908
0
LINE
8
LYELLOW
6
CONTINUOUS
10
102.2857139999999987
20
-99.4300569999999908
11
102.3333329999999961
21
-99.5252949999999998
0
LINE
8
LYELLOW
6
CONTINUOUS
10
102.3333329999999961
20
-99.5252949999999998
11
102.3333329999999961
21
-99.6681519999999921
0
LINE
8
LYELLOW
6
CONTINUOUS
10
102.3333329999999961
20
-99.6681519999999921
11
102.2857139999999987
21
-99.7633900000000011
0
LINE
8
LYELLOW
6
CONTINUOUS
10
102.2857139999999987
20
-99.7633900000000011
11
102.2380950000000013
21
-99.8110089999999985
0
LINE
8
LYELLOW
6
CONTINUOUS
10
102.2380950000000013
20
-99.8110089999999985
11
102.1428569999999922
21
-99.858627999999996
0
LINE
8
LYELLOW
6
CONTINUOUS
10
102.1428569999999922
20
-99.858627999999996
11
101.7619049999999987
21
-99.858627999999996
0
LINE
8
LYELLOW
6
CONTINUOUS
10
103.0952379999999948
20
-99.8110089999999985
11
103.2380950000000013
21
-99.858627999999996
0
LINE
8
LYELLOW
6
CONTINUOUS
10
103.2380950000000013
20
-99.858627999999996
11
103.2857139999999987
21
-99.9062469999999934
0
LINE
8
LYELLOW
6
CONTINUOUS
10
103.2857139999999987
20
-99.9062469999999934
11
103.3333329999999961
21
-100.0014850000000024
0
LINE
8
LYELLOW
6
CONTINUOUS
10
103.3333329999999961
20
-100.0014850000000024
11
103.3333329999999961
21
-100.1443419999999946
0
LINE
8
LYELLOW
6
CONTINUOUS
10
103.3333329999999961
20
-100.1443419999999946
11
103.2857139999999987
21
-100.2395799999999895
0
LINE
8
LYELLOW
6
CONTINUOUS
10
103.2857139999999987
20
-100.2395799999999895
11
103.2380950000000013
21
-100.2871999999999986
0
LINE
8
LYELLOW
6
CONTINUOUS
10
103.2380950000000013
20
-100.2871999999999986
11
103.1428569999999922
21
-100.334818999999996
0
LINE
8
LYELLOW
6
CONTINUOUS
10
103.1428569999999922
20
-100.334818999999996
11
102.7619049999999987
21
-100.334818999999996
0
LINE
8
LYELLOW
6
CONTINUOUS
10
102.7619049999999987
20
-100.334818999999996
11
102.7619049999999987
21
-99.334818999999996
0
LINE
8
LYELLOW
6
CONTINUOUS
10
102.7619049999999987
20
-99.334818999999996
11
103.0952379999999948
21
-99.334818999999996
0
LINE
8
LYELLOW
6
CONTINUOUS
10
103.0952379999999948
20
-99.334818999999996
11
103.1904759999999897
21
-99.3824379999999934
0
LINE
8
LYELLOW
6
CONTINUOUS
10
103.1904759999999897
20
-99.3824379999999934
11
103.2380950000000013
21
-99.4300569999999908
0
LINE
8
LYELLOW
6
CONTINUOUS
10
103.2380950000000013
20
-99.4300569999999908
11
103.2857139999999987
21
-99.5252949999999998
0
LINE
8
LYELLOW
6
CONTINUOUS
10
103.2857139999999987
20
-99.5252949999999998
11
103.2857139999999987
21
-99.6205329999999947
0
LINE
8
LYELLOW
6
CONTINUOUS
10
103.2857139999999987
20
-99.6205329999999947
11
103.2380950000000013
21
-99.7157709999999895
0
LINE
8
LYELLOW
6
CONTINUOUS
10
103.2380950000000013
20
-99.7157709999999895
11
103.1904759999999897
21
-99.7633900000000011
0
LINE
8
LYELLOW
6
CONTINUOUS
10
103.1904759999999897
20
-99.7633900000000011
11
103.0952379999999948
21
-99.8110089999999985
0
LINE
8
LYELLOW
6
CONTINUOUS
10
103.0952379999999948
20
-99.8110089999999985
11
102.7619049999999987
21
-99.8110089999999985
0
LINE
8
LYELLOW
6
CONTINUOUS
10
104.2857139999999987
20
-100.334818999999996
11
103.7142860000000013
21
-100.334818999999996
0
LINE
8
LYELLOW
6
CONTINUOUS
10
104.
20
-100.334818999999996
11
104.
21
-99.334818999999996
0
LINE
8
LYELLOW
6
CONTINUOUS
10
104.
20
-99.334818999999996
11
103.904761999999991
21
-99.4776760000000024
0
LINE
8
LYELLOW
6
CONTINUOUS
10
103.904761999999991
20
-99.4776760000000024
11
103.8095239999999961
21
-99.5729139999999973
0
LINE
8
LYELLOW
6
CONTINUOUS
10
103.8095239999999961
20
-99.5729139999999973
11
103.7142860000000013
21
-99.6205329999999947
0
LINE
8
LYELLOW
6
CONTINUOUS
10
54.3571419999999961
20
-112.334818999999996
11
54.023809
21
-111.858627999999996
0
LINE
8
LYELLOW
6
CONTINUOUS
10
53.7857139999999987
20
-112.334818999999996
11
53.7857139999999987
21
-111.334818999999996
0
LINE
8
LYELLOW
6
CONTINUOUS
10
53.7857139999999987
20
-111.334818999999996
11
54.1666659999999993
21
-111.334818999999996
0
LINE
8
LYELLOW
6
CONTINUOUS
10
54.1666659999999993
20
-111.334818999999996
11
54.2619039999999941
21
-111.3824379999999934
0
LINE
8
LYELLOW
6
CONTINUOUS
10
54.2619039999999941
20
-111.3824379999999934
11
54.3095229999999987
21
-111.4300569999999908
0
LINE
8
LYELLOW
6
CONTINUOUS
10
54.3095229999999987
20
-111.4300569999999908
11
54.3571419999999961
21
-111.5252949999999998
0
LINE
8
LYELLOW
6
CONTINUOUS
10
54.3571419999999961
20
-111.5252949999999998
11
54.3571419999999961
21
-111.6681519999999921
0
LINE
8
LYELLOW
6
CONTINUOUS
10
54.3571419999999961
20
-111.6681519999999921
11
54.3095229999999987
21
-111.7633900000000011
0
LINE
8
LYELLOW
6
CONTINUOUS
10
54.3095229999999987
20
-111.7633900000000011
11
54.2619039999999941
21
-111.8110089999999985
0
LINE
8
LYELLOW
6
CONTINUOUS
10
54.2619039999999941
20
-111.8110089999999985
11
54.1666659999999993
21
-111.858627999999996
0
LINE
8
LYELLOW
6
CONTINUOUS
10
54.1666659999999993
20
-111.858627999999996
11
53.7857139999999987
21
-111.858627999999996
0
LINE
8
LYELLOW
6
CONTINUOUS
10
54.6904759999999968
20
-111.334818999999996
11
55.3095229999999987
21
-111.334818999999996
0
LINE
8
LYELLOW
6
CONTINUOUS
10
55.3095229999999987
20
-111.334818999999996
11
54.9761899999999955
21
-111.7157709999999895
0
LINE
8
LYELLOW
6
CONTINUOUS
10
54.9761899999999955
20
-111.7157709999999895
11
55.1190469999999948
21
-111.7157709999999895
0
LINE
8
LYELLOW
6
CONTINUOUS
10
55.1190469999999948
20
-111.7157709999999895
11
55.2142849999999967
21
-111.7633900000000011
0
LINE
8
LYELLOW
6
CONTINUOUS
10
55.2142849999999967
20
-111.7633900000000011
11
55.2619039999999941
21
-111.8110089999999985
0
LINE
8
LYELLOW
6
CONTINUOUS
10
55.2619039999999941
20
-111.8110089999999985
11
55.3095229999999987
21
-111.9062469999999934
0
LINE
8
LYELLOW
6
CONTINUOUS
10
55.3095229999999987
20
-111.9062469999999934
11
55.3095229999999987
21
-112.1443419999999946
0
LINE
8
LYELLOW
6
CONTINUOUS
10
55.3095229999999987
20
-112.1443419999999946
11
55.2619039999999941
21
-112.2395799999999895
0
LINE
8
LYELLOW
6
CONTINUOUS
10
55.2619039999999941
20
-112.2395799999999895
11
55.2142849999999967
21
-112.2871999999999986
0
LINE
8
LYELLOW
6
CONTINUOUS
10
55.2142849999999967
20
-112.2871999999999986
11
55.1190469999999948
21
-112.334818999999996
0
LINE
8
LYELLOW
6
CONTINUOUS
10
55.1190469999999948
20
-112.334818999999996
11
54.8333329999999961
21
-112.334818999999996
0
LINE
8
LYELLOW
6
CONTINUOUS
10
54.8333329999999961
20
-112.334818999999996
11
54.7380949999999942
21
-112.2871999999999986
0
LINE
8
LYELLOW
6
CONTINUOUS
10
54.7380949999999942
20
-112.2871999999999986
11
54.6904759999999968
21
-112.2395799999999895
0
LINE
8
LYELLOW
6
CONTINUOUS
10
55.6428569999999993
20
-111.334818999999996
11
56.2619039999999941
21
-111.334818999999996
0
LINE
8
LYELLOW
6
CONTINUOUS
10
56.2619039999999941
20
-111.334818999999996
11
55.928570999999998
21
-111.7157709999999895
0
LINE
8
LYELLOW
6
CONTINUOUS
10
55.928570999999998
20
-111.7157709999999895
11
56.0714279999999974
21
-111.7157709999999895
0
LINE
8
LYELLOW
6
CONTINUOUS
10
56.0714279999999974
20
-111.7157709999999895
11
56.1666659999999993
21
-111.7633900000000011
0
LINE
8
LYELLOW
6
CONTINUOUS
10
56.1666659999999993
20
-111.7633900000000011
11
56.2142849999999967
21
-111.8110089999999985
0
LINE
8
LYELLOW
6
CONTINUOUS
10
56.2142849999999967
20
-111.8110089999999985
11
56.2619039999999941
21
-111.9062469999999934
0
LINE
8
LYELLOW
6
CONTINUOUS
10
56.2619039999999941
20
-111.9062469999999934
11
56.2619039999999941
21
-112.1443419999999946
0
LINE
8
LYELLOW
6
CONTINUOUS
10
56.2619039999999941
20
-112.1443419999999946
11
56.2142849999999967
21
-112.2395799999999895
0
LINE
8
LYELLOW
6
CONTINUOUS
10
56.2142849999999967
20
-112.2395799999999895
11
56.1666659999999993
21
-112.2871999999999986
0
LINE
8
LYELLOW
6
CONTINUOUS
10
56.1666659999999993
20
-112.2871999999999986
11
56.0714279999999974
21
-112.334818999999996
0
LINE
8
LYELLOW
6
CONTINUOUS
10
56.0714279999999974
20
-112.334818999999996
11
55.7857139999999987
21
-112.334818999999996
0
LINE
8
LYELLOW
6
CONTINUOUS
10
55.7857139999999987
20
-112.334818999999996
11
55.6904759999999968
21
-112.2871999999999986
0
LINE
8
LYELLOW
6
CONTINUOUS
10
55.6904759999999968
20
-112.2871999999999986
11
55.6428569999999993
21
-112.2395799999999895
0
LINE
8
LYELLOW
6
CONTINUOUS
10
51.928570999999998
20
-49.334818999999996
11
51.5952379999999948
21
-48.858627999999996
0
LINE
8
LYELLOW
6
CONTINUOUS
10
51.3571430000000007
20
-49.334818999999996
11
51.3571430000000007
21
-48.334818999999996
0
LINE
8
LYELLOW
6
CONTINUOUS
10
51.3571430000000007
20
-48.334818999999996
11
51.7380949999999942
21
-48.334818999999996
0
LINE
8
LYELLOW
6
CONTINUOUS
10
51.7380949999999942
20
-48.334818999999996
11
51.8333329999999961
21
-48.3824380000000005
0
LINE
8
LYELLOW
6
CONTINUOUS
10
51.8333329999999961
20
-48.3824380000000005
11
51.8809520000000006
21
-48.4300569999999979
0
LINE
8
LYELLOW
6
CONTINUOUS
10
51.8809520000000006
20
-48.4300569999999979
11
51.928570999999998
21
-48.5252949999999998
0
LINE
8
LYELLOW
6
CONTINUOUS
10
51.928570999999998
20
-48.5252949999999998
11
51.928570999999998
21
-48.6681519999999992
0
LINE
8
LYELLOW
6
CONTINUOUS
10
51.928570999999998
20
-48.6681519999999992
11
51.8809520000000006
21
-48.7633900000000011
0
LINE
8
LYELLOW
6
CONTINUOUS
10
51.8809520000000006
20
-48.7633900000000011
11
51.8333329999999961
21
-48.8110089999999985
0
LINE
8
LYELLOW
6
CONTINUOUS
10
51.8333329999999961
20
-48.8110089999999985
11
51.7380949999999942
21
-48.858627999999996
0
LINE
8
LYELLOW
6
CONTINUOUS
10
51.7380949999999942
20
-48.858627999999996
11
51.3571430000000007
21
-48.858627999999996
0
LINE
8
LYELLOW
6
CONTINUOUS
10
52.2142859999999942
20
-48.334818999999996
11
52.5476189999999974
21
-49.334818999999996
0
LINE
8
LYELLOW
6
CONTINUOUS
10
52.5476189999999974
20
-49.334818999999996
11
52.8809520000000006
21
-48.334818999999996
0
LINE
8
LYELLOW
6
CONTINUOUS
10
53.1666669999999968
20
-48.4300569999999979
11
53.2142859999999942
21
-48.3824380000000005
0
LINE
8
LYELLOW
6
CONTINUOUS
10
53.2142859999999942
20
-48.3824380000000005
11
53.3095239999999961
21
-48.334818999999996
0
LINE
8
LYELLOW
6
CONTINUOUS
10
53.3095239999999961
20
-48.334818999999996
11
53.5476189999999974
21
-48.334818999999996
0
LINE
8
LYELLOW
6
CONTINUOUS
10
53.5476189999999974
20
-48.334818999999996
11
53.6428569999999993
21
-48.3824380000000005
0
LINE
8
LYELLOW
6
CONTINUOUS
10
53.6428569999999993
20
-48.3824380000000005
11
53.6904759999999968
21
-48.4300569999999979
0
LINE
8
LYELLOW
6
CONTINUOUS
10
53.6904759999999968
20
-48.4300569999999979
11
53.7380949999999942
21
-48.5252949999999998
0
LINE
8
LYELLOW
6
CONTINUOUS
10
53.7380949999999942
20
-48.5252949999999998
11
53.7380949999999942
21
-48.6205329999999947
0
LINE
8
LYELLOW
6
CONTINUOUS
10
53.7380949999999942
20
-48.6205329999999947
11
53.6904759999999968
21
-48.7633900000000011
0
LINE
8
LYELLOW
6
CONTINUOUS
10
53.6904759999999968
20
-48.7633900000000011
11
53.1190479999999994
21
-49.334818999999996
0
LINE
8
LYELLOW
6
CONTINUOUS
10
53.1190479999999994
20
-49.334818999999996
11
53.7380949999999942
21
-49.334818999999996
0
LINE
8
LYELLOW
6
CONTINUOUS
10
54.1190479999999994
20
-48.4300569999999979
11
54.1666669999999968
21
-48.3824380000000005
0
LINE
8
LYELLOW
6
CONTINUOUS
10
54.1666669999999968
20
-48.3824380000000005
11
54.2619049999999987
21
-48.334818999999996
0
LINE
8
LYELLOW
6
CONTINUOUS
10
54.2619049999999987
20
-48.334818999999996
11
54.5
21
-48.334818999999996
0
LINE
8
LYELLOW
6
CONTINUOUS
10
54.5
20
-48.334818999999996
11
54.5952379999999948
21
-48.3824380000000005
0
LINE
8
LYELLOW
6
CONTINUOUS
10
54.5952379999999948
20
-48.3824380000000005
11
54.6428569999999993
21
-48.4300569999999979
0
LINE
8
LYELLOW
6
CONTINUOUS
10
54.6428569999999993
20
-48.4300569999999979
11
54.6904759999999968
21
-48.5252949999999998
0
LINE
8
LYELLOW
6
CONTINUOUS
10
54.6904759999999968
20
-48.5252949999999998
11
54.6904759999999968
21
-48.6205329999999947
0
LINE
8
LYELLOW
6
CONTINUOUS
10
54.6904759999999968
20
-48.6205329999999947
11
54.6428569999999993
21
-48.7633900000000011
0
LINE
8
LYELLOW
6
CONTINUOUS
10
54.6428569999999993
20
-48.7633900000000011
11
54.0714289999999949
21
-49.334818999999996
0
LINE
8
LYELLOW
6
CONTINUOUS
10
54.0714289999999949
20
-49.334818999999996
11
54.6904759999999968
21
-49.334818999999996
0
LINE
8
LYELLOW
6
CONTINUOUS
10
36.6666659999999993
20
-48.7848189999999988
11
36.6666659999999993
21
-49.4991039999999956
0
LINE
8
LYELLOW
6
CONTINUOUS
10
36.6666659999999993
20
-49.4991039999999956
11
36.6190469999999948
21
-49.6419609999999949
0
LINE
8
LYELLOW
6
CONTINUOUS
10
36.6190469999999948
20
-49.6419609999999949
11
36.523809
21
-49.7371999999999943
0
LINE
8
LYELLOW
6
CONTINUOUS
10
36.523809
20
-49.7371999999999943
11
36.3809520000000006
21
-49.7848189999999988
0
LINE
8
LYELLOW
6
CONTINUOUS
10
36.3809520000000006
20
-49.7848189999999988
11
36.2857139999999987
21
-49.7848189999999988
0
LINE
8
LYELLOW
6
CONTINUOUS
10
37.0476189999999974
20
-48.7848189999999988
11
37.6666659999999993
21
-48.7848189999999988
0
LINE
8
LYELLOW
6
CONTINUOUS
10
37.6666659999999993
20
-48.7848189999999988
11
37.3333329999999961
21
-49.1657709999999994
0
LINE
8
LYELLOW
6
CONTINUOUS
10
37.3333329999999961
20
-49.1657709999999994
11
37.4761899999999955
21
-49.1657709999999994
0
LINE
8
LYELLOW
6
CONTINUOUS
10
37.4761899999999955
20
-49.1657709999999994
11
37.5714279999999974
21
-49.2133899999999969
0
LINE
8
LYELLOW
6
CONTINUOUS
10
37.5714279999999974
20
-49.2133899999999969
11
37.6190469999999948
21
-49.2610089999999943
0
LINE
8
LYELLOW
6
CONTINUOUS
10
37.6190469999999948
20
-49.2610089999999943
11
37.6666659999999993
21
-49.3562469999999962
0
LINE
8
LYELLOW
6
CONTINUOUS
10
37.6666659999999993
20
-49.3562469999999962
11
37.6666659999999993
21
-49.5943419999999975
0
LINE
8
LYELLOW
6
CONTINUOUS
10
37.6666659999999993
20
-49.5943419999999975
11
37.6190469999999948
21
-49.6895799999999994
0
LINE
8
LYELLOW
6
CONTINUOUS
10
37.6190469999999948
20
-49.6895799999999994
11
37.5714279999999974
21
-49.7371999999999943
0
LINE
8
LYELLOW
6
CONTINUOUS
10
37.5714279999999974
20
-49.7371999999999943
11
37.4761899999999955
21
-49.7848189999999988
0
LINE
8
LYELLOW
6
CONTINUOUS
10
37.4761899999999955
20
-49.7848189999999988
11
37.1904759999999968
21
-49.7848189999999988
0
LINE
8
LYELLOW
6
CONTINUOUS
10
37.1904759999999968
20
-49.7848189999999988
11
37.0952379999999948
21
-49.7371999999999943
0
LINE
8
LYELLOW
6
CONTINUOUS
10
37.0952379999999948
20
-49.7371999999999943
11
37.0476189999999974
21
-49.6895799999999994
0
LINE
8
LYELLOW
6
CONTINUOUS
10
51.928570999999998
20
-63.334818999999996
11
51.5952379999999948
21
-62.858627999999996
0
LINE
8
LYELLOW
6
CONTINUOUS
10
51.3571430000000007
20
-63.334818999999996
11
51.3571430000000007
21
-62.334818999999996
0
LINE
8
LYELLOW
6
CONTINUOUS
10
51.3571430000000007
20
-62.334818999999996
11
51.7380949999999942
21
-62.334818999999996
0
LINE
8
LYELLOW
6
CONTINUOUS
10
51.7380949999999942
20
-62.334818999999996
11
51.8333329999999961
21
-62.3824380000000005
0
LINE
8
LYELLOW
6
CONTINUOUS
10
51.8333329999999961
20
-62.3824380000000005
11
51.8809520000000006
21
-62.4300569999999979
0
LINE
8
LYELLOW
6
CONTINUOUS
10
51.8809520000000006
20
-62.4300569999999979
11
51.928570999999998
21
-62.5252949999999998
0
LINE
8
LYELLOW
6
CONTINUOUS
10
51.928570999999998
20
-62.5252949999999998
11
51.928570999999998
21
-62.6681519999999992
0
LINE
8
LYELLOW
6
CONTINUOUS
10
51.928570999999998
20
-62.6681519999999992
11
51.8809520000000006
21
-62.763389999999994
0
LINE
8
LYELLOW
6
CONTINUOUS
10
51.8809520000000006
20
-62.763389999999994
11
51.8333329999999961
21
-62.8110089999999985
0
LINE
8
LYELLOW
6
CONTINUOUS
10
51.8333329999999961
20
-62.8110089999999985
11
51.7380949999999942
21
-62.858627999999996
0
LINE
8
LYELLOW
6
CONTINUOUS
10
51.7380949999999942
20
-62.858627999999996
11
51.3571430000000007
21
-62.858627999999996
0
LINE
8
LYELLOW
6
CONTINUOUS
10
52.2142859999999942
20
-62.334818999999996
11
52.5476189999999974
21
-63.334818999999996
0
LINE
8
LYELLOW
6
CONTINUOUS
10
52.5476189999999974
20
-63.334818999999996
11
52.8809520000000006
21
-62.334818999999996
0
LINE
8
LYELLOW
6
CONTINUOUS
10
53.1190479999999994
20
-62.334818999999996
11
53.7380949999999942
21
-62.334818999999996
0
LINE
8
LYELLOW
6
CONTINUOUS
10
53.7380949999999942
20
-62.334818999999996
11
53.4047619999999981
21
-62.7157709999999966
0
LINE
8
LYELLOW
6
CONTINUOUS
10
53.4047619999999981
20
-62.7157709999999966
11
53.5476189999999974
21
-62.7157709999999966
0
LINE
8
LYELLOW
6
CONTINUOUS
10
53.5476189999999974
20
-62.7157709999999966
11
53.6428569999999993
21
-62.763389999999994
0
LINE
8
LYELLOW
6
CONTINUOUS
10
53.6428569999999993
20
-62.763389999999994
11
53.6904759999999968
21
-62.8110089999999985
0
LINE
8
LYELLOW
6
CONTINUOUS
10
53.6904759999999968
20
-62.8110089999999985
11
53.7380949999999942
21
-62.9062470000000005
0
LINE
8
LYELLOW
6
CONTINUOUS
10
53.7380949999999942
20
-62.9062470000000005
11
53.7380949999999942
21
-63.1443419999999946
0
LINE
8
LYELLOW
6
CONTINUOUS
10
53.7380949999999942
20
-63.1443419999999946
11
53.6904759999999968
21
-63.2395799999999966
0
LINE
8
LYELLOW
6
CONTINUOUS
10
53.6904759999999968
20
-63.2395799999999966
11
53.6428569999999993
21
-63.2871999999999986
0
LINE
8
LYELLOW
6
CONTINUOUS
10
53.6428569999999993
20
-63.2871999999999986
11
53.5476189999999974
21
-63.334818999999996
0
LINE
8
LYELLOW
6
CONTINUOUS
10
53.5476189999999974
20
-63.334818999999996
11
53.2619049999999987
21
-63.334818999999996
0
LINE
8
LYELLOW
6
CONTINUOUS
10
53.2619049999999987
20
-63.334818999999996
11
53.1666669999999968
21
-63.2871999999999986
0
LINE
8
LYELLOW
6
CONTINUOUS
10
53.1666669999999968
20
-63.2871999999999986
11
53.1190479999999994
21
-63.2395799999999966
0
LINE
8
LYELLOW
6
CONTINUOUS
10
54.1190479999999994
20
-62.4300569999999979
11
54.1666669999999968
21
-62.3824380000000005
0
LINE
8
LYELLOW
6
CONTINUOUS
10
54.1666669999999968
20
-62.3824380000000005
11
54.2619049999999987
21
-62.334818999999996
0
LINE
8
LYELLOW
6
CONTINUOUS
10
54.2619049999999987
20
-62.334818999999996
11
54.5
21
-62.334818999999996
0
LINE
8
LYELLOW
6
CONTINUOUS
10
54.5
20
-62.334818999999996
11
54.5952379999999948
21
-62.3824380000000005
0
LINE
8
LYELLOW
6
CONTINUOUS
10
54.5952379999999948
20
-62.3824380000000005
11
54.6428569999999993
21
-62.4300569999999979
0
LINE
8
LYELLOW
6
CONTINUOUS
10
54.6428569999999993
20
-62.4300569999999979
11
54.6904759999999968
21
-62.5252949999999998
0
LINE
8
LYELLOW
6
CONTINUOUS
10
54.6904759999999968
20
-62.5252949999999998
11
54.6904759999999968
21
-62.6205329999999947
0
LINE
8
LYELLOW
6
CONTINUOUS
10
54.6904759999999968
20
-62.6205329999999947
11
54.6428569999999993
21
-62.763389999999994
0
LINE
8
LYELLOW
6
CONTINUOUS
10
54.6428569999999993
20
-62.763389999999994
11
54.0714289999999949
21
-63.334818999999996
0
LINE
8
LYELLOW
6
CONTINUOUS
10
54.0714289999999949
20
-63.334818999999996
11
54.6904759999999968
21
-63.334818999999996
0
LINE
8
LYELLOW
6
CONTINUOUS
10
51.928570999999998
20
-56.334818999999996
11
51.5952379999999948
21
-55.858627999999996
0
LINE
8
LYELLOW
6
CONTINUOUS
10
51.3571430000000007
20
-56.334818999999996
11
51.3571430000000007
21
-55.334818999999996
0
LINE
8
LYELLOW
6
CONTINUOUS
10
51.3571430000000007
20
-55.334818999999996
11
51.7380949999999942
21
-55.334818999999996
0
LINE
8
LYELLOW
6
CONTINUOUS
10
51.7380949999999942
20
-55.334818999999996
11
51.8333329999999961
21
-55.3824380000000005
0
LINE
8
LYELLOW
6
CONTINUOUS
10
51.8333329999999961
20
-55.3824380000000005
11
51.8809520000000006
21
-55.4300569999999979
0
LINE
8
LYELLOW
6
CONTINUOUS
10
51.8809520000000006
20
-55.4300569999999979
11
51.928570999999998
21
-55.5252949999999998
0
LINE
8
LYELLOW
6
CONTINUOUS
10
51.928570999999998
20
-55.5252949999999998
11
51.928570999999998
21
-55.6681519999999992
0
LINE
8
LYELLOW
6
CONTINUOUS
10
51.928570999999998
20
-55.6681519999999992
11
51.8809520000000006
21
-55.763389999999994
0
LINE
8
LYELLOW
6
CONTINUOUS
10
51.8809520000000006
20
-55.763389999999994
11
51.8333329999999961
21
-55.8110089999999985
0
LINE
8
LYELLOW
6
CONTINUOUS
10
51.8333329999999961
20
-55.8110089999999985
11
51.7380949999999942
21
-55.858627999999996
0
LINE
8
LYELLOW
6
CONTINUOUS
10
51.7380949999999942
20
-55.858627999999996
11
51.3571430000000007
21
-55.858627999999996
0
LINE
8
LYELLOW
6
CONTINUOUS
10
52.2142859999999942
20
-55.334818999999996
11
52.5476189999999974
21
-56.334818999999996
0
LINE
8
LYELLOW
6
CONTINUOUS
10
52.5476189999999974
20
-56.334818999999996
11
52.8809520000000006
21
-55.334818999999996
0
LINE
8
LYELLOW
6
CONTINUOUS
10
53.1190479999999994
20
-55.334818999999996
11
53.7380949999999942
21
-55.334818999999996
0
LINE
8
LYELLOW
6
CONTINUOUS
10
53.7380949999999942
20
-55.334818999999996
11
53.4047619999999981
21
-55.7157709999999966
0
LINE
8
LYELLOW
6
CONTINUOUS
10
53.4047619999999981
20
-55.7157709999999966
11
53.5476189999999974
21
-55.7157709999999966
0
LINE
8
LYELLOW
6
CONTINUOUS
10
53.5476189999999974
20
-55.7157709999999966
11
53.6428569999999993
21
-55.763389999999994
0
LINE
8
LYELLOW
6
CONTINUOUS
10
53.6428569999999993
20
-55.763389999999994
11
53.6904759999999968
21
-55.8110089999999985
0
LINE
8
LYELLOW
6
CONTINUOUS
10
53.6904759999999968
20
-55.8110089999999985
11
53.7380949999999942
21
-55.9062470000000005
0
LINE
8
LYELLOW
6
CONTINUOUS
10
53.7380949999999942
20
-55.9062470000000005
11
53.7380949999999942
21
-56.1443419999999946
0
LINE
8
LYELLOW
6
CONTINUOUS
10
53.7380949999999942
20
-56.1443419999999946
11
53.6904759999999968
21
-56.2395799999999966
0
LINE
8
LYELLOW
6
CONTINUOUS
10
53.6904759999999968
20
-56.2395799999999966
11
53.6428569999999993
21
-56.2871999999999986
0
LINE
8
LYELLOW
6
CONTINUOUS
10
53.6428569999999993
20
-56.2871999999999986
11
53.5476189999999974
21
-56.334818999999996
0
LINE
8
LYELLOW
6
CONTINUOUS
10
53.5476189999999974
20
-56.334818999999996
11
53.2619049999999987
21
-56.334818999999996
0
LINE
8
LYELLOW
6
CONTINUOUS
10
53.2619049999999987
20
-56.334818999999996
11
53.1666669999999968
21
-56.2871999999999986
0
LINE
8
LYELLOW
6
CONTINUOUS
10
53.1666669999999968
20
-56.2871999999999986
11
53.1190479999999994
21
-56.2395799999999966
0
LINE
8
LYELLOW
6
CONTINUOUS
10
54.6904759999999968
20
-56.334818999999996
11
54.1190479999999994
21
-56.334818999999996
0
LINE
8
LYELLOW
6
CONTINUOUS
10
54.4047619999999981
20
-56.334818999999996
11
54.4047619999999981
21
-55.334818999999996
0
LINE
8
LYELLOW
6
CONTINUOUS
10
54.4047619999999981
20
-55.334818999999996
11
54.3095239999999961
21
-55.4776759999999953
0
LINE
8
LYELLOW
6
CONTINUOUS
10
54.3095239999999961
20
-55.4776759999999953
11
54.2142859999999942
21
-55.5729139999999973
0
LINE
8
LYELLOW
6
CONTINUOUS
10
54.2142859999999942
20
-55.5729139999999973
11
54.1190479999999994
21
-55.6205329999999947
0
LINE
8
LYELLOW
6
CONTINUOUS
10
106.6666659999999922
20
-59.3598189999999946
11
106.6666659999999922
21
-60.0741039999999984
0
LINE
8
LYELLOW
6
CONTINUOUS
10
106.6666659999999922
20
-60.0741039999999984
11
106.6190469999999948
21
-60.2169609999999977
0
LINE
8
LYELLOW
6
CONTINUOUS
10
106.6190469999999948
20
-60.2169609999999977
11
106.523809
21
-60.3121999999999971
0
LINE
8
LYELLOW
6
CONTINUOUS
10
106.523809
20
-60.3121999999999971
11
106.3809519999999935
21
-60.3598189999999946
0
LINE
8
LYELLOW
6
CONTINUOUS
10
106.3809519999999935
20
-60.3598189999999946
11
106.2857139999999987
21
-60.3598189999999946
0
LINE
8
LYELLOW
6
CONTINUOUS
10
107.0952379999999948
20
-59.4550569999999965
11
107.1428569999999922
21
-59.4074379999999991
0
LINE
8
LYELLOW
6
CONTINUOUS
10
107.1428569999999922
20
-59.4074379999999991
11
107.2380950000000013
21
-59.3598189999999946
0
LINE
8
LYELLOW
6
CONTINUOUS
10
107.2380950000000013
20
-59.3598189999999946
11
107.4761899999999883
21
-59.3598189999999946
0
LINE
8
LYELLOW
6
CONTINUOUS
10
107.4761899999999883
20
-59.3598189999999946
11
107.5714279999999974
21
-59.4074379999999991
0
LINE
8
LYELLOW
6
CONTINUOUS
10
107.5714279999999974
20
-59.4074379999999991
11
107.6190469999999948
21
-59.4550569999999965
0
LINE
8
LYELLOW
6
CONTINUOUS
10
107.6190469999999948
20
-59.4550569999999965
11
107.6666659999999922
21
-59.5502949999999984
0
LINE
8
LYELLOW
6
CONTINUOUS
10
107.6666659999999922
20
-59.5502949999999984
11
107.6666659999999922
21
-59.6455330000000004
0
LINE
8
LYELLOW
6
CONTINUOUS
10
107.6666659999999922
20
-59.6455330000000004
11
107.6190469999999948
21
-59.7883899999999997
0
LINE
8
LYELLOW
6
CONTINUOUS
10
107.6190469999999948
20
-59.7883899999999997
11
107.0476189999999974
21
-60.3598189999999946
0
LINE
8
LYELLOW
6
CONTINUOUS
10
107.0476189999999974
20
-60.3598189999999946
11
107.6666659999999922
21
-60.3598189999999946
0
LINE
8
LYELLOW
6
CONTINUOUS
10
83.8333329999999961
20
-42.584818999999996
11
83.8333329999999961
21
-41.584818999999996
0
LINE
8
LYELLOW
6
CONTINUOUS
10
83.8333329999999961
20
-41.584818999999996
11
84.0714279999999974
21
-41.584818999999996
0
LINE
8
LYELLOW
6
CONTINUOUS
10
84.0714279999999974
20
-41.584818999999996
11
84.2142849999999896
21
-41.6324380000000005
0
LINE
8
LYELLOW
6
CONTINUOUS
10
84.2142849999999896
20
-41.6324380000000005
11
84.3095229999999987
21
-41.7276759999999953
0
LINE
8
LYELLOW
6
CONTINUOUS
10
84.3095229999999987
20
-41.7276759999999953
11
84.3571419999999961
21
-41.8229139999999973
0
LINE
8
LYELLOW
6
CONTINUOUS
10
84.3571419999999961
20
-41.8229139999999973
11
84.4047609999999935
21
-42.0133900000000011
0
LINE
8
LYELLOW
6
CONTINUOUS
10
84.4047609999999935
20
-42.0133900000000011
11
84.4047609999999935
21
-42.1562470000000005
0
LINE
8
LYELLOW
6
CONTINUOUS
10
84.4047609999999935
20
-42.1562470000000005
11
84.3571419999999961
21
-42.3467229999999972
0
LINE
8
LYELLOW
6
CONTINUOUS
10
84.3571419999999961
20
-42.3467229999999972
11
84.3095229999999987
21
-42.4419609999999992
0
LINE
8
LYELLOW
6
CONTINUOUS
10
84.3095229999999987
20
-42.4419609999999992
11
84.2142849999999896
21
-42.5371999999999986
0
LINE
8
LYELLOW
6
CONTINUOUS
10
84.2142849999999896
20
-42.5371999999999986
11
84.0714279999999974
21
-42.584818999999996
0
LINE
8
LYELLOW
6
CONTINUOUS
10
84.0714279999999974
20
-42.584818999999996
11
83.8333329999999961
21
-42.584818999999996
0
LINE
8
LYELLOW
6
CONTINUOUS
10
84.6904759999999897
20
-41.584818999999996
11
85.023809
21
-42.584818999999996
0
LINE
8
LYELLOW
6
CONTINUOUS
10
85.023809
20
-42.584818999999996
11
85.3571419999999961
21
-41.584818999999996
0
LINE
8
LYELLOW
6
CONTINUOUS
10
85.6428569999999922
20
-41.6800569999999979
11
85.6904759999999897
21
-41.6324380000000005
0
LINE
8
LYELLOW
6
CONTINUOUS
10
85.6904759999999897
20
-41.6324380000000005
11
85.7857139999999987
21
-41.584818999999996
0
LINE
8
LYELLOW
6
CONTINUOUS
10
85.7857139999999987
20
-41.584818999999996
11
86.023809
21
-41.584818999999996
0
LINE
8
LYELLOW
6
CONTINUOUS
10
86.023809
20
-41.584818999999996
11
86.1190469999999948
21
-41.6324380000000005
0
LINE
8
LYELLOW
6
CONTINUOUS
10
86.1190469999999948
20
-41.6324380000000005
11
86.1666659999999922
21
-41.6800569999999979
0
LINE
8
LYELLOW
6
CONTINUOUS
10
86.1666659999999922
20
-41.6800569999999979
11
86.2142849999999896
21
-41.7752949999999998
0
LINE
8
LYELLOW
6
CONTINUOUS
10
86.2142849999999896
20
-41.7752949999999998
11
86.2142849999999896
21
-41.8705329999999947
0
LINE
8
LYELLOW
6
CONTINUOUS
10
86.2142849999999896
20
-41.8705329999999947
11
86.1666659999999922
21
-42.0133900000000011
0
LINE
8
LYELLOW
6
CONTINUOUS
10
86.1666659999999922
20
-42.0133900000000011
11
85.5952379999999948
21
-42.584818999999996
0
LINE
8
LYELLOW
6
CONTINUOUS
10
85.5952379999999948
20
-42.584818999999996
11
86.2142849999999896
21
-42.584818999999996
0
LINE
8
LYELLOW
6
CONTINUOUS
10
80.928094999999999
20
-42.9048189999999963
11
80.928094999999999
21
-41.9048189999999963
0
LINE
8
LYELLOW
6
CONTINUOUS
10
81.4995229999999964
20
-42.9048189999999963
11
81.0709519999999912
21
-42.3333900000000014
0
LINE
8
LYELLOW
6
CONTINUOUS
10
81.4995229999999964
20
-41.9048189999999963
11
80.928094999999999
21
-42.4762470000000008
0
LINE
8
LYELLOW
6
CONTINUOUS
10
88.4047609999999935
20
-84.334818999999996
11
88.0714279999999974
21
-83.858627999999996
0
LINE
8
LYELLOW
6
CONTINUOUS
10
87.8333329999999961
20
-84.334818999999996
11
87.8333329999999961
21
-83.334818999999996
0
LINE
8
LYELLOW
6
CONTINUOUS
10
87.8333329999999961
20
-83.334818999999996
11
88.2142849999999896
21
-83.334818999999996
0
LINE
8
LYELLOW
6
CONTINUOUS
10
88.2142849999999896
20
-83.334818999999996
11
88.3095229999999987
21
-83.3824379999999934
0
LINE
8
LYELLOW
6
CONTINUOUS
10
88.3095229999999987
20
-83.3824379999999934
11
88.3571419999999961
21
-83.4300569999999908
0
LINE
8
LYELLOW
6
CONTINUOUS
10
88.3571419999999961
20
-83.4300569999999908
11
88.4047609999999935
21
-83.5252949999999998
0
LINE
8
LYELLOW
6
CONTINUOUS
10
88.4047609999999935
20
-83.5252949999999998
11
88.4047609999999935
21
-83.6681519999999921
0
LINE
8
LYELLOW
6
CONTINUOUS
10
88.4047609999999935
20
-83.6681519999999921
11
88.3571419999999961
21
-83.7633900000000011
0
LINE
8
LYELLOW
6
CONTINUOUS
10
88.3571419999999961
20
-83.7633900000000011
11
88.3095229999999987
21
-83.8110089999999985
0
LINE
8
LYELLOW
6
CONTINUOUS
10
88.3095229999999987
20
-83.8110089999999985
11
88.2142849999999896
21
-83.858627999999996
0
LINE
8
LYELLOW
6
CONTINUOUS
10
88.2142849999999896
20
-83.858627999999996
11
87.8333329999999961
21
-83.858627999999996
0
LINE
8
LYELLOW
6
CONTINUOUS
10
89.1666659999999922
20
-83.8110089999999985
11
88.8333329999999961
21
-83.8110089999999985
0
LINE
8
LYELLOW
6
CONTINUOUS
10
88.8333329999999961
20
-84.334818999999996
11
88.8333329999999961
21
-83.334818999999996
0
LINE
8
LYELLOW
6
CONTINUOUS
10
88.8333329999999961
20
-83.334818999999996
11
89.3095229999999987
21
-83.334818999999996
0
LINE
8
LYELLOW
6
CONTINUOUS
10
89.6428569999999922
20
-83.4300569999999908
11
89.6904759999999897
21
-83.3824379999999934
0
LINE
8
LYELLOW
6
CONTINUOUS
10
89.6904759999999897
20
-83.3824379999999934
11
89.7857139999999987
21
-83.334818999999996
0
LINE
8
LYELLOW
6
CONTINUOUS
10
89.7857139999999987
20
-83.334818999999996
11
90.023809
21
-83.334818999999996
0
LINE
8
LYELLOW
6
CONTINUOUS
10
90.023809
20
-83.334818999999996
11
90.1190469999999948
21
-83.3824379999999934
0
LINE
8
LYELLOW
6
CONTINUOUS
10
90.1190469999999948
20
-83.3824379999999934
11
90.1666659999999922
21
-83.4300569999999908
0
LINE
8
LYELLOW
6
CONTINUOUS
10
90.1666659999999922
20
-83.4300569999999908
11
90.2142849999999896
21
-83.5252949999999998
0
LINE
8
LYELLOW
6
CONTINUOUS
10
90.2142849999999896
20
-83.5252949999999998
11
90.2142849999999896
21
-83.6205329999999947
0
LINE
8
LYELLOW
6
CONTINUOUS
10
90.2142849999999896
20
-83.6205329999999947
11
90.1666659999999922
21
-83.7633900000000011
0
LINE
8
LYELLOW
6
CONTINUOUS
10
90.1666659999999922
20
-83.7633900000000011
11
89.5952379999999948
21
-84.334818999999996
0
LINE
8
LYELLOW
6
CONTINUOUS
10
89.5952379999999948
20
-84.334818999999996
11
90.2142849999999896
21
-84.334818999999996
0
LINE
8
LYELLOW
6
CONTINUOUS
10
88.3333329999999961
20
-92.334818999999996
11
88.
21
-91.858627999999996
0
LINE
8
LYELLOW
6
CONTINUOUS
10
87.7619049999999987
20
-92.334818999999996
11
87.7619049999999987
21
-91.334818999999996
0
LINE
8
LYELLOW
6
CONTINUOUS
10
87.7619049999999987
20
-91.334818999999996
11
88.1428569999999922
21
-91.334818999999996
0
LINE
8
LYELLOW
6
CONTINUOUS
10
88.1428569999999922
20
-91.334818999999996
11
88.2380950000000013
21
-91.3824379999999934
0
LINE
8
LYELLOW
6
CONTINUOUS
10
88.2380950000000013
20
-91.3824379999999934
11
88.2857139999999987
21
-91.4300569999999908
0
LINE
8
LYELLOW
6
CONTINUOUS
10
88.2857139999999987
20
-91.4300569999999908
11
88.3333329999999961
21
-91.5252949999999998
0
LINE
8
LYELLOW
6
CONTINUOUS
10
88.3333329999999961
20
-91.5252949999999998
11
88.3333329999999961
21
-91.6681519999999921
0
LINE
8
LYELLOW
6
CONTINUOUS
10
88.3333329999999961
20
-91.6681519999999921
11
88.2857139999999987
21
-91.7633900000000011
0
LINE
8
LYELLOW
6
CONTINUOUS
10
88.2857139999999987
20
-91.7633900000000011
11
88.2380950000000013
21
-91.8110089999999985
0
LINE
8
LYELLOW
6
CONTINUOUS
10
88.2380950000000013
20
-91.8110089999999985
11
88.1428569999999922
21
-91.858627999999996
0
LINE
8
LYELLOW
6
CONTINUOUS
10
88.1428569999999922
20
-91.858627999999996
11
87.7619049999999987
21
-91.858627999999996
0
LINE
8
LYELLOW
6
CONTINUOUS
10
89.2857139999999987
20
-91.3824379999999934
11
89.1904759999999897
21
-91.334818999999996
0
LINE
8
LYELLOW
6
CONTINUOUS
10
89.1904759999999897
20
-91.334818999999996
11
89.0476189999999974
21
-91.334818999999996
0
LINE
8
LYELLOW
6
CONTINUOUS
10
89.0476189999999974
20
-91.334818999999996
11
88.904761999999991
21
-91.3824379999999934
0
LINE
8
LYELLOW
6
CONTINUOUS
10
88.904761999999991
20
-91.3824379999999934
11
88.8095239999999961
21
-91.4776760000000024
0
LINE
8
LYELLOW
6
CONTINUOUS
10
88.8095239999999961
20
-91.4776760000000024
11
88.7619049999999987
21
-91.5729139999999973
0
LINE
8
LYELLOW
6
CONTINUOUS
10
88.7619049999999987
20
-91.5729139999999973
11
88.7142860000000013
21
-91.7633900000000011
0
LINE
8
LYELLOW
6
CONTINUOUS
10
88.7142860000000013
20
-91.7633900000000011
11
88.7142860000000013
21
-91.9062469999999934
0
LINE
8
LYELLOW
6
CONTINUOUS
10
88.7142860000000013
20
-91.9062469999999934
11
88.7619049999999987
21
-92.0967229999999972
0
LINE
8
LYELLOW
6
CONTINUOUS
10
88.7619049999999987
20
-92.0967229999999972
11
88.8095239999999961
21
-92.1919609999999921
0
LINE
8
LYELLOW
6
CONTINUOUS
10
88.8095239999999961
20
-92.1919609999999921
11
88.904761999999991
21
-92.2871999999999986
0
LINE
8
LYELLOW
6
CONTINUOUS
10
88.904761999999991
20
-92.2871999999999986
11
89.0476189999999974
21
-92.334818999999996
0
LINE
8
LYELLOW
6
CONTINUOUS
10
89.0476189999999974
20
-92.334818999999996
11
89.1428569999999922
21
-92.334818999999996
0
LINE
8
LYELLOW
6
CONTINUOUS
10
89.1428569999999922
20
-92.334818999999996
11
89.2857139999999987
21
-92.2871999999999986
0
LINE
8
LYELLOW
6
CONTINUOUS
10
89.2857139999999987
20
-92.2871999999999986
11
89.3333329999999961
21
-92.2395799999999895
0
LINE
8
LYELLOW
6
CONTINUOUS
10
89.3333329999999961
20
-92.2395799999999895
11
89.3333329999999961
21
-91.9062469999999934
0
LINE
8
LYELLOW
6
CONTINUOUS
10
89.3333329999999961
20
-91.9062469999999934
11
89.1428569999999922
21
-91.9062469999999934
0
LINE
8
LYELLOW
6
CONTINUOUS
10
89.7142860000000013
20
-91.4300569999999908
11
89.7619049999999987
21
-91.3824379999999934
0
LINE
8
LYELLOW
6
CONTINUOUS
10
89.7619049999999987
20
-91.3824379999999934
11
89.8571429999999935
21
-91.334818999999996
0
LINE
8
LYELLOW
6
CONTINUOUS
10
89.8571429999999935
20
-91.334818999999996
11
90.0952379999999948
21
-91.334818999999996
0
LINE
8
LYELLOW
6
CONTINUOUS
10
90.0952379999999948
20
-91.334818999999996
11
90.1904759999999897
21
-91.3824379999999934
0
LINE
8
LYELLOW
6
CONTINUOUS
10
90.1904759999999897
20
-91.3824379999999934
11
90.2380950000000013
21
-91.4300569999999908
0
LINE
8
LYELLOW
6
CONTINUOUS
10
90.2380950000000013
20
-91.4300569999999908
11
90.2857139999999987
21
-91.5252949999999998
0
LINE
8
LYELLOW
6
CONTINUOUS
10
90.2857139999999987
20
-91.5252949999999998
11
90.2857139999999987
21
-91.6205329999999947
0
LINE
8
LYELLOW
6
CONTINUOUS
10
90.2857139999999987
20
-91.6205329999999947
11
90.2380950000000013
21
-91.7633900000000011
0
LINE
8
LYELLOW
6
CONTINUOUS
10
90.2380950000000013
20
-91.7633900000000011
11
89.6666669999999897
21
-92.334818999999996
0
LINE
8
LYELLOW
6
CONTINUOUS
10
89.6666669999999897
20
-92.334818999999996
11
90.2857139999999987
21
-92.334818999999996
0
LINE
8
LYELLOW
6
CONTINUOUS
10
84.4047609999999935
20
-63.109579999999994
11
84.3571419999999961
21
-63.157199999999996
0
LINE
8
LYELLOW
6
CONTINUOUS
10
84.3571419999999961
20
-63.157199999999996
11
84.2142849999999896
21
-63.2048190000000005
0
LINE
8
LYELLOW
6
CONTINUOUS
10
84.2142849999999896
20
-63.2048190000000005
11
84.1190469999999948
21
-63.2048190000000005
0
LINE
8
LYELLOW
6
CONTINUOUS
10
84.1190469999999948
20
-63.2048190000000005
11
83.9761900000000026
21
-63.157199999999996
0
LINE
8
LYELLOW
6
CONTINUOUS
10
83.9761900000000026
20
-63.157199999999996
11
83.8809519999999935
21
-63.0619609999999966
0
LINE
8
LYELLOW
6
CONTINUOUS
10
83.8809519999999935
20
-63.0619609999999966
11
83.8333329999999961
21
-62.9667229999999947
0
LINE
8
LYELLOW
6
CONTINUOUS
10
83.8333329999999961
20
-62.9667229999999947
11
83.7857139999999987
21
-62.7762469999999979
0
LINE
8
LYELLOW
6
CONTINUOUS
10
83.7857139999999987
20
-62.7762469999999979
11
83.7857139999999987
21
-62.6333899999999986
0
LINE
8
LYELLOW
6
CONTINUOUS
10
83.7857139999999987
20
-62.6333899999999986
11
83.8333329999999961
21
-62.4429139999999947
0
LINE
8
LYELLOW
6
CONTINUOUS
10
83.8333329999999961
20
-62.4429139999999947
11
83.8809519999999935
21
-62.3476759999999999
0
LINE
8
LYELLOW
6
CONTINUOUS
10
83.8809519999999935
20
-62.3476759999999999
11
83.9761900000000026
21
-62.2524379999999979
0
LINE
8
LYELLOW
6
CONTINUOUS
10
83.9761900000000026
20
-62.2524379999999979
11
84.1190469999999948
21
-62.2048190000000005
0
LINE
8
LYELLOW
6
CONTINUOUS
10
84.1190469999999948
20
-62.2048190000000005
11
84.2142849999999896
21
-62.2048190000000005
0
LINE
8
LYELLOW
6
CONTINUOUS
10
84.2142849999999896
20
-62.2048190000000005
11
84.3571419999999961
21
-62.2524379999999979
0
LINE
8
LYELLOW
6
CONTINUOUS
10
84.3571419999999961
20
-62.2524379999999979
11
84.4047609999999935
21
-62.3000569999999954
0
LINE
8
LYELLOW
6
CONTINUOUS
10
84.6904759999999897
20
-62.2048190000000005
11
85.023809
21
-63.2048190000000005
0
LINE
8
LYELLOW
6
CONTINUOUS
10
85.023809
20
-63.2048190000000005
11
85.3571419999999961
21
-62.2048190000000005
0
LINE
8
LYELLOW
6
CONTINUOUS
10
85.5952379999999948
20
-62.2048190000000005
11
86.2142849999999896
21
-62.2048190000000005
0
LINE
8
LYELLOW
6
CONTINUOUS
10
86.2142849999999896
20
-62.2048190000000005
11
85.8809519999999935
21
-62.585770999999994
0
LINE
8
LYELLOW
6
CONTINUOUS
10
85.8809519999999935
20
-62.585770999999994
11
86.023809
21
-62.585770999999994
0
LINE
8
LYELLOW
6
CONTINUOUS
10
86.023809
20
-62.585770999999994
11
86.1190469999999948
21
-62.6333899999999986
0
LINE
8
LYELLOW
6
CONTINUOUS
10
86.1190469999999948
20
-62.6333899999999986
11
86.1666659999999922
21
-62.681008999999996
0
LINE
8
LYELLOW
6
CONTINUOUS
10
86.1666659999999922
20
-62.681008999999996
11
86.2142849999999896
21
-62.7762469999999979
0
LINE
8
LYELLOW
6
CONTINUOUS
10
86.2142849999999896
20
-62.7762469999999979
11
86.2142849999999896
21
-63.0143419999999992
0
LINE
8
LYELLOW
6
CONTINUOUS
10
86.2142849999999896
20
-63.0143419999999992
11
86.1666659999999922
21
-63.109579999999994
0
LINE
8
LYELLOW
6
CONTINUOUS
10
86.1666659999999922
20
-63.109579999999994
11
86.1190469999999948
21
-63.157199999999996
0
LINE
8
LYELLOW
6
CONTINUOUS
10
86.1190469999999948
20
-63.157199999999996
11
86.023809
21
-63.2048190000000005
0
LINE
8
LYELLOW
6
CONTINUOUS
10
86.023809
20
-63.2048190000000005
11
85.7380950000000013
21
-63.2048190000000005
0
LINE
8
LYELLOW
6
CONTINUOUS
10
85.7380950000000013
20
-63.2048190000000005
11
85.6428569999999922
21
-63.157199999999996
0
LINE
8
LYELLOW
6
CONTINUOUS
10
85.6428569999999922
20
-63.157199999999996
11
85.5952379999999948
21
-63.109579999999994
0
LINE
8
LYELLOW
6
CONTINUOUS
10
83.8333329999999961
20
-56.584818999999996
11
83.8333329999999961
21
-55.584818999999996
0
LINE
8
LYELLOW
6
CONTINUOUS
10
83.8333329999999961
20
-55.584818999999996
11
84.0714279999999974
21
-55.584818999999996
0
LINE
8
LYELLOW
6
CONTINUOUS
10
84.0714279999999974
20
-55.584818999999996
11
84.2142849999999896
21
-55.6324380000000005
0
LINE
8
LYELLOW
6
CONTINUOUS
10
84.2142849999999896
20
-55.6324380000000005
11
84.3095229999999987
21
-55.7276759999999953
0
LINE
8
LYELLOW
6
CONTINUOUS
10
84.3095229999999987
20
-55.7276759999999953
11
84.3571419999999961
21
-55.8229139999999973
0
LINE
8
LYELLOW
6
CONTINUOUS
10
84.3571419999999961
20
-55.8229139999999973
11
84.4047609999999935
21
-56.013389999999994
0
LINE
8
LYELLOW
6
CONTINUOUS
10
84.4047609999999935
20
-56.013389999999994
11
84.4047609999999935
21
-56.1562470000000005
0
LINE
8
LYELLOW
6
CONTINUOUS
10
84.4047609999999935
20
-56.1562470000000005
11
84.3571419999999961
21
-56.3467229999999972
0
LINE
8
LYELLOW
6
CONTINUOUS
10
84.3571419999999961
20
-56.3467229999999972
11
84.3095229999999987
21
-56.4419609999999992
0
LINE
8
LYELLOW
6
CONTINUOUS
10
84.3095229999999987
20
-56.4419609999999992
11
84.2142849999999896
21
-56.5371999999999986
0
LINE
8
LYELLOW
6
CONTINUOUS
10
84.2142849999999896
20
-56.5371999999999986
11
84.0714279999999974
21
-56.584818999999996
0
LINE
8
LYELLOW
6
CONTINUOUS
10
84.0714279999999974
20
-56.584818999999996
11
83.8333329999999961
21
-56.584818999999996
0
LINE
8
LYELLOW
6
CONTINUOUS
10
84.6904759999999897
20
-55.584818999999996
11
85.023809
21
-56.584818999999996
0
LINE
8
LYELLOW
6
CONTINUOUS
10
85.023809
20
-56.584818999999996
11
85.3571419999999961
21
-55.584818999999996
0
LINE
8
LYELLOW
6
CONTINUOUS
10
85.5952379999999948
20
-55.584818999999996
11
86.2142849999999896
21
-55.584818999999996
0
LINE
8
LYELLOW
6
CONTINUOUS
10
86.2142849999999896
20
-55.584818999999996
11
85.8809519999999935
21
-55.9657709999999966
0
LINE
8
LYELLOW
6
CONTINUOUS
10
85.8809519999999935
20
-55.9657709999999966
11
86.023809
21
-55.9657709999999966
0
LINE
8
LYELLOW
6
CONTINUOUS
10
86.023809
20
-55.9657709999999966
11
86.1190469999999948
21
-56.013389999999994
0
LINE
8
LYELLOW
6
CONTINUOUS
10
86.1190469999999948
20
-56.013389999999994
11
86.1666659999999922
21
-56.0610089999999985
0
LINE
8
LYELLOW
6
CONTINUOUS
10
86.1666659999999922
20
-56.0610089999999985
11
86.2142849999999896
21
-56.1562470000000005
0
LINE
8
LYELLOW
6
CONTINUOUS
10
86.2142849999999896
20
-56.1562470000000005
11
86.2142849999999896
21
-56.3943419999999946
0
LINE
8
LYELLOW
6
CONTINUOUS
10
86.2142849999999896
20
-56.3943419999999946
11
86.1666659999999922
21
-56.4895799999999966
0
LINE
8
LYELLOW
6
CONTINUOUS
10
86.1666659999999922
20
-56.4895799999999966
11
86.1190469999999948
21
-56.5371999999999986
0
LINE
8
LYELLOW
6
CONTINUOUS
10
86.1190469999999948
20
-56.5371999999999986
11
86.023809
21
-56.584818999999996
0
LINE
8
LYELLOW
6
CONTINUOUS
10
86.023809
20
-56.584818999999996
11
85.7380950000000013
21
-56.584818999999996
0
LINE
8
LYELLOW
6
CONTINUOUS
10
85.7380950000000013
20
-56.584818999999996
11
85.6428569999999922
21
-56.5371999999999986
0
LINE
8
LYELLOW
6
CONTINUOUS
10
85.6428569999999922
20
-56.5371999999999986
11
85.5952379999999948
21
-56.4895799999999966
0
LINE
8
LYELLOW
6
CONTINUOUS
10
80.928094999999999
20
-56.9048189999999963
11
80.928094999999999
21
-55.9048189999999963
0
LINE
8
LYELLOW
6
CONTINUOUS
10
81.4995229999999964
20
-56.9048189999999963
11
81.0709519999999912
21
-56.3333899999999943
0
LINE
8
LYELLOW
6
CONTINUOUS
10
81.4995229999999964
20
-55.9048189999999963
11
80.928094999999999
21
-56.4762470000000008
0
LINE
8
LYELLOW
6
CONTINUOUS
10
98.3333329999999961
20
-89.109579999999994
11
98.2857139999999987
21
-89.1571999999999889
0
LINE
8
LYELLOW
6
CONTINUOUS
10
98.2857139999999987
20
-89.1571999999999889
11
98.1428569999999922
21
-89.2048190000000005
0
LINE
8
LYELLOW
6
CONTINUOUS
10
98.1428569999999922
20
-89.2048190000000005
11
98.0476189999999974
21
-89.2048190000000005
0
LINE
8
LYELLOW
6
CONTINUOUS
10
98.0476189999999974
20
-89.2048190000000005
11
97.904761999999991
21
-89.1571999999999889
0
LINE
8
LYELLOW
6
CONTINUOUS
10
97.904761999999991
20
-89.1571999999999889
11
97.8095239999999961
21
-89.0619609999999966
0
LINE
8
LYELLOW
6
CONTINUOUS
10
97.8095239999999961
20
-89.0619609999999966
11
97.7619049999999987
21
-88.9667230000000018
0
LINE
8
LYELLOW
6
CONTINUOUS
10
97.7619049999999987
20
-88.9667230000000018
11
97.7142860000000013
21
-88.7762469999999979
0
LINE
8
LYELLOW
6
CONTINUOUS
10
97.7142860000000013
20
-88.7762469999999979
11
97.7142860000000013
21
-88.6333899999999915
0
LINE
8
LYELLOW
6
CONTINUOUS
10
97.7142860000000013
20
-88.6333899999999915
11
97.7619049999999987
21
-88.4429140000000018
0
LINE
8
LYELLOW
6
CONTINUOUS
10
97.7619049999999987
20
-88.4429140000000018
11
97.8095239999999961
21
-88.3476759999999928
0
LINE
8
LYELLOW
6
CONTINUOUS
10
97.8095239999999961
20
-88.3476759999999928
11
97.904761999999991
21
-88.2524379999999979
0
LINE
8
LYELLOW
6
CONTINUOUS
10
97.904761999999991
20
-88.2524379999999979
11
98.0476189999999974
21
-88.2048190000000005
0
LINE
8
LYELLOW
6
CONTINUOUS
10
98.0476189999999974
20
-88.2048190000000005
11
98.1428569999999922
21
-88.2048190000000005
0
LINE
8
LYELLOW
6
CONTINUOUS
10
98.1428569999999922
20
-88.2048190000000005
11
98.2857139999999987
21
-88.2524379999999979
0
LINE
8
LYELLOW
6
CONTINUOUS
10
98.2857139999999987
20
-88.2524379999999979
11
98.3333329999999961
21
-88.3000569999999954
0
LINE
8
LYELLOW
6
CONTINUOUS
10
98.7619049999999987
20
-89.2048190000000005
11
98.7619049999999987
21
-88.2048190000000005
0
LINE
8
LYELLOW
6
CONTINUOUS
10
98.7619049999999987
20
-88.2048190000000005
11
99.
21
-88.2048190000000005
0
LINE
8
LYELLOW
6
CONTINUOUS
10
99.
20
-88.2048190000000005
11
99.1428569999999922
21
-88.2524379999999979
0
LINE
8
LYELLOW
6
CONTINUOUS
10
99.1428569999999922
20
-88.2524379999999979
11
99.2380950000000013
21
-88.3476759999999928
0
LINE
8
LYELLOW
6
CONTINUOUS
10
99.2380950000000013
20
-88.3476759999999928
11
99.2857139999999987
21
-88.4429140000000018
0
LINE
8
LYELLOW
6
CONTINUOUS
10
99.2857139999999987
20
-88.4429140000000018
11
99.3333329999999961
21
-88.6333899999999915
0
LINE
8
LYELLOW
6
CONTINUOUS
10
99.3333329999999961
20
-88.6333899999999915
11
99.3333329999999961
21
-88.7762469999999979
0
LINE
8
LYELLOW
6
CONTINUOUS
10
99.3333329999999961
20
-88.7762469999999979
11
99.2857139999999987
21
-88.9667230000000018
0
LINE
8
LYELLOW
6
CONTINUOUS
10
99.2857139999999987
20
-88.9667230000000018
11
99.2380950000000013
21
-89.0619609999999966
0
LINE
8
LYELLOW
6
CONTINUOUS
10
99.2380950000000013
20
-89.0619609999999966
11
99.1428569999999922
21
-89.1571999999999889
0
LINE
8
LYELLOW
6
CONTINUOUS
10
99.1428569999999922
20
-89.1571999999999889
11
99.
21
-89.2048190000000005
0
LINE
8
LYELLOW
6
CONTINUOUS
10
99.
20
-89.2048190000000005
11
98.7619049999999987
21
-89.2048190000000005
0
LINE
8
LYELLOW
6
CONTINUOUS
10
99.7142860000000013
20
-88.3000569999999954
11
99.7619049999999987
21
-88.2524379999999979
0
LINE
8
LYELLOW
6
CONTINUOUS
10
99.7619049999999987
20
-88.2524379999999979
11
99.8571429999999935
21
-88.2048190000000005
0
LINE
8
LYELLOW
6
CONTINUOUS
10
99.8571429999999935
20
-88.2048190000000005
11
100.0952379999999948
21
-88.2048190000000005
0
LINE
8
LYELLOW
6
CONTINUOUS
10
100.0952379999999948
20
-88.2048190000000005
11
100.1904759999999897
21
-88.2524379999999979
0
LINE
8
LYELLOW
6
CONTINUOUS
10
100.1904759999999897
20
-88.2524379999999979
11
100.2380950000000013
21
-88.3000569999999954
0
LINE
8
LYELLOW
6
CONTINUOUS
10
100.2380950000000013
20
-88.3000569999999954
11
100.2857139999999987
21
-88.3952949999999902
0
LINE
8
LYELLOW
6
CONTINUOUS
10
100.2857139999999987
20
-88.3952949999999902
11
100.2857139999999987
21
-88.4905329999999992
0
LINE
8
LYELLOW
6
CONTINUOUS
10
100.2857139999999987
20
-88.4905329999999992
11
100.2380950000000013
21
-88.6333899999999915
0
LINE
8
LYELLOW
6
CONTINUOUS
10
100.2380950000000013
20
-88.6333899999999915
11
99.6666669999999897
21
-89.2048190000000005
0
LINE
8
LYELLOW
6
CONTINUOUS
10
99.6666669999999897
20
-89.2048190000000005
11
100.2857139999999987
21
-89.2048190000000005
0
LINE
8
LYELLOW
6
CONTINUOUS
10
88.3571419999999961
20
-108.334818999999996
11
88.023809
21
-107.858627999999996
0
LINE
8
LYELLOW
6
CONTINUOUS
10
87.7857139999999987
20
-108.334818999999996
11
87.7857139999999987
21
-107.334818999999996
0
LINE
8
LYELLOW
6
CONTINUOUS
10
87.7857139999999987
20
-107.334818999999996
11
88.1666659999999922
21
-107.334818999999996
0
LINE
8
LYELLOW
6
CONTINUOUS
10
88.1666659999999922
20
-107.334818999999996
11
88.2619040000000012
21
-107.3824379999999934
0
LINE
8
LYELLOW
6
CONTINUOUS
10
88.2619040000000012
20
-107.3824379999999934
11
88.3095229999999987
21
-107.4300569999999908
0
LINE
8
LYELLOW
6
CONTINUOUS
10
88.3095229999999987
20
-107.4300569999999908
11
88.3571419999999961
21
-107.5252949999999998
0
LINE
8
LYELLOW
6
CONTINUOUS
10
88.3571419999999961
20
-107.5252949999999998
11
88.3571419999999961
21
-107.6681519999999921
0
LINE
8
LYELLOW
6
CONTINUOUS
10
88.3571419999999961
20
-107.6681519999999921
11
88.3095229999999987
21
-107.7633900000000011
0
LINE
8
LYELLOW
6
CONTINUOUS
10
88.3095229999999987
20
-107.7633900000000011
11
88.2619040000000012
21
-107.8110089999999985
0
LINE
8
LYELLOW
6
CONTINUOUS
10
88.2619040000000012
20
-107.8110089999999985
11
88.1666659999999922
21
-107.858627999999996
0
LINE
8
LYELLOW
6
CONTINUOUS
10
88.1666659999999922
20
-107.858627999999996
11
87.7857139999999987
21
-107.858627999999996
0
LINE
8
LYELLOW
6
CONTINUOUS
10
88.6904759999999897
20
-107.334818999999996
11
89.3095229999999987
21
-107.334818999999996
0
LINE
8
LYELLOW
6
CONTINUOUS
10
89.3095229999999987
20
-107.334818999999996
11
88.9761900000000026
21
-107.7157709999999895
0
LINE
8
LYELLOW
6
CONTINUOUS
10
88.9761900000000026
20
-107.7157709999999895
11
89.1190469999999948
21
-107.7157709999999895
0
LINE
8
LYELLOW
6
CONTINUOUS
10
89.1190469999999948
20
-107.7157709999999895
11
89.2142849999999896
21
-107.7633900000000011
0
LINE
8
LYELLOW
6
CONTINUOUS
10
89.2142849999999896
20
-107.7633900000000011
11
89.2619040000000012
21
-107.8110089999999985
0
LINE
8
LYELLOW
6
CONTINUOUS
10
89.2619040000000012
20
-107.8110089999999985
11
89.3095229999999987
21
-107.9062469999999934
0
LINE
8
LYELLOW
6
CONTINUOUS
10
89.3095229999999987
20
-107.9062469999999934
11
89.3095229999999987
21
-108.1443419999999946
0
LINE
8
LYELLOW
6
CONTINUOUS
10
89.3095229999999987
20
-108.1443419999999946
11
89.2619040000000012
21
-108.2395799999999895
0
LINE
8
LYELLOW
6
CONTINUOUS
10
89.2619040000000012
20
-108.2395799999999895
11
89.2142849999999896
21
-108.2871999999999986
0
LINE
8
LYELLOW
6
CONTINUOUS
10
89.2142849999999896
20
-108.2871999999999986
11
89.1190469999999948
21
-108.334818999999996
0
LINE
8
LYELLOW
6
CONTINUOUS
10
89.1190469999999948
20
-108.334818999999996
11
88.8333329999999961
21
-108.334818999999996
0
LINE
8
LYELLOW
6
CONTINUOUS
10
88.8333329999999961
20
-108.334818999999996
11
88.7380950000000013
21
-108.2871999999999986
0
LINE
8
LYELLOW
6
CONTINUOUS
10
88.7380950000000013
20
-108.2871999999999986
11
88.6904759999999897
21
-108.2395799999999895
0
LINE
8
LYELLOW
6
CONTINUOUS
10
90.1666659999999922
20
-107.6681519999999921
11
90.1666659999999922
21
-108.334818999999996
0
LINE
8
LYELLOW
6
CONTINUOUS
10
89.9285709999999909
20
-107.2871999999999986
11
89.6904759999999897
21
-108.0014849999999882
0
LINE
8
LYELLOW
6
CONTINUOUS
10
89.6904759999999897
20
-108.0014849999999882
11
90.3095229999999987
21
-108.0014849999999882
0
LINE
8
LYELLOW
6
CONTINUOUS
10
98.3333329999999961
20
-74.109579999999994
11
98.2857139999999987
21
-74.1572000000000031
0
LINE
8
LYELLOW
6
CONTINUOUS
10
98.2857139999999987
20
-74.1572000000000031
11
98.1428569999999922
21
-74.2048190000000005
0
LINE
8
LYELLOW
6
CONTINUOUS
10
98.1428569999999922
20
-74.2048190000000005
11
98.0476189999999974
21
-74.2048190000000005
0
LINE
8
LYELLOW
6
CONTINUOUS
10
98.0476189999999974
20
-74.2048190000000005
11
97.904761999999991
21
-74.1572000000000031
0
LINE
8
LYELLOW
6
CONTINUOUS
10
97.904761999999991
20
-74.1572000000000031
11
97.8095239999999961
21
-74.0619609999999966
0
LINE
8
LYELLOW
6
CONTINUOUS
10
97.8095239999999961
20
-74.0619609999999966
11
97.7619049999999987
21
-73.9667230000000018
0
LINE
8
LYELLOW
6
CONTINUOUS
10
97.7619049999999987
20
-73.9667230000000018
11
97.7142860000000013
21
-73.7762469999999979
0
LINE
8
LYELLOW
6
CONTINUOUS
10
97.7142860000000013
20
-73.7762469999999979
11
97.7142860000000013
21
-73.6333899999999915
0
LINE
8
LYELLOW
6
CONTINUOUS
10
97.7142860000000013
20
-73.6333899999999915
11
97.7619049999999987
21
-73.4429140000000018
0
LINE
8
LYELLOW
6
CONTINUOUS
10
97.7619049999999987
20
-73.4429140000000018
11
97.8095239999999961
21
-73.3476759999999928
0
LINE
8
LYELLOW
6
CONTINUOUS
10
97.8095239999999961
20
-73.3476759999999928
11
97.904761999999991
21
-73.2524379999999979
0
LINE
8
LYELLOW
6
CONTINUOUS
10
97.904761999999991
20
-73.2524379999999979
11
98.0476189999999974
21
-73.2048190000000005
0
LINE
8
LYELLOW
6
CONTINUOUS
10
98.0476189999999974
20
-73.2048190000000005
11
98.1428569999999922
21
-73.2048190000000005
0
LINE
8
LYELLOW
6
CONTINUOUS
10
98.1428569999999922
20
-73.2048190000000005
11
98.2857139999999987
21
-73.2524379999999979
0
LINE
8
LYELLOW
6
CONTINUOUS
10
98.2857139999999987
20
-73.2524379999999979
11
98.3333329999999961
21
-73.3000569999999954
0
LINE
8
LYELLOW
6
CONTINUOUS
10
98.7619049999999987
20
-74.2048190000000005
11
98.7619049999999987
21
-73.2048190000000005
0
LINE
8
LYELLOW
6
CONTINUOUS
10
98.7619049999999987
20
-73.2048190000000005
11
99.
21
-73.2048190000000005
0
LINE
8
LYELLOW
6
CONTINUOUS
10
99.
20
-73.2048190000000005
11
99.1428569999999922
21
-73.2524379999999979
0
LINE
8
LYELLOW
6
CONTINUOUS
10
99.1428569999999922
20
-73.2524379999999979
11
99.2380950000000013
21
-73.3476759999999928
0
LINE
8
LYELLOW
6
CONTINUOUS
10
99.2380950000000013
20
-73.3476759999999928
11
99.2857139999999987
21
-73.4429140000000018
0
LINE
8
LYELLOW
6
CONTINUOUS
10
99.2857139999999987
20
-73.4429140000000018
11
99.3333329999999961
21
-73.6333899999999915
0
LINE
8
LYELLOW
6
CONTINUOUS
10
99.3333329999999961
20
-73.6333899999999915
11
99.3333329999999961
21
-73.7762469999999979
0
LINE
8
LYELLOW
6
CONTINUOUS
10
99.3333329999999961
20
-73.7762469999999979
11
99.2857139999999987
21
-73.9667230000000018
0
LINE
8
LYELLOW
6
CONTINUOUS
10
99.2857139999999987
20
-73.9667230000000018
11
99.2380950000000013
21
-74.0619609999999966
0
LINE
8
LYELLOW
6
CONTINUOUS
10
99.2380950000000013
20
-74.0619609999999966
11
99.1428569999999922
21
-74.1572000000000031
0
LINE
8
LYELLOW
6
CONTINUOUS
10
99.1428569999999922
20
-74.1572000000000031
11
99.
21
-74.2048190000000005
0
LINE
8
LYELLOW
6
CONTINUOUS
10
99.
20
-74.2048190000000005
11
98.7619049999999987
21
-74.2048190000000005
0
LINE
8
LYELLOW
6
CONTINUOUS
10
100.2857139999999987
20
-74.2048190000000005
11
99.7142860000000013
21
-74.2048190000000005
0
LINE
8
LYELLOW
6
CONTINUOUS
10
100.
20
-74.2048190000000005
11
100.
21
-73.2048190000000005
0
LINE
8
LYELLOW
6
CONTINUOUS
10
100.
20
-73.2048190000000005
11
99.904761999999991
21
-73.3476759999999928
0
LINE
8
LYELLOW
6
CONTINUOUS
10
99.904761999999991
20
-73.3476759999999928
11
99.8095239999999961
21
-73.4429140000000018
0
LINE
8
LYELLOW
6
CONTINUOUS
10
99.8095239999999961
20
-73.4429140000000018
11
99.7142860000000013
21
-73.4905329999999992
0
LINE
8
LYELLOW
6
CONTINUOUS
10
84.4047609999999935
20
-49.1095800000000011
11
84.3571419999999961
21
-49.157199999999996
0
LINE
8
LYELLOW
6
CONTINUOUS
10
84.3571419999999961
20
-49.157199999999996
11
84.2142849999999896
21
-49.2048190000000005
0
LINE
8
LYELLOW
6
CONTINUOUS
10
84.2142849999999896
20
-49.2048190000000005
11
84.1190469999999948
21
-49.2048190000000005
0
LINE
8
LYELLOW
6
CONTINUOUS
10
84.1190469999999948
20
-49.2048190000000005
11
83.9761900000000026
21
-49.157199999999996
0
LINE
8
LYELLOW
6
CONTINUOUS
10
83.9761900000000026
20
-49.157199999999996
11
83.8809519999999935
21
-49.0619609999999966
0
LINE
8
LYELLOW
6
CONTINUOUS
10
83.8809519999999935
20
-49.0619609999999966
11
83.8333329999999961
21
-48.9667229999999947
0
LINE
8
LYELLOW
6
CONTINUOUS
10
83.8333329999999961
20
-48.9667229999999947
11
83.7857139999999987
21
-48.7762469999999979
0
LINE
8
LYELLOW
6
CONTINUOUS
10
83.7857139999999987
20
-48.7762469999999979
11
83.7857139999999987
21
-48.6333899999999986
0
LINE
8
LYELLOW
6
CONTINUOUS
10
83.7857139999999987
20
-48.6333899999999986
11
83.8333329999999961
21
-48.4429139999999947
0
LINE
8
LYELLOW
6
CONTINUOUS
10
83.8333329999999961
20
-48.4429139999999947
11
83.8809519999999935
21
-48.3476759999999999
0
LINE
8
LYELLOW
6
CONTINUOUS
10
83.8809519999999935
20
-48.3476759999999999
11
83.9761900000000026
21
-48.2524379999999979
0
LINE
8
LYELLOW
6
CONTINUOUS
10
83.9761900000000026
20
-48.2524379999999979
11
84.1190469999999948
21
-48.2048190000000005
0
LINE
8
LYELLOW
6
CONTINUOUS
10
84.1190469999999948
20
-48.2048190000000005
11
84.2142849999999896
21
-48.2048190000000005
0
LINE
8
LYELLOW
6
CONTINUOUS
10
84.2142849999999896
20
-48.2048190000000005
11
84.3571419999999961
21
-48.2524379999999979
0
LINE
8
LYELLOW
6
CONTINUOUS
10
84.3571419999999961
20
-48.2524379999999979
11
84.4047609999999935
21
-48.3000569999999954
0
LINE
8
LYELLOW
6
CONTINUOUS
10
84.6904759999999897
20
-48.2048190000000005
11
85.023809
21
-49.2048190000000005
0
LINE
8
LYELLOW
6
CONTINUOUS
10
85.023809
20
-49.2048190000000005
11
85.3571419999999961
21
-48.2048190000000005
0
LINE
8
LYELLOW
6
CONTINUOUS
10
85.6428569999999922
20
-48.3000569999999954
11
85.6904759999999897
21
-48.2524379999999979
0
LINE
8
LYELLOW
6
CONTINUOUS
10
85.6904759999999897
20
-48.2524379999999979
11
85.7857139999999987
21
-48.2048190000000005
0
LINE
8
LYELLOW
6
CONTINUOUS
10
85.7857139999999987
20
-48.2048190000000005
11
86.023809
21
-48.2048190000000005
0
LINE
8
LYELLOW
6
CONTINUOUS
10
86.023809
20
-48.2048190000000005
11
86.1190469999999948
21
-48.2524379999999979
0
LINE
8
LYELLOW
6
CONTINUOUS
10
86.1190469999999948
20
-48.2524379999999979
11
86.1666659999999922
21
-48.3000569999999954
0
LINE
8
LYELLOW
6
CONTINUOUS
10
86.1666659999999922
20
-48.3000569999999954
11
86.2142849999999896
21
-48.3952949999999973
0
LINE
8
LYELLOW
6
CONTINUOUS
10
86.2142849999999896
20
-48.3952949999999973
11
86.2142849999999896
21
-48.4905329999999992
0
LINE
8
LYELLOW
6
CONTINUOUS
10
86.2142849999999896
20
-48.4905329999999992
11
86.1666659999999922
21
-48.6333899999999986
0
LINE
8
LYELLOW
6
CONTINUOUS
10
86.1666659999999922
20
-48.6333899999999986
11
85.5952379999999948
21
-49.2048190000000005
0
LINE
8
LYELLOW
6
CONTINUOUS
10
85.5952379999999948
20
-49.2048190000000005
11
86.2142849999999896
21
-49.2048190000000005
0
LINE
8
LYELLOW
6
CONTINUOUS
10
88.3333329999999961
20
-77.334818999999996
11
88.
21
-76.858627999999996
0
LINE
8
LYELLOW
6
CONTINUOUS
10
87.7619049999999987
20
-77.334818999999996
11
87.7619049999999987
21
-76.334818999999996
0
LINE
8
LYELLOW
6
CONTINUOUS
10
87.7619049999999987
20
-76.334818999999996
11
88.1428569999999922
21
-76.334818999999996
0
LINE
8
LYELLOW
6
CONTINUOUS
10
88.1428569999999922
20
-76.334818999999996
11
88.2380950000000013
21
-76.3824379999999934
0
LINE
8
LYELLOW
6
CONTINUOUS
10
88.2380950000000013
20
-76.3824379999999934
11
88.2857139999999987
21
-76.4300569999999908
0
LINE
8
LYELLOW
6
CONTINUOUS
10
88.2857139999999987
20
-76.4300569999999908
11
88.3333329999999961
21
-76.5252949999999998
0
LINE
8
LYELLOW
6
CONTINUOUS
10
88.3333329999999961
20
-76.5252949999999998
11
88.3333329999999961
21
-76.6681519999999921
0
LINE
8
LYELLOW
6
CONTINUOUS
10
88.3333329999999961
20
-76.6681519999999921
11
88.2857139999999987
21
-76.7633900000000011
0
LINE
8
LYELLOW
6
CONTINUOUS
10
88.2857139999999987
20
-76.7633900000000011
11
88.2380950000000013
21
-76.8110089999999985
0
LINE
8
LYELLOW
6
CONTINUOUS
10
88.2380950000000013
20
-76.8110089999999985
11
88.1428569999999922
21
-76.858627999999996
0
LINE
8
LYELLOW
6
CONTINUOUS
10
88.1428569999999922
20
-76.858627999999996
11
87.7619049999999987
21
-76.858627999999996
0
LINE
8
LYELLOW
6
CONTINUOUS
10
89.2857139999999987
20
-76.3824379999999934
11
89.1904759999999897
21
-76.334818999999996
0
LINE
8
LYELLOW
6
CONTINUOUS
10
89.1904759999999897
20
-76.334818999999996
11
89.0476189999999974
21
-76.334818999999996
0
LINE
8
LYELLOW
6
CONTINUOUS
10
89.0476189999999974
20
-76.334818999999996
11
88.904761999999991
21
-76.3824379999999934
0
LINE
8
LYELLOW
6
CONTINUOUS
10
88.904761999999991
20
-76.3824379999999934
11
88.8095239999999961
21
-76.4776760000000024
0
LINE
8
LYELLOW
6
CONTINUOUS
10
88.8095239999999961
20
-76.4776760000000024
11
88.7619049999999987
21
-76.5729139999999973
0
LINE
8
LYELLOW
6
CONTINUOUS
10
88.7619049999999987
20
-76.5729139999999973
11
88.7142860000000013
21
-76.7633900000000011
0
LINE
8
LYELLOW
6
CONTINUOUS
10
88.7142860000000013
20
-76.7633900000000011
11
88.7142860000000013
21
-76.9062469999999934
0
LINE
8
LYELLOW
6
CONTINUOUS
10
88.7142860000000013
20
-76.9062469999999934
11
88.7619049999999987
21
-77.0967229999999972
0
LINE
8
LYELLOW
6
CONTINUOUS
10
88.7619049999999987
20
-77.0967229999999972
11
88.8095239999999961
21
-77.1919609999999921
0
LINE
8
LYELLOW
6
CONTINUOUS
10
88.8095239999999961
20
-77.1919609999999921
11
88.904761999999991
21
-77.2871999999999986
0
LINE
8
LYELLOW
6
CONTINUOUS
10
88.904761999999991
20
-77.2871999999999986
11
89.0476189999999974
21
-77.334818999999996
0
LINE
8
LYELLOW
6
CONTINUOUS
10
89.0476189999999974
20
-77.334818999999996
11
89.1428569999999922
21
-77.334818999999996
0
LINE
8
LYELLOW
6
CONTINUOUS
10
89.1428569999999922
20
-77.334818999999996
11
89.2857139999999987
21
-77.2871999999999986
0
LINE
8
LYELLOW
6
CONTINUOUS
10
89.2857139999999987
20
-77.2871999999999986
11
89.3333329999999961
21
-77.2395799999999895
0
LINE
8
LYELLOW
6
CONTINUOUS
10
89.3333329999999961
20
-77.2395799999999895
11
89.3333329999999961
21
-76.9062469999999934
0
LINE
8
LYELLOW
6
CONTINUOUS
10
89.3333329999999961
20
-76.9062469999999934
11
89.1428569999999922
21
-76.9062469999999934
0
LINE
8
LYELLOW
6
CONTINUOUS
10
90.2857139999999987
20
-77.334818999999996
11
89.7142860000000013
21
-77.334818999999996
0
LINE
8
LYELLOW
6
CONTINUOUS
10
90.
20
-77.334818999999996
11
90.
21
-76.334818999999996
0
LINE
8
LYELLOW
6
CONTINUOUS
10
90.
20
-76.334818999999996
11
89.904761999999991
21
-76.4776760000000024
0
LINE
8
LYELLOW
6
CONTINUOUS
10
89.904761999999991
20
-76.4776760000000024
11
89.8095239999999961
21
-76.5729139999999973
0
LINE
8
LYELLOW
6
CONTINUOUS
10
89.8095239999999961
20
-76.5729139999999973
11
89.7142860000000013
21
-76.6205329999999947
0
LINE
8
LYELLOW
6
CONTINUOUS
10
36.1904759999999968
20
-110.7848189999999988
11
36.1904759999999968
21
-111.4991039999999884
0
LINE
8
LYELLOW
6
CONTINUOUS
10
36.1904759999999968
20
-111.4991039999999884
11
36.1428569999999993
21
-111.6419609999999949
0
LINE
8
LYELLOW
6
CONTINUOUS
10
36.1428569999999993
20
-111.6419609999999949
11
36.0476189999999974
21
-111.7372000000000014
0
LINE
8
LYELLOW
6
CONTINUOUS
10
36.0476189999999974
20
-111.7372000000000014
11
35.9047619999999981
21
-111.7848189999999988
0
LINE
8
LYELLOW
6
CONTINUOUS
10
35.9047619999999981
20
-111.7848189999999988
11
35.8095239999999961
21
-111.7848189999999988
0
LINE
8
LYELLOW
6
CONTINUOUS
10
37.1904759999999968
20
-111.7848189999999988
11
36.6190479999999994
21
-111.7848189999999988
0
LINE
8
LYELLOW
6
CONTINUOUS
10
36.9047619999999981
20
-111.7848189999999988
11
36.9047619999999981
21
-110.7848189999999988
0
LINE
8
LYELLOW
6
CONTINUOUS
10
36.9047619999999981
20
-110.7848189999999988
11
36.8095239999999961
21
-110.9276759999999911
0
LINE
8
LYELLOW
6
CONTINUOUS
10
36.8095239999999961
20
-110.9276759999999911
11
36.7142860000000013
21
-111.0229140000000001
0
LINE
8
LYELLOW
6
CONTINUOUS
10
36.7142860000000013
20
-111.0229140000000001
11
36.6190479999999994
21
-111.0705329999999975
0
LINE
8
LYELLOW
6
CONTINUOUS
10
38.1428569999999993
20
-111.7848189999999988
11
37.5714289999999949
21
-111.7848189999999988
0
LINE
8
LYELLOW
6
CONTINUOUS
10
37.8571430000000007
20
-111.7848189999999988
11
37.8571430000000007
21
-110.7848189999999988
0
LINE
8
LYELLOW
6
CONTINUOUS
10
37.8571430000000007
20
-110.7848189999999988
11
37.7619049999999987
21
-110.9276759999999911
0
LINE
8
LYELLOW
6
CONTINUOUS
10
37.7619049999999987
20
-110.9276759999999911
11
37.6666669999999968
21
-111.0229140000000001
0
LINE
8
LYELLOW
6
CONTINUOUS
10
37.6666669999999968
20
-111.0229140000000001
11
37.5714289999999949
21
-111.0705329999999975
0
LINE
8
LYELLOW
6
CONTINUOUS
10
106.6666659999999922
20
-72.6248190000000022
11
106.6666659999999922
21
-73.3391039999999919
0
LINE
8
LYELLOW
6
CONTINUOUS
10
106.6666659999999922
20
-73.3391039999999919
11
106.6190469999999948
21
-73.4819609999999983
0
LINE
8
LYELLOW
6
CONTINUOUS
10
106.6190469999999948
20
-73.4819609999999983
11
106.523809
21
-73.5771999999999906
0
LINE
8
LYELLOW
6
CONTINUOUS
10
106.523809
20
-73.5771999999999906
11
106.3809519999999935
21
-73.6248190000000022
0
LINE
8
LYELLOW
6
CONTINUOUS
10
106.3809519999999935
20
-73.6248190000000022
11
106.2857139999999987
21
-73.6248190000000022
0
LINE
8
LYELLOW
6
CONTINUOUS
10
107.5714279999999974
20
-72.9581519999999983
11
107.5714279999999974
21
-73.6248190000000022
0
LINE
8
LYELLOW
6
CONTINUOUS
10
107.3333329999999961
20
-72.5771999999999906
11
107.0952379999999948
21
-73.2914849999999944
0
LINE
8
LYELLOW
6
CONTINUOUS
10
107.0952379999999948
20
-73.2914849999999944
11
107.7142849999999896
21
-73.2914849999999944
0
LINE
8
LYELLOW
6
CONTINUOUS
10
106.6666659999999922
20
-85.6248190000000022
11
106.6666659999999922
21
-86.3391039999999919
0
LINE
8
LYELLOW
6
CONTINUOUS
10
106.6666659999999922
20
-86.3391039999999919
11
106.6190469999999948
21
-86.4819609999999983
0
LINE
8
LYELLOW
6
CONTINUOUS
10
106.6190469999999948
20
-86.4819609999999983
11
106.523809
21
-86.5771999999999906
0
LINE
8
LYELLOW
6
CONTINUOUS
10
106.523809
20
-86.5771999999999906
11
106.3809519999999935
21
-86.6248190000000022
0
LINE
8
LYELLOW
6
CONTINUOUS
10
106.3809519999999935
20
-86.6248190000000022
11
106.2857139999999987
21
-86.6248190000000022
0
LINE
8
LYELLOW
6
CONTINUOUS
10
107.5714279999999974
20
-85.6248190000000022
11
107.3809519999999935
21
-85.6248190000000022
0
LINE
8
LYELLOW
6
CONTINUOUS
10
107.3809519999999935
20
-85.6248190000000022
11
107.2857139999999987
21
-85.6724379999999996
0
LINE
8
LYELLOW
6
CONTINUOUS
10
107.2857139999999987
20
-85.6724379999999996
11
107.2380950000000013
21
-85.7200569999999971
0
LINE
8
LYELLOW
6
CONTINUOUS
10
107.2380950000000013
20
-85.7200569999999971
11
107.1428569999999922
21
-85.8629139999999893
0
LINE
8
LYELLOW
6
CONTINUOUS
10
107.1428569999999922
20
-85.8629139999999893
11
107.0952379999999948
21
-86.0533899999999932
0
LINE
8
LYELLOW
6
CONTINUOUS
10
107.0952379999999948
20
-86.0533899999999932
11
107.0952379999999948
21
-86.4343420000000009
0
LINE
8
LYELLOW
6
CONTINUOUS
10
107.0952379999999948
20
-86.4343420000000009
11
107.1428569999999922
21
-86.5295799999999957
0
LINE
8
LYELLOW
6
CONTINUOUS
10
107.1428569999999922
20
-86.5295799999999957
11
107.1904759999999897
21
-86.5771999999999906
0
LINE
8
LYELLOW
6
CONTINUOUS
10
107.1904759999999897
20
-86.5771999999999906
11
107.2857139999999987
21
-86.6248190000000022
0
LINE
8
LYELLOW
6
CONTINUOUS
10
107.2857139999999987
20
-86.6248190000000022
11
107.4761899999999883
21
-86.6248190000000022
0
LINE
8
LYELLOW
6
CONTINUOUS
10
107.4761899999999883
20
-86.6248190000000022
11
107.5714279999999974
21
-86.5771999999999906
0
LINE
8
LYELLOW
6
CONTINUOUS
10
107.5714279999999974
20
-86.5771999999999906
11
107.6190469999999948
21
-86.5295799999999957
0
LINE
8
LYELLOW
6
CONTINUOUS
10
107.6190469999999948
20
-86.5295799999999957
11
107.6666659999999922
21
-86.4343420000000009
0
LINE
8
LYELLOW
6
CONTINUOUS
10
107.6666659999999922
20
-86.4343420000000009
11
107.6666659999999922
21
-86.1962469999999996
0
LINE
8
LYELLOW
6
CONTINUOUS
10
107.6666659999999922
20
-86.1962469999999996
11
107.6190469999999948
21
-86.1010089999999906
0
LINE
8
LYELLOW
6
CONTINUOUS
10
107.6190469999999948
20
-86.1010089999999906
11
107.5714279999999974
21
-86.0533899999999932
0
LINE
8
LYELLOW
6
CONTINUOUS
10
107.5714279999999974
20
-86.0533899999999932
11
107.4761899999999883
21
-86.0057709999999958
0
LINE
8
LYELLOW
6
CONTINUOUS
10
107.4761899999999883
20
-86.0057709999999958
11
107.2857139999999987
21
-86.0057709999999958
0
LINE
8
LYELLOW
6
CONTINUOUS
10
107.2857139999999987
20
-86.0057709999999958
11
107.1904759999999897
21
-86.0533899999999932
0
LINE
8
LYELLOW
6
CONTINUOUS
10
107.1904759999999897
20
-86.0533899999999932
11
107.1428569999999922
21
-86.1010089999999906
0
LINE
8
LYELLOW
6
CONTINUOUS
10
107.1428569999999922
20
-86.1010089999999906
11
107.0952379999999948
21
-86.1962469999999996
0
LINE
8
LYELLOW
6
CONTINUOUS
10
88.3333329999999961
20
-114.109579999999994
11
88.2857139999999987
21
-114.1571999999999889
0
LINE
8
LYELLOW
6
CONTINUOUS
10
88.2857139999999987
20
-114.1571999999999889
11
88.1428569999999922
21
-114.2048190000000005
0
LINE
8
LYELLOW
6
CONTINUOUS
10
88.1428569999999922
20
-114.2048190000000005
11
88.0476189999999974
21
-114.2048190000000005
0
LINE
8
LYELLOW
6
CONTINUOUS
10
88.0476189999999974
20
-114.2048190000000005
11
87.904761999999991
21
-114.1571999999999889
0
LINE
8
LYELLOW
6
CONTINUOUS
10
87.904761999999991
20
-114.1571999999999889
11
87.8095239999999961
21
-114.0619609999999966
0
LINE
8
LYELLOW
6
CONTINUOUS
10
87.8095239999999961
20
-114.0619609999999966
11
87.7619049999999987
21
-113.9667230000000018
0
LINE
8
LYELLOW
6
CONTINUOUS
10
87.7619049999999987
20
-113.9667230000000018
11
87.7142860000000013
21
-113.7762469999999979
0
LINE
8
LYELLOW
6
CONTINUOUS
10
87.7142860000000013
20
-113.7762469999999979
11
87.7142860000000013
21
-113.6333899999999915
0
LINE
8
LYELLOW
6
CONTINUOUS
10
87.7142860000000013
20
-113.6333899999999915
11
87.7619049999999987
21
-113.4429140000000018
0
LINE
8
LYELLOW
6
CONTINUOUS
10
87.7619049999999987
20
-113.4429140000000018
11
87.8095239999999961
21
-113.3476759999999928
0
LINE
8
LYELLOW
6
CONTINUOUS
10
87.8095239999999961
20
-113.3476759999999928
11
87.904761999999991
21
-113.2524379999999979
0
LINE
8
LYELLOW
6
CONTINUOUS
10
87.904761999999991
20
-113.2524379999999979
11
88.0476189999999974
21
-113.2048190000000005
0
LINE
8
LYELLOW
6
CONTINUOUS
10
88.0476189999999974
20
-113.2048190000000005
11
88.1428569999999922
21
-113.2048190000000005
0
LINE
8
LYELLOW
6
CONTINUOUS
10
88.1428569999999922
20
-113.2048190000000005
11
88.2857139999999987
21
-113.2524379999999979
0
LINE
8
LYELLOW
6
CONTINUOUS
10
88.2857139999999987
20
-113.2524379999999979
11
88.3333329999999961
21
-113.3000569999999954
0
LINE
8
LYELLOW
6
CONTINUOUS
10
88.7619049999999987
20
-114.2048190000000005
11
88.7619049999999987
21
-113.2048190000000005
0
LINE
8
LYELLOW
6
CONTINUOUS
10
88.7619049999999987
20
-113.2048190000000005
11
89.
21
-113.2048190000000005
0
LINE
8
LYELLOW
6
CONTINUOUS
10
89.
20
-113.2048190000000005
11
89.1428569999999922
21
-113.2524379999999979
0
LINE
8
LYELLOW
6
CONTINUOUS
10
89.1428569999999922
20
-113.2524379999999979
11
89.2380950000000013
21
-113.3476759999999928
0
LINE
8
LYELLOW
6
CONTINUOUS
10
89.2380950000000013
20
-113.3476759999999928
11
89.2857139999999987
21
-113.4429140000000018
0
LINE
8
LYELLOW
6
CONTINUOUS
10
89.2857139999999987
20
-113.4429140000000018
11
89.3333329999999961
21
-113.6333899999999915
0
LINE
8
LYELLOW
6
CONTINUOUS
10
89.3333329999999961
20
-113.6333899999999915
11
89.3333329999999961
21
-113.7762469999999979
0
LINE
8
LYELLOW
6
CONTINUOUS
10
89.3333329999999961
20
-113.7762469999999979
11
89.2857139999999987
21
-113.9667230000000018
0
LINE
8
LYELLOW
6
CONTINUOUS
10
89.2857139999999987
20
-113.9667230000000018
11
89.2380950000000013
21
-114.0619609999999966
0
LINE
8
LYELLOW
6
CONTINUOUS
10
89.2380950000000013
20
-114.0619609999999966
11
89.1428569999999922
21
-114.1571999999999889
0
LINE
8
LYELLOW
6
CONTINUOUS
10
89.1428569999999922
20
-114.1571999999999889
11
89.
21
-114.2048190000000005
0
LINE
8
LYELLOW
6
CONTINUOUS
10
89.
20
-114.2048190000000005
11
88.7619049999999987
21
-114.2048190000000005
0
LINE
8
LYELLOW
6
CONTINUOUS
10
89.6666669999999897
20
-113.2048190000000005
11
90.2857139999999987
21
-113.2048190000000005
0
LINE
8
LYELLOW
6
CONTINUOUS
10
90.2857139999999987
20
-113.2048190000000005
11
89.9523810000000026
21
-113.585770999999994
0
LINE
8
LYELLOW
6
CONTINUOUS
10
89.9523810000000026
20
-113.585770999999994
11
90.0952379999999948
21
-113.585770999999994
0
LINE
8
LYELLOW
6
CONTINUOUS
10
90.0952379999999948
20
-113.585770999999994
11
90.1904759999999897
21
-113.6333899999999915
0
LINE
8
LYELLOW
6
CONTINUOUS
10
90.1904759999999897
20
-113.6333899999999915
11
90.2380950000000013
21
-113.6810089999999889
0
LINE
8
LYELLOW
6
CONTINUOUS
10
90.2380950000000013
20
-113.6810089999999889
11
90.2857139999999987
21
-113.7762469999999979
0
LINE
8
LYELLOW
6
CONTINUOUS
10
90.2857139999999987
20
-113.7762469999999979
11
90.2857139999999987
21
-114.0143419999999992
0
LINE
8
LYELLOW
6
CONTINUOUS
10
90.2857139999999987
20
-114.0143419999999992
11
90.2380950000000013
21
-114.109579999999994
0
LINE
8
LYELLOW
6
CONTINUOUS
10
90.2380950000000013
20
-114.109579999999994
11
90.1904759999999897
21
-114.1571999999999889
0
LINE
8
LYELLOW
6
CONTINUOUS
10
90.1904759999999897
20
-114.1571999999999889
11
90.0952379999999948
21
-114.2048190000000005
0
LINE
8
LYELLOW
6
CONTINUOUS
10
90.0952379999999948
20
-114.2048190000000005
11
89.8095239999999961
21
-114.2048190000000005
0
LINE
8
LYELLOW
6
CONTINUOUS
10
89.8095239999999961
20
-114.2048190000000005
11
89.7142860000000013
21
-114.1571999999999889
0
LINE
8
LYELLOW
6
CONTINUOUS
10
89.7142860000000013
20
-114.1571999999999889
11
89.6666669999999897
21
-114.109579999999994
0
LINE
8
LYELLOW
6
CONTINUOUS
10
88.3571419999999961
20
-100.334818999999996
11
88.023809
21
-99.858627999999996
0
LINE
8
LYELLOW
6
CONTINUOUS
10
87.7857139999999987
20
-100.334818999999996
11
87.7857139999999987
21
-99.334818999999996
0
LINE
8
LYELLOW
6
CONTINUOUS
10
87.7857139999999987
20
-99.334818999999996
11
88.1666659999999922
21
-99.334818999999996
0
LINE
8
LYELLOW
6
CONTINUOUS
10
88.1666659999999922
20
-99.334818999999996
11
88.2619040000000012
21
-99.3824379999999934
0
LINE
8
LYELLOW
6
CONTINUOUS
10
88.2619040000000012
20
-99.3824379999999934
11
88.3095229999999987
21
-99.4300569999999908
0
LINE
8
LYELLOW
6
CONTINUOUS
10
88.3095229999999987
20
-99.4300569999999908
11
88.3571419999999961
21
-99.5252949999999998
0
LINE
8
LYELLOW
6
CONTINUOUS
10
88.3571419999999961
20
-99.5252949999999998
11
88.3571419999999961
21
-99.6681519999999921
0
LINE
8
LYELLOW
6
CONTINUOUS
10
88.3571419999999961
20
-99.6681519999999921
11
88.3095229999999987
21
-99.7633900000000011
0
LINE
8
LYELLOW
6
CONTINUOUS
10
88.3095229999999987
20
-99.7633900000000011
11
88.2619040000000012
21
-99.8110089999999985
0
LINE
8
LYELLOW
6
CONTINUOUS
10
88.2619040000000012
20
-99.8110089999999985
11
88.1666659999999922
21
-99.858627999999996
0
LINE
8
LYELLOW
6
CONTINUOUS
10
88.1666659999999922
20
-99.858627999999996
11
87.7857139999999987
21
-99.858627999999996
0
LINE
8
LYELLOW
6
CONTINUOUS
10
88.6904759999999897
20
-99.334818999999996
11
89.3095229999999987
21
-99.334818999999996
0
LINE
8
LYELLOW
6
CONTINUOUS
10
89.3095229999999987
20
-99.334818999999996
11
88.9761900000000026
21
-99.7157709999999895
0
LINE
8
LYELLOW
6
CONTINUOUS
10
88.9761900000000026
20
-99.7157709999999895
11
89.1190469999999948
21
-99.7157709999999895
0
LINE
8
LYELLOW
6
CONTINUOUS
10
89.1190469999999948
20
-99.7157709999999895
11
89.2142849999999896
21
-99.7633900000000011
0
LINE
8
LYELLOW
6
CONTINUOUS
10
89.2142849999999896
20
-99.7633900000000011
11
89.2619040000000012
21
-99.8110089999999985
0
LINE
8
LYELLOW
6
CONTINUOUS
10
89.2619040000000012
20
-99.8110089999999985
11
89.3095229999999987
21
-99.9062469999999934
0
LINE
8
LYELLOW
6
CONTINUOUS
10
89.3095229999999987
20
-99.9062469999999934
11
89.3095229999999987
21
-100.1443419999999946
0
LINE
8
LYELLOW
6
CONTINUOUS
10
89.3095229999999987
20
-100.1443419999999946
11
89.2619040000000012
21
-100.2395799999999895
0
LINE
8
LYELLOW
6
CONTINUOUS
10
89.2619040000000012
20
-100.2395799999999895
11
89.2142849999999896
21
-100.2871999999999986
0
LINE
8
LYELLOW
6
CONTINUOUS
10
89.2142849999999896
20
-100.2871999999999986
11
89.1190469999999948
21
-100.334818999999996
0
LINE
8
LYELLOW
6
CONTINUOUS
10
89.1190469999999948
20
-100.334818999999996
11
88.8333329999999961
21
-100.334818999999996
0
LINE
8
LYELLOW
6
CONTINUOUS
10
88.8333329999999961
20
-100.334818999999996
11
88.7380950000000013
21
-100.2871999999999986
0
LINE
8
LYELLOW
6
CONTINUOUS
10
88.7380950000000013
20
-100.2871999999999986
11
88.6904759999999897
21
-100.2395799999999895
0
LINE
8
LYELLOW
6
CONTINUOUS
10
89.6904759999999897
20
-99.4300569999999908
11
89.7380950000000013
21
-99.3824379999999934
0
LINE
8
LYELLOW
6
CONTINUOUS
10
89.7380950000000013
20
-99.3824379999999934
11
89.8333329999999961
21
-99.334818999999996
0
LINE
8
LYELLOW
6
CONTINUOUS
10
89.8333329999999961
20
-99.334818999999996
11
90.0714279999999974
21
-99.334818999999996
0
LINE
8
LYELLOW
6
CONTINUOUS
10
90.0714279999999974
20
-99.334818999999996
11
90.1666659999999922
21
-99.3824379999999934
0
LINE
8
LYELLOW
6
CONTINUOUS
10
90.1666659999999922
20
-99.3824379999999934
11
90.2142849999999896
21
-99.4300569999999908
0
LINE
8
LYELLOW
6
CONTINUOUS
10
90.2142849999999896
20
-99.4300569999999908
11
90.2619040000000012
21
-99.5252949999999998
0
LINE
8
LYELLOW
6
CONTINUOUS
10
90.2619040000000012
20
-99.5252949999999998
11
90.2619040000000012
21
-99.6205329999999947
0
LINE
8
LYELLOW
6
CONTINUOUS
10
90.2619040000000012
20
-99.6205329999999947
11
90.2142849999999896
21
-99.7633900000000011
0
LINE
8
LYELLOW
6
CONTINUOUS
10
90.2142849999999896
20
-99.7633900000000011
11
89.6428569999999922
21
-100.334818999999996
0
LINE
8
LYELLOW
6
CONTINUOUS
10
89.6428569999999922
20
-100.334818999999996
11
90.2619040000000012
21
-100.334818999999996
0
LINE
8
LYELLOW
6
CONTINUOUS
10
70.8095229999999987
20
-114.109579999999994
11
70.7619040000000012
21
-114.1571999999999889
0
LINE
8
LYELLOW
6
CONTINUOUS
10
70.7619040000000012
20
-114.1571999999999889
11
70.6190469999999948
21
-114.2048190000000005
0
LINE
8
LYELLOW
6
CONTINUOUS
10
70.6190469999999948
20
-114.2048190000000005
11
70.523809
21
-114.2048190000000005
0
LINE
8
LYELLOW
6
CONTINUOUS
10
70.523809
20
-114.2048190000000005
11
70.3809519999999935
21
-114.1571999999999889
0
LINE
8
LYELLOW
6
CONTINUOUS
10
70.3809519999999935
20
-114.1571999999999889
11
70.2857139999999987
21
-114.0619609999999966
0
LINE
8
LYELLOW
6
CONTINUOUS
10
70.2857139999999987
20
-114.0619609999999966
11
70.2380950000000013
21
-113.9667230000000018
0
LINE
8
LYELLOW
6
CONTINUOUS
10
70.2380950000000013
20
-113.9667230000000018
11
70.1904760000000039
21
-113.7762469999999979
0
LINE
8
LYELLOW
6
CONTINUOUS
10
70.1904760000000039
20
-113.7762469999999979
11
70.1904760000000039
21
-113.6333899999999915
0
LINE
8
LYELLOW
6
CONTINUOUS
10
70.1904760000000039
20
-113.6333899999999915
11
70.2380950000000013
21
-113.4429140000000018
0
LINE
8
LYELLOW
6
CONTINUOUS
10
70.2380950000000013
20
-113.4429140000000018
11
70.2857139999999987
21
-113.3476759999999928
0
LINE
8
LYELLOW
6
CONTINUOUS
10
70.2857139999999987
20
-113.3476759999999928
11
70.3809519999999935
21
-113.2524379999999979
0
LINE
8
LYELLOW
6
CONTINUOUS
10
70.3809519999999935
20
-113.2524379999999979
11
70.523809
21
-113.2048190000000005
0
LINE
8
LYELLOW
6
CONTINUOUS
10
70.523809
20
-113.2048190000000005
11
70.6190469999999948
21
-113.2048190000000005
0
LINE
8
LYELLOW
6
CONTINUOUS
10
70.6190469999999948
20
-113.2048190000000005
11
70.7619040000000012
21
-113.2524379999999979
0
LINE
8
LYELLOW
6
CONTINUOUS
10
70.7619040000000012
20
-113.2524379999999979
11
70.8095229999999987
21
-113.3000569999999954
0
LINE
8
LYELLOW
6
CONTINUOUS
10
71.5714279999999974
20
-113.6810089999999889
11
71.7142850000000038
21
-113.7286280000000005
0
LINE
8
LYELLOW
6
CONTINUOUS
10
71.7142850000000038
20
-113.7286280000000005
11
71.7619040000000012
21
-113.7762469999999979
0
LINE
8
LYELLOW
6
CONTINUOUS
10
71.7619040000000012
20
-113.7762469999999979
11
71.8095229999999987
21
-113.8714849999999927
0
LINE
8
LYELLOW
6
CONTINUOUS
10
71.8095229999999987
20
-113.8714849999999927
11
71.8095229999999987
21
-114.0143419999999992
0
LINE
8
LYELLOW
6
CONTINUOUS
10
71.8095229999999987
20
-114.0143419999999992
11
71.7619040000000012
21
-114.109579999999994
0
LINE
8
LYELLOW
6
CONTINUOUS
10
71.7619040000000012
20
-114.109579999999994
11
71.7142850000000038
21
-114.1571999999999889
0
LINE
8
LYELLOW
6
CONTINUOUS
10
71.7142850000000038
20
-114.1571999999999889
11
71.6190469999999948
21
-114.2048190000000005
0
LINE
8
LYELLOW
6
CONTINUOUS
10
71.6190469999999948
20
-114.2048190000000005
11
71.2380950000000013
21
-114.2048190000000005
0
LINE
8
LYELLOW
6
CONTINUOUS
10
71.2380950000000013
20
-114.2048190000000005
11
71.2380950000000013
21
-113.2048190000000005
0
LINE
8
LYELLOW
6
CONTINUOUS
10
71.2380950000000013
20
-113.2048190000000005
11
71.5714279999999974
21
-113.2048190000000005
0
LINE
8
LYELLOW
6
CONTINUOUS
10
71.5714279999999974
20
-113.2048190000000005
11
71.6666659999999922
21
-113.2524379999999979
0
LINE
8
LYELLOW
6
CONTINUOUS
10
71.6666659999999922
20
-113.2524379999999979
11
71.7142850000000038
21
-113.3000569999999954
0
LINE
8
LYELLOW
6
CONTINUOUS
10
71.7142850000000038
20
-113.3000569999999954
11
71.7619040000000012
21
-113.3952949999999902
0
LINE
8
LYELLOW
6
CONTINUOUS
10
71.7619040000000012
20
-113.3952949999999902
11
71.7619040000000012
21
-113.4905329999999992
0
LINE
8
LYELLOW
6
CONTINUOUS
10
71.7619040000000012
20
-113.4905329999999992
11
71.7142850000000038
21
-113.585770999999994
0
LINE
8
LYELLOW
6
CONTINUOUS
10
71.7142850000000038
20
-113.585770999999994
11
71.6666659999999922
21
-113.6333899999999915
0
LINE
8
LYELLOW
6
CONTINUOUS
10
71.6666659999999922
20
-113.6333899999999915
11
71.5714279999999974
21
-113.6810089999999889
0
LINE
8
LYELLOW
6
CONTINUOUS
10
71.5714279999999974
20
-113.6810089999999889
11
71.2380950000000013
21
-113.6810089999999889
0
LINE
8
LYELLOW
6
CONTINUOUS
10
36.6666659999999993
20
-95.7848189999999988
11
36.6666659999999993
21
-96.4991040000000027
0
LINE
8
LYELLOW
6
CONTINUOUS
10
36.6666659999999993
20
-96.4991040000000027
11
36.6190469999999948
21
-96.6419609999999949
0
LINE
8
LYELLOW
6
CONTINUOUS
10
36.6190469999999948
20
-96.6419609999999949
11
36.523809
21
-96.7372000000000014
0
LINE
8
LYELLOW
6
CONTINUOUS
10
36.523809
20
-96.7372000000000014
11
36.3809520000000006
21
-96.7848189999999988
0
LINE
8
LYELLOW
6
CONTINUOUS
10
36.3809520000000006
20
-96.7848189999999988
11
36.2857139999999987
21
-96.7848189999999988
0
LINE
8
LYELLOW
6
CONTINUOUS
10
37.1904759999999968
20
-96.7848189999999988
11
37.3809520000000006
21
-96.7848189999999988
0
LINE
8
LYELLOW
6
CONTINUOUS
10
37.3809520000000006
20
-96.7848189999999988
11
37.4761899999999955
21
-96.7372000000000014
0
LINE
8
LYELLOW
6
CONTINUOUS
10
37.4761899999999955
20
-96.7372000000000014
11
37.523809
21
-96.6895799999999923
0
LINE
8
LYELLOW
6
CONTINUOUS
10
37.523809
20
-96.6895799999999923
11
37.6190469999999948
21
-96.5467230000000001
0
LINE
8
LYELLOW
6
CONTINUOUS
10
37.6190469999999948
20
-96.5467230000000001
11
37.6666659999999993
21
-96.3562469999999962
0
LINE
8
LYELLOW
6
CONTINUOUS
10
37.6666659999999993
20
-96.3562469999999962
11
37.6666659999999993
21
-95.9752950000000027
0
LINE
8
LYELLOW
6
CONTINUOUS
10
37.6666659999999993
20
-95.9752950000000027
11
37.6190469999999948
21
-95.8800569999999936
0
LINE
8
LYELLOW
6
CONTINUOUS
10
37.6190469999999948
20
-95.8800569999999936
11
37.5714279999999974
21
-95.8324379999999962
0
LINE
8
LYELLOW
6
CONTINUOUS
10
37.5714279999999974
20
-95.8324379999999962
11
37.4761899999999955
21
-95.7848189999999988
0
LINE
8
LYELLOW
6
CONTINUOUS
10
37.4761899999999955
20
-95.7848189999999988
11
37.2857139999999987
21
-95.7848189999999988
0
LINE
8
LYELLOW
6
CONTINUOUS
10
37.2857139999999987
20
-95.7848189999999988
11
37.1904759999999968
21
-95.8324379999999962
0
LINE
8
LYELLOW
6
CONTINUOUS
10
37.1904759999999968
20
-95.8324379999999962
11
37.1428569999999993
21
-95.8800569999999936
0
LINE
8
LYELLOW
6
CONTINUOUS
10
37.1428569999999993
20
-95.8800569999999936
11
37.0952379999999948
21
-95.9752950000000027
0
LINE
8
LYELLOW
6
CONTINUOUS
10
37.0952379999999948
20
-95.9752950000000027
11
37.0952379999999948
21
-96.2133899999999898
0
LINE
8
LYELLOW
6
CONTINUOUS
10
37.0952379999999948
20
-96.2133899999999898
11
37.1428569999999993
21
-96.3086279999999988
0
LINE
8
LYELLOW
6
CONTINUOUS
10
37.1428569999999993
20
-96.3086279999999988
11
37.1904759999999968
21
-96.3562469999999962
0
LINE
8
LYELLOW
6
CONTINUOUS
10
37.1904759999999968
20
-96.3562469999999962
11
37.2857139999999987
21
-96.4038659999999936
0
LINE
8
LYELLOW
6
CONTINUOUS
10
37.2857139999999987
20
-96.4038659999999936
11
37.4761899999999955
21
-96.4038659999999936
0
LINE
8
LYELLOW
6
CONTINUOUS
10
37.4761899999999955
20
-96.4038659999999936
11
37.5714279999999974
21
-96.3562469999999962
0
LINE
8
LYELLOW
6
CONTINUOUS
10
37.5714279999999974
20
-96.3562469999999962
11
37.6190469999999948
21
-96.3086279999999988
0
LINE
8
LYELLOW
6
CONTINUOUS
10
37.6190469999999948
20
-96.3086279999999988
11
37.6666659999999993
21
-96.2133899999999898
0
LINE
8
LYELLOW
6
CONTINUOUS
10
67.9285709999999909
20
-42.334818999999996
11
67.5952379999999948
21
-41.858627999999996
0
LINE
8
LYELLOW
6
CONTINUOUS
10
67.3571429999999935
20
-42.334818999999996
11
67.3571429999999935
21
-41.334818999999996
0
LINE
8
LYELLOW
6
CONTINUOUS
10
67.3571429999999935
20
-41.334818999999996
11
67.7380950000000013
21
-41.334818999999996
0
LINE
8
LYELLOW
6
CONTINUOUS
10
67.7380950000000013
20
-41.334818999999996
11
67.8333329999999961
21
-41.3824380000000005
0
LINE
8
LYELLOW
6
CONTINUOUS
10
67.8333329999999961
20
-41.3824380000000005
11
67.8809519999999935
21
-41.4300569999999979
0
LINE
8
LYELLOW
6
CONTINUOUS
10
67.8809519999999935
20
-41.4300569999999979
11
67.9285709999999909
21
-41.5252949999999998
0
LINE
8
LYELLOW
6
CONTINUOUS
10
67.9285709999999909
20
-41.5252949999999998
11
67.9285709999999909
21
-41.6681519999999992
0
LINE
8
LYELLOW
6
CONTINUOUS
10
67.9285709999999909
20
-41.6681519999999992
11
67.8809519999999935
21
-41.7633900000000011
0
LINE
8
LYELLOW
6
CONTINUOUS
10
67.8809519999999935
20
-41.7633900000000011
11
67.8333329999999961
21
-41.8110089999999985
0
LINE
8
LYELLOW
6
CONTINUOUS
10
67.8333329999999961
20
-41.8110089999999985
11
67.7380950000000013
21
-41.858627999999996
0
LINE
8
LYELLOW
6
CONTINUOUS
10
67.7380950000000013
20
-41.858627999999996
11
67.3571429999999935
21
-41.858627999999996
0
LINE
8
LYELLOW
6
CONTINUOUS
10
68.2142860000000013
20
-41.334818999999996
11
68.5476189999999974
21
-42.334818999999996
0
LINE
8
LYELLOW
6
CONTINUOUS
10
68.5476189999999974
20
-42.334818999999996
11
68.8809519999999935
21
-41.334818999999996
0
LINE
8
LYELLOW
6
CONTINUOUS
10
69.1666670000000039
20
-41.4300569999999979
11
69.2142860000000013
21
-41.3824380000000005
0
LINE
8
LYELLOW
6
CONTINUOUS
10
69.2142860000000013
20
-41.3824380000000005
11
69.3095239999999961
21
-41.334818999999996
0
LINE
8
LYELLOW
6
CONTINUOUS
10
69.3095239999999961
20
-41.334818999999996
11
69.5476189999999974
21
-41.334818999999996
0
LINE
8
LYELLOW
6
CONTINUOUS
10
69.5476189999999974
20
-41.334818999999996
11
69.6428569999999922
21
-41.3824380000000005
0
LINE
8
LYELLOW
6
CONTINUOUS
10
69.6428569999999922
20
-41.3824380000000005
11
69.6904760000000039
21
-41.4300569999999979
0
LINE
8
LYELLOW
6
CONTINUOUS
10
69.6904760000000039
20
-41.4300569999999979
11
69.7380950000000013
21
-41.5252949999999998
0
LINE
8
LYELLOW
6
CONTINUOUS
10
69.7380950000000013
20
-41.5252949999999998
11
69.7380950000000013
21
-41.6205329999999947
0
LINE
8
LYELLOW
6
CONTINUOUS
10
69.7380950000000013
20
-41.6205329999999947
11
69.6904760000000039
21
-41.7633900000000011
0
LINE
8
LYELLOW
6
CONTINUOUS
10
69.6904760000000039
20
-41.7633900000000011
11
69.1190479999999923
21
-42.334818999999996
0
LINE
8
LYELLOW
6
CONTINUOUS
10
69.1190479999999923
20
-42.334818999999996
11
69.7380950000000013
21
-42.334818999999996
0
LINE
8
LYELLOW
6
CONTINUOUS
10
70.0714289999999949
20
-41.334818999999996
11
70.6904760000000039
21
-41.334818999999996
0
LINE
8
LYELLOW
6
CONTINUOUS
10
70.6904760000000039
20
-41.334818999999996
11
70.3571429999999935
21
-41.7157709999999966
0
LINE
8
LYELLOW
6
CONTINUOUS
10
70.3571429999999935
20
-41.7157709999999966
11
70.5
21
-41.7157709999999966
0
LINE
8
LYELLOW
6
CONTINUOUS
10
70.5
20
-41.7157709999999966
11
70.5952379999999948
21
-41.7633900000000011
0
LINE
8
LYELLOW
6
CONTINUOUS
10
70.5952379999999948
20
-41.7633900000000011
11
70.6428569999999922
21
-41.8110089999999985
0
LINE
8
LYELLOW
6
CONTINUOUS
10
70.6428569999999922
20
-41.8110089999999985
11
70.6904760000000039
21
-41.9062470000000005
0
LINE
8
LYELLOW
6
CONTINUOUS
10
70.6904760000000039
20
-41.9062470000000005
11
70.6904760000000039
21
-42.1443419999999946
0
LINE
8
LYELLOW
6
CONTINUOUS
10
70.6904760000000039
20
-42.1443419999999946
11
70.6428569999999922
21
-42.2395799999999966
0
LINE
8
LYELLOW
6
CONTINUOUS
10
70.6428569999999922
20
-42.2395799999999966
11
70.5952379999999948
21
-42.2871999999999986
0
LINE
8
LYELLOW
6
CONTINUOUS
10
70.5952379999999948
20
-42.2871999999999986
11
70.5
21
-42.334818999999996
0
LINE
8
LYELLOW
6
CONTINUOUS
10
70.5
20
-42.334818999999996
11
70.2142860000000013
21
-42.334818999999996
0
LINE
8
LYELLOW
6
CONTINUOUS
10
70.2142860000000013
20
-42.334818999999996
11
70.1190479999999923
21
-42.2871999999999986
0
LINE
8
LYELLOW
6
CONTINUOUS
10
70.1190479999999923
20
-42.2871999999999986
11
70.0714289999999949
21
-42.2395799999999966
0
LINE
8
LYELLOW
6
CONTINUOUS
10
51.928570999999998
20
-28.3348189999999995
11
51.5952379999999948
21
-27.8586279999999995
0
LINE
8
LYELLOW
6
CONTINUOUS
10
51.3571430000000007
20
-28.3348189999999995
11
51.3571430000000007
21
-27.3348189999999995
0
LINE
8
LYELLOW
6
CONTINUOUS
10
51.3571430000000007
20
-27.3348189999999995
11
51.7380949999999942
21
-27.3348189999999995
0
LINE
8
LYELLOW
6
CONTINUOUS
10
51.7380949999999942
20
-27.3348189999999995
11
51.8333329999999961
21
-27.3824380000000005
0
LINE
8
LYELLOW
6
CONTINUOUS
10
51.8333329999999961
20
-27.3824380000000005
11
51.8809520000000006
21
-27.4300569999999979
0
LINE
8
LYELLOW
6
CONTINUOUS
10
51.8809520000000006
20
-27.4300569999999979
11
51.928570999999998
21
-27.5252949999999998
0
LINE
8
LYELLOW
6
CONTINUOUS
10
51.928570999999998
20
-27.5252949999999998
11
51.928570999999998
21
-27.6681519999999992
0
LINE
8
LYELLOW
6
CONTINUOUS
10
51.928570999999998
20
-27.6681519999999992
11
51.8809520000000006
21
-27.7633899999999976
0
LINE
8
LYELLOW
6
CONTINUOUS
10
51.8809520000000006
20
-27.7633899999999976
11
51.8333329999999961
21
-27.8110089999999985
0
LINE
8
LYELLOW
6
CONTINUOUS
10
51.8333329999999961
20
-27.8110089999999985
11
51.7380949999999942
21
-27.8586279999999995
0
LINE
8
LYELLOW
6
CONTINUOUS
10
51.7380949999999942
20
-27.8586279999999995
11
51.3571430000000007
21
-27.8586279999999995
0
LINE
8
LYELLOW
6
CONTINUOUS
10
52.2142859999999942
20
-27.3348189999999995
11
52.5476189999999974
21
-28.3348189999999995
0
LINE
8
LYELLOW
6
CONTINUOUS
10
52.5476189999999974
20
-28.3348189999999995
11
52.8809520000000006
21
-27.3348189999999995
0
LINE
8
LYELLOW
6
CONTINUOUS
10
53.7380949999999942
20
-28.3348189999999995
11
53.1666669999999968
21
-28.3348189999999995
0
LINE
8
LYELLOW
6
CONTINUOUS
10
53.4523809999999955
20
-28.3348189999999995
11
53.4523809999999955
21
-27.3348189999999995
0
LINE
8
LYELLOW
6
CONTINUOUS
10
53.4523809999999955
20
-27.3348189999999995
11
53.3571430000000007
21
-27.4776759999999989
0
LINE
8
LYELLOW
6
CONTINUOUS
10
53.3571430000000007
20
-27.4776759999999989
11
53.2619049999999987
21
-27.5729139999999973
0
LINE
8
LYELLOW
6
CONTINUOUS
10
53.2619049999999987
20
-27.5729139999999973
11
53.1666669999999968
21
-27.6205329999999982
0
LINE
8
LYELLOW
6
CONTINUOUS
10
54.6904759999999968
20
-28.3348189999999995
11
54.1190479999999994
21
-28.3348189999999995
0
LINE
8
LYELLOW
6
CONTINUOUS
10
54.4047619999999981
20
-28.3348189999999995
11
54.4047619999999981
21
-27.3348189999999995
0
LINE
8
LYELLOW
6
CONTINUOUS
10
54.4047619999999981
20
-27.3348189999999995
11
54.3095239999999961
21
-27.4776759999999989
0
LINE
8
LYELLOW
6
CONTINUOUS
10
54.3095239999999961
20
-27.4776759999999989
11
54.2142859999999942
21
-27.5729139999999973
0
LINE
8
LYELLOW
6
CONTINUOUS
10
54.2142859999999942
20
-27.5729139999999973
11
54.1190479999999994
21
-27.6205329999999982
0
LINE
8
LYELLOW
6
CONTINUOUS
10
53.8333329999999961
20
-104.334818999999996
11
53.5
21
-103.858627999999996
0
LINE
8
LYELLOW
6
CONTINUOUS
10
53.2619049999999987
20
-104.334818999999996
11
53.2619049999999987
21
-103.334818999999996
0
LINE
8
LYELLOW
6
CONTINUOUS
10
53.2619049999999987
20
-103.334818999999996
11
53.6428569999999993
21
-103.334818999999996
0
LINE
8
LYELLOW
6
CONTINUOUS
10
53.6428569999999993
20
-103.334818999999996
11
53.7380949999999942
21
-103.3824379999999934
0
LINE
8
LYELLOW
6
CONTINUOUS
10
53.7380949999999942
20
-103.3824379999999934
11
53.7857139999999987
21
-103.4300569999999908
0
LINE
8
LYELLOW
6
CONTINUOUS
10
53.7857139999999987
20
-103.4300569999999908
11
53.8333329999999961
21
-103.5252949999999998
0
LINE
8
LYELLOW
6
CONTINUOUS
10
53.8333329999999961
20
-103.5252949999999998
11
53.8333329999999961
21
-103.6681519999999921
0
LINE
8
LYELLOW
6
CONTINUOUS
10
53.8333329999999961
20
-103.6681519999999921
11
53.7857139999999987
21
-103.7633900000000011
0
LINE
8
LYELLOW
6
CONTINUOUS
10
53.7857139999999987
20
-103.7633900000000011
11
53.7380949999999942
21
-103.8110089999999985
0
LINE
8
LYELLOW
6
CONTINUOUS
10
53.7380949999999942
20
-103.8110089999999985
11
53.6428569999999993
21
-103.858627999999996
0
LINE
8
LYELLOW
6
CONTINUOUS
10
53.6428569999999993
20
-103.858627999999996
11
53.2619049999999987
21
-103.858627999999996
0
LINE
8
LYELLOW
6
CONTINUOUS
10
54.2142859999999942
20
-104.2871999999999986
11
54.3571430000000007
21
-104.334818999999996
0
LINE
8
LYELLOW
6
CONTINUOUS
10
54.3571430000000007
20
-104.334818999999996
11
54.5952379999999948
21
-104.334818999999996
0
LINE
8
LYELLOW
6
CONTINUOUS
10
54.5952379999999948
20
-104.334818999999996
11
54.6904759999999968
21
-104.2871999999999986
0
LINE
8
LYELLOW
6
CONTINUOUS
10
54.6904759999999968
20
-104.2871999999999986
11
54.7380949999999942
21
-104.2395799999999895
0
LINE
8
LYELLOW
6
CONTINUOUS
10
54.7380949999999942
20
-104.2395799999999895
11
54.7857139999999987
21
-104.1443419999999946
0
LINE
8
LYELLOW
6
CONTINUOUS
10
54.7857139999999987
20
-104.1443419999999946
11
54.7857139999999987
21
-104.0491039999999998
0
LINE
8
LYELLOW
6
CONTINUOUS
10
54.7857139999999987
20
-104.0491039999999998
11
54.7380949999999942
21
-103.9538659999999908
0
LINE
8
LYELLOW
6
CONTINUOUS
10
54.7380949999999942
20
-103.9538659999999908
11
54.6904759999999968
21
-103.9062469999999934
0
LINE
8
LYELLOW
6
CONTINUOUS
10
54.6904759999999968
20
-103.9062469999999934
11
54.5952379999999948
21
-103.858627999999996
0
LINE
8
LYELLOW
6
CONTINUOUS
10
54.5952379999999948
20
-103.858627999999996
11
54.4047619999999981
21
-103.8110089999999985
0
LINE
8
LYELLOW
6
CONTINUOUS
10
54.4047619999999981
20
-103.8110089999999985
11
54.3095239999999961
21
-103.7633900000000011
0
LINE
8
LYELLOW
6
CONTINUOUS
10
54.3095239999999961
20
-103.7633900000000011
11
54.2619049999999987
21
-103.7157709999999895
0
LINE
8
LYELLOW
6
CONTINUOUS
10
54.2619049999999987
20
-103.7157709999999895
11
54.2142859999999942
21
-103.6205329999999947
0
LINE
8
LYELLOW
6
CONTINUOUS
10
54.2142859999999942
20
-103.6205329999999947
11
54.2142859999999942
21
-103.5252949999999998
0
LINE
8
LYELLOW
6
CONTINUOUS
10
54.2142859999999942
20
-103.5252949999999998
11
54.2619049999999987
21
-103.4300569999999908
0
LINE
8
LYELLOW
6
CONTINUOUS
10
54.2619049999999987
20
-103.4300569999999908
11
54.3095239999999961
21
-103.3824379999999934
0
LINE
8
LYELLOW
6
CONTINUOUS
10
54.3095239999999961
20
-103.3824379999999934
11
54.4047619999999981
21
-103.334818999999996
0
LINE
8
LYELLOW
6
CONTINUOUS
10
54.4047619999999981
20
-103.334818999999996
11
54.6428569999999993
21
-103.334818999999996
0
LINE
8
LYELLOW
6
CONTINUOUS
10
54.6428569999999993
20
-103.334818999999996
11
54.7857139999999987
21
-103.3824379999999934
0
LINE
8
LYELLOW
6
CONTINUOUS
10
55.2142859999999942
20
-104.334818999999996
11
55.2142859999999942
21
-103.334818999999996
0
LINE
8
LYELLOW
6
CONTINUOUS
10
55.2142859999999942
20
-103.8110089999999985
11
55.7857139999999987
21
-103.8110089999999985
0
LINE
8
LYELLOW
6
CONTINUOUS
10
55.7857139999999987
20
-104.334818999999996
11
55.7857139999999987
21
-103.334818999999996
0
LINE
8
LYELLOW
6
CONTINUOUS
10
56.1666669999999968
20
-103.334818999999996
11
56.7857139999999987
21
-103.334818999999996
0
LINE
8
LYELLOW
6
CONTINUOUS
10
56.7857139999999987
20
-103.334818999999996
11
56.4523809999999955
21
-103.7157709999999895
0
LINE
8
LYELLOW
6
CONTINUOUS
10
56.4523809999999955
20
-103.7157709999999895
11
56.5952379999999948
21
-103.7157709999999895
0
LINE
8
LYELLOW
6
CONTINUOUS
10
56.5952379999999948
20
-103.7157709999999895
11
56.6904759999999968
21
-103.7633900000000011
0
LINE
8
LYELLOW
6
CONTINUOUS
10
56.6904759999999968
20
-103.7633900000000011
11
56.7380949999999942
21
-103.8110089999999985
0
LINE
8
LYELLOW
6
CONTINUOUS
10
56.7380949999999942
20
-103.8110089999999985
11
56.7857139999999987
21
-103.9062469999999934
0
LINE
8
LYELLOW
6
CONTINUOUS
10
56.7857139999999987
20
-103.9062469999999934
11
56.7857139999999987
21
-104.1443419999999946
0
LINE
8
LYELLOW
6
CONTINUOUS
10
56.7857139999999987
20
-104.1443419999999946
11
56.7380949999999942
21
-104.2395799999999895
0
LINE
8
LYELLOW
6
CONTINUOUS
10
56.7380949999999942
20
-104.2395799999999895
11
56.6904759999999968
21
-104.2871999999999986
0
LINE
8
LYELLOW
6
CONTINUOUS
10
56.6904759999999968
20
-104.2871999999999986
11
56.5952379999999948
21
-104.334818999999996
0
LINE
8
LYELLOW
6
CONTINUOUS
10
56.5952379999999948
20
-104.334818999999996
11
56.3095239999999961
21
-104.334818999999996
0
LINE
8
LYELLOW
6
CONTINUOUS
10
56.3095239999999961
20
-104.334818999999996
11
56.2142859999999942
21
-104.2871999999999986
0
LINE
8
LYELLOW
6
CONTINUOUS
10
56.2142859999999942
20
-104.2871999999999986
11
56.1666669999999968
21
-104.2395799999999895
0
LINE
8
LYELLOW
6
CONTINUOUS
10
93.7299999999999898
20
-47.8799999999999955
11
100.269999999999996
21
-47.8799999999999955
0
LINE
8
LYELLOW
6
CONTINUOUS
10
93.7299999999999898
20
-48.2100000000000009
11
93.7299999999999898
21
-47.8799999999999955
0
LINE
8
LYELLOW
6
CONTINUOUS
10
93.7299999999999898
20
-50.2899999999999991
11
93.7299999999999898
21
-50.6199999999999974
0
LINE
8
LYELLOW
6
CONTINUOUS
10
93.7299999999999898
20
-50.6199999999999974
11
100.269999999999996
21
-50.6199999999999974
0
LINE
8
LYELLOW
6
CONTINUOUS
10
100.269999999999996
20
-47.8799999999999955
11
100.269999999999996
21
-48.2100000000000009
0
LINE
8
LYELLOW
6
CONTINUOUS
10
100.269999999999996
20
-50.6199999999999974
11
100.269999999999996
21
-50.2899999999999991
0
LINE
8
LYELLOW
6
CONTINUOUS
10
65.730000000000004
20
-28.879999999999999
11
72.269999999999996
21
-28.879999999999999
0
LINE
8
LYELLOW
6
CONTINUOUS
10
65.730000000000004
20
-29.2099999999999973
11
65.730000000000004
21
-28.879999999999999
0
LINE
8
LYELLOW
6
CONTINUOUS
10
65.730000000000004
20
-31.2899999999999991
11
65.730000000000004
21
-31.6199999999999974
0
LINE
8
LYELLOW
6
CONTINUOUS
10
65.730000000000004
20
-31.6199999999999974
11
72.269999999999996
21
-31.6199999999999974
0
LINE
8
LYELLOW
6
CONTINUOUS
10
72.269999999999996
20
-28.879999999999999
11
72.269999999999996
21
-29.2099999999999973
0
LINE
8
LYELLOW
6
CONTINUOUS
10
72.269999999999996
20
-31.6199999999999974
11
72.269999999999996
21
-31.2899999999999991
0
LINE
8
LYELLOW
6
CONTINUOUS
10
31.9199999999999982
20
-54.4399999999999977
11
31.9199999999999982
21
-62.0599999999999952
0
LINE
8
LYELLOW
6
CONTINUOUS
10
31.9199999999999982
20
-55.7100000000000009
11
42.0799999999999983
21
-55.7100000000000009
0
LINE
8
LYELLOW
6
CONTINUOUS
10
31.9199999999999982
20
-62.0599999999999952
11
42.0799999999999983
21
-62.0599999999999952
0
LINE
8
LYELLOW
6
CONTINUOUS
10
42.0799999999999983
20
-54.4399999999999977
11
31.9199999999999982
21
-54.4399999999999977
0
LINE
8
LYELLOW
6
CONTINUOUS
10
42.0799999999999983
20
-62.0599999999999952
11
42.0799999999999983
21
-54.4399999999999977
0
LINE
8
LYELLOW
6
CONTINUOUS
10
68.75
20
-86.1099999999999994
11
68.75
21
-96.3900000000000006
0
LINE
8
LYELLOW
6
CONTINUOUS
10
68.75
20
-96.3900000000000006
11
73.25
21
-96.3900000000000006
0
LINE
8
LYELLOW
6
CONTINUOUS
10
70.
20
-86.1099999999999994
11
68.75
21
-86.1099999999999994
0
LINE
8
LYELLOW
6
CONTINUOUS
10
73.25
20
-86.1099999999999994
11
72.
21
-86.1099999999999994
0
LINE
8
LYELLOW
6
CONTINUOUS
10
73.25
20
-96.3900000000000006
11
73.25
21
-86.1099999999999994
0
ARC
8
LYELLOW
10
71.
20
-86.1099999999999994
40
1.
50
-180.00000000
51
-0.00000000
0
LINE
8
LYELLOW
6
CONTINUOUS
10
65.730000000000004
20
-56.8799999999999955
11
72.269999999999996
21
-56.8799999999999955
0
LINE
8
LYELLOW
6
CONTINUOUS
10
65.730000000000004
20
-57.2100000000000009
11
65.730000000000004
21
-56.8799999999999955
0
LINE
8
LYELLOW
6
CONTINUOUS
10
65.730000000000004
20
-59.2899999999999991
11
65.730000000000004
21
-59.6199999999999974
0
LINE
8
LYELLOW
6
CONTINUOUS
10
65.730000000000004
20
-59.6199999999999974
11
72.269999999999996
21
-59.6199999999999974
0
LINE
8
LYELLOW
6
CONTINUOUS
10
72.269999999999996
20
-56.8799999999999955
11
72.269999999999996
21
-57.2100000000000009
0
LINE
8
LYELLOW
6
CONTINUOUS
10
72.269999999999996
20
-59.6199999999999974
11
72.269999999999996
21
-59.2899999999999991
0
LINE
8
LYELLOW
6
CONTINUOUS
10
105.6199999999999903
20
-43.2549999999999955
11
105.6199999999999903
21
-40.6049999999999969
0
LINE
8
LYELLOW
6
CONTINUOUS
10
108.3799999999999955
20
-40.6049999999999969
11
105.6199999999999903
21
-40.6049999999999969
0
LINE
8
LYELLOW
6
CONTINUOUS
10
108.3799999999999955
20
-43.2549999999999955
11
105.6199999999999903
21
-43.2549999999999955
0
LINE
8
LYELLOW
6
CONTINUOUS
10
108.3799999999999955
20
-43.2549999999999955
11
108.3799999999999955
21
-40.6049999999999969
0
LINE
8
LYELLOW
6
CONTINUOUS
10
108.3799999999999955
20
-44.5249999999999986
11
108.3799999999999955
21
-45.9050000000000011
0
LINE
8
LYELLOW
6
CONTINUOUS
10
108.3799999999999955
20
-45.9050000000000011
11
107.
21
-45.9050000000000011
0
LINE
8
LYELLOW
6
CONTINUOUS
10
101.9200000000000017
20
-27.4399999999999977
11
101.9200000000000017
21
-35.0599999999999952
0
LINE
8
LYELLOW
6
CONTINUOUS
10
101.9200000000000017
20
-28.7099999999999973
11
112.0799999999999983
21
-28.7099999999999973
0
LINE
8
LYELLOW
6
CONTINUOUS
10
101.9200000000000017
20
-35.0599999999999952
11
112.0799999999999983
21
-35.0599999999999952
0
LINE
8
LYELLOW
6
CONTINUOUS
10
112.0799999999999983
20
-27.4399999999999977
11
101.9200000000000017
21
-27.4399999999999977
0
LINE
8
LYELLOW
6
CONTINUOUS
10
112.0799999999999983
20
-35.0599999999999952
11
112.0799999999999983
21
-27.4399999999999977
0
LINE
8
LYELLOW
6
CONTINUOUS
10
85.7299999999999898
20
-69.8799999999999955
11
92.269999999999996
21
-69.8799999999999955
0
LINE
8
LYELLOW
6
CONTINUOUS
10
85.7299999999999898
20
-70.2099999999999937
11
85.7299999999999898
21
-69.8799999999999955
0
LINE
8
LYELLOW
6
CONTINUOUS
10
85.7299999999999898
20
-72.289999999999992
11
85.7299999999999898
21
-72.6199999999999903
0
LINE
8
LYELLOW
6
CONTINUOUS
10
85.7299999999999898
20
-72.6199999999999903
11
92.269999999999996
21
-72.6199999999999903
0
LINE
8
LYELLOW
6
CONTINUOUS
10
92.269999999999996
20
-69.8799999999999955
11
92.269999999999996
21
-70.2099999999999937
0
LINE
8
LYELLOW
6
CONTINUOUS
10
92.269999999999996
20
-72.6199999999999903
11
92.269999999999996
21
-72.289999999999992
0
LINE
8
LYELLOW
6
CONTINUOUS
10
51.7299999999999969
20
-96.8799999999999955
11
58.269999999999996
21
-96.8799999999999955
0
LINE
8
LYELLOW
6
CONTINUOUS
10
51.7299999999999969
20
-97.2099999999999937
11
51.7299999999999969
21
-96.8799999999999955
0
LINE
8
LYELLOW
6
CONTINUOUS
10
51.7299999999999969
20
-99.289999999999992
11
51.7299999999999969
21
-99.6199999999999903
0
LINE
8
LYELLOW
6
CONTINUOUS
10
51.7299999999999969
20
-99.6199999999999903
11
58.269999999999996
21
-99.6199999999999903
0
LINE
8
LYELLOW
6
CONTINUOUS
10
58.269999999999996
20
-96.8799999999999955
11
58.269999999999996
21
-97.2099999999999937
0
LINE
8
LYELLOW
6
CONTINUOUS
10
58.269999999999996
20
-99.6199999999999903
11
58.269999999999996
21
-99.289999999999992
0
LINE
8
LYELLOW
6
CONTINUOUS
10
49.7299999999999969
20
-35.8799999999999955
11
56.269999999999996
21
-35.8799999999999955
0
LINE
8
LYELLOW
6
CONTINUOUS
10
49.7299999999999969
20
-36.2100000000000009
11
49.7299999999999969
21
-35.8799999999999955
0
LINE
8
LYELLOW
6
CONTINUOUS
10
49.7299999999999969
20
-38.2899999999999991
11
49.7299999999999969
21
-38.6199999999999974
0
LINE
8
LYELLOW
6
CONTINUOUS
10
49.7299999999999969
20
-38.6199999999999974
11
56.269999999999996
21
-38.6199999999999974
0
LINE
8
LYELLOW
6
CONTINUOUS
10
56.269999999999996
20
-35.8799999999999955
11
56.269999999999996
21
-36.2100000000000009
0
LINE
8
LYELLOW
6
CONTINUOUS
10
56.269999999999996
20
-38.6199999999999974
11
56.269999999999996
21
-38.2899999999999991
0
LINE
8
LYELLOW
6
CONTINUOUS
10
31.9199999999999982
20
-26.4399999999999977
11
31.9199999999999982
21
-34.0599999999999952
0
LINE
8
LYELLOW
6
CONTINUOUS
10
31.9199999999999982
20
-27.7099999999999973
11
42.0799999999999983
21
-27.7099999999999973
0
LINE
8
LYELLOW
6
CONTINUOUS
10
31.9199999999999982
20
-34.0599999999999952
11
42.0799999999999983
21
-34.0599999999999952
0
LINE
8
LYELLOW
6
CONTINUOUS
10
42.0799999999999983
20
-26.4399999999999977
11
31.9199999999999982
21
-26.4399999999999977
0
LINE
8
LYELLOW
6
CONTINUOUS
10
42.0799999999999983
20
-34.0599999999999952
11
42.0799999999999983
21
-26.4399999999999977
0
LINE
8
LYELLOW
6
CONTINUOUS
10
51.7299999999999969
20
-74.8799999999999955
11
58.269999999999996
21
-74.8799999999999955
0
LINE
8
LYELLOW
6
CONTINUOUS
10
51.7299999999999969
20
-75.2099999999999937
11
51.7299999999999969
21
-74.8799999999999955
0
LINE
8
LYELLOW
6
CONTINUOUS
10
51.7299999999999969
20
-77.289999999999992
11
51.7299999999999969
21
-77.6199999999999903
0
LINE
8
LYELLOW
6
CONTINUOUS
10
51.7299999999999969
20
-77.6199999999999903
11
58.269999999999996
21
-77.6199999999999903
0
LINE
8
LYELLOW
6
CONTINUOUS
10
58.269999999999996
20
-74.8799999999999955
11
58.269999999999996
21
-75.2099999999999937
0
LINE
8
LYELLOW
6
CONTINUOUS
10
58.269999999999996
20
-77.6199999999999903
11
58.269999999999996
21
-77.289999999999992
0
LINE
8
LYELLOW
6
CONTINUOUS
10
99.7299999999999898
20
-108.8799999999999955
11
106.269999999999996
21
-108.8799999999999955
0
LINE
8
LYELLOW
6
CONTINUOUS
10
99.7299999999999898
20
-109.2099999999999937
11
99.7299999999999898
21
-108.8799999999999955
0
LINE
8
LYELLOW
6
CONTINUOUS
10
99.7299999999999898
20
-111.289999999999992
11
99.7299999999999898
21
-111.6199999999999903
0
LINE
8
LYELLOW
6
CONTINUOUS
10
99.7299999999999898
20
-111.6199999999999903
11
106.269999999999996
21
-111.6199999999999903
0
LINE
8
LYELLOW
6
CONTINUOUS
10
106.269999999999996
20
-108.8799999999999955
11
106.269999999999996
21
-109.2099999999999937
0
LINE
8
LYELLOW
6
CONTINUOUS
10
106.269999999999996
20
-111.6199999999999903
11
106.269999999999996
21
-111.289999999999992
0
LINE
8
LYELLOW
6
CONTINUOUS
10
49.7299999999999969
20
-42.8799999999999955
11
56.269999999999996
21
-42.8799999999999955
0
LINE
8
LYELLOW
6
CONTINUOUS
10
49.7299999999999969
20
-43.2100000000000009
11
49.7299999999999969
21
-42.8799999999999955
0
LINE
8
LYELLOW
6
CONTINUOUS
10
49.7299999999999969
20
-45.2899999999999991
11
49.7299999999999969
21
-45.6199999999999974
0
LINE
8
LYELLOW
6
CONTINUOUS
10
49.7299999999999969
20
-45.6199999999999974
11
56.269999999999996
21
-45.6199999999999974
0
LINE
8
LYELLOW
6
CONTINUOUS
10
56.269999999999996
20
-42.8799999999999955
11
56.269999999999996
21
-43.2100000000000009
0
LINE
8
LYELLOW
6
CONTINUOUS
10
56.269999999999996
20
-45.6199999999999974
11
56.269999999999996
21
-45.2899999999999991
0
LINE
8
LYELLOW
6
CONTINUOUS
10
82.2299999999999898
20
-30.25
11
82.8799999999999955
21
-30.25
0
LINE
8
LYELLOW
6
CONTINUOUS
10
83.4799999999999898
20
-29.129999999999999
11
83.4799999999999898
21
-31.3699999999999974
0
LINE
8
LYELLOW
6
CONTINUOUS
10
83.5999999999999943
20
-29.129999999999999
11
83.5999999999999943
21
-31.3699999999999974
0
LINE
8
LYELLOW
6
CONTINUOUS
10
83.7199999999999989
20
-29.129999999999999
11
83.7199999999999989
21
-31.3699999999999974
0
LINE
8
LYELLOW
6
CONTINUOUS
10
87.769999999999996
20
-30.25
11
87.1199999999999903
21
-30.25
0
LINE
8
LYELLOW
6
CONTINUOUS
10
82.8799999999999955
20
-29.129999999999999
11
87.1199999999999903
21
-29.129999999999999
0
LINE
8
LYELLOW
6
CONTINUOUS
10
87.1199999999999903
20
-29.129999999999999
11
87.1199999999999903
21
-31.3699999999999974
0
LINE
8
LYELLOW
6
CONTINUOUS
10
87.1199999999999903
20
-31.3699999999999974
11
82.8799999999999955
21
-31.3699999999999974
0
LINE
8
LYELLOW
6
CONTINUOUS
10
82.8799999999999955
20
-31.3699999999999974
11
82.8799999999999955
21
-29.129999999999999
0
LINE
8
LYELLOW
6
CONTINUOUS
10
31.9199999999999982
20
-72.4399999999999977
11
31.9199999999999982
21
-80.0600000000000023
0
LINE
8
LYELLOW
6
CONTINUOUS
10
31.9199999999999982
20
-73.7099999999999937
11
42.0799999999999983
21
-73.7099999999999937
0
LINE
8
LYELLOW
6
CONTINUOUS
10
31.9199999999999982
20
-80.0600000000000023
11
42.0799999999999983
21
-80.0600000000000023
0
LINE
8
LYELLOW
6
CONTINUOUS
10
42.0799999999999983
20
-72.4399999999999977
11
31.9199999999999982
21
-72.4399999999999977
0
LINE
8
LYELLOW
6
CONTINUOUS
10
42.0799999999999983
20
-80.0600000000000023
11
42.0799999999999983
21
-72.4399999999999977
0
LINE
8
LYELLOW
6
CONTINUOUS
10
68.75
20
-101.1099999999999994
11
68.75
21
-111.3900000000000006
0
LINE
8
LYELLOW
6
CONTINUOUS
10
68.75
20
-111.3900000000000006
11
73.25
21
-111.3900000000000006
0
LINE
8
LYELLOW
6
CONTINUOUS
10
70.
20
-101.1099999999999994
11
68.75
21
-101.1099999999999994
0
LINE
8
LYELLOW
6
CONTINUOUS
10
73.25
20
-101.1099999999999994
11
72.
21
-101.1099999999999994
0
LINE
8
LYELLOW
6
CONTINUOUS
10
73.25
20
-111.3900000000000006
11
73.25
21
-101.1099999999999994
0
ARC
8
LYELLOW
10
71.
20
-101.1099999999999994
40
1.
50
-180.00000000
51
-0.00000000
0
LINE
8
LYELLOW
6
CONTINUOUS
10
68.75
20
-71.1099999999999994
11
68.75
21
-81.3900000000000006
0
LINE
8
LYELLOW
6
CONTINUOUS
10
68.75
20
-81.3900000000000006
11
73.25
21
-81.3900000000000006
0
LINE
8
LYELLOW
6
CONTINUOUS
10
70.
20
-71.1099999999999994
11
68.75
21
-71.1099999999999994
0
LINE
8
LYELLOW
6
CONTINUOUS
10
73.25
20
-71.1099999999999994
11
72.
21
-71.1099999999999994
0
LINE
8
LYELLOW
6
CONTINUOUS
10
73.25
20
-81.3900000000000006
11
73.25
21
-71.1099999999999994
0
ARC
8
LYELLOW
10
71.
20
-71.1099999999999994
40
1.
50
-180.00000000
51
-0.00000000
0
LINE
8
LYELLOW
6
CONTINUOUS
10
82.3799999999999955
20
-35.8799999999999955
11
87.6199999999999903
21
-35.8799999999999955
0
LINE
8
LYELLOW
6
CONTINUOUS
10
82.3799999999999955
20
-36.2169999999999987
11
82.3799999999999955
21
-35.8799999999999955
0
LINE
8
LYELLOW
6
CONTINUOUS
10
82.3799999999999955
20
-38.6199999999999974
11
82.3799999999999955
21
-38.2830000000000013
0
LINE
8
LYELLOW
6
CONTINUOUS
10
87.6199999999999903
20
-35.8799999999999955
11
87.6199999999999903
21
-36.2169999999999987
0
LINE
8
LYELLOW
6
CONTINUOUS
10
87.6199999999999903
20
-38.2830000000000013
11
87.6199999999999903
21
-38.6199999999999974
0
LINE
8
LYELLOW
6
CONTINUOUS
10
87.6199999999999903
20
-38.6199999999999974
11
82.3799999999999955
21
-38.6199999999999974
0
LINE
8
LYELLOW
6
CONTINUOUS
10
51.7299999999999969
20
-89.8799999999999955
11
58.269999999999996
21
-89.8799999999999955
0
LINE
8
LYELLOW
6
CONTINUOUS
10
51.7299999999999969
20
-90.2099999999999937
11
51.7299999999999969
21
-89.8799999999999955
0
LINE
8
LYELLOW
6
CONTINUOUS
10
51.7299999999999969
20
-92.289999999999992
11
51.7299999999999969
21
-92.6199999999999903
0
LINE
8
LYELLOW
6
CONTINUOUS
10
51.7299999999999969
20
-92.6199999999999903
11
58.269999999999996
21
-92.6199999999999903
0
LINE
8
LYELLOW
6
CONTINUOUS
10
58.269999999999996
20
-89.8799999999999955
11
58.269999999999996
21
-90.2099999999999937
0
LINE
8
LYELLOW
6
CONTINUOUS
10
58.269999999999996
20
-92.6199999999999903
11
58.269999999999996
21
-92.289999999999992
0
LINE
8
LYELLOW
6
CONTINUOUS
10
99.7299999999999898
20
-100.8799999999999955
11
106.269999999999996
21
-100.8799999999999955
0
LINE
8
LYELLOW
6
CONTINUOUS
10
99.7299999999999898
20
-101.2099999999999937
11
99.7299999999999898
21
-100.8799999999999955
0
LINE
8
LYELLOW
6
CONTINUOUS
10
99.7299999999999898
20
-103.289999999999992
11
99.7299999999999898
21
-103.6199999999999903
0
LINE
8
LYELLOW
6
CONTINUOUS
10
99.7299999999999898
20
-103.6199999999999903
11
106.269999999999996
21
-103.6199999999999903
0
LINE
8
LYELLOW
6
CONTINUOUS
10
106.269999999999996
20
-100.8799999999999955
11
106.269999999999996
21
-101.2099999999999937
0
LINE
8
LYELLOW
6
CONTINUOUS
10
106.269999999999996
20
-103.6199999999999903
11
106.269999999999996
21
-103.289999999999992
0
LINE
8
LYELLOW
6
CONTINUOUS
10
51.7299999999999969
20
-112.8799999999999955
11
58.269999999999996
21
-112.8799999999999955
0
LINE
8
LYELLOW
6
CONTINUOUS
10
51.7299999999999969
20
-113.2099999999999937
11
51.7299999999999969
21
-112.8799999999999955
0
LINE
8
LYELLOW
6
CONTINUOUS
10
51.7299999999999969
20
-115.289999999999992
11
51.7299999999999969
21
-115.6199999999999903
0
LINE
8
LYELLOW
6
CONTINUOUS
10
51.7299999999999969
20
-115.6199999999999903
11
58.269999999999996
21
-115.6199999999999903
0
LINE
8
LYELLOW
6
CONTINUOUS
10
58.269999999999996
20
-112.8799999999999955
11
58.269999999999996
21
-113.2099999999999937
0
LINE
8
LYELLOW
6
CONTINUOUS
10
58.269999999999996
20
-115.6199999999999903
11
58.269999999999996
21
-115.289999999999992
0
LINE
8
LYELLOW
6
CONTINUOUS
10
49.7299999999999969
20
-49.8799999999999955
11
56.269999999999996
21
-49.8799999999999955
0
LINE
8
LYELLOW
6
CONTINUOUS
10
49.7299999999999969
20
-50.2100000000000009
11
49.7299999999999969
21
-49.8799999999999955
0
LINE
8
LYELLOW
6
CONTINUOUS
10
49.7299999999999969
20
-52.2899999999999991
11
49.7299999999999969
21
-52.6199999999999974
0
LINE
8
LYELLOW
6
CONTINUOUS
10
49.7299999999999969
20
-52.6199999999999974
11
56.269999999999996
21
-52.6199999999999974
0
LINE
8
LYELLOW
6
CONTINUOUS
10
56.269999999999996
20
-49.8799999999999955
11
56.269999999999996
21
-50.2100000000000009
0
LINE
8
LYELLOW
6
CONTINUOUS
10
56.269999999999996
20
-52.6199999999999974
11
56.269999999999996
21
-52.2899999999999991
0
LINE
8
LYELLOW
6
CONTINUOUS
10
31.9199999999999982
20
-40.4399999999999977
11
31.9199999999999982
21
-48.0599999999999952
0
LINE
8
LYELLOW
6
CONTINUOUS
10
31.9199999999999982
20
-41.7100000000000009
11
42.0799999999999983
21
-41.7100000000000009
0
LINE
8
LYELLOW
6
CONTINUOUS
10
31.9199999999999982
20
-48.0599999999999952
11
42.0799999999999983
21
-48.0599999999999952
0
LINE
8
LYELLOW
6
CONTINUOUS
10
42.0799999999999983
20
-40.4399999999999977
11
31.9199999999999982
21
-40.4399999999999977
0
LINE
8
LYELLOW
6
CONTINUOUS
10
42.0799999999999983
20
-48.0599999999999952
11
42.0799999999999983
21
-40.4399999999999977
0
LINE
8
LYELLOW
6
CONTINUOUS
10
49.7299999999999969
20
-63.8799999999999955
11
56.269999999999996
21
-63.8799999999999955
0
LINE
8
LYELLOW
6
CONTINUOUS
10
49.7299999999999969
20
-64.2099999999999937
11
49.7299999999999969
21
-63.8799999999999955
0
LINE
8
LYELLOW
6
CONTINUOUS
10
49.7299999999999969
20
-66.289999999999992
11
49.7299999999999969
21
-66.6199999999999903
0
LINE
8
LYELLOW
6
CONTINUOUS
10
49.7299999999999969
20
-66.6199999999999903
11
56.269999999999996
21
-66.6199999999999903
0
LINE
8
LYELLOW
6
CONTINUOUS
10
56.269999999999996
20
-63.8799999999999955
11
56.269999999999996
21
-64.2099999999999937
0
LINE
8
LYELLOW
6
CONTINUOUS
10
56.269999999999996
20
-66.6199999999999903
11
56.269999999999996
21
-66.289999999999992
0
LINE
8
LYELLOW
6
CONTINUOUS
10
49.7299999999999969
20
-56.8799999999999955
11
56.269999999999996
21
-56.8799999999999955
0
LINE
8
LYELLOW
6
CONTINUOUS
10
49.7299999999999969
20
-57.2100000000000009
11
49.7299999999999969
21
-56.8799999999999955
0
LINE
8
LYELLOW
6
CONTINUOUS
10
49.7299999999999969
20
-59.2899999999999991
11
49.7299999999999969
21
-59.6199999999999974
0
LINE
8
LYELLOW
6
CONTINUOUS
10
49.7299999999999969
20
-59.6199999999999974
11
56.269999999999996
21
-59.6199999999999974
0
LINE
8
LYELLOW
6
CONTINUOUS
10
56.269999999999996
20
-56.8799999999999955
11
56.269999999999996
21
-57.2100000000000009
0
LINE
8
LYELLOW
6
CONTINUOUS
10
56.269999999999996
20
-59.6199999999999974
11
56.269999999999996
21
-59.2899999999999991
0
LINE
8
LYELLOW
6
CONTINUOUS
10
105.6199999999999903
20
-56.2549999999999955
11
105.6199999999999903
21
-53.6049999999999969
0
LINE
8
LYELLOW
6
CONTINUOUS
10
108.3799999999999955
20
-53.6049999999999969
11
105.6199999999999903
21
-53.6049999999999969
0
LINE
8
LYELLOW
6
CONTINUOUS
10
108.3799999999999955
20
-56.2549999999999955
11
105.6199999999999903
21
-56.2549999999999955
0
LINE
8
LYELLOW
6
CONTINUOUS
10
108.3799999999999955
20
-56.2549999999999955
11
108.3799999999999955
21
-53.6049999999999969
0
LINE
8
LYELLOW
6
CONTINUOUS
10
108.3799999999999955
20
-57.5249999999999986
11
108.3799999999999955
21
-58.904999999999994
0
LINE
8
LYELLOW
6
CONTINUOUS
10
108.3799999999999955
20
-58.904999999999994
11
107.
21
-58.904999999999994
0
LINE
8
LYELLOW
6
CONTINUOUS
10
82.2299999999999898
20
-44.25
11
82.8799999999999955
21
-44.25
0
LINE
8
LYELLOW
6
CONTINUOUS
10
83.4799999999999898
20
-43.1299999999999955
11
83.4799999999999898
21
-45.3699999999999974
0
LINE
8
LYELLOW
6
CONTINUOUS
10
83.5999999999999943
20
-43.1299999999999955
11
83.5999999999999943
21
-45.3699999999999974
0
LINE
8
LYELLOW
6
CONTINUOUS
10
83.7199999999999989
20
-43.1299999999999955
11
83.7199999999999989
21
-45.3699999999999974
0
LINE
8
LYELLOW
6
CONTINUOUS
10
87.769999999999996
20
-44.25
11
87.1199999999999903
21
-44.25
0
LINE
8
LYELLOW
6
CONTINUOUS
10
82.8799999999999955
20
-43.1299999999999955
11
87.1199999999999903
21
-43.1299999999999955
0
LINE
8
LYELLOW
6
CONTINUOUS
10
87.1199999999999903
20
-43.1299999999999955
11
87.1199999999999903
21
-45.3699999999999974
0
LINE
8
LYELLOW
6
CONTINUOUS
10
87.1199999999999903
20
-45.3699999999999974
11
82.8799999999999955
21
-45.3699999999999974
0
LINE
8
LYELLOW
6
CONTINUOUS
10
82.8799999999999955
20
-45.3699999999999974
11
82.8799999999999955
21
-43.1299999999999955
0
LINE
8
LYELLOW
6
CONTINUOUS
10
85.7299999999999898
20
-84.8799999999999955
11
92.269999999999996
21
-84.8799999999999955
0
LINE
8
LYELLOW
6
CONTINUOUS
10
85.7299999999999898
20
-85.2099999999999937
11
85.7299999999999898
21
-84.8799999999999955
0
LINE
8
LYELLOW
6
CONTINUOUS
10
85.7299999999999898
20
-87.289999999999992
11
85.7299999999999898
21
-87.6199999999999903
0
LINE
8
LYELLOW
6
CONTINUOUS
10
85.7299999999999898
20
-87.6199999999999903
11
92.269999999999996
21
-87.6199999999999903
0
LINE
8
LYELLOW
6
CONTINUOUS
10
92.269999999999996
20
-84.8799999999999955
11
92.269999999999996
21
-85.2099999999999937
0
LINE
8
LYELLOW
6
CONTINUOUS
10
92.269999999999996
20
-87.6199999999999903
11
92.269999999999996
21
-87.289999999999992
0
LINE
8
LYELLOW
6
CONTINUOUS
10
85.7299999999999898
20
-92.8799999999999955
11
92.269999999999996
21
-92.8799999999999955
0
LINE
8
LYELLOW
6
CONTINUOUS
10
85.7299999999999898
20
-93.2099999999999937
11
85.7299999999999898
21
-92.8799999999999955
0
LINE
8
LYELLOW
6
CONTINUOUS
10
85.7299999999999898
20
-95.289999999999992
11
85.7299999999999898
21
-95.6199999999999903
0
LINE
8
LYELLOW
6
CONTINUOUS
10
85.7299999999999898
20
-95.6199999999999903
11
92.269999999999996
21
-95.6199999999999903
0
LINE
8
LYELLOW
6
CONTINUOUS
10
92.269999999999996
20
-92.8799999999999955
11
92.269999999999996
21
-93.2099999999999937
0
LINE
8
LYELLOW
6
CONTINUOUS
10
92.269999999999996
20
-95.6199999999999903
11
92.269999999999996
21
-95.289999999999992
0
LINE
8
LYELLOW
6
CONTINUOUS
10
82.3799999999999955
20
-63.8799999999999955
11
87.6199999999999903
21
-63.8799999999999955
0
LINE
8
LYELLOW
6
CONTINUOUS
10
82.3799999999999955
20
-64.2169999999999987
11
82.3799999999999955
21
-63.8799999999999955
0
LINE
8
LYELLOW
6
CONTINUOUS
10
82.3799999999999955
20
-66.6199999999999903
11
82.3799999999999955
21
-66.2830000000000013
0
LINE
8
LYELLOW
6
CONTINUOUS
10
87.6199999999999903
20
-63.8799999999999955
11
87.6199999999999903
21
-64.2169999999999987
0
LINE
8
LYELLOW
6
CONTINUOUS
10
87.6199999999999903
20
-66.2830000000000013
11
87.6199999999999903
21
-66.6199999999999903
0
LINE
8
LYELLOW
6
CONTINUOUS
10
87.6199999999999903
20
-66.6199999999999903
11
82.3799999999999955
21
-66.6199999999999903
0
LINE
8
LYELLOW
6
CONTINUOUS
10
82.2299999999999898
20
-58.25
11
82.8799999999999955
21
-58.25
0
LINE
8
LYELLOW
6
CONTINUOUS
10
83.4799999999999898
20
-57.1299999999999955
11
83.4799999999999898
21
-59.3699999999999974
0
LINE
8
LYELLOW
6
CONTINUOUS
10
83.5999999999999943
20
-57.1299999999999955
11
83.5999999999999943
21
-59.3699999999999974
0
LINE
8
LYELLOW
6
CONTINUOUS
10
83.7199999999999989
20
-57.1299999999999955
11
83.7199999999999989
21
-59.3699999999999974
0
LINE
8
LYELLOW
6
CONTINUOUS
10
87.769999999999996
20
-58.25
11
87.1199999999999903
21
-58.25
0
LINE
8
LYELLOW
6
CONTINUOUS
10
82.8799999999999955
20
-57.1299999999999955
11
87.1199999999999903
21
-57.1299999999999955
0
LINE
8
LYELLOW
6
CONTINUOUS
10
87.1199999999999903
20
-57.1299999999999955
11
87.1199999999999903
21
-59.3699999999999974
0
LINE
8
LYELLOW
6
CONTINUOUS
10
87.1199999999999903
20
-59.3699999999999974
11
82.8799999999999955
21
-59.3699999999999974
0
LINE
8
LYELLOW
6
CONTINUOUS
10
82.8799999999999955
20
-59.3699999999999974
11
82.8799999999999955
21
-57.1299999999999955
0
LINE
8
LYELLOW
6
CONTINUOUS
10
96.3799999999999955
20
-89.8799999999999955
11
101.6199999999999903
21
-89.8799999999999955
0
LINE
8
LYELLOW
6
CONTINUOUS
10
96.3799999999999955
20
-90.2169999999999987
11
96.3799999999999955
21
-89.8799999999999955
0
LINE
8
LYELLOW
6
CONTINUOUS
10
96.3799999999999955
20
-92.6199999999999903
11
96.3799999999999955
21
-92.2830000000000013
0
LINE
8
LYELLOW
6
CONTINUOUS
10
101.6199999999999903
20
-89.8799999999999955
11
101.6199999999999903
21
-90.2169999999999987
0
LINE
8
LYELLOW
6
CONTINUOUS
10
101.6199999999999903
20
-92.2830000000000013
11
101.6199999999999903
21
-92.6199999999999903
0
LINE
8
LYELLOW
6
CONTINUOUS
10
101.6199999999999903
20
-92.6199999999999903
11
96.3799999999999955
21
-92.6199999999999903
0
LINE
8
LYELLOW
6
CONTINUOUS
10
85.7299999999999898
20
-108.8799999999999955
11
92.269999999999996
21
-108.8799999999999955
0
LINE
8
LYELLOW
6
CONTINUOUS
10
85.7299999999999898
20
-109.2099999999999937
11
85.7299999999999898
21
-108.8799999999999955
0
LINE
8
LYELLOW
6
CONTINUOUS
10
85.7299999999999898
20
-111.289999999999992
11
85.7299999999999898
21
-111.6199999999999903
0
LINE
8
LYELLOW
6
CONTINUOUS
10
85.7299999999999898
20
-111.6199999999999903
11
92.269999999999996
21
-111.6199999999999903
0
LINE
8
LYELLOW
6
CONTINUOUS
10
92.269999999999996
20
-108.8799999999999955
11
92.269999999999996
21
-109.2099999999999937
0
LINE
8
LYELLOW
6
CONTINUOUS
10
92.269999999999996
20
-111.6199999999999903
11
92.269999999999996
21
-111.289999999999992
0
LINE
8
LYELLOW
6
CONTINUOUS
10
96.3799999999999955
20
-74.8799999999999955
11
101.6199999999999903
21
-74.8799999999999955
0
LINE
8
LYELLOW
6
CONTINUOUS
10
96.3799999999999955
20
-75.2169999999999987
11
96.3799999999999955
21
-74.8799999999999955
0
LINE
8
LYELLOW
6
CONTINUOUS
10
96.3799999999999955
20
-77.6199999999999903
11
96.3799999999999955
21
-77.2830000000000013
0
LINE
8
LYELLOW
6
CONTINUOUS
10
101.6199999999999903
20
-74.8799999999999955
11
101.6199999999999903
21
-75.2169999999999987
0
LINE
8
LYELLOW
6
CONTINUOUS
10
101.6199999999999903
20
-77.2830000000000013
11
101.6199999999999903
21
-77.6199999999999903
0
LINE
8
LYELLOW
6
CONTINUOUS
10
101.6199999999999903
20
-77.6199999999999903
11
96.3799999999999955
21
-77.6199999999999903
0
LINE
8
LYELLOW
6
CONTINUOUS
10
82.3799999999999955
20
-49.8799999999999955
11
87.6199999999999903
21
-49.8799999999999955
0
LINE
8
LYELLOW
6
CONTINUOUS
10
82.3799999999999955
20
-50.2169999999999987
11
82.3799999999999955
21
-49.8799999999999955
0
LINE
8
LYELLOW
6
CONTINUOUS
10
82.3799999999999955
20
-52.6199999999999974
11
82.3799999999999955
21
-52.2829999999999941
0
LINE
8
LYELLOW
6
CONTINUOUS
10
87.6199999999999903
20
-49.8799999999999955
11
87.6199999999999903
21
-50.2169999999999987
0
LINE
8
LYELLOW
6
CONTINUOUS
10
87.6199999999999903
20
-52.2829999999999941
11
87.6199999999999903
21
-52.6199999999999974
0
LINE
8
LYELLOW
6
CONTINUOUS
10
87.6199999999999903
20
-52.6199999999999974
11
82.3799999999999955
21
-52.6199999999999974
0
LINE
8
LYELLOW
6
CONTINUOUS
10
85.7299999999999898
20
-77.8799999999999955
11
92.269999999999996
21
-77.8799999999999955
0
LINE
8
LYELLOW
6
CONTINUOUS
10
85.7299999999999898
20
-78.2099999999999937
11
85.7299999999999898
21
-77.8799999999999955
0
LINE
8
LYELLOW
6
CONTINUOUS
10
85.7299999999999898
20
-80.289999999999992
11
85.7299999999999898
21
-80.6199999999999903
0
LINE
8
LYELLOW
6
CONTINUOUS
10
85.7299999999999898
20
-80.6199999999999903
11
92.269999999999996
21
-80.6199999999999903
0
LINE
8
LYELLOW
6
CONTINUOUS
10
92.269999999999996
20
-77.8799999999999955
11
92.269999999999996
21
-78.2099999999999937
0
LINE
8
LYELLOW
6
CONTINUOUS
10
92.269999999999996
20
-80.6199999999999903
11
92.269999999999996
21
-80.289999999999992
0
LINE
8
LYELLOW
6
CONTINUOUS
10
31.9199999999999982
20
-102.4399999999999977
11
31.9199999999999982
21
-110.0599999999999881
0
LINE
8
LYELLOW
6
CONTINUOUS
10
31.9199999999999982
20
-103.7099999999999937
11
42.0799999999999983
21
-103.7099999999999937
0
LINE
8
LYELLOW
6
CONTINUOUS
10
31.9199999999999982
20
-110.0599999999999881
11
42.0799999999999983
21
-110.0599999999999881
0
LINE
8
LYELLOW
6
CONTINUOUS
10
42.0799999999999983
20
-102.4399999999999977
11
31.9199999999999982
21
-102.4399999999999977
0
LINE
8
LYELLOW
6
CONTINUOUS
10
42.0799999999999983
20
-110.0599999999999881
11
42.0799999999999983
21
-102.4399999999999977
0
LINE
8
LYELLOW
6
CONTINUOUS
10
105.6199999999999903
20
-69.519999999999996
11
105.6199999999999903
21
-64.3299999999999983
0
LINE
8
LYELLOW
6
CONTINUOUS
10
108.3799999999999955
20
-64.3299999999999983
11
105.6199999999999903
21
-64.3299999999999983
0
LINE
8
LYELLOW
6
CONTINUOUS
10
108.3799999999999955
20
-69.519999999999996
11
105.6199999999999903
21
-69.519999999999996
0
LINE
8
LYELLOW
6
CONTINUOUS
10
108.3799999999999955
20
-69.519999999999996
11
108.3799999999999955
21
-64.3299999999999983
0
LINE
8
LYELLOW
6
CONTINUOUS
10
108.3799999999999955
20
-70.789999999999992
11
108.3799999999999955
21
-72.1700000000000017
0
LINE
8
LYELLOW
6
CONTINUOUS
10
108.3799999999999955
20
-72.1700000000000017
11
107.
21
-72.1700000000000017
0
LINE
8
LYELLOW
6
CONTINUOUS
10
105.6199999999999903
20
-82.519999999999996
11
105.6199999999999903
21
-77.3299999999999983
0
LINE
8
LYELLOW
6
CONTINUOUS
10
108.3799999999999955
20
-77.3299999999999983
11
105.6199999999999903
21
-77.3299999999999983
0
LINE
8
LYELLOW
6
CONTINUOUS
10
108.3799999999999955
20
-82.519999999999996
11
105.6199999999999903
21
-82.519999999999996
0
LINE
8
LYELLOW
6
CONTINUOUS
10
108.3799999999999955
20
-82.519999999999996
11
108.3799999999999955
21
-77.3299999999999983
0
LINE
8
LYELLOW
6
CONTINUOUS
10
108.3799999999999955
20
-83.789999999999992
11
108.3799999999999955
21
-85.1700000000000017
0
LINE
8
LYELLOW
6
CONTINUOUS
10
108.3799999999999955
20
-85.1700000000000017
11
107.
21
-85.1700000000000017
0
LINE
8
LYELLOW
6
CONTINUOUS
10
86.3799999999999955
20
-114.8799999999999955
11
91.6199999999999903
21
-114.8799999999999955
0
LINE
8
LYELLOW
6
CONTINUOUS
10
86.3799999999999955
20
-115.2169999999999987
11
86.3799999999999955
21
-114.8799999999999955
0
LINE
8
LYELLOW
6
CONTINUOUS
10
86.3799999999999955
20
-117.6199999999999903
11
86.3799999999999955
21
-117.2830000000000013
0
LINE
8
LYELLOW
6
CONTINUOUS
10
91.6199999999999903
20
-114.8799999999999955
11
91.6199999999999903
21
-115.2169999999999987
0
LINE
8
LYELLOW
6
CONTINUOUS
10
91.6199999999999903
20
-117.2830000000000013
11
91.6199999999999903
21
-117.6199999999999903
0
LINE
8
LYELLOW
6
CONTINUOUS
10
91.6199999999999903
20
-117.6199999999999903
11
86.3799999999999955
21
-117.6199999999999903
0
LINE
8
LYELLOW
6
CONTINUOUS
10
85.7299999999999898
20
-100.8799999999999955
11
92.269999999999996
21
-100.8799999999999955
0
LINE
8
LYELLOW
6
CONTINUOUS
10
85.7299999999999898
20
-101.2099999999999937
11
85.7299999999999898
21
-100.8799999999999955
0
LINE
8
LYELLOW
6
CONTINUOUS
10
85.7299999999999898
20
-103.289999999999992
11
85.7299999999999898
21
-103.6199999999999903
0
LINE
8
LYELLOW
6
CONTINUOUS
10
85.7299999999999898
20
-103.6199999999999903
11
92.269999999999996
21
-103.6199999999999903
0
LINE
8
LYELLOW
6
CONTINUOUS
10
92.269999999999996
20
-100.8799999999999955
11
92.269999999999996
21
-101.2099999999999937
0
LINE
8
LYELLOW
6
CONTINUOUS
10
92.269999999999996
20
-103.6199999999999903
11
92.269999999999996
21
-103.289999999999992
0
LINE
8
LYELLOW
6
CONTINUOUS
10
68.3799999999999955
20
-114.8799999999999955
11
73.6199999999999903
21
-114.8799999999999955
0
LINE
8
LYELLOW
6
CONTINUOUS
10
68.3799999999999955
20
-115.2169999999999987
11
68.3799999999999955
21
-114.8799999999999955
0
LINE
8
LYELLOW
6
CONTINUOUS
10
68.3799999999999955
20
-117.6199999999999903
11
68.3799999999999955
21
-117.2830000000000013
0
LINE
8
LYELLOW
6
CONTINUOUS
10
73.6199999999999903
20
-114.8799999999999955
11
73.6199999999999903
21
-115.2169999999999987
0
LINE
8
LYELLOW
6
CONTINUOUS
10
73.6199999999999903
20
-117.2830000000000013
11
73.6199999999999903
21
-117.6199999999999903
0
LINE
8
LYELLOW
6
CONTINUOUS
10
73.6199999999999903
20
-117.6199999999999903
11
68.3799999999999955
21
-117.6199999999999903
0
LINE
8
LYELLOW
6
CONTINUOUS
10
31.9199999999999982
20
-87.4399999999999977
11
31.9199999999999982
21
-95.0600000000000023
0
LINE
8
LYELLOW
6
CONTINUOUS
10
31.9199999999999982
20
-88.7099999999999937
11
42.0799999999999983
21
-88.7099999999999937
0
LINE
8
LYELLOW
6
CONTINUOUS
10
31.9199999999999982
20
-95.0600000000000023
11
42.0799999999999983
21
-95.0600000000000023
0
LINE
8
LYELLOW
6
CONTINUOUS
10
42.0799999999999983
20
-87.4399999999999977
11
31.9199999999999982
21
-87.4399999999999977
0
LINE
8
LYELLOW
6
CONTINUOUS
10
42.0799999999999983
20
-95.0600000000000023
11
42.0799999999999983
21
-87.4399999999999977
0
LINE
8
LYELLOW
6
CONTINUOUS
10
65.730000000000004
20
-42.8799999999999955
11
72.269999999999996
21
-42.8799999999999955
0
LINE
8
LYELLOW
6
CONTINUOUS
10
65.730000000000004
20
-43.2100000000000009
11
65.730000000000004
21
-42.8799999999999955
0
LINE
8
LYELLOW
6
CONTINUOUS
10
65.730000000000004
20
-45.2899999999999991
11
65.730000000000004
21
-45.6199999999999974
0
LINE
8
LYELLOW
6
CONTINUOUS
10
65.730000000000004
20
-45.6199999999999974
11
72.269999999999996
21
-45.6199999999999974
0
LINE
8
LYELLOW
6
CONTINUOUS
10
72.269999999999996
20
-42.8799999999999955
11
72.269999999999996
21
-43.2100000000000009
0
LINE
8
LYELLOW
6
CONTINUOUS
10
72.269999999999996
20
-45.6199999999999974
11
72.269999999999996
21
-45.2899999999999991
0
LINE
8
LYELLOW
6
CONTINUOUS
10
49.7299999999999969
20
-28.879999999999999
11
56.269999999999996
21
-28.879999999999999
0
LINE
8
LYELLOW
6
CONTINUOUS
10
49.7299999999999969
20
-29.2099999999999973
11
49.7299999999999969
21
-28.879999999999999
0
LINE
8
LYELLOW
6
CONTINUOUS
10
49.7299999999999969
20
-31.2899999999999991
11
49.7299999999999969
21
-31.6199999999999974
0
LINE
8
LYELLOW
6
CONTINUOUS
10
49.7299999999999969
20
-31.6199999999999974
11
56.269999999999996
21
-31.6199999999999974
0
LINE
8
LYELLOW
6
CONTINUOUS
10
56.269999999999996
20
-28.879999999999999
11
56.269999999999996
21
-29.2099999999999973
0
LINE
8
LYELLOW
6
CONTINUOUS
10
56.269999999999996
20
-31.6199999999999974
11
56.269999999999996
21
-31.2899999999999991
0
LINE
8
LYELLOW
6
CONTINUOUS
10
51.7299999999999969
20
-104.8799999999999955
11
58.269999999999996
21
-104.8799999999999955
0
LINE
8
LYELLOW
6
CONTINUOUS
10
51.7299999999999969
20
-105.2099999999999937
11
51.7299999999999969
21
-104.8799999999999955
0
LINE
8
LYELLOW
6
CONTINUOUS
10
51.7299999999999969
20
-107.289999999999992
11
51.7299999999999969
21
-107.6199999999999903
0
LINE
8
LYELLOW
6
CONTINUOUS
10
51.7299999999999969
20
-107.6199999999999903
11
58.269999999999996
21
-107.6199999999999903
0
LINE
8
LYELLOW
6
CONTINUOUS
10
58.269999999999996
20
-104.8799999999999955
11
58.269999999999996
21
-105.2099999999999937
0
LINE
8
LYELLOW
6
CONTINUOUS
10
58.269999999999996
20
-107.6199999999999903
11
58.269999999999996
21
-107.289999999999992
0
LINE
8
WHITE
6
CONTINUOUS
10
20.
20
-20.
11
124.
21
-20.
0
LINE
8
WHITE
6
CONTINUOUS
10
124.
20
-20.
11
124.
21
-124.
0
LINE
8
WHITE
6
CONTINUOUS
10
124.
20
-124.
11
20.
21
-124.
0
LINE
8
WHITE
6
CONTINUOUS
10
20.
20
-124.
11
20.
21
-20.
  0
ENDSEC
  0
EOF
