%TF.GenerationSoftware,KiCad,Pcbnew,9.0.4*%
%TF.CreationDate,2026-06-11T16:18:43+02:00*%
%TF.ProjectId,buck_v2,6275636b-5f76-4322-9e6b-696361645f70,rev?*%
%TF.SameCoordinates,Original*%
%TF.FileFunction,Copper,L2,Bot*%
%TF.FilePolarity,Positive*%
%FSLAX46Y46*%
G04 Gerber Fmt 4.6, Leading zero omitted, Abs format (unit mm)*
G04 Created by KiCad (PCBNEW 9.0.4) date 2026-06-11 16:18:43*
%MOMM*%
%LPD*%
G01*
G04 APERTURE LIST*
G04 Aperture macros list*
%AMRoundRect*
0 Rectangle with rounded corners*
0 $1 Rounding radius*
0 $2 $3 $4 $5 $6 $7 $8 $9 X,Y pos of 4 corners*
0 Add a 4 corners polygon primitive as box body*
4,1,4,$2,$3,$4,$5,$6,$7,$8,$9,$2,$3,0*
0 Add four circle primitives for the rounded corners*
1,1,$1+$1,$2,$3*
1,1,$1+$1,$4,$5*
1,1,$1+$1,$6,$7*
1,1,$1+$1,$8,$9*
0 Add four rect primitives between the rounded corners*
20,1,$1+$1,$2,$3,$4,$5,0*
20,1,$1+$1,$4,$5,$6,$7,0*
20,1,$1+$1,$6,$7,$8,$9,0*
20,1,$1+$1,$8,$9,$2,$3,0*%
G04 Aperture macros list end*
%TA.AperFunction,ComponentPad*%
%ADD10C,1.440000*%
%TD*%
%TA.AperFunction,ComponentPad*%
%ADD11C,1.600000*%
%TD*%
%TA.AperFunction,ComponentPad*%
%ADD12RoundRect,0.250000X-0.550000X-0.550000X0.550000X-0.550000X0.550000X0.550000X-0.550000X0.550000X0*%
%TD*%
%TA.AperFunction,ComponentPad*%
%ADD13R,1.700000X2.000000*%
%TD*%
%TA.AperFunction,ComponentPad*%
%ADD14O,1.700000X2.000000*%
%TD*%
%TA.AperFunction,ComponentPad*%
%ADD15R,3.000000X3.000000*%
%TD*%
%TA.AperFunction,ComponentPad*%
%ADD16C,3.000000*%
%TD*%
%TA.AperFunction,ComponentPad*%
%ADD17RoundRect,0.250000X-0.950000X-0.550000X0.950000X-0.550000X0.950000X0.550000X-0.950000X0.550000X0*%
%TD*%
%TA.AperFunction,ComponentPad*%
%ADD18O,2.400000X1.600000*%
%TD*%
%TA.AperFunction,ComponentPad*%
%ADD19R,1.700000X1.700000*%
%TD*%
%TA.AperFunction,ComponentPad*%
%ADD20C,1.700000*%
%TD*%
%TA.AperFunction,ComponentPad*%
%ADD21C,4.000000*%
%TD*%
%TA.AperFunction,ComponentPad*%
%ADD22RoundRect,0.249999X-0.850001X-0.850001X0.850001X-0.850001X0.850001X0.850001X-0.850001X0.850001X0*%
%TD*%
%TA.AperFunction,ComponentPad*%
%ADD23C,2.200000*%
%TD*%
%TA.AperFunction,Conductor*%
%ADD24C,1.000000*%
%TD*%
G04 APERTURE END LIST*
D10*
%TO.P,RV1,1*%
%TO.N,Net-(D1-K)*%
X84300000Y-49482500D03*
%TO.P,RV1,2*%
%TO.N,Net-(U3-THRES)*%
X81760000Y-49482500D03*
%TO.P,RV1,3*%
%TO.N,Net-(D2-A)*%
X79220000Y-49482500D03*
%TD*%
D11*
%TO.P,C6,1*%
%TO.N,Net-(U3-CONT)*%
X69260000Y-61487500D03*
%TO.P,C6,2*%
%TO.N,/GND*%
X74260000Y-61487500D03*
%TD*%
D12*
%TO.P,SW1,1*%
%TO.N,Net-(J1-Pin_1)*%
X39992500Y-74230000D03*
D11*
%TO.P,SW1,2*%
%TO.N,Net-(U3-OUT)*%
X39992500Y-76770000D03*
%TO.P,SW1,3*%
%TO.N,Net-(R1-Pad1)*%
X47612500Y-76770000D03*
%TO.P,SW1,4*%
X47612500Y-74230000D03*
%TD*%
D12*
%TO.P,C1,1*%
%TO.N,Rectifier*%
X46107300Y-35487500D03*
D11*
%TO.P,C1,2*%
%TO.N,/GND*%
X49607300Y-35487500D03*
%TD*%
D12*
%TO.P,C2,1*%
%TO.N,Net-(U1-VO)*%
X56107300Y-35487500D03*
D11*
%TO.P,C2,2*%
%TO.N,/GND*%
X59607300Y-35487500D03*
%TD*%
D13*
%TO.P,Q1,1*%
%TO.N,Net-(Q1-PadG)*%
X95220000Y-50437500D03*
D14*
%TO.P,Q1,2*%
%TO.N,Rectifier*%
X97760000Y-50437500D03*
%TO.P,Q1,3*%
%TO.N,/SW*%
X100300000Y-50437500D03*
%TD*%
D15*
%TO.P,J2,1*%
%TO.N,/SW*%
X108220000Y-75487500D03*
D16*
%TO.P,J2,2*%
%TO.N,/+9V_SW*%
X113300000Y-75487500D03*
%TD*%
D12*
%TO.P,D2,1*%
%TO.N,Net-(D2-K)*%
X65950000Y-49487500D03*
D11*
%TO.P,D2,2*%
%TO.N,Net-(D2-A)*%
X73570000Y-49487500D03*
%TD*%
D17*
%TO.P,U3,1*%
%TO.N,/GND*%
X33950000Y-57677500D03*
D18*
%TO.P,U3,2*%
%TO.N,Net-(U3-THRES)*%
X33950000Y-60217500D03*
%TO.P,U3,3*%
%TO.N,Net-(U3-OUT)*%
X33950000Y-62757500D03*
%TO.P,U3,4*%
%TO.N,Net-(U1-VO)*%
X33950000Y-65297500D03*
%TO.P,U3,5*%
%TO.N,Net-(U3-CONT)*%
X41570000Y-65297500D03*
%TO.P,U3,6*%
%TO.N,Net-(U3-THRES)*%
X41570000Y-62757500D03*
%TO.P,U3,7*%
%TO.N,Net-(D1-A)*%
X41570000Y-60217500D03*
%TO.P,U3,8*%
%TO.N,Net-(U1-VO)*%
X41570000Y-57677500D03*
%TD*%
D11*
%TO.P,R5,1*%
%TO.N,Net-(Q1-PadG)*%
X81950000Y-75487500D03*
%TO.P,R5,2*%
%TO.N,/SW*%
X89570000Y-75487500D03*
%TD*%
D19*
%TO.P,J1,1*%
%TO.N,Net-(J1-Pin_1)*%
X29760000Y-74212500D03*
D20*
%TO.P,J1,2*%
%TO.N,/GND*%
X29760000Y-76752500D03*
%TD*%
D13*
%TO.P,U1,1*%
%TO.N,Rectifier*%
X33220000Y-36437500D03*
D14*
%TO.P,U1,2*%
%TO.N,/GND*%
X35760000Y-36437500D03*
%TO.P,U1,3*%
%TO.N,Net-(U1-VO)*%
X38300000Y-36437500D03*
%TD*%
D11*
%TO.P,R3,1*%
%TO.N,Net-(D2-K)*%
X41950000Y-49487500D03*
%TO.P,R3,2*%
%TO.N,Net-(D1-A)*%
X49570000Y-49487500D03*
%TD*%
D12*
%TO.P,C5,1*%
%TO.N,Net-(J3-Pin_1)*%
X98107300Y-95487500D03*
D11*
%TO.P,C5,2*%
%TO.N,/GND*%
X101607300Y-95487500D03*
%TD*%
%TO.P,C4,1*%
%TO.N,Net-(U3-THRES)*%
X49260000Y-61487500D03*
%TO.P,C4,2*%
%TO.N,/GND*%
X54260000Y-61487500D03*
%TD*%
D15*
%TO.P,J3,1*%
%TO.N,Net-(J3-Pin_1)*%
X108220000Y-95487500D03*
D16*
%TO.P,J3,2*%
%TO.N,/GND*%
X113300000Y-95487500D03*
%TD*%
D11*
%TO.P,R1,1*%
%TO.N,Net-(R1-Pad1)*%
X53950000Y-75487500D03*
%TO.P,R1,2*%
%TO.N,Net-(R1-Pad2)*%
X61570000Y-75487500D03*
%TD*%
D17*
%TO.P,U2,1*%
%TO.N,Net-(R1-Pad2)*%
X67950000Y-72947500D03*
D18*
%TO.P,U2,2*%
%TO.N,/GND*%
X67950000Y-75487500D03*
%TO.P,U2,3*%
%TO.N,N/C*%
X67950000Y-78027500D03*
%TO.P,U2,4*%
%TO.N,Net-(Q1-PadG)*%
X75570000Y-78027500D03*
%TO.P,U2,5*%
%TO.N,/+9V_SW*%
X75570000Y-75487500D03*
%TO.P,U2,6*%
%TO.N,N/C*%
X75570000Y-72947500D03*
%TD*%
D21*
%TO.P,L1,1*%
%TO.N,/SW*%
X59660000Y-95487500D03*
%TO.P,L1,2*%
%TO.N,Net-(J3-Pin_1)*%
X87860000Y-95487500D03*
%TD*%
D11*
%TO.P,C3,1*%
%TO.N,Net-(U3-OUT)*%
X59260000Y-61487500D03*
%TO.P,C3,2*%
%TO.N,/GND*%
X64260000Y-61487500D03*
%TD*%
%TO.P,R2,1*%
%TO.N,Net-(U1-VO)*%
X29950000Y-49487500D03*
%TO.P,R2,2*%
%TO.N,Net-(D1-A)*%
X37570000Y-49487500D03*
%TD*%
D12*
%TO.P,D1,1*%
%TO.N,Net-(D1-K)*%
X53950000Y-49487500D03*
D11*
%TO.P,D1,2*%
%TO.N,Net-(D1-A)*%
X61570000Y-49487500D03*
%TD*%
D22*
%TO.P,D3,1*%
%TO.N,/SW*%
X92680000Y-61487500D03*
D23*
%TO.P,D3,2*%
%TO.N,/GND*%
X102840000Y-61487500D03*
%TD*%
D24*
%TO.N,/+9V_SW*%
X80873400Y-72685800D02*
X110498300Y-72685800D01*
X110498300Y-72685800D02*
X113300000Y-75487500D01*
X75570000Y-75487500D02*
X78071700Y-75487500D01*
X78071700Y-75487500D02*
X80873400Y-72685800D01*
%TO.N,/GND*%
X101607300Y-95487500D02*
X98292500Y-92172700D01*
X29760000Y-76752500D02*
X31900700Y-78893200D01*
X79359700Y-92172700D02*
X72735700Y-98796700D01*
X67950000Y-75487500D02*
X65448300Y-75487500D01*
X116116100Y-87068000D02*
X116116100Y-74295400D01*
X113300000Y-95487500D02*
X110498300Y-92685800D01*
X59237400Y-35302600D02*
X59237400Y-35487500D01*
X55472700Y-31537900D02*
X59237400Y-35302600D01*
X35760000Y-36126400D02*
X35760000Y-34135800D01*
X38357900Y-31537900D02*
X55472700Y-31537900D01*
X59237400Y-35697600D02*
X57322500Y-37612500D01*
X35760000Y-36126400D02*
X35760000Y-36437500D01*
X98292500Y-92172700D02*
X79359700Y-92172700D01*
X59237400Y-35487500D02*
X59607300Y-35487500D01*
X57322500Y-37612500D02*
X51732300Y-37612500D01*
X51732300Y-37612500D02*
X49607300Y-35487500D01*
X43398200Y-75458800D02*
X46746700Y-72110300D01*
X62147300Y-59374800D02*
X56372700Y-59374800D01*
X56372700Y-59374800D02*
X54260000Y-61487500D01*
X72111000Y-63636500D02*
X74260000Y-61487500D01*
X116116100Y-74295400D02*
X103308200Y-61487500D01*
X110498300Y-92685800D02*
X104409000Y-92685800D01*
X46746700Y-72110300D02*
X65374000Y-72110300D01*
X102541000Y-94553600D02*
X101607300Y-95487300D01*
X72735700Y-98796700D02*
X58266900Y-98796700D01*
X65374000Y-72110300D02*
X65374000Y-75413200D01*
X64260000Y-62522500D02*
X65374000Y-63636500D01*
X110498300Y-92685800D02*
X116116100Y-87068000D01*
X40929800Y-78893200D02*
X43398200Y-76424800D01*
X31900700Y-78893200D02*
X40929800Y-78893200D01*
X40929800Y-81459600D02*
X40929800Y-78893200D01*
X104409000Y-92685800D02*
X101607300Y-95487500D01*
X64260000Y-61487500D02*
X64260000Y-62522500D01*
X35760000Y-34135800D02*
X38357900Y-31537900D01*
X59237400Y-35487500D02*
X59237400Y-35697600D01*
X43398200Y-76424800D02*
X43398200Y-75458800D01*
X65374000Y-72110300D02*
X65374000Y-63636500D01*
X103308200Y-61487500D02*
X102840000Y-61487500D01*
X64260000Y-61487500D02*
X62147300Y-59374800D01*
X101607300Y-95487300D02*
X101607300Y-95487500D01*
X65374000Y-63636500D02*
X72111000Y-63636500D01*
X65374000Y-75413200D02*
X65448300Y-75487500D01*
X58266900Y-98796700D02*
X40929800Y-81459600D01*
%TO.N,/SW*%
X59660000Y-95487500D02*
X69570000Y-95487500D01*
X108220000Y-75487500D02*
X105418300Y-75487500D01*
X100300000Y-53867500D02*
X92680000Y-61487500D01*
X100300000Y-50437500D02*
X100300000Y-53867500D01*
X89570000Y-75487500D02*
X105418300Y-75487500D01*
X69570000Y-95487500D02*
X89570000Y-75487500D01*
%TO.N,Net-(D1-A)*%
X49570000Y-51593800D02*
X51371700Y-53395500D01*
X51371700Y-53395500D02*
X57662000Y-53395500D01*
X57662000Y-53395500D02*
X61570000Y-49487500D01*
X37570000Y-49487500D02*
X39676300Y-51593800D01*
X44071700Y-60217500D02*
X44071700Y-51593800D01*
X41570000Y-60217500D02*
X44071700Y-60217500D01*
X49570000Y-51593800D02*
X49570000Y-49487500D01*
X39676300Y-51593800D02*
X44071700Y-51593800D01*
X44071700Y-51593800D02*
X49570000Y-51593800D01*
%TO.N,Net-(D1-K)*%
X84300000Y-49482500D02*
X84300000Y-49130500D01*
X84300000Y-49130500D02*
X80715700Y-45546200D01*
X80715700Y-45546200D02*
X57891300Y-45546200D01*
X57891300Y-45546200D02*
X53950000Y-49487500D01*
%TO.N,Net-(D2-A)*%
X73570000Y-49487500D02*
X79215000Y-49487500D01*
X79215000Y-49487500D02*
X79220000Y-49482500D01*
%TO.N,Net-(D2-K)*%
X44051700Y-47385800D02*
X50460000Y-47385800D01*
X63810400Y-47347900D02*
X65950000Y-49487500D01*
X51800300Y-50697700D02*
X52696400Y-51593800D01*
X55276400Y-51593800D02*
X59522300Y-47347900D01*
X50460000Y-47385800D02*
X51800300Y-48726100D01*
X59522300Y-47347900D02*
X63810400Y-47347900D01*
X52696400Y-51593800D02*
X55276400Y-51593800D01*
X41950000Y-49487500D02*
X44051700Y-47385800D01*
X51800300Y-48726100D02*
X51800300Y-50697700D01*
%TO.N,Net-(J3-Pin_1)*%
X103266800Y-97639000D02*
X100258800Y-97639000D01*
X87860000Y-95487500D02*
X98107300Y-95487500D01*
X100258800Y-97639000D02*
X98107300Y-95487500D01*
X108220000Y-95487500D02*
X105418300Y-95487500D01*
X105418300Y-95487500D02*
X103266800Y-97639000D01*
%TO.N,Net-(Q1-PadG)*%
X102485100Y-49387700D02*
X101233200Y-48135800D01*
X79410000Y-78027500D02*
X75570000Y-78027500D01*
X75570000Y-78027500D02*
X73068300Y-78027500D01*
X73068300Y-72067300D02*
X81216300Y-63919300D01*
X101233200Y-48135800D02*
X95220000Y-48135800D01*
X81950000Y-75487500D02*
X79410000Y-78027500D01*
X102485100Y-55591500D02*
X102485100Y-49387700D01*
X95220000Y-50437500D02*
X95220000Y-48135800D01*
X73068300Y-78027500D02*
X73068300Y-72067300D01*
X94157300Y-63919300D02*
X102485100Y-55591500D01*
X81216300Y-63919300D02*
X94157300Y-63919300D01*
%TO.N,Net-(R1-Pad1)*%
X48870000Y-75487500D02*
X47612500Y-74230000D01*
X53950000Y-75487500D02*
X48870000Y-75487500D01*
X48895000Y-75487500D02*
X47612500Y-76770000D01*
%TO.N,Net-(R1-Pad2)*%
X69211800Y-80148700D02*
X66231200Y-80148700D01*
X67950000Y-72947500D02*
X68825900Y-72947500D01*
X70454400Y-74576000D02*
X70454400Y-78906100D01*
X70454400Y-78906100D02*
X69211800Y-80148700D01*
X66231200Y-80148700D02*
X61570000Y-75487500D01*
X68825900Y-72947500D02*
X70454400Y-74576000D01*
%TO.N,Net-(U1-VO)*%
X29950000Y-49487500D02*
X38300000Y-41137500D01*
X34193000Y-53730500D02*
X35121300Y-53730500D01*
X41570000Y-57677500D02*
X39068300Y-57677500D01*
X38300000Y-41137500D02*
X38300000Y-36437500D01*
X31429600Y-56493900D02*
X34193000Y-53730500D01*
X43512400Y-33376800D02*
X53996600Y-33376800D01*
X31429600Y-65278800D02*
X31429600Y-56493900D01*
X38300000Y-36437500D02*
X40451700Y-36437500D01*
X35121300Y-53730500D02*
X39068300Y-57677500D01*
X53996600Y-33376800D02*
X56107300Y-35487500D01*
X40451700Y-36437500D02*
X43512400Y-33376800D01*
X34193000Y-53730500D02*
X29950000Y-49487500D01*
X31448300Y-65297500D02*
X31429600Y-65278800D01*
X33950000Y-65297500D02*
X31448300Y-65297500D01*
%TO.N,Net-(U3-CONT)*%
X65345600Y-57573100D02*
X55186000Y-57573100D01*
X51760000Y-60999100D02*
X51760000Y-62040200D01*
X40231300Y-67399200D02*
X39068300Y-66236200D01*
X39068300Y-66236200D02*
X39068300Y-65297500D01*
X46401000Y-67399200D02*
X40231300Y-67399200D01*
X69260000Y-61487500D02*
X65345600Y-57573100D01*
X51760000Y-62040200D02*
X46401000Y-67399200D01*
X41570000Y-65297500D02*
X39068300Y-65297500D01*
X55186000Y-57573100D02*
X51760000Y-60999100D01*
%TO.N,Net-(U3-OUT)*%
X38559100Y-70256300D02*
X36451700Y-68148900D01*
X33950000Y-62757500D02*
X36451700Y-62757500D01*
X37812800Y-71002600D02*
X38559100Y-70256300D01*
X59260000Y-61487500D02*
X50491200Y-70256300D01*
X39992500Y-76770000D02*
X39174000Y-76770000D01*
X50491200Y-70256300D02*
X38559100Y-70256300D01*
X39174000Y-76770000D02*
X37812800Y-75408800D01*
X37812800Y-75408800D02*
X37812800Y-71002600D01*
X36451700Y-68148900D02*
X36451700Y-62757500D01*
%TO.N,Net-(U3-THRES)*%
X33950000Y-60217500D02*
X36528300Y-60217500D01*
X36528300Y-60217500D02*
X39068300Y-62757500D01*
X47990000Y-62757500D02*
X41570000Y-62757500D01*
X75915600Y-55729300D02*
X81760000Y-49884900D01*
X54462300Y-55729300D02*
X75915600Y-55729300D01*
X81760000Y-49884900D02*
X81760000Y-49482500D01*
X49260000Y-61487500D02*
X49260000Y-60931600D01*
X41570000Y-62757500D02*
X39068300Y-62757500D01*
X49260000Y-60931600D02*
X54462300Y-55729300D01*
X49260000Y-61487500D02*
X47990000Y-62757500D01*
%TO.N,Rectifier*%
X61750200Y-39442700D02*
X77202200Y-39442700D01*
X37632800Y-29698600D02*
X56802100Y-29698600D01*
X33220000Y-34111400D02*
X37632800Y-29698600D01*
X77202200Y-39442700D02*
X90498700Y-52739200D01*
X61750200Y-34646700D02*
X61750200Y-39442700D01*
X50062500Y-39442700D02*
X61750200Y-39442700D01*
X90498700Y-52739200D02*
X97760000Y-52739200D01*
X97760000Y-50437500D02*
X97760000Y-52739200D01*
X33220000Y-36437500D02*
X33220000Y-34111400D01*
X56802100Y-29698600D02*
X61750200Y-34646700D01*
X46107300Y-35487500D02*
X50062500Y-39442700D01*
%TD*%
%TA.AperFunction,NonConductor*%
G36*
X123442539Y-20520185D02*
G01*
X123488294Y-20572989D01*
X123499500Y-20624500D01*
X123499500Y-123375500D01*
X123479815Y-123442539D01*
X123427011Y-123488294D01*
X123375500Y-123499500D01*
X20624500Y-123499500D01*
X20557461Y-123479815D01*
X20511706Y-123427011D01*
X20500500Y-123375500D01*
X20500500Y-73317539D01*
X28109500Y-73317539D01*
X28109500Y-75107460D01*
X28124630Y-75241749D01*
X28124631Y-75241754D01*
X28184211Y-75412023D01*
X28280184Y-75564762D01*
X28380576Y-75665154D01*
X28414061Y-75726477D01*
X28409077Y-75796169D01*
X28393214Y-75825719D01*
X28348367Y-75887446D01*
X28230422Y-76118923D01*
X28150140Y-76366006D01*
X28109500Y-76622597D01*
X28109500Y-76882402D01*
X28150140Y-77138993D01*
X28230422Y-77386076D01*
X28276090Y-77475703D01*
X28348246Y-77617316D01*
X28348368Y-77617554D01*
X28472204Y-77788000D01*
X28501069Y-77827729D01*
X28684771Y-78011431D01*
X28894949Y-78164134D01*
X29126428Y-78282079D01*
X29373507Y-78362360D01*
X29520460Y-78385634D01*
X29583591Y-78415561D01*
X29588740Y-78420425D01*
X31053481Y-79885166D01*
X31219089Y-80005487D01*
X31299284Y-80046348D01*
X31401481Y-80098420D01*
X31498823Y-80130048D01*
X31596165Y-80161677D01*
X31798348Y-80193700D01*
X39505300Y-80193700D01*
X39572339Y-80213385D01*
X39618094Y-80266189D01*
X39629300Y-80317700D01*
X39629300Y-81561951D01*
X39661322Y-81764134D01*
X39724581Y-81958823D01*
X39771046Y-82050014D01*
X39817513Y-82141211D01*
X39937834Y-82306819D01*
X57419681Y-99788666D01*
X57585289Y-99908987D01*
X57676485Y-99955453D01*
X57767681Y-100001920D01*
X57865023Y-100033548D01*
X57962365Y-100065177D01*
X58164548Y-100097200D01*
X58164549Y-100097200D01*
X72838051Y-100097200D01*
X72838052Y-100097200D01*
X73040235Y-100065177D01*
X73137576Y-100033548D01*
X73234919Y-100001920D01*
X73326114Y-99955453D01*
X73417311Y-99908987D01*
X73582919Y-99788666D01*
X79862065Y-93509518D01*
X79923388Y-93476034D01*
X79949746Y-93473200D01*
X85626888Y-93473200D01*
X85693927Y-93492885D01*
X85739682Y-93545689D01*
X85749626Y-93614847D01*
X85723835Y-93674513D01*
X85572422Y-93864378D01*
X85405072Y-94130713D01*
X85268598Y-94414104D01*
X85164711Y-94710998D01*
X85164710Y-94711000D01*
X85094718Y-95017656D01*
X85094716Y-95017672D01*
X85059500Y-95330222D01*
X85059500Y-95644777D01*
X85094716Y-95957327D01*
X85094718Y-95957343D01*
X85164710Y-96263999D01*
X85164711Y-96264001D01*
X85268598Y-96560895D01*
X85405072Y-96844286D01*
X85405074Y-96844289D01*
X85572423Y-97110623D01*
X85768539Y-97356544D01*
X85990956Y-97578961D01*
X86236877Y-97775077D01*
X86503211Y-97942426D01*
X86786606Y-98078902D01*
X87083500Y-98182789D01*
X87390160Y-98252782D01*
X87702723Y-98287999D01*
X87702724Y-98288000D01*
X87702727Y-98288000D01*
X88017276Y-98288000D01*
X88017276Y-98287999D01*
X88329840Y-98252782D01*
X88636500Y-98182789D01*
X88933394Y-98078902D01*
X89216789Y-97942426D01*
X89483123Y-97775077D01*
X89729044Y-97578961D01*
X89951461Y-97356544D01*
X90147577Y-97110623D01*
X90313833Y-96846027D01*
X90366168Y-96799737D01*
X90418827Y-96788000D01*
X96771506Y-96788000D01*
X96838545Y-96807685D01*
X96850171Y-96816147D01*
X96970846Y-96915182D01*
X96970850Y-96915185D01*
X97153346Y-97012732D01*
X97351366Y-97072800D01*
X97351365Y-97072800D01*
X97389947Y-97076600D01*
X97505692Y-97088000D01*
X97817253Y-97088000D01*
X97884292Y-97107685D01*
X97904934Y-97124319D01*
X99411586Y-98630971D01*
X99566549Y-98743556D01*
X99577190Y-98751287D01*
X99668385Y-98797753D01*
X99759576Y-98844218D01*
X99759578Y-98844218D01*
X99759581Y-98844220D01*
X99856922Y-98875848D01*
X99954265Y-98907477D01*
X100055357Y-98923488D01*
X100156448Y-98939500D01*
X100156449Y-98939500D01*
X103369151Y-98939500D01*
X103369152Y-98939500D01*
X103571335Y-98907477D01*
X103668676Y-98875848D01*
X103766019Y-98844220D01*
X103857214Y-98797753D01*
X103948411Y-98751287D01*
X104114019Y-98630966D01*
X105716471Y-97028513D01*
X105777792Y-96995030D01*
X105847484Y-97000014D01*
X105903417Y-97041886D01*
X105927370Y-97102312D01*
X105934630Y-97166750D01*
X105934631Y-97166754D01*
X105994211Y-97337023D01*
X106081860Y-97476515D01*
X106090184Y-97489762D01*
X106217738Y-97617316D01*
X106370478Y-97713289D01*
X106471500Y-97748638D01*
X106540745Y-97772868D01*
X106540750Y-97772869D01*
X106631246Y-97783065D01*
X106675040Y-97787999D01*
X106675043Y-97788000D01*
X106675046Y-97788000D01*
X109764957Y-97788000D01*
X109764958Y-97787999D01*
X109832104Y-97780434D01*
X109899249Y-97772869D01*
X109899252Y-97772868D01*
X109899255Y-97772868D01*
X110069522Y-97713289D01*
X110222262Y-97617316D01*
X110349816Y-97489762D01*
X110445789Y-97337022D01*
X110505368Y-97166755D01*
X110520500Y-97032454D01*
X110520500Y-94846547D01*
X110540185Y-94779508D01*
X110592989Y-94733753D01*
X110662147Y-94723809D01*
X110725703Y-94752834D01*
X110732181Y-94758866D01*
X110992386Y-95019071D01*
X111025871Y-95080394D01*
X111027644Y-95122937D01*
X110999501Y-95336706D01*
X110999500Y-95336723D01*
X110999500Y-95638276D01*
X110999501Y-95638293D01*
X111038861Y-95937266D01*
X111116913Y-96228560D01*
X111232314Y-96507161D01*
X111232318Y-96507171D01*
X111383099Y-96768331D01*
X111566679Y-97007578D01*
X111566685Y-97007585D01*
X111779914Y-97220814D01*
X111779921Y-97220820D01*
X112019168Y-97404400D01*
X112280328Y-97555181D01*
X112280329Y-97555181D01*
X112280332Y-97555183D01*
X112466072Y-97632119D01*
X112558939Y-97670586D01*
X112558940Y-97670586D01*
X112558942Y-97670587D01*
X112850232Y-97748638D01*
X113149217Y-97788000D01*
X113149224Y-97788000D01*
X113450776Y-97788000D01*
X113450783Y-97788000D01*
X113749768Y-97748638D01*
X114041058Y-97670587D01*
X114319668Y-97555183D01*
X114580832Y-97404400D01*
X114820080Y-97220819D01*
X115033319Y-97007580D01*
X115216900Y-96768332D01*
X115367683Y-96507168D01*
X115483087Y-96228558D01*
X115561138Y-95937268D01*
X115600500Y-95638283D01*
X115600500Y-95336717D01*
X115561138Y-95037732D01*
X115483087Y-94746442D01*
X115468406Y-94711000D01*
X115400552Y-94547185D01*
X115367683Y-94467832D01*
X115336664Y-94414106D01*
X115216900Y-94206668D01*
X115033320Y-93967421D01*
X115033314Y-93967414D01*
X114820085Y-93754185D01*
X114820078Y-93754179D01*
X114580831Y-93570599D01*
X114319671Y-93419818D01*
X114319661Y-93419814D01*
X114041060Y-93304413D01*
X113749766Y-93226361D01*
X113450793Y-93187001D01*
X113450788Y-93187000D01*
X113450783Y-93187000D01*
X113149217Y-93187000D01*
X113149211Y-93187000D01*
X113149206Y-93187001D01*
X112935437Y-93215144D01*
X112866402Y-93204378D01*
X112831571Y-93179886D01*
X112425166Y-92773481D01*
X112391681Y-92712158D01*
X112396665Y-92642466D01*
X112425166Y-92598119D01*
X114151085Y-90872200D01*
X117108066Y-87915219D01*
X117228387Y-87749611D01*
X117274853Y-87658414D01*
X117321320Y-87567219D01*
X117384577Y-87372534D01*
X117416600Y-87170352D01*
X117416600Y-74193048D01*
X117407488Y-74135519D01*
X117384577Y-73990865D01*
X117350829Y-73887000D01*
X117321320Y-73796181D01*
X117321318Y-73796178D01*
X117321318Y-73796176D01*
X117274063Y-73703434D01*
X117274062Y-73703433D01*
X117235827Y-73628392D01*
X117228387Y-73613789D01*
X117228386Y-73613787D01*
X117126872Y-73474065D01*
X117108066Y-73448181D01*
X117108062Y-73448176D01*
X116960223Y-73300337D01*
X116960192Y-73300308D01*
X104706645Y-61046760D01*
X104674551Y-60991172D01*
X104643502Y-60875293D01*
X104642600Y-60873116D01*
X104548167Y-60645133D01*
X104548162Y-60645123D01*
X104423599Y-60429373D01*
X104271939Y-60231725D01*
X104271933Y-60231718D01*
X104095781Y-60055566D01*
X104095774Y-60055560D01*
X103898126Y-59903900D01*
X103682376Y-59779337D01*
X103682361Y-59779330D01*
X103452207Y-59683998D01*
X103211561Y-59619517D01*
X102964575Y-59587001D01*
X102964570Y-59587000D01*
X102964565Y-59587000D01*
X102715435Y-59587000D01*
X102715429Y-59587000D01*
X102715424Y-59587001D01*
X102468438Y-59619517D01*
X102227792Y-59683998D01*
X101997638Y-59779330D01*
X101997623Y-59779337D01*
X101781873Y-59903900D01*
X101584225Y-60055560D01*
X101584218Y-60055566D01*
X101408066Y-60231718D01*
X101408060Y-60231725D01*
X101256400Y-60429373D01*
X101131837Y-60645123D01*
X101131830Y-60645138D01*
X101036498Y-60875292D01*
X100972017Y-61115938D01*
X100939501Y-61362924D01*
X100939500Y-61362941D01*
X100939500Y-61612058D01*
X100939501Y-61612075D01*
X100972017Y-61859061D01*
X101036498Y-62099707D01*
X101131830Y-62329861D01*
X101131837Y-62329876D01*
X101256400Y-62545626D01*
X101408060Y-62743274D01*
X101408066Y-62743281D01*
X101584218Y-62919433D01*
X101584225Y-62919439D01*
X101781873Y-63071099D01*
X101997623Y-63195662D01*
X101997638Y-63195669D01*
X102018029Y-63204115D01*
X102227793Y-63291002D01*
X102468435Y-63355482D01*
X102715435Y-63388000D01*
X102715442Y-63388000D01*
X102964558Y-63388000D01*
X102964565Y-63388000D01*
X103211565Y-63355482D01*
X103241338Y-63347504D01*
X103311184Y-63349165D01*
X103361112Y-63379597D01*
X108232767Y-68251252D01*
X111437575Y-71456059D01*
X111471060Y-71517382D01*
X111466076Y-71587074D01*
X111424204Y-71643007D01*
X111358740Y-71667424D01*
X111290467Y-71652572D01*
X111277009Y-71644058D01*
X111179914Y-71573515D01*
X111179913Y-71573514D01*
X111179911Y-71573513D01*
X111074522Y-71519815D01*
X111069747Y-71517382D01*
X110997523Y-71480581D01*
X110947289Y-71464259D01*
X110900176Y-71448951D01*
X110876303Y-71441194D01*
X110802835Y-71417322D01*
X110628295Y-71389678D01*
X110600652Y-71385300D01*
X80975751Y-71385300D01*
X80771048Y-71385300D01*
X80703653Y-71395974D01*
X80568863Y-71417323D01*
X80471523Y-71448950D01*
X80471523Y-71448951D01*
X80438212Y-71459774D01*
X80374176Y-71480581D01*
X80297178Y-71519815D01*
X80191788Y-71573513D01*
X80026178Y-71693836D01*
X77569334Y-74150681D01*
X77542406Y-74165384D01*
X77516588Y-74181977D01*
X77510387Y-74182868D01*
X77508011Y-74184166D01*
X77481653Y-74187000D01*
X77291142Y-74187000D01*
X77224103Y-74167315D01*
X77178348Y-74114511D01*
X77168404Y-74045353D01*
X77190824Y-73990115D01*
X77287824Y-73856604D01*
X77338870Y-73786345D01*
X77453241Y-73561879D01*
X77531090Y-73322285D01*
X77570500Y-73073462D01*
X77570500Y-72821538D01*
X77531090Y-72572715D01*
X77453241Y-72333121D01*
X77453239Y-72333118D01*
X77453239Y-72333116D01*
X77395894Y-72220572D01*
X77338870Y-72108655D01*
X77255239Y-71993546D01*
X77190798Y-71904850D01*
X77190794Y-71904845D01*
X77012654Y-71726705D01*
X77012649Y-71726701D01*
X76808848Y-71578632D01*
X76808847Y-71578631D01*
X76808845Y-71578630D01*
X76693418Y-71519817D01*
X76584383Y-71464260D01*
X76344785Y-71386410D01*
X76191930Y-71362200D01*
X76095962Y-71347000D01*
X76095961Y-71347000D01*
X75927147Y-71347000D01*
X75860108Y-71327315D01*
X75814353Y-71274511D01*
X75804409Y-71205353D01*
X75833434Y-71141797D01*
X75839466Y-71135319D01*
X81718666Y-65256119D01*
X81779989Y-65222634D01*
X81806347Y-65219800D01*
X94259651Y-65219800D01*
X94259652Y-65219800D01*
X94461835Y-65187777D01*
X94559176Y-65156148D01*
X94656519Y-65124520D01*
X94747714Y-65078053D01*
X94838911Y-65031587D01*
X95004519Y-64911266D01*
X103325250Y-56590532D01*
X103325257Y-56590527D01*
X103332317Y-56583467D01*
X103332319Y-56583466D01*
X103477066Y-56438719D01*
X103477068Y-56438715D01*
X103477071Y-56438713D01*
X103571580Y-56308630D01*
X103597387Y-56273110D01*
X103677230Y-56116410D01*
X103690321Y-56090718D01*
X103753577Y-55896034D01*
X103785600Y-55693851D01*
X103785600Y-55489148D01*
X103785600Y-49285348D01*
X103760641Y-49127766D01*
X103753577Y-49083165D01*
X103705512Y-48935238D01*
X103690320Y-48888481D01*
X103610368Y-48731566D01*
X103597387Y-48706089D01*
X103477066Y-48540481D01*
X102080419Y-47143834D01*
X101914811Y-47023513D01*
X101823614Y-46977046D01*
X101732416Y-46930578D01*
X101597004Y-46886581D01*
X101597003Y-46886580D01*
X101537732Y-46867322D01*
X101382420Y-46842723D01*
X101335552Y-46835300D01*
X95322352Y-46835300D01*
X95117648Y-46835300D01*
X95093329Y-46839151D01*
X94915465Y-46867322D01*
X94720776Y-46930581D01*
X94538386Y-47023515D01*
X94372786Y-47143828D01*
X94228028Y-47288586D01*
X94107715Y-47454186D01*
X94014781Y-47636576D01*
X93951522Y-47831265D01*
X93919500Y-48033448D01*
X93919500Y-48706690D01*
X93899815Y-48773729D01*
X93872815Y-48803635D01*
X93867738Y-48807683D01*
X93740184Y-48935237D01*
X93644211Y-49087976D01*
X93584631Y-49258245D01*
X93584630Y-49258250D01*
X93569500Y-49392539D01*
X93569500Y-51314700D01*
X93549815Y-51381739D01*
X93497011Y-51427494D01*
X93445500Y-51438700D01*
X91088746Y-51438700D01*
X91021707Y-51419015D01*
X91001065Y-51402381D01*
X78049421Y-38450736D01*
X78049420Y-38450735D01*
X78049419Y-38450734D01*
X77883811Y-38330413D01*
X77792614Y-38283946D01*
X77701423Y-38237481D01*
X77654715Y-38222304D01*
X77604076Y-38205851D01*
X77577940Y-38197359D01*
X77506735Y-38174222D01*
X77332195Y-38146578D01*
X77304552Y-38142200D01*
X77304551Y-38142200D01*
X63174700Y-38142200D01*
X63107661Y-38122515D01*
X63061906Y-38069711D01*
X63050700Y-38018200D01*
X63050700Y-34544347D01*
X63048989Y-34533545D01*
X63018677Y-34342168D01*
X63018677Y-34342167D01*
X63018677Y-34342165D01*
X62969337Y-34190313D01*
X62955420Y-34147481D01*
X62955418Y-34147478D01*
X62955418Y-34147476D01*
X62881345Y-34002100D01*
X62862488Y-33965091D01*
X62862487Y-33965089D01*
X62742166Y-33799481D01*
X57649319Y-28706634D01*
X57483711Y-28586313D01*
X57392514Y-28539846D01*
X57301323Y-28493381D01*
X57254615Y-28478204D01*
X57203976Y-28461751D01*
X57180103Y-28453994D01*
X57106635Y-28430122D01*
X56932095Y-28402478D01*
X56904452Y-28398100D01*
X37530448Y-28398100D01*
X37463054Y-28408774D01*
X37328264Y-28430123D01*
X37133584Y-28493377D01*
X37133581Y-28493378D01*
X36951186Y-28586315D01*
X36785586Y-28706628D01*
X32228036Y-33264178D01*
X32228031Y-33264184D01*
X32107716Y-33429784D01*
X32107708Y-33429796D01*
X32082939Y-33478410D01*
X32082907Y-33478474D01*
X32082562Y-33479152D01*
X32014780Y-33612181D01*
X32014780Y-33612182D01*
X32010513Y-33625313D01*
X32010509Y-33625322D01*
X31951522Y-33806867D01*
X31951522Y-33806868D01*
X31926462Y-33965090D01*
X31926462Y-33965091D01*
X31919500Y-34009044D01*
X31919500Y-34706690D01*
X31899815Y-34773729D01*
X31872815Y-34803635D01*
X31867738Y-34807683D01*
X31740184Y-34935237D01*
X31644211Y-35087976D01*
X31584631Y-35258245D01*
X31584630Y-35258250D01*
X31569500Y-35392539D01*
X31569500Y-37482460D01*
X31584630Y-37616749D01*
X31584631Y-37616754D01*
X31644211Y-37787023D01*
X31734376Y-37930519D01*
X31740184Y-37939762D01*
X31867738Y-38067316D01*
X32020478Y-38163289D01*
X32142113Y-38205851D01*
X32190745Y-38222868D01*
X32190750Y-38222869D01*
X32281246Y-38233065D01*
X32325040Y-38237999D01*
X32325043Y-38238000D01*
X32325046Y-38238000D01*
X34114957Y-38238000D01*
X34114958Y-38237999D01*
X34182104Y-38230434D01*
X34249249Y-38222869D01*
X34249252Y-38222868D01*
X34249255Y-38222868D01*
X34419522Y-38163289D01*
X34572262Y-38067316D01*
X34672655Y-37966923D01*
X34733978Y-37933438D01*
X34803670Y-37938422D01*
X34833218Y-37954283D01*
X34894949Y-37999134D01*
X35004312Y-38054857D01*
X35126423Y-38117077D01*
X35126425Y-38117077D01*
X35126428Y-38117079D01*
X35373507Y-38197360D01*
X35505706Y-38218297D01*
X35630098Y-38238000D01*
X35630103Y-38238000D01*
X35889902Y-38238000D01*
X36003298Y-38220039D01*
X36146493Y-38197360D01*
X36393572Y-38117079D01*
X36625051Y-37999134D01*
X36802617Y-37870124D01*
X36868421Y-37846646D01*
X36936475Y-37862471D01*
X36985169Y-37912577D01*
X36999500Y-37970444D01*
X36999500Y-40547452D01*
X36979815Y-40614491D01*
X36963181Y-40635133D01*
X29718590Y-47879723D01*
X29657267Y-47913208D01*
X29650309Y-47914515D01*
X29575217Y-47926409D01*
X29335618Y-48004260D01*
X29111151Y-48118632D01*
X28907350Y-48266701D01*
X28907345Y-48266705D01*
X28729205Y-48444845D01*
X28729201Y-48444850D01*
X28581132Y-48648651D01*
X28466760Y-48873116D01*
X28388910Y-49112714D01*
X28349500Y-49361538D01*
X28349500Y-49613461D01*
X28388910Y-49862285D01*
X28466760Y-50101883D01*
X28510103Y-50186947D01*
X28561733Y-50288277D01*
X28581132Y-50326348D01*
X28729201Y-50530149D01*
X28729205Y-50530154D01*
X28907345Y-50708294D01*
X28907350Y-50708298D01*
X29033162Y-50799705D01*
X29111155Y-50856370D01*
X29226586Y-50915185D01*
X29335616Y-50970739D01*
X29335618Y-50970739D01*
X29335621Y-50970741D01*
X29428721Y-51000991D01*
X29575214Y-51048590D01*
X29614439Y-51054802D01*
X29650306Y-51060483D01*
X29713441Y-51090412D01*
X29718590Y-51095275D01*
X32266134Y-53642819D01*
X32299619Y-53704142D01*
X32294635Y-53773834D01*
X32266134Y-53818181D01*
X30437636Y-55646678D01*
X30317313Y-55812288D01*
X30274643Y-55896034D01*
X30224381Y-55994676D01*
X30161122Y-56189365D01*
X30129100Y-56391548D01*
X30129100Y-65381151D01*
X30161122Y-65583334D01*
X30224381Y-65778023D01*
X30270846Y-65869214D01*
X30317313Y-65960411D01*
X30403889Y-66079573D01*
X30437631Y-66126015D01*
X30437636Y-66126021D01*
X30601082Y-66289467D01*
X30601087Y-66289471D01*
X30763166Y-66407228D01*
X30763167Y-66407228D01*
X30766163Y-66409404D01*
X30766690Y-66409787D01*
X30857886Y-66456254D01*
X30949081Y-66502721D01*
X30949084Y-66502722D01*
X30997008Y-66518293D01*
X31143766Y-66565977D01*
X31345948Y-66598000D01*
X31345949Y-66598000D01*
X31550652Y-66598000D01*
X32576762Y-66598000D01*
X32643801Y-66617685D01*
X32649637Y-66621675D01*
X32711155Y-66666370D01*
X32748800Y-66685551D01*
X32935616Y-66780739D01*
X32935618Y-66780739D01*
X32935621Y-66780741D01*
X33175215Y-66858590D01*
X33424038Y-66898000D01*
X33424039Y-66898000D01*
X34475961Y-66898000D01*
X34475962Y-66898000D01*
X34724785Y-66858590D01*
X34964379Y-66780741D01*
X34970899Y-66777418D01*
X35039565Y-66764518D01*
X35104308Y-66790790D01*
X35144569Y-66847893D01*
X35151200Y-66887900D01*
X35151200Y-68251251D01*
X35183222Y-68453435D01*
X35207094Y-68526903D01*
X35214851Y-68550776D01*
X35246480Y-68648119D01*
X35272762Y-68699700D01*
X35339413Y-68830511D01*
X35459734Y-68996119D01*
X35459735Y-68996120D01*
X35459736Y-68996121D01*
X36665193Y-70201577D01*
X36677037Y-70223268D01*
X36692408Y-70242623D01*
X36693488Y-70253396D01*
X36698678Y-70262900D01*
X36696915Y-70287551D01*
X36699382Y-70312143D01*
X36694034Y-70327837D01*
X36693694Y-70332592D01*
X36687998Y-70345551D01*
X36681324Y-70358650D01*
X36681323Y-70358652D01*
X36607581Y-70503376D01*
X36544322Y-70698065D01*
X36512300Y-70900248D01*
X36512300Y-75306448D01*
X36512300Y-75511152D01*
X36514717Y-75526410D01*
X36544322Y-75713335D01*
X36559458Y-75759916D01*
X36571237Y-75796169D01*
X36575951Y-75810675D01*
X36607581Y-75908023D01*
X36614924Y-75922433D01*
X36622483Y-75937268D01*
X36700513Y-76090411D01*
X36820834Y-76256019D01*
X36820836Y-76256021D01*
X37945834Y-77381019D01*
X37979319Y-77442342D01*
X37974335Y-77512034D01*
X37932463Y-77567967D01*
X37866999Y-77592384D01*
X37858153Y-77592700D01*
X32490747Y-77592700D01*
X32423708Y-77573015D01*
X32403066Y-77556381D01*
X31427925Y-76581240D01*
X31394440Y-76519917D01*
X31393140Y-76513002D01*
X31369860Y-76366007D01*
X31289579Y-76118928D01*
X31171634Y-75887449D01*
X31126785Y-75825719D01*
X31103306Y-75759916D01*
X31119131Y-75691862D01*
X31139423Y-75665155D01*
X31166302Y-75638276D01*
X31239816Y-75564762D01*
X31335789Y-75412022D01*
X31395368Y-75241755D01*
X31410500Y-75107454D01*
X31410500Y-73317546D01*
X31405565Y-73273746D01*
X31395369Y-73183250D01*
X31395368Y-73183245D01*
X31335788Y-73012976D01*
X31285906Y-72933590D01*
X31239816Y-72860238D01*
X31112262Y-72732684D01*
X31031744Y-72682091D01*
X30959523Y-72636711D01*
X30789254Y-72577131D01*
X30789249Y-72577130D01*
X30654960Y-72562000D01*
X30654954Y-72562000D01*
X28865046Y-72562000D01*
X28865039Y-72562000D01*
X28730750Y-72577130D01*
X28730745Y-72577131D01*
X28560476Y-72636711D01*
X28407737Y-72732684D01*
X28280184Y-72860237D01*
X28184211Y-73012976D01*
X28124631Y-73183245D01*
X28124630Y-73183250D01*
X28109500Y-73317539D01*
X20500500Y-73317539D01*
X20500500Y-20624500D01*
X20520185Y-20557461D01*
X20572989Y-20511706D01*
X20624500Y-20500500D01*
X123375500Y-20500500D01*
X123442539Y-20520185D01*
G37*
%TD.AperFunction*%
%TA.AperFunction,NonConductor*%
G36*
X41979292Y-32858085D02*
G01*
X42025047Y-32910889D01*
X42034991Y-32980047D01*
X42005966Y-33043603D01*
X41999934Y-33050081D01*
X39949334Y-35100681D01*
X39888011Y-35134166D01*
X39861653Y-35137000D01*
X39535022Y-35137000D01*
X39467983Y-35117315D01*
X39447341Y-35100681D01*
X39375231Y-35028571D01*
X39375225Y-35028566D01*
X39165054Y-34875868D01*
X39165053Y-34875867D01*
X39165051Y-34875866D01*
X39053342Y-34818947D01*
X38933576Y-34757922D01*
X38686493Y-34677640D01*
X38429902Y-34637000D01*
X38429897Y-34637000D01*
X38170103Y-34637000D01*
X38170098Y-34637000D01*
X37913506Y-34677640D01*
X37666423Y-34757922D01*
X37434945Y-34875868D01*
X37257385Y-35004873D01*
X37245525Y-35009104D01*
X37236011Y-35017349D01*
X37213244Y-35020622D01*
X37191579Y-35028353D01*
X37179315Y-35025501D01*
X37166853Y-35027293D01*
X37145927Y-35017736D01*
X37123525Y-35012527D01*
X37114750Y-35003498D01*
X37103297Y-34998268D01*
X37090861Y-34978917D01*
X37074830Y-34962422D01*
X37071425Y-34948674D01*
X37065523Y-34939490D01*
X37060500Y-34904555D01*
X37060500Y-34725847D01*
X37080185Y-34658808D01*
X37096819Y-34638166D01*
X38860266Y-32874719D01*
X38921589Y-32841234D01*
X38947947Y-32838400D01*
X41912253Y-32838400D01*
X41979292Y-32858085D01*
G37*
%TD.AperFunction*%
%TA.AperFunction,NonConductor*%
G36*
X48088524Y-34696985D02*
G01*
X48134279Y-34749789D01*
X48144223Y-34818947D01*
X48131969Y-34857596D01*
X48124061Y-34873114D01*
X48046209Y-35112714D01*
X48019401Y-35281979D01*
X48014008Y-35293355D01*
X48013110Y-35305915D01*
X47999325Y-35324329D01*
X47989472Y-35345114D01*
X47978782Y-35351769D01*
X47971238Y-35361848D01*
X47949687Y-35369885D01*
X47930160Y-35382045D01*
X47917570Y-35381865D01*
X47905774Y-35386265D01*
X47883297Y-35381375D01*
X47860298Y-35381047D01*
X47848171Y-35373734D01*
X47837501Y-35371413D01*
X47809247Y-35350262D01*
X47744119Y-35285134D01*
X47710634Y-35223811D01*
X47707800Y-35197453D01*
X47707800Y-34885895D01*
X47707800Y-34885892D01*
X47700665Y-34813452D01*
X47703480Y-34798608D01*
X47701330Y-34783653D01*
X47709858Y-34764977D01*
X47713684Y-34744808D01*
X47724077Y-34733842D01*
X47730355Y-34720097D01*
X47747627Y-34708996D01*
X47761749Y-34694098D01*
X47777357Y-34689890D01*
X47789133Y-34682323D01*
X47824068Y-34677300D01*
X48021485Y-34677300D01*
X48088524Y-34696985D01*
G37*
%TD.AperFunction*%
%TA.AperFunction,NonConductor*%
G36*
X53473592Y-34696985D02*
G01*
X53494234Y-34713619D01*
X54470481Y-35689865D01*
X54503966Y-35751188D01*
X54506800Y-35777546D01*
X54506800Y-36089104D01*
X54515343Y-36175846D01*
X54502324Y-36244492D01*
X54454259Y-36295202D01*
X54391940Y-36312000D01*
X52322346Y-36312000D01*
X52255307Y-36292315D01*
X52234665Y-36275681D01*
X51215075Y-35256090D01*
X51181590Y-35194767D01*
X51180283Y-35187806D01*
X51168390Y-35112714D01*
X51124916Y-34978917D01*
X51090541Y-34873121D01*
X51090538Y-34873117D01*
X51090538Y-34873114D01*
X51082631Y-34857596D01*
X51069734Y-34788927D01*
X51096010Y-34724186D01*
X51153116Y-34683929D01*
X51193115Y-34677300D01*
X53406553Y-34677300D01*
X53473592Y-34696985D01*
G37*
%TD.AperFunction*%
%TA.AperFunction,NonConductor*%
G36*
X60402814Y-36959803D02*
G01*
X60443071Y-37016909D01*
X60449700Y-37056908D01*
X60449700Y-38018200D01*
X60430015Y-38085239D01*
X60377211Y-38130994D01*
X60325700Y-38142200D01*
X58931347Y-38142200D01*
X58864308Y-38122515D01*
X58818553Y-38069711D01*
X58808609Y-38000553D01*
X58837634Y-37936997D01*
X58843666Y-37930519D01*
X59649865Y-37124319D01*
X59711188Y-37090834D01*
X59728445Y-37088978D01*
X59728399Y-37088383D01*
X59733259Y-37088000D01*
X59733262Y-37088000D01*
X59982085Y-37048590D01*
X60221679Y-36970741D01*
X60269404Y-36946424D01*
X60338073Y-36933527D01*
X60402814Y-36959803D01*
G37*
%TD.AperFunction*%
%TA.AperFunction,NonConductor*%
G36*
X48046638Y-48705985D02*
G01*
X48092393Y-48758789D01*
X48102337Y-48827947D01*
X48090084Y-48866595D01*
X48086760Y-48873116D01*
X48008910Y-49112714D01*
X47969500Y-49361538D01*
X47969500Y-49613461D01*
X48008910Y-49862285D01*
X48086761Y-50101885D01*
X48092427Y-50113004D01*
X48105324Y-50181673D01*
X48079048Y-50246414D01*
X48021942Y-50286671D01*
X47981943Y-50293300D01*
X43538057Y-50293300D01*
X43471018Y-50273615D01*
X43425263Y-50220811D01*
X43415319Y-50151653D01*
X43427573Y-50113004D01*
X43433238Y-50101885D01*
X43433239Y-50101883D01*
X43433241Y-50101879D01*
X43511090Y-49862285D01*
X43522984Y-49787187D01*
X43552911Y-49724057D01*
X43557757Y-49718926D01*
X44554065Y-48722619D01*
X44615388Y-48689134D01*
X44641746Y-48686300D01*
X47979599Y-48686300D01*
X48046638Y-48705985D01*
G37*
%TD.AperFunction*%
%TA.AperFunction,NonConductor*%
G36*
X59940588Y-48836451D02*
G01*
X59973120Y-48838778D01*
X59975129Y-48840282D01*
X59977623Y-48840559D01*
X60002947Y-48861107D01*
X60029053Y-48880650D01*
X60029929Y-48883000D01*
X60031879Y-48884582D01*
X60042075Y-48915563D01*
X60053470Y-48946114D01*
X60053107Y-48949085D01*
X60053721Y-48950950D01*
X60049831Y-48986029D01*
X60048884Y-48989687D01*
X60008910Y-49112715D01*
X59996082Y-49193699D01*
X59994587Y-49199479D01*
X59976407Y-49231278D01*
X59967085Y-49250944D01*
X59964104Y-49252799D01*
X59962223Y-49256091D01*
X57159634Y-52058681D01*
X57098311Y-52092166D01*
X57071953Y-52095000D01*
X56913747Y-52095000D01*
X56846708Y-52075315D01*
X56800953Y-52022511D01*
X56791009Y-51953353D01*
X56820034Y-51889797D01*
X56826066Y-51883319D01*
X58298632Y-50410753D01*
X59842107Y-48867277D01*
X59844306Y-48866076D01*
X59845595Y-48863922D01*
X59874813Y-48849418D01*
X59903428Y-48833794D01*
X59905930Y-48833972D01*
X59908179Y-48832857D01*
X59940588Y-48836451D01*
G37*
%TD.AperFunction*%
%TA.AperFunction,NonConductor*%
G36*
X80192692Y-46866385D02*
G01*
X80213334Y-46883019D01*
X81206279Y-47875964D01*
X81239764Y-47937287D01*
X81234780Y-48006979D01*
X81192908Y-48062912D01*
X81174900Y-48074125D01*
X80992007Y-48167315D01*
X80963080Y-48182054D01*
X80769467Y-48322721D01*
X80769462Y-48322725D01*
X80600226Y-48491961D01*
X80590317Y-48505601D01*
X80534987Y-48548266D01*
X80465373Y-48554244D01*
X80403578Y-48521637D01*
X80389683Y-48505601D01*
X80379773Y-48491961D01*
X80210537Y-48322725D01*
X80210532Y-48322721D01*
X80016919Y-48182054D01*
X80016918Y-48182053D01*
X80016916Y-48182052D01*
X79950324Y-48148121D01*
X79803674Y-48073398D01*
X79576051Y-47999439D01*
X79339671Y-47962000D01*
X79339666Y-47962000D01*
X79100334Y-47962000D01*
X79100329Y-47962000D01*
X78863948Y-47999439D01*
X78636325Y-48073398D01*
X78439897Y-48173485D01*
X78383602Y-48187000D01*
X74543238Y-48187000D01*
X74476199Y-48167315D01*
X74470362Y-48163324D01*
X74408845Y-48118630D01*
X74184383Y-48004260D01*
X73944785Y-47926410D01*
X73944779Y-47926409D01*
X73695962Y-47887000D01*
X73444038Y-47887000D01*
X73348076Y-47902199D01*
X73195214Y-47926410D01*
X72955616Y-48004260D01*
X72731151Y-48118632D01*
X72527350Y-48266701D01*
X72527345Y-48266705D01*
X72349205Y-48444845D01*
X72349201Y-48444850D01*
X72201132Y-48648651D01*
X72086760Y-48873116D01*
X72008910Y-49112714D01*
X71969500Y-49361538D01*
X71969500Y-49613461D01*
X72008910Y-49862285D01*
X72086760Y-50101883D01*
X72130103Y-50186947D01*
X72181733Y-50288277D01*
X72201132Y-50326348D01*
X72349201Y-50530149D01*
X72349205Y-50530154D01*
X72527345Y-50708294D01*
X72527350Y-50708298D01*
X72653162Y-50799705D01*
X72731155Y-50856370D01*
X72846586Y-50915185D01*
X72955616Y-50970739D01*
X72955618Y-50970739D01*
X72955621Y-50970741D01*
X73195215Y-51048590D01*
X73444038Y-51088000D01*
X73444039Y-51088000D01*
X73695961Y-51088000D01*
X73695962Y-51088000D01*
X73944785Y-51048590D01*
X74184379Y-50970741D01*
X74408845Y-50856370D01*
X74470353Y-50811681D01*
X74536158Y-50788202D01*
X74543238Y-50788000D01*
X78403228Y-50788000D01*
X78415202Y-50790758D01*
X78423859Y-50789728D01*
X78454048Y-50799705D01*
X78457471Y-50800494D01*
X78458546Y-50801017D01*
X78636330Y-50891603D01*
X78661721Y-50899853D01*
X78669467Y-50903621D01*
X78689195Y-50921575D01*
X78711217Y-50936633D01*
X78714639Y-50944731D01*
X78721141Y-50950648D01*
X78728030Y-50976416D01*
X78738416Y-51000991D01*
X78736916Y-51009655D01*
X78739187Y-51018147D01*
X78731051Y-51043549D01*
X78726502Y-51069838D01*
X78719497Y-51079625D01*
X78717876Y-51084687D01*
X78712990Y-51088715D01*
X78702905Y-51102808D01*
X75413234Y-54392481D01*
X75351911Y-54425966D01*
X75325553Y-54428800D01*
X58767247Y-54428800D01*
X58700208Y-54409115D01*
X58654453Y-54356311D01*
X58644509Y-54287153D01*
X58673534Y-54223597D01*
X58679566Y-54217119D01*
X59192543Y-53704142D01*
X61801409Y-51095273D01*
X61862730Y-51061790D01*
X61869649Y-51060489D01*
X61944785Y-51048590D01*
X62184379Y-50970741D01*
X62408845Y-50856370D01*
X62612656Y-50708293D01*
X62790793Y-50530156D01*
X62938870Y-50326345D01*
X63053241Y-50101879D01*
X63131090Y-49862285D01*
X63170500Y-49613462D01*
X63170500Y-49361538D01*
X63131090Y-49112715D01*
X63053241Y-48873121D01*
X63053239Y-48873118D01*
X63053239Y-48873116D01*
X63030605Y-48828695D01*
X63030096Y-48825989D01*
X63028296Y-48823911D01*
X63023687Y-48791861D01*
X63017709Y-48760026D01*
X63018743Y-48757476D01*
X63018352Y-48754753D01*
X63031805Y-48725294D01*
X63043985Y-48695285D01*
X63046234Y-48693699D01*
X63047377Y-48691197D01*
X63074620Y-48673688D01*
X63101092Y-48655028D01*
X63104548Y-48654455D01*
X63106155Y-48653423D01*
X63141090Y-48648400D01*
X63220353Y-48648400D01*
X63287392Y-48668085D01*
X63308034Y-48684719D01*
X64313181Y-49689866D01*
X64346666Y-49751189D01*
X64349500Y-49777547D01*
X64349500Y-50089108D01*
X64351854Y-50113004D01*
X64364699Y-50243432D01*
X64388327Y-50321324D01*
X64424768Y-50441454D01*
X64522315Y-50623950D01*
X64556969Y-50666177D01*
X64653589Y-50783910D01*
X64687430Y-50811682D01*
X64813550Y-50915185D01*
X64996046Y-51012732D01*
X65194066Y-51072800D01*
X65194065Y-51072800D01*
X65232647Y-51076600D01*
X65348392Y-51088000D01*
X65348395Y-51088000D01*
X66551605Y-51088000D01*
X66551608Y-51088000D01*
X66705934Y-51072800D01*
X66903954Y-51012732D01*
X67086450Y-50915185D01*
X67246410Y-50783910D01*
X67377685Y-50623950D01*
X67475232Y-50441454D01*
X67535300Y-50243434D01*
X67550500Y-50089108D01*
X67550500Y-48885892D01*
X67535300Y-48731566D01*
X67475232Y-48533546D01*
X67377685Y-48351050D01*
X67308462Y-48266701D01*
X67246410Y-48191089D01*
X67103000Y-48073397D01*
X67086450Y-48059815D01*
X66903954Y-47962268D01*
X66705934Y-47902200D01*
X66705932Y-47902199D01*
X66705934Y-47902199D01*
X66586805Y-47890466D01*
X66551608Y-47887000D01*
X66551605Y-47887000D01*
X66240047Y-47887000D01*
X66173008Y-47867315D01*
X66152366Y-47850681D01*
X65360066Y-47058381D01*
X65326581Y-46997058D01*
X65331565Y-46927366D01*
X65373437Y-46871433D01*
X65438901Y-46847016D01*
X65447747Y-46846700D01*
X80125653Y-46846700D01*
X80192692Y-46866385D01*
G37*
%TD.AperFunction*%
%TA.AperFunction,NonConductor*%
G36*
X34700482Y-55164714D02*
G01*
X34744830Y-55193215D01*
X35572016Y-56020401D01*
X35605501Y-56081724D01*
X35600517Y-56151416D01*
X35558645Y-56207349D01*
X35493181Y-56231766D01*
X35425881Y-56217440D01*
X35303956Y-56152269D01*
X35303955Y-56152268D01*
X35303954Y-56152268D01*
X35105934Y-56092200D01*
X35105932Y-56092199D01*
X35105934Y-56092199D01*
X34986805Y-56080466D01*
X34951608Y-56077000D01*
X34951605Y-56077000D01*
X33985047Y-56077000D01*
X33918008Y-56057315D01*
X33872253Y-56004511D01*
X33862309Y-55935353D01*
X33891334Y-55871797D01*
X33897366Y-55865319D01*
X34569468Y-55193215D01*
X34630791Y-55159730D01*
X34700482Y-55164714D01*
G37*
%TD.AperFunction*%
%TA.AperFunction,NonConductor*%
G36*
X44457571Y-34696985D02*
G01*
X44503326Y-34749789D01*
X44513934Y-34813452D01*
X44506800Y-34885892D01*
X44506800Y-34885895D01*
X44506800Y-36089104D01*
X44521999Y-36243432D01*
X44522000Y-36243434D01*
X44582068Y-36441454D01*
X44679615Y-36623950D01*
X44679617Y-36623952D01*
X44810889Y-36783910D01*
X44896036Y-36853787D01*
X44970850Y-36915185D01*
X45153346Y-37012732D01*
X45351366Y-37072800D01*
X45351365Y-37072800D01*
X45389947Y-37076600D01*
X45505692Y-37088000D01*
X45817253Y-37088000D01*
X45884292Y-37107685D01*
X45904934Y-37124319D01*
X49215286Y-40434671D01*
X49370249Y-40547256D01*
X49380890Y-40554987D01*
X49497107Y-40614203D01*
X49563276Y-40647918D01*
X49563278Y-40647918D01*
X49563281Y-40647920D01*
X49667637Y-40681827D01*
X49757965Y-40711177D01*
X49859057Y-40727188D01*
X49960148Y-40743200D01*
X61647848Y-40743200D01*
X76612153Y-40743200D01*
X76679192Y-40762885D01*
X76699834Y-40779519D01*
X79954334Y-44034019D01*
X79987819Y-44095342D01*
X79982835Y-44165034D01*
X79940963Y-44220967D01*
X79875499Y-44245384D01*
X79866653Y-44245700D01*
X57993652Y-44245700D01*
X57788948Y-44245700D01*
X57721553Y-44256374D01*
X57586763Y-44277723D01*
X57489423Y-44309350D01*
X57489423Y-44309351D01*
X57436652Y-44326497D01*
X57392074Y-44340982D01*
X57300884Y-44387445D01*
X57300885Y-44387446D01*
X57209688Y-44433913D01*
X57044078Y-44554236D01*
X53747634Y-47850681D01*
X53686311Y-47884166D01*
X53659953Y-47887000D01*
X53348392Y-47887000D01*
X53310298Y-47890751D01*
X53194067Y-47902199D01*
X53078398Y-47937287D01*
X52996930Y-47962000D01*
X52996043Y-47962269D01*
X52988171Y-47966477D01*
X52919767Y-47980715D01*
X52854525Y-47955711D01*
X52829405Y-47929999D01*
X52792269Y-47878884D01*
X51307221Y-46393836D01*
X51307219Y-46393834D01*
X51141611Y-46273513D01*
X51050414Y-46227046D01*
X50959219Y-46180580D01*
X50842575Y-46142680D01*
X50764535Y-46117323D01*
X50764532Y-46117322D01*
X50609220Y-46092723D01*
X50562352Y-46085300D01*
X43949348Y-46085300D01*
X43881954Y-46095974D01*
X43747164Y-46117323D01*
X43552484Y-46180577D01*
X43552481Y-46180578D01*
X43370086Y-46273515D01*
X43204486Y-46393828D01*
X43204482Y-46393832D01*
X43059731Y-46538584D01*
X41718590Y-47879723D01*
X41657267Y-47913208D01*
X41650309Y-47914515D01*
X41575217Y-47926409D01*
X41335618Y-48004260D01*
X41111151Y-48118632D01*
X40907350Y-48266701D01*
X40907345Y-48266705D01*
X40729205Y-48444845D01*
X40729201Y-48444850D01*
X40581132Y-48648651D01*
X40466760Y-48873116D01*
X40388910Y-49112714D01*
X40349500Y-49361538D01*
X40349500Y-49613461D01*
X40388910Y-49862285D01*
X40466761Y-50101885D01*
X40472427Y-50113004D01*
X40472935Y-50115709D01*
X40474737Y-50117789D01*
X40479346Y-50149844D01*
X40485324Y-50181673D01*
X40484289Y-50184222D01*
X40484681Y-50186947D01*
X40471223Y-50216413D01*
X40459048Y-50246414D01*
X40456799Y-50247999D01*
X40455656Y-50250503D01*
X40428402Y-50268017D01*
X40401942Y-50286671D01*
X40398485Y-50287243D01*
X40396878Y-50288277D01*
X40361943Y-50293300D01*
X40266347Y-50293300D01*
X40199308Y-50273615D01*
X40178666Y-50256981D01*
X39177775Y-49256090D01*
X39144290Y-49194767D01*
X39142983Y-49187806D01*
X39131090Y-49112714D01*
X39073424Y-48935237D01*
X39053241Y-48873121D01*
X39053239Y-48873118D01*
X39053239Y-48873116D01*
X38994317Y-48757476D01*
X38938870Y-48648655D01*
X38870277Y-48554244D01*
X38790798Y-48444850D01*
X38790794Y-48444845D01*
X38612654Y-48266705D01*
X38612649Y-48266701D01*
X38408848Y-48118632D01*
X38408847Y-48118631D01*
X38408845Y-48118630D01*
X38320070Y-48073397D01*
X38184383Y-48004260D01*
X37944785Y-47926410D01*
X37944779Y-47926409D01*
X37695962Y-47887000D01*
X37444038Y-47887000D01*
X37348076Y-47902199D01*
X37195214Y-47926410D01*
X36955616Y-48004260D01*
X36731151Y-48118632D01*
X36527350Y-48266701D01*
X36527345Y-48266705D01*
X36349205Y-48444845D01*
X36349201Y-48444850D01*
X36201132Y-48648651D01*
X36086760Y-48873116D01*
X36008910Y-49112714D01*
X35969500Y-49361538D01*
X35969500Y-49613461D01*
X36008910Y-49862285D01*
X36086760Y-50101883D01*
X36130103Y-50186947D01*
X36181733Y-50288277D01*
X36201132Y-50326348D01*
X36349201Y-50530149D01*
X36349205Y-50530154D01*
X36527345Y-50708294D01*
X36527350Y-50708298D01*
X36653162Y-50799705D01*
X36731155Y-50856370D01*
X36846586Y-50915185D01*
X36955616Y-50970739D01*
X36955618Y-50970739D01*
X36955621Y-50970741D01*
X37048721Y-51000991D01*
X37195214Y-51048590D01*
X37234439Y-51054802D01*
X37270306Y-51060483D01*
X37333441Y-51090412D01*
X37338590Y-51095275D01*
X38829081Y-52585766D01*
X38994689Y-52706087D01*
X39085885Y-52752553D01*
X39177081Y-52799020D01*
X39274423Y-52830648D01*
X39371765Y-52862277D01*
X39573948Y-52894300D01*
X42647200Y-52894300D01*
X42714239Y-52913985D01*
X42759994Y-52966789D01*
X42771200Y-53018300D01*
X42771200Y-56087098D01*
X42751515Y-56154137D01*
X42698711Y-56199892D01*
X42629553Y-56209836D01*
X42590913Y-56197587D01*
X42584378Y-56194258D01*
X42344789Y-56116410D01*
X42344786Y-56116410D01*
X42182529Y-56090711D01*
X42095962Y-56077000D01*
X41044038Y-56077000D01*
X40957471Y-56090711D01*
X40795214Y-56116410D01*
X40555616Y-56194260D01*
X40331154Y-56308630D01*
X40292801Y-56336495D01*
X40269646Y-56353318D01*
X40203842Y-56376798D01*
X40196762Y-56377000D01*
X39658347Y-56377000D01*
X39591308Y-56357315D01*
X39570666Y-56340681D01*
X35968521Y-52738536D01*
X35968519Y-52738534D01*
X35802911Y-52618213D01*
X35702399Y-52567000D01*
X35702396Y-52566998D01*
X35620523Y-52525281D01*
X35573815Y-52510104D01*
X35523176Y-52493651D01*
X35499303Y-52485894D01*
X35425835Y-52462022D01*
X35251295Y-52434378D01*
X35223652Y-52430000D01*
X35223651Y-52430000D01*
X34783047Y-52430000D01*
X34716008Y-52410315D01*
X34695366Y-52393681D01*
X31876866Y-49575181D01*
X31843381Y-49513858D01*
X31848365Y-49444166D01*
X31876866Y-49399819D01*
X35191385Y-46085300D01*
X39291966Y-41984719D01*
X39412287Y-41819111D01*
X39458753Y-41727914D01*
X39505220Y-41636719D01*
X39568477Y-41442034D01*
X39600500Y-41239852D01*
X39600500Y-37862000D01*
X39620185Y-37794961D01*
X39672989Y-37749206D01*
X39724500Y-37738000D01*
X40554051Y-37738000D01*
X40554052Y-37738000D01*
X40756235Y-37705977D01*
X40853576Y-37674348D01*
X40950919Y-37642720D01*
X41049381Y-37592551D01*
X41133311Y-37549787D01*
X41298919Y-37429466D01*
X44014766Y-34713619D01*
X44076089Y-34680134D01*
X44102447Y-34677300D01*
X44390532Y-34677300D01*
X44457571Y-34696985D01*
G37*
%TD.AperFunction*%
%TA.AperFunction,NonConductor*%
G36*
X49046992Y-52913985D02*
G01*
X49067634Y-52930619D01*
X50376608Y-54239592D01*
X50376622Y-54239607D01*
X50379733Y-54242718D01*
X50379734Y-54242719D01*
X50524481Y-54387466D01*
X50581373Y-54428800D01*
X50690090Y-54507787D01*
X50809320Y-54568538D01*
X50872481Y-54600721D01*
X50872484Y-54600722D01*
X50969824Y-54632349D01*
X51067166Y-54663977D01*
X51269348Y-54696000D01*
X51269349Y-54696000D01*
X51474052Y-54696000D01*
X53357053Y-54696000D01*
X53424092Y-54715685D01*
X53469847Y-54768489D01*
X53479791Y-54837647D01*
X53450766Y-54901203D01*
X53444734Y-54907681D01*
X48268036Y-60084378D01*
X48268031Y-60084384D01*
X48147716Y-60249984D01*
X48147706Y-60250001D01*
X48139196Y-60266704D01*
X48139194Y-60266708D01*
X48066924Y-60408543D01*
X48044132Y-60439918D01*
X48039208Y-60444842D01*
X48039202Y-60444849D01*
X47891132Y-60648651D01*
X47776760Y-60873118D01*
X47698909Y-61112717D01*
X47687015Y-61187809D01*
X47677898Y-61207038D01*
X47673375Y-61227835D01*
X47658825Y-61247270D01*
X47657085Y-61250943D01*
X47652224Y-61256090D01*
X47487632Y-61420682D01*
X47426312Y-61454166D01*
X47399953Y-61457000D01*
X44959851Y-61457000D01*
X44892812Y-61437315D01*
X44847057Y-61384511D01*
X44837113Y-61315353D01*
X44866138Y-61251797D01*
X44886966Y-61232682D01*
X44918913Y-61209471D01*
X44918915Y-61209468D01*
X44918919Y-61209466D01*
X45063666Y-61064719D01*
X45063668Y-61064715D01*
X45063671Y-61064713D01*
X45117101Y-60991172D01*
X45183987Y-60899110D01*
X45276920Y-60716719D01*
X45340177Y-60522034D01*
X45372200Y-60319852D01*
X45372200Y-53018300D01*
X45391885Y-52951261D01*
X45444689Y-52905506D01*
X45496200Y-52894300D01*
X48979953Y-52894300D01*
X49046992Y-52913985D01*
G37*
%TD.AperFunction*%
%TA.AperFunction,NonConductor*%
G36*
X36007098Y-56455483D02*
G01*
X38221081Y-58669466D01*
X38386689Y-58789787D01*
X38434112Y-58813950D01*
X38569081Y-58882720D01*
X38617010Y-58898293D01*
X38763765Y-58945977D01*
X38965948Y-58978000D01*
X39848858Y-58978000D01*
X39915897Y-58997685D01*
X39961652Y-59050489D01*
X39971596Y-59119647D01*
X39949176Y-59174885D01*
X39801132Y-59378651D01*
X39686760Y-59603116D01*
X39608910Y-59842714D01*
X39575913Y-60051049D01*
X39569500Y-60091538D01*
X39569500Y-60343462D01*
X39597783Y-60522034D01*
X39608910Y-60592285D01*
X39686760Y-60831883D01*
X39721016Y-60899113D01*
X39796246Y-61046760D01*
X39801132Y-61056348D01*
X39949176Y-61260115D01*
X39953407Y-61271974D01*
X39961652Y-61281489D01*
X39964925Y-61304255D01*
X39972656Y-61325921D01*
X39969804Y-61338184D01*
X39971596Y-61350647D01*
X39962039Y-61371572D01*
X39956830Y-61393975D01*
X39947801Y-61402748D01*
X39942571Y-61414203D01*
X39923218Y-61426639D01*
X39906724Y-61442670D01*
X39892978Y-61446073D01*
X39883793Y-61451977D01*
X39848858Y-61457000D01*
X39658347Y-61457000D01*
X39591308Y-61437315D01*
X39570666Y-61420681D01*
X37375521Y-59225536D01*
X37375519Y-59225534D01*
X37209911Y-59105213D01*
X37094424Y-59046370D01*
X37027519Y-59012280D01*
X36922016Y-58978000D01*
X36832835Y-58949023D01*
X36832832Y-58949022D01*
X36677520Y-58924423D01*
X36630652Y-58917000D01*
X36630651Y-58917000D01*
X35929486Y-58917000D01*
X35862447Y-58897315D01*
X35816692Y-58844511D01*
X35806748Y-58775353D01*
X35820128Y-58734547D01*
X35875230Y-58631458D01*
X35875230Y-58631457D01*
X35875232Y-58631454D01*
X35935300Y-58433434D01*
X35950500Y-58279108D01*
X35950500Y-57075892D01*
X35935300Y-56921566D01*
X35875232Y-56723546D01*
X35810058Y-56601616D01*
X35795817Y-56533215D01*
X35820816Y-56467971D01*
X35877121Y-56426600D01*
X35946855Y-56422238D01*
X36007098Y-56455483D01*
G37*
%TD.AperFunction*%
%TA.AperFunction,NonConductor*%
G36*
X64822592Y-58893285D02*
G01*
X64843234Y-58909919D01*
X67652223Y-61718907D01*
X67685708Y-61780230D01*
X67687015Y-61787189D01*
X67698909Y-61862282D01*
X67776761Y-62101886D01*
X67776762Y-62101887D01*
X67804184Y-62155705D01*
X67817081Y-62224374D01*
X67790805Y-62289114D01*
X67733699Y-62329372D01*
X67693700Y-62336000D01*
X65964047Y-62336000D01*
X65934606Y-62327355D01*
X65904620Y-62320832D01*
X65899604Y-62317077D01*
X65897008Y-62316315D01*
X65876366Y-62299681D01*
X65781110Y-62204425D01*
X65747625Y-62143102D01*
X65750859Y-62078431D01*
X65821090Y-61862285D01*
X65860500Y-61613462D01*
X65860500Y-61361538D01*
X65821090Y-61112715D01*
X65743241Y-60873121D01*
X65743239Y-60873118D01*
X65743239Y-60873116D01*
X65679381Y-60747789D01*
X65628870Y-60648655D01*
X65583272Y-60585894D01*
X65480798Y-60444850D01*
X65480794Y-60444845D01*
X65302653Y-60266704D01*
X65302649Y-60266701D01*
X65098848Y-60118632D01*
X65098847Y-60118631D01*
X65098845Y-60118630D01*
X64874379Y-60004259D01*
X64754582Y-59965334D01*
X64634783Y-59926409D01*
X64559689Y-59914515D01*
X64496555Y-59884585D01*
X64491408Y-59879723D01*
X63696966Y-59085281D01*
X63663481Y-59023958D01*
X63668465Y-58954266D01*
X63710337Y-58898333D01*
X63775801Y-58873916D01*
X63784647Y-58873600D01*
X64755553Y-58873600D01*
X64822592Y-58893285D01*
G37*
%TD.AperFunction*%
%TA.AperFunction,NonConductor*%
G36*
X37957403Y-63486234D02*
G01*
X37963881Y-63492266D01*
X38221086Y-63749471D01*
X38376049Y-63862056D01*
X38386690Y-63869787D01*
X38478140Y-63916383D01*
X38479380Y-63917015D01*
X38530176Y-63964990D01*
X38546971Y-64032811D01*
X38524434Y-64098946D01*
X38479380Y-64137985D01*
X38386686Y-64185215D01*
X38221086Y-64305528D01*
X38076332Y-64450282D01*
X38076328Y-64450287D01*
X37976518Y-64587665D01*
X37921188Y-64630331D01*
X37851575Y-64636310D01*
X37789780Y-64603704D01*
X37755423Y-64542866D01*
X37752200Y-64514780D01*
X37752200Y-63579947D01*
X37771885Y-63512908D01*
X37824689Y-63467153D01*
X37893847Y-63457209D01*
X37957403Y-63486234D01*
G37*
%TD.AperFunction*%
%TA.AperFunction,NonConductor*%
G36*
X47670692Y-64077685D02*
G01*
X47716447Y-64130489D01*
X47726391Y-64199647D01*
X47697366Y-64263203D01*
X47691334Y-64269681D01*
X45898634Y-66062381D01*
X45837311Y-66095866D01*
X45810953Y-66098700D01*
X43560401Y-66098700D01*
X43493362Y-66079015D01*
X43447607Y-66026211D01*
X43437663Y-65957053D01*
X43449916Y-65918405D01*
X43453239Y-65911883D01*
X43453239Y-65911882D01*
X43453241Y-65911879D01*
X43531090Y-65672285D01*
X43570500Y-65423462D01*
X43570500Y-65171538D01*
X43531090Y-64922715D01*
X43453241Y-64683121D01*
X43453239Y-64683118D01*
X43453239Y-64683116D01*
X43404604Y-64587665D01*
X43338870Y-64458655D01*
X43328227Y-64444006D01*
X43190824Y-64254885D01*
X43167344Y-64189079D01*
X43183170Y-64121025D01*
X43233276Y-64072330D01*
X43291142Y-64058000D01*
X47603653Y-64058000D01*
X47670692Y-64077685D01*
G37*
%TD.AperFunction*%
%TA.AperFunction,NonConductor*%
G36*
X57742243Y-60694985D02*
G01*
X57787998Y-60747789D01*
X57797942Y-60816947D01*
X57785688Y-60855596D01*
X57776760Y-60873116D01*
X57698909Y-61112716D01*
X57687015Y-61187810D01*
X57657085Y-61250944D01*
X57652223Y-61256091D01*
X49988834Y-68919481D01*
X49927511Y-68952966D01*
X49901153Y-68955800D01*
X39149146Y-68955800D01*
X39082107Y-68936115D01*
X39061465Y-68919481D01*
X37788519Y-67646534D01*
X37755034Y-67585211D01*
X37752200Y-67558853D01*
X37752200Y-67018919D01*
X37771885Y-66951880D01*
X37824689Y-66906125D01*
X37893847Y-66896181D01*
X37957403Y-66925206D01*
X37976518Y-66946034D01*
X38076331Y-67083415D01*
X38076336Y-67083421D01*
X39384086Y-68391171D01*
X39539049Y-68503756D01*
X39549690Y-68511487D01*
X39640885Y-68557953D01*
X39732076Y-68604418D01*
X39732078Y-68604418D01*
X39732081Y-68604420D01*
X39829422Y-68636048D01*
X39926765Y-68667677D01*
X40027857Y-68683688D01*
X40128948Y-68699700D01*
X40128949Y-68699700D01*
X46503351Y-68699700D01*
X46503352Y-68699700D01*
X46705535Y-68667677D01*
X46802876Y-68636048D01*
X46900219Y-68604420D01*
X46991414Y-68557953D01*
X47082611Y-68511487D01*
X47248219Y-68391166D01*
X52751966Y-62887419D01*
X52823267Y-62789281D01*
X52872287Y-62721810D01*
X52917907Y-62632273D01*
X52920275Y-62628368D01*
X52942830Y-62607757D01*
X52963812Y-62585542D01*
X52968379Y-62584410D01*
X52971853Y-62581237D01*
X53001973Y-62576091D01*
X53031633Y-62568747D01*
X53036086Y-62570264D01*
X53040726Y-62569472D01*
X53068847Y-62581428D01*
X53097767Y-62591284D01*
X53103625Y-62596216D01*
X53105025Y-62596811D01*
X53105954Y-62598176D01*
X53114003Y-62604952D01*
X53217345Y-62708294D01*
X53217350Y-62708298D01*
X53334580Y-62793470D01*
X53421155Y-62856370D01*
X53544933Y-62919438D01*
X53645616Y-62970739D01*
X53645618Y-62970739D01*
X53645621Y-62970741D01*
X53885215Y-63048590D01*
X54134038Y-63088000D01*
X54134039Y-63088000D01*
X54385961Y-63088000D01*
X54385962Y-63088000D01*
X54634785Y-63048590D01*
X54874379Y-62970741D01*
X55098845Y-62856370D01*
X55302656Y-62708293D01*
X55480793Y-62530156D01*
X55628870Y-62326345D01*
X55743241Y-62101879D01*
X55821090Y-61862285D01*
X55832984Y-61787187D01*
X55862911Y-61724057D01*
X55867757Y-61718926D01*
X56875066Y-60711619D01*
X56936389Y-60678134D01*
X56962747Y-60675300D01*
X57675204Y-60675300D01*
X57742243Y-60694985D01*
G37*
%TD.AperFunction*%
%TA.AperFunction,NonConductor*%
G36*
X61624292Y-60694985D02*
G01*
X61644934Y-60711619D01*
X62652223Y-61718908D01*
X62685708Y-61780231D01*
X62687015Y-61787189D01*
X62698909Y-61862283D01*
X62698910Y-61862285D01*
X62776053Y-62099707D01*
X62776760Y-62101881D01*
X62891130Y-62326346D01*
X62911193Y-62353959D01*
X62935817Y-62387852D01*
X62959298Y-62453656D01*
X62959500Y-62460737D01*
X62959500Y-62624852D01*
X62968623Y-62682450D01*
X62991522Y-62827031D01*
X62991522Y-62827032D01*
X62991523Y-62827035D01*
X63011143Y-62887419D01*
X63054780Y-63021719D01*
X63054781Y-63021720D01*
X63079940Y-63071099D01*
X63080441Y-63072081D01*
X63147713Y-63204111D01*
X63268034Y-63369719D01*
X63268036Y-63369721D01*
X64037181Y-64138866D01*
X64070666Y-64200189D01*
X64073500Y-64226547D01*
X64073500Y-70685800D01*
X64053815Y-70752839D01*
X64001011Y-70798594D01*
X63949500Y-70809800D01*
X52076247Y-70809800D01*
X52009208Y-70790115D01*
X51963453Y-70737311D01*
X51953509Y-70668153D01*
X51982534Y-70604597D01*
X51988566Y-70598119D01*
X52385108Y-70201577D01*
X59491409Y-63095273D01*
X59552730Y-63061790D01*
X59559649Y-63060489D01*
X59634785Y-63048590D01*
X59874379Y-62970741D01*
X60098845Y-62856370D01*
X60302656Y-62708293D01*
X60480793Y-62530156D01*
X60628870Y-62326345D01*
X60743241Y-62101879D01*
X60821090Y-61862285D01*
X60860500Y-61613462D01*
X60860500Y-61361538D01*
X60821090Y-61112715D01*
X60743241Y-60873121D01*
X60743238Y-60873117D01*
X60743238Y-60873114D01*
X60734312Y-60855596D01*
X60721415Y-60786927D01*
X60747691Y-60722186D01*
X60804797Y-60681928D01*
X60844796Y-60675300D01*
X61557253Y-60675300D01*
X61624292Y-60694985D01*
G37*
%TD.AperFunction*%
%TA.AperFunction,NonConductor*%
G36*
X85887237Y-49976296D02*
G01*
X85920210Y-49999894D01*
X89503608Y-53583292D01*
X89503622Y-53583307D01*
X89506733Y-53586418D01*
X89506734Y-53586419D01*
X89651481Y-53731166D01*
X89651484Y-53731168D01*
X89651485Y-53731169D01*
X89791437Y-53832850D01*
X89791438Y-53832850D01*
X89803060Y-53841293D01*
X89817090Y-53851487D01*
X89913133Y-53900423D01*
X89999481Y-53944421D01*
X89999484Y-53944422D01*
X90096824Y-53976049D01*
X90194166Y-54007677D01*
X90396348Y-54039700D01*
X90396349Y-54039700D01*
X97862351Y-54039700D01*
X97862352Y-54039700D01*
X97991900Y-54019181D01*
X98061192Y-54028135D01*
X98114644Y-54073131D01*
X98135284Y-54139883D01*
X98116559Y-54207197D01*
X98098978Y-54229335D01*
X92777632Y-59550681D01*
X92716309Y-59584166D01*
X92689951Y-59587000D01*
X91778395Y-59587000D01*
X91624067Y-59602199D01*
X91426042Y-59662269D01*
X91243545Y-59759817D01*
X91083589Y-59891089D01*
X90952317Y-60051045D01*
X90854769Y-60233542D01*
X90794699Y-60431566D01*
X90779500Y-60585894D01*
X90779500Y-62389104D01*
X90788713Y-62482647D01*
X90775693Y-62551293D01*
X90727628Y-62602003D01*
X90665310Y-62618800D01*
X81318652Y-62618800D01*
X81113948Y-62618800D01*
X81075744Y-62624851D01*
X80911763Y-62650823D01*
X80814423Y-62682450D01*
X80814423Y-62682451D01*
X80763785Y-62698904D01*
X80717077Y-62714081D01*
X80668061Y-62739057D01*
X80534688Y-62807013D01*
X80369078Y-62927336D01*
X72076336Y-71220078D01*
X71956011Y-71385690D01*
X71934105Y-71428687D01*
X71934104Y-71428689D01*
X71863081Y-71568076D01*
X71856909Y-71587074D01*
X71849108Y-71611082D01*
X71836109Y-71651089D01*
X71799822Y-71762767D01*
X71799822Y-71762768D01*
X71788348Y-71835213D01*
X71767800Y-71964948D01*
X71767800Y-73789565D01*
X71758915Y-73819821D01*
X71751775Y-73850535D01*
X71749147Y-73853089D01*
X71748115Y-73856604D01*
X71724286Y-73877251D01*
X71701671Y-73899232D01*
X71698079Y-73899959D01*
X71695311Y-73902359D01*
X71664103Y-73906846D01*
X71633194Y-73913111D01*
X71629779Y-73911781D01*
X71626153Y-73912303D01*
X71597468Y-73899203D01*
X71568084Y-73887764D01*
X71564623Y-73884203D01*
X71562597Y-73883278D01*
X71543485Y-73862455D01*
X71539234Y-73856604D01*
X71538225Y-73855215D01*
X71446366Y-73728781D01*
X71301619Y-73584034D01*
X71301618Y-73584033D01*
X71298507Y-73580922D01*
X71298492Y-73580908D01*
X69968391Y-72250807D01*
X69938919Y-72196834D01*
X69937068Y-72197396D01*
X69935300Y-72191568D01*
X69935300Y-72191566D01*
X69875232Y-71993546D01*
X69777685Y-71811050D01*
X69681489Y-71693834D01*
X69646410Y-71651089D01*
X69486452Y-71519817D01*
X69486453Y-71519817D01*
X69486450Y-71519815D01*
X69303954Y-71422268D01*
X69105934Y-71362200D01*
X69105932Y-71362199D01*
X69105934Y-71362199D01*
X68986805Y-71350466D01*
X68951608Y-71347000D01*
X66948392Y-71347000D01*
X66866487Y-71355066D01*
X66810654Y-71360566D01*
X66742008Y-71347547D01*
X66691298Y-71299482D01*
X66674500Y-71237163D01*
X66674500Y-65061000D01*
X66694185Y-64993961D01*
X66746989Y-64948206D01*
X66798500Y-64937000D01*
X72213351Y-64937000D01*
X72213352Y-64937000D01*
X72415535Y-64904977D01*
X72512876Y-64873348D01*
X72610219Y-64841720D01*
X72732172Y-64779582D01*
X72792611Y-64748787D01*
X72958219Y-64628466D01*
X74491410Y-63095273D01*
X74552731Y-63061790D01*
X74559645Y-63060490D01*
X74634785Y-63048590D01*
X74874379Y-62970741D01*
X75098845Y-62856370D01*
X75302656Y-62708293D01*
X75480793Y-62530156D01*
X75628870Y-62326345D01*
X75743241Y-62101879D01*
X75821090Y-61862285D01*
X75860500Y-61613462D01*
X75860500Y-61361538D01*
X75821090Y-61112715D01*
X75743241Y-60873121D01*
X75743239Y-60873118D01*
X75743239Y-60873116D01*
X75679381Y-60747789D01*
X75628870Y-60648655D01*
X75583272Y-60585894D01*
X75480798Y-60444850D01*
X75480794Y-60444845D01*
X75302653Y-60266704D01*
X75302649Y-60266701D01*
X75098848Y-60118632D01*
X75098847Y-60118631D01*
X75098845Y-60118630D01*
X74975075Y-60055566D01*
X74874383Y-60004260D01*
X74634785Y-59926410D01*
X74634779Y-59926409D01*
X74385962Y-59887000D01*
X74134038Y-59887000D01*
X74027330Y-59903901D01*
X73885214Y-59926410D01*
X73645616Y-60004260D01*
X73421151Y-60118632D01*
X73217350Y-60266701D01*
X73217347Y-60266704D01*
X73039205Y-60444845D01*
X73039201Y-60444850D01*
X72891132Y-60648651D01*
X72776760Y-60873118D01*
X72698909Y-61112717D01*
X72687015Y-61187809D01*
X72657085Y-61250943D01*
X72652223Y-61256090D01*
X71608634Y-62299681D01*
X71547311Y-62333166D01*
X71520953Y-62336000D01*
X70826300Y-62336000D01*
X70759261Y-62316315D01*
X70713506Y-62263511D01*
X70703562Y-62194353D01*
X70715816Y-62155705D01*
X70743237Y-62101888D01*
X70743239Y-62101883D01*
X70743241Y-62101879D01*
X70821090Y-61862285D01*
X70860500Y-61613462D01*
X70860500Y-61361538D01*
X70821090Y-61112715D01*
X70743241Y-60873121D01*
X70743239Y-60873118D01*
X70743239Y-60873116D01*
X70679381Y-60747789D01*
X70628870Y-60648655D01*
X70583272Y-60585894D01*
X70480798Y-60444850D01*
X70480794Y-60444845D01*
X70302653Y-60266704D01*
X70302649Y-60266701D01*
X70098848Y-60118632D01*
X70098847Y-60118631D01*
X70098845Y-60118630D01*
X69874379Y-60004259D01*
X69634785Y-59926410D01*
X69634783Y-59926409D01*
X69559689Y-59914515D01*
X69496554Y-59884585D01*
X69491407Y-59879723D01*
X66853166Y-57241481D01*
X66819681Y-57180158D01*
X66824665Y-57110466D01*
X66866537Y-57054533D01*
X66932001Y-57030116D01*
X66940847Y-57029800D01*
X76017951Y-57029800D01*
X76017952Y-57029800D01*
X76220135Y-56997777D01*
X76317476Y-56966148D01*
X76414819Y-56934520D01*
X76561118Y-56859977D01*
X76597211Y-56841587D01*
X76762819Y-56721266D01*
X82600150Y-50883932D01*
X82600157Y-50883927D01*
X82607217Y-50876867D01*
X82607219Y-50876866D01*
X82751966Y-50732119D01*
X82751968Y-50732115D01*
X82751971Y-50732113D01*
X82872286Y-50566511D01*
X82898911Y-50514259D01*
X82915811Y-50481089D01*
X82925975Y-50464502D01*
X82929678Y-50459404D01*
X82985004Y-50416737D01*
X83054617Y-50410753D01*
X83116414Y-50443356D01*
X83130318Y-50459401D01*
X83140223Y-50473035D01*
X83309462Y-50642274D01*
X83309467Y-50642278D01*
X83478347Y-50764976D01*
X83503084Y-50782948D01*
X83638961Y-50852181D01*
X83716325Y-50891601D01*
X83716327Y-50891601D01*
X83716330Y-50891603D01*
X83943949Y-50965561D01*
X84065735Y-50984849D01*
X84180329Y-51003000D01*
X84180334Y-51003000D01*
X84419671Y-51003000D01*
X84524135Y-50986453D01*
X84656051Y-50965561D01*
X84883670Y-50891603D01*
X85096916Y-50782948D01*
X85290539Y-50642273D01*
X85459773Y-50473039D01*
X85600448Y-50279416D01*
X85709103Y-50066170D01*
X85714597Y-50049259D01*
X85754033Y-49991584D01*
X85818390Y-49964384D01*
X85887237Y-49976296D01*
G37*
%TD.AperFunction*%
%TA.AperFunction,NonConductor*%
G36*
X45228692Y-71576485D02*
G01*
X45274447Y-71629289D01*
X45284391Y-71698447D01*
X45255366Y-71762003D01*
X45249334Y-71768481D01*
X42406236Y-74611578D01*
X42285913Y-74777188D01*
X42251678Y-74844379D01*
X42192981Y-74959576D01*
X42184418Y-74985932D01*
X42175924Y-75012073D01*
X42129723Y-75154265D01*
X42108738Y-75286759D01*
X42105620Y-75306448D01*
X42097700Y-75356449D01*
X42097700Y-75834752D01*
X42078015Y-75901791D01*
X42061381Y-75922433D01*
X41705258Y-76278556D01*
X41643935Y-76312041D01*
X41574243Y-76307057D01*
X41518310Y-76265185D01*
X41499646Y-76229194D01*
X41499440Y-76228560D01*
X41475741Y-76155621D01*
X41475739Y-76155618D01*
X41475739Y-76155616D01*
X41418336Y-76042958D01*
X41361370Y-75931155D01*
X41284769Y-75825722D01*
X41218796Y-75734918D01*
X41195316Y-75669112D01*
X41211141Y-75601058D01*
X41240448Y-75566181D01*
X41288910Y-75526410D01*
X41420185Y-75366450D01*
X41517732Y-75183954D01*
X41577800Y-74985934D01*
X41593000Y-74831608D01*
X41593000Y-73628392D01*
X41577800Y-73474066D01*
X41569946Y-73448176D01*
X41531758Y-73322285D01*
X41517732Y-73276046D01*
X41420185Y-73093550D01*
X41354060Y-73012976D01*
X41288910Y-72933589D01*
X41128952Y-72802317D01*
X41128953Y-72802317D01*
X41128950Y-72802315D01*
X40946454Y-72704768D01*
X40748434Y-72644700D01*
X40748432Y-72644699D01*
X40748434Y-72644699D01*
X40629305Y-72632966D01*
X40594108Y-72629500D01*
X39390892Y-72629500D01*
X39360617Y-72632481D01*
X39249453Y-72643430D01*
X39180807Y-72630411D01*
X39130097Y-72582346D01*
X39113300Y-72520027D01*
X39113300Y-71680800D01*
X39132985Y-71613761D01*
X39185789Y-71568006D01*
X39237300Y-71556800D01*
X45161653Y-71556800D01*
X45228692Y-71576485D01*
G37*
%TD.AperFunction*%
%TA.AperFunction,NonConductor*%
G36*
X64944541Y-76691245D02*
G01*
X64949081Y-76692720D01*
X64997010Y-76708293D01*
X65143765Y-76755977D01*
X65345948Y-76788000D01*
X65550652Y-76788000D01*
X66228858Y-76788000D01*
X66295897Y-76807685D01*
X66341652Y-76860489D01*
X66351596Y-76929647D01*
X66329176Y-76984885D01*
X66181132Y-77188651D01*
X66066760Y-77413116D01*
X65988910Y-77652713D01*
X65970304Y-77770183D01*
X65940374Y-77833317D01*
X65881062Y-77870248D01*
X65811200Y-77869250D01*
X65760150Y-77838465D01*
X64818542Y-76896857D01*
X64785057Y-76835534D01*
X64790041Y-76765842D01*
X64831913Y-76709909D01*
X64897377Y-76685492D01*
X64944541Y-76691245D01*
G37*
%TD.AperFunction*%
%TA.AperFunction,NonConductor*%
G36*
X97731893Y-93481844D02*
G01*
X97761880Y-93488368D01*
X97766895Y-93492122D01*
X97769492Y-93492885D01*
X97790134Y-93509519D01*
X97955934Y-93675319D01*
X97989419Y-93736642D01*
X97984435Y-93806334D01*
X97942563Y-93862267D01*
X97877099Y-93886684D01*
X97868253Y-93887000D01*
X97505692Y-93887000D01*
X97467598Y-93890751D01*
X97351367Y-93902199D01*
X97153343Y-93962269D01*
X96970846Y-94059817D01*
X96850171Y-94158853D01*
X96785861Y-94186166D01*
X96771506Y-94187000D01*
X90418827Y-94187000D01*
X90351788Y-94167315D01*
X90313833Y-94128972D01*
X90224186Y-93986300D01*
X90147577Y-93864377D01*
X89996164Y-93674512D01*
X89969757Y-93609826D01*
X89982513Y-93541131D01*
X90030383Y-93490237D01*
X90093112Y-93473200D01*
X97702453Y-93473200D01*
X97731893Y-93481844D01*
G37*
%TD.AperFunction*%
%TA.AperFunction,NonConductor*%
G36*
X64016539Y-73430485D02*
G01*
X64062294Y-73483289D01*
X64073500Y-73534800D01*
X64073500Y-75310848D01*
X64073500Y-75515552D01*
X64081294Y-75564762D01*
X64105522Y-75717731D01*
X64105522Y-75717732D01*
X64129665Y-75792036D01*
X64170255Y-75916959D01*
X64172250Y-75986800D01*
X64136170Y-76046633D01*
X64073469Y-76077461D01*
X64004055Y-76069496D01*
X63964643Y-76042958D01*
X63177775Y-75256090D01*
X63144290Y-75194767D01*
X63142983Y-75187806D01*
X63131090Y-75112714D01*
X63089896Y-74985932D01*
X63053241Y-74873121D01*
X63053239Y-74873118D01*
X63053239Y-74873116D01*
X62990278Y-74749549D01*
X62938870Y-74648655D01*
X62865148Y-74547185D01*
X62790798Y-74444850D01*
X62790794Y-74444845D01*
X62612654Y-74266705D01*
X62612649Y-74266701D01*
X62408848Y-74118632D01*
X62408847Y-74118631D01*
X62408845Y-74118630D01*
X62326714Y-74076782D01*
X62184383Y-74004260D01*
X61944785Y-73926410D01*
X61860819Y-73913111D01*
X61695962Y-73887000D01*
X61444038Y-73887000D01*
X61397380Y-73894390D01*
X61195214Y-73926410D01*
X60955616Y-74004260D01*
X60731151Y-74118632D01*
X60527350Y-74266701D01*
X60527345Y-74266705D01*
X60349205Y-74444845D01*
X60349201Y-74444850D01*
X60201132Y-74648651D01*
X60086760Y-74873116D01*
X60010617Y-75107460D01*
X60008910Y-75112715D01*
X59969500Y-75361538D01*
X59969500Y-75613462D01*
X59988737Y-75734918D01*
X60008910Y-75862285D01*
X60086760Y-76101883D01*
X60151305Y-76228558D01*
X60191302Y-76307057D01*
X60201132Y-76326348D01*
X60349201Y-76530149D01*
X60349205Y-76530154D01*
X60527344Y-76708293D01*
X60527350Y-76708298D01*
X60669647Y-76811682D01*
X60731155Y-76856370D01*
X60863916Y-76924015D01*
X60955616Y-76970739D01*
X60955618Y-76970739D01*
X60955621Y-76970741D01*
X60999152Y-76984885D01*
X61195214Y-77048590D01*
X61234439Y-77054802D01*
X61270306Y-77060483D01*
X61333441Y-77090412D01*
X61338590Y-77095275D01*
X65383981Y-81140666D01*
X65549589Y-81260987D01*
X65640785Y-81307453D01*
X65731981Y-81353920D01*
X65742224Y-81357248D01*
X65926665Y-81417177D01*
X66128848Y-81449200D01*
X66128849Y-81449200D01*
X69314151Y-81449200D01*
X69314152Y-81449200D01*
X69516335Y-81417177D01*
X69700776Y-81357248D01*
X69711019Y-81353920D01*
X69802214Y-81307453D01*
X69893411Y-81260987D01*
X70059019Y-81140666D01*
X71294550Y-79905132D01*
X71294557Y-79905127D01*
X71301617Y-79898067D01*
X71301619Y-79898066D01*
X71446366Y-79753319D01*
X71446368Y-79753315D01*
X71446371Y-79753313D01*
X71537415Y-79628000D01*
X71566687Y-79587710D01*
X71657414Y-79409648D01*
X71659319Y-79406245D01*
X71659620Y-79405319D01*
X71659621Y-79405318D01*
X71722877Y-79210634D01*
X71745127Y-79070156D01*
X71754900Y-79008452D01*
X71754900Y-78813935D01*
X71774585Y-78746896D01*
X71827389Y-78701141D01*
X71896547Y-78691197D01*
X71960103Y-78720222D01*
X71979219Y-78741050D01*
X72076334Y-78874719D01*
X72221086Y-79019471D01*
X72376049Y-79132056D01*
X72386690Y-79139787D01*
X72502907Y-79199003D01*
X72569076Y-79232718D01*
X72569078Y-79232718D01*
X72569081Y-79232720D01*
X72617010Y-79248293D01*
X72763765Y-79295977D01*
X72864857Y-79311988D01*
X72965948Y-79328000D01*
X73170652Y-79328000D01*
X74196762Y-79328000D01*
X74263801Y-79347685D01*
X74269637Y-79351675D01*
X74331155Y-79396370D01*
X74437206Y-79450405D01*
X74555616Y-79510739D01*
X74555618Y-79510739D01*
X74555621Y-79510741D01*
X74795215Y-79588590D01*
X75044038Y-79628000D01*
X75044039Y-79628000D01*
X76095961Y-79628000D01*
X76095962Y-79628000D01*
X76344785Y-79588590D01*
X76584379Y-79510741D01*
X76808845Y-79396370D01*
X76870353Y-79351681D01*
X76936158Y-79328202D01*
X76943238Y-79328000D01*
X79512351Y-79328000D01*
X79512352Y-79328000D01*
X79714535Y-79295977D01*
X79861290Y-79248293D01*
X79909219Y-79232720D01*
X80058350Y-79156734D01*
X80091611Y-79139787D01*
X80257219Y-79019466D01*
X82181410Y-77095273D01*
X82242731Y-77061790D01*
X82249645Y-77060490D01*
X82324785Y-77048590D01*
X82564379Y-76970741D01*
X82788845Y-76856370D01*
X82992656Y-76708293D01*
X83170793Y-76530156D01*
X83318870Y-76326345D01*
X83433241Y-76101879D01*
X83511090Y-75862285D01*
X83550500Y-75613462D01*
X83550500Y-75361538D01*
X83511090Y-75112715D01*
X83433241Y-74873121D01*
X83433239Y-74873118D01*
X83433239Y-74873116D01*
X83370278Y-74749549D01*
X83318870Y-74648655D01*
X83245148Y-74547185D01*
X83170798Y-74444850D01*
X83170794Y-74444845D01*
X82992654Y-74266705D01*
X82992649Y-74266701D01*
X82915457Y-74210618D01*
X82872791Y-74155289D01*
X82866812Y-74085675D01*
X82899417Y-74023880D01*
X82960256Y-73989523D01*
X82988342Y-73986300D01*
X88531658Y-73986300D01*
X88598697Y-74005985D01*
X88644452Y-74058789D01*
X88654396Y-74127947D01*
X88625371Y-74191503D01*
X88604543Y-74210618D01*
X88527350Y-74266701D01*
X88527345Y-74266705D01*
X88349205Y-74444845D01*
X88349201Y-74444850D01*
X88201132Y-74648651D01*
X88086760Y-74873118D01*
X88008909Y-75112717D01*
X87997015Y-75187809D01*
X87967085Y-75250943D01*
X87962223Y-75256090D01*
X69067634Y-94150681D01*
X69006311Y-94184166D01*
X68979953Y-94187000D01*
X62218827Y-94187000D01*
X62151788Y-94167315D01*
X62113833Y-94128972D01*
X62024186Y-93986300D01*
X61947577Y-93864377D01*
X61751461Y-93618456D01*
X61529044Y-93396039D01*
X61283123Y-93199923D01*
X61016789Y-93032574D01*
X61016786Y-93032572D01*
X60733395Y-92896098D01*
X60436501Y-92792211D01*
X60436499Y-92792210D01*
X60129843Y-92722218D01*
X60129827Y-92722216D01*
X59817277Y-92687000D01*
X59817273Y-92687000D01*
X59502727Y-92687000D01*
X59502722Y-92687000D01*
X59190172Y-92722216D01*
X59190156Y-92722218D01*
X58883500Y-92792210D01*
X58883498Y-92792211D01*
X58586604Y-92896098D01*
X58303213Y-93032572D01*
X58036878Y-93199922D01*
X57790956Y-93396038D01*
X57568538Y-93618456D01*
X57372422Y-93864378D01*
X57205072Y-94130713D01*
X57068598Y-94414104D01*
X56964711Y-94710998D01*
X56964710Y-94711000D01*
X56894718Y-95017656D01*
X56894716Y-95017672D01*
X56866062Y-95271979D01*
X56838995Y-95336393D01*
X56781400Y-95375948D01*
X56711563Y-95378085D01*
X56655161Y-95345776D01*
X42266619Y-80957234D01*
X42233134Y-80895911D01*
X42230300Y-80869553D01*
X42230300Y-79483245D01*
X42249985Y-79416206D01*
X42266614Y-79395569D01*
X44238350Y-77423832D01*
X44238357Y-77423827D01*
X44245417Y-77416767D01*
X44245419Y-77416766D01*
X44390166Y-77272019D01*
X44390168Y-77272015D01*
X44390171Y-77272013D01*
X44466645Y-77166754D01*
X44510487Y-77106410D01*
X44535645Y-77057035D01*
X44603421Y-76924018D01*
X44666677Y-76729334D01*
X44687154Y-76600047D01*
X44698700Y-76527152D01*
X44698700Y-76048846D01*
X44718385Y-75981807D01*
X44735014Y-75961170D01*
X45918135Y-74778048D01*
X45979456Y-74744565D01*
X46049148Y-74749549D01*
X46105081Y-74791421D01*
X46123744Y-74827409D01*
X46129257Y-74844376D01*
X46243632Y-75068848D01*
X46391701Y-75272649D01*
X46391705Y-75272654D01*
X46531370Y-75412319D01*
X46564855Y-75473642D01*
X46559871Y-75543334D01*
X46531370Y-75587681D01*
X46391705Y-75727345D01*
X46391701Y-75727350D01*
X46243632Y-75931151D01*
X46129260Y-76155616D01*
X46051410Y-76395214D01*
X46021946Y-76581240D01*
X46012000Y-76644038D01*
X46012000Y-76895962D01*
X46033214Y-77029898D01*
X46051410Y-77144785D01*
X46129260Y-77384383D01*
X46243632Y-77608848D01*
X46391701Y-77812649D01*
X46391705Y-77812654D01*
X46569845Y-77990794D01*
X46569850Y-77990798D01*
X46747617Y-78119952D01*
X46773655Y-78138870D01*
X46916684Y-78211747D01*
X46998116Y-78253239D01*
X46998118Y-78253239D01*
X46998121Y-78253241D01*
X47237715Y-78331090D01*
X47486538Y-78370500D01*
X47486539Y-78370500D01*
X47738461Y-78370500D01*
X47738462Y-78370500D01*
X47987285Y-78331090D01*
X48226879Y-78253241D01*
X48451345Y-78138870D01*
X48655156Y-77990793D01*
X48833293Y-77812656D01*
X48981370Y-77608845D01*
X49095741Y-77384379D01*
X49173590Y-77144785D01*
X49185484Y-77069687D01*
X49215411Y-77006557D01*
X49220238Y-77001445D01*
X49397367Y-76824316D01*
X49458690Y-76790834D01*
X49485047Y-76788000D01*
X52976762Y-76788000D01*
X53043801Y-76807685D01*
X53049637Y-76811675D01*
X53111155Y-76856370D01*
X53217206Y-76910405D01*
X53335616Y-76970739D01*
X53335618Y-76970739D01*
X53335621Y-76970741D01*
X53575215Y-77048590D01*
X53824038Y-77088000D01*
X53824039Y-77088000D01*
X54075961Y-77088000D01*
X54075962Y-77088000D01*
X54324785Y-77048590D01*
X54564379Y-76970741D01*
X54788845Y-76856370D01*
X54992656Y-76708293D01*
X55170793Y-76530156D01*
X55318870Y-76326345D01*
X55433241Y-76101879D01*
X55511090Y-75862285D01*
X55550500Y-75613462D01*
X55550500Y-75361538D01*
X55511090Y-75112715D01*
X55433241Y-74873121D01*
X55433239Y-74873118D01*
X55433239Y-74873116D01*
X55370278Y-74749549D01*
X55318870Y-74648655D01*
X55245148Y-74547185D01*
X55170798Y-74444850D01*
X55170794Y-74444845D01*
X54992654Y-74266705D01*
X54992649Y-74266701D01*
X54788848Y-74118632D01*
X54788847Y-74118631D01*
X54788845Y-74118630D01*
X54706714Y-74076782D01*
X54564383Y-74004260D01*
X54324785Y-73926410D01*
X54240819Y-73913111D01*
X54075962Y-73887000D01*
X53824038Y-73887000D01*
X53777380Y-73894390D01*
X53575214Y-73926410D01*
X53335616Y-74004260D01*
X53111154Y-74118630D01*
X53098331Y-74127947D01*
X53049646Y-74163318D01*
X52983842Y-74186798D01*
X52976762Y-74187000D01*
X49460046Y-74187000D01*
X49430605Y-74178355D01*
X49400619Y-74171832D01*
X49395603Y-74168077D01*
X49393007Y-74167315D01*
X49372370Y-74150685D01*
X49220272Y-73998588D01*
X49186790Y-73937267D01*
X49185483Y-73930306D01*
X49173590Y-73855214D01*
X49151213Y-73786345D01*
X49095741Y-73615621D01*
X49090257Y-73604858D01*
X49083244Y-73591093D01*
X49070349Y-73522424D01*
X49096626Y-73457684D01*
X49153733Y-73417428D01*
X49193730Y-73410800D01*
X63949500Y-73410800D01*
X64016539Y-73430485D01*
G37*
%TD.AperFunction*%
%TA.AperFunction,NonConductor*%
G36*
X110725703Y-74752834D02*
G01*
X110732181Y-74758866D01*
X110992386Y-75019071D01*
X111025871Y-75080394D01*
X111027644Y-75122937D01*
X110999501Y-75336706D01*
X110999500Y-75336723D01*
X110999500Y-75638276D01*
X110999501Y-75638293D01*
X111038861Y-75937266D01*
X111116913Y-76228560D01*
X111232314Y-76507161D01*
X111232318Y-76507171D01*
X111383099Y-76768331D01*
X111566679Y-77007578D01*
X111566685Y-77007585D01*
X111779914Y-77220814D01*
X111779921Y-77220820D01*
X112019168Y-77404400D01*
X112280328Y-77555181D01*
X112280329Y-77555181D01*
X112280332Y-77555183D01*
X112430902Y-77617551D01*
X112558939Y-77670586D01*
X112558940Y-77670586D01*
X112558942Y-77670587D01*
X112850232Y-77748638D01*
X113149217Y-77788000D01*
X113149224Y-77788000D01*
X113450776Y-77788000D01*
X113450783Y-77788000D01*
X113749768Y-77748638D01*
X114041058Y-77670587D01*
X114319668Y-77555183D01*
X114580832Y-77404400D01*
X114604712Y-77386076D01*
X114616113Y-77377328D01*
X114681282Y-77352133D01*
X114749727Y-77366171D01*
X114799717Y-77414985D01*
X114815600Y-77475703D01*
X114815600Y-86477953D01*
X114795915Y-86544992D01*
X114779281Y-86565634D01*
X109995934Y-91348981D01*
X109934611Y-91382466D01*
X109908253Y-91385300D01*
X104511351Y-91385300D01*
X104306648Y-91385300D01*
X104239253Y-91395974D01*
X104104463Y-91417323D01*
X104007123Y-91448950D01*
X104007123Y-91448951D01*
X103954352Y-91466097D01*
X103909774Y-91480582D01*
X103818584Y-91527045D01*
X103818585Y-91527046D01*
X103727388Y-91573513D01*
X103561778Y-91693836D01*
X101698584Y-93557029D01*
X101696119Y-93559427D01*
X101693802Y-93561618D01*
X101693781Y-93561634D01*
X101693692Y-93561722D01*
X101692415Y-93562931D01*
X101691770Y-93563260D01*
X101691505Y-93563578D01*
X101690129Y-93564755D01*
X101689737Y-93564297D01*
X101662757Y-93578073D01*
X101633531Y-93594024D01*
X101631764Y-93593897D01*
X101630186Y-93594703D01*
X101597043Y-93591406D01*
X101563840Y-93589024D01*
X101562145Y-93587934D01*
X101560660Y-93587787D01*
X101555277Y-93583520D01*
X101519518Y-93560533D01*
X99139721Y-91180736D01*
X99139719Y-91180734D01*
X98974111Y-91060413D01*
X98882914Y-91013946D01*
X98791723Y-90967481D01*
X98745015Y-90952304D01*
X98694376Y-90935851D01*
X98670503Y-90928094D01*
X98597035Y-90904222D01*
X98422495Y-90876578D01*
X98394852Y-90872200D01*
X79257348Y-90872200D01*
X79189954Y-90882874D01*
X79055164Y-90904223D01*
X78860484Y-90967477D01*
X78860481Y-90967478D01*
X78678086Y-91060415D01*
X78512486Y-91180728D01*
X78512482Y-91180732D01*
X72233334Y-97459881D01*
X72172011Y-97493366D01*
X72145653Y-97496200D01*
X61897578Y-97496200D01*
X61830539Y-97476515D01*
X61784784Y-97423711D01*
X61774840Y-97354553D01*
X61800631Y-97294887D01*
X61804766Y-97289701D01*
X61947577Y-97110623D01*
X62113833Y-96846027D01*
X62166168Y-96799737D01*
X62218827Y-96788000D01*
X69672351Y-96788000D01*
X69672352Y-96788000D01*
X69874535Y-96755977D01*
X70021290Y-96708293D01*
X70069219Y-96692720D01*
X70204188Y-96623950D01*
X70251611Y-96599787D01*
X70417219Y-96479466D01*
X89801410Y-77095273D01*
X89862731Y-77061790D01*
X89869645Y-77060490D01*
X89944785Y-77048590D01*
X90184379Y-76970741D01*
X90408845Y-76856370D01*
X90470353Y-76811681D01*
X90536158Y-76788202D01*
X90543238Y-76788000D01*
X105315948Y-76788000D01*
X105795500Y-76788000D01*
X105862539Y-76807685D01*
X105908294Y-76860489D01*
X105919500Y-76912000D01*
X105919500Y-77032460D01*
X105934630Y-77166749D01*
X105934631Y-77166754D01*
X105994211Y-77337023D01*
X106048754Y-77423827D01*
X106090184Y-77489762D01*
X106217738Y-77617316D01*
X106370478Y-77713289D01*
X106471500Y-77748638D01*
X106540745Y-77772868D01*
X106540750Y-77772869D01*
X106631246Y-77783065D01*
X106675040Y-77787999D01*
X106675043Y-77788000D01*
X106675046Y-77788000D01*
X109764957Y-77788000D01*
X109764958Y-77787999D01*
X109832104Y-77780434D01*
X109899249Y-77772869D01*
X109899252Y-77772868D01*
X109899255Y-77772868D01*
X110069522Y-77713289D01*
X110222262Y-77617316D01*
X110349816Y-77489762D01*
X110445789Y-77337022D01*
X110505368Y-77166755D01*
X110507844Y-77144785D01*
X110513970Y-77090412D01*
X110520500Y-77032454D01*
X110520500Y-74846547D01*
X110540185Y-74779508D01*
X110592989Y-74733753D01*
X110662147Y-74723809D01*
X110725703Y-74752834D01*
G37*
%TD.AperFunction*%
M02*
