%TF.GenerationSoftware,KiCad,Pcbnew,9.0.4*%
%TF.CreationDate,2026-06-11T16:18:43+02:00*%
%TF.ProjectId,buck_v2,6275636b-5f76-4322-9e6b-696361645f70,rev?*%
%TF.SameCoordinates,Original*%
%TF.FileFunction,AssemblyDrawing,Top*%
%FSLAX46Y46*%
G04 Gerber Fmt 4.6, Leading zero omitted, Abs format (unit mm)*
G04 Created by KiCad (PCBNEW 9.0.4) date 2026-06-11 16:18:43*
%MOMM*%
%LPD*%
G01*
G04 APERTURE LIST*
%ADD10C,0.150000*%
%ADD11C,0.120000*%
%ADD12C,0.100000*%
G04 APERTURE END LIST*
D10*
X80593333Y-52702557D02*
X80640952Y-52654938D01*
X80640952Y-52654938D02*
X80736190Y-52607319D01*
X80736190Y-52607319D02*
X80974285Y-52607319D01*
X80974285Y-52607319D02*
X81069523Y-52654938D01*
X81069523Y-52654938D02*
X81117142Y-52702557D01*
X81117142Y-52702557D02*
X81164761Y-52797795D01*
X81164761Y-52797795D02*
X81164761Y-52893033D01*
X81164761Y-52893033D02*
X81117142Y-53035890D01*
X81117142Y-53035890D02*
X80545714Y-53607319D01*
X80545714Y-53607319D02*
X81164761Y-53607319D01*
X81783809Y-52607319D02*
X81879047Y-52607319D01*
X81879047Y-52607319D02*
X81974285Y-52654938D01*
X81974285Y-52654938D02*
X82021904Y-52702557D01*
X82021904Y-52702557D02*
X82069523Y-52797795D01*
X82069523Y-52797795D02*
X82117142Y-52988271D01*
X82117142Y-52988271D02*
X82117142Y-53226366D01*
X82117142Y-53226366D02*
X82069523Y-53416842D01*
X82069523Y-53416842D02*
X82021904Y-53512080D01*
X82021904Y-53512080D02*
X81974285Y-53559700D01*
X81974285Y-53559700D02*
X81879047Y-53607319D01*
X81879047Y-53607319D02*
X81783809Y-53607319D01*
X81783809Y-53607319D02*
X81688571Y-53559700D01*
X81688571Y-53559700D02*
X81640952Y-53512080D01*
X81640952Y-53512080D02*
X81593333Y-53416842D01*
X81593333Y-53416842D02*
X81545714Y-53226366D01*
X81545714Y-53226366D02*
X81545714Y-52988271D01*
X81545714Y-52988271D02*
X81593333Y-52797795D01*
X81593333Y-52797795D02*
X81640952Y-52702557D01*
X81640952Y-52702557D02*
X81688571Y-52654938D01*
X81688571Y-52654938D02*
X81783809Y-52607319D01*
X82545714Y-53607319D02*
X82545714Y-52607319D01*
X82640952Y-53226366D02*
X82926666Y-53607319D01*
X82926666Y-52940652D02*
X82545714Y-53321604D01*
X80529761Y-49942319D02*
X80196428Y-49466128D01*
X79958333Y-49942319D02*
X79958333Y-48942319D01*
X79958333Y-48942319D02*
X80339285Y-48942319D01*
X80339285Y-48942319D02*
X80434523Y-48989938D01*
X80434523Y-48989938D02*
X80482142Y-49037557D01*
X80482142Y-49037557D02*
X80529761Y-49132795D01*
X80529761Y-49132795D02*
X80529761Y-49275652D01*
X80529761Y-49275652D02*
X80482142Y-49370890D01*
X80482142Y-49370890D02*
X80434523Y-49418509D01*
X80434523Y-49418509D02*
X80339285Y-49466128D01*
X80339285Y-49466128D02*
X79958333Y-49466128D01*
X80815476Y-48942319D02*
X81148809Y-49942319D01*
X81148809Y-49942319D02*
X81482142Y-48942319D01*
X82339285Y-49942319D02*
X81767857Y-49942319D01*
X82053571Y-49942319D02*
X82053571Y-48942319D01*
X82053571Y-48942319D02*
X81958333Y-49085176D01*
X81958333Y-49085176D02*
X81863095Y-49180414D01*
X81863095Y-49180414D02*
X81767857Y-49228033D01*
X70640952Y-64442319D02*
X70069524Y-64442319D01*
X70355238Y-64442319D02*
X70355238Y-63442319D01*
X70355238Y-63442319D02*
X70260000Y-63585176D01*
X70260000Y-63585176D02*
X70164762Y-63680414D01*
X70164762Y-63680414D02*
X70069524Y-63728033D01*
X71260000Y-63442319D02*
X71355238Y-63442319D01*
X71355238Y-63442319D02*
X71450476Y-63489938D01*
X71450476Y-63489938D02*
X71498095Y-63537557D01*
X71498095Y-63537557D02*
X71545714Y-63632795D01*
X71545714Y-63632795D02*
X71593333Y-63823271D01*
X71593333Y-63823271D02*
X71593333Y-64061366D01*
X71593333Y-64061366D02*
X71545714Y-64251842D01*
X71545714Y-64251842D02*
X71498095Y-64347080D01*
X71498095Y-64347080D02*
X71450476Y-64394700D01*
X71450476Y-64394700D02*
X71355238Y-64442319D01*
X71355238Y-64442319D02*
X71260000Y-64442319D01*
X71260000Y-64442319D02*
X71164762Y-64394700D01*
X71164762Y-64394700D02*
X71117143Y-64347080D01*
X71117143Y-64347080D02*
X71069524Y-64251842D01*
X71069524Y-64251842D02*
X71021905Y-64061366D01*
X71021905Y-64061366D02*
X71021905Y-63823271D01*
X71021905Y-63823271D02*
X71069524Y-63632795D01*
X71069524Y-63632795D02*
X71117143Y-63537557D01*
X71117143Y-63537557D02*
X71164762Y-63489938D01*
X71164762Y-63489938D02*
X71260000Y-63442319D01*
X72212381Y-63442319D02*
X72307619Y-63442319D01*
X72307619Y-63442319D02*
X72402857Y-63489938D01*
X72402857Y-63489938D02*
X72450476Y-63537557D01*
X72450476Y-63537557D02*
X72498095Y-63632795D01*
X72498095Y-63632795D02*
X72545714Y-63823271D01*
X72545714Y-63823271D02*
X72545714Y-64061366D01*
X72545714Y-64061366D02*
X72498095Y-64251842D01*
X72498095Y-64251842D02*
X72450476Y-64347080D01*
X72450476Y-64347080D02*
X72402857Y-64394700D01*
X72402857Y-64394700D02*
X72307619Y-64442319D01*
X72307619Y-64442319D02*
X72212381Y-64442319D01*
X72212381Y-64442319D02*
X72117143Y-64394700D01*
X72117143Y-64394700D02*
X72069524Y-64347080D01*
X72069524Y-64347080D02*
X72021905Y-64251842D01*
X72021905Y-64251842D02*
X71974286Y-64061366D01*
X71974286Y-64061366D02*
X71974286Y-63823271D01*
X71974286Y-63823271D02*
X72021905Y-63632795D01*
X72021905Y-63632795D02*
X72069524Y-63537557D01*
X72069524Y-63537557D02*
X72117143Y-63489938D01*
X72117143Y-63489938D02*
X72212381Y-63442319D01*
X72974286Y-63775652D02*
X72974286Y-64442319D01*
X72974286Y-63870890D02*
X73021905Y-63823271D01*
X73021905Y-63823271D02*
X73117143Y-63775652D01*
X73117143Y-63775652D02*
X73260000Y-63775652D01*
X73260000Y-63775652D02*
X73355238Y-63823271D01*
X73355238Y-63823271D02*
X73402857Y-63918509D01*
X73402857Y-63918509D02*
X73402857Y-64442319D01*
X71593333Y-61847080D02*
X71545714Y-61894700D01*
X71545714Y-61894700D02*
X71402857Y-61942319D01*
X71402857Y-61942319D02*
X71307619Y-61942319D01*
X71307619Y-61942319D02*
X71164762Y-61894700D01*
X71164762Y-61894700D02*
X71069524Y-61799461D01*
X71069524Y-61799461D02*
X71021905Y-61704223D01*
X71021905Y-61704223D02*
X70974286Y-61513747D01*
X70974286Y-61513747D02*
X70974286Y-61370890D01*
X70974286Y-61370890D02*
X71021905Y-61180414D01*
X71021905Y-61180414D02*
X71069524Y-61085176D01*
X71069524Y-61085176D02*
X71164762Y-60989938D01*
X71164762Y-60989938D02*
X71307619Y-60942319D01*
X71307619Y-60942319D02*
X71402857Y-60942319D01*
X71402857Y-60942319D02*
X71545714Y-60989938D01*
X71545714Y-60989938D02*
X71593333Y-61037557D01*
X72450476Y-60942319D02*
X72260000Y-60942319D01*
X72260000Y-60942319D02*
X72164762Y-60989938D01*
X72164762Y-60989938D02*
X72117143Y-61037557D01*
X72117143Y-61037557D02*
X72021905Y-61180414D01*
X72021905Y-61180414D02*
X71974286Y-61370890D01*
X71974286Y-61370890D02*
X71974286Y-61751842D01*
X71974286Y-61751842D02*
X72021905Y-61847080D01*
X72021905Y-61847080D02*
X72069524Y-61894700D01*
X72069524Y-61894700D02*
X72164762Y-61942319D01*
X72164762Y-61942319D02*
X72355238Y-61942319D01*
X72355238Y-61942319D02*
X72450476Y-61894700D01*
X72450476Y-61894700D02*
X72498095Y-61847080D01*
X72498095Y-61847080D02*
X72545714Y-61751842D01*
X72545714Y-61751842D02*
X72545714Y-61513747D01*
X72545714Y-61513747D02*
X72498095Y-61418509D01*
X72498095Y-61418509D02*
X72450476Y-61370890D01*
X72450476Y-61370890D02*
X72355238Y-61323271D01*
X72355238Y-61323271D02*
X72164762Y-61323271D01*
X72164762Y-61323271D02*
X72069524Y-61370890D01*
X72069524Y-61370890D02*
X72021905Y-61418509D01*
X72021905Y-61418509D02*
X71974286Y-61513747D01*
X41588214Y-80597200D02*
X41731071Y-80644819D01*
X41731071Y-80644819D02*
X41969166Y-80644819D01*
X41969166Y-80644819D02*
X42064404Y-80597200D01*
X42064404Y-80597200D02*
X42112023Y-80549580D01*
X42112023Y-80549580D02*
X42159642Y-80454342D01*
X42159642Y-80454342D02*
X42159642Y-80359104D01*
X42159642Y-80359104D02*
X42112023Y-80263866D01*
X42112023Y-80263866D02*
X42064404Y-80216247D01*
X42064404Y-80216247D02*
X41969166Y-80168628D01*
X41969166Y-80168628D02*
X41778690Y-80121009D01*
X41778690Y-80121009D02*
X41683452Y-80073390D01*
X41683452Y-80073390D02*
X41635833Y-80025771D01*
X41635833Y-80025771D02*
X41588214Y-79930533D01*
X41588214Y-79930533D02*
X41588214Y-79835295D01*
X41588214Y-79835295D02*
X41635833Y-79740057D01*
X41635833Y-79740057D02*
X41683452Y-79692438D01*
X41683452Y-79692438D02*
X41778690Y-79644819D01*
X41778690Y-79644819D02*
X42016785Y-79644819D01*
X42016785Y-79644819D02*
X42159642Y-79692438D01*
X42492976Y-79978152D02*
X42683452Y-80644819D01*
X42683452Y-80644819D02*
X42873928Y-80168628D01*
X42873928Y-80168628D02*
X43064404Y-80644819D01*
X43064404Y-80644819D02*
X43254880Y-79978152D01*
X43635833Y-80644819D02*
X43635833Y-79978152D01*
X43635833Y-79644819D02*
X43588214Y-79692438D01*
X43588214Y-79692438D02*
X43635833Y-79740057D01*
X43635833Y-79740057D02*
X43683452Y-79692438D01*
X43683452Y-79692438D02*
X43635833Y-79644819D01*
X43635833Y-79644819D02*
X43635833Y-79740057D01*
X43969166Y-79978152D02*
X44350118Y-79978152D01*
X44112023Y-79644819D02*
X44112023Y-80501961D01*
X44112023Y-80501961D02*
X44159642Y-80597200D01*
X44159642Y-80597200D02*
X44254880Y-80644819D01*
X44254880Y-80644819D02*
X44350118Y-80644819D01*
X45112023Y-80597200D02*
X45016785Y-80644819D01*
X45016785Y-80644819D02*
X44826309Y-80644819D01*
X44826309Y-80644819D02*
X44731071Y-80597200D01*
X44731071Y-80597200D02*
X44683452Y-80549580D01*
X44683452Y-80549580D02*
X44635833Y-80454342D01*
X44635833Y-80454342D02*
X44635833Y-80168628D01*
X44635833Y-80168628D02*
X44683452Y-80073390D01*
X44683452Y-80073390D02*
X44731071Y-80025771D01*
X44731071Y-80025771D02*
X44826309Y-79978152D01*
X44826309Y-79978152D02*
X45016785Y-79978152D01*
X45016785Y-79978152D02*
X45112023Y-80025771D01*
X45540595Y-80644819D02*
X45540595Y-79644819D01*
X45969166Y-80644819D02*
X45969166Y-80121009D01*
X45969166Y-80121009D02*
X45921547Y-80025771D01*
X45921547Y-80025771D02*
X45826309Y-79978152D01*
X45826309Y-79978152D02*
X45683452Y-79978152D01*
X45683452Y-79978152D02*
X45588214Y-80025771D01*
X45588214Y-80025771D02*
X45540595Y-80073390D01*
D11*
X47588260Y-76566667D02*
X47626355Y-76452381D01*
X47626355Y-76452381D02*
X47626355Y-76261905D01*
X47626355Y-76261905D02*
X47588260Y-76185714D01*
X47588260Y-76185714D02*
X47550164Y-76147619D01*
X47550164Y-76147619D02*
X47473974Y-76109524D01*
X47473974Y-76109524D02*
X47397783Y-76109524D01*
X47397783Y-76109524D02*
X47321593Y-76147619D01*
X47321593Y-76147619D02*
X47283498Y-76185714D01*
X47283498Y-76185714D02*
X47245402Y-76261905D01*
X47245402Y-76261905D02*
X47207307Y-76414286D01*
X47207307Y-76414286D02*
X47169212Y-76490476D01*
X47169212Y-76490476D02*
X47131117Y-76528571D01*
X47131117Y-76528571D02*
X47054926Y-76566667D01*
X47054926Y-76566667D02*
X46978736Y-76566667D01*
X46978736Y-76566667D02*
X46902545Y-76528571D01*
X46902545Y-76528571D02*
X46864450Y-76490476D01*
X46864450Y-76490476D02*
X46826355Y-76414286D01*
X46826355Y-76414286D02*
X46826355Y-76223809D01*
X46826355Y-76223809D02*
X46864450Y-76109524D01*
X46826355Y-75842857D02*
X47626355Y-75652381D01*
X47626355Y-75652381D02*
X47054926Y-75500000D01*
X47054926Y-75500000D02*
X47626355Y-75347619D01*
X47626355Y-75347619D02*
X46826355Y-75157143D01*
X47626355Y-74433333D02*
X47626355Y-74890476D01*
X47626355Y-74661904D02*
X46826355Y-74661904D01*
X46826355Y-74661904D02*
X46940640Y-74738095D01*
X46940640Y-74738095D02*
X47016831Y-74814285D01*
X47016831Y-74814285D02*
X47054926Y-74890476D01*
X44938451Y-73096355D02*
X44862261Y-73058260D01*
X44862261Y-73058260D02*
X44824166Y-73020164D01*
X44824166Y-73020164D02*
X44786070Y-72943974D01*
X44786070Y-72943974D02*
X44786070Y-72715402D01*
X44786070Y-72715402D02*
X44824166Y-72639212D01*
X44824166Y-72639212D02*
X44862261Y-72601117D01*
X44862261Y-72601117D02*
X44938451Y-72563021D01*
X44938451Y-72563021D02*
X45052737Y-72563021D01*
X45052737Y-72563021D02*
X45128928Y-72601117D01*
X45128928Y-72601117D02*
X45167023Y-72639212D01*
X45167023Y-72639212D02*
X45205118Y-72715402D01*
X45205118Y-72715402D02*
X45205118Y-72943974D01*
X45205118Y-72943974D02*
X45167023Y-73020164D01*
X45167023Y-73020164D02*
X45128928Y-73058260D01*
X45128928Y-73058260D02*
X45052737Y-73096355D01*
X45052737Y-73096355D02*
X44938451Y-73096355D01*
X45547976Y-72563021D02*
X45547976Y-73096355D01*
X45547976Y-72639212D02*
X45586071Y-72601117D01*
X45586071Y-72601117D02*
X45662261Y-72563021D01*
X45662261Y-72563021D02*
X45776547Y-72563021D01*
X45776547Y-72563021D02*
X45852738Y-72601117D01*
X45852738Y-72601117D02*
X45890833Y-72677307D01*
X45890833Y-72677307D02*
X45890833Y-73096355D01*
D10*
X46643014Y-40287557D02*
X46690633Y-40239938D01*
X46690633Y-40239938D02*
X46785871Y-40192319D01*
X46785871Y-40192319D02*
X47023966Y-40192319D01*
X47023966Y-40192319D02*
X47119204Y-40239938D01*
X47119204Y-40239938D02*
X47166823Y-40287557D01*
X47166823Y-40287557D02*
X47214442Y-40382795D01*
X47214442Y-40382795D02*
X47214442Y-40478033D01*
X47214442Y-40478033D02*
X47166823Y-40620890D01*
X47166823Y-40620890D02*
X46595395Y-41192319D01*
X46595395Y-41192319D02*
X47214442Y-41192319D01*
X47595395Y-40287557D02*
X47643014Y-40239938D01*
X47643014Y-40239938D02*
X47738252Y-40192319D01*
X47738252Y-40192319D02*
X47976347Y-40192319D01*
X47976347Y-40192319D02*
X48071585Y-40239938D01*
X48071585Y-40239938D02*
X48119204Y-40287557D01*
X48119204Y-40287557D02*
X48166823Y-40382795D01*
X48166823Y-40382795D02*
X48166823Y-40478033D01*
X48166823Y-40478033D02*
X48119204Y-40620890D01*
X48119204Y-40620890D02*
X47547776Y-41192319D01*
X47547776Y-41192319D02*
X48166823Y-41192319D01*
X49023966Y-40525652D02*
X49023966Y-41192319D01*
X48595395Y-40525652D02*
X48595395Y-41049461D01*
X48595395Y-41049461D02*
X48643014Y-41144700D01*
X48643014Y-41144700D02*
X48738252Y-41192319D01*
X48738252Y-41192319D02*
X48881109Y-41192319D01*
X48881109Y-41192319D02*
X48976347Y-41144700D01*
X48976347Y-41144700D02*
X49023966Y-41097080D01*
X47690633Y-35847080D02*
X47643014Y-35894700D01*
X47643014Y-35894700D02*
X47500157Y-35942319D01*
X47500157Y-35942319D02*
X47404919Y-35942319D01*
X47404919Y-35942319D02*
X47262062Y-35894700D01*
X47262062Y-35894700D02*
X47166824Y-35799461D01*
X47166824Y-35799461D02*
X47119205Y-35704223D01*
X47119205Y-35704223D02*
X47071586Y-35513747D01*
X47071586Y-35513747D02*
X47071586Y-35370890D01*
X47071586Y-35370890D02*
X47119205Y-35180414D01*
X47119205Y-35180414D02*
X47166824Y-35085176D01*
X47166824Y-35085176D02*
X47262062Y-34989938D01*
X47262062Y-34989938D02*
X47404919Y-34942319D01*
X47404919Y-34942319D02*
X47500157Y-34942319D01*
X47500157Y-34942319D02*
X47643014Y-34989938D01*
X47643014Y-34989938D02*
X47690633Y-35037557D01*
X48643014Y-35942319D02*
X48071586Y-35942319D01*
X48357300Y-35942319D02*
X48357300Y-34942319D01*
X48357300Y-34942319D02*
X48262062Y-35085176D01*
X48262062Y-35085176D02*
X48166824Y-35180414D01*
X48166824Y-35180414D02*
X48071586Y-35228033D01*
X56643014Y-40287557D02*
X56690633Y-40239938D01*
X56690633Y-40239938D02*
X56785871Y-40192319D01*
X56785871Y-40192319D02*
X57023966Y-40192319D01*
X57023966Y-40192319D02*
X57119204Y-40239938D01*
X57119204Y-40239938D02*
X57166823Y-40287557D01*
X57166823Y-40287557D02*
X57214442Y-40382795D01*
X57214442Y-40382795D02*
X57214442Y-40478033D01*
X57214442Y-40478033D02*
X57166823Y-40620890D01*
X57166823Y-40620890D02*
X56595395Y-41192319D01*
X56595395Y-41192319D02*
X57214442Y-41192319D01*
X57595395Y-40287557D02*
X57643014Y-40239938D01*
X57643014Y-40239938D02*
X57738252Y-40192319D01*
X57738252Y-40192319D02*
X57976347Y-40192319D01*
X57976347Y-40192319D02*
X58071585Y-40239938D01*
X58071585Y-40239938D02*
X58119204Y-40287557D01*
X58119204Y-40287557D02*
X58166823Y-40382795D01*
X58166823Y-40382795D02*
X58166823Y-40478033D01*
X58166823Y-40478033D02*
X58119204Y-40620890D01*
X58119204Y-40620890D02*
X57547776Y-41192319D01*
X57547776Y-41192319D02*
X58166823Y-41192319D01*
X59023966Y-40525652D02*
X59023966Y-41192319D01*
X58595395Y-40525652D02*
X58595395Y-41049461D01*
X58595395Y-41049461D02*
X58643014Y-41144700D01*
X58643014Y-41144700D02*
X58738252Y-41192319D01*
X58738252Y-41192319D02*
X58881109Y-41192319D01*
X58881109Y-41192319D02*
X58976347Y-41144700D01*
X58976347Y-41144700D02*
X59023966Y-41097080D01*
X57690633Y-35847080D02*
X57643014Y-35894700D01*
X57643014Y-35894700D02*
X57500157Y-35942319D01*
X57500157Y-35942319D02*
X57404919Y-35942319D01*
X57404919Y-35942319D02*
X57262062Y-35894700D01*
X57262062Y-35894700D02*
X57166824Y-35799461D01*
X57166824Y-35799461D02*
X57119205Y-35704223D01*
X57119205Y-35704223D02*
X57071586Y-35513747D01*
X57071586Y-35513747D02*
X57071586Y-35370890D01*
X57071586Y-35370890D02*
X57119205Y-35180414D01*
X57119205Y-35180414D02*
X57166824Y-35085176D01*
X57166824Y-35085176D02*
X57262062Y-34989938D01*
X57262062Y-34989938D02*
X57404919Y-34942319D01*
X57404919Y-34942319D02*
X57500157Y-34942319D01*
X57500157Y-34942319D02*
X57643014Y-34989938D01*
X57643014Y-34989938D02*
X57690633Y-35037557D01*
X58071586Y-35037557D02*
X58119205Y-34989938D01*
X58119205Y-34989938D02*
X58214443Y-34942319D01*
X58214443Y-34942319D02*
X58452538Y-34942319D01*
X58452538Y-34942319D02*
X58547776Y-34989938D01*
X58547776Y-34989938D02*
X58595395Y-35037557D01*
X58595395Y-35037557D02*
X58643014Y-35132795D01*
X58643014Y-35132795D02*
X58643014Y-35228033D01*
X58643014Y-35228033D02*
X58595395Y-35370890D01*
X58595395Y-35370890D02*
X58023967Y-35942319D01*
X58023967Y-35942319D02*
X58643014Y-35942319D01*
X95402857Y-53092319D02*
X95402857Y-52092319D01*
X96450475Y-53092319D02*
X96117142Y-52616128D01*
X95879047Y-53092319D02*
X95879047Y-52092319D01*
X95879047Y-52092319D02*
X96259999Y-52092319D01*
X96259999Y-52092319D02*
X96355237Y-52139938D01*
X96355237Y-52139938D02*
X96402856Y-52187557D01*
X96402856Y-52187557D02*
X96450475Y-52282795D01*
X96450475Y-52282795D02*
X96450475Y-52425652D01*
X96450475Y-52425652D02*
X96402856Y-52520890D01*
X96402856Y-52520890D02*
X96355237Y-52568509D01*
X96355237Y-52568509D02*
X96259999Y-52616128D01*
X96259999Y-52616128D02*
X95879047Y-52616128D01*
X97212380Y-52568509D02*
X96879047Y-52568509D01*
X96879047Y-53092319D02*
X96879047Y-52092319D01*
X96879047Y-52092319D02*
X97355237Y-52092319D01*
X98212380Y-52092319D02*
X97736190Y-52092319D01*
X97736190Y-52092319D02*
X97688571Y-52568509D01*
X97688571Y-52568509D02*
X97736190Y-52520890D01*
X97736190Y-52520890D02*
X97831428Y-52473271D01*
X97831428Y-52473271D02*
X98069523Y-52473271D01*
X98069523Y-52473271D02*
X98164761Y-52520890D01*
X98164761Y-52520890D02*
X98212380Y-52568509D01*
X98212380Y-52568509D02*
X98259999Y-52663747D01*
X98259999Y-52663747D02*
X98259999Y-52901842D01*
X98259999Y-52901842D02*
X98212380Y-52997080D01*
X98212380Y-52997080D02*
X98164761Y-53044700D01*
X98164761Y-53044700D02*
X98069523Y-53092319D01*
X98069523Y-53092319D02*
X97831428Y-53092319D01*
X97831428Y-53092319D02*
X97736190Y-53044700D01*
X97736190Y-53044700D02*
X97688571Y-52997080D01*
X98593333Y-52092319D02*
X99212380Y-52092319D01*
X99212380Y-52092319D02*
X98879047Y-52473271D01*
X98879047Y-52473271D02*
X99021904Y-52473271D01*
X99021904Y-52473271D02*
X99117142Y-52520890D01*
X99117142Y-52520890D02*
X99164761Y-52568509D01*
X99164761Y-52568509D02*
X99212380Y-52663747D01*
X99212380Y-52663747D02*
X99212380Y-52901842D01*
X99212380Y-52901842D02*
X99164761Y-52997080D01*
X99164761Y-52997080D02*
X99117142Y-53044700D01*
X99117142Y-53044700D02*
X99021904Y-53092319D01*
X99021904Y-53092319D02*
X98736190Y-53092319D01*
X98736190Y-53092319D02*
X98640952Y-53044700D01*
X98640952Y-53044700D02*
X98593333Y-52997080D01*
X99831428Y-52092319D02*
X99926666Y-52092319D01*
X99926666Y-52092319D02*
X100021904Y-52139938D01*
X100021904Y-52139938D02*
X100069523Y-52187557D01*
X100069523Y-52187557D02*
X100117142Y-52282795D01*
X100117142Y-52282795D02*
X100164761Y-52473271D01*
X100164761Y-52473271D02*
X100164761Y-52711366D01*
X100164761Y-52711366D02*
X100117142Y-52901842D01*
X100117142Y-52901842D02*
X100069523Y-52997080D01*
X100069523Y-52997080D02*
X100021904Y-53044700D01*
X100021904Y-53044700D02*
X99926666Y-53092319D01*
X99926666Y-53092319D02*
X99831428Y-53092319D01*
X99831428Y-53092319D02*
X99736190Y-53044700D01*
X99736190Y-53044700D02*
X99688571Y-52997080D01*
X99688571Y-52997080D02*
X99640952Y-52901842D01*
X99640952Y-52901842D02*
X99593333Y-52711366D01*
X99593333Y-52711366D02*
X99593333Y-52473271D01*
X99593333Y-52473271D02*
X99640952Y-52282795D01*
X99640952Y-52282795D02*
X99688571Y-52187557D01*
X99688571Y-52187557D02*
X99736190Y-52139938D01*
X99736190Y-52139938D02*
X99831428Y-52092319D01*
X97664761Y-50037557D02*
X97569523Y-49989938D01*
X97569523Y-49989938D02*
X97474285Y-49894700D01*
X97474285Y-49894700D02*
X97331428Y-49751842D01*
X97331428Y-49751842D02*
X97236190Y-49704223D01*
X97236190Y-49704223D02*
X97140952Y-49704223D01*
X97188571Y-49942319D02*
X97093333Y-49894700D01*
X97093333Y-49894700D02*
X96998095Y-49799461D01*
X96998095Y-49799461D02*
X96950476Y-49608985D01*
X96950476Y-49608985D02*
X96950476Y-49275652D01*
X96950476Y-49275652D02*
X96998095Y-49085176D01*
X96998095Y-49085176D02*
X97093333Y-48989938D01*
X97093333Y-48989938D02*
X97188571Y-48942319D01*
X97188571Y-48942319D02*
X97379047Y-48942319D01*
X97379047Y-48942319D02*
X97474285Y-48989938D01*
X97474285Y-48989938D02*
X97569523Y-49085176D01*
X97569523Y-49085176D02*
X97617142Y-49275652D01*
X97617142Y-49275652D02*
X97617142Y-49608985D01*
X97617142Y-49608985D02*
X97569523Y-49799461D01*
X97569523Y-49799461D02*
X97474285Y-49894700D01*
X97474285Y-49894700D02*
X97379047Y-49942319D01*
X97379047Y-49942319D02*
X97188571Y-49942319D01*
X98569523Y-49942319D02*
X97998095Y-49942319D01*
X98283809Y-49942319D02*
X98283809Y-48942319D01*
X98283809Y-48942319D02*
X98188571Y-49085176D01*
X98188571Y-49085176D02*
X98093333Y-49180414D01*
X98093333Y-49180414D02*
X97998095Y-49228033D01*
X107117142Y-81022319D02*
X107307618Y-81022319D01*
X107307618Y-81022319D02*
X107402856Y-80974700D01*
X107402856Y-80974700D02*
X107450475Y-80927080D01*
X107450475Y-80927080D02*
X107545713Y-80784223D01*
X107545713Y-80784223D02*
X107593332Y-80593747D01*
X107593332Y-80593747D02*
X107593332Y-80212795D01*
X107593332Y-80212795D02*
X107545713Y-80117557D01*
X107545713Y-80117557D02*
X107498094Y-80069938D01*
X107498094Y-80069938D02*
X107402856Y-80022319D01*
X107402856Y-80022319D02*
X107212380Y-80022319D01*
X107212380Y-80022319D02*
X107117142Y-80069938D01*
X107117142Y-80069938D02*
X107069523Y-80117557D01*
X107069523Y-80117557D02*
X107021904Y-80212795D01*
X107021904Y-80212795D02*
X107021904Y-80450890D01*
X107021904Y-80450890D02*
X107069523Y-80546128D01*
X107069523Y-80546128D02*
X107117142Y-80593747D01*
X107117142Y-80593747D02*
X107212380Y-80641366D01*
X107212380Y-80641366D02*
X107402856Y-80641366D01*
X107402856Y-80641366D02*
X107498094Y-80593747D01*
X107498094Y-80593747D02*
X107545713Y-80546128D01*
X107545713Y-80546128D02*
X107593332Y-80450890D01*
X107879047Y-80022319D02*
X108212380Y-81022319D01*
X108212380Y-81022319D02*
X108545713Y-80022319D01*
X109974285Y-80498509D02*
X110117142Y-80546128D01*
X110117142Y-80546128D02*
X110164761Y-80593747D01*
X110164761Y-80593747D02*
X110212380Y-80688985D01*
X110212380Y-80688985D02*
X110212380Y-80831842D01*
X110212380Y-80831842D02*
X110164761Y-80927080D01*
X110164761Y-80927080D02*
X110117142Y-80974700D01*
X110117142Y-80974700D02*
X110021904Y-81022319D01*
X110021904Y-81022319D02*
X109640952Y-81022319D01*
X109640952Y-81022319D02*
X109640952Y-80022319D01*
X109640952Y-80022319D02*
X109974285Y-80022319D01*
X109974285Y-80022319D02*
X110069523Y-80069938D01*
X110069523Y-80069938D02*
X110117142Y-80117557D01*
X110117142Y-80117557D02*
X110164761Y-80212795D01*
X110164761Y-80212795D02*
X110164761Y-80308033D01*
X110164761Y-80308033D02*
X110117142Y-80403271D01*
X110117142Y-80403271D02*
X110069523Y-80450890D01*
X110069523Y-80450890D02*
X109974285Y-80498509D01*
X109974285Y-80498509D02*
X109640952Y-80498509D01*
X111069523Y-81022319D02*
X111069523Y-80498509D01*
X111069523Y-80498509D02*
X111021904Y-80403271D01*
X111021904Y-80403271D02*
X110926666Y-80355652D01*
X110926666Y-80355652D02*
X110736190Y-80355652D01*
X110736190Y-80355652D02*
X110640952Y-80403271D01*
X111069523Y-80974700D02*
X110974285Y-81022319D01*
X110974285Y-81022319D02*
X110736190Y-81022319D01*
X110736190Y-81022319D02*
X110640952Y-80974700D01*
X110640952Y-80974700D02*
X110593333Y-80879461D01*
X110593333Y-80879461D02*
X110593333Y-80784223D01*
X110593333Y-80784223D02*
X110640952Y-80688985D01*
X110640952Y-80688985D02*
X110736190Y-80641366D01*
X110736190Y-80641366D02*
X110974285Y-80641366D01*
X110974285Y-80641366D02*
X111069523Y-80593747D01*
X111402857Y-80355652D02*
X111783809Y-80355652D01*
X111545714Y-80022319D02*
X111545714Y-80879461D01*
X111545714Y-80879461D02*
X111593333Y-80974700D01*
X111593333Y-80974700D02*
X111688571Y-81022319D01*
X111688571Y-81022319D02*
X111783809Y-81022319D01*
X111974286Y-80355652D02*
X112355238Y-80355652D01*
X112117143Y-80022319D02*
X112117143Y-80879461D01*
X112117143Y-80879461D02*
X112164762Y-80974700D01*
X112164762Y-80974700D02*
X112260000Y-81022319D01*
X112260000Y-81022319D02*
X112355238Y-81022319D01*
X113069524Y-80974700D02*
X112974286Y-81022319D01*
X112974286Y-81022319D02*
X112783810Y-81022319D01*
X112783810Y-81022319D02*
X112688572Y-80974700D01*
X112688572Y-80974700D02*
X112640953Y-80879461D01*
X112640953Y-80879461D02*
X112640953Y-80498509D01*
X112640953Y-80498509D02*
X112688572Y-80403271D01*
X112688572Y-80403271D02*
X112783810Y-80355652D01*
X112783810Y-80355652D02*
X112974286Y-80355652D01*
X112974286Y-80355652D02*
X113069524Y-80403271D01*
X113069524Y-80403271D02*
X113117143Y-80498509D01*
X113117143Y-80498509D02*
X113117143Y-80593747D01*
X113117143Y-80593747D02*
X112640953Y-80688985D01*
X113545715Y-81022319D02*
X113545715Y-80355652D01*
X113545715Y-80546128D02*
X113593334Y-80450890D01*
X113593334Y-80450890D02*
X113640953Y-80403271D01*
X113640953Y-80403271D02*
X113736191Y-80355652D01*
X113736191Y-80355652D02*
X113831429Y-80355652D01*
X114069525Y-80355652D02*
X114307620Y-81022319D01*
X114545715Y-80355652D02*
X114307620Y-81022319D01*
X114307620Y-81022319D02*
X114212382Y-81260414D01*
X114212382Y-81260414D02*
X114164763Y-81308033D01*
X114164763Y-81308033D02*
X114069525Y-81355652D01*
X110426666Y-74942319D02*
X110426666Y-75656604D01*
X110426666Y-75656604D02*
X110379047Y-75799461D01*
X110379047Y-75799461D02*
X110283809Y-75894700D01*
X110283809Y-75894700D02*
X110140952Y-75942319D01*
X110140952Y-75942319D02*
X110045714Y-75942319D01*
X110855238Y-75037557D02*
X110902857Y-74989938D01*
X110902857Y-74989938D02*
X110998095Y-74942319D01*
X110998095Y-74942319D02*
X111236190Y-74942319D01*
X111236190Y-74942319D02*
X111331428Y-74989938D01*
X111331428Y-74989938D02*
X111379047Y-75037557D01*
X111379047Y-75037557D02*
X111426666Y-75132795D01*
X111426666Y-75132795D02*
X111426666Y-75228033D01*
X111426666Y-75228033D02*
X111379047Y-75370890D01*
X111379047Y-75370890D02*
X110807619Y-75942319D01*
X110807619Y-75942319D02*
X111426666Y-75942319D01*
X67617142Y-52062319D02*
X67045714Y-52062319D01*
X67331428Y-52062319D02*
X67331428Y-51062319D01*
X67331428Y-51062319D02*
X67236190Y-51205176D01*
X67236190Y-51205176D02*
X67140952Y-51300414D01*
X67140952Y-51300414D02*
X67045714Y-51348033D01*
X68045714Y-52062319D02*
X68045714Y-51062319D01*
X68045714Y-51062319D02*
X68617142Y-52062319D01*
X68617142Y-52062319D02*
X68617142Y-51062319D01*
X69521904Y-51395652D02*
X69521904Y-52062319D01*
X69283809Y-51014700D02*
X69045714Y-51728985D01*
X69045714Y-51728985D02*
X69664761Y-51728985D01*
X70569523Y-52062319D02*
X69998095Y-52062319D01*
X70283809Y-52062319D02*
X70283809Y-51062319D01*
X70283809Y-51062319D02*
X70188571Y-51205176D01*
X70188571Y-51205176D02*
X70093333Y-51300414D01*
X70093333Y-51300414D02*
X69998095Y-51348033D01*
X71426666Y-51395652D02*
X71426666Y-52062319D01*
X71188571Y-51014700D02*
X70950476Y-51728985D01*
X70950476Y-51728985D02*
X71569523Y-51728985D01*
X72093333Y-51490890D02*
X71998095Y-51443271D01*
X71998095Y-51443271D02*
X71950476Y-51395652D01*
X71950476Y-51395652D02*
X71902857Y-51300414D01*
X71902857Y-51300414D02*
X71902857Y-51252795D01*
X71902857Y-51252795D02*
X71950476Y-51157557D01*
X71950476Y-51157557D02*
X71998095Y-51109938D01*
X71998095Y-51109938D02*
X72093333Y-51062319D01*
X72093333Y-51062319D02*
X72283809Y-51062319D01*
X72283809Y-51062319D02*
X72379047Y-51109938D01*
X72379047Y-51109938D02*
X72426666Y-51157557D01*
X72426666Y-51157557D02*
X72474285Y-51252795D01*
X72474285Y-51252795D02*
X72474285Y-51300414D01*
X72474285Y-51300414D02*
X72426666Y-51395652D01*
X72426666Y-51395652D02*
X72379047Y-51443271D01*
X72379047Y-51443271D02*
X72283809Y-51490890D01*
X72283809Y-51490890D02*
X72093333Y-51490890D01*
X72093333Y-51490890D02*
X71998095Y-51538509D01*
X71998095Y-51538509D02*
X71950476Y-51586128D01*
X71950476Y-51586128D02*
X71902857Y-51681366D01*
X71902857Y-51681366D02*
X71902857Y-51871842D01*
X71902857Y-51871842D02*
X71950476Y-51967080D01*
X71950476Y-51967080D02*
X71998095Y-52014700D01*
X71998095Y-52014700D02*
X72093333Y-52062319D01*
X72093333Y-52062319D02*
X72283809Y-52062319D01*
X72283809Y-52062319D02*
X72379047Y-52014700D01*
X72379047Y-52014700D02*
X72426666Y-51967080D01*
X72426666Y-51967080D02*
X72474285Y-51871842D01*
X72474285Y-51871842D02*
X72474285Y-51681366D01*
X72474285Y-51681366D02*
X72426666Y-51586128D01*
X72426666Y-51586128D02*
X72379047Y-51538509D01*
X72379047Y-51538509D02*
X72283809Y-51490890D01*
D11*
X69469524Y-49851355D02*
X69469524Y-49051355D01*
X69469524Y-49051355D02*
X69660000Y-49051355D01*
X69660000Y-49051355D02*
X69774286Y-49089450D01*
X69774286Y-49089450D02*
X69850476Y-49165640D01*
X69850476Y-49165640D02*
X69888571Y-49241831D01*
X69888571Y-49241831D02*
X69926667Y-49394212D01*
X69926667Y-49394212D02*
X69926667Y-49508498D01*
X69926667Y-49508498D02*
X69888571Y-49660879D01*
X69888571Y-49660879D02*
X69850476Y-49737069D01*
X69850476Y-49737069D02*
X69774286Y-49813260D01*
X69774286Y-49813260D02*
X69660000Y-49851355D01*
X69660000Y-49851355D02*
X69469524Y-49851355D01*
X70231428Y-49127545D02*
X70269524Y-49089450D01*
X70269524Y-49089450D02*
X70345714Y-49051355D01*
X70345714Y-49051355D02*
X70536190Y-49051355D01*
X70536190Y-49051355D02*
X70612381Y-49089450D01*
X70612381Y-49089450D02*
X70650476Y-49127545D01*
X70650476Y-49127545D02*
X70688571Y-49203736D01*
X70688571Y-49203736D02*
X70688571Y-49279926D01*
X70688571Y-49279926D02*
X70650476Y-49394212D01*
X70650476Y-49394212D02*
X70193333Y-49851355D01*
X70193333Y-49851355D02*
X70688571Y-49851355D01*
D10*
X65688095Y-48142319D02*
X65688095Y-47142319D01*
X66259523Y-48142319D02*
X65830952Y-47570890D01*
X66259523Y-47142319D02*
X65688095Y-47713747D01*
X35593333Y-68082319D02*
X35593333Y-67082319D01*
X35593333Y-67082319D02*
X36164761Y-68082319D01*
X36164761Y-68082319D02*
X36164761Y-67082319D01*
X36640952Y-67558509D02*
X36974285Y-67558509D01*
X37117142Y-68082319D02*
X36640952Y-68082319D01*
X36640952Y-68082319D02*
X36640952Y-67082319D01*
X36640952Y-67082319D02*
X37117142Y-67082319D01*
X38021904Y-67082319D02*
X37545714Y-67082319D01*
X37545714Y-67082319D02*
X37498095Y-67558509D01*
X37498095Y-67558509D02*
X37545714Y-67510890D01*
X37545714Y-67510890D02*
X37640952Y-67463271D01*
X37640952Y-67463271D02*
X37879047Y-67463271D01*
X37879047Y-67463271D02*
X37974285Y-67510890D01*
X37974285Y-67510890D02*
X38021904Y-67558509D01*
X38021904Y-67558509D02*
X38069523Y-67653747D01*
X38069523Y-67653747D02*
X38069523Y-67891842D01*
X38069523Y-67891842D02*
X38021904Y-67987080D01*
X38021904Y-67987080D02*
X37974285Y-68034700D01*
X37974285Y-68034700D02*
X37879047Y-68082319D01*
X37879047Y-68082319D02*
X37640952Y-68082319D01*
X37640952Y-68082319D02*
X37545714Y-68034700D01*
X37545714Y-68034700D02*
X37498095Y-67987080D01*
X38974285Y-67082319D02*
X38498095Y-67082319D01*
X38498095Y-67082319D02*
X38450476Y-67558509D01*
X38450476Y-67558509D02*
X38498095Y-67510890D01*
X38498095Y-67510890D02*
X38593333Y-67463271D01*
X38593333Y-67463271D02*
X38831428Y-67463271D01*
X38831428Y-67463271D02*
X38926666Y-67510890D01*
X38926666Y-67510890D02*
X38974285Y-67558509D01*
X38974285Y-67558509D02*
X39021904Y-67653747D01*
X39021904Y-67653747D02*
X39021904Y-67891842D01*
X39021904Y-67891842D02*
X38974285Y-67987080D01*
X38974285Y-67987080D02*
X38926666Y-68034700D01*
X38926666Y-68034700D02*
X38831428Y-68082319D01*
X38831428Y-68082319D02*
X38593333Y-68082319D01*
X38593333Y-68082319D02*
X38498095Y-68034700D01*
X38498095Y-68034700D02*
X38450476Y-67987080D01*
X39926666Y-67082319D02*
X39450476Y-67082319D01*
X39450476Y-67082319D02*
X39402857Y-67558509D01*
X39402857Y-67558509D02*
X39450476Y-67510890D01*
X39450476Y-67510890D02*
X39545714Y-67463271D01*
X39545714Y-67463271D02*
X39783809Y-67463271D01*
X39783809Y-67463271D02*
X39879047Y-67510890D01*
X39879047Y-67510890D02*
X39926666Y-67558509D01*
X39926666Y-67558509D02*
X39974285Y-67653747D01*
X39974285Y-67653747D02*
X39974285Y-67891842D01*
X39974285Y-67891842D02*
X39926666Y-67987080D01*
X39926666Y-67987080D02*
X39879047Y-68034700D01*
X39879047Y-68034700D02*
X39783809Y-68082319D01*
X39783809Y-68082319D02*
X39545714Y-68082319D01*
X39545714Y-68082319D02*
X39450476Y-68034700D01*
X39450476Y-68034700D02*
X39402857Y-67987080D01*
X37214819Y-62249404D02*
X38024342Y-62249404D01*
X38024342Y-62249404D02*
X38119580Y-62201785D01*
X38119580Y-62201785D02*
X38167200Y-62154166D01*
X38167200Y-62154166D02*
X38214819Y-62058928D01*
X38214819Y-62058928D02*
X38214819Y-61868452D01*
X38214819Y-61868452D02*
X38167200Y-61773214D01*
X38167200Y-61773214D02*
X38119580Y-61725595D01*
X38119580Y-61725595D02*
X38024342Y-61677976D01*
X38024342Y-61677976D02*
X37214819Y-61677976D01*
X37214819Y-61297023D02*
X37214819Y-60677976D01*
X37214819Y-60677976D02*
X37595771Y-61011309D01*
X37595771Y-61011309D02*
X37595771Y-60868452D01*
X37595771Y-60868452D02*
X37643390Y-60773214D01*
X37643390Y-60773214D02*
X37691009Y-60725595D01*
X37691009Y-60725595D02*
X37786247Y-60677976D01*
X37786247Y-60677976D02*
X38024342Y-60677976D01*
X38024342Y-60677976D02*
X38119580Y-60725595D01*
X38119580Y-60725595D02*
X38167200Y-60773214D01*
X38167200Y-60773214D02*
X38214819Y-60868452D01*
X38214819Y-60868452D02*
X38214819Y-61154166D01*
X38214819Y-61154166D02*
X38167200Y-61249404D01*
X38167200Y-61249404D02*
X38119580Y-61297023D01*
X85640952Y-78312319D02*
X85069524Y-78312319D01*
X85355238Y-78312319D02*
X85355238Y-77312319D01*
X85355238Y-77312319D02*
X85260000Y-77455176D01*
X85260000Y-77455176D02*
X85164762Y-77550414D01*
X85164762Y-77550414D02*
X85069524Y-77598033D01*
X86069524Y-78312319D02*
X86069524Y-77312319D01*
X86164762Y-77931366D02*
X86450476Y-78312319D01*
X86450476Y-77645652D02*
X86069524Y-78026604D01*
X85593333Y-75942319D02*
X85260000Y-75466128D01*
X85021905Y-75942319D02*
X85021905Y-74942319D01*
X85021905Y-74942319D02*
X85402857Y-74942319D01*
X85402857Y-74942319D02*
X85498095Y-74989938D01*
X85498095Y-74989938D02*
X85545714Y-75037557D01*
X85545714Y-75037557D02*
X85593333Y-75132795D01*
X85593333Y-75132795D02*
X85593333Y-75275652D01*
X85593333Y-75275652D02*
X85545714Y-75370890D01*
X85545714Y-75370890D02*
X85498095Y-75418509D01*
X85498095Y-75418509D02*
X85402857Y-75466128D01*
X85402857Y-75466128D02*
X85021905Y-75466128D01*
X86498095Y-74942319D02*
X86021905Y-74942319D01*
X86021905Y-74942319D02*
X85974286Y-75418509D01*
X85974286Y-75418509D02*
X86021905Y-75370890D01*
X86021905Y-75370890D02*
X86117143Y-75323271D01*
X86117143Y-75323271D02*
X86355238Y-75323271D01*
X86355238Y-75323271D02*
X86450476Y-75370890D01*
X86450476Y-75370890D02*
X86498095Y-75418509D01*
X86498095Y-75418509D02*
X86545714Y-75513747D01*
X86545714Y-75513747D02*
X86545714Y-75751842D01*
X86545714Y-75751842D02*
X86498095Y-75847080D01*
X86498095Y-75847080D02*
X86450476Y-75894700D01*
X86450476Y-75894700D02*
X86355238Y-75942319D01*
X86355238Y-75942319D02*
X86117143Y-75942319D01*
X86117143Y-75942319D02*
X86021905Y-75894700D01*
X86021905Y-75894700D02*
X85974286Y-75847080D01*
X26402857Y-79587319D02*
X26402857Y-78587319D01*
X26402857Y-78587319D02*
X26736190Y-79301604D01*
X26736190Y-79301604D02*
X27069523Y-78587319D01*
X27069523Y-78587319D02*
X27069523Y-79587319D01*
X28117142Y-79492080D02*
X28069523Y-79539700D01*
X28069523Y-79539700D02*
X27926666Y-79587319D01*
X27926666Y-79587319D02*
X27831428Y-79587319D01*
X27831428Y-79587319D02*
X27688571Y-79539700D01*
X27688571Y-79539700D02*
X27593333Y-79444461D01*
X27593333Y-79444461D02*
X27545714Y-79349223D01*
X27545714Y-79349223D02*
X27498095Y-79158747D01*
X27498095Y-79158747D02*
X27498095Y-79015890D01*
X27498095Y-79015890D02*
X27545714Y-78825414D01*
X27545714Y-78825414D02*
X27593333Y-78730176D01*
X27593333Y-78730176D02*
X27688571Y-78634938D01*
X27688571Y-78634938D02*
X27831428Y-78587319D01*
X27831428Y-78587319D02*
X27926666Y-78587319D01*
X27926666Y-78587319D02*
X28069523Y-78634938D01*
X28069523Y-78634938D02*
X28117142Y-78682557D01*
X28545714Y-79587319D02*
X28545714Y-78587319D01*
X28545714Y-78587319D02*
X28926666Y-78587319D01*
X28926666Y-78587319D02*
X29021904Y-78634938D01*
X29021904Y-78634938D02*
X29069523Y-78682557D01*
X29069523Y-78682557D02*
X29117142Y-78777795D01*
X29117142Y-78777795D02*
X29117142Y-78920652D01*
X29117142Y-78920652D02*
X29069523Y-79015890D01*
X29069523Y-79015890D02*
X29021904Y-79063509D01*
X29021904Y-79063509D02*
X28926666Y-79111128D01*
X28926666Y-79111128D02*
X28545714Y-79111128D01*
X30307619Y-79587319D02*
X30307619Y-78587319D01*
X30307619Y-78587319D02*
X30688571Y-78587319D01*
X30688571Y-78587319D02*
X30783809Y-78634938D01*
X30783809Y-78634938D02*
X30831428Y-78682557D01*
X30831428Y-78682557D02*
X30879047Y-78777795D01*
X30879047Y-78777795D02*
X30879047Y-78920652D01*
X30879047Y-78920652D02*
X30831428Y-79015890D01*
X30831428Y-79015890D02*
X30783809Y-79063509D01*
X30783809Y-79063509D02*
X30688571Y-79111128D01*
X30688571Y-79111128D02*
X30307619Y-79111128D01*
X31212381Y-78587319D02*
X31450476Y-79587319D01*
X31450476Y-79587319D02*
X31640952Y-78873033D01*
X31640952Y-78873033D02*
X31831428Y-79587319D01*
X31831428Y-79587319D02*
X32069524Y-78587319D01*
X32450476Y-79587319D02*
X32450476Y-78587319D01*
X32450476Y-78587319D02*
X32783809Y-79301604D01*
X32783809Y-79301604D02*
X33117142Y-78587319D01*
X33117142Y-78587319D02*
X33117142Y-79587319D01*
X29214819Y-75815833D02*
X29929104Y-75815833D01*
X29929104Y-75815833D02*
X30071961Y-75863452D01*
X30071961Y-75863452D02*
X30167200Y-75958690D01*
X30167200Y-75958690D02*
X30214819Y-76101547D01*
X30214819Y-76101547D02*
X30214819Y-76196785D01*
X30214819Y-74815833D02*
X30214819Y-75387261D01*
X30214819Y-75101547D02*
X29214819Y-75101547D01*
X29214819Y-75101547D02*
X29357676Y-75196785D01*
X29357676Y-75196785D02*
X29452914Y-75292023D01*
X29452914Y-75292023D02*
X29500533Y-75387261D01*
X33593333Y-39092319D02*
X33117143Y-39092319D01*
X33117143Y-39092319D02*
X33117143Y-38092319D01*
X33926667Y-39092319D02*
X33926667Y-38092319D01*
X33926667Y-38092319D02*
X34260000Y-38806604D01*
X34260000Y-38806604D02*
X34593333Y-38092319D01*
X34593333Y-38092319D02*
X34593333Y-39092319D01*
X34974286Y-38092319D02*
X35640952Y-38092319D01*
X35640952Y-38092319D02*
X35212381Y-39092319D01*
X36164762Y-38520890D02*
X36069524Y-38473271D01*
X36069524Y-38473271D02*
X36021905Y-38425652D01*
X36021905Y-38425652D02*
X35974286Y-38330414D01*
X35974286Y-38330414D02*
X35974286Y-38282795D01*
X35974286Y-38282795D02*
X36021905Y-38187557D01*
X36021905Y-38187557D02*
X36069524Y-38139938D01*
X36069524Y-38139938D02*
X36164762Y-38092319D01*
X36164762Y-38092319D02*
X36355238Y-38092319D01*
X36355238Y-38092319D02*
X36450476Y-38139938D01*
X36450476Y-38139938D02*
X36498095Y-38187557D01*
X36498095Y-38187557D02*
X36545714Y-38282795D01*
X36545714Y-38282795D02*
X36545714Y-38330414D01*
X36545714Y-38330414D02*
X36498095Y-38425652D01*
X36498095Y-38425652D02*
X36450476Y-38473271D01*
X36450476Y-38473271D02*
X36355238Y-38520890D01*
X36355238Y-38520890D02*
X36164762Y-38520890D01*
X36164762Y-38520890D02*
X36069524Y-38568509D01*
X36069524Y-38568509D02*
X36021905Y-38616128D01*
X36021905Y-38616128D02*
X35974286Y-38711366D01*
X35974286Y-38711366D02*
X35974286Y-38901842D01*
X35974286Y-38901842D02*
X36021905Y-38997080D01*
X36021905Y-38997080D02*
X36069524Y-39044700D01*
X36069524Y-39044700D02*
X36164762Y-39092319D01*
X36164762Y-39092319D02*
X36355238Y-39092319D01*
X36355238Y-39092319D02*
X36450476Y-39044700D01*
X36450476Y-39044700D02*
X36498095Y-38997080D01*
X36498095Y-38997080D02*
X36545714Y-38901842D01*
X36545714Y-38901842D02*
X36545714Y-38711366D01*
X36545714Y-38711366D02*
X36498095Y-38616128D01*
X36498095Y-38616128D02*
X36450476Y-38568509D01*
X36450476Y-38568509D02*
X36355238Y-38520890D01*
X37164762Y-38092319D02*
X37260000Y-38092319D01*
X37260000Y-38092319D02*
X37355238Y-38139938D01*
X37355238Y-38139938D02*
X37402857Y-38187557D01*
X37402857Y-38187557D02*
X37450476Y-38282795D01*
X37450476Y-38282795D02*
X37498095Y-38473271D01*
X37498095Y-38473271D02*
X37498095Y-38711366D01*
X37498095Y-38711366D02*
X37450476Y-38901842D01*
X37450476Y-38901842D02*
X37402857Y-38997080D01*
X37402857Y-38997080D02*
X37355238Y-39044700D01*
X37355238Y-39044700D02*
X37260000Y-39092319D01*
X37260000Y-39092319D02*
X37164762Y-39092319D01*
X37164762Y-39092319D02*
X37069524Y-39044700D01*
X37069524Y-39044700D02*
X37021905Y-38997080D01*
X37021905Y-38997080D02*
X36974286Y-38901842D01*
X36974286Y-38901842D02*
X36926667Y-38711366D01*
X36926667Y-38711366D02*
X36926667Y-38473271D01*
X36926667Y-38473271D02*
X36974286Y-38282795D01*
X36974286Y-38282795D02*
X37021905Y-38187557D01*
X37021905Y-38187557D02*
X37069524Y-38139938D01*
X37069524Y-38139938D02*
X37164762Y-38092319D01*
X38402857Y-38092319D02*
X37926667Y-38092319D01*
X37926667Y-38092319D02*
X37879048Y-38568509D01*
X37879048Y-38568509D02*
X37926667Y-38520890D01*
X37926667Y-38520890D02*
X38021905Y-38473271D01*
X38021905Y-38473271D02*
X38260000Y-38473271D01*
X38260000Y-38473271D02*
X38355238Y-38520890D01*
X38355238Y-38520890D02*
X38402857Y-38568509D01*
X38402857Y-38568509D02*
X38450476Y-38663747D01*
X38450476Y-38663747D02*
X38450476Y-38901842D01*
X38450476Y-38901842D02*
X38402857Y-38997080D01*
X38402857Y-38997080D02*
X38355238Y-39044700D01*
X38355238Y-39044700D02*
X38260000Y-39092319D01*
X38260000Y-39092319D02*
X38021905Y-39092319D01*
X38021905Y-39092319D02*
X37926667Y-39044700D01*
X37926667Y-39044700D02*
X37879048Y-38997080D01*
X34998095Y-34942319D02*
X34998095Y-35751842D01*
X34998095Y-35751842D02*
X35045714Y-35847080D01*
X35045714Y-35847080D02*
X35093333Y-35894700D01*
X35093333Y-35894700D02*
X35188571Y-35942319D01*
X35188571Y-35942319D02*
X35379047Y-35942319D01*
X35379047Y-35942319D02*
X35474285Y-35894700D01*
X35474285Y-35894700D02*
X35521904Y-35847080D01*
X35521904Y-35847080D02*
X35569523Y-35751842D01*
X35569523Y-35751842D02*
X35569523Y-34942319D01*
X36569523Y-35942319D02*
X35998095Y-35942319D01*
X36283809Y-35942319D02*
X36283809Y-34942319D01*
X36283809Y-34942319D02*
X36188571Y-35085176D01*
X36188571Y-35085176D02*
X36093333Y-35180414D01*
X36093333Y-35180414D02*
X35998095Y-35228033D01*
X45164761Y-52312319D02*
X44593333Y-52312319D01*
X44879047Y-52312319D02*
X44879047Y-51312319D01*
X44879047Y-51312319D02*
X44783809Y-51455176D01*
X44783809Y-51455176D02*
X44688571Y-51550414D01*
X44688571Y-51550414D02*
X44593333Y-51598033D01*
X45783809Y-51312319D02*
X45879047Y-51312319D01*
X45879047Y-51312319D02*
X45974285Y-51359938D01*
X45974285Y-51359938D02*
X46021904Y-51407557D01*
X46021904Y-51407557D02*
X46069523Y-51502795D01*
X46069523Y-51502795D02*
X46117142Y-51693271D01*
X46117142Y-51693271D02*
X46117142Y-51931366D01*
X46117142Y-51931366D02*
X46069523Y-52121842D01*
X46069523Y-52121842D02*
X46021904Y-52217080D01*
X46021904Y-52217080D02*
X45974285Y-52264700D01*
X45974285Y-52264700D02*
X45879047Y-52312319D01*
X45879047Y-52312319D02*
X45783809Y-52312319D01*
X45783809Y-52312319D02*
X45688571Y-52264700D01*
X45688571Y-52264700D02*
X45640952Y-52217080D01*
X45640952Y-52217080D02*
X45593333Y-52121842D01*
X45593333Y-52121842D02*
X45545714Y-51931366D01*
X45545714Y-51931366D02*
X45545714Y-51693271D01*
X45545714Y-51693271D02*
X45593333Y-51502795D01*
X45593333Y-51502795D02*
X45640952Y-51407557D01*
X45640952Y-51407557D02*
X45688571Y-51359938D01*
X45688571Y-51359938D02*
X45783809Y-51312319D01*
X46545714Y-52312319D02*
X46545714Y-51312319D01*
X46640952Y-51931366D02*
X46926666Y-52312319D01*
X46926666Y-51645652D02*
X46545714Y-52026604D01*
X45593333Y-49942319D02*
X45260000Y-49466128D01*
X45021905Y-49942319D02*
X45021905Y-48942319D01*
X45021905Y-48942319D02*
X45402857Y-48942319D01*
X45402857Y-48942319D02*
X45498095Y-48989938D01*
X45498095Y-48989938D02*
X45545714Y-49037557D01*
X45545714Y-49037557D02*
X45593333Y-49132795D01*
X45593333Y-49132795D02*
X45593333Y-49275652D01*
X45593333Y-49275652D02*
X45545714Y-49370890D01*
X45545714Y-49370890D02*
X45498095Y-49418509D01*
X45498095Y-49418509D02*
X45402857Y-49466128D01*
X45402857Y-49466128D02*
X45021905Y-49466128D01*
X45926667Y-48942319D02*
X46545714Y-48942319D01*
X46545714Y-48942319D02*
X46212381Y-49323271D01*
X46212381Y-49323271D02*
X46355238Y-49323271D01*
X46355238Y-49323271D02*
X46450476Y-49370890D01*
X46450476Y-49370890D02*
X46498095Y-49418509D01*
X46498095Y-49418509D02*
X46545714Y-49513747D01*
X46545714Y-49513747D02*
X46545714Y-49751842D01*
X46545714Y-49751842D02*
X46498095Y-49847080D01*
X46498095Y-49847080D02*
X46450476Y-49894700D01*
X46450476Y-49894700D02*
X46355238Y-49942319D01*
X46355238Y-49942319D02*
X46069524Y-49942319D01*
X46069524Y-49942319D02*
X45974286Y-49894700D01*
X45974286Y-49894700D02*
X45926667Y-49847080D01*
X99119204Y-100525652D02*
X99119204Y-101192319D01*
X98881109Y-100144700D02*
X98643014Y-100858985D01*
X98643014Y-100858985D02*
X99262061Y-100858985D01*
X99547776Y-100192319D02*
X100214442Y-100192319D01*
X100214442Y-100192319D02*
X99785871Y-101192319D01*
X101023966Y-100525652D02*
X101023966Y-101192319D01*
X100595395Y-100525652D02*
X100595395Y-101049461D01*
X100595395Y-101049461D02*
X100643014Y-101144700D01*
X100643014Y-101144700D02*
X100738252Y-101192319D01*
X100738252Y-101192319D02*
X100881109Y-101192319D01*
X100881109Y-101192319D02*
X100976347Y-101144700D01*
X100976347Y-101144700D02*
X101023966Y-101097080D01*
X99690633Y-95847080D02*
X99643014Y-95894700D01*
X99643014Y-95894700D02*
X99500157Y-95942319D01*
X99500157Y-95942319D02*
X99404919Y-95942319D01*
X99404919Y-95942319D02*
X99262062Y-95894700D01*
X99262062Y-95894700D02*
X99166824Y-95799461D01*
X99166824Y-95799461D02*
X99119205Y-95704223D01*
X99119205Y-95704223D02*
X99071586Y-95513747D01*
X99071586Y-95513747D02*
X99071586Y-95370890D01*
X99071586Y-95370890D02*
X99119205Y-95180414D01*
X99119205Y-95180414D02*
X99166824Y-95085176D01*
X99166824Y-95085176D02*
X99262062Y-94989938D01*
X99262062Y-94989938D02*
X99404919Y-94942319D01*
X99404919Y-94942319D02*
X99500157Y-94942319D01*
X99500157Y-94942319D02*
X99643014Y-94989938D01*
X99643014Y-94989938D02*
X99690633Y-95037557D01*
X100595395Y-94942319D02*
X100119205Y-94942319D01*
X100119205Y-94942319D02*
X100071586Y-95418509D01*
X100071586Y-95418509D02*
X100119205Y-95370890D01*
X100119205Y-95370890D02*
X100214443Y-95323271D01*
X100214443Y-95323271D02*
X100452538Y-95323271D01*
X100452538Y-95323271D02*
X100547776Y-95370890D01*
X100547776Y-95370890D02*
X100595395Y-95418509D01*
X100595395Y-95418509D02*
X100643014Y-95513747D01*
X100643014Y-95513747D02*
X100643014Y-95751842D01*
X100643014Y-95751842D02*
X100595395Y-95847080D01*
X100595395Y-95847080D02*
X100547776Y-95894700D01*
X100547776Y-95894700D02*
X100452538Y-95942319D01*
X100452538Y-95942319D02*
X100214443Y-95942319D01*
X100214443Y-95942319D02*
X100119205Y-95894700D01*
X100119205Y-95894700D02*
X100071586Y-95847080D01*
X50736190Y-63870890D02*
X50640952Y-63823271D01*
X50640952Y-63823271D02*
X50593333Y-63775652D01*
X50593333Y-63775652D02*
X50545714Y-63680414D01*
X50545714Y-63680414D02*
X50545714Y-63632795D01*
X50545714Y-63632795D02*
X50593333Y-63537557D01*
X50593333Y-63537557D02*
X50640952Y-63489938D01*
X50640952Y-63489938D02*
X50736190Y-63442319D01*
X50736190Y-63442319D02*
X50926666Y-63442319D01*
X50926666Y-63442319D02*
X51021904Y-63489938D01*
X51021904Y-63489938D02*
X51069523Y-63537557D01*
X51069523Y-63537557D02*
X51117142Y-63632795D01*
X51117142Y-63632795D02*
X51117142Y-63680414D01*
X51117142Y-63680414D02*
X51069523Y-63775652D01*
X51069523Y-63775652D02*
X51021904Y-63823271D01*
X51021904Y-63823271D02*
X50926666Y-63870890D01*
X50926666Y-63870890D02*
X50736190Y-63870890D01*
X50736190Y-63870890D02*
X50640952Y-63918509D01*
X50640952Y-63918509D02*
X50593333Y-63966128D01*
X50593333Y-63966128D02*
X50545714Y-64061366D01*
X50545714Y-64061366D02*
X50545714Y-64251842D01*
X50545714Y-64251842D02*
X50593333Y-64347080D01*
X50593333Y-64347080D02*
X50640952Y-64394700D01*
X50640952Y-64394700D02*
X50736190Y-64442319D01*
X50736190Y-64442319D02*
X50926666Y-64442319D01*
X50926666Y-64442319D02*
X51021904Y-64394700D01*
X51021904Y-64394700D02*
X51069523Y-64347080D01*
X51069523Y-64347080D02*
X51117142Y-64251842D01*
X51117142Y-64251842D02*
X51117142Y-64061366D01*
X51117142Y-64061366D02*
X51069523Y-63966128D01*
X51069523Y-63966128D02*
X51021904Y-63918509D01*
X51021904Y-63918509D02*
X50926666Y-63870890D01*
X51545714Y-63775652D02*
X51545714Y-64442319D01*
X51545714Y-63870890D02*
X51593333Y-63823271D01*
X51593333Y-63823271D02*
X51688571Y-63775652D01*
X51688571Y-63775652D02*
X51831428Y-63775652D01*
X51831428Y-63775652D02*
X51926666Y-63823271D01*
X51926666Y-63823271D02*
X51974285Y-63918509D01*
X51974285Y-63918509D02*
X51974285Y-64442319D01*
X52402857Y-63537557D02*
X52450476Y-63489938D01*
X52450476Y-63489938D02*
X52545714Y-63442319D01*
X52545714Y-63442319D02*
X52783809Y-63442319D01*
X52783809Y-63442319D02*
X52879047Y-63489938D01*
X52879047Y-63489938D02*
X52926666Y-63537557D01*
X52926666Y-63537557D02*
X52974285Y-63632795D01*
X52974285Y-63632795D02*
X52974285Y-63728033D01*
X52974285Y-63728033D02*
X52926666Y-63870890D01*
X52926666Y-63870890D02*
X52355238Y-64442319D01*
X52355238Y-64442319D02*
X52974285Y-64442319D01*
X51593333Y-61847080D02*
X51545714Y-61894700D01*
X51545714Y-61894700D02*
X51402857Y-61942319D01*
X51402857Y-61942319D02*
X51307619Y-61942319D01*
X51307619Y-61942319D02*
X51164762Y-61894700D01*
X51164762Y-61894700D02*
X51069524Y-61799461D01*
X51069524Y-61799461D02*
X51021905Y-61704223D01*
X51021905Y-61704223D02*
X50974286Y-61513747D01*
X50974286Y-61513747D02*
X50974286Y-61370890D01*
X50974286Y-61370890D02*
X51021905Y-61180414D01*
X51021905Y-61180414D02*
X51069524Y-61085176D01*
X51069524Y-61085176D02*
X51164762Y-60989938D01*
X51164762Y-60989938D02*
X51307619Y-60942319D01*
X51307619Y-60942319D02*
X51402857Y-60942319D01*
X51402857Y-60942319D02*
X51545714Y-60989938D01*
X51545714Y-60989938D02*
X51593333Y-61037557D01*
X52450476Y-61275652D02*
X52450476Y-61942319D01*
X52212381Y-60894700D02*
X51974286Y-61608985D01*
X51974286Y-61608985D02*
X52593333Y-61608985D01*
X104164760Y-100927080D02*
X104117141Y-100974700D01*
X104117141Y-100974700D02*
X103974284Y-101022319D01*
X103974284Y-101022319D02*
X103879046Y-101022319D01*
X103879046Y-101022319D02*
X103736189Y-100974700D01*
X103736189Y-100974700D02*
X103640951Y-100879461D01*
X103640951Y-100879461D02*
X103593332Y-100784223D01*
X103593332Y-100784223D02*
X103545713Y-100593747D01*
X103545713Y-100593747D02*
X103545713Y-100450890D01*
X103545713Y-100450890D02*
X103593332Y-100260414D01*
X103593332Y-100260414D02*
X103640951Y-100165176D01*
X103640951Y-100165176D02*
X103736189Y-100069938D01*
X103736189Y-100069938D02*
X103879046Y-100022319D01*
X103879046Y-100022319D02*
X103974284Y-100022319D01*
X103974284Y-100022319D02*
X104117141Y-100069938D01*
X104117141Y-100069938D02*
X104164760Y-100117557D01*
X104736189Y-101022319D02*
X104640951Y-100974700D01*
X104640951Y-100974700D02*
X104593332Y-100927080D01*
X104593332Y-100927080D02*
X104545713Y-100831842D01*
X104545713Y-100831842D02*
X104545713Y-100546128D01*
X104545713Y-100546128D02*
X104593332Y-100450890D01*
X104593332Y-100450890D02*
X104640951Y-100403271D01*
X104640951Y-100403271D02*
X104736189Y-100355652D01*
X104736189Y-100355652D02*
X104879046Y-100355652D01*
X104879046Y-100355652D02*
X104974284Y-100403271D01*
X104974284Y-100403271D02*
X105021903Y-100450890D01*
X105021903Y-100450890D02*
X105069522Y-100546128D01*
X105069522Y-100546128D02*
X105069522Y-100831842D01*
X105069522Y-100831842D02*
X105021903Y-100927080D01*
X105021903Y-100927080D02*
X104974284Y-100974700D01*
X104974284Y-100974700D02*
X104879046Y-101022319D01*
X104879046Y-101022319D02*
X104736189Y-101022319D01*
X105498094Y-100355652D02*
X105498094Y-101022319D01*
X105498094Y-100450890D02*
X105545713Y-100403271D01*
X105545713Y-100403271D02*
X105640951Y-100355652D01*
X105640951Y-100355652D02*
X105783808Y-100355652D01*
X105783808Y-100355652D02*
X105879046Y-100403271D01*
X105879046Y-100403271D02*
X105926665Y-100498509D01*
X105926665Y-100498509D02*
X105926665Y-101022319D01*
X106402856Y-100355652D02*
X106402856Y-101022319D01*
X106402856Y-100450890D02*
X106450475Y-100403271D01*
X106450475Y-100403271D02*
X106545713Y-100355652D01*
X106545713Y-100355652D02*
X106688570Y-100355652D01*
X106688570Y-100355652D02*
X106783808Y-100403271D01*
X106783808Y-100403271D02*
X106831427Y-100498509D01*
X106831427Y-100498509D02*
X106831427Y-101022319D01*
X107069523Y-101117557D02*
X107831427Y-101117557D01*
X108259999Y-100022319D02*
X108355237Y-100022319D01*
X108355237Y-100022319D02*
X108450475Y-100069938D01*
X108450475Y-100069938D02*
X108498094Y-100117557D01*
X108498094Y-100117557D02*
X108545713Y-100212795D01*
X108545713Y-100212795D02*
X108593332Y-100403271D01*
X108593332Y-100403271D02*
X108593332Y-100641366D01*
X108593332Y-100641366D02*
X108545713Y-100831842D01*
X108545713Y-100831842D02*
X108498094Y-100927080D01*
X108498094Y-100927080D02*
X108450475Y-100974700D01*
X108450475Y-100974700D02*
X108355237Y-101022319D01*
X108355237Y-101022319D02*
X108259999Y-101022319D01*
X108259999Y-101022319D02*
X108164761Y-100974700D01*
X108164761Y-100974700D02*
X108117142Y-100927080D01*
X108117142Y-100927080D02*
X108069523Y-100831842D01*
X108069523Y-100831842D02*
X108021904Y-100641366D01*
X108021904Y-100641366D02*
X108021904Y-100403271D01*
X108021904Y-100403271D02*
X108069523Y-100212795D01*
X108069523Y-100212795D02*
X108117142Y-100117557D01*
X108117142Y-100117557D02*
X108164761Y-100069938D01*
X108164761Y-100069938D02*
X108259999Y-100022319D01*
X109545713Y-101022319D02*
X108974285Y-101022319D01*
X109259999Y-101022319D02*
X109259999Y-100022319D01*
X109259999Y-100022319D02*
X109164761Y-100165176D01*
X109164761Y-100165176D02*
X109069523Y-100260414D01*
X109069523Y-100260414D02*
X108974285Y-100308033D01*
X109879047Y-101022319D02*
X110402856Y-100355652D01*
X109879047Y-100355652D02*
X110402856Y-101022319D01*
X110974285Y-100022319D02*
X111069523Y-100022319D01*
X111069523Y-100022319D02*
X111164761Y-100069938D01*
X111164761Y-100069938D02*
X111212380Y-100117557D01*
X111212380Y-100117557D02*
X111259999Y-100212795D01*
X111259999Y-100212795D02*
X111307618Y-100403271D01*
X111307618Y-100403271D02*
X111307618Y-100641366D01*
X111307618Y-100641366D02*
X111259999Y-100831842D01*
X111259999Y-100831842D02*
X111212380Y-100927080D01*
X111212380Y-100927080D02*
X111164761Y-100974700D01*
X111164761Y-100974700D02*
X111069523Y-101022319D01*
X111069523Y-101022319D02*
X110974285Y-101022319D01*
X110974285Y-101022319D02*
X110879047Y-100974700D01*
X110879047Y-100974700D02*
X110831428Y-100927080D01*
X110831428Y-100927080D02*
X110783809Y-100831842D01*
X110783809Y-100831842D02*
X110736190Y-100641366D01*
X110736190Y-100641366D02*
X110736190Y-100403271D01*
X110736190Y-100403271D02*
X110783809Y-100212795D01*
X110783809Y-100212795D02*
X110831428Y-100117557D01*
X110831428Y-100117557D02*
X110879047Y-100069938D01*
X110879047Y-100069938D02*
X110974285Y-100022319D01*
X111688571Y-100117557D02*
X111736190Y-100069938D01*
X111736190Y-100069938D02*
X111831428Y-100022319D01*
X111831428Y-100022319D02*
X112069523Y-100022319D01*
X112069523Y-100022319D02*
X112164761Y-100069938D01*
X112164761Y-100069938D02*
X112212380Y-100117557D01*
X112212380Y-100117557D02*
X112259999Y-100212795D01*
X112259999Y-100212795D02*
X112259999Y-100308033D01*
X112259999Y-100308033D02*
X112212380Y-100450890D01*
X112212380Y-100450890D02*
X111640952Y-101022319D01*
X111640952Y-101022319D02*
X112259999Y-101022319D01*
X112450476Y-101117557D02*
X113212380Y-101117557D01*
X113402857Y-100974700D02*
X113545714Y-101022319D01*
X113545714Y-101022319D02*
X113783809Y-101022319D01*
X113783809Y-101022319D02*
X113879047Y-100974700D01*
X113879047Y-100974700D02*
X113926666Y-100927080D01*
X113926666Y-100927080D02*
X113974285Y-100831842D01*
X113974285Y-100831842D02*
X113974285Y-100736604D01*
X113974285Y-100736604D02*
X113926666Y-100641366D01*
X113926666Y-100641366D02*
X113879047Y-100593747D01*
X113879047Y-100593747D02*
X113783809Y-100546128D01*
X113783809Y-100546128D02*
X113593333Y-100498509D01*
X113593333Y-100498509D02*
X113498095Y-100450890D01*
X113498095Y-100450890D02*
X113450476Y-100403271D01*
X113450476Y-100403271D02*
X113402857Y-100308033D01*
X113402857Y-100308033D02*
X113402857Y-100212795D01*
X113402857Y-100212795D02*
X113450476Y-100117557D01*
X113450476Y-100117557D02*
X113498095Y-100069938D01*
X113498095Y-100069938D02*
X113593333Y-100022319D01*
X113593333Y-100022319D02*
X113831428Y-100022319D01*
X113831428Y-100022319D02*
X113974285Y-100069938D01*
X114545714Y-101022319D02*
X114450476Y-100974700D01*
X114450476Y-100974700D02*
X114402857Y-100927080D01*
X114402857Y-100927080D02*
X114355238Y-100831842D01*
X114355238Y-100831842D02*
X114355238Y-100546128D01*
X114355238Y-100546128D02*
X114402857Y-100450890D01*
X114402857Y-100450890D02*
X114450476Y-100403271D01*
X114450476Y-100403271D02*
X114545714Y-100355652D01*
X114545714Y-100355652D02*
X114688571Y-100355652D01*
X114688571Y-100355652D02*
X114783809Y-100403271D01*
X114783809Y-100403271D02*
X114831428Y-100450890D01*
X114831428Y-100450890D02*
X114879047Y-100546128D01*
X114879047Y-100546128D02*
X114879047Y-100831842D01*
X114879047Y-100831842D02*
X114831428Y-100927080D01*
X114831428Y-100927080D02*
X114783809Y-100974700D01*
X114783809Y-100974700D02*
X114688571Y-101022319D01*
X114688571Y-101022319D02*
X114545714Y-101022319D01*
X115736190Y-100974700D02*
X115640952Y-101022319D01*
X115640952Y-101022319D02*
X115450476Y-101022319D01*
X115450476Y-101022319D02*
X115355238Y-100974700D01*
X115355238Y-100974700D02*
X115307619Y-100927080D01*
X115307619Y-100927080D02*
X115260000Y-100831842D01*
X115260000Y-100831842D02*
X115260000Y-100546128D01*
X115260000Y-100546128D02*
X115307619Y-100450890D01*
X115307619Y-100450890D02*
X115355238Y-100403271D01*
X115355238Y-100403271D02*
X115450476Y-100355652D01*
X115450476Y-100355652D02*
X115640952Y-100355652D01*
X115640952Y-100355652D02*
X115736190Y-100403271D01*
X116164762Y-101022319D02*
X116164762Y-100022319D01*
X116260000Y-100641366D02*
X116545714Y-101022319D01*
X116545714Y-100355652D02*
X116164762Y-100736604D01*
X117355238Y-100974700D02*
X117260000Y-101022319D01*
X117260000Y-101022319D02*
X117069524Y-101022319D01*
X117069524Y-101022319D02*
X116974286Y-100974700D01*
X116974286Y-100974700D02*
X116926667Y-100879461D01*
X116926667Y-100879461D02*
X116926667Y-100498509D01*
X116926667Y-100498509D02*
X116974286Y-100403271D01*
X116974286Y-100403271D02*
X117069524Y-100355652D01*
X117069524Y-100355652D02*
X117260000Y-100355652D01*
X117260000Y-100355652D02*
X117355238Y-100403271D01*
X117355238Y-100403271D02*
X117402857Y-100498509D01*
X117402857Y-100498509D02*
X117402857Y-100593747D01*
X117402857Y-100593747D02*
X116926667Y-100688985D01*
X117688572Y-100355652D02*
X118069524Y-100355652D01*
X117831429Y-100022319D02*
X117831429Y-100879461D01*
X117831429Y-100879461D02*
X117879048Y-100974700D01*
X117879048Y-100974700D02*
X117974286Y-101022319D01*
X117974286Y-101022319D02*
X118069524Y-101022319D01*
X110426666Y-94942319D02*
X110426666Y-95656604D01*
X110426666Y-95656604D02*
X110379047Y-95799461D01*
X110379047Y-95799461D02*
X110283809Y-95894700D01*
X110283809Y-95894700D02*
X110140952Y-95942319D01*
X110140952Y-95942319D02*
X110045714Y-95942319D01*
X110807619Y-94942319D02*
X111426666Y-94942319D01*
X111426666Y-94942319D02*
X111093333Y-95323271D01*
X111093333Y-95323271D02*
X111236190Y-95323271D01*
X111236190Y-95323271D02*
X111331428Y-95370890D01*
X111331428Y-95370890D02*
X111379047Y-95418509D01*
X111379047Y-95418509D02*
X111426666Y-95513747D01*
X111426666Y-95513747D02*
X111426666Y-95751842D01*
X111426666Y-95751842D02*
X111379047Y-95847080D01*
X111379047Y-95847080D02*
X111331428Y-95894700D01*
X111331428Y-95894700D02*
X111236190Y-95942319D01*
X111236190Y-95942319D02*
X110950476Y-95942319D01*
X110950476Y-95942319D02*
X110855238Y-95894700D01*
X110855238Y-95894700D02*
X110807619Y-95847080D01*
X56021905Y-77407557D02*
X56069524Y-77359938D01*
X56069524Y-77359938D02*
X56164762Y-77312319D01*
X56164762Y-77312319D02*
X56402857Y-77312319D01*
X56402857Y-77312319D02*
X56498095Y-77359938D01*
X56498095Y-77359938D02*
X56545714Y-77407557D01*
X56545714Y-77407557D02*
X56593333Y-77502795D01*
X56593333Y-77502795D02*
X56593333Y-77598033D01*
X56593333Y-77598033D02*
X56545714Y-77740890D01*
X56545714Y-77740890D02*
X55974286Y-78312319D01*
X55974286Y-78312319D02*
X56593333Y-78312319D01*
X57212381Y-77312319D02*
X57307619Y-77312319D01*
X57307619Y-77312319D02*
X57402857Y-77359938D01*
X57402857Y-77359938D02*
X57450476Y-77407557D01*
X57450476Y-77407557D02*
X57498095Y-77502795D01*
X57498095Y-77502795D02*
X57545714Y-77693271D01*
X57545714Y-77693271D02*
X57545714Y-77931366D01*
X57545714Y-77931366D02*
X57498095Y-78121842D01*
X57498095Y-78121842D02*
X57450476Y-78217080D01*
X57450476Y-78217080D02*
X57402857Y-78264700D01*
X57402857Y-78264700D02*
X57307619Y-78312319D01*
X57307619Y-78312319D02*
X57212381Y-78312319D01*
X57212381Y-78312319D02*
X57117143Y-78264700D01*
X57117143Y-78264700D02*
X57069524Y-78217080D01*
X57069524Y-78217080D02*
X57021905Y-78121842D01*
X57021905Y-78121842D02*
X56974286Y-77931366D01*
X56974286Y-77931366D02*
X56974286Y-77693271D01*
X56974286Y-77693271D02*
X57021905Y-77502795D01*
X57021905Y-77502795D02*
X57069524Y-77407557D01*
X57069524Y-77407557D02*
X57117143Y-77359938D01*
X57117143Y-77359938D02*
X57212381Y-77312319D01*
X58164762Y-77312319D02*
X58260000Y-77312319D01*
X58260000Y-77312319D02*
X58355238Y-77359938D01*
X58355238Y-77359938D02*
X58402857Y-77407557D01*
X58402857Y-77407557D02*
X58450476Y-77502795D01*
X58450476Y-77502795D02*
X58498095Y-77693271D01*
X58498095Y-77693271D02*
X58498095Y-77931366D01*
X58498095Y-77931366D02*
X58450476Y-78121842D01*
X58450476Y-78121842D02*
X58402857Y-78217080D01*
X58402857Y-78217080D02*
X58355238Y-78264700D01*
X58355238Y-78264700D02*
X58260000Y-78312319D01*
X58260000Y-78312319D02*
X58164762Y-78312319D01*
X58164762Y-78312319D02*
X58069524Y-78264700D01*
X58069524Y-78264700D02*
X58021905Y-78217080D01*
X58021905Y-78217080D02*
X57974286Y-78121842D01*
X57974286Y-78121842D02*
X57926667Y-77931366D01*
X57926667Y-77931366D02*
X57926667Y-77693271D01*
X57926667Y-77693271D02*
X57974286Y-77502795D01*
X57974286Y-77502795D02*
X58021905Y-77407557D01*
X58021905Y-77407557D02*
X58069524Y-77359938D01*
X58069524Y-77359938D02*
X58164762Y-77312319D01*
X59498095Y-78312319D02*
X59164762Y-77836128D01*
X58926667Y-78312319D02*
X58926667Y-77312319D01*
X58926667Y-77312319D02*
X59307619Y-77312319D01*
X59307619Y-77312319D02*
X59402857Y-77359938D01*
X59402857Y-77359938D02*
X59450476Y-77407557D01*
X59450476Y-77407557D02*
X59498095Y-77502795D01*
X59498095Y-77502795D02*
X59498095Y-77645652D01*
X59498095Y-77645652D02*
X59450476Y-77740890D01*
X59450476Y-77740890D02*
X59402857Y-77788509D01*
X59402857Y-77788509D02*
X59307619Y-77836128D01*
X59307619Y-77836128D02*
X58926667Y-77836128D01*
X57593333Y-75942319D02*
X57260000Y-75466128D01*
X57021905Y-75942319D02*
X57021905Y-74942319D01*
X57021905Y-74942319D02*
X57402857Y-74942319D01*
X57402857Y-74942319D02*
X57498095Y-74989938D01*
X57498095Y-74989938D02*
X57545714Y-75037557D01*
X57545714Y-75037557D02*
X57593333Y-75132795D01*
X57593333Y-75132795D02*
X57593333Y-75275652D01*
X57593333Y-75275652D02*
X57545714Y-75370890D01*
X57545714Y-75370890D02*
X57498095Y-75418509D01*
X57498095Y-75418509D02*
X57402857Y-75466128D01*
X57402857Y-75466128D02*
X57021905Y-75466128D01*
X58545714Y-75942319D02*
X57974286Y-75942319D01*
X58260000Y-75942319D02*
X58260000Y-74942319D01*
X58260000Y-74942319D02*
X58164762Y-75085176D01*
X58164762Y-75085176D02*
X58069524Y-75180414D01*
X58069524Y-75180414D02*
X57974286Y-75228033D01*
X70474285Y-80145652D02*
X70474285Y-80812319D01*
X70236190Y-79764700D02*
X69998095Y-80478985D01*
X69998095Y-80478985D02*
X70617142Y-80478985D01*
X70998095Y-80812319D02*
X70998095Y-79812319D01*
X70998095Y-79812319D02*
X71569523Y-80812319D01*
X71569523Y-80812319D02*
X71569523Y-79812319D01*
X71998095Y-79907557D02*
X72045714Y-79859938D01*
X72045714Y-79859938D02*
X72140952Y-79812319D01*
X72140952Y-79812319D02*
X72379047Y-79812319D01*
X72379047Y-79812319D02*
X72474285Y-79859938D01*
X72474285Y-79859938D02*
X72521904Y-79907557D01*
X72521904Y-79907557D02*
X72569523Y-80002795D01*
X72569523Y-80002795D02*
X72569523Y-80098033D01*
X72569523Y-80098033D02*
X72521904Y-80240890D01*
X72521904Y-80240890D02*
X71950476Y-80812319D01*
X71950476Y-80812319D02*
X72569523Y-80812319D01*
X73474285Y-79812319D02*
X72998095Y-79812319D01*
X72998095Y-79812319D02*
X72950476Y-80288509D01*
X72950476Y-80288509D02*
X72998095Y-80240890D01*
X72998095Y-80240890D02*
X73093333Y-80193271D01*
X73093333Y-80193271D02*
X73331428Y-80193271D01*
X73331428Y-80193271D02*
X73426666Y-80240890D01*
X73426666Y-80240890D02*
X73474285Y-80288509D01*
X73474285Y-80288509D02*
X73521904Y-80383747D01*
X73521904Y-80383747D02*
X73521904Y-80621842D01*
X73521904Y-80621842D02*
X73474285Y-80717080D01*
X73474285Y-80717080D02*
X73426666Y-80764700D01*
X73426666Y-80764700D02*
X73331428Y-80812319D01*
X73331428Y-80812319D02*
X73093333Y-80812319D01*
X73093333Y-80812319D02*
X72998095Y-80764700D01*
X72998095Y-80764700D02*
X72950476Y-80717080D01*
X71214819Y-76249404D02*
X72024342Y-76249404D01*
X72024342Y-76249404D02*
X72119580Y-76201785D01*
X72119580Y-76201785D02*
X72167200Y-76154166D01*
X72167200Y-76154166D02*
X72214819Y-76058928D01*
X72214819Y-76058928D02*
X72214819Y-75868452D01*
X72214819Y-75868452D02*
X72167200Y-75773214D01*
X72167200Y-75773214D02*
X72119580Y-75725595D01*
X72119580Y-75725595D02*
X72024342Y-75677976D01*
X72024342Y-75677976D02*
X71214819Y-75677976D01*
X71310057Y-75249404D02*
X71262438Y-75201785D01*
X71262438Y-75201785D02*
X71214819Y-75106547D01*
X71214819Y-75106547D02*
X71214819Y-74868452D01*
X71214819Y-74868452D02*
X71262438Y-74773214D01*
X71262438Y-74773214D02*
X71310057Y-74725595D01*
X71310057Y-74725595D02*
X71405295Y-74677976D01*
X71405295Y-74677976D02*
X71500533Y-74677976D01*
X71500533Y-74677976D02*
X71643390Y-74725595D01*
X71643390Y-74725595D02*
X72214819Y-75297023D01*
X72214819Y-75297023D02*
X72214819Y-74677976D01*
X72640952Y-104942319D02*
X72069524Y-104942319D01*
X72355238Y-104942319D02*
X72355238Y-103942319D01*
X72355238Y-103942319D02*
X72260000Y-104085176D01*
X72260000Y-104085176D02*
X72164762Y-104180414D01*
X72164762Y-104180414D02*
X72069524Y-104228033D01*
X73021905Y-104037557D02*
X73069524Y-103989938D01*
X73069524Y-103989938D02*
X73164762Y-103942319D01*
X73164762Y-103942319D02*
X73402857Y-103942319D01*
X73402857Y-103942319D02*
X73498095Y-103989938D01*
X73498095Y-103989938D02*
X73545714Y-104037557D01*
X73545714Y-104037557D02*
X73593333Y-104132795D01*
X73593333Y-104132795D02*
X73593333Y-104228033D01*
X73593333Y-104228033D02*
X73545714Y-104370890D01*
X73545714Y-104370890D02*
X72974286Y-104942319D01*
X72974286Y-104942319D02*
X73593333Y-104942319D01*
X74545714Y-104942319D02*
X73974286Y-104942319D01*
X74260000Y-104942319D02*
X74260000Y-103942319D01*
X74260000Y-103942319D02*
X74164762Y-104085176D01*
X74164762Y-104085176D02*
X74069524Y-104180414D01*
X74069524Y-104180414D02*
X73974286Y-104228033D01*
X75402857Y-104275652D02*
X75402857Y-104942319D01*
X74974286Y-104275652D02*
X74974286Y-104799461D01*
X74974286Y-104799461D02*
X75021905Y-104894700D01*
X75021905Y-104894700D02*
X75117143Y-104942319D01*
X75117143Y-104942319D02*
X75260000Y-104942319D01*
X75260000Y-104942319D02*
X75355238Y-104894700D01*
X75355238Y-104894700D02*
X75402857Y-104847080D01*
X73593333Y-95942319D02*
X73117143Y-95942319D01*
X73117143Y-95942319D02*
X73117143Y-94942319D01*
X74450476Y-95942319D02*
X73879048Y-95942319D01*
X74164762Y-95942319D02*
X74164762Y-94942319D01*
X74164762Y-94942319D02*
X74069524Y-95085176D01*
X74069524Y-95085176D02*
X73974286Y-95180414D01*
X73974286Y-95180414D02*
X73879048Y-95228033D01*
X60640952Y-64442319D02*
X60069524Y-64442319D01*
X60355238Y-64442319D02*
X60355238Y-63442319D01*
X60355238Y-63442319D02*
X60260000Y-63585176D01*
X60260000Y-63585176D02*
X60164762Y-63680414D01*
X60164762Y-63680414D02*
X60069524Y-63728033D01*
X61260000Y-63442319D02*
X61355238Y-63442319D01*
X61355238Y-63442319D02*
X61450476Y-63489938D01*
X61450476Y-63489938D02*
X61498095Y-63537557D01*
X61498095Y-63537557D02*
X61545714Y-63632795D01*
X61545714Y-63632795D02*
X61593333Y-63823271D01*
X61593333Y-63823271D02*
X61593333Y-64061366D01*
X61593333Y-64061366D02*
X61545714Y-64251842D01*
X61545714Y-64251842D02*
X61498095Y-64347080D01*
X61498095Y-64347080D02*
X61450476Y-64394700D01*
X61450476Y-64394700D02*
X61355238Y-64442319D01*
X61355238Y-64442319D02*
X61260000Y-64442319D01*
X61260000Y-64442319D02*
X61164762Y-64394700D01*
X61164762Y-64394700D02*
X61117143Y-64347080D01*
X61117143Y-64347080D02*
X61069524Y-64251842D01*
X61069524Y-64251842D02*
X61021905Y-64061366D01*
X61021905Y-64061366D02*
X61021905Y-63823271D01*
X61021905Y-63823271D02*
X61069524Y-63632795D01*
X61069524Y-63632795D02*
X61117143Y-63537557D01*
X61117143Y-63537557D02*
X61164762Y-63489938D01*
X61164762Y-63489938D02*
X61260000Y-63442319D01*
X62212381Y-63442319D02*
X62307619Y-63442319D01*
X62307619Y-63442319D02*
X62402857Y-63489938D01*
X62402857Y-63489938D02*
X62450476Y-63537557D01*
X62450476Y-63537557D02*
X62498095Y-63632795D01*
X62498095Y-63632795D02*
X62545714Y-63823271D01*
X62545714Y-63823271D02*
X62545714Y-64061366D01*
X62545714Y-64061366D02*
X62498095Y-64251842D01*
X62498095Y-64251842D02*
X62450476Y-64347080D01*
X62450476Y-64347080D02*
X62402857Y-64394700D01*
X62402857Y-64394700D02*
X62307619Y-64442319D01*
X62307619Y-64442319D02*
X62212381Y-64442319D01*
X62212381Y-64442319D02*
X62117143Y-64394700D01*
X62117143Y-64394700D02*
X62069524Y-64347080D01*
X62069524Y-64347080D02*
X62021905Y-64251842D01*
X62021905Y-64251842D02*
X61974286Y-64061366D01*
X61974286Y-64061366D02*
X61974286Y-63823271D01*
X61974286Y-63823271D02*
X62021905Y-63632795D01*
X62021905Y-63632795D02*
X62069524Y-63537557D01*
X62069524Y-63537557D02*
X62117143Y-63489938D01*
X62117143Y-63489938D02*
X62212381Y-63442319D01*
X62974286Y-63775652D02*
X62974286Y-64442319D01*
X62974286Y-63870890D02*
X63021905Y-63823271D01*
X63021905Y-63823271D02*
X63117143Y-63775652D01*
X63117143Y-63775652D02*
X63260000Y-63775652D01*
X63260000Y-63775652D02*
X63355238Y-63823271D01*
X63355238Y-63823271D02*
X63402857Y-63918509D01*
X63402857Y-63918509D02*
X63402857Y-64442319D01*
X61593333Y-61847080D02*
X61545714Y-61894700D01*
X61545714Y-61894700D02*
X61402857Y-61942319D01*
X61402857Y-61942319D02*
X61307619Y-61942319D01*
X61307619Y-61942319D02*
X61164762Y-61894700D01*
X61164762Y-61894700D02*
X61069524Y-61799461D01*
X61069524Y-61799461D02*
X61021905Y-61704223D01*
X61021905Y-61704223D02*
X60974286Y-61513747D01*
X60974286Y-61513747D02*
X60974286Y-61370890D01*
X60974286Y-61370890D02*
X61021905Y-61180414D01*
X61021905Y-61180414D02*
X61069524Y-61085176D01*
X61069524Y-61085176D02*
X61164762Y-60989938D01*
X61164762Y-60989938D02*
X61307619Y-60942319D01*
X61307619Y-60942319D02*
X61402857Y-60942319D01*
X61402857Y-60942319D02*
X61545714Y-60989938D01*
X61545714Y-60989938D02*
X61593333Y-61037557D01*
X61926667Y-60942319D02*
X62545714Y-60942319D01*
X62545714Y-60942319D02*
X62212381Y-61323271D01*
X62212381Y-61323271D02*
X62355238Y-61323271D01*
X62355238Y-61323271D02*
X62450476Y-61370890D01*
X62450476Y-61370890D02*
X62498095Y-61418509D01*
X62498095Y-61418509D02*
X62545714Y-61513747D01*
X62545714Y-61513747D02*
X62545714Y-61751842D01*
X62545714Y-61751842D02*
X62498095Y-61847080D01*
X62498095Y-61847080D02*
X62450476Y-61894700D01*
X62450476Y-61894700D02*
X62355238Y-61942319D01*
X62355238Y-61942319D02*
X62069524Y-61942319D01*
X62069524Y-61942319D02*
X61974286Y-61894700D01*
X61974286Y-61894700D02*
X61926667Y-61847080D01*
X33164761Y-52312319D02*
X32593333Y-52312319D01*
X32879047Y-52312319D02*
X32879047Y-51312319D01*
X32879047Y-51312319D02*
X32783809Y-51455176D01*
X32783809Y-51455176D02*
X32688571Y-51550414D01*
X32688571Y-51550414D02*
X32593333Y-51598033D01*
X33783809Y-51312319D02*
X33879047Y-51312319D01*
X33879047Y-51312319D02*
X33974285Y-51359938D01*
X33974285Y-51359938D02*
X34021904Y-51407557D01*
X34021904Y-51407557D02*
X34069523Y-51502795D01*
X34069523Y-51502795D02*
X34117142Y-51693271D01*
X34117142Y-51693271D02*
X34117142Y-51931366D01*
X34117142Y-51931366D02*
X34069523Y-52121842D01*
X34069523Y-52121842D02*
X34021904Y-52217080D01*
X34021904Y-52217080D02*
X33974285Y-52264700D01*
X33974285Y-52264700D02*
X33879047Y-52312319D01*
X33879047Y-52312319D02*
X33783809Y-52312319D01*
X33783809Y-52312319D02*
X33688571Y-52264700D01*
X33688571Y-52264700D02*
X33640952Y-52217080D01*
X33640952Y-52217080D02*
X33593333Y-52121842D01*
X33593333Y-52121842D02*
X33545714Y-51931366D01*
X33545714Y-51931366D02*
X33545714Y-51693271D01*
X33545714Y-51693271D02*
X33593333Y-51502795D01*
X33593333Y-51502795D02*
X33640952Y-51407557D01*
X33640952Y-51407557D02*
X33688571Y-51359938D01*
X33688571Y-51359938D02*
X33783809Y-51312319D01*
X34545714Y-52312319D02*
X34545714Y-51312319D01*
X34640952Y-51931366D02*
X34926666Y-52312319D01*
X34926666Y-51645652D02*
X34545714Y-52026604D01*
X33593333Y-49942319D02*
X33260000Y-49466128D01*
X33021905Y-49942319D02*
X33021905Y-48942319D01*
X33021905Y-48942319D02*
X33402857Y-48942319D01*
X33402857Y-48942319D02*
X33498095Y-48989938D01*
X33498095Y-48989938D02*
X33545714Y-49037557D01*
X33545714Y-49037557D02*
X33593333Y-49132795D01*
X33593333Y-49132795D02*
X33593333Y-49275652D01*
X33593333Y-49275652D02*
X33545714Y-49370890D01*
X33545714Y-49370890D02*
X33498095Y-49418509D01*
X33498095Y-49418509D02*
X33402857Y-49466128D01*
X33402857Y-49466128D02*
X33021905Y-49466128D01*
X33974286Y-49037557D02*
X34021905Y-48989938D01*
X34021905Y-48989938D02*
X34117143Y-48942319D01*
X34117143Y-48942319D02*
X34355238Y-48942319D01*
X34355238Y-48942319D02*
X34450476Y-48989938D01*
X34450476Y-48989938D02*
X34498095Y-49037557D01*
X34498095Y-49037557D02*
X34545714Y-49132795D01*
X34545714Y-49132795D02*
X34545714Y-49228033D01*
X34545714Y-49228033D02*
X34498095Y-49370890D01*
X34498095Y-49370890D02*
X33926667Y-49942319D01*
X33926667Y-49942319D02*
X34545714Y-49942319D01*
X55617142Y-52062319D02*
X55045714Y-52062319D01*
X55331428Y-52062319D02*
X55331428Y-51062319D01*
X55331428Y-51062319D02*
X55236190Y-51205176D01*
X55236190Y-51205176D02*
X55140952Y-51300414D01*
X55140952Y-51300414D02*
X55045714Y-51348033D01*
X56045714Y-52062319D02*
X56045714Y-51062319D01*
X56045714Y-51062319D02*
X56617142Y-52062319D01*
X56617142Y-52062319D02*
X56617142Y-51062319D01*
X57521904Y-51395652D02*
X57521904Y-52062319D01*
X57283809Y-51014700D02*
X57045714Y-51728985D01*
X57045714Y-51728985D02*
X57664761Y-51728985D01*
X58569523Y-52062319D02*
X57998095Y-52062319D01*
X58283809Y-52062319D02*
X58283809Y-51062319D01*
X58283809Y-51062319D02*
X58188571Y-51205176D01*
X58188571Y-51205176D02*
X58093333Y-51300414D01*
X58093333Y-51300414D02*
X57998095Y-51348033D01*
X59426666Y-51395652D02*
X59426666Y-52062319D01*
X59188571Y-51014700D02*
X58950476Y-51728985D01*
X58950476Y-51728985D02*
X59569523Y-51728985D01*
X60093333Y-51490890D02*
X59998095Y-51443271D01*
X59998095Y-51443271D02*
X59950476Y-51395652D01*
X59950476Y-51395652D02*
X59902857Y-51300414D01*
X59902857Y-51300414D02*
X59902857Y-51252795D01*
X59902857Y-51252795D02*
X59950476Y-51157557D01*
X59950476Y-51157557D02*
X59998095Y-51109938D01*
X59998095Y-51109938D02*
X60093333Y-51062319D01*
X60093333Y-51062319D02*
X60283809Y-51062319D01*
X60283809Y-51062319D02*
X60379047Y-51109938D01*
X60379047Y-51109938D02*
X60426666Y-51157557D01*
X60426666Y-51157557D02*
X60474285Y-51252795D01*
X60474285Y-51252795D02*
X60474285Y-51300414D01*
X60474285Y-51300414D02*
X60426666Y-51395652D01*
X60426666Y-51395652D02*
X60379047Y-51443271D01*
X60379047Y-51443271D02*
X60283809Y-51490890D01*
X60283809Y-51490890D02*
X60093333Y-51490890D01*
X60093333Y-51490890D02*
X59998095Y-51538509D01*
X59998095Y-51538509D02*
X59950476Y-51586128D01*
X59950476Y-51586128D02*
X59902857Y-51681366D01*
X59902857Y-51681366D02*
X59902857Y-51871842D01*
X59902857Y-51871842D02*
X59950476Y-51967080D01*
X59950476Y-51967080D02*
X59998095Y-52014700D01*
X59998095Y-52014700D02*
X60093333Y-52062319D01*
X60093333Y-52062319D02*
X60283809Y-52062319D01*
X60283809Y-52062319D02*
X60379047Y-52014700D01*
X60379047Y-52014700D02*
X60426666Y-51967080D01*
X60426666Y-51967080D02*
X60474285Y-51871842D01*
X60474285Y-51871842D02*
X60474285Y-51681366D01*
X60474285Y-51681366D02*
X60426666Y-51586128D01*
X60426666Y-51586128D02*
X60379047Y-51538509D01*
X60379047Y-51538509D02*
X60283809Y-51490890D01*
X53688095Y-48142319D02*
X53688095Y-47142319D01*
X54259523Y-48142319D02*
X53830952Y-47570890D01*
X54259523Y-47142319D02*
X53688095Y-47713747D01*
D11*
X57469524Y-49851355D02*
X57469524Y-49051355D01*
X57469524Y-49051355D02*
X57660000Y-49051355D01*
X57660000Y-49051355D02*
X57774286Y-49089450D01*
X57774286Y-49089450D02*
X57850476Y-49165640D01*
X57850476Y-49165640D02*
X57888571Y-49241831D01*
X57888571Y-49241831D02*
X57926667Y-49394212D01*
X57926667Y-49394212D02*
X57926667Y-49508498D01*
X57926667Y-49508498D02*
X57888571Y-49660879D01*
X57888571Y-49660879D02*
X57850476Y-49737069D01*
X57850476Y-49737069D02*
X57774286Y-49813260D01*
X57774286Y-49813260D02*
X57660000Y-49851355D01*
X57660000Y-49851355D02*
X57469524Y-49851355D01*
X58688571Y-49851355D02*
X58231428Y-49851355D01*
X58460000Y-49851355D02*
X58460000Y-49051355D01*
X58460000Y-49051355D02*
X58383809Y-49165640D01*
X58383809Y-49165640D02*
X58307619Y-49241831D01*
X58307619Y-49241831D02*
X58231428Y-49279926D01*
D10*
X95617142Y-64412319D02*
X95045714Y-64412319D01*
X95331428Y-64412319D02*
X95331428Y-63412319D01*
X95331428Y-63412319D02*
X95236190Y-63555176D01*
X95236190Y-63555176D02*
X95140952Y-63650414D01*
X95140952Y-63650414D02*
X95045714Y-63698033D01*
X96045714Y-64412319D02*
X96045714Y-63412319D01*
X96045714Y-63412319D02*
X96617142Y-64412319D01*
X96617142Y-64412319D02*
X96617142Y-63412319D01*
X97569523Y-63412319D02*
X97093333Y-63412319D01*
X97093333Y-63412319D02*
X97045714Y-63888509D01*
X97045714Y-63888509D02*
X97093333Y-63840890D01*
X97093333Y-63840890D02*
X97188571Y-63793271D01*
X97188571Y-63793271D02*
X97426666Y-63793271D01*
X97426666Y-63793271D02*
X97521904Y-63840890D01*
X97521904Y-63840890D02*
X97569523Y-63888509D01*
X97569523Y-63888509D02*
X97617142Y-63983747D01*
X97617142Y-63983747D02*
X97617142Y-64221842D01*
X97617142Y-64221842D02*
X97569523Y-64317080D01*
X97569523Y-64317080D02*
X97521904Y-64364700D01*
X97521904Y-64364700D02*
X97426666Y-64412319D01*
X97426666Y-64412319D02*
X97188571Y-64412319D01*
X97188571Y-64412319D02*
X97093333Y-64364700D01*
X97093333Y-64364700D02*
X97045714Y-64317080D01*
X98188571Y-63840890D02*
X98093333Y-63793271D01*
X98093333Y-63793271D02*
X98045714Y-63745652D01*
X98045714Y-63745652D02*
X97998095Y-63650414D01*
X97998095Y-63650414D02*
X97998095Y-63602795D01*
X97998095Y-63602795D02*
X98045714Y-63507557D01*
X98045714Y-63507557D02*
X98093333Y-63459938D01*
X98093333Y-63459938D02*
X98188571Y-63412319D01*
X98188571Y-63412319D02*
X98379047Y-63412319D01*
X98379047Y-63412319D02*
X98474285Y-63459938D01*
X98474285Y-63459938D02*
X98521904Y-63507557D01*
X98521904Y-63507557D02*
X98569523Y-63602795D01*
X98569523Y-63602795D02*
X98569523Y-63650414D01*
X98569523Y-63650414D02*
X98521904Y-63745652D01*
X98521904Y-63745652D02*
X98474285Y-63793271D01*
X98474285Y-63793271D02*
X98379047Y-63840890D01*
X98379047Y-63840890D02*
X98188571Y-63840890D01*
X98188571Y-63840890D02*
X98093333Y-63888509D01*
X98093333Y-63888509D02*
X98045714Y-63936128D01*
X98045714Y-63936128D02*
X97998095Y-64031366D01*
X97998095Y-64031366D02*
X97998095Y-64221842D01*
X97998095Y-64221842D02*
X98045714Y-64317080D01*
X98045714Y-64317080D02*
X98093333Y-64364700D01*
X98093333Y-64364700D02*
X98188571Y-64412319D01*
X98188571Y-64412319D02*
X98379047Y-64412319D01*
X98379047Y-64412319D02*
X98474285Y-64364700D01*
X98474285Y-64364700D02*
X98521904Y-64317080D01*
X98521904Y-64317080D02*
X98569523Y-64221842D01*
X98569523Y-64221842D02*
X98569523Y-64031366D01*
X98569523Y-64031366D02*
X98521904Y-63936128D01*
X98521904Y-63936128D02*
X98474285Y-63888509D01*
X98474285Y-63888509D02*
X98379047Y-63840890D01*
X99521904Y-64412319D02*
X98950476Y-64412319D01*
X99236190Y-64412319D02*
X99236190Y-63412319D01*
X99236190Y-63412319D02*
X99140952Y-63555176D01*
X99140952Y-63555176D02*
X99045714Y-63650414D01*
X99045714Y-63650414D02*
X98950476Y-63698033D01*
X99855238Y-63412319D02*
X100521904Y-63412319D01*
X100521904Y-63412319D02*
X100093333Y-64412319D01*
X92418095Y-59842319D02*
X92418095Y-58842319D01*
X92989523Y-59842319D02*
X92560952Y-59270890D01*
X92989523Y-58842319D02*
X92418095Y-59413747D01*
X97411905Y-61942319D02*
X97411905Y-60942319D01*
X97411905Y-60942319D02*
X97650000Y-60942319D01*
X97650000Y-60942319D02*
X97792857Y-60989938D01*
X97792857Y-60989938D02*
X97888095Y-61085176D01*
X97888095Y-61085176D02*
X97935714Y-61180414D01*
X97935714Y-61180414D02*
X97983333Y-61370890D01*
X97983333Y-61370890D02*
X97983333Y-61513747D01*
X97983333Y-61513747D02*
X97935714Y-61704223D01*
X97935714Y-61704223D02*
X97888095Y-61799461D01*
X97888095Y-61799461D02*
X97792857Y-61894700D01*
X97792857Y-61894700D02*
X97650000Y-61942319D01*
X97650000Y-61942319D02*
X97411905Y-61942319D01*
X98316667Y-60942319D02*
X98935714Y-60942319D01*
X98935714Y-60942319D02*
X98602381Y-61323271D01*
X98602381Y-61323271D02*
X98745238Y-61323271D01*
X98745238Y-61323271D02*
X98840476Y-61370890D01*
X98840476Y-61370890D02*
X98888095Y-61418509D01*
X98888095Y-61418509D02*
X98935714Y-61513747D01*
X98935714Y-61513747D02*
X98935714Y-61751842D01*
X98935714Y-61751842D02*
X98888095Y-61847080D01*
X98888095Y-61847080D02*
X98840476Y-61894700D01*
X98840476Y-61894700D02*
X98745238Y-61942319D01*
X98745238Y-61942319D02*
X98459524Y-61942319D01*
X98459524Y-61942319D02*
X98364286Y-61894700D01*
X98364286Y-61894700D02*
X98316667Y-61847080D01*
D12*
%TO.C,RV1*%
X85952000Y-49802500D02*
X84425000Y-51329500D01*
X86085000Y-49935500D02*
X84558000Y-51462500D01*
X76995000Y-47072500D02*
X86525000Y-47072500D01*
X86525000Y-51902500D01*
X76995000Y-51902500D01*
X76995000Y-47072500D01*
X86350000Y-50632500D02*
G75*
G02*
X84160000Y-50632500I-1095000J0D01*
G01*
X84160000Y-50632500D02*
G75*
G02*
X86350000Y-50632500I1095000J0D01*
G01*
%TO.C,C6*%
X69260000Y-60237500D02*
X74260000Y-60237500D01*
X74260000Y-62737500D01*
X69260000Y-62737500D01*
X69260000Y-60237500D01*
%TO.C,SW1*%
X38912500Y-72870000D02*
X39912500Y-71870000D01*
X38912500Y-79130000D02*
X38912500Y-72870000D01*
X39912500Y-71870000D02*
X48692500Y-71870000D01*
X43125833Y-73595000D02*
X43125833Y-74865000D01*
X43125833Y-76135000D02*
X43125833Y-77405000D01*
X48692500Y-71870000D02*
X48692500Y-79130000D01*
X48692500Y-79130000D02*
X38912500Y-79130000D01*
X41772500Y-73595000D02*
X43125833Y-73595000D01*
X43125833Y-74865000D01*
X41772500Y-74865000D01*
X41772500Y-73595000D01*
G36*
X41772500Y-73595000D02*
G01*
X43125833Y-73595000D01*
X43125833Y-74865000D01*
X41772500Y-74865000D01*
X41772500Y-73595000D01*
G37*
X41772500Y-73595000D02*
X45832500Y-73595000D01*
X45832500Y-74865000D01*
X41772500Y-74865000D01*
X41772500Y-73595000D01*
X41772500Y-76135000D02*
X43125833Y-76135000D01*
X43125833Y-77405000D01*
X41772500Y-77405000D01*
X41772500Y-76135000D01*
G36*
X41772500Y-76135000D02*
G01*
X43125833Y-76135000D01*
X43125833Y-77405000D01*
X41772500Y-77405000D01*
X41772500Y-76135000D01*
G37*
X41772500Y-76135000D02*
X45832500Y-76135000D01*
X45832500Y-77405000D01*
X41772500Y-77405000D01*
X41772500Y-76135000D01*
%TO.C,C1*%
X44430541Y-33740000D02*
X45230541Y-33740000D01*
X44830541Y-33340000D02*
X44830541Y-34140000D01*
X51857300Y-35487500D02*
G75*
G02*
X43857300Y-35487500I-4000000J0D01*
G01*
X43857300Y-35487500D02*
G75*
G02*
X51857300Y-35487500I4000000J0D01*
G01*
%TO.C,C2*%
X54430541Y-33740000D02*
X55230541Y-33740000D01*
X54830541Y-33340000D02*
X54830541Y-34140000D01*
X61857300Y-35487500D02*
G75*
G02*
X53857300Y-35487500I-4000000J0D01*
G01*
X53857300Y-35487500D02*
G75*
G02*
X61857300Y-35487500I4000000J0D01*
G01*
%TO.C,Q1*%
X92760000Y-48557500D02*
X102760000Y-48557500D01*
X95910000Y-47287500D02*
X95910000Y-48557500D01*
X99610000Y-47287500D02*
X99610000Y-48557500D01*
X92760000Y-47287500D02*
X102760000Y-47287500D01*
X102760000Y-51687500D01*
X92760000Y-51687500D01*
X92760000Y-47287500D01*
%TO.C,J2*%
X105760000Y-71737500D02*
X105760000Y-79237500D01*
X105760000Y-79237500D02*
X115760000Y-79237500D01*
X105810000Y-78037500D02*
X115710000Y-78037500D01*
X115760000Y-71737500D02*
X105760000Y-71737500D01*
X115760000Y-79237500D02*
X115760000Y-71737500D01*
%TO.C,D2*%
X65950000Y-49487500D02*
X67760000Y-49487500D01*
X68260000Y-48487500D02*
X68260000Y-50487500D01*
X68360000Y-48487500D02*
X68360000Y-50487500D01*
X68460000Y-48487500D02*
X68460000Y-50487500D01*
X73570000Y-49487500D02*
X71760000Y-49487500D01*
X67760000Y-48487500D02*
X71760000Y-48487500D01*
X71760000Y-50487500D01*
X67760000Y-50487500D01*
X67760000Y-48487500D01*
%TO.C,U3*%
X34585000Y-57407500D02*
X35585000Y-56407500D01*
X34585000Y-66567500D02*
X34585000Y-57407500D01*
X35585000Y-56407500D02*
X40935000Y-56407500D01*
X40935000Y-56407500D02*
X40935000Y-66567500D01*
X40935000Y-66567500D02*
X34585000Y-66567500D01*
%TO.C,R5*%
X81950000Y-75487500D02*
X82610000Y-75487500D01*
X89570000Y-75487500D02*
X88910000Y-75487500D01*
X82610000Y-74237500D02*
X88910000Y-74237500D01*
X88910000Y-76737500D01*
X82610000Y-76737500D01*
X82610000Y-74237500D01*
%TO.C,J1*%
X28490000Y-73577500D02*
X29125000Y-72942500D01*
X28490000Y-78022500D02*
X28490000Y-73577500D01*
X29125000Y-72942500D02*
X31030000Y-72942500D01*
X31030000Y-72942500D02*
X31030000Y-78022500D01*
X31030000Y-78022500D02*
X28490000Y-78022500D01*
%TO.C,U1*%
X30760000Y-34557500D02*
X40760000Y-34557500D01*
X33910000Y-33287500D02*
X33910000Y-34557500D01*
X37610000Y-33287500D02*
X37610000Y-34557500D01*
X30760000Y-33287500D02*
X40760000Y-33287500D01*
X40760000Y-37687500D01*
X30760000Y-37687500D01*
X30760000Y-33287500D01*
%TO.C,R3*%
X41950000Y-49487500D02*
X42610000Y-49487500D01*
X49570000Y-49487500D02*
X48910000Y-49487500D01*
X42610000Y-48237500D02*
X48910000Y-48237500D01*
X48910000Y-50737500D01*
X42610000Y-50737500D01*
X42610000Y-48237500D01*
%TO.C,C5*%
X96430541Y-93740000D02*
X97230541Y-93740000D01*
X96830541Y-93340000D02*
X96830541Y-94140000D01*
X103857300Y-95487500D02*
G75*
G02*
X95857300Y-95487500I-4000000J0D01*
G01*
X95857300Y-95487500D02*
G75*
G02*
X103857300Y-95487500I4000000J0D01*
G01*
%TO.C,C4*%
X49260000Y-60237500D02*
X54260000Y-60237500D01*
X54260000Y-62737500D01*
X49260000Y-62737500D01*
X49260000Y-60237500D01*
%TO.C,J3*%
X105760000Y-91737500D02*
X105760000Y-99237500D01*
X105760000Y-99237500D02*
X115760000Y-99237500D01*
X105810000Y-98037500D02*
X115710000Y-98037500D01*
X115760000Y-91737500D02*
X105760000Y-91737500D01*
X115760000Y-99237500D02*
X115760000Y-91737500D01*
%TO.C,R1*%
X53950000Y-75487500D02*
X54610000Y-75487500D01*
X61570000Y-75487500D02*
X60910000Y-75487500D01*
X54610000Y-74237500D02*
X60910000Y-74237500D01*
X60910000Y-76737500D01*
X54610000Y-76737500D01*
X54610000Y-74237500D01*
%TO.C,U2*%
X68585000Y-72677500D02*
X69585000Y-71677500D01*
X68585000Y-79297500D02*
X68585000Y-72677500D01*
X69585000Y-71677500D02*
X74935000Y-71677500D01*
X74935000Y-71677500D02*
X74935000Y-79297500D01*
X74935000Y-79297500D02*
X68585000Y-79297500D01*
%TO.C,L1*%
X56510000Y-87987500D02*
X91010000Y-87987500D01*
X91010000Y-102987500D01*
X56510000Y-102987500D01*
X56510000Y-87987500D01*
X91010000Y-95487500D02*
G75*
G02*
X56510000Y-95487500I-17250000J0D01*
G01*
X56510000Y-95487500D02*
G75*
G02*
X91010000Y-95487500I17250000J0D01*
G01*
%TO.C,C3*%
X59260000Y-60237500D02*
X64260000Y-60237500D01*
X64260000Y-62737500D01*
X59260000Y-62737500D01*
X59260000Y-60237500D01*
%TO.C,R2*%
X29950000Y-49487500D02*
X30610000Y-49487500D01*
X37570000Y-49487500D02*
X36910000Y-49487500D01*
X30610000Y-48237500D02*
X36910000Y-48237500D01*
X36910000Y-50737500D01*
X30610000Y-50737500D01*
X30610000Y-48237500D01*
%TO.C,D1*%
X53950000Y-49487500D02*
X55760000Y-49487500D01*
X56260000Y-48487500D02*
X56260000Y-50487500D01*
X56360000Y-48487500D02*
X56360000Y-50487500D01*
X56460000Y-48487500D02*
X56460000Y-50487500D01*
X61570000Y-49487500D02*
X59760000Y-49487500D01*
X55760000Y-48487500D02*
X59760000Y-48487500D01*
X59760000Y-50487500D01*
X55760000Y-50487500D01*
X55760000Y-48487500D01*
%TO.C,D3*%
X92680000Y-61487500D02*
X95160000Y-61487500D01*
X95840000Y-60137500D02*
X95840000Y-62837500D01*
X95940000Y-60137500D02*
X95940000Y-62837500D01*
X96040000Y-60137500D02*
X96040000Y-62837500D01*
X102840000Y-61487500D02*
X100360000Y-61487500D01*
X95160000Y-60137500D02*
X100360000Y-60137500D01*
X100360000Y-62837500D01*
X95160000Y-62837500D01*
X95160000Y-60137500D01*
%TD*%
M02*
