  0
SECTION
  2
HEADER
  9
$ANGBASE
  50
0.0
  9
$ANGDIR
  70
1
  9
$MEASUREMENT
  70
1
  0
ENDSEC
  0
SECTION
  2
TABLES
  0
TABLE
  2
LTYPE
  70
4
  0
LTYPE
  5
40F
  2
CONTINUOUS
  70
0
  3
Solid line
  72
65
  73
0
  40
0.0
  0
LTYPE
  5
410
  2
DASHDOT
 70
0
  3
Dash Dot ____ _ ____ _
 72
65
 73
4
 40
2.0
 49
1.25
 49
-0.25
 49
0.25
 49
-0.25
  0
LTYPE
  5
411
  2
DASHED
 70
0
  3
Dashed __ __ __ __ __
 72
65
 73
2
 40
0.75
 49
0.5
 49
-0.25
  0
LTYPE
  5
43B
  2
DOTTED
 70
0
  3
Dotted .  .  .  .
 72
65
 73
2
 40
0.2
 49
0.0
 49
-0.2
  0
ENDTAB
  0
TABLE
  2
STYLE
  70
4
  0
STYLE
  2
KICAD
  70
0
  40
0
  41
1
  42
1
  50
0
  71
0
  3
isocp.shx
  0
STYLE
  2
KICADB
  70
0
  40
0
  41
1
  42
1
  50
0
  71
0
  3
isocp.shx
  0
STYLE
  2
KICADI
  70
0
  40
0
  41
1
  42
1
  50
15
  71
0
  3
isocp.shx
  0
STYLE
  2
KICADBI
  70
0
  40
0
  41
1
  42
1
  50
15
  71
0
  3
isocp.shx
  0
ENDTAB
  0
TABLE
  2
LAYER
  70
35
  0
LAYER
  2
BLACK
  70
0
  62
7
  6
CONTINUOUS
  0
LAYER
  2
GRAY1
  70
0
  62
251
  6
CONTINUOUS
  0
LAYER
  2
GRAY2
  70
0
  62
8
  6
CONTINUOUS
  0
LAYER
  2
GRAY3
  70
0
  62
9
  6
CONTINUOUS
  0
LAYER
  2
WHITE
  70
0
  62
7
  6
CONTINUOUS
  0
LAYER
  2
LYELLOW
  70
0
  62
51
  6
CONTINUOUS
  0
LAYER
  2
LORANGE
  70
0
  62
41
  6
CONTINUOUS
  0
LAYER
  2
BLUE1
  70
0
  62
178
  6
CONTINUOUS
  0
LAYER
  2
GREEN1
  70
0
  62
98
  6
CONTINUOUS
  0
LAYER
  2
CYAN1
  70
0
  62
138
  6
CONTINUOUS
  0
LAYER
  2
RED1
  70
0
  62
18
  6
CONTINUOUS
  0
LAYER
  2
MAGENTA1
  70
0
  62
228
  6
CONTINUOUS
  0
LAYER
  2
BROWN1
  70
0
  62
58
  6
CONTINUOUS
  0
LAYER
  2
ORANGE1
  70
0
  62
34
  6
CONTINUOUS
  0
LAYER
  2
BLUE2
  70
0
  62
5
  6
CONTINUOUS
  0
LAYER
  2
GREEN2
  70
0
  62
3
  6
CONTINUOUS
  0
LAYER
  2
CYAN2
  70
0
  62
4
  6
CONTINUOUS
  0
LAYER
  2
RED2
  70
0
  62
1
  6
CONTINUOUS
  0
LAYER
  2
MAGENTA2
  70
0
  62
6
  6
CONTINUOUS
  0
LAYER
  2
BROWN2
  70
0
  62
54
  6
CONTINUOUS
  0
LAYER
  2
ORANGE2
  70
0
  62
42
  6
CONTINUOUS
  0
LAYER
  2
BLUE3
  70
0
  62
171
  6
CONTINUOUS
  0
LAYER
  2
GREEN3
  70
0
  62
91
  6
CONTINUOUS
  0
LAYER
  2
CYAN3
  70
0
  62
131
  6
CONTINUOUS
  0
LAYER
  2
RED3
  70
0
  62
11
  6
CONTINUOUS
  0
LAYER
  2
MAGENTA3
  70
0
  62
221
  6
CONTINUOUS
  0
LAYER
  2
YELLOW3
  70
0
  62
2
  6
CONTINUOUS
  0
LAYER
  2
ORANGE3
  70
0
  62
32
  6
CONTINUOUS
  0
LAYER
  2
BLUE4
  70
0
  62
5
  6
CONTINUOUS
  0
LAYER
  2
GREEN4
  70
0
  62
3
  6
CONTINUOUS
  0
LAYER
  2
CYAN4
  70
0
  62
4
  6
CONTINUOUS
  0
LAYER
  2
RED4
  70
0
  62
1
  6
CONTINUOUS
  0
LAYER
  2
MAGENTA4
  70
0
  62
6
  6
CONTINUOUS
  0
LAYER
  2
YELLOW4
  70
0
  62
2
  6
CONTINUOUS
  0
LAYER
  2
ORANGE4
  70
0
  62
40
  6
CONTINUOUS
  0
ENDTAB
  0
ENDSEC
  0
SECTION
  2
ENTITIES
0
LINE
8
LYELLOW
6
CONTINUOUS
10
81.1647609999999986
20
-46.2773189999999985
11
80.8314280000000025
21
-45.8011279999999985
0
LINE
8
LYELLOW
6
CONTINUOUS
10
80.5933330000000012
20
-46.2773189999999985
11
80.5933330000000012
21
-45.2773189999999985
0
LINE
8
LYELLOW
6
CONTINUOUS
10
80.5933330000000012
20
-45.2773189999999985
11
80.9742849999999947
21
-45.2773189999999985
0
LINE
8
LYELLOW
6
CONTINUOUS
10
80.9742849999999947
20
-45.2773189999999985
11
81.0695229999999896
21
-45.324937999999996
0
LINE
8
LYELLOW
6
CONTINUOUS
10
81.0695229999999896
20
-45.324937999999996
11
81.1171420000000012
21
-45.3725570000000005
0
LINE
8
LYELLOW
6
CONTINUOUS
10
81.1171420000000012
20
-45.3725570000000005
11
81.1647609999999986
21
-45.4677949999999953
0
LINE
8
LYELLOW
6
CONTINUOUS
10
81.1647609999999986
20
-45.4677949999999953
11
81.1647609999999986
21
-45.6106519999999946
0
LINE
8
LYELLOW
6
CONTINUOUS
10
81.1647609999999986
20
-45.6106519999999946
11
81.1171420000000012
21
-45.7058899999999966
0
LINE
8
LYELLOW
6
CONTINUOUS
10
81.1171420000000012
20
-45.7058899999999966
11
81.0695229999999896
21
-45.7535090000000011
0
LINE
8
LYELLOW
6
CONTINUOUS
10
81.0695229999999896
20
-45.7535090000000011
11
80.9742849999999947
21
-45.8011279999999985
0
LINE
8
LYELLOW
6
CONTINUOUS
10
80.9742849999999947
20
-45.8011279999999985
11
80.5933330000000012
21
-45.8011279999999985
0
LINE
8
LYELLOW
6
CONTINUOUS
10
81.4504759999999948
20
-45.2773189999999985
11
81.7838089999999909
21
-46.2773189999999985
0
LINE
8
LYELLOW
6
CONTINUOUS
10
81.7838089999999909
20
-46.2773189999999985
11
82.1171420000000012
21
-45.2773189999999985
0
LINE
8
LYELLOW
6
CONTINUOUS
10
82.9742849999999947
20
-46.2773189999999985
11
82.4028569999999974
21
-46.2773189999999985
0
LINE
8
LYELLOW
6
CONTINUOUS
10
82.688570999999996
20
-46.2773189999999985
11
82.688570999999996
21
-45.2773189999999985
0
LINE
8
LYELLOW
6
CONTINUOUS
10
82.688570999999996
20
-45.2773189999999985
11
82.5933330000000012
21
-45.4201759999999979
0
LINE
8
LYELLOW
6
CONTINUOUS
10
82.5933330000000012
20
-45.4201759999999979
11
82.4980949999999922
21
-45.5154139999999998
0
LINE
8
LYELLOW
6
CONTINUOUS
10
82.4980949999999922
20
-45.5154139999999998
11
82.4028569999999974
21
-45.5630329999999972
0
LINE
8
LYELLOW
6
CONTINUOUS
10
71.5933330000000012
20
-59.3470799999999983
11
71.5457140000000038
21
-59.3947000000000003
0
LINE
8
LYELLOW
6
CONTINUOUS
10
71.5457140000000038
20
-59.3947000000000003
11
71.4028569999999974
21
-59.4423189999999977
0
LINE
8
LYELLOW
6
CONTINUOUS
10
71.4028569999999974
20
-59.4423189999999977
11
71.3076190000000025
21
-59.4423189999999977
0
LINE
8
LYELLOW
6
CONTINUOUS
10
71.3076190000000025
20
-59.4423189999999977
11
71.1647619999999961
21
-59.3947000000000003
0
LINE
8
LYELLOW
6
CONTINUOUS
10
71.1647619999999961
20
-59.3947000000000003
11
71.0695240000000013
21
-59.2994610000000009
0
LINE
8
LYELLOW
6
CONTINUOUS
10
71.0695240000000013
20
-59.2994610000000009
11
71.0219050000000038
21
-59.2042229999999989
0
LINE
8
LYELLOW
6
CONTINUOUS
10
71.0219050000000038
20
-59.2042229999999989
11
70.9742859999999922
21
-59.0137469999999951
0
LINE
8
LYELLOW
6
CONTINUOUS
10
70.9742859999999922
20
-59.0137469999999951
11
70.9742859999999922
21
-58.8708899999999957
0
LINE
8
LYELLOW
6
CONTINUOUS
10
70.9742859999999922
20
-58.8708899999999957
11
71.0219050000000038
21
-58.680413999999999
0
LINE
8
LYELLOW
6
CONTINUOUS
10
71.0219050000000038
20
-58.680413999999999
11
71.0695240000000013
21
-58.585175999999997
0
LINE
8
LYELLOW
6
CONTINUOUS
10
71.0695240000000013
20
-58.585175999999997
11
71.1647619999999961
21
-58.4899379999999951
0
LINE
8
LYELLOW
6
CONTINUOUS
10
71.1647619999999961
20
-58.4899379999999951
11
71.3076190000000025
21
-58.4423189999999977
0
LINE
8
LYELLOW
6
CONTINUOUS
10
71.3076190000000025
20
-58.4423189999999977
11
71.4028569999999974
21
-58.4423189999999977
0
LINE
8
LYELLOW
6
CONTINUOUS
10
71.4028569999999974
20
-58.4423189999999977
11
71.5457140000000038
21
-58.4899379999999951
0
LINE
8
LYELLOW
6
CONTINUOUS
10
71.5457140000000038
20
-58.4899379999999951
11
71.5933330000000012
21
-58.5375569999999996
0
LINE
8
LYELLOW
6
CONTINUOUS
10
72.4504759999999948
20
-58.4423189999999977
11
72.2599999999999909
21
-58.4423189999999977
0
LINE
8
LYELLOW
6
CONTINUOUS
10
72.2599999999999909
20
-58.4423189999999977
11
72.1647619999999961
21
-58.4899379999999951
0
LINE
8
LYELLOW
6
CONTINUOUS
10
72.1647619999999961
20
-58.4899379999999951
11
72.1171429999999987
21
-58.5375569999999996
0
LINE
8
LYELLOW
6
CONTINUOUS
10
72.1171429999999987
20
-58.5375569999999996
11
72.0219050000000038
21
-58.680413999999999
0
LINE
8
LYELLOW
6
CONTINUOUS
10
72.0219050000000038
20
-58.680413999999999
11
71.9742859999999922
21
-58.8708899999999957
0
LINE
8
LYELLOW
6
CONTINUOUS
10
71.9742859999999922
20
-58.8708899999999957
11
71.9742859999999922
21
-59.2518419999999963
0
LINE
8
LYELLOW
6
CONTINUOUS
10
71.9742859999999922
20
-59.2518419999999963
11
72.0219050000000038
21
-59.3470799999999983
0
LINE
8
LYELLOW
6
CONTINUOUS
10
72.0219050000000038
20
-59.3470799999999983
11
72.0695240000000013
21
-59.3947000000000003
0
LINE
8
LYELLOW
6
CONTINUOUS
10
72.0695240000000013
20
-59.3947000000000003
11
72.1647619999999961
21
-59.4423189999999977
0
LINE
8
LYELLOW
6
CONTINUOUS
10
72.1647619999999961
20
-59.4423189999999977
11
72.3552379999999999
21
-59.4423189999999977
0
LINE
8
LYELLOW
6
CONTINUOUS
10
72.3552379999999999
20
-59.4423189999999977
11
72.4504759999999948
21
-59.3947000000000003
0
LINE
8
LYELLOW
6
CONTINUOUS
10
72.4504759999999948
20
-59.3947000000000003
11
72.4980949999999922
21
-59.3470799999999983
0
LINE
8
LYELLOW
6
CONTINUOUS
10
72.4980949999999922
20
-59.3470799999999983
11
72.5457140000000038
21
-59.2518419999999963
0
LINE
8
LYELLOW
6
CONTINUOUS
10
72.5457140000000038
20
-59.2518419999999963
11
72.5457140000000038
21
-59.0137469999999951
0
LINE
8
LYELLOW
6
CONTINUOUS
10
72.5457140000000038
20
-59.0137469999999951
11
72.4980949999999922
21
-58.9185090000000002
0
LINE
8
LYELLOW
6
CONTINUOUS
10
72.4980949999999922
20
-58.9185090000000002
11
72.4504759999999948
21
-58.8708899999999957
0
LINE
8
LYELLOW
6
CONTINUOUS
10
72.4504759999999948
20
-58.8708899999999957
11
72.3552379999999999
21
-58.8232709999999983
0
LINE
8
LYELLOW
6
CONTINUOUS
10
72.3552379999999999
20
-58.8232709999999983
11
72.1647619999999961
21
-58.8232709999999983
0
LINE
8
LYELLOW
6
CONTINUOUS
10
72.1647619999999961
20
-58.8232709999999983
11
72.0695240000000013
21
-58.8708899999999957
0
LINE
8
LYELLOW
6
CONTINUOUS
10
72.0695240000000013
20
-58.8708899999999957
11
72.0219050000000038
21
-58.9185090000000002
0
LINE
8
LYELLOW
6
CONTINUOUS
10
72.0219050000000038
20
-58.9185090000000002
11
71.9742859999999922
21
-59.0137469999999951
0
LINE
8
LYELLOW
6
CONTINUOUS
10
42.4691669999999988
20
-71.2171999999999912
11
42.6120239999999981
21
-71.2648190000000028
0
LINE
8
LYELLOW
6
CONTINUOUS
10
42.6120239999999981
20
-71.2648190000000028
11
42.8501189999999994
21
-71.2648190000000028
0
LINE
8
LYELLOW
6
CONTINUOUS
10
42.8501189999999994
20
-71.2648190000000028
11
42.9453570000000013
21
-71.2171999999999912
0
LINE
8
LYELLOW
6
CONTINUOUS
10
42.9453570000000013
20
-71.2171999999999912
11
42.9929759999999987
21
-71.1695799999999963
0
LINE
8
LYELLOW
6
CONTINUOUS
10
42.9929759999999987
20
-71.1695799999999963
11
43.0405949999999962
21
-71.0743420000000015
0
LINE
8
LYELLOW
6
CONTINUOUS
10
43.0405949999999962
20
-71.0743420000000015
11
43.0405949999999962
21
-70.9791039999999924
0
LINE
8
LYELLOW
6
CONTINUOUS
10
43.0405949999999962
20
-70.9791039999999924
11
42.9929759999999987
21
-70.8838659999999976
0
LINE
8
LYELLOW
6
CONTINUOUS
10
42.9929759999999987
20
-70.8838659999999976
11
42.9453570000000013
21
-70.8362470000000002
0
LINE
8
LYELLOW
6
CONTINUOUS
10
42.9453570000000013
20
-70.8362470000000002
11
42.8501189999999994
21
-70.7886280000000028
0
LINE
8
LYELLOW
6
CONTINUOUS
10
42.8501189999999994
20
-70.7886280000000028
11
42.6596429999999955
21
-70.7410089999999911
0
LINE
8
LYELLOW
6
CONTINUOUS
10
42.6596429999999955
20
-70.7410089999999911
11
42.5644050000000007
21
-70.6933899999999937
0
LINE
8
LYELLOW
6
CONTINUOUS
10
42.5644050000000007
20
-70.6933899999999937
11
42.5167859999999962
21
-70.6457709999999963
0
LINE
8
LYELLOW
6
CONTINUOUS
10
42.5167859999999962
20
-70.6457709999999963
11
42.4691669999999988
21
-70.5505330000000015
0
LINE
8
LYELLOW
6
CONTINUOUS
10
42.4691669999999988
20
-70.5505330000000015
11
42.4691669999999988
21
-70.4552949999999925
0
LINE
8
LYELLOW
6
CONTINUOUS
10
42.4691669999999988
20
-70.4552949999999925
11
42.5167859999999962
21
-70.3600569999999976
0
LINE
8
LYELLOW
6
CONTINUOUS
10
42.5167859999999962
20
-70.3600569999999976
11
42.5644050000000007
21
-70.3124380000000002
0
LINE
8
LYELLOW
6
CONTINUOUS
10
42.5644050000000007
20
-70.3124380000000002
11
42.6596429999999955
21
-70.2648190000000028
0
LINE
8
LYELLOW
6
CONTINUOUS
10
42.6596429999999955
20
-70.2648190000000028
11
42.8977379999999968
21
-70.2648190000000028
0
LINE
8
LYELLOW
6
CONTINUOUS
10
42.8977379999999968
20
-70.2648190000000028
11
43.0405949999999962
21
-70.3124380000000002
0
LINE
8
LYELLOW
6
CONTINUOUS
10
43.3739289999999968
20
-70.2648190000000028
11
43.6120239999999981
21
-71.2648190000000028
0
LINE
8
LYELLOW
6
CONTINUOUS
10
43.6120239999999981
20
-71.2648190000000028
11
43.8024999999999949
21
-70.5505330000000015
0
LINE
8
LYELLOW
6
CONTINUOUS
10
43.8024999999999949
20
-70.5505330000000015
11
43.9929759999999987
21
-71.2648190000000028
0
LINE
8
LYELLOW
6
CONTINUOUS
10
43.9929759999999987
20
-71.2648190000000028
11
44.2310719999999975
21
-70.2648190000000028
0
LINE
8
LYELLOW
6
CONTINUOUS
10
45.1358329999999981
20
-71.2648190000000028
11
44.5644050000000007
21
-71.2648190000000028
0
LINE
8
LYELLOW
6
CONTINUOUS
10
44.8501189999999994
20
-71.2648190000000028
11
44.8501189999999994
21
-70.2648190000000028
0
LINE
8
LYELLOW
6
CONTINUOUS
10
44.8501189999999994
20
-70.2648190000000028
11
44.7548809999999975
21
-70.407675999999995
0
LINE
8
LYELLOW
6
CONTINUOUS
10
44.7548809999999975
20
-70.407675999999995
11
44.6596429999999955
21
-70.5029139999999899
0
LINE
8
LYELLOW
6
CONTINUOUS
10
44.6596429999999955
20
-70.5029139999999899
11
44.5644050000000007
21
-70.5505330000000015
0
LINE
8
LYELLOW
6
CONTINUOUS
10
47.6906329999999983
20
-30.5970799999999983
11
47.6430140000000009
21
-30.6447000000000003
0
LINE
8
LYELLOW
6
CONTINUOUS
10
47.6430140000000009
20
-30.6447000000000003
11
47.5001569999999944
21
-30.6923189999999977
0
LINE
8
LYELLOW
6
CONTINUOUS
10
47.5001569999999944
20
-30.6923189999999977
11
47.4049189999999996
21
-30.6923189999999977
0
LINE
8
LYELLOW
6
CONTINUOUS
10
47.4049189999999996
20
-30.6923189999999977
11
47.2620620000000002
21
-30.6447000000000003
0
LINE
8
LYELLOW
6
CONTINUOUS
10
47.2620620000000002
20
-30.6447000000000003
11
47.1668239999999983
21
-30.5494609999999973
0
LINE
8
LYELLOW
6
CONTINUOUS
10
47.1668239999999983
20
-30.5494609999999973
11
47.1192050000000009
21
-30.4542229999999989
0
LINE
8
LYELLOW
6
CONTINUOUS
10
47.1192050000000009
20
-30.4542229999999989
11
47.0715859999999964
21
-30.2637469999999986
0
LINE
8
LYELLOW
6
CONTINUOUS
10
47.0715859999999964
20
-30.2637469999999986
11
47.0715859999999964
21
-30.1208899999999993
0
LINE
8
LYELLOW
6
CONTINUOUS
10
47.0715859999999964
20
-30.1208899999999993
11
47.1192050000000009
21
-29.930413999999999
0
LINE
8
LYELLOW
6
CONTINUOUS
10
47.1192050000000009
20
-29.930413999999999
11
47.1668239999999983
21
-29.835175999999997
0
LINE
8
LYELLOW
6
CONTINUOUS
10
47.1668239999999983
20
-29.835175999999997
11
47.2620620000000002
21
-29.7399379999999987
0
LINE
8
LYELLOW
6
CONTINUOUS
10
47.2620620000000002
20
-29.7399379999999987
11
47.4049189999999996
21
-29.6923189999999977
0
LINE
8
LYELLOW
6
CONTINUOUS
10
47.4049189999999996
20
-29.6923189999999977
11
47.5001569999999944
21
-29.6923189999999977
0
LINE
8
LYELLOW
6
CONTINUOUS
10
47.5001569999999944
20
-29.6923189999999977
11
47.6430140000000009
21
-29.7399379999999987
0
LINE
8
LYELLOW
6
CONTINUOUS
10
47.6430140000000009
20
-29.7399379999999987
11
47.6906329999999983
21
-29.7875569999999996
0
LINE
8
LYELLOW
6
CONTINUOUS
10
48.6430140000000009
20
-30.6923189999999977
11
48.0715859999999964
21
-30.6923189999999977
0
LINE
8
LYELLOW
6
CONTINUOUS
10
48.3572999999999951
20
-30.6923189999999977
11
48.3572999999999951
21
-29.6923189999999977
0
LINE
8
LYELLOW
6
CONTINUOUS
10
48.3572999999999951
20
-29.6923189999999977
11
48.2620620000000002
21
-29.835175999999997
0
LINE
8
LYELLOW
6
CONTINUOUS
10
48.2620620000000002
20
-29.835175999999997
11
48.1668239999999983
21
-29.930413999999999
0
LINE
8
LYELLOW
6
CONTINUOUS
10
48.1668239999999983
20
-29.930413999999999
11
48.0715859999999964
21
-29.9780329999999999
0
LINE
8
LYELLOW
6
CONTINUOUS
10
57.6906329999999983
20
-30.5970799999999983
11
57.6430140000000009
21
-30.6447000000000003
0
LINE
8
LYELLOW
6
CONTINUOUS
10
57.6430140000000009
20
-30.6447000000000003
11
57.5001569999999944
21
-30.6923189999999977
0
LINE
8
LYELLOW
6
CONTINUOUS
10
57.5001569999999944
20
-30.6923189999999977
11
57.4049189999999996
21
-30.6923189999999977
0
LINE
8
LYELLOW
6
CONTINUOUS
10
57.4049189999999996
20
-30.6923189999999977
11
57.2620620000000002
21
-30.6447000000000003
0
LINE
8
LYELLOW
6
CONTINUOUS
10
57.2620620000000002
20
-30.6447000000000003
11
57.1668239999999983
21
-30.5494609999999973
0
LINE
8
LYELLOW
6
CONTINUOUS
10
57.1668239999999983
20
-30.5494609999999973
11
57.1192050000000009
21
-30.4542229999999989
0
LINE
8
LYELLOW
6
CONTINUOUS
10
57.1192050000000009
20
-30.4542229999999989
11
57.0715859999999964
21
-30.2637469999999986
0
LINE
8
LYELLOW
6
CONTINUOUS
10
57.0715859999999964
20
-30.2637469999999986
11
57.0715859999999964
21
-30.1208899999999993
0
LINE
8
LYELLOW
6
CONTINUOUS
10
57.0715859999999964
20
-30.1208899999999993
11
57.1192050000000009
21
-29.930413999999999
0
LINE
8
LYELLOW
6
CONTINUOUS
10
57.1192050000000009
20
-29.930413999999999
11
57.1668239999999983
21
-29.835175999999997
0
LINE
8
LYELLOW
6
CONTINUOUS
10
57.1668239999999983
20
-29.835175999999997
11
57.2620620000000002
21
-29.7399379999999987
0
LINE
8
LYELLOW
6
CONTINUOUS
10
57.2620620000000002
20
-29.7399379999999987
11
57.4049189999999996
21
-29.6923189999999977
0
LINE
8
LYELLOW
6
CONTINUOUS
10
57.4049189999999996
20
-29.6923189999999977
11
57.5001569999999944
21
-29.6923189999999977
0
LINE
8
LYELLOW
6
CONTINUOUS
10
57.5001569999999944
20
-29.6923189999999977
11
57.6430140000000009
21
-29.7399379999999987
0
LINE
8
LYELLOW
6
CONTINUOUS
10
57.6430140000000009
20
-29.7399379999999987
11
57.6906329999999983
21
-29.7875569999999996
0
LINE
8
LYELLOW
6
CONTINUOUS
10
58.0715859999999964
20
-29.7875569999999996
11
58.1192050000000009
21
-29.7399379999999987
0
LINE
8
LYELLOW
6
CONTINUOUS
10
58.1192050000000009
20
-29.7399379999999987
11
58.2144429999999957
21
-29.6923189999999977
0
LINE
8
LYELLOW
6
CONTINUOUS
10
58.2144429999999957
20
-29.6923189999999977
11
58.452537999999997
21
-29.6923189999999977
0
LINE
8
LYELLOW
6
CONTINUOUS
10
58.452537999999997
20
-29.6923189999999977
11
58.5477759999999989
21
-29.7399379999999987
0
LINE
8
LYELLOW
6
CONTINUOUS
10
58.5477759999999989
20
-29.7399379999999987
11
58.5953949999999963
21
-29.7875569999999996
0
LINE
8
LYELLOW
6
CONTINUOUS
10
58.5953949999999963
20
-29.7875569999999996
11
58.6430140000000009
21
-29.882794999999998
0
LINE
8
LYELLOW
6
CONTINUOUS
10
58.6430140000000009
20
-29.882794999999998
11
58.6430140000000009
21
-29.9780329999999999
0
LINE
8
LYELLOW
6
CONTINUOUS
10
58.6430140000000009
20
-29.9780329999999999
11
58.5953949999999963
21
-30.1208899999999993
0
LINE
8
LYELLOW
6
CONTINUOUS
10
58.5953949999999963
20
-30.1208899999999993
11
58.023966999999999
21
-30.6923189999999977
0
LINE
8
LYELLOW
6
CONTINUOUS
10
58.023966999999999
20
-30.6923189999999977
11
58.6430140000000009
21
-30.6923189999999977
0
LINE
8
LYELLOW
6
CONTINUOUS
10
97.6647609999999986
20
-46.887557000000001
11
97.5695229999999896
21
-46.8399379999999965
0
LINE
8
LYELLOW
6
CONTINUOUS
10
97.5695229999999896
20
-46.8399379999999965
11
97.4742849999999947
21
-46.7446999999999946
0
LINE
8
LYELLOW
6
CONTINUOUS
10
97.4742849999999947
20
-46.7446999999999946
11
97.3314280000000025
21
-46.6018419999999978
0
LINE
8
LYELLOW
6
CONTINUOUS
10
97.3314280000000025
20
-46.6018419999999978
11
97.2361899999999935
21
-46.5542230000000004
0
LINE
8
LYELLOW
6
CONTINUOUS
10
97.2361899999999935
20
-46.5542230000000004
11
97.1409519999999986
21
-46.5542230000000004
0
LINE
8
LYELLOW
6
CONTINUOUS
10
97.188570999999996
20
-46.7923189999999991
11
97.0933330000000012
21
-46.7446999999999946
0
LINE
8
LYELLOW
6
CONTINUOUS
10
97.0933330000000012
20
-46.7446999999999946
11
96.9980949999999922
21
-46.6494609999999952
0
LINE
8
LYELLOW
6
CONTINUOUS
10
96.9980949999999922
20
-46.6494609999999952
11
96.9504759999999948
21
-46.4589849999999984
0
LINE
8
LYELLOW
6
CONTINUOUS
10
96.9504759999999948
20
-46.4589849999999984
11
96.9504759999999948
21
-46.1256519999999952
0
LINE
8
LYELLOW
6
CONTINUOUS
10
96.9504759999999948
20
-46.1256519999999952
11
96.9980949999999922
21
-45.9351759999999985
0
LINE
8
LYELLOW
6
CONTINUOUS
10
96.9980949999999922
20
-45.9351759999999985
11
97.0933330000000012
21
-45.8399379999999965
0
LINE
8
LYELLOW
6
CONTINUOUS
10
97.0933330000000012
20
-45.8399379999999965
11
97.188570999999996
21
-45.7923189999999991
0
LINE
8
LYELLOW
6
CONTINUOUS
10
97.188570999999996
20
-45.7923189999999991
11
97.3790469999999999
21
-45.7923189999999991
0
LINE
8
LYELLOW
6
CONTINUOUS
10
97.3790469999999999
20
-45.7923189999999991
11
97.4742849999999947
21
-45.8399379999999965
0
LINE
8
LYELLOW
6
CONTINUOUS
10
97.4742849999999947
20
-45.8399379999999965
11
97.5695229999999896
21
-45.9351759999999985
0
LINE
8
LYELLOW
6
CONTINUOUS
10
97.5695229999999896
20
-45.9351759999999985
11
97.6171420000000012
21
-46.1256519999999952
0
LINE
8
LYELLOW
6
CONTINUOUS
10
97.6171420000000012
20
-46.1256519999999952
11
97.6171420000000012
21
-46.4589849999999984
0
LINE
8
LYELLOW
6
CONTINUOUS
10
97.6171420000000012
20
-46.4589849999999984
11
97.5695229999999896
21
-46.6494609999999952
0
LINE
8
LYELLOW
6
CONTINUOUS
10
97.5695229999999896
20
-46.6494609999999952
11
97.4742849999999947
21
-46.7446999999999946
0
LINE
8
LYELLOW
6
CONTINUOUS
10
97.4742849999999947
20
-46.7446999999999946
11
97.3790469999999999
21
-46.7923189999999991
0
LINE
8
LYELLOW
6
CONTINUOUS
10
97.3790469999999999
20
-46.7923189999999991
11
97.188570999999996
21
-46.7923189999999991
0
LINE
8
LYELLOW
6
CONTINUOUS
10
98.5695229999999896
20
-46.7923189999999991
11
97.9980949999999922
21
-46.7923189999999991
0
LINE
8
LYELLOW
6
CONTINUOUS
10
98.2838089999999909
20
-46.7923189999999991
11
98.2838089999999909
21
-45.7923189999999991
0
LINE
8
LYELLOW
6
CONTINUOUS
10
98.2838089999999909
20
-45.7923189999999991
11
98.188570999999996
21
-45.9351759999999985
0
LINE
8
LYELLOW
6
CONTINUOUS
10
98.188570999999996
20
-45.9351759999999985
11
98.0933330000000012
21
-46.0304140000000004
0
LINE
8
LYELLOW
6
CONTINUOUS
10
98.0933330000000012
20
-46.0304140000000004
11
97.9980949999999922
21
-46.0780329999999978
0
LINE
8
LYELLOW
6
CONTINUOUS
10
110.4266659999999973
20
-69.8623189999999994
11
110.4266659999999973
21
-70.5766040000000032
0
LINE
8
LYELLOW
6
CONTINUOUS
10
110.4266659999999973
20
-70.5766040000000032
11
110.3790469999999999
21
-70.7194609999999955
0
LINE
8
LYELLOW
6
CONTINUOUS
10
110.3790469999999999
20
-70.7194609999999955
11
110.2838089999999909
21
-70.814700000000002
0
LINE
8
LYELLOW
6
CONTINUOUS
10
110.2838089999999909
20
-70.814700000000002
11
110.1409519999999986
21
-70.8623189999999994
0
LINE
8
LYELLOW
6
CONTINUOUS
10
110.1409519999999986
20
-70.8623189999999994
11
110.0457139999999896
21
-70.8623189999999994
0
LINE
8
LYELLOW
6
CONTINUOUS
10
110.8552379999999999
20
-69.9575569999999942
11
110.9028569999999974
21
-69.9099379999999968
0
LINE
8
LYELLOW
6
CONTINUOUS
10
110.9028569999999974
20
-69.9099379999999968
11
110.9980949999999922
21
-69.8623189999999994
0
LINE
8
LYELLOW
6
CONTINUOUS
10
110.9980949999999922
20
-69.8623189999999994
11
111.2361899999999935
21
-69.8623189999999994
0
LINE
8
LYELLOW
6
CONTINUOUS
10
111.2361899999999935
20
-69.8623189999999994
11
111.3314279999999883
21
-69.9099379999999968
0
LINE
8
LYELLOW
6
CONTINUOUS
10
111.3314279999999883
20
-69.9099379999999968
11
111.3790469999999999
21
-69.9575569999999942
0
LINE
8
LYELLOW
6
CONTINUOUS
10
111.3790469999999999
20
-69.9575569999999942
11
111.4266659999999973
21
-70.0527950000000033
0
LINE
8
LYELLOW
6
CONTINUOUS
10
111.4266659999999973
20
-70.0527950000000033
11
111.4266659999999973
21
-70.1480329999999981
0
LINE
8
LYELLOW
6
CONTINUOUS
10
111.4266659999999973
20
-70.1480329999999981
11
111.3790469999999999
21
-70.2908899999999903
0
LINE
8
LYELLOW
6
CONTINUOUS
10
111.3790469999999999
20
-70.2908899999999903
11
110.8076189999999883
21
-70.8623189999999994
0
LINE
8
LYELLOW
6
CONTINUOUS
10
110.8076189999999883
20
-70.8623189999999994
11
111.4266659999999973
21
-70.8623189999999994
0
LINE
8
LYELLOW
6
CONTINUOUS
10
69.0219050000000038
20
-47.8223190000000002
11
69.0219050000000038
21
-46.8223190000000002
0
LINE
8
LYELLOW
6
CONTINUOUS
10
69.0219050000000038
20
-46.8223190000000002
11
69.2599999999999909
21
-46.8223190000000002
0
LINE
8
LYELLOW
6
CONTINUOUS
10
69.2599999999999909
20
-46.8223190000000002
11
69.4028569999999974
21
-46.8699379999999977
0
LINE
8
LYELLOW
6
CONTINUOUS
10
69.4028569999999974
20
-46.8699379999999977
11
69.4980949999999922
21
-46.9651759999999996
0
LINE
8
LYELLOW
6
CONTINUOUS
10
69.4980949999999922
20
-46.9651759999999996
11
69.5457140000000038
21
-47.0604139999999944
0
LINE
8
LYELLOW
6
CONTINUOUS
10
69.5457140000000038
20
-47.0604139999999944
11
69.5933330000000012
21
-47.2508899999999983
0
LINE
8
LYELLOW
6
CONTINUOUS
10
69.5933330000000012
20
-47.2508899999999983
11
69.5933330000000012
21
-47.3937469999999976
0
LINE
8
LYELLOW
6
CONTINUOUS
10
69.5933330000000012
20
-47.3937469999999976
11
69.5457140000000038
21
-47.5842229999999944
0
LINE
8
LYELLOW
6
CONTINUOUS
10
69.5457140000000038
20
-47.5842229999999944
11
69.4980949999999922
21
-47.6794609999999963
0
LINE
8
LYELLOW
6
CONTINUOUS
10
69.4980949999999922
20
-47.6794609999999963
11
69.4028569999999974
21
-47.7746999999999957
0
LINE
8
LYELLOW
6
CONTINUOUS
10
69.4028569999999974
20
-47.7746999999999957
11
69.2599999999999909
21
-47.8223190000000002
0
LINE
8
LYELLOW
6
CONTINUOUS
10
69.2599999999999909
20
-47.8223190000000002
11
69.0219050000000038
21
-47.8223190000000002
0
LINE
8
LYELLOW
6
CONTINUOUS
10
69.9742859999999922
20
-46.9175569999999951
11
70.0219050000000038
21
-46.8699379999999977
0
LINE
8
LYELLOW
6
CONTINUOUS
10
70.0219050000000038
20
-46.8699379999999977
11
70.1171429999999987
21
-46.8223190000000002
0
LINE
8
LYELLOW
6
CONTINUOUS
10
70.1171429999999987
20
-46.8223190000000002
11
70.3552379999999999
21
-46.8223190000000002
0
LINE
8
LYELLOW
6
CONTINUOUS
10
70.3552379999999999
20
-46.8223190000000002
11
70.4504759999999948
21
-46.8699379999999977
0
LINE
8
LYELLOW
6
CONTINUOUS
10
70.4504759999999948
20
-46.8699379999999977
11
70.4980949999999922
21
-46.9175569999999951
0
LINE
8
LYELLOW
6
CONTINUOUS
10
70.4980949999999922
20
-46.9175569999999951
11
70.5457140000000038
21
-47.012794999999997
0
LINE
8
LYELLOW
6
CONTINUOUS
10
70.5457140000000038
20
-47.012794999999997
11
70.5457140000000038
21
-47.1080329999999989
0
LINE
8
LYELLOW
6
CONTINUOUS
10
70.5457140000000038
20
-47.1080329999999989
11
70.4980949999999922
21
-47.2508899999999983
0
LINE
8
LYELLOW
6
CONTINUOUS
10
70.4980949999999922
20
-47.2508899999999983
11
69.9266669999999948
21
-47.8223190000000002
0
LINE
8
LYELLOW
6
CONTINUOUS
10
69.9266669999999948
20
-47.8223190000000002
11
70.5457140000000038
21
-47.8223190000000002
0
LINE
8
LYELLOW
6
CONTINUOUS
10
65.6880950000000041
20
-48.1423190000000005
11
65.6880950000000041
21
-47.1423190000000005
0
LINE
8
LYELLOW
6
CONTINUOUS
10
66.2595230000000015
20
-48.1423190000000005
11
65.8309519999999964
21
-47.5708899999999986
0
LINE
8
LYELLOW
6
CONTINUOUS
10
66.2595230000000015
20
-47.1423190000000005
11
65.6880950000000041
21
-47.7137469999999979
0
LINE
8
LYELLOW
6
CONTINUOUS
10
36.9980949999999993
20
-54.8023189999999971
11
36.9980949999999993
21
-55.6118419999999958
0
LINE
8
LYELLOW
6
CONTINUOUS
10
36.9980949999999993
20
-55.6118419999999958
11
37.0457139999999967
21
-55.7070799999999977
0
LINE
8
LYELLOW
6
CONTINUOUS
10
37.0457139999999967
20
-55.7070799999999977
11
37.0933330000000012
21
-55.7546999999999997
0
LINE
8
LYELLOW
6
CONTINUOUS
10
37.0933330000000012
20
-55.7546999999999997
11
37.188570999999996
21
-55.8023189999999971
0
LINE
8
LYELLOW
6
CONTINUOUS
10
37.188570999999996
20
-55.8023189999999971
11
37.3790469999999999
21
-55.8023189999999971
0
LINE
8
LYELLOW
6
CONTINUOUS
10
37.3790469999999999
20
-55.8023189999999971
11
37.4742850000000018
21
-55.7546999999999997
0
LINE
8
LYELLOW
6
CONTINUOUS
10
37.4742850000000018
20
-55.7546999999999997
11
37.5219039999999993
21
-55.7070799999999977
0
LINE
8
LYELLOW
6
CONTINUOUS
10
37.5219039999999993
20
-55.7070799999999977
11
37.5695229999999967
21
-55.6118419999999958
0
LINE
8
LYELLOW
6
CONTINUOUS
10
37.5695229999999967
20
-55.6118419999999958
11
37.5695229999999967
21
-54.8023189999999971
0
LINE
8
LYELLOW
6
CONTINUOUS
10
37.9504759999999948
20
-54.8023189999999971
11
38.5695229999999967
21
-54.8023189999999971
0
LINE
8
LYELLOW
6
CONTINUOUS
10
38.5695229999999967
20
-54.8023189999999971
11
38.2361900000000006
21
-55.1832709999999977
0
LINE
8
LYELLOW
6
CONTINUOUS
10
38.2361900000000006
20
-55.1832709999999977
11
38.3790469999999999
21
-55.1832709999999977
0
LINE
8
LYELLOW
6
CONTINUOUS
10
38.3790469999999999
20
-55.1832709999999977
11
38.4742849999999947
21
-55.2308899999999952
0
LINE
8
LYELLOW
6
CONTINUOUS
10
38.4742849999999947
20
-55.2308899999999952
11
38.5219039999999993
21
-55.2785089999999997
0
LINE
8
LYELLOW
6
CONTINUOUS
10
38.5219039999999993
20
-55.2785089999999997
11
38.5695229999999967
21
-55.3737469999999945
0
LINE
8
LYELLOW
6
CONTINUOUS
10
38.5695229999999967
20
-55.3737469999999945
11
38.5695229999999967
21
-55.6118419999999958
0
LINE
8
LYELLOW
6
CONTINUOUS
10
38.5695229999999967
20
-55.6118419999999958
11
38.5219039999999993
21
-55.7070799999999977
0
LINE
8
LYELLOW
6
CONTINUOUS
10
38.5219039999999993
20
-55.7070799999999977
11
38.4742849999999947
21
-55.7546999999999997
0
LINE
8
LYELLOW
6
CONTINUOUS
10
38.4742849999999947
20
-55.7546999999999997
11
38.3790469999999999
21
-55.8023189999999971
0
LINE
8
LYELLOW
6
CONTINUOUS
10
38.3790469999999999
20
-55.8023189999999971
11
38.0933330000000012
21
-55.8023189999999971
0
LINE
8
LYELLOW
6
CONTINUOUS
10
38.0933330000000012
20
-55.8023189999999971
11
37.9980949999999993
21
-55.7546999999999997
0
LINE
8
LYELLOW
6
CONTINUOUS
10
37.9980949999999993
20
-55.7546999999999997
11
37.9504759999999948
21
-55.7070799999999977
0
LINE
8
LYELLOW
6
CONTINUOUS
10
85.5933330000000012
20
-73.5723189999999931
11
85.2599999999999909
21
-73.0961279999999931
0
LINE
8
LYELLOW
6
CONTINUOUS
10
85.0219049999999896
20
-73.5723189999999931
11
85.0219049999999896
21
-72.5723189999999931
0
LINE
8
LYELLOW
6
CONTINUOUS
10
85.0219049999999896
20
-72.5723189999999931
11
85.4028569999999974
21
-72.5723189999999931
0
LINE
8
LYELLOW
6
CONTINUOUS
10
85.4028569999999974
20
-72.5723189999999931
11
85.4980949999999922
21
-72.6199379999999906
0
LINE
8
LYELLOW
6
CONTINUOUS
10
85.4980949999999922
20
-72.6199379999999906
11
85.5457139999999896
21
-72.6675570000000022
0
LINE
8
LYELLOW
6
CONTINUOUS
10
85.5457139999999896
20
-72.6675570000000022
11
85.5933330000000012
21
-72.762794999999997
0
LINE
8
LYELLOW
6
CONTINUOUS
10
85.5933330000000012
20
-72.762794999999997
11
85.5933330000000012
21
-72.9056520000000035
0
LINE
8
LYELLOW
6
CONTINUOUS
10
85.5933330000000012
20
-72.9056520000000035
11
85.5457139999999896
21
-73.0008899999999983
0
LINE
8
LYELLOW
6
CONTINUOUS
10
85.5457139999999896
20
-73.0008899999999983
11
85.4980949999999922
21
-73.0485089999999957
0
LINE
8
LYELLOW
6
CONTINUOUS
10
85.4980949999999922
20
-73.0485089999999957
11
85.4028569999999974
21
-73.0961279999999931
0
LINE
8
LYELLOW
6
CONTINUOUS
10
85.4028569999999974
20
-73.0961279999999931
11
85.0219049999999896
21
-73.0961279999999931
0
LINE
8
LYELLOW
6
CONTINUOUS
10
86.4980949999999922
20
-72.5723189999999931
11
86.0219049999999896
21
-72.5723189999999931
0
LINE
8
LYELLOW
6
CONTINUOUS
10
86.0219049999999896
20
-72.5723189999999931
11
85.9742859999999922
21
-73.0485089999999957
0
LINE
8
LYELLOW
6
CONTINUOUS
10
85.9742859999999922
20
-73.0485089999999957
11
86.0219049999999896
21
-73.0008899999999983
0
LINE
8
LYELLOW
6
CONTINUOUS
10
86.0219049999999896
20
-73.0008899999999983
11
86.1171429999999987
21
-72.9532710000000009
0
LINE
8
LYELLOW
6
CONTINUOUS
10
86.1171429999999987
20
-72.9532710000000009
11
86.3552379999999999
21
-72.9532710000000009
0
LINE
8
LYELLOW
6
CONTINUOUS
10
86.3552379999999999
20
-72.9532710000000009
11
86.4504759999999948
21
-73.0008899999999983
0
LINE
8
LYELLOW
6
CONTINUOUS
10
86.4504759999999948
20
-73.0008899999999983
11
86.4980949999999922
21
-73.0485089999999957
0
LINE
8
LYELLOW
6
CONTINUOUS
10
86.4980949999999922
20
-73.0485089999999957
11
86.5457139999999896
21
-73.1437469999999905
0
LINE
8
LYELLOW
6
CONTINUOUS
10
86.5457139999999896
20
-73.1437469999999905
11
86.5457139999999896
21
-73.3818419999999918
0
LINE
8
LYELLOW
6
CONTINUOUS
10
86.5457139999999896
20
-73.3818419999999918
11
86.4980949999999922
21
-73.4770800000000008
0
LINE
8
LYELLOW
6
CONTINUOUS
10
86.4980949999999922
20
-73.4770800000000008
11
86.4504759999999948
21
-73.5246999999999957
0
LINE
8
LYELLOW
6
CONTINUOUS
10
86.4504759999999948
20
-73.5246999999999957
11
86.3552379999999999
21
-73.5723189999999931
0
LINE
8
LYELLOW
6
CONTINUOUS
10
86.3552379999999999
20
-73.5723189999999931
11
86.1171429999999987
21
-73.5723189999999931
0
LINE
8
LYELLOW
6
CONTINUOUS
10
86.1171429999999987
20
-73.5723189999999931
11
86.0219049999999896
21
-73.5246999999999957
0
LINE
8
LYELLOW
6
CONTINUOUS
10
86.0219049999999896
20
-73.5246999999999957
11
85.9742859999999922
21
-73.4770800000000008
0
LINE
8
LYELLOW
6
CONTINUOUS
10
29.4266659999999973
20
-71.2873189999999965
11
29.4266659999999973
21
-72.0016040000000004
0
LINE
8
LYELLOW
6
CONTINUOUS
10
29.4266659999999973
20
-72.0016040000000004
11
29.3790469999999999
21
-72.1444609999999926
0
LINE
8
LYELLOW
6
CONTINUOUS
10
29.3790469999999999
20
-72.1444609999999926
11
29.283808999999998
21
-72.2396999999999991
0
LINE
8
LYELLOW
6
CONTINUOUS
10
29.283808999999998
20
-72.2396999999999991
11
29.1409519999999986
21
-72.2873189999999965
0
LINE
8
LYELLOW
6
CONTINUOUS
10
29.1409519999999986
20
-72.2873189999999965
11
29.0457140000000003
21
-72.2873189999999965
0
LINE
8
LYELLOW
6
CONTINUOUS
10
30.4266659999999973
20
-72.2873189999999965
11
29.8552379999999999
21
-72.2873189999999965
0
LINE
8
LYELLOW
6
CONTINUOUS
10
30.1409519999999986
20
-72.2873189999999965
11
30.1409519999999986
21
-71.2873189999999965
0
LINE
8
LYELLOW
6
CONTINUOUS
10
30.1409519999999986
20
-71.2873189999999965
11
30.0457140000000003
21
-71.430176000000003
0
LINE
8
LYELLOW
6
CONTINUOUS
10
30.0457140000000003
20
-71.430176000000003
11
29.9504759999999983
21
-71.5254139999999978
0
LINE
8
LYELLOW
6
CONTINUOUS
10
29.9504759999999983
20
-71.5254139999999978
11
29.8552379999999999
21
-71.5730329999999952
0
LINE
8
LYELLOW
6
CONTINUOUS
10
34.9980949999999993
20
-31.7923189999999991
11
34.9980949999999993
21
-32.6018419999999978
0
LINE
8
LYELLOW
6
CONTINUOUS
10
34.9980949999999993
20
-32.6018419999999978
11
35.0457139999999967
21
-32.6970799999999997
0
LINE
8
LYELLOW
6
CONTINUOUS
10
35.0457139999999967
20
-32.6970799999999997
11
35.0933330000000012
21
-32.7447000000000017
0
LINE
8
LYELLOW
6
CONTINUOUS
10
35.0933330000000012
20
-32.7447000000000017
11
35.188570999999996
21
-32.7923189999999991
0
LINE
8
LYELLOW
6
CONTINUOUS
10
35.188570999999996
20
-32.7923189999999991
11
35.3790469999999999
21
-32.7923189999999991
0
LINE
8
LYELLOW
6
CONTINUOUS
10
35.3790469999999999
20
-32.7923189999999991
11
35.4742850000000018
21
-32.7447000000000017
0
LINE
8
LYELLOW
6
CONTINUOUS
10
35.4742850000000018
20
-32.7447000000000017
11
35.5219039999999993
21
-32.6970799999999997
0
LINE
8
LYELLOW
6
CONTINUOUS
10
35.5219039999999993
20
-32.6970799999999997
11
35.5695229999999967
21
-32.6018419999999978
0
LINE
8
LYELLOW
6
CONTINUOUS
10
35.5695229999999967
20
-32.6018419999999978
11
35.5695229999999967
21
-31.7923189999999991
0
LINE
8
LYELLOW
6
CONTINUOUS
10
36.5695229999999967
20
-32.7923189999999991
11
35.9980949999999993
21
-32.7923189999999991
0
LINE
8
LYELLOW
6
CONTINUOUS
10
36.283808999999998
20
-32.7923189999999991
11
36.283808999999998
21
-31.7923189999999991
0
LINE
8
LYELLOW
6
CONTINUOUS
10
36.283808999999998
20
-31.7923189999999991
11
36.188570999999996
21
-31.9351759999999985
0
LINE
8
LYELLOW
6
CONTINUOUS
10
36.188570999999996
20
-31.9351759999999985
11
36.0933330000000012
21
-32.0304140000000004
0
LINE
8
LYELLOW
6
CONTINUOUS
10
36.0933330000000012
20
-32.0304140000000004
11
35.9980949999999993
21
-32.0780329999999978
0
LINE
8
LYELLOW
6
CONTINUOUS
10
45.5933330000000012
20
-47.5723190000000002
11
45.259999999999998
21
-47.0961280000000002
0
LINE
8
LYELLOW
6
CONTINUOUS
10
45.0219049999999967
20
-47.5723190000000002
11
45.0219049999999967
21
-46.5723190000000002
0
LINE
8
LYELLOW
6
CONTINUOUS
10
45.0219049999999967
20
-46.5723190000000002
11
45.4028569999999974
21
-46.5723190000000002
0
LINE
8
LYELLOW
6
CONTINUOUS
10
45.4028569999999974
20
-46.5723190000000002
11
45.4980949999999993
21
-46.6199379999999977
0
LINE
8
LYELLOW
6
CONTINUOUS
10
45.4980949999999993
20
-46.6199379999999977
11
45.5457139999999967
21
-46.6675569999999951
0
LINE
8
LYELLOW
6
CONTINUOUS
10
45.5457139999999967
20
-46.6675569999999951
11
45.5933330000000012
21
-46.762794999999997
0
LINE
8
LYELLOW
6
CONTINUOUS
10
45.5933330000000012
20
-46.762794999999997
11
45.5933330000000012
21
-46.9056519999999963
0
LINE
8
LYELLOW
6
CONTINUOUS
10
45.5933330000000012
20
-46.9056519999999963
11
45.5457139999999967
21
-47.0008899999999983
0
LINE
8
LYELLOW
6
CONTINUOUS
10
45.5457139999999967
20
-47.0008899999999983
11
45.4980949999999993
21
-47.0485089999999957
0
LINE
8
LYELLOW
6
CONTINUOUS
10
45.4980949999999993
20
-47.0485089999999957
11
45.4028569999999974
21
-47.0961280000000002
0
LINE
8
LYELLOW
6
CONTINUOUS
10
45.4028569999999974
20
-47.0961280000000002
11
45.0219049999999967
21
-47.0961280000000002
0
LINE
8
LYELLOW
6
CONTINUOUS
10
45.9266669999999948
20
-46.5723190000000002
11
46.5457139999999967
21
-46.5723190000000002
0
LINE
8
LYELLOW
6
CONTINUOUS
10
46.5457139999999967
20
-46.5723190000000002
11
46.2123810000000006
21
-46.9532710000000009
0
LINE
8
LYELLOW
6
CONTINUOUS
10
46.2123810000000006
20
-46.9532710000000009
11
46.3552379999999999
21
-46.9532710000000009
0
LINE
8
LYELLOW
6
CONTINUOUS
10
46.3552379999999999
20
-46.9532710000000009
11
46.4504759999999948
21
-47.0008899999999983
0
LINE
8
LYELLOW
6
CONTINUOUS
10
46.4504759999999948
20
-47.0008899999999983
11
46.4980949999999993
21
-47.0485089999999957
0
LINE
8
LYELLOW
6
CONTINUOUS
10
46.4980949999999993
20
-47.0485089999999957
11
46.5457139999999967
21
-47.1437469999999976
0
LINE
8
LYELLOW
6
CONTINUOUS
10
46.5457139999999967
20
-47.1437469999999976
11
46.5457139999999967
21
-47.3818419999999989
0
LINE
8
LYELLOW
6
CONTINUOUS
10
46.5457139999999967
20
-47.3818419999999989
11
46.4980949999999993
21
-47.4770800000000008
0
LINE
8
LYELLOW
6
CONTINUOUS
10
46.4980949999999993
20
-47.4770800000000008
11
46.4504759999999948
21
-47.5246999999999957
0
LINE
8
LYELLOW
6
CONTINUOUS
10
46.4504759999999948
20
-47.5246999999999957
11
46.3552379999999999
21
-47.5723190000000002
0
LINE
8
LYELLOW
6
CONTINUOUS
10
46.3552379999999999
20
-47.5723190000000002
11
46.0695240000000013
21
-47.5723190000000002
0
LINE
8
LYELLOW
6
CONTINUOUS
10
46.0695240000000013
20
-47.5723190000000002
11
45.9742859999999993
21
-47.5246999999999957
0
LINE
8
LYELLOW
6
CONTINUOUS
10
45.9742859999999993
20
-47.5246999999999957
11
45.9266669999999948
21
-47.4770800000000008
0
LINE
8
LYELLOW
6
CONTINUOUS
10
99.6906329999999912
20
-90.5970799999999912
11
99.6430139999999938
21
-90.6447000000000003
0
LINE
8
LYELLOW
6
CONTINUOUS
10
99.6430139999999938
20
-90.6447000000000003
11
99.5001570000000015
21
-90.6923189999999977
0
LINE
8
LYELLOW
6
CONTINUOUS
10
99.5001570000000015
20
-90.6923189999999977
11
99.4049189999999925
21
-90.6923189999999977
0
LINE
8
LYELLOW
6
CONTINUOUS
10
99.4049189999999925
20
-90.6923189999999977
11
99.2620620000000002
21
-90.6447000000000003
0
LINE
8
LYELLOW
6
CONTINUOUS
10
99.2620620000000002
20
-90.6447000000000003
11
99.1668239999999912
21
-90.5494609999999938
0
LINE
8
LYELLOW
6
CONTINUOUS
10
99.1668239999999912
20
-90.5494609999999938
11
99.1192049999999938
21
-90.4542229999999989
0
LINE
8
LYELLOW
6
CONTINUOUS
10
99.1192049999999938
20
-90.4542229999999989
11
99.0715859999999964
21
-90.2637469999999951
0
LINE
8
LYELLOW
6
CONTINUOUS
10
99.0715859999999964
20
-90.2637469999999951
11
99.0715859999999964
21
-90.1208900000000028
0
LINE
8
LYELLOW
6
CONTINUOUS
10
99.0715859999999964
20
-90.1208900000000028
11
99.1192049999999938
21
-89.930413999999999
0
LINE
8
LYELLOW
6
CONTINUOUS
10
99.1192049999999938
20
-89.930413999999999
11
99.1668239999999912
21
-89.8351759999999899
0
LINE
8
LYELLOW
6
CONTINUOUS
10
99.1668239999999912
20
-89.8351759999999899
11
99.2620620000000002
21
-89.7399379999999951
0
LINE
8
LYELLOW
6
CONTINUOUS
10
99.2620620000000002
20
-89.7399379999999951
11
99.4049189999999925
21
-89.6923189999999977
0
LINE
8
LYELLOW
6
CONTINUOUS
10
99.4049189999999925
20
-89.6923189999999977
11
99.5001570000000015
21
-89.6923189999999977
0
LINE
8
LYELLOW
6
CONTINUOUS
10
99.5001570000000015
20
-89.6923189999999977
11
99.6430139999999938
21
-89.7399379999999951
0
LINE
8
LYELLOW
6
CONTINUOUS
10
99.6430139999999938
20
-89.7399379999999951
11
99.6906329999999912
21
-89.7875569999999925
0
LINE
8
LYELLOW
6
CONTINUOUS
10
100.5953949999999963
20
-89.6923189999999977
11
100.1192049999999938
21
-89.6923189999999977
0
LINE
8
LYELLOW
6
CONTINUOUS
10
100.1192049999999938
20
-89.6923189999999977
11
100.0715859999999964
21
-90.1685090000000002
0
LINE
8
LYELLOW
6
CONTINUOUS
10
100.0715859999999964
20
-90.1685090000000002
11
100.1192049999999938
21
-90.1208900000000028
0
LINE
8
LYELLOW
6
CONTINUOUS
10
100.1192049999999938
20
-90.1208900000000028
11
100.2144429999999886
21
-90.0732709999999912
0
LINE
8
LYELLOW
6
CONTINUOUS
10
100.2144429999999886
20
-90.0732709999999912
11
100.4525379999999899
21
-90.0732709999999912
0
LINE
8
LYELLOW
6
CONTINUOUS
10
100.4525379999999899
20
-90.0732709999999912
11
100.5477759999999989
21
-90.1208900000000028
0
LINE
8
LYELLOW
6
CONTINUOUS
10
100.5477759999999989
20
-90.1208900000000028
11
100.5953949999999963
21
-90.1685090000000002
0
LINE
8
LYELLOW
6
CONTINUOUS
10
100.5953949999999963
20
-90.1685090000000002
11
100.6430139999999938
21
-90.2637469999999951
0
LINE
8
LYELLOW
6
CONTINUOUS
10
100.6430139999999938
20
-90.2637469999999951
11
100.6430139999999938
21
-90.5018419999999963
0
LINE
8
LYELLOW
6
CONTINUOUS
10
100.6430139999999938
20
-90.5018419999999963
11
100.5953949999999963
21
-90.5970799999999912
0
LINE
8
LYELLOW
6
CONTINUOUS
10
100.5953949999999963
20
-90.5970799999999912
11
100.5477759999999989
21
-90.6447000000000003
0
LINE
8
LYELLOW
6
CONTINUOUS
10
100.5477759999999989
20
-90.6447000000000003
11
100.4525379999999899
21
-90.6923189999999977
0
LINE
8
LYELLOW
6
CONTINUOUS
10
100.4525379999999899
20
-90.6923189999999977
11
100.2144429999999886
21
-90.6923189999999977
0
LINE
8
LYELLOW
6
CONTINUOUS
10
100.2144429999999886
20
-90.6923189999999977
11
100.1192049999999938
21
-90.6447000000000003
0
LINE
8
LYELLOW
6
CONTINUOUS
10
100.1192049999999938
20
-90.6447000000000003
11
100.0715859999999964
21
-90.5970799999999912
0
LINE
8
LYELLOW
6
CONTINUOUS
10
51.5933329999999941
20
-59.3470799999999983
11
51.5457139999999967
21
-59.3947000000000003
0
LINE
8
LYELLOW
6
CONTINUOUS
10
51.5457139999999967
20
-59.3947000000000003
11
51.4028569999999974
21
-59.4423189999999977
0
LINE
8
LYELLOW
6
CONTINUOUS
10
51.4028569999999974
20
-59.4423189999999977
11
51.3076189999999954
21
-59.4423189999999977
0
LINE
8
LYELLOW
6
CONTINUOUS
10
51.3076189999999954
20
-59.4423189999999977
11
51.1647619999999961
21
-59.3947000000000003
0
LINE
8
LYELLOW
6
CONTINUOUS
10
51.1647619999999961
20
-59.3947000000000003
11
51.0695239999999941
21
-59.2994610000000009
0
LINE
8
LYELLOW
6
CONTINUOUS
10
51.0695239999999941
20
-59.2994610000000009
11
51.0219049999999967
21
-59.2042229999999989
0
LINE
8
LYELLOW
6
CONTINUOUS
10
51.0219049999999967
20
-59.2042229999999989
11
50.9742859999999993
21
-59.0137469999999951
0
LINE
8
LYELLOW
6
CONTINUOUS
10
50.9742859999999993
20
-59.0137469999999951
11
50.9742859999999993
21
-58.8708899999999957
0
LINE
8
LYELLOW
6
CONTINUOUS
10
50.9742859999999993
20
-58.8708899999999957
11
51.0219049999999967
21
-58.680413999999999
0
LINE
8
LYELLOW
6
CONTINUOUS
10
51.0219049999999967
20
-58.680413999999999
11
51.0695239999999941
21
-58.585175999999997
0
LINE
8
LYELLOW
6
CONTINUOUS
10
51.0695239999999941
20
-58.585175999999997
11
51.1647619999999961
21
-58.4899379999999951
0
LINE
8
LYELLOW
6
CONTINUOUS
10
51.1647619999999961
20
-58.4899379999999951
11
51.3076189999999954
21
-58.4423189999999977
0
LINE
8
LYELLOW
6
CONTINUOUS
10
51.3076189999999954
20
-58.4423189999999977
11
51.4028569999999974
21
-58.4423189999999977
0
LINE
8
LYELLOW
6
CONTINUOUS
10
51.4028569999999974
20
-58.4423189999999977
11
51.5457139999999967
21
-58.4899379999999951
0
LINE
8
LYELLOW
6
CONTINUOUS
10
51.5457139999999967
20
-58.4899379999999951
11
51.5933329999999941
21
-58.5375569999999996
0
LINE
8
LYELLOW
6
CONTINUOUS
10
52.4504759999999948
20
-58.7756519999999938
11
52.4504759999999948
21
-59.4423189999999977
0
LINE
8
LYELLOW
6
CONTINUOUS
10
52.2123810000000006
20
-58.3947000000000003
11
51.9742859999999993
21
-59.108984999999997
0
LINE
8
LYELLOW
6
CONTINUOUS
10
51.9742859999999993
20
-59.108984999999997
11
52.5933329999999941
21
-59.108984999999997
0
LINE
8
LYELLOW
6
CONTINUOUS
10
110.4266659999999973
20
-89.8623189999999994
11
110.4266659999999973
21
-90.576603999999989
0
LINE
8
LYELLOW
6
CONTINUOUS
10
110.4266659999999973
20
-90.576603999999989
11
110.3790469999999999
21
-90.7194609999999955
0
LINE
8
LYELLOW
6
CONTINUOUS
10
110.3790469999999999
20
-90.7194609999999955
11
110.2838089999999909
21
-90.814700000000002
0
LINE
8
LYELLOW
6
CONTINUOUS
10
110.2838089999999909
20
-90.814700000000002
11
110.1409519999999986
21
-90.8623189999999994
0
LINE
8
LYELLOW
6
CONTINUOUS
10
110.1409519999999986
20
-90.8623189999999994
11
110.0457139999999896
21
-90.8623189999999994
0
LINE
8
LYELLOW
6
CONTINUOUS
10
110.8076189999999883
20
-89.8623189999999994
11
111.4266659999999973
21
-89.8623189999999994
0
LINE
8
LYELLOW
6
CONTINUOUS
10
111.4266659999999973
20
-89.8623189999999994
11
111.0933330000000012
21
-90.2432709999999929
0
LINE
8
LYELLOW
6
CONTINUOUS
10
111.0933330000000012
20
-90.2432709999999929
11
111.2361899999999935
21
-90.2432709999999929
0
LINE
8
LYELLOW
6
CONTINUOUS
10
111.2361899999999935
20
-90.2432709999999929
11
111.3314279999999883
21
-90.2908899999999903
0
LINE
8
LYELLOW
6
CONTINUOUS
10
111.3314279999999883
20
-90.2908899999999903
11
111.3790469999999999
21
-90.3385090000000019
0
LINE
8
LYELLOW
6
CONTINUOUS
10
111.3790469999999999
20
-90.3385090000000019
11
111.4266659999999973
21
-90.4337469999999968
0
LINE
8
LYELLOW
6
CONTINUOUS
10
111.4266659999999973
20
-90.4337469999999968
11
111.4266659999999973
21
-90.6718419999999981
0
LINE
8
LYELLOW
6
CONTINUOUS
10
111.4266659999999973
20
-90.6718419999999981
11
111.3790469999999999
21
-90.7670799999999929
0
LINE
8
LYELLOW
6
CONTINUOUS
10
111.3790469999999999
20
-90.7670799999999929
11
111.3314279999999883
21
-90.814700000000002
0
LINE
8
LYELLOW
6
CONTINUOUS
10
111.3314279999999883
20
-90.814700000000002
11
111.2361899999999935
21
-90.8623189999999994
0
LINE
8
LYELLOW
6
CONTINUOUS
10
111.2361899999999935
20
-90.8623189999999994
11
110.9504759999999948
21
-90.8623189999999994
0
LINE
8
LYELLOW
6
CONTINUOUS
10
110.9504759999999948
20
-90.8623189999999994
11
110.8552379999999999
21
-90.814700000000002
0
LINE
8
LYELLOW
6
CONTINUOUS
10
110.8552379999999999
20
-90.814700000000002
11
110.8076189999999883
21
-90.7670799999999929
0
LINE
8
LYELLOW
6
CONTINUOUS
10
57.5933329999999941
20
-73.5723189999999931
11
57.259999999999998
21
-73.0961279999999931
0
LINE
8
LYELLOW
6
CONTINUOUS
10
57.0219049999999967
20
-73.5723189999999931
11
57.0219049999999967
21
-72.5723189999999931
0
LINE
8
LYELLOW
6
CONTINUOUS
10
57.0219049999999967
20
-72.5723189999999931
11
57.4028569999999974
21
-72.5723189999999931
0
LINE
8
LYELLOW
6
CONTINUOUS
10
57.4028569999999974
20
-72.5723189999999931
11
57.4980949999999993
21
-72.6199379999999906
0
LINE
8
LYELLOW
6
CONTINUOUS
10
57.4980949999999993
20
-72.6199379999999906
11
57.5457139999999967
21
-72.6675570000000022
0
LINE
8
LYELLOW
6
CONTINUOUS
10
57.5457139999999967
20
-72.6675570000000022
11
57.5933329999999941
21
-72.762794999999997
0
LINE
8
LYELLOW
6
CONTINUOUS
10
57.5933329999999941
20
-72.762794999999997
11
57.5933329999999941
21
-72.9056520000000035
0
LINE
8
LYELLOW
6
CONTINUOUS
10
57.5933329999999941
20
-72.9056520000000035
11
57.5457139999999967
21
-73.0008899999999983
0
LINE
8
LYELLOW
6
CONTINUOUS
10
57.5457139999999967
20
-73.0008899999999983
11
57.4980949999999993
21
-73.0485089999999957
0
LINE
8
LYELLOW
6
CONTINUOUS
10
57.4980949999999993
20
-73.0485089999999957
11
57.4028569999999974
21
-73.0961279999999931
0
LINE
8
LYELLOW
6
CONTINUOUS
10
57.4028569999999974
20
-73.0961279999999931
11
57.0219049999999967
21
-73.0961279999999931
0
LINE
8
LYELLOW
6
CONTINUOUS
10
58.5457139999999967
20
-73.5723189999999931
11
57.9742859999999993
21
-73.5723189999999931
0
LINE
8
LYELLOW
6
CONTINUOUS
10
58.259999999999998
20
-73.5723189999999931
11
58.259999999999998
21
-72.5723189999999931
0
LINE
8
LYELLOW
6
CONTINUOUS
10
58.259999999999998
20
-72.5723189999999931
11
58.1647619999999961
21
-72.7151759999999996
0
LINE
8
LYELLOW
6
CONTINUOUS
10
58.1647619999999961
20
-72.7151759999999996
11
58.0695239999999941
21
-72.8104139999999944
0
LINE
8
LYELLOW
6
CONTINUOUS
10
58.0695239999999941
20
-72.8104139999999944
11
57.9742859999999993
21
-72.8580329999999918
0
LINE
8
LYELLOW
6
CONTINUOUS
10
70.9980949999999922
20
-70.0723189999999931
11
70.9980949999999922
21
-70.8818419999999918
0
LINE
8
LYELLOW
6
CONTINUOUS
10
70.9980949999999922
20
-70.8818419999999918
11
71.0457140000000038
21
-70.9770800000000008
0
LINE
8
LYELLOW
6
CONTINUOUS
10
71.0457140000000038
20
-70.9770800000000008
11
71.0933330000000012
21
-71.0246999999999957
0
LINE
8
LYELLOW
6
CONTINUOUS
10
71.0933330000000012
20
-71.0246999999999957
11
71.188570999999996
21
-71.0723189999999931
0
LINE
8
LYELLOW
6
CONTINUOUS
10
71.188570999999996
20
-71.0723189999999931
11
71.3790469999999999
21
-71.0723189999999931
0
LINE
8
LYELLOW
6
CONTINUOUS
10
71.3790469999999999
20
-71.0723189999999931
11
71.4742849999999947
21
-71.0246999999999957
0
LINE
8
LYELLOW
6
CONTINUOUS
10
71.4742849999999947
20
-71.0246999999999957
11
71.5219039999999922
21
-70.9770800000000008
0
LINE
8
LYELLOW
6
CONTINUOUS
10
71.5219039999999922
20
-70.9770800000000008
11
71.5695230000000038
21
-70.8818419999999918
0
LINE
8
LYELLOW
6
CONTINUOUS
10
71.5695230000000038
20
-70.8818419999999918
11
71.5695230000000038
21
-70.0723189999999931
0
LINE
8
LYELLOW
6
CONTINUOUS
10
71.9980949999999922
20
-70.1675570000000022
11
72.0457140000000038
21
-70.1199379999999906
0
LINE
8
LYELLOW
6
CONTINUOUS
10
72.0457140000000038
20
-70.1199379999999906
11
72.1409519999999986
21
-70.0723189999999931
0
LINE
8
LYELLOW
6
CONTINUOUS
10
72.1409519999999986
20
-70.0723189999999931
11
72.3790469999999999
21
-70.0723189999999931
0
LINE
8
LYELLOW
6
CONTINUOUS
10
72.3790469999999999
20
-70.0723189999999931
11
72.4742849999999947
21
-70.1199379999999906
0
LINE
8
LYELLOW
6
CONTINUOUS
10
72.4742849999999947
20
-70.1199379999999906
11
72.5219039999999922
21
-70.1675570000000022
0
LINE
8
LYELLOW
6
CONTINUOUS
10
72.5219039999999922
20
-70.1675570000000022
11
72.5695230000000038
21
-70.262794999999997
0
LINE
8
LYELLOW
6
CONTINUOUS
10
72.5695230000000038
20
-70.262794999999997
11
72.5695230000000038
21
-70.3580329999999918
0
LINE
8
LYELLOW
6
CONTINUOUS
10
72.5695230000000038
20
-70.3580329999999918
11
72.5219039999999922
21
-70.5008899999999983
0
LINE
8
LYELLOW
6
CONTINUOUS
10
72.5219039999999922
20
-70.5008899999999983
11
71.9504759999999948
21
-71.0723189999999931
0
LINE
8
LYELLOW
6
CONTINUOUS
10
71.9504759999999948
20
-71.0723189999999931
11
72.5695230000000038
21
-71.0723189999999931
0
LINE
8
LYELLOW
6
CONTINUOUS
10
73.5933330000000012
20
-86.9423189999999977
11
73.1171429999999987
21
-86.9423189999999977
0
LINE
8
LYELLOW
6
CONTINUOUS
10
73.1171429999999987
20
-86.9423189999999977
11
73.1171429999999987
21
-85.9423189999999977
0
LINE
8
LYELLOW
6
CONTINUOUS
10
74.4504759999999948
20
-86.9423189999999977
11
73.8790479999999974
21
-86.9423189999999977
0
LINE
8
LYELLOW
6
CONTINUOUS
10
74.1647619999999961
20
-86.9423189999999977
11
74.1647619999999961
21
-85.9423189999999977
0
LINE
8
LYELLOW
6
CONTINUOUS
10
74.1647619999999961
20
-85.9423189999999977
11
74.0695240000000013
21
-86.0851759999999899
0
LINE
8
LYELLOW
6
CONTINUOUS
10
74.0695240000000013
20
-86.0851759999999899
11
73.9742859999999922
21
-86.180413999999999
0
LINE
8
LYELLOW
6
CONTINUOUS
10
73.9742859999999922
20
-86.180413999999999
11
73.8790479999999974
21
-86.2280329999999964
0
LINE
8
LYELLOW
6
CONTINUOUS
10
61.5933329999999941
20
-59.3470799999999983
11
61.5457139999999967
21
-59.3947000000000003
0
LINE
8
LYELLOW
6
CONTINUOUS
10
61.5457139999999967
20
-59.3947000000000003
11
61.4028569999999974
21
-59.4423189999999977
0
LINE
8
LYELLOW
6
CONTINUOUS
10
61.4028569999999974
20
-59.4423189999999977
11
61.3076189999999954
21
-59.4423189999999977
0
LINE
8
LYELLOW
6
CONTINUOUS
10
61.3076189999999954
20
-59.4423189999999977
11
61.1647619999999961
21
-59.3947000000000003
0
LINE
8
LYELLOW
6
CONTINUOUS
10
61.1647619999999961
20
-59.3947000000000003
11
61.0695239999999941
21
-59.2994610000000009
0
LINE
8
LYELLOW
6
CONTINUOUS
10
61.0695239999999941
20
-59.2994610000000009
11
61.0219049999999967
21
-59.2042229999999989
0
LINE
8
LYELLOW
6
CONTINUOUS
10
61.0219049999999967
20
-59.2042229999999989
11
60.9742859999999993
21
-59.0137469999999951
0
LINE
8
LYELLOW
6
CONTINUOUS
10
60.9742859999999993
20
-59.0137469999999951
11
60.9742859999999993
21
-58.8708899999999957
0
LINE
8
LYELLOW
6
CONTINUOUS
10
60.9742859999999993
20
-58.8708899999999957
11
61.0219049999999967
21
-58.680413999999999
0
LINE
8
LYELLOW
6
CONTINUOUS
10
61.0219049999999967
20
-58.680413999999999
11
61.0695239999999941
21
-58.585175999999997
0
LINE
8
LYELLOW
6
CONTINUOUS
10
61.0695239999999941
20
-58.585175999999997
11
61.1647619999999961
21
-58.4899379999999951
0
LINE
8
LYELLOW
6
CONTINUOUS
10
61.1647619999999961
20
-58.4899379999999951
11
61.3076189999999954
21
-58.4423189999999977
0
LINE
8
LYELLOW
6
CONTINUOUS
10
61.3076189999999954
20
-58.4423189999999977
11
61.4028569999999974
21
-58.4423189999999977
0
LINE
8
LYELLOW
6
CONTINUOUS
10
61.4028569999999974
20
-58.4423189999999977
11
61.5457139999999967
21
-58.4899379999999951
0
LINE
8
LYELLOW
6
CONTINUOUS
10
61.5457139999999967
20
-58.4899379999999951
11
61.5933329999999941
21
-58.5375569999999996
0
LINE
8
LYELLOW
6
CONTINUOUS
10
61.9266669999999948
20
-58.4423189999999977
11
62.5457139999999967
21
-58.4423189999999977
0
LINE
8
LYELLOW
6
CONTINUOUS
10
62.5457139999999967
20
-58.4423189999999977
11
62.2123810000000006
21
-58.8232709999999983
0
LINE
8
LYELLOW
6
CONTINUOUS
10
62.2123810000000006
20
-58.8232709999999983
11
62.3552379999999999
21
-58.8232709999999983
0
LINE
8
LYELLOW
6
CONTINUOUS
10
62.3552379999999999
20
-58.8232709999999983
11
62.4504759999999948
21
-58.8708899999999957
0
LINE
8
LYELLOW
6
CONTINUOUS
10
62.4504759999999948
20
-58.8708899999999957
11
62.4980949999999993
21
-58.9185090000000002
0
LINE
8
LYELLOW
6
CONTINUOUS
10
62.4980949999999993
20
-58.9185090000000002
11
62.5457139999999967
21
-59.0137469999999951
0
LINE
8
LYELLOW
6
CONTINUOUS
10
62.5457139999999967
20
-59.0137469999999951
11
62.5457139999999967
21
-59.2518419999999963
0
LINE
8
LYELLOW
6
CONTINUOUS
10
62.5457139999999967
20
-59.2518419999999963
11
62.4980949999999993
21
-59.3470799999999983
0
LINE
8
LYELLOW
6
CONTINUOUS
10
62.4980949999999993
20
-59.3470799999999983
11
62.4504759999999948
21
-59.3947000000000003
0
LINE
8
LYELLOW
6
CONTINUOUS
10
62.4504759999999948
20
-59.3947000000000003
11
62.3552379999999999
21
-59.4423189999999977
0
LINE
8
LYELLOW
6
CONTINUOUS
10
62.3552379999999999
20
-59.4423189999999977
11
62.0695239999999941
21
-59.4423189999999977
0
LINE
8
LYELLOW
6
CONTINUOUS
10
62.0695239999999941
20
-59.4423189999999977
11
61.9742859999999993
21
-59.3947000000000003
0
LINE
8
LYELLOW
6
CONTINUOUS
10
61.9742859999999993
20
-59.3947000000000003
11
61.9266669999999948
21
-59.3470799999999983
0
LINE
8
LYELLOW
6
CONTINUOUS
10
33.5933330000000012
20
-47.5723190000000002
11
33.259999999999998
21
-47.0961280000000002
0
LINE
8
LYELLOW
6
CONTINUOUS
10
33.0219049999999967
20
-47.5723190000000002
11
33.0219049999999967
21
-46.5723190000000002
0
LINE
8
LYELLOW
6
CONTINUOUS
10
33.0219049999999967
20
-46.5723190000000002
11
33.4028569999999974
21
-46.5723190000000002
0
LINE
8
LYELLOW
6
CONTINUOUS
10
33.4028569999999974
20
-46.5723190000000002
11
33.4980949999999993
21
-46.6199379999999977
0
LINE
8
LYELLOW
6
CONTINUOUS
10
33.4980949999999993
20
-46.6199379999999977
11
33.5457139999999967
21
-46.6675569999999951
0
LINE
8
LYELLOW
6
CONTINUOUS
10
33.5457139999999967
20
-46.6675569999999951
11
33.5933330000000012
21
-46.762794999999997
0
LINE
8
LYELLOW
6
CONTINUOUS
10
33.5933330000000012
20
-46.762794999999997
11
33.5933330000000012
21
-46.9056519999999963
0
LINE
8
LYELLOW
6
CONTINUOUS
10
33.5933330000000012
20
-46.9056519999999963
11
33.5457139999999967
21
-47.0008899999999983
0
LINE
8
LYELLOW
6
CONTINUOUS
10
33.5457139999999967
20
-47.0008899999999983
11
33.4980949999999993
21
-47.0485089999999957
0
LINE
8
LYELLOW
6
CONTINUOUS
10
33.4980949999999993
20
-47.0485089999999957
11
33.4028569999999974
21
-47.0961280000000002
0
LINE
8
LYELLOW
6
CONTINUOUS
10
33.4028569999999974
20
-47.0961280000000002
11
33.0219049999999967
21
-47.0961280000000002
0
LINE
8
LYELLOW
6
CONTINUOUS
10
33.9742859999999993
20
-46.6675569999999951
11
34.0219049999999967
21
-46.6199379999999977
0
LINE
8
LYELLOW
6
CONTINUOUS
10
34.0219049999999967
20
-46.6199379999999977
11
34.1171429999999987
21
-46.5723190000000002
0
LINE
8
LYELLOW
6
CONTINUOUS
10
34.1171429999999987
20
-46.5723190000000002
11
34.3552379999999999
21
-46.5723190000000002
0
LINE
8
LYELLOW
6
CONTINUOUS
10
34.3552379999999999
20
-46.5723190000000002
11
34.4504760000000019
21
-46.6199379999999977
0
LINE
8
LYELLOW
6
CONTINUOUS
10
34.4504760000000019
20
-46.6199379999999977
11
34.4980949999999993
21
-46.6675569999999951
0
LINE
8
LYELLOW
6
CONTINUOUS
10
34.4980949999999993
20
-46.6675569999999951
11
34.5457139999999967
21
-46.762794999999997
0
LINE
8
LYELLOW
6
CONTINUOUS
10
34.5457139999999967
20
-46.762794999999997
11
34.5457139999999967
21
-46.8580329999999989
0
LINE
8
LYELLOW
6
CONTINUOUS
10
34.5457139999999967
20
-46.8580329999999989
11
34.4980949999999993
21
-47.0008899999999983
0
LINE
8
LYELLOW
6
CONTINUOUS
10
34.4980949999999993
20
-47.0008899999999983
11
33.9266670000000019
21
-47.5723190000000002
0
LINE
8
LYELLOW
6
CONTINUOUS
10
33.9266670000000019
20
-47.5723190000000002
11
34.5457139999999967
21
-47.5723190000000002
0
LINE
8
LYELLOW
6
CONTINUOUS
10
57.0219049999999967
20
-47.8223190000000002
11
57.0219049999999967
21
-46.8223190000000002
0
LINE
8
LYELLOW
6
CONTINUOUS
10
57.0219049999999967
20
-46.8223190000000002
11
57.259999999999998
21
-46.8223190000000002
0
LINE
8
LYELLOW
6
CONTINUOUS
10
57.259999999999998
20
-46.8223190000000002
11
57.4028569999999974
21
-46.8699379999999977
0
LINE
8
LYELLOW
6
CONTINUOUS
10
57.4028569999999974
20
-46.8699379999999977
11
57.4980949999999993
21
-46.9651759999999996
0
LINE
8
LYELLOW
6
CONTINUOUS
10
57.4980949999999993
20
-46.9651759999999996
11
57.5457139999999967
21
-47.0604139999999944
0
LINE
8
LYELLOW
6
CONTINUOUS
10
57.5457139999999967
20
-47.0604139999999944
11
57.5933329999999941
21
-47.2508899999999983
0
LINE
8
LYELLOW
6
CONTINUOUS
10
57.5933329999999941
20
-47.2508899999999983
11
57.5933329999999941
21
-47.3937469999999976
0
LINE
8
LYELLOW
6
CONTINUOUS
10
57.5933329999999941
20
-47.3937469999999976
11
57.5457139999999967
21
-47.5842229999999944
0
LINE
8
LYELLOW
6
CONTINUOUS
10
57.5457139999999967
20
-47.5842229999999944
11
57.4980949999999993
21
-47.6794609999999963
0
LINE
8
LYELLOW
6
CONTINUOUS
10
57.4980949999999993
20
-47.6794609999999963
11
57.4028569999999974
21
-47.7746999999999957
0
LINE
8
LYELLOW
6
CONTINUOUS
10
57.4028569999999974
20
-47.7746999999999957
11
57.259999999999998
21
-47.8223190000000002
0
LINE
8
LYELLOW
6
CONTINUOUS
10
57.259999999999998
20
-47.8223190000000002
11
57.0219049999999967
21
-47.8223190000000002
0
LINE
8
LYELLOW
6
CONTINUOUS
10
58.5457139999999967
20
-47.8223190000000002
11
57.9742859999999993
21
-47.8223190000000002
0
LINE
8
LYELLOW
6
CONTINUOUS
10
58.259999999999998
20
-47.8223190000000002
11
58.259999999999998
21
-46.8223190000000002
0
LINE
8
LYELLOW
6
CONTINUOUS
10
58.259999999999998
20
-46.8223190000000002
11
58.1647619999999961
21
-46.9651759999999996
0
LINE
8
LYELLOW
6
CONTINUOUS
10
58.1647619999999961
20
-46.9651759999999996
11
58.0695239999999941
21
-47.0604139999999944
0
LINE
8
LYELLOW
6
CONTINUOUS
10
58.0695239999999941
20
-47.0604139999999944
11
57.9742859999999993
21
-47.1080329999999989
0
LINE
8
LYELLOW
6
CONTINUOUS
10
53.688094999999997
20
-48.1423190000000005
11
53.688094999999997
21
-47.1423190000000005
0
LINE
8
LYELLOW
6
CONTINUOUS
10
54.2595229999999944
20
-48.1423190000000005
11
53.8309519999999964
21
-47.5708899999999986
0
LINE
8
LYELLOW
6
CONTINUOUS
10
54.2595229999999944
20
-47.1423190000000005
11
53.688094999999997
21
-47.7137469999999979
0
LINE
8
LYELLOW
6
CONTINUOUS
10
97.0219049999999896
20
-59.4723189999999988
11
97.0219049999999896
21
-58.4723189999999988
0
LINE
8
LYELLOW
6
CONTINUOUS
10
97.0219049999999896
20
-58.4723189999999988
11
97.2599999999999909
21
-58.4723189999999988
0
LINE
8
LYELLOW
6
CONTINUOUS
10
97.2599999999999909
20
-58.4723189999999988
11
97.4028569999999974
21
-58.5199379999999962
0
LINE
8
LYELLOW
6
CONTINUOUS
10
97.4028569999999974
20
-58.5199379999999962
11
97.4980949999999922
21
-58.6151759999999982
0
LINE
8
LYELLOW
6
CONTINUOUS
10
97.4980949999999922
20
-58.6151759999999982
11
97.5457139999999896
21
-58.7104140000000001
0
LINE
8
LYELLOW
6
CONTINUOUS
10
97.5457139999999896
20
-58.7104140000000001
11
97.5933330000000012
21
-58.9008899999999969
0
LINE
8
LYELLOW
6
CONTINUOUS
10
97.5933330000000012
20
-58.9008899999999969
11
97.5933330000000012
21
-59.0437469999999962
0
LINE
8
LYELLOW
6
CONTINUOUS
10
97.5933330000000012
20
-59.0437469999999962
11
97.5457139999999896
21
-59.2342230000000001
0
LINE
8
LYELLOW
6
CONTINUOUS
10
97.5457139999999896
20
-59.2342230000000001
11
97.4980949999999922
21
-59.3294609999999949
0
LINE
8
LYELLOW
6
CONTINUOUS
10
97.4980949999999922
20
-59.3294609999999949
11
97.4028569999999974
21
-59.4246999999999943
0
LINE
8
LYELLOW
6
CONTINUOUS
10
97.4028569999999974
20
-59.4246999999999943
11
97.2599999999999909
21
-59.4723189999999988
0
LINE
8
LYELLOW
6
CONTINUOUS
10
97.2599999999999909
20
-59.4723189999999988
11
97.0219049999999896
21
-59.4723189999999988
0
LINE
8
LYELLOW
6
CONTINUOUS
10
97.9266669999999948
20
-58.4723189999999988
11
98.5457139999999896
21
-58.4723189999999988
0
LINE
8
LYELLOW
6
CONTINUOUS
10
98.5457139999999896
20
-58.4723189999999988
11
98.2123809999999935
21
-58.8532709999999994
0
LINE
8
LYELLOW
6
CONTINUOUS
10
98.2123809999999935
20
-58.8532709999999994
11
98.3552379999999999
21
-58.8532709999999994
0
LINE
8
LYELLOW
6
CONTINUOUS
10
98.3552379999999999
20
-58.8532709999999994
11
98.4504759999999948
21
-58.9008899999999969
0
LINE
8
LYELLOW
6
CONTINUOUS
10
98.4504759999999948
20
-58.9008899999999969
11
98.4980949999999922
21
-58.9485089999999943
0
LINE
8
LYELLOW
6
CONTINUOUS
10
98.4980949999999922
20
-58.9485089999999943
11
98.5457139999999896
21
-59.0437469999999962
0
LINE
8
LYELLOW
6
CONTINUOUS
10
98.5457139999999896
20
-59.0437469999999962
11
98.5457139999999896
21
-59.2818419999999975
0
LINE
8
LYELLOW
6
CONTINUOUS
10
98.5457139999999896
20
-59.2818419999999975
11
98.4980949999999922
21
-59.3770799999999994
0
LINE
8
LYELLOW
6
CONTINUOUS
10
98.4980949999999922
20
-59.3770799999999994
11
98.4504759999999948
21
-59.4246999999999943
0
LINE
8
LYELLOW
6
CONTINUOUS
10
98.4504759999999948
20
-59.4246999999999943
11
98.3552379999999999
21
-59.4723189999999988
0
LINE
8
LYELLOW
6
CONTINUOUS
10
98.3552379999999999
20
-59.4723189999999988
11
98.0695240000000013
21
-59.4723189999999988
0
LINE
8
LYELLOW
6
CONTINUOUS
10
98.0695240000000013
20
-59.4723189999999988
11
97.9742859999999922
21
-59.4246999999999943
0
LINE
8
LYELLOW
6
CONTINUOUS
10
97.9742859999999922
20
-59.4246999999999943
11
97.9266669999999948
21
-59.3770799999999994
0
LINE
8
LYELLOW
6
CONTINUOUS
10
92.4180949999999939
20
-59.8423189999999963
11
92.4180949999999939
21
-58.8423189999999963
0
LINE
8
LYELLOW
6
CONTINUOUS
10
92.9895229999999913
20
-59.8423189999999963
11
92.5609520000000003
21
-59.2708899999999943
0
LINE
8
LYELLOW
6
CONTINUOUS
10
92.9895229999999913
20
-58.8423189999999963
11
92.4180949999999939
21
-59.4137470000000008
0
LINE
8
LYELLOW
6
CONTINUOUS
10
76.8849999999999909
20
-46.9624999999999986
11
86.6349999999999909
21
-46.9624999999999986
0
LINE
8
LYELLOW
6
CONTINUOUS
10
76.8849999999999909
20
-52.0124999999999957
11
76.8849999999999909
21
-46.9624999999999986
0
LINE
8
LYELLOW
6
CONTINUOUS
10
86.6349999999999909
20
-46.9624999999999986
11
86.6349999999999909
21
-52.0124999999999957
0
LINE
8
LYELLOW
6
CONTINUOUS
10
86.6349999999999909
20
-52.0124999999999957
11
76.8849999999999909
21
-52.0124999999999957
0
LINE
8
LYELLOW
6
CONTINUOUS
10
69.1400000000000006
20
-60.1174999999999997
11
74.3799999999999955
21
-60.1174999999999997
0
LINE
8
LYELLOW
6
CONTINUOUS
10
69.1400000000000006
20
-60.4544999999999959
11
69.1400000000000006
21
-60.1174999999999997
0
LINE
8
LYELLOW
6
CONTINUOUS
10
69.1400000000000006
20
-62.8574999999999946
11
69.1400000000000006
21
-62.5204999999999984
0
LINE
8
LYELLOW
6
CONTINUOUS
10
74.3799999999999955
20
-60.1174999999999997
11
74.3799999999999955
21
-60.4544999999999959
0
LINE
8
LYELLOW
6
CONTINUOUS
10
74.3799999999999955
20
-62.5204999999999984
11
74.3799999999999955
21
-62.8574999999999946
0
LINE
8
LYELLOW
6
CONTINUOUS
10
74.3799999999999955
20
-62.8574999999999946
11
69.1400000000000006
21
-62.8574999999999946
0
LINE
8
LYELLOW
6
CONTINUOUS
10
38.6124999999999972
20
-71.5699999999999932
11
38.6124999999999972
21
-72.953000000000003
0
LINE
8
LYELLOW
6
CONTINUOUS
10
38.6124999999999972
20
-71.5699999999999932
11
39.9954999999999998
21
-71.5699999999999932
0
LINE
8
LYELLOW
6
CONTINUOUS
10
38.8524999999999991
20
-71.8100000000000023
11
38.8524999999999991
21
-79.1899999999999977
0
LINE
8
LYELLOW
6
CONTINUOUS
10
38.8524999999999991
20
-71.8100000000000023
11
48.7524999999999977
21
-71.8100000000000023
0
LINE
8
LYELLOW
6
CONTINUOUS
10
38.8524999999999991
20
-79.1899999999999977
11
48.7524999999999977
21
-79.1899999999999977
0
LINE
8
LYELLOW
6
CONTINUOUS
10
43.1258330000000001
20
-73.5949999999999989
11
43.1258330000000001
21
-74.8649999999999949
0
LINE
8
LYELLOW
6
CONTINUOUS
10
43.1258330000000001
20
-76.1349999999999909
11
43.1258330000000001
21
-77.4050000000000011
0
LINE
8
LYELLOW
6
CONTINUOUS
10
48.7524999999999977
20
-71.8100000000000023
11
48.7524999999999977
21
-79.1899999999999977
0
LINE
8
LYELLOW
6
CONTINUOUS
10
43.1487939999999952
20
-73.539566999999991
11
43.1812660000000008
21
-73.5720390000000037
0
LINE
8
LYELLOW
6
CONTINUOUS
10
43.1812660000000008
20
-73.5720390000000037
11
43.1858329999999953
21
-73.5949999999999989
0
LINE
8
LYELLOW
6
CONTINUOUS
10
43.1858329999999953
20
-73.5949999999999989
11
43.1858329999999953
21
-74.8649999999999949
0
LINE
8
LYELLOW
6
CONTINUOUS
10
43.1858329999999953
20
-74.8649999999999949
11
43.1812660000000008
21
-74.88796099999999
0
LINE
8
LYELLOW
6
CONTINUOUS
10
43.1812660000000008
20
-74.88796099999999
11
43.1487939999999952
21
-74.9204330000000027
0
LINE
8
LYELLOW
6
CONTINUOUS
10
43.1487939999999952
20
-74.9204330000000027
11
43.1258330000000001
21
-74.9249999999999972
0
LINE
8
LYELLOW
6
CONTINUOUS
10
43.1258330000000001
20
-74.9249999999999972
11
41.7725000000000009
21
-74.9249999999999972
0
LINE
8
LYELLOW
6
CONTINUOUS
10
41.7725000000000009
20
-74.9249999999999972
11
41.7495389999999986
21
-74.9204330000000027
0
LINE
8
LYELLOW
6
CONTINUOUS
10
41.7495389999999986
20
-74.9204330000000027
11
41.7170670000000001
21
-74.88796099999999
0
LINE
8
LYELLOW
6
CONTINUOUS
10
41.7170670000000001
20
-74.88796099999999
11
41.7124999999999986
21
-74.8649999999999949
0
LINE
8
LYELLOW
6
CONTINUOUS
10
41.7124999999999986
20
-74.8649999999999949
11
41.7124999999999986
21
-73.5949999999999989
0
LINE
8
LYELLOW
6
CONTINUOUS
10
41.7124999999999986
20
-73.5949999999999989
11
41.7170670000000001
21
-73.5720390000000037
0
LINE
8
LYELLOW
6
CONTINUOUS
10
41.7170670000000001
20
-73.5720390000000037
11
41.7495389999999986
21
-73.539566999999991
0
LINE
8
LYELLOW
6
CONTINUOUS
10
41.7495389999999986
20
-73.539566999999991
11
41.7725000000000009
21
-73.5349999999999966
0
LINE
8
LYELLOW
6
CONTINUOUS
10
41.7725000000000009
20
-73.5349999999999966
11
43.1258330000000001
21
-73.5349999999999966
0
LINE
8
LYELLOW
6
CONTINUOUS
10
43.1258330000000001
20
-73.5349999999999966
11
43.1487939999999952
21
-73.539566999999991
0
LINE
8
LYELLOW
6
CONTINUOUS
10
41.7725000000000009
20
-73.5949999999999989
11
45.832499999999996
21
-73.5949999999999989
0
LINE
8
LYELLOW
6
CONTINUOUS
10
45.832499999999996
20
-73.5949999999999989
11
45.832499999999996
21
-74.8649999999999949
0
LINE
8
LYELLOW
6
CONTINUOUS
10
45.832499999999996
20
-74.8649999999999949
11
41.7725000000000009
21
-74.8649999999999949
0
LINE
8
LYELLOW
6
CONTINUOUS
10
41.7725000000000009
20
-74.8649999999999949
11
41.7725000000000009
21
-73.5949999999999989
0
LINE
8
LYELLOW
6
CONTINUOUS
10
43.1487939999999952
20
-76.0795669999999973
11
43.1812660000000008
21
-76.1120389999999958
0
LINE
8
LYELLOW
6
CONTINUOUS
10
43.1812660000000008
20
-76.1120389999999958
11
43.1858329999999953
21
-76.1349999999999909
0
LINE
8
LYELLOW
6
CONTINUOUS
10
43.1858329999999953
20
-76.1349999999999909
11
43.1858329999999953
21
-77.4050000000000011
0
LINE
8
LYELLOW
6
CONTINUOUS
10
43.1858329999999953
20
-77.4050000000000011
11
43.1812660000000008
21
-77.4279609999999963
0
LINE
8
LYELLOW
6
CONTINUOUS
10
43.1812660000000008
20
-77.4279609999999963
11
43.1487939999999952
21
-77.4604329999999948
0
LINE
8
LYELLOW
6
CONTINUOUS
10
43.1487939999999952
20
-77.4604329999999948
11
43.1258330000000001
21
-77.4650000000000034
0
LINE
8
LYELLOW
6
CONTINUOUS
10
43.1258330000000001
20
-77.4650000000000034
11
41.7725000000000009
21
-77.4650000000000034
0
LINE
8
LYELLOW
6
CONTINUOUS
10
41.7725000000000009
20
-77.4650000000000034
11
41.7495389999999986
21
-77.4604329999999948
0
LINE
8
LYELLOW
6
CONTINUOUS
10
41.7495389999999986
20
-77.4604329999999948
11
41.7170670000000001
21
-77.4279609999999963
0
LINE
8
LYELLOW
6
CONTINUOUS
10
41.7170670000000001
20
-77.4279609999999963
11
41.7124999999999986
21
-77.4050000000000011
0
LINE
8
LYELLOW
6
CONTINUOUS
10
41.7124999999999986
20
-77.4050000000000011
11
41.7124999999999986
21
-76.1349999999999909
0
LINE
8
LYELLOW
6
CONTINUOUS
10
41.7124999999999986
20
-76.1349999999999909
11
41.7170670000000001
21
-76.1120389999999958
0
LINE
8
LYELLOW
6
CONTINUOUS
10
41.7170670000000001
20
-76.1120389999999958
11
41.7495389999999986
21
-76.0795669999999973
0
LINE
8
LYELLOW
6
CONTINUOUS
10
41.7495389999999986
20
-76.0795669999999973
11
41.7725000000000009
21
-76.0750000000000028
0
LINE
8
LYELLOW
6
CONTINUOUS
10
41.7725000000000009
20
-76.0750000000000028
11
43.1258330000000001
21
-76.0750000000000028
0
LINE
8
LYELLOW
6
CONTINUOUS
10
43.1258330000000001
20
-76.0750000000000028
11
43.1487939999999952
21
-76.0795669999999973
0
LINE
8
LYELLOW
6
CONTINUOUS
10
41.7725000000000009
20
-76.1349999999999909
11
45.832499999999996
21
-76.1349999999999909
0
LINE
8
LYELLOW
6
CONTINUOUS
10
45.832499999999996
20
-76.1349999999999909
11
45.832499999999996
21
-77.4050000000000011
0
LINE
8
LYELLOW
6
CONTINUOUS
10
45.832499999999996
20
-77.4050000000000011
11
41.7725000000000009
21
-77.4050000000000011
0
LINE
8
LYELLOW
6
CONTINUOUS
10
41.7725000000000009
20
-77.4050000000000011
11
41.7725000000000009
21
-76.1349999999999909
0
LINE
8
LYELLOW
6
CONTINUOUS
10
43.4476019999999963
20
-33.1724999999999994
11
44.2476020000000005
21
-33.1724999999999994
0
LINE
8
LYELLOW
6
CONTINUOUS
10
43.8476019999999949
20
-32.7725000000000009
11
43.8476019999999949
21
-33.572499999999998
0
LINE
8
LYELLOW
6
CONTINUOUS
10
47.8572999999999951
20
-31.4074999999999989
11
47.8572999999999951
21
-39.5674999999999955
0
LINE
8
LYELLOW
6
CONTINUOUS
10
47.8973000000000013
20
-31.4074999999999989
11
47.8973000000000013
21
-39.5674999999999955
0
LINE
8
LYELLOW
6
CONTINUOUS
10
47.9373000000000005
20
-31.4085000000000001
11
47.9373000000000005
21
-39.5664999999999978
0
LINE
8
LYELLOW
6
CONTINUOUS
10
47.9772999999999996
20
-31.4094999999999978
11
47.9772999999999996
21
-39.5655000000000001
0
LINE
8
LYELLOW
6
CONTINUOUS
10
48.0172999999999988
20
-31.410499999999999
11
48.0172999999999988
21
-39.5644999999999953
0
LINE
8
LYELLOW
6
CONTINUOUS
10
48.0572999999999979
20
-31.4124999999999979
11
48.0572999999999979
21
-39.5625
0
LINE
8
LYELLOW
6
CONTINUOUS
10
48.0972999999999971
20
-31.4145000000000003
11
48.0972999999999971
21
-39.5604999999999976
0
LINE
8
LYELLOW
6
CONTINUOUS
10
48.1372999999999962
20
-31.4174999999999969
11
48.1372999999999962
21
-39.5574999999999974
0
LINE
8
LYELLOW
6
CONTINUOUS
10
48.1772999999999954
20
-31.4194999999999993
11
48.1772999999999954
21
-39.555499999999995
0
LINE
8
LYELLOW
6
CONTINUOUS
10
48.2172999999999945
20
-31.4234999999999971
11
48.2172999999999945
21
-39.5514999999999972
0
LINE
8
LYELLOW
6
CONTINUOUS
10
48.2573000000000008
20
-31.4264999999999972
11
48.2573000000000008
21
-39.5484999999999971
0
LINE
8
LYELLOW
6
CONTINUOUS
10
48.2972999999999999
20
-31.4314999999999998
11
48.2972999999999999
21
-39.5435000000000016
0
LINE
8
LYELLOW
6
CONTINUOUS
10
48.337299999999999
20
-31.4354999999999976
11
48.337299999999999
21
-39.5394999999999968
0
LINE
8
LYELLOW
6
CONTINUOUS
10
48.3772999999999982
20
-31.4405000000000001
11
48.3772999999999982
21
-39.5345000000000013
0
LINE
8
LYELLOW
6
CONTINUOUS
10
48.4172999999999973
20
-31.4454999999999991
11
48.4172999999999973
21
-39.5294999999999987
0
LINE
8
LYELLOW
6
CONTINUOUS
10
48.4572999999999965
20
-31.4514999999999993
11
48.4572999999999965
21
-39.5234999999999985
0
LINE
8
LYELLOW
6
CONTINUOUS
10
48.4972999999999956
20
-31.4574999999999996
11
48.4972999999999956
21
-39.5174999999999983
0
LINE
8
LYELLOW
6
CONTINUOUS
10
48.5372999999999948
20
-31.4644999999999975
11
48.5372999999999948
21
-39.5105000000000004
0
LINE
8
LYELLOW
6
CONTINUOUS
10
48.577300000000001
20
-31.4704999999999977
11
48.577300000000001
21
-34.447499999999998
0
LINE
8
LYELLOW
6
CONTINUOUS
10
48.577300000000001
20
-36.5274999999999963
11
48.577300000000001
21
-39.5045000000000002
0
LINE
8
LYELLOW
6
CONTINUOUS
10
48.6173000000000002
20
-31.4784999999999968
11
48.6173000000000002
21
-34.447499999999998
0
LINE
8
LYELLOW
6
CONTINUOUS
10
48.6173000000000002
20
-36.5274999999999963
11
48.6173000000000002
21
-39.4964999999999975
0
LINE
8
LYELLOW
6
CONTINUOUS
10
48.6572999999999993
20
-31.4854999999999983
11
48.6572999999999993
21
-34.447499999999998
0
LINE
8
LYELLOW
6
CONTINUOUS
10
48.6572999999999993
20
-36.5274999999999963
11
48.6572999999999993
21
-39.4894999999999996
0
LINE
8
LYELLOW
6
CONTINUOUS
10
48.6972999999999985
20
-31.4944999999999986
11
48.6972999999999985
21
-34.447499999999998
0
LINE
8
LYELLOW
6
CONTINUOUS
10
48.6972999999999985
20
-36.5274999999999963
11
48.6972999999999985
21
-39.4804999999999993
0
LINE
8
LYELLOW
6
CONTINUOUS
10
48.7372999999999976
20
-31.5024999999999977
11
48.7372999999999976
21
-34.447499999999998
0
LINE
8
LYELLOW
6
CONTINUOUS
10
48.7372999999999976
20
-36.5274999999999963
11
48.7372999999999976
21
-39.4724999999999966
0
LINE
8
LYELLOW
6
CONTINUOUS
10
48.7772999999999968
20
-31.5114999999999981
11
48.7772999999999968
21
-34.447499999999998
0
LINE
8
LYELLOW
6
CONTINUOUS
10
48.7772999999999968
20
-36.5274999999999963
11
48.7772999999999968
21
-39.4634999999999962
0
LINE
8
LYELLOW
6
CONTINUOUS
10
48.8172999999999959
20
-31.5204999999999984
11
48.8172999999999959
21
-34.447499999999998
0
LINE
8
LYELLOW
6
CONTINUOUS
10
48.8172999999999959
20
-36.5274999999999963
11
48.8172999999999959
21
-39.4544999999999959
0
LINE
8
LYELLOW
6
CONTINUOUS
10
48.8572999999999951
20
-31.5305
11
48.8572999999999951
21
-34.447499999999998
0
LINE
8
LYELLOW
6
CONTINUOUS
10
48.8572999999999951
20
-36.5274999999999963
11
48.8572999999999951
21
-39.4444999999999979
0
LINE
8
LYELLOW
6
CONTINUOUS
10
48.8973000000000013
20
-31.540499999999998
11
48.8973000000000013
21
-34.447499999999998
0
LINE
8
LYELLOW
6
CONTINUOUS
10
48.8973000000000013
20
-36.5274999999999963
11
48.8973000000000013
21
-39.4344999999999999
0
LINE
8
LYELLOW
6
CONTINUOUS
10
48.9373000000000005
20
-31.5514999999999972
11
48.9373000000000005
21
-34.447499999999998
0
LINE
8
LYELLOW
6
CONTINUOUS
10
48.9373000000000005
20
-36.5274999999999963
11
48.9373000000000005
21
-39.4234999999999971
0
LINE
8
LYELLOW
6
CONTINUOUS
10
48.9772999999999996
20
-31.5625
11
48.9772999999999996
21
-34.447499999999998
0
LINE
8
LYELLOW
6
CONTINUOUS
10
48.9772999999999996
20
-36.5274999999999963
11
48.9772999999999996
21
-39.4125000000000014
0
LINE
8
LYELLOW
6
CONTINUOUS
10
49.0172999999999988
20
-31.5744999999999969
11
49.0172999999999988
21
-34.447499999999998
0
LINE
8
LYELLOW
6
CONTINUOUS
10
49.0172999999999988
20
-36.5274999999999963
11
49.0172999999999988
21
-39.400500000000001
0
LINE
8
LYELLOW
6
CONTINUOUS
10
49.0572999999999979
20
-31.5864999999999974
11
49.0572999999999979
21
-34.447499999999998
0
LINE
8
LYELLOW
6
CONTINUOUS
10
49.0572999999999979
20
-36.5274999999999963
11
49.0572999999999979
21
-39.3885000000000005
0
LINE
8
LYELLOW
6
CONTINUOUS
10
49.0972999999999971
20
-31.5984999999999978
11
49.0972999999999971
21
-34.447499999999998
0
LINE
8
LYELLOW
6
CONTINUOUS
10
49.0972999999999971
20
-36.5274999999999963
11
49.0972999999999971
21
-39.3765000000000001
0
LINE
8
LYELLOW
6
CONTINUOUS
10
49.1372999999999962
20
-31.6114999999999995
11
49.1372999999999962
21
-34.447499999999998
0
LINE
8
LYELLOW
6
CONTINUOUS
10
49.1372999999999962
20
-36.5274999999999963
11
49.1372999999999962
21
-39.3634999999999948
0
LINE
8
LYELLOW
6
CONTINUOUS
10
49.1772999999999954
20
-31.6244999999999976
11
49.1772999999999954
21
-34.447499999999998
0
LINE
8
LYELLOW
6
CONTINUOUS
10
49.1772999999999954
20
-36.5274999999999963
11
49.1772999999999954
21
-39.3504999999999967
0
LINE
8
LYELLOW
6
CONTINUOUS
10
49.2172999999999945
20
-31.638499999999997
11
49.2172999999999945
21
-34.447499999999998
0
LINE
8
LYELLOW
6
CONTINUOUS
10
49.2172999999999945
20
-36.5274999999999963
11
49.2172999999999945
21
-39.3365000000000009
0
LINE
8
LYELLOW
6
CONTINUOUS
10
49.2573000000000008
20
-31.6524999999999999
11
49.2573000000000008
21
-34.447499999999998
0
LINE
8
LYELLOW
6
CONTINUOUS
10
49.2573000000000008
20
-36.5274999999999963
11
49.2573000000000008
21
-39.322499999999998
0
LINE
8
LYELLOW
6
CONTINUOUS
10
49.2972999999999999
20
-31.6674999999999969
11
49.2972999999999999
21
-34.447499999999998
0
LINE
8
LYELLOW
6
CONTINUOUS
10
49.2972999999999999
20
-36.5274999999999963
11
49.2972999999999999
21
-39.3074999999999974
0
LINE
8
LYELLOW
6
CONTINUOUS
10
49.337299999999999
20
-31.6824999999999974
11
49.337299999999999
21
-34.447499999999998
0
LINE
8
LYELLOW
6
CONTINUOUS
10
49.337299999999999
20
-36.5274999999999963
11
49.337299999999999
21
-39.2924999999999969
0
LINE
8
LYELLOW
6
CONTINUOUS
10
49.3772999999999982
20
-31.6984999999999992
11
49.3772999999999982
21
-34.447499999999998
0
LINE
8
LYELLOW
6
CONTINUOUS
10
49.3772999999999982
20
-36.5274999999999963
11
49.3772999999999982
21
-39.2764999999999986
0
LINE
8
LYELLOW
6
CONTINUOUS
10
49.4172999999999973
20
-31.7144999999999975
11
49.4172999999999973
21
-34.447499999999998
0
LINE
8
LYELLOW
6
CONTINUOUS
10
49.4172999999999973
20
-36.5274999999999963
11
49.4172999999999973
21
-39.2605000000000004
0
LINE
8
LYELLOW
6
CONTINUOUS
10
49.4572999999999965
20
-31.7304999999999993
11
49.4572999999999965
21
-34.447499999999998
0
LINE
8
LYELLOW
6
CONTINUOUS
10
49.4572999999999965
20
-36.5274999999999963
11
49.4572999999999965
21
-39.2444999999999951
0
LINE
8
LYELLOW
6
CONTINUOUS
10
49.4972999999999956
20
-31.7474999999999987
11
49.4972999999999956
21
-34.447499999999998
0
LINE
8
LYELLOW
6
CONTINUOUS
10
49.4972999999999956
20
-36.5274999999999963
11
49.4972999999999956
21
-39.2274999999999991
0
LINE
8
LYELLOW
6
CONTINUOUS
10
49.5372999999999948
20
-31.7654999999999994
11
49.5372999999999948
21
-34.447499999999998
0
LINE
8
LYELLOW
6
CONTINUOUS
10
49.5372999999999948
20
-36.5274999999999963
11
49.5372999999999948
21
-39.2094999999999985
0
LINE
8
LYELLOW
6
CONTINUOUS
10
49.577300000000001
20
-31.7835000000000001
11
49.577300000000001
21
-34.447499999999998
0
LINE
8
LYELLOW
6
CONTINUOUS
10
49.577300000000001
20
-36.5274999999999963
11
49.577300000000001
21
-39.1914999999999978
0
LINE
8
LYELLOW
6
CONTINUOUS
10
49.6173000000000002
20
-31.8024999999999984
11
49.6173000000000002
21
-34.447499999999998
0
LINE
8
LYELLOW
6
CONTINUOUS
10
49.6173000000000002
20
-36.5274999999999963
11
49.6173000000000002
21
-39.1724999999999994
0
LINE
8
LYELLOW
6
CONTINUOUS
10
49.6572999999999993
20
-31.8214999999999968
11
49.6572999999999993
21
-34.447499999999998
0
LINE
8
LYELLOW
6
CONTINUOUS
10
49.6572999999999993
20
-36.5274999999999963
11
49.6572999999999993
21
-39.1535000000000011
0
LINE
8
LYELLOW
6
CONTINUOUS
10
49.6972999999999985
20
-31.8414999999999999
11
49.6972999999999985
21
-34.447499999999998
0
LINE
8
LYELLOW
6
CONTINUOUS
10
49.6972999999999985
20
-36.5274999999999963
11
49.6972999999999985
21
-39.133499999999998
0
LINE
8
LYELLOW
6
CONTINUOUS
10
49.7372999999999976
20
-31.8614999999999995
11
49.7372999999999976
21
-34.447499999999998
0
LINE
8
LYELLOW
6
CONTINUOUS
10
49.7372999999999976
20
-36.5274999999999963
11
49.7372999999999976
21
-39.1134999999999948
0
LINE
8
LYELLOW
6
CONTINUOUS
10
49.7772999999999968
20
-31.8825000000000003
11
49.7772999999999968
21
-34.447499999999998
0
LINE
8
LYELLOW
6
CONTINUOUS
10
49.7772999999999968
20
-36.5274999999999963
11
49.7772999999999968
21
-39.0925000000000011
0
LINE
8
LYELLOW
6
CONTINUOUS
10
49.8172999999999959
20
-31.9034999999999975
11
49.8172999999999959
21
-34.447499999999998
0
LINE
8
LYELLOW
6
CONTINUOUS
10
49.8172999999999959
20
-36.5274999999999963
11
49.8172999999999959
21
-39.0715000000000003
0
LINE
8
LYELLOW
6
CONTINUOUS
10
49.8572999999999951
20
-31.9254999999999995
11
49.8572999999999951
21
-34.447499999999998
0
LINE
8
LYELLOW
6
CONTINUOUS
10
49.8572999999999951
20
-36.5274999999999963
11
49.8572999999999951
21
-39.0494999999999948
0
LINE
8
LYELLOW
6
CONTINUOUS
10
49.8972999999999942
20
-31.9484999999999992
11
49.8972999999999942
21
-34.447499999999998
0
LINE
8
LYELLOW
6
CONTINUOUS
10
49.8972999999999942
20
-36.5274999999999963
11
49.8972999999999942
21
-39.0264999999999986
0
LINE
8
LYELLOW
6
CONTINUOUS
10
49.9373000000000005
20
-31.9714999999999989
11
49.9373000000000005
21
-34.447499999999998
0
LINE
8
LYELLOW
6
CONTINUOUS
10
49.9373000000000005
20
-36.5274999999999963
11
49.9373000000000005
21
-39.0034999999999954
0
LINE
8
LYELLOW
6
CONTINUOUS
10
49.9772999999999996
20
-31.9944999999999986
11
49.9772999999999996
21
-34.447499999999998
0
LINE
8
LYELLOW
6
CONTINUOUS
10
49.9772999999999996
20
-36.5274999999999963
11
49.9772999999999996
21
-38.9804999999999993
0
LINE
8
LYELLOW
6
CONTINUOUS
10
50.0172999999999988
20
-32.0195000000000007
11
50.0172999999999988
21
-34.447499999999998
0
LINE
8
LYELLOW
6
CONTINUOUS
10
50.0172999999999988
20
-36.5274999999999963
11
50.0172999999999988
21
-38.9555000000000007
0
LINE
8
LYELLOW
6
CONTINUOUS
10
50.0572999999999979
20
-32.0444999999999993
11
50.0572999999999979
21
-34.447499999999998
0
LINE
8
LYELLOW
6
CONTINUOUS
10
50.0572999999999979
20
-36.5274999999999963
11
50.0572999999999979
21
-38.930499999999995
0
LINE
8
LYELLOW
6
CONTINUOUS
10
50.0972999999999971
20
-32.0694999999999979
11
50.0972999999999971
21
-34.447499999999998
0
LINE
8
LYELLOW
6
CONTINUOUS
10
50.0972999999999971
20
-36.5274999999999963
11
50.0972999999999971
21
-38.9054999999999964
0
LINE
8
LYELLOW
6
CONTINUOUS
10
50.1372999999999962
20
-32.0955000000000013
11
50.1372999999999962
21
-34.447499999999998
0
LINE
8
LYELLOW
6
CONTINUOUS
10
50.1372999999999962
20
-36.5274999999999963
11
50.1372999999999962
21
-38.8795000000000002
0
LINE
8
LYELLOW
6
CONTINUOUS
10
50.1772999999999954
20
-32.1224999999999952
11
50.1772999999999954
21
-34.447499999999998
0
LINE
8
LYELLOW
6
CONTINUOUS
10
50.1772999999999954
20
-36.5274999999999963
11
50.1772999999999954
21
-38.8524999999999991
0
LINE
8
LYELLOW
6
CONTINUOUS
10
50.2172999999999945
20
-32.150500000000001
11
50.2172999999999945
21
-34.447499999999998
0
LINE
8
LYELLOW
6
CONTINUOUS
10
50.2172999999999945
20
-36.5274999999999963
11
50.2172999999999945
21
-38.8245000000000005
0
LINE
8
LYELLOW
6
CONTINUOUS
10
50.2573000000000008
20
-32.1784999999999997
11
50.2573000000000008
21
-34.447499999999998
0
LINE
8
LYELLOW
6
CONTINUOUS
10
50.2573000000000008
20
-36.5274999999999963
11
50.2573000000000008
21
-38.7965000000000018
0
LINE
8
LYELLOW
6
CONTINUOUS
10
50.2972999999999999
20
-32.207499999999996
11
50.2972999999999999
21
-34.447499999999998
0
LINE
8
LYELLOW
6
CONTINUOUS
10
50.2972999999999999
20
-36.5274999999999963
11
50.2972999999999999
21
-38.7674999999999983
0
LINE
8
LYELLOW
6
CONTINUOUS
10
50.337299999999999
20
-32.2374999999999972
11
50.337299999999999
21
-34.447499999999998
0
LINE
8
LYELLOW
6
CONTINUOUS
10
50.337299999999999
20
-36.5274999999999963
11
50.337299999999999
21
-38.7374999999999972
0
LINE
8
LYELLOW
6
CONTINUOUS
10
50.3772999999999982
20
-32.268499999999996
11
50.3772999999999982
21
-34.447499999999998
0
LINE
8
LYELLOW
6
CONTINUOUS
10
50.3772999999999982
20
-36.5274999999999963
11
50.3772999999999982
21
-38.7064999999999984
0
LINE
8
LYELLOW
6
CONTINUOUS
10
50.4172999999999973
20
-32.2995000000000019
11
50.4172999999999973
21
-34.447499999999998
0
LINE
8
LYELLOW
6
CONTINUOUS
10
50.4172999999999973
20
-36.5274999999999963
11
50.4172999999999973
21
-38.6754999999999995
0
LINE
8
LYELLOW
6
CONTINUOUS
10
50.4572999999999965
20
-32.3314999999999984
11
50.4572999999999965
21
-34.447499999999998
0
LINE
8
LYELLOW
6
CONTINUOUS
10
50.4572999999999965
20
-36.5274999999999963
11
50.4572999999999965
21
-38.643499999999996
0
LINE
8
LYELLOW
6
CONTINUOUS
10
50.4972999999999956
20
-32.3644999999999996
11
50.4972999999999956
21
-34.447499999999998
0
LINE
8
LYELLOW
6
CONTINUOUS
10
50.4972999999999956
20
-36.5274999999999963
11
50.4972999999999956
21
-38.6104999999999947
0
LINE
8
LYELLOW
6
CONTINUOUS
10
50.5372999999999948
20
-32.3984999999999985
11
50.5372999999999948
21
-34.447499999999998
0
LINE
8
LYELLOW
6
CONTINUOUS
10
50.5372999999999948
20
-36.5274999999999963
11
50.5372999999999948
21
-38.5764999999999958
0
LINE
8
LYELLOW
6
CONTINUOUS
10
50.577300000000001
20
-32.4324999999999974
11
50.577300000000001
21
-34.447499999999998
0
LINE
8
LYELLOW
6
CONTINUOUS
10
50.577300000000001
20
-36.5274999999999963
11
50.577300000000001
21
-38.5424999999999969
0
LINE
8
LYELLOW
6
CONTINUOUS
10
50.6173000000000002
20
-32.4684999999999988
11
50.6173000000000002
21
-34.447499999999998
0
LINE
8
LYELLOW
6
CONTINUOUS
10
50.6173000000000002
20
-36.5274999999999963
11
50.6173000000000002
21
-38.5064999999999955
0
LINE
8
LYELLOW
6
CONTINUOUS
10
50.6572999999999993
20
-32.5054999999999978
11
50.6572999999999993
21
-38.4694999999999965
0
LINE
8
LYELLOW
6
CONTINUOUS
10
50.6972999999999985
20
-32.5424999999999969
11
50.6972999999999985
21
-38.4324999999999974
0
LINE
8
LYELLOW
6
CONTINUOUS
10
50.7372999999999976
20
-32.5814999999999984
11
50.7372999999999976
21
-38.393499999999996
0
LINE
8
LYELLOW
6
CONTINUOUS
10
50.7772999999999968
20
-32.6204999999999998
11
50.7772999999999968
21
-38.3545000000000016
0
LINE
8
LYELLOW
6
CONTINUOUS
10
50.8172999999999959
20
-32.6614999999999966
11
50.8172999999999959
21
-38.3134999999999977
0
LINE
8
LYELLOW
6
CONTINUOUS
10
50.8572999999999951
20
-32.7034999999999982
11
50.8572999999999951
21
-38.2714999999999961
0
LINE
8
LYELLOW
6
CONTINUOUS
10
50.8972999999999942
20
-32.7464999999999975
11
50.8972999999999942
21
-38.2284999999999968
0
LINE
8
LYELLOW
6
CONTINUOUS
10
50.9373000000000005
20
-32.7914999999999992
11
50.9373000000000005
21
-38.1834999999999951
0
LINE
8
LYELLOW
6
CONTINUOUS
10
50.9772999999999996
20
-32.8365000000000009
11
50.9772999999999996
21
-38.1385000000000005
0
LINE
8
LYELLOW
6
CONTINUOUS
10
51.0172999999999988
20
-32.883499999999998
11
51.0172999999999988
21
-38.0914999999999964
0
LINE
8
LYELLOW
6
CONTINUOUS
10
51.0572999999999979
20
-32.9324999999999974
11
51.0572999999999979
21
-38.0424999999999969
0
LINE
8
LYELLOW
6
CONTINUOUS
10
51.0972999999999971
20
-32.9825000000000017
11
51.0972999999999971
21
-37.9924999999999997
0
LINE
8
LYELLOW
6
CONTINUOUS
10
51.1372999999999962
20
-33.0345000000000013
11
51.1372999999999962
21
-37.9405000000000001
0
LINE
8
LYELLOW
6
CONTINUOUS
10
51.1772999999999954
20
-33.0874999999999986
11
51.1772999999999954
21
-37.8874999999999957
0
LINE
8
LYELLOW
6
CONTINUOUS
10
51.2172999999999945
20
-33.143499999999996
11
51.2172999999999945
21
-37.8314999999999984
0
LINE
8
LYELLOW
6
CONTINUOUS
10
51.2573000000000008
20
-33.2004999999999981
11
51.2573000000000008
21
-37.7744999999999962
0
LINE
8
LYELLOW
6
CONTINUOUS
10
51.2972999999999999
20
-33.2605000000000004
11
51.2972999999999999
21
-37.714500000000001
0
LINE
8
LYELLOW
6
CONTINUOUS
10
51.337299999999999
20
-33.322499999999998
11
51.337299999999999
21
-37.6524999999999963
0
LINE
8
LYELLOW
6
CONTINUOUS
10
51.3772999999999982
20
-33.3864999999999981
11
51.3772999999999982
21
-37.5884999999999962
0
LINE
8
LYELLOW
6
CONTINUOUS
10
51.4172999999999973
20
-33.4534999999999982
11
51.4172999999999973
21
-37.5214999999999961
0
LINE
8
LYELLOW
6
CONTINUOUS
10
51.4572999999999965
20
-33.5234999999999985
11
51.4572999999999965
21
-37.4514999999999958
0
LINE
8
LYELLOW
6
CONTINUOUS
10
51.4972999999999956
20
-33.5974999999999966
11
51.4972999999999956
21
-37.3774999999999977
0
LINE
8
LYELLOW
6
CONTINUOUS
10
51.5372999999999948
20
-33.6745000000000019
11
51.5372999999999948
21
-37.3004999999999995
0
LINE
8
LYELLOW
6
CONTINUOUS
10
51.577300000000001
20
-33.7564999999999955
11
51.577300000000001
21
-37.2184999999999988
0
LINE
8
LYELLOW
6
CONTINUOUS
10
51.6173000000000002
20
-33.8434999999999988
11
51.6173000000000002
21
-37.1314999999999955
0
LINE
8
LYELLOW
6
CONTINUOUS
10
51.6572999999999993
20
-33.9354999999999976
11
51.6572999999999993
21
-37.0394999999999968
0
LINE
8
LYELLOW
6
CONTINUOUS
10
51.6972999999999985
20
-34.0345000000000013
11
51.6972999999999985
21
-36.9405000000000001
0
LINE
8
LYELLOW
6
CONTINUOUS
10
51.7372999999999976
20
-34.1415000000000006
11
51.7372999999999976
21
-36.8335000000000008
0
LINE
8
LYELLOW
6
CONTINUOUS
10
51.7772999999999968
20
-34.2594999999999956
11
51.7772999999999968
21
-36.7154999999999987
0
LINE
8
LYELLOW
6
CONTINUOUS
10
51.8172999999999959
20
-34.3904999999999959
11
51.8172999999999959
21
-36.5844999999999985
0
LINE
8
LYELLOW
6
CONTINUOUS
10
51.8572999999999951
20
-34.5405000000000015
11
51.8572999999999951
21
-36.4344999999999999
0
LINE
8
LYELLOW
6
CONTINUOUS
10
51.8972999999999942
20
-34.7194999999999965
11
51.8972999999999942
21
-36.2554999999999978
0
LINE
8
LYELLOW
6
CONTINUOUS
10
51.9373000000000005
20
-34.9544999999999959
11
51.9373000000000005
21
-36.0204999999999984
0
CIRCLE
8
LYELLOW
10
47.8572999999999951
20
-35.4874999999999972
40
4.1200000000000001
0
LINE
8
LYELLOW
6
CONTINUOUS
10
53.4476019999999963
20
-33.1724999999999994
11
54.2476020000000005
21
-33.1724999999999994
0
LINE
8
LYELLOW
6
CONTINUOUS
10
53.8476019999999949
20
-32.7725000000000009
11
53.8476019999999949
21
-33.572499999999998
0
LINE
8
LYELLOW
6
CONTINUOUS
10
57.8572999999999951
20
-31.4074999999999989
11
57.8572999999999951
21
-39.5674999999999955
0
LINE
8
LYELLOW
6
CONTINUOUS
10
57.8972999999999942
20
-31.4074999999999989
11
57.8972999999999942
21
-39.5674999999999955
0
LINE
8
LYELLOW
6
CONTINUOUS
10
57.9373000000000005
20
-31.4085000000000001
11
57.9373000000000005
21
-39.5664999999999978
0
LINE
8
LYELLOW
6
CONTINUOUS
10
57.9772999999999996
20
-31.4094999999999978
11
57.9772999999999996
21
-39.5655000000000001
0
LINE
8
LYELLOW
6
CONTINUOUS
10
58.0172999999999988
20
-31.410499999999999
11
58.0172999999999988
21
-39.5644999999999953
0
LINE
8
LYELLOW
6
CONTINUOUS
10
58.0572999999999979
20
-31.4124999999999979
11
58.0572999999999979
21
-39.5625
0
LINE
8
LYELLOW
6
CONTINUOUS
10
58.0972999999999971
20
-31.4145000000000003
11
58.0972999999999971
21
-39.5604999999999976
0
LINE
8
LYELLOW
6
CONTINUOUS
10
58.1372999999999962
20
-31.4174999999999969
11
58.1372999999999962
21
-39.5574999999999974
0
LINE
8
LYELLOW
6
CONTINUOUS
10
58.1772999999999954
20
-31.4194999999999993
11
58.1772999999999954
21
-39.555499999999995
0
LINE
8
LYELLOW
6
CONTINUOUS
10
58.2172999999999945
20
-31.4234999999999971
11
58.2172999999999945
21
-39.5514999999999972
0
LINE
8
LYELLOW
6
CONTINUOUS
10
58.2573000000000008
20
-31.4264999999999972
11
58.2573000000000008
21
-39.5484999999999971
0
LINE
8
LYELLOW
6
CONTINUOUS
10
58.2972999999999999
20
-31.4314999999999998
11
58.2972999999999999
21
-39.5435000000000016
0
LINE
8
LYELLOW
6
CONTINUOUS
10
58.337299999999999
20
-31.4354999999999976
11
58.337299999999999
21
-39.5394999999999968
0
LINE
8
LYELLOW
6
CONTINUOUS
10
58.3772999999999982
20
-31.4405000000000001
11
58.3772999999999982
21
-39.5345000000000013
0
LINE
8
LYELLOW
6
CONTINUOUS
10
58.4172999999999973
20
-31.4454999999999991
11
58.4172999999999973
21
-39.5294999999999987
0
LINE
8
LYELLOW
6
CONTINUOUS
10
58.4572999999999965
20
-31.4514999999999993
11
58.4572999999999965
21
-39.5234999999999985
0
LINE
8
LYELLOW
6
CONTINUOUS
10
58.4972999999999956
20
-31.4574999999999996
11
58.4972999999999956
21
-39.5174999999999983
0
LINE
8
LYELLOW
6
CONTINUOUS
10
58.5372999999999948
20
-31.4644999999999975
11
58.5372999999999948
21
-39.5105000000000004
0
LINE
8
LYELLOW
6
CONTINUOUS
10
58.5772999999999939
20
-31.4704999999999977
11
58.5772999999999939
21
-34.447499999999998
0
LINE
8
LYELLOW
6
CONTINUOUS
10
58.5772999999999939
20
-36.5274999999999963
11
58.5772999999999939
21
-39.5045000000000002
0
LINE
8
LYELLOW
6
CONTINUOUS
10
58.6173000000000002
20
-31.4784999999999968
11
58.6173000000000002
21
-34.447499999999998
0
LINE
8
LYELLOW
6
CONTINUOUS
10
58.6173000000000002
20
-36.5274999999999963
11
58.6173000000000002
21
-39.4964999999999975
0
LINE
8
LYELLOW
6
CONTINUOUS
10
58.6572999999999993
20
-31.4854999999999983
11
58.6572999999999993
21
-34.447499999999998
0
LINE
8
LYELLOW
6
CONTINUOUS
10
58.6572999999999993
20
-36.5274999999999963
11
58.6572999999999993
21
-39.4894999999999996
0
LINE
8
LYELLOW
6
CONTINUOUS
10
58.6972999999999985
20
-31.4944999999999986
11
58.6972999999999985
21
-34.447499999999998
0
LINE
8
LYELLOW
6
CONTINUOUS
10
58.6972999999999985
20
-36.5274999999999963
11
58.6972999999999985
21
-39.4804999999999993
0
LINE
8
LYELLOW
6
CONTINUOUS
10
58.7372999999999976
20
-31.5024999999999977
11
58.7372999999999976
21
-34.447499999999998
0
LINE
8
LYELLOW
6
CONTINUOUS
10
58.7372999999999976
20
-36.5274999999999963
11
58.7372999999999976
21
-39.4724999999999966
0
LINE
8
LYELLOW
6
CONTINUOUS
10
58.7772999999999968
20
-31.5114999999999981
11
58.7772999999999968
21
-34.447499999999998
0
LINE
8
LYELLOW
6
CONTINUOUS
10
58.7772999999999968
20
-36.5274999999999963
11
58.7772999999999968
21
-39.4634999999999962
0
LINE
8
LYELLOW
6
CONTINUOUS
10
58.8172999999999959
20
-31.5204999999999984
11
58.8172999999999959
21
-34.447499999999998
0
LINE
8
LYELLOW
6
CONTINUOUS
10
58.8172999999999959
20
-36.5274999999999963
11
58.8172999999999959
21
-39.4544999999999959
0
LINE
8
LYELLOW
6
CONTINUOUS
10
58.8572999999999951
20
-31.5305
11
58.8572999999999951
21
-34.447499999999998
0
LINE
8
LYELLOW
6
CONTINUOUS
10
58.8572999999999951
20
-36.5274999999999963
11
58.8572999999999951
21
-39.4444999999999979
0
LINE
8
LYELLOW
6
CONTINUOUS
10
58.8972999999999942
20
-31.540499999999998
11
58.8972999999999942
21
-34.447499999999998
0
LINE
8
LYELLOW
6
CONTINUOUS
10
58.8972999999999942
20
-36.5274999999999963
11
58.8972999999999942
21
-39.4344999999999999
0
LINE
8
LYELLOW
6
CONTINUOUS
10
58.9373000000000005
20
-31.5514999999999972
11
58.9373000000000005
21
-34.447499999999998
0
LINE
8
LYELLOW
6
CONTINUOUS
10
58.9373000000000005
20
-36.5274999999999963
11
58.9373000000000005
21
-39.4234999999999971
0
LINE
8
LYELLOW
6
CONTINUOUS
10
58.9772999999999996
20
-31.5625
11
58.9772999999999996
21
-34.447499999999998
0
LINE
8
LYELLOW
6
CONTINUOUS
10
58.9772999999999996
20
-36.5274999999999963
11
58.9772999999999996
21
-39.4125000000000014
0
LINE
8
LYELLOW
6
CONTINUOUS
10
59.0172999999999988
20
-31.5744999999999969
11
59.0172999999999988
21
-34.447499999999998
0
LINE
8
LYELLOW
6
CONTINUOUS
10
59.0172999999999988
20
-36.5274999999999963
11
59.0172999999999988
21
-39.400500000000001
0
LINE
8
LYELLOW
6
CONTINUOUS
10
59.0572999999999979
20
-31.5864999999999974
11
59.0572999999999979
21
-34.447499999999998
0
LINE
8
LYELLOW
6
CONTINUOUS
10
59.0572999999999979
20
-36.5274999999999963
11
59.0572999999999979
21
-39.3885000000000005
0
LINE
8
LYELLOW
6
CONTINUOUS
10
59.0972999999999971
20
-31.5984999999999978
11
59.0972999999999971
21
-34.447499999999998
0
LINE
8
LYELLOW
6
CONTINUOUS
10
59.0972999999999971
20
-36.5274999999999963
11
59.0972999999999971
21
-39.3765000000000001
0
LINE
8
LYELLOW
6
CONTINUOUS
10
59.1372999999999962
20
-31.6114999999999995
11
59.1372999999999962
21
-34.447499999999998
0
LINE
8
LYELLOW
6
CONTINUOUS
10
59.1372999999999962
20
-36.5274999999999963
11
59.1372999999999962
21
-39.3634999999999948
0
LINE
8
LYELLOW
6
CONTINUOUS
10
59.1772999999999954
20
-31.6244999999999976
11
59.1772999999999954
21
-34.447499999999998
0
LINE
8
LYELLOW
6
CONTINUOUS
10
59.1772999999999954
20
-36.5274999999999963
11
59.1772999999999954
21
-39.3504999999999967
0
LINE
8
LYELLOW
6
CONTINUOUS
10
59.2172999999999945
20
-31.638499999999997
11
59.2172999999999945
21
-34.447499999999998
0
LINE
8
LYELLOW
6
CONTINUOUS
10
59.2172999999999945
20
-36.5274999999999963
11
59.2172999999999945
21
-39.3365000000000009
0
LINE
8
LYELLOW
6
CONTINUOUS
10
59.2573000000000008
20
-31.6524999999999999
11
59.2573000000000008
21
-34.447499999999998
0
LINE
8
LYELLOW
6
CONTINUOUS
10
59.2573000000000008
20
-36.5274999999999963
11
59.2573000000000008
21
-39.322499999999998
0
LINE
8
LYELLOW
6
CONTINUOUS
10
59.2972999999999999
20
-31.6674999999999969
11
59.2972999999999999
21
-34.447499999999998
0
LINE
8
LYELLOW
6
CONTINUOUS
10
59.2972999999999999
20
-36.5274999999999963
11
59.2972999999999999
21
-39.3074999999999974
0
LINE
8
LYELLOW
6
CONTINUOUS
10
59.337299999999999
20
-31.6824999999999974
11
59.337299999999999
21
-34.447499999999998
0
LINE
8
LYELLOW
6
CONTINUOUS
10
59.337299999999999
20
-36.5274999999999963
11
59.337299999999999
21
-39.2924999999999969
0
LINE
8
LYELLOW
6
CONTINUOUS
10
59.3772999999999982
20
-31.6984999999999992
11
59.3772999999999982
21
-34.447499999999998
0
LINE
8
LYELLOW
6
CONTINUOUS
10
59.3772999999999982
20
-36.5274999999999963
11
59.3772999999999982
21
-39.2764999999999986
0
LINE
8
LYELLOW
6
CONTINUOUS
10
59.4172999999999973
20
-31.7144999999999975
11
59.4172999999999973
21
-34.447499999999998
0
LINE
8
LYELLOW
6
CONTINUOUS
10
59.4172999999999973
20
-36.5274999999999963
11
59.4172999999999973
21
-39.2605000000000004
0
LINE
8
LYELLOW
6
CONTINUOUS
10
59.4572999999999965
20
-31.7304999999999993
11
59.4572999999999965
21
-34.447499999999998
0
LINE
8
LYELLOW
6
CONTINUOUS
10
59.4572999999999965
20
-36.5274999999999963
11
59.4572999999999965
21
-39.2444999999999951
0
LINE
8
LYELLOW
6
CONTINUOUS
10
59.4972999999999956
20
-31.7474999999999987
11
59.4972999999999956
21
-34.447499999999998
0
LINE
8
LYELLOW
6
CONTINUOUS
10
59.4972999999999956
20
-36.5274999999999963
11
59.4972999999999956
21
-39.2274999999999991
0
LINE
8
LYELLOW
6
CONTINUOUS
10
59.5372999999999948
20
-31.7654999999999994
11
59.5372999999999948
21
-34.447499999999998
0
LINE
8
LYELLOW
6
CONTINUOUS
10
59.5372999999999948
20
-36.5274999999999963
11
59.5372999999999948
21
-39.2094999999999985
0
LINE
8
LYELLOW
6
CONTINUOUS
10
59.5772999999999939
20
-31.7835000000000001
11
59.5772999999999939
21
-34.447499999999998
0
LINE
8
LYELLOW
6
CONTINUOUS
10
59.5772999999999939
20
-36.5274999999999963
11
59.5772999999999939
21
-39.1914999999999978
0
LINE
8
LYELLOW
6
CONTINUOUS
10
59.6173000000000002
20
-31.8024999999999984
11
59.6173000000000002
21
-34.447499999999998
0
LINE
8
LYELLOW
6
CONTINUOUS
10
59.6173000000000002
20
-36.5274999999999963
11
59.6173000000000002
21
-39.1724999999999994
0
LINE
8
LYELLOW
6
CONTINUOUS
10
59.6572999999999993
20
-31.8214999999999968
11
59.6572999999999993
21
-34.447499999999998
0
LINE
8
LYELLOW
6
CONTINUOUS
10
59.6572999999999993
20
-36.5274999999999963
11
59.6572999999999993
21
-39.1535000000000011
0
LINE
8
LYELLOW
6
CONTINUOUS
10
59.6972999999999985
20
-31.8414999999999999
11
59.6972999999999985
21
-34.447499999999998
0
LINE
8
LYELLOW
6
CONTINUOUS
10
59.6972999999999985
20
-36.5274999999999963
11
59.6972999999999985
21
-39.133499999999998
0
LINE
8
LYELLOW
6
CONTINUOUS
10
59.7372999999999976
20
-31.8614999999999995
11
59.7372999999999976
21
-34.447499999999998
0
LINE
8
LYELLOW
6
CONTINUOUS
10
59.7372999999999976
20
-36.5274999999999963
11
59.7372999999999976
21
-39.1134999999999948
0
LINE
8
LYELLOW
6
CONTINUOUS
10
59.7772999999999968
20
-31.8825000000000003
11
59.7772999999999968
21
-34.447499999999998
0
LINE
8
LYELLOW
6
CONTINUOUS
10
59.7772999999999968
20
-36.5274999999999963
11
59.7772999999999968
21
-39.0925000000000011
0
LINE
8
LYELLOW
6
CONTINUOUS
10
59.8172999999999959
20
-31.9034999999999975
11
59.8172999999999959
21
-34.447499999999998
0
LINE
8
LYELLOW
6
CONTINUOUS
10
59.8172999999999959
20
-36.5274999999999963
11
59.8172999999999959
21
-39.0715000000000003
0
LINE
8
LYELLOW
6
CONTINUOUS
10
59.8572999999999951
20
-31.9254999999999995
11
59.8572999999999951
21
-34.447499999999998
0
LINE
8
LYELLOW
6
CONTINUOUS
10
59.8572999999999951
20
-36.5274999999999963
11
59.8572999999999951
21
-39.0494999999999948
0
LINE
8
LYELLOW
6
CONTINUOUS
10
59.8972999999999942
20
-31.9484999999999992
11
59.8972999999999942
21
-34.447499999999998
0
LINE
8
LYELLOW
6
CONTINUOUS
10
59.8972999999999942
20
-36.5274999999999963
11
59.8972999999999942
21
-39.0264999999999986
0
LINE
8
LYELLOW
6
CONTINUOUS
10
59.9373000000000005
20
-31.9714999999999989
11
59.9373000000000005
21
-34.447499999999998
0
LINE
8
LYELLOW
6
CONTINUOUS
10
59.9373000000000005
20
-36.5274999999999963
11
59.9373000000000005
21
-39.0034999999999954
0
LINE
8
LYELLOW
6
CONTINUOUS
10
59.9772999999999996
20
-31.9944999999999986
11
59.9772999999999996
21
-34.447499999999998
0
LINE
8
LYELLOW
6
CONTINUOUS
10
59.9772999999999996
20
-36.5274999999999963
11
59.9772999999999996
21
-38.9804999999999993
0
LINE
8
LYELLOW
6
CONTINUOUS
10
60.0172999999999988
20
-32.0195000000000007
11
60.0172999999999988
21
-34.447499999999998
0
LINE
8
LYELLOW
6
CONTINUOUS
10
60.0172999999999988
20
-36.5274999999999963
11
60.0172999999999988
21
-38.9555000000000007
0
LINE
8
LYELLOW
6
CONTINUOUS
10
60.0572999999999979
20
-32.0444999999999993
11
60.0572999999999979
21
-34.447499999999998
0
LINE
8
LYELLOW
6
CONTINUOUS
10
60.0572999999999979
20
-36.5274999999999963
11
60.0572999999999979
21
-38.930499999999995
0
LINE
8
LYELLOW
6
CONTINUOUS
10
60.0972999999999971
20
-32.0694999999999979
11
60.0972999999999971
21
-34.447499999999998
0
LINE
8
LYELLOW
6
CONTINUOUS
10
60.0972999999999971
20
-36.5274999999999963
11
60.0972999999999971
21
-38.9054999999999964
0
LINE
8
LYELLOW
6
CONTINUOUS
10
60.1372999999999962
20
-32.0955000000000013
11
60.1372999999999962
21
-34.447499999999998
0
LINE
8
LYELLOW
6
CONTINUOUS
10
60.1372999999999962
20
-36.5274999999999963
11
60.1372999999999962
21
-38.8795000000000002
0
LINE
8
LYELLOW
6
CONTINUOUS
10
60.1772999999999954
20
-32.1224999999999952
11
60.1772999999999954
21
-34.447499999999998
0
LINE
8
LYELLOW
6
CONTINUOUS
10
60.1772999999999954
20
-36.5274999999999963
11
60.1772999999999954
21
-38.8524999999999991
0
LINE
8
LYELLOW
6
CONTINUOUS
10
60.2172999999999945
20
-32.150500000000001
11
60.2172999999999945
21
-34.447499999999998
0
LINE
8
LYELLOW
6
CONTINUOUS
10
60.2172999999999945
20
-36.5274999999999963
11
60.2172999999999945
21
-38.8245000000000005
0
LINE
8
LYELLOW
6
CONTINUOUS
10
60.2573000000000008
20
-32.1784999999999997
11
60.2573000000000008
21
-34.447499999999998
0
LINE
8
LYELLOW
6
CONTINUOUS
10
60.2573000000000008
20
-36.5274999999999963
11
60.2573000000000008
21
-38.7965000000000018
0
LINE
8
LYELLOW
6
CONTINUOUS
10
60.2972999999999999
20
-32.207499999999996
11
60.2972999999999999
21
-34.447499999999998
0
LINE
8
LYELLOW
6
CONTINUOUS
10
60.2972999999999999
20
-36.5274999999999963
11
60.2972999999999999
21
-38.7674999999999983
0
LINE
8
LYELLOW
6
CONTINUOUS
10
60.337299999999999
20
-32.2374999999999972
11
60.337299999999999
21
-34.447499999999998
0
LINE
8
LYELLOW
6
CONTINUOUS
10
60.337299999999999
20
-36.5274999999999963
11
60.337299999999999
21
-38.7374999999999972
0
LINE
8
LYELLOW
6
CONTINUOUS
10
60.3772999999999982
20
-32.268499999999996
11
60.3772999999999982
21
-34.447499999999998
0
LINE
8
LYELLOW
6
CONTINUOUS
10
60.3772999999999982
20
-36.5274999999999963
11
60.3772999999999982
21
-38.7064999999999984
0
LINE
8
LYELLOW
6
CONTINUOUS
10
60.4172999999999973
20
-32.2995000000000019
11
60.4172999999999973
21
-34.447499999999998
0
LINE
8
LYELLOW
6
CONTINUOUS
10
60.4172999999999973
20
-36.5274999999999963
11
60.4172999999999973
21
-38.6754999999999995
0
LINE
8
LYELLOW
6
CONTINUOUS
10
60.4572999999999965
20
-32.3314999999999984
11
60.4572999999999965
21
-34.447499999999998
0
LINE
8
LYELLOW
6
CONTINUOUS
10
60.4572999999999965
20
-36.5274999999999963
11
60.4572999999999965
21
-38.643499999999996
0
LINE
8
LYELLOW
6
CONTINUOUS
10
60.4972999999999956
20
-32.3644999999999996
11
60.4972999999999956
21
-34.447499999999998
0
LINE
8
LYELLOW
6
CONTINUOUS
10
60.4972999999999956
20
-36.5274999999999963
11
60.4972999999999956
21
-38.6104999999999947
0
LINE
8
LYELLOW
6
CONTINUOUS
10
60.5372999999999948
20
-32.3984999999999985
11
60.5372999999999948
21
-34.447499999999998
0
LINE
8
LYELLOW
6
CONTINUOUS
10
60.5372999999999948
20
-36.5274999999999963
11
60.5372999999999948
21
-38.5764999999999958
0
LINE
8
LYELLOW
6
CONTINUOUS
10
60.5772999999999939
20
-32.4324999999999974
11
60.5772999999999939
21
-34.447499999999998
0
LINE
8
LYELLOW
6
CONTINUOUS
10
60.5772999999999939
20
-36.5274999999999963
11
60.5772999999999939
21
-38.5424999999999969
0
LINE
8
LYELLOW
6
CONTINUOUS
10
60.6173000000000002
20
-32.4684999999999988
11
60.6173000000000002
21
-34.447499999999998
0
LINE
8
LYELLOW
6
CONTINUOUS
10
60.6173000000000002
20
-36.5274999999999963
11
60.6173000000000002
21
-38.5064999999999955
0
LINE
8
LYELLOW
6
CONTINUOUS
10
60.6572999999999993
20
-32.5054999999999978
11
60.6572999999999993
21
-38.4694999999999965
0
LINE
8
LYELLOW
6
CONTINUOUS
10
60.6972999999999985
20
-32.5424999999999969
11
60.6972999999999985
21
-38.4324999999999974
0
LINE
8
LYELLOW
6
CONTINUOUS
10
60.7372999999999976
20
-32.5814999999999984
11
60.7372999999999976
21
-38.393499999999996
0
LINE
8
LYELLOW
6
CONTINUOUS
10
60.7772999999999968
20
-32.6204999999999998
11
60.7772999999999968
21
-38.3545000000000016
0
LINE
8
LYELLOW
6
CONTINUOUS
10
60.8172999999999959
20
-32.6614999999999966
11
60.8172999999999959
21
-38.3134999999999977
0
LINE
8
LYELLOW
6
CONTINUOUS
10
60.8572999999999951
20
-32.7034999999999982
11
60.8572999999999951
21
-38.2714999999999961
0
LINE
8
LYELLOW
6
CONTINUOUS
10
60.8972999999999942
20
-32.7464999999999975
11
60.8972999999999942
21
-38.2284999999999968
0
LINE
8
LYELLOW
6
CONTINUOUS
10
60.9373000000000005
20
-32.7914999999999992
11
60.9373000000000005
21
-38.1834999999999951
0
LINE
8
LYELLOW
6
CONTINUOUS
10
60.9772999999999996
20
-32.8365000000000009
11
60.9772999999999996
21
-38.1385000000000005
0
LINE
8
LYELLOW
6
CONTINUOUS
10
61.0172999999999988
20
-32.883499999999998
11
61.0172999999999988
21
-38.0914999999999964
0
LINE
8
LYELLOW
6
CONTINUOUS
10
61.0572999999999979
20
-32.9324999999999974
11
61.0572999999999979
21
-38.0424999999999969
0
LINE
8
LYELLOW
6
CONTINUOUS
10
61.0972999999999971
20
-32.9825000000000017
11
61.0972999999999971
21
-37.9924999999999997
0
LINE
8
LYELLOW
6
CONTINUOUS
10
61.1372999999999962
20
-33.0345000000000013
11
61.1372999999999962
21
-37.9405000000000001
0
LINE
8
LYELLOW
6
CONTINUOUS
10
61.1772999999999954
20
-33.0874999999999986
11
61.1772999999999954
21
-37.8874999999999957
0
LINE
8
LYELLOW
6
CONTINUOUS
10
61.2172999999999945
20
-33.143499999999996
11
61.2172999999999945
21
-37.8314999999999984
0
LINE
8
LYELLOW
6
CONTINUOUS
10
61.2573000000000008
20
-33.2004999999999981
11
61.2573000000000008
21
-37.7744999999999962
0
LINE
8
LYELLOW
6
CONTINUOUS
10
61.2972999999999999
20
-33.2605000000000004
11
61.2972999999999999
21
-37.714500000000001
0
LINE
8
LYELLOW
6
CONTINUOUS
10
61.337299999999999
20
-33.322499999999998
11
61.337299999999999
21
-37.6524999999999963
0
LINE
8
LYELLOW
6
CONTINUOUS
10
61.3772999999999982
20
-33.3864999999999981
11
61.3772999999999982
21
-37.5884999999999962
0
LINE
8
LYELLOW
6
CONTINUOUS
10
61.4172999999999973
20
-33.4534999999999982
11
61.4172999999999973
21
-37.5214999999999961
0
LINE
8
LYELLOW
6
CONTINUOUS
10
61.4572999999999965
20
-33.5234999999999985
11
61.4572999999999965
21
-37.4514999999999958
0
LINE
8
LYELLOW
6
CONTINUOUS
10
61.4972999999999956
20
-33.5974999999999966
11
61.4972999999999956
21
-37.3774999999999977
0
LINE
8
LYELLOW
6
CONTINUOUS
10
61.5372999999999948
20
-33.6745000000000019
11
61.5372999999999948
21
-37.3004999999999995
0
LINE
8
LYELLOW
6
CONTINUOUS
10
61.5772999999999939
20
-33.7564999999999955
11
61.5772999999999939
21
-37.2184999999999988
0
LINE
8
LYELLOW
6
CONTINUOUS
10
61.6173000000000002
20
-33.8434999999999988
11
61.6173000000000002
21
-37.1314999999999955
0
LINE
8
LYELLOW
6
CONTINUOUS
10
61.6572999999999993
20
-33.9354999999999976
11
61.6572999999999993
21
-37.0394999999999968
0
LINE
8
LYELLOW
6
CONTINUOUS
10
61.6972999999999985
20
-34.0345000000000013
11
61.6972999999999985
21
-36.9405000000000001
0
LINE
8
LYELLOW
6
CONTINUOUS
10
61.7372999999999976
20
-34.1415000000000006
11
61.7372999999999976
21
-36.8335000000000008
0
LINE
8
LYELLOW
6
CONTINUOUS
10
61.7772999999999968
20
-34.2594999999999956
11
61.7772999999999968
21
-36.7154999999999987
0
LINE
8
LYELLOW
6
CONTINUOUS
10
61.8172999999999959
20
-34.3904999999999959
11
61.8172999999999959
21
-36.5844999999999985
0
LINE
8
LYELLOW
6
CONTINUOUS
10
61.8572999999999951
20
-34.5405000000000015
11
61.8572999999999951
21
-36.4344999999999999
0
LINE
8
LYELLOW
6
CONTINUOUS
10
61.8972999999999942
20
-34.7194999999999965
11
61.8972999999999942
21
-36.2554999999999978
0
LINE
8
LYELLOW
6
CONTINUOUS
10
61.9373000000000005
20
-34.9544999999999959
11
61.9373000000000005
21
-36.0204999999999984
0
CIRCLE
8
LYELLOW
10
57.8572999999999951
20
-35.4874999999999972
40
4.1200000000000001
0
LINE
8
LYELLOW
6
CONTINUOUS
10
92.6499999999999915
20
-47.1774999999999949
11
102.8699999999999903
21
-47.1774999999999949
0
LINE
8
LYELLOW
6
CONTINUOUS
10
92.6499999999999915
20
-48.5574999999999974
11
102.8699999999999903
21
-48.5574999999999974
0
LINE
8
LYELLOW
6
CONTINUOUS
10
92.6499999999999915
20
-51.7974999999999994
11
92.6499999999999915
21
-47.1774999999999949
0
LINE
8
LYELLOW
6
CONTINUOUS
10
95.9099999999999966
20
-47.1774999999999949
11
95.9099999999999966
21
-48.5574999999999974
0
LINE
8
LYELLOW
6
CONTINUOUS
10
99.6099999999999994
20
-47.1774999999999949
11
99.6099999999999994
21
-48.5574999999999974
0
LINE
8
LYELLOW
6
CONTINUOUS
10
102.8699999999999903
20
-47.1774999999999949
11
102.8699999999999903
21
-51.7974999999999994
0
LINE
8
LYELLOW
6
CONTINUOUS
10
102.8699999999999903
20
-51.7974999999999994
11
92.6499999999999915
21
-51.7974999999999994
0
LINE
8
LYELLOW
6
CONTINUOUS
10
105.6799999999999926
20
-71.6774999999999949
11
105.6799999999999926
21
-79.2974999999999994
0
LINE
8
LYELLOW
6
CONTINUOUS
10
105.6799999999999926
20
-79.2974999999999994
11
115.8399999999999892
21
-79.2974999999999994
0
LINE
8
LYELLOW
6
CONTINUOUS
10
115.8399999999999892
20
-71.6774999999999949
11
105.6799999999999926
21
-71.6774999999999949
0
LINE
8
LYELLOW
6
CONTINUOUS
10
115.8399999999999892
20
-78.0275000000000034
11
105.6799999999999926
21
-78.0275000000000034
0
LINE
8
LYELLOW
6
CONTINUOUS
10
115.8399999999999892
20
-79.2974999999999994
11
115.8399999999999892
21
-71.6774999999999949
0
LINE
8
LYELLOW
6
CONTINUOUS
10
66.9899999999999949
20
-49.4874999999999972
11
67.6400000000000006
21
-49.4874999999999972
0
LINE
8
LYELLOW
6
CONTINUOUS
10
68.2399999999999949
20
-48.3674999999999997
11
68.2399999999999949
21
-50.6074999999999946
0
LINE
8
LYELLOW
6
CONTINUOUS
10
68.3599999999999994
20
-48.3674999999999997
11
68.3599999999999994
21
-50.6074999999999946
0
LINE
8
LYELLOW
6
CONTINUOUS
10
68.480000000000004
20
-48.3674999999999997
11
68.480000000000004
21
-50.6074999999999946
0
LINE
8
LYELLOW
6
CONTINUOUS
10
72.5300000000000011
20
-49.4874999999999972
11
71.8799999999999955
21
-49.4874999999999972
0
LINE
8
LYELLOW
6
CONTINUOUS
10
67.6400000000000006
20
-48.3674999999999997
11
71.8799999999999955
21
-48.3674999999999997
0
LINE
8
LYELLOW
6
CONTINUOUS
10
71.8799999999999955
20
-48.3674999999999997
11
71.8799999999999955
21
-50.6074999999999946
0
LINE
8
LYELLOW
6
CONTINUOUS
10
71.8799999999999955
20
-50.6074999999999946
11
67.6400000000000006
21
-50.6074999999999946
0
LINE
8
LYELLOW
6
CONTINUOUS
10
67.6400000000000006
20
-50.6074999999999946
11
67.6400000000000006
21
-48.3674999999999997
0
LINE
8
LYELLOW
6
CONTINUOUS
10
35.509999999999998
20
-56.3474999999999966
11
35.509999999999998
21
-66.6274999999999977
0
LINE
8
LYELLOW
6
CONTINUOUS
10
35.509999999999998
20
-66.6274999999999977
11
40.009999999999998
21
-66.6274999999999977
0
LINE
8
LYELLOW
6
CONTINUOUS
10
36.759999999999998
20
-56.3474999999999966
11
35.509999999999998
21
-56.3474999999999966
0
LINE
8
LYELLOW
6
CONTINUOUS
10
40.009999999999998
20
-56.3474999999999966
11
38.759999999999998
21
-56.3474999999999966
0
LINE
8
LYELLOW
6
CONTINUOUS
10
40.009999999999998
20
-66.6274999999999977
11
40.009999999999998
21
-56.3474999999999966
0
ARC
8
LYELLOW
10
37.759999999999998
20
-56.3474999999999966
40
1.
50
-180.00000000
51
-0.00000000
0
LINE
8
LYELLOW
6
CONTINUOUS
10
82.4899999999999949
20
-74.1174999999999926
11
89.0300000000000011
21
-74.1174999999999926
0
LINE
8
LYELLOW
6
CONTINUOUS
10
82.4899999999999949
20
-74.4474999999999909
11
82.4899999999999949
21
-74.1174999999999926
0
LINE
8
LYELLOW
6
CONTINUOUS
10
82.4899999999999949
20
-76.5275000000000034
11
82.4899999999999949
21
-76.8575000000000017
0
LINE
8
LYELLOW
6
CONTINUOUS
10
82.4899999999999949
20
-76.8575000000000017
11
89.0300000000000011
21
-76.8575000000000017
0
LINE
8
LYELLOW
6
CONTINUOUS
10
89.0300000000000011
20
-74.1174999999999926
11
89.0300000000000011
21
-74.4474999999999909
0
LINE
8
LYELLOW
6
CONTINUOUS
10
89.0300000000000011
20
-76.8575000000000017
11
89.0300000000000011
21
-76.5275000000000034
0
LINE
8
LYELLOW
6
CONTINUOUS
10
28.379999999999999
20
-72.832499999999996
11
29.759999999999998
21
-72.832499999999996
0
LINE
8
LYELLOW
6
CONTINUOUS
10
28.379999999999999
20
-74.2124999999999915
11
28.379999999999999
21
-72.832499999999996
0
LINE
8
LYELLOW
6
CONTINUOUS
10
28.379999999999999
20
-75.4825000000000017
11
28.379999999999999
21
-78.1324999999999932
0
LINE
8
LYELLOW
6
CONTINUOUS
10
28.379999999999999
20
-75.4825000000000017
11
31.139999999999997
21
-75.4825000000000017
0
LINE
8
LYELLOW
6
CONTINUOUS
10
28.379999999999999
20
-78.1324999999999932
11
31.139999999999997
21
-78.1324999999999932
0
LINE
8
LYELLOW
6
CONTINUOUS
10
31.139999999999997
20
-75.4825000000000017
11
31.139999999999997
21
-78.1324999999999932
0
LINE
8
LYELLOW
6
CONTINUOUS
10
30.6499999999999986
20
-33.177500000000002
11
40.8699999999999974
21
-33.177500000000002
0
LINE
8
LYELLOW
6
CONTINUOUS
10
30.6499999999999986
20
-34.5574999999999974
11
40.8699999999999974
21
-34.5574999999999974
0
LINE
8
LYELLOW
6
CONTINUOUS
10
30.6499999999999986
20
-37.7974999999999994
11
30.6499999999999986
21
-33.177500000000002
0
LINE
8
LYELLOW
6
CONTINUOUS
10
33.9099999999999966
20
-33.177500000000002
11
33.9099999999999966
21
-34.5574999999999974
0
LINE
8
LYELLOW
6
CONTINUOUS
10
37.6099999999999994
20
-33.177500000000002
11
37.6099999999999994
21
-34.5574999999999974
0
LINE
8
LYELLOW
6
CONTINUOUS
10
40.8699999999999974
20
-33.177500000000002
11
40.8699999999999974
21
-37.7974999999999994
0
LINE
8
LYELLOW
6
CONTINUOUS
10
40.8699999999999974
20
-37.7974999999999994
11
30.6499999999999986
21
-37.7974999999999994
0
LINE
8
LYELLOW
6
CONTINUOUS
10
42.4899999999999949
20
-48.1174999999999997
11
49.0300000000000011
21
-48.1174999999999997
0
LINE
8
LYELLOW
6
CONTINUOUS
10
42.4899999999999949
20
-48.447499999999998
11
42.4899999999999949
21
-48.1174999999999997
0
LINE
8
LYELLOW
6
CONTINUOUS
10
42.4899999999999949
20
-50.5274999999999963
11
42.4899999999999949
21
-50.8574999999999946
0
LINE
8
LYELLOW
6
CONTINUOUS
10
42.4899999999999949
20
-50.8574999999999946
11
49.0300000000000011
21
-50.8574999999999946
0
LINE
8
LYELLOW
6
CONTINUOUS
10
49.0300000000000011
20
-48.1174999999999997
11
49.0300000000000011
21
-48.447499999999998
0
LINE
8
LYELLOW
6
CONTINUOUS
10
49.0300000000000011
20
-50.8574999999999946
11
49.0300000000000011
21
-50.5274999999999963
0
LINE
8
LYELLOW
6
CONTINUOUS
10
95.4476019999999892
20
-93.1724999999999994
11
96.2476020000000005
21
-93.1724999999999994
0
LINE
8
LYELLOW
6
CONTINUOUS
10
95.8476019999999949
20
-92.7724999999999937
11
95.8476019999999949
21
-93.5724999999999909
0
LINE
8
LYELLOW
6
CONTINUOUS
10
99.8572999999999951
20
-91.4074999999999989
11
99.8572999999999951
21
-99.5674999999999955
0
LINE
8
LYELLOW
6
CONTINUOUS
10
99.8973000000000013
20
-91.4074999999999989
11
99.8973000000000013
21
-99.5674999999999955
0
LINE
8
LYELLOW
6
CONTINUOUS
10
99.9372999999999934
20
-91.4084999999999894
11
99.9372999999999934
21
-99.5664999999999907
0
LINE
8
LYELLOW
6
CONTINUOUS
10
99.9772999999999996
20
-91.4094999999999942
11
99.9772999999999996
21
-99.5655000000000001
0
LINE
8
LYELLOW
6
CONTINUOUS
10
100.0172999999999917
20
-91.410499999999999
11
100.0172999999999917
21
-99.5644999999999953
0
LINE
8
LYELLOW
6
CONTINUOUS
10
100.0572999999999979
20
-91.4124999999999943
11
100.0572999999999979
21
-99.5625
0
LINE
8
LYELLOW
6
CONTINUOUS
10
100.09729999999999
20
-91.4144999999999897
11
100.09729999999999
21
-99.5604999999999905
0
LINE
8
LYELLOW
6
CONTINUOUS
10
100.1372999999999962
20
-91.4174999999999898
11
100.1372999999999962
21
-99.5574999999999903
0
LINE
8
LYELLOW
6
CONTINUOUS
10
100.1773000000000025
20
-91.4194999999999993
11
100.1773000000000025
21
-99.555499999999995
0
LINE
8
LYELLOW
6
CONTINUOUS
10
100.2172999999999945
20
-91.42349999999999
11
100.2172999999999945
21
-99.5514999999999901
0
LINE
8
LYELLOW
6
CONTINUOUS
10
100.2573000000000008
20
-91.4264999999999901
11
100.2573000000000008
21
-99.54849999999999
0
LINE
8
LYELLOW
6
CONTINUOUS
10
100.2972999999999928
20
-91.4314999999999998
11
100.2972999999999928
21
-99.5434999999999945
0
LINE
8
LYELLOW
6
CONTINUOUS
10
100.337299999999999
20
-91.4354999999999905
11
100.337299999999999
21
-99.5394999999999897
0
LINE
8
LYELLOW
6
CONTINUOUS
10
100.3772999999999911
20
-91.4405000000000001
11
100.3772999999999911
21
-99.5344999999999942
0
LINE
8
LYELLOW
6
CONTINUOUS
10
100.4172999999999973
20
-91.4454999999999956
11
100.4172999999999973
21
-99.5294999999999987
0
LINE
8
LYELLOW
6
CONTINUOUS
10
100.4572999999999894
20
-91.4514999999999958
11
100.4572999999999894
21
-99.5234999999999985
0
LINE
8
LYELLOW
6
CONTINUOUS
10
100.4972999999999956
20
-91.457499999999996
11
100.4972999999999956
21
-99.5174999999999983
0
LINE
8
LYELLOW
6
CONTINUOUS
10
100.5373000000000019
20
-91.464500000000001
11
100.5373000000000019
21
-99.5104999999999933
0
LINE
8
LYELLOW
6
CONTINUOUS
10
100.5772999999999939
20
-91.4705000000000013
11
100.5772999999999939
21
-94.4474999999999909
0
LINE
8
LYELLOW
6
CONTINUOUS
10
100.5772999999999939
20
-96.5274999999999892
11
100.5772999999999939
21
-99.5044999999999931
0
LINE
8
LYELLOW
6
CONTINUOUS
10
100.6173000000000002
20
-91.4784999999999968
11
100.6173000000000002
21
-94.4474999999999909
0
LINE
8
LYELLOW
6
CONTINUOUS
10
100.6173000000000002
20
-96.5274999999999892
11
100.6173000000000002
21
-99.4964999999999975
0
LINE
8
LYELLOW
6
CONTINUOUS
10
100.6572999999999922
20
-91.4855000000000018
11
100.6572999999999922
21
-94.4474999999999909
0
LINE
8
LYELLOW
6
CONTINUOUS
10
100.6572999999999922
20
-96.5274999999999892
11
100.6572999999999922
21
-99.4894999999999925
0
LINE
8
LYELLOW
6
CONTINUOUS
10
100.6972999999999985
20
-91.4945000000000022
11
100.6972999999999985
21
-94.4474999999999909
0
LINE
8
LYELLOW
6
CONTINUOUS
10
100.6972999999999985
20
-96.5274999999999892
11
100.6972999999999985
21
-99.4804999999999922
0
LINE
8
LYELLOW
6
CONTINUOUS
10
100.7372999999999905
20
-91.5024999999999977
11
100.7372999999999905
21
-94.4474999999999909
0
LINE
8
LYELLOW
6
CONTINUOUS
10
100.7372999999999905
20
-96.5274999999999892
11
100.7372999999999905
21
-99.4724999999999966
0
LINE
8
LYELLOW
6
CONTINUOUS
10
100.7772999999999968
20
-91.5114999999999981
11
100.7772999999999968
21
-94.4474999999999909
0
LINE
8
LYELLOW
6
CONTINUOUS
10
100.7772999999999968
20
-96.5274999999999892
11
100.7772999999999968
21
-99.4634999999999962
0
LINE
8
LYELLOW
6
CONTINUOUS
10
100.8172999999999888
20
-91.5204999999999984
11
100.8172999999999888
21
-94.4474999999999909
0
LINE
8
LYELLOW
6
CONTINUOUS
10
100.8172999999999888
20
-96.5274999999999892
11
100.8172999999999888
21
-99.4544999999999959
0
LINE
8
LYELLOW
6
CONTINUOUS
10
100.8572999999999951
20
-91.5304999999999893
11
100.8572999999999951
21
-94.4474999999999909
0
LINE
8
LYELLOW
6
CONTINUOUS
10
100.8572999999999951
20
-96.5274999999999892
11
100.8572999999999951
21
-99.4444999999999908
0
LINE
8
LYELLOW
6
CONTINUOUS
10
100.8973000000000013
20
-91.5404999999999944
11
100.8973000000000013
21
-94.4474999999999909
0
LINE
8
LYELLOW
6
CONTINUOUS
10
100.8973000000000013
20
-96.5274999999999892
11
100.8973000000000013
21
-99.4344999999999999
0
LINE
8
LYELLOW
6
CONTINUOUS
10
100.9372999999999934
20
-91.5514999999999901
11
100.9372999999999934
21
-94.4474999999999909
0
LINE
8
LYELLOW
6
CONTINUOUS
10
100.9372999999999934
20
-96.5274999999999892
11
100.9372999999999934
21
-99.42349999999999
0
LINE
8
LYELLOW
6
CONTINUOUS
10
100.9772999999999996
20
-91.5625
11
100.9772999999999996
21
-94.4474999999999909
0
LINE
8
LYELLOW
6
CONTINUOUS
10
100.9772999999999996
20
-96.5274999999999892
11
100.9772999999999996
21
-99.4124999999999943
0
LINE
8
LYELLOW
6
CONTINUOUS
10
101.0172999999999917
20
-91.5745000000000005
11
101.0172999999999917
21
-94.4474999999999909
0
LINE
8
LYELLOW
6
CONTINUOUS
10
101.0172999999999917
20
-96.5274999999999892
11
101.0172999999999917
21
-99.4004999999999939
0
LINE
8
LYELLOW
6
CONTINUOUS
10
101.0572999999999979
20
-91.5865000000000009
11
101.0572999999999979
21
-94.4474999999999909
0
LINE
8
LYELLOW
6
CONTINUOUS
10
101.0572999999999979
20
-96.5274999999999892
11
101.0572999999999979
21
-99.3884999999999934
0
LINE
8
LYELLOW
6
CONTINUOUS
10
101.09729999999999
20
-91.5985000000000014
11
101.09729999999999
21
-94.4474999999999909
0
LINE
8
LYELLOW
6
CONTINUOUS
10
101.09729999999999
20
-96.5274999999999892
11
101.09729999999999
21
-99.376499999999993
0
LINE
8
LYELLOW
6
CONTINUOUS
10
101.1372999999999962
20
-91.6114999999999924
11
101.1372999999999962
21
-94.4474999999999909
0
LINE
8
LYELLOW
6
CONTINUOUS
10
101.1372999999999962
20
-96.5274999999999892
11
101.1372999999999962
21
-99.3635000000000019
0
LINE
8
LYELLOW
6
CONTINUOUS
10
101.1773000000000025
20
-91.6244999999999976
11
101.1773000000000025
21
-94.4474999999999909
0
LINE
8
LYELLOW
6
CONTINUOUS
10
101.1773000000000025
20
-96.5274999999999892
11
101.1773000000000025
21
-99.3504999999999967
0
LINE
8
LYELLOW
6
CONTINUOUS
10
101.2172999999999945
20
-91.6384999999999934
11
101.2172999999999945
21
-94.4474999999999909
0
LINE
8
LYELLOW
6
CONTINUOUS
10
101.2172999999999945
20
-96.5274999999999892
11
101.2172999999999945
21
-99.3365000000000009
0
LINE
8
LYELLOW
6
CONTINUOUS
10
101.2573000000000008
20
-91.6524999999999892
11
101.2573000000000008
21
-94.4474999999999909
0
LINE
8
LYELLOW
6
CONTINUOUS
10
101.2573000000000008
20
-96.5274999999999892
11
101.2573000000000008
21
-99.3224999999999909
0
LINE
8
LYELLOW
6
CONTINUOUS
10
101.2972999999999928
20
-91.6674999999999898
11
101.2972999999999928
21
-94.4474999999999909
0
LINE
8
LYELLOW
6
CONTINUOUS
10
101.2972999999999928
20
-96.5274999999999892
11
101.2972999999999928
21
-99.3074999999999903
0
LINE
8
LYELLOW
6
CONTINUOUS
10
101.337299999999999
20
-91.6824999999999903
11
101.337299999999999
21
-94.4474999999999909
0
LINE
8
LYELLOW
6
CONTINUOUS
10
101.337299999999999
20
-96.5274999999999892
11
101.337299999999999
21
-99.2924999999999898
0
LINE
8
LYELLOW
6
CONTINUOUS
10
101.3772999999999911
20
-91.6984999999999957
11
101.3772999999999911
21
-94.4474999999999909
0
LINE
8
LYELLOW
6
CONTINUOUS
10
101.3772999999999911
20
-96.5274999999999892
11
101.3772999999999911
21
-99.2764999999999986
0
LINE
8
LYELLOW
6
CONTINUOUS
10
101.4172999999999973
20
-91.714500000000001
11
101.4172999999999973
21
-94.4474999999999909
0
LINE
8
LYELLOW
6
CONTINUOUS
10
101.4172999999999973
20
-96.5274999999999892
11
101.4172999999999973
21
-99.2604999999999933
0
LINE
8
LYELLOW
6
CONTINUOUS
10
101.4572999999999894
20
-91.7304999999999922
11
101.4572999999999894
21
-94.4474999999999909
0
LINE
8
LYELLOW
6
CONTINUOUS
10
101.4572999999999894
20
-96.5274999999999892
11
101.4572999999999894
21
-99.2445000000000022
0
LINE
8
LYELLOW
6
CONTINUOUS
10
101.4972999999999956
20
-91.7475000000000023
11
101.4972999999999956
21
-94.4474999999999909
0
LINE
8
LYELLOW
6
CONTINUOUS
10
101.4972999999999956
20
-96.5274999999999892
11
101.4972999999999956
21
-99.227499999999992
0
LINE
8
LYELLOW
6
CONTINUOUS
10
101.5373000000000019
20
-91.7654999999999887
11
101.5373000000000019
21
-94.4474999999999909
0
LINE
8
LYELLOW
6
CONTINUOUS
10
101.5373000000000019
20
-96.5274999999999892
11
101.5373000000000019
21
-99.2094999999999914
0
LINE
8
LYELLOW
6
CONTINUOUS
10
101.5772999999999939
20
-91.7834999999999894
11
101.5772999999999939
21
-94.4474999999999909
0
LINE
8
LYELLOW
6
CONTINUOUS
10
101.5772999999999939
20
-96.5274999999999892
11
101.5772999999999939
21
-99.1914999999999907
0
LINE
8
LYELLOW
6
CONTINUOUS
10
101.6173000000000002
20
-91.8024999999999949
11
101.6173000000000002
21
-94.4474999999999909
0
LINE
8
LYELLOW
6
CONTINUOUS
10
101.6173000000000002
20
-96.5274999999999892
11
101.6173000000000002
21
-99.1724999999999994
0
LINE
8
LYELLOW
6
CONTINUOUS
10
101.6572999999999922
20
-91.8215000000000003
11
101.6572999999999922
21
-94.4474999999999909
0
LINE
8
LYELLOW
6
CONTINUOUS
10
101.6572999999999922
20
-96.5274999999999892
11
101.6572999999999922
21
-99.153499999999994
0
LINE
8
LYELLOW
6
CONTINUOUS
10
101.6972999999999985
20
-91.8414999999999964
11
101.6972999999999985
21
-94.4474999999999909
0
LINE
8
LYELLOW
6
CONTINUOUS
10
101.6972999999999985
20
-96.5274999999999892
11
101.6972999999999985
21
-99.133499999999998
0
LINE
8
LYELLOW
6
CONTINUOUS
10
101.7372999999999905
20
-91.8614999999999924
11
101.7372999999999905
21
-94.4474999999999909
0
LINE
8
LYELLOW
6
CONTINUOUS
10
101.7372999999999905
20
-96.5274999999999892
11
101.7372999999999905
21
-99.1135000000000019
0
LINE
8
LYELLOW
6
CONTINUOUS
10
101.7772999999999968
20
-91.8824999999999932
11
101.7772999999999968
21
-94.4474999999999909
0
LINE
8
LYELLOW
6
CONTINUOUS
10
101.7772999999999968
20
-96.5274999999999892
11
101.7772999999999968
21
-99.0925000000000011
0
LINE
8
LYELLOW
6
CONTINUOUS
10
101.8172999999999888
20
-91.903499999999994
11
101.8172999999999888
21
-94.4474999999999909
0
LINE
8
LYELLOW
6
CONTINUOUS
10
101.8172999999999888
20
-96.5274999999999892
11
101.8172999999999888
21
-99.0715000000000003
0
LINE
8
LYELLOW
6
CONTINUOUS
10
101.8572999999999951
20
-91.9254999999999995
11
101.8572999999999951
21
-94.4474999999999909
0
LINE
8
LYELLOW
6
CONTINUOUS
10
101.8572999999999951
20
-96.5274999999999892
11
101.8572999999999951
21
-99.0494999999999948
0
LINE
8
LYELLOW
6
CONTINUOUS
10
101.8973000000000013
20
-91.9484999999999957
11
101.8973000000000013
21
-94.4474999999999909
0
LINE
8
LYELLOW
6
CONTINUOUS
10
101.8973000000000013
20
-96.5274999999999892
11
101.8973000000000013
21
-99.0264999999999986
0
LINE
8
LYELLOW
6
CONTINUOUS
10
101.9372999999999934
20
-91.9714999999999918
11
101.9372999999999934
21
-94.4474999999999909
0
LINE
8
LYELLOW
6
CONTINUOUS
10
101.9372999999999934
20
-96.5274999999999892
11
101.9372999999999934
21
-99.0035000000000025
0
LINE
8
LYELLOW
6
CONTINUOUS
10
101.9772999999999996
20
-91.9945000000000022
11
101.9772999999999996
21
-94.4474999999999909
0
LINE
8
LYELLOW
6
CONTINUOUS
10
101.9772999999999996
20
-96.5274999999999892
11
101.9772999999999996
21
-98.9804999999999922
0
LINE
8
LYELLOW
6
CONTINUOUS
10
102.0172999999999917
20
-92.0194999999999936
11
102.0172999999999917
21
-94.4474999999999909
0
LINE
8
LYELLOW
6
CONTINUOUS
10
102.0172999999999917
20
-96.5274999999999892
11
102.0172999999999917
21
-98.9555000000000007
0
LINE
8
LYELLOW
6
CONTINUOUS
10
102.0572999999999979
20
-92.0444999999999993
11
102.0572999999999979
21
-94.4474999999999909
0
LINE
8
LYELLOW
6
CONTINUOUS
10
102.0572999999999979
20
-96.5274999999999892
11
102.0572999999999979
21
-98.930499999999995
0
LINE
8
LYELLOW
6
CONTINUOUS
10
102.09729999999999
20
-92.0694999999999908
11
102.09729999999999
21
-94.4474999999999909
0
LINE
8
LYELLOW
6
CONTINUOUS
10
102.09729999999999
20
-96.5274999999999892
11
102.09729999999999
21
-98.9054999999999893
0
LINE
8
LYELLOW
6
CONTINUOUS
10
102.1372999999999962
20
-92.0955000000000013
11
102.1372999999999962
21
-94.4474999999999909
0
LINE
8
LYELLOW
6
CONTINUOUS
10
102.1372999999999962
20
-96.5274999999999892
11
102.1372999999999962
21
-98.8794999999999931
0
LINE
8
LYELLOW
6
CONTINUOUS
10
102.1773000000000025
20
-92.1225000000000023
11
102.1773000000000025
21
-94.4474999999999909
0
LINE
8
LYELLOW
6
CONTINUOUS
10
102.1773000000000025
20
-96.5274999999999892
11
102.1773000000000025
21
-98.852499999999992
0
LINE
8
LYELLOW
6
CONTINUOUS
10
102.2172999999999945
20
-92.1504999999999939
11
102.2172999999999945
21
-94.4474999999999909
0
LINE
8
LYELLOW
6
CONTINUOUS
10
102.2172999999999945
20
-96.5274999999999892
11
102.2172999999999945
21
-98.8245000000000005
0
LINE
8
LYELLOW
6
CONTINUOUS
10
102.2573000000000008
20
-92.1784999999999997
11
102.2573000000000008
21
-94.4474999999999909
0
LINE
8
LYELLOW
6
CONTINUOUS
10
102.2573000000000008
20
-96.5274999999999892
11
102.2573000000000008
21
-98.7964999999999947
0
LINE
8
LYELLOW
6
CONTINUOUS
10
102.2972999999999928
20
-92.207499999999996
11
102.2972999999999928
21
-94.4474999999999909
0
LINE
8
LYELLOW
6
CONTINUOUS
10
102.2972999999999928
20
-96.5274999999999892
11
102.2972999999999928
21
-98.7674999999999983
0
LINE
8
LYELLOW
6
CONTINUOUS
10
102.337299999999999
20
-92.2374999999999972
11
102.337299999999999
21
-94.4474999999999909
0
LINE
8
LYELLOW
6
CONTINUOUS
10
102.337299999999999
20
-96.5274999999999892
11
102.337299999999999
21
-98.7374999999999972
0
LINE
8
LYELLOW
6
CONTINUOUS
10
102.3772999999999911
20
-92.2684999999999889
11
102.3772999999999911
21
-94.4474999999999909
0
LINE
8
LYELLOW
6
CONTINUOUS
10
102.3772999999999911
20
-96.5274999999999892
11
102.3772999999999911
21
-98.7064999999999912
0
LINE
8
LYELLOW
6
CONTINUOUS
10
102.4172999999999973
20
-92.2994999999999948
11
102.4172999999999973
21
-94.4474999999999909
0
LINE
8
LYELLOW
6
CONTINUOUS
10
102.4172999999999973
20
-96.5274999999999892
11
102.4172999999999973
21
-98.6754999999999995
0
LINE
8
LYELLOW
6
CONTINUOUS
10
102.4572999999999894
20
-92.3314999999999912
11
102.4572999999999894
21
-94.4474999999999909
0
LINE
8
LYELLOW
6
CONTINUOUS
10
102.4572999999999894
20
-96.5274999999999892
11
102.4572999999999894
21
-98.6434999999999889
0
LINE
8
LYELLOW
6
CONTINUOUS
10
102.4972999999999956
20
-92.3644999999999925
11
102.4972999999999956
21
-94.4474999999999909
0
LINE
8
LYELLOW
6
CONTINUOUS
10
102.4972999999999956
20
-96.5274999999999892
11
102.4972999999999956
21
-98.6105000000000018
0
LINE
8
LYELLOW
6
CONTINUOUS
10
102.5373000000000019
20
-92.3984999999999985
11
102.5373000000000019
21
-94.4474999999999909
0
LINE
8
LYELLOW
6
CONTINUOUS
10
102.5373000000000019
20
-96.5274999999999892
11
102.5373000000000019
21
-98.5764999999999958
0
LINE
8
LYELLOW
6
CONTINUOUS
10
102.5772999999999939
20
-92.4324999999999903
11
102.5772999999999939
21
-94.4474999999999909
0
LINE
8
LYELLOW
6
CONTINUOUS
10
102.5772999999999939
20
-96.5274999999999892
11
102.5772999999999939
21
-98.5424999999999898
0
LINE
8
LYELLOW
6
CONTINUOUS
10
102.6173000000000002
20
-92.4684999999999917
11
102.6173000000000002
21
-94.4474999999999909
0
LINE
8
LYELLOW
6
CONTINUOUS
10
102.6173000000000002
20
-96.5274999999999892
11
102.6173000000000002
21
-98.5065000000000026
0
LINE
8
LYELLOW
6
CONTINUOUS
10
102.6572999999999922
20
-92.5054999999999978
11
102.6572999999999922
21
-98.4694999999999965
0
LINE
8
LYELLOW
6
CONTINUOUS
10
102.6972999999999985
20
-92.5424999999999898
11
102.6972999999999985
21
-98.4324999999999903
0
LINE
8
LYELLOW
6
CONTINUOUS
10
102.7372999999999905
20
-92.5814999999999912
11
102.7372999999999905
21
-98.3934999999999889
0
LINE
8
LYELLOW
6
CONTINUOUS
10
102.7772999999999968
20
-92.6204999999999927
11
102.7772999999999968
21
-98.3545000000000016
0
LINE
8
LYELLOW
6
CONTINUOUS
10
102.8172999999999888
20
-92.6614999999999895
11
102.8172999999999888
21
-98.3134999999999906
0
LINE
8
LYELLOW
6
CONTINUOUS
10
102.8572999999999951
20
-92.7034999999999911
11
102.8572999999999951
21
-98.271499999999989
0
LINE
8
LYELLOW
6
CONTINUOUS
10
102.8973000000000013
20
-92.7464999999999975
11
102.8973000000000013
21
-98.2284999999999968
0
LINE
8
LYELLOW
6
CONTINUOUS
10
102.9372999999999934
20
-92.7914999999999992
11
102.9372999999999934
21
-98.1834999999999951
0
LINE
8
LYELLOW
6
CONTINUOUS
10
102.9772999999999996
20
-92.8365000000000009
11
102.9772999999999996
21
-98.1384999999999934
0
LINE
8
LYELLOW
6
CONTINUOUS
10
103.0172999999999917
20
-92.883499999999998
11
103.0172999999999917
21
-98.0914999999999964
0
LINE
8
LYELLOW
6
CONTINUOUS
10
103.0572999999999979
20
-92.9324999999999903
11
103.0572999999999979
21
-98.0424999999999898
0
LINE
8
LYELLOW
6
CONTINUOUS
10
103.09729999999999
20
-92.9825000000000017
11
103.09729999999999
21
-97.9924999999999926
0
LINE
8
LYELLOW
6
CONTINUOUS
10
103.1372999999999962
20
-93.0344999999999942
11
103.1372999999999962
21
-97.9405000000000001
0
LINE
8
LYELLOW
6
CONTINUOUS
10
103.1772999999999882
20
-93.0874999999999915
11
103.1772999999999882
21
-97.8874999999999886
0
LINE
8
LYELLOW
6
CONTINUOUS
10
103.2172999999999945
20
-93.1434999999999889
11
103.2172999999999945
21
-97.8314999999999912
0
LINE
8
LYELLOW
6
CONTINUOUS
10
103.2573000000000008
20
-93.200499999999991
11
103.2573000000000008
21
-97.7744999999999891
0
LINE
8
LYELLOW
6
CONTINUOUS
10
103.2972999999999928
20
-93.2604999999999933
11
103.2972999999999928
21
-97.714500000000001
0
LINE
8
LYELLOW
6
CONTINUOUS
10
103.337299999999999
20
-93.3224999999999909
11
103.337299999999999
21
-97.6524999999999892
0
LINE
8
LYELLOW
6
CONTINUOUS
10
103.3772999999999911
20
-93.3864999999999981
11
103.3772999999999911
21
-97.5884999999999962
0
LINE
8
LYELLOW
6
CONTINUOUS
10
103.4172999999999973
20
-93.4534999999999911
11
103.4172999999999973
21
-97.521499999999989
0
LINE
8
LYELLOW
6
CONTINUOUS
10
103.4572999999999894
20
-93.5234999999999985
11
103.4572999999999894
21
-97.4514999999999958
0
LINE
8
LYELLOW
6
CONTINUOUS
10
103.4972999999999956
20
-93.5974999999999966
11
103.4972999999999956
21
-97.3774999999999977
0
LINE
8
LYELLOW
6
CONTINUOUS
10
103.5373000000000019
20
-93.6744999999999948
11
103.5373000000000019
21
-97.3004999999999995
0
LINE
8
LYELLOW
6
CONTINUOUS
10
103.5772999999999939
20
-93.7565000000000026
11
103.5772999999999939
21
-97.2184999999999917
0
LINE
8
LYELLOW
6
CONTINUOUS
10
103.6173000000000002
20
-93.8434999999999917
11
103.6173000000000002
21
-97.1315000000000026
0
LINE
8
LYELLOW
6
CONTINUOUS
10
103.6572999999999922
20
-93.9354999999999905
11
103.6572999999999922
21
-97.0394999999999897
0
LINE
8
LYELLOW
6
CONTINUOUS
10
103.6972999999999985
20
-94.0344999999999942
11
103.6972999999999985
21
-96.9405000000000001
0
LINE
8
LYELLOW
6
CONTINUOUS
10
103.7372999999999905
20
-94.1414999999999935
11
103.7372999999999905
21
-96.8335000000000008
0
LINE
8
LYELLOW
6
CONTINUOUS
10
103.7772999999999968
20
-94.2595000000000027
11
103.7772999999999968
21
-96.7154999999999916
0
LINE
8
LYELLOW
6
CONTINUOUS
10
103.8172999999999888
20
-94.3904999999999887
11
103.8172999999999888
21
-96.5844999999999914
0
LINE
8
LYELLOW
6
CONTINUOUS
10
103.8572999999999951
20
-94.5404999999999944
11
103.8572999999999951
21
-96.4344999999999999
0
LINE
8
LYELLOW
6
CONTINUOUS
10
103.8973000000000013
20
-94.7194999999999965
11
103.8973000000000013
21
-96.2554999999999978
0
LINE
8
LYELLOW
6
CONTINUOUS
10
103.9372999999999934
20
-94.9544999999999959
11
103.9372999999999934
21
-96.0204999999999984
0
CIRCLE
8
LYELLOW
10
99.8572999999999951
20
-95.4874999999999972
40
4.1200000000000001
0
LINE
8
LYELLOW
6
CONTINUOUS
10
49.1400000000000006
20
-60.1174999999999997
11
54.3799999999999955
21
-60.1174999999999997
0
LINE
8
LYELLOW
6
CONTINUOUS
10
49.1400000000000006
20
-60.4544999999999959
11
49.1400000000000006
21
-60.1174999999999997
0
LINE
8
LYELLOW
6
CONTINUOUS
10
49.1400000000000006
20
-62.8574999999999946
11
49.1400000000000006
21
-62.5204999999999984
0
LINE
8
LYELLOW
6
CONTINUOUS
10
54.3799999999999955
20
-60.1174999999999997
11
54.3799999999999955
21
-60.4544999999999959
0
LINE
8
LYELLOW
6
CONTINUOUS
10
54.3799999999999955
20
-62.5204999999999984
11
54.3799999999999955
21
-62.8574999999999946
0
LINE
8
LYELLOW
6
CONTINUOUS
10
54.3799999999999955
20
-62.8574999999999946
11
49.1400000000000006
21
-62.8574999999999946
0
LINE
8
LYELLOW
6
CONTINUOUS
10
105.6799999999999926
20
-91.6774999999999949
11
105.6799999999999926
21
-99.2974999999999994
0
LINE
8
LYELLOW
6
CONTINUOUS
10
105.6799999999999926
20
-99.2974999999999994
11
115.8399999999999892
21
-99.2974999999999994
0
LINE
8
LYELLOW
6
CONTINUOUS
10
115.8399999999999892
20
-91.6774999999999949
11
105.6799999999999926
21
-91.6774999999999949
0
LINE
8
LYELLOW
6
CONTINUOUS
10
115.8399999999999892
20
-98.0274999999999892
11
105.6799999999999926
21
-98.0274999999999892
0
LINE
8
LYELLOW
6
CONTINUOUS
10
115.8399999999999892
20
-99.2974999999999994
11
115.8399999999999892
21
-91.6774999999999949
0
LINE
8
LYELLOW
6
CONTINUOUS
10
54.4899999999999949
20
-74.1174999999999926
11
61.029999999999994
21
-74.1174999999999926
0
LINE
8
LYELLOW
6
CONTINUOUS
10
54.4899999999999949
20
-74.4474999999999909
11
54.4899999999999949
21
-74.1174999999999926
0
LINE
8
LYELLOW
6
CONTINUOUS
10
54.4899999999999949
20
-76.5275000000000034
11
54.4899999999999949
21
-76.8575000000000017
0
LINE
8
LYELLOW
6
CONTINUOUS
10
54.4899999999999949
20
-76.8575000000000017
11
61.029999999999994
21
-76.8575000000000017
0
LINE
8
LYELLOW
6
CONTINUOUS
10
61.029999999999994
20
-74.1174999999999926
11
61.029999999999994
21
-74.4474999999999909
0
LINE
8
LYELLOW
6
CONTINUOUS
10
61.029999999999994
20
-76.8575000000000017
11
61.029999999999994
21
-76.5275000000000034
0
LINE
8
LYELLOW
6
CONTINUOUS
10
69.5099999999999909
20
-71.6174999999999926
11
69.5099999999999909
21
-79.3575000000000017
0
LINE
8
LYELLOW
6
CONTINUOUS
10
69.5099999999999909
20
-79.3575000000000017
11
74.0099999999999909
21
-79.3575000000000017
0
LINE
8
LYELLOW
6
CONTINUOUS
10
70.7599999999999909
20
-71.6174999999999926
11
69.5099999999999909
21
-71.6174999999999926
0
LINE
8
LYELLOW
6
CONTINUOUS
10
74.0099999999999909
20
-71.6174999999999926
11
72.7599999999999909
21
-71.6174999999999926
0
LINE
8
LYELLOW
6
CONTINUOUS
10
74.0099999999999909
20
-79.3575000000000017
11
74.0099999999999909
21
-71.6174999999999926
0
ARC
8
LYELLOW
10
71.7599999999999909
20
-71.6174999999999926
40
1.
50
-180.00000000
51
-0.00000000
0
LINE
8
LYELLOW
6
CONTINUOUS
10
56.3900000000000006
20
-87.8674999999999926
11
91.1299999999999955
21
-87.8674999999999926
0
LINE
8
LYELLOW
6
CONTINUOUS
10
91.1299999999999955
20
-87.8674999999999926
11
91.1299999999999955
21
-103.1075000000000017
0
LINE
8
LYELLOW
6
CONTINUOUS
10
91.1299999999999955
20
-103.1075000000000017
11
56.3900000000000006
21
-103.1075000000000017
0
LINE
8
LYELLOW
6
CONTINUOUS
10
56.3900000000000006
20
-103.1075000000000017
11
56.3900000000000006
21
-87.8674999999999926
0
LINE
8
LYELLOW
6
CONTINUOUS
10
59.1400000000000006
20
-60.1174999999999997
11
64.3799999999999955
21
-60.1174999999999997
0
LINE
8
LYELLOW
6
CONTINUOUS
10
59.1400000000000006
20
-60.4544999999999959
11
59.1400000000000006
21
-60.1174999999999997
0
LINE
8
LYELLOW
6
CONTINUOUS
10
59.1400000000000006
20
-62.8574999999999946
11
59.1400000000000006
21
-62.5204999999999984
0
LINE
8
LYELLOW
6
CONTINUOUS
10
64.3799999999999955
20
-60.1174999999999997
11
64.3799999999999955
21
-60.4544999999999959
0
LINE
8
LYELLOW
6
CONTINUOUS
10
64.3799999999999955
20
-62.5204999999999984
11
64.3799999999999955
21
-62.8574999999999946
0
LINE
8
LYELLOW
6
CONTINUOUS
10
64.3799999999999955
20
-62.8574999999999946
11
59.1400000000000006
21
-62.8574999999999946
0
LINE
8
LYELLOW
6
CONTINUOUS
10
30.4899999999999984
20
-48.1174999999999997
11
37.0300000000000011
21
-48.1174999999999997
0
LINE
8
LYELLOW
6
CONTINUOUS
10
30.4899999999999984
20
-48.447499999999998
11
30.4899999999999984
21
-48.1174999999999997
0
LINE
8
LYELLOW
6
CONTINUOUS
10
30.4899999999999984
20
-50.5274999999999963
11
30.4899999999999984
21
-50.8574999999999946
0
LINE
8
LYELLOW
6
CONTINUOUS
10
30.4899999999999984
20
-50.8574999999999946
11
37.0300000000000011
21
-50.8574999999999946
0
LINE
8
LYELLOW
6
CONTINUOUS
10
37.0300000000000011
20
-48.1174999999999997
11
37.0300000000000011
21
-48.447499999999998
0
LINE
8
LYELLOW
6
CONTINUOUS
10
37.0300000000000011
20
-50.8574999999999946
11
37.0300000000000011
21
-50.5274999999999963
0
LINE
8
LYELLOW
6
CONTINUOUS
10
54.9899999999999949
20
-49.4874999999999972
11
55.6400000000000006
21
-49.4874999999999972
0
LINE
8
LYELLOW
6
CONTINUOUS
10
56.2399999999999949
20
-48.3674999999999997
11
56.2399999999999949
21
-50.6074999999999946
0
LINE
8
LYELLOW
6
CONTINUOUS
10
56.3599999999999994
20
-48.3674999999999997
11
56.3599999999999994
21
-50.6074999999999946
0
LINE
8
LYELLOW
6
CONTINUOUS
10
56.4799999999999969
20
-48.3674999999999997
11
56.4799999999999969
21
-50.6074999999999946
0
LINE
8
LYELLOW
6
CONTINUOUS
10
60.529999999999994
20
-49.4874999999999972
11
59.8799999999999955
21
-49.4874999999999972
0
LINE
8
LYELLOW
6
CONTINUOUS
10
55.6400000000000006
20
-48.3674999999999997
11
59.8799999999999955
21
-48.3674999999999997
0
LINE
8
LYELLOW
6
CONTINUOUS
10
59.8799999999999955
20
-48.3674999999999997
11
59.8799999999999955
21
-50.6074999999999946
0
LINE
8
LYELLOW
6
CONTINUOUS
10
59.8799999999999955
20
-50.6074999999999946
11
55.6400000000000006
21
-50.6074999999999946
0
LINE
8
LYELLOW
6
CONTINUOUS
10
55.6400000000000006
20
-50.6074999999999946
11
55.6400000000000006
21
-48.3674999999999997
0
LINE
8
LYELLOW
6
CONTINUOUS
10
94.019999999999996
20
-61.4874999999999972
11
95.039999999999992
21
-61.4874999999999972
0
LINE
8
LYELLOW
6
CONTINUOUS
10
95.8199999999999932
20
-60.0174999999999983
11
95.8199999999999932
21
-62.957499999999996
0
LINE
8
LYELLOW
6
CONTINUOUS
10
95.9399999999999977
20
-60.0174999999999983
11
95.9399999999999977
21
-62.957499999999996
0
LINE
8
LYELLOW
6
CONTINUOUS
10
96.0600000000000023
20
-60.0174999999999983
11
96.0600000000000023
21
-62.957499999999996
0
LINE
8
LYELLOW
6
CONTINUOUS
10
101.5
20
-61.4874999999999972
11
100.4799999999999898
21
-61.4874999999999972
0
LINE
8
LYELLOW
6
CONTINUOUS
10
95.039999999999992
20
-60.0174999999999983
11
100.4799999999999898
21
-60.0174999999999983
0
LINE
8
LYELLOW
6
CONTINUOUS
10
100.4799999999999898
20
-60.0174999999999983
11
100.4799999999999898
21
-62.957499999999996
0
LINE
8
LYELLOW
6
CONTINUOUS
10
100.4799999999999898
20
-62.957499999999996
11
95.039999999999992
21
-62.957499999999996
0
LINE
8
LYELLOW
6
CONTINUOUS
10
95.039999999999992
20
-62.957499999999996
11
95.039999999999992
21
-60.0174999999999983
0
LINE
8
WHITE
6
CONTINUOUS
10
20.
20
-20.
11
124.
21
-20.
0
LINE
8
WHITE
6
CONTINUOUS
10
124.
20
-20.
11
124.
21
-124.
0
LINE
8
WHITE
6
CONTINUOUS
10
124.
20
-124.
11
20.
21
-124.
0
LINE
8
WHITE
6
CONTINUOUS
10
20.
20
-124.
11
20.
21
-20.
  0
ENDSEC
  0
EOF
