  0
SECTION
  2
HEADER
  9
$ANGBASE
  50
0.0
  9
$ANGDIR
  70
1
  9
$MEASUREMENT
  70
1
  0
ENDSEC
  0
SECTION
  2
TABLES
  0
TABLE
  2
LTYPE
  70
4
  0
LTYPE
  5
40F
  2
CONTINUOUS
  70
0
  3
Solid line
  72
65
  73
0
  40
0.0
  0
LTYPE
  5
410
  2
DASHDOT
 70
0
  3
Dash Dot ____ _ ____ _
 72
65
 73
4
 40
2.0
 49
1.25
 49
-0.25
 49
0.25
 49
-0.25
  0
LTYPE
  5
411
  2
DASHED
 70
0
  3
Dashed __ __ __ __ __
 72
65
 73
2
 40
0.75
 49
0.5
 49
-0.25
  0
LTYPE
  5
43B
  2
DOTTED
 70
0
  3
Dotted .  .  .  .
 72
65
 73
2
 40
0.2
 49
0.0
 49
-0.2
  0
ENDTAB
  0
TABLE
  2
STYLE
  70
4
  0
STYLE
  2
KICAD
  70
0
  40
0
  41
1
  42
1
  50
0
  71
0
  3
isocp.shx
  0
STYLE
  2
KICADB
  70
0
  40
0
  41
1
  42
1
  50
0
  71
0
  3
isocp.shx
  0
STYLE
  2
KICADI
  70
0
  40
0
  41
1
  42
1
  50
15
  71
0
  3
isocp.shx
  0
STYLE
  2
KICADBI
  70
0
  40
0
  41
1
  42
1
  50
15
  71
0
  3
isocp.shx
  0
ENDTAB
  0
TABLE
  2
LAYER
  70
35
  0
LAYER
  2
BLACK
  70
0
  62
7
  6
CONTINUOUS
  0
LAYER
  2
GRAY1
  70
0
  62
251
  6
CONTINUOUS
  0
LAYER
  2
GRAY2
  70
0
  62
8
  6
CONTINUOUS
  0
LAYER
  2
GRAY3
  70
0
  62
9
  6
CONTINUOUS
  0
LAYER
  2
WHITE
  70
0
  62
7
  6
CONTINUOUS
  0
LAYER
  2
LYELLOW
  70
0
  62
51
  6
CONTINUOUS
  0
LAYER
  2
LORANGE
  70
0
  62
41
  6
CONTINUOUS
  0
LAYER
  2
BLUE1
  70
0
  62
178
  6
CONTINUOUS
  0
LAYER
  2
GREEN1
  70
0
  62
98
  6
CONTINUOUS
  0
LAYER
  2
CYAN1
  70
0
  62
138
  6
CONTINUOUS
  0
LAYER
  2
RED1
  70
0
  62
18
  6
CONTINUOUS
  0
LAYER
  2
MAGENTA1
  70
0
  62
228
  6
CONTINUOUS
  0
LAYER
  2
BROWN1
  70
0
  62
58
  6
CONTINUOUS
  0
LAYER
  2
ORANGE1
  70
0
  62
34
  6
CONTINUOUS
  0
LAYER
  2
BLUE2
  70
0
  62
5
  6
CONTINUOUS
  0
LAYER
  2
GREEN2
  70
0
  62
3
  6
CONTINUOUS
  0
LAYER
  2
CYAN2
  70
0
  62
4
  6
CONTINUOUS
  0
LAYER
  2
RED2
  70
0
  62
1
  6
CONTINUOUS
  0
LAYER
  2
MAGENTA2
  70
0
  62
6
  6
CONTINUOUS
  0
LAYER
  2
BROWN2
  70
0
  62
54
  6
CONTINUOUS
  0
LAYER
  2
ORANGE2
  70
0
  62
42
  6
CONTINUOUS
  0
LAYER
  2
BLUE3
  70
0
  62
171
  6
CONTINUOUS
  0
LAYER
  2
GREEN3
  70
0
  62
91
  6
CONTINUOUS
  0
LAYER
  2
CYAN3
  70
0
  62
131
  6
CONTINUOUS
  0
LAYER
  2
RED3
  70
0
  62
11
  6
CONTINUOUS
  0
LAYER
  2
MAGENTA3
  70
0
  62
221
  6
CONTINUOUS
  0
LAYER
  2
YELLOW3
  70
0
  62
2
  6
CONTINUOUS
  0
LAYER
  2
ORANGE3
  70
0
  62
32
  6
CONTINUOUS
  0
LAYER
  2
BLUE4
  70
0
  62
5
  6
CONTINUOUS
  0
LAYER
  2
GREEN4
  70
0
  62
3
  6
CONTINUOUS
  0
LAYER
  2
CYAN4
  70
0
  62
4
  6
CONTINUOUS
  0
LAYER
  2
RED4
  70
0
  62
1
  6
CONTINUOUS
  0
LAYER
  2
MAGENTA4
  70
0
  62
6
  6
CONTINUOUS
  0
LAYER
  2
YELLOW4
  70
0
  62
2
  6
CONTINUOUS
  0
LAYER
  2
ORANGE4
  70
0
  62
40
  6
CONTINUOUS
  0
ENDTAB
  0
ENDSEC
  0
SECTION
  2
ENTITIES
0
LINE
8
WHITE
6
CONTINUOUS
10
20.
20
-20.
11
124.
21
-20.
0
LINE
8
WHITE
6
CONTINUOUS
10
124.
20
-20.
11
124.
21
-124.
0
LINE
8
WHITE
6
CONTINUOUS
10
124.
20
-124.
11
20.
21
-124.
0
LINE
8
WHITE
6
CONTINUOUS
10
20.
20
-124.
11
20.
21
-20.
0
CIRCLE
8
BLACK
10
43.6899999999999977
20
-54.1774999999999949
40
0.4
0
CIRCLE
8
BLACK
10
43.6899999999999977
20
-56.717499999999994
40
0.4
0
CIRCLE
8
BLACK
10
43.6899999999999977
20
-59.2575000000000003
40
0.4
0
CIRCLE
8
BLACK
10
43.6899999999999977
20
-61.7974999999999994
40
0.4
0
CIRCLE
8
BLACK
10
51.3099999999999952
20
-61.7974999999999994
40
0.4
0
CIRCLE
8
BLACK
10
51.3099999999999952
20
-59.2575000000000003
40
0.4
0
CIRCLE
8
BLACK
10
51.3099999999999952
20
-56.717499999999994
40
0.4
0
CIRCLE
8
BLACK
10
51.3099999999999952
20
-54.1774999999999949
40
0.4
0
CIRCLE
8
BLACK
10
65.84729999999999
20
-28.9874999999999972
40
0.4
0
CIRCLE
8
BLACK
10
69.34729999999999
20
-28.9874999999999972
40
0.4
0
CIRCLE
8
BLACK
10
82.039999999999992
20
-41.9824999999999946
40
0.4
0
CIRCLE
8
BLACK
10
79.5
20
-41.9824999999999946
40
0.4
0
CIRCLE
8
BLACK
10
76.9599999999999937
20
-41.9824999999999946
40
0.4
0
CIRCLE
8
BLACK
10
72.
20
-57.9874999999999972
40
0.4
0
CIRCLE
8
BLACK
10
77.
20
-57.9874999999999972
40
0.4
0
CIRCLE
8
BLACK
10
43.5
20
-46.7974999999999994
40
0.4
0
CIRCLE
8
BLACK
10
43.5
20
-39.1774999999999949
40
0.4
0
CIRCLE
8
BLACK
10
59.5
20
-46.7974999999999994
40
0.4
0
CIRCLE
8
BLACK
10
59.5
20
-39.1774999999999949
40
0.4
0
CIRCLE
8
BLACK
10
75.6899999999999977
20
-89.3674999999999926
40
0.4
0
CIRCLE
8
BLACK
10
75.6899999999999977
20
-91.9074999999999989
40
0.4
0
CIRCLE
8
BLACK
10
75.6899999999999977
20
-94.4474999999999909
40
0.4
0
CIRCLE
8
BLACK
10
75.6899999999999977
20
-96.9874999999999972
40
0.4
0
CIRCLE
8
BLACK
10
75.6899999999999977
20
-99.5274999999999892
40
0.4
0
CIRCLE
8
BLACK
10
75.6899999999999977
20
-102.0674999999999955
40
0.4
0
CIRCLE
8
BLACK
10
75.6899999999999977
20
-104.6075000000000017
40
0.4
0
CIRCLE
8
BLACK
10
83.3100000000000023
20
-104.6075000000000017
40
0.4
0
CIRCLE
8
BLACK
10
83.3100000000000023
20
-102.0674999999999955
40
0.4
0
CIRCLE
8
BLACK
10
83.3100000000000023
20
-99.5274999999999892
40
0.4
0
CIRCLE
8
BLACK
10
83.3100000000000023
20
-96.9874999999999972
40
0.4
0
CIRCLE
8
BLACK
10
83.3100000000000023
20
-94.4474999999999909
40
0.4
0
CIRCLE
8
BLACK
10
83.3100000000000023
20
-91.9074999999999989
40
0.4
0
CIRCLE
8
BLACK
10
83.3100000000000023
20
-89.3674999999999926
40
0.4
0
CIRCLE
8
BLACK
10
77.84729999999999
20
-28.9874999999999972
40
0.4
0
CIRCLE
8
BLACK
10
81.34729999999999
20
-28.9874999999999972
40
0.4
0
CIRCLE
8
BLACK
10
87.
20
-28.9874999999999972
40
0.4
0
CIRCLE
8
BLACK
10
92.
20
-28.9874999999999972
40
0.4
0
CIRCLE
8
BLACK
10
43.7324999999999946
20
-71.7299999999999898
40
0.4
0
CIRCLE
8
BLACK
10
43.7324999999999946
20
-74.269999999999996
40
0.4
0
CIRCLE
8
BLACK
10
51.3524999999999991
20
-74.269999999999996
40
0.4
0
CIRCLE
8
BLACK
10
51.3524999999999991
20
-71.7299999999999898
40
0.4
0
CIRCLE
8
BLACK
10
56.5
20
-57.9874999999999972
40
0.5
0
CIRCLE
8
BLACK
10
66.5
20
-57.9874999999999972
40
0.5
0
CIRCLE
8
BLACK
10
98.84729999999999
20
-104.9874999999999972
40
0.4
0
CIRCLE
8
BLACK
10
102.34729999999999
20
-104.9874999999999972
40
0.4
0
CIRCLE
8
BLACK
10
59.5
20
-75.7974999999999994
40
0.4
0
CIRCLE
8
BLACK
10
59.5
20
-68.1774999999999949
40
0.4
0
CIRCLE
8
BLACK
10
101.5
20
-95.7974999999999994
40
0.4
0
CIRCLE
8
BLACK
10
101.5
20
-88.1774999999999949
40
0.4
0
CIRCLE
8
BLACK
10
95.5
20
-75.7974999999999994
40
0.4
0
CIRCLE
8
BLACK
10
95.5
20
-68.1774999999999949
40
0.4
0
CIRCLE
8
BLACK
10
88.6899999999999977
20
-88.9874999999999972
40
0.4
0
CIRCLE
8
BLACK
10
96.3100000000000023
20
-88.9874999999999972
40
0.4
0
CIRCLE
8
BLACK
10
67.6899999999999977
20
-70.4474999999999909
40
0.4
0
CIRCLE
8
BLACK
10
67.6899999999999977
20
-72.9874999999999972
40
0.4
0
CIRCLE
8
BLACK
10
67.6899999999999977
20
-75.5275000000000034
40
0.4
0
CIRCLE
8
BLACK
10
75.3100000000000023
20
-75.5275000000000034
40
0.4
0
CIRCLE
8
BLACK
10
75.3100000000000023
20
-72.9874999999999972
40
0.4
0
CIRCLE
8
BLACK
10
75.3100000000000023
20
-70.4474999999999909
40
0.4
0
CIRCLE
8
BLACK
10
33.3999999999999986
20
-101.9874999999999972
40
1.
0
CIRCLE
8
BLACK
10
61.5999999999999943
20
-101.9874999999999972
40
1.
0
CIRCLE
8
BLACK
10
103.4200000000000017
20
-57.9874999999999972
40
0.5499999999999999
0
CIRCLE
8
BLACK
10
113.5799999999999983
20
-57.9874999999999972
40
0.5499999999999999
0
CIRCLE
8
BLACK
10
105.9599999999999937
20
-43.9375
40
0.5499999999999999
0
CIRCLE
8
BLACK
10
108.5
20
-43.9375
40
0.5499999999999999
0
CIRCLE
8
BLACK
10
111.039999999999992
20
-43.9375
40
0.5499999999999999
0
CIRCLE
8
BLACK
10
42.9600000000000009
20
-29.9375
40
0.5499999999999999
0
CIRCLE
8
BLACK
10
45.5
20
-29.9375
40
0.5499999999999999
0
CIRCLE
8
BLACK
10
48.0399999999999991
20
-29.9375
40
0.5499999999999999
0
CIRCLE
8
BLACK
10
67.5
20
-46.7974999999999994
40
0.4
0
CIRCLE
8
BLACK
10
67.5
20
-39.1774999999999949
40
0.4
0
CIRCLE
8
BLACK
10
83.5
20
-75.7974999999999994
40
0.4
0
CIRCLE
8
BLACK
10
83.5
20
-68.1774999999999949
40
0.4
0
CIRCLE
8
BLACK
10
55.8472999999999971
20
-28.9874999999999972
40
0.4
0
CIRCLE
8
BLACK
10
59.3472999999999971
20
-28.9874999999999972
40
0.4
0
CIRCLE
8
BLACK
10
31.5
20
-44.2624999999999957
40
0.5
0
CIRCLE
8
BLACK
10
31.5
20
-41.7224999999999966
40
0.5
0
CIRCLE
8
BLACK
10
34.0399999999999991
20
-58.9874999999999972
40
0.76
0
CIRCLE
8
BLACK
10
28.9599999999999973
20
-58.9874999999999972
40
0.76
0
CIRCLE
8
BLACK
10
51.5
20
-46.7974999999999994
40
0.4
0
CIRCLE
8
BLACK
10
51.5
20
-39.1774999999999949
40
0.4
0
CIRCLE
8
BLACK
10
83.
20
-57.9874999999999972
40
0.4
0
CIRCLE
8
BLACK
10
88.
20
-57.9874999999999972
40
0.4
0
CIRCLE
8
BLACK
10
108.5
20
-95.7974999999999994
40
0.4
0
CIRCLE
8
BLACK
10
108.5
20
-88.1774999999999949
40
0.4
0
CIRCLE
8
BLACK
10
109.9599999999999937
20
-104.9874999999999972
40
0.76
0
CIRCLE
8
BLACK
10
115.039999999999992
20
-104.9874999999999972
40
0.76
0
CIRCLE
8
BLACK
10
88.
20
-100.9874999999999972
40
0.4
0
CIRCLE
8
BLACK
10
93.
20
-100.9874999999999972
40
0.4
  0
ENDSEC
  0
EOF
