  0
SECTION
  2
HEADER
  9
$ANGBASE
  50
0.0
  9
$ANGDIR
  70
1
  9
$MEASUREMENT
  70
1
  0
ENDSEC
  0
SECTION
  2
TABLES
  0
TABLE
  2
LTYPE
  70
4
  0
LTYPE
  5
40F
  2
CONTINUOUS
  70
0
  3
Solid line
  72
65
  73
0
  40
0.0
  0
LTYPE
  5
410
  2
DASHDOT
 70
0
  3
Dash Dot ____ _ ____ _
 72
65
 73
4
 40
2.0
 49
1.25
 49
-0.25
 49
0.25
 49
-0.25
  0
LTYPE
  5
411
  2
DASHED
 70
0
  3
Dashed __ __ __ __ __
 72
65
 73
2
 40
0.75
 49
0.5
 49
-0.25
  0
LTYPE
  5
43B
  2
DOTTED
 70
0
  3
Dotted .  .  .  .
 72
65
 73
2
 40
0.2
 49
0.0
 49
-0.2
  0
ENDTAB
  0
TABLE
  2
STYLE
  70
4
  0
STYLE
  2
KICAD
  70
0
  40
0
  41
1
  42
1
  50
0
  71
0
  3
isocp.shx
  0
STYLE
  2
KICADB
  70
0
  40
0
  41
1
  42
1
  50
0
  71
0
  3
isocp.shx
  0
STYLE
  2
KICADI
  70
0
  40
0
  41
1
  42
1
  50
15
  71
0
  3
isocp.shx
  0
STYLE
  2
KICADBI
  70
0
  40
0
  41
1
  42
1
  50
15
  71
0
  3
isocp.shx
  0
ENDTAB
  0
TABLE
  2
LAYER
  70
35
  0
LAYER
  2
BLACK
  70
0
  62
7
  6
CONTINUOUS
  0
LAYER
  2
GRAY1
  70
0
  62
251
  6
CONTINUOUS
  0
LAYER
  2
GRAY2
  70
0
  62
8
  6
CONTINUOUS
  0
LAYER
  2
GRAY3
  70
0
  62
9
  6
CONTINUOUS
  0
LAYER
  2
WHITE
  70
0
  62
7
  6
CONTINUOUS
  0
LAYER
  2
LYELLOW
  70
0
  62
51
  6
CONTINUOUS
  0
LAYER
  2
LORANGE
  70
0
  62
41
  6
CONTINUOUS
  0
LAYER
  2
BLUE1
  70
0
  62
178
  6
CONTINUOUS
  0
LAYER
  2
GREEN1
  70
0
  62
98
  6
CONTINUOUS
  0
LAYER
  2
CYAN1
  70
0
  62
138
  6
CONTINUOUS
  0
LAYER
  2
RED1
  70
0
  62
18
  6
CONTINUOUS
  0
LAYER
  2
MAGENTA1
  70
0
  62
228
  6
CONTINUOUS
  0
LAYER
  2
BROWN1
  70
0
  62
58
  6
CONTINUOUS
  0
LAYER
  2
ORANGE1
  70
0
  62
34
  6
CONTINUOUS
  0
LAYER
  2
BLUE2
  70
0
  62
5
  6
CONTINUOUS
  0
LAYER
  2
GREEN2
  70
0
  62
3
  6
CONTINUOUS
  0
LAYER
  2
CYAN2
  70
0
  62
4
  6
CONTINUOUS
  0
LAYER
  2
RED2
  70
0
  62
1
  6
CONTINUOUS
  0
LAYER
  2
MAGENTA2
  70
0
  62
6
  6
CONTINUOUS
  0
LAYER
  2
BROWN2
  70
0
  62
54
  6
CONTINUOUS
  0
LAYER
  2
ORANGE2
  70
0
  62
42
  6
CONTINUOUS
  0
LAYER
  2
BLUE3
  70
0
  62
171
  6
CONTINUOUS
  0
LAYER
  2
GREEN3
  70
0
  62
91
  6
CONTINUOUS
  0
LAYER
  2
CYAN3
  70
0
  62
131
  6
CONTINUOUS
  0
LAYER
  2
RED3
  70
0
  62
11
  6
CONTINUOUS
  0
LAYER
  2
MAGENTA3
  70
0
  62
221
  6
CONTINUOUS
  0
LAYER
  2
YELLOW3
  70
0
  62
2
  6
CONTINUOUS
  0
LAYER
  2
ORANGE3
  70
0
  62
32
  6
CONTINUOUS
  0
LAYER
  2
BLUE4
  70
0
  62
5
  6
CONTINUOUS
  0
LAYER
  2
GREEN4
  70
0
  62
3
  6
CONTINUOUS
  0
LAYER
  2
CYAN4
  70
0
  62
4
  6
CONTINUOUS
  0
LAYER
  2
RED4
  70
0
  62
1
  6
CONTINUOUS
  0
LAYER
  2
MAGENTA4
  70
0
  62
6
  6
CONTINUOUS
  0
LAYER
  2
YELLOW4
  70
0
  62
2
  6
CONTINUOUS
  0
LAYER
  2
ORANGE4
  70
0
  62
40
  6
CONTINUOUS
  0
ENDTAB
  0
ENDSEC
  0
SECTION
  2
ENTITIES
0
LINE
8
LYELLOW
6
CONTINUOUS
10
79.4306330000000003
20
-24.0970799999999983
11
79.3830140000000029
21
-24.1447000000000003
0
LINE
8
LYELLOW
6
CONTINUOUS
10
79.3830140000000029
20
-24.1447000000000003
11
79.2401569999999964
21
-24.1923189999999977
0
LINE
8
LYELLOW
6
CONTINUOUS
10
79.2401569999999964
20
-24.1923189999999977
11
79.1449190000000016
21
-24.1923189999999977
0
LINE
8
LYELLOW
6
CONTINUOUS
10
79.1449190000000016
20
-24.1923189999999977
11
79.0020619999999951
21
-24.1447000000000003
0
LINE
8
LYELLOW
6
CONTINUOUS
10
79.0020619999999951
20
-24.1447000000000003
11
78.9068240000000003
21
-24.0494609999999973
0
LINE
8
LYELLOW
6
CONTINUOUS
10
78.9068240000000003
20
-24.0494609999999973
11
78.8592050000000029
21
-23.9542229999999989
0
LINE
8
LYELLOW
6
CONTINUOUS
10
78.8592050000000029
20
-23.9542229999999989
11
78.8115859999999913
21
-23.7637469999999986
0
LINE
8
LYELLOW
6
CONTINUOUS
10
78.8115859999999913
20
-23.7637469999999986
11
78.8115859999999913
21
-23.6208899999999993
0
LINE
8
LYELLOW
6
CONTINUOUS
10
78.8115859999999913
20
-23.6208899999999993
11
78.8592050000000029
21
-23.430413999999999
0
LINE
8
LYELLOW
6
CONTINUOUS
10
78.8592050000000029
20
-23.430413999999999
11
78.9068240000000003
21
-23.3351760000000006
0
LINE
8
LYELLOW
6
CONTINUOUS
10
78.9068240000000003
20
-23.3351760000000006
11
79.0020619999999951
21
-23.2399379999999987
0
LINE
8
LYELLOW
6
CONTINUOUS
10
79.0020619999999951
20
-23.2399379999999987
11
79.1449190000000016
21
-23.1923189999999977
0
LINE
8
LYELLOW
6
CONTINUOUS
10
79.1449190000000016
20
-23.1923189999999977
11
79.2401569999999964
21
-23.1923189999999977
0
LINE
8
LYELLOW
6
CONTINUOUS
10
79.2401569999999964
20
-23.1923189999999977
11
79.3830140000000029
21
-23.2399379999999987
0
LINE
8
LYELLOW
6
CONTINUOUS
10
79.3830140000000029
20
-23.2399379999999987
11
79.4306330000000003
21
-23.2875569999999996
0
LINE
8
LYELLOW
6
CONTINUOUS
10
80.0020619999999951
20
-23.6208899999999993
11
79.9068240000000003
21
-23.5732709999999983
0
LINE
8
LYELLOW
6
CONTINUOUS
10
79.9068240000000003
20
-23.5732709999999983
11
79.8592050000000029
21
-23.5256519999999973
0
LINE
8
LYELLOW
6
CONTINUOUS
10
79.8592050000000029
20
-23.5256519999999973
11
79.8115859999999913
21
-23.430413999999999
0
LINE
8
LYELLOW
6
CONTINUOUS
10
79.8115859999999913
20
-23.430413999999999
11
79.8115859999999913
21
-23.382794999999998
0
LINE
8
LYELLOW
6
CONTINUOUS
10
79.8115859999999913
20
-23.382794999999998
11
79.8592050000000029
21
-23.2875569999999996
0
LINE
8
LYELLOW
6
CONTINUOUS
10
79.8592050000000029
20
-23.2875569999999996
11
79.9068240000000003
21
-23.2399379999999987
0
LINE
8
LYELLOW
6
CONTINUOUS
10
79.9068240000000003
20
-23.2399379999999987
11
80.0020619999999951
21
-23.1923189999999977
0
LINE
8
LYELLOW
6
CONTINUOUS
10
80.0020619999999951
20
-23.1923189999999977
11
80.192537999999999
21
-23.1923189999999977
0
LINE
8
LYELLOW
6
CONTINUOUS
10
80.192537999999999
20
-23.1923189999999977
11
80.2877759999999938
21
-23.2399379999999987
0
LINE
8
LYELLOW
6
CONTINUOUS
10
80.2877759999999938
20
-23.2399379999999987
11
80.3353949999999912
21
-23.2875569999999996
0
LINE
8
LYELLOW
6
CONTINUOUS
10
80.3353949999999912
20
-23.2875569999999996
11
80.3830140000000029
21
-23.382794999999998
0
LINE
8
LYELLOW
6
CONTINUOUS
10
80.3830140000000029
20
-23.382794999999998
11
80.3830140000000029
21
-23.430413999999999
0
LINE
8
LYELLOW
6
CONTINUOUS
10
80.3830140000000029
20
-23.430413999999999
11
80.3353949999999912
21
-23.5256519999999973
0
LINE
8
LYELLOW
6
CONTINUOUS
10
80.3353949999999912
20
-23.5256519999999973
11
80.2877759999999938
21
-23.5732709999999983
0
LINE
8
LYELLOW
6
CONTINUOUS
10
80.2877759999999938
20
-23.5732709999999983
11
80.192537999999999
21
-23.6208899999999993
0
LINE
8
LYELLOW
6
CONTINUOUS
10
80.192537999999999
20
-23.6208899999999993
11
80.0020619999999951
21
-23.6208899999999993
0
LINE
8
LYELLOW
6
CONTINUOUS
10
80.0020619999999951
20
-23.6208899999999993
11
79.9068240000000003
21
-23.6685090000000002
0
LINE
8
LYELLOW
6
CONTINUOUS
10
79.9068240000000003
20
-23.6685090000000002
11
79.8592050000000029
21
-23.7161279999999977
0
LINE
8
LYELLOW
6
CONTINUOUS
10
79.8592050000000029
20
-23.7161279999999977
11
79.8115859999999913
21
-23.8113659999999996
0
LINE
8
LYELLOW
6
CONTINUOUS
10
79.8115859999999913
20
-23.8113659999999996
11
79.8115859999999913
21
-24.0018419999999999
0
LINE
8
LYELLOW
6
CONTINUOUS
10
79.8115859999999913
20
-24.0018419999999999
11
79.8592050000000029
21
-24.0970799999999983
0
LINE
8
LYELLOW
6
CONTINUOUS
10
79.8592050000000029
20
-24.0970799999999983
11
79.9068240000000003
21
-24.1447000000000003
0
LINE
8
LYELLOW
6
CONTINUOUS
10
79.9068240000000003
20
-24.1447000000000003
11
80.0020619999999951
21
-24.1923189999999977
0
LINE
8
LYELLOW
6
CONTINUOUS
10
80.0020619999999951
20
-24.1923189999999977
11
80.192537999999999
21
-24.1923189999999977
0
LINE
8
LYELLOW
6
CONTINUOUS
10
80.192537999999999
20
-24.1923189999999977
11
80.2877759999999938
21
-24.1447000000000003
0
LINE
8
LYELLOW
6
CONTINUOUS
10
80.2877759999999938
20
-24.1447000000000003
11
80.3353949999999912
21
-24.0970799999999983
0
LINE
8
LYELLOW
6
CONTINUOUS
10
80.3353949999999912
20
-24.0970799999999983
11
80.3830140000000029
21
-24.0018419999999999
0
LINE
8
LYELLOW
6
CONTINUOUS
10
80.3830140000000029
20
-24.0018419999999999
11
80.3830140000000029
21
-23.8113659999999996
0
LINE
8
LYELLOW
6
CONTINUOUS
10
80.3830140000000029
20
-23.8113659999999996
11
80.3353949999999912
21
-23.7161279999999977
0
LINE
8
LYELLOW
6
CONTINUOUS
10
80.3353949999999912
20
-23.7161279999999977
11
80.2877759999999938
21
-23.6685090000000002
0
LINE
8
LYELLOW
6
CONTINUOUS
10
80.2877759999999938
20
-23.6685090000000002
11
80.192537999999999
21
-23.6208899999999993
0
LINE
8
LYELLOW
6
CONTINUOUS
10
61.3333329999999961
20
-55.8470799999999983
11
61.2857139999999987
21
-55.8947000000000003
0
LINE
8
LYELLOW
6
CONTINUOUS
10
61.2857139999999987
20
-55.8947000000000003
11
61.1428569999999993
21
-55.9423189999999977
0
LINE
8
LYELLOW
6
CONTINUOUS
10
61.1428569999999993
20
-55.9423189999999977
11
61.0476189999999974
21
-55.9423189999999977
0
LINE
8
LYELLOW
6
CONTINUOUS
10
61.0476189999999974
20
-55.9423189999999977
11
60.9047619999999981
21
-55.8947000000000003
0
LINE
8
LYELLOW
6
CONTINUOUS
10
60.9047619999999981
20
-55.8947000000000003
11
60.8095239999999961
21
-55.7994610000000009
0
LINE
8
LYELLOW
6
CONTINUOUS
10
60.8095239999999961
20
-55.7994610000000009
11
60.7619049999999987
21
-55.7042229999999989
0
LINE
8
LYELLOW
6
CONTINUOUS
10
60.7619049999999987
20
-55.7042229999999989
11
60.7142859999999942
21
-55.5137469999999951
0
LINE
8
LYELLOW
6
CONTINUOUS
10
60.7142859999999942
20
-55.5137469999999951
11
60.7142859999999942
21
-55.3708899999999957
0
LINE
8
LYELLOW
6
CONTINUOUS
10
60.7142859999999942
20
-55.3708899999999957
11
60.7619049999999987
21
-55.180413999999999
0
LINE
8
LYELLOW
6
CONTINUOUS
10
60.7619049999999987
20
-55.180413999999999
11
60.8095239999999961
21
-55.085175999999997
0
LINE
8
LYELLOW
6
CONTINUOUS
10
60.8095239999999961
20
-55.085175999999997
11
60.9047619999999981
21
-54.9899379999999951
0
LINE
8
LYELLOW
6
CONTINUOUS
10
60.9047619999999981
20
-54.9899379999999951
11
61.0476189999999974
21
-54.9423189999999977
0
LINE
8
LYELLOW
6
CONTINUOUS
10
61.0476189999999974
20
-54.9423189999999977
11
61.1428569999999993
21
-54.9423189999999977
0
LINE
8
LYELLOW
6
CONTINUOUS
10
61.1428569999999993
20
-54.9423189999999977
11
61.2857139999999987
21
-54.9899379999999951
0
LINE
8
LYELLOW
6
CONTINUOUS
10
61.2857139999999987
20
-54.9899379999999951
11
61.3333329999999961
21
-55.0375569999999996
0
LINE
8
LYELLOW
6
CONTINUOUS
10
62.1904759999999968
20
-54.9423189999999977
11
62.
21
-54.9423189999999977
0
LINE
8
LYELLOW
6
CONTINUOUS
10
62.
20
-54.9423189999999977
11
61.9047619999999981
21
-54.9899379999999951
0
LINE
8
LYELLOW
6
CONTINUOUS
10
61.9047619999999981
20
-54.9899379999999951
11
61.8571430000000007
21
-55.0375569999999996
0
LINE
8
LYELLOW
6
CONTINUOUS
10
61.8571430000000007
20
-55.0375569999999996
11
61.7619049999999987
21
-55.180413999999999
0
LINE
8
LYELLOW
6
CONTINUOUS
10
61.7619049999999987
20
-55.180413999999999
11
61.7142859999999942
21
-55.3708899999999957
0
LINE
8
LYELLOW
6
CONTINUOUS
10
61.7142859999999942
20
-55.3708899999999957
11
61.7142859999999942
21
-55.7518419999999963
0
LINE
8
LYELLOW
6
CONTINUOUS
10
61.7142859999999942
20
-55.7518419999999963
11
61.7619049999999987
21
-55.8470799999999983
0
LINE
8
LYELLOW
6
CONTINUOUS
10
61.7619049999999987
20
-55.8470799999999983
11
61.8095239999999961
21
-55.8947000000000003
0
LINE
8
LYELLOW
6
CONTINUOUS
10
61.8095239999999961
20
-55.8947000000000003
11
61.9047619999999981
21
-55.9423189999999977
0
LINE
8
LYELLOW
6
CONTINUOUS
10
61.9047619999999981
20
-55.9423189999999977
11
62.0952379999999948
21
-55.9423189999999977
0
LINE
8
LYELLOW
6
CONTINUOUS
10
62.0952379999999948
20
-55.9423189999999977
11
62.1904759999999968
21
-55.8947000000000003
0
LINE
8
LYELLOW
6
CONTINUOUS
10
62.1904759999999968
20
-55.8947000000000003
11
62.2380949999999942
21
-55.8470799999999983
0
LINE
8
LYELLOW
6
CONTINUOUS
10
62.2380949999999942
20
-55.8470799999999983
11
62.2857139999999987
21
-55.7518419999999963
0
LINE
8
LYELLOW
6
CONTINUOUS
10
62.2857139999999987
20
-55.7518419999999963
11
62.2857139999999987
21
-55.5137469999999951
0
LINE
8
LYELLOW
6
CONTINUOUS
10
62.2857139999999987
20
-55.5137469999999951
11
62.2380949999999942
21
-55.4185090000000002
0
LINE
8
LYELLOW
6
CONTINUOUS
10
62.2380949999999942
20
-55.4185090000000002
11
62.1904759999999968
21
-55.3708899999999957
0
LINE
8
LYELLOW
6
CONTINUOUS
10
62.1904759999999968
20
-55.3708899999999957
11
62.0952379999999948
21
-55.3232709999999983
0
LINE
8
LYELLOW
6
CONTINUOUS
10
62.0952379999999948
20
-55.3232709999999983
11
61.9047619999999981
21
-55.3232709999999983
0
LINE
8
LYELLOW
6
CONTINUOUS
10
61.9047619999999981
20
-55.3232709999999983
11
61.8095239999999961
21
-55.3708899999999957
0
LINE
8
LYELLOW
6
CONTINUOUS
10
61.8095239999999961
20
-55.3708899999999957
11
61.7619049999999987
21
-55.4185090000000002
0
LINE
8
LYELLOW
6
CONTINUOUS
10
61.7619049999999987
20
-55.4185090000000002
11
61.7142859999999942
21
-55.5137469999999951
0
LINE
8
LYELLOW
6
CONTINUOUS
10
31.1666659999999993
20
-46.0973189999999988
11
31.1666659999999993
21
-46.8116039999999956
0
LINE
8
LYELLOW
6
CONTINUOUS
10
31.1666659999999993
20
-46.8116039999999956
11
31.1190469999999983
21
-46.9544609999999949
0
LINE
8
LYELLOW
6
CONTINUOUS
10
31.1190469999999983
20
-46.9544609999999949
11
31.023809
21
-47.0497000000000014
0
LINE
8
LYELLOW
6
CONTINUOUS
10
31.023809
20
-47.0497000000000014
11
30.8809519999999971
21
-47.0973189999999988
0
LINE
8
LYELLOW
6
CONTINUOUS
10
30.8809519999999971
20
-47.0973189999999988
11
30.7857139999999987
21
-47.0973189999999988
0
LINE
8
LYELLOW
6
CONTINUOUS
10
31.5952379999999984
20
-46.1925570000000008
11
31.6428569999999993
21
-46.1449379999999962
0
LINE
8
LYELLOW
6
CONTINUOUS
10
31.6428569999999993
20
-46.1449379999999962
11
31.7380949999999977
21
-46.0973189999999988
0
LINE
8
LYELLOW
6
CONTINUOUS
10
31.7380949999999977
20
-46.0973189999999988
11
31.976189999999999
21
-46.0973189999999988
0
LINE
8
LYELLOW
6
CONTINUOUS
10
31.976189999999999
20
-46.0973189999999988
11
32.0714279999999974
21
-46.1449379999999962
0
LINE
8
LYELLOW
6
CONTINUOUS
10
32.0714279999999974
20
-46.1449379999999962
11
32.1190470000000019
21
-46.1925570000000008
0
LINE
8
LYELLOW
6
CONTINUOUS
10
32.1190470000000019
20
-46.1925570000000008
11
32.1666659999999993
21
-46.2877949999999956
0
LINE
8
LYELLOW
6
CONTINUOUS
10
32.1666659999999993
20
-46.2877949999999956
11
32.1666659999999993
21
-46.3830329999999975
0
LINE
8
LYELLOW
6
CONTINUOUS
10
32.1666659999999993
20
-46.3830329999999975
11
32.1190470000000019
21
-46.5258899999999969
0
LINE
8
LYELLOW
6
CONTINUOUS
10
32.1190470000000019
20
-46.5258899999999969
11
31.5476189999999974
21
-47.0973189999999988
0
LINE
8
LYELLOW
6
CONTINUOUS
10
31.5476189999999974
20
-47.0973189999999988
11
32.1666659999999993
21
-47.0973189999999988
0
LINE
8
LYELLOW
6
CONTINUOUS
10
31.1666659999999993
20
-63.522318999999996
11
31.1666659999999993
21
-64.2366039999999998
0
LINE
8
LYELLOW
6
CONTINUOUS
10
31.1666659999999993
20
-64.2366039999999998
11
31.1190469999999983
21
-64.3794609999999921
0
LINE
8
LYELLOW
6
CONTINUOUS
10
31.1190469999999983
20
-64.3794609999999921
11
31.023809
21
-64.4746999999999986
0
LINE
8
LYELLOW
6
CONTINUOUS
10
31.023809
20
-64.4746999999999986
11
30.8809519999999971
21
-64.522318999999996
0
LINE
8
LYELLOW
6
CONTINUOUS
10
30.8809519999999971
20
-64.522318999999996
11
30.7857139999999987
21
-64.522318999999996
0
LINE
8
LYELLOW
6
CONTINUOUS
10
32.1190470000000019
20
-63.522318999999996
11
31.6428569999999993
21
-63.522318999999996
0
LINE
8
LYELLOW
6
CONTINUOUS
10
31.6428569999999993
20
-63.522318999999996
11
31.5952379999999984
21
-63.9985089999999985
0
LINE
8
LYELLOW
6
CONTINUOUS
10
31.5952379999999984
20
-63.9985089999999985
11
31.6428569999999993
21
-63.950889999999994
0
LINE
8
LYELLOW
6
CONTINUOUS
10
31.6428569999999993
20
-63.950889999999994
11
31.7380949999999977
21
-63.9032709999999966
0
LINE
8
LYELLOW
6
CONTINUOUS
10
31.7380949999999977
20
-63.9032709999999966
11
31.976189999999999
21
-63.9032709999999966
0
LINE
8
LYELLOW
6
CONTINUOUS
10
31.976189999999999
20
-63.9032709999999966
11
32.0714279999999974
21
-63.950889999999994
0
LINE
8
LYELLOW
6
CONTINUOUS
10
32.0714279999999974
20
-63.950889999999994
11
32.1190470000000019
21
-63.9985089999999985
0
LINE
8
LYELLOW
6
CONTINUOUS
10
32.1190470000000019
20
-63.9985089999999985
11
32.1666659999999993
21
-64.0937469999999934
0
LINE
8
LYELLOW
6
CONTINUOUS
10
32.1666659999999993
20
-64.0937469999999934
11
32.1666659999999993
21
-64.3318419999999946
0
LINE
8
LYELLOW
6
CONTINUOUS
10
32.1666659999999993
20
-64.3318419999999946
11
32.1190470000000019
21
-64.4270800000000037
0
LINE
8
LYELLOW
6
CONTINUOUS
10
32.1190470000000019
20
-64.4270800000000037
11
32.0714279999999974
21
-64.4746999999999986
0
LINE
8
LYELLOW
6
CONTINUOUS
10
32.0714279999999974
20
-64.4746999999999986
11
31.976189999999999
21
-64.522318999999996
0
LINE
8
LYELLOW
6
CONTINUOUS
10
31.976189999999999
20
-64.522318999999996
11
31.7380949999999977
21
-64.522318999999996
0
LINE
8
LYELLOW
6
CONTINUOUS
10
31.7380949999999977
20
-64.522318999999996
11
31.6428569999999993
21
-64.4746999999999986
0
LINE
8
LYELLOW
6
CONTINUOUS
10
31.6428569999999993
20
-64.4746999999999986
11
31.5952379999999984
21
-64.4270800000000037
0
LINE
8
LYELLOW
6
CONTINUOUS
10
89.3333329999999961
20
-26.8470799999999983
11
89.2857139999999987
21
-26.8947000000000003
0
LINE
8
LYELLOW
6
CONTINUOUS
10
89.2857139999999987
20
-26.8947000000000003
11
89.1428569999999922
21
-26.9423189999999977
0
LINE
8
LYELLOW
6
CONTINUOUS
10
89.1428569999999922
20
-26.9423189999999977
11
89.0476189999999974
21
-26.9423189999999977
0
LINE
8
LYELLOW
6
CONTINUOUS
10
89.0476189999999974
20
-26.9423189999999977
11
88.904761999999991
21
-26.8947000000000003
0
LINE
8
LYELLOW
6
CONTINUOUS
10
88.904761999999991
20
-26.8947000000000003
11
88.8095239999999961
21
-26.7994609999999973
0
LINE
8
LYELLOW
6
CONTINUOUS
10
88.8095239999999961
20
-26.7994609999999973
11
88.7619049999999987
21
-26.7042229999999989
0
LINE
8
LYELLOW
6
CONTINUOUS
10
88.7619049999999987
20
-26.7042229999999989
11
88.7142860000000013
21
-26.5137469999999986
0
LINE
8
LYELLOW
6
CONTINUOUS
10
88.7142860000000013
20
-26.5137469999999986
11
88.7142860000000013
21
-26.3708899999999993
0
LINE
8
LYELLOW
6
CONTINUOUS
10
88.7142860000000013
20
-26.3708899999999993
11
88.7619049999999987
21
-26.180413999999999
0
LINE
8
LYELLOW
6
CONTINUOUS
10
88.7619049999999987
20
-26.180413999999999
11
88.8095239999999961
21
-26.0851760000000006
0
LINE
8
LYELLOW
6
CONTINUOUS
10
88.8095239999999961
20
-26.0851760000000006
11
88.904761999999991
21
-25.9899379999999987
0
LINE
8
LYELLOW
6
CONTINUOUS
10
88.904761999999991
20
-25.9899379999999987
11
89.0476189999999974
21
-25.9423189999999977
0
LINE
8
LYELLOW
6
CONTINUOUS
10
89.0476189999999974
20
-25.9423189999999977
11
89.1428569999999922
21
-25.9423189999999977
0
LINE
8
LYELLOW
6
CONTINUOUS
10
89.1428569999999922
20
-25.9423189999999977
11
89.2857139999999987
21
-25.9899379999999987
0
LINE
8
LYELLOW
6
CONTINUOUS
10
89.2857139999999987
20
-25.9899379999999987
11
89.3333329999999961
21
-26.0375569999999996
0
LINE
8
LYELLOW
6
CONTINUOUS
10
89.8095239999999961
20
-26.9423189999999977
11
90.
21
-26.9423189999999977
0
LINE
8
LYELLOW
6
CONTINUOUS
10
90.
20
-26.9423189999999977
11
90.0952379999999948
21
-26.8947000000000003
0
LINE
8
LYELLOW
6
CONTINUOUS
10
90.0952379999999948
20
-26.8947000000000003
11
90.1428569999999922
21
-26.8470799999999983
0
LINE
8
LYELLOW
6
CONTINUOUS
10
90.1428569999999922
20
-26.8470799999999983
11
90.2380950000000013
21
-26.7042229999999989
0
LINE
8
LYELLOW
6
CONTINUOUS
10
90.2380950000000013
20
-26.7042229999999989
11
90.2857139999999987
21
-26.5137469999999986
0
LINE
8
LYELLOW
6
CONTINUOUS
10
90.2857139999999987
20
-26.5137469999999986
11
90.2857139999999987
21
-26.132794999999998
0
LINE
8
LYELLOW
6
CONTINUOUS
10
90.2857139999999987
20
-26.132794999999998
11
90.2380950000000013
21
-26.0375569999999996
0
LINE
8
LYELLOW
6
CONTINUOUS
10
90.2380950000000013
20
-26.0375569999999996
11
90.1904759999999897
21
-25.9899379999999987
0
LINE
8
LYELLOW
6
CONTINUOUS
10
90.1904759999999897
20
-25.9899379999999987
11
90.0952379999999948
21
-25.9423189999999977
0
LINE
8
LYELLOW
6
CONTINUOUS
10
90.0952379999999948
20
-25.9423189999999977
11
89.904761999999991
21
-25.9423189999999977
0
LINE
8
LYELLOW
6
CONTINUOUS
10
89.904761999999991
20
-25.9423189999999977
11
89.8095239999999961
21
-25.9899379999999987
0
LINE
8
LYELLOW
6
CONTINUOUS
10
89.8095239999999961
20
-25.9899379999999987
11
89.7619049999999987
21
-26.0375569999999996
0
LINE
8
LYELLOW
6
CONTINUOUS
10
89.7619049999999987
20
-26.0375569999999996
11
89.7142860000000013
21
-26.132794999999998
0
LINE
8
LYELLOW
6
CONTINUOUS
10
89.7142860000000013
20
-26.132794999999998
11
89.7142860000000013
21
-26.3708899999999993
0
LINE
8
LYELLOW
6
CONTINUOUS
10
89.7142860000000013
20
-26.3708899999999993
11
89.7619049999999987
21
-26.4661279999999977
0
LINE
8
LYELLOW
6
CONTINUOUS
10
89.7619049999999987
20
-26.4661279999999977
11
89.8095239999999961
21
-26.5137469999999986
0
LINE
8
LYELLOW
6
CONTINUOUS
10
89.8095239999999961
20
-26.5137469999999986
11
89.904761999999991
21
-26.5613659999999996
0
LINE
8
LYELLOW
6
CONTINUOUS
10
89.904761999999991
20
-26.5613659999999996
11
90.0952379999999948
21
-26.5613659999999996
0
LINE
8
LYELLOW
6
CONTINUOUS
10
90.0952379999999948
20
-26.5613659999999996
11
90.1904759999999897
21
-26.5137469999999986
0
LINE
8
LYELLOW
6
CONTINUOUS
10
90.1904759999999897
20
-26.5137469999999986
11
90.2380950000000013
21
-26.4661279999999977
0
LINE
8
LYELLOW
6
CONTINUOUS
10
90.2380950000000013
20
-26.4661279999999977
11
90.2857139999999987
21
-26.3708899999999993
0
LINE
8
LYELLOW
6
CONTINUOUS
10
41.584818999999996
20
-43.1541659999999965
11
41.108627999999996
21
-43.4874989999999997
0
LINE
8
LYELLOW
6
CONTINUOUS
10
41.584818999999996
20
-43.725594000000001
11
40.584818999999996
21
-43.725594000000001
0
LINE
8
LYELLOW
6
CONTINUOUS
10
40.584818999999996
20
-43.725594000000001
11
40.584818999999996
21
-43.3446420000000003
0
LINE
8
LYELLOW
6
CONTINUOUS
10
40.584818999999996
20
-43.3446420000000003
11
40.6324380000000005
21
-43.2494039999999984
0
LINE
8
LYELLOW
6
CONTINUOUS
10
40.6324380000000005
20
-43.2494039999999984
11
40.6800569999999979
21
-43.201785000000001
0
LINE
8
LYELLOW
6
CONTINUOUS
10
40.6800569999999979
20
-43.201785000000001
11
40.7752949999999998
21
-43.1541659999999965
0
LINE
8
LYELLOW
6
CONTINUOUS
10
40.7752949999999998
20
-43.1541659999999965
11
40.9181519999999992
21
-43.1541659999999965
0
LINE
8
LYELLOW
6
CONTINUOUS
10
40.9181519999999992
20
-43.1541659999999965
11
41.0133900000000011
21
-43.201785000000001
0
LINE
8
LYELLOW
6
CONTINUOUS
10
41.0133900000000011
20
-43.201785000000001
11
41.0610089999999985
21
-43.2494039999999984
0
LINE
8
LYELLOW
6
CONTINUOUS
10
41.0610089999999985
20
-43.2494039999999984
11
41.108627999999996
21
-43.3446420000000003
0
LINE
8
LYELLOW
6
CONTINUOUS
10
41.108627999999996
20
-43.3446420000000003
11
41.108627999999996
21
-43.725594000000001
0
LINE
8
LYELLOW
6
CONTINUOUS
10
41.584818999999996
20
-42.201785000000001
11
41.584818999999996
21
-42.7732129999999984
0
LINE
8
LYELLOW
6
CONTINUOUS
10
41.584818999999996
20
-42.4874989999999997
11
40.584818999999996
21
-42.4874989999999997
0
LINE
8
LYELLOW
6
CONTINUOUS
10
40.584818999999996
20
-42.4874989999999997
11
40.7276759999999953
21
-42.5827370000000016
0
LINE
8
LYELLOW
6
CONTINUOUS
10
40.7276759999999953
20
-42.5827370000000016
11
40.8229139999999973
21
-42.6779749999999964
0
LINE
8
LYELLOW
6
CONTINUOUS
10
40.8229139999999973
20
-42.6779749999999964
11
40.8705329999999947
21
-42.7732129999999984
0
LINE
8
LYELLOW
6
CONTINUOUS
10
47.3333329999999961
20
-93.4423189999999977
11
46.8571430000000007
21
-93.4423189999999977
0
LINE
8
LYELLOW
6
CONTINUOUS
10
46.8571430000000007
20
-93.4423189999999977
11
46.8571430000000007
21
-92.4423189999999977
0
LINE
8
LYELLOW
6
CONTINUOUS
10
48.1904759999999968
20
-93.4423189999999977
11
47.6190479999999994
21
-93.4423189999999977
0
LINE
8
LYELLOW
6
CONTINUOUS
10
47.9047619999999981
20
-93.4423189999999977
11
47.9047619999999981
21
-92.4423189999999977
0
LINE
8
LYELLOW
6
CONTINUOUS
10
47.9047619999999981
20
-92.4423189999999977
11
47.8095239999999961
21
-92.5851759999999899
0
LINE
8
LYELLOW
6
CONTINUOUS
10
47.8095239999999961
20
-92.5851759999999899
11
47.7142860000000013
21
-92.680413999999999
0
LINE
8
LYELLOW
6
CONTINUOUS
10
47.7142860000000013
20
-92.680413999999999
11
47.6190479999999994
21
-92.7280329999999964
0
LINE
8
LYELLOW
6
CONTINUOUS
10
70.3333329999999961
20
-55.8470799999999983
11
70.2857139999999987
21
-55.8947000000000003
0
LINE
8
LYELLOW
6
CONTINUOUS
10
70.2857139999999987
20
-55.8947000000000003
11
70.1428569999999922
21
-55.9423189999999977
0
LINE
8
LYELLOW
6
CONTINUOUS
10
70.1428569999999922
20
-55.9423189999999977
11
70.0476189999999974
21
-55.9423189999999977
0
LINE
8
LYELLOW
6
CONTINUOUS
10
70.0476189999999974
20
-55.9423189999999977
11
69.904761999999991
21
-55.8947000000000003
0
LINE
8
LYELLOW
6
CONTINUOUS
10
69.904761999999991
20
-55.8947000000000003
11
69.8095239999999961
21
-55.7994610000000009
0
LINE
8
LYELLOW
6
CONTINUOUS
10
69.8095239999999961
20
-55.7994610000000009
11
69.7619049999999987
21
-55.7042229999999989
0
LINE
8
LYELLOW
6
CONTINUOUS
10
69.7619049999999987
20
-55.7042229999999989
11
69.7142860000000013
21
-55.5137469999999951
0
LINE
8
LYELLOW
6
CONTINUOUS
10
69.7142860000000013
20
-55.5137469999999951
11
69.7142860000000013
21
-55.3708899999999957
0
LINE
8
LYELLOW
6
CONTINUOUS
10
69.7142860000000013
20
-55.3708899999999957
11
69.7619049999999987
21
-55.180413999999999
0
LINE
8
LYELLOW
6
CONTINUOUS
10
69.7619049999999987
20
-55.180413999999999
11
69.8095239999999961
21
-55.085175999999997
0
LINE
8
LYELLOW
6
CONTINUOUS
10
69.8095239999999961
20
-55.085175999999997
11
69.904761999999991
21
-54.9899379999999951
0
LINE
8
LYELLOW
6
CONTINUOUS
10
69.904761999999991
20
-54.9899379999999951
11
70.0476189999999974
21
-54.9423189999999977
0
LINE
8
LYELLOW
6
CONTINUOUS
10
70.0476189999999974
20
-54.9423189999999977
11
70.1428569999999922
21
-54.9423189999999977
0
LINE
8
LYELLOW
6
CONTINUOUS
10
70.1428569999999922
20
-54.9423189999999977
11
70.2857139999999987
21
-54.9899379999999951
0
LINE
8
LYELLOW
6
CONTINUOUS
10
70.2857139999999987
20
-54.9899379999999951
11
70.3333329999999961
21
-55.0375569999999996
0
LINE
8
LYELLOW
6
CONTINUOUS
10
70.6666670000000039
20
-54.9423189999999977
11
71.2857139999999987
21
-54.9423189999999977
0
LINE
8
LYELLOW
6
CONTINUOUS
10
71.2857139999999987
20
-54.9423189999999977
11
70.9523810000000026
21
-55.3232709999999983
0
LINE
8
LYELLOW
6
CONTINUOUS
10
70.9523810000000026
20
-55.3232709999999983
11
71.0952379999999948
21
-55.3232709999999983
0
LINE
8
LYELLOW
6
CONTINUOUS
10
71.0952379999999948
20
-55.3232709999999983
11
71.1904760000000039
21
-55.3708899999999957
0
LINE
8
LYELLOW
6
CONTINUOUS
10
71.1904760000000039
20
-55.3708899999999957
11
71.2380950000000013
21
-55.4185090000000002
0
LINE
8
LYELLOW
6
CONTINUOUS
10
71.2380950000000013
20
-55.4185090000000002
11
71.2857139999999987
21
-55.5137469999999951
0
LINE
8
LYELLOW
6
CONTINUOUS
10
71.2857139999999987
20
-55.5137469999999951
11
71.2857139999999987
21
-55.7518419999999963
0
LINE
8
LYELLOW
6
CONTINUOUS
10
71.2857139999999987
20
-55.7518419999999963
11
71.2380950000000013
21
-55.8470799999999983
0
LINE
8
LYELLOW
6
CONTINUOUS
10
71.2380950000000013
20
-55.8470799999999983
11
71.1904760000000039
21
-55.8947000000000003
0
LINE
8
LYELLOW
6
CONTINUOUS
10
71.1904760000000039
20
-55.8947000000000003
11
71.0952379999999948
21
-55.9423189999999977
0
LINE
8
LYELLOW
6
CONTINUOUS
10
71.0952379999999948
20
-55.9423189999999977
11
70.8095239999999961
21
-55.9423189999999977
0
LINE
8
LYELLOW
6
CONTINUOUS
10
70.8095239999999961
20
-55.9423189999999977
11
70.7142860000000013
21
-55.8947000000000003
0
LINE
8
LYELLOW
6
CONTINUOUS
10
70.7142860000000013
20
-55.8947000000000003
11
70.6666670000000039
21
-55.8470799999999983
0
LINE
8
LYELLOW
6
CONTINUOUS
10
78.7380950000000013
20
-86.4923189999999948
11
78.7380950000000013
21
-87.3018419999999935
0
LINE
8
LYELLOW
6
CONTINUOUS
10
78.7380950000000013
20
-87.3018419999999935
11
78.7857139999999987
21
-87.3970800000000025
0
LINE
8
LYELLOW
6
CONTINUOUS
10
78.7857139999999987
20
-87.3970800000000025
11
78.8333329999999961
21
-87.4446999999999974
0
LINE
8
LYELLOW
6
CONTINUOUS
10
78.8333329999999961
20
-87.4446999999999974
11
78.9285709999999909
21
-87.4923189999999948
0
LINE
8
LYELLOW
6
CONTINUOUS
10
78.9285709999999909
20
-87.4923189999999948
11
79.1190469999999948
21
-87.4923189999999948
0
LINE
8
LYELLOW
6
CONTINUOUS
10
79.1190469999999948
20
-87.4923189999999948
11
79.2142849999999896
21
-87.4446999999999974
0
LINE
8
LYELLOW
6
CONTINUOUS
10
79.2142849999999896
20
-87.4446999999999974
11
79.2619040000000012
21
-87.3970800000000025
0
LINE
8
LYELLOW
6
CONTINUOUS
10
79.2619040000000012
20
-87.3970800000000025
11
79.3095229999999987
21
-87.3018419999999935
0
LINE
8
LYELLOW
6
CONTINUOUS
10
79.3095229999999987
20
-87.3018419999999935
11
79.3095229999999987
21
-86.4923189999999948
0
LINE
8
LYELLOW
6
CONTINUOUS
10
80.2142849999999896
20
-86.8256519999999909
11
80.2142849999999896
21
-87.4923189999999948
0
LINE
8
LYELLOW
6
CONTINUOUS
10
79.9761900000000026
20
-86.4446999999999974
11
79.7380950000000013
21
-87.1589850000000013
0
LINE
8
LYELLOW
6
CONTINUOUS
10
79.7380950000000013
20
-87.1589850000000013
11
80.3571419999999961
21
-87.1589850000000013
0
LINE
8
LYELLOW
6
CONTINUOUS
10
93.584818999999996
20
-72.1541660000000036
11
93.108627999999996
21
-72.4874989999999997
0
LINE
8
LYELLOW
6
CONTINUOUS
10
93.584818999999996
20
-72.725594000000001
11
92.584818999999996
21
-72.725594000000001
0
LINE
8
LYELLOW
6
CONTINUOUS
10
92.584818999999996
20
-72.725594000000001
11
92.584818999999996
21
-72.3446419999999932
0
LINE
8
LYELLOW
6
CONTINUOUS
10
92.584818999999996
20
-72.3446419999999932
11
92.6324379999999934
21
-72.2494039999999984
0
LINE
8
LYELLOW
6
CONTINUOUS
10
92.6324379999999934
20
-72.2494039999999984
11
92.6800569999999908
21
-72.201785000000001
0
LINE
8
LYELLOW
6
CONTINUOUS
10
92.6800569999999908
20
-72.201785000000001
11
92.7752949999999998
21
-72.1541660000000036
0
LINE
8
LYELLOW
6
CONTINUOUS
10
92.7752949999999998
20
-72.1541660000000036
11
92.9181519999999921
21
-72.1541660000000036
0
LINE
8
LYELLOW
6
CONTINUOUS
10
92.9181519999999921
20
-72.1541660000000036
11
93.0133900000000011
21
-72.201785000000001
0
LINE
8
LYELLOW
6
CONTINUOUS
10
93.0133900000000011
20
-72.201785000000001
11
93.0610089999999985
21
-72.2494039999999984
0
LINE
8
LYELLOW
6
CONTINUOUS
10
93.0610089999999985
20
-72.2494039999999984
11
93.108627999999996
21
-72.3446419999999932
0
LINE
8
LYELLOW
6
CONTINUOUS
10
93.108627999999996
20
-72.3446419999999932
11
93.108627999999996
21
-72.725594000000001
0
LINE
8
LYELLOW
6
CONTINUOUS
10
92.9181519999999921
20
-71.2970229999999958
11
93.584818999999996
21
-71.2970229999999958
0
LINE
8
LYELLOW
6
CONTINUOUS
10
92.5371999999999986
20
-71.5351179999999971
11
93.2514850000000024
21
-71.7732129999999984
0
LINE
8
LYELLOW
6
CONTINUOUS
10
93.2514850000000024
20
-71.7732129999999984
11
93.2514850000000024
21
-71.1541660000000036
0
LINE
8
LYELLOW
6
CONTINUOUS
10
67.4306330000000003
20
-24.0970799999999983
11
67.3830140000000029
21
-24.1447000000000003
0
LINE
8
LYELLOW
6
CONTINUOUS
10
67.3830140000000029
20
-24.1447000000000003
11
67.2401569999999964
21
-24.1923189999999977
0
LINE
8
LYELLOW
6
CONTINUOUS
10
67.2401569999999964
20
-24.1923189999999977
11
67.1449190000000016
21
-24.1923189999999977
0
LINE
8
LYELLOW
6
CONTINUOUS
10
67.1449190000000016
20
-24.1923189999999977
11
67.0020619999999951
21
-24.1447000000000003
0
LINE
8
LYELLOW
6
CONTINUOUS
10
67.0020619999999951
20
-24.1447000000000003
11
66.9068240000000003
21
-24.0494609999999973
0
LINE
8
LYELLOW
6
CONTINUOUS
10
66.9068240000000003
20
-24.0494609999999973
11
66.8592050000000029
21
-23.9542229999999989
0
LINE
8
LYELLOW
6
CONTINUOUS
10
66.8592050000000029
20
-23.9542229999999989
11
66.8115859999999913
21
-23.7637469999999986
0
LINE
8
LYELLOW
6
CONTINUOUS
10
66.8115859999999913
20
-23.7637469999999986
11
66.8115859999999913
21
-23.6208899999999993
0
LINE
8
LYELLOW
6
CONTINUOUS
10
66.8115859999999913
20
-23.6208899999999993
11
66.8592050000000029
21
-23.430413999999999
0
LINE
8
LYELLOW
6
CONTINUOUS
10
66.8592050000000029
20
-23.430413999999999
11
66.9068240000000003
21
-23.3351760000000006
0
LINE
8
LYELLOW
6
CONTINUOUS
10
66.9068240000000003
20
-23.3351760000000006
11
67.0020619999999951
21
-23.2399379999999987
0
LINE
8
LYELLOW
6
CONTINUOUS
10
67.0020619999999951
20
-23.2399379999999987
11
67.1449190000000016
21
-23.1923189999999977
0
LINE
8
LYELLOW
6
CONTINUOUS
10
67.1449190000000016
20
-23.1923189999999977
11
67.2401569999999964
21
-23.1923189999999977
0
LINE
8
LYELLOW
6
CONTINUOUS
10
67.2401569999999964
20
-23.1923189999999977
11
67.3830140000000029
21
-23.2399379999999987
0
LINE
8
LYELLOW
6
CONTINUOUS
10
67.3830140000000029
20
-23.2399379999999987
11
67.4306330000000003
21
-23.2875569999999996
0
LINE
8
LYELLOW
6
CONTINUOUS
10
67.8115859999999913
20
-23.2875569999999996
11
67.8592050000000029
21
-23.2399379999999987
0
LINE
8
LYELLOW
6
CONTINUOUS
10
67.8592050000000029
20
-23.2399379999999987
11
67.9544429999999977
21
-23.1923189999999977
0
LINE
8
LYELLOW
6
CONTINUOUS
10
67.9544429999999977
20
-23.1923189999999977
11
68.192537999999999
21
-23.1923189999999977
0
LINE
8
LYELLOW
6
CONTINUOUS
10
68.192537999999999
20
-23.1923189999999977
11
68.2877759999999938
21
-23.2399379999999987
0
LINE
8
LYELLOW
6
CONTINUOUS
10
68.2877759999999938
20
-23.2399379999999987
11
68.3353949999999912
21
-23.2875569999999996
0
LINE
8
LYELLOW
6
CONTINUOUS
10
68.3353949999999912
20
-23.2875569999999996
11
68.3830140000000029
21
-23.382794999999998
0
LINE
8
LYELLOW
6
CONTINUOUS
10
68.3830140000000029
20
-23.382794999999998
11
68.3830140000000029
21
-23.4780329999999999
0
LINE
8
LYELLOW
6
CONTINUOUS
10
68.3830140000000029
20
-23.4780329999999999
11
68.3353949999999912
21
-23.6208899999999993
0
LINE
8
LYELLOW
6
CONTINUOUS
10
68.3353949999999912
20
-23.6208899999999993
11
67.7639669999999938
21
-24.1923189999999977
0
LINE
8
LYELLOW
6
CONTINUOUS
10
67.7639669999999938
20
-24.1923189999999977
11
68.3830140000000029
21
-24.1923189999999977
0
LINE
8
LYELLOW
6
CONTINUOUS
10
106.834818999999996
20
-92.725594000000001
11
105.834818999999996
21
-92.725594000000001
0
LINE
8
LYELLOW
6
CONTINUOUS
10
105.834818999999996
20
-92.725594000000001
11
105.834818999999996
21
-92.4874989999999997
0
LINE
8
LYELLOW
6
CONTINUOUS
10
105.834818999999996
20
-92.4874989999999997
11
105.8824379999999934
21
-92.3446419999999932
0
LINE
8
LYELLOW
6
CONTINUOUS
10
105.8824379999999934
20
-92.3446419999999932
11
105.9776759999999882
21
-92.2494039999999984
0
LINE
8
LYELLOW
6
CONTINUOUS
10
105.9776759999999882
20
-92.2494039999999984
11
106.0729139999999973
21
-92.201785000000001
0
LINE
8
LYELLOW
6
CONTINUOUS
10
106.0729139999999973
20
-92.201785000000001
11
106.2633900000000011
21
-92.1541659999999894
0
LINE
8
LYELLOW
6
CONTINUOUS
10
106.2633900000000011
20
-92.1541659999999894
11
106.4062469999999934
21
-92.1541659999999894
0
LINE
8
LYELLOW
6
CONTINUOUS
10
106.4062469999999934
20
-92.1541659999999894
11
106.5967229999999972
21
-92.201785000000001
0
LINE
8
LYELLOW
6
CONTINUOUS
10
106.5967229999999972
20
-92.201785000000001
11
106.6919609999999921
21
-92.2494039999999984
0
LINE
8
LYELLOW
6
CONTINUOUS
10
106.6919609999999921
20
-92.2494039999999984
11
106.7871999999999986
21
-92.3446419999999932
0
LINE
8
LYELLOW
6
CONTINUOUS
10
106.7871999999999986
20
-92.3446419999999932
11
106.834818999999996
21
-92.4874989999999997
0
LINE
8
LYELLOW
6
CONTINUOUS
10
106.834818999999996
20
-92.4874989999999997
11
106.834818999999996
21
-92.725594000000001
0
LINE
8
LYELLOW
6
CONTINUOUS
10
105.834818999999996
20
-91.2494039999999984
11
105.834818999999996
21
-91.725594000000001
0
LINE
8
LYELLOW
6
CONTINUOUS
10
105.834818999999996
20
-91.725594000000001
11
106.3110089999999985
21
-91.7732129999999984
0
LINE
8
LYELLOW
6
CONTINUOUS
10
106.3110089999999985
20
-91.7732129999999984
11
106.2633900000000011
21
-91.725594000000001
0
LINE
8
LYELLOW
6
CONTINUOUS
10
106.2633900000000011
20
-91.725594000000001
11
106.2157709999999895
21
-91.6303559999999919
0
LINE
8
LYELLOW
6
CONTINUOUS
10
106.2157709999999895
20
-91.6303559999999919
11
106.2157709999999895
21
-91.3922609999999906
0
LINE
8
LYELLOW
6
CONTINUOUS
10
106.2157709999999895
20
-91.3922609999999906
11
106.2633900000000011
21
-91.2970229999999958
0
LINE
8
LYELLOW
6
CONTINUOUS
10
106.2633900000000011
20
-91.2970229999999958
11
106.3110089999999985
21
-91.2494039999999984
0
LINE
8
LYELLOW
6
CONTINUOUS
10
106.3110089999999985
20
-91.2494039999999984
11
106.4062469999999934
21
-91.201785000000001
0
LINE
8
LYELLOW
6
CONTINUOUS
10
106.4062469999999934
20
-91.201785000000001
11
106.6443419999999946
21
-91.201785000000001
0
LINE
8
LYELLOW
6
CONTINUOUS
10
106.6443419999999946
20
-91.201785000000001
11
106.7395799999999895
21
-91.2494039999999984
0
LINE
8
LYELLOW
6
CONTINUOUS
10
106.7395799999999895
20
-91.2494039999999984
11
106.7871999999999986
21
-91.2970229999999958
0
LINE
8
LYELLOW
6
CONTINUOUS
10
106.7871999999999986
20
-91.2970229999999958
11
106.834818999999996
21
-91.3922609999999906
0
LINE
8
LYELLOW
6
CONTINUOUS
10
106.834818999999996
20
-91.3922609999999906
11
106.834818999999996
21
-91.6303559999999919
0
LINE
8
LYELLOW
6
CONTINUOUS
10
106.834818999999996
20
-91.6303559999999919
11
106.7871999999999986
21
-91.725594000000001
0
LINE
8
LYELLOW
6
CONTINUOUS
10
106.7871999999999986
20
-91.725594000000001
11
106.7395799999999895
21
-91.7732129999999984
0
LINE
8
LYELLOW
6
CONTINUOUS
10
107.1548189999999892
20
-96.0594040000000007
11
106.1548189999999892
21
-96.0594040000000007
0
LINE
8
LYELLOW
6
CONTINUOUS
10
107.1548189999999892
20
-95.4879759999999891
11
106.5833899999999943
21
-95.9165469999999942
0
LINE
8
LYELLOW
6
CONTINUOUS
10
106.1548189999999892
20
-95.4879759999999891
11
106.7262470000000008
21
-96.0594040000000007
0
LINE
8
LYELLOW
6
CONTINUOUS
10
65.834818999999996
20
-43.725594000000001
11
64.834818999999996
21
-43.725594000000001
0
LINE
8
LYELLOW
6
CONTINUOUS
10
64.834818999999996
20
-43.725594000000001
11
64.834818999999996
21
-43.4874989999999997
0
LINE
8
LYELLOW
6
CONTINUOUS
10
64.834818999999996
20
-43.4874989999999997
11
64.8824379999999934
21
-43.3446420000000003
0
LINE
8
LYELLOW
6
CONTINUOUS
10
64.8824379999999934
20
-43.3446420000000003
11
64.9776760000000024
21
-43.2494039999999984
0
LINE
8
LYELLOW
6
CONTINUOUS
10
64.9776760000000024
20
-43.2494039999999984
11
65.0729139999999973
21
-43.201785000000001
0
LINE
8
LYELLOW
6
CONTINUOUS
10
65.0729139999999973
20
-43.201785000000001
11
65.2633900000000011
21
-43.1541659999999965
0
LINE
8
LYELLOW
6
CONTINUOUS
10
65.2633900000000011
20
-43.1541659999999965
11
65.4062469999999934
21
-43.1541659999999965
0
LINE
8
LYELLOW
6
CONTINUOUS
10
65.4062469999999934
20
-43.1541659999999965
11
65.5967229999999972
21
-43.201785000000001
0
LINE
8
LYELLOW
6
CONTINUOUS
10
65.5967229999999972
20
-43.201785000000001
11
65.6919609999999921
21
-43.2494039999999984
0
LINE
8
LYELLOW
6
CONTINUOUS
10
65.6919609999999921
20
-43.2494039999999984
11
65.7871999999999986
21
-43.3446420000000003
0
LINE
8
LYELLOW
6
CONTINUOUS
10
65.7871999999999986
20
-43.3446420000000003
11
65.834818999999996
21
-43.4874989999999997
0
LINE
8
LYELLOW
6
CONTINUOUS
10
65.834818999999996
20
-43.4874989999999997
11
65.834818999999996
21
-43.725594000000001
0
LINE
8
LYELLOW
6
CONTINUOUS
10
64.9300569999999908
20
-42.7732129999999984
11
64.8824379999999934
21
-42.725594000000001
0
LINE
8
LYELLOW
6
CONTINUOUS
10
64.8824379999999934
20
-42.725594000000001
11
64.834818999999996
21
-42.630355999999999
0
LINE
8
LYELLOW
6
CONTINUOUS
10
64.834818999999996
20
-42.630355999999999
11
64.834818999999996
21
-42.3922609999999978
0
LINE
8
LYELLOW
6
CONTINUOUS
10
64.834818999999996
20
-42.3922609999999978
11
64.8824379999999934
21
-42.2970229999999958
0
LINE
8
LYELLOW
6
CONTINUOUS
10
64.8824379999999934
20
-42.2970229999999958
11
64.9300569999999908
21
-42.2494039999999984
0
LINE
8
LYELLOW
6
CONTINUOUS
10
64.9300569999999908
20
-42.2494039999999984
11
65.0252949999999998
21
-42.201785000000001
0
LINE
8
LYELLOW
6
CONTINUOUS
10
65.0252949999999998
20
-42.201785000000001
11
65.1205329999999947
21
-42.201785000000001
0
LINE
8
LYELLOW
6
CONTINUOUS
10
65.1205329999999947
20
-42.201785000000001
11
65.2633900000000011
21
-42.2494039999999984
0
LINE
8
LYELLOW
6
CONTINUOUS
10
65.2633900000000011
20
-42.2494039999999984
11
65.834818999999996
21
-42.8208319999999958
0
LINE
8
LYELLOW
6
CONTINUOUS
10
65.834818999999996
20
-42.8208319999999958
11
65.834818999999996
21
-42.201785000000001
0
LINE
8
LYELLOW
6
CONTINUOUS
10
66.1548190000000034
20
-47.0594040000000007
11
65.1548190000000034
21
-47.0594040000000007
0
LINE
8
LYELLOW
6
CONTINUOUS
10
66.1548190000000034
20
-46.4879759999999962
11
65.5833899999999943
21
-46.9165470000000013
0
LINE
8
LYELLOW
6
CONTINUOUS
10
65.1548190000000034
20
-46.4879759999999962
11
65.7262470000000008
21
-47.0594040000000007
0
LINE
8
LYELLOW
6
CONTINUOUS
10
100.4306330000000003
20
-100.0970799999999912
11
100.3830139999999886
21
-100.1447000000000003
0
LINE
8
LYELLOW
6
CONTINUOUS
10
100.3830139999999886
20
-100.1447000000000003
11
100.2401569999999964
21
-100.1923189999999977
0
LINE
8
LYELLOW
6
CONTINUOUS
10
100.2401569999999964
20
-100.1923189999999977
11
100.1449190000000016
21
-100.1923189999999977
0
LINE
8
LYELLOW
6
CONTINUOUS
10
100.1449190000000016
20
-100.1923189999999977
11
100.0020619999999951
21
-100.1447000000000003
0
LINE
8
LYELLOW
6
CONTINUOUS
10
100.0020619999999951
20
-100.1447000000000003
11
99.9068240000000003
21
-100.0494609999999938
0
LINE
8
LYELLOW
6
CONTINUOUS
10
99.9068240000000003
20
-100.0494609999999938
11
99.8592049999999887
21
-99.9542229999999989
0
LINE
8
LYELLOW
6
CONTINUOUS
10
99.8592049999999887
20
-99.9542229999999989
11
99.8115859999999913
21
-99.7637469999999951
0
LINE
8
LYELLOW
6
CONTINUOUS
10
99.8115859999999913
20
-99.7637469999999951
11
99.8115859999999913
21
-99.6208899999999886
0
LINE
8
LYELLOW
6
CONTINUOUS
10
99.8115859999999913
20
-99.6208899999999886
11
99.8592049999999887
21
-99.430413999999999
0
LINE
8
LYELLOW
6
CONTINUOUS
10
99.8592049999999887
20
-99.430413999999999
11
99.9068240000000003
21
-99.3351759999999899
0
LINE
8
LYELLOW
6
CONTINUOUS
10
99.9068240000000003
20
-99.3351759999999899
11
100.0020619999999951
21
-99.2399379999999951
0
LINE
8
LYELLOW
6
CONTINUOUS
10
100.0020619999999951
20
-99.2399379999999951
11
100.1449190000000016
21
-99.1923189999999977
0
LINE
8
LYELLOW
6
CONTINUOUS
10
100.1449190000000016
20
-99.1923189999999977
11
100.2401569999999964
21
-99.1923189999999977
0
LINE
8
LYELLOW
6
CONTINUOUS
10
100.2401569999999964
20
-99.1923189999999977
11
100.3830139999999886
21
-99.2399379999999951
0
LINE
8
LYELLOW
6
CONTINUOUS
10
100.3830139999999886
20
-99.2399379999999951
11
100.4306330000000003
21
-99.2875569999999925
0
LINE
8
LYELLOW
6
CONTINUOUS
10
101.2877759999999938
20
-99.5256519999999938
11
101.2877759999999938
21
-100.1923189999999977
0
LINE
8
LYELLOW
6
CONTINUOUS
10
101.0496809999999925
20
-99.1447000000000003
11
100.8115859999999913
21
-99.8589849999999899
0
LINE
8
LYELLOW
6
CONTINUOUS
10
100.8115859999999913
20
-99.8589849999999899
11
101.4306330000000003
21
-99.8589849999999899
0
LINE
8
LYELLOW
6
CONTINUOUS
10
70.7380950000000013
20
-67.5723189999999931
11
70.7380950000000013
21
-68.3818419999999918
0
LINE
8
LYELLOW
6
CONTINUOUS
10
70.7380950000000013
20
-68.3818419999999918
11
70.7857139999999987
21
-68.4770800000000008
0
LINE
8
LYELLOW
6
CONTINUOUS
10
70.7857139999999987
20
-68.4770800000000008
11
70.8333329999999961
21
-68.5246999999999957
0
LINE
8
LYELLOW
6
CONTINUOUS
10
70.8333329999999961
20
-68.5246999999999957
11
70.9285709999999909
21
-68.5723189999999931
0
LINE
8
LYELLOW
6
CONTINUOUS
10
70.9285709999999909
20
-68.5723189999999931
11
71.1190469999999948
21
-68.5723189999999931
0
LINE
8
LYELLOW
6
CONTINUOUS
10
71.1190469999999948
20
-68.5723189999999931
11
71.2142850000000038
21
-68.5246999999999957
0
LINE
8
LYELLOW
6
CONTINUOUS
10
71.2142850000000038
20
-68.5246999999999957
11
71.2619040000000012
21
-68.4770800000000008
0
LINE
8
LYELLOW
6
CONTINUOUS
10
71.2619040000000012
20
-68.4770800000000008
11
71.3095229999999987
21
-68.3818419999999918
0
LINE
8
LYELLOW
6
CONTINUOUS
10
71.3095229999999987
20
-68.3818419999999918
11
71.3095229999999987
21
-67.5723189999999931
0
LINE
8
LYELLOW
6
CONTINUOUS
10
71.6904759999999897
20
-67.5723189999999931
11
72.3095229999999987
21
-67.5723189999999931
0
LINE
8
LYELLOW
6
CONTINUOUS
10
72.3095229999999987
20
-67.5723189999999931
11
71.9761900000000026
21
-67.9532710000000009
0
LINE
8
LYELLOW
6
CONTINUOUS
10
71.9761900000000026
20
-67.9532710000000009
11
72.1190469999999948
21
-67.9532710000000009
0
LINE
8
LYELLOW
6
CONTINUOUS
10
72.1190469999999948
20
-67.9532710000000009
11
72.2142850000000038
21
-68.0008899999999983
0
LINE
8
LYELLOW
6
CONTINUOUS
10
72.2142850000000038
20
-68.0008899999999983
11
72.2619040000000012
21
-68.0485089999999957
0
LINE
8
LYELLOW
6
CONTINUOUS
10
72.2619040000000012
20
-68.0485089999999957
11
72.3095229999999987
21
-68.1437469999999905
0
LINE
8
LYELLOW
6
CONTINUOUS
10
72.3095229999999987
20
-68.1437469999999905
11
72.3095229999999987
21
-68.3818419999999918
0
LINE
8
LYELLOW
6
CONTINUOUS
10
72.3095229999999987
20
-68.3818419999999918
11
72.2619040000000012
21
-68.4770800000000008
0
LINE
8
LYELLOW
6
CONTINUOUS
10
72.2619040000000012
20
-68.4770800000000008
11
72.2142850000000038
21
-68.5246999999999957
0
LINE
8
LYELLOW
6
CONTINUOUS
10
72.2142850000000038
20
-68.5246999999999957
11
72.1190469999999948
21
-68.5723189999999931
0
LINE
8
LYELLOW
6
CONTINUOUS
10
72.1190469999999948
20
-68.5723189999999931
11
71.8333329999999961
21
-68.5723189999999931
0
LINE
8
LYELLOW
6
CONTINUOUS
10
71.8333329999999961
20
-68.5723189999999931
11
71.7380950000000013
21
-68.5246999999999957
0
LINE
8
LYELLOW
6
CONTINUOUS
10
71.7380950000000013
20
-68.5246999999999957
11
71.6904759999999897
21
-68.4770800000000008
0
LINE
8
LYELLOW
6
CONTINUOUS
10
46.2091670000000008
20
-68.7171999999999912
11
46.3520240000000001
21
-68.7648190000000028
0
LINE
8
LYELLOW
6
CONTINUOUS
10
46.3520240000000001
20
-68.7648190000000028
11
46.5901190000000014
21
-68.7648190000000028
0
LINE
8
LYELLOW
6
CONTINUOUS
10
46.5901190000000014
20
-68.7648190000000028
11
46.6853569999999962
21
-68.7171999999999912
0
LINE
8
LYELLOW
6
CONTINUOUS
10
46.6853569999999962
20
-68.7171999999999912
11
46.7329760000000007
21
-68.6695799999999963
0
LINE
8
LYELLOW
6
CONTINUOUS
10
46.7329760000000007
20
-68.6695799999999963
11
46.7805949999999982
21
-68.5743420000000015
0
LINE
8
LYELLOW
6
CONTINUOUS
10
46.7805949999999982
20
-68.5743420000000015
11
46.7805949999999982
21
-68.4791039999999924
0
LINE
8
LYELLOW
6
CONTINUOUS
10
46.7805949999999982
20
-68.4791039999999924
11
46.7329760000000007
21
-68.3838659999999976
0
LINE
8
LYELLOW
6
CONTINUOUS
10
46.7329760000000007
20
-68.3838659999999976
11
46.6853569999999962
21
-68.3362470000000002
0
LINE
8
LYELLOW
6
CONTINUOUS
10
46.6853569999999962
20
-68.3362470000000002
11
46.5901190000000014
21
-68.2886280000000028
0
LINE
8
LYELLOW
6
CONTINUOUS
10
46.5901190000000014
20
-68.2886280000000028
11
46.3996429999999975
21
-68.2410089999999911
0
LINE
8
LYELLOW
6
CONTINUOUS
10
46.3996429999999975
20
-68.2410089999999911
11
46.3044049999999956
21
-68.1933899999999937
0
LINE
8
LYELLOW
6
CONTINUOUS
10
46.3044049999999956
20
-68.1933899999999937
11
46.2567859999999982
21
-68.1457709999999963
0
LINE
8
LYELLOW
6
CONTINUOUS
10
46.2567859999999982
20
-68.1457709999999963
11
46.2091670000000008
21
-68.0505330000000015
0
LINE
8
LYELLOW
6
CONTINUOUS
10
46.2091670000000008
20
-68.0505330000000015
11
46.2091670000000008
21
-67.9552949999999925
0
LINE
8
LYELLOW
6
CONTINUOUS
10
46.2091670000000008
20
-67.9552949999999925
11
46.2567859999999982
21
-67.8600569999999976
0
LINE
8
LYELLOW
6
CONTINUOUS
10
46.2567859999999982
20
-67.8600569999999976
11
46.3044049999999956
21
-67.8124380000000002
0
LINE
8
LYELLOW
6
CONTINUOUS
10
46.3044049999999956
20
-67.8124380000000002
11
46.3996429999999975
21
-67.7648190000000028
0
LINE
8
LYELLOW
6
CONTINUOUS
10
46.3996429999999975
20
-67.7648190000000028
11
46.6377379999999988
21
-67.7648190000000028
0
LINE
8
LYELLOW
6
CONTINUOUS
10
46.6377379999999988
20
-67.7648190000000028
11
46.7805949999999982
21
-67.8124380000000002
0
LINE
8
LYELLOW
6
CONTINUOUS
10
47.1139289999999988
20
-67.7648190000000028
11
47.3520240000000001
21
-68.7648190000000028
0
LINE
8
LYELLOW
6
CONTINUOUS
10
47.3520240000000001
20
-68.7648190000000028
11
47.5424999999999969
21
-68.0505330000000015
0
LINE
8
LYELLOW
6
CONTINUOUS
10
47.5424999999999969
20
-68.0505330000000015
11
47.7329760000000007
21
-68.7648190000000028
0
LINE
8
LYELLOW
6
CONTINUOUS
10
47.7329760000000007
20
-68.7648190000000028
11
47.9710719999999995
21
-67.7648190000000028
0
LINE
8
LYELLOW
6
CONTINUOUS
10
48.8758330000000001
20
-68.7648190000000028
11
48.3044049999999956
21
-68.7648190000000028
0
LINE
8
LYELLOW
6
CONTINUOUS
10
48.5901189999999943
20
-68.7648190000000028
11
48.5901189999999943
21
-67.7648190000000028
0
LINE
8
LYELLOW
6
CONTINUOUS
10
48.5901189999999943
20
-67.7648190000000028
11
48.4948809999999995
21
-67.907675999999995
0
LINE
8
LYELLOW
6
CONTINUOUS
10
48.4948809999999995
20
-67.907675999999995
11
48.3996429999999975
21
-68.0029139999999899
0
LINE
8
LYELLOW
6
CONTINUOUS
10
48.3996429999999975
20
-68.0029139999999899
11
48.3044049999999956
21
-68.0505330000000015
0
LINE
8
LYELLOW
6
CONTINUOUS
10
79.3333329999999961
20
-55.8470799999999983
11
79.2857139999999987
21
-55.8947000000000003
0
LINE
8
LYELLOW
6
CONTINUOUS
10
79.2857139999999987
20
-55.8947000000000003
11
79.1428569999999922
21
-55.9423189999999977
0
LINE
8
LYELLOW
6
CONTINUOUS
10
79.1428569999999922
20
-55.9423189999999977
11
79.0476189999999974
21
-55.9423189999999977
0
LINE
8
LYELLOW
6
CONTINUOUS
10
79.0476189999999974
20
-55.9423189999999977
11
78.904761999999991
21
-55.8947000000000003
0
LINE
8
LYELLOW
6
CONTINUOUS
10
78.904761999999991
20
-55.8947000000000003
11
78.8095239999999961
21
-55.7994610000000009
0
LINE
8
LYELLOW
6
CONTINUOUS
10
78.8095239999999961
20
-55.7994610000000009
11
78.7619049999999987
21
-55.7042229999999989
0
LINE
8
LYELLOW
6
CONTINUOUS
10
78.7619049999999987
20
-55.7042229999999989
11
78.7142860000000013
21
-55.5137469999999951
0
LINE
8
LYELLOW
6
CONTINUOUS
10
78.7142860000000013
20
-55.5137469999999951
11
78.7142860000000013
21
-55.3708899999999957
0
LINE
8
LYELLOW
6
CONTINUOUS
10
78.7142860000000013
20
-55.3708899999999957
11
78.7619049999999987
21
-55.180413999999999
0
LINE
8
LYELLOW
6
CONTINUOUS
10
78.7619049999999987
20
-55.180413999999999
11
78.8095239999999961
21
-55.085175999999997
0
LINE
8
LYELLOW
6
CONTINUOUS
10
78.8095239999999961
20
-55.085175999999997
11
78.904761999999991
21
-54.9899379999999951
0
LINE
8
LYELLOW
6
CONTINUOUS
10
78.904761999999991
20
-54.9899379999999951
11
79.0476189999999974
21
-54.9423189999999977
0
LINE
8
LYELLOW
6
CONTINUOUS
10
79.0476189999999974
20
-54.9423189999999977
11
79.1428569999999922
21
-54.9423189999999977
0
LINE
8
LYELLOW
6
CONTINUOUS
10
79.1428569999999922
20
-54.9423189999999977
11
79.2857139999999987
21
-54.9899379999999951
0
LINE
8
LYELLOW
6
CONTINUOUS
10
79.2857139999999987
20
-54.9899379999999951
11
79.3333329999999961
21
-55.0375569999999996
0
LINE
8
LYELLOW
6
CONTINUOUS
10
80.2380950000000013
20
-54.9423189999999977
11
79.7619049999999987
21
-54.9423189999999977
0
LINE
8
LYELLOW
6
CONTINUOUS
10
79.7619049999999987
20
-54.9423189999999977
11
79.7142860000000013
21
-55.4185090000000002
0
LINE
8
LYELLOW
6
CONTINUOUS
10
79.7142860000000013
20
-55.4185090000000002
11
79.7619049999999987
21
-55.3708899999999957
0
LINE
8
LYELLOW
6
CONTINUOUS
10
79.7619049999999987
20
-55.3708899999999957
11
79.8571429999999935
21
-55.3232709999999983
0
LINE
8
LYELLOW
6
CONTINUOUS
10
79.8571429999999935
20
-55.3232709999999983
11
80.0952379999999948
21
-55.3232709999999983
0
LINE
8
LYELLOW
6
CONTINUOUS
10
80.0952379999999948
20
-55.3232709999999983
11
80.1904759999999897
21
-55.3708899999999957
0
LINE
8
LYELLOW
6
CONTINUOUS
10
80.1904759999999897
20
-55.3708899999999957
11
80.2380950000000013
21
-55.4185090000000002
0
LINE
8
LYELLOW
6
CONTINUOUS
10
80.2380950000000013
20
-55.4185090000000002
11
80.2857139999999987
21
-55.5137469999999951
0
LINE
8
LYELLOW
6
CONTINUOUS
10
80.2857139999999987
20
-55.5137469999999951
11
80.2857139999999987
21
-55.7518419999999963
0
LINE
8
LYELLOW
6
CONTINUOUS
10
80.2857139999999987
20
-55.7518419999999963
11
80.2380950000000013
21
-55.8470799999999983
0
LINE
8
LYELLOW
6
CONTINUOUS
10
80.2380950000000013
20
-55.8470799999999983
11
80.1904759999999897
21
-55.8947000000000003
0
LINE
8
LYELLOW
6
CONTINUOUS
10
80.1904759999999897
20
-55.8947000000000003
11
80.0952379999999948
21
-55.9423189999999977
0
LINE
8
LYELLOW
6
CONTINUOUS
10
80.0952379999999948
20
-55.9423189999999977
11
79.8571429999999935
21
-55.9423189999999977
0
LINE
8
LYELLOW
6
CONTINUOUS
10
79.8571429999999935
20
-55.9423189999999977
11
79.7619049999999987
21
-55.8947000000000003
0
LINE
8
LYELLOW
6
CONTINUOUS
10
79.7619049999999987
20
-55.8947000000000003
11
79.7142860000000013
21
-55.8470799999999983
0
LINE
8
LYELLOW
6
CONTINUOUS
10
90.3333329999999961
20
-98.8470799999999912
11
90.2857139999999987
21
-98.8947000000000003
0
LINE
8
LYELLOW
6
CONTINUOUS
10
90.2857139999999987
20
-98.8947000000000003
11
90.1428569999999922
21
-98.9423189999999977
0
LINE
8
LYELLOW
6
CONTINUOUS
10
90.1428569999999922
20
-98.9423189999999977
11
90.0476189999999974
21
-98.9423189999999977
0
LINE
8
LYELLOW
6
CONTINUOUS
10
90.0476189999999974
20
-98.9423189999999977
11
89.904761999999991
21
-98.8947000000000003
0
LINE
8
LYELLOW
6
CONTINUOUS
10
89.904761999999991
20
-98.8947000000000003
11
89.8095239999999961
21
-98.7994609999999938
0
LINE
8
LYELLOW
6
CONTINUOUS
10
89.8095239999999961
20
-98.7994609999999938
11
89.7619049999999987
21
-98.7042229999999989
0
LINE
8
LYELLOW
6
CONTINUOUS
10
89.7619049999999987
20
-98.7042229999999989
11
89.7142860000000013
21
-98.5137469999999951
0
LINE
8
LYELLOW
6
CONTINUOUS
10
89.7142860000000013
20
-98.5137469999999951
11
89.7142860000000013
21
-98.3708899999999886
0
LINE
8
LYELLOW
6
CONTINUOUS
10
89.7142860000000013
20
-98.3708899999999886
11
89.7619049999999987
21
-98.180413999999999
0
LINE
8
LYELLOW
6
CONTINUOUS
10
89.7619049999999987
20
-98.180413999999999
11
89.8095239999999961
21
-98.0851759999999899
0
LINE
8
LYELLOW
6
CONTINUOUS
10
89.8095239999999961
20
-98.0851759999999899
11
89.904761999999991
21
-97.9899379999999951
0
LINE
8
LYELLOW
6
CONTINUOUS
10
89.904761999999991
20
-97.9899379999999951
11
90.0476189999999974
21
-97.9423189999999977
0
LINE
8
LYELLOW
6
CONTINUOUS
10
90.0476189999999974
20
-97.9423189999999977
11
90.1428569999999922
21
-97.9423189999999977
0
LINE
8
LYELLOW
6
CONTINUOUS
10
90.1428569999999922
20
-97.9423189999999977
11
90.2857139999999987
21
-97.9899379999999951
0
LINE
8
LYELLOW
6
CONTINUOUS
10
90.2857139999999987
20
-97.9899379999999951
11
90.3333329999999961
21
-98.0375569999999925
0
LINE
8
LYELLOW
6
CONTINUOUS
10
90.6666669999999897
20
-97.9423189999999977
11
91.3333329999999961
21
-97.9423189999999977
0
LINE
8
LYELLOW
6
CONTINUOUS
10
91.3333329999999961
20
-97.9423189999999977
11
90.904761999999991
21
-98.9423189999999977
0
LINE
8
LYELLOW
6
CONTINUOUS
10
57.584818999999996
20
-72.1541660000000036
11
57.108627999999996
21
-72.4874989999999997
0
LINE
8
LYELLOW
6
CONTINUOUS
10
57.584818999999996
20
-72.725594000000001
11
56.584818999999996
21
-72.725594000000001
0
LINE
8
LYELLOW
6
CONTINUOUS
10
56.584818999999996
20
-72.725594000000001
11
56.584818999999996
21
-72.3446419999999932
0
LINE
8
LYELLOW
6
CONTINUOUS
10
56.584818999999996
20
-72.3446419999999932
11
56.6324380000000005
21
-72.2494039999999984
0
LINE
8
LYELLOW
6
CONTINUOUS
10
56.6324380000000005
20
-72.2494039999999984
11
56.6800569999999979
21
-72.201785000000001
0
LINE
8
LYELLOW
6
CONTINUOUS
10
56.6800569999999979
20
-72.201785000000001
11
56.7752949999999998
21
-72.1541660000000036
0
LINE
8
LYELLOW
6
CONTINUOUS
10
56.7752949999999998
20
-72.1541660000000036
11
56.9181519999999992
21
-72.1541660000000036
0
LINE
8
LYELLOW
6
CONTINUOUS
10
56.9181519999999992
20
-72.1541660000000036
11
57.013389999999994
21
-72.201785000000001
0
LINE
8
LYELLOW
6
CONTINUOUS
10
57.013389999999994
20
-72.201785000000001
11
57.0610089999999985
21
-72.2494039999999984
0
LINE
8
LYELLOW
6
CONTINUOUS
10
57.0610089999999985
20
-72.2494039999999984
11
57.108627999999996
21
-72.3446419999999932
0
LINE
8
LYELLOW
6
CONTINUOUS
10
57.108627999999996
20
-72.3446419999999932
11
57.108627999999996
21
-72.725594000000001
0
LINE
8
LYELLOW
6
CONTINUOUS
10
56.584818999999996
20
-71.8208319999999958
11
56.584818999999996
21
-71.201785000000001
0
LINE
8
LYELLOW
6
CONTINUOUS
10
56.584818999999996
20
-71.201785000000001
11
56.9657709999999966
21
-71.5351179999999971
0
LINE
8
LYELLOW
6
CONTINUOUS
10
56.9657709999999966
20
-71.5351179999999971
11
56.9657709999999966
21
-71.3922609999999906
0
LINE
8
LYELLOW
6
CONTINUOUS
10
56.9657709999999966
20
-71.3922609999999906
11
57.013389999999994
21
-71.2970229999999958
0
LINE
8
LYELLOW
6
CONTINUOUS
10
57.013389999999994
20
-71.2970229999999958
11
57.0610089999999985
21
-71.2494039999999984
0
LINE
8
LYELLOW
6
CONTINUOUS
10
57.0610089999999985
20
-71.2494039999999984
11
57.1562470000000005
21
-71.201785000000001
0
LINE
8
LYELLOW
6
CONTINUOUS
10
57.1562470000000005
20
-71.201785000000001
11
57.3943419999999946
21
-71.201785000000001
0
LINE
8
LYELLOW
6
CONTINUOUS
10
57.3943419999999946
20
-71.201785000000001
11
57.4895799999999966
21
-71.2494039999999984
0
LINE
8
LYELLOW
6
CONTINUOUS
10
57.4895799999999966
20
-71.2494039999999984
11
57.5371999999999986
21
-71.2970229999999958
0
LINE
8
LYELLOW
6
CONTINUOUS
10
57.5371999999999986
20
-71.2970229999999958
11
57.584818999999996
21
-71.3922609999999906
0
LINE
8
LYELLOW
6
CONTINUOUS
10
57.584818999999996
20
-71.3922609999999906
11
57.584818999999996
21
-71.6779750000000035
0
LINE
8
LYELLOW
6
CONTINUOUS
10
57.584818999999996
20
-71.6779750000000035
11
57.5371999999999986
21
-71.7732129999999984
0
LINE
8
LYELLOW
6
CONTINUOUS
10
57.5371999999999986
20
-71.7732129999999984
11
57.4895799999999966
21
-71.8208319999999958
0
LINE
8
LYELLOW
6
CONTINUOUS
10
78.9047609999999935
20
-38.7773189999999985
11
78.5714279999999974
21
-38.3011279999999985
0
LINE
8
LYELLOW
6
CONTINUOUS
10
78.3333329999999961
20
-38.7773189999999985
11
78.3333329999999961
21
-37.7773189999999985
0
LINE
8
LYELLOW
6
CONTINUOUS
10
78.3333329999999961
20
-37.7773189999999985
11
78.7142849999999896
21
-37.7773189999999985
0
LINE
8
LYELLOW
6
CONTINUOUS
10
78.7142849999999896
20
-37.7773189999999985
11
78.8095229999999987
21
-37.824937999999996
0
LINE
8
LYELLOW
6
CONTINUOUS
10
78.8095229999999987
20
-37.824937999999996
11
78.8571419999999961
21
-37.8725570000000005
0
LINE
8
LYELLOW
6
CONTINUOUS
10
78.8571419999999961
20
-37.8725570000000005
11
78.9047609999999935
21
-37.9677949999999953
0
LINE
8
LYELLOW
6
CONTINUOUS
10
78.9047609999999935
20
-37.9677949999999953
11
78.9047609999999935
21
-38.1106520000000017
0
LINE
8
LYELLOW
6
CONTINUOUS
10
78.9047609999999935
20
-38.1106520000000017
11
78.8571419999999961
21
-38.2058899999999966
0
LINE
8
LYELLOW
6
CONTINUOUS
10
78.8571419999999961
20
-38.2058899999999966
11
78.8095229999999987
21
-38.2535090000000011
0
LINE
8
LYELLOW
6
CONTINUOUS
10
78.8095229999999987
20
-38.2535090000000011
11
78.7142849999999896
21
-38.3011279999999985
0
LINE
8
LYELLOW
6
CONTINUOUS
10
78.7142849999999896
20
-38.3011279999999985
11
78.3333329999999961
21
-38.3011279999999985
0
LINE
8
LYELLOW
6
CONTINUOUS
10
79.1904759999999897
20
-37.7773189999999985
11
79.523809
21
-38.7773189999999985
0
LINE
8
LYELLOW
6
CONTINUOUS
10
79.523809
20
-38.7773189999999985
11
79.8571419999999961
21
-37.7773189999999985
0
LINE
8
LYELLOW
6
CONTINUOUS
10
80.7142849999999896
20
-38.7773189999999985
11
80.1428569999999922
21
-38.7773189999999985
0
LINE
8
LYELLOW
6
CONTINUOUS
10
80.4285709999999909
20
-38.7773189999999985
11
80.4285709999999909
21
-37.7773189999999985
0
LINE
8
LYELLOW
6
CONTINUOUS
10
80.4285709999999909
20
-37.7773189999999985
11
80.3333329999999961
21
-37.9201759999999979
0
LINE
8
LYELLOW
6
CONTINUOUS
10
80.3333329999999961
20
-37.9201759999999979
11
80.2380950000000013
21
-38.0154139999999998
0
LINE
8
LYELLOW
6
CONTINUOUS
10
80.2380950000000013
20
-38.0154139999999998
11
80.1428569999999922
21
-38.0630329999999972
0
LINE
8
LYELLOW
6
CONTINUOUS
10
81.584818999999996
20
-72.1541660000000036
11
81.108627999999996
21
-72.4874989999999997
0
LINE
8
LYELLOW
6
CONTINUOUS
10
81.584818999999996
20
-72.725594000000001
11
80.584818999999996
21
-72.725594000000001
0
LINE
8
LYELLOW
6
CONTINUOUS
10
80.584818999999996
20
-72.725594000000001
11
80.584818999999996
21
-72.3446419999999932
0
LINE
8
LYELLOW
6
CONTINUOUS
10
80.584818999999996
20
-72.3446419999999932
11
80.6324379999999934
21
-72.2494039999999984
0
LINE
8
LYELLOW
6
CONTINUOUS
10
80.6324379999999934
20
-72.2494039999999984
11
80.6800569999999908
21
-72.201785000000001
0
LINE
8
LYELLOW
6
CONTINUOUS
10
80.6800569999999908
20
-72.201785000000001
11
80.7752949999999998
21
-72.1541660000000036
0
LINE
8
LYELLOW
6
CONTINUOUS
10
80.7752949999999998
20
-72.1541660000000036
11
80.9181519999999921
21
-72.1541660000000036
0
LINE
8
LYELLOW
6
CONTINUOUS
10
80.9181519999999921
20
-72.1541660000000036
11
81.0133900000000011
21
-72.201785000000001
0
LINE
8
LYELLOW
6
CONTINUOUS
10
81.0133900000000011
20
-72.201785000000001
11
81.0610089999999985
21
-72.2494039999999984
0
LINE
8
LYELLOW
6
CONTINUOUS
10
81.0610089999999985
20
-72.2494039999999984
11
81.108627999999996
21
-72.3446419999999932
0
LINE
8
LYELLOW
6
CONTINUOUS
10
81.108627999999996
20
-72.3446419999999932
11
81.108627999999996
21
-72.725594000000001
0
LINE
8
LYELLOW
6
CONTINUOUS
10
80.584818999999996
20
-71.2970229999999958
11
80.584818999999996
21
-71.4874989999999997
0
LINE
8
LYELLOW
6
CONTINUOUS
10
80.584818999999996
20
-71.4874989999999997
11
80.6324379999999934
21
-71.5827369999999945
0
LINE
8
LYELLOW
6
CONTINUOUS
10
80.6324379999999934
20
-71.5827369999999945
11
80.6800569999999908
21
-71.6303559999999919
0
LINE
8
LYELLOW
6
CONTINUOUS
10
80.6800569999999908
20
-71.6303559999999919
11
80.8229139999999973
21
-71.725594000000001
0
LINE
8
LYELLOW
6
CONTINUOUS
10
80.8229139999999973
20
-71.725594000000001
11
81.0133900000000011
21
-71.7732129999999984
0
LINE
8
LYELLOW
6
CONTINUOUS
10
81.0133900000000011
20
-71.7732129999999984
11
81.3943419999999946
21
-71.7732129999999984
0
LINE
8
LYELLOW
6
CONTINUOUS
10
81.3943419999999946
20
-71.7732129999999984
11
81.4895799999999895
21
-71.725594000000001
0
LINE
8
LYELLOW
6
CONTINUOUS
10
81.4895799999999895
20
-71.725594000000001
11
81.5371999999999986
21
-71.6779750000000035
0
LINE
8
LYELLOW
6
CONTINUOUS
10
81.5371999999999986
20
-71.6779750000000035
11
81.584818999999996
21
-71.5827369999999945
0
LINE
8
LYELLOW
6
CONTINUOUS
10
81.584818999999996
20
-71.5827369999999945
11
81.584818999999996
21
-71.3922609999999906
0
LINE
8
LYELLOW
6
CONTINUOUS
10
81.584818999999996
20
-71.3922609999999906
11
81.5371999999999986
21
-71.2970229999999958
0
LINE
8
LYELLOW
6
CONTINUOUS
10
81.5371999999999986
20
-71.2970229999999958
11
81.4895799999999895
21
-71.2494039999999984
0
LINE
8
LYELLOW
6
CONTINUOUS
10
81.4895799999999895
20
-71.2494039999999984
11
81.3943419999999946
21
-71.201785000000001
0
LINE
8
LYELLOW
6
CONTINUOUS
10
81.3943419999999946
20
-71.201785000000001
11
81.1562469999999934
21
-71.201785000000001
0
LINE
8
LYELLOW
6
CONTINUOUS
10
81.1562469999999934
20
-71.201785000000001
11
81.0610089999999985
21
-71.2494039999999984
0
LINE
8
LYELLOW
6
CONTINUOUS
10
81.0610089999999985
20
-71.2494039999999984
11
81.0133900000000011
21
-71.2970229999999958
0
LINE
8
LYELLOW
6
CONTINUOUS
10
81.0133900000000011
20
-71.2970229999999958
11
80.9657709999999895
21
-71.3922609999999906
0
LINE
8
LYELLOW
6
CONTINUOUS
10
80.9657709999999895
20
-71.3922609999999906
11
80.9657709999999895
21
-71.5827369999999945
0
LINE
8
LYELLOW
6
CONTINUOUS
10
80.9657709999999895
20
-71.5827369999999945
11
81.0133900000000011
21
-71.6779750000000035
0
LINE
8
LYELLOW
6
CONTINUOUS
10
81.0133900000000011
20
-71.6779750000000035
11
81.0610089999999985
21
-71.725594000000001
0
LINE
8
LYELLOW
6
CONTINUOUS
10
81.0610089999999985
20
-71.725594000000001
11
81.1562469999999934
21
-71.7732129999999984
0
LINE
8
LYELLOW
6
CONTINUOUS
10
57.834818999999996
20
-43.725594000000001
11
56.834818999999996
21
-43.725594000000001
0
LINE
8
LYELLOW
6
CONTINUOUS
10
56.834818999999996
20
-43.725594000000001
11
56.834818999999996
21
-43.4874989999999997
0
LINE
8
LYELLOW
6
CONTINUOUS
10
56.834818999999996
20
-43.4874989999999997
11
56.8824380000000005
21
-43.3446420000000003
0
LINE
8
LYELLOW
6
CONTINUOUS
10
56.8824380000000005
20
-43.3446420000000003
11
56.9776759999999953
21
-43.2494039999999984
0
LINE
8
LYELLOW
6
CONTINUOUS
10
56.9776759999999953
20
-43.2494039999999984
11
57.0729139999999973
21
-43.201785000000001
0
LINE
8
LYELLOW
6
CONTINUOUS
10
57.0729139999999973
20
-43.201785000000001
11
57.263389999999994
21
-43.1541659999999965
0
LINE
8
LYELLOW
6
CONTINUOUS
10
57.263389999999994
20
-43.1541659999999965
11
57.4062470000000005
21
-43.1541659999999965
0
LINE
8
LYELLOW
6
CONTINUOUS
10
57.4062470000000005
20
-43.1541659999999965
11
57.5967229999999972
21
-43.201785000000001
0
LINE
8
LYELLOW
6
CONTINUOUS
10
57.5967229999999972
20
-43.201785000000001
11
57.6919609999999992
21
-43.2494039999999984
0
LINE
8
LYELLOW
6
CONTINUOUS
10
57.6919609999999992
20
-43.2494039999999984
11
57.7871999999999986
21
-43.3446420000000003
0
LINE
8
LYELLOW
6
CONTINUOUS
10
57.7871999999999986
20
-43.3446420000000003
11
57.834818999999996
21
-43.4874989999999997
0
LINE
8
LYELLOW
6
CONTINUOUS
10
57.834818999999996
20
-43.4874989999999997
11
57.834818999999996
21
-43.725594000000001
0
LINE
8
LYELLOW
6
CONTINUOUS
10
57.834818999999996
20
-42.201785000000001
11
57.834818999999996
21
-42.7732129999999984
0
LINE
8
LYELLOW
6
CONTINUOUS
10
57.834818999999996
20
-42.4874989999999997
11
56.834818999999996
21
-42.4874989999999997
0
LINE
8
LYELLOW
6
CONTINUOUS
10
56.834818999999996
20
-42.4874989999999997
11
56.9776759999999953
21
-42.5827370000000016
0
LINE
8
LYELLOW
6
CONTINUOUS
10
56.9776759999999953
20
-42.5827370000000016
11
57.0729139999999973
21
-42.6779749999999964
0
LINE
8
LYELLOW
6
CONTINUOUS
10
57.0729139999999973
20
-42.6779749999999964
11
57.1205329999999947
21
-42.7732129999999984
0
LINE
8
LYELLOW
6
CONTINUOUS
10
58.1548189999999963
20
-47.0594040000000007
11
57.1548189999999963
21
-47.0594040000000007
0
LINE
8
LYELLOW
6
CONTINUOUS
10
58.1548189999999963
20
-46.4879759999999962
11
57.5833899999999943
21
-46.9165470000000013
0
LINE
8
LYELLOW
6
CONTINUOUS
10
57.1548189999999963
20
-46.4879759999999962
11
57.7262470000000008
21
-47.0594040000000007
0
LINE
8
LYELLOW
6
CONTINUOUS
10
49.584818999999996
20
-43.1541659999999965
11
49.108627999999996
21
-43.4874989999999997
0
LINE
8
LYELLOW
6
CONTINUOUS
10
49.584818999999996
20
-43.725594000000001
11
48.584818999999996
21
-43.725594000000001
0
LINE
8
LYELLOW
6
CONTINUOUS
10
48.584818999999996
20
-43.725594000000001
11
48.584818999999996
21
-43.3446420000000003
0
LINE
8
LYELLOW
6
CONTINUOUS
10
48.584818999999996
20
-43.3446420000000003
11
48.6324380000000005
21
-43.2494039999999984
0
LINE
8
LYELLOW
6
CONTINUOUS
10
48.6324380000000005
20
-43.2494039999999984
11
48.6800569999999979
21
-43.201785000000001
0
LINE
8
LYELLOW
6
CONTINUOUS
10
48.6800569999999979
20
-43.201785000000001
11
48.7752949999999998
21
-43.1541659999999965
0
LINE
8
LYELLOW
6
CONTINUOUS
10
48.7752949999999998
20
-43.1541659999999965
11
48.9181519999999992
21
-43.1541659999999965
0
LINE
8
LYELLOW
6
CONTINUOUS
10
48.9181519999999992
20
-43.1541659999999965
11
49.0133900000000011
21
-43.201785000000001
0
LINE
8
LYELLOW
6
CONTINUOUS
10
49.0133900000000011
20
-43.201785000000001
11
49.0610089999999985
21
-43.2494039999999984
0
LINE
8
LYELLOW
6
CONTINUOUS
10
49.0610089999999985
20
-43.2494039999999984
11
49.108627999999996
21
-43.3446420000000003
0
LINE
8
LYELLOW
6
CONTINUOUS
10
49.108627999999996
20
-43.3446420000000003
11
49.108627999999996
21
-43.725594000000001
0
LINE
8
LYELLOW
6
CONTINUOUS
10
48.6800569999999979
20
-42.7732129999999984
11
48.6324380000000005
21
-42.725594000000001
0
LINE
8
LYELLOW
6
CONTINUOUS
10
48.6324380000000005
20
-42.725594000000001
11
48.584818999999996
21
-42.630355999999999
0
LINE
8
LYELLOW
6
CONTINUOUS
10
48.584818999999996
20
-42.630355999999999
11
48.584818999999996
21
-42.3922609999999978
0
LINE
8
LYELLOW
6
CONTINUOUS
10
48.584818999999996
20
-42.3922609999999978
11
48.6324380000000005
21
-42.2970229999999958
0
LINE
8
LYELLOW
6
CONTINUOUS
10
48.6324380000000005
20
-42.2970229999999958
11
48.6800569999999979
21
-42.2494039999999984
0
LINE
8
LYELLOW
6
CONTINUOUS
10
48.6800569999999979
20
-42.2494039999999984
11
48.7752949999999998
21
-42.201785000000001
0
LINE
8
LYELLOW
6
CONTINUOUS
10
48.7752949999999998
20
-42.201785000000001
11
48.8705329999999947
21
-42.201785000000001
0
LINE
8
LYELLOW
6
CONTINUOUS
10
48.8705329999999947
20
-42.201785000000001
11
49.0133900000000011
21
-42.2494039999999984
0
LINE
8
LYELLOW
6
CONTINUOUS
10
49.0133900000000011
20
-42.2494039999999984
11
49.584818999999996
21
-42.8208319999999958
0
LINE
8
LYELLOW
6
CONTINUOUS
10
49.584818999999996
20
-42.8208319999999958
11
49.584818999999996
21
-42.201785000000001
0
LINE
8
LYELLOW
6
CONTINUOUS
10
57.4306330000000003
20
-24.0970799999999983
11
57.3830139999999957
21
-24.1447000000000003
0
LINE
8
LYELLOW
6
CONTINUOUS
10
57.3830139999999957
20
-24.1447000000000003
11
57.2401569999999964
21
-24.1923189999999977
0
LINE
8
LYELLOW
6
CONTINUOUS
10
57.2401569999999964
20
-24.1923189999999977
11
57.1449189999999945
21
-24.1923189999999977
0
LINE
8
LYELLOW
6
CONTINUOUS
10
57.1449189999999945
20
-24.1923189999999977
11
57.0020619999999951
21
-24.1447000000000003
0
LINE
8
LYELLOW
6
CONTINUOUS
10
57.0020619999999951
20
-24.1447000000000003
11
56.9068240000000003
21
-24.0494609999999973
0
LINE
8
LYELLOW
6
CONTINUOUS
10
56.9068240000000003
20
-24.0494609999999973
11
56.8592049999999958
21
-23.9542229999999989
0
LINE
8
LYELLOW
6
CONTINUOUS
10
56.8592049999999958
20
-23.9542229999999989
11
56.8115859999999984
21
-23.7637469999999986
0
LINE
8
LYELLOW
6
CONTINUOUS
10
56.8115859999999984
20
-23.7637469999999986
11
56.8115859999999984
21
-23.6208899999999993
0
LINE
8
LYELLOW
6
CONTINUOUS
10
56.8115859999999984
20
-23.6208899999999993
11
56.8592049999999958
21
-23.430413999999999
0
LINE
8
LYELLOW
6
CONTINUOUS
10
56.8592049999999958
20
-23.430413999999999
11
56.9068240000000003
21
-23.3351760000000006
0
LINE
8
LYELLOW
6
CONTINUOUS
10
56.9068240000000003
20
-23.3351760000000006
11
57.0020619999999951
21
-23.2399379999999987
0
LINE
8
LYELLOW
6
CONTINUOUS
10
57.0020619999999951
20
-23.2399379999999987
11
57.1449189999999945
21
-23.1923189999999977
0
LINE
8
LYELLOW
6
CONTINUOUS
10
57.1449189999999945
20
-23.1923189999999977
11
57.2401569999999964
21
-23.1923189999999977
0
LINE
8
LYELLOW
6
CONTINUOUS
10
57.2401569999999964
20
-23.1923189999999977
11
57.3830139999999957
21
-23.2399379999999987
0
LINE
8
LYELLOW
6
CONTINUOUS
10
57.3830139999999957
20
-23.2399379999999987
11
57.4306330000000003
21
-23.2875569999999996
0
LINE
8
LYELLOW
6
CONTINUOUS
10
58.3830139999999957
20
-24.1923189999999977
11
57.8115859999999984
21
-24.1923189999999977
0
LINE
8
LYELLOW
6
CONTINUOUS
10
58.0972999999999971
20
-24.1923189999999977
11
58.0972999999999971
21
-23.1923189999999977
0
LINE
8
LYELLOW
6
CONTINUOUS
10
58.0972999999999971
20
-23.1923189999999977
11
58.0020619999999951
21
-23.3351760000000006
0
LINE
8
LYELLOW
6
CONTINUOUS
10
58.0020619999999951
20
-23.3351760000000006
11
57.9068240000000003
21
-23.430413999999999
0
LINE
8
LYELLOW
6
CONTINUOUS
10
57.9068240000000003
20
-23.430413999999999
11
57.8115859999999984
21
-23.4780329999999999
0
LINE
8
LYELLOW
6
CONTINUOUS
10
108.4047609999999935
20
-40.387557000000001
11
108.3095229999999987
21
-40.3399379999999965
0
LINE
8
LYELLOW
6
CONTINUOUS
10
108.3095229999999987
20
-40.3399379999999965
11
108.2142849999999896
21
-40.2447000000000017
0
LINE
8
LYELLOW
6
CONTINUOUS
10
108.2142849999999896
20
-40.2447000000000017
11
108.0714279999999974
21
-40.1018419999999978
0
LINE
8
LYELLOW
6
CONTINUOUS
10
108.0714279999999974
20
-40.1018419999999978
11
107.9761899999999883
21
-40.0542230000000004
0
LINE
8
LYELLOW
6
CONTINUOUS
10
107.9761899999999883
20
-40.0542230000000004
11
107.8809519999999935
21
-40.0542230000000004
0
LINE
8
LYELLOW
6
CONTINUOUS
10
107.9285709999999909
20
-40.2923189999999991
11
107.8333329999999961
21
-40.2447000000000017
0
LINE
8
LYELLOW
6
CONTINUOUS
10
107.8333329999999961
20
-40.2447000000000017
11
107.7380950000000013
21
-40.1494609999999952
0
LINE
8
LYELLOW
6
CONTINUOUS
10
107.7380950000000013
20
-40.1494609999999952
11
107.6904759999999897
21
-39.9589849999999984
0
LINE
8
LYELLOW
6
CONTINUOUS
10
107.6904759999999897
20
-39.9589849999999984
11
107.6904759999999897
21
-39.6256519999999952
0
LINE
8
LYELLOW
6
CONTINUOUS
10
107.6904759999999897
20
-39.6256519999999952
11
107.7380950000000013
21
-39.4351759999999985
0
LINE
8
LYELLOW
6
CONTINUOUS
10
107.7380950000000013
20
-39.4351759999999985
11
107.8333329999999961
21
-39.3399379999999965
0
LINE
8
LYELLOW
6
CONTINUOUS
10
107.8333329999999961
20
-39.3399379999999965
11
107.9285709999999909
21
-39.2923189999999991
0
LINE
8
LYELLOW
6
CONTINUOUS
10
107.9285709999999909
20
-39.2923189999999991
11
108.1190469999999948
21
-39.2923189999999991
0
LINE
8
LYELLOW
6
CONTINUOUS
10
108.1190469999999948
20
-39.2923189999999991
11
108.2142849999999896
21
-39.3399379999999965
0
LINE
8
LYELLOW
6
CONTINUOUS
10
108.2142849999999896
20
-39.3399379999999965
11
108.3095229999999987
21
-39.4351759999999985
0
LINE
8
LYELLOW
6
CONTINUOUS
10
108.3095229999999987
20
-39.4351759999999985
11
108.3571419999999961
21
-39.6256519999999952
0
LINE
8
LYELLOW
6
CONTINUOUS
10
108.3571419999999961
20
-39.6256519999999952
11
108.3571419999999961
21
-39.9589849999999984
0
LINE
8
LYELLOW
6
CONTINUOUS
10
108.3571419999999961
20
-39.9589849999999984
11
108.3095229999999987
21
-40.1494609999999952
0
LINE
8
LYELLOW
6
CONTINUOUS
10
108.3095229999999987
20
-40.1494609999999952
11
108.2142849999999896
21
-40.2447000000000017
0
LINE
8
LYELLOW
6
CONTINUOUS
10
108.2142849999999896
20
-40.2447000000000017
11
108.1190469999999948
21
-40.2923189999999991
0
LINE
8
LYELLOW
6
CONTINUOUS
10
108.1190469999999948
20
-40.2923189999999991
11
107.9285709999999909
21
-40.2923189999999991
0
LINE
8
LYELLOW
6
CONTINUOUS
10
109.3095229999999987
20
-40.2923189999999991
11
108.7380950000000013
21
-40.2923189999999991
0
LINE
8
LYELLOW
6
CONTINUOUS
10
109.023809
20
-40.2923189999999991
11
109.023809
21
-39.2923189999999991
0
LINE
8
LYELLOW
6
CONTINUOUS
10
109.023809
20
-39.2923189999999991
11
108.9285709999999909
21
-39.4351759999999985
0
LINE
8
LYELLOW
6
CONTINUOUS
10
108.9285709999999909
20
-39.4351759999999985
11
108.8333329999999961
21
-39.5304140000000004
0
LINE
8
LYELLOW
6
CONTINUOUS
10
108.8333329999999961
20
-39.5304140000000004
11
108.7380950000000013
21
-39.5780329999999978
0
LINE
8
LYELLOW
6
CONTINUOUS
10
91.7619049999999987
20
-87.3223189999999931
11
91.7619049999999987
21
-86.3223189999999931
0
LINE
8
LYELLOW
6
CONTINUOUS
10
91.7619049999999987
20
-86.3223189999999931
11
92.
21
-86.3223189999999931
0
LINE
8
LYELLOW
6
CONTINUOUS
10
92.
20
-86.3223189999999931
11
92.1428569999999922
21
-86.3699379999999906
0
LINE
8
LYELLOW
6
CONTINUOUS
10
92.1428569999999922
20
-86.3699379999999906
11
92.2380950000000013
21
-86.4651759999999996
0
LINE
8
LYELLOW
6
CONTINUOUS
10
92.2380950000000013
20
-86.4651759999999996
11
92.2857139999999987
21
-86.5604139999999944
0
LINE
8
LYELLOW
6
CONTINUOUS
10
92.2857139999999987
20
-86.5604139999999944
11
92.3333329999999961
21
-86.7508899999999983
0
LINE
8
LYELLOW
6
CONTINUOUS
10
92.3333329999999961
20
-86.7508899999999983
11
92.3333329999999961
21
-86.8937469999999905
0
LINE
8
LYELLOW
6
CONTINUOUS
10
92.3333329999999961
20
-86.8937469999999905
11
92.2857139999999987
21
-87.0842229999999944
0
LINE
8
LYELLOW
6
CONTINUOUS
10
92.2857139999999987
20
-87.0842229999999944
11
92.2380950000000013
21
-87.1794609999999892
0
LINE
8
LYELLOW
6
CONTINUOUS
10
92.2380950000000013
20
-87.1794609999999892
11
92.1428569999999922
21
-87.2746999999999957
0
LINE
8
LYELLOW
6
CONTINUOUS
10
92.1428569999999922
20
-87.2746999999999957
11
92.
21
-87.3223189999999931
0
LINE
8
LYELLOW
6
CONTINUOUS
10
92.
20
-87.3223189999999931
11
91.7619049999999987
21
-87.3223189999999931
0
LINE
8
LYELLOW
6
CONTINUOUS
10
93.1904759999999897
20
-86.6556519999999892
11
93.1904759999999897
21
-87.3223189999999931
0
LINE
8
LYELLOW
6
CONTINUOUS
10
92.9523810000000026
20
-86.2746999999999957
11
92.7142860000000013
21
-86.9889849999999996
0
LINE
8
LYELLOW
6
CONTINUOUS
10
92.7142860000000013
20
-86.9889849999999996
11
93.3333329999999961
21
-86.9889849999999996
0
LINE
8
LYELLOW
6
CONTINUOUS
10
88.428094999999999
20
-87.6423190000000005
11
88.428094999999999
21
-86.6423190000000005
0
LINE
8
LYELLOW
6
CONTINUOUS
10
88.9995229999999964
20
-87.6423190000000005
11
88.5709519999999912
21
-87.0708899999999915
0
LINE
8
LYELLOW
6
CONTINUOUS
10
88.9995229999999964
20
-86.6423190000000005
11
88.428094999999999
21
-87.2137469999999979
0
LINE
8
LYELLOW
6
CONTINUOUS
10
46.7380950000000013
20
-51.3023189999999971
11
46.7380950000000013
21
-52.1118419999999958
0
LINE
8
LYELLOW
6
CONTINUOUS
10
46.7380950000000013
20
-52.1118419999999958
11
46.7857139999999987
21
-52.2070799999999977
0
LINE
8
LYELLOW
6
CONTINUOUS
10
46.7857139999999987
20
-52.2070799999999977
11
46.8333329999999961
21
-52.2546999999999997
0
LINE
8
LYELLOW
6
CONTINUOUS
10
46.8333329999999961
20
-52.2546999999999997
11
46.928570999999998
21
-52.3023189999999971
0
LINE
8
LYELLOW
6
CONTINUOUS
10
46.928570999999998
20
-52.3023189999999971
11
47.1190469999999948
21
-52.3023189999999971
0
LINE
8
LYELLOW
6
CONTINUOUS
10
47.1190469999999948
20
-52.3023189999999971
11
47.2142849999999967
21
-52.2546999999999997
0
LINE
8
LYELLOW
6
CONTINUOUS
10
47.2142849999999967
20
-52.2546999999999997
11
47.2619040000000012
21
-52.2070799999999977
0
LINE
8
LYELLOW
6
CONTINUOUS
10
47.2619040000000012
20
-52.2070799999999977
11
47.3095229999999987
21
-52.1118419999999958
0
LINE
8
LYELLOW
6
CONTINUOUS
10
47.3095229999999987
20
-52.1118419999999958
11
47.3095229999999987
21
-51.3023189999999971
0
LINE
8
LYELLOW
6
CONTINUOUS
10
47.7380950000000013
20
-51.3975569999999991
11
47.7857139999999987
21
-51.3499379999999945
0
LINE
8
LYELLOW
6
CONTINUOUS
10
47.7857139999999987
20
-51.3499379999999945
11
47.8809520000000006
21
-51.3023189999999971
0
LINE
8
LYELLOW
6
CONTINUOUS
10
47.8809520000000006
20
-51.3023189999999971
11
48.1190469999999948
21
-51.3023189999999971
0
LINE
8
LYELLOW
6
CONTINUOUS
10
48.1190469999999948
20
-51.3023189999999971
11
48.2142849999999967
21
-51.3499379999999945
0
LINE
8
LYELLOW
6
CONTINUOUS
10
48.2142849999999967
20
-51.3499379999999945
11
48.2619040000000012
21
-51.3975569999999991
0
LINE
8
LYELLOW
6
CONTINUOUS
10
48.2619040000000012
20
-51.3975569999999991
11
48.3095229999999987
21
-51.492795000000001
0
LINE
8
LYELLOW
6
CONTINUOUS
10
48.3095229999999987
20
-51.492795000000001
11
48.3095229999999987
21
-51.5880329999999958
0
LINE
8
LYELLOW
6
CONTINUOUS
10
48.3095229999999987
20
-51.5880329999999958
11
48.2619040000000012
21
-51.7308899999999952
0
LINE
8
LYELLOW
6
CONTINUOUS
10
48.2619040000000012
20
-51.7308899999999952
11
47.6904759999999968
21
-52.3023189999999971
0
LINE
8
LYELLOW
6
CONTINUOUS
10
47.6904759999999968
20
-52.3023189999999971
11
48.3095229999999987
21
-52.3023189999999971
0
LINE
8
LYELLOW
6
CONTINUOUS
10
112.1666659999999922
20
-99.3623189999999994
11
112.1666659999999922
21
-100.076603999999989
0
LINE
8
LYELLOW
6
CONTINUOUS
10
112.1666659999999922
20
-100.076603999999989
11
112.1190469999999948
21
-100.2194609999999955
0
LINE
8
LYELLOW
6
CONTINUOUS
10
112.1190469999999948
20
-100.2194609999999955
11
112.023809
21
-100.314700000000002
0
LINE
8
LYELLOW
6
CONTINUOUS
10
112.023809
20
-100.314700000000002
11
111.8809519999999935
21
-100.3623189999999994
0
LINE
8
LYELLOW
6
CONTINUOUS
10
111.8809519999999935
20
-100.3623189999999994
11
111.7857139999999987
21
-100.3623189999999994
0
LINE
8
LYELLOW
6
CONTINUOUS
10
112.5476189999999974
20
-99.3623189999999994
11
113.1666659999999922
21
-99.3623189999999994
0
LINE
8
LYELLOW
6
CONTINUOUS
10
113.1666659999999922
20
-99.3623189999999994
11
112.8333329999999961
21
-99.7432709999999929
0
LINE
8
LYELLOW
6
CONTINUOUS
10
112.8333329999999961
20
-99.7432709999999929
11
112.9761899999999883
21
-99.7432709999999929
0
LINE
8
LYELLOW
6
CONTINUOUS
10
112.9761899999999883
20
-99.7432709999999929
11
113.0714279999999974
21
-99.7908899999999903
0
LINE
8
LYELLOW
6
CONTINUOUS
10
113.0714279999999974
20
-99.7908899999999903
11
113.1190469999999948
21
-99.8385090000000019
0
LINE
8
LYELLOW
6
CONTINUOUS
10
113.1190469999999948
20
-99.8385090000000019
11
113.1666659999999922
21
-99.9337469999999968
0
LINE
8
LYELLOW
6
CONTINUOUS
10
113.1666659999999922
20
-99.9337469999999968
11
113.1666659999999922
21
-100.1718419999999981
0
LINE
8
LYELLOW
6
CONTINUOUS
10
113.1666659999999922
20
-100.1718419999999981
11
113.1190469999999948
21
-100.2670799999999929
0
LINE
8
LYELLOW
6
CONTINUOUS
10
113.1190469999999948
20
-100.2670799999999929
11
113.0714279999999974
21
-100.314700000000002
0
LINE
8
LYELLOW
6
CONTINUOUS
10
113.0714279999999974
20
-100.314700000000002
11
112.9761899999999883
21
-100.3623189999999994
0
LINE
8
LYELLOW
6
CONTINUOUS
10
112.9761899999999883
20
-100.3623189999999994
11
112.6904759999999897
21
-100.3623189999999994
0
LINE
8
LYELLOW
6
CONTINUOUS
10
112.6904759999999897
20
-100.3623189999999994
11
112.5952379999999948
21
-100.314700000000002
0
LINE
8
LYELLOW
6
CONTINUOUS
10
112.5952379999999948
20
-100.314700000000002
11
112.5476189999999974
21
-100.2670799999999929
0
LINE
8
LYELLOW
6
CONTINUOUS
10
107.7619049999999987
20
-55.9723189999999988
11
107.7619049999999987
21
-54.9723189999999988
0
LINE
8
LYELLOW
6
CONTINUOUS
10
107.7619049999999987
20
-54.9723189999999988
11
108.
21
-54.9723189999999988
0
LINE
8
LYELLOW
6
CONTINUOUS
10
108.
20
-54.9723189999999988
11
108.1428569999999922
21
-55.0199379999999962
0
LINE
8
LYELLOW
6
CONTINUOUS
10
108.1428569999999922
20
-55.0199379999999962
11
108.2380950000000013
21
-55.1151759999999982
0
LINE
8
LYELLOW
6
CONTINUOUS
10
108.2380950000000013
20
-55.1151759999999982
11
108.2857139999999987
21
-55.2104140000000001
0
LINE
8
LYELLOW
6
CONTINUOUS
10
108.2857139999999987
20
-55.2104140000000001
11
108.3333329999999961
21
-55.4008899999999969
0
LINE
8
LYELLOW
6
CONTINUOUS
10
108.3333329999999961
20
-55.4008899999999969
11
108.3333329999999961
21
-55.5437469999999962
0
LINE
8
LYELLOW
6
CONTINUOUS
10
108.3333329999999961
20
-55.5437469999999962
11
108.2857139999999987
21
-55.7342230000000001
0
LINE
8
LYELLOW
6
CONTINUOUS
10
108.2857139999999987
20
-55.7342230000000001
11
108.2380950000000013
21
-55.8294609999999949
0
LINE
8
LYELLOW
6
CONTINUOUS
10
108.2380950000000013
20
-55.8294609999999949
11
108.1428569999999922
21
-55.9246999999999943
0
LINE
8
LYELLOW
6
CONTINUOUS
10
108.1428569999999922
20
-55.9246999999999943
11
108.
21
-55.9723189999999988
0
LINE
8
LYELLOW
6
CONTINUOUS
10
108.
20
-55.9723189999999988
11
107.7619049999999987
21
-55.9723189999999988
0
LINE
8
LYELLOW
6
CONTINUOUS
10
108.6666669999999897
20
-54.9723189999999988
11
109.2857139999999987
21
-54.9723189999999988
0
LINE
8
LYELLOW
6
CONTINUOUS
10
109.2857139999999987
20
-54.9723189999999988
11
108.9523809999999884
21
-55.3532709999999994
0
LINE
8
LYELLOW
6
CONTINUOUS
10
108.9523809999999884
20
-55.3532709999999994
11
109.0952379999999948
21
-55.3532709999999994
0
LINE
8
LYELLOW
6
CONTINUOUS
10
109.0952379999999948
20
-55.3532709999999994
11
109.1904759999999897
21
-55.4008899999999969
0
LINE
8
LYELLOW
6
CONTINUOUS
10
109.1904759999999897
20
-55.4008899999999969
11
109.2380950000000013
21
-55.4485089999999943
0
LINE
8
LYELLOW
6
CONTINUOUS
10
109.2380950000000013
20
-55.4485089999999943
11
109.2857139999999987
21
-55.5437469999999962
0
LINE
8
LYELLOW
6
CONTINUOUS
10
109.2857139999999987
20
-55.5437469999999962
11
109.2857139999999987
21
-55.7818419999999975
0
LINE
8
LYELLOW
6
CONTINUOUS
10
109.2857139999999987
20
-55.7818419999999975
11
109.2380950000000013
21
-55.8770799999999994
0
LINE
8
LYELLOW
6
CONTINUOUS
10
109.2380950000000013
20
-55.8770799999999994
11
109.1904759999999897
21
-55.9246999999999943
0
LINE
8
LYELLOW
6
CONTINUOUS
10
109.1904759999999897
20
-55.9246999999999943
11
109.0952379999999948
21
-55.9723189999999988
0
LINE
8
LYELLOW
6
CONTINUOUS
10
109.0952379999999948
20
-55.9723189999999988
11
108.8095239999999961
21
-55.9723189999999988
0
LINE
8
LYELLOW
6
CONTINUOUS
10
108.8095239999999961
20
-55.9723189999999988
11
108.7142860000000013
21
-55.9246999999999943
0
LINE
8
LYELLOW
6
CONTINUOUS
10
108.7142860000000013
20
-55.9246999999999943
11
108.6666669999999897
21
-55.8770799999999994
0
LINE
8
LYELLOW
6
CONTINUOUS
10
103.1580949999999888
20
-56.3423189999999963
11
103.1580949999999888
21
-55.3423189999999963
0
LINE
8
LYELLOW
6
CONTINUOUS
10
103.7295230000000004
20
-56.3423189999999963
11
103.3009519999999952
21
-55.7708899999999943
0
LINE
8
LYELLOW
6
CONTINUOUS
10
103.7295230000000004
20
-55.3423189999999963
11
103.1580949999999888
21
-55.9137470000000008
0
LINE
8
LYELLOW
6
CONTINUOUS
10
44.7380950000000013
20
-25.2923189999999991
11
44.7380950000000013
21
-26.1018419999999978
0
LINE
8
LYELLOW
6
CONTINUOUS
10
44.7380950000000013
20
-26.1018419999999978
11
44.7857139999999987
21
-26.1970799999999997
0
LINE
8
LYELLOW
6
CONTINUOUS
10
44.7857139999999987
20
-26.1970799999999997
11
44.8333329999999961
21
-26.2446999999999981
0
LINE
8
LYELLOW
6
CONTINUOUS
10
44.8333329999999961
20
-26.2446999999999981
11
44.928570999999998
21
-26.2923189999999991
0
LINE
8
LYELLOW
6
CONTINUOUS
10
44.928570999999998
20
-26.2923189999999991
11
45.1190469999999948
21
-26.2923189999999991
0
LINE
8
LYELLOW
6
CONTINUOUS
10
45.1190469999999948
20
-26.2923189999999991
11
45.2142849999999967
21
-26.2446999999999981
0
LINE
8
LYELLOW
6
CONTINUOUS
10
45.2142849999999967
20
-26.2446999999999981
11
45.2619040000000012
21
-26.1970799999999997
0
LINE
8
LYELLOW
6
CONTINUOUS
10
45.2619040000000012
20
-26.1970799999999997
11
45.3095229999999987
21
-26.1018419999999978
0
LINE
8
LYELLOW
6
CONTINUOUS
10
45.3095229999999987
20
-26.1018419999999978
11
45.3095229999999987
21
-25.2923189999999991
0
LINE
8
LYELLOW
6
CONTINUOUS
10
46.3095229999999987
20
-26.2923189999999991
11
45.7380950000000013
21
-26.2923189999999991
0
LINE
8
LYELLOW
6
CONTINUOUS
10
46.023809
20
-26.2923189999999991
11
46.023809
21
-25.2923189999999991
0
LINE
8
LYELLOW
6
CONTINUOUS
10
46.023809
20
-25.2923189999999991
11
45.928570999999998
21
-25.4351759999999985
0
LINE
8
LYELLOW
6
CONTINUOUS
10
45.928570999999998
20
-25.4351759999999985
11
45.8333329999999961
21
-25.5304140000000004
0
LINE
8
LYELLOW
6
CONTINUOUS
10
45.8333329999999961
20
-25.5304140000000004
11
45.7380950000000013
21
-25.5780329999999978
0
LINE
8
LYELLOW
6
CONTINUOUS
10
99.584818999999996
20
-92.1541659999999894
11
99.108627999999996
21
-92.4874989999999997
0
LINE
8
LYELLOW
6
CONTINUOUS
10
99.584818999999996
20
-92.725594000000001
11
98.584818999999996
21
-92.725594000000001
0
LINE
8
LYELLOW
6
CONTINUOUS
10
98.584818999999996
20
-92.725594000000001
11
98.584818999999996
21
-92.3446419999999932
0
LINE
8
LYELLOW
6
CONTINUOUS
10
98.584818999999996
20
-92.3446419999999932
11
98.6324379999999934
21
-92.2494039999999984
0
LINE
8
LYELLOW
6
CONTINUOUS
10
98.6324379999999934
20
-92.2494039999999984
11
98.6800569999999908
21
-92.201785000000001
0
LINE
8
LYELLOW
6
CONTINUOUS
10
98.6800569999999908
20
-92.201785000000001
11
98.7752949999999998
21
-92.1541659999999894
0
LINE
8
LYELLOW
6
CONTINUOUS
10
98.7752949999999998
20
-92.1541659999999894
11
98.9181519999999921
21
-92.1541659999999894
0
LINE
8
LYELLOW
6
CONTINUOUS
10
98.9181519999999921
20
-92.1541659999999894
11
99.0133900000000011
21
-92.201785000000001
0
LINE
8
LYELLOW
6
CONTINUOUS
10
99.0133900000000011
20
-92.201785000000001
11
99.0610089999999985
21
-92.2494039999999984
0
LINE
8
LYELLOW
6
CONTINUOUS
10
99.0610089999999985
20
-92.2494039999999984
11
99.108627999999996
21
-92.3446419999999932
0
LINE
8
LYELLOW
6
CONTINUOUS
10
99.108627999999996
20
-92.3446419999999932
11
99.108627999999996
21
-92.725594000000001
0
LINE
8
LYELLOW
6
CONTINUOUS
10
98.584818999999996
20
-91.2494039999999984
11
98.584818999999996
21
-91.725594000000001
0
LINE
8
LYELLOW
6
CONTINUOUS
10
98.584818999999996
20
-91.725594000000001
11
99.0610089999999985
21
-91.7732129999999984
0
LINE
8
LYELLOW
6
CONTINUOUS
10
99.0610089999999985
20
-91.7732129999999984
11
99.0133900000000011
21
-91.725594000000001
0
LINE
8
LYELLOW
6
CONTINUOUS
10
99.0133900000000011
20
-91.725594000000001
11
98.9657709999999895
21
-91.6303559999999919
0
LINE
8
LYELLOW
6
CONTINUOUS
10
98.9657709999999895
20
-91.6303559999999919
11
98.9657709999999895
21
-91.3922609999999906
0
LINE
8
LYELLOW
6
CONTINUOUS
10
98.9657709999999895
20
-91.3922609999999906
11
99.0133900000000011
21
-91.2970229999999958
0
LINE
8
LYELLOW
6
CONTINUOUS
10
99.0133900000000011
20
-91.2970229999999958
11
99.0610089999999985
21
-91.2494039999999984
0
LINE
8
LYELLOW
6
CONTINUOUS
10
99.0610089999999985
20
-91.2494039999999984
11
99.1562469999999934
21
-91.201785000000001
0
LINE
8
LYELLOW
6
CONTINUOUS
10
99.1562469999999934
20
-91.201785000000001
11
99.3943419999999946
21
-91.201785000000001
0
LINE
8
LYELLOW
6
CONTINUOUS
10
99.3943419999999946
20
-91.201785000000001
11
99.4895799999999895
21
-91.2494039999999984
0
LINE
8
LYELLOW
6
CONTINUOUS
10
99.4895799999999895
20
-91.2494039999999984
11
99.5371999999999986
21
-91.2970229999999958
0
LINE
8
LYELLOW
6
CONTINUOUS
10
99.5371999999999986
20
-91.2970229999999958
11
99.584818999999996
21
-91.3922609999999906
0
LINE
8
LYELLOW
6
CONTINUOUS
10
99.584818999999996
20
-91.3922609999999906
11
99.584818999999996
21
-91.6303559999999919
0
LINE
8
LYELLOW
6
CONTINUOUS
10
99.584818999999996
20
-91.6303559999999919
11
99.5371999999999986
21
-91.725594000000001
0
LINE
8
LYELLOW
6
CONTINUOUS
10
99.5371999999999986
20
-91.725594000000001
11
99.4895799999999895
21
-91.7732129999999984
0
LINE
8
LYELLOW
6
CONTINUOUS
10
75.1876019999999983
20
-26.6724999999999994
11
75.9876019999999954
21
-26.6724999999999994
0
LINE
8
LYELLOW
6
CONTINUOUS
10
75.5876019999999897
20
-26.2724999999999973
11
75.5876019999999897
21
-27.072499999999998
0
LINE
8
LYELLOW
6
CONTINUOUS
10
79.59729999999999
20
-24.9074999999999989
11
79.59729999999999
21
-33.0674999999999955
0
LINE
8
LYELLOW
6
CONTINUOUS
10
79.6372999999999962
20
-24.9074999999999989
11
79.6372999999999962
21
-33.0674999999999955
0
LINE
8
LYELLOW
6
CONTINUOUS
10
79.6773000000000025
20
-24.9085000000000001
11
79.6773000000000025
21
-33.0664999999999978
0
LINE
8
LYELLOW
6
CONTINUOUS
10
79.7172999999999945
20
-24.9094999999999978
11
79.7172999999999945
21
-33.0655000000000001
0
LINE
8
LYELLOW
6
CONTINUOUS
10
79.7573000000000008
20
-24.910499999999999
11
79.7573000000000008
21
-33.0644999999999953
0
LINE
8
LYELLOW
6
CONTINUOUS
10
79.7972999999999928
20
-24.9124999999999979
11
79.7972999999999928
21
-33.0625
0
LINE
8
LYELLOW
6
CONTINUOUS
10
79.837299999999999
20
-24.9145000000000003
11
79.837299999999999
21
-33.0604999999999976
0
LINE
8
LYELLOW
6
CONTINUOUS
10
79.8772999999999911
20
-24.9175000000000004
11
79.8772999999999911
21
-33.0574999999999974
0
LINE
8
LYELLOW
6
CONTINUOUS
10
79.9172999999999973
20
-24.9194999999999993
11
79.9172999999999973
21
-33.055499999999995
0
LINE
8
LYELLOW
6
CONTINUOUS
10
79.9572999999999894
20
-24.9234999999999971
11
79.9572999999999894
21
-33.0514999999999972
0
LINE
8
LYELLOW
6
CONTINUOUS
10
79.9972999999999956
20
-24.9264999999999972
11
79.9972999999999956
21
-33.0484999999999971
0
LINE
8
LYELLOW
6
CONTINUOUS
10
80.0373000000000019
20
-24.9314999999999998
11
80.0373000000000019
21
-33.0435000000000016
0
LINE
8
LYELLOW
6
CONTINUOUS
10
80.0772999999999939
20
-24.9354999999999976
11
80.0772999999999939
21
-33.0394999999999968
0
LINE
8
LYELLOW
6
CONTINUOUS
10
80.1173000000000002
20
-24.9405000000000001
11
80.1173000000000002
21
-33.0345000000000013
0
LINE
8
LYELLOW
6
CONTINUOUS
10
80.1572999999999922
20
-24.9454999999999991
11
80.1572999999999922
21
-33.0294999999999987
0
LINE
8
LYELLOW
6
CONTINUOUS
10
80.1972999999999985
20
-24.9514999999999993
11
80.1972999999999985
21
-33.0234999999999985
0
LINE
8
LYELLOW
6
CONTINUOUS
10
80.2372999999999905
20
-24.9574999999999996
11
80.2372999999999905
21
-33.0174999999999983
0
LINE
8
LYELLOW
6
CONTINUOUS
10
80.2772999999999968
20
-24.9644999999999975
11
80.2772999999999968
21
-33.0105000000000004
0
LINE
8
LYELLOW
6
CONTINUOUS
10
80.317300000000003
20
-24.9704999999999977
11
80.317300000000003
21
-27.947499999999998
0
LINE
8
LYELLOW
6
CONTINUOUS
10
80.317300000000003
20
-30.0274999999999999
11
80.317300000000003
21
-33.0045000000000002
0
LINE
8
LYELLOW
6
CONTINUOUS
10
80.3572999999999951
20
-24.9785000000000004
11
80.3572999999999951
21
-27.947499999999998
0
LINE
8
LYELLOW
6
CONTINUOUS
10
80.3572999999999951
20
-30.0274999999999999
11
80.3572999999999951
21
-32.9964999999999975
0
LINE
8
LYELLOW
6
CONTINUOUS
10
80.3973000000000013
20
-24.9854999999999983
11
80.3973000000000013
21
-27.947499999999998
0
LINE
8
LYELLOW
6
CONTINUOUS
10
80.3973000000000013
20
-30.0274999999999999
11
80.3973000000000013
21
-32.9894999999999996
0
LINE
8
LYELLOW
6
CONTINUOUS
10
80.4372999999999934
20
-24.9944999999999986
11
80.4372999999999934
21
-27.947499999999998
0
LINE
8
LYELLOW
6
CONTINUOUS
10
80.4372999999999934
20
-30.0274999999999999
11
80.4372999999999934
21
-32.9804999999999993
0
LINE
8
LYELLOW
6
CONTINUOUS
10
80.4772999999999996
20
-25.0024999999999977
11
80.4772999999999996
21
-27.947499999999998
0
LINE
8
LYELLOW
6
CONTINUOUS
10
80.4772999999999996
20
-30.0274999999999999
11
80.4772999999999996
21
-32.9724999999999966
0
LINE
8
LYELLOW
6
CONTINUOUS
10
80.5172999999999917
20
-25.0114999999999981
11
80.5172999999999917
21
-27.947499999999998
0
LINE
8
LYELLOW
6
CONTINUOUS
10
80.5172999999999917
20
-30.0274999999999999
11
80.5172999999999917
21
-32.9634999999999962
0
LINE
8
LYELLOW
6
CONTINUOUS
10
80.5572999999999979
20
-25.0204999999999984
11
80.5572999999999979
21
-27.947499999999998
0
LINE
8
LYELLOW
6
CONTINUOUS
10
80.5572999999999979
20
-30.0274999999999999
11
80.5572999999999979
21
-32.9544999999999959
0
LINE
8
LYELLOW
6
CONTINUOUS
10
80.59729999999999
20
-25.0305
11
80.59729999999999
21
-27.947499999999998
0
LINE
8
LYELLOW
6
CONTINUOUS
10
80.59729999999999
20
-30.0274999999999999
11
80.59729999999999
21
-32.9444999999999979
0
LINE
8
LYELLOW
6
CONTINUOUS
10
80.6372999999999962
20
-25.040499999999998
11
80.6372999999999962
21
-27.947499999999998
0
LINE
8
LYELLOW
6
CONTINUOUS
10
80.6372999999999962
20
-30.0274999999999999
11
80.6372999999999962
21
-32.9344999999999999
0
LINE
8
LYELLOW
6
CONTINUOUS
10
80.6773000000000025
20
-25.0514999999999972
11
80.6773000000000025
21
-27.947499999999998
0
LINE
8
LYELLOW
6
CONTINUOUS
10
80.6773000000000025
20
-30.0274999999999999
11
80.6773000000000025
21
-32.9234999999999971
0
LINE
8
LYELLOW
6
CONTINUOUS
10
80.7172999999999945
20
-25.0625
11
80.7172999999999945
21
-27.947499999999998
0
LINE
8
LYELLOW
6
CONTINUOUS
10
80.7172999999999945
20
-30.0274999999999999
11
80.7172999999999945
21
-32.9125000000000014
0
LINE
8
LYELLOW
6
CONTINUOUS
10
80.7573000000000008
20
-25.0745000000000005
11
80.7573000000000008
21
-27.947499999999998
0
LINE
8
LYELLOW
6
CONTINUOUS
10
80.7573000000000008
20
-30.0274999999999999
11
80.7573000000000008
21
-32.900500000000001
0
LINE
8
LYELLOW
6
CONTINUOUS
10
80.7972999999999928
20
-25.0864999999999974
11
80.7972999999999928
21
-27.947499999999998
0
LINE
8
LYELLOW
6
CONTINUOUS
10
80.7972999999999928
20
-30.0274999999999999
11
80.7972999999999928
21
-32.8885000000000005
0
LINE
8
LYELLOW
6
CONTINUOUS
10
80.837299999999999
20
-25.0984999999999978
11
80.837299999999999
21
-27.947499999999998
0
LINE
8
LYELLOW
6
CONTINUOUS
10
80.837299999999999
20
-30.0274999999999999
11
80.837299999999999
21
-32.8765000000000001
0
LINE
8
LYELLOW
6
CONTINUOUS
10
80.8772999999999911
20
-25.1114999999999995
11
80.8772999999999911
21
-27.947499999999998
0
LINE
8
LYELLOW
6
CONTINUOUS
10
80.8772999999999911
20
-30.0274999999999999
11
80.8772999999999911
21
-32.8635000000000019
0
LINE
8
LYELLOW
6
CONTINUOUS
10
80.9172999999999973
20
-25.1244999999999976
11
80.9172999999999973
21
-27.947499999999998
0
LINE
8
LYELLOW
6
CONTINUOUS
10
80.9172999999999973
20
-30.0274999999999999
11
80.9172999999999973
21
-32.8504999999999967
0
LINE
8
LYELLOW
6
CONTINUOUS
10
80.9572999999999894
20
-25.1385000000000005
11
80.9572999999999894
21
-27.947499999999998
0
LINE
8
LYELLOW
6
CONTINUOUS
10
80.9572999999999894
20
-30.0274999999999999
11
80.9572999999999894
21
-32.8365000000000009
0
LINE
8
LYELLOW
6
CONTINUOUS
10
80.9972999999999956
20
-25.1524999999999999
11
80.9972999999999956
21
-27.947499999999998
0
LINE
8
LYELLOW
6
CONTINUOUS
10
80.9972999999999956
20
-30.0274999999999999
11
80.9972999999999956
21
-32.822499999999998
0
LINE
8
LYELLOW
6
CONTINUOUS
10
81.0373000000000019
20
-25.1675000000000004
11
81.0373000000000019
21
-27.947499999999998
0
LINE
8
LYELLOW
6
CONTINUOUS
10
81.0373000000000019
20
-30.0274999999999999
11
81.0373000000000019
21
-32.8074999999999974
0
LINE
8
LYELLOW
6
CONTINUOUS
10
81.0772999999999939
20
-25.1824999999999974
11
81.0772999999999939
21
-27.947499999999998
0
LINE
8
LYELLOW
6
CONTINUOUS
10
81.0772999999999939
20
-30.0274999999999999
11
81.0772999999999939
21
-32.7924999999999969
0
LINE
8
LYELLOW
6
CONTINUOUS
10
81.1173000000000002
20
-25.1984999999999992
11
81.1173000000000002
21
-27.947499999999998
0
LINE
8
LYELLOW
6
CONTINUOUS
10
81.1173000000000002
20
-30.0274999999999999
11
81.1173000000000002
21
-32.7764999999999986
0
LINE
8
LYELLOW
6
CONTINUOUS
10
81.1572999999999922
20
-25.2144999999999975
11
81.1572999999999922
21
-27.947499999999998
0
LINE
8
LYELLOW
6
CONTINUOUS
10
81.1572999999999922
20
-30.0274999999999999
11
81.1572999999999922
21
-32.7605000000000004
0
LINE
8
LYELLOW
6
CONTINUOUS
10
81.1972999999999985
20
-25.2304999999999993
11
81.1972999999999985
21
-27.947499999999998
0
LINE
8
LYELLOW
6
CONTINUOUS
10
81.1972999999999985
20
-30.0274999999999999
11
81.1972999999999985
21
-32.7444999999999951
0
LINE
8
LYELLOW
6
CONTINUOUS
10
81.2372999999999905
20
-25.2474999999999987
11
81.2372999999999905
21
-27.947499999999998
0
LINE
8
LYELLOW
6
CONTINUOUS
10
81.2372999999999905
20
-30.0274999999999999
11
81.2372999999999905
21
-32.7274999999999991
0
LINE
8
LYELLOW
6
CONTINUOUS
10
81.2772999999999968
20
-25.2654999999999994
11
81.2772999999999968
21
-27.947499999999998
0
LINE
8
LYELLOW
6
CONTINUOUS
10
81.2772999999999968
20
-30.0274999999999999
11
81.2772999999999968
21
-32.7094999999999985
0
LINE
8
LYELLOW
6
CONTINUOUS
10
81.317300000000003
20
-25.2835000000000001
11
81.317300000000003
21
-27.947499999999998
0
LINE
8
LYELLOW
6
CONTINUOUS
10
81.317300000000003
20
-30.0274999999999999
11
81.317300000000003
21
-32.6914999999999978
0
LINE
8
LYELLOW
6
CONTINUOUS
10
81.3572999999999951
20
-25.3024999999999984
11
81.3572999999999951
21
-27.947499999999998
0
LINE
8
LYELLOW
6
CONTINUOUS
10
81.3572999999999951
20
-30.0274999999999999
11
81.3572999999999951
21
-32.6724999999999994
0
LINE
8
LYELLOW
6
CONTINUOUS
10
81.3973000000000013
20
-25.3215000000000003
11
81.3973000000000013
21
-27.947499999999998
0
LINE
8
LYELLOW
6
CONTINUOUS
10
81.3973000000000013
20
-30.0274999999999999
11
81.3973000000000013
21
-32.6535000000000011
0
LINE
8
LYELLOW
6
CONTINUOUS
10
81.4372999999999934
20
-25.3414999999999999
11
81.4372999999999934
21
-27.947499999999998
0
LINE
8
LYELLOW
6
CONTINUOUS
10
81.4372999999999934
20
-30.0274999999999999
11
81.4372999999999934
21
-32.633499999999998
0
LINE
8
LYELLOW
6
CONTINUOUS
10
81.4772999999999996
20
-25.3614999999999995
11
81.4772999999999996
21
-27.947499999999998
0
LINE
8
LYELLOW
6
CONTINUOUS
10
81.4772999999999996
20
-30.0274999999999999
11
81.4772999999999996
21
-32.6135000000000019
0
LINE
8
LYELLOW
6
CONTINUOUS
10
81.5172999999999917
20
-25.3825000000000003
11
81.5172999999999917
21
-27.947499999999998
0
LINE
8
LYELLOW
6
CONTINUOUS
10
81.5172999999999917
20
-30.0274999999999999
11
81.5172999999999917
21
-32.5925000000000011
0
LINE
8
LYELLOW
6
CONTINUOUS
10
81.5572999999999979
20
-25.4034999999999975
11
81.5572999999999979
21
-27.947499999999998
0
LINE
8
LYELLOW
6
CONTINUOUS
10
81.5572999999999979
20
-30.0274999999999999
11
81.5572999999999979
21
-32.5715000000000003
0
LINE
8
LYELLOW
6
CONTINUOUS
10
81.59729999999999
20
-25.4254999999999995
11
81.59729999999999
21
-27.947499999999998
0
LINE
8
LYELLOW
6
CONTINUOUS
10
81.59729999999999
20
-30.0274999999999999
11
81.59729999999999
21
-32.5495000000000019
0
LINE
8
LYELLOW
6
CONTINUOUS
10
81.6372999999999962
20
-25.4484999999999992
11
81.6372999999999962
21
-27.947499999999998
0
LINE
8
LYELLOW
6
CONTINUOUS
10
81.6372999999999962
20
-30.0274999999999999
11
81.6372999999999962
21
-32.5264999999999986
0
LINE
8
LYELLOW
6
CONTINUOUS
10
81.6773000000000025
20
-25.4714999999999989
11
81.6773000000000025
21
-27.947499999999998
0
LINE
8
LYELLOW
6
CONTINUOUS
10
81.6773000000000025
20
-30.0274999999999999
11
81.6773000000000025
21
-32.5034999999999954
0
LINE
8
LYELLOW
6
CONTINUOUS
10
81.7172999999999945
20
-25.4944999999999986
11
81.7172999999999945
21
-27.947499999999998
0
LINE
8
LYELLOW
6
CONTINUOUS
10
81.7172999999999945
20
-30.0274999999999999
11
81.7172999999999945
21
-32.4804999999999993
0
LINE
8
LYELLOW
6
CONTINUOUS
10
81.7573000000000008
20
-25.5194999999999972
11
81.7573000000000008
21
-27.947499999999998
0
LINE
8
LYELLOW
6
CONTINUOUS
10
81.7573000000000008
20
-30.0274999999999999
11
81.7573000000000008
21
-32.4555000000000007
0
LINE
8
LYELLOW
6
CONTINUOUS
10
81.7972999999999928
20
-25.5444999999999993
11
81.7972999999999928
21
-27.947499999999998
0
LINE
8
LYELLOW
6
CONTINUOUS
10
81.7972999999999928
20
-30.0274999999999999
11
81.7972999999999928
21
-32.430499999999995
0
LINE
8
LYELLOW
6
CONTINUOUS
10
81.837299999999999
20
-25.5694999999999979
11
81.837299999999999
21
-27.947499999999998
0
LINE
8
LYELLOW
6
CONTINUOUS
10
81.837299999999999
20
-30.0274999999999999
11
81.837299999999999
21
-32.4054999999999964
0
LINE
8
LYELLOW
6
CONTINUOUS
10
81.8772999999999911
20
-25.5954999999999977
11
81.8772999999999911
21
-27.947499999999998
0
LINE
8
LYELLOW
6
CONTINUOUS
10
81.8772999999999911
20
-30.0274999999999999
11
81.8772999999999911
21
-32.3795000000000002
0
LINE
8
LYELLOW
6
CONTINUOUS
10
81.9172999999999973
20
-25.6224999999999987
11
81.9172999999999973
21
-27.947499999999998
0
LINE
8
LYELLOW
6
CONTINUOUS
10
81.9172999999999973
20
-30.0274999999999999
11
81.9172999999999973
21
-32.3524999999999991
0
LINE
8
LYELLOW
6
CONTINUOUS
10
81.9572999999999894
20
-25.6504999999999974
11
81.9572999999999894
21
-27.947499999999998
0
LINE
8
LYELLOW
6
CONTINUOUS
10
81.9572999999999894
20
-30.0274999999999999
11
81.9572999999999894
21
-32.3245000000000005
0
LINE
8
LYELLOW
6
CONTINUOUS
10
81.9972999999999956
20
-25.6784999999999997
11
81.9972999999999956
21
-27.947499999999998
0
LINE
8
LYELLOW
6
CONTINUOUS
10
81.9972999999999956
20
-30.0274999999999999
11
81.9972999999999956
21
-32.2965000000000018
0
LINE
8
LYELLOW
6
CONTINUOUS
10
82.0373000000000019
20
-25.7074999999999996
11
82.0373000000000019
21
-27.947499999999998
0
LINE
8
LYELLOW
6
CONTINUOUS
10
82.0373000000000019
20
-30.0274999999999999
11
82.0373000000000019
21
-32.2674999999999983
0
LINE
8
LYELLOW
6
CONTINUOUS
10
82.0772999999999939
20
-25.7374999999999972
11
82.0772999999999939
21
-27.947499999999998
0
LINE
8
LYELLOW
6
CONTINUOUS
10
82.0772999999999939
20
-30.0274999999999999
11
82.0772999999999939
21
-32.2374999999999972
0
LINE
8
LYELLOW
6
CONTINUOUS
10
82.1173000000000002
20
-25.7684999999999995
11
82.1173000000000002
21
-27.947499999999998
0
LINE
8
LYELLOW
6
CONTINUOUS
10
82.1173000000000002
20
-30.0274999999999999
11
82.1173000000000002
21
-32.2064999999999984
0
LINE
8
LYELLOW
6
CONTINUOUS
10
82.1572999999999922
20
-25.7994999999999983
11
82.1572999999999922
21
-27.947499999999998
0
LINE
8
LYELLOW
6
CONTINUOUS
10
82.1572999999999922
20
-30.0274999999999999
11
82.1572999999999922
21
-32.1754999999999995
0
LINE
8
LYELLOW
6
CONTINUOUS
10
82.1972999999999985
20
-25.8314999999999984
11
82.1972999999999985
21
-27.947499999999998
0
LINE
8
LYELLOW
6
CONTINUOUS
10
82.1972999999999985
20
-30.0274999999999999
11
82.1972999999999985
21
-32.143499999999996
0
LINE
8
LYELLOW
6
CONTINUOUS
10
82.2372999999999905
20
-25.8644999999999996
11
82.2372999999999905
21
-27.947499999999998
0
LINE
8
LYELLOW
6
CONTINUOUS
10
82.2372999999999905
20
-30.0274999999999999
11
82.2372999999999905
21
-32.1105000000000018
0
LINE
8
LYELLOW
6
CONTINUOUS
10
82.2772999999999968
20
-25.8984999999999985
11
82.2772999999999968
21
-27.947499999999998
0
LINE
8
LYELLOW
6
CONTINUOUS
10
82.2772999999999968
20
-30.0274999999999999
11
82.2772999999999968
21
-32.0764999999999958
0
LINE
8
LYELLOW
6
CONTINUOUS
10
82.317300000000003
20
-25.9324999999999974
11
82.317300000000003
21
-27.947499999999998
0
LINE
8
LYELLOW
6
CONTINUOUS
10
82.317300000000003
20
-30.0274999999999999
11
82.317300000000003
21
-32.0424999999999969
0
LINE
8
LYELLOW
6
CONTINUOUS
10
82.3572999999999951
20
-25.9684999999999988
11
82.3572999999999951
21
-27.947499999999998
0
LINE
8
LYELLOW
6
CONTINUOUS
10
82.3572999999999951
20
-30.0274999999999999
11
82.3572999999999951
21
-32.0064999999999955
0
LINE
8
LYELLOW
6
CONTINUOUS
10
82.3973000000000013
20
-26.0054999999999978
11
82.3973000000000013
21
-31.9695
0
LINE
8
LYELLOW
6
CONTINUOUS
10
82.4372999999999934
20
-26.0425000000000004
11
82.4372999999999934
21
-31.9324999999999974
0
LINE
8
LYELLOW
6
CONTINUOUS
10
82.4772999999999996
20
-26.0814999999999984
11
82.4772999999999996
21
-31.8934999999999995
0
LINE
8
LYELLOW
6
CONTINUOUS
10
82.5172999999999917
20
-26.1204999999999998
11
82.5172999999999917
21
-31.854499999999998
0
LINE
8
LYELLOW
6
CONTINUOUS
10
82.5572999999999979
20
-26.1615000000000002
11
82.5572999999999979
21
-31.8134999999999977
0
LINE
8
LYELLOW
6
CONTINUOUS
10
82.59729999999999
20
-26.2034999999999982
11
82.59729999999999
21
-31.7714999999999996
0
LINE
8
LYELLOW
6
CONTINUOUS
10
82.6372999999999962
20
-26.2464999999999975
11
82.6372999999999962
21
-31.7284999999999968
0
LINE
8
LYELLOW
6
CONTINUOUS
10
82.6773000000000025
20
-26.2914999999999992
11
82.6773000000000025
21
-31.6834999999999987
0
LINE
8
LYELLOW
6
CONTINUOUS
10
82.7172999999999945
20
-26.3364999999999974
11
82.7172999999999945
21
-31.638499999999997
0
LINE
8
LYELLOW
6
CONTINUOUS
10
82.7573000000000008
20
-26.383499999999998
11
82.7573000000000008
21
-31.5914999999999999
0
LINE
8
LYELLOW
6
CONTINUOUS
10
82.7972999999999928
20
-26.4324999999999974
11
82.7972999999999928
21
-31.5424999999999969
0
LINE
8
LYELLOW
6
CONTINUOUS
10
82.837299999999999
20
-26.4824999999999982
11
82.837299999999999
21
-31.4924999999999997
0
LINE
8
LYELLOW
6
CONTINUOUS
10
82.8772999999999911
20
-26.5344999999999978
11
82.8772999999999911
21
-31.4405000000000001
0
LINE
8
LYELLOW
6
CONTINUOUS
10
82.9172999999999973
20
-26.5874999999999986
11
82.9172999999999973
21
-31.3874999999999993
0
LINE
8
LYELLOW
6
CONTINUOUS
10
82.9572999999999894
20
-26.6434999999999995
11
82.9572999999999894
21
-31.3314999999999984
0
LINE
8
LYELLOW
6
CONTINUOUS
10
82.9972999999999956
20
-26.7004999999999981
11
82.9972999999999956
21
-31.2744999999999997
0
LINE
8
LYELLOW
6
CONTINUOUS
10
83.0373000000000019
20
-26.7605000000000004
11
83.0373000000000019
21
-31.2144999999999975
0
LINE
8
LYELLOW
6
CONTINUOUS
10
83.0772999999999939
20
-26.822499999999998
11
83.0772999999999939
21
-31.1524999999999999
0
LINE
8
LYELLOW
6
CONTINUOUS
10
83.1173000000000002
20
-26.8864999999999981
11
83.1173000000000002
21
-31.0884999999999998
0
LINE
8
LYELLOW
6
CONTINUOUS
10
83.1572999999999922
20
-26.9534999999999982
11
83.1572999999999922
21
-31.0214999999999996
0
LINE
8
LYELLOW
6
CONTINUOUS
10
83.1972999999999985
20
-27.0234999999999985
11
83.1972999999999985
21
-30.9514999999999993
0
LINE
8
LYELLOW
6
CONTINUOUS
10
83.2372999999999905
20
-27.0975000000000001
11
83.2372999999999905
21
-30.8774999999999977
0
LINE
8
LYELLOW
6
CONTINUOUS
10
83.2772999999999968
20
-27.1744999999999983
11
83.2772999999999968
21
-30.8004999999999995
0
LINE
8
LYELLOW
6
CONTINUOUS
10
83.317300000000003
20
-27.2564999999999991
11
83.317300000000003
21
-30.7184999999999988
0
LINE
8
LYELLOW
6
CONTINUOUS
10
83.3572999999999951
20
-27.3434999999999988
11
83.3572999999999951
21
-30.6314999999999991
0
LINE
8
LYELLOW
6
CONTINUOUS
10
83.3973000000000013
20
-27.4354999999999976
11
83.3973000000000013
21
-30.5395000000000003
0
LINE
8
LYELLOW
6
CONTINUOUS
10
83.4372999999999934
20
-27.5344999999999978
11
83.4372999999999934
21
-30.4405000000000001
0
LINE
8
LYELLOW
6
CONTINUOUS
10
83.4772999999999996
20
-27.6414999999999971
11
83.4772999999999996
21
-30.3334999999999972
0
LINE
8
LYELLOW
6
CONTINUOUS
10
83.5172999999999917
20
-27.7594999999999992
11
83.5172999999999917
21
-30.2154999999999987
0
LINE
8
LYELLOW
6
CONTINUOUS
10
83.5572999999999979
20
-27.8904999999999994
11
83.5572999999999979
21
-30.0844999999999985
0
LINE
8
LYELLOW
6
CONTINUOUS
10
83.59729999999999
20
-28.040499999999998
11
83.59729999999999
21
-29.9344999999999999
0
LINE
8
LYELLOW
6
CONTINUOUS
10
83.6372999999999962
20
-28.2195
11
83.6372999999999962
21
-29.7554999999999978
0
LINE
8
LYELLOW
6
CONTINUOUS
10
83.6773000000000025
20
-28.4544999999999995
11
83.6773000000000025
21
-29.5204999999999984
0
CIRCLE
8
LYELLOW
10
79.59729999999999
20
-28.9874999999999972
40
4.1200000000000001
0
LINE
8
LYELLOW
6
CONTINUOUS
10
58.8799999999999955
20
-56.6174999999999997
11
64.1199999999999903
21
-56.6174999999999997
0
LINE
8
LYELLOW
6
CONTINUOUS
10
58.8799999999999955
20
-56.9544999999999959
11
58.8799999999999955
21
-56.6174999999999997
0
LINE
8
LYELLOW
6
CONTINUOUS
10
58.8799999999999955
20
-59.3574999999999946
11
58.8799999999999955
21
-59.0204999999999984
0
LINE
8
LYELLOW
6
CONTINUOUS
10
64.1199999999999903
20
-56.6174999999999997
11
64.1199999999999903
21
-56.9544999999999959
0
LINE
8
LYELLOW
6
CONTINUOUS
10
64.1199999999999903
20
-59.0204999999999984
11
64.1199999999999903
21
-59.3574999999999946
0
LINE
8
LYELLOW
6
CONTINUOUS
10
64.1199999999999903
20
-59.3574999999999946
11
58.8799999999999955
21
-59.3574999999999946
0
LINE
8
LYELLOW
6
CONTINUOUS
10
30.1199999999999974
20
-42.9924999999999997
11
30.1199999999999974
21
-40.3425000000000011
0
LINE
8
LYELLOW
6
CONTINUOUS
10
32.8799999999999955
20
-40.3425000000000011
11
30.1199999999999974
21
-40.3425000000000011
0
LINE
8
LYELLOW
6
CONTINUOUS
10
32.8799999999999955
20
-42.9924999999999997
11
30.1199999999999974
21
-42.9924999999999997
0
LINE
8
LYELLOW
6
CONTINUOUS
10
32.8799999999999955
20
-42.9924999999999997
11
32.8799999999999955
21
-40.3425000000000011
0
LINE
8
LYELLOW
6
CONTINUOUS
10
32.8799999999999955
20
-44.2624999999999957
11
32.8799999999999955
21
-45.6424999999999983
0
LINE
8
LYELLOW
6
CONTINUOUS
10
32.8799999999999955
20
-45.6424999999999983
11
31.5
21
-45.6424999999999983
0
LINE
8
LYELLOW
6
CONTINUOUS
10
26.4199999999999982
20
-55.1774999999999949
11
26.4199999999999982
21
-62.7974999999999994
0
LINE
8
LYELLOW
6
CONTINUOUS
10
26.4199999999999982
20
-56.447499999999998
11
36.5799999999999983
21
-56.447499999999998
0
LINE
8
LYELLOW
6
CONTINUOUS
10
26.4199999999999982
20
-62.7974999999999994
11
36.5799999999999983
21
-62.7974999999999994
0
LINE
8
LYELLOW
6
CONTINUOUS
10
36.5799999999999983
20
-55.1774999999999949
11
26.4199999999999982
21
-55.1774999999999949
0
LINE
8
LYELLOW
6
CONTINUOUS
10
36.5799999999999983
20
-62.7974999999999994
11
36.5799999999999983
21
-55.1774999999999949
0
LINE
8
LYELLOW
6
CONTINUOUS
10
86.8799999999999955
20
-27.6174999999999997
11
92.1199999999999903
21
-27.6174999999999997
0
LINE
8
LYELLOW
6
CONTINUOUS
10
86.8799999999999955
20
-27.9544999999999995
11
86.8799999999999955
21
-27.6174999999999997
0
LINE
8
LYELLOW
6
CONTINUOUS
10
86.8799999999999955
20
-30.3574999999999982
11
86.8799999999999955
21
-30.0204999999999984
0
LINE
8
LYELLOW
6
CONTINUOUS
10
92.1199999999999903
20
-27.6174999999999997
11
92.1199999999999903
21
-27.9544999999999995
0
LINE
8
LYELLOW
6
CONTINUOUS
10
92.1199999999999903
20
-30.0204999999999984
11
92.1199999999999903
21
-30.3574999999999982
0
LINE
8
LYELLOW
6
CONTINUOUS
10
92.1199999999999903
20
-30.3574999999999982
11
86.8799999999999955
21
-30.3574999999999982
0
LINE
8
LYELLOW
6
CONTINUOUS
10
42.1299999999999955
20
-39.7175000000000011
11
42.4600000000000009
21
-39.7175000000000011
0
LINE
8
LYELLOW
6
CONTINUOUS
10
42.1299999999999955
20
-46.2575000000000003
11
42.1299999999999955
21
-39.7175000000000011
0
LINE
8
LYELLOW
6
CONTINUOUS
10
42.4600000000000009
20
-46.2575000000000003
11
42.1299999999999955
21
-46.2575000000000003
0
LINE
8
LYELLOW
6
CONTINUOUS
10
44.5399999999999991
20
-46.2575000000000003
11
44.8699999999999974
21
-46.2575000000000003
0
LINE
8
LYELLOW
6
CONTINUOUS
10
44.8699999999999974
20
-39.7175000000000011
11
44.5399999999999991
21
-39.7175000000000011
0
LINE
8
LYELLOW
6
CONTINUOUS
10
44.8699999999999974
20
-46.2575000000000003
11
44.8699999999999974
21
-39.7175000000000011
0
LINE
8
LYELLOW
6
CONTINUOUS
10
30.129999999999999
20
-94.3674999999999926
11
64.8699999999999903
21
-94.3674999999999926
0
LINE
8
LYELLOW
6
CONTINUOUS
10
64.8699999999999903
20
-94.3674999999999926
11
64.8699999999999903
21
-109.6075000000000017
0
LINE
8
LYELLOW
6
CONTINUOUS
10
64.8699999999999903
20
-109.6075000000000017
11
30.129999999999999
21
-109.6075000000000017
0
LINE
8
LYELLOW
6
CONTINUOUS
10
30.129999999999999
20
-109.6075000000000017
11
30.129999999999999
21
-94.3674999999999926
0
LINE
8
LYELLOW
6
CONTINUOUS
10
67.8799999999999955
20
-56.6174999999999997
11
73.1199999999999903
21
-56.6174999999999997
0
LINE
8
LYELLOW
6
CONTINUOUS
10
67.8799999999999955
20
-56.9544999999999959
11
67.8799999999999955
21
-56.6174999999999997
0
LINE
8
LYELLOW
6
CONTINUOUS
10
67.8799999999999955
20
-59.3574999999999946
11
67.8799999999999955
21
-59.0204999999999984
0
LINE
8
LYELLOW
6
CONTINUOUS
10
73.1199999999999903
20
-56.6174999999999997
11
73.1199999999999903
21
-56.9544999999999959
0
LINE
8
LYELLOW
6
CONTINUOUS
10
73.1199999999999903
20
-59.0204999999999984
11
73.1199999999999903
21
-59.3574999999999946
0
LINE
8
LYELLOW
6
CONTINUOUS
10
73.1199999999999903
20
-59.3574999999999946
11
67.8799999999999955
21
-59.3574999999999946
0
LINE
8
LYELLOW
6
CONTINUOUS
10
77.25
20
-88.0374999999999943
11
77.25
21
-105.9375
0
LINE
8
LYELLOW
6
CONTINUOUS
10
77.25
20
-105.9375
11
81.75
21
-105.9375
0
LINE
8
LYELLOW
6
CONTINUOUS
10
78.5
20
-88.0374999999999943
11
77.25
21
-88.0374999999999943
0
LINE
8
LYELLOW
6
CONTINUOUS
10
81.75
20
-88.0374999999999943
11
80.5
21
-88.0374999999999943
0
LINE
8
LYELLOW
6
CONTINUOUS
10
81.75
20
-105.9375
11
81.75
21
-88.0374999999999943
0
ARC
8
LYELLOW
10
79.5
20
-88.0374999999999943
40
1.
50
-180.00000000
51
-0.00000000
0
LINE
8
LYELLOW
6
CONTINUOUS
10
94.1299999999999955
20
-68.7175000000000011
11
94.4599999999999937
21
-68.7175000000000011
0
LINE
8
LYELLOW
6
CONTINUOUS
10
94.1299999999999955
20
-75.2574999999999932
11
94.1299999999999955
21
-68.7175000000000011
0
LINE
8
LYELLOW
6
CONTINUOUS
10
94.4599999999999937
20
-75.2574999999999932
11
94.1299999999999955
21
-75.2574999999999932
0
LINE
8
LYELLOW
6
CONTINUOUS
10
96.539999999999992
20
-75.2574999999999932
11
96.8699999999999903
21
-75.2574999999999932
0
LINE
8
LYELLOW
6
CONTINUOUS
10
96.8699999999999903
20
-68.7175000000000011
11
96.539999999999992
21
-68.7175000000000011
0
LINE
8
LYELLOW
6
CONTINUOUS
10
96.8699999999999903
20
-75.2574999999999932
11
96.8699999999999903
21
-68.7175000000000011
0
LINE
8
LYELLOW
6
CONTINUOUS
10
63.1876019999999983
20
-26.6724999999999994
11
63.9876019999999954
21
-26.6724999999999994
0
LINE
8
LYELLOW
6
CONTINUOUS
10
63.5876019999999968
20
-26.2724999999999973
11
63.5876019999999968
21
-27.072499999999998
0
LINE
8
LYELLOW
6
CONTINUOUS
10
67.59729999999999
20
-24.9074999999999989
11
67.59729999999999
21
-33.0674999999999955
0
LINE
8
LYELLOW
6
CONTINUOUS
10
67.6372999999999962
20
-24.9074999999999989
11
67.6372999999999962
21
-33.0674999999999955
0
LINE
8
LYELLOW
6
CONTINUOUS
10
67.6773000000000025
20
-24.9085000000000001
11
67.6773000000000025
21
-33.0664999999999978
0
LINE
8
LYELLOW
6
CONTINUOUS
10
67.7172999999999945
20
-24.9094999999999978
11
67.7172999999999945
21
-33.0655000000000001
0
LINE
8
LYELLOW
6
CONTINUOUS
10
67.7573000000000008
20
-24.910499999999999
11
67.7573000000000008
21
-33.0644999999999953
0
LINE
8
LYELLOW
6
CONTINUOUS
10
67.7972999999999928
20
-24.9124999999999979
11
67.7972999999999928
21
-33.0625
0
LINE
8
LYELLOW
6
CONTINUOUS
10
67.837299999999999
20
-24.9145000000000003
11
67.837299999999999
21
-33.0604999999999976
0
LINE
8
LYELLOW
6
CONTINUOUS
10
67.8772999999999911
20
-24.9175000000000004
11
67.8772999999999911
21
-33.0574999999999974
0
LINE
8
LYELLOW
6
CONTINUOUS
10
67.9172999999999973
20
-24.9194999999999993
11
67.9172999999999973
21
-33.055499999999995
0
LINE
8
LYELLOW
6
CONTINUOUS
10
67.9573000000000036
20
-24.9234999999999971
11
67.9573000000000036
21
-33.0514999999999972
0
LINE
8
LYELLOW
6
CONTINUOUS
10
67.9972999999999956
20
-24.9264999999999972
11
67.9972999999999956
21
-33.0484999999999971
0
LINE
8
LYELLOW
6
CONTINUOUS
10
68.0373000000000019
20
-24.9314999999999998
11
68.0373000000000019
21
-33.0435000000000016
0
LINE
8
LYELLOW
6
CONTINUOUS
10
68.0772999999999939
20
-24.9354999999999976
11
68.0772999999999939
21
-33.0394999999999968
0
LINE
8
LYELLOW
6
CONTINUOUS
10
68.1173000000000002
20
-24.9405000000000001
11
68.1173000000000002
21
-33.0345000000000013
0
LINE
8
LYELLOW
6
CONTINUOUS
10
68.1572999999999922
20
-24.9454999999999991
11
68.1572999999999922
21
-33.0294999999999987
0
LINE
8
LYELLOW
6
CONTINUOUS
10
68.1972999999999985
20
-24.9514999999999993
11
68.1972999999999985
21
-33.0234999999999985
0
LINE
8
LYELLOW
6
CONTINUOUS
10
68.2372999999999905
20
-24.9574999999999996
11
68.2372999999999905
21
-33.0174999999999983
0
LINE
8
LYELLOW
6
CONTINUOUS
10
68.2772999999999968
20
-24.9644999999999975
11
68.2772999999999968
21
-33.0105000000000004
0
LINE
8
LYELLOW
6
CONTINUOUS
10
68.317300000000003
20
-24.9704999999999977
11
68.317300000000003
21
-27.947499999999998
0
LINE
8
LYELLOW
6
CONTINUOUS
10
68.317300000000003
20
-30.0274999999999999
11
68.317300000000003
21
-33.0045000000000002
0
LINE
8
LYELLOW
6
CONTINUOUS
10
68.3572999999999951
20
-24.9785000000000004
11
68.3572999999999951
21
-27.947499999999998
0
LINE
8
LYELLOW
6
CONTINUOUS
10
68.3572999999999951
20
-30.0274999999999999
11
68.3572999999999951
21
-32.9964999999999975
0
LINE
8
LYELLOW
6
CONTINUOUS
10
68.3973000000000013
20
-24.9854999999999983
11
68.3973000000000013
21
-27.947499999999998
0
LINE
8
LYELLOW
6
CONTINUOUS
10
68.3973000000000013
20
-30.0274999999999999
11
68.3973000000000013
21
-32.9894999999999996
0
LINE
8
LYELLOW
6
CONTINUOUS
10
68.4372999999999934
20
-24.9944999999999986
11
68.4372999999999934
21
-27.947499999999998
0
LINE
8
LYELLOW
6
CONTINUOUS
10
68.4372999999999934
20
-30.0274999999999999
11
68.4372999999999934
21
-32.9804999999999993
0
LINE
8
LYELLOW
6
CONTINUOUS
10
68.4772999999999996
20
-25.0024999999999977
11
68.4772999999999996
21
-27.947499999999998
0
LINE
8
LYELLOW
6
CONTINUOUS
10
68.4772999999999996
20
-30.0274999999999999
11
68.4772999999999996
21
-32.9724999999999966
0
LINE
8
LYELLOW
6
CONTINUOUS
10
68.5172999999999917
20
-25.0114999999999981
11
68.5172999999999917
21
-27.947499999999998
0
LINE
8
LYELLOW
6
CONTINUOUS
10
68.5172999999999917
20
-30.0274999999999999
11
68.5172999999999917
21
-32.9634999999999962
0
LINE
8
LYELLOW
6
CONTINUOUS
10
68.5572999999999979
20
-25.0204999999999984
11
68.5572999999999979
21
-27.947499999999998
0
LINE
8
LYELLOW
6
CONTINUOUS
10
68.5572999999999979
20
-30.0274999999999999
11
68.5572999999999979
21
-32.9544999999999959
0
LINE
8
LYELLOW
6
CONTINUOUS
10
68.59729999999999
20
-25.0305
11
68.59729999999999
21
-27.947499999999998
0
LINE
8
LYELLOW
6
CONTINUOUS
10
68.59729999999999
20
-30.0274999999999999
11
68.59729999999999
21
-32.9444999999999979
0
LINE
8
LYELLOW
6
CONTINUOUS
10
68.6372999999999962
20
-25.040499999999998
11
68.6372999999999962
21
-27.947499999999998
0
LINE
8
LYELLOW
6
CONTINUOUS
10
68.6372999999999962
20
-30.0274999999999999
11
68.6372999999999962
21
-32.9344999999999999
0
LINE
8
LYELLOW
6
CONTINUOUS
10
68.6773000000000025
20
-25.0514999999999972
11
68.6773000000000025
21
-27.947499999999998
0
LINE
8
LYELLOW
6
CONTINUOUS
10
68.6773000000000025
20
-30.0274999999999999
11
68.6773000000000025
21
-32.9234999999999971
0
LINE
8
LYELLOW
6
CONTINUOUS
10
68.7172999999999945
20
-25.0625
11
68.7172999999999945
21
-27.947499999999998
0
LINE
8
LYELLOW
6
CONTINUOUS
10
68.7172999999999945
20
-30.0274999999999999
11
68.7172999999999945
21
-32.9125000000000014
0
LINE
8
LYELLOW
6
CONTINUOUS
10
68.7573000000000008
20
-25.0745000000000005
11
68.7573000000000008
21
-27.947499999999998
0
LINE
8
LYELLOW
6
CONTINUOUS
10
68.7573000000000008
20
-30.0274999999999999
11
68.7573000000000008
21
-32.900500000000001
0
LINE
8
LYELLOW
6
CONTINUOUS
10
68.7972999999999928
20
-25.0864999999999974
11
68.7972999999999928
21
-27.947499999999998
0
LINE
8
LYELLOW
6
CONTINUOUS
10
68.7972999999999928
20
-30.0274999999999999
11
68.7972999999999928
21
-32.8885000000000005
0
LINE
8
LYELLOW
6
CONTINUOUS
10
68.837299999999999
20
-25.0984999999999978
11
68.837299999999999
21
-27.947499999999998
0
LINE
8
LYELLOW
6
CONTINUOUS
10
68.837299999999999
20
-30.0274999999999999
11
68.837299999999999
21
-32.8765000000000001
0
LINE
8
LYELLOW
6
CONTINUOUS
10
68.8772999999999911
20
-25.1114999999999995
11
68.8772999999999911
21
-27.947499999999998
0
LINE
8
LYELLOW
6
CONTINUOUS
10
68.8772999999999911
20
-30.0274999999999999
11
68.8772999999999911
21
-32.8635000000000019
0
LINE
8
LYELLOW
6
CONTINUOUS
10
68.9172999999999973
20
-25.1244999999999976
11
68.9172999999999973
21
-27.947499999999998
0
LINE
8
LYELLOW
6
CONTINUOUS
10
68.9172999999999973
20
-30.0274999999999999
11
68.9172999999999973
21
-32.8504999999999967
0
LINE
8
LYELLOW
6
CONTINUOUS
10
68.9573000000000036
20
-25.1385000000000005
11
68.9573000000000036
21
-27.947499999999998
0
LINE
8
LYELLOW
6
CONTINUOUS
10
68.9573000000000036
20
-30.0274999999999999
11
68.9573000000000036
21
-32.8365000000000009
0
LINE
8
LYELLOW
6
CONTINUOUS
10
68.9972999999999956
20
-25.1524999999999999
11
68.9972999999999956
21
-27.947499999999998
0
LINE
8
LYELLOW
6
CONTINUOUS
10
68.9972999999999956
20
-30.0274999999999999
11
68.9972999999999956
21
-32.822499999999998
0
LINE
8
LYELLOW
6
CONTINUOUS
10
69.0373000000000019
20
-25.1675000000000004
11
69.0373000000000019
21
-27.947499999999998
0
LINE
8
LYELLOW
6
CONTINUOUS
10
69.0373000000000019
20
-30.0274999999999999
11
69.0373000000000019
21
-32.8074999999999974
0
LINE
8
LYELLOW
6
CONTINUOUS
10
69.0772999999999939
20
-25.1824999999999974
11
69.0772999999999939
21
-27.947499999999998
0
LINE
8
LYELLOW
6
CONTINUOUS
10
69.0772999999999939
20
-30.0274999999999999
11
69.0772999999999939
21
-32.7924999999999969
0
LINE
8
LYELLOW
6
CONTINUOUS
10
69.1173000000000002
20
-25.1984999999999992
11
69.1173000000000002
21
-27.947499999999998
0
LINE
8
LYELLOW
6
CONTINUOUS
10
69.1173000000000002
20
-30.0274999999999999
11
69.1173000000000002
21
-32.7764999999999986
0
LINE
8
LYELLOW
6
CONTINUOUS
10
69.1572999999999922
20
-25.2144999999999975
11
69.1572999999999922
21
-27.947499999999998
0
LINE
8
LYELLOW
6
CONTINUOUS
10
69.1572999999999922
20
-30.0274999999999999
11
69.1572999999999922
21
-32.7605000000000004
0
LINE
8
LYELLOW
6
CONTINUOUS
10
69.1972999999999985
20
-25.2304999999999993
11
69.1972999999999985
21
-27.947499999999998
0
LINE
8
LYELLOW
6
CONTINUOUS
10
69.1972999999999985
20
-30.0274999999999999
11
69.1972999999999985
21
-32.7444999999999951
0
LINE
8
LYELLOW
6
CONTINUOUS
10
69.2372999999999905
20
-25.2474999999999987
11
69.2372999999999905
21
-27.947499999999998
0
LINE
8
LYELLOW
6
CONTINUOUS
10
69.2372999999999905
20
-30.0274999999999999
11
69.2372999999999905
21
-32.7274999999999991
0
LINE
8
LYELLOW
6
CONTINUOUS
10
69.2772999999999968
20
-25.2654999999999994
11
69.2772999999999968
21
-27.947499999999998
0
LINE
8
LYELLOW
6
CONTINUOUS
10
69.2772999999999968
20
-30.0274999999999999
11
69.2772999999999968
21
-32.7094999999999985
0
LINE
8
LYELLOW
6
CONTINUOUS
10
69.317300000000003
20
-25.2835000000000001
11
69.317300000000003
21
-27.947499999999998
0
LINE
8
LYELLOW
6
CONTINUOUS
10
69.317300000000003
20
-30.0274999999999999
11
69.317300000000003
21
-32.6914999999999978
0
LINE
8
LYELLOW
6
CONTINUOUS
10
69.3572999999999951
20
-25.3024999999999984
11
69.3572999999999951
21
-27.947499999999998
0
LINE
8
LYELLOW
6
CONTINUOUS
10
69.3572999999999951
20
-30.0274999999999999
11
69.3572999999999951
21
-32.6724999999999994
0
LINE
8
LYELLOW
6
CONTINUOUS
10
69.3973000000000013
20
-25.3215000000000003
11
69.3973000000000013
21
-27.947499999999998
0
LINE
8
LYELLOW
6
CONTINUOUS
10
69.3973000000000013
20
-30.0274999999999999
11
69.3973000000000013
21
-32.6535000000000011
0
LINE
8
LYELLOW
6
CONTINUOUS
10
69.4372999999999934
20
-25.3414999999999999
11
69.4372999999999934
21
-27.947499999999998
0
LINE
8
LYELLOW
6
CONTINUOUS
10
69.4372999999999934
20
-30.0274999999999999
11
69.4372999999999934
21
-32.633499999999998
0
LINE
8
LYELLOW
6
CONTINUOUS
10
69.4772999999999996
20
-25.3614999999999995
11
69.4772999999999996
21
-27.947499999999998
0
LINE
8
LYELLOW
6
CONTINUOUS
10
69.4772999999999996
20
-30.0274999999999999
11
69.4772999999999996
21
-32.6135000000000019
0
LINE
8
LYELLOW
6
CONTINUOUS
10
69.5172999999999917
20
-25.3825000000000003
11
69.5172999999999917
21
-27.947499999999998
0
LINE
8
LYELLOW
6
CONTINUOUS
10
69.5172999999999917
20
-30.0274999999999999
11
69.5172999999999917
21
-32.5925000000000011
0
LINE
8
LYELLOW
6
CONTINUOUS
10
69.5572999999999979
20
-25.4034999999999975
11
69.5572999999999979
21
-27.947499999999998
0
LINE
8
LYELLOW
6
CONTINUOUS
10
69.5572999999999979
20
-30.0274999999999999
11
69.5572999999999979
21
-32.5715000000000003
0
LINE
8
LYELLOW
6
CONTINUOUS
10
69.59729999999999
20
-25.4254999999999995
11
69.59729999999999
21
-27.947499999999998
0
LINE
8
LYELLOW
6
CONTINUOUS
10
69.59729999999999
20
-30.0274999999999999
11
69.59729999999999
21
-32.5495000000000019
0
LINE
8
LYELLOW
6
CONTINUOUS
10
69.6372999999999962
20
-25.4484999999999992
11
69.6372999999999962
21
-27.947499999999998
0
LINE
8
LYELLOW
6
CONTINUOUS
10
69.6372999999999962
20
-30.0274999999999999
11
69.6372999999999962
21
-32.5264999999999986
0
LINE
8
LYELLOW
6
CONTINUOUS
10
69.6773000000000025
20
-25.4714999999999989
11
69.6773000000000025
21
-27.947499999999998
0
LINE
8
LYELLOW
6
CONTINUOUS
10
69.6773000000000025
20
-30.0274999999999999
11
69.6773000000000025
21
-32.5034999999999954
0
LINE
8
LYELLOW
6
CONTINUOUS
10
69.7172999999999945
20
-25.4944999999999986
11
69.7172999999999945
21
-27.947499999999998
0
LINE
8
LYELLOW
6
CONTINUOUS
10
69.7172999999999945
20
-30.0274999999999999
11
69.7172999999999945
21
-32.4804999999999993
0
LINE
8
LYELLOW
6
CONTINUOUS
10
69.7573000000000008
20
-25.5194999999999972
11
69.7573000000000008
21
-27.947499999999998
0
LINE
8
LYELLOW
6
CONTINUOUS
10
69.7573000000000008
20
-30.0274999999999999
11
69.7573000000000008
21
-32.4555000000000007
0
LINE
8
LYELLOW
6
CONTINUOUS
10
69.7972999999999928
20
-25.5444999999999993
11
69.7972999999999928
21
-27.947499999999998
0
LINE
8
LYELLOW
6
CONTINUOUS
10
69.7972999999999928
20
-30.0274999999999999
11
69.7972999999999928
21
-32.430499999999995
0
LINE
8
LYELLOW
6
CONTINUOUS
10
69.837299999999999
20
-25.5694999999999979
11
69.837299999999999
21
-27.947499999999998
0
LINE
8
LYELLOW
6
CONTINUOUS
10
69.837299999999999
20
-30.0274999999999999
11
69.837299999999999
21
-32.4054999999999964
0
LINE
8
LYELLOW
6
CONTINUOUS
10
69.8772999999999911
20
-25.5954999999999977
11
69.8772999999999911
21
-27.947499999999998
0
LINE
8
LYELLOW
6
CONTINUOUS
10
69.8772999999999911
20
-30.0274999999999999
11
69.8772999999999911
21
-32.3795000000000002
0
LINE
8
LYELLOW
6
CONTINUOUS
10
69.9172999999999973
20
-25.6224999999999987
11
69.9172999999999973
21
-27.947499999999998
0
LINE
8
LYELLOW
6
CONTINUOUS
10
69.9172999999999973
20
-30.0274999999999999
11
69.9172999999999973
21
-32.3524999999999991
0
LINE
8
LYELLOW
6
CONTINUOUS
10
69.9573000000000036
20
-25.6504999999999974
11
69.9573000000000036
21
-27.947499999999998
0
LINE
8
LYELLOW
6
CONTINUOUS
10
69.9573000000000036
20
-30.0274999999999999
11
69.9573000000000036
21
-32.3245000000000005
0
LINE
8
LYELLOW
6
CONTINUOUS
10
69.9972999999999956
20
-25.6784999999999997
11
69.9972999999999956
21
-27.947499999999998
0
LINE
8
LYELLOW
6
CONTINUOUS
10
69.9972999999999956
20
-30.0274999999999999
11
69.9972999999999956
21
-32.2965000000000018
0
LINE
8
LYELLOW
6
CONTINUOUS
10
70.0373000000000019
20
-25.7074999999999996
11
70.0373000000000019
21
-27.947499999999998
0
LINE
8
LYELLOW
6
CONTINUOUS
10
70.0373000000000019
20
-30.0274999999999999
11
70.0373000000000019
21
-32.2674999999999983
0
LINE
8
LYELLOW
6
CONTINUOUS
10
70.0772999999999939
20
-25.7374999999999972
11
70.0772999999999939
21
-27.947499999999998
0
LINE
8
LYELLOW
6
CONTINUOUS
10
70.0772999999999939
20
-30.0274999999999999
11
70.0772999999999939
21
-32.2374999999999972
0
LINE
8
LYELLOW
6
CONTINUOUS
10
70.1173000000000002
20
-25.7684999999999995
11
70.1173000000000002
21
-27.947499999999998
0
LINE
8
LYELLOW
6
CONTINUOUS
10
70.1173000000000002
20
-30.0274999999999999
11
70.1173000000000002
21
-32.2064999999999984
0
LINE
8
LYELLOW
6
CONTINUOUS
10
70.1572999999999922
20
-25.7994999999999983
11
70.1572999999999922
21
-27.947499999999998
0
LINE
8
LYELLOW
6
CONTINUOUS
10
70.1572999999999922
20
-30.0274999999999999
11
70.1572999999999922
21
-32.1754999999999995
0
LINE
8
LYELLOW
6
CONTINUOUS
10
70.1972999999999985
20
-25.8314999999999984
11
70.1972999999999985
21
-27.947499999999998
0
LINE
8
LYELLOW
6
CONTINUOUS
10
70.1972999999999985
20
-30.0274999999999999
11
70.1972999999999985
21
-32.143499999999996
0
LINE
8
LYELLOW
6
CONTINUOUS
10
70.2372999999999905
20
-25.8644999999999996
11
70.2372999999999905
21
-27.947499999999998
0
LINE
8
LYELLOW
6
CONTINUOUS
10
70.2372999999999905
20
-30.0274999999999999
11
70.2372999999999905
21
-32.1105000000000018
0
LINE
8
LYELLOW
6
CONTINUOUS
10
70.2772999999999968
20
-25.8984999999999985
11
70.2772999999999968
21
-27.947499999999998
0
LINE
8
LYELLOW
6
CONTINUOUS
10
70.2772999999999968
20
-30.0274999999999999
11
70.2772999999999968
21
-32.0764999999999958
0
LINE
8
LYELLOW
6
CONTINUOUS
10
70.317300000000003
20
-25.9324999999999974
11
70.317300000000003
21
-27.947499999999998
0
LINE
8
LYELLOW
6
CONTINUOUS
10
70.317300000000003
20
-30.0274999999999999
11
70.317300000000003
21
-32.0424999999999969
0
LINE
8
LYELLOW
6
CONTINUOUS
10
70.3572999999999951
20
-25.9684999999999988
11
70.3572999999999951
21
-27.947499999999998
0
LINE
8
LYELLOW
6
CONTINUOUS
10
70.3572999999999951
20
-30.0274999999999999
11
70.3572999999999951
21
-32.0064999999999955
0
LINE
8
LYELLOW
6
CONTINUOUS
10
70.3973000000000013
20
-26.0054999999999978
11
70.3973000000000013
21
-31.9695
0
LINE
8
LYELLOW
6
CONTINUOUS
10
70.4372999999999934
20
-26.0425000000000004
11
70.4372999999999934
21
-31.9324999999999974
0
LINE
8
LYELLOW
6
CONTINUOUS
10
70.4772999999999996
20
-26.0814999999999984
11
70.4772999999999996
21
-31.8934999999999995
0
LINE
8
LYELLOW
6
CONTINUOUS
10
70.5172999999999917
20
-26.1204999999999998
11
70.5172999999999917
21
-31.854499999999998
0
LINE
8
LYELLOW
6
CONTINUOUS
10
70.5572999999999979
20
-26.1615000000000002
11
70.5572999999999979
21
-31.8134999999999977
0
LINE
8
LYELLOW
6
CONTINUOUS
10
70.59729999999999
20
-26.2034999999999982
11
70.59729999999999
21
-31.7714999999999996
0
LINE
8
LYELLOW
6
CONTINUOUS
10
70.6372999999999962
20
-26.2464999999999975
11
70.6372999999999962
21
-31.7284999999999968
0
LINE
8
LYELLOW
6
CONTINUOUS
10
70.6773000000000025
20
-26.2914999999999992
11
70.6773000000000025
21
-31.6834999999999987
0
LINE
8
LYELLOW
6
CONTINUOUS
10
70.7172999999999945
20
-26.3364999999999974
11
70.7172999999999945
21
-31.638499999999997
0
LINE
8
LYELLOW
6
CONTINUOUS
10
70.7573000000000008
20
-26.383499999999998
11
70.7573000000000008
21
-31.5914999999999999
0
LINE
8
LYELLOW
6
CONTINUOUS
10
70.7972999999999928
20
-26.4324999999999974
11
70.7972999999999928
21
-31.5424999999999969
0
LINE
8
LYELLOW
6
CONTINUOUS
10
70.837299999999999
20
-26.4824999999999982
11
70.837299999999999
21
-31.4924999999999997
0
LINE
8
LYELLOW
6
CONTINUOUS
10
70.8772999999999911
20
-26.5344999999999978
11
70.8772999999999911
21
-31.4405000000000001
0
LINE
8
LYELLOW
6
CONTINUOUS
10
70.9172999999999973
20
-26.5874999999999986
11
70.9172999999999973
21
-31.3874999999999993
0
LINE
8
LYELLOW
6
CONTINUOUS
10
70.9573000000000036
20
-26.6434999999999995
11
70.9573000000000036
21
-31.3314999999999984
0
LINE
8
LYELLOW
6
CONTINUOUS
10
70.9972999999999956
20
-26.7004999999999981
11
70.9972999999999956
21
-31.2744999999999997
0
LINE
8
LYELLOW
6
CONTINUOUS
10
71.0373000000000019
20
-26.7605000000000004
11
71.0373000000000019
21
-31.2144999999999975
0
LINE
8
LYELLOW
6
CONTINUOUS
10
71.0772999999999939
20
-26.822499999999998
11
71.0772999999999939
21
-31.1524999999999999
0
LINE
8
LYELLOW
6
CONTINUOUS
10
71.1173000000000002
20
-26.8864999999999981
11
71.1173000000000002
21
-31.0884999999999998
0
LINE
8
LYELLOW
6
CONTINUOUS
10
71.1572999999999922
20
-26.9534999999999982
11
71.1572999999999922
21
-31.0214999999999996
0
LINE
8
LYELLOW
6
CONTINUOUS
10
71.1972999999999985
20
-27.0234999999999985
11
71.1972999999999985
21
-30.9514999999999993
0
LINE
8
LYELLOW
6
CONTINUOUS
10
71.2372999999999905
20
-27.0975000000000001
11
71.2372999999999905
21
-30.8774999999999977
0
LINE
8
LYELLOW
6
CONTINUOUS
10
71.2772999999999968
20
-27.1744999999999983
11
71.2772999999999968
21
-30.8004999999999995
0
LINE
8
LYELLOW
6
CONTINUOUS
10
71.317300000000003
20
-27.2564999999999991
11
71.317300000000003
21
-30.7184999999999988
0
LINE
8
LYELLOW
6
CONTINUOUS
10
71.3572999999999951
20
-27.3434999999999988
11
71.3572999999999951
21
-30.6314999999999991
0
LINE
8
LYELLOW
6
CONTINUOUS
10
71.3973000000000013
20
-27.4354999999999976
11
71.3973000000000013
21
-30.5395000000000003
0
LINE
8
LYELLOW
6
CONTINUOUS
10
71.4372999999999934
20
-27.5344999999999978
11
71.4372999999999934
21
-30.4405000000000001
0
LINE
8
LYELLOW
6
CONTINUOUS
10
71.4772999999999996
20
-27.6414999999999971
11
71.4772999999999996
21
-30.3334999999999972
0
LINE
8
LYELLOW
6
CONTINUOUS
10
71.5172999999999917
20
-27.7594999999999992
11
71.5172999999999917
21
-30.2154999999999987
0
LINE
8
LYELLOW
6
CONTINUOUS
10
71.5572999999999979
20
-27.8904999999999994
11
71.5572999999999979
21
-30.0844999999999985
0
LINE
8
LYELLOW
6
CONTINUOUS
10
71.59729999999999
20
-28.040499999999998
11
71.59729999999999
21
-29.9344999999999999
0
LINE
8
LYELLOW
6
CONTINUOUS
10
71.6372999999999962
20
-28.2195
11
71.6372999999999962
21
-29.7554999999999978
0
LINE
8
LYELLOW
6
CONTINUOUS
10
71.6773000000000025
20
-28.4544999999999995
11
71.6773000000000025
21
-29.5204999999999984
0
CIRCLE
8
LYELLOW
10
67.59729999999999
20
-28.9874999999999972
40
4.1200000000000001
0
LINE
8
LYELLOW
6
CONTINUOUS
10
107.3799999999999955
20
-93.2674999999999983
11
109.6199999999999903
21
-93.2674999999999983
0
LINE
8
LYELLOW
6
CONTINUOUS
10
107.3799999999999955
20
-93.3875000000000028
11
109.6199999999999903
21
-93.3875000000000028
0
LINE
8
LYELLOW
6
CONTINUOUS
10
107.3799999999999955
20
-93.5074999999999932
11
109.6199999999999903
21
-93.5074999999999932
0
LINE
8
LYELLOW
6
CONTINUOUS
10
108.5
20
-89.2175000000000011
11
108.5
21
-89.8674999999999926
0
LINE
8
LYELLOW
6
CONTINUOUS
10
108.5
20
-94.7574999999999932
11
108.5
21
-94.1075000000000017
0
LINE
8
LYELLOW
6
CONTINUOUS
10
107.3799999999999955
20
-94.1075000000000017
11
109.6199999999999903
21
-94.1075000000000017
0
LINE
8
LYELLOW
6
CONTINUOUS
10
109.6199999999999903
20
-94.1075000000000017
11
109.6199999999999903
21
-89.8674999999999926
0
LINE
8
LYELLOW
6
CONTINUOUS
10
109.6199999999999903
20
-89.8674999999999926
11
107.3799999999999955
21
-89.8674999999999926
0
LINE
8
LYELLOW
6
CONTINUOUS
10
107.3799999999999955
20
-89.8674999999999926
11
107.3799999999999955
21
-94.1075000000000017
0
LINE
8
LYELLOW
6
CONTINUOUS
10
66.3799999999999955
20
-44.2674999999999983
11
68.6199999999999903
21
-44.2674999999999983
0
LINE
8
LYELLOW
6
CONTINUOUS
10
66.3799999999999955
20
-44.3874999999999957
11
68.6199999999999903
21
-44.3874999999999957
0
LINE
8
LYELLOW
6
CONTINUOUS
10
66.3799999999999955
20
-44.5075000000000003
11
68.6199999999999903
21
-44.5075000000000003
0
LINE
8
LYELLOW
6
CONTINUOUS
10
67.5
20
-40.2175000000000011
11
67.5
21
-40.8674999999999997
0
LINE
8
LYELLOW
6
CONTINUOUS
10
67.5
20
-45.7575000000000003
11
67.5
21
-45.1074999999999946
0
LINE
8
LYELLOW
6
CONTINUOUS
10
66.3799999999999955
20
-45.1074999999999946
11
68.6199999999999903
21
-45.1074999999999946
0
LINE
8
LYELLOW
6
CONTINUOUS
10
68.6199999999999903
20
-45.1074999999999946
11
68.6199999999999903
21
-40.8674999999999997
0
LINE
8
LYELLOW
6
CONTINUOUS
10
68.6199999999999903
20
-40.8674999999999997
11
66.3799999999999955
21
-40.8674999999999997
0
LINE
8
LYELLOW
6
CONTINUOUS
10
66.3799999999999955
20
-40.8674999999999997
11
66.3799999999999955
21
-45.1074999999999946
0
LINE
8
LYELLOW
6
CONTINUOUS
10
96.1876019999999983
20
-102.6724999999999994
11
96.9876019999999954
21
-102.6724999999999994
0
LINE
8
LYELLOW
6
CONTINUOUS
10
96.5876019999999897
20
-102.2724999999999937
11
96.5876019999999897
21
-103.0724999999999909
0
LINE
8
LYELLOW
6
CONTINUOUS
10
100.59729999999999
20
-100.9074999999999989
11
100.59729999999999
21
-109.0674999999999955
0
LINE
8
LYELLOW
6
CONTINUOUS
10
100.6372999999999962
20
-100.9074999999999989
11
100.6372999999999962
21
-109.0674999999999955
0
LINE
8
LYELLOW
6
CONTINUOUS
10
100.6773000000000025
20
-100.9084999999999894
11
100.6773000000000025
21
-109.0664999999999907
0
LINE
8
LYELLOW
6
CONTINUOUS
10
100.7172999999999945
20
-100.9094999999999942
11
100.7172999999999945
21
-109.0655000000000001
0
LINE
8
LYELLOW
6
CONTINUOUS
10
100.7573000000000008
20
-100.910499999999999
11
100.7573000000000008
21
-109.0644999999999953
0
LINE
8
LYELLOW
6
CONTINUOUS
10
100.7972999999999928
20
-100.9124999999999943
11
100.7972999999999928
21
-109.0625
0
LINE
8
LYELLOW
6
CONTINUOUS
10
100.837299999999999
20
-100.9144999999999897
11
100.837299999999999
21
-109.0604999999999905
0
LINE
8
LYELLOW
6
CONTINUOUS
10
100.8772999999999911
20
-100.9174999999999898
11
100.8772999999999911
21
-109.0574999999999903
0
LINE
8
LYELLOW
6
CONTINUOUS
10
100.9172999999999973
20
-100.9194999999999993
11
100.9172999999999973
21
-109.055499999999995
0
LINE
8
LYELLOW
6
CONTINUOUS
10
100.9572999999999894
20
-100.92349999999999
11
100.9572999999999894
21
-109.0514999999999901
0
LINE
8
LYELLOW
6
CONTINUOUS
10
100.9972999999999956
20
-100.9264999999999901
11
100.9972999999999956
21
-109.04849999999999
0
LINE
8
LYELLOW
6
CONTINUOUS
10
101.0373000000000019
20
-100.9314999999999998
11
101.0373000000000019
21
-109.0434999999999945
0
LINE
8
LYELLOW
6
CONTINUOUS
10
101.0772999999999939
20
-100.9354999999999905
11
101.0772999999999939
21
-109.0394999999999897
0
LINE
8
LYELLOW
6
CONTINUOUS
10
101.1173000000000002
20
-100.9405000000000001
11
101.1173000000000002
21
-109.0344999999999942
0
LINE
8
LYELLOW
6
CONTINUOUS
10
101.1572999999999922
20
-100.9454999999999956
11
101.1572999999999922
21
-109.0294999999999987
0
LINE
8
LYELLOW
6
CONTINUOUS
10
101.1972999999999985
20
-100.9514999999999958
11
101.1972999999999985
21
-109.0234999999999985
0
LINE
8
LYELLOW
6
CONTINUOUS
10
101.2372999999999905
20
-100.957499999999996
11
101.2372999999999905
21
-109.0174999999999983
0
LINE
8
LYELLOW
6
CONTINUOUS
10
101.2772999999999968
20
-100.964500000000001
11
101.2772999999999968
21
-109.0104999999999933
0
LINE
8
LYELLOW
6
CONTINUOUS
10
101.3172999999999888
20
-100.9705000000000013
11
101.3172999999999888
21
-103.9474999999999909
0
LINE
8
LYELLOW
6
CONTINUOUS
10
101.3172999999999888
20
-106.0274999999999892
11
101.3172999999999888
21
-109.0044999999999931
0
LINE
8
LYELLOW
6
CONTINUOUS
10
101.3572999999999951
20
-100.9784999999999968
11
101.3572999999999951
21
-103.9474999999999909
0
LINE
8
LYELLOW
6
CONTINUOUS
10
101.3572999999999951
20
-106.0274999999999892
11
101.3572999999999951
21
-108.9964999999999975
0
LINE
8
LYELLOW
6
CONTINUOUS
10
101.3973000000000013
20
-100.9855000000000018
11
101.3973000000000013
21
-103.9474999999999909
0
LINE
8
LYELLOW
6
CONTINUOUS
10
101.3973000000000013
20
-106.0274999999999892
11
101.3973000000000013
21
-108.9894999999999925
0
LINE
8
LYELLOW
6
CONTINUOUS
10
101.4372999999999934
20
-100.9945000000000022
11
101.4372999999999934
21
-103.9474999999999909
0
LINE
8
LYELLOW
6
CONTINUOUS
10
101.4372999999999934
20
-106.0274999999999892
11
101.4372999999999934
21
-108.9804999999999922
0
LINE
8
LYELLOW
6
CONTINUOUS
10
101.4772999999999996
20
-101.0024999999999977
11
101.4772999999999996
21
-103.9474999999999909
0
LINE
8
LYELLOW
6
CONTINUOUS
10
101.4772999999999996
20
-106.0274999999999892
11
101.4772999999999996
21
-108.9724999999999966
0
LINE
8
LYELLOW
6
CONTINUOUS
10
101.5172999999999917
20
-101.0114999999999981
11
101.5172999999999917
21
-103.9474999999999909
0
LINE
8
LYELLOW
6
CONTINUOUS
10
101.5172999999999917
20
-106.0274999999999892
11
101.5172999999999917
21
-108.9634999999999962
0
LINE
8
LYELLOW
6
CONTINUOUS
10
101.5572999999999979
20
-101.0204999999999984
11
101.5572999999999979
21
-103.9474999999999909
0
LINE
8
LYELLOW
6
CONTINUOUS
10
101.5572999999999979
20
-106.0274999999999892
11
101.5572999999999979
21
-108.9544999999999959
0
LINE
8
LYELLOW
6
CONTINUOUS
10
101.59729999999999
20
-101.0304999999999893
11
101.59729999999999
21
-103.9474999999999909
0
LINE
8
LYELLOW
6
CONTINUOUS
10
101.59729999999999
20
-106.0274999999999892
11
101.59729999999999
21
-108.9444999999999908
0
LINE
8
LYELLOW
6
CONTINUOUS
10
101.6372999999999962
20
-101.0404999999999944
11
101.6372999999999962
21
-103.9474999999999909
0
LINE
8
LYELLOW
6
CONTINUOUS
10
101.6372999999999962
20
-106.0274999999999892
11
101.6372999999999962
21
-108.9344999999999999
0
LINE
8
LYELLOW
6
CONTINUOUS
10
101.6773000000000025
20
-101.0514999999999901
11
101.6773000000000025
21
-103.9474999999999909
0
LINE
8
LYELLOW
6
CONTINUOUS
10
101.6773000000000025
20
-106.0274999999999892
11
101.6773000000000025
21
-108.92349999999999
0
LINE
8
LYELLOW
6
CONTINUOUS
10
101.7172999999999945
20
-101.0625
11
101.7172999999999945
21
-103.9474999999999909
0
LINE
8
LYELLOW
6
CONTINUOUS
10
101.7172999999999945
20
-106.0274999999999892
11
101.7172999999999945
21
-108.9124999999999943
0
LINE
8
LYELLOW
6
CONTINUOUS
10
101.7573000000000008
20
-101.0745000000000005
11
101.7573000000000008
21
-103.9474999999999909
0
LINE
8
LYELLOW
6
CONTINUOUS
10
101.7573000000000008
20
-106.0274999999999892
11
101.7573000000000008
21
-108.9004999999999939
0
LINE
8
LYELLOW
6
CONTINUOUS
10
101.7972999999999928
20
-101.0865000000000009
11
101.7972999999999928
21
-103.9474999999999909
0
LINE
8
LYELLOW
6
CONTINUOUS
10
101.7972999999999928
20
-106.0274999999999892
11
101.7972999999999928
21
-108.8884999999999934
0
LINE
8
LYELLOW
6
CONTINUOUS
10
101.837299999999999
20
-101.0985000000000014
11
101.837299999999999
21
-103.9474999999999909
0
LINE
8
LYELLOW
6
CONTINUOUS
10
101.837299999999999
20
-106.0274999999999892
11
101.837299999999999
21
-108.876499999999993
0
LINE
8
LYELLOW
6
CONTINUOUS
10
101.8772999999999911
20
-101.1114999999999924
11
101.8772999999999911
21
-103.9474999999999909
0
LINE
8
LYELLOW
6
CONTINUOUS
10
101.8772999999999911
20
-106.0274999999999892
11
101.8772999999999911
21
-108.8635000000000019
0
LINE
8
LYELLOW
6
CONTINUOUS
10
101.9172999999999973
20
-101.1244999999999976
11
101.9172999999999973
21
-103.9474999999999909
0
LINE
8
LYELLOW
6
CONTINUOUS
10
101.9172999999999973
20
-106.0274999999999892
11
101.9172999999999973
21
-108.8504999999999967
0
LINE
8
LYELLOW
6
CONTINUOUS
10
101.9572999999999894
20
-101.1384999999999934
11
101.9572999999999894
21
-103.9474999999999909
0
LINE
8
LYELLOW
6
CONTINUOUS
10
101.9572999999999894
20
-106.0274999999999892
11
101.9572999999999894
21
-108.8365000000000009
0
LINE
8
LYELLOW
6
CONTINUOUS
10
101.9972999999999956
20
-101.1524999999999892
11
101.9972999999999956
21
-103.9474999999999909
0
LINE
8
LYELLOW
6
CONTINUOUS
10
101.9972999999999956
20
-106.0274999999999892
11
101.9972999999999956
21
-108.8224999999999909
0
LINE
8
LYELLOW
6
CONTINUOUS
10
102.0373000000000019
20
-101.1674999999999898
11
102.0373000000000019
21
-103.9474999999999909
0
LINE
8
LYELLOW
6
CONTINUOUS
10
102.0373000000000019
20
-106.0274999999999892
11
102.0373000000000019
21
-108.8074999999999903
0
LINE
8
LYELLOW
6
CONTINUOUS
10
102.0772999999999939
20
-101.1824999999999903
11
102.0772999999999939
21
-103.9474999999999909
0
LINE
8
LYELLOW
6
CONTINUOUS
10
102.0772999999999939
20
-106.0274999999999892
11
102.0772999999999939
21
-108.7924999999999898
0
LINE
8
LYELLOW
6
CONTINUOUS
10
102.1173000000000002
20
-101.1984999999999957
11
102.1173000000000002
21
-103.9474999999999909
0
LINE
8
LYELLOW
6
CONTINUOUS
10
102.1173000000000002
20
-106.0274999999999892
11
102.1173000000000002
21
-108.7764999999999986
0
LINE
8
LYELLOW
6
CONTINUOUS
10
102.1572999999999922
20
-101.214500000000001
11
102.1572999999999922
21
-103.9474999999999909
0
LINE
8
LYELLOW
6
CONTINUOUS
10
102.1572999999999922
20
-106.0274999999999892
11
102.1572999999999922
21
-108.7604999999999933
0
LINE
8
LYELLOW
6
CONTINUOUS
10
102.1972999999999985
20
-101.2304999999999922
11
102.1972999999999985
21
-103.9474999999999909
0
LINE
8
LYELLOW
6
CONTINUOUS
10
102.1972999999999985
20
-106.0274999999999892
11
102.1972999999999985
21
-108.7445000000000022
0
LINE
8
LYELLOW
6
CONTINUOUS
10
102.2372999999999905
20
-101.2475000000000023
11
102.2372999999999905
21
-103.9474999999999909
0
LINE
8
LYELLOW
6
CONTINUOUS
10
102.2372999999999905
20
-106.0274999999999892
11
102.2372999999999905
21
-108.727499999999992
0
LINE
8
LYELLOW
6
CONTINUOUS
10
102.2772999999999968
20
-101.2654999999999887
11
102.2772999999999968
21
-103.9474999999999909
0
LINE
8
LYELLOW
6
CONTINUOUS
10
102.2772999999999968
20
-106.0274999999999892
11
102.2772999999999968
21
-108.7094999999999914
0
LINE
8
LYELLOW
6
CONTINUOUS
10
102.3172999999999888
20
-101.2834999999999894
11
102.3172999999999888
21
-103.9474999999999909
0
LINE
8
LYELLOW
6
CONTINUOUS
10
102.3172999999999888
20
-106.0274999999999892
11
102.3172999999999888
21
-108.6914999999999907
0
LINE
8
LYELLOW
6
CONTINUOUS
10
102.3572999999999951
20
-101.3024999999999949
11
102.3572999999999951
21
-103.9474999999999909
0
LINE
8
LYELLOW
6
CONTINUOUS
10
102.3572999999999951
20
-106.0274999999999892
11
102.3572999999999951
21
-108.6724999999999994
0
LINE
8
LYELLOW
6
CONTINUOUS
10
102.3973000000000013
20
-101.3215000000000003
11
102.3973000000000013
21
-103.9474999999999909
0
LINE
8
LYELLOW
6
CONTINUOUS
10
102.3973000000000013
20
-106.0274999999999892
11
102.3973000000000013
21
-108.653499999999994
0
LINE
8
LYELLOW
6
CONTINUOUS
10
102.4372999999999934
20
-101.3414999999999964
11
102.4372999999999934
21
-103.9474999999999909
0
LINE
8
LYELLOW
6
CONTINUOUS
10
102.4372999999999934
20
-106.0274999999999892
11
102.4372999999999934
21
-108.633499999999998
0
LINE
8
LYELLOW
6
CONTINUOUS
10
102.4772999999999996
20
-101.3614999999999924
11
102.4772999999999996
21
-103.9474999999999909
0
LINE
8
LYELLOW
6
CONTINUOUS
10
102.4772999999999996
20
-106.0274999999999892
11
102.4772999999999996
21
-108.6135000000000019
0
LINE
8
LYELLOW
6
CONTINUOUS
10
102.5172999999999917
20
-101.3824999999999932
11
102.5172999999999917
21
-103.9474999999999909
0
LINE
8
LYELLOW
6
CONTINUOUS
10
102.5172999999999917
20
-106.0274999999999892
11
102.5172999999999917
21
-108.5925000000000011
0
LINE
8
LYELLOW
6
CONTINUOUS
10
102.5572999999999979
20
-101.403499999999994
11
102.5572999999999979
21
-103.9474999999999909
0
LINE
8
LYELLOW
6
CONTINUOUS
10
102.5572999999999979
20
-106.0274999999999892
11
102.5572999999999979
21
-108.5715000000000003
0
LINE
8
LYELLOW
6
CONTINUOUS
10
102.59729999999999
20
-101.4254999999999995
11
102.59729999999999
21
-103.9474999999999909
0
LINE
8
LYELLOW
6
CONTINUOUS
10
102.59729999999999
20
-106.0274999999999892
11
102.59729999999999
21
-108.5494999999999948
0
LINE
8
LYELLOW
6
CONTINUOUS
10
102.6372999999999962
20
-101.4484999999999957
11
102.6372999999999962
21
-103.9474999999999909
0
LINE
8
LYELLOW
6
CONTINUOUS
10
102.6372999999999962
20
-106.0274999999999892
11
102.6372999999999962
21
-108.5264999999999986
0
LINE
8
LYELLOW
6
CONTINUOUS
10
102.6773000000000025
20
-101.4714999999999918
11
102.6773000000000025
21
-103.9474999999999909
0
LINE
8
LYELLOW
6
CONTINUOUS
10
102.6773000000000025
20
-106.0274999999999892
11
102.6773000000000025
21
-108.5034999999999883
0
LINE
8
LYELLOW
6
CONTINUOUS
10
102.7172999999999945
20
-101.4945000000000022
11
102.7172999999999945
21
-103.9474999999999909
0
LINE
8
LYELLOW
6
CONTINUOUS
10
102.7172999999999945
20
-106.0274999999999892
11
102.7172999999999945
21
-108.4804999999999922
0
LINE
8
LYELLOW
6
CONTINUOUS
10
102.7573000000000008
20
-101.5194999999999936
11
102.7573000000000008
21
-103.9474999999999909
0
LINE
8
LYELLOW
6
CONTINUOUS
10
102.7573000000000008
20
-106.0274999999999892
11
102.7573000000000008
21
-108.4555000000000007
0
LINE
8
LYELLOW
6
CONTINUOUS
10
102.7972999999999928
20
-101.5444999999999993
11
102.7972999999999928
21
-103.9474999999999909
0
LINE
8
LYELLOW
6
CONTINUOUS
10
102.7972999999999928
20
-106.0274999999999892
11
102.7972999999999928
21
-108.430499999999995
0
LINE
8
LYELLOW
6
CONTINUOUS
10
102.837299999999999
20
-101.5694999999999908
11
102.837299999999999
21
-103.9474999999999909
0
LINE
8
LYELLOW
6
CONTINUOUS
10
102.837299999999999
20
-106.0274999999999892
11
102.837299999999999
21
-108.4054999999999893
0
LINE
8
LYELLOW
6
CONTINUOUS
10
102.8772999999999911
20
-101.5955000000000013
11
102.8772999999999911
21
-103.9474999999999909
0
LINE
8
LYELLOW
6
CONTINUOUS
10
102.8772999999999911
20
-106.0274999999999892
11
102.8772999999999911
21
-108.3794999999999931
0
LINE
8
LYELLOW
6
CONTINUOUS
10
102.9172999999999973
20
-101.6225000000000023
11
102.9172999999999973
21
-103.9474999999999909
0
LINE
8
LYELLOW
6
CONTINUOUS
10
102.9172999999999973
20
-106.0274999999999892
11
102.9172999999999973
21
-108.352499999999992
0
LINE
8
LYELLOW
6
CONTINUOUS
10
102.9572999999999894
20
-101.6504999999999939
11
102.9572999999999894
21
-103.9474999999999909
0
LINE
8
LYELLOW
6
CONTINUOUS
10
102.9572999999999894
20
-106.0274999999999892
11
102.9572999999999894
21
-108.3245000000000005
0
LINE
8
LYELLOW
6
CONTINUOUS
10
102.9972999999999956
20
-101.6784999999999997
11
102.9972999999999956
21
-103.9474999999999909
0
LINE
8
LYELLOW
6
CONTINUOUS
10
102.9972999999999956
20
-106.0274999999999892
11
102.9972999999999956
21
-108.2964999999999947
0
LINE
8
LYELLOW
6
CONTINUOUS
10
103.0373000000000019
20
-101.707499999999996
11
103.0373000000000019
21
-103.9474999999999909
0
LINE
8
LYELLOW
6
CONTINUOUS
10
103.0373000000000019
20
-106.0274999999999892
11
103.0373000000000019
21
-108.2674999999999983
0
LINE
8
LYELLOW
6
CONTINUOUS
10
103.0772999999999939
20
-101.7374999999999972
11
103.0772999999999939
21
-103.9474999999999909
0
LINE
8
LYELLOW
6
CONTINUOUS
10
103.0772999999999939
20
-106.0274999999999892
11
103.0772999999999939
21
-108.2374999999999972
0
LINE
8
LYELLOW
6
CONTINUOUS
10
103.1173000000000002
20
-101.7684999999999889
11
103.1173000000000002
21
-103.9474999999999909
0
LINE
8
LYELLOW
6
CONTINUOUS
10
103.1173000000000002
20
-106.0274999999999892
11
103.1173000000000002
21
-108.2064999999999912
0
LINE
8
LYELLOW
6
CONTINUOUS
10
103.1572999999999922
20
-101.7994999999999948
11
103.1572999999999922
21
-103.9474999999999909
0
LINE
8
LYELLOW
6
CONTINUOUS
10
103.1572999999999922
20
-106.0274999999999892
11
103.1572999999999922
21
-108.1754999999999995
0
LINE
8
LYELLOW
6
CONTINUOUS
10
103.1972999999999985
20
-101.8314999999999912
11
103.1972999999999985
21
-103.9474999999999909
0
LINE
8
LYELLOW
6
CONTINUOUS
10
103.1972999999999985
20
-106.0274999999999892
11
103.1972999999999985
21
-108.1434999999999889
0
LINE
8
LYELLOW
6
CONTINUOUS
10
103.2372999999999905
20
-101.8644999999999925
11
103.2372999999999905
21
-103.9474999999999909
0
LINE
8
LYELLOW
6
CONTINUOUS
10
103.2372999999999905
20
-106.0274999999999892
11
103.2372999999999905
21
-108.1105000000000018
0
LINE
8
LYELLOW
6
CONTINUOUS
10
103.2772999999999968
20
-101.8984999999999985
11
103.2772999999999968
21
-103.9474999999999909
0
LINE
8
LYELLOW
6
CONTINUOUS
10
103.2772999999999968
20
-106.0274999999999892
11
103.2772999999999968
21
-108.0764999999999958
0
LINE
8
LYELLOW
6
CONTINUOUS
10
103.3172999999999888
20
-101.9324999999999903
11
103.3172999999999888
21
-103.9474999999999909
0
LINE
8
LYELLOW
6
CONTINUOUS
10
103.3172999999999888
20
-106.0274999999999892
11
103.3172999999999888
21
-108.0424999999999898
0
LINE
8
LYELLOW
6
CONTINUOUS
10
103.3572999999999951
20
-101.9684999999999917
11
103.3572999999999951
21
-103.9474999999999909
0
LINE
8
LYELLOW
6
CONTINUOUS
10
103.3572999999999951
20
-106.0274999999999892
11
103.3572999999999951
21
-108.0064999999999884
0
LINE
8
LYELLOW
6
CONTINUOUS
10
103.3973000000000013
20
-102.0054999999999978
11
103.3973000000000013
21
-107.9694999999999965
0
LINE
8
LYELLOW
6
CONTINUOUS
10
103.4372999999999934
20
-102.0424999999999898
11
103.4372999999999934
21
-107.9324999999999903
0
LINE
8
LYELLOW
6
CONTINUOUS
10
103.4772999999999996
20
-102.0814999999999912
11
103.4772999999999996
21
-107.8934999999999889
0
LINE
8
LYELLOW
6
CONTINUOUS
10
103.5172999999999917
20
-102.1204999999999927
11
103.5172999999999917
21
-107.8545000000000016
0
LINE
8
LYELLOW
6
CONTINUOUS
10
103.5572999999999979
20
-102.1614999999999895
11
103.5572999999999979
21
-107.8134999999999906
0
LINE
8
LYELLOW
6
CONTINUOUS
10
103.59729999999999
20
-102.2034999999999911
11
103.59729999999999
21
-107.771499999999989
0
LINE
8
LYELLOW
6
CONTINUOUS
10
103.6372999999999962
20
-102.2464999999999975
11
103.6372999999999962
21
-107.7284999999999968
0
LINE
8
LYELLOW
6
CONTINUOUS
10
103.6772999999999882
20
-102.2914999999999992
11
103.6772999999999882
21
-107.6834999999999951
0
LINE
8
LYELLOW
6
CONTINUOUS
10
103.7172999999999945
20
-102.3365000000000009
11
103.7172999999999945
21
-107.6384999999999934
0
LINE
8
LYELLOW
6
CONTINUOUS
10
103.7573000000000008
20
-102.383499999999998
11
103.7573000000000008
21
-107.5914999999999964
0
LINE
8
LYELLOW
6
CONTINUOUS
10
103.7972999999999928
20
-102.4324999999999903
11
103.7972999999999928
21
-107.5424999999999898
0
LINE
8
LYELLOW
6
CONTINUOUS
10
103.837299999999999
20
-102.4825000000000017
11
103.837299999999999
21
-107.4924999999999926
0
LINE
8
LYELLOW
6
CONTINUOUS
10
103.8772999999999911
20
-102.5344999999999942
11
103.8772999999999911
21
-107.4405000000000001
0
LINE
8
LYELLOW
6
CONTINUOUS
10
103.9172999999999973
20
-102.5874999999999915
11
103.9172999999999973
21
-107.3874999999999886
0
LINE
8
LYELLOW
6
CONTINUOUS
10
103.9572999999999894
20
-102.6434999999999889
11
103.9572999999999894
21
-107.3314999999999912
0
LINE
8
LYELLOW
6
CONTINUOUS
10
103.9972999999999956
20
-102.700499999999991
11
103.9972999999999956
21
-107.2744999999999891
0
LINE
8
LYELLOW
6
CONTINUOUS
10
104.0373000000000019
20
-102.7604999999999933
11
104.0373000000000019
21
-107.214500000000001
0
LINE
8
LYELLOW
6
CONTINUOUS
10
104.0772999999999939
20
-102.8224999999999909
11
104.0772999999999939
21
-107.1524999999999892
0
LINE
8
LYELLOW
6
CONTINUOUS
10
104.1173000000000002
20
-102.8864999999999981
11
104.1173000000000002
21
-107.0884999999999962
0
LINE
8
LYELLOW
6
CONTINUOUS
10
104.1572999999999922
20
-102.9534999999999911
11
104.1572999999999922
21
-107.021499999999989
0
LINE
8
LYELLOW
6
CONTINUOUS
10
104.1972999999999985
20
-103.0234999999999985
11
104.1972999999999985
21
-106.9514999999999958
0
LINE
8
LYELLOW
6
CONTINUOUS
10
104.2372999999999905
20
-103.0974999999999966
11
104.2372999999999905
21
-106.8774999999999977
0
LINE
8
LYELLOW
6
CONTINUOUS
10
104.2772999999999968
20
-103.1744999999999948
11
104.2772999999999968
21
-106.8004999999999995
0
LINE
8
LYELLOW
6
CONTINUOUS
10
104.3172999999999888
20
-103.2564999999999884
11
104.3172999999999888
21
-106.7184999999999917
0
LINE
8
LYELLOW
6
CONTINUOUS
10
104.3572999999999951
20
-103.3434999999999917
11
104.3572999999999951
21
-106.6314999999999884
0
LINE
8
LYELLOW
6
CONTINUOUS
10
104.3973000000000013
20
-103.4354999999999905
11
104.3973000000000013
21
-106.5394999999999897
0
LINE
8
LYELLOW
6
CONTINUOUS
10
104.4372999999999934
20
-103.5344999999999942
11
104.4372999999999934
21
-106.4405000000000001
0
LINE
8
LYELLOW
6
CONTINUOUS
10
104.4772999999999996
20
-103.6414999999999935
11
104.4772999999999996
21
-106.3335000000000008
0
LINE
8
LYELLOW
6
CONTINUOUS
10
104.5172999999999917
20
-103.7594999999999885
11
104.5172999999999917
21
-106.2154999999999916
0
LINE
8
LYELLOW
6
CONTINUOUS
10
104.5572999999999979
20
-103.8904999999999887
11
104.5572999999999979
21
-106.0844999999999914
0
LINE
8
LYELLOW
6
CONTINUOUS
10
104.59729999999999
20
-104.0404999999999944
11
104.59729999999999
21
-105.9344999999999999
0
LINE
8
LYELLOW
6
CONTINUOUS
10
104.6372999999999962
20
-104.2194999999999965
11
104.6372999999999962
21
-105.7554999999999978
0
LINE
8
LYELLOW
6
CONTINUOUS
10
104.6772999999999882
20
-104.4544999999999959
11
104.6772999999999882
21
-105.5204999999999984
0
CIRCLE
8
LYELLOW
10
100.59729999999999
20
-104.9874999999999972
40
4.1200000000000001
0
LINE
8
LYELLOW
6
CONTINUOUS
10
69.25
20
-69.1174999999999926
11
69.25
21
-76.8575000000000017
0
LINE
8
LYELLOW
6
CONTINUOUS
10
69.25
20
-76.8575000000000017
11
73.75
21
-76.8575000000000017
0
LINE
8
LYELLOW
6
CONTINUOUS
10
70.5
20
-69.1174999999999926
11
69.25
21
-69.1174999999999926
0
LINE
8
LYELLOW
6
CONTINUOUS
10
73.75
20
-69.1174999999999926
11
72.5
21
-69.1174999999999926
0
LINE
8
LYELLOW
6
CONTINUOUS
10
73.75
20
-76.8575000000000017
11
73.75
21
-69.1174999999999926
0
ARC
8
LYELLOW
10
71.5
20
-69.1174999999999926
40
1.
50
-180.00000000
51
-0.00000000
0
LINE
8
LYELLOW
6
CONTINUOUS
10
42.3524999999999991
20
-69.0699999999999932
11
42.3524999999999991
21
-70.453000000000003
0
LINE
8
LYELLOW
6
CONTINUOUS
10
42.3524999999999991
20
-69.0699999999999932
11
43.7354999999999947
21
-69.0699999999999932
0
LINE
8
LYELLOW
6
CONTINUOUS
10
42.5925000000000011
20
-69.3100000000000023
11
42.5925000000000011
21
-76.6899999999999977
0
LINE
8
LYELLOW
6
CONTINUOUS
10
42.5925000000000011
20
-69.3100000000000023
11
52.4924999999999997
21
-69.3100000000000023
0
LINE
8
LYELLOW
6
CONTINUOUS
10
42.5925000000000011
20
-76.6899999999999977
11
52.4924999999999997
21
-76.6899999999999977
0
LINE
8
LYELLOW
6
CONTINUOUS
10
46.865832999999995
20
-71.0949999999999989
11
46.865832999999995
21
-72.3649999999999949
0
LINE
8
LYELLOW
6
CONTINUOUS
10
46.865832999999995
20
-73.6349999999999909
11
46.865832999999995
21
-74.9050000000000011
0
LINE
8
LYELLOW
6
CONTINUOUS
10
52.4924999999999997
20
-69.3100000000000023
11
52.4924999999999997
21
-76.6899999999999977
0
LINE
8
LYELLOW
6
CONTINUOUS
10
46.8887939999999972
20
-71.039566999999991
11
46.9212659999999957
21
-71.0720390000000037
0
LINE
8
LYELLOW
6
CONTINUOUS
10
46.9212659999999957
20
-71.0720390000000037
11
46.9258329999999972
21
-71.0949999999999989
0
LINE
8
LYELLOW
6
CONTINUOUS
10
46.9258329999999972
20
-71.0949999999999989
11
46.9258329999999972
21
-72.3649999999999949
0
LINE
8
LYELLOW
6
CONTINUOUS
10
46.9258329999999972
20
-72.3649999999999949
11
46.9212659999999957
21
-72.38796099999999
0
LINE
8
LYELLOW
6
CONTINUOUS
10
46.9212659999999957
20
-72.38796099999999
11
46.8887939999999972
21
-72.4204330000000027
0
LINE
8
LYELLOW
6
CONTINUOUS
10
46.8887939999999972
20
-72.4204330000000027
11
46.865832999999995
21
-72.4249999999999972
0
LINE
8
LYELLOW
6
CONTINUOUS
10
46.865832999999995
20
-72.4249999999999972
11
45.5124999999999957
21
-72.4249999999999972
0
LINE
8
LYELLOW
6
CONTINUOUS
10
45.5124999999999957
20
-72.4249999999999972
11
45.4895390000000006
21
-72.4204330000000027
0
LINE
8
LYELLOW
6
CONTINUOUS
10
45.4895390000000006
20
-72.4204330000000027
11
45.457066999999995
21
-72.38796099999999
0
LINE
8
LYELLOW
6
CONTINUOUS
10
45.457066999999995
20
-72.38796099999999
11
45.4525000000000006
21
-72.3649999999999949
0
LINE
8
LYELLOW
6
CONTINUOUS
10
45.4525000000000006
20
-72.3649999999999949
11
45.4525000000000006
21
-71.0949999999999989
0
LINE
8
LYELLOW
6
CONTINUOUS
10
45.4525000000000006
20
-71.0949999999999989
11
45.457066999999995
21
-71.0720390000000037
0
LINE
8
LYELLOW
6
CONTINUOUS
10
45.457066999999995
20
-71.0720390000000037
11
45.4895390000000006
21
-71.039566999999991
0
LINE
8
LYELLOW
6
CONTINUOUS
10
45.4895390000000006
20
-71.039566999999991
11
45.5124999999999957
21
-71.0349999999999966
0
LINE
8
LYELLOW
6
CONTINUOUS
10
45.5124999999999957
20
-71.0349999999999966
11
46.865832999999995
21
-71.0349999999999966
0
LINE
8
LYELLOW
6
CONTINUOUS
10
46.865832999999995
20
-71.0349999999999966
11
46.8887939999999972
21
-71.039566999999991
0
LINE
8
LYELLOW
6
CONTINUOUS
10
45.5124999999999957
20
-71.0949999999999989
11
49.572499999999998
21
-71.0949999999999989
0
LINE
8
LYELLOW
6
CONTINUOUS
10
49.572499999999998
20
-71.0949999999999989
11
49.572499999999998
21
-72.3649999999999949
0
LINE
8
LYELLOW
6
CONTINUOUS
10
49.572499999999998
20
-72.3649999999999949
11
45.5124999999999957
21
-72.3649999999999949
0
LINE
8
LYELLOW
6
CONTINUOUS
10
45.5124999999999957
20
-72.3649999999999949
11
45.5124999999999957
21
-71.0949999999999989
0
LINE
8
LYELLOW
6
CONTINUOUS
10
46.8887939999999972
20
-73.5795669999999973
11
46.9212659999999957
21
-73.6120389999999958
0
LINE
8
LYELLOW
6
CONTINUOUS
10
46.9212659999999957
20
-73.6120389999999958
11
46.9258329999999972
21
-73.6349999999999909
0
LINE
8
LYELLOW
6
CONTINUOUS
10
46.9258329999999972
20
-73.6349999999999909
11
46.9258329999999972
21
-74.9050000000000011
0
LINE
8
LYELLOW
6
CONTINUOUS
10
46.9258329999999972
20
-74.9050000000000011
11
46.9212659999999957
21
-74.9279609999999963
0
LINE
8
LYELLOW
6
CONTINUOUS
10
46.9212659999999957
20
-74.9279609999999963
11
46.8887939999999972
21
-74.9604329999999948
0
LINE
8
LYELLOW
6
CONTINUOUS
10
46.8887939999999972
20
-74.9604329999999948
11
46.865832999999995
21
-74.9650000000000034
0
LINE
8
LYELLOW
6
CONTINUOUS
10
46.865832999999995
20
-74.9650000000000034
11
45.5124999999999957
21
-74.9650000000000034
0
LINE
8
LYELLOW
6
CONTINUOUS
10
45.5124999999999957
20
-74.9650000000000034
11
45.4895390000000006
21
-74.9604329999999948
0
LINE
8
LYELLOW
6
CONTINUOUS
10
45.4895390000000006
20
-74.9604329999999948
11
45.457066999999995
21
-74.9279609999999963
0
LINE
8
LYELLOW
6
CONTINUOUS
10
45.457066999999995
20
-74.9279609999999963
11
45.4525000000000006
21
-74.9050000000000011
0
LINE
8
LYELLOW
6
CONTINUOUS
10
45.4525000000000006
20
-74.9050000000000011
11
45.4525000000000006
21
-73.6349999999999909
0
LINE
8
LYELLOW
6
CONTINUOUS
10
45.4525000000000006
20
-73.6349999999999909
11
45.457066999999995
21
-73.6120389999999958
0
LINE
8
LYELLOW
6
CONTINUOUS
10
45.457066999999995
20
-73.6120389999999958
11
45.4895390000000006
21
-73.5795669999999973
0
LINE
8
LYELLOW
6
CONTINUOUS
10
45.4895390000000006
20
-73.5795669999999973
11
45.5124999999999957
21
-73.5750000000000028
0
LINE
8
LYELLOW
6
CONTINUOUS
10
45.5124999999999957
20
-73.5750000000000028
11
46.865832999999995
21
-73.5750000000000028
0
LINE
8
LYELLOW
6
CONTINUOUS
10
46.865832999999995
20
-73.5750000000000028
11
46.8887939999999972
21
-73.5795669999999973
0
LINE
8
LYELLOW
6
CONTINUOUS
10
45.5124999999999957
20
-73.6349999999999909
11
49.572499999999998
21
-73.6349999999999909
0
LINE
8
LYELLOW
6
CONTINUOUS
10
49.572499999999998
20
-73.6349999999999909
11
49.572499999999998
21
-74.9050000000000011
0
LINE
8
LYELLOW
6
CONTINUOUS
10
49.572499999999998
20
-74.9050000000000011
11
45.5124999999999957
21
-74.9050000000000011
0
LINE
8
LYELLOW
6
CONTINUOUS
10
45.5124999999999957
20
-74.9050000000000011
11
45.5124999999999957
21
-73.6349999999999909
0
LINE
8
LYELLOW
6
CONTINUOUS
10
76.8799999999999955
20
-56.6174999999999997
11
82.1199999999999903
21
-56.6174999999999997
0
LINE
8
LYELLOW
6
CONTINUOUS
10
76.8799999999999955
20
-56.9544999999999959
11
76.8799999999999955
21
-56.6174999999999997
0
LINE
8
LYELLOW
6
CONTINUOUS
10
76.8799999999999955
20
-59.3574999999999946
11
76.8799999999999955
21
-59.0204999999999984
0
LINE
8
LYELLOW
6
CONTINUOUS
10
82.1199999999999903
20
-56.6174999999999997
11
82.1199999999999903
21
-56.9544999999999959
0
LINE
8
LYELLOW
6
CONTINUOUS
10
82.1199999999999903
20
-59.0204999999999984
11
82.1199999999999903
21
-59.3574999999999946
0
LINE
8
LYELLOW
6
CONTINUOUS
10
82.1199999999999903
20
-59.3574999999999946
11
76.8799999999999955
21
-59.3574999999999946
0
LINE
8
LYELLOW
6
CONTINUOUS
10
87.8799999999999955
20
-99.6174999999999926
11
93.1199999999999903
21
-99.6174999999999926
0
LINE
8
LYELLOW
6
CONTINUOUS
10
87.8799999999999955
20
-99.9544999999999959
11
87.8799999999999955
21
-99.6174999999999926
0
LINE
8
LYELLOW
6
CONTINUOUS
10
87.8799999999999955
20
-102.3575000000000017
11
87.8799999999999955
21
-102.0204999999999984
0
LINE
8
LYELLOW
6
CONTINUOUS
10
93.1199999999999903
20
-99.6174999999999926
11
93.1199999999999903
21
-99.9544999999999959
0
LINE
8
LYELLOW
6
CONTINUOUS
10
93.1199999999999903
20
-102.0204999999999984
11
93.1199999999999903
21
-102.3575000000000017
0
LINE
8
LYELLOW
6
CONTINUOUS
10
93.1199999999999903
20
-102.3575000000000017
11
87.8799999999999955
21
-102.3575000000000017
0
LINE
8
LYELLOW
6
CONTINUOUS
10
58.1299999999999955
20
-68.7175000000000011
11
58.4600000000000009
21
-68.7175000000000011
0
LINE
8
LYELLOW
6
CONTINUOUS
10
58.1299999999999955
20
-75.2574999999999932
11
58.1299999999999955
21
-68.7175000000000011
0
LINE
8
LYELLOW
6
CONTINUOUS
10
58.4600000000000009
20
-75.2574999999999932
11
58.1299999999999955
21
-75.2574999999999932
0
LINE
8
LYELLOW
6
CONTINUOUS
10
60.5399999999999991
20
-75.2574999999999932
11
60.8699999999999974
21
-75.2574999999999932
0
LINE
8
LYELLOW
6
CONTINUOUS
10
60.8699999999999974
20
-68.7175000000000011
11
60.5399999999999991
21
-68.7175000000000011
0
LINE
8
LYELLOW
6
CONTINUOUS
10
60.8699999999999974
20
-75.2574999999999932
11
60.8699999999999974
21
-68.7175000000000011
0
LINE
8
LYELLOW
6
CONTINUOUS
10
74.625
20
-39.4624999999999986
11
84.375
21
-39.4624999999999986
0
LINE
8
LYELLOW
6
CONTINUOUS
10
74.625
20
-44.5124999999999957
11
74.625
21
-39.4624999999999986
0
LINE
8
LYELLOW
6
CONTINUOUS
10
84.375
20
-39.4624999999999986
11
84.375
21
-44.5124999999999957
0
LINE
8
LYELLOW
6
CONTINUOUS
10
84.375
20
-44.5124999999999957
11
74.625
21
-44.5124999999999957
0
LINE
8
LYELLOW
6
CONTINUOUS
10
82.1299999999999955
20
-68.7175000000000011
11
82.4599999999999937
21
-68.7175000000000011
0
LINE
8
LYELLOW
6
CONTINUOUS
10
82.1299999999999955
20
-75.2574999999999932
11
82.1299999999999955
21
-68.7175000000000011
0
LINE
8
LYELLOW
6
CONTINUOUS
10
82.4599999999999937
20
-75.2574999999999932
11
82.1299999999999955
21
-75.2574999999999932
0
LINE
8
LYELLOW
6
CONTINUOUS
10
84.539999999999992
20
-75.2574999999999932
11
84.8699999999999903
21
-75.2574999999999932
0
LINE
8
LYELLOW
6
CONTINUOUS
10
84.8699999999999903
20
-68.7175000000000011
11
84.539999999999992
21
-68.7175000000000011
0
LINE
8
LYELLOW
6
CONTINUOUS
10
84.8699999999999903
20
-75.2574999999999932
11
84.8699999999999903
21
-68.7175000000000011
0
LINE
8
LYELLOW
6
CONTINUOUS
10
58.3799999999999955
20
-44.2674999999999983
11
60.6199999999999974
21
-44.2674999999999983
0
LINE
8
LYELLOW
6
CONTINUOUS
10
58.3799999999999955
20
-44.3874999999999957
11
60.6199999999999974
21
-44.3874999999999957
0
LINE
8
LYELLOW
6
CONTINUOUS
10
58.3799999999999955
20
-44.5075000000000003
11
60.6199999999999974
21
-44.5075000000000003
0
LINE
8
LYELLOW
6
CONTINUOUS
10
59.5
20
-40.2175000000000011
11
59.5
21
-40.8674999999999997
0
LINE
8
LYELLOW
6
CONTINUOUS
10
59.5
20
-45.7575000000000003
11
59.5
21
-45.1074999999999946
0
LINE
8
LYELLOW
6
CONTINUOUS
10
58.3799999999999955
20
-45.1074999999999946
11
60.6199999999999974
21
-45.1074999999999946
0
LINE
8
LYELLOW
6
CONTINUOUS
10
60.6199999999999974
20
-45.1074999999999946
11
60.6199999999999974
21
-40.8674999999999997
0
LINE
8
LYELLOW
6
CONTINUOUS
10
60.6199999999999974
20
-40.8674999999999997
11
58.3799999999999955
21
-40.8674999999999997
0
LINE
8
LYELLOW
6
CONTINUOUS
10
58.3799999999999955
20
-40.8674999999999997
11
58.3799999999999955
21
-45.1074999999999946
0
LINE
8
LYELLOW
6
CONTINUOUS
10
50.1299999999999955
20
-39.7175000000000011
11
50.4600000000000009
21
-39.7175000000000011
0
LINE
8
LYELLOW
6
CONTINUOUS
10
50.1299999999999955
20
-46.2575000000000003
11
50.1299999999999955
21
-39.7175000000000011
0
LINE
8
LYELLOW
6
CONTINUOUS
10
50.4600000000000009
20
-46.2575000000000003
11
50.1299999999999955
21
-46.2575000000000003
0
LINE
8
LYELLOW
6
CONTINUOUS
10
52.5399999999999991
20
-46.2575000000000003
11
52.8699999999999974
21
-46.2575000000000003
0
LINE
8
LYELLOW
6
CONTINUOUS
10
52.8699999999999974
20
-39.7175000000000011
11
52.5399999999999991
21
-39.7175000000000011
0
LINE
8
LYELLOW
6
CONTINUOUS
10
52.8699999999999974
20
-46.2575000000000003
11
52.8699999999999974
21
-39.7175000000000011
0
LINE
8
LYELLOW
6
CONTINUOUS
10
53.1876019999999983
20
-26.6724999999999994
11
53.9876019999999954
21
-26.6724999999999994
0
LINE
8
LYELLOW
6
CONTINUOUS
10
53.5876019999999968
20
-26.2724999999999973
11
53.5876019999999968
21
-27.072499999999998
0
LINE
8
LYELLOW
6
CONTINUOUS
10
57.5972999999999971
20
-24.9074999999999989
11
57.5972999999999971
21
-33.0674999999999955
0
LINE
8
LYELLOW
6
CONTINUOUS
10
57.6372999999999962
20
-24.9074999999999989
11
57.6372999999999962
21
-33.0674999999999955
0
LINE
8
LYELLOW
6
CONTINUOUS
10
57.6772999999999954
20
-24.9085000000000001
11
57.6772999999999954
21
-33.0664999999999978
0
LINE
8
LYELLOW
6
CONTINUOUS
10
57.7172999999999945
20
-24.9094999999999978
11
57.7172999999999945
21
-33.0655000000000001
0
LINE
8
LYELLOW
6
CONTINUOUS
10
57.7573000000000008
20
-24.910499999999999
11
57.7573000000000008
21
-33.0644999999999953
0
LINE
8
LYELLOW
6
CONTINUOUS
10
57.7972999999999999
20
-24.9124999999999979
11
57.7972999999999999
21
-33.0625
0
LINE
8
LYELLOW
6
CONTINUOUS
10
57.837299999999999
20
-24.9145000000000003
11
57.837299999999999
21
-33.0604999999999976
0
LINE
8
LYELLOW
6
CONTINUOUS
10
57.8772999999999982
20
-24.9175000000000004
11
57.8772999999999982
21
-33.0574999999999974
0
LINE
8
LYELLOW
6
CONTINUOUS
10
57.9172999999999973
20
-24.9194999999999993
11
57.9172999999999973
21
-33.055499999999995
0
LINE
8
LYELLOW
6
CONTINUOUS
10
57.9572999999999965
20
-24.9234999999999971
11
57.9572999999999965
21
-33.0514999999999972
0
LINE
8
LYELLOW
6
CONTINUOUS
10
57.9972999999999956
20
-24.9264999999999972
11
57.9972999999999956
21
-33.0484999999999971
0
LINE
8
LYELLOW
6
CONTINUOUS
10
58.0372999999999948
20
-24.9314999999999998
11
58.0372999999999948
21
-33.0435000000000016
0
LINE
8
LYELLOW
6
CONTINUOUS
10
58.0772999999999939
20
-24.9354999999999976
11
58.0772999999999939
21
-33.0394999999999968
0
LINE
8
LYELLOW
6
CONTINUOUS
10
58.1173000000000002
20
-24.9405000000000001
11
58.1173000000000002
21
-33.0345000000000013
0
LINE
8
LYELLOW
6
CONTINUOUS
10
58.1572999999999993
20
-24.9454999999999991
11
58.1572999999999993
21
-33.0294999999999987
0
LINE
8
LYELLOW
6
CONTINUOUS
10
58.1972999999999985
20
-24.9514999999999993
11
58.1972999999999985
21
-33.0234999999999985
0
LINE
8
LYELLOW
6
CONTINUOUS
10
58.2372999999999976
20
-24.9574999999999996
11
58.2372999999999976
21
-33.0174999999999983
0
LINE
8
LYELLOW
6
CONTINUOUS
10
58.2772999999999968
20
-24.9644999999999975
11
58.2772999999999968
21
-33.0105000000000004
0
LINE
8
LYELLOW
6
CONTINUOUS
10
58.3172999999999959
20
-24.9704999999999977
11
58.3172999999999959
21
-27.947499999999998
0
LINE
8
LYELLOW
6
CONTINUOUS
10
58.3172999999999959
20
-30.0274999999999999
11
58.3172999999999959
21
-33.0045000000000002
0
LINE
8
LYELLOW
6
CONTINUOUS
10
58.3572999999999951
20
-24.9785000000000004
11
58.3572999999999951
21
-27.947499999999998
0
LINE
8
LYELLOW
6
CONTINUOUS
10
58.3572999999999951
20
-30.0274999999999999
11
58.3572999999999951
21
-32.9964999999999975
0
LINE
8
LYELLOW
6
CONTINUOUS
10
58.3972999999999942
20
-24.9854999999999983
11
58.3972999999999942
21
-27.947499999999998
0
LINE
8
LYELLOW
6
CONTINUOUS
10
58.3972999999999942
20
-30.0274999999999999
11
58.3972999999999942
21
-32.9894999999999996
0
LINE
8
LYELLOW
6
CONTINUOUS
10
58.4373000000000005
20
-24.9944999999999986
11
58.4373000000000005
21
-27.947499999999998
0
LINE
8
LYELLOW
6
CONTINUOUS
10
58.4373000000000005
20
-30.0274999999999999
11
58.4373000000000005
21
-32.9804999999999993
0
LINE
8
LYELLOW
6
CONTINUOUS
10
58.4772999999999996
20
-25.0024999999999977
11
58.4772999999999996
21
-27.947499999999998
0
LINE
8
LYELLOW
6
CONTINUOUS
10
58.4772999999999996
20
-30.0274999999999999
11
58.4772999999999996
21
-32.9724999999999966
0
LINE
8
LYELLOW
6
CONTINUOUS
10
58.5172999999999988
20
-25.0114999999999981
11
58.5172999999999988
21
-27.947499999999998
0
LINE
8
LYELLOW
6
CONTINUOUS
10
58.5172999999999988
20
-30.0274999999999999
11
58.5172999999999988
21
-32.9634999999999962
0
LINE
8
LYELLOW
6
CONTINUOUS
10
58.5572999999999979
20
-25.0204999999999984
11
58.5572999999999979
21
-27.947499999999998
0
LINE
8
LYELLOW
6
CONTINUOUS
10
58.5572999999999979
20
-30.0274999999999999
11
58.5572999999999979
21
-32.9544999999999959
0
LINE
8
LYELLOW
6
CONTINUOUS
10
58.5972999999999971
20
-25.0305
11
58.5972999999999971
21
-27.947499999999998
0
LINE
8
LYELLOW
6
CONTINUOUS
10
58.5972999999999971
20
-30.0274999999999999
11
58.5972999999999971
21
-32.9444999999999979
0
LINE
8
LYELLOW
6
CONTINUOUS
10
58.6372999999999962
20
-25.040499999999998
11
58.6372999999999962
21
-27.947499999999998
0
LINE
8
LYELLOW
6
CONTINUOUS
10
58.6372999999999962
20
-30.0274999999999999
11
58.6372999999999962
21
-32.9344999999999999
0
LINE
8
LYELLOW
6
CONTINUOUS
10
58.6772999999999954
20
-25.0514999999999972
11
58.6772999999999954
21
-27.947499999999998
0
LINE
8
LYELLOW
6
CONTINUOUS
10
58.6772999999999954
20
-30.0274999999999999
11
58.6772999999999954
21
-32.9234999999999971
0
LINE
8
LYELLOW
6
CONTINUOUS
10
58.7172999999999945
20
-25.0625
11
58.7172999999999945
21
-27.947499999999998
0
LINE
8
LYELLOW
6
CONTINUOUS
10
58.7172999999999945
20
-30.0274999999999999
11
58.7172999999999945
21
-32.9125000000000014
0
LINE
8
LYELLOW
6
CONTINUOUS
10
58.7573000000000008
20
-25.0745000000000005
11
58.7573000000000008
21
-27.947499999999998
0
LINE
8
LYELLOW
6
CONTINUOUS
10
58.7573000000000008
20
-30.0274999999999999
11
58.7573000000000008
21
-32.900500000000001
0
LINE
8
LYELLOW
6
CONTINUOUS
10
58.7972999999999999
20
-25.0864999999999974
11
58.7972999999999999
21
-27.947499999999998
0
LINE
8
LYELLOW
6
CONTINUOUS
10
58.7972999999999999
20
-30.0274999999999999
11
58.7972999999999999
21
-32.8885000000000005
0
LINE
8
LYELLOW
6
CONTINUOUS
10
58.837299999999999
20
-25.0984999999999978
11
58.837299999999999
21
-27.947499999999998
0
LINE
8
LYELLOW
6
CONTINUOUS
10
58.837299999999999
20
-30.0274999999999999
11
58.837299999999999
21
-32.8765000000000001
0
LINE
8
LYELLOW
6
CONTINUOUS
10
58.8772999999999982
20
-25.1114999999999995
11
58.8772999999999982
21
-27.947499999999998
0
LINE
8
LYELLOW
6
CONTINUOUS
10
58.8772999999999982
20
-30.0274999999999999
11
58.8772999999999982
21
-32.8635000000000019
0
LINE
8
LYELLOW
6
CONTINUOUS
10
58.9172999999999973
20
-25.1244999999999976
11
58.9172999999999973
21
-27.947499999999998
0
LINE
8
LYELLOW
6
CONTINUOUS
10
58.9172999999999973
20
-30.0274999999999999
11
58.9172999999999973
21
-32.8504999999999967
0
LINE
8
LYELLOW
6
CONTINUOUS
10
58.9572999999999965
20
-25.1385000000000005
11
58.9572999999999965
21
-27.947499999999998
0
LINE
8
LYELLOW
6
CONTINUOUS
10
58.9572999999999965
20
-30.0274999999999999
11
58.9572999999999965
21
-32.8365000000000009
0
LINE
8
LYELLOW
6
CONTINUOUS
10
58.9972999999999956
20
-25.1524999999999999
11
58.9972999999999956
21
-27.947499999999998
0
LINE
8
LYELLOW
6
CONTINUOUS
10
58.9972999999999956
20
-30.0274999999999999
11
58.9972999999999956
21
-32.822499999999998
0
LINE
8
LYELLOW
6
CONTINUOUS
10
59.0372999999999948
20
-25.1675000000000004
11
59.0372999999999948
21
-27.947499999999998
0
LINE
8
LYELLOW
6
CONTINUOUS
10
59.0372999999999948
20
-30.0274999999999999
11
59.0372999999999948
21
-32.8074999999999974
0
LINE
8
LYELLOW
6
CONTINUOUS
10
59.0772999999999939
20
-25.1824999999999974
11
59.0772999999999939
21
-27.947499999999998
0
LINE
8
LYELLOW
6
CONTINUOUS
10
59.0772999999999939
20
-30.0274999999999999
11
59.0772999999999939
21
-32.7924999999999969
0
LINE
8
LYELLOW
6
CONTINUOUS
10
59.1173000000000002
20
-25.1984999999999992
11
59.1173000000000002
21
-27.947499999999998
0
LINE
8
LYELLOW
6
CONTINUOUS
10
59.1173000000000002
20
-30.0274999999999999
11
59.1173000000000002
21
-32.7764999999999986
0
LINE
8
LYELLOW
6
CONTINUOUS
10
59.1572999999999993
20
-25.2144999999999975
11
59.1572999999999993
21
-27.947499999999998
0
LINE
8
LYELLOW
6
CONTINUOUS
10
59.1572999999999993
20
-30.0274999999999999
11
59.1572999999999993
21
-32.7605000000000004
0
LINE
8
LYELLOW
6
CONTINUOUS
10
59.1972999999999985
20
-25.2304999999999993
11
59.1972999999999985
21
-27.947499999999998
0
LINE
8
LYELLOW
6
CONTINUOUS
10
59.1972999999999985
20
-30.0274999999999999
11
59.1972999999999985
21
-32.7444999999999951
0
LINE
8
LYELLOW
6
CONTINUOUS
10
59.2372999999999976
20
-25.2474999999999987
11
59.2372999999999976
21
-27.947499999999998
0
LINE
8
LYELLOW
6
CONTINUOUS
10
59.2372999999999976
20
-30.0274999999999999
11
59.2372999999999976
21
-32.7274999999999991
0
LINE
8
LYELLOW
6
CONTINUOUS
10
59.2772999999999968
20
-25.2654999999999994
11
59.2772999999999968
21
-27.947499999999998
0
LINE
8
LYELLOW
6
CONTINUOUS
10
59.2772999999999968
20
-30.0274999999999999
11
59.2772999999999968
21
-32.7094999999999985
0
LINE
8
LYELLOW
6
CONTINUOUS
10
59.3172999999999959
20
-25.2835000000000001
11
59.3172999999999959
21
-27.947499999999998
0
LINE
8
LYELLOW
6
CONTINUOUS
10
59.3172999999999959
20
-30.0274999999999999
11
59.3172999999999959
21
-32.6914999999999978
0
LINE
8
LYELLOW
6
CONTINUOUS
10
59.3572999999999951
20
-25.3024999999999984
11
59.3572999999999951
21
-27.947499999999998
0
LINE
8
LYELLOW
6
CONTINUOUS
10
59.3572999999999951
20
-30.0274999999999999
11
59.3572999999999951
21
-32.6724999999999994
0
LINE
8
LYELLOW
6
CONTINUOUS
10
59.3972999999999942
20
-25.3215000000000003
11
59.3972999999999942
21
-27.947499999999998
0
LINE
8
LYELLOW
6
CONTINUOUS
10
59.3972999999999942
20
-30.0274999999999999
11
59.3972999999999942
21
-32.6535000000000011
0
LINE
8
LYELLOW
6
CONTINUOUS
10
59.4373000000000005
20
-25.3414999999999999
11
59.4373000000000005
21
-27.947499999999998
0
LINE
8
LYELLOW
6
CONTINUOUS
10
59.4373000000000005
20
-30.0274999999999999
11
59.4373000000000005
21
-32.633499999999998
0
LINE
8
LYELLOW
6
CONTINUOUS
10
59.4772999999999996
20
-25.3614999999999995
11
59.4772999999999996
21
-27.947499999999998
0
LINE
8
LYELLOW
6
CONTINUOUS
10
59.4772999999999996
20
-30.0274999999999999
11
59.4772999999999996
21
-32.6135000000000019
0
LINE
8
LYELLOW
6
CONTINUOUS
10
59.5172999999999988
20
-25.3825000000000003
11
59.5172999999999988
21
-27.947499999999998
0
LINE
8
LYELLOW
6
CONTINUOUS
10
59.5172999999999988
20
-30.0274999999999999
11
59.5172999999999988
21
-32.5925000000000011
0
LINE
8
LYELLOW
6
CONTINUOUS
10
59.5572999999999979
20
-25.4034999999999975
11
59.5572999999999979
21
-27.947499999999998
0
LINE
8
LYELLOW
6
CONTINUOUS
10
59.5572999999999979
20
-30.0274999999999999
11
59.5572999999999979
21
-32.5715000000000003
0
LINE
8
LYELLOW
6
CONTINUOUS
10
59.5972999999999971
20
-25.4254999999999995
11
59.5972999999999971
21
-27.947499999999998
0
LINE
8
LYELLOW
6
CONTINUOUS
10
59.5972999999999971
20
-30.0274999999999999
11
59.5972999999999971
21
-32.5495000000000019
0
LINE
8
LYELLOW
6
CONTINUOUS
10
59.6372999999999962
20
-25.4484999999999992
11
59.6372999999999962
21
-27.947499999999998
0
LINE
8
LYELLOW
6
CONTINUOUS
10
59.6372999999999962
20
-30.0274999999999999
11
59.6372999999999962
21
-32.5264999999999986
0
LINE
8
LYELLOW
6
CONTINUOUS
10
59.6772999999999954
20
-25.4714999999999989
11
59.6772999999999954
21
-27.947499999999998
0
LINE
8
LYELLOW
6
CONTINUOUS
10
59.6772999999999954
20
-30.0274999999999999
11
59.6772999999999954
21
-32.5034999999999954
0
LINE
8
LYELLOW
6
CONTINUOUS
10
59.7172999999999945
20
-25.4944999999999986
11
59.7172999999999945
21
-27.947499999999998
0
LINE
8
LYELLOW
6
CONTINUOUS
10
59.7172999999999945
20
-30.0274999999999999
11
59.7172999999999945
21
-32.4804999999999993
0
LINE
8
LYELLOW
6
CONTINUOUS
10
59.7573000000000008
20
-25.5194999999999972
11
59.7573000000000008
21
-27.947499999999998
0
LINE
8
LYELLOW
6
CONTINUOUS
10
59.7573000000000008
20
-30.0274999999999999
11
59.7573000000000008
21
-32.4555000000000007
0
LINE
8
LYELLOW
6
CONTINUOUS
10
59.7972999999999999
20
-25.5444999999999993
11
59.7972999999999999
21
-27.947499999999998
0
LINE
8
LYELLOW
6
CONTINUOUS
10
59.7972999999999999
20
-30.0274999999999999
11
59.7972999999999999
21
-32.430499999999995
0
LINE
8
LYELLOW
6
CONTINUOUS
10
59.837299999999999
20
-25.5694999999999979
11
59.837299999999999
21
-27.947499999999998
0
LINE
8
LYELLOW
6
CONTINUOUS
10
59.837299999999999
20
-30.0274999999999999
11
59.837299999999999
21
-32.4054999999999964
0
LINE
8
LYELLOW
6
CONTINUOUS
10
59.8772999999999982
20
-25.5954999999999977
11
59.8772999999999982
21
-27.947499999999998
0
LINE
8
LYELLOW
6
CONTINUOUS
10
59.8772999999999982
20
-30.0274999999999999
11
59.8772999999999982
21
-32.3795000000000002
0
LINE
8
LYELLOW
6
CONTINUOUS
10
59.9172999999999973
20
-25.6224999999999987
11
59.9172999999999973
21
-27.947499999999998
0
LINE
8
LYELLOW
6
CONTINUOUS
10
59.9172999999999973
20
-30.0274999999999999
11
59.9172999999999973
21
-32.3524999999999991
0
LINE
8
LYELLOW
6
CONTINUOUS
10
59.9572999999999965
20
-25.6504999999999974
11
59.9572999999999965
21
-27.947499999999998
0
LINE
8
LYELLOW
6
CONTINUOUS
10
59.9572999999999965
20
-30.0274999999999999
11
59.9572999999999965
21
-32.3245000000000005
0
LINE
8
LYELLOW
6
CONTINUOUS
10
59.9972999999999956
20
-25.6784999999999997
11
59.9972999999999956
21
-27.947499999999998
0
LINE
8
LYELLOW
6
CONTINUOUS
10
59.9972999999999956
20
-30.0274999999999999
11
59.9972999999999956
21
-32.2965000000000018
0
LINE
8
LYELLOW
6
CONTINUOUS
10
60.0372999999999948
20
-25.7074999999999996
11
60.0372999999999948
21
-27.947499999999998
0
LINE
8
LYELLOW
6
CONTINUOUS
10
60.0372999999999948
20
-30.0274999999999999
11
60.0372999999999948
21
-32.2674999999999983
0
LINE
8
LYELLOW
6
CONTINUOUS
10
60.0772999999999939
20
-25.7374999999999972
11
60.0772999999999939
21
-27.947499999999998
0
LINE
8
LYELLOW
6
CONTINUOUS
10
60.0772999999999939
20
-30.0274999999999999
11
60.0772999999999939
21
-32.2374999999999972
0
LINE
8
LYELLOW
6
CONTINUOUS
10
60.1173000000000002
20
-25.7684999999999995
11
60.1173000000000002
21
-27.947499999999998
0
LINE
8
LYELLOW
6
CONTINUOUS
10
60.1173000000000002
20
-30.0274999999999999
11
60.1173000000000002
21
-32.2064999999999984
0
LINE
8
LYELLOW
6
CONTINUOUS
10
60.1572999999999993
20
-25.7994999999999983
11
60.1572999999999993
21
-27.947499999999998
0
LINE
8
LYELLOW
6
CONTINUOUS
10
60.1572999999999993
20
-30.0274999999999999
11
60.1572999999999993
21
-32.1754999999999995
0
LINE
8
LYELLOW
6
CONTINUOUS
10
60.1972999999999985
20
-25.8314999999999984
11
60.1972999999999985
21
-27.947499999999998
0
LINE
8
LYELLOW
6
CONTINUOUS
10
60.1972999999999985
20
-30.0274999999999999
11
60.1972999999999985
21
-32.143499999999996
0
LINE
8
LYELLOW
6
CONTINUOUS
10
60.2372999999999976
20
-25.8644999999999996
11
60.2372999999999976
21
-27.947499999999998
0
LINE
8
LYELLOW
6
CONTINUOUS
10
60.2372999999999976
20
-30.0274999999999999
11
60.2372999999999976
21
-32.1105000000000018
0
LINE
8
LYELLOW
6
CONTINUOUS
10
60.2772999999999968
20
-25.8984999999999985
11
60.2772999999999968
21
-27.947499999999998
0
LINE
8
LYELLOW
6
CONTINUOUS
10
60.2772999999999968
20
-30.0274999999999999
11
60.2772999999999968
21
-32.0764999999999958
0
LINE
8
LYELLOW
6
CONTINUOUS
10
60.3172999999999959
20
-25.9324999999999974
11
60.3172999999999959
21
-27.947499999999998
0
LINE
8
LYELLOW
6
CONTINUOUS
10
60.3172999999999959
20
-30.0274999999999999
11
60.3172999999999959
21
-32.0424999999999969
0
LINE
8
LYELLOW
6
CONTINUOUS
10
60.3572999999999951
20
-25.9684999999999988
11
60.3572999999999951
21
-27.947499999999998
0
LINE
8
LYELLOW
6
CONTINUOUS
10
60.3572999999999951
20
-30.0274999999999999
11
60.3572999999999951
21
-32.0064999999999955
0
LINE
8
LYELLOW
6
CONTINUOUS
10
60.3972999999999942
20
-26.0054999999999978
11
60.3972999999999942
21
-31.9695
0
LINE
8
LYELLOW
6
CONTINUOUS
10
60.4373000000000005
20
-26.0425000000000004
11
60.4373000000000005
21
-31.9324999999999974
0
LINE
8
LYELLOW
6
CONTINUOUS
10
60.4772999999999996
20
-26.0814999999999984
11
60.4772999999999996
21
-31.8934999999999995
0
LINE
8
LYELLOW
6
CONTINUOUS
10
60.5172999999999988
20
-26.1204999999999998
11
60.5172999999999988
21
-31.854499999999998
0
LINE
8
LYELLOW
6
CONTINUOUS
10
60.5572999999999979
20
-26.1615000000000002
11
60.5572999999999979
21
-31.8134999999999977
0
LINE
8
LYELLOW
6
CONTINUOUS
10
60.5972999999999971
20
-26.2034999999999982
11
60.5972999999999971
21
-31.7714999999999996
0
LINE
8
LYELLOW
6
CONTINUOUS
10
60.6372999999999962
20
-26.2464999999999975
11
60.6372999999999962
21
-31.7284999999999968
0
LINE
8
LYELLOW
6
CONTINUOUS
10
60.6772999999999954
20
-26.2914999999999992
11
60.6772999999999954
21
-31.6834999999999987
0
LINE
8
LYELLOW
6
CONTINUOUS
10
60.7172999999999945
20
-26.3364999999999974
11
60.7172999999999945
21
-31.638499999999997
0
LINE
8
LYELLOW
6
CONTINUOUS
10
60.7573000000000008
20
-26.383499999999998
11
60.7573000000000008
21
-31.5914999999999999
0
LINE
8
LYELLOW
6
CONTINUOUS
10
60.7972999999999999
20
-26.4324999999999974
11
60.7972999999999999
21
-31.5424999999999969
0
LINE
8
LYELLOW
6
CONTINUOUS
10
60.837299999999999
20
-26.4824999999999982
11
60.837299999999999
21
-31.4924999999999997
0
LINE
8
LYELLOW
6
CONTINUOUS
10
60.8772999999999982
20
-26.5344999999999978
11
60.8772999999999982
21
-31.4405000000000001
0
LINE
8
LYELLOW
6
CONTINUOUS
10
60.9172999999999973
20
-26.5874999999999986
11
60.9172999999999973
21
-31.3874999999999993
0
LINE
8
LYELLOW
6
CONTINUOUS
10
60.9572999999999965
20
-26.6434999999999995
11
60.9572999999999965
21
-31.3314999999999984
0
LINE
8
LYELLOW
6
CONTINUOUS
10
60.9972999999999956
20
-26.7004999999999981
11
60.9972999999999956
21
-31.2744999999999997
0
LINE
8
LYELLOW
6
CONTINUOUS
10
61.0372999999999948
20
-26.7605000000000004
11
61.0372999999999948
21
-31.2144999999999975
0
LINE
8
LYELLOW
6
CONTINUOUS
10
61.0772999999999939
20
-26.822499999999998
11
61.0772999999999939
21
-31.1524999999999999
0
LINE
8
LYELLOW
6
CONTINUOUS
10
61.1173000000000002
20
-26.8864999999999981
11
61.1173000000000002
21
-31.0884999999999998
0
LINE
8
LYELLOW
6
CONTINUOUS
10
61.1572999999999993
20
-26.9534999999999982
11
61.1572999999999993
21
-31.0214999999999996
0
LINE
8
LYELLOW
6
CONTINUOUS
10
61.1972999999999985
20
-27.0234999999999985
11
61.1972999999999985
21
-30.9514999999999993
0
LINE
8
LYELLOW
6
CONTINUOUS
10
61.2372999999999976
20
-27.0975000000000001
11
61.2372999999999976
21
-30.8774999999999977
0
LINE
8
LYELLOW
6
CONTINUOUS
10
61.2772999999999968
20
-27.1744999999999983
11
61.2772999999999968
21
-30.8004999999999995
0
LINE
8
LYELLOW
6
CONTINUOUS
10
61.3172999999999959
20
-27.2564999999999991
11
61.3172999999999959
21
-30.7184999999999988
0
LINE
8
LYELLOW
6
CONTINUOUS
10
61.3572999999999951
20
-27.3434999999999988
11
61.3572999999999951
21
-30.6314999999999991
0
LINE
8
LYELLOW
6
CONTINUOUS
10
61.3972999999999942
20
-27.4354999999999976
11
61.3972999999999942
21
-30.5395000000000003
0
LINE
8
LYELLOW
6
CONTINUOUS
10
61.4373000000000005
20
-27.5344999999999978
11
61.4373000000000005
21
-30.4405000000000001
0
LINE
8
LYELLOW
6
CONTINUOUS
10
61.4772999999999996
20
-27.6414999999999971
11
61.4772999999999996
21
-30.3334999999999972
0
LINE
8
LYELLOW
6
CONTINUOUS
10
61.5172999999999988
20
-27.7594999999999992
11
61.5172999999999988
21
-30.2154999999999987
0
LINE
8
LYELLOW
6
CONTINUOUS
10
61.5572999999999979
20
-27.8904999999999994
11
61.5572999999999979
21
-30.0844999999999985
0
LINE
8
LYELLOW
6
CONTINUOUS
10
61.5972999999999971
20
-28.040499999999998
11
61.5972999999999971
21
-29.9344999999999999
0
LINE
8
LYELLOW
6
CONTINUOUS
10
61.6372999999999962
20
-28.2195
11
61.6372999999999962
21
-29.7554999999999978
0
LINE
8
LYELLOW
6
CONTINUOUS
10
61.6772999999999954
20
-28.4544999999999995
11
61.6772999999999954
21
-29.5204999999999984
0
CIRCLE
8
LYELLOW
10
57.5972999999999971
20
-28.9874999999999972
40
4.1200000000000001
0
LINE
8
LYELLOW
6
CONTINUOUS
10
103.3900000000000006
20
-40.6774999999999949
11
113.6099999999999994
21
-40.6774999999999949
0
LINE
8
LYELLOW
6
CONTINUOUS
10
103.3900000000000006
20
-42.0574999999999974
11
113.6099999999999994
21
-42.0574999999999974
0
LINE
8
LYELLOW
6
CONTINUOUS
10
103.3900000000000006
20
-45.2974999999999994
11
103.3900000000000006
21
-40.6774999999999949
0
LINE
8
LYELLOW
6
CONTINUOUS
10
106.6499999999999915
20
-40.6774999999999949
11
106.6499999999999915
21
-42.0574999999999974
0
LINE
8
LYELLOW
6
CONTINUOUS
10
110.3499999999999943
20
-40.6774999999999949
11
110.3499999999999943
21
-42.0574999999999974
0
LINE
8
LYELLOW
6
CONTINUOUS
10
113.6099999999999994
20
-40.6774999999999949
11
113.6099999999999994
21
-45.2974999999999994
0
LINE
8
LYELLOW
6
CONTINUOUS
10
113.6099999999999994
20
-45.2974999999999994
11
103.3900000000000006
21
-45.2974999999999994
0
LINE
8
LYELLOW
6
CONTINUOUS
10
89.7299999999999898
20
-88.9874999999999972
11
90.3799999999999955
21
-88.9874999999999972
0
LINE
8
LYELLOW
6
CONTINUOUS
10
90.9799999999999898
20
-87.8674999999999926
11
90.9799999999999898
21
-90.1075000000000017
0
LINE
8
LYELLOW
6
CONTINUOUS
10
91.0999999999999943
20
-87.8674999999999926
11
91.0999999999999943
21
-90.1075000000000017
0
LINE
8
LYELLOW
6
CONTINUOUS
10
91.2199999999999989
20
-87.8674999999999926
11
91.2199999999999989
21
-90.1075000000000017
0
LINE
8
LYELLOW
6
CONTINUOUS
10
95.269999999999996
20
-88.9874999999999972
11
94.6199999999999903
21
-88.9874999999999972
0
LINE
8
LYELLOW
6
CONTINUOUS
10
90.3799999999999955
20
-87.8674999999999926
11
94.6199999999999903
21
-87.8674999999999926
0
LINE
8
LYELLOW
6
CONTINUOUS
10
94.6199999999999903
20
-87.8674999999999926
11
94.6199999999999903
21
-90.1075000000000017
0
LINE
8
LYELLOW
6
CONTINUOUS
10
94.6199999999999903
20
-90.1075000000000017
11
90.3799999999999955
21
-90.1075000000000017
0
LINE
8
LYELLOW
6
CONTINUOUS
10
90.3799999999999955
20
-90.1075000000000017
11
90.3799999999999955
21
-87.8674999999999926
0
LINE
8
LYELLOW
6
CONTINUOUS
10
45.25
20
-52.8474999999999966
11
45.25
21
-63.1274999999999977
0
LINE
8
LYELLOW
6
CONTINUOUS
10
45.25
20
-63.1274999999999977
11
49.75
21
-63.1274999999999977
0
LINE
8
LYELLOW
6
CONTINUOUS
10
46.5
20
-52.8474999999999966
11
45.25
21
-52.8474999999999966
0
LINE
8
LYELLOW
6
CONTINUOUS
10
49.75
20
-52.8474999999999966
11
48.5
21
-52.8474999999999966
0
LINE
8
LYELLOW
6
CONTINUOUS
10
49.75
20
-63.1274999999999977
11
49.75
21
-52.8474999999999966
0
ARC
8
LYELLOW
10
47.5
20
-52.8474999999999966
40
1.
50
-180.00000000
51
-0.00000000
0
LINE
8
LYELLOW
6
CONTINUOUS
10
107.4200000000000017
20
-101.1774999999999949
11
107.4200000000000017
21
-108.7974999999999994
0
LINE
8
LYELLOW
6
CONTINUOUS
10
107.4200000000000017
20
-108.7974999999999994
11
117.5799999999999983
21
-108.7974999999999994
0
LINE
8
LYELLOW
6
CONTINUOUS
10
117.5799999999999983
20
-101.1774999999999949
11
107.4200000000000017
21
-101.1774999999999949
0
LINE
8
LYELLOW
6
CONTINUOUS
10
117.5799999999999983
20
-107.5274999999999892
11
107.4200000000000017
21
-107.5274999999999892
0
LINE
8
LYELLOW
6
CONTINUOUS
10
117.5799999999999983
20
-108.7974999999999994
11
117.5799999999999983
21
-101.1774999999999949
0
LINE
8
LYELLOW
6
CONTINUOUS
10
104.7599999999999909
20
-57.9874999999999972
11
105.7800000000000011
21
-57.9874999999999972
0
LINE
8
LYELLOW
6
CONTINUOUS
10
106.5600000000000023
20
-56.5174999999999983
11
106.5600000000000023
21
-59.457499999999996
0
LINE
8
LYELLOW
6
CONTINUOUS
10
106.6799999999999926
20
-56.5174999999999983
11
106.6799999999999926
21
-59.457499999999996
0
LINE
8
LYELLOW
6
CONTINUOUS
10
106.7999999999999972
20
-56.5174999999999983
11
106.7999999999999972
21
-59.457499999999996
0
LINE
8
LYELLOW
6
CONTINUOUS
10
112.2399999999999949
20
-57.9874999999999972
11
111.2199999999999989
21
-57.9874999999999972
0
LINE
8
LYELLOW
6
CONTINUOUS
10
105.7800000000000011
20
-56.5174999999999983
11
111.2199999999999989
21
-56.5174999999999983
0
LINE
8
LYELLOW
6
CONTINUOUS
10
111.2199999999999989
20
-56.5174999999999983
11
111.2199999999999989
21
-59.457499999999996
0
LINE
8
LYELLOW
6
CONTINUOUS
10
111.2199999999999989
20
-59.457499999999996
11
105.7800000000000011
21
-59.457499999999996
0
LINE
8
LYELLOW
6
CONTINUOUS
10
105.7800000000000011
20
-59.457499999999996
11
105.7800000000000011
21
-56.5174999999999983
0
LINE
8
LYELLOW
6
CONTINUOUS
10
40.3900000000000006
20
-26.6774999999999984
11
50.6099999999999994
21
-26.6774999999999984
0
LINE
8
LYELLOW
6
CONTINUOUS
10
40.3900000000000006
20
-28.0574999999999974
11
50.6099999999999994
21
-28.0574999999999974
0
LINE
8
LYELLOW
6
CONTINUOUS
10
40.3900000000000006
20
-31.2974999999999994
11
40.3900000000000006
21
-26.6774999999999984
0
LINE
8
LYELLOW
6
CONTINUOUS
10
43.6499999999999986
20
-26.6774999999999984
11
43.6499999999999986
21
-28.0574999999999974
0
LINE
8
LYELLOW
6
CONTINUOUS
10
47.3499999999999943
20
-26.6774999999999984
11
47.3499999999999943
21
-28.0574999999999974
0
LINE
8
LYELLOW
6
CONTINUOUS
10
50.6099999999999994
20
-26.6774999999999984
11
50.6099999999999994
21
-31.2974999999999994
0
LINE
8
LYELLOW
6
CONTINUOUS
10
50.6099999999999994
20
-31.2974999999999994
11
40.3900000000000006
21
-31.2974999999999994
0
LINE
8
LYELLOW
6
CONTINUOUS
10
100.1299999999999955
20
-88.7175000000000011
11
100.4599999999999937
21
-88.7175000000000011
0
LINE
8
LYELLOW
6
CONTINUOUS
10
100.1299999999999955
20
-95.2574999999999932
11
100.1299999999999955
21
-88.7175000000000011
0
LINE
8
LYELLOW
6
CONTINUOUS
10
100.4599999999999937
20
-95.2574999999999932
11
100.1299999999999955
21
-95.2574999999999932
0
LINE
8
LYELLOW
6
CONTINUOUS
10
102.539999999999992
20
-95.2574999999999932
11
102.8699999999999903
21
-95.2574999999999932
0
LINE
8
LYELLOW
6
CONTINUOUS
10
102.8699999999999903
20
-88.7175000000000011
11
102.539999999999992
21
-88.7175000000000011
0
LINE
8
LYELLOW
6
CONTINUOUS
10
102.8699999999999903
20
-95.2574999999999932
11
102.8699999999999903
21
-88.7175000000000011
0
LINE
8
WHITE
6
CONTINUOUS
10
20.
20
-20.
11
124.
21
-20.
0
LINE
8
WHITE
6
CONTINUOUS
10
124.
20
-20.
11
124.
21
-124.
0
LINE
8
WHITE
6
CONTINUOUS
10
124.
20
-124.
11
20.
21
-124.
0
LINE
8
WHITE
6
CONTINUOUS
10
20.
20
-124.
11
20.
21
-20.
  0
ENDSEC
  0
EOF
