  0
SECTION
  2
HEADER
  9
$ANGBASE
  50
0.0
  9
$ANGDIR
  70
1
  9
$MEASUREMENT
  70
1
  0
ENDSEC
  0
SECTION
  2
TABLES
  0
TABLE
  2
LTYPE
  70
4
  0
LTYPE
  5
40F
  2
CONTINUOUS
  70
0
  3
Solid line
  72
65
  73
0
  40
0.0
  0
LTYPE
  5
410
  2
DASHDOT
 70
0
  3
Dash Dot ____ _ ____ _
 72
65
 73
4
 40
2.0
 49
1.25
 49
-0.25
 49
0.25
 49
-0.25
  0
LTYPE
  5
411
  2
DASHED
 70
0
  3
Dashed __ __ __ __ __
 72
65
 73
2
 40
0.75
 49
0.5
 49
-0.25
  0
LTYPE
  5
43B
  2
DOTTED
 70
0
  3
Dotted .  .  .  .
 72
65
 73
2
 40
0.2
 49
0.0
 49
-0.2
  0
ENDTAB
  0
TABLE
  2
STYLE
  70
4
  0
STYLE
  2
KICAD
  70
0
  40
0
  41
1
  42
1
  50
0
  71
0
  3
isocp.shx
  0
STYLE
  2
KICADB
  70
0
  40
0
  41
1
  42
1
  50
0
  71
0
  3
isocp.shx
  0
STYLE
  2
KICADI
  70
0
  40
0
  41
1
  42
1
  50
15
  71
0
  3
isocp.shx
  0
STYLE
  2
KICADBI
  70
0
  40
0
  41
1
  42
1
  50
15
  71
0
  3
isocp.shx
  0
ENDTAB
  0
TABLE
  2
LAYER
  70
35
  0
LAYER
  2
BLACK
  70
0
  62
7
  6
CONTINUOUS
  0
LAYER
  2
GRAY1
  70
0
  62
251
  6
CONTINUOUS
  0
LAYER
  2
GRAY2
  70
0
  62
8
  6
CONTINUOUS
  0
LAYER
  2
GRAY3
  70
0
  62
9
  6
CONTINUOUS
  0
LAYER
  2
WHITE
  70
0
  62
7
  6
CONTINUOUS
  0
LAYER
  2
LYELLOW
  70
0
  62
51
  6
CONTINUOUS
  0
LAYER
  2
LORANGE
  70
0
  62
41
  6
CONTINUOUS
  0
LAYER
  2
BLUE1
  70
0
  62
178
  6
CONTINUOUS
  0
LAYER
  2
GREEN1
  70
0
  62
98
  6
CONTINUOUS
  0
LAYER
  2
CYAN1
  70
0
  62
138
  6
CONTINUOUS
  0
LAYER
  2
RED1
  70
0
  62
18
  6
CONTINUOUS
  0
LAYER
  2
MAGENTA1
  70
0
  62
228
  6
CONTINUOUS
  0
LAYER
  2
BROWN1
  70
0
  62
58
  6
CONTINUOUS
  0
LAYER
  2
ORANGE1
  70
0
  62
34
  6
CONTINUOUS
  0
LAYER
  2
BLUE2
  70
0
  62
5
  6
CONTINUOUS
  0
LAYER
  2
GREEN2
  70
0
  62
3
  6
CONTINUOUS
  0
LAYER
  2
CYAN2
  70
0
  62
4
  6
CONTINUOUS
  0
LAYER
  2
RED2
  70
0
  62
1
  6
CONTINUOUS
  0
LAYER
  2
MAGENTA2
  70
0
  62
6
  6
CONTINUOUS
  0
LAYER
  2
BROWN2
  70
0
  62
54
  6
CONTINUOUS
  0
LAYER
  2
ORANGE2
  70
0
  62
42
  6
CONTINUOUS
  0
LAYER
  2
BLUE3
  70
0
  62
171
  6
CONTINUOUS
  0
LAYER
  2
GREEN3
  70
0
  62
91
  6
CONTINUOUS
  0
LAYER
  2
CYAN3
  70
0
  62
131
  6
CONTINUOUS
  0
LAYER
  2
RED3
  70
0
  62
11
  6
CONTINUOUS
  0
LAYER
  2
MAGENTA3
  70
0
  62
221
  6
CONTINUOUS
  0
LAYER
  2
YELLOW3
  70
0
  62
2
  6
CONTINUOUS
  0
LAYER
  2
ORANGE3
  70
0
  62
32
  6
CONTINUOUS
  0
LAYER
  2
BLUE4
  70
0
  62
5
  6
CONTINUOUS
  0
LAYER
  2
GREEN4
  70
0
  62
3
  6
CONTINUOUS
  0
LAYER
  2
CYAN4
  70
0
  62
4
  6
CONTINUOUS
  0
LAYER
  2
RED4
  70
0
  62
1
  6
CONTINUOUS
  0
LAYER
  2
MAGENTA4
  70
0
  62
6
  6
CONTINUOUS
  0
LAYER
  2
YELLOW4
  70
0
  62
2
  6
CONTINUOUS
  0
LAYER
  2
ORANGE4
  70
0
  62
40
  6
CONTINUOUS
  0
ENDTAB
  0
ENDSEC
  0
SECTION
  2
ENTITIES
0
LINE
8
LYELLOW
6
CONTINUOUS
10
85.5833329999999961
20
-84.609579999999994
11
85.5357139999999987
21
-84.6572000000000031
0
LINE
8
LYELLOW
6
CONTINUOUS
10
85.5357139999999987
20
-84.6572000000000031
11
85.3928569999999922
21
-84.7048190000000005
0
LINE
8
LYELLOW
6
CONTINUOUS
10
85.3928569999999922
20
-84.7048190000000005
11
85.2976189999999974
21
-84.7048190000000005
0
LINE
8
LYELLOW
6
CONTINUOUS
10
85.2976189999999974
20
-84.7048190000000005
11
85.154761999999991
21
-84.6572000000000031
0
LINE
8
LYELLOW
6
CONTINUOUS
10
85.154761999999991
20
-84.6572000000000031
11
85.0595239999999961
21
-84.5619609999999966
0
LINE
8
LYELLOW
6
CONTINUOUS
10
85.0595239999999961
20
-84.5619609999999966
11
85.0119049999999987
21
-84.4667230000000018
0
LINE
8
LYELLOW
6
CONTINUOUS
10
85.0119049999999987
20
-84.4667230000000018
11
84.9642860000000013
21
-84.2762469999999979
0
LINE
8
LYELLOW
6
CONTINUOUS
10
84.9642860000000013
20
-84.2762469999999979
11
84.9642860000000013
21
-84.1333899999999915
0
LINE
8
LYELLOW
6
CONTINUOUS
10
84.9642860000000013
20
-84.1333899999999915
11
85.0119049999999987
21
-83.9429140000000018
0
LINE
8
LYELLOW
6
CONTINUOUS
10
85.0119049999999987
20
-83.9429140000000018
11
85.0595239999999961
21
-83.8476759999999928
0
LINE
8
LYELLOW
6
CONTINUOUS
10
85.0595239999999961
20
-83.8476759999999928
11
85.154761999999991
21
-83.7524379999999979
0
LINE
8
LYELLOW
6
CONTINUOUS
10
85.154761999999991
20
-83.7524379999999979
11
85.2976189999999974
21
-83.7048190000000005
0
LINE
8
LYELLOW
6
CONTINUOUS
10
85.2976189999999974
20
-83.7048190000000005
11
85.3928569999999922
21
-83.7048190000000005
0
LINE
8
LYELLOW
6
CONTINUOUS
10
85.3928569999999922
20
-83.7048190000000005
11
85.5357139999999987
21
-83.7524379999999979
0
LINE
8
LYELLOW
6
CONTINUOUS
10
85.5357139999999987
20
-83.7524379999999979
11
85.5833329999999961
21
-83.8000569999999954
0
LINE
8
LYELLOW
6
CONTINUOUS
10
85.9642860000000013
20
-83.8000569999999954
11
86.0119049999999987
21
-83.7524379999999979
0
LINE
8
LYELLOW
6
CONTINUOUS
10
86.0119049999999987
20
-83.7524379999999979
11
86.1071429999999935
21
-83.7048190000000005
0
LINE
8
LYELLOW
6
CONTINUOUS
10
86.1071429999999935
20
-83.7048190000000005
11
86.3452379999999948
21
-83.7048190000000005
0
LINE
8
LYELLOW
6
CONTINUOUS
10
86.3452379999999948
20
-83.7048190000000005
11
86.4404759999999897
21
-83.7524379999999979
0
LINE
8
LYELLOW
6
CONTINUOUS
10
86.4404759999999897
20
-83.7524379999999979
11
86.4880950000000013
21
-83.8000569999999954
0
LINE
8
LYELLOW
6
CONTINUOUS
10
86.4880950000000013
20
-83.8000569999999954
11
86.5357139999999987
21
-83.8952949999999902
0
LINE
8
LYELLOW
6
CONTINUOUS
10
86.5357139999999987
20
-83.8952949999999902
11
86.5357139999999987
21
-83.9905329999999992
0
LINE
8
LYELLOW
6
CONTINUOUS
10
86.5357139999999987
20
-83.9905329999999992
11
86.4880950000000013
21
-84.1333899999999915
0
LINE
8
LYELLOW
6
CONTINUOUS
10
86.4880950000000013
20
-84.1333899999999915
11
85.9166669999999897
21
-84.7048190000000005
0
LINE
8
LYELLOW
6
CONTINUOUS
10
85.9166669999999897
20
-84.7048190000000005
11
86.5357139999999987
21
-84.7048190000000005
0
LINE
8
LYELLOW
6
CONTINUOUS
10
56.6504759999999976
20
-104.5548189999999948
11
56.6504759999999976
21
-103.5548189999999948
0
LINE
8
LYELLOW
6
CONTINUOUS
10
56.6504759999999976
20
-103.5548189999999948
11
56.9838090000000008
21
-104.2691039999999987
0
LINE
8
LYELLOW
6
CONTINUOUS
10
56.9838090000000008
20
-104.2691039999999987
11
57.3171419999999969
21
-103.5548189999999948
0
LINE
8
LYELLOW
6
CONTINUOUS
10
57.3171419999999969
20
-103.5548189999999948
11
57.3171419999999969
21
-104.5548189999999948
0
LINE
8
LYELLOW
6
CONTINUOUS
10
58.3171419999999969
20
-104.5548189999999948
11
57.7457139999999995
21
-104.5548189999999948
0
LINE
8
LYELLOW
6
CONTINUOUS
10
58.0314279999999982
20
-104.5548189999999948
11
58.0314279999999982
21
-103.5548189999999948
0
LINE
8
LYELLOW
6
CONTINUOUS
10
58.0314279999999982
20
-103.5548189999999948
11
57.9361899999999963
21
-103.6976760000000013
0
LINE
8
LYELLOW
6
CONTINUOUS
10
57.9361899999999963
20
-103.6976760000000013
11
57.8409519999999944
21
-103.7929139999999961
0
LINE
8
LYELLOW
6
CONTINUOUS
10
57.8409519999999944
20
-103.7929139999999961
11
57.7457139999999995
21
-103.8405329999999935
0
LINE
8
LYELLOW
6
CONTINUOUS
10
100.8333329999999961
20
-108.084818999999996
11
100.5
21
-107.608627999999996
0
LINE
8
LYELLOW
6
CONTINUOUS
10
100.2619049999999987
20
-108.084818999999996
11
100.2619049999999987
21
-107.084818999999996
0
LINE
8
LYELLOW
6
CONTINUOUS
10
100.2619049999999987
20
-107.084818999999996
11
100.6428569999999922
21
-107.084818999999996
0
LINE
8
LYELLOW
6
CONTINUOUS
10
100.6428569999999922
20
-107.084818999999996
11
100.7380950000000013
21
-107.1324379999999934
0
LINE
8
LYELLOW
6
CONTINUOUS
10
100.7380950000000013
20
-107.1324379999999934
11
100.7857139999999987
21
-107.1800569999999908
0
LINE
8
LYELLOW
6
CONTINUOUS
10
100.7857139999999987
20
-107.1800569999999908
11
100.8333329999999961
21
-107.2752949999999998
0
LINE
8
LYELLOW
6
CONTINUOUS
10
100.8333329999999961
20
-107.2752949999999998
11
100.8333329999999961
21
-107.4181519999999921
0
LINE
8
LYELLOW
6
CONTINUOUS
10
100.8333329999999961
20
-107.4181519999999921
11
100.7857139999999987
21
-107.5133900000000011
0
LINE
8
LYELLOW
6
CONTINUOUS
10
100.7857139999999987
20
-107.5133900000000011
11
100.7380950000000013
21
-107.5610089999999985
0
LINE
8
LYELLOW
6
CONTINUOUS
10
100.7380950000000013
20
-107.5610089999999985
11
100.6428569999999922
21
-107.608627999999996
0
LINE
8
LYELLOW
6
CONTINUOUS
10
100.6428569999999922
20
-107.608627999999996
11
100.2619049999999987
21
-107.608627999999996
0
LINE
8
LYELLOW
6
CONTINUOUS
10
101.1666669999999897
20
-107.084818999999996
11
101.7857139999999987
21
-107.084818999999996
0
LINE
8
LYELLOW
6
CONTINUOUS
10
101.7857139999999987
20
-107.084818999999996
11
101.4523809999999884
21
-107.4657709999999895
0
LINE
8
LYELLOW
6
CONTINUOUS
10
101.4523809999999884
20
-107.4657709999999895
11
101.5952379999999948
21
-107.4657709999999895
0
LINE
8
LYELLOW
6
CONTINUOUS
10
101.5952379999999948
20
-107.4657709999999895
11
101.6904759999999897
21
-107.5133900000000011
0
LINE
8
LYELLOW
6
CONTINUOUS
10
101.6904759999999897
20
-107.5133900000000011
11
101.7380950000000013
21
-107.5610089999999985
0
LINE
8
LYELLOW
6
CONTINUOUS
10
101.7380950000000013
20
-107.5610089999999985
11
101.7857139999999987
21
-107.6562469999999934
0
LINE
8
LYELLOW
6
CONTINUOUS
10
101.7857139999999987
20
-107.6562469999999934
11
101.7857139999999987
21
-107.8943419999999946
0
LINE
8
LYELLOW
6
CONTINUOUS
10
101.7857139999999987
20
-107.8943419999999946
11
101.7380950000000013
21
-107.9895799999999895
0
LINE
8
LYELLOW
6
CONTINUOUS
10
101.7380950000000013
20
-107.9895799999999895
11
101.6904759999999897
21
-108.0371999999999986
0
LINE
8
LYELLOW
6
CONTINUOUS
10
101.6904759999999897
20
-108.0371999999999986
11
101.5952379999999948
21
-108.084818999999996
0
LINE
8
LYELLOW
6
CONTINUOUS
10
101.5952379999999948
20
-108.084818999999996
11
101.3095239999999961
21
-108.084818999999996
0
LINE
8
LYELLOW
6
CONTINUOUS
10
101.3095239999999961
20
-108.084818999999996
11
101.2142860000000013
21
-108.0371999999999986
0
LINE
8
LYELLOW
6
CONTINUOUS
10
101.2142860000000013
20
-108.0371999999999986
11
101.1666669999999897
21
-107.9895799999999895
0
LINE
8
LYELLOW
6
CONTINUOUS
10
64.0748189999999909
20
-122.7143329999999963
11
64.7891039999999947
21
-122.7143329999999963
0
LINE
8
LYELLOW
6
CONTINUOUS
10
64.7891039999999947
20
-122.7143329999999963
11
64.9319610000000011
21
-122.7619519999999937
0
LINE
8
LYELLOW
6
CONTINUOUS
10
64.9319610000000011
20
-122.7619519999999937
11
65.0271999999999935
21
-122.8571899999999886
0
LINE
8
LYELLOW
6
CONTINUOUS
10
65.0271999999999935
20
-122.8571899999999886
11
65.0748189999999909
21
-123.000046999999995
0
LINE
8
LYELLOW
6
CONTINUOUS
10
65.0748189999999909
20
-123.000046999999995
11
65.0748189999999909
21
-123.0952849999999899
0
LINE
8
LYELLOW
6
CONTINUOUS
10
64.0748189999999909
20
-122.3333799999999911
11
64.0748189999999909
21
-121.7143329999999963
0
LINE
8
LYELLOW
6
CONTINUOUS
10
64.0748189999999909
20
-121.7143329999999963
11
64.4557709999999986
21
-122.0476659999999924
0
LINE
8
LYELLOW
6
CONTINUOUS
10
64.4557709999999986
20
-122.0476659999999924
11
64.4557709999999986
21
-121.9048090000000002
0
LINE
8
LYELLOW
6
CONTINUOUS
10
64.4557709999999986
20
-121.9048090000000002
11
64.503389999999996
21
-121.8095709999999912
0
LINE
8
LYELLOW
6
CONTINUOUS
10
64.503389999999996
20
-121.8095709999999912
11
64.5510089999999934
21
-121.7619519999999937
0
LINE
8
LYELLOW
6
CONTINUOUS
10
64.5510089999999934
20
-121.7619519999999937
11
64.6462470000000025
21
-121.7143329999999963
0
LINE
8
LYELLOW
6
CONTINUOUS
10
64.6462470000000025
20
-121.7143329999999963
11
64.8843420000000037
21
-121.7143329999999963
0
LINE
8
LYELLOW
6
CONTINUOUS
10
64.8843420000000037
20
-121.7143329999999963
11
64.9795799999999986
21
-121.7619519999999937
0
LINE
8
LYELLOW
6
CONTINUOUS
10
64.9795799999999986
20
-121.7619519999999937
11
65.0271999999999935
21
-121.8095709999999912
0
LINE
8
LYELLOW
6
CONTINUOUS
10
65.0271999999999935
20
-121.8095709999999912
11
65.0748189999999909
21
-121.9048090000000002
0
LINE
8
LYELLOW
6
CONTINUOUS
10
65.0748189999999909
20
-121.9048090000000002
11
65.0748189999999909
21
-122.1905229999999989
0
LINE
8
LYELLOW
6
CONTINUOUS
10
65.0748189999999909
20
-122.1905229999999989
11
65.0271999999999935
21
-122.2857609999999937
0
LINE
8
LYELLOW
6
CONTINUOUS
10
65.0271999999999935
20
-122.2857609999999937
11
64.9795799999999986
21
-122.3333799999999911
0
LINE
8
LYELLOW
6
CONTINUOUS
10
100.7619049999999987
20
-98.9348189999999903
11
100.7619049999999987
21
-97.9348189999999903
0
LINE
8
LYELLOW
6
CONTINUOUS
10
100.7619049999999987
20
-97.9348189999999903
11
101.
21
-97.9348189999999903
0
LINE
8
LYELLOW
6
CONTINUOUS
10
101.
20
-97.9348189999999903
11
101.1428569999999922
21
-97.9824380000000019
0
LINE
8
LYELLOW
6
CONTINUOUS
10
101.1428569999999922
20
-97.9824380000000019
11
101.2380950000000013
21
-98.0776759999999967
0
LINE
8
LYELLOW
6
CONTINUOUS
10
101.2380950000000013
20
-98.0776759999999967
11
101.2857139999999987
21
-98.1729139999999916
0
LINE
8
LYELLOW
6
CONTINUOUS
10
101.2857139999999987
20
-98.1729139999999916
11
101.3333329999999961
21
-98.3633899999999954
0
LINE
8
LYELLOW
6
CONTINUOUS
10
101.3333329999999961
20
-98.3633899999999954
11
101.3333329999999961
21
-98.5062470000000019
0
LINE
8
LYELLOW
6
CONTINUOUS
10
101.3333329999999961
20
-98.5062470000000019
11
101.2857139999999987
21
-98.6967229999999915
0
LINE
8
LYELLOW
6
CONTINUOUS
10
101.2857139999999987
20
-98.6967229999999915
11
101.2380950000000013
21
-98.7919610000000006
0
LINE
8
LYELLOW
6
CONTINUOUS
10
101.2380950000000013
20
-98.7919610000000006
11
101.1428569999999922
21
-98.8871999999999929
0
LINE
8
LYELLOW
6
CONTINUOUS
10
101.1428569999999922
20
-98.8871999999999929
11
101.
21
-98.9348189999999903
0
LINE
8
LYELLOW
6
CONTINUOUS
10
101.
20
-98.9348189999999903
11
100.7619049999999987
21
-98.9348189999999903
0
LINE
8
LYELLOW
6
CONTINUOUS
10
101.7142860000000013
20
-98.0300569999999993
11
101.7619049999999987
21
-97.9824380000000019
0
LINE
8
LYELLOW
6
CONTINUOUS
10
101.7619049999999987
20
-97.9824380000000019
11
101.8571429999999935
21
-97.9348189999999903
0
LINE
8
LYELLOW
6
CONTINUOUS
10
101.8571429999999935
20
-97.9348189999999903
11
102.0952379999999948
21
-97.9348189999999903
0
LINE
8
LYELLOW
6
CONTINUOUS
10
102.0952379999999948
20
-97.9348189999999903
11
102.1904759999999897
21
-97.9824380000000019
0
LINE
8
LYELLOW
6
CONTINUOUS
10
102.1904759999999897
20
-97.9824380000000019
11
102.2380950000000013
21
-98.0300569999999993
0
LINE
8
LYELLOW
6
CONTINUOUS
10
102.2380950000000013
20
-98.0300569999999993
11
102.2857139999999987
21
-98.1252949999999942
0
LINE
8
LYELLOW
6
CONTINUOUS
10
102.2857139999999987
20
-98.1252949999999942
11
102.2857139999999987
21
-98.220532999999989
0
LINE
8
LYELLOW
6
CONTINUOUS
10
102.2857139999999987
20
-98.220532999999989
11
102.2380950000000013
21
-98.3633899999999954
0
LINE
8
LYELLOW
6
CONTINUOUS
10
102.2380950000000013
20
-98.3633899999999954
11
101.6666669999999897
21
-98.9348189999999903
0
LINE
8
LYELLOW
6
CONTINUOUS
10
101.6666669999999897
20
-98.9348189999999903
11
102.2857139999999987
21
-98.9348189999999903
0
LINE
8
LYELLOW
6
CONTINUOUS
10
96.1580949999999888
20
-99.3048189999999948
11
96.1580949999999888
21
-98.3048189999999948
0
LINE
8
LYELLOW
6
CONTINUOUS
10
96.7295230000000004
20
-99.3048189999999948
11
96.3009519999999952
21
-98.73339
0
LINE
8
LYELLOW
6
CONTINUOUS
10
96.7295230000000004
20
-98.3048189999999948
11
96.1580949999999888
21
-98.8762469999999922
0
LINE
8
LYELLOW
6
CONTINUOUS
10
85.9167329999999936
20
-98.8095799999999969
11
85.8691139999999962
21
-98.8571999999999917
0
LINE
8
LYELLOW
6
CONTINUOUS
10
85.8691139999999962
20
-98.8571999999999917
11
85.7262569999999897
21
-98.9048189999999892
0
LINE
8
LYELLOW
6
CONTINUOUS
10
85.7262569999999897
20
-98.9048189999999892
11
85.6310189999999949
21
-98.9048189999999892
0
LINE
8
LYELLOW
6
CONTINUOUS
10
85.6310189999999949
20
-98.9048189999999892
11
85.4881620000000026
21
-98.8571999999999917
0
LINE
8
LYELLOW
6
CONTINUOUS
10
85.4881620000000026
20
-98.8571999999999917
11
85.3929239999999936
21
-98.7619609999999994
0
LINE
8
LYELLOW
6
CONTINUOUS
10
85.3929239999999936
20
-98.7619609999999994
11
85.3453049999999962
21
-98.6667229999999904
0
LINE
8
LYELLOW
6
CONTINUOUS
10
85.3453049999999962
20
-98.6667229999999904
11
85.2976859999999988
21
-98.4762470000000008
0
LINE
8
LYELLOW
6
CONTINUOUS
10
85.2976859999999988
20
-98.4762470000000008
11
85.2976859999999988
21
-98.3333899999999943
0
LINE
8
LYELLOW
6
CONTINUOUS
10
85.2976859999999988
20
-98.3333899999999943
11
85.3453049999999962
21
-98.1429139999999904
0
LINE
8
LYELLOW
6
CONTINUOUS
10
85.3453049999999962
20
-98.1429139999999904
11
85.3929239999999936
21
-98.0476759999999956
0
LINE
8
LYELLOW
6
CONTINUOUS
10
85.3929239999999936
20
-98.0476759999999956
11
85.4881620000000026
21
-97.9524380000000008
0
LINE
8
LYELLOW
6
CONTINUOUS
10
85.4881620000000026
20
-97.9524380000000008
11
85.6310189999999949
21
-97.9048189999999892
0
LINE
8
LYELLOW
6
CONTINUOUS
10
85.6310189999999949
20
-97.9048189999999892
11
85.7262569999999897
21
-97.9048189999999892
0
LINE
8
LYELLOW
6
CONTINUOUS
10
85.7262569999999897
20
-97.9048189999999892
11
85.8691139999999962
21
-97.9524380000000008
0
LINE
8
LYELLOW
6
CONTINUOUS
10
85.8691139999999962
20
-97.9524380000000008
11
85.9167329999999936
21
-98.0000569999999982
0
LINE
8
LYELLOW
6
CONTINUOUS
10
86.2500670000000014
20
-97.9048189999999892
11
86.8691139999999962
21
-97.9048189999999892
0
LINE
8
LYELLOW
6
CONTINUOUS
10
86.8691139999999962
20
-97.9048189999999892
11
86.5357810000000001
21
-98.2857709999999969
0
LINE
8
LYELLOW
6
CONTINUOUS
10
86.5357810000000001
20
-98.2857709999999969
11
86.6786379999999923
21
-98.2857709999999969
0
LINE
8
LYELLOW
6
CONTINUOUS
10
86.6786379999999923
20
-98.2857709999999969
11
86.7738760000000013
21
-98.3333899999999943
0
LINE
8
LYELLOW
6
CONTINUOUS
10
86.7738760000000013
20
-98.3333899999999943
11
86.8214949999999988
21
-98.3810089999999917
0
LINE
8
LYELLOW
6
CONTINUOUS
10
86.8214949999999988
20
-98.3810089999999917
11
86.8691139999999962
21
-98.4762470000000008
0
LINE
8
LYELLOW
6
CONTINUOUS
10
86.8691139999999962
20
-98.4762470000000008
11
86.8691139999999962
21
-98.714342000000002
0
LINE
8
LYELLOW
6
CONTINUOUS
10
86.8691139999999962
20
-98.714342000000002
11
86.8214949999999988
21
-98.8095799999999969
0
LINE
8
LYELLOW
6
CONTINUOUS
10
86.8214949999999988
20
-98.8095799999999969
11
86.7738760000000013
21
-98.8571999999999917
0
LINE
8
LYELLOW
6
CONTINUOUS
10
86.7738760000000013
20
-98.8571999999999917
11
86.6786379999999923
21
-98.9048189999999892
0
LINE
8
LYELLOW
6
CONTINUOUS
10
86.6786379999999923
20
-98.9048189999999892
11
86.3929239999999936
21
-98.9048189999999892
0
LINE
8
LYELLOW
6
CONTINUOUS
10
86.3929239999999936
20
-98.9048189999999892
11
86.2976859999999988
21
-98.8571999999999917
0
LINE
8
LYELLOW
6
CONTINUOUS
10
86.2976859999999988
20
-98.8571999999999917
11
86.2500670000000014
21
-98.8095799999999969
0
LINE
8
LYELLOW
6
CONTINUOUS
10
84.2377329999999915
20
-108.084818999999996
11
83.9043999999999954
21
-107.608627999999996
0
LINE
8
LYELLOW
6
CONTINUOUS
10
83.6663049999999942
20
-108.084818999999996
11
83.6663049999999942
21
-107.084818999999996
0
LINE
8
LYELLOW
6
CONTINUOUS
10
83.6663049999999942
20
-107.084818999999996
11
84.0472570000000019
21
-107.084818999999996
0
LINE
8
LYELLOW
6
CONTINUOUS
10
84.0472570000000019
20
-107.084818999999996
11
84.1424949999999967
21
-107.1324379999999934
0
LINE
8
LYELLOW
6
CONTINUOUS
10
84.1424949999999967
20
-107.1324379999999934
11
84.1901139999999941
21
-107.1800569999999908
0
LINE
8
LYELLOW
6
CONTINUOUS
10
84.1901139999999941
20
-107.1800569999999908
11
84.2377329999999915
21
-107.2752949999999998
0
LINE
8
LYELLOW
6
CONTINUOUS
10
84.2377329999999915
20
-107.2752949999999998
11
84.2377329999999915
21
-107.4181519999999921
0
LINE
8
LYELLOW
6
CONTINUOUS
10
84.2377329999999915
20
-107.4181519999999921
11
84.1901139999999941
21
-107.5133900000000011
0
LINE
8
LYELLOW
6
CONTINUOUS
10
84.1901139999999941
20
-107.5133900000000011
11
84.1424949999999967
21
-107.5610089999999985
0
LINE
8
LYELLOW
6
CONTINUOUS
10
84.1424949999999967
20
-107.5610089999999985
11
84.0472570000000019
21
-107.608627999999996
0
LINE
8
LYELLOW
6
CONTINUOUS
10
84.0472570000000019
20
-107.608627999999996
11
83.6663049999999942
21
-107.608627999999996
0
LINE
8
LYELLOW
6
CONTINUOUS
10
84.6186859999999967
20
-107.1800569999999908
11
84.6663049999999942
21
-107.1324379999999934
0
LINE
8
LYELLOW
6
CONTINUOUS
10
84.6663049999999942
20
-107.1324379999999934
11
84.7615430000000032
21
-107.084818999999996
0
LINE
8
LYELLOW
6
CONTINUOUS
10
84.7615430000000032
20
-107.084818999999996
11
84.9996379999999903
21
-107.084818999999996
0
LINE
8
LYELLOW
6
CONTINUOUS
10
84.9996379999999903
20
-107.084818999999996
11
85.0948759999999993
21
-107.1324379999999934
0
LINE
8
LYELLOW
6
CONTINUOUS
10
85.0948759999999993
20
-107.1324379999999934
11
85.1424949999999967
21
-107.1800569999999908
0
LINE
8
LYELLOW
6
CONTINUOUS
10
85.1424949999999967
20
-107.1800569999999908
11
85.1901139999999941
21
-107.2752949999999998
0
LINE
8
LYELLOW
6
CONTINUOUS
10
85.1901139999999941
20
-107.2752949999999998
11
85.1901139999999941
21
-107.3705329999999947
0
LINE
8
LYELLOW
6
CONTINUOUS
10
85.1901139999999941
20
-107.3705329999999947
11
85.1424949999999967
21
-107.5133900000000011
0
LINE
8
LYELLOW
6
CONTINUOUS
10
85.1424949999999967
20
-107.5133900000000011
11
84.5710669999999993
21
-108.084818999999996
0
LINE
8
LYELLOW
6
CONTINUOUS
10
84.5710669999999993
20
-108.084818999999996
11
85.1901139999999941
21
-108.084818999999996
0
LINE
8
LYELLOW
6
CONTINUOUS
10
95.1266660000000002
20
-116.7558189999999883
11
95.1266660000000002
21
-117.4701039999999921
0
LINE
8
LYELLOW
6
CONTINUOUS
10
95.1266660000000002
20
-117.4701039999999921
11
95.0790470000000028
21
-117.6129609999999985
0
LINE
8
LYELLOW
6
CONTINUOUS
10
95.0790470000000028
20
-117.6129609999999985
11
94.9838089999999937
21
-117.7081999999999908
0
LINE
8
LYELLOW
6
CONTINUOUS
10
94.9838089999999937
20
-117.7081999999999908
11
94.8409520000000015
21
-117.7558189999999883
0
LINE
8
LYELLOW
6
CONTINUOUS
10
94.8409520000000015
20
-117.7558189999999883
11
94.7457139999999924
21
-117.7558189999999883
0
LINE
8
LYELLOW
6
CONTINUOUS
10
96.0314279999999911
20
-117.0891519999999986
11
96.0314279999999911
21
-117.7558189999999883
0
LINE
8
LYELLOW
6
CONTINUOUS
10
95.7933329999999899
20
-116.7081999999999908
11
95.5552379999999886
21
-117.4224849999999947
0
LINE
8
LYELLOW
6
CONTINUOUS
10
95.5552379999999886
20
-117.4224849999999947
11
96.1742849999999976
21
-117.4224849999999947
0
LINE
8
LYELLOW
6
CONTINUOUS
10
120.609579999999994
20
-104.9166659999999922
11
120.6571999999999889
21
-104.9642849999999896
0
LINE
8
LYELLOW
6
CONTINUOUS
10
120.6571999999999889
20
-104.9642849999999896
11
120.7048190000000005
21
-105.1071419999999961
0
LINE
8
LYELLOW
6
CONTINUOUS
10
120.7048190000000005
20
-105.1071419999999961
11
120.7048190000000005
21
-105.2023799999999909
0
LINE
8
LYELLOW
6
CONTINUOUS
10
120.7048190000000005
20
-105.2023799999999909
11
120.6571999999999889
21
-105.3452369999999974
0
LINE
8
LYELLOW
6
CONTINUOUS
10
120.6571999999999889
20
-105.3452369999999974
11
120.5619609999999966
21
-105.4404749999999922
0
LINE
8
LYELLOW
6
CONTINUOUS
10
120.5619609999999966
20
-105.4404749999999922
11
120.4667229999999876
21
-105.4880939999999896
0
LINE
8
LYELLOW
6
CONTINUOUS
10
120.4667229999999876
20
-105.4880939999999896
11
120.2762469999999979
21
-105.5357130000000012
0
LINE
8
LYELLOW
6
CONTINUOUS
10
120.2762469999999979
20
-105.5357130000000012
11
120.1333899999999915
21
-105.5357130000000012
0
LINE
8
LYELLOW
6
CONTINUOUS
10
120.1333899999999915
20
-105.5357130000000012
11
119.9429139999999876
21
-105.4880939999999896
0
LINE
8
LYELLOW
6
CONTINUOUS
10
119.9429139999999876
20
-105.4880939999999896
11
119.8476759999999928
21
-105.4404749999999922
0
LINE
8
LYELLOW
6
CONTINUOUS
10
119.8476759999999928
20
-105.4404749999999922
11
119.7524379999999979
21
-105.3452369999999974
0
LINE
8
LYELLOW
6
CONTINUOUS
10
119.7524379999999979
20
-105.3452369999999974
11
119.7048190000000005
21
-105.2023799999999909
0
LINE
8
LYELLOW
6
CONTINUOUS
10
119.7048190000000005
20
-105.2023799999999909
11
119.7048190000000005
21
-105.1071419999999961
0
LINE
8
LYELLOW
6
CONTINUOUS
10
119.7048190000000005
20
-105.1071419999999961
11
119.7524379999999979
21
-104.9642849999999896
0
LINE
8
LYELLOW
6
CONTINUOUS
10
119.7524379999999979
20
-104.9642849999999896
11
119.8000569999999954
21
-104.9166659999999922
0
LINE
8
LYELLOW
6
CONTINUOUS
10
120.7048190000000005
20
-103.9642849999999896
11
120.7048190000000005
21
-104.5357130000000012
0
LINE
8
LYELLOW
6
CONTINUOUS
10
120.7048190000000005
20
-104.2499989999999883
11
119.7048190000000005
21
-104.2499989999999883
0
LINE
8
LYELLOW
6
CONTINUOUS
10
119.7048190000000005
20
-104.2499989999999883
11
119.8476759999999928
21
-104.3452369999999974
0
LINE
8
LYELLOW
6
CONTINUOUS
10
119.8476759999999928
20
-104.3452369999999974
11
119.9429139999999876
21
-104.4404749999999922
0
LINE
8
LYELLOW
6
CONTINUOUS
10
119.9429139999999876
20
-104.4404749999999922
11
119.9905329999999992
21
-104.5357130000000012
0
LINE
8
LYELLOW
6
CONTINUOUS
10
69.7619049999999987
20
-103.8748190000000022
11
69.7619049999999987
21
-102.8748190000000022
0
LINE
8
LYELLOW
6
CONTINUOUS
10
69.7619049999999987
20
-102.8748190000000022
11
70.
21
-102.8748190000000022
0
LINE
8
LYELLOW
6
CONTINUOUS
10
70.
20
-102.8748190000000022
11
70.1428569999999922
21
-102.9224379999999996
0
LINE
8
LYELLOW
6
CONTINUOUS
10
70.1428569999999922
20
-102.9224379999999996
11
70.2380950000000013
21
-103.0176759999999945
0
LINE
8
LYELLOW
6
CONTINUOUS
10
70.2380950000000013
20
-103.0176759999999945
11
70.2857139999999987
21
-103.1129139999999893
0
LINE
8
LYELLOW
6
CONTINUOUS
10
70.2857139999999987
20
-103.1129139999999893
11
70.3333329999999961
21
-103.3033899999999932
0
LINE
8
LYELLOW
6
CONTINUOUS
10
70.3333329999999961
20
-103.3033899999999932
11
70.3333329999999961
21
-103.4462469999999996
0
LINE
8
LYELLOW
6
CONTINUOUS
10
70.3333329999999961
20
-103.4462469999999996
11
70.2857139999999987
21
-103.6367229999999893
0
LINE
8
LYELLOW
6
CONTINUOUS
10
70.2857139999999987
20
-103.6367229999999893
11
70.2380950000000013
21
-103.7319609999999983
0
LINE
8
LYELLOW
6
CONTINUOUS
10
70.2380950000000013
20
-103.7319609999999983
11
70.1428569999999922
21
-103.8271999999999906
0
LINE
8
LYELLOW
6
CONTINUOUS
10
70.1428569999999922
20
-103.8271999999999906
11
70.
21
-103.8748190000000022
0
LINE
8
LYELLOW
6
CONTINUOUS
10
70.
20
-103.8748190000000022
11
69.7619049999999987
21
-103.8748190000000022
0
LINE
8
LYELLOW
6
CONTINUOUS
10
71.2857139999999987
20
-103.8748190000000022
11
70.7142860000000013
21
-103.8748190000000022
0
LINE
8
LYELLOW
6
CONTINUOUS
10
71.
20
-103.8748190000000022
11
71.
21
-102.8748190000000022
0
LINE
8
LYELLOW
6
CONTINUOUS
10
71.
20
-102.8748190000000022
11
70.904761999999991
21
-103.0176759999999945
0
LINE
8
LYELLOW
6
CONTINUOUS
10
70.904761999999991
20
-103.0176759999999945
11
70.8095239999999961
21
-103.1129139999999893
0
LINE
8
LYELLOW
6
CONTINUOUS
10
70.8095239999999961
20
-103.1129139999999893
11
70.7142860000000013
21
-103.1605330000000009
0
LINE
8
LYELLOW
6
CONTINUOUS
10
75.3180949999999996
20
-103.5048189999999977
11
75.3180949999999996
21
-102.5048189999999977
0
LINE
8
LYELLOW
6
CONTINUOUS
10
75.889522999999997
20
-103.5048189999999977
11
75.4609519999999918
21
-102.9333899999999886
0
LINE
8
LYELLOW
6
CONTINUOUS
10
75.889522999999997
20
-102.5048189999999977
11
75.3180949999999996
21
-103.0762469999999951
0
LINE
8
LYELLOW
6
CONTINUOUS
10
93.4248189999999994
20
-88.951903999999999
11
94.2343419999999981
21
-88.951903999999999
0
LINE
8
LYELLOW
6
CONTINUOUS
10
94.2343419999999981
20
-88.951903999999999
11
94.3295799999999929
21
-88.9042850000000016
0
LINE
8
LYELLOW
6
CONTINUOUS
10
94.3295799999999929
20
-88.9042850000000016
11
94.377200000000002
21
-88.8566659999999899
0
LINE
8
LYELLOW
6
CONTINUOUS
10
94.377200000000002
20
-88.8566659999999899
11
94.4248189999999994
21
-88.7614279999999951
0
LINE
8
LYELLOW
6
CONTINUOUS
10
94.4248189999999994
20
-88.7614279999999951
11
94.4248189999999994
21
-88.5709519999999912
0
LINE
8
LYELLOW
6
CONTINUOUS
10
94.4248189999999994
20
-88.5709519999999912
11
94.377200000000002
21
-88.4757139999999964
0
LINE
8
LYELLOW
6
CONTINUOUS
10
94.377200000000002
20
-88.4757139999999964
11
94.3295799999999929
21
-88.428094999999999
0
LINE
8
LYELLOW
6
CONTINUOUS
10
94.3295799999999929
20
-88.428094999999999
11
94.2343419999999981
21
-88.3804760000000016
0
LINE
8
LYELLOW
6
CONTINUOUS
10
94.2343419999999981
20
-88.3804760000000016
11
93.4248189999999994
21
-88.3804760000000016
0
LINE
8
LYELLOW
6
CONTINUOUS
10
93.5200569999999942
20
-87.951903999999999
11
93.4724379999999968
21
-87.9042850000000016
0
LINE
8
LYELLOW
6
CONTINUOUS
10
93.4724379999999968
20
-87.9042850000000016
11
93.4248189999999994
21
-87.8090469999999925
0
LINE
8
LYELLOW
6
CONTINUOUS
10
93.4248189999999994
20
-87.8090469999999925
11
93.4248189999999994
21
-87.5709519999999912
0
LINE
8
LYELLOW
6
CONTINUOUS
10
93.4248189999999994
20
-87.5709519999999912
11
93.4724379999999968
21
-87.4757139999999964
0
LINE
8
LYELLOW
6
CONTINUOUS
10
93.4724379999999968
20
-87.4757139999999964
11
93.5200569999999942
21
-87.428094999999999
0
LINE
8
LYELLOW
6
CONTINUOUS
10
93.5200569999999942
20
-87.428094999999999
11
93.615294999999989
21
-87.3804760000000016
0
LINE
8
LYELLOW
6
CONTINUOUS
10
93.615294999999989
20
-87.3804760000000016
11
93.7105329999999981
21
-87.3804760000000016
0
LINE
8
LYELLOW
6
CONTINUOUS
10
93.7105329999999981
20
-87.3804760000000016
11
93.8533899999999903
21
-87.428094999999999
0
LINE
8
LYELLOW
6
CONTINUOUS
10
93.8533899999999903
20
-87.428094999999999
11
94.4248189999999994
21
-87.9995229999999964
0
LINE
8
LYELLOW
6
CONTINUOUS
10
94.4248189999999994
20
-87.9995229999999964
11
94.4248189999999994
21
-87.3804760000000016
0
LINE
8
LYELLOW
6
CONTINUOUS
10
110.4625659999999954
20
-126.9158189999999991
11
110.4625659999999954
21
-127.6301039999999887
0
LINE
8
LYELLOW
6
CONTINUOUS
10
110.4625659999999954
20
-127.6301039999999887
11
110.414946999999998
21
-127.7729609999999951
0
LINE
8
LYELLOW
6
CONTINUOUS
10
110.414946999999998
20
-127.7729609999999951
11
110.3197089999999889
21
-127.8681999999999874
0
LINE
8
LYELLOW
6
CONTINUOUS
10
110.3197089999999889
20
-127.8681999999999874
11
110.1768519999999967
21
-127.9158189999999991
0
LINE
8
LYELLOW
6
CONTINUOUS
10
110.1768519999999967
20
-127.9158189999999991
11
110.0816140000000019
21
-127.9158189999999991
0
LINE
8
LYELLOW
6
CONTINUOUS
10
110.891137999999998
20
-127.0110569999999939
11
110.9387569999999954
21
-126.9634379999999965
0
LINE
8
LYELLOW
6
CONTINUOUS
10
110.9387569999999954
20
-126.9634379999999965
11
111.0339949999999902
21
-126.9158189999999991
0
LINE
8
LYELLOW
6
CONTINUOUS
10
111.0339949999999902
20
-126.9158189999999991
11
111.2720899999999915
21
-126.9158189999999991
0
LINE
8
LYELLOW
6
CONTINUOUS
10
111.2720899999999915
20
-126.9158189999999991
11
111.3673280000000005
21
-126.9634379999999965
0
LINE
8
LYELLOW
6
CONTINUOUS
10
111.3673280000000005
20
-126.9634379999999965
11
111.414946999999998
21
-127.0110569999999939
0
LINE
8
LYELLOW
6
CONTINUOUS
10
111.414946999999998
20
-127.0110569999999939
11
111.4625659999999954
21
-127.1062949999999887
0
LINE
8
LYELLOW
6
CONTINUOUS
10
111.4625659999999954
20
-127.1062949999999887
11
111.4625659999999954
21
-127.2015329999999977
0
LINE
8
LYELLOW
6
CONTINUOUS
10
111.4625659999999954
20
-127.2015329999999977
11
111.414946999999998
21
-127.34438999999999
0
LINE
8
LYELLOW
6
CONTINUOUS
10
111.414946999999998
20
-127.34438999999999
11
110.8435190000000006
21
-127.9158189999999991
0
LINE
8
LYELLOW
6
CONTINUOUS
10
110.8435190000000006
20
-127.9158189999999991
11
111.4625659999999954
21
-127.9158189999999991
0
LINE
8
LYELLOW
6
CONTINUOUS
10
57.0523329999999973
20
-112.8248189999999909
11
56.7189999999999941
21
-112.3486279999999908
0
LINE
8
LYELLOW
6
CONTINUOUS
10
56.4809049999999999
20
-112.8248189999999909
11
56.4809049999999999
21
-111.8248189999999909
0
LINE
8
LYELLOW
6
CONTINUOUS
10
56.4809049999999999
20
-111.8248189999999909
11
56.8618570000000005
21
-111.8248189999999909
0
LINE
8
LYELLOW
6
CONTINUOUS
10
56.8618570000000005
20
-111.8248189999999909
11
56.9570949999999954
21
-111.8724379999999883
0
LINE
8
LYELLOW
6
CONTINUOUS
10
56.9570949999999954
20
-111.8724379999999883
11
57.0047139999999999
21
-111.9200569999999999
0
LINE
8
LYELLOW
6
CONTINUOUS
10
57.0047139999999999
20
-111.9200569999999999
11
57.0523329999999973
21
-112.0152949999999947
0
LINE
8
LYELLOW
6
CONTINUOUS
10
57.0523329999999973
20
-112.0152949999999947
11
57.0523329999999973
21
-112.1581520000000012
0
LINE
8
LYELLOW
6
CONTINUOUS
10
57.0523329999999973
20
-112.1581520000000012
11
57.0047139999999999
21
-112.253389999999996
0
LINE
8
LYELLOW
6
CONTINUOUS
10
57.0047139999999999
20
-112.253389999999996
11
56.9570949999999954
21
-112.3010089999999934
0
LINE
8
LYELLOW
6
CONTINUOUS
10
56.9570949999999954
20
-112.3010089999999934
11
56.8618570000000005
21
-112.3486279999999908
0
LINE
8
LYELLOW
6
CONTINUOUS
10
56.8618570000000005
20
-112.3486279999999908
11
56.4809049999999999
21
-112.3486279999999908
0
LINE
8
LYELLOW
6
CONTINUOUS
10
57.909475999999998
20
-112.1581520000000012
11
57.909475999999998
21
-112.8248189999999909
0
LINE
8
LYELLOW
6
CONTINUOUS
10
57.6713809999999967
20
-111.7771999999999935
11
57.4332859999999954
21
-112.4914849999999973
0
LINE
8
LYELLOW
6
CONTINUOUS
10
57.4332859999999954
20
-112.4914849999999973
11
58.0523329999999973
21
-112.4914849999999973
0
LINE
8
LYELLOW
6
CONTINUOUS
10
72.2623329999999982
20
-108.084818999999996
11
71.929000000000002
21
-107.608627999999996
0
LINE
8
LYELLOW
6
CONTINUOUS
10
71.6909050000000008
20
-108.084818999999996
11
71.6909050000000008
21
-107.084818999999996
0
LINE
8
LYELLOW
6
CONTINUOUS
10
71.6909050000000008
20
-107.084818999999996
11
72.0718569999999943
21
-107.084818999999996
0
LINE
8
LYELLOW
6
CONTINUOUS
10
72.0718569999999943
20
-107.084818999999996
11
72.1670950000000033
21
-107.1324379999999934
0
LINE
8
LYELLOW
6
CONTINUOUS
10
72.1670950000000033
20
-107.1324379999999934
11
72.2147140000000007
21
-107.1800569999999908
0
LINE
8
LYELLOW
6
CONTINUOUS
10
72.2147140000000007
20
-107.1800569999999908
11
72.2623329999999982
21
-107.2752949999999998
0
LINE
8
LYELLOW
6
CONTINUOUS
10
72.2623329999999982
20
-107.2752949999999998
11
72.2623329999999982
21
-107.4181519999999921
0
LINE
8
LYELLOW
6
CONTINUOUS
10
72.2623329999999982
20
-107.4181519999999921
11
72.2147140000000007
21
-107.5133900000000011
0
LINE
8
LYELLOW
6
CONTINUOUS
10
72.2147140000000007
20
-107.5133900000000011
11
72.1670950000000033
21
-107.5610089999999985
0
LINE
8
LYELLOW
6
CONTINUOUS
10
72.1670950000000033
20
-107.5610089999999985
11
72.0718569999999943
21
-107.608627999999996
0
LINE
8
LYELLOW
6
CONTINUOUS
10
72.0718569999999943
20
-107.608627999999996
11
71.6909050000000008
21
-107.608627999999996
0
LINE
8
LYELLOW
6
CONTINUOUS
10
73.2147140000000007
20
-108.084818999999996
11
72.6432860000000034
21
-108.084818999999996
0
LINE
8
LYELLOW
6
CONTINUOUS
10
72.929000000000002
20
-108.084818999999996
11
72.929000000000002
21
-107.084818999999996
0
LINE
8
LYELLOW
6
CONTINUOUS
10
72.929000000000002
20
-107.084818999999996
11
72.833761999999993
21
-107.2276759999999882
0
LINE
8
LYELLOW
6
CONTINUOUS
10
72.833761999999993
20
-107.2276759999999882
11
72.7385239999999982
21
-107.3229139999999973
0
LINE
8
LYELLOW
6
CONTINUOUS
10
72.7385239999999982
20
-107.3229139999999973
11
72.6432860000000034
21
-107.3705329999999947
0
LINE
8
LYELLOW
6
CONTINUOUS
10
79.7380950000000013
20
-116.9658189999999962
11
79.7380950000000013
21
-117.7753419999999949
0
LINE
8
LYELLOW
6
CONTINUOUS
10
79.7380950000000013
20
-117.7753419999999949
11
79.7857139999999987
21
-117.8705799999999897
0
LINE
8
LYELLOW
6
CONTINUOUS
10
79.7857139999999987
20
-117.8705799999999897
11
79.8333329999999961
21
-117.9181999999999988
0
LINE
8
LYELLOW
6
CONTINUOUS
10
79.8333329999999961
20
-117.9181999999999988
11
79.9285709999999909
21
-117.9658189999999962
0
LINE
8
LYELLOW
6
CONTINUOUS
10
79.9285709999999909
20
-117.9658189999999962
11
80.1190469999999948
21
-117.9658189999999962
0
LINE
8
LYELLOW
6
CONTINUOUS
10
80.1190469999999948
20
-117.9658189999999962
11
80.2142849999999896
21
-117.9181999999999988
0
LINE
8
LYELLOW
6
CONTINUOUS
10
80.2142849999999896
20
-117.9181999999999988
11
80.2619040000000012
21
-117.8705799999999897
0
LINE
8
LYELLOW
6
CONTINUOUS
10
80.2619040000000012
20
-117.8705799999999897
11
80.3095229999999987
21
-117.7753419999999949
0
LINE
8
LYELLOW
6
CONTINUOUS
10
80.3095229999999987
20
-117.7753419999999949
11
80.3095229999999987
21
-116.9658189999999962
0
LINE
8
LYELLOW
6
CONTINUOUS
10
81.3095229999999987
20
-117.9658189999999962
11
80.7380950000000013
21
-117.9658189999999962
0
LINE
8
LYELLOW
6
CONTINUOUS
10
81.023809
20
-117.9658189999999962
11
81.023809
21
-116.9658189999999962
0
LINE
8
LYELLOW
6
CONTINUOUS
10
81.023809
20
-116.9658189999999962
11
80.9285709999999909
21
-117.1086759999999884
0
LINE
8
LYELLOW
6
CONTINUOUS
10
80.9285709999999909
20
-117.1086759999999884
11
80.8333329999999961
21
-117.2039139999999975
0
LINE
8
LYELLOW
6
CONTINUOUS
10
80.8333329999999961
20
-117.2039139999999975
11
80.7380950000000013
21
-117.2515329999999949
0
LINE
8
LYELLOW
6
CONTINUOUS
10
57.3333329999999961
20
-66.9548190000000005
11
56.8571430000000007
21
-66.9548190000000005
0
LINE
8
LYELLOW
6
CONTINUOUS
10
56.8571430000000007
20
-66.9548190000000005
11
56.8571430000000007
21
-65.9548190000000005
0
LINE
8
LYELLOW
6
CONTINUOUS
10
58.1904759999999968
20
-66.9548190000000005
11
57.6190479999999994
21
-66.9548190000000005
0
LINE
8
LYELLOW
6
CONTINUOUS
10
57.9047619999999981
20
-66.9548190000000005
11
57.9047619999999981
21
-65.9548190000000005
0
LINE
8
LYELLOW
6
CONTINUOUS
10
57.9047619999999981
20
-65.9548190000000005
11
57.8095239999999961
21
-66.0976759999999928
0
LINE
8
LYELLOW
6
CONTINUOUS
10
57.8095239999999961
20
-66.0976759999999928
11
57.7142859999999942
21
-66.1929140000000018
0
LINE
8
LYELLOW
6
CONTINUOUS
10
57.7142859999999942
20
-66.1929140000000018
11
57.6190479999999994
21
-66.2405329999999992
0
LINE
8
LYELLOW
6
CONTINUOUS
10
57.1666659999999993
20
-116.7558189999999883
11
57.1666659999999993
21
-117.4701039999999921
0
LINE
8
LYELLOW
6
CONTINUOUS
10
57.1666659999999993
20
-117.4701039999999921
11
57.1190469999999948
21
-117.6129609999999985
0
LINE
8
LYELLOW
6
CONTINUOUS
10
57.1190469999999948
20
-117.6129609999999985
11
57.023809
21
-117.7081999999999908
0
LINE
8
LYELLOW
6
CONTINUOUS
10
57.023809
20
-117.7081999999999908
11
56.8809520000000006
21
-117.7558189999999883
0
LINE
8
LYELLOW
6
CONTINUOUS
10
56.8809520000000006
20
-117.7558189999999883
11
56.7857139999999987
21
-117.7558189999999883
0
LINE
8
LYELLOW
6
CONTINUOUS
10
58.1666659999999993
20
-117.7558189999999883
11
57.5952379999999948
21
-117.7558189999999883
0
LINE
8
LYELLOW
6
CONTINUOUS
10
57.8809520000000006
20
-117.7558189999999883
11
57.8809520000000006
21
-116.7558189999999883
0
LINE
8
LYELLOW
6
CONTINUOUS
10
57.8809520000000006
20
-116.7558189999999883
11
57.7857139999999987
21
-116.8986759999999947
0
LINE
8
LYELLOW
6
CONTINUOUS
10
57.7857139999999987
20
-116.8986759999999947
11
57.6904759999999968
21
-116.9939139999999895
0
LINE
8
LYELLOW
6
CONTINUOUS
10
57.6904759999999968
20
-116.9939139999999895
11
57.5952379999999948
21
-117.0415330000000012
0
LINE
8
LYELLOW
6
CONTINUOUS
10
81.3403019999999941
20
-87.1850000000000023
11
82.1403019999999913
21
-87.1850000000000023
0
LINE
8
LYELLOW
6
CONTINUOUS
10
81.7403019999999998
20
-86.7849999999999966
11
81.7403019999999998
21
-87.5849999999999937
0
LINE
8
LYELLOW
6
CONTINUOUS
10
85.75
20
-85.4200000000000017
11
85.75
21
-93.5799999999999983
0
LINE
8
LYELLOW
6
CONTINUOUS
10
85.789999999999992
20
-85.4200000000000017
11
85.789999999999992
21
-93.5799999999999983
0
LINE
8
LYELLOW
6
CONTINUOUS
10
85.8299999999999983
20
-85.4209999999999923
11
85.8299999999999983
21
-93.5789999999999935
0
LINE
8
LYELLOW
6
CONTINUOUS
10
85.8699999999999903
20
-85.421999999999997
11
85.8699999999999903
21
-93.5779999999999887
0
LINE
8
LYELLOW
6
CONTINUOUS
10
85.9099999999999966
20
-85.4230000000000018
11
85.9099999999999966
21
-93.5769999999999982
0
LINE
8
LYELLOW
6
CONTINUOUS
10
85.9500000000000028
20
-85.4249999999999972
11
85.9500000000000028
21
-93.5750000000000028
0
LINE
8
LYELLOW
6
CONTINUOUS
10
85.9899999999999949
20
-85.4269999999999925
11
85.9899999999999949
21
-93.5729999999999933
0
LINE
8
LYELLOW
6
CONTINUOUS
10
86.0300000000000011
20
-85.4299999999999926
11
86.0300000000000011
21
-93.5699999999999932
0
LINE
8
LYELLOW
6
CONTINUOUS
10
86.0699999999999932
20
-85.4320000000000022
11
86.0699999999999932
21
-93.5679999999999978
0
LINE
8
LYELLOW
6
CONTINUOUS
10
86.1099999999999994
20
-85.4359999999999928
11
86.1099999999999994
21
-93.563999999999993
0
LINE
8
LYELLOW
6
CONTINUOUS
10
86.1499999999999915
20
-85.438999999999993
11
86.1499999999999915
21
-93.5609999999999928
0
LINE
8
LYELLOW
6
CONTINUOUS
10
86.1899999999999977
20
-85.4440000000000026
11
86.1899999999999977
21
-93.5559999999999974
0
LINE
8
LYELLOW
6
CONTINUOUS
10
86.2299999999999898
20
-85.4479999999999933
11
86.2299999999999898
21
-93.5519999999999925
0
LINE
8
LYELLOW
6
CONTINUOUS
10
86.269999999999996
20
-85.453000000000003
11
86.269999999999996
21
-93.546999999999997
0
LINE
8
LYELLOW
6
CONTINUOUS
10
86.3100000000000023
20
-85.4579999999999984
11
86.3100000000000023
21
-93.5420000000000016
0
LINE
8
LYELLOW
6
CONTINUOUS
10
86.3499999999999943
20
-85.4639999999999986
11
86.3499999999999943
21
-93.5360000000000014
0
LINE
8
LYELLOW
6
CONTINUOUS
10
86.3900000000000006
20
-85.4699999999999989
11
86.3900000000000006
21
-93.5300000000000011
0
LINE
8
LYELLOW
6
CONTINUOUS
10
86.4299999999999926
20
-85.4769999999999897
11
86.4299999999999926
21
-93.5229999999999961
0
LINE
8
LYELLOW
6
CONTINUOUS
10
86.4699999999999989
20
-85.4829999999999899
11
86.4699999999999989
21
-88.4599999999999937
0
LINE
8
LYELLOW
6
CONTINUOUS
10
86.4699999999999989
20
-90.539999999999992
11
86.4699999999999989
21
-93.5169999999999959
0
LINE
8
LYELLOW
6
CONTINUOUS
10
86.5099999999999909
20
-85.4909999999999997
11
86.5099999999999909
21
-88.4599999999999937
0
LINE
8
LYELLOW
6
CONTINUOUS
10
86.5099999999999909
20
-90.539999999999992
11
86.5099999999999909
21
-93.5090000000000003
0
LINE
8
LYELLOW
6
CONTINUOUS
10
86.5499999999999972
20
-85.4979999999999905
11
86.5499999999999972
21
-88.4599999999999937
0
LINE
8
LYELLOW
6
CONTINUOUS
10
86.5499999999999972
20
-90.539999999999992
11
86.5499999999999972
21
-93.5019999999999953
0
LINE
8
LYELLOW
6
CONTINUOUS
10
86.5899999999999892
20
-85.5069999999999908
11
86.5899999999999892
21
-88.4599999999999937
0
LINE
8
LYELLOW
6
CONTINUOUS
10
86.5899999999999892
20
-90.539999999999992
11
86.5899999999999892
21
-93.492999999999995
0
LINE
8
LYELLOW
6
CONTINUOUS
10
86.6299999999999955
20
-85.5150000000000006
11
86.6299999999999955
21
-88.4599999999999937
0
LINE
8
LYELLOW
6
CONTINUOUS
10
86.6299999999999955
20
-90.539999999999992
11
86.6299999999999955
21
-93.4849999999999994
0
LINE
8
LYELLOW
6
CONTINUOUS
10
86.6700000000000017
20
-85.5240000000000009
11
86.6700000000000017
21
-88.4599999999999937
0
LINE
8
LYELLOW
6
CONTINUOUS
10
86.6700000000000017
20
-90.539999999999992
11
86.6700000000000017
21
-93.4759999999999991
0
LINE
8
LYELLOW
6
CONTINUOUS
10
86.7099999999999937
20
-85.5330000000000013
11
86.7099999999999937
21
-88.4599999999999937
0
LINE
8
LYELLOW
6
CONTINUOUS
10
86.7099999999999937
20
-90.539999999999992
11
86.7099999999999937
21
-93.4669999999999987
0
LINE
8
LYELLOW
6
CONTINUOUS
10
86.75
20
-85.5429999999999922
11
86.75
21
-88.4599999999999937
0
LINE
8
LYELLOW
6
CONTINUOUS
10
86.75
20
-90.539999999999992
11
86.75
21
-93.4569999999999936
0
LINE
8
LYELLOW
6
CONTINUOUS
10
86.789999999999992
20
-85.5529999999999973
11
86.789999999999992
21
-88.4599999999999937
0
LINE
8
LYELLOW
6
CONTINUOUS
10
86.789999999999992
20
-90.539999999999992
11
86.789999999999992
21
-93.4470000000000027
0
LINE
8
LYELLOW
6
CONTINUOUS
10
86.8299999999999983
20
-85.563999999999993
11
86.8299999999999983
21
-88.4599999999999937
0
LINE
8
LYELLOW
6
CONTINUOUS
10
86.8299999999999983
20
-90.539999999999992
11
86.8299999999999983
21
-93.4359999999999928
0
LINE
8
LYELLOW
6
CONTINUOUS
10
86.8699999999999903
20
-85.5750000000000028
11
86.8699999999999903
21
-88.4599999999999937
0
LINE
8
LYELLOW
6
CONTINUOUS
10
86.8699999999999903
20
-90.539999999999992
11
86.8699999999999903
21
-93.4249999999999972
0
LINE
8
LYELLOW
6
CONTINUOUS
10
86.9099999999999966
20
-85.5869999999999891
11
86.9099999999999966
21
-88.4599999999999937
0
LINE
8
LYELLOW
6
CONTINUOUS
10
86.9099999999999966
20
-90.539999999999992
11
86.9099999999999966
21
-93.4129999999999967
0
LINE
8
LYELLOW
6
CONTINUOUS
10
86.9500000000000028
20
-85.5989999999999895
11
86.9500000000000028
21
-88.4599999999999937
0
LINE
8
LYELLOW
6
CONTINUOUS
10
86.9500000000000028
20
-90.539999999999992
11
86.9500000000000028
21
-93.4009999999999962
0
LINE
8
LYELLOW
6
CONTINUOUS
10
86.9899999999999949
20
-85.61099999999999
11
86.9899999999999949
21
-88.4599999999999937
0
LINE
8
LYELLOW
6
CONTINUOUS
10
86.9899999999999949
20
-90.539999999999992
11
86.9899999999999949
21
-93.3889999999999958
0
LINE
8
LYELLOW
6
CONTINUOUS
10
87.0300000000000011
20
-85.6239999999999952
11
87.0300000000000011
21
-88.4599999999999937
0
LINE
8
LYELLOW
6
CONTINUOUS
10
87.0300000000000011
20
-90.539999999999992
11
87.0300000000000011
21
-93.3759999999999906
0
LINE
8
LYELLOW
6
CONTINUOUS
10
87.0699999999999932
20
-85.6370000000000005
11
87.0699999999999932
21
-88.4599999999999937
0
LINE
8
LYELLOW
6
CONTINUOUS
10
87.0699999999999932
20
-90.539999999999992
11
87.0699999999999932
21
-93.3629999999999995
0
LINE
8
LYELLOW
6
CONTINUOUS
10
87.1099999999999994
20
-85.6509999999999962
11
87.1099999999999994
21
-88.4599999999999937
0
LINE
8
LYELLOW
6
CONTINUOUS
10
87.1099999999999994
20
-90.539999999999992
11
87.1099999999999994
21
-93.3489999999999895
0
LINE
8
LYELLOW
6
CONTINUOUS
10
87.1499999999999915
20
-85.664999999999992
11
87.1499999999999915
21
-88.4599999999999937
0
LINE
8
LYELLOW
6
CONTINUOUS
10
87.1499999999999915
20
-90.539999999999992
11
87.1499999999999915
21
-93.3349999999999937
0
LINE
8
LYELLOW
6
CONTINUOUS
10
87.1899999999999977
20
-85.6799999999999926
11
87.1899999999999977
21
-88.4599999999999937
0
LINE
8
LYELLOW
6
CONTINUOUS
10
87.1899999999999977
20
-90.539999999999992
11
87.1899999999999977
21
-93.3199999999999932
0
LINE
8
LYELLOW
6
CONTINUOUS
10
87.2299999999999898
20
-85.6949999999999932
11
87.2299999999999898
21
-88.4599999999999937
0
LINE
8
LYELLOW
6
CONTINUOUS
10
87.2299999999999898
20
-90.539999999999992
11
87.2299999999999898
21
-93.3049999999999926
0
LINE
8
LYELLOW
6
CONTINUOUS
10
87.269999999999996
20
-85.7109999999999985
11
87.269999999999996
21
-88.4599999999999937
0
LINE
8
LYELLOW
6
CONTINUOUS
10
87.269999999999996
20
-90.539999999999992
11
87.269999999999996
21
-93.2890000000000015
0
LINE
8
LYELLOW
6
CONTINUOUS
10
87.3100000000000023
20
-85.7269999999999897
11
87.3100000000000023
21
-88.4599999999999937
0
LINE
8
LYELLOW
6
CONTINUOUS
10
87.3100000000000023
20
-90.539999999999992
11
87.3100000000000023
21
-93.2729999999999961
0
LINE
8
LYELLOW
6
CONTINUOUS
10
87.3499999999999943
20
-85.742999999999995
11
87.3499999999999943
21
-88.4599999999999937
0
LINE
8
LYELLOW
6
CONTINUOUS
10
87.3499999999999943
20
-90.539999999999992
11
87.3499999999999943
21
-93.2569999999999908
0
LINE
8
LYELLOW
6
CONTINUOUS
10
87.3900000000000006
20
-85.7599999999999909
11
87.3900000000000006
21
-88.4599999999999937
0
LINE
8
LYELLOW
6
CONTINUOUS
10
87.3900000000000006
20
-90.539999999999992
11
87.3900000000000006
21
-93.2399999999999949
0
LINE
8
LYELLOW
6
CONTINUOUS
10
87.4299999999999926
20
-85.7779999999999916
11
87.4299999999999926
21
-88.4599999999999937
0
LINE
8
LYELLOW
6
CONTINUOUS
10
87.4299999999999926
20
-90.539999999999992
11
87.4299999999999926
21
-93.2219999999999942
0
LINE
8
LYELLOW
6
CONTINUOUS
10
87.4699999999999989
20
-85.7959999999999923
11
87.4699999999999989
21
-88.4599999999999937
0
LINE
8
LYELLOW
6
CONTINUOUS
10
87.4699999999999989
20
-90.539999999999992
11
87.4699999999999989
21
-93.2039999999999935
0
LINE
8
LYELLOW
6
CONTINUOUS
10
87.5099999999999909
20
-85.8149999999999977
11
87.5099999999999909
21
-88.4599999999999937
0
LINE
8
LYELLOW
6
CONTINUOUS
10
87.5099999999999909
20
-90.539999999999992
11
87.5099999999999909
21
-93.1850000000000023
0
LINE
8
LYELLOW
6
CONTINUOUS
10
87.5499999999999972
20
-85.8340000000000032
11
87.5499999999999972
21
-88.4599999999999937
0
LINE
8
LYELLOW
6
CONTINUOUS
10
87.5499999999999972
20
-90.539999999999992
11
87.5499999999999972
21
-93.1659999999999968
0
LINE
8
LYELLOW
6
CONTINUOUS
10
87.5899999999999892
20
-85.8539999999999992
11
87.5899999999999892
21
-88.4599999999999937
0
LINE
8
LYELLOW
6
CONTINUOUS
10
87.5899999999999892
20
-90.539999999999992
11
87.5899999999999892
21
-93.1460000000000008
0
LINE
8
LYELLOW
6
CONTINUOUS
10
87.6299999999999955
20
-85.8739999999999952
11
87.6299999999999955
21
-88.4599999999999937
0
LINE
8
LYELLOW
6
CONTINUOUS
10
87.6299999999999955
20
-90.539999999999992
11
87.6299999999999955
21
-93.1259999999999906
0
LINE
8
LYELLOW
6
CONTINUOUS
10
87.6700000000000017
20
-85.894999999999996
11
87.6700000000000017
21
-88.4599999999999937
0
LINE
8
LYELLOW
6
CONTINUOUS
10
87.6700000000000017
20
-90.539999999999992
11
87.6700000000000017
21
-93.1049999999999898
0
LINE
8
LYELLOW
6
CONTINUOUS
10
87.7099999999999937
20
-85.9159999999999968
11
87.7099999999999937
21
-88.4599999999999937
0
LINE
8
LYELLOW
6
CONTINUOUS
10
87.7099999999999937
20
-90.539999999999992
11
87.7099999999999937
21
-93.083999999999989
0
LINE
8
LYELLOW
6
CONTINUOUS
10
87.75
20
-85.9380000000000024
11
87.75
21
-88.4599999999999937
0
LINE
8
LYELLOW
6
CONTINUOUS
10
87.75
20
-90.539999999999992
11
87.75
21
-93.0619999999999976
0
LINE
8
LYELLOW
6
CONTINUOUS
10
87.789999999999992
20
-85.9609999999999985
11
87.789999999999992
21
-88.4599999999999937
0
LINE
8
LYELLOW
6
CONTINUOUS
10
87.789999999999992
20
-90.539999999999992
11
87.789999999999992
21
-93.0390000000000015
0
LINE
8
LYELLOW
6
CONTINUOUS
10
87.8299999999999983
20
-85.9839999999999947
11
87.8299999999999983
21
-88.4599999999999937
0
LINE
8
LYELLOW
6
CONTINUOUS
10
87.8299999999999983
20
-90.539999999999992
11
87.8299999999999983
21
-93.0159999999999911
0
LINE
8
LYELLOW
6
CONTINUOUS
10
87.8699999999999903
20
-86.0069999999999908
11
87.8699999999999903
21
-88.4599999999999937
0
LINE
8
LYELLOW
6
CONTINUOUS
10
87.8699999999999903
20
-90.539999999999992
11
87.8699999999999903
21
-92.992999999999995
0
LINE
8
LYELLOW
6
CONTINUOUS
10
87.9099999999999966
20
-86.0319999999999965
11
87.9099999999999966
21
-88.4599999999999937
0
LINE
8
LYELLOW
6
CONTINUOUS
10
87.9099999999999966
20
-90.539999999999992
11
87.9099999999999966
21
-92.9679999999999893
0
LINE
8
LYELLOW
6
CONTINUOUS
10
87.9500000000000028
20
-86.0570000000000022
11
87.9500000000000028
21
-88.4599999999999937
0
LINE
8
LYELLOW
6
CONTINUOUS
10
87.9500000000000028
20
-90.539999999999992
11
87.9500000000000028
21
-92.9429999999999978
0
LINE
8
LYELLOW
6
CONTINUOUS
10
87.9899999999999949
20
-86.0819999999999936
11
87.9899999999999949
21
-88.4599999999999937
0
LINE
8
LYELLOW
6
CONTINUOUS
10
87.9899999999999949
20
-90.539999999999992
11
87.9899999999999949
21
-92.9179999999999922
0
LINE
8
LYELLOW
6
CONTINUOUS
10
88.0300000000000011
20
-86.1079999999999899
11
88.0300000000000011
21
-88.4599999999999937
0
LINE
8
LYELLOW
6
CONTINUOUS
10
88.0300000000000011
20
-90.539999999999992
11
88.0300000000000011
21
-92.8919999999999959
0
LINE
8
LYELLOW
6
CONTINUOUS
10
88.0699999999999932
20
-86.1349999999999909
11
88.0699999999999932
21
-88.4599999999999937
0
LINE
8
LYELLOW
6
CONTINUOUS
10
88.0699999999999932
20
-90.539999999999992
11
88.0699999999999932
21
-92.8649999999999949
0
LINE
8
LYELLOW
6
CONTINUOUS
10
88.1099999999999994
20
-86.1629999999999967
11
88.1099999999999994
21
-88.4599999999999937
0
LINE
8
LYELLOW
6
CONTINUOUS
10
88.1099999999999994
20
-90.539999999999992
11
88.1099999999999994
21
-92.8369999999999891
0
LINE
8
LYELLOW
6
CONTINUOUS
10
88.1499999999999915
20
-86.1910000000000025
11
88.1499999999999915
21
-88.4599999999999937
0
LINE
8
LYELLOW
6
CONTINUOUS
10
88.1499999999999915
20
-90.539999999999992
11
88.1499999999999915
21
-92.8089999999999975
0
LINE
8
LYELLOW
6
CONTINUOUS
10
88.1899999999999977
20
-86.2199999999999989
11
88.1899999999999977
21
-88.4599999999999937
0
LINE
8
LYELLOW
6
CONTINUOUS
10
88.1899999999999977
20
-90.539999999999992
11
88.1899999999999977
21
-92.7800000000000011
0
LINE
8
LYELLOW
6
CONTINUOUS
10
88.2299999999999898
20
-86.25
11
88.2299999999999898
21
-88.4599999999999937
0
LINE
8
LYELLOW
6
CONTINUOUS
10
88.2299999999999898
20
-90.539999999999992
11
88.2299999999999898
21
-92.75
0
LINE
8
LYELLOW
6
CONTINUOUS
10
88.269999999999996
20
-86.2809999999999917
11
88.269999999999996
21
-88.4599999999999937
0
LINE
8
LYELLOW
6
CONTINUOUS
10
88.269999999999996
20
-90.539999999999992
11
88.269999999999996
21
-92.7189999999999941
0
LINE
8
LYELLOW
6
CONTINUOUS
10
88.3100000000000023
20
-86.3119999999999976
11
88.3100000000000023
21
-88.4599999999999937
0
LINE
8
LYELLOW
6
CONTINUOUS
10
88.3100000000000023
20
-90.539999999999992
11
88.3100000000000023
21
-92.6880000000000024
0
LINE
8
LYELLOW
6
CONTINUOUS
10
88.3499999999999943
20
-86.3439999999999941
11
88.3499999999999943
21
-88.4599999999999937
0
LINE
8
LYELLOW
6
CONTINUOUS
10
88.3499999999999943
20
-90.539999999999992
11
88.3499999999999943
21
-92.6559999999999917
0
LINE
8
LYELLOW
6
CONTINUOUS
10
88.3900000000000006
20
-86.3769999999999953
11
88.3900000000000006
21
-88.4599999999999937
0
LINE
8
LYELLOW
6
CONTINUOUS
10
88.3900000000000006
20
-90.539999999999992
11
88.3900000000000006
21
-92.6229999999999905
0
LINE
8
LYELLOW
6
CONTINUOUS
10
88.4299999999999926
20
-86.4110000000000014
11
88.4299999999999926
21
-88.4599999999999937
0
LINE
8
LYELLOW
6
CONTINUOUS
10
88.4299999999999926
20
-90.539999999999992
11
88.4299999999999926
21
-92.5889999999999986
0
LINE
8
LYELLOW
6
CONTINUOUS
10
88.4699999999999989
20
-86.4449999999999932
11
88.4699999999999989
21
-88.4599999999999937
0
LINE
8
LYELLOW
6
CONTINUOUS
10
88.4699999999999989
20
-90.539999999999992
11
88.4699999999999989
21
-92.5549999999999926
0
LINE
8
LYELLOW
6
CONTINUOUS
10
88.5099999999999909
20
-86.4809999999999945
11
88.5099999999999909
21
-88.4599999999999937
0
LINE
8
LYELLOW
6
CONTINUOUS
10
88.5099999999999909
20
-90.539999999999992
11
88.5099999999999909
21
-92.5189999999999912
0
LINE
8
LYELLOW
6
CONTINUOUS
10
88.5499999999999972
20
-86.5180000000000007
11
88.5499999999999972
21
-92.4819999999999993
0
LINE
8
LYELLOW
6
CONTINUOUS
10
88.5899999999999892
20
-86.5549999999999926
11
88.5899999999999892
21
-92.4449999999999932
0
LINE
8
LYELLOW
6
CONTINUOUS
10
88.6299999999999955
20
-86.5939999999999941
11
88.6299999999999955
21
-92.4059999999999917
0
LINE
8
LYELLOW
6
CONTINUOUS
10
88.6700000000000017
20
-86.6329999999999956
11
88.6700000000000017
21
-92.3669999999999902
0
LINE
8
LYELLOW
6
CONTINUOUS
10
88.7099999999999937
20
-86.6739999999999924
11
88.7099999999999937
21
-92.3259999999999934
0
LINE
8
LYELLOW
6
CONTINUOUS
10
88.75
20
-86.715999999999994
11
88.75
21
-92.2839999999999918
0
LINE
8
LYELLOW
6
CONTINUOUS
10
88.789999999999992
20
-86.7590000000000003
11
88.789999999999992
21
-92.2409999999999997
0
LINE
8
LYELLOW
6
CONTINUOUS
10
88.8299999999999983
20
-86.804000000000002
11
88.8299999999999983
21
-92.195999999999998
0
LINE
8
LYELLOW
6
CONTINUOUS
10
88.8699999999999903
20
-86.8489999999999895
11
88.8699999999999903
21
-92.1509999999999962
0
LINE
8
LYELLOW
6
CONTINUOUS
10
88.9099999999999966
20
-86.8960000000000008
11
88.9099999999999966
21
-92.1039999999999992
0
LINE
8
LYELLOW
6
CONTINUOUS
10
88.9500000000000028
20
-86.9449999999999932
11
88.9500000000000028
21
-92.0549999999999926
0
LINE
8
LYELLOW
6
CONTINUOUS
10
88.9899999999999949
20
-86.9949999999999903
11
88.9899999999999949
21
-92.0049999999999955
0
LINE
8
LYELLOW
6
CONTINUOUS
10
89.0300000000000011
20
-87.046999999999997
11
89.0300000000000011
21
-91.9529999999999887
0
LINE
8
LYELLOW
6
CONTINUOUS
10
89.0699999999999932
20
-87.0999999999999943
11
89.0699999999999932
21
-91.8999999999999915
0
LINE
8
LYELLOW
6
CONTINUOUS
10
89.1099999999999994
20
-87.1559999999999917
11
89.1099999999999994
21
-91.8439999999999941
0
LINE
8
LYELLOW
6
CONTINUOUS
10
89.1499999999999915
20
-87.2129999999999939
11
89.1499999999999915
21
-91.7869999999999919
0
LINE
8
LYELLOW
6
CONTINUOUS
10
89.1899999999999977
20
-87.2729999999999961
11
89.1899999999999977
21
-91.7269999999999897
0
LINE
8
LYELLOW
6
CONTINUOUS
10
89.2299999999999898
20
-87.3349999999999937
11
89.2299999999999898
21
-91.664999999999992
0
LINE
8
LYELLOW
6
CONTINUOUS
10
89.269999999999996
20
-87.3990000000000009
11
89.269999999999996
21
-91.6009999999999991
0
LINE
8
LYELLOW
6
CONTINUOUS
10
89.3100000000000023
20
-87.465999999999994
11
89.3100000000000023
21
-91.5339999999999918
0
LINE
8
LYELLOW
6
CONTINUOUS
10
89.3499999999999943
20
-87.5360000000000014
11
89.3499999999999943
21
-91.4639999999999986
0
LINE
8
LYELLOW
6
CONTINUOUS
10
89.3900000000000006
20
-87.6099999999999994
11
89.3900000000000006
21
-91.3900000000000006
0
LINE
8
LYELLOW
6
CONTINUOUS
10
89.4299999999999926
20
-87.6869999999999976
11
89.4299999999999926
21
-91.3130000000000024
0
LINE
8
LYELLOW
6
CONTINUOUS
10
89.4699999999999989
20
-87.7689999999999912
11
89.4699999999999989
21
-91.2309999999999945
0
LINE
8
LYELLOW
6
CONTINUOUS
10
89.5099999999999909
20
-87.8559999999999945
11
89.5099999999999909
21
-91.1439999999999912
0
LINE
8
LYELLOW
6
CONTINUOUS
10
89.5499999999999972
20
-87.9479999999999933
11
89.5499999999999972
21
-91.0519999999999925
0
LINE
8
LYELLOW
6
CONTINUOUS
10
89.5899999999999892
20
-88.046999999999997
11
89.5899999999999892
21
-90.953000000000003
0
LINE
8
LYELLOW
6
CONTINUOUS
10
89.6299999999999955
20
-88.1539999999999964
11
89.6299999999999955
21
-90.8459999999999894
0
LINE
8
LYELLOW
6
CONTINUOUS
10
89.6700000000000017
20
-88.2719999999999914
11
89.6700000000000017
21
-90.7279999999999944
0
LINE
8
LYELLOW
6
CONTINUOUS
10
89.7099999999999937
20
-88.4029999999999916
11
89.7099999999999937
21
-90.5969999999999942
0
LINE
8
LYELLOW
6
CONTINUOUS
10
89.75
20
-88.5529999999999973
11
89.75
21
-90.4470000000000027
0
LINE
8
LYELLOW
6
CONTINUOUS
10
89.789999999999992
20
-88.7319999999999993
11
89.789999999999992
21
-90.2680000000000007
0
LINE
8
LYELLOW
6
CONTINUOUS
10
89.8299999999999983
20
-88.9669999999999987
11
89.8299999999999983
21
-90.0330000000000013
0
CIRCLE
8
LYELLOW
10
85.75
20
-89.5
40
4.1200000000000001
0
LINE
8
LYELLOW
6
CONTINUOUS
10
52.3499999999999943
20
-98.6400000000000006
11
62.5700000000000003
21
-98.6400000000000006
0
LINE
8
LYELLOW
6
CONTINUOUS
10
52.3499999999999943
20
-103.2599999999999909
11
52.3499999999999943
21
-98.6400000000000006
0
LINE
8
LYELLOW
6
CONTINUOUS
10
55.6099999999999994
20
-103.2599999999999909
11
55.6099999999999994
21
-101.8799999999999955
0
LINE
8
LYELLOW
6
CONTINUOUS
10
59.3099999999999952
20
-103.2599999999999909
11
59.3099999999999952
21
-101.8799999999999955
0
LINE
8
LYELLOW
6
CONTINUOUS
10
62.5700000000000003
20
-98.6400000000000006
11
62.5700000000000003
21
-103.2599999999999909
0
LINE
8
LYELLOW
6
CONTINUOUS
10
62.5700000000000003
20
-101.8799999999999955
11
52.3499999999999943
21
-101.8799999999999955
0
LINE
8
LYELLOW
6
CONTINUOUS
10
62.5700000000000003
20
-103.2599999999999909
11
52.3499999999999943
21
-103.2599999999999909
0
LINE
8
LYELLOW
6
CONTINUOUS
10
97.7299999999999898
20
-108.6299999999999955
11
104.269999999999996
21
-108.6299999999999955
0
LINE
8
LYELLOW
6
CONTINUOUS
10
97.7299999999999898
20
-108.9599999999999937
11
97.7299999999999898
21
-108.6299999999999955
0
LINE
8
LYELLOW
6
CONTINUOUS
10
97.7299999999999898
20
-111.039999999999992
11
97.7299999999999898
21
-111.3699999999999903
0
LINE
8
LYELLOW
6
CONTINUOUS
10
97.7299999999999898
20
-111.3699999999999903
11
104.269999999999996
21
-111.3699999999999903
0
LINE
8
LYELLOW
6
CONTINUOUS
10
104.269999999999996
20
-108.6299999999999955
11
104.269999999999996
21
-108.9599999999999937
0
LINE
8
LYELLOW
6
CONTINUOUS
10
104.269999999999996
20
-111.3699999999999903
11
104.269999999999996
21
-111.039999999999992
0
LINE
8
LYELLOW
6
CONTINUOUS
10
65.6199999999999903
20
-123.7609999999999957
11
65.6199999999999903
21
-122.3810000000000002
0
LINE
8
LYELLOW
6
CONTINUOUS
10
67.
20
-123.7609999999999957
11
65.6199999999999903
21
-123.7609999999999957
0
LINE
8
LYELLOW
6
CONTINUOUS
10
68.269999999999996
20
-121.0009999999999906
11
70.9200000000000017
21
-121.0009999999999906
0
LINE
8
LYELLOW
6
CONTINUOUS
10
68.269999999999996
20
-123.7609999999999957
11
68.269999999999996
21
-121.0009999999999906
0
LINE
8
LYELLOW
6
CONTINUOUS
10
68.269999999999996
20
-123.7609999999999957
11
70.9200000000000017
21
-123.7609999999999957
0
LINE
8
LYELLOW
6
CONTINUOUS
10
70.9200000000000017
20
-123.7609999999999957
11
70.9200000000000017
21
-121.0009999999999906
0
LINE
8
LYELLOW
6
CONTINUOUS
10
97.7599999999999909
20
-100.9499999999999886
11
98.7800000000000011
21
-100.9499999999999886
0
LINE
8
LYELLOW
6
CONTINUOUS
10
99.5600000000000023
20
-99.4799999999999898
11
99.5600000000000023
21
-102.4200000000000017
0
LINE
8
LYELLOW
6
CONTINUOUS
10
99.6799999999999926
20
-99.4799999999999898
11
99.6799999999999926
21
-102.4200000000000017
0
LINE
8
LYELLOW
6
CONTINUOUS
10
99.7999999999999972
20
-99.4799999999999898
11
99.7999999999999972
21
-102.4200000000000017
0
LINE
8
LYELLOW
6
CONTINUOUS
10
105.2399999999999949
20
-100.9499999999999886
11
104.2199999999999989
21
-100.9499999999999886
0
LINE
8
LYELLOW
6
CONTINUOUS
10
98.7800000000000011
20
-99.4799999999999898
11
104.2199999999999989
21
-99.4799999999999898
0
LINE
8
LYELLOW
6
CONTINUOUS
10
104.2199999999999989
20
-99.4799999999999898
11
104.2199999999999989
21
-102.4200000000000017
0
LINE
8
LYELLOW
6
CONTINUOUS
10
104.2199999999999989
20
-102.4200000000000017
11
98.7800000000000011
21
-102.4200000000000017
0
LINE
8
LYELLOW
6
CONTINUOUS
10
98.7800000000000011
20
-102.4200000000000017
11
98.7800000000000011
21
-99.4799999999999898
0
LINE
8
LYELLOW
6
CONTINUOUS
10
83.4633999999999929
20
-99.5799999999999983
11
88.703400000000002
21
-99.5799999999999983
0
LINE
8
LYELLOW
6
CONTINUOUS
10
83.4633999999999929
20
-99.9170000000000016
11
83.4633999999999929
21
-99.5799999999999983
0
LINE
8
LYELLOW
6
CONTINUOUS
10
83.4633999999999929
20
-102.3199999999999932
11
83.4633999999999929
21
-101.9829999999999899
0
LINE
8
LYELLOW
6
CONTINUOUS
10
88.703400000000002
20
-99.5799999999999983
11
88.703400000000002
21
-99.9170000000000016
0
LINE
8
LYELLOW
6
CONTINUOUS
10
88.703400000000002
20
-101.9829999999999899
11
88.703400000000002
21
-102.3199999999999932
0
LINE
8
LYELLOW
6
CONTINUOUS
10
88.703400000000002
20
-102.3199999999999932
11
83.4633999999999929
21
-102.3199999999999932
0
LINE
8
LYELLOW
6
CONTINUOUS
10
81.1343999999999994
20
-108.6299999999999955
11
87.6743999999999915
21
-108.6299999999999955
0
LINE
8
LYELLOW
6
CONTINUOUS
10
81.1343999999999994
20
-108.9599999999999937
11
81.1343999999999994
21
-108.6299999999999955
0
LINE
8
LYELLOW
6
CONTINUOUS
10
81.1343999999999994
20
-111.039999999999992
11
81.1343999999999994
21
-111.3699999999999903
0
LINE
8
LYELLOW
6
CONTINUOUS
10
81.1343999999999994
20
-111.3699999999999903
11
87.6743999999999915
21
-111.3699999999999903
0
LINE
8
LYELLOW
6
CONTINUOUS
10
87.6743999999999915
20
-108.6299999999999955
11
87.6743999999999915
21
-108.9599999999999937
0
LINE
8
LYELLOW
6
CONTINUOUS
10
87.6743999999999915
20
-111.3699999999999903
11
87.6743999999999915
21
-111.039999999999992
0
LINE
8
LYELLOW
6
CONTINUOUS
10
90.3799999999999955
20
-118.570999999999998
11
90.3799999999999955
21
-126.1909999999999883
0
LINE
8
LYELLOW
6
CONTINUOUS
10
90.3799999999999955
20
-126.1909999999999883
11
100.539999999999992
21
-126.1909999999999883
0
LINE
8
LYELLOW
6
CONTINUOUS
10
100.539999999999992
20
-118.570999999999998
11
90.3799999999999955
21
-118.570999999999998
0
LINE
8
LYELLOW
6
CONTINUOUS
10
100.539999999999992
20
-124.9209999999999923
11
90.3799999999999955
21
-124.9209999999999923
0
LINE
8
LYELLOW
6
CONTINUOUS
10
100.539999999999992
20
-126.1909999999999883
11
100.539999999999992
21
-118.570999999999998
0
LINE
8
LYELLOW
6
CONTINUOUS
10
113.9599999999999937
20
-105.4699999999999989
11
110.9829999999999899
21
-105.4699999999999989
0
LINE
8
LYELLOW
6
CONTINUOUS
10
113.9599999999999937
20
-105.5099999999999909
11
110.9909999999999997
21
-105.5099999999999909
0
LINE
8
LYELLOW
6
CONTINUOUS
10
113.9599999999999937
20
-105.5499999999999972
11
110.9979999999999905
21
-105.5499999999999972
0
LINE
8
LYELLOW
6
CONTINUOUS
10
113.9599999999999937
20
-105.5899999999999892
11
111.0069999999999908
21
-105.5899999999999892
0
LINE
8
LYELLOW
6
CONTINUOUS
10
113.9599999999999937
20
-105.6299999999999955
11
111.0150000000000006
21
-105.6299999999999955
0
LINE
8
LYELLOW
6
CONTINUOUS
10
113.9599999999999937
20
-105.6700000000000017
11
111.0240000000000009
21
-105.6700000000000017
0
LINE
8
LYELLOW
6
CONTINUOUS
10
113.9599999999999937
20
-105.7099999999999937
11
111.0330000000000013
21
-105.7099999999999937
0
LINE
8
LYELLOW
6
CONTINUOUS
10
113.9599999999999937
20
-105.75
11
111.0429999999999922
21
-105.75
0
LINE
8
LYELLOW
6
CONTINUOUS
10
113.9599999999999937
20
-105.789999999999992
11
111.0529999999999973
21
-105.789999999999992
0
LINE
8
LYELLOW
6
CONTINUOUS
10
113.9599999999999937
20
-105.8299999999999983
11
111.063999999999993
21
-105.8299999999999983
0
LINE
8
LYELLOW
6
CONTINUOUS
10
113.9599999999999937
20
-105.8699999999999903
11
111.0749999999999886
21
-105.8699999999999903
0
LINE
8
LYELLOW
6
CONTINUOUS
10
113.9599999999999937
20
-105.9099999999999966
11
111.0869999999999891
21
-105.9099999999999966
0
LINE
8
LYELLOW
6
CONTINUOUS
10
113.9599999999999937
20
-105.9499999999999886
11
111.0989999999999895
21
-105.9499999999999886
0
LINE
8
LYELLOW
6
CONTINUOUS
10
113.9599999999999937
20
-105.9899999999999949
11
111.11099999999999
21
-105.9899999999999949
0
LINE
8
LYELLOW
6
CONTINUOUS
10
113.9599999999999937
20
-106.0300000000000011
11
111.1239999999999952
21
-106.0300000000000011
0
LINE
8
LYELLOW
6
CONTINUOUS
10
113.9599999999999937
20
-106.0699999999999932
11
111.1370000000000005
21
-106.0699999999999932
0
LINE
8
LYELLOW
6
CONTINUOUS
10
113.9599999999999937
20
-106.1099999999999994
11
111.1509999999999962
21
-106.1099999999999994
0
LINE
8
LYELLOW
6
CONTINUOUS
10
113.9599999999999937
20
-106.1499999999999915
11
111.164999999999992
21
-106.1499999999999915
0
LINE
8
LYELLOW
6
CONTINUOUS
10
113.9599999999999937
20
-106.1899999999999977
11
111.1799999999999926
21
-106.1899999999999977
0
LINE
8
LYELLOW
6
CONTINUOUS
10
113.9599999999999937
20
-106.2299999999999898
11
111.1949999999999932
21
-106.2299999999999898
0
LINE
8
LYELLOW
6
CONTINUOUS
10
113.9599999999999937
20
-106.269999999999996
11
111.2109999999999985
21
-106.269999999999996
0
LINE
8
LYELLOW
6
CONTINUOUS
10
113.9599999999999937
20
-106.3100000000000023
11
111.2269999999999897
21
-106.3100000000000023
0
LINE
8
LYELLOW
6
CONTINUOUS
10
113.9599999999999937
20
-106.3499999999999943
11
111.242999999999995
21
-106.3499999999999943
0
LINE
8
LYELLOW
6
CONTINUOUS
10
113.9599999999999937
20
-106.3900000000000006
11
111.2599999999999909
21
-106.3900000000000006
0
LINE
8
LYELLOW
6
CONTINUOUS
10
113.9599999999999937
20
-106.4299999999999926
11
111.2779999999999916
21
-106.4299999999999926
0
LINE
8
LYELLOW
6
CONTINUOUS
10
113.9599999999999937
20
-106.4699999999999989
11
111.2959999999999923
21
-106.4699999999999989
0
LINE
8
LYELLOW
6
CONTINUOUS
10
113.9599999999999937
20
-106.5099999999999909
11
111.3149999999999977
21
-106.5099999999999909
0
LINE
8
LYELLOW
6
CONTINUOUS
10
113.9599999999999937
20
-106.5499999999999972
11
111.333999999999989
21
-106.5499999999999972
0
LINE
8
LYELLOW
6
CONTINUOUS
10
113.9599999999999937
20
-106.5899999999999892
11
111.3539999999999992
21
-106.5899999999999892
0
LINE
8
LYELLOW
6
CONTINUOUS
10
113.9599999999999937
20
-106.6299999999999955
11
111.3739999999999952
21
-106.6299999999999955
0
LINE
8
LYELLOW
6
CONTINUOUS
10
113.9599999999999937
20
-106.6700000000000017
11
111.394999999999996
21
-106.6700000000000017
0
LINE
8
LYELLOW
6
CONTINUOUS
10
113.9599999999999937
20
-106.7099999999999937
11
111.4159999999999968
21
-106.7099999999999937
0
LINE
8
LYELLOW
6
CONTINUOUS
10
113.9599999999999937
20
-106.75
11
111.4379999999999882
21
-106.75
0
LINE
8
LYELLOW
6
CONTINUOUS
10
113.9599999999999937
20
-106.789999999999992
11
111.4609999999999985
21
-106.789999999999992
0
LINE
8
LYELLOW
6
CONTINUOUS
10
113.9599999999999937
20
-106.8299999999999983
11
111.4839999999999947
21
-106.8299999999999983
0
LINE
8
LYELLOW
6
CONTINUOUS
10
113.9599999999999937
20
-106.8699999999999903
11
111.5069999999999908
21
-106.8699999999999903
0
LINE
8
LYELLOW
6
CONTINUOUS
10
113.9599999999999937
20
-106.9099999999999966
11
111.5319999999999965
21
-106.9099999999999966
0
LINE
8
LYELLOW
6
CONTINUOUS
10
113.9599999999999937
20
-106.9499999999999886
11
111.5569999999999879
21
-106.9499999999999886
0
LINE
8
LYELLOW
6
CONTINUOUS
10
113.9599999999999937
20
-106.9899999999999949
11
111.5819999999999936
21
-106.9899999999999949
0
LINE
8
LYELLOW
6
CONTINUOUS
10
113.9599999999999937
20
-107.0300000000000011
11
111.6079999999999899
21
-107.0300000000000011
0
LINE
8
LYELLOW
6
CONTINUOUS
10
113.9599999999999937
20
-107.0699999999999932
11
111.6349999999999909
21
-107.0699999999999932
0
LINE
8
LYELLOW
6
CONTINUOUS
10
113.9599999999999937
20
-107.1099999999999994
11
111.6629999999999967
21
-107.1099999999999994
0
LINE
8
LYELLOW
6
CONTINUOUS
10
113.9599999999999937
20
-107.1499999999999915
11
111.6909999999999883
21
-107.1499999999999915
0
LINE
8
LYELLOW
6
CONTINUOUS
10
113.9599999999999937
20
-107.1899999999999977
11
111.7199999999999989
21
-107.1899999999999977
0
LINE
8
LYELLOW
6
CONTINUOUS
10
113.9599999999999937
20
-107.2299999999999898
11
111.75
21
-107.2299999999999898
0
LINE
8
LYELLOW
6
CONTINUOUS
10
113.9599999999999937
20
-107.269999999999996
11
111.7809999999999917
21
-107.269999999999996
0
LINE
8
LYELLOW
6
CONTINUOUS
10
113.9599999999999937
20
-107.3099999999999881
11
111.8119999999999976
21
-107.3099999999999881
0
LINE
8
LYELLOW
6
CONTINUOUS
10
113.9599999999999937
20
-107.3499999999999943
11
111.8439999999999941
21
-107.3499999999999943
0
LINE
8
LYELLOW
6
CONTINUOUS
10
113.9599999999999937
20
-107.3900000000000006
11
111.8769999999999953
21
-107.3900000000000006
0
LINE
8
LYELLOW
6
CONTINUOUS
10
113.9599999999999937
20
-107.4299999999999926
11
111.9110000000000014
21
-107.4299999999999926
0
LINE
8
LYELLOW
6
CONTINUOUS
10
113.9599999999999937
20
-107.4699999999999989
11
111.9449999999999932
21
-107.4699999999999989
0
LINE
8
LYELLOW
6
CONTINUOUS
10
113.9599999999999937
20
-107.5099999999999909
11
111.9809999999999945
21
-107.5099999999999909
0
LINE
8
LYELLOW
6
CONTINUOUS
10
115.5330000000000013
20
-108.8299999999999983
11
114.4669999999999987
21
-108.8299999999999983
0
LINE
8
LYELLOW
6
CONTINUOUS
10
115.7680000000000007
20
-108.789999999999992
11
114.2319999999999993
21
-108.789999999999992
0
LINE
8
LYELLOW
6
CONTINUOUS
10
115.9469999999999885
20
-108.75
11
114.0529999999999973
21
-108.75
0
LINE
8
LYELLOW
6
CONTINUOUS
10
116.0969999999999942
20
-108.7099999999999937
11
113.9029999999999916
21
-108.7099999999999937
0
LINE
8
LYELLOW
6
CONTINUOUS
10
116.2279999999999944
20
-108.6700000000000017
11
113.7719999999999914
21
-108.6700000000000017
0
LINE
8
LYELLOW
6
CONTINUOUS
10
116.3459999999999894
20
-108.6299999999999955
11
113.6539999999999964
21
-108.6299999999999955
0
LINE
8
LYELLOW
6
CONTINUOUS
10
116.4529999999999887
20
-108.5899999999999892
11
113.546999999999997
21
-108.5899999999999892
0
LINE
8
LYELLOW
6
CONTINUOUS
10
116.5519999999999925
20
-108.5499999999999972
11
113.4479999999999933
21
-108.5499999999999972
0
LINE
8
LYELLOW
6
CONTINUOUS
10
116.6439999999999912
20
-108.5099999999999909
11
113.3559999999999945
21
-108.5099999999999909
0
LINE
8
LYELLOW
6
CONTINUOUS
10
116.7309999999999945
20
-108.4699999999999989
11
113.2689999999999912
21
-108.4699999999999989
0
LINE
8
LYELLOW
6
CONTINUOUS
10
116.8129999999999882
20
-108.4299999999999926
11
113.1869999999999976
21
-108.4299999999999926
0
LINE
8
LYELLOW
6
CONTINUOUS
10
116.8900000000000006
20
-108.3900000000000006
11
113.1099999999999994
21
-108.3900000000000006
0
LINE
8
LYELLOW
6
CONTINUOUS
10
116.9639999999999986
20
-108.3499999999999943
11
113.0360000000000014
21
-108.3499999999999943
0
LINE
8
LYELLOW
6
CONTINUOUS
10
117.0339999999999918
20
-108.3099999999999881
11
112.965999999999994
21
-108.3099999999999881
0
LINE
8
LYELLOW
6
CONTINUOUS
10
117.1009999999999991
20
-108.269999999999996
11
112.8990000000000009
21
-108.269999999999996
0
LINE
8
LYELLOW
6
CONTINUOUS
10
117.164999999999992
20
-108.2299999999999898
11
112.8349999999999937
21
-108.2299999999999898
0
LINE
8
LYELLOW
6
CONTINUOUS
10
117.2269999999999897
20
-108.1899999999999977
11
112.7729999999999961
21
-108.1899999999999977
0
LINE
8
LYELLOW
6
CONTINUOUS
10
117.2869999999999919
20
-108.1499999999999915
11
112.7129999999999939
21
-108.1499999999999915
0
LINE
8
LYELLOW
6
CONTINUOUS
10
117.3149999999999977
20
-100.3403019999999941
11
117.3149999999999977
21
-101.1403019999999913
0
LINE
8
LYELLOW
6
CONTINUOUS
10
117.3439999999999941
20
-108.1099999999999994
11
112.6559999999999917
21
-108.1099999999999994
0
LINE
8
LYELLOW
6
CONTINUOUS
10
117.3999999999999915
20
-108.0699999999999932
11
112.5999999999999943
21
-108.0699999999999932
0
LINE
8
LYELLOW
6
CONTINUOUS
10
117.4529999999999887
20
-108.0300000000000011
11
112.546999999999997
21
-108.0300000000000011
0
LINE
8
LYELLOW
6
CONTINUOUS
10
117.5049999999999955
20
-107.9899999999999949
11
112.4949999999999903
21
-107.9899999999999949
0
LINE
8
LYELLOW
6
CONTINUOUS
10
117.5549999999999926
20
-107.9499999999999886
11
112.4449999999999932
21
-107.9499999999999886
0
LINE
8
LYELLOW
6
CONTINUOUS
10
117.6039999999999992
20
-107.9099999999999966
11
112.3960000000000008
21
-107.9099999999999966
0
LINE
8
LYELLOW
6
CONTINUOUS
10
117.6509999999999962
20
-107.8699999999999903
11
112.3489999999999895
21
-107.8699999999999903
0
LINE
8
LYELLOW
6
CONTINUOUS
10
117.695999999999998
20
-107.8299999999999983
11
112.3039999999999878
21
-107.8299999999999983
0
LINE
8
LYELLOW
6
CONTINUOUS
10
117.7149999999999892
20
-100.7403019999999998
11
116.914999999999992
21
-100.7403019999999998
0
LINE
8
LYELLOW
6
CONTINUOUS
10
117.7409999999999997
20
-107.789999999999992
11
112.2590000000000003
21
-107.789999999999992
0
LINE
8
LYELLOW
6
CONTINUOUS
10
117.7839999999999918
20
-107.75
11
112.215999999999994
21
-107.75
0
LINE
8
LYELLOW
6
CONTINUOUS
10
117.8259999999999934
20
-107.7099999999999937
11
112.1739999999999924
21
-107.7099999999999937
0
LINE
8
LYELLOW
6
CONTINUOUS
10
117.8669999999999902
20
-107.6700000000000017
11
112.1329999999999956
21
-107.6700000000000017
0
LINE
8
LYELLOW
6
CONTINUOUS
10
117.9059999999999917
20
-107.6299999999999955
11
112.0939999999999941
21
-107.6299999999999955
0
LINE
8
LYELLOW
6
CONTINUOUS
10
117.9449999999999932
20
-107.5899999999999892
11
112.0549999999999926
21
-107.5899999999999892
0
LINE
8
LYELLOW
6
CONTINUOUS
10
117.9819999999999993
20
-107.5499999999999972
11
112.0180000000000007
21
-107.5499999999999972
0
LINE
8
LYELLOW
6
CONTINUOUS
10
118.0189999999999912
20
-107.5099999999999909
11
116.039999999999992
21
-107.5099999999999909
0
LINE
8
LYELLOW
6
CONTINUOUS
10
118.0549999999999926
20
-107.4699999999999989
11
116.039999999999992
21
-107.4699999999999989
0
LINE
8
LYELLOW
6
CONTINUOUS
10
118.0889999999999986
20
-107.4299999999999926
11
116.039999999999992
21
-107.4299999999999926
0
LINE
8
LYELLOW
6
CONTINUOUS
10
118.1229999999999905
20
-107.3900000000000006
11
116.039999999999992
21
-107.3900000000000006
0
LINE
8
LYELLOW
6
CONTINUOUS
10
118.1559999999999917
20
-107.3499999999999943
11
116.039999999999992
21
-107.3499999999999943
0
LINE
8
LYELLOW
6
CONTINUOUS
10
118.1879999999999882
20
-107.3099999999999881
11
116.039999999999992
21
-107.3099999999999881
0
LINE
8
LYELLOW
6
CONTINUOUS
10
118.2189999999999941
20
-107.269999999999996
11
116.039999999999992
21
-107.269999999999996
0
LINE
8
LYELLOW
6
CONTINUOUS
10
118.25
20
-107.2299999999999898
11
116.039999999999992
21
-107.2299999999999898
0
LINE
8
LYELLOW
6
CONTINUOUS
10
118.2800000000000011
20
-107.1899999999999977
11
116.039999999999992
21
-107.1899999999999977
0
LINE
8
LYELLOW
6
CONTINUOUS
10
118.3089999999999975
20
-107.1499999999999915
11
116.039999999999992
21
-107.1499999999999915
0
LINE
8
LYELLOW
6
CONTINUOUS
10
118.3369999999999891
20
-107.1099999999999994
11
116.039999999999992
21
-107.1099999999999994
0
LINE
8
LYELLOW
6
CONTINUOUS
10
118.3649999999999949
20
-107.0699999999999932
11
116.039999999999992
21
-107.0699999999999932
0
LINE
8
LYELLOW
6
CONTINUOUS
10
118.3919999999999959
20
-107.0300000000000011
11
116.039999999999992
21
-107.0300000000000011
0
LINE
8
LYELLOW
6
CONTINUOUS
10
118.4179999999999922
20
-106.9899999999999949
11
116.039999999999992
21
-106.9899999999999949
0
LINE
8
LYELLOW
6
CONTINUOUS
10
118.4429999999999978
20
-106.9499999999999886
11
116.039999999999992
21
-106.9499999999999886
0
LINE
8
LYELLOW
6
CONTINUOUS
10
118.4679999999999893
20
-106.9099999999999966
11
116.039999999999992
21
-106.9099999999999966
0
LINE
8
LYELLOW
6
CONTINUOUS
10
118.492999999999995
20
-106.8699999999999903
11
116.039999999999992
21
-106.8699999999999903
0
LINE
8
LYELLOW
6
CONTINUOUS
10
118.5159999999999911
20
-106.8299999999999983
11
116.039999999999992
21
-106.8299999999999983
0
LINE
8
LYELLOW
6
CONTINUOUS
10
118.5390000000000015
20
-106.789999999999992
11
116.039999999999992
21
-106.789999999999992
0
LINE
8
LYELLOW
6
CONTINUOUS
10
118.5619999999999976
20
-106.75
11
116.039999999999992
21
-106.75
0
LINE
8
LYELLOW
6
CONTINUOUS
10
118.583999999999989
20
-106.7099999999999937
11
116.039999999999992
21
-106.7099999999999937
0
LINE
8
LYELLOW
6
CONTINUOUS
10
118.6049999999999898
20
-106.6700000000000017
11
116.039999999999992
21
-106.6700000000000017
0
LINE
8
LYELLOW
6
CONTINUOUS
10
118.6259999999999906
20
-106.6299999999999955
11
116.039999999999992
21
-106.6299999999999955
0
LINE
8
LYELLOW
6
CONTINUOUS
10
118.6460000000000008
20
-106.5899999999999892
11
116.039999999999992
21
-106.5899999999999892
0
LINE
8
LYELLOW
6
CONTINUOUS
10
118.6659999999999968
20
-106.5499999999999972
11
116.039999999999992
21
-106.5499999999999972
0
LINE
8
LYELLOW
6
CONTINUOUS
10
118.6849999999999881
20
-106.5099999999999909
11
116.039999999999992
21
-106.5099999999999909
0
LINE
8
LYELLOW
6
CONTINUOUS
10
118.7039999999999935
20
-106.4699999999999989
11
116.039999999999992
21
-106.4699999999999989
0
LINE
8
LYELLOW
6
CONTINUOUS
10
118.7219999999999942
20
-106.4299999999999926
11
116.039999999999992
21
-106.4299999999999926
0
LINE
8
LYELLOW
6
CONTINUOUS
10
118.7399999999999949
20
-106.3900000000000006
11
116.039999999999992
21
-106.3900000000000006
0
LINE
8
LYELLOW
6
CONTINUOUS
10
118.7569999999999908
20
-106.3499999999999943
11
116.039999999999992
21
-106.3499999999999943
0
LINE
8
LYELLOW
6
CONTINUOUS
10
118.7729999999999961
20
-106.3100000000000023
11
116.039999999999992
21
-106.3100000000000023
0
LINE
8
LYELLOW
6
CONTINUOUS
10
118.7890000000000015
20
-106.269999999999996
11
116.039999999999992
21
-106.269999999999996
0
LINE
8
LYELLOW
6
CONTINUOUS
10
118.8049999999999926
20
-106.2299999999999898
11
116.039999999999992
21
-106.2299999999999898
0
LINE
8
LYELLOW
6
CONTINUOUS
10
118.8199999999999932
20
-106.1899999999999977
11
116.039999999999992
21
-106.1899999999999977
0
LINE
8
LYELLOW
6
CONTINUOUS
10
118.8349999999999937
20
-106.1499999999999915
11
116.039999999999992
21
-106.1499999999999915
0
LINE
8
LYELLOW
6
CONTINUOUS
10
118.8489999999999895
20
-106.1099999999999994
11
116.039999999999992
21
-106.1099999999999994
0
LINE
8
LYELLOW
6
CONTINUOUS
10
118.8629999999999995
20
-106.0699999999999932
11
116.039999999999992
21
-106.0699999999999932
0
LINE
8
LYELLOW
6
CONTINUOUS
10
118.8759999999999906
20
-106.0300000000000011
11
116.039999999999992
21
-106.0300000000000011
0
LINE
8
LYELLOW
6
CONTINUOUS
10
118.8889999999999958
20
-105.9899999999999949
11
116.039999999999992
21
-105.9899999999999949
0
LINE
8
LYELLOW
6
CONTINUOUS
10
118.9009999999999962
20
-105.9499999999999886
11
116.039999999999992
21
-105.9499999999999886
0
LINE
8
LYELLOW
6
CONTINUOUS
10
118.9129999999999967
20
-105.9099999999999966
11
116.039999999999992
21
-105.9099999999999966
0
LINE
8
LYELLOW
6
CONTINUOUS
10
118.9249999999999972
20
-105.8699999999999903
11
116.039999999999992
21
-105.8699999999999903
0
LINE
8
LYELLOW
6
CONTINUOUS
10
118.9359999999999928
20
-105.8299999999999983
11
116.039999999999992
21
-105.8299999999999983
0
LINE
8
LYELLOW
6
CONTINUOUS
10
118.9469999999999885
20
-105.789999999999992
11
116.039999999999992
21
-105.789999999999992
0
LINE
8
LYELLOW
6
CONTINUOUS
10
118.9569999999999936
20
-105.75
11
116.039999999999992
21
-105.75
0
LINE
8
LYELLOW
6
CONTINUOUS
10
118.9669999999999987
20
-105.7099999999999937
11
116.039999999999992
21
-105.7099999999999937
0
LINE
8
LYELLOW
6
CONTINUOUS
10
118.9759999999999991
20
-105.6700000000000017
11
116.039999999999992
21
-105.6700000000000017
0
LINE
8
LYELLOW
6
CONTINUOUS
10
118.9849999999999994
20
-105.6299999999999955
11
116.039999999999992
21
-105.6299999999999955
0
LINE
8
LYELLOW
6
CONTINUOUS
10
118.992999999999995
20
-105.5899999999999892
11
116.039999999999992
21
-105.5899999999999892
0
LINE
8
LYELLOW
6
CONTINUOUS
10
119.0019999999999953
20
-105.5499999999999972
11
116.039999999999992
21
-105.5499999999999972
0
LINE
8
LYELLOW
6
CONTINUOUS
10
119.0090000000000003
20
-105.5099999999999909
11
116.039999999999992
21
-105.5099999999999909
0
LINE
8
LYELLOW
6
CONTINUOUS
10
119.0169999999999959
20
-105.4699999999999989
11
116.039999999999992
21
-105.4699999999999989
0
LINE
8
LYELLOW
6
CONTINUOUS
10
119.0229999999999961
20
-105.4299999999999926
11
110.9769999999999897
21
-105.4299999999999926
0
LINE
8
LYELLOW
6
CONTINUOUS
10
119.0300000000000011
20
-105.3900000000000006
11
110.9699999999999989
21
-105.3900000000000006
0
LINE
8
LYELLOW
6
CONTINUOUS
10
119.0360000000000014
20
-105.3499999999999943
11
110.9639999999999986
21
-105.3499999999999943
0
LINE
8
LYELLOW
6
CONTINUOUS
10
119.0420000000000016
20
-105.3100000000000023
11
110.9579999999999984
21
-105.3100000000000023
0
LINE
8
LYELLOW
6
CONTINUOUS
10
119.046999999999997
20
-105.269999999999996
11
110.9529999999999887
21
-105.269999999999996
0
LINE
8
LYELLOW
6
CONTINUOUS
10
119.0519999999999925
20
-105.2299999999999898
11
110.9479999999999933
21
-105.2299999999999898
0
LINE
8
LYELLOW
6
CONTINUOUS
10
119.0559999999999974
20
-105.1899999999999977
11
110.9439999999999884
21
-105.1899999999999977
0
LINE
8
LYELLOW
6
CONTINUOUS
10
119.0609999999999928
20
-105.1499999999999915
11
110.938999999999993
21
-105.1499999999999915
0
LINE
8
LYELLOW
6
CONTINUOUS
10
119.063999999999993
20
-105.1099999999999994
11
110.9359999999999928
21
-105.1099999999999994
0
LINE
8
LYELLOW
6
CONTINUOUS
10
119.0679999999999978
20
-105.0699999999999932
11
110.9319999999999879
21
-105.0699999999999932
0
LINE
8
LYELLOW
6
CONTINUOUS
10
119.0699999999999932
20
-105.0300000000000011
11
110.9299999999999926
21
-105.0300000000000011
0
LINE
8
LYELLOW
6
CONTINUOUS
10
119.0729999999999933
20
-104.9899999999999949
11
110.9269999999999925
21
-104.9899999999999949
0
LINE
8
LYELLOW
6
CONTINUOUS
10
119.0749999999999886
20
-104.9499999999999886
11
110.9249999999999972
21
-104.9499999999999886
0
LINE
8
LYELLOW
6
CONTINUOUS
10
119.0769999999999982
20
-104.9099999999999966
11
110.9230000000000018
21
-104.9099999999999966
0
LINE
8
LYELLOW
6
CONTINUOUS
10
119.0779999999999887
20
-104.8699999999999903
11
110.921999999999997
21
-104.8699999999999903
0
LINE
8
LYELLOW
6
CONTINUOUS
10
119.0789999999999935
20
-104.8299999999999983
11
110.9209999999999923
21
-104.8299999999999983
0
LINE
8
LYELLOW
6
CONTINUOUS
10
119.0799999999999983
20
-104.75
11
110.9200000000000017
21
-104.75
0
LINE
8
LYELLOW
6
CONTINUOUS
10
119.0799999999999983
20
-104.789999999999992
11
110.9200000000000017
21
-104.789999999999992
0
CIRCLE
8
LYELLOW
10
115.
20
-104.75
40
4.1200000000000001
0
LINE
8
LYELLOW
6
CONTINUOUS
10
66.7599999999999909
20
-100.9499999999999886
11
67.7800000000000011
21
-100.9499999999999886
0
LINE
8
LYELLOW
6
CONTINUOUS
10
72.2000000000000028
20
-102.4200000000000017
11
72.2000000000000028
21
-99.4799999999999898
0
LINE
8
LYELLOW
6
CONTINUOUS
10
72.3199999999999932
20
-102.4200000000000017
11
72.3199999999999932
21
-99.4799999999999898
0
LINE
8
LYELLOW
6
CONTINUOUS
10
72.4399999999999977
20
-102.4200000000000017
11
72.4399999999999977
21
-99.4799999999999898
0
LINE
8
LYELLOW
6
CONTINUOUS
10
74.2399999999999949
20
-100.9499999999999886
11
73.2199999999999989
21
-100.9499999999999886
0
LINE
8
LYELLOW
6
CONTINUOUS
10
73.2199999999999989
20
-102.4200000000000017
11
67.7800000000000011
21
-102.4200000000000017
0
LINE
8
LYELLOW
6
CONTINUOUS
10
67.7800000000000011
20
-102.4200000000000017
11
67.7800000000000011
21
-99.4799999999999898
0
LINE
8
LYELLOW
6
CONTINUOUS
10
67.7800000000000011
20
-99.4799999999999898
11
73.2199999999999989
21
-99.4799999999999898
0
LINE
8
LYELLOW
6
CONTINUOUS
10
73.2199999999999989
20
-99.4799999999999898
11
73.2199999999999989
21
-102.4200000000000017
0
LINE
8
LYELLOW
6
CONTINUOUS
10
94.9699999999999989
20
-85.9399999999999977
11
94.9699999999999989
21
-87.1899999999999977
0
LINE
8
LYELLOW
6
CONTINUOUS
10
94.9699999999999989
20
-89.1899999999999977
11
94.9699999999999989
21
-90.4399999999999977
0
LINE
8
LYELLOW
6
CONTINUOUS
10
94.9699999999999989
20
-90.4399999999999977
11
112.8699999999999903
21
-90.4399999999999977
0
LINE
8
LYELLOW
6
CONTINUOUS
10
112.8699999999999903
20
-85.9399999999999977
11
94.9699999999999989
21
-85.9399999999999977
0
LINE
8
LYELLOW
6
CONTINUOUS
10
112.8699999999999903
20
-90.4399999999999977
11
112.8699999999999903
21
-85.9399999999999977
0
ARC
8
LYELLOW
10
94.9699999999999989
20
-88.1899999999999977
40
1.
50
-90.00000000
51
90.00000000
0
LINE
8
LYELLOW
6
CONTINUOUS
10
105.7158999999999907
20
-118.570999999999998
11
105.7158999999999907
21
-126.1909999999999883
0
LINE
8
LYELLOW
6
CONTINUOUS
10
105.7158999999999907
20
-119.840999999999994
11
115.8759000000000015
21
-119.840999999999994
0
LINE
8
LYELLOW
6
CONTINUOUS
10
105.7158999999999907
20
-126.1909999999999883
11
115.8759000000000015
21
-126.1909999999999883
0
LINE
8
LYELLOW
6
CONTINUOUS
10
115.8759000000000015
20
-118.570999999999998
11
105.7158999999999907
21
-118.570999999999998
0
LINE
8
LYELLOW
6
CONTINUOUS
10
115.8759000000000015
20
-126.1909999999999883
11
115.8759000000000015
21
-118.570999999999998
0
LINE
8
LYELLOW
6
CONTINUOUS
10
53.9489999999999981
20
-108.6299999999999955
11
53.9489999999999981
21
-108.9599999999999937
0
LINE
8
LYELLOW
6
CONTINUOUS
10
53.9489999999999981
20
-111.3699999999999903
11
53.9489999999999981
21
-111.039999999999992
0
LINE
8
LYELLOW
6
CONTINUOUS
10
60.4889999999999972
20
-108.6299999999999955
11
53.9489999999999981
21
-108.6299999999999955
0
LINE
8
LYELLOW
6
CONTINUOUS
10
60.4889999999999972
20
-108.9599999999999937
11
60.4889999999999972
21
-108.6299999999999955
0
LINE
8
LYELLOW
6
CONTINUOUS
10
60.4889999999999972
20
-111.039999999999992
11
60.4889999999999972
21
-111.3699999999999903
0
LINE
8
LYELLOW
6
CONTINUOUS
10
60.4889999999999972
20
-111.3699999999999903
11
53.9489999999999981
21
-111.3699999999999903
0
LINE
8
LYELLOW
6
CONTINUOUS
10
69.1589999999999918
20
-108.6299999999999955
11
75.6989999999999981
21
-108.6299999999999955
0
LINE
8
LYELLOW
6
CONTINUOUS
10
69.1589999999999918
20
-108.9599999999999937
11
69.1589999999999918
21
-108.6299999999999955
0
LINE
8
LYELLOW
6
CONTINUOUS
10
69.1589999999999918
20
-111.039999999999992
11
69.1589999999999918
21
-111.3699999999999903
0
LINE
8
LYELLOW
6
CONTINUOUS
10
69.1589999999999918
20
-111.3699999999999903
11
75.6989999999999981
21
-111.3699999999999903
0
LINE
8
LYELLOW
6
CONTINUOUS
10
75.6989999999999981
20
-108.6299999999999955
11
75.6989999999999981
21
-108.9599999999999937
0
LINE
8
LYELLOW
6
CONTINUOUS
10
75.6989999999999981
20
-111.3699999999999903
11
75.6989999999999981
21
-111.039999999999992
0
LINE
8
LYELLOW
6
CONTINUOUS
10
78.25
20
-118.5109999999999957
11
78.25
21
-126.2509999999999906
0
LINE
8
LYELLOW
6
CONTINUOUS
10
78.25
20
-126.2509999999999906
11
82.75
21
-126.2509999999999906
0
LINE
8
LYELLOW
6
CONTINUOUS
10
79.5
20
-118.5109999999999957
11
78.25
21
-118.5109999999999957
0
LINE
8
LYELLOW
6
CONTINUOUS
10
82.75
20
-118.5109999999999957
11
81.5
21
-118.5109999999999957
0
LINE
8
LYELLOW
6
CONTINUOUS
10
82.75
20
-126.2509999999999906
11
82.75
21
-118.5109999999999957
0
ARC
8
LYELLOW
10
80.5
20
-118.5109999999999957
40
1.
50
-180.00000000
51
-0.00000000
0
LINE
8
LYELLOW
6
CONTINUOUS
10
40.1299999999999955
20
-67.8799999999999955
11
74.8699999999999903
21
-67.8799999999999955
0
LINE
8
LYELLOW
6
CONTINUOUS
10
74.8699999999999903
20
-67.8799999999999955
11
74.8699999999999903
21
-83.1199999999999903
0
LINE
8
LYELLOW
6
CONTINUOUS
10
74.8699999999999903
20
-83.1199999999999903
11
40.1299999999999955
21
-83.1199999999999903
0
LINE
8
LYELLOW
6
CONTINUOUS
10
40.1299999999999955
20
-83.1199999999999903
11
40.1299999999999955
21
-67.8799999999999955
0
LINE
8
LYELLOW
6
CONTINUOUS
10
52.4199999999999946
20
-118.570999999999998
11
52.4199999999999946
21
-126.1909999999999883
0
LINE
8
LYELLOW
6
CONTINUOUS
10
52.4199999999999946
20
-126.1909999999999883
11
62.5799999999999983
21
-126.1909999999999883
0
LINE
8
LYELLOW
6
CONTINUOUS
10
62.5799999999999983
20
-118.570999999999998
11
52.4199999999999946
21
-118.570999999999998
0
LINE
8
LYELLOW
6
CONTINUOUS
10
62.5799999999999983
20
-124.9209999999999923
11
52.4199999999999946
21
-124.9209999999999923
0
LINE
8
LYELLOW
6
CONTINUOUS
10
62.5799999999999983
20
-126.1909999999999883
11
62.5799999999999983
21
-118.570999999999998
0
LINE
8
WHITE
6
CONTINUOUS
10
128.635881999999981
20
-134.2810039999999958
11
36.5
21
-134.2810039999999958
0
ARC
8
WHITE
10
128.6358999999999924
20
-54.5
40
5.0000000000323999
50
0.00000000
51
90.00020626
0
LINE
8
WHITE
6
CONTINUOUS
10
36.5
20
-49.5
11
128.635881999999981
21
-49.5
0
ARC
8
WHITE
10
128.6358999999999924
20
-129.2810000000000059
40
4.9999820000015998
50
-90.00020626
51
-0.00004584
0
ARC
8
WHITE
10
36.5
20
-54.5
40
5.
50
90.00000000
51
180.00000000
0
LINE
8
WHITE
6
CONTINUOUS
10
133.635881999999981
20
-54.5
11
133.635881999999981
21
-129.2810039999999958
0
LINE
8
WHITE
6
CONTINUOUS
10
31.5
20
-129.2810039999999958
11
31.5
21
-54.5
0
ARC
8
WHITE
10
36.5
20
-129.2810000000000059
40
5.0000039999999997
50
-179.99995416
51
-90.00000000
  0
ENDSEC
  0
EOF
