%TF.GenerationSoftware,KiCad,Pcbnew,9.0.6*%
%TF.CreationDate,2026-06-10T07:56:56+02:00*%
%TF.ProjectId,mppt,6d707074-2e6b-4696-9361-645f70636258,rev?*%
%TF.SameCoordinates,Original*%
%TF.FileFunction,AssemblyDrawing,Top*%
%FSLAX46Y46*%
G04 Gerber Fmt 4.6, Leading zero omitted, Abs format (unit mm)*
G04 Created by KiCad (PCBNEW 9.0.6) date 2026-06-10 07:56:56*
%MOMM*%
%LPD*%
G01*
G04 APERTURE LIST*
%ADD10C,0.150000*%
%ADD11C,0.120000*%
%ADD12C,0.100000*%
G04 APERTURE END LIST*
D10*
X94880952Y-72954819D02*
X94309524Y-72954819D01*
X94595238Y-72954819D02*
X94595238Y-71954819D01*
X94595238Y-71954819D02*
X94500000Y-72097676D01*
X94500000Y-72097676D02*
X94404762Y-72192914D01*
X94404762Y-72192914D02*
X94309524Y-72240533D01*
X95500000Y-71954819D02*
X95595238Y-71954819D01*
X95595238Y-71954819D02*
X95690476Y-72002438D01*
X95690476Y-72002438D02*
X95738095Y-72050057D01*
X95738095Y-72050057D02*
X95785714Y-72145295D01*
X95785714Y-72145295D02*
X95833333Y-72335771D01*
X95833333Y-72335771D02*
X95833333Y-72573866D01*
X95833333Y-72573866D02*
X95785714Y-72764342D01*
X95785714Y-72764342D02*
X95738095Y-72859580D01*
X95738095Y-72859580D02*
X95690476Y-72907200D01*
X95690476Y-72907200D02*
X95595238Y-72954819D01*
X95595238Y-72954819D02*
X95500000Y-72954819D01*
X95500000Y-72954819D02*
X95404762Y-72907200D01*
X95404762Y-72907200D02*
X95357143Y-72859580D01*
X95357143Y-72859580D02*
X95309524Y-72764342D01*
X95309524Y-72764342D02*
X95261905Y-72573866D01*
X95261905Y-72573866D02*
X95261905Y-72335771D01*
X95261905Y-72335771D02*
X95309524Y-72145295D01*
X95309524Y-72145295D02*
X95357143Y-72050057D01*
X95357143Y-72050057D02*
X95404762Y-72002438D01*
X95404762Y-72002438D02*
X95500000Y-71954819D01*
X96452381Y-71954819D02*
X96547619Y-71954819D01*
X96547619Y-71954819D02*
X96642857Y-72002438D01*
X96642857Y-72002438D02*
X96690476Y-72050057D01*
X96690476Y-72050057D02*
X96738095Y-72145295D01*
X96738095Y-72145295D02*
X96785714Y-72335771D01*
X96785714Y-72335771D02*
X96785714Y-72573866D01*
X96785714Y-72573866D02*
X96738095Y-72764342D01*
X96738095Y-72764342D02*
X96690476Y-72859580D01*
X96690476Y-72859580D02*
X96642857Y-72907200D01*
X96642857Y-72907200D02*
X96547619Y-72954819D01*
X96547619Y-72954819D02*
X96452381Y-72954819D01*
X96452381Y-72954819D02*
X96357143Y-72907200D01*
X96357143Y-72907200D02*
X96309524Y-72859580D01*
X96309524Y-72859580D02*
X96261905Y-72764342D01*
X96261905Y-72764342D02*
X96214286Y-72573866D01*
X96214286Y-72573866D02*
X96214286Y-72335771D01*
X96214286Y-72335771D02*
X96261905Y-72145295D01*
X96261905Y-72145295D02*
X96309524Y-72050057D01*
X96309524Y-72050057D02*
X96357143Y-72002438D01*
X96357143Y-72002438D02*
X96452381Y-71954819D01*
X97214286Y-72288152D02*
X97214286Y-72954819D01*
X97214286Y-72383390D02*
X97261905Y-72335771D01*
X97261905Y-72335771D02*
X97357143Y-72288152D01*
X97357143Y-72288152D02*
X97500000Y-72288152D01*
X97500000Y-72288152D02*
X97595238Y-72335771D01*
X97595238Y-72335771D02*
X97642857Y-72431009D01*
X97642857Y-72431009D02*
X97642857Y-72954819D01*
X95833333Y-70359580D02*
X95785714Y-70407200D01*
X95785714Y-70407200D02*
X95642857Y-70454819D01*
X95642857Y-70454819D02*
X95547619Y-70454819D01*
X95547619Y-70454819D02*
X95404762Y-70407200D01*
X95404762Y-70407200D02*
X95309524Y-70311961D01*
X95309524Y-70311961D02*
X95261905Y-70216723D01*
X95261905Y-70216723D02*
X95214286Y-70026247D01*
X95214286Y-70026247D02*
X95214286Y-69883390D01*
X95214286Y-69883390D02*
X95261905Y-69692914D01*
X95261905Y-69692914D02*
X95309524Y-69597676D01*
X95309524Y-69597676D02*
X95404762Y-69502438D01*
X95404762Y-69502438D02*
X95547619Y-69454819D01*
X95547619Y-69454819D02*
X95642857Y-69454819D01*
X95642857Y-69454819D02*
X95785714Y-69502438D01*
X95785714Y-69502438D02*
X95833333Y-69550057D01*
X96690476Y-69454819D02*
X96500000Y-69454819D01*
X96500000Y-69454819D02*
X96404762Y-69502438D01*
X96404762Y-69502438D02*
X96357143Y-69550057D01*
X96357143Y-69550057D02*
X96261905Y-69692914D01*
X96261905Y-69692914D02*
X96214286Y-69883390D01*
X96214286Y-69883390D02*
X96214286Y-70264342D01*
X96214286Y-70264342D02*
X96261905Y-70359580D01*
X96261905Y-70359580D02*
X96309524Y-70407200D01*
X96309524Y-70407200D02*
X96404762Y-70454819D01*
X96404762Y-70454819D02*
X96595238Y-70454819D01*
X96595238Y-70454819D02*
X96690476Y-70407200D01*
X96690476Y-70407200D02*
X96738095Y-70359580D01*
X96738095Y-70359580D02*
X96785714Y-70264342D01*
X96785714Y-70264342D02*
X96785714Y-70026247D01*
X96785714Y-70026247D02*
X96738095Y-69931009D01*
X96738095Y-69931009D02*
X96690476Y-69883390D01*
X96690476Y-69883390D02*
X96595238Y-69835771D01*
X96595238Y-69835771D02*
X96404762Y-69835771D01*
X96404762Y-69835771D02*
X96309524Y-69883390D01*
X96309524Y-69883390D02*
X96261905Y-69931009D01*
X96261905Y-69931009D02*
X96214286Y-70026247D01*
X91880952Y-54954819D02*
X91309524Y-54954819D01*
X91595238Y-54954819D02*
X91595238Y-53954819D01*
X91595238Y-53954819D02*
X91500000Y-54097676D01*
X91500000Y-54097676D02*
X91404762Y-54192914D01*
X91404762Y-54192914D02*
X91309524Y-54240533D01*
X92500000Y-53954819D02*
X92595238Y-53954819D01*
X92595238Y-53954819D02*
X92690476Y-54002438D01*
X92690476Y-54002438D02*
X92738095Y-54050057D01*
X92738095Y-54050057D02*
X92785714Y-54145295D01*
X92785714Y-54145295D02*
X92833333Y-54335771D01*
X92833333Y-54335771D02*
X92833333Y-54573866D01*
X92833333Y-54573866D02*
X92785714Y-54764342D01*
X92785714Y-54764342D02*
X92738095Y-54859580D01*
X92738095Y-54859580D02*
X92690476Y-54907200D01*
X92690476Y-54907200D02*
X92595238Y-54954819D01*
X92595238Y-54954819D02*
X92500000Y-54954819D01*
X92500000Y-54954819D02*
X92404762Y-54907200D01*
X92404762Y-54907200D02*
X92357143Y-54859580D01*
X92357143Y-54859580D02*
X92309524Y-54764342D01*
X92309524Y-54764342D02*
X92261905Y-54573866D01*
X92261905Y-54573866D02*
X92261905Y-54335771D01*
X92261905Y-54335771D02*
X92309524Y-54145295D01*
X92309524Y-54145295D02*
X92357143Y-54050057D01*
X92357143Y-54050057D02*
X92404762Y-54002438D01*
X92404762Y-54002438D02*
X92500000Y-53954819D01*
X93452381Y-53954819D02*
X93547619Y-53954819D01*
X93547619Y-53954819D02*
X93642857Y-54002438D01*
X93642857Y-54002438D02*
X93690476Y-54050057D01*
X93690476Y-54050057D02*
X93738095Y-54145295D01*
X93738095Y-54145295D02*
X93785714Y-54335771D01*
X93785714Y-54335771D02*
X93785714Y-54573866D01*
X93785714Y-54573866D02*
X93738095Y-54764342D01*
X93738095Y-54764342D02*
X93690476Y-54859580D01*
X93690476Y-54859580D02*
X93642857Y-54907200D01*
X93642857Y-54907200D02*
X93547619Y-54954819D01*
X93547619Y-54954819D02*
X93452381Y-54954819D01*
X93452381Y-54954819D02*
X93357143Y-54907200D01*
X93357143Y-54907200D02*
X93309524Y-54859580D01*
X93309524Y-54859580D02*
X93261905Y-54764342D01*
X93261905Y-54764342D02*
X93214286Y-54573866D01*
X93214286Y-54573866D02*
X93214286Y-54335771D01*
X93214286Y-54335771D02*
X93261905Y-54145295D01*
X93261905Y-54145295D02*
X93309524Y-54050057D01*
X93309524Y-54050057D02*
X93357143Y-54002438D01*
X93357143Y-54002438D02*
X93452381Y-53954819D01*
X94214286Y-54288152D02*
X94214286Y-54954819D01*
X94214286Y-54383390D02*
X94261905Y-54335771D01*
X94261905Y-54335771D02*
X94357143Y-54288152D01*
X94357143Y-54288152D02*
X94500000Y-54288152D01*
X94500000Y-54288152D02*
X94595238Y-54335771D01*
X94595238Y-54335771D02*
X94642857Y-54431009D01*
X94642857Y-54431009D02*
X94642857Y-54954819D01*
X92833333Y-52359580D02*
X92785714Y-52407200D01*
X92785714Y-52407200D02*
X92642857Y-52454819D01*
X92642857Y-52454819D02*
X92547619Y-52454819D01*
X92547619Y-52454819D02*
X92404762Y-52407200D01*
X92404762Y-52407200D02*
X92309524Y-52311961D01*
X92309524Y-52311961D02*
X92261905Y-52216723D01*
X92261905Y-52216723D02*
X92214286Y-52026247D01*
X92214286Y-52026247D02*
X92214286Y-51883390D01*
X92214286Y-51883390D02*
X92261905Y-51692914D01*
X92261905Y-51692914D02*
X92309524Y-51597676D01*
X92309524Y-51597676D02*
X92404762Y-51502438D01*
X92404762Y-51502438D02*
X92547619Y-51454819D01*
X92547619Y-51454819D02*
X92642857Y-51454819D01*
X92642857Y-51454819D02*
X92785714Y-51502438D01*
X92785714Y-51502438D02*
X92833333Y-51550057D01*
X93690476Y-51788152D02*
X93690476Y-52454819D01*
X93452381Y-51407200D02*
X93214286Y-52121485D01*
X93214286Y-52121485D02*
X93833333Y-52121485D01*
X140071427Y-32868152D02*
X140452379Y-32868152D01*
X140214284Y-32534819D02*
X140214284Y-33391961D01*
X140214284Y-33391961D02*
X140261903Y-33487200D01*
X140261903Y-33487200D02*
X140357141Y-33534819D01*
X140357141Y-33534819D02*
X140452379Y-33534819D01*
X140785713Y-33534819D02*
X140785713Y-32868152D01*
X140785713Y-32534819D02*
X140738094Y-32582438D01*
X140738094Y-32582438D02*
X140785713Y-32630057D01*
X140785713Y-32630057D02*
X140833332Y-32582438D01*
X140833332Y-32582438D02*
X140785713Y-32534819D01*
X140785713Y-32534819D02*
X140785713Y-32630057D01*
X141404760Y-33534819D02*
X141309522Y-33487200D01*
X141309522Y-33487200D02*
X141261903Y-33391961D01*
X141261903Y-33391961D02*
X141261903Y-32534819D01*
X142690475Y-33534819D02*
X142595237Y-33487200D01*
X142595237Y-33487200D02*
X142547618Y-33391961D01*
X142547618Y-33391961D02*
X142547618Y-32534819D01*
X143499999Y-33534819D02*
X143499999Y-33011009D01*
X143499999Y-33011009D02*
X143452380Y-32915771D01*
X143452380Y-32915771D02*
X143357142Y-32868152D01*
X143357142Y-32868152D02*
X143166666Y-32868152D01*
X143166666Y-32868152D02*
X143071428Y-32915771D01*
X143499999Y-33487200D02*
X143404761Y-33534819D01*
X143404761Y-33534819D02*
X143166666Y-33534819D01*
X143166666Y-33534819D02*
X143071428Y-33487200D01*
X143071428Y-33487200D02*
X143023809Y-33391961D01*
X143023809Y-33391961D02*
X143023809Y-33296723D01*
X143023809Y-33296723D02*
X143071428Y-33201485D01*
X143071428Y-33201485D02*
X143166666Y-33153866D01*
X143166666Y-33153866D02*
X143404761Y-33153866D01*
X143404761Y-33153866D02*
X143499999Y-33106247D01*
X144404761Y-32868152D02*
X144404761Y-33677676D01*
X144404761Y-33677676D02*
X144357142Y-33772914D01*
X144357142Y-33772914D02*
X144309523Y-33820533D01*
X144309523Y-33820533D02*
X144214285Y-33868152D01*
X144214285Y-33868152D02*
X144071428Y-33868152D01*
X144071428Y-33868152D02*
X143976190Y-33820533D01*
X144404761Y-33487200D02*
X144309523Y-33534819D01*
X144309523Y-33534819D02*
X144119047Y-33534819D01*
X144119047Y-33534819D02*
X144023809Y-33487200D01*
X144023809Y-33487200D02*
X143976190Y-33439580D01*
X143976190Y-33439580D02*
X143928571Y-33344342D01*
X143928571Y-33344342D02*
X143928571Y-33058628D01*
X143928571Y-33058628D02*
X143976190Y-32963390D01*
X143976190Y-32963390D02*
X144023809Y-32915771D01*
X144023809Y-32915771D02*
X144119047Y-32868152D01*
X144119047Y-32868152D02*
X144309523Y-32868152D01*
X144309523Y-32868152D02*
X144404761Y-32915771D01*
X145261904Y-33487200D02*
X145166666Y-33534819D01*
X145166666Y-33534819D02*
X144976190Y-33534819D01*
X144976190Y-33534819D02*
X144880952Y-33487200D01*
X144880952Y-33487200D02*
X144833333Y-33391961D01*
X144833333Y-33391961D02*
X144833333Y-33011009D01*
X144833333Y-33011009D02*
X144880952Y-32915771D01*
X144880952Y-32915771D02*
X144976190Y-32868152D01*
X144976190Y-32868152D02*
X145166666Y-32868152D01*
X145166666Y-32868152D02*
X145261904Y-32915771D01*
X145261904Y-32915771D02*
X145309523Y-33011009D01*
X145309523Y-33011009D02*
X145309523Y-33106247D01*
X145309523Y-33106247D02*
X144833333Y-33201485D01*
X145738095Y-33534819D02*
X145738095Y-32868152D01*
X145738095Y-33058628D02*
X145785714Y-32963390D01*
X145785714Y-32963390D02*
X145833333Y-32915771D01*
X145833333Y-32915771D02*
X145928571Y-32868152D01*
X145928571Y-32868152D02*
X146023809Y-32868152D01*
X147404762Y-33915771D02*
X147357143Y-33868152D01*
X147357143Y-33868152D02*
X147261905Y-33725295D01*
X147261905Y-33725295D02*
X147214286Y-33630057D01*
X147214286Y-33630057D02*
X147166667Y-33487200D01*
X147166667Y-33487200D02*
X147119048Y-33249104D01*
X147119048Y-33249104D02*
X147119048Y-33058628D01*
X147119048Y-33058628D02*
X147166667Y-32820533D01*
X147166667Y-32820533D02*
X147214286Y-32677676D01*
X147214286Y-32677676D02*
X147261905Y-32582438D01*
X147261905Y-32582438D02*
X147357143Y-32439580D01*
X147357143Y-32439580D02*
X147404762Y-32391961D01*
X147642858Y-32534819D02*
X147976191Y-33534819D01*
X147976191Y-33534819D02*
X148309524Y-32534819D01*
X148547620Y-32534819D02*
X149166667Y-32534819D01*
X149166667Y-32534819D02*
X148833334Y-32915771D01*
X148833334Y-32915771D02*
X148976191Y-32915771D01*
X148976191Y-32915771D02*
X149071429Y-32963390D01*
X149071429Y-32963390D02*
X149119048Y-33011009D01*
X149119048Y-33011009D02*
X149166667Y-33106247D01*
X149166667Y-33106247D02*
X149166667Y-33344342D01*
X149166667Y-33344342D02*
X149119048Y-33439580D01*
X149119048Y-33439580D02*
X149071429Y-33487200D01*
X149071429Y-33487200D02*
X148976191Y-33534819D01*
X148976191Y-33534819D02*
X148690477Y-33534819D01*
X148690477Y-33534819D02*
X148595239Y-33487200D01*
X148595239Y-33487200D02*
X148547620Y-33439580D01*
X149500001Y-33915771D02*
X149547620Y-33868152D01*
X149547620Y-33868152D02*
X149642858Y-33725295D01*
X149642858Y-33725295D02*
X149690477Y-33630057D01*
X149690477Y-33630057D02*
X149738096Y-33487200D01*
X149738096Y-33487200D02*
X149785715Y-33249104D01*
X149785715Y-33249104D02*
X149785715Y-33058628D01*
X149785715Y-33058628D02*
X149738096Y-32820533D01*
X149738096Y-32820533D02*
X149690477Y-32677676D01*
X149690477Y-32677676D02*
X149642858Y-32582438D01*
X149642858Y-32582438D02*
X149547620Y-32439580D01*
X149547620Y-32439580D02*
X149500001Y-32391961D01*
X144666666Y-27454819D02*
X144666666Y-28169104D01*
X144666666Y-28169104D02*
X144619047Y-28311961D01*
X144619047Y-28311961D02*
X144523809Y-28407200D01*
X144523809Y-28407200D02*
X144380952Y-28454819D01*
X144380952Y-28454819D02*
X144285714Y-28454819D01*
X145095238Y-27550057D02*
X145142857Y-27502438D01*
X145142857Y-27502438D02*
X145238095Y-27454819D01*
X145238095Y-27454819D02*
X145476190Y-27454819D01*
X145476190Y-27454819D02*
X145571428Y-27502438D01*
X145571428Y-27502438D02*
X145619047Y-27550057D01*
X145619047Y-27550057D02*
X145666666Y-27645295D01*
X145666666Y-27645295D02*
X145666666Y-27740533D01*
X145666666Y-27740533D02*
X145619047Y-27883390D01*
X145619047Y-27883390D02*
X145047619Y-28454819D01*
X145047619Y-28454819D02*
X145666666Y-28454819D01*
X100676961Y-41038152D02*
X100676961Y-41704819D01*
X100438866Y-40657200D02*
X100200771Y-41371485D01*
X100200771Y-41371485D02*
X100819818Y-41371485D01*
X101105533Y-40704819D02*
X101772199Y-40704819D01*
X101772199Y-40704819D02*
X101343628Y-41704819D01*
X102343628Y-40704819D02*
X102438866Y-40704819D01*
X102438866Y-40704819D02*
X102534104Y-40752438D01*
X102534104Y-40752438D02*
X102581723Y-40800057D01*
X102581723Y-40800057D02*
X102629342Y-40895295D01*
X102629342Y-40895295D02*
X102676961Y-41085771D01*
X102676961Y-41085771D02*
X102676961Y-41323866D01*
X102676961Y-41323866D02*
X102629342Y-41514342D01*
X102629342Y-41514342D02*
X102581723Y-41609580D01*
X102581723Y-41609580D02*
X102534104Y-41657200D01*
X102534104Y-41657200D02*
X102438866Y-41704819D01*
X102438866Y-41704819D02*
X102343628Y-41704819D01*
X102343628Y-41704819D02*
X102248390Y-41657200D01*
X102248390Y-41657200D02*
X102200771Y-41609580D01*
X102200771Y-41609580D02*
X102153152Y-41514342D01*
X102153152Y-41514342D02*
X102105533Y-41323866D01*
X102105533Y-41323866D02*
X102105533Y-41085771D01*
X102105533Y-41085771D02*
X102153152Y-40895295D01*
X102153152Y-40895295D02*
X102200771Y-40800057D01*
X102200771Y-40800057D02*
X102248390Y-40752438D01*
X102248390Y-40752438D02*
X102343628Y-40704819D01*
X103296009Y-40704819D02*
X103391247Y-40704819D01*
X103391247Y-40704819D02*
X103486485Y-40752438D01*
X103486485Y-40752438D02*
X103534104Y-40800057D01*
X103534104Y-40800057D02*
X103581723Y-40895295D01*
X103581723Y-40895295D02*
X103629342Y-41085771D01*
X103629342Y-41085771D02*
X103629342Y-41323866D01*
X103629342Y-41323866D02*
X103581723Y-41514342D01*
X103581723Y-41514342D02*
X103534104Y-41609580D01*
X103534104Y-41609580D02*
X103486485Y-41657200D01*
X103486485Y-41657200D02*
X103391247Y-41704819D01*
X103391247Y-41704819D02*
X103296009Y-41704819D01*
X103296009Y-41704819D02*
X103200771Y-41657200D01*
X103200771Y-41657200D02*
X103153152Y-41609580D01*
X103153152Y-41609580D02*
X103105533Y-41514342D01*
X103105533Y-41514342D02*
X103057914Y-41323866D01*
X103057914Y-41323866D02*
X103057914Y-41085771D01*
X103057914Y-41085771D02*
X103105533Y-40895295D01*
X103105533Y-40895295D02*
X103153152Y-40800057D01*
X103153152Y-40800057D02*
X103200771Y-40752438D01*
X103200771Y-40752438D02*
X103296009Y-40704819D01*
X104486485Y-41038152D02*
X104486485Y-41704819D01*
X104057914Y-41038152D02*
X104057914Y-41561961D01*
X104057914Y-41561961D02*
X104105533Y-41657200D01*
X104105533Y-41657200D02*
X104200771Y-41704819D01*
X104200771Y-41704819D02*
X104343628Y-41704819D01*
X104343628Y-41704819D02*
X104438866Y-41657200D01*
X104438866Y-41657200D02*
X104486485Y-41609580D01*
X105676961Y-40657200D02*
X104819819Y-41942914D01*
X106486485Y-40704819D02*
X106010295Y-40704819D01*
X106010295Y-40704819D02*
X105962676Y-41181009D01*
X105962676Y-41181009D02*
X106010295Y-41133390D01*
X106010295Y-41133390D02*
X106105533Y-41085771D01*
X106105533Y-41085771D02*
X106343628Y-41085771D01*
X106343628Y-41085771D02*
X106438866Y-41133390D01*
X106438866Y-41133390D02*
X106486485Y-41181009D01*
X106486485Y-41181009D02*
X106534104Y-41276247D01*
X106534104Y-41276247D02*
X106534104Y-41514342D01*
X106534104Y-41514342D02*
X106486485Y-41609580D01*
X106486485Y-41609580D02*
X106438866Y-41657200D01*
X106438866Y-41657200D02*
X106343628Y-41704819D01*
X106343628Y-41704819D02*
X106105533Y-41704819D01*
X106105533Y-41704819D02*
X106010295Y-41657200D01*
X106010295Y-41657200D02*
X105962676Y-41609580D01*
X107153152Y-40704819D02*
X107248390Y-40704819D01*
X107248390Y-40704819D02*
X107343628Y-40752438D01*
X107343628Y-40752438D02*
X107391247Y-40800057D01*
X107391247Y-40800057D02*
X107438866Y-40895295D01*
X107438866Y-40895295D02*
X107486485Y-41085771D01*
X107486485Y-41085771D02*
X107486485Y-41323866D01*
X107486485Y-41323866D02*
X107438866Y-41514342D01*
X107438866Y-41514342D02*
X107391247Y-41609580D01*
X107391247Y-41609580D02*
X107343628Y-41657200D01*
X107343628Y-41657200D02*
X107248390Y-41704819D01*
X107248390Y-41704819D02*
X107153152Y-41704819D01*
X107153152Y-41704819D02*
X107057914Y-41657200D01*
X107057914Y-41657200D02*
X107010295Y-41609580D01*
X107010295Y-41609580D02*
X106962676Y-41514342D01*
X106962676Y-41514342D02*
X106915057Y-41323866D01*
X106915057Y-41323866D02*
X106915057Y-41085771D01*
X106915057Y-41085771D02*
X106962676Y-40895295D01*
X106962676Y-40895295D02*
X107010295Y-40800057D01*
X107010295Y-40800057D02*
X107057914Y-40752438D01*
X107057914Y-40752438D02*
X107153152Y-40704819D01*
X107772200Y-40704819D02*
X108105533Y-41704819D01*
X108105533Y-41704819D02*
X108438866Y-40704819D01*
X104105533Y-31359580D02*
X104057914Y-31407200D01*
X104057914Y-31407200D02*
X103915057Y-31454819D01*
X103915057Y-31454819D02*
X103819819Y-31454819D01*
X103819819Y-31454819D02*
X103676962Y-31407200D01*
X103676962Y-31407200D02*
X103581724Y-31311961D01*
X103581724Y-31311961D02*
X103534105Y-31216723D01*
X103534105Y-31216723D02*
X103486486Y-31026247D01*
X103486486Y-31026247D02*
X103486486Y-30883390D01*
X103486486Y-30883390D02*
X103534105Y-30692914D01*
X103534105Y-30692914D02*
X103581724Y-30597676D01*
X103581724Y-30597676D02*
X103676962Y-30502438D01*
X103676962Y-30502438D02*
X103819819Y-30454819D01*
X103819819Y-30454819D02*
X103915057Y-30454819D01*
X103915057Y-30454819D02*
X104057914Y-30502438D01*
X104057914Y-30502438D02*
X104105533Y-30550057D01*
X104438867Y-30454819D02*
X105057914Y-30454819D01*
X105057914Y-30454819D02*
X104724581Y-30835771D01*
X104724581Y-30835771D02*
X104867438Y-30835771D01*
X104867438Y-30835771D02*
X104962676Y-30883390D01*
X104962676Y-30883390D02*
X105010295Y-30931009D01*
X105010295Y-30931009D02*
X105057914Y-31026247D01*
X105057914Y-31026247D02*
X105057914Y-31264342D01*
X105057914Y-31264342D02*
X105010295Y-31359580D01*
X105010295Y-31359580D02*
X104962676Y-31407200D01*
X104962676Y-31407200D02*
X104867438Y-31454819D01*
X104867438Y-31454819D02*
X104581724Y-31454819D01*
X104581724Y-31454819D02*
X104486486Y-31407200D01*
X104486486Y-31407200D02*
X104438867Y-31359580D01*
X44833333Y-44824819D02*
X44261905Y-44824819D01*
X44547619Y-44824819D02*
X44547619Y-43824819D01*
X44547619Y-43824819D02*
X44452381Y-43967676D01*
X44452381Y-43967676D02*
X44357143Y-44062914D01*
X44357143Y-44062914D02*
X44261905Y-44110533D01*
X45833333Y-44824819D02*
X45500000Y-44348628D01*
X45261905Y-44824819D02*
X45261905Y-43824819D01*
X45261905Y-43824819D02*
X45642857Y-43824819D01*
X45642857Y-43824819D02*
X45738095Y-43872438D01*
X45738095Y-43872438D02*
X45785714Y-43920057D01*
X45785714Y-43920057D02*
X45833333Y-44015295D01*
X45833333Y-44015295D02*
X45833333Y-44158152D01*
X45833333Y-44158152D02*
X45785714Y-44253390D01*
X45785714Y-44253390D02*
X45738095Y-44301009D01*
X45738095Y-44301009D02*
X45642857Y-44348628D01*
X45642857Y-44348628D02*
X45261905Y-44348628D01*
X46452381Y-43824819D02*
X46547619Y-43824819D01*
X46547619Y-43824819D02*
X46642857Y-43872438D01*
X46642857Y-43872438D02*
X46690476Y-43920057D01*
X46690476Y-43920057D02*
X46738095Y-44015295D01*
X46738095Y-44015295D02*
X46785714Y-44205771D01*
X46785714Y-44205771D02*
X46785714Y-44443866D01*
X46785714Y-44443866D02*
X46738095Y-44634342D01*
X46738095Y-44634342D02*
X46690476Y-44729580D01*
X46690476Y-44729580D02*
X46642857Y-44777200D01*
X46642857Y-44777200D02*
X46547619Y-44824819D01*
X46547619Y-44824819D02*
X46452381Y-44824819D01*
X46452381Y-44824819D02*
X46357143Y-44777200D01*
X46357143Y-44777200D02*
X46309524Y-44729580D01*
X46309524Y-44729580D02*
X46261905Y-44634342D01*
X46261905Y-44634342D02*
X46214286Y-44443866D01*
X46214286Y-44443866D02*
X46214286Y-44205771D01*
X46214286Y-44205771D02*
X46261905Y-44015295D01*
X46261905Y-44015295D02*
X46309524Y-43920057D01*
X46309524Y-43920057D02*
X46357143Y-43872438D01*
X46357143Y-43872438D02*
X46452381Y-43824819D01*
X47404762Y-43824819D02*
X47500000Y-43824819D01*
X47500000Y-43824819D02*
X47595238Y-43872438D01*
X47595238Y-43872438D02*
X47642857Y-43920057D01*
X47642857Y-43920057D02*
X47690476Y-44015295D01*
X47690476Y-44015295D02*
X47738095Y-44205771D01*
X47738095Y-44205771D02*
X47738095Y-44443866D01*
X47738095Y-44443866D02*
X47690476Y-44634342D01*
X47690476Y-44634342D02*
X47642857Y-44729580D01*
X47642857Y-44729580D02*
X47595238Y-44777200D01*
X47595238Y-44777200D02*
X47500000Y-44824819D01*
X47500000Y-44824819D02*
X47404762Y-44824819D01*
X47404762Y-44824819D02*
X47309524Y-44777200D01*
X47309524Y-44777200D02*
X47261905Y-44729580D01*
X47261905Y-44729580D02*
X47214286Y-44634342D01*
X47214286Y-44634342D02*
X47166667Y-44443866D01*
X47166667Y-44443866D02*
X47166667Y-44205771D01*
X47166667Y-44205771D02*
X47214286Y-44015295D01*
X47214286Y-44015295D02*
X47261905Y-43920057D01*
X47261905Y-43920057D02*
X47309524Y-43872438D01*
X47309524Y-43872438D02*
X47404762Y-43824819D01*
X45833333Y-42454819D02*
X45500000Y-41978628D01*
X45261905Y-42454819D02*
X45261905Y-41454819D01*
X45261905Y-41454819D02*
X45642857Y-41454819D01*
X45642857Y-41454819D02*
X45738095Y-41502438D01*
X45738095Y-41502438D02*
X45785714Y-41550057D01*
X45785714Y-41550057D02*
X45833333Y-41645295D01*
X45833333Y-41645295D02*
X45833333Y-41788152D01*
X45833333Y-41788152D02*
X45785714Y-41883390D01*
X45785714Y-41883390D02*
X45738095Y-41931009D01*
X45738095Y-41931009D02*
X45642857Y-41978628D01*
X45642857Y-41978628D02*
X45261905Y-41978628D01*
X46738095Y-41454819D02*
X46261905Y-41454819D01*
X46261905Y-41454819D02*
X46214286Y-41931009D01*
X46214286Y-41931009D02*
X46261905Y-41883390D01*
X46261905Y-41883390D02*
X46357143Y-41835771D01*
X46357143Y-41835771D02*
X46595238Y-41835771D01*
X46595238Y-41835771D02*
X46690476Y-41883390D01*
X46690476Y-41883390D02*
X46738095Y-41931009D01*
X46738095Y-41931009D02*
X46785714Y-42026247D01*
X46785714Y-42026247D02*
X46785714Y-42264342D01*
X46785714Y-42264342D02*
X46738095Y-42359580D01*
X46738095Y-42359580D02*
X46690476Y-42407200D01*
X46690476Y-42407200D02*
X46595238Y-42454819D01*
X46595238Y-42454819D02*
X46357143Y-42454819D01*
X46357143Y-42454819D02*
X46261905Y-42407200D01*
X46261905Y-42407200D02*
X46214286Y-42359580D01*
X82285714Y-72051009D02*
X82428571Y-72098628D01*
X82428571Y-72098628D02*
X82476190Y-72146247D01*
X82476190Y-72146247D02*
X82523809Y-72241485D01*
X82523809Y-72241485D02*
X82523809Y-72384342D01*
X82523809Y-72384342D02*
X82476190Y-72479580D01*
X82476190Y-72479580D02*
X82428571Y-72527200D01*
X82428571Y-72527200D02*
X82333333Y-72574819D01*
X82333333Y-72574819D02*
X81952381Y-72574819D01*
X81952381Y-72574819D02*
X81952381Y-71574819D01*
X81952381Y-71574819D02*
X82285714Y-71574819D01*
X82285714Y-71574819D02*
X82380952Y-71622438D01*
X82380952Y-71622438D02*
X82428571Y-71670057D01*
X82428571Y-71670057D02*
X82476190Y-71765295D01*
X82476190Y-71765295D02*
X82476190Y-71860533D01*
X82476190Y-71860533D02*
X82428571Y-71955771D01*
X82428571Y-71955771D02*
X82380952Y-72003390D01*
X82380952Y-72003390D02*
X82285714Y-72051009D01*
X82285714Y-72051009D02*
X81952381Y-72051009D01*
X82857143Y-71574819D02*
X83523809Y-71574819D01*
X83523809Y-71574819D02*
X82857143Y-72574819D01*
X82857143Y-72574819D02*
X83523809Y-72574819D01*
X83809524Y-71574819D02*
X84476190Y-72574819D01*
X84476190Y-71574819D02*
X83809524Y-72574819D01*
X85333333Y-71574819D02*
X84857143Y-71574819D01*
X84857143Y-71574819D02*
X84809524Y-72051009D01*
X84809524Y-72051009D02*
X84857143Y-72003390D01*
X84857143Y-72003390D02*
X84952381Y-71955771D01*
X84952381Y-71955771D02*
X85190476Y-71955771D01*
X85190476Y-71955771D02*
X85285714Y-72003390D01*
X85285714Y-72003390D02*
X85333333Y-72051009D01*
X85333333Y-72051009D02*
X85380952Y-72146247D01*
X85380952Y-72146247D02*
X85380952Y-72384342D01*
X85380952Y-72384342D02*
X85333333Y-72479580D01*
X85333333Y-72479580D02*
X85285714Y-72527200D01*
X85285714Y-72527200D02*
X85190476Y-72574819D01*
X85190476Y-72574819D02*
X84952381Y-72574819D01*
X84952381Y-72574819D02*
X84857143Y-72527200D01*
X84857143Y-72527200D02*
X84809524Y-72479580D01*
X86285714Y-71574819D02*
X85809524Y-71574819D01*
X85809524Y-71574819D02*
X85761905Y-72051009D01*
X85761905Y-72051009D02*
X85809524Y-72003390D01*
X85809524Y-72003390D02*
X85904762Y-71955771D01*
X85904762Y-71955771D02*
X86142857Y-71955771D01*
X86142857Y-71955771D02*
X86238095Y-72003390D01*
X86238095Y-72003390D02*
X86285714Y-72051009D01*
X86285714Y-72051009D02*
X86333333Y-72146247D01*
X86333333Y-72146247D02*
X86333333Y-72384342D01*
X86333333Y-72384342D02*
X86285714Y-72479580D01*
X86285714Y-72479580D02*
X86238095Y-72527200D01*
X86238095Y-72527200D02*
X86142857Y-72574819D01*
X86142857Y-72574819D02*
X85904762Y-72574819D01*
X85904762Y-72574819D02*
X85809524Y-72527200D01*
X85809524Y-72527200D02*
X85761905Y-72479580D01*
X87333333Y-72479580D02*
X87285714Y-72527200D01*
X87285714Y-72527200D02*
X87142857Y-72574819D01*
X87142857Y-72574819D02*
X87047619Y-72574819D01*
X87047619Y-72574819D02*
X86904762Y-72527200D01*
X86904762Y-72527200D02*
X86809524Y-72431961D01*
X86809524Y-72431961D02*
X86761905Y-72336723D01*
X86761905Y-72336723D02*
X86714286Y-72146247D01*
X86714286Y-72146247D02*
X86714286Y-72003390D01*
X86714286Y-72003390D02*
X86761905Y-71812914D01*
X86761905Y-71812914D02*
X86809524Y-71717676D01*
X86809524Y-71717676D02*
X86904762Y-71622438D01*
X86904762Y-71622438D02*
X87047619Y-71574819D01*
X87047619Y-71574819D02*
X87142857Y-71574819D01*
X87142857Y-71574819D02*
X87285714Y-71622438D01*
X87285714Y-71622438D02*
X87333333Y-71670057D01*
X88238095Y-71574819D02*
X87761905Y-71574819D01*
X87761905Y-71574819D02*
X87714286Y-72051009D01*
X87714286Y-72051009D02*
X87761905Y-72003390D01*
X87761905Y-72003390D02*
X87857143Y-71955771D01*
X87857143Y-71955771D02*
X88095238Y-71955771D01*
X88095238Y-71955771D02*
X88190476Y-72003390D01*
X88190476Y-72003390D02*
X88238095Y-72051009D01*
X88238095Y-72051009D02*
X88285714Y-72146247D01*
X88285714Y-72146247D02*
X88285714Y-72384342D01*
X88285714Y-72384342D02*
X88238095Y-72479580D01*
X88238095Y-72479580D02*
X88190476Y-72527200D01*
X88190476Y-72527200D02*
X88095238Y-72574819D01*
X88095238Y-72574819D02*
X87857143Y-72574819D01*
X87857143Y-72574819D02*
X87761905Y-72527200D01*
X87761905Y-72527200D02*
X87714286Y-72479580D01*
X88571429Y-71574819D02*
X88904762Y-72574819D01*
X88904762Y-72574819D02*
X89238095Y-71574819D01*
X90095238Y-72574819D02*
X89523810Y-72574819D01*
X89809524Y-72574819D02*
X89809524Y-71574819D01*
X89809524Y-71574819D02*
X89714286Y-71717676D01*
X89714286Y-71717676D02*
X89619048Y-71812914D01*
X89619048Y-71812914D02*
X89523810Y-71860533D01*
X81928095Y-68654819D02*
X81928095Y-67654819D01*
X82499523Y-68654819D02*
X82070952Y-68083390D01*
X82499523Y-67654819D02*
X81928095Y-68226247D01*
D11*
X85328571Y-70363855D02*
X85328571Y-69563855D01*
X85328571Y-69563855D02*
X85519047Y-69563855D01*
X85519047Y-69563855D02*
X85633333Y-69601950D01*
X85633333Y-69601950D02*
X85709523Y-69678140D01*
X85709523Y-69678140D02*
X85747618Y-69754331D01*
X85747618Y-69754331D02*
X85785714Y-69906712D01*
X85785714Y-69906712D02*
X85785714Y-70020998D01*
X85785714Y-70020998D02*
X85747618Y-70173379D01*
X85747618Y-70173379D02*
X85709523Y-70249569D01*
X85709523Y-70249569D02*
X85633333Y-70325760D01*
X85633333Y-70325760D02*
X85519047Y-70363855D01*
X85519047Y-70363855D02*
X85328571Y-70363855D01*
X86052380Y-69563855D02*
X86585714Y-69563855D01*
X86585714Y-69563855D02*
X86052380Y-70363855D01*
X86052380Y-70363855D02*
X86585714Y-70363855D01*
X87309523Y-70363855D02*
X86852380Y-70363855D01*
X87080952Y-70363855D02*
X87080952Y-69563855D01*
X87080952Y-69563855D02*
X87004761Y-69678140D01*
X87004761Y-69678140D02*
X86928571Y-69754331D01*
X86928571Y-69754331D02*
X86852380Y-69792426D01*
D10*
X60676961Y-41038152D02*
X60676961Y-41704819D01*
X60438866Y-40657200D02*
X60200771Y-41371485D01*
X60200771Y-41371485D02*
X60819818Y-41371485D01*
X61105533Y-40704819D02*
X61772199Y-40704819D01*
X61772199Y-40704819D02*
X61343628Y-41704819D01*
X62343628Y-40704819D02*
X62438866Y-40704819D01*
X62438866Y-40704819D02*
X62534104Y-40752438D01*
X62534104Y-40752438D02*
X62581723Y-40800057D01*
X62581723Y-40800057D02*
X62629342Y-40895295D01*
X62629342Y-40895295D02*
X62676961Y-41085771D01*
X62676961Y-41085771D02*
X62676961Y-41323866D01*
X62676961Y-41323866D02*
X62629342Y-41514342D01*
X62629342Y-41514342D02*
X62581723Y-41609580D01*
X62581723Y-41609580D02*
X62534104Y-41657200D01*
X62534104Y-41657200D02*
X62438866Y-41704819D01*
X62438866Y-41704819D02*
X62343628Y-41704819D01*
X62343628Y-41704819D02*
X62248390Y-41657200D01*
X62248390Y-41657200D02*
X62200771Y-41609580D01*
X62200771Y-41609580D02*
X62153152Y-41514342D01*
X62153152Y-41514342D02*
X62105533Y-41323866D01*
X62105533Y-41323866D02*
X62105533Y-41085771D01*
X62105533Y-41085771D02*
X62153152Y-40895295D01*
X62153152Y-40895295D02*
X62200771Y-40800057D01*
X62200771Y-40800057D02*
X62248390Y-40752438D01*
X62248390Y-40752438D02*
X62343628Y-40704819D01*
X63296009Y-40704819D02*
X63391247Y-40704819D01*
X63391247Y-40704819D02*
X63486485Y-40752438D01*
X63486485Y-40752438D02*
X63534104Y-40800057D01*
X63534104Y-40800057D02*
X63581723Y-40895295D01*
X63581723Y-40895295D02*
X63629342Y-41085771D01*
X63629342Y-41085771D02*
X63629342Y-41323866D01*
X63629342Y-41323866D02*
X63581723Y-41514342D01*
X63581723Y-41514342D02*
X63534104Y-41609580D01*
X63534104Y-41609580D02*
X63486485Y-41657200D01*
X63486485Y-41657200D02*
X63391247Y-41704819D01*
X63391247Y-41704819D02*
X63296009Y-41704819D01*
X63296009Y-41704819D02*
X63200771Y-41657200D01*
X63200771Y-41657200D02*
X63153152Y-41609580D01*
X63153152Y-41609580D02*
X63105533Y-41514342D01*
X63105533Y-41514342D02*
X63057914Y-41323866D01*
X63057914Y-41323866D02*
X63057914Y-41085771D01*
X63057914Y-41085771D02*
X63105533Y-40895295D01*
X63105533Y-40895295D02*
X63153152Y-40800057D01*
X63153152Y-40800057D02*
X63200771Y-40752438D01*
X63200771Y-40752438D02*
X63296009Y-40704819D01*
X64486485Y-41038152D02*
X64486485Y-41704819D01*
X64057914Y-41038152D02*
X64057914Y-41561961D01*
X64057914Y-41561961D02*
X64105533Y-41657200D01*
X64105533Y-41657200D02*
X64200771Y-41704819D01*
X64200771Y-41704819D02*
X64343628Y-41704819D01*
X64343628Y-41704819D02*
X64438866Y-41657200D01*
X64438866Y-41657200D02*
X64486485Y-41609580D01*
X65676961Y-40657200D02*
X64819819Y-41942914D01*
X66486485Y-40704819D02*
X66010295Y-40704819D01*
X66010295Y-40704819D02*
X65962676Y-41181009D01*
X65962676Y-41181009D02*
X66010295Y-41133390D01*
X66010295Y-41133390D02*
X66105533Y-41085771D01*
X66105533Y-41085771D02*
X66343628Y-41085771D01*
X66343628Y-41085771D02*
X66438866Y-41133390D01*
X66438866Y-41133390D02*
X66486485Y-41181009D01*
X66486485Y-41181009D02*
X66534104Y-41276247D01*
X66534104Y-41276247D02*
X66534104Y-41514342D01*
X66534104Y-41514342D02*
X66486485Y-41609580D01*
X66486485Y-41609580D02*
X66438866Y-41657200D01*
X66438866Y-41657200D02*
X66343628Y-41704819D01*
X66343628Y-41704819D02*
X66105533Y-41704819D01*
X66105533Y-41704819D02*
X66010295Y-41657200D01*
X66010295Y-41657200D02*
X65962676Y-41609580D01*
X67153152Y-40704819D02*
X67248390Y-40704819D01*
X67248390Y-40704819D02*
X67343628Y-40752438D01*
X67343628Y-40752438D02*
X67391247Y-40800057D01*
X67391247Y-40800057D02*
X67438866Y-40895295D01*
X67438866Y-40895295D02*
X67486485Y-41085771D01*
X67486485Y-41085771D02*
X67486485Y-41323866D01*
X67486485Y-41323866D02*
X67438866Y-41514342D01*
X67438866Y-41514342D02*
X67391247Y-41609580D01*
X67391247Y-41609580D02*
X67343628Y-41657200D01*
X67343628Y-41657200D02*
X67248390Y-41704819D01*
X67248390Y-41704819D02*
X67153152Y-41704819D01*
X67153152Y-41704819D02*
X67057914Y-41657200D01*
X67057914Y-41657200D02*
X67010295Y-41609580D01*
X67010295Y-41609580D02*
X66962676Y-41514342D01*
X66962676Y-41514342D02*
X66915057Y-41323866D01*
X66915057Y-41323866D02*
X66915057Y-41085771D01*
X66915057Y-41085771D02*
X66962676Y-40895295D01*
X66962676Y-40895295D02*
X67010295Y-40800057D01*
X67010295Y-40800057D02*
X67057914Y-40752438D01*
X67057914Y-40752438D02*
X67153152Y-40704819D01*
X67772200Y-40704819D02*
X68105533Y-41704819D01*
X68105533Y-41704819D02*
X68438866Y-40704819D01*
X64105533Y-31359580D02*
X64057914Y-31407200D01*
X64057914Y-31407200D02*
X63915057Y-31454819D01*
X63915057Y-31454819D02*
X63819819Y-31454819D01*
X63819819Y-31454819D02*
X63676962Y-31407200D01*
X63676962Y-31407200D02*
X63581724Y-31311961D01*
X63581724Y-31311961D02*
X63534105Y-31216723D01*
X63534105Y-31216723D02*
X63486486Y-31026247D01*
X63486486Y-31026247D02*
X63486486Y-30883390D01*
X63486486Y-30883390D02*
X63534105Y-30692914D01*
X63534105Y-30692914D02*
X63581724Y-30597676D01*
X63581724Y-30597676D02*
X63676962Y-30502438D01*
X63676962Y-30502438D02*
X63819819Y-30454819D01*
X63819819Y-30454819D02*
X63915057Y-30454819D01*
X63915057Y-30454819D02*
X64057914Y-30502438D01*
X64057914Y-30502438D02*
X64105533Y-30550057D01*
X65057914Y-31454819D02*
X64486486Y-31454819D01*
X64772200Y-31454819D02*
X64772200Y-30454819D01*
X64772200Y-30454819D02*
X64676962Y-30597676D01*
X64676962Y-30597676D02*
X64581724Y-30692914D01*
X64581724Y-30692914D02*
X64486486Y-30740533D01*
X138285714Y-67327200D02*
X138380952Y-67374819D01*
X138380952Y-67374819D02*
X138571428Y-67374819D01*
X138571428Y-67374819D02*
X138666666Y-67327200D01*
X138666666Y-67327200D02*
X138714285Y-67231961D01*
X138714285Y-67231961D02*
X138714285Y-67184342D01*
X138714285Y-67184342D02*
X138666666Y-67089104D01*
X138666666Y-67089104D02*
X138571428Y-67041485D01*
X138571428Y-67041485D02*
X138428571Y-67041485D01*
X138428571Y-67041485D02*
X138333333Y-66993866D01*
X138333333Y-66993866D02*
X138285714Y-66898628D01*
X138285714Y-66898628D02*
X138285714Y-66851009D01*
X138285714Y-66851009D02*
X138333333Y-66755771D01*
X138333333Y-66755771D02*
X138428571Y-66708152D01*
X138428571Y-66708152D02*
X138571428Y-66708152D01*
X138571428Y-66708152D02*
X138666666Y-66755771D01*
X139523809Y-67327200D02*
X139428571Y-67374819D01*
X139428571Y-67374819D02*
X139238095Y-67374819D01*
X139238095Y-67374819D02*
X139142857Y-67327200D01*
X139142857Y-67327200D02*
X139095238Y-67231961D01*
X139095238Y-67231961D02*
X139095238Y-66851009D01*
X139095238Y-66851009D02*
X139142857Y-66755771D01*
X139142857Y-66755771D02*
X139238095Y-66708152D01*
X139238095Y-66708152D02*
X139428571Y-66708152D01*
X139428571Y-66708152D02*
X139523809Y-66755771D01*
X139523809Y-66755771D02*
X139571428Y-66851009D01*
X139571428Y-66851009D02*
X139571428Y-66946247D01*
X139571428Y-66946247D02*
X139095238Y-67041485D01*
X140000000Y-66708152D02*
X140000000Y-67374819D01*
X140000000Y-66803390D02*
X140047619Y-66755771D01*
X140047619Y-66755771D02*
X140142857Y-66708152D01*
X140142857Y-66708152D02*
X140285714Y-66708152D01*
X140285714Y-66708152D02*
X140380952Y-66755771D01*
X140380952Y-66755771D02*
X140428571Y-66851009D01*
X140428571Y-66851009D02*
X140428571Y-67374819D01*
X140857143Y-67327200D02*
X140952381Y-67374819D01*
X140952381Y-67374819D02*
X141142857Y-67374819D01*
X141142857Y-67374819D02*
X141238095Y-67327200D01*
X141238095Y-67327200D02*
X141285714Y-67231961D01*
X141285714Y-67231961D02*
X141285714Y-67184342D01*
X141285714Y-67184342D02*
X141238095Y-67089104D01*
X141238095Y-67089104D02*
X141142857Y-67041485D01*
X141142857Y-67041485D02*
X141000000Y-67041485D01*
X141000000Y-67041485D02*
X140904762Y-66993866D01*
X140904762Y-66993866D02*
X140857143Y-66898628D01*
X140857143Y-66898628D02*
X140857143Y-66851009D01*
X140857143Y-66851009D02*
X140904762Y-66755771D01*
X140904762Y-66755771D02*
X141000000Y-66708152D01*
X141000000Y-66708152D02*
X141142857Y-66708152D01*
X141142857Y-66708152D02*
X141238095Y-66755771D01*
X142095238Y-67327200D02*
X142000000Y-67374819D01*
X142000000Y-67374819D02*
X141809524Y-67374819D01*
X141809524Y-67374819D02*
X141714286Y-67327200D01*
X141714286Y-67327200D02*
X141666667Y-67231961D01*
X141666667Y-67231961D02*
X141666667Y-66851009D01*
X141666667Y-66851009D02*
X141714286Y-66755771D01*
X141714286Y-66755771D02*
X141809524Y-66708152D01*
X141809524Y-66708152D02*
X142000000Y-66708152D01*
X142000000Y-66708152D02*
X142095238Y-66755771D01*
X142095238Y-66755771D02*
X142142857Y-66851009D01*
X142142857Y-66851009D02*
X142142857Y-66946247D01*
X142142857Y-66946247D02*
X141666667Y-67041485D01*
X143333334Y-66993866D02*
X144095239Y-66993866D01*
X144571429Y-66708152D02*
X145333334Y-66993866D01*
X145333334Y-66993866D02*
X144571429Y-67279580D01*
X146523810Y-67089104D02*
X147000000Y-67089104D01*
X146428572Y-67374819D02*
X146761905Y-66374819D01*
X146761905Y-66374819D02*
X147095238Y-67374819D01*
X147428572Y-67374819D02*
X147428572Y-66708152D01*
X147428572Y-66898628D02*
X147476191Y-66803390D01*
X147476191Y-66803390D02*
X147523810Y-66755771D01*
X147523810Y-66755771D02*
X147619048Y-66708152D01*
X147619048Y-66708152D02*
X147714286Y-66708152D01*
X148476191Y-67374819D02*
X148476191Y-66374819D01*
X148476191Y-67327200D02*
X148380953Y-67374819D01*
X148380953Y-67374819D02*
X148190477Y-67374819D01*
X148190477Y-67374819D02*
X148095239Y-67327200D01*
X148095239Y-67327200D02*
X148047620Y-67279580D01*
X148047620Y-67279580D02*
X148000001Y-67184342D01*
X148000001Y-67184342D02*
X148000001Y-66898628D01*
X148000001Y-66898628D02*
X148047620Y-66803390D01*
X148047620Y-66803390D02*
X148095239Y-66755771D01*
X148095239Y-66755771D02*
X148190477Y-66708152D01*
X148190477Y-66708152D02*
X148380953Y-66708152D01*
X148380953Y-66708152D02*
X148476191Y-66755771D01*
X149380953Y-66708152D02*
X149380953Y-67374819D01*
X148952382Y-66708152D02*
X148952382Y-67231961D01*
X148952382Y-67231961D02*
X149000001Y-67327200D01*
X149000001Y-67327200D02*
X149095239Y-67374819D01*
X149095239Y-67374819D02*
X149238096Y-67374819D01*
X149238096Y-67374819D02*
X149333334Y-67327200D01*
X149333334Y-67327200D02*
X149380953Y-67279580D01*
X149857144Y-67374819D02*
X149857144Y-66708152D01*
X149857144Y-66374819D02*
X149809525Y-66422438D01*
X149809525Y-66422438D02*
X149857144Y-66470057D01*
X149857144Y-66470057D02*
X149904763Y-66422438D01*
X149904763Y-66422438D02*
X149857144Y-66374819D01*
X149857144Y-66374819D02*
X149857144Y-66470057D01*
X150333334Y-66708152D02*
X150333334Y-67374819D01*
X150333334Y-66803390D02*
X150380953Y-66755771D01*
X150380953Y-66755771D02*
X150476191Y-66708152D01*
X150476191Y-66708152D02*
X150619048Y-66708152D01*
X150619048Y-66708152D02*
X150714286Y-66755771D01*
X150714286Y-66755771D02*
X150761905Y-66851009D01*
X150761905Y-66851009D02*
X150761905Y-67374819D01*
X151380953Y-67374819D02*
X151285715Y-67327200D01*
X151285715Y-67327200D02*
X151238096Y-67279580D01*
X151238096Y-67279580D02*
X151190477Y-67184342D01*
X151190477Y-67184342D02*
X151190477Y-66898628D01*
X151190477Y-66898628D02*
X151238096Y-66803390D01*
X151238096Y-66803390D02*
X151285715Y-66755771D01*
X151285715Y-66755771D02*
X151380953Y-66708152D01*
X151380953Y-66708152D02*
X151523810Y-66708152D01*
X151523810Y-66708152D02*
X151619048Y-66755771D01*
X151619048Y-66755771D02*
X151666667Y-66803390D01*
X151666667Y-66803390D02*
X151714286Y-66898628D01*
X151714286Y-66898628D02*
X151714286Y-67184342D01*
X151714286Y-67184342D02*
X151666667Y-67279580D01*
X151666667Y-67279580D02*
X151619048Y-67327200D01*
X151619048Y-67327200D02*
X151523810Y-67374819D01*
X151523810Y-67374819D02*
X151380953Y-67374819D01*
X144454819Y-62333333D02*
X145169104Y-62333333D01*
X145169104Y-62333333D02*
X145311961Y-62380952D01*
X145311961Y-62380952D02*
X145407200Y-62476190D01*
X145407200Y-62476190D02*
X145454819Y-62619047D01*
X145454819Y-62619047D02*
X145454819Y-62714285D01*
X144454819Y-61952380D02*
X144454819Y-61333333D01*
X144454819Y-61333333D02*
X144835771Y-61666666D01*
X144835771Y-61666666D02*
X144835771Y-61523809D01*
X144835771Y-61523809D02*
X144883390Y-61428571D01*
X144883390Y-61428571D02*
X144931009Y-61380952D01*
X144931009Y-61380952D02*
X145026247Y-61333333D01*
X145026247Y-61333333D02*
X145264342Y-61333333D01*
X145264342Y-61333333D02*
X145359580Y-61380952D01*
X145359580Y-61380952D02*
X145407200Y-61428571D01*
X145407200Y-61428571D02*
X145454819Y-61523809D01*
X145454819Y-61523809D02*
X145454819Y-61809523D01*
X145454819Y-61809523D02*
X145407200Y-61904761D01*
X145407200Y-61904761D02*
X145359580Y-61952380D01*
X54833333Y-40084819D02*
X54261905Y-40084819D01*
X54547619Y-40084819D02*
X54547619Y-39084819D01*
X54547619Y-39084819D02*
X54452381Y-39227676D01*
X54452381Y-39227676D02*
X54357143Y-39322914D01*
X54357143Y-39322914D02*
X54261905Y-39370533D01*
X55833333Y-40084819D02*
X55500000Y-39608628D01*
X55261905Y-40084819D02*
X55261905Y-39084819D01*
X55261905Y-39084819D02*
X55642857Y-39084819D01*
X55642857Y-39084819D02*
X55738095Y-39132438D01*
X55738095Y-39132438D02*
X55785714Y-39180057D01*
X55785714Y-39180057D02*
X55833333Y-39275295D01*
X55833333Y-39275295D02*
X55833333Y-39418152D01*
X55833333Y-39418152D02*
X55785714Y-39513390D01*
X55785714Y-39513390D02*
X55738095Y-39561009D01*
X55738095Y-39561009D02*
X55642857Y-39608628D01*
X55642857Y-39608628D02*
X55261905Y-39608628D01*
X56452381Y-39084819D02*
X56547619Y-39084819D01*
X56547619Y-39084819D02*
X56642857Y-39132438D01*
X56642857Y-39132438D02*
X56690476Y-39180057D01*
X56690476Y-39180057D02*
X56738095Y-39275295D01*
X56738095Y-39275295D02*
X56785714Y-39465771D01*
X56785714Y-39465771D02*
X56785714Y-39703866D01*
X56785714Y-39703866D02*
X56738095Y-39894342D01*
X56738095Y-39894342D02*
X56690476Y-39989580D01*
X56690476Y-39989580D02*
X56642857Y-40037200D01*
X56642857Y-40037200D02*
X56547619Y-40084819D01*
X56547619Y-40084819D02*
X56452381Y-40084819D01*
X56452381Y-40084819D02*
X56357143Y-40037200D01*
X56357143Y-40037200D02*
X56309524Y-39989580D01*
X56309524Y-39989580D02*
X56261905Y-39894342D01*
X56261905Y-39894342D02*
X56214286Y-39703866D01*
X56214286Y-39703866D02*
X56214286Y-39465771D01*
X56214286Y-39465771D02*
X56261905Y-39275295D01*
X56261905Y-39275295D02*
X56309524Y-39180057D01*
X56309524Y-39180057D02*
X56357143Y-39132438D01*
X56357143Y-39132438D02*
X56452381Y-39084819D01*
X57404762Y-39084819D02*
X57500000Y-39084819D01*
X57500000Y-39084819D02*
X57595238Y-39132438D01*
X57595238Y-39132438D02*
X57642857Y-39180057D01*
X57642857Y-39180057D02*
X57690476Y-39275295D01*
X57690476Y-39275295D02*
X57738095Y-39465771D01*
X57738095Y-39465771D02*
X57738095Y-39703866D01*
X57738095Y-39703866D02*
X57690476Y-39894342D01*
X57690476Y-39894342D02*
X57642857Y-39989580D01*
X57642857Y-39989580D02*
X57595238Y-40037200D01*
X57595238Y-40037200D02*
X57500000Y-40084819D01*
X57500000Y-40084819D02*
X57404762Y-40084819D01*
X57404762Y-40084819D02*
X57309524Y-40037200D01*
X57309524Y-40037200D02*
X57261905Y-39989580D01*
X57261905Y-39989580D02*
X57214286Y-39894342D01*
X57214286Y-39894342D02*
X57166667Y-39703866D01*
X57166667Y-39703866D02*
X57166667Y-39465771D01*
X57166667Y-39465771D02*
X57214286Y-39275295D01*
X57214286Y-39275295D02*
X57261905Y-39180057D01*
X57261905Y-39180057D02*
X57309524Y-39132438D01*
X57309524Y-39132438D02*
X57404762Y-39084819D01*
X55833333Y-42454819D02*
X55500000Y-41978628D01*
X55261905Y-42454819D02*
X55261905Y-41454819D01*
X55261905Y-41454819D02*
X55642857Y-41454819D01*
X55642857Y-41454819D02*
X55738095Y-41502438D01*
X55738095Y-41502438D02*
X55785714Y-41550057D01*
X55785714Y-41550057D02*
X55833333Y-41645295D01*
X55833333Y-41645295D02*
X55833333Y-41788152D01*
X55833333Y-41788152D02*
X55785714Y-41883390D01*
X55785714Y-41883390D02*
X55738095Y-41931009D01*
X55738095Y-41931009D02*
X55642857Y-41978628D01*
X55642857Y-41978628D02*
X55261905Y-41978628D01*
X56690476Y-41454819D02*
X56500000Y-41454819D01*
X56500000Y-41454819D02*
X56404762Y-41502438D01*
X56404762Y-41502438D02*
X56357143Y-41550057D01*
X56357143Y-41550057D02*
X56261905Y-41692914D01*
X56261905Y-41692914D02*
X56214286Y-41883390D01*
X56214286Y-41883390D02*
X56214286Y-42264342D01*
X56214286Y-42264342D02*
X56261905Y-42359580D01*
X56261905Y-42359580D02*
X56309524Y-42407200D01*
X56309524Y-42407200D02*
X56404762Y-42454819D01*
X56404762Y-42454819D02*
X56595238Y-42454819D01*
X56595238Y-42454819D02*
X56690476Y-42407200D01*
X56690476Y-42407200D02*
X56738095Y-42359580D01*
X56738095Y-42359580D02*
X56785714Y-42264342D01*
X56785714Y-42264342D02*
X56785714Y-42026247D01*
X56785714Y-42026247D02*
X56738095Y-41931009D01*
X56738095Y-41931009D02*
X56690476Y-41883390D01*
X56690476Y-41883390D02*
X56595238Y-41835771D01*
X56595238Y-41835771D02*
X56404762Y-41835771D01*
X56404762Y-41835771D02*
X56309524Y-41883390D01*
X56309524Y-41883390D02*
X56261905Y-41931009D01*
X56261905Y-41931009D02*
X56214286Y-42026247D01*
X117595238Y-46604819D02*
X118166666Y-46604819D01*
X117880952Y-47604819D02*
X117880952Y-46604819D01*
X118500000Y-47604819D02*
X118500000Y-46604819D01*
X118976190Y-47604819D02*
X118976190Y-46604819D01*
X118976190Y-46604819D02*
X119357142Y-46604819D01*
X119357142Y-46604819D02*
X119452380Y-46652438D01*
X119452380Y-46652438D02*
X119499999Y-46700057D01*
X119499999Y-46700057D02*
X119547618Y-46795295D01*
X119547618Y-46795295D02*
X119547618Y-46938152D01*
X119547618Y-46938152D02*
X119499999Y-47033390D01*
X119499999Y-47033390D02*
X119452380Y-47081009D01*
X119452380Y-47081009D02*
X119357142Y-47128628D01*
X119357142Y-47128628D02*
X118976190Y-47128628D01*
X120404761Y-46938152D02*
X120404761Y-47604819D01*
X120166666Y-46557200D02*
X119928571Y-47271485D01*
X119928571Y-47271485D02*
X120547618Y-47271485D01*
X121452380Y-47604819D02*
X120880952Y-47604819D01*
X121166666Y-47604819D02*
X121166666Y-46604819D01*
X121166666Y-46604819D02*
X121071428Y-46747676D01*
X121071428Y-46747676D02*
X120976190Y-46842914D01*
X120976190Y-46842914D02*
X120880952Y-46890533D01*
X121833333Y-47319104D02*
X122309523Y-47319104D01*
X121738095Y-47604819D02*
X122071428Y-46604819D01*
X122071428Y-46604819D02*
X122404761Y-47604819D01*
X119904761Y-44550057D02*
X119809523Y-44502438D01*
X119809523Y-44502438D02*
X119714285Y-44407200D01*
X119714285Y-44407200D02*
X119571428Y-44264342D01*
X119571428Y-44264342D02*
X119476190Y-44216723D01*
X119476190Y-44216723D02*
X119380952Y-44216723D01*
X119428571Y-44454819D02*
X119333333Y-44407200D01*
X119333333Y-44407200D02*
X119238095Y-44311961D01*
X119238095Y-44311961D02*
X119190476Y-44121485D01*
X119190476Y-44121485D02*
X119190476Y-43788152D01*
X119190476Y-43788152D02*
X119238095Y-43597676D01*
X119238095Y-43597676D02*
X119333333Y-43502438D01*
X119333333Y-43502438D02*
X119428571Y-43454819D01*
X119428571Y-43454819D02*
X119619047Y-43454819D01*
X119619047Y-43454819D02*
X119714285Y-43502438D01*
X119714285Y-43502438D02*
X119809523Y-43597676D01*
X119809523Y-43597676D02*
X119857142Y-43788152D01*
X119857142Y-43788152D02*
X119857142Y-44121485D01*
X119857142Y-44121485D02*
X119809523Y-44311961D01*
X119809523Y-44311961D02*
X119714285Y-44407200D01*
X119714285Y-44407200D02*
X119619047Y-44454819D01*
X119619047Y-44454819D02*
X119428571Y-44454819D01*
X120809523Y-44454819D02*
X120238095Y-44454819D01*
X120523809Y-44454819D02*
X120523809Y-43454819D01*
X120523809Y-43454819D02*
X120428571Y-43597676D01*
X120428571Y-43597676D02*
X120333333Y-43692914D01*
X120333333Y-43692914D02*
X120238095Y-43740533D01*
X80676961Y-41038152D02*
X80676961Y-41704819D01*
X80438866Y-40657200D02*
X80200771Y-41371485D01*
X80200771Y-41371485D02*
X80819818Y-41371485D01*
X81105533Y-40704819D02*
X81772199Y-40704819D01*
X81772199Y-40704819D02*
X81343628Y-41704819D01*
X82343628Y-40704819D02*
X82438866Y-40704819D01*
X82438866Y-40704819D02*
X82534104Y-40752438D01*
X82534104Y-40752438D02*
X82581723Y-40800057D01*
X82581723Y-40800057D02*
X82629342Y-40895295D01*
X82629342Y-40895295D02*
X82676961Y-41085771D01*
X82676961Y-41085771D02*
X82676961Y-41323866D01*
X82676961Y-41323866D02*
X82629342Y-41514342D01*
X82629342Y-41514342D02*
X82581723Y-41609580D01*
X82581723Y-41609580D02*
X82534104Y-41657200D01*
X82534104Y-41657200D02*
X82438866Y-41704819D01*
X82438866Y-41704819D02*
X82343628Y-41704819D01*
X82343628Y-41704819D02*
X82248390Y-41657200D01*
X82248390Y-41657200D02*
X82200771Y-41609580D01*
X82200771Y-41609580D02*
X82153152Y-41514342D01*
X82153152Y-41514342D02*
X82105533Y-41323866D01*
X82105533Y-41323866D02*
X82105533Y-41085771D01*
X82105533Y-41085771D02*
X82153152Y-40895295D01*
X82153152Y-40895295D02*
X82200771Y-40800057D01*
X82200771Y-40800057D02*
X82248390Y-40752438D01*
X82248390Y-40752438D02*
X82343628Y-40704819D01*
X83296009Y-40704819D02*
X83391247Y-40704819D01*
X83391247Y-40704819D02*
X83486485Y-40752438D01*
X83486485Y-40752438D02*
X83534104Y-40800057D01*
X83534104Y-40800057D02*
X83581723Y-40895295D01*
X83581723Y-40895295D02*
X83629342Y-41085771D01*
X83629342Y-41085771D02*
X83629342Y-41323866D01*
X83629342Y-41323866D02*
X83581723Y-41514342D01*
X83581723Y-41514342D02*
X83534104Y-41609580D01*
X83534104Y-41609580D02*
X83486485Y-41657200D01*
X83486485Y-41657200D02*
X83391247Y-41704819D01*
X83391247Y-41704819D02*
X83296009Y-41704819D01*
X83296009Y-41704819D02*
X83200771Y-41657200D01*
X83200771Y-41657200D02*
X83153152Y-41609580D01*
X83153152Y-41609580D02*
X83105533Y-41514342D01*
X83105533Y-41514342D02*
X83057914Y-41323866D01*
X83057914Y-41323866D02*
X83057914Y-41085771D01*
X83057914Y-41085771D02*
X83105533Y-40895295D01*
X83105533Y-40895295D02*
X83153152Y-40800057D01*
X83153152Y-40800057D02*
X83200771Y-40752438D01*
X83200771Y-40752438D02*
X83296009Y-40704819D01*
X84486485Y-41038152D02*
X84486485Y-41704819D01*
X84057914Y-41038152D02*
X84057914Y-41561961D01*
X84057914Y-41561961D02*
X84105533Y-41657200D01*
X84105533Y-41657200D02*
X84200771Y-41704819D01*
X84200771Y-41704819D02*
X84343628Y-41704819D01*
X84343628Y-41704819D02*
X84438866Y-41657200D01*
X84438866Y-41657200D02*
X84486485Y-41609580D01*
X85676961Y-40657200D02*
X84819819Y-41942914D01*
X86486485Y-40704819D02*
X86010295Y-40704819D01*
X86010295Y-40704819D02*
X85962676Y-41181009D01*
X85962676Y-41181009D02*
X86010295Y-41133390D01*
X86010295Y-41133390D02*
X86105533Y-41085771D01*
X86105533Y-41085771D02*
X86343628Y-41085771D01*
X86343628Y-41085771D02*
X86438866Y-41133390D01*
X86438866Y-41133390D02*
X86486485Y-41181009D01*
X86486485Y-41181009D02*
X86534104Y-41276247D01*
X86534104Y-41276247D02*
X86534104Y-41514342D01*
X86534104Y-41514342D02*
X86486485Y-41609580D01*
X86486485Y-41609580D02*
X86438866Y-41657200D01*
X86438866Y-41657200D02*
X86343628Y-41704819D01*
X86343628Y-41704819D02*
X86105533Y-41704819D01*
X86105533Y-41704819D02*
X86010295Y-41657200D01*
X86010295Y-41657200D02*
X85962676Y-41609580D01*
X87153152Y-40704819D02*
X87248390Y-40704819D01*
X87248390Y-40704819D02*
X87343628Y-40752438D01*
X87343628Y-40752438D02*
X87391247Y-40800057D01*
X87391247Y-40800057D02*
X87438866Y-40895295D01*
X87438866Y-40895295D02*
X87486485Y-41085771D01*
X87486485Y-41085771D02*
X87486485Y-41323866D01*
X87486485Y-41323866D02*
X87438866Y-41514342D01*
X87438866Y-41514342D02*
X87391247Y-41609580D01*
X87391247Y-41609580D02*
X87343628Y-41657200D01*
X87343628Y-41657200D02*
X87248390Y-41704819D01*
X87248390Y-41704819D02*
X87153152Y-41704819D01*
X87153152Y-41704819D02*
X87057914Y-41657200D01*
X87057914Y-41657200D02*
X87010295Y-41609580D01*
X87010295Y-41609580D02*
X86962676Y-41514342D01*
X86962676Y-41514342D02*
X86915057Y-41323866D01*
X86915057Y-41323866D02*
X86915057Y-41085771D01*
X86915057Y-41085771D02*
X86962676Y-40895295D01*
X86962676Y-40895295D02*
X87010295Y-40800057D01*
X87010295Y-40800057D02*
X87057914Y-40752438D01*
X87057914Y-40752438D02*
X87153152Y-40704819D01*
X87772200Y-40704819D02*
X88105533Y-41704819D01*
X88105533Y-41704819D02*
X88438866Y-40704819D01*
X84105533Y-31359580D02*
X84057914Y-31407200D01*
X84057914Y-31407200D02*
X83915057Y-31454819D01*
X83915057Y-31454819D02*
X83819819Y-31454819D01*
X83819819Y-31454819D02*
X83676962Y-31407200D01*
X83676962Y-31407200D02*
X83581724Y-31311961D01*
X83581724Y-31311961D02*
X83534105Y-31216723D01*
X83534105Y-31216723D02*
X83486486Y-31026247D01*
X83486486Y-31026247D02*
X83486486Y-30883390D01*
X83486486Y-30883390D02*
X83534105Y-30692914D01*
X83534105Y-30692914D02*
X83581724Y-30597676D01*
X83581724Y-30597676D02*
X83676962Y-30502438D01*
X83676962Y-30502438D02*
X83819819Y-30454819D01*
X83819819Y-30454819D02*
X83915057Y-30454819D01*
X83915057Y-30454819D02*
X84057914Y-30502438D01*
X84057914Y-30502438D02*
X84105533Y-30550057D01*
X84486486Y-30550057D02*
X84534105Y-30502438D01*
X84534105Y-30502438D02*
X84629343Y-30454819D01*
X84629343Y-30454819D02*
X84867438Y-30454819D01*
X84867438Y-30454819D02*
X84962676Y-30502438D01*
X84962676Y-30502438D02*
X85010295Y-30550057D01*
X85010295Y-30550057D02*
X85057914Y-30645295D01*
X85057914Y-30645295D02*
X85057914Y-30740533D01*
X85057914Y-30740533D02*
X85010295Y-30883390D01*
X85010295Y-30883390D02*
X84438867Y-31454819D01*
X84438867Y-31454819D02*
X85057914Y-31454819D01*
X47857142Y-26924819D02*
X47285714Y-26924819D01*
X47571428Y-26924819D02*
X47571428Y-25924819D01*
X47571428Y-25924819D02*
X47476190Y-26067676D01*
X47476190Y-26067676D02*
X47380952Y-26162914D01*
X47380952Y-26162914D02*
X47285714Y-26210533D01*
X48285714Y-26924819D02*
X48285714Y-25924819D01*
X48285714Y-25924819D02*
X48857142Y-26924819D01*
X48857142Y-26924819D02*
X48857142Y-25924819D01*
X49809523Y-25924819D02*
X49333333Y-25924819D01*
X49333333Y-25924819D02*
X49285714Y-26401009D01*
X49285714Y-26401009D02*
X49333333Y-26353390D01*
X49333333Y-26353390D02*
X49428571Y-26305771D01*
X49428571Y-26305771D02*
X49666666Y-26305771D01*
X49666666Y-26305771D02*
X49761904Y-26353390D01*
X49761904Y-26353390D02*
X49809523Y-26401009D01*
X49809523Y-26401009D02*
X49857142Y-26496247D01*
X49857142Y-26496247D02*
X49857142Y-26734342D01*
X49857142Y-26734342D02*
X49809523Y-26829580D01*
X49809523Y-26829580D02*
X49761904Y-26877200D01*
X49761904Y-26877200D02*
X49666666Y-26924819D01*
X49666666Y-26924819D02*
X49428571Y-26924819D01*
X49428571Y-26924819D02*
X49333333Y-26877200D01*
X49333333Y-26877200D02*
X49285714Y-26829580D01*
X50428571Y-26353390D02*
X50333333Y-26305771D01*
X50333333Y-26305771D02*
X50285714Y-26258152D01*
X50285714Y-26258152D02*
X50238095Y-26162914D01*
X50238095Y-26162914D02*
X50238095Y-26115295D01*
X50238095Y-26115295D02*
X50285714Y-26020057D01*
X50285714Y-26020057D02*
X50333333Y-25972438D01*
X50333333Y-25972438D02*
X50428571Y-25924819D01*
X50428571Y-25924819D02*
X50619047Y-25924819D01*
X50619047Y-25924819D02*
X50714285Y-25972438D01*
X50714285Y-25972438D02*
X50761904Y-26020057D01*
X50761904Y-26020057D02*
X50809523Y-26115295D01*
X50809523Y-26115295D02*
X50809523Y-26162914D01*
X50809523Y-26162914D02*
X50761904Y-26258152D01*
X50761904Y-26258152D02*
X50714285Y-26305771D01*
X50714285Y-26305771D02*
X50619047Y-26353390D01*
X50619047Y-26353390D02*
X50428571Y-26353390D01*
X50428571Y-26353390D02*
X50333333Y-26401009D01*
X50333333Y-26401009D02*
X50285714Y-26448628D01*
X50285714Y-26448628D02*
X50238095Y-26543866D01*
X50238095Y-26543866D02*
X50238095Y-26734342D01*
X50238095Y-26734342D02*
X50285714Y-26829580D01*
X50285714Y-26829580D02*
X50333333Y-26877200D01*
X50333333Y-26877200D02*
X50428571Y-26924819D01*
X50428571Y-26924819D02*
X50619047Y-26924819D01*
X50619047Y-26924819D02*
X50714285Y-26877200D01*
X50714285Y-26877200D02*
X50761904Y-26829580D01*
X50761904Y-26829580D02*
X50809523Y-26734342D01*
X50809523Y-26734342D02*
X50809523Y-26543866D01*
X50809523Y-26543866D02*
X50761904Y-26448628D01*
X50761904Y-26448628D02*
X50714285Y-26401009D01*
X50714285Y-26401009D02*
X50619047Y-26353390D01*
X51761904Y-26924819D02*
X51190476Y-26924819D01*
X51476190Y-26924819D02*
X51476190Y-25924819D01*
X51476190Y-25924819D02*
X51380952Y-26067676D01*
X51380952Y-26067676D02*
X51285714Y-26162914D01*
X51285714Y-26162914D02*
X51190476Y-26210533D01*
X52095238Y-25924819D02*
X52761904Y-25924819D01*
X52761904Y-25924819D02*
X52333333Y-26924819D01*
X44658095Y-22354819D02*
X44658095Y-21354819D01*
X45229523Y-22354819D02*
X44800952Y-21783390D01*
X45229523Y-21354819D02*
X44658095Y-21926247D01*
X49651905Y-24454819D02*
X49651905Y-23454819D01*
X49651905Y-23454819D02*
X49890000Y-23454819D01*
X49890000Y-23454819D02*
X50032857Y-23502438D01*
X50032857Y-23502438D02*
X50128095Y-23597676D01*
X50128095Y-23597676D02*
X50175714Y-23692914D01*
X50175714Y-23692914D02*
X50223333Y-23883390D01*
X50223333Y-23883390D02*
X50223333Y-24026247D01*
X50223333Y-24026247D02*
X50175714Y-24216723D01*
X50175714Y-24216723D02*
X50128095Y-24311961D01*
X50128095Y-24311961D02*
X50032857Y-24407200D01*
X50032857Y-24407200D02*
X49890000Y-24454819D01*
X49890000Y-24454819D02*
X49651905Y-24454819D01*
X51175714Y-24454819D02*
X50604286Y-24454819D01*
X50890000Y-24454819D02*
X50890000Y-23454819D01*
X50890000Y-23454819D02*
X50794762Y-23597676D01*
X50794762Y-23597676D02*
X50699524Y-23692914D01*
X50699524Y-23692914D02*
X50604286Y-23740533D01*
X78309523Y-64594819D02*
X77833333Y-64594819D01*
X77833333Y-64594819D02*
X77833333Y-63594819D01*
X78642857Y-64594819D02*
X78642857Y-63594819D01*
X78642857Y-63594819D02*
X78976190Y-64309104D01*
X78976190Y-64309104D02*
X79309523Y-63594819D01*
X79309523Y-63594819D02*
X79309523Y-64594819D01*
X79690476Y-63594819D02*
X80309523Y-63594819D01*
X80309523Y-63594819D02*
X79976190Y-63975771D01*
X79976190Y-63975771D02*
X80119047Y-63975771D01*
X80119047Y-63975771D02*
X80214285Y-64023390D01*
X80214285Y-64023390D02*
X80261904Y-64071009D01*
X80261904Y-64071009D02*
X80309523Y-64166247D01*
X80309523Y-64166247D02*
X80309523Y-64404342D01*
X80309523Y-64404342D02*
X80261904Y-64499580D01*
X80261904Y-64499580D02*
X80214285Y-64547200D01*
X80214285Y-64547200D02*
X80119047Y-64594819D01*
X80119047Y-64594819D02*
X79833333Y-64594819D01*
X79833333Y-64594819D02*
X79738095Y-64547200D01*
X79738095Y-64547200D02*
X79690476Y-64499580D01*
X81214285Y-63594819D02*
X80738095Y-63594819D01*
X80738095Y-63594819D02*
X80690476Y-64071009D01*
X80690476Y-64071009D02*
X80738095Y-64023390D01*
X80738095Y-64023390D02*
X80833333Y-63975771D01*
X80833333Y-63975771D02*
X81071428Y-63975771D01*
X81071428Y-63975771D02*
X81166666Y-64023390D01*
X81166666Y-64023390D02*
X81214285Y-64071009D01*
X81214285Y-64071009D02*
X81261904Y-64166247D01*
X81261904Y-64166247D02*
X81261904Y-64404342D01*
X81261904Y-64404342D02*
X81214285Y-64499580D01*
X81214285Y-64499580D02*
X81166666Y-64547200D01*
X81166666Y-64547200D02*
X81071428Y-64594819D01*
X81071428Y-64594819D02*
X80833333Y-64594819D01*
X80833333Y-64594819D02*
X80738095Y-64547200D01*
X80738095Y-64547200D02*
X80690476Y-64499580D01*
X81833333Y-64023390D02*
X81738095Y-63975771D01*
X81738095Y-63975771D02*
X81690476Y-63928152D01*
X81690476Y-63928152D02*
X81642857Y-63832914D01*
X81642857Y-63832914D02*
X81642857Y-63785295D01*
X81642857Y-63785295D02*
X81690476Y-63690057D01*
X81690476Y-63690057D02*
X81738095Y-63642438D01*
X81738095Y-63642438D02*
X81833333Y-63594819D01*
X81833333Y-63594819D02*
X82023809Y-63594819D01*
X82023809Y-63594819D02*
X82119047Y-63642438D01*
X82119047Y-63642438D02*
X82166666Y-63690057D01*
X82166666Y-63690057D02*
X82214285Y-63785295D01*
X82214285Y-63785295D02*
X82214285Y-63832914D01*
X82214285Y-63832914D02*
X82166666Y-63928152D01*
X82166666Y-63928152D02*
X82119047Y-63975771D01*
X82119047Y-63975771D02*
X82023809Y-64023390D01*
X82023809Y-64023390D02*
X81833333Y-64023390D01*
X81833333Y-64023390D02*
X81738095Y-64071009D01*
X81738095Y-64071009D02*
X81690476Y-64118628D01*
X81690476Y-64118628D02*
X81642857Y-64213866D01*
X81642857Y-64213866D02*
X81642857Y-64404342D01*
X81642857Y-64404342D02*
X81690476Y-64499580D01*
X81690476Y-64499580D02*
X81738095Y-64547200D01*
X81738095Y-64547200D02*
X81833333Y-64594819D01*
X81833333Y-64594819D02*
X82023809Y-64594819D01*
X82023809Y-64594819D02*
X82119047Y-64547200D01*
X82119047Y-64547200D02*
X82166666Y-64499580D01*
X82166666Y-64499580D02*
X82214285Y-64404342D01*
X82214285Y-64404342D02*
X82214285Y-64213866D01*
X82214285Y-64213866D02*
X82166666Y-64118628D01*
X82166666Y-64118628D02*
X82119047Y-64071009D01*
X82119047Y-64071009D02*
X82023809Y-64023390D01*
X79454819Y-58761904D02*
X80264342Y-58761904D01*
X80264342Y-58761904D02*
X80359580Y-58714285D01*
X80359580Y-58714285D02*
X80407200Y-58666666D01*
X80407200Y-58666666D02*
X80454819Y-58571428D01*
X80454819Y-58571428D02*
X80454819Y-58380952D01*
X80454819Y-58380952D02*
X80407200Y-58285714D01*
X80407200Y-58285714D02*
X80359580Y-58238095D01*
X80359580Y-58238095D02*
X80264342Y-58190476D01*
X80264342Y-58190476D02*
X79454819Y-58190476D01*
X80454819Y-57190476D02*
X80454819Y-57761904D01*
X80454819Y-57476190D02*
X79454819Y-57476190D01*
X79454819Y-57476190D02*
X79597676Y-57571428D01*
X79597676Y-57571428D02*
X79692914Y-57666666D01*
X79692914Y-57666666D02*
X79740533Y-57761904D01*
X48928571Y-72824819D02*
X48357143Y-72824819D01*
X48642857Y-72824819D02*
X48642857Y-71824819D01*
X48642857Y-71824819D02*
X48547619Y-71967676D01*
X48547619Y-71967676D02*
X48452381Y-72062914D01*
X48452381Y-72062914D02*
X48357143Y-72110533D01*
X49547619Y-71824819D02*
X49642857Y-71824819D01*
X49642857Y-71824819D02*
X49738095Y-71872438D01*
X49738095Y-71872438D02*
X49785714Y-71920057D01*
X49785714Y-71920057D02*
X49833333Y-72015295D01*
X49833333Y-72015295D02*
X49880952Y-72205771D01*
X49880952Y-72205771D02*
X49880952Y-72443866D01*
X49880952Y-72443866D02*
X49833333Y-72634342D01*
X49833333Y-72634342D02*
X49785714Y-72729580D01*
X49785714Y-72729580D02*
X49738095Y-72777200D01*
X49738095Y-72777200D02*
X49642857Y-72824819D01*
X49642857Y-72824819D02*
X49547619Y-72824819D01*
X49547619Y-72824819D02*
X49452381Y-72777200D01*
X49452381Y-72777200D02*
X49404762Y-72729580D01*
X49404762Y-72729580D02*
X49357143Y-72634342D01*
X49357143Y-72634342D02*
X49309524Y-72443866D01*
X49309524Y-72443866D02*
X49309524Y-72205771D01*
X49309524Y-72205771D02*
X49357143Y-72015295D01*
X49357143Y-72015295D02*
X49404762Y-71920057D01*
X49404762Y-71920057D02*
X49452381Y-71872438D01*
X49452381Y-71872438D02*
X49547619Y-71824819D01*
X50500000Y-71824819D02*
X50595238Y-71824819D01*
X50595238Y-71824819D02*
X50690476Y-71872438D01*
X50690476Y-71872438D02*
X50738095Y-71920057D01*
X50738095Y-71920057D02*
X50785714Y-72015295D01*
X50785714Y-72015295D02*
X50833333Y-72205771D01*
X50833333Y-72205771D02*
X50833333Y-72443866D01*
X50833333Y-72443866D02*
X50785714Y-72634342D01*
X50785714Y-72634342D02*
X50738095Y-72729580D01*
X50738095Y-72729580D02*
X50690476Y-72777200D01*
X50690476Y-72777200D02*
X50595238Y-72824819D01*
X50595238Y-72824819D02*
X50500000Y-72824819D01*
X50500000Y-72824819D02*
X50404762Y-72777200D01*
X50404762Y-72777200D02*
X50357143Y-72729580D01*
X50357143Y-72729580D02*
X50309524Y-72634342D01*
X50309524Y-72634342D02*
X50261905Y-72443866D01*
X50261905Y-72443866D02*
X50261905Y-72205771D01*
X50261905Y-72205771D02*
X50309524Y-72015295D01*
X50309524Y-72015295D02*
X50357143Y-71920057D01*
X50357143Y-71920057D02*
X50404762Y-71872438D01*
X50404762Y-71872438D02*
X50500000Y-71824819D01*
X51261905Y-72824819D02*
X51261905Y-71824819D01*
X51357143Y-72443866D02*
X51642857Y-72824819D01*
X51642857Y-72158152D02*
X51261905Y-72539104D01*
X49833333Y-70454819D02*
X49500000Y-69978628D01*
X49261905Y-70454819D02*
X49261905Y-69454819D01*
X49261905Y-69454819D02*
X49642857Y-69454819D01*
X49642857Y-69454819D02*
X49738095Y-69502438D01*
X49738095Y-69502438D02*
X49785714Y-69550057D01*
X49785714Y-69550057D02*
X49833333Y-69645295D01*
X49833333Y-69645295D02*
X49833333Y-69788152D01*
X49833333Y-69788152D02*
X49785714Y-69883390D01*
X49785714Y-69883390D02*
X49738095Y-69931009D01*
X49738095Y-69931009D02*
X49642857Y-69978628D01*
X49642857Y-69978628D02*
X49261905Y-69978628D01*
X50785714Y-70454819D02*
X50214286Y-70454819D01*
X50500000Y-70454819D02*
X50500000Y-69454819D01*
X50500000Y-69454819D02*
X50404762Y-69597676D01*
X50404762Y-69597676D02*
X50309524Y-69692914D01*
X50309524Y-69692914D02*
X50214286Y-69740533D01*
X62452381Y-58824819D02*
X62642857Y-58824819D01*
X62642857Y-58824819D02*
X62738095Y-58777200D01*
X62738095Y-58777200D02*
X62785714Y-58729580D01*
X62785714Y-58729580D02*
X62880952Y-58586723D01*
X62880952Y-58586723D02*
X62928571Y-58396247D01*
X62928571Y-58396247D02*
X62928571Y-58015295D01*
X62928571Y-58015295D02*
X62880952Y-57920057D01*
X62880952Y-57920057D02*
X62833333Y-57872438D01*
X62833333Y-57872438D02*
X62738095Y-57824819D01*
X62738095Y-57824819D02*
X62547619Y-57824819D01*
X62547619Y-57824819D02*
X62452381Y-57872438D01*
X62452381Y-57872438D02*
X62404762Y-57920057D01*
X62404762Y-57920057D02*
X62357143Y-58015295D01*
X62357143Y-58015295D02*
X62357143Y-58253390D01*
X62357143Y-58253390D02*
X62404762Y-58348628D01*
X62404762Y-58348628D02*
X62452381Y-58396247D01*
X62452381Y-58396247D02*
X62547619Y-58443866D01*
X62547619Y-58443866D02*
X62738095Y-58443866D01*
X62738095Y-58443866D02*
X62833333Y-58396247D01*
X62833333Y-58396247D02*
X62880952Y-58348628D01*
X62880952Y-58348628D02*
X62928571Y-58253390D01*
X63357143Y-58824819D02*
X63357143Y-57824819D01*
X63452381Y-58443866D02*
X63738095Y-58824819D01*
X63738095Y-58158152D02*
X63357143Y-58539104D01*
X64357143Y-57824819D02*
X64452381Y-57824819D01*
X64452381Y-57824819D02*
X64547619Y-57872438D01*
X64547619Y-57872438D02*
X64595238Y-57920057D01*
X64595238Y-57920057D02*
X64642857Y-58015295D01*
X64642857Y-58015295D02*
X64690476Y-58205771D01*
X64690476Y-58205771D02*
X64690476Y-58443866D01*
X64690476Y-58443866D02*
X64642857Y-58634342D01*
X64642857Y-58634342D02*
X64595238Y-58729580D01*
X64595238Y-58729580D02*
X64547619Y-58777200D01*
X64547619Y-58777200D02*
X64452381Y-58824819D01*
X64452381Y-58824819D02*
X64357143Y-58824819D01*
X64357143Y-58824819D02*
X64261905Y-58777200D01*
X64261905Y-58777200D02*
X64214286Y-58729580D01*
X64214286Y-58729580D02*
X64166667Y-58634342D01*
X64166667Y-58634342D02*
X64119048Y-58443866D01*
X64119048Y-58443866D02*
X64119048Y-58205771D01*
X64119048Y-58205771D02*
X64166667Y-58015295D01*
X64166667Y-58015295D02*
X64214286Y-57920057D01*
X64214286Y-57920057D02*
X64261905Y-57872438D01*
X64261905Y-57872438D02*
X64357143Y-57824819D01*
X65166667Y-58824819D02*
X65357143Y-58824819D01*
X65357143Y-58824819D02*
X65452381Y-58777200D01*
X65452381Y-58777200D02*
X65500000Y-58729580D01*
X65500000Y-58729580D02*
X65595238Y-58586723D01*
X65595238Y-58586723D02*
X65642857Y-58396247D01*
X65642857Y-58396247D02*
X65642857Y-58015295D01*
X65642857Y-58015295D02*
X65595238Y-57920057D01*
X65595238Y-57920057D02*
X65547619Y-57872438D01*
X65547619Y-57872438D02*
X65452381Y-57824819D01*
X65452381Y-57824819D02*
X65261905Y-57824819D01*
X65261905Y-57824819D02*
X65166667Y-57872438D01*
X65166667Y-57872438D02*
X65119048Y-57920057D01*
X65119048Y-57920057D02*
X65071429Y-58015295D01*
X65071429Y-58015295D02*
X65071429Y-58253390D01*
X65071429Y-58253390D02*
X65119048Y-58348628D01*
X65119048Y-58348628D02*
X65166667Y-58396247D01*
X65166667Y-58396247D02*
X65261905Y-58443866D01*
X65261905Y-58443866D02*
X65452381Y-58443866D01*
X65452381Y-58443866D02*
X65547619Y-58396247D01*
X65547619Y-58396247D02*
X65595238Y-58348628D01*
X65595238Y-58348628D02*
X65642857Y-58253390D01*
X63833333Y-56454819D02*
X63500000Y-55978628D01*
X63261905Y-56454819D02*
X63261905Y-55454819D01*
X63261905Y-55454819D02*
X63642857Y-55454819D01*
X63642857Y-55454819D02*
X63738095Y-55502438D01*
X63738095Y-55502438D02*
X63785714Y-55550057D01*
X63785714Y-55550057D02*
X63833333Y-55645295D01*
X63833333Y-55645295D02*
X63833333Y-55788152D01*
X63833333Y-55788152D02*
X63785714Y-55883390D01*
X63785714Y-55883390D02*
X63738095Y-55931009D01*
X63738095Y-55931009D02*
X63642857Y-55978628D01*
X63642857Y-55978628D02*
X63261905Y-55978628D01*
X64404762Y-55883390D02*
X64309524Y-55835771D01*
X64309524Y-55835771D02*
X64261905Y-55788152D01*
X64261905Y-55788152D02*
X64214286Y-55692914D01*
X64214286Y-55692914D02*
X64214286Y-55645295D01*
X64214286Y-55645295D02*
X64261905Y-55550057D01*
X64261905Y-55550057D02*
X64309524Y-55502438D01*
X64309524Y-55502438D02*
X64404762Y-55454819D01*
X64404762Y-55454819D02*
X64595238Y-55454819D01*
X64595238Y-55454819D02*
X64690476Y-55502438D01*
X64690476Y-55502438D02*
X64738095Y-55550057D01*
X64738095Y-55550057D02*
X64785714Y-55645295D01*
X64785714Y-55645295D02*
X64785714Y-55692914D01*
X64785714Y-55692914D02*
X64738095Y-55788152D01*
X64738095Y-55788152D02*
X64690476Y-55835771D01*
X64690476Y-55835771D02*
X64595238Y-55883390D01*
X64595238Y-55883390D02*
X64404762Y-55883390D01*
X64404762Y-55883390D02*
X64309524Y-55931009D01*
X64309524Y-55931009D02*
X64261905Y-55978628D01*
X64261905Y-55978628D02*
X64214286Y-56073866D01*
X64214286Y-56073866D02*
X64214286Y-56264342D01*
X64214286Y-56264342D02*
X64261905Y-56359580D01*
X64261905Y-56359580D02*
X64309524Y-56407200D01*
X64309524Y-56407200D02*
X64404762Y-56454819D01*
X64404762Y-56454819D02*
X64595238Y-56454819D01*
X64595238Y-56454819D02*
X64690476Y-56407200D01*
X64690476Y-56407200D02*
X64738095Y-56359580D01*
X64738095Y-56359580D02*
X64785714Y-56264342D01*
X64785714Y-56264342D02*
X64785714Y-56073866D01*
X64785714Y-56073866D02*
X64738095Y-55978628D01*
X64738095Y-55978628D02*
X64690476Y-55931009D01*
X64690476Y-55931009D02*
X64595238Y-55883390D01*
X104928571Y-54824819D02*
X104357143Y-54824819D01*
X104642857Y-54824819D02*
X104642857Y-53824819D01*
X104642857Y-53824819D02*
X104547619Y-53967676D01*
X104547619Y-53967676D02*
X104452381Y-54062914D01*
X104452381Y-54062914D02*
X104357143Y-54110533D01*
X105357143Y-54824819D02*
X105357143Y-53824819D01*
X105452381Y-54443866D02*
X105738095Y-54824819D01*
X105738095Y-54158152D02*
X105357143Y-54539104D01*
X106357143Y-53824819D02*
X106452381Y-53824819D01*
X106452381Y-53824819D02*
X106547619Y-53872438D01*
X106547619Y-53872438D02*
X106595238Y-53920057D01*
X106595238Y-53920057D02*
X106642857Y-54015295D01*
X106642857Y-54015295D02*
X106690476Y-54205771D01*
X106690476Y-54205771D02*
X106690476Y-54443866D01*
X106690476Y-54443866D02*
X106642857Y-54634342D01*
X106642857Y-54634342D02*
X106595238Y-54729580D01*
X106595238Y-54729580D02*
X106547619Y-54777200D01*
X106547619Y-54777200D02*
X106452381Y-54824819D01*
X106452381Y-54824819D02*
X106357143Y-54824819D01*
X106357143Y-54824819D02*
X106261905Y-54777200D01*
X106261905Y-54777200D02*
X106214286Y-54729580D01*
X106214286Y-54729580D02*
X106166667Y-54634342D01*
X106166667Y-54634342D02*
X106119048Y-54443866D01*
X106119048Y-54443866D02*
X106119048Y-54205771D01*
X106119048Y-54205771D02*
X106166667Y-54015295D01*
X106166667Y-54015295D02*
X106214286Y-53920057D01*
X106214286Y-53920057D02*
X106261905Y-53872438D01*
X106261905Y-53872438D02*
X106357143Y-53824819D01*
X107309524Y-53824819D02*
X107404762Y-53824819D01*
X107404762Y-53824819D02*
X107500000Y-53872438D01*
X107500000Y-53872438D02*
X107547619Y-53920057D01*
X107547619Y-53920057D02*
X107595238Y-54015295D01*
X107595238Y-54015295D02*
X107642857Y-54205771D01*
X107642857Y-54205771D02*
X107642857Y-54443866D01*
X107642857Y-54443866D02*
X107595238Y-54634342D01*
X107595238Y-54634342D02*
X107547619Y-54729580D01*
X107547619Y-54729580D02*
X107500000Y-54777200D01*
X107500000Y-54777200D02*
X107404762Y-54824819D01*
X107404762Y-54824819D02*
X107309524Y-54824819D01*
X107309524Y-54824819D02*
X107214286Y-54777200D01*
X107214286Y-54777200D02*
X107166667Y-54729580D01*
X107166667Y-54729580D02*
X107119048Y-54634342D01*
X107119048Y-54634342D02*
X107071429Y-54443866D01*
X107071429Y-54443866D02*
X107071429Y-54205771D01*
X107071429Y-54205771D02*
X107119048Y-54015295D01*
X107119048Y-54015295D02*
X107166667Y-53920057D01*
X107166667Y-53920057D02*
X107214286Y-53872438D01*
X107214286Y-53872438D02*
X107309524Y-53824819D01*
X105833333Y-52454819D02*
X105500000Y-51978628D01*
X105261905Y-52454819D02*
X105261905Y-51454819D01*
X105261905Y-51454819D02*
X105642857Y-51454819D01*
X105642857Y-51454819D02*
X105738095Y-51502438D01*
X105738095Y-51502438D02*
X105785714Y-51550057D01*
X105785714Y-51550057D02*
X105833333Y-51645295D01*
X105833333Y-51645295D02*
X105833333Y-51788152D01*
X105833333Y-51788152D02*
X105785714Y-51883390D01*
X105785714Y-51883390D02*
X105738095Y-51931009D01*
X105738095Y-51931009D02*
X105642857Y-51978628D01*
X105642857Y-51978628D02*
X105261905Y-51978628D01*
X106690476Y-51788152D02*
X106690476Y-52454819D01*
X106452381Y-51407200D02*
X106214286Y-52121485D01*
X106214286Y-52121485D02*
X106833333Y-52121485D01*
X72833333Y-72158152D02*
X72833333Y-72824819D01*
X72595238Y-71777200D02*
X72357143Y-72491485D01*
X72357143Y-72491485D02*
X72976190Y-72491485D01*
X73357143Y-72824819D02*
X73357143Y-71824819D01*
X73452381Y-72443866D02*
X73738095Y-72824819D01*
X73738095Y-72158152D02*
X73357143Y-72539104D01*
X74071429Y-71824819D02*
X74738095Y-71824819D01*
X74738095Y-71824819D02*
X74309524Y-72824819D01*
X75595238Y-71824819D02*
X75119048Y-71824819D01*
X75119048Y-71824819D02*
X75071429Y-72301009D01*
X75071429Y-72301009D02*
X75119048Y-72253390D01*
X75119048Y-72253390D02*
X75214286Y-72205771D01*
X75214286Y-72205771D02*
X75452381Y-72205771D01*
X75452381Y-72205771D02*
X75547619Y-72253390D01*
X75547619Y-72253390D02*
X75595238Y-72301009D01*
X75595238Y-72301009D02*
X75642857Y-72396247D01*
X75642857Y-72396247D02*
X75642857Y-72634342D01*
X75642857Y-72634342D02*
X75595238Y-72729580D01*
X75595238Y-72729580D02*
X75547619Y-72777200D01*
X75547619Y-72777200D02*
X75452381Y-72824819D01*
X75452381Y-72824819D02*
X75214286Y-72824819D01*
X75214286Y-72824819D02*
X75119048Y-72777200D01*
X75119048Y-72777200D02*
X75071429Y-72729580D01*
X73833333Y-70454819D02*
X73500000Y-69978628D01*
X73261905Y-70454819D02*
X73261905Y-69454819D01*
X73261905Y-69454819D02*
X73642857Y-69454819D01*
X73642857Y-69454819D02*
X73738095Y-69502438D01*
X73738095Y-69502438D02*
X73785714Y-69550057D01*
X73785714Y-69550057D02*
X73833333Y-69645295D01*
X73833333Y-69645295D02*
X73833333Y-69788152D01*
X73833333Y-69788152D02*
X73785714Y-69883390D01*
X73785714Y-69883390D02*
X73738095Y-69931009D01*
X73738095Y-69931009D02*
X73642857Y-69978628D01*
X73642857Y-69978628D02*
X73261905Y-69978628D01*
X74166667Y-69454819D02*
X74785714Y-69454819D01*
X74785714Y-69454819D02*
X74452381Y-69835771D01*
X74452381Y-69835771D02*
X74595238Y-69835771D01*
X74595238Y-69835771D02*
X74690476Y-69883390D01*
X74690476Y-69883390D02*
X74738095Y-69931009D01*
X74738095Y-69931009D02*
X74785714Y-70026247D01*
X74785714Y-70026247D02*
X74785714Y-70264342D01*
X74785714Y-70264342D02*
X74738095Y-70359580D01*
X74738095Y-70359580D02*
X74690476Y-70407200D01*
X74690476Y-70407200D02*
X74595238Y-70454819D01*
X74595238Y-70454819D02*
X74309524Y-70454819D01*
X74309524Y-70454819D02*
X74214286Y-70407200D01*
X74214286Y-70407200D02*
X74166667Y-70359580D01*
X132359204Y-49038152D02*
X132359204Y-49704819D01*
X132121109Y-48657200D02*
X131883014Y-49371485D01*
X131883014Y-49371485D02*
X132502061Y-49371485D01*
X132787776Y-48704819D02*
X133454442Y-48704819D01*
X133454442Y-48704819D02*
X133025871Y-49704819D01*
X134263966Y-49038152D02*
X134263966Y-49704819D01*
X133835395Y-49038152D02*
X133835395Y-49561961D01*
X133835395Y-49561961D02*
X133883014Y-49657200D01*
X133883014Y-49657200D02*
X133978252Y-49704819D01*
X133978252Y-49704819D02*
X134121109Y-49704819D01*
X134121109Y-49704819D02*
X134216347Y-49657200D01*
X134216347Y-49657200D02*
X134263966Y-49609580D01*
X132930633Y-44359580D02*
X132883014Y-44407200D01*
X132883014Y-44407200D02*
X132740157Y-44454819D01*
X132740157Y-44454819D02*
X132644919Y-44454819D01*
X132644919Y-44454819D02*
X132502062Y-44407200D01*
X132502062Y-44407200D02*
X132406824Y-44311961D01*
X132406824Y-44311961D02*
X132359205Y-44216723D01*
X132359205Y-44216723D02*
X132311586Y-44026247D01*
X132311586Y-44026247D02*
X132311586Y-43883390D01*
X132311586Y-43883390D02*
X132359205Y-43692914D01*
X132359205Y-43692914D02*
X132406824Y-43597676D01*
X132406824Y-43597676D02*
X132502062Y-43502438D01*
X132502062Y-43502438D02*
X132644919Y-43454819D01*
X132644919Y-43454819D02*
X132740157Y-43454819D01*
X132740157Y-43454819D02*
X132883014Y-43502438D01*
X132883014Y-43502438D02*
X132930633Y-43550057D01*
X133835395Y-43454819D02*
X133359205Y-43454819D01*
X133359205Y-43454819D02*
X133311586Y-43931009D01*
X133311586Y-43931009D02*
X133359205Y-43883390D01*
X133359205Y-43883390D02*
X133454443Y-43835771D01*
X133454443Y-43835771D02*
X133692538Y-43835771D01*
X133692538Y-43835771D02*
X133787776Y-43883390D01*
X133787776Y-43883390D02*
X133835395Y-43931009D01*
X133835395Y-43931009D02*
X133883014Y-44026247D01*
X133883014Y-44026247D02*
X133883014Y-44264342D01*
X133883014Y-44264342D02*
X133835395Y-44359580D01*
X133835395Y-44359580D02*
X133787776Y-44407200D01*
X133787776Y-44407200D02*
X133692538Y-44454819D01*
X133692538Y-44454819D02*
X133454443Y-44454819D01*
X133454443Y-44454819D02*
X133359205Y-44407200D01*
X133359205Y-44407200D02*
X133311586Y-44359580D01*
X32785714Y-23374819D02*
X32785714Y-22374819D01*
X32785714Y-22374819D02*
X33166666Y-22374819D01*
X33166666Y-22374819D02*
X33261904Y-22422438D01*
X33261904Y-22422438D02*
X33309523Y-22470057D01*
X33309523Y-22470057D02*
X33357142Y-22565295D01*
X33357142Y-22565295D02*
X33357142Y-22708152D01*
X33357142Y-22708152D02*
X33309523Y-22803390D01*
X33309523Y-22803390D02*
X33261904Y-22851009D01*
X33261904Y-22851009D02*
X33166666Y-22898628D01*
X33166666Y-22898628D02*
X32785714Y-22898628D01*
X33642857Y-22374819D02*
X33976190Y-23374819D01*
X33976190Y-23374819D02*
X34309523Y-22374819D01*
X35404762Y-23374819D02*
X35404762Y-22708152D01*
X35404762Y-22374819D02*
X35357143Y-22422438D01*
X35357143Y-22422438D02*
X35404762Y-22470057D01*
X35404762Y-22470057D02*
X35452381Y-22422438D01*
X35452381Y-22422438D02*
X35404762Y-22374819D01*
X35404762Y-22374819D02*
X35404762Y-22470057D01*
X35880952Y-22708152D02*
X35880952Y-23374819D01*
X35880952Y-22803390D02*
X35928571Y-22755771D01*
X35928571Y-22755771D02*
X36023809Y-22708152D01*
X36023809Y-22708152D02*
X36166666Y-22708152D01*
X36166666Y-22708152D02*
X36261904Y-22755771D01*
X36261904Y-22755771D02*
X36309523Y-22851009D01*
X36309523Y-22851009D02*
X36309523Y-23374819D01*
X37214285Y-23374819D02*
X37214285Y-22374819D01*
X37214285Y-23327200D02*
X37119047Y-23374819D01*
X37119047Y-23374819D02*
X36928571Y-23374819D01*
X36928571Y-23374819D02*
X36833333Y-23327200D01*
X36833333Y-23327200D02*
X36785714Y-23279580D01*
X36785714Y-23279580D02*
X36738095Y-23184342D01*
X36738095Y-23184342D02*
X36738095Y-22898628D01*
X36738095Y-22898628D02*
X36785714Y-22803390D01*
X36785714Y-22803390D02*
X36833333Y-22755771D01*
X36833333Y-22755771D02*
X36928571Y-22708152D01*
X36928571Y-22708152D02*
X37119047Y-22708152D01*
X37119047Y-22708152D02*
X37214285Y-22755771D01*
X34666666Y-27454819D02*
X34666666Y-28169104D01*
X34666666Y-28169104D02*
X34619047Y-28311961D01*
X34619047Y-28311961D02*
X34523809Y-28407200D01*
X34523809Y-28407200D02*
X34380952Y-28454819D01*
X34380952Y-28454819D02*
X34285714Y-28454819D01*
X35666666Y-28454819D02*
X35095238Y-28454819D01*
X35380952Y-28454819D02*
X35380952Y-27454819D01*
X35380952Y-27454819D02*
X35285714Y-27597676D01*
X35285714Y-27597676D02*
X35190476Y-27692914D01*
X35190476Y-27692914D02*
X35095238Y-27740533D01*
X60357143Y-71920057D02*
X60404762Y-71872438D01*
X60404762Y-71872438D02*
X60500000Y-71824819D01*
X60500000Y-71824819D02*
X60738095Y-71824819D01*
X60738095Y-71824819D02*
X60833333Y-71872438D01*
X60833333Y-71872438D02*
X60880952Y-71920057D01*
X60880952Y-71920057D02*
X60928571Y-72015295D01*
X60928571Y-72015295D02*
X60928571Y-72110533D01*
X60928571Y-72110533D02*
X60880952Y-72253390D01*
X60880952Y-72253390D02*
X60309524Y-72824819D01*
X60309524Y-72824819D02*
X60928571Y-72824819D01*
X61309524Y-71920057D02*
X61357143Y-71872438D01*
X61357143Y-71872438D02*
X61452381Y-71824819D01*
X61452381Y-71824819D02*
X61690476Y-71824819D01*
X61690476Y-71824819D02*
X61785714Y-71872438D01*
X61785714Y-71872438D02*
X61833333Y-71920057D01*
X61833333Y-71920057D02*
X61880952Y-72015295D01*
X61880952Y-72015295D02*
X61880952Y-72110533D01*
X61880952Y-72110533D02*
X61833333Y-72253390D01*
X61833333Y-72253390D02*
X61261905Y-72824819D01*
X61261905Y-72824819D02*
X61880952Y-72824819D01*
X62309524Y-72824819D02*
X62309524Y-71824819D01*
X62404762Y-72443866D02*
X62690476Y-72824819D01*
X62690476Y-72158152D02*
X62309524Y-72539104D01*
X63547619Y-71824819D02*
X63357143Y-71824819D01*
X63357143Y-71824819D02*
X63261905Y-71872438D01*
X63261905Y-71872438D02*
X63214286Y-71920057D01*
X63214286Y-71920057D02*
X63119048Y-72062914D01*
X63119048Y-72062914D02*
X63071429Y-72253390D01*
X63071429Y-72253390D02*
X63071429Y-72634342D01*
X63071429Y-72634342D02*
X63119048Y-72729580D01*
X63119048Y-72729580D02*
X63166667Y-72777200D01*
X63166667Y-72777200D02*
X63261905Y-72824819D01*
X63261905Y-72824819D02*
X63452381Y-72824819D01*
X63452381Y-72824819D02*
X63547619Y-72777200D01*
X63547619Y-72777200D02*
X63595238Y-72729580D01*
X63595238Y-72729580D02*
X63642857Y-72634342D01*
X63642857Y-72634342D02*
X63642857Y-72396247D01*
X63642857Y-72396247D02*
X63595238Y-72301009D01*
X63595238Y-72301009D02*
X63547619Y-72253390D01*
X63547619Y-72253390D02*
X63452381Y-72205771D01*
X63452381Y-72205771D02*
X63261905Y-72205771D01*
X63261905Y-72205771D02*
X63166667Y-72253390D01*
X63166667Y-72253390D02*
X63119048Y-72301009D01*
X63119048Y-72301009D02*
X63071429Y-72396247D01*
X61833333Y-70454819D02*
X61500000Y-69978628D01*
X61261905Y-70454819D02*
X61261905Y-69454819D01*
X61261905Y-69454819D02*
X61642857Y-69454819D01*
X61642857Y-69454819D02*
X61738095Y-69502438D01*
X61738095Y-69502438D02*
X61785714Y-69550057D01*
X61785714Y-69550057D02*
X61833333Y-69645295D01*
X61833333Y-69645295D02*
X61833333Y-69788152D01*
X61833333Y-69788152D02*
X61785714Y-69883390D01*
X61785714Y-69883390D02*
X61738095Y-69931009D01*
X61738095Y-69931009D02*
X61642857Y-69978628D01*
X61642857Y-69978628D02*
X61261905Y-69978628D01*
X62214286Y-69550057D02*
X62261905Y-69502438D01*
X62261905Y-69502438D02*
X62357143Y-69454819D01*
X62357143Y-69454819D02*
X62595238Y-69454819D01*
X62595238Y-69454819D02*
X62690476Y-69502438D01*
X62690476Y-69502438D02*
X62738095Y-69550057D01*
X62738095Y-69550057D02*
X62785714Y-69645295D01*
X62785714Y-69645295D02*
X62785714Y-69740533D01*
X62785714Y-69740533D02*
X62738095Y-69883390D01*
X62738095Y-69883390D02*
X62166667Y-70454819D01*
X62166667Y-70454819D02*
X62785714Y-70454819D01*
X48928571Y-58824819D02*
X48357143Y-58824819D01*
X48642857Y-58824819D02*
X48642857Y-57824819D01*
X48642857Y-57824819D02*
X48547619Y-57967676D01*
X48547619Y-57967676D02*
X48452381Y-58062914D01*
X48452381Y-58062914D02*
X48357143Y-58110533D01*
X49357143Y-58824819D02*
X49357143Y-57824819D01*
X49452381Y-58443866D02*
X49738095Y-58824819D01*
X49738095Y-58158152D02*
X49357143Y-58539104D01*
X50357143Y-57824819D02*
X50452381Y-57824819D01*
X50452381Y-57824819D02*
X50547619Y-57872438D01*
X50547619Y-57872438D02*
X50595238Y-57920057D01*
X50595238Y-57920057D02*
X50642857Y-58015295D01*
X50642857Y-58015295D02*
X50690476Y-58205771D01*
X50690476Y-58205771D02*
X50690476Y-58443866D01*
X50690476Y-58443866D02*
X50642857Y-58634342D01*
X50642857Y-58634342D02*
X50595238Y-58729580D01*
X50595238Y-58729580D02*
X50547619Y-58777200D01*
X50547619Y-58777200D02*
X50452381Y-58824819D01*
X50452381Y-58824819D02*
X50357143Y-58824819D01*
X50357143Y-58824819D02*
X50261905Y-58777200D01*
X50261905Y-58777200D02*
X50214286Y-58729580D01*
X50214286Y-58729580D02*
X50166667Y-58634342D01*
X50166667Y-58634342D02*
X50119048Y-58443866D01*
X50119048Y-58443866D02*
X50119048Y-58205771D01*
X50119048Y-58205771D02*
X50166667Y-58015295D01*
X50166667Y-58015295D02*
X50214286Y-57920057D01*
X50214286Y-57920057D02*
X50261905Y-57872438D01*
X50261905Y-57872438D02*
X50357143Y-57824819D01*
X51309524Y-57824819D02*
X51404762Y-57824819D01*
X51404762Y-57824819D02*
X51500000Y-57872438D01*
X51500000Y-57872438D02*
X51547619Y-57920057D01*
X51547619Y-57920057D02*
X51595238Y-58015295D01*
X51595238Y-58015295D02*
X51642857Y-58205771D01*
X51642857Y-58205771D02*
X51642857Y-58443866D01*
X51642857Y-58443866D02*
X51595238Y-58634342D01*
X51595238Y-58634342D02*
X51547619Y-58729580D01*
X51547619Y-58729580D02*
X51500000Y-58777200D01*
X51500000Y-58777200D02*
X51404762Y-58824819D01*
X51404762Y-58824819D02*
X51309524Y-58824819D01*
X51309524Y-58824819D02*
X51214286Y-58777200D01*
X51214286Y-58777200D02*
X51166667Y-58729580D01*
X51166667Y-58729580D02*
X51119048Y-58634342D01*
X51119048Y-58634342D02*
X51071429Y-58443866D01*
X51071429Y-58443866D02*
X51071429Y-58205771D01*
X51071429Y-58205771D02*
X51119048Y-58015295D01*
X51119048Y-58015295D02*
X51166667Y-57920057D01*
X51166667Y-57920057D02*
X51214286Y-57872438D01*
X51214286Y-57872438D02*
X51309524Y-57824819D01*
X49833333Y-56454819D02*
X49500000Y-55978628D01*
X49261905Y-56454819D02*
X49261905Y-55454819D01*
X49261905Y-55454819D02*
X49642857Y-55454819D01*
X49642857Y-55454819D02*
X49738095Y-55502438D01*
X49738095Y-55502438D02*
X49785714Y-55550057D01*
X49785714Y-55550057D02*
X49833333Y-55645295D01*
X49833333Y-55645295D02*
X49833333Y-55788152D01*
X49833333Y-55788152D02*
X49785714Y-55883390D01*
X49785714Y-55883390D02*
X49738095Y-55931009D01*
X49738095Y-55931009D02*
X49642857Y-55978628D01*
X49642857Y-55978628D02*
X49261905Y-55978628D01*
X50166667Y-55454819D02*
X50833333Y-55454819D01*
X50833333Y-55454819D02*
X50404762Y-56454819D01*
%TO.C,C6*%
D12*
X93500000Y-68750000D02*
X98500000Y-68750000D01*
X98500000Y-71250000D01*
X93500000Y-71250000D01*
X93500000Y-68750000D01*
%TO.C,C4*%
X90500000Y-50750000D02*
X95500000Y-50750000D01*
X95500000Y-53250000D01*
X90500000Y-53250000D01*
X90500000Y-50750000D01*
%TO.C,J2*%
X140000000Y-24250000D02*
X140000000Y-31750000D01*
X140000000Y-31750000D02*
X150000000Y-31750000D01*
X140050000Y-30550000D02*
X149950000Y-30550000D01*
X150000000Y-24250000D02*
X140000000Y-24250000D01*
X150000000Y-31750000D02*
X150000000Y-24250000D01*
%TO.C,C3*%
X96534929Y-27052500D02*
X98334929Y-27052500D01*
X97434929Y-26152500D02*
X97434929Y-27952500D01*
X113272200Y-31000000D02*
G75*
G02*
X95272200Y-31000000I-9000000J0D01*
G01*
X95272200Y-31000000D02*
G75*
G02*
X113272200Y-31000000I9000000J0D01*
G01*
%TO.C,R5*%
X42190000Y-42000000D02*
X42850000Y-42000000D01*
X49810000Y-42000000D02*
X49150000Y-42000000D01*
X42850000Y-40750000D02*
X49150000Y-40750000D01*
X49150000Y-43250000D01*
X42850000Y-43250000D01*
X42850000Y-40750000D01*
%TO.C,DZ1*%
X82190000Y-70000000D02*
X84000000Y-70000000D01*
X84500000Y-69000000D02*
X84500000Y-71000000D01*
X84600000Y-69000000D02*
X84600000Y-71000000D01*
X84700000Y-69000000D02*
X84700000Y-71000000D01*
X89810000Y-70000000D02*
X88000000Y-70000000D01*
X84000000Y-69000000D02*
X88000000Y-69000000D01*
X88000000Y-71000000D01*
X84000000Y-71000000D01*
X84000000Y-69000000D01*
%TO.C,C1*%
X56534929Y-27052500D02*
X58334929Y-27052500D01*
X57434929Y-26152500D02*
X57434929Y-27952500D01*
X73272200Y-31000000D02*
G75*
G02*
X55272200Y-31000000I-9000000J0D01*
G01*
X55272200Y-31000000D02*
G75*
G02*
X73272200Y-31000000I9000000J0D01*
G01*
%TO.C,J3*%
X143730000Y-58825000D02*
X144365000Y-58190000D01*
X143730000Y-65810000D02*
X143730000Y-58825000D01*
X144365000Y-58190000D02*
X146270000Y-58190000D01*
X146270000Y-58190000D02*
X146270000Y-65810000D01*
X146270000Y-65810000D02*
X143730000Y-65810000D01*
%TO.C,R6*%
X52190000Y-42000000D02*
X52850000Y-42000000D01*
X59810000Y-42000000D02*
X59150000Y-42000000D01*
X59150000Y-43250000D02*
X52850000Y-43250000D01*
X52850000Y-40750000D01*
X59150000Y-40750000D01*
X59150000Y-43250000D01*
%TO.C,Q1*%
X115000000Y-43070000D02*
X125000000Y-43070000D01*
X118150000Y-41800000D02*
X118150000Y-43070000D01*
X121850000Y-41800000D02*
X121850000Y-43070000D01*
X115000000Y-41800000D02*
X125000000Y-41800000D01*
X125000000Y-46200000D01*
X115000000Y-46200000D01*
X115000000Y-41800000D01*
%TO.C,C2*%
X76534929Y-27052500D02*
X78334929Y-27052500D01*
X77434929Y-26152500D02*
X77434929Y-27952500D01*
X93272200Y-31000000D02*
G75*
G02*
X75272200Y-31000000I-9000000J0D01*
G01*
X75272200Y-31000000D02*
G75*
G02*
X93272200Y-31000000I9000000J0D01*
G01*
%TO.C,D1*%
X44920000Y-24000000D02*
X47400000Y-24000000D01*
X48080000Y-22650000D02*
X48080000Y-25350000D01*
X48180000Y-22650000D02*
X48180000Y-25350000D01*
X48280000Y-22650000D02*
X48280000Y-25350000D01*
X55080000Y-24000000D02*
X52600000Y-24000000D01*
X47400000Y-22650000D02*
X52600000Y-22650000D01*
X52600000Y-25350000D01*
X47400000Y-25350000D01*
X47400000Y-22650000D01*
%TO.C,U1*%
X76825000Y-53920000D02*
X77825000Y-52920000D01*
X76825000Y-63080000D02*
X76825000Y-53920000D01*
X77825000Y-52920000D02*
X83175000Y-52920000D01*
X83175000Y-52920000D02*
X83175000Y-63080000D01*
X83175000Y-63080000D02*
X76825000Y-63080000D01*
%TO.C,R1*%
X46190000Y-70000000D02*
X46850000Y-70000000D01*
X53810000Y-70000000D02*
X53150000Y-70000000D01*
X46850000Y-68750000D02*
X53150000Y-68750000D01*
X53150000Y-71250000D01*
X46850000Y-71250000D01*
X46850000Y-68750000D01*
%TO.C,R8*%
X60190000Y-56000000D02*
X60850000Y-56000000D01*
X67810000Y-56000000D02*
X67150000Y-56000000D01*
X60850000Y-54750000D02*
X67150000Y-54750000D01*
X67150000Y-57250000D01*
X60850000Y-57250000D01*
X60850000Y-54750000D01*
%TO.C,R4*%
X102190000Y-52000000D02*
X102850000Y-52000000D01*
X109810000Y-52000000D02*
X109150000Y-52000000D01*
X102850000Y-50750000D02*
X109150000Y-50750000D01*
X109150000Y-53250000D01*
X102850000Y-53250000D01*
X102850000Y-50750000D01*
%TO.C,R3*%
X70190000Y-70000000D02*
X70850000Y-70000000D01*
X77810000Y-70000000D02*
X77150000Y-70000000D01*
X70850000Y-68750000D02*
X77150000Y-68750000D01*
X77150000Y-71250000D01*
X70850000Y-71250000D01*
X70850000Y-68750000D01*
%TO.C,C5*%
X129670541Y-42252500D02*
X130470541Y-42252500D01*
X130070541Y-41852500D02*
X130070541Y-42652500D01*
X137097300Y-44000000D02*
G75*
G02*
X129097300Y-44000000I-4000000J0D01*
G01*
X129097300Y-44000000D02*
G75*
G02*
X137097300Y-44000000I4000000J0D01*
G01*
%TO.C,J1*%
X30000000Y-24250000D02*
X30000000Y-31750000D01*
X30000000Y-31750000D02*
X40000000Y-31750000D01*
X39950000Y-25450000D02*
X30050000Y-25450000D01*
X40000000Y-24250000D02*
X30000000Y-24250000D01*
X40000000Y-31750000D02*
X40000000Y-24250000D01*
%TO.C,R2*%
X58190000Y-70000000D02*
X58850000Y-70000000D01*
X65810000Y-70000000D02*
X65150000Y-70000000D01*
X58850000Y-68750000D02*
X65150000Y-68750000D01*
X65150000Y-71250000D01*
X58850000Y-71250000D01*
X58850000Y-68750000D01*
%TO.C,R7*%
X46190000Y-56000000D02*
X46850000Y-56000000D01*
X53810000Y-56000000D02*
X53150000Y-56000000D01*
X46850000Y-54750000D02*
X53150000Y-54750000D01*
X53150000Y-57250000D01*
X46850000Y-57250000D01*
X46850000Y-54750000D01*
%TD*%
M02*
