M48
; DRILL file {KiCad 9.0.6} date 2026-06-10T07:56:56+0200
; FORMAT={-:-/ absolute / metric / decimal}
; #@! TF.CreationDate,2026-06-10T07:56:56+02:00
; #@! TF.GenerationSoftware,Kicad,Pcbnew,9.0.6
; #@! TF.FileFunction,MixedPlating,1,2
FMAT,2
METRIC
; #@! TA.AperFunction,Plated,PTH,ViaDrill
T1C0.300
; #@! TA.AperFunction,Plated,PTH,ComponentDrill
T2C0.800
; #@! TA.AperFunction,Plated,PTH,ComponentDrill
T3C1.000
; #@! TA.AperFunction,Plated,PTH,ComponentDrill
T4C1.100
; #@! TA.AperFunction,Plated,PTH,ComponentDrill
T5C1.200
; #@! TA.AperFunction,Plated,PTH,ComponentDrill
T6C1.520
%
G90
G05
T1
X65.338Y-51.338
X105.059Y-45.103
T2
X42.19Y-42.0
X46.19Y-56.0
X46.19Y-70.0
X49.81Y-42.0
X52.19Y-42.0
X53.81Y-56.0
X53.81Y-70.0
X58.19Y-70.0
X59.81Y-42.0
X60.19Y-56.0
X65.81Y-70.0
X67.81Y-56.0
X70.19Y-70.0
X76.19Y-54.19
X76.19Y-56.73
X76.19Y-59.27
X76.19Y-61.81
X77.81Y-70.0
X82.19Y-70.0
X83.81Y-54.19
X83.81Y-56.73
X83.81Y-59.27
X83.81Y-61.81
X89.81Y-70.0
X90.5Y-52.0
X93.5Y-70.0
X95.5Y-52.0
X98.5Y-70.0
X102.19Y-52.0
X109.81Y-52.0
X131.347Y-44.0
X134.847Y-44.0
T3
X145.0Y-59.46
X145.0Y-62.0
X145.0Y-64.54
T4
X44.92Y-24.0
X55.08Y-24.0
X117.46Y-44.95
X120.0Y-44.95
X122.54Y-44.95
T5
X60.522Y-31.0
X68.022Y-31.0
X80.522Y-31.0
X88.022Y-31.0
X100.522Y-31.0
X108.022Y-31.0
T6
X32.46Y-28.0
X37.54Y-28.0
X142.46Y-28.0
X147.54Y-28.0
M30
