%TF.GenerationSoftware,KiCad,Pcbnew,9.0.4*%
%TF.CreationDate,2026-06-10T15:27:55+02:00*%
%TF.ProjectId,mppt,6d707074-2e6b-4696-9361-645f70636258,rev?*%
%TF.SameCoordinates,Original*%
%TF.FileFunction,Soldermask,Bot*%
%TF.FilePolarity,Negative*%
%FSLAX46Y46*%
G04 Gerber Fmt 4.6, Leading zero omitted, Abs format (unit mm)*
G04 Created by KiCad (PCBNEW 9.0.4) date 2026-06-10 15:27:55*
%MOMM*%
%LPD*%
G01*
G04 APERTURE LIST*
G04 Aperture macros list*
%AMRoundRect*
0 Rectangle with rounded corners*
0 $1 Rounding radius*
0 $2 $3 $4 $5 $6 $7 $8 $9 X,Y pos of 4 corners*
0 Add a 4 corners polygon primitive as box body*
4,1,4,$2,$3,$4,$5,$6,$7,$8,$9,$2,$3,0*
0 Add four circle primitives for the rounded corners*
1,1,$1+$1,$2,$3*
1,1,$1+$1,$4,$5*
1,1,$1+$1,$6,$7*
1,1,$1+$1,$8,$9*
0 Add four rect primitives between the rounded corners*
20,1,$1+$1,$2,$3,$4,$5,0*
20,1,$1+$1,$4,$5,$6,$7,0*
20,1,$1+$1,$6,$7,$8,$9,0*
20,1,$1+$1,$8,$9,$2,$3,0*%
G04 Aperture macros list end*
%ADD10RoundRect,0.250001X-0.949999X-0.949999X0.949999X-0.949999X0.949999X0.949999X-0.949999X0.949999X0*%
%ADD11C,2.400000*%
%ADD12R,1.700000X2.000000*%
%ADD13O,1.700000X2.000000*%
%ADD14C,1.600000*%
%ADD15R,1.700000X1.700000*%
%ADD16C,1.700000*%
%ADD17R,3.000000X3.000000*%
%ADD18C,3.000000*%
%ADD19RoundRect,0.249999X-0.850001X-0.850001X0.850001X-0.850001X0.850001X0.850001X-0.850001X0.850001X0*%
%ADD20C,2.200000*%
%ADD21RoundRect,0.250000X-0.550000X-0.550000X0.550000X-0.550000X0.550000X0.550000X-0.550000X0.550000X0*%
%ADD22RoundRect,0.250000X-0.950000X-0.550000X0.950000X-0.550000X0.950000X0.550000X-0.950000X0.550000X0*%
%ADD23O,2.400000X1.600000*%
G04 APERTURE END LIST*
D10*
%TO.C,C1*%
X66522200Y-33000000D03*
D11*
X74022200Y-33000000D03*
%TD*%
D12*
%TO.C,Q1*%
X53460000Y-76950000D03*
D13*
X56000000Y-76950000D03*
X58540000Y-76950000D03*
%TD*%
D14*
%TO.C,R6*%
X41810000Y-55000000D03*
X34190000Y-55000000D03*
%TD*%
D15*
%TO.C,J3*%
X109000000Y-75460000D03*
D16*
X109000000Y-78000000D03*
X109000000Y-80540000D03*
%TD*%
D14*
%TO.C,R7*%
X48190000Y-50000000D03*
X55810000Y-50000000D03*
%TD*%
D17*
%TO.C,J1*%
X37540000Y-30000000D03*
D18*
X32460000Y-30000000D03*
%TD*%
D14*
%TO.C,R8*%
X60190000Y-50000000D03*
X67810000Y-50000000D03*
%TD*%
D17*
%TO.C,J2*%
X106460000Y-58000000D03*
D18*
X111540000Y-58000000D03*
%TD*%
D19*
%TO.C,D1*%
X46920000Y-26000000D03*
D20*
X57080000Y-26000000D03*
%TD*%
D10*
%TO.C,C2*%
X86522200Y-33000000D03*
D11*
X94022200Y-33000000D03*
%TD*%
D14*
%TO.C,R4*%
X34190000Y-78000000D03*
X41810000Y-78000000D03*
%TD*%
D21*
%TO.C,C5*%
X68347300Y-78000000D03*
D14*
X71847300Y-78000000D03*
%TD*%
%TO.C,R5*%
X34190000Y-47000000D03*
X41810000Y-47000000D03*
%TD*%
D10*
%TO.C,C3*%
X106522200Y-33000000D03*
D11*
X114022200Y-33000000D03*
%TD*%
D14*
%TO.C,C4*%
X87500000Y-48000000D03*
X92500000Y-48000000D03*
%TD*%
D22*
%TO.C,U1*%
X74190000Y-48190000D03*
D23*
X74190000Y-50730000D03*
X74190000Y-53270000D03*
X74190000Y-55810000D03*
X81810000Y-55810000D03*
X81810000Y-53270000D03*
X81810000Y-50730000D03*
X81810000Y-48190000D03*
%TD*%
D21*
%TO.C,DZ1*%
X70190000Y-66000000D03*
D14*
X77810000Y-66000000D03*
%TD*%
%TO.C,R2*%
X46190000Y-66000000D03*
X53810000Y-66000000D03*
%TD*%
%TO.C,R1*%
X34190000Y-66000000D03*
X41810000Y-66000000D03*
%TD*%
%TO.C,C6*%
X83500000Y-66000000D03*
X88500000Y-66000000D03*
%TD*%
%TO.C,R3*%
X58190000Y-66000000D03*
X65810000Y-66000000D03*
%TD*%
M02*
