%TF.GenerationSoftware,KiCad,Pcbnew,9.0.4*%
%TF.CreationDate,2026-06-11T08:54:46+02:00*%
%TF.ProjectId,mppt,6d707074-2e6b-4696-9361-645f70636258,rev?*%
%TF.SameCoordinates,Original*%
%TF.FileFunction,Soldermask,Top*%
%TF.FilePolarity,Negative*%
%FSLAX46Y46*%
G04 Gerber Fmt 4.6, Leading zero omitted, Abs format (unit mm)*
G04 Created by KiCad (PCBNEW 9.0.4) date 2026-06-11 08:54:46*
%MOMM*%
%LPD*%
G01*
G04 APERTURE LIST*
G04 Aperture macros list*
%AMRoundRect*
0 Rectangle with rounded corners*
0 $1 Rounding radius*
0 $2 $3 $4 $5 $6 $7 $8 $9 X,Y pos of 4 corners*
0 Add a 4 corners polygon primitive as box body*
4,1,4,$2,$3,$4,$5,$6,$7,$8,$9,$2,$3,0*
0 Add four circle primitives for the rounded corners*
1,1,$1+$1,$2,$3*
1,1,$1+$1,$4,$5*
1,1,$1+$1,$6,$7*
1,1,$1+$1,$8,$9*
0 Add four rect primitives between the rounded corners*
20,1,$1+$1,$2,$3,$4,$5,0*
20,1,$1+$1,$4,$5,$6,$7,0*
20,1,$1+$1,$6,$7,$8,$9,0*
20,1,$1+$1,$8,$9,$2,$3,0*%
G04 Aperture macros list end*
%ADD10C,1.600000*%
%ADD11RoundRect,0.250000X-0.950000X-0.550000X0.950000X-0.550000X0.950000X0.550000X-0.950000X0.550000X0*%
%ADD12O,2.400000X1.600000*%
%ADD13R,1.700000X1.700000*%
%ADD14C,1.700000*%
%ADD15RoundRect,0.249999X-0.850001X-0.850001X0.850001X-0.850001X0.850001X0.850001X-0.850001X0.850001X0*%
%ADD16C,2.200000*%
%ADD17RoundRect,0.250000X-0.550000X-0.550000X0.550000X-0.550000X0.550000X0.550000X-0.550000X0.550000X0*%
%ADD18R,3.000000X3.000000*%
%ADD19C,3.000000*%
%ADD20RoundRect,0.250001X-0.949999X-0.949999X0.949999X-0.949999X0.949999X0.949999X-0.949999X0.949999X0*%
%ADD21C,2.400000*%
%ADD22R,1.700000X2.000000*%
%ADD23O,1.700000X2.000000*%
G04 APERTURE END LIST*
D10*
%TO.C,C6*%
X80863900Y-84970000D03*
X85863900Y-84970000D03*
%TD*%
D11*
%TO.C,U1*%
X71553900Y-67160000D03*
D12*
X71553900Y-69700000D03*
X71553900Y-72240000D03*
X71553900Y-74780000D03*
X79173900Y-74780000D03*
X79173900Y-72240000D03*
X79173900Y-69700000D03*
X79173900Y-67160000D03*
%TD*%
D13*
%TO.C,J3*%
X106363900Y-94430000D03*
D14*
X106363900Y-96970000D03*
X106363900Y-99510000D03*
%TD*%
D10*
%TO.C,R4*%
X31553900Y-96970000D03*
X39173900Y-96970000D03*
%TD*%
D15*
%TO.C,D1*%
X44283900Y-44970000D03*
D16*
X54443900Y-44970000D03*
%TD*%
D10*
%TO.C,C4*%
X84863900Y-66970000D03*
X89863900Y-66970000D03*
%TD*%
D17*
%TO.C,C5*%
X65711200Y-96970000D03*
D10*
X69211200Y-96970000D03*
%TD*%
D17*
%TO.C,DZ1*%
X67553900Y-84970000D03*
D10*
X75173900Y-84970000D03*
%TD*%
%TO.C,R8*%
X57553900Y-68970000D03*
X65173900Y-68970000D03*
%TD*%
D18*
%TO.C,J1*%
X34903900Y-48970000D03*
D19*
X29823900Y-48970000D03*
%TD*%
D10*
%TO.C,R2*%
X43553900Y-84970000D03*
X51173900Y-84970000D03*
%TD*%
%TO.C,R7*%
X45553900Y-68970000D03*
X53173900Y-68970000D03*
%TD*%
D20*
%TO.C,C3*%
X103886100Y-51970000D03*
D21*
X111386100Y-51970000D03*
%TD*%
D20*
%TO.C,C2*%
X83886100Y-51970000D03*
D21*
X91386100Y-51970000D03*
%TD*%
D20*
%TO.C,C1*%
X63886100Y-51970000D03*
D21*
X71386100Y-51970000D03*
%TD*%
D10*
%TO.C,R5*%
X31553900Y-65970000D03*
X39173900Y-65970000D03*
%TD*%
D18*
%TO.C,J2*%
X103823900Y-76970000D03*
D19*
X108903900Y-76970000D03*
%TD*%
D22*
%TO.C,Q1*%
X50823900Y-95920000D03*
D23*
X53363900Y-95920000D03*
X55903900Y-95920000D03*
%TD*%
D10*
%TO.C,R6*%
X39173900Y-73970000D03*
X31553900Y-73970000D03*
%TD*%
%TO.C,R3*%
X55553900Y-84970000D03*
X63173900Y-84970000D03*
%TD*%
%TO.C,R1*%
X31553900Y-84970000D03*
X39173900Y-84970000D03*
%TD*%
M02*
