M48
; DRILL file {KiCad 9.0.4} date 2026-06-11T08:54:46+0200
; FORMAT={-:-/ absolute / metric / decimal}
; #@! TF.CreationDate,2026-06-11T08:54:46+02:00
; #@! TF.GenerationSoftware,Kicad,Pcbnew,9.0.4
; #@! TF.FileFunction,MixedPlating,1,2
FMAT,2
METRIC
; #@! TA.AperFunction,Plated,PTH,ComponentDrill
T1C0.800
; #@! TA.AperFunction,Plated,PTH,ComponentDrill
T2C1.000
; #@! TA.AperFunction,Plated,PTH,ComponentDrill
T3C1.100
; #@! TA.AperFunction,Plated,PTH,ComponentDrill
T4C1.200
; #@! TA.AperFunction,Plated,PTH,ComponentDrill
T5C1.520
%
G90
G05
T1
X31.554Y-65.97
X31.554Y-73.97
X31.554Y-84.97
X31.554Y-96.97
X39.174Y-65.97
X39.174Y-73.97
X39.174Y-84.97
X39.174Y-96.97
X43.554Y-84.97
X45.554Y-68.97
X51.174Y-84.97
X53.174Y-68.97
X55.554Y-84.97
X57.554Y-68.97
X63.174Y-84.97
X65.174Y-68.97
X65.711Y-96.97
X67.554Y-84.97
X69.211Y-96.97
X71.554Y-67.16
X71.554Y-69.7
X71.554Y-72.24
X71.554Y-74.78
X75.174Y-84.97
X79.174Y-67.16
X79.174Y-69.7
X79.174Y-72.24
X79.174Y-74.78
X80.864Y-84.97
X84.864Y-66.97
X85.864Y-84.97
X89.864Y-66.97
T2
X106.364Y-94.43
X106.364Y-96.97
X106.364Y-99.51
T3
X44.284Y-44.97
X50.824Y-95.92
X53.364Y-95.92
X54.444Y-44.97
X55.904Y-95.92
T4
X63.886Y-51.97
X71.386Y-51.97
X83.886Y-51.97
X91.386Y-51.97
X103.886Y-51.97
X111.386Y-51.97
T5
X29.824Y-48.97
X34.904Y-48.97
X103.824Y-76.97
X108.904Y-76.97
M30
