%TF.GenerationSoftware,KiCad,Pcbnew,9.0.4*%
%TF.CreationDate,2026-06-10T15:27:55+02:00*%
%TF.ProjectId,mppt,6d707074-2e6b-4696-9361-645f70636258,rev?*%
%TF.SameCoordinates,Original*%
%TF.FileFunction,AssemblyDrawing,Top*%
%FSLAX46Y46*%
G04 Gerber Fmt 4.6, Leading zero omitted, Abs format (unit mm)*
G04 Created by KiCad (PCBNEW 9.0.4) date 2026-06-10 15:27:55*
%MOMM*%
%LPD*%
G01*
G04 APERTURE LIST*
%ADD10C,0.150000*%
%ADD11C,0.120000*%
%ADD12C,0.100000*%
G04 APERTURE END LIST*
D10*
X66676961Y-43038152D02*
X66676961Y-43704819D01*
X66438866Y-42657200D02*
X66200771Y-43371485D01*
X66200771Y-43371485D02*
X66819818Y-43371485D01*
X67105533Y-42704819D02*
X67772199Y-42704819D01*
X67772199Y-42704819D02*
X67343628Y-43704819D01*
X68343628Y-42704819D02*
X68438866Y-42704819D01*
X68438866Y-42704819D02*
X68534104Y-42752438D01*
X68534104Y-42752438D02*
X68581723Y-42800057D01*
X68581723Y-42800057D02*
X68629342Y-42895295D01*
X68629342Y-42895295D02*
X68676961Y-43085771D01*
X68676961Y-43085771D02*
X68676961Y-43323866D01*
X68676961Y-43323866D02*
X68629342Y-43514342D01*
X68629342Y-43514342D02*
X68581723Y-43609580D01*
X68581723Y-43609580D02*
X68534104Y-43657200D01*
X68534104Y-43657200D02*
X68438866Y-43704819D01*
X68438866Y-43704819D02*
X68343628Y-43704819D01*
X68343628Y-43704819D02*
X68248390Y-43657200D01*
X68248390Y-43657200D02*
X68200771Y-43609580D01*
X68200771Y-43609580D02*
X68153152Y-43514342D01*
X68153152Y-43514342D02*
X68105533Y-43323866D01*
X68105533Y-43323866D02*
X68105533Y-43085771D01*
X68105533Y-43085771D02*
X68153152Y-42895295D01*
X68153152Y-42895295D02*
X68200771Y-42800057D01*
X68200771Y-42800057D02*
X68248390Y-42752438D01*
X68248390Y-42752438D02*
X68343628Y-42704819D01*
X69296009Y-42704819D02*
X69391247Y-42704819D01*
X69391247Y-42704819D02*
X69486485Y-42752438D01*
X69486485Y-42752438D02*
X69534104Y-42800057D01*
X69534104Y-42800057D02*
X69581723Y-42895295D01*
X69581723Y-42895295D02*
X69629342Y-43085771D01*
X69629342Y-43085771D02*
X69629342Y-43323866D01*
X69629342Y-43323866D02*
X69581723Y-43514342D01*
X69581723Y-43514342D02*
X69534104Y-43609580D01*
X69534104Y-43609580D02*
X69486485Y-43657200D01*
X69486485Y-43657200D02*
X69391247Y-43704819D01*
X69391247Y-43704819D02*
X69296009Y-43704819D01*
X69296009Y-43704819D02*
X69200771Y-43657200D01*
X69200771Y-43657200D02*
X69153152Y-43609580D01*
X69153152Y-43609580D02*
X69105533Y-43514342D01*
X69105533Y-43514342D02*
X69057914Y-43323866D01*
X69057914Y-43323866D02*
X69057914Y-43085771D01*
X69057914Y-43085771D02*
X69105533Y-42895295D01*
X69105533Y-42895295D02*
X69153152Y-42800057D01*
X69153152Y-42800057D02*
X69200771Y-42752438D01*
X69200771Y-42752438D02*
X69296009Y-42704819D01*
X70486485Y-43038152D02*
X70486485Y-43704819D01*
X70057914Y-43038152D02*
X70057914Y-43561961D01*
X70057914Y-43561961D02*
X70105533Y-43657200D01*
X70105533Y-43657200D02*
X70200771Y-43704819D01*
X70200771Y-43704819D02*
X70343628Y-43704819D01*
X70343628Y-43704819D02*
X70438866Y-43657200D01*
X70438866Y-43657200D02*
X70486485Y-43609580D01*
X71676961Y-42657200D02*
X70819819Y-43942914D01*
X72486485Y-42704819D02*
X72010295Y-42704819D01*
X72010295Y-42704819D02*
X71962676Y-43181009D01*
X71962676Y-43181009D02*
X72010295Y-43133390D01*
X72010295Y-43133390D02*
X72105533Y-43085771D01*
X72105533Y-43085771D02*
X72343628Y-43085771D01*
X72343628Y-43085771D02*
X72438866Y-43133390D01*
X72438866Y-43133390D02*
X72486485Y-43181009D01*
X72486485Y-43181009D02*
X72534104Y-43276247D01*
X72534104Y-43276247D02*
X72534104Y-43514342D01*
X72534104Y-43514342D02*
X72486485Y-43609580D01*
X72486485Y-43609580D02*
X72438866Y-43657200D01*
X72438866Y-43657200D02*
X72343628Y-43704819D01*
X72343628Y-43704819D02*
X72105533Y-43704819D01*
X72105533Y-43704819D02*
X72010295Y-43657200D01*
X72010295Y-43657200D02*
X71962676Y-43609580D01*
X73153152Y-42704819D02*
X73248390Y-42704819D01*
X73248390Y-42704819D02*
X73343628Y-42752438D01*
X73343628Y-42752438D02*
X73391247Y-42800057D01*
X73391247Y-42800057D02*
X73438866Y-42895295D01*
X73438866Y-42895295D02*
X73486485Y-43085771D01*
X73486485Y-43085771D02*
X73486485Y-43323866D01*
X73486485Y-43323866D02*
X73438866Y-43514342D01*
X73438866Y-43514342D02*
X73391247Y-43609580D01*
X73391247Y-43609580D02*
X73343628Y-43657200D01*
X73343628Y-43657200D02*
X73248390Y-43704819D01*
X73248390Y-43704819D02*
X73153152Y-43704819D01*
X73153152Y-43704819D02*
X73057914Y-43657200D01*
X73057914Y-43657200D02*
X73010295Y-43609580D01*
X73010295Y-43609580D02*
X72962676Y-43514342D01*
X72962676Y-43514342D02*
X72915057Y-43323866D01*
X72915057Y-43323866D02*
X72915057Y-43085771D01*
X72915057Y-43085771D02*
X72962676Y-42895295D01*
X72962676Y-42895295D02*
X73010295Y-42800057D01*
X73010295Y-42800057D02*
X73057914Y-42752438D01*
X73057914Y-42752438D02*
X73153152Y-42704819D01*
X73772200Y-42704819D02*
X74105533Y-43704819D01*
X74105533Y-43704819D02*
X74438866Y-42704819D01*
X70105533Y-33359580D02*
X70057914Y-33407200D01*
X70057914Y-33407200D02*
X69915057Y-33454819D01*
X69915057Y-33454819D02*
X69819819Y-33454819D01*
X69819819Y-33454819D02*
X69676962Y-33407200D01*
X69676962Y-33407200D02*
X69581724Y-33311961D01*
X69581724Y-33311961D02*
X69534105Y-33216723D01*
X69534105Y-33216723D02*
X69486486Y-33026247D01*
X69486486Y-33026247D02*
X69486486Y-32883390D01*
X69486486Y-32883390D02*
X69534105Y-32692914D01*
X69534105Y-32692914D02*
X69581724Y-32597676D01*
X69581724Y-32597676D02*
X69676962Y-32502438D01*
X69676962Y-32502438D02*
X69819819Y-32454819D01*
X69819819Y-32454819D02*
X69915057Y-32454819D01*
X69915057Y-32454819D02*
X70057914Y-32502438D01*
X70057914Y-32502438D02*
X70105533Y-32550057D01*
X71057914Y-33454819D02*
X70486486Y-33454819D01*
X70772200Y-33454819D02*
X70772200Y-32454819D01*
X70772200Y-32454819D02*
X70676962Y-32597676D01*
X70676962Y-32597676D02*
X70581724Y-32692914D01*
X70581724Y-32692914D02*
X70486486Y-32740533D01*
X53595238Y-78604819D02*
X54166666Y-78604819D01*
X53880952Y-79604819D02*
X53880952Y-78604819D01*
X54500000Y-79604819D02*
X54500000Y-78604819D01*
X54976190Y-79604819D02*
X54976190Y-78604819D01*
X54976190Y-78604819D02*
X55357142Y-78604819D01*
X55357142Y-78604819D02*
X55452380Y-78652438D01*
X55452380Y-78652438D02*
X55499999Y-78700057D01*
X55499999Y-78700057D02*
X55547618Y-78795295D01*
X55547618Y-78795295D02*
X55547618Y-78938152D01*
X55547618Y-78938152D02*
X55499999Y-79033390D01*
X55499999Y-79033390D02*
X55452380Y-79081009D01*
X55452380Y-79081009D02*
X55357142Y-79128628D01*
X55357142Y-79128628D02*
X54976190Y-79128628D01*
X56404761Y-78938152D02*
X56404761Y-79604819D01*
X56166666Y-78557200D02*
X55928571Y-79271485D01*
X55928571Y-79271485D02*
X56547618Y-79271485D01*
X57452380Y-79604819D02*
X56880952Y-79604819D01*
X57166666Y-79604819D02*
X57166666Y-78604819D01*
X57166666Y-78604819D02*
X57071428Y-78747676D01*
X57071428Y-78747676D02*
X56976190Y-78842914D01*
X56976190Y-78842914D02*
X56880952Y-78890533D01*
X57833333Y-79319104D02*
X58309523Y-79319104D01*
X57738095Y-79604819D02*
X58071428Y-78604819D01*
X58071428Y-78604819D02*
X58404761Y-79604819D01*
X55904761Y-76550057D02*
X55809523Y-76502438D01*
X55809523Y-76502438D02*
X55714285Y-76407200D01*
X55714285Y-76407200D02*
X55571428Y-76264342D01*
X55571428Y-76264342D02*
X55476190Y-76216723D01*
X55476190Y-76216723D02*
X55380952Y-76216723D01*
X55428571Y-76454819D02*
X55333333Y-76407200D01*
X55333333Y-76407200D02*
X55238095Y-76311961D01*
X55238095Y-76311961D02*
X55190476Y-76121485D01*
X55190476Y-76121485D02*
X55190476Y-75788152D01*
X55190476Y-75788152D02*
X55238095Y-75597676D01*
X55238095Y-75597676D02*
X55333333Y-75502438D01*
X55333333Y-75502438D02*
X55428571Y-75454819D01*
X55428571Y-75454819D02*
X55619047Y-75454819D01*
X55619047Y-75454819D02*
X55714285Y-75502438D01*
X55714285Y-75502438D02*
X55809523Y-75597676D01*
X55809523Y-75597676D02*
X55857142Y-75788152D01*
X55857142Y-75788152D02*
X55857142Y-76121485D01*
X55857142Y-76121485D02*
X55809523Y-76311961D01*
X55809523Y-76311961D02*
X55714285Y-76407200D01*
X55714285Y-76407200D02*
X55619047Y-76454819D01*
X55619047Y-76454819D02*
X55428571Y-76454819D01*
X56809523Y-76454819D02*
X56238095Y-76454819D01*
X56523809Y-76454819D02*
X56523809Y-75454819D01*
X56523809Y-75454819D02*
X56428571Y-75597676D01*
X56428571Y-75597676D02*
X56333333Y-75692914D01*
X56333333Y-75692914D02*
X56238095Y-75740533D01*
X36833333Y-53084819D02*
X36261905Y-53084819D01*
X36547619Y-53084819D02*
X36547619Y-52084819D01*
X36547619Y-52084819D02*
X36452381Y-52227676D01*
X36452381Y-52227676D02*
X36357143Y-52322914D01*
X36357143Y-52322914D02*
X36261905Y-52370533D01*
X37833333Y-53084819D02*
X37500000Y-52608628D01*
X37261905Y-53084819D02*
X37261905Y-52084819D01*
X37261905Y-52084819D02*
X37642857Y-52084819D01*
X37642857Y-52084819D02*
X37738095Y-52132438D01*
X37738095Y-52132438D02*
X37785714Y-52180057D01*
X37785714Y-52180057D02*
X37833333Y-52275295D01*
X37833333Y-52275295D02*
X37833333Y-52418152D01*
X37833333Y-52418152D02*
X37785714Y-52513390D01*
X37785714Y-52513390D02*
X37738095Y-52561009D01*
X37738095Y-52561009D02*
X37642857Y-52608628D01*
X37642857Y-52608628D02*
X37261905Y-52608628D01*
X38452381Y-52084819D02*
X38547619Y-52084819D01*
X38547619Y-52084819D02*
X38642857Y-52132438D01*
X38642857Y-52132438D02*
X38690476Y-52180057D01*
X38690476Y-52180057D02*
X38738095Y-52275295D01*
X38738095Y-52275295D02*
X38785714Y-52465771D01*
X38785714Y-52465771D02*
X38785714Y-52703866D01*
X38785714Y-52703866D02*
X38738095Y-52894342D01*
X38738095Y-52894342D02*
X38690476Y-52989580D01*
X38690476Y-52989580D02*
X38642857Y-53037200D01*
X38642857Y-53037200D02*
X38547619Y-53084819D01*
X38547619Y-53084819D02*
X38452381Y-53084819D01*
X38452381Y-53084819D02*
X38357143Y-53037200D01*
X38357143Y-53037200D02*
X38309524Y-52989580D01*
X38309524Y-52989580D02*
X38261905Y-52894342D01*
X38261905Y-52894342D02*
X38214286Y-52703866D01*
X38214286Y-52703866D02*
X38214286Y-52465771D01*
X38214286Y-52465771D02*
X38261905Y-52275295D01*
X38261905Y-52275295D02*
X38309524Y-52180057D01*
X38309524Y-52180057D02*
X38357143Y-52132438D01*
X38357143Y-52132438D02*
X38452381Y-52084819D01*
X39404762Y-52084819D02*
X39500000Y-52084819D01*
X39500000Y-52084819D02*
X39595238Y-52132438D01*
X39595238Y-52132438D02*
X39642857Y-52180057D01*
X39642857Y-52180057D02*
X39690476Y-52275295D01*
X39690476Y-52275295D02*
X39738095Y-52465771D01*
X39738095Y-52465771D02*
X39738095Y-52703866D01*
X39738095Y-52703866D02*
X39690476Y-52894342D01*
X39690476Y-52894342D02*
X39642857Y-52989580D01*
X39642857Y-52989580D02*
X39595238Y-53037200D01*
X39595238Y-53037200D02*
X39500000Y-53084819D01*
X39500000Y-53084819D02*
X39404762Y-53084819D01*
X39404762Y-53084819D02*
X39309524Y-53037200D01*
X39309524Y-53037200D02*
X39261905Y-52989580D01*
X39261905Y-52989580D02*
X39214286Y-52894342D01*
X39214286Y-52894342D02*
X39166667Y-52703866D01*
X39166667Y-52703866D02*
X39166667Y-52465771D01*
X39166667Y-52465771D02*
X39214286Y-52275295D01*
X39214286Y-52275295D02*
X39261905Y-52180057D01*
X39261905Y-52180057D02*
X39309524Y-52132438D01*
X39309524Y-52132438D02*
X39404762Y-52084819D01*
X37833333Y-55454819D02*
X37500000Y-54978628D01*
X37261905Y-55454819D02*
X37261905Y-54454819D01*
X37261905Y-54454819D02*
X37642857Y-54454819D01*
X37642857Y-54454819D02*
X37738095Y-54502438D01*
X37738095Y-54502438D02*
X37785714Y-54550057D01*
X37785714Y-54550057D02*
X37833333Y-54645295D01*
X37833333Y-54645295D02*
X37833333Y-54788152D01*
X37833333Y-54788152D02*
X37785714Y-54883390D01*
X37785714Y-54883390D02*
X37738095Y-54931009D01*
X37738095Y-54931009D02*
X37642857Y-54978628D01*
X37642857Y-54978628D02*
X37261905Y-54978628D01*
X38690476Y-54454819D02*
X38500000Y-54454819D01*
X38500000Y-54454819D02*
X38404762Y-54502438D01*
X38404762Y-54502438D02*
X38357143Y-54550057D01*
X38357143Y-54550057D02*
X38261905Y-54692914D01*
X38261905Y-54692914D02*
X38214286Y-54883390D01*
X38214286Y-54883390D02*
X38214286Y-55264342D01*
X38214286Y-55264342D02*
X38261905Y-55359580D01*
X38261905Y-55359580D02*
X38309524Y-55407200D01*
X38309524Y-55407200D02*
X38404762Y-55454819D01*
X38404762Y-55454819D02*
X38595238Y-55454819D01*
X38595238Y-55454819D02*
X38690476Y-55407200D01*
X38690476Y-55407200D02*
X38738095Y-55359580D01*
X38738095Y-55359580D02*
X38785714Y-55264342D01*
X38785714Y-55264342D02*
X38785714Y-55026247D01*
X38785714Y-55026247D02*
X38738095Y-54931009D01*
X38738095Y-54931009D02*
X38690476Y-54883390D01*
X38690476Y-54883390D02*
X38595238Y-54835771D01*
X38595238Y-54835771D02*
X38404762Y-54835771D01*
X38404762Y-54835771D02*
X38309524Y-54883390D01*
X38309524Y-54883390D02*
X38261905Y-54931009D01*
X38261905Y-54931009D02*
X38214286Y-55026247D01*
X102285714Y-83327200D02*
X102380952Y-83374819D01*
X102380952Y-83374819D02*
X102571428Y-83374819D01*
X102571428Y-83374819D02*
X102666666Y-83327200D01*
X102666666Y-83327200D02*
X102714285Y-83231961D01*
X102714285Y-83231961D02*
X102714285Y-83184342D01*
X102714285Y-83184342D02*
X102666666Y-83089104D01*
X102666666Y-83089104D02*
X102571428Y-83041485D01*
X102571428Y-83041485D02*
X102428571Y-83041485D01*
X102428571Y-83041485D02*
X102333333Y-82993866D01*
X102333333Y-82993866D02*
X102285714Y-82898628D01*
X102285714Y-82898628D02*
X102285714Y-82851009D01*
X102285714Y-82851009D02*
X102333333Y-82755771D01*
X102333333Y-82755771D02*
X102428571Y-82708152D01*
X102428571Y-82708152D02*
X102571428Y-82708152D01*
X102571428Y-82708152D02*
X102666666Y-82755771D01*
X103523809Y-83327200D02*
X103428571Y-83374819D01*
X103428571Y-83374819D02*
X103238095Y-83374819D01*
X103238095Y-83374819D02*
X103142857Y-83327200D01*
X103142857Y-83327200D02*
X103095238Y-83231961D01*
X103095238Y-83231961D02*
X103095238Y-82851009D01*
X103095238Y-82851009D02*
X103142857Y-82755771D01*
X103142857Y-82755771D02*
X103238095Y-82708152D01*
X103238095Y-82708152D02*
X103428571Y-82708152D01*
X103428571Y-82708152D02*
X103523809Y-82755771D01*
X103523809Y-82755771D02*
X103571428Y-82851009D01*
X103571428Y-82851009D02*
X103571428Y-82946247D01*
X103571428Y-82946247D02*
X103095238Y-83041485D01*
X104000000Y-82708152D02*
X104000000Y-83374819D01*
X104000000Y-82803390D02*
X104047619Y-82755771D01*
X104047619Y-82755771D02*
X104142857Y-82708152D01*
X104142857Y-82708152D02*
X104285714Y-82708152D01*
X104285714Y-82708152D02*
X104380952Y-82755771D01*
X104380952Y-82755771D02*
X104428571Y-82851009D01*
X104428571Y-82851009D02*
X104428571Y-83374819D01*
X104857143Y-83327200D02*
X104952381Y-83374819D01*
X104952381Y-83374819D02*
X105142857Y-83374819D01*
X105142857Y-83374819D02*
X105238095Y-83327200D01*
X105238095Y-83327200D02*
X105285714Y-83231961D01*
X105285714Y-83231961D02*
X105285714Y-83184342D01*
X105285714Y-83184342D02*
X105238095Y-83089104D01*
X105238095Y-83089104D02*
X105142857Y-83041485D01*
X105142857Y-83041485D02*
X105000000Y-83041485D01*
X105000000Y-83041485D02*
X104904762Y-82993866D01*
X104904762Y-82993866D02*
X104857143Y-82898628D01*
X104857143Y-82898628D02*
X104857143Y-82851009D01*
X104857143Y-82851009D02*
X104904762Y-82755771D01*
X104904762Y-82755771D02*
X105000000Y-82708152D01*
X105000000Y-82708152D02*
X105142857Y-82708152D01*
X105142857Y-82708152D02*
X105238095Y-82755771D01*
X106095238Y-83327200D02*
X106000000Y-83374819D01*
X106000000Y-83374819D02*
X105809524Y-83374819D01*
X105809524Y-83374819D02*
X105714286Y-83327200D01*
X105714286Y-83327200D02*
X105666667Y-83231961D01*
X105666667Y-83231961D02*
X105666667Y-82851009D01*
X105666667Y-82851009D02*
X105714286Y-82755771D01*
X105714286Y-82755771D02*
X105809524Y-82708152D01*
X105809524Y-82708152D02*
X106000000Y-82708152D01*
X106000000Y-82708152D02*
X106095238Y-82755771D01*
X106095238Y-82755771D02*
X106142857Y-82851009D01*
X106142857Y-82851009D02*
X106142857Y-82946247D01*
X106142857Y-82946247D02*
X105666667Y-83041485D01*
X107333334Y-82993866D02*
X108095239Y-82993866D01*
X108571429Y-82708152D02*
X109333334Y-82993866D01*
X109333334Y-82993866D02*
X108571429Y-83279580D01*
X110523810Y-83089104D02*
X111000000Y-83089104D01*
X110428572Y-83374819D02*
X110761905Y-82374819D01*
X110761905Y-82374819D02*
X111095238Y-83374819D01*
X111428572Y-83374819D02*
X111428572Y-82708152D01*
X111428572Y-82898628D02*
X111476191Y-82803390D01*
X111476191Y-82803390D02*
X111523810Y-82755771D01*
X111523810Y-82755771D02*
X111619048Y-82708152D01*
X111619048Y-82708152D02*
X111714286Y-82708152D01*
X112476191Y-83374819D02*
X112476191Y-82374819D01*
X112476191Y-83327200D02*
X112380953Y-83374819D01*
X112380953Y-83374819D02*
X112190477Y-83374819D01*
X112190477Y-83374819D02*
X112095239Y-83327200D01*
X112095239Y-83327200D02*
X112047620Y-83279580D01*
X112047620Y-83279580D02*
X112000001Y-83184342D01*
X112000001Y-83184342D02*
X112000001Y-82898628D01*
X112000001Y-82898628D02*
X112047620Y-82803390D01*
X112047620Y-82803390D02*
X112095239Y-82755771D01*
X112095239Y-82755771D02*
X112190477Y-82708152D01*
X112190477Y-82708152D02*
X112380953Y-82708152D01*
X112380953Y-82708152D02*
X112476191Y-82755771D01*
X113380953Y-82708152D02*
X113380953Y-83374819D01*
X112952382Y-82708152D02*
X112952382Y-83231961D01*
X112952382Y-83231961D02*
X113000001Y-83327200D01*
X113000001Y-83327200D02*
X113095239Y-83374819D01*
X113095239Y-83374819D02*
X113238096Y-83374819D01*
X113238096Y-83374819D02*
X113333334Y-83327200D01*
X113333334Y-83327200D02*
X113380953Y-83279580D01*
X113857144Y-83374819D02*
X113857144Y-82708152D01*
X113857144Y-82374819D02*
X113809525Y-82422438D01*
X113809525Y-82422438D02*
X113857144Y-82470057D01*
X113857144Y-82470057D02*
X113904763Y-82422438D01*
X113904763Y-82422438D02*
X113857144Y-82374819D01*
X113857144Y-82374819D02*
X113857144Y-82470057D01*
X114333334Y-82708152D02*
X114333334Y-83374819D01*
X114333334Y-82803390D02*
X114380953Y-82755771D01*
X114380953Y-82755771D02*
X114476191Y-82708152D01*
X114476191Y-82708152D02*
X114619048Y-82708152D01*
X114619048Y-82708152D02*
X114714286Y-82755771D01*
X114714286Y-82755771D02*
X114761905Y-82851009D01*
X114761905Y-82851009D02*
X114761905Y-83374819D01*
X115380953Y-83374819D02*
X115285715Y-83327200D01*
X115285715Y-83327200D02*
X115238096Y-83279580D01*
X115238096Y-83279580D02*
X115190477Y-83184342D01*
X115190477Y-83184342D02*
X115190477Y-82898628D01*
X115190477Y-82898628D02*
X115238096Y-82803390D01*
X115238096Y-82803390D02*
X115285715Y-82755771D01*
X115285715Y-82755771D02*
X115380953Y-82708152D01*
X115380953Y-82708152D02*
X115523810Y-82708152D01*
X115523810Y-82708152D02*
X115619048Y-82755771D01*
X115619048Y-82755771D02*
X115666667Y-82803390D01*
X115666667Y-82803390D02*
X115714286Y-82898628D01*
X115714286Y-82898628D02*
X115714286Y-83184342D01*
X115714286Y-83184342D02*
X115666667Y-83279580D01*
X115666667Y-83279580D02*
X115619048Y-83327200D01*
X115619048Y-83327200D02*
X115523810Y-83374819D01*
X115523810Y-83374819D02*
X115380953Y-83374819D01*
X108454819Y-78333333D02*
X109169104Y-78333333D01*
X109169104Y-78333333D02*
X109311961Y-78380952D01*
X109311961Y-78380952D02*
X109407200Y-78476190D01*
X109407200Y-78476190D02*
X109454819Y-78619047D01*
X109454819Y-78619047D02*
X109454819Y-78714285D01*
X108454819Y-77952380D02*
X108454819Y-77333333D01*
X108454819Y-77333333D02*
X108835771Y-77666666D01*
X108835771Y-77666666D02*
X108835771Y-77523809D01*
X108835771Y-77523809D02*
X108883390Y-77428571D01*
X108883390Y-77428571D02*
X108931009Y-77380952D01*
X108931009Y-77380952D02*
X109026247Y-77333333D01*
X109026247Y-77333333D02*
X109264342Y-77333333D01*
X109264342Y-77333333D02*
X109359580Y-77380952D01*
X109359580Y-77380952D02*
X109407200Y-77428571D01*
X109407200Y-77428571D02*
X109454819Y-77523809D01*
X109454819Y-77523809D02*
X109454819Y-77809523D01*
X109454819Y-77809523D02*
X109407200Y-77904761D01*
X109407200Y-77904761D02*
X109359580Y-77952380D01*
X50928571Y-52824819D02*
X50357143Y-52824819D01*
X50642857Y-52824819D02*
X50642857Y-51824819D01*
X50642857Y-51824819D02*
X50547619Y-51967676D01*
X50547619Y-51967676D02*
X50452381Y-52062914D01*
X50452381Y-52062914D02*
X50357143Y-52110533D01*
X51357143Y-52824819D02*
X51357143Y-51824819D01*
X51452381Y-52443866D02*
X51738095Y-52824819D01*
X51738095Y-52158152D02*
X51357143Y-52539104D01*
X52357143Y-51824819D02*
X52452381Y-51824819D01*
X52452381Y-51824819D02*
X52547619Y-51872438D01*
X52547619Y-51872438D02*
X52595238Y-51920057D01*
X52595238Y-51920057D02*
X52642857Y-52015295D01*
X52642857Y-52015295D02*
X52690476Y-52205771D01*
X52690476Y-52205771D02*
X52690476Y-52443866D01*
X52690476Y-52443866D02*
X52642857Y-52634342D01*
X52642857Y-52634342D02*
X52595238Y-52729580D01*
X52595238Y-52729580D02*
X52547619Y-52777200D01*
X52547619Y-52777200D02*
X52452381Y-52824819D01*
X52452381Y-52824819D02*
X52357143Y-52824819D01*
X52357143Y-52824819D02*
X52261905Y-52777200D01*
X52261905Y-52777200D02*
X52214286Y-52729580D01*
X52214286Y-52729580D02*
X52166667Y-52634342D01*
X52166667Y-52634342D02*
X52119048Y-52443866D01*
X52119048Y-52443866D02*
X52119048Y-52205771D01*
X52119048Y-52205771D02*
X52166667Y-52015295D01*
X52166667Y-52015295D02*
X52214286Y-51920057D01*
X52214286Y-51920057D02*
X52261905Y-51872438D01*
X52261905Y-51872438D02*
X52357143Y-51824819D01*
X53309524Y-51824819D02*
X53404762Y-51824819D01*
X53404762Y-51824819D02*
X53500000Y-51872438D01*
X53500000Y-51872438D02*
X53547619Y-51920057D01*
X53547619Y-51920057D02*
X53595238Y-52015295D01*
X53595238Y-52015295D02*
X53642857Y-52205771D01*
X53642857Y-52205771D02*
X53642857Y-52443866D01*
X53642857Y-52443866D02*
X53595238Y-52634342D01*
X53595238Y-52634342D02*
X53547619Y-52729580D01*
X53547619Y-52729580D02*
X53500000Y-52777200D01*
X53500000Y-52777200D02*
X53404762Y-52824819D01*
X53404762Y-52824819D02*
X53309524Y-52824819D01*
X53309524Y-52824819D02*
X53214286Y-52777200D01*
X53214286Y-52777200D02*
X53166667Y-52729580D01*
X53166667Y-52729580D02*
X53119048Y-52634342D01*
X53119048Y-52634342D02*
X53071429Y-52443866D01*
X53071429Y-52443866D02*
X53071429Y-52205771D01*
X53071429Y-52205771D02*
X53119048Y-52015295D01*
X53119048Y-52015295D02*
X53166667Y-51920057D01*
X53166667Y-51920057D02*
X53214286Y-51872438D01*
X53214286Y-51872438D02*
X53309524Y-51824819D01*
X51833333Y-50454819D02*
X51500000Y-49978628D01*
X51261905Y-50454819D02*
X51261905Y-49454819D01*
X51261905Y-49454819D02*
X51642857Y-49454819D01*
X51642857Y-49454819D02*
X51738095Y-49502438D01*
X51738095Y-49502438D02*
X51785714Y-49550057D01*
X51785714Y-49550057D02*
X51833333Y-49645295D01*
X51833333Y-49645295D02*
X51833333Y-49788152D01*
X51833333Y-49788152D02*
X51785714Y-49883390D01*
X51785714Y-49883390D02*
X51738095Y-49931009D01*
X51738095Y-49931009D02*
X51642857Y-49978628D01*
X51642857Y-49978628D02*
X51261905Y-49978628D01*
X52166667Y-49454819D02*
X52833333Y-49454819D01*
X52833333Y-49454819D02*
X52404762Y-50454819D01*
X32785714Y-25374819D02*
X32785714Y-24374819D01*
X32785714Y-24374819D02*
X33166666Y-24374819D01*
X33166666Y-24374819D02*
X33261904Y-24422438D01*
X33261904Y-24422438D02*
X33309523Y-24470057D01*
X33309523Y-24470057D02*
X33357142Y-24565295D01*
X33357142Y-24565295D02*
X33357142Y-24708152D01*
X33357142Y-24708152D02*
X33309523Y-24803390D01*
X33309523Y-24803390D02*
X33261904Y-24851009D01*
X33261904Y-24851009D02*
X33166666Y-24898628D01*
X33166666Y-24898628D02*
X32785714Y-24898628D01*
X33642857Y-24374819D02*
X33976190Y-25374819D01*
X33976190Y-25374819D02*
X34309523Y-24374819D01*
X35404762Y-25374819D02*
X35404762Y-24708152D01*
X35404762Y-24374819D02*
X35357143Y-24422438D01*
X35357143Y-24422438D02*
X35404762Y-24470057D01*
X35404762Y-24470057D02*
X35452381Y-24422438D01*
X35452381Y-24422438D02*
X35404762Y-24374819D01*
X35404762Y-24374819D02*
X35404762Y-24470057D01*
X35880952Y-24708152D02*
X35880952Y-25374819D01*
X35880952Y-24803390D02*
X35928571Y-24755771D01*
X35928571Y-24755771D02*
X36023809Y-24708152D01*
X36023809Y-24708152D02*
X36166666Y-24708152D01*
X36166666Y-24708152D02*
X36261904Y-24755771D01*
X36261904Y-24755771D02*
X36309523Y-24851009D01*
X36309523Y-24851009D02*
X36309523Y-25374819D01*
X37214285Y-25374819D02*
X37214285Y-24374819D01*
X37214285Y-25327200D02*
X37119047Y-25374819D01*
X37119047Y-25374819D02*
X36928571Y-25374819D01*
X36928571Y-25374819D02*
X36833333Y-25327200D01*
X36833333Y-25327200D02*
X36785714Y-25279580D01*
X36785714Y-25279580D02*
X36738095Y-25184342D01*
X36738095Y-25184342D02*
X36738095Y-24898628D01*
X36738095Y-24898628D02*
X36785714Y-24803390D01*
X36785714Y-24803390D02*
X36833333Y-24755771D01*
X36833333Y-24755771D02*
X36928571Y-24708152D01*
X36928571Y-24708152D02*
X37119047Y-24708152D01*
X37119047Y-24708152D02*
X37214285Y-24755771D01*
X34666666Y-29454819D02*
X34666666Y-30169104D01*
X34666666Y-30169104D02*
X34619047Y-30311961D01*
X34619047Y-30311961D02*
X34523809Y-30407200D01*
X34523809Y-30407200D02*
X34380952Y-30454819D01*
X34380952Y-30454819D02*
X34285714Y-30454819D01*
X35666666Y-30454819D02*
X35095238Y-30454819D01*
X35380952Y-30454819D02*
X35380952Y-29454819D01*
X35380952Y-29454819D02*
X35285714Y-29597676D01*
X35285714Y-29597676D02*
X35190476Y-29692914D01*
X35190476Y-29692914D02*
X35095238Y-29740533D01*
X62452381Y-52824819D02*
X62642857Y-52824819D01*
X62642857Y-52824819D02*
X62738095Y-52777200D01*
X62738095Y-52777200D02*
X62785714Y-52729580D01*
X62785714Y-52729580D02*
X62880952Y-52586723D01*
X62880952Y-52586723D02*
X62928571Y-52396247D01*
X62928571Y-52396247D02*
X62928571Y-52015295D01*
X62928571Y-52015295D02*
X62880952Y-51920057D01*
X62880952Y-51920057D02*
X62833333Y-51872438D01*
X62833333Y-51872438D02*
X62738095Y-51824819D01*
X62738095Y-51824819D02*
X62547619Y-51824819D01*
X62547619Y-51824819D02*
X62452381Y-51872438D01*
X62452381Y-51872438D02*
X62404762Y-51920057D01*
X62404762Y-51920057D02*
X62357143Y-52015295D01*
X62357143Y-52015295D02*
X62357143Y-52253390D01*
X62357143Y-52253390D02*
X62404762Y-52348628D01*
X62404762Y-52348628D02*
X62452381Y-52396247D01*
X62452381Y-52396247D02*
X62547619Y-52443866D01*
X62547619Y-52443866D02*
X62738095Y-52443866D01*
X62738095Y-52443866D02*
X62833333Y-52396247D01*
X62833333Y-52396247D02*
X62880952Y-52348628D01*
X62880952Y-52348628D02*
X62928571Y-52253390D01*
X63357143Y-52824819D02*
X63357143Y-51824819D01*
X63452381Y-52443866D02*
X63738095Y-52824819D01*
X63738095Y-52158152D02*
X63357143Y-52539104D01*
X64357143Y-51824819D02*
X64452381Y-51824819D01*
X64452381Y-51824819D02*
X64547619Y-51872438D01*
X64547619Y-51872438D02*
X64595238Y-51920057D01*
X64595238Y-51920057D02*
X64642857Y-52015295D01*
X64642857Y-52015295D02*
X64690476Y-52205771D01*
X64690476Y-52205771D02*
X64690476Y-52443866D01*
X64690476Y-52443866D02*
X64642857Y-52634342D01*
X64642857Y-52634342D02*
X64595238Y-52729580D01*
X64595238Y-52729580D02*
X64547619Y-52777200D01*
X64547619Y-52777200D02*
X64452381Y-52824819D01*
X64452381Y-52824819D02*
X64357143Y-52824819D01*
X64357143Y-52824819D02*
X64261905Y-52777200D01*
X64261905Y-52777200D02*
X64214286Y-52729580D01*
X64214286Y-52729580D02*
X64166667Y-52634342D01*
X64166667Y-52634342D02*
X64119048Y-52443866D01*
X64119048Y-52443866D02*
X64119048Y-52205771D01*
X64119048Y-52205771D02*
X64166667Y-52015295D01*
X64166667Y-52015295D02*
X64214286Y-51920057D01*
X64214286Y-51920057D02*
X64261905Y-51872438D01*
X64261905Y-51872438D02*
X64357143Y-51824819D01*
X65166667Y-52824819D02*
X65357143Y-52824819D01*
X65357143Y-52824819D02*
X65452381Y-52777200D01*
X65452381Y-52777200D02*
X65500000Y-52729580D01*
X65500000Y-52729580D02*
X65595238Y-52586723D01*
X65595238Y-52586723D02*
X65642857Y-52396247D01*
X65642857Y-52396247D02*
X65642857Y-52015295D01*
X65642857Y-52015295D02*
X65595238Y-51920057D01*
X65595238Y-51920057D02*
X65547619Y-51872438D01*
X65547619Y-51872438D02*
X65452381Y-51824819D01*
X65452381Y-51824819D02*
X65261905Y-51824819D01*
X65261905Y-51824819D02*
X65166667Y-51872438D01*
X65166667Y-51872438D02*
X65119048Y-51920057D01*
X65119048Y-51920057D02*
X65071429Y-52015295D01*
X65071429Y-52015295D02*
X65071429Y-52253390D01*
X65071429Y-52253390D02*
X65119048Y-52348628D01*
X65119048Y-52348628D02*
X65166667Y-52396247D01*
X65166667Y-52396247D02*
X65261905Y-52443866D01*
X65261905Y-52443866D02*
X65452381Y-52443866D01*
X65452381Y-52443866D02*
X65547619Y-52396247D01*
X65547619Y-52396247D02*
X65595238Y-52348628D01*
X65595238Y-52348628D02*
X65642857Y-52253390D01*
X63833333Y-50454819D02*
X63500000Y-49978628D01*
X63261905Y-50454819D02*
X63261905Y-49454819D01*
X63261905Y-49454819D02*
X63642857Y-49454819D01*
X63642857Y-49454819D02*
X63738095Y-49502438D01*
X63738095Y-49502438D02*
X63785714Y-49550057D01*
X63785714Y-49550057D02*
X63833333Y-49645295D01*
X63833333Y-49645295D02*
X63833333Y-49788152D01*
X63833333Y-49788152D02*
X63785714Y-49883390D01*
X63785714Y-49883390D02*
X63738095Y-49931009D01*
X63738095Y-49931009D02*
X63642857Y-49978628D01*
X63642857Y-49978628D02*
X63261905Y-49978628D01*
X64404762Y-49883390D02*
X64309524Y-49835771D01*
X64309524Y-49835771D02*
X64261905Y-49788152D01*
X64261905Y-49788152D02*
X64214286Y-49692914D01*
X64214286Y-49692914D02*
X64214286Y-49645295D01*
X64214286Y-49645295D02*
X64261905Y-49550057D01*
X64261905Y-49550057D02*
X64309524Y-49502438D01*
X64309524Y-49502438D02*
X64404762Y-49454819D01*
X64404762Y-49454819D02*
X64595238Y-49454819D01*
X64595238Y-49454819D02*
X64690476Y-49502438D01*
X64690476Y-49502438D02*
X64738095Y-49550057D01*
X64738095Y-49550057D02*
X64785714Y-49645295D01*
X64785714Y-49645295D02*
X64785714Y-49692914D01*
X64785714Y-49692914D02*
X64738095Y-49788152D01*
X64738095Y-49788152D02*
X64690476Y-49835771D01*
X64690476Y-49835771D02*
X64595238Y-49883390D01*
X64595238Y-49883390D02*
X64404762Y-49883390D01*
X64404762Y-49883390D02*
X64309524Y-49931009D01*
X64309524Y-49931009D02*
X64261905Y-49978628D01*
X64261905Y-49978628D02*
X64214286Y-50073866D01*
X64214286Y-50073866D02*
X64214286Y-50264342D01*
X64214286Y-50264342D02*
X64261905Y-50359580D01*
X64261905Y-50359580D02*
X64309524Y-50407200D01*
X64309524Y-50407200D02*
X64404762Y-50454819D01*
X64404762Y-50454819D02*
X64595238Y-50454819D01*
X64595238Y-50454819D02*
X64690476Y-50407200D01*
X64690476Y-50407200D02*
X64738095Y-50359580D01*
X64738095Y-50359580D02*
X64785714Y-50264342D01*
X64785714Y-50264342D02*
X64785714Y-50073866D01*
X64785714Y-50073866D02*
X64738095Y-49978628D01*
X64738095Y-49978628D02*
X64690476Y-49931009D01*
X64690476Y-49931009D02*
X64595238Y-49883390D01*
X104071427Y-62868152D02*
X104452379Y-62868152D01*
X104214284Y-62534819D02*
X104214284Y-63391961D01*
X104214284Y-63391961D02*
X104261903Y-63487200D01*
X104261903Y-63487200D02*
X104357141Y-63534819D01*
X104357141Y-63534819D02*
X104452379Y-63534819D01*
X104785713Y-63534819D02*
X104785713Y-62868152D01*
X104785713Y-62534819D02*
X104738094Y-62582438D01*
X104738094Y-62582438D02*
X104785713Y-62630057D01*
X104785713Y-62630057D02*
X104833332Y-62582438D01*
X104833332Y-62582438D02*
X104785713Y-62534819D01*
X104785713Y-62534819D02*
X104785713Y-62630057D01*
X105404760Y-63534819D02*
X105309522Y-63487200D01*
X105309522Y-63487200D02*
X105261903Y-63391961D01*
X105261903Y-63391961D02*
X105261903Y-62534819D01*
X106690475Y-63534819D02*
X106595237Y-63487200D01*
X106595237Y-63487200D02*
X106547618Y-63391961D01*
X106547618Y-63391961D02*
X106547618Y-62534819D01*
X107499999Y-63534819D02*
X107499999Y-63011009D01*
X107499999Y-63011009D02*
X107452380Y-62915771D01*
X107452380Y-62915771D02*
X107357142Y-62868152D01*
X107357142Y-62868152D02*
X107166666Y-62868152D01*
X107166666Y-62868152D02*
X107071428Y-62915771D01*
X107499999Y-63487200D02*
X107404761Y-63534819D01*
X107404761Y-63534819D02*
X107166666Y-63534819D01*
X107166666Y-63534819D02*
X107071428Y-63487200D01*
X107071428Y-63487200D02*
X107023809Y-63391961D01*
X107023809Y-63391961D02*
X107023809Y-63296723D01*
X107023809Y-63296723D02*
X107071428Y-63201485D01*
X107071428Y-63201485D02*
X107166666Y-63153866D01*
X107166666Y-63153866D02*
X107404761Y-63153866D01*
X107404761Y-63153866D02*
X107499999Y-63106247D01*
X108404761Y-62868152D02*
X108404761Y-63677676D01*
X108404761Y-63677676D02*
X108357142Y-63772914D01*
X108357142Y-63772914D02*
X108309523Y-63820533D01*
X108309523Y-63820533D02*
X108214285Y-63868152D01*
X108214285Y-63868152D02*
X108071428Y-63868152D01*
X108071428Y-63868152D02*
X107976190Y-63820533D01*
X108404761Y-63487200D02*
X108309523Y-63534819D01*
X108309523Y-63534819D02*
X108119047Y-63534819D01*
X108119047Y-63534819D02*
X108023809Y-63487200D01*
X108023809Y-63487200D02*
X107976190Y-63439580D01*
X107976190Y-63439580D02*
X107928571Y-63344342D01*
X107928571Y-63344342D02*
X107928571Y-63058628D01*
X107928571Y-63058628D02*
X107976190Y-62963390D01*
X107976190Y-62963390D02*
X108023809Y-62915771D01*
X108023809Y-62915771D02*
X108119047Y-62868152D01*
X108119047Y-62868152D02*
X108309523Y-62868152D01*
X108309523Y-62868152D02*
X108404761Y-62915771D01*
X109261904Y-63487200D02*
X109166666Y-63534819D01*
X109166666Y-63534819D02*
X108976190Y-63534819D01*
X108976190Y-63534819D02*
X108880952Y-63487200D01*
X108880952Y-63487200D02*
X108833333Y-63391961D01*
X108833333Y-63391961D02*
X108833333Y-63011009D01*
X108833333Y-63011009D02*
X108880952Y-62915771D01*
X108880952Y-62915771D02*
X108976190Y-62868152D01*
X108976190Y-62868152D02*
X109166666Y-62868152D01*
X109166666Y-62868152D02*
X109261904Y-62915771D01*
X109261904Y-62915771D02*
X109309523Y-63011009D01*
X109309523Y-63011009D02*
X109309523Y-63106247D01*
X109309523Y-63106247D02*
X108833333Y-63201485D01*
X109738095Y-63534819D02*
X109738095Y-62868152D01*
X109738095Y-63058628D02*
X109785714Y-62963390D01*
X109785714Y-62963390D02*
X109833333Y-62915771D01*
X109833333Y-62915771D02*
X109928571Y-62868152D01*
X109928571Y-62868152D02*
X110023809Y-62868152D01*
X111404762Y-63915771D02*
X111357143Y-63868152D01*
X111357143Y-63868152D02*
X111261905Y-63725295D01*
X111261905Y-63725295D02*
X111214286Y-63630057D01*
X111214286Y-63630057D02*
X111166667Y-63487200D01*
X111166667Y-63487200D02*
X111119048Y-63249104D01*
X111119048Y-63249104D02*
X111119048Y-63058628D01*
X111119048Y-63058628D02*
X111166667Y-62820533D01*
X111166667Y-62820533D02*
X111214286Y-62677676D01*
X111214286Y-62677676D02*
X111261905Y-62582438D01*
X111261905Y-62582438D02*
X111357143Y-62439580D01*
X111357143Y-62439580D02*
X111404762Y-62391961D01*
X111642858Y-62534819D02*
X111976191Y-63534819D01*
X111976191Y-63534819D02*
X112309524Y-62534819D01*
X112547620Y-62534819D02*
X113166667Y-62534819D01*
X113166667Y-62534819D02*
X112833334Y-62915771D01*
X112833334Y-62915771D02*
X112976191Y-62915771D01*
X112976191Y-62915771D02*
X113071429Y-62963390D01*
X113071429Y-62963390D02*
X113119048Y-63011009D01*
X113119048Y-63011009D02*
X113166667Y-63106247D01*
X113166667Y-63106247D02*
X113166667Y-63344342D01*
X113166667Y-63344342D02*
X113119048Y-63439580D01*
X113119048Y-63439580D02*
X113071429Y-63487200D01*
X113071429Y-63487200D02*
X112976191Y-63534819D01*
X112976191Y-63534819D02*
X112690477Y-63534819D01*
X112690477Y-63534819D02*
X112595239Y-63487200D01*
X112595239Y-63487200D02*
X112547620Y-63439580D01*
X113500001Y-63915771D02*
X113547620Y-63868152D01*
X113547620Y-63868152D02*
X113642858Y-63725295D01*
X113642858Y-63725295D02*
X113690477Y-63630057D01*
X113690477Y-63630057D02*
X113738096Y-63487200D01*
X113738096Y-63487200D02*
X113785715Y-63249104D01*
X113785715Y-63249104D02*
X113785715Y-63058628D01*
X113785715Y-63058628D02*
X113738096Y-62820533D01*
X113738096Y-62820533D02*
X113690477Y-62677676D01*
X113690477Y-62677676D02*
X113642858Y-62582438D01*
X113642858Y-62582438D02*
X113547620Y-62439580D01*
X113547620Y-62439580D02*
X113500001Y-62391961D01*
X108666666Y-57454819D02*
X108666666Y-58169104D01*
X108666666Y-58169104D02*
X108619047Y-58311961D01*
X108619047Y-58311961D02*
X108523809Y-58407200D01*
X108523809Y-58407200D02*
X108380952Y-58454819D01*
X108380952Y-58454819D02*
X108285714Y-58454819D01*
X109095238Y-57550057D02*
X109142857Y-57502438D01*
X109142857Y-57502438D02*
X109238095Y-57454819D01*
X109238095Y-57454819D02*
X109476190Y-57454819D01*
X109476190Y-57454819D02*
X109571428Y-57502438D01*
X109571428Y-57502438D02*
X109619047Y-57550057D01*
X109619047Y-57550057D02*
X109666666Y-57645295D01*
X109666666Y-57645295D02*
X109666666Y-57740533D01*
X109666666Y-57740533D02*
X109619047Y-57883390D01*
X109619047Y-57883390D02*
X109047619Y-58454819D01*
X109047619Y-58454819D02*
X109666666Y-58454819D01*
X49857142Y-28924819D02*
X49285714Y-28924819D01*
X49571428Y-28924819D02*
X49571428Y-27924819D01*
X49571428Y-27924819D02*
X49476190Y-28067676D01*
X49476190Y-28067676D02*
X49380952Y-28162914D01*
X49380952Y-28162914D02*
X49285714Y-28210533D01*
X50285714Y-28924819D02*
X50285714Y-27924819D01*
X50285714Y-27924819D02*
X50857142Y-28924819D01*
X50857142Y-28924819D02*
X50857142Y-27924819D01*
X51809523Y-27924819D02*
X51333333Y-27924819D01*
X51333333Y-27924819D02*
X51285714Y-28401009D01*
X51285714Y-28401009D02*
X51333333Y-28353390D01*
X51333333Y-28353390D02*
X51428571Y-28305771D01*
X51428571Y-28305771D02*
X51666666Y-28305771D01*
X51666666Y-28305771D02*
X51761904Y-28353390D01*
X51761904Y-28353390D02*
X51809523Y-28401009D01*
X51809523Y-28401009D02*
X51857142Y-28496247D01*
X51857142Y-28496247D02*
X51857142Y-28734342D01*
X51857142Y-28734342D02*
X51809523Y-28829580D01*
X51809523Y-28829580D02*
X51761904Y-28877200D01*
X51761904Y-28877200D02*
X51666666Y-28924819D01*
X51666666Y-28924819D02*
X51428571Y-28924819D01*
X51428571Y-28924819D02*
X51333333Y-28877200D01*
X51333333Y-28877200D02*
X51285714Y-28829580D01*
X52428571Y-28353390D02*
X52333333Y-28305771D01*
X52333333Y-28305771D02*
X52285714Y-28258152D01*
X52285714Y-28258152D02*
X52238095Y-28162914D01*
X52238095Y-28162914D02*
X52238095Y-28115295D01*
X52238095Y-28115295D02*
X52285714Y-28020057D01*
X52285714Y-28020057D02*
X52333333Y-27972438D01*
X52333333Y-27972438D02*
X52428571Y-27924819D01*
X52428571Y-27924819D02*
X52619047Y-27924819D01*
X52619047Y-27924819D02*
X52714285Y-27972438D01*
X52714285Y-27972438D02*
X52761904Y-28020057D01*
X52761904Y-28020057D02*
X52809523Y-28115295D01*
X52809523Y-28115295D02*
X52809523Y-28162914D01*
X52809523Y-28162914D02*
X52761904Y-28258152D01*
X52761904Y-28258152D02*
X52714285Y-28305771D01*
X52714285Y-28305771D02*
X52619047Y-28353390D01*
X52619047Y-28353390D02*
X52428571Y-28353390D01*
X52428571Y-28353390D02*
X52333333Y-28401009D01*
X52333333Y-28401009D02*
X52285714Y-28448628D01*
X52285714Y-28448628D02*
X52238095Y-28543866D01*
X52238095Y-28543866D02*
X52238095Y-28734342D01*
X52238095Y-28734342D02*
X52285714Y-28829580D01*
X52285714Y-28829580D02*
X52333333Y-28877200D01*
X52333333Y-28877200D02*
X52428571Y-28924819D01*
X52428571Y-28924819D02*
X52619047Y-28924819D01*
X52619047Y-28924819D02*
X52714285Y-28877200D01*
X52714285Y-28877200D02*
X52761904Y-28829580D01*
X52761904Y-28829580D02*
X52809523Y-28734342D01*
X52809523Y-28734342D02*
X52809523Y-28543866D01*
X52809523Y-28543866D02*
X52761904Y-28448628D01*
X52761904Y-28448628D02*
X52714285Y-28401009D01*
X52714285Y-28401009D02*
X52619047Y-28353390D01*
X53761904Y-28924819D02*
X53190476Y-28924819D01*
X53476190Y-28924819D02*
X53476190Y-27924819D01*
X53476190Y-27924819D02*
X53380952Y-28067676D01*
X53380952Y-28067676D02*
X53285714Y-28162914D01*
X53285714Y-28162914D02*
X53190476Y-28210533D01*
X54095238Y-27924819D02*
X54761904Y-27924819D01*
X54761904Y-27924819D02*
X54333333Y-28924819D01*
X51651905Y-26454819D02*
X51651905Y-25454819D01*
X51651905Y-25454819D02*
X51890000Y-25454819D01*
X51890000Y-25454819D02*
X52032857Y-25502438D01*
X52032857Y-25502438D02*
X52128095Y-25597676D01*
X52128095Y-25597676D02*
X52175714Y-25692914D01*
X52175714Y-25692914D02*
X52223333Y-25883390D01*
X52223333Y-25883390D02*
X52223333Y-26026247D01*
X52223333Y-26026247D02*
X52175714Y-26216723D01*
X52175714Y-26216723D02*
X52128095Y-26311961D01*
X52128095Y-26311961D02*
X52032857Y-26407200D01*
X52032857Y-26407200D02*
X51890000Y-26454819D01*
X51890000Y-26454819D02*
X51651905Y-26454819D01*
X53175714Y-26454819D02*
X52604286Y-26454819D01*
X52890000Y-26454819D02*
X52890000Y-25454819D01*
X52890000Y-25454819D02*
X52794762Y-25597676D01*
X52794762Y-25597676D02*
X52699524Y-25692914D01*
X52699524Y-25692914D02*
X52604286Y-25740533D01*
X46658095Y-24354819D02*
X46658095Y-23354819D01*
X47229523Y-24354819D02*
X46800952Y-23783390D01*
X47229523Y-23354819D02*
X46658095Y-23926247D01*
X86676961Y-43038152D02*
X86676961Y-43704819D01*
X86438866Y-42657200D02*
X86200771Y-43371485D01*
X86200771Y-43371485D02*
X86819818Y-43371485D01*
X87105533Y-42704819D02*
X87772199Y-42704819D01*
X87772199Y-42704819D02*
X87343628Y-43704819D01*
X88343628Y-42704819D02*
X88438866Y-42704819D01*
X88438866Y-42704819D02*
X88534104Y-42752438D01*
X88534104Y-42752438D02*
X88581723Y-42800057D01*
X88581723Y-42800057D02*
X88629342Y-42895295D01*
X88629342Y-42895295D02*
X88676961Y-43085771D01*
X88676961Y-43085771D02*
X88676961Y-43323866D01*
X88676961Y-43323866D02*
X88629342Y-43514342D01*
X88629342Y-43514342D02*
X88581723Y-43609580D01*
X88581723Y-43609580D02*
X88534104Y-43657200D01*
X88534104Y-43657200D02*
X88438866Y-43704819D01*
X88438866Y-43704819D02*
X88343628Y-43704819D01*
X88343628Y-43704819D02*
X88248390Y-43657200D01*
X88248390Y-43657200D02*
X88200771Y-43609580D01*
X88200771Y-43609580D02*
X88153152Y-43514342D01*
X88153152Y-43514342D02*
X88105533Y-43323866D01*
X88105533Y-43323866D02*
X88105533Y-43085771D01*
X88105533Y-43085771D02*
X88153152Y-42895295D01*
X88153152Y-42895295D02*
X88200771Y-42800057D01*
X88200771Y-42800057D02*
X88248390Y-42752438D01*
X88248390Y-42752438D02*
X88343628Y-42704819D01*
X89296009Y-42704819D02*
X89391247Y-42704819D01*
X89391247Y-42704819D02*
X89486485Y-42752438D01*
X89486485Y-42752438D02*
X89534104Y-42800057D01*
X89534104Y-42800057D02*
X89581723Y-42895295D01*
X89581723Y-42895295D02*
X89629342Y-43085771D01*
X89629342Y-43085771D02*
X89629342Y-43323866D01*
X89629342Y-43323866D02*
X89581723Y-43514342D01*
X89581723Y-43514342D02*
X89534104Y-43609580D01*
X89534104Y-43609580D02*
X89486485Y-43657200D01*
X89486485Y-43657200D02*
X89391247Y-43704819D01*
X89391247Y-43704819D02*
X89296009Y-43704819D01*
X89296009Y-43704819D02*
X89200771Y-43657200D01*
X89200771Y-43657200D02*
X89153152Y-43609580D01*
X89153152Y-43609580D02*
X89105533Y-43514342D01*
X89105533Y-43514342D02*
X89057914Y-43323866D01*
X89057914Y-43323866D02*
X89057914Y-43085771D01*
X89057914Y-43085771D02*
X89105533Y-42895295D01*
X89105533Y-42895295D02*
X89153152Y-42800057D01*
X89153152Y-42800057D02*
X89200771Y-42752438D01*
X89200771Y-42752438D02*
X89296009Y-42704819D01*
X90486485Y-43038152D02*
X90486485Y-43704819D01*
X90057914Y-43038152D02*
X90057914Y-43561961D01*
X90057914Y-43561961D02*
X90105533Y-43657200D01*
X90105533Y-43657200D02*
X90200771Y-43704819D01*
X90200771Y-43704819D02*
X90343628Y-43704819D01*
X90343628Y-43704819D02*
X90438866Y-43657200D01*
X90438866Y-43657200D02*
X90486485Y-43609580D01*
X91676961Y-42657200D02*
X90819819Y-43942914D01*
X92486485Y-42704819D02*
X92010295Y-42704819D01*
X92010295Y-42704819D02*
X91962676Y-43181009D01*
X91962676Y-43181009D02*
X92010295Y-43133390D01*
X92010295Y-43133390D02*
X92105533Y-43085771D01*
X92105533Y-43085771D02*
X92343628Y-43085771D01*
X92343628Y-43085771D02*
X92438866Y-43133390D01*
X92438866Y-43133390D02*
X92486485Y-43181009D01*
X92486485Y-43181009D02*
X92534104Y-43276247D01*
X92534104Y-43276247D02*
X92534104Y-43514342D01*
X92534104Y-43514342D02*
X92486485Y-43609580D01*
X92486485Y-43609580D02*
X92438866Y-43657200D01*
X92438866Y-43657200D02*
X92343628Y-43704819D01*
X92343628Y-43704819D02*
X92105533Y-43704819D01*
X92105533Y-43704819D02*
X92010295Y-43657200D01*
X92010295Y-43657200D02*
X91962676Y-43609580D01*
X93153152Y-42704819D02*
X93248390Y-42704819D01*
X93248390Y-42704819D02*
X93343628Y-42752438D01*
X93343628Y-42752438D02*
X93391247Y-42800057D01*
X93391247Y-42800057D02*
X93438866Y-42895295D01*
X93438866Y-42895295D02*
X93486485Y-43085771D01*
X93486485Y-43085771D02*
X93486485Y-43323866D01*
X93486485Y-43323866D02*
X93438866Y-43514342D01*
X93438866Y-43514342D02*
X93391247Y-43609580D01*
X93391247Y-43609580D02*
X93343628Y-43657200D01*
X93343628Y-43657200D02*
X93248390Y-43704819D01*
X93248390Y-43704819D02*
X93153152Y-43704819D01*
X93153152Y-43704819D02*
X93057914Y-43657200D01*
X93057914Y-43657200D02*
X93010295Y-43609580D01*
X93010295Y-43609580D02*
X92962676Y-43514342D01*
X92962676Y-43514342D02*
X92915057Y-43323866D01*
X92915057Y-43323866D02*
X92915057Y-43085771D01*
X92915057Y-43085771D02*
X92962676Y-42895295D01*
X92962676Y-42895295D02*
X93010295Y-42800057D01*
X93010295Y-42800057D02*
X93057914Y-42752438D01*
X93057914Y-42752438D02*
X93153152Y-42704819D01*
X93772200Y-42704819D02*
X94105533Y-43704819D01*
X94105533Y-43704819D02*
X94438866Y-42704819D01*
X90105533Y-33359580D02*
X90057914Y-33407200D01*
X90057914Y-33407200D02*
X89915057Y-33454819D01*
X89915057Y-33454819D02*
X89819819Y-33454819D01*
X89819819Y-33454819D02*
X89676962Y-33407200D01*
X89676962Y-33407200D02*
X89581724Y-33311961D01*
X89581724Y-33311961D02*
X89534105Y-33216723D01*
X89534105Y-33216723D02*
X89486486Y-33026247D01*
X89486486Y-33026247D02*
X89486486Y-32883390D01*
X89486486Y-32883390D02*
X89534105Y-32692914D01*
X89534105Y-32692914D02*
X89581724Y-32597676D01*
X89581724Y-32597676D02*
X89676962Y-32502438D01*
X89676962Y-32502438D02*
X89819819Y-32454819D01*
X89819819Y-32454819D02*
X89915057Y-32454819D01*
X89915057Y-32454819D02*
X90057914Y-32502438D01*
X90057914Y-32502438D02*
X90105533Y-32550057D01*
X90486486Y-32550057D02*
X90534105Y-32502438D01*
X90534105Y-32502438D02*
X90629343Y-32454819D01*
X90629343Y-32454819D02*
X90867438Y-32454819D01*
X90867438Y-32454819D02*
X90962676Y-32502438D01*
X90962676Y-32502438D02*
X91010295Y-32550057D01*
X91010295Y-32550057D02*
X91057914Y-32645295D01*
X91057914Y-32645295D02*
X91057914Y-32740533D01*
X91057914Y-32740533D02*
X91010295Y-32883390D01*
X91010295Y-32883390D02*
X90438867Y-33454819D01*
X90438867Y-33454819D02*
X91057914Y-33454819D01*
X36928571Y-80824819D02*
X36357143Y-80824819D01*
X36642857Y-80824819D02*
X36642857Y-79824819D01*
X36642857Y-79824819D02*
X36547619Y-79967676D01*
X36547619Y-79967676D02*
X36452381Y-80062914D01*
X36452381Y-80062914D02*
X36357143Y-80110533D01*
X37357143Y-80824819D02*
X37357143Y-79824819D01*
X37452381Y-80443866D02*
X37738095Y-80824819D01*
X37738095Y-80158152D02*
X37357143Y-80539104D01*
X38357143Y-79824819D02*
X38452381Y-79824819D01*
X38452381Y-79824819D02*
X38547619Y-79872438D01*
X38547619Y-79872438D02*
X38595238Y-79920057D01*
X38595238Y-79920057D02*
X38642857Y-80015295D01*
X38642857Y-80015295D02*
X38690476Y-80205771D01*
X38690476Y-80205771D02*
X38690476Y-80443866D01*
X38690476Y-80443866D02*
X38642857Y-80634342D01*
X38642857Y-80634342D02*
X38595238Y-80729580D01*
X38595238Y-80729580D02*
X38547619Y-80777200D01*
X38547619Y-80777200D02*
X38452381Y-80824819D01*
X38452381Y-80824819D02*
X38357143Y-80824819D01*
X38357143Y-80824819D02*
X38261905Y-80777200D01*
X38261905Y-80777200D02*
X38214286Y-80729580D01*
X38214286Y-80729580D02*
X38166667Y-80634342D01*
X38166667Y-80634342D02*
X38119048Y-80443866D01*
X38119048Y-80443866D02*
X38119048Y-80205771D01*
X38119048Y-80205771D02*
X38166667Y-80015295D01*
X38166667Y-80015295D02*
X38214286Y-79920057D01*
X38214286Y-79920057D02*
X38261905Y-79872438D01*
X38261905Y-79872438D02*
X38357143Y-79824819D01*
X39309524Y-79824819D02*
X39404762Y-79824819D01*
X39404762Y-79824819D02*
X39500000Y-79872438D01*
X39500000Y-79872438D02*
X39547619Y-79920057D01*
X39547619Y-79920057D02*
X39595238Y-80015295D01*
X39595238Y-80015295D02*
X39642857Y-80205771D01*
X39642857Y-80205771D02*
X39642857Y-80443866D01*
X39642857Y-80443866D02*
X39595238Y-80634342D01*
X39595238Y-80634342D02*
X39547619Y-80729580D01*
X39547619Y-80729580D02*
X39500000Y-80777200D01*
X39500000Y-80777200D02*
X39404762Y-80824819D01*
X39404762Y-80824819D02*
X39309524Y-80824819D01*
X39309524Y-80824819D02*
X39214286Y-80777200D01*
X39214286Y-80777200D02*
X39166667Y-80729580D01*
X39166667Y-80729580D02*
X39119048Y-80634342D01*
X39119048Y-80634342D02*
X39071429Y-80443866D01*
X39071429Y-80443866D02*
X39071429Y-80205771D01*
X39071429Y-80205771D02*
X39119048Y-80015295D01*
X39119048Y-80015295D02*
X39166667Y-79920057D01*
X39166667Y-79920057D02*
X39214286Y-79872438D01*
X39214286Y-79872438D02*
X39309524Y-79824819D01*
X37833333Y-78454819D02*
X37500000Y-77978628D01*
X37261905Y-78454819D02*
X37261905Y-77454819D01*
X37261905Y-77454819D02*
X37642857Y-77454819D01*
X37642857Y-77454819D02*
X37738095Y-77502438D01*
X37738095Y-77502438D02*
X37785714Y-77550057D01*
X37785714Y-77550057D02*
X37833333Y-77645295D01*
X37833333Y-77645295D02*
X37833333Y-77788152D01*
X37833333Y-77788152D02*
X37785714Y-77883390D01*
X37785714Y-77883390D02*
X37738095Y-77931009D01*
X37738095Y-77931009D02*
X37642857Y-77978628D01*
X37642857Y-77978628D02*
X37261905Y-77978628D01*
X38690476Y-77788152D02*
X38690476Y-78454819D01*
X38452381Y-77407200D02*
X38214286Y-78121485D01*
X38214286Y-78121485D02*
X38833333Y-78121485D01*
X69359204Y-83038152D02*
X69359204Y-83704819D01*
X69121109Y-82657200D02*
X68883014Y-83371485D01*
X68883014Y-83371485D02*
X69502061Y-83371485D01*
X69787776Y-82704819D02*
X70454442Y-82704819D01*
X70454442Y-82704819D02*
X70025871Y-83704819D01*
X71263966Y-83038152D02*
X71263966Y-83704819D01*
X70835395Y-83038152D02*
X70835395Y-83561961D01*
X70835395Y-83561961D02*
X70883014Y-83657200D01*
X70883014Y-83657200D02*
X70978252Y-83704819D01*
X70978252Y-83704819D02*
X71121109Y-83704819D01*
X71121109Y-83704819D02*
X71216347Y-83657200D01*
X71216347Y-83657200D02*
X71263966Y-83609580D01*
X69930633Y-78359580D02*
X69883014Y-78407200D01*
X69883014Y-78407200D02*
X69740157Y-78454819D01*
X69740157Y-78454819D02*
X69644919Y-78454819D01*
X69644919Y-78454819D02*
X69502062Y-78407200D01*
X69502062Y-78407200D02*
X69406824Y-78311961D01*
X69406824Y-78311961D02*
X69359205Y-78216723D01*
X69359205Y-78216723D02*
X69311586Y-78026247D01*
X69311586Y-78026247D02*
X69311586Y-77883390D01*
X69311586Y-77883390D02*
X69359205Y-77692914D01*
X69359205Y-77692914D02*
X69406824Y-77597676D01*
X69406824Y-77597676D02*
X69502062Y-77502438D01*
X69502062Y-77502438D02*
X69644919Y-77454819D01*
X69644919Y-77454819D02*
X69740157Y-77454819D01*
X69740157Y-77454819D02*
X69883014Y-77502438D01*
X69883014Y-77502438D02*
X69930633Y-77550057D01*
X70835395Y-77454819D02*
X70359205Y-77454819D01*
X70359205Y-77454819D02*
X70311586Y-77931009D01*
X70311586Y-77931009D02*
X70359205Y-77883390D01*
X70359205Y-77883390D02*
X70454443Y-77835771D01*
X70454443Y-77835771D02*
X70692538Y-77835771D01*
X70692538Y-77835771D02*
X70787776Y-77883390D01*
X70787776Y-77883390D02*
X70835395Y-77931009D01*
X70835395Y-77931009D02*
X70883014Y-78026247D01*
X70883014Y-78026247D02*
X70883014Y-78264342D01*
X70883014Y-78264342D02*
X70835395Y-78359580D01*
X70835395Y-78359580D02*
X70787776Y-78407200D01*
X70787776Y-78407200D02*
X70692538Y-78454819D01*
X70692538Y-78454819D02*
X70454443Y-78454819D01*
X70454443Y-78454819D02*
X70359205Y-78407200D01*
X70359205Y-78407200D02*
X70311586Y-78359580D01*
X36833333Y-49824819D02*
X36261905Y-49824819D01*
X36547619Y-49824819D02*
X36547619Y-48824819D01*
X36547619Y-48824819D02*
X36452381Y-48967676D01*
X36452381Y-48967676D02*
X36357143Y-49062914D01*
X36357143Y-49062914D02*
X36261905Y-49110533D01*
X37833333Y-49824819D02*
X37500000Y-49348628D01*
X37261905Y-49824819D02*
X37261905Y-48824819D01*
X37261905Y-48824819D02*
X37642857Y-48824819D01*
X37642857Y-48824819D02*
X37738095Y-48872438D01*
X37738095Y-48872438D02*
X37785714Y-48920057D01*
X37785714Y-48920057D02*
X37833333Y-49015295D01*
X37833333Y-49015295D02*
X37833333Y-49158152D01*
X37833333Y-49158152D02*
X37785714Y-49253390D01*
X37785714Y-49253390D02*
X37738095Y-49301009D01*
X37738095Y-49301009D02*
X37642857Y-49348628D01*
X37642857Y-49348628D02*
X37261905Y-49348628D01*
X38452381Y-48824819D02*
X38547619Y-48824819D01*
X38547619Y-48824819D02*
X38642857Y-48872438D01*
X38642857Y-48872438D02*
X38690476Y-48920057D01*
X38690476Y-48920057D02*
X38738095Y-49015295D01*
X38738095Y-49015295D02*
X38785714Y-49205771D01*
X38785714Y-49205771D02*
X38785714Y-49443866D01*
X38785714Y-49443866D02*
X38738095Y-49634342D01*
X38738095Y-49634342D02*
X38690476Y-49729580D01*
X38690476Y-49729580D02*
X38642857Y-49777200D01*
X38642857Y-49777200D02*
X38547619Y-49824819D01*
X38547619Y-49824819D02*
X38452381Y-49824819D01*
X38452381Y-49824819D02*
X38357143Y-49777200D01*
X38357143Y-49777200D02*
X38309524Y-49729580D01*
X38309524Y-49729580D02*
X38261905Y-49634342D01*
X38261905Y-49634342D02*
X38214286Y-49443866D01*
X38214286Y-49443866D02*
X38214286Y-49205771D01*
X38214286Y-49205771D02*
X38261905Y-49015295D01*
X38261905Y-49015295D02*
X38309524Y-48920057D01*
X38309524Y-48920057D02*
X38357143Y-48872438D01*
X38357143Y-48872438D02*
X38452381Y-48824819D01*
X39404762Y-48824819D02*
X39500000Y-48824819D01*
X39500000Y-48824819D02*
X39595238Y-48872438D01*
X39595238Y-48872438D02*
X39642857Y-48920057D01*
X39642857Y-48920057D02*
X39690476Y-49015295D01*
X39690476Y-49015295D02*
X39738095Y-49205771D01*
X39738095Y-49205771D02*
X39738095Y-49443866D01*
X39738095Y-49443866D02*
X39690476Y-49634342D01*
X39690476Y-49634342D02*
X39642857Y-49729580D01*
X39642857Y-49729580D02*
X39595238Y-49777200D01*
X39595238Y-49777200D02*
X39500000Y-49824819D01*
X39500000Y-49824819D02*
X39404762Y-49824819D01*
X39404762Y-49824819D02*
X39309524Y-49777200D01*
X39309524Y-49777200D02*
X39261905Y-49729580D01*
X39261905Y-49729580D02*
X39214286Y-49634342D01*
X39214286Y-49634342D02*
X39166667Y-49443866D01*
X39166667Y-49443866D02*
X39166667Y-49205771D01*
X39166667Y-49205771D02*
X39214286Y-49015295D01*
X39214286Y-49015295D02*
X39261905Y-48920057D01*
X39261905Y-48920057D02*
X39309524Y-48872438D01*
X39309524Y-48872438D02*
X39404762Y-48824819D01*
X37833333Y-47454819D02*
X37500000Y-46978628D01*
X37261905Y-47454819D02*
X37261905Y-46454819D01*
X37261905Y-46454819D02*
X37642857Y-46454819D01*
X37642857Y-46454819D02*
X37738095Y-46502438D01*
X37738095Y-46502438D02*
X37785714Y-46550057D01*
X37785714Y-46550057D02*
X37833333Y-46645295D01*
X37833333Y-46645295D02*
X37833333Y-46788152D01*
X37833333Y-46788152D02*
X37785714Y-46883390D01*
X37785714Y-46883390D02*
X37738095Y-46931009D01*
X37738095Y-46931009D02*
X37642857Y-46978628D01*
X37642857Y-46978628D02*
X37261905Y-46978628D01*
X38738095Y-46454819D02*
X38261905Y-46454819D01*
X38261905Y-46454819D02*
X38214286Y-46931009D01*
X38214286Y-46931009D02*
X38261905Y-46883390D01*
X38261905Y-46883390D02*
X38357143Y-46835771D01*
X38357143Y-46835771D02*
X38595238Y-46835771D01*
X38595238Y-46835771D02*
X38690476Y-46883390D01*
X38690476Y-46883390D02*
X38738095Y-46931009D01*
X38738095Y-46931009D02*
X38785714Y-47026247D01*
X38785714Y-47026247D02*
X38785714Y-47264342D01*
X38785714Y-47264342D02*
X38738095Y-47359580D01*
X38738095Y-47359580D02*
X38690476Y-47407200D01*
X38690476Y-47407200D02*
X38595238Y-47454819D01*
X38595238Y-47454819D02*
X38357143Y-47454819D01*
X38357143Y-47454819D02*
X38261905Y-47407200D01*
X38261905Y-47407200D02*
X38214286Y-47359580D01*
X106676961Y-43038152D02*
X106676961Y-43704819D01*
X106438866Y-42657200D02*
X106200771Y-43371485D01*
X106200771Y-43371485D02*
X106819818Y-43371485D01*
X107105533Y-42704819D02*
X107772199Y-42704819D01*
X107772199Y-42704819D02*
X107343628Y-43704819D01*
X108343628Y-42704819D02*
X108438866Y-42704819D01*
X108438866Y-42704819D02*
X108534104Y-42752438D01*
X108534104Y-42752438D02*
X108581723Y-42800057D01*
X108581723Y-42800057D02*
X108629342Y-42895295D01*
X108629342Y-42895295D02*
X108676961Y-43085771D01*
X108676961Y-43085771D02*
X108676961Y-43323866D01*
X108676961Y-43323866D02*
X108629342Y-43514342D01*
X108629342Y-43514342D02*
X108581723Y-43609580D01*
X108581723Y-43609580D02*
X108534104Y-43657200D01*
X108534104Y-43657200D02*
X108438866Y-43704819D01*
X108438866Y-43704819D02*
X108343628Y-43704819D01*
X108343628Y-43704819D02*
X108248390Y-43657200D01*
X108248390Y-43657200D02*
X108200771Y-43609580D01*
X108200771Y-43609580D02*
X108153152Y-43514342D01*
X108153152Y-43514342D02*
X108105533Y-43323866D01*
X108105533Y-43323866D02*
X108105533Y-43085771D01*
X108105533Y-43085771D02*
X108153152Y-42895295D01*
X108153152Y-42895295D02*
X108200771Y-42800057D01*
X108200771Y-42800057D02*
X108248390Y-42752438D01*
X108248390Y-42752438D02*
X108343628Y-42704819D01*
X109296009Y-42704819D02*
X109391247Y-42704819D01*
X109391247Y-42704819D02*
X109486485Y-42752438D01*
X109486485Y-42752438D02*
X109534104Y-42800057D01*
X109534104Y-42800057D02*
X109581723Y-42895295D01*
X109581723Y-42895295D02*
X109629342Y-43085771D01*
X109629342Y-43085771D02*
X109629342Y-43323866D01*
X109629342Y-43323866D02*
X109581723Y-43514342D01*
X109581723Y-43514342D02*
X109534104Y-43609580D01*
X109534104Y-43609580D02*
X109486485Y-43657200D01*
X109486485Y-43657200D02*
X109391247Y-43704819D01*
X109391247Y-43704819D02*
X109296009Y-43704819D01*
X109296009Y-43704819D02*
X109200771Y-43657200D01*
X109200771Y-43657200D02*
X109153152Y-43609580D01*
X109153152Y-43609580D02*
X109105533Y-43514342D01*
X109105533Y-43514342D02*
X109057914Y-43323866D01*
X109057914Y-43323866D02*
X109057914Y-43085771D01*
X109057914Y-43085771D02*
X109105533Y-42895295D01*
X109105533Y-42895295D02*
X109153152Y-42800057D01*
X109153152Y-42800057D02*
X109200771Y-42752438D01*
X109200771Y-42752438D02*
X109296009Y-42704819D01*
X110486485Y-43038152D02*
X110486485Y-43704819D01*
X110057914Y-43038152D02*
X110057914Y-43561961D01*
X110057914Y-43561961D02*
X110105533Y-43657200D01*
X110105533Y-43657200D02*
X110200771Y-43704819D01*
X110200771Y-43704819D02*
X110343628Y-43704819D01*
X110343628Y-43704819D02*
X110438866Y-43657200D01*
X110438866Y-43657200D02*
X110486485Y-43609580D01*
X111676961Y-42657200D02*
X110819819Y-43942914D01*
X112486485Y-42704819D02*
X112010295Y-42704819D01*
X112010295Y-42704819D02*
X111962676Y-43181009D01*
X111962676Y-43181009D02*
X112010295Y-43133390D01*
X112010295Y-43133390D02*
X112105533Y-43085771D01*
X112105533Y-43085771D02*
X112343628Y-43085771D01*
X112343628Y-43085771D02*
X112438866Y-43133390D01*
X112438866Y-43133390D02*
X112486485Y-43181009D01*
X112486485Y-43181009D02*
X112534104Y-43276247D01*
X112534104Y-43276247D02*
X112534104Y-43514342D01*
X112534104Y-43514342D02*
X112486485Y-43609580D01*
X112486485Y-43609580D02*
X112438866Y-43657200D01*
X112438866Y-43657200D02*
X112343628Y-43704819D01*
X112343628Y-43704819D02*
X112105533Y-43704819D01*
X112105533Y-43704819D02*
X112010295Y-43657200D01*
X112010295Y-43657200D02*
X111962676Y-43609580D01*
X113153152Y-42704819D02*
X113248390Y-42704819D01*
X113248390Y-42704819D02*
X113343628Y-42752438D01*
X113343628Y-42752438D02*
X113391247Y-42800057D01*
X113391247Y-42800057D02*
X113438866Y-42895295D01*
X113438866Y-42895295D02*
X113486485Y-43085771D01*
X113486485Y-43085771D02*
X113486485Y-43323866D01*
X113486485Y-43323866D02*
X113438866Y-43514342D01*
X113438866Y-43514342D02*
X113391247Y-43609580D01*
X113391247Y-43609580D02*
X113343628Y-43657200D01*
X113343628Y-43657200D02*
X113248390Y-43704819D01*
X113248390Y-43704819D02*
X113153152Y-43704819D01*
X113153152Y-43704819D02*
X113057914Y-43657200D01*
X113057914Y-43657200D02*
X113010295Y-43609580D01*
X113010295Y-43609580D02*
X112962676Y-43514342D01*
X112962676Y-43514342D02*
X112915057Y-43323866D01*
X112915057Y-43323866D02*
X112915057Y-43085771D01*
X112915057Y-43085771D02*
X112962676Y-42895295D01*
X112962676Y-42895295D02*
X113010295Y-42800057D01*
X113010295Y-42800057D02*
X113057914Y-42752438D01*
X113057914Y-42752438D02*
X113153152Y-42704819D01*
X113772200Y-42704819D02*
X114105533Y-43704819D01*
X114105533Y-43704819D02*
X114438866Y-42704819D01*
X110105533Y-33359580D02*
X110057914Y-33407200D01*
X110057914Y-33407200D02*
X109915057Y-33454819D01*
X109915057Y-33454819D02*
X109819819Y-33454819D01*
X109819819Y-33454819D02*
X109676962Y-33407200D01*
X109676962Y-33407200D02*
X109581724Y-33311961D01*
X109581724Y-33311961D02*
X109534105Y-33216723D01*
X109534105Y-33216723D02*
X109486486Y-33026247D01*
X109486486Y-33026247D02*
X109486486Y-32883390D01*
X109486486Y-32883390D02*
X109534105Y-32692914D01*
X109534105Y-32692914D02*
X109581724Y-32597676D01*
X109581724Y-32597676D02*
X109676962Y-32502438D01*
X109676962Y-32502438D02*
X109819819Y-32454819D01*
X109819819Y-32454819D02*
X109915057Y-32454819D01*
X109915057Y-32454819D02*
X110057914Y-32502438D01*
X110057914Y-32502438D02*
X110105533Y-32550057D01*
X110438867Y-32454819D02*
X111057914Y-32454819D01*
X111057914Y-32454819D02*
X110724581Y-32835771D01*
X110724581Y-32835771D02*
X110867438Y-32835771D01*
X110867438Y-32835771D02*
X110962676Y-32883390D01*
X110962676Y-32883390D02*
X111010295Y-32931009D01*
X111010295Y-32931009D02*
X111057914Y-33026247D01*
X111057914Y-33026247D02*
X111057914Y-33264342D01*
X111057914Y-33264342D02*
X111010295Y-33359580D01*
X111010295Y-33359580D02*
X110962676Y-33407200D01*
X110962676Y-33407200D02*
X110867438Y-33454819D01*
X110867438Y-33454819D02*
X110581724Y-33454819D01*
X110581724Y-33454819D02*
X110486486Y-33407200D01*
X110486486Y-33407200D02*
X110438867Y-33359580D01*
X88880952Y-50954819D02*
X88309524Y-50954819D01*
X88595238Y-50954819D02*
X88595238Y-49954819D01*
X88595238Y-49954819D02*
X88500000Y-50097676D01*
X88500000Y-50097676D02*
X88404762Y-50192914D01*
X88404762Y-50192914D02*
X88309524Y-50240533D01*
X89500000Y-49954819D02*
X89595238Y-49954819D01*
X89595238Y-49954819D02*
X89690476Y-50002438D01*
X89690476Y-50002438D02*
X89738095Y-50050057D01*
X89738095Y-50050057D02*
X89785714Y-50145295D01*
X89785714Y-50145295D02*
X89833333Y-50335771D01*
X89833333Y-50335771D02*
X89833333Y-50573866D01*
X89833333Y-50573866D02*
X89785714Y-50764342D01*
X89785714Y-50764342D02*
X89738095Y-50859580D01*
X89738095Y-50859580D02*
X89690476Y-50907200D01*
X89690476Y-50907200D02*
X89595238Y-50954819D01*
X89595238Y-50954819D02*
X89500000Y-50954819D01*
X89500000Y-50954819D02*
X89404762Y-50907200D01*
X89404762Y-50907200D02*
X89357143Y-50859580D01*
X89357143Y-50859580D02*
X89309524Y-50764342D01*
X89309524Y-50764342D02*
X89261905Y-50573866D01*
X89261905Y-50573866D02*
X89261905Y-50335771D01*
X89261905Y-50335771D02*
X89309524Y-50145295D01*
X89309524Y-50145295D02*
X89357143Y-50050057D01*
X89357143Y-50050057D02*
X89404762Y-50002438D01*
X89404762Y-50002438D02*
X89500000Y-49954819D01*
X90452381Y-49954819D02*
X90547619Y-49954819D01*
X90547619Y-49954819D02*
X90642857Y-50002438D01*
X90642857Y-50002438D02*
X90690476Y-50050057D01*
X90690476Y-50050057D02*
X90738095Y-50145295D01*
X90738095Y-50145295D02*
X90785714Y-50335771D01*
X90785714Y-50335771D02*
X90785714Y-50573866D01*
X90785714Y-50573866D02*
X90738095Y-50764342D01*
X90738095Y-50764342D02*
X90690476Y-50859580D01*
X90690476Y-50859580D02*
X90642857Y-50907200D01*
X90642857Y-50907200D02*
X90547619Y-50954819D01*
X90547619Y-50954819D02*
X90452381Y-50954819D01*
X90452381Y-50954819D02*
X90357143Y-50907200D01*
X90357143Y-50907200D02*
X90309524Y-50859580D01*
X90309524Y-50859580D02*
X90261905Y-50764342D01*
X90261905Y-50764342D02*
X90214286Y-50573866D01*
X90214286Y-50573866D02*
X90214286Y-50335771D01*
X90214286Y-50335771D02*
X90261905Y-50145295D01*
X90261905Y-50145295D02*
X90309524Y-50050057D01*
X90309524Y-50050057D02*
X90357143Y-50002438D01*
X90357143Y-50002438D02*
X90452381Y-49954819D01*
X91214286Y-50288152D02*
X91214286Y-50954819D01*
X91214286Y-50383390D02*
X91261905Y-50335771D01*
X91261905Y-50335771D02*
X91357143Y-50288152D01*
X91357143Y-50288152D02*
X91500000Y-50288152D01*
X91500000Y-50288152D02*
X91595238Y-50335771D01*
X91595238Y-50335771D02*
X91642857Y-50431009D01*
X91642857Y-50431009D02*
X91642857Y-50954819D01*
X89833333Y-48359580D02*
X89785714Y-48407200D01*
X89785714Y-48407200D02*
X89642857Y-48454819D01*
X89642857Y-48454819D02*
X89547619Y-48454819D01*
X89547619Y-48454819D02*
X89404762Y-48407200D01*
X89404762Y-48407200D02*
X89309524Y-48311961D01*
X89309524Y-48311961D02*
X89261905Y-48216723D01*
X89261905Y-48216723D02*
X89214286Y-48026247D01*
X89214286Y-48026247D02*
X89214286Y-47883390D01*
X89214286Y-47883390D02*
X89261905Y-47692914D01*
X89261905Y-47692914D02*
X89309524Y-47597676D01*
X89309524Y-47597676D02*
X89404762Y-47502438D01*
X89404762Y-47502438D02*
X89547619Y-47454819D01*
X89547619Y-47454819D02*
X89642857Y-47454819D01*
X89642857Y-47454819D02*
X89785714Y-47502438D01*
X89785714Y-47502438D02*
X89833333Y-47550057D01*
X90690476Y-47788152D02*
X90690476Y-48454819D01*
X90452381Y-47407200D02*
X90214286Y-48121485D01*
X90214286Y-48121485D02*
X90833333Y-48121485D01*
X76309523Y-58594819D02*
X75833333Y-58594819D01*
X75833333Y-58594819D02*
X75833333Y-57594819D01*
X76642857Y-58594819D02*
X76642857Y-57594819D01*
X76642857Y-57594819D02*
X76976190Y-58309104D01*
X76976190Y-58309104D02*
X77309523Y-57594819D01*
X77309523Y-57594819D02*
X77309523Y-58594819D01*
X77690476Y-57594819D02*
X78309523Y-57594819D01*
X78309523Y-57594819D02*
X77976190Y-57975771D01*
X77976190Y-57975771D02*
X78119047Y-57975771D01*
X78119047Y-57975771D02*
X78214285Y-58023390D01*
X78214285Y-58023390D02*
X78261904Y-58071009D01*
X78261904Y-58071009D02*
X78309523Y-58166247D01*
X78309523Y-58166247D02*
X78309523Y-58404342D01*
X78309523Y-58404342D02*
X78261904Y-58499580D01*
X78261904Y-58499580D02*
X78214285Y-58547200D01*
X78214285Y-58547200D02*
X78119047Y-58594819D01*
X78119047Y-58594819D02*
X77833333Y-58594819D01*
X77833333Y-58594819D02*
X77738095Y-58547200D01*
X77738095Y-58547200D02*
X77690476Y-58499580D01*
X79214285Y-57594819D02*
X78738095Y-57594819D01*
X78738095Y-57594819D02*
X78690476Y-58071009D01*
X78690476Y-58071009D02*
X78738095Y-58023390D01*
X78738095Y-58023390D02*
X78833333Y-57975771D01*
X78833333Y-57975771D02*
X79071428Y-57975771D01*
X79071428Y-57975771D02*
X79166666Y-58023390D01*
X79166666Y-58023390D02*
X79214285Y-58071009D01*
X79214285Y-58071009D02*
X79261904Y-58166247D01*
X79261904Y-58166247D02*
X79261904Y-58404342D01*
X79261904Y-58404342D02*
X79214285Y-58499580D01*
X79214285Y-58499580D02*
X79166666Y-58547200D01*
X79166666Y-58547200D02*
X79071428Y-58594819D01*
X79071428Y-58594819D02*
X78833333Y-58594819D01*
X78833333Y-58594819D02*
X78738095Y-58547200D01*
X78738095Y-58547200D02*
X78690476Y-58499580D01*
X79833333Y-58023390D02*
X79738095Y-57975771D01*
X79738095Y-57975771D02*
X79690476Y-57928152D01*
X79690476Y-57928152D02*
X79642857Y-57832914D01*
X79642857Y-57832914D02*
X79642857Y-57785295D01*
X79642857Y-57785295D02*
X79690476Y-57690057D01*
X79690476Y-57690057D02*
X79738095Y-57642438D01*
X79738095Y-57642438D02*
X79833333Y-57594819D01*
X79833333Y-57594819D02*
X80023809Y-57594819D01*
X80023809Y-57594819D02*
X80119047Y-57642438D01*
X80119047Y-57642438D02*
X80166666Y-57690057D01*
X80166666Y-57690057D02*
X80214285Y-57785295D01*
X80214285Y-57785295D02*
X80214285Y-57832914D01*
X80214285Y-57832914D02*
X80166666Y-57928152D01*
X80166666Y-57928152D02*
X80119047Y-57975771D01*
X80119047Y-57975771D02*
X80023809Y-58023390D01*
X80023809Y-58023390D02*
X79833333Y-58023390D01*
X79833333Y-58023390D02*
X79738095Y-58071009D01*
X79738095Y-58071009D02*
X79690476Y-58118628D01*
X79690476Y-58118628D02*
X79642857Y-58213866D01*
X79642857Y-58213866D02*
X79642857Y-58404342D01*
X79642857Y-58404342D02*
X79690476Y-58499580D01*
X79690476Y-58499580D02*
X79738095Y-58547200D01*
X79738095Y-58547200D02*
X79833333Y-58594819D01*
X79833333Y-58594819D02*
X80023809Y-58594819D01*
X80023809Y-58594819D02*
X80119047Y-58547200D01*
X80119047Y-58547200D02*
X80166666Y-58499580D01*
X80166666Y-58499580D02*
X80214285Y-58404342D01*
X80214285Y-58404342D02*
X80214285Y-58213866D01*
X80214285Y-58213866D02*
X80166666Y-58118628D01*
X80166666Y-58118628D02*
X80119047Y-58071009D01*
X80119047Y-58071009D02*
X80023809Y-58023390D01*
X77454819Y-52761904D02*
X78264342Y-52761904D01*
X78264342Y-52761904D02*
X78359580Y-52714285D01*
X78359580Y-52714285D02*
X78407200Y-52666666D01*
X78407200Y-52666666D02*
X78454819Y-52571428D01*
X78454819Y-52571428D02*
X78454819Y-52380952D01*
X78454819Y-52380952D02*
X78407200Y-52285714D01*
X78407200Y-52285714D02*
X78359580Y-52238095D01*
X78359580Y-52238095D02*
X78264342Y-52190476D01*
X78264342Y-52190476D02*
X77454819Y-52190476D01*
X78454819Y-51190476D02*
X78454819Y-51761904D01*
X78454819Y-51476190D02*
X77454819Y-51476190D01*
X77454819Y-51476190D02*
X77597676Y-51571428D01*
X77597676Y-51571428D02*
X77692914Y-51666666D01*
X77692914Y-51666666D02*
X77740533Y-51761904D01*
X70285714Y-68051009D02*
X70428571Y-68098628D01*
X70428571Y-68098628D02*
X70476190Y-68146247D01*
X70476190Y-68146247D02*
X70523809Y-68241485D01*
X70523809Y-68241485D02*
X70523809Y-68384342D01*
X70523809Y-68384342D02*
X70476190Y-68479580D01*
X70476190Y-68479580D02*
X70428571Y-68527200D01*
X70428571Y-68527200D02*
X70333333Y-68574819D01*
X70333333Y-68574819D02*
X69952381Y-68574819D01*
X69952381Y-68574819D02*
X69952381Y-67574819D01*
X69952381Y-67574819D02*
X70285714Y-67574819D01*
X70285714Y-67574819D02*
X70380952Y-67622438D01*
X70380952Y-67622438D02*
X70428571Y-67670057D01*
X70428571Y-67670057D02*
X70476190Y-67765295D01*
X70476190Y-67765295D02*
X70476190Y-67860533D01*
X70476190Y-67860533D02*
X70428571Y-67955771D01*
X70428571Y-67955771D02*
X70380952Y-68003390D01*
X70380952Y-68003390D02*
X70285714Y-68051009D01*
X70285714Y-68051009D02*
X69952381Y-68051009D01*
X70857143Y-67574819D02*
X71523809Y-67574819D01*
X71523809Y-67574819D02*
X70857143Y-68574819D01*
X70857143Y-68574819D02*
X71523809Y-68574819D01*
X71809524Y-67574819D02*
X72476190Y-68574819D01*
X72476190Y-67574819D02*
X71809524Y-68574819D01*
X73333333Y-67574819D02*
X72857143Y-67574819D01*
X72857143Y-67574819D02*
X72809524Y-68051009D01*
X72809524Y-68051009D02*
X72857143Y-68003390D01*
X72857143Y-68003390D02*
X72952381Y-67955771D01*
X72952381Y-67955771D02*
X73190476Y-67955771D01*
X73190476Y-67955771D02*
X73285714Y-68003390D01*
X73285714Y-68003390D02*
X73333333Y-68051009D01*
X73333333Y-68051009D02*
X73380952Y-68146247D01*
X73380952Y-68146247D02*
X73380952Y-68384342D01*
X73380952Y-68384342D02*
X73333333Y-68479580D01*
X73333333Y-68479580D02*
X73285714Y-68527200D01*
X73285714Y-68527200D02*
X73190476Y-68574819D01*
X73190476Y-68574819D02*
X72952381Y-68574819D01*
X72952381Y-68574819D02*
X72857143Y-68527200D01*
X72857143Y-68527200D02*
X72809524Y-68479580D01*
X74285714Y-67574819D02*
X73809524Y-67574819D01*
X73809524Y-67574819D02*
X73761905Y-68051009D01*
X73761905Y-68051009D02*
X73809524Y-68003390D01*
X73809524Y-68003390D02*
X73904762Y-67955771D01*
X73904762Y-67955771D02*
X74142857Y-67955771D01*
X74142857Y-67955771D02*
X74238095Y-68003390D01*
X74238095Y-68003390D02*
X74285714Y-68051009D01*
X74285714Y-68051009D02*
X74333333Y-68146247D01*
X74333333Y-68146247D02*
X74333333Y-68384342D01*
X74333333Y-68384342D02*
X74285714Y-68479580D01*
X74285714Y-68479580D02*
X74238095Y-68527200D01*
X74238095Y-68527200D02*
X74142857Y-68574819D01*
X74142857Y-68574819D02*
X73904762Y-68574819D01*
X73904762Y-68574819D02*
X73809524Y-68527200D01*
X73809524Y-68527200D02*
X73761905Y-68479580D01*
X75333333Y-68479580D02*
X75285714Y-68527200D01*
X75285714Y-68527200D02*
X75142857Y-68574819D01*
X75142857Y-68574819D02*
X75047619Y-68574819D01*
X75047619Y-68574819D02*
X74904762Y-68527200D01*
X74904762Y-68527200D02*
X74809524Y-68431961D01*
X74809524Y-68431961D02*
X74761905Y-68336723D01*
X74761905Y-68336723D02*
X74714286Y-68146247D01*
X74714286Y-68146247D02*
X74714286Y-68003390D01*
X74714286Y-68003390D02*
X74761905Y-67812914D01*
X74761905Y-67812914D02*
X74809524Y-67717676D01*
X74809524Y-67717676D02*
X74904762Y-67622438D01*
X74904762Y-67622438D02*
X75047619Y-67574819D01*
X75047619Y-67574819D02*
X75142857Y-67574819D01*
X75142857Y-67574819D02*
X75285714Y-67622438D01*
X75285714Y-67622438D02*
X75333333Y-67670057D01*
X76238095Y-67574819D02*
X75761905Y-67574819D01*
X75761905Y-67574819D02*
X75714286Y-68051009D01*
X75714286Y-68051009D02*
X75761905Y-68003390D01*
X75761905Y-68003390D02*
X75857143Y-67955771D01*
X75857143Y-67955771D02*
X76095238Y-67955771D01*
X76095238Y-67955771D02*
X76190476Y-68003390D01*
X76190476Y-68003390D02*
X76238095Y-68051009D01*
X76238095Y-68051009D02*
X76285714Y-68146247D01*
X76285714Y-68146247D02*
X76285714Y-68384342D01*
X76285714Y-68384342D02*
X76238095Y-68479580D01*
X76238095Y-68479580D02*
X76190476Y-68527200D01*
X76190476Y-68527200D02*
X76095238Y-68574819D01*
X76095238Y-68574819D02*
X75857143Y-68574819D01*
X75857143Y-68574819D02*
X75761905Y-68527200D01*
X75761905Y-68527200D02*
X75714286Y-68479580D01*
X76571429Y-67574819D02*
X76904762Y-68574819D01*
X76904762Y-68574819D02*
X77238095Y-67574819D01*
X78095238Y-68574819D02*
X77523810Y-68574819D01*
X77809524Y-68574819D02*
X77809524Y-67574819D01*
X77809524Y-67574819D02*
X77714286Y-67717676D01*
X77714286Y-67717676D02*
X77619048Y-67812914D01*
X77619048Y-67812914D02*
X77523810Y-67860533D01*
D11*
X73328571Y-66363855D02*
X73328571Y-65563855D01*
X73328571Y-65563855D02*
X73519047Y-65563855D01*
X73519047Y-65563855D02*
X73633333Y-65601950D01*
X73633333Y-65601950D02*
X73709523Y-65678140D01*
X73709523Y-65678140D02*
X73747618Y-65754331D01*
X73747618Y-65754331D02*
X73785714Y-65906712D01*
X73785714Y-65906712D02*
X73785714Y-66020998D01*
X73785714Y-66020998D02*
X73747618Y-66173379D01*
X73747618Y-66173379D02*
X73709523Y-66249569D01*
X73709523Y-66249569D02*
X73633333Y-66325760D01*
X73633333Y-66325760D02*
X73519047Y-66363855D01*
X73519047Y-66363855D02*
X73328571Y-66363855D01*
X74052380Y-65563855D02*
X74585714Y-65563855D01*
X74585714Y-65563855D02*
X74052380Y-66363855D01*
X74052380Y-66363855D02*
X74585714Y-66363855D01*
X75309523Y-66363855D02*
X74852380Y-66363855D01*
X75080952Y-66363855D02*
X75080952Y-65563855D01*
X75080952Y-65563855D02*
X75004761Y-65678140D01*
X75004761Y-65678140D02*
X74928571Y-65754331D01*
X74928571Y-65754331D02*
X74852380Y-65792426D01*
D10*
X69928095Y-64654819D02*
X69928095Y-63654819D01*
X70499523Y-64654819D02*
X70070952Y-64083390D01*
X70499523Y-63654819D02*
X69928095Y-64226247D01*
X48357143Y-67920057D02*
X48404762Y-67872438D01*
X48404762Y-67872438D02*
X48500000Y-67824819D01*
X48500000Y-67824819D02*
X48738095Y-67824819D01*
X48738095Y-67824819D02*
X48833333Y-67872438D01*
X48833333Y-67872438D02*
X48880952Y-67920057D01*
X48880952Y-67920057D02*
X48928571Y-68015295D01*
X48928571Y-68015295D02*
X48928571Y-68110533D01*
X48928571Y-68110533D02*
X48880952Y-68253390D01*
X48880952Y-68253390D02*
X48309524Y-68824819D01*
X48309524Y-68824819D02*
X48928571Y-68824819D01*
X49309524Y-67920057D02*
X49357143Y-67872438D01*
X49357143Y-67872438D02*
X49452381Y-67824819D01*
X49452381Y-67824819D02*
X49690476Y-67824819D01*
X49690476Y-67824819D02*
X49785714Y-67872438D01*
X49785714Y-67872438D02*
X49833333Y-67920057D01*
X49833333Y-67920057D02*
X49880952Y-68015295D01*
X49880952Y-68015295D02*
X49880952Y-68110533D01*
X49880952Y-68110533D02*
X49833333Y-68253390D01*
X49833333Y-68253390D02*
X49261905Y-68824819D01*
X49261905Y-68824819D02*
X49880952Y-68824819D01*
X50309524Y-68824819D02*
X50309524Y-67824819D01*
X50404762Y-68443866D02*
X50690476Y-68824819D01*
X50690476Y-68158152D02*
X50309524Y-68539104D01*
X51547619Y-67824819D02*
X51357143Y-67824819D01*
X51357143Y-67824819D02*
X51261905Y-67872438D01*
X51261905Y-67872438D02*
X51214286Y-67920057D01*
X51214286Y-67920057D02*
X51119048Y-68062914D01*
X51119048Y-68062914D02*
X51071429Y-68253390D01*
X51071429Y-68253390D02*
X51071429Y-68634342D01*
X51071429Y-68634342D02*
X51119048Y-68729580D01*
X51119048Y-68729580D02*
X51166667Y-68777200D01*
X51166667Y-68777200D02*
X51261905Y-68824819D01*
X51261905Y-68824819D02*
X51452381Y-68824819D01*
X51452381Y-68824819D02*
X51547619Y-68777200D01*
X51547619Y-68777200D02*
X51595238Y-68729580D01*
X51595238Y-68729580D02*
X51642857Y-68634342D01*
X51642857Y-68634342D02*
X51642857Y-68396247D01*
X51642857Y-68396247D02*
X51595238Y-68301009D01*
X51595238Y-68301009D02*
X51547619Y-68253390D01*
X51547619Y-68253390D02*
X51452381Y-68205771D01*
X51452381Y-68205771D02*
X51261905Y-68205771D01*
X51261905Y-68205771D02*
X51166667Y-68253390D01*
X51166667Y-68253390D02*
X51119048Y-68301009D01*
X51119048Y-68301009D02*
X51071429Y-68396247D01*
X49833333Y-66454819D02*
X49500000Y-65978628D01*
X49261905Y-66454819D02*
X49261905Y-65454819D01*
X49261905Y-65454819D02*
X49642857Y-65454819D01*
X49642857Y-65454819D02*
X49738095Y-65502438D01*
X49738095Y-65502438D02*
X49785714Y-65550057D01*
X49785714Y-65550057D02*
X49833333Y-65645295D01*
X49833333Y-65645295D02*
X49833333Y-65788152D01*
X49833333Y-65788152D02*
X49785714Y-65883390D01*
X49785714Y-65883390D02*
X49738095Y-65931009D01*
X49738095Y-65931009D02*
X49642857Y-65978628D01*
X49642857Y-65978628D02*
X49261905Y-65978628D01*
X50214286Y-65550057D02*
X50261905Y-65502438D01*
X50261905Y-65502438D02*
X50357143Y-65454819D01*
X50357143Y-65454819D02*
X50595238Y-65454819D01*
X50595238Y-65454819D02*
X50690476Y-65502438D01*
X50690476Y-65502438D02*
X50738095Y-65550057D01*
X50738095Y-65550057D02*
X50785714Y-65645295D01*
X50785714Y-65645295D02*
X50785714Y-65740533D01*
X50785714Y-65740533D02*
X50738095Y-65883390D01*
X50738095Y-65883390D02*
X50166667Y-66454819D01*
X50166667Y-66454819D02*
X50785714Y-66454819D01*
X36928571Y-68824819D02*
X36357143Y-68824819D01*
X36642857Y-68824819D02*
X36642857Y-67824819D01*
X36642857Y-67824819D02*
X36547619Y-67967676D01*
X36547619Y-67967676D02*
X36452381Y-68062914D01*
X36452381Y-68062914D02*
X36357143Y-68110533D01*
X37547619Y-67824819D02*
X37642857Y-67824819D01*
X37642857Y-67824819D02*
X37738095Y-67872438D01*
X37738095Y-67872438D02*
X37785714Y-67920057D01*
X37785714Y-67920057D02*
X37833333Y-68015295D01*
X37833333Y-68015295D02*
X37880952Y-68205771D01*
X37880952Y-68205771D02*
X37880952Y-68443866D01*
X37880952Y-68443866D02*
X37833333Y-68634342D01*
X37833333Y-68634342D02*
X37785714Y-68729580D01*
X37785714Y-68729580D02*
X37738095Y-68777200D01*
X37738095Y-68777200D02*
X37642857Y-68824819D01*
X37642857Y-68824819D02*
X37547619Y-68824819D01*
X37547619Y-68824819D02*
X37452381Y-68777200D01*
X37452381Y-68777200D02*
X37404762Y-68729580D01*
X37404762Y-68729580D02*
X37357143Y-68634342D01*
X37357143Y-68634342D02*
X37309524Y-68443866D01*
X37309524Y-68443866D02*
X37309524Y-68205771D01*
X37309524Y-68205771D02*
X37357143Y-68015295D01*
X37357143Y-68015295D02*
X37404762Y-67920057D01*
X37404762Y-67920057D02*
X37452381Y-67872438D01*
X37452381Y-67872438D02*
X37547619Y-67824819D01*
X38500000Y-67824819D02*
X38595238Y-67824819D01*
X38595238Y-67824819D02*
X38690476Y-67872438D01*
X38690476Y-67872438D02*
X38738095Y-67920057D01*
X38738095Y-67920057D02*
X38785714Y-68015295D01*
X38785714Y-68015295D02*
X38833333Y-68205771D01*
X38833333Y-68205771D02*
X38833333Y-68443866D01*
X38833333Y-68443866D02*
X38785714Y-68634342D01*
X38785714Y-68634342D02*
X38738095Y-68729580D01*
X38738095Y-68729580D02*
X38690476Y-68777200D01*
X38690476Y-68777200D02*
X38595238Y-68824819D01*
X38595238Y-68824819D02*
X38500000Y-68824819D01*
X38500000Y-68824819D02*
X38404762Y-68777200D01*
X38404762Y-68777200D02*
X38357143Y-68729580D01*
X38357143Y-68729580D02*
X38309524Y-68634342D01*
X38309524Y-68634342D02*
X38261905Y-68443866D01*
X38261905Y-68443866D02*
X38261905Y-68205771D01*
X38261905Y-68205771D02*
X38309524Y-68015295D01*
X38309524Y-68015295D02*
X38357143Y-67920057D01*
X38357143Y-67920057D02*
X38404762Y-67872438D01*
X38404762Y-67872438D02*
X38500000Y-67824819D01*
X39261905Y-68824819D02*
X39261905Y-67824819D01*
X39357143Y-68443866D02*
X39642857Y-68824819D01*
X39642857Y-68158152D02*
X39261905Y-68539104D01*
X37833333Y-66454819D02*
X37500000Y-65978628D01*
X37261905Y-66454819D02*
X37261905Y-65454819D01*
X37261905Y-65454819D02*
X37642857Y-65454819D01*
X37642857Y-65454819D02*
X37738095Y-65502438D01*
X37738095Y-65502438D02*
X37785714Y-65550057D01*
X37785714Y-65550057D02*
X37833333Y-65645295D01*
X37833333Y-65645295D02*
X37833333Y-65788152D01*
X37833333Y-65788152D02*
X37785714Y-65883390D01*
X37785714Y-65883390D02*
X37738095Y-65931009D01*
X37738095Y-65931009D02*
X37642857Y-65978628D01*
X37642857Y-65978628D02*
X37261905Y-65978628D01*
X38785714Y-66454819D02*
X38214286Y-66454819D01*
X38500000Y-66454819D02*
X38500000Y-65454819D01*
X38500000Y-65454819D02*
X38404762Y-65597676D01*
X38404762Y-65597676D02*
X38309524Y-65692914D01*
X38309524Y-65692914D02*
X38214286Y-65740533D01*
X84880952Y-68954819D02*
X84309524Y-68954819D01*
X84595238Y-68954819D02*
X84595238Y-67954819D01*
X84595238Y-67954819D02*
X84500000Y-68097676D01*
X84500000Y-68097676D02*
X84404762Y-68192914D01*
X84404762Y-68192914D02*
X84309524Y-68240533D01*
X85500000Y-67954819D02*
X85595238Y-67954819D01*
X85595238Y-67954819D02*
X85690476Y-68002438D01*
X85690476Y-68002438D02*
X85738095Y-68050057D01*
X85738095Y-68050057D02*
X85785714Y-68145295D01*
X85785714Y-68145295D02*
X85833333Y-68335771D01*
X85833333Y-68335771D02*
X85833333Y-68573866D01*
X85833333Y-68573866D02*
X85785714Y-68764342D01*
X85785714Y-68764342D02*
X85738095Y-68859580D01*
X85738095Y-68859580D02*
X85690476Y-68907200D01*
X85690476Y-68907200D02*
X85595238Y-68954819D01*
X85595238Y-68954819D02*
X85500000Y-68954819D01*
X85500000Y-68954819D02*
X85404762Y-68907200D01*
X85404762Y-68907200D02*
X85357143Y-68859580D01*
X85357143Y-68859580D02*
X85309524Y-68764342D01*
X85309524Y-68764342D02*
X85261905Y-68573866D01*
X85261905Y-68573866D02*
X85261905Y-68335771D01*
X85261905Y-68335771D02*
X85309524Y-68145295D01*
X85309524Y-68145295D02*
X85357143Y-68050057D01*
X85357143Y-68050057D02*
X85404762Y-68002438D01*
X85404762Y-68002438D02*
X85500000Y-67954819D01*
X86452381Y-67954819D02*
X86547619Y-67954819D01*
X86547619Y-67954819D02*
X86642857Y-68002438D01*
X86642857Y-68002438D02*
X86690476Y-68050057D01*
X86690476Y-68050057D02*
X86738095Y-68145295D01*
X86738095Y-68145295D02*
X86785714Y-68335771D01*
X86785714Y-68335771D02*
X86785714Y-68573866D01*
X86785714Y-68573866D02*
X86738095Y-68764342D01*
X86738095Y-68764342D02*
X86690476Y-68859580D01*
X86690476Y-68859580D02*
X86642857Y-68907200D01*
X86642857Y-68907200D02*
X86547619Y-68954819D01*
X86547619Y-68954819D02*
X86452381Y-68954819D01*
X86452381Y-68954819D02*
X86357143Y-68907200D01*
X86357143Y-68907200D02*
X86309524Y-68859580D01*
X86309524Y-68859580D02*
X86261905Y-68764342D01*
X86261905Y-68764342D02*
X86214286Y-68573866D01*
X86214286Y-68573866D02*
X86214286Y-68335771D01*
X86214286Y-68335771D02*
X86261905Y-68145295D01*
X86261905Y-68145295D02*
X86309524Y-68050057D01*
X86309524Y-68050057D02*
X86357143Y-68002438D01*
X86357143Y-68002438D02*
X86452381Y-67954819D01*
X87214286Y-68288152D02*
X87214286Y-68954819D01*
X87214286Y-68383390D02*
X87261905Y-68335771D01*
X87261905Y-68335771D02*
X87357143Y-68288152D01*
X87357143Y-68288152D02*
X87500000Y-68288152D01*
X87500000Y-68288152D02*
X87595238Y-68335771D01*
X87595238Y-68335771D02*
X87642857Y-68431009D01*
X87642857Y-68431009D02*
X87642857Y-68954819D01*
X85833333Y-66359580D02*
X85785714Y-66407200D01*
X85785714Y-66407200D02*
X85642857Y-66454819D01*
X85642857Y-66454819D02*
X85547619Y-66454819D01*
X85547619Y-66454819D02*
X85404762Y-66407200D01*
X85404762Y-66407200D02*
X85309524Y-66311961D01*
X85309524Y-66311961D02*
X85261905Y-66216723D01*
X85261905Y-66216723D02*
X85214286Y-66026247D01*
X85214286Y-66026247D02*
X85214286Y-65883390D01*
X85214286Y-65883390D02*
X85261905Y-65692914D01*
X85261905Y-65692914D02*
X85309524Y-65597676D01*
X85309524Y-65597676D02*
X85404762Y-65502438D01*
X85404762Y-65502438D02*
X85547619Y-65454819D01*
X85547619Y-65454819D02*
X85642857Y-65454819D01*
X85642857Y-65454819D02*
X85785714Y-65502438D01*
X85785714Y-65502438D02*
X85833333Y-65550057D01*
X86690476Y-65454819D02*
X86500000Y-65454819D01*
X86500000Y-65454819D02*
X86404762Y-65502438D01*
X86404762Y-65502438D02*
X86357143Y-65550057D01*
X86357143Y-65550057D02*
X86261905Y-65692914D01*
X86261905Y-65692914D02*
X86214286Y-65883390D01*
X86214286Y-65883390D02*
X86214286Y-66264342D01*
X86214286Y-66264342D02*
X86261905Y-66359580D01*
X86261905Y-66359580D02*
X86309524Y-66407200D01*
X86309524Y-66407200D02*
X86404762Y-66454819D01*
X86404762Y-66454819D02*
X86595238Y-66454819D01*
X86595238Y-66454819D02*
X86690476Y-66407200D01*
X86690476Y-66407200D02*
X86738095Y-66359580D01*
X86738095Y-66359580D02*
X86785714Y-66264342D01*
X86785714Y-66264342D02*
X86785714Y-66026247D01*
X86785714Y-66026247D02*
X86738095Y-65931009D01*
X86738095Y-65931009D02*
X86690476Y-65883390D01*
X86690476Y-65883390D02*
X86595238Y-65835771D01*
X86595238Y-65835771D02*
X86404762Y-65835771D01*
X86404762Y-65835771D02*
X86309524Y-65883390D01*
X86309524Y-65883390D02*
X86261905Y-65931009D01*
X86261905Y-65931009D02*
X86214286Y-66026247D01*
X60833333Y-68158152D02*
X60833333Y-68824819D01*
X60595238Y-67777200D02*
X60357143Y-68491485D01*
X60357143Y-68491485D02*
X60976190Y-68491485D01*
X61357143Y-68824819D02*
X61357143Y-67824819D01*
X61452381Y-68443866D02*
X61738095Y-68824819D01*
X61738095Y-68158152D02*
X61357143Y-68539104D01*
X62071429Y-67824819D02*
X62738095Y-67824819D01*
X62738095Y-67824819D02*
X62309524Y-68824819D01*
X63595238Y-67824819D02*
X63119048Y-67824819D01*
X63119048Y-67824819D02*
X63071429Y-68301009D01*
X63071429Y-68301009D02*
X63119048Y-68253390D01*
X63119048Y-68253390D02*
X63214286Y-68205771D01*
X63214286Y-68205771D02*
X63452381Y-68205771D01*
X63452381Y-68205771D02*
X63547619Y-68253390D01*
X63547619Y-68253390D02*
X63595238Y-68301009D01*
X63595238Y-68301009D02*
X63642857Y-68396247D01*
X63642857Y-68396247D02*
X63642857Y-68634342D01*
X63642857Y-68634342D02*
X63595238Y-68729580D01*
X63595238Y-68729580D02*
X63547619Y-68777200D01*
X63547619Y-68777200D02*
X63452381Y-68824819D01*
X63452381Y-68824819D02*
X63214286Y-68824819D01*
X63214286Y-68824819D02*
X63119048Y-68777200D01*
X63119048Y-68777200D02*
X63071429Y-68729580D01*
X61833333Y-66454819D02*
X61500000Y-65978628D01*
X61261905Y-66454819D02*
X61261905Y-65454819D01*
X61261905Y-65454819D02*
X61642857Y-65454819D01*
X61642857Y-65454819D02*
X61738095Y-65502438D01*
X61738095Y-65502438D02*
X61785714Y-65550057D01*
X61785714Y-65550057D02*
X61833333Y-65645295D01*
X61833333Y-65645295D02*
X61833333Y-65788152D01*
X61833333Y-65788152D02*
X61785714Y-65883390D01*
X61785714Y-65883390D02*
X61738095Y-65931009D01*
X61738095Y-65931009D02*
X61642857Y-65978628D01*
X61642857Y-65978628D02*
X61261905Y-65978628D01*
X62166667Y-65454819D02*
X62785714Y-65454819D01*
X62785714Y-65454819D02*
X62452381Y-65835771D01*
X62452381Y-65835771D02*
X62595238Y-65835771D01*
X62595238Y-65835771D02*
X62690476Y-65883390D01*
X62690476Y-65883390D02*
X62738095Y-65931009D01*
X62738095Y-65931009D02*
X62785714Y-66026247D01*
X62785714Y-66026247D02*
X62785714Y-66264342D01*
X62785714Y-66264342D02*
X62738095Y-66359580D01*
X62738095Y-66359580D02*
X62690476Y-66407200D01*
X62690476Y-66407200D02*
X62595238Y-66454819D01*
X62595238Y-66454819D02*
X62309524Y-66454819D01*
X62309524Y-66454819D02*
X62214286Y-66407200D01*
X62214286Y-66407200D02*
X62166667Y-66359580D01*
D12*
%TO.C,C1*%
X62534929Y-29052500D02*
X64334929Y-29052500D01*
X63434929Y-28152500D02*
X63434929Y-29952500D01*
X79272200Y-33000000D02*
G75*
G02*
X61272200Y-33000000I-9000000J0D01*
G01*
X61272200Y-33000000D02*
G75*
G02*
X79272200Y-33000000I9000000J0D01*
G01*
%TO.C,Q1*%
X51000000Y-75070000D02*
X61000000Y-75070000D01*
X54150000Y-73800000D02*
X54150000Y-75070000D01*
X57850000Y-73800000D02*
X57850000Y-75070000D01*
X51000000Y-73800000D02*
X61000000Y-73800000D01*
X61000000Y-78200000D01*
X51000000Y-78200000D01*
X51000000Y-73800000D01*
%TO.C,R6*%
X34190000Y-55000000D02*
X34850000Y-55000000D01*
X41810000Y-55000000D02*
X41150000Y-55000000D01*
X41150000Y-56250000D02*
X34850000Y-56250000D01*
X34850000Y-53750000D01*
X41150000Y-53750000D01*
X41150000Y-56250000D01*
%TO.C,J3*%
X107730000Y-74825000D02*
X108365000Y-74190000D01*
X107730000Y-81810000D02*
X107730000Y-74825000D01*
X108365000Y-74190000D02*
X110270000Y-74190000D01*
X110270000Y-74190000D02*
X110270000Y-81810000D01*
X110270000Y-81810000D02*
X107730000Y-81810000D01*
%TO.C,R7*%
X48190000Y-50000000D02*
X48850000Y-50000000D01*
X55810000Y-50000000D02*
X55150000Y-50000000D01*
X48850000Y-48750000D02*
X55150000Y-48750000D01*
X55150000Y-51250000D01*
X48850000Y-51250000D01*
X48850000Y-48750000D01*
%TO.C,J1*%
X30000000Y-26250000D02*
X30000000Y-33750000D01*
X30000000Y-33750000D02*
X40000000Y-33750000D01*
X39950000Y-27450000D02*
X30050000Y-27450000D01*
X40000000Y-26250000D02*
X30000000Y-26250000D01*
X40000000Y-33750000D02*
X40000000Y-26250000D01*
%TO.C,R8*%
X60190000Y-50000000D02*
X60850000Y-50000000D01*
X67810000Y-50000000D02*
X67150000Y-50000000D01*
X60850000Y-48750000D02*
X67150000Y-48750000D01*
X67150000Y-51250000D01*
X60850000Y-51250000D01*
X60850000Y-48750000D01*
%TO.C,J2*%
X104000000Y-54250000D02*
X104000000Y-61750000D01*
X104000000Y-61750000D02*
X114000000Y-61750000D01*
X104050000Y-60550000D02*
X113950000Y-60550000D01*
X114000000Y-54250000D02*
X104000000Y-54250000D01*
X114000000Y-61750000D02*
X114000000Y-54250000D01*
%TO.C,D1*%
X46920000Y-26000000D02*
X49400000Y-26000000D01*
X50080000Y-24650000D02*
X50080000Y-27350000D01*
X50180000Y-24650000D02*
X50180000Y-27350000D01*
X50280000Y-24650000D02*
X50280000Y-27350000D01*
X57080000Y-26000000D02*
X54600000Y-26000000D01*
X49400000Y-24650000D02*
X54600000Y-24650000D01*
X54600000Y-27350000D01*
X49400000Y-27350000D01*
X49400000Y-24650000D01*
%TO.C,C2*%
X82534929Y-29052500D02*
X84334929Y-29052500D01*
X83434929Y-28152500D02*
X83434929Y-29952500D01*
X99272200Y-33000000D02*
G75*
G02*
X81272200Y-33000000I-9000000J0D01*
G01*
X81272200Y-33000000D02*
G75*
G02*
X99272200Y-33000000I9000000J0D01*
G01*
%TO.C,R4*%
X34190000Y-78000000D02*
X34850000Y-78000000D01*
X41810000Y-78000000D02*
X41150000Y-78000000D01*
X34850000Y-76750000D02*
X41150000Y-76750000D01*
X41150000Y-79250000D01*
X34850000Y-79250000D01*
X34850000Y-76750000D01*
%TO.C,C5*%
X66670541Y-76252500D02*
X67470541Y-76252500D01*
X67070541Y-75852500D02*
X67070541Y-76652500D01*
X74097300Y-78000000D02*
G75*
G02*
X66097300Y-78000000I-4000000J0D01*
G01*
X66097300Y-78000000D02*
G75*
G02*
X74097300Y-78000000I4000000J0D01*
G01*
%TO.C,R5*%
X34190000Y-47000000D02*
X34850000Y-47000000D01*
X41810000Y-47000000D02*
X41150000Y-47000000D01*
X34850000Y-45750000D02*
X41150000Y-45750000D01*
X41150000Y-48250000D01*
X34850000Y-48250000D01*
X34850000Y-45750000D01*
%TO.C,C3*%
X102534929Y-29052500D02*
X104334929Y-29052500D01*
X103434929Y-28152500D02*
X103434929Y-29952500D01*
X119272200Y-33000000D02*
G75*
G02*
X101272200Y-33000000I-9000000J0D01*
G01*
X101272200Y-33000000D02*
G75*
G02*
X119272200Y-33000000I9000000J0D01*
G01*
%TO.C,C4*%
X87500000Y-46750000D02*
X92500000Y-46750000D01*
X92500000Y-49250000D01*
X87500000Y-49250000D01*
X87500000Y-46750000D01*
%TO.C,U1*%
X74825000Y-47920000D02*
X75825000Y-46920000D01*
X74825000Y-57080000D02*
X74825000Y-47920000D01*
X75825000Y-46920000D02*
X81175000Y-46920000D01*
X81175000Y-46920000D02*
X81175000Y-57080000D01*
X81175000Y-57080000D02*
X74825000Y-57080000D01*
%TO.C,DZ1*%
X70190000Y-66000000D02*
X72000000Y-66000000D01*
X72500000Y-65000000D02*
X72500000Y-67000000D01*
X72600000Y-65000000D02*
X72600000Y-67000000D01*
X72700000Y-65000000D02*
X72700000Y-67000000D01*
X77810000Y-66000000D02*
X76000000Y-66000000D01*
X72000000Y-65000000D02*
X76000000Y-65000000D01*
X76000000Y-67000000D01*
X72000000Y-67000000D01*
X72000000Y-65000000D01*
%TO.C,R2*%
X46190000Y-66000000D02*
X46850000Y-66000000D01*
X53810000Y-66000000D02*
X53150000Y-66000000D01*
X46850000Y-64750000D02*
X53150000Y-64750000D01*
X53150000Y-67250000D01*
X46850000Y-67250000D01*
X46850000Y-64750000D01*
%TO.C,R1*%
X34190000Y-66000000D02*
X34850000Y-66000000D01*
X41810000Y-66000000D02*
X41150000Y-66000000D01*
X34850000Y-64750000D02*
X41150000Y-64750000D01*
X41150000Y-67250000D01*
X34850000Y-67250000D01*
X34850000Y-64750000D01*
%TO.C,C6*%
X83500000Y-64750000D02*
X88500000Y-64750000D01*
X88500000Y-67250000D01*
X83500000Y-67250000D01*
X83500000Y-64750000D01*
%TO.C,R3*%
X58190000Y-66000000D02*
X58850000Y-66000000D01*
X65810000Y-66000000D02*
X65150000Y-66000000D01*
X58850000Y-64750000D02*
X65150000Y-64750000D01*
X65150000Y-67250000D01*
X58850000Y-67250000D01*
X58850000Y-64750000D01*
%TD*%
M02*
