%TF.GenerationSoftware,KiCad,Pcbnew,9.0.6*%
%TF.CreationDate,2026-06-10T07:56:56+02:00*%
%TF.ProjectId,mppt,6d707074-2e6b-4696-9361-645f70636258,rev?*%
%TF.SameCoordinates,Original*%
%TF.FileFunction,Legend,Top*%
%TF.FilePolarity,Positive*%
%FSLAX46Y46*%
G04 Gerber Fmt 4.6, Leading zero omitted, Abs format (unit mm)*
G04 Created by KiCad (PCBNEW 9.0.6) date 2026-06-10 07:56:56*
%MOMM*%
%LPD*%
G01*
G04 APERTURE LIST*
%ADD10C,0.150000*%
%ADD11C,0.120000*%
G04 APERTURE END LIST*
D10*
X95833333Y-67859580D02*
X95785714Y-67907200D01*
X95785714Y-67907200D02*
X95642857Y-67954819D01*
X95642857Y-67954819D02*
X95547619Y-67954819D01*
X95547619Y-67954819D02*
X95404762Y-67907200D01*
X95404762Y-67907200D02*
X95309524Y-67811961D01*
X95309524Y-67811961D02*
X95261905Y-67716723D01*
X95261905Y-67716723D02*
X95214286Y-67526247D01*
X95214286Y-67526247D02*
X95214286Y-67383390D01*
X95214286Y-67383390D02*
X95261905Y-67192914D01*
X95261905Y-67192914D02*
X95309524Y-67097676D01*
X95309524Y-67097676D02*
X95404762Y-67002438D01*
X95404762Y-67002438D02*
X95547619Y-66954819D01*
X95547619Y-66954819D02*
X95642857Y-66954819D01*
X95642857Y-66954819D02*
X95785714Y-67002438D01*
X95785714Y-67002438D02*
X95833333Y-67050057D01*
X96690476Y-66954819D02*
X96500000Y-66954819D01*
X96500000Y-66954819D02*
X96404762Y-67002438D01*
X96404762Y-67002438D02*
X96357143Y-67050057D01*
X96357143Y-67050057D02*
X96261905Y-67192914D01*
X96261905Y-67192914D02*
X96214286Y-67383390D01*
X96214286Y-67383390D02*
X96214286Y-67764342D01*
X96214286Y-67764342D02*
X96261905Y-67859580D01*
X96261905Y-67859580D02*
X96309524Y-67907200D01*
X96309524Y-67907200D02*
X96404762Y-67954819D01*
X96404762Y-67954819D02*
X96595238Y-67954819D01*
X96595238Y-67954819D02*
X96690476Y-67907200D01*
X96690476Y-67907200D02*
X96738095Y-67859580D01*
X96738095Y-67859580D02*
X96785714Y-67764342D01*
X96785714Y-67764342D02*
X96785714Y-67526247D01*
X96785714Y-67526247D02*
X96738095Y-67431009D01*
X96738095Y-67431009D02*
X96690476Y-67383390D01*
X96690476Y-67383390D02*
X96595238Y-67335771D01*
X96595238Y-67335771D02*
X96404762Y-67335771D01*
X96404762Y-67335771D02*
X96309524Y-67383390D01*
X96309524Y-67383390D02*
X96261905Y-67431009D01*
X96261905Y-67431009D02*
X96214286Y-67526247D01*
X92833333Y-49859580D02*
X92785714Y-49907200D01*
X92785714Y-49907200D02*
X92642857Y-49954819D01*
X92642857Y-49954819D02*
X92547619Y-49954819D01*
X92547619Y-49954819D02*
X92404762Y-49907200D01*
X92404762Y-49907200D02*
X92309524Y-49811961D01*
X92309524Y-49811961D02*
X92261905Y-49716723D01*
X92261905Y-49716723D02*
X92214286Y-49526247D01*
X92214286Y-49526247D02*
X92214286Y-49383390D01*
X92214286Y-49383390D02*
X92261905Y-49192914D01*
X92261905Y-49192914D02*
X92309524Y-49097676D01*
X92309524Y-49097676D02*
X92404762Y-49002438D01*
X92404762Y-49002438D02*
X92547619Y-48954819D01*
X92547619Y-48954819D02*
X92642857Y-48954819D01*
X92642857Y-48954819D02*
X92785714Y-49002438D01*
X92785714Y-49002438D02*
X92833333Y-49050057D01*
X93690476Y-49288152D02*
X93690476Y-49954819D01*
X93452381Y-48907200D02*
X93214286Y-49621485D01*
X93214286Y-49621485D02*
X93833333Y-49621485D01*
X144666666Y-22374819D02*
X144666666Y-23089104D01*
X144666666Y-23089104D02*
X144619047Y-23231961D01*
X144619047Y-23231961D02*
X144523809Y-23327200D01*
X144523809Y-23327200D02*
X144380952Y-23374819D01*
X144380952Y-23374819D02*
X144285714Y-23374819D01*
X145095238Y-22470057D02*
X145142857Y-22422438D01*
X145142857Y-22422438D02*
X145238095Y-22374819D01*
X145238095Y-22374819D02*
X145476190Y-22374819D01*
X145476190Y-22374819D02*
X145571428Y-22422438D01*
X145571428Y-22422438D02*
X145619047Y-22470057D01*
X145619047Y-22470057D02*
X145666666Y-22565295D01*
X145666666Y-22565295D02*
X145666666Y-22660533D01*
X145666666Y-22660533D02*
X145619047Y-22803390D01*
X145619047Y-22803390D02*
X145047619Y-23374819D01*
X145047619Y-23374819D02*
X145666666Y-23374819D01*
X104105533Y-21109580D02*
X104057914Y-21157200D01*
X104057914Y-21157200D02*
X103915057Y-21204819D01*
X103915057Y-21204819D02*
X103819819Y-21204819D01*
X103819819Y-21204819D02*
X103676962Y-21157200D01*
X103676962Y-21157200D02*
X103581724Y-21061961D01*
X103581724Y-21061961D02*
X103534105Y-20966723D01*
X103534105Y-20966723D02*
X103486486Y-20776247D01*
X103486486Y-20776247D02*
X103486486Y-20633390D01*
X103486486Y-20633390D02*
X103534105Y-20442914D01*
X103534105Y-20442914D02*
X103581724Y-20347676D01*
X103581724Y-20347676D02*
X103676962Y-20252438D01*
X103676962Y-20252438D02*
X103819819Y-20204819D01*
X103819819Y-20204819D02*
X103915057Y-20204819D01*
X103915057Y-20204819D02*
X104057914Y-20252438D01*
X104057914Y-20252438D02*
X104105533Y-20300057D01*
X104438867Y-20204819D02*
X105057914Y-20204819D01*
X105057914Y-20204819D02*
X104724581Y-20585771D01*
X104724581Y-20585771D02*
X104867438Y-20585771D01*
X104867438Y-20585771D02*
X104962676Y-20633390D01*
X104962676Y-20633390D02*
X105010295Y-20681009D01*
X105010295Y-20681009D02*
X105057914Y-20776247D01*
X105057914Y-20776247D02*
X105057914Y-21014342D01*
X105057914Y-21014342D02*
X105010295Y-21109580D01*
X105010295Y-21109580D02*
X104962676Y-21157200D01*
X104962676Y-21157200D02*
X104867438Y-21204819D01*
X104867438Y-21204819D02*
X104581724Y-21204819D01*
X104581724Y-21204819D02*
X104486486Y-21157200D01*
X104486486Y-21157200D02*
X104438867Y-21109580D01*
X45833333Y-40084819D02*
X45500000Y-39608628D01*
X45261905Y-40084819D02*
X45261905Y-39084819D01*
X45261905Y-39084819D02*
X45642857Y-39084819D01*
X45642857Y-39084819D02*
X45738095Y-39132438D01*
X45738095Y-39132438D02*
X45785714Y-39180057D01*
X45785714Y-39180057D02*
X45833333Y-39275295D01*
X45833333Y-39275295D02*
X45833333Y-39418152D01*
X45833333Y-39418152D02*
X45785714Y-39513390D01*
X45785714Y-39513390D02*
X45738095Y-39561009D01*
X45738095Y-39561009D02*
X45642857Y-39608628D01*
X45642857Y-39608628D02*
X45261905Y-39608628D01*
X46738095Y-39084819D02*
X46261905Y-39084819D01*
X46261905Y-39084819D02*
X46214286Y-39561009D01*
X46214286Y-39561009D02*
X46261905Y-39513390D01*
X46261905Y-39513390D02*
X46357143Y-39465771D01*
X46357143Y-39465771D02*
X46595238Y-39465771D01*
X46595238Y-39465771D02*
X46690476Y-39513390D01*
X46690476Y-39513390D02*
X46738095Y-39561009D01*
X46738095Y-39561009D02*
X46785714Y-39656247D01*
X46785714Y-39656247D02*
X46785714Y-39894342D01*
X46785714Y-39894342D02*
X46738095Y-39989580D01*
X46738095Y-39989580D02*
X46690476Y-40037200D01*
X46690476Y-40037200D02*
X46595238Y-40084819D01*
X46595238Y-40084819D02*
X46357143Y-40084819D01*
X46357143Y-40084819D02*
X46261905Y-40037200D01*
X46261905Y-40037200D02*
X46214286Y-39989580D01*
X84785714Y-68334819D02*
X84785714Y-67334819D01*
X84785714Y-67334819D02*
X85023809Y-67334819D01*
X85023809Y-67334819D02*
X85166666Y-67382438D01*
X85166666Y-67382438D02*
X85261904Y-67477676D01*
X85261904Y-67477676D02*
X85309523Y-67572914D01*
X85309523Y-67572914D02*
X85357142Y-67763390D01*
X85357142Y-67763390D02*
X85357142Y-67906247D01*
X85357142Y-67906247D02*
X85309523Y-68096723D01*
X85309523Y-68096723D02*
X85261904Y-68191961D01*
X85261904Y-68191961D02*
X85166666Y-68287200D01*
X85166666Y-68287200D02*
X85023809Y-68334819D01*
X85023809Y-68334819D02*
X84785714Y-68334819D01*
X85690476Y-67334819D02*
X86357142Y-67334819D01*
X86357142Y-67334819D02*
X85690476Y-68334819D01*
X85690476Y-68334819D02*
X86357142Y-68334819D01*
X87261904Y-68334819D02*
X86690476Y-68334819D01*
X86976190Y-68334819D02*
X86976190Y-67334819D01*
X86976190Y-67334819D02*
X86880952Y-67477676D01*
X86880952Y-67477676D02*
X86785714Y-67572914D01*
X86785714Y-67572914D02*
X86690476Y-67620533D01*
X81928095Y-68654819D02*
X81928095Y-67654819D01*
X82499523Y-68654819D02*
X82070952Y-68083390D01*
X82499523Y-67654819D02*
X81928095Y-68226247D01*
X64105533Y-21109580D02*
X64057914Y-21157200D01*
X64057914Y-21157200D02*
X63915057Y-21204819D01*
X63915057Y-21204819D02*
X63819819Y-21204819D01*
X63819819Y-21204819D02*
X63676962Y-21157200D01*
X63676962Y-21157200D02*
X63581724Y-21061961D01*
X63581724Y-21061961D02*
X63534105Y-20966723D01*
X63534105Y-20966723D02*
X63486486Y-20776247D01*
X63486486Y-20776247D02*
X63486486Y-20633390D01*
X63486486Y-20633390D02*
X63534105Y-20442914D01*
X63534105Y-20442914D02*
X63581724Y-20347676D01*
X63581724Y-20347676D02*
X63676962Y-20252438D01*
X63676962Y-20252438D02*
X63819819Y-20204819D01*
X63819819Y-20204819D02*
X63915057Y-20204819D01*
X63915057Y-20204819D02*
X64057914Y-20252438D01*
X64057914Y-20252438D02*
X64105533Y-20300057D01*
X65057914Y-21204819D02*
X64486486Y-21204819D01*
X64772200Y-21204819D02*
X64772200Y-20204819D01*
X64772200Y-20204819D02*
X64676962Y-20347676D01*
X64676962Y-20347676D02*
X64581724Y-20442914D01*
X64581724Y-20442914D02*
X64486486Y-20490533D01*
X144666666Y-56534819D02*
X144666666Y-57249104D01*
X144666666Y-57249104D02*
X144619047Y-57391961D01*
X144619047Y-57391961D02*
X144523809Y-57487200D01*
X144523809Y-57487200D02*
X144380952Y-57534819D01*
X144380952Y-57534819D02*
X144285714Y-57534819D01*
X145047619Y-56534819D02*
X145666666Y-56534819D01*
X145666666Y-56534819D02*
X145333333Y-56915771D01*
X145333333Y-56915771D02*
X145476190Y-56915771D01*
X145476190Y-56915771D02*
X145571428Y-56963390D01*
X145571428Y-56963390D02*
X145619047Y-57011009D01*
X145619047Y-57011009D02*
X145666666Y-57106247D01*
X145666666Y-57106247D02*
X145666666Y-57344342D01*
X145666666Y-57344342D02*
X145619047Y-57439580D01*
X145619047Y-57439580D02*
X145571428Y-57487200D01*
X145571428Y-57487200D02*
X145476190Y-57534819D01*
X145476190Y-57534819D02*
X145190476Y-57534819D01*
X145190476Y-57534819D02*
X145095238Y-57487200D01*
X145095238Y-57487200D02*
X145047619Y-57439580D01*
X55833333Y-44824819D02*
X55500000Y-44348628D01*
X55261905Y-44824819D02*
X55261905Y-43824819D01*
X55261905Y-43824819D02*
X55642857Y-43824819D01*
X55642857Y-43824819D02*
X55738095Y-43872438D01*
X55738095Y-43872438D02*
X55785714Y-43920057D01*
X55785714Y-43920057D02*
X55833333Y-44015295D01*
X55833333Y-44015295D02*
X55833333Y-44158152D01*
X55833333Y-44158152D02*
X55785714Y-44253390D01*
X55785714Y-44253390D02*
X55738095Y-44301009D01*
X55738095Y-44301009D02*
X55642857Y-44348628D01*
X55642857Y-44348628D02*
X55261905Y-44348628D01*
X56690476Y-43824819D02*
X56500000Y-43824819D01*
X56500000Y-43824819D02*
X56404762Y-43872438D01*
X56404762Y-43872438D02*
X56357143Y-43920057D01*
X56357143Y-43920057D02*
X56261905Y-44062914D01*
X56261905Y-44062914D02*
X56214286Y-44253390D01*
X56214286Y-44253390D02*
X56214286Y-44634342D01*
X56214286Y-44634342D02*
X56261905Y-44729580D01*
X56261905Y-44729580D02*
X56309524Y-44777200D01*
X56309524Y-44777200D02*
X56404762Y-44824819D01*
X56404762Y-44824819D02*
X56595238Y-44824819D01*
X56595238Y-44824819D02*
X56690476Y-44777200D01*
X56690476Y-44777200D02*
X56738095Y-44729580D01*
X56738095Y-44729580D02*
X56785714Y-44634342D01*
X56785714Y-44634342D02*
X56785714Y-44396247D01*
X56785714Y-44396247D02*
X56738095Y-44301009D01*
X56738095Y-44301009D02*
X56690476Y-44253390D01*
X56690476Y-44253390D02*
X56595238Y-44205771D01*
X56595238Y-44205771D02*
X56404762Y-44205771D01*
X56404762Y-44205771D02*
X56309524Y-44253390D01*
X56309524Y-44253390D02*
X56261905Y-44301009D01*
X56261905Y-44301009D02*
X56214286Y-44396247D01*
X119904761Y-41400057D02*
X119809523Y-41352438D01*
X119809523Y-41352438D02*
X119714285Y-41257200D01*
X119714285Y-41257200D02*
X119571428Y-41114342D01*
X119571428Y-41114342D02*
X119476190Y-41066723D01*
X119476190Y-41066723D02*
X119380952Y-41066723D01*
X119428571Y-41304819D02*
X119333333Y-41257200D01*
X119333333Y-41257200D02*
X119238095Y-41161961D01*
X119238095Y-41161961D02*
X119190476Y-40971485D01*
X119190476Y-40971485D02*
X119190476Y-40638152D01*
X119190476Y-40638152D02*
X119238095Y-40447676D01*
X119238095Y-40447676D02*
X119333333Y-40352438D01*
X119333333Y-40352438D02*
X119428571Y-40304819D01*
X119428571Y-40304819D02*
X119619047Y-40304819D01*
X119619047Y-40304819D02*
X119714285Y-40352438D01*
X119714285Y-40352438D02*
X119809523Y-40447676D01*
X119809523Y-40447676D02*
X119857142Y-40638152D01*
X119857142Y-40638152D02*
X119857142Y-40971485D01*
X119857142Y-40971485D02*
X119809523Y-41161961D01*
X119809523Y-41161961D02*
X119714285Y-41257200D01*
X119714285Y-41257200D02*
X119619047Y-41304819D01*
X119619047Y-41304819D02*
X119428571Y-41304819D01*
X120809523Y-41304819D02*
X120238095Y-41304819D01*
X120523809Y-41304819D02*
X120523809Y-40304819D01*
X120523809Y-40304819D02*
X120428571Y-40447676D01*
X120428571Y-40447676D02*
X120333333Y-40542914D01*
X120333333Y-40542914D02*
X120238095Y-40590533D01*
X84105533Y-21109580D02*
X84057914Y-21157200D01*
X84057914Y-21157200D02*
X83915057Y-21204819D01*
X83915057Y-21204819D02*
X83819819Y-21204819D01*
X83819819Y-21204819D02*
X83676962Y-21157200D01*
X83676962Y-21157200D02*
X83581724Y-21061961D01*
X83581724Y-21061961D02*
X83534105Y-20966723D01*
X83534105Y-20966723D02*
X83486486Y-20776247D01*
X83486486Y-20776247D02*
X83486486Y-20633390D01*
X83486486Y-20633390D02*
X83534105Y-20442914D01*
X83534105Y-20442914D02*
X83581724Y-20347676D01*
X83581724Y-20347676D02*
X83676962Y-20252438D01*
X83676962Y-20252438D02*
X83819819Y-20204819D01*
X83819819Y-20204819D02*
X83915057Y-20204819D01*
X83915057Y-20204819D02*
X84057914Y-20252438D01*
X84057914Y-20252438D02*
X84105533Y-20300057D01*
X84486486Y-20300057D02*
X84534105Y-20252438D01*
X84534105Y-20252438D02*
X84629343Y-20204819D01*
X84629343Y-20204819D02*
X84867438Y-20204819D01*
X84867438Y-20204819D02*
X84962676Y-20252438D01*
X84962676Y-20252438D02*
X85010295Y-20300057D01*
X85010295Y-20300057D02*
X85057914Y-20395295D01*
X85057914Y-20395295D02*
X85057914Y-20490533D01*
X85057914Y-20490533D02*
X85010295Y-20633390D01*
X85010295Y-20633390D02*
X84438867Y-21204819D01*
X84438867Y-21204819D02*
X85057914Y-21204819D01*
X49261905Y-21984819D02*
X49261905Y-20984819D01*
X49261905Y-20984819D02*
X49500000Y-20984819D01*
X49500000Y-20984819D02*
X49642857Y-21032438D01*
X49642857Y-21032438D02*
X49738095Y-21127676D01*
X49738095Y-21127676D02*
X49785714Y-21222914D01*
X49785714Y-21222914D02*
X49833333Y-21413390D01*
X49833333Y-21413390D02*
X49833333Y-21556247D01*
X49833333Y-21556247D02*
X49785714Y-21746723D01*
X49785714Y-21746723D02*
X49738095Y-21841961D01*
X49738095Y-21841961D02*
X49642857Y-21937200D01*
X49642857Y-21937200D02*
X49500000Y-21984819D01*
X49500000Y-21984819D02*
X49261905Y-21984819D01*
X50785714Y-21984819D02*
X50214286Y-21984819D01*
X50500000Y-21984819D02*
X50500000Y-20984819D01*
X50500000Y-20984819D02*
X50404762Y-21127676D01*
X50404762Y-21127676D02*
X50309524Y-21222914D01*
X50309524Y-21222914D02*
X50214286Y-21270533D01*
X44658095Y-22354819D02*
X44658095Y-21354819D01*
X45229523Y-22354819D02*
X44800952Y-21783390D01*
X45229523Y-21354819D02*
X44658095Y-21926247D01*
X79238095Y-51314819D02*
X79238095Y-52124342D01*
X79238095Y-52124342D02*
X79285714Y-52219580D01*
X79285714Y-52219580D02*
X79333333Y-52267200D01*
X79333333Y-52267200D02*
X79428571Y-52314819D01*
X79428571Y-52314819D02*
X79619047Y-52314819D01*
X79619047Y-52314819D02*
X79714285Y-52267200D01*
X79714285Y-52267200D02*
X79761904Y-52219580D01*
X79761904Y-52219580D02*
X79809523Y-52124342D01*
X79809523Y-52124342D02*
X79809523Y-51314819D01*
X80809523Y-52314819D02*
X80238095Y-52314819D01*
X80523809Y-52314819D02*
X80523809Y-51314819D01*
X80523809Y-51314819D02*
X80428571Y-51457676D01*
X80428571Y-51457676D02*
X80333333Y-51552914D01*
X80333333Y-51552914D02*
X80238095Y-51600533D01*
X49833333Y-68084819D02*
X49500000Y-67608628D01*
X49261905Y-68084819D02*
X49261905Y-67084819D01*
X49261905Y-67084819D02*
X49642857Y-67084819D01*
X49642857Y-67084819D02*
X49738095Y-67132438D01*
X49738095Y-67132438D02*
X49785714Y-67180057D01*
X49785714Y-67180057D02*
X49833333Y-67275295D01*
X49833333Y-67275295D02*
X49833333Y-67418152D01*
X49833333Y-67418152D02*
X49785714Y-67513390D01*
X49785714Y-67513390D02*
X49738095Y-67561009D01*
X49738095Y-67561009D02*
X49642857Y-67608628D01*
X49642857Y-67608628D02*
X49261905Y-67608628D01*
X50785714Y-68084819D02*
X50214286Y-68084819D01*
X50500000Y-68084819D02*
X50500000Y-67084819D01*
X50500000Y-67084819D02*
X50404762Y-67227676D01*
X50404762Y-67227676D02*
X50309524Y-67322914D01*
X50309524Y-67322914D02*
X50214286Y-67370533D01*
X63833333Y-54084819D02*
X63500000Y-53608628D01*
X63261905Y-54084819D02*
X63261905Y-53084819D01*
X63261905Y-53084819D02*
X63642857Y-53084819D01*
X63642857Y-53084819D02*
X63738095Y-53132438D01*
X63738095Y-53132438D02*
X63785714Y-53180057D01*
X63785714Y-53180057D02*
X63833333Y-53275295D01*
X63833333Y-53275295D02*
X63833333Y-53418152D01*
X63833333Y-53418152D02*
X63785714Y-53513390D01*
X63785714Y-53513390D02*
X63738095Y-53561009D01*
X63738095Y-53561009D02*
X63642857Y-53608628D01*
X63642857Y-53608628D02*
X63261905Y-53608628D01*
X64404762Y-53513390D02*
X64309524Y-53465771D01*
X64309524Y-53465771D02*
X64261905Y-53418152D01*
X64261905Y-53418152D02*
X64214286Y-53322914D01*
X64214286Y-53322914D02*
X64214286Y-53275295D01*
X64214286Y-53275295D02*
X64261905Y-53180057D01*
X64261905Y-53180057D02*
X64309524Y-53132438D01*
X64309524Y-53132438D02*
X64404762Y-53084819D01*
X64404762Y-53084819D02*
X64595238Y-53084819D01*
X64595238Y-53084819D02*
X64690476Y-53132438D01*
X64690476Y-53132438D02*
X64738095Y-53180057D01*
X64738095Y-53180057D02*
X64785714Y-53275295D01*
X64785714Y-53275295D02*
X64785714Y-53322914D01*
X64785714Y-53322914D02*
X64738095Y-53418152D01*
X64738095Y-53418152D02*
X64690476Y-53465771D01*
X64690476Y-53465771D02*
X64595238Y-53513390D01*
X64595238Y-53513390D02*
X64404762Y-53513390D01*
X64404762Y-53513390D02*
X64309524Y-53561009D01*
X64309524Y-53561009D02*
X64261905Y-53608628D01*
X64261905Y-53608628D02*
X64214286Y-53703866D01*
X64214286Y-53703866D02*
X64214286Y-53894342D01*
X64214286Y-53894342D02*
X64261905Y-53989580D01*
X64261905Y-53989580D02*
X64309524Y-54037200D01*
X64309524Y-54037200D02*
X64404762Y-54084819D01*
X64404762Y-54084819D02*
X64595238Y-54084819D01*
X64595238Y-54084819D02*
X64690476Y-54037200D01*
X64690476Y-54037200D02*
X64738095Y-53989580D01*
X64738095Y-53989580D02*
X64785714Y-53894342D01*
X64785714Y-53894342D02*
X64785714Y-53703866D01*
X64785714Y-53703866D02*
X64738095Y-53608628D01*
X64738095Y-53608628D02*
X64690476Y-53561009D01*
X64690476Y-53561009D02*
X64595238Y-53513390D01*
X105833333Y-50084819D02*
X105500000Y-49608628D01*
X105261905Y-50084819D02*
X105261905Y-49084819D01*
X105261905Y-49084819D02*
X105642857Y-49084819D01*
X105642857Y-49084819D02*
X105738095Y-49132438D01*
X105738095Y-49132438D02*
X105785714Y-49180057D01*
X105785714Y-49180057D02*
X105833333Y-49275295D01*
X105833333Y-49275295D02*
X105833333Y-49418152D01*
X105833333Y-49418152D02*
X105785714Y-49513390D01*
X105785714Y-49513390D02*
X105738095Y-49561009D01*
X105738095Y-49561009D02*
X105642857Y-49608628D01*
X105642857Y-49608628D02*
X105261905Y-49608628D01*
X106690476Y-49418152D02*
X106690476Y-50084819D01*
X106452381Y-49037200D02*
X106214286Y-49751485D01*
X106214286Y-49751485D02*
X106833333Y-49751485D01*
X73833333Y-68084819D02*
X73500000Y-67608628D01*
X73261905Y-68084819D02*
X73261905Y-67084819D01*
X73261905Y-67084819D02*
X73642857Y-67084819D01*
X73642857Y-67084819D02*
X73738095Y-67132438D01*
X73738095Y-67132438D02*
X73785714Y-67180057D01*
X73785714Y-67180057D02*
X73833333Y-67275295D01*
X73833333Y-67275295D02*
X73833333Y-67418152D01*
X73833333Y-67418152D02*
X73785714Y-67513390D01*
X73785714Y-67513390D02*
X73738095Y-67561009D01*
X73738095Y-67561009D02*
X73642857Y-67608628D01*
X73642857Y-67608628D02*
X73261905Y-67608628D01*
X74166667Y-67084819D02*
X74785714Y-67084819D01*
X74785714Y-67084819D02*
X74452381Y-67465771D01*
X74452381Y-67465771D02*
X74595238Y-67465771D01*
X74595238Y-67465771D02*
X74690476Y-67513390D01*
X74690476Y-67513390D02*
X74738095Y-67561009D01*
X74738095Y-67561009D02*
X74785714Y-67656247D01*
X74785714Y-67656247D02*
X74785714Y-67894342D01*
X74785714Y-67894342D02*
X74738095Y-67989580D01*
X74738095Y-67989580D02*
X74690476Y-68037200D01*
X74690476Y-68037200D02*
X74595238Y-68084819D01*
X74595238Y-68084819D02*
X74309524Y-68084819D01*
X74309524Y-68084819D02*
X74214286Y-68037200D01*
X74214286Y-68037200D02*
X74166667Y-67989580D01*
X132930633Y-39109580D02*
X132883014Y-39157200D01*
X132883014Y-39157200D02*
X132740157Y-39204819D01*
X132740157Y-39204819D02*
X132644919Y-39204819D01*
X132644919Y-39204819D02*
X132502062Y-39157200D01*
X132502062Y-39157200D02*
X132406824Y-39061961D01*
X132406824Y-39061961D02*
X132359205Y-38966723D01*
X132359205Y-38966723D02*
X132311586Y-38776247D01*
X132311586Y-38776247D02*
X132311586Y-38633390D01*
X132311586Y-38633390D02*
X132359205Y-38442914D01*
X132359205Y-38442914D02*
X132406824Y-38347676D01*
X132406824Y-38347676D02*
X132502062Y-38252438D01*
X132502062Y-38252438D02*
X132644919Y-38204819D01*
X132644919Y-38204819D02*
X132740157Y-38204819D01*
X132740157Y-38204819D02*
X132883014Y-38252438D01*
X132883014Y-38252438D02*
X132930633Y-38300057D01*
X133835395Y-38204819D02*
X133359205Y-38204819D01*
X133359205Y-38204819D02*
X133311586Y-38681009D01*
X133311586Y-38681009D02*
X133359205Y-38633390D01*
X133359205Y-38633390D02*
X133454443Y-38585771D01*
X133454443Y-38585771D02*
X133692538Y-38585771D01*
X133692538Y-38585771D02*
X133787776Y-38633390D01*
X133787776Y-38633390D02*
X133835395Y-38681009D01*
X133835395Y-38681009D02*
X133883014Y-38776247D01*
X133883014Y-38776247D02*
X133883014Y-39014342D01*
X133883014Y-39014342D02*
X133835395Y-39109580D01*
X133835395Y-39109580D02*
X133787776Y-39157200D01*
X133787776Y-39157200D02*
X133692538Y-39204819D01*
X133692538Y-39204819D02*
X133454443Y-39204819D01*
X133454443Y-39204819D02*
X133359205Y-39157200D01*
X133359205Y-39157200D02*
X133311586Y-39109580D01*
X34666666Y-32534819D02*
X34666666Y-33249104D01*
X34666666Y-33249104D02*
X34619047Y-33391961D01*
X34619047Y-33391961D02*
X34523809Y-33487200D01*
X34523809Y-33487200D02*
X34380952Y-33534819D01*
X34380952Y-33534819D02*
X34285714Y-33534819D01*
X35666666Y-33534819D02*
X35095238Y-33534819D01*
X35380952Y-33534819D02*
X35380952Y-32534819D01*
X35380952Y-32534819D02*
X35285714Y-32677676D01*
X35285714Y-32677676D02*
X35190476Y-32772914D01*
X35190476Y-32772914D02*
X35095238Y-32820533D01*
X61833333Y-68084819D02*
X61500000Y-67608628D01*
X61261905Y-68084819D02*
X61261905Y-67084819D01*
X61261905Y-67084819D02*
X61642857Y-67084819D01*
X61642857Y-67084819D02*
X61738095Y-67132438D01*
X61738095Y-67132438D02*
X61785714Y-67180057D01*
X61785714Y-67180057D02*
X61833333Y-67275295D01*
X61833333Y-67275295D02*
X61833333Y-67418152D01*
X61833333Y-67418152D02*
X61785714Y-67513390D01*
X61785714Y-67513390D02*
X61738095Y-67561009D01*
X61738095Y-67561009D02*
X61642857Y-67608628D01*
X61642857Y-67608628D02*
X61261905Y-67608628D01*
X62214286Y-67180057D02*
X62261905Y-67132438D01*
X62261905Y-67132438D02*
X62357143Y-67084819D01*
X62357143Y-67084819D02*
X62595238Y-67084819D01*
X62595238Y-67084819D02*
X62690476Y-67132438D01*
X62690476Y-67132438D02*
X62738095Y-67180057D01*
X62738095Y-67180057D02*
X62785714Y-67275295D01*
X62785714Y-67275295D02*
X62785714Y-67370533D01*
X62785714Y-67370533D02*
X62738095Y-67513390D01*
X62738095Y-67513390D02*
X62166667Y-68084819D01*
X62166667Y-68084819D02*
X62785714Y-68084819D01*
X49833333Y-54084819D02*
X49500000Y-53608628D01*
X49261905Y-54084819D02*
X49261905Y-53084819D01*
X49261905Y-53084819D02*
X49642857Y-53084819D01*
X49642857Y-53084819D02*
X49738095Y-53132438D01*
X49738095Y-53132438D02*
X49785714Y-53180057D01*
X49785714Y-53180057D02*
X49833333Y-53275295D01*
X49833333Y-53275295D02*
X49833333Y-53418152D01*
X49833333Y-53418152D02*
X49785714Y-53513390D01*
X49785714Y-53513390D02*
X49738095Y-53561009D01*
X49738095Y-53561009D02*
X49642857Y-53608628D01*
X49642857Y-53608628D02*
X49261905Y-53608628D01*
X50166667Y-53084819D02*
X50833333Y-53084819D01*
X50833333Y-53084819D02*
X50404762Y-54084819D01*
D11*
%TO.C,C6*%
X93380000Y-68630000D02*
X98620000Y-68630000D01*
X93380000Y-68967000D02*
X93380000Y-68630000D01*
X93380000Y-71370000D02*
X93380000Y-71033000D01*
X98620000Y-68630000D02*
X98620000Y-68967000D01*
X98620000Y-71033000D02*
X98620000Y-71370000D01*
X98620000Y-71370000D02*
X93380000Y-71370000D01*
%TO.C,C4*%
X90380000Y-50630000D02*
X95620000Y-50630000D01*
X90380000Y-50967000D02*
X90380000Y-50630000D01*
X90380000Y-53370000D02*
X90380000Y-53033000D01*
X95620000Y-50630000D02*
X95620000Y-50967000D01*
X95620000Y-53033000D02*
X95620000Y-53370000D01*
X95620000Y-53370000D02*
X90380000Y-53370000D01*
%TO.C,J2*%
X139920000Y-24190000D02*
X139920000Y-31810000D01*
X139920000Y-31810000D02*
X150080000Y-31810000D01*
X150080000Y-24190000D02*
X139920000Y-24190000D01*
X150080000Y-30540000D02*
X139920000Y-30540000D01*
X150080000Y-31810000D02*
X150080000Y-24190000D01*
%TO.C,C3*%
X94512760Y-25885000D02*
X96312760Y-25885000D01*
X95412760Y-24985000D02*
X95412760Y-26785000D01*
X104272200Y-21920000D02*
X104272200Y-40080000D01*
X104312200Y-21920000D02*
X104312200Y-40080000D01*
X104352200Y-21920000D02*
X104352200Y-40080000D01*
X104392200Y-21921000D02*
X104392200Y-40079000D01*
X104432200Y-21921000D02*
X104432200Y-40079000D01*
X104472200Y-21922000D02*
X104472200Y-40078000D01*
X104512200Y-21923000D02*
X104512200Y-40077000D01*
X104552200Y-21924000D02*
X104552200Y-40076000D01*
X104592200Y-21926000D02*
X104592200Y-40074000D01*
X104632200Y-21927000D02*
X104632200Y-40073000D01*
X104672200Y-21929000D02*
X104672200Y-40071000D01*
X104712200Y-21931000D02*
X104712200Y-40069000D01*
X104752200Y-21933000D02*
X104752200Y-40067000D01*
X104792200Y-21935000D02*
X104792200Y-40065000D01*
X104832200Y-21937000D02*
X104832200Y-40063000D01*
X104872200Y-21940000D02*
X104872200Y-40060000D01*
X104912200Y-21942000D02*
X104912200Y-40058000D01*
X104952200Y-21945000D02*
X104952200Y-40055000D01*
X104992200Y-21948000D02*
X104992200Y-40052000D01*
X105032200Y-21952000D02*
X105032200Y-40048000D01*
X105072200Y-21955000D02*
X105072200Y-40045000D01*
X105112200Y-21959000D02*
X105112200Y-40041000D01*
X105152200Y-21963000D02*
X105152200Y-40037000D01*
X105192200Y-21967000D02*
X105192200Y-40033000D01*
X105232200Y-21971000D02*
X105232200Y-40029000D01*
X105272200Y-21975000D02*
X105272200Y-40025000D01*
X105312200Y-21979000D02*
X105312200Y-40021000D01*
X105352200Y-21984000D02*
X105352200Y-40016000D01*
X105392200Y-21989000D02*
X105392200Y-40011000D01*
X105432200Y-21994000D02*
X105432200Y-40006000D01*
X105472200Y-21999000D02*
X105472200Y-40001000D01*
X105512200Y-22005000D02*
X105512200Y-39995000D01*
X105552200Y-22010000D02*
X105552200Y-39990000D01*
X105592200Y-22016000D02*
X105592200Y-39984000D01*
X105632200Y-22022000D02*
X105632200Y-39978000D01*
X105672200Y-22028000D02*
X105672200Y-39972000D01*
X105712200Y-22034000D02*
X105712200Y-39966000D01*
X105752200Y-22041000D02*
X105752200Y-39959000D01*
X105792200Y-22048000D02*
X105792200Y-39952000D01*
X105832200Y-22054000D02*
X105832200Y-39946000D01*
X105872200Y-22061000D02*
X105872200Y-39939000D01*
X105912200Y-22069000D02*
X105912200Y-39931000D01*
X105952200Y-22076000D02*
X105952200Y-39924000D01*
X105992200Y-22084000D02*
X105992200Y-39916000D01*
X106032200Y-22091000D02*
X106032200Y-39909000D01*
X106072200Y-22099000D02*
X106072200Y-39901000D01*
X106112200Y-22108000D02*
X106112200Y-39892000D01*
X106152200Y-22116000D02*
X106152200Y-39884000D01*
X106192200Y-22124000D02*
X106192200Y-39876000D01*
X106232200Y-22133000D02*
X106232200Y-39867000D01*
X106272200Y-22142000D02*
X106272200Y-39858000D01*
X106312200Y-22151000D02*
X106312200Y-39849000D01*
X106352200Y-22160000D02*
X106352200Y-39840000D01*
X106392200Y-22170000D02*
X106392200Y-39830000D01*
X106432200Y-22179000D02*
X106432200Y-39821000D01*
X106472200Y-22189000D02*
X106472200Y-39811000D01*
X106512200Y-22199000D02*
X106512200Y-39801000D01*
X106552200Y-22210000D02*
X106552200Y-39790000D01*
X106592200Y-22220000D02*
X106592200Y-29560000D01*
X106592200Y-32440000D02*
X106592200Y-39780000D01*
X106632200Y-22231000D02*
X106632200Y-29560000D01*
X106632200Y-32440000D02*
X106632200Y-39769000D01*
X106672200Y-22241000D02*
X106672200Y-29560000D01*
X106672200Y-32440000D02*
X106672200Y-39759000D01*
X106712200Y-22252000D02*
X106712200Y-29560000D01*
X106712200Y-32440000D02*
X106712200Y-39748000D01*
X106752200Y-22264000D02*
X106752200Y-29560000D01*
X106752200Y-32440000D02*
X106752200Y-39736000D01*
X106792200Y-22275000D02*
X106792200Y-29560000D01*
X106792200Y-32440000D02*
X106792200Y-39725000D01*
X106832200Y-22287000D02*
X106832200Y-29560000D01*
X106832200Y-32440000D02*
X106832200Y-39713000D01*
X106872200Y-22298000D02*
X106872200Y-29560000D01*
X106872200Y-32440000D02*
X106872200Y-39702000D01*
X106912200Y-22310000D02*
X106912200Y-29560000D01*
X106912200Y-32440000D02*
X106912200Y-39690000D01*
X106952200Y-22323000D02*
X106952200Y-29560000D01*
X106952200Y-32440000D02*
X106952200Y-39677000D01*
X106992200Y-22335000D02*
X106992200Y-29560000D01*
X106992200Y-32440000D02*
X106992200Y-39665000D01*
X107032200Y-22348000D02*
X107032200Y-29560000D01*
X107032200Y-32440000D02*
X107032200Y-39652000D01*
X107072200Y-22360000D02*
X107072200Y-29560000D01*
X107072200Y-32440000D02*
X107072200Y-39640000D01*
X107112200Y-22373000D02*
X107112200Y-29560000D01*
X107112200Y-32440000D02*
X107112200Y-39627000D01*
X107152200Y-22387000D02*
X107152200Y-29560000D01*
X107152200Y-32440000D02*
X107152200Y-39613000D01*
X107192200Y-22400000D02*
X107192200Y-29560000D01*
X107192200Y-32440000D02*
X107192200Y-39600000D01*
X107232200Y-22414000D02*
X107232200Y-29560000D01*
X107232200Y-32440000D02*
X107232200Y-39586000D01*
X107272200Y-22428000D02*
X107272200Y-29560000D01*
X107272200Y-32440000D02*
X107272200Y-39572000D01*
X107312200Y-22442000D02*
X107312200Y-29560000D01*
X107312200Y-32440000D02*
X107312200Y-39558000D01*
X107352200Y-22456000D02*
X107352200Y-29560000D01*
X107352200Y-32440000D02*
X107352200Y-39544000D01*
X107392200Y-22470000D02*
X107392200Y-29560000D01*
X107392200Y-32440000D02*
X107392200Y-39530000D01*
X107432200Y-22485000D02*
X107432200Y-29560000D01*
X107432200Y-32440000D02*
X107432200Y-39515000D01*
X107472200Y-22500000D02*
X107472200Y-29560000D01*
X107472200Y-32440000D02*
X107472200Y-39500000D01*
X107512200Y-22515000D02*
X107512200Y-29560000D01*
X107512200Y-32440000D02*
X107512200Y-39485000D01*
X107552200Y-22530000D02*
X107552200Y-29560000D01*
X107552200Y-32440000D02*
X107552200Y-39470000D01*
X107592200Y-22546000D02*
X107592200Y-29560000D01*
X107592200Y-32440000D02*
X107592200Y-39454000D01*
X107632200Y-22562000D02*
X107632200Y-29560000D01*
X107632200Y-32440000D02*
X107632200Y-39438000D01*
X107672200Y-22577000D02*
X107672200Y-29560000D01*
X107672200Y-32440000D02*
X107672200Y-39423000D01*
X107712200Y-22594000D02*
X107712200Y-29560000D01*
X107712200Y-32440000D02*
X107712200Y-39406000D01*
X107752200Y-22610000D02*
X107752200Y-29560000D01*
X107752200Y-32440000D02*
X107752200Y-39390000D01*
X107792200Y-22627000D02*
X107792200Y-29560000D01*
X107792200Y-32440000D02*
X107792200Y-39373000D01*
X107832200Y-22644000D02*
X107832200Y-29560000D01*
X107832200Y-32440000D02*
X107832200Y-39356000D01*
X107872200Y-22661000D02*
X107872200Y-29560000D01*
X107872200Y-32440000D02*
X107872200Y-39339000D01*
X107912200Y-22678000D02*
X107912200Y-29560000D01*
X107912200Y-32440000D02*
X107912200Y-39322000D01*
X107952200Y-22695000D02*
X107952200Y-29560000D01*
X107952200Y-32440000D02*
X107952200Y-39305000D01*
X107992200Y-22713000D02*
X107992200Y-29560000D01*
X107992200Y-32440000D02*
X107992200Y-39287000D01*
X108032200Y-22731000D02*
X108032200Y-29560000D01*
X108032200Y-32440000D02*
X108032200Y-39269000D01*
X108072200Y-22749000D02*
X108072200Y-29560000D01*
X108072200Y-32440000D02*
X108072200Y-39251000D01*
X108112200Y-22768000D02*
X108112200Y-29560000D01*
X108112200Y-32440000D02*
X108112200Y-39232000D01*
X108152200Y-22787000D02*
X108152200Y-29560000D01*
X108152200Y-32440000D02*
X108152200Y-39213000D01*
X108192200Y-22805000D02*
X108192200Y-29560000D01*
X108192200Y-32440000D02*
X108192200Y-39195000D01*
X108232200Y-22825000D02*
X108232200Y-29560000D01*
X108232200Y-32440000D02*
X108232200Y-39175000D01*
X108272200Y-22844000D02*
X108272200Y-29560000D01*
X108272200Y-32440000D02*
X108272200Y-39156000D01*
X108312200Y-22864000D02*
X108312200Y-29560000D01*
X108312200Y-32440000D02*
X108312200Y-39136000D01*
X108352200Y-22884000D02*
X108352200Y-29560000D01*
X108352200Y-32440000D02*
X108352200Y-39116000D01*
X108392200Y-22904000D02*
X108392200Y-29560000D01*
X108392200Y-32440000D02*
X108392200Y-39096000D01*
X108432200Y-22924000D02*
X108432200Y-29560000D01*
X108432200Y-32440000D02*
X108432200Y-39076000D01*
X108472200Y-22945000D02*
X108472200Y-29560000D01*
X108472200Y-32440000D02*
X108472200Y-39055000D01*
X108512200Y-22966000D02*
X108512200Y-29560000D01*
X108512200Y-32440000D02*
X108512200Y-39034000D01*
X108552200Y-22987000D02*
X108552200Y-29560000D01*
X108552200Y-32440000D02*
X108552200Y-39013000D01*
X108592200Y-23008000D02*
X108592200Y-29560000D01*
X108592200Y-32440000D02*
X108592200Y-38992000D01*
X108632200Y-23030000D02*
X108632200Y-29560000D01*
X108632200Y-32440000D02*
X108632200Y-38970000D01*
X108672200Y-23052000D02*
X108672200Y-29560000D01*
X108672200Y-32440000D02*
X108672200Y-38948000D01*
X108712200Y-23074000D02*
X108712200Y-29560000D01*
X108712200Y-32440000D02*
X108712200Y-38926000D01*
X108752200Y-23096000D02*
X108752200Y-29560000D01*
X108752200Y-32440000D02*
X108752200Y-38904000D01*
X108792200Y-23119000D02*
X108792200Y-29560000D01*
X108792200Y-32440000D02*
X108792200Y-38881000D01*
X108832200Y-23142000D02*
X108832200Y-29560000D01*
X108832200Y-32440000D02*
X108832200Y-38858000D01*
X108872200Y-23165000D02*
X108872200Y-29560000D01*
X108872200Y-32440000D02*
X108872200Y-38835000D01*
X108912200Y-23189000D02*
X108912200Y-29560000D01*
X108912200Y-32440000D02*
X108912200Y-38811000D01*
X108952200Y-23212000D02*
X108952200Y-29560000D01*
X108952200Y-32440000D02*
X108952200Y-38788000D01*
X108992200Y-23236000D02*
X108992200Y-29560000D01*
X108992200Y-32440000D02*
X108992200Y-38764000D01*
X109032200Y-23261000D02*
X109032200Y-29560000D01*
X109032200Y-32440000D02*
X109032200Y-38739000D01*
X109072200Y-23285000D02*
X109072200Y-29560000D01*
X109072200Y-32440000D02*
X109072200Y-38715000D01*
X109112200Y-23310000D02*
X109112200Y-29560000D01*
X109112200Y-32440000D02*
X109112200Y-38690000D01*
X109152200Y-23335000D02*
X109152200Y-29560000D01*
X109152200Y-32440000D02*
X109152200Y-38665000D01*
X109192200Y-23361000D02*
X109192200Y-29560000D01*
X109192200Y-32440000D02*
X109192200Y-38639000D01*
X109232200Y-23387000D02*
X109232200Y-29560000D01*
X109232200Y-32440000D02*
X109232200Y-38613000D01*
X109272200Y-23413000D02*
X109272200Y-29560000D01*
X109272200Y-32440000D02*
X109272200Y-38587000D01*
X109312200Y-23439000D02*
X109312200Y-29560000D01*
X109312200Y-32440000D02*
X109312200Y-38561000D01*
X109352200Y-23466000D02*
X109352200Y-29560000D01*
X109352200Y-32440000D02*
X109352200Y-38534000D01*
X109392200Y-23493000D02*
X109392200Y-29560000D01*
X109392200Y-32440000D02*
X109392200Y-38507000D01*
X109432200Y-23520000D02*
X109432200Y-29560000D01*
X109432200Y-32440000D02*
X109432200Y-38480000D01*
X109472200Y-23548000D02*
X109472200Y-38452000D01*
X109512200Y-23576000D02*
X109512200Y-38424000D01*
X109552200Y-23604000D02*
X109552200Y-38396000D01*
X109592200Y-23632000D02*
X109592200Y-38368000D01*
X109632200Y-23661000D02*
X109632200Y-38339000D01*
X109672200Y-23691000D02*
X109672200Y-38309000D01*
X109712200Y-23720000D02*
X109712200Y-38280000D01*
X109752200Y-23750000D02*
X109752200Y-38250000D01*
X109792200Y-23780000D02*
X109792200Y-38220000D01*
X109832200Y-23811000D02*
X109832200Y-38189000D01*
X109872200Y-23842000D02*
X109872200Y-38158000D01*
X109912200Y-23873000D02*
X109912200Y-38127000D01*
X109952200Y-23905000D02*
X109952200Y-38095000D01*
X109992200Y-23937000D02*
X109992200Y-38063000D01*
X110032200Y-23969000D02*
X110032200Y-38031000D01*
X110072200Y-24002000D02*
X110072200Y-37998000D01*
X110112200Y-24035000D02*
X110112200Y-37965000D01*
X110152200Y-24069000D02*
X110152200Y-37931000D01*
X110192200Y-24103000D02*
X110192200Y-37897000D01*
X110232200Y-24137000D02*
X110232200Y-37863000D01*
X110272200Y-24172000D02*
X110272200Y-37828000D01*
X110312200Y-24207000D02*
X110312200Y-37793000D01*
X110352200Y-24242000D02*
X110352200Y-37758000D01*
X110392200Y-24278000D02*
X110392200Y-37722000D01*
X110432200Y-24315000D02*
X110432200Y-37685000D01*
X110472200Y-24352000D02*
X110472200Y-37648000D01*
X110512200Y-24389000D02*
X110512200Y-37611000D01*
X110552200Y-24427000D02*
X110552200Y-37573000D01*
X110592200Y-24465000D02*
X110592200Y-37535000D01*
X110632200Y-24504000D02*
X110632200Y-37496000D01*
X110672200Y-24543000D02*
X110672200Y-37457000D01*
X110712200Y-24582000D02*
X110712200Y-37418000D01*
X110752200Y-24623000D02*
X110752200Y-37377000D01*
X110792200Y-24663000D02*
X110792200Y-37337000D01*
X110832200Y-24704000D02*
X110832200Y-37296000D01*
X110872200Y-24746000D02*
X110872200Y-37254000D01*
X110912200Y-24788000D02*
X110912200Y-37212000D01*
X110952200Y-24831000D02*
X110952200Y-37169000D01*
X110992200Y-24874000D02*
X110992200Y-37126000D01*
X111032200Y-24918000D02*
X111032200Y-37082000D01*
X111072200Y-24963000D02*
X111072200Y-37037000D01*
X111112200Y-25008000D02*
X111112200Y-36992000D01*
X111152200Y-25053000D02*
X111152200Y-36947000D01*
X111192200Y-25100000D02*
X111192200Y-36900000D01*
X111232200Y-25147000D02*
X111232200Y-36853000D01*
X111272200Y-25194000D02*
X111272200Y-36806000D01*
X111312200Y-25242000D02*
X111312200Y-36758000D01*
X111352200Y-25291000D02*
X111352200Y-36709000D01*
X111392200Y-25341000D02*
X111392200Y-36659000D01*
X111432200Y-25391000D02*
X111432200Y-36609000D01*
X111472200Y-25442000D02*
X111472200Y-36558000D01*
X111512200Y-25494000D02*
X111512200Y-36506000D01*
X111552200Y-25547000D02*
X111552200Y-36453000D01*
X111592200Y-25600000D02*
X111592200Y-36400000D01*
X111632200Y-25654000D02*
X111632200Y-36346000D01*
X111672200Y-25709000D02*
X111672200Y-36291000D01*
X111712200Y-25765000D02*
X111712200Y-36235000D01*
X111752200Y-25822000D02*
X111752200Y-36178000D01*
X111792200Y-25880000D02*
X111792200Y-36120000D01*
X111832200Y-25939000D02*
X111832200Y-36061000D01*
X111872200Y-25999000D02*
X111872200Y-36001000D01*
X111912200Y-26060000D02*
X111912200Y-35940000D01*
X111952200Y-26121000D02*
X111952200Y-35879000D01*
X111992200Y-26184000D02*
X111992200Y-35816000D01*
X112032200Y-26249000D02*
X112032200Y-35751000D01*
X112072200Y-26314000D02*
X112072200Y-35686000D01*
X112112200Y-26381000D02*
X112112200Y-35619000D01*
X112152200Y-26449000D02*
X112152200Y-35551000D01*
X112192200Y-26518000D02*
X112192200Y-35482000D01*
X112232200Y-26589000D02*
X112232200Y-35411000D01*
X112272200Y-26661000D02*
X112272200Y-35339000D01*
X112312200Y-26735000D02*
X112312200Y-35265000D01*
X112352200Y-26811000D02*
X112352200Y-35189000D01*
X112392200Y-26888000D02*
X112392200Y-35112000D01*
X112432200Y-26967000D02*
X112432200Y-35033000D01*
X112472200Y-27048000D02*
X112472200Y-34952000D01*
X112512200Y-27131000D02*
X112512200Y-34869000D01*
X112552200Y-27217000D02*
X112552200Y-34783000D01*
X112592200Y-27305000D02*
X112592200Y-34695000D01*
X112632200Y-27395000D02*
X112632200Y-34605000D01*
X112672200Y-27488000D02*
X112672200Y-34512000D01*
X112712200Y-27584000D02*
X112712200Y-34416000D01*
X112752200Y-27684000D02*
X112752200Y-34316000D01*
X112792200Y-27787000D02*
X112792200Y-34213000D01*
X112832200Y-27893000D02*
X112832200Y-34107000D01*
X112872200Y-28004000D02*
X112872200Y-33996000D01*
X112912200Y-28120000D02*
X112912200Y-33880000D01*
X112952200Y-28241000D02*
X112952200Y-33759000D01*
X112992200Y-28369000D02*
X112992200Y-33631000D01*
X113032200Y-28503000D02*
X113032200Y-33497000D01*
X113072200Y-28645000D02*
X113072200Y-33355000D01*
X113112200Y-28798000D02*
X113112200Y-33202000D01*
X113152200Y-28962000D02*
X113152200Y-33038000D01*
X113192200Y-29141000D02*
X113192200Y-32859000D01*
X113232200Y-29339000D02*
X113232200Y-32661000D01*
X113272200Y-29565000D02*
X113272200Y-32435000D01*
X113312200Y-29835000D02*
X113312200Y-32165000D01*
X113352200Y-30187000D02*
X113352200Y-31813000D01*
X113392200Y-31040000D02*
X113392200Y-30960000D01*
X113392200Y-31000000D02*
G75*
G02*
X95152200Y-31000000I-9120000J0D01*
G01*
X95152200Y-31000000D02*
G75*
G02*
X113392200Y-31000000I9120000J0D01*
G01*
%TO.C,R5*%
X42730000Y-40630000D02*
X49270000Y-40630000D01*
X42730000Y-40960000D02*
X42730000Y-40630000D01*
X42730000Y-43040000D02*
X42730000Y-43370000D01*
X42730000Y-43370000D02*
X49270000Y-43370000D01*
X49270000Y-40630000D02*
X49270000Y-40960000D01*
X49270000Y-43370000D02*
X49270000Y-43040000D01*
%TO.C,DZ1*%
X83230000Y-70000000D02*
X83880000Y-70000000D01*
X84480000Y-68880000D02*
X84480000Y-71120000D01*
X84600000Y-68880000D02*
X84600000Y-71120000D01*
X84720000Y-68880000D02*
X84720000Y-71120000D01*
X88770000Y-70000000D02*
X88120000Y-70000000D01*
X83880000Y-68880000D02*
X88120000Y-68880000D01*
X88120000Y-71120000D01*
X83880000Y-71120000D01*
X83880000Y-68880000D01*
%TO.C,C1*%
X54512760Y-25885000D02*
X56312760Y-25885000D01*
X55412760Y-24985000D02*
X55412760Y-26785000D01*
X64272200Y-21920000D02*
X64272200Y-40080000D01*
X64312200Y-21920000D02*
X64312200Y-40080000D01*
X64352200Y-21920000D02*
X64352200Y-40080000D01*
X64392200Y-21921000D02*
X64392200Y-40079000D01*
X64432200Y-21921000D02*
X64432200Y-40079000D01*
X64472200Y-21922000D02*
X64472200Y-40078000D01*
X64512200Y-21923000D02*
X64512200Y-40077000D01*
X64552200Y-21924000D02*
X64552200Y-40076000D01*
X64592200Y-21926000D02*
X64592200Y-40074000D01*
X64632200Y-21927000D02*
X64632200Y-40073000D01*
X64672200Y-21929000D02*
X64672200Y-40071000D01*
X64712200Y-21931000D02*
X64712200Y-40069000D01*
X64752200Y-21933000D02*
X64752200Y-40067000D01*
X64792200Y-21935000D02*
X64792200Y-40065000D01*
X64832200Y-21937000D02*
X64832200Y-40063000D01*
X64872200Y-21940000D02*
X64872200Y-40060000D01*
X64912200Y-21942000D02*
X64912200Y-40058000D01*
X64952200Y-21945000D02*
X64952200Y-40055000D01*
X64992200Y-21948000D02*
X64992200Y-40052000D01*
X65032200Y-21952000D02*
X65032200Y-40048000D01*
X65072200Y-21955000D02*
X65072200Y-40045000D01*
X65112200Y-21959000D02*
X65112200Y-40041000D01*
X65152200Y-21963000D02*
X65152200Y-40037000D01*
X65192200Y-21967000D02*
X65192200Y-40033000D01*
X65232200Y-21971000D02*
X65232200Y-40029000D01*
X65272200Y-21975000D02*
X65272200Y-40025000D01*
X65312200Y-21979000D02*
X65312200Y-40021000D01*
X65352200Y-21984000D02*
X65352200Y-40016000D01*
X65392200Y-21989000D02*
X65392200Y-40011000D01*
X65432200Y-21994000D02*
X65432200Y-40006000D01*
X65472200Y-21999000D02*
X65472200Y-40001000D01*
X65512200Y-22005000D02*
X65512200Y-39995000D01*
X65552200Y-22010000D02*
X65552200Y-39990000D01*
X65592200Y-22016000D02*
X65592200Y-39984000D01*
X65632200Y-22022000D02*
X65632200Y-39978000D01*
X65672200Y-22028000D02*
X65672200Y-39972000D01*
X65712200Y-22034000D02*
X65712200Y-39966000D01*
X65752200Y-22041000D02*
X65752200Y-39959000D01*
X65792200Y-22048000D02*
X65792200Y-39952000D01*
X65832200Y-22054000D02*
X65832200Y-39946000D01*
X65872200Y-22061000D02*
X65872200Y-39939000D01*
X65912200Y-22069000D02*
X65912200Y-39931000D01*
X65952200Y-22076000D02*
X65952200Y-39924000D01*
X65992200Y-22084000D02*
X65992200Y-39916000D01*
X66032200Y-22091000D02*
X66032200Y-39909000D01*
X66072200Y-22099000D02*
X66072200Y-39901000D01*
X66112200Y-22108000D02*
X66112200Y-39892000D01*
X66152200Y-22116000D02*
X66152200Y-39884000D01*
X66192200Y-22124000D02*
X66192200Y-39876000D01*
X66232200Y-22133000D02*
X66232200Y-39867000D01*
X66272200Y-22142000D02*
X66272200Y-39858000D01*
X66312200Y-22151000D02*
X66312200Y-39849000D01*
X66352200Y-22160000D02*
X66352200Y-39840000D01*
X66392200Y-22170000D02*
X66392200Y-39830000D01*
X66432200Y-22179000D02*
X66432200Y-39821000D01*
X66472200Y-22189000D02*
X66472200Y-39811000D01*
X66512200Y-22199000D02*
X66512200Y-39801000D01*
X66552200Y-22210000D02*
X66552200Y-39790000D01*
X66592200Y-22220000D02*
X66592200Y-29560000D01*
X66592200Y-32440000D02*
X66592200Y-39780000D01*
X66632200Y-22231000D02*
X66632200Y-29560000D01*
X66632200Y-32440000D02*
X66632200Y-39769000D01*
X66672200Y-22241000D02*
X66672200Y-29560000D01*
X66672200Y-32440000D02*
X66672200Y-39759000D01*
X66712200Y-22252000D02*
X66712200Y-29560000D01*
X66712200Y-32440000D02*
X66712200Y-39748000D01*
X66752200Y-22264000D02*
X66752200Y-29560000D01*
X66752200Y-32440000D02*
X66752200Y-39736000D01*
X66792200Y-22275000D02*
X66792200Y-29560000D01*
X66792200Y-32440000D02*
X66792200Y-39725000D01*
X66832200Y-22287000D02*
X66832200Y-29560000D01*
X66832200Y-32440000D02*
X66832200Y-39713000D01*
X66872200Y-22298000D02*
X66872200Y-29560000D01*
X66872200Y-32440000D02*
X66872200Y-39702000D01*
X66912200Y-22310000D02*
X66912200Y-29560000D01*
X66912200Y-32440000D02*
X66912200Y-39690000D01*
X66952200Y-22323000D02*
X66952200Y-29560000D01*
X66952200Y-32440000D02*
X66952200Y-39677000D01*
X66992200Y-22335000D02*
X66992200Y-29560000D01*
X66992200Y-32440000D02*
X66992200Y-39665000D01*
X67032200Y-22348000D02*
X67032200Y-29560000D01*
X67032200Y-32440000D02*
X67032200Y-39652000D01*
X67072200Y-22360000D02*
X67072200Y-29560000D01*
X67072200Y-32440000D02*
X67072200Y-39640000D01*
X67112200Y-22373000D02*
X67112200Y-29560000D01*
X67112200Y-32440000D02*
X67112200Y-39627000D01*
X67152200Y-22387000D02*
X67152200Y-29560000D01*
X67152200Y-32440000D02*
X67152200Y-39613000D01*
X67192200Y-22400000D02*
X67192200Y-29560000D01*
X67192200Y-32440000D02*
X67192200Y-39600000D01*
X67232200Y-22414000D02*
X67232200Y-29560000D01*
X67232200Y-32440000D02*
X67232200Y-39586000D01*
X67272200Y-22428000D02*
X67272200Y-29560000D01*
X67272200Y-32440000D02*
X67272200Y-39572000D01*
X67312200Y-22442000D02*
X67312200Y-29560000D01*
X67312200Y-32440000D02*
X67312200Y-39558000D01*
X67352200Y-22456000D02*
X67352200Y-29560000D01*
X67352200Y-32440000D02*
X67352200Y-39544000D01*
X67392200Y-22470000D02*
X67392200Y-29560000D01*
X67392200Y-32440000D02*
X67392200Y-39530000D01*
X67432200Y-22485000D02*
X67432200Y-29560000D01*
X67432200Y-32440000D02*
X67432200Y-39515000D01*
X67472200Y-22500000D02*
X67472200Y-29560000D01*
X67472200Y-32440000D02*
X67472200Y-39500000D01*
X67512200Y-22515000D02*
X67512200Y-29560000D01*
X67512200Y-32440000D02*
X67512200Y-39485000D01*
X67552200Y-22530000D02*
X67552200Y-29560000D01*
X67552200Y-32440000D02*
X67552200Y-39470000D01*
X67592200Y-22546000D02*
X67592200Y-29560000D01*
X67592200Y-32440000D02*
X67592200Y-39454000D01*
X67632200Y-22562000D02*
X67632200Y-29560000D01*
X67632200Y-32440000D02*
X67632200Y-39438000D01*
X67672200Y-22577000D02*
X67672200Y-29560000D01*
X67672200Y-32440000D02*
X67672200Y-39423000D01*
X67712200Y-22594000D02*
X67712200Y-29560000D01*
X67712200Y-32440000D02*
X67712200Y-39406000D01*
X67752200Y-22610000D02*
X67752200Y-29560000D01*
X67752200Y-32440000D02*
X67752200Y-39390000D01*
X67792200Y-22627000D02*
X67792200Y-29560000D01*
X67792200Y-32440000D02*
X67792200Y-39373000D01*
X67832200Y-22644000D02*
X67832200Y-29560000D01*
X67832200Y-32440000D02*
X67832200Y-39356000D01*
X67872200Y-22661000D02*
X67872200Y-29560000D01*
X67872200Y-32440000D02*
X67872200Y-39339000D01*
X67912200Y-22678000D02*
X67912200Y-29560000D01*
X67912200Y-32440000D02*
X67912200Y-39322000D01*
X67952200Y-22695000D02*
X67952200Y-29560000D01*
X67952200Y-32440000D02*
X67952200Y-39305000D01*
X67992200Y-22713000D02*
X67992200Y-29560000D01*
X67992200Y-32440000D02*
X67992200Y-39287000D01*
X68032200Y-22731000D02*
X68032200Y-29560000D01*
X68032200Y-32440000D02*
X68032200Y-39269000D01*
X68072200Y-22749000D02*
X68072200Y-29560000D01*
X68072200Y-32440000D02*
X68072200Y-39251000D01*
X68112200Y-22768000D02*
X68112200Y-29560000D01*
X68112200Y-32440000D02*
X68112200Y-39232000D01*
X68152200Y-22787000D02*
X68152200Y-29560000D01*
X68152200Y-32440000D02*
X68152200Y-39213000D01*
X68192200Y-22805000D02*
X68192200Y-29560000D01*
X68192200Y-32440000D02*
X68192200Y-39195000D01*
X68232200Y-22825000D02*
X68232200Y-29560000D01*
X68232200Y-32440000D02*
X68232200Y-39175000D01*
X68272200Y-22844000D02*
X68272200Y-29560000D01*
X68272200Y-32440000D02*
X68272200Y-39156000D01*
X68312200Y-22864000D02*
X68312200Y-29560000D01*
X68312200Y-32440000D02*
X68312200Y-39136000D01*
X68352200Y-22884000D02*
X68352200Y-29560000D01*
X68352200Y-32440000D02*
X68352200Y-39116000D01*
X68392200Y-22904000D02*
X68392200Y-29560000D01*
X68392200Y-32440000D02*
X68392200Y-39096000D01*
X68432200Y-22924000D02*
X68432200Y-29560000D01*
X68432200Y-32440000D02*
X68432200Y-39076000D01*
X68472200Y-22945000D02*
X68472200Y-29560000D01*
X68472200Y-32440000D02*
X68472200Y-39055000D01*
X68512200Y-22966000D02*
X68512200Y-29560000D01*
X68512200Y-32440000D02*
X68512200Y-39034000D01*
X68552200Y-22987000D02*
X68552200Y-29560000D01*
X68552200Y-32440000D02*
X68552200Y-39013000D01*
X68592200Y-23008000D02*
X68592200Y-29560000D01*
X68592200Y-32440000D02*
X68592200Y-38992000D01*
X68632200Y-23030000D02*
X68632200Y-29560000D01*
X68632200Y-32440000D02*
X68632200Y-38970000D01*
X68672200Y-23052000D02*
X68672200Y-29560000D01*
X68672200Y-32440000D02*
X68672200Y-38948000D01*
X68712200Y-23074000D02*
X68712200Y-29560000D01*
X68712200Y-32440000D02*
X68712200Y-38926000D01*
X68752200Y-23096000D02*
X68752200Y-29560000D01*
X68752200Y-32440000D02*
X68752200Y-38904000D01*
X68792200Y-23119000D02*
X68792200Y-29560000D01*
X68792200Y-32440000D02*
X68792200Y-38881000D01*
X68832200Y-23142000D02*
X68832200Y-29560000D01*
X68832200Y-32440000D02*
X68832200Y-38858000D01*
X68872200Y-23165000D02*
X68872200Y-29560000D01*
X68872200Y-32440000D02*
X68872200Y-38835000D01*
X68912200Y-23189000D02*
X68912200Y-29560000D01*
X68912200Y-32440000D02*
X68912200Y-38811000D01*
X68952200Y-23212000D02*
X68952200Y-29560000D01*
X68952200Y-32440000D02*
X68952200Y-38788000D01*
X68992200Y-23236000D02*
X68992200Y-29560000D01*
X68992200Y-32440000D02*
X68992200Y-38764000D01*
X69032200Y-23261000D02*
X69032200Y-29560000D01*
X69032200Y-32440000D02*
X69032200Y-38739000D01*
X69072200Y-23285000D02*
X69072200Y-29560000D01*
X69072200Y-32440000D02*
X69072200Y-38715000D01*
X69112200Y-23310000D02*
X69112200Y-29560000D01*
X69112200Y-32440000D02*
X69112200Y-38690000D01*
X69152200Y-23335000D02*
X69152200Y-29560000D01*
X69152200Y-32440000D02*
X69152200Y-38665000D01*
X69192200Y-23361000D02*
X69192200Y-29560000D01*
X69192200Y-32440000D02*
X69192200Y-38639000D01*
X69232200Y-23387000D02*
X69232200Y-29560000D01*
X69232200Y-32440000D02*
X69232200Y-38613000D01*
X69272200Y-23413000D02*
X69272200Y-29560000D01*
X69272200Y-32440000D02*
X69272200Y-38587000D01*
X69312200Y-23439000D02*
X69312200Y-29560000D01*
X69312200Y-32440000D02*
X69312200Y-38561000D01*
X69352200Y-23466000D02*
X69352200Y-29560000D01*
X69352200Y-32440000D02*
X69352200Y-38534000D01*
X69392200Y-23493000D02*
X69392200Y-29560000D01*
X69392200Y-32440000D02*
X69392200Y-38507000D01*
X69432200Y-23520000D02*
X69432200Y-29560000D01*
X69432200Y-32440000D02*
X69432200Y-38480000D01*
X69472200Y-23548000D02*
X69472200Y-38452000D01*
X69512200Y-23576000D02*
X69512200Y-38424000D01*
X69552200Y-23604000D02*
X69552200Y-38396000D01*
X69592200Y-23632000D02*
X69592200Y-38368000D01*
X69632200Y-23661000D02*
X69632200Y-38339000D01*
X69672200Y-23691000D02*
X69672200Y-38309000D01*
X69712200Y-23720000D02*
X69712200Y-38280000D01*
X69752200Y-23750000D02*
X69752200Y-38250000D01*
X69792200Y-23780000D02*
X69792200Y-38220000D01*
X69832200Y-23811000D02*
X69832200Y-38189000D01*
X69872200Y-23842000D02*
X69872200Y-38158000D01*
X69912200Y-23873000D02*
X69912200Y-38127000D01*
X69952200Y-23905000D02*
X69952200Y-38095000D01*
X69992200Y-23937000D02*
X69992200Y-38063000D01*
X70032200Y-23969000D02*
X70032200Y-38031000D01*
X70072200Y-24002000D02*
X70072200Y-37998000D01*
X70112200Y-24035000D02*
X70112200Y-37965000D01*
X70152200Y-24069000D02*
X70152200Y-37931000D01*
X70192200Y-24103000D02*
X70192200Y-37897000D01*
X70232200Y-24137000D02*
X70232200Y-37863000D01*
X70272200Y-24172000D02*
X70272200Y-37828000D01*
X70312200Y-24207000D02*
X70312200Y-37793000D01*
X70352200Y-24242000D02*
X70352200Y-37758000D01*
X70392200Y-24278000D02*
X70392200Y-37722000D01*
X70432200Y-24315000D02*
X70432200Y-37685000D01*
X70472200Y-24352000D02*
X70472200Y-37648000D01*
X70512200Y-24389000D02*
X70512200Y-37611000D01*
X70552200Y-24427000D02*
X70552200Y-37573000D01*
X70592200Y-24465000D02*
X70592200Y-37535000D01*
X70632200Y-24504000D02*
X70632200Y-37496000D01*
X70672200Y-24543000D02*
X70672200Y-37457000D01*
X70712200Y-24582000D02*
X70712200Y-37418000D01*
X70752200Y-24623000D02*
X70752200Y-37377000D01*
X70792200Y-24663000D02*
X70792200Y-37337000D01*
X70832200Y-24704000D02*
X70832200Y-37296000D01*
X70872200Y-24746000D02*
X70872200Y-37254000D01*
X70912200Y-24788000D02*
X70912200Y-37212000D01*
X70952200Y-24831000D02*
X70952200Y-37169000D01*
X70992200Y-24874000D02*
X70992200Y-37126000D01*
X71032200Y-24918000D02*
X71032200Y-37082000D01*
X71072200Y-24963000D02*
X71072200Y-37037000D01*
X71112200Y-25008000D02*
X71112200Y-36992000D01*
X71152200Y-25053000D02*
X71152200Y-36947000D01*
X71192200Y-25100000D02*
X71192200Y-36900000D01*
X71232200Y-25147000D02*
X71232200Y-36853000D01*
X71272200Y-25194000D02*
X71272200Y-36806000D01*
X71312200Y-25242000D02*
X71312200Y-36758000D01*
X71352200Y-25291000D02*
X71352200Y-36709000D01*
X71392200Y-25341000D02*
X71392200Y-36659000D01*
X71432200Y-25391000D02*
X71432200Y-36609000D01*
X71472200Y-25442000D02*
X71472200Y-36558000D01*
X71512200Y-25494000D02*
X71512200Y-36506000D01*
X71552200Y-25547000D02*
X71552200Y-36453000D01*
X71592200Y-25600000D02*
X71592200Y-36400000D01*
X71632200Y-25654000D02*
X71632200Y-36346000D01*
X71672200Y-25709000D02*
X71672200Y-36291000D01*
X71712200Y-25765000D02*
X71712200Y-36235000D01*
X71752200Y-25822000D02*
X71752200Y-36178000D01*
X71792200Y-25880000D02*
X71792200Y-36120000D01*
X71832200Y-25939000D02*
X71832200Y-36061000D01*
X71872200Y-25999000D02*
X71872200Y-36001000D01*
X71912200Y-26060000D02*
X71912200Y-35940000D01*
X71952200Y-26121000D02*
X71952200Y-35879000D01*
X71992200Y-26184000D02*
X71992200Y-35816000D01*
X72032200Y-26249000D02*
X72032200Y-35751000D01*
X72072200Y-26314000D02*
X72072200Y-35686000D01*
X72112200Y-26381000D02*
X72112200Y-35619000D01*
X72152200Y-26449000D02*
X72152200Y-35551000D01*
X72192200Y-26518000D02*
X72192200Y-35482000D01*
X72232200Y-26589000D02*
X72232200Y-35411000D01*
X72272200Y-26661000D02*
X72272200Y-35339000D01*
X72312200Y-26735000D02*
X72312200Y-35265000D01*
X72352200Y-26811000D02*
X72352200Y-35189000D01*
X72392200Y-26888000D02*
X72392200Y-35112000D01*
X72432200Y-26967000D02*
X72432200Y-35033000D01*
X72472200Y-27048000D02*
X72472200Y-34952000D01*
X72512200Y-27131000D02*
X72512200Y-34869000D01*
X72552200Y-27217000D02*
X72552200Y-34783000D01*
X72592200Y-27305000D02*
X72592200Y-34695000D01*
X72632200Y-27395000D02*
X72632200Y-34605000D01*
X72672200Y-27488000D02*
X72672200Y-34512000D01*
X72712200Y-27584000D02*
X72712200Y-34416000D01*
X72752200Y-27684000D02*
X72752200Y-34316000D01*
X72792200Y-27787000D02*
X72792200Y-34213000D01*
X72832200Y-27893000D02*
X72832200Y-34107000D01*
X72872200Y-28004000D02*
X72872200Y-33996000D01*
X72912200Y-28120000D02*
X72912200Y-33880000D01*
X72952200Y-28241000D02*
X72952200Y-33759000D01*
X72992200Y-28369000D02*
X72992200Y-33631000D01*
X73032200Y-28503000D02*
X73032200Y-33497000D01*
X73072200Y-28645000D02*
X73072200Y-33355000D01*
X73112200Y-28798000D02*
X73112200Y-33202000D01*
X73152200Y-28962000D02*
X73152200Y-33038000D01*
X73192200Y-29141000D02*
X73192200Y-32859000D01*
X73232200Y-29339000D02*
X73232200Y-32661000D01*
X73272200Y-29565000D02*
X73272200Y-32435000D01*
X73312200Y-29835000D02*
X73312200Y-32165000D01*
X73352200Y-30187000D02*
X73352200Y-31813000D01*
X73392200Y-31040000D02*
X73392200Y-30960000D01*
X73392200Y-31000000D02*
G75*
G02*
X55152200Y-31000000I-9120000J0D01*
G01*
X55152200Y-31000000D02*
G75*
G02*
X73392200Y-31000000I9120000J0D01*
G01*
%TO.C,J3*%
X143620000Y-58080000D02*
X145000000Y-58080000D01*
X143620000Y-59460000D02*
X143620000Y-58080000D01*
X143620000Y-60730000D02*
X143620000Y-65920000D01*
X143620000Y-60730000D02*
X146380000Y-60730000D01*
X143620000Y-65920000D02*
X146380000Y-65920000D01*
X146380000Y-60730000D02*
X146380000Y-65920000D01*
%TO.C,R6*%
X52730000Y-40630000D02*
X52730000Y-40960000D01*
X52730000Y-43370000D02*
X52730000Y-43040000D01*
X59270000Y-40630000D02*
X52730000Y-40630000D01*
X59270000Y-40960000D02*
X59270000Y-40630000D01*
X59270000Y-43040000D02*
X59270000Y-43370000D01*
X59270000Y-43370000D02*
X52730000Y-43370000D01*
%TO.C,Q1*%
X114890000Y-41690000D02*
X125110000Y-41690000D01*
X114890000Y-43070000D02*
X125110000Y-43070000D01*
X114890000Y-46310000D02*
X114890000Y-41690000D01*
X118150000Y-41690000D02*
X118150000Y-43070000D01*
X121850000Y-41690000D02*
X121850000Y-43070000D01*
X125110000Y-41690000D02*
X125110000Y-46310000D01*
X125110000Y-46310000D02*
X114890000Y-46310000D01*
%TO.C,C2*%
X74512760Y-25885000D02*
X76312760Y-25885000D01*
X75412760Y-24985000D02*
X75412760Y-26785000D01*
X84272200Y-21920000D02*
X84272200Y-40080000D01*
X84312200Y-21920000D02*
X84312200Y-40080000D01*
X84352200Y-21920000D02*
X84352200Y-40080000D01*
X84392200Y-21921000D02*
X84392200Y-40079000D01*
X84432200Y-21921000D02*
X84432200Y-40079000D01*
X84472200Y-21922000D02*
X84472200Y-40078000D01*
X84512200Y-21923000D02*
X84512200Y-40077000D01*
X84552200Y-21924000D02*
X84552200Y-40076000D01*
X84592200Y-21926000D02*
X84592200Y-40074000D01*
X84632200Y-21927000D02*
X84632200Y-40073000D01*
X84672200Y-21929000D02*
X84672200Y-40071000D01*
X84712200Y-21931000D02*
X84712200Y-40069000D01*
X84752200Y-21933000D02*
X84752200Y-40067000D01*
X84792200Y-21935000D02*
X84792200Y-40065000D01*
X84832200Y-21937000D02*
X84832200Y-40063000D01*
X84872200Y-21940000D02*
X84872200Y-40060000D01*
X84912200Y-21942000D02*
X84912200Y-40058000D01*
X84952200Y-21945000D02*
X84952200Y-40055000D01*
X84992200Y-21948000D02*
X84992200Y-40052000D01*
X85032200Y-21952000D02*
X85032200Y-40048000D01*
X85072200Y-21955000D02*
X85072200Y-40045000D01*
X85112200Y-21959000D02*
X85112200Y-40041000D01*
X85152200Y-21963000D02*
X85152200Y-40037000D01*
X85192200Y-21967000D02*
X85192200Y-40033000D01*
X85232200Y-21971000D02*
X85232200Y-40029000D01*
X85272200Y-21975000D02*
X85272200Y-40025000D01*
X85312200Y-21979000D02*
X85312200Y-40021000D01*
X85352200Y-21984000D02*
X85352200Y-40016000D01*
X85392200Y-21989000D02*
X85392200Y-40011000D01*
X85432200Y-21994000D02*
X85432200Y-40006000D01*
X85472200Y-21999000D02*
X85472200Y-40001000D01*
X85512200Y-22005000D02*
X85512200Y-39995000D01*
X85552200Y-22010000D02*
X85552200Y-39990000D01*
X85592200Y-22016000D02*
X85592200Y-39984000D01*
X85632200Y-22022000D02*
X85632200Y-39978000D01*
X85672200Y-22028000D02*
X85672200Y-39972000D01*
X85712200Y-22034000D02*
X85712200Y-39966000D01*
X85752200Y-22041000D02*
X85752200Y-39959000D01*
X85792200Y-22048000D02*
X85792200Y-39952000D01*
X85832200Y-22054000D02*
X85832200Y-39946000D01*
X85872200Y-22061000D02*
X85872200Y-39939000D01*
X85912200Y-22069000D02*
X85912200Y-39931000D01*
X85952200Y-22076000D02*
X85952200Y-39924000D01*
X85992200Y-22084000D02*
X85992200Y-39916000D01*
X86032200Y-22091000D02*
X86032200Y-39909000D01*
X86072200Y-22099000D02*
X86072200Y-39901000D01*
X86112200Y-22108000D02*
X86112200Y-39892000D01*
X86152200Y-22116000D02*
X86152200Y-39884000D01*
X86192200Y-22124000D02*
X86192200Y-39876000D01*
X86232200Y-22133000D02*
X86232200Y-39867000D01*
X86272200Y-22142000D02*
X86272200Y-39858000D01*
X86312200Y-22151000D02*
X86312200Y-39849000D01*
X86352200Y-22160000D02*
X86352200Y-39840000D01*
X86392200Y-22170000D02*
X86392200Y-39830000D01*
X86432200Y-22179000D02*
X86432200Y-39821000D01*
X86472200Y-22189000D02*
X86472200Y-39811000D01*
X86512200Y-22199000D02*
X86512200Y-39801000D01*
X86552200Y-22210000D02*
X86552200Y-39790000D01*
X86592200Y-22220000D02*
X86592200Y-29560000D01*
X86592200Y-32440000D02*
X86592200Y-39780000D01*
X86632200Y-22231000D02*
X86632200Y-29560000D01*
X86632200Y-32440000D02*
X86632200Y-39769000D01*
X86672200Y-22241000D02*
X86672200Y-29560000D01*
X86672200Y-32440000D02*
X86672200Y-39759000D01*
X86712200Y-22252000D02*
X86712200Y-29560000D01*
X86712200Y-32440000D02*
X86712200Y-39748000D01*
X86752200Y-22264000D02*
X86752200Y-29560000D01*
X86752200Y-32440000D02*
X86752200Y-39736000D01*
X86792200Y-22275000D02*
X86792200Y-29560000D01*
X86792200Y-32440000D02*
X86792200Y-39725000D01*
X86832200Y-22287000D02*
X86832200Y-29560000D01*
X86832200Y-32440000D02*
X86832200Y-39713000D01*
X86872200Y-22298000D02*
X86872200Y-29560000D01*
X86872200Y-32440000D02*
X86872200Y-39702000D01*
X86912200Y-22310000D02*
X86912200Y-29560000D01*
X86912200Y-32440000D02*
X86912200Y-39690000D01*
X86952200Y-22323000D02*
X86952200Y-29560000D01*
X86952200Y-32440000D02*
X86952200Y-39677000D01*
X86992200Y-22335000D02*
X86992200Y-29560000D01*
X86992200Y-32440000D02*
X86992200Y-39665000D01*
X87032200Y-22348000D02*
X87032200Y-29560000D01*
X87032200Y-32440000D02*
X87032200Y-39652000D01*
X87072200Y-22360000D02*
X87072200Y-29560000D01*
X87072200Y-32440000D02*
X87072200Y-39640000D01*
X87112200Y-22373000D02*
X87112200Y-29560000D01*
X87112200Y-32440000D02*
X87112200Y-39627000D01*
X87152200Y-22387000D02*
X87152200Y-29560000D01*
X87152200Y-32440000D02*
X87152200Y-39613000D01*
X87192200Y-22400000D02*
X87192200Y-29560000D01*
X87192200Y-32440000D02*
X87192200Y-39600000D01*
X87232200Y-22414000D02*
X87232200Y-29560000D01*
X87232200Y-32440000D02*
X87232200Y-39586000D01*
X87272200Y-22428000D02*
X87272200Y-29560000D01*
X87272200Y-32440000D02*
X87272200Y-39572000D01*
X87312200Y-22442000D02*
X87312200Y-29560000D01*
X87312200Y-32440000D02*
X87312200Y-39558000D01*
X87352200Y-22456000D02*
X87352200Y-29560000D01*
X87352200Y-32440000D02*
X87352200Y-39544000D01*
X87392200Y-22470000D02*
X87392200Y-29560000D01*
X87392200Y-32440000D02*
X87392200Y-39530000D01*
X87432200Y-22485000D02*
X87432200Y-29560000D01*
X87432200Y-32440000D02*
X87432200Y-39515000D01*
X87472200Y-22500000D02*
X87472200Y-29560000D01*
X87472200Y-32440000D02*
X87472200Y-39500000D01*
X87512200Y-22515000D02*
X87512200Y-29560000D01*
X87512200Y-32440000D02*
X87512200Y-39485000D01*
X87552200Y-22530000D02*
X87552200Y-29560000D01*
X87552200Y-32440000D02*
X87552200Y-39470000D01*
X87592200Y-22546000D02*
X87592200Y-29560000D01*
X87592200Y-32440000D02*
X87592200Y-39454000D01*
X87632200Y-22562000D02*
X87632200Y-29560000D01*
X87632200Y-32440000D02*
X87632200Y-39438000D01*
X87672200Y-22577000D02*
X87672200Y-29560000D01*
X87672200Y-32440000D02*
X87672200Y-39423000D01*
X87712200Y-22594000D02*
X87712200Y-29560000D01*
X87712200Y-32440000D02*
X87712200Y-39406000D01*
X87752200Y-22610000D02*
X87752200Y-29560000D01*
X87752200Y-32440000D02*
X87752200Y-39390000D01*
X87792200Y-22627000D02*
X87792200Y-29560000D01*
X87792200Y-32440000D02*
X87792200Y-39373000D01*
X87832200Y-22644000D02*
X87832200Y-29560000D01*
X87832200Y-32440000D02*
X87832200Y-39356000D01*
X87872200Y-22661000D02*
X87872200Y-29560000D01*
X87872200Y-32440000D02*
X87872200Y-39339000D01*
X87912200Y-22678000D02*
X87912200Y-29560000D01*
X87912200Y-32440000D02*
X87912200Y-39322000D01*
X87952200Y-22695000D02*
X87952200Y-29560000D01*
X87952200Y-32440000D02*
X87952200Y-39305000D01*
X87992200Y-22713000D02*
X87992200Y-29560000D01*
X87992200Y-32440000D02*
X87992200Y-39287000D01*
X88032200Y-22731000D02*
X88032200Y-29560000D01*
X88032200Y-32440000D02*
X88032200Y-39269000D01*
X88072200Y-22749000D02*
X88072200Y-29560000D01*
X88072200Y-32440000D02*
X88072200Y-39251000D01*
X88112200Y-22768000D02*
X88112200Y-29560000D01*
X88112200Y-32440000D02*
X88112200Y-39232000D01*
X88152200Y-22787000D02*
X88152200Y-29560000D01*
X88152200Y-32440000D02*
X88152200Y-39213000D01*
X88192200Y-22805000D02*
X88192200Y-29560000D01*
X88192200Y-32440000D02*
X88192200Y-39195000D01*
X88232200Y-22825000D02*
X88232200Y-29560000D01*
X88232200Y-32440000D02*
X88232200Y-39175000D01*
X88272200Y-22844000D02*
X88272200Y-29560000D01*
X88272200Y-32440000D02*
X88272200Y-39156000D01*
X88312200Y-22864000D02*
X88312200Y-29560000D01*
X88312200Y-32440000D02*
X88312200Y-39136000D01*
X88352200Y-22884000D02*
X88352200Y-29560000D01*
X88352200Y-32440000D02*
X88352200Y-39116000D01*
X88392200Y-22904000D02*
X88392200Y-29560000D01*
X88392200Y-32440000D02*
X88392200Y-39096000D01*
X88432200Y-22924000D02*
X88432200Y-29560000D01*
X88432200Y-32440000D02*
X88432200Y-39076000D01*
X88472200Y-22945000D02*
X88472200Y-29560000D01*
X88472200Y-32440000D02*
X88472200Y-39055000D01*
X88512200Y-22966000D02*
X88512200Y-29560000D01*
X88512200Y-32440000D02*
X88512200Y-39034000D01*
X88552200Y-22987000D02*
X88552200Y-29560000D01*
X88552200Y-32440000D02*
X88552200Y-39013000D01*
X88592200Y-23008000D02*
X88592200Y-29560000D01*
X88592200Y-32440000D02*
X88592200Y-38992000D01*
X88632200Y-23030000D02*
X88632200Y-29560000D01*
X88632200Y-32440000D02*
X88632200Y-38970000D01*
X88672200Y-23052000D02*
X88672200Y-29560000D01*
X88672200Y-32440000D02*
X88672200Y-38948000D01*
X88712200Y-23074000D02*
X88712200Y-29560000D01*
X88712200Y-32440000D02*
X88712200Y-38926000D01*
X88752200Y-23096000D02*
X88752200Y-29560000D01*
X88752200Y-32440000D02*
X88752200Y-38904000D01*
X88792200Y-23119000D02*
X88792200Y-29560000D01*
X88792200Y-32440000D02*
X88792200Y-38881000D01*
X88832200Y-23142000D02*
X88832200Y-29560000D01*
X88832200Y-32440000D02*
X88832200Y-38858000D01*
X88872200Y-23165000D02*
X88872200Y-29560000D01*
X88872200Y-32440000D02*
X88872200Y-38835000D01*
X88912200Y-23189000D02*
X88912200Y-29560000D01*
X88912200Y-32440000D02*
X88912200Y-38811000D01*
X88952200Y-23212000D02*
X88952200Y-29560000D01*
X88952200Y-32440000D02*
X88952200Y-38788000D01*
X88992200Y-23236000D02*
X88992200Y-29560000D01*
X88992200Y-32440000D02*
X88992200Y-38764000D01*
X89032200Y-23261000D02*
X89032200Y-29560000D01*
X89032200Y-32440000D02*
X89032200Y-38739000D01*
X89072200Y-23285000D02*
X89072200Y-29560000D01*
X89072200Y-32440000D02*
X89072200Y-38715000D01*
X89112200Y-23310000D02*
X89112200Y-29560000D01*
X89112200Y-32440000D02*
X89112200Y-38690000D01*
X89152200Y-23335000D02*
X89152200Y-29560000D01*
X89152200Y-32440000D02*
X89152200Y-38665000D01*
X89192200Y-23361000D02*
X89192200Y-29560000D01*
X89192200Y-32440000D02*
X89192200Y-38639000D01*
X89232200Y-23387000D02*
X89232200Y-29560000D01*
X89232200Y-32440000D02*
X89232200Y-38613000D01*
X89272200Y-23413000D02*
X89272200Y-29560000D01*
X89272200Y-32440000D02*
X89272200Y-38587000D01*
X89312200Y-23439000D02*
X89312200Y-29560000D01*
X89312200Y-32440000D02*
X89312200Y-38561000D01*
X89352200Y-23466000D02*
X89352200Y-29560000D01*
X89352200Y-32440000D02*
X89352200Y-38534000D01*
X89392200Y-23493000D02*
X89392200Y-29560000D01*
X89392200Y-32440000D02*
X89392200Y-38507000D01*
X89432200Y-23520000D02*
X89432200Y-29560000D01*
X89432200Y-32440000D02*
X89432200Y-38480000D01*
X89472200Y-23548000D02*
X89472200Y-38452000D01*
X89512200Y-23576000D02*
X89512200Y-38424000D01*
X89552200Y-23604000D02*
X89552200Y-38396000D01*
X89592200Y-23632000D02*
X89592200Y-38368000D01*
X89632200Y-23661000D02*
X89632200Y-38339000D01*
X89672200Y-23691000D02*
X89672200Y-38309000D01*
X89712200Y-23720000D02*
X89712200Y-38280000D01*
X89752200Y-23750000D02*
X89752200Y-38250000D01*
X89792200Y-23780000D02*
X89792200Y-38220000D01*
X89832200Y-23811000D02*
X89832200Y-38189000D01*
X89872200Y-23842000D02*
X89872200Y-38158000D01*
X89912200Y-23873000D02*
X89912200Y-38127000D01*
X89952200Y-23905000D02*
X89952200Y-38095000D01*
X89992200Y-23937000D02*
X89992200Y-38063000D01*
X90032200Y-23969000D02*
X90032200Y-38031000D01*
X90072200Y-24002000D02*
X90072200Y-37998000D01*
X90112200Y-24035000D02*
X90112200Y-37965000D01*
X90152200Y-24069000D02*
X90152200Y-37931000D01*
X90192200Y-24103000D02*
X90192200Y-37897000D01*
X90232200Y-24137000D02*
X90232200Y-37863000D01*
X90272200Y-24172000D02*
X90272200Y-37828000D01*
X90312200Y-24207000D02*
X90312200Y-37793000D01*
X90352200Y-24242000D02*
X90352200Y-37758000D01*
X90392200Y-24278000D02*
X90392200Y-37722000D01*
X90432200Y-24315000D02*
X90432200Y-37685000D01*
X90472200Y-24352000D02*
X90472200Y-37648000D01*
X90512200Y-24389000D02*
X90512200Y-37611000D01*
X90552200Y-24427000D02*
X90552200Y-37573000D01*
X90592200Y-24465000D02*
X90592200Y-37535000D01*
X90632200Y-24504000D02*
X90632200Y-37496000D01*
X90672200Y-24543000D02*
X90672200Y-37457000D01*
X90712200Y-24582000D02*
X90712200Y-37418000D01*
X90752200Y-24623000D02*
X90752200Y-37377000D01*
X90792200Y-24663000D02*
X90792200Y-37337000D01*
X90832200Y-24704000D02*
X90832200Y-37296000D01*
X90872200Y-24746000D02*
X90872200Y-37254000D01*
X90912200Y-24788000D02*
X90912200Y-37212000D01*
X90952200Y-24831000D02*
X90952200Y-37169000D01*
X90992200Y-24874000D02*
X90992200Y-37126000D01*
X91032200Y-24918000D02*
X91032200Y-37082000D01*
X91072200Y-24963000D02*
X91072200Y-37037000D01*
X91112200Y-25008000D02*
X91112200Y-36992000D01*
X91152200Y-25053000D02*
X91152200Y-36947000D01*
X91192200Y-25100000D02*
X91192200Y-36900000D01*
X91232200Y-25147000D02*
X91232200Y-36853000D01*
X91272200Y-25194000D02*
X91272200Y-36806000D01*
X91312200Y-25242000D02*
X91312200Y-36758000D01*
X91352200Y-25291000D02*
X91352200Y-36709000D01*
X91392200Y-25341000D02*
X91392200Y-36659000D01*
X91432200Y-25391000D02*
X91432200Y-36609000D01*
X91472200Y-25442000D02*
X91472200Y-36558000D01*
X91512200Y-25494000D02*
X91512200Y-36506000D01*
X91552200Y-25547000D02*
X91552200Y-36453000D01*
X91592200Y-25600000D02*
X91592200Y-36400000D01*
X91632200Y-25654000D02*
X91632200Y-36346000D01*
X91672200Y-25709000D02*
X91672200Y-36291000D01*
X91712200Y-25765000D02*
X91712200Y-36235000D01*
X91752200Y-25822000D02*
X91752200Y-36178000D01*
X91792200Y-25880000D02*
X91792200Y-36120000D01*
X91832200Y-25939000D02*
X91832200Y-36061000D01*
X91872200Y-25999000D02*
X91872200Y-36001000D01*
X91912200Y-26060000D02*
X91912200Y-35940000D01*
X91952200Y-26121000D02*
X91952200Y-35879000D01*
X91992200Y-26184000D02*
X91992200Y-35816000D01*
X92032200Y-26249000D02*
X92032200Y-35751000D01*
X92072200Y-26314000D02*
X92072200Y-35686000D01*
X92112200Y-26381000D02*
X92112200Y-35619000D01*
X92152200Y-26449000D02*
X92152200Y-35551000D01*
X92192200Y-26518000D02*
X92192200Y-35482000D01*
X92232200Y-26589000D02*
X92232200Y-35411000D01*
X92272200Y-26661000D02*
X92272200Y-35339000D01*
X92312200Y-26735000D02*
X92312200Y-35265000D01*
X92352200Y-26811000D02*
X92352200Y-35189000D01*
X92392200Y-26888000D02*
X92392200Y-35112000D01*
X92432200Y-26967000D02*
X92432200Y-35033000D01*
X92472200Y-27048000D02*
X92472200Y-34952000D01*
X92512200Y-27131000D02*
X92512200Y-34869000D01*
X92552200Y-27217000D02*
X92552200Y-34783000D01*
X92592200Y-27305000D02*
X92592200Y-34695000D01*
X92632200Y-27395000D02*
X92632200Y-34605000D01*
X92672200Y-27488000D02*
X92672200Y-34512000D01*
X92712200Y-27584000D02*
X92712200Y-34416000D01*
X92752200Y-27684000D02*
X92752200Y-34316000D01*
X92792200Y-27787000D02*
X92792200Y-34213000D01*
X92832200Y-27893000D02*
X92832200Y-34107000D01*
X92872200Y-28004000D02*
X92872200Y-33996000D01*
X92912200Y-28120000D02*
X92912200Y-33880000D01*
X92952200Y-28241000D02*
X92952200Y-33759000D01*
X92992200Y-28369000D02*
X92992200Y-33631000D01*
X93032200Y-28503000D02*
X93032200Y-33497000D01*
X93072200Y-28645000D02*
X93072200Y-33355000D01*
X93112200Y-28798000D02*
X93112200Y-33202000D01*
X93152200Y-28962000D02*
X93152200Y-33038000D01*
X93192200Y-29141000D02*
X93192200Y-32859000D01*
X93232200Y-29339000D02*
X93232200Y-32661000D01*
X93272200Y-29565000D02*
X93272200Y-32435000D01*
X93312200Y-29835000D02*
X93312200Y-32165000D01*
X93352200Y-30187000D02*
X93352200Y-31813000D01*
X93392200Y-31040000D02*
X93392200Y-30960000D01*
X93392200Y-31000000D02*
G75*
G02*
X75152200Y-31000000I-9120000J0D01*
G01*
X75152200Y-31000000D02*
G75*
G02*
X93392200Y-31000000I9120000J0D01*
G01*
%TO.C,D1*%
X46260000Y-24000000D02*
X47280000Y-24000000D01*
X48060000Y-22530000D02*
X48060000Y-25470000D01*
X48180000Y-22530000D02*
X48180000Y-25470000D01*
X48300000Y-22530000D02*
X48300000Y-25470000D01*
X53740000Y-24000000D02*
X52720000Y-24000000D01*
X47280000Y-22530000D02*
X52720000Y-22530000D01*
X52720000Y-25470000D01*
X47280000Y-25470000D01*
X47280000Y-22530000D01*
%TO.C,U1*%
X77750000Y-52860000D02*
X77750000Y-63140000D01*
X77750000Y-63140000D02*
X82250000Y-63140000D01*
X79000000Y-52860000D02*
X77750000Y-52860000D01*
X82250000Y-52860000D02*
X81000000Y-52860000D01*
X82250000Y-63140000D02*
X82250000Y-52860000D01*
X81000000Y-52860000D02*
G75*
G02*
X79000000Y-52860000I-1000000J0D01*
G01*
%TO.C,R1*%
X46730000Y-68630000D02*
X53270000Y-68630000D01*
X46730000Y-68960000D02*
X46730000Y-68630000D01*
X46730000Y-71040000D02*
X46730000Y-71370000D01*
X46730000Y-71370000D02*
X53270000Y-71370000D01*
X53270000Y-68630000D02*
X53270000Y-68960000D01*
X53270000Y-71370000D02*
X53270000Y-71040000D01*
%TO.C,R8*%
X60730000Y-54630000D02*
X67270000Y-54630000D01*
X60730000Y-54960000D02*
X60730000Y-54630000D01*
X60730000Y-57040000D02*
X60730000Y-57370000D01*
X60730000Y-57370000D02*
X67270000Y-57370000D01*
X67270000Y-54630000D02*
X67270000Y-54960000D01*
X67270000Y-57370000D02*
X67270000Y-57040000D01*
%TO.C,R4*%
X102730000Y-50630000D02*
X109270000Y-50630000D01*
X102730000Y-50960000D02*
X102730000Y-50630000D01*
X102730000Y-53040000D02*
X102730000Y-53370000D01*
X102730000Y-53370000D02*
X109270000Y-53370000D01*
X109270000Y-50630000D02*
X109270000Y-50960000D01*
X109270000Y-53370000D02*
X109270000Y-53040000D01*
%TO.C,R3*%
X70730000Y-68630000D02*
X77270000Y-68630000D01*
X70730000Y-68960000D02*
X70730000Y-68630000D01*
X70730000Y-71040000D02*
X70730000Y-71370000D01*
X70730000Y-71370000D02*
X77270000Y-71370000D01*
X77270000Y-68630000D02*
X77270000Y-68960000D01*
X77270000Y-71370000D02*
X77270000Y-71040000D01*
%TO.C,C5*%
X128687602Y-41685000D02*
X129487602Y-41685000D01*
X129087602Y-41285000D02*
X129087602Y-42085000D01*
X133097300Y-39920000D02*
X133097300Y-48080000D01*
X133137300Y-39920000D02*
X133137300Y-48080000D01*
X133177300Y-39921000D02*
X133177300Y-48079000D01*
X133217300Y-39922000D02*
X133217300Y-48078000D01*
X133257300Y-39923000D02*
X133257300Y-48077000D01*
X133297300Y-39925000D02*
X133297300Y-48075000D01*
X133337300Y-39927000D02*
X133337300Y-48073000D01*
X133377300Y-39930000D02*
X133377300Y-48070000D01*
X133417300Y-39932000D02*
X133417300Y-48068000D01*
X133457300Y-39936000D02*
X133457300Y-48064000D01*
X133497300Y-39939000D02*
X133497300Y-48061000D01*
X133537300Y-39944000D02*
X133537300Y-48056000D01*
X133577300Y-39948000D02*
X133577300Y-48052000D01*
X133617300Y-39953000D02*
X133617300Y-48047000D01*
X133657300Y-39958000D02*
X133657300Y-48042000D01*
X133697300Y-39964000D02*
X133697300Y-48036000D01*
X133737300Y-39970000D02*
X133737300Y-48030000D01*
X133777300Y-39977000D02*
X133777300Y-48023000D01*
X133817300Y-39983000D02*
X133817300Y-42960000D01*
X133817300Y-45040000D02*
X133817300Y-48017000D01*
X133857300Y-39991000D02*
X133857300Y-42960000D01*
X133857300Y-45040000D02*
X133857300Y-48009000D01*
X133897300Y-39998000D02*
X133897300Y-42960000D01*
X133897300Y-45040000D02*
X133897300Y-48002000D01*
X133937300Y-40007000D02*
X133937300Y-42960000D01*
X133937300Y-45040000D02*
X133937300Y-47993000D01*
X133977300Y-40015000D02*
X133977300Y-42960000D01*
X133977300Y-45040000D02*
X133977300Y-47985000D01*
X134017300Y-40024000D02*
X134017300Y-42960000D01*
X134017300Y-45040000D02*
X134017300Y-47976000D01*
X134057300Y-40033000D02*
X134057300Y-42960000D01*
X134057300Y-45040000D02*
X134057300Y-47967000D01*
X134097300Y-40043000D02*
X134097300Y-42960000D01*
X134097300Y-45040000D02*
X134097300Y-47957000D01*
X134137300Y-40053000D02*
X134137300Y-42960000D01*
X134137300Y-45040000D02*
X134137300Y-47947000D01*
X134177300Y-40064000D02*
X134177300Y-42960000D01*
X134177300Y-45040000D02*
X134177300Y-47936000D01*
X134217300Y-40075000D02*
X134217300Y-42960000D01*
X134217300Y-45040000D02*
X134217300Y-47925000D01*
X134257300Y-40087000D02*
X134257300Y-42960000D01*
X134257300Y-45040000D02*
X134257300Y-47913000D01*
X134297300Y-40099000D02*
X134297300Y-42960000D01*
X134297300Y-45040000D02*
X134297300Y-47901000D01*
X134337300Y-40111000D02*
X134337300Y-42960000D01*
X134337300Y-45040000D02*
X134337300Y-47889000D01*
X134377300Y-40124000D02*
X134377300Y-42960000D01*
X134377300Y-45040000D02*
X134377300Y-47876000D01*
X134417300Y-40137000D02*
X134417300Y-42960000D01*
X134417300Y-45040000D02*
X134417300Y-47863000D01*
X134457300Y-40151000D02*
X134457300Y-42960000D01*
X134457300Y-45040000D02*
X134457300Y-47849000D01*
X134497300Y-40165000D02*
X134497300Y-42960000D01*
X134497300Y-45040000D02*
X134497300Y-47835000D01*
X134537300Y-40180000D02*
X134537300Y-42960000D01*
X134537300Y-45040000D02*
X134537300Y-47820000D01*
X134577300Y-40195000D02*
X134577300Y-42960000D01*
X134577300Y-45040000D02*
X134577300Y-47805000D01*
X134617300Y-40211000D02*
X134617300Y-42960000D01*
X134617300Y-45040000D02*
X134617300Y-47789000D01*
X134657300Y-40227000D02*
X134657300Y-42960000D01*
X134657300Y-45040000D02*
X134657300Y-47773000D01*
X134697300Y-40243000D02*
X134697300Y-42960000D01*
X134697300Y-45040000D02*
X134697300Y-47757000D01*
X134737300Y-40260000D02*
X134737300Y-42960000D01*
X134737300Y-45040000D02*
X134737300Y-47740000D01*
X134777300Y-40278000D02*
X134777300Y-42960000D01*
X134777300Y-45040000D02*
X134777300Y-47722000D01*
X134817300Y-40296000D02*
X134817300Y-42960000D01*
X134817300Y-45040000D02*
X134817300Y-47704000D01*
X134857300Y-40315000D02*
X134857300Y-42960000D01*
X134857300Y-45040000D02*
X134857300Y-47685000D01*
X134897300Y-40334000D02*
X134897300Y-42960000D01*
X134897300Y-45040000D02*
X134897300Y-47666000D01*
X134937300Y-40354000D02*
X134937300Y-42960000D01*
X134937300Y-45040000D02*
X134937300Y-47646000D01*
X134977300Y-40374000D02*
X134977300Y-42960000D01*
X134977300Y-45040000D02*
X134977300Y-47626000D01*
X135017300Y-40395000D02*
X135017300Y-42960000D01*
X135017300Y-45040000D02*
X135017300Y-47605000D01*
X135057300Y-40416000D02*
X135057300Y-42960000D01*
X135057300Y-45040000D02*
X135057300Y-47584000D01*
X135097300Y-40438000D02*
X135097300Y-42960000D01*
X135097300Y-45040000D02*
X135097300Y-47562000D01*
X135137300Y-40461000D02*
X135137300Y-42960000D01*
X135137300Y-45040000D02*
X135137300Y-47539000D01*
X135177300Y-40484000D02*
X135177300Y-42960000D01*
X135177300Y-45040000D02*
X135177300Y-47516000D01*
X135217300Y-40507000D02*
X135217300Y-42960000D01*
X135217300Y-45040000D02*
X135217300Y-47493000D01*
X135257300Y-40532000D02*
X135257300Y-42960000D01*
X135257300Y-45040000D02*
X135257300Y-47468000D01*
X135297300Y-40557000D02*
X135297300Y-42960000D01*
X135297300Y-45040000D02*
X135297300Y-47443000D01*
X135337300Y-40582000D02*
X135337300Y-42960000D01*
X135337300Y-45040000D02*
X135337300Y-47418000D01*
X135377300Y-40608000D02*
X135377300Y-42960000D01*
X135377300Y-45040000D02*
X135377300Y-47392000D01*
X135417300Y-40635000D02*
X135417300Y-42960000D01*
X135417300Y-45040000D02*
X135417300Y-47365000D01*
X135457300Y-40663000D02*
X135457300Y-42960000D01*
X135457300Y-45040000D02*
X135457300Y-47337000D01*
X135497300Y-40691000D02*
X135497300Y-42960000D01*
X135497300Y-45040000D02*
X135497300Y-47309000D01*
X135537300Y-40720000D02*
X135537300Y-42960000D01*
X135537300Y-45040000D02*
X135537300Y-47280000D01*
X135577300Y-40750000D02*
X135577300Y-42960000D01*
X135577300Y-45040000D02*
X135577300Y-47250000D01*
X135617300Y-40781000D02*
X135617300Y-42960000D01*
X135617300Y-45040000D02*
X135617300Y-47219000D01*
X135657300Y-40812000D02*
X135657300Y-42960000D01*
X135657300Y-45040000D02*
X135657300Y-47188000D01*
X135697300Y-40844000D02*
X135697300Y-42960000D01*
X135697300Y-45040000D02*
X135697300Y-47156000D01*
X135737300Y-40877000D02*
X135737300Y-42960000D01*
X135737300Y-45040000D02*
X135737300Y-47123000D01*
X135777300Y-40911000D02*
X135777300Y-42960000D01*
X135777300Y-45040000D02*
X135777300Y-47089000D01*
X135817300Y-40945000D02*
X135817300Y-42960000D01*
X135817300Y-45040000D02*
X135817300Y-47055000D01*
X135857300Y-40981000D02*
X135857300Y-42960000D01*
X135857300Y-45040000D02*
X135857300Y-47019000D01*
X135897300Y-41018000D02*
X135897300Y-46982000D01*
X135937300Y-41055000D02*
X135937300Y-46945000D01*
X135977300Y-41094000D02*
X135977300Y-46906000D01*
X136017300Y-41133000D02*
X136017300Y-46867000D01*
X136057300Y-41174000D02*
X136057300Y-46826000D01*
X136097300Y-41216000D02*
X136097300Y-46784000D01*
X136137300Y-41259000D02*
X136137300Y-46741000D01*
X136177300Y-41304000D02*
X136177300Y-46696000D01*
X136217300Y-41349000D02*
X136217300Y-46651000D01*
X136257300Y-41396000D02*
X136257300Y-46604000D01*
X136297300Y-41445000D02*
X136297300Y-46555000D01*
X136337300Y-41495000D02*
X136337300Y-46505000D01*
X136377300Y-41547000D02*
X136377300Y-46453000D01*
X136417300Y-41600000D02*
X136417300Y-46400000D01*
X136457300Y-41656000D02*
X136457300Y-46344000D01*
X136497300Y-41713000D02*
X136497300Y-46287000D01*
X136537300Y-41773000D02*
X136537300Y-46227000D01*
X136577300Y-41835000D02*
X136577300Y-46165000D01*
X136617300Y-41899000D02*
X136617300Y-46101000D01*
X136657300Y-41966000D02*
X136657300Y-46034000D01*
X136697300Y-42036000D02*
X136697300Y-45964000D01*
X136737300Y-42110000D02*
X136737300Y-45890000D01*
X136777300Y-42187000D02*
X136777300Y-45813000D01*
X136817300Y-42269000D02*
X136817300Y-45731000D01*
X136857300Y-42356000D02*
X136857300Y-45644000D01*
X136897300Y-42448000D02*
X136897300Y-45552000D01*
X136937300Y-42547000D02*
X136937300Y-45453000D01*
X136977300Y-42654000D02*
X136977300Y-45346000D01*
X137017300Y-42772000D02*
X137017300Y-45228000D01*
X137057300Y-42903000D02*
X137057300Y-45097000D01*
X137097300Y-43053000D02*
X137097300Y-44947000D01*
X137137300Y-43232000D02*
X137137300Y-44768000D01*
X137177300Y-43467000D02*
X137177300Y-44533000D01*
X137217300Y-44000000D02*
G75*
G02*
X128977300Y-44000000I-4120000J0D01*
G01*
X128977300Y-44000000D02*
G75*
G02*
X137217300Y-44000000I4120000J0D01*
G01*
%TO.C,J1*%
X29920000Y-24190000D02*
X29920000Y-31810000D01*
X29920000Y-25460000D02*
X40080000Y-25460000D01*
X29920000Y-31810000D02*
X40080000Y-31810000D01*
X40080000Y-24190000D02*
X29920000Y-24190000D01*
X40080000Y-31810000D02*
X40080000Y-24190000D01*
%TO.C,R2*%
X58730000Y-68630000D02*
X65270000Y-68630000D01*
X58730000Y-68960000D02*
X58730000Y-68630000D01*
X58730000Y-71040000D02*
X58730000Y-71370000D01*
X58730000Y-71370000D02*
X65270000Y-71370000D01*
X65270000Y-68630000D02*
X65270000Y-68960000D01*
X65270000Y-71370000D02*
X65270000Y-71040000D01*
%TO.C,R7*%
X46730000Y-54630000D02*
X53270000Y-54630000D01*
X46730000Y-54960000D02*
X46730000Y-54630000D01*
X46730000Y-57040000D02*
X46730000Y-57370000D01*
X46730000Y-57370000D02*
X53270000Y-57370000D01*
X53270000Y-54630000D02*
X53270000Y-54960000D01*
X53270000Y-57370000D02*
X53270000Y-57040000D01*
%TD*%
M02*
