%TF.GenerationSoftware,KiCad,Pcbnew,9.0.4*%
%TF.CreationDate,2026-06-10T15:27:55+02:00*%
%TF.ProjectId,mppt,6d707074-2e6b-4696-9361-645f70636258,rev?*%
%TF.SameCoordinates,Original*%
%TF.FileFunction,Legend,Top*%
%TF.FilePolarity,Positive*%
%FSLAX46Y46*%
G04 Gerber Fmt 4.6, Leading zero omitted, Abs format (unit mm)*
G04 Created by KiCad (PCBNEW 9.0.4) date 2026-06-10 15:27:55*
%MOMM*%
%LPD*%
G01*
G04 APERTURE LIST*
%ADD10C,0.150000*%
%ADD11C,0.120000*%
G04 APERTURE END LIST*
D10*
X70105533Y-23109580D02*
X70057914Y-23157200D01*
X70057914Y-23157200D02*
X69915057Y-23204819D01*
X69915057Y-23204819D02*
X69819819Y-23204819D01*
X69819819Y-23204819D02*
X69676962Y-23157200D01*
X69676962Y-23157200D02*
X69581724Y-23061961D01*
X69581724Y-23061961D02*
X69534105Y-22966723D01*
X69534105Y-22966723D02*
X69486486Y-22776247D01*
X69486486Y-22776247D02*
X69486486Y-22633390D01*
X69486486Y-22633390D02*
X69534105Y-22442914D01*
X69534105Y-22442914D02*
X69581724Y-22347676D01*
X69581724Y-22347676D02*
X69676962Y-22252438D01*
X69676962Y-22252438D02*
X69819819Y-22204819D01*
X69819819Y-22204819D02*
X69915057Y-22204819D01*
X69915057Y-22204819D02*
X70057914Y-22252438D01*
X70057914Y-22252438D02*
X70105533Y-22300057D01*
X71057914Y-23204819D02*
X70486486Y-23204819D01*
X70772200Y-23204819D02*
X70772200Y-22204819D01*
X70772200Y-22204819D02*
X70676962Y-22347676D01*
X70676962Y-22347676D02*
X70581724Y-22442914D01*
X70581724Y-22442914D02*
X70486486Y-22490533D01*
X55904761Y-73400057D02*
X55809523Y-73352438D01*
X55809523Y-73352438D02*
X55714285Y-73257200D01*
X55714285Y-73257200D02*
X55571428Y-73114342D01*
X55571428Y-73114342D02*
X55476190Y-73066723D01*
X55476190Y-73066723D02*
X55380952Y-73066723D01*
X55428571Y-73304819D02*
X55333333Y-73257200D01*
X55333333Y-73257200D02*
X55238095Y-73161961D01*
X55238095Y-73161961D02*
X55190476Y-72971485D01*
X55190476Y-72971485D02*
X55190476Y-72638152D01*
X55190476Y-72638152D02*
X55238095Y-72447676D01*
X55238095Y-72447676D02*
X55333333Y-72352438D01*
X55333333Y-72352438D02*
X55428571Y-72304819D01*
X55428571Y-72304819D02*
X55619047Y-72304819D01*
X55619047Y-72304819D02*
X55714285Y-72352438D01*
X55714285Y-72352438D02*
X55809523Y-72447676D01*
X55809523Y-72447676D02*
X55857142Y-72638152D01*
X55857142Y-72638152D02*
X55857142Y-72971485D01*
X55857142Y-72971485D02*
X55809523Y-73161961D01*
X55809523Y-73161961D02*
X55714285Y-73257200D01*
X55714285Y-73257200D02*
X55619047Y-73304819D01*
X55619047Y-73304819D02*
X55428571Y-73304819D01*
X56809523Y-73304819D02*
X56238095Y-73304819D01*
X56523809Y-73304819D02*
X56523809Y-72304819D01*
X56523809Y-72304819D02*
X56428571Y-72447676D01*
X56428571Y-72447676D02*
X56333333Y-72542914D01*
X56333333Y-72542914D02*
X56238095Y-72590533D01*
X37833333Y-57824819D02*
X37500000Y-57348628D01*
X37261905Y-57824819D02*
X37261905Y-56824819D01*
X37261905Y-56824819D02*
X37642857Y-56824819D01*
X37642857Y-56824819D02*
X37738095Y-56872438D01*
X37738095Y-56872438D02*
X37785714Y-56920057D01*
X37785714Y-56920057D02*
X37833333Y-57015295D01*
X37833333Y-57015295D02*
X37833333Y-57158152D01*
X37833333Y-57158152D02*
X37785714Y-57253390D01*
X37785714Y-57253390D02*
X37738095Y-57301009D01*
X37738095Y-57301009D02*
X37642857Y-57348628D01*
X37642857Y-57348628D02*
X37261905Y-57348628D01*
X38690476Y-56824819D02*
X38500000Y-56824819D01*
X38500000Y-56824819D02*
X38404762Y-56872438D01*
X38404762Y-56872438D02*
X38357143Y-56920057D01*
X38357143Y-56920057D02*
X38261905Y-57062914D01*
X38261905Y-57062914D02*
X38214286Y-57253390D01*
X38214286Y-57253390D02*
X38214286Y-57634342D01*
X38214286Y-57634342D02*
X38261905Y-57729580D01*
X38261905Y-57729580D02*
X38309524Y-57777200D01*
X38309524Y-57777200D02*
X38404762Y-57824819D01*
X38404762Y-57824819D02*
X38595238Y-57824819D01*
X38595238Y-57824819D02*
X38690476Y-57777200D01*
X38690476Y-57777200D02*
X38738095Y-57729580D01*
X38738095Y-57729580D02*
X38785714Y-57634342D01*
X38785714Y-57634342D02*
X38785714Y-57396247D01*
X38785714Y-57396247D02*
X38738095Y-57301009D01*
X38738095Y-57301009D02*
X38690476Y-57253390D01*
X38690476Y-57253390D02*
X38595238Y-57205771D01*
X38595238Y-57205771D02*
X38404762Y-57205771D01*
X38404762Y-57205771D02*
X38309524Y-57253390D01*
X38309524Y-57253390D02*
X38261905Y-57301009D01*
X38261905Y-57301009D02*
X38214286Y-57396247D01*
X108666666Y-72534819D02*
X108666666Y-73249104D01*
X108666666Y-73249104D02*
X108619047Y-73391961D01*
X108619047Y-73391961D02*
X108523809Y-73487200D01*
X108523809Y-73487200D02*
X108380952Y-73534819D01*
X108380952Y-73534819D02*
X108285714Y-73534819D01*
X109047619Y-72534819D02*
X109666666Y-72534819D01*
X109666666Y-72534819D02*
X109333333Y-72915771D01*
X109333333Y-72915771D02*
X109476190Y-72915771D01*
X109476190Y-72915771D02*
X109571428Y-72963390D01*
X109571428Y-72963390D02*
X109619047Y-73011009D01*
X109619047Y-73011009D02*
X109666666Y-73106247D01*
X109666666Y-73106247D02*
X109666666Y-73344342D01*
X109666666Y-73344342D02*
X109619047Y-73439580D01*
X109619047Y-73439580D02*
X109571428Y-73487200D01*
X109571428Y-73487200D02*
X109476190Y-73534819D01*
X109476190Y-73534819D02*
X109190476Y-73534819D01*
X109190476Y-73534819D02*
X109095238Y-73487200D01*
X109095238Y-73487200D02*
X109047619Y-73439580D01*
X51833333Y-48084819D02*
X51500000Y-47608628D01*
X51261905Y-48084819D02*
X51261905Y-47084819D01*
X51261905Y-47084819D02*
X51642857Y-47084819D01*
X51642857Y-47084819D02*
X51738095Y-47132438D01*
X51738095Y-47132438D02*
X51785714Y-47180057D01*
X51785714Y-47180057D02*
X51833333Y-47275295D01*
X51833333Y-47275295D02*
X51833333Y-47418152D01*
X51833333Y-47418152D02*
X51785714Y-47513390D01*
X51785714Y-47513390D02*
X51738095Y-47561009D01*
X51738095Y-47561009D02*
X51642857Y-47608628D01*
X51642857Y-47608628D02*
X51261905Y-47608628D01*
X52166667Y-47084819D02*
X52833333Y-47084819D01*
X52833333Y-47084819D02*
X52404762Y-48084819D01*
X34666666Y-34534819D02*
X34666666Y-35249104D01*
X34666666Y-35249104D02*
X34619047Y-35391961D01*
X34619047Y-35391961D02*
X34523809Y-35487200D01*
X34523809Y-35487200D02*
X34380952Y-35534819D01*
X34380952Y-35534819D02*
X34285714Y-35534819D01*
X35666666Y-35534819D02*
X35095238Y-35534819D01*
X35380952Y-35534819D02*
X35380952Y-34534819D01*
X35380952Y-34534819D02*
X35285714Y-34677676D01*
X35285714Y-34677676D02*
X35190476Y-34772914D01*
X35190476Y-34772914D02*
X35095238Y-34820533D01*
X63833333Y-48084819D02*
X63500000Y-47608628D01*
X63261905Y-48084819D02*
X63261905Y-47084819D01*
X63261905Y-47084819D02*
X63642857Y-47084819D01*
X63642857Y-47084819D02*
X63738095Y-47132438D01*
X63738095Y-47132438D02*
X63785714Y-47180057D01*
X63785714Y-47180057D02*
X63833333Y-47275295D01*
X63833333Y-47275295D02*
X63833333Y-47418152D01*
X63833333Y-47418152D02*
X63785714Y-47513390D01*
X63785714Y-47513390D02*
X63738095Y-47561009D01*
X63738095Y-47561009D02*
X63642857Y-47608628D01*
X63642857Y-47608628D02*
X63261905Y-47608628D01*
X64404762Y-47513390D02*
X64309524Y-47465771D01*
X64309524Y-47465771D02*
X64261905Y-47418152D01*
X64261905Y-47418152D02*
X64214286Y-47322914D01*
X64214286Y-47322914D02*
X64214286Y-47275295D01*
X64214286Y-47275295D02*
X64261905Y-47180057D01*
X64261905Y-47180057D02*
X64309524Y-47132438D01*
X64309524Y-47132438D02*
X64404762Y-47084819D01*
X64404762Y-47084819D02*
X64595238Y-47084819D01*
X64595238Y-47084819D02*
X64690476Y-47132438D01*
X64690476Y-47132438D02*
X64738095Y-47180057D01*
X64738095Y-47180057D02*
X64785714Y-47275295D01*
X64785714Y-47275295D02*
X64785714Y-47322914D01*
X64785714Y-47322914D02*
X64738095Y-47418152D01*
X64738095Y-47418152D02*
X64690476Y-47465771D01*
X64690476Y-47465771D02*
X64595238Y-47513390D01*
X64595238Y-47513390D02*
X64404762Y-47513390D01*
X64404762Y-47513390D02*
X64309524Y-47561009D01*
X64309524Y-47561009D02*
X64261905Y-47608628D01*
X64261905Y-47608628D02*
X64214286Y-47703866D01*
X64214286Y-47703866D02*
X64214286Y-47894342D01*
X64214286Y-47894342D02*
X64261905Y-47989580D01*
X64261905Y-47989580D02*
X64309524Y-48037200D01*
X64309524Y-48037200D02*
X64404762Y-48084819D01*
X64404762Y-48084819D02*
X64595238Y-48084819D01*
X64595238Y-48084819D02*
X64690476Y-48037200D01*
X64690476Y-48037200D02*
X64738095Y-47989580D01*
X64738095Y-47989580D02*
X64785714Y-47894342D01*
X64785714Y-47894342D02*
X64785714Y-47703866D01*
X64785714Y-47703866D02*
X64738095Y-47608628D01*
X64738095Y-47608628D02*
X64690476Y-47561009D01*
X64690476Y-47561009D02*
X64595238Y-47513390D01*
X108666666Y-52374819D02*
X108666666Y-53089104D01*
X108666666Y-53089104D02*
X108619047Y-53231961D01*
X108619047Y-53231961D02*
X108523809Y-53327200D01*
X108523809Y-53327200D02*
X108380952Y-53374819D01*
X108380952Y-53374819D02*
X108285714Y-53374819D01*
X109095238Y-52470057D02*
X109142857Y-52422438D01*
X109142857Y-52422438D02*
X109238095Y-52374819D01*
X109238095Y-52374819D02*
X109476190Y-52374819D01*
X109476190Y-52374819D02*
X109571428Y-52422438D01*
X109571428Y-52422438D02*
X109619047Y-52470057D01*
X109619047Y-52470057D02*
X109666666Y-52565295D01*
X109666666Y-52565295D02*
X109666666Y-52660533D01*
X109666666Y-52660533D02*
X109619047Y-52803390D01*
X109619047Y-52803390D02*
X109047619Y-53374819D01*
X109047619Y-53374819D02*
X109666666Y-53374819D01*
X51261905Y-23984819D02*
X51261905Y-22984819D01*
X51261905Y-22984819D02*
X51500000Y-22984819D01*
X51500000Y-22984819D02*
X51642857Y-23032438D01*
X51642857Y-23032438D02*
X51738095Y-23127676D01*
X51738095Y-23127676D02*
X51785714Y-23222914D01*
X51785714Y-23222914D02*
X51833333Y-23413390D01*
X51833333Y-23413390D02*
X51833333Y-23556247D01*
X51833333Y-23556247D02*
X51785714Y-23746723D01*
X51785714Y-23746723D02*
X51738095Y-23841961D01*
X51738095Y-23841961D02*
X51642857Y-23937200D01*
X51642857Y-23937200D02*
X51500000Y-23984819D01*
X51500000Y-23984819D02*
X51261905Y-23984819D01*
X52785714Y-23984819D02*
X52214286Y-23984819D01*
X52500000Y-23984819D02*
X52500000Y-22984819D01*
X52500000Y-22984819D02*
X52404762Y-23127676D01*
X52404762Y-23127676D02*
X52309524Y-23222914D01*
X52309524Y-23222914D02*
X52214286Y-23270533D01*
X46658095Y-24354819D02*
X46658095Y-23354819D01*
X47229523Y-24354819D02*
X46800952Y-23783390D01*
X47229523Y-23354819D02*
X46658095Y-23926247D01*
X90105533Y-23109580D02*
X90057914Y-23157200D01*
X90057914Y-23157200D02*
X89915057Y-23204819D01*
X89915057Y-23204819D02*
X89819819Y-23204819D01*
X89819819Y-23204819D02*
X89676962Y-23157200D01*
X89676962Y-23157200D02*
X89581724Y-23061961D01*
X89581724Y-23061961D02*
X89534105Y-22966723D01*
X89534105Y-22966723D02*
X89486486Y-22776247D01*
X89486486Y-22776247D02*
X89486486Y-22633390D01*
X89486486Y-22633390D02*
X89534105Y-22442914D01*
X89534105Y-22442914D02*
X89581724Y-22347676D01*
X89581724Y-22347676D02*
X89676962Y-22252438D01*
X89676962Y-22252438D02*
X89819819Y-22204819D01*
X89819819Y-22204819D02*
X89915057Y-22204819D01*
X89915057Y-22204819D02*
X90057914Y-22252438D01*
X90057914Y-22252438D02*
X90105533Y-22300057D01*
X90486486Y-22300057D02*
X90534105Y-22252438D01*
X90534105Y-22252438D02*
X90629343Y-22204819D01*
X90629343Y-22204819D02*
X90867438Y-22204819D01*
X90867438Y-22204819D02*
X90962676Y-22252438D01*
X90962676Y-22252438D02*
X91010295Y-22300057D01*
X91010295Y-22300057D02*
X91057914Y-22395295D01*
X91057914Y-22395295D02*
X91057914Y-22490533D01*
X91057914Y-22490533D02*
X91010295Y-22633390D01*
X91010295Y-22633390D02*
X90438867Y-23204819D01*
X90438867Y-23204819D02*
X91057914Y-23204819D01*
X37833333Y-76084819D02*
X37500000Y-75608628D01*
X37261905Y-76084819D02*
X37261905Y-75084819D01*
X37261905Y-75084819D02*
X37642857Y-75084819D01*
X37642857Y-75084819D02*
X37738095Y-75132438D01*
X37738095Y-75132438D02*
X37785714Y-75180057D01*
X37785714Y-75180057D02*
X37833333Y-75275295D01*
X37833333Y-75275295D02*
X37833333Y-75418152D01*
X37833333Y-75418152D02*
X37785714Y-75513390D01*
X37785714Y-75513390D02*
X37738095Y-75561009D01*
X37738095Y-75561009D02*
X37642857Y-75608628D01*
X37642857Y-75608628D02*
X37261905Y-75608628D01*
X38690476Y-75418152D02*
X38690476Y-76084819D01*
X38452381Y-75037200D02*
X38214286Y-75751485D01*
X38214286Y-75751485D02*
X38833333Y-75751485D01*
X69930633Y-73109580D02*
X69883014Y-73157200D01*
X69883014Y-73157200D02*
X69740157Y-73204819D01*
X69740157Y-73204819D02*
X69644919Y-73204819D01*
X69644919Y-73204819D02*
X69502062Y-73157200D01*
X69502062Y-73157200D02*
X69406824Y-73061961D01*
X69406824Y-73061961D02*
X69359205Y-72966723D01*
X69359205Y-72966723D02*
X69311586Y-72776247D01*
X69311586Y-72776247D02*
X69311586Y-72633390D01*
X69311586Y-72633390D02*
X69359205Y-72442914D01*
X69359205Y-72442914D02*
X69406824Y-72347676D01*
X69406824Y-72347676D02*
X69502062Y-72252438D01*
X69502062Y-72252438D02*
X69644919Y-72204819D01*
X69644919Y-72204819D02*
X69740157Y-72204819D01*
X69740157Y-72204819D02*
X69883014Y-72252438D01*
X69883014Y-72252438D02*
X69930633Y-72300057D01*
X70835395Y-72204819D02*
X70359205Y-72204819D01*
X70359205Y-72204819D02*
X70311586Y-72681009D01*
X70311586Y-72681009D02*
X70359205Y-72633390D01*
X70359205Y-72633390D02*
X70454443Y-72585771D01*
X70454443Y-72585771D02*
X70692538Y-72585771D01*
X70692538Y-72585771D02*
X70787776Y-72633390D01*
X70787776Y-72633390D02*
X70835395Y-72681009D01*
X70835395Y-72681009D02*
X70883014Y-72776247D01*
X70883014Y-72776247D02*
X70883014Y-73014342D01*
X70883014Y-73014342D02*
X70835395Y-73109580D01*
X70835395Y-73109580D02*
X70787776Y-73157200D01*
X70787776Y-73157200D02*
X70692538Y-73204819D01*
X70692538Y-73204819D02*
X70454443Y-73204819D01*
X70454443Y-73204819D02*
X70359205Y-73157200D01*
X70359205Y-73157200D02*
X70311586Y-73109580D01*
X37833333Y-45084819D02*
X37500000Y-44608628D01*
X37261905Y-45084819D02*
X37261905Y-44084819D01*
X37261905Y-44084819D02*
X37642857Y-44084819D01*
X37642857Y-44084819D02*
X37738095Y-44132438D01*
X37738095Y-44132438D02*
X37785714Y-44180057D01*
X37785714Y-44180057D02*
X37833333Y-44275295D01*
X37833333Y-44275295D02*
X37833333Y-44418152D01*
X37833333Y-44418152D02*
X37785714Y-44513390D01*
X37785714Y-44513390D02*
X37738095Y-44561009D01*
X37738095Y-44561009D02*
X37642857Y-44608628D01*
X37642857Y-44608628D02*
X37261905Y-44608628D01*
X38738095Y-44084819D02*
X38261905Y-44084819D01*
X38261905Y-44084819D02*
X38214286Y-44561009D01*
X38214286Y-44561009D02*
X38261905Y-44513390D01*
X38261905Y-44513390D02*
X38357143Y-44465771D01*
X38357143Y-44465771D02*
X38595238Y-44465771D01*
X38595238Y-44465771D02*
X38690476Y-44513390D01*
X38690476Y-44513390D02*
X38738095Y-44561009D01*
X38738095Y-44561009D02*
X38785714Y-44656247D01*
X38785714Y-44656247D02*
X38785714Y-44894342D01*
X38785714Y-44894342D02*
X38738095Y-44989580D01*
X38738095Y-44989580D02*
X38690476Y-45037200D01*
X38690476Y-45037200D02*
X38595238Y-45084819D01*
X38595238Y-45084819D02*
X38357143Y-45084819D01*
X38357143Y-45084819D02*
X38261905Y-45037200D01*
X38261905Y-45037200D02*
X38214286Y-44989580D01*
X110105533Y-23109580D02*
X110057914Y-23157200D01*
X110057914Y-23157200D02*
X109915057Y-23204819D01*
X109915057Y-23204819D02*
X109819819Y-23204819D01*
X109819819Y-23204819D02*
X109676962Y-23157200D01*
X109676962Y-23157200D02*
X109581724Y-23061961D01*
X109581724Y-23061961D02*
X109534105Y-22966723D01*
X109534105Y-22966723D02*
X109486486Y-22776247D01*
X109486486Y-22776247D02*
X109486486Y-22633390D01*
X109486486Y-22633390D02*
X109534105Y-22442914D01*
X109534105Y-22442914D02*
X109581724Y-22347676D01*
X109581724Y-22347676D02*
X109676962Y-22252438D01*
X109676962Y-22252438D02*
X109819819Y-22204819D01*
X109819819Y-22204819D02*
X109915057Y-22204819D01*
X109915057Y-22204819D02*
X110057914Y-22252438D01*
X110057914Y-22252438D02*
X110105533Y-22300057D01*
X110438867Y-22204819D02*
X111057914Y-22204819D01*
X111057914Y-22204819D02*
X110724581Y-22585771D01*
X110724581Y-22585771D02*
X110867438Y-22585771D01*
X110867438Y-22585771D02*
X110962676Y-22633390D01*
X110962676Y-22633390D02*
X111010295Y-22681009D01*
X111010295Y-22681009D02*
X111057914Y-22776247D01*
X111057914Y-22776247D02*
X111057914Y-23014342D01*
X111057914Y-23014342D02*
X111010295Y-23109580D01*
X111010295Y-23109580D02*
X110962676Y-23157200D01*
X110962676Y-23157200D02*
X110867438Y-23204819D01*
X110867438Y-23204819D02*
X110581724Y-23204819D01*
X110581724Y-23204819D02*
X110486486Y-23157200D01*
X110486486Y-23157200D02*
X110438867Y-23109580D01*
X89833333Y-45859580D02*
X89785714Y-45907200D01*
X89785714Y-45907200D02*
X89642857Y-45954819D01*
X89642857Y-45954819D02*
X89547619Y-45954819D01*
X89547619Y-45954819D02*
X89404762Y-45907200D01*
X89404762Y-45907200D02*
X89309524Y-45811961D01*
X89309524Y-45811961D02*
X89261905Y-45716723D01*
X89261905Y-45716723D02*
X89214286Y-45526247D01*
X89214286Y-45526247D02*
X89214286Y-45383390D01*
X89214286Y-45383390D02*
X89261905Y-45192914D01*
X89261905Y-45192914D02*
X89309524Y-45097676D01*
X89309524Y-45097676D02*
X89404762Y-45002438D01*
X89404762Y-45002438D02*
X89547619Y-44954819D01*
X89547619Y-44954819D02*
X89642857Y-44954819D01*
X89642857Y-44954819D02*
X89785714Y-45002438D01*
X89785714Y-45002438D02*
X89833333Y-45050057D01*
X90690476Y-45288152D02*
X90690476Y-45954819D01*
X90452381Y-44907200D02*
X90214286Y-45621485D01*
X90214286Y-45621485D02*
X90833333Y-45621485D01*
X77238095Y-45314819D02*
X77238095Y-46124342D01*
X77238095Y-46124342D02*
X77285714Y-46219580D01*
X77285714Y-46219580D02*
X77333333Y-46267200D01*
X77333333Y-46267200D02*
X77428571Y-46314819D01*
X77428571Y-46314819D02*
X77619047Y-46314819D01*
X77619047Y-46314819D02*
X77714285Y-46267200D01*
X77714285Y-46267200D02*
X77761904Y-46219580D01*
X77761904Y-46219580D02*
X77809523Y-46124342D01*
X77809523Y-46124342D02*
X77809523Y-45314819D01*
X78809523Y-46314819D02*
X78238095Y-46314819D01*
X78523809Y-46314819D02*
X78523809Y-45314819D01*
X78523809Y-45314819D02*
X78428571Y-45457676D01*
X78428571Y-45457676D02*
X78333333Y-45552914D01*
X78333333Y-45552914D02*
X78238095Y-45600533D01*
X72785714Y-64334819D02*
X72785714Y-63334819D01*
X72785714Y-63334819D02*
X73023809Y-63334819D01*
X73023809Y-63334819D02*
X73166666Y-63382438D01*
X73166666Y-63382438D02*
X73261904Y-63477676D01*
X73261904Y-63477676D02*
X73309523Y-63572914D01*
X73309523Y-63572914D02*
X73357142Y-63763390D01*
X73357142Y-63763390D02*
X73357142Y-63906247D01*
X73357142Y-63906247D02*
X73309523Y-64096723D01*
X73309523Y-64096723D02*
X73261904Y-64191961D01*
X73261904Y-64191961D02*
X73166666Y-64287200D01*
X73166666Y-64287200D02*
X73023809Y-64334819D01*
X73023809Y-64334819D02*
X72785714Y-64334819D01*
X73690476Y-63334819D02*
X74357142Y-63334819D01*
X74357142Y-63334819D02*
X73690476Y-64334819D01*
X73690476Y-64334819D02*
X74357142Y-64334819D01*
X75261904Y-64334819D02*
X74690476Y-64334819D01*
X74976190Y-64334819D02*
X74976190Y-63334819D01*
X74976190Y-63334819D02*
X74880952Y-63477676D01*
X74880952Y-63477676D02*
X74785714Y-63572914D01*
X74785714Y-63572914D02*
X74690476Y-63620533D01*
X69928095Y-64654819D02*
X69928095Y-63654819D01*
X70499523Y-64654819D02*
X70070952Y-64083390D01*
X70499523Y-63654819D02*
X69928095Y-64226247D01*
X49833333Y-64084819D02*
X49500000Y-63608628D01*
X49261905Y-64084819D02*
X49261905Y-63084819D01*
X49261905Y-63084819D02*
X49642857Y-63084819D01*
X49642857Y-63084819D02*
X49738095Y-63132438D01*
X49738095Y-63132438D02*
X49785714Y-63180057D01*
X49785714Y-63180057D02*
X49833333Y-63275295D01*
X49833333Y-63275295D02*
X49833333Y-63418152D01*
X49833333Y-63418152D02*
X49785714Y-63513390D01*
X49785714Y-63513390D02*
X49738095Y-63561009D01*
X49738095Y-63561009D02*
X49642857Y-63608628D01*
X49642857Y-63608628D02*
X49261905Y-63608628D01*
X50214286Y-63180057D02*
X50261905Y-63132438D01*
X50261905Y-63132438D02*
X50357143Y-63084819D01*
X50357143Y-63084819D02*
X50595238Y-63084819D01*
X50595238Y-63084819D02*
X50690476Y-63132438D01*
X50690476Y-63132438D02*
X50738095Y-63180057D01*
X50738095Y-63180057D02*
X50785714Y-63275295D01*
X50785714Y-63275295D02*
X50785714Y-63370533D01*
X50785714Y-63370533D02*
X50738095Y-63513390D01*
X50738095Y-63513390D02*
X50166667Y-64084819D01*
X50166667Y-64084819D02*
X50785714Y-64084819D01*
X37833333Y-64084819D02*
X37500000Y-63608628D01*
X37261905Y-64084819D02*
X37261905Y-63084819D01*
X37261905Y-63084819D02*
X37642857Y-63084819D01*
X37642857Y-63084819D02*
X37738095Y-63132438D01*
X37738095Y-63132438D02*
X37785714Y-63180057D01*
X37785714Y-63180057D02*
X37833333Y-63275295D01*
X37833333Y-63275295D02*
X37833333Y-63418152D01*
X37833333Y-63418152D02*
X37785714Y-63513390D01*
X37785714Y-63513390D02*
X37738095Y-63561009D01*
X37738095Y-63561009D02*
X37642857Y-63608628D01*
X37642857Y-63608628D02*
X37261905Y-63608628D01*
X38785714Y-64084819D02*
X38214286Y-64084819D01*
X38500000Y-64084819D02*
X38500000Y-63084819D01*
X38500000Y-63084819D02*
X38404762Y-63227676D01*
X38404762Y-63227676D02*
X38309524Y-63322914D01*
X38309524Y-63322914D02*
X38214286Y-63370533D01*
X85833333Y-63859580D02*
X85785714Y-63907200D01*
X85785714Y-63907200D02*
X85642857Y-63954819D01*
X85642857Y-63954819D02*
X85547619Y-63954819D01*
X85547619Y-63954819D02*
X85404762Y-63907200D01*
X85404762Y-63907200D02*
X85309524Y-63811961D01*
X85309524Y-63811961D02*
X85261905Y-63716723D01*
X85261905Y-63716723D02*
X85214286Y-63526247D01*
X85214286Y-63526247D02*
X85214286Y-63383390D01*
X85214286Y-63383390D02*
X85261905Y-63192914D01*
X85261905Y-63192914D02*
X85309524Y-63097676D01*
X85309524Y-63097676D02*
X85404762Y-63002438D01*
X85404762Y-63002438D02*
X85547619Y-62954819D01*
X85547619Y-62954819D02*
X85642857Y-62954819D01*
X85642857Y-62954819D02*
X85785714Y-63002438D01*
X85785714Y-63002438D02*
X85833333Y-63050057D01*
X86690476Y-62954819D02*
X86500000Y-62954819D01*
X86500000Y-62954819D02*
X86404762Y-63002438D01*
X86404762Y-63002438D02*
X86357143Y-63050057D01*
X86357143Y-63050057D02*
X86261905Y-63192914D01*
X86261905Y-63192914D02*
X86214286Y-63383390D01*
X86214286Y-63383390D02*
X86214286Y-63764342D01*
X86214286Y-63764342D02*
X86261905Y-63859580D01*
X86261905Y-63859580D02*
X86309524Y-63907200D01*
X86309524Y-63907200D02*
X86404762Y-63954819D01*
X86404762Y-63954819D02*
X86595238Y-63954819D01*
X86595238Y-63954819D02*
X86690476Y-63907200D01*
X86690476Y-63907200D02*
X86738095Y-63859580D01*
X86738095Y-63859580D02*
X86785714Y-63764342D01*
X86785714Y-63764342D02*
X86785714Y-63526247D01*
X86785714Y-63526247D02*
X86738095Y-63431009D01*
X86738095Y-63431009D02*
X86690476Y-63383390D01*
X86690476Y-63383390D02*
X86595238Y-63335771D01*
X86595238Y-63335771D02*
X86404762Y-63335771D01*
X86404762Y-63335771D02*
X86309524Y-63383390D01*
X86309524Y-63383390D02*
X86261905Y-63431009D01*
X86261905Y-63431009D02*
X86214286Y-63526247D01*
X61833333Y-64084819D02*
X61500000Y-63608628D01*
X61261905Y-64084819D02*
X61261905Y-63084819D01*
X61261905Y-63084819D02*
X61642857Y-63084819D01*
X61642857Y-63084819D02*
X61738095Y-63132438D01*
X61738095Y-63132438D02*
X61785714Y-63180057D01*
X61785714Y-63180057D02*
X61833333Y-63275295D01*
X61833333Y-63275295D02*
X61833333Y-63418152D01*
X61833333Y-63418152D02*
X61785714Y-63513390D01*
X61785714Y-63513390D02*
X61738095Y-63561009D01*
X61738095Y-63561009D02*
X61642857Y-63608628D01*
X61642857Y-63608628D02*
X61261905Y-63608628D01*
X62166667Y-63084819D02*
X62785714Y-63084819D01*
X62785714Y-63084819D02*
X62452381Y-63465771D01*
X62452381Y-63465771D02*
X62595238Y-63465771D01*
X62595238Y-63465771D02*
X62690476Y-63513390D01*
X62690476Y-63513390D02*
X62738095Y-63561009D01*
X62738095Y-63561009D02*
X62785714Y-63656247D01*
X62785714Y-63656247D02*
X62785714Y-63894342D01*
X62785714Y-63894342D02*
X62738095Y-63989580D01*
X62738095Y-63989580D02*
X62690476Y-64037200D01*
X62690476Y-64037200D02*
X62595238Y-64084819D01*
X62595238Y-64084819D02*
X62309524Y-64084819D01*
X62309524Y-64084819D02*
X62214286Y-64037200D01*
X62214286Y-64037200D02*
X62166667Y-63989580D01*
D11*
%TO.C,C1*%
X60512760Y-27885000D02*
X62312760Y-27885000D01*
X61412760Y-26985000D02*
X61412760Y-28785000D01*
X70272200Y-23920000D02*
X70272200Y-42080000D01*
X70312200Y-23920000D02*
X70312200Y-42080000D01*
X70352200Y-23920000D02*
X70352200Y-42080000D01*
X70392200Y-23921000D02*
X70392200Y-42079000D01*
X70432200Y-23921000D02*
X70432200Y-42079000D01*
X70472200Y-23922000D02*
X70472200Y-42078000D01*
X70512200Y-23923000D02*
X70512200Y-42077000D01*
X70552200Y-23924000D02*
X70552200Y-42076000D01*
X70592200Y-23926000D02*
X70592200Y-42074000D01*
X70632200Y-23927000D02*
X70632200Y-42073000D01*
X70672200Y-23929000D02*
X70672200Y-42071000D01*
X70712200Y-23931000D02*
X70712200Y-42069000D01*
X70752200Y-23933000D02*
X70752200Y-42067000D01*
X70792200Y-23935000D02*
X70792200Y-42065000D01*
X70832200Y-23937000D02*
X70832200Y-42063000D01*
X70872200Y-23940000D02*
X70872200Y-42060000D01*
X70912200Y-23942000D02*
X70912200Y-42058000D01*
X70952200Y-23945000D02*
X70952200Y-42055000D01*
X70992200Y-23948000D02*
X70992200Y-42052000D01*
X71032200Y-23952000D02*
X71032200Y-42048000D01*
X71072200Y-23955000D02*
X71072200Y-42045000D01*
X71112200Y-23959000D02*
X71112200Y-42041000D01*
X71152200Y-23963000D02*
X71152200Y-42037000D01*
X71192200Y-23967000D02*
X71192200Y-42033000D01*
X71232200Y-23971000D02*
X71232200Y-42029000D01*
X71272200Y-23975000D02*
X71272200Y-42025000D01*
X71312200Y-23979000D02*
X71312200Y-42021000D01*
X71352200Y-23984000D02*
X71352200Y-42016000D01*
X71392200Y-23989000D02*
X71392200Y-42011000D01*
X71432200Y-23994000D02*
X71432200Y-42006000D01*
X71472200Y-23999000D02*
X71472200Y-42001000D01*
X71512200Y-24005000D02*
X71512200Y-41995000D01*
X71552200Y-24010000D02*
X71552200Y-41990000D01*
X71592200Y-24016000D02*
X71592200Y-41984000D01*
X71632200Y-24022000D02*
X71632200Y-41978000D01*
X71672200Y-24028000D02*
X71672200Y-41972000D01*
X71712200Y-24034000D02*
X71712200Y-41966000D01*
X71752200Y-24041000D02*
X71752200Y-41959000D01*
X71792200Y-24048000D02*
X71792200Y-41952000D01*
X71832200Y-24054000D02*
X71832200Y-41946000D01*
X71872200Y-24061000D02*
X71872200Y-41939000D01*
X71912200Y-24069000D02*
X71912200Y-41931000D01*
X71952200Y-24076000D02*
X71952200Y-41924000D01*
X71992200Y-24084000D02*
X71992200Y-41916000D01*
X72032200Y-24091000D02*
X72032200Y-41909000D01*
X72072200Y-24099000D02*
X72072200Y-41901000D01*
X72112200Y-24108000D02*
X72112200Y-41892000D01*
X72152200Y-24116000D02*
X72152200Y-41884000D01*
X72192200Y-24124000D02*
X72192200Y-41876000D01*
X72232200Y-24133000D02*
X72232200Y-41867000D01*
X72272200Y-24142000D02*
X72272200Y-41858000D01*
X72312200Y-24151000D02*
X72312200Y-41849000D01*
X72352200Y-24160000D02*
X72352200Y-41840000D01*
X72392200Y-24170000D02*
X72392200Y-41830000D01*
X72432200Y-24179000D02*
X72432200Y-41821000D01*
X72472200Y-24189000D02*
X72472200Y-41811000D01*
X72512200Y-24199000D02*
X72512200Y-41801000D01*
X72552200Y-24210000D02*
X72552200Y-41790000D01*
X72592200Y-24220000D02*
X72592200Y-31560000D01*
X72592200Y-34440000D02*
X72592200Y-41780000D01*
X72632200Y-24231000D02*
X72632200Y-31560000D01*
X72632200Y-34440000D02*
X72632200Y-41769000D01*
X72672200Y-24241000D02*
X72672200Y-31560000D01*
X72672200Y-34440000D02*
X72672200Y-41759000D01*
X72712200Y-24252000D02*
X72712200Y-31560000D01*
X72712200Y-34440000D02*
X72712200Y-41748000D01*
X72752200Y-24264000D02*
X72752200Y-31560000D01*
X72752200Y-34440000D02*
X72752200Y-41736000D01*
X72792200Y-24275000D02*
X72792200Y-31560000D01*
X72792200Y-34440000D02*
X72792200Y-41725000D01*
X72832200Y-24287000D02*
X72832200Y-31560000D01*
X72832200Y-34440000D02*
X72832200Y-41713000D01*
X72872200Y-24298000D02*
X72872200Y-31560000D01*
X72872200Y-34440000D02*
X72872200Y-41702000D01*
X72912200Y-24310000D02*
X72912200Y-31560000D01*
X72912200Y-34440000D02*
X72912200Y-41690000D01*
X72952200Y-24323000D02*
X72952200Y-31560000D01*
X72952200Y-34440000D02*
X72952200Y-41677000D01*
X72992200Y-24335000D02*
X72992200Y-31560000D01*
X72992200Y-34440000D02*
X72992200Y-41665000D01*
X73032200Y-24348000D02*
X73032200Y-31560000D01*
X73032200Y-34440000D02*
X73032200Y-41652000D01*
X73072200Y-24360000D02*
X73072200Y-31560000D01*
X73072200Y-34440000D02*
X73072200Y-41640000D01*
X73112200Y-24373000D02*
X73112200Y-31560000D01*
X73112200Y-34440000D02*
X73112200Y-41627000D01*
X73152200Y-24387000D02*
X73152200Y-31560000D01*
X73152200Y-34440000D02*
X73152200Y-41613000D01*
X73192200Y-24400000D02*
X73192200Y-31560000D01*
X73192200Y-34440000D02*
X73192200Y-41600000D01*
X73232200Y-24414000D02*
X73232200Y-31560000D01*
X73232200Y-34440000D02*
X73232200Y-41586000D01*
X73272200Y-24428000D02*
X73272200Y-31560000D01*
X73272200Y-34440000D02*
X73272200Y-41572000D01*
X73312200Y-24442000D02*
X73312200Y-31560000D01*
X73312200Y-34440000D02*
X73312200Y-41558000D01*
X73352200Y-24456000D02*
X73352200Y-31560000D01*
X73352200Y-34440000D02*
X73352200Y-41544000D01*
X73392200Y-24470000D02*
X73392200Y-31560000D01*
X73392200Y-34440000D02*
X73392200Y-41530000D01*
X73432200Y-24485000D02*
X73432200Y-31560000D01*
X73432200Y-34440000D02*
X73432200Y-41515000D01*
X73472200Y-24500000D02*
X73472200Y-31560000D01*
X73472200Y-34440000D02*
X73472200Y-41500000D01*
X73512200Y-24515000D02*
X73512200Y-31560000D01*
X73512200Y-34440000D02*
X73512200Y-41485000D01*
X73552200Y-24530000D02*
X73552200Y-31560000D01*
X73552200Y-34440000D02*
X73552200Y-41470000D01*
X73592200Y-24546000D02*
X73592200Y-31560000D01*
X73592200Y-34440000D02*
X73592200Y-41454000D01*
X73632200Y-24562000D02*
X73632200Y-31560000D01*
X73632200Y-34440000D02*
X73632200Y-41438000D01*
X73672200Y-24577000D02*
X73672200Y-31560000D01*
X73672200Y-34440000D02*
X73672200Y-41423000D01*
X73712200Y-24594000D02*
X73712200Y-31560000D01*
X73712200Y-34440000D02*
X73712200Y-41406000D01*
X73752200Y-24610000D02*
X73752200Y-31560000D01*
X73752200Y-34440000D02*
X73752200Y-41390000D01*
X73792200Y-24627000D02*
X73792200Y-31560000D01*
X73792200Y-34440000D02*
X73792200Y-41373000D01*
X73832200Y-24644000D02*
X73832200Y-31560000D01*
X73832200Y-34440000D02*
X73832200Y-41356000D01*
X73872200Y-24661000D02*
X73872200Y-31560000D01*
X73872200Y-34440000D02*
X73872200Y-41339000D01*
X73912200Y-24678000D02*
X73912200Y-31560000D01*
X73912200Y-34440000D02*
X73912200Y-41322000D01*
X73952200Y-24695000D02*
X73952200Y-31560000D01*
X73952200Y-34440000D02*
X73952200Y-41305000D01*
X73992200Y-24713000D02*
X73992200Y-31560000D01*
X73992200Y-34440000D02*
X73992200Y-41287000D01*
X74032200Y-24731000D02*
X74032200Y-31560000D01*
X74032200Y-34440000D02*
X74032200Y-41269000D01*
X74072200Y-24749000D02*
X74072200Y-31560000D01*
X74072200Y-34440000D02*
X74072200Y-41251000D01*
X74112200Y-24768000D02*
X74112200Y-31560000D01*
X74112200Y-34440000D02*
X74112200Y-41232000D01*
X74152200Y-24787000D02*
X74152200Y-31560000D01*
X74152200Y-34440000D02*
X74152200Y-41213000D01*
X74192200Y-24805000D02*
X74192200Y-31560000D01*
X74192200Y-34440000D02*
X74192200Y-41195000D01*
X74232200Y-24825000D02*
X74232200Y-31560000D01*
X74232200Y-34440000D02*
X74232200Y-41175000D01*
X74272200Y-24844000D02*
X74272200Y-31560000D01*
X74272200Y-34440000D02*
X74272200Y-41156000D01*
X74312200Y-24864000D02*
X74312200Y-31560000D01*
X74312200Y-34440000D02*
X74312200Y-41136000D01*
X74352200Y-24884000D02*
X74352200Y-31560000D01*
X74352200Y-34440000D02*
X74352200Y-41116000D01*
X74392200Y-24904000D02*
X74392200Y-31560000D01*
X74392200Y-34440000D02*
X74392200Y-41096000D01*
X74432200Y-24924000D02*
X74432200Y-31560000D01*
X74432200Y-34440000D02*
X74432200Y-41076000D01*
X74472200Y-24945000D02*
X74472200Y-31560000D01*
X74472200Y-34440000D02*
X74472200Y-41055000D01*
X74512200Y-24966000D02*
X74512200Y-31560000D01*
X74512200Y-34440000D02*
X74512200Y-41034000D01*
X74552200Y-24987000D02*
X74552200Y-31560000D01*
X74552200Y-34440000D02*
X74552200Y-41013000D01*
X74592200Y-25008000D02*
X74592200Y-31560000D01*
X74592200Y-34440000D02*
X74592200Y-40992000D01*
X74632200Y-25030000D02*
X74632200Y-31560000D01*
X74632200Y-34440000D02*
X74632200Y-40970000D01*
X74672200Y-25052000D02*
X74672200Y-31560000D01*
X74672200Y-34440000D02*
X74672200Y-40948000D01*
X74712200Y-25074000D02*
X74712200Y-31560000D01*
X74712200Y-34440000D02*
X74712200Y-40926000D01*
X74752200Y-25096000D02*
X74752200Y-31560000D01*
X74752200Y-34440000D02*
X74752200Y-40904000D01*
X74792200Y-25119000D02*
X74792200Y-31560000D01*
X74792200Y-34440000D02*
X74792200Y-40881000D01*
X74832200Y-25142000D02*
X74832200Y-31560000D01*
X74832200Y-34440000D02*
X74832200Y-40858000D01*
X74872200Y-25165000D02*
X74872200Y-31560000D01*
X74872200Y-34440000D02*
X74872200Y-40835000D01*
X74912200Y-25189000D02*
X74912200Y-31560000D01*
X74912200Y-34440000D02*
X74912200Y-40811000D01*
X74952200Y-25212000D02*
X74952200Y-31560000D01*
X74952200Y-34440000D02*
X74952200Y-40788000D01*
X74992200Y-25236000D02*
X74992200Y-31560000D01*
X74992200Y-34440000D02*
X74992200Y-40764000D01*
X75032200Y-25261000D02*
X75032200Y-31560000D01*
X75032200Y-34440000D02*
X75032200Y-40739000D01*
X75072200Y-25285000D02*
X75072200Y-31560000D01*
X75072200Y-34440000D02*
X75072200Y-40715000D01*
X75112200Y-25310000D02*
X75112200Y-31560000D01*
X75112200Y-34440000D02*
X75112200Y-40690000D01*
X75152200Y-25335000D02*
X75152200Y-31560000D01*
X75152200Y-34440000D02*
X75152200Y-40665000D01*
X75192200Y-25361000D02*
X75192200Y-31560000D01*
X75192200Y-34440000D02*
X75192200Y-40639000D01*
X75232200Y-25387000D02*
X75232200Y-31560000D01*
X75232200Y-34440000D02*
X75232200Y-40613000D01*
X75272200Y-25413000D02*
X75272200Y-31560000D01*
X75272200Y-34440000D02*
X75272200Y-40587000D01*
X75312200Y-25439000D02*
X75312200Y-31560000D01*
X75312200Y-34440000D02*
X75312200Y-40561000D01*
X75352200Y-25466000D02*
X75352200Y-31560000D01*
X75352200Y-34440000D02*
X75352200Y-40534000D01*
X75392200Y-25493000D02*
X75392200Y-31560000D01*
X75392200Y-34440000D02*
X75392200Y-40507000D01*
X75432200Y-25520000D02*
X75432200Y-31560000D01*
X75432200Y-34440000D02*
X75432200Y-40480000D01*
X75472200Y-25548000D02*
X75472200Y-40452000D01*
X75512200Y-25576000D02*
X75512200Y-40424000D01*
X75552200Y-25604000D02*
X75552200Y-40396000D01*
X75592200Y-25632000D02*
X75592200Y-40368000D01*
X75632200Y-25661000D02*
X75632200Y-40339000D01*
X75672200Y-25691000D02*
X75672200Y-40309000D01*
X75712200Y-25720000D02*
X75712200Y-40280000D01*
X75752200Y-25750000D02*
X75752200Y-40250000D01*
X75792200Y-25780000D02*
X75792200Y-40220000D01*
X75832200Y-25811000D02*
X75832200Y-40189000D01*
X75872200Y-25842000D02*
X75872200Y-40158000D01*
X75912200Y-25873000D02*
X75912200Y-40127000D01*
X75952200Y-25905000D02*
X75952200Y-40095000D01*
X75992200Y-25937000D02*
X75992200Y-40063000D01*
X76032200Y-25969000D02*
X76032200Y-40031000D01*
X76072200Y-26002000D02*
X76072200Y-39998000D01*
X76112200Y-26035000D02*
X76112200Y-39965000D01*
X76152200Y-26069000D02*
X76152200Y-39931000D01*
X76192200Y-26103000D02*
X76192200Y-39897000D01*
X76232200Y-26137000D02*
X76232200Y-39863000D01*
X76272200Y-26172000D02*
X76272200Y-39828000D01*
X76312200Y-26207000D02*
X76312200Y-39793000D01*
X76352200Y-26242000D02*
X76352200Y-39758000D01*
X76392200Y-26278000D02*
X76392200Y-39722000D01*
X76432200Y-26315000D02*
X76432200Y-39685000D01*
X76472200Y-26352000D02*
X76472200Y-39648000D01*
X76512200Y-26389000D02*
X76512200Y-39611000D01*
X76552200Y-26427000D02*
X76552200Y-39573000D01*
X76592200Y-26465000D02*
X76592200Y-39535000D01*
X76632200Y-26504000D02*
X76632200Y-39496000D01*
X76672200Y-26543000D02*
X76672200Y-39457000D01*
X76712200Y-26582000D02*
X76712200Y-39418000D01*
X76752200Y-26623000D02*
X76752200Y-39377000D01*
X76792200Y-26663000D02*
X76792200Y-39337000D01*
X76832200Y-26704000D02*
X76832200Y-39296000D01*
X76872200Y-26746000D02*
X76872200Y-39254000D01*
X76912200Y-26788000D02*
X76912200Y-39212000D01*
X76952200Y-26831000D02*
X76952200Y-39169000D01*
X76992200Y-26874000D02*
X76992200Y-39126000D01*
X77032200Y-26918000D02*
X77032200Y-39082000D01*
X77072200Y-26963000D02*
X77072200Y-39037000D01*
X77112200Y-27008000D02*
X77112200Y-38992000D01*
X77152200Y-27053000D02*
X77152200Y-38947000D01*
X77192200Y-27100000D02*
X77192200Y-38900000D01*
X77232200Y-27147000D02*
X77232200Y-38853000D01*
X77272200Y-27194000D02*
X77272200Y-38806000D01*
X77312200Y-27242000D02*
X77312200Y-38758000D01*
X77352200Y-27291000D02*
X77352200Y-38709000D01*
X77392200Y-27341000D02*
X77392200Y-38659000D01*
X77432200Y-27391000D02*
X77432200Y-38609000D01*
X77472200Y-27442000D02*
X77472200Y-38558000D01*
X77512200Y-27494000D02*
X77512200Y-38506000D01*
X77552200Y-27547000D02*
X77552200Y-38453000D01*
X77592200Y-27600000D02*
X77592200Y-38400000D01*
X77632200Y-27654000D02*
X77632200Y-38346000D01*
X77672200Y-27709000D02*
X77672200Y-38291000D01*
X77712200Y-27765000D02*
X77712200Y-38235000D01*
X77752200Y-27822000D02*
X77752200Y-38178000D01*
X77792200Y-27880000D02*
X77792200Y-38120000D01*
X77832200Y-27939000D02*
X77832200Y-38061000D01*
X77872200Y-27999000D02*
X77872200Y-38001000D01*
X77912200Y-28060000D02*
X77912200Y-37940000D01*
X77952200Y-28121000D02*
X77952200Y-37879000D01*
X77992200Y-28184000D02*
X77992200Y-37816000D01*
X78032200Y-28249000D02*
X78032200Y-37751000D01*
X78072200Y-28314000D02*
X78072200Y-37686000D01*
X78112200Y-28381000D02*
X78112200Y-37619000D01*
X78152200Y-28449000D02*
X78152200Y-37551000D01*
X78192200Y-28518000D02*
X78192200Y-37482000D01*
X78232200Y-28589000D02*
X78232200Y-37411000D01*
X78272200Y-28661000D02*
X78272200Y-37339000D01*
X78312200Y-28735000D02*
X78312200Y-37265000D01*
X78352200Y-28811000D02*
X78352200Y-37189000D01*
X78392200Y-28888000D02*
X78392200Y-37112000D01*
X78432200Y-28967000D02*
X78432200Y-37033000D01*
X78472200Y-29048000D02*
X78472200Y-36952000D01*
X78512200Y-29131000D02*
X78512200Y-36869000D01*
X78552200Y-29217000D02*
X78552200Y-36783000D01*
X78592200Y-29305000D02*
X78592200Y-36695000D01*
X78632200Y-29395000D02*
X78632200Y-36605000D01*
X78672200Y-29488000D02*
X78672200Y-36512000D01*
X78712200Y-29584000D02*
X78712200Y-36416000D01*
X78752200Y-29684000D02*
X78752200Y-36316000D01*
X78792200Y-29787000D02*
X78792200Y-36213000D01*
X78832200Y-29893000D02*
X78832200Y-36107000D01*
X78872200Y-30004000D02*
X78872200Y-35996000D01*
X78912200Y-30120000D02*
X78912200Y-35880000D01*
X78952200Y-30241000D02*
X78952200Y-35759000D01*
X78992200Y-30369000D02*
X78992200Y-35631000D01*
X79032200Y-30503000D02*
X79032200Y-35497000D01*
X79072200Y-30645000D02*
X79072200Y-35355000D01*
X79112200Y-30798000D02*
X79112200Y-35202000D01*
X79152200Y-30962000D02*
X79152200Y-35038000D01*
X79192200Y-31141000D02*
X79192200Y-34859000D01*
X79232200Y-31339000D02*
X79232200Y-34661000D01*
X79272200Y-31565000D02*
X79272200Y-34435000D01*
X79312200Y-31835000D02*
X79312200Y-34165000D01*
X79352200Y-32187000D02*
X79352200Y-33813000D01*
X79392200Y-33040000D02*
X79392200Y-32960000D01*
X79392200Y-33000000D02*
G75*
G02*
X61152200Y-33000000I-9120000J0D01*
G01*
X61152200Y-33000000D02*
G75*
G02*
X79392200Y-33000000I9120000J0D01*
G01*
%TO.C,Q1*%
X50890000Y-73690000D02*
X61110000Y-73690000D01*
X50890000Y-75070000D02*
X61110000Y-75070000D01*
X50890000Y-78310000D02*
X50890000Y-73690000D01*
X54150000Y-73690000D02*
X54150000Y-75070000D01*
X57850000Y-73690000D02*
X57850000Y-75070000D01*
X61110000Y-73690000D02*
X61110000Y-78310000D01*
X61110000Y-78310000D02*
X50890000Y-78310000D01*
%TO.C,R6*%
X34730000Y-53630000D02*
X34730000Y-53960000D01*
X34730000Y-56370000D02*
X34730000Y-56040000D01*
X41270000Y-53630000D02*
X34730000Y-53630000D01*
X41270000Y-53960000D02*
X41270000Y-53630000D01*
X41270000Y-56040000D02*
X41270000Y-56370000D01*
X41270000Y-56370000D02*
X34730000Y-56370000D01*
%TO.C,J3*%
X107620000Y-74080000D02*
X109000000Y-74080000D01*
X107620000Y-75460000D02*
X107620000Y-74080000D01*
X107620000Y-76730000D02*
X107620000Y-81920000D01*
X107620000Y-76730000D02*
X110380000Y-76730000D01*
X107620000Y-81920000D02*
X110380000Y-81920000D01*
X110380000Y-76730000D02*
X110380000Y-81920000D01*
%TO.C,R7*%
X48730000Y-48630000D02*
X55270000Y-48630000D01*
X48730000Y-48960000D02*
X48730000Y-48630000D01*
X48730000Y-51040000D02*
X48730000Y-51370000D01*
X48730000Y-51370000D02*
X55270000Y-51370000D01*
X55270000Y-48630000D02*
X55270000Y-48960000D01*
X55270000Y-51370000D02*
X55270000Y-51040000D01*
%TO.C,J1*%
X29920000Y-26190000D02*
X29920000Y-33810000D01*
X29920000Y-27460000D02*
X40080000Y-27460000D01*
X29920000Y-33810000D02*
X40080000Y-33810000D01*
X40080000Y-26190000D02*
X29920000Y-26190000D01*
X40080000Y-33810000D02*
X40080000Y-26190000D01*
%TO.C,R8*%
X60730000Y-48630000D02*
X67270000Y-48630000D01*
X60730000Y-48960000D02*
X60730000Y-48630000D01*
X60730000Y-51040000D02*
X60730000Y-51370000D01*
X60730000Y-51370000D02*
X67270000Y-51370000D01*
X67270000Y-48630000D02*
X67270000Y-48960000D01*
X67270000Y-51370000D02*
X67270000Y-51040000D01*
%TO.C,J2*%
X103920000Y-54190000D02*
X103920000Y-61810000D01*
X103920000Y-61810000D02*
X114080000Y-61810000D01*
X114080000Y-54190000D02*
X103920000Y-54190000D01*
X114080000Y-60540000D02*
X103920000Y-60540000D01*
X114080000Y-61810000D02*
X114080000Y-54190000D01*
%TO.C,D1*%
X48260000Y-26000000D02*
X49280000Y-26000000D01*
X50060000Y-24530000D02*
X50060000Y-27470000D01*
X50180000Y-24530000D02*
X50180000Y-27470000D01*
X50300000Y-24530000D02*
X50300000Y-27470000D01*
X55740000Y-26000000D02*
X54720000Y-26000000D01*
X49280000Y-24530000D02*
X54720000Y-24530000D01*
X54720000Y-27470000D01*
X49280000Y-27470000D01*
X49280000Y-24530000D01*
%TO.C,C2*%
X80512760Y-27885000D02*
X82312760Y-27885000D01*
X81412760Y-26985000D02*
X81412760Y-28785000D01*
X90272200Y-23920000D02*
X90272200Y-42080000D01*
X90312200Y-23920000D02*
X90312200Y-42080000D01*
X90352200Y-23920000D02*
X90352200Y-42080000D01*
X90392200Y-23921000D02*
X90392200Y-42079000D01*
X90432200Y-23921000D02*
X90432200Y-42079000D01*
X90472200Y-23922000D02*
X90472200Y-42078000D01*
X90512200Y-23923000D02*
X90512200Y-42077000D01*
X90552200Y-23924000D02*
X90552200Y-42076000D01*
X90592200Y-23926000D02*
X90592200Y-42074000D01*
X90632200Y-23927000D02*
X90632200Y-42073000D01*
X90672200Y-23929000D02*
X90672200Y-42071000D01*
X90712200Y-23931000D02*
X90712200Y-42069000D01*
X90752200Y-23933000D02*
X90752200Y-42067000D01*
X90792200Y-23935000D02*
X90792200Y-42065000D01*
X90832200Y-23937000D02*
X90832200Y-42063000D01*
X90872200Y-23940000D02*
X90872200Y-42060000D01*
X90912200Y-23942000D02*
X90912200Y-42058000D01*
X90952200Y-23945000D02*
X90952200Y-42055000D01*
X90992200Y-23948000D02*
X90992200Y-42052000D01*
X91032200Y-23952000D02*
X91032200Y-42048000D01*
X91072200Y-23955000D02*
X91072200Y-42045000D01*
X91112200Y-23959000D02*
X91112200Y-42041000D01*
X91152200Y-23963000D02*
X91152200Y-42037000D01*
X91192200Y-23967000D02*
X91192200Y-42033000D01*
X91232200Y-23971000D02*
X91232200Y-42029000D01*
X91272200Y-23975000D02*
X91272200Y-42025000D01*
X91312200Y-23979000D02*
X91312200Y-42021000D01*
X91352200Y-23984000D02*
X91352200Y-42016000D01*
X91392200Y-23989000D02*
X91392200Y-42011000D01*
X91432200Y-23994000D02*
X91432200Y-42006000D01*
X91472200Y-23999000D02*
X91472200Y-42001000D01*
X91512200Y-24005000D02*
X91512200Y-41995000D01*
X91552200Y-24010000D02*
X91552200Y-41990000D01*
X91592200Y-24016000D02*
X91592200Y-41984000D01*
X91632200Y-24022000D02*
X91632200Y-41978000D01*
X91672200Y-24028000D02*
X91672200Y-41972000D01*
X91712200Y-24034000D02*
X91712200Y-41966000D01*
X91752200Y-24041000D02*
X91752200Y-41959000D01*
X91792200Y-24048000D02*
X91792200Y-41952000D01*
X91832200Y-24054000D02*
X91832200Y-41946000D01*
X91872200Y-24061000D02*
X91872200Y-41939000D01*
X91912200Y-24069000D02*
X91912200Y-41931000D01*
X91952200Y-24076000D02*
X91952200Y-41924000D01*
X91992200Y-24084000D02*
X91992200Y-41916000D01*
X92032200Y-24091000D02*
X92032200Y-41909000D01*
X92072200Y-24099000D02*
X92072200Y-41901000D01*
X92112200Y-24108000D02*
X92112200Y-41892000D01*
X92152200Y-24116000D02*
X92152200Y-41884000D01*
X92192200Y-24124000D02*
X92192200Y-41876000D01*
X92232200Y-24133000D02*
X92232200Y-41867000D01*
X92272200Y-24142000D02*
X92272200Y-41858000D01*
X92312200Y-24151000D02*
X92312200Y-41849000D01*
X92352200Y-24160000D02*
X92352200Y-41840000D01*
X92392200Y-24170000D02*
X92392200Y-41830000D01*
X92432200Y-24179000D02*
X92432200Y-41821000D01*
X92472200Y-24189000D02*
X92472200Y-41811000D01*
X92512200Y-24199000D02*
X92512200Y-41801000D01*
X92552200Y-24210000D02*
X92552200Y-41790000D01*
X92592200Y-24220000D02*
X92592200Y-31560000D01*
X92592200Y-34440000D02*
X92592200Y-41780000D01*
X92632200Y-24231000D02*
X92632200Y-31560000D01*
X92632200Y-34440000D02*
X92632200Y-41769000D01*
X92672200Y-24241000D02*
X92672200Y-31560000D01*
X92672200Y-34440000D02*
X92672200Y-41759000D01*
X92712200Y-24252000D02*
X92712200Y-31560000D01*
X92712200Y-34440000D02*
X92712200Y-41748000D01*
X92752200Y-24264000D02*
X92752200Y-31560000D01*
X92752200Y-34440000D02*
X92752200Y-41736000D01*
X92792200Y-24275000D02*
X92792200Y-31560000D01*
X92792200Y-34440000D02*
X92792200Y-41725000D01*
X92832200Y-24287000D02*
X92832200Y-31560000D01*
X92832200Y-34440000D02*
X92832200Y-41713000D01*
X92872200Y-24298000D02*
X92872200Y-31560000D01*
X92872200Y-34440000D02*
X92872200Y-41702000D01*
X92912200Y-24310000D02*
X92912200Y-31560000D01*
X92912200Y-34440000D02*
X92912200Y-41690000D01*
X92952200Y-24323000D02*
X92952200Y-31560000D01*
X92952200Y-34440000D02*
X92952200Y-41677000D01*
X92992200Y-24335000D02*
X92992200Y-31560000D01*
X92992200Y-34440000D02*
X92992200Y-41665000D01*
X93032200Y-24348000D02*
X93032200Y-31560000D01*
X93032200Y-34440000D02*
X93032200Y-41652000D01*
X93072200Y-24360000D02*
X93072200Y-31560000D01*
X93072200Y-34440000D02*
X93072200Y-41640000D01*
X93112200Y-24373000D02*
X93112200Y-31560000D01*
X93112200Y-34440000D02*
X93112200Y-41627000D01*
X93152200Y-24387000D02*
X93152200Y-31560000D01*
X93152200Y-34440000D02*
X93152200Y-41613000D01*
X93192200Y-24400000D02*
X93192200Y-31560000D01*
X93192200Y-34440000D02*
X93192200Y-41600000D01*
X93232200Y-24414000D02*
X93232200Y-31560000D01*
X93232200Y-34440000D02*
X93232200Y-41586000D01*
X93272200Y-24428000D02*
X93272200Y-31560000D01*
X93272200Y-34440000D02*
X93272200Y-41572000D01*
X93312200Y-24442000D02*
X93312200Y-31560000D01*
X93312200Y-34440000D02*
X93312200Y-41558000D01*
X93352200Y-24456000D02*
X93352200Y-31560000D01*
X93352200Y-34440000D02*
X93352200Y-41544000D01*
X93392200Y-24470000D02*
X93392200Y-31560000D01*
X93392200Y-34440000D02*
X93392200Y-41530000D01*
X93432200Y-24485000D02*
X93432200Y-31560000D01*
X93432200Y-34440000D02*
X93432200Y-41515000D01*
X93472200Y-24500000D02*
X93472200Y-31560000D01*
X93472200Y-34440000D02*
X93472200Y-41500000D01*
X93512200Y-24515000D02*
X93512200Y-31560000D01*
X93512200Y-34440000D02*
X93512200Y-41485000D01*
X93552200Y-24530000D02*
X93552200Y-31560000D01*
X93552200Y-34440000D02*
X93552200Y-41470000D01*
X93592200Y-24546000D02*
X93592200Y-31560000D01*
X93592200Y-34440000D02*
X93592200Y-41454000D01*
X93632200Y-24562000D02*
X93632200Y-31560000D01*
X93632200Y-34440000D02*
X93632200Y-41438000D01*
X93672200Y-24577000D02*
X93672200Y-31560000D01*
X93672200Y-34440000D02*
X93672200Y-41423000D01*
X93712200Y-24594000D02*
X93712200Y-31560000D01*
X93712200Y-34440000D02*
X93712200Y-41406000D01*
X93752200Y-24610000D02*
X93752200Y-31560000D01*
X93752200Y-34440000D02*
X93752200Y-41390000D01*
X93792200Y-24627000D02*
X93792200Y-31560000D01*
X93792200Y-34440000D02*
X93792200Y-41373000D01*
X93832200Y-24644000D02*
X93832200Y-31560000D01*
X93832200Y-34440000D02*
X93832200Y-41356000D01*
X93872200Y-24661000D02*
X93872200Y-31560000D01*
X93872200Y-34440000D02*
X93872200Y-41339000D01*
X93912200Y-24678000D02*
X93912200Y-31560000D01*
X93912200Y-34440000D02*
X93912200Y-41322000D01*
X93952200Y-24695000D02*
X93952200Y-31560000D01*
X93952200Y-34440000D02*
X93952200Y-41305000D01*
X93992200Y-24713000D02*
X93992200Y-31560000D01*
X93992200Y-34440000D02*
X93992200Y-41287000D01*
X94032200Y-24731000D02*
X94032200Y-31560000D01*
X94032200Y-34440000D02*
X94032200Y-41269000D01*
X94072200Y-24749000D02*
X94072200Y-31560000D01*
X94072200Y-34440000D02*
X94072200Y-41251000D01*
X94112200Y-24768000D02*
X94112200Y-31560000D01*
X94112200Y-34440000D02*
X94112200Y-41232000D01*
X94152200Y-24787000D02*
X94152200Y-31560000D01*
X94152200Y-34440000D02*
X94152200Y-41213000D01*
X94192200Y-24805000D02*
X94192200Y-31560000D01*
X94192200Y-34440000D02*
X94192200Y-41195000D01*
X94232200Y-24825000D02*
X94232200Y-31560000D01*
X94232200Y-34440000D02*
X94232200Y-41175000D01*
X94272200Y-24844000D02*
X94272200Y-31560000D01*
X94272200Y-34440000D02*
X94272200Y-41156000D01*
X94312200Y-24864000D02*
X94312200Y-31560000D01*
X94312200Y-34440000D02*
X94312200Y-41136000D01*
X94352200Y-24884000D02*
X94352200Y-31560000D01*
X94352200Y-34440000D02*
X94352200Y-41116000D01*
X94392200Y-24904000D02*
X94392200Y-31560000D01*
X94392200Y-34440000D02*
X94392200Y-41096000D01*
X94432200Y-24924000D02*
X94432200Y-31560000D01*
X94432200Y-34440000D02*
X94432200Y-41076000D01*
X94472200Y-24945000D02*
X94472200Y-31560000D01*
X94472200Y-34440000D02*
X94472200Y-41055000D01*
X94512200Y-24966000D02*
X94512200Y-31560000D01*
X94512200Y-34440000D02*
X94512200Y-41034000D01*
X94552200Y-24987000D02*
X94552200Y-31560000D01*
X94552200Y-34440000D02*
X94552200Y-41013000D01*
X94592200Y-25008000D02*
X94592200Y-31560000D01*
X94592200Y-34440000D02*
X94592200Y-40992000D01*
X94632200Y-25030000D02*
X94632200Y-31560000D01*
X94632200Y-34440000D02*
X94632200Y-40970000D01*
X94672200Y-25052000D02*
X94672200Y-31560000D01*
X94672200Y-34440000D02*
X94672200Y-40948000D01*
X94712200Y-25074000D02*
X94712200Y-31560000D01*
X94712200Y-34440000D02*
X94712200Y-40926000D01*
X94752200Y-25096000D02*
X94752200Y-31560000D01*
X94752200Y-34440000D02*
X94752200Y-40904000D01*
X94792200Y-25119000D02*
X94792200Y-31560000D01*
X94792200Y-34440000D02*
X94792200Y-40881000D01*
X94832200Y-25142000D02*
X94832200Y-31560000D01*
X94832200Y-34440000D02*
X94832200Y-40858000D01*
X94872200Y-25165000D02*
X94872200Y-31560000D01*
X94872200Y-34440000D02*
X94872200Y-40835000D01*
X94912200Y-25189000D02*
X94912200Y-31560000D01*
X94912200Y-34440000D02*
X94912200Y-40811000D01*
X94952200Y-25212000D02*
X94952200Y-31560000D01*
X94952200Y-34440000D02*
X94952200Y-40788000D01*
X94992200Y-25236000D02*
X94992200Y-31560000D01*
X94992200Y-34440000D02*
X94992200Y-40764000D01*
X95032200Y-25261000D02*
X95032200Y-31560000D01*
X95032200Y-34440000D02*
X95032200Y-40739000D01*
X95072200Y-25285000D02*
X95072200Y-31560000D01*
X95072200Y-34440000D02*
X95072200Y-40715000D01*
X95112200Y-25310000D02*
X95112200Y-31560000D01*
X95112200Y-34440000D02*
X95112200Y-40690000D01*
X95152200Y-25335000D02*
X95152200Y-31560000D01*
X95152200Y-34440000D02*
X95152200Y-40665000D01*
X95192200Y-25361000D02*
X95192200Y-31560000D01*
X95192200Y-34440000D02*
X95192200Y-40639000D01*
X95232200Y-25387000D02*
X95232200Y-31560000D01*
X95232200Y-34440000D02*
X95232200Y-40613000D01*
X95272200Y-25413000D02*
X95272200Y-31560000D01*
X95272200Y-34440000D02*
X95272200Y-40587000D01*
X95312200Y-25439000D02*
X95312200Y-31560000D01*
X95312200Y-34440000D02*
X95312200Y-40561000D01*
X95352200Y-25466000D02*
X95352200Y-31560000D01*
X95352200Y-34440000D02*
X95352200Y-40534000D01*
X95392200Y-25493000D02*
X95392200Y-31560000D01*
X95392200Y-34440000D02*
X95392200Y-40507000D01*
X95432200Y-25520000D02*
X95432200Y-31560000D01*
X95432200Y-34440000D02*
X95432200Y-40480000D01*
X95472200Y-25548000D02*
X95472200Y-40452000D01*
X95512200Y-25576000D02*
X95512200Y-40424000D01*
X95552200Y-25604000D02*
X95552200Y-40396000D01*
X95592200Y-25632000D02*
X95592200Y-40368000D01*
X95632200Y-25661000D02*
X95632200Y-40339000D01*
X95672200Y-25691000D02*
X95672200Y-40309000D01*
X95712200Y-25720000D02*
X95712200Y-40280000D01*
X95752200Y-25750000D02*
X95752200Y-40250000D01*
X95792200Y-25780000D02*
X95792200Y-40220000D01*
X95832200Y-25811000D02*
X95832200Y-40189000D01*
X95872200Y-25842000D02*
X95872200Y-40158000D01*
X95912200Y-25873000D02*
X95912200Y-40127000D01*
X95952200Y-25905000D02*
X95952200Y-40095000D01*
X95992200Y-25937000D02*
X95992200Y-40063000D01*
X96032200Y-25969000D02*
X96032200Y-40031000D01*
X96072200Y-26002000D02*
X96072200Y-39998000D01*
X96112200Y-26035000D02*
X96112200Y-39965000D01*
X96152200Y-26069000D02*
X96152200Y-39931000D01*
X96192200Y-26103000D02*
X96192200Y-39897000D01*
X96232200Y-26137000D02*
X96232200Y-39863000D01*
X96272200Y-26172000D02*
X96272200Y-39828000D01*
X96312200Y-26207000D02*
X96312200Y-39793000D01*
X96352200Y-26242000D02*
X96352200Y-39758000D01*
X96392200Y-26278000D02*
X96392200Y-39722000D01*
X96432200Y-26315000D02*
X96432200Y-39685000D01*
X96472200Y-26352000D02*
X96472200Y-39648000D01*
X96512200Y-26389000D02*
X96512200Y-39611000D01*
X96552200Y-26427000D02*
X96552200Y-39573000D01*
X96592200Y-26465000D02*
X96592200Y-39535000D01*
X96632200Y-26504000D02*
X96632200Y-39496000D01*
X96672200Y-26543000D02*
X96672200Y-39457000D01*
X96712200Y-26582000D02*
X96712200Y-39418000D01*
X96752200Y-26623000D02*
X96752200Y-39377000D01*
X96792200Y-26663000D02*
X96792200Y-39337000D01*
X96832200Y-26704000D02*
X96832200Y-39296000D01*
X96872200Y-26746000D02*
X96872200Y-39254000D01*
X96912200Y-26788000D02*
X96912200Y-39212000D01*
X96952200Y-26831000D02*
X96952200Y-39169000D01*
X96992200Y-26874000D02*
X96992200Y-39126000D01*
X97032200Y-26918000D02*
X97032200Y-39082000D01*
X97072200Y-26963000D02*
X97072200Y-39037000D01*
X97112200Y-27008000D02*
X97112200Y-38992000D01*
X97152200Y-27053000D02*
X97152200Y-38947000D01*
X97192200Y-27100000D02*
X97192200Y-38900000D01*
X97232200Y-27147000D02*
X97232200Y-38853000D01*
X97272200Y-27194000D02*
X97272200Y-38806000D01*
X97312200Y-27242000D02*
X97312200Y-38758000D01*
X97352200Y-27291000D02*
X97352200Y-38709000D01*
X97392200Y-27341000D02*
X97392200Y-38659000D01*
X97432200Y-27391000D02*
X97432200Y-38609000D01*
X97472200Y-27442000D02*
X97472200Y-38558000D01*
X97512200Y-27494000D02*
X97512200Y-38506000D01*
X97552200Y-27547000D02*
X97552200Y-38453000D01*
X97592200Y-27600000D02*
X97592200Y-38400000D01*
X97632200Y-27654000D02*
X97632200Y-38346000D01*
X97672200Y-27709000D02*
X97672200Y-38291000D01*
X97712200Y-27765000D02*
X97712200Y-38235000D01*
X97752200Y-27822000D02*
X97752200Y-38178000D01*
X97792200Y-27880000D02*
X97792200Y-38120000D01*
X97832200Y-27939000D02*
X97832200Y-38061000D01*
X97872200Y-27999000D02*
X97872200Y-38001000D01*
X97912200Y-28060000D02*
X97912200Y-37940000D01*
X97952200Y-28121000D02*
X97952200Y-37879000D01*
X97992200Y-28184000D02*
X97992200Y-37816000D01*
X98032200Y-28249000D02*
X98032200Y-37751000D01*
X98072200Y-28314000D02*
X98072200Y-37686000D01*
X98112200Y-28381000D02*
X98112200Y-37619000D01*
X98152200Y-28449000D02*
X98152200Y-37551000D01*
X98192200Y-28518000D02*
X98192200Y-37482000D01*
X98232200Y-28589000D02*
X98232200Y-37411000D01*
X98272200Y-28661000D02*
X98272200Y-37339000D01*
X98312200Y-28735000D02*
X98312200Y-37265000D01*
X98352200Y-28811000D02*
X98352200Y-37189000D01*
X98392200Y-28888000D02*
X98392200Y-37112000D01*
X98432200Y-28967000D02*
X98432200Y-37033000D01*
X98472200Y-29048000D02*
X98472200Y-36952000D01*
X98512200Y-29131000D02*
X98512200Y-36869000D01*
X98552200Y-29217000D02*
X98552200Y-36783000D01*
X98592200Y-29305000D02*
X98592200Y-36695000D01*
X98632200Y-29395000D02*
X98632200Y-36605000D01*
X98672200Y-29488000D02*
X98672200Y-36512000D01*
X98712200Y-29584000D02*
X98712200Y-36416000D01*
X98752200Y-29684000D02*
X98752200Y-36316000D01*
X98792200Y-29787000D02*
X98792200Y-36213000D01*
X98832200Y-29893000D02*
X98832200Y-36107000D01*
X98872200Y-30004000D02*
X98872200Y-35996000D01*
X98912200Y-30120000D02*
X98912200Y-35880000D01*
X98952200Y-30241000D02*
X98952200Y-35759000D01*
X98992200Y-30369000D02*
X98992200Y-35631000D01*
X99032200Y-30503000D02*
X99032200Y-35497000D01*
X99072200Y-30645000D02*
X99072200Y-35355000D01*
X99112200Y-30798000D02*
X99112200Y-35202000D01*
X99152200Y-30962000D02*
X99152200Y-35038000D01*
X99192200Y-31141000D02*
X99192200Y-34859000D01*
X99232200Y-31339000D02*
X99232200Y-34661000D01*
X99272200Y-31565000D02*
X99272200Y-34435000D01*
X99312200Y-31835000D02*
X99312200Y-34165000D01*
X99352200Y-32187000D02*
X99352200Y-33813000D01*
X99392200Y-33040000D02*
X99392200Y-32960000D01*
X99392200Y-33000000D02*
G75*
G02*
X81152200Y-33000000I-9120000J0D01*
G01*
X81152200Y-33000000D02*
G75*
G02*
X99392200Y-33000000I9120000J0D01*
G01*
%TO.C,R4*%
X34730000Y-76630000D02*
X41270000Y-76630000D01*
X34730000Y-76960000D02*
X34730000Y-76630000D01*
X34730000Y-79040000D02*
X34730000Y-79370000D01*
X34730000Y-79370000D02*
X41270000Y-79370000D01*
X41270000Y-76630000D02*
X41270000Y-76960000D01*
X41270000Y-79370000D02*
X41270000Y-79040000D01*
%TO.C,C5*%
X65687602Y-75685000D02*
X66487602Y-75685000D01*
X66087602Y-75285000D02*
X66087602Y-76085000D01*
X70097300Y-73920000D02*
X70097300Y-82080000D01*
X70137300Y-73920000D02*
X70137300Y-82080000D01*
X70177300Y-73921000D02*
X70177300Y-82079000D01*
X70217300Y-73922000D02*
X70217300Y-82078000D01*
X70257300Y-73923000D02*
X70257300Y-82077000D01*
X70297300Y-73925000D02*
X70297300Y-82075000D01*
X70337300Y-73927000D02*
X70337300Y-82073000D01*
X70377300Y-73930000D02*
X70377300Y-82070000D01*
X70417300Y-73932000D02*
X70417300Y-82068000D01*
X70457300Y-73936000D02*
X70457300Y-82064000D01*
X70497300Y-73939000D02*
X70497300Y-82061000D01*
X70537300Y-73944000D02*
X70537300Y-82056000D01*
X70577300Y-73948000D02*
X70577300Y-82052000D01*
X70617300Y-73953000D02*
X70617300Y-82047000D01*
X70657300Y-73958000D02*
X70657300Y-82042000D01*
X70697300Y-73964000D02*
X70697300Y-82036000D01*
X70737300Y-73970000D02*
X70737300Y-82030000D01*
X70777300Y-73977000D02*
X70777300Y-82023000D01*
X70817300Y-73983000D02*
X70817300Y-76960000D01*
X70817300Y-79040000D02*
X70817300Y-82017000D01*
X70857300Y-73991000D02*
X70857300Y-76960000D01*
X70857300Y-79040000D02*
X70857300Y-82009000D01*
X70897300Y-73998000D02*
X70897300Y-76960000D01*
X70897300Y-79040000D02*
X70897300Y-82002000D01*
X70937300Y-74007000D02*
X70937300Y-76960000D01*
X70937300Y-79040000D02*
X70937300Y-81993000D01*
X70977300Y-74015000D02*
X70977300Y-76960000D01*
X70977300Y-79040000D02*
X70977300Y-81985000D01*
X71017300Y-74024000D02*
X71017300Y-76960000D01*
X71017300Y-79040000D02*
X71017300Y-81976000D01*
X71057300Y-74033000D02*
X71057300Y-76960000D01*
X71057300Y-79040000D02*
X71057300Y-81967000D01*
X71097300Y-74043000D02*
X71097300Y-76960000D01*
X71097300Y-79040000D02*
X71097300Y-81957000D01*
X71137300Y-74053000D02*
X71137300Y-76960000D01*
X71137300Y-79040000D02*
X71137300Y-81947000D01*
X71177300Y-74064000D02*
X71177300Y-76960000D01*
X71177300Y-79040000D02*
X71177300Y-81936000D01*
X71217300Y-74075000D02*
X71217300Y-76960000D01*
X71217300Y-79040000D02*
X71217300Y-81925000D01*
X71257300Y-74087000D02*
X71257300Y-76960000D01*
X71257300Y-79040000D02*
X71257300Y-81913000D01*
X71297300Y-74099000D02*
X71297300Y-76960000D01*
X71297300Y-79040000D02*
X71297300Y-81901000D01*
X71337300Y-74111000D02*
X71337300Y-76960000D01*
X71337300Y-79040000D02*
X71337300Y-81889000D01*
X71377300Y-74124000D02*
X71377300Y-76960000D01*
X71377300Y-79040000D02*
X71377300Y-81876000D01*
X71417300Y-74137000D02*
X71417300Y-76960000D01*
X71417300Y-79040000D02*
X71417300Y-81863000D01*
X71457300Y-74151000D02*
X71457300Y-76960000D01*
X71457300Y-79040000D02*
X71457300Y-81849000D01*
X71497300Y-74165000D02*
X71497300Y-76960000D01*
X71497300Y-79040000D02*
X71497300Y-81835000D01*
X71537300Y-74180000D02*
X71537300Y-76960000D01*
X71537300Y-79040000D02*
X71537300Y-81820000D01*
X71577300Y-74195000D02*
X71577300Y-76960000D01*
X71577300Y-79040000D02*
X71577300Y-81805000D01*
X71617300Y-74211000D02*
X71617300Y-76960000D01*
X71617300Y-79040000D02*
X71617300Y-81789000D01*
X71657300Y-74227000D02*
X71657300Y-76960000D01*
X71657300Y-79040000D02*
X71657300Y-81773000D01*
X71697300Y-74243000D02*
X71697300Y-76960000D01*
X71697300Y-79040000D02*
X71697300Y-81757000D01*
X71737300Y-74260000D02*
X71737300Y-76960000D01*
X71737300Y-79040000D02*
X71737300Y-81740000D01*
X71777300Y-74278000D02*
X71777300Y-76960000D01*
X71777300Y-79040000D02*
X71777300Y-81722000D01*
X71817300Y-74296000D02*
X71817300Y-76960000D01*
X71817300Y-79040000D02*
X71817300Y-81704000D01*
X71857300Y-74315000D02*
X71857300Y-76960000D01*
X71857300Y-79040000D02*
X71857300Y-81685000D01*
X71897300Y-74334000D02*
X71897300Y-76960000D01*
X71897300Y-79040000D02*
X71897300Y-81666000D01*
X71937300Y-74354000D02*
X71937300Y-76960000D01*
X71937300Y-79040000D02*
X71937300Y-81646000D01*
X71977300Y-74374000D02*
X71977300Y-76960000D01*
X71977300Y-79040000D02*
X71977300Y-81626000D01*
X72017300Y-74395000D02*
X72017300Y-76960000D01*
X72017300Y-79040000D02*
X72017300Y-81605000D01*
X72057300Y-74416000D02*
X72057300Y-76960000D01*
X72057300Y-79040000D02*
X72057300Y-81584000D01*
X72097300Y-74438000D02*
X72097300Y-76960000D01*
X72097300Y-79040000D02*
X72097300Y-81562000D01*
X72137300Y-74461000D02*
X72137300Y-76960000D01*
X72137300Y-79040000D02*
X72137300Y-81539000D01*
X72177300Y-74484000D02*
X72177300Y-76960000D01*
X72177300Y-79040000D02*
X72177300Y-81516000D01*
X72217300Y-74507000D02*
X72217300Y-76960000D01*
X72217300Y-79040000D02*
X72217300Y-81493000D01*
X72257300Y-74532000D02*
X72257300Y-76960000D01*
X72257300Y-79040000D02*
X72257300Y-81468000D01*
X72297300Y-74557000D02*
X72297300Y-76960000D01*
X72297300Y-79040000D02*
X72297300Y-81443000D01*
X72337300Y-74582000D02*
X72337300Y-76960000D01*
X72337300Y-79040000D02*
X72337300Y-81418000D01*
X72377300Y-74608000D02*
X72377300Y-76960000D01*
X72377300Y-79040000D02*
X72377300Y-81392000D01*
X72417300Y-74635000D02*
X72417300Y-76960000D01*
X72417300Y-79040000D02*
X72417300Y-81365000D01*
X72457300Y-74663000D02*
X72457300Y-76960000D01*
X72457300Y-79040000D02*
X72457300Y-81337000D01*
X72497300Y-74691000D02*
X72497300Y-76960000D01*
X72497300Y-79040000D02*
X72497300Y-81309000D01*
X72537300Y-74720000D02*
X72537300Y-76960000D01*
X72537300Y-79040000D02*
X72537300Y-81280000D01*
X72577300Y-74750000D02*
X72577300Y-76960000D01*
X72577300Y-79040000D02*
X72577300Y-81250000D01*
X72617300Y-74781000D02*
X72617300Y-76960000D01*
X72617300Y-79040000D02*
X72617300Y-81219000D01*
X72657300Y-74812000D02*
X72657300Y-76960000D01*
X72657300Y-79040000D02*
X72657300Y-81188000D01*
X72697300Y-74844000D02*
X72697300Y-76960000D01*
X72697300Y-79040000D02*
X72697300Y-81156000D01*
X72737300Y-74877000D02*
X72737300Y-76960000D01*
X72737300Y-79040000D02*
X72737300Y-81123000D01*
X72777300Y-74911000D02*
X72777300Y-76960000D01*
X72777300Y-79040000D02*
X72777300Y-81089000D01*
X72817300Y-74945000D02*
X72817300Y-76960000D01*
X72817300Y-79040000D02*
X72817300Y-81055000D01*
X72857300Y-74981000D02*
X72857300Y-76960000D01*
X72857300Y-79040000D02*
X72857300Y-81019000D01*
X72897300Y-75018000D02*
X72897300Y-80982000D01*
X72937300Y-75055000D02*
X72937300Y-80945000D01*
X72977300Y-75094000D02*
X72977300Y-80906000D01*
X73017300Y-75133000D02*
X73017300Y-80867000D01*
X73057300Y-75174000D02*
X73057300Y-80826000D01*
X73097300Y-75216000D02*
X73097300Y-80784000D01*
X73137300Y-75259000D02*
X73137300Y-80741000D01*
X73177300Y-75304000D02*
X73177300Y-80696000D01*
X73217300Y-75349000D02*
X73217300Y-80651000D01*
X73257300Y-75396000D02*
X73257300Y-80604000D01*
X73297300Y-75445000D02*
X73297300Y-80555000D01*
X73337300Y-75495000D02*
X73337300Y-80505000D01*
X73377300Y-75547000D02*
X73377300Y-80453000D01*
X73417300Y-75600000D02*
X73417300Y-80400000D01*
X73457300Y-75656000D02*
X73457300Y-80344000D01*
X73497300Y-75713000D02*
X73497300Y-80287000D01*
X73537300Y-75773000D02*
X73537300Y-80227000D01*
X73577300Y-75835000D02*
X73577300Y-80165000D01*
X73617300Y-75899000D02*
X73617300Y-80101000D01*
X73657300Y-75966000D02*
X73657300Y-80034000D01*
X73697300Y-76036000D02*
X73697300Y-79964000D01*
X73737300Y-76110000D02*
X73737300Y-79890000D01*
X73777300Y-76187000D02*
X73777300Y-79813000D01*
X73817300Y-76269000D02*
X73817300Y-79731000D01*
X73857300Y-76356000D02*
X73857300Y-79644000D01*
X73897300Y-76448000D02*
X73897300Y-79552000D01*
X73937300Y-76547000D02*
X73937300Y-79453000D01*
X73977300Y-76654000D02*
X73977300Y-79346000D01*
X74017300Y-76772000D02*
X74017300Y-79228000D01*
X74057300Y-76903000D02*
X74057300Y-79097000D01*
X74097300Y-77053000D02*
X74097300Y-78947000D01*
X74137300Y-77232000D02*
X74137300Y-78768000D01*
X74177300Y-77467000D02*
X74177300Y-78533000D01*
X74217300Y-78000000D02*
G75*
G02*
X65977300Y-78000000I-4120000J0D01*
G01*
X65977300Y-78000000D02*
G75*
G02*
X74217300Y-78000000I4120000J0D01*
G01*
%TO.C,R5*%
X34730000Y-45630000D02*
X41270000Y-45630000D01*
X34730000Y-45960000D02*
X34730000Y-45630000D01*
X34730000Y-48040000D02*
X34730000Y-48370000D01*
X34730000Y-48370000D02*
X41270000Y-48370000D01*
X41270000Y-45630000D02*
X41270000Y-45960000D01*
X41270000Y-48370000D02*
X41270000Y-48040000D01*
%TO.C,C3*%
X100512760Y-27885000D02*
X102312760Y-27885000D01*
X101412760Y-26985000D02*
X101412760Y-28785000D01*
X110272200Y-23920000D02*
X110272200Y-42080000D01*
X110312200Y-23920000D02*
X110312200Y-42080000D01*
X110352200Y-23920000D02*
X110352200Y-42080000D01*
X110392200Y-23921000D02*
X110392200Y-42079000D01*
X110432200Y-23921000D02*
X110432200Y-42079000D01*
X110472200Y-23922000D02*
X110472200Y-42078000D01*
X110512200Y-23923000D02*
X110512200Y-42077000D01*
X110552200Y-23924000D02*
X110552200Y-42076000D01*
X110592200Y-23926000D02*
X110592200Y-42074000D01*
X110632200Y-23927000D02*
X110632200Y-42073000D01*
X110672200Y-23929000D02*
X110672200Y-42071000D01*
X110712200Y-23931000D02*
X110712200Y-42069000D01*
X110752200Y-23933000D02*
X110752200Y-42067000D01*
X110792200Y-23935000D02*
X110792200Y-42065000D01*
X110832200Y-23937000D02*
X110832200Y-42063000D01*
X110872200Y-23940000D02*
X110872200Y-42060000D01*
X110912200Y-23942000D02*
X110912200Y-42058000D01*
X110952200Y-23945000D02*
X110952200Y-42055000D01*
X110992200Y-23948000D02*
X110992200Y-42052000D01*
X111032200Y-23952000D02*
X111032200Y-42048000D01*
X111072200Y-23955000D02*
X111072200Y-42045000D01*
X111112200Y-23959000D02*
X111112200Y-42041000D01*
X111152200Y-23963000D02*
X111152200Y-42037000D01*
X111192200Y-23967000D02*
X111192200Y-42033000D01*
X111232200Y-23971000D02*
X111232200Y-42029000D01*
X111272200Y-23975000D02*
X111272200Y-42025000D01*
X111312200Y-23979000D02*
X111312200Y-42021000D01*
X111352200Y-23984000D02*
X111352200Y-42016000D01*
X111392200Y-23989000D02*
X111392200Y-42011000D01*
X111432200Y-23994000D02*
X111432200Y-42006000D01*
X111472200Y-23999000D02*
X111472200Y-42001000D01*
X111512200Y-24005000D02*
X111512200Y-41995000D01*
X111552200Y-24010000D02*
X111552200Y-41990000D01*
X111592200Y-24016000D02*
X111592200Y-41984000D01*
X111632200Y-24022000D02*
X111632200Y-41978000D01*
X111672200Y-24028000D02*
X111672200Y-41972000D01*
X111712200Y-24034000D02*
X111712200Y-41966000D01*
X111752200Y-24041000D02*
X111752200Y-41959000D01*
X111792200Y-24048000D02*
X111792200Y-41952000D01*
X111832200Y-24054000D02*
X111832200Y-41946000D01*
X111872200Y-24061000D02*
X111872200Y-41939000D01*
X111912200Y-24069000D02*
X111912200Y-41931000D01*
X111952200Y-24076000D02*
X111952200Y-41924000D01*
X111992200Y-24084000D02*
X111992200Y-41916000D01*
X112032200Y-24091000D02*
X112032200Y-41909000D01*
X112072200Y-24099000D02*
X112072200Y-41901000D01*
X112112200Y-24108000D02*
X112112200Y-41892000D01*
X112152200Y-24116000D02*
X112152200Y-41884000D01*
X112192200Y-24124000D02*
X112192200Y-41876000D01*
X112232200Y-24133000D02*
X112232200Y-41867000D01*
X112272200Y-24142000D02*
X112272200Y-41858000D01*
X112312200Y-24151000D02*
X112312200Y-41849000D01*
X112352200Y-24160000D02*
X112352200Y-41840000D01*
X112392200Y-24170000D02*
X112392200Y-41830000D01*
X112432200Y-24179000D02*
X112432200Y-41821000D01*
X112472200Y-24189000D02*
X112472200Y-41811000D01*
X112512200Y-24199000D02*
X112512200Y-41801000D01*
X112552200Y-24210000D02*
X112552200Y-41790000D01*
X112592200Y-24220000D02*
X112592200Y-31560000D01*
X112592200Y-34440000D02*
X112592200Y-41780000D01*
X112632200Y-24231000D02*
X112632200Y-31560000D01*
X112632200Y-34440000D02*
X112632200Y-41769000D01*
X112672200Y-24241000D02*
X112672200Y-31560000D01*
X112672200Y-34440000D02*
X112672200Y-41759000D01*
X112712200Y-24252000D02*
X112712200Y-31560000D01*
X112712200Y-34440000D02*
X112712200Y-41748000D01*
X112752200Y-24264000D02*
X112752200Y-31560000D01*
X112752200Y-34440000D02*
X112752200Y-41736000D01*
X112792200Y-24275000D02*
X112792200Y-31560000D01*
X112792200Y-34440000D02*
X112792200Y-41725000D01*
X112832200Y-24287000D02*
X112832200Y-31560000D01*
X112832200Y-34440000D02*
X112832200Y-41713000D01*
X112872200Y-24298000D02*
X112872200Y-31560000D01*
X112872200Y-34440000D02*
X112872200Y-41702000D01*
X112912200Y-24310000D02*
X112912200Y-31560000D01*
X112912200Y-34440000D02*
X112912200Y-41690000D01*
X112952200Y-24323000D02*
X112952200Y-31560000D01*
X112952200Y-34440000D02*
X112952200Y-41677000D01*
X112992200Y-24335000D02*
X112992200Y-31560000D01*
X112992200Y-34440000D02*
X112992200Y-41665000D01*
X113032200Y-24348000D02*
X113032200Y-31560000D01*
X113032200Y-34440000D02*
X113032200Y-41652000D01*
X113072200Y-24360000D02*
X113072200Y-31560000D01*
X113072200Y-34440000D02*
X113072200Y-41640000D01*
X113112200Y-24373000D02*
X113112200Y-31560000D01*
X113112200Y-34440000D02*
X113112200Y-41627000D01*
X113152200Y-24387000D02*
X113152200Y-31560000D01*
X113152200Y-34440000D02*
X113152200Y-41613000D01*
X113192200Y-24400000D02*
X113192200Y-31560000D01*
X113192200Y-34440000D02*
X113192200Y-41600000D01*
X113232200Y-24414000D02*
X113232200Y-31560000D01*
X113232200Y-34440000D02*
X113232200Y-41586000D01*
X113272200Y-24428000D02*
X113272200Y-31560000D01*
X113272200Y-34440000D02*
X113272200Y-41572000D01*
X113312200Y-24442000D02*
X113312200Y-31560000D01*
X113312200Y-34440000D02*
X113312200Y-41558000D01*
X113352200Y-24456000D02*
X113352200Y-31560000D01*
X113352200Y-34440000D02*
X113352200Y-41544000D01*
X113392200Y-24470000D02*
X113392200Y-31560000D01*
X113392200Y-34440000D02*
X113392200Y-41530000D01*
X113432200Y-24485000D02*
X113432200Y-31560000D01*
X113432200Y-34440000D02*
X113432200Y-41515000D01*
X113472200Y-24500000D02*
X113472200Y-31560000D01*
X113472200Y-34440000D02*
X113472200Y-41500000D01*
X113512200Y-24515000D02*
X113512200Y-31560000D01*
X113512200Y-34440000D02*
X113512200Y-41485000D01*
X113552200Y-24530000D02*
X113552200Y-31560000D01*
X113552200Y-34440000D02*
X113552200Y-41470000D01*
X113592200Y-24546000D02*
X113592200Y-31560000D01*
X113592200Y-34440000D02*
X113592200Y-41454000D01*
X113632200Y-24562000D02*
X113632200Y-31560000D01*
X113632200Y-34440000D02*
X113632200Y-41438000D01*
X113672200Y-24577000D02*
X113672200Y-31560000D01*
X113672200Y-34440000D02*
X113672200Y-41423000D01*
X113712200Y-24594000D02*
X113712200Y-31560000D01*
X113712200Y-34440000D02*
X113712200Y-41406000D01*
X113752200Y-24610000D02*
X113752200Y-31560000D01*
X113752200Y-34440000D02*
X113752200Y-41390000D01*
X113792200Y-24627000D02*
X113792200Y-31560000D01*
X113792200Y-34440000D02*
X113792200Y-41373000D01*
X113832200Y-24644000D02*
X113832200Y-31560000D01*
X113832200Y-34440000D02*
X113832200Y-41356000D01*
X113872200Y-24661000D02*
X113872200Y-31560000D01*
X113872200Y-34440000D02*
X113872200Y-41339000D01*
X113912200Y-24678000D02*
X113912200Y-31560000D01*
X113912200Y-34440000D02*
X113912200Y-41322000D01*
X113952200Y-24695000D02*
X113952200Y-31560000D01*
X113952200Y-34440000D02*
X113952200Y-41305000D01*
X113992200Y-24713000D02*
X113992200Y-31560000D01*
X113992200Y-34440000D02*
X113992200Y-41287000D01*
X114032200Y-24731000D02*
X114032200Y-31560000D01*
X114032200Y-34440000D02*
X114032200Y-41269000D01*
X114072200Y-24749000D02*
X114072200Y-31560000D01*
X114072200Y-34440000D02*
X114072200Y-41251000D01*
X114112200Y-24768000D02*
X114112200Y-31560000D01*
X114112200Y-34440000D02*
X114112200Y-41232000D01*
X114152200Y-24787000D02*
X114152200Y-31560000D01*
X114152200Y-34440000D02*
X114152200Y-41213000D01*
X114192200Y-24805000D02*
X114192200Y-31560000D01*
X114192200Y-34440000D02*
X114192200Y-41195000D01*
X114232200Y-24825000D02*
X114232200Y-31560000D01*
X114232200Y-34440000D02*
X114232200Y-41175000D01*
X114272200Y-24844000D02*
X114272200Y-31560000D01*
X114272200Y-34440000D02*
X114272200Y-41156000D01*
X114312200Y-24864000D02*
X114312200Y-31560000D01*
X114312200Y-34440000D02*
X114312200Y-41136000D01*
X114352200Y-24884000D02*
X114352200Y-31560000D01*
X114352200Y-34440000D02*
X114352200Y-41116000D01*
X114392200Y-24904000D02*
X114392200Y-31560000D01*
X114392200Y-34440000D02*
X114392200Y-41096000D01*
X114432200Y-24924000D02*
X114432200Y-31560000D01*
X114432200Y-34440000D02*
X114432200Y-41076000D01*
X114472200Y-24945000D02*
X114472200Y-31560000D01*
X114472200Y-34440000D02*
X114472200Y-41055000D01*
X114512200Y-24966000D02*
X114512200Y-31560000D01*
X114512200Y-34440000D02*
X114512200Y-41034000D01*
X114552200Y-24987000D02*
X114552200Y-31560000D01*
X114552200Y-34440000D02*
X114552200Y-41013000D01*
X114592200Y-25008000D02*
X114592200Y-31560000D01*
X114592200Y-34440000D02*
X114592200Y-40992000D01*
X114632200Y-25030000D02*
X114632200Y-31560000D01*
X114632200Y-34440000D02*
X114632200Y-40970000D01*
X114672200Y-25052000D02*
X114672200Y-31560000D01*
X114672200Y-34440000D02*
X114672200Y-40948000D01*
X114712200Y-25074000D02*
X114712200Y-31560000D01*
X114712200Y-34440000D02*
X114712200Y-40926000D01*
X114752200Y-25096000D02*
X114752200Y-31560000D01*
X114752200Y-34440000D02*
X114752200Y-40904000D01*
X114792200Y-25119000D02*
X114792200Y-31560000D01*
X114792200Y-34440000D02*
X114792200Y-40881000D01*
X114832200Y-25142000D02*
X114832200Y-31560000D01*
X114832200Y-34440000D02*
X114832200Y-40858000D01*
X114872200Y-25165000D02*
X114872200Y-31560000D01*
X114872200Y-34440000D02*
X114872200Y-40835000D01*
X114912200Y-25189000D02*
X114912200Y-31560000D01*
X114912200Y-34440000D02*
X114912200Y-40811000D01*
X114952200Y-25212000D02*
X114952200Y-31560000D01*
X114952200Y-34440000D02*
X114952200Y-40788000D01*
X114992200Y-25236000D02*
X114992200Y-31560000D01*
X114992200Y-34440000D02*
X114992200Y-40764000D01*
X115032200Y-25261000D02*
X115032200Y-31560000D01*
X115032200Y-34440000D02*
X115032200Y-40739000D01*
X115072200Y-25285000D02*
X115072200Y-31560000D01*
X115072200Y-34440000D02*
X115072200Y-40715000D01*
X115112200Y-25310000D02*
X115112200Y-31560000D01*
X115112200Y-34440000D02*
X115112200Y-40690000D01*
X115152200Y-25335000D02*
X115152200Y-31560000D01*
X115152200Y-34440000D02*
X115152200Y-40665000D01*
X115192200Y-25361000D02*
X115192200Y-31560000D01*
X115192200Y-34440000D02*
X115192200Y-40639000D01*
X115232200Y-25387000D02*
X115232200Y-31560000D01*
X115232200Y-34440000D02*
X115232200Y-40613000D01*
X115272200Y-25413000D02*
X115272200Y-31560000D01*
X115272200Y-34440000D02*
X115272200Y-40587000D01*
X115312200Y-25439000D02*
X115312200Y-31560000D01*
X115312200Y-34440000D02*
X115312200Y-40561000D01*
X115352200Y-25466000D02*
X115352200Y-31560000D01*
X115352200Y-34440000D02*
X115352200Y-40534000D01*
X115392200Y-25493000D02*
X115392200Y-31560000D01*
X115392200Y-34440000D02*
X115392200Y-40507000D01*
X115432200Y-25520000D02*
X115432200Y-31560000D01*
X115432200Y-34440000D02*
X115432200Y-40480000D01*
X115472200Y-25548000D02*
X115472200Y-40452000D01*
X115512200Y-25576000D02*
X115512200Y-40424000D01*
X115552200Y-25604000D02*
X115552200Y-40396000D01*
X115592200Y-25632000D02*
X115592200Y-40368000D01*
X115632200Y-25661000D02*
X115632200Y-40339000D01*
X115672200Y-25691000D02*
X115672200Y-40309000D01*
X115712200Y-25720000D02*
X115712200Y-40280000D01*
X115752200Y-25750000D02*
X115752200Y-40250000D01*
X115792200Y-25780000D02*
X115792200Y-40220000D01*
X115832200Y-25811000D02*
X115832200Y-40189000D01*
X115872200Y-25842000D02*
X115872200Y-40158000D01*
X115912200Y-25873000D02*
X115912200Y-40127000D01*
X115952200Y-25905000D02*
X115952200Y-40095000D01*
X115992200Y-25937000D02*
X115992200Y-40063000D01*
X116032200Y-25969000D02*
X116032200Y-40031000D01*
X116072200Y-26002000D02*
X116072200Y-39998000D01*
X116112200Y-26035000D02*
X116112200Y-39965000D01*
X116152200Y-26069000D02*
X116152200Y-39931000D01*
X116192200Y-26103000D02*
X116192200Y-39897000D01*
X116232200Y-26137000D02*
X116232200Y-39863000D01*
X116272200Y-26172000D02*
X116272200Y-39828000D01*
X116312200Y-26207000D02*
X116312200Y-39793000D01*
X116352200Y-26242000D02*
X116352200Y-39758000D01*
X116392200Y-26278000D02*
X116392200Y-39722000D01*
X116432200Y-26315000D02*
X116432200Y-39685000D01*
X116472200Y-26352000D02*
X116472200Y-39648000D01*
X116512200Y-26389000D02*
X116512200Y-39611000D01*
X116552200Y-26427000D02*
X116552200Y-39573000D01*
X116592200Y-26465000D02*
X116592200Y-39535000D01*
X116632200Y-26504000D02*
X116632200Y-39496000D01*
X116672200Y-26543000D02*
X116672200Y-39457000D01*
X116712200Y-26582000D02*
X116712200Y-39418000D01*
X116752200Y-26623000D02*
X116752200Y-39377000D01*
X116792200Y-26663000D02*
X116792200Y-39337000D01*
X116832200Y-26704000D02*
X116832200Y-39296000D01*
X116872200Y-26746000D02*
X116872200Y-39254000D01*
X116912200Y-26788000D02*
X116912200Y-39212000D01*
X116952200Y-26831000D02*
X116952200Y-39169000D01*
X116992200Y-26874000D02*
X116992200Y-39126000D01*
X117032200Y-26918000D02*
X117032200Y-39082000D01*
X117072200Y-26963000D02*
X117072200Y-39037000D01*
X117112200Y-27008000D02*
X117112200Y-38992000D01*
X117152200Y-27053000D02*
X117152200Y-38947000D01*
X117192200Y-27100000D02*
X117192200Y-38900000D01*
X117232200Y-27147000D02*
X117232200Y-38853000D01*
X117272200Y-27194000D02*
X117272200Y-38806000D01*
X117312200Y-27242000D02*
X117312200Y-38758000D01*
X117352200Y-27291000D02*
X117352200Y-38709000D01*
X117392200Y-27341000D02*
X117392200Y-38659000D01*
X117432200Y-27391000D02*
X117432200Y-38609000D01*
X117472200Y-27442000D02*
X117472200Y-38558000D01*
X117512200Y-27494000D02*
X117512200Y-38506000D01*
X117552200Y-27547000D02*
X117552200Y-38453000D01*
X117592200Y-27600000D02*
X117592200Y-38400000D01*
X117632200Y-27654000D02*
X117632200Y-38346000D01*
X117672200Y-27709000D02*
X117672200Y-38291000D01*
X117712200Y-27765000D02*
X117712200Y-38235000D01*
X117752200Y-27822000D02*
X117752200Y-38178000D01*
X117792200Y-27880000D02*
X117792200Y-38120000D01*
X117832200Y-27939000D02*
X117832200Y-38061000D01*
X117872200Y-27999000D02*
X117872200Y-38001000D01*
X117912200Y-28060000D02*
X117912200Y-37940000D01*
X117952200Y-28121000D02*
X117952200Y-37879000D01*
X117992200Y-28184000D02*
X117992200Y-37816000D01*
X118032200Y-28249000D02*
X118032200Y-37751000D01*
X118072200Y-28314000D02*
X118072200Y-37686000D01*
X118112200Y-28381000D02*
X118112200Y-37619000D01*
X118152200Y-28449000D02*
X118152200Y-37551000D01*
X118192200Y-28518000D02*
X118192200Y-37482000D01*
X118232200Y-28589000D02*
X118232200Y-37411000D01*
X118272200Y-28661000D02*
X118272200Y-37339000D01*
X118312200Y-28735000D02*
X118312200Y-37265000D01*
X118352200Y-28811000D02*
X118352200Y-37189000D01*
X118392200Y-28888000D02*
X118392200Y-37112000D01*
X118432200Y-28967000D02*
X118432200Y-37033000D01*
X118472200Y-29048000D02*
X118472200Y-36952000D01*
X118512200Y-29131000D02*
X118512200Y-36869000D01*
X118552200Y-29217000D02*
X118552200Y-36783000D01*
X118592200Y-29305000D02*
X118592200Y-36695000D01*
X118632200Y-29395000D02*
X118632200Y-36605000D01*
X118672200Y-29488000D02*
X118672200Y-36512000D01*
X118712200Y-29584000D02*
X118712200Y-36416000D01*
X118752200Y-29684000D02*
X118752200Y-36316000D01*
X118792200Y-29787000D02*
X118792200Y-36213000D01*
X118832200Y-29893000D02*
X118832200Y-36107000D01*
X118872200Y-30004000D02*
X118872200Y-35996000D01*
X118912200Y-30120000D02*
X118912200Y-35880000D01*
X118952200Y-30241000D02*
X118952200Y-35759000D01*
X118992200Y-30369000D02*
X118992200Y-35631000D01*
X119032200Y-30503000D02*
X119032200Y-35497000D01*
X119072200Y-30645000D02*
X119072200Y-35355000D01*
X119112200Y-30798000D02*
X119112200Y-35202000D01*
X119152200Y-30962000D02*
X119152200Y-35038000D01*
X119192200Y-31141000D02*
X119192200Y-34859000D01*
X119232200Y-31339000D02*
X119232200Y-34661000D01*
X119272200Y-31565000D02*
X119272200Y-34435000D01*
X119312200Y-31835000D02*
X119312200Y-34165000D01*
X119352200Y-32187000D02*
X119352200Y-33813000D01*
X119392200Y-33040000D02*
X119392200Y-32960000D01*
X119392200Y-33000000D02*
G75*
G02*
X101152200Y-33000000I-9120000J0D01*
G01*
X101152200Y-33000000D02*
G75*
G02*
X119392200Y-33000000I9120000J0D01*
G01*
%TO.C,C4*%
X87380000Y-46630000D02*
X92620000Y-46630000D01*
X87380000Y-46967000D02*
X87380000Y-46630000D01*
X87380000Y-49370000D02*
X87380000Y-49033000D01*
X92620000Y-46630000D02*
X92620000Y-46967000D01*
X92620000Y-49033000D02*
X92620000Y-49370000D01*
X92620000Y-49370000D02*
X87380000Y-49370000D01*
%TO.C,U1*%
X75750000Y-46860000D02*
X75750000Y-57140000D01*
X75750000Y-57140000D02*
X80250000Y-57140000D01*
X77000000Y-46860000D02*
X75750000Y-46860000D01*
X80250000Y-46860000D02*
X79000000Y-46860000D01*
X80250000Y-57140000D02*
X80250000Y-46860000D01*
X79000000Y-46860000D02*
G75*
G02*
X77000000Y-46860000I-1000000J0D01*
G01*
%TO.C,DZ1*%
X71230000Y-66000000D02*
X71880000Y-66000000D01*
X72480000Y-64880000D02*
X72480000Y-67120000D01*
X72600000Y-64880000D02*
X72600000Y-67120000D01*
X72720000Y-64880000D02*
X72720000Y-67120000D01*
X76770000Y-66000000D02*
X76120000Y-66000000D01*
X71880000Y-64880000D02*
X76120000Y-64880000D01*
X76120000Y-67120000D01*
X71880000Y-67120000D01*
X71880000Y-64880000D01*
%TO.C,R2*%
X46730000Y-64630000D02*
X53270000Y-64630000D01*
X46730000Y-64960000D02*
X46730000Y-64630000D01*
X46730000Y-67040000D02*
X46730000Y-67370000D01*
X46730000Y-67370000D02*
X53270000Y-67370000D01*
X53270000Y-64630000D02*
X53270000Y-64960000D01*
X53270000Y-67370000D02*
X53270000Y-67040000D01*
%TO.C,R1*%
X34730000Y-64630000D02*
X41270000Y-64630000D01*
X34730000Y-64960000D02*
X34730000Y-64630000D01*
X34730000Y-67040000D02*
X34730000Y-67370000D01*
X34730000Y-67370000D02*
X41270000Y-67370000D01*
X41270000Y-64630000D02*
X41270000Y-64960000D01*
X41270000Y-67370000D02*
X41270000Y-67040000D01*
%TO.C,C6*%
X83380000Y-64630000D02*
X88620000Y-64630000D01*
X83380000Y-64967000D02*
X83380000Y-64630000D01*
X83380000Y-67370000D02*
X83380000Y-67033000D01*
X88620000Y-64630000D02*
X88620000Y-64967000D01*
X88620000Y-67033000D02*
X88620000Y-67370000D01*
X88620000Y-67370000D02*
X83380000Y-67370000D01*
%TO.C,R3*%
X58730000Y-64630000D02*
X65270000Y-64630000D01*
X58730000Y-64960000D02*
X58730000Y-64630000D01*
X58730000Y-67040000D02*
X58730000Y-67370000D01*
X58730000Y-67370000D02*
X65270000Y-67370000D01*
X65270000Y-64630000D02*
X65270000Y-64960000D01*
X65270000Y-67370000D02*
X65270000Y-67040000D01*
%TD*%
M02*
