%TF.GenerationSoftware,KiCad,Pcbnew,9.0.6*%
%TF.CreationDate,2026-06-10T07:38:54+02:00*%
%TF.ProjectId,mppt,6d707074-2e6b-4696-9361-645f70636258,rev?*%
%TF.SameCoordinates,Original*%
%TF.FileFunction,Copper,L2,Bot*%
%TF.FilePolarity,Positive*%
%FSLAX46Y46*%
G04 Gerber Fmt 4.6, Leading zero omitted, Abs format (unit mm)*
G04 Created by KiCad (PCBNEW 9.0.6) date 2026-06-10 07:38:54*
%MOMM*%
%LPD*%
G01*
G04 APERTURE LIST*
G04 Aperture macros list*
%AMRoundRect*
0 Rectangle with rounded corners*
0 $1 Rounding radius*
0 $2 $3 $4 $5 $6 $7 $8 $9 X,Y pos of 4 corners*
0 Add a 4 corners polygon primitive as box body*
4,1,4,$2,$3,$4,$5,$6,$7,$8,$9,$2,$3,0*
0 Add four circle primitives for the rounded corners*
1,1,$1+$1,$2,$3*
1,1,$1+$1,$4,$5*
1,1,$1+$1,$6,$7*
1,1,$1+$1,$8,$9*
0 Add four rect primitives between the rounded corners*
20,1,$1+$1,$2,$3,$4,$5,0*
20,1,$1+$1,$4,$5,$6,$7,0*
20,1,$1+$1,$6,$7,$8,$9,0*
20,1,$1+$1,$8,$9,$2,$3,0*%
G04 Aperture macros list end*
%ADD10C,0.300000*%
%TA.AperFunction,NonConductor*%
%ADD11C,0.300000*%
%TD*%
%TA.AperFunction,ComponentPad*%
%ADD12C,1.600000*%
%TD*%
%TA.AperFunction,ComponentPad*%
%ADD13R,3.000000X3.000000*%
%TD*%
%TA.AperFunction,ComponentPad*%
%ADD14C,3.000000*%
%TD*%
%TA.AperFunction,ComponentPad*%
%ADD15RoundRect,0.250001X-0.949999X-0.949999X0.949999X-0.949999X0.949999X0.949999X-0.949999X0.949999X0*%
%TD*%
%TA.AperFunction,ComponentPad*%
%ADD16C,2.400000*%
%TD*%
%TA.AperFunction,ComponentPad*%
%ADD17RoundRect,0.250000X-0.550000X-0.550000X0.550000X-0.550000X0.550000X0.550000X-0.550000X0.550000X0*%
%TD*%
%TA.AperFunction,ComponentPad*%
%ADD18R,1.700000X1.700000*%
%TD*%
%TA.AperFunction,ComponentPad*%
%ADD19C,1.700000*%
%TD*%
%TA.AperFunction,ComponentPad*%
%ADD20R,1.700000X2.000000*%
%TD*%
%TA.AperFunction,ComponentPad*%
%ADD21O,1.700000X2.000000*%
%TD*%
%TA.AperFunction,ComponentPad*%
%ADD22RoundRect,0.249999X-0.850001X-0.850001X0.850001X-0.850001X0.850001X0.850001X-0.850001X0.850001X0*%
%TD*%
%TA.AperFunction,ComponentPad*%
%ADD23C,2.200000*%
%TD*%
%TA.AperFunction,ComponentPad*%
%ADD24RoundRect,0.250000X-0.950000X-0.550000X0.950000X-0.550000X0.950000X0.550000X-0.950000X0.550000X0*%
%TD*%
%TA.AperFunction,ComponentPad*%
%ADD25O,2.400000X1.600000*%
%TD*%
%TA.AperFunction,ViaPad*%
%ADD26C,0.600000*%
%TD*%
%TA.AperFunction,Conductor*%
%ADD27C,1.000000*%
%TD*%
G04 APERTURE END LIST*
D10*
D11*
X62249999Y-76903328D02*
X62749999Y-76189042D01*
X63107142Y-76903328D02*
X63107142Y-75403328D01*
X63107142Y-75403328D02*
X62535713Y-75403328D01*
X62535713Y-75403328D02*
X62392856Y-75474757D01*
X62392856Y-75474757D02*
X62321427Y-75546185D01*
X62321427Y-75546185D02*
X62249999Y-75689042D01*
X62249999Y-75689042D02*
X62249999Y-75903328D01*
X62249999Y-75903328D02*
X62321427Y-76046185D01*
X62321427Y-76046185D02*
X62392856Y-76117614D01*
X62392856Y-76117614D02*
X62535713Y-76189042D01*
X62535713Y-76189042D02*
X63107142Y-76189042D01*
X61678570Y-75546185D02*
X61607142Y-75474757D01*
X61607142Y-75474757D02*
X61464285Y-75403328D01*
X61464285Y-75403328D02*
X61107142Y-75403328D01*
X61107142Y-75403328D02*
X60964285Y-75474757D01*
X60964285Y-75474757D02*
X60892856Y-75546185D01*
X60892856Y-75546185D02*
X60821427Y-75689042D01*
X60821427Y-75689042D02*
X60821427Y-75831900D01*
X60821427Y-75831900D02*
X60892856Y-76046185D01*
X60892856Y-76046185D02*
X61749999Y-76903328D01*
X61749999Y-76903328D02*
X60821427Y-76903328D01*
D10*
D11*
X56164999Y-51953328D02*
X56664999Y-51239042D01*
X57022142Y-51953328D02*
X57022142Y-50453328D01*
X57022142Y-50453328D02*
X56450713Y-50453328D01*
X56450713Y-50453328D02*
X56307856Y-50524757D01*
X56307856Y-50524757D02*
X56236427Y-50596185D01*
X56236427Y-50596185D02*
X56164999Y-50739042D01*
X56164999Y-50739042D02*
X56164999Y-50953328D01*
X56164999Y-50953328D02*
X56236427Y-51096185D01*
X56236427Y-51096185D02*
X56307856Y-51167614D01*
X56307856Y-51167614D02*
X56450713Y-51239042D01*
X56450713Y-51239042D02*
X57022142Y-51239042D01*
X55307856Y-51096185D02*
X55450713Y-51024757D01*
X55450713Y-51024757D02*
X55522142Y-50953328D01*
X55522142Y-50953328D02*
X55593570Y-50810471D01*
X55593570Y-50810471D02*
X55593570Y-50739042D01*
X55593570Y-50739042D02*
X55522142Y-50596185D01*
X55522142Y-50596185D02*
X55450713Y-50524757D01*
X55450713Y-50524757D02*
X55307856Y-50453328D01*
X55307856Y-50453328D02*
X55022142Y-50453328D01*
X55022142Y-50453328D02*
X54879285Y-50524757D01*
X54879285Y-50524757D02*
X54807856Y-50596185D01*
X54807856Y-50596185D02*
X54736427Y-50739042D01*
X54736427Y-50739042D02*
X54736427Y-50810471D01*
X54736427Y-50810471D02*
X54807856Y-50953328D01*
X54807856Y-50953328D02*
X54879285Y-51024757D01*
X54879285Y-51024757D02*
X55022142Y-51096185D01*
X55022142Y-51096185D02*
X55307856Y-51096185D01*
X55307856Y-51096185D02*
X55450713Y-51167614D01*
X55450713Y-51167614D02*
X55522142Y-51239042D01*
X55522142Y-51239042D02*
X55593570Y-51381900D01*
X55593570Y-51381900D02*
X55593570Y-51667614D01*
X55593570Y-51667614D02*
X55522142Y-51810471D01*
X55522142Y-51810471D02*
X55450713Y-51881900D01*
X55450713Y-51881900D02*
X55307856Y-51953328D01*
X55307856Y-51953328D02*
X55022142Y-51953328D01*
X55022142Y-51953328D02*
X54879285Y-51881900D01*
X54879285Y-51881900D02*
X54807856Y-51810471D01*
X54807856Y-51810471D02*
X54736427Y-51667614D01*
X54736427Y-51667614D02*
X54736427Y-51381900D01*
X54736427Y-51381900D02*
X54807856Y-51239042D01*
X54807856Y-51239042D02*
X54879285Y-51167614D01*
X54879285Y-51167614D02*
X55022142Y-51096185D01*
D10*
D11*
X53002759Y-31535471D02*
X53074187Y-31606900D01*
X53074187Y-31606900D02*
X53288473Y-31678328D01*
X53288473Y-31678328D02*
X53431330Y-31678328D01*
X53431330Y-31678328D02*
X53645616Y-31606900D01*
X53645616Y-31606900D02*
X53788473Y-31464042D01*
X53788473Y-31464042D02*
X53859902Y-31321185D01*
X53859902Y-31321185D02*
X53931330Y-31035471D01*
X53931330Y-31035471D02*
X53931330Y-30821185D01*
X53931330Y-30821185D02*
X53859902Y-30535471D01*
X53859902Y-30535471D02*
X53788473Y-30392614D01*
X53788473Y-30392614D02*
X53645616Y-30249757D01*
X53645616Y-30249757D02*
X53431330Y-30178328D01*
X53431330Y-30178328D02*
X53288473Y-30178328D01*
X53288473Y-30178328D02*
X53074187Y-30249757D01*
X53074187Y-30249757D02*
X53002759Y-30321185D01*
X51574187Y-31678328D02*
X52431330Y-31678328D01*
X52002759Y-31678328D02*
X52002759Y-30178328D01*
X52002759Y-30178328D02*
X52145616Y-30392614D01*
X52145616Y-30392614D02*
X52288473Y-30535471D01*
X52288473Y-30535471D02*
X52431330Y-30606900D01*
D10*
D11*
X120142857Y-39146185D02*
X120285714Y-39074757D01*
X120285714Y-39074757D02*
X120428571Y-38931900D01*
X120428571Y-38931900D02*
X120642857Y-38717614D01*
X120642857Y-38717614D02*
X120785714Y-38646185D01*
X120785714Y-38646185D02*
X120928571Y-38646185D01*
X120857142Y-39003328D02*
X121000000Y-38931900D01*
X121000000Y-38931900D02*
X121142857Y-38789042D01*
X121142857Y-38789042D02*
X121214285Y-38503328D01*
X121214285Y-38503328D02*
X121214285Y-38003328D01*
X121214285Y-38003328D02*
X121142857Y-37717614D01*
X121142857Y-37717614D02*
X121000000Y-37574757D01*
X121000000Y-37574757D02*
X120857142Y-37503328D01*
X120857142Y-37503328D02*
X120571428Y-37503328D01*
X120571428Y-37503328D02*
X120428571Y-37574757D01*
X120428571Y-37574757D02*
X120285714Y-37717614D01*
X120285714Y-37717614D02*
X120214285Y-38003328D01*
X120214285Y-38003328D02*
X120214285Y-38503328D01*
X120214285Y-38503328D02*
X120285714Y-38789042D01*
X120285714Y-38789042D02*
X120428571Y-38931900D01*
X120428571Y-38931900D02*
X120571428Y-39003328D01*
X120571428Y-39003328D02*
X120857142Y-39003328D01*
X118785713Y-39003328D02*
X119642856Y-39003328D01*
X119214285Y-39003328D02*
X119214285Y-37503328D01*
X119214285Y-37503328D02*
X119357142Y-37717614D01*
X119357142Y-37717614D02*
X119499999Y-37860471D01*
X119499999Y-37860471D02*
X119642856Y-37931900D01*
D10*
D11*
X152474999Y-27178328D02*
X152474999Y-28249757D01*
X152474999Y-28249757D02*
X152546428Y-28464042D01*
X152546428Y-28464042D02*
X152689285Y-28606900D01*
X152689285Y-28606900D02*
X152903571Y-28678328D01*
X152903571Y-28678328D02*
X153046428Y-28678328D01*
X151832142Y-27321185D02*
X151760714Y-27249757D01*
X151760714Y-27249757D02*
X151617857Y-27178328D01*
X151617857Y-27178328D02*
X151260714Y-27178328D01*
X151260714Y-27178328D02*
X151117857Y-27249757D01*
X151117857Y-27249757D02*
X151046428Y-27321185D01*
X151046428Y-27321185D02*
X150974999Y-27464042D01*
X150974999Y-27464042D02*
X150974999Y-27606900D01*
X150974999Y-27606900D02*
X151046428Y-27821185D01*
X151046428Y-27821185D02*
X151903571Y-28678328D01*
X151903571Y-28678328D02*
X150974999Y-28678328D01*
D10*
D11*
X96249999Y-75260471D02*
X96321427Y-75331900D01*
X96321427Y-75331900D02*
X96535713Y-75403328D01*
X96535713Y-75403328D02*
X96678570Y-75403328D01*
X96678570Y-75403328D02*
X96892856Y-75331900D01*
X96892856Y-75331900D02*
X97035713Y-75189042D01*
X97035713Y-75189042D02*
X97107142Y-75046185D01*
X97107142Y-75046185D02*
X97178570Y-74760471D01*
X97178570Y-74760471D02*
X97178570Y-74546185D01*
X97178570Y-74546185D02*
X97107142Y-74260471D01*
X97107142Y-74260471D02*
X97035713Y-74117614D01*
X97035713Y-74117614D02*
X96892856Y-73974757D01*
X96892856Y-73974757D02*
X96678570Y-73903328D01*
X96678570Y-73903328D02*
X96535713Y-73903328D01*
X96535713Y-73903328D02*
X96321427Y-73974757D01*
X96321427Y-73974757D02*
X96249999Y-74046185D01*
X94964285Y-73903328D02*
X95249999Y-73903328D01*
X95249999Y-73903328D02*
X95392856Y-73974757D01*
X95392856Y-73974757D02*
X95464285Y-74046185D01*
X95464285Y-74046185D02*
X95607142Y-74260471D01*
X95607142Y-74260471D02*
X95678570Y-74546185D01*
X95678570Y-74546185D02*
X95678570Y-75117614D01*
X95678570Y-75117614D02*
X95607142Y-75260471D01*
X95607142Y-75260471D02*
X95535713Y-75331900D01*
X95535713Y-75331900D02*
X95392856Y-75403328D01*
X95392856Y-75403328D02*
X95107142Y-75403328D01*
X95107142Y-75403328D02*
X94964285Y-75331900D01*
X94964285Y-75331900D02*
X94892856Y-75260471D01*
X94892856Y-75260471D02*
X94821427Y-75117614D01*
X94821427Y-75117614D02*
X94821427Y-74760471D01*
X94821427Y-74760471D02*
X94892856Y-74617614D01*
X94892856Y-74617614D02*
X94964285Y-74546185D01*
X94964285Y-74546185D02*
X95107142Y-74474757D01*
X95107142Y-74474757D02*
X95392856Y-74474757D01*
X95392856Y-74474757D02*
X95535713Y-74546185D01*
X95535713Y-74546185D02*
X95607142Y-74617614D01*
X95607142Y-74617614D02*
X95678570Y-74760471D01*
D10*
D11*
X50249999Y-65953328D02*
X50749999Y-65239042D01*
X51107142Y-65953328D02*
X51107142Y-64453328D01*
X51107142Y-64453328D02*
X50535713Y-64453328D01*
X50535713Y-64453328D02*
X50392856Y-64524757D01*
X50392856Y-64524757D02*
X50321427Y-64596185D01*
X50321427Y-64596185D02*
X50249999Y-64739042D01*
X50249999Y-64739042D02*
X50249999Y-64953328D01*
X50249999Y-64953328D02*
X50321427Y-65096185D01*
X50321427Y-65096185D02*
X50392856Y-65167614D01*
X50392856Y-65167614D02*
X50535713Y-65239042D01*
X50535713Y-65239042D02*
X51107142Y-65239042D01*
X48821427Y-65953328D02*
X49678570Y-65953328D01*
X49249999Y-65953328D02*
X49249999Y-64453328D01*
X49249999Y-64453328D02*
X49392856Y-64667614D01*
X49392856Y-64667614D02*
X49535713Y-64810471D01*
X49535713Y-64810471D02*
X49678570Y-64881900D01*
D10*
D11*
X133249950Y-50510471D02*
X133321378Y-50581900D01*
X133321378Y-50581900D02*
X133535664Y-50653328D01*
X133535664Y-50653328D02*
X133678521Y-50653328D01*
X133678521Y-50653328D02*
X133892807Y-50581900D01*
X133892807Y-50581900D02*
X134035664Y-50439042D01*
X134035664Y-50439042D02*
X134107093Y-50296185D01*
X134107093Y-50296185D02*
X134178521Y-50010471D01*
X134178521Y-50010471D02*
X134178521Y-49796185D01*
X134178521Y-49796185D02*
X134107093Y-49510471D01*
X134107093Y-49510471D02*
X134035664Y-49367614D01*
X134035664Y-49367614D02*
X133892807Y-49224757D01*
X133892807Y-49224757D02*
X133678521Y-49153328D01*
X133678521Y-49153328D02*
X133535664Y-49153328D01*
X133535664Y-49153328D02*
X133321378Y-49224757D01*
X133321378Y-49224757D02*
X133249950Y-49296185D01*
X131892807Y-49153328D02*
X132607093Y-49153328D01*
X132607093Y-49153328D02*
X132678521Y-49867614D01*
X132678521Y-49867614D02*
X132607093Y-49796185D01*
X132607093Y-49796185D02*
X132464236Y-49724757D01*
X132464236Y-49724757D02*
X132107093Y-49724757D01*
X132107093Y-49724757D02*
X131964236Y-49796185D01*
X131964236Y-49796185D02*
X131892807Y-49867614D01*
X131892807Y-49867614D02*
X131821378Y-50010471D01*
X131821378Y-50010471D02*
X131821378Y-50367614D01*
X131821378Y-50367614D02*
X131892807Y-50510471D01*
X131892807Y-50510471D02*
X131964236Y-50581900D01*
X131964236Y-50581900D02*
X132107093Y-50653328D01*
X132107093Y-50653328D02*
X132464236Y-50653328D01*
X132464236Y-50653328D02*
X132607093Y-50581900D01*
X132607093Y-50581900D02*
X132678521Y-50510471D01*
D10*
D11*
X56249999Y-36453328D02*
X56749999Y-35739042D01*
X57107142Y-36453328D02*
X57107142Y-34953328D01*
X57107142Y-34953328D02*
X56535713Y-34953328D01*
X56535713Y-34953328D02*
X56392856Y-35024757D01*
X56392856Y-35024757D02*
X56321427Y-35096185D01*
X56321427Y-35096185D02*
X56249999Y-35239042D01*
X56249999Y-35239042D02*
X56249999Y-35453328D01*
X56249999Y-35453328D02*
X56321427Y-35596185D01*
X56321427Y-35596185D02*
X56392856Y-35667614D01*
X56392856Y-35667614D02*
X56535713Y-35739042D01*
X56535713Y-35739042D02*
X57107142Y-35739042D01*
X54964285Y-34953328D02*
X55249999Y-34953328D01*
X55249999Y-34953328D02*
X55392856Y-35024757D01*
X55392856Y-35024757D02*
X55464285Y-35096185D01*
X55464285Y-35096185D02*
X55607142Y-35310471D01*
X55607142Y-35310471D02*
X55678570Y-35596185D01*
X55678570Y-35596185D02*
X55678570Y-36167614D01*
X55678570Y-36167614D02*
X55607142Y-36310471D01*
X55607142Y-36310471D02*
X55535713Y-36381900D01*
X55535713Y-36381900D02*
X55392856Y-36453328D01*
X55392856Y-36453328D02*
X55107142Y-36453328D01*
X55107142Y-36453328D02*
X54964285Y-36381900D01*
X54964285Y-36381900D02*
X54892856Y-36310471D01*
X54892856Y-36310471D02*
X54821427Y-36167614D01*
X54821427Y-36167614D02*
X54821427Y-35810471D01*
X54821427Y-35810471D02*
X54892856Y-35667614D01*
X54892856Y-35667614D02*
X54964285Y-35596185D01*
X54964285Y-35596185D02*
X55107142Y-35524757D01*
X55107142Y-35524757D02*
X55392856Y-35524757D01*
X55392856Y-35524757D02*
X55535713Y-35596185D01*
X55535713Y-35596185D02*
X55607142Y-35667614D01*
X55607142Y-35667614D02*
X55678570Y-35810471D01*
D10*
D11*
X83834999Y-76903328D02*
X84334999Y-76189042D01*
X84692142Y-76903328D02*
X84692142Y-75403328D01*
X84692142Y-75403328D02*
X84120713Y-75403328D01*
X84120713Y-75403328D02*
X83977856Y-75474757D01*
X83977856Y-75474757D02*
X83906427Y-75546185D01*
X83906427Y-75546185D02*
X83834999Y-75689042D01*
X83834999Y-75689042D02*
X83834999Y-75903328D01*
X83834999Y-75903328D02*
X83906427Y-76046185D01*
X83906427Y-76046185D02*
X83977856Y-76117614D01*
X83977856Y-76117614D02*
X84120713Y-76189042D01*
X84120713Y-76189042D02*
X84692142Y-76189042D01*
X83334999Y-75403328D02*
X82406427Y-75403328D01*
X82406427Y-75403328D02*
X82906427Y-75974757D01*
X82906427Y-75974757D02*
X82692142Y-75974757D01*
X82692142Y-75974757D02*
X82549285Y-76046185D01*
X82549285Y-76046185D02*
X82477856Y-76117614D01*
X82477856Y-76117614D02*
X82406427Y-76260471D01*
X82406427Y-76260471D02*
X82406427Y-76617614D01*
X82406427Y-76617614D02*
X82477856Y-76760471D01*
X82477856Y-76760471D02*
X82549285Y-76831900D01*
X82549285Y-76831900D02*
X82692142Y-76903328D01*
X82692142Y-76903328D02*
X83120713Y-76903328D01*
X83120713Y-76903328D02*
X83263570Y-76831900D01*
X83263570Y-76831900D02*
X83334999Y-76760471D01*
D10*
D11*
X148994999Y-67213328D02*
X148994999Y-68284757D01*
X148994999Y-68284757D02*
X149066428Y-68499042D01*
X149066428Y-68499042D02*
X149209285Y-68641900D01*
X149209285Y-68641900D02*
X149423571Y-68713328D01*
X149423571Y-68713328D02*
X149566428Y-68713328D01*
X148423571Y-67213328D02*
X147494999Y-67213328D01*
X147494999Y-67213328D02*
X147994999Y-67784757D01*
X147994999Y-67784757D02*
X147780714Y-67784757D01*
X147780714Y-67784757D02*
X147637857Y-67856185D01*
X147637857Y-67856185D02*
X147566428Y-67927614D01*
X147566428Y-67927614D02*
X147494999Y-68070471D01*
X147494999Y-68070471D02*
X147494999Y-68427614D01*
X147494999Y-68427614D02*
X147566428Y-68570471D01*
X147566428Y-68570471D02*
X147637857Y-68641900D01*
X147637857Y-68641900D02*
X147780714Y-68713328D01*
X147780714Y-68713328D02*
X148209285Y-68713328D01*
X148209285Y-68713328D02*
X148352142Y-68641900D01*
X148352142Y-68641900D02*
X148423571Y-68570471D01*
D10*
D11*
X93002759Y-42510471D02*
X93074187Y-42581900D01*
X93074187Y-42581900D02*
X93288473Y-42653328D01*
X93288473Y-42653328D02*
X93431330Y-42653328D01*
X93431330Y-42653328D02*
X93645616Y-42581900D01*
X93645616Y-42581900D02*
X93788473Y-42439042D01*
X93788473Y-42439042D02*
X93859902Y-42296185D01*
X93859902Y-42296185D02*
X93931330Y-42010471D01*
X93931330Y-42010471D02*
X93931330Y-41796185D01*
X93931330Y-41796185D02*
X93859902Y-41510471D01*
X93859902Y-41510471D02*
X93788473Y-41367614D01*
X93788473Y-41367614D02*
X93645616Y-41224757D01*
X93645616Y-41224757D02*
X93431330Y-41153328D01*
X93431330Y-41153328D02*
X93288473Y-41153328D01*
X93288473Y-41153328D02*
X93074187Y-41224757D01*
X93074187Y-41224757D02*
X93002759Y-41296185D01*
X92502759Y-41153328D02*
X91574187Y-41153328D01*
X91574187Y-41153328D02*
X92074187Y-41724757D01*
X92074187Y-41724757D02*
X91859902Y-41724757D01*
X91859902Y-41724757D02*
X91717045Y-41796185D01*
X91717045Y-41796185D02*
X91645616Y-41867614D01*
X91645616Y-41867614D02*
X91574187Y-42010471D01*
X91574187Y-42010471D02*
X91574187Y-42367614D01*
X91574187Y-42367614D02*
X91645616Y-42510471D01*
X91645616Y-42510471D02*
X91717045Y-42581900D01*
X91717045Y-42581900D02*
X91859902Y-42653328D01*
X91859902Y-42653328D02*
X92288473Y-42653328D01*
X92288473Y-42653328D02*
X92431330Y-42581900D01*
X92431330Y-42581900D02*
X92502759Y-42510471D01*
D10*
D11*
X93249999Y-60260471D02*
X93321427Y-60331900D01*
X93321427Y-60331900D02*
X93535713Y-60403328D01*
X93535713Y-60403328D02*
X93678570Y-60403328D01*
X93678570Y-60403328D02*
X93892856Y-60331900D01*
X93892856Y-60331900D02*
X94035713Y-60189042D01*
X94035713Y-60189042D02*
X94107142Y-60046185D01*
X94107142Y-60046185D02*
X94178570Y-59760471D01*
X94178570Y-59760471D02*
X94178570Y-59546185D01*
X94178570Y-59546185D02*
X94107142Y-59260471D01*
X94107142Y-59260471D02*
X94035713Y-59117614D01*
X94035713Y-59117614D02*
X93892856Y-58974757D01*
X93892856Y-58974757D02*
X93678570Y-58903328D01*
X93678570Y-58903328D02*
X93535713Y-58903328D01*
X93535713Y-58903328D02*
X93321427Y-58974757D01*
X93321427Y-58974757D02*
X93249999Y-59046185D01*
X91964285Y-59403328D02*
X91964285Y-60403328D01*
X92321427Y-58831900D02*
X92678570Y-59903328D01*
X92678570Y-59903328D02*
X91749999Y-59903328D01*
D10*
D11*
X79736428Y-75153328D02*
X79736428Y-73653328D01*
X79736428Y-73653328D02*
X79379285Y-73653328D01*
X79379285Y-73653328D02*
X79164999Y-73724757D01*
X79164999Y-73724757D02*
X79022142Y-73867614D01*
X79022142Y-73867614D02*
X78950713Y-74010471D01*
X78950713Y-74010471D02*
X78879285Y-74296185D01*
X78879285Y-74296185D02*
X78879285Y-74510471D01*
X78879285Y-74510471D02*
X78950713Y-74796185D01*
X78950713Y-74796185D02*
X79022142Y-74939042D01*
X79022142Y-74939042D02*
X79164999Y-75081900D01*
X79164999Y-75081900D02*
X79379285Y-75153328D01*
X79379285Y-75153328D02*
X79736428Y-75153328D01*
X78379285Y-73653328D02*
X77379285Y-73653328D01*
X77379285Y-73653328D02*
X78379285Y-75153328D01*
X78379285Y-75153328D02*
X77379285Y-75153328D01*
X76022142Y-75153328D02*
X76879285Y-75153328D01*
X76450714Y-75153328D02*
X76450714Y-73653328D01*
X76450714Y-73653328D02*
X76593571Y-73867614D01*
X76593571Y-73867614D02*
X76736428Y-74010471D01*
X76736428Y-74010471D02*
X76879285Y-74081900D01*
D10*
D11*
X50249999Y-53453328D02*
X50749999Y-52739042D01*
X51107142Y-53453328D02*
X51107142Y-51953328D01*
X51107142Y-51953328D02*
X50535713Y-51953328D01*
X50535713Y-51953328D02*
X50392856Y-52024757D01*
X50392856Y-52024757D02*
X50321427Y-52096185D01*
X50321427Y-52096185D02*
X50249999Y-52239042D01*
X50249999Y-52239042D02*
X50249999Y-52453328D01*
X50249999Y-52453328D02*
X50321427Y-52596185D01*
X50321427Y-52596185D02*
X50392856Y-52667614D01*
X50392856Y-52667614D02*
X50535713Y-52739042D01*
X50535713Y-52739042D02*
X51107142Y-52739042D01*
X49749999Y-51953328D02*
X48749999Y-51953328D01*
X48749999Y-51953328D02*
X49392856Y-53453328D01*
D10*
D11*
X28524999Y-27178328D02*
X28524999Y-28249757D01*
X28524999Y-28249757D02*
X28596428Y-28464042D01*
X28596428Y-28464042D02*
X28739285Y-28606900D01*
X28739285Y-28606900D02*
X28953571Y-28678328D01*
X28953571Y-28678328D02*
X29096428Y-28678328D01*
X27024999Y-28678328D02*
X27882142Y-28678328D01*
X27453571Y-28678328D02*
X27453571Y-27178328D01*
X27453571Y-27178328D02*
X27596428Y-27392614D01*
X27596428Y-27392614D02*
X27739285Y-27535471D01*
X27739285Y-27535471D02*
X27882142Y-27606900D01*
D10*
D11*
X84249979Y-42510471D02*
X84321407Y-42581900D01*
X84321407Y-42581900D02*
X84535693Y-42653328D01*
X84535693Y-42653328D02*
X84678550Y-42653328D01*
X84678550Y-42653328D02*
X84892836Y-42581900D01*
X84892836Y-42581900D02*
X85035693Y-42439042D01*
X85035693Y-42439042D02*
X85107122Y-42296185D01*
X85107122Y-42296185D02*
X85178550Y-42010471D01*
X85178550Y-42010471D02*
X85178550Y-41796185D01*
X85178550Y-41796185D02*
X85107122Y-41510471D01*
X85107122Y-41510471D02*
X85035693Y-41367614D01*
X85035693Y-41367614D02*
X84892836Y-41224757D01*
X84892836Y-41224757D02*
X84678550Y-41153328D01*
X84678550Y-41153328D02*
X84535693Y-41153328D01*
X84535693Y-41153328D02*
X84321407Y-41224757D01*
X84321407Y-41224757D02*
X84249979Y-41296185D01*
X83678550Y-41296185D02*
X83607122Y-41224757D01*
X83607122Y-41224757D02*
X83464265Y-41153328D01*
X83464265Y-41153328D02*
X83107122Y-41153328D01*
X83107122Y-41153328D02*
X82964265Y-41224757D01*
X82964265Y-41224757D02*
X82892836Y-41296185D01*
X82892836Y-41296185D02*
X82821407Y-41439042D01*
X82821407Y-41439042D02*
X82821407Y-41581900D01*
X82821407Y-41581900D02*
X82892836Y-41796185D01*
X82892836Y-41796185D02*
X83749979Y-42653328D01*
X83749979Y-42653328D02*
X82821407Y-42653328D01*
D10*
D11*
X41452142Y-24678328D02*
X41452142Y-23178328D01*
X41452142Y-23178328D02*
X41094999Y-23178328D01*
X41094999Y-23178328D02*
X40880713Y-23249757D01*
X40880713Y-23249757D02*
X40737856Y-23392614D01*
X40737856Y-23392614D02*
X40666427Y-23535471D01*
X40666427Y-23535471D02*
X40594999Y-23821185D01*
X40594999Y-23821185D02*
X40594999Y-24035471D01*
X40594999Y-24035471D02*
X40666427Y-24321185D01*
X40666427Y-24321185D02*
X40737856Y-24464042D01*
X40737856Y-24464042D02*
X40880713Y-24606900D01*
X40880713Y-24606900D02*
X41094999Y-24678328D01*
X41094999Y-24678328D02*
X41452142Y-24678328D01*
X39166427Y-24678328D02*
X40023570Y-24678328D01*
X39594999Y-24678328D02*
X39594999Y-23178328D01*
X39594999Y-23178328D02*
X39737856Y-23392614D01*
X39737856Y-23392614D02*
X39880713Y-23535471D01*
X39880713Y-23535471D02*
X40023570Y-23606900D01*
D10*
D11*
X46249999Y-45903328D02*
X46749999Y-45189042D01*
X47107142Y-45903328D02*
X47107142Y-44403328D01*
X47107142Y-44403328D02*
X46535713Y-44403328D01*
X46535713Y-44403328D02*
X46392856Y-44474757D01*
X46392856Y-44474757D02*
X46321427Y-44546185D01*
X46321427Y-44546185D02*
X46249999Y-44689042D01*
X46249999Y-44689042D02*
X46249999Y-44903328D01*
X46249999Y-44903328D02*
X46321427Y-45046185D01*
X46321427Y-45046185D02*
X46392856Y-45117614D01*
X46392856Y-45117614D02*
X46535713Y-45189042D01*
X46535713Y-45189042D02*
X47107142Y-45189042D01*
X44892856Y-44403328D02*
X45607142Y-44403328D01*
X45607142Y-44403328D02*
X45678570Y-45117614D01*
X45678570Y-45117614D02*
X45607142Y-45046185D01*
X45607142Y-45046185D02*
X45464285Y-44974757D01*
X45464285Y-44974757D02*
X45107142Y-44974757D01*
X45107142Y-44974757D02*
X44964285Y-45046185D01*
X44964285Y-45046185D02*
X44892856Y-45117614D01*
X44892856Y-45117614D02*
X44821427Y-45260471D01*
X44821427Y-45260471D02*
X44821427Y-45617614D01*
X44821427Y-45617614D02*
X44892856Y-45760471D01*
X44892856Y-45760471D02*
X44964285Y-45831900D01*
X44964285Y-45831900D02*
X45107142Y-45903328D01*
X45107142Y-45903328D02*
X45464285Y-45903328D01*
X45464285Y-45903328D02*
X45607142Y-45831900D01*
X45607142Y-45831900D02*
X45678570Y-45760471D01*
D12*
%TO.P,C6,1*%
%TO.N,/VREF*%
X93500000Y-70000000D03*
%TO.P,C6,2*%
%TO.N,GND*%
X98500000Y-70000000D03*
%TD*%
%TO.P,C4,1*%
%TO.N,/PV_BUS*%
X90500000Y-52000000D03*
%TO.P,C4,2*%
%TO.N,GND*%
X95500000Y-52000000D03*
%TD*%
D13*
%TO.P,J2,1*%
%TO.N,/V3_OUT*%
X142460000Y-28000000D03*
D14*
%TO.P,J2,2*%
%TO.N,GND*%
X147540000Y-28000000D03*
%TD*%
D15*
%TO.P,C3,1*%
%TO.N,/PV_BUS*%
X100522200Y-31000000D03*
D16*
%TO.P,C3,2*%
%TO.N,GND*%
X108022200Y-31000000D03*
%TD*%
D12*
%TO.P,R5,1*%
%TO.N,/PV_RET*%
X42190000Y-42000000D03*
%TO.P,R5,2*%
%TO.N,GND*%
X49810000Y-42000000D03*
%TD*%
D17*
%TO.P,DZ1,1*%
%TO.N,/VREF*%
X82190000Y-70000000D03*
D12*
%TO.P,DZ1,2*%
%TO.N,GND*%
X89810000Y-70000000D03*
%TD*%
D15*
%TO.P,C1,1*%
%TO.N,/PV_BUS*%
X60522200Y-31000000D03*
D16*
%TO.P,C1,2*%
%TO.N,GND*%
X68022200Y-31000000D03*
%TD*%
D18*
%TO.P,J3,1*%
%TO.N,/PV_V*%
X145000000Y-59460000D03*
D19*
%TO.P,J3,2*%
%TO.N,/PV_I*%
X145000000Y-62000000D03*
%TO.P,J3,3*%
%TO.N,GND*%
X145000000Y-64540000D03*
%TD*%
D12*
%TO.P,R6,1*%
%TO.N,/PV_RET*%
X59810000Y-42000000D03*
%TO.P,R6,2*%
%TO.N,GND*%
X52190000Y-42000000D03*
%TD*%
D20*
%TO.P,Q1,1*%
%TO.N,/Q1_B*%
X117460000Y-44950000D03*
D21*
%TO.P,Q1,2*%
%TO.N,/PV_BUS*%
X120000000Y-44950000D03*
%TO.P,Q1,3*%
%TO.N,/V3_OUT*%
X122540000Y-44950000D03*
%TD*%
D15*
%TO.P,C2,1*%
%TO.N,/PV_BUS*%
X80522200Y-31000000D03*
D16*
%TO.P,C2,2*%
%TO.N,GND*%
X88022200Y-31000000D03*
%TD*%
D22*
%TO.P,D1,1*%
%TO.N,/PV_BUS*%
X44920000Y-24000000D03*
D23*
%TO.P,D1,2*%
%TO.N,/PV_PLUS*%
X55080000Y-24000000D03*
%TD*%
D24*
%TO.P,U1,1*%
%TO.N,/U1A_OUT*%
X76190000Y-54190000D03*
D25*
%TO.P,U1,2*%
%TO.N,/V3_OUT*%
X76190000Y-56730000D03*
%TO.P,U1,3*%
%TO.N,/VREF*%
X76190000Y-59270000D03*
%TO.P,U1,4*%
%TO.N,GND*%
X76190000Y-61810000D03*
%TO.P,U1,5*%
X83810000Y-61810000D03*
%TO.P,U1,6*%
%TO.N,/U1B_FB*%
X83810000Y-59270000D03*
%TO.P,U1,7*%
%TO.N,/PV_I*%
X83810000Y-56730000D03*
%TO.P,U1,8*%
%TO.N,/PV_BUS*%
X83810000Y-54190000D03*
%TD*%
D12*
%TO.P,R1,1*%
%TO.N,/PV_BUS*%
X46190000Y-70000000D03*
%TO.P,R1,2*%
%TO.N,/PV_V*%
X53810000Y-70000000D03*
%TD*%
%TO.P,R8,1*%
%TO.N,/U1B_FB*%
X60190000Y-56000000D03*
%TO.P,R8,2*%
%TO.N,/PV_I*%
X67810000Y-56000000D03*
%TD*%
%TO.P,R4,1*%
%TO.N,/U1A_OUT*%
X102190000Y-52000000D03*
%TO.P,R4,2*%
%TO.N,/Q1_B*%
X109810000Y-52000000D03*
%TD*%
%TO.P,R3,1*%
%TO.N,/PV_BUS*%
X70190000Y-70000000D03*
%TO.P,R3,2*%
%TO.N,/VREF*%
X77810000Y-70000000D03*
%TD*%
D17*
%TO.P,C5,1*%
%TO.N,/V3_OUT*%
X131347300Y-44000000D03*
D12*
%TO.P,C5,2*%
%TO.N,GND*%
X134847300Y-44000000D03*
%TD*%
D13*
%TO.P,J1,1*%
%TO.N,/PV_PLUS*%
X37540000Y-28000000D03*
D14*
%TO.P,J1,2*%
%TO.N,/PV_RET*%
X32460000Y-28000000D03*
%TD*%
D12*
%TO.P,R2,1*%
%TO.N,/PV_V*%
X58190000Y-70000000D03*
%TO.P,R2,2*%
%TO.N,GND*%
X65810000Y-70000000D03*
%TD*%
%TO.P,R7,1*%
%TO.N,/PV_RET*%
X46190000Y-56000000D03*
%TO.P,R7,2*%
%TO.N,/U1B_FB*%
X53810000Y-56000000D03*
%TD*%
D26*
%TO.N,/PV_BUS*%
X105059500Y-45103100D03*
X65337900Y-51337800D03*
%TD*%
D27*
%TO.N,/PV_BUS*%
X60522200Y-25985500D02*
X60522200Y-28492700D01*
X78014900Y-28492700D02*
X60522200Y-28492700D01*
X56133300Y-21596600D02*
X60522200Y-25985500D01*
X100834600Y-31312400D02*
X100834600Y-33500200D01*
X88310000Y-54190000D02*
X83810000Y-54190000D01*
X105059500Y-37725000D02*
X105059500Y-45103100D01*
X80522200Y-31000000D02*
X78014900Y-28492700D01*
X70190000Y-70000000D02*
X68067700Y-72122300D01*
X68067700Y-72122300D02*
X48312300Y-72122300D01*
X100522200Y-31000000D02*
X112170500Y-42648300D01*
X120000000Y-44950000D02*
X120000000Y-42648300D01*
X44920000Y-24000000D02*
X47323400Y-21596600D01*
X48312300Y-72122300D02*
X46190000Y-70000000D01*
X90500000Y-52000000D02*
X88310000Y-54190000D01*
X47323400Y-21596600D02*
X56133300Y-21596600D01*
X49151500Y-72122300D02*
X49151500Y-71593900D01*
X100834600Y-33500200D02*
X100834700Y-33500200D01*
X49151500Y-71593900D02*
X65337900Y-55407500D01*
X65337900Y-55407500D02*
X65337900Y-51337800D01*
X60522200Y-28492700D02*
X60522200Y-31000000D01*
X100834700Y-33500200D02*
X105059500Y-37725000D01*
X100522200Y-31000000D02*
X100834600Y-31312400D01*
X112170500Y-42648300D02*
X120000000Y-42648300D01*
X105059500Y-37725000D02*
X107246800Y-37725000D01*
%TO.N,/PV_I*%
X145000000Y-62000000D02*
X146019100Y-62000000D01*
X81308300Y-60087300D02*
X81308300Y-56730000D01*
X147166800Y-58085400D02*
X145811400Y-56730000D01*
X83810000Y-56730000D02*
X81308300Y-56730000D01*
X147166800Y-60852300D02*
X147166800Y-58085400D01*
X146019100Y-62000000D02*
X147166800Y-60852300D01*
X67810000Y-58496900D02*
X73259000Y-63945900D01*
X67810000Y-56000000D02*
X67810000Y-58496900D01*
X145811400Y-56730000D02*
X83810000Y-56730000D01*
X77449700Y-63945900D02*
X81308300Y-60087300D01*
X73259000Y-63945900D02*
X77449700Y-63945900D01*
%TO.N,/PV_PLUS*%
X51080000Y-28000000D02*
X55080000Y-24000000D01*
X37540000Y-28000000D02*
X51080000Y-28000000D01*
%TO.N,/PV_RET*%
X42190000Y-42000000D02*
X42190000Y-52000000D01*
X59810000Y-42000000D02*
X57654100Y-39844100D01*
X57654100Y-39844100D02*
X44345900Y-39844100D01*
X32460000Y-28000000D02*
X32460000Y-32270000D01*
X42190000Y-52000000D02*
X46190000Y-56000000D01*
X44345900Y-39844100D02*
X42190000Y-42000000D01*
X32460000Y-32270000D02*
X42190000Y-42000000D01*
%TO.N,/PV_V*%
X58190000Y-70000000D02*
X53810000Y-70000000D01*
X62406500Y-65783500D02*
X102379700Y-65783500D01*
X102379700Y-65783500D02*
X108703200Y-59460000D01*
X108703200Y-59460000D02*
X145000000Y-59460000D01*
X58190000Y-70000000D02*
X62406500Y-65783500D01*
%TO.N,/U1A_OUT*%
X80509800Y-49870200D02*
X100060200Y-49870200D01*
X100060200Y-49870200D02*
X102190000Y-52000000D01*
X76190000Y-54190000D02*
X80509800Y-49870200D01*
%TO.N,/U1B_FB*%
X53810000Y-56000000D02*
X60190000Y-56000000D01*
%TO.N,/V3_OUT*%
X73631600Y-53014900D02*
X79394800Y-47251700D01*
X73631600Y-56673300D02*
X73631600Y-53014900D01*
X125641700Y-44000000D02*
X124691700Y-44950000D01*
X122540000Y-44950000D02*
X124691700Y-44950000D01*
X73688300Y-56730000D02*
X73631600Y-56673300D01*
X135741500Y-46119800D02*
X142460000Y-39401300D01*
X76190000Y-56730000D02*
X73688300Y-56730000D01*
X131347000Y-44000000D02*
X131347300Y-44000000D01*
X122540000Y-45261100D02*
X122540000Y-47251700D01*
X122540000Y-45261100D02*
X123398700Y-46119800D01*
X79394800Y-47251700D02*
X122540000Y-47251700D01*
X131347300Y-44000000D02*
X125641700Y-44000000D01*
X122540000Y-44950000D02*
X122540000Y-45261100D01*
X142460000Y-39401300D02*
X142460000Y-28000000D01*
X123398700Y-46119800D02*
X135741500Y-46119800D01*
%TO.N,/VREF*%
X84332100Y-72142100D02*
X91357900Y-72142100D01*
X82190000Y-70000000D02*
X77810000Y-70000000D01*
X91357900Y-72142100D02*
X93500000Y-70000000D01*
X82190000Y-70000000D02*
X84332100Y-72142100D01*
%TO.N,GND*%
X108022200Y-31000000D02*
X121847300Y-31000000D01*
X67927900Y-67882100D02*
X65810000Y-70000000D01*
X98428300Y-54928300D02*
X95500000Y-52000000D01*
X52190000Y-42000000D02*
X49810000Y-42000000D01*
X70829100Y-54281000D02*
X60669500Y-44121400D01*
X146557700Y-54928300D02*
X98428300Y-54928300D01*
X145000000Y-64540000D02*
X146066200Y-64540000D01*
X128189100Y-37341700D02*
X134847300Y-44000000D01*
X70829100Y-58950800D02*
X70829100Y-54281000D01*
X68022200Y-33532300D02*
X68022200Y-36768700D01*
X146066200Y-64540000D02*
X148968500Y-61637700D01*
X134847300Y-44000000D02*
X134847300Y-40192100D01*
X148968500Y-57339100D02*
X146557700Y-54928300D01*
X85489900Y-33532300D02*
X88022200Y-31000000D01*
X134847300Y-40192100D02*
X130092900Y-35437700D01*
X90568500Y-28453700D02*
X105475900Y-28453700D01*
X121847300Y-31000000D02*
X128189100Y-37341700D01*
X148968500Y-61637700D02*
X148968500Y-57339100D01*
X76190000Y-61810000D02*
X73688300Y-61810000D01*
X140332500Y-25198300D02*
X144738300Y-25198300D01*
X144738300Y-25198300D02*
X147540000Y-28000000D01*
X96382100Y-67882100D02*
X98500000Y-70000000D01*
X68022200Y-33532300D02*
X68022200Y-31000000D01*
X89810000Y-67882100D02*
X67927900Y-67882100D01*
X68022200Y-36768700D02*
X60669500Y-44121400D01*
X73688300Y-61810000D02*
X70829100Y-58950800D01*
X139540000Y-70000000D02*
X145000000Y-64540000D01*
X105475900Y-28453700D02*
X108022200Y-31000000D01*
X89810000Y-70000000D02*
X89810000Y-67882100D01*
X88022200Y-31000000D02*
X90568500Y-28453700D01*
X89810000Y-67882100D02*
X96382100Y-67882100D01*
X98500000Y-70000000D02*
X139540000Y-70000000D01*
X68022200Y-33532300D02*
X85489900Y-33532300D01*
X128189100Y-37341700D02*
X140332500Y-25198300D01*
X54311400Y-44121400D02*
X52190000Y-42000000D01*
X60669500Y-44121400D02*
X54311400Y-44121400D01*
%TD*%
%TA.AperFunction,NonConductor*%
G36*
X77491892Y-29812885D02*
G01*
X77512534Y-29829519D01*
X78485381Y-30802365D01*
X78518866Y-30863688D01*
X78521700Y-30890046D01*
X78521700Y-32001602D01*
X78530963Y-32095647D01*
X78517944Y-32164293D01*
X78469879Y-32215003D01*
X78407560Y-32231800D01*
X69835773Y-32231800D01*
X69768734Y-32212115D01*
X69722979Y-32159311D01*
X69713035Y-32090153D01*
X69728386Y-32045801D01*
X69820237Y-31886707D01*
X69820241Y-31886700D01*
X69820243Y-31886697D01*
X69920598Y-31644419D01*
X69988470Y-31391116D01*
X70022700Y-31131120D01*
X70022700Y-30868880D01*
X69988470Y-30608884D01*
X69920598Y-30355581D01*
X69920594Y-30355571D01*
X69820246Y-30113309D01*
X69820241Y-30113299D01*
X69742819Y-29979200D01*
X69726346Y-29911300D01*
X69749199Y-29845273D01*
X69804120Y-29802082D01*
X69850206Y-29793200D01*
X77424853Y-29793200D01*
X77491892Y-29812885D01*
G37*
%TD.AperFunction*%
%TA.AperFunction,NonConductor*%
G36*
X57131092Y-41164285D02*
G01*
X57151734Y-41180919D01*
X58202223Y-42231408D01*
X58235708Y-42292731D01*
X58237015Y-42299689D01*
X58248909Y-42374783D01*
X58326760Y-42614383D01*
X58340121Y-42640604D01*
X58353018Y-42709273D01*
X58326742Y-42774014D01*
X58269636Y-42814271D01*
X58229637Y-42820900D01*
X54901446Y-42820900D01*
X54834407Y-42801215D01*
X54813765Y-42784581D01*
X53797775Y-41768590D01*
X53764290Y-41707267D01*
X53762983Y-41700306D01*
X53751090Y-41625214D01*
X53691911Y-41443081D01*
X53673241Y-41385621D01*
X53673239Y-41385618D01*
X53673238Y-41385613D01*
X53642300Y-41324894D01*
X53629404Y-41256225D01*
X53655681Y-41191485D01*
X53712787Y-41151228D01*
X53752785Y-41144600D01*
X57064053Y-41144600D01*
X57131092Y-41164285D01*
G37*
%TD.AperFunction*%
%TA.AperFunction,NonConductor*%
G36*
X140078834Y-27393665D02*
G01*
X140134767Y-27435537D01*
X140159184Y-27501001D01*
X140159500Y-27509847D01*
X140159500Y-29544960D01*
X140174630Y-29679249D01*
X140174631Y-29679254D01*
X140234211Y-29849523D01*
X140315693Y-29979200D01*
X140330184Y-30002262D01*
X140457738Y-30129816D01*
X140610478Y-30225789D01*
X140711500Y-30261138D01*
X140780745Y-30285368D01*
X140780750Y-30285369D01*
X140871246Y-30295565D01*
X140915040Y-30300499D01*
X140915043Y-30300500D01*
X140915046Y-30300500D01*
X141035500Y-30300500D01*
X141102539Y-30320185D01*
X141148294Y-30372989D01*
X141159500Y-30424500D01*
X141159500Y-38811252D01*
X141139815Y-38878291D01*
X141123181Y-38898933D01*
X136548654Y-43473459D01*
X136487331Y-43506944D01*
X136417639Y-43501960D01*
X136361706Y-43460088D01*
X136343042Y-43424096D01*
X136330541Y-43385621D01*
X136216170Y-43161155D01*
X136207702Y-43149500D01*
X136171482Y-43099646D01*
X136148002Y-43033840D01*
X136147800Y-43026761D01*
X136147800Y-40089748D01*
X136117829Y-39900518D01*
X136115778Y-39887574D01*
X136115777Y-39887565D01*
X136068398Y-39741748D01*
X136052520Y-39692881D01*
X136052518Y-39692878D01*
X136052518Y-39692876D01*
X135974402Y-39539566D01*
X135974401Y-39539564D01*
X135959591Y-39510496D01*
X135959589Y-39510493D01*
X135959587Y-39510489D01*
X135839266Y-39344881D01*
X132019866Y-35525481D01*
X131986381Y-35464158D01*
X131991365Y-35394466D01*
X132019866Y-35350119D01*
X139947819Y-27422166D01*
X140009142Y-27388681D01*
X140078834Y-27393665D01*
G37*
%TD.AperFunction*%
%TA.AperFunction,NonConductor*%
G36*
X104952892Y-29773885D02*
G01*
X104973534Y-29790519D01*
X105985381Y-30802366D01*
X106018866Y-30863689D01*
X106021700Y-30890047D01*
X106021700Y-31131127D01*
X106048323Y-31333339D01*
X106055930Y-31391116D01*
X106123802Y-31644418D01*
X106123805Y-31644428D01*
X106224153Y-31886690D01*
X106224158Y-31886700D01*
X106355275Y-32113803D01*
X106514918Y-32321851D01*
X106514926Y-32321860D01*
X106700340Y-32507274D01*
X106700348Y-32507281D01*
X106908396Y-32666924D01*
X107135499Y-32798041D01*
X107135509Y-32798046D01*
X107377771Y-32898394D01*
X107377781Y-32898398D01*
X107631084Y-32966270D01*
X107891080Y-33000500D01*
X107891087Y-33000500D01*
X108153313Y-33000500D01*
X108153320Y-33000500D01*
X108413316Y-32966270D01*
X108666619Y-32898398D01*
X108859295Y-32818589D01*
X108908890Y-32798046D01*
X108908891Y-32798045D01*
X108908897Y-32798043D01*
X109136003Y-32666924D01*
X109344051Y-32507282D01*
X109344055Y-32507277D01*
X109344060Y-32507274D01*
X109514515Y-32336819D01*
X109575838Y-32303334D01*
X109602196Y-32300500D01*
X121257260Y-32300500D01*
X121324299Y-32320185D01*
X121344938Y-32336816D01*
X126285185Y-37276985D01*
X127271231Y-38263016D01*
X127271232Y-38263017D01*
X131195975Y-42187819D01*
X131229459Y-42249143D01*
X131224474Y-42318834D01*
X131182603Y-42374768D01*
X131117138Y-42399184D01*
X131108293Y-42399500D01*
X130745692Y-42399500D01*
X130707598Y-42403251D01*
X130591367Y-42414699D01*
X130393343Y-42474769D01*
X130210846Y-42572317D01*
X130090171Y-42671353D01*
X130025861Y-42698666D01*
X130011506Y-42699500D01*
X125744052Y-42699500D01*
X125539348Y-42699500D01*
X125492479Y-42706923D01*
X125337168Y-42731522D01*
X125337167Y-42731522D01*
X125278292Y-42750651D01*
X125278293Y-42750652D01*
X125142476Y-42794781D01*
X125093552Y-42819710D01*
X125093538Y-42819717D01*
X125091218Y-42820900D01*
X124960089Y-42887713D01*
X124920908Y-42916180D01*
X124915162Y-42920354D01*
X124915149Y-42920362D01*
X124794486Y-43008028D01*
X124794482Y-43008032D01*
X124189334Y-43613181D01*
X124128011Y-43646666D01*
X124101653Y-43649500D01*
X123775022Y-43649500D01*
X123707983Y-43629815D01*
X123687341Y-43613181D01*
X123615231Y-43541071D01*
X123615225Y-43541066D01*
X123405054Y-43388368D01*
X123405053Y-43388367D01*
X123405051Y-43388366D01*
X123332764Y-43351534D01*
X123173576Y-43270422D01*
X122926493Y-43190140D01*
X122669902Y-43149500D01*
X122669897Y-43149500D01*
X122410103Y-43149500D01*
X122410098Y-43149500D01*
X122153506Y-43190140D01*
X121906423Y-43270422D01*
X121674945Y-43388368D01*
X121497385Y-43517373D01*
X121431579Y-43540853D01*
X121363525Y-43525027D01*
X121314830Y-43474922D01*
X121300500Y-43417055D01*
X121300500Y-42545948D01*
X121268477Y-42343765D01*
X121205218Y-42149076D01*
X121171503Y-42082907D01*
X121112287Y-41966690D01*
X121104556Y-41956049D01*
X120991971Y-41801086D01*
X120847213Y-41656328D01*
X120681613Y-41536015D01*
X120681612Y-41536014D01*
X120681610Y-41536013D01*
X120624653Y-41506991D01*
X120499223Y-41443081D01*
X120304534Y-41379822D01*
X120129995Y-41352178D01*
X120102352Y-41347800D01*
X120102351Y-41347800D01*
X112760546Y-41347800D01*
X112693507Y-41328115D01*
X112672865Y-41311481D01*
X111464794Y-40103410D01*
X117830213Y-40103410D01*
X122172489Y-40103410D01*
X122172489Y-36544984D01*
X117830213Y-36544984D01*
X117830213Y-40103410D01*
X111464794Y-40103410D01*
X107942687Y-36581303D01*
X107607075Y-36245691D01*
X102559018Y-31197633D01*
X102525533Y-31136310D01*
X102522699Y-31109952D01*
X102522699Y-29998398D01*
X102522699Y-29998393D01*
X102512058Y-29890351D01*
X102525077Y-29821708D01*
X102573142Y-29770998D01*
X102635461Y-29754200D01*
X104885853Y-29754200D01*
X104952892Y-29773885D01*
G37*
%TD.AperFunction*%
%TA.AperFunction,NonConductor*%
G36*
X133153003Y-44145322D02*
G01*
X133159482Y-44151355D01*
X133239522Y-44231397D01*
X133273007Y-44292720D01*
X133274313Y-44299677D01*
X133286209Y-44374783D01*
X133286210Y-44374785D01*
X133359909Y-44601608D01*
X133364061Y-44614384D01*
X133376606Y-44639006D01*
X133377113Y-44641710D01*
X133378915Y-44643789D01*
X133383524Y-44675844D01*
X133389502Y-44707676D01*
X133388467Y-44710224D01*
X133388859Y-44712947D01*
X133375406Y-44742404D01*
X133363225Y-44772416D01*
X133360976Y-44774000D01*
X133359834Y-44776503D01*
X133332586Y-44794013D01*
X133306118Y-44812672D01*
X133302662Y-44813244D01*
X133301056Y-44814277D01*
X133266121Y-44819300D01*
X133063172Y-44819300D01*
X132996133Y-44799615D01*
X132950378Y-44746811D01*
X132939769Y-44683146D01*
X132943850Y-44641710D01*
X132947800Y-44601608D01*
X132947800Y-44239035D01*
X132967485Y-44171996D01*
X133020289Y-44126241D01*
X133089447Y-44116297D01*
X133153003Y-44145322D01*
G37*
%TD.AperFunction*%
%TA.AperFunction,NonConductor*%
G36*
X106724193Y-39045185D02*
G01*
X106744835Y-39061819D01*
X111178531Y-43495515D01*
X111178534Y-43495519D01*
X111323281Y-43640266D01*
X111335991Y-43649500D01*
X111488889Y-43760587D01*
X111556329Y-43794949D01*
X111671281Y-43853520D01*
X111734429Y-43874038D01*
X111865965Y-43916777D01*
X111967057Y-43932788D01*
X112068148Y-43948800D01*
X112068149Y-43948800D01*
X112272852Y-43948800D01*
X115685500Y-43948800D01*
X115752539Y-43968485D01*
X115798294Y-44021289D01*
X115809500Y-44072800D01*
X115809500Y-45827200D01*
X115789815Y-45894239D01*
X115737011Y-45939994D01*
X115685500Y-45951200D01*
X106289306Y-45951200D01*
X106222267Y-45931515D01*
X106176512Y-45878711D01*
X106166568Y-45809553D01*
X106178821Y-45770905D01*
X106264718Y-45602323D01*
X106264718Y-45602322D01*
X106264720Y-45602319D01*
X106327977Y-45407634D01*
X106360000Y-45205452D01*
X106360000Y-39149500D01*
X106362550Y-39140814D01*
X106361262Y-39131853D01*
X106372240Y-39107812D01*
X106379685Y-39082461D01*
X106386525Y-39076533D01*
X106390287Y-39068297D01*
X106412521Y-39054007D01*
X106432489Y-39036706D01*
X106443003Y-39034418D01*
X106449065Y-39030523D01*
X106484000Y-39025500D01*
X106657154Y-39025500D01*
X106724193Y-39045185D01*
G37*
%TD.AperFunction*%
%TA.AperFunction,NonConductor*%
G36*
X99537192Y-51190385D02*
G01*
X99557834Y-51207019D01*
X100582223Y-52231408D01*
X100615708Y-52292731D01*
X100617015Y-52299689D01*
X100628909Y-52374783D01*
X100628910Y-52374785D01*
X100706759Y-52614379D01*
X100753829Y-52706760D01*
X100821132Y-52838848D01*
X100969201Y-53042649D01*
X100969205Y-53042654D01*
X101147345Y-53220794D01*
X101147350Y-53220798D01*
X101325117Y-53349952D01*
X101351155Y-53368870D01*
X101397360Y-53392412D01*
X101399131Y-53393315D01*
X101449927Y-53441290D01*
X101466722Y-53509111D01*
X101444184Y-53575246D01*
X101389469Y-53618697D01*
X101342836Y-53627800D01*
X99018346Y-53627800D01*
X98951307Y-53608115D01*
X98930665Y-53591481D01*
X98020799Y-52681615D01*
X97107775Y-51768590D01*
X97074290Y-51707267D01*
X97072983Y-51700306D01*
X97061090Y-51625214D01*
X97019636Y-51497634D01*
X96983241Y-51385621D01*
X96983238Y-51385617D01*
X96983238Y-51385614D01*
X96965599Y-51350996D01*
X96952702Y-51282326D01*
X96978978Y-51217586D01*
X97036084Y-51177328D01*
X97076083Y-51170700D01*
X99470153Y-51170700D01*
X99537192Y-51190385D01*
G37*
%TD.AperFunction*%
%TA.AperFunction,NonConductor*%
G36*
X98475977Y-29773885D02*
G01*
X98521732Y-29826689D01*
X98532341Y-29890354D01*
X98523591Y-29979200D01*
X98521700Y-29998396D01*
X98521700Y-32001602D01*
X98536899Y-32155931D01*
X98596970Y-32353958D01*
X98694513Y-32536448D01*
X98694515Y-32536450D01*
X98825789Y-32696410D01*
X98914511Y-32769221D01*
X98974666Y-32818589D01*
X98985749Y-32827684D01*
X98985751Y-32827686D01*
X99168241Y-32925229D01*
X99168243Y-32925229D01*
X99168246Y-32925231D01*
X99366267Y-32985300D01*
X99422253Y-32990814D01*
X99487041Y-33016974D01*
X99527400Y-33074009D01*
X99534100Y-33114217D01*
X99534100Y-33602551D01*
X99566122Y-33804734D01*
X99629381Y-33999423D01*
X99722315Y-34181813D01*
X99842627Y-34347411D01*
X99842631Y-34347415D01*
X99842634Y-34347419D01*
X99936344Y-34441129D01*
X99990201Y-34494986D01*
X99991523Y-34496208D01*
X103722681Y-38227366D01*
X103756166Y-38288689D01*
X103759000Y-38315047D01*
X103759000Y-45205451D01*
X103791022Y-45407634D01*
X103854281Y-45602323D01*
X103940179Y-45770905D01*
X103953075Y-45839574D01*
X103926799Y-45904315D01*
X103869692Y-45944572D01*
X103829694Y-45951200D01*
X79292448Y-45951200D01*
X79204998Y-45965051D01*
X79090264Y-45983223D01*
X78895584Y-46046477D01*
X78895581Y-46046478D01*
X78780629Y-46105051D01*
X78713186Y-46139415D01*
X78547586Y-46259728D01*
X72639636Y-52167678D01*
X72519316Y-52333284D01*
X72519311Y-52333292D01*
X72506888Y-52357672D01*
X72506889Y-52357673D01*
X72425932Y-52516558D01*
X72424872Y-52520320D01*
X72363122Y-52710367D01*
X72363122Y-52710368D01*
X72334103Y-52893588D01*
X72334103Y-52893589D01*
X72331100Y-52912548D01*
X72331100Y-53912270D01*
X72326566Y-53927708D01*
X72327026Y-53943793D01*
X72316925Y-53960543D01*
X72311415Y-53979309D01*
X72299256Y-53989844D01*
X72290946Y-54003626D01*
X72273390Y-54012257D01*
X72258611Y-54025064D01*
X72242686Y-54027353D01*
X72228245Y-54034454D01*
X72208812Y-54032224D01*
X72189453Y-54035008D01*
X72174817Y-54028324D01*
X72158831Y-54026490D01*
X72143689Y-54014108D01*
X72125897Y-54005983D01*
X72116594Y-53991953D01*
X72104742Y-53982261D01*
X72089169Y-53950589D01*
X72081734Y-53927708D01*
X72060423Y-53862119D01*
X72060423Y-53862118D01*
X72034321Y-53781783D01*
X72034319Y-53781780D01*
X71941953Y-53600500D01*
X71941958Y-53600497D01*
X71941942Y-53600480D01*
X71941387Y-53599389D01*
X71821066Y-53433781D01*
X62596366Y-44209081D01*
X62562881Y-44147758D01*
X62567865Y-44078066D01*
X62596366Y-44033719D01*
X63019532Y-43610553D01*
X81864182Y-43610553D01*
X86136754Y-43610553D01*
X90616962Y-43610553D01*
X94889534Y-43610553D01*
X94889534Y-40196103D01*
X90616962Y-40196103D01*
X90616962Y-43610553D01*
X86136754Y-43610553D01*
X86136754Y-40196103D01*
X81864182Y-40196103D01*
X81864182Y-43610553D01*
X63019532Y-43610553D01*
X66573025Y-40057060D01*
X67777951Y-38852134D01*
X69014166Y-37615919D01*
X69134487Y-37450311D01*
X69180953Y-37359114D01*
X69227420Y-37267919D01*
X69290677Y-37073234D01*
X69296392Y-37037155D01*
X69322700Y-36871057D01*
X69322700Y-34956800D01*
X69342385Y-34889761D01*
X69395189Y-34844006D01*
X69446700Y-34832800D01*
X85592251Y-34832800D01*
X85592252Y-34832800D01*
X85794435Y-34800777D01*
X85893228Y-34768677D01*
X85989119Y-34737520D01*
X86080314Y-34691053D01*
X86171511Y-34644587D01*
X86337119Y-34524266D01*
X87824565Y-33036818D01*
X87885888Y-33003334D01*
X87912246Y-33000500D01*
X88153313Y-33000500D01*
X88153320Y-33000500D01*
X88413316Y-32966270D01*
X88666619Y-32898398D01*
X88859295Y-32818589D01*
X88908890Y-32798046D01*
X88908891Y-32798045D01*
X88908897Y-32798043D01*
X89136003Y-32666924D01*
X89344051Y-32507282D01*
X89344055Y-32507277D01*
X89344060Y-32507274D01*
X89529474Y-32321860D01*
X89529477Y-32321855D01*
X89529482Y-32321851D01*
X89689124Y-32113803D01*
X89820243Y-31886697D01*
X89920598Y-31644419D01*
X89988470Y-31391116D01*
X90022700Y-31131120D01*
X90022700Y-30890046D01*
X90042385Y-30823007D01*
X90059019Y-30802365D01*
X91070866Y-29790519D01*
X91132189Y-29757034D01*
X91158547Y-29754200D01*
X98408938Y-29754200D01*
X98475977Y-29773885D01*
G37*
%TD.AperFunction*%
%TA.AperFunction,NonConductor*%
G36*
X93926557Y-51171475D02*
G01*
X93929228Y-51170814D01*
X93959883Y-51181261D01*
X93990956Y-51190385D01*
X93992757Y-51192464D01*
X93995363Y-51193352D01*
X94015509Y-51218721D01*
X94036711Y-51243189D01*
X94037102Y-51245911D01*
X94038814Y-51248067D01*
X94042045Y-51280287D01*
X94046655Y-51312347D01*
X94045595Y-51315688D01*
X94045786Y-51317588D01*
X94034401Y-51350996D01*
X94016761Y-51385614D01*
X93938910Y-51625214D01*
X93916201Y-51768590D01*
X93899500Y-51874038D01*
X93899500Y-52125962D01*
X93906107Y-52167678D01*
X93938910Y-52374785D01*
X94016760Y-52614383D01*
X94131132Y-52838848D01*
X94279201Y-53042649D01*
X94279205Y-53042654D01*
X94457345Y-53220794D01*
X94457350Y-53220798D01*
X94635117Y-53349952D01*
X94661155Y-53368870D01*
X94788544Y-53433778D01*
X94885616Y-53483239D01*
X94885618Y-53483239D01*
X94885621Y-53483241D01*
X95014049Y-53524970D01*
X95125214Y-53561090D01*
X95164439Y-53567302D01*
X95200306Y-53572983D01*
X95263441Y-53602912D01*
X95268590Y-53607775D01*
X96099725Y-54438910D01*
X96878635Y-55217819D01*
X96912120Y-55279142D01*
X96907136Y-55348834D01*
X96865264Y-55404767D01*
X96799800Y-55429184D01*
X96790954Y-55429500D01*
X89198150Y-55429500D01*
X89131111Y-55409815D01*
X89085356Y-55357011D01*
X89075412Y-55287853D01*
X89104437Y-55224297D01*
X89125265Y-55205182D01*
X89128702Y-55202684D01*
X89157219Y-55181966D01*
X90731409Y-53607773D01*
X90792730Y-53574290D01*
X90799649Y-53572989D01*
X90874785Y-53561090D01*
X91114379Y-53483241D01*
X91338845Y-53368870D01*
X91542656Y-53220793D01*
X91720793Y-53042656D01*
X91868870Y-52838845D01*
X91983241Y-52614379D01*
X92061090Y-52374785D01*
X92100500Y-52125962D01*
X92100500Y-51874038D01*
X92061090Y-51625215D01*
X91983241Y-51385621D01*
X91983238Y-51385617D01*
X91983238Y-51385614D01*
X91965599Y-51350996D01*
X91952702Y-51282326D01*
X91978978Y-51217586D01*
X92036084Y-51177328D01*
X92076083Y-51170700D01*
X93923917Y-51170700D01*
X93926557Y-51171475D01*
G37*
%TD.AperFunction*%
%TA.AperFunction,NonConductor*%
G36*
X66843603Y-52135134D02*
G01*
X66850081Y-52141166D01*
X69492281Y-54783366D01*
X69525766Y-54844689D01*
X69528600Y-54871047D01*
X69528600Y-55331041D01*
X69508915Y-55398080D01*
X69456111Y-55443835D01*
X69386953Y-55453779D01*
X69323397Y-55424754D01*
X69294115Y-55387336D01*
X69248810Y-55298421D01*
X69178870Y-55161155D01*
X69082744Y-55028848D01*
X69030798Y-54957350D01*
X69030794Y-54957345D01*
X68852654Y-54779205D01*
X68852649Y-54779201D01*
X68648848Y-54631132D01*
X68648847Y-54631131D01*
X68648845Y-54631130D01*
X68578747Y-54595413D01*
X68424383Y-54516760D01*
X68184785Y-54438910D01*
X68184779Y-54438909D01*
X67935962Y-54399500D01*
X67684038Y-54399500D01*
X67607295Y-54411655D01*
X67435214Y-54438910D01*
X67195616Y-54516760D01*
X66971151Y-54631132D01*
X66835285Y-54729844D01*
X66769479Y-54753324D01*
X66701425Y-54737498D01*
X66652730Y-54687392D01*
X66638400Y-54629526D01*
X66638400Y-52228847D01*
X66658085Y-52161808D01*
X66710889Y-52116053D01*
X66780047Y-52106109D01*
X66843603Y-52135134D01*
G37*
%TD.AperFunction*%
%TA.AperFunction,NonConductor*%
G36*
X69476045Y-56567609D02*
G01*
X69519497Y-56622324D01*
X69528600Y-56668958D01*
X69528600Y-58076953D01*
X69522361Y-58098198D01*
X69520782Y-58120287D01*
X69512709Y-58131070D01*
X69508915Y-58143992D01*
X69492181Y-58158491D01*
X69478910Y-58176220D01*
X69466289Y-58180927D01*
X69456111Y-58189747D01*
X69434193Y-58192898D01*
X69413446Y-58200637D01*
X69400285Y-58197774D01*
X69386953Y-58199691D01*
X69366809Y-58190491D01*
X69345173Y-58185785D01*
X69327447Y-58172516D01*
X69323397Y-58170666D01*
X69316919Y-58164634D01*
X69146819Y-57994534D01*
X69113334Y-57933211D01*
X69110500Y-57906853D01*
X69110500Y-56973237D01*
X69130185Y-56906198D01*
X69134168Y-56900370D01*
X69178870Y-56838845D01*
X69293241Y-56614379D01*
X69293241Y-56614377D01*
X69294115Y-56612663D01*
X69342089Y-56561867D01*
X69409910Y-56545072D01*
X69476045Y-56567609D01*
G37*
%TD.AperFunction*%
%TA.AperFunction,NonConductor*%
G36*
X72334803Y-56948316D02*
G01*
X72371530Y-57003711D01*
X72379020Y-57026760D01*
X72426380Y-57172519D01*
X72459837Y-57238181D01*
X72519313Y-57354911D01*
X72639634Y-57520519D01*
X72841081Y-57721966D01*
X73006689Y-57842287D01*
X73070255Y-57874675D01*
X73189080Y-57935220D01*
X73189086Y-57935222D01*
X73237010Y-57950793D01*
X73286421Y-57966847D01*
X73286422Y-57966848D01*
X73310758Y-57974755D01*
X73383765Y-57998477D01*
X73585948Y-58030500D01*
X73790652Y-58030500D01*
X74468858Y-58030500D01*
X74535897Y-58050185D01*
X74581652Y-58102989D01*
X74591596Y-58172147D01*
X74569176Y-58227385D01*
X74421132Y-58431151D01*
X74306760Y-58655616D01*
X74228910Y-58895214D01*
X74189500Y-59144038D01*
X74189500Y-59395961D01*
X74228910Y-59644785D01*
X74306760Y-59884383D01*
X74421132Y-60108848D01*
X74569176Y-60312615D01*
X74573407Y-60324474D01*
X74581652Y-60333989D01*
X74584925Y-60356755D01*
X74592656Y-60378421D01*
X74589804Y-60390684D01*
X74591596Y-60403147D01*
X74582039Y-60424072D01*
X74576830Y-60446475D01*
X74567801Y-60455248D01*
X74562571Y-60466703D01*
X74543218Y-60479139D01*
X74526724Y-60495170D01*
X74512978Y-60498573D01*
X74503793Y-60504477D01*
X74468858Y-60509500D01*
X74278347Y-60509500D01*
X74211308Y-60489815D01*
X74190666Y-60473181D01*
X72165919Y-58448434D01*
X72132434Y-58387111D01*
X72129600Y-58360753D01*
X72129600Y-57042029D01*
X72149285Y-56974990D01*
X72202089Y-56929235D01*
X72271247Y-56919291D01*
X72334803Y-56948316D01*
G37*
%TD.AperFunction*%
%TA.AperFunction,NonConductor*%
G36*
X88990956Y-51190385D02*
G01*
X89036711Y-51243189D01*
X89046655Y-51312347D01*
X89034401Y-51350996D01*
X89016760Y-51385615D01*
X88938909Y-51625216D01*
X88927015Y-51700310D01*
X88897085Y-51763444D01*
X88892223Y-51768591D01*
X87807634Y-52853181D01*
X87746311Y-52886666D01*
X87719953Y-52889500D01*
X85183238Y-52889500D01*
X85116199Y-52869815D01*
X85110362Y-52865824D01*
X85048845Y-52821130D01*
X84824383Y-52706760D01*
X84584785Y-52628910D01*
X84335962Y-52589500D01*
X83284038Y-52589500D01*
X83159626Y-52609205D01*
X83035214Y-52628910D01*
X82795616Y-52706760D01*
X82571151Y-52821132D01*
X82367350Y-52969201D01*
X82367345Y-52969205D01*
X82189205Y-53147345D01*
X82189201Y-53147350D01*
X82041132Y-53351151D01*
X81926760Y-53575616D01*
X81848910Y-53815214D01*
X81809500Y-54064038D01*
X81809500Y-54315961D01*
X81848910Y-54564785D01*
X81926760Y-54804383D01*
X82041132Y-55028848D01*
X82189176Y-55232615D01*
X82212656Y-55298421D01*
X82196830Y-55366475D01*
X82146724Y-55415170D01*
X82088858Y-55429500D01*
X81410652Y-55429500D01*
X81205948Y-55429500D01*
X81181629Y-55433351D01*
X81003765Y-55461522D01*
X80809076Y-55524781D01*
X80626686Y-55617715D01*
X80461086Y-55738028D01*
X80316328Y-55882786D01*
X80196015Y-56048386D01*
X80103081Y-56230776D01*
X80039822Y-56425465D01*
X80007800Y-56627648D01*
X80007800Y-59497252D01*
X79988115Y-59564291D01*
X79971481Y-59584933D01*
X78286842Y-61269571D01*
X78225519Y-61303056D01*
X78155827Y-61298072D01*
X78099894Y-61256200D01*
X78081230Y-61220208D01*
X78073242Y-61195623D01*
X78073241Y-61195620D01*
X78010874Y-61073219D01*
X77958870Y-60971155D01*
X77843428Y-60812262D01*
X77810798Y-60767350D01*
X77810794Y-60767345D01*
X77671130Y-60627681D01*
X77637645Y-60566358D01*
X77642629Y-60496666D01*
X77671130Y-60452319D01*
X77732765Y-60390684D01*
X77810793Y-60312656D01*
X77958870Y-60108845D01*
X78073241Y-59884379D01*
X78151090Y-59644785D01*
X78190500Y-59395962D01*
X78190500Y-59144038D01*
X78151090Y-58895215D01*
X78073241Y-58655621D01*
X78073239Y-58655618D01*
X78073239Y-58655616D01*
X78031747Y-58574184D01*
X77958870Y-58431155D01*
X77898246Y-58347713D01*
X77810798Y-58227350D01*
X77810794Y-58227345D01*
X77671130Y-58087681D01*
X77637645Y-58026358D01*
X77642629Y-57956666D01*
X77671130Y-57912319D01*
X77708775Y-57874674D01*
X77810793Y-57772656D01*
X77958870Y-57568845D01*
X78073241Y-57344379D01*
X78151090Y-57104785D01*
X78190500Y-56855962D01*
X78190500Y-56604038D01*
X78151090Y-56355215D01*
X78073241Y-56115621D01*
X78073239Y-56115618D01*
X78073239Y-56115616D01*
X78031747Y-56034184D01*
X77958870Y-55891155D01*
X77816296Y-55694918D01*
X77792816Y-55629112D01*
X77808641Y-55561058D01*
X77837948Y-55526181D01*
X77886410Y-55486410D01*
X78017685Y-55326450D01*
X78115232Y-55143954D01*
X78175300Y-54945934D01*
X78190500Y-54791608D01*
X78190500Y-54080046D01*
X78210185Y-54013007D01*
X78226819Y-53992365D01*
X81012165Y-51207019D01*
X81073488Y-51173534D01*
X81099846Y-51170700D01*
X88923917Y-51170700D01*
X88990956Y-51190385D01*
G37*
%TD.AperFunction*%
%TA.AperFunction,NonConductor*%
G36*
X90737538Y-58050185D02*
G01*
X90783293Y-58102989D01*
X90794499Y-58154500D01*
X90794499Y-61360553D01*
X95136774Y-61360553D01*
X95136774Y-58154500D01*
X95156459Y-58087461D01*
X95209263Y-58041706D01*
X95260774Y-58030500D01*
X108127658Y-58030500D01*
X108132896Y-58032038D01*
X108138248Y-58030953D01*
X108166064Y-58041777D01*
X108194697Y-58050185D01*
X108198271Y-58054310D01*
X108203361Y-58056291D01*
X108220910Y-58080437D01*
X108240452Y-58102989D01*
X108241228Y-58108392D01*
X108244439Y-58112809D01*
X108246147Y-58142602D01*
X108250396Y-58172147D01*
X108248127Y-58177114D01*
X108248440Y-58182564D01*
X108233771Y-58208549D01*
X108221371Y-58235703D01*
X108216064Y-58239917D01*
X108214094Y-58243409D01*
X108189545Y-58260982D01*
X108185544Y-58264160D01*
X108184773Y-58264566D01*
X108021590Y-58347713D01*
X108021589Y-58347714D01*
X108006528Y-58358656D01*
X108006519Y-58358661D01*
X107855986Y-58468028D01*
X107855982Y-58468032D01*
X101877334Y-64446681D01*
X101816011Y-64480166D01*
X101789653Y-64483000D01*
X79051147Y-64483000D01*
X78984108Y-64463315D01*
X78938353Y-64410511D01*
X78928409Y-64341353D01*
X78957434Y-64277797D01*
X78963466Y-64271319D01*
X81597819Y-61636965D01*
X81659142Y-61603480D01*
X81728834Y-61608464D01*
X81784767Y-61650336D01*
X81809184Y-61715800D01*
X81809500Y-61724646D01*
X81809500Y-61935957D01*
X81809499Y-61935959D01*
X81848910Y-62184785D01*
X81926760Y-62424383D01*
X82041132Y-62648848D01*
X82189201Y-62852649D01*
X82189205Y-62852654D01*
X82367345Y-63030794D01*
X82367350Y-63030798D01*
X82545117Y-63159952D01*
X82571155Y-63178870D01*
X82714184Y-63251747D01*
X82795616Y-63293239D01*
X82795618Y-63293239D01*
X82795621Y-63293241D01*
X83035215Y-63371090D01*
X83284038Y-63410500D01*
X83284039Y-63410500D01*
X84335961Y-63410500D01*
X84335962Y-63410500D01*
X84584785Y-63371090D01*
X84824379Y-63293241D01*
X85048845Y-63178870D01*
X85252656Y-63030793D01*
X85430793Y-62852656D01*
X85578870Y-62648845D01*
X85693241Y-62424379D01*
X85771090Y-62184785D01*
X85810500Y-61935962D01*
X85810500Y-61684038D01*
X85771090Y-61435215D01*
X85693241Y-61195621D01*
X85693239Y-61195618D01*
X85693239Y-61195616D01*
X85630874Y-61073219D01*
X85578870Y-60971155D01*
X85463428Y-60812262D01*
X85430798Y-60767350D01*
X85430794Y-60767345D01*
X85291130Y-60627681D01*
X85257645Y-60566358D01*
X85262629Y-60496666D01*
X85291130Y-60452319D01*
X85352765Y-60390684D01*
X85430793Y-60312656D01*
X85578870Y-60108845D01*
X85693241Y-59884379D01*
X85771090Y-59644785D01*
X85810500Y-59395962D01*
X85810500Y-59144038D01*
X85771090Y-58895215D01*
X85693241Y-58655621D01*
X85693239Y-58655618D01*
X85693239Y-58655616D01*
X85651747Y-58574184D01*
X85578870Y-58431155D01*
X85527720Y-58360753D01*
X85430824Y-58227385D01*
X85407344Y-58161579D01*
X85423170Y-58093525D01*
X85473276Y-58044830D01*
X85531142Y-58030500D01*
X90670499Y-58030500D01*
X90737538Y-58050185D01*
G37*
%TD.AperFunction*%
%TA.AperFunction,NonConductor*%
G36*
X143421703Y-60761237D02*
G01*
X143424245Y-60760603D01*
X143455046Y-60771028D01*
X143486229Y-60780185D01*
X143488706Y-60782422D01*
X143490426Y-60783004D01*
X143516135Y-60807185D01*
X143520183Y-60812261D01*
X143620576Y-60912654D01*
X143654061Y-60973977D01*
X143649077Y-61043669D01*
X143633214Y-61073219D01*
X143588367Y-61134946D01*
X143470422Y-61366423D01*
X143390140Y-61613506D01*
X143349500Y-61870097D01*
X143349500Y-62129902D01*
X143390140Y-62386493D01*
X143470422Y-62633576D01*
X143551534Y-62792764D01*
X143582050Y-62852656D01*
X143588368Y-62865054D01*
X143741066Y-63075225D01*
X143741071Y-63075231D01*
X143848159Y-63182319D01*
X143881644Y-63243642D01*
X143876660Y-63313334D01*
X143848159Y-63357681D01*
X143741071Y-63464768D01*
X143741066Y-63464774D01*
X143588368Y-63674945D01*
X143470422Y-63906423D01*
X143390139Y-64153506D01*
X143366865Y-64300457D01*
X143336936Y-64363592D01*
X143332073Y-64368740D01*
X139037634Y-68663181D01*
X138976311Y-68696666D01*
X138949953Y-68699500D01*
X99473238Y-68699500D01*
X99406199Y-68679815D01*
X99400362Y-68675824D01*
X99338845Y-68631130D01*
X99114379Y-68516759D01*
X98916334Y-68452410D01*
X98874783Y-68438909D01*
X98799689Y-68427015D01*
X98736555Y-68397085D01*
X98731408Y-68392223D01*
X97634866Y-67295681D01*
X97601381Y-67234358D01*
X97606365Y-67164666D01*
X97648237Y-67108733D01*
X97713701Y-67084316D01*
X97722547Y-67084000D01*
X102482051Y-67084000D01*
X102482052Y-67084000D01*
X102684235Y-67051977D01*
X102781576Y-67020348D01*
X102878919Y-66988720D01*
X102970114Y-66942253D01*
X103061311Y-66895787D01*
X103226919Y-66775466D01*
X109205566Y-60796819D01*
X109266889Y-60763334D01*
X109293247Y-60760500D01*
X143419190Y-60760500D01*
X143421703Y-60761237D01*
G37*
%TD.AperFunction*%
%TA.AperFunction,NonConductor*%
G36*
X66227251Y-56459846D02*
G01*
X66283184Y-56501718D01*
X66301847Y-56537708D01*
X66326201Y-56612663D01*
X66326760Y-56614381D01*
X66441130Y-56838846D01*
X66453566Y-56855962D01*
X66485817Y-56900352D01*
X66509298Y-56966156D01*
X66509500Y-56973237D01*
X66509500Y-58599251D01*
X66541522Y-58801434D01*
X66604781Y-58996123D01*
X66651246Y-59087314D01*
X66697713Y-59178511D01*
X66818034Y-59344119D01*
X69344018Y-61870103D01*
X71745235Y-64271319D01*
X71778720Y-64332642D01*
X71773736Y-64402334D01*
X71731864Y-64458267D01*
X71666400Y-64482684D01*
X71657554Y-64483000D01*
X62304148Y-64483000D01*
X62279829Y-64486851D01*
X62101965Y-64515022D01*
X61907276Y-64578281D01*
X61768780Y-64648849D01*
X61724890Y-64671213D01*
X61724889Y-64671214D01*
X61716991Y-64676952D01*
X61716990Y-64676951D01*
X61716990Y-64676952D01*
X61559286Y-64791528D01*
X61559282Y-64791532D01*
X57958590Y-68392223D01*
X57897267Y-68425708D01*
X57890309Y-68427015D01*
X57815217Y-68438909D01*
X57575618Y-68516760D01*
X57351154Y-68631130D01*
X57312801Y-68658995D01*
X57289646Y-68675818D01*
X57223842Y-68699298D01*
X57216762Y-68699500D01*
X54783238Y-68699500D01*
X54716199Y-68679815D01*
X54710362Y-68675824D01*
X54648845Y-68631130D01*
X54424379Y-68516759D01*
X54347709Y-68491847D01*
X54290034Y-68452410D01*
X54262836Y-68388052D01*
X54274751Y-68319206D01*
X54298344Y-68286239D01*
X66096238Y-56488345D01*
X66157559Y-56454862D01*
X66227251Y-56459846D01*
G37*
%TD.AperFunction*%
%TA.AperFunction,NonConductor*%
G36*
X91984892Y-69202285D02*
G01*
X92030647Y-69255089D01*
X92040591Y-69324247D01*
X92028338Y-69362894D01*
X92016761Y-69385615D01*
X91938909Y-69625216D01*
X91927015Y-69700310D01*
X91897085Y-69763444D01*
X91892223Y-69768591D01*
X91622181Y-70038633D01*
X91560858Y-70072118D01*
X91491166Y-70067134D01*
X91435233Y-70025262D01*
X91410816Y-69959798D01*
X91410500Y-69950952D01*
X91410500Y-69874038D01*
X91371090Y-69625215D01*
X91293241Y-69385621D01*
X91293239Y-69385618D01*
X91293238Y-69385613D01*
X91281662Y-69362894D01*
X91268766Y-69294224D01*
X91295043Y-69229484D01*
X91352150Y-69189228D01*
X91392147Y-69182600D01*
X91917853Y-69182600D01*
X91984892Y-69202285D01*
G37*
%TD.AperFunction*%
%TA.AperFunction,NonConductor*%
G36*
X68610492Y-69183375D02*
G01*
X68613162Y-69182714D01*
X68643814Y-69193159D01*
X68674892Y-69202285D01*
X68676693Y-69204363D01*
X68679297Y-69205251D01*
X68699446Y-69230622D01*
X68720647Y-69255089D01*
X68721038Y-69257809D01*
X68722750Y-69259965D01*
X68725983Y-69292202D01*
X68730591Y-69324247D01*
X68729532Y-69327585D01*
X68729723Y-69329486D01*
X68718338Y-69362894D01*
X68706761Y-69385615D01*
X68628909Y-69625217D01*
X68617015Y-69700309D01*
X68587085Y-69763443D01*
X68582223Y-69768590D01*
X67565334Y-70785481D01*
X67538406Y-70800184D01*
X67512588Y-70816777D01*
X67506387Y-70817668D01*
X67504011Y-70818966D01*
X67477653Y-70821800D01*
X67389905Y-70821800D01*
X67322866Y-70802115D01*
X67277111Y-70749311D01*
X67267167Y-70680153D01*
X67279420Y-70641506D01*
X67293238Y-70614386D01*
X67293240Y-70614381D01*
X67293241Y-70614379D01*
X67371090Y-70374785D01*
X67382984Y-70299687D01*
X67412911Y-70236557D01*
X67417757Y-70231426D01*
X68430266Y-69218919D01*
X68491589Y-69185434D01*
X68517947Y-69182600D01*
X68607853Y-69182600D01*
X68610492Y-69183375D01*
G37*
%TD.AperFunction*%
%TA.AperFunction,NonConductor*%
G36*
X66654492Y-67103685D02*
G01*
X66700247Y-67156489D01*
X66710191Y-67225647D01*
X66681166Y-67289203D01*
X66675134Y-67295681D01*
X65578590Y-68392223D01*
X65517267Y-68425708D01*
X65510309Y-68427015D01*
X65435217Y-68438909D01*
X65195618Y-68516760D01*
X64971151Y-68631132D01*
X64767350Y-68779201D01*
X64767345Y-68779205D01*
X64589205Y-68957345D01*
X64589201Y-68957350D01*
X64441132Y-69161151D01*
X64326760Y-69385616D01*
X64248910Y-69625214D01*
X64209500Y-69874038D01*
X64209500Y-70125961D01*
X64248910Y-70374785D01*
X64326761Y-70614386D01*
X64340580Y-70641506D01*
X64353476Y-70710175D01*
X64327199Y-70774915D01*
X64270092Y-70815172D01*
X64230095Y-70821800D01*
X59769905Y-70821800D01*
X59702866Y-70802115D01*
X59657111Y-70749311D01*
X59647167Y-70680153D01*
X59659420Y-70641506D01*
X59673238Y-70614386D01*
X59673240Y-70614381D01*
X59673241Y-70614379D01*
X59751090Y-70374785D01*
X59762984Y-70299687D01*
X59792911Y-70236557D01*
X59797757Y-70231426D01*
X62908866Y-67120319D01*
X62970189Y-67086834D01*
X62996547Y-67084000D01*
X66587453Y-67084000D01*
X66654492Y-67103685D01*
G37*
%TD.AperFunction*%
%TA.AperFunction,NonConductor*%
G36*
X88230492Y-69183375D02*
G01*
X88233162Y-69182714D01*
X88263814Y-69193159D01*
X88294892Y-69202285D01*
X88296693Y-69204363D01*
X88299297Y-69205251D01*
X88319446Y-69230622D01*
X88340647Y-69255089D01*
X88341038Y-69257809D01*
X88342750Y-69259965D01*
X88345983Y-69292202D01*
X88350591Y-69324247D01*
X88349532Y-69327585D01*
X88349723Y-69329486D01*
X88338338Y-69362894D01*
X88326761Y-69385613D01*
X88248910Y-69625214D01*
X88209500Y-69874038D01*
X88209500Y-70125961D01*
X88248910Y-70374785D01*
X88326760Y-70614383D01*
X88350669Y-70661305D01*
X88363565Y-70729974D01*
X88337289Y-70794715D01*
X88280182Y-70834972D01*
X88240184Y-70841600D01*
X84922146Y-70841600D01*
X84855107Y-70821915D01*
X84834465Y-70805281D01*
X83826819Y-69797634D01*
X83793334Y-69736311D01*
X83790500Y-69709953D01*
X83790500Y-69398395D01*
X83789241Y-69385616D01*
X83782656Y-69318753D01*
X83795675Y-69250108D01*
X83843740Y-69199398D01*
X83906059Y-69182600D01*
X88227853Y-69182600D01*
X88230492Y-69183375D01*
G37*
%TD.AperFunction*%
%TA.AperFunction,NonConductor*%
G36*
X46347992Y-20520185D02*
G01*
X46393747Y-20572989D01*
X46403691Y-20642147D01*
X46374666Y-20705703D01*
X46368634Y-20712181D01*
X46331431Y-20749384D01*
X45017632Y-22063181D01*
X44956309Y-22096666D01*
X44929951Y-22099500D01*
X44018395Y-22099500D01*
X43864067Y-22114699D01*
X43666042Y-22174769D01*
X43483545Y-22272317D01*
X43323589Y-22403589D01*
X43192317Y-22563545D01*
X43094769Y-22746042D01*
X43034699Y-22944066D01*
X43019500Y-23098394D01*
X43019500Y-24901604D01*
X43034699Y-25055932D01*
X43034700Y-25055935D01*
X43094768Y-25253955D01*
X43189903Y-25431939D01*
X43192317Y-25436454D01*
X43323589Y-25596410D01*
X43483499Y-25727644D01*
X43483549Y-25727685D01*
X43666045Y-25825232D01*
X43864065Y-25885300D01*
X43864064Y-25885300D01*
X43874968Y-25886373D01*
X44018391Y-25900500D01*
X45821608Y-25900499D01*
X45975935Y-25885300D01*
X46173955Y-25825232D01*
X46356451Y-25727685D01*
X46516410Y-25596410D01*
X46647685Y-25436451D01*
X46745232Y-25253955D01*
X46805300Y-25055935D01*
X46820500Y-24901609D01*
X46820499Y-23990045D01*
X46840183Y-23923007D01*
X46856813Y-23902370D01*
X47825765Y-22933419D01*
X47887088Y-22899934D01*
X47913446Y-22897100D01*
X53307477Y-22897100D01*
X53374516Y-22916785D01*
X53420271Y-22969589D01*
X53430215Y-23038747D01*
X53414864Y-23083100D01*
X53371837Y-23157623D01*
X53371830Y-23157638D01*
X53276498Y-23387792D01*
X53212017Y-23628438D01*
X53179501Y-23875424D01*
X53179500Y-23875441D01*
X53179500Y-24009953D01*
X53159815Y-24076992D01*
X53143181Y-24097634D01*
X50577634Y-26663181D01*
X50516311Y-26696666D01*
X50489953Y-26699500D01*
X39964500Y-26699500D01*
X39897461Y-26679815D01*
X39851706Y-26627011D01*
X39840500Y-26575500D01*
X39840500Y-26455043D01*
X39840499Y-26455039D01*
X39825369Y-26320750D01*
X39825368Y-26320745D01*
X39765789Y-26150478D01*
X39669816Y-25997738D01*
X39542262Y-25870184D01*
X39533291Y-25864547D01*
X39486999Y-25812213D01*
X39476350Y-25743160D01*
X39504725Y-25679311D01*
X39563114Y-25640939D01*
X39599262Y-25635553D01*
X42407642Y-25635553D01*
X42407642Y-22219984D01*
X38210927Y-22219984D01*
X38210927Y-25575500D01*
X38191242Y-25642539D01*
X38138438Y-25688294D01*
X38086927Y-25699500D01*
X35995039Y-25699500D01*
X35860750Y-25714630D01*
X35860745Y-25714631D01*
X35690476Y-25774211D01*
X35537737Y-25870184D01*
X35410184Y-25997737D01*
X35314211Y-26150476D01*
X35254631Y-26320745D01*
X35254630Y-26320750D01*
X35239500Y-26455039D01*
X35239500Y-29544960D01*
X35254630Y-29679249D01*
X35254631Y-29679254D01*
X35314211Y-29849523D01*
X35395693Y-29979200D01*
X35410184Y-30002262D01*
X35537738Y-30129816D01*
X35690478Y-30225789D01*
X35791500Y-30261138D01*
X35860745Y-30285368D01*
X35860750Y-30285369D01*
X35951246Y-30295565D01*
X35995040Y-30300499D01*
X35995043Y-30300500D01*
X35995046Y-30300500D01*
X39084957Y-30300500D01*
X39084958Y-30300499D01*
X39152104Y-30292934D01*
X39219249Y-30285369D01*
X39219252Y-30285368D01*
X39219255Y-30285368D01*
X39389522Y-30225789D01*
X39542262Y-30129816D01*
X39669816Y-30002262D01*
X39765789Y-29849522D01*
X39825368Y-29679255D01*
X39840500Y-29544954D01*
X39840500Y-29424500D01*
X39860185Y-29357461D01*
X39912989Y-29311706D01*
X39964500Y-29300500D01*
X50494687Y-29300500D01*
X50561726Y-29320185D01*
X50607481Y-29372989D01*
X50618687Y-29424500D01*
X50618687Y-32635553D01*
X54889534Y-32635553D01*
X54889534Y-29219984D01*
X51995011Y-29219984D01*
X51927972Y-29200299D01*
X51882217Y-29147495D01*
X51872273Y-29078337D01*
X51901298Y-29014781D01*
X51922123Y-28995667D01*
X51927219Y-28991966D01*
X54982366Y-25936819D01*
X55043689Y-25903334D01*
X55070047Y-25900500D01*
X55204558Y-25900500D01*
X55204565Y-25900500D01*
X55451565Y-25867982D01*
X55692207Y-25803502D01*
X55922373Y-25708164D01*
X56138127Y-25583599D01*
X56335776Y-25431938D01*
X56511938Y-25255776D01*
X56663599Y-25058127D01*
X56788164Y-24842373D01*
X56883502Y-24612207D01*
X56917985Y-24483513D01*
X56954350Y-24423853D01*
X57017197Y-24393324D01*
X57086573Y-24401619D01*
X57125441Y-24427926D01*
X59185381Y-26487866D01*
X59218866Y-26549189D01*
X59221700Y-26575547D01*
X59221700Y-28971874D01*
X59202015Y-29038913D01*
X59156153Y-29081232D01*
X58985751Y-29172313D01*
X58985749Y-29172315D01*
X58825789Y-29303589D01*
X58694515Y-29463549D01*
X58694513Y-29463551D01*
X58596970Y-29646041D01*
X58542172Y-29826689D01*
X58536900Y-29844067D01*
X58523591Y-29979200D01*
X58521700Y-29998396D01*
X58521700Y-32001602D01*
X58536899Y-32155931D01*
X58596970Y-32353958D01*
X58694513Y-32536448D01*
X58694515Y-32536450D01*
X58825789Y-32696410D01*
X58914511Y-32769221D01*
X58974666Y-32818589D01*
X58985749Y-32827684D01*
X58985751Y-32827686D01*
X59168241Y-32925229D01*
X59168243Y-32925229D01*
X59168246Y-32925231D01*
X59366267Y-32985300D01*
X59366266Y-32985300D01*
X59377170Y-32986373D01*
X59520593Y-33000500D01*
X61523806Y-33000499D01*
X61678133Y-32985300D01*
X61876154Y-32925231D01*
X62058650Y-32827685D01*
X62218610Y-32696410D01*
X62349885Y-32536450D01*
X62382400Y-32475618D01*
X62447429Y-32353958D01*
X62447429Y-32353957D01*
X62447431Y-32353954D01*
X62507500Y-32155933D01*
X62522700Y-32001607D01*
X62522699Y-29998394D01*
X62515899Y-29929352D01*
X62528918Y-29860708D01*
X62576983Y-29809998D01*
X62639302Y-29793200D01*
X66194194Y-29793200D01*
X66261233Y-29812885D01*
X66306988Y-29865689D01*
X66316932Y-29934847D01*
X66301581Y-29979200D01*
X66224158Y-30113299D01*
X66224153Y-30113309D01*
X66123805Y-30355571D01*
X66123802Y-30355581D01*
X66055930Y-30608885D01*
X66021700Y-30868872D01*
X66021700Y-31131127D01*
X66048323Y-31333339D01*
X66055930Y-31391116D01*
X66123802Y-31644418D01*
X66123805Y-31644428D01*
X66224153Y-31886690D01*
X66224158Y-31886700D01*
X66355275Y-32113803D01*
X66514918Y-32321851D01*
X66514926Y-32321860D01*
X66685381Y-32492315D01*
X66718866Y-32553638D01*
X66721700Y-32579996D01*
X66721700Y-36178652D01*
X66702015Y-36245691D01*
X66685381Y-36266333D01*
X61503237Y-41448476D01*
X61441914Y-41481961D01*
X61372222Y-41476977D01*
X61316289Y-41435105D01*
X61297625Y-41399112D01*
X61293243Y-41385626D01*
X61293241Y-41385620D01*
X61242607Y-41286247D01*
X61178870Y-41161155D01*
X61159952Y-41135117D01*
X61030798Y-40957350D01*
X61030794Y-40957345D01*
X60852654Y-40779205D01*
X60852649Y-40779201D01*
X60648848Y-40631132D01*
X60648847Y-40631131D01*
X60648845Y-40631130D01*
X60424379Y-40516759D01*
X60304582Y-40477834D01*
X60184783Y-40438909D01*
X60109689Y-40427015D01*
X60046555Y-40397085D01*
X60041408Y-40392223D01*
X58501321Y-38852136D01*
X58501319Y-38852134D01*
X58335711Y-38731813D01*
X58244514Y-38685346D01*
X58244512Y-38685345D01*
X58153323Y-38638881D01*
X58106615Y-38623704D01*
X58055976Y-38607251D01*
X58032103Y-38599494D01*
X57958635Y-38575622D01*
X57784095Y-38547978D01*
X57756452Y-38543600D01*
X44448252Y-38543600D01*
X44243548Y-38543600D01*
X44176153Y-38554274D01*
X44041363Y-38575623D01*
X43944023Y-38607250D01*
X43944023Y-38607251D01*
X43891252Y-38624397D01*
X43846674Y-38638882D01*
X43755484Y-38685345D01*
X43755485Y-38685346D01*
X43664288Y-38731813D01*
X43498678Y-38852136D01*
X42277681Y-40073134D01*
X42216358Y-40106619D01*
X42146666Y-40101635D01*
X42102319Y-40073134D01*
X39440840Y-37411655D01*
X53864202Y-37411655D01*
X58062642Y-37411655D01*
X58062642Y-33996103D01*
X53864202Y-33996103D01*
X53864202Y-37411655D01*
X39440840Y-37411655D01*
X33796819Y-31767634D01*
X33763334Y-31706311D01*
X33760500Y-31679953D01*
X33760500Y-29962958D01*
X33780185Y-29895919D01*
X33809014Y-29864582D01*
X33858397Y-29826689D01*
X33980080Y-29733319D01*
X34193319Y-29520080D01*
X34376900Y-29280832D01*
X34527683Y-29019668D01*
X34643087Y-28741058D01*
X34721138Y-28449768D01*
X34760500Y-28150783D01*
X34760500Y-27849217D01*
X34721138Y-27550232D01*
X34643087Y-27258942D01*
X34641030Y-27253977D01*
X34527685Y-26980338D01*
X34527681Y-26980328D01*
X34376900Y-26719168D01*
X34193320Y-26479921D01*
X34193314Y-26479914D01*
X33980085Y-26266685D01*
X33980078Y-26266679D01*
X33740831Y-26083099D01*
X33479671Y-25932318D01*
X33479661Y-25932314D01*
X33201060Y-25816913D01*
X32909766Y-25738861D01*
X32610793Y-25699501D01*
X32610788Y-25699500D01*
X32610783Y-25699500D01*
X32309217Y-25699500D01*
X32309211Y-25699500D01*
X32309206Y-25699501D01*
X32010233Y-25738861D01*
X31718939Y-25816913D01*
X31440338Y-25932314D01*
X31440328Y-25932318D01*
X31179168Y-26083099D01*
X30939921Y-26266679D01*
X30939914Y-26266685D01*
X30726685Y-26479914D01*
X30726679Y-26479921D01*
X30543099Y-26719168D01*
X30392318Y-26980328D01*
X30392313Y-26980338D01*
X30290489Y-27226165D01*
X30246648Y-27280568D01*
X30180354Y-27302633D01*
X30112654Y-27285354D01*
X30065044Y-27234216D01*
X30051928Y-27178712D01*
X30051928Y-26219984D01*
X26069499Y-26219984D01*
X26069499Y-29635553D01*
X30051928Y-29635553D01*
X30051928Y-28821287D01*
X30071613Y-28754248D01*
X30124417Y-28708493D01*
X30193575Y-28698549D01*
X30257131Y-28727574D01*
X30290489Y-28773834D01*
X30392314Y-29019661D01*
X30392318Y-29019671D01*
X30543099Y-29280831D01*
X30726679Y-29520078D01*
X30726685Y-29520085D01*
X30939914Y-29733314D01*
X30939921Y-29733320D01*
X31110986Y-29864582D01*
X31152189Y-29921010D01*
X31159500Y-29962958D01*
X31159500Y-32372357D01*
X31182508Y-32517620D01*
X31185490Y-32536450D01*
X31191523Y-32574534D01*
X31221542Y-32666924D01*
X31254781Y-32769221D01*
X31269466Y-32798043D01*
X31279936Y-32818590D01*
X31347713Y-32951611D01*
X31468034Y-33117219D01*
X31468036Y-33117221D01*
X40582223Y-42231408D01*
X40615708Y-42292731D01*
X40617015Y-42299689D01*
X40628909Y-42374783D01*
X40661397Y-42474769D01*
X40684524Y-42545948D01*
X40706760Y-42614381D01*
X40821130Y-42838846D01*
X40841193Y-42866459D01*
X40865817Y-42900352D01*
X40889298Y-42966156D01*
X40889500Y-42973237D01*
X40889500Y-52102354D01*
X40893239Y-52125960D01*
X40893239Y-52125961D01*
X40921522Y-52304530D01*
X40921522Y-52304531D01*
X40921523Y-52304534D01*
X40984780Y-52499219D01*
X41030781Y-52589500D01*
X41077713Y-52681611D01*
X41198034Y-52847219D01*
X41198036Y-52847221D01*
X44582223Y-56231408D01*
X44615708Y-56292731D01*
X44617015Y-56299689D01*
X44628909Y-56374783D01*
X44628910Y-56374785D01*
X44706201Y-56612663D01*
X44706760Y-56614381D01*
X44821132Y-56838848D01*
X44969201Y-57042649D01*
X44969205Y-57042654D01*
X45147345Y-57220794D01*
X45147350Y-57220798D01*
X45289647Y-57324182D01*
X45351155Y-57368870D01*
X45494184Y-57441747D01*
X45575616Y-57483239D01*
X45575618Y-57483239D01*
X45575621Y-57483241D01*
X45815215Y-57561090D01*
X46064038Y-57600500D01*
X46064039Y-57600500D01*
X46315961Y-57600500D01*
X46315962Y-57600500D01*
X46564785Y-57561090D01*
X46804379Y-57483241D01*
X47028845Y-57368870D01*
X47232656Y-57220793D01*
X47410793Y-57042656D01*
X47558870Y-56838845D01*
X47673241Y-56614379D01*
X47751090Y-56374785D01*
X47790500Y-56125962D01*
X47790500Y-55874038D01*
X52209500Y-55874038D01*
X52209500Y-56125961D01*
X52248910Y-56374785D01*
X52326760Y-56614383D01*
X52441132Y-56838848D01*
X52589201Y-57042649D01*
X52589205Y-57042654D01*
X52767345Y-57220794D01*
X52767350Y-57220798D01*
X52909647Y-57324182D01*
X52971155Y-57368870D01*
X53114184Y-57441747D01*
X53195616Y-57483239D01*
X53195618Y-57483239D01*
X53195621Y-57483241D01*
X53435215Y-57561090D01*
X53684038Y-57600500D01*
X53684039Y-57600500D01*
X53935961Y-57600500D01*
X53935962Y-57600500D01*
X54184785Y-57561090D01*
X54424379Y-57483241D01*
X54648845Y-57368870D01*
X54710353Y-57324181D01*
X54776158Y-57300702D01*
X54783238Y-57300500D01*
X59216762Y-57300500D01*
X59283801Y-57320185D01*
X59289637Y-57324175D01*
X59351155Y-57368870D01*
X59457206Y-57422905D01*
X59575616Y-57483239D01*
X59575618Y-57483239D01*
X59575621Y-57483241D01*
X59815215Y-57561090D01*
X60064038Y-57600500D01*
X60064039Y-57600500D01*
X60315961Y-57600500D01*
X60315962Y-57600500D01*
X60564785Y-57561090D01*
X60804379Y-57483241D01*
X61028845Y-57368870D01*
X61232656Y-57220793D01*
X61410793Y-57042656D01*
X61558870Y-56838845D01*
X61673241Y-56614379D01*
X61751090Y-56374785D01*
X61790500Y-56125962D01*
X61790500Y-55874038D01*
X61751090Y-55625215D01*
X61673241Y-55385621D01*
X61673239Y-55385618D01*
X61673239Y-55385616D01*
X61618987Y-55279142D01*
X61558870Y-55161155D01*
X61462744Y-55028848D01*
X61410798Y-54957350D01*
X61410794Y-54957345D01*
X61232654Y-54779205D01*
X61232649Y-54779201D01*
X61028848Y-54631132D01*
X61028847Y-54631131D01*
X61028845Y-54631130D01*
X60958747Y-54595413D01*
X60804383Y-54516760D01*
X60564785Y-54438910D01*
X60564779Y-54438909D01*
X60315962Y-54399500D01*
X60064038Y-54399500D01*
X59987295Y-54411655D01*
X59815214Y-54438910D01*
X59575616Y-54516760D01*
X59351154Y-54631130D01*
X59312801Y-54658995D01*
X59289646Y-54675818D01*
X59223842Y-54699298D01*
X59216762Y-54699500D01*
X54783238Y-54699500D01*
X54716199Y-54679815D01*
X54710362Y-54675824D01*
X54648845Y-54631130D01*
X54645697Y-54629526D01*
X54424383Y-54516760D01*
X54184785Y-54438910D01*
X54184779Y-54438909D01*
X53935962Y-54399500D01*
X53684038Y-54399500D01*
X53607295Y-54411655D01*
X53435214Y-54438910D01*
X53195616Y-54516760D01*
X52971151Y-54631132D01*
X52767350Y-54779201D01*
X52767345Y-54779205D01*
X52589205Y-54957345D01*
X52589201Y-54957350D01*
X52441132Y-55161151D01*
X52326760Y-55385616D01*
X52248910Y-55625214D01*
X52209500Y-55874038D01*
X47790500Y-55874038D01*
X47751090Y-55625215D01*
X47673241Y-55385621D01*
X47673239Y-55385618D01*
X47673239Y-55385616D01*
X47618987Y-55279142D01*
X47558870Y-55161155D01*
X47462744Y-55028848D01*
X47410798Y-54957350D01*
X47410794Y-54957345D01*
X47232654Y-54779205D01*
X47232649Y-54779201D01*
X47028848Y-54631132D01*
X47028847Y-54631131D01*
X47028845Y-54631130D01*
X46804379Y-54516759D01*
X46684582Y-54477834D01*
X46564783Y-54438909D01*
X46489689Y-54427015D01*
X46457289Y-54411655D01*
X47794146Y-54411655D01*
X52062642Y-54411655D01*
X52062642Y-52911655D01*
X53779202Y-52911655D01*
X57977642Y-52911655D01*
X57977642Y-49496103D01*
X53779202Y-49496103D01*
X53779202Y-52911655D01*
X52062642Y-52911655D01*
X52062642Y-50996103D01*
X47794146Y-50996103D01*
X47794146Y-54411655D01*
X46457289Y-54411655D01*
X46426555Y-54397085D01*
X46421408Y-54392223D01*
X43526819Y-51497634D01*
X43493334Y-51436311D01*
X43490500Y-51409953D01*
X43490500Y-46861655D01*
X43864202Y-46861655D01*
X48062642Y-46861655D01*
X48062642Y-43445629D01*
X43864202Y-43445629D01*
X43864202Y-46861655D01*
X43490500Y-46861655D01*
X43490500Y-42973237D01*
X43510185Y-42906198D01*
X43514168Y-42900370D01*
X43558870Y-42838845D01*
X43673241Y-42614379D01*
X43751090Y-42374785D01*
X43762984Y-42299687D01*
X43792911Y-42236557D01*
X43797757Y-42231426D01*
X44848266Y-41180919D01*
X44909589Y-41147434D01*
X44935947Y-41144600D01*
X48247215Y-41144600D01*
X48314254Y-41164285D01*
X48360009Y-41217089D01*
X48369953Y-41286247D01*
X48357700Y-41324894D01*
X48326761Y-41385613D01*
X48248910Y-41625214D01*
X48209500Y-41874038D01*
X48209500Y-42125961D01*
X48248910Y-42374785D01*
X48326760Y-42614383D01*
X48386446Y-42731522D01*
X48431380Y-42819710D01*
X48441132Y-42838848D01*
X48589201Y-43042649D01*
X48589205Y-43042654D01*
X48767345Y-43220794D01*
X48767350Y-43220798D01*
X48909647Y-43324182D01*
X48971155Y-43368870D01*
X49114184Y-43441747D01*
X49195616Y-43483239D01*
X49195618Y-43483239D01*
X49195621Y-43483241D01*
X49435215Y-43561090D01*
X49684038Y-43600500D01*
X49684039Y-43600500D01*
X49935961Y-43600500D01*
X49935962Y-43600500D01*
X50184785Y-43561090D01*
X50424379Y-43483241D01*
X50648845Y-43368870D01*
X50710353Y-43324181D01*
X50776158Y-43300702D01*
X50783238Y-43300500D01*
X51216762Y-43300500D01*
X51283801Y-43320185D01*
X51289637Y-43324175D01*
X51351155Y-43368870D01*
X51445724Y-43417055D01*
X51575616Y-43483239D01*
X51575618Y-43483239D01*
X51575621Y-43483241D01*
X51680668Y-43517373D01*
X51815214Y-43561090D01*
X51854439Y-43567302D01*
X51890306Y-43572983D01*
X51953441Y-43602912D01*
X51958590Y-43607775D01*
X53316308Y-44965492D01*
X53316322Y-44965507D01*
X53319433Y-44968618D01*
X53319434Y-44968619D01*
X53464181Y-45113366D01*
X53464184Y-45113368D01*
X53464188Y-45113372D01*
X53614368Y-45222482D01*
X53629790Y-45233687D01*
X53749020Y-45294438D01*
X53812181Y-45326621D01*
X53812187Y-45326623D01*
X53977547Y-45380351D01*
X53977550Y-45380352D01*
X54006858Y-45389875D01*
X54006861Y-45389875D01*
X54006866Y-45389877D01*
X54209048Y-45421900D01*
X54209049Y-45421900D01*
X54413752Y-45421900D01*
X60079453Y-45421900D01*
X60146492Y-45441585D01*
X60167134Y-45458219D01*
X64719862Y-50010947D01*
X64753347Y-50072270D01*
X64748363Y-50141962D01*
X64706491Y-50197895D01*
X64688477Y-50209112D01*
X64656288Y-50225513D01*
X64490686Y-50345828D01*
X64345928Y-50490586D01*
X64225615Y-50656186D01*
X64132681Y-50838576D01*
X64069422Y-51033265D01*
X64037400Y-51235448D01*
X64037400Y-54817453D01*
X64017715Y-54884492D01*
X64001081Y-54905134D01*
X52274323Y-66631892D01*
X52213000Y-66665377D01*
X52143308Y-66660393D01*
X52087375Y-66618521D01*
X52062958Y-66553057D01*
X52062642Y-66544211D01*
X52062642Y-63494984D01*
X47865927Y-63494984D01*
X47865927Y-66911655D01*
X51695198Y-66911655D01*
X51762237Y-66931340D01*
X51807992Y-66984144D01*
X51817936Y-67053302D01*
X51788911Y-67116858D01*
X51782879Y-67123336D01*
X48555381Y-70350834D01*
X48494058Y-70384319D01*
X48424366Y-70379335D01*
X48380019Y-70350834D01*
X47797775Y-69768590D01*
X47764290Y-69707267D01*
X47762983Y-69700306D01*
X47751090Y-69625214D01*
X47714970Y-69514049D01*
X47673241Y-69385621D01*
X47673239Y-69385618D01*
X47673239Y-69385616D01*
X47609216Y-69259965D01*
X47558870Y-69161155D01*
X47539952Y-69135117D01*
X47410798Y-68957350D01*
X47410794Y-68957345D01*
X47232654Y-68779205D01*
X47232649Y-68779201D01*
X47028848Y-68631132D01*
X47028847Y-68631131D01*
X47028845Y-68631130D01*
X46958747Y-68595413D01*
X46804383Y-68516760D01*
X46564785Y-68438910D01*
X46531019Y-68433562D01*
X46315962Y-68399500D01*
X46064038Y-68399500D01*
X45939626Y-68419205D01*
X45815214Y-68438910D01*
X45575616Y-68516760D01*
X45351151Y-68631132D01*
X45147350Y-68779201D01*
X45147345Y-68779205D01*
X44969205Y-68957345D01*
X44969201Y-68957350D01*
X44821132Y-69161151D01*
X44706760Y-69385616D01*
X44628910Y-69625214D01*
X44589500Y-69874038D01*
X44589500Y-70125961D01*
X44628910Y-70374785D01*
X44706760Y-70614383D01*
X44775510Y-70749311D01*
X44812445Y-70821800D01*
X44821132Y-70838848D01*
X44969201Y-71042649D01*
X44969205Y-71042654D01*
X45147343Y-71220792D01*
X45147350Y-71220798D01*
X45289647Y-71324182D01*
X45351155Y-71368870D01*
X45466586Y-71427685D01*
X45575616Y-71483239D01*
X45575618Y-71483239D01*
X45575621Y-71483241D01*
X45704049Y-71524970D01*
X45815214Y-71561090D01*
X45854439Y-71567302D01*
X45890306Y-71572983D01*
X45953441Y-71602912D01*
X45958590Y-71607775D01*
X47465086Y-73114271D01*
X47575137Y-73194226D01*
X47630690Y-73234587D01*
X47746907Y-73293803D01*
X47813076Y-73327518D01*
X47813078Y-73327518D01*
X47813081Y-73327520D01*
X47917437Y-73361427D01*
X48007765Y-73390777D01*
X48108857Y-73406788D01*
X48209948Y-73422800D01*
X48209949Y-73422800D01*
X68170051Y-73422800D01*
X68170052Y-73422800D01*
X68372235Y-73390777D01*
X68505981Y-73347320D01*
X68566919Y-73327520D01*
X68658114Y-73281053D01*
X68749311Y-73234587D01*
X68914919Y-73114266D01*
X70421410Y-71607773D01*
X70482731Y-71574290D01*
X70489645Y-71572990D01*
X70564785Y-71561090D01*
X70804379Y-71483241D01*
X71028845Y-71368870D01*
X71232656Y-71220793D01*
X71410793Y-71042656D01*
X71558870Y-70838845D01*
X71673241Y-70614379D01*
X71751090Y-70374785D01*
X71790500Y-70125962D01*
X71790500Y-69874038D01*
X71751090Y-69625215D01*
X71673241Y-69385621D01*
X71673239Y-69385618D01*
X71673238Y-69385613D01*
X71661662Y-69362894D01*
X71648766Y-69294224D01*
X71675043Y-69229484D01*
X71732150Y-69189228D01*
X71772147Y-69182600D01*
X76227853Y-69182600D01*
X76294892Y-69202285D01*
X76340647Y-69255089D01*
X76350591Y-69324247D01*
X76338338Y-69362894D01*
X76326761Y-69385613D01*
X76248910Y-69625214D01*
X76209500Y-69874038D01*
X76209500Y-70125961D01*
X76248910Y-70374785D01*
X76326760Y-70614383D01*
X76395510Y-70749311D01*
X76432445Y-70821800D01*
X76441132Y-70838848D01*
X76589201Y-71042649D01*
X76589205Y-71042654D01*
X76767343Y-71220792D01*
X76767350Y-71220798D01*
X76909647Y-71324182D01*
X76971155Y-71368870D01*
X77086586Y-71427685D01*
X77195616Y-71483239D01*
X77195618Y-71483239D01*
X77195621Y-71483241D01*
X77435215Y-71561090D01*
X77684038Y-71600500D01*
X77684039Y-71600500D01*
X77935961Y-71600500D01*
X77935962Y-71600500D01*
X78184785Y-71561090D01*
X78424379Y-71483241D01*
X78648845Y-71368870D01*
X78710353Y-71324181D01*
X78776158Y-71300702D01*
X78783238Y-71300500D01*
X80854206Y-71300500D01*
X80921245Y-71320185D01*
X80932871Y-71328647D01*
X80981882Y-71368869D01*
X81053550Y-71427685D01*
X81236046Y-71525232D01*
X81434066Y-71585300D01*
X81434065Y-71585300D01*
X81472647Y-71589100D01*
X81588392Y-71600500D01*
X81899953Y-71600500D01*
X81966992Y-71620185D01*
X81987634Y-71636819D01*
X83337008Y-72986192D01*
X83337022Y-72986207D01*
X83340133Y-72989318D01*
X83340134Y-72989319D01*
X83484881Y-73134066D01*
X83484884Y-73134068D01*
X83484887Y-73134071D01*
X83515697Y-73156455D01*
X83567685Y-73194226D01*
X83650489Y-73254387D01*
X83741685Y-73300853D01*
X83746029Y-73303066D01*
X83746030Y-73303067D01*
X83832880Y-73347320D01*
X83832886Y-73347322D01*
X83887487Y-73365062D01*
X83930223Y-73378948D01*
X84027565Y-73410577D01*
X84104738Y-73422800D01*
X84229748Y-73442600D01*
X84229749Y-73442600D01*
X91460251Y-73442600D01*
X91460252Y-73442600D01*
X91662435Y-73410577D01*
X91759776Y-73378948D01*
X91857119Y-73347320D01*
X91948314Y-73300853D01*
X92039511Y-73254387D01*
X92205119Y-73134066D01*
X93731409Y-71607773D01*
X93792730Y-71574290D01*
X93799649Y-71572989D01*
X93874785Y-71561090D01*
X94114379Y-71483241D01*
X94338845Y-71368870D01*
X94542656Y-71220793D01*
X94720793Y-71042656D01*
X94868870Y-70838845D01*
X94983241Y-70614379D01*
X95061090Y-70374785D01*
X95100500Y-70125962D01*
X95100500Y-69874038D01*
X95061090Y-69625215D01*
X94983241Y-69385621D01*
X94983239Y-69385618D01*
X94983238Y-69385613D01*
X94971662Y-69362894D01*
X94958766Y-69294224D01*
X94985043Y-69229484D01*
X95042150Y-69189228D01*
X95082147Y-69182600D01*
X95792053Y-69182600D01*
X95859092Y-69202285D01*
X95879734Y-69218919D01*
X96892223Y-70231408D01*
X96925708Y-70292731D01*
X96927015Y-70299689D01*
X96938909Y-70374783D01*
X96959617Y-70438515D01*
X97016759Y-70614379D01*
X97122445Y-70821800D01*
X97131132Y-70838848D01*
X97279201Y-71042649D01*
X97279205Y-71042654D01*
X97457343Y-71220792D01*
X97457350Y-71220798D01*
X97599647Y-71324182D01*
X97661155Y-71368870D01*
X97776586Y-71427685D01*
X97885616Y-71483239D01*
X97885618Y-71483239D01*
X97885621Y-71483241D01*
X98125215Y-71561090D01*
X98374038Y-71600500D01*
X98374039Y-71600500D01*
X98625961Y-71600500D01*
X98625962Y-71600500D01*
X98874785Y-71561090D01*
X99114379Y-71483241D01*
X99338845Y-71368870D01*
X99400353Y-71324181D01*
X99466158Y-71300702D01*
X99473238Y-71300500D01*
X139642351Y-71300500D01*
X139642352Y-71300500D01*
X139844535Y-71268477D01*
X139991290Y-71220793D01*
X140039219Y-71205220D01*
X140186191Y-71130334D01*
X140221611Y-71112287D01*
X140387219Y-70991966D01*
X141708631Y-69670553D01*
X146537774Y-69670553D01*
X150521928Y-69670553D01*
X150521928Y-66256187D01*
X146537774Y-66256187D01*
X146537774Y-69670553D01*
X141708631Y-69670553D01*
X145171259Y-66207924D01*
X145232580Y-66174441D01*
X145239541Y-66173134D01*
X145332403Y-66158426D01*
X145386493Y-66149860D01*
X145633572Y-66069579D01*
X145865051Y-65951634D01*
X145947806Y-65891508D01*
X145985419Y-65864182D01*
X146051225Y-65840702D01*
X146058304Y-65840500D01*
X146168551Y-65840500D01*
X146168552Y-65840500D01*
X146370735Y-65808477D01*
X146468076Y-65776848D01*
X146565419Y-65745220D01*
X146656614Y-65698753D01*
X146747811Y-65652287D01*
X146913419Y-65531966D01*
X149960466Y-62484919D01*
X150080787Y-62319311D01*
X150165628Y-62152800D01*
X150173720Y-62136919D01*
X150236977Y-61942234D01*
X150237971Y-61935962D01*
X150253485Y-61838007D01*
X150269000Y-61740057D01*
X150269000Y-57236748D01*
X150246301Y-57093434D01*
X150236977Y-57034567D01*
X150236977Y-57034565D01*
X150173720Y-56839882D01*
X150173720Y-56839881D01*
X150090207Y-56675977D01*
X150080787Y-56657489D01*
X149960466Y-56491881D01*
X147404919Y-53936334D01*
X147239311Y-53816013D01*
X147148114Y-53769546D01*
X147056919Y-53723080D01*
X146957513Y-53690781D01*
X146862235Y-53659823D01*
X146862232Y-53659822D01*
X146706920Y-53635223D01*
X146660052Y-53627800D01*
X146660051Y-53627800D01*
X110657164Y-53627800D01*
X110590125Y-53608115D01*
X110544370Y-53555311D01*
X110534426Y-53486153D01*
X110563451Y-53422597D01*
X110600869Y-53393315D01*
X110602041Y-53392717D01*
X110648845Y-53368870D01*
X110852656Y-53220793D01*
X111030793Y-53042656D01*
X111178870Y-52838845D01*
X111293241Y-52614379D01*
X111371090Y-52374785D01*
X111410500Y-52125962D01*
X111410500Y-51874038D01*
X111371090Y-51625215D01*
X111366326Y-51610553D01*
X130864153Y-51610553D01*
X135136725Y-51610553D01*
X135136725Y-48195629D01*
X130864153Y-48195629D01*
X130864153Y-51610553D01*
X111366326Y-51610553D01*
X111293241Y-51385621D01*
X111293239Y-51385618D01*
X111293239Y-51385616D01*
X111251747Y-51304184D01*
X111178870Y-51161155D01*
X111159952Y-51135117D01*
X111030798Y-50957350D01*
X111030794Y-50957345D01*
X110852654Y-50779205D01*
X110852649Y-50779201D01*
X110648848Y-50631132D01*
X110648847Y-50631131D01*
X110648845Y-50631130D01*
X110578747Y-50595413D01*
X110424383Y-50516760D01*
X110184785Y-50438910D01*
X110184779Y-50438909D01*
X109935962Y-50399500D01*
X109684038Y-50399500D01*
X109559626Y-50419205D01*
X109435214Y-50438910D01*
X109195616Y-50516760D01*
X108971151Y-50631132D01*
X108767350Y-50779201D01*
X108767345Y-50779205D01*
X108589205Y-50957345D01*
X108589201Y-50957350D01*
X108441132Y-51161151D01*
X108326760Y-51385616D01*
X108248910Y-51625214D01*
X108226201Y-51768590D01*
X108209500Y-51874038D01*
X108209500Y-52125962D01*
X108216107Y-52167678D01*
X108248910Y-52374785D01*
X108326760Y-52614383D01*
X108441132Y-52838848D01*
X108589201Y-53042649D01*
X108589205Y-53042654D01*
X108767345Y-53220794D01*
X108767350Y-53220798D01*
X108945117Y-53349952D01*
X108971155Y-53368870D01*
X109017360Y-53392412D01*
X109019131Y-53393315D01*
X109069927Y-53441290D01*
X109086722Y-53509111D01*
X109064184Y-53575246D01*
X109009469Y-53618697D01*
X108962836Y-53627800D01*
X103037164Y-53627800D01*
X102970125Y-53608115D01*
X102924370Y-53555311D01*
X102914426Y-53486153D01*
X102943451Y-53422597D01*
X102980869Y-53393315D01*
X102982041Y-53392717D01*
X103028845Y-53368870D01*
X103232656Y-53220793D01*
X103410793Y-53042656D01*
X103558870Y-52838845D01*
X103673241Y-52614379D01*
X103751090Y-52374785D01*
X103790500Y-52125962D01*
X103790500Y-51874038D01*
X103751090Y-51625215D01*
X103673241Y-51385621D01*
X103673239Y-51385618D01*
X103673239Y-51385616D01*
X103631747Y-51304184D01*
X103558870Y-51161155D01*
X103539952Y-51135117D01*
X103410798Y-50957350D01*
X103410794Y-50957345D01*
X103232654Y-50779205D01*
X103232649Y-50779201D01*
X103028848Y-50631132D01*
X103028847Y-50631131D01*
X103028845Y-50631130D01*
X102804379Y-50516759D01*
X102684582Y-50477834D01*
X102564783Y-50438909D01*
X102489689Y-50427015D01*
X102426555Y-50397085D01*
X102421408Y-50392223D01*
X100907421Y-48878236D01*
X100907415Y-48878231D01*
X100767419Y-48776518D01*
X100724753Y-48721188D01*
X100718774Y-48651575D01*
X100751380Y-48589780D01*
X100812218Y-48555423D01*
X100840304Y-48552200D01*
X122642351Y-48552200D01*
X122642352Y-48552200D01*
X122844534Y-48520177D01*
X123039219Y-48456920D01*
X123221610Y-48363987D01*
X123314590Y-48296432D01*
X123387213Y-48243671D01*
X123387215Y-48243668D01*
X123387219Y-48243666D01*
X123531966Y-48098919D01*
X123540297Y-48087451D01*
X123551974Y-48071381D01*
X123598761Y-48006982D01*
X123652287Y-47933310D01*
X123745220Y-47750919D01*
X123808477Y-47556234D01*
X123813440Y-47524901D01*
X123843370Y-47461766D01*
X123902682Y-47424836D01*
X123935913Y-47420300D01*
X135843851Y-47420300D01*
X135843852Y-47420300D01*
X136046035Y-47388277D01*
X136151371Y-47354051D01*
X136240719Y-47325020D01*
X136331914Y-47278553D01*
X136423111Y-47232087D01*
X136588719Y-47111766D01*
X143300150Y-40400332D01*
X143300157Y-40400327D01*
X143307217Y-40393267D01*
X143307219Y-40393266D01*
X143451966Y-40248519D01*
X143512126Y-40165714D01*
X143572287Y-40082911D01*
X143665221Y-39900518D01*
X143728477Y-39705834D01*
X143760500Y-39503651D01*
X143760500Y-39298948D01*
X143760500Y-30424500D01*
X143780185Y-30357461D01*
X143832989Y-30311706D01*
X143884500Y-30300500D01*
X144004957Y-30300500D01*
X144004958Y-30300499D01*
X144072104Y-30292934D01*
X144139249Y-30285369D01*
X144139252Y-30285368D01*
X144139255Y-30285368D01*
X144309522Y-30225789D01*
X144462262Y-30129816D01*
X144589816Y-30002262D01*
X144685789Y-29849522D01*
X144745368Y-29679255D01*
X144760500Y-29544954D01*
X144760500Y-27359047D01*
X144780185Y-27292008D01*
X144832989Y-27246253D01*
X144902147Y-27236309D01*
X144965703Y-27265334D01*
X144972181Y-27271366D01*
X145232386Y-27531571D01*
X145265871Y-27592894D01*
X145267644Y-27635437D01*
X145239501Y-27849206D01*
X145239500Y-27849223D01*
X145239500Y-28150776D01*
X145239501Y-28150793D01*
X145278861Y-28449766D01*
X145356913Y-28741060D01*
X145472314Y-29019661D01*
X145472318Y-29019671D01*
X145623099Y-29280831D01*
X145806679Y-29520078D01*
X145806685Y-29520085D01*
X146019914Y-29733314D01*
X146019921Y-29733320D01*
X146259168Y-29916900D01*
X146520328Y-30067681D01*
X146520329Y-30067681D01*
X146520332Y-30067683D01*
X146706072Y-30144619D01*
X146798939Y-30183086D01*
X146798940Y-30183086D01*
X146798942Y-30183087D01*
X147090232Y-30261138D01*
X147389217Y-30300500D01*
X147389224Y-30300500D01*
X147690776Y-30300500D01*
X147690783Y-30300500D01*
X147989768Y-30261138D01*
X148281058Y-30183087D01*
X148559668Y-30067683D01*
X148820832Y-29916900D01*
X149060080Y-29733319D01*
X149273319Y-29520080D01*
X149456900Y-29280832D01*
X149607683Y-29019668D01*
X149723087Y-28741058D01*
X149773999Y-28551050D01*
X149810364Y-28491390D01*
X149873211Y-28460861D01*
X149942587Y-28469156D01*
X149996464Y-28513641D01*
X150017739Y-28580193D01*
X150017774Y-28583144D01*
X150017774Y-29635553D01*
X154001928Y-29635553D01*
X154001928Y-26221103D01*
X150017774Y-26221103D01*
X150017774Y-27416855D01*
X149998089Y-27483894D01*
X149945285Y-27529649D01*
X149876127Y-27539593D01*
X149812571Y-27510568D01*
X149774797Y-27451790D01*
X149773999Y-27448949D01*
X149723087Y-27258942D01*
X149718753Y-27248480D01*
X149679287Y-27153200D01*
X149607683Y-26980332D01*
X149456900Y-26719168D01*
X149273319Y-26479920D01*
X149273314Y-26479914D01*
X149060085Y-26266685D01*
X149060078Y-26266679D01*
X148820831Y-26083099D01*
X148559671Y-25932318D01*
X148559661Y-25932314D01*
X148281060Y-25816913D01*
X147989766Y-25738861D01*
X147690793Y-25699501D01*
X147690788Y-25699500D01*
X147690783Y-25699500D01*
X147389217Y-25699500D01*
X147389211Y-25699500D01*
X147389206Y-25699501D01*
X147175437Y-25727644D01*
X147106402Y-25716878D01*
X147071571Y-25692386D01*
X145585521Y-24206336D01*
X145585519Y-24206334D01*
X145419911Y-24086013D01*
X145328714Y-24039546D01*
X145328712Y-24039545D01*
X145237523Y-23993081D01*
X145190815Y-23977904D01*
X145140176Y-23961451D01*
X145116303Y-23953694D01*
X145042835Y-23929822D01*
X144868295Y-23902178D01*
X144840652Y-23897800D01*
X140434852Y-23897800D01*
X140230148Y-23897800D01*
X140162753Y-23908474D01*
X140027963Y-23929823D01*
X139930623Y-23961450D01*
X139930623Y-23961451D01*
X139877852Y-23978597D01*
X139833274Y-23993082D01*
X139742084Y-24039545D01*
X139742085Y-24039546D01*
X139650888Y-24086013D01*
X139485278Y-24206336D01*
X129250484Y-34441129D01*
X129246408Y-34445204D01*
X129245681Y-34445734D01*
X129100934Y-34590481D01*
X129100404Y-34591208D01*
X128276772Y-35414841D01*
X128215449Y-35448326D01*
X128145757Y-35443342D01*
X128101411Y-35414843D01*
X122730408Y-30043923D01*
X122730408Y-30043922D01*
X122730407Y-30043922D01*
X122694514Y-30008029D01*
X122589533Y-29931758D01*
X122589532Y-29931757D01*
X122529645Y-29888247D01*
X122528945Y-29887730D01*
X122528943Y-29887728D01*
X122528543Y-29887525D01*
X122528542Y-29887524D01*
X122443250Y-29844067D01*
X122346517Y-29794779D01*
X122346511Y-29794777D01*
X122346509Y-29794776D01*
X122259247Y-29766423D01*
X122154293Y-29732321D01*
X122154267Y-29732313D01*
X122151834Y-29731523D01*
X122151828Y-29731522D01*
X122151825Y-29731521D01*
X122151096Y-29731405D01*
X122151091Y-29731404D01*
X122063610Y-29717549D01*
X122042442Y-29714196D01*
X121949991Y-29699553D01*
X121949990Y-29699553D01*
X121949649Y-29699499D01*
X121949641Y-29699499D01*
X121847290Y-29699500D01*
X109602196Y-29699500D01*
X109535157Y-29679815D01*
X109514515Y-29663181D01*
X109344060Y-29492726D01*
X109344051Y-29492718D01*
X109136003Y-29333075D01*
X108908900Y-29201958D01*
X108908890Y-29201953D01*
X108666628Y-29101605D01*
X108666621Y-29101603D01*
X108666619Y-29101602D01*
X108413316Y-29033730D01*
X108355539Y-29026123D01*
X108153327Y-28999500D01*
X108153320Y-28999500D01*
X107912247Y-28999500D01*
X107845208Y-28979815D01*
X107824566Y-28963181D01*
X106323121Y-27461736D01*
X106323119Y-27461734D01*
X106157511Y-27341413D01*
X106048756Y-27286000D01*
X106048753Y-27285998D01*
X105975123Y-27248481D01*
X105900461Y-27224222D01*
X105877776Y-27216851D01*
X105853903Y-27209094D01*
X105780435Y-27185222D01*
X105605895Y-27157578D01*
X105578252Y-27153200D01*
X90670852Y-27153200D01*
X90466148Y-27153200D01*
X90398753Y-27163874D01*
X90263963Y-27185223D01*
X90166623Y-27216850D01*
X90166623Y-27216851D01*
X90143938Y-27224222D01*
X90069276Y-27248481D01*
X89995644Y-27286000D01*
X89886887Y-27341414D01*
X89886884Y-27341416D01*
X89721278Y-27461736D01*
X88219833Y-28963181D01*
X88158510Y-28996666D01*
X88132152Y-28999500D01*
X87891072Y-28999500D01*
X87659972Y-29029926D01*
X87631084Y-29033730D01*
X87377781Y-29101602D01*
X87377771Y-29101605D01*
X87135509Y-29201953D01*
X87135499Y-29201958D01*
X86908396Y-29333075D01*
X86700348Y-29492718D01*
X86514918Y-29678148D01*
X86355275Y-29886196D01*
X86224158Y-30113299D01*
X86224153Y-30113309D01*
X86123805Y-30355571D01*
X86123802Y-30355581D01*
X86055930Y-30608885D01*
X86021700Y-30868872D01*
X86021700Y-31109952D01*
X86002015Y-31176991D01*
X85985381Y-31197633D01*
X84987534Y-32195481D01*
X84926211Y-32228966D01*
X84899853Y-32231800D01*
X82636841Y-32231800D01*
X82569802Y-32212115D01*
X82524047Y-32159311D01*
X82513438Y-32095646D01*
X82518347Y-32045801D01*
X82522700Y-32001607D01*
X82522699Y-29998394D01*
X82507500Y-29844067D01*
X82447431Y-29646046D01*
X82447429Y-29646043D01*
X82447429Y-29646041D01*
X82349886Y-29463551D01*
X82349884Y-29463549D01*
X82218610Y-29303589D01*
X82058650Y-29172315D01*
X82058648Y-29172313D01*
X81876158Y-29074770D01*
X81777143Y-29044734D01*
X81678133Y-29014700D01*
X81678131Y-29014699D01*
X81678133Y-29014699D01*
X81559004Y-29002966D01*
X81523807Y-28999500D01*
X81523804Y-28999500D01*
X80412247Y-28999500D01*
X80345208Y-28979815D01*
X80324566Y-28963181D01*
X78862121Y-27500736D01*
X78862119Y-27500734D01*
X78696511Y-27380413D01*
X78574781Y-27318389D01*
X78514119Y-27287480D01*
X78411007Y-27253977D01*
X78407330Y-27252782D01*
X78407327Y-27252781D01*
X78319432Y-27224222D01*
X78164120Y-27199623D01*
X78117252Y-27192200D01*
X78117251Y-27192200D01*
X61946700Y-27192200D01*
X61879661Y-27172515D01*
X61833906Y-27119711D01*
X61822700Y-27068200D01*
X61822700Y-25883148D01*
X61813527Y-25825232D01*
X61790677Y-25680966D01*
X61775921Y-25635553D01*
X61759041Y-25583599D01*
X61727420Y-25486281D01*
X61727418Y-25486278D01*
X61727418Y-25486276D01*
X61658236Y-25350500D01*
X61634487Y-25303889D01*
X61514166Y-25138281D01*
X57088066Y-20712181D01*
X57054581Y-20650858D01*
X57059565Y-20581166D01*
X57101437Y-20525233D01*
X57166901Y-20500816D01*
X57175747Y-20500500D01*
X159375500Y-20500500D01*
X159442539Y-20520185D01*
X159488294Y-20572989D01*
X159499500Y-20624500D01*
X159499500Y-87375500D01*
X159479815Y-87442539D01*
X159427011Y-87488294D01*
X159375500Y-87499500D01*
X20624500Y-87499500D01*
X20557461Y-87479815D01*
X20511706Y-87427011D01*
X20500500Y-87375500D01*
X20500500Y-77861655D01*
X59864202Y-77861655D01*
X64062642Y-77861655D01*
X81449202Y-77861655D01*
X85647642Y-77861655D01*
X85647642Y-76360553D01*
X93864202Y-76360553D01*
X98136774Y-76360553D01*
X98136774Y-72946103D01*
X93864202Y-72946103D01*
X93864202Y-76360553D01*
X85647642Y-76360553D01*
X85647642Y-74446103D01*
X81449202Y-74446103D01*
X81449202Y-77861655D01*
X64062642Y-77861655D01*
X64062642Y-76111672D01*
X75066642Y-76111672D01*
X80691928Y-76111672D01*
X80691928Y-72694984D01*
X75066642Y-72694984D01*
X75066642Y-76111672D01*
X64062642Y-76111672D01*
X64062642Y-74446103D01*
X59864202Y-74446103D01*
X59864202Y-77861655D01*
X20500500Y-77861655D01*
X20500500Y-20624500D01*
X20520185Y-20557461D01*
X20572989Y-20511706D01*
X20624500Y-20500500D01*
X46280953Y-20500500D01*
X46347992Y-20520185D01*
G37*
%TD.AperFunction*%
M02*
