M48
; DRILL file KiCad 10.0.4 date 2026-06-22T06:31:59
; FORMAT={-:-/ absolute / metric / decimal}
; #@! TF.CreationDate,2026-06-22T06:31:59+02:00
; #@! TF.GenerationSoftware,Kicad,Pcbnew,10.0.4
; #@! TF.FileFunction,Plated,1,2,PTH
FMAT,2
METRIC
; #@! TA.AperFunction,Plated,PTH,ViaDrill
T1C0.800
; #@! TA.AperFunction,Plated,PTH,ComponentDrill
T2C0.800
; #@! TA.AperFunction,Plated,PTH,ComponentDrill
T3C1.000
; #@! TA.AperFunction,Plated,PTH,ComponentDrill
T4C1.100
; #@! TA.AperFunction,Plated,PTH,ComponentDrill
T5C1.200
; #@! TA.AperFunction,Plated,PTH,ComponentDrill
T6C1.520
%
G90
G05
T1
X58.04Y-36.416
X72.318Y-69.765
X83.997Y-59.856
T2
X28.175Y-41.825
X28.575Y-49.515
X28.575Y-52.055
X28.575Y-54.595
X28.575Y-57.135
X35.795Y-41.825
X36.195Y-49.515
X36.195Y-52.055
X36.195Y-54.595
X36.195Y-57.135
X40.675Y-44.425
X40.685Y-49.525
X41.075Y-31.815
X41.075Y-34.355
X41.075Y-36.895
X41.075Y-39.435
X42.145Y-55.72
X44.685Y-55.72
X45.685Y-49.525
X47.225Y-55.72
X48.295Y-44.425
X48.695Y-31.815
X48.695Y-34.355
X48.695Y-36.895
X48.695Y-39.435
X53.275Y-31.725
X53.275Y-36.825
X53.275Y-41.625
X53.275Y-46.125
X58.375Y-60.925
X58.817Y-52.167
X58.817Y-54.707
X60.895Y-31.725
X60.895Y-36.825
X60.895Y-41.625
X60.895Y-46.125
X65.075Y-31.725
X65.475Y-36.815
X65.475Y-39.355
X65.475Y-41.895
X65.475Y-44.435
X65.995Y-60.925
X66.438Y-52.167
X66.438Y-54.707
X70.575Y-62.185
X70.575Y-64.725
X70.575Y-67.265
X70.775Y-57.125
X72.532Y-82.025
X72.695Y-31.725
X73.095Y-36.815
X73.095Y-39.355
X73.095Y-41.895
X73.095Y-44.435
X76.032Y-82.025
X77.575Y-31.725
X77.975Y-36.805
X77.975Y-39.345
X77.975Y-41.885
X77.975Y-44.425
X77.975Y-46.965
X77.975Y-49.505
X77.975Y-52.045
X78.195Y-62.185
X78.195Y-64.725
X78.195Y-67.265
X78.395Y-57.125
X82.775Y-64.825
X83.175Y-69.905
X83.175Y-72.445
X83.175Y-74.985
X83.175Y-77.525
X83.175Y-80.065
X83.175Y-82.605
X83.175Y-85.145
X85.195Y-31.725
X85.595Y-36.805
X85.595Y-39.345
X85.595Y-41.885
X85.595Y-44.425
X85.595Y-46.965
X85.595Y-49.505
X85.595Y-52.045
X90.175Y-31.725
X90.395Y-64.825
X90.575Y-52.115
X90.575Y-54.655
X90.575Y-57.195
X90.575Y-59.735
X90.795Y-69.905
X90.795Y-72.445
X90.795Y-74.985
X90.795Y-77.525
X90.795Y-80.065
X90.795Y-82.605
X90.795Y-85.145
X95.275Y-71.525
X95.275Y-76.625
X96.932Y-89.625
X97.795Y-31.725
X98.195Y-52.115
X98.195Y-54.655
X98.195Y-57.195
X98.195Y-59.735
X100.432Y-89.625
X102.785Y-49.025
X102.785Y-54.025
X102.785Y-59.125
X102.895Y-71.525
X102.895Y-76.625
X104.145Y-65.32
X105.075Y-31.725
X106.685Y-65.32
X107.732Y-89.625
X107.732Y-100.225
X107.785Y-49.025
X107.785Y-54.025
X107.785Y-59.125
X109.225Y-65.32
X110.185Y-71.525
X110.185Y-76.625
X111.232Y-89.625
X111.232Y-100.225
X112.695Y-31.725
X115.185Y-71.525
X115.185Y-76.625
T3
X53.585Y-51.25
X53.585Y-53.79
T4
X28.505Y-62.325
X28.505Y-87.625
X28.505Y-92.925
X28.505Y-98.125
X28.505Y-103.425
X38.665Y-62.325
X38.665Y-87.625
X38.665Y-92.925
X38.665Y-98.125
X38.665Y-103.425
X46.105Y-86.325
X46.105Y-91.625
X56.265Y-86.325
X56.265Y-91.625
X60.045Y-81.175
X62.585Y-81.175
X65.125Y-81.175
X71.845Y-74.275
X74.385Y-74.275
X76.925Y-74.275
X90.505Y-36.925
X95.605Y-81.725
X100.665Y-36.925
X105.405Y-43.825
X105.765Y-81.725
X106.745Y-38.675
X109.285Y-38.675
X111.825Y-38.675
X115.565Y-43.825
T5
X48.107Y-104.525
X55.607Y-104.525
T6
X29.805Y-80.025
X29.845Y-34.225
X29.845Y-69.925
X34.885Y-80.025
X34.925Y-34.225
X34.925Y-69.925
X39.965Y-80.025
X47.445Y-78.525
X52.525Y-78.525
X54.445Y-68.425
X59.525Y-68.425
X65.805Y-102.725
X70.885Y-102.725
X72.605Y-92.725
X75.965Y-102.725
X77.685Y-92.725
X82.765Y-92.725
X91.845Y-44.525
X96.925Y-44.525
M30
