  0
SECTION
  2
HEADER
  9
$ANGBASE
  50
0.0
  9
$ANGDIR
  70
1
  9
$MEASUREMENT
  70
1
  0
ENDSEC
  0
SECTION
  2
TABLES
  0
TABLE
  2
LTYPE
  70
4
  0
LTYPE
  5
40F
  2
CONTINUOUS
  70
0
  3
Solid line
  72
65
  73
0
  40
0.0
  0
LTYPE
  5
410
  2
DASHDOT
 70
0
  3
Dash Dot ____ _ ____ _
 72
65
 73
4
 40
2.0
 49
1.25
 49
-0.25
 49
0.25
 49
-0.25
  0
LTYPE
  5
411
  2
DASHED
 70
0
  3
Dashed __ __ __ __ __
 72
65
 73
2
 40
0.75
 49
0.5
 49
-0.25
  0
LTYPE
  5
43B
  2
DOTTED
 70
0
  3
Dotted .  .  .  .
 72
65
 73
2
 40
0.2
 49
0.0
 49
-0.2
  0
ENDTAB
  0
TABLE
  2
STYLE
  70
4
  0
STYLE
  2
KICAD
  70
0
  40
0
  41
1
  42
1
  50
0
  71
0
  3
isocp.shx
  0
STYLE
  2
KICADB
  70
0
  40
0
  41
1
  42
1
  50
0
  71
0
  3
isocp.shx
  0
STYLE
  2
KICADI
  70
0
  40
0
  41
1
  42
1
  50
15
  71
0
  3
isocp.shx
  0
STYLE
  2
KICADBI
  70
0
  40
0
  41
1
  42
1
  50
15
  71
0
  3
isocp.shx
  0
ENDTAB
  0
TABLE
  2
LAYER
  70
35
  0
LAYER
  2
BLACK
  70
0
  62
7
  6
CONTINUOUS
  0
LAYER
  2
GRAY1
  70
0
  62
251
  6
CONTINUOUS
  0
LAYER
  2
GRAY2
  70
0
  62
8
  6
CONTINUOUS
  0
LAYER
  2
GRAY3
  70
0
  62
9
  6
CONTINUOUS
  0
LAYER
  2
WHITE
  70
0
  62
7
  6
CONTINUOUS
  0
LAYER
  2
LYELLOW
  70
0
  62
51
  6
CONTINUOUS
  0
LAYER
  2
LORANGE
  70
0
  62
41
  6
CONTINUOUS
  0
LAYER
  2
BLUE1
  70
0
  62
178
  6
CONTINUOUS
  0
LAYER
  2
GREEN1
  70
0
  62
98
  6
CONTINUOUS
  0
LAYER
  2
CYAN1
  70
0
  62
138
  6
CONTINUOUS
  0
LAYER
  2
RED1
  70
0
  62
18
  6
CONTINUOUS
  0
LAYER
  2
MAGENTA1
  70
0
  62
228
  6
CONTINUOUS
  0
LAYER
  2
BROWN1
  70
0
  62
58
  6
CONTINUOUS
  0
LAYER
  2
ORANGE1
  70
0
  62
34
  6
CONTINUOUS
  0
LAYER
  2
BLUE2
  70
0
  62
5
  6
CONTINUOUS
  0
LAYER
  2
GREEN2
  70
0
  62
3
  6
CONTINUOUS
  0
LAYER
  2
CYAN2
  70
0
  62
4
  6
CONTINUOUS
  0
LAYER
  2
RED2
  70
0
  62
1
  6
CONTINUOUS
  0
LAYER
  2
MAGENTA2
  70
0
  62
6
  6
CONTINUOUS
  0
LAYER
  2
BROWN2
  70
0
  62
54
  6
CONTINUOUS
  0
LAYER
  2
ORANGE2
  70
0
  62
42
  6
CONTINUOUS
  0
LAYER
  2
BLUE3
  70
0
  62
171
  6
CONTINUOUS
  0
LAYER
  2
GREEN3
  70
0
  62
91
  6
CONTINUOUS
  0
LAYER
  2
CYAN3
  70
0
  62
131
  6
CONTINUOUS
  0
LAYER
  2
RED3
  70
0
  62
11
  6
CONTINUOUS
  0
LAYER
  2
MAGENTA3
  70
0
  62
221
  6
CONTINUOUS
  0
LAYER
  2
YELLOW3
  70
0
  62
2
  6
CONTINUOUS
  0
LAYER
  2
ORANGE3
  70
0
  62
32
  6
CONTINUOUS
  0
LAYER
  2
BLUE4
  70
0
  62
5
  6
CONTINUOUS
  0
LAYER
  2
GREEN4
  70
0
  62
3
  6
CONTINUOUS
  0
LAYER
  2
CYAN4
  70
0
  62
4
  6
CONTINUOUS
  0
LAYER
  2
RED4
  70
0
  62
1
  6
CONTINUOUS
  0
LAYER
  2
MAGENTA4
  70
0
  62
6
  6
CONTINUOUS
  0
LAYER
  2
YELLOW4
  70
0
  62
2
  6
CONTINUOUS
  0
LAYER
  2
ORANGE4
  70
0
  62
40
  6
CONTINUOUS
  0
ENDTAB
  0
ENDSEC
  0
SECTION
  2
ENTITIES
0
LINE
8
LYELLOW
6
CONTINUOUS
10
89.8333329999999961
20
-51.8595800000000011
11
89.7857139999999987
21
-51.907199999999996
0
LINE
8
LYELLOW
6
CONTINUOUS
10
89.7857139999999987
20
-51.907199999999996
11
89.6428569999999922
21
-51.9548190000000005
0
LINE
8
LYELLOW
6
CONTINUOUS
10
89.6428569999999922
20
-51.9548190000000005
11
89.5476189999999974
21
-51.9548190000000005
0
LINE
8
LYELLOW
6
CONTINUOUS
10
89.5476189999999974
20
-51.9548190000000005
11
89.404761999999991
21
-51.907199999999996
0
LINE
8
LYELLOW
6
CONTINUOUS
10
89.404761999999991
20
-51.907199999999996
11
89.3095239999999961
21
-51.8119609999999966
0
LINE
8
LYELLOW
6
CONTINUOUS
10
89.3095239999999961
20
-51.8119609999999966
11
89.2619049999999987
21
-51.7167229999999947
0
LINE
8
LYELLOW
6
CONTINUOUS
10
89.2619049999999987
20
-51.7167229999999947
11
89.2142860000000013
21
-51.5262469999999979
0
LINE
8
LYELLOW
6
CONTINUOUS
10
89.2142860000000013
20
-51.5262469999999979
11
89.2142860000000013
21
-51.3833899999999986
0
LINE
8
LYELLOW
6
CONTINUOUS
10
89.2142860000000013
20
-51.3833899999999986
11
89.2619049999999987
21
-51.1929139999999947
0
LINE
8
LYELLOW
6
CONTINUOUS
10
89.2619049999999987
20
-51.1929139999999947
11
89.3095239999999961
21
-51.0976759999999999
0
LINE
8
LYELLOW
6
CONTINUOUS
10
89.3095239999999961
20
-51.0976759999999999
11
89.404761999999991
21
-51.0024379999999979
0
LINE
8
LYELLOW
6
CONTINUOUS
10
89.404761999999991
20
-51.0024379999999979
11
89.5476189999999974
21
-50.9548190000000005
0
LINE
8
LYELLOW
6
CONTINUOUS
10
89.5476189999999974
20
-50.9548190000000005
11
89.6428569999999922
21
-50.9548190000000005
0
LINE
8
LYELLOW
6
CONTINUOUS
10
89.6428569999999922
20
-50.9548190000000005
11
89.7857139999999987
21
-51.0024379999999979
0
LINE
8
LYELLOW
6
CONTINUOUS
10
89.7857139999999987
20
-51.0024379999999979
11
89.8333329999999961
21
-51.0500569999999954
0
LINE
8
LYELLOW
6
CONTINUOUS
10
90.2142860000000013
20
-51.0500569999999954
11
90.2619049999999987
21
-51.0024379999999979
0
LINE
8
LYELLOW
6
CONTINUOUS
10
90.2619049999999987
20
-51.0024379999999979
11
90.3571429999999935
21
-50.9548190000000005
0
LINE
8
LYELLOW
6
CONTINUOUS
10
90.3571429999999935
20
-50.9548190000000005
11
90.5952379999999948
21
-50.9548190000000005
0
LINE
8
LYELLOW
6
CONTINUOUS
10
90.5952379999999948
20
-50.9548190000000005
11
90.6904759999999897
21
-51.0024379999999979
0
LINE
8
LYELLOW
6
CONTINUOUS
10
90.6904759999999897
20
-51.0024379999999979
11
90.7380950000000013
21
-51.0500569999999954
0
LINE
8
LYELLOW
6
CONTINUOUS
10
90.7380950000000013
20
-51.0500569999999954
11
90.7857139999999987
21
-51.1452949999999973
0
LINE
8
LYELLOW
6
CONTINUOUS
10
90.7857139999999987
20
-51.1452949999999973
11
90.7857139999999987
21
-51.2405329999999992
0
LINE
8
LYELLOW
6
CONTINUOUS
10
90.7857139999999987
20
-51.2405329999999992
11
90.7380950000000013
21
-51.3833899999999986
0
LINE
8
LYELLOW
6
CONTINUOUS
10
90.7380950000000013
20
-51.3833899999999986
11
90.1666669999999897
21
-51.9548190000000005
0
LINE
8
LYELLOW
6
CONTINUOUS
10
90.1666669999999897
20
-51.9548190000000005
11
90.7857139999999987
21
-51.9548190000000005
0
LINE
8
LYELLOW
6
CONTINUOUS
10
63.3571419999999961
20
-74.084818999999996
11
63.023809
21
-73.608627999999996
0
LINE
8
LYELLOW
6
CONTINUOUS
10
62.7857139999999987
20
-74.084818999999996
11
62.7857139999999987
21
-73.084818999999996
0
LINE
8
LYELLOW
6
CONTINUOUS
10
62.7857139999999987
20
-73.084818999999996
11
63.1666659999999993
21
-73.084818999999996
0
LINE
8
LYELLOW
6
CONTINUOUS
10
63.1666659999999993
20
-73.084818999999996
11
63.2619039999999941
21
-73.1324379999999934
0
LINE
8
LYELLOW
6
CONTINUOUS
10
63.2619039999999941
20
-73.1324379999999934
11
63.3095229999999987
21
-73.1800569999999908
0
LINE
8
LYELLOW
6
CONTINUOUS
10
63.3095229999999987
20
-73.1800569999999908
11
63.3571419999999961
21
-73.2752949999999998
0
LINE
8
LYELLOW
6
CONTINUOUS
10
63.3571419999999961
20
-73.2752949999999998
11
63.3571419999999961
21
-73.4181519999999921
0
LINE
8
LYELLOW
6
CONTINUOUS
10
63.3571419999999961
20
-73.4181519999999921
11
63.3095229999999987
21
-73.5133900000000011
0
LINE
8
LYELLOW
6
CONTINUOUS
10
63.3095229999999987
20
-73.5133900000000011
11
63.2619039999999941
21
-73.5610089999999985
0
LINE
8
LYELLOW
6
CONTINUOUS
10
63.2619039999999941
20
-73.5610089999999985
11
63.1666659999999993
21
-73.608627999999996
0
LINE
8
LYELLOW
6
CONTINUOUS
10
63.1666659999999993
20
-73.608627999999996
11
62.7857139999999987
21
-73.608627999999996
0
LINE
8
LYELLOW
6
CONTINUOUS
10
63.6904759999999968
20
-73.084818999999996
11
64.3095229999999987
21
-73.084818999999996
0
LINE
8
LYELLOW
6
CONTINUOUS
10
64.3095229999999987
20
-73.084818999999996
11
63.9761899999999955
21
-73.4657710000000037
0
LINE
8
LYELLOW
6
CONTINUOUS
10
63.9761899999999955
20
-73.4657710000000037
11
64.1190469999999948
21
-73.4657710000000037
0
LINE
8
LYELLOW
6
CONTINUOUS
10
64.1190469999999948
20
-73.4657710000000037
11
64.2142850000000038
21
-73.5133900000000011
0
LINE
8
LYELLOW
6
CONTINUOUS
10
64.2142850000000038
20
-73.5133900000000011
11
64.2619040000000012
21
-73.5610089999999985
0
LINE
8
LYELLOW
6
CONTINUOUS
10
64.2619040000000012
20
-73.5610089999999985
11
64.3095229999999987
21
-73.6562469999999934
0
LINE
8
LYELLOW
6
CONTINUOUS
10
64.3095229999999987
20
-73.6562469999999934
11
64.3095229999999987
21
-73.8943419999999946
0
LINE
8
LYELLOW
6
CONTINUOUS
10
64.3095229999999987
20
-73.8943419999999946
11
64.2619040000000012
21
-73.9895800000000037
0
LINE
8
LYELLOW
6
CONTINUOUS
10
64.2619040000000012
20
-73.9895800000000037
11
64.2142850000000038
21
-74.0371999999999986
0
LINE
8
LYELLOW
6
CONTINUOUS
10
64.2142850000000038
20
-74.0371999999999986
11
64.1190469999999948
21
-74.084818999999996
0
LINE
8
LYELLOW
6
CONTINUOUS
10
64.1190469999999948
20
-74.084818999999996
11
63.8333329999999961
21
-74.084818999999996
0
LINE
8
LYELLOW
6
CONTINUOUS
10
63.8333329999999961
20
-74.084818999999996
11
63.7380949999999942
21
-74.0371999999999986
0
LINE
8
LYELLOW
6
CONTINUOUS
10
63.7380949999999942
20
-74.0371999999999986
11
63.6904759999999968
21
-73.9895800000000037
0
LINE
8
LYELLOW
6
CONTINUOUS
10
64.6428569999999922
20
-73.084818999999996
11
65.2619040000000012
21
-73.084818999999996
0
LINE
8
LYELLOW
6
CONTINUOUS
10
65.2619040000000012
20
-73.084818999999996
11
64.9285709999999909
21
-73.4657710000000037
0
LINE
8
LYELLOW
6
CONTINUOUS
10
64.9285709999999909
20
-73.4657710000000037
11
65.0714279999999974
21
-73.4657710000000037
0
LINE
8
LYELLOW
6
CONTINUOUS
10
65.0714279999999974
20
-73.4657710000000037
11
65.1666659999999922
21
-73.5133900000000011
0
LINE
8
LYELLOW
6
CONTINUOUS
10
65.1666659999999922
20
-73.5133900000000011
11
65.2142850000000038
21
-73.5610089999999985
0
LINE
8
LYELLOW
6
CONTINUOUS
10
65.2142850000000038
20
-73.5610089999999985
11
65.2619040000000012
21
-73.6562469999999934
0
LINE
8
LYELLOW
6
CONTINUOUS
10
65.2619040000000012
20
-73.6562469999999934
11
65.2619040000000012
21
-73.8943419999999946
0
LINE
8
LYELLOW
6
CONTINUOUS
10
65.2619040000000012
20
-73.8943419999999946
11
65.2142850000000038
21
-73.9895800000000037
0
LINE
8
LYELLOW
6
CONTINUOUS
10
65.2142850000000038
20
-73.9895800000000037
11
65.1666659999999922
21
-74.0371999999999986
0
LINE
8
LYELLOW
6
CONTINUOUS
10
65.1666659999999922
20
-74.0371999999999986
11
65.0714279999999974
21
-74.084818999999996
0
LINE
8
LYELLOW
6
CONTINUOUS
10
65.0714279999999974
20
-74.084818999999996
11
64.7857139999999987
21
-74.084818999999996
0
LINE
8
LYELLOW
6
CONTINUOUS
10
64.7857139999999987
20
-74.084818999999996
11
64.6904760000000039
21
-74.0371999999999986
0
LINE
8
LYELLOW
6
CONTINUOUS
10
64.6904760000000039
20
-74.0371999999999986
11
64.6428569999999922
21
-73.9895800000000037
0
LINE
8
LYELLOW
6
CONTINUOUS
10
63.3571419999999961
20
-54.084818999999996
11
63.023809
21
-53.608627999999996
0
LINE
8
LYELLOW
6
CONTINUOUS
10
62.7857139999999987
20
-54.084818999999996
11
62.7857139999999987
21
-53.084818999999996
0
LINE
8
LYELLOW
6
CONTINUOUS
10
62.7857139999999987
20
-53.084818999999996
11
63.1666659999999993
21
-53.084818999999996
0
LINE
8
LYELLOW
6
CONTINUOUS
10
63.1666659999999993
20
-53.084818999999996
11
63.2619039999999941
21
-53.1324380000000005
0
LINE
8
LYELLOW
6
CONTINUOUS
10
63.2619039999999941
20
-53.1324380000000005
11
63.3095229999999987
21
-53.1800569999999979
0
LINE
8
LYELLOW
6
CONTINUOUS
10
63.3095229999999987
20
-53.1800569999999979
11
63.3571419999999961
21
-53.2752949999999998
0
LINE
8
LYELLOW
6
CONTINUOUS
10
63.3571419999999961
20
-53.2752949999999998
11
63.3571419999999961
21
-53.4181519999999992
0
LINE
8
LYELLOW
6
CONTINUOUS
10
63.3571419999999961
20
-53.4181519999999992
11
63.3095229999999987
21
-53.5133900000000011
0
LINE
8
LYELLOW
6
CONTINUOUS
10
63.3095229999999987
20
-53.5133900000000011
11
63.2619039999999941
21
-53.5610089999999985
0
LINE
8
LYELLOW
6
CONTINUOUS
10
63.2619039999999941
20
-53.5610089999999985
11
63.1666659999999993
21
-53.608627999999996
0
LINE
8
LYELLOW
6
CONTINUOUS
10
63.1666659999999993
20
-53.608627999999996
11
62.7857139999999987
21
-53.608627999999996
0
LINE
8
LYELLOW
6
CONTINUOUS
10
63.7380949999999942
20
-53.1800569999999979
11
63.7857139999999987
21
-53.1324380000000005
0
LINE
8
LYELLOW
6
CONTINUOUS
10
63.7857139999999987
20
-53.1324380000000005
11
63.8809520000000006
21
-53.084818999999996
0
LINE
8
LYELLOW
6
CONTINUOUS
10
63.8809520000000006
20
-53.084818999999996
11
64.1190469999999948
21
-53.084818999999996
0
LINE
8
LYELLOW
6
CONTINUOUS
10
64.1190469999999948
20
-53.084818999999996
11
64.2142850000000038
21
-53.1324380000000005
0
LINE
8
LYELLOW
6
CONTINUOUS
10
64.2142850000000038
20
-53.1324380000000005
11
64.2619040000000012
21
-53.1800569999999979
0
LINE
8
LYELLOW
6
CONTINUOUS
10
64.2619040000000012
20
-53.1800569999999979
11
64.3095229999999987
21
-53.2752949999999998
0
LINE
8
LYELLOW
6
CONTINUOUS
10
64.3095229999999987
20
-53.2752949999999998
11
64.3095229999999987
21
-53.3705329999999947
0
LINE
8
LYELLOW
6
CONTINUOUS
10
64.3095229999999987
20
-53.3705329999999947
11
64.2619040000000012
21
-53.5133900000000011
0
LINE
8
LYELLOW
6
CONTINUOUS
10
64.2619040000000012
20
-53.5133900000000011
11
63.6904759999999968
21
-54.084818999999996
0
LINE
8
LYELLOW
6
CONTINUOUS
10
63.6904759999999968
20
-54.084818999999996
11
64.3095229999999987
21
-54.084818999999996
0
LINE
8
LYELLOW
6
CONTINUOUS
10
64.6428569999999922
20
-53.084818999999996
11
65.2619040000000012
21
-53.084818999999996
0
LINE
8
LYELLOW
6
CONTINUOUS
10
65.2619040000000012
20
-53.084818999999996
11
64.9285709999999909
21
-53.4657709999999966
0
LINE
8
LYELLOW
6
CONTINUOUS
10
64.9285709999999909
20
-53.4657709999999966
11
65.0714279999999974
21
-53.4657709999999966
0
LINE
8
LYELLOW
6
CONTINUOUS
10
65.0714279999999974
20
-53.4657709999999966
11
65.1666659999999922
21
-53.5133900000000011
0
LINE
8
LYELLOW
6
CONTINUOUS
10
65.1666659999999922
20
-53.5133900000000011
11
65.2142850000000038
21
-53.5610089999999985
0
LINE
8
LYELLOW
6
CONTINUOUS
10
65.2142850000000038
20
-53.5610089999999985
11
65.2619040000000012
21
-53.6562470000000005
0
LINE
8
LYELLOW
6
CONTINUOUS
10
65.2619040000000012
20
-53.6562470000000005
11
65.2619040000000012
21
-53.8943419999999946
0
LINE
8
LYELLOW
6
CONTINUOUS
10
65.2619040000000012
20
-53.8943419999999946
11
65.2142850000000038
21
-53.9895799999999966
0
LINE
8
LYELLOW
6
CONTINUOUS
10
65.2142850000000038
20
-53.9895799999999966
11
65.1666659999999922
21
-54.0371999999999986
0
LINE
8
LYELLOW
6
CONTINUOUS
10
65.1666659999999922
20
-54.0371999999999986
11
65.0714279999999974
21
-54.084818999999996
0
LINE
8
LYELLOW
6
CONTINUOUS
10
65.0714279999999974
20
-54.084818999999996
11
64.7857139999999987
21
-54.084818999999996
0
LINE
8
LYELLOW
6
CONTINUOUS
10
64.7857139999999987
20
-54.084818999999996
11
64.6904760000000039
21
-54.0371999999999986
0
LINE
8
LYELLOW
6
CONTINUOUS
10
64.6904760000000039
20
-54.0371999999999986
11
64.6428569999999922
21
-53.9895799999999966
0
LINE
8
LYELLOW
6
CONTINUOUS
10
63.3571419999999961
20
-62.084818999999996
11
63.023809
21
-61.608627999999996
0
LINE
8
LYELLOW
6
CONTINUOUS
10
62.7857139999999987
20
-62.084818999999996
11
62.7857139999999987
21
-61.084818999999996
0
LINE
8
LYELLOW
6
CONTINUOUS
10
62.7857139999999987
20
-61.084818999999996
11
63.1666659999999993
21
-61.084818999999996
0
LINE
8
LYELLOW
6
CONTINUOUS
10
63.1666659999999993
20
-61.084818999999996
11
63.2619039999999941
21
-61.1324380000000005
0
LINE
8
LYELLOW
6
CONTINUOUS
10
63.2619039999999941
20
-61.1324380000000005
11
63.3095229999999987
21
-61.1800569999999979
0
LINE
8
LYELLOW
6
CONTINUOUS
10
63.3095229999999987
20
-61.1800569999999979
11
63.3571419999999961
21
-61.2752949999999998
0
LINE
8
LYELLOW
6
CONTINUOUS
10
63.3571419999999961
20
-61.2752949999999998
11
63.3571419999999961
21
-61.4181519999999992
0
LINE
8
LYELLOW
6
CONTINUOUS
10
63.3571419999999961
20
-61.4181519999999992
11
63.3095229999999987
21
-61.513389999999994
0
LINE
8
LYELLOW
6
CONTINUOUS
10
63.3095229999999987
20
-61.513389999999994
11
63.2619039999999941
21
-61.5610089999999985
0
LINE
8
LYELLOW
6
CONTINUOUS
10
63.2619039999999941
20
-61.5610089999999985
11
63.1666659999999993
21
-61.608627999999996
0
LINE
8
LYELLOW
6
CONTINUOUS
10
63.1666659999999993
20
-61.608627999999996
11
62.7857139999999987
21
-61.608627999999996
0
LINE
8
LYELLOW
6
CONTINUOUS
10
63.6904759999999968
20
-61.084818999999996
11
64.3095229999999987
21
-61.084818999999996
0
LINE
8
LYELLOW
6
CONTINUOUS
10
64.3095229999999987
20
-61.084818999999996
11
63.9761899999999955
21
-61.4657709999999966
0
LINE
8
LYELLOW
6
CONTINUOUS
10
63.9761899999999955
20
-61.4657709999999966
11
64.1190469999999948
21
-61.4657709999999966
0
LINE
8
LYELLOW
6
CONTINUOUS
10
64.1190469999999948
20
-61.4657709999999966
11
64.2142850000000038
21
-61.513389999999994
0
LINE
8
LYELLOW
6
CONTINUOUS
10
64.2142850000000038
20
-61.513389999999994
11
64.2619040000000012
21
-61.5610089999999985
0
LINE
8
LYELLOW
6
CONTINUOUS
10
64.2619040000000012
20
-61.5610089999999985
11
64.3095229999999987
21
-61.6562470000000005
0
LINE
8
LYELLOW
6
CONTINUOUS
10
64.3095229999999987
20
-61.6562470000000005
11
64.3095229999999987
21
-61.8943419999999946
0
LINE
8
LYELLOW
6
CONTINUOUS
10
64.3095229999999987
20
-61.8943419999999946
11
64.2619040000000012
21
-61.9895799999999966
0
LINE
8
LYELLOW
6
CONTINUOUS
10
64.2619040000000012
20
-61.9895799999999966
11
64.2142850000000038
21
-62.0371999999999986
0
LINE
8
LYELLOW
6
CONTINUOUS
10
64.2142850000000038
20
-62.0371999999999986
11
64.1190469999999948
21
-62.084818999999996
0
LINE
8
LYELLOW
6
CONTINUOUS
10
64.1190469999999948
20
-62.084818999999996
11
63.8333329999999961
21
-62.084818999999996
0
LINE
8
LYELLOW
6
CONTINUOUS
10
63.8333329999999961
20
-62.084818999999996
11
63.7380949999999942
21
-62.0371999999999986
0
LINE
8
LYELLOW
6
CONTINUOUS
10
63.7380949999999942
20
-62.0371999999999986
11
63.6904759999999968
21
-61.9895799999999966
0
LINE
8
LYELLOW
6
CONTINUOUS
10
64.6904760000000039
20
-61.1800569999999979
11
64.7380950000000013
21
-61.1324380000000005
0
LINE
8
LYELLOW
6
CONTINUOUS
10
64.7380950000000013
20
-61.1324380000000005
11
64.8333329999999961
21
-61.084818999999996
0
LINE
8
LYELLOW
6
CONTINUOUS
10
64.8333329999999961
20
-61.084818999999996
11
65.0714279999999974
21
-61.084818999999996
0
LINE
8
LYELLOW
6
CONTINUOUS
10
65.0714279999999974
20
-61.084818999999996
11
65.1666659999999922
21
-61.1324380000000005
0
LINE
8
LYELLOW
6
CONTINUOUS
10
65.1666659999999922
20
-61.1324380000000005
11
65.2142850000000038
21
-61.1800569999999979
0
LINE
8
LYELLOW
6
CONTINUOUS
10
65.2142850000000038
20
-61.1800569999999979
11
65.2619040000000012
21
-61.2752949999999998
0
LINE
8
LYELLOW
6
CONTINUOUS
10
65.2619040000000012
20
-61.2752949999999998
11
65.2619040000000012
21
-61.3705329999999947
0
LINE
8
LYELLOW
6
CONTINUOUS
10
65.2619040000000012
20
-61.3705329999999947
11
65.2142850000000038
21
-61.513389999999994
0
LINE
8
LYELLOW
6
CONTINUOUS
10
65.2142850000000038
20
-61.513389999999994
11
64.6428569999999922
21
-62.084818999999996
0
LINE
8
LYELLOW
6
CONTINUOUS
10
64.6428569999999922
20
-62.084818999999996
11
65.2619040000000012
21
-62.084818999999996
0
LINE
8
LYELLOW
6
CONTINUOUS
10
63.3571419999999961
20
-34.084818999999996
11
63.023809
21
-33.608627999999996
0
LINE
8
LYELLOW
6
CONTINUOUS
10
62.7857139999999987
20
-34.084818999999996
11
62.7857139999999987
21
-33.084818999999996
0
LINE
8
LYELLOW
6
CONTINUOUS
10
62.7857139999999987
20
-33.084818999999996
11
63.1666659999999993
21
-33.084818999999996
0
LINE
8
LYELLOW
6
CONTINUOUS
10
63.1666659999999993
20
-33.084818999999996
11
63.2619039999999941
21
-33.1324380000000005
0
LINE
8
LYELLOW
6
CONTINUOUS
10
63.2619039999999941
20
-33.1324380000000005
11
63.3095229999999987
21
-33.1800569999999979
0
LINE
8
LYELLOW
6
CONTINUOUS
10
63.3095229999999987
20
-33.1800569999999979
11
63.3571419999999961
21
-33.2752949999999998
0
LINE
8
LYELLOW
6
CONTINUOUS
10
63.3571419999999961
20
-33.2752949999999998
11
63.3571419999999961
21
-33.4181519999999992
0
LINE
8
LYELLOW
6
CONTINUOUS
10
63.3571419999999961
20
-33.4181519999999992
11
63.3095229999999987
21
-33.5133900000000011
0
LINE
8
LYELLOW
6
CONTINUOUS
10
63.3095229999999987
20
-33.5133900000000011
11
63.2619039999999941
21
-33.5610089999999985
0
LINE
8
LYELLOW
6
CONTINUOUS
10
63.2619039999999941
20
-33.5610089999999985
11
63.1666659999999993
21
-33.608627999999996
0
LINE
8
LYELLOW
6
CONTINUOUS
10
63.1666659999999993
20
-33.608627999999996
11
62.7857139999999987
21
-33.608627999999996
0
LINE
8
LYELLOW
6
CONTINUOUS
10
64.3095229999999987
20
-34.084818999999996
11
63.7380949999999942
21
-34.084818999999996
0
LINE
8
LYELLOW
6
CONTINUOUS
10
64.023809
20
-34.084818999999996
11
64.023809
21
-33.084818999999996
0
LINE
8
LYELLOW
6
CONTINUOUS
10
64.023809
20
-33.084818999999996
11
63.928570999999998
21
-33.2276759999999953
0
LINE
8
LYELLOW
6
CONTINUOUS
10
63.928570999999998
20
-33.2276759999999953
11
63.8333329999999961
21
-33.3229139999999973
0
LINE
8
LYELLOW
6
CONTINUOUS
10
63.8333329999999961
20
-33.3229139999999973
11
63.7380949999999942
21
-33.3705330000000018
0
LINE
8
LYELLOW
6
CONTINUOUS
10
64.6428569999999922
20
-33.084818999999996
11
65.2619040000000012
21
-33.084818999999996
0
LINE
8
LYELLOW
6
CONTINUOUS
10
65.2619040000000012
20
-33.084818999999996
11
64.9285709999999909
21
-33.4657709999999966
0
LINE
8
LYELLOW
6
CONTINUOUS
10
64.9285709999999909
20
-33.4657709999999966
11
65.0714279999999974
21
-33.4657709999999966
0
LINE
8
LYELLOW
6
CONTINUOUS
10
65.0714279999999974
20
-33.4657709999999966
11
65.1666659999999922
21
-33.5133900000000011
0
LINE
8
LYELLOW
6
CONTINUOUS
10
65.1666659999999922
20
-33.5133900000000011
11
65.2142850000000038
21
-33.5610089999999985
0
LINE
8
LYELLOW
6
CONTINUOUS
10
65.2142850000000038
20
-33.5610089999999985
11
65.2619040000000012
21
-33.6562470000000005
0
LINE
8
LYELLOW
6
CONTINUOUS
10
65.2619040000000012
20
-33.6562470000000005
11
65.2619040000000012
21
-33.8943420000000017
0
LINE
8
LYELLOW
6
CONTINUOUS
10
65.2619040000000012
20
-33.8943420000000017
11
65.2142850000000038
21
-33.9895799999999966
0
LINE
8
LYELLOW
6
CONTINUOUS
10
65.2142850000000038
20
-33.9895799999999966
11
65.1666659999999922
21
-34.0371999999999986
0
LINE
8
LYELLOW
6
CONTINUOUS
10
65.1666659999999922
20
-34.0371999999999986
11
65.0714279999999974
21
-34.084818999999996
0
LINE
8
LYELLOW
6
CONTINUOUS
10
65.0714279999999974
20
-34.084818999999996
11
64.7857139999999987
21
-34.084818999999996
0
LINE
8
LYELLOW
6
CONTINUOUS
10
64.7857139999999987
20
-34.084818999999996
11
64.6904760000000039
21
-34.0371999999999986
0
LINE
8
LYELLOW
6
CONTINUOUS
10
64.6904760000000039
20
-34.0371999999999986
11
64.6428569999999922
21
-33.9895799999999966
0
LINE
8
LYELLOW
6
CONTINUOUS
10
34.6666659999999993
20
-74.5348189999999988
11
34.6666659999999993
21
-75.2491040000000027
0
LINE
8
LYELLOW
6
CONTINUOUS
10
34.6666659999999993
20
-75.2491040000000027
11
34.6190470000000019
21
-75.3919609999999949
0
LINE
8
LYELLOW
6
CONTINUOUS
10
34.6190470000000019
20
-75.3919609999999949
11
34.523809
21
-75.4872000000000014
0
LINE
8
LYELLOW
6
CONTINUOUS
10
34.523809
20
-75.4872000000000014
11
34.3809520000000006
21
-75.5348189999999988
0
LINE
8
LYELLOW
6
CONTINUOUS
10
34.3809520000000006
20
-75.5348189999999988
11
34.2857139999999987
21
-75.5348189999999988
0
LINE
8
LYELLOW
6
CONTINUOUS
10
35.0476189999999974
20
-74.5348189999999988
11
35.6666659999999993
21
-74.5348189999999988
0
LINE
8
LYELLOW
6
CONTINUOUS
10
35.6666659999999993
20
-74.5348189999999988
11
35.3333329999999961
21
-74.9157709999999923
0
LINE
8
LYELLOW
6
CONTINUOUS
10
35.3333329999999961
20
-74.9157709999999923
11
35.4761899999999955
21
-74.9157709999999923
0
LINE
8
LYELLOW
6
CONTINUOUS
10
35.4761899999999955
20
-74.9157709999999923
11
35.5714279999999974
21
-74.9633899999999898
0
LINE
8
LYELLOW
6
CONTINUOUS
10
35.5714279999999974
20
-74.9633899999999898
11
35.6190470000000019
21
-75.0110090000000014
0
LINE
8
LYELLOW
6
CONTINUOUS
10
35.6190470000000019
20
-75.0110090000000014
11
35.6666659999999993
21
-75.1062469999999962
0
LINE
8
LYELLOW
6
CONTINUOUS
10
35.6666659999999993
20
-75.1062469999999962
11
35.6666659999999993
21
-75.3443419999999975
0
LINE
8
LYELLOW
6
CONTINUOUS
10
35.6666659999999993
20
-75.3443419999999975
11
35.6190470000000019
21
-75.4395799999999923
0
LINE
8
LYELLOW
6
CONTINUOUS
10
35.6190470000000019
20
-75.4395799999999923
11
35.5714279999999974
21
-75.4872000000000014
0
LINE
8
LYELLOW
6
CONTINUOUS
10
35.5714279999999974
20
-75.4872000000000014
11
35.4761899999999955
21
-75.5348189999999988
0
LINE
8
LYELLOW
6
CONTINUOUS
10
35.4761899999999955
20
-75.5348189999999988
11
35.1904759999999968
21
-75.5348189999999988
0
LINE
8
LYELLOW
6
CONTINUOUS
10
35.1904759999999968
20
-75.5348189999999988
11
35.0952380000000019
21
-75.4872000000000014
0
LINE
8
LYELLOW
6
CONTINUOUS
10
35.0952380000000019
20
-75.4872000000000014
11
35.0476189999999974
21
-75.4395799999999923
0
LINE
8
LYELLOW
6
CONTINUOUS
10
63.3571419999999961
20
-42.084818999999996
11
63.023809
21
-41.608627999999996
0
LINE
8
LYELLOW
6
CONTINUOUS
10
62.7857139999999987
20
-42.084818999999996
11
62.7857139999999987
21
-41.084818999999996
0
LINE
8
LYELLOW
6
CONTINUOUS
10
62.7857139999999987
20
-41.084818999999996
11
63.1666659999999993
21
-41.084818999999996
0
LINE
8
LYELLOW
6
CONTINUOUS
10
63.1666659999999993
20
-41.084818999999996
11
63.2619039999999941
21
-41.1324380000000005
0
LINE
8
LYELLOW
6
CONTINUOUS
10
63.2619039999999941
20
-41.1324380000000005
11
63.3095229999999987
21
-41.1800569999999979
0
LINE
8
LYELLOW
6
CONTINUOUS
10
63.3095229999999987
20
-41.1800569999999979
11
63.3571419999999961
21
-41.2752949999999998
0
LINE
8
LYELLOW
6
CONTINUOUS
10
63.3571419999999961
20
-41.2752949999999998
11
63.3571419999999961
21
-41.4181519999999992
0
LINE
8
LYELLOW
6
CONTINUOUS
10
63.3571419999999961
20
-41.4181519999999992
11
63.3095229999999987
21
-41.5133900000000011
0
LINE
8
LYELLOW
6
CONTINUOUS
10
63.3095229999999987
20
-41.5133900000000011
11
63.2619039999999941
21
-41.5610089999999985
0
LINE
8
LYELLOW
6
CONTINUOUS
10
63.2619039999999941
20
-41.5610089999999985
11
63.1666659999999993
21
-41.608627999999996
0
LINE
8
LYELLOW
6
CONTINUOUS
10
63.1666659999999993
20
-41.608627999999996
11
62.7857139999999987
21
-41.608627999999996
0
LINE
8
LYELLOW
6
CONTINUOUS
10
63.7380949999999942
20
-41.1800569999999979
11
63.7857139999999987
21
-41.1324380000000005
0
LINE
8
LYELLOW
6
CONTINUOUS
10
63.7857139999999987
20
-41.1324380000000005
11
63.8809520000000006
21
-41.084818999999996
0
LINE
8
LYELLOW
6
CONTINUOUS
10
63.8809520000000006
20
-41.084818999999996
11
64.1190469999999948
21
-41.084818999999996
0
LINE
8
LYELLOW
6
CONTINUOUS
10
64.1190469999999948
20
-41.084818999999996
11
64.2142850000000038
21
-41.1324380000000005
0
LINE
8
LYELLOW
6
CONTINUOUS
10
64.2142850000000038
20
-41.1324380000000005
11
64.2619040000000012
21
-41.1800569999999979
0
LINE
8
LYELLOW
6
CONTINUOUS
10
64.2619040000000012
20
-41.1800569999999979
11
64.3095229999999987
21
-41.2752949999999998
0
LINE
8
LYELLOW
6
CONTINUOUS
10
64.3095229999999987
20
-41.2752949999999998
11
64.3095229999999987
21
-41.3705329999999947
0
LINE
8
LYELLOW
6
CONTINUOUS
10
64.3095229999999987
20
-41.3705329999999947
11
64.2619040000000012
21
-41.5133900000000011
0
LINE
8
LYELLOW
6
CONTINUOUS
10
64.2619040000000012
20
-41.5133900000000011
11
63.6904759999999968
21
-42.084818999999996
0
LINE
8
LYELLOW
6
CONTINUOUS
10
63.6904759999999968
20
-42.084818999999996
11
64.3095229999999987
21
-42.084818999999996
0
LINE
8
LYELLOW
6
CONTINUOUS
10
64.6904760000000039
20
-41.1800569999999979
11
64.7380950000000013
21
-41.1324380000000005
0
LINE
8
LYELLOW
6
CONTINUOUS
10
64.7380950000000013
20
-41.1324380000000005
11
64.8333329999999961
21
-41.084818999999996
0
LINE
8
LYELLOW
6
CONTINUOUS
10
64.8333329999999961
20
-41.084818999999996
11
65.0714279999999974
21
-41.084818999999996
0
LINE
8
LYELLOW
6
CONTINUOUS
10
65.0714279999999974
20
-41.084818999999996
11
65.1666659999999922
21
-41.1324380000000005
0
LINE
8
LYELLOW
6
CONTINUOUS
10
65.1666659999999922
20
-41.1324380000000005
11
65.2142850000000038
21
-41.1800569999999979
0
LINE
8
LYELLOW
6
CONTINUOUS
10
65.2142850000000038
20
-41.1800569999999979
11
65.2619040000000012
21
-41.2752949999999998
0
LINE
8
LYELLOW
6
CONTINUOUS
10
65.2619040000000012
20
-41.2752949999999998
11
65.2619040000000012
21
-41.3705329999999947
0
LINE
8
LYELLOW
6
CONTINUOUS
10
65.2619040000000012
20
-41.3705329999999947
11
65.2142850000000038
21
-41.5133900000000011
0
LINE
8
LYELLOW
6
CONTINUOUS
10
65.2142850000000038
20
-41.5133900000000011
11
64.6428569999999922
21
-42.084818999999996
0
LINE
8
LYELLOW
6
CONTINUOUS
10
64.6428569999999922
20
-42.084818999999996
11
65.2619040000000012
21
-42.084818999999996
0
LINE
8
LYELLOW
6
CONTINUOUS
10
77.2380950000000013
20
-55.314819
11
77.2380950000000013
21
-56.1243419999999986
0
LINE
8
LYELLOW
6
CONTINUOUS
10
77.2380950000000013
20
-56.1243419999999986
11
77.2857139999999987
21
-56.2195800000000006
0
LINE
8
LYELLOW
6
CONTINUOUS
10
77.2857139999999987
20
-56.2195800000000006
11
77.3333329999999961
21
-56.2671999999999954
0
LINE
8
LYELLOW
6
CONTINUOUS
10
77.3333329999999961
20
-56.2671999999999954
11
77.4285709999999909
21
-56.314819
0
LINE
8
LYELLOW
6
CONTINUOUS
10
77.4285709999999909
20
-56.314819
11
77.6190469999999948
21
-56.314819
0
LINE
8
LYELLOW
6
CONTINUOUS
10
77.6190469999999948
20
-56.314819
11
77.7142849999999896
21
-56.2671999999999954
0
LINE
8
LYELLOW
6
CONTINUOUS
10
77.7142849999999896
20
-56.2671999999999954
11
77.7619040000000012
21
-56.2195800000000006
0
LINE
8
LYELLOW
6
CONTINUOUS
10
77.7619040000000012
20
-56.2195800000000006
11
77.8095229999999987
21
-56.1243419999999986
0
LINE
8
LYELLOW
6
CONTINUOUS
10
77.8095229999999987
20
-56.1243419999999986
11
77.8095229999999987
21
-55.314819
0
LINE
8
LYELLOW
6
CONTINUOUS
10
78.2380950000000013
20
-55.4100569999999948
11
78.2857139999999987
21
-55.3624379999999974
0
LINE
8
LYELLOW
6
CONTINUOUS
10
78.2857139999999987
20
-55.3624379999999974
11
78.3809519999999935
21
-55.314819
0
LINE
8
LYELLOW
6
CONTINUOUS
10
78.3809519999999935
20
-55.314819
11
78.6190469999999948
21
-55.314819
0
LINE
8
LYELLOW
6
CONTINUOUS
10
78.6190469999999948
20
-55.314819
11
78.7142849999999896
21
-55.3624379999999974
0
LINE
8
LYELLOW
6
CONTINUOUS
10
78.7142849999999896
20
-55.3624379999999974
11
78.7619040000000012
21
-55.4100569999999948
0
LINE
8
LYELLOW
6
CONTINUOUS
10
78.7619040000000012
20
-55.4100569999999948
11
78.8095229999999987
21
-55.5052949999999967
0
LINE
8
LYELLOW
6
CONTINUOUS
10
78.8095229999999987
20
-55.5052949999999967
11
78.8095229999999987
21
-55.6005329999999987
0
LINE
8
LYELLOW
6
CONTINUOUS
10
78.8095229999999987
20
-55.6005329999999987
11
78.7619040000000012
21
-55.743389999999998
0
LINE
8
LYELLOW
6
CONTINUOUS
10
78.7619040000000012
20
-55.743389999999998
11
78.1904759999999897
21
-56.314819
0
LINE
8
LYELLOW
6
CONTINUOUS
10
78.1904759999999897
20
-56.314819
11
78.8095229999999987
21
-56.314819
0
LINE
8
LYELLOW
6
CONTINUOUS
10
63.3571419999999961
20
-22.0848189999999995
11
63.023809
21
-21.6086279999999995
0
LINE
8
LYELLOW
6
CONTINUOUS
10
62.7857139999999987
20
-22.0848189999999995
11
62.7857139999999987
21
-21.0848189999999995
0
LINE
8
LYELLOW
6
CONTINUOUS
10
62.7857139999999987
20
-21.0848189999999995
11
63.1666659999999993
21
-21.0848189999999995
0
LINE
8
LYELLOW
6
CONTINUOUS
10
63.1666659999999993
20
-21.0848189999999995
11
63.2619039999999941
21
-21.1324380000000005
0
LINE
8
LYELLOW
6
CONTINUOUS
10
63.2619039999999941
20
-21.1324380000000005
11
63.3095229999999987
21
-21.1800569999999979
0
LINE
8
LYELLOW
6
CONTINUOUS
10
63.3095229999999987
20
-21.1800569999999979
11
63.3571419999999961
21
-21.2752949999999998
0
LINE
8
LYELLOW
6
CONTINUOUS
10
63.3571419999999961
20
-21.2752949999999998
11
63.3571419999999961
21
-21.4181519999999992
0
LINE
8
LYELLOW
6
CONTINUOUS
10
63.3571419999999961
20
-21.4181519999999992
11
63.3095229999999987
21
-21.5133899999999976
0
LINE
8
LYELLOW
6
CONTINUOUS
10
63.3095229999999987
20
-21.5133899999999976
11
63.2619039999999941
21
-21.5610089999999985
0
LINE
8
LYELLOW
6
CONTINUOUS
10
63.2619039999999941
20
-21.5610089999999985
11
63.1666659999999993
21
-21.6086279999999995
0
LINE
8
LYELLOW
6
CONTINUOUS
10
63.1666659999999993
20
-21.6086279999999995
11
62.7857139999999987
21
-21.6086279999999995
0
LINE
8
LYELLOW
6
CONTINUOUS
10
64.3095229999999987
20
-22.0848189999999995
11
63.7380949999999942
21
-22.0848189999999995
0
LINE
8
LYELLOW
6
CONTINUOUS
10
64.023809
20
-22.0848189999999995
11
64.023809
21
-21.0848189999999995
0
LINE
8
LYELLOW
6
CONTINUOUS
10
64.023809
20
-21.0848189999999995
11
63.928570999999998
21
-21.2276759999999989
0
LINE
8
LYELLOW
6
CONTINUOUS
10
63.928570999999998
20
-21.2276759999999989
11
63.8333329999999961
21
-21.3229139999999973
0
LINE
8
LYELLOW
6
CONTINUOUS
10
63.8333329999999961
20
-21.3229139999999973
11
63.7380949999999942
21
-21.3705329999999982
0
LINE
8
LYELLOW
6
CONTINUOUS
10
64.6904760000000039
20
-21.1800569999999979
11
64.7380950000000013
21
-21.1324380000000005
0
LINE
8
LYELLOW
6
CONTINUOUS
10
64.7380950000000013
20
-21.1324380000000005
11
64.8333329999999961
21
-21.0848189999999995
0
LINE
8
LYELLOW
6
CONTINUOUS
10
64.8333329999999961
20
-21.0848189999999995
11
65.0714279999999974
21
-21.0848189999999995
0
LINE
8
LYELLOW
6
CONTINUOUS
10
65.0714279999999974
20
-21.0848189999999995
11
65.1666659999999922
21
-21.1324380000000005
0
LINE
8
LYELLOW
6
CONTINUOUS
10
65.1666659999999922
20
-21.1324380000000005
11
65.2142850000000038
21
-21.1800569999999979
0
LINE
8
LYELLOW
6
CONTINUOUS
10
65.2142850000000038
20
-21.1800569999999979
11
65.2619040000000012
21
-21.2752949999999998
0
LINE
8
LYELLOW
6
CONTINUOUS
10
65.2619040000000012
20
-21.2752949999999998
11
65.2619040000000012
21
-21.3705329999999982
0
LINE
8
LYELLOW
6
CONTINUOUS
10
65.2619040000000012
20
-21.3705329999999982
11
65.2142850000000038
21
-21.5133899999999976
0
LINE
8
LYELLOW
6
CONTINUOUS
10
65.2142850000000038
20
-21.5133899999999976
11
64.6428569999999922
21
-22.0848189999999995
0
LINE
8
LYELLOW
6
CONTINUOUS
10
64.6428569999999922
20
-22.0848189999999995
11
65.2619040000000012
21
-22.0848189999999995
0
LINE
8
LYELLOW
6
CONTINUOUS
10
49.3571419999999961
20
-68.084818999999996
11
49.023809
21
-67.608627999999996
0
LINE
8
LYELLOW
6
CONTINUOUS
10
48.7857139999999987
20
-68.084818999999996
11
48.7857139999999987
21
-67.084818999999996
0
LINE
8
LYELLOW
6
CONTINUOUS
10
48.7857139999999987
20
-67.084818999999996
11
49.1666659999999993
21
-67.084818999999996
0
LINE
8
LYELLOW
6
CONTINUOUS
10
49.1666659999999993
20
-67.084818999999996
11
49.2619040000000012
21
-67.1324379999999934
0
LINE
8
LYELLOW
6
CONTINUOUS
10
49.2619040000000012
20
-67.1324379999999934
11
49.3095229999999987
21
-67.1800569999999908
0
LINE
8
LYELLOW
6
CONTINUOUS
10
49.3095229999999987
20
-67.1800569999999908
11
49.3571419999999961
21
-67.2752949999999998
0
LINE
8
LYELLOW
6
CONTINUOUS
10
49.3571419999999961
20
-67.2752949999999998
11
49.3571419999999961
21
-67.4181519999999921
0
LINE
8
LYELLOW
6
CONTINUOUS
10
49.3571419999999961
20
-67.4181519999999921
11
49.3095229999999987
21
-67.5133900000000011
0
LINE
8
LYELLOW
6
CONTINUOUS
10
49.3095229999999987
20
-67.5133900000000011
11
49.2619040000000012
21
-67.5610089999999985
0
LINE
8
LYELLOW
6
CONTINUOUS
10
49.2619040000000012
20
-67.5610089999999985
11
49.1666659999999993
21
-67.608627999999996
0
LINE
8
LYELLOW
6
CONTINUOUS
10
49.1666659999999993
20
-67.608627999999996
11
48.7857139999999987
21
-67.608627999999996
0
LINE
8
LYELLOW
6
CONTINUOUS
10
49.6904759999999968
20
-67.084818999999996
11
50.3095229999999987
21
-67.084818999999996
0
LINE
8
LYELLOW
6
CONTINUOUS
10
50.3095229999999987
20
-67.084818999999996
11
49.9761899999999955
21
-67.4657710000000037
0
LINE
8
LYELLOW
6
CONTINUOUS
10
49.9761899999999955
20
-67.4657710000000037
11
50.1190469999999948
21
-67.4657710000000037
0
LINE
8
LYELLOW
6
CONTINUOUS
10
50.1190469999999948
20
-67.4657710000000037
11
50.2142849999999967
21
-67.5133900000000011
0
LINE
8
LYELLOW
6
CONTINUOUS
10
50.2142849999999967
20
-67.5133900000000011
11
50.2619040000000012
21
-67.5610089999999985
0
LINE
8
LYELLOW
6
CONTINUOUS
10
50.2619040000000012
20
-67.5610089999999985
11
50.3095229999999987
21
-67.6562469999999934
0
LINE
8
LYELLOW
6
CONTINUOUS
10
50.3095229999999987
20
-67.6562469999999934
11
50.3095229999999987
21
-67.8943419999999946
0
LINE
8
LYELLOW
6
CONTINUOUS
10
50.3095229999999987
20
-67.8943419999999946
11
50.2619040000000012
21
-67.9895800000000037
0
LINE
8
LYELLOW
6
CONTINUOUS
10
50.2619040000000012
20
-67.9895800000000037
11
50.2142849999999967
21
-68.0371999999999986
0
LINE
8
LYELLOW
6
CONTINUOUS
10
50.2142849999999967
20
-68.0371999999999986
11
50.1190469999999948
21
-68.084818999999996
0
LINE
8
LYELLOW
6
CONTINUOUS
10
50.1190469999999948
20
-68.084818999999996
11
49.8333329999999961
21
-68.084818999999996
0
LINE
8
LYELLOW
6
CONTINUOUS
10
49.8333329999999961
20
-68.084818999999996
11
49.7380950000000013
21
-68.0371999999999986
0
LINE
8
LYELLOW
6
CONTINUOUS
10
49.7380950000000013
20
-68.0371999999999986
11
49.6904759999999968
21
-67.9895800000000037
0
LINE
8
LYELLOW
6
CONTINUOUS
10
51.2619039999999941
20
-68.084818999999996
11
50.6904759999999968
21
-68.084818999999996
0
LINE
8
LYELLOW
6
CONTINUOUS
10
50.9761899999999955
20
-68.084818999999996
11
50.9761899999999955
21
-67.084818999999996
0
LINE
8
LYELLOW
6
CONTINUOUS
10
50.9761899999999955
20
-67.084818999999996
11
50.8809520000000006
21
-67.2276760000000024
0
LINE
8
LYELLOW
6
CONTINUOUS
10
50.8809520000000006
20
-67.2276760000000024
11
50.7857139999999987
21
-67.3229139999999973
0
LINE
8
LYELLOW
6
CONTINUOUS
10
50.7857139999999987
20
-67.3229139999999973
11
50.6904759999999968
21
-67.3705329999999947
0
LINE
8
LYELLOW
6
CONTINUOUS
10
49.3571419999999961
20
-48.084818999999996
11
49.023809
21
-47.608627999999996
0
LINE
8
LYELLOW
6
CONTINUOUS
10
48.7857139999999987
20
-48.084818999999996
11
48.7857139999999987
21
-47.084818999999996
0
LINE
8
LYELLOW
6
CONTINUOUS
10
48.7857139999999987
20
-47.084818999999996
11
49.1666659999999993
21
-47.084818999999996
0
LINE
8
LYELLOW
6
CONTINUOUS
10
49.1666659999999993
20
-47.084818999999996
11
49.2619040000000012
21
-47.1324380000000005
0
LINE
8
LYELLOW
6
CONTINUOUS
10
49.2619040000000012
20
-47.1324380000000005
11
49.3095229999999987
21
-47.1800569999999979
0
LINE
8
LYELLOW
6
CONTINUOUS
10
49.3095229999999987
20
-47.1800569999999979
11
49.3571419999999961
21
-47.2752949999999998
0
LINE
8
LYELLOW
6
CONTINUOUS
10
49.3571419999999961
20
-47.2752949999999998
11
49.3571419999999961
21
-47.4181519999999992
0
LINE
8
LYELLOW
6
CONTINUOUS
10
49.3571419999999961
20
-47.4181519999999992
11
49.3095229999999987
21
-47.5133900000000011
0
LINE
8
LYELLOW
6
CONTINUOUS
10
49.3095229999999987
20
-47.5133900000000011
11
49.2619040000000012
21
-47.5610089999999985
0
LINE
8
LYELLOW
6
CONTINUOUS
10
49.2619040000000012
20
-47.5610089999999985
11
49.1666659999999993
21
-47.608627999999996
0
LINE
8
LYELLOW
6
CONTINUOUS
10
49.1666659999999993
20
-47.608627999999996
11
48.7857139999999987
21
-47.608627999999996
0
LINE
8
LYELLOW
6
CONTINUOUS
10
49.7380950000000013
20
-47.1800569999999979
11
49.7857139999999987
21
-47.1324380000000005
0
LINE
8
LYELLOW
6
CONTINUOUS
10
49.7857139999999987
20
-47.1324380000000005
11
49.8809520000000006
21
-47.084818999999996
0
LINE
8
LYELLOW
6
CONTINUOUS
10
49.8809520000000006
20
-47.084818999999996
11
50.1190469999999948
21
-47.084818999999996
0
LINE
8
LYELLOW
6
CONTINUOUS
10
50.1190469999999948
20
-47.084818999999996
11
50.2142849999999967
21
-47.1324380000000005
0
LINE
8
LYELLOW
6
CONTINUOUS
10
50.2142849999999967
20
-47.1324380000000005
11
50.2619040000000012
21
-47.1800569999999979
0
LINE
8
LYELLOW
6
CONTINUOUS
10
50.2619040000000012
20
-47.1800569999999979
11
50.3095229999999987
21
-47.2752949999999998
0
LINE
8
LYELLOW
6
CONTINUOUS
10
50.3095229999999987
20
-47.2752949999999998
11
50.3095229999999987
21
-47.3705329999999947
0
LINE
8
LYELLOW
6
CONTINUOUS
10
50.3095229999999987
20
-47.3705329999999947
11
50.2619040000000012
21
-47.5133900000000011
0
LINE
8
LYELLOW
6
CONTINUOUS
10
50.2619040000000012
20
-47.5133900000000011
11
49.6904759999999968
21
-48.084818999999996
0
LINE
8
LYELLOW
6
CONTINUOUS
10
49.6904759999999968
20
-48.084818999999996
11
50.3095229999999987
21
-48.084818999999996
0
LINE
8
LYELLOW
6
CONTINUOUS
10
51.2619039999999941
20
-48.084818999999996
11
50.6904759999999968
21
-48.084818999999996
0
LINE
8
LYELLOW
6
CONTINUOUS
10
50.9761899999999955
20
-48.084818999999996
11
50.9761899999999955
21
-47.084818999999996
0
LINE
8
LYELLOW
6
CONTINUOUS
10
50.9761899999999955
20
-47.084818999999996
11
50.8809520000000006
21
-47.2276759999999953
0
LINE
8
LYELLOW
6
CONTINUOUS
10
50.8809520000000006
20
-47.2276759999999953
11
50.7857139999999987
21
-47.3229139999999973
0
LINE
8
LYELLOW
6
CONTINUOUS
10
50.7857139999999987
20
-47.3229139999999973
11
50.6904759999999968
21
-47.3705329999999947
0
LINE
8
LYELLOW
6
CONTINUOUS
10
108.6666659999999922
20
-41.9948189999999997
11
108.6666659999999922
21
-42.7091039999999964
0
LINE
8
LYELLOW
6
CONTINUOUS
10
108.6666659999999922
20
-42.7091039999999964
11
108.6190469999999948
21
-42.8519609999999957
0
LINE
8
LYELLOW
6
CONTINUOUS
10
108.6190469999999948
20
-42.8519609999999957
11
108.523809
21
-42.9471999999999952
0
LINE
8
LYELLOW
6
CONTINUOUS
10
108.523809
20
-42.9471999999999952
11
108.3809519999999935
21
-42.9948189999999997
0
LINE
8
LYELLOW
6
CONTINUOUS
10
108.3809519999999935
20
-42.9948189999999997
11
108.2857139999999987
21
-42.9948189999999997
0
LINE
8
LYELLOW
6
CONTINUOUS
10
109.5714279999999974
20
-42.3281519999999958
11
109.5714279999999974
21
-42.9948189999999997
0
LINE
8
LYELLOW
6
CONTINUOUS
10
109.3333329999999961
20
-41.9471999999999952
11
109.0952379999999948
21
-42.661484999999999
0
LINE
8
LYELLOW
6
CONTINUOUS
10
109.0952379999999948
20
-42.661484999999999
11
109.7142849999999896
21
-42.661484999999999
0
LINE
8
LYELLOW
6
CONTINUOUS
10
34.6666659999999993
20
-54.5348189999999988
11
34.6666659999999993
21
-55.2491039999999956
0
LINE
8
LYELLOW
6
CONTINUOUS
10
34.6666659999999993
20
-55.2491039999999956
11
34.6190470000000019
21
-55.3919609999999949
0
LINE
8
LYELLOW
6
CONTINUOUS
10
34.6190470000000019
20
-55.3919609999999949
11
34.523809
21
-55.4871999999999943
0
LINE
8
LYELLOW
6
CONTINUOUS
10
34.523809
20
-55.4871999999999943
11
34.3809520000000006
21
-55.5348189999999988
0
LINE
8
LYELLOW
6
CONTINUOUS
10
34.3809520000000006
20
-55.5348189999999988
11
34.2857139999999987
21
-55.5348189999999988
0
LINE
8
LYELLOW
6
CONTINUOUS
10
35.0952380000000019
20
-54.6300570000000008
11
35.1428569999999993
21
-54.5824379999999962
0
LINE
8
LYELLOW
6
CONTINUOUS
10
35.1428569999999993
20
-54.5824379999999962
11
35.2380950000000013
21
-54.5348189999999988
0
LINE
8
LYELLOW
6
CONTINUOUS
10
35.2380950000000013
20
-54.5348189999999988
11
35.4761899999999955
21
-54.5348189999999988
0
LINE
8
LYELLOW
6
CONTINUOUS
10
35.4761899999999955
20
-54.5348189999999988
11
35.5714279999999974
21
-54.5824379999999962
0
LINE
8
LYELLOW
6
CONTINUOUS
10
35.5714279999999974
20
-54.5824379999999962
11
35.6190470000000019
21
-54.6300570000000008
0
LINE
8
LYELLOW
6
CONTINUOUS
10
35.6190470000000019
20
-54.6300570000000008
11
35.6666659999999993
21
-54.7252949999999956
0
LINE
8
LYELLOW
6
CONTINUOUS
10
35.6666659999999993
20
-54.7252949999999956
11
35.6666659999999993
21
-54.8205329999999975
0
LINE
8
LYELLOW
6
CONTINUOUS
10
35.6666659999999993
20
-54.8205329999999975
11
35.6190470000000019
21
-54.9633899999999969
0
LINE
8
LYELLOW
6
CONTINUOUS
10
35.6190470000000019
20
-54.9633899999999969
11
35.0476189999999974
21
-55.5348189999999988
0
LINE
8
LYELLOW
6
CONTINUOUS
10
35.0476189999999974
20
-55.5348189999999988
11
35.6666659999999993
21
-55.5348189999999988
0
LINE
8
LYELLOW
6
CONTINUOUS
10
34.6666659999999993
20
-34.5348189999999988
11
34.6666659999999993
21
-35.2491039999999956
0
LINE
8
LYELLOW
6
CONTINUOUS
10
34.6666659999999993
20
-35.2491039999999956
11
34.6190470000000019
21
-35.3919609999999949
0
LINE
8
LYELLOW
6
CONTINUOUS
10
34.6190470000000019
20
-35.3919609999999949
11
34.523809
21
-35.4872000000000014
0
LINE
8
LYELLOW
6
CONTINUOUS
10
34.523809
20
-35.4872000000000014
11
34.3809520000000006
21
-35.5348189999999988
0
LINE
8
LYELLOW
6
CONTINUOUS
10
34.3809520000000006
20
-35.5348189999999988
11
34.2857139999999987
21
-35.5348189999999988
0
LINE
8
LYELLOW
6
CONTINUOUS
10
35.6666659999999993
20
-35.5348189999999988
11
35.0952380000000019
21
-35.5348189999999988
0
LINE
8
LYELLOW
6
CONTINUOUS
10
35.3809520000000006
20
-35.5348189999999988
11
35.3809520000000006
21
-34.5348189999999988
0
LINE
8
LYELLOW
6
CONTINUOUS
10
35.3809520000000006
20
-34.5348189999999988
11
35.2857139999999987
21
-34.6776759999999982
0
LINE
8
LYELLOW
6
CONTINUOUS
10
35.2857139999999987
20
-34.6776759999999982
11
35.1904759999999968
21
-34.7729140000000001
0
LINE
8
LYELLOW
6
CONTINUOUS
10
35.1904759999999968
20
-34.7729140000000001
11
35.0952380000000019
21
-34.8205329999999975
0
LINE
8
LYELLOW
6
CONTINUOUS
10
77.2380950000000013
20
-31.314819
11
77.2380950000000013
21
-32.1243419999999986
0
LINE
8
LYELLOW
6
CONTINUOUS
10
77.2380950000000013
20
-32.1243419999999986
11
77.2857139999999987
21
-32.2195800000000006
0
LINE
8
LYELLOW
6
CONTINUOUS
10
77.2857139999999987
20
-32.2195800000000006
11
77.3333329999999961
21
-32.2671999999999954
0
LINE
8
LYELLOW
6
CONTINUOUS
10
77.3333329999999961
20
-32.2671999999999954
11
77.4285709999999909
21
-32.314819
0
LINE
8
LYELLOW
6
CONTINUOUS
10
77.4285709999999909
20
-32.314819
11
77.6190469999999948
21
-32.314819
0
LINE
8
LYELLOW
6
CONTINUOUS
10
77.6190469999999948
20
-32.314819
11
77.7142849999999896
21
-32.2671999999999954
0
LINE
8
LYELLOW
6
CONTINUOUS
10
77.7142849999999896
20
-32.2671999999999954
11
77.7619040000000012
21
-32.2195800000000006
0
LINE
8
LYELLOW
6
CONTINUOUS
10
77.7619040000000012
20
-32.2195800000000006
11
77.8095229999999987
21
-32.1243419999999986
0
LINE
8
LYELLOW
6
CONTINUOUS
10
77.8095229999999987
20
-32.1243419999999986
11
77.8095229999999987
21
-31.314819
0
LINE
8
LYELLOW
6
CONTINUOUS
10
78.8095229999999987
20
-32.314819
11
78.2380950000000013
21
-32.314819
0
LINE
8
LYELLOW
6
CONTINUOUS
10
78.523809
20
-32.314819
11
78.523809
21
-31.314819
0
LINE
8
LYELLOW
6
CONTINUOUS
10
78.523809
20
-31.314819
11
78.4285709999999909
21
-31.4576759999999993
0
LINE
8
LYELLOW
6
CONTINUOUS
10
78.4285709999999909
20
-31.4576759999999993
11
78.3333329999999961
21
-31.5529139999999977
0
LINE
8
LYELLOW
6
CONTINUOUS
10
78.3333329999999961
20
-31.5529139999999977
11
78.2380950000000013
21
-31.6005329999999987
0
LINE
8
LYELLOW
6
CONTINUOUS
10
89.8333329999999961
20
-27.8595799999999976
11
89.7857139999999987
21
-27.9071999999999996
0
LINE
8
LYELLOW
6
CONTINUOUS
10
89.7857139999999987
20
-27.9071999999999996
11
89.6428569999999922
21
-27.954818999999997
0
LINE
8
LYELLOW
6
CONTINUOUS
10
89.6428569999999922
20
-27.954818999999997
11
89.5476189999999974
21
-27.954818999999997
0
LINE
8
LYELLOW
6
CONTINUOUS
10
89.5476189999999974
20
-27.954818999999997
11
89.404761999999991
21
-27.9071999999999996
0
LINE
8
LYELLOW
6
CONTINUOUS
10
89.404761999999991
20
-27.9071999999999996
11
89.3095239999999961
21
-27.8119610000000002
0
LINE
8
LYELLOW
6
CONTINUOUS
10
89.3095239999999961
20
-27.8119610000000002
11
89.2619049999999987
21
-27.7167229999999982
0
LINE
8
LYELLOW
6
CONTINUOUS
10
89.2619049999999987
20
-27.7167229999999982
11
89.2142860000000013
21
-27.5262469999999979
0
LINE
8
LYELLOW
6
CONTINUOUS
10
89.2142860000000013
20
-27.5262469999999979
11
89.2142860000000013
21
-27.3833899999999986
0
LINE
8
LYELLOW
6
CONTINUOUS
10
89.2142860000000013
20
-27.3833899999999986
11
89.2619049999999987
21
-27.1929139999999983
0
LINE
8
LYELLOW
6
CONTINUOUS
10
89.2619049999999987
20
-27.1929139999999983
11
89.3095239999999961
21
-27.0976759999999999
0
LINE
8
LYELLOW
6
CONTINUOUS
10
89.3095239999999961
20
-27.0976759999999999
11
89.404761999999991
21
-27.0024379999999979
0
LINE
8
LYELLOW
6
CONTINUOUS
10
89.404761999999991
20
-27.0024379999999979
11
89.5476189999999974
21
-26.9548190000000005
0
LINE
8
LYELLOW
6
CONTINUOUS
10
89.5476189999999974
20
-26.9548190000000005
11
89.6428569999999922
21
-26.9548190000000005
0
LINE
8
LYELLOW
6
CONTINUOUS
10
89.6428569999999922
20
-26.9548190000000005
11
89.7857139999999987
21
-27.0024379999999979
0
LINE
8
LYELLOW
6
CONTINUOUS
10
89.7857139999999987
20
-27.0024379999999979
11
89.8333329999999961
21
-27.0500569999999989
0
LINE
8
LYELLOW
6
CONTINUOUS
10
90.7857139999999987
20
-27.954818999999997
11
90.2142860000000013
21
-27.954818999999997
0
LINE
8
LYELLOW
6
CONTINUOUS
10
90.5
20
-27.954818999999997
11
90.5
21
-26.9548190000000005
0
LINE
8
LYELLOW
6
CONTINUOUS
10
90.5
20
-26.9548190000000005
11
90.404761999999991
21
-27.0976759999999999
0
LINE
8
LYELLOW
6
CONTINUOUS
10
90.404761999999991
20
-27.0976759999999999
11
90.3095239999999961
21
-27.1929139999999983
0
LINE
8
LYELLOW
6
CONTINUOUS
10
90.3095239999999961
20
-27.1929139999999983
11
90.2142860000000013
21
-27.2405329999999992
0
LINE
8
LYELLOW
6
CONTINUOUS
10
49.3571419999999961
20
-28.0848189999999995
11
49.023809
21
-27.6086279999999995
0
LINE
8
LYELLOW
6
CONTINUOUS
10
48.7857139999999987
20
-28.0848189999999995
11
48.7857139999999987
21
-27.0848189999999995
0
LINE
8
LYELLOW
6
CONTINUOUS
10
48.7857139999999987
20
-27.0848189999999995
11
49.1666659999999993
21
-27.0848189999999995
0
LINE
8
LYELLOW
6
CONTINUOUS
10
49.1666659999999993
20
-27.0848189999999995
11
49.2619040000000012
21
-27.1324380000000005
0
LINE
8
LYELLOW
6
CONTINUOUS
10
49.2619040000000012
20
-27.1324380000000005
11
49.3095229999999987
21
-27.1800569999999979
0
LINE
8
LYELLOW
6
CONTINUOUS
10
49.3095229999999987
20
-27.1800569999999979
11
49.3571419999999961
21
-27.2752949999999998
0
LINE
8
LYELLOW
6
CONTINUOUS
10
49.3571419999999961
20
-27.2752949999999998
11
49.3571419999999961
21
-27.4181519999999992
0
LINE
8
LYELLOW
6
CONTINUOUS
10
49.3571419999999961
20
-27.4181519999999992
11
49.3095229999999987
21
-27.5133899999999976
0
LINE
8
LYELLOW
6
CONTINUOUS
10
49.3095229999999987
20
-27.5133899999999976
11
49.2619040000000012
21
-27.5610089999999985
0
LINE
8
LYELLOW
6
CONTINUOUS
10
49.2619040000000012
20
-27.5610089999999985
11
49.1666659999999993
21
-27.6086279999999995
0
LINE
8
LYELLOW
6
CONTINUOUS
10
49.1666659999999993
20
-27.6086279999999995
11
48.7857139999999987
21
-27.6086279999999995
0
LINE
8
LYELLOW
6
CONTINUOUS
10
50.3095229999999987
20
-28.0848189999999995
11
49.7380950000000013
21
-28.0848189999999995
0
LINE
8
LYELLOW
6
CONTINUOUS
10
50.023809
20
-28.0848189999999995
11
50.023809
21
-27.0848189999999995
0
LINE
8
LYELLOW
6
CONTINUOUS
10
50.023809
20
-27.0848189999999995
11
49.928570999999998
21
-27.2276759999999989
0
LINE
8
LYELLOW
6
CONTINUOUS
10
49.928570999999998
20
-27.2276759999999989
11
49.8333329999999961
21
-27.3229139999999973
0
LINE
8
LYELLOW
6
CONTINUOUS
10
49.8333329999999961
20
-27.3229139999999973
11
49.7380950000000013
21
-27.3705329999999982
0
LINE
8
LYELLOW
6
CONTINUOUS
10
51.2619039999999941
20
-28.0848189999999995
11
50.6904759999999968
21
-28.0848189999999995
0
LINE
8
LYELLOW
6
CONTINUOUS
10
50.9761899999999955
20
-28.0848189999999995
11
50.9761899999999955
21
-27.0848189999999995
0
LINE
8
LYELLOW
6
CONTINUOUS
10
50.9761899999999955
20
-27.0848189999999995
11
50.8809520000000006
21
-27.2276759999999989
0
LINE
8
LYELLOW
6
CONTINUOUS
10
50.8809520000000006
20
-27.2276759999999989
11
50.7857139999999987
21
-27.3229139999999973
0
LINE
8
LYELLOW
6
CONTINUOUS
10
50.7857139999999987
20
-27.3229139999999973
11
50.6904759999999968
21
-27.3705329999999982
0
LINE
8
LYELLOW
6
CONTINUOUS
10
87.3799999999999955
20
-52.6299999999999955
11
92.6199999999999903
21
-52.6299999999999955
0
LINE
8
LYELLOW
6
CONTINUOUS
10
87.3799999999999955
20
-52.9669999999999987
11
87.3799999999999955
21
-52.6299999999999955
0
LINE
8
LYELLOW
6
CONTINUOUS
10
87.3799999999999955
20
-55.3699999999999974
11
87.3799999999999955
21
-55.0329999999999941
0
LINE
8
LYELLOW
6
CONTINUOUS
10
92.6199999999999903
20
-52.6299999999999955
11
92.6199999999999903
21
-52.9669999999999987
0
LINE
8
LYELLOW
6
CONTINUOUS
10
92.6199999999999903
20
-55.0329999999999941
11
92.6199999999999903
21
-55.3699999999999974
0
LINE
8
LYELLOW
6
CONTINUOUS
10
92.6199999999999903
20
-55.3699999999999974
11
87.3799999999999955
21
-55.3699999999999974
0
LINE
8
LYELLOW
6
CONTINUOUS
10
60.7299999999999969
20
-74.6299999999999955
11
67.269999999999996
21
-74.6299999999999955
0
LINE
8
LYELLOW
6
CONTINUOUS
10
60.7299999999999969
20
-74.9599999999999937
11
60.7299999999999969
21
-74.6299999999999955
0
LINE
8
LYELLOW
6
CONTINUOUS
10
60.7299999999999969
20
-77.039999999999992
11
60.7299999999999969
21
-77.3699999999999903
0
LINE
8
LYELLOW
6
CONTINUOUS
10
60.7299999999999969
20
-77.3699999999999903
11
67.269999999999996
21
-77.3699999999999903
0
LINE
8
LYELLOW
6
CONTINUOUS
10
67.269999999999996
20
-74.6299999999999955
11
67.269999999999996
21
-74.9599999999999937
0
LINE
8
LYELLOW
6
CONTINUOUS
10
67.269999999999996
20
-77.3699999999999903
11
67.269999999999996
21
-77.039999999999992
0
LINE
8
LYELLOW
6
CONTINUOUS
10
60.7299999999999969
20
-54.6299999999999955
11
67.269999999999996
21
-54.6299999999999955
0
LINE
8
LYELLOW
6
CONTINUOUS
10
60.7299999999999969
20
-54.9600000000000009
11
60.7299999999999969
21
-54.6299999999999955
0
LINE
8
LYELLOW
6
CONTINUOUS
10
60.7299999999999969
20
-57.0399999999999991
11
60.7299999999999969
21
-57.3699999999999974
0
LINE
8
LYELLOW
6
CONTINUOUS
10
60.7299999999999969
20
-57.3699999999999974
11
67.269999999999996
21
-57.3699999999999974
0
LINE
8
LYELLOW
6
CONTINUOUS
10
67.269999999999996
20
-54.6299999999999955
11
67.269999999999996
21
-54.9600000000000009
0
LINE
8
LYELLOW
6
CONTINUOUS
10
67.269999999999996
20
-57.3699999999999974
11
67.269999999999996
21
-57.0399999999999991
0
LINE
8
LYELLOW
6
CONTINUOUS
10
60.7299999999999969
20
-62.6299999999999955
11
67.269999999999996
21
-62.6299999999999955
0
LINE
8
LYELLOW
6
CONTINUOUS
10
60.7299999999999969
20
-62.9599999999999937
11
60.7299999999999969
21
-62.6299999999999955
0
LINE
8
LYELLOW
6
CONTINUOUS
10
60.7299999999999969
20
-65.039999999999992
11
60.7299999999999969
21
-65.3699999999999903
0
LINE
8
LYELLOW
6
CONTINUOUS
10
60.7299999999999969
20
-65.3699999999999903
11
67.269999999999996
21
-65.3699999999999903
0
LINE
8
LYELLOW
6
CONTINUOUS
10
67.269999999999996
20
-62.6299999999999955
11
67.269999999999996
21
-62.9599999999999937
0
LINE
8
LYELLOW
6
CONTINUOUS
10
67.269999999999996
20
-65.3699999999999903
11
67.269999999999996
21
-65.039999999999992
0
LINE
8
LYELLOW
6
CONTINUOUS
10
60.7299999999999969
20
-34.6299999999999955
11
67.269999999999996
21
-34.6299999999999955
0
LINE
8
LYELLOW
6
CONTINUOUS
10
60.7299999999999969
20
-34.9600000000000009
11
60.7299999999999969
21
-34.6299999999999955
0
LINE
8
LYELLOW
6
CONTINUOUS
10
60.7299999999999969
20
-37.0399999999999991
11
60.7299999999999969
21
-37.3699999999999974
0
LINE
8
LYELLOW
6
CONTINUOUS
10
60.7299999999999969
20
-37.3699999999999974
11
67.269999999999996
21
-37.3699999999999974
0
LINE
8
LYELLOW
6
CONTINUOUS
10
67.269999999999996
20
-34.6299999999999955
11
67.269999999999996
21
-34.9600000000000009
0
LINE
8
LYELLOW
6
CONTINUOUS
10
67.269999999999996
20
-37.3699999999999974
11
67.269999999999996
21
-37.0399999999999991
0
LINE
8
LYELLOW
6
CONTINUOUS
10
29.9199999999999982
20
-66.1899999999999977
11
29.9199999999999982
21
-73.8100000000000023
0
LINE
8
LYELLOW
6
CONTINUOUS
10
29.9199999999999982
20
-67.4599999999999937
11
40.0799999999999983
21
-67.4599999999999937
0
LINE
8
LYELLOW
6
CONTINUOUS
10
29.9199999999999982
20
-73.8100000000000023
11
40.0799999999999983
21
-73.8100000000000023
0
LINE
8
LYELLOW
6
CONTINUOUS
10
40.0799999999999983
20
-66.1899999999999977
11
29.9199999999999982
21
-66.1899999999999977
0
LINE
8
LYELLOW
6
CONTINUOUS
10
40.0799999999999983
20
-73.8100000000000023
11
40.0799999999999983
21
-66.1899999999999977
0
LINE
8
LYELLOW
6
CONTINUOUS
10
60.7299999999999969
20
-42.6299999999999955
11
67.269999999999996
21
-42.6299999999999955
0
LINE
8
LYELLOW
6
CONTINUOUS
10
60.7299999999999969
20
-42.9600000000000009
11
60.7299999999999969
21
-42.6299999999999955
0
LINE
8
LYELLOW
6
CONTINUOUS
10
60.7299999999999969
20
-45.0399999999999991
11
60.7299999999999969
21
-45.3699999999999974
0
LINE
8
LYELLOW
6
CONTINUOUS
10
60.7299999999999969
20
-45.3699999999999974
11
67.269999999999996
21
-45.3699999999999974
0
LINE
8
LYELLOW
6
CONTINUOUS
10
67.269999999999996
20
-42.6299999999999955
11
67.269999999999996
21
-42.9600000000000009
0
LINE
8
LYELLOW
6
CONTINUOUS
10
67.269999999999996
20
-45.3699999999999974
11
67.269999999999996
21
-45.0399999999999991
0
LINE
8
LYELLOW
6
CONTINUOUS
10
75.75
20
-56.8599999999999994
11
75.75
21
-67.1400000000000006
0
LINE
8
LYELLOW
6
CONTINUOUS
10
75.75
20
-67.1400000000000006
11
80.25
21
-67.1400000000000006
0
LINE
8
LYELLOW
6
CONTINUOUS
10
77.
20
-56.8599999999999994
11
75.75
21
-56.8599999999999994
0
LINE
8
LYELLOW
6
CONTINUOUS
10
80.25
20
-56.8599999999999994
11
79.
21
-56.8599999999999994
0
LINE
8
LYELLOW
6
CONTINUOUS
10
80.25
20
-67.1400000000000006
11
80.25
21
-56.8599999999999994
0
ARC
8
LYELLOW
10
78.
20
-56.8599999999999994
40
1.
50
-180.00000000
51
-0.00000000
0
LINE
8
LYELLOW
6
CONTINUOUS
10
60.7299999999999969
20
-22.629999999999999
11
67.269999999999996
21
-22.629999999999999
0
LINE
8
LYELLOW
6
CONTINUOUS
10
60.7299999999999969
20
-22.9599999999999973
11
60.7299999999999969
21
-22.629999999999999
0
LINE
8
LYELLOW
6
CONTINUOUS
10
60.7299999999999969
20
-25.0399999999999991
11
60.7299999999999969
21
-25.3699999999999974
0
LINE
8
LYELLOW
6
CONTINUOUS
10
60.7299999999999969
20
-25.3699999999999974
11
67.269999999999996
21
-25.3699999999999974
0
LINE
8
LYELLOW
6
CONTINUOUS
10
67.269999999999996
20
-22.629999999999999
11
67.269999999999996
21
-22.9599999999999973
0
LINE
8
LYELLOW
6
CONTINUOUS
10
67.269999999999996
20
-25.3699999999999974
11
67.269999999999996
21
-25.0399999999999991
0
LINE
8
LYELLOW
6
CONTINUOUS
10
46.7299999999999969
20
-68.6299999999999955
11
53.269999999999996
21
-68.6299999999999955
0
LINE
8
LYELLOW
6
CONTINUOUS
10
46.7299999999999969
20
-68.9599999999999937
11
46.7299999999999969
21
-68.6299999999999955
0
LINE
8
LYELLOW
6
CONTINUOUS
10
46.7299999999999969
20
-71.039999999999992
11
46.7299999999999969
21
-71.3699999999999903
0
LINE
8
LYELLOW
6
CONTINUOUS
10
46.7299999999999969
20
-71.3699999999999903
11
53.269999999999996
21
-71.3699999999999903
0
LINE
8
LYELLOW
6
CONTINUOUS
10
53.269999999999996
20
-68.6299999999999955
11
53.269999999999996
21
-68.9599999999999937
0
LINE
8
LYELLOW
6
CONTINUOUS
10
53.269999999999996
20
-71.3699999999999903
11
53.269999999999996
21
-71.039999999999992
0
LINE
8
LYELLOW
6
CONTINUOUS
10
46.7299999999999969
20
-48.6299999999999955
11
53.269999999999996
21
-48.6299999999999955
0
LINE
8
LYELLOW
6
CONTINUOUS
10
46.7299999999999969
20
-48.9600000000000009
11
46.7299999999999969
21
-48.6299999999999955
0
LINE
8
LYELLOW
6
CONTINUOUS
10
46.7299999999999969
20
-51.0399999999999991
11
46.7299999999999969
21
-51.3699999999999974
0
LINE
8
LYELLOW
6
CONTINUOUS
10
46.7299999999999969
20
-51.3699999999999974
11
53.269999999999996
21
-51.3699999999999974
0
LINE
8
LYELLOW
6
CONTINUOUS
10
53.269999999999996
20
-48.6299999999999955
11
53.269999999999996
21
-48.9600000000000009
0
LINE
8
LYELLOW
6
CONTINUOUS
10
53.269999999999996
20
-51.3699999999999974
11
53.269999999999996
21
-51.0399999999999991
0
LINE
8
LYELLOW
6
CONTINUOUS
10
107.6199999999999903
20
-43.5399999999999991
11
109.
21
-43.5399999999999991
0
LINE
8
LYELLOW
6
CONTINUOUS
10
107.6199999999999903
20
-44.9199999999999946
11
107.6199999999999903
21
-43.5399999999999991
0
LINE
8
LYELLOW
6
CONTINUOUS
10
107.6199999999999903
20
-46.1899999999999977
11
107.6199999999999903
21
-56.4600000000000009
0
LINE
8
LYELLOW
6
CONTINUOUS
10
107.6199999999999903
20
-46.1899999999999977
11
110.3799999999999955
21
-46.1899999999999977
0
LINE
8
LYELLOW
6
CONTINUOUS
10
107.6199999999999903
20
-56.4600000000000009
11
110.3799999999999955
21
-56.4600000000000009
0
LINE
8
LYELLOW
6
CONTINUOUS
10
110.3799999999999955
20
-46.1899999999999977
11
110.3799999999999955
21
-56.4600000000000009
0
LINE
8
LYELLOW
6
CONTINUOUS
10
29.9199999999999982
20
-46.1899999999999977
11
29.9199999999999982
21
-53.8099999999999952
0
LINE
8
LYELLOW
6
CONTINUOUS
10
29.9199999999999982
20
-47.4600000000000009
11
40.0799999999999983
21
-47.4600000000000009
0
LINE
8
LYELLOW
6
CONTINUOUS
10
29.9199999999999982
20
-53.8099999999999952
11
40.0799999999999983
21
-53.8099999999999952
0
LINE
8
LYELLOW
6
CONTINUOUS
10
40.0799999999999983
20
-46.1899999999999977
11
29.9199999999999982
21
-46.1899999999999977
0
LINE
8
LYELLOW
6
CONTINUOUS
10
40.0799999999999983
20
-53.8099999999999952
11
40.0799999999999983
21
-46.1899999999999977
0
LINE
8
LYELLOW
6
CONTINUOUS
10
29.9199999999999982
20
-26.1899999999999977
11
29.9199999999999982
21
-33.8099999999999952
0
LINE
8
LYELLOW
6
CONTINUOUS
10
29.9199999999999982
20
-27.4599999999999973
11
40.0799999999999983
21
-27.4599999999999973
0
LINE
8
LYELLOW
6
CONTINUOUS
10
29.9199999999999982
20
-33.8099999999999952
11
40.0799999999999983
21
-33.8099999999999952
0
LINE
8
LYELLOW
6
CONTINUOUS
10
40.0799999999999983
20
-26.1899999999999977
11
29.9199999999999982
21
-26.1899999999999977
0
LINE
8
LYELLOW
6
CONTINUOUS
10
40.0799999999999983
20
-33.8099999999999952
11
40.0799999999999983
21
-26.1899999999999977
0
LINE
8
LYELLOW
6
CONTINUOUS
10
75.75
20
-32.8599999999999994
11
75.75
21
-43.1400000000000006
0
LINE
8
LYELLOW
6
CONTINUOUS
10
75.75
20
-43.1400000000000006
11
80.25
21
-43.1400000000000006
0
LINE
8
LYELLOW
6
CONTINUOUS
10
77.
20
-32.8599999999999994
11
75.75
21
-32.8599999999999994
0
LINE
8
LYELLOW
6
CONTINUOUS
10
80.25
20
-32.8599999999999994
11
79.
21
-32.8599999999999994
0
LINE
8
LYELLOW
6
CONTINUOUS
10
80.25
20
-43.1400000000000006
11
80.25
21
-32.8599999999999994
0
ARC
8
LYELLOW
10
78.
20
-32.8599999999999994
40
1.
50
-180.00000000
51
-0.00000000
0
LINE
8
LYELLOW
6
CONTINUOUS
10
87.3799999999999955
20
-28.629999999999999
11
92.6199999999999903
21
-28.629999999999999
0
LINE
8
LYELLOW
6
CONTINUOUS
10
87.3799999999999955
20
-28.9669999999999987
11
87.3799999999999955
21
-28.629999999999999
0
LINE
8
LYELLOW
6
CONTINUOUS
10
87.3799999999999955
20
-31.3699999999999974
11
87.3799999999999955
21
-31.0329999999999977
0
LINE
8
LYELLOW
6
CONTINUOUS
10
92.6199999999999903
20
-28.629999999999999
11
92.6199999999999903
21
-28.9669999999999987
0
LINE
8
LYELLOW
6
CONTINUOUS
10
92.6199999999999903
20
-31.0329999999999977
11
92.6199999999999903
21
-31.3699999999999974
0
LINE
8
LYELLOW
6
CONTINUOUS
10
92.6199999999999903
20
-31.3699999999999974
11
87.3799999999999955
21
-31.3699999999999974
0
LINE
8
LYELLOW
6
CONTINUOUS
10
46.7299999999999969
20
-28.629999999999999
11
53.269999999999996
21
-28.629999999999999
0
LINE
8
LYELLOW
6
CONTINUOUS
10
46.7299999999999969
20
-28.9599999999999973
11
46.7299999999999969
21
-28.629999999999999
0
LINE
8
LYELLOW
6
CONTINUOUS
10
46.7299999999999969
20
-31.0399999999999991
11
46.7299999999999969
21
-31.3699999999999974
0
LINE
8
LYELLOW
6
CONTINUOUS
10
46.7299999999999969
20
-31.3699999999999974
11
53.269999999999996
21
-31.3699999999999974
0
LINE
8
LYELLOW
6
CONTINUOUS
10
53.269999999999996
20
-28.629999999999999
11
53.269999999999996
21
-28.9599999999999973
0
LINE
8
LYELLOW
6
CONTINUOUS
10
53.269999999999996
20
-31.3699999999999974
11
53.269999999999996
21
-31.0399999999999991
0
LINE
8
WHITE
6
CONTINUOUS
10
20.
20
-20.
11
124.
21
-20.
0
LINE
8
WHITE
6
CONTINUOUS
10
124.
20
-20.
11
124.
21
-124.
0
LINE
8
WHITE
6
CONTINUOUS
10
124.
20
-124.
11
20.
21
-124.
0
LINE
8
WHITE
6
CONTINUOUS
10
20.
20
-124.
11
20.
21
-20.
  0
ENDSEC
  0
EOF
