  0
SECTION
  2
HEADER
  9
$ANGBASE
  50
0.0
  9
$ANGDIR
  70
1
  9
$MEASUREMENT
  70
1
  0
ENDSEC
  0
SECTION
  2
TABLES
  0
TABLE
  2
LTYPE
  70
4
  0
LTYPE
  5
40F
  2
CONTINUOUS
  70
0
  3
Solid line
  72
65
  73
0
  40
0.0
  0
LTYPE
  5
410
  2
DASHDOT
 70
0
  3
Dash Dot ____ _ ____ _
 72
65
 73
4
 40
2.0
 49
1.25
 49
-0.25
 49
0.25
 49
-0.25
  0
LTYPE
  5
411
  2
DASHED
 70
0
  3
Dashed __ __ __ __ __
 72
65
 73
2
 40
0.75
 49
0.5
 49
-0.25
  0
LTYPE
  5
43B
  2
DOTTED
 70
0
  3
Dotted .  .  .  .
 72
65
 73
2
 40
0.2
 49
0.0
 49
-0.2
  0
ENDTAB
  0
TABLE
  2
STYLE
  70
4
  0
STYLE
  2
KICAD
  70
0
  40
0
  41
1
  42
1
  50
0
  71
0
  3
isocp.shx
  0
STYLE
  2
KICADB
  70
0
  40
0
  41
1
  42
1
  50
0
  71
0
  3
isocp.shx
  0
STYLE
  2
KICADI
  70
0
  40
0
  41
1
  42
1
  50
15
  71
0
  3
isocp.shx
  0
STYLE
  2
KICADBI
  70
0
  40
0
  41
1
  42
1
  50
15
  71
0
  3
isocp.shx
  0
ENDTAB
  0
TABLE
  2
LAYER
  70
35
  0
LAYER
  2
BLACK
  70
0
  62
7
  6
CONTINUOUS
  0
LAYER
  2
GRAY1
  70
0
  62
251
  6
CONTINUOUS
  0
LAYER
  2
GRAY2
  70
0
  62
8
  6
CONTINUOUS
  0
LAYER
  2
GRAY3
  70
0
  62
9
  6
CONTINUOUS
  0
LAYER
  2
WHITE
  70
0
  62
7
  6
CONTINUOUS
  0
LAYER
  2
LYELLOW
  70
0
  62
51
  6
CONTINUOUS
  0
LAYER
  2
LORANGE
  70
0
  62
41
  6
CONTINUOUS
  0
LAYER
  2
BLUE1
  70
0
  62
178
  6
CONTINUOUS
  0
LAYER
  2
GREEN1
  70
0
  62
98
  6
CONTINUOUS
  0
LAYER
  2
CYAN1
  70
0
  62
138
  6
CONTINUOUS
  0
LAYER
  2
RED1
  70
0
  62
18
  6
CONTINUOUS
  0
LAYER
  2
MAGENTA1
  70
0
  62
228
  6
CONTINUOUS
  0
LAYER
  2
BROWN1
  70
0
  62
58
  6
CONTINUOUS
  0
LAYER
  2
ORANGE1
  70
0
  62
34
  6
CONTINUOUS
  0
LAYER
  2
BLUE2
  70
0
  62
5
  6
CONTINUOUS
  0
LAYER
  2
GREEN2
  70
0
  62
3
  6
CONTINUOUS
  0
LAYER
  2
CYAN2
  70
0
  62
4
  6
CONTINUOUS
  0
LAYER
  2
RED2
  70
0
  62
1
  6
CONTINUOUS
  0
LAYER
  2
MAGENTA2
  70
0
  62
6
  6
CONTINUOUS
  0
LAYER
  2
BROWN2
  70
0
  62
54
  6
CONTINUOUS
  0
LAYER
  2
ORANGE2
  70
0
  62
42
  6
CONTINUOUS
  0
LAYER
  2
BLUE3
  70
0
  62
171
  6
CONTINUOUS
  0
LAYER
  2
GREEN3
  70
0
  62
91
  6
CONTINUOUS
  0
LAYER
  2
CYAN3
  70
0
  62
131
  6
CONTINUOUS
  0
LAYER
  2
RED3
  70
0
  62
11
  6
CONTINUOUS
  0
LAYER
  2
MAGENTA3
  70
0
  62
221
  6
CONTINUOUS
  0
LAYER
  2
YELLOW3
  70
0
  62
2
  6
CONTINUOUS
  0
LAYER
  2
ORANGE3
  70
0
  62
32
  6
CONTINUOUS
  0
LAYER
  2
BLUE4
  70
0
  62
5
  6
CONTINUOUS
  0
LAYER
  2
GREEN4
  70
0
  62
3
  6
CONTINUOUS
  0
LAYER
  2
CYAN4
  70
0
  62
4
  6
CONTINUOUS
  0
LAYER
  2
RED4
  70
0
  62
1
  6
CONTINUOUS
  0
LAYER
  2
MAGENTA4
  70
0
  62
6
  6
CONTINUOUS
  0
LAYER
  2
YELLOW4
  70
0
  62
2
  6
CONTINUOUS
  0
LAYER
  2
ORANGE4
  70
0
  62
40
  6
CONTINUOUS
  0
ENDTAB
  0
ENDSEC
  0
SECTION
  2
ENTITIES
0
LINE
8
LYELLOW
6
CONTINUOUS
10
67.097141999999991
20
-56.084818999999996
11
66.7638089999999949
21
-55.608627999999996
0
LINE
8
LYELLOW
6
CONTINUOUS
10
66.5257139999999936
20
-56.084818999999996
11
66.5257139999999936
21
-55.084818999999996
0
LINE
8
LYELLOW
6
CONTINUOUS
10
66.5257139999999936
20
-55.084818999999996
11
66.9066660000000013
21
-55.084818999999996
0
LINE
8
LYELLOW
6
CONTINUOUS
10
66.9066660000000013
20
-55.084818999999996
11
67.0019039999999961
21
-55.1324380000000005
0
LINE
8
LYELLOW
6
CONTINUOUS
10
67.0019039999999961
20
-55.1324380000000005
11
67.0495229999999935
21
-55.1800569999999979
0
LINE
8
LYELLOW
6
CONTINUOUS
10
67.0495229999999935
20
-55.1800569999999979
11
67.097141999999991
21
-55.2752949999999998
0
LINE
8
LYELLOW
6
CONTINUOUS
10
67.097141999999991
20
-55.2752949999999998
11
67.097141999999991
21
-55.4181519999999992
0
LINE
8
LYELLOW
6
CONTINUOUS
10
67.097141999999991
20
-55.4181519999999992
11
67.0495229999999935
21
-55.513389999999994
0
LINE
8
LYELLOW
6
CONTINUOUS
10
67.0495229999999935
20
-55.513389999999994
11
67.0019039999999961
21
-55.5610089999999985
0
LINE
8
LYELLOW
6
CONTINUOUS
10
67.0019039999999961
20
-55.5610089999999985
11
66.9066660000000013
21
-55.608627999999996
0
LINE
8
LYELLOW
6
CONTINUOUS
10
66.9066660000000013
20
-55.608627999999996
11
66.5257139999999936
21
-55.608627999999996
0
LINE
8
LYELLOW
6
CONTINUOUS
10
68.0495229999999935
20
-56.084818999999996
11
67.4780949999999962
21
-56.084818999999996
0
LINE
8
LYELLOW
6
CONTINUOUS
10
67.7638089999999949
20
-56.084818999999996
11
67.7638089999999949
21
-55.084818999999996
0
LINE
8
LYELLOW
6
CONTINUOUS
10
67.7638089999999949
20
-55.084818999999996
11
67.668571
21
-55.2276759999999953
0
LINE
8
LYELLOW
6
CONTINUOUS
10
67.668571
20
-55.2276759999999953
11
67.573332999999991
21
-55.3229139999999973
0
LINE
8
LYELLOW
6
CONTINUOUS
10
67.573332999999991
20
-55.3229139999999973
11
67.4780949999999962
21
-55.3705329999999947
0
LINE
8
LYELLOW
6
CONTINUOUS
10
68.3828570000000013
20
-55.084818999999996
11
69.0019039999999961
21
-55.084818999999996
0
LINE
8
LYELLOW
6
CONTINUOUS
10
69.0019039999999961
20
-55.084818999999996
11
68.668571
21
-55.4657709999999966
0
LINE
8
LYELLOW
6
CONTINUOUS
10
68.668571
20
-55.4657709999999966
11
68.8114279999999923
21
-55.4657709999999966
0
LINE
8
LYELLOW
6
CONTINUOUS
10
68.8114279999999923
20
-55.4657709999999966
11
68.9066660000000013
21
-55.513389999999994
0
LINE
8
LYELLOW
6
CONTINUOUS
10
68.9066660000000013
20
-55.513389999999994
11
68.9542849999999987
21
-55.5610089999999985
0
LINE
8
LYELLOW
6
CONTINUOUS
10
68.9542849999999987
20
-55.5610089999999985
11
69.0019039999999961
21
-55.6562470000000005
0
LINE
8
LYELLOW
6
CONTINUOUS
10
69.0019039999999961
20
-55.6562470000000005
11
69.0019039999999961
21
-55.8943419999999946
0
LINE
8
LYELLOW
6
CONTINUOUS
10
69.0019039999999961
20
-55.8943419999999946
11
68.9542849999999987
21
-55.9895799999999966
0
LINE
8
LYELLOW
6
CONTINUOUS
10
68.9542849999999987
20
-55.9895799999999966
11
68.9066660000000013
21
-56.0371999999999986
0
LINE
8
LYELLOW
6
CONTINUOUS
10
68.9066660000000013
20
-56.0371999999999986
11
68.8114279999999923
21
-56.084818999999996
0
LINE
8
LYELLOW
6
CONTINUOUS
10
68.8114279999999923
20
-56.084818999999996
11
68.5257139999999936
21
-56.084818999999996
0
LINE
8
LYELLOW
6
CONTINUOUS
10
68.5257139999999936
20
-56.084818999999996
11
68.4304759999999987
21
-56.0371999999999986
0
LINE
8
LYELLOW
6
CONTINUOUS
10
68.4304759999999987
20
-56.0371999999999986
11
68.3828570000000013
21
-55.9895799999999966
0
LINE
8
LYELLOW
6
CONTINUOUS
10
53.0971419999999981
20
-50.084818999999996
11
52.7638089999999949
21
-49.608627999999996
0
LINE
8
LYELLOW
6
CONTINUOUS
10
52.5257140000000007
20
-50.084818999999996
11
52.5257140000000007
21
-49.084818999999996
0
LINE
8
LYELLOW
6
CONTINUOUS
10
52.5257140000000007
20
-49.084818999999996
11
52.9066659999999942
21
-49.084818999999996
0
LINE
8
LYELLOW
6
CONTINUOUS
10
52.9066659999999942
20
-49.084818999999996
11
53.0019039999999961
21
-49.1324380000000005
0
LINE
8
LYELLOW
6
CONTINUOUS
10
53.0019039999999961
20
-49.1324380000000005
11
53.0495230000000006
21
-49.1800569999999979
0
LINE
8
LYELLOW
6
CONTINUOUS
10
53.0495230000000006
20
-49.1800569999999979
11
53.0971419999999981
21
-49.2752949999999998
0
LINE
8
LYELLOW
6
CONTINUOUS
10
53.0971419999999981
20
-49.2752949999999998
11
53.0971419999999981
21
-49.4181519999999992
0
LINE
8
LYELLOW
6
CONTINUOUS
10
53.0971419999999981
20
-49.4181519999999992
11
53.0495230000000006
21
-49.5133900000000011
0
LINE
8
LYELLOW
6
CONTINUOUS
10
53.0495230000000006
20
-49.5133900000000011
11
53.0019039999999961
21
-49.5610089999999985
0
LINE
8
LYELLOW
6
CONTINUOUS
10
53.0019039999999961
20
-49.5610089999999985
11
52.9066659999999942
21
-49.608627999999996
0
LINE
8
LYELLOW
6
CONTINUOUS
10
52.9066659999999942
20
-49.608627999999996
11
52.5257140000000007
21
-49.608627999999996
0
LINE
8
LYELLOW
6
CONTINUOUS
10
54.0495230000000006
20
-50.084818999999996
11
53.4780949999999962
21
-50.084818999999996
0
LINE
8
LYELLOW
6
CONTINUOUS
10
53.7638089999999949
20
-50.084818999999996
11
53.7638089999999949
21
-49.084818999999996
0
LINE
8
LYELLOW
6
CONTINUOUS
10
53.7638089999999949
20
-49.084818999999996
11
53.668571
21
-49.2276759999999953
0
LINE
8
LYELLOW
6
CONTINUOUS
10
53.668571
20
-49.2276759999999953
11
53.5733329999999981
21
-49.3229139999999973
0
LINE
8
LYELLOW
6
CONTINUOUS
10
53.5733329999999981
20
-49.3229139999999973
11
53.4780949999999962
21
-49.3705329999999947
0
LINE
8
LYELLOW
6
CONTINUOUS
10
55.0019039999999961
20
-50.084818999999996
11
54.4304759999999987
21
-50.084818999999996
0
LINE
8
LYELLOW
6
CONTINUOUS
10
54.7161899999999974
20
-50.084818999999996
11
54.7161899999999974
21
-49.084818999999996
0
LINE
8
LYELLOW
6
CONTINUOUS
10
54.7161899999999974
20
-49.084818999999996
11
54.6209519999999955
21
-49.2276759999999953
0
LINE
8
LYELLOW
6
CONTINUOUS
10
54.6209519999999955
20
-49.2276759999999953
11
54.5257140000000007
21
-49.3229139999999973
0
LINE
8
LYELLOW
6
CONTINUOUS
10
54.5257140000000007
20
-49.3229139999999973
11
54.4304759999999987
21
-49.3705329999999947
0
LINE
8
LYELLOW
6
CONTINUOUS
10
38.4066660000000013
20
-76.5348189999999988
11
38.4066660000000013
21
-77.2491040000000027
0
LINE
8
LYELLOW
6
CONTINUOUS
10
38.4066660000000013
20
-77.2491040000000027
11
38.3590469999999968
21
-77.3919609999999949
0
LINE
8
LYELLOW
6
CONTINUOUS
10
38.3590469999999968
20
-77.3919609999999949
11
38.2638089999999949
21
-77.4872000000000014
0
LINE
8
LYELLOW
6
CONTINUOUS
10
38.2638089999999949
20
-77.4872000000000014
11
38.1209519999999955
21
-77.5348189999999988
0
LINE
8
LYELLOW
6
CONTINUOUS
10
38.1209519999999955
20
-77.5348189999999988
11
38.0257140000000007
21
-77.5348189999999988
0
LINE
8
LYELLOW
6
CONTINUOUS
10
38.8352379999999968
20
-76.6300569999999936
11
38.8828570000000013
21
-76.5824379999999962
0
LINE
8
LYELLOW
6
CONTINUOUS
10
38.8828570000000013
20
-76.5824379999999962
11
38.9780949999999962
21
-76.5348189999999988
0
LINE
8
LYELLOW
6
CONTINUOUS
10
38.9780949999999962
20
-76.5348189999999988
11
39.2161899999999974
21
-76.5348189999999988
0
LINE
8
LYELLOW
6
CONTINUOUS
10
39.2161899999999974
20
-76.5348189999999988
11
39.3114279999999994
21
-76.5824379999999962
0
LINE
8
LYELLOW
6
CONTINUOUS
10
39.3114279999999994
20
-76.5824379999999962
11
39.3590469999999968
21
-76.6300569999999936
0
LINE
8
LYELLOW
6
CONTINUOUS
10
39.3590469999999968
20
-76.6300569999999936
11
39.4066660000000013
21
-76.7252950000000027
0
LINE
8
LYELLOW
6
CONTINUOUS
10
39.4066660000000013
20
-76.7252950000000027
11
39.4066660000000013
21
-76.8205329999999975
0
LINE
8
LYELLOW
6
CONTINUOUS
10
39.4066660000000013
20
-76.8205329999999975
11
39.3590469999999968
21
-76.9633899999999898
0
LINE
8
LYELLOW
6
CONTINUOUS
10
39.3590469999999968
20
-76.9633899999999898
11
38.7876189999999994
21
-77.5348189999999988
0
LINE
8
LYELLOW
6
CONTINUOUS
10
38.7876189999999994
20
-77.5348189999999988
11
39.4066660000000013
21
-77.5348189999999988
0
LINE
8
LYELLOW
6
CONTINUOUS
10
38.4066660000000013
20
-96.5348189999999988
11
38.4066660000000013
21
-97.2491040000000027
0
LINE
8
LYELLOW
6
CONTINUOUS
10
38.4066660000000013
20
-97.2491040000000027
11
38.3590469999999968
21
-97.3919609999999949
0
LINE
8
LYELLOW
6
CONTINUOUS
10
38.3590469999999968
20
-97.3919609999999949
11
38.2638089999999949
21
-97.4872000000000014
0
LINE
8
LYELLOW
6
CONTINUOUS
10
38.2638089999999949
20
-97.4872000000000014
11
38.1209519999999955
21
-97.5348189999999988
0
LINE
8
LYELLOW
6
CONTINUOUS
10
38.1209519999999955
20
-97.5348189999999988
11
38.0257140000000007
21
-97.5348189999999988
0
LINE
8
LYELLOW
6
CONTINUOUS
10
38.7876189999999994
20
-96.5348189999999988
11
39.4066660000000013
21
-96.5348189999999988
0
LINE
8
LYELLOW
6
CONTINUOUS
10
39.4066660000000013
20
-96.5348189999999988
11
39.0733329999999981
21
-96.9157709999999923
0
LINE
8
LYELLOW
6
CONTINUOUS
10
39.0733329999999981
20
-96.9157709999999923
11
39.2161899999999974
21
-96.9157709999999923
0
LINE
8
LYELLOW
6
CONTINUOUS
10
39.2161899999999974
20
-96.9157709999999923
11
39.3114279999999994
21
-96.9633899999999898
0
LINE
8
LYELLOW
6
CONTINUOUS
10
39.3114279999999994
20
-96.9633899999999898
11
39.3590469999999968
21
-97.0110090000000014
0
LINE
8
LYELLOW
6
CONTINUOUS
10
39.3590469999999968
20
-97.0110090000000014
11
39.4066660000000013
21
-97.1062469999999962
0
LINE
8
LYELLOW
6
CONTINUOUS
10
39.4066660000000013
20
-97.1062469999999962
11
39.4066660000000013
21
-97.3443419999999975
0
LINE
8
LYELLOW
6
CONTINUOUS
10
39.4066660000000013
20
-97.3443419999999975
11
39.3590469999999968
21
-97.4395799999999923
0
LINE
8
LYELLOW
6
CONTINUOUS
10
39.3590469999999968
20
-97.4395799999999923
11
39.3114279999999994
21
-97.4872000000000014
0
LINE
8
LYELLOW
6
CONTINUOUS
10
39.3114279999999994
20
-97.4872000000000014
11
39.2161899999999974
21
-97.5348189999999988
0
LINE
8
LYELLOW
6
CONTINUOUS
10
39.2161899999999974
20
-97.5348189999999988
11
38.9304759999999987
21
-97.5348189999999988
0
LINE
8
LYELLOW
6
CONTINUOUS
10
38.9304759999999987
20
-97.5348189999999988
11
38.8352379999999968
21
-97.4872000000000014
0
LINE
8
LYELLOW
6
CONTINUOUS
10
38.8352379999999968
20
-97.4872000000000014
11
38.7876189999999994
21
-97.4395799999999923
0
LINE
8
LYELLOW
6
CONTINUOUS
10
108.4066660000000013
20
-63.9948189999999997
11
108.4066660000000013
21
-64.7091039999999964
0
LINE
8
LYELLOW
6
CONTINUOUS
10
108.4066660000000013
20
-64.7091039999999964
11
108.3590469999999897
21
-64.8519610000000029
0
LINE
8
LYELLOW
6
CONTINUOUS
10
108.3590469999999897
20
-64.8519610000000029
11
108.2638089999999949
21
-64.9471999999999952
0
LINE
8
LYELLOW
6
CONTINUOUS
10
108.2638089999999949
20
-64.9471999999999952
11
108.1209519999999884
21
-64.9948189999999926
0
LINE
8
LYELLOW
6
CONTINUOUS
10
108.1209519999999884
20
-64.9948189999999926
11
108.0257139999999936
21
-64.9948189999999926
0
LINE
8
LYELLOW
6
CONTINUOUS
10
109.3114279999999923
20
-64.3281520000000029
11
109.3114279999999923
21
-64.9948189999999926
0
LINE
8
LYELLOW
6
CONTINUOUS
10
109.073332999999991
20
-63.9471999999999952
11
108.8352379999999897
21
-64.661484999999999
0
LINE
8
LYELLOW
6
CONTINUOUS
10
108.8352379999999897
20
-64.661484999999999
11
109.4542849999999987
21
-64.661484999999999
0
LINE
8
LYELLOW
6
CONTINUOUS
10
67.097141999999991
20
-76.084818999999996
11
66.7638089999999949
21
-75.608627999999996
0
LINE
8
LYELLOW
6
CONTINUOUS
10
66.5257139999999936
20
-76.084818999999996
11
66.5257139999999936
21
-75.084818999999996
0
LINE
8
LYELLOW
6
CONTINUOUS
10
66.5257139999999936
20
-75.084818999999996
11
66.9066660000000013
21
-75.084818999999996
0
LINE
8
LYELLOW
6
CONTINUOUS
10
66.9066660000000013
20
-75.084818999999996
11
67.0019039999999961
21
-75.1324379999999934
0
LINE
8
LYELLOW
6
CONTINUOUS
10
67.0019039999999961
20
-75.1324379999999934
11
67.0495229999999935
21
-75.1800569999999908
0
LINE
8
LYELLOW
6
CONTINUOUS
10
67.0495229999999935
20
-75.1800569999999908
11
67.097141999999991
21
-75.2752949999999998
0
LINE
8
LYELLOW
6
CONTINUOUS
10
67.097141999999991
20
-75.2752949999999998
11
67.097141999999991
21
-75.4181519999999921
0
LINE
8
LYELLOW
6
CONTINUOUS
10
67.097141999999991
20
-75.4181519999999921
11
67.0495229999999935
21
-75.5133900000000011
0
LINE
8
LYELLOW
6
CONTINUOUS
10
67.0495229999999935
20
-75.5133900000000011
11
67.0019039999999961
21
-75.5610089999999985
0
LINE
8
LYELLOW
6
CONTINUOUS
10
67.0019039999999961
20
-75.5610089999999985
11
66.9066660000000013
21
-75.608627999999996
0
LINE
8
LYELLOW
6
CONTINUOUS
10
66.9066660000000013
20
-75.608627999999996
11
66.5257139999999936
21
-75.608627999999996
0
LINE
8
LYELLOW
6
CONTINUOUS
10
67.4780949999999962
20
-75.1800569999999908
11
67.5257139999999936
21
-75.1324379999999934
0
LINE
8
LYELLOW
6
CONTINUOUS
10
67.5257139999999936
20
-75.1324379999999934
11
67.6209520000000026
21
-75.084818999999996
0
LINE
8
LYELLOW
6
CONTINUOUS
10
67.6209520000000026
20
-75.084818999999996
11
67.8590470000000039
21
-75.084818999999996
0
LINE
8
LYELLOW
6
CONTINUOUS
10
67.8590470000000039
20
-75.084818999999996
11
67.9542849999999987
21
-75.1324379999999934
0
LINE
8
LYELLOW
6
CONTINUOUS
10
67.9542849999999987
20
-75.1324379999999934
11
68.0019039999999961
21
-75.1800569999999908
0
LINE
8
LYELLOW
6
CONTINUOUS
10
68.0019039999999961
20
-75.1800569999999908
11
68.0495229999999935
21
-75.2752949999999998
0
LINE
8
LYELLOW
6
CONTINUOUS
10
68.0495229999999935
20
-75.2752949999999998
11
68.0495229999999935
21
-75.3705329999999947
0
LINE
8
LYELLOW
6
CONTINUOUS
10
68.0495229999999935
20
-75.3705329999999947
11
68.0019039999999961
21
-75.5133900000000011
0
LINE
8
LYELLOW
6
CONTINUOUS
10
68.0019039999999961
20
-75.5133900000000011
11
67.4304759999999987
21
-76.084818999999996
0
LINE
8
LYELLOW
6
CONTINUOUS
10
67.4304759999999987
20
-76.084818999999996
11
68.0495229999999935
21
-76.084818999999996
0
LINE
8
LYELLOW
6
CONTINUOUS
10
68.3828570000000013
20
-75.084818999999996
11
69.0019039999999961
21
-75.084818999999996
0
LINE
8
LYELLOW
6
CONTINUOUS
10
69.0019039999999961
20
-75.084818999999996
11
68.668571
21
-75.4657709999999895
0
LINE
8
LYELLOW
6
CONTINUOUS
10
68.668571
20
-75.4657709999999895
11
68.8114279999999923
21
-75.4657709999999895
0
LINE
8
LYELLOW
6
CONTINUOUS
10
68.8114279999999923
20
-75.4657709999999895
11
68.9066660000000013
21
-75.5133900000000011
0
LINE
8
LYELLOW
6
CONTINUOUS
10
68.9066660000000013
20
-75.5133900000000011
11
68.9542849999999987
21
-75.5610089999999985
0
LINE
8
LYELLOW
6
CONTINUOUS
10
68.9542849999999987
20
-75.5610089999999985
11
69.0019039999999961
21
-75.6562469999999934
0
LINE
8
LYELLOW
6
CONTINUOUS
10
69.0019039999999961
20
-75.6562469999999934
11
69.0019039999999961
21
-75.8943419999999946
0
LINE
8
LYELLOW
6
CONTINUOUS
10
69.0019039999999961
20
-75.8943419999999946
11
68.9542849999999987
21
-75.9895799999999895
0
LINE
8
LYELLOW
6
CONTINUOUS
10
68.9542849999999987
20
-75.9895799999999895
11
68.9066660000000013
21
-76.0371999999999986
0
LINE
8
LYELLOW
6
CONTINUOUS
10
68.9066660000000013
20
-76.0371999999999986
11
68.8114279999999923
21
-76.084818999999996
0
LINE
8
LYELLOW
6
CONTINUOUS
10
68.8114279999999923
20
-76.084818999999996
11
68.5257139999999936
21
-76.084818999999996
0
LINE
8
LYELLOW
6
CONTINUOUS
10
68.5257139999999936
20
-76.084818999999996
11
68.4304759999999987
21
-76.0371999999999986
0
LINE
8
LYELLOW
6
CONTINUOUS
10
68.4304759999999987
20
-76.0371999999999986
11
68.3828570000000013
21
-75.9895799999999895
0
LINE
8
LYELLOW
6
CONTINUOUS
10
67.097141999999991
20
-96.084818999999996
11
66.7638089999999949
21
-95.608627999999996
0
LINE
8
LYELLOW
6
CONTINUOUS
10
66.5257139999999936
20
-96.084818999999996
11
66.5257139999999936
21
-95.084818999999996
0
LINE
8
LYELLOW
6
CONTINUOUS
10
66.5257139999999936
20
-95.084818999999996
11
66.9066660000000013
21
-95.084818999999996
0
LINE
8
LYELLOW
6
CONTINUOUS
10
66.9066660000000013
20
-95.084818999999996
11
67.0019039999999961
21
-95.1324379999999934
0
LINE
8
LYELLOW
6
CONTINUOUS
10
67.0019039999999961
20
-95.1324379999999934
11
67.0495229999999935
21
-95.1800569999999908
0
LINE
8
LYELLOW
6
CONTINUOUS
10
67.0495229999999935
20
-95.1800569999999908
11
67.097141999999991
21
-95.2752949999999998
0
LINE
8
LYELLOW
6
CONTINUOUS
10
67.097141999999991
20
-95.2752949999999998
11
67.097141999999991
21
-95.4181519999999921
0
LINE
8
LYELLOW
6
CONTINUOUS
10
67.097141999999991
20
-95.4181519999999921
11
67.0495229999999935
21
-95.5133900000000011
0
LINE
8
LYELLOW
6
CONTINUOUS
10
67.0495229999999935
20
-95.5133900000000011
11
67.0019039999999961
21
-95.5610089999999985
0
LINE
8
LYELLOW
6
CONTINUOUS
10
67.0019039999999961
20
-95.5610089999999985
11
66.9066660000000013
21
-95.608627999999996
0
LINE
8
LYELLOW
6
CONTINUOUS
10
66.9066660000000013
20
-95.608627999999996
11
66.5257139999999936
21
-95.608627999999996
0
LINE
8
LYELLOW
6
CONTINUOUS
10
67.4304759999999987
20
-95.084818999999996
11
68.0495229999999935
21
-95.084818999999996
0
LINE
8
LYELLOW
6
CONTINUOUS
10
68.0495229999999935
20
-95.084818999999996
11
67.7161899999999974
21
-95.4657709999999895
0
LINE
8
LYELLOW
6
CONTINUOUS
10
67.7161899999999974
20
-95.4657709999999895
11
67.8590470000000039
21
-95.4657709999999895
0
LINE
8
LYELLOW
6
CONTINUOUS
10
67.8590470000000039
20
-95.4657709999999895
11
67.9542849999999987
21
-95.5133900000000011
0
LINE
8
LYELLOW
6
CONTINUOUS
10
67.9542849999999987
20
-95.5133900000000011
11
68.0019039999999961
21
-95.5610089999999985
0
LINE
8
LYELLOW
6
CONTINUOUS
10
68.0019039999999961
20
-95.5610089999999985
11
68.0495229999999935
21
-95.6562469999999934
0
LINE
8
LYELLOW
6
CONTINUOUS
10
68.0495229999999935
20
-95.6562469999999934
11
68.0495229999999935
21
-95.8943419999999946
0
LINE
8
LYELLOW
6
CONTINUOUS
10
68.0495229999999935
20
-95.8943419999999946
11
68.0019039999999961
21
-95.9895799999999895
0
LINE
8
LYELLOW
6
CONTINUOUS
10
68.0019039999999961
20
-95.9895799999999895
11
67.9542849999999987
21
-96.0371999999999986
0
LINE
8
LYELLOW
6
CONTINUOUS
10
67.9542849999999987
20
-96.0371999999999986
11
67.8590470000000039
21
-96.084818999999996
0
LINE
8
LYELLOW
6
CONTINUOUS
10
67.8590470000000039
20
-96.084818999999996
11
67.573332999999991
21
-96.084818999999996
0
LINE
8
LYELLOW
6
CONTINUOUS
10
67.573332999999991
20
-96.084818999999996
11
67.4780949999999962
21
-96.0371999999999986
0
LINE
8
LYELLOW
6
CONTINUOUS
10
67.4780949999999962
20
-96.0371999999999986
11
67.4304759999999987
21
-95.9895799999999895
0
LINE
8
LYELLOW
6
CONTINUOUS
10
68.3828570000000013
20
-95.084818999999996
11
69.0019039999999961
21
-95.084818999999996
0
LINE
8
LYELLOW
6
CONTINUOUS
10
69.0019039999999961
20
-95.084818999999996
11
68.668571
21
-95.4657709999999895
0
LINE
8
LYELLOW
6
CONTINUOUS
10
68.668571
20
-95.4657709999999895
11
68.8114279999999923
21
-95.4657709999999895
0
LINE
8
LYELLOW
6
CONTINUOUS
10
68.8114279999999923
20
-95.4657709999999895
11
68.9066660000000013
21
-95.5133900000000011
0
LINE
8
LYELLOW
6
CONTINUOUS
10
68.9066660000000013
20
-95.5133900000000011
11
68.9542849999999987
21
-95.5610089999999985
0
LINE
8
LYELLOW
6
CONTINUOUS
10
68.9542849999999987
20
-95.5610089999999985
11
69.0019039999999961
21
-95.6562469999999934
0
LINE
8
LYELLOW
6
CONTINUOUS
10
69.0019039999999961
20
-95.6562469999999934
11
69.0019039999999961
21
-95.8943419999999946
0
LINE
8
LYELLOW
6
CONTINUOUS
10
69.0019039999999961
20
-95.8943419999999946
11
68.9542849999999987
21
-95.9895799999999895
0
LINE
8
LYELLOW
6
CONTINUOUS
10
68.9542849999999987
20
-95.9895799999999895
11
68.9066660000000013
21
-96.0371999999999986
0
LINE
8
LYELLOW
6
CONTINUOUS
10
68.9066660000000013
20
-96.0371999999999986
11
68.8114279999999923
21
-96.084818999999996
0
LINE
8
LYELLOW
6
CONTINUOUS
10
68.8114279999999923
20
-96.084818999999996
11
68.5257139999999936
21
-96.084818999999996
0
LINE
8
LYELLOW
6
CONTINUOUS
10
68.5257139999999936
20
-96.084818999999996
11
68.4304759999999987
21
-96.0371999999999986
0
LINE
8
LYELLOW
6
CONTINUOUS
10
68.4304759999999987
20
-96.0371999999999986
11
68.3828570000000013
21
-95.9895799999999895
0
LINE
8
LYELLOW
6
CONTINUOUS
10
80.9780949999999962
20
-53.314819
11
80.9780949999999962
21
-54.1243419999999986
0
LINE
8
LYELLOW
6
CONTINUOUS
10
80.9780949999999962
20
-54.1243419999999986
11
81.0257139999999936
21
-54.2195800000000006
0
LINE
8
LYELLOW
6
CONTINUOUS
10
81.0257139999999936
20
-54.2195800000000006
11
81.073332999999991
21
-54.2671999999999954
0
LINE
8
LYELLOW
6
CONTINUOUS
10
81.073332999999991
20
-54.2671999999999954
11
81.168571
21
-54.314819
0
LINE
8
LYELLOW
6
CONTINUOUS
10
81.168571
20
-54.314819
11
81.3590469999999897
21
-54.314819
0
LINE
8
LYELLOW
6
CONTINUOUS
10
81.3590469999999897
20
-54.314819
11
81.4542849999999987
21
-54.2671999999999954
0
LINE
8
LYELLOW
6
CONTINUOUS
10
81.4542849999999987
20
-54.2671999999999954
11
81.5019039999999961
21
-54.2195800000000006
0
LINE
8
LYELLOW
6
CONTINUOUS
10
81.5019039999999961
20
-54.2195800000000006
11
81.5495229999999935
21
-54.1243419999999986
0
LINE
8
LYELLOW
6
CONTINUOUS
10
81.5495229999999935
20
-54.1243419999999986
11
81.5495229999999935
21
-53.314819
0
LINE
8
LYELLOW
6
CONTINUOUS
10
82.5495229999999935
20
-54.314819
11
81.9780949999999962
21
-54.314819
0
LINE
8
LYELLOW
6
CONTINUOUS
10
82.2638089999999949
20
-54.314819
11
82.2638089999999949
21
-53.314819
0
LINE
8
LYELLOW
6
CONTINUOUS
10
82.2638089999999949
20
-53.314819
11
82.168571
21
-53.4576759999999993
0
LINE
8
LYELLOW
6
CONTINUOUS
10
82.168571
20
-53.4576759999999993
11
82.073332999999991
21
-53.5529139999999941
0
LINE
8
LYELLOW
6
CONTINUOUS
10
82.073332999999991
20
-53.5529139999999941
11
81.9780949999999962
21
-53.6005329999999987
0
LINE
8
LYELLOW
6
CONTINUOUS
10
38.4066660000000013
20
-56.5348189999999988
11
38.4066660000000013
21
-57.2491039999999956
0
LINE
8
LYELLOW
6
CONTINUOUS
10
38.4066660000000013
20
-57.2491039999999956
11
38.3590469999999968
21
-57.3919609999999949
0
LINE
8
LYELLOW
6
CONTINUOUS
10
38.3590469999999968
20
-57.3919609999999949
11
38.2638089999999949
21
-57.4871999999999943
0
LINE
8
LYELLOW
6
CONTINUOUS
10
38.2638089999999949
20
-57.4871999999999943
11
38.1209519999999955
21
-57.5348189999999988
0
LINE
8
LYELLOW
6
CONTINUOUS
10
38.1209519999999955
20
-57.5348189999999988
11
38.0257140000000007
21
-57.5348189999999988
0
LINE
8
LYELLOW
6
CONTINUOUS
10
39.4066660000000013
20
-57.5348189999999988
11
38.8352379999999968
21
-57.5348189999999988
0
LINE
8
LYELLOW
6
CONTINUOUS
10
39.1209519999999955
20
-57.5348189999999988
11
39.1209519999999955
21
-56.5348189999999988
0
LINE
8
LYELLOW
6
CONTINUOUS
10
39.1209519999999955
20
-56.5348189999999988
11
39.0257140000000007
21
-56.6776759999999982
0
LINE
8
LYELLOW
6
CONTINUOUS
10
39.0257140000000007
20
-56.6776759999999982
11
38.9304759999999987
21
-56.7729140000000001
0
LINE
8
LYELLOW
6
CONTINUOUS
10
38.9304759999999987
20
-56.7729140000000001
11
38.8352379999999968
21
-56.8205329999999975
0
LINE
8
LYELLOW
6
CONTINUOUS
10
93.573332999999991
20
-49.8595800000000011
11
93.5257139999999936
21
-49.907199999999996
0
LINE
8
LYELLOW
6
CONTINUOUS
10
93.5257139999999936
20
-49.907199999999996
11
93.3828570000000013
21
-49.9548190000000005
0
LINE
8
LYELLOW
6
CONTINUOUS
10
93.3828570000000013
20
-49.9548190000000005
11
93.2876189999999923
21
-49.9548190000000005
0
LINE
8
LYELLOW
6
CONTINUOUS
10
93.2876189999999923
20
-49.9548190000000005
11
93.1447620000000001
21
-49.907199999999996
0
LINE
8
LYELLOW
6
CONTINUOUS
10
93.1447620000000001
20
-49.907199999999996
11
93.049523999999991
21
-49.8119609999999966
0
LINE
8
LYELLOW
6
CONTINUOUS
10
93.049523999999991
20
-49.8119609999999966
11
93.0019049999999936
21
-49.7167229999999947
0
LINE
8
LYELLOW
6
CONTINUOUS
10
93.0019049999999936
20
-49.7167229999999947
11
92.9542859999999962
21
-49.5262469999999979
0
LINE
8
LYELLOW
6
CONTINUOUS
10
92.9542859999999962
20
-49.5262469999999979
11
92.9542859999999962
21
-49.3833899999999986
0
LINE
8
LYELLOW
6
CONTINUOUS
10
92.9542859999999962
20
-49.3833899999999986
11
93.0019049999999936
21
-49.1929139999999947
0
LINE
8
LYELLOW
6
CONTINUOUS
10
93.0019049999999936
20
-49.1929139999999947
11
93.049523999999991
21
-49.0976759999999999
0
LINE
8
LYELLOW
6
CONTINUOUS
10
93.049523999999991
20
-49.0976759999999999
11
93.1447620000000001
21
-49.0024379999999979
0
LINE
8
LYELLOW
6
CONTINUOUS
10
93.1447620000000001
20
-49.0024379999999979
11
93.2876189999999923
21
-48.9548190000000005
0
LINE
8
LYELLOW
6
CONTINUOUS
10
93.2876189999999923
20
-48.9548190000000005
11
93.3828570000000013
21
-48.9548190000000005
0
LINE
8
LYELLOW
6
CONTINUOUS
10
93.3828570000000013
20
-48.9548190000000005
11
93.5257139999999936
21
-49.0024379999999979
0
LINE
8
LYELLOW
6
CONTINUOUS
10
93.5257139999999936
20
-49.0024379999999979
11
93.573332999999991
21
-49.0500569999999954
0
LINE
8
LYELLOW
6
CONTINUOUS
10
94.5257139999999936
20
-49.9548190000000005
11
93.9542859999999962
21
-49.9548190000000005
0
LINE
8
LYELLOW
6
CONTINUOUS
10
94.2399999999999949
20
-49.9548190000000005
11
94.2399999999999949
21
-48.9548190000000005
0
LINE
8
LYELLOW
6
CONTINUOUS
10
94.2399999999999949
20
-48.9548190000000005
11
94.1447620000000001
21
-49.0976759999999999
0
LINE
8
LYELLOW
6
CONTINUOUS
10
94.1447620000000001
20
-49.0976759999999999
11
94.049523999999991
21
-49.1929139999999947
0
LINE
8
LYELLOW
6
CONTINUOUS
10
94.049523999999991
20
-49.1929139999999947
11
93.9542859999999962
21
-49.2405329999999992
0
LINE
8
LYELLOW
6
CONTINUOUS
10
67.097141999999991
20
-84.084818999999996
11
66.7638089999999949
21
-83.608627999999996
0
LINE
8
LYELLOW
6
CONTINUOUS
10
66.5257139999999936
20
-84.084818999999996
11
66.5257139999999936
21
-83.084818999999996
0
LINE
8
LYELLOW
6
CONTINUOUS
10
66.5257139999999936
20
-83.084818999999996
11
66.9066660000000013
21
-83.084818999999996
0
LINE
8
LYELLOW
6
CONTINUOUS
10
66.9066660000000013
20
-83.084818999999996
11
67.0019039999999961
21
-83.1324379999999934
0
LINE
8
LYELLOW
6
CONTINUOUS
10
67.0019039999999961
20
-83.1324379999999934
11
67.0495229999999935
21
-83.1800569999999908
0
LINE
8
LYELLOW
6
CONTINUOUS
10
67.0495229999999935
20
-83.1800569999999908
11
67.097141999999991
21
-83.2752949999999998
0
LINE
8
LYELLOW
6
CONTINUOUS
10
67.097141999999991
20
-83.2752949999999998
11
67.097141999999991
21
-83.4181519999999921
0
LINE
8
LYELLOW
6
CONTINUOUS
10
67.097141999999991
20
-83.4181519999999921
11
67.0495229999999935
21
-83.5133900000000011
0
LINE
8
LYELLOW
6
CONTINUOUS
10
67.0495229999999935
20
-83.5133900000000011
11
67.0019039999999961
21
-83.5610089999999985
0
LINE
8
LYELLOW
6
CONTINUOUS
10
67.0019039999999961
20
-83.5610089999999985
11
66.9066660000000013
21
-83.608627999999996
0
LINE
8
LYELLOW
6
CONTINUOUS
10
66.9066660000000013
20
-83.608627999999996
11
66.5257139999999936
21
-83.608627999999996
0
LINE
8
LYELLOW
6
CONTINUOUS
10
67.4304759999999987
20
-83.084818999999996
11
68.0495229999999935
21
-83.084818999999996
0
LINE
8
LYELLOW
6
CONTINUOUS
10
68.0495229999999935
20
-83.084818999999996
11
67.7161899999999974
21
-83.4657709999999895
0
LINE
8
LYELLOW
6
CONTINUOUS
10
67.7161899999999974
20
-83.4657709999999895
11
67.8590470000000039
21
-83.4657709999999895
0
LINE
8
LYELLOW
6
CONTINUOUS
10
67.8590470000000039
20
-83.4657709999999895
11
67.9542849999999987
21
-83.5133900000000011
0
LINE
8
LYELLOW
6
CONTINUOUS
10
67.9542849999999987
20
-83.5133900000000011
11
68.0019039999999961
21
-83.5610089999999985
0
LINE
8
LYELLOW
6
CONTINUOUS
10
68.0019039999999961
20
-83.5610089999999985
11
68.0495229999999935
21
-83.6562469999999934
0
LINE
8
LYELLOW
6
CONTINUOUS
10
68.0495229999999935
20
-83.6562469999999934
11
68.0495229999999935
21
-83.8943419999999946
0
LINE
8
LYELLOW
6
CONTINUOUS
10
68.0495229999999935
20
-83.8943419999999946
11
68.0019039999999961
21
-83.9895799999999895
0
LINE
8
LYELLOW
6
CONTINUOUS
10
68.0019039999999961
20
-83.9895799999999895
11
67.9542849999999987
21
-84.0371999999999986
0
LINE
8
LYELLOW
6
CONTINUOUS
10
67.9542849999999987
20
-84.0371999999999986
11
67.8590470000000039
21
-84.084818999999996
0
LINE
8
LYELLOW
6
CONTINUOUS
10
67.8590470000000039
20
-84.084818999999996
11
67.573332999999991
21
-84.084818999999996
0
LINE
8
LYELLOW
6
CONTINUOUS
10
67.573332999999991
20
-84.084818999999996
11
67.4780949999999962
21
-84.0371999999999986
0
LINE
8
LYELLOW
6
CONTINUOUS
10
67.4780949999999962
20
-84.0371999999999986
11
67.4304759999999987
21
-83.9895799999999895
0
LINE
8
LYELLOW
6
CONTINUOUS
10
68.4304759999999987
20
-83.1800569999999908
11
68.4780949999999962
21
-83.1324379999999934
0
LINE
8
LYELLOW
6
CONTINUOUS
10
68.4780949999999962
20
-83.1324379999999934
11
68.573332999999991
21
-83.084818999999996
0
LINE
8
LYELLOW
6
CONTINUOUS
10
68.573332999999991
20
-83.084818999999996
11
68.8114279999999923
21
-83.084818999999996
0
LINE
8
LYELLOW
6
CONTINUOUS
10
68.8114279999999923
20
-83.084818999999996
11
68.9066660000000013
21
-83.1324379999999934
0
LINE
8
LYELLOW
6
CONTINUOUS
10
68.9066660000000013
20
-83.1324379999999934
11
68.9542849999999987
21
-83.1800569999999908
0
LINE
8
LYELLOW
6
CONTINUOUS
10
68.9542849999999987
20
-83.1800569999999908
11
69.0019039999999961
21
-83.2752949999999998
0
LINE
8
LYELLOW
6
CONTINUOUS
10
69.0019039999999961
20
-83.2752949999999998
11
69.0019039999999961
21
-83.3705329999999947
0
LINE
8
LYELLOW
6
CONTINUOUS
10
69.0019039999999961
20
-83.3705329999999947
11
68.9542849999999987
21
-83.5133900000000011
0
LINE
8
LYELLOW
6
CONTINUOUS
10
68.9542849999999987
20
-83.5133900000000011
11
68.3828570000000013
21
-84.084818999999996
0
LINE
8
LYELLOW
6
CONTINUOUS
10
68.3828570000000013
20
-84.084818999999996
11
69.0019039999999961
21
-84.084818999999996
0
LINE
8
LYELLOW
6
CONTINUOUS
10
67.097141999999991
20
-64.084818999999996
11
66.7638089999999949
21
-63.608627999999996
0
LINE
8
LYELLOW
6
CONTINUOUS
10
66.5257139999999936
20
-64.084818999999996
11
66.5257139999999936
21
-63.084818999999996
0
LINE
8
LYELLOW
6
CONTINUOUS
10
66.5257139999999936
20
-63.084818999999996
11
66.9066660000000013
21
-63.084818999999996
0
LINE
8
LYELLOW
6
CONTINUOUS
10
66.9066660000000013
20
-63.084818999999996
11
67.0019039999999961
21
-63.1324380000000005
0
LINE
8
LYELLOW
6
CONTINUOUS
10
67.0019039999999961
20
-63.1324380000000005
11
67.0495229999999935
21
-63.1800569999999979
0
LINE
8
LYELLOW
6
CONTINUOUS
10
67.0495229999999935
20
-63.1800569999999979
11
67.097141999999991
21
-63.2752949999999998
0
LINE
8
LYELLOW
6
CONTINUOUS
10
67.097141999999991
20
-63.2752949999999998
11
67.097141999999991
21
-63.4181519999999992
0
LINE
8
LYELLOW
6
CONTINUOUS
10
67.097141999999991
20
-63.4181519999999992
11
67.0495229999999935
21
-63.513389999999994
0
LINE
8
LYELLOW
6
CONTINUOUS
10
67.0495229999999935
20
-63.513389999999994
11
67.0019039999999961
21
-63.5610089999999985
0
LINE
8
LYELLOW
6
CONTINUOUS
10
67.0019039999999961
20
-63.5610089999999985
11
66.9066660000000013
21
-63.608627999999996
0
LINE
8
LYELLOW
6
CONTINUOUS
10
66.9066660000000013
20
-63.608627999999996
11
66.5257139999999936
21
-63.608627999999996
0
LINE
8
LYELLOW
6
CONTINUOUS
10
67.4780949999999962
20
-63.1800569999999979
11
67.5257139999999936
21
-63.1324380000000005
0
LINE
8
LYELLOW
6
CONTINUOUS
10
67.5257139999999936
20
-63.1324380000000005
11
67.6209520000000026
21
-63.084818999999996
0
LINE
8
LYELLOW
6
CONTINUOUS
10
67.6209520000000026
20
-63.084818999999996
11
67.8590470000000039
21
-63.084818999999996
0
LINE
8
LYELLOW
6
CONTINUOUS
10
67.8590470000000039
20
-63.084818999999996
11
67.9542849999999987
21
-63.1324380000000005
0
LINE
8
LYELLOW
6
CONTINUOUS
10
67.9542849999999987
20
-63.1324380000000005
11
68.0019039999999961
21
-63.1800569999999979
0
LINE
8
LYELLOW
6
CONTINUOUS
10
68.0019039999999961
20
-63.1800569999999979
11
68.0495229999999935
21
-63.2752949999999998
0
LINE
8
LYELLOW
6
CONTINUOUS
10
68.0495229999999935
20
-63.2752949999999998
11
68.0495229999999935
21
-63.3705329999999947
0
LINE
8
LYELLOW
6
CONTINUOUS
10
68.0495229999999935
20
-63.3705329999999947
11
68.0019039999999961
21
-63.513389999999994
0
LINE
8
LYELLOW
6
CONTINUOUS
10
68.0019039999999961
20
-63.513389999999994
11
67.4304759999999987
21
-64.084818999999996
0
LINE
8
LYELLOW
6
CONTINUOUS
10
67.4304759999999987
20
-64.084818999999996
11
68.0495229999999935
21
-64.084818999999996
0
LINE
8
LYELLOW
6
CONTINUOUS
10
68.4304759999999987
20
-63.1800569999999979
11
68.4780949999999962
21
-63.1324380000000005
0
LINE
8
LYELLOW
6
CONTINUOUS
10
68.4780949999999962
20
-63.1324380000000005
11
68.573332999999991
21
-63.084818999999996
0
LINE
8
LYELLOW
6
CONTINUOUS
10
68.573332999999991
20
-63.084818999999996
11
68.8114279999999923
21
-63.084818999999996
0
LINE
8
LYELLOW
6
CONTINUOUS
10
68.8114279999999923
20
-63.084818999999996
11
68.9066660000000013
21
-63.1324380000000005
0
LINE
8
LYELLOW
6
CONTINUOUS
10
68.9066660000000013
20
-63.1324380000000005
11
68.9542849999999987
21
-63.1800569999999979
0
LINE
8
LYELLOW
6
CONTINUOUS
10
68.9542849999999987
20
-63.1800569999999979
11
69.0019039999999961
21
-63.2752949999999998
0
LINE
8
LYELLOW
6
CONTINUOUS
10
69.0019039999999961
20
-63.2752949999999998
11
69.0019039999999961
21
-63.3705329999999947
0
LINE
8
LYELLOW
6
CONTINUOUS
10
69.0019039999999961
20
-63.3705329999999947
11
68.9542849999999987
21
-63.513389999999994
0
LINE
8
LYELLOW
6
CONTINUOUS
10
68.9542849999999987
20
-63.513389999999994
11
68.3828570000000013
21
-64.084818999999996
0
LINE
8
LYELLOW
6
CONTINUOUS
10
68.3828570000000013
20
-64.084818999999996
11
69.0019039999999961
21
-64.084818999999996
0
LINE
8
LYELLOW
6
CONTINUOUS
10
53.0971419999999981
20
-90.084818999999996
11
52.7638089999999949
21
-89.608627999999996
0
LINE
8
LYELLOW
6
CONTINUOUS
10
52.5257140000000007
20
-90.084818999999996
11
52.5257140000000007
21
-89.084818999999996
0
LINE
8
LYELLOW
6
CONTINUOUS
10
52.5257140000000007
20
-89.084818999999996
11
52.9066659999999942
21
-89.084818999999996
0
LINE
8
LYELLOW
6
CONTINUOUS
10
52.9066659999999942
20
-89.084818999999996
11
53.0019039999999961
21
-89.1324379999999934
0
LINE
8
LYELLOW
6
CONTINUOUS
10
53.0019039999999961
20
-89.1324379999999934
11
53.0495230000000006
21
-89.1800569999999908
0
LINE
8
LYELLOW
6
CONTINUOUS
10
53.0495230000000006
20
-89.1800569999999908
11
53.0971419999999981
21
-89.2752949999999998
0
LINE
8
LYELLOW
6
CONTINUOUS
10
53.0971419999999981
20
-89.2752949999999998
11
53.0971419999999981
21
-89.4181519999999921
0
LINE
8
LYELLOW
6
CONTINUOUS
10
53.0971419999999981
20
-89.4181519999999921
11
53.0495230000000006
21
-89.5133900000000011
0
LINE
8
LYELLOW
6
CONTINUOUS
10
53.0495230000000006
20
-89.5133900000000011
11
53.0019039999999961
21
-89.5610089999999985
0
LINE
8
LYELLOW
6
CONTINUOUS
10
53.0019039999999961
20
-89.5610089999999985
11
52.9066659999999942
21
-89.608627999999996
0
LINE
8
LYELLOW
6
CONTINUOUS
10
52.9066659999999942
20
-89.608627999999996
11
52.5257140000000007
21
-89.608627999999996
0
LINE
8
LYELLOW
6
CONTINUOUS
10
53.4304759999999987
20
-89.084818999999996
11
54.0495230000000006
21
-89.084818999999996
0
LINE
8
LYELLOW
6
CONTINUOUS
10
54.0495230000000006
20
-89.084818999999996
11
53.7161899999999974
21
-89.4657709999999895
0
LINE
8
LYELLOW
6
CONTINUOUS
10
53.7161899999999974
20
-89.4657709999999895
11
53.8590469999999968
21
-89.4657709999999895
0
LINE
8
LYELLOW
6
CONTINUOUS
10
53.8590469999999968
20
-89.4657709999999895
11
53.9542849999999987
21
-89.5133900000000011
0
LINE
8
LYELLOW
6
CONTINUOUS
10
53.9542849999999987
20
-89.5133900000000011
11
54.0019039999999961
21
-89.5610089999999985
0
LINE
8
LYELLOW
6
CONTINUOUS
10
54.0019039999999961
20
-89.5610089999999985
11
54.0495230000000006
21
-89.6562469999999934
0
LINE
8
LYELLOW
6
CONTINUOUS
10
54.0495230000000006
20
-89.6562469999999934
11
54.0495230000000006
21
-89.8943419999999946
0
LINE
8
LYELLOW
6
CONTINUOUS
10
54.0495230000000006
20
-89.8943419999999946
11
54.0019039999999961
21
-89.9895799999999895
0
LINE
8
LYELLOW
6
CONTINUOUS
10
54.0019039999999961
20
-89.9895799999999895
11
53.9542849999999987
21
-90.0371999999999986
0
LINE
8
LYELLOW
6
CONTINUOUS
10
53.9542849999999987
20
-90.0371999999999986
11
53.8590469999999968
21
-90.084818999999996
0
LINE
8
LYELLOW
6
CONTINUOUS
10
53.8590469999999968
20
-90.084818999999996
11
53.5733329999999981
21
-90.084818999999996
0
LINE
8
LYELLOW
6
CONTINUOUS
10
53.5733329999999981
20
-90.084818999999996
11
53.4780949999999962
21
-90.0371999999999986
0
LINE
8
LYELLOW
6
CONTINUOUS
10
53.4780949999999962
20
-90.0371999999999986
11
53.4304759999999987
21
-89.9895799999999895
0
LINE
8
LYELLOW
6
CONTINUOUS
10
55.0019039999999961
20
-90.084818999999996
11
54.4304759999999987
21
-90.084818999999996
0
LINE
8
LYELLOW
6
CONTINUOUS
10
54.7161899999999974
20
-90.084818999999996
11
54.7161899999999974
21
-89.084818999999996
0
LINE
8
LYELLOW
6
CONTINUOUS
10
54.7161899999999974
20
-89.084818999999996
11
54.6209519999999955
21
-89.2276760000000024
0
LINE
8
LYELLOW
6
CONTINUOUS
10
54.6209519999999955
20
-89.2276760000000024
11
54.5257140000000007
21
-89.3229139999999973
0
LINE
8
LYELLOW
6
CONTINUOUS
10
54.5257140000000007
20
-89.3229139999999973
11
54.4304759999999987
21
-89.3705329999999947
0
LINE
8
LYELLOW
6
CONTINUOUS
10
53.0971419999999981
20
-70.084818999999996
11
52.7638089999999949
21
-69.608627999999996
0
LINE
8
LYELLOW
6
CONTINUOUS
10
52.5257140000000007
20
-70.084818999999996
11
52.5257140000000007
21
-69.084818999999996
0
LINE
8
LYELLOW
6
CONTINUOUS
10
52.5257140000000007
20
-69.084818999999996
11
52.9066659999999942
21
-69.084818999999996
0
LINE
8
LYELLOW
6
CONTINUOUS
10
52.9066659999999942
20
-69.084818999999996
11
53.0019039999999961
21
-69.1324379999999934
0
LINE
8
LYELLOW
6
CONTINUOUS
10
53.0019039999999961
20
-69.1324379999999934
11
53.0495230000000006
21
-69.1800569999999908
0
LINE
8
LYELLOW
6
CONTINUOUS
10
53.0495230000000006
20
-69.1800569999999908
11
53.0971419999999981
21
-69.2752949999999998
0
LINE
8
LYELLOW
6
CONTINUOUS
10
53.0971419999999981
20
-69.2752949999999998
11
53.0971419999999981
21
-69.4181519999999921
0
LINE
8
LYELLOW
6
CONTINUOUS
10
53.0971419999999981
20
-69.4181519999999921
11
53.0495230000000006
21
-69.5133900000000011
0
LINE
8
LYELLOW
6
CONTINUOUS
10
53.0495230000000006
20
-69.5133900000000011
11
53.0019039999999961
21
-69.5610089999999985
0
LINE
8
LYELLOW
6
CONTINUOUS
10
53.0019039999999961
20
-69.5610089999999985
11
52.9066659999999942
21
-69.608627999999996
0
LINE
8
LYELLOW
6
CONTINUOUS
10
52.9066659999999942
20
-69.608627999999996
11
52.5257140000000007
21
-69.608627999999996
0
LINE
8
LYELLOW
6
CONTINUOUS
10
53.4780949999999962
20
-69.1800569999999908
11
53.5257140000000007
21
-69.1324379999999934
0
LINE
8
LYELLOW
6
CONTINUOUS
10
53.5257140000000007
20
-69.1324379999999934
11
53.6209519999999955
21
-69.084818999999996
0
LINE
8
LYELLOW
6
CONTINUOUS
10
53.6209519999999955
20
-69.084818999999996
11
53.8590469999999968
21
-69.084818999999996
0
LINE
8
LYELLOW
6
CONTINUOUS
10
53.8590469999999968
20
-69.084818999999996
11
53.9542849999999987
21
-69.1324379999999934
0
LINE
8
LYELLOW
6
CONTINUOUS
10
53.9542849999999987
20
-69.1324379999999934
11
54.0019039999999961
21
-69.1800569999999908
0
LINE
8
LYELLOW
6
CONTINUOUS
10
54.0019039999999961
20
-69.1800569999999908
11
54.0495230000000006
21
-69.2752949999999998
0
LINE
8
LYELLOW
6
CONTINUOUS
10
54.0495230000000006
20
-69.2752949999999998
11
54.0495230000000006
21
-69.3705329999999947
0
LINE
8
LYELLOW
6
CONTINUOUS
10
54.0495230000000006
20
-69.3705329999999947
11
54.0019039999999961
21
-69.5133900000000011
0
LINE
8
LYELLOW
6
CONTINUOUS
10
54.0019039999999961
20
-69.5133900000000011
11
53.4304759999999987
21
-70.084818999999996
0
LINE
8
LYELLOW
6
CONTINUOUS
10
53.4304759999999987
20
-70.084818999999996
11
54.0495230000000006
21
-70.084818999999996
0
LINE
8
LYELLOW
6
CONTINUOUS
10
55.0019039999999961
20
-70.084818999999996
11
54.4304759999999987
21
-70.084818999999996
0
LINE
8
LYELLOW
6
CONTINUOUS
10
54.7161899999999974
20
-70.084818999999996
11
54.7161899999999974
21
-69.084818999999996
0
LINE
8
LYELLOW
6
CONTINUOUS
10
54.7161899999999974
20
-69.084818999999996
11
54.6209519999999955
21
-69.2276760000000024
0
LINE
8
LYELLOW
6
CONTINUOUS
10
54.6209519999999955
20
-69.2276760000000024
11
54.5257140000000007
21
-69.3229139999999973
0
LINE
8
LYELLOW
6
CONTINUOUS
10
54.5257140000000007
20
-69.3229139999999973
11
54.4304759999999987
21
-69.3705329999999947
0
LINE
8
LYELLOW
6
CONTINUOUS
10
80.9780949999999962
20
-77.314819
11
80.9780949999999962
21
-78.1243419999999986
0
LINE
8
LYELLOW
6
CONTINUOUS
10
80.9780949999999962
20
-78.1243419999999986
11
81.0257139999999936
21
-78.2195799999999934
0
LINE
8
LYELLOW
6
CONTINUOUS
10
81.0257139999999936
20
-78.2195799999999934
11
81.073332999999991
21
-78.2672000000000025
0
LINE
8
LYELLOW
6
CONTINUOUS
10
81.073332999999991
20
-78.2672000000000025
11
81.168571
21
-78.314819
0
LINE
8
LYELLOW
6
CONTINUOUS
10
81.168571
20
-78.314819
11
81.3590469999999897
21
-78.314819
0
LINE
8
LYELLOW
6
CONTINUOUS
10
81.3590469999999897
20
-78.314819
11
81.4542849999999987
21
-78.2672000000000025
0
LINE
8
LYELLOW
6
CONTINUOUS
10
81.4542849999999987
20
-78.2672000000000025
11
81.5019039999999961
21
-78.2195799999999934
0
LINE
8
LYELLOW
6
CONTINUOUS
10
81.5019039999999961
20
-78.2195799999999934
11
81.5495229999999935
21
-78.1243419999999986
0
LINE
8
LYELLOW
6
CONTINUOUS
10
81.5495229999999935
20
-78.1243419999999986
11
81.5495229999999935
21
-77.314819
0
LINE
8
LYELLOW
6
CONTINUOUS
10
81.9780949999999962
20
-77.4100569999999948
11
82.0257139999999936
21
-77.3624379999999974
0
LINE
8
LYELLOW
6
CONTINUOUS
10
82.0257139999999936
20
-77.3624379999999974
11
82.1209520000000026
21
-77.314819
0
LINE
8
LYELLOW
6
CONTINUOUS
10
82.1209520000000026
20
-77.314819
11
82.3590469999999897
21
-77.314819
0
LINE
8
LYELLOW
6
CONTINUOUS
10
82.3590469999999897
20
-77.314819
11
82.4542849999999987
21
-77.3624379999999974
0
LINE
8
LYELLOW
6
CONTINUOUS
10
82.4542849999999987
20
-77.3624379999999974
11
82.5019039999999961
21
-77.4100569999999948
0
LINE
8
LYELLOW
6
CONTINUOUS
10
82.5019039999999961
20
-77.4100569999999948
11
82.5495229999999935
21
-77.5052949999999896
0
LINE
8
LYELLOW
6
CONTINUOUS
10
82.5495229999999935
20
-77.5052949999999896
11
82.5495229999999935
21
-77.6005329999999987
0
LINE
8
LYELLOW
6
CONTINUOUS
10
82.5495229999999935
20
-77.6005329999999987
11
82.5019039999999961
21
-77.7433899999999909
0
LINE
8
LYELLOW
6
CONTINUOUS
10
82.5019039999999961
20
-77.7433899999999909
11
81.9304759999999987
21
-78.314819
0
LINE
8
LYELLOW
6
CONTINUOUS
10
81.9304759999999987
20
-78.314819
11
82.5495229999999935
21
-78.314819
0
LINE
8
LYELLOW
6
CONTINUOUS
10
67.097141999999991
20
-44.084818999999996
11
66.7638089999999949
21
-43.608627999999996
0
LINE
8
LYELLOW
6
CONTINUOUS
10
66.5257139999999936
20
-44.084818999999996
11
66.5257139999999936
21
-43.084818999999996
0
LINE
8
LYELLOW
6
CONTINUOUS
10
66.5257139999999936
20
-43.084818999999996
11
66.9066660000000013
21
-43.084818999999996
0
LINE
8
LYELLOW
6
CONTINUOUS
10
66.9066660000000013
20
-43.084818999999996
11
67.0019039999999961
21
-43.1324380000000005
0
LINE
8
LYELLOW
6
CONTINUOUS
10
67.0019039999999961
20
-43.1324380000000005
11
67.0495229999999935
21
-43.1800569999999979
0
LINE
8
LYELLOW
6
CONTINUOUS
10
67.0495229999999935
20
-43.1800569999999979
11
67.097141999999991
21
-43.2752949999999998
0
LINE
8
LYELLOW
6
CONTINUOUS
10
67.097141999999991
20
-43.2752949999999998
11
67.097141999999991
21
-43.4181519999999992
0
LINE
8
LYELLOW
6
CONTINUOUS
10
67.097141999999991
20
-43.4181519999999992
11
67.0495229999999935
21
-43.5133900000000011
0
LINE
8
LYELLOW
6
CONTINUOUS
10
67.0495229999999935
20
-43.5133900000000011
11
67.0019039999999961
21
-43.5610089999999985
0
LINE
8
LYELLOW
6
CONTINUOUS
10
67.0019039999999961
20
-43.5610089999999985
11
66.9066660000000013
21
-43.608627999999996
0
LINE
8
LYELLOW
6
CONTINUOUS
10
66.9066660000000013
20
-43.608627999999996
11
66.5257139999999936
21
-43.608627999999996
0
LINE
8
LYELLOW
6
CONTINUOUS
10
68.0495229999999935
20
-44.084818999999996
11
67.4780949999999962
21
-44.084818999999996
0
LINE
8
LYELLOW
6
CONTINUOUS
10
67.7638089999999949
20
-44.084818999999996
11
67.7638089999999949
21
-43.084818999999996
0
LINE
8
LYELLOW
6
CONTINUOUS
10
67.7638089999999949
20
-43.084818999999996
11
67.668571
21
-43.2276759999999953
0
LINE
8
LYELLOW
6
CONTINUOUS
10
67.668571
20
-43.2276759999999953
11
67.573332999999991
21
-43.3229139999999973
0
LINE
8
LYELLOW
6
CONTINUOUS
10
67.573332999999991
20
-43.3229139999999973
11
67.4780949999999962
21
-43.3705329999999947
0
LINE
8
LYELLOW
6
CONTINUOUS
10
68.4304759999999987
20
-43.1800569999999979
11
68.4780949999999962
21
-43.1324380000000005
0
LINE
8
LYELLOW
6
CONTINUOUS
10
68.4780949999999962
20
-43.1324380000000005
11
68.573332999999991
21
-43.084818999999996
0
LINE
8
LYELLOW
6
CONTINUOUS
10
68.573332999999991
20
-43.084818999999996
11
68.8114279999999923
21
-43.084818999999996
0
LINE
8
LYELLOW
6
CONTINUOUS
10
68.8114279999999923
20
-43.084818999999996
11
68.9066660000000013
21
-43.1324380000000005
0
LINE
8
LYELLOW
6
CONTINUOUS
10
68.9066660000000013
20
-43.1324380000000005
11
68.9542849999999987
21
-43.1800569999999979
0
LINE
8
LYELLOW
6
CONTINUOUS
10
68.9542849999999987
20
-43.1800569999999979
11
69.0019039999999961
21
-43.2752949999999998
0
LINE
8
LYELLOW
6
CONTINUOUS
10
69.0019039999999961
20
-43.2752949999999998
11
69.0019039999999961
21
-43.3705329999999947
0
LINE
8
LYELLOW
6
CONTINUOUS
10
69.0019039999999961
20
-43.3705329999999947
11
68.9542849999999987
21
-43.5133900000000011
0
LINE
8
LYELLOW
6
CONTINUOUS
10
68.9542849999999987
20
-43.5133900000000011
11
68.3828570000000013
21
-44.084818999999996
0
LINE
8
LYELLOW
6
CONTINUOUS
10
68.3828570000000013
20
-44.084818999999996
11
69.0019039999999961
21
-44.084818999999996
0
LINE
8
LYELLOW
6
CONTINUOUS
10
93.573332999999991
20
-73.859579999999994
11
93.5257139999999936
21
-73.9072000000000031
0
LINE
8
LYELLOW
6
CONTINUOUS
10
93.5257139999999936
20
-73.9072000000000031
11
93.3828570000000013
21
-73.9548190000000005
0
LINE
8
LYELLOW
6
CONTINUOUS
10
93.3828570000000013
20
-73.9548190000000005
11
93.2876189999999923
21
-73.9548190000000005
0
LINE
8
LYELLOW
6
CONTINUOUS
10
93.2876189999999923
20
-73.9548190000000005
11
93.1447620000000001
21
-73.9072000000000031
0
LINE
8
LYELLOW
6
CONTINUOUS
10
93.1447620000000001
20
-73.9072000000000031
11
93.049523999999991
21
-73.8119609999999966
0
LINE
8
LYELLOW
6
CONTINUOUS
10
93.049523999999991
20
-73.8119609999999966
11
93.0019049999999936
21
-73.7167230000000018
0
LINE
8
LYELLOW
6
CONTINUOUS
10
93.0019049999999936
20
-73.7167230000000018
11
92.9542859999999962
21
-73.5262469999999979
0
LINE
8
LYELLOW
6
CONTINUOUS
10
92.9542859999999962
20
-73.5262469999999979
11
92.9542859999999962
21
-73.3833899999999915
0
LINE
8
LYELLOW
6
CONTINUOUS
10
92.9542859999999962
20
-73.3833899999999915
11
93.0019049999999936
21
-73.1929140000000018
0
LINE
8
LYELLOW
6
CONTINUOUS
10
93.0019049999999936
20
-73.1929140000000018
11
93.049523999999991
21
-73.0976759999999928
0
LINE
8
LYELLOW
6
CONTINUOUS
10
93.049523999999991
20
-73.0976759999999928
11
93.1447620000000001
21
-73.0024379999999979
0
LINE
8
LYELLOW
6
CONTINUOUS
10
93.1447620000000001
20
-73.0024379999999979
11
93.2876189999999923
21
-72.9548190000000005
0
LINE
8
LYELLOW
6
CONTINUOUS
10
93.2876189999999923
20
-72.9548190000000005
11
93.3828570000000013
21
-72.9548190000000005
0
LINE
8
LYELLOW
6
CONTINUOUS
10
93.3828570000000013
20
-72.9548190000000005
11
93.5257139999999936
21
-73.0024379999999979
0
LINE
8
LYELLOW
6
CONTINUOUS
10
93.5257139999999936
20
-73.0024379999999979
11
93.573332999999991
21
-73.0500569999999954
0
LINE
8
LYELLOW
6
CONTINUOUS
10
93.9542859999999962
20
-73.0500569999999954
11
94.0019049999999936
21
-73.0024379999999979
0
LINE
8
LYELLOW
6
CONTINUOUS
10
94.0019049999999936
20
-73.0024379999999979
11
94.0971430000000026
21
-72.9548190000000005
0
LINE
8
LYELLOW
6
CONTINUOUS
10
94.0971430000000026
20
-72.9548190000000005
11
94.3352379999999897
21
-72.9548190000000005
0
LINE
8
LYELLOW
6
CONTINUOUS
10
94.3352379999999897
20
-72.9548190000000005
11
94.4304759999999987
21
-73.0024379999999979
0
LINE
8
LYELLOW
6
CONTINUOUS
10
94.4304759999999987
20
-73.0024379999999979
11
94.4780949999999962
21
-73.0500569999999954
0
LINE
8
LYELLOW
6
CONTINUOUS
10
94.4780949999999962
20
-73.0500569999999954
11
94.5257139999999936
21
-73.1452949999999902
0
LINE
8
LYELLOW
6
CONTINUOUS
10
94.5257139999999936
20
-73.1452949999999902
11
94.5257139999999936
21
-73.2405329999999992
0
LINE
8
LYELLOW
6
CONTINUOUS
10
94.5257139999999936
20
-73.2405329999999992
11
94.4780949999999962
21
-73.3833899999999915
0
LINE
8
LYELLOW
6
CONTINUOUS
10
94.4780949999999962
20
-73.3833899999999915
11
93.9066669999999988
21
-73.9548190000000005
0
LINE
8
LYELLOW
6
CONTINUOUS
10
93.9066669999999988
20
-73.9548190000000005
11
94.5257139999999936
21
-73.9548190000000005
0
LINE
8
LYELLOW
6
CONTINUOUS
10
64.4699999999999989
20
-56.6299999999999955
11
71.0099999999999909
21
-56.6299999999999955
0
LINE
8
LYELLOW
6
CONTINUOUS
10
64.4699999999999989
20
-56.9600000000000009
11
64.4699999999999989
21
-56.6299999999999955
0
LINE
8
LYELLOW
6
CONTINUOUS
10
64.4699999999999989
20
-59.0399999999999991
11
64.4699999999999989
21
-59.3699999999999974
0
LINE
8
LYELLOW
6
CONTINUOUS
10
64.4699999999999989
20
-59.3699999999999974
11
71.0099999999999909
21
-59.3699999999999974
0
LINE
8
LYELLOW
6
CONTINUOUS
10
71.0099999999999909
20
-56.6299999999999955
11
71.0099999999999909
21
-56.9600000000000009
0
LINE
8
LYELLOW
6
CONTINUOUS
10
71.0099999999999909
20
-59.3699999999999974
11
71.0099999999999909
21
-59.0399999999999991
0
LINE
8
LYELLOW
6
CONTINUOUS
10
50.4699999999999989
20
-50.6299999999999955
11
57.009999999999998
21
-50.6299999999999955
0
LINE
8
LYELLOW
6
CONTINUOUS
10
50.4699999999999989
20
-50.9600000000000009
11
50.4699999999999989
21
-50.6299999999999955
0
LINE
8
LYELLOW
6
CONTINUOUS
10
50.4699999999999989
20
-53.0399999999999991
11
50.4699999999999989
21
-53.3699999999999974
0
LINE
8
LYELLOW
6
CONTINUOUS
10
50.4699999999999989
20
-53.3699999999999974
11
57.009999999999998
21
-53.3699999999999974
0
LINE
8
LYELLOW
6
CONTINUOUS
10
57.009999999999998
20
-50.6299999999999955
11
57.009999999999998
21
-50.9600000000000009
0
LINE
8
LYELLOW
6
CONTINUOUS
10
57.009999999999998
20
-53.3699999999999974
11
57.009999999999998
21
-53.0399999999999991
0
LINE
8
LYELLOW
6
CONTINUOUS
10
33.6599999999999966
20
-68.1899999999999977
11
33.6599999999999966
21
-75.8100000000000023
0
LINE
8
LYELLOW
6
CONTINUOUS
10
33.6599999999999966
20
-69.4599999999999937
11
43.8200000000000003
21
-69.4599999999999937
0
LINE
8
LYELLOW
6
CONTINUOUS
10
33.6599999999999966
20
-75.8100000000000023
11
43.8200000000000003
21
-75.8100000000000023
0
LINE
8
LYELLOW
6
CONTINUOUS
10
43.8200000000000003
20
-68.1899999999999977
11
33.6599999999999966
21
-68.1899999999999977
0
LINE
8
LYELLOW
6
CONTINUOUS
10
43.8200000000000003
20
-75.8100000000000023
11
43.8200000000000003
21
-68.1899999999999977
0
LINE
8
LYELLOW
6
CONTINUOUS
10
33.6599999999999966
20
-88.1899999999999977
11
33.6599999999999966
21
-95.8100000000000023
0
LINE
8
LYELLOW
6
CONTINUOUS
10
33.6599999999999966
20
-89.4599999999999937
11
43.8200000000000003
21
-89.4599999999999937
0
LINE
8
LYELLOW
6
CONTINUOUS
10
33.6599999999999966
20
-95.8100000000000023
11
43.8200000000000003
21
-95.8100000000000023
0
LINE
8
LYELLOW
6
CONTINUOUS
10
43.8200000000000003
20
-88.1899999999999977
11
33.6599999999999966
21
-88.1899999999999977
0
LINE
8
LYELLOW
6
CONTINUOUS
10
43.8200000000000003
20
-95.8100000000000023
11
43.8200000000000003
21
-88.1899999999999977
0
LINE
8
LYELLOW
6
CONTINUOUS
10
107.3599999999999994
20
-65.539999999999992
11
108.7399999999999949
21
-65.539999999999992
0
LINE
8
LYELLOW
6
CONTINUOUS
10
107.3599999999999994
20
-66.9200000000000017
11
107.3599999999999994
21
-65.539999999999992
0
LINE
8
LYELLOW
6
CONTINUOUS
10
107.3599999999999994
20
-68.1899999999999977
11
107.3599999999999994
21
-78.4599999999999937
0
LINE
8
LYELLOW
6
CONTINUOUS
10
107.3599999999999994
20
-68.1899999999999977
11
110.1199999999999903
21
-68.1899999999999977
0
LINE
8
LYELLOW
6
CONTINUOUS
10
107.3599999999999994
20
-78.4599999999999937
11
110.1199999999999903
21
-78.4599999999999937
0
LINE
8
LYELLOW
6
CONTINUOUS
10
110.1199999999999903
20
-68.1899999999999977
11
110.1199999999999903
21
-78.4599999999999937
0
LINE
8
LYELLOW
6
CONTINUOUS
10
64.4699999999999989
20
-76.6299999999999955
11
71.0099999999999909
21
-76.6299999999999955
0
LINE
8
LYELLOW
6
CONTINUOUS
10
64.4699999999999989
20
-76.9599999999999937
11
64.4699999999999989
21
-76.6299999999999955
0
LINE
8
LYELLOW
6
CONTINUOUS
10
64.4699999999999989
20
-79.039999999999992
11
64.4699999999999989
21
-79.3699999999999903
0
LINE
8
LYELLOW
6
CONTINUOUS
10
64.4699999999999989
20
-79.3699999999999903
11
71.0099999999999909
21
-79.3699999999999903
0
LINE
8
LYELLOW
6
CONTINUOUS
10
71.0099999999999909
20
-76.6299999999999955
11
71.0099999999999909
21
-76.9599999999999937
0
LINE
8
LYELLOW
6
CONTINUOUS
10
71.0099999999999909
20
-79.3699999999999903
11
71.0099999999999909
21
-79.039999999999992
0
LINE
8
LYELLOW
6
CONTINUOUS
10
64.4699999999999989
20
-96.6299999999999955
11
71.0099999999999909
21
-96.6299999999999955
0
LINE
8
LYELLOW
6
CONTINUOUS
10
64.4699999999999989
20
-96.9599999999999937
11
64.4699999999999989
21
-96.6299999999999955
0
LINE
8
LYELLOW
6
CONTINUOUS
10
64.4699999999999989
20
-99.039999999999992
11
64.4699999999999989
21
-99.3699999999999903
0
LINE
8
LYELLOW
6
CONTINUOUS
10
64.4699999999999989
20
-99.3699999999999903
11
71.0099999999999909
21
-99.3699999999999903
0
LINE
8
LYELLOW
6
CONTINUOUS
10
71.0099999999999909
20
-96.6299999999999955
11
71.0099999999999909
21
-96.9599999999999937
0
LINE
8
LYELLOW
6
CONTINUOUS
10
71.0099999999999909
20
-99.3699999999999903
11
71.0099999999999909
21
-99.039999999999992
0
LINE
8
LYELLOW
6
CONTINUOUS
10
79.4899999999999949
20
-54.8599999999999994
11
79.4899999999999949
21
-65.1400000000000006
0
LINE
8
LYELLOW
6
CONTINUOUS
10
79.4899999999999949
20
-65.1400000000000006
11
83.9899999999999949
21
-65.1400000000000006
0
LINE
8
LYELLOW
6
CONTINUOUS
10
80.7399999999999949
20
-54.8599999999999994
11
79.4899999999999949
21
-54.8599999999999994
0
LINE
8
LYELLOW
6
CONTINUOUS
10
83.9899999999999949
20
-54.8599999999999994
11
82.7399999999999949
21
-54.8599999999999994
0
LINE
8
LYELLOW
6
CONTINUOUS
10
83.9899999999999949
20
-65.1400000000000006
11
83.9899999999999949
21
-54.8599999999999994
0
ARC
8
LYELLOW
10
81.7399999999999949
20
-54.8599999999999994
40
1.
50
-180.00000000
51
-0.00000000
0
LINE
8
LYELLOW
6
CONTINUOUS
10
33.6599999999999966
20
-48.1899999999999977
11
33.6599999999999966
21
-55.8099999999999952
0
LINE
8
LYELLOW
6
CONTINUOUS
10
33.6599999999999966
20
-49.4600000000000009
11
43.8200000000000003
21
-49.4600000000000009
0
LINE
8
LYELLOW
6
CONTINUOUS
10
33.6599999999999966
20
-55.8099999999999952
11
43.8200000000000003
21
-55.8099999999999952
0
LINE
8
LYELLOW
6
CONTINUOUS
10
43.8200000000000003
20
-48.1899999999999977
11
33.6599999999999966
21
-48.1899999999999977
0
LINE
8
LYELLOW
6
CONTINUOUS
10
43.8200000000000003
20
-55.8099999999999952
11
43.8200000000000003
21
-48.1899999999999977
0
LINE
8
LYELLOW
6
CONTINUOUS
10
91.1199999999999903
20
-50.6299999999999955
11
96.3599999999999994
21
-50.6299999999999955
0
LINE
8
LYELLOW
6
CONTINUOUS
10
91.1199999999999903
20
-50.9669999999999987
11
91.1199999999999903
21
-50.6299999999999955
0
LINE
8
LYELLOW
6
CONTINUOUS
10
91.1199999999999903
20
-53.3699999999999974
11
91.1199999999999903
21
-53.0329999999999941
0
LINE
8
LYELLOW
6
CONTINUOUS
10
96.3599999999999994
20
-50.6299999999999955
11
96.3599999999999994
21
-50.9669999999999987
0
LINE
8
LYELLOW
6
CONTINUOUS
10
96.3599999999999994
20
-53.0329999999999941
11
96.3599999999999994
21
-53.3699999999999974
0
LINE
8
LYELLOW
6
CONTINUOUS
10
96.3599999999999994
20
-53.3699999999999974
11
91.1199999999999903
21
-53.3699999999999974
0
LINE
8
LYELLOW
6
CONTINUOUS
10
64.4699999999999989
20
-84.6299999999999955
11
71.0099999999999909
21
-84.6299999999999955
0
LINE
8
LYELLOW
6
CONTINUOUS
10
64.4699999999999989
20
-84.9599999999999937
11
64.4699999999999989
21
-84.6299999999999955
0
LINE
8
LYELLOW
6
CONTINUOUS
10
64.4699999999999989
20
-87.039999999999992
11
64.4699999999999989
21
-87.3699999999999903
0
LINE
8
LYELLOW
6
CONTINUOUS
10
64.4699999999999989
20
-87.3699999999999903
11
71.0099999999999909
21
-87.3699999999999903
0
LINE
8
LYELLOW
6
CONTINUOUS
10
71.0099999999999909
20
-84.6299999999999955
11
71.0099999999999909
21
-84.9599999999999937
0
LINE
8
LYELLOW
6
CONTINUOUS
10
71.0099999999999909
20
-87.3699999999999903
11
71.0099999999999909
21
-87.039999999999992
0
LINE
8
LYELLOW
6
CONTINUOUS
10
64.4699999999999989
20
-64.6299999999999955
11
71.0099999999999909
21
-64.6299999999999955
0
LINE
8
LYELLOW
6
CONTINUOUS
10
64.4699999999999989
20
-64.9599999999999937
11
64.4699999999999989
21
-64.6299999999999955
0
LINE
8
LYELLOW
6
CONTINUOUS
10
64.4699999999999989
20
-67.039999999999992
11
64.4699999999999989
21
-67.3699999999999903
0
LINE
8
LYELLOW
6
CONTINUOUS
10
64.4699999999999989
20
-67.3699999999999903
11
71.0099999999999909
21
-67.3699999999999903
0
LINE
8
LYELLOW
6
CONTINUOUS
10
71.0099999999999909
20
-64.6299999999999955
11
71.0099999999999909
21
-64.9599999999999937
0
LINE
8
LYELLOW
6
CONTINUOUS
10
71.0099999999999909
20
-67.3699999999999903
11
71.0099999999999909
21
-67.039999999999992
0
LINE
8
LYELLOW
6
CONTINUOUS
10
50.4699999999999989
20
-90.6299999999999955
11
57.009999999999998
21
-90.6299999999999955
0
LINE
8
LYELLOW
6
CONTINUOUS
10
50.4699999999999989
20
-90.9599999999999937
11
50.4699999999999989
21
-90.6299999999999955
0
LINE
8
LYELLOW
6
CONTINUOUS
10
50.4699999999999989
20
-93.039999999999992
11
50.4699999999999989
21
-93.3699999999999903
0
LINE
8
LYELLOW
6
CONTINUOUS
10
50.4699999999999989
20
-93.3699999999999903
11
57.009999999999998
21
-93.3699999999999903
0
LINE
8
LYELLOW
6
CONTINUOUS
10
57.009999999999998
20
-90.6299999999999955
11
57.009999999999998
21
-90.9599999999999937
0
LINE
8
LYELLOW
6
CONTINUOUS
10
57.009999999999998
20
-93.3699999999999903
11
57.009999999999998
21
-93.039999999999992
0
LINE
8
LYELLOW
6
CONTINUOUS
10
50.4699999999999989
20
-70.6299999999999955
11
57.009999999999998
21
-70.6299999999999955
0
LINE
8
LYELLOW
6
CONTINUOUS
10
50.4699999999999989
20
-70.9599999999999937
11
50.4699999999999989
21
-70.6299999999999955
0
LINE
8
LYELLOW
6
CONTINUOUS
10
50.4699999999999989
20
-73.039999999999992
11
50.4699999999999989
21
-73.3699999999999903
0
LINE
8
LYELLOW
6
CONTINUOUS
10
50.4699999999999989
20
-73.3699999999999903
11
57.009999999999998
21
-73.3699999999999903
0
LINE
8
LYELLOW
6
CONTINUOUS
10
57.009999999999998
20
-70.6299999999999955
11
57.009999999999998
21
-70.9599999999999937
0
LINE
8
LYELLOW
6
CONTINUOUS
10
57.009999999999998
20
-73.3699999999999903
11
57.009999999999998
21
-73.039999999999992
0
LINE
8
LYELLOW
6
CONTINUOUS
10
79.4899999999999949
20
-78.8599999999999994
11
79.4899999999999949
21
-89.1400000000000006
0
LINE
8
LYELLOW
6
CONTINUOUS
10
79.4899999999999949
20
-89.1400000000000006
11
83.9899999999999949
21
-89.1400000000000006
0
LINE
8
LYELLOW
6
CONTINUOUS
10
80.7399999999999949
20
-78.8599999999999994
11
79.4899999999999949
21
-78.8599999999999994
0
LINE
8
LYELLOW
6
CONTINUOUS
10
83.9899999999999949
20
-78.8599999999999994
11
82.7399999999999949
21
-78.8599999999999994
0
LINE
8
LYELLOW
6
CONTINUOUS
10
83.9899999999999949
20
-89.1400000000000006
11
83.9899999999999949
21
-78.8599999999999994
0
ARC
8
LYELLOW
10
81.7399999999999949
20
-78.8599999999999994
40
1.
50
-180.00000000
51
-0.00000000
0
LINE
8
LYELLOW
6
CONTINUOUS
10
64.4699999999999989
20
-44.6299999999999955
11
71.0099999999999909
21
-44.6299999999999955
0
LINE
8
LYELLOW
6
CONTINUOUS
10
64.4699999999999989
20
-44.9600000000000009
11
64.4699999999999989
21
-44.6299999999999955
0
LINE
8
LYELLOW
6
CONTINUOUS
10
64.4699999999999989
20
-47.0399999999999991
11
64.4699999999999989
21
-47.3699999999999974
0
LINE
8
LYELLOW
6
CONTINUOUS
10
64.4699999999999989
20
-47.3699999999999974
11
71.0099999999999909
21
-47.3699999999999974
0
LINE
8
LYELLOW
6
CONTINUOUS
10
71.0099999999999909
20
-44.6299999999999955
11
71.0099999999999909
21
-44.9600000000000009
0
LINE
8
LYELLOW
6
CONTINUOUS
10
71.0099999999999909
20
-47.3699999999999974
11
71.0099999999999909
21
-47.0399999999999991
0
LINE
8
LYELLOW
6
CONTINUOUS
10
91.1199999999999903
20
-74.6299999999999955
11
96.3599999999999994
21
-74.6299999999999955
0
LINE
8
LYELLOW
6
CONTINUOUS
10
91.1199999999999903
20
-74.9669999999999987
11
91.1199999999999903
21
-74.6299999999999955
0
LINE
8
LYELLOW
6
CONTINUOUS
10
91.1199999999999903
20
-77.3699999999999903
11
91.1199999999999903
21
-77.0330000000000013
0
LINE
8
LYELLOW
6
CONTINUOUS
10
96.3599999999999994
20
-74.6299999999999955
11
96.3599999999999994
21
-74.9669999999999987
0
LINE
8
LYELLOW
6
CONTINUOUS
10
96.3599999999999994
20
-77.0330000000000013
11
96.3599999999999994
21
-77.3699999999999903
0
LINE
8
LYELLOW
6
CONTINUOUS
10
96.3599999999999994
20
-77.3699999999999903
11
91.1199999999999903
21
-77.3699999999999903
0
LINE
8
WHITE
6
CONTINUOUS
10
20.
20
-20.
11
124.
21
-20.
0
LINE
8
WHITE
6
CONTINUOUS
10
124.
20
-20.
11
124.
21
-124.
0
LINE
8
WHITE
6
CONTINUOUS
10
124.
20
-124.
11
20.
21
-124.
0
LINE
8
WHITE
6
CONTINUOUS
10
20.
20
-124.
11
20.
21
-20.
  0
ENDSEC
  0
EOF
