  0
SECTION
  2
HEADER
  9
$ANGBASE
  50
0.0
  9
$ANGDIR
  70
1
  9
$MEASUREMENT
  70
1
  0
ENDSEC
  0
SECTION
  2
TABLES
  0
TABLE
  2
LTYPE
  70
4
  0
LTYPE
  5
40F
  2
CONTINUOUS
  70
0
  3
Solid line
  72
65
  73
0
  40
0.0
  0
LTYPE
  5
410
  2
DASHDOT
 70
0
  3
Dash Dot ____ _ ____ _
 72
65
 73
4
 40
2.0
 49
1.25
 49
-0.25
 49
0.25
 49
-0.25
  0
LTYPE
  5
411
  2
DASHED
 70
0
  3
Dashed __ __ __ __ __
 72
65
 73
2
 40
0.75
 49
0.5
 49
-0.25
  0
LTYPE
  5
43B
  2
DOTTED
 70
0
  3
Dotted .  .  .  .
 72
65
 73
2
 40
0.2
 49
0.0
 49
-0.2
  0
ENDTAB
  0
TABLE
  2
STYLE
  70
4
  0
STYLE
  2
KICAD
  70
0
  40
0
  41
1
  42
1
  50
0
  71
0
  3
isocp.shx
  0
STYLE
  2
KICADB
  70
0
  40
0
  41
1
  42
1
  50
0
  71
0
  3
isocp.shx
  0
STYLE
  2
KICADI
  70
0
  40
0
  41
1
  42
1
  50
15
  71
0
  3
isocp.shx
  0
STYLE
  2
KICADBI
  70
0
  40
0
  41
1
  42
1
  50
15
  71
0
  3
isocp.shx
  0
ENDTAB
  0
TABLE
  2
LAYER
  70
35
  0
LAYER
  2
BLACK
  70
0
  62
7
  6
CONTINUOUS
  0
LAYER
  2
GRAY1
  70
0
  62
251
  6
CONTINUOUS
  0
LAYER
  2
GRAY2
  70
0
  62
8
  6
CONTINUOUS
  0
LAYER
  2
GRAY3
  70
0
  62
9
  6
CONTINUOUS
  0
LAYER
  2
WHITE
  70
0
  62
7
  6
CONTINUOUS
  0
LAYER
  2
LYELLOW
  70
0
  62
51
  6
CONTINUOUS
  0
LAYER
  2
LORANGE
  70
0
  62
41
  6
CONTINUOUS
  0
LAYER
  2
BLUE1
  70
0
  62
178
  6
CONTINUOUS
  0
LAYER
  2
GREEN1
  70
0
  62
98
  6
CONTINUOUS
  0
LAYER
  2
CYAN1
  70
0
  62
138
  6
CONTINUOUS
  0
LAYER
  2
RED1
  70
0
  62
18
  6
CONTINUOUS
  0
LAYER
  2
MAGENTA1
  70
0
  62
228
  6
CONTINUOUS
  0
LAYER
  2
BROWN1
  70
0
  62
58
  6
CONTINUOUS
  0
LAYER
  2
ORANGE1
  70
0
  62
34
  6
CONTINUOUS
  0
LAYER
  2
BLUE2
  70
0
  62
5
  6
CONTINUOUS
  0
LAYER
  2
GREEN2
  70
0
  62
3
  6
CONTINUOUS
  0
LAYER
  2
CYAN2
  70
0
  62
4
  6
CONTINUOUS
  0
LAYER
  2
RED2
  70
0
  62
1
  6
CONTINUOUS
  0
LAYER
  2
MAGENTA2
  70
0
  62
6
  6
CONTINUOUS
  0
LAYER
  2
BROWN2
  70
0
  62
54
  6
CONTINUOUS
  0
LAYER
  2
ORANGE2
  70
0
  62
42
  6
CONTINUOUS
  0
LAYER
  2
BLUE3
  70
0
  62
171
  6
CONTINUOUS
  0
LAYER
  2
GREEN3
  70
0
  62
91
  6
CONTINUOUS
  0
LAYER
  2
CYAN3
  70
0
  62
131
  6
CONTINUOUS
  0
LAYER
  2
RED3
  70
0
  62
11
  6
CONTINUOUS
  0
LAYER
  2
MAGENTA3
  70
0
  62
221
  6
CONTINUOUS
  0
LAYER
  2
YELLOW3
  70
0
  62
2
  6
CONTINUOUS
  0
LAYER
  2
ORANGE3
  70
0
  62
32
  6
CONTINUOUS
  0
LAYER
  2
BLUE4
  70
0
  62
5
  6
CONTINUOUS
  0
LAYER
  2
GREEN4
  70
0
  62
3
  6
CONTINUOUS
  0
LAYER
  2
CYAN4
  70
0
  62
4
  6
CONTINUOUS
  0
LAYER
  2
RED4
  70
0
  62
1
  6
CONTINUOUS
  0
LAYER
  2
MAGENTA4
  70
0
  62
6
  6
CONTINUOUS
  0
LAYER
  2
YELLOW4
  70
0
  62
2
  6
CONTINUOUS
  0
LAYER
  2
ORANGE4
  70
0
  62
40
  6
CONTINUOUS
  0
ENDTAB
  0
ENDSEC
  0
SECTION
  2
ENTITIES
0
LINE
8
LYELLOW
6
CONTINUOUS
10
34.6666659999999993
20
-86.5348189999999988
11
34.6666659999999993
21
-87.2491040000000027
0
LINE
8
LYELLOW
6
CONTINUOUS
10
34.6666659999999993
20
-87.2491040000000027
11
34.6190470000000019
21
-87.3919609999999949
0
LINE
8
LYELLOW
6
CONTINUOUS
10
34.6190470000000019
20
-87.3919609999999949
11
34.523809
21
-87.4872000000000014
0
LINE
8
LYELLOW
6
CONTINUOUS
10
34.523809
20
-87.4872000000000014
11
34.3809520000000006
21
-87.5348189999999988
0
LINE
8
LYELLOW
6
CONTINUOUS
10
34.3809520000000006
20
-87.5348189999999988
11
34.2857139999999987
21
-87.5348189999999988
0
LINE
8
LYELLOW
6
CONTINUOUS
10
35.0476189999999974
20
-86.5348189999999988
11
35.6666659999999993
21
-86.5348189999999988
0
LINE
8
LYELLOW
6
CONTINUOUS
10
35.6666659999999993
20
-86.5348189999999988
11
35.3333329999999961
21
-86.9157709999999923
0
LINE
8
LYELLOW
6
CONTINUOUS
10
35.3333329999999961
20
-86.9157709999999923
11
35.4761899999999955
21
-86.9157709999999923
0
LINE
8
LYELLOW
6
CONTINUOUS
10
35.4761899999999955
20
-86.9157709999999923
11
35.5714279999999974
21
-86.9633899999999898
0
LINE
8
LYELLOW
6
CONTINUOUS
10
35.5714279999999974
20
-86.9633899999999898
11
35.6190470000000019
21
-87.0110090000000014
0
LINE
8
LYELLOW
6
CONTINUOUS
10
35.6190470000000019
20
-87.0110090000000014
11
35.6666659999999993
21
-87.1062469999999962
0
LINE
8
LYELLOW
6
CONTINUOUS
10
35.6666659999999993
20
-87.1062469999999962
11
35.6666659999999993
21
-87.3443419999999975
0
LINE
8
LYELLOW
6
CONTINUOUS
10
35.6666659999999993
20
-87.3443419999999975
11
35.6190470000000019
21
-87.4395799999999923
0
LINE
8
LYELLOW
6
CONTINUOUS
10
35.6190470000000019
20
-87.4395799999999923
11
35.5714279999999974
21
-87.4872000000000014
0
LINE
8
LYELLOW
6
CONTINUOUS
10
35.5714279999999974
20
-87.4872000000000014
11
35.4761899999999955
21
-87.5348189999999988
0
LINE
8
LYELLOW
6
CONTINUOUS
10
35.4761899999999955
20
-87.5348189999999988
11
35.1904759999999968
21
-87.5348189999999988
0
LINE
8
LYELLOW
6
CONTINUOUS
10
35.1904759999999968
20
-87.5348189999999988
11
35.0952380000000019
21
-87.4872000000000014
0
LINE
8
LYELLOW
6
CONTINUOUS
10
35.0952380000000019
20
-87.4872000000000014
11
35.0476189999999974
21
-87.4395799999999923
0
LINE
8
LYELLOW
6
CONTINUOUS
10
34.6666659999999993
20
-60.5348189999999988
11
34.6666659999999993
21
-61.2491039999999956
0
LINE
8
LYELLOW
6
CONTINUOUS
10
34.6666659999999993
20
-61.2491039999999956
11
34.6190470000000019
21
-61.3919609999999949
0
LINE
8
LYELLOW
6
CONTINUOUS
10
34.6190470000000019
20
-61.3919609999999949
11
34.523809
21
-61.4871999999999943
0
LINE
8
LYELLOW
6
CONTINUOUS
10
34.523809
20
-61.4871999999999943
11
34.3809520000000006
21
-61.5348189999999988
0
LINE
8
LYELLOW
6
CONTINUOUS
10
34.3809520000000006
20
-61.5348189999999988
11
34.2857139999999987
21
-61.5348189999999988
0
LINE
8
LYELLOW
6
CONTINUOUS
10
35.0952380000000019
20
-60.6300570000000008
11
35.1428569999999993
21
-60.5824379999999962
0
LINE
8
LYELLOW
6
CONTINUOUS
10
35.1428569999999993
20
-60.5824379999999962
11
35.2380950000000013
21
-60.5348189999999988
0
LINE
8
LYELLOW
6
CONTINUOUS
10
35.2380950000000013
20
-60.5348189999999988
11
35.4761899999999955
21
-60.5348189999999988
0
LINE
8
LYELLOW
6
CONTINUOUS
10
35.4761899999999955
20
-60.5348189999999988
11
35.5714279999999974
21
-60.5824379999999962
0
LINE
8
LYELLOW
6
CONTINUOUS
10
35.5714279999999974
20
-60.5824379999999962
11
35.6190470000000019
21
-60.6300570000000008
0
LINE
8
LYELLOW
6
CONTINUOUS
10
35.6190470000000019
20
-60.6300570000000008
11
35.6666659999999993
21
-60.7252949999999956
0
LINE
8
LYELLOW
6
CONTINUOUS
10
35.6666659999999993
20
-60.7252949999999956
11
35.6666659999999993
21
-60.8205329999999975
0
LINE
8
LYELLOW
6
CONTINUOUS
10
35.6666659999999993
20
-60.8205329999999975
11
35.6190470000000019
21
-60.9633899999999969
0
LINE
8
LYELLOW
6
CONTINUOUS
10
35.6190470000000019
20
-60.9633899999999969
11
35.0476189999999974
21
-61.5348189999999988
0
LINE
8
LYELLOW
6
CONTINUOUS
10
35.0476189999999974
20
-61.5348189999999988
11
35.6666659999999993
21
-61.5348189999999988
0
LINE
8
LYELLOW
6
CONTINUOUS
10
34.6666659999999993
20
-34.5348189999999988
11
34.6666659999999993
21
-35.2491039999999956
0
LINE
8
LYELLOW
6
CONTINUOUS
10
34.6666659999999993
20
-35.2491039999999956
11
34.6190470000000019
21
-35.3919609999999949
0
LINE
8
LYELLOW
6
CONTINUOUS
10
34.6190470000000019
20
-35.3919609999999949
11
34.523809
21
-35.4872000000000014
0
LINE
8
LYELLOW
6
CONTINUOUS
10
34.523809
20
-35.4872000000000014
11
34.3809520000000006
21
-35.5348189999999988
0
LINE
8
LYELLOW
6
CONTINUOUS
10
34.3809520000000006
20
-35.5348189999999988
11
34.2857139999999987
21
-35.5348189999999988
0
LINE
8
LYELLOW
6
CONTINUOUS
10
35.6666659999999993
20
-35.5348189999999988
11
35.0952380000000019
21
-35.5348189999999988
0
LINE
8
LYELLOW
6
CONTINUOUS
10
35.3809520000000006
20
-35.5348189999999988
11
35.3809520000000006
21
-34.5348189999999988
0
LINE
8
LYELLOW
6
CONTINUOUS
10
35.3809520000000006
20
-34.5348189999999988
11
35.2857139999999987
21
-34.6776759999999982
0
LINE
8
LYELLOW
6
CONTINUOUS
10
35.2857139999999987
20
-34.6776759999999982
11
35.1904759999999968
21
-34.7729140000000001
0
LINE
8
LYELLOW
6
CONTINUOUS
10
35.1904759999999968
20
-34.7729140000000001
11
35.0952380000000019
21
-34.8205329999999975
0
LINE
8
LYELLOW
6
CONTINUOUS
10
65.3571419999999961
20
-34.084818999999996
11
65.023809
21
-33.608627999999996
0
LINE
8
LYELLOW
6
CONTINUOUS
10
64.7857139999999987
20
-34.084818999999996
11
64.7857139999999987
21
-33.084818999999996
0
LINE
8
LYELLOW
6
CONTINUOUS
10
64.7857139999999987
20
-33.084818999999996
11
65.1666659999999922
21
-33.084818999999996
0
LINE
8
LYELLOW
6
CONTINUOUS
10
65.1666659999999922
20
-33.084818999999996
11
65.2619040000000012
21
-33.1324380000000005
0
LINE
8
LYELLOW
6
CONTINUOUS
10
65.2619040000000012
20
-33.1324380000000005
11
65.3095229999999987
21
-33.1800569999999979
0
LINE
8
LYELLOW
6
CONTINUOUS
10
65.3095229999999987
20
-33.1800569999999979
11
65.3571419999999961
21
-33.2752949999999998
0
LINE
8
LYELLOW
6
CONTINUOUS
10
65.3571419999999961
20
-33.2752949999999998
11
65.3571419999999961
21
-33.4181519999999992
0
LINE
8
LYELLOW
6
CONTINUOUS
10
65.3571419999999961
20
-33.4181519999999992
11
65.3095229999999987
21
-33.5133900000000011
0
LINE
8
LYELLOW
6
CONTINUOUS
10
65.3095229999999987
20
-33.5133900000000011
11
65.2619040000000012
21
-33.5610089999999985
0
LINE
8
LYELLOW
6
CONTINUOUS
10
65.2619040000000012
20
-33.5610089999999985
11
65.1666659999999922
21
-33.608627999999996
0
LINE
8
LYELLOW
6
CONTINUOUS
10
65.1666659999999922
20
-33.608627999999996
11
64.7857139999999987
21
-33.608627999999996
0
LINE
8
LYELLOW
6
CONTINUOUS
10
66.3095229999999987
20
-34.084818999999996
11
65.7380950000000013
21
-34.084818999999996
0
LINE
8
LYELLOW
6
CONTINUOUS
10
66.023809
20
-34.084818999999996
11
66.023809
21
-33.084818999999996
0
LINE
8
LYELLOW
6
CONTINUOUS
10
66.023809
20
-33.084818999999996
11
65.9285709999999909
21
-33.2276759999999953
0
LINE
8
LYELLOW
6
CONTINUOUS
10
65.9285709999999909
20
-33.2276759999999953
11
65.8333329999999961
21
-33.3229139999999973
0
LINE
8
LYELLOW
6
CONTINUOUS
10
65.8333329999999961
20
-33.3229139999999973
11
65.7380950000000013
21
-33.3705330000000018
0
LINE
8
LYELLOW
6
CONTINUOUS
10
66.6428569999999922
20
-33.084818999999996
11
67.2619040000000012
21
-33.084818999999996
0
LINE
8
LYELLOW
6
CONTINUOUS
10
67.2619040000000012
20
-33.084818999999996
11
66.9285709999999909
21
-33.4657709999999966
0
LINE
8
LYELLOW
6
CONTINUOUS
10
66.9285709999999909
20
-33.4657709999999966
11
67.0714279999999974
21
-33.4657709999999966
0
LINE
8
LYELLOW
6
CONTINUOUS
10
67.0714279999999974
20
-33.4657709999999966
11
67.1666659999999922
21
-33.5133900000000011
0
LINE
8
LYELLOW
6
CONTINUOUS
10
67.1666659999999922
20
-33.5133900000000011
11
67.2142850000000038
21
-33.5610089999999985
0
LINE
8
LYELLOW
6
CONTINUOUS
10
67.2142850000000038
20
-33.5610089999999985
11
67.2619040000000012
21
-33.6562470000000005
0
LINE
8
LYELLOW
6
CONTINUOUS
10
67.2619040000000012
20
-33.6562470000000005
11
67.2619040000000012
21
-33.8943420000000017
0
LINE
8
LYELLOW
6
CONTINUOUS
10
67.2619040000000012
20
-33.8943420000000017
11
67.2142850000000038
21
-33.9895799999999966
0
LINE
8
LYELLOW
6
CONTINUOUS
10
67.2142850000000038
20
-33.9895799999999966
11
67.1666659999999922
21
-34.0371999999999986
0
LINE
8
LYELLOW
6
CONTINUOUS
10
67.1666659999999922
20
-34.0371999999999986
11
67.0714279999999974
21
-34.084818999999996
0
LINE
8
LYELLOW
6
CONTINUOUS
10
67.0714279999999974
20
-34.084818999999996
11
66.7857139999999987
21
-34.084818999999996
0
LINE
8
LYELLOW
6
CONTINUOUS
10
66.7857139999999987
20
-34.084818999999996
11
66.6904760000000039
21
-34.0371999999999986
0
LINE
8
LYELLOW
6
CONTINUOUS
10
66.6904760000000039
20
-34.0371999999999986
11
66.6428569999999922
21
-33.9895799999999966
0
LINE
8
LYELLOW
6
CONTINUOUS
10
65.3571419999999961
20
-60.084818999999996
11
65.023809
21
-59.608627999999996
0
LINE
8
LYELLOW
6
CONTINUOUS
10
64.7857139999999987
20
-60.084818999999996
11
64.7857139999999987
21
-59.084818999999996
0
LINE
8
LYELLOW
6
CONTINUOUS
10
64.7857139999999987
20
-59.084818999999996
11
65.1666659999999922
21
-59.084818999999996
0
LINE
8
LYELLOW
6
CONTINUOUS
10
65.1666659999999922
20
-59.084818999999996
11
65.2619040000000012
21
-59.1324380000000005
0
LINE
8
LYELLOW
6
CONTINUOUS
10
65.2619040000000012
20
-59.1324380000000005
11
65.3095229999999987
21
-59.1800569999999979
0
LINE
8
LYELLOW
6
CONTINUOUS
10
65.3095229999999987
20
-59.1800569999999979
11
65.3571419999999961
21
-59.2752949999999998
0
LINE
8
LYELLOW
6
CONTINUOUS
10
65.3571419999999961
20
-59.2752949999999998
11
65.3571419999999961
21
-59.4181519999999992
0
LINE
8
LYELLOW
6
CONTINUOUS
10
65.3571419999999961
20
-59.4181519999999992
11
65.3095229999999987
21
-59.513389999999994
0
LINE
8
LYELLOW
6
CONTINUOUS
10
65.3095229999999987
20
-59.513389999999994
11
65.2619040000000012
21
-59.5610089999999985
0
LINE
8
LYELLOW
6
CONTINUOUS
10
65.2619040000000012
20
-59.5610089999999985
11
65.1666659999999922
21
-59.608627999999996
0
LINE
8
LYELLOW
6
CONTINUOUS
10
65.1666659999999922
20
-59.608627999999996
11
64.7857139999999987
21
-59.608627999999996
0
LINE
8
LYELLOW
6
CONTINUOUS
10
65.7380950000000013
20
-59.1800569999999979
11
65.7857139999999987
21
-59.1324380000000005
0
LINE
8
LYELLOW
6
CONTINUOUS
10
65.7857139999999987
20
-59.1324380000000005
11
65.8809519999999935
21
-59.084818999999996
0
LINE
8
LYELLOW
6
CONTINUOUS
10
65.8809519999999935
20
-59.084818999999996
11
66.1190469999999948
21
-59.084818999999996
0
LINE
8
LYELLOW
6
CONTINUOUS
10
66.1190469999999948
20
-59.084818999999996
11
66.2142850000000038
21
-59.1324380000000005
0
LINE
8
LYELLOW
6
CONTINUOUS
10
66.2142850000000038
20
-59.1324380000000005
11
66.2619040000000012
21
-59.1800569999999979
0
LINE
8
LYELLOW
6
CONTINUOUS
10
66.2619040000000012
20
-59.1800569999999979
11
66.3095229999999987
21
-59.2752949999999998
0
LINE
8
LYELLOW
6
CONTINUOUS
10
66.3095229999999987
20
-59.2752949999999998
11
66.3095229999999987
21
-59.3705329999999947
0
LINE
8
LYELLOW
6
CONTINUOUS
10
66.3095229999999987
20
-59.3705329999999947
11
66.2619040000000012
21
-59.513389999999994
0
LINE
8
LYELLOW
6
CONTINUOUS
10
66.2619040000000012
20
-59.513389999999994
11
65.6904760000000039
21
-60.084818999999996
0
LINE
8
LYELLOW
6
CONTINUOUS
10
65.6904760000000039
20
-60.084818999999996
11
66.3095229999999987
21
-60.084818999999996
0
LINE
8
LYELLOW
6
CONTINUOUS
10
66.6428569999999922
20
-59.084818999999996
11
67.2619040000000012
21
-59.084818999999996
0
LINE
8
LYELLOW
6
CONTINUOUS
10
67.2619040000000012
20
-59.084818999999996
11
66.9285709999999909
21
-59.4657709999999966
0
LINE
8
LYELLOW
6
CONTINUOUS
10
66.9285709999999909
20
-59.4657709999999966
11
67.0714279999999974
21
-59.4657709999999966
0
LINE
8
LYELLOW
6
CONTINUOUS
10
67.0714279999999974
20
-59.4657709999999966
11
67.1666659999999922
21
-59.513389999999994
0
LINE
8
LYELLOW
6
CONTINUOUS
10
67.1666659999999922
20
-59.513389999999994
11
67.2142850000000038
21
-59.5610089999999985
0
LINE
8
LYELLOW
6
CONTINUOUS
10
67.2142850000000038
20
-59.5610089999999985
11
67.2619040000000012
21
-59.6562470000000005
0
LINE
8
LYELLOW
6
CONTINUOUS
10
67.2619040000000012
20
-59.6562470000000005
11
67.2619040000000012
21
-59.8943419999999946
0
LINE
8
LYELLOW
6
CONTINUOUS
10
67.2619040000000012
20
-59.8943419999999946
11
67.2142850000000038
21
-59.9895799999999966
0
LINE
8
LYELLOW
6
CONTINUOUS
10
67.2142850000000038
20
-59.9895799999999966
11
67.1666659999999922
21
-60.0371999999999986
0
LINE
8
LYELLOW
6
CONTINUOUS
10
67.1666659999999922
20
-60.0371999999999986
11
67.0714279999999974
21
-60.084818999999996
0
LINE
8
LYELLOW
6
CONTINUOUS
10
67.0714279999999974
20
-60.084818999999996
11
66.7857139999999987
21
-60.084818999999996
0
LINE
8
LYELLOW
6
CONTINUOUS
10
66.7857139999999987
20
-60.084818999999996
11
66.6904760000000039
21
-60.0371999999999986
0
LINE
8
LYELLOW
6
CONTINUOUS
10
66.6904760000000039
20
-60.0371999999999986
11
66.6428569999999922
21
-59.9895799999999966
0
LINE
8
LYELLOW
6
CONTINUOUS
10
51.3571419999999961
20
-54.084818999999996
11
51.023809
21
-53.608627999999996
0
LINE
8
LYELLOW
6
CONTINUOUS
10
50.7857139999999987
20
-54.084818999999996
11
50.7857139999999987
21
-53.084818999999996
0
LINE
8
LYELLOW
6
CONTINUOUS
10
50.7857139999999987
20
-53.084818999999996
11
51.1666659999999993
21
-53.084818999999996
0
LINE
8
LYELLOW
6
CONTINUOUS
10
51.1666659999999993
20
-53.084818999999996
11
51.2619039999999941
21
-53.1324380000000005
0
LINE
8
LYELLOW
6
CONTINUOUS
10
51.2619039999999941
20
-53.1324380000000005
11
51.3095229999999987
21
-53.1800569999999979
0
LINE
8
LYELLOW
6
CONTINUOUS
10
51.3095229999999987
20
-53.1800569999999979
11
51.3571419999999961
21
-53.2752949999999998
0
LINE
8
LYELLOW
6
CONTINUOUS
10
51.3571419999999961
20
-53.2752949999999998
11
51.3571419999999961
21
-53.4181519999999992
0
LINE
8
LYELLOW
6
CONTINUOUS
10
51.3571419999999961
20
-53.4181519999999992
11
51.3095229999999987
21
-53.5133900000000011
0
LINE
8
LYELLOW
6
CONTINUOUS
10
51.3095229999999987
20
-53.5133900000000011
11
51.2619039999999941
21
-53.5610089999999985
0
LINE
8
LYELLOW
6
CONTINUOUS
10
51.2619039999999941
20
-53.5610089999999985
11
51.1666659999999993
21
-53.608627999999996
0
LINE
8
LYELLOW
6
CONTINUOUS
10
51.1666659999999993
20
-53.608627999999996
11
50.7857139999999987
21
-53.608627999999996
0
LINE
8
LYELLOW
6
CONTINUOUS
10
51.7380949999999942
20
-53.1800569999999979
11
51.7857139999999987
21
-53.1324380000000005
0
LINE
8
LYELLOW
6
CONTINUOUS
10
51.7857139999999987
20
-53.1324380000000005
11
51.8809520000000006
21
-53.084818999999996
0
LINE
8
LYELLOW
6
CONTINUOUS
10
51.8809520000000006
20
-53.084818999999996
11
52.1190469999999948
21
-53.084818999999996
0
LINE
8
LYELLOW
6
CONTINUOUS
10
52.1190469999999948
20
-53.084818999999996
11
52.2142849999999967
21
-53.1324380000000005
0
LINE
8
LYELLOW
6
CONTINUOUS
10
52.2142849999999967
20
-53.1324380000000005
11
52.2619039999999941
21
-53.1800569999999979
0
LINE
8
LYELLOW
6
CONTINUOUS
10
52.2619039999999941
20
-53.1800569999999979
11
52.3095229999999987
21
-53.2752949999999998
0
LINE
8
LYELLOW
6
CONTINUOUS
10
52.3095229999999987
20
-53.2752949999999998
11
52.3095229999999987
21
-53.3705329999999947
0
LINE
8
LYELLOW
6
CONTINUOUS
10
52.3095229999999987
20
-53.3705329999999947
11
52.2619039999999941
21
-53.5133900000000011
0
LINE
8
LYELLOW
6
CONTINUOUS
10
52.2619039999999941
20
-53.5133900000000011
11
51.6904759999999968
21
-54.084818999999996
0
LINE
8
LYELLOW
6
CONTINUOUS
10
51.6904759999999968
20
-54.084818999999996
11
52.3095229999999987
21
-54.084818999999996
0
LINE
8
LYELLOW
6
CONTINUOUS
10
53.2619039999999941
20
-54.084818999999996
11
52.6904759999999968
21
-54.084818999999996
0
LINE
8
LYELLOW
6
CONTINUOUS
10
52.9761899999999955
20
-54.084818999999996
11
52.9761899999999955
21
-53.084818999999996
0
LINE
8
LYELLOW
6
CONTINUOUS
10
52.9761899999999955
20
-53.084818999999996
11
52.8809520000000006
21
-53.2276759999999953
0
LINE
8
LYELLOW
6
CONTINUOUS
10
52.8809520000000006
20
-53.2276759999999953
11
52.7857139999999987
21
-53.3229139999999973
0
LINE
8
LYELLOW
6
CONTINUOUS
10
52.7857139999999987
20
-53.3229139999999973
11
52.6904759999999968
21
-53.3705329999999947
0
LINE
8
LYELLOW
6
CONTINUOUS
10
98.8333329999999961
20
-53.859579999999994
11
98.7857139999999987
21
-53.907199999999996
0
LINE
8
LYELLOW
6
CONTINUOUS
10
98.7857139999999987
20
-53.907199999999996
11
98.6428569999999922
21
-53.9548190000000005
0
LINE
8
LYELLOW
6
CONTINUOUS
10
98.6428569999999922
20
-53.9548190000000005
11
98.5476189999999974
21
-53.9548190000000005
0
LINE
8
LYELLOW
6
CONTINUOUS
10
98.5476189999999974
20
-53.9548190000000005
11
98.404761999999991
21
-53.907199999999996
0
LINE
8
LYELLOW
6
CONTINUOUS
10
98.404761999999991
20
-53.907199999999996
11
98.3095239999999961
21
-53.8119609999999966
0
LINE
8
LYELLOW
6
CONTINUOUS
10
98.3095239999999961
20
-53.8119609999999966
11
98.2619049999999987
21
-53.7167229999999947
0
LINE
8
LYELLOW
6
CONTINUOUS
10
98.2619049999999987
20
-53.7167229999999947
11
98.2142860000000013
21
-53.5262469999999979
0
LINE
8
LYELLOW
6
CONTINUOUS
10
98.2142860000000013
20
-53.5262469999999979
11
98.2142860000000013
21
-53.3833899999999986
0
LINE
8
LYELLOW
6
CONTINUOUS
10
98.2142860000000013
20
-53.3833899999999986
11
98.2619049999999987
21
-53.1929139999999947
0
LINE
8
LYELLOW
6
CONTINUOUS
10
98.2619049999999987
20
-53.1929139999999947
11
98.3095239999999961
21
-53.0976759999999999
0
LINE
8
LYELLOW
6
CONTINUOUS
10
98.3095239999999961
20
-53.0976759999999999
11
98.404761999999991
21
-53.0024379999999979
0
LINE
8
LYELLOW
6
CONTINUOUS
10
98.404761999999991
20
-53.0024379999999979
11
98.5476189999999974
21
-52.9548190000000005
0
LINE
8
LYELLOW
6
CONTINUOUS
10
98.5476189999999974
20
-52.9548190000000005
11
98.6428569999999922
21
-52.9548190000000005
0
LINE
8
LYELLOW
6
CONTINUOUS
10
98.6428569999999922
20
-52.9548190000000005
11
98.7857139999999987
21
-53.0024379999999979
0
LINE
8
LYELLOW
6
CONTINUOUS
10
98.7857139999999987
20
-53.0024379999999979
11
98.8333329999999961
21
-53.0500569999999954
0
LINE
8
LYELLOW
6
CONTINUOUS
10
99.2142860000000013
20
-53.0500569999999954
11
99.2619049999999987
21
-53.0024379999999979
0
LINE
8
LYELLOW
6
CONTINUOUS
10
99.2619049999999987
20
-53.0024379999999979
11
99.3571429999999935
21
-52.9548190000000005
0
LINE
8
LYELLOW
6
CONTINUOUS
10
99.3571429999999935
20
-52.9548190000000005
11
99.5952379999999948
21
-52.9548190000000005
0
LINE
8
LYELLOW
6
CONTINUOUS
10
99.5952379999999948
20
-52.9548190000000005
11
99.6904759999999897
21
-53.0024379999999979
0
LINE
8
LYELLOW
6
CONTINUOUS
10
99.6904759999999897
20
-53.0024379999999979
11
99.7380950000000013
21
-53.0500569999999954
0
LINE
8
LYELLOW
6
CONTINUOUS
10
99.7380950000000013
20
-53.0500569999999954
11
99.7857139999999987
21
-53.1452949999999973
0
LINE
8
LYELLOW
6
CONTINUOUS
10
99.7857139999999987
20
-53.1452949999999973
11
99.7857139999999987
21
-53.2405329999999992
0
LINE
8
LYELLOW
6
CONTINUOUS
10
99.7857139999999987
20
-53.2405329999999992
11
99.7380950000000013
21
-53.3833899999999986
0
LINE
8
LYELLOW
6
CONTINUOUS
10
99.7380950000000013
20
-53.3833899999999986
11
99.1666669999999897
21
-53.9548190000000005
0
LINE
8
LYELLOW
6
CONTINUOUS
10
99.1666669999999897
20
-53.9548190000000005
11
99.7857139999999987
21
-53.9548190000000005
0
LINE
8
LYELLOW
6
CONTINUOUS
10
85.2380950000000013
20
-34.314819
11
85.2380950000000013
21
-35.1243419999999986
0
LINE
8
LYELLOW
6
CONTINUOUS
10
85.2380950000000013
20
-35.1243419999999986
11
85.2857139999999987
21
-35.2195800000000006
0
LINE
8
LYELLOW
6
CONTINUOUS
10
85.2857139999999987
20
-35.2195800000000006
11
85.3333329999999961
21
-35.2671999999999954
0
LINE
8
LYELLOW
6
CONTINUOUS
10
85.3333329999999961
20
-35.2671999999999954
11
85.4285709999999909
21
-35.314819
0
LINE
8
LYELLOW
6
CONTINUOUS
10
85.4285709999999909
20
-35.314819
11
85.6190469999999948
21
-35.314819
0
LINE
8
LYELLOW
6
CONTINUOUS
10
85.6190469999999948
20
-35.314819
11
85.7142849999999896
21
-35.2671999999999954
0
LINE
8
LYELLOW
6
CONTINUOUS
10
85.7142849999999896
20
-35.2671999999999954
11
85.7619040000000012
21
-35.2195800000000006
0
LINE
8
LYELLOW
6
CONTINUOUS
10
85.7619040000000012
20
-35.2195800000000006
11
85.8095229999999987
21
-35.1243419999999986
0
LINE
8
LYELLOW
6
CONTINUOUS
10
85.8095229999999987
20
-35.1243419999999986
11
85.8095229999999987
21
-34.314819
0
LINE
8
LYELLOW
6
CONTINUOUS
10
86.8095229999999987
20
-35.314819
11
86.2380950000000013
21
-35.314819
0
LINE
8
LYELLOW
6
CONTINUOUS
10
86.523809
20
-35.314819
11
86.523809
21
-34.314819
0
LINE
8
LYELLOW
6
CONTINUOUS
10
86.523809
20
-34.314819
11
86.4285709999999909
21
-34.4576759999999993
0
LINE
8
LYELLOW
6
CONTINUOUS
10
86.4285709999999909
20
-34.4576759999999993
11
86.3333329999999961
21
-34.5529140000000012
0
LINE
8
LYELLOW
6
CONTINUOUS
10
86.3333329999999961
20
-34.5529140000000012
11
86.2380950000000013
21
-34.6005329999999987
0
LINE
8
LYELLOW
6
CONTINUOUS
10
51.3571419999999961
20
-80.084818999999996
11
51.023809
21
-79.608627999999996
0
LINE
8
LYELLOW
6
CONTINUOUS
10
50.7857139999999987
20
-80.084818999999996
11
50.7857139999999987
21
-79.084818999999996
0
LINE
8
LYELLOW
6
CONTINUOUS
10
50.7857139999999987
20
-79.084818999999996
11
51.1666659999999993
21
-79.084818999999996
0
LINE
8
LYELLOW
6
CONTINUOUS
10
51.1666659999999993
20
-79.084818999999996
11
51.2619039999999941
21
-79.1324379999999934
0
LINE
8
LYELLOW
6
CONTINUOUS
10
51.2619039999999941
20
-79.1324379999999934
11
51.3095229999999987
21
-79.1800569999999908
0
LINE
8
LYELLOW
6
CONTINUOUS
10
51.3095229999999987
20
-79.1800569999999908
11
51.3571419999999961
21
-79.2752949999999998
0
LINE
8
LYELLOW
6
CONTINUOUS
10
51.3571419999999961
20
-79.2752949999999998
11
51.3571419999999961
21
-79.4181519999999921
0
LINE
8
LYELLOW
6
CONTINUOUS
10
51.3571419999999961
20
-79.4181519999999921
11
51.3095229999999987
21
-79.5133900000000011
0
LINE
8
LYELLOW
6
CONTINUOUS
10
51.3095229999999987
20
-79.5133900000000011
11
51.2619039999999941
21
-79.5610089999999985
0
LINE
8
LYELLOW
6
CONTINUOUS
10
51.2619039999999941
20
-79.5610089999999985
11
51.1666659999999993
21
-79.608627999999996
0
LINE
8
LYELLOW
6
CONTINUOUS
10
51.1666659999999993
20
-79.608627999999996
11
50.7857139999999987
21
-79.608627999999996
0
LINE
8
LYELLOW
6
CONTINUOUS
10
51.6904759999999968
20
-79.084818999999996
11
52.3095229999999987
21
-79.084818999999996
0
LINE
8
LYELLOW
6
CONTINUOUS
10
52.3095229999999987
20
-79.084818999999996
11
51.9761899999999955
21
-79.4657709999999895
0
LINE
8
LYELLOW
6
CONTINUOUS
10
51.9761899999999955
20
-79.4657709999999895
11
52.1190469999999948
21
-79.4657709999999895
0
LINE
8
LYELLOW
6
CONTINUOUS
10
52.1190469999999948
20
-79.4657709999999895
11
52.2142849999999967
21
-79.5133900000000011
0
LINE
8
LYELLOW
6
CONTINUOUS
10
52.2142849999999967
20
-79.5133900000000011
11
52.2619039999999941
21
-79.5610089999999985
0
LINE
8
LYELLOW
6
CONTINUOUS
10
52.2619039999999941
20
-79.5610089999999985
11
52.3095229999999987
21
-79.6562469999999934
0
LINE
8
LYELLOW
6
CONTINUOUS
10
52.3095229999999987
20
-79.6562469999999934
11
52.3095229999999987
21
-79.8943419999999946
0
LINE
8
LYELLOW
6
CONTINUOUS
10
52.3095229999999987
20
-79.8943419999999946
11
52.2619039999999941
21
-79.9895799999999895
0
LINE
8
LYELLOW
6
CONTINUOUS
10
52.2619039999999941
20
-79.9895799999999895
11
52.2142849999999967
21
-80.0371999999999986
0
LINE
8
LYELLOW
6
CONTINUOUS
10
52.2142849999999967
20
-80.0371999999999986
11
52.1190469999999948
21
-80.084818999999996
0
LINE
8
LYELLOW
6
CONTINUOUS
10
52.1190469999999948
20
-80.084818999999996
11
51.8333329999999961
21
-80.084818999999996
0
LINE
8
LYELLOW
6
CONTINUOUS
10
51.8333329999999961
20
-80.084818999999996
11
51.7380949999999942
21
-80.0371999999999986
0
LINE
8
LYELLOW
6
CONTINUOUS
10
51.7380949999999942
20
-80.0371999999999986
11
51.6904759999999968
21
-79.9895799999999895
0
LINE
8
LYELLOW
6
CONTINUOUS
10
53.2619039999999941
20
-80.084818999999996
11
52.6904759999999968
21
-80.084818999999996
0
LINE
8
LYELLOW
6
CONTINUOUS
10
52.9761899999999955
20
-80.084818999999996
11
52.9761899999999955
21
-79.084818999999996
0
LINE
8
LYELLOW
6
CONTINUOUS
10
52.9761899999999955
20
-79.084818999999996
11
52.8809520000000006
21
-79.2276760000000024
0
LINE
8
LYELLOW
6
CONTINUOUS
10
52.8809520000000006
20
-79.2276760000000024
11
52.7857139999999987
21
-79.3229139999999973
0
LINE
8
LYELLOW
6
CONTINUOUS
10
52.7857139999999987
20
-79.3229139999999973
11
52.6904759999999968
21
-79.3705329999999947
0
LINE
8
LYELLOW
6
CONTINUOUS
10
65.3571419999999961
20
-86.084818999999996
11
65.023809
21
-85.608627999999996
0
LINE
8
LYELLOW
6
CONTINUOUS
10
64.7857139999999987
20
-86.084818999999996
11
64.7857139999999987
21
-85.084818999999996
0
LINE
8
LYELLOW
6
CONTINUOUS
10
64.7857139999999987
20
-85.084818999999996
11
65.1666659999999922
21
-85.084818999999996
0
LINE
8
LYELLOW
6
CONTINUOUS
10
65.1666659999999922
20
-85.084818999999996
11
65.2619040000000012
21
-85.1324379999999934
0
LINE
8
LYELLOW
6
CONTINUOUS
10
65.2619040000000012
20
-85.1324379999999934
11
65.3095229999999987
21
-85.1800569999999908
0
LINE
8
LYELLOW
6
CONTINUOUS
10
65.3095229999999987
20
-85.1800569999999908
11
65.3571419999999961
21
-85.2752949999999998
0
LINE
8
LYELLOW
6
CONTINUOUS
10
65.3571419999999961
20
-85.2752949999999998
11
65.3571419999999961
21
-85.4181519999999921
0
LINE
8
LYELLOW
6
CONTINUOUS
10
65.3571419999999961
20
-85.4181519999999921
11
65.3095229999999987
21
-85.5133900000000011
0
LINE
8
LYELLOW
6
CONTINUOUS
10
65.3095229999999987
20
-85.5133900000000011
11
65.2619040000000012
21
-85.5610089999999985
0
LINE
8
LYELLOW
6
CONTINUOUS
10
65.2619040000000012
20
-85.5610089999999985
11
65.1666659999999922
21
-85.608627999999996
0
LINE
8
LYELLOW
6
CONTINUOUS
10
65.1666659999999922
20
-85.608627999999996
11
64.7857139999999987
21
-85.608627999999996
0
LINE
8
LYELLOW
6
CONTINUOUS
10
65.6904760000000039
20
-85.084818999999996
11
66.3095229999999987
21
-85.084818999999996
0
LINE
8
LYELLOW
6
CONTINUOUS
10
66.3095229999999987
20
-85.084818999999996
11
65.9761900000000026
21
-85.4657709999999895
0
LINE
8
LYELLOW
6
CONTINUOUS
10
65.9761900000000026
20
-85.4657709999999895
11
66.1190469999999948
21
-85.4657709999999895
0
LINE
8
LYELLOW
6
CONTINUOUS
10
66.1190469999999948
20
-85.4657709999999895
11
66.2142850000000038
21
-85.5133900000000011
0
LINE
8
LYELLOW
6
CONTINUOUS
10
66.2142850000000038
20
-85.5133900000000011
11
66.2619040000000012
21
-85.5610089999999985
0
LINE
8
LYELLOW
6
CONTINUOUS
10
66.2619040000000012
20
-85.5610089999999985
11
66.3095229999999987
21
-85.6562469999999934
0
LINE
8
LYELLOW
6
CONTINUOUS
10
66.3095229999999987
20
-85.6562469999999934
11
66.3095229999999987
21
-85.8943419999999946
0
LINE
8
LYELLOW
6
CONTINUOUS
10
66.3095229999999987
20
-85.8943419999999946
11
66.2619040000000012
21
-85.9895799999999895
0
LINE
8
LYELLOW
6
CONTINUOUS
10
66.2619040000000012
20
-85.9895799999999895
11
66.2142850000000038
21
-86.0371999999999986
0
LINE
8
LYELLOW
6
CONTINUOUS
10
66.2142850000000038
20
-86.0371999999999986
11
66.1190469999999948
21
-86.084818999999996
0
LINE
8
LYELLOW
6
CONTINUOUS
10
66.1190469999999948
20
-86.084818999999996
11
65.8333329999999961
21
-86.084818999999996
0
LINE
8
LYELLOW
6
CONTINUOUS
10
65.8333329999999961
20
-86.084818999999996
11
65.7380950000000013
21
-86.0371999999999986
0
LINE
8
LYELLOW
6
CONTINUOUS
10
65.7380950000000013
20
-86.0371999999999986
11
65.6904760000000039
21
-85.9895799999999895
0
LINE
8
LYELLOW
6
CONTINUOUS
10
66.6428569999999922
20
-85.084818999999996
11
67.2619040000000012
21
-85.084818999999996
0
LINE
8
LYELLOW
6
CONTINUOUS
10
67.2619040000000012
20
-85.084818999999996
11
66.9285709999999909
21
-85.4657709999999895
0
LINE
8
LYELLOW
6
CONTINUOUS
10
66.9285709999999909
20
-85.4657709999999895
11
67.0714279999999974
21
-85.4657709999999895
0
LINE
8
LYELLOW
6
CONTINUOUS
10
67.0714279999999974
20
-85.4657709999999895
11
67.1666659999999922
21
-85.5133900000000011
0
LINE
8
LYELLOW
6
CONTINUOUS
10
67.1666659999999922
20
-85.5133900000000011
11
67.2142850000000038
21
-85.5610089999999985
0
LINE
8
LYELLOW
6
CONTINUOUS
10
67.2142850000000038
20
-85.5610089999999985
11
67.2619040000000012
21
-85.6562469999999934
0
LINE
8
LYELLOW
6
CONTINUOUS
10
67.2619040000000012
20
-85.6562469999999934
11
67.2619040000000012
21
-85.8943419999999946
0
LINE
8
LYELLOW
6
CONTINUOUS
10
67.2619040000000012
20
-85.8943419999999946
11
67.2142850000000038
21
-85.9895799999999895
0
LINE
8
LYELLOW
6
CONTINUOUS
10
67.2142850000000038
20
-85.9895799999999895
11
67.1666659999999922
21
-86.0371999999999986
0
LINE
8
LYELLOW
6
CONTINUOUS
10
67.1666659999999922
20
-86.0371999999999986
11
67.0714279999999974
21
-86.084818999999996
0
LINE
8
LYELLOW
6
CONTINUOUS
10
67.0714279999999974
20
-86.084818999999996
11
66.7857139999999987
21
-86.084818999999996
0
LINE
8
LYELLOW
6
CONTINUOUS
10
66.7857139999999987
20
-86.084818999999996
11
66.6904760000000039
21
-86.0371999999999986
0
LINE
8
LYELLOW
6
CONTINUOUS
10
66.6904760000000039
20
-86.0371999999999986
11
66.6428569999999922
21
-85.9895799999999895
0
LINE
8
LYELLOW
6
CONTINUOUS
10
85.2380950000000013
20
-65.314819
11
85.2380950000000013
21
-66.1243419999999986
0
LINE
8
LYELLOW
6
CONTINUOUS
10
85.2380950000000013
20
-66.1243419999999986
11
85.2857139999999987
21
-66.2195799999999934
0
LINE
8
LYELLOW
6
CONTINUOUS
10
85.2857139999999987
20
-66.2195799999999934
11
85.3333329999999961
21
-66.2672000000000025
0
LINE
8
LYELLOW
6
CONTINUOUS
10
85.3333329999999961
20
-66.2672000000000025
11
85.4285709999999909
21
-66.314819
0
LINE
8
LYELLOW
6
CONTINUOUS
10
85.4285709999999909
20
-66.314819
11
85.6190469999999948
21
-66.314819
0
LINE
8
LYELLOW
6
CONTINUOUS
10
85.6190469999999948
20
-66.314819
11
85.7142849999999896
21
-66.2672000000000025
0
LINE
8
LYELLOW
6
CONTINUOUS
10
85.7142849999999896
20
-66.2672000000000025
11
85.7619040000000012
21
-66.2195799999999934
0
LINE
8
LYELLOW
6
CONTINUOUS
10
85.7619040000000012
20
-66.2195799999999934
11
85.8095229999999987
21
-66.1243419999999986
0
LINE
8
LYELLOW
6
CONTINUOUS
10
85.8095229999999987
20
-66.1243419999999986
11
85.8095229999999987
21
-65.314819
0
LINE
8
LYELLOW
6
CONTINUOUS
10
86.2380950000000013
20
-65.4100569999999948
11
86.2857139999999987
21
-65.3624379999999974
0
LINE
8
LYELLOW
6
CONTINUOUS
10
86.2857139999999987
20
-65.3624379999999974
11
86.3809519999999935
21
-65.314819
0
LINE
8
LYELLOW
6
CONTINUOUS
10
86.3809519999999935
20
-65.314819
11
86.6190469999999948
21
-65.314819
0
LINE
8
LYELLOW
6
CONTINUOUS
10
86.6190469999999948
20
-65.314819
11
86.7142849999999896
21
-65.3624379999999974
0
LINE
8
LYELLOW
6
CONTINUOUS
10
86.7142849999999896
20
-65.3624379999999974
11
86.7619040000000012
21
-65.4100569999999948
0
LINE
8
LYELLOW
6
CONTINUOUS
10
86.7619040000000012
20
-65.4100569999999948
11
86.8095229999999987
21
-65.5052950000000038
0
LINE
8
LYELLOW
6
CONTINUOUS
10
86.8095229999999987
20
-65.5052950000000038
11
86.8095229999999987
21
-65.6005329999999987
0
LINE
8
LYELLOW
6
CONTINUOUS
10
86.8095229999999987
20
-65.6005329999999987
11
86.7619040000000012
21
-65.7433899999999909
0
LINE
8
LYELLOW
6
CONTINUOUS
10
86.7619040000000012
20
-65.7433899999999909
11
86.1904759999999897
21
-66.314819
0
LINE
8
LYELLOW
6
CONTINUOUS
10
86.1904759999999897
20
-66.314819
11
86.8095229999999987
21
-66.314819
0
LINE
8
LYELLOW
6
CONTINUOUS
10
65.3571419999999961
20
-74.084818999999996
11
65.023809
21
-73.608627999999996
0
LINE
8
LYELLOW
6
CONTINUOUS
10
64.7857139999999987
20
-74.084818999999996
11
64.7857139999999987
21
-73.084818999999996
0
LINE
8
LYELLOW
6
CONTINUOUS
10
64.7857139999999987
20
-73.084818999999996
11
65.1666659999999922
21
-73.084818999999996
0
LINE
8
LYELLOW
6
CONTINUOUS
10
65.1666659999999922
20
-73.084818999999996
11
65.2619040000000012
21
-73.1324379999999934
0
LINE
8
LYELLOW
6
CONTINUOUS
10
65.2619040000000012
20
-73.1324379999999934
11
65.3095229999999987
21
-73.1800569999999908
0
LINE
8
LYELLOW
6
CONTINUOUS
10
65.3095229999999987
20
-73.1800569999999908
11
65.3571419999999961
21
-73.2752949999999998
0
LINE
8
LYELLOW
6
CONTINUOUS
10
65.3571419999999961
20
-73.2752949999999998
11
65.3571419999999961
21
-73.4181519999999921
0
LINE
8
LYELLOW
6
CONTINUOUS
10
65.3571419999999961
20
-73.4181519999999921
11
65.3095229999999987
21
-73.5133900000000011
0
LINE
8
LYELLOW
6
CONTINUOUS
10
65.3095229999999987
20
-73.5133900000000011
11
65.2619040000000012
21
-73.5610089999999985
0
LINE
8
LYELLOW
6
CONTINUOUS
10
65.2619040000000012
20
-73.5610089999999985
11
65.1666659999999922
21
-73.608627999999996
0
LINE
8
LYELLOW
6
CONTINUOUS
10
65.1666659999999922
20
-73.608627999999996
11
64.7857139999999987
21
-73.608627999999996
0
LINE
8
LYELLOW
6
CONTINUOUS
10
65.6904760000000039
20
-73.084818999999996
11
66.3095229999999987
21
-73.084818999999996
0
LINE
8
LYELLOW
6
CONTINUOUS
10
66.3095229999999987
20
-73.084818999999996
11
65.9761900000000026
21
-73.4657710000000037
0
LINE
8
LYELLOW
6
CONTINUOUS
10
65.9761900000000026
20
-73.4657710000000037
11
66.1190469999999948
21
-73.4657710000000037
0
LINE
8
LYELLOW
6
CONTINUOUS
10
66.1190469999999948
20
-73.4657710000000037
11
66.2142850000000038
21
-73.5133900000000011
0
LINE
8
LYELLOW
6
CONTINUOUS
10
66.2142850000000038
20
-73.5133900000000011
11
66.2619040000000012
21
-73.5610089999999985
0
LINE
8
LYELLOW
6
CONTINUOUS
10
66.2619040000000012
20
-73.5610089999999985
11
66.3095229999999987
21
-73.6562469999999934
0
LINE
8
LYELLOW
6
CONTINUOUS
10
66.3095229999999987
20
-73.6562469999999934
11
66.3095229999999987
21
-73.8943419999999946
0
LINE
8
LYELLOW
6
CONTINUOUS
10
66.3095229999999987
20
-73.8943419999999946
11
66.2619040000000012
21
-73.9895800000000037
0
LINE
8
LYELLOW
6
CONTINUOUS
10
66.2619040000000012
20
-73.9895800000000037
11
66.2142850000000038
21
-74.0371999999999986
0
LINE
8
LYELLOW
6
CONTINUOUS
10
66.2142850000000038
20
-74.0371999999999986
11
66.1190469999999948
21
-74.084818999999996
0
LINE
8
LYELLOW
6
CONTINUOUS
10
66.1190469999999948
20
-74.084818999999996
11
65.8333329999999961
21
-74.084818999999996
0
LINE
8
LYELLOW
6
CONTINUOUS
10
65.8333329999999961
20
-74.084818999999996
11
65.7380950000000013
21
-74.0371999999999986
0
LINE
8
LYELLOW
6
CONTINUOUS
10
65.7380950000000013
20
-74.0371999999999986
11
65.6904760000000039
21
-73.9895800000000037
0
LINE
8
LYELLOW
6
CONTINUOUS
10
66.6904760000000039
20
-73.1800569999999908
11
66.7380950000000013
21
-73.1324379999999934
0
LINE
8
LYELLOW
6
CONTINUOUS
10
66.7380950000000013
20
-73.1324379999999934
11
66.8333329999999961
21
-73.084818999999996
0
LINE
8
LYELLOW
6
CONTINUOUS
10
66.8333329999999961
20
-73.084818999999996
11
67.0714279999999974
21
-73.084818999999996
0
LINE
8
LYELLOW
6
CONTINUOUS
10
67.0714279999999974
20
-73.084818999999996
11
67.1666659999999922
21
-73.1324379999999934
0
LINE
8
LYELLOW
6
CONTINUOUS
10
67.1666659999999922
20
-73.1324379999999934
11
67.2142850000000038
21
-73.1800569999999908
0
LINE
8
LYELLOW
6
CONTINUOUS
10
67.2142850000000038
20
-73.1800569999999908
11
67.2619040000000012
21
-73.2752949999999998
0
LINE
8
LYELLOW
6
CONTINUOUS
10
67.2619040000000012
20
-73.2752949999999998
11
67.2619040000000012
21
-73.3705329999999947
0
LINE
8
LYELLOW
6
CONTINUOUS
10
67.2619040000000012
20
-73.3705329999999947
11
67.2142850000000038
21
-73.5133900000000011
0
LINE
8
LYELLOW
6
CONTINUOUS
10
67.2142850000000038
20
-73.5133900000000011
11
66.6428569999999922
21
-74.084818999999996
0
LINE
8
LYELLOW
6
CONTINUOUS
10
66.6428569999999922
20
-74.084818999999996
11
67.2619040000000012
21
-74.084818999999996
0
LINE
8
LYELLOW
6
CONTINUOUS
10
98.8333329999999961
20
-25.8595799999999976
11
98.7857139999999987
21
-25.9071999999999996
0
LINE
8
LYELLOW
6
CONTINUOUS
10
98.7857139999999987
20
-25.9071999999999996
11
98.6428569999999922
21
-25.9548190000000005
0
LINE
8
LYELLOW
6
CONTINUOUS
10
98.6428569999999922
20
-25.9548190000000005
11
98.5476189999999974
21
-25.9548190000000005
0
LINE
8
LYELLOW
6
CONTINUOUS
10
98.5476189999999974
20
-25.9548190000000005
11
98.404761999999991
21
-25.9071999999999996
0
LINE
8
LYELLOW
6
CONTINUOUS
10
98.404761999999991
20
-25.9071999999999996
11
98.3095239999999961
21
-25.8119610000000002
0
LINE
8
LYELLOW
6
CONTINUOUS
10
98.3095239999999961
20
-25.8119610000000002
11
98.2619049999999987
21
-25.7167229999999982
0
LINE
8
LYELLOW
6
CONTINUOUS
10
98.2619049999999987
20
-25.7167229999999982
11
98.2142860000000013
21
-25.5262469999999979
0
LINE
8
LYELLOW
6
CONTINUOUS
10
98.2142860000000013
20
-25.5262469999999979
11
98.2142860000000013
21
-25.3833899999999986
0
LINE
8
LYELLOW
6
CONTINUOUS
10
98.2142860000000013
20
-25.3833899999999986
11
98.2619049999999987
21
-25.1929139999999983
0
LINE
8
LYELLOW
6
CONTINUOUS
10
98.2619049999999987
20
-25.1929139999999983
11
98.3095239999999961
21
-25.0976759999999999
0
LINE
8
LYELLOW
6
CONTINUOUS
10
98.3095239999999961
20
-25.0976759999999999
11
98.404761999999991
21
-25.0024379999999979
0
LINE
8
LYELLOW
6
CONTINUOUS
10
98.404761999999991
20
-25.0024379999999979
11
98.5476189999999974
21
-24.9548190000000005
0
LINE
8
LYELLOW
6
CONTINUOUS
10
98.5476189999999974
20
-24.9548190000000005
11
98.6428569999999922
21
-24.9548190000000005
0
LINE
8
LYELLOW
6
CONTINUOUS
10
98.6428569999999922
20
-24.9548190000000005
11
98.7857139999999987
21
-25.0024379999999979
0
LINE
8
LYELLOW
6
CONTINUOUS
10
98.7857139999999987
20
-25.0024379999999979
11
98.8333329999999961
21
-25.0500569999999989
0
LINE
8
LYELLOW
6
CONTINUOUS
10
99.7857139999999987
20
-25.9548190000000005
11
99.2142860000000013
21
-25.9548190000000005
0
LINE
8
LYELLOW
6
CONTINUOUS
10
99.5
20
-25.9548190000000005
11
99.5
21
-24.9548190000000005
0
LINE
8
LYELLOW
6
CONTINUOUS
10
99.5
20
-24.9548190000000005
11
99.404761999999991
21
-25.0976759999999999
0
LINE
8
LYELLOW
6
CONTINUOUS
10
99.404761999999991
20
-25.0976759999999999
11
99.3095239999999961
21
-25.1929139999999983
0
LINE
8
LYELLOW
6
CONTINUOUS
10
99.3095239999999961
20
-25.1929139999999983
11
99.2142860000000013
21
-25.2405329999999992
0
LINE
8
LYELLOW
6
CONTINUOUS
10
124.6666659999999922
20
-45.9948189999999997
11
124.6666659999999922
21
-46.7091039999999964
0
LINE
8
LYELLOW
6
CONTINUOUS
10
124.6666659999999922
20
-46.7091039999999964
11
124.6190469999999948
21
-46.8519609999999957
0
LINE
8
LYELLOW
6
CONTINUOUS
10
124.6190469999999948
20
-46.8519609999999957
11
124.523809
21
-46.9471999999999952
0
LINE
8
LYELLOW
6
CONTINUOUS
10
124.523809
20
-46.9471999999999952
11
124.3809519999999935
21
-46.9948189999999997
0
LINE
8
LYELLOW
6
CONTINUOUS
10
124.3809519999999935
20
-46.9948189999999997
11
124.2857139999999987
21
-46.9948189999999997
0
LINE
8
LYELLOW
6
CONTINUOUS
10
125.5714279999999974
20
-46.3281519999999958
11
125.5714279999999974
21
-46.9948189999999997
0
LINE
8
LYELLOW
6
CONTINUOUS
10
125.3333329999999961
20
-45.9471999999999952
11
125.0952379999999948
21
-46.661484999999999
0
LINE
8
LYELLOW
6
CONTINUOUS
10
125.0952379999999948
20
-46.661484999999999
11
125.7142849999999896
21
-46.661484999999999
0
LINE
8
LYELLOW
6
CONTINUOUS
10
65.3571419999999961
20
-48.084818999999996
11
65.023809
21
-47.608627999999996
0
LINE
8
LYELLOW
6
CONTINUOUS
10
64.7857139999999987
20
-48.084818999999996
11
64.7857139999999987
21
-47.084818999999996
0
LINE
8
LYELLOW
6
CONTINUOUS
10
64.7857139999999987
20
-47.084818999999996
11
65.1666659999999922
21
-47.084818999999996
0
LINE
8
LYELLOW
6
CONTINUOUS
10
65.1666659999999922
20
-47.084818999999996
11
65.2619040000000012
21
-47.1324380000000005
0
LINE
8
LYELLOW
6
CONTINUOUS
10
65.2619040000000012
20
-47.1324380000000005
11
65.3095229999999987
21
-47.1800569999999979
0
LINE
8
LYELLOW
6
CONTINUOUS
10
65.3095229999999987
20
-47.1800569999999979
11
65.3571419999999961
21
-47.2752949999999998
0
LINE
8
LYELLOW
6
CONTINUOUS
10
65.3571419999999961
20
-47.2752949999999998
11
65.3571419999999961
21
-47.4181519999999992
0
LINE
8
LYELLOW
6
CONTINUOUS
10
65.3571419999999961
20
-47.4181519999999992
11
65.3095229999999987
21
-47.5133900000000011
0
LINE
8
LYELLOW
6
CONTINUOUS
10
65.3095229999999987
20
-47.5133900000000011
11
65.2619040000000012
21
-47.5610089999999985
0
LINE
8
LYELLOW
6
CONTINUOUS
10
65.2619040000000012
20
-47.5610089999999985
11
65.1666659999999922
21
-47.608627999999996
0
LINE
8
LYELLOW
6
CONTINUOUS
10
65.1666659999999922
20
-47.608627999999996
11
64.7857139999999987
21
-47.608627999999996
0
LINE
8
LYELLOW
6
CONTINUOUS
10
65.7380950000000013
20
-47.1800569999999979
11
65.7857139999999987
21
-47.1324380000000005
0
LINE
8
LYELLOW
6
CONTINUOUS
10
65.7857139999999987
20
-47.1324380000000005
11
65.8809519999999935
21
-47.084818999999996
0
LINE
8
LYELLOW
6
CONTINUOUS
10
65.8809519999999935
20
-47.084818999999996
11
66.1190469999999948
21
-47.084818999999996
0
LINE
8
LYELLOW
6
CONTINUOUS
10
66.1190469999999948
20
-47.084818999999996
11
66.2142850000000038
21
-47.1324380000000005
0
LINE
8
LYELLOW
6
CONTINUOUS
10
66.2142850000000038
20
-47.1324380000000005
11
66.2619040000000012
21
-47.1800569999999979
0
LINE
8
LYELLOW
6
CONTINUOUS
10
66.2619040000000012
20
-47.1800569999999979
11
66.3095229999999987
21
-47.2752949999999998
0
LINE
8
LYELLOW
6
CONTINUOUS
10
66.3095229999999987
20
-47.2752949999999998
11
66.3095229999999987
21
-47.3705329999999947
0
LINE
8
LYELLOW
6
CONTINUOUS
10
66.3095229999999987
20
-47.3705329999999947
11
66.2619040000000012
21
-47.5133900000000011
0
LINE
8
LYELLOW
6
CONTINUOUS
10
66.2619040000000012
20
-47.5133900000000011
11
65.6904760000000039
21
-48.084818999999996
0
LINE
8
LYELLOW
6
CONTINUOUS
10
65.6904760000000039
20
-48.084818999999996
11
66.3095229999999987
21
-48.084818999999996
0
LINE
8
LYELLOW
6
CONTINUOUS
10
66.6904760000000039
20
-47.1800569999999979
11
66.7380950000000013
21
-47.1324380000000005
0
LINE
8
LYELLOW
6
CONTINUOUS
10
66.7380950000000013
20
-47.1324380000000005
11
66.8333329999999961
21
-47.084818999999996
0
LINE
8
LYELLOW
6
CONTINUOUS
10
66.8333329999999961
20
-47.084818999999996
11
67.0714279999999974
21
-47.084818999999996
0
LINE
8
LYELLOW
6
CONTINUOUS
10
67.0714279999999974
20
-47.084818999999996
11
67.1666659999999922
21
-47.1324380000000005
0
LINE
8
LYELLOW
6
CONTINUOUS
10
67.1666659999999922
20
-47.1324380000000005
11
67.2142850000000038
21
-47.1800569999999979
0
LINE
8
LYELLOW
6
CONTINUOUS
10
67.2142850000000038
20
-47.1800569999999979
11
67.2619040000000012
21
-47.2752949999999998
0
LINE
8
LYELLOW
6
CONTINUOUS
10
67.2619040000000012
20
-47.2752949999999998
11
67.2619040000000012
21
-47.3705329999999947
0
LINE
8
LYELLOW
6
CONTINUOUS
10
67.2619040000000012
20
-47.3705329999999947
11
67.2142850000000038
21
-47.5133900000000011
0
LINE
8
LYELLOW
6
CONTINUOUS
10
67.2142850000000038
20
-47.5133900000000011
11
66.6428569999999922
21
-48.084818999999996
0
LINE
8
LYELLOW
6
CONTINUOUS
10
66.6428569999999922
20
-48.084818999999996
11
67.2619040000000012
21
-48.084818999999996
0
LINE
8
LYELLOW
6
CONTINUOUS
10
51.3571419999999961
20
-28.0848189999999995
11
51.023809
21
-27.6086279999999995
0
LINE
8
LYELLOW
6
CONTINUOUS
10
50.7857139999999987
20
-28.0848189999999995
11
50.7857139999999987
21
-27.0848189999999995
0
LINE
8
LYELLOW
6
CONTINUOUS
10
50.7857139999999987
20
-27.0848189999999995
11
51.1666659999999993
21
-27.0848189999999995
0
LINE
8
LYELLOW
6
CONTINUOUS
10
51.1666659999999993
20
-27.0848189999999995
11
51.2619039999999941
21
-27.1324380000000005
0
LINE
8
LYELLOW
6
CONTINUOUS
10
51.2619039999999941
20
-27.1324380000000005
11
51.3095229999999987
21
-27.1800569999999979
0
LINE
8
LYELLOW
6
CONTINUOUS
10
51.3095229999999987
20
-27.1800569999999979
11
51.3571419999999961
21
-27.2752949999999998
0
LINE
8
LYELLOW
6
CONTINUOUS
10
51.3571419999999961
20
-27.2752949999999998
11
51.3571419999999961
21
-27.4181519999999992
0
LINE
8
LYELLOW
6
CONTINUOUS
10
51.3571419999999961
20
-27.4181519999999992
11
51.3095229999999987
21
-27.5133899999999976
0
LINE
8
LYELLOW
6
CONTINUOUS
10
51.3095229999999987
20
-27.5133899999999976
11
51.2619039999999941
21
-27.5610089999999985
0
LINE
8
LYELLOW
6
CONTINUOUS
10
51.2619039999999941
20
-27.5610089999999985
11
51.1666659999999993
21
-27.6086279999999995
0
LINE
8
LYELLOW
6
CONTINUOUS
10
51.1666659999999993
20
-27.6086279999999995
11
50.7857139999999987
21
-27.6086279999999995
0
LINE
8
LYELLOW
6
CONTINUOUS
10
52.3095229999999987
20
-28.0848189999999995
11
51.7380949999999942
21
-28.0848189999999995
0
LINE
8
LYELLOW
6
CONTINUOUS
10
52.023809
20
-28.0848189999999995
11
52.023809
21
-27.0848189999999995
0
LINE
8
LYELLOW
6
CONTINUOUS
10
52.023809
20
-27.0848189999999995
11
51.928570999999998
21
-27.2276759999999989
0
LINE
8
LYELLOW
6
CONTINUOUS
10
51.928570999999998
20
-27.2276759999999989
11
51.8333329999999961
21
-27.3229139999999973
0
LINE
8
LYELLOW
6
CONTINUOUS
10
51.8333329999999961
20
-27.3229139999999973
11
51.7380949999999942
21
-27.3705329999999982
0
LINE
8
LYELLOW
6
CONTINUOUS
10
53.2619039999999941
20
-28.0848189999999995
11
52.6904759999999968
21
-28.0848189999999995
0
LINE
8
LYELLOW
6
CONTINUOUS
10
52.9761899999999955
20
-28.0848189999999995
11
52.9761899999999955
21
-27.0848189999999995
0
LINE
8
LYELLOW
6
CONTINUOUS
10
52.9761899999999955
20
-27.0848189999999995
11
52.8809520000000006
21
-27.2276759999999989
0
LINE
8
LYELLOW
6
CONTINUOUS
10
52.8809520000000006
20
-27.2276759999999989
11
52.7857139999999987
21
-27.3229139999999973
0
LINE
8
LYELLOW
6
CONTINUOUS
10
52.7857139999999987
20
-27.3229139999999973
11
52.6904759999999968
21
-27.3705329999999982
0
LINE
8
LYELLOW
6
CONTINUOUS
10
65.3571419999999961
20
-22.0848189999999995
11
65.023809
21
-21.6086279999999995
0
LINE
8
LYELLOW
6
CONTINUOUS
10
64.7857139999999987
20
-22.0848189999999995
11
64.7857139999999987
21
-21.0848189999999995
0
LINE
8
LYELLOW
6
CONTINUOUS
10
64.7857139999999987
20
-21.0848189999999995
11
65.1666659999999922
21
-21.0848189999999995
0
LINE
8
LYELLOW
6
CONTINUOUS
10
65.1666659999999922
20
-21.0848189999999995
11
65.2619040000000012
21
-21.1324380000000005
0
LINE
8
LYELLOW
6
CONTINUOUS
10
65.2619040000000012
20
-21.1324380000000005
11
65.3095229999999987
21
-21.1800569999999979
0
LINE
8
LYELLOW
6
CONTINUOUS
10
65.3095229999999987
20
-21.1800569999999979
11
65.3571419999999961
21
-21.2752949999999998
0
LINE
8
LYELLOW
6
CONTINUOUS
10
65.3571419999999961
20
-21.2752949999999998
11
65.3571419999999961
21
-21.4181519999999992
0
LINE
8
LYELLOW
6
CONTINUOUS
10
65.3571419999999961
20
-21.4181519999999992
11
65.3095229999999987
21
-21.5133899999999976
0
LINE
8
LYELLOW
6
CONTINUOUS
10
65.3095229999999987
20
-21.5133899999999976
11
65.2619040000000012
21
-21.5610089999999985
0
LINE
8
LYELLOW
6
CONTINUOUS
10
65.2619040000000012
20
-21.5610089999999985
11
65.1666659999999922
21
-21.6086279999999995
0
LINE
8
LYELLOW
6
CONTINUOUS
10
65.1666659999999922
20
-21.6086279999999995
11
64.7857139999999987
21
-21.6086279999999995
0
LINE
8
LYELLOW
6
CONTINUOUS
10
66.3095229999999987
20
-22.0848189999999995
11
65.7380950000000013
21
-22.0848189999999995
0
LINE
8
LYELLOW
6
CONTINUOUS
10
66.023809
20
-22.0848189999999995
11
66.023809
21
-21.0848189999999995
0
LINE
8
LYELLOW
6
CONTINUOUS
10
66.023809
20
-21.0848189999999995
11
65.9285709999999909
21
-21.2276759999999989
0
LINE
8
LYELLOW
6
CONTINUOUS
10
65.9285709999999909
20
-21.2276759999999989
11
65.8333329999999961
21
-21.3229139999999973
0
LINE
8
LYELLOW
6
CONTINUOUS
10
65.8333329999999961
20
-21.3229139999999973
11
65.7380950000000013
21
-21.3705329999999982
0
LINE
8
LYELLOW
6
CONTINUOUS
10
66.6904760000000039
20
-21.1800569999999979
11
66.7380950000000013
21
-21.1324380000000005
0
LINE
8
LYELLOW
6
CONTINUOUS
10
66.7380950000000013
20
-21.1324380000000005
11
66.8333329999999961
21
-21.0848189999999995
0
LINE
8
LYELLOW
6
CONTINUOUS
10
66.8333329999999961
20
-21.0848189999999995
11
67.0714279999999974
21
-21.0848189999999995
0
LINE
8
LYELLOW
6
CONTINUOUS
10
67.0714279999999974
20
-21.0848189999999995
11
67.1666659999999922
21
-21.1324380000000005
0
LINE
8
LYELLOW
6
CONTINUOUS
10
67.1666659999999922
20
-21.1324380000000005
11
67.2142850000000038
21
-21.1800569999999979
0
LINE
8
LYELLOW
6
CONTINUOUS
10
67.2142850000000038
20
-21.1800569999999979
11
67.2619040000000012
21
-21.2752949999999998
0
LINE
8
LYELLOW
6
CONTINUOUS
10
67.2619040000000012
20
-21.2752949999999998
11
67.2619040000000012
21
-21.3705329999999982
0
LINE
8
LYELLOW
6
CONTINUOUS
10
67.2619040000000012
20
-21.3705329999999982
11
67.2142850000000038
21
-21.5133899999999976
0
LINE
8
LYELLOW
6
CONTINUOUS
10
67.2142850000000038
20
-21.5133899999999976
11
66.6428569999999922
21
-22.0848189999999995
0
LINE
8
LYELLOW
6
CONTINUOUS
10
66.6428569999999922
20
-22.0848189999999995
11
67.2619040000000012
21
-22.0848189999999995
0
LINE
8
LYELLOW
6
CONTINUOUS
10
29.9199999999999982
20
-78.1899999999999977
11
29.9199999999999982
21
-85.8100000000000023
0
LINE
8
LYELLOW
6
CONTINUOUS
10
29.9199999999999982
20
-79.4599999999999937
11
40.0799999999999983
21
-79.4599999999999937
0
LINE
8
LYELLOW
6
CONTINUOUS
10
29.9199999999999982
20
-85.8100000000000023
11
40.0799999999999983
21
-85.8100000000000023
0
LINE
8
LYELLOW
6
CONTINUOUS
10
40.0799999999999983
20
-78.1899999999999977
11
29.9199999999999982
21
-78.1899999999999977
0
LINE
8
LYELLOW
6
CONTINUOUS
10
40.0799999999999983
20
-85.8100000000000023
11
40.0799999999999983
21
-78.1899999999999977
0
LINE
8
LYELLOW
6
CONTINUOUS
10
29.9199999999999982
20
-52.1899999999999977
11
29.9199999999999982
21
-59.8099999999999952
0
LINE
8
LYELLOW
6
CONTINUOUS
10
29.9199999999999982
20
-53.4600000000000009
11
40.0799999999999983
21
-53.4600000000000009
0
LINE
8
LYELLOW
6
CONTINUOUS
10
29.9199999999999982
20
-59.8099999999999952
11
40.0799999999999983
21
-59.8099999999999952
0
LINE
8
LYELLOW
6
CONTINUOUS
10
40.0799999999999983
20
-52.1899999999999977
11
29.9199999999999982
21
-52.1899999999999977
0
LINE
8
LYELLOW
6
CONTINUOUS
10
40.0799999999999983
20
-59.8099999999999952
11
40.0799999999999983
21
-52.1899999999999977
0
LINE
8
LYELLOW
6
CONTINUOUS
10
29.9199999999999982
20
-26.1899999999999977
11
29.9199999999999982
21
-33.8099999999999952
0
LINE
8
LYELLOW
6
CONTINUOUS
10
29.9199999999999982
20
-27.4599999999999973
11
40.0799999999999983
21
-27.4599999999999973
0
LINE
8
LYELLOW
6
CONTINUOUS
10
29.9199999999999982
20
-33.8099999999999952
11
40.0799999999999983
21
-33.8099999999999952
0
LINE
8
LYELLOW
6
CONTINUOUS
10
40.0799999999999983
20
-26.1899999999999977
11
29.9199999999999982
21
-26.1899999999999977
0
LINE
8
LYELLOW
6
CONTINUOUS
10
40.0799999999999983
20
-33.8099999999999952
11
40.0799999999999983
21
-26.1899999999999977
0
LINE
8
LYELLOW
6
CONTINUOUS
10
62.7299999999999969
20
-34.6299999999999955
11
69.269999999999996
21
-34.6299999999999955
0
LINE
8
LYELLOW
6
CONTINUOUS
10
62.7299999999999969
20
-34.9600000000000009
11
62.7299999999999969
21
-34.6299999999999955
0
LINE
8
LYELLOW
6
CONTINUOUS
10
62.7299999999999969
20
-37.0399999999999991
11
62.7299999999999969
21
-37.3699999999999974
0
LINE
8
LYELLOW
6
CONTINUOUS
10
62.7299999999999969
20
-37.3699999999999974
11
69.269999999999996
21
-37.3699999999999974
0
LINE
8
LYELLOW
6
CONTINUOUS
10
69.269999999999996
20
-34.6299999999999955
11
69.269999999999996
21
-34.9600000000000009
0
LINE
8
LYELLOW
6
CONTINUOUS
10
69.269999999999996
20
-37.3699999999999974
11
69.269999999999996
21
-37.0399999999999991
0
LINE
8
LYELLOW
6
CONTINUOUS
10
62.7299999999999969
20
-60.6299999999999955
11
69.269999999999996
21
-60.6299999999999955
0
LINE
8
LYELLOW
6
CONTINUOUS
10
62.7299999999999969
20
-60.9599999999999937
11
62.7299999999999969
21
-60.6299999999999955
0
LINE
8
LYELLOW
6
CONTINUOUS
10
62.7299999999999969
20
-63.0399999999999991
11
62.7299999999999969
21
-63.3699999999999974
0
LINE
8
LYELLOW
6
CONTINUOUS
10
62.7299999999999969
20
-63.3699999999999974
11
69.269999999999996
21
-63.3699999999999974
0
LINE
8
LYELLOW
6
CONTINUOUS
10
69.269999999999996
20
-60.6299999999999955
11
69.269999999999996
21
-60.9599999999999937
0
LINE
8
LYELLOW
6
CONTINUOUS
10
69.269999999999996
20
-63.3699999999999974
11
69.269999999999996
21
-63.0399999999999991
0
LINE
8
LYELLOW
6
CONTINUOUS
10
48.7299999999999969
20
-54.6299999999999955
11
55.269999999999996
21
-54.6299999999999955
0
LINE
8
LYELLOW
6
CONTINUOUS
10
48.7299999999999969
20
-54.9600000000000009
11
48.7299999999999969
21
-54.6299999999999955
0
LINE
8
LYELLOW
6
CONTINUOUS
10
48.7299999999999969
20
-57.0399999999999991
11
48.7299999999999969
21
-57.3699999999999974
0
LINE
8
LYELLOW
6
CONTINUOUS
10
48.7299999999999969
20
-57.3699999999999974
11
55.269999999999996
21
-57.3699999999999974
0
LINE
8
LYELLOW
6
CONTINUOUS
10
55.269999999999996
20
-54.6299999999999955
11
55.269999999999996
21
-54.9600000000000009
0
LINE
8
LYELLOW
6
CONTINUOUS
10
55.269999999999996
20
-57.3699999999999974
11
55.269999999999996
21
-57.0399999999999991
0
LINE
8
LYELLOW
6
CONTINUOUS
10
96.3799999999999955
20
-54.6299999999999955
11
101.6199999999999903
21
-54.6299999999999955
0
LINE
8
LYELLOW
6
CONTINUOUS
10
96.3799999999999955
20
-54.9669999999999987
11
96.3799999999999955
21
-54.6299999999999955
0
LINE
8
LYELLOW
6
CONTINUOUS
10
96.3799999999999955
20
-57.3699999999999974
11
96.3799999999999955
21
-57.0329999999999941
0
LINE
8
LYELLOW
6
CONTINUOUS
10
101.6199999999999903
20
-54.6299999999999955
11
101.6199999999999903
21
-54.9669999999999987
0
LINE
8
LYELLOW
6
CONTINUOUS
10
101.6199999999999903
20
-57.0329999999999941
11
101.6199999999999903
21
-57.3699999999999974
0
LINE
8
LYELLOW
6
CONTINUOUS
10
101.6199999999999903
20
-57.3699999999999974
11
96.3799999999999955
21
-57.3699999999999974
0
LINE
8
LYELLOW
6
CONTINUOUS
10
83.75
20
-35.8599999999999994
11
83.75
21
-46.1400000000000006
0
LINE
8
LYELLOW
6
CONTINUOUS
10
83.75
20
-46.1400000000000006
11
88.25
21
-46.1400000000000006
0
LINE
8
LYELLOW
6
CONTINUOUS
10
85.
20
-35.8599999999999994
11
83.75
21
-35.8599999999999994
0
LINE
8
LYELLOW
6
CONTINUOUS
10
88.25
20
-35.8599999999999994
11
87.
21
-35.8599999999999994
0
LINE
8
LYELLOW
6
CONTINUOUS
10
88.25
20
-46.1400000000000006
11
88.25
21
-35.8599999999999994
0
ARC
8
LYELLOW
10
86.
20
-35.8599999999999994
40
1.
50
-180.00000000
51
-0.00000000
0
LINE
8
LYELLOW
6
CONTINUOUS
10
48.7299999999999969
20
-80.6299999999999955
11
55.269999999999996
21
-80.6299999999999955
0
LINE
8
LYELLOW
6
CONTINUOUS
10
48.7299999999999969
20
-80.9599999999999937
11
48.7299999999999969
21
-80.6299999999999955
0
LINE
8
LYELLOW
6
CONTINUOUS
10
48.7299999999999969
20
-83.039999999999992
11
48.7299999999999969
21
-83.3699999999999903
0
LINE
8
LYELLOW
6
CONTINUOUS
10
48.7299999999999969
20
-83.3699999999999903
11
55.269999999999996
21
-83.3699999999999903
0
LINE
8
LYELLOW
6
CONTINUOUS
10
55.269999999999996
20
-80.6299999999999955
11
55.269999999999996
21
-80.9599999999999937
0
LINE
8
LYELLOW
6
CONTINUOUS
10
55.269999999999996
20
-83.3699999999999903
11
55.269999999999996
21
-83.039999999999992
0
LINE
8
LYELLOW
6
CONTINUOUS
10
62.7299999999999969
20
-86.6299999999999955
11
69.269999999999996
21
-86.6299999999999955
0
LINE
8
LYELLOW
6
CONTINUOUS
10
62.7299999999999969
20
-86.9599999999999937
11
62.7299999999999969
21
-86.6299999999999955
0
LINE
8
LYELLOW
6
CONTINUOUS
10
62.7299999999999969
20
-89.039999999999992
11
62.7299999999999969
21
-89.3699999999999903
0
LINE
8
LYELLOW
6
CONTINUOUS
10
62.7299999999999969
20
-89.3699999999999903
11
69.269999999999996
21
-89.3699999999999903
0
LINE
8
LYELLOW
6
CONTINUOUS
10
69.269999999999996
20
-86.6299999999999955
11
69.269999999999996
21
-86.9599999999999937
0
LINE
8
LYELLOW
6
CONTINUOUS
10
69.269999999999996
20
-89.3699999999999903
11
69.269999999999996
21
-89.039999999999992
0
LINE
8
LYELLOW
6
CONTINUOUS
10
83.75
20
-66.8599999999999994
11
83.75
21
-77.1400000000000006
0
LINE
8
LYELLOW
6
CONTINUOUS
10
83.75
20
-77.1400000000000006
11
88.25
21
-77.1400000000000006
0
LINE
8
LYELLOW
6
CONTINUOUS
10
85.
20
-66.8599999999999994
11
83.75
21
-66.8599999999999994
0
LINE
8
LYELLOW
6
CONTINUOUS
10
88.25
20
-66.8599999999999994
11
87.
21
-66.8599999999999994
0
LINE
8
LYELLOW
6
CONTINUOUS
10
88.25
20
-77.1400000000000006
11
88.25
21
-66.8599999999999994
0
ARC
8
LYELLOW
10
86.
20
-66.8599999999999994
40
1.
50
-180.00000000
51
-0.00000000
0
LINE
8
LYELLOW
6
CONTINUOUS
10
62.7299999999999969
20
-74.6299999999999955
11
69.269999999999996
21
-74.6299999999999955
0
LINE
8
LYELLOW
6
CONTINUOUS
10
62.7299999999999969
20
-74.9599999999999937
11
62.7299999999999969
21
-74.6299999999999955
0
LINE
8
LYELLOW
6
CONTINUOUS
10
62.7299999999999969
20
-77.039999999999992
11
62.7299999999999969
21
-77.3699999999999903
0
LINE
8
LYELLOW
6
CONTINUOUS
10
62.7299999999999969
20
-77.3699999999999903
11
69.269999999999996
21
-77.3699999999999903
0
LINE
8
LYELLOW
6
CONTINUOUS
10
69.269999999999996
20
-74.6299999999999955
11
69.269999999999996
21
-74.9599999999999937
0
LINE
8
LYELLOW
6
CONTINUOUS
10
69.269999999999996
20
-77.3699999999999903
11
69.269999999999996
21
-77.039999999999992
0
LINE
8
LYELLOW
6
CONTINUOUS
10
96.3799999999999955
20
-26.629999999999999
11
101.6199999999999903
21
-26.629999999999999
0
LINE
8
LYELLOW
6
CONTINUOUS
10
96.3799999999999955
20
-26.9669999999999987
11
96.3799999999999955
21
-26.629999999999999
0
LINE
8
LYELLOW
6
CONTINUOUS
10
96.3799999999999955
20
-29.3699999999999974
11
96.3799999999999955
21
-29.0329999999999977
0
LINE
8
LYELLOW
6
CONTINUOUS
10
101.6199999999999903
20
-26.629999999999999
11
101.6199999999999903
21
-26.9669999999999987
0
LINE
8
LYELLOW
6
CONTINUOUS
10
101.6199999999999903
20
-29.0329999999999977
11
101.6199999999999903
21
-29.3699999999999974
0
LINE
8
LYELLOW
6
CONTINUOUS
10
101.6199999999999903
20
-29.3699999999999974
11
96.3799999999999955
21
-29.3699999999999974
0
LINE
8
LYELLOW
6
CONTINUOUS
10
123.6199999999999903
20
-47.5399999999999991
11
125.
21
-47.5399999999999991
0
LINE
8
LYELLOW
6
CONTINUOUS
10
123.6199999999999903
20
-48.9199999999999946
11
123.6199999999999903
21
-47.5399999999999991
0
LINE
8
LYELLOW
6
CONTINUOUS
10
123.6199999999999903
20
-50.1899999999999977
11
123.6199999999999903
21
-60.4599999999999937
0
LINE
8
LYELLOW
6
CONTINUOUS
10
123.6199999999999903
20
-50.1899999999999977
11
126.3799999999999955
21
-50.1899999999999977
0
LINE
8
LYELLOW
6
CONTINUOUS
10
123.6199999999999903
20
-60.4599999999999937
11
126.3799999999999955
21
-60.4599999999999937
0
LINE
8
LYELLOW
6
CONTINUOUS
10
126.3799999999999955
20
-50.1899999999999977
11
126.3799999999999955
21
-60.4599999999999937
0
LINE
8
LYELLOW
6
CONTINUOUS
10
62.7299999999999969
20
-48.6299999999999955
11
69.269999999999996
21
-48.6299999999999955
0
LINE
8
LYELLOW
6
CONTINUOUS
10
62.7299999999999969
20
-48.9600000000000009
11
62.7299999999999969
21
-48.6299999999999955
0
LINE
8
LYELLOW
6
CONTINUOUS
10
62.7299999999999969
20
-51.0399999999999991
11
62.7299999999999969
21
-51.3699999999999974
0
LINE
8
LYELLOW
6
CONTINUOUS
10
62.7299999999999969
20
-51.3699999999999974
11
69.269999999999996
21
-51.3699999999999974
0
LINE
8
LYELLOW
6
CONTINUOUS
10
69.269999999999996
20
-48.6299999999999955
11
69.269999999999996
21
-48.9600000000000009
0
LINE
8
LYELLOW
6
CONTINUOUS
10
69.269999999999996
20
-51.3699999999999974
11
69.269999999999996
21
-51.0399999999999991
0
LINE
8
LYELLOW
6
CONTINUOUS
10
48.7299999999999969
20
-28.629999999999999
11
55.269999999999996
21
-28.629999999999999
0
LINE
8
LYELLOW
6
CONTINUOUS
10
48.7299999999999969
20
-28.9599999999999973
11
48.7299999999999969
21
-28.629999999999999
0
LINE
8
LYELLOW
6
CONTINUOUS
10
48.7299999999999969
20
-31.0399999999999991
11
48.7299999999999969
21
-31.3699999999999974
0
LINE
8
LYELLOW
6
CONTINUOUS
10
48.7299999999999969
20
-31.3699999999999974
11
55.269999999999996
21
-31.3699999999999974
0
LINE
8
LYELLOW
6
CONTINUOUS
10
55.269999999999996
20
-28.629999999999999
11
55.269999999999996
21
-28.9599999999999973
0
LINE
8
LYELLOW
6
CONTINUOUS
10
55.269999999999996
20
-31.3699999999999974
11
55.269999999999996
21
-31.0399999999999991
0
LINE
8
LYELLOW
6
CONTINUOUS
10
62.7299999999999969
20
-22.629999999999999
11
69.269999999999996
21
-22.629999999999999
0
LINE
8
LYELLOW
6
CONTINUOUS
10
62.7299999999999969
20
-22.9599999999999973
11
62.7299999999999969
21
-22.629999999999999
0
LINE
8
LYELLOW
6
CONTINUOUS
10
62.7299999999999969
20
-25.0399999999999991
11
62.7299999999999969
21
-25.3699999999999974
0
LINE
8
LYELLOW
6
CONTINUOUS
10
62.7299999999999969
20
-25.3699999999999974
11
69.269999999999996
21
-25.3699999999999974
0
LINE
8
LYELLOW
6
CONTINUOUS
10
69.269999999999996
20
-22.629999999999999
11
69.269999999999996
21
-22.9599999999999973
0
LINE
8
LYELLOW
6
CONTINUOUS
10
69.269999999999996
20
-25.3699999999999974
11
69.269999999999996
21
-25.0399999999999991
0
LINE
8
WHITE
6
CONTINUOUS
10
20.
20
-20.
11
140.
21
-20.
0
LINE
8
WHITE
6
CONTINUOUS
10
140.
20
-20.
11
140.
21
-100.
0
LINE
8
WHITE
6
CONTINUOUS
10
140.
20
-100.
11
20.
21
-100.
0
LINE
8
WHITE
6
CONTINUOUS
10
20.
20
-100.
11
20.
21
-20.
  0
ENDSEC
  0
EOF
