  0
SECTION
  2
HEADER
  9
$ANGBASE
  50
0.0
  9
$ANGDIR
  70
1
  9
$MEASUREMENT
  70
1
  0
ENDSEC
  0
SECTION
  2
TABLES
  0
TABLE
  2
LTYPE
  70
4
  0
LTYPE
  5
40F
  2
CONTINUOUS
  70
0
  3
Solid line
  72
65
  73
0
  40
0.0
  0
LTYPE
  5
410
  2
DASHDOT
 70
0
  3
Dash Dot ____ _ ____ _
 72
65
 73
4
 40
2.0
 49
1.25
 49
-0.25
 49
0.25
 49
-0.25
  0
LTYPE
  5
411
  2
DASHED
 70
0
  3
Dashed __ __ __ __ __
 72
65
 73
2
 40
0.75
 49
0.5
 49
-0.25
  0
LTYPE
  5
43B
  2
DOTTED
 70
0
  3
Dotted .  .  .  .
 72
65
 73
2
 40
0.2
 49
0.0
 49
-0.2
  0
ENDTAB
  0
TABLE
  2
STYLE
  70
4
  0
STYLE
  2
KICAD
  70
0
  40
0
  41
1
  42
1
  50
0
  71
0
  3
isocp.shx
  0
STYLE
  2
KICADB
  70
0
  40
0
  41
1
  42
1
  50
0
  71
0
  3
isocp.shx
  0
STYLE
  2
KICADI
  70
0
  40
0
  41
1
  42
1
  50
15
  71
0
  3
isocp.shx
  0
STYLE
  2
KICADBI
  70
0
  40
0
  41
1
  42
1
  50
15
  71
0
  3
isocp.shx
  0
ENDTAB
  0
TABLE
  2
LAYER
  70
35
  0
LAYER
  2
BLACK
  70
0
  62
7
  6
CONTINUOUS
  0
LAYER
  2
GRAY1
  70
0
  62
251
  6
CONTINUOUS
  0
LAYER
  2
GRAY2
  70
0
  62
8
  6
CONTINUOUS
  0
LAYER
  2
GRAY3
  70
0
  62
9
  6
CONTINUOUS
  0
LAYER
  2
WHITE
  70
0
  62
7
  6
CONTINUOUS
  0
LAYER
  2
LYELLOW
  70
0
  62
51
  6
CONTINUOUS
  0
LAYER
  2
LORANGE
  70
0
  62
41
  6
CONTINUOUS
  0
LAYER
  2
BLUE1
  70
0
  62
178
  6
CONTINUOUS
  0
LAYER
  2
GREEN1
  70
0
  62
98
  6
CONTINUOUS
  0
LAYER
  2
CYAN1
  70
0
  62
138
  6
CONTINUOUS
  0
LAYER
  2
RED1
  70
0
  62
18
  6
CONTINUOUS
  0
LAYER
  2
MAGENTA1
  70
0
  62
228
  6
CONTINUOUS
  0
LAYER
  2
BROWN1
  70
0
  62
58
  6
CONTINUOUS
  0
LAYER
  2
ORANGE1
  70
0
  62
34
  6
CONTINUOUS
  0
LAYER
  2
BLUE2
  70
0
  62
5
  6
CONTINUOUS
  0
LAYER
  2
GREEN2
  70
0
  62
3
  6
CONTINUOUS
  0
LAYER
  2
CYAN2
  70
0
  62
4
  6
CONTINUOUS
  0
LAYER
  2
RED2
  70
0
  62
1
  6
CONTINUOUS
  0
LAYER
  2
MAGENTA2
  70
0
  62
6
  6
CONTINUOUS
  0
LAYER
  2
BROWN2
  70
0
  62
54
  6
CONTINUOUS
  0
LAYER
  2
ORANGE2
  70
0
  62
42
  6
CONTINUOUS
  0
LAYER
  2
BLUE3
  70
0
  62
171
  6
CONTINUOUS
  0
LAYER
  2
GREEN3
  70
0
  62
91
  6
CONTINUOUS
  0
LAYER
  2
CYAN3
  70
0
  62
131
  6
CONTINUOUS
  0
LAYER
  2
RED3
  70
0
  62
11
  6
CONTINUOUS
  0
LAYER
  2
MAGENTA3
  70
0
  62
221
  6
CONTINUOUS
  0
LAYER
  2
YELLOW3
  70
0
  62
2
  6
CONTINUOUS
  0
LAYER
  2
ORANGE3
  70
0
  62
32
  6
CONTINUOUS
  0
LAYER
  2
BLUE4
  70
0
  62
5
  6
CONTINUOUS
  0
LAYER
  2
GREEN4
  70
0
  62
3
  6
CONTINUOUS
  0
LAYER
  2
CYAN4
  70
0
  62
4
  6
CONTINUOUS
  0
LAYER
  2
RED4
  70
0
  62
1
  6
CONTINUOUS
  0
LAYER
  2
MAGENTA4
  70
0
  62
6
  6
CONTINUOUS
  0
LAYER
  2
YELLOW4
  70
0
  62
2
  6
CONTINUOUS
  0
LAYER
  2
ORANGE4
  70
0
  62
40
  6
CONTINUOUS
  0
ENDTAB
  0
ENDSEC
  0
SECTION
  2
ENTITIES
0
LINE
8
LYELLOW
6
CONTINUOUS
10
75.0121419999999972
20
-47.8198189999999954
11
74.6788090000000011
21
-47.3436279999999954
0
LINE
8
LYELLOW
6
CONTINUOUS
10
74.4407139999999998
20
-47.8198189999999954
11
74.4407139999999998
21
-46.8198189999999954
0
LINE
8
LYELLOW
6
CONTINUOUS
10
74.4407139999999998
20
-46.8198189999999954
11
74.8216659999999933
21
-46.8198189999999954
0
LINE
8
LYELLOW
6
CONTINUOUS
10
74.8216659999999933
20
-46.8198189999999954
11
74.9169040000000024
21
-46.8674379999999999
0
LINE
8
LYELLOW
6
CONTINUOUS
10
74.9169040000000024
20
-46.8674379999999999
11
74.9645229999999998
21
-46.9150569999999973
0
LINE
8
LYELLOW
6
CONTINUOUS
10
74.9645229999999998
20
-46.9150569999999973
11
75.0121419999999972
21
-47.0102949999999993
0
LINE
8
LYELLOW
6
CONTINUOUS
10
75.0121419999999972
20
-47.0102949999999993
11
75.0121419999999972
21
-47.1531519999999986
0
LINE
8
LYELLOW
6
CONTINUOUS
10
75.0121419999999972
20
-47.1531519999999986
11
74.9645229999999998
21
-47.2483900000000006
0
LINE
8
LYELLOW
6
CONTINUOUS
10
74.9645229999999998
20
-47.2483900000000006
11
74.9169040000000024
21
-47.296008999999998
0
LINE
8
LYELLOW
6
CONTINUOUS
10
74.9169040000000024
20
-47.296008999999998
11
74.8216659999999933
21
-47.3436279999999954
0
LINE
8
LYELLOW
6
CONTINUOUS
10
74.8216659999999933
20
-47.3436279999999954
11
74.4407139999999998
21
-47.3436279999999954
0
LINE
8
LYELLOW
6
CONTINUOUS
10
75.9645229999999998
20
-47.8198189999999954
11
75.3930950000000024
21
-47.8198189999999954
0
LINE
8
LYELLOW
6
CONTINUOUS
10
75.6788090000000011
20
-47.8198189999999954
11
75.6788090000000011
21
-46.8198189999999954
0
LINE
8
LYELLOW
6
CONTINUOUS
10
75.6788090000000011
20
-46.8198189999999954
11
75.5835709999999921
21
-46.9626759999999948
0
LINE
8
LYELLOW
6
CONTINUOUS
10
75.5835709999999921
20
-46.9626759999999948
11
75.4883329999999972
21
-47.0579139999999967
0
LINE
8
LYELLOW
6
CONTINUOUS
10
75.4883329999999972
20
-47.0579139999999967
11
75.3930950000000024
21
-47.1055330000000012
0
LINE
8
LYELLOW
6
CONTINUOUS
10
76.3454759999999908
20
-46.9150569999999973
11
76.3930950000000024
21
-46.8674379999999999
0
LINE
8
LYELLOW
6
CONTINUOUS
10
76.3930950000000024
20
-46.8674379999999999
11
76.4883329999999972
21
-46.8198189999999954
0
LINE
8
LYELLOW
6
CONTINUOUS
10
76.4883329999999972
20
-46.8198189999999954
11
76.7264279999999985
21
-46.8198189999999954
0
LINE
8
LYELLOW
6
CONTINUOUS
10
76.7264279999999985
20
-46.8198189999999954
11
76.8216659999999933
21
-46.8674379999999999
0
LINE
8
LYELLOW
6
CONTINUOUS
10
76.8216659999999933
20
-46.8674379999999999
11
76.8692849999999908
21
-46.9150569999999973
0
LINE
8
LYELLOW
6
CONTINUOUS
10
76.8692849999999908
20
-46.9150569999999973
11
76.9169040000000024
21
-47.0102949999999993
0
LINE
8
LYELLOW
6
CONTINUOUS
10
76.9169040000000024
20
-47.0102949999999993
11
76.9169040000000024
21
-47.1055330000000012
0
LINE
8
LYELLOW
6
CONTINUOUS
10
76.9169040000000024
20
-47.1055330000000012
11
76.8692849999999908
21
-47.2483900000000006
0
LINE
8
LYELLOW
6
CONTINUOUS
10
76.8692849999999908
20
-47.2483900000000006
11
76.2978569999999934
21
-47.8198189999999954
0
LINE
8
LYELLOW
6
CONTINUOUS
10
76.2978569999999934
20
-47.8198189999999954
11
76.9169040000000024
21
-47.8198189999999954
0
LINE
8
LYELLOW
6
CONTINUOUS
10
93.5483329999999995
20
-35.714579999999998
11
93.5007140000000021
21
-35.7622
0
LINE
8
LYELLOW
6
CONTINUOUS
10
93.5007140000000021
20
-35.7622
11
93.3578569999999957
21
-35.8098189999999974
0
LINE
8
LYELLOW
6
CONTINUOUS
10
93.3578569999999957
20
-35.8098189999999974
11
93.2626190000000008
21
-35.8098189999999974
0
LINE
8
LYELLOW
6
CONTINUOUS
10
93.2626190000000008
20
-35.8098189999999974
11
93.1197619999999944
21
-35.7622
0
LINE
8
LYELLOW
6
CONTINUOUS
10
93.1197619999999944
20
-35.7622
11
93.0245239999999995
21
-35.6669610000000006
0
LINE
8
LYELLOW
6
CONTINUOUS
10
93.0245239999999995
20
-35.6669610000000006
11
92.9769050000000021
21
-35.5717229999999986
0
LINE
8
LYELLOW
6
CONTINUOUS
10
92.9769050000000021
20
-35.5717229999999986
11
92.9292859999999905
21
-35.3812470000000019
0
LINE
8
LYELLOW
6
CONTINUOUS
10
92.9292859999999905
20
-35.3812470000000019
11
92.9292859999999905
21
-35.2383899999999954
0
LINE
8
LYELLOW
6
CONTINUOUS
10
92.9292859999999905
20
-35.2383899999999954
11
92.9769050000000021
21
-35.0479139999999987
0
LINE
8
LYELLOW
6
CONTINUOUS
10
92.9769050000000021
20
-35.0479139999999987
11
93.0245239999999995
21
-34.9526759999999967
0
LINE
8
LYELLOW
6
CONTINUOUS
10
93.0245239999999995
20
-34.9526759999999967
11
93.1197619999999944
21
-34.8574380000000019
0
LINE
8
LYELLOW
6
CONTINUOUS
10
93.1197619999999944
20
-34.8574380000000019
11
93.2626190000000008
21
-34.8098189999999974
0
LINE
8
LYELLOW
6
CONTINUOUS
10
93.2626190000000008
20
-34.8098189999999974
11
93.3578569999999957
21
-34.8098189999999974
0
LINE
8
LYELLOW
6
CONTINUOUS
10
93.3578569999999957
20
-34.8098189999999974
11
93.5007140000000021
21
-34.8574380000000019
0
LINE
8
LYELLOW
6
CONTINUOUS
10
93.5007140000000021
20
-34.8574380000000019
11
93.5483329999999995
21
-34.9050569999999993
0
LINE
8
LYELLOW
6
CONTINUOUS
10
94.5007140000000021
20
-35.8098189999999974
11
93.9292859999999905
21
-35.8098189999999974
0
LINE
8
LYELLOW
6
CONTINUOUS
10
94.2149999999999892
20
-35.8098189999999974
11
94.2149999999999892
21
-34.8098189999999974
0
LINE
8
LYELLOW
6
CONTINUOUS
10
94.2149999999999892
20
-34.8098189999999974
11
94.1197619999999944
21
-34.9526759999999967
0
LINE
8
LYELLOW
6
CONTINUOUS
10
94.1197619999999944
20
-34.9526759999999967
11
94.0245239999999995
21
-35.0479139999999987
0
LINE
8
LYELLOW
6
CONTINUOUS
10
94.0245239999999995
20
-35.0479139999999987
11
93.9292859999999905
21
-35.0955329999999961
0
LINE
8
LYELLOW
6
CONTINUOUS
10
57.5230949999999979
20
-31.1698189999999968
11
57.5230949999999979
21
-31.979341999999999
0
LINE
8
LYELLOW
6
CONTINUOUS
10
57.5230949999999979
20
-31.979341999999999
11
57.5707139999999953
21
-32.0745799999999974
0
LINE
8
LYELLOW
6
CONTINUOUS
10
57.5707139999999953
20
-32.0745799999999974
11
57.6183329999999998
21
-32.1221999999999994
0
LINE
8
LYELLOW
6
CONTINUOUS
10
57.6183329999999998
20
-32.1221999999999994
11
57.7135709999999946
21
-32.1698189999999968
0
LINE
8
LYELLOW
6
CONTINUOUS
10
57.7135709999999946
20
-32.1698189999999968
11
57.9040469999999985
21
-32.1698189999999968
0
LINE
8
LYELLOW
6
CONTINUOUS
10
57.9040469999999985
20
-32.1698189999999968
11
57.9992850000000004
21
-32.1221999999999994
0
LINE
8
LYELLOW
6
CONTINUOUS
10
57.9992850000000004
20
-32.1221999999999994
11
58.0469039999999978
21
-32.0745799999999974
0
LINE
8
LYELLOW
6
CONTINUOUS
10
58.0469039999999978
20
-32.0745799999999974
11
58.0945229999999952
21
-31.979341999999999
0
LINE
8
LYELLOW
6
CONTINUOUS
10
58.0945229999999952
20
-31.979341999999999
11
58.0945229999999952
21
-31.1698189999999968
0
LINE
8
LYELLOW
6
CONTINUOUS
10
59.0945229999999952
20
-32.1698189999999968
11
58.5230949999999979
21
-32.1698189999999968
0
LINE
8
LYELLOW
6
CONTINUOUS
10
58.8088089999999966
20
-32.1698189999999968
11
58.8088089999999966
21
-31.1698189999999968
0
LINE
8
LYELLOW
6
CONTINUOUS
10
58.8088089999999966
20
-31.1698189999999968
11
58.7135709999999946
21
-31.3126759999999997
0
LINE
8
LYELLOW
6
CONTINUOUS
10
58.7135709999999946
20
-31.3126759999999997
11
58.6183329999999998
21
-31.4079139999999981
0
LINE
8
LYELLOW
6
CONTINUOUS
10
58.6183329999999998
20
-31.4079139999999981
11
58.5230949999999979
21
-31.4555329999999991
0
LINE
8
LYELLOW
6
CONTINUOUS
10
137.7466660000000047
20
-26.3748189999999987
11
137.7466660000000047
21
-27.089103999999999
0
LINE
8
LYELLOW
6
CONTINUOUS
10
137.7466660000000047
20
-27.089103999999999
11
137.6990470000000073
21
-27.2319609999999983
0
LINE
8
LYELLOW
6
CONTINUOUS
10
137.6990470000000073
20
-27.2319609999999983
11
137.6038089999999841
21
-27.3271999999999977
0
LINE
8
LYELLOW
6
CONTINUOUS
10
137.6038089999999841
20
-27.3271999999999977
11
137.4609519999999918
21
-27.3748189999999987
0
LINE
8
LYELLOW
6
CONTINUOUS
10
137.4609519999999918
20
-27.3748189999999987
11
137.365713999999997
21
-27.3748189999999987
0
LINE
8
LYELLOW
6
CONTINUOUS
10
138.1752380000000073
20
-26.4700569999999971
11
138.2228570000000047
21
-26.4224379999999996
0
LINE
8
LYELLOW
6
CONTINUOUS
10
138.2228570000000047
20
-26.4224379999999996
11
138.3180949999999996
21
-26.3748189999999987
0
LINE
8
LYELLOW
6
CONTINUOUS
10
138.3180949999999996
20
-26.3748189999999987
11
138.5561899999999866
21
-26.3748189999999987
0
LINE
8
LYELLOW
6
CONTINUOUS
10
138.5561899999999866
20
-26.3748189999999987
11
138.6514279999999815
21
-26.4224379999999996
0
LINE
8
LYELLOW
6
CONTINUOUS
10
138.6514279999999815
20
-26.4224379999999996
11
138.6990470000000073
21
-26.4700569999999971
0
LINE
8
LYELLOW
6
CONTINUOUS
10
138.6990470000000073
20
-26.4700569999999971
11
138.7466660000000047
21
-26.565294999999999
0
LINE
8
LYELLOW
6
CONTINUOUS
10
138.7466660000000047
20
-26.565294999999999
11
138.7466660000000047
21
-26.6605329999999974
0
LINE
8
LYELLOW
6
CONTINUOUS
10
138.7466660000000047
20
-26.6605329999999974
11
138.6990470000000073
21
-26.8033900000000003
0
LINE
8
LYELLOW
6
CONTINUOUS
10
138.6990470000000073
20
-26.8033900000000003
11
138.1276189999999815
21
-27.3748189999999987
0
LINE
8
LYELLOW
6
CONTINUOUS
10
138.1276189999999815
20
-27.3748189999999987
11
138.7466660000000047
21
-27.3748189999999987
0
LINE
8
LYELLOW
6
CONTINUOUS
10
57.2421419999999941
20
-63.9198189999999968
11
56.908808999999998
21
-63.4436279999999968
0
LINE
8
LYELLOW
6
CONTINUOUS
10
56.6707139999999967
20
-63.9198189999999968
11
56.6707139999999967
21
-62.9198189999999968
0
LINE
8
LYELLOW
6
CONTINUOUS
10
56.6707139999999967
20
-62.9198189999999968
11
57.0516659999999973
21
-62.9198189999999968
0
LINE
8
LYELLOW
6
CONTINUOUS
10
57.0516659999999973
20
-62.9198189999999968
11
57.1469039999999993
21
-62.9674379999999942
0
LINE
8
LYELLOW
6
CONTINUOUS
10
57.1469039999999993
20
-62.9674379999999942
11
57.1945229999999967
21
-63.0150569999999988
0
LINE
8
LYELLOW
6
CONTINUOUS
10
57.1945229999999967
20
-63.0150569999999988
11
57.2421419999999941
21
-63.1102949999999936
0
LINE
8
LYELLOW
6
CONTINUOUS
10
57.2421419999999941
20
-63.1102949999999936
11
57.2421419999999941
21
-63.253152
0
LINE
8
LYELLOW
6
CONTINUOUS
10
57.2421419999999941
20
-63.253152
11
57.1945229999999967
21
-63.3483899999999949
0
LINE
8
LYELLOW
6
CONTINUOUS
10
57.1945229999999967
20
-63.3483899999999949
11
57.1469039999999993
21
-63.3960089999999994
0
LINE
8
LYELLOW
6
CONTINUOUS
10
57.1469039999999993
20
-63.3960089999999994
11
57.0516659999999973
21
-63.4436279999999968
0
LINE
8
LYELLOW
6
CONTINUOUS
10
57.0516659999999973
20
-63.4436279999999968
11
56.6707139999999967
21
-63.4436279999999968
0
LINE
8
LYELLOW
6
CONTINUOUS
10
57.5754759999999948
20
-62.9198189999999968
11
58.1945229999999967
21
-62.9198189999999968
0
LINE
8
LYELLOW
6
CONTINUOUS
10
58.1945229999999967
20
-62.9198189999999968
11
57.8611900000000006
21
-63.3007709999999975
0
LINE
8
LYELLOW
6
CONTINUOUS
10
57.8611900000000006
20
-63.3007709999999975
11
58.0040469999999999
21
-63.3007709999999975
0
LINE
8
LYELLOW
6
CONTINUOUS
10
58.0040469999999999
20
-63.3007709999999975
11
58.0992849999999947
21
-63.3483899999999949
0
LINE
8
LYELLOW
6
CONTINUOUS
10
58.0992849999999947
20
-63.3483899999999949
11
58.1469039999999993
21
-63.3960089999999994
0
LINE
8
LYELLOW
6
CONTINUOUS
10
58.1469039999999993
20
-63.3960089999999994
11
58.1945229999999967
21
-63.4912469999999942
0
LINE
8
LYELLOW
6
CONTINUOUS
10
58.1945229999999967
20
-63.4912469999999942
11
58.1945229999999967
21
-63.7293419999999955
0
LINE
8
LYELLOW
6
CONTINUOUS
10
58.1945229999999967
20
-63.7293419999999955
11
58.1469039999999993
21
-63.8245799999999974
0
LINE
8
LYELLOW
6
CONTINUOUS
10
58.1469039999999993
20
-63.8245799999999974
11
58.0992849999999947
21
-63.8721999999999994
0
LINE
8
LYELLOW
6
CONTINUOUS
10
58.0992849999999947
20
-63.8721999999999994
11
58.0040469999999999
21
-63.9198189999999968
0
LINE
8
LYELLOW
6
CONTINUOUS
10
58.0040469999999999
20
-63.9198189999999968
11
57.7183329999999941
21
-63.9198189999999968
0
LINE
8
LYELLOW
6
CONTINUOUS
10
57.7183329999999941
20
-63.9198189999999968
11
57.6230949999999993
21
-63.8721999999999994
0
LINE
8
LYELLOW
6
CONTINUOUS
10
57.6230949999999993
20
-63.8721999999999994
11
57.5754759999999948
21
-63.8245799999999974
0
LINE
8
LYELLOW
6
CONTINUOUS
10
58.5278569999999974
20
-62.9198189999999968
11
59.1469039999999993
21
-62.9198189999999968
0
LINE
8
LYELLOW
6
CONTINUOUS
10
59.1469039999999993
20
-62.9198189999999968
11
58.813570999999996
21
-63.3007709999999975
0
LINE
8
LYELLOW
6
CONTINUOUS
10
58.813570999999996
20
-63.3007709999999975
11
58.9564279999999954
21
-63.3007709999999975
0
LINE
8
LYELLOW
6
CONTINUOUS
10
58.9564279999999954
20
-63.3007709999999975
11
59.0516659999999973
21
-63.3483899999999949
0
LINE
8
LYELLOW
6
CONTINUOUS
10
59.0516659999999973
20
-63.3483899999999949
11
59.0992849999999947
21
-63.3960089999999994
0
LINE
8
LYELLOW
6
CONTINUOUS
10
59.0992849999999947
20
-63.3960089999999994
11
59.1469039999999993
21
-63.4912469999999942
0
LINE
8
LYELLOW
6
CONTINUOUS
10
59.1469039999999993
20
-63.4912469999999942
11
59.1469039999999993
21
-63.7293419999999955
0
LINE
8
LYELLOW
6
CONTINUOUS
10
59.1469039999999993
20
-63.7293419999999955
11
59.0992849999999947
21
-63.8245799999999974
0
LINE
8
LYELLOW
6
CONTINUOUS
10
59.0992849999999947
20
-63.8245799999999974
11
59.0516659999999973
21
-63.8721999999999994
0
LINE
8
LYELLOW
6
CONTINUOUS
10
59.0516659999999973
20
-63.8721999999999994
11
58.9564279999999954
21
-63.9198189999999968
0
LINE
8
LYELLOW
6
CONTINUOUS
10
58.9564279999999954
20
-63.9198189999999968
11
58.6707139999999967
21
-63.9198189999999968
0
LINE
8
LYELLOW
6
CONTINUOUS
10
58.6707139999999967
20
-63.9198189999999968
11
58.5754759999999948
21
-63.8721999999999994
0
LINE
8
LYELLOW
6
CONTINUOUS
10
58.5754759999999948
20
-63.8721999999999994
11
58.5278569999999974
21
-63.8245799999999974
0
LINE
8
LYELLOW
6
CONTINUOUS
10
76.093094999999991
20
-31.1698189999999968
11
76.093094999999991
21
-31.979341999999999
0
LINE
8
LYELLOW
6
CONTINUOUS
10
76.093094999999991
20
-31.979341999999999
11
76.1407140000000027
21
-32.0745799999999974
0
LINE
8
LYELLOW
6
CONTINUOUS
10
76.1407140000000027
20
-32.0745799999999974
11
76.1883330000000001
21
-32.1221999999999994
0
LINE
8
LYELLOW
6
CONTINUOUS
10
76.1883330000000001
20
-32.1221999999999994
11
76.2835709999999949
21
-32.1698189999999968
0
LINE
8
LYELLOW
6
CONTINUOUS
10
76.2835709999999949
20
-32.1698189999999968
11
76.4740469999999988
21
-32.1698189999999968
0
LINE
8
LYELLOW
6
CONTINUOUS
10
76.4740469999999988
20
-32.1698189999999968
11
76.5692849999999936
21
-32.1221999999999994
0
LINE
8
LYELLOW
6
CONTINUOUS
10
76.5692849999999936
20
-32.1221999999999994
11
76.616903999999991
21
-32.0745799999999974
0
LINE
8
LYELLOW
6
CONTINUOUS
10
76.616903999999991
20
-32.0745799999999974
11
76.6645230000000026
21
-31.979341999999999
0
LINE
8
LYELLOW
6
CONTINUOUS
10
76.6645230000000026
20
-31.979341999999999
11
76.6645230000000026
21
-31.1698189999999968
0
LINE
8
LYELLOW
6
CONTINUOUS
10
77.093094999999991
20
-31.2650569999999988
11
77.1407140000000027
21
-31.2174379999999978
0
LINE
8
LYELLOW
6
CONTINUOUS
10
77.1407140000000027
20
-31.2174379999999978
11
77.2359519999999975
21
-31.1698189999999968
0
LINE
8
LYELLOW
6
CONTINUOUS
10
77.2359519999999975
20
-31.1698189999999968
11
77.4740469999999988
21
-31.1698189999999968
0
LINE
8
LYELLOW
6
CONTINUOUS
10
77.4740469999999988
20
-31.1698189999999968
11
77.5692849999999936
21
-31.2174379999999978
0
LINE
8
LYELLOW
6
CONTINUOUS
10
77.5692849999999936
20
-31.2174379999999978
11
77.616903999999991
21
-31.2650569999999988
0
LINE
8
LYELLOW
6
CONTINUOUS
10
77.616903999999991
20
-31.2650569999999988
11
77.6645230000000026
21
-31.3602949999999971
0
LINE
8
LYELLOW
6
CONTINUOUS
10
77.6645230000000026
20
-31.3602949999999971
11
77.6645230000000026
21
-31.4555329999999991
0
LINE
8
LYELLOW
6
CONTINUOUS
10
77.6645230000000026
20
-31.4555329999999991
11
77.616903999999991
21
-31.5983899999999984
0
LINE
8
LYELLOW
6
CONTINUOUS
10
77.616903999999991
20
-31.5983899999999984
11
77.0454759999999936
21
-32.1698189999999968
0
LINE
8
LYELLOW
6
CONTINUOUS
10
77.0454759999999936
20
-32.1698189999999968
11
77.6645230000000026
21
-32.1698189999999968
0
LINE
8
LYELLOW
6
CONTINUOUS
10
34.6666659999999993
20
-36.5348189999999988
11
34.6666659999999993
21
-37.2491039999999956
0
LINE
8
LYELLOW
6
CONTINUOUS
10
34.6666659999999993
20
-37.2491039999999956
11
34.6190470000000019
21
-37.3919609999999949
0
LINE
8
LYELLOW
6
CONTINUOUS
10
34.6190470000000019
20
-37.3919609999999949
11
34.523809
21
-37.4872000000000014
0
LINE
8
LYELLOW
6
CONTINUOUS
10
34.523809
20
-37.4872000000000014
11
34.3809520000000006
21
-37.5348189999999988
0
LINE
8
LYELLOW
6
CONTINUOUS
10
34.3809520000000006
20
-37.5348189999999988
11
34.2857139999999987
21
-37.5348189999999988
0
LINE
8
LYELLOW
6
CONTINUOUS
10
35.6666659999999993
20
-37.5348189999999988
11
35.0952380000000019
21
-37.5348189999999988
0
LINE
8
LYELLOW
6
CONTINUOUS
10
35.3809520000000006
20
-37.5348189999999988
11
35.3809520000000006
21
-36.5348189999999988
0
LINE
8
LYELLOW
6
CONTINUOUS
10
35.3809520000000006
20
-36.5348189999999988
11
35.2857139999999987
21
-36.6776759999999982
0
LINE
8
LYELLOW
6
CONTINUOUS
10
35.2857139999999987
20
-36.6776759999999982
11
35.1904759999999968
21
-36.7729140000000001
0
LINE
8
LYELLOW
6
CONTINUOUS
10
35.1904759999999968
20
-36.7729140000000001
11
35.0952380000000019
21
-36.8205329999999975
0
LINE
8
LYELLOW
6
CONTINUOUS
10
57.2421419999999941
20
-55.8698189999999997
11
56.908808999999998
21
-55.3936279999999996
0
LINE
8
LYELLOW
6
CONTINUOUS
10
56.6707139999999967
20
-55.8698189999999997
11
56.6707139999999967
21
-54.8698189999999997
0
LINE
8
LYELLOW
6
CONTINUOUS
10
56.6707139999999967
20
-54.8698189999999997
11
57.0516659999999973
21
-54.8698189999999997
0
LINE
8
LYELLOW
6
CONTINUOUS
10
57.0516659999999973
20
-54.8698189999999997
11
57.1469039999999993
21
-54.9174379999999971
0
LINE
8
LYELLOW
6
CONTINUOUS
10
57.1469039999999993
20
-54.9174379999999971
11
57.1945229999999967
21
-54.9650569999999945
0
LINE
8
LYELLOW
6
CONTINUOUS
10
57.1945229999999967
20
-54.9650569999999945
11
57.2421419999999941
21
-55.0602949999999964
0
LINE
8
LYELLOW
6
CONTINUOUS
10
57.2421419999999941
20
-55.0602949999999964
11
57.2421419999999941
21
-55.2031519999999958
0
LINE
8
LYELLOW
6
CONTINUOUS
10
57.2421419999999941
20
-55.2031519999999958
11
57.1945229999999967
21
-55.2983899999999977
0
LINE
8
LYELLOW
6
CONTINUOUS
10
57.1945229999999967
20
-55.2983899999999977
11
57.1469039999999993
21
-55.3460089999999951
0
LINE
8
LYELLOW
6
CONTINUOUS
10
57.1469039999999993
20
-55.3460089999999951
11
57.0516659999999973
21
-55.3936279999999996
0
LINE
8
LYELLOW
6
CONTINUOUS
10
57.0516659999999973
20
-55.3936279999999996
11
56.6707139999999967
21
-55.3936279999999996
0
LINE
8
LYELLOW
6
CONTINUOUS
10
57.6230949999999993
20
-54.9650569999999945
11
57.6707139999999967
21
-54.9174379999999971
0
LINE
8
LYELLOW
6
CONTINUOUS
10
57.6707139999999967
20
-54.9174379999999971
11
57.7659519999999986
21
-54.8698189999999997
0
LINE
8
LYELLOW
6
CONTINUOUS
10
57.7659519999999986
20
-54.8698189999999997
11
58.0040469999999999
21
-54.8698189999999997
0
LINE
8
LYELLOW
6
CONTINUOUS
10
58.0040469999999999
20
-54.8698189999999997
11
58.0992849999999947
21
-54.9174379999999971
0
LINE
8
LYELLOW
6
CONTINUOUS
10
58.0992849999999947
20
-54.9174379999999971
11
58.1469039999999993
21
-54.9650569999999945
0
LINE
8
LYELLOW
6
CONTINUOUS
10
58.1469039999999993
20
-54.9650569999999945
11
58.1945229999999967
21
-55.0602949999999964
0
LINE
8
LYELLOW
6
CONTINUOUS
10
58.1945229999999967
20
-55.0602949999999964
11
58.1945229999999967
21
-55.1555329999999984
0
LINE
8
LYELLOW
6
CONTINUOUS
10
58.1945229999999967
20
-55.1555329999999984
11
58.1469039999999993
21
-55.2983899999999977
0
LINE
8
LYELLOW
6
CONTINUOUS
10
58.1469039999999993
20
-55.2983899999999977
11
57.5754759999999948
21
-55.8698189999999997
0
LINE
8
LYELLOW
6
CONTINUOUS
10
57.5754759999999948
20
-55.8698189999999997
11
58.1945229999999967
21
-55.8698189999999997
0
LINE
8
LYELLOW
6
CONTINUOUS
10
58.5754759999999948
20
-54.9650569999999945
11
58.6230949999999993
21
-54.9174379999999971
0
LINE
8
LYELLOW
6
CONTINUOUS
10
58.6230949999999993
20
-54.9174379999999971
11
58.7183329999999941
21
-54.8698189999999997
0
LINE
8
LYELLOW
6
CONTINUOUS
10
58.7183329999999941
20
-54.8698189999999997
11
58.9564279999999954
21
-54.8698189999999997
0
LINE
8
LYELLOW
6
CONTINUOUS
10
58.9564279999999954
20
-54.8698189999999997
11
59.0516659999999973
21
-54.9174379999999971
0
LINE
8
LYELLOW
6
CONTINUOUS
10
59.0516659999999973
20
-54.9174379999999971
11
59.0992849999999947
21
-54.9650569999999945
0
LINE
8
LYELLOW
6
CONTINUOUS
10
59.0992849999999947
20
-54.9650569999999945
11
59.1469039999999993
21
-55.0602949999999964
0
LINE
8
LYELLOW
6
CONTINUOUS
10
59.1469039999999993
20
-55.0602949999999964
11
59.1469039999999993
21
-55.1555329999999984
0
LINE
8
LYELLOW
6
CONTINUOUS
10
59.1469039999999993
20
-55.1555329999999984
11
59.0992849999999947
21
-55.2983899999999977
0
LINE
8
LYELLOW
6
CONTINUOUS
10
59.0992849999999947
20
-55.2983899999999977
11
58.5278569999999974
21
-55.8698189999999997
0
LINE
8
LYELLOW
6
CONTINUOUS
10
58.5278569999999974
20
-55.8698189999999997
11
59.1469039999999993
21
-55.8698189999999997
0
LINE
8
LYELLOW
6
CONTINUOUS
10
137.7466660000000047
20
-43.7448189999999997
11
137.7466660000000047
21
-44.4591039999999964
0
LINE
8
LYELLOW
6
CONTINUOUS
10
137.7466660000000047
20
-44.4591039999999964
11
137.6990470000000073
21
-44.6019609999999957
0
LINE
8
LYELLOW
6
CONTINUOUS
10
137.6990470000000073
20
-44.6019609999999957
11
137.6038089999999841
21
-44.6971999999999952
0
LINE
8
LYELLOW
6
CONTINUOUS
10
137.6038089999999841
20
-44.6971999999999952
11
137.4609519999999918
21
-44.7448189999999997
0
LINE
8
LYELLOW
6
CONTINUOUS
10
137.4609519999999918
20
-44.7448189999999997
11
137.365713999999997
21
-44.7448189999999997
0
LINE
8
LYELLOW
6
CONTINUOUS
10
138.6514279999999815
20
-44.0781519999999958
11
138.6514279999999815
21
-44.7448189999999997
0
LINE
8
LYELLOW
6
CONTINUOUS
10
138.4133329999999944
20
-43.6971999999999952
11
138.1752380000000073
21
-44.411484999999999
0
LINE
8
LYELLOW
6
CONTINUOUS
10
138.1752380000000073
20
-44.411484999999999
11
138.7942850000000021
21
-44.411484999999999
0
LINE
8
LYELLOW
6
CONTINUOUS
10
108.698332999999991
20
-35.714579999999998
11
108.6507139999999936
21
-35.7622
0
LINE
8
LYELLOW
6
CONTINUOUS
10
108.6507139999999936
20
-35.7622
11
108.5078570000000013
21
-35.8098189999999974
0
LINE
8
LYELLOW
6
CONTINUOUS
10
108.5078570000000013
20
-35.8098189999999974
11
108.4126189999999923
21
-35.8098189999999974
0
LINE
8
LYELLOW
6
CONTINUOUS
10
108.4126189999999923
20
-35.8098189999999974
11
108.2697620000000001
21
-35.7622
0
LINE
8
LYELLOW
6
CONTINUOUS
10
108.2697620000000001
20
-35.7622
11
108.174523999999991
21
-35.6669610000000006
0
LINE
8
LYELLOW
6
CONTINUOUS
10
108.174523999999991
20
-35.6669610000000006
11
108.1269049999999936
21
-35.5717229999999986
0
LINE
8
LYELLOW
6
CONTINUOUS
10
108.1269049999999936
20
-35.5717229999999986
11
108.0792859999999962
21
-35.3812470000000019
0
LINE
8
LYELLOW
6
CONTINUOUS
10
108.0792859999999962
20
-35.3812470000000019
11
108.0792859999999962
21
-35.2383899999999954
0
LINE
8
LYELLOW
6
CONTINUOUS
10
108.0792859999999962
20
-35.2383899999999954
11
108.1269049999999936
21
-35.0479139999999987
0
LINE
8
LYELLOW
6
CONTINUOUS
10
108.1269049999999936
20
-35.0479139999999987
11
108.174523999999991
21
-34.9526759999999967
0
LINE
8
LYELLOW
6
CONTINUOUS
10
108.174523999999991
20
-34.9526759999999967
11
108.2697620000000001
21
-34.8574380000000019
0
LINE
8
LYELLOW
6
CONTINUOUS
10
108.2697620000000001
20
-34.8574380000000019
11
108.4126189999999923
21
-34.8098189999999974
0
LINE
8
LYELLOW
6
CONTINUOUS
10
108.4126189999999923
20
-34.8098189999999974
11
108.5078570000000013
21
-34.8098189999999974
0
LINE
8
LYELLOW
6
CONTINUOUS
10
108.5078570000000013
20
-34.8098189999999974
11
108.6507139999999936
21
-34.8574380000000019
0
LINE
8
LYELLOW
6
CONTINUOUS
10
108.6507139999999936
20
-34.8574380000000019
11
108.698332999999991
21
-34.9050569999999993
0
LINE
8
LYELLOW
6
CONTINUOUS
10
109.0792859999999962
20
-34.9050569999999993
11
109.1269049999999936
21
-34.8574380000000019
0
LINE
8
LYELLOW
6
CONTINUOUS
10
109.1269049999999936
20
-34.8574380000000019
11
109.2221429999999884
21
-34.8098189999999974
0
LINE
8
LYELLOW
6
CONTINUOUS
10
109.2221429999999884
20
-34.8098189999999974
11
109.4602379999999897
21
-34.8098189999999974
0
LINE
8
LYELLOW
6
CONTINUOUS
10
109.4602379999999897
20
-34.8098189999999974
11
109.5554759999999987
21
-34.8574380000000019
0
LINE
8
LYELLOW
6
CONTINUOUS
10
109.5554759999999987
20
-34.8574380000000019
11
109.6030949999999962
21
-34.9050569999999993
0
LINE
8
LYELLOW
6
CONTINUOUS
10
109.6030949999999962
20
-34.9050569999999993
11
109.6507139999999936
21
-35.0002950000000013
0
LINE
8
LYELLOW
6
CONTINUOUS
10
109.6507139999999936
20
-35.0002950000000013
11
109.6507139999999936
21
-35.0955329999999961
0
LINE
8
LYELLOW
6
CONTINUOUS
10
109.6507139999999936
20
-35.0955329999999961
11
109.6030949999999962
21
-35.2383899999999954
0
LINE
8
LYELLOW
6
CONTINUOUS
10
109.6030949999999962
20
-35.2383899999999954
11
109.0316669999999988
21
-35.8098189999999974
0
LINE
8
LYELLOW
6
CONTINUOUS
10
109.0316669999999988
20
-35.8098189999999974
11
109.6507139999999936
21
-35.8098189999999974
0
LINE
8
LYELLOW
6
CONTINUOUS
10
92.7821419999999932
20
-55.8698189999999997
11
92.4488089999999971
21
-55.3936279999999996
0
LINE
8
LYELLOW
6
CONTINUOUS
10
92.2107139999999958
20
-55.8698189999999997
11
92.2107139999999958
21
-54.8698189999999997
0
LINE
8
LYELLOW
6
CONTINUOUS
10
92.2107139999999958
20
-54.8698189999999997
11
92.5916659999999894
21
-54.8698189999999997
0
LINE
8
LYELLOW
6
CONTINUOUS
10
92.5916659999999894
20
-54.8698189999999997
11
92.6869039999999984
21
-54.9174379999999971
0
LINE
8
LYELLOW
6
CONTINUOUS
10
92.6869039999999984
20
-54.9174379999999971
11
92.7345229999999958
21
-54.9650569999999945
0
LINE
8
LYELLOW
6
CONTINUOUS
10
92.7345229999999958
20
-54.9650569999999945
11
92.7821419999999932
21
-55.0602949999999964
0
LINE
8
LYELLOW
6
CONTINUOUS
10
92.7821419999999932
20
-55.0602949999999964
11
92.7821419999999932
21
-55.2031519999999958
0
LINE
8
LYELLOW
6
CONTINUOUS
10
92.7821419999999932
20
-55.2031519999999958
11
92.7345229999999958
21
-55.2983899999999977
0
LINE
8
LYELLOW
6
CONTINUOUS
10
92.7345229999999958
20
-55.2983899999999977
11
92.6869039999999984
21
-55.3460089999999951
0
LINE
8
LYELLOW
6
CONTINUOUS
10
92.6869039999999984
20
-55.3460089999999951
11
92.5916659999999894
21
-55.3936279999999996
0
LINE
8
LYELLOW
6
CONTINUOUS
10
92.5916659999999894
20
-55.3936279999999996
11
92.2107139999999958
21
-55.3936279999999996
0
LINE
8
LYELLOW
6
CONTINUOUS
10
93.115476000000001
20
-54.8698189999999997
11
93.7345229999999958
21
-54.8698189999999997
0
LINE
8
LYELLOW
6
CONTINUOUS
10
93.7345229999999958
20
-54.8698189999999997
11
93.4011899999999997
21
-55.2507710000000003
0
LINE
8
LYELLOW
6
CONTINUOUS
10
93.4011899999999997
20
-55.2507710000000003
11
93.544046999999992
21
-55.2507710000000003
0
LINE
8
LYELLOW
6
CONTINUOUS
10
93.544046999999992
20
-55.2507710000000003
11
93.639285000000001
21
-55.2983899999999977
0
LINE
8
LYELLOW
6
CONTINUOUS
10
93.639285000000001
20
-55.2983899999999977
11
93.6869039999999984
21
-55.3460089999999951
0
LINE
8
LYELLOW
6
CONTINUOUS
10
93.6869039999999984
20
-55.3460089999999951
11
93.7345229999999958
21
-55.4412469999999971
0
LINE
8
LYELLOW
6
CONTINUOUS
10
93.7345229999999958
20
-55.4412469999999971
11
93.7345229999999958
21
-55.6793419999999983
0
LINE
8
LYELLOW
6
CONTINUOUS
10
93.7345229999999958
20
-55.6793419999999983
11
93.6869039999999984
21
-55.7745800000000003
0
LINE
8
LYELLOW
6
CONTINUOUS
10
93.6869039999999984
20
-55.7745800000000003
11
93.639285000000001
21
-55.8221999999999952
0
LINE
8
LYELLOW
6
CONTINUOUS
10
93.639285000000001
20
-55.8221999999999952
11
93.544046999999992
21
-55.8698189999999997
0
LINE
8
LYELLOW
6
CONTINUOUS
10
93.544046999999992
20
-55.8698189999999997
11
93.2583329999999933
21
-55.8698189999999997
0
LINE
8
LYELLOW
6
CONTINUOUS
10
93.2583329999999933
20
-55.8698189999999997
11
93.1630949999999984
21
-55.8221999999999952
0
LINE
8
LYELLOW
6
CONTINUOUS
10
93.1630949999999984
20
-55.8221999999999952
11
93.115476000000001
21
-55.7745800000000003
0
LINE
8
LYELLOW
6
CONTINUOUS
10
94.6869039999999984
20
-55.8698189999999997
11
94.115476000000001
21
-55.8698189999999997
0
LINE
8
LYELLOW
6
CONTINUOUS
10
94.4011899999999997
20
-55.8698189999999997
11
94.4011899999999997
21
-54.8698189999999997
0
LINE
8
LYELLOW
6
CONTINUOUS
10
94.4011899999999997
20
-54.8698189999999997
11
94.3059519999999907
21
-55.012675999999999
0
LINE
8
LYELLOW
6
CONTINUOUS
10
94.3059519999999907
20
-55.012675999999999
11
94.2107139999999958
21
-55.107914000000001
0
LINE
8
LYELLOW
6
CONTINUOUS
10
94.2107139999999958
20
-55.107914000000001
11
94.115476000000001
21
-55.1555329999999984
0
LINE
8
LYELLOW
6
CONTINUOUS
10
75.0121419999999972
20
-55.8698189999999997
11
74.6788090000000011
21
-55.3936279999999996
0
LINE
8
LYELLOW
6
CONTINUOUS
10
74.4407139999999998
20
-55.8698189999999997
11
74.4407139999999998
21
-54.8698189999999997
0
LINE
8
LYELLOW
6
CONTINUOUS
10
74.4407139999999998
20
-54.8698189999999997
11
74.8216659999999933
21
-54.8698189999999997
0
LINE
8
LYELLOW
6
CONTINUOUS
10
74.8216659999999933
20
-54.8698189999999997
11
74.9169040000000024
21
-54.9174379999999971
0
LINE
8
LYELLOW
6
CONTINUOUS
10
74.9169040000000024
20
-54.9174379999999971
11
74.9645229999999998
21
-54.9650569999999945
0
LINE
8
LYELLOW
6
CONTINUOUS
10
74.9645229999999998
20
-54.9650569999999945
11
75.0121419999999972
21
-55.0602949999999964
0
LINE
8
LYELLOW
6
CONTINUOUS
10
75.0121419999999972
20
-55.0602949999999964
11
75.0121419999999972
21
-55.2031519999999958
0
LINE
8
LYELLOW
6
CONTINUOUS
10
75.0121419999999972
20
-55.2031519999999958
11
74.9645229999999998
21
-55.2983899999999977
0
LINE
8
LYELLOW
6
CONTINUOUS
10
74.9645229999999998
20
-55.2983899999999977
11
74.9169040000000024
21
-55.3460089999999951
0
LINE
8
LYELLOW
6
CONTINUOUS
10
74.9169040000000024
20
-55.3460089999999951
11
74.8216659999999933
21
-55.3936279999999996
0
LINE
8
LYELLOW
6
CONTINUOUS
10
74.8216659999999933
20
-55.3936279999999996
11
74.4407139999999998
21
-55.3936279999999996
0
LINE
8
LYELLOW
6
CONTINUOUS
10
75.3930950000000024
20
-54.9650569999999945
11
75.4407139999999998
21
-54.9174379999999971
0
LINE
8
LYELLOW
6
CONTINUOUS
10
75.4407139999999998
20
-54.9174379999999971
11
75.5359519999999947
21
-54.8698189999999997
0
LINE
8
LYELLOW
6
CONTINUOUS
10
75.5359519999999947
20
-54.8698189999999997
11
75.7740469999999959
21
-54.8698189999999997
0
LINE
8
LYELLOW
6
CONTINUOUS
10
75.7740469999999959
20
-54.8698189999999997
11
75.8692849999999908
21
-54.9174379999999971
0
LINE
8
LYELLOW
6
CONTINUOUS
10
75.8692849999999908
20
-54.9174379999999971
11
75.9169040000000024
21
-54.9650569999999945
0
LINE
8
LYELLOW
6
CONTINUOUS
10
75.9169040000000024
20
-54.9650569999999945
11
75.9645229999999998
21
-55.0602949999999964
0
LINE
8
LYELLOW
6
CONTINUOUS
10
75.9645229999999998
20
-55.0602949999999964
11
75.9645229999999998
21
-55.1555329999999984
0
LINE
8
LYELLOW
6
CONTINUOUS
10
75.9645229999999998
20
-55.1555329999999984
11
75.9169040000000024
21
-55.2983899999999977
0
LINE
8
LYELLOW
6
CONTINUOUS
10
75.9169040000000024
20
-55.2983899999999977
11
75.3454759999999908
21
-55.8698189999999997
0
LINE
8
LYELLOW
6
CONTINUOUS
10
75.3454759999999908
20
-55.8698189999999997
11
75.9645229999999998
21
-55.8698189999999997
0
LINE
8
LYELLOW
6
CONTINUOUS
10
76.2978569999999934
20
-54.8698189999999997
11
76.9169040000000024
21
-54.8698189999999997
0
LINE
8
LYELLOW
6
CONTINUOUS
10
76.9169040000000024
20
-54.8698189999999997
11
76.5835709999999921
21
-55.2507710000000003
0
LINE
8
LYELLOW
6
CONTINUOUS
10
76.5835709999999921
20
-55.2507710000000003
11
76.7264279999999985
21
-55.2507710000000003
0
LINE
8
LYELLOW
6
CONTINUOUS
10
76.7264279999999985
20
-55.2507710000000003
11
76.8216659999999933
21
-55.2983899999999977
0
LINE
8
LYELLOW
6
CONTINUOUS
10
76.8216659999999933
20
-55.2983899999999977
11
76.8692849999999908
21
-55.3460089999999951
0
LINE
8
LYELLOW
6
CONTINUOUS
10
76.8692849999999908
20
-55.3460089999999951
11
76.9169040000000024
21
-55.4412469999999971
0
LINE
8
LYELLOW
6
CONTINUOUS
10
76.9169040000000024
20
-55.4412469999999971
11
76.9169040000000024
21
-55.6793419999999983
0
LINE
8
LYELLOW
6
CONTINUOUS
10
76.9169040000000024
20
-55.6793419999999983
11
76.8692849999999908
21
-55.7745800000000003
0
LINE
8
LYELLOW
6
CONTINUOUS
10
76.8692849999999908
20
-55.7745800000000003
11
76.8216659999999933
21
-55.8221999999999952
0
LINE
8
LYELLOW
6
CONTINUOUS
10
76.8216659999999933
20
-55.8221999999999952
11
76.7264279999999985
21
-55.8698189999999997
0
LINE
8
LYELLOW
6
CONTINUOUS
10
76.7264279999999985
20
-55.8698189999999997
11
76.4407139999999998
21
-55.8698189999999997
0
LINE
8
LYELLOW
6
CONTINUOUS
10
76.4407139999999998
20
-55.8698189999999997
11
76.3454759999999908
21
-55.8221999999999952
0
LINE
8
LYELLOW
6
CONTINUOUS
10
76.3454759999999908
20
-55.8221999999999952
11
76.2978569999999934
21
-55.7745800000000003
0
LINE
8
LYELLOW
6
CONTINUOUS
10
92.7821419999999932
20
-47.8198189999999954
11
92.4488089999999971
21
-47.3436279999999954
0
LINE
8
LYELLOW
6
CONTINUOUS
10
92.2107139999999958
20
-47.8198189999999954
11
92.2107139999999958
21
-46.8198189999999954
0
LINE
8
LYELLOW
6
CONTINUOUS
10
92.2107139999999958
20
-46.8198189999999954
11
92.5916659999999894
21
-46.8198189999999954
0
LINE
8
LYELLOW
6
CONTINUOUS
10
92.5916659999999894
20
-46.8198189999999954
11
92.6869039999999984
21
-46.8674379999999999
0
LINE
8
LYELLOW
6
CONTINUOUS
10
92.6869039999999984
20
-46.8674379999999999
11
92.7345229999999958
21
-46.9150569999999973
0
LINE
8
LYELLOW
6
CONTINUOUS
10
92.7345229999999958
20
-46.9150569999999973
11
92.7821419999999932
21
-47.0102949999999993
0
LINE
8
LYELLOW
6
CONTINUOUS
10
92.7821419999999932
20
-47.0102949999999993
11
92.7821419999999932
21
-47.1531519999999986
0
LINE
8
LYELLOW
6
CONTINUOUS
10
92.7821419999999932
20
-47.1531519999999986
11
92.7345229999999958
21
-47.2483900000000006
0
LINE
8
LYELLOW
6
CONTINUOUS
10
92.7345229999999958
20
-47.2483900000000006
11
92.6869039999999984
21
-47.296008999999998
0
LINE
8
LYELLOW
6
CONTINUOUS
10
92.6869039999999984
20
-47.296008999999998
11
92.5916659999999894
21
-47.3436279999999954
0
LINE
8
LYELLOW
6
CONTINUOUS
10
92.5916659999999894
20
-47.3436279999999954
11
92.2107139999999958
21
-47.3436279999999954
0
LINE
8
LYELLOW
6
CONTINUOUS
10
93.7345229999999958
20
-47.8198189999999954
11
93.1630949999999984
21
-47.8198189999999954
0
LINE
8
LYELLOW
6
CONTINUOUS
10
93.4488089999999971
20
-47.8198189999999954
11
93.4488089999999971
21
-46.8198189999999954
0
LINE
8
LYELLOW
6
CONTINUOUS
10
93.4488089999999971
20
-46.8198189999999954
11
93.3535710000000023
21
-46.9626759999999948
0
LINE
8
LYELLOW
6
CONTINUOUS
10
93.3535710000000023
20
-46.9626759999999948
11
93.2583329999999933
21
-47.0579139999999967
0
LINE
8
LYELLOW
6
CONTINUOUS
10
93.2583329999999933
20
-47.0579139999999967
11
93.1630949999999984
21
-47.1055330000000012
0
LINE
8
LYELLOW
6
CONTINUOUS
10
94.0678569999999894
20
-46.8198189999999954
11
94.6869039999999984
21
-46.8198189999999954
0
LINE
8
LYELLOW
6
CONTINUOUS
10
94.6869039999999984
20
-46.8198189999999954
11
94.3535710000000023
21
-47.200770999999996
0
LINE
8
LYELLOW
6
CONTINUOUS
10
94.3535710000000023
20
-47.200770999999996
11
94.4964279999999945
21
-47.200770999999996
0
LINE
8
LYELLOW
6
CONTINUOUS
10
94.4964279999999945
20
-47.200770999999996
11
94.5916659999999894
21
-47.2483900000000006
0
LINE
8
LYELLOW
6
CONTINUOUS
10
94.5916659999999894
20
-47.2483900000000006
11
94.639285000000001
21
-47.296008999999998
0
LINE
8
LYELLOW
6
CONTINUOUS
10
94.639285000000001
20
-47.296008999999998
11
94.6869039999999984
21
-47.3912469999999999
0
LINE
8
LYELLOW
6
CONTINUOUS
10
94.6869039999999984
20
-47.3912469999999999
11
94.6869039999999984
21
-47.6293420000000012
0
LINE
8
LYELLOW
6
CONTINUOUS
10
94.6869039999999984
20
-47.6293420000000012
11
94.639285000000001
21
-47.724579999999996
0
LINE
8
LYELLOW
6
CONTINUOUS
10
94.639285000000001
20
-47.724579999999996
11
94.5916659999999894
21
-47.772199999999998
0
LINE
8
LYELLOW
6
CONTINUOUS
10
94.5916659999999894
20
-47.772199999999998
11
94.4964279999999945
21
-47.8198189999999954
0
LINE
8
LYELLOW
6
CONTINUOUS
10
94.4964279999999945
20
-47.8198189999999954
11
94.2107139999999958
21
-47.8198189999999954
0
LINE
8
LYELLOW
6
CONTINUOUS
10
94.2107139999999958
20
-47.8198189999999954
11
94.115476000000001
21
-47.772199999999998
0
LINE
8
LYELLOW
6
CONTINUOUS
10
94.115476000000001
20
-47.772199999999998
11
94.0678569999999894
21
-47.724579999999996
0
LINE
8
LYELLOW
6
CONTINUOUS
10
57.2421419999999941
20
-47.8198189999999954
11
56.908808999999998
21
-47.3436279999999954
0
LINE
8
LYELLOW
6
CONTINUOUS
10
56.6707139999999967
20
-47.8198189999999954
11
56.6707139999999967
21
-46.8198189999999954
0
LINE
8
LYELLOW
6
CONTINUOUS
10
56.6707139999999967
20
-46.8198189999999954
11
57.0516659999999973
21
-46.8198189999999954
0
LINE
8
LYELLOW
6
CONTINUOUS
10
57.0516659999999973
20
-46.8198189999999954
11
57.1469039999999993
21
-46.8674379999999999
0
LINE
8
LYELLOW
6
CONTINUOUS
10
57.1469039999999993
20
-46.8674379999999999
11
57.1945229999999967
21
-46.9150569999999973
0
LINE
8
LYELLOW
6
CONTINUOUS
10
57.1945229999999967
20
-46.9150569999999973
11
57.2421419999999941
21
-47.0102949999999993
0
LINE
8
LYELLOW
6
CONTINUOUS
10
57.2421419999999941
20
-47.0102949999999993
11
57.2421419999999941
21
-47.1531519999999986
0
LINE
8
LYELLOW
6
CONTINUOUS
10
57.2421419999999941
20
-47.1531519999999986
11
57.1945229999999967
21
-47.2483900000000006
0
LINE
8
LYELLOW
6
CONTINUOUS
10
57.1945229999999967
20
-47.2483900000000006
11
57.1469039999999993
21
-47.296008999999998
0
LINE
8
LYELLOW
6
CONTINUOUS
10
57.1469039999999993
20
-47.296008999999998
11
57.0516659999999973
21
-47.3436279999999954
0
LINE
8
LYELLOW
6
CONTINUOUS
10
57.0516659999999973
20
-47.3436279999999954
11
56.6707139999999967
21
-47.3436279999999954
0
LINE
8
LYELLOW
6
CONTINUOUS
10
58.1945229999999967
20
-47.8198189999999954
11
57.6230949999999993
21
-47.8198189999999954
0
LINE
8
LYELLOW
6
CONTINUOUS
10
57.908808999999998
20
-47.8198189999999954
11
57.908808999999998
21
-46.8198189999999954
0
LINE
8
LYELLOW
6
CONTINUOUS
10
57.908808999999998
20
-46.8198189999999954
11
57.813570999999996
21
-46.9626759999999948
0
LINE
8
LYELLOW
6
CONTINUOUS
10
57.813570999999996
20
-46.9626759999999948
11
57.7183329999999941
21
-47.0579139999999967
0
LINE
8
LYELLOW
6
CONTINUOUS
10
57.7183329999999941
20
-47.0579139999999967
11
57.6230949999999993
21
-47.1055330000000012
0
LINE
8
LYELLOW
6
CONTINUOUS
10
59.1469039999999993
20
-47.8198189999999954
11
58.5754759999999948
21
-47.8198189999999954
0
LINE
8
LYELLOW
6
CONTINUOUS
10
58.8611900000000006
20
-47.8198189999999954
11
58.8611900000000006
21
-46.8198189999999954
0
LINE
8
LYELLOW
6
CONTINUOUS
10
58.8611900000000006
20
-46.8198189999999954
11
58.7659519999999986
21
-46.9626759999999948
0
LINE
8
LYELLOW
6
CONTINUOUS
10
58.7659519999999986
20
-46.9626759999999948
11
58.6707139999999967
21
-47.0579139999999967
0
LINE
8
LYELLOW
6
CONTINUOUS
10
58.6707139999999967
20
-47.0579139999999967
11
58.5754759999999948
21
-47.1055330000000012
0
LINE
8
LYELLOW
6
CONTINUOUS
10
110.5521419999999893
20
-47.8198189999999954
11
110.2188089999999931
21
-47.3436279999999954
0
LINE
8
LYELLOW
6
CONTINUOUS
10
109.9807139999999919
20
-47.8198189999999954
11
109.9807139999999919
21
-46.8198189999999954
0
LINE
8
LYELLOW
6
CONTINUOUS
10
109.9807139999999919
20
-46.8198189999999954
11
110.3616659999999996
21
-46.8198189999999954
0
LINE
8
LYELLOW
6
CONTINUOUS
10
110.3616659999999996
20
-46.8198189999999954
11
110.4569039999999944
21
-46.8674379999999999
0
LINE
8
LYELLOW
6
CONTINUOUS
10
110.4569039999999944
20
-46.8674379999999999
11
110.5045229999999918
21
-46.9150569999999973
0
LINE
8
LYELLOW
6
CONTINUOUS
10
110.5045229999999918
20
-46.9150569999999973
11
110.5521419999999893
21
-47.0102949999999993
0
LINE
8
LYELLOW
6
CONTINUOUS
10
110.5521419999999893
20
-47.0102949999999993
11
110.5521419999999893
21
-47.1531519999999986
0
LINE
8
LYELLOW
6
CONTINUOUS
10
110.5521419999999893
20
-47.1531519999999986
11
110.5045229999999918
21
-47.2483900000000006
0
LINE
8
LYELLOW
6
CONTINUOUS
10
110.5045229999999918
20
-47.2483900000000006
11
110.4569039999999944
21
-47.296008999999998
0
LINE
8
LYELLOW
6
CONTINUOUS
10
110.4569039999999944
20
-47.296008999999998
11
110.3616659999999996
21
-47.3436279999999954
0
LINE
8
LYELLOW
6
CONTINUOUS
10
110.3616659999999996
20
-47.3436279999999954
11
109.9807139999999919
21
-47.3436279999999954
0
LINE
8
LYELLOW
6
CONTINUOUS
10
110.9330949999999945
20
-46.9150569999999973
11
110.9807139999999919
21
-46.8674379999999999
0
LINE
8
LYELLOW
6
CONTINUOUS
10
110.9807139999999919
20
-46.8674379999999999
11
111.0759520000000009
21
-46.8198189999999954
0
LINE
8
LYELLOW
6
CONTINUOUS
10
111.0759520000000009
20
-46.8198189999999954
11
111.314046999999988
21
-46.8198189999999954
0
LINE
8
LYELLOW
6
CONTINUOUS
10
111.314046999999988
20
-46.8198189999999954
11
111.409284999999997
21
-46.8674379999999999
0
LINE
8
LYELLOW
6
CONTINUOUS
10
111.409284999999997
20
-46.8674379999999999
11
111.4569039999999944
21
-46.9150569999999973
0
LINE
8
LYELLOW
6
CONTINUOUS
10
111.4569039999999944
20
-46.9150569999999973
11
111.5045229999999918
21
-47.0102949999999993
0
LINE
8
LYELLOW
6
CONTINUOUS
10
111.5045229999999918
20
-47.0102949999999993
11
111.5045229999999918
21
-47.1055330000000012
0
LINE
8
LYELLOW
6
CONTINUOUS
10
111.5045229999999918
20
-47.1055330000000012
11
111.4569039999999944
21
-47.2483900000000006
0
LINE
8
LYELLOW
6
CONTINUOUS
10
111.4569039999999944
20
-47.2483900000000006
11
110.885475999999997
21
-47.8198189999999954
0
LINE
8
LYELLOW
6
CONTINUOUS
10
110.885475999999997
20
-47.8198189999999954
11
111.5045229999999918
21
-47.8198189999999954
0
LINE
8
LYELLOW
6
CONTINUOUS
10
112.4569039999999944
20
-47.8198189999999954
11
111.885475999999997
21
-47.8198189999999954
0
LINE
8
LYELLOW
6
CONTINUOUS
10
112.1711899999999957
20
-47.8198189999999954
11
112.1711899999999957
21
-46.8198189999999954
0
LINE
8
LYELLOW
6
CONTINUOUS
10
112.1711899999999957
20
-46.8198189999999954
11
112.0759520000000009
21
-46.9626759999999948
0
LINE
8
LYELLOW
6
CONTINUOUS
10
112.0759520000000009
20
-46.9626759999999948
11
111.9807139999999919
21
-47.0579139999999967
0
LINE
8
LYELLOW
6
CONTINUOUS
10
111.9807139999999919
20
-47.0579139999999967
11
111.885475999999997
21
-47.1055330000000012
0
LINE
8
LYELLOW
6
CONTINUOUS
10
110.5521419999999893
20
-55.8698189999999997
11
110.2188089999999931
21
-55.3936279999999996
0
LINE
8
LYELLOW
6
CONTINUOUS
10
109.9807139999999919
20
-55.8698189999999997
11
109.9807139999999919
21
-54.8698189999999997
0
LINE
8
LYELLOW
6
CONTINUOUS
10
109.9807139999999919
20
-54.8698189999999997
11
110.3616659999999996
21
-54.8698189999999997
0
LINE
8
LYELLOW
6
CONTINUOUS
10
110.3616659999999996
20
-54.8698189999999997
11
110.4569039999999944
21
-54.9174379999999971
0
LINE
8
LYELLOW
6
CONTINUOUS
10
110.4569039999999944
20
-54.9174379999999971
11
110.5045229999999918
21
-54.9650569999999945
0
LINE
8
LYELLOW
6
CONTINUOUS
10
110.5045229999999918
20
-54.9650569999999945
11
110.5521419999999893
21
-55.0602949999999964
0
LINE
8
LYELLOW
6
CONTINUOUS
10
110.5521419999999893
20
-55.0602949999999964
11
110.5521419999999893
21
-55.2031519999999958
0
LINE
8
LYELLOW
6
CONTINUOUS
10
110.5521419999999893
20
-55.2031519999999958
11
110.5045229999999918
21
-55.2983899999999977
0
LINE
8
LYELLOW
6
CONTINUOUS
10
110.5045229999999918
20
-55.2983899999999977
11
110.4569039999999944
21
-55.3460089999999951
0
LINE
8
LYELLOW
6
CONTINUOUS
10
110.4569039999999944
20
-55.3460089999999951
11
110.3616659999999996
21
-55.3936279999999996
0
LINE
8
LYELLOW
6
CONTINUOUS
10
110.3616659999999996
20
-55.3936279999999996
11
109.9807139999999919
21
-55.3936279999999996
0
LINE
8
LYELLOW
6
CONTINUOUS
10
110.885475999999997
20
-54.8698189999999997
11
111.5045229999999918
21
-54.8698189999999997
0
LINE
8
LYELLOW
6
CONTINUOUS
10
111.5045229999999918
20
-54.8698189999999997
11
111.1711899999999957
21
-55.2507710000000003
0
LINE
8
LYELLOW
6
CONTINUOUS
10
111.1711899999999957
20
-55.2507710000000003
11
111.314046999999988
21
-55.2507710000000003
0
LINE
8
LYELLOW
6
CONTINUOUS
10
111.314046999999988
20
-55.2507710000000003
11
111.409284999999997
21
-55.2983899999999977
0
LINE
8
LYELLOW
6
CONTINUOUS
10
111.409284999999997
20
-55.2983899999999977
11
111.4569039999999944
21
-55.3460089999999951
0
LINE
8
LYELLOW
6
CONTINUOUS
10
111.4569039999999944
20
-55.3460089999999951
11
111.5045229999999918
21
-55.4412469999999971
0
LINE
8
LYELLOW
6
CONTINUOUS
10
111.5045229999999918
20
-55.4412469999999971
11
111.5045229999999918
21
-55.6793419999999983
0
LINE
8
LYELLOW
6
CONTINUOUS
10
111.5045229999999918
20
-55.6793419999999983
11
111.4569039999999944
21
-55.7745800000000003
0
LINE
8
LYELLOW
6
CONTINUOUS
10
111.4569039999999944
20
-55.7745800000000003
11
111.409284999999997
21
-55.8221999999999952
0
LINE
8
LYELLOW
6
CONTINUOUS
10
111.409284999999997
20
-55.8221999999999952
11
111.314046999999988
21
-55.8698189999999997
0
LINE
8
LYELLOW
6
CONTINUOUS
10
111.314046999999988
20
-55.8698189999999997
11
111.0283329999999893
21
-55.8698189999999997
0
LINE
8
LYELLOW
6
CONTINUOUS
10
111.0283329999999893
20
-55.8698189999999997
11
110.9330949999999945
21
-55.8221999999999952
0
LINE
8
LYELLOW
6
CONTINUOUS
10
110.9330949999999945
20
-55.8221999999999952
11
110.885475999999997
21
-55.7745800000000003
0
LINE
8
LYELLOW
6
CONTINUOUS
10
111.885475999999997
20
-54.9650569999999945
11
111.9330949999999945
21
-54.9174379999999971
0
LINE
8
LYELLOW
6
CONTINUOUS
10
111.9330949999999945
20
-54.9174379999999971
11
112.0283329999999893
21
-54.8698189999999997
0
LINE
8
LYELLOW
6
CONTINUOUS
10
112.0283329999999893
20
-54.8698189999999997
11
112.2664279999999906
21
-54.8698189999999997
0
LINE
8
LYELLOW
6
CONTINUOUS
10
112.2664279999999906
20
-54.8698189999999997
11
112.3616659999999996
21
-54.9174379999999971
0
LINE
8
LYELLOW
6
CONTINUOUS
10
112.3616659999999996
20
-54.9174379999999971
11
112.409284999999997
21
-54.9650569999999945
0
LINE
8
LYELLOW
6
CONTINUOUS
10
112.409284999999997
20
-54.9650569999999945
11
112.4569039999999944
21
-55.0602949999999964
0
LINE
8
LYELLOW
6
CONTINUOUS
10
112.4569039999999944
20
-55.0602949999999964
11
112.4569039999999944
21
-55.1555329999999984
0
LINE
8
LYELLOW
6
CONTINUOUS
10
112.4569039999999944
20
-55.1555329999999984
11
112.409284999999997
21
-55.2983899999999977
0
LINE
8
LYELLOW
6
CONTINUOUS
10
112.409284999999997
20
-55.2983899999999977
11
111.8378569999999996
21
-55.8698189999999997
0
LINE
8
LYELLOW
6
CONTINUOUS
10
111.8378569999999996
20
-55.8698189999999997
11
112.4569039999999944
21
-55.8698189999999997
0
LINE
8
LYELLOW
6
CONTINUOUS
10
34.6666659999999993
20
-56.2848189999999988
11
34.6666659999999993
21
-56.9991039999999956
0
LINE
8
LYELLOW
6
CONTINUOUS
10
34.6666659999999993
20
-56.9991039999999956
11
34.6190470000000019
21
-57.1419609999999949
0
LINE
8
LYELLOW
6
CONTINUOUS
10
34.6190470000000019
20
-57.1419609999999949
11
34.523809
21
-57.2371999999999943
0
LINE
8
LYELLOW
6
CONTINUOUS
10
34.523809
20
-57.2371999999999943
11
34.3809520000000006
21
-57.2848189999999988
0
LINE
8
LYELLOW
6
CONTINUOUS
10
34.3809520000000006
20
-57.2848189999999988
11
34.2857139999999987
21
-57.2848189999999988
0
LINE
8
LYELLOW
6
CONTINUOUS
10
35.0476189999999974
20
-56.2848189999999988
11
35.6666659999999993
21
-56.2848189999999988
0
LINE
8
LYELLOW
6
CONTINUOUS
10
35.6666659999999993
20
-56.2848189999999988
11
35.3333329999999961
21
-56.6657709999999994
0
LINE
8
LYELLOW
6
CONTINUOUS
10
35.3333329999999961
20
-56.6657709999999994
11
35.4761899999999955
21
-56.6657709999999994
0
LINE
8
LYELLOW
6
CONTINUOUS
10
35.4761899999999955
20
-56.6657709999999994
11
35.5714279999999974
21
-56.7133899999999969
0
LINE
8
LYELLOW
6
CONTINUOUS
10
35.5714279999999974
20
-56.7133899999999969
11
35.6190470000000019
21
-56.7610089999999943
0
LINE
8
LYELLOW
6
CONTINUOUS
10
35.6190470000000019
20
-56.7610089999999943
11
35.6666659999999993
21
-56.8562469999999962
0
LINE
8
LYELLOW
6
CONTINUOUS
10
35.6666659999999993
20
-56.8562469999999962
11
35.6666659999999993
21
-57.0943419999999975
0
LINE
8
LYELLOW
6
CONTINUOUS
10
35.6666659999999993
20
-57.0943419999999975
11
35.6190470000000019
21
-57.1895799999999994
0
LINE
8
LYELLOW
6
CONTINUOUS
10
35.6190470000000019
20
-57.1895799999999994
11
35.5714279999999974
21
-57.2371999999999943
0
LINE
8
LYELLOW
6
CONTINUOUS
10
35.5714279999999974
20
-57.2371999999999943
11
35.4761899999999955
21
-57.2848189999999988
0
LINE
8
LYELLOW
6
CONTINUOUS
10
35.4761899999999955
20
-57.2848189999999988
11
35.1904759999999968
21
-57.2848189999999988
0
LINE
8
LYELLOW
6
CONTINUOUS
10
35.1904759999999968
20
-57.2848189999999988
11
35.0952380000000019
21
-57.2371999999999943
0
LINE
8
LYELLOW
6
CONTINUOUS
10
35.0952380000000019
20
-57.2371999999999943
11
35.0476189999999974
21
-57.1895799999999994
0
LINE
8
LYELLOW
6
CONTINUOUS
10
72.3849999999999909
20
-48.3649999999999949
11
78.9249999999999972
21
-48.3649999999999949
0
LINE
8
LYELLOW
6
CONTINUOUS
10
72.3849999999999909
20
-48.6950000000000003
11
72.3849999999999909
21
-48.3649999999999949
0
LINE
8
LYELLOW
6
CONTINUOUS
10
72.3849999999999909
20
-50.7749999999999986
11
72.3849999999999909
21
-51.1049999999999969
0
LINE
8
LYELLOW
6
CONTINUOUS
10
72.3849999999999909
20
-51.1049999999999969
11
78.9249999999999972
21
-51.1049999999999969
0
LINE
8
LYELLOW
6
CONTINUOUS
10
78.9249999999999972
20
-48.3649999999999949
11
78.9249999999999972
21
-48.6950000000000003
0
LINE
8
LYELLOW
6
CONTINUOUS
10
78.9249999999999972
20
-51.1049999999999969
11
78.9249999999999972
21
-50.7749999999999986
0
LINE
8
LYELLOW
6
CONTINUOUS
10
91.0949999999999989
20
-36.4849999999999994
11
96.3349999999999937
21
-36.4849999999999994
0
LINE
8
LYELLOW
6
CONTINUOUS
10
91.0949999999999989
20
-36.8219999999999956
11
91.0949999999999989
21
-36.4849999999999994
0
LINE
8
LYELLOW
6
CONTINUOUS
10
91.0949999999999989
20
-39.2250000000000014
11
91.0949999999999989
21
-38.8879999999999981
0
LINE
8
LYELLOW
6
CONTINUOUS
10
96.3349999999999937
20
-36.4849999999999994
11
96.3349999999999937
21
-36.8219999999999956
0
LINE
8
LYELLOW
6
CONTINUOUS
10
96.3349999999999937
20
-38.8879999999999981
11
96.3349999999999937
21
-39.2250000000000014
0
LINE
8
LYELLOW
6
CONTINUOUS
10
96.3349999999999937
20
-39.2250000000000014
11
91.0949999999999989
21
-39.2250000000000014
0
LINE
8
LYELLOW
6
CONTINUOUS
10
56.0349999999999966
20
-32.7149999999999963
11
56.0349999999999966
21
-42.9949999999999974
0
LINE
8
LYELLOW
6
CONTINUOUS
10
56.0349999999999966
20
-42.9949999999999974
11
60.5349999999999966
21
-42.9949999999999974
0
LINE
8
LYELLOW
6
CONTINUOUS
10
57.2849999999999966
20
-32.7149999999999963
11
56.0349999999999966
21
-32.7149999999999963
0
LINE
8
LYELLOW
6
CONTINUOUS
10
60.5349999999999966
20
-32.7149999999999963
11
59.2849999999999966
21
-32.7149999999999963
0
LINE
8
LYELLOW
6
CONTINUOUS
10
60.5349999999999966
20
-42.9949999999999974
11
60.5349999999999966
21
-32.7149999999999963
0
ARC
8
LYELLOW
10
58.2849999999999966
20
-32.7149999999999963
40
1.
50
-180.00000000
51
-0.00000000
0
LINE
8
LYELLOW
6
CONTINUOUS
10
133.
20
-28.1899999999999977
11
133.
21
-35.8099999999999952
0
LINE
8
LYELLOW
6
CONTINUOUS
10
133.
20
-35.8099999999999952
11
143.1599999999999966
21
-35.8099999999999952
0
LINE
8
LYELLOW
6
CONTINUOUS
10
143.1599999999999966
20
-28.1899999999999977
11
133.
21
-28.1899999999999977
0
LINE
8
LYELLOW
6
CONTINUOUS
10
143.1599999999999966
20
-34.5399999999999991
11
133.
21
-34.5399999999999991
0
LINE
8
LYELLOW
6
CONTINUOUS
10
143.1599999999999966
20
-35.8099999999999952
11
143.1599999999999966
21
-28.1899999999999977
0
LINE
8
LYELLOW
6
CONTINUOUS
10
54.6149999999999949
20
-64.4650000000000034
11
61.154999999999994
21
-64.4650000000000034
0
LINE
8
LYELLOW
6
CONTINUOUS
10
54.6149999999999949
20
-64.7950000000000017
11
54.6149999999999949
21
-64.4650000000000034
0
LINE
8
LYELLOW
6
CONTINUOUS
10
54.6149999999999949
20
-66.875
11
54.6149999999999949
21
-67.2049999999999983
0
LINE
8
LYELLOW
6
CONTINUOUS
10
54.6149999999999949
20
-67.2049999999999983
11
61.154999999999994
21
-67.2049999999999983
0
LINE
8
LYELLOW
6
CONTINUOUS
10
61.154999999999994
20
-64.4650000000000034
11
61.154999999999994
21
-64.7950000000000017
0
LINE
8
LYELLOW
6
CONTINUOUS
10
61.154999999999994
20
-67.2049999999999983
11
61.154999999999994
21
-66.875
0
LINE
8
LYELLOW
6
CONTINUOUS
10
74.6049999999999898
20
-32.7149999999999963
11
74.6049999999999898
21
-42.9949999999999974
0
LINE
8
LYELLOW
6
CONTINUOUS
10
74.6049999999999898
20
-42.9949999999999974
11
79.1049999999999898
21
-42.9949999999999974
0
LINE
8
LYELLOW
6
CONTINUOUS
10
75.8549999999999898
20
-32.7149999999999963
11
74.6049999999999898
21
-32.7149999999999963
0
LINE
8
LYELLOW
6
CONTINUOUS
10
79.1049999999999898
20
-32.7149999999999963
11
77.8549999999999898
21
-32.7149999999999963
0
LINE
8
LYELLOW
6
CONTINUOUS
10
79.1049999999999898
20
-42.9949999999999974
11
79.1049999999999898
21
-32.7149999999999963
0
ARC
8
LYELLOW
10
76.8549999999999898
20
-32.7149999999999963
40
1.
50
-180.00000000
51
-0.00000000
0
LINE
8
LYELLOW
6
CONTINUOUS
10
29.9199999999999982
20
-28.1899999999999977
11
29.9199999999999982
21
-35.8099999999999952
0
LINE
8
LYELLOW
6
CONTINUOUS
10
29.9199999999999982
20
-29.4599999999999973
11
40.0799999999999983
21
-29.4599999999999973
0
LINE
8
LYELLOW
6
CONTINUOUS
10
29.9199999999999982
20
-35.8099999999999952
11
40.0799999999999983
21
-35.8099999999999952
0
LINE
8
LYELLOW
6
CONTINUOUS
10
40.0799999999999983
20
-28.1899999999999977
11
29.9199999999999982
21
-28.1899999999999977
0
LINE
8
LYELLOW
6
CONTINUOUS
10
40.0799999999999983
20
-35.8099999999999952
11
40.0799999999999983
21
-28.1899999999999977
0
LINE
8
LYELLOW
6
CONTINUOUS
10
54.6149999999999949
20
-56.4149999999999991
11
61.154999999999994
21
-56.4149999999999991
0
LINE
8
LYELLOW
6
CONTINUOUS
10
54.6149999999999949
20
-56.7449999999999974
11
54.6149999999999949
21
-56.4149999999999991
0
LINE
8
LYELLOW
6
CONTINUOUS
10
54.6149999999999949
20
-58.8249999999999957
11
54.6149999999999949
21
-59.154999999999994
0
LINE
8
LYELLOW
6
CONTINUOUS
10
54.6149999999999949
20
-59.154999999999994
11
61.154999999999994
21
-59.154999999999994
0
LINE
8
LYELLOW
6
CONTINUOUS
10
61.154999999999994
20
-56.4149999999999991
11
61.154999999999994
21
-56.7449999999999974
0
LINE
8
LYELLOW
6
CONTINUOUS
10
61.154999999999994
20
-59.154999999999994
11
61.154999999999994
21
-58.8249999999999957
0
LINE
8
LYELLOW
6
CONTINUOUS
10
136.6999999999999886
20
-45.2899999999999991
11
138.0799999999999841
21
-45.2899999999999991
0
LINE
8
LYELLOW
6
CONTINUOUS
10
136.6999999999999886
20
-46.6699999999999946
11
136.6999999999999886
21
-45.2899999999999991
0
LINE
8
LYELLOW
6
CONTINUOUS
10
136.6999999999999886
20
-47.9399999999999977
11
136.6999999999999886
21
-58.2100000000000009
0
LINE
8
LYELLOW
6
CONTINUOUS
10
136.6999999999999886
20
-47.9399999999999977
11
139.4599999999999795
21
-47.9399999999999977
0
LINE
8
LYELLOW
6
CONTINUOUS
10
136.6999999999999886
20
-58.2100000000000009
11
139.4599999999999795
21
-58.2100000000000009
0
LINE
8
LYELLOW
6
CONTINUOUS
10
139.4599999999999795
20
-47.9399999999999977
11
139.4599999999999795
21
-58.2100000000000009
0
LINE
8
LYELLOW
6
CONTINUOUS
10
106.2449999999999903
20
-36.4849999999999994
11
111.4849999999999994
21
-36.4849999999999994
0
LINE
8
LYELLOW
6
CONTINUOUS
10
106.2449999999999903
20
-36.8219999999999956
11
106.2449999999999903
21
-36.4849999999999994
0
LINE
8
LYELLOW
6
CONTINUOUS
10
106.2449999999999903
20
-39.2250000000000014
11
106.2449999999999903
21
-38.8879999999999981
0
LINE
8
LYELLOW
6
CONTINUOUS
10
111.4849999999999994
20
-36.4849999999999994
11
111.4849999999999994
21
-36.8219999999999956
0
LINE
8
LYELLOW
6
CONTINUOUS
10
111.4849999999999994
20
-38.8879999999999981
11
111.4849999999999994
21
-39.2250000000000014
0
LINE
8
LYELLOW
6
CONTINUOUS
10
111.4849999999999994
20
-39.2250000000000014
11
106.2449999999999903
21
-39.2250000000000014
0
LINE
8
LYELLOW
6
CONTINUOUS
10
90.1550000000000011
20
-56.4149999999999991
11
96.6949999999999932
21
-56.4149999999999991
0
LINE
8
LYELLOW
6
CONTINUOUS
10
90.1550000000000011
20
-56.7449999999999974
11
90.1550000000000011
21
-56.4149999999999991
0
LINE
8
LYELLOW
6
CONTINUOUS
10
90.1550000000000011
20
-58.8249999999999957
11
90.1550000000000011
21
-59.154999999999994
0
LINE
8
LYELLOW
6
CONTINUOUS
10
90.1550000000000011
20
-59.154999999999994
11
96.6949999999999932
21
-59.154999999999994
0
LINE
8
LYELLOW
6
CONTINUOUS
10
96.6949999999999932
20
-56.4149999999999991
11
96.6949999999999932
21
-56.7449999999999974
0
LINE
8
LYELLOW
6
CONTINUOUS
10
96.6949999999999932
20
-59.154999999999994
11
96.6949999999999932
21
-58.8249999999999957
0
LINE
8
LYELLOW
6
CONTINUOUS
10
72.3849999999999909
20
-56.4149999999999991
11
78.9249999999999972
21
-56.4149999999999991
0
LINE
8
LYELLOW
6
CONTINUOUS
10
72.3849999999999909
20
-56.7449999999999974
11
72.3849999999999909
21
-56.4149999999999991
0
LINE
8
LYELLOW
6
CONTINUOUS
10
72.3849999999999909
20
-58.8249999999999957
11
72.3849999999999909
21
-59.154999999999994
0
LINE
8
LYELLOW
6
CONTINUOUS
10
72.3849999999999909
20
-59.154999999999994
11
78.9249999999999972
21
-59.154999999999994
0
LINE
8
LYELLOW
6
CONTINUOUS
10
78.9249999999999972
20
-56.4149999999999991
11
78.9249999999999972
21
-56.7449999999999974
0
LINE
8
LYELLOW
6
CONTINUOUS
10
78.9249999999999972
20
-59.154999999999994
11
78.9249999999999972
21
-58.8249999999999957
0
LINE
8
LYELLOW
6
CONTINUOUS
10
90.1550000000000011
20
-48.3649999999999949
11
96.6949999999999932
21
-48.3649999999999949
0
LINE
8
LYELLOW
6
CONTINUOUS
10
90.1550000000000011
20
-48.6950000000000003
11
90.1550000000000011
21
-48.3649999999999949
0
LINE
8
LYELLOW
6
CONTINUOUS
10
90.1550000000000011
20
-50.7749999999999986
11
90.1550000000000011
21
-51.1049999999999969
0
LINE
8
LYELLOW
6
CONTINUOUS
10
90.1550000000000011
20
-51.1049999999999969
11
96.6949999999999932
21
-51.1049999999999969
0
LINE
8
LYELLOW
6
CONTINUOUS
10
96.6949999999999932
20
-48.3649999999999949
11
96.6949999999999932
21
-48.6950000000000003
0
LINE
8
LYELLOW
6
CONTINUOUS
10
96.6949999999999932
20
-51.1049999999999969
11
96.6949999999999932
21
-50.7749999999999986
0
LINE
8
LYELLOW
6
CONTINUOUS
10
54.6149999999999949
20
-48.3649999999999949
11
61.154999999999994
21
-48.3649999999999949
0
LINE
8
LYELLOW
6
CONTINUOUS
10
54.6149999999999949
20
-48.6950000000000003
11
54.6149999999999949
21
-48.3649999999999949
0
LINE
8
LYELLOW
6
CONTINUOUS
10
54.6149999999999949
20
-50.7749999999999986
11
54.6149999999999949
21
-51.1049999999999969
0
LINE
8
LYELLOW
6
CONTINUOUS
10
54.6149999999999949
20
-51.1049999999999969
11
61.154999999999994
21
-51.1049999999999969
0
LINE
8
LYELLOW
6
CONTINUOUS
10
61.154999999999994
20
-48.3649999999999949
11
61.154999999999994
21
-48.6950000000000003
0
LINE
8
LYELLOW
6
CONTINUOUS
10
61.154999999999994
20
-51.1049999999999969
11
61.154999999999994
21
-50.7749999999999986
0
LINE
8
LYELLOW
6
CONTINUOUS
10
107.9249999999999972
20
-48.3649999999999949
11
114.4649999999999892
21
-48.3649999999999949
0
LINE
8
LYELLOW
6
CONTINUOUS
10
107.9249999999999972
20
-48.6950000000000003
11
107.9249999999999972
21
-48.3649999999999949
0
LINE
8
LYELLOW
6
CONTINUOUS
10
107.9249999999999972
20
-50.7749999999999986
11
107.9249999999999972
21
-51.1049999999999969
0
LINE
8
LYELLOW
6
CONTINUOUS
10
107.9249999999999972
20
-51.1049999999999969
11
114.4649999999999892
21
-51.1049999999999969
0
LINE
8
LYELLOW
6
CONTINUOUS
10
114.4649999999999892
20
-48.3649999999999949
11
114.4649999999999892
21
-48.6950000000000003
0
LINE
8
LYELLOW
6
CONTINUOUS
10
114.4649999999999892
20
-51.1049999999999969
11
114.4649999999999892
21
-50.7749999999999986
0
LINE
8
LYELLOW
6
CONTINUOUS
10
107.9249999999999972
20
-56.4149999999999991
11
114.4649999999999892
21
-56.4149999999999991
0
LINE
8
LYELLOW
6
CONTINUOUS
10
107.9249999999999972
20
-56.7449999999999974
11
107.9249999999999972
21
-56.4149999999999991
0
LINE
8
LYELLOW
6
CONTINUOUS
10
107.9249999999999972
20
-58.8249999999999957
11
107.9249999999999972
21
-59.154999999999994
0
LINE
8
LYELLOW
6
CONTINUOUS
10
107.9249999999999972
20
-59.154999999999994
11
114.4649999999999892
21
-59.154999999999994
0
LINE
8
LYELLOW
6
CONTINUOUS
10
114.4649999999999892
20
-56.4149999999999991
11
114.4649999999999892
21
-56.7449999999999974
0
LINE
8
LYELLOW
6
CONTINUOUS
10
114.4649999999999892
20
-59.154999999999994
11
114.4649999999999892
21
-58.8249999999999957
0
LINE
8
LYELLOW
6
CONTINUOUS
10
29.9199999999999982
20
-47.9399999999999977
11
29.9199999999999982
21
-55.5599999999999952
0
LINE
8
LYELLOW
6
CONTINUOUS
10
29.9199999999999982
20
-49.2100000000000009
11
40.0799999999999983
21
-49.2100000000000009
0
LINE
8
LYELLOW
6
CONTINUOUS
10
29.9199999999999982
20
-55.5599999999999952
11
40.0799999999999983
21
-55.5599999999999952
0
LINE
8
LYELLOW
6
CONTINUOUS
10
40.0799999999999983
20
-47.9399999999999977
11
29.9199999999999982
21
-47.9399999999999977
0
LINE
8
LYELLOW
6
CONTINUOUS
10
40.0799999999999983
20
-55.5599999999999952
11
40.0799999999999983
21
-47.9399999999999977
0
LINE
8
WHITE
6
CONTINUOUS
10
20.
20
-20.
11
154.
21
-20.
0
LINE
8
WHITE
6
CONTINUOUS
10
154.
20
-20.
11
154.
21
-78.
0
LINE
8
WHITE
6
CONTINUOUS
10
154.
20
-78.
11
20.
21
-78.
0
LINE
8
WHITE
6
CONTINUOUS
10
20.
20
-78.
11
20.
21
-20.
  0
ENDSEC
  0
EOF
