  0
SECTION
  2
HEADER
  9
$ANGBASE
  50
0.0
  9
$ANGDIR
  70
1
  9
$MEASUREMENT
  70
1
  9
$INSUNITS
  70
4
  0
ENDSEC
  0
SECTION
  2
TABLES
  0
TABLE
  2
LTYPE
  70
4
  0
LTYPE
  5
40F
  2
CONTINUOUS
  70
0
  3
Solid line
  72
65
  73
0
  40
0.0
  0
LTYPE
  5
410
  2
DASHDOT
 70
0
  3
Dash Dot ____ _ ____ _
 72
65
 73
4
 40
2.0
 49
1.25
 49
-0.25
 49
0.25
 49
-0.25
  0
LTYPE
  5
411
  2
DASHED
 70
0
  3
Dashed __ __ __ __ __
 72
65
 73
2
 40
0.75
 49
0.5
 49
-0.25
  0
LTYPE
  5
43B
  2
DOTTED
 70
0
  3
Dotted .  .  .  .
 72
65
 73
2
 40
0.2
 49
0.0
 49
-0.2
  0
ENDTAB
  0
TABLE
  2
STYLE
  70
4
  0
STYLE
  2
KICAD
  70
0
  40
0
  41
1
  42
1
  50
0
  71
0
  3
isocp.shx
  0
STYLE
  2
KICADB
  70
0
  40
0
  41
1
  42
1
  50
0
  71
0
  3
isocp.shx
  0
STYLE
  2
KICADI
  70
0
  40
0
  41
1
  42
1
  50
15
  71
0
  3
isocp.shx
  0
STYLE
  2
KICADBI
  70
0
  40
0
  41
1
  42
1
  50
15
  71
0
  3
isocp.shx
  0
ENDTAB
  0
TABLE
  2
LAYER
  70
35
  0
LAYER
  2
BLACK
  70
0
  62
7
  6
CONTINUOUS
  0
LAYER
  2
GRAY1
  70
0
  62
251
  6
CONTINUOUS
  0
LAYER
  2
GRAY2
  70
0
  62
8
  6
CONTINUOUS
  0
LAYER
  2
GRAY3
  70
0
  62
9
  6
CONTINUOUS
  0
LAYER
  2
WHITE
  70
0
  62
7
  6
CONTINUOUS
  0
LAYER
  2
LYELLOW
  70
0
  62
51
  6
CONTINUOUS
  0
LAYER
  2
LORANGE
  70
0
  62
41
  6
CONTINUOUS
  0
LAYER
  2
BLUE1
  70
0
  62
178
  6
CONTINUOUS
  0
LAYER
  2
GREEN1
  70
0
  62
98
  6
CONTINUOUS
  0
LAYER
  2
CYAN1
  70
0
  62
138
  6
CONTINUOUS
  0
LAYER
  2
RED1
  70
0
  62
18
  6
CONTINUOUS
  0
LAYER
  2
MAGENTA1
  70
0
  62
228
  6
CONTINUOUS
  0
LAYER
  2
BROWN1
  70
0
  62
58
  6
CONTINUOUS
  0
LAYER
  2
ORANGE1
  70
0
  62
34
  6
CONTINUOUS
  0
LAYER
  2
BLUE2
  70
0
  62
5
  6
CONTINUOUS
  0
LAYER
  2
GREEN2
  70
0
  62
3
  6
CONTINUOUS
  0
LAYER
  2
CYAN2
  70
0
  62
4
  6
CONTINUOUS
  0
LAYER
  2
RED2
  70
0
  62
1
  6
CONTINUOUS
  0
LAYER
  2
MAGENTA2
  70
0
  62
6
  6
CONTINUOUS
  0
LAYER
  2
BROWN2
  70
0
  62
54
  6
CONTINUOUS
  0
LAYER
  2
ORANGE2
  70
0
  62
42
  6
CONTINUOUS
  0
LAYER
  2
BLUE3
  70
0
  62
171
  6
CONTINUOUS
  0
LAYER
  2
GREEN3
  70
0
  62
91
  6
CONTINUOUS
  0
LAYER
  2
CYAN3
  70
0
  62
131
  6
CONTINUOUS
  0
LAYER
  2
RED3
  70
0
  62
11
  6
CONTINUOUS
  0
LAYER
  2
MAGENTA3
  70
0
  62
221
  6
CONTINUOUS
  0
LAYER
  2
YELLOW3
  70
0
  62
2
  6
CONTINUOUS
  0
LAYER
  2
ORANGE3
  70
0
  62
32
  6
CONTINUOUS
  0
LAYER
  2
BLUE4
  70
0
  62
5
  6
CONTINUOUS
  0
LAYER
  2
GREEN4
  70
0
  62
3
  6
CONTINUOUS
  0
LAYER
  2
CYAN4
  70
0
  62
4
  6
CONTINUOUS
  0
LAYER
  2
RED4
  70
0
  62
1
  6
CONTINUOUS
  0
LAYER
  2
MAGENTA4
  70
0
  62
6
  6
CONTINUOUS
  0
LAYER
  2
YELLOW4
  70
0
  62
2
  6
CONTINUOUS
  0
LAYER
  2
ORANGE4
  70
0
  62
40
  6
CONTINUOUS
  0
ENDTAB
  0
ENDSEC
  0
SECTION
  2
ENTITIES
0
LINE
8
BLACK
6
CONTINUOUS
10
39.2767419999999987
20
-65.9503009999999961
11
39.4306869999999989
21
-66.0140669999999972
0
LINE
8
BLACK
6
CONTINUOUS
10
39.4306869999999989
20
-66.0140669999999972
11
39.5692340000000016
21
-66.1066409999999962
0
LINE
8
BLACK
6
CONTINUOUS
10
39.5692340000000016
20
-66.1066409999999962
11
39.6870589999999979
21
-66.2244659999999925
0
LINE
8
BLACK
6
CONTINUOUS
10
39.6870589999999979
20
-66.2244659999999925
11
39.7132739999999984
21
-66.2637
0
LINE
8
BLACK
6
CONTINUOUS
10
39.7132739999999984
20
-66.2637
11
46.3806999999999974
21
-66.2637
0
LINE
8
BLACK
6
CONTINUOUS
10
46.3806999999999974
20
-66.2637
11
46.4459480000000013
21
-66.2679770000000019
0
LINE
8
BLACK
6
CONTINUOUS
10
46.4459480000000013
20
-66.2679770000000019
11
46.445962999999999
21
-66.2679770000000019
0
LINE
8
BLACK
6
CONTINUOUS
10
46.445962999999999
20
-66.2679770000000019
11
46.5720419999999962
21
-66.3017600000000016
0
LINE
8
BLACK
6
CONTINUOUS
10
46.5720419999999962
20
-66.3017600000000016
11
46.6850809999999967
21
-66.3670230000000032
0
LINE
8
BLACK
6
CONTINUOUS
10
46.6850809999999967
20
-66.3670230000000032
11
46.6850959999999944
21
-66.3670379999999938
0
LINE
8
BLACK
6
CONTINUOUS
10
46.6850959999999944
20
-66.3670379999999938
11
46.7342529999999954
21
-66.4101469999999949
0
LINE
8
BLACK
6
CONTINUOUS
10
46.7342529999999954
20
-66.4101469999999949
11
60.9435069999999968
21
-80.6193999999999988
0
LINE
8
BLACK
6
CONTINUOUS
10
60.9435069999999968
20
-80.6193999999999988
11
75.6721939999999904
21
-80.6193999999999988
0
LINE
8
BLACK
6
CONTINUOUS
10
75.6721939999999904
20
-80.6193999999999988
11
77.2006149999999991
21
-79.0909779999999927
0
LINE
8
BLACK
6
CONTINUOUS
10
77.2006149999999991
20
-79.0909779999999927
11
77.1988520000000022
21
-79.08211399999999
0
LINE
8
BLACK
6
CONTINUOUS
10
77.1988520000000022
20
-79.08211399999999
11
77.1988520000000022
21
-78.9252859999999998
0
LINE
8
BLACK
6
CONTINUOUS
10
77.1988520000000022
20
-78.9252859999999998
11
77.2294479999999908
21
-78.7714720000000028
0
LINE
8
BLACK
6
CONTINUOUS
10
77.2294479999999908
20
-78.7714720000000028
11
77.2894629999999978
21
-78.6265829999999966
0
LINE
8
BLACK
6
CONTINUOUS
10
77.2894629999999978
20
-78.6265829999999966
11
77.3765920000000023
21
-78.496184999999997
0
LINE
8
BLACK
6
CONTINUOUS
10
77.3765920000000023
20
-78.496184999999997
11
77.4874849999999924
21
-78.3852919999999926
0
LINE
8
BLACK
6
CONTINUOUS
10
77.4874849999999924
20
-78.3852919999999926
11
77.617882999999992
21
-78.2981630000000024
0
LINE
8
BLACK
6
CONTINUOUS
10
77.617882999999992
20
-78.2981630000000024
11
77.7627719999999982
21
-78.2381479999999954
0
LINE
8
BLACK
6
CONTINUOUS
10
77.7627719999999982
20
-78.2381479999999954
11
77.9165859999999952
21
-78.2075519999999926
0
LINE
8
BLACK
6
CONTINUOUS
10
77.9165859999999952
20
-78.2075519999999926
11
78.0734139999999996
21
-78.2075519999999926
0
LINE
8
BLACK
6
CONTINUOUS
10
78.0734139999999996
20
-78.2075519999999926
11
78.0822780000000023
21
-78.2093149999999895
0
LINE
8
BLACK
6
CONTINUOUS
10
78.0822780000000023
20
-78.2093149999999895
11
79.7549999999999955
21
-76.5365929999999963
0
LINE
8
BLACK
6
CONTINUOUS
10
79.7549999999999955
20
-76.5365929999999963
11
79.7549999999999955
21
-73.7869740000000007
0
LINE
8
BLACK
6
CONTINUOUS
10
79.7549999999999955
20
-73.7869740000000007
11
79.7157660000000021
21
-73.7607589999999931
0
LINE
8
BLACK
6
CONTINUOUS
10
79.7157660000000021
20
-73.7607589999999931
11
79.5979409999999916
21
-73.6429339999999968
0
LINE
8
BLACK
6
CONTINUOUS
10
79.5979409999999916
20
-73.6429339999999968
11
79.5053669999999926
21
-73.5043869999999941
0
LINE
8
BLACK
6
CONTINUOUS
10
79.5053669999999926
20
-73.5043869999999941
11
79.4416009999999915
21
-73.350442000000001
0
LINE
8
BLACK
6
CONTINUOUS
10
79.4416009999999915
20
-73.350442000000001
11
79.4090929999999986
21
-73.1870150000000024
0
LINE
8
BLACK
6
CONTINUOUS
10
79.4090929999999986
20
-73.1870150000000024
11
79.4050000000000011
21
-73.1037000000000035
0
LINE
8
BLACK
6
CONTINUOUS
10
79.4050000000000011
20
-73.1037000000000035
11
79.4050000000000011
21
-72.8036999999999921
0
LINE
8
BLACK
6
CONTINUOUS
10
79.4050000000000011
20
-72.8036999999999921
11
79.4090929999999986
21
-72.7203849999999932
0
LINE
8
BLACK
6
CONTINUOUS
10
79.4090929999999986
20
-72.7203849999999932
11
79.4416009999999915
21
-72.5569579999999945
0
LINE
8
BLACK
6
CONTINUOUS
10
79.4416009999999915
20
-72.5569579999999945
11
79.5053669999999926
21
-72.4030130000000014
0
LINE
8
BLACK
6
CONTINUOUS
10
79.5053669999999926
20
-72.4030130000000014
11
79.5979409999999916
21
-72.2644659999999988
0
LINE
8
BLACK
6
CONTINUOUS
10
79.5979409999999916
20
-72.2644659999999988
11
79.7157660000000021
21
-72.1466410000000025
0
LINE
8
BLACK
6
CONTINUOUS
10
79.7157660000000021
20
-72.1466410000000025
11
79.8543129999999906
21
-72.0540670000000034
0
LINE
8
BLACK
6
CONTINUOUS
10
79.8543129999999906
20
-72.0540670000000034
11
80.0082579999999979
21
-71.9903010000000023
0
LINE
8
BLACK
6
CONTINUOUS
10
80.0082579999999979
20
-71.9903010000000023
11
80.1716849999999965
21
-71.9577929999999952
0
LINE
8
BLACK
6
CONTINUOUS
10
80.1716849999999965
20
-71.9577929999999952
11
80.3383149999999944
21
-71.9577929999999952
0
LINE
8
BLACK
6
CONTINUOUS
10
80.3383149999999944
20
-71.9577929999999952
11
80.501741999999993
21
-71.9903010000000023
0
LINE
8
BLACK
6
CONTINUOUS
10
80.501741999999993
20
-71.9903010000000023
11
80.6556870000000004
21
-72.0540670000000034
0
LINE
8
BLACK
6
CONTINUOUS
10
80.6556870000000004
20
-72.0540670000000034
11
80.794234000000003
21
-72.1466410000000025
0
LINE
8
BLACK
6
CONTINUOUS
10
80.794234000000003
20
-72.1466410000000025
11
80.9120589999999993
21
-72.2644659999999988
0
LINE
8
BLACK
6
CONTINUOUS
10
80.9120589999999993
20
-72.2644659999999988
11
81.0046329999999983
21
-72.4030130000000014
0
LINE
8
BLACK
6
CONTINUOUS
10
81.0046329999999983
20
-72.4030130000000014
11
81.0256279999999975
21
-72.4536999999999978
0
LINE
8
BLACK
6
CONTINUOUS
10
81.0256279999999975
20
-72.4536999999999978
11
98.5753939999999886
21
-72.4536999999999978
0
LINE
8
BLACK
6
CONTINUOUS
10
98.5753939999999886
20
-72.4536999999999978
11
102.4636369999999914
21
-68.565455
0
LINE
8
BLACK
6
CONTINUOUS
10
102.4636369999999914
20
-68.565455
11
102.4465689999999967
21
-68.5319569999999914
0
LINE
8
BLACK
6
CONTINUOUS
10
102.4465689999999967
20
-68.5319569999999914
11
102.3786819999999977
21
-68.3230240000000038
0
LINE
8
BLACK
6
CONTINUOUS
10
102.3786819999999977
20
-68.3230240000000038
11
102.3443159999999921
21
-68.1060429999999997
0
LINE
8
BLACK
6
CONTINUOUS
10
102.3443159999999921
20
-68.1060429999999997
11
102.3443159999999921
21
-67.8863570000000038
0
LINE
8
BLACK
6
CONTINUOUS
10
102.3443159999999921
20
-67.8863570000000038
11
102.3786819999999977
21
-67.6693759999999997
0
LINE
8
BLACK
6
CONTINUOUS
10
102.3786819999999977
20
-67.6693759999999997
11
102.4465689999999967
21
-67.4604429999999979
0
LINE
8
BLACK
6
CONTINUOUS
10
102.4465689999999967
20
-67.4604429999999979
11
102.5463039999999921
21
-67.2647019999999998
0
LINE
8
BLACK
6
CONTINUOUS
10
102.5463039999999921
20
-67.2647019999999998
11
102.6754320000000007
21
-67.0869730000000004
0
LINE
8
BLACK
6
CONTINUOUS
10
102.6754320000000007
20
-67.0869730000000004
11
102.8307729999999935
21
-66.9316319999999934
0
LINE
8
BLACK
6
CONTINUOUS
10
102.8307729999999935
20
-66.9316319999999934
11
103.0085019999999929
21
-66.802503999999999
0
LINE
8
BLACK
6
CONTINUOUS
10
103.0085019999999929
20
-66.802503999999999
11
103.2042429999999911
21
-66.7027690000000035
0
LINE
8
BLACK
6
CONTINUOUS
10
103.2042429999999911
20
-66.7027690000000035
11
103.4131759999999929
21
-66.6348819999999904
0
LINE
8
BLACK
6
CONTINUOUS
10
103.4131759999999929
20
-66.6348819999999904
11
103.630156999999997
21
-66.6005159999999989
0
LINE
8
BLACK
6
CONTINUOUS
10
103.630156999999997
20
-66.6005159999999989
11
103.8498429999999928
21
-66.6005159999999989
0
LINE
8
BLACK
6
CONTINUOUS
10
103.8498429999999928
20
-66.6005159999999989
11
104.0668239999999969
21
-66.6348819999999904
0
LINE
8
BLACK
6
CONTINUOUS
10
104.0668239999999969
20
-66.6348819999999904
11
104.2757569999999987
21
-66.7027690000000035
0
LINE
8
BLACK
6
CONTINUOUS
10
104.2757569999999987
20
-66.7027690000000035
11
104.4714979999999969
21
-66.802503999999999
0
LINE
8
BLACK
6
CONTINUOUS
10
104.4714979999999969
20
-66.802503999999999
11
104.6492269999999962
21
-66.9316319999999934
0
LINE
8
BLACK
6
CONTINUOUS
10
104.6492269999999962
20
-66.9316319999999934
11
104.8045679999999891
21
-67.0869730000000004
0
LINE
8
BLACK
6
CONTINUOUS
10
104.8045679999999891
20
-67.0869730000000004
11
104.9336959999999976
21
-67.2647019999999998
0
LINE
8
BLACK
6
CONTINUOUS
10
104.9336959999999976
20
-67.2647019999999998
11
105.0334309999999931
21
-67.4604429999999979
0
LINE
8
BLACK
6
CONTINUOUS
10
105.0334309999999931
20
-67.4604429999999979
11
105.101317999999992
21
-67.6693759999999997
0
LINE
8
BLACK
6
CONTINUOUS
10
105.101317999999992
20
-67.6693759999999997
11
105.1356839999999977
21
-67.8863570000000038
0
LINE
8
BLACK
6
CONTINUOUS
10
105.1356839999999977
20
-67.8863570000000038
11
105.1356839999999977
21
-68.1060429999999997
0
LINE
8
BLACK
6
CONTINUOUS
10
105.1356839999999977
20
-68.1060429999999997
11
105.101317999999992
21
-68.3230240000000038
0
LINE
8
BLACK
6
CONTINUOUS
10
105.101317999999992
20
-68.3230240000000038
11
105.0334309999999931
21
-68.5319569999999914
0
LINE
8
BLACK
6
CONTINUOUS
10
105.0334309999999931
20
-68.5319569999999914
11
104.9336959999999976
21
-68.7276980000000037
0
LINE
8
BLACK
6
CONTINUOUS
10
104.9336959999999976
20
-68.7276980000000037
11
104.8045679999999891
21
-68.9054270000000031
0
LINE
8
BLACK
6
CONTINUOUS
10
104.8045679999999891
20
-68.9054270000000031
11
104.6492269999999962
21
-69.0607679999999959
0
LINE
8
BLACK
6
CONTINUOUS
10
104.6492269999999962
20
-69.0607679999999959
11
104.4714979999999969
21
-69.1898959999999903
0
LINE
8
BLACK
6
CONTINUOUS
10
104.4714979999999969
20
-69.1898959999999903
11
104.2757569999999987
21
-69.289631
0
LINE
8
BLACK
6
CONTINUOUS
10
104.2757569999999987
20
-69.289631
11
104.0668239999999969
21
-69.3575179999999989
0
LINE
8
BLACK
6
CONTINUOUS
10
104.0668239999999969
20
-69.3575179999999989
11
103.8498429999999928
21
-69.3918839999999904
0
LINE
8
BLACK
6
CONTINUOUS
10
103.8498429999999928
20
-69.3918839999999904
11
103.630156999999997
21
-69.3918839999999904
0
LINE
8
BLACK
6
CONTINUOUS
10
103.630156999999997
20
-69.3918839999999904
11
103.4131759999999929
21
-69.3575179999999989
0
LINE
8
BLACK
6
CONTINUOUS
10
103.4131759999999929
20
-69.3575179999999989
11
103.2042429999999911
21
-69.289631
0
LINE
8
BLACK
6
CONTINUOUS
10
103.2042429999999911
20
-69.289631
11
103.1707439999999991
21
-69.2725619999999935
0
LINE
8
BLACK
6
CONTINUOUS
10
103.1707439999999991
20
-69.2725619999999935
11
99.1360529999999898
21
-73.3072530000000029
0
LINE
8
BLACK
6
CONTINUOUS
10
99.1360529999999898
20
-73.3072530000000029
11
99.0868959999999959
21
-73.3503609999999924
0
LINE
8
BLACK
6
CONTINUOUS
10
99.0868959999999959
20
-73.3503609999999924
11
99.0868809999999911
21
-73.3503769999999946
0
LINE
8
BLACK
6
CONTINUOUS
10
99.0868809999999911
20
-73.3503769999999946
11
98.9738419999999905
21
-73.4156399999999962
0
LINE
8
BLACK
6
CONTINUOUS
10
98.9738419999999905
20
-73.4156399999999962
11
98.8477630000000005
21
-73.4494229999999959
0
LINE
8
BLACK
6
CONTINUOUS
10
98.8477630000000005
20
-73.4494229999999959
11
98.8477479999999957
21
-73.4494229999999959
0
LINE
8
BLACK
6
CONTINUOUS
10
98.8477479999999957
20
-73.4494229999999959
11
98.7824999999999989
21
-73.4536999999999978
0
LINE
8
BLACK
6
CONTINUOUS
10
98.7824999999999989
20
-73.4536999999999978
11
81.0256279999999975
21
-73.4536999999999978
0
LINE
8
BLACK
6
CONTINUOUS
10
81.0256279999999975
20
-73.4536999999999978
11
81.0046329999999983
21
-73.5043869999999941
0
LINE
8
BLACK
6
CONTINUOUS
10
81.0046329999999983
20
-73.5043869999999941
11
80.9120589999999993
21
-73.6429339999999968
0
LINE
8
BLACK
6
CONTINUOUS
10
80.9120589999999993
20
-73.6429339999999968
11
80.794234000000003
21
-73.7607589999999931
0
LINE
8
BLACK
6
CONTINUOUS
10
80.794234000000003
20
-73.7607589999999931
11
80.7549999999999955
21
-73.7869740000000007
0
LINE
8
BLACK
6
CONTINUOUS
10
80.7549999999999955
20
-73.7869740000000007
11
80.7549999999999955
21
-76.7436999999999898
0
LINE
8
BLACK
6
CONTINUOUS
10
80.7549999999999955
20
-76.7436999999999898
11
80.7507229999999936
21
-76.8089470000000034
0
LINE
8
BLACK
6
CONTINUOUS
10
80.7507229999999936
20
-76.8089470000000034
11
80.7507229999999936
21
-76.8089629999999914
0
LINE
8
BLACK
6
CONTINUOUS
10
80.7507229999999936
20
-76.8089629999999914
11
80.7407850000000025
21
-76.8460510000000028
0
LINE
8
BLACK
6
CONTINUOUS
10
80.7407850000000025
20
-76.8460510000000028
11
80.7169399999999939
21
-76.9350419999999957
0
LINE
8
BLACK
6
CONTINUOUS
10
80.7169399999999939
20
-76.9350419999999957
11
80.6516769999999923
21
-77.0480809999999963
0
LINE
8
BLACK
6
CONTINUOUS
10
80.6516769999999923
20
-77.0480809999999963
11
80.6516689999999983
21
-77.0480879999999928
0
LINE
8
BLACK
6
CONTINUOUS
10
80.6516689999999983
20
-77.0480879999999928
11
80.608553999999998
21
-77.0972529999999949
0
LINE
8
BLACK
6
CONTINUOUS
10
80.608553999999998
20
-77.0972529999999949
11
78.7893839999999983
21
-78.9164209999999997
0
LINE
8
BLACK
6
CONTINUOUS
10
78.7893839999999983
20
-78.9164209999999997
11
78.7911479999999926
21
-78.9252859999999998
0
LINE
8
BLACK
6
CONTINUOUS
10
78.7911479999999926
20
-78.9252859999999998
11
78.7911479999999926
21
-79.08211399999999
0
LINE
8
BLACK
6
CONTINUOUS
10
78.7911479999999926
20
-79.08211399999999
11
78.7605519999999899
21
-79.2359280000000012
0
LINE
8
BLACK
6
CONTINUOUS
10
78.7605519999999899
20
-79.2359280000000012
11
78.7005369999999971
21
-79.3808169999999933
0
LINE
8
BLACK
6
CONTINUOUS
10
78.7005369999999971
20
-79.3808169999999933
11
78.6134079999999926
21
-79.5112149999999929
0
LINE
8
BLACK
6
CONTINUOUS
10
78.6134079999999926
20
-79.5112149999999929
11
78.5025150000000025
21
-79.6221079999999972
0
LINE
8
BLACK
6
CONTINUOUS
10
78.5025150000000025
20
-79.6221079999999972
11
78.3721170000000029
21
-79.7092370000000017
0
LINE
8
BLACK
6
CONTINUOUS
10
78.3721170000000029
20
-79.7092370000000017
11
78.2272279999999967
21
-79.7692519999999945
0
LINE
8
BLACK
6
CONTINUOUS
10
78.2272279999999967
20
-79.7692519999999945
11
78.0734139999999996
21
-79.7998479999999972
0
LINE
8
BLACK
6
CONTINUOUS
10
78.0734139999999996
20
-79.7998479999999972
11
77.9165859999999952
21
-79.7998479999999972
0
LINE
8
BLACK
6
CONTINUOUS
10
77.9165859999999952
20
-79.7998479999999972
11
77.9077209999999951
21
-79.7980840000000029
0
LINE
8
BLACK
6
CONTINUOUS
10
77.9077209999999951
20
-79.7980840000000029
11
76.2328529999999915
21
-81.4729529999999897
0
LINE
8
BLACK
6
CONTINUOUS
10
76.2328529999999915
20
-81.4729529999999897
11
76.1836959999999976
21
-81.5160609999999934
0
LINE
8
BLACK
6
CONTINUOUS
10
76.1836959999999976
20
-81.5160609999999934
11
76.1836809999999929
21
-81.5160769999999957
0
LINE
8
BLACK
6
CONTINUOUS
10
76.1836809999999929
20
-81.5160769999999957
11
76.0706419999999923
21
-81.5813399999999973
0
LINE
8
BLACK
6
CONTINUOUS
10
76.0706419999999923
20
-81.5813399999999973
11
75.9445630000000023
21
-81.615122999999997
0
LINE
8
BLACK
6
CONTINUOUS
10
75.9445630000000023
20
-81.615122999999997
11
75.9445479999999975
21
-81.615122999999997
0
LINE
8
BLACK
6
CONTINUOUS
10
75.9445479999999975
20
-81.615122999999997
11
75.8793000000000006
21
-81.6193999999999988
0
LINE
8
BLACK
6
CONTINUOUS
10
75.8793000000000006
20
-81.6193999999999988
11
60.7363999999999962
21
-81.6193999999999988
0
LINE
8
BLACK
6
CONTINUOUS
10
60.7363999999999962
20
-81.6193999999999988
11
60.6711519999999993
21
-81.615122999999997
0
LINE
8
BLACK
6
CONTINUOUS
10
60.6711519999999993
20
-81.615122999999997
11
60.6711369999999945
21
-81.615122999999997
0
LINE
8
BLACK
6
CONTINUOUS
10
60.6711369999999945
20
-81.615122999999997
11
60.5717009999999974
21
-81.5884789999999924
0
LINE
8
BLACK
6
CONTINUOUS
10
60.5717009999999974
20
-81.5884789999999924
11
60.5450579999999974
21
-81.5813399999999973
0
LINE
8
BLACK
6
CONTINUOUS
10
60.5450579999999974
20
-81.5813399999999973
11
60.4320189999999968
21
-81.5160769999999957
0
LINE
8
BLACK
6
CONTINUOUS
10
60.4320189999999968
20
-81.5160769999999957
11
60.4320109999999957
21
-81.5160690000000017
0
LINE
8
BLACK
6
CONTINUOUS
10
60.4320109999999957
20
-81.5160690000000017
11
60.3828469999999982
21
-81.4729540000000014
0
LINE
8
BLACK
6
CONTINUOUS
10
60.3828469999999982
20
-81.4729540000000014
11
46.1735940000000014
21
-67.2637
0
LINE
8
BLACK
6
CONTINUOUS
10
46.1735940000000014
20
-67.2637
11
39.7132739999999984
21
-67.2637
0
LINE
8
BLACK
6
CONTINUOUS
10
39.7132739999999984
20
-67.2637
11
39.6870589999999979
21
-67.3029339999999934
0
LINE
8
BLACK
6
CONTINUOUS
10
39.6870589999999979
20
-67.3029339999999934
11
39.5692340000000016
21
-67.4207590000000039
0
LINE
8
BLACK
6
CONTINUOUS
10
39.5692340000000016
20
-67.4207590000000039
11
39.4306869999999989
21
-67.5133330000000029
0
LINE
8
BLACK
6
CONTINUOUS
10
39.4306869999999989
20
-67.5133330000000029
11
39.2767419999999987
21
-67.577099000000004
0
LINE
8
BLACK
6
CONTINUOUS
10
39.2767419999999987
20
-67.577099000000004
11
39.1133150000000001
21
-67.6096069999999969
0
LINE
8
BLACK
6
CONTINUOUS
10
39.1133150000000001
20
-67.6096069999999969
11
38.9466849999999951
21
-67.6096069999999969
0
LINE
8
BLACK
6
CONTINUOUS
10
38.9466849999999951
20
-67.6096069999999969
11
38.7832579999999965
21
-67.577099000000004
0
LINE
8
BLACK
6
CONTINUOUS
10
38.7832579999999965
20
-67.577099000000004
11
38.6293129999999962
21
-67.5133330000000029
0
LINE
8
BLACK
6
CONTINUOUS
10
38.6293129999999962
20
-67.5133330000000029
11
38.4907660000000007
21
-67.4207590000000039
0
LINE
8
BLACK
6
CONTINUOUS
10
38.4907660000000007
20
-67.4207590000000039
11
38.3729409999999973
21
-67.3029339999999934
0
LINE
8
BLACK
6
CONTINUOUS
10
38.3729409999999973
20
-67.3029339999999934
11
38.2803669999999983
21
-67.1643869999999907
0
LINE
8
BLACK
6
CONTINUOUS
10
38.2803669999999983
20
-67.1643869999999907
11
38.2166009999999972
21
-67.0104419999999976
0
LINE
8
BLACK
6
CONTINUOUS
10
38.2166009999999972
20
-67.0104419999999976
11
38.1840929999999972
21
-66.847014999999999
0
LINE
8
BLACK
6
CONTINUOUS
10
38.1840929999999972
20
-66.847014999999999
11
38.1840929999999972
21
-66.6803850000000011
0
LINE
8
BLACK
6
CONTINUOUS
10
38.1840929999999972
20
-66.6803850000000011
11
38.2166009999999972
21
-66.5169580000000025
0
LINE
8
BLACK
6
CONTINUOUS
10
38.2166009999999972
20
-66.5169580000000025
11
38.2803669999999983
21
-66.3630129999999951
0
LINE
8
BLACK
6
CONTINUOUS
10
38.2803669999999983
20
-66.3630129999999951
11
38.3729409999999973
21
-66.2244659999999925
0
LINE
8
BLACK
6
CONTINUOUS
10
38.3729409999999973
20
-66.2244659999999925
11
38.4907660000000007
21
-66.1066409999999962
0
LINE
8
BLACK
6
CONTINUOUS
10
38.4907660000000007
20
-66.1066409999999962
11
38.6293129999999962
21
-66.0140669999999972
0
LINE
8
BLACK
6
CONTINUOUS
10
38.6293129999999962
20
-66.0140669999999972
11
38.7832579999999965
21
-65.9503009999999961
0
LINE
8
BLACK
6
CONTINUOUS
10
38.7832579999999965
20
-65.9503009999999961
11
38.9466849999999951
21
-65.9177930000000032
0
LINE
8
BLACK
6
CONTINUOUS
10
38.9466849999999951
20
-65.9177930000000032
11
39.1133150000000001
21
-65.9177930000000032
0
LINE
8
BLACK
6
CONTINUOUS
10
39.1133150000000001
20
-65.9177930000000032
11
39.2767419999999987
21
-65.9503009999999961
0
LINE
8
BLACK
6
CONTINUOUS
10
63.4973929999999953
20
-69.105284999999995
11
63.5431479999999951
21
-69.1580890000000039
0
LINE
8
BLACK
6
CONTINUOUS
10
63.5431479999999951
20
-69.1580890000000039
11
63.5530919999999995
21
-69.2272469999999913
0
LINE
8
BLACK
6
CONTINUOUS
10
63.5530919999999995
20
-69.2272469999999913
11
63.5240669999999952
21
-69.2908029999999968
0
LINE
8
BLACK
6
CONTINUOUS
10
63.5240669999999952
20
-69.2908029999999968
11
63.5180349999999976
21
-69.2972809999999981
0
LINE
8
BLACK
6
CONTINUOUS
10
63.5180349999999976
20
-69.2972809999999981
11
62.2330359999999985
21
-70.5822780000000023
0
LINE
8
BLACK
6
CONTINUOUS
10
62.2330359999999985
20
-70.5822780000000023
11
62.1127159999999989
21
-70.7478839999999991
0
LINE
8
BLACK
6
CONTINUOUS
10
62.1127159999999989
20
-70.7478839999999991
11
62.1127139999999969
21
-70.7478869999999915
0
LINE
8
BLACK
6
CONTINUOUS
10
62.1127139999999969
20
-70.7478869999999915
11
62.0888009999999966
21
-70.7948200000000014
0
LINE
8
BLACK
6
CONTINUOUS
10
62.0888009999999966
20
-70.7948200000000014
11
62.0197789999999998
21
-70.9302799999999962
0
LINE
8
BLACK
6
CONTINUOUS
10
62.0197789999999998
20
-70.9302799999999962
11
62.0140979999999971
21
-70.9477639999999923
0
LINE
8
BLACK
6
CONTINUOUS
10
62.0140979999999971
20
-70.9477639999999923
11
62.0140989999999945
21
-70.9477649999999898
0
LINE
8
BLACK
6
CONTINUOUS
10
62.0140989999999945
20
-70.9477649999999898
11
61.9568749999999966
21
-71.1238840000000039
0
LINE
8
BLACK
6
CONTINUOUS
10
61.9568749999999966
20
-71.1238840000000039
11
61.9568629999999985
21
-71.1239199999999983
0
LINE
8
BLACK
6
CONTINUOUS
10
61.9568629999999985
20
-71.1239199999999983
11
61.9565239999999946
21
-71.124960999999999
0
LINE
8
BLACK
6
CONTINUOUS
10
61.9565239999999946
20
-71.124960999999999
11
61.9565219999999997
21
-71.124968999999993
0
LINE
8
BLACK
6
CONTINUOUS
10
61.9565219999999997
20
-71.124968999999993
11
61.9244999999999948
21
-71.327147999999994
0
LINE
8
BLACK
6
CONTINUOUS
10
61.9244999999999948
20
-71.327147999999994
11
61.9244999999999948
21
-78.0304610000000025
0
LINE
8
BLACK
6
CONTINUOUS
10
61.9244999999999948
20
-78.0304610000000025
11
61.9048149999999993
21
-78.0974999999999966
0
LINE
8
BLACK
6
CONTINUOUS
10
61.9048149999999993
20
-78.0974999999999966
11
61.9008179999999939
21
-78.1033460000000019
0
LINE
8
BLACK
6
CONTINUOUS
10
61.9008179999999939
20
-78.1033460000000019
11
61.8561319999999952
21
-78.1648509999999987
0
LINE
8
BLACK
6
CONTINUOUS
10
61.8561319999999952
20
-78.1648509999999987
11
61.7417599999999993
21
-78.3893159999999938
0
LINE
8
BLACK
6
CONTINUOUS
10
61.7417599999999993
20
-78.3893159999999938
11
61.6639099999999942
21
-78.6289139999999946
0
LINE
8
BLACK
6
CONTINUOUS
10
61.6639099999999942
20
-78.6289139999999946
11
61.6412009999999952
21
-78.7722909999999956
0
LINE
8
BLACK
6
CONTINUOUS
10
61.6412009999999952
20
-78.7722909999999956
11
61.6244999999999976
21
-78.8777379999999937
0
LINE
8
BLACK
6
CONTINUOUS
10
61.6244999999999976
20
-78.8777379999999937
11
61.6244999999999976
21
-79.1296619999999962
0
LINE
8
BLACK
6
CONTINUOUS
10
61.6244999999999976
20
-79.1296619999999962
11
61.6639099999999942
21
-79.3784849999999977
0
LINE
8
BLACK
6
CONTINUOUS
10
61.6639099999999942
20
-79.3784849999999977
11
61.7417589999999947
21
-79.6180789999999945
0
LINE
8
BLACK
6
CONTINUOUS
10
61.7417589999999947
20
-79.6180789999999945
11
61.7417609999999968
21
-79.6180820000000011
0
LINE
8
BLACK
6
CONTINUOUS
10
61.7417609999999968
20
-79.6180820000000011
11
61.7417619999999943
21
-79.618085999999991
0
LINE
8
BLACK
6
CONTINUOUS
10
61.7417619999999943
20
-79.618085999999991
11
61.7522169999999946
21
-79.6386059999999958
0
LINE
8
BLACK
6
CONTINUOUS
10
61.7522169999999946
20
-79.6386059999999958
11
61.7651129999999995
21
-79.7072759999999931
0
LINE
8
BLACK
6
CONTINUOUS
10
61.7651129999999995
20
-79.7072759999999931
11
61.7388359999999992
21
-79.7720159999999936
0
LINE
8
BLACK
6
CONTINUOUS
10
61.7388359999999992
20
-79.7720159999999936
11
61.6817289999999971
21
-79.812271999999993
0
LINE
8
BLACK
6
CONTINUOUS
10
61.6817289999999971
20
-79.812271999999993
11
61.6417319999999975
21
-79.8188999999999993
0
LINE
8
BLACK
6
CONTINUOUS
10
61.6417319999999975
20
-79.8188999999999993
11
61.3264459999999971
21
-79.8188999999999993
0
LINE
8
BLACK
6
CONTINUOUS
10
61.3264459999999971
20
-79.8188999999999993
11
61.2594069999999959
21
-79.7992149999999896
0
LINE
8
BLACK
6
CONTINUOUS
10
61.2594069999999959
20
-79.7992149999999896
11
61.2387649999999937
21
-79.7825809999999933
0
LINE
8
BLACK
6
CONTINUOUS
10
61.2387649999999937
20
-79.7825809999999933
11
55.5720649999999949
21
-74.11587999999999
0
LINE
8
BLACK
6
CONTINUOUS
10
55.5720649999999949
20
-74.11587999999999
11
55.5385799999999961
21
-74.0545570000000026
0
LINE
8
BLACK
6
CONTINUOUS
10
55.5385799999999961
20
-74.0545570000000026
11
55.5435639999999964
21
-73.9848649999999992
0
LINE
8
BLACK
6
CONTINUOUS
10
55.5435639999999964
20
-73.9848649999999992
11
55.5854359999999943
21
-73.9289320000000032
0
LINE
8
BLACK
6
CONTINUOUS
10
55.5854359999999943
20
-73.9289320000000032
11
55.6509
21
-73.9045150000000035
0
LINE
8
BLACK
6
CONTINUOUS
10
55.6509
20
-73.9045150000000035
11
55.6597459999999984
21
-73.9041989999999913
0
LINE
8
BLACK
6
CONTINUOUS
10
55.6597459999999984
20
-73.9041989999999913
11
56.8066049999999976
21
-73.9041989999999913
0
LINE
8
BLACK
6
CONTINUOUS
10
56.8066049999999976
20
-73.9041989999999913
11
56.8066079999999971
21
-73.9041989999999913
0
LINE
8
BLACK
6
CONTINUOUS
10
56.8066079999999971
20
-73.9041989999999913
11
56.9609349999999992
21
-73.8889999999999958
0
LINE
8
BLACK
6
CONTINUOUS
10
56.9609349999999992
20
-73.8889999999999958
11
57.1589549999999988
21
-73.8289319999999947
0
LINE
8
BLACK
6
CONTINUOUS
10
57.1589549999999988
20
-73.8289319999999947
11
57.3414509999999993
21
-73.7313850000000031
0
LINE
8
BLACK
6
CONTINUOUS
10
57.3414509999999993
20
-73.7313850000000031
11
57.5014099999999999
21
-73.6001100000000008
0
LINE
8
BLACK
6
CONTINUOUS
10
57.5014099999999999
20
-73.6001100000000008
11
57.6326849999999951
21
-73.4401510000000002
0
LINE
8
BLACK
6
CONTINUOUS
10
57.6326849999999951
20
-73.4401510000000002
11
57.7302320000000009
21
-73.2576549999999997
0
LINE
8
BLACK
6
CONTINUOUS
10
57.7302320000000009
20
-73.2576549999999997
11
57.7902999999999949
21
-73.0596350000000001
0
LINE
8
BLACK
6
CONTINUOUS
10
57.7902999999999949
20
-73.0596350000000001
11
57.805499999999995
21
-72.9053090000000026
0
LINE
8
BLACK
6
CONTINUOUS
10
57.805499999999995
20
-72.9053090000000026
11
57.8054989999999975
21
-71.9937449999999899
0
LINE
8
BLACK
6
CONTINUOUS
10
57.8054989999999975
20
-71.9937449999999899
11
57.8251829999999956
21
-71.9267069999999933
0
LINE
8
BLACK
6
CONTINUOUS
10
57.8251829999999956
20
-71.9267069999999933
11
57.8418129999999948
21
-71.9060699999999997
0
LINE
8
BLACK
6
CONTINUOUS
10
57.8418129999999948
20
-71.9060699999999997
11
60.6259659999999982
21
-69.1219189999999912
0
LINE
8
BLACK
6
CONTINUOUS
10
60.6259659999999982
20
-69.1219189999999912
11
60.6872889999999998
21
-69.0884339999999924
0
LINE
8
BLACK
6
CONTINUOUS
10
60.6872889999999998
20
-69.0884339999999924
11
60.7136469999999946
21
-69.0855999999999995
0
LINE
8
BLACK
6
CONTINUOUS
10
60.7136469999999946
20
-69.0855999999999995
11
63.4303539999999941
21
-69.0855999999999995
0
LINE
8
BLACK
6
CONTINUOUS
10
63.4303539999999941
20
-69.0855999999999995
11
63.4973929999999953
21
-69.105284999999995
0
LINE
8
BLACK
6
CONTINUOUS
10
64.7307029999999912
20
-73.3575639999999964
11
64.7371809999999925
21
-73.3635960000000011
0
LINE
8
BLACK
6
CONTINUOUS
10
64.7371809999999925
20
-73.3635960000000011
11
64.8092180000000013
21
-73.4356329999999957
0
LINE
8
BLACK
6
CONTINUOUS
10
64.8092180000000013
20
-73.4356329999999957
11
64.8092249999999979
21
-73.4356389999999948
0
LINE
8
BLACK
6
CONTINUOUS
10
64.8092249999999979
20
-73.4356389999999948
11
65.0068729999999988
21
-73.5872990000000016
0
LINE
8
BLACK
6
CONTINUOUS
10
65.0068729999999988
20
-73.5872990000000016
11
65.2226229999999987
21
-73.7118619999999964
0
LINE
8
BLACK
6
CONTINUOUS
10
65.2226229999999987
20
-73.7118619999999964
11
65.2226380000000034
21
-73.711868999999993
0
LINE
8
BLACK
6
CONTINUOUS
10
65.2226380000000034
20
-73.711868999999993
11
65.321825000000004
21
-73.7529529999999909
0
LINE
8
BLACK
6
CONTINUOUS
10
65.321825000000004
20
-73.7529529999999909
11
65.4527929999999998
21
-73.8072020000000037
0
LINE
8
BLACK
6
CONTINUOUS
10
65.4527929999999998
20
-73.8072020000000037
11
65.6934349999999938
21
-73.8716819999999927
0
LINE
8
BLACK
6
CONTINUOUS
10
65.6934349999999938
20
-73.8716819999999927
11
65.9404349999999937
21
-73.904200000000003
0
LINE
8
BLACK
6
CONTINUOUS
10
65.9404349999999937
20
-73.904200000000003
11
66.0749529999999936
21
-73.904200000000003
0
LINE
8
BLACK
6
CONTINUOUS
10
66.0749529999999936
20
-73.904200000000003
11
66.1419920000000019
21
-73.9238849999999985
0
LINE
8
BLACK
6
CONTINUOUS
10
66.1419920000000019
20
-73.9238849999999985
11
66.1626339999999971
21
-73.9405189999999948
0
LINE
8
BLACK
6
CONTINUOUS
10
66.1626339999999971
20
-73.9405189999999948
11
68.4694810000000018
21
-76.2473659999999995
0
LINE
8
BLACK
6
CONTINUOUS
10
68.4694810000000018
20
-76.2473659999999995
11
68.6350889999999936
21
-76.3676869999999894
0
LINE
8
BLACK
6
CONTINUOUS
10
68.6350889999999936
20
-76.3676869999999894
11
68.7262849999999901
21
-76.4141529999999989
0
LINE
8
BLACK
6
CONTINUOUS
10
68.7262849999999901
20
-76.4141529999999989
11
68.8174810000000008
21
-76.4606199999999916
0
LINE
8
BLACK
6
CONTINUOUS
10
68.8174810000000008
20
-76.4606199999999916
11
68.9148229999999984
21
-76.4922480000000036
0
LINE
8
BLACK
6
CONTINUOUS
10
68.9148229999999984
20
-76.4922480000000036
11
69.012164999999996
21
-76.5238769999999988
0
LINE
8
BLACK
6
CONTINUOUS
10
69.012164999999996
20
-76.5238769999999988
11
69.2143480000000011
21
-76.5558999999999941
0
LINE
8
BLACK
6
CONTINUOUS
10
69.2143480000000011
20
-76.5558999999999941
11
69.2143489999999986
21
-76.5558999999999941
0
LINE
8
BLACK
6
CONTINUOUS
10
69.2143489999999986
20
-76.5558999999999941
11
77.8173510000000022
21
-76.5558999999999941
0
LINE
8
BLACK
6
CONTINUOUS
10
77.8173510000000022
20
-76.5558999999999941
11
77.8173519999999996
21
-76.5558999999999941
0
LINE
8
BLACK
6
CONTINUOUS
10
77.8173519999999996
20
-76.5558999999999941
11
78.0195339999999931
21
-76.5238769999999988
0
LINE
8
BLACK
6
CONTINUOUS
10
78.0195339999999931
20
-76.5238769999999988
11
78.2142189999999999
21
-76.4606199999999916
0
LINE
8
BLACK
6
CONTINUOUS
10
78.2142189999999999
20
-76.4606199999999916
11
78.3966099999999955
21
-76.3676869999999894
0
LINE
8
BLACK
6
CONTINUOUS
10
78.3966099999999955
20
-76.3676869999999894
11
78.4727180000000004
21
-76.312390999999991
0
LINE
8
BLACK
6
CONTINUOUS
10
78.4727180000000004
20
-76.312390999999991
11
78.5661609999999939
21
-76.2445029999999946
0
LINE
8
BLACK
6
CONTINUOUS
10
78.5661609999999939
20
-76.2445029999999946
11
78.5671540000000022
21
-76.2458699999999965
0
LINE
8
BLACK
6
CONTINUOUS
10
78.5671540000000022
20
-76.2458699999999965
11
78.6241989999999902
21
-76.2202899999999914
0
LINE
8
BLACK
6
CONTINUOUS
10
78.6241989999999902
20
-76.2202899999999914
11
78.6932879999999955
21
-76.2307069999999953
0
LINE
8
BLACK
6
CONTINUOUS
10
78.6932879999999955
20
-76.2307069999999953
11
78.7457780000000014
21
-76.2768219999999957
0
LINE
8
BLACK
6
CONTINUOUS
10
78.7457780000000014
20
-76.2768219999999957
11
78.765002999999993
21
-76.3439949999999925
0
LINE
8
BLACK
6
CONTINUOUS
10
78.765002999999993
20
-76.3439949999999925
11
78.7448600000000027
21
-76.4108980000000031
0
LINE
8
BLACK
6
CONTINUOUS
10
78.7448600000000027
20
-76.4108980000000031
11
78.7286869999999936
21
-76.4308269999999936
0
LINE
8
BLACK
6
CONTINUOUS
10
78.7286869999999936
20
-76.4308269999999936
11
77.7635899999999936
21
-77.3959229999999963
0
LINE
8
BLACK
6
CONTINUOUS
10
77.7635899999999936
20
-77.3959229999999963
11
77.702266999999992
21
-77.4294079999999951
0
LINE
8
BLACK
6
CONTINUOUS
10
77.702266999999992
20
-77.4294079999999951
11
77.6953089999999946
21
-77.4307149999999922
0
LINE
8
BLACK
6
CONTINUOUS
10
77.6953089999999946
20
-77.4307149999999922
11
77.6202169999999967
21
-77.4426089999999903
0
LINE
8
BLACK
6
CONTINUOUS
10
77.6202169999999967
20
-77.4426089999999903
11
77.3806179999999983
21
-77.5204599999999999
0
LINE
8
BLACK
6
CONTINUOUS
10
77.3806179999999983
20
-77.5204599999999999
11
77.1561509999999942
21
-77.6348320000000029
0
LINE
8
BLACK
6
CONTINUOUS
10
77.1561509999999942
20
-77.6348320000000029
11
76.9523499999999956
21
-77.7829009999999954
0
LINE
8
BLACK
6
CONTINUOUS
10
76.9523499999999956
20
-77.7829009999999954
11
76.952344999999994
21
-77.7829049999999995
0
LINE
8
BLACK
6
CONTINUOUS
10
76.952344999999994
20
-77.7829049999999995
11
76.7742049999999949
21
-77.9610449999999986
0
LINE
8
BLACK
6
CONTINUOUS
10
76.7742049999999949
20
-77.9610449999999986
11
76.7742009999999908
21
-77.9610500000000002
0
LINE
8
BLACK
6
CONTINUOUS
10
76.7742009999999908
20
-77.9610500000000002
11
76.6261319999999984
21
-78.1648509999999987
0
LINE
8
BLACK
6
CONTINUOUS
10
76.6261319999999984
20
-78.1648509999999987
11
76.5117599999999953
21
-78.3893180000000029
0
LINE
8
BLACK
6
CONTINUOUS
10
76.5117599999999953
20
-78.3893180000000029
11
76.4339089999999999
21
-78.6289159999999896
0
LINE
8
BLACK
6
CONTINUOUS
10
76.4339089999999999
20
-78.6289159999999896
11
76.4220150000000018
21
-78.7040099999999967
0
LINE
8
BLACK
6
CONTINUOUS
10
76.4220150000000018
20
-78.7040099999999967
11
76.3920849999999945
21
-78.7671440000000018
0
LINE
8
BLACK
6
CONTINUOUS
10
76.3920849999999945
20
-78.7671440000000018
11
76.3872229999999917
21
-78.7722909999999956
0
LINE
8
BLACK
6
CONTINUOUS
10
76.3872229999999917
20
-78.7722909999999956
11
75.3769339999999914
21
-79.7825809999999933
0
LINE
8
BLACK
6
CONTINUOUS
10
75.3769339999999914
20
-79.7825809999999933
11
75.3156109999999899
21
-79.8160659999999922
0
LINE
8
BLACK
6
CONTINUOUS
10
75.3156109999999899
20
-79.8160659999999922
11
75.2892530000000022
21
-79.8188999999999993
0
LINE
8
BLACK
6
CONTINUOUS
10
75.2892530000000022
20
-79.8188999999999993
11
71.9582679999999897
21
-79.8188999999999993
0
LINE
8
BLACK
6
CONTINUOUS
10
71.9582679999999897
20
-79.8188999999999993
11
71.8912289999999956
21
-79.7992149999999896
0
LINE
8
BLACK
6
CONTINUOUS
10
71.8912289999999956
20
-79.7992149999999896
11
71.8454739999999958
21
-79.7464109999999948
0
LINE
8
BLACK
6
CONTINUOUS
10
71.8454739999999958
20
-79.7464109999999948
11
71.8355299999999914
21
-79.6772529999999932
0
LINE
8
BLACK
6
CONTINUOUS
10
71.8355299999999914
20
-79.6772529999999932
11
71.8477829999999926
21
-79.6386059999999958
0
LINE
8
BLACK
6
CONTINUOUS
10
71.8477829999999926
20
-79.6386059999999958
11
71.8582370000000026
21
-79.618085999999991
0
LINE
8
BLACK
6
CONTINUOUS
10
71.8582370000000026
20
-79.618085999999991
11
71.8582409999999925
21
-79.6180789999999945
0
LINE
8
BLACK
6
CONTINUOUS
10
71.8582409999999925
20
-79.6180789999999945
11
71.936089999999993
21
-79.3784849999999977
0
LINE
8
BLACK
6
CONTINUOUS
10
71.936089999999993
20
-79.3784849999999977
11
71.9754999999999967
21
-79.1296619999999962
0
LINE
8
BLACK
6
CONTINUOUS
10
71.9754999999999967
20
-79.1296619999999962
11
71.9754999999999967
21
-78.8777379999999937
0
LINE
8
BLACK
6
CONTINUOUS
10
71.9754999999999967
20
-78.8777379999999937
11
71.936089999999993
21
-78.6289149999999921
0
LINE
8
BLACK
6
CONTINUOUS
10
71.936089999999993
20
-78.6289149999999921
11
71.8582409999999925
21
-78.3893209999999954
0
LINE
8
BLACK
6
CONTINUOUS
10
71.8582409999999925
20
-78.3893209999999954
11
71.8582389999999975
21
-78.3893180000000029
0
LINE
8
BLACK
6
CONTINUOUS
10
71.8582389999999975
20
-78.3893180000000029
11
71.8582389999999975
21
-78.3893159999999938
0
LINE
8
BLACK
6
CONTINUOUS
10
71.8582389999999975
20
-78.3893159999999938
11
71.8167469999999923
21
-78.3078840000000014
0
LINE
8
BLACK
6
CONTINUOUS
10
71.8167469999999923
20
-78.3078840000000014
11
71.7438700000000011
21
-78.1648550000000029
0
LINE
8
BLACK
6
CONTINUOUS
10
71.7438700000000011
20
-78.1648550000000029
11
71.6754999999999995
21
-78.0707510000000013
0
LINE
8
BLACK
6
CONTINUOUS
10
71.6754999999999995
20
-78.0707510000000013
11
71.595798000000002
21
-77.9610500000000002
0
LINE
8
BLACK
6
CONTINUOUS
10
71.595798000000002
20
-77.9610500000000002
11
71.5957939999999979
21
-77.9610449999999986
0
LINE
8
BLACK
6
CONTINUOUS
10
71.5957939999999979
20
-77.9610449999999986
11
71.4176539999999989
21
-77.7829049999999995
0
LINE
8
BLACK
6
CONTINUOUS
10
71.4176539999999989
20
-77.7829049999999995
11
71.4176489999999973
21
-77.7829009999999954
0
LINE
8
BLACK
6
CONTINUOUS
10
71.4176489999999973
20
-77.7829009999999954
11
71.2138479999999987
21
-77.6348320000000029
0
LINE
8
BLACK
6
CONTINUOUS
10
71.2138479999999987
20
-77.6348320000000029
11
71.2138470000000012
21
-77.6348309999999913
0
LINE
8
BLACK
6
CONTINUOUS
10
71.2138470000000012
20
-77.6348309999999913
11
71.2138449999999921
21
-77.6348299999999938
0
LINE
8
BLACK
6
CONTINUOUS
10
71.2138449999999921
20
-77.6348299999999938
11
71.1046649999999971
21
-77.5792000000000002
0
LINE
8
BLACK
6
CONTINUOUS
10
71.1046649999999971
20
-77.5792000000000002
11
70.9893830000000037
21
-77.5204599999999999
0
LINE
8
BLACK
6
CONTINUOUS
10
70.9893830000000037
20
-77.5204599999999999
11
70.7497850000000028
21
-77.4426100000000019
0
LINE
8
BLACK
6
CONTINUOUS
10
70.7497850000000028
20
-77.4426100000000019
11
70.6887499999999989
21
-77.4329429999999945
0
LINE
8
BLACK
6
CONTINUOUS
10
70.6887499999999989
20
-77.4329429999999945
11
70.5009620000000012
21
-77.4031999999999982
0
LINE
8
BLACK
6
CONTINUOUS
10
70.5009620000000012
20
-77.4031999999999982
11
70.2490379999999988
21
-77.4031999999999982
0
LINE
8
BLACK
6
CONTINUOUS
10
70.2490379999999988
20
-77.4031999999999982
11
70.1246259999999921
21
-77.4229050000000001
0
LINE
8
BLACK
6
CONTINUOUS
10
70.1246259999999921
20
-77.4229050000000001
11
70.0002139999999997
21
-77.4426100000000019
0
LINE
8
BLACK
6
CONTINUOUS
10
70.0002139999999997
20
-77.4426100000000019
11
69.7606159999999988
21
-77.5204599999999999
0
LINE
8
BLACK
6
CONTINUOUS
10
69.7606159999999988
20
-77.5204599999999999
11
69.5361539999999962
21
-77.6348299999999938
0
LINE
8
BLACK
6
CONTINUOUS
10
69.5361539999999962
20
-77.6348299999999938
11
69.4978009999999955
21
-77.6626949999999994
0
LINE
8
BLACK
6
CONTINUOUS
10
69.4978009999999955
20
-77.6626949999999994
11
69.4746459999999928
21
-77.6795180000000016
0
LINE
8
BLACK
6
CONTINUOUS
10
69.4746459999999928
20
-77.6795180000000016
11
69.4088419999999928
21
-77.7029979999999938
0
LINE
8
BLACK
6
CONTINUOUS
10
69.4088419999999928
20
-77.7029979999999938
11
69.4017619999999908
21
-77.7031999999999954
0
LINE
8
BLACK
6
CONTINUOUS
10
69.4017619999999908
20
-77.7031999999999954
11
64.6495000000000033
21
-77.7031999999999954
0
LINE
8
BLACK
6
CONTINUOUS
10
64.6495000000000033
20
-77.7031999999999954
11
64.582460999999995
21
-77.6835149999999999
0
LINE
8
BLACK
6
CONTINUOUS
10
64.582460999999995
20
-77.6835149999999999
11
64.5367059999999952
21
-77.6307109999999909
0
LINE
8
BLACK
6
CONTINUOUS
10
64.5367059999999952
20
-77.6307109999999909
11
64.5254999999999939
21
-77.5792000000000002
0
LINE
8
BLACK
6
CONTINUOUS
10
64.5254999999999939
20
-77.5792000000000002
11
64.5254999999999939
21
-73.4512769999999904
0
LINE
8
BLACK
6
CONTINUOUS
10
64.5254999999999939
20
-73.4512769999999904
11
64.5451850000000036
21
-73.3842379999999963
0
LINE
8
BLACK
6
CONTINUOUS
10
64.5451850000000036
20
-73.3842379999999963
11
64.5979889999999983
21
-73.3384829999999965
0
LINE
8
BLACK
6
CONTINUOUS
10
64.5979889999999983
20
-73.3384829999999965
11
64.6671469999999999
21
-73.3285389999999921
0
LINE
8
BLACK
6
CONTINUOUS
10
64.6671469999999999
20
-73.3285389999999921
11
64.7307029999999912
21
-73.3575639999999964
0
LINE
8
BLACK
6
CONTINUOUS
10
39.8799999999999955
20
-68.8036999999999921
11
41.1816999999999993
21
-68.8036999999999921
0
LINE
8
BLACK
6
CONTINUOUS
10
41.1816999999999993
20
-68.8036999999999921
11
41.2469479999999962
21
-68.807976999999994
0
LINE
8
BLACK
6
CONTINUOUS
10
41.2469479999999962
20
-68.807976999999994
11
41.2469630000000009
21
-68.807976999999994
0
LINE
8
BLACK
6
CONTINUOUS
10
41.2469630000000009
20
-68.807976999999994
11
41.3730419999999981
21
-68.8417599999999936
0
LINE
8
BLACK
6
CONTINUOUS
10
41.3730419999999981
20
-68.8417599999999936
11
41.4860809999999987
21
-68.9070229999999952
0
LINE
8
BLACK
6
CONTINUOUS
10
41.4860809999999987
20
-68.9070229999999952
11
41.4860959999999963
21
-68.907038
0
LINE
8
BLACK
6
CONTINUOUS
10
41.4860959999999963
20
-68.907038
11
41.5352529999999973
21
-68.9501470000000012
0
LINE
8
BLACK
6
CONTINUOUS
10
41.5352529999999973
20
-68.9501470000000012
11
51.0888069999999956
21
-78.5036999999999949
0
LINE
8
BLACK
6
CONTINUOUS
10
51.0888069999999956
20
-78.5036999999999949
11
54.9815709999999953
21
-78.5036999999999949
0
LINE
8
BLACK
6
CONTINUOUS
10
54.9815709999999953
20
-78.5036999999999949
11
54.9865919999999946
21
-78.496184999999997
0
LINE
8
BLACK
6
CONTINUOUS
10
54.9865919999999946
20
-78.496184999999997
11
55.0974849999999989
21
-78.3852919999999926
0
LINE
8
BLACK
6
CONTINUOUS
10
55.0974849999999989
20
-78.3852919999999926
11
55.2278829999999985
21
-78.2981630000000024
0
LINE
8
BLACK
6
CONTINUOUS
10
55.2278829999999985
20
-78.2981630000000024
11
55.3727719999999977
21
-78.2381479999999954
0
LINE
8
BLACK
6
CONTINUOUS
10
55.3727719999999977
20
-78.2381479999999954
11
55.5265859999999947
21
-78.2075519999999926
0
LINE
8
BLACK
6
CONTINUOUS
10
55.5265859999999947
20
-78.2075519999999926
11
55.6834139999999991
21
-78.2075519999999926
0
LINE
8
BLACK
6
CONTINUOUS
10
55.6834139999999991
20
-78.2075519999999926
11
55.8372279999999961
21
-78.2381479999999954
0
LINE
8
BLACK
6
CONTINUOUS
10
55.8372279999999961
20
-78.2381479999999954
11
55.9821169999999952
21
-78.2981630000000024
0
LINE
8
BLACK
6
CONTINUOUS
10
55.9821169999999952
20
-78.2981630000000024
11
56.1125149999999948
21
-78.3852919999999926
0
LINE
8
BLACK
6
CONTINUOUS
10
56.1125149999999948
20
-78.3852919999999926
11
56.2234079999999992
21
-78.496184999999997
0
LINE
8
BLACK
6
CONTINUOUS
10
56.2234079999999992
20
-78.496184999999997
11
56.3105369999999965
21
-78.6265829999999966
0
LINE
8
BLACK
6
CONTINUOUS
10
56.3105369999999965
20
-78.6265829999999966
11
56.3705519999999964
21
-78.7714720000000028
0
LINE
8
BLACK
6
CONTINUOUS
10
56.3705519999999964
20
-78.7714720000000028
11
56.4011479999999992
21
-78.9252859999999998
0
LINE
8
BLACK
6
CONTINUOUS
10
56.4011479999999992
20
-78.9252859999999998
11
56.4011479999999992
21
-79.08211399999999
0
LINE
8
BLACK
6
CONTINUOUS
10
56.4011479999999992
20
-79.08211399999999
11
56.3705519999999964
21
-79.2359280000000012
0
LINE
8
BLACK
6
CONTINUOUS
10
56.3705519999999964
20
-79.2359280000000012
11
56.3105369999999965
21
-79.3808169999999933
0
LINE
8
BLACK
6
CONTINUOUS
10
56.3105369999999965
20
-79.3808169999999933
11
56.2234079999999992
21
-79.5112149999999929
0
LINE
8
BLACK
6
CONTINUOUS
10
56.2234079999999992
20
-79.5112149999999929
11
56.1125149999999948
21
-79.6221079999999972
0
LINE
8
BLACK
6
CONTINUOUS
10
56.1125149999999948
20
-79.6221079999999972
11
55.9821169999999952
21
-79.7092370000000017
0
LINE
8
BLACK
6
CONTINUOUS
10
55.9821169999999952
20
-79.7092370000000017
11
55.8372279999999961
21
-79.7692519999999945
0
LINE
8
BLACK
6
CONTINUOUS
10
55.8372279999999961
20
-79.7692519999999945
11
55.6834139999999991
21
-79.7998479999999972
0
LINE
8
BLACK
6
CONTINUOUS
10
55.6834139999999991
20
-79.7998479999999972
11
55.5265859999999947
21
-79.7998479999999972
0
LINE
8
BLACK
6
CONTINUOUS
10
55.5265859999999947
20
-79.7998479999999972
11
55.3727719999999977
21
-79.7692519999999945
0
LINE
8
BLACK
6
CONTINUOUS
10
55.3727719999999977
20
-79.7692519999999945
11
55.2278829999999985
21
-79.7092370000000017
0
LINE
8
BLACK
6
CONTINUOUS
10
55.2278829999999985
20
-79.7092370000000017
11
55.0974849999999989
21
-79.6221079999999972
0
LINE
8
BLACK
6
CONTINUOUS
10
55.0974849999999989
20
-79.6221079999999972
11
54.9865919999999946
21
-79.5112149999999929
0
LINE
8
BLACK
6
CONTINUOUS
10
54.9865919999999946
20
-79.5112149999999929
11
54.9815709999999953
21
-79.5036999999999949
0
LINE
8
BLACK
6
CONTINUOUS
10
54.9815709999999953
20
-79.5036999999999949
11
50.881699999999995
21
-79.5036999999999949
0
LINE
8
BLACK
6
CONTINUOUS
10
50.881699999999995
20
-79.5036999999999949
11
50.8164519999999982
21
-79.4994229999999931
0
LINE
8
BLACK
6
CONTINUOUS
10
50.8164519999999982
20
-79.4994229999999931
11
50.8164370000000005
21
-79.4994229999999931
0
LINE
8
BLACK
6
CONTINUOUS
10
50.8164370000000005
20
-79.4994229999999931
11
50.7170009999999962
21
-79.4727790000000027
0
LINE
8
BLACK
6
CONTINUOUS
10
50.7170009999999962
20
-79.4727790000000027
11
50.6903579999999963
21
-79.4656399999999934
0
LINE
8
BLACK
6
CONTINUOUS
10
50.6903579999999963
20
-79.4656399999999934
11
50.5773189999999957
21
-79.4003769999999918
0
LINE
8
BLACK
6
CONTINUOUS
10
50.5773189999999957
20
-79.4003769999999918
11
50.5773109999999946
21
-79.4003689999999978
0
LINE
8
BLACK
6
CONTINUOUS
10
50.5773109999999946
20
-79.4003689999999978
11
50.528146999999997
21
-79.3572539999999975
0
LINE
8
BLACK
6
CONTINUOUS
10
50.528146999999997
20
-79.3572539999999975
11
40.9745939999999962
21
-69.8036999999999921
0
LINE
8
BLACK
6
CONTINUOUS
10
40.9745939999999962
20
-69.8036999999999921
11
39.8799999999999955
21
-69.8036999999999921
0
LINE
8
BLACK
6
CONTINUOUS
10
39.8799999999999955
20
-69.8036999999999921
11
39.8799999999999955
21
-70.1537000000000006
0
LINE
8
BLACK
6
CONTINUOUS
10
39.8799999999999955
20
-70.1537000000000006
11
38.1799999999999997
21
-70.1537000000000006
0
LINE
8
BLACK
6
CONTINUOUS
10
38.1799999999999997
20
-70.1537000000000006
11
38.1799999999999997
21
-68.4536999999999978
0
LINE
8
BLACK
6
CONTINUOUS
10
38.1799999999999997
20
-68.4536999999999978
11
39.8799999999999955
21
-68.4536999999999978
0
LINE
8
BLACK
6
CONTINUOUS
10
39.8799999999999955
20
-68.4536999999999978
11
39.8799999999999955
21
-68.8036999999999921
0
LINE
8
BLACK
6
CONTINUOUS
10
69.7244479999999953
20
-69.093876999999992
11
69.7244630000000001
21
-69.093876999999992
0
LINE
8
BLACK
6
CONTINUOUS
10
69.7244630000000001
20
-69.093876999999992
11
69.8291159999999991
21
-69.1219189999999912
0
LINE
8
BLACK
6
CONTINUOUS
10
69.8291159999999991
20
-69.1219189999999912
11
69.8505419999999901
21
-69.1276599999999917
0
LINE
8
BLACK
6
CONTINUOUS
10
69.8505419999999901
20
-69.1276599999999917
11
69.9635809999999907
21
-69.1929229999999933
0
LINE
8
BLACK
6
CONTINUOUS
10
69.9635809999999907
20
-69.1929229999999933
11
69.9635959999999955
21
-69.1929379999999981
0
LINE
8
BLACK
6
CONTINUOUS
10
69.9635959999999955
20
-69.1929379999999981
11
70.0127530000000036
21
-69.2360469999999992
0
LINE
8
BLACK
6
CONTINUOUS
10
70.0127530000000036
20
-69.2360469999999992
11
73.2304069999999996
21
-72.4536999999999978
0
LINE
8
BLACK
6
CONTINUOUS
10
73.2304069999999996
20
-72.4536999999999978
11
74.3250000000000028
21
-72.4536999999999978
0
LINE
8
BLACK
6
CONTINUOUS
10
74.3250000000000028
20
-72.4536999999999978
11
74.3250000000000028
21
-71.9536999999999978
0
LINE
8
BLACK
6
CONTINUOUS
10
74.3250000000000028
20
-71.9536999999999978
11
76.0249999999999915
21
-71.9536999999999978
0
LINE
8
BLACK
6
CONTINUOUS
10
76.0249999999999915
20
-71.9536999999999978
11
76.0249999999999915
21
-73.9536999999999978
0
LINE
8
BLACK
6
CONTINUOUS
10
76.0249999999999915
20
-73.9536999999999978
11
74.3250000000000028
21
-73.9536999999999978
0
LINE
8
BLACK
6
CONTINUOUS
10
74.3250000000000028
20
-73.9536999999999978
11
74.3250000000000028
21
-73.4536999999999978
0
LINE
8
BLACK
6
CONTINUOUS
10
74.3250000000000028
20
-73.4536999999999978
11
73.0232999999999919
21
-73.4536999999999978
0
LINE
8
BLACK
6
CONTINUOUS
10
73.0232999999999919
20
-73.4536999999999978
11
72.958051999999995
21
-73.4494229999999959
0
LINE
8
BLACK
6
CONTINUOUS
10
72.958051999999995
20
-73.4494229999999959
11
72.9580369999999903
21
-73.4494229999999959
0
LINE
8
BLACK
6
CONTINUOUS
10
72.9580369999999903
20
-73.4494229999999959
11
72.8319580000000002
21
-73.4156399999999962
0
LINE
8
BLACK
6
CONTINUOUS
10
72.8319580000000002
20
-73.4156399999999962
11
72.7189189999999996
21
-73.3503769999999946
0
LINE
8
BLACK
6
CONTINUOUS
10
72.7189189999999996
20
-73.3503769999999946
11
72.7189029999999974
21
-73.3503609999999924
0
LINE
8
BLACK
6
CONTINUOUS
10
72.7189029999999974
20
-73.3503609999999924
11
72.669747000000001
21
-73.3072540000000004
0
LINE
8
BLACK
6
CONTINUOUS
10
72.669747000000001
20
-73.3072540000000004
11
69.4520940000000024
21
-70.0895999999999901
0
LINE
8
BLACK
6
CONTINUOUS
10
69.4520940000000024
20
-70.0895999999999901
11
65.2720070000000021
21
-70.0895999999999901
0
LINE
8
BLACK
6
CONTINUOUS
10
65.2720070000000021
20
-70.0895999999999901
11
63.7249999999999943
21
-71.6366060000000004
0
LINE
8
BLACK
6
CONTINUOUS
10
63.7249999999999943
20
-71.6366060000000004
11
63.7249999999999943
21
-78.3802699999999959
0
LINE
8
BLACK
6
CONTINUOUS
10
63.7249999999999943
20
-78.3802699999999959
11
63.7325149999999994
21
-78.3852919999999926
0
LINE
8
BLACK
6
CONTINUOUS
10
63.7325149999999994
20
-78.3852919999999926
11
63.8434079999999966
21
-78.496184999999997
0
LINE
8
BLACK
6
CONTINUOUS
10
63.8434079999999966
20
-78.496184999999997
11
63.8484289999999959
21
-78.5036999999999949
0
LINE
8
BLACK
6
CONTINUOUS
10
63.8484289999999959
20
-78.5036999999999949
11
69.7515709999999984
21
-78.5036999999999949
0
LINE
8
BLACK
6
CONTINUOUS
10
69.7515709999999984
20
-78.5036999999999949
11
69.7565919999999977
21
-78.496184999999997
0
LINE
8
BLACK
6
CONTINUOUS
10
69.7565919999999977
20
-78.496184999999997
11
69.8674850000000021
21
-78.3852919999999926
0
LINE
8
BLACK
6
CONTINUOUS
10
69.8674850000000021
20
-78.3852919999999926
11
69.9978830000000016
21
-78.2981630000000024
0
LINE
8
BLACK
6
CONTINUOUS
10
69.9978830000000016
20
-78.2981630000000024
11
70.1427719999999937
21
-78.2381479999999954
0
LINE
8
BLACK
6
CONTINUOUS
10
70.1427719999999937
20
-78.2381479999999954
11
70.2965859999999907
21
-78.2075519999999926
0
LINE
8
BLACK
6
CONTINUOUS
10
70.2965859999999907
20
-78.2075519999999926
11
70.4534139999999951
21
-78.2075519999999926
0
LINE
8
BLACK
6
CONTINUOUS
10
70.4534139999999951
20
-78.2075519999999926
11
70.6072279999999921
21
-78.2381479999999954
0
LINE
8
BLACK
6
CONTINUOUS
10
70.6072279999999921
20
-78.2381479999999954
11
70.7521169999999984
21
-78.2981630000000024
0
LINE
8
BLACK
6
CONTINUOUS
10
70.7521169999999984
20
-78.2981630000000024
11
70.8825149999999979
21
-78.3852919999999926
0
LINE
8
BLACK
6
CONTINUOUS
10
70.8825149999999979
20
-78.3852919999999926
11
70.9934080000000023
21
-78.496184999999997
0
LINE
8
BLACK
6
CONTINUOUS
10
70.9934080000000023
20
-78.496184999999997
11
71.0805369999999925
21
-78.6265829999999966
0
LINE
8
BLACK
6
CONTINUOUS
10
71.0805369999999925
20
-78.6265829999999966
11
71.1405519999999996
21
-78.7714720000000028
0
LINE
8
BLACK
6
CONTINUOUS
10
71.1405519999999996
20
-78.7714720000000028
11
71.1711480000000023
21
-78.9252859999999998
0
LINE
8
BLACK
6
CONTINUOUS
10
71.1711480000000023
20
-78.9252859999999998
11
71.1711480000000023
21
-79.08211399999999
0
LINE
8
BLACK
6
CONTINUOUS
10
71.1711480000000023
20
-79.08211399999999
11
71.1405519999999996
21
-79.2359280000000012
0
LINE
8
BLACK
6
CONTINUOUS
10
71.1405519999999996
20
-79.2359280000000012
11
71.0805369999999925
21
-79.3808169999999933
0
LINE
8
BLACK
6
CONTINUOUS
10
71.0805369999999925
20
-79.3808169999999933
11
70.9934080000000023
21
-79.5112149999999929
0
LINE
8
BLACK
6
CONTINUOUS
10
70.9934080000000023
20
-79.5112149999999929
11
70.8825149999999979
21
-79.6221079999999972
0
LINE
8
BLACK
6
CONTINUOUS
10
70.8825149999999979
20
-79.6221079999999972
11
70.7521169999999984
21
-79.7092370000000017
0
LINE
8
BLACK
6
CONTINUOUS
10
70.7521169999999984
20
-79.7092370000000017
11
70.6072279999999921
21
-79.7692519999999945
0
LINE
8
BLACK
6
CONTINUOUS
10
70.6072279999999921
20
-79.7692519999999945
11
70.4534139999999951
21
-79.7998479999999972
0
LINE
8
BLACK
6
CONTINUOUS
10
70.4534139999999951
20
-79.7998479999999972
11
70.2965859999999907
21
-79.7998479999999972
0
LINE
8
BLACK
6
CONTINUOUS
10
70.2965859999999907
20
-79.7998479999999972
11
70.1427719999999937
21
-79.7692519999999945
0
LINE
8
BLACK
6
CONTINUOUS
10
70.1427719999999937
20
-79.7692519999999945
11
69.9978830000000016
21
-79.7092370000000017
0
LINE
8
BLACK
6
CONTINUOUS
10
69.9978830000000016
20
-79.7092370000000017
11
69.8674850000000021
21
-79.6221079999999972
0
LINE
8
BLACK
6
CONTINUOUS
10
69.8674850000000021
20
-79.6221079999999972
11
69.7565919999999977
21
-79.5112149999999929
0
LINE
8
BLACK
6
CONTINUOUS
10
69.7565919999999977
20
-79.5112149999999929
11
69.7515709999999984
21
-79.5036999999999949
0
LINE
8
BLACK
6
CONTINUOUS
10
69.7515709999999984
20
-79.5036999999999949
11
63.8484289999999959
21
-79.5036999999999949
0
LINE
8
BLACK
6
CONTINUOUS
10
63.8484289999999959
20
-79.5036999999999949
11
63.8434079999999966
21
-79.5112149999999929
0
LINE
8
BLACK
6
CONTINUOUS
10
63.8434079999999966
20
-79.5112149999999929
11
63.7325149999999994
21
-79.6221079999999972
0
LINE
8
BLACK
6
CONTINUOUS
10
63.7325149999999994
20
-79.6221079999999972
11
63.6021169999999998
21
-79.7092370000000017
0
LINE
8
BLACK
6
CONTINUOUS
10
63.6021169999999998
20
-79.7092370000000017
11
63.4572280000000006
21
-79.7692519999999945
0
LINE
8
BLACK
6
CONTINUOUS
10
63.4572280000000006
20
-79.7692519999999945
11
63.3034139999999965
21
-79.7998479999999972
0
LINE
8
BLACK
6
CONTINUOUS
10
63.3034139999999965
20
-79.7998479999999972
11
63.1465859999999992
21
-79.7998479999999972
0
LINE
8
BLACK
6
CONTINUOUS
10
63.1465859999999992
20
-79.7998479999999972
11
62.9927719999999951
21
-79.7692519999999945
0
LINE
8
BLACK
6
CONTINUOUS
10
62.9927719999999951
20
-79.7692519999999945
11
62.8478829999999959
21
-79.7092370000000017
0
LINE
8
BLACK
6
CONTINUOUS
10
62.8478829999999959
20
-79.7092370000000017
11
62.7174849999999964
21
-79.6221079999999972
0
LINE
8
BLACK
6
CONTINUOUS
10
62.7174849999999964
20
-79.6221079999999972
11
62.6065919999999991
21
-79.5112149999999929
0
LINE
8
BLACK
6
CONTINUOUS
10
62.6065919999999991
20
-79.5112149999999929
11
62.5194629999999947
21
-79.3808169999999933
0
LINE
8
BLACK
6
CONTINUOUS
10
62.5194629999999947
20
-79.3808169999999933
11
62.4594479999999947
21
-79.2359280000000012
0
LINE
8
BLACK
6
CONTINUOUS
10
62.4594479999999947
20
-79.2359280000000012
11
62.4288519999999991
21
-79.08211399999999
0
LINE
8
BLACK
6
CONTINUOUS
10
62.4288519999999991
20
-79.08211399999999
11
62.4288519999999991
21
-78.9252859999999998
0
LINE
8
BLACK
6
CONTINUOUS
10
62.4288519999999991
20
-78.9252859999999998
11
62.4594479999999947
21
-78.7714720000000028
0
LINE
8
BLACK
6
CONTINUOUS
10
62.4594479999999947
20
-78.7714720000000028
11
62.5194629999999947
21
-78.6265829999999966
0
LINE
8
BLACK
6
CONTINUOUS
10
62.5194629999999947
20
-78.6265829999999966
11
62.6065919999999991
21
-78.496184999999997
0
LINE
8
BLACK
6
CONTINUOUS
10
62.6065919999999991
20
-78.496184999999997
11
62.7174849999999964
21
-78.3852919999999926
0
LINE
8
BLACK
6
CONTINUOUS
10
62.7174849999999964
20
-78.3852919999999926
11
62.7249999999999943
21
-78.3802699999999959
0
LINE
8
BLACK
6
CONTINUOUS
10
62.7249999999999943
20
-78.3802699999999959
11
62.7249999999999943
21
-71.4294999999999902
0
LINE
8
BLACK
6
CONTINUOUS
10
62.7249999999999943
20
-71.4294999999999902
11
62.7292769999999962
21
-71.3642519999999934
0
LINE
8
BLACK
6
CONTINUOUS
10
62.7292769999999962
20
-71.3642519999999934
11
62.7292769999999962
21
-71.3642370000000028
0
LINE
8
BLACK
6
CONTINUOUS
10
62.7292769999999962
20
-71.3642370000000028
11
62.7630599999999959
21
-71.2381579999999985
0
LINE
8
BLACK
6
CONTINUOUS
10
62.7630599999999959
20
-71.2381579999999985
11
62.768975999999995
21
-71.2279109999999918
0
LINE
8
BLACK
6
CONTINUOUS
10
62.768975999999995
20
-71.2279109999999918
11
62.8283229999999975
21
-71.125118999999998
0
LINE
8
BLACK
6
CONTINUOUS
10
62.8283229999999975
20
-71.125118999999998
11
62.8283379999999951
21
-71.1251029999999957
0
LINE
8
BLACK
6
CONTINUOUS
10
62.8283379999999951
20
-71.1251029999999957
11
62.8714469999999963
21
-71.0759469999999993
0
LINE
8
BLACK
6
CONTINUOUS
10
62.8714469999999963
20
-71.0759469999999993
11
64.7113470000000035
21
-69.2360460000000018
0
LINE
8
BLACK
6
CONTINUOUS
10
64.7113470000000035
20
-69.2360460000000018
11
64.7605109999999939
21
-69.1929299999999898
0
LINE
8
BLACK
6
CONTINUOUS
10
64.7605109999999939
20
-69.1929299999999898
11
64.7605190000000022
21
-69.1929229999999933
0
LINE
8
BLACK
6
CONTINUOUS
10
64.7605190000000022
20
-69.1929229999999933
11
64.8735580000000027
21
-69.1276599999999917
0
LINE
8
BLACK
6
CONTINUOUS
10
64.8735580000000027
20
-69.1276599999999917
11
64.9002009999999956
21
-69.1205199999999991
0
LINE
8
BLACK
6
CONTINUOUS
10
64.9002009999999956
20
-69.1205199999999991
11
64.9996369999999928
21
-69.093876999999992
0
LINE
8
BLACK
6
CONTINUOUS
10
64.9996369999999928
20
-69.093876999999992
11
64.9996519999999975
21
-69.093876999999992
0
LINE
8
BLACK
6
CONTINUOUS
10
64.9996519999999975
20
-69.093876999999992
11
65.0648999999999944
21
-69.0895999999999901
0
LINE
8
BLACK
6
CONTINUOUS
10
65.0648999999999944
20
-69.0895999999999901
11
69.6591999999999985
21
-69.0895999999999901
0
LINE
8
BLACK
6
CONTINUOUS
10
69.6591999999999985
20
-69.0895999999999901
11
69.7244479999999953
21
-69.093876999999992
0
LINE
8
BLACK
6
CONTINUOUS
10
45.8576920000000001
20
-68.0838849999999951
11
45.8783339999999953
21
-68.1005189999999914
0
LINE
8
BLACK
6
CONTINUOUS
10
45.8783339999999953
20
-68.1005189999999914
11
55.079743999999998
21
-77.3019279999999895
0
LINE
8
BLACK
6
CONTINUOUS
10
55.079743999999998
20
-77.3019279999999895
11
55.1132289999999969
21
-77.3632509999999911
0
LINE
8
BLACK
6
CONTINUOUS
10
55.1132289999999969
20
-77.3632509999999911
11
55.1082449999999966
21
-77.4329429999999945
0
LINE
8
BLACK
6
CONTINUOUS
10
55.1082449999999966
20
-77.4329429999999945
11
55.0663729999999987
21
-77.4888759999999905
0
LINE
8
BLACK
6
CONTINUOUS
10
55.0663729999999987
20
-77.4888759999999905
11
55.0303830000000005
21
-77.5075389999999942
0
LINE
8
BLACK
6
CONTINUOUS
10
55.0303830000000005
20
-77.5075389999999942
11
55.0172759999999954
21
-77.5117970000000014
0
LINE
8
BLACK
6
CONTINUOUS
10
55.0172759999999954
20
-77.5117970000000014
11
54.9906159999999957
21
-77.5204599999999999
0
LINE
8
BLACK
6
CONTINUOUS
10
54.9906159999999957
20
-77.5204599999999999
11
54.7661540000000002
21
-77.6348299999999938
0
LINE
8
BLACK
6
CONTINUOUS
10
54.7661540000000002
20
-77.6348299999999938
11
54.7278009999999995
21
-77.6626949999999994
0
LINE
8
BLACK
6
CONTINUOUS
10
54.7278009999999995
20
-77.6626949999999994
11
54.7046459999999968
21
-77.6795180000000016
0
LINE
8
BLACK
6
CONTINUOUS
10
54.7046459999999968
20
-77.6795180000000016
11
54.6388419999999968
21
-77.7029979999999938
0
LINE
8
BLACK
6
CONTINUOUS
10
54.6388419999999968
20
-77.7029979999999938
11
54.6317619999999948
21
-77.7031999999999954
0
LINE
8
BLACK
6
CONTINUOUS
10
54.6317619999999948
20
-77.7031999999999954
11
51.471745999999996
21
-77.7031999999999954
0
LINE
8
BLACK
6
CONTINUOUS
10
51.471745999999996
20
-77.7031999999999954
11
51.4047069999999948
21
-77.6835149999999999
0
LINE
8
BLACK
6
CONTINUOUS
10
51.4047069999999948
20
-77.6835149999999999
11
51.3840649999999997
21
-77.6668809999999894
0
LINE
8
BLACK
6
CONTINUOUS
10
51.3840649999999997
20
-77.6668809999999894
11
42.0289209999999969
21
-68.3117359999999962
0
LINE
8
BLACK
6
CONTINUOUS
10
42.0289209999999969
20
-68.3117359999999962
11
42.0289149999999978
21
-68.3117309999999947
0
LINE
8
BLACK
6
CONTINUOUS
10
42.0289149999999978
20
-68.3117309999999947
11
41.9969649999999959
21
-68.2885179999999963
0
LINE
8
BLACK
6
CONTINUOUS
10
41.9969649999999959
20
-68.2885179999999963
11
41.9542989999999989
21
-68.2331879999999984
0
LINE
8
BLACK
6
CONTINUOUS
10
41.9542989999999989
20
-68.2331879999999984
11
41.9483199999999954
21
-68.1635749999999945
0
LINE
8
BLACK
6
CONTINUOUS
10
41.9483199999999954
20
-68.1635749999999945
11
41.9809259999999966
21
-68.1017799999999909
0
LINE
8
BLACK
6
CONTINUOUS
10
41.9809259999999966
20
-68.1017799999999909
11
42.0417640000000006
21
-68.0674229999999909
0
LINE
8
BLACK
6
CONTINUOUS
10
42.0417640000000006
20
-68.0674229999999909
11
42.0698499999999953
21
-68.0641999999999996
0
LINE
8
BLACK
6
CONTINUOUS
10
42.0698499999999953
20
-68.0641999999999996
11
45.7906529999999989
21
-68.0641999999999996
0
LINE
8
BLACK
6
CONTINUOUS
10
45.7906529999999989
20
-68.0641999999999996
11
45.8576920000000001
21
-68.0838849999999951
0
LINE
8
BLACK
6
CONTINUOUS
10
99.0668239999999969
20
-66.6348819999999904
11
99.2757569999999987
21
-66.7027690000000035
0
LINE
8
BLACK
6
CONTINUOUS
10
99.2757569999999987
20
-66.7027690000000035
11
99.4714979999999969
21
-66.802503999999999
0
LINE
8
BLACK
6
CONTINUOUS
10
99.4714979999999969
20
-66.802503999999999
11
99.6492269999999962
21
-66.9316319999999934
0
LINE
8
BLACK
6
CONTINUOUS
10
99.6492269999999962
20
-66.9316319999999934
11
99.8045679999999891
21
-67.0869730000000004
0
LINE
8
BLACK
6
CONTINUOUS
10
99.8045679999999891
20
-67.0869730000000004
11
99.9336959999999976
21
-67.2647019999999998
0
LINE
8
BLACK
6
CONTINUOUS
10
99.9336959999999976
20
-67.2647019999999998
11
100.0334309999999931
21
-67.4604429999999979
0
LINE
8
BLACK
6
CONTINUOUS
10
100.0334309999999931
20
-67.4604429999999979
11
100.101317999999992
21
-67.6693759999999997
0
LINE
8
BLACK
6
CONTINUOUS
10
100.101317999999992
20
-67.6693759999999997
11
100.1356839999999977
21
-67.8863570000000038
0
LINE
8
BLACK
6
CONTINUOUS
10
100.1356839999999977
20
-67.8863570000000038
11
100.1356839999999977
21
-68.1060429999999997
0
LINE
8
BLACK
6
CONTINUOUS
10
100.1356839999999977
20
-68.1060429999999997
11
100.101317999999992
21
-68.3230240000000038
0
LINE
8
BLACK
6
CONTINUOUS
10
100.101317999999992
20
-68.3230240000000038
11
100.0334309999999931
21
-68.5319569999999914
0
LINE
8
BLACK
6
CONTINUOUS
10
100.0334309999999931
20
-68.5319569999999914
11
99.9336959999999976
21
-68.7276980000000037
0
LINE
8
BLACK
6
CONTINUOUS
10
99.9336959999999976
20
-68.7276980000000037
11
99.8045679999999891
21
-68.9054270000000031
0
LINE
8
BLACK
6
CONTINUOUS
10
99.8045679999999891
20
-68.9054270000000031
11
99.6492269999999962
21
-69.0607679999999959
0
LINE
8
BLACK
6
CONTINUOUS
10
99.6492269999999962
20
-69.0607679999999959
11
99.4714979999999969
21
-69.1898959999999903
0
LINE
8
BLACK
6
CONTINUOUS
10
99.4714979999999969
20
-69.1898959999999903
11
99.2757569999999987
21
-69.289631
0
LINE
8
BLACK
6
CONTINUOUS
10
99.2757569999999987
20
-69.289631
11
99.0668239999999969
21
-69.3575179999999989
0
LINE
8
BLACK
6
CONTINUOUS
10
99.0668239999999969
20
-69.3575179999999989
11
98.8498429999999928
21
-69.3918839999999904
0
LINE
8
BLACK
6
CONTINUOUS
10
98.8498429999999928
20
-69.3918839999999904
11
98.630156999999997
21
-69.3918839999999904
0
LINE
8
BLACK
6
CONTINUOUS
10
98.630156999999997
20
-69.3918839999999904
11
98.4131759999999929
21
-69.3575179999999989
0
LINE
8
BLACK
6
CONTINUOUS
10
98.4131759999999929
20
-69.3575179999999989
11
98.2042429999999911
21
-69.289631
0
LINE
8
BLACK
6
CONTINUOUS
10
98.2042429999999911
20
-69.289631
11
98.1707439999999991
21
-69.2725619999999935
0
LINE
8
BLACK
6
CONTINUOUS
10
98.1707439999999991
20
-69.2725619999999935
11
96.3682529999999957
21
-71.0750529999999969
0
LINE
8
BLACK
6
CONTINUOUS
10
96.3682529999999957
20
-71.0750529999999969
11
96.3190960000000018
21
-71.1181610000000006
0
LINE
8
BLACK
6
CONTINUOUS
10
96.3190960000000018
20
-71.1181610000000006
11
96.3190809999999971
21
-71.1181770000000029
0
LINE
8
BLACK
6
CONTINUOUS
10
96.3190809999999971
20
-71.1181770000000029
11
96.2121199999999988
21
-71.1799309999999963
0
LINE
8
BLACK
6
CONTINUOUS
10
96.2121199999999988
20
-71.1799309999999963
11
96.2060419999999965
21
-71.1834399999999903
0
LINE
8
BLACK
6
CONTINUOUS
10
96.2060419999999965
20
-71.1834399999999903
11
96.0799629999999922
21
-71.21722299999999
0
LINE
8
BLACK
6
CONTINUOUS
10
96.0799629999999922
20
-71.21722299999999
11
96.0799480000000017
21
-71.21722299999999
0
LINE
8
BLACK
6
CONTINUOUS
10
96.0799480000000017
20
-71.21722299999999
11
96.0146999999999906
21
-71.2214999999999918
0
LINE
8
BLACK
6
CONTINUOUS
10
96.0146999999999906
20
-71.2214999999999918
11
82.9087999999999994
21
-71.2214999999999918
0
LINE
8
BLACK
6
CONTINUOUS
10
82.9087999999999994
20
-71.2214999999999918
11
82.8435520000000025
21
-71.21722299999999
0
LINE
8
BLACK
6
CONTINUOUS
10
82.8435520000000025
20
-71.21722299999999
11
82.8435369999999978
21
-71.21722299999999
0
LINE
8
BLACK
6
CONTINUOUS
10
82.8435369999999978
20
-71.21722299999999
11
82.7174579999999935
21
-71.1834399999999903
0
LINE
8
BLACK
6
CONTINUOUS
10
82.7174579999999935
20
-71.1834399999999903
11
82.7113799999999912
21
-71.1799309999999963
0
LINE
8
BLACK
6
CONTINUOUS
10
82.7113799999999912
20
-71.1799309999999963
11
82.6630019999999917
21
-71.152000000000001
0
LINE
8
BLACK
6
CONTINUOUS
10
82.6630019999999917
20
-71.152000000000001
11
78.2150000000000034
21
-71.152000000000001
0
LINE
8
BLACK
6
CONTINUOUS
10
78.2150000000000034
20
-71.152000000000001
11
78.2150000000000034
21
-72.1204249999999973
0
LINE
8
BLACK
6
CONTINUOUS
10
78.2150000000000034
20
-72.1204249999999973
11
78.2542339999999967
21
-72.1466410000000025
0
LINE
8
BLACK
6
CONTINUOUS
10
78.2542339999999967
20
-72.1466410000000025
11
78.372058999999993
21
-72.2644659999999988
0
LINE
8
BLACK
6
CONTINUOUS
10
78.372058999999993
20
-72.2644659999999988
11
78.4646329999999921
21
-72.4030130000000014
0
LINE
8
BLACK
6
CONTINUOUS
10
78.4646329999999921
20
-72.4030130000000014
11
78.5283989999999932
21
-72.5569579999999945
0
LINE
8
BLACK
6
CONTINUOUS
10
78.5283989999999932
20
-72.5569579999999945
11
78.5609070000000003
21
-72.7203849999999932
0
LINE
8
BLACK
6
CONTINUOUS
10
78.5609070000000003
20
-72.7203849999999932
11
78.5649999999999977
21
-72.8036999999999921
0
LINE
8
BLACK
6
CONTINUOUS
10
78.5649999999999977
20
-72.8036999999999921
11
78.5649999999999977
21
-73.1037000000000035
0
LINE
8
BLACK
6
CONTINUOUS
10
78.5649999999999977
20
-73.1037000000000035
11
78.5609070000000003
21
-73.1870150000000024
0
LINE
8
BLACK
6
CONTINUOUS
10
78.5609070000000003
20
-73.1870150000000024
11
78.5283989999999932
21
-73.350442000000001
0
LINE
8
BLACK
6
CONTINUOUS
10
78.5283989999999932
20
-73.350442000000001
11
78.4646329999999921
21
-73.5043869999999941
0
LINE
8
BLACK
6
CONTINUOUS
10
78.4646329999999921
20
-73.5043869999999941
11
78.372058999999993
21
-73.6429339999999968
0
LINE
8
BLACK
6
CONTINUOUS
10
78.372058999999993
20
-73.6429339999999968
11
78.2542339999999967
21
-73.7607589999999931
0
LINE
8
BLACK
6
CONTINUOUS
10
78.2542339999999967
20
-73.7607589999999931
11
78.2150000000000034
21
-73.7869740000000007
0
LINE
8
BLACK
6
CONTINUOUS
10
78.2150000000000034
20
-73.7869740000000007
11
78.2150000000000034
21
-75.2553999999999945
0
LINE
8
BLACK
6
CONTINUOUS
10
78.2150000000000034
20
-75.2553999999999945
11
78.2107219999999899
21
-75.3206629999999961
0
LINE
8
BLACK
6
CONTINUOUS
10
78.2107219999999899
20
-75.3206629999999961
11
78.1769400000000019
21
-75.4467420000000004
0
LINE
8
BLACK
6
CONTINUOUS
10
78.1769400000000019
20
-75.4467420000000004
11
78.1116770000000002
21
-75.559781000000001
0
LINE
8
BLACK
6
CONTINUOUS
10
78.1116770000000002
20
-75.559781000000001
11
78.0193809999999957
21
-75.6520769999999914
0
LINE
8
BLACK
6
CONTINUOUS
10
78.0193809999999957
20
-75.6520769999999914
11
77.9063419999999951
21
-75.717339999999993
0
LINE
8
BLACK
6
CONTINUOUS
10
77.9063419999999951
20
-75.717339999999993
11
77.7802629999999908
21
-75.7511219999999952
0
LINE
8
BLACK
6
CONTINUOUS
10
77.7802629999999908
20
-75.7511219999999952
11
77.7150000000000034
21
-75.7553999999999945
0
LINE
8
BLACK
6
CONTINUOUS
10
77.7150000000000034
20
-75.7553999999999945
11
69.3166999999999973
21
-75.7553999999999945
0
LINE
8
BLACK
6
CONTINUOUS
10
69.3166999999999973
20
-75.7553999999999945
11
69.2514520000000005
21
-75.7511229999999927
0
LINE
8
BLACK
6
CONTINUOUS
10
69.2514520000000005
20
-75.7511229999999927
11
69.2514369999999957
21
-75.7511229999999927
0
LINE
8
BLACK
6
CONTINUOUS
10
69.2514369999999957
20
-75.7511229999999927
11
69.1253579999999914
21
-75.717339999999993
0
LINE
8
BLACK
6
CONTINUOUS
10
69.1253579999999914
20
-75.717339999999993
11
69.0123189999999909
21
-75.6520769999999914
0
LINE
8
BLACK
6
CONTINUOUS
10
69.0123189999999909
20
-75.6520769999999914
11
69.0123099999999994
21
-75.6520679999999999
0
LINE
8
BLACK
6
CONTINUOUS
10
69.0123099999999994
20
-75.6520679999999999
11
68.9631459999999947
21
-75.6089529999999996
0
LINE
8
BLACK
6
CONTINUOUS
10
68.9631459999999947
20
-75.6089529999999996
11
66.4015759999999915
21
-73.0473819999999989
0
LINE
8
BLACK
6
CONTINUOUS
10
66.4015759999999915
20
-73.0473819999999989
11
66.3217899999999929
21
-73.0733069999999998
0
LINE
8
BLACK
6
CONTINUOUS
10
66.3217899999999929
20
-73.0733069999999998
11
66.1513049999999936
21
-73.1003089999999958
0
LINE
8
BLACK
6
CONTINUOUS
10
66.1513049999999936
20
-73.1003089999999958
11
65.9786950000000019
21
-73.1003089999999958
0
LINE
8
BLACK
6
CONTINUOUS
10
65.9786950000000019
20
-73.1003089999999958
11
65.8082100000000025
21
-73.0733069999999998
0
LINE
8
BLACK
6
CONTINUOUS
10
65.8082100000000025
20
-73.0733069999999998
11
65.644047999999998
21
-73.0199669999999941
0
LINE
8
BLACK
6
CONTINUOUS
10
65.644047999999998
20
-73.0199669999999941
11
65.4902519999999981
21
-72.9416039999999981
0
LINE
8
BLACK
6
CONTINUOUS
10
65.4902519999999981
20
-72.9416039999999981
11
65.3506069999999966
21
-72.8401470000000018
0
LINE
8
BLACK
6
CONTINUOUS
10
65.3506069999999966
20
-72.8401470000000018
11
65.2285529999999909
21
-72.7180929999999961
0
LINE
8
BLACK
6
CONTINUOUS
10
65.2285529999999909
20
-72.7180929999999961
11
65.1270959999999945
21
-72.5784479999999945
0
LINE
8
BLACK
6
CONTINUOUS
10
65.1270959999999945
20
-72.5784479999999945
11
65.0487329999999986
21
-72.4246519999999947
0
LINE
8
BLACK
6
CONTINUOUS
10
65.0487329999999986
20
-72.4246519999999947
11
64.9953929999999929
21
-72.2604899999999901
0
LINE
8
BLACK
6
CONTINUOUS
10
64.9953929999999929
20
-72.2604899999999901
11
64.9683909999999969
21
-72.0900049999999908
0
LINE
8
BLACK
6
CONTINUOUS
10
64.9683909999999969
20
-72.0900049999999908
11
64.9683909999999969
21
-71.9173949999999991
0
LINE
8
BLACK
6
CONTINUOUS
10
64.9683909999999969
20
-71.9173949999999991
11
64.9953929999999929
21
-71.7469099999999997
0
LINE
8
BLACK
6
CONTINUOUS
10
64.9953929999999929
20
-71.7469099999999997
11
65.0487329999999986
21
-71.5827479999999952
0
LINE
8
BLACK
6
CONTINUOUS
10
65.0487329999999986
20
-71.5827479999999952
11
65.1270959999999945
21
-71.4289519999999953
0
LINE
8
BLACK
6
CONTINUOUS
10
65.1270959999999945
20
-71.4289519999999953
11
65.2285529999999909
21
-71.2893069999999938
0
LINE
8
BLACK
6
CONTINUOUS
10
65.2285529999999909
20
-71.2893069999999938
11
65.3506069999999966
21
-71.1672530000000023
0
LINE
8
BLACK
6
CONTINUOUS
10
65.3506069999999966
20
-71.1672530000000023
11
65.4902519999999981
21
-71.0657959999999917
0
LINE
8
BLACK
6
CONTINUOUS
10
65.4902519999999981
20
-71.0657959999999917
11
65.644047999999998
21
-70.9874329999999958
0
LINE
8
BLACK
6
CONTINUOUS
10
65.644047999999998
20
-70.9874329999999958
11
65.8082100000000025
21
-70.9340929999999901
0
LINE
8
BLACK
6
CONTINUOUS
10
65.8082100000000025
20
-70.9340929999999901
11
65.9786950000000019
21
-70.9070909999999941
0
LINE
8
BLACK
6
CONTINUOUS
10
65.9786950000000019
20
-70.9070909999999941
11
66.1513049999999936
21
-70.9070909999999941
0
LINE
8
BLACK
6
CONTINUOUS
10
66.1513049999999936
20
-70.9070909999999941
11
66.3217899999999929
21
-70.9340929999999901
0
LINE
8
BLACK
6
CONTINUOUS
10
66.3217899999999929
20
-70.9340929999999901
11
66.4859519999999975
21
-70.9874329999999958
0
LINE
8
BLACK
6
CONTINUOUS
10
66.4859519999999975
20
-70.9874329999999958
11
66.6397479999999973
21
-71.0657959999999917
0
LINE
8
BLACK
6
CONTINUOUS
10
66.6397479999999973
20
-71.0657959999999917
11
66.7793929999999989
21
-71.1672530000000023
0
LINE
8
BLACK
6
CONTINUOUS
10
66.7793929999999989
20
-71.1672530000000023
11
66.9014469999999903
21
-71.2893069999999938
0
LINE
8
BLACK
6
CONTINUOUS
10
66.9014469999999903
20
-71.2893069999999938
11
67.0029040000000009
21
-71.4289519999999953
0
LINE
8
BLACK
6
CONTINUOUS
10
67.0029040000000009
20
-71.4289519999999953
11
67.0812669999999969
21
-71.5827479999999952
0
LINE
8
BLACK
6
CONTINUOUS
10
67.0812669999999969
20
-71.5827479999999952
11
67.1346070000000026
21
-71.7469099999999997
0
LINE
8
BLACK
6
CONTINUOUS
10
67.1346070000000026
20
-71.7469099999999997
11
67.1616089999999986
21
-71.9173949999999991
0
LINE
8
BLACK
6
CONTINUOUS
10
67.1616089999999986
20
-71.9173949999999991
11
67.1616089999999986
21
-72.0900049999999908
0
LINE
8
BLACK
6
CONTINUOUS
10
67.1616089999999986
20
-72.0900049999999908
11
67.1346070000000026
21
-72.2604899999999901
0
LINE
8
BLACK
6
CONTINUOUS
10
67.1346070000000026
20
-72.2604899999999901
11
67.1086820000000017
21
-72.3402760000000029
0
LINE
8
BLACK
6
CONTINUOUS
10
67.1086820000000017
20
-72.3402760000000029
11
69.5238069999999908
21
-74.7553999999999945
0
LINE
8
BLACK
6
CONTINUOUS
10
69.5238069999999908
20
-74.7553999999999945
11
77.2150000000000034
21
-74.7553999999999945
0
LINE
8
BLACK
6
CONTINUOUS
10
77.2150000000000034
20
-74.7553999999999945
11
77.2150000000000034
21
-73.7869740000000007
0
LINE
8
BLACK
6
CONTINUOUS
10
77.2150000000000034
20
-73.7869740000000007
11
77.1757659999999959
21
-73.7607589999999931
0
LINE
8
BLACK
6
CONTINUOUS
10
77.1757659999999959
20
-73.7607589999999931
11
77.0579409999999996
21
-73.6429339999999968
0
LINE
8
BLACK
6
CONTINUOUS
10
77.0579409999999996
20
-73.6429339999999968
11
76.9653670000000005
21
-73.5043869999999941
0
LINE
8
BLACK
6
CONTINUOUS
10
76.9653670000000005
20
-73.5043869999999941
11
76.9016009999999994
21
-73.350442000000001
0
LINE
8
BLACK
6
CONTINUOUS
10
76.9016009999999994
20
-73.350442000000001
11
76.8690929999999923
21
-73.1870150000000024
0
LINE
8
BLACK
6
CONTINUOUS
10
76.8690929999999923
20
-73.1870150000000024
11
76.8649999999999949
21
-73.1037000000000035
0
LINE
8
BLACK
6
CONTINUOUS
10
76.8649999999999949
20
-73.1037000000000035
11
76.8649999999999949
21
-72.8036999999999921
0
LINE
8
BLACK
6
CONTINUOUS
10
76.8649999999999949
20
-72.8036999999999921
11
76.8690929999999923
21
-72.7203849999999932
0
LINE
8
BLACK
6
CONTINUOUS
10
76.8690929999999923
20
-72.7203849999999932
11
76.9016009999999994
21
-72.5569579999999945
0
LINE
8
BLACK
6
CONTINUOUS
10
76.9016009999999994
20
-72.5569579999999945
11
76.9653670000000005
21
-72.4030130000000014
0
LINE
8
BLACK
6
CONTINUOUS
10
76.9653670000000005
20
-72.4030130000000014
11
77.0579409999999996
21
-72.2644659999999988
0
LINE
8
BLACK
6
CONTINUOUS
10
77.0579409999999996
20
-72.2644659999999988
11
77.1757659999999959
21
-72.1466410000000025
0
LINE
8
BLACK
6
CONTINUOUS
10
77.1757659999999959
20
-72.1466410000000025
11
77.2150000000000034
21
-72.1204249999999973
0
LINE
8
BLACK
6
CONTINUOUS
10
77.2150000000000034
20
-72.1204249999999973
11
77.2150000000000034
21
-70.652000000000001
0
LINE
8
BLACK
6
CONTINUOUS
10
77.2150000000000034
20
-70.652000000000001
11
77.2192780000000027
21
-70.5867369999999994
0
LINE
8
BLACK
6
CONTINUOUS
10
77.2192780000000027
20
-70.5867369999999994
11
77.2530599999999907
21
-70.4606579999999951
0
LINE
8
BLACK
6
CONTINUOUS
10
77.2530599999999907
20
-70.4606579999999951
11
77.3183229999999924
21
-70.3476189999999946
0
LINE
8
BLACK
6
CONTINUOUS
10
77.3183229999999924
20
-70.3476189999999946
11
77.410618999999997
21
-70.25532299999999
0
LINE
8
BLACK
6
CONTINUOUS
10
77.410618999999997
20
-70.25532299999999
11
77.5236579999999975
21
-70.1900600000000026
0
LINE
8
BLACK
6
CONTINUOUS
10
77.5236579999999975
20
-70.1900600000000026
11
77.6497370000000018
21
-70.1562780000000004
0
LINE
8
BLACK
6
CONTINUOUS
10
77.6497370000000018
20
-70.1562780000000004
11
77.7150000000000034
21
-70.152000000000001
0
LINE
8
BLACK
6
CONTINUOUS
10
77.7150000000000034
20
-70.152000000000001
11
82.8392999999999944
21
-70.152000000000001
0
LINE
8
BLACK
6
CONTINUOUS
10
82.8392999999999944
20
-70.152000000000001
11
82.9045479999999912
21
-70.1562770000000029
0
LINE
8
BLACK
6
CONTINUOUS
10
82.9045479999999912
20
-70.1562770000000029
11
82.904562999999996
21
-70.1562770000000029
0
LINE
8
BLACK
6
CONTINUOUS
10
82.904562999999996
20
-70.1562770000000029
11
83.0306420000000003
21
-70.1900600000000026
0
LINE
8
BLACK
6
CONTINUOUS
10
83.0306420000000003
20
-70.1900600000000026
11
83.0850980000000021
21
-70.2214999999999918
0
LINE
8
BLACK
6
CONTINUOUS
10
83.0850980000000021
20
-70.2214999999999918
11
95.8075939999999946
21
-70.2214999999999918
0
LINE
8
BLACK
6
CONTINUOUS
10
95.8075939999999946
20
-70.2214999999999918
11
97.4636369999999914
21
-68.565455
0
LINE
8
BLACK
6
CONTINUOUS
10
97.4636369999999914
20
-68.565455
11
97.4465689999999967
21
-68.5319569999999914
0
LINE
8
BLACK
6
CONTINUOUS
10
97.4465689999999967
20
-68.5319569999999914
11
97.3786819999999977
21
-68.3230240000000038
0
LINE
8
BLACK
6
CONTINUOUS
10
97.3786819999999977
20
-68.3230240000000038
11
97.3443159999999921
21
-68.1060429999999997
0
LINE
8
BLACK
6
CONTINUOUS
10
97.3443159999999921
20
-68.1060429999999997
11
97.3443159999999921
21
-67.8863570000000038
0
LINE
8
BLACK
6
CONTINUOUS
10
97.3443159999999921
20
-67.8863570000000038
11
97.3786819999999977
21
-67.6693759999999997
0
LINE
8
BLACK
6
CONTINUOUS
10
97.3786819999999977
20
-67.6693759999999997
11
97.4465689999999967
21
-67.4604429999999979
0
LINE
8
BLACK
6
CONTINUOUS
10
97.4465689999999967
20
-67.4604429999999979
11
97.5463039999999921
21
-67.2647019999999998
0
LINE
8
BLACK
6
CONTINUOUS
10
97.5463039999999921
20
-67.2647019999999998
11
97.6754320000000007
21
-67.0869730000000004
0
LINE
8
BLACK
6
CONTINUOUS
10
97.6754320000000007
20
-67.0869730000000004
11
97.8307729999999935
21
-66.9316319999999934
0
LINE
8
BLACK
6
CONTINUOUS
10
97.8307729999999935
20
-66.9316319999999934
11
98.0085019999999929
21
-66.802503999999999
0
LINE
8
BLACK
6
CONTINUOUS
10
98.0085019999999929
20
-66.802503999999999
11
98.2042429999999911
21
-66.7027690000000035
0
LINE
8
BLACK
6
CONTINUOUS
10
98.2042429999999911
20
-66.7027690000000035
11
98.4131759999999929
21
-66.6348819999999904
0
LINE
8
BLACK
6
CONTINUOUS
10
98.4131759999999929
20
-66.6348819999999904
11
98.630156999999997
21
-66.6005159999999989
0
LINE
8
BLACK
6
CONTINUOUS
10
98.630156999999997
20
-66.6005159999999989
11
98.8498429999999928
21
-66.6005159999999989
0
LINE
8
BLACK
6
CONTINUOUS
10
98.8498429999999928
20
-66.6005159999999989
11
99.0668239999999969
21
-66.6348819999999904
0
LINE
8
BLACK
6
CONTINUOUS
10
69.1361919999999941
20
-70.9097849999999994
11
69.1568340000000035
21
-70.9264189999999957
0
LINE
8
BLACK
6
CONTINUOUS
10
69.1568340000000035
20
-70.9264189999999957
11
70.5730810000000019
21
-72.3426659999999941
0
LINE
8
BLACK
6
CONTINUOUS
10
70.5730810000000019
20
-72.3426659999999941
11
71.9736350000000016
21
-73.7432189999999963
0
LINE
8
BLACK
6
CONTINUOUS
10
71.9736350000000016
20
-73.7432189999999963
11
72.0071200000000005
21
-73.8045419999999979
0
LINE
8
BLACK
6
CONTINUOUS
10
72.0071200000000005
20
-73.8045419999999979
11
72.002135999999993
21
-73.8742340000000013
0
LINE
8
BLACK
6
CONTINUOUS
10
72.002135999999993
20
-73.8742340000000013
11
71.9602639999999951
21
-73.9301669999999973
0
LINE
8
BLACK
6
CONTINUOUS
10
71.9602639999999951
20
-73.9301669999999973
11
71.8948000000000036
21
-73.954583999999997
0
LINE
8
BLACK
6
CONTINUOUS
10
71.8948000000000036
20
-73.954583999999997
11
71.8859539999999981
21
-73.954899999999995
0
LINE
8
BLACK
6
CONTINUOUS
10
71.8859539999999981
20
-73.954899999999995
11
69.9067469999999958
21
-73.954899999999995
0
LINE
8
BLACK
6
CONTINUOUS
10
69.9067469999999958
20
-73.954899999999995
11
69.8397080000000017
21
-73.9352149999999995
0
LINE
8
BLACK
6
CONTINUOUS
10
69.8397080000000017
20
-73.9352149999999995
11
69.8190659999999923
21
-73.9185810000000032
0
LINE
8
BLACK
6
CONTINUOUS
10
69.8190659999999923
20
-73.9185810000000032
11
68.0018189999999976
21
-72.1013339999999943
0
LINE
8
BLACK
6
CONTINUOUS
10
68.0018189999999976
20
-72.1013339999999943
11
67.9683339999999987
21
-72.0400109999999927
0
LINE
8
BLACK
6
CONTINUOUS
10
67.9683339999999987
20
-72.0400109999999927
11
67.9654999999999916
21
-72.0136529999999908
0
LINE
8
BLACK
6
CONTINUOUS
10
67.9654999999999916
20
-72.0136529999999908
11
67.9654999999999916
21
-71.87914099999999
0
LINE
8
BLACK
6
CONTINUOUS
10
67.9654999999999916
20
-71.87914099999999
11
67.9654999999999916
21
-71.8791349999999909
0
LINE
8
BLACK
6
CONTINUOUS
10
67.9654999999999916
20
-71.8791349999999909
11
67.9329819999999955
21
-71.632134999999991
0
LINE
8
BLACK
6
CONTINUOUS
10
67.9329819999999955
20
-71.632134999999991
11
67.8685019999999923
21
-71.391492999999997
0
LINE
8
BLACK
6
CONTINUOUS
10
67.8685019999999923
20
-71.391492999999997
11
67.7760660000000001
21
-71.1683319999999924
0
LINE
8
BLACK
6
CONTINUOUS
10
67.7760660000000001
20
-71.1683319999999924
11
67.7731689999999958
21
-71.1613380000000006
0
LINE
8
BLACK
6
CONTINUOUS
10
67.7731689999999958
20
-71.1613380000000006
11
67.7731639999999942
21
-71.1613279999999975
0
LINE
8
BLACK
6
CONTINUOUS
10
67.7731639999999942
20
-71.1613279999999975
11
67.7731639999999942
21
-71.161327
0
LINE
8
BLACK
6
CONTINUOUS
10
67.7731639999999942
20
-71.161327
11
67.7239579999999961
21
-71.0760989999999993
0
LINE
8
BLACK
6
CONTINUOUS
10
67.7239579999999961
20
-71.0760989999999993
11
67.7074860000000029
21
-71.0081989999999905
0
LINE
8
BLACK
6
CONTINUOUS
10
67.7074860000000029
20
-71.0081989999999905
11
67.7303390000000007
21
-70.9421719999999993
0
LINE
8
BLACK
6
CONTINUOUS
10
67.7303390000000007
20
-70.9421719999999993
11
67.7852609999999913
21
-70.8989820000000037
0
LINE
8
BLACK
6
CONTINUOUS
10
67.7852609999999913
20
-70.8989820000000037
11
67.8313459999999964
21
-70.8901000000000039
0
LINE
8
BLACK
6
CONTINUOUS
10
67.8313459999999964
20
-70.8901000000000039
11
69.069153
21
-70.8901000000000039
0
LINE
8
BLACK
6
CONTINUOUS
10
69.069153
20
-70.8901000000000039
11
69.1361919999999941
21
-70.9097849999999994
0
LINE
8
BLACK
6
CONTINUOUS
10
94.9856699999999989
20
-66.6152299999999968
11
95.0667759999999902
21
-66.6694239999999922
0
LINE
8
BLACK
6
CONTINUOUS
10
95.0667759999999902
20
-66.6694239999999922
11
95.1209699999999998
21
-66.7505299999999977
0
LINE
8
BLACK
6
CONTINUOUS
10
95.1209699999999998
20
-66.7505299999999977
11
95.1399989999999889
21
-66.846201999999991
0
LINE
8
BLACK
6
CONTINUOUS
10
95.1399989999999889
20
-66.846201999999991
11
95.1400000000000006
21
-69.1461989999999957
0
LINE
8
BLACK
6
CONTINUOUS
10
95.1400000000000006
20
-69.1461989999999957
11
95.1209699999999998
21
-69.2418699999999916
0
LINE
8
BLACK
6
CONTINUOUS
10
95.1209699999999998
20
-69.2418699999999916
11
95.0667759999999902
21
-69.322975999999997
0
LINE
8
BLACK
6
CONTINUOUS
10
95.0667759999999902
20
-69.322975999999997
11
94.9856699999999989
21
-69.3771699999999925
0
LINE
8
BLACK
6
CONTINUOUS
10
94.9856699999999989
20
-69.3771699999999925
11
94.8899979999999914
21
-69.3961989999999957
0
LINE
8
BLACK
6
CONTINUOUS
10
94.8899979999999914
20
-69.3961989999999957
11
92.5900010000000009
21
-69.3961999999999932
0
LINE
8
BLACK
6
CONTINUOUS
10
92.5900010000000009
20
-69.3961999999999932
11
92.4943299999999908
21
-69.3771699999999925
0
LINE
8
BLACK
6
CONTINUOUS
10
92.4943299999999908
20
-69.3771699999999925
11
92.4132239999999996
21
-69.322975999999997
0
LINE
8
BLACK
6
CONTINUOUS
10
92.4132239999999996
20
-69.322975999999997
11
92.35902999999999
21
-69.2418699999999916
0
LINE
8
BLACK
6
CONTINUOUS
10
92.35902999999999
20
-69.2418699999999916
11
92.3400010000000009
21
-69.1461979999999983
0
LINE
8
BLACK
6
CONTINUOUS
10
92.3400010000000009
20
-69.1461979999999983
11
92.3400010000000009
21
-68.2850999999999999
0
LINE
8
BLACK
6
CONTINUOUS
10
92.3400010000000009
20
-68.2850999999999999
11
60.3307069999999968
21
-68.2850999999999999
0
LINE
8
BLACK
6
CONTINUOUS
10
60.3307069999999968
20
-68.2850999999999999
11
57.004998999999998
21
-71.6108059999999966
0
LINE
8
BLACK
6
CONTINUOUS
10
57.004998999999998
20
-71.6108059999999966
11
57.0049999999999955
21
-72.8537010000000009
0
LINE
8
BLACK
6
CONTINUOUS
10
57.0049999999999955
20
-72.8537010000000009
11
56.9859699999999947
21
-72.9493709999999993
0
LINE
8
BLACK
6
CONTINUOUS
10
56.9859699999999947
20
-72.9493709999999993
11
56.9317769999999967
21
-73.0304769999999905
0
LINE
8
BLACK
6
CONTINUOUS
10
56.9317769999999967
20
-73.0304769999999905
11
56.8506709999999984
21
-73.0846700000000027
0
LINE
8
BLACK
6
CONTINUOUS
10
56.8506709999999984
20
-73.0846700000000027
11
56.7549999999999955
21
-73.1036989999999918
0
LINE
8
BLACK
6
CONTINUOUS
10
56.7549999999999955
20
-73.1036989999999918
11
55.0549989999999951
21
-73.1037000000000035
0
LINE
8
BLACK
6
CONTINUOUS
10
55.0549989999999951
20
-73.1037000000000035
11
54.9593289999999968
21
-73.0846700000000027
0
LINE
8
BLACK
6
CONTINUOUS
10
54.9593289999999968
20
-73.0846700000000027
11
54.8782229999999984
21
-73.0304769999999905
0
LINE
8
BLACK
6
CONTINUOUS
10
54.8782229999999984
20
-73.0304769999999905
11
54.8240300000000005
21
-72.9493709999999993
0
LINE
8
BLACK
6
CONTINUOUS
10
54.8240300000000005
20
-72.9493709999999993
11
54.8050009999999972
21
-72.8537000000000035
0
LINE
8
BLACK
6
CONTINUOUS
10
54.8050009999999972
20
-72.8537000000000035
11
54.8049999999999997
21
-71.1536990000000031
0
LINE
8
BLACK
6
CONTINUOUS
10
54.8049999999999997
20
-71.1536990000000031
11
54.8240300000000005
21
-71.0580289999999906
0
LINE
8
BLACK
6
CONTINUOUS
10
54.8240300000000005
20
-71.0580289999999906
11
54.8782229999999984
21
-70.9769229999999993
0
LINE
8
BLACK
6
CONTINUOUS
10
54.8782229999999984
20
-70.9769229999999993
11
54.9593289999999968
21
-70.9227300000000014
0
LINE
8
BLACK
6
CONTINUOUS
10
54.9593289999999968
20
-70.9227300000000014
11
55.0549999999999997
21
-70.9037009999999981
0
LINE
8
BLACK
6
CONTINUOUS
10
55.0549999999999997
20
-70.9037009999999981
11
56.2978929999999949
21
-70.9037000000000006
0
LINE
8
BLACK
6
CONTINUOUS
10
56.2978929999999949
20
-70.9037000000000006
11
59.7700460000000007
21
-67.4315469999999948
0
LINE
8
BLACK
6
CONTINUOUS
10
59.7700460000000007
20
-67.4315469999999948
11
59.8192099999999982
21
-67.3884309999999971
0
LINE
8
BLACK
6
CONTINUOUS
10
59.8192099999999982
20
-67.3884309999999971
11
59.8192189999999968
21
-67.3884230000000031
0
LINE
8
BLACK
6
CONTINUOUS
10
59.8192189999999968
20
-67.3884230000000031
11
59.9322579999999974
21
-67.3231600000000014
0
LINE
8
BLACK
6
CONTINUOUS
10
59.9322579999999974
20
-67.3231600000000014
11
60.0583369999999945
21
-67.2893770000000018
0
LINE
8
BLACK
6
CONTINUOUS
10
60.0583369999999945
20
-67.2893770000000018
11
60.0583519999999993
21
-67.2893770000000018
0
LINE
8
BLACK
6
CONTINUOUS
10
60.0583519999999993
20
-67.2893770000000018
11
60.1235999999999962
21
-67.2850999999999999
0
LINE
8
BLACK
6
CONTINUOUS
10
60.1235999999999962
20
-67.2850999999999999
11
92.3399999999999892
21
-67.2850999999999999
0
LINE
8
BLACK
6
CONTINUOUS
10
92.3399999999999892
20
-67.2850999999999999
11
92.3399999999999892
21
-66.8462009999999935
0
LINE
8
BLACK
6
CONTINUOUS
10
92.3399999999999892
20
-66.8462009999999935
11
92.35902999999999
21
-66.7505299999999977
0
LINE
8
BLACK
6
CONTINUOUS
10
92.35902999999999
20
-66.7505299999999977
11
92.4132239999999996
21
-66.6694239999999922
0
LINE
8
BLACK
6
CONTINUOUS
10
92.4132239999999996
20
-66.6694239999999922
11
92.4943299999999908
21
-66.6152299999999968
0
LINE
8
BLACK
6
CONTINUOUS
10
92.4943299999999908
20
-66.6152299999999968
11
92.5900019999999984
21
-66.5962009999999935
0
LINE
8
BLACK
6
CONTINUOUS
10
92.5900019999999984
20
-66.5962009999999935
11
94.8899989999999889
21
-66.5961999999999961
0
LINE
8
BLACK
6
CONTINUOUS
10
94.8899989999999889
20
-66.5961999999999961
11
94.9856699999999989
21
-66.6152299999999968
0
LINE
8
BLACK
6
CONTINUOUS
10
99.6258639999999929
20
-70.0895280000000014
11
99.6615169999999893
21
-70.1496159999999946
0
LINE
8
BLACK
6
CONTINUOUS
10
99.6615169999999893
20
-70.1496159999999946
11
99.6590240000000023
21
-70.2194420000000008
0
LINE
8
BLACK
6
CONTINUOUS
10
99.6590240000000023
20
-70.2194420000000008
11
99.6290499999999923
21
-70.2679639999999921
0
LINE
8
BLACK
6
CONTINUOUS
10
99.6290499999999923
20
-70.2679639999999921
11
98.2801339999999897
21
-71.6168809999999922
0
LINE
8
BLACK
6
CONTINUOUS
10
98.2801339999999897
20
-71.6168809999999922
11
98.2188110000000023
21
-71.6503659999999911
0
LINE
8
BLACK
6
CONTINUOUS
10
98.2188110000000023
20
-71.6503659999999911
11
98.1924530000000004
21
-71.6531999999999982
0
LINE
8
BLACK
6
CONTINUOUS
10
98.1924530000000004
20
-71.6531999999999982
11
97.221547000000001
21
-71.6531999999999982
0
LINE
8
BLACK
6
CONTINUOUS
10
97.221547000000001
20
-71.6531999999999982
11
97.1545079999999928
21
-71.6335150000000027
0
LINE
8
BLACK
6
CONTINUOUS
10
97.1545079999999928
20
-71.6335150000000027
11
97.108752999999993
21
-71.5807109999999938
0
LINE
8
BLACK
6
CONTINUOUS
10
97.108752999999993
20
-71.5807109999999938
11
97.0988089999999886
21
-71.5115529999999922
0
LINE
8
BLACK
6
CONTINUOUS
10
97.0988089999999886
20
-71.5115529999999922
11
97.1278339999999929
21
-71.4479970000000009
0
LINE
8
BLACK
6
CONTINUOUS
10
97.1278339999999929
20
-71.4479970000000009
11
97.1338659999999976
21
-71.4415189999999996
0
LINE
8
BLACK
6
CONTINUOUS
10
97.1338659999999976
20
-71.4415189999999996
11
97.4221849999999989
21
-71.1531999999999982
0
LINE
8
BLACK
6
CONTINUOUS
10
97.4221849999999989
20
-71.1531999999999982
11
98.3607019999999892
21
-70.2146809999999988
0
LINE
8
BLACK
6
CONTINUOUS
10
98.3607019999999892
20
-70.2146809999999988
11
98.4220229999999958
21
-70.1811979999999949
0
LINE
8
BLACK
6
CONTINUOUS
10
98.4220229999999958
20
-70.1811979999999949
11
98.4645609999999891
21
-70.1794249999999948
0
LINE
8
BLACK
6
CONTINUOUS
10
98.4645609999999891
20
-70.1794249999999948
11
98.5957719999999966
21
-70.1966999999999928
0
LINE
8
BLACK
6
CONTINUOUS
10
98.5957719999999966
20
-70.1966999999999928
11
98.5957789999999932
21
-70.1966999999999928
0
LINE
8
BLACK
6
CONTINUOUS
10
98.5957789999999932
20
-70.1966999999999928
11
98.8842209999999966
21
-70.1966999999999928
0
LINE
8
BLACK
6
CONTINUOUS
10
98.8842209999999966
20
-70.1966999999999928
11
98.8842279999999931
21
-70.1966999999999928
0
LINE
8
BLACK
6
CONTINUOUS
10
98.8842279999999931
20
-70.1966999999999928
11
99.1702169999999938
21
-70.159048999999996
0
LINE
8
BLACK
6
CONTINUOUS
10
99.1702169999999938
20
-70.159048999999996
11
99.4488449999999915
21
-70.0843909999999966
0
LINE
8
BLACK
6
CONTINUOUS
10
99.4488449999999915
20
-70.0843909999999966
11
99.4939159999999987
21
-70.0657209999999964
0
LINE
8
BLACK
6
CONTINUOUS
10
99.4939159999999987
20
-70.0657209999999964
11
99.5633849999999967
21
-70.0582529999999934
0
LINE
8
BLACK
6
CONTINUOUS
10
99.5633849999999967
20
-70.0582529999999934
11
99.6258639999999929
21
-70.0895280000000014
0
LINE
8
BLACK
6
CONTINUOUS
10
91.4831020000000024
20
-69.105284999999995
11
91.5288570000000021
21
-69.1580890000000039
0
LINE
8
BLACK
6
CONTINUOUS
10
91.5288570000000021
20
-69.1580890000000039
11
91.5394659999999902
21
-69.1974469999999968
0
LINE
8
BLACK
6
CONTINUOUS
10
91.5394659999999902
20
-69.1974469999999968
11
91.5395010000000013
21
-69.1978019999999958
0
LINE
8
BLACK
6
CONTINUOUS
10
91.5395010000000013
20
-69.1978019999999958
11
91.5395010000000013
21
-69.1978059999999999
0
LINE
8
BLACK
6
CONTINUOUS
10
91.5395010000000013
20
-69.1978059999999999
11
91.5418209999999988
21
-69.2213639999999941
0
LINE
8
BLACK
6
CONTINUOUS
10
91.5418209999999988
20
-69.2213639999999941
11
91.5480730000000023
21
-69.2848469999999992
0
LINE
8
BLACK
6
CONTINUOUS
10
91.5480730000000023
20
-69.2848469999999992
11
91.5350529999999907
21
-69.3534930000000003
0
LINE
8
BLACK
6
CONTINUOUS
10
91.5350529999999907
20
-69.3534930000000003
11
91.4869879999999966
21
-69.4042029999999954
0
LINE
8
BLACK
6
CONTINUOUS
10
91.4869879999999966
20
-69.4042029999999954
11
91.4246699999999919
21
-69.4209999999999923
0
LINE
8
BLACK
6
CONTINUOUS
10
91.4246699999999919
20
-69.4209999999999923
11
83.278815999999992
21
-69.4209999999999923
0
LINE
8
BLACK
6
CONTINUOUS
10
83.278815999999992
20
-69.4209999999999923
11
83.2764849999999939
21
-69.4206300000000027
0
LINE
8
BLACK
6
CONTINUOUS
10
83.2764849999999939
20
-69.4206300000000027
11
83.2752749999999935
21
-69.4209489999999931
0
LINE
8
BLACK
6
CONTINUOUS
10
83.2752749999999935
20
-69.4209489999999931
11
83.2404980000000023
21
-69.4149309999999957
0
LINE
8
BLACK
6
CONTINUOUS
10
83.2404980000000023
20
-69.4149309999999957
11
83.2131710000000027
21
-69.4060520000000025
0
LINE
8
BLACK
6
CONTINUOUS
10
83.2131710000000027
20
-69.4060520000000025
11
83.213169999999991
21
-69.4060509999999908
0
LINE
8
BLACK
6
CONTINUOUS
10
83.213169999999991
20
-69.4060509999999908
11
83.1438320000000033
21
-69.3835219999999993
0
LINE
8
BLACK
6
CONTINUOUS
10
83.1438320000000033
20
-69.3835219999999993
11
82.9885199999999941
21
-69.3589229999999901
0
LINE
8
BLACK
6
CONTINUOUS
10
82.9885199999999941
20
-69.3589229999999901
11
82.9416519999999906
21
-69.3515000000000015
0
LINE
8
BLACK
6
CONTINUOUS
10
82.9416519999999906
20
-69.3515000000000015
11
77.8173519999999996
21
-69.3515000000000015
0
LINE
8
BLACK
6
CONTINUOUS
10
77.8173519999999996
20
-69.3515000000000015
11
77.612647999999993
21
-69.3515000000000015
0
LINE
8
BLACK
6
CONTINUOUS
10
77.612647999999993
20
-69.3515000000000015
11
77.6000650000000007
21
-69.3534930000000003
0
LINE
8
BLACK
6
CONTINUOUS
10
77.6000650000000007
20
-69.3534930000000003
11
77.4104650000000021
21
-69.3835219999999993
0
LINE
8
BLACK
6
CONTINUOUS
10
77.4104650000000021
20
-69.3835219999999993
11
77.2157759999999911
21
-69.4467810000000014
0
LINE
8
BLACK
6
CONTINUOUS
10
77.2157759999999911
20
-69.4467810000000014
11
77.033385999999993
21
-69.5397150000000011
0
LINE
8
BLACK
6
CONTINUOUS
10
77.033385999999993
20
-69.5397150000000011
11
76.8677859999999953
21
-69.660027999999997
0
LINE
8
BLACK
6
CONTINUOUS
10
76.8677859999999953
20
-69.660027999999997
11
76.7230279999999993
21
-69.8047859999999929
0
LINE
8
BLACK
6
CONTINUOUS
10
76.7230279999999993
20
-69.8047859999999929
11
76.6027150000000034
21
-69.9703859999999906
0
LINE
8
BLACK
6
CONTINUOUS
10
76.6027150000000034
20
-69.9703859999999906
11
76.5097809999999896
21
-70.1527760000000029
0
LINE
8
BLACK
6
CONTINUOUS
10
76.5097809999999896
20
-70.1527760000000029
11
76.4465220000000016
21
-70.3474649999999997
0
LINE
8
BLACK
6
CONTINUOUS
10
76.4465220000000016
20
-70.3474649999999997
11
76.4144999999999897
21
-70.5496479999999906
0
LINE
8
BLACK
6
CONTINUOUS
10
76.4144999999999897
20
-70.5496479999999906
11
76.4144999999999897
21
-71.0671370000000024
0
LINE
8
BLACK
6
CONTINUOUS
10
76.4144999999999897
20
-71.0671370000000024
11
76.3948149999999941
21
-71.1341759999999965
0
LINE
8
BLACK
6
CONTINUOUS
10
76.3948149999999941
20
-71.1341759999999965
11
76.3420109999999994
21
-71.1799309999999963
0
LINE
8
BLACK
6
CONTINUOUS
10
76.3420109999999994
20
-71.1799309999999963
11
76.2728529999999978
21
-71.1898750000000007
0
LINE
8
BLACK
6
CONTINUOUS
10
76.2728529999999978
20
-71.1898750000000007
11
76.2495469999999926
21
-71.1841790000000003
0
LINE
8
BLACK
6
CONTINUOUS
10
76.2495469999999926
20
-71.1841790000000003
11
76.2042599999999908
21
-71.1683329999999899
0
LINE
8
BLACK
6
CONTINUOUS
10
76.2042599999999908
20
-71.1683329999999899
11
76.2042489999999901
21
-71.1683299999999974
0
LINE
8
BLACK
6
CONTINUOUS
10
76.2042489999999901
20
-71.1683299999999974
11
76.0699599999999947
21
-71.1531999999999982
0
LINE
8
BLACK
6
CONTINUOUS
10
76.0699599999999947
20
-71.1531999999999982
11
76.0699539999999956
21
-71.1531999999999982
0
LINE
8
BLACK
6
CONTINUOUS
10
76.0699539999999956
20
-71.1531999999999982
11
74.2800459999999987
21
-71.1531999999999982
0
LINE
8
BLACK
6
CONTINUOUS
10
74.2800459999999987
20
-71.1531999999999982
11
74.2800390000000021
21
-71.1531999999999982
0
LINE
8
BLACK
6
CONTINUOUS
10
74.2800390000000021
20
-71.1531999999999982
11
74.1457499999999925
21
-71.1683299999999974
0
LINE
8
BLACK
6
CONTINUOUS
10
74.1457499999999925
20
-71.1683299999999974
11
74.1457449999999909
21
-71.1683309999999949
0
LINE
8
BLACK
6
CONTINUOUS
10
74.1457449999999909
20
-71.1683309999999949
11
73.9754760000000005
21
-71.2279109999999918
0
LINE
8
BLACK
6
CONTINUOUS
10
73.9754760000000005
20
-71.2279109999999918
11
73.8227370000000036
21
-71.3238839999999925
0
LINE
8
BLACK
6
CONTINUOUS
10
73.8227370000000036
20
-71.3238839999999925
11
73.6951839999999976
21
-71.4514369999999985
0
LINE
8
BLACK
6
CONTINUOUS
10
73.6951839999999976
20
-71.4514369999999985
11
73.6951820000000026
21
-71.451439999999991
0
LINE
8
BLACK
6
CONTINUOUS
10
73.6951820000000026
20
-71.451439999999991
11
73.6486539999999934
21
-71.5254879999999957
0
LINE
8
BLACK
6
CONTINUOUS
10
73.6486539999999934
20
-71.5254879999999957
11
73.596318999999994
21
-71.5717789999999923
0
LINE
8
BLACK
6
CONTINUOUS
10
73.596318999999994
20
-71.5717789999999923
11
73.5272649999999999
21
-71.5824259999999981
0
LINE
8
BLACK
6
CONTINUOUS
10
73.5272649999999999
20
-71.5824259999999981
11
73.4634169999999926
21
-71.5540500000000037
0
LINE
8
BLACK
6
CONTINUOUS
10
73.4634169999999926
20
-71.5540500000000037
11
73.4559799999999967
21
-71.5471959999999996
0
LINE
8
BLACK
6
CONTINUOUS
10
73.4559799999999967
20
-71.5471959999999996
11
71.2060659999999928
21
-69.2972809999999981
0
LINE
8
BLACK
6
CONTINUOUS
10
71.2060659999999928
20
-69.2972809999999981
11
71.1725809999999939
21
-69.2359579999999966
0
LINE
8
BLACK
6
CONTINUOUS
10
71.1725809999999939
20
-69.2359579999999966
11
71.1775650000000013
21
-69.1662659999999931
0
LINE
8
BLACK
6
CONTINUOUS
10
71.1775650000000013
20
-69.1662659999999931
11
71.2194369999999992
21
-69.1103329999999971
0
LINE
8
BLACK
6
CONTINUOUS
10
71.2194369999999992
20
-69.1103329999999971
11
71.2849009999999907
21
-69.0859159999999974
0
LINE
8
BLACK
6
CONTINUOUS
10
71.2849009999999907
20
-69.0859159999999974
11
71.2937469999999962
21
-69.0855999999999995
0
LINE
8
BLACK
6
CONTINUOUS
10
71.2937469999999962
20
-69.0855999999999995
11
91.4160629999999941
21
-69.0855999999999995
0
LINE
8
BLACK
6
CONTINUOUS
10
91.4160629999999941
20
-69.0855999999999995
11
91.4831020000000024
21
-69.105284999999995
0
LINE
8
BLACK
6
CONTINUOUS
10
123.4425389999999965
20
-20.5201849999999979
11
123.4882939999999962
21
-20.5729889999999997
0
LINE
8
BLACK
6
CONTINUOUS
10
123.4882939999999962
20
-20.5729889999999997
11
123.4994999999999976
21
-20.6244999999999976
0
LINE
8
BLACK
6
CONTINUOUS
10
123.4994999999999976
20
-20.6244999999999976
11
123.4994999999999976
21
-123.3754999999999882
0
LINE
8
BLACK
6
CONTINUOUS
10
123.4994999999999976
20
-123.3754999999999882
11
123.4798149999999879
21
-123.4425389999999965
0
LINE
8
BLACK
6
CONTINUOUS
10
123.4798149999999879
20
-123.4425389999999965
11
123.4270109999999931
21
-123.4882939999999962
0
LINE
8
BLACK
6
CONTINUOUS
10
123.4270109999999931
20
-123.4882939999999962
11
123.3754999999999882
21
-123.4994999999999976
0
LINE
8
BLACK
6
CONTINUOUS
10
123.3754999999999882
20
-123.4994999999999976
11
20.6244999999999976
21
-123.4994999999999976
0
LINE
8
BLACK
6
CONTINUOUS
10
20.6244999999999976
20
-123.4994999999999976
11
20.557461
21
-123.4798149999999879
0
LINE
8
BLACK
6
CONTINUOUS
10
20.557461
20
-123.4798149999999879
11
20.5117060000000002
21
-123.4270109999999931
0
LINE
8
BLACK
6
CONTINUOUS
10
20.5117060000000002
20
-123.4270109999999931
11
20.5004999999999988
21
-123.3754999999999882
0
LINE
8
BLACK
6
CONTINUOUS
10
20.5004999999999988
20
-123.3754999999999882
11
20.5004999999999988
21
-66.6337970000000013
0
LINE
8
BLACK
6
CONTINUOUS
10
20.5004999999999988
20
-66.6337970000000013
11
20.5004999999999988
21
-20.6244999999999976
0
LINE
8
BLACK
6
CONTINUOUS
10
20.5004999999999988
20
-20.6244999999999976
11
20.5201849999999979
21
-20.557461
0
LINE
8
BLACK
6
CONTINUOUS
10
20.5201849999999979
20
-20.557461
11
20.5729889999999997
21
-20.5117060000000002
0
LINE
8
BLACK
6
CONTINUOUS
10
20.5729889999999997
20
-20.5117060000000002
11
20.6244999999999976
21
-20.5004999999999988
0
LINE
8
BLACK
6
CONTINUOUS
10
20.6244999999999976
20
-20.5004999999999988
11
123.3754999999999882
21
-20.5004999999999988
0
LINE
8
BLACK
6
CONTINUOUS
10
123.3754999999999882
20
-20.5004999999999988
11
123.4425389999999965
21
-20.5201849999999979
0
LINE
8
BLACK
6
CONTINUOUS
10
37.3795000000000002
20
-66.8936020000000013
11
37.4201399999999964
21
-67.1501930000000016
0
LINE
8
BLACK
6
CONTINUOUS
10
37.4201399999999964
20
-67.1501930000000016
11
37.5004220000000004
21
-67.3972759999999909
0
LINE
8
BLACK
6
CONTINUOUS
10
37.5004220000000004
20
-67.3972759999999909
11
37.6183679999999967
21
-67.6287540000000007
0
LINE
8
BLACK
6
CONTINUOUS
10
37.6183679999999967
20
-67.6287540000000007
11
37.6632129999999989
21
-67.6904789999999963
0
LINE
8
BLACK
6
CONTINUOUS
10
37.6632129999999989
20
-67.6904789999999963
11
37.6866929999999982
21
-67.7562849999999912
0
LINE
8
BLACK
6
CONTINUOUS
10
37.6866929999999982
20
-67.7562849999999912
11
37.6708670000000012
21
-67.8243389999999948
0
LINE
8
BLACK
6
CONTINUOUS
10
37.6708670000000012
20
-67.8243389999999948
11
37.6505769999999984
21
-67.8510449999999992
0
LINE
8
BLACK
6
CONTINUOUS
10
37.6505769999999984
20
-67.8510449999999992
11
37.550182999999997
21
-67.9514389999999935
0
LINE
8
BLACK
6
CONTINUOUS
10
37.550182999999997
20
-67.9514389999999935
11
37.4542110000000008
21
-68.1041759999999954
0
LINE
8
BLACK
6
CONTINUOUS
10
37.4542110000000008
20
-68.1041759999999954
11
37.3946309999999968
21
-68.2744450000000001
0
LINE
8
BLACK
6
CONTINUOUS
10
37.3946309999999968
20
-68.2744450000000001
11
37.3946299999999994
21
-68.2744500000000016
0
LINE
8
BLACK
6
CONTINUOUS
10
37.3946299999999994
20
-68.2744500000000016
11
37.3795000000000002
21
-68.4087389999999971
0
LINE
8
BLACK
6
CONTINUOUS
10
37.3795000000000002
20
-68.4087389999999971
11
37.3795000000000002
21
-70.1986600000000038
0
LINE
8
BLACK
6
CONTINUOUS
10
37.3795000000000002
20
-70.1986600000000038
11
37.3946299999999994
21
-70.3329489999999993
0
LINE
8
BLACK
6
CONTINUOUS
10
37.3946299999999994
20
-70.3329489999999993
11
37.3946309999999968
21
-70.3329540000000009
0
LINE
8
BLACK
6
CONTINUOUS
10
37.3946309999999968
20
-70.3329540000000009
11
37.4542110000000008
21
-70.5032229999999913
0
LINE
8
BLACK
6
CONTINUOUS
10
37.4542110000000008
20
-70.5032229999999913
11
37.5471679999999992
21
-70.6511619999999994
0
LINE
8
BLACK
6
CONTINUOUS
10
37.5471679999999992
20
-70.6511619999999994
11
37.5501840000000016
21
-70.6559620000000024
0
LINE
8
BLACK
6
CONTINUOUS
10
37.5501840000000016
20
-70.6559620000000024
11
37.677737999999998
21
-70.7835159999999917
0
LINE
8
BLACK
6
CONTINUOUS
10
37.677737999999998
20
-70.7835159999999917
11
37.8304779999999994
21
-70.8794889999999924
0
LINE
8
BLACK
6
CONTINUOUS
10
37.8304779999999994
20
-70.8794889999999924
11
37.886185999999995
21
-70.8989820000000037
0
LINE
8
BLACK
6
CONTINUOUS
10
37.886185999999995
20
-70.8989820000000037
11
38.0007449999999949
21
-70.9390679999999918
0
LINE
8
BLACK
6
CONTINUOUS
10
38.0007449999999949
20
-70.9390679999999918
11
38.0007499999999965
21
-70.9390690000000035
0
LINE
8
BLACK
6
CONTINUOUS
10
38.0007499999999965
20
-70.9390690000000035
11
38.0779330000000016
21
-70.9477649999999898
0
LINE
8
BLACK
6
CONTINUOUS
10
38.0779330000000016
20
-70.9477649999999898
11
38.1350399999999965
21
-70.9541990000000027
0
LINE
8
BLACK
6
CONTINUOUS
10
38.1350399999999965
20
-70.9541990000000027
11
38.135042999999996
21
-70.9542000000000002
0
LINE
8
BLACK
6
CONTINUOUS
10
38.135042999999996
20
-70.9542000000000002
11
38.1350459999999956
21
-70.9542000000000002
0
LINE
8
BLACK
6
CONTINUOUS
10
38.1350459999999956
20
-70.9542000000000002
11
39.9249569999999991
21
-70.9542000000000002
0
LINE
8
BLACK
6
CONTINUOUS
10
39.9249569999999991
20
-70.9542000000000002
11
39.9249579999999966
21
-70.9541990000000027
0
LINE
8
BLACK
6
CONTINUOUS
10
39.9249579999999966
20
-70.9541990000000027
11
39.9921039999999977
21
-70.9466340000000031
0
LINE
8
BLACK
6
CONTINUOUS
10
39.9921039999999977
20
-70.9466340000000031
11
40.0592490000000012
21
-70.9390690000000035
0
LINE
8
BLACK
6
CONTINUOUS
10
40.0592490000000012
20
-70.9390690000000035
11
40.0592520000000007
21
-70.9390679999999918
0
LINE
8
BLACK
6
CONTINUOUS
10
40.0592520000000007
20
-70.9390679999999918
11
40.0592550000000003
21
-70.9390679999999918
0
LINE
8
BLACK
6
CONTINUOUS
10
40.0592550000000003
20
-70.9390679999999918
11
40.2295219999999958
21
-70.8794889999999924
0
LINE
8
BLACK
6
CONTINUOUS
10
40.2295219999999958
20
-70.8794889999999924
11
40.3822619999999972
21
-70.7835159999999917
0
LINE
8
BLACK
6
CONTINUOUS
10
40.3822619999999972
20
-70.7835159999999917
11
40.5098160000000007
21
-70.6559620000000024
0
LINE
8
BLACK
6
CONTINUOUS
10
40.5098160000000007
20
-70.6559620000000024
11
40.5098190000000002
21
-70.6559560000000033
0
LINE
8
BLACK
6
CONTINUOUS
10
40.5098190000000002
20
-70.6559560000000033
11
40.5146140000000017
21
-70.6511619999999994
0
LINE
8
BLACK
6
CONTINUOUS
10
40.5146140000000017
20
-70.6511619999999994
11
40.5759369999999961
21
-70.6176770000000005
0
LINE
8
BLACK
6
CONTINUOUS
10
40.5759369999999961
20
-70.6176770000000005
11
40.6456289999999996
21
-70.6226609999999937
0
LINE
8
BLACK
6
CONTINUOUS
10
40.6456289999999996
20
-70.6226609999999937
11
40.689976999999999
21
-70.6511619999999994
0
LINE
8
BLACK
6
CONTINUOUS
10
40.689976999999999
20
-70.6511619999999994
11
49.8866079999999954
21
-79.8477919999999983
0
LINE
8
BLACK
6
CONTINUOUS
10
49.8866079999999954
20
-79.8477919999999983
11
49.8866219999999956
21
-79.8478070000000031
0
LINE
8
BLACK
6
CONTINUOUS
10
49.8866219999999956
20
-79.8478070000000031
11
49.8897329999999997
21
-79.850917999999993
0
LINE
8
BLACK
6
CONTINUOUS
10
49.8897329999999997
20
-79.850917999999993
11
49.8897339999999971
21
-79.8509189999999904
0
LINE
8
BLACK
6
CONTINUOUS
10
49.8897339999999971
20
-79.8509189999999904
11
50.0344809999999995
21
-79.9956659999999999
0
LINE
8
BLACK
6
CONTINUOUS
10
50.0344809999999995
20
-79.9956659999999999
11
50.0344839999999991
21
-79.9956679999999949
0
LINE
8
BLACK
6
CONTINUOUS
10
50.0344839999999991
20
-79.9956679999999949
11
50.0344879999999961
21
-79.995671999999999
0
LINE
8
BLACK
6
CONTINUOUS
10
50.0344879999999961
20
-79.995671999999999
11
50.1042500000000004
21
-80.046356000000003
0
LINE
8
BLACK
6
CONTINUOUS
10
50.1042500000000004
20
-80.046356000000003
11
50.2000899999999959
21
-80.1159869999999898
0
LINE
8
BLACK
6
CONTINUOUS
10
50.2000899999999959
20
-80.1159869999999898
11
50.3193199999999976
21
-80.1767380000000003
0
LINE
8
BLACK
6
CONTINUOUS
10
50.3193199999999976
20
-80.1767380000000003
11
50.3824809999999985
21
-80.2089209999999895
0
LINE
8
BLACK
6
CONTINUOUS
10
50.3824809999999985
20
-80.2089209999999895
11
50.382483999999998
21
-80.2089220000000012
0
LINE
8
BLACK
6
CONTINUOUS
10
50.382483999999998
20
-80.2089220000000012
11
50.5640679999999989
21
-80.2679210000000012
0
LINE
8
BLACK
6
CONTINUOUS
10
50.5640679999999989
20
-80.2679210000000012
11
50.5771659999999983
21
-80.2721769999999992
0
LINE
8
BLACK
6
CONTINUOUS
10
50.5771659999999983
20
-80.2721769999999992
11
50.7793489999999963
21
-80.304200999999992
0
LINE
8
BLACK
6
CONTINUOUS
10
50.7793489999999963
20
-80.304200999999992
11
50.7793500000000009
21
-80.304200999999992
0
LINE
8
BLACK
6
CONTINUOUS
10
50.7793500000000009
20
-80.304200999999992
11
50.9891629999999978
21
-80.304200999999992
0
LINE
8
BLACK
6
CONTINUOUS
10
50.9891629999999978
20
-80.304200999999992
11
50.9891870000000011
21
-80.3041999999999945
0
LINE
8
BLACK
6
CONTINUOUS
10
50.9891870000000011
20
-80.3041999999999945
11
54.6317619999999948
21
-80.3041999999999945
0
LINE
8
BLACK
6
CONTINUOUS
10
54.6317619999999948
20
-80.3041999999999945
11
54.698800999999996
21
-80.32388499999999
0
LINE
8
BLACK
6
CONTINUOUS
10
54.698800999999996
20
-80.32388499999999
11
54.7046369999999982
21
-80.3278749999999917
0
LINE
8
BLACK
6
CONTINUOUS
10
54.7046369999999982
20
-80.3278749999999917
11
54.7661549999999977
21
-80.3725699999999961
0
LINE
8
BLACK
6
CONTINUOUS
10
54.7661549999999977
20
-80.3725699999999961
11
54.8722059999999985
21
-80.426604999999995
0
LINE
8
BLACK
6
CONTINUOUS
10
54.8722059999999985
20
-80.426604999999995
11
54.9906159999999957
21
-80.4869389999999925
0
LINE
8
BLACK
6
CONTINUOUS
10
54.9906159999999957
20
-80.4869389999999925
11
54.9906179999999978
21
-80.4869389999999925
0
LINE
8
BLACK
6
CONTINUOUS
10
54.9906179999999978
20
-80.4869389999999925
11
54.9906209999999973
21
-80.4869410000000016
0
LINE
8
BLACK
6
CONTINUOUS
10
54.9906209999999973
20
-80.4869410000000016
11
55.2302149999999941
21
-80.5647900000000021
0
LINE
8
BLACK
6
CONTINUOUS
10
55.2302149999999941
20
-80.5647900000000021
11
55.4790379999999956
21
-80.6041999999999916
0
LINE
8
BLACK
6
CONTINUOUS
10
55.4790379999999956
20
-80.6041999999999916
11
55.4790390000000002
21
-80.6041999999999916
0
LINE
8
BLACK
6
CONTINUOUS
10
55.4790390000000002
20
-80.6041999999999916
11
55.7309610000000006
21
-80.6041999999999916
0
LINE
8
BLACK
6
CONTINUOUS
10
55.7309610000000006
20
-80.6041999999999916
11
55.7309619999999981
21
-80.6041999999999916
0
LINE
8
BLACK
6
CONTINUOUS
10
55.7309619999999981
20
-80.6041999999999916
11
55.9797849999999997
21
-80.5647900000000021
0
LINE
8
BLACK
6
CONTINUOUS
10
55.9797849999999997
20
-80.5647900000000021
11
56.2193789999999964
21
-80.4869410000000016
0
LINE
8
BLACK
6
CONTINUOUS
10
56.2193789999999964
20
-80.4869410000000016
11
56.443844999999996
21
-80.3725699999999961
0
LINE
8
BLACK
6
CONTINUOUS
10
56.443844999999996
20
-80.3725699999999961
11
56.6476559999999978
21
-80.2244929999999954
0
LINE
8
BLACK
6
CONTINUOUS
10
56.6476559999999978
20
-80.2244929999999954
11
56.8257929999999973
21
-80.046356000000003
0
LINE
8
BLACK
6
CONTINUOUS
10
56.8257929999999973
20
-80.046356000000003
11
56.973869999999998
21
-79.8425450000000012
0
LINE
8
BLACK
6
CONTINUOUS
10
56.973869999999998
20
-79.8425450000000012
11
57.0882409999999965
21
-79.6180789999999945
0
LINE
8
BLACK
6
CONTINUOUS
10
57.0882409999999965
20
-79.6180789999999945
11
57.0882429999999985
21
-79.6180739999999929
0
LINE
8
BLACK
6
CONTINUOUS
10
57.0882429999999985
20
-79.6180739999999929
11
57.1011600000000001
21
-79.5783199999999908
0
LINE
8
BLACK
6
CONTINUOUS
10
57.1011600000000001
20
-79.5783199999999908
11
57.1405969999999996
21
-79.5206439999999901
0
LINE
8
BLACK
6
CONTINUOUS
10
57.1405969999999996
20
-79.5206439999999901
11
57.2049549999999982
21
-79.4934449999999941
0
LINE
8
BLACK
6
CONTINUOUS
10
57.2049549999999982
20
-79.4934449999999941
11
57.2738009999999989
21
-79.5053589999999986
0
LINE
8
BLACK
6
CONTINUOUS
10
57.2738009999999989
20
-79.5053589999999986
11
57.3067719999999952
21
-79.5289559999999938
0
LINE
8
BLACK
6
CONTINUOUS
10
57.3067719999999952
20
-79.5289559999999938
11
59.7413079999999965
21
-81.9634920000000022
0
LINE
8
BLACK
6
CONTINUOUS
10
59.7413079999999965
20
-81.9634920000000022
11
59.7413219999999967
21
-81.9635069999999928
0
LINE
8
BLACK
6
CONTINUOUS
10
59.7413219999999967
20
-81.9635069999999928
11
59.7444330000000008
21
-81.9666179999999969
0
LINE
8
BLACK
6
CONTINUOUS
10
59.7444330000000008
20
-81.9666179999999969
11
59.7444339999999983
21
-81.9666189999999943
0
LINE
8
BLACK
6
CONTINUOUS
10
59.7444339999999983
20
-81.9666189999999943
11
59.8891810000000007
21
-82.1113659999999896
0
LINE
8
BLACK
6
CONTINUOUS
10
59.8891810000000007
20
-82.1113659999999896
11
59.8891840000000002
21
-82.1113679999999988
0
LINE
8
BLACK
6
CONTINUOUS
10
59.8891840000000002
20
-82.1113679999999988
11
59.8891879999999972
21
-82.1113720000000029
0
LINE
8
BLACK
6
CONTINUOUS
10
59.8891879999999972
20
-82.1113720000000029
11
60.0393679999999961
21
-82.2204819999999899
0
LINE
8
BLACK
6
CONTINUOUS
10
60.0393679999999961
20
-82.2204819999999899
11
60.054789999999997
21
-82.2316869999999938
0
LINE
8
BLACK
6
CONTINUOUS
10
60.054789999999997
20
-82.2316869999999938
11
60.1416349999999937
21
-82.275936999999999
0
LINE
8
BLACK
6
CONTINUOUS
10
60.1416349999999937
20
-82.275936999999999
11
60.2371809999999996
21
-82.3246209999999934
0
LINE
8
BLACK
6
CONTINUOUS
10
60.2371809999999996
20
-82.3246209999999934
11
60.2371839999999992
21
-82.3246219999999909
0
LINE
8
BLACK
6
CONTINUOUS
10
60.2371839999999992
20
-82.3246219999999909
11
60.3345209999999952
21
-82.3562479999999937
0
LINE
8
BLACK
6
CONTINUOUS
10
60.3345209999999952
20
-82.3562479999999937
11
60.4318659999999994
21
-82.3878770000000031
0
LINE
8
BLACK
6
CONTINUOUS
10
60.4318659999999994
20
-82.3878770000000031
11
60.6340479999999999
21
-82.4198999999999984
0
LINE
8
BLACK
6
CONTINUOUS
10
60.6340479999999999
20
-82.4198999999999984
11
60.6340489999999974
21
-82.4198999999999984
0
LINE
8
BLACK
6
CONTINUOUS
10
60.6340489999999974
20
-82.4198999999999984
11
75.9816509999999994
21
-82.4198999999999984
0
LINE
8
BLACK
6
CONTINUOUS
10
75.9816509999999994
20
-82.4198999999999984
11
75.9816519999999969
21
-82.4198999999999984
0
LINE
8
BLACK
6
CONTINUOUS
10
75.9816519999999969
20
-82.4198999999999984
11
76.183835000000002
21
-82.3878770000000031
0
LINE
8
BLACK
6
CONTINUOUS
10
76.183835000000002
20
-82.3878770000000031
11
76.2811760000000021
21
-82.3562479999999937
0
LINE
8
BLACK
6
CONTINUOUS
10
76.2811760000000021
20
-82.3562479999999937
11
76.3785189999999972
21
-82.3246199999999959
0
LINE
8
BLACK
6
CONTINUOUS
10
76.3785189999999972
20
-82.3246199999999959
11
76.4697139999999962
21
-82.2781530000000032
0
LINE
8
BLACK
6
CONTINUOUS
10
76.4697139999999962
20
-82.2781530000000032
11
76.5609109999999902
21
-82.2316869999999938
0
LINE
8
BLACK
6
CONTINUOUS
10
76.5609109999999902
20
-82.2316869999999938
11
76.7265189999999961
21
-82.1113659999999896
0
LINE
8
BLACK
6
CONTINUOUS
10
76.7265189999999961
20
-82.1113659999999896
11
78.2264089999999896
21
-80.6114729999999895
0
LINE
8
BLACK
6
CONTINUOUS
10
78.2264089999999896
20
-80.6114729999999895
11
78.2877299999999963
21
-80.5779899999999998
0
LINE
8
BLACK
6
CONTINUOUS
10
78.2877299999999963
20
-80.5779899999999998
11
78.2946489999999926
21
-80.5766890000000018
0
LINE
8
BLACK
6
CONTINUOUS
10
78.2946489999999926
20
-80.5766890000000018
11
78.3697849999999931
21
-80.5647900000000021
0
LINE
8
BLACK
6
CONTINUOUS
10
78.3697849999999931
20
-80.5647900000000021
11
78.6093789999999899
21
-80.4869410000000016
0
LINE
8
BLACK
6
CONTINUOUS
10
78.6093789999999899
20
-80.4869410000000016
11
78.8338449999999966
21
-80.3725699999999961
0
LINE
8
BLACK
6
CONTINUOUS
10
78.8338449999999966
20
-80.3725699999999961
11
79.0376559999999984
21
-80.2244929999999954
0
LINE
8
BLACK
6
CONTINUOUS
10
79.0376559999999984
20
-80.2244929999999954
11
79.2157929999999908
21
-80.046356000000003
0
LINE
8
BLACK
6
CONTINUOUS
10
79.2157929999999908
20
-80.046356000000003
11
79.3638699999999915
21
-79.8425450000000012
0
LINE
8
BLACK
6
CONTINUOUS
10
79.3638699999999915
20
-79.8425450000000012
11
79.478240999999997
21
-79.6180789999999945
0
LINE
8
BLACK
6
CONTINUOUS
10
79.478240999999997
20
-79.6180789999999945
11
79.5560899999999975
21
-79.3784849999999977
0
LINE
8
BLACK
6
CONTINUOUS
10
79.5560899999999975
20
-79.3784849999999977
11
79.5679839999999956
21
-79.3033870000000007
0
LINE
8
BLACK
6
CONTINUOUS
10
79.5679839999999956
20
-79.3033870000000007
11
79.5979109999999963
21
-79.2402569999999997
0
LINE
8
BLACK
6
CONTINUOUS
10
79.5979109999999963
20
-79.2402569999999997
11
79.6027579999999944
21
-79.2351249999999965
0
LINE
8
BLACK
6
CONTINUOUS
10
79.6027579999999944
20
-79.2351249999999965
11
81.0951499999999896
21
-77.7427319999999895
0
LINE
8
BLACK
6
CONTINUOUS
10
81.0951499999999896
20
-77.7427319999999895
11
81.0951570000000004
21
-77.7427270000000021
0
LINE
8
BLACK
6
CONTINUOUS
10
81.0951570000000004
20
-77.7427270000000021
11
81.102216999999996
21
-77.7356669999999923
0
LINE
8
BLACK
6
CONTINUOUS
10
81.102216999999996
20
-77.7356669999999923
11
81.102218999999991
21
-77.7356659999999948
0
LINE
8
BLACK
6
CONTINUOUS
10
81.102218999999991
20
-77.7356659999999948
11
81.2469660000000005
21
-77.5909189999999995
0
LINE
8
BLACK
6
CONTINUOUS
10
81.2469660000000005
20
-77.5909189999999995
11
81.2469679999999954
21
-77.5909149999999954
0
LINE
8
BLACK
6
CONTINUOUS
10
81.2469679999999954
20
-77.5909149999999954
11
81.2469710000000021
21
-77.5909130000000005
0
LINE
8
BLACK
6
CONTINUOUS
10
81.2469710000000021
20
-77.5909130000000005
11
81.3547179999999912
21
-77.4426100000000019
0
LINE
8
BLACK
6
CONTINUOUS
10
81.3547179999999912
20
-77.4426100000000019
11
81.3672869999999904
21
-77.4253099999999961
0
LINE
8
BLACK
6
CONTINUOUS
10
81.3672869999999904
20
-77.4253099999999961
11
81.4580139999999915
21
-77.247247999999999
0
LINE
8
BLACK
6
CONTINUOUS
10
81.4580139999999915
20
-77.247247999999999
11
81.4599189999999993
21
-77.2438449999999932
0
LINE
8
BLACK
6
CONTINUOUS
10
81.4599189999999993
20
-77.2438449999999932
11
81.4602199999999925
21
-77.2429190000000006
0
LINE
8
BLACK
6
CONTINUOUS
10
81.4602199999999925
20
-77.2429190000000006
11
81.46022099999999
21
-77.2429180000000031
0
LINE
8
BLACK
6
CONTINUOUS
10
81.46022099999999
20
-77.2429180000000031
11
81.5234769999999997
21
-77.0482339999999937
0
LINE
8
BLACK
6
CONTINUOUS
10
81.5234769999999997
20
-77.0482339999999937
11
81.555499999999995
21
-76.8460510000000028
0
LINE
8
BLACK
6
CONTINUOUS
10
81.555499999999995
20
-76.8460510000000028
11
81.555499999999995
21
-76.6413479999999936
0
LINE
8
BLACK
6
CONTINUOUS
10
81.555499999999995
20
-76.6413479999999936
11
81.555499999999995
21
-74.3781999999999925
0
LINE
8
BLACK
6
CONTINUOUS
10
81.555499999999995
20
-74.3781999999999925
11
81.5751849999999905
21
-74.3111609999999985
0
LINE
8
BLACK
6
CONTINUOUS
10
81.5751849999999905
20
-74.3111609999999985
11
81.6279889999999995
21
-74.2654059999999987
0
LINE
8
BLACK
6
CONTINUOUS
10
81.6279889999999995
20
-74.2654059999999987
11
81.6794999999999902
21
-74.2541999999999973
0
LINE
8
BLACK
6
CONTINUOUS
10
81.6794999999999902
20
-74.2541999999999973
11
98.8848509999999976
21
-74.2541999999999973
0
LINE
8
BLACK
6
CONTINUOUS
10
98.8848509999999976
20
-74.2541999999999973
11
98.8848519999999951
21
-74.2541999999999973
0
LINE
8
BLACK
6
CONTINUOUS
10
98.8848519999999951
20
-74.2541999999999973
11
99.0870350000000002
21
-74.2221770000000021
0
LINE
8
BLACK
6
CONTINUOUS
10
99.0870350000000002
20
-74.2221770000000021
11
99.1843760000000003
21
-74.1905479999999926
0
LINE
8
BLACK
6
CONTINUOUS
10
99.1843760000000003
20
-74.1905479999999926
11
99.2817189999999954
21
-74.1589199999999948
0
LINE
8
BLACK
6
CONTINUOUS
10
99.2817189999999954
20
-74.1589199999999948
11
99.3801809999999932
21
-74.108750999999998
0
LINE
8
BLACK
6
CONTINUOUS
10
99.3801809999999932
20
-74.108750999999998
11
99.4641109999999884
21
-74.0659869999999927
0
LINE
8
BLACK
6
CONTINUOUS
10
99.4641109999999884
20
-74.0659869999999927
11
99.6297189999999944
21
-73.9456660000000028
0
LINE
8
BLACK
6
CONTINUOUS
10
99.6297189999999944
20
-73.9456660000000028
11
103.3607009999999917
21
-70.2146809999999988
0
LINE
8
BLACK
6
CONTINUOUS
10
103.3607009999999917
20
-70.2146809999999988
11
103.4220219999999983
21
-70.1811979999999949
0
LINE
8
BLACK
6
CONTINUOUS
10
103.4220219999999983
20
-70.1811979999999949
11
103.4645599999999916
21
-70.1794249999999948
0
LINE
8
BLACK
6
CONTINUOUS
10
103.4645599999999916
20
-70.1794249999999948
11
103.5957719999999966
21
-70.1966999999999928
0
LINE
8
BLACK
6
CONTINUOUS
10
103.5957719999999966
20
-70.1966999999999928
11
103.5957789999999932
21
-70.1966999999999928
0
LINE
8
BLACK
6
CONTINUOUS
10
103.5957789999999932
20
-70.1966999999999928
11
103.8842209999999966
21
-70.1966999999999928
0
LINE
8
BLACK
6
CONTINUOUS
10
103.8842209999999966
20
-70.1966999999999928
11
103.8842279999999931
21
-70.1966999999999928
0
LINE
8
BLACK
6
CONTINUOUS
10
103.8842279999999931
20
-70.1966999999999928
11
104.1702169999999938
21
-70.159048999999996
0
LINE
8
BLACK
6
CONTINUOUS
10
104.1702169999999938
20
-70.159048999999996
11
104.4488449999999915
21
-70.0843909999999966
0
LINE
8
BLACK
6
CONTINUOUS
10
104.4488449999999915
20
-70.0843909999999966
11
104.4488569999999896
21
-70.0843849999999975
0
LINE
8
BLACK
6
CONTINUOUS
10
104.4488569999999896
20
-70.0843849999999975
11
104.4488599999999963
21
-70.0843849999999975
0
LINE
8
BLACK
6
CONTINUOUS
10
104.4488599999999963
20
-70.0843849999999975
11
104.7153359999999935
21
-69.9740079999999978
0
LINE
8
BLACK
6
CONTINUOUS
10
104.7153359999999935
20
-69.9740079999999978
11
104.7153390000000002
21
-69.9740060000000028
0
LINE
8
BLACK
6
CONTINUOUS
10
104.7153390000000002
20
-69.9740060000000028
11
104.7153449999999992
21
-69.9740039999999937
0
LINE
8
BLACK
6
CONTINUOUS
10
104.7153449999999992
20
-69.9740039999999937
11
104.9651559999999932
21
-69.8297749999999979
0
LINE
8
BLACK
6
CONTINUOUS
10
104.9651559999999932
20
-69.8297749999999979
11
105.1940039999999925
21
-69.6541739999999976
0
LINE
8
BLACK
6
CONTINUOUS
10
105.1940039999999925
20
-69.6541739999999976
11
105.3979739999999907
21
-69.4502039999999994
0
LINE
8
BLACK
6
CONTINUOUS
10
105.3979739999999907
20
-69.4502039999999994
11
105.5735749999999911
21
-69.2213560000000001
0
LINE
8
BLACK
6
CONTINUOUS
10
105.5735749999999911
20
-69.2213560000000001
11
105.717804000000001
21
-68.9715449999999919
0
LINE
8
BLACK
6
CONTINUOUS
10
105.717804000000001
20
-68.9715449999999919
11
105.7396789999999953
21
-68.9187349999999981
0
LINE
8
BLACK
6
CONTINUOUS
10
105.7396789999999953
20
-68.9187349999999981
11
105.8281849999999906
21
-68.7050600000000031
0
LINE
8
BLACK
6
CONTINUOUS
10
105.8281849999999906
20
-68.7050600000000031
11
105.8281869999999998
21
-68.7050539999999899
0
LINE
8
BLACK
6
CONTINUOUS
10
105.8281869999999998
20
-68.7050539999999899
11
105.8281909999999897
21
-68.7050449999999984
0
LINE
8
BLACK
6
CONTINUOUS
10
105.8281909999999897
20
-68.7050449999999984
11
105.9028489999999891
21
-68.4264170000000007
0
LINE
8
BLACK
6
CONTINUOUS
10
105.9028489999999891
20
-68.4264170000000007
11
105.9405000000000001
21
-68.140428
0
LINE
8
BLACK
6
CONTINUOUS
10
105.9405000000000001
20
-68.140428
11
105.9405000000000001
21
-67.8519720000000035
0
LINE
8
BLACK
6
CONTINUOUS
10
105.9405000000000001
20
-67.8519720000000035
11
105.9028489999999891
21
-67.5659830000000028
0
LINE
8
BLACK
6
CONTINUOUS
10
105.9028489999999891
20
-67.5659830000000028
11
105.8281909999999897
21
-67.2873549999999909
0
LINE
8
BLACK
6
CONTINUOUS
10
105.8281909999999897
20
-67.2873549999999909
11
105.8281860000000023
21
-67.287345000000002
0
LINE
8
BLACK
6
CONTINUOUS
10
105.8281860000000023
20
-67.287345000000002
11
105.8281849999999906
21
-67.2873390000000029
0
LINE
8
BLACK
6
CONTINUOUS
10
105.8281849999999906
20
-67.2873390000000029
11
105.7178079999999909
21
-67.0208629999999914
0
LINE
8
BLACK
6
CONTINUOUS
10
105.7178079999999909
20
-67.0208629999999914
11
105.7177999999999969
21
-67.0208470000000034
0
LINE
8
BLACK
6
CONTINUOUS
10
105.7177999999999969
20
-67.0208470000000034
11
105.5735789999999952
21
-66.7710509999999999
0
LINE
8
BLACK
6
CONTINUOUS
10
105.5735789999999952
20
-66.7710509999999999
11
105.5735749999999911
21
-66.7710440000000034
0
LINE
8
BLACK
6
CONTINUOUS
10
105.5735749999999911
20
-66.7710440000000034
11
105.4732269999999943
21
-66.6402679999999918
0
LINE
8
BLACK
6
CONTINUOUS
10
105.4732269999999943
20
-66.6402679999999918
11
105.3979749999999882
21
-66.5421970000000016
0
LINE
8
BLACK
6
CONTINUOUS
10
105.3979749999999882
20
-66.5421970000000016
11
105.3979689999999891
21
-66.5421899999999908
0
LINE
8
BLACK
6
CONTINUOUS
10
105.3979689999999891
20
-66.5421899999999908
11
105.1940089999999941
21
-66.3382299999999958
0
LINE
8
BLACK
6
CONTINUOUS
10
105.1940089999999941
20
-66.3382299999999958
11
105.1940019999999976
21
-66.3382239999999967
0
LINE
8
BLACK
6
CONTINUOUS
10
105.1940019999999976
20
-66.3382239999999967
11
104.9651640000000015
21
-66.1626309999999904
0
LINE
8
BLACK
6
CONTINUOUS
10
104.9651640000000015
20
-66.1626309999999904
11
104.9651619999999923
21
-66.1626289999999955
0
LINE
8
BLACK
6
CONTINUOUS
10
104.9651619999999923
20
-66.1626289999999955
11
104.9651559999999932
21
-66.1626249999999914
0
LINE
8
BLACK
6
CONTINUOUS
10
104.9651559999999932
20
-66.1626249999999914
11
104.9651509999999917
21
-66.1626219999999989
0
LINE
8
BLACK
6
CONTINUOUS
10
104.9651509999999917
20
-66.1626219999999989
11
104.9651479999999992
21
-66.162620000000004
0
LINE
8
BLACK
6
CONTINUOUS
10
104.9651479999999992
20
-66.162620000000004
11
104.7153519999999958
21
-66.0183990000000023
0
LINE
8
BLACK
6
CONTINUOUS
10
104.7153519999999958
20
-66.0183990000000023
11
104.7153359999999935
21
-66.0183909999999941
0
LINE
8
BLACK
6
CONTINUOUS
10
104.7153359999999935
20
-66.0183909999999941
11
104.4488599999999963
21
-65.9080139999999943
0
LINE
8
BLACK
6
CONTINUOUS
10
104.4488599999999963
20
-65.9080139999999943
11
104.4488479999999981
21
-65.9080099999999902
0
LINE
8
BLACK
6
CONTINUOUS
10
104.4488479999999981
20
-65.9080099999999902
11
104.4488449999999915
21
-65.9080089999999927
0
LINE
8
BLACK
6
CONTINUOUS
10
104.4488449999999915
20
-65.9080089999999927
11
104.1702169999999938
21
-65.8333509999999933
0
LINE
8
BLACK
6
CONTINUOUS
10
104.1702169999999938
20
-65.8333509999999933
11
104.1702109999999948
21
-65.8333499999999958
0
LINE
8
BLACK
6
CONTINUOUS
10
104.1702109999999948
20
-65.8333499999999958
11
104.1702059999999932
21
-65.8333489999999983
0
LINE
8
BLACK
6
CONTINUOUS
10
104.1702059999999932
20
-65.8333489999999983
11
103.8842379999999963
21
-65.795700999999994
0
LINE
8
BLACK
6
CONTINUOUS
10
103.8842379999999963
20
-65.795700999999994
11
103.8842329999999947
21
-65.7956999999999965
0
LINE
8
BLACK
6
CONTINUOUS
10
103.8842329999999947
20
-65.7956999999999965
11
103.8842279999999931
21
-65.7956999999999965
0
LINE
8
BLACK
6
CONTINUOUS
10
103.8842279999999931
20
-65.7956999999999965
11
103.5957719999999966
21
-65.7956999999999965
0
LINE
8
BLACK
6
CONTINUOUS
10
103.5957719999999966
20
-65.7956999999999965
11
103.5957659999999976
21
-65.7956999999999965
0
LINE
8
BLACK
6
CONTINUOUS
10
103.5957659999999976
20
-65.7956999999999965
11
103.595760999999996
21
-65.795700999999994
0
LINE
8
BLACK
6
CONTINUOUS
10
103.595760999999996
20
-65.795700999999994
11
103.3097929999999991
21
-65.8333489999999983
0
LINE
8
BLACK
6
CONTINUOUS
10
103.3097929999999991
20
-65.8333489999999983
11
103.3097859999999883
21
-65.8333499999999958
0
LINE
8
BLACK
6
CONTINUOUS
10
103.3097859999999883
20
-65.8333499999999958
11
103.3097829999999959
21
-65.8333509999999933
0
LINE
8
BLACK
6
CONTINUOUS
10
103.3097829999999959
20
-65.8333509999999933
11
103.1693870000000004
21
-65.8709699999999998
0
LINE
8
BLACK
6
CONTINUOUS
10
103.1693870000000004
20
-65.8709699999999998
11
103.0311549999999983
21
-65.9080089999999927
0
LINE
8
BLACK
6
CONTINUOUS
10
103.0311549999999983
20
-65.9080089999999927
11
103.031138999999996
21
-65.9080139999999943
0
LINE
8
BLACK
6
CONTINUOUS
10
103.031138999999996
20
-65.9080139999999943
11
102.7646629999999988
21
-66.0183909999999941
0
LINE
8
BLACK
6
CONTINUOUS
10
102.7646629999999988
20
-66.0183909999999941
11
102.7646469999999965
21
-66.0183990000000023
0
LINE
8
BLACK
6
CONTINUOUS
10
102.7646469999999965
20
-66.0183990000000023
11
102.5148509999999931
21
-66.162620000000004
0
LINE
8
BLACK
6
CONTINUOUS
10
102.5148509999999931
20
-66.162620000000004
11
102.5148349999999908
21
-66.1626309999999904
0
LINE
8
BLACK
6
CONTINUOUS
10
102.5148349999999908
20
-66.1626309999999904
11
102.2859969999999947
21
-66.3382239999999967
0
LINE
8
BLACK
6
CONTINUOUS
10
102.2859969999999947
20
-66.3382239999999967
11
102.2859899999999982
21
-66.3382299999999958
0
LINE
8
BLACK
6
CONTINUOUS
10
102.2859899999999982
20
-66.3382299999999958
11
102.0820299999999889
21
-66.5421899999999908
0
LINE
8
BLACK
6
CONTINUOUS
10
102.0820299999999889
20
-66.5421899999999908
11
102.0820239999999899
21
-66.5421970000000016
0
LINE
8
BLACK
6
CONTINUOUS
10
102.0820239999999899
20
-66.5421970000000016
11
101.9064309999999978
21
-66.7710349999999977
0
LINE
8
BLACK
6
CONTINUOUS
10
101.9064309999999978
20
-66.7710349999999977
11
101.9064199999999971
21
-66.7710509999999999
0
LINE
8
BLACK
6
CONTINUOUS
10
101.9064199999999971
20
-66.7710509999999999
11
101.7621989999999954
21
-67.0208470000000034
0
LINE
8
BLACK
6
CONTINUOUS
10
101.7621989999999954
20
-67.0208470000000034
11
101.7621910000000014
21
-67.0208629999999914
0
LINE
8
BLACK
6
CONTINUOUS
10
101.7621910000000014
20
-67.0208629999999914
11
101.6518140000000017
21
-67.2873390000000029
0
LINE
8
BLACK
6
CONTINUOUS
10
101.6518140000000017
20
-67.2873390000000029
11
101.6518090000000001
21
-67.2873549999999909
0
LINE
8
BLACK
6
CONTINUOUS
10
101.6518090000000001
20
-67.2873549999999909
11
101.5771519999999981
21
-67.5659799999999962
0
LINE
8
BLACK
6
CONTINUOUS
10
101.5771519999999981
20
-67.5659799999999962
11
101.5771489999999915
21
-67.5659929999999918
0
LINE
8
BLACK
6
CONTINUOUS
10
101.5771489999999915
20
-67.5659929999999918
11
101.5395010000000013
21
-67.8519610000000029
0
LINE
8
BLACK
6
CONTINUOUS
10
101.5395010000000013
20
-67.8519610000000029
11
101.5394999999999897
21
-67.8519780000000026
0
LINE
8
BLACK
6
CONTINUOUS
10
101.5394999999999897
20
-67.8519780000000026
11
101.5394999999999897
21
-68.1404210000000035
0
LINE
8
BLACK
6
CONTINUOUS
10
101.5394999999999897
20
-68.1404210000000035
11
101.5395010000000013
21
-68.1404380000000032
0
LINE
8
BLACK
6
CONTINUOUS
10
101.5395010000000013
20
-68.1404380000000032
11
101.5567729999999926
21
-68.2716329999999942
0
LINE
8
BLACK
6
CONTINUOUS
10
101.5567729999999926
20
-68.2716329999999942
11
101.5460069999999888
21
-68.3406679999999938
0
LINE
8
BLACK
6
CONTINUOUS
10
101.5460069999999888
20
-68.3406679999999938
11
101.5215149999999937
21
-68.3754989999999907
0
LINE
8
BLACK
6
CONTINUOUS
10
101.5215149999999937
20
-68.3754989999999907
11
101.0117639999999994
21
-68.8852499999999992
0
LINE
8
BLACK
6
CONTINUOUS
10
101.0117639999999994
20
-68.8852499999999992
11
100.9504409999999979
21
-68.9187349999999981
0
LINE
8
BLACK
6
CONTINUOUS
10
100.9504409999999979
20
-68.9187349999999981
11
100.8807489999999945
21
-68.9137509999999907
0
LINE
8
BLACK
6
CONTINUOUS
10
100.8807489999999945
20
-68.9137509999999907
11
100.8248159999999984
21
-68.8718789999999927
0
LINE
8
BLACK
6
CONTINUOUS
10
100.8248159999999984
20
-68.8718789999999927
11
100.8003989999999988
21
-68.8064150000000012
0
LINE
8
BLACK
6
CONTINUOUS
10
100.8003989999999988
20
-68.8064150000000012
11
100.8095220000000012
21
-68.7501159999999913
0
LINE
8
BLACK
6
CONTINUOUS
10
100.8095220000000012
20
-68.7501159999999913
11
100.8281869999999998
21
-68.7050539999999899
0
LINE
8
BLACK
6
CONTINUOUS
10
100.8281869999999998
20
-68.7050539999999899
11
100.8281909999999897
21
-68.7050449999999984
0
LINE
8
BLACK
6
CONTINUOUS
10
100.8281909999999897
20
-68.7050449999999984
11
100.9028489999999891
21
-68.4264170000000007
0
LINE
8
BLACK
6
CONTINUOUS
10
100.9028489999999891
20
-68.4264170000000007
11
100.9405000000000001
21
-68.140428
0
LINE
8
BLACK
6
CONTINUOUS
10
100.9405000000000001
20
-68.140428
11
100.9405000000000001
21
-67.8519720000000035
0
LINE
8
BLACK
6
CONTINUOUS
10
100.9405000000000001
20
-67.8519720000000035
11
100.9028489999999891
21
-67.5659830000000028
0
LINE
8
BLACK
6
CONTINUOUS
10
100.9028489999999891
20
-67.5659830000000028
11
100.8281909999999897
21
-67.2873549999999909
0
LINE
8
BLACK
6
CONTINUOUS
10
100.8281909999999897
20
-67.2873549999999909
11
100.8281860000000023
21
-67.287345000000002
0
LINE
8
BLACK
6
CONTINUOUS
10
100.8281860000000023
20
-67.287345000000002
11
100.8281849999999906
21
-67.2873390000000029
0
LINE
8
BLACK
6
CONTINUOUS
10
100.8281849999999906
20
-67.2873390000000029
11
100.7178079999999909
21
-67.0208629999999914
0
LINE
8
BLACK
6
CONTINUOUS
10
100.7178079999999909
20
-67.0208629999999914
11
100.7177999999999969
21
-67.0208470000000034
0
LINE
8
BLACK
6
CONTINUOUS
10
100.7177999999999969
20
-67.0208470000000034
11
100.5735789999999952
21
-66.7710509999999999
0
LINE
8
BLACK
6
CONTINUOUS
10
100.5735789999999952
20
-66.7710509999999999
11
100.5735749999999911
21
-66.7710440000000034
0
LINE
8
BLACK
6
CONTINUOUS
10
100.5735749999999911
20
-66.7710440000000034
11
100.4732269999999943
21
-66.6402679999999918
0
LINE
8
BLACK
6
CONTINUOUS
10
100.4732269999999943
20
-66.6402679999999918
11
100.3979750000000024
21
-66.5421970000000016
0
LINE
8
BLACK
6
CONTINUOUS
10
100.3979750000000024
20
-66.5421970000000016
11
100.3979689999999891
21
-66.5421899999999908
0
LINE
8
BLACK
6
CONTINUOUS
10
100.3979689999999891
20
-66.5421899999999908
11
100.1940089999999941
21
-66.3382299999999958
0
LINE
8
BLACK
6
CONTINUOUS
10
100.1940089999999941
20
-66.3382299999999958
11
100.1940019999999976
21
-66.3382239999999967
0
LINE
8
BLACK
6
CONTINUOUS
10
100.1940019999999976
20
-66.3382239999999967
11
99.9651640000000015
21
-66.1626309999999904
0
LINE
8
BLACK
6
CONTINUOUS
10
99.9651640000000015
20
-66.1626309999999904
11
99.9651619999999923
21
-66.1626289999999955
0
LINE
8
BLACK
6
CONTINUOUS
10
99.9651619999999923
20
-66.1626289999999955
11
99.9651559999999932
21
-66.1626249999999914
0
LINE
8
BLACK
6
CONTINUOUS
10
99.9651559999999932
20
-66.1626249999999914
11
99.9651509999999917
21
-66.1626219999999989
0
LINE
8
BLACK
6
CONTINUOUS
10
99.9651509999999917
20
-66.1626219999999989
11
99.9651479999999992
21
-66.162620000000004
0
LINE
8
BLACK
6
CONTINUOUS
10
99.9651479999999992
20
-66.162620000000004
11
99.7153519999999958
21
-66.0183990000000023
0
LINE
8
BLACK
6
CONTINUOUS
10
99.7153519999999958
20
-66.0183990000000023
11
99.7153359999999935
21
-66.0183909999999941
0
LINE
8
BLACK
6
CONTINUOUS
10
99.7153359999999935
20
-66.0183909999999941
11
99.4488599999999963
21
-65.9080139999999943
0
LINE
8
BLACK
6
CONTINUOUS
10
99.4488599999999963
20
-65.9080139999999943
11
99.4488479999999981
21
-65.9080099999999902
0
LINE
8
BLACK
6
CONTINUOUS
10
99.4488479999999981
20
-65.9080099999999902
11
99.4488449999999915
21
-65.9080089999999927
0
LINE
8
BLACK
6
CONTINUOUS
10
99.4488449999999915
20
-65.9080089999999927
11
99.1702169999999938
21
-65.8333509999999933
0
LINE
8
BLACK
6
CONTINUOUS
10
99.1702169999999938
20
-65.8333509999999933
11
99.1702109999999948
21
-65.8333499999999958
0
LINE
8
BLACK
6
CONTINUOUS
10
99.1702109999999948
20
-65.8333499999999958
11
99.1702059999999932
21
-65.8333489999999983
0
LINE
8
BLACK
6
CONTINUOUS
10
99.1702059999999932
20
-65.8333489999999983
11
98.8842379999999963
21
-65.795700999999994
0
LINE
8
BLACK
6
CONTINUOUS
10
98.8842379999999963
20
-65.795700999999994
11
98.8842329999999947
21
-65.7956999999999965
0
LINE
8
BLACK
6
CONTINUOUS
10
98.8842329999999947
20
-65.7956999999999965
11
98.8842279999999931
21
-65.7956999999999965
0
LINE
8
BLACK
6
CONTINUOUS
10
98.8842279999999931
20
-65.7956999999999965
11
98.5957719999999966
21
-65.7956999999999965
0
LINE
8
BLACK
6
CONTINUOUS
10
98.5957719999999966
20
-65.7956999999999965
11
98.5957659999999976
21
-65.7956999999999965
0
LINE
8
BLACK
6
CONTINUOUS
10
98.5957659999999976
20
-65.7956999999999965
11
98.595760999999996
21
-65.795700999999994
0
LINE
8
BLACK
6
CONTINUOUS
10
98.595760999999996
20
-65.795700999999994
11
98.3097929999999991
21
-65.8333489999999983
0
LINE
8
BLACK
6
CONTINUOUS
10
98.3097929999999991
20
-65.8333489999999983
11
98.3097860000000026
21
-65.8333499999999958
0
LINE
8
BLACK
6
CONTINUOUS
10
98.3097860000000026
20
-65.8333499999999958
11
98.3097829999999959
21
-65.8333509999999933
0
LINE
8
BLACK
6
CONTINUOUS
10
98.3097829999999959
20
-65.8333509999999933
11
98.1693870000000004
21
-65.8709699999999998
0
LINE
8
BLACK
6
CONTINUOUS
10
98.1693870000000004
20
-65.8709699999999998
11
98.0311549999999983
21
-65.9080089999999927
0
LINE
8
BLACK
6
CONTINUOUS
10
98.0311549999999983
20
-65.9080089999999927
11
98.031138999999996
21
-65.9080139999999943
0
LINE
8
BLACK
6
CONTINUOUS
10
98.031138999999996
20
-65.9080139999999943
11
97.7646629999999988
21
-66.0183909999999941
0
LINE
8
BLACK
6
CONTINUOUS
10
97.7646629999999988
20
-66.0183909999999941
11
97.7646469999999965
21
-66.0183990000000023
0
LINE
8
BLACK
6
CONTINUOUS
10
97.7646469999999965
20
-66.0183990000000023
11
97.5148509999999931
21
-66.162620000000004
0
LINE
8
BLACK
6
CONTINUOUS
10
97.5148509999999931
20
-66.162620000000004
11
97.5148349999999908
21
-66.1626309999999904
0
LINE
8
BLACK
6
CONTINUOUS
10
97.5148349999999908
20
-66.1626309999999904
11
97.2859969999999947
21
-66.3382239999999967
0
LINE
8
BLACK
6
CONTINUOUS
10
97.2859969999999947
20
-66.3382239999999967
11
97.2859899999999982
21
-66.3382299999999958
0
LINE
8
BLACK
6
CONTINUOUS
10
97.2859899999999982
20
-66.3382299999999958
11
97.0820299999999889
21
-66.5421899999999908
0
LINE
8
BLACK
6
CONTINUOUS
10
97.0820299999999889
20
-66.5421899999999908
11
97.0820239999999899
21
-66.5421970000000016
0
LINE
8
BLACK
6
CONTINUOUS
10
97.0820239999999899
20
-66.5421970000000016
11
96.9064309999999978
21
-66.7710349999999977
0
LINE
8
BLACK
6
CONTINUOUS
10
96.9064309999999978
20
-66.7710349999999977
11
96.9064199999999971
21
-66.7710509999999999
0
LINE
8
BLACK
6
CONTINUOUS
10
96.9064199999999971
20
-66.7710509999999999
11
96.7621989999999954
21
-67.0208470000000034
0
LINE
8
BLACK
6
CONTINUOUS
10
96.7621989999999954
20
-67.0208470000000034
11
96.7621910000000014
21
-67.0208629999999914
0
LINE
8
BLACK
6
CONTINUOUS
10
96.7621910000000014
20
-67.0208629999999914
11
96.6518140000000017
21
-67.2873390000000029
0
LINE
8
BLACK
6
CONTINUOUS
10
96.6518140000000017
20
-67.2873390000000029
11
96.6518090000000001
21
-67.2873549999999909
0
LINE
8
BLACK
6
CONTINUOUS
10
96.6518090000000001
20
-67.2873549999999909
11
96.5771519999999981
21
-67.5659799999999962
0
LINE
8
BLACK
6
CONTINUOUS
10
96.5771519999999981
20
-67.5659799999999962
11
96.5771489999999915
21
-67.5659929999999918
0
LINE
8
BLACK
6
CONTINUOUS
10
96.5771489999999915
20
-67.5659929999999918
11
96.5395010000000013
21
-67.8519610000000029
0
LINE
8
BLACK
6
CONTINUOUS
10
96.5395010000000013
20
-67.8519610000000029
11
96.5394999999999897
21
-67.8519780000000026
0
LINE
8
BLACK
6
CONTINUOUS
10
96.5394999999999897
20
-67.8519780000000026
11
96.5394999999999897
21
-68.1404210000000035
0
LINE
8
BLACK
6
CONTINUOUS
10
96.5394999999999897
20
-68.1404210000000035
11
96.5395010000000013
21
-68.1404380000000032
0
LINE
8
BLACK
6
CONTINUOUS
10
96.5395010000000013
20
-68.1404380000000032
11
96.5567729999999926
21
-68.2716319999999968
0
LINE
8
BLACK
6
CONTINUOUS
10
96.5567729999999926
20
-68.2716319999999968
11
96.5460069999999888
21
-68.3406669999999963
0
LINE
8
BLACK
6
CONTINUOUS
10
96.5460069999999888
20
-68.3406669999999963
11
96.5215149999999937
21
-68.3754979999999932
0
LINE
8
BLACK
6
CONTINUOUS
10
96.5215149999999937
20
-68.3754979999999932
11
96.1521800000000013
21
-68.7448339999999973
0
LINE
8
BLACK
6
CONTINUOUS
10
96.1521800000000013
20
-68.7448339999999973
11
96.0908569999999997
21
-68.7783189999999962
0
LINE
8
BLACK
6
CONTINUOUS
10
96.0908569999999997
20
-68.7783189999999962
11
96.0211659999999938
21
-68.773335000000003
0
LINE
8
BLACK
6
CONTINUOUS
10
96.0211659999999938
20
-68.773335000000003
11
95.9652320000000003
21
-68.7314640000000026
0
LINE
8
BLACK
6
CONTINUOUS
10
95.9652320000000003
20
-68.7314640000000026
11
95.9408150000000006
21
-68.6659989999999993
0
LINE
8
BLACK
6
CONTINUOUS
10
95.9408150000000006
20
-68.6659989999999993
11
95.9404990000000026
21
-68.6571529999999939
0
LINE
8
BLACK
6
CONTINUOUS
10
95.9404990000000026
20
-68.6571529999999939
11
95.9404990000000026
21
-66.794596999999996
0
LINE
8
BLACK
6
CONTINUOUS
10
95.9404990000000026
20
-66.794596999999996
11
95.938178999999991
21
-66.7710440000000034
0
LINE
8
BLACK
6
CONTINUOUS
10
95.938178999999991
20
-66.7710440000000034
11
95.9252999999999929
21
-66.6402669999999944
0
LINE
8
BLACK
6
CONTINUOUS
10
95.9252999999999929
20
-66.6402669999999944
11
95.8652309999999943
21
-66.4422459999999973
0
LINE
8
BLACK
6
CONTINUOUS
10
95.8652309999999943
20
-66.4422459999999973
11
95.8652289999999994
21
-66.4422429999999906
0
LINE
8
BLACK
6
CONTINUOUS
10
95.8652289999999994
20
-66.4422429999999906
11
95.8652289999999994
21
-66.4422409999999957
0
LINE
8
BLACK
6
CONTINUOUS
10
95.8652289999999994
20
-66.4422409999999957
11
95.7676859999999976
21
-66.2597509999999943
0
LINE
8
BLACK
6
CONTINUOUS
10
95.7676859999999976
20
-66.2597509999999943
11
95.7676840000000027
21
-66.2597489999999993
0
LINE
8
BLACK
6
CONTINUOUS
10
95.7676840000000027
20
-66.2597489999999993
11
95.6364099999999979
21
-66.0997890000000012
0
LINE
8
BLACK
6
CONTINUOUS
10
95.6364099999999979
20
-66.0997890000000012
11
95.4764499999999998
21
-65.9685149999999965
0
LINE
8
BLACK
6
CONTINUOUS
10
95.4764499999999998
20
-65.9685149999999965
11
95.4764479999999907
21
-65.9685130000000015
0
LINE
8
BLACK
6
CONTINUOUS
10
95.4764479999999907
20
-65.9685130000000015
11
95.2939579999999893
21
-65.8709699999999998
0
LINE
8
BLACK
6
CONTINUOUS
10
95.2939579999999893
20
-65.8709699999999998
11
95.1699369999999902
21
-65.8333489999999983
0
LINE
8
BLACK
6
CONTINUOUS
10
95.1699369999999902
20
-65.8333489999999983
11
95.0959330000000023
21
-65.8109000000000037
0
LINE
8
BLACK
6
CONTINUOUS
10
95.0959330000000023
20
-65.8109000000000037
11
95.0959309999999931
21
-65.810898999999992
0
LINE
8
BLACK
6
CONTINUOUS
10
95.0959309999999931
20
-65.810898999999992
11
95.0959330000000023
21
-65.810898999999992
0
LINE
8
BLACK
6
CONTINUOUS
10
95.0959330000000023
20
-65.810898999999992
11
94.9852199999999982
21
-65.7999949999999956
0
LINE
8
BLACK
6
CONTINUOUS
10
94.9852199999999982
20
-65.7999949999999956
11
94.9416069999999905
21
-65.7956999999999965
0
LINE
8
BLACK
6
CONTINUOUS
10
94.9416069999999905
20
-65.7956999999999965
11
94.9416030000000006
21
-65.7956999999999965
0
LINE
8
BLACK
6
CONTINUOUS
10
94.9416030000000006
20
-65.7956999999999965
11
92.5383969999999891
21
-65.7956999999999965
0
LINE
8
BLACK
6
CONTINUOUS
10
92.5383969999999891
20
-65.7956999999999965
11
92.3840679999999992
21
-65.810898999999992
0
LINE
8
BLACK
6
CONTINUOUS
10
92.3840679999999992
20
-65.810898999999992
11
92.1860409999999888
21
-65.8709699999999998
0
LINE
8
BLACK
6
CONTINUOUS
10
92.1860409999999888
20
-65.8709699999999998
11
92.0035510000000016
21
-65.9685130000000015
0
LINE
8
BLACK
6
CONTINUOUS
10
92.0035510000000016
20
-65.9685130000000015
11
92.0035489999999925
21
-65.9685149999999965
0
LINE
8
BLACK
6
CONTINUOUS
10
92.0035489999999925
20
-65.9685149999999965
11
91.8435889999999944
21
-66.0997890000000012
0
LINE
8
BLACK
6
CONTINUOUS
10
91.8435889999999944
20
-66.0997890000000012
11
91.7123149999999896
21
-66.2597489999999993
0
LINE
8
BLACK
6
CONTINUOUS
10
91.7123149999999896
20
-66.2597489999999993
11
91.7123129999999946
21
-66.2597509999999943
0
LINE
8
BLACK
6
CONTINUOUS
10
91.7123129999999946
20
-66.2597509999999943
11
91.6271649999999909
21
-66.419052999999991
0
LINE
8
BLACK
6
CONTINUOUS
10
91.6271649999999909
20
-66.419052999999991
11
91.578203000000002
21
-66.4688979999999958
0
LINE
8
BLACK
6
CONTINUOUS
10
91.578203000000002
20
-66.4688979999999958
11
91.5178069999999906
21
-66.4846000000000004
0
LINE
8
BLACK
6
CONTINUOUS
10
91.5178069999999906
20
-66.4846000000000004
11
60.0212479999999999
21
-66.4846000000000004
0
LINE
8
BLACK
6
CONTINUOUS
10
60.0212479999999999
20
-66.4846000000000004
11
59.9538539999999998
21
-66.4952739999999949
0
LINE
8
BLACK
6
CONTINUOUS
10
59.9538539999999998
20
-66.4952739999999949
11
59.8190639999999973
21
-66.5166229999999956
0
LINE
8
BLACK
6
CONTINUOUS
10
59.8190639999999973
20
-66.5166229999999956
11
59.8190609999999978
21
-66.5166229999999956
0
LINE
8
BLACK
6
CONTINUOUS
10
59.8190609999999978
20
-66.5166229999999956
11
59.6243819999999971
21
-66.5798789999999912
0
LINE
8
BLACK
6
CONTINUOUS
10
59.6243819999999971
20
-66.5798789999999912
11
59.6243809999999996
21
-66.5798789999999912
0
LINE
8
BLACK
6
CONTINUOUS
10
59.6243809999999996
20
-66.5798789999999912
11
59.5331839999999985
21
-66.6263450000000006
0
LINE
8
BLACK
6
CONTINUOUS
10
59.5331839999999985
20
-66.6263450000000006
11
59.533184999999996
21
-66.6263459999999981
0
LINE
8
BLACK
6
CONTINUOUS
10
59.533184999999996
20
-66.6263459999999981
11
59.4419879999999949
21
-66.6728129999999908
0
LINE
8
BLACK
6
CONTINUOUS
10
59.4419879999999949
20
-66.6728129999999908
11
59.276377999999994
21
-66.7931360000000041
0
LINE
8
BLACK
6
CONTINUOUS
10
59.276377999999994
20
-66.7931360000000041
11
56.0026319999999984
21
-70.0668809999999951
0
LINE
8
BLACK
6
CONTINUOUS
10
56.0026319999999984
20
-70.0668809999999951
11
55.9413089999999968
21
-70.100365999999994
0
LINE
8
BLACK
6
CONTINUOUS
10
55.9413089999999968
20
-70.100365999999994
11
55.914950999999995
21
-70.1032000000000011
0
LINE
8
BLACK
6
CONTINUOUS
10
55.914950999999995
20
-70.1032000000000011
11
55.0033949999999976
21
-70.1032000000000011
0
LINE
8
BLACK
6
CONTINUOUS
10
55.0033949999999976
20
-70.1032000000000011
11
54.849066999999998
21
-70.1183989999999966
0
LINE
8
BLACK
6
CONTINUOUS
10
54.849066999999998
20
-70.1183989999999966
11
54.6510419999999968
21
-70.1784689999999927
0
LINE
8
BLACK
6
CONTINUOUS
10
54.6510419999999968
20
-70.1784689999999927
11
54.4685449999999989
21
-70.276016999999996
0
LINE
8
BLACK
6
CONTINUOUS
10
54.4685449999999989
20
-70.276016999999996
11
54.3085889999999978
21
-70.4072889999999916
0
LINE
8
BLACK
6
CONTINUOUS
10
54.3085889999999978
20
-70.4072889999999916
11
54.1773169999999951
21
-70.5672449999999998
0
LINE
8
BLACK
6
CONTINUOUS
10
54.1773169999999951
20
-70.5672449999999998
11
54.0797689999999989
21
-70.7497419999999977
0
LINE
8
BLACK
6
CONTINUOUS
10
54.0797689999999989
20
-70.7497419999999977
11
54.0797679999999943
21
-70.7497439999999926
0
LINE
8
BLACK
6
CONTINUOUS
10
54.0797679999999943
20
-70.7497439999999926
11
54.0797679999999943
21
-70.7497449999999901
0
LINE
8
BLACK
6
CONTINUOUS
10
54.0797679999999943
20
-70.7497449999999901
11
54.0660949999999971
21
-70.7948200000000014
0
LINE
8
BLACK
6
CONTINUOUS
10
54.0660949999999971
20
-70.7948200000000014
11
54.0197000000000003
21
-70.9477649999999898
0
LINE
8
BLACK
6
CONTINUOUS
10
54.0197000000000003
20
-70.9477649999999898
11
54.0045000000000002
21
-71.1020939999999939
0
LINE
8
BLACK
6
CONTINUOUS
10
54.0045000000000002
20
-71.1020939999999939
11
54.0045000000000002
21
-72.2489530000000002
0
LINE
8
BLACK
6
CONTINUOUS
10
54.0045000000000002
20
-72.2489530000000002
11
53.9848149999999976
21
-72.3159919999999943
0
LINE
8
BLACK
6
CONTINUOUS
10
53.9848149999999976
20
-72.3159919999999943
11
53.9320109999999957
21
-72.361746999999994
0
LINE
8
BLACK
6
CONTINUOUS
10
53.9320109999999957
20
-72.361746999999994
11
53.8628529999999941
21
-72.3716909999999984
0
LINE
8
BLACK
6
CONTINUOUS
10
53.8628529999999941
20
-72.3716909999999984
11
53.7992969999999957
21
-72.3426659999999941
0
LINE
8
BLACK
6
CONTINUOUS
10
53.7992969999999957
20
-72.3426659999999941
11
53.7928189999999944
21
-72.3366340000000037
0
LINE
8
BLACK
6
CONTINUOUS
10
53.7928189999999944
20
-72.3366340000000037
11
47.2279209999999949
21
-65.77173599999999
0
LINE
8
BLACK
6
CONTINUOUS
10
47.2279209999999949
20
-65.77173599999999
11
47.2279199999999975
21
-65.7717349999999925
0
LINE
8
BLACK
6
CONTINUOUS
10
47.2279199999999975
20
-65.7717349999999925
11
47.227919
21
-65.771733999999995
0
LINE
8
BLACK
6
CONTINUOUS
10
47.227919
20
-65.771733999999995
11
47.0623110000000011
21
-65.6514129999999909
0
LINE
8
BLACK
6
CONTINUOUS
10
47.0623110000000011
20
-65.6514129999999909
11
46.971114
21
-65.6049459999999982
0
LINE
8
BLACK
6
CONTINUOUS
10
46.971114
20
-65.6049459999999982
11
46.879919000000001
21
-65.558480000000003
0
LINE
8
BLACK
6
CONTINUOUS
10
46.879919000000001
20
-65.558480000000003
11
46.8220379999999992
21
-65.5396729999999934
0
LINE
8
BLACK
6
CONTINUOUS
10
46.8220379999999992
20
-65.5396729999999934
11
46.7146159999999995
21
-65.504768999999996
0
LINE
8
BLACK
6
CONTINUOUS
10
46.7146159999999995
20
-65.504768999999996
11
46.7146139999999974
21
-65.504768999999996
0
LINE
8
BLACK
6
CONTINUOUS
10
46.7146139999999974
20
-65.504768999999996
11
46.6852349999999987
21
-65.4952229999999957
0
LINE
8
BLACK
6
CONTINUOUS
10
46.6852349999999987
20
-65.4952229999999957
11
46.6852329999999967
21
-65.4952219999999983
0
LINE
8
BLACK
6
CONTINUOUS
10
46.6852329999999967
20
-65.4952219999999983
11
46.6852279999999951
21
-65.4952210000000008
0
LINE
8
BLACK
6
CONTINUOUS
10
46.6852279999999951
20
-65.4952210000000008
11
46.5135569999999987
21
-65.4680309999999963
0
LINE
8
BLACK
6
CONTINUOUS
10
46.5135569999999987
20
-65.4680309999999963
11
46.4830520000000007
21
-65.4632000000000005
0
LINE
8
BLACK
6
CONTINUOUS
10
46.4830520000000007
20
-65.4632000000000005
11
46.4830509999999961
21
-65.4632000000000005
0
LINE
8
BLACK
6
CONTINUOUS
10
46.4830509999999961
20
-65.4632000000000005
11
40.0883040000000008
21
-65.4632000000000005
0
LINE
8
BLACK
6
CONTINUOUS
10
40.0883040000000008
20
-65.4632000000000005
11
40.0212649999999996
21
-65.4435149999999908
0
LINE
8
BLACK
6
CONTINUOUS
10
40.0212649999999996
20
-65.4435149999999908
11
40.0154190000000014
21
-65.4395179999999925
0
LINE
8
BLACK
6
CONTINUOUS
10
40.0154190000000014
20
-65.4395179999999925
11
39.8950539999999947
21
-65.3520680000000027
0
LINE
8
BLACK
6
CONTINUOUS
10
39.8950539999999947
20
-65.3520680000000027
11
39.8950529999999972
21
-65.352066999999991
0
LINE
8
BLACK
6
CONTINUOUS
10
39.8950529999999972
20
-65.352066999999991
11
39.8950509999999952
21
-65.3520659999999936
0
LINE
8
BLACK
6
CONTINUOUS
10
39.8950509999999952
20
-65.3520659999999936
11
39.8227639999999994
21
-65.3152340000000038
0
LINE
8
BLACK
6
CONTINUOUS
10
39.8227639999999994
20
-65.3152340000000038
11
39.6635759999999991
21
-65.2341219999999993
0
LINE
8
BLACK
6
CONTINUOUS
10
39.6635759999999991
20
-65.2341219999999993
11
39.4164929999999956
21
-65.1538400000000024
0
LINE
8
BLACK
6
CONTINUOUS
10
39.4164929999999956
20
-65.1538400000000024
11
39.1599019999999953
21
-65.113199999999992
0
LINE
8
BLACK
6
CONTINUOUS
10
39.1599019999999953
20
-65.113199999999992
11
39.1598970000000008
21
-65.113199999999992
0
LINE
8
BLACK
6
CONTINUOUS
10
39.1598970000000008
20
-65.113199999999992
11
38.9001030000000014
21
-65.113199999999992
0
LINE
8
BLACK
6
CONTINUOUS
10
38.9001030000000014
20
-65.113199999999992
11
38.9000979999999998
21
-65.113199999999992
0
LINE
8
BLACK
6
CONTINUOUS
10
38.9000979999999998
20
-65.113199999999992
11
38.643505999999995
21
-65.1538400000000024
0
LINE
8
BLACK
6
CONTINUOUS
10
38.643505999999995
20
-65.1538400000000024
11
38.3964229999999986
21
-65.2341219999999993
0
LINE
8
BLACK
6
CONTINUOUS
10
38.3964229999999986
20
-65.2341219999999993
11
38.1649449999999959
21
-65.3520680000000027
0
LINE
8
BLACK
6
CONTINUOUS
10
38.1649449999999959
20
-65.3520680000000027
11
37.9547740000000005
21
-65.5047660000000036
0
LINE
8
BLACK
6
CONTINUOUS
10
37.9547740000000005
20
-65.5047660000000036
11
37.9547710000000009
21
-65.504768999999996
0
LINE
8
BLACK
6
CONTINUOUS
10
37.9547710000000009
20
-65.504768999999996
11
37.7710709999999992
21
-65.6884680000000003
0
LINE
8
BLACK
6
CONTINUOUS
10
37.7710709999999992
20
-65.6884680000000003
11
37.7710659999999976
21
-65.6884739999999994
0
LINE
8
BLACK
6
CONTINUOUS
10
37.7710659999999976
20
-65.6884739999999994
11
37.6183679999999967
21
-65.8986450000000019
0
LINE
8
BLACK
6
CONTINUOUS
10
37.6183679999999967
20
-65.8986450000000019
11
37.5004220000000004
21
-66.1301229999999975
0
LINE
8
BLACK
6
CONTINUOUS
10
37.5004220000000004
20
-66.1301229999999975
11
37.4201399999999964
21
-66.377206000000001
0
LINE
8
BLACK
6
CONTINUOUS
10
37.4201399999999964
20
-66.377206000000001
11
37.3795000000000002
21
-66.6337970000000013
0
LINE
8
BLACK
6
CONTINUOUS
10
37.3795000000000002
20
-66.6337970000000013
11
37.3795000000000002
21
-66.8936020000000013
0
CIRCLE
8
BLACK
10
93.7399999999999949
20
-67.9962000000000018
40
0.175
0
CIRCLE
8
BLACK
10
98.7399999999999949
20
-67.9962000000000018
40
0.175
0
CIRCLE
8
BLACK
10
103.7399999999999949
20
-67.9962000000000018
40
0.175
0
CIRCLE
8
BLACK
10
55.6049999999999969
20
-79.0036999999999949
40
0.175
0
CIRCLE
8
BLACK
10
63.2249999999999943
20
-79.0036999999999949
40
0.175
0
CIRCLE
8
BLACK
10
70.375
20
-79.0036999999999949
40
0.175
0
CIRCLE
8
BLACK
10
77.9949999999999903
20
-79.0036999999999949
40
0.175
0
CIRCLE
8
BLACK
10
39.0300000000000011
20
-69.3036999999999921
40
0.175
0
CIRCLE
8
BLACK
10
39.0300000000000011
20
-66.7637
40
0.175
0
CIRCLE
8
BLACK
10
55.904999999999994
20
-72.0036999999999949
40
0.175
0
CIRCLE
8
BLACK
10
66.0649999999999977
20
-72.0036999999999949
40
0.175
0
CIRCLE
8
BLACK
10
75.1749999999999972
20
-72.9536999999999978
40
0.175
0
CIRCLE
8
BLACK
10
77.7150000000000034
20
-72.9536999999999978
40
0.175
0
CIRCLE
8
BLACK
10
80.2549999999999955
20
-72.9536999999999978
40
0.175
0
LINE
8
WHITE
6
CONTINUOUS
10
20.
20
-20.
11
124.
21
-20.
0
LINE
8
WHITE
6
CONTINUOUS
10
124.
20
-20.
11
124.
21
-124.
0
LINE
8
WHITE
6
CONTINUOUS
10
124.
20
-124.
11
20.
21
-124.
0
LINE
8
WHITE
6
CONTINUOUS
10
20.
20
-124.
11
20.
21
-20.
0
CIRCLE
8
WHITE
10
93.7399999999999949
20
-67.9962000000000018
40
0.175
0
CIRCLE
8
WHITE
10
98.7399999999999949
20
-67.9962000000000018
40
0.175
0
CIRCLE
8
WHITE
10
103.7399999999999949
20
-67.9962000000000018
40
0.175
0
CIRCLE
8
WHITE
10
55.6049999999999969
20
-79.0036999999999949
40
0.175
0
CIRCLE
8
WHITE
10
63.2249999999999943
20
-79.0036999999999949
40
0.175
0
CIRCLE
8
WHITE
10
70.375
20
-79.0036999999999949
40
0.175
0
CIRCLE
8
WHITE
10
77.9949999999999903
20
-79.0036999999999949
40
0.175
0
CIRCLE
8
WHITE
10
39.0300000000000011
20
-69.3036999999999921
40
0.175
0
CIRCLE
8
WHITE
10
39.0300000000000011
20
-66.7637
40
0.175
0
CIRCLE
8
WHITE
10
55.904999999999994
20
-72.0036999999999949
40
0.175
0
CIRCLE
8
WHITE
10
66.0649999999999977
20
-72.0036999999999949
40
0.175
0
CIRCLE
8
WHITE
10
75.1749999999999972
20
-72.9536999999999978
40
0.175
0
CIRCLE
8
WHITE
10
77.7150000000000034
20
-72.9536999999999978
40
0.175
0
CIRCLE
8
WHITE
10
80.2549999999999955
20
-72.9536999999999978
40
0.175
  0
ENDSEC
  0
EOF
