  0
SECTION
  2
HEADER
  9
$ANGBASE
  50
0.0
  9
$ANGDIR
  70
1
  9
$MEASUREMENT
  70
1
  9
$INSUNITS
  70
4
  0
ENDSEC
  0
SECTION
  2
TABLES
  0
TABLE
  2
LTYPE
  70
4
  0
LTYPE
  5
40F
  2
CONTINUOUS
  70
0
  3
Solid line
  72
65
  73
0
  40
0.0
  0
LTYPE
  5
410
  2
DASHDOT
 70
0
  3
Dash Dot ____ _ ____ _
 72
65
 73
4
 40
2.0
 49
1.25
 49
-0.25
 49
0.25
 49
-0.25
  0
LTYPE
  5
411
  2
DASHED
 70
0
  3
Dashed __ __ __ __ __
 72
65
 73
2
 40
0.75
 49
0.5
 49
-0.25
  0
LTYPE
  5
43B
  2
DOTTED
 70
0
  3
Dotted .  .  .  .
 72
65
 73
2
 40
0.2
 49
0.0
 49
-0.2
  0
ENDTAB
  0
TABLE
  2
STYLE
  70
4
  0
STYLE
  2
KICAD
  70
0
  40
0
  41
1
  42
1
  50
0
  71
0
  3
isocp.shx
  0
STYLE
  2
KICADB
  70
0
  40
0
  41
1
  42
1
  50
0
  71
0
  3
isocp.shx
  0
STYLE
  2
KICADI
  70
0
  40
0
  41
1
  42
1
  50
15
  71
0
  3
isocp.shx
  0
STYLE
  2
KICADBI
  70
0
  40
0
  41
1
  42
1
  50
15
  71
0
  3
isocp.shx
  0
ENDTAB
  0
TABLE
  2
LAYER
  70
35
  0
LAYER
  2
BLACK
  70
0
  62
7
  6
CONTINUOUS
  0
LAYER
  2
GRAY1
  70
0
  62
251
  6
CONTINUOUS
  0
LAYER
  2
GRAY2
  70
0
  62
8
  6
CONTINUOUS
  0
LAYER
  2
GRAY3
  70
0
  62
9
  6
CONTINUOUS
  0
LAYER
  2
WHITE
  70
0
  62
7
  6
CONTINUOUS
  0
LAYER
  2
LYELLOW
  70
0
  62
51
  6
CONTINUOUS
  0
LAYER
  2
LORANGE
  70
0
  62
41
  6
CONTINUOUS
  0
LAYER
  2
BLUE1
  70
0
  62
178
  6
CONTINUOUS
  0
LAYER
  2
GREEN1
  70
0
  62
98
  6
CONTINUOUS
  0
LAYER
  2
CYAN1
  70
0
  62
138
  6
CONTINUOUS
  0
LAYER
  2
RED1
  70
0
  62
18
  6
CONTINUOUS
  0
LAYER
  2
MAGENTA1
  70
0
  62
228
  6
CONTINUOUS
  0
LAYER
  2
BROWN1
  70
0
  62
58
  6
CONTINUOUS
  0
LAYER
  2
ORANGE1
  70
0
  62
34
  6
CONTINUOUS
  0
LAYER
  2
BLUE2
  70
0
  62
5
  6
CONTINUOUS
  0
LAYER
  2
GREEN2
  70
0
  62
3
  6
CONTINUOUS
  0
LAYER
  2
CYAN2
  70
0
  62
4
  6
CONTINUOUS
  0
LAYER
  2
RED2
  70
0
  62
1
  6
CONTINUOUS
  0
LAYER
  2
MAGENTA2
  70
0
  62
6
  6
CONTINUOUS
  0
LAYER
  2
BROWN2
  70
0
  62
54
  6
CONTINUOUS
  0
LAYER
  2
ORANGE2
  70
0
  62
42
  6
CONTINUOUS
  0
LAYER
  2
BLUE3
  70
0
  62
171
  6
CONTINUOUS
  0
LAYER
  2
GREEN3
  70
0
  62
91
  6
CONTINUOUS
  0
LAYER
  2
CYAN3
  70
0
  62
131
  6
CONTINUOUS
  0
LAYER
  2
RED3
  70
0
  62
11
  6
CONTINUOUS
  0
LAYER
  2
MAGENTA3
  70
0
  62
221
  6
CONTINUOUS
  0
LAYER
  2
YELLOW3
  70
0
  62
2
  6
CONTINUOUS
  0
LAYER
  2
ORANGE3
  70
0
  62
32
  6
CONTINUOUS
  0
LAYER
  2
BLUE4
  70
0
  62
5
  6
CONTINUOUS
  0
LAYER
  2
GREEN4
  70
0
  62
3
  6
CONTINUOUS
  0
LAYER
  2
CYAN4
  70
0
  62
4
  6
CONTINUOUS
  0
LAYER
  2
RED4
  70
0
  62
1
  6
CONTINUOUS
  0
LAYER
  2
MAGENTA4
  70
0
  62
6
  6
CONTINUOUS
  0
LAYER
  2
YELLOW4
  70
0
  62
2
  6
CONTINUOUS
  0
LAYER
  2
ORANGE4
  70
0
  62
40
  6
CONTINUOUS
  0
ENDTAB
  0
ENDSEC
  0
SECTION
  2
ENTITIES
0
LINE
8
LYELLOW
6
CONTINUOUS
10
97.6804759999999987
20
-63.3310189999999977
11
97.6804759999999987
21
-62.3310189999999977
0
LINE
8
LYELLOW
6
CONTINUOUS
10
97.6804759999999987
20
-62.3310189999999977
11
98.0138089999999949
21
-63.0453039999999945
0
LINE
8
LYELLOW
6
CONTINUOUS
10
98.0138089999999949
20
-63.0453039999999945
11
98.347141999999991
21
-62.3310189999999977
0
LINE
8
LYELLOW
6
CONTINUOUS
10
98.347141999999991
20
-62.3310189999999977
11
98.347141999999991
21
-63.3310189999999977
0
LINE
8
LYELLOW
6
CONTINUOUS
10
99.347141999999991
20
-63.3310189999999977
11
98.7757139999999936
21
-63.3310189999999977
0
LINE
8
LYELLOW
6
CONTINUOUS
10
99.0614279999999923
20
-63.3310189999999977
11
99.0614279999999923
21
-62.3310189999999977
0
LINE
8
LYELLOW
6
CONTINUOUS
10
99.0614279999999923
20
-62.3310189999999977
11
98.9661899999999974
21
-62.4738759999999971
0
LINE
8
LYELLOW
6
CONTINUOUS
10
98.9661899999999974
20
-62.4738759999999971
11
98.8709520000000026
21
-62.569113999999999
0
LINE
8
LYELLOW
6
CONTINUOUS
10
98.8709520000000026
20
-62.569113999999999
11
98.7757139999999936
21
-62.6167329999999964
0
LINE
8
LYELLOW
6
CONTINUOUS
10
59.2483329999999953
20
-77.0885189999999909
11
58.9149999999999991
21
-76.6123279999999909
0
LINE
8
LYELLOW
6
CONTINUOUS
10
58.6769049999999979
20
-77.0885189999999909
11
58.6769049999999979
21
-76.0885189999999909
0
LINE
8
LYELLOW
6
CONTINUOUS
10
58.6769049999999979
20
-76.0885189999999909
11
59.0578569999999985
21
-76.0885189999999909
0
LINE
8
LYELLOW
6
CONTINUOUS
10
59.0578569999999985
20
-76.0885189999999909
11
59.1530950000000004
21
-76.1361380000000025
0
LINE
8
LYELLOW
6
CONTINUOUS
10
59.1530950000000004
20
-76.1361380000000025
11
59.2007139999999978
21
-76.1837569999999999
0
LINE
8
LYELLOW
6
CONTINUOUS
10
59.2007139999999978
20
-76.1837569999999999
11
59.2483329999999953
21
-76.2789949999999948
0
LINE
8
LYELLOW
6
CONTINUOUS
10
59.2483329999999953
20
-76.2789949999999948
11
59.2483329999999953
21
-76.4218520000000012
0
LINE
8
LYELLOW
6
CONTINUOUS
10
59.2483329999999953
20
-76.4218520000000012
11
59.2007139999999978
21
-76.5170899999999961
0
LINE
8
LYELLOW
6
CONTINUOUS
10
59.2007139999999978
20
-76.5170899999999961
11
59.1530950000000004
21
-76.5647089999999935
0
LINE
8
LYELLOW
6
CONTINUOUS
10
59.1530950000000004
20
-76.5647089999999935
11
59.0578569999999985
21
-76.6123279999999909
0
LINE
8
LYELLOW
6
CONTINUOUS
10
59.0578569999999985
20
-76.6123279999999909
11
58.6769049999999979
21
-76.6123279999999909
0
LINE
8
LYELLOW
6
CONTINUOUS
10
60.2007139999999978
20
-77.0885189999999909
11
59.6292860000000005
21
-77.0885189999999909
0
LINE
8
LYELLOW
6
CONTINUOUS
10
59.9149999999999991
20
-77.0885189999999909
11
59.9149999999999991
21
-76.0885189999999909
0
LINE
8
LYELLOW
6
CONTINUOUS
10
59.9149999999999991
20
-76.0885189999999909
11
59.8197619999999972
21
-76.2313759999999974
0
LINE
8
LYELLOW
6
CONTINUOUS
10
59.8197619999999972
20
-76.2313759999999974
11
59.7245239999999953
21
-76.3266139999999922
0
LINE
8
LYELLOW
6
CONTINUOUS
10
59.7245239999999953
20
-76.3266139999999922
11
59.6292860000000005
21
-76.3742329999999896
0
LINE
8
LYELLOW
6
CONTINUOUS
10
74.0183329999999984
20
-77.0885189999999909
11
73.6850000000000023
21
-76.6123279999999909
0
LINE
8
LYELLOW
6
CONTINUOUS
10
73.446905000000001
20
-77.0885189999999909
11
73.446905000000001
21
-76.0885189999999909
0
LINE
8
LYELLOW
6
CONTINUOUS
10
73.446905000000001
20
-76.0885189999999909
11
73.8278569999999945
21
-76.0885189999999909
0
LINE
8
LYELLOW
6
CONTINUOUS
10
73.8278569999999945
20
-76.0885189999999909
11
73.9230950000000036
21
-76.1361380000000025
0
LINE
8
LYELLOW
6
CONTINUOUS
10
73.9230950000000036
20
-76.1361380000000025
11
73.970714000000001
21
-76.1837569999999999
0
LINE
8
LYELLOW
6
CONTINUOUS
10
73.970714000000001
20
-76.1837569999999999
11
74.0183329999999984
21
-76.2789949999999948
0
LINE
8
LYELLOW
6
CONTINUOUS
10
74.0183329999999984
20
-76.2789949999999948
11
74.0183329999999984
21
-76.4218520000000012
0
LINE
8
LYELLOW
6
CONTINUOUS
10
74.0183329999999984
20
-76.4218520000000012
11
73.970714000000001
21
-76.5170899999999961
0
LINE
8
LYELLOW
6
CONTINUOUS
10
73.970714000000001
20
-76.5170899999999961
11
73.9230950000000036
21
-76.5647089999999935
0
LINE
8
LYELLOW
6
CONTINUOUS
10
73.9230950000000036
20
-76.5647089999999935
11
73.8278569999999945
21
-76.6123279999999909
0
LINE
8
LYELLOW
6
CONTINUOUS
10
73.8278569999999945
20
-76.6123279999999909
11
73.446905000000001
21
-76.6123279999999909
0
LINE
8
LYELLOW
6
CONTINUOUS
10
74.3992860000000036
20
-76.1837569999999999
11
74.446905000000001
21
-76.1361380000000025
0
LINE
8
LYELLOW
6
CONTINUOUS
10
74.446905000000001
20
-76.1361380000000025
11
74.5421429999999958
21
-76.0885189999999909
0
LINE
8
LYELLOW
6
CONTINUOUS
10
74.5421429999999958
20
-76.0885189999999909
11
74.7802379999999971
21
-76.0885189999999909
0
LINE
8
LYELLOW
6
CONTINUOUS
10
74.7802379999999971
20
-76.0885189999999909
11
74.8754759999999919
21
-76.1361380000000025
0
LINE
8
LYELLOW
6
CONTINUOUS
10
74.8754759999999919
20
-76.1361380000000025
11
74.9230950000000036
21
-76.1837569999999999
0
LINE
8
LYELLOW
6
CONTINUOUS
10
74.9230950000000036
20
-76.1837569999999999
11
74.970714000000001
21
-76.2789949999999948
0
LINE
8
LYELLOW
6
CONTINUOUS
10
74.970714000000001
20
-76.2789949999999948
11
74.970714000000001
21
-76.3742329999999896
0
LINE
8
LYELLOW
6
CONTINUOUS
10
74.970714000000001
20
-76.3742329999999896
11
74.9230950000000036
21
-76.5170899999999961
0
LINE
8
LYELLOW
6
CONTINUOUS
10
74.9230950000000036
20
-76.5170899999999961
11
74.351666999999992
21
-77.0885189999999909
0
LINE
8
LYELLOW
6
CONTINUOUS
10
74.351666999999992
20
-77.0885189999999909
11
74.970714000000001
21
-77.0885189999999909
0
LINE
8
LYELLOW
6
CONTINUOUS
10
38.6966660000000005
20
-71.1385190000000023
11
38.6966660000000005
21
-71.8528039999999919
0
LINE
8
LYELLOW
6
CONTINUOUS
10
38.6966660000000005
20
-71.8528039999999919
11
38.6490469999999959
21
-71.9956609999999984
0
LINE
8
LYELLOW
6
CONTINUOUS
10
38.6490469999999959
20
-71.9956609999999984
11
38.5538090000000011
21
-72.0908999999999907
0
LINE
8
LYELLOW
6
CONTINUOUS
10
38.5538090000000011
20
-72.0908999999999907
11
38.4109520000000018
21
-72.1385190000000023
0
LINE
8
LYELLOW
6
CONTINUOUS
10
38.4109520000000018
20
-72.1385190000000023
11
38.3157139999999998
21
-72.1385190000000023
0
LINE
8
LYELLOW
6
CONTINUOUS
10
39.6966660000000005
20
-72.1385190000000023
11
39.125237999999996
21
-72.1385190000000023
0
LINE
8
LYELLOW
6
CONTINUOUS
10
39.4109520000000018
20
-72.1385190000000023
11
39.4109520000000018
21
-71.1385190000000023
0
LINE
8
LYELLOW
6
CONTINUOUS
10
39.4109520000000018
20
-71.1385190000000023
11
39.3157139999999998
21
-71.2813759999999945
0
LINE
8
LYELLOW
6
CONTINUOUS
10
39.3157139999999998
20
-71.2813759999999945
11
39.2204759999999979
21
-71.3766140000000036
0
LINE
8
LYELLOW
6
CONTINUOUS
10
39.2204759999999979
20
-71.3766140000000036
11
39.125237999999996
21
-71.424233000000001
0
LINE
8
LYELLOW
6
CONTINUOUS
10
60.2469049999999982
20
-69.9885189999999966
11
60.2469049999999982
21
-68.9885189999999966
0
LINE
8
LYELLOW
6
CONTINUOUS
10
60.2469049999999982
20
-68.9885189999999966
11
60.4849999999999994
21
-68.9885189999999966
0
LINE
8
LYELLOW
6
CONTINUOUS
10
60.4849999999999994
20
-68.9885189999999966
11
60.6278569999999988
21
-69.036137999999994
0
LINE
8
LYELLOW
6
CONTINUOUS
10
60.6278569999999988
20
-69.036137999999994
11
60.7230950000000007
21
-69.131376000000003
0
LINE
8
LYELLOW
6
CONTINUOUS
10
60.7230950000000007
20
-69.131376000000003
11
60.7707139999999981
21
-69.2266139999999979
0
LINE
8
LYELLOW
6
CONTINUOUS
10
60.7707139999999981
20
-69.2266139999999979
11
60.8183329999999955
21
-69.4170900000000017
0
LINE
8
LYELLOW
6
CONTINUOUS
10
60.8183329999999955
20
-69.4170900000000017
11
60.8183329999999955
21
-69.559946999999994
0
LINE
8
LYELLOW
6
CONTINUOUS
10
60.8183329999999955
20
-69.559946999999994
11
60.7707139999999981
21
-69.7504229999999978
0
LINE
8
LYELLOW
6
CONTINUOUS
10
60.7707139999999981
20
-69.7504229999999978
11
60.7230950000000007
21
-69.8456609999999927
0
LINE
8
LYELLOW
6
CONTINUOUS
10
60.7230950000000007
20
-69.8456609999999927
11
60.6278569999999988
21
-69.9408999999999992
0
LINE
8
LYELLOW
6
CONTINUOUS
10
60.6278569999999988
20
-69.9408999999999992
11
60.4849999999999994
21
-69.9885189999999966
0
LINE
8
LYELLOW
6
CONTINUOUS
10
60.4849999999999994
20
-69.9885189999999966
11
60.2469049999999982
21
-69.9885189999999966
0
LINE
8
LYELLOW
6
CONTINUOUS
10
61.7707139999999981
20
-69.9885189999999966
11
61.1992860000000007
21
-69.9885189999999966
0
LINE
8
LYELLOW
6
CONTINUOUS
10
61.4849999999999994
20
-69.9885189999999966
11
61.4849999999999994
21
-68.9885189999999966
0
LINE
8
LYELLOW
6
CONTINUOUS
10
61.4849999999999994
20
-68.9885189999999966
11
61.3897619999999975
21
-69.131376000000003
0
LINE
8
LYELLOW
6
CONTINUOUS
10
61.3897619999999975
20
-69.131376000000003
11
61.2945239999999956
21
-69.2266139999999979
0
LINE
8
LYELLOW
6
CONTINUOUS
10
61.2945239999999956
20
-69.2266139999999979
11
61.1992860000000007
21
-69.2742329999999953
0
LINE
8
LYELLOW
6
CONTINUOUS
10
55.6430949999999953
20
-70.3585190000000011
11
55.6430949999999953
21
-69.3585190000000011
0
LINE
8
LYELLOW
6
CONTINUOUS
10
56.2145229999999998
20
-70.3585190000000011
11
55.7859519999999947
21
-69.7870899999999921
0
LINE
8
LYELLOW
6
CONTINUOUS
10
56.2145229999999998
20
-69.3585190000000011
11
55.6430949999999953
21
-69.9299469999999985
0
LINE
8
LYELLOW
6
CONTINUOUS
10
77.6197609999999969
20
-69.4037569999999988
11
77.5245230000000021
21
-69.3561380000000014
0
LINE
8
LYELLOW
6
CONTINUOUS
10
77.5245230000000021
20
-69.3561380000000014
11
77.429284999999993
21
-69.2608999999999924
0
LINE
8
LYELLOW
6
CONTINUOUS
10
77.429284999999993
20
-69.2608999999999924
11
77.2864280000000008
21
-69.1180420000000026
0
LINE
8
LYELLOW
6
CONTINUOUS
10
77.2864280000000008
20
-69.1180420000000026
11
77.1911899999999918
21
-69.070422999999991
0
LINE
8
LYELLOW
6
CONTINUOUS
10
77.1911899999999918
20
-69.070422999999991
11
77.0959519999999969
21
-69.070422999999991
0
LINE
8
LYELLOW
6
CONTINUOUS
10
77.1435709999999943
20
-69.3085189999999898
11
77.0483329999999995
21
-69.2608999999999924
0
LINE
8
LYELLOW
6
CONTINUOUS
10
77.0483329999999995
20
-69.2608999999999924
11
76.9530949999999905
21
-69.1656610000000001
0
LINE
8
LYELLOW
6
CONTINUOUS
10
76.9530949999999905
20
-69.1656610000000001
11
76.9054759999999931
21
-68.9751849999999962
0
LINE
8
LYELLOW
6
CONTINUOUS
10
76.9054759999999931
20
-68.9751849999999962
11
76.9054759999999931
21
-68.6418520000000001
0
LINE
8
LYELLOW
6
CONTINUOUS
10
76.9054759999999931
20
-68.6418520000000001
11
76.9530949999999905
21
-68.4513759999999962
0
LINE
8
LYELLOW
6
CONTINUOUS
10
76.9530949999999905
20
-68.4513759999999962
11
77.0483329999999995
21
-68.3561380000000014
0
LINE
8
LYELLOW
6
CONTINUOUS
10
77.0483329999999995
20
-68.3561380000000014
11
77.1435709999999943
21
-68.308519000000004
0
LINE
8
LYELLOW
6
CONTINUOUS
10
77.1435709999999943
20
-68.308519000000004
11
77.3340469999999982
21
-68.308519000000004
0
LINE
8
LYELLOW
6
CONTINUOUS
10
77.3340469999999982
20
-68.308519000000004
11
77.429284999999993
21
-68.3561380000000014
0
LINE
8
LYELLOW
6
CONTINUOUS
10
77.429284999999993
20
-68.3561380000000014
11
77.5245230000000021
21
-68.4513759999999962
0
LINE
8
LYELLOW
6
CONTINUOUS
10
77.5245230000000021
20
-68.4513759999999962
11
77.5721419999999995
21
-68.6418520000000001
0
LINE
8
LYELLOW
6
CONTINUOUS
10
77.5721419999999995
20
-68.6418520000000001
11
77.5721419999999995
21
-68.9751849999999962
0
LINE
8
LYELLOW
6
CONTINUOUS
10
77.5721419999999995
20
-68.9751849999999962
11
77.5245230000000021
21
-69.1656610000000001
0
LINE
8
LYELLOW
6
CONTINUOUS
10
77.5245230000000021
20
-69.1656610000000001
11
77.429284999999993
21
-69.2608999999999924
0
LINE
8
LYELLOW
6
CONTINUOUS
10
77.429284999999993
20
-69.2608999999999924
11
77.3340469999999982
21
-69.3085189999999898
0
LINE
8
LYELLOW
6
CONTINUOUS
10
77.3340469999999982
20
-69.3085189999999898
11
77.1435709999999943
21
-69.3085189999999898
0
LINE
8
LYELLOW
6
CONTINUOUS
10
78.5245230000000021
20
-69.3085189999999898
11
77.9530949999999905
21
-69.3085189999999898
0
LINE
8
LYELLOW
6
CONTINUOUS
10
78.2388090000000034
20
-69.3085189999999898
11
78.2388090000000034
21
-68.308519000000004
0
LINE
8
LYELLOW
6
CONTINUOUS
10
78.2388090000000034
20
-68.308519000000004
11
78.1435709999999943
21
-68.4513759999999962
0
LINE
8
LYELLOW
6
CONTINUOUS
10
78.1435709999999943
20
-68.4513759999999962
11
78.0483329999999995
21
-68.5466139999999911
0
LINE
8
LYELLOW
6
CONTINUOUS
10
78.0483329999999995
20
-68.5466139999999911
11
77.9530949999999905
21
-68.5942330000000027
0
LINE
8
LYELLOW
6
CONTINUOUS
10
90.6199999999999903
20
-63.8761999999999972
11
106.3599999999999994
21
-63.8761999999999972
0
LINE
8
LYELLOW
6
CONTINUOUS
10
90.6199999999999903
20
-67.4962000000000018
11
91.8599999999999994
21
-67.4962000000000018
0
LINE
8
LYELLOW
6
CONTINUOUS
10
90.6199999999999903
20
-68.4962000000000018
11
91.8599999999999994
21
-68.4962000000000018
0
LINE
8
LYELLOW
6
CONTINUOUS
10
90.6199999999999903
20
-69.7961999999999989
11
91.8599999999999994
21
-69.7961999999999989
0
LINE
8
LYELLOW
6
CONTINUOUS
10
90.6199999999999903
20
-71.9162000000000035
11
90.6199999999999903
21
-63.8761999999999972
0
LINE
8
LYELLOW
6
CONTINUOUS
10
93.4399999999999977
20
-71.9162000000000035
11
90.6199999999999903
21
-71.9162000000000035
0
LINE
8
LYELLOW
6
CONTINUOUS
10
95.6199999999999903
20
-67.4962000000000018
11
96.9279999999999973
21
-67.4962000000000018
0
LINE
8
LYELLOW
6
CONTINUOUS
10
95.6199999999999903
20
-68.4962000000000018
11
96.9279999999999973
21
-68.4962000000000018
0
LINE
8
LYELLOW
6
CONTINUOUS
10
95.6199999999999903
20
-69.7961999999999989
11
98.1969999999999885
21
-69.7961999999999989
0
LINE
8
LYELLOW
6
CONTINUOUS
10
99.2830000000000013
20
-69.7961999999999989
11
103.1969999999999885
21
-69.7961999999999989
0
LINE
8
LYELLOW
6
CONTINUOUS
10
100.5519999999999925
20
-67.4962000000000018
11
101.9279999999999973
21
-67.4962000000000018
0
LINE
8
LYELLOW
6
CONTINUOUS
10
100.5519999999999925
20
-68.4962000000000018
11
101.9279999999999973
21
-68.4962000000000018
0
LINE
8
LYELLOW
6
CONTINUOUS
10
104.2830000000000013
20
-69.7961999999999989
11
106.3599999999999994
21
-69.7961999999999989
0
LINE
8
LYELLOW
6
CONTINUOUS
10
105.5519999999999925
20
-67.4962000000000018
11
106.3599999999999994
21
-67.4962000000000018
0
LINE
8
LYELLOW
6
CONTINUOUS
10
105.5519999999999925
20
-68.4962000000000018
11
106.3599999999999994
21
-68.4962000000000018
0
LINE
8
LYELLOW
6
CONTINUOUS
10
106.3599999999999994
20
-63.8761999999999972
11
106.3599999999999994
21
-71.9162000000000035
0
LINE
8
LYELLOW
6
CONTINUOUS
10
106.3599999999999994
20
-71.9162000000000035
11
94.039999999999992
21
-71.9162000000000035
0
LINE
8
LYELLOW
6
CONTINUOUS
10
93.7617959999999897
20
-71.8635730000000024
11
93.7715259999999944
21
-71.8651490000000024
0
LINE
8
LYELLOW
6
CONTINUOUS
10
93.7715259999999944
20
-71.8651490000000024
11
93.7886620000000022
21
-71.8811000000000035
0
LINE
8
LYELLOW
6
CONTINUOUS
10
93.7886620000000022
20
-71.8811000000000035
11
94.2286619999999999
21
-72.4910989999999913
0
LINE
8
LYELLOW
6
CONTINUOUS
10
94.2286619999999999
20
-72.4910989999999913
11
94.2331769999999977
21
-72.5009829999999909
0
LINE
8
LYELLOW
6
CONTINUOUS
10
94.2331769999999977
20
-72.5009829999999909
11
94.2354330000000004
21
-72.5032389999999936
0
LINE
8
LYELLOW
6
CONTINUOUS
10
94.2354330000000004
20
-72.5032389999999936
11
94.2354330000000004
21
-72.5059200000000033
0
LINE
8
LYELLOW
6
CONTINUOUS
10
94.2354330000000004
20
-72.5059200000000033
11
94.2383899999999954
21
-72.512393000000003
0
LINE
8
LYELLOW
6
CONTINUOUS
10
94.2383899999999954
20
-72.512393000000003
11
94.2354330000000004
21
-72.5306549999999959
0
LINE
8
LYELLOW
6
CONTINUOUS
10
94.2354330000000004
20
-72.5306549999999959
11
94.2354330000000004
21
-72.549160999999998
0
LINE
8
LYELLOW
6
CONTINUOUS
10
94.2354330000000004
20
-72.549160999999998
11
94.2318569999999909
21
-72.5527359999999959
0
LINE
8
LYELLOW
6
CONTINUOUS
10
94.2318569999999909
20
-72.5527359999999959
11
94.2310499999999962
21
-72.5577249999999907
0
LINE
8
LYELLOW
6
CONTINUOUS
10
94.2310499999999962
20
-72.5577249999999907
11
94.2160459999999915
21
-72.5685469999999953
0
LINE
8
LYELLOW
6
CONTINUOUS
10
94.2160459999999915
20
-72.5685469999999953
11
94.2029610000000019
21
-72.5816329999999965
0
LINE
8
LYELLOW
6
CONTINUOUS
10
94.2029610000000019
20
-72.5816329999999965
11
94.1959799999999916
21
-72.5830210000000022
0
LINE
8
LYELLOW
6
CONTINUOUS
10
94.1959799999999916
20
-72.5830210000000022
11
94.193805999999995
21
-72.5845899999999915
0
LINE
8
LYELLOW
6
CONTINUOUS
10
94.193805999999995
20
-72.5845899999999915
11
94.1906570000000016
21
-72.5840800000000002
0
LINE
8
LYELLOW
6
CONTINUOUS
10
94.1906570000000016
20
-72.5840800000000002
11
94.1799999999999926
21
-72.586199999999991
0
LINE
8
LYELLOW
6
CONTINUOUS
10
94.1799999999999926
20
-72.586199999999991
11
93.2999999999999972
21
-72.586199999999991
0
LINE
8
LYELLOW
6
CONTINUOUS
10
93.2999999999999972
20
-72.586199999999991
11
93.2893419999999907
21
-72.5840800000000002
0
LINE
8
LYELLOW
6
CONTINUOUS
10
93.2893419999999907
20
-72.5840800000000002
11
93.2861929999999973
21
-72.5845899999999915
0
LINE
8
LYELLOW
6
CONTINUOUS
10
93.2861929999999973
20
-72.5845899999999915
11
93.2840169999999915
21
-72.5830210000000022
0
LINE
8
LYELLOW
6
CONTINUOUS
10
93.2840169999999915
20
-72.5830210000000022
11
93.277039000000002
21
-72.5816329999999965
0
LINE
8
LYELLOW
6
CONTINUOUS
10
93.277039000000002
20
-72.5816329999999965
11
93.2639569999999907
21
-72.5685509999999994
0
LINE
8
LYELLOW
6
CONTINUOUS
10
93.2639569999999907
20
-72.5685509999999994
11
93.2489489999999961
21
-72.5577260000000024
0
LINE
8
LYELLOW
6
CONTINUOUS
10
93.2489489999999961
20
-72.5577260000000024
11
93.2481409999999897
21
-72.5527349999999984
0
LINE
8
LYELLOW
6
CONTINUOUS
10
93.2481409999999897
20
-72.5527349999999984
11
93.2445669999999893
21
-72.549160999999998
0
LINE
8
LYELLOW
6
CONTINUOUS
10
93.2445669999999893
20
-72.549160999999998
11
93.2445669999999893
21
-72.5306580000000025
0
LINE
8
LYELLOW
6
CONTINUOUS
10
93.2445669999999893
20
-72.5306580000000025
11
93.2416099999999943
21
-72.512393000000003
0
LINE
8
LYELLOW
6
CONTINUOUS
10
93.2416099999999943
20
-72.512393000000003
11
93.2445669999999893
21
-72.5059200000000033
0
LINE
8
LYELLOW
6
CONTINUOUS
10
93.2445669999999893
20
-72.5059200000000033
11
93.2445669999999893
21
-72.5032389999999936
0
LINE
8
LYELLOW
6
CONTINUOUS
10
93.2445669999999893
20
-72.5032389999999936
11
93.2468219999999945
21
-72.5009829999999909
0
LINE
8
LYELLOW
6
CONTINUOUS
10
93.2468219999999945
20
-72.5009829999999909
11
93.2513379999999898
21
-72.491100000000003
0
LINE
8
LYELLOW
6
CONTINUOUS
10
93.2513379999999898
20
-72.491100000000003
11
93.6913380000000018
21
-71.8811000000000035
0
LINE
8
LYELLOW
6
CONTINUOUS
10
93.6913380000000018
20
-71.8811000000000035
11
93.7084739999999954
21
-71.8651499999999999
0
LINE
8
LYELLOW
6
CONTINUOUS
10
93.7084739999999954
20
-71.8651499999999999
11
93.718199999999996
21
-71.8635749999999973
0
LINE
8
LYELLOW
6
CONTINUOUS
10
93.718199999999996
20
-71.8635749999999973
11
93.726192999999995
21
-71.8578100000000006
0
LINE
8
LYELLOW
6
CONTINUOUS
10
93.726192999999995
20
-71.8578100000000006
11
93.7399999999999949
21
-71.8600449999999995
0
LINE
8
LYELLOW
6
CONTINUOUS
10
93.7399999999999949
20
-71.8600449999999995
11
93.7538059999999973
21
-71.8578100000000006
0
LINE
8
LYELLOW
6
CONTINUOUS
10
93.7538059999999973
20
-71.8578100000000006
11
93.7617959999999897
21
-71.8635730000000024
0
LINE
8
LYELLOW
6
CONTINUOUS
10
56.144999999999996
20
-77.6336999999999904
11
62.6849999999999952
21
-77.6336999999999904
0
LINE
8
LYELLOW
6
CONTINUOUS
10
56.144999999999996
20
-77.9637000000000029
11
56.144999999999996
21
-77.6336999999999904
0
LINE
8
LYELLOW
6
CONTINUOUS
10
56.144999999999996
20
-80.0437000000000012
11
56.144999999999996
21
-80.3736999999999995
0
LINE
8
LYELLOW
6
CONTINUOUS
10
56.144999999999996
20
-80.3736999999999995
11
62.6849999999999952
21
-80.3736999999999995
0
LINE
8
LYELLOW
6
CONTINUOUS
10
62.6849999999999952
20
-77.6336999999999904
11
62.6849999999999952
21
-77.9637000000000029
0
LINE
8
LYELLOW
6
CONTINUOUS
10
62.6849999999999952
20
-80.3736999999999995
11
62.6849999999999952
21
-80.0437000000000012
0
LINE
8
LYELLOW
6
CONTINUOUS
10
70.914999999999992
20
-77.6336999999999904
11
77.4549999999999983
21
-77.6336999999999904
0
LINE
8
LYELLOW
6
CONTINUOUS
10
70.914999999999992
20
-77.9637000000000029
11
70.914999999999992
21
-77.6336999999999904
0
LINE
8
LYELLOW
6
CONTINUOUS
10
70.914999999999992
20
-80.0437000000000012
11
70.914999999999992
21
-80.3736999999999995
0
LINE
8
LYELLOW
6
CONTINUOUS
10
70.914999999999992
20
-80.3736999999999995
11
77.4549999999999983
21
-80.3736999999999995
0
LINE
8
LYELLOW
6
CONTINUOUS
10
77.4549999999999983
20
-77.6336999999999904
11
77.4549999999999983
21
-77.9637000000000029
0
LINE
8
LYELLOW
6
CONTINUOUS
10
77.4549999999999983
20
-80.3736999999999995
11
77.4549999999999983
21
-80.0437000000000012
0
LINE
8
LYELLOW
6
CONTINUOUS
10
37.6499999999999986
20
-68.0336999999999961
11
37.6499999999999986
21
-65.3836999999999904
0
LINE
8
LYELLOW
6
CONTINUOUS
10
40.4099999999999966
20
-65.3836999999999904
11
37.6499999999999986
21
-65.3836999999999904
0
LINE
8
LYELLOW
6
CONTINUOUS
10
40.4099999999999966
20
-68.0336999999999961
11
37.6499999999999986
21
-68.0336999999999961
0
LINE
8
LYELLOW
6
CONTINUOUS
10
40.4099999999999966
20
-68.0336999999999961
11
40.4099999999999966
21
-65.3836999999999904
0
LINE
8
LYELLOW
6
CONTINUOUS
10
40.4099999999999966
20
-69.3036999999999921
11
40.4099999999999966
21
-70.6837000000000018
0
LINE
8
LYELLOW
6
CONTINUOUS
10
40.4099999999999966
20
-70.6837000000000018
11
39.0300000000000011
21
-70.6837000000000018
0
LINE
8
LYELLOW
6
CONTINUOUS
10
57.2449999999999974
20
-72.0036999999999949
11
58.2650000000000006
21
-72.0036999999999949
0
LINE
8
LYELLOW
6
CONTINUOUS
10
59.0449999999999946
20
-70.5336999999999961
11
59.0449999999999946
21
-73.4736999999999938
0
LINE
8
LYELLOW
6
CONTINUOUS
10
59.1649999999999991
20
-70.5336999999999961
11
59.1649999999999991
21
-73.4736999999999938
0
LINE
8
LYELLOW
6
CONTINUOUS
10
59.2849999999999966
20
-70.5336999999999961
11
59.2849999999999966
21
-73.4736999999999938
0
LINE
8
LYELLOW
6
CONTINUOUS
10
64.7249999999999943
20
-72.0036999999999949
11
63.7049999999999983
21
-72.0036999999999949
0
LINE
8
LYELLOW
6
CONTINUOUS
10
58.2650000000000006
20
-70.5336999999999961
11
63.7049999999999983
21
-70.5336999999999961
0
LINE
8
LYELLOW
6
CONTINUOUS
10
63.7049999999999983
20
-70.5336999999999961
11
63.7049999999999983
21
-73.4736999999999938
0
LINE
8
LYELLOW
6
CONTINUOUS
10
63.7049999999999983
20
-73.4736999999999938
11
58.2650000000000006
21
-73.4736999999999938
0
LINE
8
LYELLOW
6
CONTINUOUS
10
58.2650000000000006
20
-73.4736999999999938
11
58.2650000000000006
21
-70.5336999999999961
0
LINE
8
LYELLOW
6
CONTINUOUS
10
72.6049999999999898
20
-69.6936999999999927
11
82.8250000000000028
21
-69.6936999999999927
0
LINE
8
LYELLOW
6
CONTINUOUS
10
72.6049999999999898
20
-71.0737000000000023
11
82.8250000000000028
21
-71.0737000000000023
0
LINE
8
LYELLOW
6
CONTINUOUS
10
72.6049999999999898
20
-74.3136999999999972
11
72.6049999999999898
21
-69.6936999999999927
0
LINE
8
LYELLOW
6
CONTINUOUS
10
75.8649999999999949
20
-69.6936999999999927
11
75.8649999999999949
21
-71.0737000000000023
0
LINE
8
LYELLOW
6
CONTINUOUS
10
79.5649999999999977
20
-69.6936999999999927
11
79.5649999999999977
21
-71.0737000000000023
0
LINE
8
LYELLOW
6
CONTINUOUS
10
82.8250000000000028
20
-69.6936999999999927
11
82.8250000000000028
21
-74.3136999999999972
0
LINE
8
LYELLOW
6
CONTINUOUS
10
82.8250000000000028
20
-74.3136999999999972
11
72.6049999999999898
21
-74.3136999999999972
0
LINE
8
WHITE
6
CONTINUOUS
10
20.
20
-20.
11
124.
21
-20.
0
LINE
8
WHITE
6
CONTINUOUS
10
124.
20
-20.
11
124.
21
-124.
0
LINE
8
WHITE
6
CONTINUOUS
10
124.
20
-124.
11
20.
21
-124.
0
LINE
8
WHITE
6
CONTINUOUS
10
20.
20
-124.
11
20.
21
-20.
  0
ENDSEC
  0
EOF
